  0
SECTION
  2
HEADER
  9
$ACADVER
  1
AC1024
  9
$ACADMAINTVER
 70
     6
  9
$DWGCODEPAGE
  3
ANSI_1254
  9
$INSBASE
 10
0.0
 20
0.0
 30
0.0
  9
$EXTMIN
 10
1.000000000000000E+20
 20
1.000000000000000E+20
 30
1.000000000000000E+20
  9
$EXTMAX
 10
-1.000000000000000E+20
 20
-1.000000000000000E+20
 30
-1.000000000000000E+20
  9
$LIMMIN
 10
0.0
 20
0.0
  9
$LIMMAX
 10
12.0
 20
9.0
  9
$ORTHOMODE
 70
     0
  9
$REGENMODE
 70
     1
  9
$FILLMODE
 70
     1
  9
$QTEXTMODE
 70
     0
  9
$MIRRTEXT
 70
     1
  9
$LTSCALE
 40
1.0
  9
$ATTMODE
 70
     1
  9
$TEXTSIZE
 40
0.2
  9
$TRACEWID
 40
0.05
  9
$TEXTSTYLE
  7
Standard
  9
$CLAYER
  8
0
  9
$CELTYPE
  6
ByLayer
  9
$CECOLOR
 62
   256
  9
$CELTSCALE
 40
1.0
  9
$DISPSILH
 70
     0
  9
$DIMSCALE
 40
1.0
  9
$DIMASZ
 40
0.18
  9
$DIMEXO
 40
0.0625
  9
$DIMDLI
 40
0.38
  9
$DIMRND
 40
0.0
  9
$DIMDLE
 40
0.0
  9
$DIMEXE
 40
0.18
  9
$DIMTP
 40
0.0
  9
$DIMTM
 40
0.0
  9
$DIMTXT
 40
0.18
  9
$DIMCEN
 40
0.09
  9
$DIMTSZ
 40
0.0
  9
$DIMTOL
 70
     0
  9
$DIMLIM
 70
     0
  9
$DIMTIH
 70
     1
  9
$DIMTOH
 70
     1
  9
$DIMSE1
 70
     0
  9
$DIMSE2
 70
     0
  9
$DIMTAD
 70
     0
  9
$DIMZIN
 70
     0
  9
$DIMBLK
  1

  9
$DIMASO
 70
     1
  9
$DIMSHO
 70
     1
  9
$DIMPOST
  1

  9
$DIMAPOST
  1

  9
$DIMALT
 70
     0
  9
$DIMALTD
 70
     2
  9
$DIMALTF
 40
25.4
  9
$DIMLFAC
 40
1.0
  9
$DIMTOFL
 70
     0
  9
$DIMTVP
 40
0.0
  9
$DIMTIX
 70
     0
  9
$DIMSOXD
 70
     0
  9
$DIMSAH
 70
     0
  9
$DIMBLK1
  1

  9
$DIMBLK2
  1

  9
$DIMSTYLE
  2
Standard
  9
$DIMCLRD
 70
     0
  9
$DIMCLRE
 70
     0
  9
$DIMCLRT
 70
     0
  9
$DIMTFAC
 40
1.0
  9
$DIMGAP
 40
0.09
  9
$DIMJUST
 70
     0
  9
$DIMSD1
 70
     0
  9
$DIMSD2
 70
     0
  9
$DIMTOLJ
 70
     1
  9
$DIMTZIN
 70
     0
  9
$DIMALTZ
 70
     0
  9
$DIMALTTZ
 70
     0
  9
$DIMUPT
 70
     0
  9
$DIMDEC
 70
     4
  9
$DIMTDEC
 70
     4
  9
$DIMALTU
 70
     2
  9
$DIMALTTD
 70
     2
  9
$DIMTXSTY
  7
Standard
  9
$DIMAUNIT
 70
     0
  9
$DIMADEC
 70
     0
  9
$DIMALTRND
 40
0.0
  9
$DIMAZIN
 70
     0
  9
$DIMDSEP
 70
    46
  9
$DIMATFIT
 70
     3
  9
$DIMFRAC
 70
     0
  9
$DIMLDRBLK
  1

  9
$DIMLUNIT
 70
     2
  9
$DIMLWD
 70
    -2
  9
$DIMLWE
 70
    -2
  9
$DIMTMOVE
 70
     0
  9
$DIMFXL
 40
1.0
  9
$DIMFXLON
 70
     0
  9
$DIMJOGANG
 40
0.7853981633974483
  9
$DIMTFILL
 70
     0
  9
$DIMTFILLCLR
 70
     0
  9
$DIMARCSYM
 70
     0
  9
$DIMLTYPE
  6

  9
$DIMLTEX1
  6

  9
$DIMLTEX2
  6

  9
$DIMTXTDIRECTION
 70
     0
  9
$LUNITS
 70
     2
  9
$LUPREC
 70
     4
  9
$SKETCHINC
 40
0.1
  9
$FILLETRAD
 40
0.5
  9
$AUNITS
 70
     0
  9
$AUPREC
 70
     0
  9
$MENU
  1
.
  9
$ELEVATION
 40
0.0
  9
$PELEVATION
 40
0.0
  9
$THICKNESS
 40
0.0
  9
$LIMCHECK
 70
     0
  9
$CHAMFERA
 40
0.5
  9
$CHAMFERB
 40
0.5
  9
$CHAMFERC
 40
1.0
  9
$CHAMFERD
 40
0.0
  9
$SKPOLY
 70
     0
  9
$TDCREATE
 40
2458256.03067809
  9
$TDUCREATE
 40
2458255.90567809
  9
$TDUPDATE
 40
2458256.030678264
  9
$TDUUPDATE
 40
2458255.905678264
  9
$TDINDWG
 40
0.0000000116
  9
$TDUSRTIMER
 40
0.0000000116
  9
$USRTIMER
 70
     1
  9
$ANGBASE
 50
0.0
  9
$ANGDIR
 70
     0
  9
$PDMODE
 70
     0
  9
$PDSIZE
 40
0.0
  9
$PLINEWID
 40
0.0
  9
$SPLFRAME
 70
     0
  9
$SPLINETYPE
 70
     6
  9
$SPLINESEGS
 70
     8
  9
$HANDSEED
  5
D7
  9
$SURFTAB1
 70
     6
  9
$SURFTAB2
 70
     6
  9
$SURFTYPE
 70
     6
  9
$SURFU
 70
     6
  9
$SURFV
 70
     6
  9
$UCSBASE
  2

  9
$UCSNAME
  2

  9
$UCSORG
 10
0.0
 20
0.0
 30
0.0
  9
$UCSXDIR
 10
1.0
 20
0.0
 30
0.0
  9
$UCSYDIR
 10
0.0
 20
1.0
 30
0.0
  9
$UCSORTHOREF
  2

  9
$UCSORTHOVIEW
 70
     0
  9
$UCSORGTOP
 10
0.0
 20
0.0
 30
0.0
  9
$UCSORGBOTTOM
 10
0.0
 20
0.0
 30
0.0
  9
$UCSORGLEFT
 10
0.0
 20
0.0
 30
0.0
  9
$UCSORGRIGHT
 10
0.0
 20
0.0
 30
0.0
  9
$UCSORGFRONT
 10
0.0
 20
0.0
 30
0.0
  9
$UCSORGBACK
 10
0.0
 20
0.0
 30
0.0
  9
$PUCSBASE
  2

  9
$PUCSNAME
  2

  9
$PUCSORG
 10
0.0
 20
0.0
 30
0.0
  9
$PUCSXDIR
 10
1.0
 20
0.0
 30
0.0
  9
$PUCSYDIR
 10
0.0
 20
1.0
 30
0.0
  9
$PUCSORTHOREF
  2

  9
$PUCSORTHOVIEW
 70
     0
  9
$PUCSORGTOP
 10
0.0
 20
0.0
 30
0.0
  9
$PUCSORGBOTTOM
 10
0.0
 20
0.0
 30
0.0
  9
$PUCSORGLEFT
 10
0.0
 20
0.0
 30
0.0
  9
$PUCSORGRIGHT
 10
0.0
 20
0.0
 30
0.0
  9
$PUCSORGFRONT
 10
0.0
 20
0.0
 30
0.0
  9
$PUCSORGBACK
 10
0.0
 20
0.0
 30
0.0
  9
$USERI1
 70
     0
  9
$USERI2
 70
     0
  9
$USERI3
 70
     0
  9
$USERI4
 70
     0
  9
$USERI5
 70
     0
  9
$USERR1
 40
0.0
  9
$USERR2
 40
0.0
  9
$USERR3
 40
0.0
  9
$USERR4
 40
0.0
  9
$USERR5
 40
0.0
  9
$WORLDVIEW
 70
     1
  9
$SHADEDGE
 70
     3
  9
$SHADEDIF
 70
    70
  9
$TILEMODE
 70
     1
  9
$MAXACTVP
 70
    64
  9
$PINSBASE
 10
0.0
 20
0.0
 30
0.0
  9
$PLIMCHECK
 70
     0
  9
$PEXTMIN
 10
1.000000000000000E+20
 20
1.000000000000000E+20
 30
1.000000000000000E+20
  9
$PEXTMAX
 10
-1.000000000000000E+20
 20
-1.000000000000000E+20
 30
-1.000000000000000E+20
  9
$PLIMMIN
 10
0.0
 20
0.0
  9
$PLIMMAX
 10
12.0
 20
9.0
  9
$UNITMODE
 70
     0
  9
$VISRETAIN
 70
     1
  9
$PLINEGEN
 70
     0
  9
$PSLTSCALE
 70
     1
  9
$TREEDEPTH
 70
  3020
  9
$CMLSTYLE
  2
Standard
  9
$CMLJUST
 70
     0
  9
$CMLSCALE
 40
1.0
  9
$PROXYGRAPHICS
 70
     1
  9
$MEASUREMENT
 70
     0
  9
$CELWEIGHT
370
    -1
  9
$ENDCAPS
280
     0
  9
$JOINSTYLE
280
     0
  9
$LWDISPLAY
290
     1
  9
$INSUNITS
 70
     1
  9
$HYPERLINKBASE
  1

  9
$STYLESHEET
  1

  9
$XEDIT
290
     1
  9
$CEPSNTYPE
380
     0
  9
$PSTYLEMODE
290
     1
  9
$FINGERPRINTGUID
  2
{604B8D32-DCBD-43E8-867E-5EAB12411586}
  9
$VERSIONGUID
  2
{FAEB1C32-E019-11D5-929B-00C0DF256EC4}
  9
$EXTNAMES
290
     1
  9
$PSVPSCALE
 40
0.0
  9
$OLESTARTUP
290
     0
  9
$SORTENTS
280
   127
  9
$INDEXCTL
280
     0
  9
$HIDETEXT
280
     1
  9
$XCLIPFRAME
280
     2
  9
$HALOGAP
280
     0
  9
$OBSCOLOR
 70
   257
  9
$OBSLTYPE
280
     0
  9
$INTERSECTIONDISPLAY
280
     0
  9
$INTERSECTIONCOLOR
 70
   257
  9
$DIMASSOC
280
     2
  9
$PROJECTNAME
  1

  9
$CAMERADISPLAY
290
     0
  9
$LENSLENGTH
 40
50.0
  9
$CAMERAHEIGHT
 40
0.0
  9
$STEPSPERSEC
 40
2.0
  9
$STEPSIZE
 40
6.0
  9
$3DDWFPREC
 40
2.0
  9
$PSOLWIDTH
 40
0.25
  9
$PSOLHEIGHT
 40
4.0
  9
$LOFTANG1
 40
1.570796326794897
  9
$LOFTANG2
 40
1.570796326794897
  9
$LOFTMAG1
 40
0.0
  9
$LOFTMAG2
 40
0.0
  9
$LOFTPARAM
 70
     7
  9
$LOFTNORMALS
280
     1
  9
$LATITUDE
 40
37.795
  9
$LONGITUDE
 40
-122.394
  9
$NORTHDIRECTION
 40
0.0
  9
$TIMEZONE
 70
 -8000
  9
$LIGHTGLYPHDISPLAY
280
     1
  9
$TILEMODELIGHTSYNCH
280
     1
  9
$CMATERIAL
347
3C
  9
$SOLIDHIST
280
     1
  9
$SHOWHIST
280
     1
  9
$DWFFRAME
280
     2
  9
$DGNFRAME
280
     2
  9
$REALWORLDSCALE
290
     1
  9
$INTERFERECOLOR
 62
   256
  9
$CSHADOW
280
     0
  9
$SHADOWPLANELOCATION
 40
0.0
  0
ENDSEC
  0
SECTION
  2
CLASSES
  0
CLASS
  1
ACDBDICTIONARYWDFLT
  2
AcDbDictionaryWithDefault
  3
ObjectDBX Classes
 90
        0
 91
        4
280
     0
281
     0
  0
CLASS
  1
VISUALSTYLE
  2
AcDbVisualStyle
  3
ObjectDBX Classes
 90
     4095
 91
        4
280
     0
281
     0
  0
CLASS
  1
MATERIAL
  2
AcDbMaterial
  3
ObjectDBX Classes
 90
     1153
 91
        4
280
     0
281
     0
  0
CLASS
  1
SUN
  2
AcDbSun
  3
SCENEOE
 90
     1024
 91
        4
280
     0
281
     0
  0
ENDSEC
  0
SECTION
  2
TABLES
  0
TABLE
  2
VPORT
  5
8
330
0
100
AcDbSymbolTable
 70
     1
  0
VPORT
  5
29
330
8
100
AcDbSymbolTableRecord
100
AcDbViewportTableRecord
  2
*Active
 70
     0
 10
0.0
 20
0.0
 11
1.0
 21
1.0
 12
0.0
 22
0.0
 13
0.0
 23
0.0
 14
0.5
 24
0.5
 15
0.5
 25
0.5
 16
0.0
 26
0.0
 36
1.0
 17
12.0
 27
9.0
 37
0.0
 40
18.0
 41
1.333333333333333
 42
50.0
 43
0.0
 44
0.0
 50
0.0
 51
0.0
 71
     0
 72
   100
 73
     1
 74
     3
 75
     0
 76
     0
 77
     0
 78
     0
281
     0
 65
     1
110
0.0
120
0.0
130
0.0
111
1.0
121
0.0
131
0.0
112
0.0
122
1.0
132
0.0
 79
     0
146
0.0
 60
     3
 61
     5
292
     1
282
     1
141
0.0
142
0.0
 63
   250
361
3F
  0
ENDTAB
  0
TABLE
  2
LTYPE
  5
5
330
0
100
AcDbSymbolTable
 70
     1
  0
LTYPE
  5
14
330
5
100
AcDbSymbolTableRecord
100
AcDbLinetypeTableRecord
  2
ByBlock
 70
     0
  3

 72
    65
 73
     0
 40
0.0
  0
LTYPE
  5
15
330
5
100
AcDbSymbolTableRecord
100
AcDbLinetypeTableRecord
  2
ByLayer
 70
     0
  3

 72
    65
 73
     0
 40
0.0
  0
LTYPE
  5
16
330
5
100
AcDbSymbolTableRecord
100
AcDbLinetypeTableRecord
  2
Continuous
 70
     0
  3
Solid line
 72
    65
 73
     0
 40
0.0
  0
ENDTAB
  0
TABLE
  2
LAYER
  5
2
330
0
100
AcDbSymbolTable
 70
     2
  0
LAYER
  5
10
330
2
100
AcDbSymbolTableRecord
100
AcDbLayerTableRecord
  2
0
 70
     0
 62
     7
  6
Continuous
370
    -3
390
F
347
3E
  0
LAYER
  5
40
330
2
100
AcDbSymbolTableRecord
100
AcDbLayerTableRecord
  2
Layer 1
 70
     0
 62
     7
  6
Continuous
370
    -3
390
F
347
3E
  0
ENDTAB
  0
TABLE
  2
STYLE
  5
3
330
0
100
AcDbSymbolTable
 70
     1
  0
STYLE
  5
11
330
3
100
AcDbSymbolTableRecord
100
AcDbTextStyleTableRecord
  2
Standard
 70
     0
 40
0.0
 41
1.0
 50
0.0
 71
     0
 42
0.2
  3
txt
  4

  0
ENDTAB
  0
TABLE
  2
VIEW
  5
6
330
0
100
AcDbSymbolTable
 70
     0
  0
ENDTAB
  0
TABLE
  2
UCS
  5
7
330
0
100
AcDbSymbolTable
 70
     0
  0
ENDTAB
  0
TABLE
  2
APPID
  5
9
330
0
100
AcDbSymbolTable
 70
     1
  0
APPID
  5
12
330
9
100
AcDbSymbolTableRecord
100
AcDbRegAppTableRecord
  2
ACAD
 70
     0
  0
ENDTAB
  0
TABLE
  2
DIMSTYLE
  5
A
330
0
100
AcDbSymbolTable
 70
     1
100
AcDbDimStyleTable
  0
DIMSTYLE
105
27
330
A
100
AcDbSymbolTableRecord
100
AcDbDimStyleTableRecord
  2
Standard
 70
     0
178
     0
340
11
  0
ENDTAB
  0
TABLE
  2
BLOCK_RECORD
  5
1
330
0
100
AcDbSymbolTable
 70
     3
  0
BLOCK_RECORD
  5
1F
330
1
100
AcDbSymbolTableRecord
100
AcDbBlockTableRecord
  2
*Model_Space
340
22
 70
     0
280
     1
281
     0
  0
BLOCK_RECORD
  5
1B
330
1
100
AcDbSymbolTableRecord
100
AcDbBlockTableRecord
  2
*Paper_Space
340
1E
 70
     0
280
     1
281
     0
  0
BLOCK_RECORD
  5
23
330
1
100
AcDbSymbolTableRecord
100
AcDbBlockTableRecord
  2
*Paper_Space0
340
26
 70
     0
280
     1
281
     0
  0
BLOCK_RECORD
  5
82
330
1
100
AcDbSymbolTableRecord
100
AcDbBlockTableRecord
  2
block 2
340
0
102
{BLKREFS
331
83
102
}
 70
     0
280
     1
281
     0
  0
BLOCK_RECORD
  5
89
330
1
100
AcDbSymbolTableRecord
100
AcDbBlockTableRecord
  2
block 3
340
0
102
{BLKREFS
331
8A
102
}
 70
     0
280
     1
281
     0
  0
ENDTAB
  0
ENDSEC
  0
SECTION
  2
BLOCKS
  0
BLOCK
  5
20
330
1F
100
AcDbEntity
  8
0
100
AcDbBlockBegin
  2
*Model_Space
 70
     0
 10
0.0
 20
0.0
 30
0.0
  3
*Model_Space
  1

  0
ENDBLK
  5
21
330
1F
100
AcDbEntity
  8
0
100
AcDbBlockEnd
  0
BLOCK
  5
1C
330
1B
100
AcDbEntity
 67
     1
  8
0
100
AcDbBlockBegin
  2
*Paper_Space
 70
     0
 10
0.0
 20
0.0
 30
0.0
  3
*Paper_Space
  1

  0
ENDBLK
  5
1D
330
1B
100
AcDbEntity
 67
     1
  8
0
100
AcDbBlockEnd
  0
BLOCK
  5
24
330
23
100
AcDbEntity
  8
0
100
AcDbBlockBegin
  2
*Paper_Space0
 70
     0
 10
0.0
 20
0.0
 30
0.0
  3
*Paper_Space0
  1

  0
ENDBLK
  5
25
330
23
100
AcDbEntity
  8
0
100
AcDbBlockEnd
  0
BLOCK
  5
84
330
82
100
AcDbEntity
  8
0
100
AcDbBlockBegin
  2
block 2
 70
     0
 10
0.0
 20
0.0
 30
0.0
  3
block 2
  1

  0
SPLINE
  5
86
330
82
100
AcDbEntity
  8
Layer 1
370
     0
100
AcDbSpline
210
0.0
220
0.0
230
1.0
 70
    11
 71
     3
 72
    53
 73
    49
 74
     0
 42
0.0000000001
 43
0.0000000001
 12
1.0
 22
0.0
 32
0.0
 13
1.0
 23
0.0
 33
0.0
 40
0.0
 40
0.0
 40
0.0
 40
0.0
 40
1.0
 40
1.0
 40
1.0
 40
2.0
 40
2.0
 40
2.0
 40
3.0
 40
3.0
 40
3.0
 40
4.0
 40
4.0
 40
4.0
 40
5.0
 40
5.0
 40
5.0
 40
6.0
 40
6.0
 40
6.0
 40
7.0
 40
7.0
 40
7.0
 40
8.0
 40
8.0
 40
8.0
 40
9.0
 40
9.0
 40
9.0
 40
10.0
 40
10.0
 40
10.0
 40
11.0
 40
11.0
 40
11.0
 40
12.0
 40
12.0
 40
12.0
 40
13.0
 40
13.0
 40
13.0
 40
14.0
 40
14.0
 40
14.0
 40
15.0
 40
15.0
 40
15.0
 40
16.0
 40
16.0
 40
16.0
 40
16.0
 10
28.6875
 20
13.75
 30
0.0
 10
28.6875
 20
13.75
 30
0.0
 10
28.6875
 20
17.359375
 30
0.0
 10
28.6875
 20
17.359375
 30
0.0
 10
28.6875
 20
17.49688055555556
 30
0.0
 10
28.57503194444444
 20
17.60936805555555
 30
0.0
 10
28.4375
 20
17.60936805555555
 30
0.0
 10
28.4375
 20
17.60936805555555
 30
0.0
 10
26.8125
 20
17.60936805555555
 30
0.0
 10
26.8125
 20
17.60936805555555
 30
0.0
 10
26.67499444444444
 20
17.60936805555555
 30
0.0
 10
26.5625
 20
17.49688055555556
 30
0.0
 10
26.5625
 20
17.359375
 30
0.0
 10
26.5625
 20
17.359375
 30
0.0
 10
26.5625
 20
10.8906177804354
 30
0.0
 10
26.5625
 20
10.8906177804354
 30
0.0
 10
26.5625
 20
10.8906177804354
 30
0.0
 10
26.5625
 20
10.39061779306646
 30
0.0
 10
26.5625
 20
10.39061779306646
 30
0.0
 10
26.5625
 20
10.39061779306646
 30
0.0
 10
26.5625
 20
7.28125
 30
0.0
 10
26.5625
 20
7.28125
 30
0.0
 10
26.5625
 20
7.28125
 30
0.0
 10
26.5625
 20
7.03125
 30
0.0
 10
26.5625
 20
7.03125
 30
0.0
 10
26.5625
 20
7.03125
 30
0.0
 10
26.5625
 20
5.890625
 30
0.0
 10
26.5625
 20
5.890625
 30
0.0
 10
26.5625
 20
5.753119299108422
 30
0.0
 10
26.67499444444444
 20
5.640625
 30
0.0
 10
26.8125
 20
5.640625
 30
0.0
 10
26.8125
 20
5.640625
 30
0.0
 10
28.4375
 20
5.640625
 30
0.0
 10
28.4375
 20
5.640625
 30
0.0
 10
28.57503194444444
 20
5.640625
 30
0.0
 10
28.6875
 20
5.753119299108422
 30
0.0
 10
28.6875
 20
5.890625
 30
0.0
 10
28.6875
 20
5.890625
 30
0.0
 10
28.6875
 20
9.499992815565545
 30
0.0
 10
28.6875
 20
9.499992815565545
 30
0.0
 10
28.6875
 20
9.499992815565545
 30
0.0
 10
28.6875
 20
9.75
 30
0.0
 10
28.6875
 20
9.75
 30
0.0
 10
28.6875
 20
9.75
 30
0.0
 10
28.6875
 20
13.5
 30
0.0
 10
28.6875
 20
13.5
 30
0.0
 10
28.6875
 20
13.5
 30
0.0
 10
28.6875
 20
13.75
 30
0.0
 10
28.6875
 20
13.75
 30
0.0
  0
SPLINE
  5
87
330
82
100
AcDbEntity
  8
Layer 1
370
     0
100
AcDbSpline
210
0.0
220
0.0
230
1.0
 70
    11
 71
     3
 72
    35
 73
    31
 74
     0
 42
0.0000000001
 43
0.0000000001
 12
1.0
 22
0.0
 32
0.0
 13
1.0
 23
0.0
 33
0.0
 40
0.0
 40
0.0
 40
0.0
 40
0.0
 40
1.0
 40
1.0
 40
1.0
 40
2.0
 40
2.0
 40
2.0
 40
3.0
 40
3.0
 40
3.0
 40
4.0
 40
4.0
 40
4.0
 40
5.0
 40
5.0
 40
5.0
 40
6.0
 40
6.0
 40
6.0
 40
7.0
 40
7.0
 40
7.0
 40
8.0
 40
8.0
 40
8.0
 40
9.0
 40
9.0
 40
9.0
 40
10.0
 40
10.0
 40
10.0
 40
10.0
 10
26.3125
 20
11.01561111111111
 30
0.0
 10
26.3125
 20
11.01561111111111
 30
0.0
 10
26.3125
 20
17.484375
 30
0.0
 10
26.3125
 20
17.484375
 30
0.0
 10
26.3125
 20
17.62188055555556
 30
0.0
 10
26.20000555555556
 20
17.73436805555555
 30
0.0
 10
26.0625
 20
17.73436805555555
 30
0.0
 10
26.0625
 20
17.73436805555555
 30
0.0
 10
24.4375
 20
17.73436805555555
 30
0.0
 10
24.4375
 20
17.73436805555555
 30
0.0
 10
24.29999444444444
 20
17.73436805555555
 30
0.0
 10
24.1875
 20
17.62188055555556
 30
0.0
 10
24.1875
 20
17.484375
 30
0.0
 10
24.1875
 20
17.484375
 30
0.0
 10
24.1875
 20
14.375
 30
0.0
 10
24.1875
 20
14.375
 30
0.0
 10
24.1875
 20
14.375
 30
0.0
 10
24.1875
 20
14.12498611111111
 30
0.0
 10
24.1875
 20
14.12498611111111
 30
0.0
 10
24.1875
 20
14.12498611111111
 30
0.0
 10
24.1875
 20
11.01561111111111
 30
0.0
 10
24.1875
 20
11.01561111111111
 30
0.0
 10
24.1875
 20
10.87810528075149
 30
0.0
 10
24.29999444444444
 20
10.76561778359317
 30
0.0
 10
24.4375
 20
10.76561778359317
 30
0.0
 10
24.4375
 20
10.76561778359317
 30
0.0
 10
26.0625
 20
10.76561778359317
 30
0.0
 10
26.0625
 20
10.76561778359317
 30
0.0
 10
26.20000555555556
 20
10.76561778359317
 30
0.0
 10
26.3125
 20
10.87810528075149
 30
0.0
 10
26.3125
 20
11.01561111111111
 30
0.0
  0
SPLINE
  5
88
330
82
100
AcDbEntity
  8
Layer 1
370
     0
100
AcDbSpline
210
0.0
220
0.0
230
1.0
 70
    11
 71
     3
 72
    38
 73
    34
 74
     0
 42
0.0000000001
 43
0.0000000001
 12
1.0
 22
0.0
 32
0.0
 13
1.0
 23
0.0
 33
0.0
 40
0.0
 40
0.0
 40
0.0
 40
0.0
 40
1.0
 40
1.0
 40
1.0
 40
2.0
 40
2.0
 40
2.0
 40
3.0
 40
3.0
 40
3.0
 40
4.0
 40
4.0
 40
4.0
 40
5.0
 40
5.0
 40
5.0
 40
6.0
 40
6.0
 40
6.0
 40
7.0
 40
7.0
 40
7.0
 40
8.0
 40
8.0
 40
8.0
 40
9.0
 40
9.0
 40
9.0
 40
10.0
 40
10.0
 40
10.0
 40
11.0
 40
11.0
 40
11.0
 40
11.0
 10
26.3125
 20
7.25
 30
0.0
 10
26.3125
 20
7.25
 30
0.0
 10
26.3125
 20
10.35939557163298
 30
0.0
 10
26.3125
 20
10.35939557163298
 30
0.0
 10
26.3125
 20
10.49690112371485
 30
0.0
 10
26.20000555555556
 20
10.60939556531745
 30
0.0
 10
26.0625
 20
10.60939556531745
 30
0.0
 10
26.0625
 20
10.60939556531745
 30
0.0
 10
24.4375
 20
10.60939556531745
 30
0.0
 10
24.4375
 20
10.60939556531745
 30
0.0
 10
24.29999444444444
 20
10.60939556531745
 30
0.0
 10
24.1875
 20
10.49690112371485
 30
0.0
 10
24.1875
 20
10.35939557163298
 30
0.0
 10
24.1875
 20
10.35939557163298
 30
0.0
 10
24.1875
 20
3.890652777777783
 30
0.0
 10
24.1875
 20
3.890652777777783
 30
0.0
 10
24.1875
 20
3.753147127409748
 30
0.0
 10
24.29999444444444
 20
3.640625
 30
0.0
 10
24.4375
 20
3.640625
 30
0.0
 10
24.4375
 20
3.640625
 30
0.0
 10
26.0625
 20
3.640625
 30
0.0
 10
26.0625
 20
3.640625
 30
0.0
 10
26.20000555555556
 20
3.640625
 30
0.0
 10
26.3125
 20
3.753147127409748
 30
0.0
 10
26.3125
 20
3.890652777777783
 30
0.0
 10
26.3125
 20
3.890652777777783
 30
0.0
 10
26.3125
 20
5.859402777777783
 30
0.0
 10
26.3125
 20
5.859402777777783
 30
0.0
 10
26.3125
 20
5.859402777777783
 30
0.0
 10
26.3125
 20
7.000027777777783
 30
0.0
 10
26.3125
 20
7.000027777777783
 30
0.0
 10
26.3125
 20
7.000027777777783
 30
0.0
 10
26.3125
 20
7.25
 30
0.0
 10
26.3125
 20
7.25
 30
0.0
  0
ENDBLK
  5
85
330
82
100
AcDbEntity
  8
0
100
AcDbBlockEnd
  0
BLOCK
  5
8B
330
89
100
AcDbEntity
  8
0
100
AcDbBlockBegin
  2
block 3
 70
     0
 10
0.0
 20
0.0
 30
0.0
  3
block 3
  1

  0
POLYLINE
  5
8D
330
89
100
AcDbEntity
  8
Layer 1
 62
   250
420
  2301728
370
   211
100
AcDb2dPolyline
 66
     1
 10
0.0
 20
0.0
 30
0.0
  0
VERTEX
  5
8E
330
8D
100
AcDbEntity
  8
Layer 1
 62
   250
420
  2301728
370
   211
100
AcDbVertex
100
AcDb2dVertex
 10
20.625
 20
15.75
 30
0.0
  0
VERTEX
  5
8F
330
8D
100
AcDbEntity
  8
Layer 1
 62
   250
420
  2301728
370
   211
100
AcDbVertex
100
AcDb2dVertex
 10
20.625
 20
13.75
 30
0.0
  0
SEQEND
  5
90
330
8D
100
AcDbEntity
  8
Layer 1
 62
   250
420
  2301728
370
   211
  0
POLYLINE
  5
91
330
89
100
AcDbEntity
  8
Layer 1
 62
   250
420
  2301728
370
   211
100
AcDb2dPolyline
 66
     1
 10
0.0
 20
0.0
 30
0.0
  0
VERTEX
  5
92
330
91
100
AcDbEntity
  8
Layer 1
 62
   250
420
  2301728
370
   211
100
AcDbVertex
100
AcDb2dVertex
 10
21.625
 20
15.75
 30
0.0
  0
VERTEX
  5
93
330
91
100
AcDbEntity
  8
Layer 1
 62
   250
420
  2301728
370
   211
100
AcDbVertex
100
AcDb2dVertex
 10
21.625
 20
13.75
 30
0.0
  0
SEQEND
  5
94
330
91
100
AcDbEntity
  8
Layer 1
 62
   250
420
  2301728
370
   211
  0
POLYLINE
  5
95
330
89
100
AcDbEntity
  8
Layer 1
 62
   250
420
  2301728
370
   211
100
AcDb2dPolyline
 66
     1
 10
0.0
 20
0.0
 30
0.0
  0
VERTEX
  5
96
330
95
100
AcDbEntity
  8
Layer 1
 62
   250
420
  2301728
370
   211
100
AcDbVertex
100
AcDb2dVertex
 10
20.625
 20
12.25
 30
0.0
  0
VERTEX
  5
97
330
95
100
AcDbEntity
  8
Layer 1
 62
   250
420
  2301728
370
   211
100
AcDbVertex
100
AcDb2dVertex
 10
20.625
 20
10.25
 30
0.0
  0
SEQEND
  5
98
330
95
100
AcDbEntity
  8
Layer 1
 62
   250
420
  2301728
370
   211
  0
POLYLINE
  5
99
330
89
100
AcDbEntity
  8
Layer 1
 62
   250
420
  2301728
370
   211
100
AcDb2dPolyline
 66
     1
 10
0.0
 20
0.0
 30
0.0
  0
VERTEX
  5
9A
330
99
100
AcDbEntity
  8
Layer 1
 62
   250
420
  2301728
370
   211
100
AcDbVertex
100
AcDb2dVertex
 10
21.625
 20
12.25
 30
0.0
  0
VERTEX
  5
9B
330
99
100
AcDbEntity
  8
Layer 1
 62
   250
420
  2301728
370
   211
100
AcDbVertex
100
AcDb2dVertex
 10
21.625
 20
10.25
 30
0.0
  0
SEQEND
  5
9C
330
99
100
AcDbEntity
  8
Layer 1
 62
   250
420
  2301728
370
   211
  0
POLYLINE
  5
9D
330
89
100
AcDbEntity
  8
Layer 1
 62
   250
420
  2301728
370
   211
100
AcDb2dPolyline
 66
     1
 10
0.0
 20
0.0
 30
0.0
  0
VERTEX
  5
9E
330
9D
100
AcDbEntity
  8
Layer 1
 62
   250
420
  2301728
370
   211
100
AcDbVertex
100
AcDb2dVertex
 10
20.625
 20
8.75
 30
0.0
  0
VERTEX
  5
9F
330
9D
100
AcDbEntity
  8
Layer 1
 62
   250
420
  2301728
370
   211
100
AcDbVertex
100
AcDb2dVertex
 10
20.625
 20
6.75
 30
0.0
  0
SEQEND
  5
A0
330
9D
100
AcDbEntity
  8
Layer 1
 62
   250
420
  2301728
370
   211
  0
POLYLINE
  5
A1
330
89
100
AcDbEntity
  8
Layer 1
 62
   250
420
  2301728
370
   211
100
AcDb2dPolyline
 66
     1
 10
0.0
 20
0.0
 30
0.0
  0
VERTEX
  5
A2
330
A1
100
AcDbEntity
  8
Layer 1
 62
   250
420
  2301728
370
   211
100
AcDbVertex
100
AcDb2dVertex
 10
21.625
 20
8.75
 30
0.0
  0
VERTEX
  5
A3
330
A1
100
AcDbEntity
  8
Layer 1
 62
   250
420
  2301728
370
   211
100
AcDbVertex
100
AcDb2dVertex
 10
21.625
 20
6.75
 30
0.0
  0
SEQEND
  5
A4
330
A1
100
AcDbEntity
  8
Layer 1
 62
   250
420
  2301728
370
   211
  0
POLYLINE
  5
A5
330
89
100
AcDbEntity
  8
Layer 1
 62
   250
420
  2301728
370
   211
100
AcDb2dPolyline
 66
     1
 10
0.0
 20
0.0
 30
0.0
  0
VERTEX
  5
A6
330
A5
100
AcDbEntity
  8
Layer 1
 62
   250
420
  2301728
370
   211
100
AcDbVertex
100
AcDb2dVertex
 10
19.625
 20
17.375
 30
0.0
  0
VERTEX
  5
A7
330
A5
100
AcDbEntity
  8
Layer 1
 62
   250
420
  2301728
370
   211
100
AcDbVertex
100
AcDb2dVertex
 10
21.0
 20
17.375
 30
0.0
  0
SEQEND
  5
A8
330
A5
100
AcDbEntity
  8
Layer 1
 62
   250
420
  2301728
370
   211
  0
POLYLINE
  5
A9
330
89
100
AcDbEntity
  8
Layer 1
 62
   250
420
  2301728
370
   211
100
AcDb2dPolyline
 66
     1
 10
0.0
 20
0.0
 30
0.0
  0
VERTEX
  5
AA
330
A9
100
AcDbEntity
  8
Layer 1
 62
   250
420
  2301728
370
   211
100
AcDbVertex
100
AcDb2dVertex
 10
21.25
 20
17.375
 30
0.0
  0
VERTEX
  5
AB
330
A9
100
AcDbEntity
  8
Layer 1
 62
   250
420
  2301728
370
   211
100
AcDbVertex
100
AcDb2dVertex
 10
22.625
 20
17.375
 30
0.0
  0
SEQEND
  5
AC
330
A9
100
AcDbEntity
  8
Layer 1
 62
   250
420
  2301728
370
   211
  0
POLYLINE
  5
AD
330
89
100
AcDbEntity
  8
Layer 1
 62
   250
420
  2301728
370
   211
100
AcDb2dPolyline
 66
     1
 10
0.0
 20
0.0
 30
0.0
  0
VERTEX
  5
AE
330
AD
100
AcDbEntity
  8
Layer 1
 62
   250
420
  2301728
370
   211
100
AcDbVertex
100
AcDb2dVertex
 10
19.625
 20
5.125
 30
0.0
  0
VERTEX
  5
AF
330
AD
100
AcDbEntity
  8
Layer 1
 62
   250
420
  2301728
370
   211
100
AcDbVertex
100
AcDb2dVertex
 10
21.0
 20
5.125
 30
0.0
  0
SEQEND
  5
B0
330
AD
100
AcDbEntity
  8
Layer 1
 62
   250
420
  2301728
370
   211
  0
POLYLINE
  5
B1
330
89
100
AcDbEntity
  8
Layer 1
 62
   250
420
  2301728
370
   211
100
AcDb2dPolyline
 66
     1
 10
0.0
 20
0.0
 30
0.0
  0
VERTEX
  5
B2
330
B1
100
AcDbEntity
  8
Layer 1
 62
   250
420
  2301728
370
   211
100
AcDbVertex
100
AcDb2dVertex
 10
21.25
 20
5.125
 30
0.0
  0
VERTEX
  5
B3
330
B1
100
AcDbEntity
  8
Layer 1
 62
   250
420
  2301728
370
   211
100
AcDbVertex
100
AcDb2dVertex
 10
22.625
 20
5.125
 30
0.0
  0
SEQEND
  5
B4
330
B1
100
AcDbEntity
  8
Layer 1
 62
   250
420
  2301728
370
   211
  0
POLYLINE
  5
B5
330
89
100
AcDbEntity
  8
Layer 1
 62
   250
420
  2301728
370
   211
100
AcDb2dPolyline
 66
     1
 10
0.0
 20
0.0
 30
0.0
  0
VERTEX
  5
B6
330
B5
100
AcDbEntity
  8
Layer 1
 62
   250
420
  2301728
370
   211
100
AcDbVertex
100
AcDb2dVertex
 10
24.125
 20
14.25
 30
0.0
  0
VERTEX
  5
B7
330
B5
100
AcDbEntity
  8
Layer 1
 62
   250
420
  2301728
370
   211
100
AcDbVertex
100
AcDb2dVertex
 10
25.25
 20
14.25
 30
0.0
  0
SEQEND
  5
B8
330
B5
100
AcDbEntity
  8
Layer 1
 62
   250
420
  2301728
370
   211
  0
POLYLINE
  5
B9
330
89
100
AcDbEntity
  8
Layer 1
 62
   250
420
  2301728
370
   211
100
AcDb2dPolyline
 66
     1
 10
0.0
 20
0.0
 30
0.0
  0
VERTEX
  5
BA
330
B9
100
AcDbEntity
  8
Layer 1
 62
   250
420
  2301728
370
   211
100
AcDbVertex
100
AcDb2dVertex
 10
26.375
 20
7.125
 30
0.0
  0
VERTEX
  5
BB
330
B9
100
AcDbEntity
  8
Layer 1
 62
   250
420
  2301728
370
   211
100
AcDbVertex
100
AcDb2dVertex
 10
25.25
 20
7.125
 30
0.0
  0
SEQEND
  5
BC
330
B9
100
AcDbEntity
  8
Layer 1
 62
   250
420
  2301728
370
   211
  0
POLYLINE
  5
BD
330
89
100
AcDbEntity
  8
Layer 1
 62
   250
420
  2301728
370
   211
100
AcDb2dPolyline
 66
     1
 10
0.0
 20
0.0
 30
0.0
  0
VERTEX
  5
BE
330
BD
100
AcDbEntity
  8
Layer 1
 62
   250
420
  2301728
370
   211
100
AcDbVertex
100
AcDb2dVertex
 10
27.625
 20
9.625
 30
0.0
  0
VERTEX
  5
BF
330
BD
100
AcDbEntity
  8
Layer 1
 62
   250
420
  2301728
370
   211
100
AcDbVertex
100
AcDb2dVertex
 10
28.75
 20
9.625
 30
0.0
  0
SEQEND
  5
C0
330
BD
100
AcDbEntity
  8
Layer 1
 62
   250
420
  2301728
370
   211
  0
POLYLINE
  5
C1
330
89
100
AcDbEntity
  8
Layer 1
 62
   250
420
  2301728
370
   211
100
AcDb2dPolyline
 66
     1
 10
0.0
 20
0.0
 30
0.0
  0
VERTEX
  5
C2
330
C1
100
AcDbEntity
  8
Layer 1
 62
   250
420
  2301728
370
   211
100
AcDbVertex
100
AcDb2dVertex
 10
27.625
 20
13.625
 30
0.0
  0
VERTEX
  5
C3
330
C1
100
AcDbEntity
  8
Layer 1
 62
   250
420
  2301728
370
   211
100
AcDbVertex
100
AcDb2dVertex
 10
28.75
 20
13.625
 30
0.0
  0
SEQEND
  5
C4
330
C1
100
AcDbEntity
  8
Layer 1
 62
   250
420
  2301728
370
   211
  0
POLYLINE
  5
C5
330
89
100
AcDbEntity
  8
Layer 1
 62
   250
420
  2301728
370
   211
100
AcDb2dPolyline
 66
     1
 10
0.0
 20
0.0
 30
0.0
  0
VERTEX
  5
C6
330
C5
100
AcDbEntity
  8
Layer 1
 62
   250
420
  2301728
370
   211
100
AcDbVertex
100
AcDb2dVertex
 10
0.5
 20
4.75
 30
0.0
  0
VERTEX
  5
C7
330
C5
100
AcDbEntity
  8
Layer 1
 62
   250
420
  2301728
370
   211
100
AcDbVertex
100
AcDb2dVertex
 10
0.5
 20
3.625
 30
0.0
  0
SEQEND
  5
C8
330
C5
100
AcDbEntity
  8
Layer 1
 62
   250
420
  2301728
370
   211
  0
POLYLINE
  5
C9
330
89
100
AcDbEntity
  8
Layer 1
 62
   250
420
  2301728
370
   211
100
AcDb2dPolyline
 66
     1
 10
0.0
 20
0.0
 30
0.0
  0
VERTEX
  5
CA
330
C9
100
AcDbEntity
  8
Layer 1
 62
   250
420
  2301728
370
   211
100
AcDbVertex
100
AcDb2dVertex
 10
7.75
 20
4.75
 30
0.0
  0
VERTEX
  5
CB
330
C9
100
AcDbEntity
  8
Layer 1
 62
   250
420
  2301728
370
   211
100
AcDbVertex
100
AcDb2dVertex
 10
7.75
 20
3.625
 30
0.0
  0
SEQEND
  5
CC
330
C9
100
AcDbEntity
  8
Layer 1
 62
   250
420
  2301728
370
   211
  0
POLYLINE
  5
CD
330
89
100
AcDbEntity
  8
Layer 1
 62
   250
420
  2301728
370
   211
100
AcDb2dPolyline
 66
     1
 10
0.0
 20
0.0
 30
0.0
  0
VERTEX
  5
CE
330
CD
100
AcDbEntity
  8
Layer 1
 62
   250
420
  2301728
370
   211
100
AcDbVertex
100
AcDb2dVertex
 10
9.625
 20
5.0
 30
0.0
  0
VERTEX
  5
CF
330
CD
100
AcDbEntity
  8
Layer 1
 62
   250
420
  2301728
370
   211
100
AcDbVertex
100
AcDb2dVertex
 10
9.625
 20
3.875
 30
0.0
  0
SEQEND
  5
D0
330
CD
100
AcDbEntity
  8
Layer 1
 62
   250
420
  2301728
370
   211
  0
POLYLINE
  5
D1
330
89
100
AcDbEntity
  8
Layer 1
 62
   250
420
  2301728
370
   211
100
AcDb2dPolyline
 66
     1
 10
0.0
 20
0.0
 30
0.0
  0
VERTEX
  5
D2
330
D1
100
AcDbEntity
  8
Layer 1
 62
   250
420
  2301728
370
   211
100
AcDbVertex
100
AcDb2dVertex
 10
16.875
 20
5.0
 30
0.0
  0
VERTEX
  5
D3
330
D1
100
AcDbEntity
  8
Layer 1
 62
   250
420
  2301728
370
   211
100
AcDbVertex
100
AcDb2dVertex
 10
16.875
 20
3.875
 30
0.0
  0
SEQEND
  5
D4
330
D1
100
AcDbEntity
  8
Layer 1
 62
   250
420
  2301728
370
   211
  0
ENDBLK
  5
8C
330
89
100
AcDbEntity
  8
0
100
AcDbBlockEnd
  0
ENDSEC
  0
SECTION
  2
ENTITIES
  0
SPLINE
  5
41
330
1F
100
AcDbEntity
  8
Layer 1
370
     0
100
AcDbSpline
210
0.0
220
0.0
230
1.0
 70
    11
 71
     3
 72
   560
 73
   556
 74
     0
 42
0.0000000001
 43
0.0000000001
 12
1.0
 22
0.0
 32
0.0
 13
1.0
 23
0.0
 33
0.0
 40
0.0
 40
0.0
 40
0.0
 40
0.0
 40
1.0
 40
1.0
 40
1.0
 40
2.0
 40
2.0
 40
2.0
 40
3.0
 40
3.0
 40
3.0
 40
4.0
 40
4.0
 40
4.0
 40
5.0
 40
5.0
 40
5.0
 40
6.0
 40
6.0
 40
6.0
 40
7.0
 40
7.0
 40
7.0
 40
8.0
 40
8.0
 40
8.0
 40
9.0
 40
9.0
 40
9.0
 40
10.0
 40
10.0
 40
10.0
 40
11.0
 40
11.0
 40
11.0
 40
12.0
 40
12.0
 40
12.0
 40
13.0
 40
13.0
 40
13.0
 40
14.0
 40
14.0
 40
14.0
 40
15.0
 40
15.0
 40
15.0
 40
16.0
 40
16.0
 40
16.0
 40
17.0
 40
17.0
 40
17.0
 40
18.0
 40
18.0
 40
18.0
 40
19.0
 40
19.0
 40
19.0
 40
20.0
 40
20.0
 40
20.0
 40
21.0
 40
21.0
 40
21.0
 40
22.0
 40
22.0
 40
22.0
 40
23.0
 40
23.0
 40
23.0
 40
24.0
 40
24.0
 40
24.0
 40
25.0
 40
25.0
 40
25.0
 40
26.0
 40
26.0
 40
26.0
 40
27.0
 40
27.0
 40
27.0
 40
28.0
 40
28.0
 40
28.0
 40
29.0
 40
29.0
 40
29.0
 40
30.0
 40
30.0
 40
30.0
 40
31.0
 40
31.0
 40
31.0
 40
32.0
 40
32.0
 40
32.0
 40
33.0
 40
33.0
 40
33.0
 40
34.0
 40
34.0
 40
34.0
 40
35.0
 40
35.0
 40
35.0
 40
36.0
 40
36.0
 40
36.0
 40
37.0
 40
37.0
 40
37.0
 40
38.0
 40
38.0
 40
38.0
 40
39.0
 40
39.0
 40
39.0
 40
40.0
 40
40.0
 40
40.0
 40
41.0
 40
41.0
 40
41.0
 40
42.0
 40
42.0
 40
42.0
 40
43.0
 40
43.0
 40
43.0
 40
44.0
 40
44.0
 40
44.0
 40
45.0
 40
45.0
 40
45.0
 40
46.0
 40
46.0
 40
46.0
 40
47.0
 40
47.0
 40
47.0
 40
48.0
 40
48.0
 40
48.0
 40
49.0
 40
49.0
 40
49.0
 40
50.0
 40
50.0
 40
50.0
 40
51.0
 40
51.0
 40
51.0
 40
52.0
 40
52.0
 40
52.0
 40
53.0
 40
53.0
 40
53.0
 40
54.0
 40
54.0
 40
54.0
 40
55.0
 40
55.0
 40
55.0
 40
56.0
 40
56.0
 40
56.0
 40
57.0
 40
57.0
 40
57.0
 40
58.0
 40
58.0
 40
58.0
 40
59.0
 40
59.0
 40
59.0
 40
60.0
 40
60.0
 40
60.0
 40
61.0
 40
61.0
 40
61.0
 40
62.0
 40
62.0
 40
62.0
 40
63.0
 40
63.0
 40
63.0
 40
64.0
 40
64.0
 40
64.0
 40
65.0
 40
65.0
 40
65.0
 40
66.0
 40
66.0
 40
66.0
 40
67.0
 40
67.0
 40
67.0
 40
68.0
 40
68.0
 40
68.0
 40
69.0
 40
69.0
 40
69.0
 40
70.0
 40
70.0
 40
70.0
 40
71.0
 40
71.0
 40
71.0
 40
72.0
 40
72.0
 40
72.0
 40
73.0
 40
73.0
 40
73.0
 40
74.0
 40
74.0
 40
74.0
 40
75.0
 40
75.0
 40
75.0
 40
76.0
 40
76.0
 40
76.0
 40
77.0
 40
77.0
 40
77.0
 40
78.0
 40
78.0
 40
78.0
 40
79.0
 40
79.0
 40
79.0
 40
80.0
 40
80.0
 40
80.0
 40
81.0
 40
81.0
 40
81.0
 40
82.0
 40
82.0
 40
82.0
 40
83.0
 40
83.0
 40
83.0
 40
84.0
 40
84.0
 40
84.0
 40
85.0
 40
85.0
 40
85.0
 40
86.0
 40
86.0
 40
86.0
 40
87.0
 40
87.0
 40
87.0
 40
88.0
 40
88.0
 40
88.0
 40
89.0
 40
89.0
 40
89.0
 40
90.0
 40
90.0
 40
90.0
 40
91.0
 40
91.0
 40
91.0
 40
92.0
 40
92.0
 40
92.0
 40
93.0
 40
93.0
 40
93.0
 40
94.0
 40
94.0
 40
94.0
 40
95.0
 40
95.0
 40
95.0
 40
96.0
 40
96.0
 40
96.0
 40
97.0
 40
97.0
 40
97.0
 40
98.0
 40
98.0
 40
98.0
 40
99.0
 40
99.0
 40
99.0
 40
100.0
 40
100.0
 40
100.0
 40
101.0
 40
101.0
 40
101.0
 40
102.0
 40
102.0
 40
102.0
 40
103.0
 40
103.0
 40
103.0
 40
104.0
 40
104.0
 40
104.0
 40
105.0
 40
105.0
 40
105.0
 40
106.0
 40
106.0
 40
106.0
 40
107.0
 40
107.0
 40
107.0
 40
108.0
 40
108.0
 40
108.0
 40
109.0
 40
109.0
 40
109.0
 40
110.0
 40
110.0
 40
110.0
 40
111.0
 40
111.0
 40
111.0
 40
112.0
 40
112.0
 40
112.0
 40
113.0
 40
113.0
 40
113.0
 40
114.0
 40
114.0
 40
114.0
 40
115.0
 40
115.0
 40
115.0
 40
116.0
 40
116.0
 40
116.0
 40
117.0
 40
117.0
 40
117.0
 40
118.0
 40
118.0
 40
118.0
 40
119.0
 40
119.0
 40
119.0
 40
120.0
 40
120.0
 40
120.0
 40
121.0
 40
121.0
 40
121.0
 40
122.0
 40
122.0
 40
122.0
 40
123.0
 40
123.0
 40
123.0
 40
124.0
 40
124.0
 40
124.0
 40
125.0
 40
125.0
 40
125.0
 40
126.0
 40
126.0
 40
126.0
 40
127.0
 40
127.0
 40
127.0
 40
128.0
 40
128.0
 40
128.0
 40
129.0
 40
129.0
 40
129.0
 40
130.0
 40
130.0
 40
130.0
 40
131.0
 40
131.0
 40
131.0
 40
132.0
 40
132.0
 40
132.0
 40
133.0
 40
133.0
 40
133.0
 40
134.0
 40
134.0
 40
134.0
 40
135.0
 40
135.0
 40
135.0
 40
136.0
 40
136.0
 40
136.0
 40
137.0
 40
137.0
 40
137.0
 40
138.0
 40
138.0
 40
138.0
 40
139.0
 40
139.0
 40
139.0
 40
140.0
 40
140.0
 40
140.0
 40
141.0
 40
141.0
 40
141.0
 40
142.0
 40
142.0
 40
142.0
 40
143.0
 40
143.0
 40
143.0
 40
144.0
 40
144.0
 40
144.0
 40
145.0
 40
145.0
 40
145.0
 40
146.0
 40
146.0
 40
146.0
 40
147.0
 40
147.0
 40
147.0
 40
148.0
 40
148.0
 40
148.0
 40
149.0
 40
149.0
 40
149.0
 40
150.0
 40
150.0
 40
150.0
 40
151.0
 40
151.0
 40
151.0
 40
152.0
 40
152.0
 40
152.0
 40
153.0
 40
153.0
 40
153.0
 40
154.0
 40
154.0
 40
154.0
 40
155.0
 40
155.0
 40
155.0
 40
156.0
 40
156.0
 40
156.0
 40
157.0
 40
157.0
 40
157.0
 40
158.0
 40
158.0
 40
158.0
 40
159.0
 40
159.0
 40
159.0
 40
160.0
 40
160.0
 40
160.0
 40
161.0
 40
161.0
 40
161.0
 40
162.0
 40
162.0
 40
162.0
 40
163.0
 40
163.0
 40
163.0
 40
164.0
 40
164.0
 40
164.0
 40
165.0
 40
165.0
 40
165.0
 40
166.0
 40
166.0
 40
166.0
 40
167.0
 40
167.0
 40
167.0
 40
168.0
 40
168.0
 40
168.0
 40
169.0
 40
169.0
 40
169.0
 40
170.0
 40
170.0
 40
170.0
 40
171.0
 40
171.0
 40
171.0
 40
172.0
 40
172.0
 40
172.0
 40
173.0
 40
173.0
 40
173.0
 40
174.0
 40
174.0
 40
174.0
 40
175.0
 40
175.0
 40
175.0
 40
176.0
 40
176.0
 40
176.0
 40
177.0
 40
177.0
 40
177.0
 40
178.0
 40
178.0
 40
178.0
 40
179.0
 40
179.0
 40
179.0
 40
180.0
 40
180.0
 40
180.0
 40
181.0
 40
181.0
 40
181.0
 40
182.0
 40
182.0
 40
182.0
 40
183.0
 40
183.0
 40
183.0
 40
184.0
 40
184.0
 40
184.0
 40
185.0
 40
185.0
 40
185.0
 40
185.0
 10
9.125006713927378
 20
4.875
 30
0.0
 10
9.125006713927378
 20
4.875
 30
0.0
 10
9.125006713927378
 20
5.0
 30
0.0
 10
9.125006713927378
 20
5.0
 30
0.0
 10
9.125006713927378
 20
5.043212372597736
 30
0.0
 10
9.119452547401023
 20
5.084987371542411
 30
0.0
 10
9.109299769879726
 20
5.125
 30
0.0
 10
9.05374421572762
 20
5.340548476197506
 30
0.0
 10
8.857787276233466
 20
5.5
 30
0.0
 10
8.625
 20
5.5
 30
0.0
 10
8.392083333333327
 20
5.5
 30
0.0
 10
8.196105348504513
 20
5.340548476197506
 30
0.0
 10
8.14054979435241
 20
5.125
 30
0.0
 10
8.13041785016392
 20
5.084987371542411
 30
0.0
 10
8.125
 20
5.043212372597736
 30
0.0
 10
8.125
 20
5.0
 30
0.0
 10
8.125
 20
4.954427652618405
 30
0.0
 10
8.112501183949865
 20
4.911810987028326
 30
0.0
 10
8.091247017820125
 20
4.875
 30
0.0
 10
8.04791229669263
 20
4.800429045397625
 30
0.0
 10
7.967352576505517
 20
4.75
 30
0.0
 10
7.875
 20
4.75
 30
0.0
 10
7.875
 20
4.75
 30
0.0
 10
7.624992862932029
 20
4.75
 30
0.0
 10
7.624992862932029
 20
4.75
 30
0.0
 10
7.624992862932029
 20
4.75
 30
0.0
 10
7.375
 20
4.75
 30
0.0
 10
7.375
 20
4.75
 30
0.0
 10
7.282510927139406
 20
4.75
 30
0.0
 10
7.201951206952294
 20
4.800429045397625
 30
0.0
 10
7.158602596936261
 20
4.875
 30
0.0
 10
7.137362319695058
 20
4.911810987028326
 30
0.0
 10
7.125006764451629
 20
4.954427652618405
 30
0.0
 10
7.125006764451629
 20
5.0
 30
0.0
 10
7.125006764451629
 20
5.0
 30
0.0
 10
7.125006764451629
 20
5.125
 30
0.0
 10
7.125006764451629
 20
5.125
 30
0.0
 10
7.125006764451629
 20
5.125
 30
0.0
 10
1.124993055555554
 20
5.125
 30
0.0
 10
1.124993055555554
 20
5.125
 30
0.0
 10
1.124993055555554
 20
5.125
 30
0.0
 10
1.124993055555554
 20
5.0
 30
0.0
 10
1.124993055555554
 20
5.0
 30
0.0
 10
1.124993055555554
 20
4.954427652618405
 30
0.0
 10
1.112501388888884
 20
4.911810987028326
 30
0.0
 10
1.091261111111117
 20
4.875
 30
0.0
 10
1.047912500000002
 20
4.800429045397625
 30
0.0
 10
0.9673527777777811
 20
4.75
 30
0.0
 10
0.875
 20
4.75
 30
0.0
 10
0.875
 20
4.75
 30
0.0
 10
0.625
 20
4.75
 30
0.0
 10
0.625
 20
4.75
 30
0.0
 10
0.625
 20
4.75
 30
0.0
 10
0.3750069444444458
 20
4.75
 30
0.0
 10
0.3750069444444458
 20
4.75
 30
0.0
 10
0.2368027777777747
 20
4.75
 30
0.0
 10
0.125
 20
4.638048493944148
 30
0.0
 10
0.125
 20
4.5
 30
0.0
 10
0.125
 20
4.5
 30
0.0
 10
0.125
 20
2.125
 30
0.0
 10
0.125
 20
2.125
 30
0.0
 10
0.125
 20
1.986924949806053
 30
0.0
 10
0.2368027777777747
 20
1.875
 30
0.0
 10
0.3750069444444458
 20
1.875
 30
0.0
 10
0.3750069444444458
 20
1.875
 30
0.0
 10
0.625
 20
1.875
 30
0.0
 10
0.625
 20
1.875
 30
0.0
 10
0.625
 20
1.875
 30
0.0
 10
0.875
 20
1.875
 30
0.0
 10
0.875
 20
1.875
 30
0.0
 10
0.8826430555555538
 20
1.875
 30
0.0
 10
0.8901499999999992
 20
1.87540689706768
 30
0.0
 10
0.8976444444444445
 20
1.876112452605412
 30
0.0
 10
0.8995833333333394
 20
1.876383285931903
 30
0.0
 10
0.9015236111111132
 20
1.876519397039576
 30
0.0
 10
0.9034624999999954
 20
1.876790230366067
 30
0.0
 10
0.9104208333333316
 20
1.877495785903799
 30
0.0
 10
0.9173652777777761
 20
1.878472222222222
 30
0.0
 10
0.9241666666666661
 20
1.87985550806641
 30
0.0
 10
0.9247236111111129
 20
1.879991619174082
 30
0.0
 10
0.925272222222222
 20
1.880154119169977
 30
0.0
 10
0.9256930555555603
 20
1.880154119169977
 30
0.0
 10
0.9326305555555588
 20
1.881673563576037
 30
0.0
 10
0.9394388888888948
 20
1.883463841308589
 30
0.0
 10
0.9461125000000012
 20
1.885416666666667
 30
0.0
 10
0.9483375000000048
 20
1.886094396797691
 30
0.0
 10
0.9504263888888873
 20
1.886799952335423
 30
0.0
 10
0.9526499999999992
 20
1.887505507873154
 30
0.0
 10
0.9580555555555494
 20
1.889295785605706
 30
0.0
 10
0.9634736111111124
 20
1.891248563334152
 30
0.0
 10
0.9686208333333373
 20
1.893337452170272
 30
0.0
 10
0.9709805555555577
 20
1.894287452146273
 30
0.0
 10
0.9732055555555613
 20
1.895155507679899
 30
0.0
 10
0.9754097222222273
 20
1.896104118767046
 30
0.0
 10
0.980427777777777
 20
1.898329118710838
 30
0.0
 10
0.9854125000000016
 20
1.900824951981122
 30
0.0
 10
0.9902819444444427
 20
1.903320785251405
 30
0.0
 10
0.992919444444447
 20
1.904704118549792
 30
0.0
 10
0.9957000000000056
 20
1.90625
 30
0.0
 10
0.9983249999999972
 20
1.907769396250135
 30
0.0
 10
1.001804166666665
 20
1.909722222222222
 30
0.0
 10
1.005147222222225
 20
1.9118110628147
 30
0.0
 10
1.008477777777772
 20
1.913872173873743
 30
0.0
 10
1.013061111111117
 20
1.916802729355267
 30
0.0
 10
1.017354166666665
 20
1.919868007055609
 30
0.0
 10
1.021654166666672
 20
1.922905506978875
 30
0.0
 10
1.02429861111111
 20
1.924858284707322
 30
0.0
 10
1.026956944444439
 20
1.926812451324622
 30
0.0
 10
1.029581944444443
 20
1.928737451275992
 30
0.0
 10
1.032776388888894
 20
1.931233284546276
 30
0.0
 10
1.035834722222224
 20
1.933891617812454
 30
0.0
 10
1.038879166666662
 20
1.93652356219041
 30
0.0
 10
1.040554166666665
 20
1.938069444444434
 30
0.0
 10
1.042222222222222
 20
1.939588839890752
 30
0.0
 10
1.043897222222224
 20
1.941108284296812
 30
0.0
 10
1.050001388888884
 20
1.946669395267438
 30
0.0
 10
1.055704166666664
 20
1.952636061783374
 30
0.0
 10
1.061258333333335
 20
1.958740228295836
 30
0.0
 10
1.061944444444445
 20
1.959580506052387
 30
0.0
 10
1.062777777777784
 20
1.960422172697791
 30
0.0
 10
1.063483333333339
 20
1.961236111111121
 30
0.0
 10
1.06665694444444
 20
1.964844394808299
 30
0.0
 10
1.069587499999999
 20
1.9684791169387
 30
0.0
 10
1.072495833333328
 20
1.972358283507371
 30
0.0
 10
1.073330555555559
 20
1.973198561263921
 30
0.0
 10
1.074036111111114
 20
1.974148561239922
 30
0.0
 10
1.074720833333332
 20
1.97512500000001
 30
0.0
 10
1.080559722222221
 20
1.982909672129709
 30
0.0
 10
1.085977777777783
 20
1.990966616370618
 30
0.0
 10
1.090827777777779
 20
1.999430555555566
 30
0.0
 10
1.090976388888887
 20
1.999729116149259
 30
0.0
 10
1.091112499999996
 20
1.999863838368078
 30
0.0
 10
1.091261111111117
 20
2.000136060583423
 30
0.0
 10
1.09375
 20
2.004286060478585
 30
0.0
 10
1.095975000000003
 20
2.008598560369642
 30
0.0
 10
1.098198611111115
 20
2.012912449149553
 30
0.0
 10
1.098890277777779
 20
2.01429578244794
 30
0.0
 10
1.09944027777778
 20
2.015570782415731
 30
0.0
 10
1.100144444444443
 20
2.016927726825896
 30
0.0
 10
1.103338888888894
 20
2.023736111111121
 30
0.0
 10
1.106248611111116
 20
2.030572170925653
 30
0.0
 10
1.108906944444445
 20
2.03762500000001
 30
0.0
 10
1.109856944444447
 20
2.040283281791441
 30
0.0
 10
1.110981944444448
 20
2.042913837280543
 30
0.0
 10
1.111795833333329
 20
2.045708333333323
 30
0.0
 10
1.112922222222222
 20
2.049018003793006
 30
0.0
 10
1.114020833333332
 20
2.052490225927512
 30
0.0
 10
1.115011111111117
 20
2.055826336954346
 30
0.0
 10
1.116380555555553
 20
2.060411059060749
 30
0.0
 10
1.1175
 20
2.064859670059478
 30
0.0
 10
1.118605555555556
 20
2.069580503273553
 30
0.0
 10
1.119175000000003
 20
2.072211058762655
 30
0.0
 10
1.119723611111112
 20
2.074843003140611
 30
0.0
 10
1.120280555555559
 20
2.077636058625608
 30
0.0
 10
1.121534722222224
 20
2.083740225138071
 30
0.0
 10
1.122504166666671
 20
2.090006891646428
 30
0.0
 10
1.123188888888889
 20
2.096245780377709
 30
0.0
 10
1.123338888888889
 20
2.098334669213828
 30
0.0
 10
1.123602777777781
 20
2.100423558049948
 30
0.0
 10
1.123758333333335
 20
2.10248466910899
 30
0.0
 10
1.124444444444445
 20
2.109998557808063
 30
0.0
 10
1.124993055555554
 20
2.117486111111121
 30
0.0
 10
1.124993055555554
 20
2.125
 30
0.0
 10
1.124993055555554
 20
2.125
 30
0.0
 10
1.124993055555554
 20
2.25
 30
0.0
 10
1.124993055555554
 20
2.25
 30
0.0
 10
1.124993055555554
 20
2.25
 30
0.0
 10
1.6093138482342
 20
2.25
 30
0.0
 10
1.6093138482342
 20
2.25
 30
0.0
 10
1.6093138482342
 20
2.25
 30
0.0
 10
7.125006764451629
 20
2.25
 30
0.0
 10
7.125006764451629
 20
2.25
 30
0.0
 10
7.125006764451629
 20
2.25
 30
0.0
 10
7.125006764451629
 20
2.125
 30
0.0
 10
7.125006764451629
 20
2.125
 30
0.0
 10
7.125006764451629
 20
2.117486111111121
 30
0.0
 10
7.125420653330062
 20
2.109998557808063
 30
0.0
 10
7.126105375534987
 20
2.102620780216663
 30
0.0
 10
7.126260931086613
 20
2.100423558049948
 30
0.0
 10
7.12652620885769
 20
2.098334669213828
 30
0.0
 10
7.126674819965046
 20
2.096245780377709
 30
0.0
 10
7.12735954216997
 20
2.090006891646428
 30
0.0
 10
7.128328986589925
 20
2.083876336245743
 30
0.0
 10
7.129584542113762
 20
2.077772169733281
 30
0.0
 10
7.130140097655284
 20
2.074843003140611
 30
0.0
 10
7.13069009764139
 20
2.072211058762655
 30
0.0
 10
7.131394264290267
 20
2.069308281058208
 30
0.0
 10
7.132365097599076
 20
2.064859670059478
 30
0.0
 10
7.133619264234059
 20
2.060411059060749
 30
0.0
 10
7.13485398642509
 20
2.055962448062019
 30
0.0
 10
7.135844264177851
 20
2.052490225927512
 30
0.0
 10
7.136942875261209
 20
2.049018003793006
 30
0.0
 10
7.138067875232789
 20
2.045573559435575
 30
0.0
 10
7.138881764101117
 20
2.042913837280543
 30
0.0
 10
7.139872041853878
 20
2.040419392899114
 30
0.0
 10
7.140822041829879
 20
2.037923559628831
 30
0.0
 10
7.14346648620752
 20
2.030706893144472
 30
0.0
 10
7.146524819463593
 20
2.023599948879564
 30
0.0
 10
7.149855374935012
 20
2.016655504610551
 30
0.0
 10
7.150424819365071
 20
2.015434671308058
 30
0.0
 10
7.150973430462322
 20
2.014159671340268
 30
0.0
 10
7.151665097111517
 20
2.013048560257226
 30
0.0
 10
7.153883152611039
 20
2.008598560369642
 30
0.0
 10
7.156106763665977
 20
2.004286060478585
 30
0.0
 10
7.158602596936261
 20
2.0
 30
0.0
 10
7.158602596936261
 20
2.0
 30
0.0
 10
7.158752596932471
 20
1.999863838368078
 30
0.0
 10
7.158752596932471
 20
1.999863838368078
 30
0.0
 10
7.163749999999999
 20
1.99123744969711
 30
0.0
 10
7.16930398555481
 20
1.982909672129709
 30
0.0
 10
7.175278985403868
 20
1.97512500000001
 30
0.0
 10
7.175977596497331
 20
1.974148561239922
 30
0.0
 10
7.176533152038852
 20
1.973198561263921
 30
0.0
 10
7.177231763132315
 20
1.972358283507371
 30
0.0
 10
7.180277777777771
 20
1.9684791169387
 30
0.0
 10
7.183206762981373
 20
1.964844394808299
 30
0.0
 10
7.186380374012312
 20
1.961236111111121
 30
0.0
 10
7.187085929550044
 20
1.960422172697791
 30
0.0
 10
7.187784540643507
 20
1.959580506052387
 30
0.0
 10
7.188469262848431
 20
1.958876339403509
 30
0.0
 10
7.194023429374788
 20
1.952636061783374
 30
0.0
 10
7.199862318116175
 20
1.946804117486257
 30
0.0
 10
7.205966484628637
 20
1.941108284296812
 30
0.0
 10
7.207641484586323
 20
1.939588839890752
 30
0.0
 10
7.209309540099739
 20
1.938069444444434
 30
0.0
 10
7.210984540057425
 20
1.93652356219041
 30
0.0
 10
7.214030373313815
 20
1.933891617812454
 30
0.0
 10
7.217088706569888
 20
1.931233284546276
 30
0.0
 10
7.220283150933634
 20
1.928737451275992
 30
0.0
 10
7.222906761978467
 20
1.926812451324622
 30
0.0
 10
7.225565095244646
 20
1.924858284707322
 30
0.0
 10
7.228210928511139
 20
1.922905506978875
 30
0.0
 10
7.232509539513658
 20
1.919868007055609
 30
0.0
 10
7.236802594960762
 20
1.916802729355267
 30
0.0
 10
7.241387317067165
 20
1.913872173873743
 30
0.0
 10
7.24471648364973
 20
1.9118110628147
 30
0.0
 10
7.248060928009686
 20
1.909722222222222
 30
0.0
 10
7.251538705699608
 20
1.907769396250135
 30
0.0
 10
7.254163705633295
 20
1.90625
 30
0.0
 10
7.256944444444444
 20
1.904704118549792
 30
0.0
 10
7.259581761051979
 20
1.903320785251405
 30
0.0
 10
7.264451205373411
 20
1.900824951981122
 30
0.0
 10
7.269435927469708
 20
1.898329118710838
 30
0.0
 10
7.274453982898497
 20
1.896104118767046
 30
0.0
 10
7.276658149509482
 20
1.895155507679899
 30
0.0
 10
7.278883149453273
 20
1.894287452146273
 30
0.0
 10
7.281242871615884
 20
1.893337452170272
 30
0.0
 10
7.28652620481575
 20
1.891248563334152
 30
0.0
 10
7.291809538015614
 20
1.889295785605706
 30
0.0
 10
7.297213704545761
 20
1.887505507873154
 30
0.0
 10
7.299438704489552
 20
1.886799952335423
 30
0.0
 10
7.301527777777778
 20
1.886094396797691
 30
0.0
 10
7.303751204380609
 20
1.885416666666667
 30
0.0
 10
7.310424815323131
 20
1.883463841308589
 30
0.0
 10
7.317233148484471
 20
1.881673563576037
 30
0.0
 10
7.324170648309215
 20
1.880154119169977
 30
0.0
 10
7.324591481631917
 20
1.880154119169977
 30
0.0
 10
7.325141481618023
 20
1.879991619174082
 30
0.0
 10
7.325697037159544
 20
1.87985550806641
 30
0.0
 10
7.332498425876615
 20
1.878472222222222
 30
0.0
 10
7.339442870145628
 20
1.877495785903799
 30
0.0
 10
7.34640120330318
 20
1.876790230366067
 30
0.0
 10
7.348341481031942
 20
1.876519397039576
 30
0.0
 10
7.35028036987185
 20
1.876383285931903
 30
0.0
 10
7.352220647600612
 20
1.876112452605412
 30
0.0
 10
7.359713702966878
 20
1.87540689706768
 30
0.0
 10
7.36722064722168
 20
1.875
 30
0.0
 10
7.375
 20
1.875
 30
0.0
 10
7.375
 20
1.875
 30
0.0
 10
7.624992862932029
 20
1.875
 30
0.0
 10
7.624992862932029
 20
1.875
 30
0.0
 10
7.624992862932029
 20
1.875
 30
0.0
 10
7.875
 20
1.875
 30
0.0
 10
7.875
 20
1.875
 30
0.0
 10
7.882628967534704
 20
1.875
 30
0.0
 10
7.890156745122314
 20
1.87540689706768
 30
0.0
 10
7.897630356044626
 20
1.876112452605412
 30
0.0
 10
7.899590078217342
 20
1.876383285931903
 30
0.0
 10
7.901530355946104
 20
1.876519397039576
 30
0.0
 10
7.903469244786012
 20
1.876790230366067
 30
0.0
 10
7.910406744610756
 20
1.877495785903799
 30
0.0
 10
7.917365077768308
 20
1.878472222222222
 30
0.0
 10
7.924173410929647
 20
1.87985550806641
 30
0.0
 10
7.924723410915753
 20
1.879991619174082
 30
0.0
 10
7.925272022013005
 20
1.880154119169977
 30
0.0
 10
7.925692855335708
 20
1.880154119169977
 30
0.0
 10
7.932637299604721
 20
1.881673563576037
 30
0.0
 10
7.939438688321792
 20
1.883463841308589
 30
0.0
 10
7.946112299264314
 20
1.885416666666667
 30
0.0
 10
7.948337299208106
 20
1.886094396797691
 30
0.0
 10
7.950426188044225
 20
1.886799952335423
 30
0.0
 10
7.952649799099163
 20
1.887505507873154
 30
0.0
 10
7.958055555555549
 20
1.889295785605706
 30
0.0
 10
7.963338687718028
 20
1.891248563334152
 30
0.0
 10
7.968606743140501
 20
1.893337452170272
 30
0.0
 10
7.970967854191965
 20
1.894287452146273
 30
0.0
 10
7.973191465246903
 20
1.895155507679899
 30
0.0
 10
7.975416666666661
 20
1.896104118767046
 30
0.0
 10
7.980434520619483
 20
1.898329118710838
 30
0.0
 10
7.985419242715781
 20
1.900824951981122
 30
0.0
 10
7.990281742592944
 20
1.903320785251405
 30
0.0
 10
7.992926186970585
 20
1.904704118549792
 30
0.0
 10
7.995699798011628
 20
1.90625
 30
0.0
 10
7.998324797945315
 20
1.907769396250135
 30
0.0
 10
8.00180396452409
 20
1.909722222222222
 30
0.0
 10
8.005133131106655
 20
1.9118110628147
 30
0.0
 10
8.008477575466612
 20
1.913872173873743
 30
0.0
 10
8.01306090868416
 20
1.916802729355267
 30
0.0
 10
8.01736111111111
 20
1.919868007055609
 30
0.0
 10
8.021660908466906
 20
1.922905506978875
 30
0.0
 10
8.024298408400277
 20
1.924858284707322
 30
0.0
 10
8.026942852777918
 20
1.926812451324622
 30
0.0
 10
8.029588686044411
 20
1.928737451275992
 30
0.0
 10
8.032783130408157
 20
1.931233284546276
 30
0.0
 10
8.03584146366423
 20
1.933891617812454
 30
0.0
 10
8.038885908031766
 20
1.93652356219041
 30
0.0
 10
8.040553963545182
 20
1.938069444444434
 30
0.0
 10
8.042228963502868
 20
1.939588839890752
 30
0.0
 10
8.043884519016602
 20
1.941108284296812
 30
0.0
 10
8.050008129973017
 20
1.946804117486257
 30
0.0
 10
8.055840074270135
 20
1.952636061783374
 30
0.0
 10
8.061394240796492
 20
1.958876339403509
 30
0.0
 10
8.062078963001415
 20
1.959580506052387
 30
0.0
 10
8.062784518539148
 20
1.960422172697791
 30
0.0
 10
8.063469240744073
 20
1.961236111111121
 30
0.0
 10
8.066663685107818
 20
1.964844394808299
 30
0.0
 10
8.069587296145073
 20
1.9684791169387
 30
0.0
 10
8.072631740512609
 20
1.972358283507371
 30
0.0
 10
8.07333729605034
 20
1.973198561263921
 30
0.0
 10
8.073885907147591
 20
1.974148561239922
 30
0.0
 10
8.074591462685323
 20
1.97512500000001
 30
0.0
 10
8.080559518090114
 20
1.982909672129709
 30
0.0
 10
8.08611368461647
 20
1.99123744969711
 30
0.0
 10
8.091098406712767
 20
1.999863838368078
 30
0.0
 10
8.091098406712767
 20
1.999863838368078
 30
0.0
 10
8.091247017820125
 20
2.0
 30
0.0
 10
8.091247017820125
 20
2.0
 30
0.0
 10
8.093620628871273
 20
2.004286060478585
 30
0.0
 10
8.095980351033884
 20
2.008598560369642
 30
0.0
 10
8.098205350977675
 20
2.013048560257226
 30
0.0
 10
8.0988900731826
 20
2.014159671340268
 30
0.0
 10
8.099440073168706
 20
2.015434671308058
 30
0.0
 10
8.100009517598766
 20
2.016655504610551
 30
0.0
 10
8.10333868418133
 20
2.023599948879564
 30
0.0
 10
8.10638451743772
 20
2.030706893144472
 30
0.0
 10
8.109042850703897
 20
2.037923559628831
 30
0.0
 10
8.109991461791044
 20
2.040419392899114
 30
0.0
 10
8.110981739543806
 20
2.042913837280543
 30
0.0
 10
8.111802572856403
 20
2.045573559435575
 30
0.0
 10
8.112922017272568
 20
2.049018003793006
 30
0.0
 10
8.114027777777778
 20
2.052490225927512
 30
0.0
 10
8.11499701722015
 20
2.055962448062019
 30
0.0
 10
8.116251183855132
 20
2.060411059060749
 30
0.0
 10
8.117505350490116
 20
2.064859670059478
 30
0.0
 10
8.118476183798924
 20
2.069308281058208
 30
0.0
 10
8.119160906003849
 20
2.072211058762655
 30
0.0
 10
8.119730350433908
 20
2.074843003140611
 30
0.0
 10
8.120280350420014
 20
2.077772169733281
 30
0.0
 10
8.121534517054998
 20
2.083876336245743
 30
0.0
 10
8.122503961474951
 20
2.090006891646428
 30
0.0
 10
8.123188683679876
 20
2.096245780377709
 30
0.0
 10
8.12332479478755
 20
2.098334669213828
 30
0.0
 10
8.12360951700258
 20
2.100423558049948
 30
0.0
 10
8.123758128109936
 20
2.102620780216663
 30
0.0
 10
8.124444444444444
 20
2.109998557808063
 30
0.0
 10
8.125
 20
2.117486111111121
 30
0.0
 10
8.125
 20
2.125
 30
0.0
 10
8.125
 20
2.134847222222232
 30
0.0
 10
8.125277777777784
 20
2.144586056934309
 30
0.0
 10
8.125834516946371
 20
2.154161056692424
 30
0.0
 10
8.126119239161401
 20
2.157497167719258
 30
0.0
 10
8.126403961376429
 20
2.160834667634945
 30
0.0
 10
8.126667850258652
 20
2.164306889769452
 30
0.0
 10
8.127067850248547
 20
2.17057355627781
 30
0.0
 10
8.127637294678607
 20
2.176676333901418
 30
0.0
 10
8.128342850216338
 20
2.182915222632699
 30
0.0
 10
8.128892850202444
 20
2.18679438920137
 30
0.0
 10
8.12929285019234
 20
2.190836055765936
 30
0.0
 10
8.129862294622399
 20
2.194715222334606
 30
0.0
 10
8.130697016823534
 20
2.200276333305232
 30
0.0
 10
8.131516461247276
 20
2.205837444275858
 30
0.0
 10
8.13250673900004
 20
2.211262444138811
 30
0.0
 10
8.133205350093501
 20
2.215277777777778
 30
0.0
 10
8.133877572298742
 20
2.219292999491497
 30
0.0
 10
8.134731738943831
 20
2.223334666056063
 30
0.0
 10
8.135837294471457
 20
2.229302721460853
 30
0.0
 10
8.137220627769844
 20
2.23513466575797
 30
0.0
 10
8.138611111111105
 20
2.240966610055087
 30
0.0
 10
8.141255349890141
 20
2.251952720888665
 30
0.0
 10
8.144028960931184
 20
2.262776331726349
 30
0.0
 10
8.147372016402288
 20
2.273491609233436
 30
0.0
 10
8.14750812750996
 20
2.273736111111121
 30
0.0
 10
8.147644238617634
 20
2.274169386994092
 30
0.0
 10
8.147644238617634
 20
2.274576331428256
 30
0.0
 10
8.149867849672571
 20
2.281520775697269
 30
0.0
 10
8.152222222222223
 20
2.288465219966282
 30
0.0
 10
8.154716460661195
 20
2.295274942016476
 30
0.0
 10
8.155287293980109
 20
2.296658275314864
 30
0.0
 10
8.15583590507736
 20
2.298041666666677
 30
0.0
 10
8.156256738400064
 20
2.299587441907534
 30
0.0
 10
8.158480349455001
 20
2.305419386204651
 30
0.0
 10
8.160834516062197
 20
2.311116608282949
 30
0.0
 10
8.163194444444445
 20
2.316786052584171
 30
0.0
 10
8.16387896042973
 20
2.318630496982021
 30
0.0
 10
8.164584515967464
 20
2.3202846636069
 30
0.0
 10
8.165269238172389
 20
2.321940219120632
 30
0.0
 10
8.167642849223537
 20
2.327501330091258
 30
0.0
 10
8.17013888888889
 20
2.333062441061884
 30
0.0
 10
8.17277618242719
 20
2.338595774255433
 30
0.0
 10
8.173481737964924
 20
2.340141607549715
 30
0.0
 10
8.174166666666666
 20
2.341661051955775
 30
0.0
 10
8.175001182370982
 20
2.343044385254163
 30
0.0
 10
8.178059515627057
 20
2.349581885089012
 30
0.0
 10
8.181390071098475
 20
2.355956884927966
 30
0.0
 10
8.18471923768104
 20
2.362358273655142
 30
0.0
 10
8.185003959896068
 20
2.362630495870488
 30
0.0
 10
8.185140071003742
 20
2.363037440304652
 30
0.0
 10
8.185424793218772
 20
2.363470773627038
 30
0.0
 10
8.18903312646095
 20
2.370280495677232
 30
0.0
 10
8.192910904140767
 20
2.377088828838573
 30
0.0
 10
8.196960904038455
 20
2.383598550896345
 30
0.0
 10
8.197631737354843
 20
2.384873550864136
 30
0.0
 10
8.198466459555977
 20
2.38595966194781
 30
0.0
 10
8.199184515093394
 20
2.3872346619156
 30
0.0
 10
8.202365070568602
 20
2.392361111111111
 30
0.0
 10
8.20568868159575
 20
2.397487439434371
 30
0.0
 10
8.209017848178316
 20
2.402506883752014
 30
0.0
 10
8.210408125920972
 20
2.404595772588133
 30
0.0
 10
8.211812292552167
 20
2.406684661424252
 30
0.0
 10
8.213331736958228
 20
2.408745772483295
 30
0.0
 10
8.21611229244354
 20
2.412787439047861
 30
0.0
 10
8.219034514591941
 20
2.416802716724204
 30
0.0
 10
8.22193055555556
 20
2.420816605511694
 30
0.0
 10
8.223619236698344
 20
2.423041666666677
 30
0.0
 10
8.225273403323222
 20
2.425401327618096
 30
0.0
 10
8.227098403277118
 20
2.427626327561888
 30
0.0
 10
8.229858125429624
 20
2.431369383022886
 30
0.0
 10
8.232787292022294
 20
2.435004105153287
 30
0.0
 10
8.235697014171011
 20
2.438612438395467
 30
0.0
 10
8.2375011807921
 20
2.440972222222222
 30
0.0
 10
8.23929166666667
 20
2.443197160501869
 30
0.0
 10
8.241244236253099
 20
2.445420771556807
 30
0.0
 10
8.244323402841978
 20
2.449163827017805
 30
0.0
 10
8.247503958317186
 20
2.452772160259984
 30
0.0
 10
8.250698402680932
 20
2.456406882390386
 30
0.0
 10
8.252352569305812
 20
2.458333333333333
 30
0.0
 10
8.254156735926902
 20
2.460422160066729
 30
0.0
 10
8.255981735880798
 20
2.46237499999999
 30
0.0
 10
8.260830346869422
 20
2.467637437662233
 30
0.0
 10
8.265834513409674
 20
2.472927715306367
 30
0.0
 10
8.270833333333332
 20
2.478054104065753
 30
0.0
 10
8.272501179907925
 20
2.479601326248889
 30
0.0
 10
8.274176179865611
 20
2.481092992877873
 30
0.0
 10
8.275702568715941
 20
2.482638888888889
 30
0.0
 10
8.279445624176939
 20
2.486247159414334
 30
0.0
 10
8.283060901863387
 20
2.48985410376766
 30
0.0
 10
8.286952568431742
 20
2.493326325902166
 30
0.0
 10
8.289313679483206
 20
2.495551325845958
 30
0.0
 10
8.291673401645816
 20
2.497640214682077
 30
0.0
 10
8.294183123804638
 20
2.499729103518196
 30
0.0
 10
8.297206734839367
 20
2.502495770114971
 30
0.0
 10
8.30041506809165
 20
2.505290214488822
 30
0.0
 10
8.303609512455397
 20
2.507920769977924
 30
0.0
 10
8.306253956833036
 20
2.510145769921716
 30
0.0
 10
8.308898401210676
 20
2.512342992088432
 30
0.0
 10
8.311537290032902
 20
2.514431880924551
 30
0.0
 10
8.31471784550811
 20
2.517090214190729
 30
0.0
 10
8.317910900983001
 20
2.51944993635334
 30
0.0
 10
8.321105345346748
 20
2.521945769623623
 30
0.0
 10
8.323899789720599
 20
2.524034658459742
 30
0.0
 10
8.32653728965397
 20
2.526095769518785
 30
0.0
 10
8.329298400695329
 20
2.528184658354904
 30
0.0
 10
8.332648400610701
 20
2.530680555555566
 30
0.0
 10
8.335970622748997
 20
2.532904102680125
 30
0.0
 10
8.339449789327773
 20
2.535291666666656
 30
0.0
 10
8.34207478926146
 20
2.537217991460036
 30
0.0
 10
8.344855344746772
 20
2.539170769188483
 30
0.0
 10
8.347649789120624
 20
2.541097222222232
 30
0.0
 10
8.351677566796651
 20
2.54359299129899
 30
0.0
 10
8.355692844472994
 20
2.546251324565168
 30
0.0
 10
8.359720622149021
 20
2.548747157835451
 30
0.0
 10
8.362515066522873
 20
2.550563824456225
 30
0.0
 10
8.365274788675379
 20
2.552354102188777
 30
0.0
 10
8.368198399712632
 20
2.55400965770251
 30
0.0
 10
8.37375256623899
 20
2.557345768729343
 30
0.0
 10
8.379306732765347
 20
2.560547157537358
 30
0.0
 10
8.384988677066252
 20
2.563612435237701
 30
0.0
 10
8.387634510332747
 20
2.565131879643761
 30
0.0
 10
8.390563676925415
 20
2.566515212942148
 30
0.0
 10
8.39333728796646
 20
2.56806104623643
 30
0.0
 10
8.397101176760264
 20
2.570122157295474
 30
0.0
 10
8.400980343328936
 20
2.572102712800996
 30
0.0
 10
8.404995621005279
 20
2.57402910164122
 30
0.0
 10
8.40791784315368
 20
2.57554854604728
 30
0.0
 10
8.410983120854022
 20
2.576931879345668
 30
0.0
 10
8.41402895411041
 20
2.578341601532277
 30
0.0
 10
8.41777200957141
 20
2.580131879264829
 30
0.0
 10
8.421672009472887
 20
2.581787434778562
 30
0.0
 10
8.425549787152704
 20
2.583604101399335
 30
0.0
 10
8.428609509297631
 20
2.584879101367126
 30
0.0
 10
8.431667842553704
 20
2.586236111111121
 30
0.0
 10
8.434848398028912
 20
2.587483267968006
 30
0.0
 10
8.438897009037747
 20
2.589165212369961
 30
0.0
 10
8.442905342269821
 20
2.590684656776021
 30
0.0
 10
8.446953953278655
 20
2.592204101182081
 30
0.0
 10
8.44999839764619
 20
2.593479101149872
 30
0.0
 10
8.45292756423886
 20
2.594563823344692
 30
0.0
 10
8.45597339749525
 20
2.59570271220481
 30
0.0
 10
8.460685897376202
 20
2.597358267718543
 30
0.0
 10
8.465284508371143
 20
2.598876323235749
 30
0.0
 10
8.470017841584902
 20
2.600423545418885
 30
0.0
 10
8.472506730410917
 20
2.601237434287214
 30
0.0
 10
8.4750025636812
 20
2.602077712043764
 30
0.0
 10
8.477491452507213
 20
2.602919378689168
 30
0.0
 10
8.484720618991256
 20
2.605142989744107
 30
0.0
 10
8.49180811881221
 20
2.607069444444455
 30
0.0
 10
8.499165063070803
 20
2.609022156312777
 30
0.0
 10
8.501105340799565
 20
2.609565211854614
 30
0.0
 10
8.50318055555556
 20
2.609998545177
 30
0.0
 10
8.505276174027534
 20
2.610567989607059
 30
0.0
 10
8.51070833333333
 20
2.611788822909552
 30
0.0
 10
8.516113673753756
 20
2.61303743398912
 30
0.0
 10
8.521660895835844
 20
2.614312433956911
 30
0.0
 10
8.52445395132084
 20
2.614854100609894
 30
0.0
 10
8.52734978458102
 20
2.615397156151731
 30
0.0
 10
8.530144228954871
 20
2.61596660058179
 30
0.0
 10
8.535006728832034
 20
2.616808267227194
 30
0.0
 10
8.539855339820658
 20
2.617784656091418
 30
0.0
 10
8.54472478414209
 20
2.618462433852073
 30
0.0
 10
8.547655339623613
 20
2.619031878282132
 30
0.0
 10
8.550678950658341
 20
2.619438822716297
 30
0.0
 10
8.553758117247222
 20
2.619845767150461
 30
0.0
 10
8.558606728235848
 20
2.620551322688192
 30
0.0
 10
8.563476172557278
 20
2.621120767118251
 30
0.0
 10
8.568338672434441
 20
2.621663822660088
 30
0.0
 10
8.571383116801977
 20
2.622070767094252
 30
0.0
 10
8.5743136722835
 20
2.622341600420744
 30
0.0
 10
8.577372005539575
 20
2.622640211524311
 30
0.0
 10
8.5826414498509
 20
2.623181878177295
 30
0.0
 10
8.587924783050767
 20
2.623616600388535
 30
0.0
 10
8.593328949580911
 20
2.623887433715026
 30
0.0
 10
8.595817838406926
 20
2.624023544822699
 30
0.0
 10
8.598476171673104
 20
2.624294378149191
 30
0.0
 10
8.600986111111107
 20
2.624430555555566
 30
0.0
 10
8.608892838076624
 20
2.624729100360431
 30
0.0
 10
8.616942837873264
 20
2.625
 30
0.0
 10
8.625
 20
2.625
 30
0.0
 10
8.900966441809334
 20
2.625
 30
0.0
 10
9.125006713927378
 20
2.848876316920218
 30
0.0
 10
9.125006713927378
 20
3.125
 30
0.0
 10
9.125006713927378
 20
3.125
 30
0.0
 10
9.125006713927378
 20
4.6875
 30
0.0
 10
9.125006713927378
 20
4.6875
 30
0.0
 10
9.125006713927378
 20
4.6875
 30
0.0
 10
9.125006713927378
 20
4.875
 30
0.0
 10
9.125006713927378
 20
4.875
 30
0.0
  0
SPLINE
  5
42
330
1F
100
AcDbEntity
  8
Layer 1
370
     0
100
AcDbSpline
210
0.0
220
0.0
230
1.0
 70
    11
 71
     3
 72
   398
 73
   394
 74
     0
 42
0.0000000001
 43
0.0000000001
 12
1.0
 22
0.0
 32
0.0
 13
1.0
 23
0.0
 33
0.0
 40
0.0
 40
0.0
 40
0.0
 40
0.0
 40
1.0
 40
1.0
 40
1.0
 40
2.0
 40
2.0
 40
2.0
 40
3.0
 40
3.0
 40
3.0
 40
4.0
 40
4.0
 40
4.0
 40
5.0
 40
5.0
 40
5.0
 40
6.0
 40
6.0
 40
6.0
 40
7.0
 40
7.0
 40
7.0
 40
8.0
 40
8.0
 40
8.0
 40
9.0
 40
9.0
 40
9.0
 40
10.0
 40
10.0
 40
10.0
 40
11.0
 40
11.0
 40
11.0
 40
12.0
 40
12.0
 40
12.0
 40
13.0
 40
13.0
 40
13.0
 40
14.0
 40
14.0
 40
14.0
 40
15.0
 40
15.0
 40
15.0
 40
16.0
 40
16.0
 40
16.0
 40
17.0
 40
17.0
 40
17.0
 40
18.0
 40
18.0
 40
18.0
 40
19.0
 40
19.0
 40
19.0
 40
20.0
 40
20.0
 40
20.0
 40
21.0
 40
21.0
 40
21.0
 40
22.0
 40
22.0
 40
22.0
 40
23.0
 40
23.0
 40
23.0
 40
24.0
 40
24.0
 40
24.0
 40
25.0
 40
25.0
 40
25.0
 40
26.0
 40
26.0
 40
26.0
 40
27.0
 40
27.0
 40
27.0
 40
28.0
 40
28.0
 40
28.0
 40
29.0
 40
29.0
 40
29.0
 40
30.0
 40
30.0
 40
30.0
 40
31.0
 40
31.0
 40
31.0
 40
32.0
 40
32.0
 40
32.0
 40
33.0
 40
33.0
 40
33.0
 40
34.0
 40
34.0
 40
34.0
 40
35.0
 40
35.0
 40
35.0
 40
36.0
 40
36.0
 40
36.0
 40
37.0
 40
37.0
 40
37.0
 40
38.0
 40
38.0
 40
38.0
 40
39.0
 40
39.0
 40
39.0
 40
40.0
 40
40.0
 40
40.0
 40
41.0
 40
41.0
 40
41.0
 40
42.0
 40
42.0
 40
42.0
 40
43.0
 40
43.0
 40
43.0
 40
44.0
 40
44.0
 40
44.0
 40
45.0
 40
45.0
 40
45.0
 40
46.0
 40
46.0
 40
46.0
 40
47.0
 40
47.0
 40
47.0
 40
48.0
 40
48.0
 40
48.0
 40
49.0
 40
49.0
 40
49.0
 40
50.0
 40
50.0
 40
50.0
 40
51.0
 40
51.0
 40
51.0
 40
52.0
 40
52.0
 40
52.0
 40
53.0
 40
53.0
 40
53.0
 40
54.0
 40
54.0
 40
54.0
 40
55.0
 40
55.0
 40
55.0
 40
56.0
 40
56.0
 40
56.0
 40
57.0
 40
57.0
 40
57.0
 40
58.0
 40
58.0
 40
58.0
 40
59.0
 40
59.0
 40
59.0
 40
60.0
 40
60.0
 40
60.0
 40
61.0
 40
61.0
 40
61.0
 40
62.0
 40
62.0
 40
62.0
 40
63.0
 40
63.0
 40
63.0
 40
64.0
 40
64.0
 40
64.0
 40
65.0
 40
65.0
 40
65.0
 40
66.0
 40
66.0
 40
66.0
 40
67.0
 40
67.0
 40
67.0
 40
68.0
 40
68.0
 40
68.0
 40
69.0
 40
69.0
 40
69.0
 40
70.0
 40
70.0
 40
70.0
 40
71.0
 40
71.0
 40
71.0
 40
72.0
 40
72.0
 40
72.0
 40
73.0
 40
73.0
 40
73.0
 40
74.0
 40
74.0
 40
74.0
 40
75.0
 40
75.0
 40
75.0
 40
76.0
 40
76.0
 40
76.0
 40
77.0
 40
77.0
 40
77.0
 40
78.0
 40
78.0
 40
78.0
 40
79.0
 40
79.0
 40
79.0
 40
80.0
 40
80.0
 40
80.0
 40
81.0
 40
81.0
 40
81.0
 40
82.0
 40
82.0
 40
82.0
 40
83.0
 40
83.0
 40
83.0
 40
84.0
 40
84.0
 40
84.0
 40
85.0
 40
85.0
 40
85.0
 40
86.0
 40
86.0
 40
86.0
 40
87.0
 40
87.0
 40
87.0
 40
88.0
 40
88.0
 40
88.0
 40
89.0
 40
89.0
 40
89.0
 40
90.0
 40
90.0
 40
90.0
 40
91.0
 40
91.0
 40
91.0
 40
92.0
 40
92.0
 40
92.0
 40
93.0
 40
93.0
 40
93.0
 40
94.0
 40
94.0
 40
94.0
 40
95.0
 40
95.0
 40
95.0
 40
96.0
 40
96.0
 40
96.0
 40
97.0
 40
97.0
 40
97.0
 40
98.0
 40
98.0
 40
98.0
 40
99.0
 40
99.0
 40
99.0
 40
100.0
 40
100.0
 40
100.0
 40
101.0
 40
101.0
 40
101.0
 40
102.0
 40
102.0
 40
102.0
 40
103.0
 40
103.0
 40
103.0
 40
104.0
 40
104.0
 40
104.0
 40
105.0
 40
105.0
 40
105.0
 40
106.0
 40
106.0
 40
106.0
 40
107.0
 40
107.0
 40
107.0
 40
108.0
 40
108.0
 40
108.0
 40
109.0
 40
109.0
 40
109.0
 40
110.0
 40
110.0
 40
110.0
 40
111.0
 40
111.0
 40
111.0
 40
112.0
 40
112.0
 40
112.0
 40
113.0
 40
113.0
 40
113.0
 40
114.0
 40
114.0
 40
114.0
 40
115.0
 40
115.0
 40
115.0
 40
116.0
 40
116.0
 40
116.0
 40
117.0
 40
117.0
 40
117.0
 40
118.0
 40
118.0
 40
118.0
 40
119.0
 40
119.0
 40
119.0
 40
120.0
 40
120.0
 40
120.0
 40
121.0
 40
121.0
 40
121.0
 40
122.0
 40
122.0
 40
122.0
 40
123.0
 40
123.0
 40
123.0
 40
124.0
 40
124.0
 40
124.0
 40
125.0
 40
125.0
 40
125.0
 40
126.0
 40
126.0
 40
126.0
 40
127.0
 40
127.0
 40
127.0
 40
128.0
 40
128.0
 40
128.0
 40
129.0
 40
129.0
 40
129.0
 40
130.0
 40
130.0
 40
130.0
 40
131.0
 40
131.0
 40
131.0
 40
131.0
 10
8.936671996462893
 20
4.979573485316501
 30
0.0
 10
8.936544218688342
 20
4.977620707588054
 30
0.0
 10
8.936387274247863
 20
4.975694444444444
 30
0.0
 10
8.93625810758446
 20
4.973876263238203
 30
0.0
 10
8.93583866315061
 20
4.96875
 30
0.0
 10
8.935288663164505
 20
4.963623485719432
 30
0.0
 10
8.934583333333332
 20
4.958604041401789
 30
0.0
 10
8.93431944444444
 20
4.956813763669238
 30
0.0
 10
8.934183107636878
 20
4.954997097048463
 30
0.0
 10
8.933898385421848
 20
4.953179041538836
 30
0.0
 10
8.932908107669087
 20
4.946669319481063
 30
0.0
 10
8.931823385474267
 20
4.940158208534436
 30
0.0
 10
8.930419218843072
 20
4.93375681980726
 30
0.0
 10
8.930134496628044
 20
4.932915153161856
 30
0.0
 10
8.929870607745821
 20
4.931938764297633
 30
0.0
 10
8.929734496638149
 20
4.93096237543341
 30
0.0
 10
8.928480330003165
 20
4.925699875566352
 30
0.0
 10
8.92707616337197
 20
4.920409597922217
 30
0.0
 10
8.925685885629314
 20
4.915120709166937
 30
0.0
 10
8.925001163424389
 20
4.912760987004327
 30
0.0
 10
8.924166666666666
 20
4.910265153734043
 30
0.0
 10
8.923481719018328
 20
4.907795709351982
 30
0.0
 10
8.922356719046748
 20
4.904297098329253
 30
0.0
 10
8.921258107963391
 20
4.900824876194747
 30
0.0
 10
8.920002552439554
 20
4.897216542952568
 30
0.0
 10
8.9190331080196
 20
4.894449876355793
 30
0.0
 10
8.918063663599645
 20
4.891520709763123
 30
0.0
 10
8.916958333333328
 20
4.888752654277495
 30
0.0
 10
8.915967830319257
 20
4.886392932114884
 30
0.0
 10
8.914998385899302
 20
4.884169321059946
 30
0.0
 10
8.914163663698167
 20
4.881944444444444
 30
0.0
 10
8.90444560838811
 20
4.85834432171234
 30
0.0
 10
8.892217830919233
 20
4.836099877829838
 30
0.0
 10
8.877352553516983
 20
4.815835989452858
 30
0.0
 10
8.875698386892104
 20
4.81361237839792
 30
0.0
 10
8.873894220271016
 20
4.811523489561801
 30
0.0
 10
8.87221922031333
 20
4.809298489618009
 30
0.0
 10
8.869594220379643
 20
4.805826267483503
 30
0.0
 10
8.866949776002002
 20
4.802354045348996
 30
0.0
 10
8.864027777777778
 20
4.799017934322162
 30
0.0
 10
8.861666666666666
 20
4.796115156617715
 30
0.0
 10
8.859177553976123
 20
4.793320712243863
 30
0.0
 10
8.856533109598482
 20
4.790554045647089
 30
0.0
 10
8.854309498543545
 20
4.788058212376805
 30
0.0
 10
8.852084498599753
 20
4.785535990218301
 30
0.0
 10
8.849724776437142
 20
4.783067934725093
 30
0.0
 10
8.846801165399887
 20
4.780002657024751
 30
0.0
 10
8.843756721032353
 20
4.777208333333343
 30
0.0
 10
8.840691443332009
 20
4.774305555555555
 30
0.0
 10
8.83860255449589
 20
4.772216546110333
 30
0.0
 10
8.836513888888891
 20
4.77015543505129
 30
0.0
 10
8.834302554604518
 20
4.768174879545768
 30
0.0
 10
8.830980332466222
 20
4.765135990733648
 30
0.0
 10
8.827501165887446
 20
4.76234293524865
 30
0.0
 10
8.824170610416028
 20
4.759602657540098
 30
0.0
 10
8.822095610468446
 20
4.757758213142248
 30
0.0
 10
8.820006721632328
 20
4.755967935409696
 30
0.0
 10
8.817917832796208
 20
4.754285991007742
 30
0.0
 10
8.814303943998613
 20
4.751519324410967
 30
0.0
 10
8.810560888537616
 20
4.748887380033011
 30
0.0
 10
8.806809499743496
 20
4.746120713436236
 30
0.0
 10
8.804720610907376
 20
4.744601269030176
 30
0.0
 10
8.802645610959795
 20
4.743055555555555
 30
0.0
 10
8.800556722123677
 20
4.741672102437506
 30
0.0
 10
8.796677555555005
 20
4.739013888888899
 30
0.0
 10
8.79277894454238
 20
4.736517935901045
 30
0.0
 10
8.788749999999999
 20
4.734158213738434
 30
0.0
 10
8.78666088914138
 20
4.732774880440047
 30
0.0
 10
8.784437278086443
 20
4.731391547141659
 30
0.0
 10
8.782226167031189
 20
4.730142936062091
 30
0.0
 10
8.778198389355161
 20
4.72778321389948
 30
0.0
 10
8.774162278346012
 20
4.725558213955688
 30
0.0
 10
8.76999838956231
 20
4.72333460290075
 30
0.0
 10
8.768480334045105
 20
4.722629047363019
 30
0.0
 10
8.76707616741391
 20
4.721652777777788
 30
0.0
 10
8.765549778563582
 20
4.72097488073814
 30
0.0
 10
8.765549778563582
 20
4.72097488073814
 30
0.0
 10
8.765549778563582
 20
4.25
 30
0.0
 10
8.765549778563582
 20
4.25
 30
0.0
 10
8.765549778563582
 20
4.25
 30
0.0
 10
8.765549778563582
 20
4.125
 30
0.0
 10
8.765549778563582
 20
4.125
 30
0.0
 10
8.765549778563582
 20
4.125
 30
0.0
 10
8.484299785668554
 20
4.125
 30
0.0
 10
8.484299785668554
 20
4.125
 30
0.0
 10
8.484299785668554
 20
4.125
 30
0.0
 10
8.484299785668554
 20
4.25
 30
0.0
 10
8.484299785668554
 20
4.25
 30
0.0
 10
8.484299785668554
 20
4.25
 30
0.0
 10
8.484299785668554
 20
4.53081655220861
 30
0.0
 10
8.484299785668554
 20
4.53081655220861
 30
0.0
 10
8.484299785668554
 20
4.53081655220861
 30
0.0
 10
8.484299785668554
 20
4.72097488073814
 30
0.0
 10
8.484299785668554
 20
4.72097488073814
 30
0.0
 10
8.484299785668554
 20
4.72097488073814
 30
0.0
 10
8.484299785668554
 20
4.825005433665662
 30
0.0
 10
8.484299785668554
 20
4.825005433665662
 30
0.0
 10
8.484299785668554
 20
4.852484599638147
 30
0.0
 10
8.461805555555555
 20
4.875
 30
0.0
 10
8.434312286931345
 20
4.875
 30
0.0
 10
8.434312286931345
 20
4.875
 30
0.0
 10
8.355420622257649
 20
4.875
 30
0.0
 10
8.355420622257649
 20
4.875
 30
0.0
 10
8.350002566838965
 20
4.875
 30
0.0
 10
8.3447192336391
 20
4.873887376875246
 30
0.0
 10
8.339722222222223
 20
4.87220543247329
 30
0.0
 10
8.338331733800462
 20
4.875434599058381
 30
0.0
 10
8.337097222222217
 20
4.878742932308139
 30
0.0
 10
8.335685900533967
 20
4.881944444444444
 30
0.0
 10
8.33487201166564
 20
4.884169321059946
 30
0.0
 10
8.333883122801732
 20
4.886392932114884
 30
0.0
 10
8.332912289492924
 20
4.888752654277495
 30
0.0
 10
8.331794233965613
 20
4.891520709763123
 30
0.0
 10
8.330837289545343
 20
4.894449876355793
 30
0.0
 10
8.329867845125388
 20
4.897216542952568
 30
0.0
 10
8.328613678490404
 20
4.900824876194747
 30
0.0
 10
8.32749423407424
 20
4.904297098329253
 30
0.0
 10
8.32638888888889
 20
4.907795709351982
 30
0.0
 10
8.325703956341687
 20
4.910265153734043
 30
0.0
 10
8.3248497896966
 20
4.912760987004327
 30
0.0
 10
8.324184511935629
 20
4.915120709166937
 30
0.0
 10
8.322780345304434
 20
4.920409597922217
 30
0.0
 10
8.321390067561778
 20
4.925699875566352
 30
0.0
 10
8.320135900926793
 20
4.93096237543341
 30
0.0
 10
8.319999999999999
 20
4.931938764297633
 30
0.0
 10
8.319736111111107
 20
4.932915153161856
 30
0.0
 10
8.319451178721868
 20
4.93375681980726
 30
0.0
 10
8.318047012090675
 20
4.940158208534436
 30
0.0
 10
8.316941456563047
 20
4.946669319481063
 30
0.0
 10
8.315972222222221
 20
4.953179041538836
 30
0.0
 10
8.315687289928064
 20
4.954997097048463
 30
0.0
 10
8.31555117882039
 20
4.956813763669238
 30
0.0
 10
8.31528728993817
 20
4.958604041401789
 30
0.0
 10
8.314581734400438
 20
4.963623485719432
 30
0.0
 10
8.314033123303185
 20
4.96875
 30
0.0
 10
8.313612289980483
 20
4.973876263238203
 30
0.0
 10
8.31347617887281
 20
4.975694444444444
 30
0.0
 10
8.313327567765453
 20
4.977620707588054
 30
0.0
 10
8.31319145665778
 20
4.979573485316501
 30
0.0
 10
8.312777777777784
 20
4.986381818477841
 30
0.0
 10
8.312492845564318
 20
4.993055555555555
 30
0.0
 10
8.312492845564318
 20
5.0
 30
0.0
 10
8.312492845564318
 20
5.006673484631897
 30
0.0
 10
8.312642845560529
 20
5.013210984466746
 30
0.0
 10
8.313062289994377
 20
5.019856817632191
 30
0.0
 10
8.31319145665778
 20
5.019992928739864
 30
0.0
 10
8.31319145665778
 20
5.020127650958683
 30
0.0
 10
8.31319145665778
 20
5.020263888888899
 30
0.0
 10
8.31347617887281
 20
5.024712373065086
 30
0.0
 10
8.31376090108784
 20
5.029024872956143
 30
0.0
 10
8.314167845522004
 20
5.033474872843726
 30
0.0
 10
8.31443312329308
 20
5.035399872795097
 30
0.0
 10
8.31471784550811
 20
5.037354039412397
 30
0.0
 10
8.314866456615466
 20
5.03917070603317
 30
0.0
 10
8.31500256772314
 20
5.039577650467335
 30
0.0
 10
8.31500256772314
 20
5.039848483793826
 30
0.0
 10
8.315151178830495
 20
5.040283206005066
 30
0.0
 10
8.315687289928064
 20
5.045274872545633
 30
0.0
 10
8.3165220121292
 20
5.050401261305018
 30
0.0
 10
8.317376178774287
 20
5.055419316733807
 30
0.0
 10
8.31764006765651
 20
5.056531816705703
 30
0.0
 10
8.317776178764182
 20
5.057780427785271
 30
0.0
 10
8.318047012090675
 20
5.058891538868314
 30
0.0
 10
8.322625000000004
 20
5.0826276493798
 30
0.0
 10
8.329867845125388
 20
5.105413759915286
 30
0.0
 10
8.339322011553223
 20
5.126926259371834
 30
0.0
 10
8.339449789327773
 20
5.127088759367729
 30
0.0
 10
8.339585900435445
 20
5.127224870475402
 30
0.0
 10
8.339585900435445
 20
5.12735959269422
 30
0.0
 10
8.341810900379237
 20
5.132351259234787
 30
0.0
 10
8.344034511434176
 20
5.137070703560008
 30
0.0
 10
8.346523400260189
 20
5.141817925662306
 30
0.0
 10
8.346794233586682
 20
5.142497092311815
 30
0.0
 10
8.34707895580171
 20
5.143038758964798
 30
0.0
 10
8.347513888888885
 20
5.14374431450253
 30
0.0
 10
8.349738677956742
 20
5.14805820328244
 30
0.0
 10
8.352098400119353
 20
5.15250681428117
 30
0.0
 10
8.354587288945368
 20
5.156819444444434
 30
0.0
 10
8.354987288935263
 20
5.157497091932883
 30
0.0
 10
8.355420622257649
 20
5.158176258582393
 30
0.0
 10
8.35584145558035
 20
5.158881814120124
 30
0.0
 10
8.374856732877763
 20
5.190835979979561
 30
0.0
 10
8.399305555555555
 20
5.219184590374526
 30
0.0
 10
8.427903953759898
 20
5.242512367562995
 30
0.0
 10
8.428188675974928
 20
5.242784589778339
 30
0.0
 10
8.428344231526555
 20
5.242919311997158
 30
0.0
 10
8.428609509297631
 20
5.243055555555555
 30
0.0
 10
8.43262339808512
 20
5.246256811912846
 30
0.0
 10
8.436672009093956
 20
5.249456811832007
 30
0.0
 10
8.440835897877655
 20
5.252495700644127
 30
0.0
 10
8.441806731186464
 20
5.25320125618186
 30
0.0
 10
8.442776175606417
 20
5.253906811719591
 30
0.0
 10
8.443745620026371
 20
5.254584589480246
 30
0.0
 10
8.447224786605148
 20
5.25708042275053
 30
0.0
 10
8.450833333333334
 20
5.259440144913141
 30
0.0
 10
8.454298397537563
 20
5.261799867075752
 30
0.0
 10
8.45568867528022
 20
5.262641533721156
 30
0.0
 10
8.456942841915204
 20
5.263455422589484
 30
0.0
 10
8.458190064105919
 20
5.264323478123111
 30
0.0
 10
8.461669230684695
 20
5.266384589182153
 30
0.0
 10
8.465134508374932
 20
5.268473478018273
 30
0.0
 10
8.468613674953707
 20
5.270562366854392
 30
0.0
 10
8.469869230477546
 20
5.271240144615048
 30
0.0
 10
8.471259508220202
 20
5.272080422371598
 30
0.0
 10
8.472642841518589
 20
5.272922089017002
 30
0.0
 10
8.476256730316184
 20
5.274874999999989
 30
0.0
 10
8.479987285777497
 20
5.276801255585673
 30
0.0
 10
8.483751174571301
 20
5.27875403331412
 30
0.0
 10
8.484869230098614
 20
5.279323477744179
 30
0.0
 10
8.486103952289643
 20
5.280002644393688
 30
0.0
 10
8.487378952257433
 20
5.280680555555565
 30
0.0
 10
8.49194284103103
 20
5.282904033209282
 30
0.0
 10
8.496527777777777
 20
5.284992922045401
 30
0.0
 10
8.501105340799565
 20
5.286947088662701
 30
0.0
 10
8.501660896341086
 20
5.287217921989193
 30
0.0
 10
8.50208172966379
 20
5.287354033096865
 30
0.0
 10
8.502516451875028
 20
5.287651255311579
 30
0.0
 10
8.507628951745875
 20
5.289876255255371
 30
0.0
 10
8.513067840497367
 20
5.291937366314414
 30
0.0
 10
8.518337284808695
 20
5.293891532931714
 30
0.0
 10
8.51917200700983
 20
5.294162366258206
 30
0.0
 10
8.519870618103292
 20
5.294324866254101
 30
0.0
 10
8.520690062527036
 20
5.294595699580592
 30
0.0
 10
8.52512617352608
 20
5.296251255094325
 30
0.0
 10
8.529588673413349
 20
5.297634588392712
 30
0.0
 10
8.534172006630898
 20
5.299045699468175
 30
0.0
 10
8.53582756214463
 20
5.299587366121159
 30
0.0
 10
8.537502562102317
 20
5.299994310555323
 30
0.0
 10
8.539170617615733
 20
5.300401254989487
 30
0.0
 10
8.542934506409539
 20
5.301513888888899
 30
0.0
 10
8.546528950763179
 20
5.302490143825606
 30
0.0
 10
8.550278950668446
 20
5.303466532689829
 30
0.0
 10
8.552231728396894
 20
5.303873477123994
 30
0.0
 10
8.554308117233328
 20
5.304442921554053
 30
0.0
 10
8.556247006073237
 20
5.304849865988217
 30
0.0
 10
8.559862283759685
 20
5.305691532633621
 30
0.0
 10
8.563320617005653
 20
5.306369310394277
 30
0.0
 10
8.566799783584429
 20
5.307074865932009
 30
0.0
 10
8.569023394639366
 20
5.307373477035576
 30
0.0
 10
8.571119227919755
 20
5.30778042146974
 30
0.0
 10
8.57320833333333
 20
5.308187365903905
 30
0.0
 10
8.576802561109515
 20
5.308756810333963
 30
0.0
 10
8.580416666666666
 20
5.309298476986947
 30
0.0
 10
8.584024783149289
 20
5.309705421421111
 30
0.0
 10
8.586120616429676
 20
5.310004032524678
 30
0.0
 10
8.588209505265796
 20
5.31027486585117
 30
0.0
 10
8.590284505213377
 20
5.310547088066515
 30
0.0
 10
8.594163671782047
 20
5.310954032500679
 30
0.0
 10
8.598042838350718
 20
5.311252643604247
 30
0.0
 10
8.60195533825188
 20
5.311523476930739
 30
0.0
 10
8.603881727092105
 20
5.311685976926634
 30
0.0
 10
8.605699782601732
 20
5.311930555555565
 30
0.0
 10
8.607509504778237
 20
5.311930555555565
 30
0.0
 10
8.613328949075669
 20
5.312363754687289
 30
0.0
 10
8.619031726709384
 20
5.3125
 30
0.0
 10
8.625
 20
5.3125
 30
0.0
 10
8.630702559747887
 20
5.3125
 30
0.0
 10
8.63624422627456
 20
5.312363754687289
 30
0.0
 10
8.641940059464003
 20
5.312066532472575
 30
0.0
 10
8.64389978163672
 20
5.311930555555565
 30
0.0
 10
8.645840059365481
 20
5.311685976926634
 30
0.0
 10
8.647778948205389
 20
5.311523476930739
 30
0.0
 10
8.65137339255903
 20
5.311387365823066
 30
0.0
 10
8.655002559134017
 20
5.311116532496574
 30
0.0
 10
8.65861644793161
 20
5.310681810285334
 30
0.0
 10
8.660976170094221
 20
5.310410976958843
 30
0.0
 10
8.66334978114537
 20
5.310140143632351
 30
0.0
 10
8.665710892196834
 20
5.309705421421111
 30
0.0
 10
8.668734503231564
 20
5.309298476986947
 30
0.0
 10
8.671813669820443
 20
5.309027777777778
 30
0.0
 10
8.674872003076517
 20
5.308458333333343
 30
0.0
 10
8.677497003010204
 20
5.308051254796232
 30
0.0
 10
8.680141447387843
 20
5.307481810366173
 30
0.0
 10
8.682630336213858
 20
5.307074865932009
 30
0.0
 10
8.68542478058771
 20
5.306531810390172
 30
0.0
 10
8.688184502740215
 20
5.306098477067786
 30
0.0
 10
8.690978947114065
 20
5.305419310418276
 30
0.0
 10
8.693623391491705
 20
5.304849865988217
 30
0.0
 10
8.696383113644211
 20
5.304172088227561
 30
0.0
 10
8.699022002466437
 20
5.303602643797502
 30
0.0
 10
8.701531724625259
 20
5.302923477147993
 30
0.0
 10
8.704040057895226
 20
5.302354032717933
 30
0.0
 10
8.706528946721239
 20
5.301649866069056
 30
0.0
 10
8.709445613314225
 20
5.300835977200728
 30
0.0
 10
8.71221922435527
 20
5.300130421662995
 30
0.0
 10
8.714992835396313
 20
5.299288755017591
 30
0.0
 10
8.71721644645125
 20
5.298611111111111
 30
0.0
 10
8.719441446395042
 20
5.297905421719204
 30
0.0
 10
8.721666666666668
 20
5.297227643958548
 30
0.0
 10
8.724731724039177
 20
5.296251255094325
 30
0.0
 10
8.72764005729904
 20
5.295138888888888
 30
0.0
 10
8.730563668336293
 20
5.294162366258206
 30
0.0
 10
8.732502557176202
 20
5.293456810720474
 30
0.0
 10
8.73431366824156
 20
5.292779032959818
 30
0.0
 10
8.736266445970006
 20
5.292101255199163
 30
0.0
 10
8.739447001445216
 20
5.290826255231372
 30
0.0
 10
8.74264144580896
 20
5.289577644151803
 30
0.0
 10
8.745835890172707
 20
5.288194444444444
 30
0.0
 10
8.747090056807691
 20
5.287651255311579
 30
0.0
 10
8.748324778998722
 20
5.28708181088152
 30
0.0
 10
8.749578945633704
 20
5.286512366451461
 30
0.0
 10
8.752637278889779
 20
5.285265144260746
 30
0.0
 10
8.755702556590121
 20
5.284016533181178
 30
0.0
 10
8.758612278738838
 20
5.28263319988279
 30
0.0
 10
8.759012278728733
 20
5.282362366556299
 30
0.0
 10
8.759581723158792
 20
5.282063755452731
 30
0.0
 10
8.760131723144898
 20
5.28179292212624
 30
0.0
 10
8.765549778563582
 20
5.279160977748284
 30
0.0
 10
8.770988667315072
 20
5.276231811155614
 30
0.0
 10
8.776373389401265
 20
5.273329033451167
 30
0.0
 10
8.776956722719863
 20
5.273058200124675
 30
0.0
 10
8.777641444924786
 20
5.27278597790933
 30
0.0
 10
8.778327556018565
 20
5.272352644586944
 30
0.0
 10
8.77958172265355
 20
5.271647089049211
 30
0.0
 10
8.780687278181176
 20
5.270833333333333
 30
0.0
 10
8.781941444816159
 20
5.270127644643152
 30
0.0
 10
8.788194444444445
 20
5.266547089178048
 30
0.0
 10
8.794317833392395
 20
5.262776255939975
 30
0.0
 10
8.800271999908647
 20
5.258598478267737
 30
0.0
 10
8.80179166666667
 20
5.257649867180589
 30
0.0
 10
8.803351166497526
 20
5.256510978320471
 30
0.0
 10
8.804870610903587
 20
5.255424867236798
 30
0.0
 10
8.811109499634869
 20
5.250976256238068
 30
0.0
 10
8.817233110591284
 20
5.246527777777778
 30
0.0
 10
8.823065054888401
 20
5.241672089806444
 30
0.0
 10
8.823337277103747
 20
5.241373478702877
 30
0.0
 10
8.823601165985968
 20
5.241237367595204
 30
0.0
 10
8.824035888197209
 20
5.240966534268712
 30
0.0
 10
8.824320610412238
 20
5.24069570094222
 30
0.0
 10
8.82459144373873
 20
5.240423478726876
 30
0.0
 10
8.824855332620952
 20
5.240126256512162
 30
0.0
 10
8.832634499091101
 20
5.233615145565535
 30
0.0
 10
8.840141443345903
 20
5.226670701296522
 30
0.0
 10
8.847365054274531
 20
5.219427645923941
 30
0.0
 10
8.847635887601022
 20
5.219184590374526
 30
0.0
 10
8.848056720923726
 20
5.21875
 30
0.0
 10
8.848334498694486
 20
5.218479034836794
 30
0.0
 10
8.848890054236007
 20
5.217909590406735
 30
0.0
 10
8.849440054222113
 20
5.217366534864898
 30
0.0
 10
8.850009498652172
 20
5.216797090434839
 30
0.0
 10
8.856533109598482
 20
5.209852646165826
 30
0.0
 10
8.862785887218301
 20
5.20277209078914
 30
0.0
 10
8.868740053734554
 20
5.19528459097829
 30
0.0
 10
8.869859498150719
 20
5.194010979899354
 30
0.0
 10
8.870828942570672
 20
5.192762368819785
 30
0.0
 10
8.87181944444444
 20
5.191406813298474
 30
0.0
 10
8.877637275732013
 20
5.183891535710548
 30
0.0
 10
8.883056720039551
 20
5.176269313680879
 30
0.0
 10
8.888190053243205
 20
5.168185980551748
 30
0.0
 10
8.888611111111105
 20
5.167642925009911
 30
0.0
 10
8.889180555555551
 20
5.167073480579853
 30
0.0
 10
8.889444444444443
 20
5.166395702819196
 30
0.0
 10
8.890001164308563
 20
5.165554036173792
 30
0.0
 10
8.890415053186997
 20
5.164713758417242
 30
0.0
 10
8.890970608728518
 20
5.16400820287951
 30
0.0
 10
8.892353942026904
 20
5.1616484807169
 30
0.0
 10
8.8937581086581
 20
5.159288758554289
 30
0.0
 10
8.895148386400756
 20
5.1569554252799
 30
0.0
 10
8.896388888888888
 20
5.154866536443781
 30
0.0
 10
8.897644219671038
 20
5.152641536499989
 30
0.0
 10
8.898877552973216
 20
5.150417925445051
 30
0.0
 10
8.90292616398205
 20
5.143038758964798
 30
0.0
 10
8.906670608331902
 20
5.135552648042802
 30
0.0
 10
8.910000000000005
 20
5.127902777777788
 30
0.0
 10
8.910149774910678
 20
5.127495703801893
 30
0.0
 10
8.910284497129497
 20
5.127224870475402
 30
0.0
 10
8.910549774900574
 20
5.126926259371834
 30
0.0
 10
8.920002552439554
 20
5.105413759915286
 30
0.0
 10
8.92722616336818
 20
5.0826276493798
 30
0.0
 10
8.931823385474267
 20
5.058891538868314
 30
0.0
 10
8.932094218800758
 20
5.057780427785271
 30
0.0
 10
8.932223385464162
 20
5.056531816705703
 30
0.0
 10
8.932494218790653
 20
5.055419316733807
 30
0.0
 10
8.933328940991789
 20
5.050401261305018
 30
0.0
 10
8.934183107636878
 20
5.045274872545633
 30
0.0
 10
8.934719218734445
 20
5.040283206005066
 30
0.0
 10
8.934855329842119
 20
5.039848483793826
 30
0.0
 10
8.934855329842119
 20
5.039577650467335
 30
0.0
 10
8.935003940949475
 20
5.03917070603317
 30
0.0
 10
8.935133107612879
 20
5.037354039412397
 30
0.0
 10
8.935417829827909
 20
5.035399872795097
 30
0.0
 10
8.9356886631544
 20
5.033474872843726
 30
0.0
 10
8.936109496477103
 20
5.029024872956143
 30
0.0
 10
8.936387274247863
 20
5.024712373065086
 30
0.0
 10
8.936671996462893
 20
5.020263888888899
 30
0.0
 10
8.936671996462893
 20
5.020127650958683
 30
0.0
 10
8.936671996462893
 20
5.019992928739864
 30
0.0
 10
8.936808107570565
 20
5.019856817632191
 30
0.0
 10
8.937208333333336
 20
5.013210984466746
 30
0.0
 10
8.93749282977549
 20
5.006673484631897
 30
0.0
 10
8.93749282977549
 20
5.0
 30
0.0
 10
8.93749282977549
 20
4.993055555555555
 30
0.0
 10
8.937078940897056
 20
4.986381818477841
 30
0.0
 10
8.936671996462893
 20
4.979573485316501
 30
0.0
  0
SPLINE
  5
43
330
1F
100
AcDbEntity
  8
Layer 1
370
     0
100
AcDbSpline
210
0.0
220
0.0
230
1.0
 70
    11
 71
     3
 72
   560
 73
   556
 74
     0
 42
0.0000000001
 43
0.0000000001
 12
1.0
 22
0.0
 32
0.0
 13
1.0
 23
0.0
 33
0.0
 40
0.0
 40
0.0
 40
0.0
 40
0.0
 40
1.0
 40
1.0
 40
1.0
 40
2.0
 40
2.0
 40
2.0
 40
3.0
 40
3.0
 40
3.0
 40
4.0
 40
4.0
 40
4.0
 40
5.0
 40
5.0
 40
5.0
 40
6.0
 40
6.0
 40
6.0
 40
7.0
 40
7.0
 40
7.0
 40
8.0
 40
8.0
 40
8.0
 40
9.0
 40
9.0
 40
9.0
 40
10.0
 40
10.0
 40
10.0
 40
11.0
 40
11.0
 40
11.0
 40
12.0
 40
12.0
 40
12.0
 40
13.0
 40
13.0
 40
13.0
 40
14.0
 40
14.0
 40
14.0
 40
15.0
 40
15.0
 40
15.0
 40
16.0
 40
16.0
 40
16.0
 40
17.0
 40
17.0
 40
17.0
 40
18.0
 40
18.0
 40
18.0
 40
19.0
 40
19.0
 40
19.0
 40
20.0
 40
20.0
 40
20.0
 40
21.0
 40
21.0
 40
21.0
 40
22.0
 40
22.0
 40
22.0
 40
23.0
 40
23.0
 40
23.0
 40
24.0
 40
24.0
 40
24.0
 40
25.0
 40
25.0
 40
25.0
 40
26.0
 40
26.0
 40
26.0
 40
27.0
 40
27.0
 40
27.0
 40
28.0
 40
28.0
 40
28.0
 40
29.0
 40
29.0
 40
29.0
 40
30.0
 40
30.0
 40
30.0
 40
31.0
 40
31.0
 40
31.0
 40
32.0
 40
32.0
 40
32.0
 40
33.0
 40
33.0
 40
33.0
 40
34.0
 40
34.0
 40
34.0
 40
35.0
 40
35.0
 40
35.0
 40
36.0
 40
36.0
 40
36.0
 40
37.0
 40
37.0
 40
37.0
 40
38.0
 40
38.0
 40
38.0
 40
39.0
 40
39.0
 40
39.0
 40
40.0
 40
40.0
 40
40.0
 40
41.0
 40
41.0
 40
41.0
 40
42.0
 40
42.0
 40
42.0
 40
43.0
 40
43.0
 40
43.0
 40
44.0
 40
44.0
 40
44.0
 40
45.0
 40
45.0
 40
45.0
 40
46.0
 40
46.0
 40
46.0
 40
47.0
 40
47.0
 40
47.0
 40
48.0
 40
48.0
 40
48.0
 40
49.0
 40
49.0
 40
49.0
 40
50.0
 40
50.0
 40
50.0
 40
51.0
 40
51.0
 40
51.0
 40
52.0
 40
52.0
 40
52.0
 40
53.0
 40
53.0
 40
53.0
 40
54.0
 40
54.0
 40
54.0
 40
55.0
 40
55.0
 40
55.0
 40
56.0
 40
56.0
 40
56.0
 40
57.0
 40
57.0
 40
57.0
 40
58.0
 40
58.0
 40
58.0
 40
59.0
 40
59.0
 40
59.0
 40
60.0
 40
60.0
 40
60.0
 40
61.0
 40
61.0
 40
61.0
 40
62.0
 40
62.0
 40
62.0
 40
63.0
 40
63.0
 40
63.0
 40
64.0
 40
64.0
 40
64.0
 40
65.0
 40
65.0
 40
65.0
 40
66.0
 40
66.0
 40
66.0
 40
67.0
 40
67.0
 40
67.0
 40
68.0
 40
68.0
 40
68.0
 40
69.0
 40
69.0
 40
69.0
 40
70.0
 40
70.0
 40
70.0
 40
71.0
 40
71.0
 40
71.0
 40
72.0
 40
72.0
 40
72.0
 40
73.0
 40
73.0
 40
73.0
 40
74.0
 40
74.0
 40
74.0
 40
75.0
 40
75.0
 40
75.0
 40
76.0
 40
76.0
 40
76.0
 40
77.0
 40
77.0
 40
77.0
 40
78.0
 40
78.0
 40
78.0
 40
79.0
 40
79.0
 40
79.0
 40
80.0
 40
80.0
 40
80.0
 40
81.0
 40
81.0
 40
81.0
 40
82.0
 40
82.0
 40
82.0
 40
83.0
 40
83.0
 40
83.0
 40
84.0
 40
84.0
 40
84.0
 40
85.0
 40
85.0
 40
85.0
 40
86.0
 40
86.0
 40
86.0
 40
87.0
 40
87.0
 40
87.0
 40
88.0
 40
88.0
 40
88.0
 40
89.0
 40
89.0
 40
89.0
 40
90.0
 40
90.0
 40
90.0
 40
91.0
 40
91.0
 40
91.0
 40
92.0
 40
92.0
 40
92.0
 40
93.0
 40
93.0
 40
93.0
 40
94.0
 40
94.0
 40
94.0
 40
95.0
 40
95.0
 40
95.0
 40
96.0
 40
96.0
 40
96.0
 40
97.0
 40
97.0
 40
97.0
 40
98.0
 40
98.0
 40
98.0
 40
99.0
 40
99.0
 40
99.0
 40
100.0
 40
100.0
 40
100.0
 40
101.0
 40
101.0
 40
101.0
 40
102.0
 40
102.0
 40
102.0
 40
103.0
 40
103.0
 40
103.0
 40
104.0
 40
104.0
 40
104.0
 40
105.0
 40
105.0
 40
105.0
 40
106.0
 40
106.0
 40
106.0
 40
107.0
 40
107.0
 40
107.0
 40
108.0
 40
108.0
 40
108.0
 40
109.0
 40
109.0
 40
109.0
 40
110.0
 40
110.0
 40
110.0
 40
111.0
 40
111.0
 40
111.0
 40
112.0
 40
112.0
 40
112.0
 40
113.0
 40
113.0
 40
113.0
 40
114.0
 40
114.0
 40
114.0
 40
115.0
 40
115.0
 40
115.0
 40
116.0
 40
116.0
 40
116.0
 40
117.0
 40
117.0
 40
117.0
 40
118.0
 40
118.0
 40
118.0
 40
119.0
 40
119.0
 40
119.0
 40
120.0
 40
120.0
 40
120.0
 40
121.0
 40
121.0
 40
121.0
 40
122.0
 40
122.0
 40
122.0
 40
123.0
 40
123.0
 40
123.0
 40
124.0
 40
124.0
 40
124.0
 40
125.0
 40
125.0
 40
125.0
 40
126.0
 40
126.0
 40
126.0
 40
127.0
 40
127.0
 40
127.0
 40
128.0
 40
128.0
 40
128.0
 40
129.0
 40
129.0
 40
129.0
 40
130.0
 40
130.0
 40
130.0
 40
131.0
 40
131.0
 40
131.0
 40
132.0
 40
132.0
 40
132.0
 40
133.0
 40
133.0
 40
133.0
 40
134.0
 40
134.0
 40
134.0
 40
135.0
 40
135.0
 40
135.0
 40
136.0
 40
136.0
 40
136.0
 40
137.0
 40
137.0
 40
137.0
 40
138.0
 40
138.0
 40
138.0
 40
139.0
 40
139.0
 40
139.0
 40
140.0
 40
140.0
 40
140.0
 40
141.0
 40
141.0
 40
141.0
 40
142.0
 40
142.0
 40
142.0
 40
143.0
 40
143.0
 40
143.0
 40
144.0
 40
144.0
 40
144.0
 40
145.0
 40
145.0
 40
145.0
 40
146.0
 40
146.0
 40
146.0
 40
147.0
 40
147.0
 40
147.0
 40
148.0
 40
148.0
 40
148.0
 40
149.0
 40
149.0
 40
149.0
 40
150.0
 40
150.0
 40
150.0
 40
151.0
 40
151.0
 40
151.0
 40
152.0
 40
152.0
 40
152.0
 40
153.0
 40
153.0
 40
153.0
 40
154.0
 40
154.0
 40
154.0
 40
155.0
 40
155.0
 40
155.0
 40
156.0
 40
156.0
 40
156.0
 40
157.0
 40
157.0
 40
157.0
 40
158.0
 40
158.0
 40
158.0
 40
159.0
 40
159.0
 40
159.0
 40
160.0
 40
160.0
 40
160.0
 40
161.0
 40
161.0
 40
161.0
 40
162.0
 40
162.0
 40
162.0
 40
163.0
 40
163.0
 40
163.0
 40
164.0
 40
164.0
 40
164.0
 40
165.0
 40
165.0
 40
165.0
 40
166.0
 40
166.0
 40
166.0
 40
167.0
 40
167.0
 40
167.0
 40
168.0
 40
168.0
 40
168.0
 40
169.0
 40
169.0
 40
169.0
 40
170.0
 40
170.0
 40
170.0
 40
171.0
 40
171.0
 40
171.0
 40
172.0
 40
172.0
 40
172.0
 40
173.0
 40
173.0
 40
173.0
 40
174.0
 40
174.0
 40
174.0
 40
175.0
 40
175.0
 40
175.0
 40
176.0
 40
176.0
 40
176.0
 40
177.0
 40
177.0
 40
177.0
 40
178.0
 40
178.0
 40
178.0
 40
179.0
 40
179.0
 40
179.0
 40
180.0
 40
180.0
 40
180.0
 40
181.0
 40
181.0
 40
181.0
 40
182.0
 40
182.0
 40
182.0
 40
183.0
 40
183.0
 40
183.0
 40
184.0
 40
184.0
 40
184.0
 40
185.0
 40
185.0
 40
185.0
 40
185.0
 10
18.25
 20
5.124972222222216
 30
0.0
 10
18.25
 20
5.124972222222216
 30
0.0
 10
18.25
 20
5.25
 30
0.0
 10
18.25
 20
5.25
 30
0.0
 10
18.25
 20
5.293185977393983
 30
0.0
 10
18.24443888888888
 20
5.33498736522688
 30
0.0
 10
18.23429305555555
 20
5.375
 30
0.0
 10
18.1787375
 20
5.590548469881974
 30
0.0
 10
17.982775
 20
5.75
 30
0.0
 10
17.75
 20
5.75
 30
0.0
 10
17.51709027777777
 20
5.75
 30
0.0
 10
17.32109861111111
 20
5.590548469881974
 30
0.0
 10
17.26554305555555
 20
5.375
 30
0.0
 10
17.2553986111111
 20
5.33498736522688
 30
0.0
 10
17.25
 20
5.293185977393983
 30
0.0
 10
17.25
 20
5.25
 30
0.0
 10
17.25
 20
5.204427646302873
 30
0.0
 10
17.23749444444444
 20
5.161810980712795
 30
0.0
 10
17.21625416666666
 20
5.124972222222216
 30
0.0
 10
17.17290555555554
 20
5.050401261305018
 30
0.0
 10
17.09233888888889
 20
5.0
 30
0.0
 10
17.0
 20
5.0
 30
0.0
 10
17.0
 20
5.0
 30
0.0
 10
16.75
 20
5.0
 30
0.0
 10
16.75
 20
5.0
 30
0.0
 10
16.75
 20
5.0
 30
0.0
 10
16.5
 20
5.0
 30
0.0
 10
16.5
 20
5.0
 30
0.0
 10
16.40749722222222
 20
5.0
 30
0.0
 10
16.32695833333332
 20
5.050401261305018
 30
0.0
 10
16.28360972222223
 20
5.124972222222216
 30
0.0
 10
16.26236944444445
 20
5.161810980712795
 30
0.0
 10
16.25
 20
5.204427646302873
 30
0.0
 10
16.25
 20
5.25
 30
0.0
 10
16.25
 20
5.25
 30
0.0
 10
16.25
 20
5.375
 30
0.0
 10
16.25
 20
5.375
 30
0.0
 10
16.25
 20
5.375
 30
0.0
 10
10.24999279661895
 20
5.375
 30
0.0
 10
10.24999279661895
 20
5.375
 30
0.0
 10
10.24999279661895
 20
5.375
 30
0.0
 10
10.24999279661895
 20
5.25
 30
0.0
 10
10.24999279661895
 20
5.25
 30
0.0
 10
10.24999279661895
 20
5.204427646302873
 30
0.0
 10
10.23749418582358
 20
5.161810980712795
 30
0.0
 10
10.21625390858238
 20
5.124972222222216
 30
0.0
 10
10.17290529856635
 20
5.050401261305018
 30
0.0
 10
10.09234557837923
 20
5.0
 30
0.0
 10
9.999992802934482
 20
5.0
 30
0.0
 10
9.999992802934482
 20
5.0
 30
0.0
 10
9.749992809250013
 20
5.0
 30
0.0
 10
9.749992809250013
 20
5.0
 30
0.0
 10
9.749992809250013
 20
5.0
 30
0.0
 10
9.5
 20
5.0
 30
0.0
 10
9.5
 20
5.0
 30
0.0
 10
9.361795596834478
 20
5.0
 30
0.0
 10
9.25
 20
4.888048487628617
 30
0.0
 10
9.25
 20
4.75
 30
0.0
 10
9.25
 20
4.75
 30
0.0
 10
9.25
 20
2.375
 30
0.0
 10
9.25
 20
2.375
 30
0.0
 10
9.25
 20
2.236924943490521
 30
0.0
 10
9.361795596834478
 20
2.125
 30
0.0
 10
9.5
 20
2.125
 30
0.0
 10
9.5
 20
2.125
 30
0.0
 10
9.749992809250013
 20
2.125
 30
0.0
 10
9.749992809250013
 20
2.125
 30
0.0
 10
9.749992809250013
 20
2.125
 30
0.0
 10
9.999992802934482
 20
2.125
 30
0.0
 10
9.999992802934482
 20
2.125
 30
0.0
 10
10.00763585829696
 20
2.125
 30
0.0
 10
10.01514974699603
 20
2.125406890752149
 30
0.0
 10
10.02263724680688
 20
2.126112446289881
 30
0.0
 10
10.02458333333334
 20
2.126383279616372
 30
0.0
 10
10.02652335781982
 20
2.126519390724045
 30
0.0
 10
10.02846224665973
 20
2.126790224050536
 30
0.0
 10
10.03542057981728
 20
2.127468001811192
 30
0.0
 10
10.04235807964202
 20
2.128472222222222
 30
0.0
 10
10.04916666666667
 20
2.129855501750879
 30
0.0
 10
10.04971641278947
 20
2.129991612858551
 30
0.0
 10
10.05026502388672
 20
2.130154112854446
 30
0.0
 10
10.05068585720942
 20
2.130154112854446
 30
0.0
 10
10.05763030147844
 20
2.131673557260506
 30
0.0
 10
10.06443307908436
 20
2.133463834993058
 30
0.0
 10
10.07110530113803
 20
2.135416666666667
 30
0.0
 10
10.07333030108182
 20
2.13609439048216
 30
0.0
 10
10.07541918991794
 20
2.136799946019892
 30
0.0
 10
10.07764280097288
 20
2.137505501557623
 30
0.0
 10
10.08304835639188
 20
2.139295779290175
 30
0.0
 10
10.08846641181056
 20
2.141248557018621
 30
0.0
 10
10.09362057834702
 20
2.143337445854741
 30
0.0
 10
10.09597474495422
 20
2.144287445830741
 30
0.0
 10
10.09819835600916
 20
2.145155501364368
 30
0.0
 10
10.10040946706441
 20
2.146104112451515
 30
0.0
 10
10.1054275224932
 20
2.148329112395307
 30
0.0
 10
10.1104122445895
 20
2.15082494566559
 30
0.0
 10
10.11527474446666
 20
2.153320778935873
 30
0.0
 10
10.1179191888443
 20
2.154704112234261
 30
0.0
 10
10.12069279988534
 20
2.15625
 30
0.0
 10
10.12331779981903
 20
2.157769389934603
 30
0.0
 10
10.12679696639781
 20
2.159722222222222
 30
0.0
 10
10.13014696631318
 20
2.161811056499169
 30
0.0
 10
10.13347057734033
 20
2.163872167558212
 30
0.0
 10
10.13805391055788
 20
2.166802723039735
 30
0.0
 10
10.14235391044925
 20
2.169868000740078
 30
0.0
 10
10.14665391034062
 20
2.172905500663344
 30
0.0
 10
10.14929166666666
 20
2.174831889503568
 30
0.0
 10
10.15194974354017
 20
2.176812445009091
 30
0.0
 10
10.15457474347386
 20
2.178737444960461
 30
0.0
 10
10.15777613228187
 20
2.181233278230744
 30
0.0
 10
10.16083446553795
 20
2.183891611496922
 30
0.0
 10
10.16387890990548
 20
2.186523555874879
 30
0.0
 10
10.1655469654189
 20
2.188069444444434
 30
0.0
 10
10.16722222222222
 20
2.189588833575221
 30
0.0
 10
10.16889140977885
 20
2.191108277981281
 30
0.0
 10
10.17500113184673
 20
2.196669388951907
 30
0.0
 10
10.18070390948045
 20
2.202636055467843
 30
0.0
 10
10.18625252045139
 20
2.208740221980305
 30
0.0
 10
10.18693724265631
 20
2.209580499736856
 30
0.0
 10
10.18777777777778
 20
2.21042216638226
 30
0.0
 10
10.18847613150633
 20
2.211236111111121
 30
0.0
 10
10.19165668698153
 20
2.214844388492768
 30
0.0
 10
10.19458029801879
 20
2.218479110623169
 30
0.0
 10
10.19748863127865
 20
2.22235827719184
 30
0.0
 10
10.19833029792406
 20
2.22319855494839
 30
0.0
 10
10.19902890901752
 20
2.224148554924391
 30
0.0
 10
10.19971363122244
 20
2.22512500000001
 30
0.0
 10
10.20555251996383
 20
2.232909665814178
 30
0.0
 10
10.21097057538251
 20
2.240966610055087
 30
0.0
 10
10.21582057525999
 20
2.249430555555566
 30
0.0
 10
10.21597613081162
 20
2.249729109833727
 30
0.0
 10
10.21610529747502
 20
2.249863832052546
 30
0.0
 10
10.21625390858238
 20
2.250136054267891
 30
0.0
 10
10.21875
 20
2.254286054163054
 30
0.0
 10
10.22097474179645
 20
2.258598554054111
 30
0.0
 10
10.22319835285139
 20
2.262884665056946
 30
0.0
 10
10.22388307505632
 20
2.264295776132409
 30
0.0
 10
10.22443307504242
 20
2.2655707761002
 30
0.0
 10
10.22513888888889
 20
2.266927720510365
 30
0.0
 10
10.22833168605504
 20
2.273736111111121
 30
0.0
 10
10.23124140820376
 20
2.280572164610122
 30
0.0
 10
10.23389974146994
 20
2.28762500000001
 30
0.0
 10
10.23485668589021
 20
2.29028327547591
 30
0.0
 10
10.23597474141752
 20
2.292913830965012
 30
0.0
 10
10.23679557473012
 20
2.295681886450641
 30
0.0
 10
10.23791501914628
 20
2.299017997477474
 30
0.0
 10
10.23902057467391
 20
2.302490219611981
 30
0.0
 10
10.2400039079824
 20
2.305799941750593
 30
0.0
 10
10.24137335239225
 20
2.310411052745217
 30
0.0
 10
10.2425
 20
2.314859663743947
 30
0.0
 10
10.24359835233604
 20
2.319580496958022
 30
0.0
 10
10.2441677967661
 20
2.322211052447124
 30
0.0
 10
10.24472335230762
 20
2.32484299682508
 30
0.0
 10
10.24527335229373
 20
2.327636052310077
 30
0.0
 10
10.24652777777778
 20
2.333740218822539
 30
0.0
 10
10.24749696334867
 20
2.340006885330897
 30
0.0
 10
10.24818168555359
 20
2.346245774062178
 30
0.0
 10
10.2483316855498
 20
2.348334662898297
 30
0.0
 10
10.24860251887629
 20
2.350423551734416
 30
0.0
 10
10.24875251887251
 20
2.352484662793459
 30
0.0
 10
10.24943724107743
 20
2.359998551492531
 30
0.0
 10
10.24999279661895
 20
2.367486111111121
 30
0.0
 10
10.24999279661895
 20
2.375
 30
0.0
 10
10.24999279661895
 20
2.375
 30
0.0
 10
10.24999279661895
 20
2.5
 30
0.0
 10
10.24999279661895
 20
2.5
 30
0.0
 10
10.24999279661895
 20
2.5
 30
0.0
 10
10.73430667327304
 20
2.5
 30
0.0
 10
10.73430667327304
 20
2.5
 30
0.0
 10
10.73430667327304
 20
2.5
 30
0.0
 10
16.25
 20
2.5
 30
0.0
 10
16.25
 20
2.5
 30
0.0
 10
16.25
 20
2.5
 30
0.0
 10
16.25
 20
2.375
 30
0.0
 10
16.25
 20
2.375
 30
0.0
 10
16.25
 20
2.367486111111121
 30
0.0
 10
16.25040694444445
 20
2.359998551492531
 30
0.0
 10
16.25111249999999
 20
2.352620773901132
 30
0.0
 10
16.25124722222222
 20
2.350423551734416
 30
0.0
 10
16.25151944444443
 20
2.348334662898297
 30
0.0
 10
16.25168194444445
 20
2.346245774062178
 30
0.0
 10
16.25235972222223
 20
2.340006885330897
 30
0.0
 10
16.25333611111111
 20
2.333876329930212
 30
0.0
 10
16.25458472222221
 20
2.32777216341775
 30
0.0
 10
16.25512638888889
 20
2.32484299682508
 30
0.0
 10
16.25569722222222
 20
2.322211052447124
 30
0.0
 10
16.25637500000001
 20
2.319308274742677
 30
0.0
 10
16.25735138888889
 20
2.314859663743947
 30
0.0
 10
16.25859861111111
 20
2.310411052745217
 30
0.0
 10
16.25984722222223
 20
2.305962441746487
 30
0.0
 10
16.26082361111111
 20
2.302490219611981
 30
0.0
 10
16.2619361111111
 20
2.299017997477474
 30
0.0
 10
16.26304861111112
 20
2.295573553120044
 30
0.0
 10
16.26388888888889
 20
2.292913830965012
 30
0.0
 10
16.26486527777777
 20
2.290419386583582
 30
0.0
 10
16.26581527777777
 20
2.287923553313299
 30
0.0
 10
16.2684736111111
 20
2.280680555555566
 30
0.0
 10
16.27151111111112
 20
2.273599942564033
 30
0.0
 10
16.27484861111111
 20
2.26665549829502
 30
0.0
 10
16.27541805555554
 20
2.265434664992527
 30
0.0
 10
16.27595972222222
 20
2.264159665024736
 30
0.0
 10
16.27666527777779
 20
2.263048553941694
 30
0.0
 10
16.27889027777777
 20
2.258598554054111
 30
0.0
 10
16.28111388888889
 20
2.254286054163054
 30
0.0
 10
16.28360972222223
 20
2.25
 30
0.0
 10
16.28360972222223
 20
2.25
 30
0.0
 10
16.28374583333334
 20
2.249863832052546
 30
0.0
 10
16.28374583333334
 20
2.249863832052546
 30
0.0
 10
16.2887375
 20
2.241237443381578
 30
0.0
 10
16.29429861111112
 20
2.232909665814178
 30
0.0
 10
16.30026527777778
 20
2.22512500000001
 30
0.0
 10
16.30097083333334
 20
2.224148554924391
 30
0.0
 10
16.3015138888889
 20
2.22319855494839
 30
0.0
 10
16.30221944444444
 20
2.22235827719184
 30
0.0
 10
16.30528472222222
 20
2.218479110623169
 30
0.0
 10
16.30818750000001
 20
2.214844388492768
 30
0.0
 10
16.31138750000001
 20
2.211236111111121
 30
0.0
 10
16.31209305555555
 20
2.21042216638226
 30
0.0
 10
16.31277083333334
 20
2.209580499736856
 30
0.0
 10
16.31347638888888
 20
2.208876333087978
 30
0.0
 10
16.31901111111112
 20
2.202636055467843
 30
0.0
 10
16.32486944444445
 20
2.196804111170725
 30
0.0
 10
16.3309736111111
 20
2.191108277981281
 30
0.0
 10
16.33262777777777
 20
2.189588833575221
 30
0.0
 10
16.33430972222221
 20
2.188069444444434
 30
0.0
 10
16.33599166666666
 20
2.186523555874879
 30
0.0
 10
16.33903055555556
 20
2.183891611496922
 30
0.0
 10
16.34209583333334
 20
2.181233278230744
 30
0.0
 10
16.34526944444443
 20
2.178737444960461
 30
0.0
 10
16.34790000000001
 20
2.176812445009091
 30
0.0
 10
16.35055833333334
 20
2.174831889503568
 30
0.0
 10
16.35321666666666
 20
2.172905500663344
 30
0.0
 10
16.35750277777778
 20
2.169868000740078
 30
0.0
 10
16.3617888888889
 20
2.166802723039735
 30
0.0
 10
16.36637361111111
 20
2.163872167558212
 30
0.0
 10
16.36970972222222
 20
2.161811056499169
 30
0.0
 10
16.37304722222221
 20
2.159722222222222
 30
0.0
 10
16.37654583333334
 20
2.157769389934603
 30
0.0
 10
16.37915000000001
 20
2.15625
 30
0.0
 10
16.38194444444444
 20
2.154704112234261
 30
0.0
 10
16.3845763888889
 20
2.153320778935873
 30
0.0
 10
16.38945833333332
 20
2.15082494566559
 30
0.0
 10
16.39442222222222
 20
2.148329112395307
 30
0.0
 10
16.39944166666666
 20
2.146104112451515
 30
0.0
 10
16.40166527777779
 20
2.145155501364368
 30
0.0
 10
16.40389027777777
 20
2.144287445830741
 30
0.0
 10
16.40625
 20
2.143337445854741
 30
0.0
 10
16.41151249999999
 20
2.141248557018621
 30
0.0
 10
16.41680277777778
 20
2.139295779290175
 30
0.0
 10
16.4222
 20
2.137505501557623
 30
0.0
 10
16.424425
 20
2.136799946019892
 30
0.0
 10
16.4265138888889
 20
2.13609439048216
 30
0.0
 10
16.4287375
 20
2.135416666666667
 30
0.0
 10
16.4354111111111
 20
2.133463834993058
 30
0.0
 10
16.44221944444444
 20
2.131673557260506
 30
0.0
 10
16.44916388888888
 20
2.130154112854446
 30
0.0
 10
16.44959861111111
 20
2.130154112854446
 30
0.0
 10
16.45014166666667
 20
2.129991612858551
 30
0.0
 10
16.45068333333332
 20
2.129855501750879
 30
0.0
 10
16.45749305555556
 20
2.128472222222222
 30
0.0
 10
16.46443750000001
 20
2.127468001811192
 30
0.0
 10
16.47140833333333
 20
2.126790224050536
 30
0.0
 10
16.47333472222221
 20
2.126519390724045
 30
0.0
 10
16.4752875
 20
2.126383279616372
 30
0.0
 10
16.47721388888888
 20
2.126112446289881
 30
0.0
 10
16.4847
 20
2.125406890752149
 30
0.0
 10
16.49221527777778
 20
2.125
 30
0.0
 10
16.5
 20
2.125
 30
0.0
 10
16.5
 20
2.125
 30
0.0
 10
16.75
 20
2.125
 30
0.0
 10
16.75
 20
2.125
 30
0.0
 10
16.75
 20
2.125
 30
0.0
 10
17.0
 20
2.125
 30
0.0
 10
17.0
 20
2.125
 30
0.0
 10
17.00762222222223
 20
2.125
 30
0.0
 10
17.01516388888889
 20
2.125406890752149
 30
0.0
 10
17.02262361111111
 20
2.126112446289881
 30
0.0
 10
17.02457638888889
 20
2.126383279616372
 30
0.0
 10
17.02653055555556
 20
2.126519390724045
 30
0.0
 10
17.02845555555556
 20
2.126790224050536
 30
0.0
 10
17.03540000000001
 20
2.127468001811192
 30
0.0
 10
17.04237222222223
 20
2.128472222222222
 30
0.0
 10
17.04918055555554
 20
2.129855501750879
 30
0.0
 10
17.0497236111111
 20
2.129991612858551
 30
0.0
 10
17.05026527777778
 20
2.130154112854446
 30
0.0
 10
17.05070000000001
 20
2.130154112854446
 30
0.0
 10
17.05761666666667
 20
2.131673557260506
 30
0.0
 10
17.06442638888888
 20
2.133463834993058
 30
0.0
 10
17.07109861111111
 20
2.135416666666667
 30
0.0
 10
17.07332361111111
 20
2.13609439048216
 30
0.0
 10
17.07541250000001
 20
2.136799946019892
 30
0.0
 10
17.07763611111111
 20
2.137505501557623
 30
0.0
 10
17.08306249999999
 20
2.139295779290175
 30
0.0
 10
17.08832499999999
 20
2.141248557018621
 30
0.0
 10
17.09361388888889
 20
2.143337445854741
 30
0.0
 10
17.095975
 20
2.144287445830741
 30
0.0
 10
17.0981986111111
 20
2.145155501364368
 30
0.0
 10
17.1004236111111
 20
2.146104112451515
 30
0.0
 10
17.10544166666667
 20
2.148329112395307
 30
0.0
 10
17.11040555555554
 20
2.15082494566559
 30
0.0
 10
17.1152888888889
 20
2.153320778935873
 30
0.0
 10
17.11791944444445
 20
2.154704112234261
 30
0.0
 10
17.12068750000001
 20
2.15625
 30
0.0
 10
17.12331805555555
 20
2.157769389934603
 30
0.0
 10
17.12679027777777
 20
2.159722222222222
 30
0.0
 10
17.13012638888889
 20
2.161811056499169
 30
0.0
 10
17.13346388888888
 20
2.163872167558212
 30
0.0
 10
17.13804861111112
 20
2.166802723039735
 30
0.0
 10
17.14236111111111
 20
2.169868000740078
 30
0.0
 10
17.14664722222222
 20
2.172905500663344
 30
0.0
 10
17.14930555555555
 20
2.174831889503568
 30
0.0
 10
17.15193750000001
 20
2.176812445009091
 30
0.0
 10
17.15456805555555
 20
2.178737444960461
 30
0.0
 10
17.15776944444443
 20
2.181233278230744
 30
0.0
 10
17.16083472222221
 20
2.183891611496922
 30
0.0
 10
17.16387222222223
 20
2.186523555874879
 30
0.0
 10
17.16555416666668
 20
2.188069444444434
 30
0.0
 10
17.1672361111111
 20
2.189588833575221
 30
0.0
 10
17.16889166666667
 20
2.191108277981281
 30
0.0
 10
17.17499444444444
 20
2.196804111170725
 30
0.0
 10
17.18082638888889
 20
2.202636055467843
 30
0.0
 10
17.18638750000001
 20
2.208876333087978
 30
0.0
 10
17.18706666666667
 20
2.209580499736856
 30
0.0
 10
17.18777083333334
 20
2.21042216638226
 30
0.0
 10
17.18847638888888
 20
2.211236111111121
 30
0.0
 10
17.19165000000001
 20
2.214844388492768
 30
0.0
 10
17.19458055555555
 20
2.218479110623169
 30
0.0
 10
17.19761805555557
 20
2.22235827719184
 30
0.0
 10
17.19832361111111
 20
2.22319855494839
 30
0.0
 10
17.19889305555555
 20
2.224148554924391
 30
0.0
 10
17.19959861111111
 20
2.22512500000001
 30
0.0
 10
17.20556666666668
 20
2.232909665814178
 30
0.0
 10
17.21109999999999
 20
2.241237443381578
 30
0.0
 10
17.21609166666667
 20
2.249863832052546
 30
0.0
 10
17.21609166666667
 20
2.249863832052546
 30
0.0
 10
17.21625416666666
 20
2.25
 30
0.0
 10
17.21625416666666
 20
2.25
 30
0.0
 10
17.21861388888889
 20
2.254286054163054
 30
0.0
 10
17.220975
 20
2.258598554054111
 30
0.0
 10
17.2231986111111
 20
2.263048553941694
 30
0.0
 10
17.22387638888889
 20
2.264159665024736
 30
0.0
 10
17.22444722222222
 20
2.265434664992527
 30
0.0
 10
17.22501666666666
 20
2.26665549829502
 30
0.0
 10
17.2283263888889
 20
2.273599942564033
 30
0.0
 10
17.23139166666667
 20
2.280680555555566
 30
0.0
 10
17.23405
 20
2.287923553313299
 30
0.0
 10
17.23499861111112
 20
2.290419386583582
 30
0.0
 10
17.235975
 20
2.292913830965012
 30
0.0
 10
17.2367888888889
 20
2.295573553120044
 30
0.0
 10
17.23792916666667
 20
2.299017997477474
 30
0.0
 10
17.2390138888889
 20
2.302490219611981
 30
0.0
 10
17.23999027777778
 20
2.305962441746487
 30
0.0
 10
17.2412375
 20
2.310411052745217
 30
0.0
 10
17.2425125
 20
2.314859663743947
 30
0.0
 10
17.2434625
 20
2.319308274742677
 30
0.0
 10
17.24416805555554
 20
2.322211052447124
 30
0.0
 10
17.2447375
 20
2.32484299682508
 30
0.0
 10
17.24528055555556
 20
2.32777216341775
 30
0.0
 10
17.24652777777778
 20
2.333876329930212
 30
0.0
 10
17.24750416666666
 20
2.340006885330897
 30
0.0
 10
17.24818194444444
 20
2.346245774062178
 30
0.0
 10
17.24831805555555
 20
2.348334662898297
 30
0.0
 10
17.24861666666667
 20
2.350423551734416
 30
0.0
 10
17.24875277777778
 20
2.352620773901132
 30
0.0
 10
17.24943055555557
 20
2.359998551492531
 30
0.0
 10
17.25
 20
2.367486111111121
 30
0.0
 10
17.25
 20
2.375
 30
0.0
 10
17.25
 20
2.384847222222232
 30
0.0
 10
17.25027083333334
 20
2.394586050618777
 30
0.0
 10
17.25084027777777
 20
2.404161050376893
 30
0.0
 10
17.25111249999999
 20
2.407497161403727
 30
0.0
 10
17.25141111111111
 20
2.410834661319414
 30
0.0
 10
17.25165416666666
 20
2.414306883453921
 30
0.0
 10
17.25206111111111
 20
2.420545772185202
 30
0.0
 10
17.25263194444445
 20
2.426649938697665
 30
0.0
 10
17.25333611111111
 20
2.432915216317168
 30
0.0
 10
17.25387916666667
 20
2.436794382885839
 30
0.0
 10
17.25428611111111
 20
2.440836049450404
 30
0.0
 10
17.25485555555555
 20
2.444715216019075
 30
0.0
 10
17.25569722222222
 20
2.450276326989701
 30
0.0
 10
17.25651111111112
 20
2.455837437960326
 30
0.0
 10
17.25751388888888
 20
2.461236111111121
 30
0.0
 10
17.25819166666666
 20
2.465277777777778
 30
0.0
 10
17.25887083333333
 20
2.469292993175966
 30
0.0
 10
17.25973888888888
 20
2.473334659740531
 30
0.0
 10
17.26082361111111
 20
2.479302715145321
 30
0.0
 10
17.26220694444444
 20
2.485134659442438
 30
0.0
 10
17.26361805555555
 20
2.490966603739555
 30
0.0
 10
17.26624861111112
 20
2.501926325684912
 30
0.0
 10
17.26901527777778
 20
2.512776325410818
 30
0.0
 10
17.27237916666667
 20
2.523491602917905
 30
0.0
 10
17.27251527777778
 20
2.523736111111121
 30
0.0
 10
17.27265138888889
 20
2.524169380678561
 30
0.0
 10
17.27265138888889
 20
2.524576325112725
 30
0.0
 10
17.27487499999999
 20
2.531520769381738
 30
0.0
 10
17.27720833333334
 20
2.538465213650751
 30
0.0
 10
17.27970416666666
 20
2.545274935700945
 30
0.0
 10
17.28027361111112
 20
2.546658268999332
 30
0.0
 10
17.28084305555555
 20
2.548041666666677
 30
0.0
 10
17.28125
 20
2.549587435592002
 30
0.0
 10
17.283475
 20
2.555419379889119
 30
0.0
 10
17.28583472222221
 20
2.561116601967417
 30
0.0
 10
17.28819444444444
 20
2.56678604626864
 30
0.0
 10
17.28887222222223
 20
2.56863049066649
 30
0.0
 10
17.28957777777777
 20
2.570284657291368
 30
0.0
 10
17.29025555555555
 20
2.571940212805101
 30
0.0
 10
17.29264305555555
 20
2.577501323775727
 30
0.0
 10
17.29513888888889
 20
2.583062434746353
 30
0.0
 10
17.29777083333334
 20
2.588595767939902
 30
0.0
 10
17.298475
 20
2.590141601234184
 30
0.0
 10
17.29915416666666
 20
2.591634656752022
 30
0.0
 10
17.29999444444444
 20
2.593044378938632
 30
0.0
 10
17.30305972222221
 20
2.599581878773481
 30
0.0
 10
17.30639583333333
 20
2.605956878612435
 30
0.0
 10
17.30970555555556
 20
2.612358267339611
 30
0.0
 10
17.31000416666666
 20
2.612630489554956
 30
0.0
 10
17.31014027777777
 20
2.61303743398912
 30
0.0
 10
17.3104111111111
 20
2.613470767311507
 30
0.0
 10
17.31401944444443
 20
2.620280489361701
 30
0.0
 10
17.3178986111111
 20
2.627088822523041
 30
0.0
 10
17.32196666666666
 20
2.633598544580814
 30
0.0
 10
17.32261805555557
 20
2.634873544548605
 30
0.0
 10
17.32345972222222
 20
2.635959655632278
 30
0.0
 10
17.32419166666667
 20
2.637206877822993
 30
0.0
 10
17.32736527777777
 20
2.642361111111111
 30
0.0
 10
17.330675
 20
2.64748743311884
 30
0.0
 10
17.33401111111112
 20
2.652506877436483
 30
0.0
 10
17.33539444444444
 20
2.654567988495526
 30
0.0
 10
17.33680555555555
 20
2.656684655108721
 30
0.0
 10
17.33832499999999
 20
2.658745766167764
 30
0.0
 10
17.34111805555555
 20
2.66278743273233
 30
0.0
 10
17.34402083333334
 20
2.666802710408673
 30
0.0
 10
17.34692361111113
 20
2.670816599196162
 30
0.0
 10
17.34860555555555
 20
2.673041666666677
 30
0.0
 10
17.35026111111112
 20
2.675401321302565
 30
0.0
 10
17.35210555555555
 20
2.677626321246357
 30
0.0
 10
17.35484444444445
 20
2.681369376707355
 30
0.0
 10
17.357775
 20
2.685004098837756
 30
0.0
 10
17.36070416666666
 20
2.688612432079935
 30
0.0
 10
17.36249444444444
 20
2.690972222222222
 30
0.0
 10
17.36428472222224
 20
2.693197154186338
 30
0.0
 10
17.3662375
 20
2.695420765241276
 30
0.0
 10
17.36933055555556
 20
2.699137431814052
 30
0.0
 10
17.37250416666666
 20
2.702772153944453
 30
0.0
 10
17.37570555555557
 20
2.706380487186632
 30
0.0
 10
17.37735972222223
 20
2.708333333333333
 30
0.0
 10
17.37915000000001
 20
2.710422153751197
 30
0.0
 10
17.38096805555556
 20
2.71237499999999
 30
0.0
 10
17.38582361111111
 20
2.717637431346702
 30
0.0
 10
17.39081527777777
 20
2.722927708990836
 30
0.0
 10
17.39583333333333
 20
2.728054097750221
 30
0.0
 10
17.3974875
 20
2.729601319933358
 30
0.0
 10
17.39916944444445
 20
2.731092986562342
 30
0.0
 10
17.40068888888888
 20
2.732638888888889
 30
0.0
 10
17.40443194444444
 20
2.736247153098803
 30
0.0
 10
17.40804027777777
 20
2.739827708563906
 30
0.0
 10
17.41194722222222
 20
2.743326319586635
 30
0.0
 10
17.41430694444443
 20
2.745551319530427
 30
0.0
 10
17.41666666666666
 20
2.747640208366546
 30
0.0
 10
17.41916250000001
 20
2.749729097202665
 30
0.0
 10
17.4222
 20
2.75249576379944
 30
0.0
 10
17.42540138888888
 20
2.755290208173291
 30
0.0
 10
17.42860277777777
 20
2.757920763662393
 30
0.0
 10
17.43126111111112
 20
2.760145763606185
 30
0.0
 10
17.43389166666667
 20
2.7623429857729
 30
0.0
 10
17.43652361111112
 20
2.76443187460902
 30
0.0
 10
17.439725
 20
2.767090207875198
 30
0.0
 10
17.4428986111111
 20
2.769449930037808
 30
0.0
 10
17.44609861111111
 20
2.771945763308092
 30
0.0
 10
17.44889305555555
 20
2.774034652144211
 30
0.0
 10
17.451525
 20
2.776095763203254
 30
0.0
 10
17.45429166666668
 20
2.778184652039373
 30
0.0
 10
17.45762777777777
 20
2.780680555555566
 30
0.0
 10
17.46096527777778
 20
2.782904096364594
 30
0.0
 10
17.46443750000001
 20
2.785291666666656
 30
0.0
 10
17.46706805555555
 20
2.787190207367429
 30
0.0
 10
17.46986249999999
 20
2.789170762872951
 30
0.0
 10
17.47265694444445
 20
2.791097222222232
 30
0.0
 10
17.47667083333332
 20
2.793592984983459
 30
0.0
 10
17.4806861111111
 20
2.796251318249637
 30
0.0
 10
17.48472777777778
 20
2.79874715151992
 30
0.0
 10
17.48752222222222
 20
2.800537429252472
 30
0.0
 10
17.49026111111112
 20
2.802354095873246
 30
0.0
 10
17.49319166666666
 20
2.804009651386978
 30
0.0
 10
17.49875277777778
 20
2.807345762413812
 30
0.0
 10
17.50431249999999
 20
2.810547151221827
 30
0.0
 10
17.50998333333334
 20
2.81361242892217
 30
0.0
 10
17.51264166666667
 20
2.81513187332823
 30
0.0
 10
17.51557083333334
 20
2.816515206626617
 30
0.0
 10
17.51833749999999
 20
2.818061039920899
 30
0.0
 10
17.52210833333334
 20
2.820122150979942
 30
0.0
 10
17.5259875
 20
2.822102706485465
 30
0.0
 10
17.53000277777778
 20
2.824029095325689
 30
0.0
 10
17.53290416666666
 20
2.825548539731749
 30
0.0
 10
17.53596944444444
 20
2.826931873030137
 30
0.0
 10
17.53900833333334
 20
2.828315206328524
 30
0.0
 10
17.54277916666666
 20
2.830131872949298
 30
0.0
 10
17.54665833333332
 20
2.831787428463031
 30
0.0
 10
17.55053749999999
 20
2.833604095083804
 30
0.0
 10
17.55360277777777
 20
2.834879095051595
 30
0.0
 10
17.55666805555554
 20
2.836236111111121
 30
0.0
 10
17.55984166666667
 20
2.837483261652475
 30
0.0
 10
17.56388333333333
 20
2.83916520605443
 30
0.0
 10
17.5678986111111
 20
2.84068465046049
 30
0.0
 10
17.57194027777778
 20
2.84220409486655
 30
0.0
 10
17.57500555555556
 20
2.843479094834341
 30
0.0
 10
17.57793472222223
 20
2.844563817029161
 30
0.0
 10
17.5809736111111
 20
2.845676317001057
 30
0.0
 10
17.58569305555557
 20
2.847330483625936
 30
0.0
 10
17.59027777777778
 20
2.848876316920218
 30
0.0
 10
17.595025
 20
2.850423539103354
 30
0.0
 10
17.59749305555556
 20
2.851237427971682
 30
0.0
 10
17.59998888888888
 20
2.852077705728233
 30
0.0
 10
17.60248472222222
 20
2.852919372373637
 30
0.0
 10
17.60972777777778
 20
2.855142983428575
 30
0.0
 10
17.61680833333333
 20
2.857069444444455
 30
0.0
 10
17.62415972222223
 20
2.859022149997246
 30
0.0
 10
17.62611249999999
 20
2.859565205539083
 30
0.0
 10
17.62817361111113
 20
2.859998538861469
 30
0.0
 10
17.63026249999999
 20
2.860567983291528
 30
0.0
 10
17.63571527777779
 20
2.861788816594021
 30
0.0
 10
17.64111388888889
 20
2.863037427673589
 30
0.0
 10
17.64664722222222
 20
2.86431242764138
 30
0.0
 10
17.64944166666666
 20
2.864854094294363
 30
0.0
 10
17.65234444444445
 20
2.8653971498362
 30
0.0
 10
17.65513750000001
 20
2.865966594266259
 30
0.0
 10
17.65999305555556
 20
2.866780483134587
 30
0.0
 10
17.66484861111111
 20
2.867784649775886
 30
0.0
 10
17.66973194444444
 20
2.868462427536542
 30
0.0
 10
17.67266111111111
 20
2.869005483078379
 30
0.0
 10
17.67567222222222
 20
2.869438816400765
 30
0.0
 10
17.67876527777778
 20
2.869845760834929
 30
0.0
 10
17.68359444444445
 20
2.870551316372661
 30
0.0
 10
17.68847638888888
 20
2.87112076080272
 30
0.0
 10
17.69333194444446
 20
2.871663816344557
 30
0.0
 10
17.69637083333333
 20
2.872070760778721
 30
0.0
 10
17.69929999999999
 20
2.872341594105213
 30
0.0
 10
17.70236527777777
 20
2.87264020520878
 30
0.0
 10
17.70762777777777
 20
2.873181871861763
 30
0.0
 10
17.71291805555554
 20
2.873616594073003
 30
0.0
 10
17.71831666666667
 20
2.873887427399495
 30
0.0
 10
17.72081111111111
 20
2.874023538507168
 30
0.0
 10
17.72346944444444
 20
2.874294371833659
 30
0.0
 10
17.72599305555557
 20
2.874430555555566
 30
0.0
 10
17.73388611111111
 20
2.874729094044899
 30
0.0
 10
17.74194305555557
 20
2.875
 30
0.0
 10
17.75
 20
2.875
 30
0.0
 10
18.02595972222222
 20
2.875
 30
0.0
 10
18.25
 20
3.098876310604687
 30
0.0
 10
18.25
 20
3.375
 30
0.0
 10
18.25
 20
3.375
 30
0.0
 10
18.25
 20
4.9375
 30
0.0
 10
18.25
 20
4.9375
 30
0.0
 10
18.25
 20
4.9375
 30
0.0
 10
18.25
 20
5.124972222222216
 30
0.0
 10
18.25
 20
5.124972222222216
 30
0.0
  0
SPLINE
  5
44
330
1F
100
AcDbEntity
  8
Layer 1
370
     0
100
AcDbSpline
210
0.0
220
0.0
230
1.0
 70
    11
 71
     3
 72
   398
 73
   394
 74
     0
 42
0.0000000001
 43
0.0000000001
 12
1.0
 22
0.0
 32
0.0
 13
1.0
 23
0.0
 33
0.0
 40
0.0
 40
0.0
 40
0.0
 40
0.0
 40
1.0
 40
1.0
 40
1.0
 40
2.0
 40
2.0
 40
2.0
 40
3.0
 40
3.0
 40
3.0
 40
4.0
 40
4.0
 40
4.0
 40
5.0
 40
5.0
 40
5.0
 40
6.0
 40
6.0
 40
6.0
 40
7.0
 40
7.0
 40
7.0
 40
8.0
 40
8.0
 40
8.0
 40
9.0
 40
9.0
 40
9.0
 40
10.0
 40
10.0
 40
10.0
 40
11.0
 40
11.0
 40
11.0
 40
12.0
 40
12.0
 40
12.0
 40
13.0
 40
13.0
 40
13.0
 40
14.0
 40
14.0
 40
14.0
 40
15.0
 40
15.0
 40
15.0
 40
16.0
 40
16.0
 40
16.0
 40
17.0
 40
17.0
 40
17.0
 40
18.0
 40
18.0
 40
18.0
 40
19.0
 40
19.0
 40
19.0
 40
20.0
 40
20.0
 40
20.0
 40
21.0
 40
21.0
 40
21.0
 40
22.0
 40
22.0
 40
22.0
 40
23.0
 40
23.0
 40
23.0
 40
24.0
 40
24.0
 40
24.0
 40
25.0
 40
25.0
 40
25.0
 40
26.0
 40
26.0
 40
26.0
 40
27.0
 40
27.0
 40
27.0
 40
28.0
 40
28.0
 40
28.0
 40
29.0
 40
29.0
 40
29.0
 40
30.0
 40
30.0
 40
30.0
 40
31.0
 40
31.0
 40
31.0
 40
32.0
 40
32.0
 40
32.0
 40
33.0
 40
33.0
 40
33.0
 40
34.0
 40
34.0
 40
34.0
 40
35.0
 40
35.0
 40
35.0
 40
36.0
 40
36.0
 40
36.0
 40
37.0
 40
37.0
 40
37.0
 40
38.0
 40
38.0
 40
38.0
 40
39.0
 40
39.0
 40
39.0
 40
40.0
 40
40.0
 40
40.0
 40
41.0
 40
41.0
 40
41.0
 40
42.0
 40
42.0
 40
42.0
 40
43.0
 40
43.0
 40
43.0
 40
44.0
 40
44.0
 40
44.0
 40
45.0
 40
45.0
 40
45.0
 40
46.0
 40
46.0
 40
46.0
 40
47.0
 40
47.0
 40
47.0
 40
48.0
 40
48.0
 40
48.0
 40
49.0
 40
49.0
 40
49.0
 40
50.0
 40
50.0
 40
50.0
 40
51.0
 40
51.0
 40
51.0
 40
52.0
 40
52.0
 40
52.0
 40
53.0
 40
53.0
 40
53.0
 40
54.0
 40
54.0
 40
54.0
 40
55.0
 40
55.0
 40
55.0
 40
56.0
 40
56.0
 40
56.0
 40
57.0
 40
57.0
 40
57.0
 40
58.0
 40
58.0
 40
58.0
 40
59.0
 40
59.0
 40
59.0
 40
60.0
 40
60.0
 40
60.0
 40
61.0
 40
61.0
 40
61.0
 40
62.0
 40
62.0
 40
62.0
 40
63.0
 40
63.0
 40
63.0
 40
64.0
 40
64.0
 40
64.0
 40
65.0
 40
65.0
 40
65.0
 40
66.0
 40
66.0
 40
66.0
 40
67.0
 40
67.0
 40
67.0
 40
68.0
 40
68.0
 40
68.0
 40
69.0
 40
69.0
 40
69.0
 40
70.0
 40
70.0
 40
70.0
 40
71.0
 40
71.0
 40
71.0
 40
72.0
 40
72.0
 40
72.0
 40
73.0
 40
73.0
 40
73.0
 40
74.0
 40
74.0
 40
74.0
 40
75.0
 40
75.0
 40
75.0
 40
76.0
 40
76.0
 40
76.0
 40
77.0
 40
77.0
 40
77.0
 40
78.0
 40
78.0
 40
78.0
 40
79.0
 40
79.0
 40
79.0
 40
80.0
 40
80.0
 40
80.0
 40
81.0
 40
81.0
 40
81.0
 40
82.0
 40
82.0
 40
82.0
 40
83.0
 40
83.0
 40
83.0
 40
84.0
 40
84.0
 40
84.0
 40
85.0
 40
85.0
 40
85.0
 40
86.0
 40
86.0
 40
86.0
 40
87.0
 40
87.0
 40
87.0
 40
88.0
 40
88.0
 40
88.0
 40
89.0
 40
89.0
 40
89.0
 40
90.0
 40
90.0
 40
90.0
 40
91.0
 40
91.0
 40
91.0
 40
92.0
 40
92.0
 40
92.0
 40
93.0
 40
93.0
 40
93.0
 40
94.0
 40
94.0
 40
94.0
 40
95.0
 40
95.0
 40
95.0
 40
96.0
 40
96.0
 40
96.0
 40
97.0
 40
97.0
 40
97.0
 40
98.0
 40
98.0
 40
98.0
 40
99.0
 40
99.0
 40
99.0
 40
100.0
 40
100.0
 40
100.0
 40
101.0
 40
101.0
 40
101.0
 40
102.0
 40
102.0
 40
102.0
 40
103.0
 40
103.0
 40
103.0
 40
104.0
 40
104.0
 40
104.0
 40
105.0
 40
105.0
 40
105.0
 40
106.0
 40
106.0
 40
106.0
 40
107.0
 40
107.0
 40
107.0
 40
108.0
 40
108.0
 40
108.0
 40
109.0
 40
109.0
 40
109.0
 40
110.0
 40
110.0
 40
110.0
 40
111.0
 40
111.0
 40
111.0
 40
112.0
 40
112.0
 40
112.0
 40
113.0
 40
113.0
 40
113.0
 40
114.0
 40
114.0
 40
114.0
 40
115.0
 40
115.0
 40
115.0
 40
116.0
 40
116.0
 40
116.0
 40
117.0
 40
117.0
 40
117.0
 40
118.0
 40
118.0
 40
118.0
 40
119.0
 40
119.0
 40
119.0
 40
120.0
 40
120.0
 40
120.0
 40
121.0
 40
121.0
 40
121.0
 40
122.0
 40
122.0
 40
122.0
 40
123.0
 40
123.0
 40
123.0
 40
124.0
 40
124.0
 40
124.0
 40
125.0
 40
125.0
 40
125.0
 40
126.0
 40
126.0
 40
126.0
 40
127.0
 40
127.0
 40
127.0
 40
128.0
 40
128.0
 40
128.0
 40
129.0
 40
129.0
 40
129.0
 40
130.0
 40
130.0
 40
130.0
 40
131.0
 40
131.0
 40
131.0
 40
131.0
 10
18.06165972222223
 20
5.22957347900097
 30
0.0
 10
18.06155
 20
5.227620701272523
 30
0.0
 10
18.06138750000001
 20
5.225694444444444
 30
0.0
 10
18.06125277777778
 20
5.223876256922671
 30
0.0
 10
18.06084583333334
 20
5.21875
 30
0.0
 10
18.06027499999999
 20
5.213595701626824
 30
0.0
 10
18.05957083333333
 20
5.208577646198036
 30
0.0
 10
18.0593263888889
 20
5.206813757353706
 30
0.0
 10
18.05919027777776
 20
5.204997090732932
 30
0.0
 10
18.05889166666667
 20
5.203179035223305
 30
0.0
 10
18.05791527777779
 20
5.196669313165532
 30
0.0
 10
18.05683055555556
 20
5.190131813330683
 30
0.0
 10
18.05541944444445
 20
5.183756813491729
 30
0.0
 10
18.05512222222223
 20
5.182915146846325
 30
0.0
 10
18.05487777777777
 20
5.181938757982102
 30
0.0
 10
18.05474166666666
 20
5.180962369117879
 30
0.0
 10
18.05346666666666
 20
5.17569986925082
 30
0.0
 10
18.05208333333333
 20
5.170409591606686
 30
0.0
 10
18.05067222222222
 20
5.165120702851405
 30
0.0
 10
18.04999444444444
 20
5.162760980688796
 30
0.0
 10
18.04915416666666
 20
5.160265147418512
 30
0.0
 10
18.048475
 20
5.157769314148228
 30
0.0
 10
18.04736388888889
 20
5.154297092013722
 30
0.0
 10
18.04625138888888
 20
5.150824869879216
 30
0.0
 10
18.04500277777778
 20
5.147216536637036
 30
0.0
 10
18.0440263888889
 20
5.144449870040262
 30
0.0
 10
18.04304999999999
 20
5.141520703447592
 30
0.0
 10
18.04196527777779
 20
5.138752647961963
 30
0.0
 10
18.0409611111111
 20
5.136392925799353
 30
0.0
 10
18.03998472222222
 20
5.134169314744415
 30
0.0
 10
18.03917083333332
 20
5.131944444444444
 30
0.0
 10
18.02943194444444
 20
5.108316537619733
 30
0.0
 10
18.017225
 20
5.086099871514307
 30
0.0
 10
18.00235972222223
 20
5.065835983137327
 30
0.0
 10
18.00070555555557
 20
5.063612372082389
 30
0.0
 10
17.99888750000001
 20
5.06152348324627
 30
0.0
 10
17.99720555555556
 20
5.059298483302478
 30
0.0
 10
17.9946013888889
 20
5.055826261167971
 30
0.0
 10
17.99194305555557
 20
5.052354039033465
 30
0.0
 10
17.9890138888889
 20
5.049017928006631
 30
0.0
 10
17.98665416666666
 20
5.046115150302183
 30
0.0
 10
17.98415833333332
 20
5.043320705928332
 30
0.0
 10
17.9815263888889
 20
5.040554039331558
 30
0.0
 10
17.97930277777778
 20
5.038058206061274
 30
0.0
 10
17.97707777777777
 20
5.035535983902769
 30
0.0
 10
17.97471805555556
 20
5.033040150632486
 30
0.0
 10
17.9717888888889
 20
5.030002650709219
 30
0.0
 10
17.96875
 20
5.027208333333343
 30
0.0
 10
17.96568472222222
 20
5.024305555555555
 30
0.0
 10
17.96359583333333
 20
5.022216539794802
 30
0.0
 10
17.96150694444446
 20
5.020155428735759
 30
0.0
 10
17.95930972222221
 20
5.018174873230237
 30
0.0
 10
17.9559736111111
 20
5.015135984418117
 30
0.0
 10
17.95250138888888
 20
5.012342928933119
 30
0.0
 10
17.94916388888888
 20
5.009576262336345
 30
0.0
 10
17.94710277777777
 20
5.007758206826717
 30
0.0
 10
17.94501388888888
 20
5.005967929094165
 30
0.0
 10
17.94292500000001
 20
5.004285984692211
 30
0.0
 10
17.93929027777777
 20
5.001519318095435
 30
0.0
 10
17.93554722222221
 20
4.99888737371748
 30
0.0
 10
17.93180277777777
 20
4.996120707120705
 30
0.0
 10
17.92971527777778
 20
4.994574873826423
 30
0.0
 10
17.92765277777777
 20
4.993055555555555
 30
0.0
 10
17.9255638888889
 20
4.991672096121975
 30
0.0
 10
17.92168472222223
 20
4.989013888888899
 30
0.0
 10
17.91777916666666
 20
4.986517929585514
 30
0.0
 10
17.9137375
 20
4.984158207422903
 30
0.0
 10
17.9116486111111
 20
4.982774874124516
 30
0.0
 10
17.90942361111113
 20
4.981391540826128
 30
0.0
 10
17.90722638888888
 20
4.98014292974656
 30
0.0
 10
17.90318472222222
 20
4.977783207583949
 30
0.0
 10
17.89916944444445
 20
4.975558207640157
 30
0.0
 10
17.89499305555556
 20
4.973334596585219
 30
0.0
 10
17.8934736111111
 20
4.972629041047488
 30
0.0
 10
17.89206250000001
 20
4.971652777777788
 30
0.0
 10
17.89054305555555
 20
4.970974874422609
 30
0.0
 10
17.89054305555555
 20
4.970974874422609
 30
0.0
 10
17.89054305555555
 20
4.5
 30
0.0
 10
17.89054305555555
 20
4.5
 30
0.0
 10
17.89054305555555
 20
4.5
 30
0.0
 10
17.89054305555555
 20
4.375
 30
0.0
 10
17.89054305555555
 20
4.375
 30
0.0
 10
17.89054305555555
 20
4.375
 30
0.0
 10
17.60929305555555
 20
4.375
 30
0.0
 10
17.60929305555555
 20
4.375
 30
0.0
 10
17.60929305555555
 20
4.375
 30
0.0
 10
17.60929305555555
 20
4.5
 30
0.0
 10
17.60929305555555
 20
4.5
 30
0.0
 10
17.60929305555555
 20
4.5
 30
0.0
 10
17.60929305555555
 20
4.780816545893079
 30
0.0
 10
17.60929305555555
 20
4.780816545893079
 30
0.0
 10
17.60929305555555
 20
4.780816545893079
 30
0.0
 10
17.60929305555555
 20
4.970974874422609
 30
0.0
 10
17.60929305555555
 20
4.970974874422609
 30
0.0
 10
17.60929305555555
 20
4.970974874422609
 30
0.0
 10
17.60929305555555
 20
5.075005427350131
 30
0.0
 10
17.60929305555555
 20
5.075005427350131
 30
0.0
 10
17.60929305555555
 20
5.102484593322616
 30
0.0
 10
17.58680555555555
 20
5.124972222222216
 30
0.0
 10
17.55929861111111
 20
5.124972222222216
 30
0.0
 10
17.55929861111111
 20
5.124972222222216
 30
0.0
 10
17.48041388888888
 20
5.124972222222216
 30
0.0
 10
17.48041388888888
 20
5.124972222222216
 30
0.0
 10
17.47498888888888
 20
5.124972222222216
 30
0.0
 10
17.46972638888888
 20
5.123887370559714
 30
0.0
 10
17.46470833333334
 20
5.122205426157759
 30
0.0
 10
17.46332499999999
 20
5.12543459274285
 30
0.0
 10
17.46207638888889
 20
5.128742925992608
 30
0.0
 10
17.46069305555557
 20
5.131944444444444
 30
0.0
 10
17.45985277777777
 20
5.134169314744415
 30
0.0
 10
17.45887638888889
 20
5.136392925799353
 30
0.0
 10
17.45790000000001
 20
5.138752647961963
 30
0.0
 10
17.45678749999999
 20
5.141520703447592
 30
0.0
 10
17.45583749999999
 20
5.144449870040262
 30
0.0
 10
17.45486111111111
 20
5.147216536637036
 30
0.0
 10
17.45361388888889
 20
5.150824869879216
 30
0.0
 10
17.45250138888888
 20
5.154297092013722
 30
0.0
 10
17.45138888888889
 20
5.157769314148228
 30
0.0
 10
17.4507111111111
 20
5.160265147418512
 30
0.0
 10
17.44984305555555
 20
5.162760980688796
 30
0.0
 10
17.44919166666667
 20
5.165120702851405
 30
0.0
 10
17.44778055555556
 20
5.170409591606686
 30
0.0
 10
17.44639722222223
 20
5.17569986925082
 30
0.0
 10
17.44512222222223
 20
5.180962369117879
 30
0.0
 10
17.4449875
 20
5.181938757982102
 30
0.0
 10
17.44474305555557
 20
5.182915146846325
 30
0.0
 10
17.44444444444444
 20
5.183756813491729
 30
0.0
 10
17.44303333333333
 20
5.190131813330683
 30
0.0
 10
17.4419486111111
 20
5.196669313165532
 30
0.0
 10
17.44097222222222
 20
5.203179035223305
 30
0.0
 10
17.44067361111113
 20
5.204997090732932
 30
0.0
 10
17.4405388888889
 20
5.206813757353706
 30
0.0
 10
17.44029444444444
 20
5.208577646198036
 30
0.0
 10
17.4395888888889
 20
5.213595701626824
 30
0.0
 10
17.43901944444443
 20
5.21875
 30
0.0
 10
17.43861249999999
 20
5.223876256922671
 30
0.0
 10
17.43847638888888
 20
5.225694444444444
 30
0.0
 10
17.43831388888889
 20
5.227620701272523
 30
0.0
 10
17.43817777777778
 20
5.22957347900097
 30
0.0
 10
17.43777083333334
 20
5.23638181216231
 30
0.0
 10
17.4375
 20
5.243055555555555
 30
0.0
 10
17.4375
 20
5.25
 30
0.0
 10
17.4375
 20
5.256673478316366
 30
0.0
 10
17.43763611111111
 20
5.263183200374138
 30
0.0
 10
17.43806944444443
 20
5.26985681131666
 30
0.0
 10
17.43817777777778
 20
5.269992922424333
 30
0.0
 10
17.43817777777778
 20
5.270127644643152
 30
0.0
 10
17.43817777777778
 20
5.270263888888899
 30
0.0
 10
17.43847638888888
 20
5.274712366749554
 30
0.0
 10
17.43874722222222
 20
5.279024866640611
 30
0.0
 10
17.43915416666666
 20
5.283474866528195
 30
0.0
 10
17.43942638888888
 20
5.285399866479565
 30
0.0
 10
17.439725
 20
5.287354033096865
 30
0.0
 10
17.43985972222223
 20
5.289170699717639
 30
0.0
 10
17.43999583333334
 20
5.289577644151803
 30
0.0
 10
17.43999583333334
 20
5.289848477478295
 30
0.0
 10
17.44015833333333
 20
5.290283199689535
 30
0.0
 10
17.44067361111113
 20
5.295274866230102
 30
0.0
 10
17.44151527777777
 20
5.300401254989487
 30
0.0
 10
17.44238333333333
 20
5.305419310418276
 30
0.0
 10
17.44262638888889
 20
5.306531810390172
 30
0.0
 10
17.44276249999999
 20
5.307752643692664
 30
0.0
 10
17.44303333333333
 20
5.308891532552782
 30
0.0
 10
17.44761805555557
 20
5.332627643064269
 30
0.0
 10
17.45486111111111
 20
5.355413753599755
 30
0.0
 10
17.4643013888889
 20
5.376926253056303
 30
0.0
 10
17.46443750000001
 20
5.377088753052198
 30
0.0
 10
17.46457222222221
 20
5.377224864159871
 30
0.0
 10
17.46457222222221
 20
5.377359586378689
 30
0.0
 10
17.46679722222221
 20
5.382351252919256
 30
0.0
 10
17.46902083333334
 20
5.387070697244477
 30
0.0
 10
17.47151666666665
 20
5.391817919346774
 30
0.0
 10
17.4717888888889
 20
5.392497085996284
 30
0.0
 10
17.47208611111111
 20
5.393038752649267
 30
0.0
 10
17.47252083333334
 20
5.393744308186998
 30
0.0
 10
17.47474444444444
 20
5.398058196966909
 30
0.0
 10
17.47710555555555
 20
5.402506807965639
 30
0.0
 10
17.47957361111111
 20
5.406819444444434
 30
0.0
 10
17.47998055555556
 20
5.407497085617352
 30
0.0
 10
17.48041388888888
 20
5.408176252266862
 30
0.0
 10
17.48084861111111
 20
5.408881807804593
 30
0.0
 10
17.49986388888889
 20
5.44083597366403
 30
0.0
 10
17.52430555555555
 20
5.469184584058994
 30
0.0
 10
17.55289722222222
 20
5.492512361247464
 30
0.0
 10
17.55319583333332
 20
5.492784583462808
 30
0.0
 10
17.55333055555555
 20
5.492919305681627
 30
0.0
 10
17.55360277777777
 20
5.493055555555555
 30
0.0
 10
17.55761666666667
 20
5.496256805597315
 30
0.0
 10
17.56165972222223
 20
5.499430555555565
 30
0.0
 10
17.56583611111111
 20
5.502495694328596
 30
0.0
 10
17.56681249999999
 20
5.503201249866328
 30
0.0
 10
17.56776249999999
 20
5.503879027626984
 30
0.0
 10
17.56873888888888
 20
5.504584583164715
 30
0.0
 10
17.5722111111111
 20
5.507080416434999
 30
0.0
 10
17.57581944444446
 20
5.50944013859761
 30
0.0
 10
17.57929166666668
 20
5.51179986076022
 30
0.0
 10
17.580675
 20
5.512641527405624
 30
0.0
 10
17.58192222222222
 20
5.513455416273953
 30
0.0
 10
17.58319722222222
 20
5.51432347180758
 30
0.0
 10
17.58666944444445
 20
5.516384582866622
 30
0.0
 10
17.59014166666667
 20
5.518473471702742
 30
0.0
 10
17.59361388888889
 20
5.520534582761784
 30
0.0
 10
17.59486249999999
 20
5.521240138299516
 30
0.0
 10
17.59624583333334
 20
5.522080416056067
 30
0.0
 10
17.59762916666667
 20
5.522922082701471
 30
0.0
 10
17.60126388888888
 20
5.524874999999989
 30
0.0
 10
17.60498055555556
 20
5.526801249270142
 30
0.0
 10
17.60875138888888
 20
5.528754026998588
 30
0.0
 10
17.60986388888889
 20
5.529323471428648
 30
0.0
 10
17.61111111111111
 20
5.530002638078157
 30
0.0
 10
17.61238611111111
 20
5.530680555555565
 30
0.0
 10
17.61694305555557
 20
5.532904026893751
 30
0.0
 10
17.62152777777778
 20
5.53499291572987
 30
0.0
 10
17.62611249999999
 20
5.53694708234717
 30
0.0
 10
17.62665416666666
 20
5.537217915673661
 30
0.0
 10
17.62706111111111
 20
5.537354026781334
 30
0.0
 10
17.62752222222222
 20
5.537651248996048
 30
0.0
 10
17.63262222222223
 20
5.53987624893984
 30
0.0
 10
17.63807499999999
 20
5.541937359998883
 30
0.0
 10
17.64333749999999
 20
5.543891526616183
 30
0.0
 10
17.64417916666667
 20
5.544162359942675
 30
0.0
 10
17.64485694444445
 20
5.54432485993857
 30
0.0
 10
17.64569722222222
 20
5.544569444444455
 30
0.0
 10
17.65011944444445
 20
5.546223471001718
 30
0.0
 10
17.65459583333334
 20
5.547634582077181
 30
0.0
 10
17.65917916666667
 20
5.549017915375568
 30
0.0
 10
17.66083472222221
 20
5.549587359805628
 30
0.0
 10
17.66248888888888
 20
5.549994304239791
 30
0.0
 10
17.66417083333332
 20
5.550401248673956
 30
0.0
 10
17.66794166666667
 20
5.551513888888899
 30
0.0
 10
17.67152222222222
 20
5.552490137510075
 30
0.0
 10
17.67526527777778
 20
5.553466526374298
 30
0.0
 10
17.67721944444444
 20
5.553873470808463
 30
0.0
 10
17.67930833333333
 20
5.554442915238521
 30
0.0
 10
17.68123333333334
 20
5.554849859672686
 30
0.0
 10
17.68486805555555
 20
5.55569152631809
 30
0.0
 10
17.68831388888889
 20
5.556369304078745
 30
0.0
 10
17.69178611111111
 20
5.557074859616478
 30
0.0
 10
17.69401111111112
 20
5.557345692942969
 30
0.0
 10
17.69609861111111
 20
5.557780415154209
 30
0.0
 10
17.69821527777779
 20
5.558187359588374
 30
0.0
 10
17.70179583333334
 20
5.558756804018432
 30
0.0
 10
17.70540416666666
 20
5.559298470671416
 30
0.0
 10
17.70901111111112
 20
5.559705415105579
 30
0.0
 10
17.71112777777777
 20
5.560004026209147
 30
0.0
 10
17.71321666666666
 20
5.560274859535639
 30
0.0
 10
17.71527777777778
 20
5.560547081750983
 30
0.0
 10
17.71915694444445
 20
5.560954026185148
 30
0.0
 10
17.72303611111111
 20
5.56122485951164
 30
0.0
 10
17.72694166666666
 20
5.561523470615207
 30
0.0
 10
17.72886805555557
 20
5.561685970611102
 30
0.0
 10
17.7306861111111
 20
5.561930555555565
 30
0.0
 10
17.73250277777778
 20
5.561930555555565
 30
0.0
 10
17.73833611111111
 20
5.562363748371758
 30
0.0
 10
17.74403194444444
 20
5.5625
 30
0.0
 10
17.75
 20
5.5625
 30
0.0
 10
17.75569722222222
 20
5.5625
 30
0.0
 10
17.76123055555556
 20
5.562363748371758
 30
0.0
 10
17.76692777777778
 20
5.562066526157044
 30
0.0
 10
17.76890694444445
 20
5.561930555555565
 30
0.0
 10
17.77083333333333
 20
5.561685970611102
 30
0.0
 10
17.77278611111112
 20
5.561523470615207
 30
0.0
 10
17.77636666666667
 20
5.561387359507535
 30
0.0
 10
17.78000277777778
 20
5.561116526181043
 30
0.0
 10
17.78360972222223
 20
5.560681803969802
 30
0.0
 10
17.78596944444444
 20
5.560410970643312
 30
0.0
 10
17.78835694444443
 20
5.56014013731682
 30
0.0
 10
17.79071666666666
 20
5.559705415105579
 30
0.0
 10
17.79372777777778
 20
5.559298470671416
 30
0.0
 10
17.79682083333334
 20
5.558999999999994
 30
0.0
 10
17.79985833333333
 20
5.558458333333343
 30
0.0
 10
17.80249027777778
 20
5.558051248480701
 30
0.0
 10
17.80514861111111
 20
5.557481804050641
 30
0.0
 10
17.80761666666666
 20
5.557074859616478
 30
0.0
 10
17.8104111111111
 20
5.55653180407464
 30
0.0
 10
17.81317777777778
 20
5.556098470752254
 30
0.0
 10
17.81597222222222
 20
5.555419304102744
 30
0.0
 10
17.81863055555555
 20
5.554849859672686
 30
0.0
 10
17.82137083333333
 20
5.554172081912029
 30
0.0
 10
17.82402916666666
 20
5.553602637481971
 30
0.0
 10
17.826525
 20
5.552897081944239
 30
0.0
 10
17.82904722222222
 20
5.552354026402402
 30
0.0
 10
17.83151527777778
 20
5.551649859753525
 30
0.0
 10
17.83444583333332
 20
5.550835970885196
 30
0.0
 10
17.8372125
 20
5.550130415347464
 30
0.0
 10
17.83997916666668
 20
5.54928874870206
 30
0.0
 10
17.84220416666666
 20
5.548611111111111
 30
0.0
 10
17.84442777777778
 20
5.547905415403672
 30
0.0
 10
17.84665277777779
 20
5.547227637643017
 30
0.0
 10
17.84971805555556
 20
5.546223471001718
 30
0.0
 10
17.85264722222223
 20
5.545138888888888
 30
0.0
 10
17.85554999999999
 20
5.544162359942675
 30
0.0
 10
17.85750277777778
 20
5.543456804404943
 30
0.0
 10
17.85932083333334
 20
5.542779026644287
 30
0.0
 10
17.8612736111111
 20
5.542101248883632
 30
0.0
 10
17.86444722222222
 20
5.540826248915841
 30
0.0
 10
17.86764861111111
 20
5.53955124894805
 30
0.0
 10
17.87082222222221
 20
5.538194444444444
 30
0.0
 10
17.87209722222221
 20
5.537651248996048
 30
0.0
 10
17.87331805555555
 20
5.537081804565989
 30
0.0
 10
17.87456666666667
 20
5.53651236013593
 30
0.0
 10
17.87763194444445
 20
5.535265137945215
 30
0.0
 10
17.88069722222222
 20
5.534016526865646
 30
0.0
 10
17.88359861111111
 20
5.532633193567259
 30
0.0
 10
17.88400555555555
 20
5.532362360240768
 30
0.0
 10
17.88457638888889
 20
5.5320637491372
 30
0.0
 10
17.88511805555557
 20
5.531792915810708
 30
0.0
 10
17.89054305555555
 20
5.529160971432753
 30
0.0
 10
17.89599583333332
 20
5.526231804840083
 30
0.0
 10
17.90136666666666
 20
5.523329027135635
 30
0.0
 10
17.90196388888888
 20
5.523058193809144
 30
0.0
 10
17.90264166666667
 20
5.522759582705576
 30
0.0
 10
17.90332083333333
 20
5.522352638271412
 30
0.0
 10
17.90456805555555
 20
5.52164708273368
 30
0.0
 10
17.90568055555557
 20
5.520833333333333
 30
0.0
 10
17.90692777777778
 20
5.520127638327621
 30
0.0
 10
17.91319444444444
 20
5.516547082862517
 30
0.0
 10
17.91932499999999
 20
5.512776249624443
 30
0.0
 10
17.92526527777778
 20
5.508598471952205
 30
0.0
 10
17.92678472222224
 20
5.507649860865058
 30
0.0
 10
17.92835833333334
 20
5.50651097200494
 30
0.0
 10
17.92987777777777
 20
5.505424860921266
 30
0.0
 10
17.93611666666667
 20
5.500976249922537
 30
0.0
 10
17.94221944444444
 20
5.496527777777778
 30
0.0
 10
17.94805277777778
 20
5.491672083490912
 30
0.0
 10
17.94832361111111
 20
5.491373472387346
 30
0.0
 10
17.94859444444445
 20
5.491237361279673
 30
0.0
 10
17.94902916666666
 20
5.490966527953181
 30
0.0
 10
17.94932777777777
 20
5.490695694626689
 30
0.0
 10
17.94959861111111
 20
5.490423472411345
 30
0.0
 10
17.94984305555555
 20
5.490126250196631
 30
0.0
 10
17.95762777777776
 20
5.483615139250004
 30
0.0
 10
17.96514166666667
 20
5.47667069498099
 30
0.0
 10
17.97235833333333
 20
5.46942763960841
 30
0.0
 10
17.97262916666667
 20
5.469184584058994
 30
0.0
 10
17.97303611111111
 20
5.46875
 30
0.0
 10
17.97333472222221
 20
5.468479028521263
 30
0.0
 10
17.97387638888889
 20
5.467909584091204
 30
0.0
 10
17.97444722222222
 20
5.467366528549367
 30
0.0
 10
17.97501666666666
 20
5.466797084119308
 30
0.0
 10
17.9815263888889
 20
5.459852639850295
 30
0.0
 10
17.98779305555556
 20
5.452772084473609
 30
0.0
 10
17.99373333333334
 20
5.445284584662759
 30
0.0
 10
17.99484583333333
 20
5.444010973583823
 30
0.0
 10
17.99582222222221
 20
5.442762362504254
 30
0.0
 10
17.9968263888889
 20
5.441379029205867
 30
0.0
 10
18.00263194444445
 20
5.433891529395017
 30
0.0
 10
18.00805694444443
 20
5.426269307365348
 30
0.0
 10
18.01318333333332
 20
5.418185974236217
 30
0.0
 10
18.01361805555555
 20
5.41764291869438
 30
0.0
 10
18.01418750000001
 20
5.417073474264321
 30
0.0
 10
18.01443194444444
 20
5.416395696503665
 30
0.0
 10
18.01500138888888
 20
5.415554029858261
 30
0.0
 10
18.01540833333332
 20
5.414713752101711
 30
0.0
 10
18.01595
 20
5.414008196563978
 30
0.0
 10
18.01736111111111
 20
5.411648474401368
 30
0.0
 10
18.01874444444444
 20
5.409288752238758
 30
0.0
 10
18.02015555555555
 20
5.406927641187293
 30
0.0
 10
18.02137638888889
 20
5.40486653012825
 30
0.0
 10
18.0226236111111
 20
5.402641530184458
 30
0.0
 10
18.02387222222223
 20
5.40041791912952
 30
0.0
 10
18.02791388888889
 20
5.393038752649267
 30
0.0
 10
18.03165694444445
 20
5.385552641727271
 30
0.0
 10
18.03499305555556
 20
5.377902777777788
 30
0.0
 10
18.03515694444445
 20
5.377495697486362
 30
0.0
 10
18.03529166666666
 20
5.377224864159871
 30
0.0
 10
18.03553611111111
 20
5.376926253056303
 30
0.0
 10
18.04500277777778
 20
5.355413753599755
 30
0.0
 10
18.05221944444444
 20
5.332627643064269
 30
0.0
 10
18.05683055555556
 20
5.308891532552782
 30
0.0
 10
18.0571013888889
 20
5.307752643692664
 30
0.0
 10
18.05720972222222
 20
5.306531810390172
 30
0.0
 10
18.05748194444444
 20
5.305419310418276
 30
0.0
 10
18.05832222222221
 20
5.300401254989487
 30
0.0
 10
18.05919027777776
 20
5.295274866230102
 30
0.0
 10
18.05970555555556
 20
5.290283199689535
 30
0.0
 10
18.05984166666667
 20
5.289848477478295
 30
0.0
 10
18.05984166666667
 20
5.289577644151803
 30
0.0
 10
18.06000416666666
 20
5.289170699717639
 30
0.0
 10
18.06014027777777
 20
5.287354033096865
 30
0.0
 10
18.0604111111111
 20
5.285399866479565
 30
0.0
 10
18.06068194444444
 20
5.283474866528195
 30
0.0
 10
18.06108888888889
 20
5.279024866640611
 30
0.0
 10
18.06138750000001
 20
5.274712366749554
 30
0.0
 10
18.06165972222223
 20
5.270263888888899
 30
0.0
 10
18.06165972222223
 20
5.270127644643152
 30
0.0
 10
18.06165972222223
 20
5.269992922424333
 30
0.0
 10
18.06179444444443
 20
5.26985681131666
 30
0.0
 10
18.0622013888889
 20
5.263183200374138
 30
0.0
 10
18.0625
 20
5.256673478316366
 30
0.0
 10
18.0625
 20
5.25
 30
0.0
 10
18.0625
 20
5.243055555555555
 30
0.0
 10
18.06206666666667
 20
5.23638181216231
 30
0.0
 10
18.06165972222223
 20
5.22957347900097
 30
0.0
  0
POLYLINE
  5
45
330
1F
100
AcDbEntity
  8
Layer 1
370
     0
100
AcDb2dPolyline
 66
     1
 10
0.0
 20
0.0
 30
0.0
  0
VERTEX
  5
46
330
45
100
AcDbEntity
  8
Layer 1
370
     0
100
AcDbVertex
100
AcDb2dVertex
 10
9.15628310202616
 20
10.55826778883127
 30
0.0
  0
VERTEX
  5
47
330
45
100
AcDbEntity
  8
Layer 1
370
     0
100
AcDbVertex
100
AcDb2dVertex
 10
9.15628310202616
 20
12.55826079386275
 30
0.0
  0
VERTEX
  5
48
330
45
100
AcDbEntity
  8
Layer 1
370
     0
100
AcDbVertex
100
AcDb2dVertex
 10
9.15628310202616
 20
14.05826805555556
 30
0.0
  0
VERTEX
  5
49
330
45
100
AcDbEntity
  8
Layer 1
370
     0
100
AcDbVertex
100
AcDb2dVertex
 10
9.15628310202616
 20
16.05826111111111
 30
0.0
  0
VERTEX
  5
4A
330
45
100
AcDbEntity
  8
Layer 1
370
     0
100
AcDbVertex
100
AcDb2dVertex
 10
9.15628310202616
 20
17.52701111111111
 30
0.0
  0
VERTEX
  5
4B
330
45
100
AcDbEntity
  8
Layer 1
370
     0
100
AcDbVertex
100
AcDb2dVertex
 10
0.9373986111111081
 20
17.52701111111111
 30
0.0
  0
VERTEX
  5
4C
330
45
100
AcDbEntity
  8
Layer 1
370
     0
100
AcDbVertex
100
AcDb2dVertex
 10
0.9373986111111081
 20
17.80826111111111
 30
0.0
  0
VERTEX
  5
4D
330
45
100
AcDbEntity
  8
Layer 1
370
     0
100
AcDbVertex
100
AcDb2dVertex
 10
0.3748986111111081
 20
17.80826111111111
 30
0.0
  0
VERTEX
  5
4E
330
45
100
AcDbEntity
  8
Layer 1
370
     0
100
AcDbVertex
100
AcDb2dVertex
 10
0.3748986111111081
 20
17.52701111111111
 30
0.0
  0
VERTEX
  5
4F
330
45
100
AcDbEntity
  8
Layer 1
370
     0
100
AcDbVertex
100
AcDb2dVertex
 10
0.1562833333333376
 20
17.52701111111111
 30
0.0
  0
VERTEX
  5
50
330
45
100
AcDbEntity
  8
Layer 1
370
     0
100
AcDbVertex
100
AcDb2dVertex
 10
0.1562833333333376
 20
5.589517914352452
 30
0.0
  0
VERTEX
  5
51
330
45
100
AcDbEntity
  8
Layer 1
370
     0
100
AcDbVertex
100
AcDb2dVertex
 10
0.3748986111111081
 20
5.589517914352452
 30
0.0
  0
VERTEX
  5
52
330
45
100
AcDbEntity
  8
Layer 1
370
     0
100
AcDbVertex
100
AcDb2dVertex
 10
0.3748986111111081
 20
5.308267921457425
 30
0.0
  0
VERTEX
  5
53
330
45
100
AcDbEntity
  8
Layer 1
370
     0
100
AcDbVertex
100
AcDb2dVertex
 10
0.9373986111111081
 20
5.308267921457425
 30
0.0
  0
VERTEX
  5
54
330
45
100
AcDbEntity
  8
Layer 1
370
     0
100
AcDbVertex
100
AcDb2dVertex
 10
0.9373986111111081
 20
5.589517914352452
 30
0.0
  0
VERTEX
  5
55
330
45
100
AcDbEntity
  8
Layer 1
370
     0
100
AcDbVertex
100
AcDb2dVertex
 10
9.15628310202616
 20
5.589517914352452
 30
0.0
  0
VERTEX
  5
56
330
45
100
AcDbEntity
  8
Layer 1
370
     0
100
AcDbVertex
100
AcDb2dVertex
 10
9.15628310202616
 20
7.058267877248706
 30
0.0
  0
VERTEX
  5
57
330
45
100
AcDbEntity
  8
Layer 1
370
     0
100
AcDbVertex
100
AcDb2dVertex
 10
9.15628310202616
 20
9.058260882280187
 30
0.0
  0
VERTEX
  5
58
330
45
100
AcDbEntity
  8
Layer 1
370
     0
100
AcDbVertex
100
AcDb2dVertex
 10
9.15628310202616
 20
10.55826778883127
 30
0.0
  0
SEQEND
  5
59
330
45
100
AcDbEntity
  8
Layer 1
370
     0
  0
POLYLINE
  5
5A
330
1F
100
AcDbEntity
  8
Layer 1
370
     0
100
AcDb2dPolyline
 66
     1
 10
0.0
 20
0.0
 30
0.0
  0
VERTEX
  5
5B
330
5A
100
AcDbEntity
  8
Layer 1
370
     0
100
AcDbVertex
100
AcDb2dVertex
 10
8.9374053297777
 20
10.52701778962071
 30
0.0
  0
VERTEX
  5
5C
330
5A
100
AcDbEntity
  8
Layer 1
370
     0
100
AcDbVertex
100
AcDb2dVertex
 10
8.624905337672114
 20
10.52701778962071
 30
0.0
  0
VERTEX
  5
5D
330
5A
100
AcDbEntity
  8
Layer 1
370
     0
100
AcDbVertex
100
AcDb2dVertex
 10
8.624905337672114
 20
12.58951079307331
 30
0.0
  0
VERTEX
  5
5E
330
5A
100
AcDbEntity
  8
Layer 1
370
     0
100
AcDbVertex
100
AcDb2dVertex
 10
8.9374053297777
 20
12.58951079307331
 30
0.0
  0
VERTEX
  5
5F
330
5A
100
AcDbEntity
  8
Layer 1
370
     0
100
AcDbVertex
100
AcDb2dVertex
 10
8.9374053297777
 20
10.52701778962071
 30
0.0
  0
SEQEND
  5
60
330
5A
100
AcDbEntity
  8
Layer 1
370
     0
  0
POLYLINE
  5
61
330
1F
100
AcDbEntity
  8
Layer 1
370
     0
100
AcDb2dPolyline
 66
     1
 10
0.0
 20
0.0
 30
0.0
  0
VERTEX
  5
62
330
61
100
AcDbEntity
  8
Layer 1
370
     0
100
AcDbVertex
100
AcDb2dVertex
 10
16.5
 20
9.0
 30
0.0
  0
VERTEX
  5
63
330
61
100
AcDbEntity
  8
Layer 1
370
     0
100
AcDbVertex
100
AcDb2dVertex
 10
16.5
 20
10.50000667919196
 30
0.0
  0
VERTEX
  5
64
330
61
100
AcDbEntity
  8
Layer 1
370
     0
100
AcDbVertex
100
AcDb2dVertex
 10
16.75
 20
10.50000667919196
 30
0.0
  0
VERTEX
  5
65
330
61
100
AcDbEntity
  8
Layer 1
370
     0
100
AcDbVertex
100
AcDb2dVertex
 10
16.75
 20
12.5
 30
0.0
  0
VERTEX
  5
66
330
61
100
AcDbEntity
  8
Layer 1
370
     0
100
AcDbVertex
100
AcDb2dVertex
 10
16.5
 20
12.5
 30
0.0
  0
VERTEX
  5
67
330
61
100
AcDbEntity
  8
Layer 1
370
     0
100
AcDbVertex
100
AcDb2dVertex
 10
16.5
 20
14.00000694444445
 30
0.0
  0
VERTEX
  5
68
330
61
100
AcDbEntity
  8
Layer 1
370
     0
100
AcDbVertex
100
AcDb2dVertex
 10
16.75
 20
14.00000694444445
 30
0.0
  0
VERTEX
  5
69
330
61
100
AcDbEntity
  8
Layer 1
370
     0
100
AcDbVertex
100
AcDb2dVertex
 10
16.75
 20
16.0
 30
0.0
  0
VERTEX
  5
6A
330
61
100
AcDbEntity
  8
Layer 1
370
     0
100
AcDbVertex
100
AcDb2dVertex
 10
16.5
 20
16.0
 30
0.0
  0
VERTEX
  5
6B
330
61
100
AcDbEntity
  8
Layer 1
370
     0
100
AcDbVertex
100
AcDb2dVertex
 10
16.5
 20
17.5
 30
0.0
  0
VERTEX
  5
6C
330
61
100
AcDbEntity
  8
Layer 1
370
     0
100
AcDbVertex
100
AcDb2dVertex
 10
9.5
 20
17.5
 30
0.0
  0
VERTEX
  5
6D
330
61
100
AcDbEntity
  8
Layer 1
370
     0
100
AcDbVertex
100
AcDb2dVertex
 10
9.5
 20
16.0
 30
0.0
  0
VERTEX
  5
6E
330
61
100
AcDbEntity
  8
Layer 1
370
     0
100
AcDbVertex
100
AcDb2dVertex
 10
9.25
 20
16.0
 30
0.0
  0
VERTEX
  5
6F
330
61
100
AcDbEntity
  8
Layer 1
370
     0
100
AcDbVertex
100
AcDb2dVertex
 10
9.25
 20
14.00000694444445
 30
0.0
  0
VERTEX
  5
70
330
61
100
AcDbEntity
  8
Layer 1
370
     0
100
AcDbVertex
100
AcDb2dVertex
 10
9.5
 20
14.00000694444445
 30
0.0
  0
VERTEX
  5
71
330
61
100
AcDbEntity
  8
Layer 1
370
     0
100
AcDbVertex
100
AcDb2dVertex
 10
9.5
 20
12.5
 30
0.0
  0
VERTEX
  5
72
330
61
100
AcDbEntity
  8
Layer 1
370
     0
100
AcDbVertex
100
AcDb2dVertex
 10
9.25
 20
12.5
 30
0.0
  0
VERTEX
  5
73
330
61
100
AcDbEntity
  8
Layer 1
370
     0
100
AcDbVertex
100
AcDb2dVertex
 10
9.25
 20
10.50000667919196
 30
0.0
  0
VERTEX
  5
74
330
61
100
AcDbEntity
  8
Layer 1
370
     0
100
AcDbVertex
100
AcDb2dVertex
 10
9.5
 20
10.50000667919196
 30
0.0
  0
VERTEX
  5
75
330
61
100
AcDbEntity
  8
Layer 1
370
     0
100
AcDbVertex
100
AcDb2dVertex
 10
9.5
 20
9.0
 30
0.0
  0
VERTEX
  5
76
330
61
100
AcDbEntity
  8
Layer 1
370
     0
100
AcDbVertex
100
AcDb2dVertex
 10
9.25
 20
9.0
 30
0.0
  0
VERTEX
  5
77
330
61
100
AcDbEntity
  8
Layer 1
370
     0
100
AcDbVertex
100
AcDb2dVertex
 10
9.25
 20
7.0
 30
0.0
  0
VERTEX
  5
78
330
61
100
AcDbEntity
  8
Layer 1
370
     0
100
AcDbVertex
100
AcDb2dVertex
 10
9.5
 20
7.0
 30
0.0
  0
VERTEX
  5
79
330
61
100
AcDbEntity
  8
Layer 1
370
     0
100
AcDbVertex
100
AcDb2dVertex
 10
9.5
 20
5.5
 30
0.0
  0
VERTEX
  5
7A
330
61
100
AcDbEntity
  8
Layer 1
370
     0
100
AcDbVertex
100
AcDb2dVertex
 10
16.5
 20
5.5
 30
0.0
  0
VERTEX
  5
7B
330
61
100
AcDbEntity
  8
Layer 1
370
     0
100
AcDbVertex
100
AcDb2dVertex
 10
16.5
 20
7.0
 30
0.0
  0
VERTEX
  5
7C
330
61
100
AcDbEntity
  8
Layer 1
370
     0
100
AcDbVertex
100
AcDb2dVertex
 10
16.75
 20
7.0
 30
0.0
  0
VERTEX
  5
7D
330
61
100
AcDbEntity
  8
Layer 1
370
     0
100
AcDbVertex
100
AcDb2dVertex
 10
16.75
 20
9.0
 30
0.0
  0
VERTEX
  5
7E
330
61
100
AcDbEntity
  8
Layer 1
370
     0
100
AcDbVertex
100
AcDb2dVertex
 10
16.5
 20
9.0
 30
0.0
  0
SEQEND
  5
7F
330
61
100
AcDbEntity
  8
Layer 1
370
     0
  0
SPLINE
  5
80
330
1F
100
AcDbEntity
  8
Layer 1
370
     0
100
AcDbSpline
210
0.0
220
0.0
230
1.0
 70
    11
 71
     3
 72
   182
 73
   178
 74
     0
 42
0.0000000001
 43
0.0000000001
 12
1.0
 22
0.0
 32
0.0
 13
1.0
 23
0.0
 33
0.0
 40
0.0
 40
0.0
 40
0.0
 40
0.0
 40
1.0
 40
1.0
 40
1.0
 40
2.0
 40
2.0
 40
2.0
 40
3.0
 40
3.0
 40
3.0
 40
4.0
 40
4.0
 40
4.0
 40
5.0
 40
5.0
 40
5.0
 40
6.0
 40
6.0
 40
6.0
 40
7.0
 40
7.0
 40
7.0
 40
8.0
 40
8.0
 40
8.0
 40
9.0
 40
9.0
 40
9.0
 40
10.0
 40
10.0
 40
10.0
 40
11.0
 40
11.0
 40
11.0
 40
12.0
 40
12.0
 40
12.0
 40
13.0
 40
13.0
 40
13.0
 40
14.0
 40
14.0
 40
14.0
 40
15.0
 40
15.0
 40
15.0
 40
16.0
 40
16.0
 40
16.0
 40
17.0
 40
17.0
 40
17.0
 40
18.0
 40
18.0
 40
18.0
 40
19.0
 40
19.0
 40
19.0
 40
20.0
 40
20.0
 40
20.0
 40
21.0
 40
21.0
 40
21.0
 40
22.0
 40
22.0
 40
22.0
 40
23.0
 40
23.0
 40
23.0
 40
24.0
 40
24.0
 40
24.0
 40
25.0
 40
25.0
 40
25.0
 40
26.0
 40
26.0
 40
26.0
 40
27.0
 40
27.0
 40
27.0
 40
28.0
 40
28.0
 40
28.0
 40
29.0
 40
29.0
 40
29.0
 40
30.0
 40
30.0
 40
30.0
 40
31.0
 40
31.0
 40
31.0
 40
32.0
 40
32.0
 40
32.0
 40
33.0
 40
33.0
 40
33.0
 40
34.0
 40
34.0
 40
34.0
 40
35.0
 40
35.0
 40
35.0
 40
36.0
 40
36.0
 40
36.0
 40
37.0
 40
37.0
 40
37.0
 40
38.0
 40
38.0
 40
38.0
 40
39.0
 40
39.0
 40
39.0
 40
40.0
 40
40.0
 40
40.0
 40
41.0
 40
41.0
 40
41.0
 40
42.0
 40
42.0
 40
42.0
 40
43.0
 40
43.0
 40
43.0
 40
44.0
 40
44.0
 40
44.0
 40
45.0
 40
45.0
 40
45.0
 40
46.0
 40
46.0
 40
46.0
 40
47.0
 40
47.0
 40
47.0
 40
48.0
 40
48.0
 40
48.0
 40
49.0
 40
49.0
 40
49.0
 40
50.0
 40
50.0
 40
50.0
 40
51.0
 40
51.0
 40
51.0
 40
52.0
 40
52.0
 40
52.0
 40
53.0
 40
53.0
 40
53.0
 40
54.0
 40
54.0
 40
54.0
 40
55.0
 40
55.0
 40
55.0
 40
56.0
 40
56.0
 40
56.0
 40
57.0
 40
57.0
 40
57.0
 40
58.0
 40
58.0
 40
58.0
 40
59.0
 40
59.0
 40
59.0
 40
59.0
 10
21.00005416666666
 20
17.50004027777777
 30
0.0
 10
21.00005416666666
 20
17.63807499999999
 30
0.0
 10
20.8882111111111
 20
17.750075
 30
0.0
 10
20.75002777777778
 20
17.750075
 30
0.0
 10
20.75002777777778
 20
17.750075
 30
0.0
 10
18.75008194444445
 20
17.750075
 30
0.0
 10
18.75008194444445
 20
17.750075
 30
0.0
 10
18.61187083333334
 20
17.750075
 30
0.0
 10
18.50005416666666
 20
17.6382375
 30
0.0
 10
18.50005416666666
 20
17.50004027777777
 30
0.0
 10
18.50005416666666
 20
17.50004027777777
 30
0.0
 10
18.50005416666666
 20
16.99996666666667
 30
0.0
 10
18.50005416666666
 20
16.99996666666667
 30
0.0
 10
18.50005416666666
 20
16.99243194444444
 30
0.0
 10
18.49953888888889
 20
16.98489722222222
 30
0.0
 10
18.4988611111111
 20
16.9773625
 30
0.0
 10
18.49867083333334
 20
16.97548472222223
 30
0.0
 10
18.49850833333332
 20
16.97342916666667
 30
0.0
 10
18.49815555555556
 20
16.97154444444444
 30
0.0
 10
18.49747777777778
 20
16.96451805555556
 30
0.0
 10
18.49644583333333
 20
16.95767500000001
 30
0.0
 10
18.49509027777779
 20
16.95082638888889
 30
0.0
 10
18.49489999999999
 20
16.95030416666667
 30
0.0
 10
18.49489999999999
 20
16.94979583333333
 30
0.0
 10
18.49489999999999
 20
16.94927916666667
 30
0.0
 10
18.49335416666668
 20
16.94243055555555
 30
0.0
 10
18.49148194444443
 20
16.93558055555556
 30
0.0
 10
18.48961111111112
 20
16.92890138888889
 30
0.0
 10
18.48890555555555
 20
16.92667638888889
 30
0.0
 10
18.48822638888888
 20
16.92461527777778
 30
0.0
 10
18.48754861111113
 20
16.92239027777777
 30
0.0
 10
18.48565
 20
16.91691805555556
 30
0.0
 10
18.48377777777778
 20
16.91160694444444
 30
0.0
 10
18.48171666666667
 20
16.90645972222223
 30
0.0
 10
18.4806861111111
 20
16.90407361111112
 30
0.0
 10
18.47984444444445
 20
16.90183472222222
 30
0.0
 10
18.4789763888889
 20
16.89961111111111
 30
0.0
 10
18.47675277777777
 20
16.89464722222222
 30
0.0
 10
18.47417500000001
 20
16.8895125
 30
0.0
 10
18.471625
 20
16.88471111111111
 30
0.0
 10
18.47024166666668
 20
16.88197777777778
 30
0.0
 10
18.46872222222222
 20
16.87923888888889
 30
0.0
 10
18.46717638888888
 20
16.87666805555556
 30
0.0
 10
18.46527777777778
 20
16.8732361111111
 30
0.0
 10
18.46321666666666
 20
16.86981944444445
 30
0.0
 10
18.46118194444443
 20
16.86655694444444
 30
0.0
 10
18.45825138888889
 20
16.86194583333334
 30
0.0
 10
18.45518611111111
 20
16.85765972222223
 30
0.0
 10
18.45209444444446
 20
16.85338055555556
 30
0.0
 10
18.45022222222221
 20
16.85064027777778
 30
0.0
 10
18.4481611111111
 20
16.84806944444444
 30
0.0
 10
18.4462625
 20
16.84549305555556
 30
0.0
 10
18.4437125
 20
16.84224444444444
 30
0.0
 10
18.44113472222221
 20
16.83916527777777
 30
0.0
 10
18.43839583333334
 20
16.83608055555555
 30
0.0
 10
18.43684861111112
 20
16.83436388888889
 30
0.0
 10
18.43549305555555
 20
16.83282500000001
 30
0.0
 10
18.43394583333333
 20
16.83110833333333
 30
0.0
 10
18.42827638888889
 20
16.82495138888888
 30
0.0
 10
18.42230972222223
 20
16.81929583333334
 30
0.0
 10
18.4162875
 20
16.81381527777777
 30
0.0
 10
18.41544583333333
 20
16.81313055555555
 30
0.0
 10
18.41460555555555
 20
16.81226944444445
 30
0.0
 10
18.4137375
 20
16.81158472222223
 30
0.0
 10
18.41015694444445
 20
16.80833611111111
 30
0.0
 10
18.40654861111112
 20
16.80541944444445
 30
0.0
 10
18.40258750000001
 20
16.80251111111112
 30
0.0
 10
18.40174722222223
 20
16.8016625
 30
0.0
 10
18.40090555555556
 20
16.80097083333333
 30
0.0
 10
18.39984861111111
 20
16.80028611111111
 30
0.0
 10
18.39214444444443
 20
16.7944611111111
 30
0.0
 10
18.38411527777778
 20
16.78898055555555
 30
0.0
 10
18.37554305555555
 20
16.78419305555556
 30
0.0
 10
18.37537916666666
 20
16.78401666666667
 30
0.0
 10
18.37521666666667
 20
16.78384722222222
 30
0.0
 10
18.37502777777778
 20
16.78367083333334
 30
0.0
 10
18.37502777777778
 20
16.78367083333334
 30
0.0
 10
18.37502777777778
 20
12.25000663498324
 30
0.0
 10
18.37502777777778
 20
12.25000663498324
 30
0.0
 10
18.30601666666666
 20
12.25000663498324
 30
0.0
 10
18.24349027777778
 20
12.22190941347081
 30
0.0
 10
18.19829583333333
 20
12.17671635905693
 30
0.0
 10
18.1530763888889
 20
12.13149691575483
 30
0.0
 10
18.125
 20
12.06898302844517
 30
0.0
 10
18.125
 20
11.99997886352169
 30
0.0
 10
18.125
 20
11.99997886352169
 30
0.0
 10
18.125
 20
10.49994556808239
 30
0.0
 10
18.125
 20
10.49994556808239
 30
0.0
 10
18.125
 20
10.36190390490295
 30
0.0
 10
18.23700694444445
 20
10.25008168550559
 30
0.0
 10
18.37502777777778
 20
10.25008168550559
 30
0.0
 10
18.37502777777778
 20
10.25008168550559
 30
0.0
 10
18.37502777777778
 20
5.716227633373718
 30
0.0
 10
18.37502777777778
 20
5.716227633373718
 30
0.0
 10
18.37521666666667
 20
5.716063744488969
 30
0.0
 10
18.37537916666666
 20
5.715901244493074
 30
0.0
 10
18.37554305555555
 20
5.715901244493074
 30
0.0
 10
18.38411527777778
 20
5.710909577952507
 30
0.0
 10
18.39214444444443
 20
5.705592911420151
 30
0.0
 10
18.39984861111111
 20
5.69978874490011
 30
0.0
 10
18.40090555555556
 20
5.6991095782506
 30
0.0
 10
18.40174722222223
 20
5.698405411601723
 30
0.0
 10
18.40258750000001
 20
5.697563744956319
 30
0.0
 10
18.40654861111112
 20
5.694660967251871
 30
0.0
 10
18.41015694444445
 20
5.691758189547423
 30
0.0
 10
18.4137375
 20
5.688476245185888
 30
0.0
 10
18.41460555555555
 20
5.687798467425233
 30
0.0
 10
18.41544583333333
 20
5.686930555555565
 30
0.0
 10
18.4162875
 20
5.686279023019172
 30
0.0
 10
18.42230972222223
 20
5.68060957871795
 30
0.0
 10
18.42827638888889
 20
5.674967912193804
 30
0.0
 10
18.43394583333333
 20
5.668972222222211
 30
0.0
 10
18.43549305555555
 20
5.667236111111101
 30
0.0
 10
18.43684861111112
 20
5.665527777777773
 30
0.0
 10
18.43839583333334
 20
5.663817912475476
 30
0.0
 10
18.44113472222221
 20
5.660915134771029
 30
0.0
 10
18.4437125
 20
5.657849857070687
 30
0.0
 10
18.4462625
 20
5.654595690486227
 30
0.0
 10
18.4481611111111
 20
5.652017912773569
 30
0.0
 10
18.45022222222221
 20
5.649277777777772
 30
0.0
 10
18.45209444444446
 20
5.646701246241213
 30
0.0
 10
18.45518611111111
 20
5.642415135238378
 30
0.0
 10
18.45825138888889
 20
5.638129024235544
 30
0.0
 10
18.46118194444443
 20
5.633517913240919
 30
0.0
 10
18.46321666666666
 20
5.630072079994634
 30
0.0
 10
18.46527777777778
 20
5.626844302298397
 30
0.0
 10
18.46717638888888
 20
5.623426246829189
 30
0.0
 10
18.46872222222222
 20
5.620687358009491
 30
0.0
 10
18.47024166666668
 20
5.618109580296832
 30
0.0
 10
18.471625
 20
5.615180555555551
 30
0.0
 10
18.47417500000001
 20
5.61040541382479
 30
0.0
 10
18.47675277777777
 20
5.605413747284223
 30
0.0
 10
18.4789763888889
 20
5.600477636297809
 30
0.0
 10
18.47984444444445
 20
5.598226247465795
 30
0.0
 10
18.4806861111111
 20
5.596029025299079
 30
0.0
 10
18.48171666666667
 20
5.593613747582316
 30
0.0
 10
18.48377777777778
 20
5.588459581045854
 30
0.0
 10
18.48565
 20
5.582980414517603
 30
0.0
 10
18.48754861111113
 20
5.577691525762323
 30
0.0
 10
18.48822638888888
 20
5.575466525818531
 30
0.0
 10
18.48890555555555
 20
5.573405414759488
 30
0.0
 10
18.48961111111112
 20
5.571180555555555
 30
0.0
 10
18.49148194444443
 20
5.564480414984953
 30
0.0
 10
18.49335416666668
 20
5.557670692934758
 30
0.0
 10
18.49489999999999
 20
5.550645693112225
 30
0.0
 10
18.49489999999999
 20
5.550292915343359
 30
0.0
 10
18.49489999999999
 20
5.549777777777788
 30
0.0
 10
18.49509027777779
 20
5.549262359813838
 30
0.0
 10
18.49644583333333
 20
5.542398471098346
 30
0.0
 10
18.49747777777778
 20
5.535373471275812
 30
0.0
 10
18.49815555555556
 20
5.528537360337396
 30
0.0
 10
18.49850833333332
 20
5.526476249278352
 30
0.0
 10
18.49867083333334
 20
5.524604027103426
 30
0.0
 10
18.4988611111111
 20
5.522705416040278
 30
0.0
 10
18.49953888888889
 20
5.515191527341206
 30
0.0
 10
18.50005416666666
 20
5.507649860865058
 30
0.0
 10
18.50005416666666
 20
5.499917916615939
 30
0.0
 10
18.50005416666666
 20
5.499917916615939
 30
0.0
 10
18.50005416666666
 20
5.000027777777783
 30
0.0
 10
18.50005416666666
 20
5.000027777777783
 30
0.0
 10
18.50005416666666
 20
4.861842932735069
 30
0.0
 10
18.61187083333334
 20
4.75
 30
0.0
 10
18.75008194444445
 20
4.75
 30
0.0
 10
18.75008194444445
 20
4.75
 30
0.0
 10
20.75002777777778
 20
4.75
 30
0.0
 10
20.75002777777778
 20
4.75
 30
0.0
 10
20.8882111111111
 20
4.75
 30
0.0
 10
21.00005416666666
 20
4.862006821619818
 30
0.0
 10
21.00005416666666
 20
5.000027777777783
 30
0.0
 10
21.00005416666666
 20
5.000027777777783
 30
0.0
 10
21.00005416666666
 20
5.250081811816218
 30
0.0
 10
21.00005416666666
 20
5.250081811816218
 30
0.0
 10
21.00005416666666
 20
5.250081811816218
 30
0.0
 10
21.00005416666666
 20
17.25000694444444
 30
0.0
 10
21.00005416666666
 20
17.25000694444444
 30
0.0
 10
21.00005416666666
 20
17.25000694444444
 30
0.0
 10
21.00005416666666
 20
17.50004027777777
 30
0.0
 10
21.00005416666666
 20
17.50004027777777
 30
0.0
  0
SPLINE
  5
81
330
1F
100
AcDbEntity
  8
Layer 1
370
     0
100
AcDbSpline
210
0.0
220
0.0
230
1.0
 70
    11
 71
     3
 72
   185
 73
   181
 74
     0
 42
0.0000000001
 43
0.0000000001
 12
1.0
 22
0.0
 32
0.0
 13
1.0
 23
0.0
 33
0.0
 40
0.0
 40
0.0
 40
0.0
 40
0.0
 40
1.0
 40
1.0
 40
1.0
 40
2.0
 40
2.0
 40
2.0
 40
3.0
 40
3.0
 40
3.0
 40
4.0
 40
4.0
 40
4.0
 40
5.0
 40
5.0
 40
5.0
 40
6.0
 40
6.0
 40
6.0
 40
7.0
 40
7.0
 40
7.0
 40
8.0
 40
8.0
 40
8.0
 40
9.0
 40
9.0
 40
9.0
 40
10.0
 40
10.0
 40
10.0
 40
11.0
 40
11.0
 40
11.0
 40
12.0
 40
12.0
 40
12.0
 40
13.0
 40
13.0
 40
13.0
 40
14.0
 40
14.0
 40
14.0
 40
15.0
 40
15.0
 40
15.0
 40
16.0
 40
16.0
 40
16.0
 40
17.0
 40
17.0
 40
17.0
 40
18.0
 40
18.0
 40
18.0
 40
19.0
 40
19.0
 40
19.0
 40
20.0
 40
20.0
 40
20.0
 40
21.0
 40
21.0
 40
21.0
 40
22.0
 40
22.0
 40
22.0
 40
23.0
 40
23.0
 40
23.0
 40
24.0
 40
24.0
 40
24.0
 40
25.0
 40
25.0
 40
25.0
 40
26.0
 40
26.0
 40
26.0
 40
27.0
 40
27.0
 40
27.0
 40
28.0
 40
28.0
 40
28.0
 40
29.0
 40
29.0
 40
29.0
 40
30.0
 40
30.0
 40
30.0
 40
31.0
 40
31.0
 40
31.0
 40
32.0
 40
32.0
 40
32.0
 40
33.0
 40
33.0
 40
33.0
 40
34.0
 40
34.0
 40
34.0
 40
35.0
 40
35.0
 40
35.0
 40
36.0
 40
36.0
 40
36.0
 40
37.0
 40
37.0
 40
37.0
 40
38.0
 40
38.0
 40
38.0
 40
39.0
 40
39.0
 40
39.0
 40
40.0
 40
40.0
 40
40.0
 40
41.0
 40
41.0
 40
41.0
 40
42.0
 40
42.0
 40
42.0
 40
43.0
 40
43.0
 40
43.0
 40
44.0
 40
44.0
 40
44.0
 40
45.0
 40
45.0
 40
45.0
 40
46.0
 40
46.0
 40
46.0
 40
47.0
 40
47.0
 40
47.0
 40
48.0
 40
48.0
 40
48.0
 40
49.0
 40
49.0
 40
49.0
 40
50.0
 40
50.0
 40
50.0
 40
51.0
 40
51.0
 40
51.0
 40
52.0
 40
52.0
 40
52.0
 40
53.0
 40
53.0
 40
53.0
 40
54.0
 40
54.0
 40
54.0
 40
55.0
 40
55.0
 40
55.0
 40
56.0
 40
56.0
 40
56.0
 40
57.0
 40
57.0
 40
57.0
 40
58.0
 40
58.0
 40
58.0
 40
59.0
 40
59.0
 40
59.0
 40
60.0
 40
60.0
 40
60.0
 40
60.0
 10
23.875
 20
6.750108162811253
 30
0.0
 10
23.875
 20
6.750108162811253
 30
0.0
 10
23.875
 20
5.716416666666671
 30
0.0
 10
23.875
 20
5.716416666666671
 30
0.0
 10
23.87483750000001
 20
5.716227633373718
 30
0.0
 10
23.874675
 20
5.716063744488969
 30
0.0
 10
23.87448472222223
 20
5.715901244493074
 30
0.0
 10
23.8659125
 20
5.711099855725479
 30
0.0
 10
23.85788333333332
 20
5.705620689197227
 30
0.0
 10
23.85017916666667
 20
5.69978874490011
 30
0.0
 10
23.8491486111111
 20
5.6991095782506
 30
0.0
 10
23.84830694444445
 20
5.698431800489945
 30
0.0
 10
23.84741249999999
 20
5.697563744956319
 30
0.0
 10
23.84350555555557
 20
5.694660967251871
 30
0.0
 10
23.83989861111111
 20
5.691731800659201
 30
0.0
 10
23.83629027777778
 20
5.688504022962964
 30
0.0
 10
23.83544861111111
 20
5.687798467425233
 30
0.0
 10
23.83458055555555
 20
5.686956800779828
 30
0.0
 10
23.83374027777778
 20
5.686279023019172
 30
0.0
 10
23.82758194444444
 20
5.680772078713844
 30
0.0
 10
23.82172361111111
 20
5.675130412189699
 30
0.0
 10
23.81608055555555
 20
5.668972222222211
 30
0.0
 10
23.81453472222223
 20
5.667263888888884
 30
0.0
 10
23.81301527777777
 20
5.665716523538625
 30
0.0
 10
23.81146944444446
 20
5.663980412471371
 30
0.0
 10
23.80889166666667
 20
5.660915134771029
 30
0.0
 10
23.80634166666666
 20
5.657849857070687
 30
0.0
 10
23.80376527777778
 20
5.654567912709151
 30
0.0
 10
23.80189305555556
 20
5.652017912773569
 30
0.0
 10
23.79983194444445
 20
5.649441523949766
 30
0.0
 10
23.79793333333333
 20
5.646701246241213
 30
0.0
 10
23.79486805555555
 20
5.642415135238378
 30
0.0
 10
23.79177499999999
 20
5.638129024235544
 30
0.0
 10
23.78884583333332
 20
5.633517913240919
 30
0.0
 10
23.78681111111112
 20
5.630262357767606
 30
0.0
 10
23.78475000000001
 20
5.626844302298397
 30
0.0
 10
23.78287777777778
 20
5.623426246829189
 30
0.0
 10
23.78133194444445
 20
5.620849858005386
 30
0.0
 10
23.77978472222222
 20
5.618109580296832
 30
0.0
 10
23.77842916666666
 20
5.61536930258828
 30
0.0
 10
23.7758513888889
 20
5.610567913820685
 30
0.0
 10
23.77327500000001
 20
5.605413747284223
 30
0.0
 10
23.77105000000001
 20
5.600449858520733
 30
0.0
 10
23.77018194444445
 20
5.598226247465795
 30
0.0
 10
23.76934166666666
 20
5.596001247522003
 30
0.0
 10
23.76831111111111
 20
5.593613747582316
 30
0.0
 10
23.76624861111112
 20
5.588487358822931
 30
0.0
 10
23.76437777777778
 20
5.583170692290574
 30
0.0
 10
23.76247777777778
 20
5.577691525762323
 30
0.0
 10
23.76179999999999
 20
5.575466525818531
 30
0.0
 10
23.76112222222223
 20
5.573405414759488
 30
0.0
 10
23.76041666666666
 20
5.571180555555555
 30
0.0
 10
23.75854444444445
 20
5.564506803873175
 30
0.0
 10
23.7566736111111
 20
5.557644304046536
 30
0.0
 10
23.75512638888889
 20
5.55080819310812
 30
0.0
 10
23.75512638888889
 20
5.550292915343359
 30
0.0
 10
23.7549638888889
 20
5.549777777777788
 30
0.0
 10
23.75480138888889
 20
5.549262359813838
 30
0.0
 10
23.75341805555556
 20
5.542398471098346
 30
0.0
 10
23.75255
 20
5.535562360159929
 30
0.0
 10
23.75187222222222
 20
5.528537360337396
 30
0.0
 10
23.75151944444443
 20
5.526665138162469
 30
0.0
 10
23.75135694444445
 20
5.524604027103426
 30
0.0
 10
23.75116666666668
 20
5.522705416040278
 30
0.0
 10
23.75051527777777
 20
5.515191527341206
 30
0.0
 10
23.75
 20
5.507649860865058
 30
0.0
 10
23.75
 20
5.500108194388909
 30
0.0
 10
23.75
 20
5.500108194388909
 30
0.0
 10
23.75
 20
5.000027777777783
 30
0.0
 10
23.75
 20
5.000027777777783
 30
0.0
 10
23.75
 20
4.861842932735069
 30
0.0
 10
23.63815694444444
 20
4.75
 30
0.0
 10
23.49994583333334
 20
4.75
 30
0.0
 10
23.49994583333334
 20
4.75
 30
0.0
 10
21.50002777777778
 20
4.75
 30
0.0
 10
21.50002777777778
 20
4.75
 30
0.0
 10
21.36197916666666
 20
4.75
 30
0.0
 10
21.24997222222222
 20
4.862006821619818
 30
0.0
 10
21.24997222222222
 20
5.000027777777783
 30
0.0
 10
21.24997222222222
 20
5.000027777777783
 30
0.0
 10
21.24997222222222
 20
5.250081811816218
 30
0.0
 10
21.24997222222222
 20
5.250081811816218
 30
0.0
 10
21.24997222222222
 20
5.250081811816218
 30
0.0
 10
21.24997222222222
 20
17.25000694444444
 30
0.0
 10
21.24997222222222
 20
17.25000694444444
 30
0.0
 10
21.24997222222222
 20
17.25000694444444
 30
0.0
 10
21.24997222222222
 20
17.50004027777777
 30
0.0
 10
21.24997222222222
 20
17.50004027777777
 30
0.0
 10
21.24997222222222
 20
17.63807499999999
 30
0.0
 10
21.36197916666666
 20
17.750075
 30
0.0
 10
21.50002777777778
 20
17.750075
 30
0.0
 10
21.50002777777778
 20
17.750075
 30
0.0
 10
23.49994583333334
 20
17.750075
 30
0.0
 10
23.49994583333334
 20
17.750075
 30
0.0
 10
23.63815694444444
 20
17.750075
 30
0.0
 10
23.75
 20
17.63825138888889
 30
0.0
 10
23.75
 20
17.50004027777777
 30
0.0
 10
23.75
 20
17.50004027777777
 30
0.0
 10
23.75
 20
17.00014305555555
 30
0.0
 10
23.75
 20
17.00014305555555
 30
0.0
 10
23.75
 20
16.99243194444444
 30
0.0
 10
23.75051527777777
 20
16.98489722222222
 30
0.0
 10
23.75116666666668
 20
16.9773625
 30
0.0
 10
23.75135694444445
 20
16.97548472222223
 30
0.0
 10
23.75151944444443
 20
16.97359861111111
 30
0.0
 10
23.75187222222222
 20
16.97154444444444
 30
0.0
 10
23.75255
 20
16.96469444444445
 30
0.0
 10
23.75341805555556
 20
16.95767500000001
 30
0.0
 10
23.75480138888889
 20
16.95082638888889
 30
0.0
 10
23.7549638888889
 20
16.95030416666667
 30
0.0
 10
23.75512638888889
 20
16.94979583333333
 30
0.0
 10
23.75512638888889
 20
16.94944999999999
 30
0.0
 10
23.7566736111111
 20
16.94243055555555
 30
0.0
 10
23.75854444444445
 20
16.93558055555556
 30
0.0
 10
23.76041666666666
 20
16.92890138888889
 30
0.0
 10
23.76112222222223
 20
16.92667638888889
 30
0.0
 10
23.76179999999999
 20
16.92461527777778
 30
0.0
 10
23.76247777777778
 20
16.92239027777777
 30
0.0
 10
23.76437777777778
 20
16.91708055555556
 30
0.0
 10
23.76624861111112
 20
16.91160694444444
 30
0.0
 10
23.76831111111111
 20
16.90647361111111
 30
0.0
 10
23.76934166666666
 20
16.90407361111112
 30
0.0
 10
23.77018194444445
 20
16.90184861111111
 30
0.0
 10
23.77105000000001
 20
16.89961111111111
 30
0.0
 10
23.77327500000001
 20
16.89464722222222
 30
0.0
 10
23.7758513888889
 20
16.88968194444444
 30
0.0
 10
23.77842916666666
 20
16.88471805555556
 30
0.0
 10
23.77978472222222
 20
16.88197777777778
 30
0.0
 10
23.78133194444445
 20
16.87940833333333
 30
0.0
 10
23.78287777777778
 20
16.87666805555556
 30
0.0
 10
23.78475000000001
 20
16.8732361111111
 30
0.0
 10
23.78681111111112
 20
16.86998888888888
 30
0.0
 10
23.78884583333332
 20
16.86656388888889
 30
0.0
 10
23.79177499999999
 20
16.86194583333334
 30
0.0
 10
23.79486805555555
 20
16.85765972222223
 30
0.0
 10
23.79793333333333
 20
16.85338055555556
 30
0.0
 10
23.79983194444445
 20
16.85080972222222
 30
0.0
 10
23.80189305555556
 20
16.84806944444444
 30
0.0
 10
23.80376527777778
 20
16.8455
 30
0.0
 10
23.80634166666666
 20
16.84225138888889
 30
0.0
 10
23.80889166666667
 20
16.83916527777777
 30
0.0
 10
23.81146944444446
 20
16.83625555555555
 30
0.0
 10
23.81301527777777
 20
16.83454027777778
 30
0.0
 10
23.81453472222223
 20
16.83282500000001
 30
0.0
 10
23.81608055555555
 20
16.83110833333333
 30
0.0
 10
23.82172361111111
 20
16.82512777777778
 30
0.0
 10
23.82758194444444
 20
16.81929583333334
 30
0.0
 10
23.83374027777778
 20
16.81381527777777
 30
0.0
 10
23.83458055555555
 20
16.81313055555555
 30
0.0
 10
23.83544861111111
 20
16.81228333333334
 30
0.0
 10
23.83629027777778
 20
16.81159166666667
 30
0.0
 10
23.83989861111111
 20
16.80833611111111
 30
0.0
 10
23.84350555555557
 20
16.80541944444445
 30
0.0
 10
23.84741249999999
 20
16.80251111111112
 30
0.0
 10
23.84830694444445
 20
16.8016625
 30
0.0
 10
23.8491486111111
 20
16.80097083333333
 30
0.0
 10
23.85017916666667
 20
16.80028611111111
 30
0.0
 10
23.85788333333332
 20
16.79446805555555
 30
0.0
 10
23.8659125
 20
16.78915694444445
 30
0.0
 10
23.87448472222223
 20
16.78419305555556
 30
0.0
 10
23.874675
 20
16.78419305555556
 30
0.0
 10
23.87483750000001
 20
16.78401666666667
 30
0.0
 10
23.875
 20
16.78384722222222
 30
0.0
 10
23.875
 20
16.78384722222222
 30
0.0
 10
23.875
 20
15.75014861111111
 30
0.0
 10
23.875
 20
15.75014861111111
 30
0.0
 10
23.875
 20
15.75014861111111
 30
0.0
 10
23.875
 20
13.75004687486681
 30
0.0
 10
23.875
 20
13.75004687486681
 30
0.0
 10
23.875
 20
13.75004687486681
 30
0.0
 10
23.875
 20
12.25000663498324
 30
0.0
 10
23.875
 20
12.25000663498324
 30
0.0
 10
23.875
 20
12.25000663498324
 30
0.0
 10
23.875
 20
10.25007474106133
 30
0.0
 10
23.875
 20
10.25007474106133
 30
0.0
 10
23.875
 20
10.25007474106133
 30
0.0
 10
23.875
 20
8.750053945621705
 30
0.0
 10
23.875
 20
8.750053945621705
 30
0.0
 10
23.875
 20
8.750053945621705
 30
0.0
 10
23.875
 20
6.750108162811253
 30
0.0
 10
23.875
 20
6.750108162811253
 30
0.0
  0
INSERT
  5
83
330
1F
100
AcDbEntity
  8
Layer 1
100
AcDbBlockReference
  2
block 2
 10
0.0
 20
0.0
 30
0.0
  0
INSERT
  5
8A
330
1F
100
AcDbEntity
  8
Layer 1
100
AcDbBlockReference
  2
block 3
 10
0.0
 20
0.0
 30
0.0
  0
ENDSEC
  0
SECTION
  2
OBJECTS
  0
DICTIONARY
  5
C
330
0
100
AcDbDictionary
281
     1
  3
ACAD_GROUP
350
D
  3
ACAD_LAYOUT
350
1A
  3
ACAD_MATERIAL
350
3B
  3
ACAD_MLEADERSTYLE
350
D6
  3
ACAD_MLINESTYLE
350
17
  3
ACAD_PLOTSETTINGS
350
19
  3
ACAD_PLOTSTYLENAME
350
E
  3
ACAD_TABLESTYLE
350
D5
  3
ACAD_VISUALSTYLE
350
2A
  0
SUN
  5
3F
330
29
100
AcDbSun
 90
        1
290
     0
 63
     7
421
 16777215
 40
1.0
291
     1
 91
  2455826
 92
 54000000
292
     0
 70
     2
 71
   256
280
     1
  0
DICTIONARY
  5
D
102
{ACAD_REACTORS
330
C
102
}
330
C
100
AcDbDictionary
281
     1
  0
DICTIONARY
  5
1A
102
{ACAD_REACTORS
330
C
102
}
330
C
100
AcDbDictionary
281
     1
  3
Layout1
350
1E
  3
Layout2
350
26
  3
Model
350
22
  0
DICTIONARY
  5
3B
102
{ACAD_REACTORS
330
C
102
}
330
C
100
AcDbDictionary
281
     1
  3
ByBlock
350
3D
  3
ByLayer
350
3C
  3
Global
350
3E
  0
DICTIONARY
  5
D6
102
{ACAD_REACTORS
330
C
102
}
330
C
100
AcDbDictionary
281
     1
  0
DICTIONARY
  5
17
102
{ACAD_REACTORS
330
C
102
}
330
C
100
AcDbDictionary
281
     1
  3
Standard
350
18
  0
DICTIONARY
  5
19
102
{ACAD_REACTORS
330
C
102
}
330
C
100
AcDbDictionary
281
     1
  0
ACDBDICTIONARYWDFLT
  5
E
102
{ACAD_REACTORS
330
C
102
}
330
C
100
AcDbDictionary
281
     1
  3
Normal
350
F
100
AcDbDictionaryWithDefault
340
F
  0
DICTIONARY
  5
D5
102
{ACAD_REACTORS
330
C
102
}
330
C
100
AcDbDictionary
281
     1
  0
DICTIONARY
  5
2A
102
{ACAD_REACTORS
330
C
102
}
330
C
100
AcDbDictionary
281
     1
  3
2dWireframe
350
2F
  3
3D Hidden
350
31
  3
3dWireframe
350
30
  3
Basic
350
32
  3
Brighten
350
36
  3
ColorChange
350
3A
  3
Conceptual
350
34
  3
Dim
350
35
  3
Facepattern
350
39
  3
Flat
350
2B
  3
FlatWithEdges
350
2C
  3
Gouraud
350
2D
  3
GouraudWithEdges
350
2E
  3
Linepattern
350
38
  3
Realistic
350
33
  3
Thicken
350
37
  0
LAYOUT
  5
1E
102
{ACAD_REACTORS
330
1A
102
}
330
1A
100
AcDbPlotSettings
  1

  2
none_device
  4

  6

 40
0.0
 41
0.0
 42
0.0
 43
0.0
 44
0.0
 45
0.0
 46
0.0
 47
0.0
 48
0.0
 49
0.0
140
0.0
141
0.0
142
1.0
143
1.0
 70
   688
 72
     0
 73
     0
 74
     5
  7

 75
    16
 76
     0
 77
     2
 78
   300
147
1.0
148
0.0
149
0.0
100
AcDbLayout
  1
Layout1
 70
     1
 71
     1
 10
0.0
 20
0.0
 11
12.0
 21
9.0
 12
0.0
 22
0.0
 32
0.0
 14
1.000000000000000E+20
 24
1.000000000000000E+20
 34
1.000000000000000E+20
 15
-1.000000000000000E+20
 25
-1.000000000000000E+20
 35
-1.000000000000000E+20
146
0.0
 13
0.0
 23
0.0
 33
0.0
 16
1.0
 26
0.0
 36
0.0
 17
0.0
 27
1.0
 37
0.0
 76
     0
330
1B
  0
LAYOUT
  5
26
102
{ACAD_REACTORS
330
1A
102
}
330
1A
100
AcDbPlotSettings
  1

  2
none_device
  4

  6

 40
0.0
 41
0.0
 42
0.0
 43
0.0
 44
0.0
 45
0.0
 46
0.0
 47
0.0
 48
0.0
 49
0.0
140
0.0
141
0.0
142
1.0
143
1.0
 70
   688
 72
     0
 73
     0
 74
     5
  7

 75
    16
 76
     0
 77
     2
 78
   300
147
1.0
148
0.0
149
0.0
100
AcDbLayout
  1
Layout2
 70
     1
 71
     2
 10
0.0
 20
0.0
 11
0.0
 21
0.0
 12
0.0
 22
0.0
 32
0.0
 14
0.0
 24
0.0
 34
0.0
 15
0.0
 25
0.0
 35
0.0
146
0.0
 13
0.0
 23
0.0
 33
0.0
 16
1.0
 26
0.0
 36
0.0
 17
0.0
 27
1.0
 37
0.0
 76
     0
330
23
  0
LAYOUT
  5
22
102
{ACAD_REACTORS
330
1A
102
}
330
1A
100
AcDbPlotSettings
  1

  2
none_device
  4

  6

 40
0.0
 41
0.0
 42
0.0
 43
0.0
 44
0.0
 45
0.0
 46
0.0
 47
0.0
 48
0.0
 49
0.0
140
0.0
141
0.0
142
1.0
143
1.0
 70
  1712
 72
     0
 73
     0
 74
     0
  7

 75
     0
 76
     0
 77
     2
 78
   300
147
1.0
148
0.0
149
0.0
100
AcDbLayout
  1
Model
 70
     1
 71
     0
 10
0.0
 20
0.0
 11
12.0
 21
9.0
 12
0.0
 22
0.0
 32
0.0
 14
1.000000000000000E+20
 24
1.000000000000000E+20
 34
1.000000000000000E+20
 15
-1.000000000000000E+20
 25
-1.000000000000000E+20
 35
-1.000000000000000E+20
146
0.0
 13
0.0
 23
0.0
 33
0.0
 16
1.0
 26
0.0
 36
0.0
 17
0.0
 27
1.0
 37
0.0
 76
     0
330
1F
331
29
  0
MATERIAL
  5
3D
102
{ACAD_REACTORS
330
3B
102
}
330
3B
100
AcDbMaterial
  1
ByBlock
 72
     1
 94
      127
  0
MATERIAL
  5
3C
102
{ACAD_REACTORS
330
3B
102
}
330
3B
100
AcDbMaterial
  1
ByLayer
 72
     1
 94
      127
  0
MATERIAL
  5
3E
102
{ACAD_REACTORS
330
3B
102
}
330
3B
100
AcDbMaterial
  1
Global
 72
     1
 94
      127
  0
MLINESTYLE
  5
18
102
{ACAD_REACTORS
330
17
102
}
330
17
100
AcDbMlineStyle
  2
Standard
 70
     0
  3

 62
   256
 51
90.0
 52
90.0
 71
     2
 49
0.5
 62
   256
  6
BYLAYER
 49
-0.5
 62
   256
  6
BYLAYER
  0
ACDBPLACEHOLDER
  5
F
102
{ACAD_REACTORS
330
E
102
}
330
E
  0
VISUALSTYLE
  5
2F
102
{ACAD_REACTORS
330
2A
102
}
330
2A
100
AcDbVisualStyle
  2
2dWireframe
 70
     4
177
     2
291
     0
 71
     0
176
     1
 72
     2
176
     1
 73
     0
176
     1
 90
        0
176
     1
 40
-0.6
176
     1
 41
-30.0
176
     1
 62
     5
 63
     7
421
 16777215
176
     1
 74
     1
176
     1
 91
        4
176
     1
 64
     7
176
     1
 65
   257
176
     1
 75
     1
176
     1
175
     1
176
     1
 42
1.0
176
     1
 92
        0
176
     1
 66
   257
176
     1
 43
1.0
176
     1
 76
     1
176
     1
 77
     6
176
     1
 78
     2
176
     1
 67
     7
176
     1
 79
     5
176
     1
170
     0
176
     1
171
     0
176
     1
290
     0
176
     1
 93
        1
176
     1
 44
0.0
176
     1
173
     0
176
     1
  0
VISUALSTYLE
  5
31
102
{ACAD_REACTORS
330
2A
102
}
330
2A
100
AcDbVisualStyle
  2
3D Hidden
 70
     6
177
     2
291
     0
 71
     1
176
     1
 72
     2
176
     1
 73
     2
176
     1
 90
        0
176
     1
 40
-0.6
176
     1
 41
-30.0
176
     1
 62
     5
 63
     7
421
 16777215
176
     1
 74
     2
176
     1
 91
        2
176
     1
 64
     7
176
     1
 65
   257
176
     1
 75
     2
176
     1
175
     1
176
     1
 42
40.0
176
     1
 92
        0
176
     1
 66
   257
176
     1
 43
1.0
176
     1
 76
     1
176
     1
 77
     6
176
     1
 78
     2
176
     1
 67
     7
176
     1
 79
     3
176
     1
170
     0
176
     1
171
     0
176
     1
290
     0
176
     1
 93
        1
176
     1
 44
0.0
176
     1
173
     0
176
     1
  0
VISUALSTYLE
  5
30
102
{ACAD_REACTORS
330
2A
102
}
330
2A
100
AcDbVisualStyle
  2
3dWireframe
 70
     5
177
     2
291
     0
 71
     0
176
     1
 72
     2
176
     1
 73
     0
176
     1
 90
        0
176
     1
 40
-0.6
176
     1
 41
-30.0
176
     1
 62
     5
 63
     7
421
 16777215
176
     1
 74
     1
176
     1
 91
        4
176
     1
 64
     7
176
     1
 65
   257
176
     1
 75
     1
176
     1
175
     1
176
     1
 42
1.0
176
     1
 92
        0
176
     1
 66
   257
176
     1
 43
1.0
176
     1
 76
     1
176
     1
 77
     6
176
     1
 78
     2
176
     1
 67
     7
176
     1
 79
     5
176
     1
170
     0
176
     1
171
     0
176
     1
290
     0
176
     1
 93
        1
176
     1
 44
0.0
176
     1
173
     0
176
     1
  0
VISUALSTYLE
  5
32
102
{ACAD_REACTORS
330
2A
102
}
330
2A
100
AcDbVisualStyle
  2
Basic
 70
     7
177
     2
291
     1
 71
     1
176
     1
 72
     0
176
     1
 73
     1
176
     1
 90
        0
176
     1
 40
-0.6
176
     1
 41
-30.0
176
     1
 62
     5
 63
     7
421
 16777215
176
     1
 74
     0
176
     1
 91
        4
176
     1
 64
     7
176
     1
 65
   257
176
     1
 75
     1
176
     1
175
     1
176
     1
 42
1.0
176
     1
 92
        8
176
     1
 66
     7
176
     1
 43
1.0
176
     1
 76
     1
176
     1
 77
     6
176
     1
 78
     2
176
     1
 67
     7
176
     1
 79
     5
176
     1
170
     0
176
     1
171
     0
176
     1
290
     0
176
     1
 93
        1
176
     1
 44
0.0
176
     1
173
     0
176
     1
  0
VISUALSTYLE
  5
36
102
{ACAD_REACTORS
330
2A
102
}
330
2A
100
AcDbVisualStyle
  2
Brighten
 70
    12
177
     2
291
     1
 71
     2
176
     1
 72
     2
176
     1
 73
     0
176
     1
 90
        0
176
     1
 40
-0.6
176
     1
 41
-30.0
176
     1
 62
     5
 63
     7
421
 16777215
176
     1
 74
     1
176
     1
 91
        4
176
     1
 64
     7
176
     1
 65
   257
176
     1
 75
     1
176
     1
175
     1
176
     1
 42
1.0
176
     1
 92
        8
176
     1
 66
     7
176
     1
 43
1.0
176
     1
 76
     1
176
     1
 77
     6
176
     1
 78
     2
176
     1
 67
     7
176
     1
 79
     5
176
     1
170
     0
176
     1
171
     0
176
     1
290
     0
176
     1
 93
        1
176
     1
 44
50.0
176
     1
173
     0
176
     1
  0
VISUALSTYLE
  5
3A
102
{ACAD_REACTORS
330
2A
102
}
330
2A
100
AcDbVisualStyle
  2
ColorChange
 70
    16
177
     2
291
     1
 71
     2
176
     1
 72
     2
176
     1
 73
     3
176
     1
 90
        0
176
     1
 40
-0.6
176
     1
 41
-30.0
176
     1
 62
     5
 63
     8
421
  8421504
176
     1
 74
     1
176
     1
 91
        4
176
     1
 64
     7
176
     1
 65
   257
176
     1
 75
     1
176
     1
175
     1
176
     1
 42
1.0
176
     1
 92
        8
176
     1
 66
     8
424
  8421504
176
     1
 43
1.0
176
     1
 76
     1
176
     1
 77
     6
176
     1
 78
     2
176
     1
 67
     7
176
     1
 79
     5
176
     1
170
     0
176
     1
171
     0
176
     1
290
     0
176
     1
 93
        1
176
     1
 44
0.0
176
     1
173
     0
176
     1
  0
VISUALSTYLE
  5
34
102
{ACAD_REACTORS
330
2A
102
}
330
2A
100
AcDbVisualStyle
  2
Conceptual
 70
     9
177
     2
291
     0
 71
     3
176
     1
 72
     2
176
     1
 73
     0
176
     1
 90
        0
176
     1
 40
-0.6
176
     1
 41
-30.0
176
     1
 62
     5
 63
     7
421
 16777215
176
     1
 74
     2
176
     1
 91
        2
176
     1
 64
     7
176
     1
 65
   257
176
     1
 75
     1
176
     1
175
     1
176
     1
 42
40.0
176
     1
 92
        8
176
     1
 66
     7
176
     1
 43
1.0
176
     1
 76
     1
176
     1
 77
     6
176
     1
 78
     2
176
     1
 67
     7
176
     1
 79
     3
176
     1
170
     0
176
     1
171
     0
176
     1
290
     0
176
     1
 93
        1
176
     1
 44
0.0
176
     1
173
     0
176
     1
  0
VISUALSTYLE
  5
35
102
{ACAD_REACTORS
330
2A
102
}
330
2A
100
AcDbVisualStyle
  2
Dim
 70
    11
177
     2
291
     1
 71
     2
176
     1
 72
     2
176
     1
 73
     0
176
     1
 90
        0
176
     1
 40
-0.6
176
     1
 41
-30.0
176
     1
 62
     5
 63
     7
421
 16777215
176
     1
 74
     1
176
     1
 91
        4
176
     1
 64
     7
176
     1
 65
   257
176
     1
 75
     1
176
     1
175
     1
176
     1
 42
1.0
176
     1
 92
        8
176
     1
 66
     7
176
     1
 43
1.0
176
     1
 76
     1
176
     1
 77
     6
176
     1
 78
     2
176
     1
 67
     7
176
     1
 79
     5
176
     1
170
     0
176
     1
171
     0
176
     1
290
     0
176
     1
 93
        1
176
     1
 44
-50.0
176
     1
173
     0
176
     1
  0
VISUALSTYLE
  5
39
102
{ACAD_REACTORS
330
2A
102
}
330
2A
100
AcDbVisualStyle
  2
Facepattern
 70
    15
177
     2
291
     1
 71
     2
176
     1
 72
     2
176
     1
 73
     0
176
     1
 90
        0
176
     1
 40
-0.6
176
     1
 41
-30.0
176
     1
 62
     5
 63
     7
421
 16777215
176
     1
 74
     1
176
     1
 91
        4
176
     1
 64
     7
176
     1
 65
   257
176
     1
 75
     1
176
     1
175
     1
176
     1
 42
1.0
176
     1
 92
        8
176
     1
 66
     7
176
     1
 43
1.0
176
     1
 76
     1
176
     1
 77
     6
176
     1
 78
     2
176
     1
 67
     7
176
     1
 79
     5
176
     1
170
     0
176
     1
171
     0
176
     1
290
     0
176
     1
 93
        1
176
     1
 44
0.0
176
     1
173
     0
176
     1
  0
VISUALSTYLE
  5
2B
102
{ACAD_REACTORS
330
2A
102
}
330
2A
100
AcDbVisualStyle
  2
Flat
 70
     0
177
     2
291
     1
 71
     2
176
     1
 72
     1
176
     1
 73
     1
176
     1
 90
        2
176
     1
 40
-0.6
176
     1
 41
30.0
176
     1
 62
     5
 63
     7
421
 16777215
176
     1
 74
     0
176
     1
 91
        4
176
     1
 64
     7
176
     1
 65
   257
176
     1
 75
     1
176
     1
175
     1
176
     1
 42
1.0
176
     1
 92
        8
176
     1
 66
     7
176
     1
 43
1.0
176
     1
 76
     1
176
     1
 77
     6
176
     1
 78
     2
176
     1
 67
     7
176
     1
 79
     5
176
     1
170
     0
176
     1
171
     0
176
     1
290
     0
176
     1
 93
       13
176
     1
 44
0.0
176
     1
173
     0
176
     1
  0
VISUALSTYLE
  5
2C
102
{ACAD_REACTORS
330
2A
102
}
330
2A
100
AcDbVisualStyle
  2
FlatWithEdges
 70
     1
177
     2
291
     1
 71
     2
176
     1
 72
     1
176
     1
 73
     1
176
     1
 90
        2
176
     1
 40
-0.6
176
     1
 41
30.0
176
     1
 62
     5
 63
     7
421
 16777215
176
     1
 74
     1
176
     1
 91
        4
176
     1
 64
     7
176
     1
 65
   257
176
     1
 75
     1
176
     1
175
     1
176
     1
 42
1.0
176
     1
 92
        0
176
     1
 66
   257
176
     1
 43
1.0
176
     1
 76
     1
176
     1
 77
     6
176
     1
 78
     2
176
     1
 67
     7
176
     1
 79
     5
176
     1
170
     0
176
     1
171
     0
176
     1
290
     0
176
     1
 93
       13
176
     1
 44
0.0
176
     1
173
     0
176
     1
  0
VISUALSTYLE
  5
2D
102
{ACAD_REACTORS
330
2A
102
}
330
2A
100
AcDbVisualStyle
  2
Gouraud
 70
     2
177
     2
291
     1
 71
     2
176
     1
 72
     2
176
     1
 73
     1
176
     1
 90
        2
176
     1
 40
-0.6
176
     1
 41
30.0
176
     1
 62
     5
 63
     7
421
 16777215
176
     1
 74
     0
176
     1
 91
        4
176
     1
 64
     7
176
     1
 65
   257
176
     1
 75
     1
176
     1
175
     1
176
     1
 42
1.0
176
     1
 92
        0
176
     1
 66
     7
176
     1
 43
1.0
176
     1
 76
     1
176
     1
 77
     6
176
     1
 78
     2
176
     1
 67
     7
176
     1
 79
     5
176
     1
170
     0
176
     1
171
     0
176
     1
290
     0
176
     1
 93
       13
176
     1
 44
0.0
176
     1
173
     0
176
     1
  0
VISUALSTYLE
  5
2E
102
{ACAD_REACTORS
330
2A
102
}
330
2A
100
AcDbVisualStyle
  2
GouraudWithEdges
 70
     3
177
     2
291
     1
 71
     2
176
     1
 72
     2
176
     1
 73
     1
176
     1
 90
        2
176
     1
 40
-0.6
176
     1
 41
30.0
176
     1
 62
     5
 63
     7
421
 16777215
176
     1
 74
     1
176
     1
 91
        4
176
     1
 64
     7
176
     1
 65
   257
176
     1
 75
     1
176
     1
175
     1
176
     1
 42
1.0
176
     1
 92
        0
176
     1
 66
   257
176
     1
 43
1.0
176
     1
 76
     1
176
     1
 77
     6
176
     1
 78
     2
176
     1
 67
     7
176
     1
 79
     5
176
     1
170
     0
176
     1
171
     0
176
     1
290
     0
176
     1
 93
       13
176
     1
 44
0.0
176
     1
173
     0
176
     1
  0
VISUALSTYLE
  5
38
102
{ACAD_REACTORS
330
2A
102
}
330
2A
100
AcDbVisualStyle
  2
Linepattern
 70
    14
177
     2
291
     1
 71
     2
176
     1
 72
     2
176
     1
 73
     0
176
     1
 90
        0
176
     1
 40
-0.6
176
     1
 41
-30.0
176
     1
 62
     5
 63
     7
421
 16777215
176
     1
 74
     1
176
     1
 91
        4
176
     1
 64
     7
176
     1
 65
   257
176
     1
 75
     7
176
     1
175
     7
176
     1
 42
1.0
176
     1
 92
        8
176
     1
 66
     7
176
     1
 43
1.0
176
     1
 76
     1
176
     1
 77
     6
176
     1
 78
     2
176
     1
 67
     7
176
     1
 79
     5
176
     1
170
     0
176
     1
171
     0
176
     1
290
     0
176
     1
 93
        1
176
     1
 44
0.0
176
     1
173
     0
176
     1
  0
VISUALSTYLE
  5
33
102
{ACAD_REACTORS
330
2A
102
}
330
2A
100
AcDbVisualStyle
  2
Realistic
 70
     8
177
     2
291
     0
 71
     2
176
     1
 72
     2
176
     1
 73
     0
176
     1
 90
        0
176
     1
 40
-0.6
176
     1
 41
-30.0
176
     1
 62
     5
 63
     7
421
 16777215
176
     1
 74
     1
176
     1
 91
        0
176
     1
 64
     7
176
     1
 65
   257
176
     1
 75
     1
176
     1
175
     1
176
     1
 42
1.0
176
     1
 92
        8
176
     1
 66
     8
424
  7895160
176
     1
 43
1.0
176
     1
 76
     1
176
     1
 77
     6
176
     1
 78
     2
176
     1
 67
     7
176
     1
 79
     5
176
     1
170
     0
176
     1
171
     0
176
     1
290
     0
176
     1
 93
       13
176
     1
 44
0.0
176
     1
173
     0
176
     1
  0
VISUALSTYLE
  5
37
102
{ACAD_REACTORS
330
2A
102
}
330
2A
100
AcDbVisualStyle
  2
Thicken
 70
    13
177
     2
291
     1
 71
     2
176
     1
 72
     2
176
     1
 73
     0
176
     1
 90
        0
176
     1
 40
-0.6
176
     1
 41
-30.0
176
     1
 62
     5
 63
     7
421
 16777215
176
     1
 74
     1
176
     1
 91
        4
176
     1
 64
     7
176
     1
 65
   257
176
     1
 75
     1
176
     1
175
     1
176
     1
 42
1.0
176
     1
 92
       12
176
     1
 66
     7
176
     1
 43
1.0
176
     1
 76
     1
176
     1
 77
     6
176
     1
 78
     2
176
     1
 67
     7
176
     1
 79
     5
176
     1
170
     0
176
     1
171
     0
176
     1
290
     0
176
     1
 93
        1
176
     1
 44
0.0
176
     1
173
     0
176
     1
  0
ENDSEC
  0
EOF
