  0
SECTION
  2
HEADER
  9
$ACADVER
  1
AC1009
  9
$DWGCODEPAGE
  3
ansi_1252
  9
$INSBASE
 10
0.0
 20
0.0
 30
0.0
  9
$EXTMIN
 10
96.04700000000003
 20
247.7787657449664
 30
0.0
  9
$EXTMAX
 10
396.047
 20
689.5583087620679
 30
0.0
  9
$LIMMIN
 10
0.0
 20
0.0
  9
$LIMMAX
 10
12.0
 20
9.0
  9
$ORTHOMODE
 70
     0
  9
$REGENMODE
 70
     1
  9
$FILLMODE
 70
     1
  9
$QTEXTMODE
 70
     0
  9
$MIRRTEXT
 70
     1
  9
$DRAGMODE
 70
     2
  9
$LTSCALE
 40
1.0
  9
$OSMODE
 70
    37
  9
$ATTMODE
 70
     1
  9
$TEXTSIZE
 40
0.2
  9
$TRACEWID
 40
0.05
  9
$TEXTSTYLE
  7
STANDARD
  9
$CLAYER
  8
0
  9
$CELTYPE
  6
BYLAYER
  9
$CECOLOR
 62
   256
  9
$DIMSCALE
 40
1.0
  9
$DIMASZ
 40
0.18
  9
$DIMEXO
 40
0.0625
  9
$DIMDLI
 40
0.38
  9
$DIMRND
 40
0.0
  9
$DIMDLE
 40
0.0
  9
$DIMEXE
 40
0.18
  9
$DIMTP
 40
0.0
  9
$DIMTM
 40
0.0
  9
$DIMTXT
 40
0.18
  9
$DIMCEN
 40
0.09
  9
$DIMTSZ
 40
0.0
  9
$DIMTOL
 70
     0
  9
$DIMLIM
 70
     0
  9
$DIMTIH
 70
     1
  9
$DIMTOH
 70
     1
  9
$DIMSE1
 70
     0
  9
$DIMSE2
 70
     0
  9
$DIMTAD
 70
     0
  9
$DIMZIN
 70
     0
  9
$DIMBLK
  1

  9
$DIMASO
 70
     1
  9
$DIMSHO
 70
     1
  9
$DIMPOST
  1

  9
$DIMAPOST
  1

  9
$DIMALT
 70
     0
  9
$DIMALTD
 70
     2
  9
$DIMALTF
 40
25.4
  9
$DIMLFAC
 40
1.0
  9
$DIMTOFL
 70
     0
  9
$DIMTVP
 40
0.0
  9
$DIMTIX
 70
     0
  9
$DIMSOXD
 70
     0
  9
$DIMSAH
 70
     0
  9
$DIMBLK1
  1

  9
$DIMBLK2
  1

  9
$DIMSTYLE
  2
STANDARD
  9
$DIMCLRD
 70
     0
  9
$DIMCLRE
 70
     0
  9
$DIMCLRT
 70
     0
  9
$DIMTFAC
 40
1.0
  9
$DIMGAP
 40
0.09
  9
$LUNITS
 70
     2
  9
$LUPREC
 70
     4
  9
$SKETCHINC
 40
0.1
  9
$FILLETRAD
 40
0.5
  9
$AUNITS
 70
     0
  9
$AUPREC
 70
     0
  9
$MENU
  1
.
  9
$ELEVATION
 40
0.0
  9
$PELEVATION
 40
0.0
  9
$THICKNESS
 40
0.0
  9
$LIMCHECK
 70
     0
  9
$CHAMFERA
 40
0.0
  9
$CHAMFERB
 40
0.0
  9
$SKPOLY
 70
     0
  9
$TDCREATE
 40
2454910.5
  9
$TDUPDATE
 40
2457963.427346979
  9
$TDINDWG
 40
0.0000000116
  9
$TDUSRTIMER
 40
0.0000000116
  9
$USRTIMER
 70
     1
  9
$ANGBASE
 50
0.0
  9
$ANGDIR
 70
     0
  9
$PDMODE
 70
     0
  9
$PDSIZE
 40
0.0
  9
$PLINEWID
 40
0.0
  9
$COORDS
 70
     1
  9
$SPLFRAME
 70
     0
  9
$SPLINETYPE
 70
     6
  9
$SPLINESEGS
 70
     8
  9
$ATTDIA
 70
     0
  9
$ATTREQ
 70
     1
  9
$HANDLING
 70
     1
  9
$HANDSEED
  5
27F
  9
$SURFTAB1
 70
     6
  9
$SURFTAB2
 70
     6
  9
$SURFTYPE
 70
     6
  9
$SURFU
 70
     6
  9
$SURFV
 70
     6
  9
$UCSNAME
  2

  9
$UCSORG
 10
0.0
 20
0.0
 30
0.0
  9
$UCSXDIR
 10
1.0
 20
0.0
 30
0.0
  9
$UCSYDIR
 10
0.0
 20
1.0
 30
0.0
  9
$PUCSNAME
  2

  9
$PUCSORG
 10
0.0
 20
0.0
 30
0.0
  9
$PUCSXDIR
 10
1.0
 20
0.0
 30
0.0
  9
$PUCSYDIR
 10
0.0
 20
1.0
 30
0.0
  9
$USERI1
 70
     0
  9
$USERI2
 70
     0
  9
$USERI3
 70
     0
  9
$USERI4
 70
     0
  9
$USERI5
 70
     0
  9
$USERR1
 40
0.0
  9
$USERR2
 40
0.0
  9
$USERR3
 40
0.0
  9
$USERR4
 40
0.0
  9
$USERR5
 40
0.0
  9
$WORLDVIEW
 70
     1
  9
$SHADEDGE
 70
     3
  9
$SHADEDIF
 70
    70
  9
$TILEMODE
 70
     1
  9
$MAXACTVP
 70
    64
  9
$PLIMCHECK
 70
     0
  9
$PEXTMIN
 10
1.000000000000000E+20
 20
1.000000000000000E+20
 30
1.000000000000000E+20
  9
$PEXTMAX
 10
-1.000000000000000E+20
 20
-1.000000000000000E+20
 30
-1.000000000000000E+20
  9
$PLIMMIN
 10
0.0
 20
0.0
  9
$PLIMMAX
 10
12.0
 20
9.0
  9
$UNITMODE
 70
     0
  9
$VISRETAIN
 70
     1
  9
$PLINEGEN
 70
     0
  9
$PSLTSCALE
 70
     1
  0
ENDSEC
  0
SECTION
  2
TABLES
  0
TABLE
  2
VPORT
 70
     1
  0
VPORT
  2
*ACTIVE
 70
     0
 10
0.0
 20
0.0
 11
1.0
 21
1.0
 12
10.42990654205607
 22
4.5
 13
0.0
 23
0.0
 14
0.5
 24
0.5
 15
0.5
 25
0.5
 16
0.0
 26
0.0
 36
1.0
 17
0.0
 27
0.0
 37
0.0
 40
9.0
 41
1.972972972850329
 42
50.0
 43
0.0
 44
0.0
 50
0.0
 51
0.0
 71
     0
 72
   100
 73
     1
 74
     3
 75
     0
 76
     0
 77
     0
 78
     0
  0
ENDTAB
  0
TABLE
  2
LTYPE
 70
     2
  0
LTYPE
  2
CONTINUOUS
 70
     0
  3
Solid line
 72
    65
 73
     0
 40
0.0
  0
LTYPE
  2
CONTINUOUS2
 70
     0
  3
Solid Line
 72
    65
 73
     0
 40
0.0
  0
ENDTAB
  0
TABLE
  2
LAYER
 70
     6
  0
LAYER
  2
0
 70
     0
 62
     7
  6
CONTINUOUS
  0
LAYER
  2
POCKET_8MM
 70
     0
 62
     1
  6
CONTINUOUS
  0
LAYER
  2
PROFILE_ON_6MM
 70
     0
 62
    96
  6
CONTINUOUS
  0
LAYER
  2
POCKET_10MM
 70
     0
 62
     3
  6
CONTINUOUS
  0
LAYER
  2
DRILL_15MM
 70
     0
 62
    18
  6
CONTINUOUS
  0
LAYER
  2
PROFILE_OUTSIDE_15MM
 70
     0
 62
     6
  6
CONTINUOUS
  0
ENDTAB
  0
TABLE
  2
STYLE
 70
     1
  0
STYLE
  2
STANDARD
 70
     0
 40
0.0
 41
1.0
 50
0.0
 71
     0
 42
0.2
  3
txt
  4

  0
ENDTAB
  0
TABLE
  2
VIEW
 70
     0
  0
ENDTAB
  0
TABLE
  2
UCS
 70
     0
  0
ENDTAB
  0
TABLE
  2
APPID
 70
     1
  0
APPID
  2
ACAD
 70
     0
  0
ENDTAB
  0
TABLE
  2
DIMSTYLE
 70
     1
  0
DIMSTYLE
  2
STANDARD
 70
     0
  3

  4

  5

  6

  7

 40
1.0
 41
0.18
 42
0.0625
 43
0.38
 44
0.18
 45
0.0
 46
0.0
 47
0.0
 48
0.0
140
0.18
141
0.09
142
0.0
143
25.4
144
1.0
145
0.0
146
1.0
147
0.09
 71
     0
 72
     0
 73
     1
 74
     1
 75
     0
 76
     0
 77
     0
 78
     0
170
     0
171
     2
172
     0
173
     0
174
     0
175
     0
176
     0
177
     0
178
     0
  0
ENDTAB
  0
ENDSEC
  0
SECTION
  2
BLOCKS
  0
BLOCK
  8
0
  2
$MODEL_SPACE
 70
     0
 10
0.0
 20
0.0
 30
0.0
  3
$MODEL_SPACE
  1

  0
ENDBLK
  5
21
  8
0
  0
BLOCK
 67
     1
  8
0
  2
$PAPER_SPACE
 70
     0
 10
0.0
 20
0.0
 30
0.0
  3
$PAPER_SPACE
  1

  0
ENDBLK
  5
1D
 67
     1
  8
0
  0
ENDSEC
  0
SECTION
  2
ENTITIES
  0
POLYLINE
  5
6C
  8
POCKET_8MM
 66
     1
 10
0.0
 20
0.0
 30
0.0
 70
     1
  0
VERTEX
  5
82
  8
POCKET_8MM
 10
140.2752945718119
 20
549.5569999999999
 30
0.0
  0
VERTEX
  5
83
  8
POCKET_8MM
 10
140.2752945718119
 20
519.5569999999999
 30
0.0
  0
VERTEX
  5
84
  8
POCKET_8MM
 10
155.2752945718119
 20
519.5569999999999
 30
0.0
  0
VERTEX
  5
85
  8
POCKET_8MM
 10
155.2752945718119
 20
549.5569999999999
 30
0.0
  0
VERTEX
  5
86
  8
POCKET_8MM
 10
185.2752945718119
 20
549.5569999999999
 30
0.0
  0
VERTEX
  5
87
  8
POCKET_8MM
 10
185.2752945718119
 20
689.557
 30
0.0
  0
VERTEX
  5
88
  8
POCKET_8MM
 10
110.275294571812
 20
689.557
 30
0.0
  0
VERTEX
  5
89
  8
POCKET_8MM
 10
110.275294571812
 20
549.5569999999999
 30
0.0
  0
SEQEND
  5
274
  8
POCKET_8MM
  0
POLYLINE
  5
6E
  8
PROFILE_ON_6MM
 66
     1
 10
0.0
 20
0.0
 30
0.0
  0
VERTEX
  5
8A
  8
PROFILE_ON_6MM
 10
214.7177706219499
 20
689.5583087620679
 30
0.0
  0
VERTEX
  5
8B
  8
PROFILE_ON_6MM
 10
214.937248352286
 20
688.6378890536494
 30
0.0
  0
VERTEX
  5
8C
  8
PROFILE_ON_6MM
 10
215.1476527588661
 20
687.7160789548604
 30
0.0
  0
VERTEX
  5
8D
  8
PROFILE_ON_6MM
 10
215.3482819911372
 20
686.7927638408173
 30
0.0
  0
VERTEX
  5
8E
  8
PROFILE_ON_6MM
 10
215.5384341985462
 20
685.8678290866362
 30
0.0
  0
VERTEX
  5
8F
  8
PROFILE_ON_6MM
 10
215.7174075305403
 20
684.9411600674338
 30
0.0
  0
VERTEX
  5
90
  8
PROFILE_ON_6MM
 10
215.8845001365665
 20
684.0126421583263
 30
0.0
  0
VERTEX
  5
91
  8
PROFILE_ON_6MM
 10
216.0390101660717
 20
683.0821607344301
 30
0.0
  0
VERTEX
  5
92
  8
PROFILE_ON_6MM
 10
216.1802357685031
 20
682.1496011708614
 30
0.0
  0
VERTEX
  5
93
  8
PROFILE_ON_6MM
 10
216.3074750933075
 20
681.2148488427367
 30
0.0
  0
VERTEX
  5
94
  8
PROFILE_ON_6MM
 10
216.4200262899322
 20
680.2777891251725
 30
0.0
  0
VERTEX
  5
95
  8
PROFILE_ON_6MM
 10
216.517187507824
 20
679.3383073932849
 30
0.0
  0
VERTEX
  5
96
  8
PROFILE_ON_6MM
 10
216.5982568964301
 20
678.3962890221904
 30
0.0
  0
VERTEX
  5
97
  8
PROFILE_ON_6MM
 10
216.6625326051974
 20
677.4516193870054
 30
0.0
  0
VERTEX
  5
98
  8
PROFILE_ON_6MM
 10
216.7093127835729
 20
676.504183862846
 30
0.0
  0
VERTEX
  5
99
  8
PROFILE_ON_6MM
 10
216.7378955810037
 20
675.553867824829
 30
0.0
  0
VERTEX
  5
9A
  8
PROFILE_ON_6MM
 10
216.7475791469369
 20
674.6005566480704
 30
0.0
  0
VERTEX
  5
9B
  8
PROFILE_ON_6MM
 10
216.7417001429907
 20
673.9771313842347
 30
0.0
  0
VERTEX
  5
9C
  8
PROFILE_ON_6MM
 10
216.7243032339774
 20
673.355565799319
 30
0.0
  0
VERTEX
  5
9D
  8
PROFILE_ON_6MM
 10
216.6957485741347
 20
672.7358002032106
 30
0.0
  0
VERTEX
  5
9E
  8
PROFILE_ON_6MM
 10
216.6563963177003
 20
672.1177749057961
 30
0.0
  0
VERTEX
  5
9F
  8
PROFILE_ON_6MM
 10
216.6066066189119
 20
671.5014302169625
 30
0.0
  0
VERTEX
  5
A0
  8
PROFILE_ON_6MM
 10
216.5467396320073
 20
670.8867064465968
 30
0.0
  0
VERTEX
  5
A1
  8
PROFILE_ON_6MM
 10
216.4771555112242
 20
670.2735439045862
 30
0.0
  0
VERTEX
  5
A2
  8
PROFILE_ON_6MM
 10
216.3982144108004
 20
669.6618829008174
 30
0.0
  0
VERTEX
  5
A3
  8
PROFILE_ON_6MM
 10
216.3102764849736
 20
669.0516637451776
 30
0.0
  0
VERTEX
  5
A4
  8
PROFILE_ON_6MM
 10
216.2137018879815
 20
668.4428267475536
 30
0.0
  0
VERTEX
  5
A5
  8
PROFILE_ON_6MM
 10
216.1088507740618
 20
667.8353122178326
 30
0.0
  0
VERTEX
  5
A6
  8
PROFILE_ON_6MM
 10
215.9960832974524
 20
667.2290604659013
 30
0.0
  0
VERTEX
  5
A7
  8
PROFILE_ON_6MM
 10
215.7482398731151
 20
666.0201065349562
 30
0.0
  0
VERTEX
  5
A8
  8
PROFILE_ON_6MM
 10
215.4730528488714
 20
664.8154874338143
 30
0.0
  0
VERTEX
  5
A9
  8
PROFILE_ON_6MM
 10
215.1734034586232
 20
663.6147256415712
 30
0.0
  0
VERTEX
  5
AA
  8
PROFILE_ON_6MM
 10
214.8521729362724
 20
662.417343637323
 30
0.0
  0
VERTEX
  5
AB
  8
PROFILE_ON_6MM
 10
214.5122425157209
 20
661.2228639001653
 30
0.0
  0
VERTEX
  5
AC
  8
PROFILE_ON_6MM
 10
214.1564934308706
 20
660.0308089091941
 30
0.0
  0
VERTEX
  5
AD
  8
PROFILE_ON_6MM
 10
213.7878069156233
 20
658.8407011435052
 30
0.0
  0
VERTEX
  5
AE
  8
PROFILE_ON_6MM
 10
213.409064203881
 20
657.6520630821943
 30
0.0
  0
VERTEX
  5
AF
  8
PROFILE_ON_6MM
 10
212.6329351265187
 20
655.2772859890904
 30
0.0
  0
VERTEX
  5
B0
  8
PROFILE_ON_6MM
 10
211.8511560699989
 20
652.9026574626489
 30
0.0
  0
VERTEX
  5
B1
  8
PROFILE_ON_6MM
 10
211.4653508843096
 20
651.7142051096662
 30
0.0
  0
VERTEX
  5
B2
  8
PROFILE_ON_6MM
 10
211.0867769055366
 20
650.5243573356365
 30
0.0
  0
VERTEX
  5
B3
  8
PROFILE_ON_6MM
 10
210.7183153675817
 20
649.3326366196559
 30
0.0
  0
VERTEX
  5
B4
  8
PROFILE_ON_6MM
 10
210.3628475043469
 20
648.13856544082
 30
0.0
  0
VERTEX
  5
B5
  8
PROFILE_ON_6MM
 10
210.023254549734
 20
646.9416662782246
 30
0.0
  0
VERTEX
  5
B6
  8
PROFILE_ON_6MM
 10
209.7024177376449
 20
645.7414616109659
 30
0.0
  0
VERTEX
  5
B7
  8
PROFILE_ON_6MM
 10
209.4032183019814
 20
644.5374739181393
 30
0.0
  0
VERTEX
  5
B8
  8
PROFILE_ON_6MM
 10
209.1285374766456
 20
643.3292256788409
 30
0.0
  0
VERTEX
  5
B9
  8
PROFILE_ON_6MM
 10
208.8812564955393
 20
642.1162393721665
 30
0.0
  0
VERTEX
  5
BA
  8
PROFILE_ON_6MM
 10
208.7687913321665
 20
641.5078202182807
 30
0.0
  0
VERTEX
  5
BB
  8
PROFILE_ON_6MM
 10
208.6642565925643
 20
640.8980374772118
 30
0.0
  0
VERTEX
  5
BC
  8
PROFILE_ON_6MM
 10
208.5680124309704
 20
640.2868314588468
 30
0.0
  0
VERTEX
  5
BD
  8
PROFILE_ON_6MM
 10
208.4804190016225
 20
639.6741424730727
 30
0.0
  0
VERTEX
  5
BE
  8
PROFILE_ON_6MM
 10
208.4018364587585
 20
639.0599108297765
 30
0.0
  0
VERTEX
  5
BF
  8
PROFILE_ON_6MM
 10
208.3326249566159
 20
638.4440768388451
 30
0.0
  0
VERTEX
  5
C0
  8
PROFILE_ON_6MM
 10
208.2731446494326
 20
637.8265808101655
 30
0.0
  0
VERTEX
  5
C1
  8
PROFILE_ON_6MM
 10
208.2237556914463
 20
637.2073630536248
 30
0.0
  0
VERTEX
  5
C2
  8
PROFILE_ON_6MM
 10
208.1848182368947
 20
636.58636387911
 30
0.0
  0
VERTEX
  5
C3
  8
PROFILE_ON_6MM
 10
208.1566924400156
 20
635.9635235965077
 30
0.0
  0
VERTEX
  5
C4
  8
PROFILE_ON_6MM
 10
208.1393184479701
 20
635.3401267544334
 30
0.0
  0
VERTEX
  5
C5
  8
PROFILE_ON_6MM
 10
208.1321762661643
 20
634.7174815310681
 30
0.0
  0
VERTEX
  5
C6
  8
PROFILE_ON_6MM
 10
208.1349358362033
 20
634.0955636806466
 30
0.0
  0
VERTEX
  5
C7
  8
PROFILE_ON_6MM
 10
208.1472670996925
 20
633.4743489574041
 30
0.0
  0
VERTEX
  5
C8
  8
PROFILE_ON_6MM
 10
208.1688399982369
 20
632.8538131155759
 30
0.0
  0
VERTEX
  5
C9
  8
PROFILE_ON_6MM
 10
208.1993244734417
 20
632.2339319093974
 30
0.0
  0
VERTEX
  5
CA
  8
PROFILE_ON_6MM
 10
208.238390466912
 20
631.6146810931035
 30
0.0
  0
VERTEX
  5
CB
  8
PROFILE_ON_6MM
 10
208.285707920253
 20
630.9960364209296
 30
0.0
  0
VERTEX
  5
CC
  8
PROFILE_ON_6MM
 10
208.4037769729681
 20
629.7604685258825
 30
0.0
  0
VERTEX
  5
CD
  8
PROFILE_ON_6MM
 10
208.5508911644281
 20
628.5270342581375
 30
0.0
  0
VERTEX
  5
CE
  8
PROFILE_ON_6MM
 10
208.7244100274744
 20
627.2955396515763
 30
0.0
  0
VERTEX
  5
CF
  8
PROFILE_ON_6MM
 10
208.9216930949486
 20
626.0657907400805
 30
0.0
  0
VERTEX
  5
D0
  8
PROFILE_ON_6MM
 10
209.1400998996918
 20
624.8375935575318
 30
0.0
  0
VERTEX
  5
D1
  8
PROFILE_ON_6MM
 10
209.3769899745454
 20
623.6107541378117
 30
0.0
  0
VERTEX
  5
D2
  8
PROFILE_ON_6MM
 10
209.6297228523509
 20
622.3850785148018
 30
0.0
  0
VERTEX
  5
D3
  8
PROFILE_ON_6MM
 10
209.8956580659496
 20
621.1603727223838
 30
0.0
  0
VERTEX
  5
D4
  8
PROFILE_ON_6MM
 10
210.4565736318918
 20
618.7130947648502
 30
0.0
  0
VERTEX
  5
D5
  8
PROFILE_ON_6MM
 10
211.0386129351032
 20
616.2673685362636
 30
0.0
  0
VERTEX
  5
D6
  8
PROFILE_ON_6MM
 10
211.6206522383146
 20
613.8216423076769
 30
0.0
  0
VERTEX
  5
D7
  8
PROFILE_ON_6MM
 10
211.9050707220237
 20
612.5982942780877
 30
0.0
  0
VERTEX
  5
D8
  8
PROFILE_ON_6MM
 10
212.1815678042569
 20
611.3743643501433
 30
0.0
  0
VERTEX
  5
D9
  8
PROFILE_ON_6MM
 10
212.4475030178556
 20
610.1496585577254
 30
0.0
  0
VERTEX
  5
DA
  8
PROFILE_ON_6MM
 10
212.700235895661
 20
608.9239829347155
 30
0.0
  0
VERTEX
  5
DB
  8
PROFILE_ON_6MM
 10
212.9371259705147
 20
607.6971435149953
 30
0.0
  0
VERTEX
  5
DC
  8
PROFILE_ON_6MM
 10
213.1555327752579
 20
606.4689463324466
 30
0.0
  0
VERTEX
  5
DD
  8
PROFILE_ON_6MM
 10
213.352815842732
 20
605.2391974209509
 30
0.0
  0
VERTEX
  5
DE
  8
PROFILE_ON_6MM
 10
213.5263347057783
 20
604.0077028143896
 30
0.0
  0
VERTEX
  5
DF
  8
PROFILE_ON_6MM
 10
213.6734488972384
 20
602.7742685466446
 30
0.0
  0
VERTEX
  5
E0
  8
PROFILE_ON_6MM
 10
213.7362790951364
 20
602.1567634254163
 30
0.0
  0
VERTEX
  5
E1
  8
PROFILE_ON_6MM
 10
213.7915179499534
 20
601.5387006515975
 30
0.0
  0
VERTEX
  5
E2
  8
PROFILE_ON_6MM
 10
213.8388354032945
 20
600.9200559794236
 30
0.0
  0
VERTEX
  5
E3
  8
PROFILE_ON_6MM
 10
213.8779013967648
 20
600.3008051631298
 30
0.0
  0
VERTEX
  5
E4
  8
PROFILE_ON_6MM
 10
213.9083858719696
 20
599.6809239569512
 30
0.0
  0
VERTEX
  5
E5
  8
PROFILE_ON_6MM
 10
213.9299587705139
 20
599.060388115123
 30
0.0
  0
VERTEX
  5
E6
  8
PROFILE_ON_6MM
 10
213.9422900340031
 20
598.4391733918806
 30
0.0
  0
VERTEX
  5
E7
  8
PROFILE_ON_6MM
 10
213.9450496040422
 20
597.8172555414591
 30
0.0
  0
VERTEX
  5
E8
  8
PROFILE_ON_6MM
 10
213.9379074222364
 20
597.1946103180936
 30
0.0
  0
VERTEX
  5
E9
  8
PROFILE_ON_6MM
 10
213.9205334301909
 20
596.5712134760194
 30
0.0
  0
VERTEX
  5
EA
  8
PROFILE_ON_6MM
 10
213.8920600271722
 20
595.9483640530854
 30
0.0
  0
VERTEX
  5
EB
  8
PROFILE_ON_6MM
 10
213.8521018244329
 20
595.3273380379136
 30
0.0
  0
VERTEX
  5
EC
  8
PROFILE_ON_6MM
 10
213.8010520815575
 20
594.7080766108988
 30
0.0
  0
VERTEX
  5
ED
  8
PROFILE_ON_6MM
 10
213.7393040581303
 20
594.0905209524358
 30
0.0
  0
VERTEX
  5
EE
  8
PROFILE_ON_6MM
 10
213.6672510137357
 20
593.4746122429192
 30
0.0
  0
VERTEX
  5
EF
  8
PROFILE_ON_6MM
 10
213.5852862079579
 20
592.860291662744
 30
0.0
  0
VERTEX
  5
F0
  8
PROFILE_ON_6MM
 10
213.4938029003815
 20
592.2475003923048
 30
0.0
  0
VERTEX
  5
F1
  8
PROFILE_ON_6MM
 10
213.3931943505907
 20
591.6361796119966
 30
0.0
  0
VERTEX
  5
F2
  8
PROFILE_ON_6MM
 10
213.2838538181699
 20
591.026270502214
 30
0.0
  0
VERTEX
  5
F3
  8
PROFILE_ON_6MM
 10
213.1661745627034
 20
590.4177142433515
 30
0.0
  0
VERTEX
  5
F4
  8
PROFILE_ON_6MM
 10
213.0405498437757
 20
589.8104520158042
 30
0.0
  0
VERTEX
  5
F5
  8
PROFILE_ON_6MM
 10
212.9073729209711
 20
589.2044249999669
 30
0.0
  0
VERTEX
  5
F6
  8
PROFILE_ON_6MM
 10
212.6199355020685
 20
587.9958413250008
 30
0.0
  0
VERTEX
  5
F7
  8
PROFILE_ON_6MM
 10
212.3070083826707
 20
586.7914926616116
 30
0.0
  0
VERTEX
  5
F8
  8
PROFILE_ON_6MM
 10
211.9717376394525
 20
585.5909084529574
 30
0.0
  0
VERTEX
  5
F9
  8
PROFILE_ON_6MM
 10
211.6172693490888
 20
584.393618142196
 30
0.0
  0
VERTEX
  5
FA
  8
PROFILE_ON_6MM
 10
211.2467495882544
 20
583.1991511724859
 30
0.0
  0
VERTEX
  5
FB
  8
PROFILE_ON_6MM
 10
210.8633244336244
 20
582.0070369869852
 30
0.0
  0
VERTEX
  5
FC
  8
PROFILE_ON_6MM
 10
210.0703422496769
 20
579.6279847412441
 30
0.0
  0
VERTEX
  5
FD
  8
PROFILE_ON_6MM
 10
209.2634914106453
 20
577.252696950238
 30
0.0
  0
VERTEX
  5
FE
  8
PROFILE_ON_6MM
 10
208.4679405299288
 20
574.877409159232
 30
0.0
  0
VERTEX
  5
FF
  8
PROFILE_ON_6MM
 10
208.082267765626
 20
573.6885888716242
 30
0.0
  0
VERTEX
  5
100
  8
PROFILE_ON_6MM
 10
207.7088582209267
 20
572.4983569134909
 30
0.0
  0
VERTEX
  5
101
  8
PROFILE_ON_6MM
 10
207.3508579725058
 20
571.3062427279899
 30
0.0
  0
VERTEX
  5
102
  8
PROFILE_ON_6MM
 10
207.0114130970381
 20
570.1117757582798
 30
0.0
  0
VERTEX
  5
103
  8
PROFILE_ON_6MM
 10
206.6936696711987
 20
568.9144854475186
 30
0.0
  0
VERTEX
  5
104
  8
PROFILE_ON_6MM
 10
206.4007737716623
 20
567.7139012388643
 30
0.0
  0
VERTEX
  5
105
  8
PROFILE_ON_6MM
 10
206.2646267932186
 20
567.112226873814
 30
0.0
  0
VERTEX
  5
106
  8
PROFILE_ON_6MM
 10
206.1358714751038
 20
566.509552575475
 30
0.0
  0
VERTEX
  5
107
  8
PROFILE_ON_6MM
 10
206.0149010769023
 20
565.9058195242417
 30
0.0
  0
VERTEX
  5
108
  8
PROFILE_ON_6MM
 10
205.9021088581983
 20
565.3009689005089
 30
0.0
  0
VERTEX
  5
109
  8
PROFILE_ON_6MM
 10
205.7978880785763
 20
564.6949418846716
 30
0.0
  0
VERTEX
  5
10A
  8
PROFILE_ON_6MM
 10
205.7026319976205
 20
564.0876796571243
 30
0.0
  0
VERTEX
  5
10B
  8
PROFILE_ON_6MM
 10
205.6167338749154
 20
563.4791233982619
 30
0.0
  0
VERTEX
  5
10C
  8
PROFILE_ON_6MM
 10
205.5405869700454
 20
562.8692142884793
 30
0.0
  0
VERTEX
  5
10D
  8
PROFILE_ON_6MM
 10
205.4745845425948
 20
562.257893508171
 30
0.0
  0
VERTEX
  5
10E
  8
PROFILE_ON_6MM
 10
205.4191198521478
 20
561.6451022377319
 30
0.0
  0
VERTEX
  5
10F
  8
PROFILE_ON_6MM
 10
205.374586158289
 20
561.0307816575566
 30
0.0
  0
VERTEX
  5
110
  8
PROFILE_ON_6MM
 10
205.3413767206028
 20
560.41487294804
 30
0.0
  0
VERTEX
  5
111
  8
PROFILE_ON_6MM
 10
205.3198847986733
 20
559.797317289577
 30
0.0
  0
VERTEX
  5
112
  8
PROFILE_ON_6MM
 10
205.310503652085
 20
559.1780558625622
 30
0.0
  0
VERTEX
  5
113
  8
PROFILE_ON_6MM
 10
205.3136265404223
 20
558.5570298473906
 30
0.0
  0
VERTEX
  5
114
  8
PROFILE_ON_6MM
 10
205.3296467232696
 20
557.9341804244566
 30
0.0
  0
VERTEX
  5
115
  8
PROFILE_ON_6MM
 10
205.3845203328645
 20
556.6888991862247
 30
0.0
  0
VERTEX
  5
116
  8
PROFILE_ON_6MM
 10
205.4587415214583
 20
555.4481783177512
 30
0.0
  0
VERTEX
  5
117
  8
PROFILE_ON_6MM
 10
205.5523103285465
 20
554.2120176882681
 30
0.0
  0
VERTEX
  5
118
  8
PROFILE_ON_6MM
 10
205.6652267936248
 20
552.9804171670079
 30
0.0
  0
VERTEX
  5
119
  8
PROFILE_ON_6MM
 10
205.7974909561887
 20
551.7533766232026
 30
0.0
  0
VERTEX
  5
11A
  8
PROFILE_ON_6MM
 10
205.9491028557338
 20
550.5308959260847
 30
0.0
  0
VERTEX
  5
11B
  8
PROFILE_ON_6MM
 10
206.1200625317556
 20
549.3129749448863
 30
0.0
  0
VERTEX
  5
11C
  8
PROFILE_ON_6MM
 10
206.3103700237497
 20
548.0996135488394
 30
0.0
  0
VERTEX
  5
11D
  8
PROFILE_ON_6MM
 10
206.5200253712117
 20
546.8908116071766
 30
0.0
  0
VERTEX
  5
11E
  8
PROFILE_ON_6MM
 10
206.7490286136372
 20
545.6865689891299
 30
0.0
  0
VERTEX
  5
11F
  8
PROFILE_ON_6MM
 10
206.9973797905216
 20
544.4868855639315
 30
0.0
  0
VERTEX
  5
120
  8
PROFILE_ON_6MM
 10
207.2650789413607
 20
543.2917612008139
 30
0.0
  0
VERTEX
  5
121
  8
PROFILE_ON_6MM
 10
207.5521261056498
 20
542.1011957690091
 30
0.0
  0
VERTEX
  5
122
  8
PROFILE_ON_6MM
 10
207.8585213228848
 20
540.9151891377493
 30
0.0
  0
VERTEX
  5
123
  8
PROFILE_ON_6MM
 10
208.1842646325609
 20
539.7337411762668
 30
0.0
  0
VERTEX
  5
124
  8
PROFILE_ON_6MM
 10
208.529356074174
 20
538.5568517537938
 30
0.0
  0
VERTEX
  5
125
  8
PROFILE_ON_6MM
 10
208.8937956872195
 20
537.3845207395626
 30
0.0
  0
VERTEX
  5
126
  8
PROFILE_ON_6MM
 10
209.2775835111929
 20
536.2167480028054
 30
0.0
  0
VERTEX
  5
127
  8
PROFILE_ON_6MM
 10
209.6807195855899
 20
535.0535334127544
 30
0.0
  0
VERTEX
  5
128
  8
PROFILE_ON_6MM
 10
210.103203949906
 20
533.8948768386418
 30
0.0
  0
VERTEX
  5
129
  8
PROFILE_ON_6MM
 10
210.5450366436368
 20
532.7407781496998
 30
0.0
  0
VERTEX
  5
12A
  8
PROFILE_ON_6MM
 10
211.0062177062779
 20
531.5912372151608
 30
0.0
  0
VERTEX
  5
12B
  8
PROFILE_ON_6MM
 10
211.4867471773248
 20
530.446253904257
 30
0.0
  0
VERTEX
  5
12C
  8
PROFILE_ON_6MM
 10
211.9866250962731
 20
529.3058280862206
 30
0.0
  0
VERTEX
  5
12D
  8
PROFILE_ON_6MM
 10
212.5058515026184
 20
528.1699596302836
 30
0.0
  0
VERTEX
  5
12E
  8
PROFILE_ON_6MM
 10
213.0444264358562
 20
527.0386484056785
 30
0.0
  0
VERTEX
  5
12F
  8
PROFILE_ON_6MM
 10
213.6023499354821
 20
525.9118942816374
 30
0.0
  0
VERTEX
  5
130
  8
PROFILE_ON_6MM
 10
214.1796220409917
 20
524.7896971273924
 30
0.0
  0
VERTEX
  5
131
  8
PROFILE_ON_6MM
 10
214.7762427918805
 20
523.6720568121759
 30
0.0
  0
VERTEX
  5
132
  8
PROFILE_ON_6MM
 10
215.3922122276441
 20
522.5589732052204
 30
0.0
  0
VERTEX
  5
133
  8
PROFILE_ON_6MM
 10
216.0275303877781
 20
521.4504461757577
 30
0.0
  0
VERTEX
  5
134
  8
PROFILE_ON_6MM
 10
216.682197311778
 20
520.3464755930203
 30
0.0
  0
VERTEX
  5
135
  8
PROFILE_ON_6MM
 10
216.6692870089938
 20
520.3473321901702
 30
0.0
  0
VERTEX
  5
136
  8
PROFILE_ON_6MM
 10
216.6576146523702
 20
520.3501720747007
 30
0.0
  0
VERTEX
  5
137
  8
PROFILE_ON_6MM
 10
216.6522928395365
 20
520.3464755930203
 30
0.0
  0
VERTEX
  5
138
  8
PROFILE_ON_6MM
 10
216.6747145733968
 20
519.4801193877909
 30
0.0
  0
VERTEX
  5
139
  8
PROFILE_ON_6MM
 10
216.682197311778
 20
518.6127035486791
 30
0.0
  0
VERTEX
  5
13A
  8
PROFILE_ON_6MM
 10
216.6708893457043
 20
517.5358113858093
 30
0.0
  0
VERTEX
  5
13B
  8
PROFILE_ON_6MM
 10
216.637146730496
 20
516.4656379767388
 30
0.0
  0
VERTEX
  5
13C
  8
PROFILE_ON_6MM
 10
216.5812413906719
 20
515.402511014041
 30
0.0
  0
VERTEX
  5
13D
  8
PROFILE_ON_6MM
 10
216.5034452507511
 20
514.3467581902892
 30
0.0
  0
VERTEX
  5
13E
  8
PROFILE_ON_6MM
 10
216.4040302352524
 20
513.298707198057
 30
0.0
  0
VERTEX
  5
13F
  8
PROFILE_ON_6MM
 10
216.2832682686948
 20
512.2586857299178
 30
0.0
  0
VERTEX
  5
140
  8
PROFILE_ON_6MM
 10
216.1414312755973
 20
511.2270214784452
 30
0.0
  0
VERTEX
  5
141
  8
PROFILE_ON_6MM
 10
215.9787911804789
 20
510.2040421362126
 30
0.0
  0
VERTEX
  5
142
  8
PROFILE_ON_6MM
 10
215.7956199078584
 20
509.1900753957934
 30
0.0
  0
VERTEX
  5
143
  8
PROFILE_ON_6MM
 10
215.5921893822548
 20
508.1854489497612
 30
0.0
  0
VERTEX
  5
144
  8
PROFILE_ON_6MM
 10
215.3687715281871
 20
507.1904904906895
 30
0.0
  0
VERTEX
  5
145
  8
PROFILE_ON_6MM
 10
215.1256382701742
 20
506.2055277111515
 30
0.0
  0
VERTEX
  5
146
  8
PROFILE_ON_6MM
 10
214.8630615327351
 20
505.2308883037209
 30
0.0
  0
VERTEX
  5
147
  8
PROFILE_ON_6MM
 10
214.5813132403886
 20
504.2668999609712
 30
0.0
  0
VERTEX
  5
148
  8
PROFILE_ON_6MM
 10
214.2806653176538
 20
503.3138903754757
 30
0.0
  0
VERTEX
  5
149
  8
PROFILE_ON_6MM
 10
213.9613896890497
 20
502.372187239808
 30
0.0
  0
VERTEX
  5
14A
  8
PROFILE_ON_6MM
 10
213.6237582790951
 20
501.4421182465415
 30
0.0
  0
VERTEX
  5
14B
  8
PROFILE_ON_6MM
 10
213.2680430123091
 20
500.5240110882497
 30
0.0
  0
VERTEX
  5
14C
  8
PROFILE_ON_6MM
 10
212.8945158132104
 20
499.618193457506
 30
0.0
  0
VERTEX
  5
14D
  8
PROFILE_ON_6MM
 10
212.5034486063182
 20
498.724993046884
 30
0.0
  0
VERTEX
  5
14E
  8
PROFILE_ON_6MM
 10
212.0951133161514
 20
497.8447375489571
 30
0.0
  0
VERTEX
  5
14F
  8
PROFILE_ON_6MM
 10
211.6697818672289
 20
496.9777546562988
 30
0.0
  0
VERTEX
  5
150
  8
PROFILE_ON_6MM
 10
211.2277261840696
 20
496.1243720614826
 30
0.0
  0
VERTEX
  5
151
  8
PROFILE_ON_6MM
 10
210.7692181911926
 20
495.2849174570817
 30
0.0
  0
VERTEX
  5
152
  8
PROFILE_ON_6MM
 10
210.2945298131167
 20
494.4597185356699
 30
0.0
  0
VERTEX
  5
153
  8
PROFILE_ON_6MM
 10
209.8039329743609
 20
493.6491029898206
 30
0.0
  0
VERTEX
  5
154
  8
PROFILE_ON_6MM
 10
209.2976995994441
 20
492.8533985121071
 30
0.0
  0
VERTEX
  5
155
  8
PROFILE_ON_6MM
 10
208.7761016128854
 20
492.0729327951032
 30
0.0
  0
VERTEX
  5
156
  8
PROFILE_ON_6MM
 10
208.2394109392037
 20
491.308033531382
 30
0.0
  0
VERTEX
  5
157
  8
PROFILE_ON_6MM
 10
207.6878995029178
 20
490.5590284135172
 30
0.0
  0
VERTEX
  5
158
  8
PROFILE_ON_6MM
 10
207.1218392285468
 20
489.8262451340822
 30
0.0
  0
VERTEX
  5
159
  8
PROFILE_ON_6MM
 10
206.5415020406096
 20
489.1100113856505
 30
0.0
  0
VERTEX
  5
15A
  8
PROFILE_ON_6MM
 10
205.9471598636251
 20
488.4106548607955
 30
0.0
  0
VERTEX
  5
15B
  8
PROFILE_ON_6MM
 10
205.3390846221124
 20
487.7285032520907
 30
0.0
  0
VERTEX
  5
15C
  8
PROFILE_ON_6MM
 10
204.7175482405903
 20
487.0638842521096
 30
0.0
  0
VERTEX
  5
15D
  8
PROFILE_ON_6MM
 10
204.0828226435778
 20
486.4171255534256
 30
0.0
  0
VERTEX
  5
15E
  8
PROFILE_ON_6MM
 10
203.4351797555939
 20
485.7885548486123
 30
0.0
  0
VERTEX
  5
15F
  8
PROFILE_ON_6MM
 10
202.7748915011574
 20
485.178499830243
 30
0.0
  0
VERTEX
  5
160
  8
PROFILE_ON_6MM
 10
202.1022298047875
 20
484.5872881908914
 30
0.0
  0
VERTEX
  5
161
  8
PROFILE_ON_6MM
 10
201.4174665910029
 20
484.0152476231307
 30
0.0
  0
VERTEX
  5
162
  8
PROFILE_ON_6MM
 10
200.7208737843227
 20
483.4627058195344
 30
0.0
  0
VERTEX
  5
163
  8
PROFILE_ON_6MM
 10
200.0127233092658
 20
482.9299904726763
 30
0.0
  0
VERTEX
  5
164
  8
PROFILE_ON_6MM
 10
199.2932870903511
 20
482.4174292751296
 30
0.0
  0
VERTEX
  5
165
  8
PROFILE_ON_6MM
 10
198.5628370520976
 20
481.9253499194677
 30
0.0
  0
VERTEX
  5
166
  8
PROFILE_ON_6MM
 10
197.8216451190243
 20
481.4540800982643
 30
0.0
  0
VERTEX
  5
167
  8
PROFILE_ON_6MM
 10
197.06998321565
 20
481.0039475040927
 30
0.0
  0
VERTEX
  5
168
  8
PROFILE_ON_6MM
 10
196.3081232664939
 20
480.5752798295264
 30
0.0
  0
VERTEX
  5
169
  8
PROFILE_ON_6MM
 10
195.5363371960747
 20
480.1684047671389
 30
0.0
  0
VERTEX
  5
16A
  8
PROFILE_ON_6MM
 10
194.7548969289114
 20
479.7836500095037
 30
0.0
  0
VERTEX
  5
16B
  8
PROFILE_ON_6MM
 10
193.9640743895231
 20
479.4213432491941
 30
0.0
  0
VERTEX
  5
16C
  8
PROFILE_ON_6MM
 10
193.1641415024286
 20
479.0818121787838
 30
0.0
  0
VERTEX
  5
16D
  8
PROFILE_ON_6MM
 10
192.3553701921469
 20
478.7653844908461
 30
0.0
  0
VERTEX
  5
16E
  8
PROFILE_ON_6MM
 10
191.5380323831969
 20
478.4723878779546
 30
0.0
  0
VERTEX
  5
16F
  8
PROFILE_ON_6MM
 10
190.7124000000977
 20
478.2031500326827
 30
0.0
  0
VERTEX
  5
170
  8
PROFILE_ON_6MM
 10
189.8787449673681
 20
477.957998647604
 30
0.0
  0
VERTEX
  5
171
  8
PROFILE_ON_6MM
 10
189.037339209527
 20
477.7372614152917
 30
0.0
  0
VERTEX
  5
172
  8
PROFILE_ON_6MM
 10
188.1884546510935
 20
477.5412660283195
 30
0.0
  0
VERTEX
  5
173
  8
PROFILE_ON_6MM
 10
187.3323632165865
 20
477.3703401792607
 30
0.0
  0
VERTEX
  5
174
  8
PROFILE_ON_6MM
 10
186.469336830525
 20
477.2248115606889
 30
0.0
  0
VERTEX
  5
175
  8
PROFILE_ON_6MM
 10
185.5996474174278
 20
477.1050078651775
 30
0.0
  0
VERTEX
  5
176
  8
PROFILE_ON_6MM
 10
184.723566901814
 20
477.0112567853
 30
0.0
  0
VERTEX
  5
177
  8
PROFILE_ON_6MM
 10
183.8413672082025
 20
476.9438860136299
 30
0.0
  0
VERTEX
  5
178
  8
PROFILE_ON_6MM
 10
182.9533202611121
 20
476.9032232427406
 30
0.0
  0
VERTEX
  5
179
  8
PROFILE_ON_6MM
 10
182.0596979850621
 20
476.8895961652057
 30
0.0
  0
VERTEX
  5
17A
  8
PROFILE_ON_6MM
 10
181.166075709012
 20
476.9032232427406
 30
0.0
  0
VERTEX
  5
17B
  8
PROFILE_ON_6MM
 10
180.2780287619217
 20
476.9438860136299
 30
0.0
  0
VERTEX
  5
17C
  8
PROFILE_ON_6MM
 10
179.3958290683101
 20
477.0112567853
 30
0.0
  0
VERTEX
  5
17D
  8
PROFILE_ON_6MM
 10
178.5197485526963
 20
477.1050078651775
 30
0.0
  0
VERTEX
  5
17E
  8
PROFILE_ON_6MM
 10
177.6500591395991
 20
477.2248115606889
 30
0.0
  0
VERTEX
  5
17F
  8
PROFILE_ON_6MM
 10
176.7870327535376
 20
477.3703401792607
 30
0.0
  0
VERTEX
  5
180
  8
PROFILE_ON_6MM
 10
175.9309413190306
 20
477.5412660283195
 30
0.0
  0
VERTEX
  5
181
  8
PROFILE_ON_6MM
 10
175.0820567605971
 20
477.7372614152917
 30
0.0
  0
VERTEX
  5
182
  8
PROFILE_ON_6MM
 10
174.240651002756
 20
477.957998647604
 30
0.0
  0
VERTEX
  5
183
  8
PROFILE_ON_6MM
 10
173.4069959700265
 20
478.2031500326827
 30
0.0
  0
VERTEX
  5
184
  8
PROFILE_ON_6MM
 10
172.5813635869272
 20
478.4723878779546
 30
0.0
  0
VERTEX
  5
185
  8
PROFILE_ON_6MM
 10
171.7640257779772
 20
478.7653844908461
 30
0.0
  0
VERTEX
  5
186
  8
PROFILE_ON_6MM
 10
170.9552544676955
 20
479.0818121787838
 30
0.0
  0
VERTEX
  5
187
  8
PROFILE_ON_6MM
 10
170.155321580601
 20
479.4213432491941
 30
0.0
  0
VERTEX
  5
188
  8
PROFILE_ON_6MM
 10
169.3644990412127
 20
479.7836500095037
 30
0.0
  0
VERTEX
  5
189
  8
PROFILE_ON_6MM
 10
168.5830587740494
 20
480.1684047671389
 30
0.0
  0
VERTEX
  5
18A
  8
PROFILE_ON_6MM
 10
167.8112727036303
 20
480.5752798295264
 30
0.0
  0
VERTEX
  5
18B
  8
PROFILE_ON_6MM
 10
167.0494127544741
 20
481.0039475040927
 30
0.0
  0
VERTEX
  5
18C
  8
PROFILE_ON_6MM
 10
166.2977508510998
 20
481.4540800982643
 30
0.0
  0
VERTEX
  5
18D
  8
PROFILE_ON_6MM
 10
165.5565589180265
 20
481.9253499194677
 30
0.0
  0
VERTEX
  5
18E
  8
PROFILE_ON_6MM
 10
164.826108879773
 20
482.4174292751296
 30
0.0
  0
VERTEX
  5
18F
  8
PROFILE_ON_6MM
 10
164.1066726608584
 20
482.9299904726763
 30
0.0
  0
VERTEX
  5
190
  8
PROFILE_ON_6MM
 10
163.3985221858014
 20
483.4627058195344
 30
0.0
  0
VERTEX
  5
191
  8
PROFILE_ON_6MM
 10
162.7019293791212
 20
484.0152476231307
 30
0.0
  0
VERTEX
  5
192
  8
PROFILE_ON_6MM
 10
162.0171661653366
 20
484.5872881908914
 30
0.0
  0
VERTEX
  5
193
  8
PROFILE_ON_6MM
 10
161.3445044689666
 20
485.178499830243
 30
0.0
  0
VERTEX
  5
194
  8
PROFILE_ON_6MM
 10
160.6842162145302
 20
485.7885548486123
 30
0.0
  0
VERTEX
  5
195
  8
PROFILE_ON_6MM
 10
160.0365733265463
 20
486.4171255534256
 30
0.0
  0
VERTEX
  5
196
  8
PROFILE_ON_6MM
 10
159.4018477295338
 20
487.0638842521096
 30
0.0
  0
VERTEX
  5
197
  8
PROFILE_ON_6MM
 10
158.7803113480117
 20
487.7285032520907
 30
0.0
  0
VERTEX
  5
198
  8
PROFILE_ON_6MM
 10
158.172236106499
 20
488.4106548607955
 30
0.0
  0
VERTEX
  5
199
  8
PROFILE_ON_6MM
 10
157.5778939295145
 20
489.1100113856505
 30
0.0
  0
VERTEX
  5
19A
  8
PROFILE_ON_6MM
 10
156.9975567415773
 20
489.8262451340822
 30
0.0
  0
VERTEX
  5
19B
  8
PROFILE_ON_6MM
 10
156.4314964672063
 20
490.5590284135172
 30
0.0
  0
VERTEX
  5
19C
  8
PROFILE_ON_6MM
 10
155.8799850309205
 20
491.308033531382
 30
0.0
  0
VERTEX
  5
19D
  8
PROFILE_ON_6MM
 10
155.3432943572387
 20
492.0729327951032
 30
0.0
  0
VERTEX
  5
19E
  8
PROFILE_ON_6MM
 10
154.82169637068
 20
492.8533985121071
 30
0.0
  0
VERTEX
  5
19F
  8
PROFILE_ON_6MM
 10
154.3154629957632
 20
493.6491029898206
 30
0.0
  0
VERTEX
  5
1A0
  8
PROFILE_ON_6MM
 10
153.8248661570074
 20
494.4597185356699
 30
0.0
  0
VERTEX
  5
1A1
  8
PROFILE_ON_6MM
 10
153.3501777789315
 20
495.2849174570817
 30
0.0
  0
VERTEX
  5
1A2
  8
PROFILE_ON_6MM
 10
152.8916697860545
 20
496.1243720614826
 30
0.0
  0
VERTEX
  5
1A3
  8
PROFILE_ON_6MM
 10
152.4496141028952
 20
496.9777546562988
 30
0.0
  0
VERTEX
  5
1A4
  8
PROFILE_ON_6MM
 10
152.0242826539727
 20
497.8447375489571
 30
0.0
  0
VERTEX
  5
1A5
  8
PROFILE_ON_6MM
 10
151.6159473638058
 20
498.724993046884
 30
0.0
  0
VERTEX
  5
1A6
  8
PROFILE_ON_6MM
 10
151.2248801569137
 20
499.618193457506
 30
0.0
  0
VERTEX
  5
1A7
  8
PROFILE_ON_6MM
 10
150.8513529578151
 20
500.5240110882497
 30
0.0
  0
VERTEX
  5
1A8
  8
PROFILE_ON_6MM
 10
150.495637691029
 20
501.4421182465415
 30
0.0
  0
VERTEX
  5
1A9
  8
PROFILE_ON_6MM
 10
150.1580062810744
 20
502.372187239808
 30
0.0
  0
VERTEX
  5
1AA
  8
PROFILE_ON_6MM
 10
149.8387306524702
 20
503.3138903754757
 30
0.0
  0
VERTEX
  5
1AB
  8
PROFILE_ON_6MM
 10
149.5380827297355
 20
504.2668999609712
 30
0.0
  0
VERTEX
  5
1AC
  8
PROFILE_ON_6MM
 10
149.2563344373891
 20
505.2308883037209
 30
0.0
  0
VERTEX
  5
1AD
  8
PROFILE_ON_6MM
 10
148.9937576999499
 20
506.2055277111515
 30
0.0
  0
VERTEX
  5
1AE
  8
PROFILE_ON_6MM
 10
148.750624441937
 20
507.1904904906895
 30
0.0
  0
VERTEX
  5
1AF
  8
PROFILE_ON_6MM
 10
148.5272065878693
 20
508.1854489497612
 30
0.0
  0
VERTEX
  5
1B0
  8
PROFILE_ON_6MM
 10
148.3237760622657
 20
509.1900753957934
 30
0.0
  0
VERTEX
  5
1B1
  8
PROFILE_ON_6MM
 10
148.1406047896452
 20
510.2040421362126
 30
0.0
  0
VERTEX
  5
1B2
  8
PROFILE_ON_6MM
 10
147.9779646945267
 20
511.2270214784452
 30
0.0
  0
VERTEX
  5
1B3
  8
PROFILE_ON_6MM
 10
147.8361277014292
 20
512.2586857299178
 30
0.0
  0
VERTEX
  5
1B4
  8
PROFILE_ON_6MM
 10
147.7153657348717
 20
513.298707198057
 30
0.0
  0
VERTEX
  5
1B5
  8
PROFILE_ON_6MM
 10
147.615950719373
 20
514.3467581902892
 30
0.0
  0
VERTEX
  5
1B6
  8
PROFILE_ON_6MM
 10
147.5381545794522
 20
515.402511014041
 30
0.0
  0
VERTEX
  5
1B7
  8
PROFILE_ON_6MM
 10
147.4822492396281
 20
516.4656379767388
 30
0.0
  0
VERTEX
  5
1B8
  8
PROFILE_ON_6MM
 10
147.4485066244198
 20
517.5358113858093
 30
0.0
  0
VERTEX
  5
1B9
  8
PROFILE_ON_6MM
 10
147.4371986583461
 20
518.6127035486791
 30
0.0
  0
VERTEX
  5
1BA
  8
PROFILE_ON_6MM
 10
147.4426562848238
 20
519.3561543946754
 30
0.0
  0
VERTEX
  5
1BB
  8
PROFILE_ON_6MM
 10
147.4589783043471
 20
520.0972566846632
 30
0.0
  0
SEQEND
  5
275
  8
PROFILE_ON_6MM
  0
POLYLINE
  5
70
  8
POCKET_10MM
 66
     1
 10
0.0
 20
0.0
 30
0.0
 70
     1
  0
VERTEX
  5
1BC
  8
POCKET_10MM
 10
256.7262500939614
 20
330.3544624966442
 30
0.0
  0
VERTEX
  5
1BD
  8
POCKET_10MM
 10
256.7262500939614
 20
396.0347296644294
 30
0.0
  0
VERTEX
  5
1BE
  8
POCKET_10MM
 10
120.2143222550333
 20
396.0347296644294
 30
0.0
  0
VERTEX
  5
1BF
  8
POCKET_10MM
 10
120.2143222550333
 20
330.3544624966442
 30
0.0
  0
SEQEND
  5
276
  8
POCKET_10MM
  0
POLYLINE
  5
71
  8
POCKET_10MM
 66
     1
 10
0.0
 20
0.0
 30
0.0
 70
     1
  0
VERTEX
  5
1C0
  8
POCKET_10MM
 10
256.7262861744974
 20
259.5228018255033
 30
0.0
  0
VERTEX
  5
1C1
  8
POCKET_10MM
 10
256.7262861744974
 20
289.5228018255033
 30
0.0
  0
VERTEX
  5
1C2
  8
POCKET_10MM
 10
120.2142861744974
 20
289.5228018255033
 30
0.0
  0
VERTEX
  5
1C3
  8
POCKET_10MM
 10
120.2142861744974
 20
259.5228018255033
 30
0.0
  0
SEQEND
  5
277
  8
POCKET_10MM
  0
POLYLINE
  5
73
  8
DRILL_15MM
 66
     1
 10
0.0
 20
0.0
 30
0.0
 70
     1
  0
VERTEX
  5
1C4
  8
DRILL_15MM
 10
321.047
 20
483.53
 30
0.0
 42
0.4142135623730951
  0
VERTEX
  5
1C5
  8
DRILL_15MM
 10
317.047
 20
479.53
 30
0.0
 42
0.4142135623730951
  0
VERTEX
  5
1C6
  8
DRILL_15MM
 10
321.047
 20
475.53
 30
0.0
 42
0.4142135623730951
  0
VERTEX
  5
1C7
  8
DRILL_15MM
 10
325.047
 20
479.53
 30
0.0
 42
0.4142135623730951
  0
SEQEND
  5
278
  8
DRILL_15MM
  0
POLYLINE
  5
74
  8
DRILL_15MM
 66
     1
 10
0.0
 20
0.0
 30
0.0
 70
     1
  0
VERTEX
  5
1C8
  8
DRILL_15MM
 10
321.047
 20
498.557
 30
0.0
 42
0.4142135623730951
  0
VERTEX
  5
1C9
  8
DRILL_15MM
 10
317.047
 20
494.557
 30
0.0
 42
0.4142135623730951
  0
VERTEX
  5
1CA
  8
DRILL_15MM
 10
321.047
 20
490.557
 30
0.0
 42
0.4142135623730951
  0
VERTEX
  5
1CB
  8
DRILL_15MM
 10
325.047
 20
494.557
 30
0.0
 42
0.4142135623730951
  0
SEQEND
  5
279
  8
DRILL_15MM
  0
POLYLINE
  5
75
  8
DRILL_15MM
 66
     1
 10
0.0
 20
0.0
 30
0.0
 70
     1
  0
VERTEX
  5
1CC
  8
DRILL_15MM
 10
181.4986052840808
 20
321.2490252280267
 30
0.0
 42
0.4142135623730951
  0
VERTEX
  5
1CD
  8
DRILL_15MM
 10
177.4986052840808
 20
317.2490252280267
 30
0.0
 42
0.4142135623730951
  0
VERTEX
  5
1CE
  8
DRILL_15MM
 10
181.4986052840808
 20
313.2490252280267
 30
0.0
 42
0.4142135623730951
  0
VERTEX
  5
1CF
  8
DRILL_15MM
 10
185.4986052840808
 20
317.2490252280267
 30
0.0
 42
0.4142135623730951
  0
SEQEND
  5
27A
  8
DRILL_15MM
  0
POLYLINE
  5
76
  8
DRILL_15MM
 66
     1
 10
0.0
 20
0.0
 30
0.0
 70
     1
  0
VERTEX
  5
1D0
  8
DRILL_15MM
 10
181.4986052840808
 20
306.2490252280267
 30
0.0
 42
0.4142135623730951
  0
VERTEX
  5
1D1
  8
DRILL_15MM
 10
177.4986052840808
 20
302.2490252280267
 30
0.0
 42
0.4142135623730951
  0
VERTEX
  5
1D2
  8
DRILL_15MM
 10
181.4986052840808
 20
298.2490252280267
 30
0.0
 42
0.4142135623730951
  0
VERTEX
  5
1D3
  8
DRILL_15MM
 10
185.4986052840808
 20
302.2490252280267
 30
0.0
 42
0.4142135623730951
  0
SEQEND
  5
27B
  8
DRILL_15MM
  0
POLYLINE
  5
78
  8
PROFILE_OUTSIDE_15MM
 66
     1
 10
0.0
 20
0.0
 30
0.0
 70
     1
  0
VERTEX
  5
1D4
  8
PROFILE_OUTSIDE_15MM
 10
396.047
 20
479.557
 30
0.0
  0
VERTEX
  5
1D5
  8
PROFILE_OUTSIDE_15MM
 10
396.047
 20
449.556999999742
 30
0.0
 42
-0.4142135623730951
  0
VERTEX
  5
1D6
  8
PROFILE_OUTSIDE_15MM
 10
386.0470000000566
 20
439.5569999999999
 30
0.0
  0
VERTEX
  5
1D7
  8
PROFILE_OUTSIDE_15MM
 10
106.0469999999748
 20
439.5569999999999
 30
0.0
 42
-0.4142135623730951
  0
VERTEX
  5
1D8
  8
PROFILE_OUTSIDE_15MM
 10
96.04700000000003
 20
449.5570000000475
 30
0.0
  0
VERTEX
  5
1D9
  8
PROFILE_OUTSIDE_15MM
 10
96.04700000000003
 20
679.557
 30
0.0
 42
-0.4142135623730951
  0
VERTEX
  5
1DA
  8
PROFILE_OUTSIDE_15MM
 10
106.047
 20
689.557
 30
0.0
  0
VERTEX
  5
1DB
  8
PROFILE_OUTSIDE_15MM
 10
386.0469999999139
 20
689.557
 30
0.0
 42
-0.4142135623730951
  0
VERTEX
  5
1DC
  8
PROFILE_OUTSIDE_15MM
 10
396.047
 20
679.5570000004087
 30
0.0
  0
VERTEX
  5
1DD
  8
PROFILE_OUTSIDE_15MM
 10
396.047
 20
619.5570000002341
 30
0.0
 42
-0.4142135623730951
  0
VERTEX
  5
1DE
  8
PROFILE_OUTSIDE_15MM
 10
386.0470000000039
 20
609.557
 30
0.0
  0
VERTEX
  5
1DF
  8
PROFILE_OUTSIDE_15MM
 10
253.4839085564564
 20
609.557
 30
0.0
  0
VERTEX
  5
1E0
  8
PROFILE_OUTSIDE_15MM
 10
253.4839085564564
 20
599.557
 30
0.0
  0
VERTEX
  5
1E1
  8
PROFILE_OUTSIDE_15MM
 10
386.047
 20
599.557
 30
0.0
 42
-0.4142135623730951
  0
VERTEX
  5
1E2
  8
PROFILE_OUTSIDE_15MM
 10
396.047
 20
589.5569999999731
 30
0.0
  0
VERTEX
  5
1E3
  8
PROFILE_OUTSIDE_15MM
 10
396.047
 20
494.5569999999999
 30
0.0
  0
VERTEX
  5
1E4
  8
PROFILE_OUTSIDE_15MM
 10
321.047
 20
494.5569999999999
 30
0.0
  0
VERTEX
  5
1E5
  8
PROFILE_OUTSIDE_15MM
 10
321.047
 20
479.5569999999999
 30
0.0
  0
SEQEND
  5
27C
  8
PROFILE_OUTSIDE_15MM
  0
POLYLINE
  5
79
  8
PROFILE_OUTSIDE_15MM
 66
     1
 10
0.0
 20
0.0
 30
0.0
 70
     1
  0
VERTEX
  5
1E6
  8
PROFILE_OUTSIDE_15MM
 10
271.6495497449665
 20
259.5228018255033
 30
0.0
  0
VERTEX
  5
1E7
  8
PROFILE_OUTSIDE_15MM
 10
321.6495497449665
 20
259.5228018255033
 30
0.0
  0
VERTEX
  5
1E8
  8
PROFILE_OUTSIDE_15MM
 10
321.6495497449665
 20
396.0347296644294
 30
0.0
  0
VERTEX
  5
1E9
  8
PROFILE_OUTSIDE_15MM
 10
271.6495497449665
 20
396.0347296644294
 30
0.0
  0
SEQEND
  5
27D
  8
PROFILE_OUTSIDE_15MM
  0
POLYLINE
  5
7A
  8
PROFILE_OUTSIDE_15MM
 66
     1
 10
0.0
 20
0.0
 30
0.0
 70
     1
  0
VERTEX
  5
1EA
  8
PROFILE_OUTSIDE_15MM
 10
106.4981562416109
 20
302.2488884832215
 30
0.0
  0
VERTEX
  5
1EB
  8
PROFILE_OUTSIDE_15MM
 10
181.4981562416109
 20
302.2488884832215
 30
0.0
  0
VERTEX
  5
1EC
  8
PROFILE_OUTSIDE_15MM
 10
181.4981562416109
 20
317.2488884832215
 30
0.0
  0
VERTEX
  5
1ED
  8
PROFILE_OUTSIDE_15MM
 10
106.4981562416109
 20
317.2488884832215
 30
0.0
  0
VERTEX
  5
1EE
  8
PROFILE_OUTSIDE_15MM
 10
106.4981562416109
 20
399.7787657450249
 30
0.0
  0
VERTEX
  5
1EF
  8
PROFILE_OUTSIDE_15MM
 10
106.5101272245176
 20
400.1904446839247
 30
0.0
  0
VERTEX
  5
1F0
  8
PROFILE_OUTSIDE_15MM
 10
106.5456548044842
 20
400.5967192726202
 30
0.0
  0
VERTEX
  5
1F1
  8
PROFILE_OUTSIDE_15MM
 10
106.6041609283666
 20
400.9970868562035
 30
0.0
  0
VERTEX
  5
1F2
  8
PROFILE_OUTSIDE_15MM
 10
106.6850675430206
 20
401.3910447797665
 30
0.0
  0
VERTEX
  5
1F3
  8
PROFILE_OUTSIDE_15MM
 10
106.7877965953021
 20
401.7780903884013
 30
0.0
  0
VERTEX
  5
1F4
  8
PROFILE_OUTSIDE_15MM
 10
106.911770032067
 20
402.1577210271999
 30
0.0
  0
VERTEX
  5
1F5
  8
PROFILE_OUTSIDE_15MM
 10
107.0564098001709
 20
402.5294340412544
 30
0.0
  0
VERTEX
  5
1F6
  8
PROFILE_OUTSIDE_15MM
 10
107.22113784647
 20
402.8927267756567
 30
0.0
  0
VERTEX
  5
1F7
  8
PROFILE_OUTSIDE_15MM
 10
107.4053761178199
 20
403.247096575499
 30
0.0
  0
VERTEX
  5
1F8
  8
PROFILE_OUTSIDE_15MM
 10
107.6085465610765
 20
403.5920407858732
 30
0.0
  0
VERTEX
  5
1F9
  8
PROFILE_OUTSIDE_15MM
 10
107.8300711230957
 20
403.9270567518714
 30
0.0
  0
VERTEX
  5
1FA
  8
PROFILE_OUTSIDE_15MM
 10
108.0693717507333
 20
404.2516418185857
 30
0.0
  0
VERTEX
  5
1FB
  8
PROFILE_OUTSIDE_15MM
 10
108.3258703908452
 20
404.5652933311079
 30
0.0
  0
VERTEX
  5
1FC
  8
PROFILE_OUTSIDE_15MM
 10
108.5989889902872
 20
404.8675086345303
 30
0.0
  0
VERTEX
  5
1FD
  8
PROFILE_OUTSIDE_15MM
 10
108.8881494959152
 20
405.1577850739448
 30
0.0
  0
VERTEX
  5
1FE
  8
PROFILE_OUTSIDE_15MM
 10
109.192773854585
 20
405.4356199944434
 30
0.0
  0
VERTEX
  5
1FF
  8
PROFILE_OUTSIDE_15MM
 10
109.5122840131525
 20
405.7005107411183
 30
0.0
  0
VERTEX
  5
200
  8
PROFILE_OUTSIDE_15MM
 10
109.8461019184735
 20
405.9519546590613
 30
0.0
  0
VERTEX
  5
201
  8
PROFILE_OUTSIDE_15MM
 10
110.1936495174039
 20
406.1894490933646
 30
0.0
  0
VERTEX
  5
202
  8
PROFILE_OUTSIDE_15MM
 10
110.5543487567995
 20
406.4124913891202
 30
0.0
  0
VERTEX
  5
203
  8
PROFILE_OUTSIDE_15MM
 10
110.9276215835162
 20
406.6205788914201
 30
0.0
  0
VERTEX
  5
204
  8
PROFILE_OUTSIDE_15MM
 10
111.3128899444098
 20
406.8132089453565
 30
0.0
  0
VERTEX
  5
205
  8
PROFILE_OUTSIDE_15MM
 10
111.7095757863362
 20
406.9898788960211
 30
0.0
  0
VERTEX
  5
206
  8
PROFILE_OUTSIDE_15MM
 10
112.1171010561513
 20
407.1500860885062
 30
0.0
  0
VERTEX
  5
207
  8
PROFILE_OUTSIDE_15MM
 10
112.5348877007108
 20
407.2933278679038
 30
0.0
  0
VERTEX
  5
208
  8
PROFILE_OUTSIDE_15MM
 10
112.9623576668706
 20
407.4191015793058
 30
0.0
  0
VERTEX
  5
209
  8
PROFILE_OUTSIDE_15MM
 10
113.3989329014865
 20
407.5269045678044
 30
0.0
  0
VERTEX
  5
20A
  8
PROFILE_OUTSIDE_15MM
 10
113.8440353514146
 20
407.6162341784916
 30
0.0
  0
VERTEX
  5
20B
  8
PROFILE_OUTSIDE_15MM
 10
114.2970869635104
 20
407.6865877564593
 30
0.0
  0
VERTEX
  5
20C
  8
PROFILE_OUTSIDE_15MM
 10
114.7575096846301
 20
407.7374626467997
 30
0.0
  0
VERTEX
  5
20D
  8
PROFILE_OUTSIDE_15MM
 10
115.2247254616292
 20
407.7683561946046
 30
0.0
  0
VERTEX
  5
20E
  8
PROFILE_OUTSIDE_15MM
 10
115.6981562413638
 20
407.7787657449663
 30
0.0
  0
VERTEX
  5
20F
  8
PROFILE_OUTSIDE_15MM
 10
327.2981562414049
 20
407.7787657449663
 30
0.0
  0
VERTEX
  5
210
  8
PROFILE_OUTSIDE_15MM
 10
327.7715870211424
 20
407.7683561946228
 30
0.0
  0
VERTEX
  5
211
  8
PROFILE_OUTSIDE_15MM
 10
328.2388027981455
 20
407.7374626468356
 30
0.0
  0
VERTEX
  5
212
  8
PROFILE_OUTSIDE_15MM
 10
328.6992255192699
 20
407.6865877565127
 30
0.0
  0
VERTEX
  5
213
  8
PROFILE_OUTSIDE_15MM
 10
329.1522771313716
 20
407.6162341785621
 30
0.0
  0
VERTEX
  5
214
  8
PROFILE_OUTSIDE_15MM
 10
329.5973795813064
 20
407.5269045678916
 30
0.0
  0
VERTEX
  5
215
  8
PROFILE_OUTSIDE_15MM
 10
330.03395481593
 20
407.4191015794094
 30
0.0
  0
VERTEX
  5
216
  8
PROFILE_OUTSIDE_15MM
 10
330.4614247820984
 20
407.2933278680232
 30
0.0
  0
VERTEX
  5
217
  8
PROFILE_OUTSIDE_15MM
 10
330.8792114266673
 20
407.150086088641
 30
0.0
  0
VERTEX
  5
218
  8
PROFILE_OUTSIDE_15MM
 10
331.2867366964925
 20
406.9898788961708
 30
0.0
  0
VERTEX
  5
219
  8
PROFILE_OUTSIDE_15MM
 10
331.6834225384299
 20
406.8132089455205
 30
0.0
  0
VERTEX
  5
21A
  8
PROFILE_OUTSIDE_15MM
 10
332.0686908993352
 20
406.6205788915981
 30
0.0
  0
VERTEX
  5
21B
  8
PROFILE_OUTSIDE_15MM
 10
332.4419637260643
 20
406.4124913893115
 30
0.0
  0
VERTEX
  5
21C
  8
PROFILE_OUTSIDE_15MM
 10
332.8026629654731
 20
406.1894490935687
 30
0.0
  0
VERTEX
  5
21D
  8
PROFILE_OUTSIDE_15MM
 10
333.1502105644173
 20
405.9519546592776
 30
0.0
  0
VERTEX
  5
21E
  8
PROFILE_OUTSIDE_15MM
 10
333.4840284697528
 20
405.7005107413461
 30
0.0
  0
VERTEX
  5
21F
  8
PROFILE_OUTSIDE_15MM
 10
333.8035386283353
 20
405.4356199946822
 30
0.0
  0
VERTEX
  5
220
  8
PROFILE_OUTSIDE_15MM
 10
334.1081629870208
 20
405.1577850741939
 30
0.0
  0
VERTEX
  5
221
  8
PROFILE_OUTSIDE_15MM
 10
334.397323492665
 20
404.867508634789
 30
0.0
  0
VERTEX
  5
222
  8
PROFILE_OUTSIDE_15MM
 10
334.6704420921238
 20
404.5652933313756
 30
0.0
  0
VERTEX
  5
223
  8
PROFILE_OUTSIDE_15MM
 10
334.926940732253
 20
404.2516418188617
 30
0.0
  0
VERTEX
  5
224
  8
PROFILE_OUTSIDE_15MM
 10
335.1662413599083
 20
403.9270567521551
 30
0.0
  0
VERTEX
  5
225
  8
PROFILE_OUTSIDE_15MM
 10
335.3877659219457
 20
403.5920407861637
 30
0.0
  0
VERTEX
  5
226
  8
PROFILE_OUTSIDE_15MM
 10
335.5909363652209
 20
403.2470965757956
 30
0.0
  0
VERTEX
  5
227
  8
PROFILE_OUTSIDE_15MM
 10
335.7751746365897
 20
402.8927267759586
 30
0.0
  0
VERTEX
  5
228
  8
PROFILE_OUTSIDE_15MM
 10
335.939902682908
 20
402.5294340415608
 30
0.0
  0
VERTEX
  5
229
  8
PROFILE_OUTSIDE_15MM
 10
336.0845424510317
 20
402.1577210275101
 30
0.0
  0
VERTEX
  5
22A
  8
PROFILE_OUTSIDE_15MM
 10
336.2085158878165
 20
401.7780903887143
 30
0.0
  0
VERTEX
  5
22B
  8
PROFILE_OUTSIDE_15MM
 10
336.3112449401182
 20
401.3910447800815
 30
0.0
  0
VERTEX
  5
22C
  8
PROFILE_OUTSIDE_15MM
 10
336.3921515547926
 20
400.9970868565197
 30
0.0
  0
VERTEX
  5
22D
  8
PROFILE_OUTSIDE_15MM
 10
336.4506576786957
 20
400.5967192729366
 30
0.0
  0
VERTEX
  5
22E
  8
PROFILE_OUTSIDE_15MM
 10
336.4861852586832
 20
400.1904446842404
 30
0.0
  0
VERTEX
  5
22F
  8
PROFILE_OUTSIDE_15MM
 10
336.4981562416109
 20
399.778765745339
 30
0.0
  0
VERTEX
  5
230
  8
PROFILE_OUTSIDE_15MM
 10
336.4981562416109
 20
255.7787657449637
 30
0.0
  0
VERTEX
  5
231
  8
PROFILE_OUTSIDE_15MM
 10
336.4861852586971
 20
255.3670868060552
 30
0.0
  0
VERTEX
  5
232
  8
PROFILE_OUTSIDE_15MM
 10
336.4506576787229
 20
254.9608122173514
 30
0.0
  0
VERTEX
  5
233
  8
PROFILE_OUTSIDE_15MM
 10
336.3921515548326
 20
254.5604446337603
 30
0.0
  0
VERTEX
  5
234
  8
PROFILE_OUTSIDE_15MM
 10
336.3112449401702
 20
254.1664867101898
 30
0.0
  0
VERTEX
  5
235
  8
PROFILE_OUTSIDE_15MM
 10
336.20851588788
 20
253.7794411015481
 30
0.0
  0
VERTEX
  5
236
  8
PROFILE_OUTSIDE_15MM
 10
336.0845424511062
 20
253.3998104627429
 30
0.0
  0
VERTEX
  5
237
  8
PROFILE_OUTSIDE_15MM
 10
335.9399026829929
 20
253.0280974486822
 30
0.0
  0
VERTEX
  5
238
  8
PROFILE_OUTSIDE_15MM
 10
335.7751746366843
 20
252.6648047142742
 30
0.0
  0
VERTEX
  5
239
  8
PROFILE_OUTSIDE_15MM
 10
335.5909363653246
 20
252.3104349144266
 30
0.0
  0
VERTEX
  5
23A
  8
PROFILE_OUTSIDE_15MM
 10
335.3877659220578
 20
251.9654907040475
 30
0.0
  0
VERTEX
  5
23B
  8
PROFILE_OUTSIDE_15MM
 10
335.1662413600283
 20
251.6304747380449
 30
0.0
  0
VERTEX
  5
23C
  8
PROFILE_OUTSIDE_15MM
 10
334.9269407323801
 20
251.3058896713267
 30
0.0
  0
VERTEX
  5
23D
  8
PROFILE_OUTSIDE_15MM
 10
334.6704420922574
 20
250.9922381588009
 30
0.0
  0
VERTEX
  5
23E
  8
PROFILE_OUTSIDE_15MM
 10
334.3973234928045
 20
250.6900228553755
 30
0.0
  0
VERTEX
  5
23F
  8
PROFILE_OUTSIDE_15MM
 10
334.1081629871655
 20
250.3997464159584
 30
0.0
  0
VERTEX
  5
240
  8
PROFILE_OUTSIDE_15MM
 10
333.8035386284845
 20
250.1219114954577
 30
0.0
  0
VERTEX
  5
241
  8
PROFILE_OUTSIDE_15MM
 10
333.4840284699058
 20
249.8570207487811
 30
0.0
  0
VERTEX
  5
242
  8
PROFILE_OUTSIDE_15MM
 10
333.1502105645734
 20
249.6055768308369
 30
0.0
  0
VERTEX
  5
243
  8
PROFILE_OUTSIDE_15MM
 10
332.8026629656316
 20
249.3680823965328
 30
0.0
  0
VERTEX
  5
244
  8
PROFILE_OUTSIDE_15MM
 10
332.4419637262245
 20
249.145040100777
 30
0.0
  0
VERTEX
  5
245
  8
PROFILE_OUTSIDE_15MM
 10
332.0686908994963
 20
248.9369525984773
 30
0.0
  0
VERTEX
  5
246
  8
PROFILE_OUTSIDE_15MM
 10
331.6834225385912
 20
248.7443225445417
 30
0.0
  0
VERTEX
  5
247
  8
PROFILE_OUTSIDE_15MM
 10
331.2867366966534
 20
248.5676525938782
 30
0.0
  0
VERTEX
  5
248
  8
PROFILE_OUTSIDE_15MM
 10
330.8792114268269
 20
248.4074454013948
 30
0.0
  0
VERTEX
  5
249
  8
PROFILE_OUTSIDE_15MM
 10
330.4614247822561
 20
248.2642036219995
 30
0.0
  0
VERTEX
  5
24A
  8
PROFILE_OUTSIDE_15MM
 10
330.033954816085
 20
248.1384299106001
 30
0.0
  0
VERTEX
  5
24B
  8
PROFILE_OUTSIDE_15MM
 10
329.5973795814579
 20
248.0306269221047
 30
0.0
  0
VERTEX
  5
24C
  8
PROFILE_OUTSIDE_15MM
 10
329.1522771315189
 20
247.9412973114213
 30
0.0
  0
VERTEX
  5
24D
  8
PROFILE_OUTSIDE_15MM
 10
328.6992255194121
 20
247.8709437334578
 30
0.0
  0
VERTEX
  5
24E
  8
PROFILE_OUTSIDE_15MM
 10
328.2388027982818
 20
247.8200688431221
 30
0.0
  0
VERTEX
  5
24F
  8
PROFILE_OUTSIDE_15MM
 10
327.7715870212721
 20
247.7891752953223
 30
0.0
  0
VERTEX
  5
250
  8
PROFILE_OUTSIDE_15MM
 10
327.2981562415272
 20
247.7787657449664
 30
0.0
  0
VERTEX
  5
251
  8
PROFILE_OUTSIDE_15MM
 10
115.6981562416108
 20
247.7787657449664
 30
0.0
  0
VERTEX
  5
252
  8
PROFILE_OUTSIDE_15MM
 10
115.224725461868
 20
247.7891752953242
 30
0.0
  0
VERTEX
  5
253
  8
PROFILE_OUTSIDE_15MM
 10
114.7575096848605
 20
247.8200688431258
 30
0.0
  0
VERTEX
  5
254
  8
PROFILE_OUTSIDE_15MM
 10
114.2970869637325
 20
247.8709437334631
 30
0.0
  0
VERTEX
  5
255
  8
PROFILE_OUTSIDE_15MM
 10
113.8440353516281
 20
247.9412973114282
 30
0.0
  0
VERTEX
  5
256
  8
PROFILE_OUTSIDE_15MM
 10
113.3989329016915
 20
248.030626922113
 30
0.0
  0
VERTEX
  5
257
  8
PROFILE_OUTSIDE_15MM
 10
112.9623576670668
 20
248.1384299106097
 30
0.0
  0
VERTEX
  5
258
  8
PROFILE_OUTSIDE_15MM
 10
112.5348877008983
 20
248.2642036220103
 30
0.0
  0
VERTEX
  5
259
  8
PROFILE_OUTSIDE_15MM
 10
112.1171010563301
 20
248.4074454014067
 30
0.0
  0
VERTEX
  5
25A
  8
PROFILE_OUTSIDE_15MM
 10
111.7095757865063
 20
248.5676525938911
 30
0.0
  0
VERTEX
  5
25B
  8
PROFILE_OUTSIDE_15MM
 10
111.3128899445712
 20
248.7443225445554
 30
0.0
  0
VERTEX
  5
25C
  8
PROFILE_OUTSIDE_15MM
 10
110.9276215836688
 20
248.9369525984917
 30
0.0
  0
VERTEX
  5
25D
  8
PROFILE_OUTSIDE_15MM
 10
110.5543487569434
 20
249.1450401007921
 30
0.0
  0
VERTEX
  5
25E
  8
PROFILE_OUTSIDE_15MM
 10
110.1936495175391
 20
249.3680823965484
 30
0.0
  0
VERTEX
  5
25F
  8
PROFILE_OUTSIDE_15MM
 10
109.8461019186001
 20
249.6055768308528
 30
0.0
  0
VERTEX
  5
260
  8
PROFILE_OUTSIDE_15MM
 10
109.5122840132705
 20
249.8570207487974
 30
0.0
  0
VERTEX
  5
261
  8
PROFILE_OUTSIDE_15MM
 10
109.1927738546946
 20
250.121911495474
 30
0.0
  0
VERTEX
  5
262
  8
PROFILE_OUTSIDE_15MM
 10
108.8881494960165
 20
250.3997464159748
 30
0.0
  0
VERTEX
  5
263
  8
PROFILE_OUTSIDE_15MM
 10
108.5989889903803
 20
250.6900228553918
 30
0.0
  0
VERTEX
  5
264
  8
PROFILE_OUTSIDE_15MM
 10
108.3258703909302
 20
250.9922381588171
 30
0.0
  0
VERTEX
  5
265
  8
PROFILE_OUTSIDE_15MM
 10
108.0693717508104
 20
251.3058896713425
 30
0.0
  0
VERTEX
  5
266
  8
PROFILE_OUTSIDE_15MM
 10
107.830071123165
 20
251.6304747380603
 30
0.0
  0
VERTEX
  5
267
  8
PROFILE_OUTSIDE_15MM
 10
107.6085465611383
 20
251.9654907040623
 30
0.0
  0
VERTEX
  5
268
  8
PROFILE_OUTSIDE_15MM
 10
107.4053761178743
 20
252.3104349144407
 30
0.0
  0
VERTEX
  5
269
  8
PROFILE_OUTSIDE_15MM
 10
107.2211378465173
 20
252.6648047142875
 30
0.0
  0
VERTEX
  5
26A
  8
PROFILE_OUTSIDE_15MM
 10
107.0564098002114
 20
253.0280974486946
 30
0.0
  0
VERTEX
  5
26B
  8
PROFILE_OUTSIDE_15MM
 10
106.9117700321007
 20
253.3998104627542
 30
0.0
  0
VERTEX
  5
26C
  8
PROFILE_OUTSIDE_15MM
 10
106.7877965953295
 20
253.7794411015583
 30
0.0
  0
VERTEX
  5
26D
  8
PROFILE_OUTSIDE_15MM
 10
106.6850675430419
 20
254.1664867101988
 30
0.0
  0
VERTEX
  5
26E
  8
PROFILE_OUTSIDE_15MM
 10
106.6041609283821
 20
254.5604446337678
 30
0.0
  0
VERTEX
  5
26F
  8
PROFILE_OUTSIDE_15MM
 10
106.5456548044942
 20
254.9608122173574
 30
0.0
  0
VERTEX
  5
270
  8
PROFILE_OUTSIDE_15MM
 10
106.5101272245224
 20
255.3670868060595
 30
0.0
  0
VERTEX
  5
271
  8
PROFILE_OUTSIDE_15MM
 10
106.4981562416109
 20
255.7787657449663
 30
0.0
  0
SEQEND
  5
27E
  8
PROFILE_OUTSIDE_15MM
  0
ENDSEC
  0
EOF
