999
\"DXF R12 Output\" (www.mydxf.blogspot.com)
 0 
SECTION
 2 
HEADER
 9 
$ACADVER
 1 
AC1009
 9 
$EXTMIN
 10 
 0 
 20 
 0 
 9 
$EXTMAX
 10 
 8.5 
 20 
 11 
 0 
ENDSEC
 0 
SECTION
 2 
ENTITIES
0
LINE
8
Layer 1
10
80.387421
20
198.276866
11
78.185894
21
198.100252
0
LINE
8
Layer 1
10
78.185894
20
198.100252
11
76.718533
21
197.641866
0
LINE
8
Layer 1
10
76.718533
20
197.641866
11
74.429870
21
195.561271
0
LINE
8
Layer 1
10
74.429870
20
195.561271
11
73.359970
21
194.378486
0
LINE
8
Layer 1
10
73.359970
20
194.378486
11
72.908533
21
193.690755
0
LINE
8
Layer 1
10
72.908533
20
193.690755
11
71.719381
21
190.334056
0
LINE
8
Layer 1
10
71.719381
20
190.334056
11
71.278541
21
188.602288
0
LINE
8
Layer 1
10
71.278541
20
188.602288
11
71.109366
21
186.838046
0
LINE
8
Layer 1
10
71.109366
20
186.838046
11
71.097514
21
186.018039
0
LINE
8
Layer 1
10
71.097514
20
186.018039
11
70.590295
21
185.016211
0
LINE
8
Layer 1
10
70.590295
20
185.016211
11
69.489330
21
183.690577
0
LINE
8
Layer 1
10
69.489330
20
183.690577
11
67.696241
21
181.899158
0
LINE
8
Layer 1
10
67.696241
20
181.899158
11
65.765778
21
179.952498
0
LINE
8
Layer 1
10
65.765778
20
179.952498
11
64.525192
21
178.387614
0
LINE
8
Layer 1
10
64.525192
20
178.387614
11
63.805182
21
176.944699
0
LINE
8
Layer 1
10
63.805182
20
176.944699
11
63.436449
21
175.363948
0
LINE
8
Layer 1
10
63.436449
20
175.363948
11
63.072020
21
174.056999
0
LINE
8
Layer 1
10
63.072020
20
174.056999
11
62.397114
21
172.412186
0
LINE
8
Layer 1
10
62.397114
20
172.412186
11
61.611286
21
170.865215
0
LINE
8
Layer 1
10
61.611286
20
170.865215
11
60.914088
21
169.851795
0
LINE
8
Layer 1
10
60.914088
20
169.851795
11
60.129701
21
169.506384
0
LINE
8
Layer 1
10
60.129701
20
169.506384
11
58.663530
21
169.137320
0
LINE
8
Layer 1
10
58.663530
20
169.137320
11
55.472491
21
168.705268
0
LINE
8
Layer 1
10
55.472491
20
168.705268
11
53.813647
21
168.014873
0
LINE
8
Layer 1
10
53.813647
20
168.014873
11
52.241656
21
167.137316
0
LINE
8
Layer 1
10
52.241656
20
167.137316
11
50.675534
21
166.216912
0
LINE
8
Layer 1
10
50.675534
20
166.216912
11
49.034296
21
165.397976
0
LINE
8
Layer 1
10
49.034296
20
165.397976
11
47.036484
21
164.529464
0
LINE
8
Layer 1
10
47.036484
20
164.529464
11
45.735428
21
163.779819
0
LINE
8
Layer 1
10
45.735428
20
163.779819
11
44.913025
21
162.990381
0
LINE
8
Layer 1
10
44.913025
20
162.990381
11
44.351171
21
162.002490
0
LINE
8
Layer 1
10
44.351171
20
162.002490
11
43.837582
21
160.594006
0
LINE
8
Layer 1
10
43.837582
20
160.594006
11
43.468400
21
158.911847
0
LINE
8
Layer 1
10
43.468400
20
158.911847
11
43.001796
21
153.729851
0
LINE
8
Layer 1
10
43.001796
20
153.729851
11
42.578463
21
148.482281
0
LINE
8
Layer 1
10
42.578463
20
148.482281
11
42.564621
21
147.451988
0
LINE
8
Layer 1
10
42.564621
20
147.451988
11
42.887313
21
146.328994
0
LINE
8
Layer 1
10
42.887313
20
146.328994
11
43.558289
21
145.083199
0
LINE
8
Layer 1
10
43.558289
20
145.083199
11
44.589296
21
143.684504
0
LINE
8
Layer 1
10
44.589296
20
143.684504
11
45.187027
21
142.833371
0
LINE
8
Layer 1
10
45.187027
20
142.833371
11
45.481772
21
142.113173
0
LINE
8
Layer 1
10
45.481772
20
142.113173
11
45.473595
21
141.526001
0
LINE
8
Layer 1
10
45.473595
20
141.526001
11
45.162560
21
141.073948
0
LINE
8
Layer 1
10
45.162560
20
141.073948
11
44.638409
21
140.933123
0
LINE
8
Layer 1
10
44.638409
20
140.933123
11
43.787364
21
141.046063
0
LINE
8
Layer 1
10
43.787364
20
141.046063
11
41.458394
21
141.947073
0
LINE
8
Layer 1
10
41.458394
20
141.947073
11
40.050361
21
142.584385
0
LINE
8
Layer 1
10
40.050361
20
142.584385
11
38.861147
21
142.924881
0
LINE
8
Layer 1
10
38.861147
20
142.924881
11
37.768907
21
142.990344
0
LINE
8
Layer 1
10
37.768907
20
142.990344
11
36.651796
21
142.802559
0
LINE
8
Layer 1
10
36.651796
20
142.802559
11
35.218657
21
142.622630
0
LINE
8
Layer 1
10
35.218657
20
142.622630
11
33.871197
21
142.929712
0
LINE
8
Layer 1
10
33.871197
20
142.929712
11
32.452214
21
143.790579
0
LINE
8
Layer 1
10
32.452214
20
143.790579
11
30.804505
21
145.272004
0
LINE
8
Layer 1
10
30.804505
20
145.272004
11
29.229396
21
146.741672
0
LINE
8
Layer 1
10
29.229396
20
146.741672
11
28.028419
21
147.505064
0
LINE
8
Layer 1
10
28.028419
20
147.505064
11
26.890363
21
147.689912
0
LINE
8
Layer 1
10
26.890363
20
147.689912
11
25.504018
21
147.423948
0
LINE
8
Layer 1
10
25.504018
20
147.423948
11
24.104326
21
146.941320
0
LINE
8
Layer 1
10
24.104326
20
146.941320
11
22.785811
21
146.270933
0
LINE
8
Layer 1
10
22.785811
20
146.270933
11
21.483640
21
145.566307
0
LINE
8
Layer 1
10
21.483640
20
145.566307
11
20.132976
21
144.980962
0
LINE
8
Layer 1
10
20.132976
20
144.980962
11
19.268092
21
144.657717
0
LINE
8
Layer 1
10
19.268092
20
144.657717
11
18.059556
21
143.845111
0
LINE
8
Layer 1
10
18.059556
20
143.845111
11
16.811757
21
142.775812
0
LINE
8
Layer 1
10
16.811757
20
142.775812
11
15.829088
21
141.682490
0
LINE
8
Layer 1
10
15.829088
20
141.682490
11
14.559701
21
139.669234
0
LINE
8
Layer 1
10
14.559701
20
139.669234
11
13.509938
21
137.494756
0
LINE
8
Layer 1
10
13.509938
20
137.494756
11
12.792927
21
135.431975
0
LINE
8
Layer 1
10
12.792927
20
135.431975
11
12.521796
21
133.753809
0
LINE
8
Layer 1
10
12.521796
20
133.753809
11
12.837893
21
132.460504
0
LINE
8
Layer 1
10
12.837893
20
132.460504
11
13.633046
21
130.614087
0
LINE
8
Layer 1
10
13.633046
20
130.614087
11
14.883497
21
128.544749
0
LINE
8
Layer 1
10
14.883497
20
128.544749
11
16.499365
21
126.883462
0
LINE
8
Layer 1
10
16.499365
20
126.883462
11
19.704558
21
123.944334
0
LINE
8
Layer 1
10
19.704558
20
123.944334
11
20.271078
21
123.172304
0
LINE
8
Layer 1
10
20.271078
20
123.172304
11
20.415199
21
122.570754
0
LINE
8
Layer 1
10
20.415199
20
122.570754
11
20.598941
21
121.537347
0
LINE
8
Layer 1
10
20.598941
20
121.537347
11
21.121991
21
120.510862
0
LINE
8
Layer 1
10
21.121991
20
120.510862
11
21.942079
21
119.553003
0
LINE
8
Layer 1
10
21.942079
20
119.553003
11
23.016935
21
118.725476
0
LINE
8
Layer 1
10
23.016935
20
118.725476
11
25.310953
21
117.033582
0
LINE
8
Layer 1
10
25.310953
20
117.033582
11
26.168556
21
116.205786
0
LINE
8
Layer 1
10
26.168556
20
116.205786
11
26.721101
21
115.488740
0
LINE
8
Layer 1
10
26.721101
20
115.488740
11
27.007898
21
113.970915
0
LINE
8
Layer 1
10
27.007898
20
113.970915
11
27.232629
21
111.114295
0
LINE
8
Layer 1
10
27.232629
20
111.114295
11
27.555356
21
107.139413
0
LINE
8
Layer 1
10
27.555356
20
107.139413
11
28.169406
21
103.208305
0
LINE
8
Layer 1
10
28.169406
20
103.208305
11
29.860824
21
95.424504
0
LINE
8
Layer 1
10
29.860824
20
95.424504
11
30.651429
21
92.854672
0
LINE
8
Layer 1
10
30.651429
20
92.854672
11
31.943966
21
89.424458
0
LINE
8
Layer 1
10
31.943966
20
89.424458
11
33.334845
21
86.143382
0
LINE
8
Layer 1
10
33.334845
20
86.143382
11
34.420477
21
84.020962
0
LINE
8
Layer 1
10
34.420477
20
84.020962
11
34.803588
21
82.584678
0
LINE
8
Layer 1
10
34.803588
20
82.584678
11
34.790894
21
80.978254
0
LINE
8
Layer 1
10
34.790894
20
80.978254
11
34.433453
21
79.086025
0
LINE
8
Layer 1
10
34.433453
20
79.086025
11
33.848058
21
77.194826
0
LINE
8
Layer 1
10
33.848058
20
77.194826
11
32.550755
21
73.860962
0
LINE
8
Layer 1
10
32.550755
20
73.860962
11
31.213443
21
70.847116
0
LINE
8
Layer 1
10
31.213443
20
70.847116
11
30.103168
21
67.748755
0
LINE
8
Layer 1
10
30.103168
20
67.748755
11
28.017560
21
61.504920
0
LINE
8
Layer 1
10
28.017560
20
61.504920
11
27.786467
21
60.507051
0
LINE
8
Layer 1
10
27.786467
20
60.507051
11
27.807600
21
59.288300
0
LINE
8
Layer 1
10
27.807600
20
59.288300
11
28.077028
21
57.876991
0
LINE
8
Layer 1
10
28.077028
20
57.876991
11
28.590824
21
56.301448
0
LINE
8
Layer 1
10
28.590824
20
56.301448
11
29.173443
21
54.278612
0
LINE
8
Layer 1
10
29.173443
20
54.278612
11
29.492687
21
52.140676
0
LINE
8
Layer 1
10
29.492687
20
52.140676
11
29.513136
21
50.310418
0
LINE
8
Layer 1
10
29.513136
20
50.310418
11
29.400242
21
49.642786
0
LINE
8
Layer 1
10
29.400242
20
49.642786
11
29.199366
21
49.210615
0
LINE
8
Layer 1
10
29.199366
20
49.210615
11
28.779917
21
48.032105
0
LINE
8
Layer 1
10
28.779917
20
48.032105
11
28.494665
21
46.033102
0
LINE
8
Layer 1
10
28.494665
20
46.033102
11
28.398605
21
43.825894
0
LINE
8
Layer 1
10
28.398605
20
43.825894
11
28.546727
21
42.022768
0
LINE
8
Layer 1
10
28.546727
20
42.022768
11
28.932631
21
39.091480
0
LINE
8
Layer 1
10
28.932631
20
39.091480
11
29.463949
21
36.184295
0
LINE
8
Layer 1
10
29.463949
20
36.184295
11
30.106549
21
33.655302
0
LINE
8
Layer 1
10
30.106549
20
33.655302
11
30.268852
21
32.078442
0
LINE
8
Layer 1
10
30.268852
20
32.078442
11
30.165280
21
31.575582
0
LINE
8
Layer 1
10
30.165280
20
31.575582
11
29.936099
21
31.224978
0
LINE
8
Layer 1
10
29.936099
20
31.224978
11
29.093533
21
30.866170
0
LINE
8
Layer 1
10
29.093533
20
30.866170
11
24.084088
21
29.948948
0
LINE
8
Layer 1
10
24.084088
20
29.948948
11
21.527379
21
29.312872
0
LINE
8
Layer 1
10
21.527379
20
29.312872
11
19.004088
21
28.114504
0
LINE
8
Layer 1
10
19.004088
20
28.114504
11
18.650745
21
28.106899
0
LINE
8
Layer 1
10
18.650745
20
28.106899
11
18.122615
21
28.339129
0
LINE
8
Layer 1
10
18.122615
20
28.339129
11
16.590143
21
29.163682
0
LINE
8
Layer 1
10
16.590143
20
29.163682
11
15.609872
21
29.576300
0
LINE
8
Layer 1
10
15.609872
20
29.576300
11
14.502959
21
29.869341
0
LINE
8
Layer 1
10
14.502959
20
29.869341
11
13.281440
21
29.952952
0
LINE
8
Layer 1
10
13.281440
20
29.952952
11
11.957351
21
29.737281
0
LINE
8
Layer 1
10
11.957351
20
29.737281
11
11.422187
21
29.172042
0
LINE
8
Layer 1
10
11.422187
20
29.172042
11
10.880495
21
28.312255
0
LINE
8
Layer 1
10
10.880495
20
28.312255
11
9.902366
21
26.021404
0
LINE
8
Layer 1
10
9.902366
20
26.021404
11
9.272632
21
23.489464
0
LINE
8
Layer 1
10
9.272632
20
23.489464
11
9.166435
21
22.328315
0
LINE
8
Layer 1
10
9.166435
20
22.328315
11
9.240962
21
21.341170
0
LINE
8
Layer 1
10
9.240962
20
21.341170
11
9.520128
21
20.632693
0
LINE
8
Layer 1
10
9.520128
20
20.632693
11
9.990642
21
19.941629
0
LINE
8
Layer 1
10
9.990642
20
19.941629
11
11.974990
21
18.042698
0
LINE
8
Layer 1
10
11.974990
20
18.042698
11
14.090747
21
16.337391
0
LINE
8
Layer 1
10
14.090747
20
16.337391
11
16.136030
21
15.034868
0
LINE
8
Layer 1
10
16.136030
20
15.034868
11
18.493067
21
13.926573
0
LINE
8
Layer 1
10
18.493067
20
13.926573
11
21.544088
21
12.803948
0
LINE
8
Layer 1
10
21.544088
20
12.803948
11
24.857833
21
11.824290
0
LINE
8
Layer 1
10
24.857833
20
11.824290
11
28.445113
21
11.037149
0
LINE
8
Layer 1
10
28.445113
20
11.037149
11
32.215491
21
10.458721
0
LINE
8
Layer 1
10
32.215491
20
10.458721
11
36.078533
21
10.105198
0
LINE
8
Layer 1
10
36.078533
20
10.105198
11
37.860136
21
9.971164
0
LINE
8
Layer 1
10
37.860136
20
9.971164
11
39.081004
21
9.762793
0
LINE
8
Layer 1
10
39.081004
20
9.762793
11
40.176470
21
9.368438
0
LINE
8
Layer 1
10
40.176470
20
9.368438
11
41.581866
21
8.676448
0
LINE
8
Layer 1
10
41.581866
20
8.676448
11
43.856401
21
7.662312
0
LINE
8
Layer 1
10
43.856401
20
7.662312
11
45.956310
21
6.956656
0
LINE
8
Layer 1
10
45.956310
20
6.956656
11
48.404250
21
6.579573
0
LINE
8
Layer 1
10
48.404250
20
6.579573
11
51.838880
21
6.436309
0
LINE
8
Layer 1
10
51.838880
20
6.436309
11
53.924582
21
6.333008
0
LINE
8
Layer 1
10
53.924582
20
6.333008
11
55.695097
21
6.428358
0
LINE
8
Layer 1
10
55.695097
20
6.428358
11
57.193354
21
6.715096
0
LINE
8
Layer 1
10
57.193354
20
6.715096
11
58.462283
21
7.185962
0
LINE
8
Layer 1
10
58.462283
20
7.185962
11
59.736027
21
7.978676
0
LINE
8
Layer 1
10
59.736027
20
7.978676
11
60.815454
21
9.010084
0
LINE
8
Layer 1
10
60.815454
20
9.010084
11
61.772218
21
10.267140
0
LINE
8
Layer 1
10
61.772218
20
10.267140
11
62.677977
21
11.736795
0
LINE
8
Layer 1
10
62.677977
20
11.736795
11
63.942778
21
14.915550
0
LINE
8
Layer 1
10
63.942778
20
14.915550
11
64.742925
21
18.230224
0
LINE
8
Layer 1
10
64.742925
20
18.230224
11
65.224973
21
21.623114
0
LINE
8
Layer 1
10
65.224973
20
21.623114
11
65.535477
21
25.036518
0
LINE
8
Layer 1
10
65.535477
20
25.036518
11
65.703338
21
26.985519
0
LINE
8
Layer 1
10
65.703338
20
26.985519
11
65.961037
21
28.390472
0
LINE
8
Layer 1
10
65.961037
20
28.390472
11
66.400627
21
29.600114
0
LINE
8
Layer 1
10
66.400627
20
29.600114
11
67.114158
21
30.963184
0
LINE
8
Layer 1
10
67.114158
20
30.963184
11
68.600130
21
34.449356
0
LINE
8
Layer 1
10
68.600130
20
34.449356
11
69.101230
21
36.264033
0
LINE
8
Layer 1
10
69.101230
20
36.264033
11
69.292560
21
38.142212
0
LINE
8
Layer 1
10
69.292560
20
38.142212
11
69.138401
21
39.455795
0
LINE
8
Layer 1
10
69.138401
20
39.455795
11
68.851588
21
40.258879
0
LINE
8
Layer 1
10
68.851588
20
40.258879
11
68.187072
21
41.191208
0
LINE
8
Layer 1
10
68.187072
20
41.191208
11
67.769299
21
42.271763
0
LINE
8
Layer 1
10
67.769299
20
42.271763
11
67.550917
21
43.686432
0
LINE
8
Layer 1
10
67.550917
20
43.686432
11
67.484574
21
45.621101
0
LINE
8
Layer 1
10
67.484574
20
45.621101
11
67.669783
21
49.245893
0
LINE
8
Layer 1
10
67.669783
20
49.245893
11
68.064014
21
49.786132
0
LINE
8
Layer 1
10
68.064014
20
49.786132
11
68.741076
21
49.839582
0
LINE
8
Layer 1
10
68.741076
20
49.839582
11
69.689471
21
49.408774
0
LINE
8
Layer 1
10
69.689471
20
49.408774
11
70.897699
21
48.496240
0
LINE
8
Layer 1
10
70.897699
20
48.496240
11
72.750966
21
47.016824
0
LINE
8
Layer 1
10
72.750966
20
47.016824
11
74.993912
21
45.439728
0
LINE
8
Layer 1
10
74.993912
20
45.439728
11
80.546171
21
42.058045
0
LINE
8
Layer 1
10
80.546171
20
42.058045
11
86.340546
21
38.777212
0
LINE
8
Layer 1
10
86.340546
20
38.777212
11
90.219687
21
36.801105
0
LINE
8
Layer 1
10
90.219687
20
36.801105
11
94.305812
21
35.126593
0
LINE
8
Layer 1
10
94.305812
20
35.126593
11
98.212689
21
33.894942
0
LINE
8
Layer 1
10
98.212689
20
33.894942
11
101.554088
21
33.247420
0
LINE
8
Layer 1
10
101.554088
20
33.247420
11
103.529644
21
32.894643
0
LINE
8
Layer 1
10
103.529644
20
32.894643
11
105.275894
21
32.550684
0
LINE
8
Layer 1
10
105.275894
20
32.550684
11
107.450135
21
32.084301
0
LINE
8
Layer 1
10
107.450135
20
32.084301
11
108.001193
21
31.762577
0
LINE
8
Layer 1
10
108.001193
20
31.762577
11
108.186310
21
31.386518
0
LINE
8
Layer 1
10
108.186310
20
31.386518
11
107.886796
21
30.628408
0
LINE
8
Layer 1
10
107.886796
20
30.628408
11
107.163255
21
29.410962
0
LINE
8
Layer 1
10
107.163255
20
29.410962
11
106.260152
21
27.644836
0
LINE
8
Layer 1
10
106.260152
20
27.644836
11
105.629291
21
25.531042
0
LINE
8
Layer 1
10
105.629291
20
25.531042
11
105.297982
21
23.192035
0
LINE
8
Layer 1
10
105.297982
20
23.192035
11
105.293533
21
20.750268
0
LINE
8
Layer 1
10
105.293533
20
20.750268
11
105.497473
21
19.085805
0
LINE
8
Layer 1
10
105.497473
20
19.085805
11
105.944242
21
17.812399
0
LINE
8
Layer 1
10
105.944242
20
17.812399
11
106.788851
21
16.636503
0
LINE
8
Layer 1
10
106.788851
20
16.636503
11
108.186310
21
15.264573
0
LINE
8
Layer 1
10
108.186310
20
15.264573
11
109.477642
21
14.225170
0
LINE
8
Layer 1
10
109.477642
20
14.225170
11
110.768347
21
13.595542
0
LINE
8
Layer 1
10
110.768347
20
13.595542
11
112.423884
21
13.255828
0
LINE
8
Layer 1
10
112.423884
20
13.255828
11
114.809713
21
13.086170
0
LINE
8
Layer 1
10
114.809713
20
13.086170
11
117.743101
21
13.054167
0
LINE
8
Layer 1
10
117.743101
20
13.054167
11
118.425841
21
13.195834
0
LINE
8
Layer 1
10
118.425841
20
13.195834
11
118.928394
21
13.474226
0
LINE
8
Layer 1
10
118.928394
20
13.474226
11
120.439803
21
15.029041
0
LINE
8
Layer 1
10
120.439803
20
15.029041
11
122.156310
21
17.381240
0
LINE
8
Layer 1
10
122.156310
20
17.381240
11
127.668293
21
27.199507
0
LINE
8
Layer 1
10
127.668293
20
27.199507
11
133.357005
21
36.916309
0
LINE
8
Layer 1
10
133.357005
20
36.916309
11
134.451663
21
37.917999
0
LINE
8
Layer 1
10
134.451663
20
37.917999
11
135.914644
21
38.777212
0
LINE
8
Layer 1
10
135.914644
20
38.777212
11
137.080666
21
39.454988
0
LINE
8
Layer 1
10
137.080666
20
39.454988
11
137.943807
21
40.342653
0
LINE
8
Layer 1
10
137.943807
20
40.342653
11
138.616984
21
41.598535
0
LINE
8
Layer 1
10
138.616984
20
41.598535
11
139.213116
21
43.380962
0
LINE
8
Layer 1
10
139.213116
20
43.380962
11
139.920776
21
45.423303
0
LINE
8
Layer 1
10
139.920776
20
45.423303
11
140.737411
21
47.428313
0
LINE
8
Layer 1
10
140.737411
20
47.428313
11
141.501863
21
49.449144
0
LINE
8
Layer 1
10
141.501863
20
49.449144
11
142.052977
21
51.538948
0
LINE
8
Layer 1
10
142.052977
20
51.538948
11
141.677672
21
52.379231
0
LINE
8
Layer 1
10
141.677672
20
52.379231
11
140.706510
21
53.473697
0
LINE
8
Layer 1
10
140.706510
20
53.473697
11
139.374501
21
54.595181
0
LINE
8
Layer 1
10
139.374501
20
54.595181
11
137.916658
21
55.516518
0
LINE
8
Layer 1
10
137.916658
20
55.516518
11
136.126310
21
56.530754
0
LINE
8
Layer 1
10
136.126310
20
56.530754
11
134.606712
21
57.348729
0
LINE
8
Layer 1
10
134.606712
20
57.348729
11
132.033941
21
58.503608
0
LINE
8
Layer 1
10
132.033941
20
58.503608
11
127.156935
21
60.358393
0
LINE
8
Layer 1
10
127.156935
20
60.358393
11
125.893634
21
60.744558
0
LINE
8
Layer 1
10
125.893634
20
60.744558
11
124.933828
21
61.248964
0
LINE
8
Layer 1
10
124.933828
20
61.248964
11
123.842034
21
62.174595
0
LINE
8
Layer 1
10
123.842034
20
62.174595
11
122.182769
21
63.824434
0
LINE
8
Layer 1
10
122.182769
20
63.824434
11
120.176519
21
65.722731
0
LINE
8
Layer 1
10
120.176519
20
65.722731
11
118.115898
21
67.434965
0
LINE
8
Layer 1
10
118.115898
20
67.434965
11
116.137411
21
68.856673
0
LINE
8
Layer 1
10
116.137411
20
68.856673
11
114.377560
21
69.883393
0
LINE
8
Layer 1
10
114.377560
20
69.883393
11
113.759339
21
70.263687
0
LINE
8
Layer 1
10
113.759339
20
70.263687
11
113.455994
21
70.736069
0
LINE
8
Layer 1
10
113.455994
20
70.736069
11
113.417199
21
71.474439
0
LINE
8
Layer 1
10
113.417199
20
71.474439
11
113.592630
21
72.652698
0
LINE
8
Layer 1
10
113.592630
20
72.652698
11
113.901310
21
74.434226
0
LINE
8
Layer 1
10
113.901310
20
74.434226
11
117.002792
21
74.054010
0
LINE
8
Layer 1
10
117.002792
20
74.054010
11
120.171935
21
73.922698
0
LINE
8
Layer 1
10
120.171935
20
73.922698
11
123.775198
21
74.088784
0
LINE
8
Layer 1
10
123.775198
20
74.088784
11
127.289227
21
74.575337
0
LINE
8
Layer 1
10
127.289227
20
74.575337
11
130.698963
21
75.364100
0
LINE
8
Layer 1
10
130.698963
20
75.364100
11
133.992005
21
76.445059
0
LINE
8
Layer 1
10
133.992005
20
76.445059
11
137.155299
21
77.807996
0
LINE
8
Layer 1
10
137.155299
20
77.807996
11
140.174435
21
79.434851
0
LINE
8
Layer 1
10
140.174435
20
79.434851
11
143.033962
21
81.310220
0
LINE
8
Layer 1
10
143.033962
20
81.310220
11
145.721866
21
83.421240
0
LINE
8
Layer 1
10
145.721866
20
83.421240
11
148.229114
21
85.756129
0
LINE
8
Layer 1
10
148.229114
20
85.756129
11
150.537283
21
88.298393
0
LINE
8
Layer 1
10
150.537283
20
88.298393
11
152.626109
21
91.031065
0
LINE
8
Layer 1
10
152.626109
20
91.031065
11
154.488394
21
93.942837
0
LINE
8
Layer 1
10
154.488394
20
93.942837
11
156.114702
21
97.020375
0
LINE
8
Layer 1
10
156.114702
20
97.020375
11
157.487005
21
100.248740
0
LINE
8
Layer 1
10
157.487005
20
100.248740
11
158.593470
21
103.613816
0
LINE
8
Layer 1
10
158.593470
20
103.613816
11
159.418463
21
107.101448
0
LINE
8
Layer 1
10
159.418463
20
107.101448
11
159.979006
21
111.064477
0
LINE
8
Layer 1
10
159.979006
20
111.064477
11
160.168116
21
115.065406
0
LINE
8
Layer 1
10
160.168116
20
115.065406
11
159.962316
21
119.271007
0
LINE
8
Layer 1
10
159.962316
20
119.271007
11
159.356727
21
123.355684
0
LINE
8
Layer 1
10
159.356727
20
123.355684
11
158.367897
21
127.295400
0
LINE
8
Layer 1
10
158.367897
20
127.295400
11
157.019574
21
131.072698
0
LINE
8
Layer 1
10
157.019574
20
131.072698
11
155.335901
21
134.671568
0
LINE
8
Layer 1
10
155.335901
20
134.671568
11
153.333046
21
138.066518
0
LINE
8
Layer 1
10
153.333046
20
138.066518
11
151.029505
21
141.236344
0
LINE
8
Layer 1
10
151.029505
20
141.236344
11
148.447074
21
144.160754
0
LINE
8
Layer 1
10
148.447074
20
144.160754
11
145.607445
21
146.813343
0
LINE
8
Layer 1
10
145.607445
20
146.813343
11
142.529227
21
149.179018
0
LINE
8
Layer 1
10
142.529227
20
149.179018
11
139.232884
21
151.243814
0
LINE
8
Layer 1
10
139.232884
20
151.243814
11
135.738255
21
152.980198
0
LINE
8
Layer 1
10
135.738255
20
152.980198
11
132.060165
21
154.364598
0
LINE
8
Layer 1
10
132.060165
20
154.364598
11
128.224088
21
155.379087
0
LINE
8
Layer 1
10
128.224088
20
155.379087
11
124.256855
21
156.003714
0
LINE
8
Layer 1
10
124.256855
20
156.003714
11
120.171935
21
156.216934
0
LINE
8
Layer 1
10
120.171935
20
156.216934
11
117.196720
21
156.101834
0
LINE
8
Layer 1
10
117.196720
20
156.101834
11
114.280546
21
155.767143
0
LINE
8
Layer 1
10
114.280546
20
155.767143
11
113.510206
21
156.040564
0
LINE
8
Layer 1
10
113.510206
20
156.040564
11
113.266310
21
156.410962
0
LINE
8
Layer 1
10
113.266310
20
156.410962
11
113.557575
21
156.963651
0
LINE
8
Layer 1
10
113.557575
20
156.963651
11
114.332585
21
157.509288
0
LINE
8
Layer 1
10
114.332585
20
157.509288
11
115.443173
21
157.968782
0
LINE
8
Layer 1
10
115.443173
20
157.968782
11
116.741171
21
158.263045
0
LINE
8
Layer 1
10
116.741171
20
158.263045
11
119.747171
21
158.858200
0
LINE
8
Layer 1
10
119.747171
20
158.858200
11
120.854737
21
159.300150
0
LINE
8
Layer 1
10
120.854737
20
159.300150
11
122.015199
21
159.938740
0
LINE
8
Layer 1
10
122.015199
20
159.938740
11
123.512712
21
160.959392
0
LINE
8
Layer 1
10
123.512712
20
160.959392
11
124.847259
21
162.119030
0
LINE
8
Layer 1
10
124.847259
20
162.119030
11
126.013728
21
163.412221
0
LINE
8
Layer 1
10
126.013728
20
163.412221
11
127.007005
21
164.833531
0
LINE
8
Layer 1
10
127.007005
20
164.833531
11
127.709869
21
165.883093
0
LINE
8
Layer 1
10
127.709869
20
165.883093
11
128.383963
21
166.343262
0
LINE
8
Layer 1
10
128.383963
20
166.343262
11
129.392634
21
166.304330
0
LINE
8
Layer 1
10
129.392634
20
166.304330
11
131.099227
21
165.856587
0
LINE
8
Layer 1
10
131.099227
20
165.856587
11
132.612480
21
165.627726
0
LINE
8
Layer 1
10
132.612480
20
165.627726
11
134.821033
21
165.944781
0
LINE
8
Layer 1
10
134.821033
20
165.944781
11
137.237347
21
166.613537
0
LINE
8
Layer 1
10
137.237347
20
166.613537
11
139.153737
21
167.619107
0
LINE
8
Layer 1
10
139.153737
20
167.619107
11
140.678687
21
169.037670
0
LINE
8
Layer 1
10
140.678687
20
169.037670
11
141.920685
21
170.945406
0
LINE
8
Layer 1
10
141.920685
20
170.945406
11
142.416198
21
172.794728
0
LINE
8
Layer 1
10
142.416198
20
172.794728
11
142.700765
21
174.699332
0
LINE
8
Layer 1
10
142.700765
20
174.699332
11
142.751838
21
176.609926
0
LINE
8
Layer 1
10
142.751838
20
176.609926
11
142.546866
21
178.477213
0
LINE
8
Layer 1
10
142.546866
20
178.477213
11
141.992840
21
180.437162
0
LINE
8
Layer 1
10
141.992840
20
180.437162
11
141.064792
21
182.216758
0
LINE
8
Layer 1
10
141.064792
20
182.216758
11
139.731254
21
183.749359
0
LINE
8
Layer 1
10
139.731254
20
183.749359
11
137.960755
21
184.968324
0
LINE
8
Layer 1
10
137.960755
20
184.968324
11
135.625802
21
185.667052
0
LINE
8
Layer 1
10
135.625802
20
185.667052
11
133.183913
21
185.827792
0
LINE
8
Layer 1
10
133.183913
20
185.827792
11
130.753604
21
185.492653
0
LINE
8
Layer 1
10
130.753604
20
185.492653
11
128.453394
21
184.703741
0
LINE
8
Layer 1
10
128.453394
20
184.703741
11
126.197085
21
183.419354
0
LINE
8
Layer 1
10
126.197085
20
183.419354
11
124.516422
21
181.926777
0
LINE
8
Layer 1
10
124.516422
20
181.926777
11
123.296120
21
180.094071
0
LINE
8
Layer 1
10
123.296120
20
180.094071
11
122.420894
21
177.789296
0
LINE
8
Layer 1
10
122.420894
20
177.789296
11
122.176075
21
177.553952
0
LINE
8
Layer 1
10
122.176075
20
177.553952
11
121.676525
21
177.466122
0
LINE
8
Layer 1
10
121.676525
20
177.466122
11
120.236273
21
177.653093
0
LINE
8
Layer 1
10
120.236273
20
177.653093
11
118.746213
21
178.190389
0
LINE
8
Layer 1
10
118.746213
20
178.190389
11
118.184404
21
178.540463
0
LINE
8
Layer 1
10
118.184404
20
178.540463
11
117.852421
21
178.918185
0
LINE
8
Layer 1
10
117.852421
20
178.918185
11
116.424956
21
182.004566
0
LINE
8
Layer 1
10
116.424956
20
182.004566
11
114.783255
21
184.977144
0
LINE
8
Layer 1
10
114.783255
20
184.977144
11
112.541512
21
187.559008
0
LINE
8
Layer 1
10
112.541512
20
187.559008
11
110.003774
21
189.816507
0
LINE
8
Layer 1
10
110.003774
20
189.816507
11
104.561519
21
193.920060
0
LINE
8
Layer 1
10
104.561519
20
193.920060
11
102.068220
21
195.603782
0
LINE
8
Layer 1
10
102.068220
20
195.603782
11
99.511055
21
196.806998
0
LINE
8
Layer 1
10
99.511055
20
196.806998
11
96.663515
21
197.614055
0
LINE
8
Layer 1
10
96.663515
20
197.614055
11
93.299088
21
198.109296
0
LINE
8
Layer 1
10
93.299088
20
198.109296
11
90.705602
21
198.260599
0
LINE
8
Layer 1
10
90.705602
20
198.260599
11
89.198046
21
197.932908
0
LINE
8
Layer 1
10
89.198046
20
197.932908
11
88.041545
21
197.605836
0
LINE
8
Layer 1
10
88.041545
20
197.605836
11
86.812505
21
197.496994
0
LINE
8
Layer 1
10
86.812505
20
197.496994
11
85.444500
21
197.606109
0
LINE
8
Layer 1
10
85.444500
20
197.606109
11
83.871102
21
197.932908
0
LINE
8
Layer 1
10
83.871102
20
197.932908
11
82.227893
21
198.203267
0
LINE
8
Layer 1
10
82.227893
20
198.203267
11
80.387421
21
198.276866
0
LINE
8
Layer 1
10
80.387421
20
198.276866
11
80.387421
21
198.276866
0
LINE
8
Layer 1
10
91.173602
20
193.302699
11
92.252249
21
193.085309
0
LINE
8
Layer 1
10
92.252249
20
193.085309
11
93.132426
21
192.492217
0
LINE
8
Layer 1
10
93.132426
20
192.492217
11
93.725518
21
191.612040
0
LINE
8
Layer 1
10
93.725518
20
191.612040
11
93.942908
21
190.533394
0
LINE
8
Layer 1
10
93.942908
20
190.533394
11
93.725516
21
189.453370
0
LINE
8
Layer 1
10
93.725516
20
189.453370
11
93.132424
21
188.570161
0
LINE
8
Layer 1
10
93.132424
20
188.570161
11
92.252247
21
187.974037
0
LINE
8
Layer 1
10
92.252247
20
187.974037
11
91.173602
21
187.755269
0
LINE
8
Layer 1
10
91.173602
20
187.755269
11
90.093578
21
187.974037
0
LINE
8
Layer 1
10
90.093578
20
187.974037
11
89.210369
21
188.570161
0
LINE
8
Layer 1
10
89.210369
20
188.570161
11
88.614245
21
189.453370
0
LINE
8
Layer 1
10
88.614245
20
189.453370
11
88.395477
21
190.533394
0
LINE
8
Layer 1
10
88.395477
20
190.533394
11
88.614244
21
191.612040
0
LINE
8
Layer 1
10
88.614244
20
191.612040
11
89.210368
21
192.492217
0
LINE
8
Layer 1
10
89.210368
20
192.492217
11
90.093578
21
193.085309
0
LINE
8
Layer 1
10
90.093578
20
193.085309
11
91.173602
21
193.302699
0
LINE
8
Layer 1
10
91.173602
20
193.302699
11
91.173602
21
193.302699
 0 
ENDSEC
 0 
EOF
