999
\"DXF R12 Output\" (www.mydxf.blogspot.com)
 0 
SECTION
 2 
HEADER
 9 
$ACADVER
 1 
AC1009
 9 
$EXTMIN
 10 
 0 
 20 
 0 
 9 
$EXTMAX
 10 
 8.5 
 20 
 11 
 0 
ENDSEC
 0 
SECTION
 2 
ENTITIES
0
LINE
8
Layer 1
10
67.884698
20
182.613353
11
66.456539
21
182.517786
0
LINE
8
Layer 1
10
66.456539
20
182.517786
11
65.121924
21
182.208874
0
LINE
8
Layer 1
10
65.121924
20
182.208874
11
63.886755
21
181.706146
0
LINE
8
Layer 1
10
63.886755
20
181.706146
11
62.756935
21
181.029136
0
LINE
8
Layer 1
10
62.756935
20
181.029136
11
61.738368
21
180.197375
0
LINE
8
Layer 1
10
61.738368
20
180.197375
11
60.836956
21
179.230395
0
LINE
8
Layer 1
10
60.836956
20
179.230395
11
60.058603
21
178.147729
0
LINE
8
Layer 1
10
60.058603
20
178.147729
11
59.409211
21
176.968908
0
LINE
8
Layer 1
10
59.409211
20
176.968908
11
58.880553
21
175.671998
0
LINE
8
Layer 1
10
58.880553
20
175.671998
11
58.502438
21
174.315134
0
LINE
8
Layer 1
10
58.502438
20
174.315134
11
58.281417
21
172.919855
0
LINE
8
Layer 1
10
58.281417
20
172.919855
11
58.224041
21
171.507695
0
LINE
8
Layer 1
10
58.224041
20
171.507695
11
58.336859
21
170.100193
0
LINE
8
Layer 1
10
58.336859
20
170.100193
11
58.626424
21
168.718883
0
LINE
8
Layer 1
10
58.626424
20
168.718883
11
59.099283
21
167.385304
0
LINE
8
Layer 1
10
59.099283
20
167.385304
11
59.761989
21
166.120991
0
LINE
8
Layer 1
10
59.761989
20
166.120991
11
59.211145
21
165.822295
0
LINE
8
Layer 1
10
59.211145
20
165.822295
11
58.448535
21
165.664170
0
LINE
8
Layer 1
10
58.448535
20
165.664170
11
56.507614
21
165.583005
0
LINE
8
Layer 1
10
56.507614
20
165.583005
11
52.679975
21
165.547727
0
LINE
8
Layer 1
10
52.679975
20
165.547727
11
52.838725
21
144.433979
0
LINE
8
Layer 1
10
52.838725
20
144.433979
11
57.689420
21
144.301687
0
LINE
8
Layer 1
10
57.689420
20
144.301687
11
57.266086
21
142.723006
0
LINE
8
Layer 1
10
57.266086
20
142.723006
11
56.295440
21
141.361806
0
LINE
8
Layer 1
10
56.295440
20
141.361806
11
55.189970
21
140.156216
0
LINE
8
Layer 1
10
55.189970
20
140.156216
11
53.971330
21
139.081305
0
LINE
8
Layer 1
10
53.971330
20
139.081305
11
52.661176
21
138.112142
0
LINE
8
Layer 1
10
52.661176
20
138.112142
11
49.852945
21
136.391330
0
LINE
8
Layer 1
10
49.852945
20
136.391330
11
46.938517
21
134.794326
0
LINE
8
Layer 1
10
46.938517
20
134.794326
11
41.021450
21
131.705257
0
LINE
8
Layer 1
10
41.021450
20
131.705257
11
38.121088
21
130.096574
0
LINE
8
Layer 1
10
38.121088
20
130.096574
11
35.376228
21
128.312034
0
LINE
8
Layer 1
10
35.376228
20
128.312034
11
32.956754
21
126.711023
0
LINE
8
Layer 1
10
32.956754
20
126.711023
11
30.665615
21
124.948724
0
LINE
8
Layer 1
10
30.665615
20
124.948724
11
28.500667
21
123.042455
0
LINE
8
Layer 1
10
28.500667
20
123.042455
11
26.459769
21
121.009534
0
LINE
8
Layer 1
10
26.459769
20
121.009534
11
24.540929
21
118.866240
0
LINE
8
Layer 1
10
24.540929
20
118.866240
11
22.741100
21
116.628293
0
LINE
8
Layer 1
10
22.741100
20
116.628293
11
19.483589
21
111.934326
0
LINE
8
Layer 1
10
19.483589
20
111.934326
11
17.972581
21
111.291301
0
LINE
8
Layer 1
10
17.972581
20
111.291301
11
16.575401
21
110.442548
0
LINE
8
Layer 1
10
16.575401
20
110.442548
11
15.302636
21
109.412701
0
LINE
8
Layer 1
10
15.302636
20
109.412701
11
14.164877
21
108.226397
0
LINE
8
Layer 1
10
14.164877
20
108.226397
11
13.172712
21
106.908271
0
LINE
8
Layer 1
10
13.172712
20
106.908271
11
12.336730
21
105.482960
0
LINE
8
Layer 1
10
12.336730
20
105.482960
11
11.667520
21
103.975100
0
LINE
8
Layer 1
10
11.667520
20
103.975100
11
11.175672
21
102.409326
0
LINE
8
Layer 1
10
11.175672
20
102.409326
11
10.871502
21
100.810341
0
LINE
8
Layer 1
10
10.871502
20
100.810341
11
10.765411
21
99.202927
0
LINE
8
Layer 1
10
10.765411
20
99.202927
11
10.868117
21
97.611840
0
LINE
8
Layer 1
10
10.868117
20
97.611840
11
11.190336
21
96.061831
0
LINE
8
Layer 1
10
11.190336
20
96.061831
11
11.742783
21
94.577655
0
LINE
8
Layer 1
10
11.742783
20
94.577655
11
12.536175
21
93.184065
0
LINE
8
Layer 1
10
12.536175
20
93.184065
11
13.581228
21
91.905816
0
LINE
8
Layer 1
10
13.581228
20
91.905816
11
14.888658
21
90.767659
0
LINE
8
Layer 1
10
14.888658
20
90.767659
11
15.030546
21
89.906415
0
LINE
8
Layer 1
10
15.030546
20
89.906415
11
15.024292
21
88.982131
0
LINE
8
Layer 1
10
15.024292
20
88.982131
11
14.664761
21
86.969872
0
LINE
8
Layer 1
10
14.664761
20
86.969872
11
13.239422
21
82.468562
0
LINE
8
Layer 1
10
13.239422
20
82.468562
11
12.564236
21
80.082557
0
LINE
8
Layer 1
10
12.564236
20
80.082557
11
12.175313
21
77.676744
0
LINE
8
Layer 1
10
12.175313
20
77.676744
11
12.149162
21
76.482693
0
LINE
8
Layer 1
10
12.149162
20
76.482693
11
12.267732
21
75.303229
0
LINE
8
Layer 1
10
12.267732
20
75.303229
11
12.555408
21
74.144867
0
LINE
8
Layer 1
10
12.555408
20
74.144867
11
13.036575
21
73.014118
0
LINE
8
Layer 1
10
13.036575
20
73.014118
11
14.198657
21
71.756983
0
LINE
8
Layer 1
10
14.198657
20
71.756983
11
15.081415
21
70.493083
0
LINE
8
Layer 1
10
15.081415
20
70.493083
11
15.704172
21
69.225693
0
LINE
8
Layer 1
10
15.704172
20
69.225693
11
16.086249
21
67.958092
0
LINE
8
Layer 1
10
16.086249
20
67.958092
11
16.246969
21
66.693558
0
LINE
8
Layer 1
10
16.246969
20
66.693558
11
16.205655
21
65.435368
0
LINE
8
Layer 1
10
16.205655
20
65.435368
11
15.981629
21
64.186800
0
LINE
8
Layer 1
10
15.981629
20
64.186800
11
15.594214
21
62.951131
0
LINE
8
Layer 1
10
15.594214
20
62.951131
11
14.405579
21
60.531340
0
LINE
8
Layer 1
10
14.405579
20
60.531340
11
12.793499
21
58.201283
0
LINE
8
Layer 1
10
12.793499
20
58.201283
11
10.912697
21
55.986168
0
LINE
8
Layer 1
10
10.912697
20
55.986168
11
8.917894
21
53.911201
0
LINE
8
Layer 1
10
8.917894
20
53.911201
11
7.622814
21
51.932936
0
LINE
8
Layer 1
10
7.622814
20
51.932936
11
6.609148
21
49.875178
0
LINE
8
Layer 1
10
6.609148
20
49.875178
11
5.863242
21
47.752548
0
LINE
8
Layer 1
10
5.863242
20
47.752548
11
5.371447
21
45.579665
0
LINE
8
Layer 1
10
5.371447
20
45.579665
11
5.120111
21
43.371149
0
LINE
8
Layer 1
10
5.120111
20
43.371149
11
5.095581
21
41.141620
0
LINE
8
Layer 1
10
5.095581
20
41.141620
11
5.284208
21
38.905700
0
LINE
8
Layer 1
10
5.284208
20
38.905700
11
5.672338
21
36.678006
0
LINE
8
Layer 1
10
5.672338
20
36.678006
11
6.246654
21
34.473091
0
LINE
8
Layer 1
10
6.246654
20
34.473091
11
6.993829
21
32.305326
0
LINE
8
Layer 1
10
6.993829
20
32.305326
11
7.900202
21
30.189058
0
LINE
8
Layer 1
10
7.900202
20
30.189058
11
8.952109
21
28.138636
0
LINE
8
Layer 1
10
8.952109
20
28.138636
11
10.135890
21
26.168410
0
LINE
8
Layer 1
10
10.135890
20
26.168410
11
11.437882
21
24.292726
0
LINE
8
Layer 1
10
11.437882
20
24.292726
11
14.341852
21
20.882381
0
LINE
8
Layer 1
10
14.341852
20
20.882381
11
19.073568
21
16.925411
0
LINE
8
Layer 1
10
19.073568
20
16.925411
11
24.129548
21
13.384531
0
LINE
8
Layer 1
10
24.129548
20
13.384531
11
29.466489
21
10.265441
0
LINE
8
Layer 1
10
29.466489
20
10.265441
11
35.041089
21
7.573840
0
LINE
8
Layer 1
10
35.041089
20
7.573840
11
40.809593
21
5.315583
0
LINE
8
Layer 1
10
40.809593
20
5.315583
11
46.728409
21
3.496409
0
LINE
8
Layer 1
10
46.728409
20
3.496409
11
52.754485
21
2.121837
0
LINE
8
Layer 1
10
52.754485
20
2.121837
11
58.844767
21
1.197381
0
LINE
8
Layer 1
10
58.844767
20
1.197381
11
65.562226
21
0.852738
0
LINE
8
Layer 1
10
65.562226
20
0.852738
11
72.280766
21
0.925390
0
LINE
8
Layer 1
10
72.280766
20
0.925390
11
78.975265
21
1.418465
0
LINE
8
Layer 1
10
78.975265
20
1.418465
11
85.620600
21
2.335090
0
LINE
8
Layer 1
10
85.620600
20
2.335090
11
92.191843
21
3.677103
0
LINE
8
Layer 1
10
92.191843
20
3.677103
11
98.663636
21
5.445811
0
LINE
8
Layer 1
10
98.663636
20
5.445811
11
105.010213
21
7.643533
0
LINE
8
Layer 1
10
105.010213
20
7.643533
11
111.205809
21
10.272590
0
LINE
8
Layer 1
10
111.205809
20
10.272590
11
113.430405
21
11.212916
0
LINE
8
Layer 1
10
113.430405
20
11.212916
11
115.592389
21
12.307488
0
LINE
8
Layer 1
10
115.592389
20
12.307488
11
117.680088
21
13.548800
0
LINE
8
Layer 1
10
117.680088
20
13.548800
11
119.681828
21
14.929347
0
LINE
8
Layer 1
10
119.681828
20
14.929347
11
121.585937
21
16.441623
0
LINE
8
Layer 1
10
121.585937
20
16.441623
11
123.380740
21
18.078122
0
LINE
8
Layer 1
10
123.380740
20
18.078122
11
125.054565
21
19.831340
0
LINE
8
Layer 1
10
125.054565
20
19.831340
11
126.595739
21
21.693770
0
LINE
8
Layer 1
10
126.595739
20
21.693770
11
127.997709
21
23.658129
0
LINE
8
Layer 1
10
127.997709
20
23.658129
11
129.250863
21
25.717157
0
LINE
8
Layer 1
10
129.250863
20
25.717157
11
130.338940
21
27.863391
0
LINE
8
Layer 1
10
130.338940
20
27.863391
11
131.245680
21
30.089364
0
LINE
8
Layer 1
10
131.245680
20
30.089364
11
131.954824
21
32.387611
0
LINE
8
Layer 1
10
131.954824
20
32.387611
11
132.450110
21
34.750666
0
LINE
8
Layer 1
10
132.450110
20
34.750666
11
132.715280
21
37.171065
0
LINE
8
Layer 1
10
132.715280
20
37.171065
11
132.734073
21
39.641340
0
LINE
8
Layer 1
10
132.734073
20
39.641340
11
132.587511
21
42.339692
0
LINE
8
Layer 1
10
132.587511
20
42.339692
11
132.213409
21
44.965955
0
LINE
8
Layer 1
10
132.213409
20
44.965955
11
131.539604
21
47.476526
0
LINE
8
Layer 1
10
131.539604
20
47.476526
11
130.493934
21
49.827798
0
LINE
8
Layer 1
10
130.493934
20
49.827798
11
129.012479
21
52.000815
0
LINE
8
Layer 1
10
129.012479
20
52.000815
11
127.170495
21
53.901269
0
LINE
8
Layer 1
10
127.170495
20
53.901269
11
125.032313
21
55.502419
0
LINE
8
Layer 1
10
125.032313
20
55.502419
11
122.662267
21
56.777520
0
LINE
8
Layer 1
10
122.662267
20
56.777520
11
123.612910
21
60.510006
0
LINE
8
Layer 1
10
123.612910
20
60.510006
11
124.432168
21
64.303590
0
LINE
8
Layer 1
10
124.432168
20
64.303590
11
125.069827
21
68.139729
0
LINE
8
Layer 1
10
125.069827
20
68.139729
11
125.475670
21
71.999881
0
LINE
8
Layer 1
10
125.475670
20
71.999881
11
125.599041
21
75.864708
0
LINE
8
Layer 1
10
125.599041
20
75.864708
11
125.389615
21
79.713781
0
LINE
8
Layer 1
10
125.389615
20
79.713781
11
124.797678
21
83.526929
0
LINE
8
Layer 1
10
124.797678
20
83.526929
11
123.773517
21
87.283979
0
LINE
8
Layer 1
10
123.773517
20
87.283979
11
123.098024
21
89.586419
0
LINE
8
Layer 1
10
123.098024
20
89.586419
11
122.695672
21
91.297386
0
LINE
8
Layer 1
10
122.695672
20
91.297386
11
122.653649
21
92.772154
0
LINE
8
Layer 1
10
122.653649
20
92.772154
11
123.059142
21
94.365993
0
LINE
8
Layer 1
10
123.059142
20
94.365993
11
123.724762
21
96.159563
0
LINE
8
Layer 1
10
123.724762
20
96.159563
11
124.243429
21
98.014985
0
LINE
8
Layer 1
10
124.243429
20
98.014985
11
124.372800
21
99.959730
0
LINE
8
Layer 1
10
124.372800
20
99.959730
11
124.215767
21
100.974184
0
LINE
8
Layer 1
10
124.215767
20
100.974184
11
123.870531
21
102.021270
0
LINE
8
Layer 1
10
123.870531
20
102.021270
11
124.213411
21
103.110213
0
LINE
8
Layer 1
10
124.213411
20
103.110213
11
124.801732
21
104.125306
0
LINE
8
Layer 1
10
124.801732
20
104.125306
11
125.594192
21
105.082723
0
LINE
8
Layer 1
10
125.594192
20
105.082723
11
126.549489
21
105.998636
0
LINE
8
Layer 1
10
126.549489
20
105.998636
11
128.783392
21
107.770644
0
LINE
8
Layer 1
10
128.783392
20
107.770644
11
131.173031
21
109.570715
0
LINE
8
Layer 1
10
131.173031
20
109.570715
11
133.388419
21
111.527784
0
LINE
8
Layer 1
10
133.388419
20
111.527784
11
134.327906
21
112.605494
0
LINE
8
Layer 1
10
134.327906
20
112.605494
11
135.100393
21
113.770919
0
LINE
8
Layer 1
10
135.100393
20
113.770919
11
135.664733
21
115.040254
0
LINE
8
Layer 1
10
135.664733
20
115.040254
11
135.979780
21
116.429698
0
LINE
8
Layer 1
10
135.979780
20
116.429698
11
136.004386
21
117.955448
0
LINE
8
Layer 1
10
136.004386
20
117.955448
11
135.697406
21
119.633701
0
LINE
8
Layer 1
10
135.697406
20
119.633701
11
135.134119
21
121.785071
0
LINE
8
Layer 1
10
135.134119
20
121.785071
11
134.272288
21
123.749554
0
LINE
8
Layer 1
10
134.272288
20
123.749554
11
133.143058
21
125.521772
0
LINE
8
Layer 1
10
133.143058
20
125.521772
11
131.777577
21
127.096347
0
LINE
8
Layer 1
10
131.777577
20
127.096347
11
130.206992
21
128.467901
0
LINE
8
Layer 1
10
130.206992
20
128.467901
11
128.462450
21
129.631054
0
LINE
8
Layer 1
10
128.462450
20
129.631054
11
126.575100
21
130.580428
0
LINE
8
Layer 1
10
126.575100
20
130.580428
11
124.576086
21
131.310645
0
LINE
8
Layer 1
10
124.576086
20
131.310645
11
122.496756
21
131.816470
0
LINE
8
Layer 1
10
122.496756
20
131.816470
11
120.368600
21
132.092612
0
LINE
8
Layer 1
10
120.368600
20
132.092612
11
118.222981
21
132.133617
0
LINE
8
Layer 1
10
118.222981
20
132.133617
11
116.091263
21
131.934033
0
LINE
8
Layer 1
10
116.091263
20
131.934033
11
114.004810
21
131.488404
0
LINE
8
Layer 1
10
114.004810
20
131.488404
11
111.994984
21
130.791278
0
LINE
8
Layer 1
10
111.994984
20
130.791278
11
110.093149
21
129.837199
0
LINE
8
Layer 1
10
110.093149
20
129.837199
11
108.330670
21
128.620715
0
LINE
8
Layer 1
10
108.330670
20
128.620715
11
107.210707
21
127.991049
0
LINE
8
Layer 1
10
107.210707
20
127.991049
11
106.050116
21
127.664276
0
LINE
8
Layer 1
10
106.050116
20
127.664276
11
104.848879
21
127.597012
0
LINE
8
Layer 1
10
104.848879
20
127.597012
11
103.606979
21
127.745875
0
LINE
8
Layer 1
10
103.606979
20
127.745875
11
101.001121
21
128.518453
0
LINE
8
Layer 1
10
101.001121
20
128.518453
11
98.232406
21
129.634951
0
LINE
8
Layer 1
10
98.232406
20
129.634951
11
92.765921
21
131.836287
0
LINE
8
Layer 1
10
92.765921
20
131.836287
11
90.042748
21
133.068426
0
LINE
8
Layer 1
10
90.042748
20
133.068426
11
87.331573
21
134.538562
0
LINE
8
Layer 1
10
87.331573
20
134.538562
11
85.321878
21
135.742915
0
LINE
8
Layer 1
10
85.321878
20
135.742915
11
83.305111
21
137.328425
0
LINE
8
Layer 1
10
83.305111
20
137.328425
11
81.451697
21
139.155010
0
LINE
8
Layer 1
10
81.451697
20
139.155010
11
79.932059
21
141.082590
0
LINE
8
Layer 1
10
79.932059
20
141.082590
11
77.718378
21
144.381062
0
LINE
8
Layer 1
10
77.718378
20
144.381062
11
83.521573
21
144.822034
0
LINE
8
Layer 1
10
83.521573
20
144.822034
11
83.248170
21
165.556547
0
LINE
8
Layer 1
10
83.248170
20
165.556547
11
79.164767
21
165.574186
0
LINE
8
Layer 1
10
79.164767
20
165.574186
11
77.217593
21
165.644658
0
LINE
8
Layer 1
10
77.217593
20
165.644658
11
76.488565
21
165.840851
0
LINE
8
Layer 1
10
76.488565
20
165.840851
11
76.007406
21
166.200366
0
LINE
8
Layer 1
10
76.007406
20
166.200366
11
76.662135
21
167.422363
0
LINE
8
Layer 1
10
76.662135
20
167.422363
11
77.137086
21
168.702896
0
LINE
8
Layer 1
10
77.137086
20
168.702896
11
77.438223
21
170.023807
0
LINE
8
Layer 1
10
77.438223
20
170.023807
11
77.571508
21
171.366938
0
LINE
8
Layer 1
10
77.571508
20
171.366938
11
77.542904
21
172.714130
0
LINE
8
Layer 1
10
77.542904
20
172.714130
11
77.358375
21
174.047225
0
LINE
8
Layer 1
10
77.358375
20
174.047225
11
77.023883
21
175.348065
0
LINE
8
Layer 1
10
77.023883
20
175.348065
11
76.545392
21
176.598491
0
LINE
8
Layer 1
10
76.545392
20
176.598491
11
75.928924
21
177.780203
0
LINE
8
Layer 1
10
75.928924
20
177.780203
11
75.180601
21
178.874872
0
LINE
8
Layer 1
10
75.180601
20
178.874872
11
74.306535
21
179.864296
0
LINE
8
Layer 1
10
74.306535
20
179.864296
11
73.312837
21
180.730274
0
LINE
8
Layer 1
10
73.312837
20
180.730274
11
72.205617
21
181.454606
0
LINE
8
Layer 1
10
72.205617
20
181.454606
11
70.990986
21
182.019091
0
LINE
8
Layer 1
10
70.990986
20
182.019091
11
69.675054
21
182.405527
0
LINE
8
Layer 1
10
69.675054
20
182.405527
11
68.263934
21
182.595714
0
LINE
8
Layer 1
10
68.263934
20
182.595714
11
67.884698
21
182.613353
0
LINE
8
Layer 1
10
67.884698
20
182.613353
11
67.884698
21
182.613353
0
LINE
8
Layer 1
10
67.223239
20
178.803352
11
67.734767
21
178.803352
0
LINE
8
Layer 1
10
67.734767
20
178.803352
11
69.404034
21
178.652841
0
LINE
8
Layer 1
10
69.404034
20
178.652841
11
70.724559
21
177.921408
0
LINE
8
Layer 1
10
70.724559
20
177.921408
11
71.790409
21
176.918413
0
LINE
8
Layer 1
10
71.790409
20
176.918413
11
72.620739
21
175.743005
0
LINE
8
Layer 1
10
72.620739
20
175.743005
11
72.993659
21
174.801337
0
LINE
8
Layer 1
10
72.993659
20
174.801337
11
73.215307
21
173.737915
0
LINE
8
Layer 1
10
73.215307
20
173.737915
11
73.220528
21
171.384853
0
LINE
8
Layer 1
10
73.220528
20
171.384853
11
72.667886
21
168.961909
0
LINE
8
Layer 1
10
72.667886
20
168.961909
11
72.192205
21
167.811134
0
LINE
8
Layer 1
10
72.192205
20
167.811134
11
71.588864
21
166.747172
0
LINE
8
Layer 1
10
71.588864
20
166.747172
11
70.892128
21
165.688839
0
LINE
8
Layer 1
10
70.892128
20
165.688839
11
64.815531
21
165.688839
0
LINE
8
Layer 1
10
64.815531
20
165.688839
11
63.960045
21
167.029394
0
LINE
8
Layer 1
10
63.960045
20
167.029394
11
63.118133
21
168.583673
0
LINE
8
Layer 1
10
63.118133
20
168.583673
11
62.556281
21
170.139601
0
LINE
8
Layer 1
10
62.556281
20
170.139601
11
62.272057
21
171.670389
0
LINE
8
Layer 1
10
62.272057
20
171.670389
11
62.263026
21
173.149247
0
LINE
8
Layer 1
10
62.263026
20
173.149247
11
62.526756
21
174.549386
0
LINE
8
Layer 1
10
62.526756
20
174.549386
11
63.060814
21
175.844018
0
LINE
8
Layer 1
10
63.060814
20
175.844018
11
63.862768
21
177.006353
0
LINE
8
Layer 1
10
63.862768
20
177.006353
11
64.930184
21
178.009602
0
LINE
8
Layer 1
10
64.930184
20
178.009602
11
65.955474
21
178.613983
0
LINE
8
Layer 1
10
65.955474
20
178.613983
11
67.223239
21
178.803352
0
LINE
8
Layer 1
10
67.223239
20
178.803352
11
67.223239
21
178.803352
0
LINE
8
Layer 1
10
67.725948
20
176.924811
11
66.892422
21
176.826446
0
LINE
8
Layer 1
10
66.892422
20
176.826446
11
66.116034
21
176.544408
0
LINE
8
Layer 1
10
66.116034
20
176.544408
11
65.413426
21
176.098281
0
LINE
8
Layer 1
10
65.413426
20
176.098281
11
64.801243
21
175.507649
0
LINE
8
Layer 1
10
64.801243
20
175.507649
11
64.296128
21
174.792097
0
LINE
8
Layer 1
10
64.296128
20
174.792097
11
63.914724
21
173.971207
0
LINE
8
Layer 1
10
63.914724
20
173.971207
11
63.673677
21
173.064565
0
LINE
8
Layer 1
10
63.673677
20
173.064565
11
63.589628
21
172.091755
0
LINE
8
Layer 1
10
63.589628
20
172.091755
11
63.673676
21
171.119324
0
LINE
8
Layer 1
10
63.673676
20
171.119324
11
63.914724
21
170.213682
0
LINE
8
Layer 1
10
63.914724
20
170.213682
11
64.296127
21
169.394205
0
LINE
8
Layer 1
10
64.296127
20
169.394205
11
64.801243
21
168.680271
0
LINE
8
Layer 1
10
64.801243
20
168.680271
11
65.413426
21
168.091258
0
LINE
8
Layer 1
10
65.413426
20
168.091258
11
66.116034
21
167.646544
0
LINE
8
Layer 1
10
66.116034
20
167.646544
11
66.892423
21
167.365505
0
LINE
8
Layer 1
10
66.892423
20
167.365505
11
67.725948
21
167.267519
0
LINE
8
Layer 1
10
67.725948
20
167.267519
11
68.559473
21
167.365505
0
LINE
8
Layer 1
10
68.559473
20
167.365505
11
69.335862
21
167.646544
0
LINE
8
Layer 1
10
69.335862
20
167.646544
11
70.038470
21
168.091258
0
LINE
8
Layer 1
10
70.038470
20
168.091258
11
70.650654
21
168.680271
0
LINE
8
Layer 1
10
70.650654
20
168.680271
11
71.155769
21
169.394205
0
LINE
8
Layer 1
10
71.155769
20
169.394205
11
71.537172
21
170.213682
0
LINE
8
Layer 1
10
71.537172
20
170.213682
11
71.778219
21
171.119324
0
LINE
8
Layer 1
10
71.778219
20
171.119324
11
71.862267
21
172.091755
0
LINE
8
Layer 1
10
71.862267
20
172.091755
11
71.778219
21
173.064565
0
LINE
8
Layer 1
10
71.778219
20
173.064565
11
71.537172
21
173.971207
0
LINE
8
Layer 1
10
71.537172
20
173.971207
11
71.155769
21
174.792096
0
LINE
8
Layer 1
10
71.155769
20
174.792096
11
70.650655
21
175.507649
0
LINE
8
Layer 1
10
70.650655
20
175.507649
11
70.038471
21
176.098281
0
LINE
8
Layer 1
10
70.038471
20
176.098281
11
69.335863
21
176.544408
0
LINE
8
Layer 1
10
69.335863
20
176.544408
11
68.559474
21
176.826446
0
LINE
8
Layer 1
10
68.559474
20
176.826446
11
67.725948
21
176.924811
0
LINE
8
Layer 1
10
67.725948
20
176.924811
11
67.725948
21
176.924811
0
LINE
8
Layer 1
10
61.367128
20
161.764186
11
61.367128
21
155.996269
0
LINE
8
Layer 1
10
61.367128
20
155.996269
11
61.288677
21
151.422538
0
LINE
8
Layer 1
10
61.288677
20
151.422538
11
61.177171
21
150.368635
0
LINE
8
Layer 1
10
61.177171
20
150.368635
11
61.005531
21
149.937312
0
LINE
8
Layer 1
10
61.005531
20
149.937312
11
60.081958
21
149.444232
0
LINE
8
Layer 1
10
60.081958
20
149.444232
11
59.132976
21
149.367254
0
LINE
8
Layer 1
10
59.132976
20
149.367254
11
58.262580
21
149.628222
0
LINE
8
Layer 1
10
58.262580
20
149.628222
11
57.574767
21
150.148979
0
LINE
8
Layer 1
10
57.574767
20
150.148979
11
57.172217
21
150.744432
0
LINE
8
Layer 1
10
57.172217
20
150.744432
11
57.016123
21
151.614965
0
LINE
8
Layer 1
10
57.016123
20
151.614965
11
57.010323
21
156.181477
0
LINE
8
Layer 1
10
57.010323
20
156.181477
11
56.992684
21
161.596616
0
LINE
8
Layer 1
10
56.992684
20
161.596616
11
61.367128
21
161.764186
0
LINE
8
Layer 1
10
61.367128
20
161.764186
11
61.367128
21
161.764186
0
LINE
8
Layer 1
10
78.900184
20
161.764186
11
78.811989
21
156.137380
0
LINE
8
Layer 1
10
78.811989
20
156.137380
11
78.650987
21
151.324770
0
LINE
8
Layer 1
10
78.650987
20
151.324770
11
78.476804
21
150.396722
0
LINE
8
Layer 1
10
78.476804
20
150.396722
11
78.185809
21
149.910854
0
LINE
8
Layer 1
10
78.185809
20
149.910854
11
77.116013
21
149.352942
0
LINE
8
Layer 1
10
77.116013
20
149.352942
11
76.085257
21
149.297204
0
LINE
8
Layer 1
10
76.085257
20
149.297204
11
75.110384
21
149.740115
0
LINE
8
Layer 1
10
75.110384
20
149.740115
11
74.208239
21
150.678145
0
LINE
8
Layer 1
10
74.208239
20
150.678145
11
74.208239
21
156.137380
0
LINE
8
Layer 1
10
74.208239
20
156.137380
11
74.208239
21
161.596616
0
LINE
8
Layer 1
10
74.208239
20
161.596616
11
78.900184
21
161.764186
0
LINE
8
Layer 1
10
78.900184
20
161.764186
11
78.900184
21
161.764186
0
LINE
8
Layer 1
10
65.556364
20
161.737727
11
70.116017
21
161.737727
0
LINE
8
Layer 1
10
70.116017
20
161.737727
11
70.116017
21
156.146200
0
LINE
8
Layer 1
10
70.116017
20
156.146200
11
70.031493
21
151.294918
0
LINE
8
Layer 1
10
70.031493
20
151.294918
11
69.859697
21
150.415089
0
LINE
8
Layer 1
10
69.859697
20
150.415089
11
69.542753
21
149.937312
0
LINE
8
Layer 1
10
69.542753
20
149.937312
11
68.875790
21
149.492884
0
LINE
8
Layer 1
10
68.875790
20
149.492884
11
68.047106
21
149.329291
0
LINE
8
Layer 1
10
68.047106
20
149.329291
11
67.183521
21
149.449865
0
LINE
8
Layer 1
10
67.183521
20
149.449865
11
66.411850
21
149.857937
0
LINE
8
Layer 1
10
66.411850
20
149.857937
11
66.030056
21
150.268569
0
LINE
8
Layer 1
10
66.030056
20
150.268569
11
65.821100
21
151.073466
0
LINE
8
Layer 1
10
65.821100
20
151.073466
11
65.653378
21
156.066825
0
LINE
8
Layer 1
10
65.653378
20
156.066825
11
65.556364
21
161.737727
0
LINE
8
Layer 1
10
65.556364
20
161.737727
11
65.556364
21
161.737727
0
LINE
8
Layer 1
10
62.707684
20
144.098840
11
73.026434
21
144.090020
0
LINE
8
Layer 1
10
73.026434
20
144.090020
11
73.729362
21
142.058917
0
LINE
8
Layer 1
10
73.729362
20
142.058917
11
74.614527
21
140.063597
0
LINE
8
Layer 1
10
74.614527
20
140.063597
11
75.768388
21
138.092704
0
LINE
8
Layer 1
10
75.768388
20
138.092704
11
77.277406
21
136.134881
0
LINE
8
Layer 1
10
77.277406
20
136.134881
11
79.986723
21
133.589548
0
LINE
8
Layer 1
10
79.986723
20
133.589548
11
81.497907
21
132.493052
0
LINE
8
Layer 1
10
81.497907
20
132.493052
11
83.236985
21
131.445452
0
LINE
8
Layer 1
10
83.236985
20
131.445452
11
87.769455
21
129.291279
0
LINE
8
Layer 1
10
87.769455
20
129.291279
11
94.325392
21
126.715715
0
LINE
8
Layer 1
10
94.325392
20
126.715715
11
99.692045
21
124.550298
0
LINE
8
Layer 1
10
99.692045
20
124.550298
11
103.982684
21
122.570576
0
LINE
8
Layer 1
10
103.982684
20
122.570576
11
109.186156
21
119.898284
0
LINE
8
Layer 1
10
109.186156
20
119.898284
11
111.731500
21
118.482432
0
LINE
8
Layer 1
10
111.731500
20
118.482432
11
113.442369
21
117.124061
0
LINE
8
Layer 1
10
113.442369
20
117.124061
11
114.011941
21
116.438212
0
LINE
8
Layer 1
10
114.011941
20
116.438212
11
114.405374
21
115.732871
0
LINE
8
Layer 1
10
114.405374
20
115.732871
11
114.633494
21
114.996750
0
LINE
8
Layer 1
10
114.633494
20
114.996750
11
114.707128
21
114.218562
0
LINE
8
Layer 1
10
114.707128
20
114.218562
11
114.548378
21
113.195506
0
LINE
8
Layer 1
10
114.548378
20
113.195506
11
110.112198
21
114.615437
0
LINE
8
Layer 1
10
110.112198
20
114.615437
11
106.384894
21
115.760056
0
LINE
8
Layer 1
10
106.384894
20
115.760056
11
103.427059
21
116.520437
0
LINE
8
Layer 1
10
103.427059
20
116.520437
11
102.018854
21
116.832367
0
LINE
8
Layer 1
10
102.018854
20
116.832367
11
101.094938
21
117.186332
0
LINE
8
Layer 1
10
101.094938
20
117.186332
11
100.276544
21
117.789432
0
LINE
8
Layer 1
10
100.276544
20
117.789432
11
99.184906
21
118.848770
0
LINE
8
Layer 1
10
99.184906
20
118.848770
11
97.799391
21
120.105366
0
LINE
8
Layer 1
10
97.799391
20
120.105366
11
96.396118
21
121.069726
0
LINE
8
Layer 1
10
96.396118
20
121.069726
11
94.806354
21
121.838626
0
LINE
8
Layer 1
10
94.806354
20
121.838626
11
92.861364
21
122.508840
0
LINE
8
Layer 1
10
92.861364
20
122.508840
11
88.812134
21
123.566986
0
LINE
8
Layer 1
10
88.812134
20
123.566986
11
85.736476
21
124.045180
0
LINE
8
Layer 1
10
85.736476
20
124.045180
11
84.610015
21
124.063787
0
LINE
8
Layer 1
10
84.610015
20
124.063787
11
83.782480
21
123.933797
0
LINE
8
Layer 1
10
83.782480
20
123.933797
11
83.272385
21
123.654007
0
LINE
8
Layer 1
10
83.272385
20
123.654007
11
83.098239
21
123.223215
0
LINE
8
Layer 1
10
83.098239
20
123.223215
11
83.286592
21
122.778015
0
LINE
8
Layer 1
10
83.286592
20
122.778015
11
83.866565
21
122.332353
0
LINE
8
Layer 1
10
83.866565
20
122.332353
11
86.290878
21
121.379951
0
LINE
8
Layer 1
10
86.290878
20
121.379951
11
88.017510
21
120.723252
0
LINE
8
Layer 1
10
88.017510
20
120.723252
11
89.724428
21
119.877170
0
LINE
8
Layer 1
10
89.724428
20
119.877170
11
91.099223
21
119.015188
0
LINE
8
Layer 1
10
91.099223
20
119.015188
11
91.829489
21
118.310784
0
LINE
8
Layer 1
10
91.829489
20
118.310784
11
91.881831
21
118.027978
0
LINE
8
Layer 1
10
91.881831
20
118.027978
11
91.451442
21
117.872741
0
LINE
8
Layer 1
10
91.451442
20
117.872741
11
87.931295
21
117.781618
0
LINE
8
Layer 1
10
87.931295
20
117.781618
11
83.529770
21
117.615247
0
LINE
8
Layer 1
10
83.529770
20
117.615247
11
79.367947
21
117.104030
0
LINE
8
Layer 1
10
79.367947
20
117.104030
11
74.959014
21
116.166520
0
LINE
8
Layer 1
10
74.959014
20
116.166520
11
69.816156
21
114.721270
0
LINE
8
Layer 1
10
69.816156
20
114.721270
11
65.880936
21
113.666322
0
LINE
8
Layer 1
10
65.880936
20
113.666322
11
62.196156
21
112.886826
0
LINE
8
Layer 1
10
62.196156
20
112.886826
11
58.598696
21
112.445909
0
LINE
8
Layer 1
10
58.598696
20
112.445909
11
54.876017
21
112.207729
0
LINE
8
Layer 1
10
54.876017
20
112.207729
11
51.089953
21
112.268341
0
LINE
8
Layer 1
10
51.089953
20
112.268341
11
47.397128
21
112.922104
0
LINE
8
Layer 1
10
47.397128
20
112.922104
11
42.016414
21
113.962975
0
LINE
8
Layer 1
10
42.016414
20
113.962975
11
37.507302
21
114.507207
0
LINE
8
Layer 1
10
37.507302
20
114.507207
11
33.603937
21
114.574182
0
LINE
8
Layer 1
10
33.603937
20
114.574182
11
30.040464
21
114.183284
0
LINE
8
Layer 1
10
30.040464
20
114.183284
11
27.522880
21
113.814653
0
LINE
8
Layer 1
10
27.522880
20
113.814653
11
27.345549
21
114.000026
0
LINE
8
Layer 1
10
27.345549
20
114.000026
11
27.509283
21
114.474326
0
LINE
8
Layer 1
10
27.509283
20
114.474326
11
28.490353
21
116.300317
0
LINE
8
Layer 1
10
28.490353
20
116.300317
11
30.064814
21
118.354083
0
LINE
8
Layer 1
10
30.064814
20
118.354083
11
32.052638
21
120.425886
0
LINE
8
Layer 1
10
32.052638
20
120.425886
11
34.273798
21
122.305993
0
LINE
8
Layer 1
10
34.273798
20
122.305993
11
38.053188
21
124.766772
0
LINE
8
Layer 1
10
38.053188
20
124.766772
11
43.304909
21
127.677034
0
LINE
8
Layer 1
10
43.304909
20
127.677034
11
50.749820
21
131.775836
0
LINE
8
Layer 1
10
50.749820
20
131.775836
11
56.287128
21
135.182381
0
LINE
8
Layer 1
10
56.287128
20
135.182381
11
58.449914
21
137.028608
0
LINE
8
Layer 1
10
58.449914
20
137.028608
11
60.315345
21
139.077449
0
LINE
8
Layer 1
10
60.315345
20
139.077449
11
61.771806
21
141.407871
0
LINE
8
Layer 1
10
61.771806
20
141.407871
11
62.311794
21
142.703352
0
LINE
8
Layer 1
10
62.311794
20
142.703352
11
62.707684
21
144.098840
0
LINE
8
Layer 1
10
62.707684
20
144.098840
11
62.707684
21
144.098840
0
LINE
8
Layer 1
10
119.522545
20
128.153284
11
121.390136
21
127.888312
0
LINE
8
Layer 1
10
121.390136
20
127.888312
11
123.574676
21
127.186518
0
LINE
8
Layer 1
10
123.574676
20
127.186518
11
125.721935
21
126.187586
0
LINE
8
Layer 1
10
125.721935
20
126.187586
11
127.477684
21
125.031201
0
LINE
8
Layer 1
10
127.477684
20
125.031201
11
128.194335
21
124.308026
0
LINE
8
Layer 1
10
128.194335
20
124.308026
11
128.849125
21
123.394872
0
LINE
8
Layer 1
10
128.849125
20
123.394872
11
129.899626
21
121.202817
0
LINE
8
Layer 1
10
129.899626
20
121.202817
11
130.482195
21
118.863409
0
LINE
8
Layer 1
10
130.482195
20
118.863409
11
130.552068
21
117.766064
0
LINE
8
Layer 1
10
130.552068
20
117.766064
11
130.449836
21
116.785020
0
LINE
8
Layer 1
10
130.449836
20
116.785020
11
130.139021
21
115.824007
0
LINE
8
Layer 1
10
130.139021
20
115.824007
11
129.626730
21
114.834037
0
LINE
8
Layer 1
10
129.626730
20
114.834037
11
128.105180
21
112.879770
0
LINE
8
Layer 1
10
128.105180
20
112.879770
11
126.100108
21
111.147312
0
LINE
8
Layer 1
10
126.100108
20
111.147312
11
123.826434
21
109.861756
0
LINE
8
Layer 1
10
123.826434
20
109.861756
11
122.274211
21
109.279673
0
LINE
8
Layer 1
10
122.274211
20
109.279673
11
121.057128
21
110.408562
0
LINE
8
Layer 1
10
121.057128
20
110.408562
11
119.928239
21
111.493354
0
LINE
8
Layer 1
10
119.928239
20
111.493354
11
119.928239
21
114.103909
0
LINE
8
Layer 1
10
119.928239
20
114.103909
11
119.804687
21
116.484844
0
LINE
8
Layer 1
10
119.804687
20
116.484844
11
119.590805
21
117.236684
0
LINE
8
Layer 1
10
119.590805
20
117.236684
11
119.222684
21
117.984465
0
LINE
8
Layer 1
10
119.222684
20
117.984465
11
118.383658
21
119.123971
0
LINE
8
Layer 1
10
118.383658
20
119.123971
11
117.128430
21
120.264607
0
LINE
8
Layer 1
10
117.128430
20
120.264607
11
115.416613
21
121.438158
0
LINE
8
Layer 1
10
115.416613
20
121.438158
11
113.207823
21
122.676409
0
LINE
8
Layer 1
10
113.207823
20
122.676409
11
110.729559
21
123.964048
0
LINE
8
Layer 1
10
110.729559
20
123.964048
11
111.373378
21
124.590229
0
LINE
8
Layer 1
10
111.373378
20
124.590229
11
113.172499
21
126.003427
0
LINE
8
Layer 1
10
113.172499
20
126.003427
11
115.277918
21
127.133063
0
LINE
8
Layer 1
10
115.277918
20
127.133063
11
117.468359
21
127.882046
0
LINE
8
Layer 1
10
117.468359
20
127.882046
11
119.522545
21
128.153284
0
LINE
8
Layer 1
10
119.522545
20
128.153284
11
119.522545
21
128.153284
0
LINE
8
Layer 1
10
88.442823
20
113.574743
11
91.434985
21
113.464030
0
LINE
8
Layer 1
10
91.434985
20
113.464030
11
94.664592
21
113.142105
0
LINE
8
Layer 1
10
94.664592
20
113.142105
11
102.289350
21
111.872590
0
LINE
8
Layer 1
10
102.289350
20
111.872590
11
108.818298
21
110.401762
0
LINE
8
Layer 1
10
108.818298
20
110.401762
11
111.237522
21
109.695385
0
LINE
8
Layer 1
10
111.237522
20
109.695385
11
112.934420
21
109.050368
0
LINE
8
Layer 1
10
112.934420
20
109.050368
11
114.022899
21
108.421588
0
LINE
8
Layer 1
10
114.022899
20
108.421588
11
115.010154
21
107.604483
0
LINE
8
Layer 1
10
115.010154
20
107.604483
11
115.887055
21
106.615000
0
LINE
8
Layer 1
10
115.887055
20
106.615000
11
116.644470
21
105.469085
0
LINE
8
Layer 1
10
116.644470
20
105.469085
11
117.273268
21
104.182683
0
LINE
8
Layer 1
10
117.273268
20
104.182683
11
117.764316
21
102.771741
0
LINE
8
Layer 1
10
117.764316
20
102.771741
11
118.108485
21
101.252205
0
LINE
8
Layer 1
10
118.108485
20
101.252205
11
118.296642
21
99.640020
0
LINE
8
Layer 1
10
118.296642
20
99.640020
11
118.226803
21
96.976032
0
LINE
8
Layer 1
10
118.226803
20
96.976032
11
117.987772
21
95.901895
0
LINE
8
Layer 1
10
117.987772
20
95.901895
11
117.608247
21
94.991266
0
LINE
8
Layer 1
10
117.608247
20
94.991266
11
117.084915
21
94.237847
0
LINE
8
Layer 1
10
117.084915
20
94.237847
11
116.414462
21
93.635339
0
LINE
8
Layer 1
10
116.414462
20
93.635339
11
115.593572
21
93.177445
0
LINE
8
Layer 1
10
115.593572
20
93.177445
11
114.618934
21
92.857868
0
LINE
8
Layer 1
10
114.618934
20
92.857868
11
112.498883
21
92.650631
0
LINE
8
Layer 1
10
112.498883
20
92.650631
11
109.337954
21
92.715600
0
LINE
8
Layer 1
10
109.337954
20
92.715600
11
105.547707
21
93.030296
0
LINE
8
Layer 1
10
105.547707
20
93.030296
11
101.539698
21
93.572243
0
LINE
8
Layer 1
10
101.539698
20
93.572243
11
96.362684
21
94.374812
0
LINE
8
Layer 1
10
96.362684
20
94.374812
11
93.416989
21
94.859881
0
LINE
8
Layer 1
10
93.416989
20
94.859881
11
90.333388
21
95.151865
0
LINE
8
Layer 1
10
90.333388
20
95.151865
11
86.502610
21
94.940584
0
LINE
8
Layer 1
10
86.502610
20
94.940584
11
81.326834
21
94.159784
0
LINE
8
Layer 1
10
81.326834
20
94.159784
11
74.208239
21
92.743215
0
LINE
8
Layer 1
10
74.208239
20
92.743215
11
69.920524
21
91.876749
0
LINE
8
Layer 1
10
69.920524
20
91.876749
11
66.535560
21
91.319936
0
LINE
8
Layer 1
10
66.535560
20
91.319936
11
63.388602
21
90.983077
0
LINE
8
Layer 1
10
63.388602
20
90.983077
11
59.814906
21
90.776479
0
LINE
8
Layer 1
10
59.814906
20
90.776479
11
45.540463
21
90.516200
0
LINE
8
Layer 1
10
45.540463
20
90.516200
11
33.709353
21
90.503076
0
LINE
8
Layer 1
10
33.709353
20
90.503076
11
29.575971
21
90.986583
0
LINE
8
Layer 1
10
29.575971
20
90.986583
11
26.087745
21
91.552724
0
LINE
8
Layer 1
10
26.087745
20
91.552724
11
23.133900
21
92.222427
0
LINE
8
Layer 1
10
23.133900
20
92.222427
11
20.603658
21
93.016618
0
LINE
8
Layer 1
10
20.603658
20
93.016618
11
19.043021
21
93.632213
0
LINE
8
Layer 1
10
19.043021
20
93.632213
11
17.994468
21
94.193545
0
LINE
8
Layer 1
10
17.994468
20
94.193545
11
17.240684
21
94.849920
0
LINE
8
Layer 1
10
17.240684
20
94.849920
11
16.564353
21
95.750645
0
LINE
8
Layer 1
10
16.564353
20
95.750645
11
16.153903
21
96.443979
0
LINE
8
Layer 1
10
16.153903
20
96.443979
11
15.919246
21
97.110983
0
LINE
8
Layer 1
10
15.919246
20
97.110983
11
15.788242
21
99.207868
0
LINE
8
Layer 1
10
15.788242
20
99.207868
11
15.948400
21
101.429408
0
LINE
8
Layer 1
10
15.948400
20
101.429408
11
16.731922
21
103.405923
0
LINE
8
Layer 1
10
16.731922
20
103.405923
11
17.786825
21
105.145088
0
LINE
8
Layer 1
10
17.786825
20
105.145088
11
19.121992
21
106.466270
0
LINE
8
Layer 1
10
19.121992
20
106.466270
11
20.206342
21
107.272699
0
LINE
8
Layer 1
10
20.206342
20
107.272699
11
21.155213
21
107.798554
0
LINE
8
Layer 1
10
21.155213
20
107.798554
11
22.275893
21
108.178614
0
LINE
8
Layer 1
10
22.275893
20
108.178614
11
23.875672
21
108.547659
0
LINE
8
Layer 1
10
23.875672
20
108.547659
11
29.206524
21
109.425393
0
LINE
8
Layer 1
10
29.206524
20
109.425393
11
34.264545
21
109.775591
0
LINE
8
Layer 1
10
34.264545
20
109.775591
11
38.914882
21
109.595607
0
LINE
8
Layer 1
10
38.914882
20
109.595607
11
41.045029
21
109.305971
0
LINE
8
Layer 1
10
41.045029
20
109.305971
11
43.022687
21
108.882798
0
LINE
8
Layer 1
10
43.022687
20
108.882798
11
46.182119
21
108.108658
0
LINE
8
Layer 1
10
46.182119
20
108.108658
11
48.566996
21
107.702328
0
LINE
8
Layer 1
10
48.566996
20
107.702328
11
51.015170
21
107.570938
0
LINE
8
Layer 1
10
51.015170
20
107.570938
11
54.364489
21
107.621618
0
LINE
8
Layer 1
10
54.364489
20
107.621618
11
58.783082
21
107.876082
0
LINE
8
Layer 1
10
58.783082
20
107.876082
11
63.104688
21
108.483753
0
LINE
8
Layer 1
10
63.104688
20
108.483753
11
68.158243
21
109.597423
0
LINE
8
Layer 1
10
68.158243
20
109.597423
11
74.772684
21
111.369881
0
LINE
8
Layer 1
10
74.772684
20
111.369881
11
78.524931
21
112.342525
0
LINE
8
Layer 1
10
78.524931
20
112.342525
11
81.944665
21
113.032332
0
LINE
8
Layer 1
10
81.944665
20
113.032332
11
85.195943
21
113.442129
0
LINE
8
Layer 1
10
85.195943
20
113.442129
11
88.442823
21
113.574743
0
LINE
8
Layer 1
10
88.442823
20
113.574743
11
88.442823
21
113.574743
0
LINE
8
Layer 1
10
89.686364
20
90.423701
11
92.967191
21
90.305098
0
LINE
8
Layer 1
10
92.967191
20
90.305098
11
96.691777
21
89.940092
0
LINE
8
Layer 1
10
96.691777
20
89.940092
11
100.765549
21
89.338435
0
LINE
8
Layer 1
10
100.765549
20
89.338435
11
105.093934
21
88.509881
0
LINE
8
Layer 1
10
105.093934
20
88.509881
11
107.210600
21
87.998354
0
LINE
8
Layer 1
10
107.210600
20
87.998354
11
107.589836
21
87.372173
0
LINE
8
Layer 1
10
107.589836
20
87.372173
11
108.456377
21
85.868818
0
LINE
8
Layer 1
10
108.456377
20
85.868818
11
108.941899
21
84.506929
0
LINE
8
Layer 1
10
108.941899
20
84.506929
11
109.154879
21
82.813773
0
LINE
8
Layer 1
10
109.154879
20
82.813773
11
109.203795
21
80.316618
0
LINE
8
Layer 1
10
109.203795
20
80.316618
11
109.091973
21
76.799101
0
LINE
8
Layer 1
10
109.091973
20
76.799101
11
108.692267
21
74.354673
0
LINE
8
Layer 1
10
108.692267
20
74.354673
11
108.171920
21
72.343840
0
LINE
8
Layer 1
10
108.171920
20
72.343840
11
106.857823
21
72.167451
0
LINE
8
Layer 1
10
106.857823
20
72.167451
11
105.435446
21
71.818569
0
LINE
8
Layer 1
10
105.435446
20
71.818569
11
103.826765
21
71.160369
0
LINE
8
Layer 1
10
103.826765
20
71.160369
11
102.188005
21
70.267082
0
LINE
8
Layer 1
10
102.188005
20
70.267082
11
100.675392
21
69.212937
0
LINE
8
Layer 1
10
100.675392
20
69.212937
11
99.051477
21
67.608209
0
LINE
8
Layer 1
10
99.051477
20
67.608209
11
97.218170
21
65.394118
0
LINE
8
Layer 1
10
97.218170
20
65.394118
11
95.919118
21
63.754075
0
LINE
8
Layer 1
10
95.919118
20
63.754075
11
94.845778
21
62.712297
0
LINE
8
Layer 1
10
94.845778
20
62.712297
11
93.721707
21
62.056725
0
LINE
8
Layer 1
10
93.721707
20
62.056725
11
92.270461
21
61.575298
0
LINE
8
Layer 1
10
92.270461
20
61.575298
11
90.983890
21
61.373336
0
LINE
8
Layer 1
10
90.983890
20
61.373336
11
89.210703
21
61.277443
0
LINE
8
Layer 1
10
89.210703
20
61.277443
11
85.602961
21
61.434187
0
LINE
8
Layer 1
10
85.602961
20
61.434187
11
84.359420
21
61.610576
0
LINE
8
Layer 1
10
84.359420
20
61.610576
11
84.359420
21
64.468076
0
LINE
8
Layer 1
10
84.359420
20
64.468076
11
84.242081
21
67.114308
0
LINE
8
Layer 1
10
84.242081
20
67.114308
11
84.014649
21
67.970793
0
LINE
8
Layer 1
10
84.014649
20
67.970793
11
83.609767
21
68.886618
0
LINE
8
Layer 1
10
83.609767
20
68.886618
11
82.947224
21
69.981309
0
LINE
8
Layer 1
10
82.947224
20
69.981309
11
82.187679
21
70.776898
0
LINE
8
Layer 1
10
82.187679
20
70.776898
11
81.345429
21
71.262347
0
LINE
8
Layer 1
10
81.345429
20
71.262347
11
80.434767
21
71.426618
0
LINE
8
Layer 1
10
80.434767
20
71.426618
11
79.799700
21
71.280047
0
LINE
8
Layer 1
10
79.799700
20
71.280047
11
79.525908
21
70.748396
0
LINE
8
Layer 1
10
79.525908
20
70.748396
11
79.594098
21
69.693755
0
LINE
8
Layer 1
10
79.594098
20
69.693755
11
79.984975
21
67.978215
0
LINE
8
Layer 1
10
79.984975
20
67.978215
11
80.475764
21
65.612323
0
LINE
8
Layer 1
10
80.475764
20
65.612323
11
80.455504
21
64.781857
0
LINE
8
Layer 1
10
80.455504
20
64.781857
11
80.284836
21
63.815437
0
LINE
8
Layer 1
10
80.284836
20
63.815437
11
79.829608
21
62.383706
0
LINE
8
Layer 1
10
79.829608
20
62.383706
11
79.107544
21
61.201872
0
LINE
8
Layer 1
10
79.107544
20
61.201872
11
78.083363
21
60.224389
0
LINE
8
Layer 1
10
78.083363
20
60.224389
11
76.721781
21
59.405715
0
LINE
8
Layer 1
10
76.721781
20
59.405715
11
74.938613
21
58.765066
0
LINE
8
Layer 1
10
74.938613
20
58.765066
11
72.426711
21
58.550229
0
LINE
8
Layer 1
10
72.426711
20
58.550229
11
70.463114
21
58.541960
0
LINE
8
Layer 1
10
70.463114
20
58.541960
11
69.040125
21
58.719353
0
LINE
8
Layer 1
10
69.040125
20
58.719353
11
67.844196
21
59.156143
0
LINE
8
Layer 1
10
67.844196
20
59.156143
11
66.561781
21
59.926062
0
LINE
8
Layer 1
10
66.561781
20
59.926062
11
65.652901
21
60.619047
0
LINE
8
Layer 1
10
65.652901
20
60.619047
11
64.923680
21
61.362915
0
LINE
8
Layer 1
10
64.923680
20
61.362915
11
64.369716
21
62.171345
0
LINE
8
Layer 1
10
64.369716
20
62.171345
11
63.986607
21
63.058017
0
LINE
8
Layer 1
10
63.986607
20
63.058017
11
63.769952
21
64.036610
0
LINE
8
Layer 1
10
63.769952
20
64.036610
11
63.715350
21
65.120804
0
LINE
8
Layer 1
10
63.715350
20
65.120804
11
64.074698
21
67.660715
0
LINE
8
Layer 1
10
64.074698
20
67.660715
11
64.362911
21
69.187900
0
LINE
8
Layer 1
10
64.362911
20
69.187900
11
64.311935
21
70.123229
0
LINE
8
Layer 1
10
64.311935
20
70.123229
11
63.871142
21
70.614436
0
LINE
8
Layer 1
10
63.871142
20
70.614436
11
62.989906
21
70.809256
0
LINE
8
Layer 1
10
62.989906
20
70.809256
11
62.035098
21
70.705205
0
LINE
8
Layer 1
10
62.035098
20
70.705205
11
61.252475
21
69.927312
0
LINE
8
Layer 1
10
61.252475
20
69.927312
11
60.530120
21
68.712001
0
LINE
8
Layer 1
10
60.530120
20
68.712001
11
60.025663
21
67.275883
0
LINE
8
Layer 1
10
60.025663
20
67.275883
11
59.757580
21
65.688222
0
LINE
8
Layer 1
10
59.757580
20
65.688222
11
59.744350
21
64.018284
0
LINE
8
Layer 1
10
59.744350
20
64.018284
11
59.885461
21
62.113284
0
LINE
8
Layer 1
10
59.885461
20
62.113284
11
58.721295
21
61.760506
0
LINE
8
Layer 1
10
58.721295
20
61.760506
11
56.994330
21
61.519058
0
LINE
8
Layer 1
10
56.994330
20
61.519058
11
54.452684
21
61.434187
0
LINE
8
Layer 1
10
54.452684
20
61.434187
11
51.646391
21
61.573452
0
LINE
8
Layer 1
10
51.646391
20
61.573452
11
49.743100
21
62.078006
0
LINE
8
Layer 1
10
49.743100
20
62.078006
11
48.731660
21
62.524747
0
LINE
8
Layer 1
10
48.731660
20
62.524747
11
47.865069
21
63.092423
0
LINE
8
Layer 1
10
47.865069
20
63.092423
11
45.492131
21
65.438215
0
LINE
8
Layer 1
10
45.492131
20
65.438215
11
44.399330
21
66.448218
0
LINE
8
Layer 1
10
44.399330
20
66.448218
11
43.001270
21
67.513303
0
LINE
8
Layer 1
10
43.001270
20
67.513303
11
41.503675
21
68.488935
0
LINE
8
Layer 1
10
41.503675
20
68.488935
11
40.112270
21
69.230576
0
LINE
8
Layer 1
10
40.112270
20
69.230576
11
37.047875
21
70.325980
0
LINE
8
Layer 1
10
37.047875
20
70.325980
11
34.529562
21
70.862173
0
LINE
8
Layer 1
10
34.529562
20
70.862173
11
33.870772
21
70.989098
0
LINE
8
Layer 1
10
33.870772
20
70.989098
11
33.691714
21
71.497173
0
LINE
8
Layer 1
10
33.691714
20
71.497173
11
33.197825
21
78.720298
0
LINE
8
Layer 1
10
33.197825
20
78.720298
11
32.721575
21
85.317243
0
LINE
8
Layer 1
10
32.721575
20
85.317243
11
33.956298
21
85.140854
0
LINE
8
Layer 1
10
33.956298
20
85.140854
11
42.431784
21
84.955645
0
LINE
8
Layer 1
10
42.431784
20
84.955645
11
47.416272
21
84.873521
0
LINE
8
Layer 1
10
47.416272
20
84.873521
11
48.760644
21
84.794172
0
LINE
8
Layer 1
10
48.760644
20
84.794172
11
49.090461
21
84.699881
0
LINE
8
Layer 1
10
49.090461
20
84.699881
11
48.131389
21
84.031081
0
LINE
8
Layer 1
10
48.131389
20
84.031081
11
46.905481
21
82.859645
0
LINE
8
Layer 1
10
46.905481
20
82.859645
11
45.773262
21
81.563223
0
LINE
8
Layer 1
10
45.773262
20
81.563223
11
45.095256
21
80.519465
0
LINE
8
Layer 1
10
45.095256
20
80.519465
11
44.850543
21
79.672858
0
LINE
8
Layer 1
10
44.850543
20
79.672858
11
44.851251
21
78.950061
0
LINE
8
Layer 1
10
44.851251
20
78.950061
11
45.086410
21
78.412243
0
LINE
8
Layer 1
10
45.086410
20
78.412243
11
45.545048
21
78.120576
0
LINE
8
Layer 1
10
45.545048
20
78.120576
11
46.093307
21
78.123072
0
LINE
8
Layer 1
10
46.093307
20
78.123072
11
46.664503
21
78.403296
0
LINE
8
Layer 1
10
46.664503
20
78.403296
11
47.247030
21
78.952264
0
LINE
8
Layer 1
10
47.247030
20
78.952264
11
47.829281
21
79.760993
0
LINE
8
Layer 1
10
47.829281
20
79.760993
11
48.477094
21
80.631324
0
LINE
8
Layer 1
10
48.477094
20
80.631324
11
49.286254
21
81.420529
0
LINE
8
Layer 1
10
49.286254
20
81.420529
11
50.238984
21
82.120118
0
LINE
8
Layer 1
10
50.238984
20
82.120118
11
51.317511
21
82.721601
0
LINE
8
Layer 1
10
51.317511
20
82.721601
11
53.780851
21
83.596293
0
LINE
8
Layer 1
10
53.780851
20
83.596293
11
56.534073
21
83.976687
0
LINE
8
Layer 1
10
56.534073
20
83.976687
11
58.131849
21
84.096133
0
LINE
8
Layer 1
10
58.131849
20
84.096133
11
59.037419
21
84.321140
0
LINE
8
Layer 1
10
59.037419
20
84.321140
11
59.313087
21
84.680397
0
LINE
8
Layer 1
10
59.313087
20
84.680397
11
59.021156
21
85.202590
0
LINE
8
Layer 1
10
59.021156
20
85.202590
11
58.820703
21
85.503244
0
LINE
8
Layer 1
10
58.820703
20
85.503244
11
59.052683
21
85.700103
0
LINE
8
Layer 1
10
59.052683
20
85.700103
11
61.719906
21
86.075715
0
LINE
8
Layer 1
10
61.719906
20
86.075715
11
74.208239
21
87.821965
0
LINE
8
Layer 1
10
74.208239
20
87.821965
11
80.417128
21
89.091965
0
LINE
8
Layer 1
10
80.417128
20
89.091965
11
84.138206
21
89.844086
0
LINE
8
Layer 1
10
84.138206
20
89.844086
11
87.137545
21
90.300229
0
LINE
8
Layer 1
10
87.137545
20
90.300229
11
89.686364
21
90.423701
0
LINE
8
Layer 1
10
89.686364
20
90.423701
11
89.686364
21
90.423701
0
LINE
8
Layer 1
10
117.185392
20
88.703909
11
117.776083
21
88.595704
0
LINE
8
Layer 1
10
117.776083
20
88.595704
11
118.202188
21
88.238100
0
LINE
8
Layer 1
10
118.202188
20
88.238100
11
119.028656
21
86.454951
0
LINE
8
Layer 1
10
119.028656
20
86.454951
11
119.713344
21
84.366238
0
LINE
8
Layer 1
10
119.713344
20
84.366238
11
120.162949
21
82.087285
0
LINE
8
Layer 1
10
120.162949
20
82.087285
11
120.407005
21
79.399249
0
LINE
8
Layer 1
10
120.407005
20
79.399249
11
120.475045
21
76.083284
0
LINE
8
Layer 1
10
120.475045
20
76.083284
11
120.310381
21
71.440321
0
LINE
8
Layer 1
10
120.310381
20
71.440321
11
119.808091
21
66.954786
0
LINE
8
Layer 1
10
119.808091
20
66.954786
11
118.916083
21
62.288639
0
LINE
8
Layer 1
10
118.916083
20
62.288639
11
117.582267
21
57.103840
0
LINE
8
Layer 1
10
117.582267
20
57.103840
11
117.081355
21
55.250732
0
LINE
8
Layer 1
10
117.081355
20
55.250732
11
117.031688
21
54.256450
0
LINE
8
Layer 1
10
117.031688
20
54.256450
11
117.216170
21
53.955411
0
LINE
8
Layer 1
10
117.216170
20
53.955411
11
117.561582
21
53.717929
0
LINE
8
Layer 1
10
117.561582
20
53.717929
11
118.799350
21
53.232104
0
LINE
8
Layer 1
10
118.799350
20
53.232104
11
121.353548
21
52.090435
0
LINE
8
Layer 1
10
121.353548
20
52.090435
11
123.420718
21
50.674437
0
LINE
8
Layer 1
10
123.420718
20
50.674437
11
125.075591
21
48.921109
0
LINE
8
Layer 1
10
125.075591
20
48.921109
11
126.392892
21
46.767451
0
LINE
8
Layer 1
10
126.392892
20
46.767451
11
127.099088
21
45.110595
0
LINE
8
Layer 1
10
127.099088
20
45.110595
11
127.602041
21
43.402317
0
LINE
8
Layer 1
10
127.602041
20
43.402317
11
127.901699
21
41.631461
0
LINE
8
Layer 1
10
127.901699
20
41.631461
11
127.998012
21
39.786873
0
LINE
8
Layer 1
10
127.998012
20
39.786873
11
127.890929
21
37.857395
0
LINE
8
Layer 1
10
127.890929
20
37.857395
11
127.580398
21
35.831874
0
LINE
8
Layer 1
10
127.580398
20
35.831874
11
127.066371
21
33.699152
0
LINE
8
Layer 1
10
127.066371
20
33.699152
11
126.348795
21
31.448076
0
LINE
8
Layer 1
10
126.348795
20
31.448076
11
125.306019
21
29.004772
0
LINE
8
Layer 1
10
125.306019
20
29.004772
11
123.939092
21
26.608877
0
LINE
8
Layer 1
10
123.939092
20
26.608877
11
122.282031
21
24.295948
0
LINE
8
Layer 1
10
122.282031
20
24.295948
11
120.368855
21
22.101542
0
LINE
8
Layer 1
10
120.368855
20
22.101542
11
118.233585
21
20.061217
0
LINE
8
Layer 1
10
118.233585
20
20.061217
11
115.910238
21
18.210529
0
LINE
8
Layer 1
10
115.910238
20
18.210529
11
113.432834
21
16.585037
0
LINE
8
Layer 1
10
113.432834
20
16.585037
11
110.835392
21
15.220298
0
LINE
8
Layer 1
10
110.835392
20
15.220298
11
103.489507
21
12.082231
0
LINE
8
Layer 1
10
103.489507
20
12.082231
11
96.419220
21
9.608534
0
LINE
8
Layer 1
10
96.419220
20
9.608534
11
89.375786
21
7.722628
0
LINE
8
Layer 1
10
89.375786
20
7.722628
11
82.110461
21
6.347937
0
LINE
8
Layer 1
10
82.110461
20
6.347937
11
76.849764
21
5.729587
0
LINE
8
Layer 1
10
76.849764
20
5.729587
11
69.974906
21
5.527729
0
LINE
8
Layer 1
10
69.974906
20
5.527729
11
61.367128
21
5.571826
0
LINE
8
Layer 1
10
61.367128
20
5.571826
11
56.843111
21
6.245937
0
LINE
8
Layer 1
10
56.843111
20
6.245937
11
51.655901
21
7.392612
0
LINE
8
Layer 1
10
51.655901
20
7.392612
11
46.466996
21
8.845978
0
LINE
8
Layer 1
10
46.466996
20
8.845978
11
41.937895
21
10.440159
0
LINE
8
Layer 1
10
41.937895
20
10.440159
11
30.858996
21
15.128427
0
LINE
8
Layer 1
10
30.858996
20
15.128427
11
26.721398
21
17.031224
0
LINE
8
Layer 1
10
26.721398
20
17.031224
11
24.166713
21
18.351201
0
LINE
8
Layer 1
10
24.166713
20
18.351201
11
21.820340
21
19.929097
0
LINE
8
Layer 1
10
21.820340
20
19.929097
11
19.644556
21
21.751238
0
LINE
8
Layer 1
10
19.644556
20
21.751238
11
17.651453
21
23.800658
0
LINE
8
Layer 1
10
17.651453
20
23.800658
11
15.853122
21
26.060394
0
LINE
8
Layer 1
10
15.853122
20
26.060394
11
14.261656
21
28.513482
0
LINE
8
Layer 1
10
14.261656
20
28.513482
11
12.889144
21
31.142958
0
LINE
8
Layer 1
10
12.889144
20
31.142958
11
11.747679
21
33.931856
0
LINE
8
Layer 1
10
11.747679
20
33.931856
11
10.849352
21
36.863215
0
LINE
8
Layer 1
10
10.849352
20
36.863215
11
10.239018
21
39.716600
0
LINE
8
Layer 1
10
10.239018
20
39.716600
11
10.002686
21
41.899118
0
LINE
8
Layer 1
10
10.002686
20
41.899118
11
10.144214
21
43.781605
0
LINE
8
Layer 1
10
10.144214
20
43.781605
11
10.557380
21
45.726696
0
LINE
8
Layer 1
10
10.557380
20
45.726696
11
11.225053
21
47.701581
0
LINE
8
Layer 1
10
11.225053
20
47.701581
11
12.130101
21
49.673448
0
LINE
8
Layer 1
10
12.130101
20
49.673448
11
13.255394
21
51.609487
0
LINE
8
Layer 1
10
13.255394
20
51.609487
11
14.583801
21
53.476888
0
LINE
8
Layer 1
10
14.583801
20
53.476888
11
16.098192
21
55.242841
0
LINE
8
Layer 1
10
16.098192
20
55.242841
11
17.781436
21
56.874534
0
LINE
8
Layer 1
10
17.781436
20
56.874534
11
19.513601
21
58.646027
0
LINE
8
Layer 1
10
19.513601
20
58.646027
11
20.639645
21
60.449281
0
LINE
8
Layer 1
10
20.639645
20
60.449281
11
21.249397
21
62.480404
0
LINE
8
Layer 1
10
21.249397
20
62.480404
11
21.432686
21
64.935506
0
LINE
8
Layer 1
10
21.432686
20
64.935506
11
21.299069
21
67.448976
0
LINE
8
Layer 1
10
21.299069
20
67.448976
11
20.921300
21
69.544462
0
LINE
8
Layer 1
10
20.921300
20
69.544462
11
20.333998
21
71.090539
0
LINE
8
Layer 1
10
20.333998
20
71.090539
11
19.972591
21
71.616480
0
LINE
8
Layer 1
10
19.972591
20
71.616480
11
19.571783
21
71.955784
0
LINE
8
Layer 1
10
19.571783
20
71.955784
11
18.895179
21
72.494179
0
LINE
8
Layer 1
10
18.895179
20
72.494179
11
18.336691
21
73.252327
0
LINE
8
Layer 1
10
18.336691
20
73.252327
11
17.900687
21
74.208802
0
LINE
8
Layer 1
10
17.900687
20
74.208802
11
17.591538
21
75.342179
0
LINE
8
Layer 1
10
17.591538
20
75.342179
11
17.371283
21
78.053938
0
LINE
8
Layer 1
10
17.371283
20
78.053938
11
17.710880
21
81.216201
0
LINE
8
Layer 1
10
17.710880
20
81.216201
11
18.177679
21
83.040842
0
LINE
8
Layer 1
10
18.177679
20
83.040842
11
18.844982
21
84.956227
0
LINE
8
Layer 1
10
18.844982
20
84.956227
11
19.542751
21
86.529568
0
LINE
8
Layer 1
10
19.542751
20
86.529568
11
20.100950
21
87.328076
0
LINE
8
Layer 1
10
20.100950
20
87.328076
11
20.607820
21
87.353340
0
LINE
8
Layer 1
10
20.607820
20
87.353340
11
21.459144
21
87.186965
0
LINE
8
Layer 1
10
21.459144
20
87.186965
11
25.383797
21
86.410854
0
LINE
8
Layer 1
10
25.383797
20
86.410854
11
28.206019
21
85.943423
0
LINE
8
Layer 1
10
28.206019
20
85.943423
11
28.408867
21
77.582590
0
LINE
8
Layer 1
10
28.408867
20
77.582590
11
28.708377
21
70.376391
0
LINE
8
Layer 1
10
28.708377
20
70.376391
11
29.306847
21
65.195033
0
LINE
8
Layer 1
10
29.306847
20
65.195033
11
29.768333
21
63.083096
0
LINE
8
Layer 1
10
29.768333
20
63.083096
11
30.364729
21
61.140682
0
LINE
8
Layer 1
10
30.364729
20
61.140682
11
32.042478
21
57.315506
0
LINE
8
Layer 1
10
32.042478
20
57.315506
11
33.481608
21
54.776805
0
LINE
8
Layer 1
10
33.481608
20
54.776805
11
35.013336
21
52.682924
0
LINE
8
Layer 1
10
35.013336
20
52.682924
11
36.730919
21
50.925368
0
LINE
8
Layer 1
10
36.730919
20
50.925368
11
38.727617
21
49.395645
0
LINE
8
Layer 1
10
38.727617
20
49.395645
11
40.639583
21
48.312552
0
LINE
8
Layer 1
10
40.639583
20
48.312552
11
42.836776
21
47.401223
0
LINE
8
Layer 1
10
42.836776
20
47.401223
11
45.221891
21
46.677745
0
LINE
8
Layer 1
10
45.221891
20
46.677745
11
47.697620
21
46.158203
0
LINE
8
Layer 1
10
47.697620
20
46.158203
11
50.166656
21
45.858685
0
LINE
8
Layer 1
10
50.166656
20
45.858685
11
52.531691
21
45.795276
0
LINE
8
Layer 1
10
52.531691
20
45.795276
11
54.695419
21
45.984063
0
LINE
8
Layer 1
10
54.695419
20
45.984063
11
56.560531
21
46.441131
0
LINE
8
Layer 1
10
56.560531
20
46.441131
11
57.637874
21
46.738245
0
LINE
8
Layer 1
10
57.637874
20
46.738245
11
57.879216
21
46.672948
0
LINE
8
Layer 1
10
57.879216
20
46.672948
11
58.042198
21
46.467590
0
LINE
8
Layer 1
10
58.042198
20
46.467590
11
59.379723
21
44.619518
0
LINE
8
Layer 1
10
59.379723
20
44.619518
11
61.166597
21
42.976793
0
LINE
8
Layer 1
10
61.166597
20
42.976793
11
63.291862
21
41.624257
0
LINE
8
Layer 1
10
63.291862
20
41.624257
11
65.644559
21
40.646756
0
LINE
8
Layer 1
10
65.644559
20
40.646756
11
67.786561
21
40.142972
0
LINE
8
Layer 1
10
67.786561
20
40.142972
11
70.109535
21
39.888793
0
LINE
8
Layer 1
10
70.109535
20
39.888793
11
72.515439
21
39.871073
0
LINE
8
Layer 1
10
72.515439
20
39.871073
11
74.906230
21
40.076667
0
LINE
8
Layer 1
10
74.906230
20
40.076667
11
77.183864
21
40.492428
0
LINE
8
Layer 1
10
77.183864
20
40.492428
11
79.250300
21
41.105211
0
LINE
8
Layer 1
10
79.250300
20
41.105211
11
81.007495
21
41.901869
0
LINE
8
Layer 1
10
81.007495
20
41.901869
11
82.357406
21
42.869256
0
LINE
8
Layer 1
10
82.357406
20
42.869256
11
83.772659
21
44.602404
0
LINE
8
Layer 1
10
83.772659
20
44.602404
11
84.299457
21
45.537863
0
LINE
8
Layer 1
10
84.299457
20
45.537863
11
84.615184
21
46.379395
0
LINE
8
Layer 1
10
84.615184
20
46.379395
11
84.823336
21
46.879219
0
LINE
8
Layer 1
10
84.823336
20
46.879219
11
85.192297
21
47.112710
0
LINE
8
Layer 1
10
85.192297
20
47.112710
11
85.812893
21
47.100811
0
LINE
8
Layer 1
10
85.812893
20
47.100811
11
86.775948
21
46.864465
0
LINE
8
Layer 1
10
86.775948
20
46.864465
11
88.626378
21
46.626028
0
LINE
8
Layer 1
10
88.626378
20
46.626028
11
91.402890
21
46.576791
0
LINE
8
Layer 1
10
91.402890
20
46.576791
11
94.383883
21
46.706669
0
LINE
8
Layer 1
10
94.383883
20
46.706669
11
96.847753
21
47.005576
0
LINE
8
Layer 1
10
96.847753
20
47.005576
11
98.931450
21
47.514052
0
LINE
8
Layer 1
10
98.931450
20
47.514052
11
100.923836
21
48.207208
0
LINE
8
Layer 1
10
100.923836
20
48.207208
11
102.797476
21
49.067003
0
LINE
8
Layer 1
10
102.797476
20
49.067003
11
104.524936
21
50.075396
0
LINE
8
Layer 1
10
104.524936
20
50.075396
11
106.078780
21
51.214345
0
LINE
8
Layer 1
10
106.078780
20
51.214345
11
107.431576
21
52.465809
0
LINE
8
Layer 1
10
107.431576
20
52.465809
11
108.555888
21
53.811747
0
LINE
8
Layer 1
10
108.555888
20
53.811747
11
109.424281
21
55.234118
0
LINE
8
Layer 1
10
109.424281
20
55.234118
11
110.823342
21
58.739397
0
LINE
8
Layer 1
10
110.823342
20
58.739397
11
112.206306
21
63.415921
0
LINE
8
Layer 1
10
112.206306
20
63.415921
11
113.375653
21
68.508279
0
LINE
8
Layer 1
10
113.375653
20
68.508279
11
114.133864
21
73.261062
0
LINE
8
Layer 1
10
114.133864
20
73.261062
11
114.342641
21
76.373432
0
LINE
8
Layer 1
10
114.342641
20
76.373432
11
114.412719
21
80.179000
0
LINE
8
Layer 1
10
114.412719
20
80.179000
11
114.343370
21
83.797613
0
LINE
8
Layer 1
10
114.343370
20
83.797613
11
114.133864
21
86.349118
0
LINE
8
Layer 1
10
114.133864
20
86.349118
11
113.948656
21
88.262937
0
LINE
8
Layer 1
10
113.948656
20
88.262937
11
115.941850
21
88.598076
0
LINE
8
Layer 1
10
115.941850
20
88.598076
11
117.185392
21
88.703909
0
LINE
8
Layer 1
10
117.185392
20
88.703909
11
117.185392
21
88.703909
0
LINE
8
Layer 1
10
86.626017
20
88.315854
11
85.296640
21
88.199037
0
LINE
8
Layer 1
10
85.296640
20
88.199037
11
84.221385
21
87.899760
0
LINE
8
Layer 1
10
84.221385
20
87.899760
11
83.501780
21
87.431499
0
LINE
8
Layer 1
10
83.501780
20
87.431499
11
83.239350
21
86.807729
0
LINE
8
Layer 1
10
83.239350
20
86.807729
11
83.313580
21
86.498783
0
LINE
8
Layer 1
10
83.313580
20
86.498783
11
83.648963
21
86.304533
0
LINE
8
Layer 1
10
83.648963
20
86.304533
11
85.779350
21
86.066895
0
LINE
8
Layer 1
10
85.779350
20
86.066895
11
88.348514
21
85.702466
0
LINE
8
Layer 1
10
88.348514
20
85.702466
11
90.538022
21
84.977908
0
LINE
8
Layer 1
10
90.538022
20
84.977908
11
92.370051
21
83.882825
0
LINE
8
Layer 1
10
92.370051
20
83.882825
11
93.866781
21
82.406826
0
LINE
8
Layer 1
10
93.866781
20
82.406826
11
95.436642
21
80.563562
0
LINE
8
Layer 1
10
95.436642
20
80.563562
11
96.004740
21
80.117230
0
LINE
8
Layer 1
10
96.004740
20
80.117230
11
96.587592
21
79.918550
0
LINE
8
Layer 1
10
96.587592
20
79.918550
11
97.084449
21
79.980640
0
LINE
8
Layer 1
10
97.084449
20
79.980640
11
97.394559
21
80.316618
0
LINE
8
Layer 1
10
97.394559
20
80.316618
11
97.455500
21
81.140366
0
LINE
8
Layer 1
10
97.455500
20
81.140366
11
97.122874
21
82.121160
0
LINE
8
Layer 1
10
97.122874
20
82.121160
11
96.457191
21
83.195877
0
LINE
8
Layer 1
10
96.457191
20
83.195877
11
95.518962
21
84.301396
0
LINE
8
Layer 1
10
95.518962
20
84.301396
11
94.368699
21
85.374595
0
LINE
8
Layer 1
10
94.368699
20
85.374595
11
93.066911
21
86.352351
0
LINE
8
Layer 1
10
93.066911
20
86.352351
11
91.674111
21
87.171543
0
LINE
8
Layer 1
10
91.674111
20
87.171543
11
90.250809
21
87.769048
0
LINE
8
Layer 1
10
90.250809
20
87.769048
11
88.416071
21
88.196216
0
LINE
8
Layer 1
10
88.416071
20
88.196216
11
86.626017
21
88.315854
0
LINE
8
Layer 1
10
86.626017
20
88.315854
11
86.626017
21
88.315854
0
LINE
8
Layer 1
10
85.382475
20
82.398006
11
84.209806
21
82.258668
0
LINE
8
Layer 1
10
84.209806
20
82.258668
11
83.195253
21
81.877659
0
LINE
8
Layer 1
10
83.195253
20
81.877659
11
82.160488
21
81.167519
0
LINE
8
Layer 1
10
82.160488
20
81.167519
11
81.477941
21
80.381437
0
LINE
8
Layer 1
10
81.477941
20
80.381437
11
81.102835
21
79.446087
0
LINE
8
Layer 1
10
81.102835
20
79.446087
11
80.990392
21
78.288145
0
LINE
8
Layer 1
10
80.990392
20
78.288145
11
81.148888
21
76.921177
0
LINE
8
Layer 1
10
81.148888
20
76.921177
11
81.837059
21
75.915715
0
LINE
8
Layer 1
10
81.837059
20
75.915715
11
82.761291
21
75.127133
0
LINE
8
Layer 1
10
82.761291
20
75.127133
11
83.803795
21
74.486965
0
LINE
8
Layer 1
10
83.803795
20
74.486965
11
84.513485
21
74.236303
0
LINE
8
Layer 1
10
84.513485
20
74.236303
11
85.267786
21
74.125318
0
LINE
8
Layer 1
10
85.267786
20
74.125318
11
86.812967
21
74.295872
0
LINE
8
Layer 1
10
86.812967
20
74.295872
11
88.244830
21
74.945618
0
LINE
8
Layer 1
10
88.244830
20
74.945618
11
89.368864
21
76.021548
0
LINE
8
Layer 1
10
89.368864
20
76.021548
11
89.754290
21
76.708359
0
LINE
8
Layer 1
10
89.754290
20
76.708359
11
89.976136
21
77.439713
0
LINE
8
Layer 1
10
89.976136
20
77.439713
11
90.038611
21
78.196332
0
LINE
8
Layer 1
10
90.038611
20
78.196332
11
89.945922
21
78.958936
0
LINE
8
Layer 1
10
89.945922
20
78.958936
11
89.311885
21
80.424986
0
LINE
8
Layer 1
10
89.311885
20
80.424986
11
88.778951
21
81.089874
0
LINE
8
Layer 1
10
88.778951
20
81.089874
11
88.107684
21
81.683631
0
LINE
8
Layer 1
10
88.107684
20
81.683631
11
86.886255
21
82.229684
0
LINE
8
Layer 1
10
86.886255
20
82.229684
11
85.382475
21
82.398006
0
LINE
8
Layer 1
10
85.382475
20
82.398006
11
85.382475
21
82.398006
0
LINE
8
Layer 1
10
56.719281
20
81.304395
11
55.514197
21
81.173379
0
LINE
8
Layer 1
10
55.514197
20
81.173379
11
54.469927
21
80.772242
0
LINE
8
Layer 1
10
54.469927
20
80.772242
11
53.560352
21
80.085967
0
LINE
8
Layer 1
10
53.560352
20
80.085967
11
52.759350
21
79.099534
0
LINE
8
Layer 1
10
52.759350
20
79.099534
11
52.203402
21
77.987505
0
LINE
8
Layer 1
10
52.203402
20
77.987505
11
52.221364
21
76.824118
0
LINE
8
Layer 1
10
52.221364
20
76.824118
11
52.480034
21
75.866644
0
LINE
8
Layer 1
10
52.480034
20
75.866644
11
52.933068
21
75.018238
0
LINE
8
Layer 1
10
52.933068
20
75.018238
11
53.581465
21
74.279021
0
LINE
8
Layer 1
10
53.581465
20
74.279021
11
54.426225
21
73.649118
0
LINE
8
Layer 1
10
54.426225
20
73.649118
11
55.739517
21
73.188916
0
LINE
8
Layer 1
10
55.739517
20
73.188916
11
57.276092
21
73.147688
0
LINE
8
Layer 1
10
57.276092
20
73.147688
11
58.770181
21
73.498287
0
LINE
8
Layer 1
10
58.770181
20
73.498287
11
59.956017
21
74.213562
0
LINE
8
Layer 1
10
59.956017
20
74.213562
11
60.837026
21
75.316380
0
LINE
8
Layer 1
10
60.837026
20
75.316380
11
61.288292
21
76.494525
0
LINE
8
Layer 1
10
61.288292
20
76.494525
11
61.341030
21
77.679411
0
LINE
8
Layer 1
10
61.341030
20
77.679411
11
61.026454
21
78.802451
0
LINE
8
Layer 1
10
61.026454
20
78.802451
11
60.375777
21
79.795056
0
LINE
8
Layer 1
10
60.375777
20
79.795056
11
59.420213
21
80.588640
0
LINE
8
Layer 1
10
59.420213
20
80.588640
11
58.190977
21
81.114616
0
LINE
8
Layer 1
10
58.190977
20
81.114616
11
56.719281
21
81.304395
0
LINE
8
Layer 1
10
56.719281
20
81.304395
11
56.719281
21
81.304395
0
LINE
8
Layer 1
10
107.316434
20
69.168840
11
107.918339
21
68.998437
0
LINE
8
Layer 1
10
107.918339
20
68.998437
11
108.604073
21
68.586756
0
LINE
8
Layer 1
10
108.604073
20
68.586756
11
109.163552
21
67.876914
0
LINE
8
Layer 1
10
109.163552
20
67.876914
11
109.336397
21
66.867391
0
LINE
8
Layer 1
10
109.336397
20
66.867391
11
109.121032
21
65.462984
0
LINE
8
Layer 1
10
109.121032
20
65.462984
11
108.515878
21
63.568493
0
LINE
8
Layer 1
10
108.515878
20
63.568493
11
107.205283
21
60.496867
0
LINE
8
Layer 1
10
107.205283
20
60.496867
11
105.649949
21
57.632052
0
LINE
8
Layer 1
10
105.649949
20
57.632052
11
103.984177
21
55.195458
0
LINE
8
Layer 1
10
103.984177
20
55.195458
11
102.342267
21
53.408493
0
LINE
8
Layer 1
10
102.342267
20
53.408493
11
101.196910
21
52.624683
0
LINE
8
Layer 1
10
101.196910
20
52.624683
11
99.633105
21
51.861543
0
LINE
8
Layer 1
10
99.633105
20
51.861543
11
97.823152
21
51.192781
0
LINE
8
Layer 1
10
97.823152
20
51.192781
11
95.939350
21
50.692104
0
LINE
8
Layer 1
10
95.939350
20
50.692104
11
93.391413
21
50.320377
0
LINE
8
Layer 1
10
93.391413
20
50.320377
11
90.436017
21
50.092381
0
LINE
8
Layer 1
10
90.436017
20
50.092381
11
87.342423
21
50.104603
0
LINE
8
Layer 1
10
87.342423
20
50.104603
11
84.853309
21
50.674465
0
LINE
8
Layer 1
10
84.853309
20
50.674465
11
82.078132
21
51.678895
0
LINE
8
Layer 1
10
82.078132
20
51.678895
11
79.918266
21
52.785528
0
LINE
8
Layer 1
10
79.918266
20
52.785528
11
78.517153
21
53.903782
0
LINE
8
Layer 1
10
78.517153
20
53.903782
11
78.145956
21
54.438960
0
LINE
8
Layer 1
10
78.145956
20
54.438960
11
78.018239
21
54.943076
0
LINE
8
Layer 1
10
78.018239
20
54.943076
11
78.157585
21
55.640406
0
LINE
8
Layer 1
10
78.157585
20
55.640406
11
78.563277
21
56.305928
0
LINE
8
Layer 1
10
78.563277
20
56.305928
11
79.216797
21
56.918409
0
LINE
8
Layer 1
10
79.216797
20
56.918409
11
80.099628
21
57.456618
0
LINE
8
Layer 1
10
80.099628
20
57.456618
11
81.001289
21
57.850535
0
LINE
8
Layer 1
10
81.001289
20
57.850535
11
82.011786
21
58.062351
0
LINE
8
Layer 1
10
82.011786
20
58.062351
11
86.334975
21
58.170993
0
LINE
8
Layer 1
10
86.334975
20
58.170993
11
89.379092
21
58.220309
0
LINE
8
Layer 1
10
89.379092
20
58.220309
11
91.629750
21
58.402240
0
LINE
8
Layer 1
10
91.629750
20
58.402240
11
93.631909
21
58.790456
0
LINE
8
Layer 1
10
93.631909
20
58.790456
11
95.930531
21
59.458631
0
LINE
8
Layer 1
10
95.930531
20
59.458631
11
97.268300
21
60.048387
0
LINE
8
Layer 1
10
97.268300
20
60.048387
11
98.536403
21
60.974716
0
LINE
8
Layer 1
10
98.536403
20
60.974716
11
99.806848
21
62.300555
0
LINE
8
Layer 1
10
99.806848
20
62.300555
11
101.151642
21
64.088840
0
LINE
8
Layer 1
10
101.151642
20
64.088840
11
102.694864
21
66.011190
0
LINE
8
Layer 1
10
102.694864
20
66.011190
11
104.398145
21
67.632039
0
LINE
8
Layer 1
10
104.398145
20
67.632039
11
106.019373
21
68.751289
0
LINE
8
Layer 1
10
106.019373
20
68.751289
11
106.723556
21
69.060283
0
LINE
8
Layer 1
10
106.723556
20
69.060283
11
107.316434
21
69.168840
0
LINE
8
Layer 1
10
107.316434
20
69.168840
11
107.316434
21
69.168840
0
LINE
8
Layer 1
10
33.744631
20
68.181062
11
34.150325
21
68.154604
0
LINE
8
Layer 1
10
34.150325
20
68.154604
11
35.606703
21
67.696147
0
LINE
8
Layer 1
10
35.606703
20
67.696147
11
37.310054
21
66.826992
0
LINE
8
Layer 1
10
37.310054
20
66.826992
11
39.177586
21
65.596383
0
LINE
8
Layer 1
10
39.177586
20
65.596383
11
41.126506
21
64.053562
0
LINE
8
Layer 1
10
41.126506
20
64.053562
11
45.560560
21
60.414882
0
LINE
8
Layer 1
10
45.560560
20
60.414882
11
46.785064
21
59.654997
0
LINE
8
Layer 1
10
46.785064
20
59.654997
11
47.891017
21
59.211687
0
LINE
8
Layer 1
10
47.891017
20
59.211687
11
50.345566
21
58.476497
0
LINE
8
Layer 1
10
50.345566
20
58.476497
11
52.435920
21
58.034567
0
LINE
8
Layer 1
10
52.435920
20
58.034567
11
54.670350
21
57.808575
0
LINE
8
Layer 1
10
54.670350
20
57.808575
11
57.557128
21
57.721201
0
LINE
8
Layer 1
10
57.557128
20
57.721201
11
60.425412
21
57.634818
0
LINE
8
Layer 1
10
60.425412
20
57.634818
11
62.471145
21
57.421727
0
LINE
8
Layer 1
10
62.471145
20
57.421727
11
64.055269
21
57.018824
0
LINE
8
Layer 1
10
64.055269
20
57.018824
11
65.538725
21
56.363006
0
LINE
8
Layer 1
10
65.538725
20
56.363006
11
66.417541
21
55.713385
0
LINE
8
Layer 1
10
66.417541
20
55.713385
11
66.727581
21
54.995306
0
LINE
8
Layer 1
10
66.727581
20
54.995306
11
66.467447
21
54.251111
0
LINE
8
Layer 1
10
66.467447
20
54.251111
11
65.635739
21
53.523145
0
LINE
8
Layer 1
10
65.635739
20
53.523145
11
64.453644
21
52.905144
0
LINE
8
Layer 1
10
64.453644
20
52.905144
11
62.807923
21
52.271147
0
LINE
8
Layer 1
10
62.807923
20
52.271147
11
57.698239
21
50.806756
0
LINE
8
Layer 1
10
57.698239
20
50.806756
11
54.600581
21
50.159355
0
LINE
8
Layer 1
10
54.600581
20
50.159355
11
51.912684
21
50.013006
0
LINE
8
Layer 1
10
51.912684
20
50.013006
11
48.765943
21
50.183586
0
LINE
8
Layer 1
10
48.765943
20
50.183586
11
46.000961
21
50.598857
0
LINE
8
Layer 1
10
46.000961
20
50.598857
11
43.680504
21
51.245960
0
LINE
8
Layer 1
10
43.680504
20
51.245960
11
41.867339
21
52.112034
0
LINE
8
Layer 1
10
41.867339
20
52.112034
11
40.504669
21
53.166568
0
LINE
8
Layer 1
10
40.504669
20
53.166568
11
39.065328
21
54.620365
0
LINE
8
Layer 1
10
39.065328
20
54.620365
11
37.614278
21
56.375759
0
LINE
8
Layer 1
10
37.614278
20
56.375759
11
36.216478
21
58.335086
0
LINE
8
Layer 1
10
36.216478
20
58.335086
11
34.936890
21
60.400682
0
LINE
8
Layer 1
10
34.936890
20
60.400682
11
33.840472
21
62.474879
0
LINE
8
Layer 1
10
33.840472
20
62.474879
11
32.992186
21
64.460015
0
LINE
8
Layer 1
10
32.992186
20
64.460015
11
32.456992
21
66.258423
0
LINE
8
Layer 1
10
32.456992
20
66.258423
11
32.438776
21
66.983592
0
LINE
8
Layer 1
10
32.438776
20
66.983592
11
32.679978
21
67.582886
0
LINE
8
Layer 1
10
32.679978
20
67.582886
11
33.131597
21
68.000608
0
LINE
8
Layer 1
10
33.131597
20
68.000608
11
33.744631
21
68.181062
0
LINE
8
Layer 1
10
33.744631
20
68.181062
11
33.744631
21
68.181062
0
LINE
8
Layer 1
10
76.871711
20
51.000784
11
77.687851
21
50.883794
0
LINE
8
Layer 1
10
77.687851
20
50.883794
11
78.653239
21
50.392243
0
LINE
8
Layer 1
10
78.653239
20
50.392243
11
79.599727
21
49.799961
0
LINE
8
Layer 1
10
79.599727
20
49.799961
11
79.993795
21
49.422104
0
LINE
8
Layer 1
10
79.993795
20
49.422104
11
78.779443
21
48.439702
0
LINE
8
Layer 1
10
78.779443
20
48.439702
11
76.324906
21
47.005576
0
LINE
8
Layer 1
10
76.324906
20
47.005576
11
74.881037
21
46.593260
0
LINE
8
Layer 1
10
74.881037
20
46.593260
11
72.373795
21
46.397034
0
LINE
8
Layer 1
10
72.373795
20
46.397034
11
70.101061
21
46.420840
0
LINE
8
Layer 1
10
70.101061
20
46.420840
11
68.294720
21
46.708848
0
LINE
8
Layer 1
10
68.294720
20
46.708848
11
66.741979
21
47.317199
0
LINE
8
Layer 1
10
66.741979
20
47.317199
11
65.230045
21
48.302034
0
LINE
8
Layer 1
10
65.230045
20
48.302034
11
63.960045
21
49.272173
0
LINE
8
Layer 1
10
63.960045
20
49.272173
11
65.415253
21
50.030645
0
LINE
8
Layer 1
10
65.415253
20
50.030645
11
66.913357
21
50.636884
0
LINE
8
Layer 1
10
66.913357
20
50.636884
11
68.563795
21
50.656826
0
LINE
8
Layer 1
10
68.563795
20
50.656826
11
72.506109
21
50.431736
0
LINE
8
Layer 1
10
72.506109
20
50.431736
11
75.196017
21
50.736201
0
LINE
8
Layer 1
10
75.196017
20
50.736201
11
76.871711
21
51.000784
0
LINE
8
Layer 1
10
76.871711
20
51.000784
11
76.871711
21
51.000784
0
LINE
8
Layer 1
10
23.117200
20
42.057868
11
22.534369
21
41.899901
0
LINE
8
Layer 1
10
22.534369
20
41.899901
11
21.944213
21
41.440506
0
LINE
8
Layer 1
10
21.944213
20
41.440506
11
21.143869
21
40.413196
0
LINE
8
Layer 1
10
21.143869
20
40.413196
11
20.642937
21
39.331479
0
LINE
8
Layer 1
10
20.642937
20
39.331479
11
20.384744
21
38.016637
0
LINE
8
Layer 1
10
20.384744
20
38.016637
11
20.312617
21
36.289951
0
LINE
8
Layer 1
10
20.312617
20
36.289951
11
20.338680
21
34.821593
0
LINE
8
Layer 1
10
20.338680
20
34.821593
11
20.475820
21
33.809639
0
LINE
8
Layer 1
10
20.475820
20
33.809639
11
20.817990
21
32.873674
0
LINE
8
Layer 1
10
20.817990
20
32.873674
11
21.459144
21
31.633284
0
LINE
8
Layer 1
10
21.459144
20
31.633284
11
22.617943
21
29.821259
0
LINE
8
Layer 1
10
22.617943
20
29.821259
11
23.805116
21
28.599395
0
LINE
8
Layer 1
10
23.805116
20
28.599395
11
24.855855
21
27.951587
0
LINE
8
Layer 1
10
24.855855
20
27.951587
11
25.692477
21
27.682173
0
LINE
8
Layer 1
10
25.692477
20
27.682173
11
26.058510
21
27.747034
0
LINE
8
Layer 1
10
26.058510
20
27.747034
11
26.299340
21
27.930695
0
LINE
8
Layer 1
10
26.299340
20
27.930695
11
26.415136
21
28.588904
0
LINE
8
Layer 1
10
26.415136
20
28.588904
11
26.059361
21
29.525761
0
LINE
8
Layer 1
10
26.059361
20
29.525761
11
25.251505
21
30.610229
0
LINE
8
Layer 1
10
25.251505
20
30.610229
11
24.447755
21
31.600185
0
LINE
8
Layer 1
10
24.447755
20
31.600185
11
23.795545
21
32.654756
0
LINE
8
Layer 1
10
23.795545
20
32.654756
11
23.298175
21
33.759907
0
LINE
8
Layer 1
10
23.298175
20
33.759907
11
22.958947
21
34.901603
0
LINE
8
Layer 1
10
22.958947
20
34.901603
11
22.781164
21
36.065810
0
LINE
8
Layer 1
10
22.781164
20
36.065810
11
22.768125
21
37.238492
0
LINE
8
Layer 1
10
22.768125
20
37.238492
11
22.923134
21
38.405615
0
LINE
8
Layer 1
10
22.923134
20
38.405615
11
23.249491
21
39.553145
0
LINE
8
Layer 1
10
23.249491
20
39.553145
11
23.648613
21
40.882330
0
LINE
8
Layer 1
10
23.648613
20
40.882330
11
23.725741
21
41.669812
0
LINE
8
Layer 1
10
23.725741
20
41.669812
11
23.488437
21
41.963426
0
LINE
8
Layer 1
10
23.488437
20
41.963426
11
23.117200
21
42.057868
0
LINE
8
Layer 1
10
23.117200
20
42.057868
11
23.117200
21
42.057868
0
LINE
8
Layer 1
10
115.897753
20
40.329256
11
115.774281
21
40.311618
0
LINE
8
Layer 1
10
115.774281
20
40.311618
11
115.458743
21
40.018844
0
LINE
8
Layer 1
10
115.458743
20
40.018844
11
115.335492
21
39.458176
0
LINE
8
Layer 1
10
115.335492
20
39.458176
11
115.407383
21
38.700253
0
LINE
8
Layer 1
10
115.407383
20
38.700253
11
115.677267
21
37.815715
0
LINE
8
Layer 1
10
115.677267
20
37.815715
11
115.979854
21
36.777295
0
LINE
8
Layer 1
10
115.979854
20
36.777295
11
116.104096
21
35.654293
0
LINE
8
Layer 1
10
116.104096
20
35.654293
11
116.057668
21
34.478595
0
LINE
8
Layer 1
10
116.057668
20
34.478595
11
115.848247
21
33.282088
0
LINE
8
Layer 1
10
115.848247
20
33.282088
11
115.483508
21
32.096659
0
LINE
8
Layer 1
10
115.483508
20
32.096659
11
114.971127
21
30.954196
0
LINE
8
Layer 1
10
114.971127
20
30.954196
11
114.318780
21
29.886586
0
LINE
8
Layer 1
10
114.318780
20
29.886586
11
113.534142
21
28.925715
0
LINE
8
Layer 1
10
113.534142
20
28.925715
11
112.504224
21
27.656292
0
LINE
8
Layer 1
10
112.504224
20
27.656292
11
112.167128
21
26.738493
0
LINE
8
Layer 1
10
112.167128
20
26.738493
11
112.227957
21
26.338116
0
LINE
8
Layer 1
10
112.227957
20
26.338116
11
112.403088
21
26.075126
0
LINE
8
Layer 1
10
112.403088
20
26.075126
11
113.052118
21
25.953745
0
LINE
8
Layer 1
10
113.052118
20
25.953745
11
114.025945
21
26.359235
0
LINE
8
Layer 1
10
114.025945
20
26.359235
11
115.236295
21
27.276479
0
LINE
8
Layer 1
10
115.236295
20
27.276479
11
116.194866
21
28.274890
0
LINE
8
Layer 1
10
116.194866
20
28.274890
11
117.010669
21
29.403990
0
LINE
8
Layer 1
10
117.010669
20
29.403990
11
117.674373
21
30.634239
0
LINE
8
Layer 1
10
117.674373
20
30.634239
11
118.176646
21
31.936099
0
LINE
8
Layer 1
10
118.176646
20
31.936099
11
118.508160
21
33.280035
0
LINE
8
Layer 1
10
118.508160
20
33.280035
11
118.659583
21
34.636506
0
LINE
8
Layer 1
10
118.659583
20
34.636506
11
118.621586
21
35.975977
0
LINE
8
Layer 1
10
118.621586
20
35.975977
11
118.384836
21
37.268909
0
LINE
8
Layer 1
10
118.384836
20
37.268909
11
117.950793
21
38.265641
0
LINE
8
Layer 1
10
117.950793
20
38.265641
11
117.271761
21
39.247401
0
LINE
8
Layer 1
10
117.271761
20
39.247401
11
116.527496
21
40.005002
0
LINE
8
Layer 1
10
116.527496
20
40.005002
11
115.897753
21
40.329256
0
LINE
8
Layer 1
10
115.897753
20
40.329256
11
115.897753
21
40.329256
0
LINE
8
Layer 1
10
35.085187
20
33.555923
11
34.492336
21
33.248489
0
LINE
8
Layer 1
10
34.492336
20
33.248489
11
34.015682
21
32.498912
0
LINE
8
Layer 1
10
34.015682
20
32.498912
11
33.701158
21
31.404715
0
LINE
8
Layer 1
10
33.701158
20
31.404715
11
33.594700
21
30.063423
0
LINE
8
Layer 1
10
33.594700
20
30.063423
11
33.717387
21
28.824038
0
LINE
8
Layer 1
10
33.717387
20
28.824038
11
34.049606
21
27.564064
0
LINE
8
Layer 1
10
34.049606
20
27.564064
11
34.570489
21
26.315408
0
LINE
8
Layer 1
10
34.570489
20
26.315408
11
35.259166
21
25.109976
0
LINE
8
Layer 1
10
35.259166
20
25.109976
11
36.094767
21
23.979676
0
LINE
8
Layer 1
10
36.094767
20
23.979676
11
37.056424
21
22.956414
0
LINE
8
Layer 1
10
37.056424
20
22.956414
11
38.123265
21
22.072097
0
LINE
8
Layer 1
10
38.123265
20
22.072097
11
39.274423
21
21.358631
0
LINE
8
Layer 1
10
39.274423
20
21.358631
11
40.336357
21
20.913748
0
LINE
8
Layer 1
10
40.336357
20
20.913748
11
41.343431
21
20.675241
0
LINE
8
Layer 1
10
41.343431
20
20.675241
11
42.147233
21
20.663776
0
LINE
8
Layer 1
10
42.147233
20
20.663776
11
42.599353
21
20.900020
0
LINE
8
Layer 1
10
42.599353
20
20.900020
11
42.618459
21
21.438295
0
LINE
8
Layer 1
10
42.618459
20
21.438295
11
42.248171
21
22.118094
0
LINE
8
Layer 1
10
42.248171
20
22.118094
11
41.612503
21
22.775348
0
LINE
8
Layer 1
10
41.612503
20
22.775348
11
40.835464
21
23.245993
0
LINE
8
Layer 1
10
40.835464
20
23.245993
11
39.737112
21
23.912637
0
LINE
8
Layer 1
10
39.737112
20
23.912637
11
38.582632
21
24.981863
0
LINE
8
Layer 1
10
38.582632
20
24.981863
11
37.535923
21
26.276765
0
LINE
8
Layer 1
10
37.535923
20
26.276765
11
36.760881
21
27.620437
0
LINE
8
Layer 1
10
36.760881
20
27.620437
11
36.280796
21
29.206197
0
LINE
8
Layer 1
10
36.280796
20
29.206197
11
35.993589
21
31.209951
0
LINE
8
Layer 1
10
35.993589
20
31.209951
11
35.759215
21
33.094468
0
LINE
8
Layer 1
10
35.759215
20
33.094468
11
35.565391
21
33.430324
0
LINE
8
Layer 1
10
35.565391
20
33.430324
11
35.261575
21
33.547104
0
LINE
8
Layer 1
10
35.261575
20
33.547104
11
35.085187
21
33.555923
0
LINE
8
Layer 1
10
35.085187
20
33.555923
11
35.085187
21
33.555923
0
LINE
8
Layer 1
10
103.497614
20
32.312381
11
103.245917
21
32.148567
0
LINE
8
Layer 1
10
103.245917
20
32.148567
11
103.047122
21
31.708762
0
LINE
8
Layer 1
10
103.047122
20
31.708762
11
102.783239
21
29.939951
0
LINE
8
Layer 1
10
102.783239
20
29.939951
11
102.605269
21
28.765046
0
LINE
8
Layer 1
10
102.605269
20
28.765046
11
102.265264
21
27.598694
0
LINE
8
Layer 1
10
102.265264
20
27.598694
11
101.162692
21
25.389661
0
LINE
8
Layer 1
10
101.162692
20
25.389661
11
99.602599
21
23.508880
0
LINE
8
Layer 1
10
99.602599
20
23.508880
11
98.690692
21
22.752844
0
LINE
8
Layer 1
10
98.690692
20
22.752844
11
97.712059
21
22.152381
0
LINE
8
Layer 1
10
97.712059
20
22.152381
11
96.761719
21
21.557233
0
LINE
8
Layer 1
10
96.761719
20
21.557233
11
96.042696
21
20.898266
0
LINE
8
Layer 1
10
96.042696
20
20.898266
11
95.642416
21
20.275455
0
LINE
8
Layer 1
10
95.642416
20
20.275455
11
95.648309
21
19.788770
0
LINE
8
Layer 1
10
95.648309
20
19.788770
11
95.984110
21
19.549045
0
LINE
8
Layer 1
10
95.984110
20
19.549045
11
96.539335
21
19.490155
0
LINE
8
Layer 1
10
96.539335
20
19.490155
11
98.091207
21
19.837606
0
LINE
8
Layer 1
10
98.091207
20
19.837606
11
99.870223
21
20.676576
0
LINE
8
Layer 1
10
99.870223
20
20.676576
11
101.442684
21
21.852520
0
LINE
8
Layer 1
10
101.442684
20
21.852520
11
103.348337
21
23.911997
0
LINE
8
Layer 1
10
103.348337
20
23.911997
11
104.441295
21
25.900645
0
LINE
8
Layer 1
10
104.441295
20
25.900645
11
104.972912
21
27.694168
0
LINE
8
Layer 1
10
104.972912
20
27.694168
11
105.051128
21
29.473689
0
LINE
8
Layer 1
10
105.051128
20
29.473689
11
104.694341
21
31.023320
0
LINE
8
Layer 1
10
104.694341
20
31.023320
11
104.358570
21
31.644462
0
LINE
8
Layer 1
10
104.358570
20
31.644462
11
103.920948
21
32.127173
0
LINE
8
Layer 1
10
103.920948
20
32.127173
11
103.497614
21
32.312381
0
LINE
8
Layer 1
10
103.497614
20
32.312381
11
103.497614
21
32.312381
0
LINE
8
Layer 1
10
51.268864
20
26.826687
11
50.920983
21
26.665738
0
LINE
8
Layer 1
10
50.920983
20
26.665738
11
50.632969
21
26.200133
0
LINE
8
Layer 1
10
50.632969
20
26.200133
11
50.438006
21
25.437058
0
LINE
8
Layer 1
10
50.438006
20
25.437058
11
50.369281
21
24.383701
0
LINE
8
Layer 1
10
50.369281
20
24.383701
11
50.510887
21
23.089828
0
LINE
8
Layer 1
10
50.510887
20
23.089828
11
50.945846
21
21.839683
0
LINE
8
Layer 1
10
50.945846
20
21.839683
11
51.707678
21
20.565089
0
LINE
8
Layer 1
10
51.707678
20
20.565089
11
52.829906
21
19.197868
0
LINE
8
Layer 1
10
52.829906
20
19.197868
11
53.965703
21
18.139487
0
LINE
8
Layer 1
10
53.965703
20
18.139487
11
55.315835
21
17.181860
0
LINE
8
Layer 1
10
55.315835
20
17.181860
11
56.781198
21
16.385570
0
LINE
8
Layer 1
10
56.781198
20
16.385570
11
58.262684
21
15.811201
0
LINE
8
Layer 1
10
58.262684
20
15.811201
11
59.352579
21
15.602254
0
LINE
8
Layer 1
10
59.352579
20
15.602254
11
60.475702
21
15.570279
0
LINE
8
Layer 1
10
60.475702
20
15.570279
11
61.385285
21
15.702862
0
LINE
8
Layer 1
10
61.385285
20
15.702862
11
61.834559
21
15.987590
0
LINE
8
Layer 1
10
61.834559
20
15.987590
11
61.761848
21
16.468527
0
LINE
8
Layer 1
10
61.761848
20
16.468527
11
61.385698
21
17.071157
0
LINE
8
Layer 1
10
61.385698
20
17.071157
11
60.872381
21
17.586205
0
LINE
8
Layer 1
10
60.872381
20
17.586205
11
60.388170
21
17.804395
0
LINE
8
Layer 1
10
60.388170
20
17.804395
11
58.668378
21
18.218909
0
LINE
8
Layer 1
10
58.668378
20
18.218909
11
57.701077
21
18.614580
0
LINE
8
Layer 1
10
57.701077
20
18.614580
11
56.714638
21
19.213611
0
LINE
8
Layer 1
10
56.714638
20
19.213611
11
54.833136
21
20.862666
0
LINE
8
Layer 1
10
54.833136
20
20.862666
11
53.321442
21
22.847898
0
LINE
8
Layer 1
10
53.321442
20
22.847898
11
52.797264
21
23.867151
0
LINE
8
Layer 1
10
52.797264
20
23.867151
11
52.477128
21
24.851131
0
LINE
8
Layer 1
10
52.477128
20
24.851131
11
51.925976
21
26.345829
0
LINE
8
Layer 1
10
51.925976
20
26.345829
11
51.598876
21
26.710161
0
LINE
8
Layer 1
10
51.598876
20
26.710161
11
51.268864
21
26.826687
0
LINE
8
Layer 1
10
51.268864
20
26.826687
11
51.268864
21
26.826687
0
LINE
8
Layer 1
10
87.261017
20
25.803631
11
86.554309
21
25.452350
0
LINE
8
Layer 1
10
86.554309
20
25.452350
11
86.302197
21
25.109589
0
LINE
8
Layer 1
10
86.302197
20
25.109589
11
86.202684
21
24.718840
0
LINE
8
Layer 1
10
86.202684
20
24.718840
11
85.966763
21
23.670537
0
LINE
8
Layer 1
10
85.966763
20
23.670537
11
85.341905
21
22.404191
0
LINE
8
Layer 1
10
85.341905
20
22.404191
11
84.439676
21
21.106750
0
LINE
8
Layer 1
10
84.439676
20
21.106750
11
83.371642
21
19.965159
0
LINE
8
Layer 1
10
83.371642
20
19.965159
11
82.136065
21
18.941549
0
LINE
8
Layer 1
10
82.136065
20
18.941549
11
80.981794
21
18.196279
0
LINE
8
Layer 1
10
80.981794
20
18.196279
11
79.778906
21
17.658557
0
LINE
8
Layer 1
10
79.778906
20
17.658557
11
78.397475
21
17.257590
0
LINE
8
Layer 1
10
78.397475
20
17.257590
11
77.244426
21
16.884237
0
LINE
8
Layer 1
10
77.244426
20
16.884237
11
76.490203
21
16.420224
0
LINE
8
Layer 1
10
76.490203
20
16.420224
11
76.178089
21
15.905258
0
LINE
8
Layer 1
10
76.178089
20
15.905258
11
76.351364
21
15.379048
0
LINE
8
Layer 1
10
76.351364
20
15.379048
11
76.618630
21
15.156915
0
LINE
8
Layer 1
10
76.618630
20
15.156915
11
77.014189
21
15.038190
0
LINE
8
Layer 1
10
77.014189
20
15.038190
11
78.520948
21
15.061548
0
LINE
8
Layer 1
10
78.520948
20
15.061548
11
80.383360
21
15.412002
0
LINE
8
Layer 1
10
80.383360
20
15.412002
11
82.189669
21
16.120242
0
LINE
8
Layer 1
10
82.189669
20
16.120242
11
83.872429
21
17.121414
0
LINE
8
Layer 1
10
83.872429
20
17.121414
11
85.364194
21
18.350666
0
LINE
8
Layer 1
10
85.364194
20
18.350666
11
86.597520
21
19.743144
0
LINE
8
Layer 1
10
86.597520
20
19.743144
11
87.504961
21
21.233996
0
LINE
8
Layer 1
10
87.504961
20
21.233996
11
88.019071
21
22.758369
0
LINE
8
Layer 1
10
88.019071
20
22.758369
11
88.072406
21
24.251409
0
LINE
8
Layer 1
10
88.072406
20
24.251409
11
87.851778
21
25.216169
0
LINE
8
Layer 1
10
87.851778
20
25.216169
11
87.569698
21
25.733076
0
LINE
8
Layer 1
10
87.569698
20
25.733076
11
87.261017
21
25.803631
0
LINE
8
Layer 1
10
87.261017
20
25.803631
11
87.261017
21
25.803631
 0 
ENDSEC
 0 
EOF
