999
\"DXF R12 Output\" (www.mydxf.blogspot.com)
 0 
SECTION
 2 
HEADER
 9 
$ACADVER
 1 
AC1009
 9 
$EXTMIN
 10 
 0 
 20 
 0 
 9 
$EXTMAX
 10 
 8.5 
 20 
 11 
 0 
ENDSEC
 0 
SECTION
 2 
ENTITIES
0
LINE
8
Layer 1
10
88.916470
20
5.626441
11
81.894069
21
5.838546
0
LINE
8
Layer 1
10
81.894069
20
5.838546
11
78.009122
21
6.138050
0
LINE
8
Layer 1
10
78.009122
20
6.138050
11
76.781714
21
6.388957
0
LINE
8
Layer 1
10
76.781714
20
6.388957
11
75.784894
21
6.743768
0
LINE
8
Layer 1
10
75.784894
20
6.743768
11
73.744647
21
7.874511
0
LINE
8
Layer 1
10
73.744647
20
7.874511
11
72.078356
21
9.052453
0
LINE
8
Layer 1
10
72.078356
20
9.052453
11
70.556774
21
10.478420
0
LINE
8
Layer 1
10
70.556774
20
10.478420
11
69.239867
21
12.088284
0
LINE
8
Layer 1
10
69.239867
20
12.088284
11
68.187604
21
13.817913
0
LINE
8
Layer 1
10
68.187604
20
13.817913
11
67.687576
21
14.871464
0
LINE
8
Layer 1
10
67.687576
20
14.871464
11
67.422908
21
15.774101
0
LINE
8
Layer 1
10
67.422908
20
15.774101
11
67.322483
21
18.686472
0
LINE
8
Layer 1
10
67.322483
20
18.686472
11
67.431140
21
20.888182
0
LINE
8
Layer 1
10
67.431140
20
20.888182
11
67.783903
21
22.500921
0
LINE
8
Layer 1
10
67.783903
20
22.500921
11
68.503899
21
23.866544
0
LINE
8
Layer 1
10
68.503899
20
23.866544
11
69.714260
21
25.326907
0
LINE
8
Layer 1
10
69.714260
20
25.326907
11
70.899892
21
26.428922
0
LINE
8
Layer 1
10
70.899892
20
26.428922
11
72.117675
21
27.141858
0
LINE
8
Layer 1
10
72.117675
20
27.141858
11
73.499858
21
27.521277
0
LINE
8
Layer 1
10
73.499858
20
27.521277
11
75.178689
21
27.622743
0
LINE
8
Layer 1
10
75.178689
20
27.622743
11
76.693842
21
27.525701
0
LINE
8
Layer 1
10
76.693842
20
27.525701
11
77.882612
21
27.227892
0
LINE
8
Layer 1
10
77.882612
20
27.227892
11
78.906669
21
26.666544
0
LINE
8
Layer 1
10
78.906669
20
26.666544
11
79.927681
21
25.778886
0
LINE
8
Layer 1
10
79.927681
20
25.778886
11
80.712620
21
24.816107
0
LINE
8
Layer 1
10
80.712620
20
24.816107
11
81.288657
21
23.729144
0
LINE
8
Layer 1
10
81.288657
20
23.729144
11
81.654271
21
22.557540
0
LINE
8
Layer 1
10
81.654271
20
22.557540
11
81.807940
21
21.340836
0
LINE
8
Layer 1
10
81.807940
20
21.340836
11
81.748143
21
20.118573
0
LINE
8
Layer 1
10
81.748143
20
20.118573
11
81.473358
21
18.930292
0
LINE
8
Layer 1
10
81.473358
20
18.930292
11
80.982062
21
17.815535
0
LINE
8
Layer 1
10
80.982062
20
17.815535
11
80.272735
21
16.813843
0
LINE
8
Layer 1
10
80.272735
20
16.813843
11
79.569872
21
15.825078
0
LINE
8
Layer 1
10
79.569872
20
15.825078
11
81.747770
21
14.786223
0
LINE
8
Layer 1
10
81.747770
20
14.786223
11
83.979282
21
14.116269
0
LINE
8
Layer 1
10
83.979282
20
14.116269
11
86.243495
21
13.793370
0
LINE
8
Layer 1
10
86.243495
20
13.793370
11
88.519494
21
13.795681
0
LINE
8
Layer 1
10
88.519494
20
13.795681
11
90.786366
21
14.101355
0
LINE
8
Layer 1
10
90.786366
20
14.101355
11
93.023198
21
14.688547
0
LINE
8
Layer 1
10
93.023198
20
14.688547
11
95.209077
21
15.535410
0
LINE
8
Layer 1
10
95.209077
20
15.535410
11
97.323089
21
16.620098
0
LINE
8
Layer 1
10
97.323089
20
16.620098
11
99.480997
21
18.018773
0
LINE
8
Layer 1
10
99.480997
20
18.018773
11
101.507171
21
19.637801
0
LINE
8
Layer 1
10
101.507171
20
19.637801
11
103.376021
21
21.450451
0
LINE
8
Layer 1
10
103.376021
20
21.450451
11
105.061954
21
23.429993
0
LINE
8
Layer 1
10
105.061954
20
23.429993
11
106.539382
21
25.549694
0
LINE
8
Layer 1
10
106.539382
20
25.549694
11
107.782713
21
27.782825
0
LINE
8
Layer 1
10
107.782713
20
27.782825
11
108.766356
21
30.102654
0
LINE
8
Layer 1
10
108.766356
20
30.102654
11
109.464721
21
32.482451
0
LINE
8
Layer 1
10
109.464721
20
32.482451
11
109.292082
21
34.487081
0
LINE
8
Layer 1
10
109.292082
20
34.487081
11
108.723212
21
36.236575
0
LINE
8
Layer 1
10
108.723212
20
36.236575
11
107.807602
21
37.714523
0
LINE
8
Layer 1
10
107.807602
20
37.714523
11
106.594747
21
38.904513
0
LINE
8
Layer 1
10
106.594747
20
38.904513
11
105.134140
21
39.790134
0
LINE
8
Layer 1
10
105.134140
20
39.790134
11
103.475274
21
40.354976
0
LINE
8
Layer 1
10
103.475274
20
40.354976
11
101.667642
21
40.582627
0
LINE
8
Layer 1
10
101.667642
20
40.582627
11
99.760738
21
40.456677
0
LINE
8
Layer 1
10
99.760738
20
40.456677
11
98.589814
21
40.300567
0
LINE
8
Layer 1
10
98.589814
20
40.300567
11
97.938262
21
40.404647
0
LINE
8
Layer 1
10
97.938262
20
40.404647
11
97.750348
21
40.802221
0
LINE
8
Layer 1
10
97.750348
20
40.802221
11
97.970343
21
41.526593
0
LINE
8
Layer 1
10
97.970343
20
41.526593
11
98.636760
21
42.758353
0
LINE
8
Layer 1
10
98.636760
20
42.758353
11
99.471340
21
43.884556
0
LINE
8
Layer 1
10
99.471340
20
43.884556
11
100.454786
21
44.882657
0
LINE
8
Layer 1
10
100.454786
20
44.882657
11
101.567804
21
45.730112
0
LINE
8
Layer 1
10
101.567804
20
45.730112
11
102.522303
21
46.314954
0
LINE
8
Layer 1
10
102.522303
20
46.314954
11
103.323735
21
46.641800
0
LINE
8
Layer 1
10
103.323735
20
46.641800
11
105.757537
21
46.873623
0
LINE
8
Layer 1
10
105.757537
20
46.873623
11
108.197046
21
46.822696
0
LINE
8
Layer 1
10
108.197046
20
46.822696
11
109.051997
21
46.595188
0
LINE
8
Layer 1
10
109.051997
20
46.595188
11
110.054204
21
46.168945
0
LINE
8
Layer 1
10
110.054204
20
46.168945
11
111.269160
21
45.545157
0
LINE
8
Layer 1
10
111.269160
20
45.545157
11
111.773174
21
45.161022
0
LINE
8
Layer 1
10
111.773174
20
45.161022
11
111.902134
21
44.938257
0
LINE
8
Layer 1
10
111.902134
20
44.938257
11
112.225138
21
44.777877
0
LINE
8
Layer 1
10
112.225138
20
44.777877
11
113.039121
21
44.771654
0
LINE
8
Layer 1
10
113.039121
20
44.771654
11
113.320895
21
45.094610
0
LINE
8
Layer 1
10
113.320895
20
45.094610
11
113.439034
21
45.749334
0
LINE
8
Layer 1
10
113.439034
20
45.749334
11
113.232533
21
47.808582
0
LINE
8
Layer 1
10
113.232533
20
47.808582
11
112.515875
21
50.458386
0
LINE
8
Layer 1
10
112.515875
20
50.458386
11
111.385319
21
53.207737
0
LINE
8
Layer 1
10
111.385319
20
53.207737
11
109.915844
21
55.874861
0
LINE
8
Layer 1
10
109.915844
20
55.874861
11
108.302406
21
58.092132
0
LINE
8
Layer 1
10
108.302406
20
58.092132
11
106.291470
21
60.159253
0
LINE
8
Layer 1
10
106.291470
20
60.159253
11
103.629505
21
62.375926
0
LINE
8
Layer 1
10
103.629505
20
62.375926
11
102.035473
21
63.375491
0
LINE
8
Layer 1
10
102.035473
20
63.375491
11
99.667326
21
64.651089
0
LINE
8
Layer 1
10
99.667326
20
64.651089
11
97.406890
21
65.750280
0
LINE
8
Layer 1
10
97.406890
20
65.750280
11
96.135992
21
66.220625
0
LINE
8
Layer 1
10
96.135992
20
66.220625
11
95.473825
21
66.466940
0
LINE
8
Layer 1
10
95.473825
20
66.466940
11
94.570607
21
66.802929
0
LINE
8
Layer 1
10
94.570607
20
66.802929
11
92.849429
21
67.118951
0
LINE
8
Layer 1
10
92.849429
20
67.118951
11
88.587879
21
67.456239
0
LINE
8
Layer 1
10
88.587879
20
67.456239
11
85.951917
21
67.390887
0
LINE
8
Layer 1
10
85.951917
20
67.390887
11
84.009018
21
67.130710
0
LINE
8
Layer 1
10
84.009018
20
67.130710
11
82.568608
21
66.633018
0
LINE
8
Layer 1
10
82.568608
20
66.633018
11
81.440113
21
65.855122
0
LINE
8
Layer 1
10
81.440113
20
65.855122
11
80.890582
21
65.289393
0
LINE
8
Layer 1
10
80.890582
20
65.289393
11
80.700350
21
64.833496
0
LINE
8
Layer 1
10
80.700350
20
64.833496
11
80.866543
21
64.378471
0
LINE
8
Layer 1
10
80.866543
20
64.378471
11
81.386285
21
63.815358
0
LINE
8
Layer 1
10
81.386285
20
63.815358
11
82.197290
21
62.855549
0
LINE
8
Layer 1
10
82.197290
20
62.855549
11
82.708904
21
61.814728
0
LINE
8
Layer 1
10
82.708904
20
61.814728
11
82.929235
21
60.735459
0
LINE
8
Layer 1
10
82.929235
20
60.735459
11
82.866391
21
59.660304
0
LINE
8
Layer 1
10
82.866391
20
59.660304
11
82.528481
21
58.631826
0
LINE
8
Layer 1
10
82.528481
20
58.631826
11
81.923613
21
57.692590
0
LINE
8
Layer 1
10
81.923613
20
57.692590
11
81.059896
21
56.885156
0
LINE
8
Layer 1
10
81.059896
20
56.885156
11
79.945439
21
56.252090
0
LINE
8
Layer 1
10
79.945439
20
56.252090
11
78.805390
21
55.872965
0
LINE
8
Layer 1
10
78.805390
20
55.872965
11
77.682230
21
55.713191
0
LINE
8
Layer 1
10
77.682230
20
55.713191
11
76.594205
21
55.766209
0
LINE
8
Layer 1
10
76.594205
20
55.766209
11
75.559559
21
56.025459
0
LINE
8
Layer 1
10
75.559559
20
56.025459
11
74.596540
21
56.484383
0
LINE
8
Layer 1
10
74.596540
20
56.484383
11
73.723391
21
57.136419
0
LINE
8
Layer 1
10
73.723391
20
57.136419
11
72.958360
21
57.975009
0
LINE
8
Layer 1
10
72.958360
20
57.975009
11
72.319690
21
58.993594
0
LINE
8
Layer 1
10
72.319690
20
58.993594
11
71.856012
21
60.411034
0
LINE
8
Layer 1
10
71.856012
20
60.411034
11
71.751052
21
62.668712
0
LINE
8
Layer 1
10
71.751052
20
62.668712
11
71.850429
21
64.445060
0
LINE
8
Layer 1
10
71.850429
20
64.445060
11
72.223235
21
65.878600
0
LINE
8
Layer 1
10
72.223235
20
65.878600
11
73.019545
21
67.341090
0
LINE
8
Layer 1
10
73.019545
20
67.341090
11
74.389437
21
69.204292
0
LINE
8
Layer 1
10
74.389437
20
69.204292
11
75.751742
21
70.792947
0
LINE
8
Layer 1
10
75.751742
20
70.792947
11
77.626992
21
72.241941
0
LINE
8
Layer 1
10
77.626992
20
72.241941
11
79.987717
21
73.681503
0
LINE
8
Layer 1
10
79.987717
20
73.681503
11
82.466635
21
74.650367
0
LINE
8
Layer 1
10
82.466635
20
74.650367
11
85.201229
21
75.188268
0
LINE
8
Layer 1
10
85.201229
20
75.188268
11
88.328983
21
75.334938
0
LINE
8
Layer 1
10
88.328983
20
75.334938
11
90.640341
21
75.197040
0
LINE
8
Layer 1
10
90.640341
20
75.197040
11
92.845998
21
74.828783
0
LINE
8
Layer 1
10
92.845998
20
74.828783
11
94.978558
21
74.222846
0
LINE
8
Layer 1
10
94.978558
20
74.222846
11
97.070624
21
73.371905
0
LINE
8
Layer 1
10
97.070624
20
73.371905
11
98.606819
21
72.732385
0
LINE
8
Layer 1
10
98.606819
20
72.732385
11
99.394687
21
72.556260
0
LINE
8
Layer 1
10
99.394687
20
72.556260
11
99.347090
21
73.015911
0
LINE
8
Layer 1
10
99.347090
20
73.015911
11
98.944843
21
73.934351
0
LINE
8
Layer 1
10
98.944843
20
73.934351
11
97.782146
21
75.749881
0
LINE
8
Layer 1
10
97.782146
20
75.749881
11
96.780548
21
77.089787
0
LINE
8
Layer 1
10
96.780548
20
77.089787
11
95.338749
21
79.485254
0
LINE
8
Layer 1
10
95.338749
20
79.485254
11
90.973933
21
87.725397
0
LINE
8
Layer 1
10
90.973933
20
87.725397
11
86.671997
21
95.784693
0
LINE
8
Layer 1
10
86.671997
20
95.784693
11
85.242725
21
98.443136
0
LINE
8
Layer 1
10
85.242725
20
98.443136
11
84.042713
21
100.461575
0
LINE
8
Layer 1
10
84.042713
20
100.461575
11
81.502431
21
104.477769
0
LINE
8
Layer 1
10
81.502431
20
104.477769
11
79.809918
21
107.002245
0
LINE
8
Layer 1
10
79.809918
20
107.002245
11
78.051075
21
109.291092
0
LINE
8
Layer 1
10
78.051075
20
109.291092
11
76.220774
21
111.348838
0
LINE
8
Layer 1
10
76.220774
20
111.348838
11
74.313886
21
113.180012
0
LINE
8
Layer 1
10
74.313886
20
113.180012
11
72.325283
21
114.789144
0
LINE
8
Layer 1
10
72.325283
20
114.789144
11
70.249837
21
116.180760
0
LINE
8
Layer 1
10
70.249837
20
116.180760
11
68.082420
21
117.359392
0
LINE
8
Layer 1
10
68.082420
20
117.359392
11
65.817905
21
118.329566
0
LINE
8
Layer 1
10
65.817905
20
118.329566
11
63.984247
21
118.936355
0
LINE
8
Layer 1
10
63.984247
20
118.936355
11
62.466491
21
119.237704
0
LINE
8
Layer 1
10
62.466491
20
119.237704
11
61.115912
21
119.249868
0
LINE
8
Layer 1
10
61.115912
20
119.249868
11
59.783788
21
118.989102
0
LINE
8
Layer 1
10
59.783788
20
118.989102
11
58.374723
21
118.694852
0
LINE
8
Layer 1
10
58.374723
20
118.694852
11
58.006231
21
118.829694
0
LINE
8
Layer 1
10
58.006231
20
118.829694
11
57.609777
21
119.173938
0
LINE
8
Layer 1
10
57.609777
20
119.173938
11
57.243208
21
119.590102
0
LINE
8
Layer 1
10
57.243208
20
119.590102
11
57.040025
21
120.029886
0
LINE
8
Layer 1
10
57.040025
20
120.029886
11
57.023055
21
120.548768
0
LINE
8
Layer 1
10
57.023055
20
120.548768
11
57.215128
21
121.202224
0
LINE
8
Layer 1
10
57.215128
20
121.202224
11
58.317719
21
123.134763
0
LINE
8
Layer 1
10
58.317719
20
123.134763
11
60.530432
21
126.271316
0
LINE
8
Layer 1
10
60.530432
20
126.271316
11
60.688702
21
126.783488
0
LINE
8
Layer 1
10
60.688702
20
126.783488
11
60.579889
21
127.393670
0
LINE
8
Layer 1
10
60.579889
20
127.393670
11
60.249594
21
127.977837
0
LINE
8
Layer 1
10
60.249594
20
127.977837
11
59.743413
21
128.411963
0
LINE
8
Layer 1
10
59.743413
20
128.411963
11
58.987458
21
128.654528
0
LINE
8
Layer 1
10
58.987458
20
128.654528
11
58.112547
21
128.528583
0
LINE
8
Layer 1
10
58.112547
20
128.528583
11
56.984138
21
128.349728
0
LINE
8
Layer 1
10
56.984138
20
128.349728
11
56.675089
21
128.457323
0
LINE
8
Layer 1
10
56.675089
20
128.457323
11
56.535271
21
128.701202
0
LINE
8
Layer 1
10
56.535271
20
128.701202
11
56.760706
21
129.612614
0
LINE
8
Layer 1
10
56.760706
20
129.612614
11
57.655206
21
131.113575
0
LINE
8
Layer 1
10
57.655206
20
131.113575
11
58.476775
21
132.546594
0
LINE
8
Layer 1
10
58.476775
20
132.546594
11
58.802524
21
133.600828
0
LINE
8
Layer 1
10
58.802524
20
133.600828
11
58.952842
21
134.824170
0
LINE
8
Layer 1
10
58.952842
20
134.824170
11
59.343418
21
136.408805
0
LINE
8
Layer 1
10
59.343418
20
136.408805
11
60.606900
21
139.837750
0
LINE
8
Layer 1
10
60.606900
20
139.837750
11
61.711148
21
142.309180
0
LINE
8
Layer 1
10
61.711148
20
142.309180
11
62.168168
21
143.631423
0
LINE
8
Layer 1
10
62.168168
20
143.631423
11
62.750708
21
145.177564
0
LINE
8
Layer 1
10
62.750708
20
145.177564
11
64.056847
21
148.691704
0
LINE
8
Layer 1
10
64.056847
20
148.691704
11
64.772509
21
151.132279
0
LINE
8
Layer 1
10
64.772509
20
151.132279
11
64.846405
21
151.952127
0
LINE
8
Layer 1
10
64.846405
20
151.952127
11
64.779006
21
152.776504
0
LINE
8
Layer 1
10
64.779006
20
152.776504
11
64.608719
21
155.176069
0
LINE
8
Layer 1
10
64.608719
20
155.176069
11
64.854463
21
158.349908
0
LINE
8
Layer 1
10
64.854463
20
158.349908
11
64.979316
21
160.212245
0
LINE
8
Layer 1
10
64.979316
20
160.212245
11
64.844768
21
160.484328
0
LINE
8
Layer 1
10
64.844768
20
160.484328
11
64.547598
21
160.540502
0
LINE
8
Layer 1
10
64.547598
20
160.540502
11
63.915137
21
160.411745
0
LINE
8
Layer 1
10
63.915137
20
160.411745
11
63.536886
21
159.882963
0
LINE
8
Layer 1
10
63.536886
20
159.882963
11
63.347735
21
158.765218
0
LINE
8
Layer 1
10
63.347735
20
158.765218
11
63.282576
21
156.869573
0
LINE
8
Layer 1
10
63.282576
20
156.869573
11
63.152828
21
154.227056
0
LINE
8
Layer 1
10
63.152828
20
154.227056
11
62.950161
21
153.639117
0
LINE
8
Layer 1
10
62.950161
20
153.639117
11
62.590412
21
153.193699
0
LINE
8
Layer 1
10
62.590412
20
153.193699
11
61.386125
21
152.220699
0
LINE
8
Layer 1
10
61.386125
20
152.220699
11
60.993871
21
151.837582
0
LINE
8
Layer 1
10
60.993871
20
151.837582
11
61.181307
21
151.151195
0
LINE
8
Layer 1
10
61.181307
20
151.151195
11
61.478107
21
150.110828
0
LINE
8
Layer 1
10
61.478107
20
150.110828
11
61.418019
21
149.247642
0
LINE
8
Layer 1
10
61.418019
20
149.247642
11
61.031524
21
148.660619
0
LINE
8
Layer 1
10
61.031524
20
148.660619
11
60.349105
21
148.448739
0
LINE
8
Layer 1
10
60.349105
20
148.448739
11
59.887487
21
148.350435
0
LINE
8
Layer 1
10
59.887487
20
148.350435
11
59.532450
21
148.067302
0
LINE
8
Layer 1
10
59.532450
20
148.067302
11
59.288032
21
147.633328
0
LINE
8
Layer 1
10
59.288032
20
147.633328
11
59.158276
21
147.082504
0
LINE
8
Layer 1
10
59.158276
20
147.082504
11
59.258910
21
145.766266
0
LINE
8
Layer 1
10
59.258910
20
145.766266
11
59.866674
21
144.390505
0
LINE
8
Layer 1
10
59.866674
20
144.390505
11
60.592411
21
143.114813
0
LINE
8
Layer 1
10
60.592411
20
143.114813
11
60.467805
21
142.747027
0
LINE
8
Layer 1
10
60.467805
20
142.747027
11
60.126861
21
142.360867
0
LINE
8
Layer 1
10
60.126861
20
142.360867
11
58.841076
21
141.573129
0
LINE
8
Layer 1
10
58.841076
20
141.573129
11
57.856151
21
140.973800
0
LINE
8
Layer 1
10
57.856151
20
140.973800
11
57.698918
21
140.673486
0
LINE
8
Layer 1
10
57.698918
20
140.673486
11
57.692784
21
140.291975
0
LINE
8
Layer 1
10
57.692784
20
140.291975
11
57.908991
21
137.981280
0
LINE
8
Layer 1
10
57.908991
20
137.981280
11
57.807291
21
136.710057
0
LINE
8
Layer 1
10
57.807291
20
136.710057
11
57.604380
21
136.369550
0
LINE
8
Layer 1
10
57.604380
20
136.369550
11
57.282577
21
136.175275
0
LINE
8
Layer 1
10
57.282577
20
136.175275
11
56.229741
21
136.073902
0
LINE
8
Layer 1
10
56.229741
20
136.073902
11
55.588900
21
136.110553
0
LINE
8
Layer 1
10
55.588900
20
136.110553
11
55.185571
21
136.282959
0
LINE
8
Layer 1
10
55.185571
20
136.282959
11
54.878447
21
136.710436
0
LINE
8
Layer 1
10
54.878447
20
136.710436
11
54.526220
21
137.512298
0
LINE
8
Layer 1
10
54.526220
20
137.512298
11
53.978754
21
138.561812
0
LINE
8
Layer 1
10
53.978754
20
138.561812
11
53.733200
21
138.803572
0
LINE
8
Layer 1
10
53.733200
20
138.803572
11
53.506350
21
138.856774
0
LINE
8
Layer 1
10
53.506350
20
138.856774
11
53.234022
21
138.654828
0
LINE
8
Layer 1
10
53.234022
20
138.654828
11
53.163402
21
138.170735
0
LINE
8
Layer 1
10
53.163402
20
138.170735
11
53.632777
21
136.242529
0
LINE
8
Layer 1
10
53.632777
20
136.242529
11
53.916523
21
135.004526
0
LINE
8
Layer 1
10
53.916523
20
135.004526
11
53.984402
21
133.729156
0
LINE
8
Layer 1
10
53.984402
20
133.729156
11
53.840654
21
132.553417
0
LINE
8
Layer 1
10
53.840654
20
132.553417
11
53.489519
21
131.614305
0
LINE
8
Layer 1
10
53.489519
20
131.614305
11
53.108124
21
131.114527
0
LINE
8
Layer 1
10
53.108124
20
131.114527
11
52.627169
21
130.721695
0
LINE
8
Layer 1
10
52.627169
20
130.721695
11
51.473185
21
130.275200
0
LINE
8
Layer 1
10
51.473185
20
130.275200
11
50.240774
21
130.311469
0
LINE
8
Layer 1
10
50.240774
20
130.311469
11
49.661784
21
130.522093
0
LINE
8
Layer 1
10
49.661784
20
130.522093
11
49.143141
21
130.867153
0
LINE
8
Layer 1
10
49.143141
20
130.867153
11
48.478222
21
131.548748
0
LINE
8
Layer 1
10
48.478222
20
131.548748
11
48.063488
21
132.283496
0
LINE
8
Layer 1
10
48.063488
20
132.283496
11
47.853691
21
133.190337
0
LINE
8
Layer 1
10
47.853691
20
133.190337
11
47.803582
21
134.388211
0
LINE
8
Layer 1
10
47.803582
20
134.388211
11
47.780018
21
135.317178
0
LINE
8
Layer 1
10
47.780018
20
135.317178
11
47.637660
21
136.015216
0
LINE
8
Layer 1
10
47.637660
20
136.015216
11
46.708136
21
137.551327
0
LINE
8
Layer 1
10
46.708136
20
137.551327
11
45.871364
21
138.913506
0
LINE
8
Layer 1
10
45.871364
20
138.913506
11
45.604715
21
139.961651
0
LINE
8
Layer 1
10
45.604715
20
139.961651
11
46.032465
21
141.453891
0
LINE
8
Layer 1
10
46.032465
20
141.453891
11
47.104888
21
143.687360
0
LINE
8
Layer 1
10
47.104888
20
143.687360
11
48.535724
21
146.127598
0
LINE
8
Layer 1
10
48.535724
20
146.127598
11
50.038711
21
148.240140
0
LINE
8
Layer 1
10
50.038711
20
148.240140
11
51.643207
21
150.486991
0
LINE
8
Layer 1
10
51.643207
20
150.486991
11
51.914780
21
151.617187
0
LINE
8
Layer 1
10
51.914780
20
151.617187
11
52.581150
21
153.561360
0
LINE
8
Layer 1
10
52.581150
20
153.561360
11
54.276385
21
157.654464
0
LINE
8
Layer 1
10
54.276385
20
157.654464
11
55.507293
21
160.779300
0
LINE
8
Layer 1
10
55.507293
20
160.779300
11
55.873899
21
162.209903
0
LINE
8
Layer 1
10
55.873899
20
162.209903
11
56.013040
21
163.350691
0
LINE
8
Layer 1
10
56.013040
20
163.350691
11
55.888603
21
163.729096
0
LINE
8
Layer 1
10
55.888603
20
163.729096
11
55.574377
21
163.693842
0
LINE
8
Layer 1
10
55.574377
20
163.693842
11
55.178263
21
163.308774
0
LINE
8
Layer 1
10
55.178263
20
163.308774
11
54.808162
21
162.637741
0
LINE
8
Layer 1
10
54.808162
20
162.637741
11
54.262886
21
161.713015
0
LINE
8
Layer 1
10
54.262886
20
161.713015
11
53.408286
21
161.363776
0
LINE
8
Layer 1
10
53.408286
20
161.363776
11
52.498345
21
161.338253
0
LINE
8
Layer 1
10
52.498345
20
161.338253
11
51.647364
21
161.513040
0
LINE
8
Layer 1
10
51.647364
20
161.513040
11
50.742554
21
161.736667
0
LINE
8
Layer 1
10
50.742554
20
161.736667
11
50.466619
21
159.685468
0
LINE
8
Layer 1
10
50.466619
20
159.685468
11
50.257953
21
158.100043
0
LINE
8
Layer 1
10
50.257953
20
158.100043
11
49.952602
21
156.983182
0
LINE
8
Layer 1
10
49.952602
20
156.983182
11
49.522801
21
156.265602
0
LINE
8
Layer 1
10
49.522801
20
156.265602
11
48.940785
21
155.878019
0
LINE
8
Layer 1
10
48.940785
20
155.878019
11
48.176668
21
155.820745
0
LINE
8
Layer 1
10
48.176668
20
155.820745
11
47.375401
21
156.141295
0
LINE
8
Layer 1
10
47.375401
20
156.141295
11
46.622675
21
156.786419
0
LINE
8
Layer 1
10
46.622675
20
156.786419
11
46.004181
21
157.702868
0
LINE
8
Layer 1
10
46.004181
20
157.702868
11
45.551685
21
158.455152
0
LINE
8
Layer 1
10
45.551685
20
158.455152
11
45.219044
21
158.769578
0
LINE
8
Layer 1
10
45.219044
20
158.769578
11
44.908288
21
158.514925
0
LINE
8
Layer 1
10
44.908288
20
158.514925
11
44.508412
21
157.898993
0
LINE
8
Layer 1
10
44.508412
20
157.898993
11
44.247304
21
157.188287
0
LINE
8
Layer 1
10
44.247304
20
157.188287
11
44.156716
21
156.209885
0
LINE
8
Layer 1
10
44.156716
20
156.209885
11
44.482690
21
152.530878
0
LINE
8
Layer 1
10
44.482690
20
152.530878
11
44.481998
21
151.282926
0
LINE
8
Layer 1
10
44.481998
20
151.282926
11
43.795710
21
150.289582
0
LINE
8
Layer 1
10
43.795710
20
150.289582
11
42.878596
21
149.530676
0
LINE
8
Layer 1
10
42.878596
20
149.530676
11
41.714479
21
149.418043
0
LINE
8
Layer 1
10
41.714479
20
149.418043
11
40.697684
21
149.623142
0
LINE
8
Layer 1
10
40.697684
20
149.623142
11
39.912948
21
150.167990
0
LINE
8
Layer 1
10
39.912948
20
150.167990
11
39.299495
21
151.117546
0
LINE
8
Layer 1
10
39.299495
20
151.117546
11
38.796550
21
152.536768
0
LINE
8
Layer 1
10
38.796550
20
152.536768
11
38.556848
21
153.837606
0
LINE
8
Layer 1
10
38.556848
20
153.837606
11
38.451315
21
155.451831
0
LINE
8
Layer 1
10
38.451315
20
155.451831
11
38.603741
21
159.213491
0
LINE
8
Layer 1
10
38.603741
20
159.213491
11
39.175789
21
163.007845
0
LINE
8
Layer 1
10
39.175789
20
163.007845
11
39.594784
21
164.662936
0
LINE
8
Layer 1
10
39.594784
20
164.662936
11
40.089421
21
166.020987
0
LINE
8
Layer 1
10
40.089421
20
166.020987
11
41.397529
21
169.068909
0
LINE
8
Layer 1
10
41.397529
20
169.068909
11
42.355832
21
171.702448
0
LINE
8
Layer 1
10
42.355832
20
171.702448
11
43.099147
21
174.339160
0
LINE
8
Layer 1
10
43.099147
20
174.339160
11
43.762292
21
177.396603
0
LINE
8
Layer 1
10
43.762292
20
177.396603
11
44.327416
21
181.891086
0
LINE
8
Layer 1
10
44.327416
20
181.891086
11
44.369445
21
183.668512
0
LINE
8
Layer 1
10
44.369445
20
183.668512
11
44.213645
21
184.539659
0
LINE
8
Layer 1
10
44.213645
20
184.539659
11
43.781199
21
184.337942
0
LINE
8
Layer 1
10
43.781199
20
184.337942
11
42.977446
21
183.611957
0
LINE
8
Layer 1
10
42.977446
20
183.611957
11
41.896398
21
182.717690
0
LINE
8
Layer 1
10
41.896398
20
182.717690
11
41.393542
21
182.560235
0
LINE
8
Layer 1
10
41.393542
20
182.560235
11
40.771310
21
182.524688
0
LINE
8
Layer 1
10
40.771310
20
182.524688
11
39.716344
21
182.418222
0
LINE
8
Layer 1
10
39.716344
20
182.418222
11
39.189432
21
182.039784
0
LINE
8
Layer 1
10
39.189432
20
182.039784
11
39.166865
21
181.342984
0
LINE
8
Layer 1
10
39.166865
20
181.342984
11
39.624937
21
180.281430
0
LINE
8
Layer 1
10
39.624937
20
180.281430
11
40.150756
21
179.108591
0
LINE
8
Layer 1
10
40.150756
20
179.108591
11
40.365042
21
178.203750
0
LINE
8
Layer 1
10
40.365042
20
178.203750
11
40.248433
21
177.674941
0
LINE
8
Layer 1
10
40.248433
20
177.674941
11
39.939785
21
177.213405
0
LINE
8
Layer 1
10
39.939785
20
177.213405
11
38.922659
21
176.557718
0
LINE
8
Layer 1
10
38.922659
20
176.557718
11
37.666233
21
176.367818
0
LINE
8
Layer 1
10
37.666233
20
176.367818
11
37.058460
21
176.488515
0
LINE
8
Layer 1
10
37.058460
20
176.488515
11
36.523075
21
176.774833
0
LINE
8
Layer 1
10
36.523075
20
176.774833
11
35.727725
21
177.148691
0
LINE
8
Layer 1
10
35.727725
20
177.148691
11
35.454878
21
177.052266
0
LINE
8
Layer 1
10
35.454878
20
177.052266
11
35.263641
21
176.762808
0
LINE
8
Layer 1
10
35.263641
20
176.762808
11
35.121167
21
175.592413
0
LINE
8
Layer 1
10
35.121167
20
175.592413
11
35.290647
21
173.612734
0
LINE
8
Layer 1
10
35.290647
20
173.612734
11
35.437736
21
171.804312
0
LINE
8
Layer 1
10
35.437736
20
171.804312
11
35.321524
21
171.360891
0
LINE
8
Layer 1
10
35.321524
20
171.360891
11
35.059276
21
171.004481
0
LINE
8
Layer 1
10
35.059276
20
171.004481
11
34.535363
21
170.621887
0
LINE
8
Layer 1
10
34.535363
20
170.621887
11
33.948145
21
170.481313
0
LINE
8
Layer 1
10
33.948145
20
170.481313
11
33.380140
21
170.585370
0
LINE
8
Layer 1
10
33.380140
20
170.585370
11
32.913870
21
170.936666
0
LINE
8
Layer 1
10
32.913870
20
170.936666
11
32.586587
21
171.715758
0
LINE
8
Layer 1
10
32.586587
20
171.715758
11
32.180381
21
173.263603
0
LINE
8
Layer 1
10
32.180381
20
173.263603
11
31.292055
21
177.968173
0
LINE
8
Layer 1
10
31.292055
20
177.968173
11
31.142420
21
179.874964
0
LINE
8
Layer 1
10
31.142420
20
179.874964
11
31.219867
21
181.997668
0
LINE
8
Layer 1
10
31.219867
20
181.997668
11
31.501941
21
184.074027
0
LINE
8
Layer 1
10
31.501941
20
184.074027
11
31.966188
21
185.841781
0
LINE
8
Layer 1
10
31.966188
20
185.841781
11
32.459090
21
187.903655
0
LINE
8
Layer 1
10
32.459090
20
187.903655
11
32.770767
21
190.543160
0
LINE
8
Layer 1
10
32.770767
20
190.543160
11
32.858868
21
193.199305
0
LINE
8
Layer 1
10
32.858868
20
193.199305
11
32.681045
21
195.311099
0
LINE
8
Layer 1
10
32.681045
20
195.311099
11
31.681961
21
199.166757
0
LINE
8
Layer 1
10
31.681961
20
199.166757
11
30.176927
21
203.804766
0
LINE
8
Layer 1
10
30.176927
20
203.804766
11
29.250344
21
206.725320
0
LINE
8
Layer 1
10
29.250344
20
206.725320
11
28.975431
21
207.354641
0
LINE
8
Layer 1
10
28.975431
20
207.354641
11
28.345446
21
207.440499
0
LINE
8
Layer 1
10
28.345446
20
207.440499
11
23.912048
21
201.525152
0
LINE
8
Layer 1
10
23.912048
20
201.525152
11
20.493993
21
212.095406
0
LINE
8
Layer 1
10
20.493993
20
212.095406
11
8.652163
21
213.141540
0
LINE
8
Layer 1
10
8.652163
20
213.141540
11
17.346618
21
222.623867
0
LINE
8
Layer 1
10
17.346618
20
222.623867
11
13.433316
21
234.290952
0
LINE
8
Layer 1
10
13.433316
20
234.290952
11
25.445487
21
228.550200
0
LINE
8
Layer 1
10
25.445487
20
228.550200
11
36.261252
21
233.139641
0
LINE
8
Layer 1
10
36.261252
20
233.139641
11
34.342259
21
222.330569
0
LINE
8
Layer 1
10
34.342259
20
222.330569
11
44.678529
21
217.256425
0
LINE
8
Layer 1
10
44.678529
20
217.256425
11
39.338964
21
214.560006
0
LINE
8
Layer 1
10
39.338964
20
214.560006
11
37.754540
21
213.960804
0
LINE
8
Layer 1
10
37.754540
20
213.960804
11
36.876604
21
213.474694
0
LINE
8
Layer 1
10
36.876604
20
213.474694
11
36.569973
21
212.991001
0
LINE
8
Layer 1
10
36.569973
20
212.991001
11
36.699464
21
212.399051
0
LINE
8
Layer 1
10
36.699464
20
212.399051
11
37.313382
21
211.586002
0
LINE
8
Layer 1
10
37.313382
20
211.586002
11
38.460867
21
211.078809
0
LINE
8
Layer 1
10
38.460867
20
211.078809
11
40.414216
21
210.809264
0
LINE
8
Layer 1
10
40.414216
20
210.809264
11
43.445724
21
210.709157
0
LINE
8
Layer 1
10
43.445724
20
210.709157
11
46.970919
21
210.761651
0
LINE
8
Layer 1
10
46.970919
20
210.761651
11
49.955765
21
211.056658
0
LINE
8
Layer 1
10
49.955765
20
211.056658
11
52.936024
21
211.676331
0
LINE
8
Layer 1
10
52.936024
20
211.676331
11
56.447461
21
212.702823
0
LINE
8
Layer 1
10
56.447461
20
212.702823
11
58.438974
21
213.444129
0
LINE
8
Layer 1
10
58.438974
20
213.444129
11
60.578931
21
214.434145
0
LINE
8
Layer 1
10
60.578931
20
214.434145
11
62.745333
21
215.611471
0
LINE
8
Layer 1
10
62.745333
20
215.611471
11
64.816183
21
216.914705
0
LINE
8
Layer 1
10
64.816183
20
216.914705
11
65.789897
21
217.513279
0
LINE
8
Layer 1
10
65.789897
20
217.513279
11
66.476918
21
217.765825
0
LINE
8
Layer 1
10
66.476918
20
217.765825
11
66.952123
21
217.683295
0
LINE
8
Layer 1
10
66.952123
20
217.683295
11
67.290388
21
217.276641
0
LINE
8
Layer 1
10
67.290388
20
217.276641
11
67.745194
21
215.891215
0
LINE
8
Layer 1
10
67.745194
20
215.891215
11
67.686817
21
214.484260
0
LINE
8
Layer 1
10
67.686817
20
214.484260
11
67.120342
21
213.078663
0
LINE
8
Layer 1
10
67.120342
20
213.078663
11
66.050854
21
211.697311
0
LINE
8
Layer 1
10
66.050854
20
211.697311
11
65.359729
21
210.760887
0
LINE
8
Layer 1
10
65.359729
20
210.760887
11
65.361041
21
209.642002
0
LINE
8
Layer 1
10
65.361041
20
209.642002
11
65.372076
21
208.474757
0
LINE
8
Layer 1
10
65.372076
20
208.474757
11
64.992656
21
207.300353
0
LINE
8
Layer 1
10
64.992656
20
207.300353
11
64.332501
21
206.104338
0
LINE
8
Layer 1
10
64.332501
20
206.104338
11
63.552122
21
205.403692
0
LINE
8
Layer 1
10
63.552122
20
205.403692
11
62.394319
21
205.059804
0
LINE
8
Layer 1
10
62.394319
20
205.059804
11
60.601888
21
204.934061
0
LINE
8
Layer 1
10
60.601888
20
204.934061
11
58.485775
21
204.767739
0
LINE
8
Layer 1
10
58.485775
20
204.767739
11
57.309247
21
204.408346
0
LINE
8
Layer 1
10
57.309247
20
204.408346
11
56.330476
21
203.636206
0
LINE
8
Layer 1
10
56.330476
20
203.636206
11
55.913719
21
202.894419
0
LINE
8
Layer 1
10
55.913719
20
202.894419
11
56.059960
21
202.188260
0
LINE
8
Layer 1
10
56.059960
20
202.188260
11
56.770185
21
201.523005
0
LINE
8
Layer 1
10
56.770185
20
201.523005
11
57.323369
21
201.219226
0
LINE
8
Layer 1
10
57.323369
20
201.219226
11
57.916541
21
201.059012
0
LINE
8
Layer 1
10
57.916541
20
201.059012
11
59.940520
21
201.065771
0
LINE
8
Layer 1
10
59.940520
20
201.065771
11
62.467623
21
201.346348
0
LINE
8
Layer 1
10
62.467623
20
201.346348
11
65.424930
21
201.869244
0
LINE
8
Layer 1
10
65.424930
20
201.869244
11
68.327073
21
202.535919
0
LINE
8
Layer 1
10
68.327073
20
202.535919
11
70.688680
21
203.247837
0
LINE
8
Layer 1
10
70.688680
20
203.247837
11
73.479894
21
204.255393
0
LINE
8
Layer 1
10
73.479894
20
204.255393
11
75.546578
21
205.203955
0
LINE
8
Layer 1
10
75.546578
20
205.203955
11
78.630681
21
206.961382
0
LINE
8
Layer 1
10
78.630681
20
206.961382
11
81.708710
21
208.599488
0
LINE
8
Layer 1
10
81.708710
20
208.599488
11
86.288973
21
210.535924
0
LINE
8
Layer 1
10
86.288973
20
210.535924
11
89.772072
21
211.346234
0
LINE
8
Layer 1
10
89.772072
20
211.346234
11
92.090861
21
211.673855
0
LINE
8
Layer 1
10
92.090861
20
211.673855
11
92.593438
21
211.592409
0
LINE
8
Layer 1
10
92.593438
20
211.592409
11
92.971736
21
211.347592
0
LINE
8
Layer 1
10
92.971736
20
211.347592
11
93.388955
21
210.768414
0
LINE
8
Layer 1
10
93.388955
20
210.768414
11
93.332506
21
209.840686
0
LINE
8
Layer 1
10
93.332506
20
209.840686
11
93.070250
21
209.012925
0
LINE
8
Layer 1
10
93.070250
20
209.012925
11
92.729149
21
208.480189
0
LINE
8
Layer 1
10
92.729149
20
208.480189
11
92.421097
21
208.128526
0
LINE
8
Layer 1
10
92.421097
20
208.128526
11
92.363735
21
207.753590
0
LINE
8
Layer 1
10
92.363735
20
207.753590
11
92.562593
21
207.323943
0
LINE
8
Layer 1
10
92.562593
20
207.323943
11
93.023199
21
206.808149
0
LINE
8
Layer 1
10
93.023199
20
206.808149
11
93.604457
21
205.999240
0
LINE
8
Layer 1
10
93.604457
20
205.999240
11
93.734441
21
205.155581
0
LINE
8
Layer 1
10
93.734441
20
205.155581
11
93.418343
21
204.323913
0
LINE
8
Layer 1
10
93.418343
20
204.323913
11
92.661356
21
203.550980
0
LINE
8
Layer 1
10
92.661356
20
203.550980
11
91.617224
21
202.883559
0
LINE
8
Layer 1
10
91.617224
20
202.883559
11
90.536982
21
202.423571
0
LINE
8
Layer 1
10
90.536982
20
202.423571
11
89.381044
21
202.158176
0
LINE
8
Layer 1
10
89.381044
20
202.158176
11
88.109829
21
202.074534
0
LINE
8
Layer 1
10
88.109829
20
202.074534
11
87.176200
21
202.035613
0
LINE
8
Layer 1
10
87.176200
20
202.035613
11
86.662408
21
201.792316
0
LINE
8
Layer 1
10
86.662408
20
201.792316
11
86.408467
21
201.162749
0
LINE
8
Layer 1
10
86.408467
20
201.162749
11
86.254390
21
199.965016
0
LINE
8
Layer 1
10
86.254390
20
199.965016
11
86.168038
21
199.119216
0
LINE
8
Layer 1
10
86.168038
20
199.119216
11
83.908750
21
198.988477
0
LINE
8
Layer 1
10
83.908750
20
198.988477
11
82.304684
21
198.830566
0
LINE
8
Layer 1
10
82.304684
20
198.830566
11
81.205905
21
198.563241
0
LINE
8
Layer 1
10
81.205905
20
198.563241
11
80.572985
21
198.171495
0
LINE
8
Layer 1
10
80.572985
20
198.171495
11
80.366495
21
197.640321
0
LINE
8
Layer 1
10
80.366495
20
197.640321
11
80.645622
21
197.082894
0
LINE
8
Layer 1
10
80.645622
20
197.082894
11
81.416512
21
196.728703
0
LINE
8
Layer 1
10
81.416512
20
196.728703
11
82.558795
21
196.607649
0
LINE
8
Layer 1
10
82.558795
20
196.607649
11
83.952100
21
196.749633
0
LINE
8
Layer 1
10
83.952100
20
196.749633
11
88.386230
21
197.777081
0
LINE
8
Layer 1
10
88.386230
20
197.777081
11
91.809172
21
198.776632
0
LINE
8
Layer 1
10
91.809172
20
198.776632
11
93.347359
21
199.329085
0
LINE
8
Layer 1
10
93.347359
20
199.329085
11
98.596580
21
201.673419
0
LINE
8
Layer 1
10
98.596580
20
201.673419
11
105.282368
21
205.091160
0
LINE
8
Layer 1
10
105.282368
20
205.091160
11
107.627969
21
206.321052
0
LINE
8
Layer 1
10
107.627969
20
206.321052
11
109.177073
21
206.865778
0
LINE
8
Layer 1
10
109.177073
20
206.865778
11
109.733611
21
206.895374
0
LINE
8
Layer 1
10
109.733611
20
206.895374
11
110.187832
21
206.770682
0
LINE
8
Layer 1
10
110.187832
20
206.770682
11
110.918396
21
206.081105
0
LINE
8
Layer 1
10
110.918396
20
206.081105
11
111.245509
21
205.467516
0
LINE
8
Layer 1
10
111.245509
20
205.467516
11
111.422225
21
204.797582
0
LINE
8
Layer 1
10
111.422225
20
204.797582
11
111.340947
21
203.355740
0
LINE
8
Layer 1
10
111.340947
20
203.355740
11
110.707530
21
201.889710
0
LINE
8
Layer 1
10
110.707530
20
201.889710
11
109.554939
21
200.533621
0
LINE
8
Layer 1
10
109.554939
20
200.533621
11
108.696965
21
199.561401
0
LINE
8
Layer 1
10
108.696965
20
199.561401
11
108.563249
21
199.094354
0
LINE
8
Layer 1
10
108.563249
20
199.094354
11
108.553628
21
198.491647
0
LINE
8
Layer 1
10
108.553628
20
198.491647
11
108.435780
21
197.448008
0
LINE
8
Layer 1
10
108.435780
20
197.448008
11
107.873323
21
196.542048
0
LINE
8
Layer 1
10
107.873323
20
196.542048
11
107.028785
21
195.794310
0
LINE
8
Layer 1
10
107.028785
20
195.794310
11
105.986870
21
195.348927
0
LINE
8
Layer 1
10
105.986870
20
195.348927
11
104.643711
21
195.179105
0
LINE
8
Layer 1
10
104.643711
20
195.179105
11
102.895442
21
195.258052
0
LINE
8
Layer 1
10
102.895442
20
195.258052
11
100.939742
21
195.356197
0
LINE
8
Layer 1
10
100.939742
20
195.356197
11
100.640162
21
195.165735
0
LINE
8
Layer 1
10
100.640162
20
195.165735
11
100.495518
21
194.753032
0
LINE
8
Layer 1
10
100.495518
20
194.753032
11
100.449428
21
193.646391
0
LINE
8
Layer 1
10
100.449428
20
193.646391
11
100.408969
21
193.166901
0
LINE
8
Layer 1
10
100.408969
20
193.166901
11
100.085713
21
192.526190
0
LINE
8
Layer 1
10
100.085713
20
192.526190
11
99.569639
21
191.863941
0
LINE
8
Layer 1
10
99.569639
20
191.863941
11
98.950724
21
191.319833
0
LINE
8
Layer 1
10
98.950724
20
191.319833
11
98.195109
21
191.034672
0
LINE
8
Layer 1
10
98.195109
20
191.034672
11
97.143587
21
191.080294
0
LINE
8
Layer 1
10
97.143587
20
191.080294
11
95.510735
21
191.320981
0
LINE
8
Layer 1
10
95.510735
20
191.320981
11
94.646568
21
191.324981
0
LINE
8
Layer 1
10
94.646568
20
191.324981
11
94.288439
21
191.029706
0
LINE
8
Layer 1
10
94.288439
20
191.029706
11
94.173706
21
190.372568
0
LINE
8
Layer 1
10
94.173706
20
190.372568
11
94.225993
21
189.430831
0
LINE
8
Layer 1
10
94.225993
20
189.430831
11
94.499463
21
188.532668
0
LINE
8
Layer 1
10
94.499463
20
188.532668
11
94.914815
21
187.859029
0
LINE
8
Layer 1
10
94.914815
20
187.859029
11
95.392751
21
187.590862
0
LINE
8
Layer 1
10
95.392751
20
187.590862
11
98.306808
21
188.830063
0
LINE
8
Layer 1
10
98.306808
20
188.830063
11
99.972677
21
189.632543
0
LINE
8
Layer 1
10
99.972677
20
189.632543
11
100.995704
21
189.987793
0
LINE
8
Layer 1
10
100.995704
20
189.987793
11
101.625189
21
189.942589
0
LINE
8
Layer 1
10
101.625189
20
189.942589
11
102.110433
21
189.543704
0
LINE
8
Layer 1
10
102.110433
20
189.543704
11
102.442680
21
188.764207
0
LINE
8
Layer 1
10
102.442680
20
188.764207
11
102.556032
21
187.640315
0
LINE
8
Layer 1
10
102.556032
20
187.640315
11
102.449501
21
186.499295
0
LINE
8
Layer 1
10
102.449501
20
186.499295
11
102.122103
21
185.668415
0
LINE
8
Layer 1
10
102.122103
20
185.668415
11
101.802599
21
185.157923
0
LINE
8
Layer 1
10
101.802599
20
185.157923
11
101.710260
21
184.763362
0
LINE
8
Layer 1
10
101.710260
20
184.763362
11
101.843631
21
184.507754
0
LINE
8
Layer 1
10
101.843631
20
184.507754
11
102.201260
21
184.414120
0
LINE
8
Layer 1
10
102.201260
20
184.414120
11
102.898540
21
184.800545
0
LINE
8
Layer 1
10
102.898540
20
184.800545
11
103.838146
21
185.737413
0
LINE
8
Layer 1
10
103.838146
20
185.737413
11
107.632098
21
189.742878
0
LINE
8
Layer 1
10
107.632098
20
189.742878
11
109.603201
21
191.582490
0
LINE
8
Layer 1
10
109.603201
20
191.582490
11
111.046305
21
192.751487
0
LINE
8
Layer 1
10
111.046305
20
192.751487
11
113.638220
21
194.584901
0
LINE
8
Layer 1
10
113.638220
20
194.584901
11
114.750147
21
195.309127
0
LINE
8
Layer 1
10
114.750147
20
195.309127
11
115.625801
21
195.709800
0
LINE
8
Layer 1
10
115.625801
20
195.709800
11
117.751736
21
196.573493
0
LINE
8
Layer 1
10
117.751736
20
196.573493
11
119.986727
21
197.537374
0
LINE
8
Layer 1
10
119.986727
20
197.537374
11
122.358732
21
198.353875
0
LINE
8
Layer 1
10
122.358732
20
198.353875
11
124.518398
21
198.916665
0
LINE
8
Layer 1
10
124.518398
20
198.916665
11
126.116374
21
199.119411
0
LINE
8
Layer 1
10
126.116374
20
199.119411
11
127.099419
21
198.901583
0
LINE
8
Layer 1
10
127.099419
20
198.901583
11
127.896917
21
198.327072
0
LINE
8
Layer 1
10
127.896917
20
198.327072
11
128.429194
21
197.480993
0
LINE
8
Layer 1
10
128.429194
20
197.480993
11
128.616575
21
196.448460
0
LINE
8
Layer 1
10
128.616575
20
196.448460
11
128.557959
21
195.850673
0
LINE
8
Layer 1
10
128.557959
20
195.850673
11
128.345516
21
195.328973
0
LINE
8
Layer 1
10
128.345516
20
195.328973
11
127.153343
21
194.002688
0
LINE
8
Layer 1
10
127.153343
20
194.002688
11
126.082555
21
193.065749
0
LINE
8
Layer 1
10
126.082555
20
193.065749
11
125.069037
21
192.423197
0
LINE
8
Layer 1
10
125.069037
20
192.423197
11
123.874977
21
191.955421
0
LINE
8
Layer 1
10
123.874977
20
191.955421
11
122.262564
21
191.542811
0
LINE
8
Layer 1
10
122.262564
20
191.542811
11
121.341253
21
191.309397
0
LINE
8
Layer 1
10
121.341253
20
191.309397
11
120.772310
21
191.045246
0
LINE
8
Layer 1
10
120.772310
20
191.045246
11
120.388098
21
190.631054
0
LINE
8
Layer 1
10
120.388098
20
190.631054
11
120.020980
21
189.947513
0
LINE
8
Layer 1
10
120.020980
20
189.947513
11
119.314372
21
188.890518
0
LINE
8
Layer 1
10
119.314372
20
188.890518
11
118.366165
21
188.193003
0
LINE
8
Layer 1
10
118.366165
20
188.193003
11
117.569226
21
187.867952
0
LINE
8
Layer 1
10
117.569226
20
187.867952
11
117.144859
21
187.827638
0
LINE
8
Layer 1
10
117.144859
20
187.827638
11
116.606311
21
187.819981
0
LINE
8
Layer 1
10
116.606311
20
187.819981
11
115.605546
21
187.528658
0
LINE
8
Layer 1
10
115.605546
20
187.528658
11
114.535526
21
187.091844
0
LINE
8
Layer 1
10
114.535526
20
187.091844
11
113.789214
21
186.647715
0
LINE
8
Layer 1
10
113.789214
20
186.647715
11
113.332392
21
185.903697
0
LINE
8
Layer 1
10
113.332392
20
185.903697
11
113.228073
21
184.930290
0
LINE
8
Layer 1
10
113.228073
20
184.930290
11
113.463426
21
183.921566
0
LINE
8
Layer 1
10
113.463426
20
183.921566
11
114.025624
21
183.071601
0
LINE
8
Layer 1
10
114.025624
20
183.071601
11
115.080903
21
182.302023
0
LINE
8
Layer 1
10
115.080903
20
182.302023
11
116.383497
21
181.582630
0
LINE
8
Layer 1
10
116.383497
20
181.582630
11
117.292044
21
181.074681
0
LINE
8
Layer 1
10
117.292044
20
181.074681
11
118.028932
21
180.859608
0
LINE
8
Layer 1
10
118.028932
20
180.859608
11
118.979618
21
181.068849
0
LINE
8
Layer 1
10
118.979618
20
181.068849
11
120.407703
21
181.616203
0
LINE
8
Layer 1
10
120.407703
20
181.616203
11
123.395596
21
183.166281
0
LINE
8
Layer 1
10
123.395596
20
183.166281
11
126.012055
21
185.092229
0
LINE
8
Layer 1
10
126.012055
20
185.092229
11
127.955379
21
186.735048
0
LINE
8
Layer 1
10
127.955379
20
186.735048
11
129.402674
21
187.786770
0
LINE
8
Layer 1
10
129.402674
20
187.786770
11
131.785462
21
189.193387
0
LINE
8
Layer 1
10
131.785462
20
189.193387
11
133.577282
21
189.905743
0
LINE
8
Layer 1
10
133.577282
20
189.905743
11
135.892359
21
190.556964
0
LINE
8
Layer 1
10
135.892359
20
190.556964
11
143.490631
21
192.332918
0
LINE
8
Layer 1
10
143.490631
20
192.332918
11
147.233572
21
193.389631
0
LINE
8
Layer 1
10
147.233572
20
193.389631
11
148.425112
21
193.760340
0
LINE
8
Layer 1
10
148.425112
20
193.760340
11
149.160780
21
193.835728
0
LINE
8
Layer 1
10
149.160780
20
193.835728
11
149.625883
21
193.589418
0
LINE
8
Layer 1
10
149.625883
20
193.589418
11
150.005728
21
192.995034
0
LINE
8
Layer 1
10
150.005728
20
192.995034
11
150.277427
21
192.258651
0
LINE
8
Layer 1
10
150.277427
20
192.258651
11
150.378081
21
191.474232
0
LINE
8
Layer 1
10
150.378081
20
191.474232
11
150.318200
21
190.670846
0
LINE
8
Layer 1
10
150.318200
20
190.670846
11
150.108289
21
189.877561
0
LINE
8
Layer 1
10
150.108289
20
189.877561
11
149.280415
21
188.437575
0
LINE
8
Layer 1
10
149.280415
20
188.437575
11
148.683466
21
187.849012
0
LINE
8
Layer 1
10
148.683466
20
187.849012
11
147.978520
21
187.386829
0
LINE
8
Layer 1
10
147.978520
20
187.386829
11
146.873200
21
186.605461
0
LINE
8
Layer 1
10
146.873200
20
186.605461
11
146.193665
21
185.418871
0
LINE
8
Layer 1
10
146.193665
20
185.418871
11
145.207022
21
183.604622
0
LINE
8
Layer 1
10
145.207022
20
183.604622
11
144.368793
21
182.977859
0
LINE
8
Layer 1
10
144.368793
20
182.977859
11
143.112846
21
182.357655
0
LINE
8
Layer 1
10
143.112846
20
182.357655
11
141.680403
21
181.845606
0
LINE
8
Layer 1
10
141.680403
20
181.845606
11
140.312688
21
181.543305
0
LINE
8
Layer 1
10
140.312688
20
181.543305
11
138.998232
21
181.254730
0
LINE
8
Layer 1
10
138.998232
20
181.254730
11
138.762242
21
181.008430
0
LINE
8
Layer 1
10
138.762242
20
181.008430
11
138.665709
21
180.614391
0
LINE
8
Layer 1
10
138.665709
20
180.614391
11
138.716317
21
179.907097
0
LINE
8
Layer 1
10
138.716317
20
179.907097
11
139.049316
21
179.460937
0
LINE
8
Layer 1
10
139.049316
20
179.460937
11
139.620065
21
179.305623
0
LINE
8
Layer 1
10
139.620065
20
179.305623
11
140.383920
21
179.470866
0
LINE
8
Layer 1
10
140.383920
20
179.470866
11
142.020049
21
179.780746
0
LINE
8
Layer 1
10
142.020049
20
179.780746
11
144.449425
21
179.941796
0
LINE
8
Layer 1
10
144.449425
20
179.941796
11
146.791672
21
179.927027
0
LINE
8
Layer 1
10
146.791672
20
179.927027
11
148.166415
21
179.709448
0
LINE
8
Layer 1
10
148.166415
20
179.709448
11
148.863093
21
179.152001
0
LINE
8
Layer 1
10
148.863093
20
179.152001
11
149.361603
21
178.406847
0
LINE
8
Layer 1
10
149.361603
20
178.406847
11
149.610113
21
177.582864
0
LINE
8
Layer 1
10
149.610113
20
177.582864
11
149.556789
21
176.788930
0
LINE
8
Layer 1
10
149.556789
20
176.788930
11
149.233572
21
176.002661
0
LINE
8
Layer 1
10
149.233572
20
176.002661
11
148.747258
21
175.382573
0
LINE
8
Layer 1
10
148.747258
20
175.382573
11
148.024065
21
174.858891
0
LINE
8
Layer 1
10
148.024065
20
174.858891
11
146.990206
21
174.361842
0
LINE
8
Layer 1
10
146.990206
20
174.361842
11
146.002511
21
173.865864
0
LINE
8
Layer 1
10
146.002511
20
173.865864
11
145.589935
21
173.492956
0
LINE
8
Layer 1
10
145.589935
20
173.492956
11
145.235381
21
172.883678
0
LINE
8
Layer 1
10
145.235381
20
172.883678
11
144.363656
21
172.003833
0
LINE
8
Layer 1
10
144.363656
20
172.003833
11
143.250224
21
171.100816
0
LINE
8
Layer 1
10
143.250224
20
171.100816
11
142.170551
21
170.422020
0
LINE
8
Layer 1
10
142.170551
20
170.422020
11
140.759261
21
169.928850
0
LINE
8
Layer 1
10
140.759261
20
169.928850
11
138.988983
21
169.818950
0
LINE
8
Layer 1
10
138.988983
20
169.818950
11
137.348836
21
169.752540
0
LINE
8
Layer 1
10
137.348836
20
169.752540
11
137.121140
21
169.552221
0
LINE
8
Layer 1
10
137.121140
20
169.552221
11
137.076987
21
169.168595
0
LINE
8
Layer 1
10
137.076987
20
169.168595
11
137.305539
21
168.006708
0
LINE
8
Layer 1
10
137.305539
20
168.006708
11
137.398424
21
167.407292
0
LINE
8
Layer 1
10
137.398424
20
167.407292
11
137.288389
21
166.635278
0
LINE
8
Layer 1
10
137.288389
20
166.635278
11
136.872628
21
165.862113
0
LINE
8
Layer 1
10
136.872628
20
165.862113
11
136.013915
21
165.416529
0
LINE
8
Layer 1
10
136.013915
20
165.416529
11
134.895546
21
165.247727
0
LINE
8
Layer 1
10
134.895546
20
165.247727
11
133.444683
21
165.292691
0
LINE
8
Layer 1
10
133.444683
20
165.292691
11
131.860728
21
165.532700
0
LINE
8
Layer 1
10
131.860728
20
165.532700
11
130.343080
21
165.949029
0
LINE
8
Layer 1
10
130.343080
20
165.949029
11
129.223926
21
166.210994
0
LINE
8
Layer 1
10
129.223926
20
166.210994
11
128.283840
21
166.212983
0
LINE
8
Layer 1
10
128.283840
20
166.212983
11
127.434792
21
165.837222
0
LINE
8
Layer 1
10
127.434792
20
165.837222
11
126.710610
21
165.155287
0
LINE
8
Layer 1
10
126.710610
20
165.155287
11
126.204077
21
164.284256
0
LINE
8
Layer 1
10
126.204077
20
164.284256
11
126.007975
21
163.341205
0
LINE
8
Layer 1
10
126.007975
20
163.341205
11
126.057568
21
162.763960
0
LINE
8
Layer 1
10
126.057568
20
162.763960
11
126.268365
21
162.242019
0
LINE
8
Layer 1
10
126.268365
20
162.242019
11
127.463570
21
160.872119
0
LINE
8
Layer 1
10
127.463570
20
160.872119
11
128.401003
21
160.051243
0
LINE
8
Layer 1
10
128.401003
20
160.051243
11
129.402514
21
159.370661
0
LINE
8
Layer 1
10
129.402514
20
159.370661
11
130.454148
21
158.834334
0
LINE
8
Layer 1
10
130.454148
20
158.834334
11
131.541948
21
158.446227
0
LINE
8
Layer 1
10
131.541948
20
158.446227
11
132.651956
21
158.210301
0
LINE
8
Layer 1
10
132.651956
20
158.210301
11
133.770218
21
158.130521
0
LINE
8
Layer 1
10
133.770218
20
158.130521
11
134.882775
21
158.210847
0
LINE
8
Layer 1
10
134.882775
20
158.210847
11
135.975671
21
158.455244
0
LINE
8
Layer 1
10
135.975671
20
158.455244
11
137.712243
21
159.092205
0
LINE
8
Layer 1
10
137.712243
20
159.092205
11
139.143238
21
159.951034
0
LINE
8
Layer 1
10
139.143238
20
159.951034
11
140.586556
21
161.272915
0
LINE
8
Layer 1
10
140.586556
20
161.272915
11
142.360094
21
163.299036
0
LINE
8
Layer 1
10
142.360094
20
163.299036
11
143.977377
21
164.917687
0
LINE
8
Layer 1
10
143.977377
20
164.917687
11
146.109696
21
166.202092
0
LINE
8
Layer 1
10
146.109696
20
166.202092
11
148.162516
21
167.381417
0
LINE
8
Layer 1
10
148.162516
20
167.381417
11
149.856345
21
168.573704
0
LINE
8
Layer 1
10
149.856345
20
168.573704
11
151.150707
21
169.471501
0
LINE
8
Layer 1
10
151.150707
20
169.471501
11
152.243090
21
169.942792
0
LINE
8
Layer 1
10
152.243090
20
169.942792
11
155.111530
21
169.965423
0
LINE
8
Layer 1
10
155.111530
20
169.965423
11
164.397032
21
169.419180
0
LINE
8
Layer 1
10
164.397032
20
169.419180
11
166.714196
21
169.235854
0
LINE
8
Layer 1
10
166.714196
20
169.235854
11
167.993367
21
168.979760
0
LINE
8
Layer 1
10
167.993367
20
168.979760
11
168.550349
21
168.529396
0
LINE
8
Layer 1
10
168.550349
20
168.529396
11
168.700941
21
167.763258
0
LINE
8
Layer 1
10
168.700941
20
167.763258
11
168.637655
21
166.614234
0
LINE
8
Layer 1
10
168.637655
20
166.614234
11
168.330237
21
165.586849
0
LINE
8
Layer 1
10
168.330237
20
165.586849
11
167.798138
21
164.724885
0
LINE
8
Layer 1
10
167.798138
20
164.724885
11
167.060812
21
164.072121
0
LINE
8
Layer 1
10
167.060812
20
164.072121
11
165.789312
21
163.658828
0
LINE
8
Layer 1
10
165.789312
20
163.658828
11
163.742336
21
163.311775
0
LINE
8
Layer 1
10
163.742336
20
163.311775
11
161.143126
21
163.011891
0
LINE
8
Layer 1
10
161.143126
20
163.011891
11
161.206050
21
161.616723
0
LINE
8
Layer 1
10
161.206050
20
161.616723
11
161.149525
21
160.445947
0
LINE
8
Layer 1
10
161.149525
20
160.445947
11
160.925273
21
159.590277
0
LINE
8
Layer 1
10
160.925273
20
159.590277
11
160.451795
21
159.104789
0
LINE
8
Layer 1
10
160.451795
20
159.104789
11
159.658438
21
158.735644
0
LINE
8
Layer 1
10
159.658438
20
158.735644
11
158.609208
21
158.503723
0
LINE
8
Layer 1
10
158.609208
20
158.503723
11
157.368110
21
158.429904
0
LINE
8
Layer 1
10
157.368110
20
158.429904
11
156.314229
21
158.295231
0
LINE
8
Layer 1
10
156.314229
20
158.295231
11
155.667086
21
157.712862
0
LINE
8
Layer 1
10
155.667086
20
157.712862
11
154.223836
21
155.929954
0
LINE
8
Layer 1
10
154.223836
20
155.929954
11
153.292014
21
154.556525
0
LINE
8
Layer 1
10
153.292014
20
154.556525
11
153.396925
21
154.321409
0
LINE
8
Layer 1
10
153.396925
20
154.321409
11
153.664444
21
154.244803
0
LINE
8
Layer 1
10
153.664444
20
154.244803
11
154.013745
21
154.326093
0
LINE
8
Layer 1
10
154.013745
20
154.326093
11
154.364004
21
154.564667
0
LINE
8
Layer 1
10
154.364004
20
154.564667
11
155.147563
21
154.851214
0
LINE
8
Layer 1
10
155.147563
20
154.851214
11
156.551701
21
155.070466
0
LINE
8
Layer 1
10
156.551701
20
155.070466
11
157.999175
21
155.311877
0
LINE
8
Layer 1
10
157.999175
20
155.311877
11
158.886920
21
155.651697
0
LINE
8
Layer 1
10
158.886920
20
155.651697
11
159.822065
21
156.231844
0
LINE
8
Layer 1
10
159.822065
20
156.231844
11
161.030929
21
156.669112
0
LINE
8
Layer 1
10
161.030929
20
156.669112
11
162.421555
21
156.938505
0
LINE
8
Layer 1
10
162.421555
20
156.938505
11
163.901984
21
157.015022
0
LINE
8
Layer 1
10
163.901984
20
157.015022
11
165.042724
21
156.973317
0
LINE
8
Layer 1
10
165.042724
20
156.973317
11
165.737107
21
156.837121
0
LINE
8
Layer 1
10
165.737107
20
156.837121
11
166.238814
21
156.507676
0
LINE
8
Layer 1
10
166.238814
20
156.507676
11
166.801526
21
155.886223
0
LINE
8
Layer 1
10
166.801526
20
155.886223
11
167.526759
21
154.813379
0
LINE
8
Layer 1
10
167.526759
20
154.813379
11
167.604113
21
154.356512
0
LINE
8
Layer 1
10
167.604113
20
154.356512
11
167.543333
21
153.806799
0
LINE
8
Layer 1
10
167.543333
20
153.806799
11
167.174373
21
152.858415
0
LINE
8
Layer 1
10
167.174373
20
152.858415
11
166.503424
21
152.051590
0
LINE
8
Layer 1
10
166.503424
20
152.051590
11
165.637378
21
151.482045
0
LINE
8
Layer 1
10
165.637378
20
151.482045
11
164.683127
21
151.245499
0
LINE
8
Layer 1
10
164.683127
20
151.245499
11
162.811759
21
151.145875
0
LINE
8
Layer 1
10
162.811759
20
151.145875
11
161.846845
21
150.932291
0
LINE
8
Layer 1
10
161.846845
20
150.932291
11
161.485188
21
150.444426
0
LINE
8
Layer 1
10
161.485188
20
150.444426
11
161.423587
21
149.521957
0
LINE
8
Layer 1
10
161.423587
20
149.521957
11
161.287675
21
148.508182
0
LINE
8
Layer 1
10
161.287675
20
148.508182
11
160.912229
21
147.875329
0
LINE
8
Layer 1
10
160.912229
20
147.875329
11
160.100242
21
147.486907
0
LINE
8
Layer 1
10
160.100242
20
147.486907
11
158.746687
21
147.163916
0
LINE
8
Layer 1
10
158.746687
20
147.163916
11
157.080864
21
146.947333
0
LINE
8
Layer 1
10
157.080864
20
146.947333
11
155.332074
21
146.878136
0
LINE
8
Layer 1
10
155.332074
20
146.878136
11
154.085206
21
146.827694
0
LINE
8
Layer 1
10
154.085206
20
146.827694
11
153.374523
21
146.608234
0
LINE
8
Layer 1
10
153.374523
20
146.608234
11
153.122511
21
146.166521
0
LINE
8
Layer 1
10
153.122511
20
146.166521
11
153.251659
21
145.449321
0
LINE
8
Layer 1
10
153.251659
20
145.449321
11
153.361377
21
144.650364
0
LINE
8
Layer 1
10
153.361377
20
144.650364
11
153.189761
21
143.830943
0
LINE
8
Layer 1
10
153.189761
20
143.830943
11
152.760931
21
143.055133
0
LINE
8
Layer 1
10
152.760931
20
143.055133
11
152.099004
21
142.387010
0
LINE
8
Layer 1
10
152.099004
20
142.387010
11
151.150375
21
141.961768
0
LINE
8
Layer 1
10
151.150375
20
141.961768
11
149.575334
21
141.858831
0
LINE
8
Layer 1
10
149.575334
20
141.858831
11
146.688040
21
141.607511
0
LINE
8
Layer 1
10
146.688040
20
141.607511
11
145.500157
21
141.325541
0
LINE
8
Layer 1
10
145.500157
20
141.325541
11
144.751702
21
140.987918
0
LINE
8
Layer 1
10
144.751702
20
140.987918
11
144.443833
21
140.594201
0
LINE
8
Layer 1
10
144.443833
20
140.594201
11
144.591360
21
140.124385
0
LINE
8
Layer 1
10
144.591360
20
140.124385
11
145.271213
21
139.474345
0
LINE
8
Layer 1
10
145.271213
20
139.474345
11
146.560320
21
138.539959
0
LINE
8
Layer 1
10
146.560320
20
138.539959
11
149.522945
21
136.416325
0
LINE
8
Layer 1
10
149.522945
20
136.416325
11
150.054040
21
136.071195
0
LINE
8
Layer 1
10
150.054040
20
136.071195
11
150.770799
21
135.875610
0
LINE
8
Layer 1
10
150.770799
20
135.875610
11
154.031628
21
135.743507
0
LINE
8
Layer 1
10
154.031628
20
135.743507
11
157.364038
21
135.599130
0
LINE
8
Layer 1
10
157.364038
20
135.599130
11
158.266734
21
135.387598
0
LINE
8
Layer 1
10
158.266734
20
135.387598
11
159.102095
21
135.020163
0
LINE
8
Layer 1
10
159.102095
20
135.020163
11
161.286540
21
133.621272
0
LINE
8
Layer 1
10
161.286540
20
133.621272
11
162.213888
21
133.011014
0
LINE
8
Layer 1
10
162.213888
20
133.011014
11
162.772985
21
134.668618
0
LINE
8
Layer 1
10
162.772985
20
134.668618
11
163.322882
21
136.069432
0
LINE
8
Layer 1
10
163.322882
20
136.069432
11
164.117618
21
137.458601
0
LINE
8
Layer 1
10
164.117618
20
137.458601
11
165.124369
21
138.804391
0
LINE
8
Layer 1
10
165.124369
20
138.804391
11
166.310309
21
140.075070
0
LINE
8
Layer 1
10
166.310309
20
140.075070
11
167.642615
21
141.238904
0
LINE
8
Layer 1
10
167.642615
20
141.238904
11
169.088463
21
142.264161
0
LINE
8
Layer 1
10
169.088463
20
142.264161
11
170.615027
21
143.119108
0
LINE
8
Layer 1
10
170.615027
20
143.119108
11
172.189484
21
143.772012
0
LINE
8
Layer 1
10
172.189484
20
143.772012
11
173.863970
21
144.164047
0
LINE
8
Layer 1
10
173.863970
20
144.164047
11
175.698748
21
144.279075
0
LINE
8
Layer 1
10
175.698748
20
144.279075
11
177.628181
21
144.134054
0
LINE
8
Layer 1
10
177.628181
20
144.134054
11
179.586626
21
143.745938
0
LINE
8
Layer 1
10
179.586626
20
143.745938
11
181.508445
21
143.131686
0
LINE
8
Layer 1
10
181.508445
20
143.131686
11
183.327999
21
142.308252
0
LINE
8
Layer 1
10
183.327999
20
142.308252
11
184.979646
21
141.292592
0
LINE
8
Layer 1
10
184.979646
20
141.292592
11
186.397748
21
140.101664
0
LINE
8
Layer 1
10
186.397748
20
140.101664
11
187.517985
21
138.693059
0
LINE
8
Layer 1
10
187.517985
20
138.693059
11
188.307763
21
137.021735
0
LINE
8
Layer 1
10
188.307763
20
137.021735
11
188.769704
21
135.080126
0
LINE
8
Layer 1
10
188.769704
20
135.080126
11
188.906429
21
132.860663
0
LINE
8
Layer 1
10
188.906429
20
132.860663
11
188.983983
21
131.299301
0
LINE
8
Layer 1
10
188.983983
20
131.299301
11
189.219984
21
130.488049
0
LINE
8
Layer 1
10
189.219984
20
130.488049
11
189.892869
21
130.241725
0
LINE
8
Layer 1
10
189.892869
20
130.241725
11
191.040156
21
130.130084
0
LINE
8
Layer 1
10
191.040156
20
130.130084
11
192.280767
21
130.015314
0
LINE
8
Layer 1
10
192.280767
20
130.015314
11
193.503004
21
129.708431
0
LINE
8
Layer 1
10
193.503004
20
129.708431
11
194.681927
21
129.226128
0
LINE
8
Layer 1
10
194.681927
20
129.226128
11
195.792593
21
128.585094
0
LINE
8
Layer 1
10
195.792593
20
128.585094
11
196.810060
21
127.802022
0
LINE
8
Layer 1
10
196.810060
20
127.802022
11
197.709384
21
126.893601
0
LINE
8
Layer 1
10
197.709384
20
126.893601
11
198.465624
21
125.876524
0
LINE
8
Layer 1
10
198.465624
20
125.876524
11
199.053837
21
124.767481
0
LINE
8
Layer 1
10
199.053837
20
124.767481
11
199.651588
21
122.978459
0
LINE
8
Layer 1
10
199.651588
20
122.978459
11
200.092414
21
120.986677
0
LINE
8
Layer 1
10
200.092414
20
120.986677
11
200.219879
21
118.805048
0
LINE
8
Layer 1
10
200.219879
20
118.805048
11
199.930760
21
116.657564
0
LINE
8
Layer 1
10
199.930760
20
116.657564
11
199.230385
21
114.567038
0
LINE
8
Layer 1
10
199.230385
20
114.567038
11
198.124087
21
112.556284
0
LINE
8
Layer 1
10
198.124087
20
112.556284
11
196.429764
21
110.369200
0
LINE
8
Layer 1
10
196.429764
20
110.369200
11
194.462105
21
108.597973
0
LINE
8
Layer 1
10
194.462105
20
108.597973
11
191.999221
21
107.077760
0
LINE
8
Layer 1
10
191.999221
20
107.077760
11
188.819223
21
105.643717
0
LINE
8
Layer 1
10
188.819223
20
105.643717
11
188.221500
21
105.281392
0
LINE
8
Layer 1
10
188.221500
20
105.281392
11
188.330513
21
104.749733
0
LINE
8
Layer 1
10
188.330513
20
104.749733
11
188.880060
21
104.032111
0
LINE
8
Layer 1
10
188.880060
20
104.032111
11
189.743250
21
103.321650
0
LINE
8
Layer 1
10
189.743250
20
103.321650
11
192.156593
21
102.028984
0
LINE
8
Layer 1
10
192.156593
20
102.028984
11
195.062598
21
101.085283
0
LINE
8
Layer 1
10
195.062598
20
101.085283
11
196.541618
21
100.811029
0
LINE
8
Layer 1
10
196.541618
20
100.811029
11
197.953325
21
100.704097
0
LINE
8
Layer 1
10
197.953325
20
100.704097
11
200.159389
21
100.929515
0
LINE
8
Layer 1
10
200.159389
20
100.929515
11
202.517798
21
101.604656
0
LINE
8
Layer 1
10
202.517798
20
101.604656
11
204.846164
21
102.662098
0
LINE
8
Layer 1
10
204.846164
20
102.662098
11
206.962098
21
104.034418
0
LINE
8
Layer 1
10
206.962098
20
104.034418
11
208.182027
21
104.859365
0
LINE
8
Layer 1
10
208.182027
20
104.859365
11
208.492127
21
104.922878
0
LINE
8
Layer 1
10
208.492127
20
104.922878
11
208.677098
21
104.786546
0
LINE
8
Layer 1
10
208.677098
20
104.786546
11
208.767334
21
103.732838
0
LINE
8
Layer 1
10
208.767334
20
103.732838
11
208.592988
21
102.606583
0
LINE
8
Layer 1
10
208.592988
20
102.606583
11
208.209175
21
101.440675
0
LINE
8
Layer 1
10
208.209175
20
101.440675
11
207.671009
21
100.268008
0
LINE
8
Layer 1
10
207.671009
20
100.268008
11
206.352083
21
98.033969
0
LINE
8
Layer 1
10
206.352083
20
98.033969
11
205.077131
21
96.167617
0
LINE
8
Layer 1
10
205.077131
20
96.167617
11
204.434178
21
95.110848
0
LINE
8
Layer 1
10
204.434178
20
95.110848
11
204.382233
21
94.770328
0
LINE
8
Layer 1
10
204.382233
20
94.770328
11
204.483756
21
94.480476
0
LINE
8
Layer 1
10
204.483756
20
94.480476
11
205.395314
21
93.719968
0
LINE
8
Layer 1
10
205.395314
20
93.719968
11
206.987013
21
92.951395
0
LINE
8
Layer 1
10
206.987013
20
92.951395
11
208.812044
21
92.353459
0
LINE
8
Layer 1
10
208.812044
20
92.353459
11
210.423599
21
92.104859
0
LINE
8
Layer 1
10
210.423599
20
92.104859
11
211.377012
21
91.989817
0
LINE
8
Layer 1
10
211.377012
20
91.989817
11
211.795114
21
91.663382
0
LINE
8
Layer 1
10
211.795114
20
91.663382
11
210.730947
21
90.653100
0
LINE
8
Layer 1
10
210.730947
20
90.653100
11
209.342873
21
89.963875
0
LINE
8
Layer 1
10
209.342873
20
89.963875
11
207.720705
21
89.546655
0
LINE
8
Layer 1
10
207.720705
20
89.546655
11
205.954259
21
89.352392
0
LINE
8
Layer 1
10
205.954259
20
89.352392
11
202.347783
21
89.436538
0
LINE
8
Layer 1
10
202.347783
20
89.436538
11
199.241955
21
89.823914
0
LINE
8
Layer 1
10
199.241955
20
89.823914
11
195.489427
21
90.776746
0
LINE
8
Layer 1
10
195.489427
20
90.776746
11
192.012048
21
92.170382
0
LINE
8
Layer 1
10
192.012048
20
92.170382
11
188.828053
21
93.996010
0
LINE
8
Layer 1
10
188.828053
20
93.996010
11
185.955678
21
96.244816
0
LINE
8
Layer 1
10
185.955678
20
96.244816
11
185.118275
21
96.883970
0
LINE
8
Layer 1
10
185.118275
20
96.883970
11
184.493661
21
97.126459
0
LINE
8
Layer 1
10
184.493661
20
97.126459
11
184.087910
21
97.021395
0
LINE
8
Layer 1
10
184.087910
20
97.021395
11
183.907093
21
96.617892
0
LINE
8
Layer 1
10
183.907093
20
96.617892
11
183.957285
21
95.965065
0
LINE
8
Layer 1
10
183.957285
20
95.965065
11
184.244559
21
95.112026
0
LINE
8
Layer 1
10
184.244559
20
95.112026
11
184.774987
21
94.107889
0
LINE
8
Layer 1
10
184.774987
20
94.107889
11
185.554643
21
93.001767
0
LINE
8
Layer 1
10
185.554643
20
93.001767
11
187.157118
21
91.163441
0
LINE
8
Layer 1
10
187.157118
20
91.163441
11
188.862130
21
89.548201
0
LINE
8
Layer 1
10
188.862130
20
89.548201
11
190.658791
21
88.161918
0
LINE
8
Layer 1
10
190.658791
20
88.161918
11
192.536210
21
87.010462
0
LINE
8
Layer 1
10
192.536210
20
87.010462
11
194.483500
21
86.099707
0
LINE
8
Layer 1
10
194.483500
20
86.099707
11
196.489771
21
85.435522
0
LINE
8
Layer 1
10
196.489771
20
85.435522
11
198.544133
21
85.023780
0
LINE
8
Layer 1
10
198.544133
20
85.023780
11
200.635698
21
84.870352
0
LINE
8
Layer 1
10
200.635698
20
84.870352
11
202.354931
21
84.753109
0
LINE
8
Layer 1
10
202.354931
20
84.753109
11
202.817013
21
84.606385
0
LINE
8
Layer 1
10
202.817013
20
84.606385
11
203.099932
21
84.383979
0
LINE
8
Layer 1
10
203.099932
20
84.383979
11
203.259915
21
84.108496
0
LINE
8
Layer 1
10
203.259915
20
84.108496
11
203.217104
21
83.835059
0
LINE
8
Layer 1
10
203.217104
20
83.835059
11
202.348854
21
82.965191
0
LINE
8
Layer 1
10
202.348854
20
82.965191
11
201.255518
21
82.167500
0
LINE
8
Layer 1
10
201.255518
20
82.167500
11
200.042249
21
81.525363
0
LINE
8
Layer 1
10
200.042249
20
81.525363
11
198.700549
21
81.035014
0
LINE
8
Layer 1
10
198.700549
20
81.035014
11
197.221918
21
80.692684
0
LINE
8
Layer 1
10
197.221918
20
80.692684
11
195.457714
21
80.258233
0
LINE
8
Layer 1
10
195.457714
20
80.258233
11
195.179973
21
79.969443
0
LINE
8
Layer 1
10
195.179973
20
79.969443
11
195.115205
21
79.527939
0
LINE
8
Layer 1
10
195.115205
20
79.527939
11
195.355445
21
78.825487
0
LINE
8
Layer 1
10
195.355445
20
78.825487
11
195.997762
21
78.084691
0
LINE
8
Layer 1
10
195.997762
20
78.084691
11
196.904154
21
77.429909
0
LINE
8
Layer 1
10
196.904154
20
77.429909
11
197.936620
21
76.985501
0
LINE
8
Layer 1
10
197.936620
20
76.985501
11
200.285748
21
76.698965
0
LINE
8
Layer 1
10
200.285748
20
76.698965
11
202.511539
21
76.845352
0
LINE
8
Layer 1
10
202.511539
20
76.845352
11
204.620280
21
77.371173
0
LINE
8
Layer 1
10
204.620280
20
77.371173
11
206.618253
21
78.222940
0
LINE
8
Layer 1
10
206.618253
20
78.222940
11
208.511745
21
79.347164
0
LINE
8
Layer 1
10
208.511745
20
79.347164
11
210.307038
21
80.690357
0
LINE
8
Layer 1
10
210.307038
20
80.690357
11
212.010419
21
82.199029
0
LINE
8
Layer 1
10
212.010419
20
82.199029
11
213.628170
21
83.819692
0
LINE
8
Layer 1
10
213.628170
20
83.819692
11
215.741365
21
87.009970
0
LINE
8
Layer 1
10
215.741365
20
87.009970
11
217.525130
21
90.370703
0
LINE
8
Layer 1
10
217.525130
20
90.370703
11
219.057464
21
93.861291
0
LINE
8
Layer 1
10
219.057464
20
93.861291
11
220.416365
21
97.441135
0
LINE
8
Layer 1
10
220.416365
20
97.441135
11
222.925855
21
104.706189
0
LINE
8
Layer 1
10
222.925855
20
104.706189
11
224.232441
21
108.310198
0
LINE
8
Layer 1
10
224.232441
20
108.310198
11
225.677583
21
111.841063
0
LINE
8
Layer 1
10
225.677583
20
111.841063
11
227.428438
21
114.962061
0
LINE
8
Layer 1
10
227.428438
20
114.962061
11
229.463399
21
117.674690
0
LINE
8
Layer 1
10
229.463399
20
117.674690
11
231.761747
21
119.966181
0
LINE
8
Layer 1
10
231.761747
20
119.966181
11
234.302761
21
121.823765
0
LINE
8
Layer 1
10
234.302761
20
121.823765
11
237.065723
21
123.234674
0
LINE
8
Layer 1
10
237.065723
20
123.234674
11
240.029912
21
124.186139
0
LINE
8
Layer 1
10
240.029912
20
124.186139
11
243.174609
21
124.665393
0
LINE
8
Layer 1
10
243.174609
20
124.665393
11
246.479094
21
124.659667
0
LINE
8
Layer 1
10
246.479094
20
124.659667
11
249.055875
21
124.351519
0
LINE
8
Layer 1
10
249.055875
20
124.351519
11
250.298485
21
123.997806
0
LINE
8
Layer 1
10
250.298485
20
123.997806
11
251.436973
21
123.484206
0
LINE
8
Layer 1
10
251.436973
20
123.484206
11
252.416140
21
122.790627
0
LINE
8
Layer 1
10
252.416140
20
122.790627
11
253.180785
21
121.896971
0
LINE
8
Layer 1
10
253.180785
20
121.896971
11
253.675710
21
120.783145
0
LINE
8
Layer 1
10
253.675710
20
120.783145
11
253.845712
21
119.429053
0
LINE
8
Layer 1
10
253.845712
20
119.429053
11
253.609087
21
118.286535
0
LINE
8
Layer 1
10
253.609087
20
118.286535
11
253.086003
21
117.248649
0
LINE
8
Layer 1
10
253.086003
20
117.248649
11
252.297416
21
116.391389
0
LINE
8
Layer 1
10
252.297416
20
116.391389
11
251.264282
21
115.790749
0
LINE
8
Layer 1
10
251.264282
20
115.790749
11
249.756183
21
115.468579
0
LINE
8
Layer 1
10
249.756183
20
115.468579
11
249.047311
21
115.540261
0
LINE
8
Layer 1
10
249.047311
20
115.540261
11
248.351199
21
115.775082
0
LINE
8
Layer 1
10
248.351199
20
115.775082
11
246.945179
21
116.758035
0
LINE
8
Layer 1
10
246.945179
20
116.758035
11
245.433969
21
118.465216
0
LINE
8
Layer 1
10
245.433969
20
118.465216
11
244.864169
21
118.675844
0
LINE
8
Layer 1
10
244.864169
20
118.675844
11
244.288378
21
118.707352
0
LINE
8
Layer 1
10
244.288378
20
118.707352
11
243.136519
21
118.309176
0
LINE
8
Layer 1
10
243.136519
20
118.309176
11
242.013788
21
117.423019
0
LINE
8
Layer 1
10
242.013788
20
117.423019
11
240.955579
21
116.201214
0
LINE
8
Layer 1
10
240.955579
20
116.201214
11
239.174311
21
113.359982
0
LINE
8
Layer 1
10
239.174311
20
113.359982
11
238.075876
21
111.004136
0
LINE
8
Layer 1
10
238.075876
20
111.004136
11
237.595349
21
108.865936
0
LINE
8
Layer 1
10
237.595349
20
108.865936
11
237.099005
21
105.631741
0
LINE
8
Layer 1
10
237.099005
20
105.631741
11
236.705321
21
102.190186
0
LINE
8
Layer 1
10
236.705321
20
102.190186
11
236.532770
21
99.429909
0
LINE
8
Layer 1
10
236.532770
20
99.429909
11
236.575597
21
97.486112
0
LINE
8
Layer 1
10
236.575597
20
97.486112
11
236.821102
21
96.453576
0
LINE
8
Layer 1
10
236.821102
20
96.453576
11
237.050347
21
96.228317
0
LINE
8
Layer 1
10
237.050347
20
96.228317
11
237.366848
21
96.170018
0
LINE
8
Layer 1
10
237.366848
20
96.170018
11
238.310397
21
96.473154
0
LINE
8
Layer 1
10
238.310397
20
96.473154
11
239.139878
21
96.736035
0
LINE
8
Layer 1
10
239.139878
20
96.736035
11
240.031961
21
96.805708
0
LINE
8
Layer 1
10
240.031961
20
96.805708
11
240.955202
21
96.694568
0
LINE
8
Layer 1
10
240.955202
20
96.694568
11
241.878153
21
96.415012
0
LINE
8
Layer 1
10
241.878153
20
96.415012
11
242.769369
21
95.979435
0
LINE
8
Layer 1
10
242.769369
20
95.979435
11
243.597404
21
95.400233
0
LINE
8
Layer 1
10
243.597404
20
95.400233
11
244.330813
21
94.689801
0
LINE
8
Layer 1
10
244.330813
20
94.689801
11
244.938149
21
93.860535
0
LINE
8
Layer 1
10
244.938149
20
93.860535
11
245.419308
21
92.703990
0
LINE
8
Layer 1
10
245.419308
20
92.703990
11
245.537962
21
91.273356
0
LINE
8
Layer 1
10
245.537962
20
91.273356
11
245.338461
21
89.939708
0
LINE
8
Layer 1
10
245.338461
20
89.939708
11
244.797560
21
88.813370
0
LINE
8
Layer 1
10
244.797560
20
88.813370
11
243.917278
21
87.897250
0
LINE
8
Layer 1
10
243.917278
20
87.897250
11
242.699636
21
87.194252
0
LINE
8
Layer 1
10
242.699636
20
87.194252
11
241.947954
21
86.899965
0
LINE
8
Layer 1
10
241.947954
20
86.899965
11
241.226354
21
86.826296
0
LINE
8
Layer 1
10
241.226354
20
86.826296
11
239.839747
21
87.132411
0
LINE
8
Layer 1
10
239.839747
20
87.132411
11
238.472506
21
87.695803
0
LINE
8
Layer 1
10
238.472506
20
87.695803
11
237.057325
21
88.099677
0
LINE
8
Layer 1
10
237.057325
20
88.099677
11
236.664081
21
87.751697
0
LINE
8
Layer 1
10
236.664081
20
87.751697
11
236.334372
21
86.931614
0
LINE
8
Layer 1
10
236.334372
20
86.931614
11
235.899678
21
84.274539
0
LINE
8
Layer 1
10
235.899678
20
84.274539
11
235.821479
21
80.927266
0
LINE
8
Layer 1
10
235.821479
20
80.927266
11
236.168012
21
77.688604
0
LINE
8
Layer 1
10
236.168012
20
77.688604
11
236.650608
21
75.774004
0
LINE
8
Layer 1
10
236.650608
20
75.774004
11
237.340316
21
73.897447
0
LINE
8
Layer 1
10
237.340316
20
73.897447
11
238.272880
21
71.975212
0
LINE
8
Layer 1
10
238.272880
20
71.975212
11
239.484047
21
69.923581
0
LINE
8
Layer 1
10
239.484047
20
69.923581
11
240.559786
21
68.333229
0
LINE
8
Layer 1
10
240.559786
20
68.333229
11
241.772098
21
66.886594
0
LINE
8
Layer 1
10
241.772098
20
66.886594
11
244.479954
21
64.285220
0
LINE
8
Layer 1
10
244.479954
20
64.285220
11
247.354646
21
61.840936
0
LINE
8
Layer 1
10
247.354646
20
61.840936
11
250.143205
21
59.275221
0
LINE
8
Layer 1
10
250.143205
20
59.275221
11
251.981324
21
57.063283
0
LINE
8
Layer 1
10
251.981324
20
57.063283
11
253.622752
21
54.727803
0
LINE
8
Layer 1
10
253.622752
20
54.727803
11
255.065457
21
52.286343
0
LINE
8
Layer 1
10
255.065457
20
52.286343
11
256.307408
21
49.756468
0
LINE
8
Layer 1
10
256.307408
20
49.756468
11
257.346573
21
47.155744
0
LINE
8
Layer 1
10
257.346573
20
47.155744
11
258.180922
21
44.501734
0
LINE
8
Layer 1
10
258.180922
20
44.501734
11
258.808423
21
41.812002
0
LINE
8
Layer 1
10
258.808423
20
41.812002
11
259.227045
21
39.104114
0
LINE
8
Layer 1
10
259.227045
20
39.104114
11
259.434757
21
36.395633
0
LINE
8
Layer 1
10
259.434757
20
36.395633
11
259.429527
21
33.704124
0
LINE
8
Layer 1
10
259.429527
20
33.704124
11
259.209324
21
31.047152
0
LINE
8
Layer 1
10
259.209324
20
31.047152
11
258.772118
21
28.442280
0
LINE
8
Layer 1
10
258.772118
20
28.442280
11
258.115877
21
25.907074
0
LINE
8
Layer 1
10
258.115877
20
25.907074
11
257.238569
21
23.459097
0
LINE
8
Layer 1
10
257.238569
20
23.459097
11
256.138164
21
21.115915
0
LINE
8
Layer 1
10
256.138164
20
21.115915
11
254.812631
21
18.895091
0
LINE
8
Layer 1
10
254.812631
20
18.895091
11
253.037601
21
16.504570
0
LINE
8
Layer 1
10
253.037601
20
16.504570
11
251.065337
21
14.307064
0
LINE
8
Layer 1
10
251.065337
20
14.307064
11
249.035689
21
12.444463
0
LINE
8
Layer 1
10
249.035689
20
12.444463
11
247.088508
21
11.058655
0
LINE
8
Layer 1
10
247.088508
20
11.058655
11
244.098058
21
9.555604
0
LINE
8
Layer 1
10
244.098058
20
9.555604
11
241.035577
21
8.344526
0
LINE
8
Layer 1
10
241.035577
20
8.344526
11
237.909798
21
7.396645
0
LINE
8
Layer 1
10
237.909798
20
7.396645
11
234.729459
21
6.683180
0
LINE
8
Layer 1
10
234.729459
20
6.683180
11
231.503293
21
6.175355
0
LINE
8
Layer 1
10
231.503293
20
6.175355
11
228.240038
21
5.844392
0
LINE
8
Layer 1
10
228.240038
20
5.844392
11
221.637197
21
5.597937
0
LINE
8
Layer 1
10
221.637197
20
5.597937
11
88.916470
21
5.626441
0
LINE
8
Layer 1
10
88.916470
20
5.626441
11
88.916470
21
5.626441
0
LINE
8
Layer 1
10
130.754205
20
12.194571
11
133.506415
21
12.319907
0
LINE
8
Layer 1
10
133.506415
20
12.319907
11
134.859510
21
12.599451
0
LINE
8
Layer 1
10
134.859510
20
12.599451
11
135.117247
21
12.854821
0
LINE
8
Layer 1
10
135.117247
20
12.854821
11
135.152235
21
13.218068
0
LINE
8
Layer 1
10
135.152235
20
13.218068
11
134.723338
21
14.360627
0
LINE
8
Layer 1
10
134.723338
20
14.360627
11
134.393884
21
15.259174
0
LINE
8
Layer 1
10
134.393884
20
15.259174
11
134.207569
21
16.193377
0
LINE
8
Layer 1
10
134.207569
20
16.193377
11
134.246680
21
18.063252
0
LINE
8
Layer 1
10
134.246680
20
18.063252
11
134.805301
21
19.759258
0
LINE
8
Layer 1
10
134.805301
20
19.759258
11
135.268375
21
20.476125
0
LINE
8
Layer 1
10
135.268375
20
20.476125
11
135.848065
21
21.070403
0
LINE
8
Layer 1
10
135.848065
20
21.070403
11
137.541588
21
22.207737
0
LINE
8
Layer 1
10
137.541588
20
22.207737
11
139.173588
21
22.757249
0
LINE
8
Layer 1
10
139.173588
20
22.757249
11
140.795050
21
22.727075
0
LINE
8
Layer 1
10
140.795050
20
22.727075
11
142.456958
21
22.125350
0
LINE
8
Layer 1
10
142.456958
20
22.125350
11
144.305503
21
21.400180
0
LINE
8
Layer 1
10
144.305503
20
21.400180
11
145.019481
21
21.812513
0
LINE
8
Layer 1
10
145.019481
20
21.812513
11
146.066435
21
22.816678
0
LINE
8
Layer 1
10
146.066435
20
22.816678
11
147.104448
21
24.046348
0
LINE
8
Layer 1
10
147.104448
20
24.046348
11
147.791607
21
25.135194
0
LINE
8
Layer 1
10
147.791607
20
25.135194
11
148.632567
21
27.183138
0
LINE
8
Layer 1
10
148.632567
20
27.183138
11
149.126861
21
29.263260
0
LINE
8
Layer 1
10
149.126861
20
29.263260
11
149.247879
21
31.386574
0
LINE
8
Layer 1
10
149.247879
20
31.386574
11
148.969008
21
33.564096
0
LINE
8
Layer 1
10
148.969008
20
33.564096
11
148.218192
21
36.009931
0
LINE
8
Layer 1
10
148.218192
20
36.009931
11
147.168803
21
38.002106
0
LINE
8
Layer 1
10
147.168803
20
38.002106
11
145.721897
21
39.686344
0
LINE
8
Layer 1
10
145.721897
20
39.686344
11
143.778529
21
41.208365
0
LINE
8
Layer 1
10
143.778529
20
41.208365
11
142.135686
21
42.164573
0
LINE
8
Layer 1
10
142.135686
20
42.164573
11
140.476837
21
42.782724
0
LINE
8
Layer 1
10
140.476837
20
42.782724
11
138.572425
21
43.124669
0
LINE
8
Layer 1
10
138.572425
20
43.124669
11
136.192895
21
43.252263
0
LINE
8
Layer 1
10
136.192895
20
43.252263
11
132.626735
21
43.059413
0
LINE
8
Layer 1
10
132.626735
20
43.059413
11
129.360620
21
42.334962
0
LINE
8
Layer 1
10
129.360620
20
42.334962
11
126.247333
21
41.032126
0
LINE
8
Layer 1
10
126.247333
20
41.032126
11
123.139657
21
39.104121
0
LINE
8
Layer 1
10
123.139657
20
39.104121
11
121.776942
21
38.021488
0
LINE
8
Layer 1
10
121.776942
20
38.021488
11
120.513465
21
36.824368
0
LINE
8
Layer 1
10
120.513465
20
36.824368
11
118.526808
21
34.441042
0
LINE
8
Layer 1
10
118.526808
20
34.441042
11
117.924917
21
33.432025
0
LINE
8
Layer 1
10
117.924917
20
33.432025
11
117.664844
21
32.662897
0
LINE
8
Layer 1
10
117.664844
20
32.662897
11
117.807234
21
32.222254
0
LINE
8
Layer 1
10
117.807234
20
32.222254
11
118.412731
21
32.198688
0
LINE
8
Layer 1
10
118.412731
20
32.198688
11
119.979830
21
31.949548
0
LINE
8
Layer 1
10
119.979830
20
31.949548
11
121.463079
21
31.248744
0
LINE
8
Layer 1
10
121.463079
20
31.248744
11
122.823265
21
30.277912
0
LINE
8
Layer 1
10
122.823265
20
30.277912
11
124.021173
21
29.218690
0
LINE
8
Layer 1
10
124.021173
20
29.218690
11
125.531526
21
27.468054
0
LINE
8
Layer 1
10
125.531526
20
27.468054
11
126.568438
21
25.820476
0
LINE
8
Layer 1
10
126.568438
20
25.820476
11
127.159789
21
24.220350
0
LINE
8
Layer 1
10
127.159789
20
24.220350
11
127.333454
21
22.612071
0
LINE
8
Layer 1
10
127.333454
20
22.612071
11
127.190690
21
21.492046
0
LINE
8
Layer 1
10
127.190690
20
21.492046
11
126.818497
21
20.427356
0
LINE
8
Layer 1
10
126.818497
20
20.427356
11
126.246837
21
19.447348
0
LINE
8
Layer 1
10
126.246837
20
19.447348
11
125.505671
21
18.581369
0
LINE
8
Layer 1
10
125.505671
20
18.581369
11
124.624963
21
17.858767
0
LINE
8
Layer 1
10
124.624963
20
17.858767
11
123.634674
21
17.308888
0
LINE
8
Layer 1
10
123.634674
20
17.308888
11
122.564767
21
16.961080
0
LINE
8
Layer 1
10
122.564767
20
16.961080
11
121.445203
21
16.844690
0
LINE
8
Layer 1
10
121.445203
20
16.844690
11
120.655771
21
16.918809
0
LINE
8
Layer 1
10
120.655771
20
16.918809
11
120.203193
21
17.205081
0
LINE
8
Layer 1
10
120.203193
20
17.205081
11
120.000836
21
17.823130
0
LINE
8
Layer 1
10
120.000836
20
17.823130
11
119.962064
21
18.892579
0
LINE
8
Layer 1
10
119.962064
20
18.892579
11
119.775924
21
20.747526
0
LINE
8
Layer 1
10
119.775924
20
20.747526
11
119.165195
21
22.201737
0
LINE
8
Layer 1
10
119.165195
20
22.201737
11
118.116929
21
23.274933
0
LINE
8
Layer 1
10
118.116929
20
23.274933
11
116.618176
21
23.986831
0
LINE
8
Layer 1
10
116.618176
20
23.986831
11
115.297075
21
24.250066
0
LINE
8
Layer 1
10
115.297075
20
24.250066
11
114.213005
21
24.017125
0
LINE
8
Layer 1
10
114.213005
20
24.017125
11
113.131194
21
23.171043
0
LINE
8
Layer 1
10
113.131194
20
23.171043
11
111.816868
21
21.594857
0
LINE
8
Layer 1
10
111.816868
20
21.594857
11
110.285771
21
19.756309
0
LINE
8
Layer 1
10
110.285771
20
19.756309
11
108.466539
21
17.828436
0
LINE
8
Layer 1
10
108.466539
20
17.828436
11
106.617195
21
16.070472
0
LINE
8
Layer 1
10
106.617195
20
16.070472
11
104.995763
21
14.741655
0
LINE
8
Layer 1
10
104.995763
20
14.741655
11
104.291785
21
14.036724
0
LINE
8
Layer 1
10
104.291785
20
14.036724
11
104.096047
21
13.163581
0
LINE
8
Layer 1
10
104.096047
20
13.163581
11
104.086146
21
12.228946
0
LINE
8
Layer 1
10
104.086146
20
12.228946
11
115.304234
21
12.146537
0
LINE
8
Layer 1
10
115.304234
20
12.146537
11
130.754205
21
12.194571
0
LINE
8
Layer 1
10
130.754205
20
12.194571
11
130.754205
21
12.194571
0
LINE
8
Layer 1
10
236.168263
20
11.729892
11
237.935762
21
12.286203
0
LINE
8
Layer 1
10
237.935762
20
12.286203
11
239.693679
21
13.037222
0
LINE
8
Layer 1
10
239.693679
20
13.037222
11
241.402825
21
13.954975
0
LINE
8
Layer 1
10
241.402825
20
13.954975
11
243.024012
21
15.011487
0
LINE
8
Layer 1
10
243.024012
20
15.011487
11
244.518054
21
16.178786
0
LINE
8
Layer 1
10
244.518054
20
16.178786
11
245.845761
21
17.428898
0
LINE
8
Layer 1
10
245.845761
20
17.428898
11
246.967948
21
18.733849
0
LINE
8
Layer 1
10
246.967948
20
18.733849
11
247.845425
21
20.065664
0
LINE
8
Layer 1
10
247.845425
20
20.065664
11
248.665180
21
21.877337
0
LINE
8
Layer 1
10
248.665180
20
21.877337
11
248.823748
21
23.819841
0
LINE
8
Layer 1
10
248.823748
20
23.819841
11
248.668404
21
25.556550
0
LINE
8
Layer 1
10
248.668404
20
25.556550
11
248.217326
21
27.068655
0
LINE
8
Layer 1
10
248.217326
20
27.068655
11
247.466021
21
28.366645
0
LINE
8
Layer 1
10
247.466021
20
28.366645
11
246.409997
21
29.461006
0
LINE
8
Layer 1
10
246.409997
20
29.461006
11
245.270443
21
30.231156
0
LINE
8
Layer 1
10
245.270443
20
30.231156
11
243.964614
21
30.833766
0
LINE
8
Layer 1
10
243.964614
20
30.833766
11
242.597758
21
31.229523
0
LINE
8
Layer 1
10
242.597758
20
31.229523
11
241.275122
21
31.379115
0
LINE
8
Layer 1
10
241.275122
20
31.379115
11
240.174820
21
31.594320
0
LINE
8
Layer 1
10
240.174820
20
31.594320
11
239.184674
21
32.175444
0
LINE
8
Layer 1
10
239.184674
20
32.175444
11
238.379093
21
33.061675
0
LINE
8
Layer 1
10
238.379093
20
33.061675
11
237.832491
21
34.192204
0
LINE
8
Layer 1
10
237.832491
20
34.192204
11
237.659013
21
34.843806
0
LINE
8
Layer 1
10
237.659013
20
34.843806
11
237.649369
21
35.385698
0
LINE
8
Layer 1
10
237.649369
20
35.385698
11
238.238030
21
36.925058
0
LINE
8
Layer 1
10
238.238030
20
36.925058
11
239.294906
21
38.668408
0
LINE
8
Layer 1
10
239.294906
20
38.668408
11
240.614528
21
39.935002
0
LINE
8
Layer 1
10
240.614528
20
39.935002
11
242.229621
21
40.748030
0
LINE
8
Layer 1
10
242.229621
20
40.748030
11
244.172915
21
41.130683
0
LINE
8
Layer 1
10
244.172915
20
41.130683
11
245.657216
21
41.151853
0
LINE
8
Layer 1
10
245.657216
20
41.151853
11
246.944192
21
40.934088
0
LINE
8
Layer 1
10
246.944192
20
40.934088
11
248.113355
21
40.454823
0
LINE
8
Layer 1
10
248.113355
20
40.454823
11
249.244220
21
39.691493
0
LINE
8
Layer 1
10
249.244220
20
39.691493
11
250.177698
21
38.820788
0
LINE
8
Layer 1
10
250.177698
20
38.820788
11
250.722809
21
37.947637
0
LINE
8
Layer 1
10
250.722809
20
37.947637
11
250.941585
21
36.917483
0
LINE
8
Layer 1
10
250.941585
20
36.917483
11
250.896055
21
35.575768
0
LINE
8
Layer 1
10
250.896055
20
35.575768
11
250.868873
21
34.170974
0
LINE
8
Layer 1
10
250.868873
20
34.170974
11
251.118972
21
33.179862
0
LINE
8
Layer 1
10
251.118972
20
33.179862
11
251.652458
21
32.590118
0
LINE
8
Layer 1
10
251.652458
20
32.590118
11
252.475436
21
32.389425
0
LINE
8
Layer 1
10
252.475436
20
32.389425
11
253.093981
21
32.536675
0
LINE
8
Layer 1
10
253.093981
20
32.536675
11
253.612306
21
32.974458
0
LINE
8
Layer 1
10
253.612306
20
32.974458
11
254.024171
21
33.675642
0
LINE
8
Layer 1
10
254.024171
20
33.675642
11
254.323333
21
34.613094
0
LINE
8
Layer 1
10
254.323333
20
34.613094
11
254.558584
21
37.088270
0
LINE
8
Layer 1
10
254.558584
20
37.088270
11
254.268125
21
40.182924
0
LINE
8
Layer 1
10
254.268125
20
40.182924
11
253.567877
21
42.929021
0
LINE
8
Layer 1
10
253.567877
20
42.929021
11
252.695315
21
45.667992
0
LINE
8
Layer 1
10
252.695315
20
45.667992
11
251.637719
21
48.360348
0
LINE
8
Layer 1
10
251.637719
20
48.360348
11
250.382369
21
50.966598
0
LINE
8
Layer 1
10
250.382369
20
50.966598
11
248.916547
21
53.447251
0
LINE
8
Layer 1
10
248.916547
20
53.447251
11
247.227532
21
55.762817
0
LINE
8
Layer 1
10
247.227532
20
55.762817
11
245.302605
21
57.873806
0
LINE
8
Layer 1
10
245.302605
20
57.873806
11
243.129046
21
59.740727
0
LINE
8
Layer 1
10
243.129046
20
59.740727
11
241.134834
21
60.949822
0
LINE
8
Layer 1
10
241.134834
20
60.949822
11
239.138936
21
61.828978
0
LINE
8
Layer 1
10
239.138936
20
61.828978
11
237.071135
21
62.403308
0
LINE
8
Layer 1
10
237.071135
20
62.403308
11
234.861216
21
62.697927
0
LINE
8
Layer 1
10
234.861216
20
62.697927
11
233.100920
21
62.758224
0
LINE
8
Layer 1
10
233.100920
20
62.758224
11
232.054583
21
62.554873
0
LINE
8
Layer 1
10
232.054583
20
62.554873
11
231.494724
21
61.977271
0
LINE
8
Layer 1
10
231.494724
20
61.977271
11
231.193865
21
60.914813
0
LINE
8
Layer 1
10
231.193865
20
60.914813
11
230.945862
21
60.058224
0
LINE
8
Layer 1
10
230.945862
20
60.058224
11
230.513491
21
59.316434
0
LINE
8
Layer 1
10
230.513491
20
59.316434
11
229.847217
21
58.624817
0
LINE
8
Layer 1
10
229.847217
20
58.624817
11
228.897507
21
57.918745
0
LINE
8
Layer 1
10
228.897507
20
57.918745
11
227.814919
21
57.393356
0
LINE
8
Layer 1
10
227.814919
20
57.393356
11
226.698590
21
57.196422
0
LINE
8
Layer 1
10
226.698590
20
57.196422
11
225.592219
21
57.305225
0
LINE
8
Layer 1
10
225.592219
20
57.305225
11
224.539505
21
57.697046
0
LINE
8
Layer 1
10
224.539505
20
57.697046
11
223.584148
21
58.349169
0
LINE
8
Layer 1
10
223.584148
20
58.349169
11
222.769846
21
59.238874
0
LINE
8
Layer 1
10
222.769846
20
59.238874
11
222.140299
21
60.343445
0
LINE
8
Layer 1
10
222.140299
20
60.343445
11
221.739206
21
61.640164
0
LINE
8
Layer 1
10
221.739206
20
61.640164
11
221.576450
21
63.078580
0
LINE
8
Layer 1
10
221.576450
20
63.078580
11
221.622764
21
64.310678
0
LINE
8
Layer 1
10
221.622764
20
64.310678
11
221.685228
21
65.202410
0
LINE
8
Layer 1
10
221.685228
20
65.202410
11
221.433493
21
65.559831
0
LINE
8
Layer 1
10
221.433493
20
65.559831
11
220.835461
21
65.390028
0
LINE
8
Layer 1
10
220.835461
20
65.390028
11
219.859033
21
64.700088
0
LINE
8
Layer 1
10
219.859033
20
64.700088
11
218.853221
21
63.879809
0
LINE
8
Layer 1
10
218.853221
20
63.879809
11
217.756810
21
63.144806
0
LINE
8
Layer 1
10
217.756810
20
63.144806
11
216.699067
21
62.373571
0
LINE
8
Layer 1
10
216.699067
20
62.373571
11
215.809260
21
61.444598
0
LINE
8
Layer 1
10
215.809260
20
61.444598
11
216.062549
21
61.017996
0
LINE
8
Layer 1
10
216.062549
20
61.017996
11
216.676108
21
60.424867
0
LINE
8
Layer 1
10
216.676108
20
60.424867
11
217.397702
21
59.664433
0
LINE
8
Layer 1
10
217.397702
20
59.664433
11
217.907165
21
58.768402
0
LINE
8
Layer 1
10
217.907165
20
58.768402
11
218.205279
21
57.783064
0
LINE
8
Layer 1
10
218.205279
20
57.783064
11
218.292825
21
56.754709
0
LINE
8
Layer 1
10
218.292825
20
56.754709
11
218.170584
21
55.729627
0
LINE
8
Layer 1
10
218.170584
20
55.729627
11
217.839339
21
54.754108
0
LINE
8
Layer 1
10
217.839339
20
54.754108
11
217.299871
21
53.874441
0
LINE
8
Layer 1
10
217.299871
20
53.874441
11
216.552961
21
53.136916
0
LINE
8
Layer 1
10
216.552961
20
53.136916
11
215.883401
21
52.739780
0
LINE
8
Layer 1
10
215.883401
20
52.739780
11
215.106412
21
52.471370
0
LINE
8
Layer 1
10
215.106412
20
52.471370
11
213.376856
21
52.313235
0
LINE
8
Layer 1
10
213.376856
20
52.313235
11
211.657719
21
52.647523
0
LINE
8
Layer 1
10
211.657719
20
52.647523
11
210.893753
21
52.994641
0
LINE
8
Layer 1
10
210.893753
20
52.994641
11
210.242427
21
53.459245
0
LINE
8
Layer 1
10
210.242427
20
53.459245
11
209.459373
21
54.052057
0
LINE
8
Layer 1
10
209.459373
20
54.052057
11
208.887938
21
54.301226
0
LINE
8
Layer 1
10
208.887938
20
54.301226
11
207.908088
21
53.654844
0
LINE
8
Layer 1
10
207.908088
20
53.654844
11
206.327948
21
52.078437
0
LINE
8
Layer 1
10
206.327948
20
52.078437
11
204.663539
21
50.132249
0
LINE
8
Layer 1
10
204.663539
20
50.132249
11
203.430883
21
48.376527
0
LINE
8
Layer 1
10
203.430883
20
48.376527
11
202.306704
21
46.201419
0
LINE
8
Layer 1
10
202.306704
20
46.201419
11
201.585691
21
44.169550
0
LINE
8
Layer 1
10
201.585691
20
44.169550
11
201.170123
21
41.912145
0
LINE
8
Layer 1
10
201.170123
20
41.912145
11
200.962277
21
39.060430
0
LINE
8
Layer 1
10
200.962277
20
39.060430
11
200.923212
21
35.540368
0
LINE
8
Layer 1
10
200.923212
20
35.540368
11
201.086301
21
34.562823
0
LINE
8
Layer 1
10
201.086301
20
34.562823
11
201.411925
21
33.612861
0
LINE
8
Layer 1
10
201.411925
20
33.612861
11
201.873687
21
32.615172
0
LINE
8
Layer 1
10
201.873687
20
32.615172
11
202.359545
21
31.964269
0
LINE
8
Layer 1
10
202.359545
20
31.964269
11
202.923484
21
31.608385
0
LINE
8
Layer 1
10
202.923484
20
31.608385
11
203.619489
21
31.495752
0
LINE
8
Layer 1
10
203.619489
20
31.495752
11
203.935336
21
31.545988
0
LINE
8
Layer 1
10
203.935336
20
31.545988
11
204.114019
21
31.792158
0
LINE
8
Layer 1
10
204.114019
20
31.792158
11
204.226930
21
33.394424
0
LINE
8
Layer 1
10
204.226930
20
33.394424
11
204.392605
21
35.237775
0
LINE
8
Layer 1
10
204.392605
20
35.237775
11
204.801301
21
37.318133
0
LINE
8
Layer 1
10
204.801301
20
37.318133
11
205.383450
21
39.346980
0
LINE
8
Layer 1
10
205.383450
20
39.346980
11
206.069489
21
41.035797
0
LINE
8
Layer 1
10
206.069489
20
41.035797
11
206.856262
21
42.276912
0
LINE
8
Layer 1
10
206.856262
20
42.276912
11
207.905082
21
43.471179
0
LINE
8
Layer 1
10
207.905082
20
43.471179
11
209.093970
21
44.497543
0
LINE
8
Layer 1
10
209.093970
20
44.497543
11
210.300943
21
45.234953
0
LINE
8
Layer 1
10
210.300943
20
45.234953
11
211.773475
21
45.681205
0
LINE
8
Layer 1
10
211.773475
20
45.681205
11
213.960575
21
45.780353
0
LINE
8
Layer 1
10
213.960575
20
45.780353
11
216.207867
21
45.628202
0
LINE
8
Layer 1
10
216.207867
20
45.628202
11
216.863387
21
45.368653
0
LINE
8
Layer 1
10
216.863387
20
45.368653
11
217.557164
21
44.901144
0
LINE
8
Layer 1
10
217.557164
20
44.901144
11
218.487528
21
44.109064
0
LINE
8
Layer 1
10
218.487528
20
44.109064
11
219.106558
21
43.402981
0
LINE
8
Layer 1
10
219.106558
20
43.402981
11
219.583541
21
42.485267
0
LINE
8
Layer 1
10
219.583541
20
42.485267
11
219.583854
21
41.732695
0
LINE
8
Layer 1
10
219.583854
20
41.732695
11
218.998889
21
40.839547
0
LINE
8
Layer 1
10
218.998889
20
40.839547
11
217.720040
21
39.500107
0
LINE
8
Layer 1
10
217.720040
20
39.500107
11
216.001510
21
37.519818
0
LINE
8
Layer 1
10
216.001510
20
37.519818
11
214.718365
21
35.438829
0
LINE
8
Layer 1
10
214.718365
20
35.438829
11
213.842980
21
33.201874
0
LINE
8
Layer 1
10
213.842980
20
33.201874
11
213.347732
21
30.753688
0
LINE
8
Layer 1
10
213.347732
20
30.753688
11
213.284926
21
29.427114
0
LINE
8
Layer 1
10
213.284926
20
29.427114
11
213.384844
21
27.926314
0
LINE
8
Layer 1
10
213.384844
20
27.926314
11
214.012914
21
24.631086
0
LINE
8
Layer 1
10
214.012914
20
24.631086
11
215.112055
21
21.326105
0
LINE
8
Layer 1
10
215.112055
20
21.326105
11
216.562384
21
18.469472
0
LINE
8
Layer 1
10
216.562384
20
18.469472
11
218.313447
21
16.219153
0
LINE
8
Layer 1
10
218.313447
20
16.219153
11
220.448403
21
14.251650
0
LINE
8
Layer 1
10
220.448403
20
14.251650
11
222.789976
21
12.706089
0
LINE
8
Layer 1
10
222.789976
20
12.706089
11
225.160891
21
11.721595
0
LINE
8
Layer 1
10
225.160891
20
11.721595
11
227.688929
21
11.238216
0
LINE
8
Layer 1
10
227.688929
20
11.238216
11
230.536525
21
11.078604
0
LINE
8
Layer 1
10
230.536525
20
11.078604
11
233.448147
21
11.242563
0
LINE
8
Layer 1
10
233.448147
20
11.242563
11
236.168263
21
11.729892
0
LINE
8
Layer 1
10
236.168263
20
11.729892
11
236.168263
21
11.729892
0
LINE
8
Layer 1
10
159.258598
20
12.310847
11
159.536140
21
12.552883
0
LINE
8
Layer 1
10
159.536140
20
12.552883
11
159.589301
21
12.831741
0
LINE
8
Layer 1
10
159.589301
20
12.831741
11
158.907582
21
14.078545
0
LINE
8
Layer 1
10
158.907582
20
14.078545
11
157.237711
21
17.164169
0
LINE
8
Layer 1
10
157.237711
20
17.164169
11
156.083485
21
20.074723
0
LINE
8
Layer 1
10
156.083485
20
20.074723
11
155.679723
21
21.041155
0
LINE
8
Layer 1
10
155.679723
20
21.041155
11
155.425798
21
21.229681
0
LINE
8
Layer 1
10
155.425798
20
21.229681
11
155.085153
21
21.284808
0
LINE
8
Layer 1
10
155.085153
20
21.284808
11
154.476514
21
21.064978
0
LINE
8
Layer 1
10
154.476514
20
21.064978
11
153.989913
21
20.273521
0
LINE
8
Layer 1
10
153.989913
20
20.273521
11
153.287688
21
18.999935
0
LINE
8
Layer 1
10
153.287688
20
18.999935
11
152.215561
21
17.458329
0
LINE
8
Layer 1
10
152.215561
20
17.458329
11
150.962718
21
15.900875
0
LINE
8
Layer 1
10
150.962718
20
15.900875
11
149.718344
21
14.579744
0
LINE
8
Layer 1
10
149.718344
20
14.579744
11
148.963440
21
13.786057
0
LINE
8
Layer 1
10
148.963440
20
13.786057
11
148.527287
21
13.138379
0
LINE
8
Layer 1
10
148.527287
20
13.138379
11
148.403493
21
12.623436
0
LINE
8
Layer 1
10
148.403493
20
12.623436
11
148.585668
21
12.227958
0
LINE
8
Layer 1
10
148.585668
20
12.227958
11
153.750558
21
11.985106
0
LINE
8
Layer 1
10
153.750558
20
11.985106
11
157.762658
21
12.026046
0
LINE
8
Layer 1
10
157.762658
20
12.026046
11
158.757503
21
12.133962
0
LINE
8
Layer 1
10
158.757503
20
12.133962
11
159.258598
21
12.310847
0
LINE
8
Layer 1
10
159.258598
20
12.310847
11
159.258598
21
12.310847
0
LINE
8
Layer 1
10
211.828925
20
12.078634
11
212.081700
21
12.419604
0
LINE
8
Layer 1
10
212.081700
20
12.419604
11
212.192286
21
13.075810
0
LINE
8
Layer 1
10
212.192286
20
13.075810
11
211.832330
21
14.076348
0
LINE
8
Layer 1
10
211.832330
20
14.076348
11
210.847688
21
15.354660
0
LINE
8
Layer 1
10
210.847688
20
15.354660
11
209.407196
21
16.779943
0
LINE
8
Layer 1
10
209.407196
20
16.779943
11
207.679690
21
18.221395
0
LINE
8
Layer 1
10
207.679690
20
18.221395
11
205.834008
21
19.548212
0
LINE
8
Layer 1
10
205.834008
20
19.548212
11
204.038984
21
20.629591
0
LINE
8
Layer 1
10
204.038984
20
20.629591
11
202.463455
21
21.334730
0
LINE
8
Layer 1
10
202.463455
20
21.334730
11
201.276258
21
21.532825
0
LINE
8
Layer 1
10
201.276258
20
21.532825
11
200.432985
21
21.289269
0
LINE
8
Layer 1
10
200.432985
20
21.289269
11
199.719315
21
20.781415
0
LINE
8
Layer 1
10
199.719315
20
20.781415
11
199.187740
21
20.061037
0
LINE
8
Layer 1
10
199.187740
20
20.061037
11
198.890752
21
19.179910
0
LINE
8
Layer 1
10
198.890752
20
19.179910
11
198.628526
21
18.233238
0
LINE
8
Layer 1
10
198.628526
20
18.233238
11
198.194307
21
17.463970
0
LINE
8
Layer 1
10
198.194307
20
17.463970
11
197.581795
21
16.863866
0
LINE
8
Layer 1
10
197.581795
20
16.863866
11
196.784688
21
16.424687
0
LINE
8
Layer 1
10
196.784688
20
16.424687
11
195.853321
21
16.221829
0
LINE
8
Layer 1
10
195.853321
20
16.221829
11
194.901812
21
16.327159
0
LINE
8
Layer 1
10
194.901812
20
16.327159
11
193.969031
21
16.706698
0
LINE
8
Layer 1
10
193.969031
20
16.706698
11
193.093846
21
17.326468
0
LINE
8
Layer 1
10
193.093846
20
17.326468
11
192.315128
21
18.152490
0
LINE
8
Layer 1
10
192.315128
20
18.152490
11
191.671746
21
19.150786
0
LINE
8
Layer 1
10
191.671746
20
19.150786
11
191.202569
21
20.287375
0
LINE
8
Layer 1
10
191.202569
20
20.287375
11
190.946467
21
21.528281
0
LINE
8
Layer 1
10
190.946467
20
21.528281
11
190.917985
21
22.898745
0
LINE
8
Layer 1
10
190.917985
20
22.898745
11
191.136327
21
24.169368
0
LINE
8
Layer 1
10
191.136327
20
24.169368
11
191.602576
21
25.344034
0
LINE
8
Layer 1
10
191.602576
20
25.344034
11
192.317816
21
26.426628
0
LINE
8
Layer 1
10
192.317816
20
26.426628
11
192.770615
21
27.201161
0
LINE
8
Layer 1
10
192.770615
20
27.201161
11
193.476992
21
27.697670
0
LINE
8
Layer 1
10
193.476992
20
27.697670
11
194.341465
21
28.005417
0
LINE
8
Layer 1
10
194.341465
20
28.005417
11
195.268554
21
28.213664
0
LINE
8
Layer 1
10
195.268554
20
28.213664
11
196.928658
21
28.688705
0
LINE
8
Layer 1
10
196.928658
20
28.688705
11
197.470712
21
29.134022
0
LINE
8
Layer 1
10
197.470712
20
29.134022
11
197.693461
21
29.836886
0
LINE
8
Layer 1
10
197.693461
20
29.836886
11
197.622265
21
30.464389
0
LINE
8
Layer 1
10
197.622265
20
30.464389
11
197.281892
21
31.117994
0
LINE
8
Layer 1
10
197.281892
20
31.117994
11
195.121005
21
33.447561
0
LINE
8
Layer 1
10
195.121005
20
33.447561
11
193.316837
21
35.210425
0
LINE
8
Layer 1
10
193.316837
20
35.210425
11
191.401402
21
36.805087
0
LINE
8
Layer 1
10
191.401402
20
36.805087
11
189.378429
21
38.212403
0
LINE
8
Layer 1
10
189.378429
20
38.212403
11
187.251644
21
39.413230
0
LINE
8
Layer 1
10
187.251644
20
39.413230
11
185.024776
21
40.388424
0
LINE
8
Layer 1
10
185.024776
20
40.388424
11
182.701552
21
41.118842
0
LINE
8
Layer 1
10
182.701552
20
41.118842
11
180.285700
21
41.585339
0
LINE
8
Layer 1
10
180.285700
20
41.585339
11
177.780947
21
41.768773
0
LINE
8
Layer 1
10
177.780947
20
41.768773
11
175.938353
21
41.783068
0
LINE
8
Layer 1
10
175.938353
20
41.783068
11
174.204059
21
41.540165
0
LINE
8
Layer 1
10
174.204059
20
41.540165
11
172.568030
21
41.064374
0
LINE
8
Layer 1
10
172.568030
20
41.064374
11
171.020230
21
40.380006
0
LINE
8
Layer 1
10
171.020230
20
40.380006
11
169.550623
21
39.511371
0
LINE
8
Layer 1
10
169.550623
20
39.511371
11
168.149174
21
38.482778
0
LINE
8
Layer 1
10
168.149174
20
38.482778
11
165.510608
21
36.042961
0
LINE
8
Layer 1
10
165.510608
20
36.042961
11
164.338839
21
34.436883
0
LINE
8
Layer 1
10
164.338839
20
34.436883
11
163.525826
21
33.003088
0
LINE
8
Layer 1
10
163.525826
20
33.003088
11
162.986546
21
31.560742
0
LINE
8
Layer 1
10
162.986546
20
31.560742
11
162.635974
21
29.929009
0
LINE
8
Layer 1
10
162.635974
20
29.929009
11
162.488964
21
28.374749
0
LINE
8
Layer 1
10
162.488964
20
28.374749
11
162.520992
21
26.772974
0
LINE
8
Layer 1
10
162.520992
20
26.772974
11
162.718260
21
25.173179
0
LINE
8
Layer 1
10
162.718260
20
25.173179
11
163.066972
21
23.624855
0
LINE
8
Layer 1
10
163.066972
20
23.624855
11
163.553330
21
22.177498
0
LINE
8
Layer 1
10
163.553330
20
22.177498
11
164.163539
21
20.880600
0
LINE
8
Layer 1
10
164.163539
20
20.880600
11
164.883802
21
19.783654
0
LINE
8
Layer 1
10
164.883802
20
19.783654
11
165.700321
21
18.936154
0
LINE
8
Layer 1
10
165.700321
20
18.936154
11
166.707484
21
18.227389
0
LINE
8
Layer 1
10
166.707484
20
18.227389
11
167.414714
21
18.073429
0
LINE
8
Layer 1
10
167.414714
20
18.073429
11
167.925374
21
18.497171
0
LINE
8
Layer 1
10
167.925374
20
18.497171
11
168.342829
21
19.521511
0
LINE
8
Layer 1
10
168.342829
20
19.521511
11
168.888473
21
20.827405
0
LINE
8
Layer 1
10
168.888473
20
20.827405
11
169.669918
21
21.995768
0
LINE
8
Layer 1
10
169.669918
20
21.995768
11
170.641592
21
22.970879
0
LINE
8
Layer 1
10
170.641592
20
22.970879
11
171.757921
21
23.697017
0
LINE
8
Layer 1
10
171.757921
20
23.697017
11
173.004846
21
24.093552
0
LINE
8
Layer 1
10
173.004846
20
24.093552
11
174.497458
21
24.236905
0
LINE
8
Layer 1
10
174.497458
20
24.236905
11
176.017387
21
24.124813
0
LINE
8
Layer 1
10
176.017387
20
24.124813
11
177.346260
21
23.755014
0
LINE
8
Layer 1
10
177.346260
20
23.755014
11
178.256935
21
23.191525
0
LINE
8
Layer 1
10
178.256935
20
23.191525
11
179.175766
21
22.334537
0
LINE
8
Layer 1
10
179.175766
20
22.334537
11
179.981281
21
21.316158
0
LINE
8
Layer 1
10
179.981281
20
21.316158
11
180.552008
21
20.268497
0
LINE
8
Layer 1
10
180.552008
20
20.268497
11
180.889770
21
18.813581
0
LINE
8
Layer 1
10
180.889770
20
18.813581
11
180.845417
21
17.207106
0
LINE
8
Layer 1
10
180.845417
20
17.207106
11
180.442288
21
15.615892
0
LINE
8
Layer 1
10
180.442288
20
15.615892
11
179.703727
21
14.206759
0
LINE
8
Layer 1
10
179.703727
20
14.206759
11
179.274991
21
13.444059
0
LINE
8
Layer 1
10
179.274991
20
13.444059
11
179.173145
21
12.840923
0
LINE
8
Layer 1
10
179.173145
20
12.840923
11
179.395042
21
12.424108
0
LINE
8
Layer 1
10
179.395042
20
12.424108
11
179.937531
21
12.220366
0
LINE
8
Layer 1
10
179.937531
20
12.220366
11
196.155573
21
12.044376
0
LINE
8
Layer 1
10
196.155573
20
12.044376
11
211.828925
21
12.078634
0
LINE
8
Layer 1
10
211.828925
20
12.078634
11
211.828925
21
12.078634
0
LINE
8
Layer 1
10
156.719753
20
35.873320
11
157.655837
21
37.993685
0
LINE
8
Layer 1
10
157.655837
20
37.993685
11
159.024249
21
40.316991
0
LINE
8
Layer 1
10
159.024249
20
40.316991
11
160.002612
21
42.020143
0
LINE
8
Layer 1
10
160.002612
20
42.020143
11
158.904728
21
43.456911
0
LINE
8
Layer 1
10
158.904728
20
43.456911
11
157.930553
21
44.781116
0
LINE
8
Layer 1
10
157.930553
20
44.781116
11
157.310984
21
46.272668
0
LINE
8
Layer 1
10
157.310984
20
46.272668
11
157.065827
21
47.861025
0
LINE
8
Layer 1
10
157.065827
20
47.861025
11
157.214889
21
49.475644
0
LINE
8
Layer 1
10
157.214889
20
49.475644
11
157.446004
21
50.469893
0
LINE
8
Layer 1
10
157.446004
20
50.469893
11
157.947611
21
51.373908
0
LINE
8
Layer 1
10
157.947611
20
51.373908
11
158.484348
21
52.256540
0
LINE
8
Layer 1
10
158.484348
20
52.256540
11
158.820855
21
53.186640
0
LINE
8
Layer 1
10
158.820855
20
53.186640
11
155.335915
21
53.457300
0
LINE
8
Layer 1
10
155.335915
20
53.457300
11
155.328222
21
51.091157
0
LINE
8
Layer 1
10
155.328222
20
51.091157
11
155.216730
21
49.231964
0
LINE
8
Layer 1
10
155.216730
20
49.231964
11
154.807048
21
47.788875
0
LINE
8
Layer 1
10
154.807048
20
47.788875
11
153.965232
21
46.465846
0
LINE
8
Layer 1
10
153.965232
20
46.465846
11
152.557342
21
44.966831
0
LINE
8
Layer 1
10
152.557342
20
44.966831
11
150.938797
21
43.394808
0
LINE
8
Layer 1
10
150.938797
20
43.394808
11
152.378720
21
41.297431
0
LINE
8
Layer 1
10
152.378720
20
41.297431
11
153.716087
21
38.802487
0
LINE
8
Layer 1
10
153.716087
20
38.802487
11
154.970587
21
35.891851
0
LINE
8
Layer 1
10
154.970587
20
35.891851
11
155.272684
21
35.528240
0
LINE
8
Layer 1
10
155.272684
20
35.528240
11
155.839916
21
35.388725
0
LINE
8
Layer 1
10
155.839916
20
35.388725
11
156.409982
21
35.516196
0
LINE
8
Layer 1
10
156.409982
20
35.516196
11
156.719753
21
35.873320
0
LINE
8
Layer 1
10
156.719753
20
35.873320
11
156.719753
21
35.873320
0
LINE
8
Layer 1
10
195.816243
20
41.435680
11
196.179113
21
42.325840
0
LINE
8
Layer 1
10
196.179113
20
42.325840
11
196.457900
21
44.610604
0
LINE
8
Layer 1
10
196.457900
20
44.610604
11
196.788335
21
47.083878
0
LINE
8
Layer 1
10
196.788335
20
47.083878
11
197.370822
21
49.415472
0
LINE
8
Layer 1
10
197.370822
20
49.415472
11
198.222753
21
51.660865
0
LINE
8
Layer 1
10
198.222753
20
51.660865
11
199.361515
21
53.875534
0
LINE
8
Layer 1
10
199.361515
20
53.875534
11
200.348713
21
55.653590
0
LINE
8
Layer 1
10
200.348713
20
55.653590
11
200.459186
21
56.138854
0
LINE
8
Layer 1
10
200.459186
20
56.138854
11
200.227444
21
56.380887
0
LINE
8
Layer 1
10
200.227444
20
56.380887
11
199.588391
21
56.399146
0
LINE
8
Layer 1
10
199.588391
20
56.399146
11
198.476929
21
56.213092
0
LINE
8
Layer 1
10
198.476929
20
56.213092
11
194.576390
21
55.305873
0
LINE
8
Layer 1
10
194.576390
20
55.305873
11
189.927380
21
54.459970
0
LINE
8
Layer 1
10
189.927380
20
54.459970
11
183.883013
21
53.739883
0
LINE
8
Layer 1
10
183.883013
20
53.739883
11
177.110943
21
53.210692
0
LINE
8
Layer 1
10
177.110943
20
53.210692
11
170.278826
21
52.937475
0
LINE
8
Layer 1
10
170.278826
20
52.937475
11
168.161623
21
52.898082
0
LINE
8
Layer 1
10
168.161623
20
52.898082
11
168.243639
21
51.258069
0
LINE
8
Layer 1
10
168.243639
20
51.258069
11
168.268250
21
50.305191
0
LINE
8
Layer 1
10
168.268250
20
50.305191
11
168.158550
21
49.691640
0
LINE
8
Layer 1
10
168.158550
20
49.691640
11
167.819570
21
49.179053
0
LINE
8
Layer 1
10
167.819570
20
49.179053
11
167.156339
21
48.529068
0
LINE
8
Layer 1
10
167.156339
20
48.529068
11
166.483646
21
47.811297
0
LINE
8
Layer 1
10
166.483646
20
47.811297
11
166.067445
21
47.183499
0
LINE
8
Layer 1
10
166.067445
20
47.183499
11
165.953984
21
46.739273
0
LINE
8
Layer 1
10
165.953984
20
46.739273
11
166.189508
21
46.572221
0
LINE
8
Layer 1
10
166.189508
20
46.572221
11
168.643314
21
47.263476
0
LINE
8
Layer 1
10
168.643314
20
47.263476
11
170.585736
21
47.754711
0
LINE
8
Layer 1
10
170.585736
20
47.754711
11
172.666221
21
48.084822
0
LINE
8
Layer 1
10
172.666221
20
48.084822
11
174.843481
21
48.255045
0
LINE
8
Layer 1
10
174.843481
20
48.255045
11
177.076230
21
48.266618
0
LINE
8
Layer 1
10
177.076230
20
48.266618
11
179.323182
21
48.120780
0
LINE
8
Layer 1
10
179.323182
20
48.120780
11
181.543051
21
47.818767
0
LINE
8
Layer 1
10
181.543051
20
47.818767
11
183.694551
21
47.361816
0
LINE
8
Layer 1
10
183.694551
20
47.361816
11
185.736394
21
46.751167
0
LINE
8
Layer 1
10
185.736394
20
46.751167
11
188.140734
21
45.679597
0
LINE
8
Layer 1
10
188.140734
20
45.679597
11
191.038291
21
44.101666
0
LINE
8
Layer 1
10
191.038291
20
44.101666
11
193.569956
21
42.517703
0
LINE
8
Layer 1
10
193.569956
20
42.517703
11
194.876620
21
41.428038
0
LINE
8
Layer 1
10
194.876620
20
41.428038
11
195.225541
21
41.198022
0
LINE
8
Layer 1
10
195.225541
20
41.198022
11
195.816243
21
41.435680
0
LINE
8
Layer 1
10
195.816243
20
41.435680
11
195.816243
21
41.435680
0
LINE
8
Layer 1
10
122.501138
20
45.759074
11
124.437734
21
46.888192
0
LINE
8
Layer 1
10
124.437734
20
46.888192
11
126.454835
21
47.842042
0
LINE
8
Layer 1
10
126.454835
20
47.842042
11
128.535763
21
48.616747
0
LINE
8
Layer 1
10
128.535763
20
48.616747
11
130.663841
21
49.208431
0
LINE
8
Layer 1
10
130.663841
20
49.208431
11
132.822391
21
49.613217
0
LINE
8
Layer 1
10
132.822391
20
49.613217
11
134.994737
21
49.827227
0
LINE
8
Layer 1
10
134.994737
20
49.827227
11
137.164202
21
49.846586
0
LINE
8
Layer 1
10
137.164202
20
49.846586
11
139.314109
21
49.667417
0
LINE
8
Layer 1
10
139.314109
20
49.667417
11
142.133444
21
49.117865
0
LINE
8
Layer 1
10
142.133444
20
49.117865
11
144.864328
21
47.919200
0
LINE
8
Layer 1
10
144.864328
20
47.919200
11
147.213438
21
46.831411
0
LINE
8
Layer 1
10
147.213438
20
46.831411
11
147.701572
21
46.784780
0
LINE
8
Layer 1
10
147.701572
20
46.784780
11
148.021000
21
46.984073
0
LINE
8
Layer 1
10
148.021000
20
46.984073
11
148.232099
21
47.253279
0
LINE
8
Layer 1
10
148.232099
20
47.253279
11
148.219316
21
47.529916
0
LINE
8
Layer 1
10
148.219316
20
47.529916
11
147.333281
21
48.529923
0
LINE
8
Layer 1
10
147.333281
20
48.529923
11
146.195663
21
49.635303
0
LINE
8
Layer 1
10
146.195663
20
49.635303
11
146.316629
21
51.658452
0
LINE
8
Layer 1
10
146.316629
20
51.658452
11
146.437593
21
53.681602
0
LINE
8
Layer 1
10
146.437593
20
53.681602
11
142.840016
21
54.062828
0
LINE
8
Layer 1
10
142.840016
20
54.062828
11
134.546428
21
55.274373
0
LINE
8
Layer 1
10
134.546428
20
55.274373
11
130.863566
21
55.985887
0
LINE
8
Layer 1
10
130.863566
20
55.985887
11
128.687054
21
56.556941
0
LINE
8
Layer 1
10
128.687054
20
56.556941
11
126.576379
21
57.133950
0
LINE
8
Layer 1
10
126.576379
20
57.133950
11
123.532745
21
57.977515
0
LINE
8
Layer 1
10
123.532745
20
57.977515
11
118.177073
21
59.785843
0
LINE
8
Layer 1
10
118.177073
20
59.785843
11
115.656739
21
60.570756
0
LINE
8
Layer 1
10
115.656739
20
60.570756
11
114.477597
21
60.760006
0
LINE
8
Layer 1
10
114.477597
20
60.760006
11
114.618525
21
59.969106
0
LINE
8
Layer 1
10
114.618525
20
59.969106
11
115.271985
21
58.397493
0
LINE
8
Layer 1
10
115.271985
20
58.397493
11
116.524619
21
55.475646
0
LINE
8
Layer 1
10
116.524619
20
55.475646
11
117.537423
21
52.473511
0
LINE
8
Layer 1
10
117.537423
20
52.473511
11
118.277664
21
49.502614
0
LINE
8
Layer 1
10
118.277664
20
49.502614
11
118.712612
21
46.674481
0
LINE
8
Layer 1
10
118.712612
20
46.674481
11
118.964242
21
44.961331
0
LINE
8
Layer 1
10
118.964242
20
44.961331
11
119.167609
21
44.499105
0
LINE
8
Layer 1
10
119.167609
20
44.499105
11
119.474049
21
44.287365
0
LINE
8
Layer 1
10
119.474049
20
44.287365
11
119.922092
21
44.316802
0
LINE
8
Layer 1
10
119.922092
20
44.316802
11
120.550268
21
44.578105
0
LINE
8
Layer 1
10
120.550268
20
44.578105
11
122.501138
21
45.759074
0
LINE
8
Layer 1
10
122.501138
20
45.759074
11
122.501138
21
45.759074
0
LINE
8
Layer 1
10
230.244811
20
70.621502
11
230.852938
21
70.976264
0
LINE
8
Layer 1
10
230.852938
20
70.976264
11
231.206573
21
71.686085
0
LINE
8
Layer 1
10
231.206573
20
71.686085
11
231.340498
21
72.635577
0
LINE
8
Layer 1
10
231.340498
20
72.635577
11
231.289494
21
73.709355
0
LINE
8
Layer 1
10
231.289494
20
73.709355
11
230.771826
21
75.768222
0
LINE
8
Layer 1
10
230.771826
20
75.768222
11
230.374723
21
76.522539
0
LINE
8
Layer 1
10
230.374723
20
76.522539
11
229.931818
21
76.939597
0
LINE
8
Layer 1
10
229.931818
20
76.939597
11
228.747977
21
75.567154
0
LINE
8
Layer 1
10
228.747977
20
75.567154
11
227.639600
21
73.938149
0
LINE
8
Layer 1
10
227.639600
20
73.938149
11
226.673597
21
72.200787
0
LINE
8
Layer 1
10
226.673597
20
72.200787
11
225.916879
21
70.503271
0
LINE
8
Layer 1
10
225.916879
20
70.503271
11
226.991171
21
70.468528
0
LINE
8
Layer 1
10
226.991171
20
70.468528
11
228.070964
21
70.550437
0
LINE
8
Layer 1
10
228.070964
20
70.550437
11
230.244811
21
70.621502
0
LINE
8
Layer 1
10
230.244811
20
70.621502
11
230.244811
21
70.621502
0
LINE
8
Layer 1
10
181.083768
20
87.264804
11
180.599887
21
88.211999
0
LINE
8
Layer 1
10
180.599887
20
88.211999
11
177.438833
21
93.153413
0
LINE
8
Layer 1
10
177.438833
20
93.153413
11
175.819221
21
96.244811
0
LINE
8
Layer 1
10
175.819221
20
96.244811
11
175.050614
21
97.744392
0
LINE
8
Layer 1
10
175.050614
20
97.744392
11
174.474210
21
98.503311
0
LINE
8
Layer 1
10
174.474210
20
98.503311
11
174.270927
21
98.594631
0
LINE
8
Layer 1
10
174.270927
20
98.594631
11
174.131106
21
98.488317
0
LINE
8
Layer 1
10
174.131106
20
98.488317
11
174.062401
21
97.666161
0
LINE
8
Layer 1
10
174.062401
20
97.666161
11
174.343033
21
96.176747
0
LINE
8
Layer 1
10
174.343033
20
96.176747
11
174.935711
21
94.318629
0
LINE
8
Layer 1
10
174.935711
20
94.318629
11
175.701642
21
92.470443
0
LINE
8
Layer 1
10
175.701642
20
92.470443
11
176.502029
21
91.010825
0
LINE
8
Layer 1
10
176.502029
20
91.010825
11
177.885160
21
89.293071
0
LINE
8
Layer 1
10
177.885160
20
89.293071
11
179.385067
21
87.871114
0
LINE
8
Layer 1
10
179.385067
20
87.871114
11
180.588889
21
87.082508
0
LINE
8
Layer 1
10
180.588889
20
87.082508
11
180.950751
21
87.031197
0
LINE
8
Layer 1
10
180.950751
20
87.031197
11
181.083768
21
87.264804
0
LINE
8
Layer 1
10
181.083768
20
87.264804
11
181.083768
21
87.264804
0
LINE
8
Layer 1
10
167.818393
20
95.307985
11
166.859540
21
97.817955
0
LINE
8
Layer 1
10
166.859540
20
97.817955
11
165.957278
21
99.747888
0
LINE
8
Layer 1
10
165.957278
20
99.747888
11
165.146340
21
99.929651
0
LINE
8
Layer 1
10
165.146340
20
99.929651
11
163.650605
21
99.958261
0
LINE
8
Layer 1
10
163.650605
20
99.958261
11
162.148492
21
99.851421
0
LINE
8
Layer 1
10
162.148492
20
99.851421
11
161.318420
21
99.626835
0
LINE
8
Layer 1
10
161.318420
20
99.626835
11
161.190240
21
99.371771
0
LINE
8
Layer 1
10
161.190240
20
99.371771
11
161.381443
21
99.199147
0
LINE
8
Layer 1
10
161.381443
20
99.199147
11
164.310013
21
97.129088
0
LINE
8
Layer 1
10
164.310013
20
97.129088
11
166.773640
21
95.055676
0
LINE
8
Layer 1
10
166.773640
20
95.055676
11
166.947379
21
94.891017
0
LINE
8
Layer 1
10
166.947379
20
94.891017
11
167.368525
21
94.818835
0
LINE
8
Layer 1
10
167.368525
20
94.818835
11
167.798682
21
94.925139
0
LINE
8
Layer 1
10
167.798682
20
94.925139
11
167.818393
21
95.307985
0
LINE
8
Layer 1
10
167.818393
20
95.307985
11
167.818393
21
95.307985
0
LINE
8
Layer 1
10
183.903724
20
111.112469
11
186.211331
21
111.978947
0
LINE
8
Layer 1
10
186.211331
20
111.978947
11
188.138685
21
113.124512
0
LINE
8
Layer 1
10
188.138685
20
113.124512
11
189.749292
21
114.596146
0
LINE
8
Layer 1
10
189.749292
20
114.596146
11
191.106659
21
116.440833
0
LINE
8
Layer 1
10
191.106659
20
116.440833
11
191.950139
21
118.119210
0
LINE
8
Layer 1
10
191.950139
20
118.119210
11
192.154028
21
119.783281
0
LINE
8
Layer 1
10
192.154028
20
119.783281
11
191.918221
21
121.656070
0
LINE
8
Layer 1
10
191.918221
20
121.656070
11
191.622306
21
122.378480
0
LINE
8
Layer 1
10
191.622306
20
122.378480
11
191.222383
21
122.942501
0
LINE
8
Layer 1
10
191.222383
20
122.942501
11
190.729451
21
123.336330
0
LINE
8
Layer 1
10
190.729451
20
123.336330
11
190.154511
21
123.548168
0
LINE
8
Layer 1
10
190.154511
20
123.548168
11
189.508561
21
123.566212
0
LINE
8
Layer 1
10
189.508561
20
123.566212
11
188.802603
21
123.378663
0
LINE
8
Layer 1
10
188.802603
20
123.378663
11
187.552169
21
122.501636
0
LINE
8
Layer 1
10
187.552169
20
122.501636
11
185.763848
21
120.837383
0
LINE
8
Layer 1
10
185.763848
20
120.837383
11
183.883787
21
118.832183
0
LINE
8
Layer 1
10
183.883787
20
118.832183
11
182.358137
21
116.932318
0
LINE
8
Layer 1
10
182.358137
20
116.932318
11
181.214272
21
115.496139
0
LINE
8
Layer 1
10
181.214272
20
115.496139
11
179.869821
21
114.049456
0
LINE
8
Layer 1
10
179.869821
20
114.049456
11
178.663924
21
112.933098
0
LINE
8
Layer 1
10
178.663924
20
112.933098
11
177.935721
21
112.487896
0
LINE
8
Layer 1
10
177.935721
20
112.487896
11
177.679565
21
112.305869
0
LINE
8
Layer 1
10
177.679565
20
112.305869
11
177.689420
21
111.880997
0
LINE
8
Layer 1
10
177.689420
20
111.880997
11
177.914365
21
111.408001
0
LINE
8
Layer 1
10
177.914365
20
111.408001
11
178.303479
21
111.081606
0
LINE
8
Layer 1
10
178.303479
20
111.081606
11
179.388646
21
110.859760
0
LINE
8
Layer 1
10
179.388646
20
110.859760
11
180.940373
21
110.792370
0
LINE
8
Layer 1
10
180.940373
20
110.792370
11
182.573714
21
110.877314
0
LINE
8
Layer 1
10
182.573714
20
110.877314
11
183.903724
21
111.112469
0
LINE
8
Layer 1
10
183.903724
20
111.112469
11
183.903724
21
111.112469
0
LINE
8
Layer 1
10
174.100606
20
122.166640
11
176.922659
21
125.244951
0
LINE
8
Layer 1
10
176.922659
20
125.244951
11
179.405720
21
128.581351
0
LINE
8
Layer 1
10
179.405720
20
128.581351
11
181.176152
21
131.616177
0
LINE
8
Layer 1
10
181.176152
20
131.616177
11
181.677370
21
132.845605
0
LINE
8
Layer 1
10
181.677370
20
132.845605
11
181.860317
21
133.789764
0
LINE
8
Layer 1
10
181.860317
20
133.789764
11
181.781111
21
134.256568
0
LINE
8
Layer 1
10
181.781111
20
134.256568
11
181.488904
21
134.429448
0
LINE
8
Layer 1
10
181.488904
20
134.429448
11
180.921364
21
134.312458
0
LINE
8
Layer 1
10
180.921364
20
134.312458
11
180.016158
21
133.909649
0
LINE
8
Layer 1
10
180.016158
20
133.909649
11
178.741081
21
133.538397
0
LINE
8
Layer 1
10
178.741081
20
133.538397
11
177.556467
21
133.672705
0
LINE
8
Layer 1
10
177.556467
20
133.672705
11
176.578636
21
134.273055
0
LINE
8
Layer 1
10
176.578636
20
134.273055
11
175.923911
21
135.299930
0
LINE
8
Layer 1
10
175.923911
20
135.299930
11
175.582181
21
135.786530
0
LINE
8
Layer 1
10
175.582181
20
135.786530
11
175.098059
21
135.914676
0
LINE
8
Layer 1
10
175.098059
20
135.914676
11
174.541019
21
135.690760
0
LINE
8
Layer 1
10
174.541019
20
135.690760
11
173.980537
21
135.121170
0
LINE
8
Layer 1
10
173.980537
20
135.121170
11
173.194996
21
133.807804
0
LINE
8
Layer 1
10
173.194996
20
133.807804
11
172.341808
21
132.063224
0
LINE
8
Layer 1
10
172.341808
20
132.063224
11
171.655480
21
130.405660
0
LINE
8
Layer 1
10
171.655480
20
130.405660
11
171.370518
21
129.353344
0
LINE
8
Layer 1
10
171.370518
20
129.353344
11
171.070611
21
127.935617
0
LINE
8
Layer 1
10
171.070611
20
127.935617
11
170.835070
21
126.487170
0
LINE
8
Layer 1
10
170.835070
20
126.487170
11
170.735940
21
124.241289
0
LINE
8
Layer 1
10
170.735940
20
124.241289
11
170.783186
21
122.050195
0
LINE
8
Layer 1
10
170.783186
20
122.050195
11
170.986775
21
120.766106
0
LINE
8
Layer 1
10
170.986775
20
120.766106
11
171.311329
21
120.350097
0
LINE
8
Layer 1
10
171.311329
20
120.350097
11
171.661353
21
120.174789
0
LINE
8
Layer 1
10
171.661353
20
120.174789
11
172.529750
21
120.758287
0
LINE
8
Layer 1
10
172.529750
20
120.758287
11
174.100606
21
122.166640
0
LINE
8
Layer 1
10
174.100606
20
122.166640
11
174.100606
21
122.166640
0
LINE
8
Layer 1
10
109.550942
20
128.462199
11
109.437740
21
129.443970
0
LINE
8
Layer 1
10
109.437740
20
129.443970
11
109.095038
21
130.390493
0
LINE
8
Layer 1
10
109.095038
20
130.390493
11
108.549387
21
131.247860
0
LINE
8
Layer 1
10
108.549387
20
131.247860
11
107.827335
21
131.962161
0
LINE
8
Layer 1
10
107.827335
20
131.962161
11
107.010206
21
132.450673
0
LINE
8
Layer 1
10
107.010206
20
132.450673
11
106.186137
21
132.677752
0
LINE
8
Layer 1
10
106.186137
20
132.677752
11
105.390397
21
132.661275
0
LINE
8
Layer 1
10
105.390397
20
132.661275
11
104.658253
21
132.419120
0
LINE
8
Layer 1
10
104.658253
20
132.419120
11
104.024974
21
131.969162
0
LINE
8
Layer 1
10
104.024974
20
131.969162
11
103.525827
21
131.329279
0
LINE
8
Layer 1
10
103.525827
20
131.329279
11
103.196081
21
130.517347
0
LINE
8
Layer 1
10
103.196081
20
130.517347
11
103.071004
21
129.551244
0
LINE
8
Layer 1
10
103.071004
20
129.551244
11
103.116606
21
128.472090
0
LINE
8
Layer 1
10
103.116606
20
128.472090
11
103.243053
21
128.137538
0
LINE
8
Layer 1
10
103.243053
20
128.137538
11
103.490466
21
127.910471
0
LINE
8
Layer 1
10
103.490466
20
127.910471
11
104.503795
21
127.691197
0
LINE
8
Layer 1
10
104.503795
20
127.691197
11
106.467803
21
127.639078
0
LINE
8
Layer 1
10
106.467803
20
127.639078
11
109.541877
21
127.606515
0
LINE
8
Layer 1
10
109.541877
20
127.606515
11
109.550942
21
128.462199
0
LINE
8
Layer 1
10
109.550942
20
128.462199
11
109.550942
21
128.462199
0
LINE
8
Layer 1
10
89.449007
20
129.865580
11
87.826836
21
138.374696
0
LINE
8
Layer 1
10
87.826836
20
138.374696
11
87.071617
21
141.171662
0
LINE
8
Layer 1
10
87.071617
20
141.171662
11
86.682807
21
141.770588
0
LINE
8
Layer 1
10
86.682807
20
141.770588
11
86.231112
21
141.961021
0
LINE
8
Layer 1
10
86.231112
20
141.961021
11
85.257965
21
140.947467
0
LINE
8
Layer 1
10
85.257965
20
140.947467
11
84.611251
21
139.814053
0
LINE
8
Layer 1
10
84.611251
20
139.814053
11
84.461023
21
138.300186
0
LINE
8
Layer 1
10
84.461023
20
138.300186
11
84.619206
21
136.008537
0
LINE
8
Layer 1
10
84.619206
20
136.008537
11
85.012762
21
133.236425
0
LINE
8
Layer 1
10
85.012762
20
133.236425
11
85.513855
21
130.737083
0
LINE
8
Layer 1
10
85.513855
20
130.737083
11
85.994649
21
129.263744
0
LINE
8
Layer 1
10
85.994649
20
129.263744
11
86.615831
21
129.060229
0
LINE
8
Layer 1
10
86.615831
20
129.060229
11
87.871472
21
128.965015
0
LINE
8
Layer 1
10
87.871472
20
128.965015
11
89.578931
21
128.946930
0
LINE
8
Layer 1
10
89.578931
20
128.946930
11
89.449007
21
129.865580
0
LINE
8
Layer 1
10
89.449007
20
129.865580
11
89.449007
21
129.865580
0
LINE
8
Layer 1
10
68.291902
20
130.416543
11
68.578097
21
131.674753
0
LINE
8
Layer 1
10
68.578097
20
131.674753
11
68.565911
21
133.243072
0
LINE
8
Layer 1
10
68.565911
20
133.243072
11
68.270270
21
133.866358
0
LINE
8
Layer 1
10
68.270270
20
133.866358
11
67.769481
21
134.359364
0
LINE
8
Layer 1
10
67.769481
20
134.359364
11
67.164801
21
134.650285
0
LINE
8
Layer 1
10
67.164801
20
134.650285
11
66.557485
21
134.667317
0
LINE
8
Layer 1
10
66.557485
20
134.667317
11
66.101009
21
134.422144
0
LINE
8
Layer 1
10
66.101009
20
134.422144
11
65.727399
21
133.970631
0
LINE
8
Layer 1
10
65.727399
20
133.970631
11
65.266360
21
132.666985
0
LINE
8
Layer 1
10
65.266360
20
132.666985
11
65.249522
21
131.193173
0
LINE
8
Layer 1
10
65.249522
20
131.193173
11
65.431163
21
130.528953
0
LINE
8
Layer 1
10
65.431163
20
130.528953
11
65.752037
21
129.985990
0
LINE
8
Layer 1
10
65.752037
20
129.985990
11
66.004215
21
129.733718
0
LINE
8
Layer 1
10
66.004215
20
129.733718
11
66.260660
21
129.640372
0
LINE
8
Layer 1
10
66.260660
20
129.640372
11
67.179735
21
129.909330
0
LINE
8
Layer 1
10
67.179735
20
129.909330
11
68.291902
21
130.416543
0
LINE
8
Layer 1
10
68.291902
20
130.416543
11
68.291902
21
130.416543
0
LINE
8
Layer 1
10
73.563793
20
131.242432
11
73.953984
21
131.805434
0
LINE
8
Layer 1
10
73.953984
20
131.805434
11
74.194399
21
132.529479
0
LINE
8
Layer 1
10
74.194399
20
132.529479
11
74.260620
21
134.168856
0
LINE
8
Layer 1
10
74.260620
20
134.168856
11
74.103784
21
134.938268
0
LINE
8
Layer 1
10
74.103784
20
134.938268
11
73.831889
21
135.576880
0
LINE
8
Layer 1
10
73.831889
20
135.576880
11
73.453616
21
136.011733
0
LINE
8
Layer 1
10
73.453616
20
136.011733
11
72.977643
21
136.169866
0
LINE
8
Layer 1
10
72.977643
20
136.169866
11
72.575295
21
136.034091
0
LINE
8
Layer 1
10
72.575295
20
136.034091
11
72.199365
21
135.668763
0
LINE
8
Layer 1
10
72.199365
20
135.668763
11
71.595752
21
134.458550
0
LINE
8
Layer 1
10
71.595752
20
134.458550
11
71.304788
21
132.957436
0
LINE
8
Layer 1
10
71.304788
20
132.957436
11
71.464458
21
131.583630
0
LINE
8
Layer 1
10
71.464458
20
131.583630
11
71.826744
21
131.065847
0
LINE
8
Layer 1
10
71.826744
20
131.065847
11
72.365919
21
130.825249
0
LINE
8
Layer 1
10
72.365919
20
130.825249
11
72.979197
21
130.878542
0
LINE
8
Layer 1
10
72.979197
20
130.878542
11
73.563793
21
131.242432
0
LINE
8
Layer 1
10
73.563793
20
131.242432
11
73.563793
21
131.242432
0
LINE
8
Layer 1
10
89.088682
20
181.751249
11
90.520703
21
182.510377
0
LINE
8
Layer 1
10
90.520703
20
182.510377
11
91.574146
21
183.250377
0
LINE
8
Layer 1
10
91.574146
20
183.250377
11
92.043912
21
183.804478
0
LINE
8
Layer 1
10
92.043912
20
183.804478
11
92.316168
21
184.370066
0
LINE
8
Layer 1
10
92.316168
20
184.370066
11
92.363632
21
184.857303
0
LINE
8
Layer 1
10
92.363632
20
184.857303
11
92.159023
21
185.176349
0
LINE
8
Layer 1
10
92.159023
20
185.176349
11
88.590501
21
185.442485
0
LINE
8
Layer 1
10
88.590501
20
185.442485
11
85.232313
21
185.581702
0
LINE
8
Layer 1
10
85.232313
20
185.581702
11
84.570440
21
184.459761
0
LINE
8
Layer 1
10
84.570440
20
184.459761
11
84.098419
21
183.468572
0
LINE
8
Layer 1
10
84.098419
20
183.468572
11
83.917298
21
182.592507
0
LINE
8
Layer 1
10
83.917298
20
182.592507
11
84.027369
21
181.838291
0
LINE
8
Layer 1
10
84.027369
20
181.838291
11
84.428925
21
181.212645
0
LINE
8
Layer 1
10
84.428925
20
181.212645
11
85.120772
21
180.832884
0
LINE
8
Layer 1
10
85.120772
20
180.832884
11
86.123048
21
180.795490
0
LINE
8
Layer 1
10
86.123048
20
180.795490
11
87.443202
21
181.101325
0
LINE
8
Layer 1
10
87.443202
20
181.101325
11
89.088682
21
181.751249
0
LINE
8
Layer 1
10
89.088682
20
181.751249
11
89.088682
21
181.751249
 0 
ENDSEC
 0 
EOF
