999
\"DXF R12 Output\" (www.mydxf.blogspot.com)
 0 
SECTION
 2 
HEADER
 9 
$ACADVER
 1 
AC1009
 9 
$EXTMIN
 10 
 0 
 20 
 0 
 9 
$EXTMAX
 10 
 8.5 
 20 
 11 
 0 
ENDSEC
 0 
SECTION
 2 
ENTITIES
0
LINE
8
Layer 1
10
60.264063
20
200.064687
11
56.853054
21
199.892310
0
LINE
8
Layer 1
10
56.853054
20
199.892310
11
53.540311
21
199.386382
0
LINE
8
Layer 1
10
53.540311
20
199.386382
11
50.342642
21
198.563708
0
LINE
8
Layer 1
10
50.342642
20
198.563708
11
47.276851
21
197.441096
0
LINE
8
Layer 1
10
47.276851
20
197.441096
11
44.359745
21
196.035351
0
LINE
8
Layer 1
10
44.359745
20
196.035351
11
41.608129
21
194.363279
0
LINE
8
Layer 1
10
41.608129
20
194.363279
11
39.038810
21
192.441686
0
LINE
8
Layer 1
10
39.038810
20
192.441686
11
36.668594
21
190.287379
0
LINE
8
Layer 1
10
36.668594
20
190.287379
11
34.514287
21
187.917162
0
LINE
8
Layer 1
10
34.514287
20
187.917162
11
32.592694
21
185.347843
0
LINE
8
Layer 1
10
32.592694
20
185.347843
11
30.920622
21
182.596228
0
LINE
8
Layer 1
10
30.920622
20
182.596228
11
29.514878
21
179.679122
0
LINE
8
Layer 1
10
29.514878
20
179.679122
11
28.392266
21
176.613331
0
LINE
8
Layer 1
10
28.392266
20
176.613331
11
27.569592
21
173.415661
0
LINE
8
Layer 1
10
27.569592
20
173.415661
11
27.063664
21
170.102919
0
LINE
8
Layer 1
10
27.063664
20
170.102919
11
26.891286
21
166.691911
0
LINE
8
Layer 1
10
26.891286
20
166.691911
11
26.987023
21
164.146818
0
LINE
8
Layer 1
10
26.987023
20
164.146818
11
27.269622
21
161.653655
0
LINE
8
Layer 1
10
27.269622
20
161.653655
11
27.732166
21
159.219332
0
LINE
8
Layer 1
10
27.732166
20
159.219332
11
28.367738
21
156.850756
0
LINE
8
Layer 1
10
28.367738
20
156.850756
11
29.169423
21
154.554835
0
LINE
8
Layer 1
10
29.169423
20
154.554835
11
30.130302
21
152.338480
0
LINE
8
Layer 1
10
30.130302
20
152.338480
11
31.243460
21
150.208596
0
LINE
8
Layer 1
10
31.243460
20
150.208596
11
32.501980
21
148.172094
0
LINE
8
Layer 1
10
32.501980
20
148.172094
11
33.898946
21
146.235881
0
LINE
8
Layer 1
10
33.898946
20
146.235881
11
35.427439
21
144.406866
0
LINE
8
Layer 1
10
35.427439
20
144.406866
11
37.080544
21
142.691958
0
LINE
8
Layer 1
10
37.080544
20
142.691958
11
38.851344
21
141.098063
0
LINE
8
Layer 1
10
38.851344
20
141.098063
11
40.732922
21
139.632092
0
LINE
8
Layer 1
10
40.732922
20
139.632092
11
42.718362
21
138.300952
0
LINE
8
Layer 1
10
42.718362
20
138.300952
11
44.800747
21
137.111552
0
LINE
8
Layer 1
10
44.800747
20
137.111552
11
46.973160
21
136.070800
0
LINE
8
Layer 1
10
46.973160
20
136.070800
11
47.220104
21
135.585731
0
LINE
8
Layer 1
10
47.220104
20
135.585731
11
47.864272
21
133.813499
0
LINE
8
Layer 1
10
47.864272
20
133.813499
11
48.207882
21
131.581703
0
LINE
8
Layer 1
10
48.207882
20
131.581703
11
48.728229
21
126.043092
0
LINE
8
Layer 1
10
48.728229
20
126.043092
11
49.354730
21
117.793585
0
LINE
8
Layer 1
10
49.354730
20
117.793585
11
49.750908
21
109.118687
0
LINE
8
Layer 1
10
49.750908
20
109.118687
11
49.849618
21
102.134863
0
LINE
8
Layer 1
10
49.849618
20
102.134863
11
49.766440
21
99.938499
0
LINE
8
Layer 1
10
49.766440
20
99.938499
11
49.583715
21
98.958578
0
LINE
8
Layer 1
10
49.583715
20
98.958578
11
48.936636
21
98.632035
0
LINE
8
Layer 1
10
48.936636
20
98.632035
11
47.835914
21
98.547551
0
LINE
8
Layer 1
10
47.835914
20
98.547551
11
46.425082
21
98.701653
0
LINE
8
Layer 1
10
46.425082
20
98.701653
11
44.847674
21
99.090869
0
LINE
8
Layer 1
10
44.847674
20
99.090869
11
43.041828
21
99.826930
0
LINE
8
Layer 1
10
43.041828
20
99.826930
11
41.271439
21
100.915692
0
LINE
8
Layer 1
10
41.271439
20
100.915692
11
39.452518
21
102.419369
0
LINE
8
Layer 1
10
39.452518
20
102.419369
11
37.501076
21
104.400175
0
LINE
8
Layer 1
10
37.501076
20
104.400175
11
35.908060
21
106.070219
0
LINE
8
Layer 1
10
35.908060
20
106.070219
11
34.838418
21
106.952634
0
LINE
8
Layer 1
10
34.838418
20
106.952634
11
34.092484
21
107.167361
0
LINE
8
Layer 1
10
34.092484
20
107.167361
11
33.470590
21
106.834342
0
LINE
8
Layer 1
10
33.470590
20
106.834342
11
33.182653
21
106.465634
0
LINE
8
Layer 1
10
33.182653
20
106.465634
11
33.017188
21
105.853536
0
LINE
8
Layer 1
10
33.017188
20
105.853536
11
32.923785
21
102.953786
0
LINE
8
Layer 1
10
32.923785
20
102.953786
11
32.850167
21
100.298339
0
LINE
8
Layer 1
10
32.850167
20
100.298339
11
32.668021
21
98.685175
0
LINE
8
Layer 1
10
32.668021
20
98.685175
11
32.059479
21
96.550869
0
LINE
8
Layer 1
10
32.059479
20
96.550869
11
31.318045
21
94.426181
0
LINE
8
Layer 1
10
31.318045
20
94.426181
11
30.437521
21
92.789859
0
LINE
8
Layer 1
10
30.437521
20
92.789859
11
29.622733
21
91.942635
0
LINE
8
Layer 1
10
29.622733
20
91.942635
11
29.303998
21
91.908915
0
LINE
8
Layer 1
10
29.303998
20
91.908915
11
29.078507
21
92.185244
0
LINE
8
Layer 1
10
29.078507
20
92.185244
11
29.079528
21
94.193299
0
LINE
8
Layer 1
10
29.079528
20
94.193299
11
29.427454
21
97.882747
0
LINE
8
Layer 1
10
29.427454
20
97.882747
11
29.931636
21
101.596377
0
LINE
8
Layer 1
10
29.931636
20
101.596377
11
30.401424
21
103.676981
0
LINE
8
Layer 1
10
30.401424
20
103.676981
11
30.666007
21
105.158647
0
LINE
8
Layer 1
10
30.666007
20
105.158647
11
30.921771
21
106.649133
0
LINE
8
Layer 1
10
30.921771
20
106.649133
11
31.680829
21
108.845727
0
LINE
8
Layer 1
10
31.680829
20
108.845727
11
32.271146
21
111.446911
0
LINE
8
Layer 1
10
32.271146
20
111.446911
11
32.462722
21
112.344031
0
LINE
8
Layer 1
10
32.462722
20
112.344031
11
32.685660
21
112.805106
0
LINE
8
Layer 1
10
32.685660
20
112.805106
11
32.854801
21
113.077603
0
LINE
8
Layer 1
10
32.854801
20
113.077603
11
32.923785
21
113.519481
0
LINE
8
Layer 1
10
32.923785
20
113.519481
11
33.620521
21
116.253508
0
LINE
8
Layer 1
10
33.620521
20
116.253508
11
34.484826
21
119.551981
0
LINE
8
Layer 1
10
34.484826
20
119.551981
11
34.881701
21
121.245314
0
LINE
8
Layer 1
10
34.881701
20
121.245314
11
35.702972
21
123.710494
0
LINE
8
Layer 1
10
35.702972
20
123.710494
11
35.878299
21
125.117050
0
LINE
8
Layer 1
10
35.878299
20
125.117050
11
35.601249
21
125.475374
0
LINE
8
Layer 1
10
35.601249
20
125.475374
11
35.172743
21
125.707953
0
LINE
8
Layer 1
10
35.172743
20
125.707953
11
34.458703
21
125.746507
0
LINE
8
Layer 1
10
34.458703
20
125.746507
11
33.580388
21
125.598607
0
LINE
8
Layer 1
10
33.580388
20
125.598607
11
32.733164
21
125.313556
0
LINE
8
Layer 1
10
32.733164
20
125.313556
11
32.112396
21
124.940661
0
LINE
8
Layer 1
10
32.112396
20
124.940661
11
31.406840
21
124.490869
0
LINE
8
Layer 1
10
31.406840
20
124.490869
11
30.013368
21
123.679481
0
LINE
8
Layer 1
10
30.013368
20
123.679481
11
27.702675
21
122.233092
0
LINE
8
Layer 1
10
27.702675
20
122.233092
11
25.586009
21
121.033647
0
LINE
8
Layer 1
10
25.586009
20
121.033647
11
23.848578
21
119.940036
0
LINE
8
Layer 1
10
23.848578
20
119.940036
11
22.825523
21
119.410869
0
LINE
8
Layer 1
10
22.825523
20
119.410869
11
20.479550
21
118.140869
0
LINE
8
Layer 1
10
20.479550
20
118.140869
11
18.212953
21
116.870869
0
LINE
8
Layer 1
10
18.212953
20
116.870869
11
16.643092
21
118.775869
0
LINE
8
Layer 1
10
16.643092
20
118.775869
11
14.235383
21
122.091981
0
LINE
8
Layer 1
10
14.235383
20
122.091981
11
13.177050
21
123.705939
0
LINE
8
Layer 1
10
13.177050
20
123.705939
11
11.739480
21
126.104828
0
LINE
8
Layer 1
10
11.739480
20
126.104828
11
9.314133
21
130.064758
0
LINE
8
Layer 1
10
9.314133
20
130.064758
11
8.735557
21
131.057007
0
LINE
8
Layer 1
10
8.735557
20
131.057007
11
8.309938
21
131.583717
0
LINE
8
Layer 1
10
8.309938
20
131.583717
11
7.861660
21
131.791920
0
LINE
8
Layer 1
10
7.861660
20
131.791920
11
7.215105
21
131.828647
0
LINE
8
Layer 1
10
7.215105
20
131.828647
11
6.384540
21
131.729466
0
LINE
8
Layer 1
10
6.384540
20
131.729466
11
5.998022
21
131.475869
0
LINE
8
Layer 1
10
5.998022
20
131.475869
11
5.592328
21
129.994203
0
LINE
8
Layer 1
10
5.592328
20
129.994203
11
5.335286
21
128.383204
0
LINE
8
Layer 1
10
5.335286
20
128.383204
11
5.160175
21
126.096008
0
LINE
8
Layer 1
10
5.160175
20
126.096008
11
4.877953
21
123.159133
0
LINE
8
Layer 1
10
4.877953
20
123.159133
11
4.729791
21
122.234551
0
LINE
8
Layer 1
10
4.729791
20
122.234551
11
4.709411
21
120.469608
0
LINE
8
Layer 1
10
4.709411
20
120.469608
11
4.799759
21
118.724306
0
LINE
8
Layer 1
10
4.799759
20
118.724306
11
4.983786
21
117.858647
0
LINE
8
Layer 1
10
4.983786
20
117.858647
11
5.183105
21
117.287228
0
LINE
8
Layer 1
10
5.183105
20
117.287228
11
5.266008
21
116.156494
0
LINE
8
Layer 1
10
5.266008
20
116.156494
11
5.387137
21
114.376336
0
LINE
8
Layer 1
10
5.387137
20
114.376336
11
5.725876
21
112.077030
0
LINE
8
Layer 1
10
5.725876
20
112.077030
11
6.908306
21
106.522556
0
LINE
8
Layer 1
10
6.908306
20
106.522556
11
8.517538
21
100.696232
0
LINE
8
Layer 1
10
8.517538
20
100.696232
11
10.257814
21
95.801217
0
LINE
8
Layer 1
10
10.257814
20
95.801217
11
10.628230
21
94.769342
0
LINE
8
Layer 1
10
10.628230
20
94.769342
11
14.676355
21
85.826425
0
LINE
8
Layer 1
10
14.676355
20
85.826425
11
17.557499
21
80.647843
0
LINE
8
Layer 1
10
17.557499
20
80.647843
11
20.250245
21
76.107397
0
LINE
8
Layer 1
10
20.250245
20
76.107397
11
20.497713
21
75.776650
0
LINE
8
Layer 1
10
20.497713
20
75.776650
11
20.485744
21
75.600049
0
LINE
8
Layer 1
10
20.485744
20
75.600049
11
20.252397
21
75.604362
0
LINE
8
Layer 1
10
20.252397
20
75.604362
11
19.835731
21
75.816356
0
LINE
8
Layer 1
10
19.835731
20
75.816356
11
19.123896
21
76.092838
0
LINE
8
Layer 1
10
19.123896
20
76.092838
11
18.402864
21
76.063407
0
LINE
8
Layer 1
10
18.402864
20
76.063407
11
17.785314
21
75.756110
0
LINE
8
Layer 1
10
17.785314
20
75.756110
11
17.383925
21
75.198994
0
LINE
8
Layer 1
10
17.383925
20
75.198994
11
16.716050
21
73.907571
0
LINE
8
Layer 1
10
16.716050
20
73.907571
11
15.711952
21
72.499261
0
LINE
8
Layer 1
10
15.711952
20
72.499261
11
14.549447
21
71.197276
0
LINE
8
Layer 1
10
14.549447
20
71.197276
11
13.406355
21
70.224828
0
LINE
8
Layer 1
10
13.406355
20
70.224828
11
12.190719
21
69.514823
0
LINE
8
Layer 1
10
12.190719
20
69.514823
11
10.923620
21
69.016892
0
LINE
8
Layer 1
10
10.923620
20
69.016892
11
9.574972
21
68.721644
0
LINE
8
Layer 1
10
9.574972
20
68.721644
11
8.114689
21
68.619689
0
LINE
8
Layer 1
10
8.114689
20
68.619689
11
7.327575
21
68.539498
0
LINE
8
Layer 1
10
7.327575
20
68.539498
11
6.694831
21
68.322833
0
LINE
8
Layer 1
10
6.694831
20
68.322833
11
6.226047
21
67.991273
0
LINE
8
Layer 1
10
6.226047
20
67.991273
11
5.930810
21
67.566397
0
LINE
8
Layer 1
10
5.930810
20
67.566397
11
5.818710
21
67.069785
0
LINE
8
Layer 1
10
5.818710
20
67.069785
11
5.899335
21
66.523014
0
LINE
8
Layer 1
10
5.899335
20
66.523014
11
6.182275
21
65.947664
0
LINE
8
Layer 1
10
6.182275
20
65.947664
11
6.677119
21
65.365314
0
LINE
8
Layer 1
10
6.677119
20
65.365314
11
7.523786
21
64.306981
0
LINE
8
Layer 1
10
7.523786
20
64.306981
11
8.335175
21
63.019342
0
LINE
8
Layer 1
10
8.335175
20
63.019342
11
9.009933
21
61.993963
0
LINE
8
Layer 1
10
9.009933
20
61.993963
11
9.499341
21
60.990869
0
LINE
8
Layer 1
10
9.499341
20
60.990869
11
10.284272
21
59.032953
0
LINE
8
Layer 1
10
10.284272
20
59.032953
11
10.617888
21
57.534266
0
LINE
8
Layer 1
10
10.617888
20
57.534266
11
10.769341
21
55.020106
0
LINE
8
Layer 1
10
10.769341
20
55.020106
11
10.909268
21
52.652962
0
LINE
8
Layer 1
10
10.909268
20
52.652962
11
11.192675
21
51.545244
0
LINE
8
Layer 1
10
11.192675
20
51.545244
11
11.846667
21
51.219866
0
LINE
8
Layer 1
10
11.846667
20
51.219866
11
13.115314
21
51.113092
0
LINE
8
Layer 1
10
13.115314
20
51.113092
11
14.417813
21
51.034498
0
LINE
8
Layer 1
10
14.417813
20
51.034498
11
15.594896
21
50.777832
0
LINE
8
Layer 1
10
15.594896
20
50.777832
11
16.744861
21
50.311764
0
LINE
8
Layer 1
10
16.744861
20
50.311764
11
17.966009
21
49.604967
0
LINE
8
Layer 1
10
17.966009
20
49.604967
11
19.792747
21
48.211184
0
LINE
8
Layer 1
10
19.792747
20
48.211184
11
21.322307
21
46.660152
0
LINE
8
Layer 1
10
21.322307
20
46.660152
11
22.373162
21
45.166006
0
LINE
8
Layer 1
10
22.373162
20
45.166006
11
22.662348
21
44.507183
0
LINE
8
Layer 1
10
22.662348
20
44.507183
11
22.763786
21
43.942883
0
LINE
8
Layer 1
10
22.763786
20
43.942883
11
22.940880
21
43.461241
0
LINE
8
Layer 1
10
22.940880
20
43.461241
11
23.485184
21
43.188911
0
LINE
8
Layer 1
10
23.485184
20
43.188911
11
24.416238
21
43.121587
0
LINE
8
Layer 1
10
24.416238
20
43.121587
11
25.753578
21
43.254967
0
LINE
8
Layer 1
10
25.753578
20
43.254967
11
30.136123
21
43.604194
0
LINE
8
Layer 1
10
30.136123
20
43.604194
11
32.061179
21
43.558138
0
LINE
8
Layer 1
10
32.061179
20
43.558138
11
33.479410
21
43.360800
0
LINE
8
Layer 1
10
33.479410
20
43.360800
11
34.576462
21
42.910935
0
LINE
8
Layer 1
10
34.576462
20
42.910935
11
35.252118
21
42.108439
0
LINE
8
Layer 1
10
35.252118
20
42.108439
11
35.562952
21
41.341834
0
LINE
8
Layer 1
10
35.562952
20
41.341834
11
35.586924
21
40.690542
0
LINE
8
Layer 1
10
35.586924
20
40.690542
11
35.328841
21
40.179344
0
LINE
8
Layer 1
10
35.328841
20
40.179344
11
34.793507
21
39.833022
0
LINE
8
Layer 1
10
34.793507
20
39.833022
11
33.108879
21
39.443869
0
LINE
8
Layer 1
10
33.108879
20
39.443869
11
31.091176
21
39.377189
0
LINE
8
Layer 1
10
31.091176
20
39.377189
11
28.929241
21
39.624415
0
LINE
8
Layer 1
10
28.929241
20
39.624415
11
26.811911
21
40.176981
0
LINE
8
Layer 1
10
26.811911
20
40.176981
11
25.921836
21
40.309585
0
LINE
8
Layer 1
10
25.921836
20
40.309585
11
25.197253
21
40.023549
0
LINE
8
Layer 1
10
25.197253
20
40.023549
11
24.622950
21
39.307111
0
LINE
8
Layer 1
10
24.622950
20
39.307111
11
24.183717
21
38.148508
0
LINE
8
Layer 1
10
24.183717
20
38.148508
11
23.557536
21
36.543369
0
LINE
8
Layer 1
10
23.557536
20
36.543369
11
23.328231
21
36.005383
0
LINE
8
Layer 1
10
23.328231
20
36.005383
11
22.936925
21
35.126307
0
LINE
8
Layer 1
10
22.936925
20
35.126307
11
21.967249
21
33.876868
0
LINE
8
Layer 1
10
21.967249
20
33.876868
11
20.725564
21
32.606894
0
LINE
8
Layer 1
10
20.725564
20
32.606894
11
19.518231
21
31.666217
0
LINE
8
Layer 1
10
19.518231
20
31.666217
11
18.291546
21
31.070600
0
LINE
8
Layer 1
10
18.291546
20
31.070600
11
16.844974
21
30.618469
0
LINE
8
Layer 1
10
16.844974
20
30.618469
11
15.259979
21
30.330819
0
LINE
8
Layer 1
10
15.259979
20
30.330819
11
13.618022
21
30.228647
0
LINE
8
Layer 1
10
13.618022
20
30.228647
11
12.530196
21
30.101279
0
LINE
8
Layer 1
10
12.530196
20
30.101279
11
11.877159
21
29.620512
0
LINE
8
Layer 1
10
11.877159
20
29.620512
11
11.558773
21
28.632424
0
LINE
8
Layer 1
10
11.558773
20
28.632424
11
11.474897
21
26.983092
0
LINE
8
Layer 1
10
11.474897
20
26.983092
11
11.402888
21
25.109338
0
LINE
8
Layer 1
10
11.402888
20
25.109338
11
11.227953
21
23.852189
0
LINE
8
Layer 1
10
11.227953
20
23.852189
11
10.654689
21
21.056425
0
LINE
8
Layer 1
10
10.654689
20
21.056425
11
10.026967
21
17.905750
0
LINE
8
Layer 1
10
10.026967
20
17.905750
11
9.499341
21
16.258647
0
LINE
8
Layer 1
10
9.499341
20
16.258647
11
8.396911
21
13.013092
0
LINE
8
Layer 1
10
8.396911
20
13.013092
11
6.941703
21
8.479897
0
LINE
8
Layer 1
10
6.941703
20
8.479897
11
6.568695
21
7.274313
0
LINE
8
Layer 1
10
6.568695
20
7.274313
11
6.428985
21
6.418042
0
LINE
8
Layer 1
10
6.428985
20
6.418042
11
6.519174
21
5.765875
0
LINE
8
Layer 1
10
6.519174
20
5.765875
11
6.835869
21
5.172606
0
LINE
8
Layer 1
10
6.835869
20
5.172606
11
7.479689
21
4.546425
0
LINE
8
Layer 1
10
7.479689
20
4.546425
11
9.287675
21
5.745869
0
LINE
8
Layer 1
10
9.287675
20
5.745869
11
11.040326
21
6.889649
0
LINE
8
Layer 1
10
11.040326
20
6.889649
11
12.789365
21
7.668110
0
LINE
8
Layer 1
10
12.789365
20
7.668110
11
14.652873
21
8.120450
0
LINE
8
Layer 1
10
14.652873
20
8.120450
11
16.748925
21
8.285869
0
LINE
8
Layer 1
10
16.748925
20
8.285869
11
19.038887
21
8.213252
0
LINE
8
Layer 1
10
19.038887
20
8.213252
11
20.780975
21
7.862983
0
LINE
8
Layer 1
10
20.780975
20
7.862983
11
22.206986
21
7.159713
0
LINE
8
Layer 1
10
22.206986
20
7.159713
11
23.548717
21
6.028092
0
LINE
8
Layer 1
10
23.548717
20
6.028092
11
24.685627
21
4.981661
0
LINE
8
Layer 1
10
24.685627
20
4.981661
11
25.330245
21
4.546425
0
LINE
8
Layer 1
10
25.330245
20
4.546425
11
25.863181
21
4.671999
0
LINE
8
Layer 1
10
25.863181
20
4.671999
11
26.393645
21
5.042245
0
LINE
8
Layer 1
10
26.393645
20
5.042245
11
26.910551
21
5.647445
0
LINE
8
Layer 1
10
26.910551
20
5.647445
11
27.402814
21
6.477883
0
LINE
8
Layer 1
10
27.402814
20
6.477883
11
28.352590
21
8.060571
0
LINE
8
Layer 1
10
28.352590
20
8.060571
11
29.502612
21
9.534863
0
LINE
8
Layer 1
10
29.502612
20
9.534863
11
30.709576
21
10.737437
0
LINE
8
Layer 1
10
30.709576
20
10.737437
11
31.830174
21
11.504967
0
LINE
8
Layer 1
10
31.830174
20
11.504967
11
33.676389
21
12.255532
0
LINE
8
Layer 1
10
33.676389
20
12.255532
11
35.410470
21
12.624175
0
LINE
8
Layer 1
10
35.410470
20
12.624175
11
37.237354
21
12.631652
0
LINE
8
Layer 1
10
37.237354
20
12.631652
11
39.361979
21
12.298717
0
LINE
8
Layer 1
10
39.361979
20
12.298717
11
40.169131
21
12.283001
0
LINE
8
Layer 1
10
40.169131
20
12.283001
11
40.811951
21
12.575969
0
LINE
8
Layer 1
10
40.811951
20
12.575969
11
41.236904
21
13.133801
0
LINE
8
Layer 1
10
41.236904
20
13.133801
11
41.390451
21
13.912675
0
LINE
8
Layer 1
10
41.390451
20
13.912675
11
41.646215
21
15.209133
0
LINE
8
Layer 1
10
41.646215
20
15.209133
11
42.281215
21
16.523231
0
LINE
8
Layer 1
10
42.281215
20
16.523231
11
42.503995
21
16.966293
0
LINE
8
Layer 1
10
42.503995
20
16.966293
11
42.632213
21
17.017588
0
LINE
8
Layer 1
10
42.632213
20
17.017588
11
42.801563
21
15.623647
0
LINE
8
Layer 1
10
42.801563
20
15.623647
11
43.154340
21
13.701008
0
LINE
8
Layer 1
10
43.154340
20
13.701008
11
43.911044
21
13.523872
0
LINE
8
Layer 1
10
43.911044
20
13.523872
11
45.438576
21
13.392328
0
LINE
8
Layer 1
10
45.438576
20
13.392328
11
49.381626
21
12.960984
0
LINE
8
Layer 1
10
49.381626
20
12.960984
11
52.794321
21
12.064287
0
LINE
8
Layer 1
10
52.794321
20
12.064287
11
54.292459
21
11.444338
0
LINE
8
Layer 1
10
54.292459
20
11.444338
11
55.646817
21
10.711541
0
LINE
8
Layer 1
10
55.646817
20
10.711541
11
56.853664
21
9.867057
0
LINE
8
Layer 1
10
56.853664
20
9.867057
11
57.909271
21
8.912050
0
LINE
8
Layer 1
10
57.909271
20
8.912050
11
59.024096
21
7.642545
0
LINE
8
Layer 1
10
59.024096
20
7.642545
11
59.726076
21
6.636633
0
LINE
8
Layer 1
10
59.726076
20
6.636633
11
60.674735
21
5.382597
0
LINE
8
Layer 1
10
60.674735
20
5.382597
11
61.211595
21
4.988184
0
LINE
8
Layer 1
10
61.211595
20
4.988184
11
61.692813
21
4.837467
0
LINE
8
Layer 1
10
61.692813
20
4.837467
11
62.215983
21
4.987040
0
LINE
8
Layer 1
10
62.215983
20
4.987040
11
62.676569
21
5.394569
0
LINE
8
Layer 1
10
62.676569
20
5.394569
11
63.004669
21
5.973339
0
LINE
8
Layer 1
10
63.004669
20
5.973339
11
63.130382
21
6.636633
0
LINE
8
Layer 1
10
63.130382
20
6.636633
11
63.380111
21
8.381937
0
LINE
8
Layer 1
10
63.380111
20
8.381937
11
64.055942
21
10.386864
0
LINE
8
Layer 1
10
64.055942
20
10.386864
11
65.056129
21
12.404036
0
LINE
8
Layer 1
10
65.056129
20
12.404036
11
66.278924
21
14.186078
0
LINE
8
Layer 1
10
66.278924
20
14.186078
11
66.963338
21
15.117706
0
LINE
8
Layer 1
10
66.963338
20
15.117706
11
67.286461
21
15.873559
0
LINE
8
Layer 1
10
67.286461
20
15.873559
11
67.275589
21
16.586035
0
LINE
8
Layer 1
10
67.275589
20
16.586035
11
66.958021
21
17.387536
0
LINE
8
Layer 1
10
66.958021
20
17.387536
11
66.650254
21
18.188785
0
LINE
8
Layer 1
10
66.650254
20
18.188785
11
66.457199
21
19.134777
0
LINE
8
Layer 1
10
66.457199
20
19.134777
11
66.396314
21
21.196200
0
LINE
8
Layer 1
10
66.396314
20
21.196200
11
66.737550
21
23.042215
0
LINE
8
Layer 1
10
66.737550
20
23.042215
11
67.047146
21
23.718947
0
LINE
8
Layer 1
10
67.047146
20
23.718947
11
67.443090
21
24.143231
0
LINE
8
Layer 1
10
67.443090
20
24.143231
11
67.964011
21
24.175634
0
LINE
8
Layer 1
10
67.964011
20
24.175634
11
68.580964
21
23.780682
0
LINE
8
Layer 1
10
68.580964
20
23.780682
11
69.226954
21
23.072772
0
LINE
8
Layer 1
10
69.226954
20
23.072772
11
69.834982
21
22.166300
0
LINE
8
Layer 1
10
69.834982
20
22.166300
11
70.338051
21
21.175665
0
LINE
8
Layer 1
10
70.338051
20
21.175665
11
70.669164
21
20.215262
0
LINE
8
Layer 1
10
70.669164
20
20.215262
11
70.761325
21
19.399490
0
LINE
8
Layer 1
10
70.761325
20
19.399490
11
70.547535
21
18.842744
0
LINE
8
Layer 1
10
70.547535
20
18.842744
11
70.195380
21
18.219108
0
LINE
8
Layer 1
10
70.195380
20
18.219108
11
69.901070
21
17.194514
0
LINE
8
Layer 1
10
69.901070
20
17.194514
11
69.621493
21
14.582953
0
LINE
8
Layer 1
10
69.621493
20
14.582953
11
69.790918
21
12.333400
0
LINE
8
Layer 1
10
69.790918
20
12.333400
11
70.512257
21
9.908647
0
LINE
8
Layer 1
10
70.512257
20
9.908647
11
70.946293
21
9.088569
0
LINE
8
Layer 1
10
70.946293
20
9.088569
11
71.635989
21
8.232785
0
LINE
8
Layer 1
10
71.635989
20
8.232785
11
73.532032
21
6.591900
0
LINE
8
Layer 1
10
73.532032
20
6.591900
11
75.699715
21
5.341593
0
LINE
8
Layer 1
10
75.699715
20
5.341593
11
76.728962
21
4.974033
0
LINE
8
Layer 1
10
76.728962
20
4.974033
11
77.638368
21
4.837467
0
LINE
8
Layer 1
10
77.638368
20
4.837467
11
79.085750
21
5.121643
0
LINE
8
Layer 1
10
79.085750
20
5.121643
11
80.689896
21
5.710592
0
LINE
8
Layer 1
10
80.689896
20
5.710592
11
81.589479
21
5.957536
0
LINE
8
Layer 1
10
81.589479
20
5.957536
11
82.398286
21
6.537852
0
LINE
8
Layer 1
10
82.398286
20
6.537852
11
83.767882
21
7.933092
0
LINE
8
Layer 1
10
83.767882
20
7.933092
11
85.275555
21
9.441568
0
LINE
8
Layer 1
10
85.275555
20
9.441568
11
85.798976
21
9.795226
0
LINE
8
Layer 1
10
85.798976
20
9.795226
11
86.202049
21
9.908647
0
LINE
8
Layer 1
10
86.202049
20
9.908647
11
86.818199
21
9.691373
0
LINE
8
Layer 1
10
86.818199
20
9.691373
11
87.517101
21
9.116847
0
LINE
8
Layer 1
10
87.517101
20
9.116847
11
88.184658
21
8.301017
0
LINE
8
Layer 1
10
88.184658
20
8.301017
11
88.706771
21
7.359828
0
LINE
8
Layer 1
10
88.706771
20
7.359828
11
89.134759
21
6.717587
0
LINE
8
Layer 1
10
89.134759
20
6.717587
11
89.793477
21
6.078735
0
LINE
8
Layer 1
10
89.793477
20
6.078735
11
90.506359
21
5.588745
0
LINE
8
Layer 1
10
90.506359
20
5.588745
11
91.096840
21
5.393092
0
LINE
8
Layer 1
10
91.096840
20
5.393092
11
93.169410
21
6.213300
0
LINE
8
Layer 1
10
93.169410
20
6.213300
11
95.555699
21
7.262192
0
LINE
8
Layer 1
10
95.555699
20
7.262192
11
97.663449
21
7.905607
0
LINE
8
Layer 1
10
97.663449
20
7.905607
11
99.870152
21
8.227626
0
LINE
8
Layer 1
10
99.870152
20
8.227626
11
102.553299
21
8.312328
0
LINE
8
Layer 1
10
102.553299
20
8.312328
11
105.292656
21
8.227482
0
LINE
8
Layer 1
10
105.292656
20
8.227482
11
106.645521
21
8.030106
0
LINE
8
Layer 1
10
106.645521
20
8.030106
11
107.994896
21
7.377467
0
LINE
8
Layer 1
10
107.994896
20
7.377467
11
109.134061
21
6.786884
0
LINE
8
Layer 1
10
109.134061
20
6.786884
11
110.481979
21
5.895800
0
LINE
8
Layer 1
10
110.481979
20
5.895800
11
111.678516
21
5.142431
0
LINE
8
Layer 1
10
111.678516
20
5.142431
11
112.457535
21
4.881564
0
LINE
8
Layer 1
10
112.457535
20
4.881564
11
112.816285
21
5.175999
0
LINE
8
Layer 1
10
112.816285
20
5.175999
11
113.022158
21
5.754262
0
LINE
8
Layer 1
10
113.022158
20
5.754262
11
113.036119
21
6.398885
0
LINE
8
Layer 1
10
113.036119
20
6.398885
11
112.819132
21
6.892397
0
LINE
8
Layer 1
10
112.819132
20
6.892397
11
112.599684
21
7.350182
0
LINE
8
Layer 1
10
112.599684
20
7.350182
11
112.522042
21
7.980862
0
LINE
8
Layer 1
10
112.522042
20
7.980862
11
112.588535
21
8.539150
0
LINE
8
Layer 1
10
112.588535
20
8.539150
11
112.801493
21
8.779758
0
LINE
8
Layer 1
10
112.801493
20
8.779758
11
114.944618
21
7.650869
0
LINE
8
Layer 1
10
114.944618
20
7.650869
11
116.410768
21
6.853589
0
LINE
8
Layer 1
10
116.410768
20
6.853589
11
117.325868
21
6.521981
0
LINE
8
Layer 1
10
117.325868
20
6.521981
11
118.498854
21
6.275036
0
LINE
8
Layer 1
10
118.498854
20
6.275036
11
120.985727
21
5.558186
0
LINE
8
Layer 1
10
120.985727
20
5.558186
11
124.363785
21
5.207883
0
LINE
8
Layer 1
10
124.363785
20
5.207883
11
138.176496
21
5.332668
0
LINE
8
Layer 1
10
138.176496
20
5.332668
11
151.977061
21
5.746087
0
LINE
8
Layer 1
10
151.977061
20
5.746087
11
165.782239
21
6.113096
0
LINE
8
Layer 1
10
165.782239
20
6.113096
11
172.691793
21
6.174494
0
LINE
8
Layer 1
10
172.691793
20
6.174494
11
179.608785
21
6.098647
0
LINE
8
Layer 1
10
179.608785
20
6.098647
11
185.910965
21
6.000871
0
LINE
8
Layer 1
10
185.910965
20
6.000871
11
187.119009
21
6.113306
0
LINE
8
Layer 1
10
187.119009
20
6.113306
11
187.722674
21
6.354411
0
LINE
8
Layer 1
10
187.722674
20
6.354411
11
188.331990
21
6.974037
0
LINE
8
Layer 1
10
188.331990
20
6.974037
11
188.374540
21
7.344512
0
LINE
8
Layer 1
10
188.374540
20
7.344512
11
188.219466
21
7.800091
0
LINE
8
Layer 1
10
188.219466
20
7.800091
11
187.247800
21
9.100545
0
LINE
8
Layer 1
10
187.247800
20
9.100545
11
185.279688
21
11.143369
0
LINE
8
Layer 1
10
185.279688
20
11.143369
11
180.026012
21
16.579932
0
LINE
8
Layer 1
10
180.026012
20
16.579932
11
178.893499
21
17.993263
0
LINE
8
Layer 1
10
178.893499
20
17.993263
11
178.550451
21
18.772189
0
LINE
8
Layer 1
10
178.550451
20
18.772189
11
178.656519
21
19.141094
0
LINE
8
Layer 1
10
178.656519
20
19.141094
11
178.980290
21
19.605794
0
LINE
8
Layer 1
10
178.980290
20
19.605794
11
180.314340
21
20.862397
0
LINE
8
Layer 1
10
180.314340
20
20.862397
11
184.336007
21
24.284342
0
LINE
8
Layer 1
10
184.336007
20
24.284342
11
186.876007
21
26.268717
0
LINE
8
Layer 1
10
186.876007
20
26.268717
11
188.569340
21
27.406425
0
LINE
8
Layer 1
10
188.569340
20
27.406425
11
190.280313
21
28.535314
0
LINE
8
Layer 1
10
190.280313
20
28.535314
11
190.857412
21
28.873805
0
LINE
8
Layer 1
10
190.857412
20
28.873805
11
191.657314
21
29.670834
0
LINE
8
Layer 1
10
191.657314
20
29.670834
11
192.399306
21
30.610068
0
LINE
8
Layer 1
10
192.399306
20
30.610068
11
192.802674
21
31.375175
0
LINE
8
Layer 1
10
192.802674
20
31.375175
11
192.805844
21
32.049029
0
LINE
8
Layer 1
10
192.805844
20
32.049029
11
192.396979
21
32.618717
0
LINE
8
Layer 1
10
192.396979
20
32.618717
11
192.041171
21
32.890328
0
LINE
8
Layer 1
10
192.041171
20
32.890328
11
191.667574
21
33.004975
0
LINE
8
Layer 1
10
191.667574
20
33.004975
11
190.333229
21
32.812744
0
LINE
8
Layer 1
10
190.333229
20
32.812744
11
187.255924
21
32.534407
0
LINE
8
Layer 1
10
187.255924
20
32.534407
11
181.937118
21
32.336494
0
LINE
8
Layer 1
10
181.937118
20
32.336494
11
175.387580
21
32.346725
0
LINE
8
Layer 1
10
175.387580
20
32.346725
11
168.685719
21
32.056938
0
LINE
8
Layer 1
10
168.685719
20
32.056938
11
155.042742
21
31.040468
0
LINE
8
Layer 1
10
155.042742
20
31.040468
11
148.210479
21
30.545365
0
LINE
8
Layer 1
10
148.210479
20
30.545365
11
141.443602
21
30.213401
0
LINE
8
Layer 1
10
141.443602
20
30.213401
11
134.796539
21
30.160366
0
LINE
8
Layer 1
10
134.796539
20
30.160366
11
128.323715
21
30.502050
0
LINE
8
Layer 1
10
128.323715
20
30.502050
11
123.782279
21
31.710709
0
LINE
8
Layer 1
10
123.782279
20
31.710709
11
122.033998
21
32.359043
0
LINE
8
Layer 1
10
122.033998
20
32.359043
11
120.800729
21
32.980314
0
LINE
8
Layer 1
10
120.800729
20
32.980314
11
120.146090
21
33.592163
0
LINE
8
Layer 1
10
120.146090
20
33.592163
11
119.424896
21
34.523717
0
LINE
8
Layer 1
10
119.424896
20
34.523717
11
118.922523
21
35.465967
0
LINE
8
Layer 1
10
118.922523
20
35.465967
11
118.675509
21
36.907743
0
LINE
8
Layer 1
10
118.675509
20
36.907743
11
118.710521
21
44.763092
0
LINE
8
Layer 1
10
118.710521
20
44.763092
11
118.816354
21
49.560869
0
LINE
8
Layer 1
10
118.816354
20
49.560869
11
117.863854
21
51.536425
0
LINE
8
Layer 1
10
117.863854
20
51.536425
11
116.950341
21
53.180027
0
LINE
8
Layer 1
10
116.950341
20
53.180027
11
115.770412
21
54.971748
0
LINE
8
Layer 1
10
115.770412
20
54.971748
11
114.552412
21
56.587005
0
LINE
8
Layer 1
10
114.552412
20
56.587005
11
113.524688
21
57.701217
0
LINE
8
Layer 1
10
113.524688
20
57.701217
11
112.165812
21
58.788762
0
LINE
8
Layer 1
10
112.165812
20
58.788762
11
110.577001
21
59.855104
0
LINE
8
Layer 1
10
110.577001
20
59.855104
11
106.645521
21
61.969828
0
LINE
8
Layer 1
10
106.645521
20
61.969828
11
102.887465
21
63.844175
0
LINE
8
Layer 1
10
102.887465
20
63.844175
11
102.241020
21
64.395843
0
LINE
8
Layer 1
10
102.241020
20
64.395843
11
101.680174
21
65.162467
0
LINE
8
Layer 1
10
101.680174
20
65.162467
11
100.988201
21
66.414796
0
LINE
8
Layer 1
10
100.988201
20
66.414796
11
100.555058
21
68.172777
0
LINE
8
Layer 1
10
100.555058
20
68.172777
11
100.287598
21
71.051593
0
LINE
8
Layer 1
10
100.287598
20
71.051593
11
100.092674
21
75.666425
0
LINE
8
Layer 1
10
100.092674
20
75.666425
11
99.660521
21
85.438369
0
LINE
8
Layer 1
10
99.660521
20
85.438369
11
99.457674
21
88.586911
0
LINE
8
Layer 1
10
99.457674
20
88.586911
11
100.233785
21
88.966147
0
LINE
8
Layer 1
10
100.233785
20
88.966147
11
100.979122
21
89.595088
0
LINE
8
Layer 1
10
100.979122
20
89.595088
11
101.680174
21
90.562467
0
LINE
8
Layer 1
10
101.680174
20
90.562467
11
102.051705
21
91.343990
0
LINE
8
Layer 1
10
102.051705
20
91.343990
11
102.252468
21
92.290956
0
LINE
8
Layer 1
10
102.252468
20
92.290956
11
102.350451
21
96.533231
0
LINE
8
Layer 1
10
102.350451
20
96.533231
11
102.448028
21
100.738812
0
LINE
8
Layer 1
10
102.448028
20
100.738812
11
102.636338
21
101.702666
0
LINE
8
Layer 1
10
102.636338
20
101.702666
11
102.976632
21
102.468717
0
LINE
8
Layer 1
10
102.976632
20
102.468717
11
103.370474
21
103.596606
0
LINE
8
Layer 1
10
103.370474
20
103.596606
11
103.733949
21
104.061921
0
LINE
8
Layer 1
10
103.733949
20
104.061921
11
104.608229
21
104.585383
0
LINE
8
Layer 1
10
104.608229
20
104.585383
11
107.271632
21
106.145632
0
LINE
8
Layer 1
10
107.271632
20
106.145632
11
109.681172
21
107.812799
0
LINE
8
Layer 1
10
109.681172
20
107.812799
11
111.842210
21
109.589132
0
LINE
8
Layer 1
10
111.842210
20
109.589132
11
113.760102
21
111.476879
0
LINE
8
Layer 1
10
113.760102
20
111.476879
11
115.440209
21
113.478289
0
LINE
8
Layer 1
10
115.440209
20
113.478289
11
116.887887
21
115.595610
0
LINE
8
Layer 1
10
116.887887
20
115.595610
11
118.108497
21
117.831091
0
LINE
8
Layer 1
10
118.108497
20
117.831091
11
119.107396
21
120.186981
0
LINE
8
Layer 1
10
119.107396
20
120.186981
11
119.125035
21
120.213439
0
LINE
8
Layer 1
10
119.125035
20
120.213439
11
119.915239
21
122.231544
0
LINE
8
Layer 1
10
119.915239
20
122.231544
11
120.529417
21
124.290838
0
LINE
8
Layer 1
10
120.529417
20
124.290838
11
120.968883
21
126.380222
0
LINE
8
Layer 1
10
120.968883
20
126.380222
11
121.234952
21
128.488600
0
LINE
8
Layer 1
10
121.234952
20
128.488600
11
121.328941
21
130.604876
0
LINE
8
Layer 1
10
121.328941
20
130.604876
11
121.252163
21
132.717952
0
LINE
8
Layer 1
10
121.252163
20
132.717952
11
121.005934
21
134.816731
0
LINE
8
Layer 1
10
121.005934
20
134.816731
11
120.591569
21
136.890118
0
LINE
8
Layer 1
10
120.591569
20
136.890118
11
120.010383
21
138.927014
0
LINE
8
Layer 1
10
120.010383
20
138.927014
11
119.263691
21
140.916323
0
LINE
8
Layer 1
10
119.263691
20
140.916323
11
118.352809
21
142.846948
0
LINE
8
Layer 1
10
118.352809
20
142.846948
11
117.279051
21
144.707792
0
LINE
8
Layer 1
10
117.279051
20
144.707792
11
116.043732
21
146.487759
0
LINE
8
Layer 1
10
116.043732
20
146.487759
11
114.648167
21
148.175751
0
LINE
8
Layer 1
10
114.648167
20
148.175751
11
113.093673
21
149.760672
0
LINE
8
Layer 1
10
113.093673
20
149.760672
11
111.381563
21
151.231425
0
LINE
8
Layer 1
10
111.381563
20
151.231425
11
109.282752
21
152.701401
0
LINE
8
Layer 1
10
109.282752
20
152.701401
11
107.102739
21
154.021319
0
LINE
8
Layer 1
10
107.102739
20
154.021319
11
104.849177
21
155.194961
0
LINE
8
Layer 1
10
104.849177
20
155.194961
11
102.529722
21
156.226107
0
LINE
8
Layer 1
10
102.529722
20
156.226107
11
97.723754
21
157.876036
0
LINE
8
Layer 1
10
97.723754
20
157.876036
11
92.746076
21
159.001356
0
LINE
8
Layer 1
10
92.746076
20
159.001356
11
93.414723
21
162.780081
0
LINE
8
Layer 1
10
93.414723
20
162.780081
11
93.645660
21
166.691911
0
LINE
8
Layer 1
10
93.645660
20
166.691911
11
93.473183
21
170.102919
0
LINE
8
Layer 1
10
93.473183
20
170.102919
11
92.966974
21
173.415661
0
LINE
8
Layer 1
10
92.966974
20
173.415661
11
92.143865
21
176.613330
0
LINE
8
Layer 1
10
92.143865
20
176.613330
11
91.020689
21
179.679120
0
LINE
8
Layer 1
10
91.020689
20
179.679120
11
89.614276
21
182.596226
0
LINE
8
Layer 1
10
89.614276
20
182.596226
11
87.941459
21
185.347842
0
LINE
8
Layer 1
10
87.941459
20
185.347842
11
86.019070
21
187.917161
0
LINE
8
Layer 1
10
86.019070
20
187.917161
11
83.863940
21
190.287377
0
LINE
8
Layer 1
10
83.863940
20
190.287377
11
81.492901
21
192.441685
0
LINE
8
Layer 1
10
81.492901
20
192.441685
11
78.922785
21
194.363278
0
LINE
8
Layer 1
10
78.922785
20
194.363278
11
76.170425
21
196.035350
0
LINE
8
Layer 1
10
76.170425
20
196.035350
11
73.252651
21
197.441095
0
LINE
8
Layer 1
10
73.252651
20
197.441095
11
70.186296
21
198.563708
0
LINE
8
Layer 1
10
70.186296
20
198.563708
11
66.988192
21
199.386381
0
LINE
8
Layer 1
10
66.988192
20
199.386381
11
63.675170
21
199.892310
0
LINE
8
Layer 1
10
63.675170
20
199.892310
11
60.264063
21
200.064687
0
LINE
8
Layer 1
10
60.264063
20
200.064687
11
60.264063
21
200.064687
0
LINE
8
Layer 1
10
60.264063
20
195.840174
11
63.243526
21
195.689626
0
LINE
8
Layer 1
10
63.243526
20
195.689626
11
66.137307
21
195.247767
0
LINE
8
Layer 1
10
66.137307
20
195.247767
11
68.930704
21
194.529270
0
LINE
8
Layer 1
10
68.930704
20
194.529270
11
71.609017
21
193.548812
0
LINE
8
Layer 1
10
71.609017
20
193.548812
11
74.157546
21
192.321066
0
LINE
8
Layer 1
10
74.157546
20
192.321066
11
76.561588
21
190.860708
0
LINE
8
Layer 1
10
76.561588
20
190.860708
11
78.806444
21
189.182412
0
LINE
8
Layer 1
10
78.806444
20
189.182412
11
80.877414
21
187.300854
0
LINE
8
Layer 1
10
80.877414
20
187.300854
11
82.759795
21
185.230707
0
LINE
8
Layer 1
10
82.759795
20
185.230707
11
84.438888
21
182.986648
0
LINE
8
Layer 1
10
84.438888
20
182.986648
11
85.899991
21
180.583350
0
LINE
8
Layer 1
10
85.899991
20
180.583350
11
87.128405
21
178.035490
0
LINE
8
Layer 1
10
87.128405
20
178.035490
11
88.109428
21
175.357741
0
LINE
8
Layer 1
10
88.109428
20
175.357741
11
88.828360
21
172.564778
0
LINE
8
Layer 1
10
88.828360
20
172.564778
11
89.270499
21
169.671276
0
LINE
8
Layer 1
10
89.270499
20
169.671276
11
89.421146
21
166.691911
0
LINE
8
Layer 1
10
89.421146
20
166.691911
11
89.334510
21
164.430030
0
LINE
8
Layer 1
10
89.334510
20
164.430030
11
89.078855
21
162.215415
0
LINE
8
Layer 1
10
89.078855
20
162.215415
11
88.660556
21
160.054404
0
LINE
8
Layer 1
10
88.660556
20
160.054404
11
88.085991
21
157.953331
0
LINE
8
Layer 1
10
88.085991
20
157.953331
11
87.361537
21
155.918534
0
LINE
8
Layer 1
10
87.361537
20
155.918534
11
86.493571
21
153.956348
0
LINE
8
Layer 1
10
86.493571
20
153.956348
11
85.488469
21
152.073110
0
LINE
8
Layer 1
10
85.488469
20
152.073110
11
84.352609
21
150.275155
0
LINE
8
Layer 1
10
84.352609
20
150.275155
11
83.092367
21
148.568819
0
LINE
8
Layer 1
10
83.092367
20
148.568819
11
81.714120
21
146.960440
0
LINE
8
Layer 1
10
81.714120
20
146.960440
11
80.224245
21
145.456351
0
LINE
8
Layer 1
10
80.224245
20
145.456351
11
78.629120
21
144.062891
0
LINE
8
Layer 1
10
78.629120
20
144.062891
11
76.935120
21
142.786395
0
LINE
8
Layer 1
10
76.935120
20
142.786395
11
75.148623
21
141.633198
0
LINE
8
Layer 1
10
75.148623
20
141.633198
11
73.276006
21
140.609638
0
LINE
8
Layer 1
10
73.276006
20
140.609638
11
71.323646
21
139.722050
0
LINE
8
Layer 1
10
71.323646
20
139.722050
11
70.820843
21
140.310688
0
LINE
8
Layer 1
10
70.820843
20
140.310688
11
70.327049
21
141.485939
0
LINE
8
Layer 1
10
70.327049
20
141.485939
11
69.722452
21
142.699439
0
LINE
8
Layer 1
10
69.722452
20
142.699439
11
68.902128
21
143.738577
0
LINE
8
Layer 1
10
68.902128
20
143.738577
11
67.916730
21
144.550980
0
LINE
8
Layer 1
10
67.916730
20
144.550980
11
66.816910
21
145.084272
0
LINE
8
Layer 1
10
66.816910
20
145.084272
11
65.408568
21
145.343875
0
LINE
8
Layer 1
10
65.408568
20
145.343875
11
63.333229
21
145.154828
0
LINE
8
Layer 1
10
63.333229
20
145.154828
11
60.925521
21
144.943161
0
LINE
8
Layer 1
10
60.925521
20
144.943161
11
60.660938
21
146.318994
0
LINE
8
Layer 1
10
60.660938
20
146.318994
11
60.519826
21
147.571356
0
LINE
8
Layer 1
10
60.519826
20
147.571356
11
61.975035
21
147.888856
0
LINE
8
Layer 1
10
61.975035
20
147.888856
11
63.783021
21
148.197536
0
LINE
8
Layer 1
10
63.783021
20
148.197536
11
64.373361
21
148.463753
0
LINE
8
Layer 1
10
64.373361
20
148.463753
11
65.123372
21
149.134548
0
LINE
8
Layer 1
10
65.123372
20
149.134548
11
65.851436
21
150.018140
0
LINE
8
Layer 1
10
65.851436
20
150.018140
11
66.375938
21
150.922744
0
LINE
8
Layer 1
10
66.375938
20
150.922744
11
66.718223
21
152.325001
0
LINE
8
Layer 1
10
66.718223
20
152.325001
11
66.737535
21
154.547536
0
LINE
8
Layer 1
10
66.737535
20
154.547536
11
66.617247
21
156.222183
0
LINE
8
Layer 1
10
66.617247
20
156.222183
11
66.273792
21
157.635742
0
LINE
8
Layer 1
10
66.273792
20
157.635742
11
65.476497
21
159.445476
0
LINE
8
Layer 1
10
65.476497
20
159.445476
11
63.994688
21
162.308647
0
LINE
8
Layer 1
10
63.994688
20
162.308647
11
63.106398
21
164.343196
0
LINE
8
Layer 1
10
63.106398
20
164.343196
11
62.539479
21
166.259758
0
LINE
8
Layer 1
10
62.539479
20
166.259758
11
62.172255
21
167.901752
0
LINE
8
Layer 1
10
62.172255
20
167.901752
11
61.780624
21
169.044184
0
LINE
8
Layer 1
10
61.780624
20
169.044184
11
61.353907
21
169.711625
0
LINE
8
Layer 1
10
61.353907
20
169.711625
11
60.881424
21
169.928647
0
LINE
8
Layer 1
10
60.881424
20
169.928647
11
60.391692
21
169.758902
0
LINE
8
Layer 1
10
60.391692
20
169.758902
11
59.930169
21
169.325329
0
LINE
8
Layer 1
10
59.930169
20
169.325329
11
59.587086
21
168.741418
0
LINE
8
Layer 1
10
59.587086
20
168.741418
11
59.452674
21
168.120661
0
LINE
8
Layer 1
10
59.452674
20
168.120661
11
59.236133
21
166.930824
0
LINE
8
Layer 1
10
59.236133
20
166.930824
11
58.553090
21
164.813369
0
LINE
8
Layer 1
10
58.553090
20
164.813369
11
57.825771
21
163.718360
0
LINE
8
Layer 1
10
57.825771
20
163.718360
11
56.454063
21
162.132258
0
LINE
8
Layer 1
10
56.454063
20
162.132258
11
53.541703
21
158.841209
0
LINE
8
Layer 1
10
53.541703
20
158.841209
11
52.780880
21
157.729489
0
LINE
8
Layer 1
10
52.780880
20
157.729489
11
52.300104
21
156.734758
0
LINE
8
Layer 1
10
52.300104
20
156.734758
11
51.972080
21
155.588936
0
LINE
8
Layer 1
10
51.972080
20
155.588936
11
51.851699
21
154.434970
0
LINE
8
Layer 1
10
51.851699
20
154.434970
11
51.940087
21
153.363745
0
LINE
8
Layer 1
10
51.940087
20
153.363745
11
52.238368
21
152.466147
0
LINE
8
Layer 1
10
52.238368
20
152.466147
11
53.090141
21
151.305811
0
LINE
8
Layer 1
10
53.090141
20
151.305811
11
54.377148
21
150.186355
0
LINE
8
Layer 1
10
54.377148
20
150.186355
11
55.986033
21
149.190354
0
LINE
8
Layer 1
10
55.986033
20
149.190354
11
57.803438
21
148.400383
0
LINE
8
Layer 1
10
57.803438
20
148.400383
11
58.186611
21
147.923506
0
LINE
8
Layer 1
10
58.186611
20
147.923506
11
58.385521
21
146.733508
0
LINE
8
Layer 1
10
58.385521
20
146.733508
11
58.332604
21
145.022536
0
LINE
8
Layer 1
10
58.332604
20
145.022536
11
57.668784
21
145.212013
0
LINE
8
Layer 1
10
57.668784
20
145.212013
11
56.330590
21
145.975036
0
LINE
8
Layer 1
10
56.330590
20
145.975036
11
53.375043
21
147.621444
0
LINE
8
Layer 1
10
53.375043
20
147.621444
11
52.214970
21
148.050955
0
LINE
8
Layer 1
10
52.214970
20
148.050955
11
51.312326
21
148.197536
0
LINE
8
Layer 1
10
51.312326
20
148.197536
11
50.632594
21
148.101445
0
LINE
8
Layer 1
10
50.632594
20
148.101445
11
50.025570
21
147.817762
0
LINE
8
Layer 1
10
50.025570
20
147.817762
11
49.495150
21
147.353374
0
LINE
8
Layer 1
10
49.495150
20
147.353374
11
49.045231
21
146.715169
0
LINE
8
Layer 1
10
49.045231
20
146.715169
11
48.402485
21
144.944853
0
LINE
8
Layer 1
10
48.402485
20
144.944853
11
48.128507
21
142.561911
0
LINE
8
Layer 1
10
48.128507
20
142.561911
11
48.018592
21
141.069918
0
LINE
8
Layer 1
10
48.018592
20
141.069918
11
47.837465
21
140.321772
0
LINE
8
Layer 1
10
47.837465
20
140.321772
11
44.282328
21
142.317660
0
LINE
8
Layer 1
10
44.282328
20
142.317660
11
41.056598
21
144.773923
0
LINE
8
Layer 1
10
41.056598
20
144.773923
11
38.204848
21
147.646143
0
LINE
8
Layer 1
10
38.204848
20
147.646143
11
35.771648
21
150.889899
0
LINE
8
Layer 1
10
35.771648
20
150.889899
11
33.801572
21
154.460773
0
LINE
8
Layer 1
10
33.801572
20
154.460773
11
32.339190
21
158.314346
0
LINE
8
Layer 1
10
32.339190
20
158.314346
11
31.812314
21
160.333263
0
LINE
8
Layer 1
10
31.812314
20
160.333263
11
31.429075
21
162.406198
0
LINE
8
Layer 1
10
31.429075
20
162.406198
11
31.195046
21
164.527598
0
LINE
8
Layer 1
10
31.195046
20
164.527598
11
31.115799
21
166.691911
0
LINE
8
Layer 1
10
31.115799
20
166.691911
11
31.266346
21
169.671276
0
LINE
8
Layer 1
10
31.266346
20
169.671276
11
31.708206
21
172.564777
0
LINE
8
Layer 1
10
31.708206
20
172.564777
11
32.426702
21
175.357740
0
LINE
8
Layer 1
10
32.426702
20
175.357740
11
33.407161
21
178.035489
0
LINE
8
Layer 1
10
33.407161
20
178.035489
11
34.634907
21
180.583349
0
LINE
8
Layer 1
10
34.634907
20
180.583349
11
36.095266
21
182.986647
0
LINE
8
Layer 1
10
36.095266
20
182.986647
11
37.773562
21
185.230706
0
LINE
8
Layer 1
10
37.773562
20
185.230706
11
39.655120
21
187.300853
0
LINE
8
Layer 1
10
39.655120
20
187.300853
11
41.725267
21
189.182411
0
LINE
8
Layer 1
10
41.725267
20
189.182411
11
43.969326
21
190.860707
0
LINE
8
Layer 1
10
43.969326
20
190.860707
11
46.372624
21
192.321065
0
LINE
8
Layer 1
10
46.372624
20
192.321065
11
48.920485
21
193.548811
0
LINE
8
Layer 1
10
48.920485
20
193.548811
11
51.598234
21
194.529270
0
LINE
8
Layer 1
10
51.598234
20
194.529270
11
54.391196
21
195.247767
0
LINE
8
Layer 1
10
54.391196
20
195.247767
11
57.284698
21
195.689626
0
LINE
8
Layer 1
10
57.284698
20
195.689626
11
60.264063
21
195.840174
0
LINE
8
Layer 1
10
60.264063
20
195.840174
11
60.264063
21
195.840174
0
LINE
8
Layer 1
10
60.290521
20
162.317467
11
61.040174
21
160.835800
0
LINE
8
Layer 1
10
61.040174
20
160.835800
11
62.654132
21
158.084133
0
LINE
8
Layer 1
10
62.654132
20
158.084133
11
63.124389
21
157.334212
0
LINE
8
Layer 1
10
63.124389
20
157.334212
11
63.384248
21
156.652880
0
LINE
8
Layer 1
10
63.384248
20
156.652880
11
63.518438
21
154.476981
0
LINE
8
Layer 1
10
63.518438
20
154.476981
11
63.417094
21
152.477238
0
LINE
8
Layer 1
10
63.417094
20
152.477238
11
63.250637
21
151.970470
0
LINE
8
Layer 1
10
63.250637
20
151.970470
11
62.971632
21
151.610661
0
LINE
8
Layer 1
10
62.971632
20
151.610661
11
62.321239
21
151.180277
0
LINE
8
Layer 1
10
62.321239
20
151.180277
11
61.503302
21
150.939287
0
LINE
8
Layer 1
10
61.503302
20
150.939287
11
60.573082
21
150.877314
0
LINE
8
Layer 1
10
60.573082
20
150.877314
11
59.585840
21
150.983979
0
LINE
8
Layer 1
10
59.585840
20
150.983979
11
58.596834
21
151.248906
0
LINE
8
Layer 1
10
58.596834
20
151.248906
11
57.661325
21
151.661717
0
LINE
8
Layer 1
10
57.661325
20
151.661717
11
56.834574
21
152.212034
0
LINE
8
Layer 1
10
56.834574
20
152.212034
11
56.171840
21
152.889481
0
LINE
8
Layer 1
10
56.171840
20
152.889481
11
55.535603
21
154.000051
0
LINE
8
Layer 1
10
55.535603
20
154.000051
11
55.386910
21
155.279550
0
LINE
8
Layer 1
10
55.386910
20
155.279550
11
55.481710
21
156.243378
0
LINE
8
Layer 1
10
55.481710
20
156.243378
11
55.889105
21
157.169519
0
LINE
8
Layer 1
10
55.889105
20
157.169519
11
56.843562
21
158.433904
0
LINE
8
Layer 1
10
56.843562
20
158.433904
11
58.579549
21
160.412467
0
LINE
8
Layer 1
10
58.579549
20
160.412467
11
60.290521
21
162.317467
0
LINE
8
Layer 1
10
60.290521
20
162.317467
11
60.290521
21
162.317467
0
LINE
8
Layer 1
10
113.074185
20
144.623282
11
114.193055
21
143.074733
0
LINE
8
Layer 1
10
114.193055
20
143.074733
11
115.170076
21
141.454110
0
LINE
8
Layer 1
10
115.170076
20
141.454110
11
116.003804
21
139.771104
0
LINE
8
Layer 1
10
116.003804
20
139.771104
11
116.692794
21
138.035404
0
LINE
8
Layer 1
10
116.692794
20
138.035404
11
117.235603
21
136.256699
0
LINE
8
Layer 1
10
117.235603
20
136.256699
11
117.630785
21
134.444680
0
LINE
8
Layer 1
10
117.630785
20
134.444680
11
117.876897
21
132.609036
0
LINE
8
Layer 1
10
117.876897
20
132.609036
11
117.972495
21
130.759458
0
LINE
8
Layer 1
10
117.972495
20
130.759458
11
117.916134
21
128.905633
0
LINE
8
Layer 1
10
117.916134
20
128.905633
11
117.706370
21
127.057253
0
LINE
8
Layer 1
10
117.706370
20
127.057253
11
117.341759
21
125.224007
0
LINE
8
Layer 1
10
117.341759
20
125.224007
11
116.820857
21
123.415585
0
LINE
8
Layer 1
10
116.820857
20
123.415585
11
116.142219
21
121.641675
0
LINE
8
Layer 1
10
116.142219
20
121.641675
11
115.304402
21
119.911969
0
LINE
8
Layer 1
10
115.304402
20
119.911969
11
114.305961
21
118.236156
0
LINE
8
Layer 1
10
114.305961
20
118.236156
11
113.145451
21
116.623925
0
LINE
8
Layer 1
10
113.145451
20
116.623925
11
111.582953
21
114.837277
0
LINE
8
Layer 1
10
111.582953
20
114.837277
11
109.878160
21
113.251821
0
LINE
8
Layer 1
10
109.878160
20
113.251821
11
108.048095
21
111.869430
0
LINE
8
Layer 1
10
108.048095
20
111.869430
11
106.109777
21
110.691980
0
LINE
8
Layer 1
10
106.109777
20
110.691980
11
104.080229
21
109.721344
0
LINE
8
Layer 1
10
104.080229
20
109.721344
11
101.976471
21
108.959396
0
LINE
8
Layer 1
10
101.976471
20
108.959396
11
99.815524
21
108.408011
0
LINE
8
Layer 1
10
99.815524
20
108.408011
11
97.614410
21
108.069064
0
LINE
8
Layer 1
10
97.614410
20
108.069064
11
97.596771
21
108.086703
0
LINE
8
Layer 1
10
97.596771
20
108.086703
11
96.694376
21
108.511540
0
LINE
8
Layer 1
10
96.694376
20
108.511540
11
95.577118
21
108.783439
0
LINE
8
Layer 1
10
95.577118
20
108.783439
11
93.239965
21
109.127397
0
LINE
8
Layer 1
10
93.239965
20
109.127397
11
92.163993
21
109.321425
0
LINE
8
Layer 1
10
92.163993
20
109.321425
11
92.349201
21
110.847189
0
LINE
8
Layer 1
10
92.349201
20
110.847189
11
92.587326
21
113.228439
0
LINE
8
Layer 1
10
92.587326
20
113.228439
11
92.653286
21
113.681058
0
LINE
8
Layer 1
10
92.653286
20
113.681058
11
92.834174
21
114.015851
0
LINE
8
Layer 1
10
92.834174
20
114.015851
11
93.760313
21
114.586633
0
LINE
8
Layer 1
10
93.760313
20
114.586633
11
94.599459
21
115.042537
0
LINE
8
Layer 1
10
94.599459
20
115.042537
11
95.327071
21
115.608899
0
LINE
8
Layer 1
10
95.327071
20
115.608899
11
95.943136
21
116.285683
0
LINE
8
Layer 1
10
95.943136
20
116.285683
11
96.447642
21
117.072853
0
LINE
8
Layer 1
10
96.447642
20
117.072853
11
97.121927
21
118.978212
0
LINE
8
Layer 1
10
97.121927
20
118.978212
11
97.349826
21
121.324689
0
LINE
8
Layer 1
10
97.349826
20
121.324689
11
97.323572
21
122.722743
0
LINE
8
Layer 1
10
97.323572
20
122.722743
11
97.134813
21
123.788453
0
LINE
8
Layer 1
10
97.134813
20
123.788453
11
96.628022
21
125.033391
0
LINE
8
Layer 1
10
96.628022
20
125.033391
11
95.647674
21
126.969133
0
LINE
8
Layer 1
10
95.647674
20
126.969133
11
92.877681
21
132.290577
0
LINE
8
Layer 1
10
92.877681
20
132.290577
11
91.386968
21
134.927334
0
LINE
8
Layer 1
10
91.386968
20
134.927334
11
90.947018
21
135.504178
0
LINE
8
Layer 1
10
90.947018
20
135.504178
11
90.617701
21
135.728116
0
LINE
8
Layer 1
10
90.617701
20
135.728116
11
90.329287
21
135.705238
0
LINE
8
Layer 1
10
90.329287
20
135.705238
11
90.012049
21
135.541633
0
LINE
8
Layer 1
10
90.012049
20
135.541633
11
89.615817
21
135.080410
0
LINE
8
Layer 1
10
89.615817
20
135.080410
11
89.227422
21
134.257890
0
LINE
8
Layer 1
10
89.227422
20
134.257890
11
88.929274
21
133.290106
0
LINE
8
Layer 1
10
88.929274
20
133.290106
11
88.803785
21
132.393092
0
LINE
8
Layer 1
10
88.803785
20
132.393092
11
88.609630
21
131.393524
0
LINE
8
Layer 1
10
88.609630
20
131.393524
11
88.087362
21
130.212442
0
LINE
8
Layer 1
10
88.087362
20
130.212442
11
87.288305
21
128.944290
0
LINE
8
Layer 1
10
87.288305
20
128.944290
11
86.263785
21
127.683508
0
LINE
8
Layer 1
10
86.263785
20
127.683508
11
84.852674
21
125.893161
0
LINE
8
Layer 1
10
84.852674
20
125.893161
11
84.006007
21
124.305661
0
LINE
8
Layer 1
10
84.006007
20
124.305661
11
83.403323
21
123.001208
0
LINE
8
Layer 1
10
83.403323
20
123.001208
11
83.155032
21
121.554610
0
LINE
8
Layer 1
10
83.155032
20
121.554610
11
83.261673
21
119.977617
0
LINE
8
Layer 1
10
83.261673
20
119.977617
11
83.723785
21
118.281981
0
LINE
8
Layer 1
10
83.723785
20
118.281981
11
84.288229
21
116.703300
0
LINE
8
Layer 1
10
84.288229
20
116.703300
11
85.769896
21
115.530314
0
LINE
8
Layer 1
10
85.769896
20
115.530314
11
87.251563
21
114.613856
0
LINE
8
Layer 1
10
87.251563
20
114.613856
11
88.733229
21
114.031008
0
LINE
8
Layer 1
10
88.733229
20
114.031008
11
89.995009
21
113.586802
0
LINE
8
Layer 1
10
89.995009
20
113.586802
11
90.179752
21
113.281354
0
LINE
8
Layer 1
10
90.179752
20
113.281354
11
90.214896
21
112.796286
0
LINE
8
Layer 1
10
90.214896
20
112.796286
11
90.005951
21
111.216347
0
LINE
8
Layer 1
10
90.005951
20
111.216347
11
89.755937
21
110.887688
0
LINE
8
Layer 1
10
89.755937
20
110.887688
11
89.412326
21
110.873647
0
LINE
8
Layer 1
10
89.412326
20
110.873647
11
87.260382
21
112.408231
0
LINE
8
Layer 1
10
87.260382
20
112.408231
11
85.768174
21
113.535907
0
LINE
8
Layer 1
10
85.768174
20
113.535907
11
84.605642
21
114.192450
0
LINE
8
Layer 1
10
84.605642
20
114.192450
11
83.540167
21
114.475026
0
LINE
8
Layer 1
10
83.540167
20
114.475026
11
82.339132
21
114.480800
0
LINE
8
Layer 1
10
82.339132
20
114.480800
11
81.032053
21
114.245498
0
LINE
8
Layer 1
10
81.032053
20
114.245498
11
80.160729
21
113.731147
0
LINE
8
Layer 1
10
80.160729
20
113.731147
11
79.127681
21
112.358384
0
LINE
8
Layer 1
10
79.127681
20
112.358384
11
78.777841
21
111.623708
0
LINE
8
Layer 1
10
78.777841
20
111.623708
11
78.643785
21
111.041217
0
LINE
8
Layer 1
10
78.643785
20
111.041217
11
78.574196
21
110.773229
0
LINE
8
Layer 1
10
78.574196
20
110.773229
11
78.405660
21
110.661981
0
LINE
8
Layer 1
10
78.405660
20
110.661981
11
77.958687
21
110.830224
0
LINE
8
Layer 1
10
77.958687
20
110.830224
11
77.298046
21
111.280630
0
LINE
8
Layer 1
10
77.298046
20
111.280630
11
75.672659
21
112.701973
0
LINE
8
Layer 1
10
75.672659
20
112.701973
11
74.203304
21
114.274101
0
LINE
8
Layer 1
10
74.203304
20
114.274101
11
73.737702
21
114.912988
0
LINE
8
Layer 1
10
73.737702
20
114.912988
11
73.563785
21
115.345106
0
LINE
8
Layer 1
10
73.563785
20
115.345106
11
73.731109
21
115.652826
0
LINE
8
Layer 1
10
73.731109
20
115.652826
11
74.128229
21
115.883092
0
LINE
8
Layer 1
10
74.128229
20
115.883092
11
74.895279
21
116.310205
0
LINE
8
Layer 1
10
74.895279
20
116.310205
11
75.421533
21
117.047962
0
LINE
8
Layer 1
10
75.421533
20
117.047962
11
75.724468
21
118.131530
0
LINE
8
Layer 1
10
75.724468
20
118.131530
11
75.821563
21
119.596078
0
LINE
8
Layer 1
10
75.821563
20
119.596078
11
75.749210
21
121.212143
0
LINE
8
Layer 1
10
75.749210
20
121.212143
11
75.574618
21
122.171356
0
LINE
8
Layer 1
10
75.574618
20
122.171356
11
73.881285
21
126.889758
0
LINE
8
Layer 1
10
73.881285
20
126.889758
11
72.945222
21
129.812812
0
LINE
8
Layer 1
10
72.945222
20
129.812812
11
72.309088
21
132.264078
0
LINE
8
Layer 1
10
72.309088
20
132.264078
11
72.051153
21
134.188948
0
LINE
8
Layer 1
10
72.051153
20
134.188948
11
72.249688
21
135.532814
0
LINE
8
Layer 1
10
72.249688
20
135.532814
11
75.526902
21
137.016451
0
LINE
8
Layer 1
10
75.526902
20
137.016451
11
78.583493
21
138.843780
0
LINE
8
Layer 1
10
78.583493
20
138.843780
11
81.403336
21
140.988327
0
LINE
8
Layer 1
10
81.403336
20
140.988327
11
83.970305
21
143.423619
0
LINE
8
Layer 1
10
83.970305
20
143.423619
11
86.268277
21
146.123180
0
LINE
8
Layer 1
10
86.268277
20
146.123180
11
88.281125
21
149.060538
0
LINE
8
Layer 1
10
88.281125
20
149.060538
11
89.992727
21
152.209217
0
LINE
8
Layer 1
10
89.992727
20
152.209217
11
91.386956
21
155.542745
0
LINE
8
Layer 1
10
91.386956
20
155.542745
11
93.615471
21
155.347326
0
LINE
8
Layer 1
10
93.615471
20
155.347326
11
95.799495
21
154.995111
0
LINE
8
Layer 1
10
95.799495
20
154.995111
11
97.933211
21
154.489347
0
LINE
8
Layer 1
10
97.933211
20
154.489347
11
100.010804
21
153.833280
0
LINE
8
Layer 1
10
100.010804
20
153.833280
11
102.026459
21
153.030156
0
LINE
8
Layer 1
10
102.026459
20
153.030156
11
103.974359
21
152.083223
0
LINE
8
Layer 1
10
103.974359
20
152.083223
11
105.848688
21
150.995726
0
LINE
8
Layer 1
10
105.848688
20
150.995726
11
107.643631
21
149.770911
0
LINE
8
Layer 1
10
107.643631
20
149.770911
11
110.496302
21
147.382845
0
LINE
8
Layer 1
10
110.496302
20
147.382845
11
113.074185
21
144.623282
0
LINE
8
Layer 1
10
113.074185
20
144.623282
11
113.074185
21
144.623282
0
LINE
8
Layer 1
10
52.150174
20
144.502189
11
52.843330
21
144.285920
0
LINE
8
Layer 1
10
52.843330
20
144.285920
11
53.869965
21
143.655522
0
LINE
8
Layer 1
10
53.869965
20
143.655522
11
56.249384
21
142.261062
0
LINE
8
Layer 1
10
56.249384
20
142.261062
11
57.301767
21
141.843214
0
LINE
8
Layer 1
10
57.301767
20
141.843214
11
58.350195
21
141.598275
0
LINE
8
Layer 1
10
58.350195
20
141.598275
11
59.460366
21
141.516233
0
LINE
8
Layer 1
10
59.460366
20
141.516233
11
60.697975
21
141.587080
0
LINE
8
Layer 1
10
60.697975
20
141.587080
11
63.818299
21
142.147397
0
LINE
8
Layer 1
10
63.818299
20
142.147397
11
66.058438
21
142.641286
0
LINE
8
Layer 1
10
66.058438
20
142.641286
11
66.922743
21
141.644689
0
LINE
8
Layer 1
10
66.922743
20
141.644689
11
67.614619
21
140.634988
0
LINE
8
Layer 1
10
67.614619
20
140.634988
11
68.096172
21
139.373319
0
LINE
8
Layer 1
10
68.096172
20
139.373319
11
68.414345
21
137.688498
0
LINE
8
Layer 1
10
68.414345
20
137.688498
11
68.616076
21
135.409342
0
LINE
8
Layer 1
10
68.616076
20
135.409342
11
68.842450
21
133.039512
0
LINE
8
Layer 1
10
68.842450
20
133.039512
11
69.225745
21
130.834129
0
LINE
8
Layer 1
10
69.225745
20
130.834129
11
69.767227
21
128.786456
0
LINE
8
Layer 1
10
69.767227
20
128.786456
11
70.468160
21
126.889758
0
LINE
8
Layer 1
10
70.468160
20
126.889758
11
71.360947
21
124.349453
0
LINE
8
Layer 1
10
71.360947
20
124.349453
11
72.011563
21
121.950869
0
LINE
8
Layer 1
10
72.011563
20
121.950869
11
72.039014
21
121.078331
0
LINE
8
Layer 1
10
72.039014
20
121.078331
11
71.782257
21
120.425106
0
LINE
8
Layer 1
10
71.782257
20
120.425106
11
71.535149
21
120.140650
0
LINE
8
Layer 1
10
71.535149
20
120.140650
11
71.291252
21
120.100696
0
LINE
8
Layer 1
10
71.291252
20
120.100696
11
70.318229
21
120.918994
0
LINE
8
Layer 1
10
70.318229
20
120.918994
11
69.591226
21
121.570973
0
LINE
8
Layer 1
10
69.591226
20
121.570973
11
69.064227
21
121.884409
0
LINE
8
Layer 1
10
69.064227
20
121.884409
11
68.650496
21
121.889322
0
LINE
8
Layer 1
10
68.650496
20
121.889322
11
68.263299
21
121.615731
0
LINE
8
Layer 1
10
68.263299
20
121.615731
11
67.985631
21
121.162904
0
LINE
8
Layer 1
10
67.985631
20
121.162904
11
67.969650
21
120.613190
0
LINE
8
Layer 1
10
67.969650
20
120.613190
11
68.217350
21
119.956206
0
LINE
8
Layer 1
10
68.217350
20
119.956206
11
68.730729
21
119.181564
0
LINE
8
Layer 1
10
68.730729
20
119.181564
11
69.285328
21
118.244299
0
LINE
8
Layer 1
10
69.285328
20
118.244299
11
69.732870
21
117.006243
0
LINE
8
Layer 1
10
69.732870
20
117.006243
11
70.074011
21
115.466786
0
LINE
8
Layer 1
10
70.074011
20
115.466786
11
70.309410
21
113.625314
0
LINE
8
Layer 1
10
70.309410
20
113.625314
11
70.706285
21
109.674203
0
LINE
8
Layer 1
10
70.706285
20
109.674203
11
71.130532
21
103.029526
0
LINE
8
Layer 1
10
71.130532
20
103.029526
11
71.464757
21
92.396911
0
LINE
8
Layer 1
10
71.464757
20
92.396911
11
71.579410
21
86.972953
0
LINE
8
Layer 1
10
71.579410
20
86.972953
11
69.683229
21
86.029272
0
LINE
8
Layer 1
10
69.683229
20
86.029272
11
67.919191
21
84.950872
0
LINE
8
Layer 1
10
67.919191
20
84.950872
11
67.302386
21
84.290408
0
LINE
8
Layer 1
10
67.302386
20
84.290408
11
66.649340
21
83.356981
0
LINE
8
Layer 1
10
66.649340
20
83.356981
11
65.308785
21
81.601911
0
LINE
8
Layer 1
10
65.308785
20
81.601911
11
65.159295
21
82.078468
0
LINE
8
Layer 1
10
65.159295
20
82.078468
11
65.097118
21
83.233508
0
LINE
8
Layer 1
10
65.097118
20
83.233508
11
64.999399
21
84.489043
0
LINE
8
Layer 1
10
64.999399
20
84.489043
11
64.761979
21
85.209064
0
LINE
8
Layer 1
10
64.761979
20
85.209064
11
64.324006
21
85.449587
0
LINE
8
Layer 1
10
64.324006
20
85.449587
11
63.640378
21
85.532935
0
LINE
8
Layer 1
10
63.640378
20
85.532935
11
61.489965
21
85.226703
0
LINE
8
Layer 1
10
61.489965
20
85.226703
11
60.107999
21
85.056024
0
LINE
8
Layer 1
10
60.107999
20
85.056024
11
58.808854
21
85.517744
0
LINE
8
Layer 1
10
58.808854
20
85.517744
11
57.522424
21
86.236903
0
LINE
8
Layer 1
10
57.522424
20
86.236903
11
56.605041
21
87.078598
0
LINE
8
Layer 1
10
56.605041
20
87.078598
11
55.839270
21
88.310647
0
LINE
8
Layer 1
10
55.839270
20
88.310647
11
55.007674
21
90.200869
0
LINE
8
Layer 1
10
55.007674
20
90.200869
11
54.126078
21
92.838572
0
LINE
8
Layer 1
10
54.126078
20
92.838572
11
53.574921
21
96.218217
0
LINE
8
Layer 1
10
53.574921
20
96.218217
11
53.226407
21
101.592018
0
LINE
8
Layer 1
10
53.226407
20
101.592018
11
52.952743
21
110.212189
0
LINE
8
Layer 1
10
52.952743
20
110.212189
11
52.679120
21
118.296519
0
LINE
8
Layer 1
10
52.679120
20
118.296519
11
52.432396
21
121.924411
0
LINE
8
Layer 1
10
52.432396
20
121.924411
11
52.254407
21
123.113499
0
LINE
8
Layer 1
10
52.254407
20
123.113499
11
52.150174
21
125.337536
0
LINE
8
Layer 1
10
52.150174
20
125.337536
11
51.841493
21
131.828647
0
LINE
8
Layer 1
10
51.841493
20
131.828647
11
51.497535
21
139.695592
0
LINE
8
Layer 1
10
51.497535
20
139.695592
11
51.539992
21
143.393638
0
LINE
8
Layer 1
10
51.539992
20
143.393638
11
51.747052
21
144.227729
0
LINE
8
Layer 1
10
51.747052
20
144.227729
11
52.150174
21
144.502189
0
LINE
8
Layer 1
10
52.150174
20
144.502189
11
52.150174
21
144.502189
0
LINE
8
Layer 1
10
91.008646
20
129.156356
11
91.070382
21
129.147536
0
LINE
8
Layer 1
10
91.070382
20
129.147536
11
92.037618
21
127.412716
0
LINE
8
Layer 1
10
92.037618
20
127.412716
11
93.319340
21
124.349758
0
LINE
8
Layer 1
10
93.319340
20
124.349758
11
93.909665
21
122.223135
0
LINE
8
Layer 1
10
93.909665
20
122.223135
11
94.008259
21
120.439485
0
LINE
8
Layer 1
10
94.008259
20
120.439485
11
93.614667
21
118.992603
0
LINE
8
Layer 1
10
93.614667
20
118.992603
11
92.728438
21
117.876286
0
LINE
8
Layer 1
10
92.728438
20
117.876286
11
92.069705
21
117.454693
0
LINE
8
Layer 1
10
92.069705
20
117.454693
11
91.337881
21
117.215181
0
LINE
8
Layer 1
10
91.337881
20
117.215181
11
90.563295
21
117.150559
0
LINE
8
Layer 1
10
90.563295
20
117.150559
11
89.776276
21
117.253640
0
LINE
8
Layer 1
10
89.776276
20
117.253640
11
89.007154
21
117.517234
0
LINE
8
Layer 1
10
89.007154
20
117.517234
11
88.286256
21
117.934152
0
LINE
8
Layer 1
10
88.286256
20
117.934152
11
87.643912
21
118.497204
0
LINE
8
Layer 1
10
87.643912
20
118.497204
11
87.110451
21
119.199203
0
LINE
8
Layer 1
10
87.110451
20
119.199203
11
86.756533
21
119.921729
0
LINE
8
Layer 1
10
86.756533
20
119.921729
11
86.557544
21
120.676504
0
LINE
8
Layer 1
10
86.557544
20
120.676504
11
86.513983
21
121.466084
0
LINE
8
Layer 1
10
86.513983
20
121.466084
11
86.626349
21
122.293022
0
LINE
8
Layer 1
10
86.626349
20
122.293022
11
87.320851
21
124.069193
0
LINE
8
Layer 1
10
87.320851
20
124.069193
11
88.645035
21
126.025453
0
LINE
8
Layer 1
10
88.645035
20
126.025453
11
90.197257
21
128.230314
0
LINE
8
Layer 1
10
90.197257
20
128.230314
11
90.654468
21
128.872694
0
LINE
8
Layer 1
10
90.654468
20
128.872694
11
91.008646
21
129.156356
0
LINE
8
Layer 1
10
91.008646
20
129.156356
11
91.008646
21
129.156356
0
LINE
8
Layer 1
10
8.476286
20
124.958300
11
9.800372
21
123.294961
0
LINE
8
Layer 1
10
9.800372
20
123.294961
11
10.910453
21
121.368786
0
LINE
8
Layer 1
10
10.910453
20
121.368786
11
12.473918
21
118.736519
0
LINE
8
Layer 1
10
12.473918
20
118.736519
11
15.364273
21
114.383786
0
LINE
8
Layer 1
10
15.364273
20
114.383786
11
16.346539
21
113.083710
0
LINE
8
Layer 1
10
16.346539
20
113.083710
11
17.116445
21
112.390650
0
LINE
8
Layer 1
10
17.116445
20
112.390650
11
17.826063
21
112.215702
0
LINE
8
Layer 1
10
17.826063
20
112.215702
11
18.627467
21
112.469967
0
LINE
8
Layer 1
10
18.627467
20
112.469967
11
20.188509
21
113.616494
0
LINE
8
Layer 1
10
20.188509
20
113.616494
11
20.752825
21
114.123797
0
LINE
8
Layer 1
10
20.752825
20
114.123797
11
21.176286
21
114.339689
0
LINE
8
Layer 1
10
21.176286
20
114.339689
11
22.199342
21
114.912953
0
LINE
8
Layer 1
10
22.199342
20
114.912953
11
26.009342
21
117.567606
0
LINE
8
Layer 1
10
26.009342
20
117.567606
11
30.092743
21
120.381008
0
LINE
8
Layer 1
10
30.092743
20
120.381008
11
31.283368
21
121.104203
0
LINE
8
Layer 1
10
31.283368
20
121.104203
11
31.404475
21
120.689185
0
LINE
8
Layer 1
10
31.404475
20
120.689185
11
31.303629
21
119.679989
0
LINE
8
Layer 1
10
31.303629
20
119.679989
11
30.666007
21
117.294203
0
LINE
8
Layer 1
10
30.666007
20
117.294203
11
29.819340
21
114.189758
0
LINE
8
Layer 1
10
29.819340
20
114.189758
11
29.210799
21
111.949619
0
LINE
8
Layer 1
10
29.210799
20
111.949619
11
28.972674
21
111.164689
0
LINE
8
Layer 1
10
28.972674
20
111.164689
11
28.716910
21
110.168092
0
LINE
8
Layer 1
10
28.716910
20
110.168092
11
28.031950
21
107.357210
0
LINE
8
Layer 1
10
28.031950
20
107.357210
11
27.252884
21
102.556911
0
LINE
8
Layer 1
10
27.252884
20
102.556911
11
26.688439
21
98.667536
0
LINE
8
Layer 1
10
26.688439
20
98.667536
11
26.196991
21
93.345811
0
LINE
8
Layer 1
10
26.196991
20
93.345811
11
26.099671
21
87.212540
0
LINE
8
Layer 1
10
26.099671
20
87.212540
11
26.373906
21
81.726768
0
LINE
8
Layer 1
10
26.373906
20
81.726768
11
26.643301
21
79.682644
0
LINE
8
Layer 1
10
26.643301
20
79.682644
11
26.997120
21
78.347536
0
LINE
8
Layer 1
10
26.997120
20
78.347536
11
27.393995
21
76.089758
0
LINE
8
Layer 1
10
27.393995
20
76.089758
11
27.701485
21
74.292797
0
LINE
8
Layer 1
10
27.701485
20
74.292797
11
28.223021
21
72.350314
0
LINE
8
Layer 1
10
28.223021
20
72.350314
11
28.625888
21
70.905245
0
LINE
8
Layer 1
10
28.625888
20
70.905245
11
28.646354
21
70.304203
0
LINE
8
Layer 1
10
28.646354
20
70.304203
11
26.670800
21
72.068092
0
LINE
8
Layer 1
10
26.670800
20
72.068092
11
25.388384
21
73.501867
0
LINE
8
Layer 1
10
25.388384
20
73.501867
11
24.134515
21
75.144285
0
LINE
8
Layer 1
10
24.134515
20
75.144285
11
21.714273
21
79.053092
0
LINE
8
Layer 1
10
21.714273
20
79.053092
11
19.932745
21
82.298647
0
LINE
8
Layer 1
10
19.932745
20
82.298647
11
16.413786
21
89.354203
0
LINE
8
Layer 1
10
16.413786
20
89.354203
11
15.143786
21
92.176425
0
LINE
8
Layer 1
10
15.143786
20
92.176425
11
14.156008
21
94.575314
0
LINE
8
Layer 1
10
14.156008
20
94.575314
11
13.379897
21
96.550869
0
LINE
8
Layer 1
10
13.379897
20
96.550869
11
12.351538
21
99.373321
0
LINE
8
Layer 1
10
12.351538
20
99.373321
11
11.571911
21
102.195314
0
LINE
8
Layer 1
10
11.571911
20
102.195314
11
11.269004
21
103.295161
0
LINE
8
Layer 1
10
11.269004
20
103.295161
11
10.663508
21
104.735314
0
LINE
8
Layer 1
10
10.663508
20
104.735314
11
9.931494
21
107.980869
0
LINE
8
Layer 1
10
9.931494
20
107.980869
11
9.076008
21
112.778647
0
LINE
8
Layer 1
10
9.076008
20
112.778647
11
8.632543
21
116.081007
0
LINE
8
Layer 1
10
8.632543
20
116.081007
11
8.342284
21
119.992504
0
LINE
8
Layer 1
10
8.342284
20
119.992504
11
8.264547
21
123.339781
0
LINE
8
Layer 1
10
8.264547
20
123.339781
11
8.323910
21
124.435163
0
LINE
8
Layer 1
10
8.323910
20
124.435163
11
8.458647
21
124.949481
0
LINE
8
Layer 1
10
8.458647
20
124.949481
11
8.476286
21
124.958300
0
LINE
8
Layer 1
10
8.476286
20
124.958300
11
8.476286
21
124.958300
0
LINE
8
Layer 1
10
83.168160
20
111.508647
11
83.654868
21
111.424672
0
LINE
8
Layer 1
10
83.654868
20
111.424672
11
84.194866
21
111.134048
0
LINE
8
Layer 1
10
84.194866
20
111.134048
11
85.769896
21
109.700661
0
LINE
8
Layer 1
10
85.769896
20
109.700661
11
87.377656
21
108.241593
0
LINE
8
Layer 1
10
87.377656
20
108.241593
11
88.759688
21
107.266494
0
LINE
8
Layer 1
10
88.759688
20
107.266494
11
90.052725
21
106.733791
0
LINE
8
Layer 1
10
90.052725
20
106.733791
11
91.625745
21
106.293232
0
LINE
8
Layer 1
10
91.625745
20
106.293232
11
93.280476
21
105.990936
0
LINE
8
Layer 1
10
93.280476
20
105.990936
11
94.818646
21
105.873022
0
LINE
8
Layer 1
10
94.818646
20
105.873022
11
96.493811
21
105.618947
0
LINE
8
Layer 1
10
96.493811
20
105.618947
11
97.153193
21
105.303804
0
LINE
8
Layer 1
10
97.153193
20
105.303804
11
97.700690
21
104.856052
0
LINE
8
Layer 1
10
97.700690
20
104.856052
11
98.141491
21
104.270287
0
LINE
8
Layer 1
10
98.141491
20
104.270287
11
98.480783
21
103.541104
0
LINE
8
Layer 1
10
98.480783
20
103.541104
11
98.875590
21
101.630869
0
LINE
8
Layer 1
10
98.875590
20
101.630869
11
99.263646
21
99.373092
0
LINE
8
Layer 1
10
99.263646
20
99.373092
11
99.521999
21
96.478064
0
LINE
8
Layer 1
10
99.521999
20
96.478064
11
99.498478
21
94.886836
0
LINE
8
Layer 1
10
99.498478
20
94.886836
11
99.360660
21
93.896217
0
LINE
8
Layer 1
10
99.360660
20
93.896217
11
98.958870
21
93.558020
0
LINE
8
Layer 1
10
98.958870
20
93.558020
11
98.081840
21
93.446425
0
LINE
8
Layer 1
10
98.081840
20
93.446425
11
97.189926
21
93.334669
0
LINE
8
Layer 1
10
97.189926
20
93.334669
11
96.820660
21
92.952536
0
LINE
8
Layer 1
10
96.820660
20
92.952536
11
96.406146
21
91.973578
0
LINE
8
Layer 1
10
96.406146
20
91.973578
11
96.214198
21
90.907205
0
LINE
8
Layer 1
10
96.214198
20
90.907205
11
96.152364
21
89.109259
0
LINE
8
Layer 1
10
96.152364
20
89.109259
11
96.219625
21
87.235347
0
LINE
8
Layer 1
10
96.219625
20
87.235347
11
96.414965
21
85.941078
0
LINE
8
Layer 1
10
96.414965
20
85.941078
11
96.731090
21
82.705011
0
LINE
8
Layer 1
10
96.731090
20
82.705011
11
97.111701
21
76.072119
0
LINE
8
Layer 1
10
97.111701
20
76.072119
11
97.720243
21
66.547119
0
LINE
8
Layer 1
10
97.720243
20
66.547119
11
97.776619
21
66.213940
0
LINE
8
Layer 1
10
97.776619
20
66.213940
11
97.658507
21
66.079689
0
LINE
8
Layer 1
10
97.658507
20
66.079689
11
95.694603
21
66.704308
0
LINE
8
Layer 1
10
95.694603
20
66.704308
11
92.966563
21
67.808300
0
LINE
8
Layer 1
10
92.966563
20
67.808300
11
92.080392
21
68.302048
0
LINE
8
Layer 1
10
92.080392
20
68.302048
11
91.685060
21
68.833915
0
LINE
8
Layer 1
10
91.685060
20
68.833915
11
91.736451
21
69.565145
0
LINE
8
Layer 1
10
91.736451
20
69.565145
11
92.190451
21
70.656981
0
LINE
8
Layer 1
10
92.190451
20
70.656981
11
92.637609
21
71.790561
0
LINE
8
Layer 1
10
92.637609
20
71.790561
11
92.716121
21
72.689301
0
LINE
8
Layer 1
10
92.716121
20
72.689301
11
92.408326
21
73.484694
0
LINE
8
Layer 1
10
92.408326
20
73.484694
11
91.696563
21
74.308231
0
LINE
8
Layer 1
10
91.696563
20
74.308231
11
90.763634
21
75.081891
0
LINE
8
Layer 1
10
90.763634
20
75.081891
11
90.003229
21
75.516494
0
LINE
8
Layer 1
10
90.003229
20
75.516494
11
89.139390
21
76.079320
0
LINE
8
Layer 1
10
89.139390
20
76.079320
11
87.852636
21
77.212653
0
LINE
8
Layer 1
10
87.852636
20
77.212653
11
86.521109
21
78.558445
0
LINE
8
Layer 1
10
86.521109
20
78.558445
11
85.522951
21
79.758647
0
LINE
8
Layer 1
10
85.522951
20
79.758647
11
84.138299
21
82.113439
0
LINE
8
Layer 1
10
84.138299
20
82.113439
11
83.689438
21
83.102035
0
LINE
8
Layer 1
10
83.689438
20
83.102035
11
83.365931
21
84.246078
0
LINE
8
Layer 1
10
83.365931
20
84.246078
11
82.762465
21
88.507536
0
LINE
8
Layer 1
10
82.762465
20
88.507536
11
81.889340
21
105.661356
0
LINE
8
Layer 1
10
81.889340
20
105.661356
11
81.861772
21
108.588008
0
LINE
8
Layer 1
10
81.861772
20
108.588008
11
82.039271
21
110.388578
0
LINE
8
Layer 1
10
82.039271
20
110.388578
11
82.428894
21
111.317434
0
LINE
8
Layer 1
10
82.428894
20
111.317434
11
82.720611
21
111.471945
0
LINE
8
Layer 1
10
82.720611
20
111.471945
11
83.168160
21
111.508647
0
LINE
8
Layer 1
10
83.168160
20
111.508647
11
83.168160
21
111.508647
0
LINE
8
Layer 1
10
74.842604
20
108.598231
11
75.545462
21
108.292035
0
LINE
8
Layer 1
10
75.545462
20
108.292035
11
76.527118
21
107.434064
0
LINE
8
Layer 1
10
76.527118
20
107.434064
11
77.738048
21
106.026194
0
LINE
8
Layer 1
10
77.738048
20
106.026194
11
78.148239
21
105.242143
0
LINE
8
Layer 1
10
78.148239
20
105.242143
11
78.465892
21
104.253538
0
LINE
8
Layer 1
10
78.465892
20
104.253538
11
78.936519
21
101.209235
0
LINE
8
Layer 1
10
78.936519
20
101.209235
11
79.375799
21
95.986425
0
LINE
8
Layer 1
10
79.375799
20
95.986425
11
79.966701
21
88.145939
0
LINE
8
Layer 1
10
79.966701
20
88.145939
11
79.974733
21
86.606000
0
LINE
8
Layer 1
10
79.974733
20
86.606000
11
79.649201
21
85.676494
0
LINE
8
Layer 1
10
79.649201
20
85.676494
11
79.130888
21
85.183725
0
LINE
8
Layer 1
10
79.130888
20
85.183725
11
78.454589
21
85.011806
0
LINE
8
Layer 1
10
78.454589
20
85.011806
11
77.654606
21
85.161207
0
LINE
8
Layer 1
10
77.654606
20
85.161207
11
76.765243
21
85.632397
0
LINE
8
Layer 1
10
76.765243
20
85.632397
11
75.831567
21
86.432480
0
LINE
8
Layer 1
10
75.831567
20
86.432480
11
75.227165
21
87.443143
0
LINE
8
Layer 1
10
75.227165
20
87.443143
11
74.858225
21
88.902219
0
LINE
8
Layer 1
10
74.858225
20
88.902219
11
74.630938
21
91.047536
0
LINE
8
Layer 1
10
74.630938
20
91.047536
11
74.186227
21
100.659163
0
LINE
8
Layer 1
10
74.186227
20
100.659163
11
74.128229
21
107.557536
0
LINE
8
Layer 1
10
74.128229
20
107.557536
11
74.382670
21
108.351954
0
LINE
8
Layer 1
10
74.382670
20
108.351954
11
74.842604
21
108.598231
0
LINE
8
Layer 1
10
74.842604
20
108.598231
11
74.842604
21
108.598231
0
LINE
8
Layer 1
10
36.971910
20
100.546078
11
37.454385
21
100.369801
0
LINE
8
Layer 1
10
37.454385
20
100.369801
11
38.294826
21
99.734689
0
LINE
8
Layer 1
10
38.294826
20
99.734689
11
40.645859
21
97.926622
0
LINE
8
Layer 1
10
40.645859
20
97.926622
11
41.706780
21
97.367646
0
LINE
8
Layer 1
10
41.706780
20
97.367646
11
42.942674
21
96.886008
0
LINE
8
Layer 1
10
42.942674
20
96.886008
11
44.905774
21
96.321158
0
LINE
8
Layer 1
10
44.905774
20
96.321158
11
47.098864
21
95.855110
0
LINE
8
Layer 1
10
47.098864
20
95.855110
11
49.032869
21
95.575987
0
LINE
8
Layer 1
10
49.032869
20
95.575987
11
50.218715
21
95.571911
0
LINE
8
Layer 1
10
50.218715
20
95.571911
11
50.612333
21
95.631434
0
LINE
8
Layer 1
10
50.612333
20
95.631434
11
50.839459
21
95.459023
0
LINE
8
Layer 1
10
50.839459
20
95.459023
11
51.100660
21
93.825661
0
LINE
8
Layer 1
10
51.100660
20
93.825661
11
51.401014
21
91.955614
0
LINE
8
Layer 1
10
51.401014
20
91.955614
11
51.900327
21
90.153999
0
LINE
8
Layer 1
10
51.900327
20
90.153999
11
52.577793
21
88.454684
0
LINE
8
Layer 1
10
52.577793
20
88.454684
11
53.412608
21
86.891532
0
LINE
8
Layer 1
10
53.412608
20
86.891532
11
54.383967
21
85.498411
0
LINE
8
Layer 1
10
54.383967
20
85.498411
11
55.471068
21
84.309185
0
LINE
8
Layer 1
10
55.471068
20
84.309185
11
56.653103
21
83.357721
0
LINE
8
Layer 1
10
56.653103
20
83.357721
11
57.909271
21
82.677883
0
LINE
8
Layer 1
10
57.909271
20
82.677883
11
60.405174
21
81.972328
0
LINE
8
Layer 1
10
60.405174
20
81.972328
11
61.772188
21
81.734203
0
LINE
8
Layer 1
10
61.772188
20
81.734203
11
61.869201
21
79.317675
0
LINE
8
Layer 1
10
61.869201
20
79.317675
11
62.175483
21
76.641707
0
LINE
8
Layer 1
10
62.175483
20
76.641707
11
63.218576
21
73.549758
0
LINE
8
Layer 1
10
63.218576
20
73.549758
11
64.513387
21
71.049607
0
LINE
8
Layer 1
10
64.513387
20
71.049607
11
65.811493
21
69.175314
0
LINE
8
Layer 1
10
65.811493
20
69.175314
11
66.136189
21
68.813283
0
LINE
8
Layer 1
10
66.136189
20
68.813283
11
66.160439
21
68.394102
0
LINE
8
Layer 1
10
66.160439
20
68.394102
11
65.141215
21
66.794064
0
LINE
8
Layer 1
10
65.141215
20
66.794064
11
64.130145
21
65.341441
0
LINE
8
Layer 1
10
64.130145
20
65.341441
11
63.380498
21
63.991414
0
LINE
8
Layer 1
10
63.380498
20
63.991414
11
62.862981
21
62.680108
0
LINE
8
Layer 1
10
62.862981
20
62.680108
11
62.548299
21
61.343647
0
LINE
8
Layer 1
10
62.548299
20
61.343647
11
62.072049
21
59.570939
0
LINE
8
Layer 1
10
62.072049
20
59.570939
11
61.490505
21
59.653216
0
LINE
8
Layer 1
10
61.490505
20
59.653216
11
60.396354
21
60.117744
0
LINE
8
Layer 1
10
60.396354
20
60.117744
11
59.398673
21
60.732836
0
LINE
8
Layer 1
10
59.398673
20
60.732836
11
58.761098
21
61.441853
0
LINE
8
Layer 1
10
58.761098
20
61.441853
11
58.423010
21
62.348711
0
LINE
8
Layer 1
10
58.423010
20
62.348711
11
58.323785
21
63.557328
0
LINE
8
Layer 1
10
58.323785
20
63.557328
11
58.076840
21
65.285939
0
LINE
8
Layer 1
10
58.076840
20
65.285939
11
57.477118
21
67.481981
0
LINE
8
Layer 1
10
57.477118
20
67.481981
11
56.630451
21
70.163092
0
LINE
8
Layer 1
10
56.630451
20
70.163092
11
55.580938
21
72.703092
0
LINE
8
Layer 1
10
55.580938
20
72.703092
11
54.592212
21
74.625274
0
LINE
8
Layer 1
10
54.592212
20
74.625274
11
52.902613
21
77.516185
0
LINE
8
Layer 1
10
52.902613
20
77.516185
11
51.110198
21
80.386209
0
LINE
8
Layer 1
10
51.110198
20
80.386209
11
49.813021
21
82.245731
0
LINE
8
Layer 1
10
49.813021
20
82.245731
11
48.428368
21
83.797953
0
LINE
8
Layer 1
10
48.428368
20
83.797953
11
46.743854
21
85.826425
0
LINE
8
Layer 1
10
46.743854
20
85.826425
11
43.630590
21
89.636425
0
LINE
8
Layer 1
10
43.630590
20
89.636425
11
41.246045
21
92.624446
0
LINE
8
Layer 1
10
41.246045
20
92.624446
11
39.275265
21
95.414270
0
LINE
8
Layer 1
10
39.275265
20
95.414270
11
37.934336
21
97.676577
0
LINE
8
Layer 1
10
37.934336
20
97.676577
11
37.439340
21
99.082050
0
LINE
8
Layer 1
10
37.439340
20
99.082050
11
37.130660
21
99.858161
0
LINE
8
Layer 1
10
37.130660
20
99.858161
11
36.941936
21
100.177202
0
LINE
8
Layer 1
10
36.941936
20
100.177202
11
36.927813
21
100.501981
0
LINE
8
Layer 1
10
36.927813
20
100.501981
11
36.971910
21
100.546078
0
LINE
8
Layer 1
10
36.971910
20
100.546078
11
36.971910
21
100.546078
0
LINE
8
Layer 1
10
35.763646
20
96.921286
11
36.601493
21
95.598369
0
LINE
8
Layer 1
10
36.601493
20
95.598369
11
37.439340
21
94.134342
0
LINE
8
Layer 1
10
37.439340
20
94.134342
11
39.289743
21
91.622289
0
LINE
8
Layer 1
10
39.289743
20
91.622289
11
43.780521
21
86.143925
0
LINE
8
Layer 1
10
43.780521
20
86.143925
11
48.181424
21
80.781703
0
LINE
8
Layer 1
10
48.181424
20
80.781703
11
50.545207
21
77.295193
0
LINE
8
Layer 1
10
50.545207
20
77.295193
11
52.114896
21
74.643369
0
LINE
8
Layer 1
10
52.114896
20
74.643369
11
52.688160
21
73.682050
0
LINE
8
Layer 1
10
52.688160
20
73.682050
11
53.485275
21
72.227401
0
LINE
8
Layer 1
10
53.485275
20
72.227401
11
54.388609
21
70.087285
0
LINE
8
Layer 1
10
54.388609
20
70.087285
11
55.228854
21
67.700646
0
LINE
8
Layer 1
10
55.228854
20
67.700646
11
55.836701
21
65.506425
0
LINE
8
Layer 1
10
55.836701
20
65.506425
11
56.402733
21
62.956004
0
LINE
8
Layer 1
10
56.402733
20
62.956004
11
56.535981
21
61.721825
0
LINE
8
Layer 1
10
56.535981
20
61.721825
11
56.415306
21
61.429011
0
LINE
8
Layer 1
10
56.415306
20
61.429011
11
56.156430
21
61.262081
0
LINE
8
Layer 1
10
56.156430
20
61.262081
11
55.184063
21
61.034967
0
LINE
8
Layer 1
10
55.184063
20
61.034967
11
53.102674
21
60.567536
0
LINE
8
Layer 1
10
53.102674
20
60.567536
11
52.215182
21
60.682803
0
LINE
8
Layer 1
10
52.215182
20
60.682803
11
50.871354
21
61.140800
0
LINE
8
Layer 1
10
50.871354
20
61.140800
11
48.684132
21
61.837536
0
LINE
8
Layer 1
10
48.684132
20
61.837536
11
48.280168
21
62.020980
0
LINE
8
Layer 1
10
48.280168
20
62.020980
11
48.163785
21
62.666564
0
LINE
8
Layer 1
10
48.163785
20
62.666564
11
48.254351
21
63.309865
0
LINE
8
Layer 1
10
48.254351
20
63.309865
11
48.472465
21
63.689619
0
LINE
8
Layer 1
10
48.472465
20
63.689619
11
48.632427
21
63.878616
0
LINE
8
Layer 1
10
48.632427
20
63.878616
11
48.662150
21
64.320768
0
LINE
8
Layer 1
10
48.662150
20
64.320768
11
48.269618
21
66.846981
0
LINE
8
Layer 1
10
48.269618
20
66.846981
11
47.855104
21
67.922953
0
LINE
8
Layer 1
10
47.855104
20
67.922953
11
47.675445
21
68.200371
0
LINE
8
Layer 1
10
47.675445
20
68.200371
11
47.599340
21
68.646147
0
LINE
8
Layer 1
10
47.599340
20
68.646147
11
47.299955
21
69.445427
0
LINE
8
Layer 1
10
47.299955
20
69.445427
11
46.556975
21
70.748835
0
LINE
8
Layer 1
10
46.556975
20
70.748835
11
44.671285
21
73.364550
0
LINE
8
Layer 1
10
44.671285
20
73.364550
11
43.833273
21
74.031137
0
LINE
8
Layer 1
10
43.833273
20
74.031137
11
42.647417
21
74.686391
0
LINE
8
Layer 1
10
42.647417
20
74.686391
11
41.417366
21
75.185638
0
LINE
8
Layer 1
10
41.417366
20
75.185638
11
40.446771
21
75.384203
0
LINE
8
Layer 1
10
40.446771
20
75.384203
11
40.030293
21
75.417062
0
LINE
8
Layer 1
10
40.030293
20
75.417062
11
39.805860
21
75.588685
0
LINE
8
Layer 1
10
39.805860
20
75.588685
11
39.697118
21
76.786494
0
LINE
8
Layer 1
10
39.697118
20
76.786494
11
39.603824
21
78.005597
0
LINE
8
Layer 1
10
39.603824
20
78.005597
11
39.379618
21
78.973717
0
LINE
8
Layer 1
10
39.379618
20
78.973717
11
38.868090
21
80.323092
0
LINE
8
Layer 1
10
38.868090
20
80.323092
11
37.951366
21
82.436662
0
LINE
8
Layer 1
10
37.951366
20
82.436662
11
36.773148
21
84.320861
0
LINE
8
Layer 1
10
36.773148
20
84.320861
11
35.354762
21
85.945811
0
LINE
8
Layer 1
10
35.354762
20
85.945811
11
33.717535
21
87.281633
0
LINE
8
Layer 1
10
33.717535
20
87.281633
11
32.559878
21
88.135288
0
LINE
8
Layer 1
10
32.559878
20
88.135288
11
32.077118
21
88.631008
0
LINE
8
Layer 1
10
32.077118
20
88.631008
11
33.047257
21
90.306703
0
LINE
8
Layer 1
10
33.047257
20
90.306703
11
33.828244
21
91.629893
0
LINE
8
Layer 1
10
33.828244
20
91.629893
11
34.352535
21
92.802606
0
LINE
8
Layer 1
10
34.352535
20
92.802606
11
34.934618
21
94.143161
0
LINE
8
Layer 1
10
34.934618
20
94.143161
11
35.181563
21
94.901633
0
LINE
8
Layer 1
10
35.181563
20
94.901633
11
35.472604
21
96.153994
0
LINE
8
Layer 1
10
35.472604
20
96.153994
11
35.763646
21
96.921286
0
LINE
8
Layer 1
10
35.763646
20
96.921286
11
35.763646
21
96.921286
0
LINE
8
Layer 1
10
30.110382
20
85.456008
11
30.877674
21
85.032675
0
LINE
8
Layer 1
10
30.877674
20
85.032675
11
32.093541
21
83.995521
0
LINE
8
Layer 1
10
32.093541
20
83.995521
11
33.292730
21
82.656729
0
LINE
8
Layer 1
10
33.292730
20
82.656729
11
34.395641
21
81.116848
0
LINE
8
Layer 1
10
34.395641
20
81.116848
11
35.322674
21
79.476425
0
LINE
8
Layer 1
10
35.322674
20
79.476425
11
36.255964
21
77.214293
0
LINE
8
Layer 1
10
36.255964
20
77.214293
11
36.404921
21
76.230686
0
LINE
8
Layer 1
10
36.404921
20
76.230686
11
36.442743
21
74.934411
0
LINE
8
Layer 1
10
36.442743
20
74.934411
11
36.520661
21
73.293472
0
LINE
8
Layer 1
10
36.520661
20
73.293472
11
36.794477
21
72.313347
0
LINE
8
Layer 1
10
36.794477
20
72.313347
11
37.353243
21
71.838979
0
LINE
8
Layer 1
10
37.353243
20
71.838979
11
38.286007
21
71.715314
0
LINE
8
Layer 1
10
38.286007
20
71.715314
11
39.658487
21
71.637798
0
LINE
8
Layer 1
10
39.658487
20
71.637798
11
40.738719
21
71.346180
0
LINE
8
Layer 1
10
40.738719
20
71.346180
11
41.730303
21
70.751854
0
LINE
8
Layer 1
10
41.730303
20
70.751854
11
42.836840
21
69.766217
0
LINE
8
Layer 1
10
42.836840
20
69.766217
11
44.220364
21
68.166036
0
LINE
8
Layer 1
10
44.220364
20
68.166036
11
44.927049
21
66.494203
0
LINE
8
Layer 1
10
44.927049
20
66.494203
11
45.231941
21
65.097985
0
LINE
8
Layer 1
10
45.231941
20
65.097985
11
45.388441
21
63.595337
0
LINE
8
Layer 1
10
45.388441
20
63.595337
11
45.389211
21
62.131011
0
LINE
8
Layer 1
10
45.389211
20
62.131011
11
45.226910
21
60.849758
0
LINE
8
Layer 1
10
45.226910
20
60.849758
11
45.189010
21
59.970153
0
LINE
8
Layer 1
10
45.189010
20
59.970153
11
45.481530
21
59.227536
0
LINE
8
Layer 1
10
45.481530
20
59.227536
11
46.100942
21
58.625753
0
LINE
8
Layer 1
10
46.100942
20
58.625753
11
47.043715
21
58.168647
0
LINE
8
Layer 1
10
47.043715
20
58.168647
11
47.943295
21
57.739061
0
LINE
8
Layer 1
10
47.943295
20
57.739061
11
48.304896
21
57.321981
0
LINE
8
Layer 1
10
48.304896
20
57.321981
11
48.175982
21
56.979873
0
LINE
8
Layer 1
10
48.175982
20
56.979873
11
47.808254
21
56.858820
0
LINE
8
Layer 1
10
47.808254
20
56.858820
11
47.230237
21
56.960529
0
LINE
8
Layer 1
10
47.230237
20
56.960529
11
46.470451
21
57.286703
0
LINE
8
Layer 1
10
46.470451
20
57.286703
11
40.349757
21
60.849758
0
LINE
8
Layer 1
10
40.349757
20
60.849758
11
37.778077
21
62.729908
0
LINE
8
Layer 1
10
37.778077
20
62.729908
11
35.397336
21
65.127451
0
LINE
8
Layer 1
10
35.397336
20
65.127451
11
33.398187
21
67.820314
0
LINE
8
Layer 1
10
33.398187
20
67.820314
11
31.971285
21
70.586425
0
LINE
8
Layer 1
10
31.971285
20
70.586425
11
31.115799
21
72.703092
0
LINE
8
Layer 1
10
31.115799
20
72.703092
11
30.458229
21
74.594314
0
LINE
8
Layer 1
10
30.458229
20
74.594314
11
29.902121
21
76.887425
0
LINE
8
Layer 1
10
29.902121
20
76.887425
11
29.458963
21
79.526945
0
LINE
8
Layer 1
10
29.458963
20
79.526945
11
29.140243
21
82.457397
0
LINE
8
Layer 1
10
29.140243
20
82.457397
11
29.085546
21
84.324645
0
LINE
8
Layer 1
10
29.085546
20
84.324645
11
29.229511
21
84.768063
0
LINE
8
Layer 1
10
29.229511
20
84.768063
11
29.519479
21
85.103231
0
LINE
8
Layer 1
10
29.519479
20
85.103231
11
30.110382
21
85.456008
0
LINE
8
Layer 1
10
30.110382
20
85.456008
11
30.110382
21
85.456008
0
LINE
8
Layer 1
10
73.016979
20
83.286425
11
73.965278
21
83.217864
0
LINE
8
Layer 1
10
73.965278
20
83.217864
11
74.901741
21
82.995500
0
LINE
8
Layer 1
10
74.901741
20
82.995500
11
75.793202
21
82.618737
0
LINE
8
Layer 1
10
75.793202
20
82.618737
11
76.606493
21
82.086981
0
LINE
8
Layer 1
10
76.606493
20
82.086981
11
76.755385
21
81.697473
0
LINE
8
Layer 1
10
76.755385
20
81.697473
11
76.416535
21
81.198804
0
LINE
8
Layer 1
10
76.416535
20
81.198804
11
75.625858
21
80.626081
0
LINE
8
Layer 1
10
75.625858
20
80.626081
11
74.419271
21
80.014411
0
LINE
8
Layer 1
10
74.419271
20
80.014411
11
72.434896
21
79.097189
0
LINE
8
Layer 1
10
72.434896
20
79.097189
11
72.102650
21
78.698024
0
LINE
8
Layer 1
10
72.102650
20
78.698024
11
71.933617
21
78.057764
0
LINE
8
Layer 1
10
71.933617
20
78.057764
11
71.944668
21
77.328674
0
LINE
8
Layer 1
10
71.944668
20
77.328674
11
72.152674
21
76.663022
0
LINE
8
Layer 1
10
72.152674
20
76.663022
11
72.352187
21
75.865259
0
LINE
8
Layer 1
10
72.352187
20
75.865259
11
72.381979
21
74.793300
0
LINE
8
Layer 1
10
72.381979
20
74.793300
11
72.293785
21
73.523300
0
LINE
8
Layer 1
10
72.293785
20
73.523300
11
71.306007
21
73.726147
0
LINE
8
Layer 1
10
71.306007
20
73.726147
11
70.669697
21
73.938372
0
LINE
8
Layer 1
10
70.669697
20
73.938372
11
70.081245
21
74.294637
0
LINE
8
Layer 1
10
70.081245
20
74.294637
11
69.094688
21
75.367594
0
LINE
8
Layer 1
10
69.094688
20
75.367594
11
68.439885
21
76.801633
0
LINE
8
Layer 1
10
68.439885
20
76.801633
11
68.210382
21
78.453369
0
LINE
8
Layer 1
10
68.210382
20
78.453369
11
68.356623
21
79.274602
0
LINE
8
Layer 1
10
68.356623
20
79.274602
11
68.726343
21
80.275035
0
LINE
8
Layer 1
10
68.726343
20
80.275035
11
69.232753
21
81.257604
0
LINE
8
Layer 1
10
69.232753
20
81.257604
11
69.789063
21
82.025244
0
LINE
8
Layer 1
10
69.789063
20
82.025244
11
70.441137
21
82.570103
0
LINE
8
Layer 1
10
70.441137
20
82.570103
11
71.219933
21
82.962275
0
LINE
8
Layer 1
10
71.219933
20
82.962275
11
72.090274
21
83.201227
0
LINE
8
Layer 1
10
72.090274
20
83.201227
11
73.016979
21
83.286425
0
LINE
8
Layer 1
10
73.016979
20
83.286425
11
73.016979
21
83.286425
0
LINE
8
Layer 1
10
80.681076
20
80.746425
11
80.838109
21
80.392588
0
LINE
8
Layer 1
10
80.838109
20
80.392588
11
80.901563
21
79.538161
0
LINE
8
Layer 1
10
80.901563
20
79.538161
11
80.997996
21
78.582891
0
LINE
8
Layer 1
10
80.997996
20
78.582891
11
81.227882
21
77.994758
0
LINE
8
Layer 1
10
81.227882
20
77.994758
11
81.465134
21
76.315856
0
LINE
8
Layer 1
10
81.465134
20
76.315856
11
81.546441
21
72.930744
0
LINE
8
Layer 1
10
81.546441
20
72.930744
11
81.470673
21
69.372276
0
LINE
8
Layer 1
10
81.470673
20
69.372276
11
81.236701
21
67.173300
0
LINE
8
Layer 1
10
81.236701
20
67.173300
11
80.196007
21
63.566147
0
LINE
8
Layer 1
10
80.196007
20
63.566147
11
79.154525
21
60.433442
0
LINE
8
Layer 1
10
79.154525
20
60.433442
11
77.895635
21
57.601450
0
LINE
8
Layer 1
10
77.895635
20
57.601450
11
76.459604
21
55.150070
0
LINE
8
Layer 1
10
76.459604
20
55.150070
11
74.886701
21
53.159203
0
LINE
8
Layer 1
10
74.886701
20
53.159203
11
74.284696
21
52.594543
0
LINE
8
Layer 1
10
74.284696
20
52.594543
11
73.753279
21
52.335223
0
LINE
8
Layer 1
10
73.753279
20
52.335223
11
73.155778
21
52.351192
0
LINE
8
Layer 1
10
73.155778
20
52.351192
11
72.355521
21
52.612397
0
LINE
8
Layer 1
10
72.355521
20
52.612397
11
71.774628
21
52.991070
0
LINE
8
Layer 1
10
71.774628
20
52.991070
11
71.443924
21
53.547214
0
LINE
8
Layer 1
10
71.443924
20
53.547214
11
71.374990
21
54.242286
0
LINE
8
Layer 1
10
71.374990
20
54.242286
11
71.579410
21
55.037744
0
LINE
8
Layer 1
10
71.579410
20
55.037744
11
71.756456
21
56.220191
0
LINE
8
Layer 1
10
71.756456
20
56.220191
11
71.787577
21
58.209418
0
LINE
8
Layer 1
10
71.787577
20
58.209418
11
71.681540
21
60.500169
0
LINE
8
Layer 1
10
71.681540
20
60.500169
11
71.447118
21
62.587189
0
LINE
8
Layer 1
10
71.447118
20
62.587189
11
71.370199
21
63.262437
0
LINE
8
Layer 1
10
71.370199
20
63.262437
11
71.456562
21
63.766211
0
LINE
8
Layer 1
10
71.456562
20
63.766211
11
72.417257
21
64.986078
0
LINE
8
Layer 1
10
72.417257
20
64.986078
11
73.400334
21
66.201873
0
LINE
8
Layer 1
10
73.400334
20
66.201873
11
74.237148
21
67.581567
0
LINE
8
Layer 1
10
74.237148
20
67.581567
11
74.856343
21
68.990842
0
LINE
8
Layer 1
10
74.856343
20
68.990842
11
75.186563
21
70.295383
0
LINE
8
Layer 1
10
75.186563
20
70.295383
11
75.366553
21
71.154793
0
LINE
8
Layer 1
10
75.366553
20
71.154793
11
75.583438
21
71.600661
0
LINE
8
Layer 1
10
75.583438
20
71.600661
11
75.752853
21
72.476695
0
LINE
8
Layer 1
10
75.752853
20
72.476695
11
75.821563
21
74.369967
0
LINE
8
Layer 1
10
75.821563
20
74.369967
11
75.821563
21
76.980522
0
LINE
8
Layer 1
10
75.821563
20
76.980522
11
77.162118
21
77.853647
0
LINE
8
Layer 1
10
77.162118
20
77.853647
11
79.481632
21
79.741008
0
LINE
8
Layer 1
10
79.481632
20
79.741008
11
80.681076
21
80.746425
0
LINE
8
Layer 1
10
80.681076
20
80.746425
11
80.681076
21
80.746425
0
LINE
8
Layer 1
10
83.723785
20
76.918786
11
85.064340
21
75.516494
0
LINE
8
Layer 1
10
85.064340
20
75.516494
11
87.374398
21
73.507701
0
LINE
8
Layer 1
10
87.374398
20
73.507701
11
88.420863
21
72.824297
0
LINE
8
Layer 1
10
88.420863
20
72.824297
11
89.112465
21
72.561981
0
LINE
8
Layer 1
10
89.112465
20
72.561981
11
89.292294
21
72.479663
0
LINE
8
Layer 1
10
89.292294
20
72.479663
11
89.297989
21
72.107283
0
LINE
8
Layer 1
10
89.297989
20
72.107283
11
88.662674
21
69.739758
0
LINE
8
Layer 1
10
88.662674
20
69.739758
11
88.366956
21
67.982179
0
LINE
8
Layer 1
10
88.366956
20
67.982179
11
88.338985
21
65.873952
0
LINE
8
Layer 1
10
88.338985
20
65.873952
11
88.563258
21
63.740713
0
LINE
8
Layer 1
10
88.563258
20
63.740713
11
89.024271
21
61.908092
0
LINE
8
Layer 1
10
89.024271
20
61.908092
11
89.747465
21
60.241217
0
LINE
8
Layer 1
10
89.747465
20
60.241217
11
89.932674
21
59.456286
0
LINE
8
Layer 1
10
89.932674
20
59.456286
11
89.596382
21
58.799898
0
LINE
8
Layer 1
10
89.596382
20
58.799898
11
88.503924
21
58.018717
0
LINE
8
Layer 1
10
88.503924
20
58.018717
11
86.925544
21
56.778126
0
LINE
8
Layer 1
10
86.925544
20
56.778126
11
85.473893
21
55.079234
0
LINE
8
Layer 1
10
85.473893
20
55.079234
11
84.346632
21
53.196437
0
LINE
8
Layer 1
10
84.346632
20
53.196437
11
83.741424
21
51.404133
0
LINE
8
Layer 1
10
83.741424
20
51.404133
11
83.582674
21
50.425175
0
LINE
8
Layer 1
10
83.582674
20
50.425175
11
81.316076
21
50.504550
0
LINE
8
Layer 1
10
81.316076
20
50.504550
11
79.227977
21
50.456898
0
LINE
8
Layer 1
10
79.227977
20
50.456898
11
77.603090
21
50.045939
0
LINE
8
Layer 1
10
77.603090
20
50.045939
11
76.418559
21
49.693789
0
LINE
8
Layer 1
10
76.418559
20
49.693789
11
75.848021
21
49.798994
0
LINE
8
Layer 1
10
75.848021
20
49.798994
11
75.607783
21
50.131610
0
LINE
8
Layer 1
10
75.607783
20
50.131610
11
75.610490
21
50.501882
0
LINE
8
Layer 1
10
75.610490
20
50.501882
11
76.483021
21
51.792189
0
LINE
8
Layer 1
10
76.483021
20
51.792189
11
77.839765
21
53.588816
0
LINE
8
Layer 1
10
77.839765
20
53.588816
11
79.036809
21
55.431507
0
LINE
8
Layer 1
10
79.036809
20
55.431507
11
80.072619
21
57.315442
0
LINE
8
Layer 1
10
80.072619
20
57.315442
11
80.945660
21
59.235800
0
LINE
8
Layer 1
10
80.945660
20
59.235800
11
82.030451
21
62.410800
0
LINE
8
Layer 1
10
82.030451
20
62.410800
11
82.107074
21
62.826698
0
LINE
8
Layer 1
10
82.107074
20
62.826698
11
82.286215
21
63.089897
0
LINE
8
Layer 1
10
82.286215
20
63.089897
11
82.531307
21
63.467064
0
LINE
8
Layer 1
10
82.531307
20
63.467064
11
82.778453
21
64.250827
0
LINE
8
Layer 1
10
82.778453
20
64.250827
11
83.236802
21
66.735771
0
LINE
8
Layer 1
10
83.236802
20
66.735771
11
83.577045
21
69.939982
0
LINE
8
Layer 1
10
83.577045
20
69.939982
11
83.714965
21
73.258717
0
LINE
8
Layer 1
10
83.714965
20
73.258717
11
83.723785
21
76.918786
0
LINE
8
Layer 1
10
83.723785
20
76.918786
11
83.723785
21
76.918786
0
LINE
8
Layer 1
10
19.059620
20
71.097953
11
19.750006
21
70.794500
0
LINE
8
Layer 1
10
19.750006
20
70.794500
11
21.096911
21
69.766217
0
LINE
8
Layer 1
10
21.096911
20
69.766217
11
22.411610
21
68.841431
0
LINE
8
Layer 1
10
22.411610
20
68.841431
11
23.776209
21
68.119320
0
LINE
8
Layer 1
10
23.776209
20
68.119320
11
25.079978
21
67.649598
0
LINE
8
Layer 1
10
25.079978
20
67.649598
11
26.212189
21
67.481981
0
LINE
8
Layer 1
10
26.212189
20
67.481981
11
26.928785
21
67.194106
0
LINE
8
Layer 1
10
26.928785
20
67.194106
11
28.019269
21
66.504854
0
LINE
8
Layer 1
10
28.019269
20
66.504854
11
29.108001
21
65.675780
0
LINE
8
Layer 1
10
29.108001
20
65.675780
11
29.819340
21
64.968439
0
LINE
8
Layer 1
10
29.819340
20
64.968439
11
32.837955
21
62.603550
0
LINE
8
Layer 1
10
32.837955
20
62.603550
11
37.245313
21
59.597397
0
LINE
8
Layer 1
10
37.245313
20
59.597397
11
40.014618
21
57.710036
0
LINE
8
Layer 1
10
40.014618
20
57.710036
11
40.623160
21
57.321981
0
LINE
8
Layer 1
10
40.623160
20
57.321981
11
41.787326
21
56.669342
0
LINE
8
Layer 1
10
41.787326
20
56.669342
11
43.507118
21
55.584550
0
LINE
8
Layer 1
10
43.507118
20
55.584550
11
46.964340
21
53.591356
0
LINE
8
Layer 1
10
46.964340
20
53.591356
11
47.216504
21
52.957008
0
LINE
8
Layer 1
10
47.216504
20
52.957008
11
47.317118
21
51.801008
0
LINE
8
Layer 1
10
47.317118
20
51.801008
11
47.283954
21
50.818379
0
LINE
8
Layer 1
10
47.283954
20
50.818379
11
47.134607
21
50.306372
0
LINE
8
Layer 1
10
47.134607
20
50.306372
11
46.794293
21
50.164652
0
LINE
8
Layer 1
10
46.794293
20
50.164652
11
46.188229
21
50.292883
0
LINE
8
Layer 1
10
46.188229
20
50.292883
11
40.107543
21
52.305350
0
LINE
8
Layer 1
10
40.107543
20
52.305350
11
36.160521
21
54.023508
0
LINE
8
Layer 1
10
36.160521
20
54.023508
11
32.782674
21
55.778578
0
LINE
8
Layer 1
10
32.782674
20
55.778578
11
30.480799
21
57.092675
0
LINE
8
Layer 1
10
30.480799
20
57.092675
11
29.157882
21
57.886425
0
LINE
8
Layer 1
10
29.157882
20
57.886425
11
27.314620
21
59.015314
0
LINE
8
Layer 1
10
27.314620
20
59.015314
11
25.471356
21
60.144203
0
LINE
8
Layer 1
10
25.471356
20
60.144203
11
22.851981
21
61.758161
0
LINE
8
Layer 1
10
22.851981
20
61.758161
11
17.322189
21
64.959619
0
LINE
8
Layer 1
10
17.322189
20
64.959619
11
14.279480
21
66.547119
0
LINE
8
Layer 1
10
14.279480
20
66.547119
11
15.381911
21
67.279133
0
LINE
8
Layer 1
10
15.381911
20
67.279133
11
17.443001
21
69.028804
0
LINE
8
Layer 1
10
17.443001
20
69.028804
11
18.267015
21
69.955141
0
LINE
8
Layer 1
10
18.267015
20
69.955141
11
18.698023
21
70.656981
0
LINE
8
Layer 1
10
18.698023
20
70.656981
11
18.843528
21
70.977155
0
LINE
8
Layer 1
10
18.843528
20
70.977155
11
19.059620
21
71.097953
0
LINE
8
Layer 1
10
19.059620
20
71.097953
11
19.059620
21
71.097953
0
LINE
8
Layer 1
10
11.280869
20
64.783231
11
12.251008
21
64.668578
0
LINE
8
Layer 1
10
12.251008
20
64.668578
11
13.877380
21
64.097332
0
LINE
8
Layer 1
10
13.877380
20
64.097332
11
16.327372
21
62.948077
0
LINE
8
Layer 1
10
16.327372
20
62.948077
11
19.071925
21
61.486087
0
LINE
8
Layer 1
10
19.071925
20
61.486087
11
21.581981
21
59.976633
0
LINE
8
Layer 1
10
21.581981
20
59.976633
11
24.033786
21
58.450869
0
LINE
8
Layer 1
10
24.033786
20
58.450869
11
25.365523
21
57.630661
0
LINE
8
Layer 1
10
25.365523
20
57.630661
11
27.843786
21
56.140175
0
LINE
8
Layer 1
10
27.843786
20
56.140175
11
29.845799
21
54.976008
0
LINE
8
Layer 1
10
29.845799
20
54.976008
11
34.811399
21
52.267927
0
LINE
8
Layer 1
10
34.811399
20
52.267927
11
39.979340
21
49.851911
0
LINE
8
Layer 1
10
39.979340
20
49.851911
11
46.073576
21
47.982189
0
LINE
8
Layer 1
10
46.073576
20
47.982189
11
47.475868
21
47.726425
0
LINE
8
Layer 1
10
47.475868
20
47.726425
11
48.290956
21
47.255250
0
LINE
8
Layer 1
10
48.290956
20
47.255250
11
49.495521
21
46.121286
0
LINE
8
Layer 1
10
49.495521
20
46.121286
11
50.709166
21
44.649889
0
LINE
8
Layer 1
10
50.709166
20
44.649889
11
50.759813
21
44.262813
0
LINE
8
Layer 1
10
50.759813
20
44.262813
11
50.553854
21
43.863508
0
LINE
8
Layer 1
10
50.553854
20
43.863508
11
50.160396
21
43.405478
0
LINE
8
Layer 1
10
50.160396
20
43.405478
11
49.759702
21
43.244572
0
LINE
8
Layer 1
10
49.759702
20
43.244572
11
49.328340
21
43.379905
0
LINE
8
Layer 1
10
49.328340
20
43.379905
11
48.842882
21
43.810592
0
LINE
8
Layer 1
10
48.842882
20
43.810592
11
47.078993
21
45.256981
0
LINE
8
Layer 1
10
47.078993
20
45.256981
11
45.630735
21
45.967448
0
LINE
8
Layer 1
10
45.630735
20
45.967448
11
44.059834
21
46.141195
0
LINE
8
Layer 1
10
44.059834
20
46.141195
11
42.276517
21
45.773616
0
LINE
8
Layer 1
10
42.276517
20
45.773616
11
40.191007
21
44.860106
0
LINE
8
Layer 1
10
40.191007
20
44.860106
11
39.132674
21
44.446062
0
LINE
8
Layer 1
10
39.132674
20
44.446062
11
38.074340
21
44.860106
0
LINE
8
Layer 1
10
38.074340
20
44.860106
11
35.397053
21
45.985636
0
LINE
8
Layer 1
10
35.397053
20
45.985636
11
32.486308
21
46.738900
0
LINE
8
Layer 1
10
32.486308
20
46.738900
11
29.635552
21
47.064295
0
LINE
8
Layer 1
10
29.635552
20
47.064295
11
27.138231
21
46.906217
0
LINE
8
Layer 1
10
27.138231
20
46.906217
11
26.057982
21
46.713818
0
LINE
8
Layer 1
10
26.057982
20
46.713818
11
25.360819
21
46.843560
0
LINE
8
Layer 1
10
25.360819
20
46.843560
11
24.599863
21
47.553641
0
LINE
8
Layer 1
10
24.599863
20
47.553641
11
23.328231
21
49.102258
0
LINE
8
Layer 1
10
23.328231
20
49.102258
11
21.740784
21
50.689732
0
LINE
8
Layer 1
10
21.740784
20
50.689732
11
19.768662
21
52.153316
0
LINE
8
Layer 1
10
19.768662
20
52.153316
11
17.726446
21
53.288611
0
LINE
8
Layer 1
10
17.726446
20
53.288611
11
15.928717
21
53.891217
0
LINE
8
Layer 1
10
15.928717
20
53.891217
11
15.201111
21
54.031369
0
LINE
8
Layer 1
10
15.201111
20
54.031369
11
14.784830
21
54.399306
0
LINE
8
Layer 1
10
14.784830
20
54.399306
11
14.459834
21
55.406166
0
LINE
8
Layer 1
10
14.459834
20
55.406166
11
14.006078
21
57.463092
0
LINE
8
Layer 1
10
14.006078
20
57.463092
11
13.373307
21
59.632909
0
LINE
8
Layer 1
10
13.373307
20
59.632909
11
11.792397
21
63.301564
0
LINE
8
Layer 1
10
11.792397
20
63.301564
11
11.192675
21
64.747953
0
LINE
8
Layer 1
10
11.192675
20
64.747953
11
11.280869
21
64.783231
0
LINE
8
Layer 1
10
11.280869
20
64.783231
11
11.280869
21
64.783231
0
LINE
8
Layer 1
10
91.943507
20
64.289342
11
92.402118
21
64.201147
0
LINE
8
Layer 1
10
92.402118
20
64.201147
11
93.460451
21
63.830731
0
LINE
8
Layer 1
10
93.460451
20
63.830731
11
95.012674
21
63.257467
0
LINE
8
Layer 1
10
95.012674
20
63.257467
11
97.270451
21
62.366703
0
LINE
8
Layer 1
10
97.270451
20
62.366703
11
99.528229
21
61.458300
0
LINE
8
Layer 1
10
99.528229
20
61.458300
11
102.343826
21
60.432826
0
LINE
8
Layer 1
10
102.343826
20
60.432826
11
105.313785
21
59.174064
0
LINE
8
Layer 1
10
105.313785
20
59.174064
11
107.791235
21
57.801706
0
LINE
8
Layer 1
10
107.791235
20
57.801706
11
110.197120
21
56.076484
0
LINE
8
Layer 1
10
110.197120
20
56.076484
11
112.145713
21
54.308142
0
LINE
8
Layer 1
10
112.145713
20
54.308142
11
112.827984
21
53.504597
0
LINE
8
Layer 1
10
112.827984
20
53.504597
11
113.251285
21
52.806425
0
LINE
8
Layer 1
10
113.251285
20
52.806425
11
114.344896
21
50.442814
0
LINE
8
Layer 1
10
114.344896
20
50.442814
11
115.198526
21
48.184250
0
LINE
8
Layer 1
10
115.198526
20
48.184250
11
115.643789
21
45.846088
0
LINE
8
Layer 1
10
115.643789
20
45.846088
11
115.684345
21
43.398581
0
LINE
8
Layer 1
10
115.684345
20
43.398581
11
115.323854
21
40.811981
0
LINE
8
Layer 1
10
115.323854
20
40.811981
11
114.785868
21
37.989758
0
LINE
8
Layer 1
10
114.785868
20
37.989758
11
114.256701
21
35.731981
0
LINE
8
Layer 1
10
114.256701
20
35.731981
11
113.198368
21
32.345314
0
LINE
8
Layer 1
10
113.198368
20
32.345314
11
112.237049
21
29.584828
0
LINE
8
Layer 1
10
112.237049
20
29.584828
11
112.001622
21
29.660166
0
LINE
8
Layer 1
10
112.001622
20
29.660166
11
111.699063
21
30.149272
0
LINE
8
Layer 1
10
111.699063
20
30.149272
11
110.460206
21
32.472494
0
LINE
8
Layer 1
10
110.460206
20
32.472494
11
108.947403
21
34.587674
0
LINE
8
Layer 1
10
108.947403
20
34.587674
11
107.284666
21
36.344556
0
LINE
8
Layer 1
10
107.284666
20
36.344556
11
105.596007
21
37.592883
0
LINE
8
Layer 1
10
105.596007
20
37.592883
11
101.128217
21
39.941347
0
LINE
8
Layer 1
10
101.128217
20
39.941347
11
97.552674
21
41.499897
0
LINE
8
Layer 1
10
97.552674
20
41.499897
11
94.792188
21
42.549411
0
LINE
8
Layer 1
10
94.792188
20
42.549411
11
89.227118
21
44.666078
0
LINE
8
Layer 1
10
89.227118
20
44.666078
11
87.816007
21
45.177606
0
LINE
8
Layer 1
10
87.816007
20
45.177606
11
83.441563
21
46.359411
0
LINE
8
Layer 1
10
83.441563
20
46.359411
11
81.607118
21
46.967953
0
LINE
8
Layer 1
10
81.607118
20
46.967953
11
81.622598
21
47.106847
0
LINE
8
Layer 1
10
81.622598
20
47.106847
11
82.171563
21
47.020869
0
LINE
8
Layer 1
10
82.171563
20
47.020869
11
84.429340
21
46.773925
0
LINE
8
Layer 1
10
84.429340
20
46.773925
11
85.840451
21
46.738647
0
LINE
8
Layer 1
10
85.840451
20
46.738647
11
86.016840
21
48.431981
0
LINE
8
Layer 1
10
86.016840
20
48.431981
11
86.396076
21
50.689758
0
LINE
8
Layer 1
10
86.396076
20
50.689758
11
87.368532
21
52.788011
0
LINE
8
Layer 1
10
87.368532
20
52.788011
11
88.442188
21
54.341008
0
LINE
8
Layer 1
10
88.442188
20
54.341008
11
89.253953
21
54.955204
0
LINE
8
Layer 1
10
89.253953
20
54.955204
11
90.432826
21
55.628404
0
LINE
8
Layer 1
10
90.432826
20
55.628404
11
92.807813
21
56.589967
0
LINE
8
Layer 1
10
92.807813
20
56.589967
11
93.430605
21
56.879200
0
LINE
8
Layer 1
10
93.430605
20
56.879200
11
93.730339
21
57.377439
0
LINE
8
Layer 1
10
93.730339
20
57.377439
11
93.703306
21
58.070639
0
LINE
8
Layer 1
10
93.703306
20
58.070639
11
93.345799
21
58.944758
0
LINE
8
Layer 1
10
93.345799
20
58.944758
11
92.110053
21
61.617575
0
LINE
8
Layer 1
10
92.110053
20
61.617575
11
91.753781
21
62.732559
0
LINE
8
Layer 1
10
91.753781
20
62.732559
11
91.626007
21
63.557328
0
LINE
8
Layer 1
10
91.626007
20
63.557328
11
91.664032
21
64.081954
0
LINE
8
Layer 1
10
91.664032
20
64.081954
11
91.846493
21
64.280522
0
LINE
8
Layer 1
10
91.846493
20
64.280522
11
91.943507
21
64.289342
0
LINE
8
Layer 1
10
91.943507
20
64.289342
11
91.943507
21
64.289342
0
LINE
8
Layer 1
10
67.240243
20
63.363300
11
67.622543
21
63.088867
0
LINE
8
Layer 1
10
67.622543
20
63.088867
11
68.060451
21
62.225592
0
LINE
8
Layer 1
10
68.060451
20
62.225592
11
68.431594
21
60.613265
0
LINE
8
Layer 1
10
68.431594
20
60.613265
11
68.664103
21
58.325611
0
LINE
8
Layer 1
10
68.664103
20
58.325611
11
68.709439
21
56.140274
0
LINE
8
Layer 1
10
68.709439
20
56.140274
11
68.519063
21
54.834897
0
LINE
8
Layer 1
10
68.519063
20
54.834897
11
68.029006
21
54.350542
0
LINE
8
Layer 1
10
68.029006
20
54.350542
11
67.116771
21
54.217536
0
LINE
8
Layer 1
10
67.116771
20
54.217536
11
65.855590
21
54.411564
0
LINE
8
Layer 1
10
65.855590
20
54.411564
11
65.694370
21
55.262865
0
LINE
8
Layer 1
10
65.694370
20
55.262865
11
65.689427
21
56.936822
0
LINE
8
Layer 1
10
65.689427
20
56.936822
11
65.820482
21
58.851865
0
LINE
8
Layer 1
10
65.820482
20
58.851865
11
66.067257
21
60.426425
0
LINE
8
Layer 1
10
66.067257
20
60.426425
11
66.701860
21
62.620834
0
LINE
8
Layer 1
10
66.701860
20
62.620834
11
66.974705
21
63.166920
0
LINE
8
Layer 1
10
66.974705
20
63.166920
11
67.240243
21
63.363300
0
LINE
8
Layer 1
10
67.240243
20
63.363300
11
67.240243
21
63.363300
0
LINE
8
Layer 1
10
56.639271
20
57.657119
11
57.964691
21
57.476944
0
LINE
8
Layer 1
10
57.964691
20
57.476944
11
59.224509
21
56.959762
0
LINE
8
Layer 1
10
59.224509
20
56.959762
11
60.371309
21
56.114366
0
LINE
8
Layer 1
10
60.371309
20
56.114366
11
61.357674
21
54.949550
0
LINE
8
Layer 1
10
61.357674
20
54.949550
11
62.096137
21
53.563153
0
LINE
8
Layer 1
10
62.096137
20
53.563153
11
62.274896
21
52.100869
0
LINE
8
Layer 1
10
62.274896
20
52.100869
11
62.099733
21
50.425637
0
LINE
8
Layer 1
10
62.099733
20
50.425637
11
61.556440
21
49.056056
0
LINE
8
Layer 1
10
61.556440
20
49.056056
11
60.618313
21
47.947701
0
LINE
8
Layer 1
10
60.618313
20
47.947701
11
59.258646
21
47.056147
0
LINE
8
Layer 1
10
59.258646
20
47.056147
11
58.141147
21
46.726438
0
LINE
8
Layer 1
10
58.141147
20
46.726438
11
56.683368
21
46.597536
0
LINE
8
Layer 1
10
56.683368
20
46.597536
11
55.059294
21
46.764980
0
LINE
8
Layer 1
10
55.059294
20
46.764980
11
53.631840
21
47.541217
0
LINE
8
Layer 1
10
53.631840
20
47.541217
11
52.468351
21
48.480004
0
LINE
8
Layer 1
10
52.468351
20
48.480004
11
51.717709
21
49.454516
0
LINE
8
Layer 1
10
51.717709
20
49.454516
11
51.320002
21
50.574810
0
LINE
8
Layer 1
10
51.320002
20
50.574810
11
51.215313
21
51.950939
0
LINE
8
Layer 1
10
51.215313
20
51.950939
11
51.338418
21
53.376583
0
LINE
8
Layer 1
10
51.338418
20
53.376583
11
51.675769
21
54.557018
0
LINE
8
Layer 1
10
51.675769
20
54.557018
11
52.245913
21
55.536844
0
LINE
8
Layer 1
10
52.245913
20
55.536844
11
53.067396
21
56.360661
0
LINE
8
Layer 1
10
53.067396
20
56.360661
11
53.918626
21
56.935659
0
LINE
8
Layer 1
10
53.918626
20
56.935659
11
54.807723
21
57.341930
0
LINE
8
Layer 1
10
54.807723
20
57.341930
11
55.719626
21
57.581681
0
LINE
8
Layer 1
10
55.719626
20
57.581681
11
56.639271
21
57.657119
0
LINE
8
Layer 1
10
56.639271
20
57.657119
11
56.639271
21
57.657119
0
LINE
8
Layer 1
10
67.425451
20
50.689758
11
67.981076
21
50.689758
0
LINE
8
Layer 1
10
67.981076
20
50.689758
11
69.182792
21
50.589615
0
LINE
8
Layer 1
10
69.182792
20
50.589615
11
70.266681
21
50.305262
0
LINE
8
Layer 1
10
70.266681
20
50.305262
11
71.219674
21
49.849246
0
LINE
8
Layer 1
10
71.219674
20
49.849246
11
72.028703
21
49.234115
0
LINE
8
Layer 1
10
72.028703
20
49.234115
11
72.680697
21
48.472414
0
LINE
8
Layer 1
10
72.680697
20
48.472414
11
73.162589
21
47.576692
0
LINE
8
Layer 1
10
73.162589
20
47.576692
11
73.461308
21
46.559495
0
LINE
8
Layer 1
10
73.461308
20
46.559495
11
73.563785
21
45.433369
0
LINE
8
Layer 1
10
73.563785
20
45.433369
11
73.364714
21
43.668303
0
LINE
8
Layer 1
10
73.364714
20
43.668303
11
72.777901
21
42.194054
0
LINE
8
Layer 1
10
72.777901
20
42.194054
11
71.818943
21
41.038595
0
LINE
8
Layer 1
10
71.818943
20
41.038595
11
70.503438
21
40.229897
0
LINE
8
Layer 1
10
70.503438
20
40.229897
11
69.460460
21
39.959918
0
LINE
8
Layer 1
10
69.460460
20
39.959918
11
68.174017
21
39.864667
0
LINE
8
Layer 1
10
68.174017
20
39.864667
11
66.861660
21
39.945417
0
LINE
8
Layer 1
10
66.861660
20
39.945417
11
65.740938
21
40.203439
0
LINE
8
Layer 1
10
65.740938
20
40.203439
11
64.811781
21
40.696159
0
LINE
8
Layer 1
10
64.811781
20
40.696159
11
63.903800
21
41.438568
0
LINE
8
Layer 1
10
63.903800
20
41.438568
11
63.142686
21
42.308656
0
LINE
8
Layer 1
10
63.142686
20
42.308656
11
62.654132
21
43.184411
0
LINE
8
Layer 1
10
62.654132
20
43.184411
11
62.499154
21
43.719347
0
LINE
8
Layer 1
10
62.499154
20
43.719347
11
62.565937
21
44.175198
0
LINE
8
Layer 1
10
62.565937
20
44.175198
11
63.703646
21
45.653856
0
LINE
8
Layer 1
10
63.703646
20
45.653856
11
64.810247
21
47.150437
0
LINE
8
Layer 1
10
64.810247
20
47.150437
11
65.538090
21
48.537814
0
LINE
8
Layer 1
10
65.538090
20
48.537814
11
65.952357
21
49.666637
0
LINE
8
Layer 1
10
65.952357
20
49.666637
11
66.303236
21
50.311792
0
LINE
8
Layer 1
10
66.303236
20
50.311792
11
66.743383
21
50.607944
0
LINE
8
Layer 1
10
66.743383
20
50.607944
11
67.425451
21
50.689758
0
LINE
8
Layer 1
10
67.425451
20
50.689758
11
67.425451
21
50.689758
0
LINE
8
Layer 1
10
77.506076
20
44.339758
11
77.940270
21
44.256852
0
LINE
8
Layer 1
10
77.940270
20
44.256852
11
78.220451
21
44.057536
0
LINE
8
Layer 1
10
78.220451
20
44.057536
11
78.137748
21
43.856397
0
LINE
8
Layer 1
10
78.137748
20
43.856397
11
77.673646
21
43.775314
0
LINE
8
Layer 1
10
77.673646
20
43.775314
11
77.163093
21
43.858214
0
LINE
8
Layer 1
10
77.163093
20
43.858214
11
76.950451
21
44.057536
0
LINE
8
Layer 1
10
76.950451
20
44.057536
11
77.115283
21
44.256852
0
LINE
8
Layer 1
10
77.115283
20
44.256852
11
77.506076
21
44.339758
0
LINE
8
Layer 1
10
77.506076
20
44.339758
11
77.506076
21
44.339758
0
LINE
8
Layer 1
10
53.887604
20
43.228508
11
56.577535
21
43.149133
0
LINE
8
Layer 1
10
56.577535
20
43.149133
11
59.258646
21
43.069758
0
LINE
8
Layer 1
10
59.258646
20
43.069758
11
60.096493
21
41.517536
0
LINE
8
Layer 1
10
60.096493
20
41.517536
11
61.763368
21
39.021633
0
LINE
8
Layer 1
10
61.763368
20
39.021633
11
62.399786
21
38.130010
0
LINE
8
Layer 1
10
62.399786
20
38.130010
11
62.388446
21
37.824207
0
LINE
8
Layer 1
10
62.388446
20
37.824207
11
62.195521
21
37.469411
0
LINE
8
Layer 1
10
62.195521
20
37.469411
11
61.547784
21
36.900500
0
LINE
8
Layer 1
10
61.547784
20
36.900500
11
60.555104
21
36.384619
0
LINE
8
Layer 1
10
60.555104
20
36.384619
11
59.039087
21
36.008200
0
LINE
8
Layer 1
10
59.039087
20
36.008200
11
57.596107
21
36.034861
0
LINE
8
Layer 1
10
57.596107
20
36.034861
11
56.281958
21
36.418891
0
LINE
8
Layer 1
10
56.281958
20
36.418891
11
55.152439
21
37.114576
0
LINE
8
Layer 1
10
55.152439
20
37.114576
11
54.263343
21
38.076205
0
LINE
8
Layer 1
10
54.263343
20
38.076205
11
53.670468
21
39.258063
0
LINE
8
Layer 1
10
53.670468
20
39.258063
11
53.429609
21
40.614439
0
LINE
8
Layer 1
10
53.429609
20
40.614439
11
53.596563
21
42.099619
0
LINE
8
Layer 1
10
53.596563
20
42.099619
11
53.887604
21
43.228508
0
LINE
8
Layer 1
10
53.887604
20
43.228508
11
53.887604
21
43.228508
0
LINE
8
Layer 1
10
44.274410
20
42.849272
11
44.530135
21
42.820023
0
LINE
8
Layer 1
10
44.530135
20
42.820023
11
44.494896
21
42.752258
0
LINE
8
Layer 1
10
44.494896
20
42.752258
11
43.733845
21
42.326471
0
LINE
8
Layer 1
10
43.733845
20
42.326471
11
43.309837
21
41.679176
0
LINE
8
Layer 1
10
43.309837
20
41.679176
11
43.125580
21
40.525523
0
LINE
8
Layer 1
10
43.125580
20
40.525523
11
43.083785
21
38.580661
0
LINE
8
Layer 1
10
43.083785
20
38.580661
11
42.907396
21
34.814758
0
LINE
8
Layer 1
10
42.907396
20
34.814758
11
42.725147
21
34.390221
0
LINE
8
Layer 1
10
42.725147
20
34.390221
11
42.434779
21
34.233876
0
LINE
8
Layer 1
10
42.434779
20
34.233876
11
41.970616
21
34.341514
0
LINE
8
Layer 1
10
41.970616
20
34.341514
11
41.266979
21
34.708925
0
LINE
8
Layer 1
10
41.266979
20
34.708925
11
40.756805
21
35.120025
0
LINE
8
Layer 1
10
40.756805
20
35.120025
11
40.274150
21
35.706539
0
LINE
8
Layer 1
10
40.274150
20
35.706539
11
39.493075
21
37.153946
0
LINE
8
Layer 1
10
39.493075
20
37.153946
11
39.127112
21
38.547419
0
LINE
8
Layer 1
10
39.127112
20
38.547419
11
39.163347
21
39.066516
0
LINE
8
Layer 1
10
39.163347
20
39.066516
11
39.379618
21
39.383231
0
LINE
8
Layer 1
10
39.379618
20
39.383231
11
39.794132
21
40.362189
0
LINE
8
Layer 1
10
39.794132
20
40.362189
11
40.206345
21
41.244855
0
LINE
8
Layer 1
10
40.206345
20
41.244855
11
41.008474
21
41.988420
0
LINE
8
Layer 1
10
41.008474
20
41.988420
11
42.107424
21
42.529616
0
LINE
8
Layer 1
10
42.107424
20
42.529616
11
43.410104
21
42.805175
0
LINE
8
Layer 1
10
43.410104
20
42.805175
11
43.965729
21
42.840453
0
LINE
8
Layer 1
10
43.965729
20
42.840453
11
44.274410
21
42.849272
0
LINE
8
Layer 1
10
44.274410
20
42.849272
11
44.274410
21
42.849272
0
LINE
8
Layer 1
10
82.709549
20
41.543994
11
83.088382
21
41.478493
0
LINE
8
Layer 1
10
83.088382
20
41.478493
11
83.323836
21
41.194053
0
LINE
8
Layer 1
10
83.323836
20
41.194053
11
83.653229
21
39.859481
0
LINE
8
Layer 1
10
83.653229
20
39.859481
11
84.138276
21
38.221611
0
LINE
8
Layer 1
10
84.138276
20
38.221611
11
84.913500
21
36.433760
0
LINE
8
Layer 1
10
84.913500
20
36.433760
11
85.839109
21
34.777885
0
LINE
8
Layer 1
10
85.839109
20
34.777885
11
86.775313
21
33.535939
0
LINE
8
Layer 1
10
86.775313
20
33.535939
11
88.342319
21
32.302916
0
LINE
8
Layer 1
10
88.342319
20
32.302916
11
90.211615
21
31.494580
0
LINE
8
Layer 1
10
90.211615
20
31.494580
11
92.210433
21
31.162323
0
LINE
8
Layer 1
10
92.210433
20
31.162323
11
94.166007
21
31.357536
0
LINE
8
Layer 1
10
94.166007
20
31.357536
11
96.062188
21
31.833786
0
LINE
8
Layer 1
10
96.062188
20
31.833786
11
96.398788
21
31.861166
0
LINE
8
Layer 1
10
96.398788
20
31.861166
11
96.674326
21
31.722093
0
LINE
8
Layer 1
10
96.674326
20
31.722093
11
97.261632
21
30.748994
0
LINE
8
Layer 1
10
97.261632
20
30.748994
11
97.948421
21
29.513326
0
LINE
8
Layer 1
10
97.948421
20
29.513326
11
98.824470
21
28.297409
0
LINE
8
Layer 1
10
98.824470
20
28.297409
11
101.009006
21
26.042099
0
LINE
8
Layer 1
10
101.009006
20
26.042099
11
103.544560
21
24.217598
0
LINE
8
Layer 1
10
103.544560
20
24.217598
11
104.859381
21
23.540192
0
LINE
8
Layer 1
10
104.859381
20
23.540192
11
106.160451
21
23.058439
0
LINE
8
Layer 1
10
106.160451
20
23.058439
11
108.250660
21
22.441078
0
LINE
8
Layer 1
10
108.250660
20
22.441078
11
108.425387
21
22.324698
0
LINE
8
Layer 1
10
108.425387
20
22.324698
11
108.506070
21
22.091944
0
LINE
8
Layer 1
10
108.506070
20
22.091944
11
108.409410
21
21.126981
0
LINE
8
Layer 1
10
108.409410
20
21.126981
11
108.162465
21
16.046981
0
LINE
8
Layer 1
10
108.162465
20
16.046981
11
108.100729
21
12.166425
0
LINE
8
Layer 1
10
108.100729
20
12.166425
11
107.739132
21
12.563300
0
LINE
8
Layer 1
10
107.739132
20
12.563300
11
105.109540
21
14.502248
0
LINE
8
Layer 1
10
105.109540
20
14.502248
11
102.544479
21
16.117536
0
LINE
8
Layer 1
10
102.544479
20
16.117536
11
101.124549
21
16.964203
0
LINE
8
Layer 1
10
101.124549
20
16.964203
11
99.713438
21
17.810869
0
LINE
8
Layer 1
10
99.713438
20
17.810869
11
96.706007
21
19.504203
0
LINE
8
Layer 1
10
96.706007
20
19.504203
11
93.742674
21
21.197536
0
LINE
8
Layer 1
10
93.742674
20
21.197536
11
92.278766
21
21.938884
0
LINE
8
Layer 1
10
92.278766
20
21.938884
11
89.553926
21
23.691135
0
LINE
8
Layer 1
10
89.553926
20
23.691135
11
86.619381
21
25.746605
0
LINE
8
Layer 1
10
86.619381
20
25.746605
11
84.526354
21
27.397606
0
LINE
8
Layer 1
10
84.526354
20
27.397606
11
82.550799
21
29.082119
0
LINE
8
Layer 1
10
82.550799
20
29.082119
11
80.319669
21
31.267215
0
LINE
8
Layer 1
10
80.319669
20
31.267215
11
77.933743
21
34.048186
0
LINE
8
Layer 1
10
77.933743
20
34.048186
11
76.032925
21
36.625950
0
LINE
8
Layer 1
10
76.032925
20
36.625950
11
75.464401
21
37.588916
0
LINE
8
Layer 1
10
75.464401
20
37.588916
11
75.257118
21
38.201425
0
LINE
8
Layer 1
10
75.257118
20
38.201425
11
74.957257
21
38.889342
0
LINE
8
Layer 1
10
74.957257
20
38.889342
11
74.805583
21
39.260507
0
LINE
8
Layer 1
10
74.805583
20
39.260507
11
75.018993
21
39.788925
0
LINE
8
Layer 1
10
75.018993
20
39.788925
11
75.279604
21
40.098120
0
LINE
8
Layer 1
10
75.279604
20
40.098120
11
75.661387
21
40.280330
0
LINE
8
Layer 1
10
75.661387
20
40.280330
11
77.259132
21
40.388647
0
LINE
8
Layer 1
10
77.259132
20
40.388647
11
79.068720
21
40.545389
0
LINE
8
Layer 1
10
79.068720
20
40.545389
11
80.786910
21
40.970731
0
LINE
8
Layer 1
10
80.786910
20
40.970731
11
82.709549
21
41.543994
0
LINE
8
Layer 1
10
82.709549
20
41.543994
11
82.709549
21
41.543994
0
LINE
8
Layer 1
10
88.115868
20
41.041286
11
89.985590
21
40.644411
0
LINE
8
Layer 1
10
89.985590
20
40.644411
11
93.319340
21
39.656633
0
LINE
8
Layer 1
10
93.319340
20
39.656633
11
96.564896
21
38.430731
0
LINE
8
Layer 1
10
96.564896
20
38.430731
11
100.939340
21
36.287606
0
LINE
8
Layer 1
10
100.939340
20
36.287606
11
104.070243
21
34.576633
0
LINE
8
Layer 1
10
104.070243
20
34.576633
11
104.775799
21
34.179758
0
LINE
8
Layer 1
10
104.775799
20
34.179758
11
105.350541
21
33.753463
0
LINE
8
Layer 1
10
105.350541
20
33.753463
11
106.305304
21
32.694025
0
LINE
8
Layer 1
10
106.305304
20
32.694025
11
108.259479
21
29.990522
0
LINE
8
Layer 1
10
108.259479
20
29.990522
11
108.879210
21
28.663413
0
LINE
8
Layer 1
10
108.879210
20
28.663413
11
109.185521
21
27.485800
0
LINE
8
Layer 1
10
109.185521
20
27.485800
11
109.139326
21
26.581772
0
LINE
8
Layer 1
10
109.139326
20
26.581772
11
108.936124
21
26.424703
0
LINE
8
Layer 1
10
108.936124
20
26.424703
11
108.559340
21
26.365731
0
LINE
8
Layer 1
10
108.559340
20
26.365731
11
107.805202
21
26.412934
0
LINE
8
Layer 1
10
107.805202
20
26.412934
11
106.896765
21
26.631062
0
LINE
8
Layer 1
10
106.896765
20
26.631062
11
104.843112
21
27.467034
0
LINE
8
Layer 1
10
104.843112
20
27.467034
11
102.850610
21
28.647528
0
LINE
8
Layer 1
10
102.850610
20
28.647528
11
101.371493
21
29.946425
0
LINE
8
Layer 1
10
101.371493
20
29.946425
11
100.627820
21
30.922297
0
LINE
8
Layer 1
10
100.627820
20
30.922297
11
100.076495
21
31.887348
0
LINE
8
Layer 1
10
100.076495
20
31.887348
11
99.254826
21
34.426703
0
LINE
8
Layer 1
10
99.254826
20
34.426703
11
98.845696
21
35.651713
0
LINE
8
Layer 1
10
98.845696
20
35.651713
11
98.372882
21
36.463994
0
LINE
8
Layer 1
10
98.372882
20
36.463994
11
97.765648
21
36.837748
0
LINE
8
Layer 1
10
97.765648
20
36.837748
11
96.785382
21
36.596286
0
LINE
8
Layer 1
10
96.785382
20
36.596286
11
94.765729
21
35.714342
0
LINE
8
Layer 1
10
94.765729
20
35.714342
11
93.459060
21
35.343258
0
LINE
8
Layer 1
10
93.459060
20
35.343258
11
91.803522
21
35.242897
0
LINE
8
Layer 1
10
91.803522
20
35.242897
11
90.211362
21
35.404716
0
LINE
8
Layer 1
10
90.211362
20
35.404716
11
89.094826
21
35.820175
0
LINE
8
Layer 1
10
89.094826
20
35.820175
11
88.408662
21
36.545156
0
LINE
8
Layer 1
10
88.408662
20
36.545156
11
87.778463
21
37.587658
0
LINE
8
Layer 1
10
87.778463
20
37.587658
11
87.314762
21
38.727581
0
LINE
8
Layer 1
10
87.314762
20
38.727581
11
87.128090
21
39.744828
0
LINE
8
Layer 1
10
87.128090
20
39.744828
11
87.174477
21
40.311002
0
LINE
8
Layer 1
10
87.174477
20
40.311002
11
87.342436
21
40.712719
0
LINE
8
Layer 1
10
87.342436
20
40.712719
11
87.650167
21
40.954605
0
LINE
8
Layer 1
10
87.650167
20
40.954605
11
88.115868
21
41.041286
0
LINE
8
Layer 1
10
88.115868
20
41.041286
11
88.115868
21
41.041286
0
LINE
8
Layer 1
10
49.530799
20
39.806564
11
49.835969
21
39.758759
0
LINE
8
Layer 1
10
49.835969
20
39.758759
11
50.052745
21
39.564493
0
LINE
8
Layer 1
10
50.052745
20
39.564493
11
50.315729
21
38.686494
0
LINE
8
Layer 1
10
50.315729
20
38.686494
11
50.518682
21
37.844208
0
LINE
8
Layer 1
10
50.518682
20
37.844208
11
50.747882
21
37.407675
0
LINE
8
Layer 1
10
50.747882
20
37.407675
11
50.994826
21
36.772675
0
LINE
8
Layer 1
10
50.994826
20
36.772675
11
51.411491
21
36.104507
0
LINE
8
Layer 1
10
51.411491
20
36.104507
11
52.405938
21
35.167536
0
LINE
8
Layer 1
10
52.405938
20
35.167536
11
53.808229
21
34.038647
0
LINE
8
Layer 1
10
53.808229
20
34.038647
11
53.596563
21
32.627536
0
LINE
8
Layer 1
10
53.596563
20
32.627536
11
53.402535
21
27.124203
0
LINE
8
Layer 1
10
53.402535
20
27.124203
11
53.507904
21
24.065280
0
LINE
8
Layer 1
10
53.507904
20
24.065280
11
53.797251
21
21.374528
0
LINE
8
Layer 1
10
53.797251
20
21.374528
11
54.257452
21
19.144290
0
LINE
8
Layer 1
10
54.257452
20
19.144290
11
54.875382
21
17.466911
0
LINE
8
Layer 1
10
54.875382
20
17.466911
11
55.810243
21
15.200314
0
LINE
8
Layer 1
10
55.810243
20
15.200314
11
56.101285
21
13.877397
0
LINE
8
Layer 1
10
56.101285
20
13.877397
11
53.526007
21
14.935731
0
LINE
8
Layer 1
10
53.526007
20
14.935731
11
51.580543
21
15.561794
0
LINE
8
Layer 1
10
51.580543
20
15.561794
11
48.728229
21
16.064619
0
LINE
8
Layer 1
10
48.728229
20
16.064619
11
47.506232
21
16.276295
0
LINE
8
Layer 1
10
47.506232
20
16.276295
11
46.826715
21
16.568168
0
LINE
8
Layer 1
10
46.826715
20
16.568168
11
46.533510
21
17.066878
0
LINE
8
Layer 1
10
46.533510
20
17.066878
11
46.470451
21
17.899064
0
LINE
8
Layer 1
10
46.470451
20
17.899064
11
46.268717
21
20.120750
0
LINE
8
Layer 1
10
46.268717
20
20.120750
11
45.742952
21
22.712474
0
LINE
8
Layer 1
10
45.742952
20
22.712474
11
45.012082
21
25.190549
0
LINE
8
Layer 1
10
45.012082
20
25.190549
11
44.195035
21
27.071286
0
LINE
8
Layer 1
10
44.195035
20
27.071286
11
43.804906
21
27.839591
0
LINE
8
Layer 1
10
43.804906
20
27.839591
11
43.695383
21
28.441491
0
LINE
8
Layer 1
10
43.695383
20
28.441491
11
43.879783
21
29.055025
0
LINE
8
Layer 1
10
43.879783
20
29.055025
11
44.371424
21
29.858231
0
LINE
8
Layer 1
10
44.371424
20
29.858231
11
45.535590
21
31.921981
0
LINE
8
Layer 1
10
45.535590
20
31.921981
11
46.294063
21
33.588856
0
LINE
8
Layer 1
10
46.294063
20
33.588856
11
46.515159
21
34.763203
0
LINE
8
Layer 1
10
46.515159
20
34.763203
11
46.593924
21
36.631564
0
LINE
8
Layer 1
10
46.593924
20
36.631564
11
46.671700
21
38.700517
0
LINE
8
Layer 1
10
46.671700
20
38.700517
11
46.885666
21
39.014560
0
LINE
8
Layer 1
10
46.885666
20
39.014560
11
47.299479
21
39.145106
0
LINE
8
Layer 1
10
47.299479
20
39.145106
11
48.675313
21
39.559619
0
LINE
8
Layer 1
10
48.675313
20
39.559619
11
49.530799
21
39.806564
0
LINE
8
Layer 1
10
49.530799
20
39.806564
11
49.530799
21
39.806564
0
LINE
8
Layer 1
10
72.505451
20
37.566425
11
72.888896
21
37.420908
0
LINE
8
Layer 1
10
72.888896
20
37.420908
11
73.356111
21
36.897425
0
LINE
8
Layer 1
10
73.356111
20
36.897425
11
75.116007
21
34.232675
0
LINE
8
Layer 1
10
75.116007
20
34.232675
11
77.294410
21
31.163508
0
LINE
8
Layer 1
10
77.294410
20
31.163508
11
80.035049
21
28.314436
0
LINE
8
Layer 1
10
80.035049
20
28.314436
11
82.418507
21
26.136425
0
LINE
8
Layer 1
10
82.418507
20
26.136425
11
87.536183
21
22.315617
0
LINE
8
Layer 1
10
87.536183
20
22.315617
11
90.638229
21
20.306772
0
LINE
8
Layer 1
10
90.638229
20
20.306772
11
95.012674
21
17.819689
0
LINE
8
Layer 1
10
95.012674
20
17.819689
11
98.963785
21
15.606008
0
LINE
8
Layer 1
10
98.963785
20
15.606008
11
102.350451
21
13.639272
0
LINE
8
Layer 1
10
102.350451
20
13.639272
11
104.467118
21
12.307536
0
LINE
8
Layer 1
10
104.467118
20
12.307536
11
101.080451
21
12.139967
0
LINE
8
Layer 1
10
101.080451
20
12.139967
11
98.408734
21
11.924705
0
LINE
8
Layer 1
10
98.408734
20
11.924705
11
96.106813
21
11.566407
0
LINE
8
Layer 1
10
96.106813
20
11.566407
11
94.250009
21
11.080374
0
LINE
8
Layer 1
10
94.250009
20
11.080374
11
92.913646
21
10.481911
0
LINE
8
Layer 1
10
92.913646
20
10.481911
11
91.687743
21
9.908647
0
LINE
8
Layer 1
10
91.687743
20
9.908647
11
91.163065
21
10.408572
0
LINE
8
Layer 1
10
91.163065
20
10.408572
11
90.329549
21
11.610800
0
LINE
8
Layer 1
10
90.329549
20
11.610800
11
89.170204
21
13.114876
0
LINE
8
Layer 1
10
89.170204
20
13.114876
11
87.569616
21
14.735934
0
LINE
8
Layer 1
10
87.569616
20
14.735934
11
85.851893
21
16.174668
0
LINE
8
Layer 1
10
85.851893
20
16.174668
11
84.341146
21
17.131772
0
LINE
8
Layer 1
10
84.341146
20
17.131772
11
82.400206
21
17.807981
0
LINE
8
Layer 1
10
82.400206
20
17.807981
11
80.203154
21
18.247096
0
LINE
8
Layer 1
10
80.203154
20
18.247096
11
78.333257
21
18.368880
0
LINE
8
Layer 1
10
78.333257
20
18.368880
11
77.703264
21
18.285697
0
LINE
8
Layer 1
10
77.703264
20
18.285697
11
77.373785
21
18.093092
0
LINE
8
Layer 1
10
77.373785
20
18.093092
11
77.023993
21
17.872295
0
LINE
8
Layer 1
10
77.023993
20
17.872295
11
76.502334
21
17.819442
0
LINE
8
Layer 1
10
76.502334
20
17.819442
11
76.028345
21
17.923257
0
LINE
8
Layer 1
10
76.028345
20
17.923257
11
75.821563
21
18.172467
0
LINE
8
Layer 1
10
75.821563
20
18.172467
11
75.466385
21
19.194892
0
LINE
8
Layer 1
10
75.466385
20
19.194892
11
74.585586
21
20.925896
0
LINE
8
Layer 1
10
74.585586
20
20.925896
11
72.355521
21
24.487189
0
LINE
8
Layer 1
10
72.355521
20
24.487189
11
71.033974
21
26.038533
0
LINE
8
Layer 1
10
71.033974
20
26.038533
11
69.700868
21
27.344689
0
LINE
8
Layer 1
10
69.700868
20
27.344689
11
68.620799
21
28.403870
0
LINE
8
Layer 1
10
68.620799
20
28.403870
11
68.545709
21
28.750931
0
LINE
8
Layer 1
10
68.545709
20
28.750931
11
68.686632
21
29.143856
0
LINE
8
Layer 1
10
68.686632
20
29.143856
11
69.266194
21
30.531184
0
LINE
8
Layer 1
10
69.266194
20
30.531184
11
69.753466
21
32.096829
0
LINE
8
Layer 1
10
69.753466
20
32.096829
11
70.099786
21
33.658835
0
LINE
8
Layer 1
10
70.099786
20
33.658835
11
70.256493
21
35.035244
0
LINE
8
Layer 1
10
70.256493
20
35.035244
11
70.318229
21
36.807953
0
LINE
8
Layer 1
10
70.318229
20
36.807953
11
71.552951
21
37.257744
0
LINE
8
Layer 1
10
71.552951
20
37.257744
11
72.505451
21
37.566425
0
LINE
8
Layer 1
10
72.505451
20
37.566425
11
72.505451
21
37.566425
0
LINE
8
Layer 1
10
66.446493
20
36.384619
11
66.605243
21
36.384619
0
LINE
8
Layer 1
10
66.605243
20
36.384619
11
66.922874
21
36.295124
0
LINE
8
Layer 1
10
66.922874
20
36.295124
11
67.103329
21
36.088572
0
LINE
8
Layer 1
10
67.103329
20
36.088572
11
67.178507
21
35.017606
0
LINE
8
Layer 1
10
67.178507
20
35.017606
11
67.018263
21
33.806852
0
LINE
8
Layer 1
10
67.018263
20
33.806852
11
66.693438
21
32.689272
0
LINE
8
Layer 1
10
66.693438
20
32.689272
11
66.199244
21
31.857558
0
LINE
8
Layer 1
10
66.199244
20
31.857558
11
65.546910
21
31.639758
0
LINE
8
Layer 1
10
65.546910
20
31.639758
11
65.045881
21
31.734880
0
LINE
8
Layer 1
10
65.045881
20
31.734880
11
64.664474
21
32.049960
0
LINE
8
Layer 1
10
64.664474
20
32.049960
11
64.369302
21
32.629575
0
LINE
8
Layer 1
10
64.369302
20
32.629575
11
64.126979
21
33.518300
0
LINE
8
Layer 1
10
64.126979
20
33.518300
11
64.062242
21
34.019183
0
LINE
8
Layer 1
10
64.062242
20
34.019183
11
64.148567
21
34.434392
0
LINE
8
Layer 1
10
64.148567
20
34.434392
11
64.964826
21
35.440939
0
LINE
8
Layer 1
10
64.964826
20
35.440939
11
65.782948
21
36.121944
0
LINE
8
Layer 1
10
65.782948
20
36.121944
11
66.446493
21
36.384619
0
LINE
8
Layer 1
10
66.446493
20
36.384619
11
66.446493
21
36.384619
0
LINE
8
Layer 1
10
34.969896
20
36.349342
11
35.488908
21
36.141081
0
LINE
8
Layer 1
10
35.488908
20
36.141081
11
36.107604
21
35.308647
0
LINE
8
Layer 1
10
36.107604
20
35.308647
11
36.874896
21
33.853439
0
LINE
8
Layer 1
10
36.874896
20
33.853439
11
36.588554
21
33.257311
0
LINE
8
Layer 1
10
36.588554
20
33.257311
11
35.802202
21
32.210267
0
LINE
8
Layer 1
10
35.802202
20
32.210267
11
33.165509
21
29.229167
0
LINE
8
Layer 1
10
33.165509
20
29.229167
11
29.836894
21
25.841609
0
LINE
8
Layer 1
10
29.836894
20
25.841609
11
26.688439
21
22.979064
0
LINE
8
Layer 1
10
26.688439
20
22.979064
11
21.511457
21
18.860679
0
LINE
8
Layer 1
10
21.511457
20
18.860679
11
17.957189
21
16.390939
0
LINE
8
Layer 1
10
17.957189
20
16.390939
11
16.193300
21
15.270869
0
LINE
8
Layer 1
10
16.193300
20
15.270869
11
14.076633
21
13.859758
0
LINE
8
Layer 1
10
14.076633
20
13.859758
11
12.386123
21
12.842320
0
LINE
8
Layer 1
10
12.386123
20
12.842320
11
12.105719
21
12.761421
0
LINE
8
Layer 1
10
12.105719
20
12.761421
11
12.039341
21
12.889619
0
LINE
8
Layer 1
10
12.039341
20
12.889619
11
12.877189
21
16.258647
0
LINE
8
Layer 1
10
12.877189
20
16.258647
11
13.502330
21
18.163211
0
LINE
8
Layer 1
10
13.502330
20
18.163211
11
13.732675
21
19.539481
0
LINE
8
Layer 1
10
13.732675
20
19.539481
11
13.979619
21
20.509619
0
LINE
8
Layer 1
10
13.979619
20
20.509619
11
14.245159
21
21.289497
0
LINE
8
Layer 1
10
14.245159
20
21.289497
11
14.534135
21
22.793801
0
LINE
8
Layer 1
10
14.534135
20
22.793801
11
14.861564
21
25.977675
0
LINE
8
Layer 1
10
14.861564
20
25.977675
11
14.880360
21
26.637211
0
LINE
8
Layer 1
10
14.880360
20
26.637211
11
15.002086
21
26.977951
0
LINE
8
Layer 1
10
15.002086
20
26.977951
11
15.324748
21
27.105185
0
LINE
8
Layer 1
10
15.324748
20
27.105185
11
15.946356
21
27.124203
0
LINE
8
Layer 1
10
15.946356
20
27.124203
11
17.233051
21
27.260258
0
LINE
8
Layer 1
10
17.233051
20
27.260258
11
18.661364
21
27.630334
0
LINE
8
Layer 1
10
18.661364
20
27.630334
11
20.057294
21
28.177292
0
LINE
8
Layer 1
10
20.057294
20
28.177292
11
21.246842
21
28.843994
0
LINE
8
Layer 1
10
21.246842
20
28.843994
11
22.593519
21
29.955178
0
LINE
8
Layer 1
10
22.593519
20
29.955178
11
23.957820
21
31.402518
0
LINE
8
Layer 1
10
23.957820
20
31.402518
11
25.199149
21
33.021395
0
LINE
8
Layer 1
10
25.199149
20
33.021395
11
26.176911
21
34.647189
0
LINE
8
Layer 1
10
26.176911
20
34.647189
11
27.043558
21
36.119243
0
LINE
8
Layer 1
10
27.043558
20
36.119243
11
27.349905
21
36.314117
0
LINE
8
Layer 1
10
27.349905
20
36.314117
11
27.685036
21
36.269967
0
LINE
8
Layer 1
10
27.685036
20
36.269967
11
28.940864
21
36.108124
0
LINE
8
Layer 1
10
28.940864
20
36.108124
11
30.996443
21
36.049903
0
LINE
8
Layer 1
10
30.996443
20
36.049903
11
33.096266
21
36.097303
0
LINE
8
Layer 1
10
33.096266
20
36.097303
11
34.484826
21
36.252328
0
LINE
8
Layer 1
10
34.484826
20
36.252328
11
34.969896
21
36.349342
0
LINE
8
Layer 1
10
34.969896
20
36.349342
11
34.969896
21
36.349342
0
LINE
8
Layer 1
10
115.958854
20
33.747606
11
116.488021
21
33.042050
0
LINE
8
Layer 1
10
116.488021
20
33.042050
11
118.063910
21
31.076382
0
LINE
8
Layer 1
10
118.063910
20
31.076382
11
119.380799
21
29.999342
0
LINE
8
Layer 1
10
119.380799
20
29.999342
11
121.541563
21
28.843994
0
LINE
8
Layer 1
10
121.541563
20
28.843994
11
123.093785
21
28.244272
0
LINE
8
Layer 1
10
123.093785
20
28.244272
11
125.210451
21
27.688647
0
LINE
8
Layer 1
10
125.210451
20
27.688647
11
128.173785
21
27.062467
0
LINE
8
Layer 1
10
128.173785
20
27.062467
11
141.922940
21
27.095589
0
LINE
8
Layer 1
10
141.922940
20
27.095589
11
155.709464
21
27.396987
0
LINE
8
Layer 1
10
155.709464
20
27.396987
11
169.486483
21
28.033833
0
LINE
8
Layer 1
10
169.486483
20
28.033833
11
183.207118
21
29.073300
0
LINE
8
Layer 1
10
183.207118
20
29.073300
11
185.323785
21
29.187953
0
LINE
8
Layer 1
10
185.323785
20
29.187953
11
185.126225
21
28.834572
0
LINE
8
Layer 1
10
185.126225
20
28.834572
11
184.450660
21
28.164897
0
LINE
8
Layer 1
10
184.450660
20
28.164897
11
178.933458
21
23.418453
0
LINE
8
Layer 1
10
178.933458
20
23.418453
11
175.587118
21
20.862397
0
LINE
8
Layer 1
10
175.587118
20
20.862397
11
174.445601
21
19.915404
0
LINE
8
Layer 1
10
174.445601
20
19.915404
11
174.162833
21
19.478705
0
LINE
8
Layer 1
10
174.162833
20
19.478705
11
174.072429
21
19.026776
0
LINE
8
Layer 1
10
174.072429
20
19.026776
11
174.174669
21
18.529795
0
LINE
8
Layer 1
10
174.174669
20
18.529795
11
174.469831
21
17.957939
0
LINE
8
Layer 1
10
174.469831
20
17.957939
11
175.640035
21
16.470314
0
LINE
8
Layer 1
10
175.640035
20
16.470314
11
179.749896
21
12.042953
0
LINE
8
Layer 1
10
179.749896
20
12.042953
11
181.429754
21
10.222575
0
LINE
8
Layer 1
10
181.429754
20
10.222575
11
182.007674
21
9.432397
0
LINE
8
Layer 1
10
182.007674
20
9.432397
11
178.373553
21
9.722124
0
LINE
8
Layer 1
10
178.373553
20
9.722124
11
174.587095
21
9.829501
0
LINE
8
Layer 1
10
174.587095
20
9.829501
11
166.651389
21
9.618506
0
LINE
8
Layer 1
10
166.651389
20
9.618506
11
158.388998
21
9.042007
0
LINE
8
Layer 1
10
158.388998
20
9.042007
11
149.988365
21
8.342600
0
LINE
8
Layer 1
10
149.988365
20
8.342600
11
141.637932
21
7.762881
0
LINE
8
Layer 1
10
141.637932
20
7.762881
11
133.526141
21
7.545446
0
LINE
8
Layer 1
10
133.526141
20
7.545446
11
129.618625
21
7.648397
0
LINE
8
Layer 1
10
129.618625
20
7.648397
11
125.841435
21
7.932892
0
LINE
8
Layer 1
10
125.841435
20
7.932892
11
122.218127
21
8.429256
0
LINE
8
Layer 1
10
122.218127
20
8.429256
11
118.772257
21
9.167814
0
LINE
8
Layer 1
10
118.772257
20
9.167814
11
116.705510
21
10.065520
0
LINE
8
Layer 1
10
116.705510
20
10.065520
11
115.017745
21
11.152584
0
LINE
8
Layer 1
10
115.017745
20
11.152584
11
113.809353
21
12.349693
0
LINE
8
Layer 1
10
113.809353
20
12.349693
11
113.180729
21
13.577536
0
LINE
8
Layer 1
10
113.180729
20
13.577536
11
112.704479
21
14.662328
0
LINE
8
Layer 1
10
112.704479
20
14.662328
11
112.492117
21
16.025144
0
LINE
8
Layer 1
10
112.492117
20
16.025144
11
112.432601
21
18.639965
0
LINE
8
Layer 1
10
112.432601
20
18.639965
11
112.520049
21
21.400273
0
LINE
8
Layer 1
10
112.520049
20
21.400273
11
112.748576
21
23.199550
0
LINE
8
Layer 1
10
112.748576
20
23.199550
11
113.648160
21
26.277536
0
LINE
8
Layer 1
10
113.648160
20
26.277536
11
115.050451
21
30.651981
0
LINE
8
Layer 1
10
115.050451
20
30.651981
11
115.614896
21
32.477606
0
LINE
8
Layer 1
10
115.614896
20
32.477606
11
115.958854
21
33.747606
0
LINE
8
Layer 1
10
115.958854
20
33.747606
11
115.958854
21
33.747606
0
LINE
8
Layer 1
10
56.118924
20
33.050869
11
58.279688
21
33.042050
0
LINE
8
Layer 1
10
58.279688
20
33.042050
11
60.440451
21
33.033231
0
LINE
8
Layer 1
10
60.440451
20
33.033231
11
61.110729
21
31.560383
0
LINE
8
Layer 1
10
61.110729
20
31.560383
11
61.983343
21
30.145774
0
LINE
8
Layer 1
10
61.983343
20
30.145774
11
63.183299
21
28.817536
0
LINE
8
Layer 1
10
63.183299
20
28.817536
11
64.048218
21
28.019513
0
LINE
8
Layer 1
10
64.048218
20
28.019513
11
64.378883
21
27.439974
0
LINE
8
Layer 1
10
64.378883
20
27.439974
11
64.233023
21
26.667272
0
LINE
8
Layer 1
10
64.233023
20
26.667272
11
63.668368
21
25.289758
0
LINE
8
Layer 1
10
63.668368
20
25.289758
11
63.387520
21
23.905520
0
LINE
8
Layer 1
10
63.387520
20
23.905520
11
63.086285
21
20.774203
0
LINE
8
Layer 1
10
63.086285
20
20.774203
11
63.359688
21
18.384133
0
LINE
8
Layer 1
10
63.359688
20
18.384133
11
63.537029
21
16.679141
0
LINE
8
Layer 1
10
63.537029
20
16.679141
11
63.382582
21
16.155031
0
LINE
8
Layer 1
10
63.382582
20
16.155031
11
63.033368
21
15.561911
0
LINE
8
Layer 1
10
63.033368
20
15.561911
11
61.741254
21
13.156854
0
LINE
8
Layer 1
10
61.741254
20
13.156854
11
61.310244
21
12.067614
0
LINE
8
Layer 1
10
61.310244
20
12.067614
11
61.146007
21
11.328578
0
LINE
8
Layer 1
10
61.146007
20
11.328578
11
61.068426
21
10.863397
0
LINE
8
Layer 1
10
61.068426
20
10.863397
11
60.830350
21
10.832443
0
LINE
8
Layer 1
10
60.830350
20
10.832443
11
59.840729
21
12.095869
0
LINE
8
Layer 1
10
59.840729
20
12.095869
11
58.786298
21
13.969685
0
LINE
8
Layer 1
10
58.786298
20
13.969685
11
57.741701
21
16.540869
0
LINE
8
Layer 1
10
57.741701
20
16.540869
11
56.674549
21
18.895661
0
LINE
8
Layer 1
10
56.674549
20
18.895661
11
56.345024
21
19.740946
0
LINE
8
Layer 1
10
56.345024
20
19.740946
11
56.059283
21
21.087636
0
LINE
8
Layer 1
10
56.059283
20
21.087636
11
55.658149
21
24.709062
0
LINE
8
Layer 1
10
55.658149
20
24.709062
11
55.549139
21
28.607608
0
LINE
8
Layer 1
10
55.549139
20
28.607608
11
55.810243
21
31.630939
0
LINE
8
Layer 1
10
55.810243
20
31.630939
11
56.118924
21
33.050869
0
LINE
8
Layer 1
10
56.118924
20
33.050869
11
56.118924
21
33.050869
0
LINE
8
Layer 1
10
38.912188
20
31.860244
11
39.584750
21
31.726270
0
LINE
8
Layer 1
10
39.584750
20
31.726270
11
40.349757
21
31.295800
0
LINE
8
Layer 1
10
40.349757
20
31.295800
11
40.624709
21
31.069107
0
LINE
8
Layer 1
10
40.624709
20
31.069107
11
40.708479
21
30.867552
0
LINE
8
Layer 1
10
40.708479
20
30.867552
11
40.279201
21
30.175731
0
LINE
8
Layer 1
10
40.279201
20
30.175731
11
39.908810
21
29.536324
0
LINE
8
Layer 1
10
39.908810
20
29.536324
11
39.728614
21
28.835100
0
LINE
8
Layer 1
10
39.728614
20
28.835100
11
39.744337
21
28.129503
0
LINE
8
Layer 1
10
39.744337
20
28.129503
11
39.961701
21
27.476981
0
LINE
8
Layer 1
10
39.961701
20
27.476981
11
40.908315
21
25.471624
0
LINE
8
Layer 1
10
40.908315
20
25.471624
11
41.269855
21
23.919542
0
LINE
8
Layer 1
10
41.269855
20
23.919542
11
41.067717
21
22.428592
0
LINE
8
Layer 1
10
41.067717
20
22.428592
11
40.323299
21
20.606633
0
LINE
8
Layer 1
10
40.323299
20
20.606633
11
39.470929
21
18.620100
0
LINE
8
Layer 1
10
39.470929
20
18.620100
11
39.009201
21
17.175869
0
LINE
8
Layer 1
10
39.009201
20
17.175869
11
38.832813
21
16.117536
0
LINE
8
Layer 1
10
38.832813
20
16.117536
11
36.328090
21
16.117536
0
LINE
8
Layer 1
10
36.328090
20
16.117536
11
33.922040
21
15.969367
0
LINE
8
Layer 1
10
33.922040
20
15.969367
11
31.768438
21
15.420800
0
LINE
8
Layer 1
10
31.768438
20
15.420800
11
29.958459
21
14.695222
0
LINE
8
Layer 1
10
29.958459
20
14.695222
11
28.514909
21
13.827422
0
LINE
8
Layer 1
10
28.514909
20
13.827422
11
27.293627
21
12.709003
0
LINE
8
Layer 1
10
27.293627
20
12.709003
11
26.150453
21
11.231564
0
LINE
8
Layer 1
10
26.150453
20
11.231564
11
24.712884
21
9.353022
0
LINE
8
Layer 1
10
24.712884
20
9.353022
11
23.822120
21
9.908647
0
LINE
8
Layer 1
10
23.822120
20
9.908647
11
22.585743
21
10.711393
0
LINE
8
Layer 1
10
22.585743
20
10.711393
11
21.200082
21
11.261309
0
LINE
8
Layer 1
10
21.200082
20
11.261309
11
19.573218
21
11.584687
0
LINE
8
Layer 1
10
19.573218
20
11.584687
11
17.613231
21
11.707814
0
LINE
8
Layer 1
10
17.613231
20
11.707814
11
14.861564
21
11.787189
0
LINE
8
Layer 1
10
14.861564
20
11.787189
11
17.895453
21
13.842119
0
LINE
8
Layer 1
10
17.895453
20
13.842119
11
22.366388
21
16.932166
0
LINE
8
Layer 1
10
22.366388
20
16.932166
11
25.021564
21
19.036772
0
LINE
8
Layer 1
10
25.021564
20
19.036772
11
26.873648
21
20.527258
0
LINE
8
Layer 1
10
26.873648
20
20.527258
11
29.351385
21
22.659969
0
LINE
8
Layer 1
10
29.351385
20
22.659969
11
33.033538
21
26.129355
0
LINE
8
Layer 1
10
33.033538
20
26.129355
11
36.468993
21
29.533925
0
LINE
8
Layer 1
10
36.468993
20
29.533925
11
38.206632
21
31.472189
0
LINE
8
Layer 1
10
38.206632
20
31.472189
11
38.493814
21
31.759019
0
LINE
8
Layer 1
10
38.493814
20
31.759019
11
38.912188
21
31.860244
0
LINE
8
Layer 1
10
38.912188
20
31.860244
11
38.912188
21
31.860244
0
LINE
8
Layer 1
10
73.061076
20
15.359064
11
73.379768
21
15.194497
0
LINE
8
Layer 1
10
73.379768
20
15.194497
11
73.810729
21
14.697606
0
LINE
8
Layer 1
10
73.810729
20
14.697606
11
74.359507
21
14.128527
0
LINE
8
Layer 1
10
74.359507
20
14.128527
11
75.009319
21
13.901164
0
LINE
8
Layer 1
10
75.009319
20
13.901164
11
75.915322
21
14.003671
0
LINE
8
Layer 1
10
75.915322
20
14.003671
11
77.232674
21
14.424203
0
LINE
8
Layer 1
10
77.232674
20
14.424203
11
78.457100
21
14.784895
0
LINE
8
Layer 1
10
78.457100
20
14.784895
11
79.591534
21
14.963930
0
LINE
8
Layer 1
10
79.591534
20
14.963930
11
80.503448
21
14.950271
0
LINE
8
Layer 1
10
80.503448
20
14.950271
11
81.060313
21
14.732883
0
LINE
8
Layer 1
10
81.060313
20
14.732883
11
82.030451
21
14.380106
0
LINE
8
Layer 1
10
82.030451
20
14.380106
11
82.401695
21
14.296771
0
LINE
8
Layer 1
10
82.401695
20
14.296771
11
82.606564
21
14.124963
0
LINE
8
Layer 1
10
82.606564
20
14.124963
11
82.674271
21
13.233578
0
LINE
8
Layer 1
10
82.674271
20
13.233578
11
82.519949
21
12.320173
0
LINE
8
Layer 1
10
82.519949
20
12.320173
11
82.152720
21
11.518344
0
LINE
8
Layer 1
10
82.152720
20
11.518344
11
81.543558
21
10.784791
0
LINE
8
Layer 1
10
81.543558
20
10.784791
11
80.663438
21
10.076217
0
LINE
8
Layer 1
10
80.663438
20
10.076217
11
79.399197
21
9.496726
0
LINE
8
Layer 1
10
79.399197
20
9.496726
11
77.937827
21
9.302083
0
LINE
8
Layer 1
10
77.937827
20
9.302083
11
76.434767
21
9.492302
0
LINE
8
Layer 1
10
76.434767
20
9.492302
11
75.045451
21
10.067397
0
LINE
8
Layer 1
10
75.045451
20
10.067397
11
74.109893
21
10.836478
0
LINE
8
Layer 1
10
74.109893
20
10.836478
11
73.373057
21
11.858176
0
LINE
8
Layer 1
10
73.373057
20
11.858176
11
72.890335
21
13.031794
0
LINE
8
Layer 1
10
72.890335
20
13.031794
11
72.717118
21
14.256633
0
LINE
8
Layer 1
10
72.717118
20
14.256633
11
72.803424
21
15.085422
0
LINE
8
Layer 1
10
72.803424
20
15.085422
11
73.061076
21
15.359064
0
LINE
8
Layer 1
10
73.061076
20
15.359064
11
73.061076
21
15.359064
 0 
ENDSEC
 0 
EOF
