999
\"DXF R12 Output\" (www.mydxf.blogspot.com)
 0 
SECTION
 2 
HEADER
 9 
$ACADVER
 1 
AC1009
 9 
$EXTMIN
 10 
 0 
 20 
 0 
 9 
$EXTMAX
 10 
 8.5 
 20 
 11 
 0 
ENDSEC
 0 
SECTION
 2 
ENTITIES
0
LINE
8
Layer 1
10
112.009936
20
3.847914
11
109.400484
21
3.933570
0
LINE
8
Layer 1
10
109.400484
20
3.933570
11
106.868040
21
4.394517
0
LINE
8
Layer 1
10
106.868040
20
4.394517
11
104.382166
21
5.106134
0
LINE
8
Layer 1
10
104.382166
20
5.106134
11
101.912426
21
5.943800
0
LINE
8
Layer 1
10
101.912426
20
5.943800
11
96.798758
21
7.670636
0
LINE
8
Layer 1
10
96.798758
20
7.670636
11
92.948557
21
8.593843
0
LINE
8
Layer 1
10
92.948557
20
8.593843
11
91.286740
21
8.788188
0
LINE
8
Layer 1
10
91.286740
20
8.788188
11
89.688168
21
8.822551
0
LINE
8
Layer 1
10
89.688168
20
8.822551
11
86.343936
21
8.465893
0
LINE
8
Layer 1
10
86.343936
20
8.465893
11
83.523766
21
8.212005
0
LINE
8
Layer 1
10
83.523766
20
8.212005
11
80.667602
21
8.400453
0
LINE
8
Layer 1
10
80.667602
20
8.400453
11
77.781660
21
9.030352
0
LINE
8
Layer 1
10
77.781660
20
9.030352
11
74.872156
21
10.100818
0
LINE
8
Layer 1
10
74.872156
20
10.100818
11
73.176407
21
10.936504
0
LINE
8
Layer 1
10
73.176407
20
10.936504
11
71.544097
21
12.020446
0
LINE
8
Layer 1
10
71.544097
20
12.020446
11
69.475614
21
13.729735
0
LINE
8
Layer 1
10
69.475614
20
13.729735
11
66.471346
21
16.441460
0
LINE
8
Layer 1
10
66.471346
20
16.441460
11
63.653397
21
18.863916
0
LINE
8
Layer 1
10
63.653397
20
18.863916
11
61.490149
21
20.148110
0
LINE
8
Layer 1
10
61.490149
20
20.148110
11
59.324855
21
21.000382
0
LINE
8
Layer 1
10
59.324855
20
21.000382
11
56.931578
21
21.558326
0
LINE
8
Layer 1
10
56.931578
20
21.558326
11
54.126838
21
21.852001
0
LINE
8
Layer 1
10
54.126838
20
21.852001
11
50.727158
21
21.911468
0
LINE
8
Layer 1
10
50.727158
20
21.911468
11
46.706518
21
21.926111
0
LINE
8
Layer 1
10
46.706518
20
21.926111
11
43.648324
21
22.120339
0
LINE
8
Layer 1
10
43.648324
20
22.120339
11
41.110426
21
22.542883
0
LINE
8
Layer 1
10
41.110426
20
22.542883
11
38.650672
21
23.242476
0
LINE
8
Layer 1
10
38.650672
20
23.242476
11
36.700283
21
23.975132
0
LINE
8
Layer 1
10
36.700283
20
23.975132
11
34.763312
21
24.905377
0
LINE
8
Layer 1
10
34.763312
20
24.905377
11
32.880935
21
26.022199
0
LINE
8
Layer 1
10
32.880935
20
26.022199
11
31.094327
21
27.314581
0
LINE
8
Layer 1
10
31.094327
20
27.314581
11
28.809045
21
29.422869
0
LINE
8
Layer 1
10
28.809045
20
29.422869
11
26.915018
21
31.829669
0
LINE
8
Layer 1
10
26.915018
20
31.829669
11
26.151230
21
33.135246
0
LINE
8
Layer 1
10
26.151230
20
33.135246
11
25.529060
21
34.503733
0
LINE
8
Layer 1
10
25.529060
20
34.503733
11
25.063112
21
35.931225
0
LINE
8
Layer 1
10
25.063112
20
35.931225
11
24.767986
21
37.413816
0
LINE
8
Layer 1
10
24.767986
20
37.413816
11
25.082930
21
38.553978
0
LINE
8
Layer 1
10
25.082930
20
38.553978
11
26.069823
21
39.527841
0
LINE
8
Layer 1
10
26.069823
20
39.527841
11
28.101882
21
40.873049
0
LINE
8
Layer 1
10
28.101882
20
40.873049
11
30.054959
21
41.749543
0
LINE
8
Layer 1
10
30.054959
20
41.749543
11
32.114934
21
42.633312
0
LINE
8
Layer 1
10
32.114934
20
42.633312
11
34.060497
21
43.677089
0
LINE
8
Layer 1
10
34.060497
20
43.677089
11
35.904412
21
44.861713
0
LINE
8
Layer 1
10
35.904412
20
44.861713
11
37.659445
21
46.168022
0
LINE
8
Layer 1
10
37.659445
20
46.168022
11
40.104274
21
48.268499
0
LINE
8
Layer 1
10
40.104274
20
48.268499
11
42.425219
21
50.529599
0
LINE
8
Layer 1
10
42.425219
20
50.529599
11
46.857545
21
55.290362
0
LINE
8
Layer 1
10
46.857545
20
55.290362
11
49.152404
21
58.317644
0
LINE
8
Layer 1
10
49.152404
20
58.317644
11
51.240094
21
61.505066
0
LINE
8
Layer 1
10
51.240094
20
61.505066
11
55.098157
21
68.075785
0
LINE
8
Layer 1
10
55.098157
20
68.075785
11
58.529342
21
74.505230
0
LINE
8
Layer 1
10
58.529342
20
74.505230
11
60.071776
21
77.794401
0
LINE
8
Layer 1
10
60.071776
20
77.794401
11
61.460024
21
81.156660
0
LINE
8
Layer 1
10
61.460024
20
81.156660
11
66.588350
21
95.487743
0
LINE
8
Layer 1
10
66.588350
20
95.487743
11
71.685370
21
109.830210
0
LINE
8
Layer 1
10
71.685370
20
109.830210
11
73.974122
21
115.381453
0
LINE
8
Layer 1
10
73.974122
20
115.381453
11
74.277538
21
116.062927
0
LINE
8
Layer 1
10
74.277538
20
116.062927
11
74.257630
21
116.232343
0
LINE
8
Layer 1
10
74.257630
20
116.232343
11
74.121883
21
116.287533
0
LINE
8
Layer 1
10
74.121883
20
116.287533
11
73.498592
21
116.055186
0
LINE
8
Layer 1
10
73.498592
20
116.055186
11
72.399102
21
115.365801
0
LINE
8
Layer 1
10
72.399102
20
115.365801
11
71.115565
21
114.081301
0
LINE
8
Layer 1
10
71.115565
20
114.081301
11
69.121091
21
111.787819
0
LINE
8
Layer 1
10
69.121091
20
111.787819
11
67.272466
21
109.505492
0
LINE
8
Layer 1
10
67.272466
20
109.505492
11
66.426478
21
108.254459
0
LINE
8
Layer 1
10
66.426478
20
108.254459
11
58.889527
21
94.912787
0
LINE
8
Layer 1
10
58.889527
20
94.912787
11
56.670678
21
91.298540
0
LINE
8
Layer 1
10
56.670678
20
91.298540
11
54.237636
21
87.821948
0
LINE
8
Layer 1
10
54.237636
20
87.821948
11
52.555487
21
85.669285
0
LINE
8
Layer 1
10
52.555487
20
85.669285
11
50.589247
21
83.612828
0
LINE
8
Layer 1
10
50.589247
20
83.612828
11
48.489223
21
81.795759
0
LINE
8
Layer 1
10
48.489223
20
81.795759
11
46.405721
21
80.361257
0
LINE
8
Layer 1
10
46.405721
20
80.361257
11
45.150873
21
79.688587
0
LINE
8
Layer 1
10
45.150873
20
79.688587
11
44.001790
21
79.261474
0
LINE
8
Layer 1
10
44.001790
20
79.261474
11
42.733384
21
79.017425
0
LINE
8
Layer 1
10
42.733384
20
79.017425
11
41.120568
21
78.893949
0
LINE
8
Layer 1
10
41.120568
20
78.893949
11
40.209029
21
78.807496
0
LINE
8
Layer 1
10
40.209029
20
78.807496
11
39.461076
21
78.547999
0
LINE
8
Layer 1
10
39.461076
20
78.547999
11
37.318882
21
76.919266
0
LINE
8
Layer 1
10
37.318882
20
76.919266
11
35.045649
21
75.178222
0
LINE
8
Layer 1
10
35.045649
20
75.178222
11
33.170963
21
74.064729
0
LINE
8
Layer 1
10
33.170963
20
74.064729
11
30.207107
21
72.966553
0
LINE
8
Layer 1
10
30.207107
20
72.966553
11
27.188376
21
72.223185
0
LINE
8
Layer 1
10
27.188376
20
72.223185
11
24.254250
21
71.860539
0
LINE
8
Layer 1
10
24.254250
20
71.860539
11
21.544206
21
71.904530
0
LINE
8
Layer 1
10
21.544206
20
71.904530
11
19.198296
21
71.956639
0
LINE
8
Layer 1
10
19.198296
20
71.956639
11
16.826636
21
71.754052
0
LINE
8
Layer 1
10
16.826636
20
71.754052
11
14.578768
21
71.512065
0
LINE
8
Layer 1
10
14.578768
20
71.512065
11
12.432579
21
71.534082
0
LINE
8
Layer 1
10
12.432579
20
71.534082
11
10.327964
21
71.824522
0
LINE
8
Layer 1
10
10.327964
20
71.824522
11
8.204818
21
72.387804
0
LINE
8
Layer 1
10
8.204818
20
72.387804
11
5.970660
21
73.297730
0
LINE
8
Layer 1
10
5.970660
20
73.297730
11
3.963805
21
74.707352
0
LINE
8
Layer 1
10
3.963805
20
74.707352
11
2.431191
21
76.060131
0
LINE
8
Layer 1
10
2.431191
20
76.060131
11
1.463209
21
77.110333
0
LINE
8
Layer 1
10
1.463209
20
77.110333
11
1.176500
21
77.585655
0
LINE
8
Layer 1
10
1.176500
20
77.585655
11
1.096783
21
77.946753
0
LINE
8
Layer 1
10
1.096783
20
77.946753
11
1.233137
21
78.309679
0
LINE
8
Layer 1
10
1.233137
20
78.309679
11
1.594642
21
78.790484
0
LINE
8
Layer 1
10
1.594642
20
78.790484
11
2.559422
21
79.690747
0
LINE
8
Layer 1
10
2.559422
20
79.690747
11
3.899772
21
80.668027
0
LINE
8
Layer 1
10
3.899772
20
80.668027
11
6.237185
21
82.291245
0
LINE
8
Layer 1
10
6.237185
20
82.291245
11
8.512736
21
84.178507
0
LINE
8
Layer 1
10
8.512736
20
84.178507
11
11.065836
21
86.635144
0
LINE
8
Layer 1
10
11.065836
20
86.635144
11
14.235893
21
89.966492
0
LINE
8
Layer 1
10
14.235893
20
89.966492
11
19.881079
21
96.260529
0
LINE
8
Layer 1
10
19.881079
20
96.260529
11
24.356624
21
101.769940
0
LINE
8
Layer 1
10
24.356624
20
101.769940
11
28.007039
21
106.947827
0
LINE
8
Layer 1
10
28.007039
20
106.947827
11
31.176835
21
112.247291
0
LINE
8
Layer 1
10
31.176835
20
112.247291
11
34.104338
21
118.473750
0
LINE
8
Layer 1
10
34.104338
20
118.473750
11
36.774600
21
124.816054
0
LINE
8
Layer 1
10
36.774600
20
124.816054
11
40.000185
21
133.554381
0
LINE
8
Layer 1
10
40.000185
20
133.554381
11
43.543559
21
142.170672
0
LINE
8
Layer 1
10
43.543559
20
142.170672
11
46.335253
21
148.134732
0
LINE
8
Layer 1
10
46.335253
20
148.134732
11
49.430528
21
153.954647
0
LINE
8
Layer 1
10
49.430528
20
153.954647
11
51.352434
21
156.619176
0
LINE
8
Layer 1
10
51.352434
20
156.619176
11
53.946054
21
159.548087
0
LINE
8
Layer 1
10
53.946054
20
159.548087
11
56.670557
21
162.176247
0
LINE
8
Layer 1
10
56.670557
20
162.176247
11
58.985110
21
163.938526
0
LINE
8
Layer 1
10
58.985110
20
163.938526
11
60.601831
21
164.828295
0
LINE
8
Layer 1
10
60.601831
20
164.828295
11
62.230937
21
165.550787
0
LINE
8
Layer 1
10
62.230937
20
165.550787
11
63.876419
21
166.102918
0
LINE
8
Layer 1
10
63.876419
20
166.102918
11
65.542270
21
166.481608
0
LINE
8
Layer 1
10
65.542270
20
166.481608
11
67.301233
21
166.688181
0
LINE
8
Layer 1
10
67.301233
20
166.688181
11
69.091055
21
166.700235
0
LINE
8
Layer 1
10
69.091055
20
166.700235
11
70.916232
21
166.514299
0
LINE
8
Layer 1
10
70.916232
20
166.514299
11
72.781259
21
166.126905
0
LINE
8
Layer 1
10
72.781259
20
166.126905
11
75.900032
21
164.975270
0
LINE
8
Layer 1
10
75.900032
20
164.975270
11
78.270357
21
163.862714
0
LINE
8
Layer 1
10
78.270357
20
163.862714
11
80.178541
21
162.632460
0
LINE
8
Layer 1
10
80.178541
20
162.632460
11
81.910894
21
161.127734
0
LINE
8
Layer 1
10
81.910894
20
161.127734
11
83.439209
21
159.507506
0
LINE
8
Layer 1
10
83.439209
20
159.507506
11
84.720854
21
157.839902
0
LINE
8
Layer 1
10
84.720854
20
157.839902
11
85.828457
21
156.018874
0
LINE
8
Layer 1
10
85.828457
20
156.018874
11
86.834647
21
153.938374
0
LINE
8
Layer 1
10
86.834647
20
153.938374
11
87.607051
21
152.283532
0
LINE
8
Layer 1
10
87.607051
20
152.283532
11
88.153872
21
151.578371
0
LINE
8
Layer 1
10
88.153872
20
151.578371
11
88.396284
21
151.553479
0
LINE
8
Layer 1
10
88.396284
20
151.553479
11
88.646616
21
151.731880
0
LINE
8
Layer 1
10
88.646616
20
151.731880
11
89.256788
21
152.653049
0
LINE
8
Layer 1
10
89.256788
20
152.653049
11
90.554027
21
154.593242
0
LINE
8
Layer 1
10
90.554027
20
154.593242
11
92.313430
21
156.777726
0
LINE
8
Layer 1
10
92.313430
20
156.777726
11
94.265084
21
158.893718
0
LINE
8
Layer 1
10
94.265084
20
158.893718
11
96.139076
21
160.628434
0
LINE
8
Layer 1
10
96.139076
20
160.628434
11
98.415122
21
162.688719
0
LINE
8
Layer 1
10
98.415122
20
162.688719
11
96.937108
21
163.097487
0
LINE
8
Layer 1
10
96.937108
20
163.097487
11
94.167067
21
163.668763
0
LINE
8
Layer 1
10
94.167067
20
163.668763
11
91.775820
21
164.500558
0
LINE
8
Layer 1
10
91.775820
20
164.500558
11
89.585446
21
165.670611
0
LINE
8
Layer 1
10
89.585446
20
165.670611
11
87.418020
21
167.256663
0
LINE
8
Layer 1
10
87.418020
20
167.256663
11
85.252247
21
169.035973
0
LINE
8
Layer 1
10
85.252247
20
169.035973
11
83.097723
21
168.680276
0
LINE
8
Layer 1
10
83.097723
20
168.680276
11
80.933509
21
168.799358
0
LINE
8
Layer 1
10
80.933509
20
168.799358
11
78.788675
21
169.364150
0
LINE
8
Layer 1
10
78.788675
20
169.364150
11
76.692289
21
170.345585
0
LINE
8
Layer 1
10
76.692289
20
170.345585
11
74.265937
21
172.708279
0
LINE
8
Layer 1
10
74.265937
20
172.708279
11
72.170852
21
174.904305
0
LINE
8
Layer 1
10
72.170852
20
174.904305
11
71.685831
21
175.651969
0
LINE
8
Layer 1
10
71.685831
20
175.651969
11
71.346260
21
176.461141
0
LINE
8
Layer 1
10
71.346260
20
176.461141
11
71.000373
21
177.782207
0
LINE
8
Layer 1
10
71.000373
20
177.782207
11
70.820637
21
179.222574
0
LINE
8
Layer 1
10
70.820637
20
179.222574
11
70.819478
21
180.589384
0
LINE
8
Layer 1
10
70.819478
20
180.589384
11
71.009327
21
181.689779
0
LINE
8
Layer 1
10
71.009327
20
181.689779
11
71.156933
21
182.306253
0
LINE
8
Layer 1
10
71.156933
20
182.306253
11
71.037521
21
182.669972
0
LINE
8
Layer 1
10
71.037521
20
182.669972
11
70.552061
21
182.873862
0
LINE
8
Layer 1
10
70.552061
20
182.873862
11
69.601526
21
183.010850
0
LINE
8
Layer 1
10
69.601526
20
183.010850
11
68.406035
21
183.233642
0
LINE
8
Layer 1
10
68.406035
20
183.233642
11
67.342589
21
183.644950
0
LINE
8
Layer 1
10
67.342589
20
183.644950
11
66.327902
21
184.286987
0
LINE
8
Layer 1
10
66.327902
20
184.286987
11
65.278691
21
185.201969
0
LINE
8
Layer 1
10
65.278691
20
185.201969
11
64.429878
21
186.152427
0
LINE
8
Layer 1
10
64.429878
20
186.152427
11
63.888014
21
187.081364
0
LINE
8
Layer 1
10
63.888014
20
187.081364
11
63.621225
21
188.064127
0
LINE
8
Layer 1
10
63.621225
20
188.064127
11
63.597640
21
189.176067
0
LINE
8
Layer 1
10
63.597640
20
189.176067
11
63.843715
21
190.353967
0
LINE
8
Layer 1
10
63.843715
20
190.353967
11
64.366023
21
191.665475
0
LINE
8
Layer 1
10
64.366023
20
191.665475
11
65.068542
21
192.910189
0
LINE
8
Layer 1
10
65.068542
20
192.910189
11
65.855249
21
193.887708
0
LINE
8
Layer 1
10
65.855249
20
193.887708
11
67.651038
21
195.201425
0
LINE
8
Layer 1
10
67.651038
20
195.201425
11
70.207472
21
196.484612
0
LINE
8
Layer 1
10
70.207472
20
196.484612
11
73.240105
21
197.614462
0
LINE
8
Layer 1
10
73.240105
20
197.614462
11
76.464490
21
198.468166
0
LINE
8
Layer 1
10
76.464490
20
198.468166
11
78.894494
21
199.104196
0
LINE
8
Layer 1
10
78.894494
20
199.104196
11
78.571257
21
199.693197
0
LINE
8
Layer 1
10
78.571257
20
199.693197
11
77.574786
21
200.884076
0
LINE
8
Layer 1
10
77.574786
20
200.884076
11
76.365893
21
202.404512
0
LINE
8
Layer 1
10
76.365893
20
202.404512
11
75.688452
21
203.727801
0
LINE
8
Layer 1
10
75.688452
20
203.727801
11
75.391539
21
205.196152
0
LINE
8
Layer 1
10
75.391539
20
205.196152
11
75.364628
21
206.551159
0
LINE
8
Layer 1
10
75.364628
20
206.551159
11
75.587500
21
207.790668
0
LINE
8
Layer 1
10
75.587500
20
207.790668
11
76.039938
21
208.912525
0
LINE
8
Layer 1
10
76.039938
20
208.912525
11
77.008096
21
210.268023
0
LINE
8
Layer 1
10
77.008096
20
210.268023
11
78.324146
21
211.387957
0
LINE
8
Layer 1
10
78.324146
20
211.387957
11
79.934368
21
212.266601
0
LINE
8
Layer 1
10
79.934368
20
212.266601
11
81.785039
21
212.898231
0
LINE
8
Layer 1
10
81.785039
20
212.898231
11
83.560120
21
212.968970
0
LINE
8
Layer 1
10
83.560120
20
212.968970
11
85.592897
21
212.888274
0
LINE
8
Layer 1
10
85.592897
20
212.888274
11
87.149765
21
212.895779
0
LINE
8
Layer 1
10
87.149765
20
212.895779
11
88.867326
21
213.147410
0
LINE
8
Layer 1
10
88.867326
20
213.147410
11
90.718948
21
213.612298
0
LINE
8
Layer 1
10
90.718948
20
213.612298
11
92.678002
21
214.259574
0
LINE
8
Layer 1
10
92.678002
20
214.259574
11
96.811880
21
215.977819
0
LINE
8
Layer 1
10
96.811880
20
215.977819
11
101.055915
21
218.055197
0
LINE
8
Layer 1
10
101.055915
20
218.055197
11
104.272164
21
219.592521
0
LINE
8
Layer 1
10
104.272164
20
219.592521
11
106.986853
21
220.471404
0
LINE
8
Layer 1
10
106.986853
20
220.471404
11
110.058618
21
220.883392
0
LINE
8
Layer 1
10
110.058618
20
220.883392
11
114.346093
21
221.020037
0
LINE
8
Layer 1
10
114.346093
20
221.020037
11
119.535220
21
221.262206
0
LINE
8
Layer 1
10
119.535220
20
221.262206
11
124.572528
21
221.739004
0
LINE
8
Layer 1
10
124.572528
20
221.739004
11
127.291565
21
221.940254
0
LINE
8
Layer 1
10
127.291565
20
221.940254
11
129.519407
21
221.889678
0
LINE
8
Layer 1
10
129.519407
20
221.889678
11
131.349050
21
221.599162
0
LINE
8
Layer 1
10
131.349050
20
221.599162
11
132.873492
21
221.080590
0
LINE
8
Layer 1
10
132.873492
20
221.080590
11
134.185730
21
220.345846
0
LINE
8
Layer 1
10
134.185730
20
220.345846
11
135.378760
21
219.406815
0
LINE
8
Layer 1
10
135.378760
20
219.406815
11
137.779190
21
216.963430
0
LINE
8
Layer 1
10
137.779190
20
216.963430
11
139.032376
21
215.370640
0
LINE
8
Layer 1
10
139.032376
20
215.370640
11
139.668755
21
213.536259
0
LINE
8
Layer 1
10
139.668755
20
213.536259
11
139.966487
21
211.774610
0
LINE
8
Layer 1
10
139.966487
20
211.774610
11
139.925091
21
210.061408
0
LINE
8
Layer 1
10
139.925091
20
210.061408
11
139.515499
21
208.367584
0
LINE
8
Layer 1
10
139.515499
20
208.367584
11
138.708644
21
206.664071
0
LINE
8
Layer 1
10
138.708644
20
206.664071
11
140.618876
21
204.803959
0
LINE
8
Layer 1
10
140.618876
20
204.803959
11
142.261598
21
203.027186
0
LINE
8
Layer 1
10
142.261598
20
203.027186
11
143.271802
21
201.447476
0
LINE
8
Layer 1
10
143.271802
20
201.447476
11
143.834494
21
199.975071
0
LINE
8
Layer 1
10
143.834494
20
199.975071
11
144.218202
21
198.281396
0
LINE
8
Layer 1
10
144.218202
20
198.281396
11
144.388140
21
196.579789
0
LINE
8
Layer 1
10
144.388140
20
196.579789
11
144.309519
21
195.083585
0
LINE
8
Layer 1
10
144.309519
20
195.083585
11
143.953599
21
191.981653
0
LINE
8
Layer 1
10
143.953599
20
191.981653
11
143.953484
21
190.911664
0
LINE
8
Layer 1
10
143.953484
20
190.911664
11
144.075923
21
190.244970
0
LINE
8
Layer 1
10
144.075923
20
190.244970
11
145.123517
21
188.110356
0
LINE
8
Layer 1
10
145.123517
20
188.110356
11
146.372309
21
186.601933
0
LINE
8
Layer 1
10
146.372309
20
186.601933
11
147.274671
21
185.605679
0
LINE
8
Layer 1
10
147.274671
20
185.605679
11
147.766606
21
184.738662
0
LINE
8
Layer 1
10
147.766606
20
184.738662
11
147.886622
21
183.893114
0
LINE
8
Layer 1
10
147.886622
20
183.893114
11
147.673227
21
182.961269
0
LINE
8
Layer 1
10
147.673227
20
182.961269
11
147.119377
21
181.911700
0
LINE
8
Layer 1
10
147.119377
20
181.911700
11
146.035474
21
181.036643
0
LINE
8
Layer 1
10
146.035474
20
181.036643
11
144.471883
21
179.845416
0
LINE
8
Layer 1
10
144.471883
20
179.845416
11
143.486235
21
178.586879
0
LINE
8
Layer 1
10
143.486235
20
178.586879
11
142.886931
21
176.905656
0
LINE
8
Layer 1
10
142.886931
20
176.905656
11
142.482372
21
174.446370
0
LINE
8
Layer 1
10
142.482372
20
174.446370
11
141.334290
21
170.274986
0
LINE
8
Layer 1
10
141.334290
20
170.274986
11
140.657763
21
168.634961
0
LINE
8
Layer 1
10
140.657763
20
168.634961
11
139.902290
21
167.262633
0
LINE
8
Layer 1
10
139.902290
20
167.262633
11
139.059905
21
166.135942
0
LINE
8
Layer 1
10
139.059905
20
166.135942
11
138.122642
21
165.232828
0
LINE
8
Layer 1
10
138.122642
20
165.232828
11
137.082534
21
164.531231
0
LINE
8
Layer 1
10
137.082534
20
164.531231
11
135.931616
21
164.009090
0
LINE
8
Layer 1
10
135.931616
20
164.009090
11
134.619413
21
163.728609
0
LINE
8
Layer 1
10
134.619413
20
163.728609
11
133.173857
21
163.649099
0
LINE
8
Layer 1
10
133.173857
20
163.649099
11
131.576222
21
163.547467
0
LINE
8
Layer 1
10
131.576222
20
163.547467
11
129.807781
21
163.200619
0
LINE
8
Layer 1
10
129.807781
20
163.200619
11
129.571841
21
162.299656
0
LINE
8
Layer 1
10
129.571841
20
162.299656
11
129.584710
21
160.669138
0
LINE
8
Layer 1
10
129.584710
20
160.669138
11
129.814362
21
158.774575
0
LINE
8
Layer 1
10
129.814362
20
158.774575
11
130.228772
21
157.081474
0
LINE
8
Layer 1
10
130.228772
20
157.081474
11
130.773610
21
155.885494
0
LINE
8
Layer 1
10
130.773610
20
155.885494
11
131.493499
21
154.721419
0
LINE
8
Layer 1
10
131.493499
20
154.721419
11
133.353213
21
152.572963
0
LINE
8
Layer 1
10
133.353213
20
152.572963
11
135.597490
21
150.804076
0
LINE
8
Layer 1
10
135.597490
20
150.804076
11
136.798081
21
150.114461
0
LINE
8
Layer 1
10
136.798081
20
150.114461
11
138.015904
21
149.582728
0
LINE
8
Layer 1
10
138.015904
20
149.582728
11
139.685817
21
149.130649
0
LINE
8
Layer 1
10
139.685817
20
149.130649
11
141.627524
21
148.778874
0
LINE
8
Layer 1
10
141.627524
20
148.778874
11
143.629583
21
148.558100
0
LINE
8
Layer 1
10
143.629583
20
148.558100
11
145.480552
21
148.499023
0
LINE
8
Layer 1
10
145.480552
20
148.499023
11
148.092138
21
148.806557
0
LINE
8
Layer 1
10
148.092138
20
148.806557
11
151.063513
21
149.511108
0
LINE
8
Layer 1
10
151.063513
20
149.511108
11
153.684623
21
150.409197
0
LINE
8
Layer 1
10
153.684623
20
150.409197
11
154.641938
21
150.867231
0
LINE
8
Layer 1
10
154.641938
20
150.867231
11
155.245418
21
151.297344
0
LINE
8
Layer 1
10
155.245418
20
151.297344
11
156.201949
21
152.004414
0
LINE
8
Layer 1
10
156.201949
20
152.004414
11
157.298263
21
152.415476
0
LINE
8
Layer 1
10
157.298263
20
152.415476
11
158.326766
21
152.483703
0
LINE
8
Layer 1
10
158.326766
20
152.483703
11
159.079867
21
152.162270
0
LINE
8
Layer 1
10
159.079867
20
152.162270
11
159.496360
21
151.866919
0
LINE
8
Layer 1
10
159.496360
20
151.866919
11
159.848637
21
151.788862
0
LINE
8
Layer 1
10
159.848637
20
151.788862
11
160.440714
21
152.482949
0
LINE
8
Layer 1
10
160.440714
20
152.482949
11
161.433739
21
154.044029
0
LINE
8
Layer 1
10
161.433739
20
154.044029
11
163.151401
21
156.486909
0
LINE
8
Layer 1
10
163.151401
20
156.486909
11
164.007205
21
157.362618
0
LINE
8
Layer 1
10
164.007205
20
157.362618
11
164.842691
21
157.996467
0
LINE
8
Layer 1
10
164.842691
20
157.996467
11
165.644135
21
158.379927
0
LINE
8
Layer 1
10
165.644135
20
158.379927
11
166.397814
21
158.504468
0
LINE
8
Layer 1
10
166.397814
20
158.504468
11
167.090004
21
158.361563
0
LINE
8
Layer 1
10
167.090004
20
158.361563
11
167.706980
21
157.942681
0
LINE
8
Layer 1
10
167.706980
20
157.942681
11
168.257761
21
157.126580
0
LINE
8
Layer 1
10
168.257761
20
157.126580
11
168.760099
21
155.959288
0
LINE
8
Layer 1
10
168.760099
20
155.959288
11
169.082238
21
154.810864
0
LINE
8
Layer 1
10
169.082238
20
154.810864
11
169.092423
21
154.051373
0
LINE
8
Layer 1
10
169.092423
20
154.051373
11
170.076907
21
153.831412
0
LINE
8
Layer 1
10
170.076907
20
153.831412
11
170.953319
21
153.881453
0
LINE
8
Layer 1
10
170.953319
20
153.881453
11
172.731083
21
154.463406
0
LINE
8
Layer 1
10
172.731083
20
154.463406
11
174.501416
21
154.795855
0
LINE
8
Layer 1
10
174.501416
20
154.795855
11
176.139881
21
154.851888
0
LINE
8
Layer 1
10
176.139881
20
154.851888
11
177.619505
21
154.630340
0
LINE
8
Layer 1
10
177.619505
20
154.630340
11
178.913313
21
154.130048
0
LINE
8
Layer 1
10
178.913313
20
154.130048
11
180.064140
21
153.344794
0
LINE
8
Layer 1
10
180.064140
20
153.344794
11
180.991821
21
152.366746
0
LINE
8
Layer 1
10
180.991821
20
152.366746
11
181.686724
21
151.233932
0
LINE
8
Layer 1
10
181.686724
20
151.233932
11
182.139216
21
149.984379
0
LINE
8
Layer 1
10
182.139216
20
149.984379
11
182.339667
21
148.656113
0
LINE
8
Layer 1
10
182.339667
20
148.656113
11
182.278444
21
147.287161
0
LINE
8
Layer 1
10
182.278444
20
147.287161
11
181.945915
21
145.915549
0
LINE
8
Layer 1
10
181.945915
20
145.915549
11
181.332449
21
144.579306
0
LINE
8
Layer 1
10
181.332449
20
144.579306
11
180.265947
21
143.147800
0
LINE
8
Layer 1
10
180.265947
20
143.147800
11
178.645470
21
141.363807
0
LINE
8
Layer 1
10
178.645470
20
141.363807
11
176.932737
21
139.704321
0
LINE
8
Layer 1
10
176.932737
20
139.704321
11
175.589469
21
138.646335
0
LINE
8
Layer 1
10
175.589469
20
138.646335
11
172.278795
21
137.017100
0
LINE
8
Layer 1
10
172.278795
20
137.017100
11
170.706355
21
136.392999
0
LINE
8
Layer 1
10
170.706355
20
136.392999
11
169.808624
21
136.162105
0
LINE
8
Layer 1
10
169.808624
20
136.162105
11
169.267434
21
136.083739
0
LINE
8
Layer 1
10
169.267434
20
136.083739
11
169.018817
21
135.659561
0
LINE
8
Layer 1
10
169.018817
20
135.659561
11
169.042557
21
134.771616
0
LINE
8
Layer 1
10
169.042557
20
134.771616
11
169.318438
21
133.301952
0
LINE
8
Layer 1
10
169.318438
20
133.301952
11
169.719672
21
130.544196
0
LINE
8
Layer 1
10
169.719672
20
130.544196
11
169.950508
21
127.255778
0
LINE
8
Layer 1
10
169.950508
20
127.255778
11
169.762196
21
124.044375
0
LINE
8
Layer 1
10
169.762196
20
124.044375
11
169.601466
21
120.501675
0
LINE
8
Layer 1
10
169.601466
20
120.501675
11
169.407289
21
118.729690
0
LINE
8
Layer 1
10
169.407289
20
118.729690
11
169.071024
21
117.023201
0
LINE
8
Layer 1
10
169.071024
20
117.023201
11
168.543006
21
115.431650
0
LINE
8
Layer 1
10
168.543006
20
115.431650
11
167.773576
21
114.004477
0
LINE
8
Layer 1
10
167.773576
20
114.004477
11
164.538434
21
112.541122
0
LINE
8
Layer 1
10
164.538434
20
112.541122
11
161.089019
21
111.531178
0
LINE
8
Layer 1
10
161.089019
20
111.531178
11
157.484185
21
110.903123
0
LINE
8
Layer 1
10
157.484185
20
110.903123
11
153.782790
21
110.585433
0
LINE
8
Layer 1
10
153.782790
20
110.585433
11
150.024196
21
110.506679
0
LINE
8
Layer 1
10
150.024196
20
110.506679
11
146.287284
21
110.596618
0
LINE
8
Layer 1
10
146.287284
20
110.596618
11
139.117632
21
110.991989
0
LINE
8
Layer 1
10
139.117632
20
110.991989
11
137.661355
21
111.119226
0
LINE
8
Layer 1
10
137.661355
20
111.119226
11
136.995908
21
111.038039
0
LINE
8
Layer 1
10
136.995908
20
111.038039
11
138.478177
21
100.570852
0
LINE
8
Layer 1
10
138.478177
20
100.570852
11
139.489871
21
90.040313
0
LINE
8
Layer 1
10
139.489871
20
90.040313
11
139.730700
21
85.183344
0
LINE
8
Layer 1
10
139.730700
20
85.183344
11
139.858652
21
79.482143
0
LINE
8
Layer 1
10
139.858652
20
79.482143
11
139.861399
21
73.992443
0
LINE
8
Layer 1
10
139.861399
20
73.992443
11
139.726611
21
69.769979
0
LINE
8
Layer 1
10
139.726611
20
69.769979
11
139.208731
21
62.865106
0
LINE
8
Layer 1
10
139.208731
20
62.865106
11
138.422312
21
55.984600
0
LINE
8
Layer 1
10
138.422312
20
55.984600
11
137.596182
21
50.459477
0
LINE
8
Layer 1
10
137.596182
20
50.459477
11
136.493054
21
44.984053
0
LINE
8
Layer 1
10
136.493054
20
44.984053
11
133.778670
21
34.139663
0
LINE
8
Layer 1
10
133.778670
20
34.139663
11
131.022496
21
25.668155
0
LINE
8
Layer 1
10
131.022496
20
25.668155
11
127.821058
21
17.350954
0
LINE
8
Layer 1
10
127.821058
20
17.350954
11
126.753877
21
14.920912
0
LINE
8
Layer 1
10
126.753877
20
14.920912
11
125.494240
21
12.598815
0
LINE
8
Layer 1
10
125.494240
20
12.598815
11
124.034153
21
10.399224
0
LINE
8
Layer 1
10
124.034153
20
10.399224
11
122.365626
21
8.336701
0
LINE
8
Layer 1
10
122.365626
20
8.336701
11
121.306640
21
7.254048
0
LINE
8
Layer 1
10
121.306640
20
7.254048
11
120.172135
21
6.335362
0
LINE
8
Layer 1
10
120.172135
20
6.335362
11
118.966232
21
5.573165
0
LINE
8
Layer 1
10
118.966232
20
5.573165
11
117.693049
21
4.959985
0
LINE
8
Layer 1
10
117.693049
20
4.959985
11
114.961330
21
4.150769
0
LINE
8
Layer 1
10
114.961330
20
4.150769
11
112.009936
21
3.847914
0
LINE
8
Layer 1
10
112.009936
20
3.847914
11
112.009936
21
3.847914
 0 
ENDSEC
 0 
EOF
