999
\"DXF R12 Output\" (www.mydxf.blogspot.com)
 0 
SECTION
 2 
HEADER
 9 
$ACADVER
 1 
AC1009
 9 
$EXTMIN
 10 
 0 
 20 
 0 
 9 
$EXTMAX
 10 
 8.5 
 20 
 11 
 0 
ENDSEC
 0 
SECTION
 2 
ENTITIES
0
LINE
8
Layer 1
10
70.432083
20
154.834434
11
69.632058
21
154.335761
0
LINE
8
Layer 1
10
69.632058
20
154.335761
11
68.455961
21
153.120082
0
LINE
8
Layer 1
10
68.455961
20
153.120082
11
67.225026
21
151.557725
0
LINE
8
Layer 1
10
67.225026
20
151.557725
11
66.260486
21
150.019017
0
LINE
8
Layer 1
10
66.260486
20
150.019017
11
64.232014
21
146.094364
0
LINE
8
Layer 1
10
64.232014
20
146.094364
11
61.418611
21
140.423462
0
LINE
8
Layer 1
10
61.418611
20
140.423462
11
57.776181
21
133.103323
0
LINE
8
Layer 1
10
57.776181
20
133.103323
11
54.918681
21
127.494156
0
LINE
8
Layer 1
10
54.918681
20
127.494156
11
53.075417
21
124.327976
0
LINE
8
Layer 1
10
53.075417
20
124.327976
11
50.799091
21
120.777378
0
LINE
8
Layer 1
10
50.799091
20
120.777378
11
49.574097
21
118.427768
0
LINE
8
Layer 1
10
49.574097
20
118.427768
11
48.479690
21
116.360520
0
LINE
8
Layer 1
10
48.479690
20
116.360520
11
46.770008
21
113.565477
0
LINE
8
Layer 1
10
46.770008
20
113.565477
11
44.872667
21
110.712291
0
LINE
8
Layer 1
10
44.872667
20
110.712291
11
43.215278
21
108.470615
0
LINE
8
Layer 1
10
43.215278
20
108.470615
11
39.890347
21
104.087351
0
LINE
8
Layer 1
10
39.890347
20
104.087351
11
36.503681
21
99.880476
0
LINE
8
Layer 1
10
36.503681
20
99.880476
11
35.378942
21
98.492763
0
LINE
8
Layer 1
10
35.378942
20
98.492763
11
34.312536
21
96.888464
0
LINE
8
Layer 1
10
34.312536
20
96.888464
11
33.521494
21
95.424182
0
LINE
8
Layer 1
10
33.521494
20
95.424182
11
33.222847
21
94.456518
0
LINE
8
Layer 1
10
33.222847
20
94.456518
11
33.556397
21
93.851145
0
LINE
8
Layer 1
10
33.556397
20
93.851145
11
34.367592
21
93.151645
0
LINE
8
Layer 1
10
34.367592
20
93.151645
11
35.422213
21
92.524702
0
LINE
8
Layer 1
10
35.422213
20
92.524702
11
36.486042
21
92.137004
0
LINE
8
Layer 1
10
36.486042
20
92.137004
11
37.779727
21
92.014149
0
LINE
8
Layer 1
10
37.779727
20
92.014149
11
39.588916
21
92.054637
0
LINE
8
Layer 1
10
39.588916
20
92.054637
11
43.982569
21
92.577976
0
LINE
8
Layer 1
10
43.982569
20
92.577976
11
45.178995
21
92.644654
0
LINE
8
Layer 1
10
45.178995
20
92.644654
11
46.319722
21
92.472143
0
LINE
8
Layer 1
10
46.319722
20
92.472143
11
47.229084
21
92.056139
0
LINE
8
Layer 1
10
47.229084
20
92.056139
11
47.395080
21
91.759556
0
LINE
8
Layer 1
10
47.395080
20
91.759556
11
47.448611
21
91.325615
0
LINE
8
Layer 1
10
47.448611
20
91.325615
11
47.363004
21
90.501475
0
LINE
8
Layer 1
10
47.363004
20
90.501475
11
47.059178
21
89.696543
0
LINE
8
Layer 1
10
47.059178
20
89.696543
11
46.548784
21
88.932241
0
LINE
8
Layer 1
10
46.548784
20
88.932241
11
45.843472
21
88.229990
0
LINE
8
Layer 1
10
45.843472
20
88.229990
11
41.098611
21
83.555685
0
LINE
8
Layer 1
10
41.098611
20
83.555685
11
33.875486
21
76.253185
0
LINE
8
Layer 1
10
33.875486
20
76.253185
11
30.790584
21
72.921792
0
LINE
8
Layer 1
10
30.790584
20
72.921792
11
28.089930
21
69.629782
0
LINE
8
Layer 1
10
28.089930
20
69.629782
11
25.675061
21
66.577767
0
LINE
8
Layer 1
10
25.675061
20
66.577767
11
23.283333
21
63.817768
0
LINE
8
Layer 1
10
23.283333
20
63.817768
11
21.200193
21
61.367285
0
LINE
8
Layer 1
10
21.200193
20
61.367285
11
19.449153
21
58.926283
0
LINE
8
Layer 1
10
19.449153
20
58.926283
11
18.243779
21
56.823177
0
LINE
8
Layer 1
10
18.243779
20
56.823177
11
17.797639
21
55.386379
0
LINE
8
Layer 1
10
17.797639
20
55.386379
11
18.022184
21
54.458310
0
LINE
8
Layer 1
10
18.022184
20
54.458310
11
18.864791
21
53.543115
0
LINE
8
Layer 1
10
18.864791
20
53.543115
11
19.483320
21
53.057463
0
LINE
8
Layer 1
10
19.483320
20
53.057463
11
20.027166
21
52.792849
0
LINE
8
Layer 1
10
20.027166
20
52.792849
11
21.634097
21
52.696449
0
LINE
8
Layer 1
10
21.634097
20
52.696449
11
22.979605
21
52.823807
0
LINE
8
Layer 1
10
22.979605
20
52.823807
11
24.402869
21
53.143336
0
LINE
8
Layer 1
10
24.402869
20
53.143336
11
28.054652
21
54.522074
0
LINE
8
Layer 1
10
28.054652
20
54.522074
11
33.644480
21
56.861898
0
LINE
8
Layer 1
10
33.644480
20
56.861898
11
34.724784
21
57.160682
0
LINE
8
Layer 1
10
34.724784
20
57.160682
11
35.198403
21
57.070893
0
LINE
8
Layer 1
10
35.198403
20
57.070893
11
35.541904
21
56.529405
0
LINE
8
Layer 1
10
35.541904
20
56.529405
11
35.608195
21
55.733223
0
LINE
8
Layer 1
10
35.608195
20
55.733223
11
35.405650
21
54.796691
0
LINE
8
Layer 1
10
35.405650
20
54.796691
11
34.942639
21
53.834157
0
LINE
8
Layer 1
10
34.942639
20
53.834157
11
33.624546
21
52.048020
0
LINE
8
Layer 1
10
33.624546
20
52.048020
11
31.393425
21
49.342565
0
LINE
8
Layer 1
10
31.393425
20
49.342565
11
25.228579
21
42.322642
0
LINE
8
Layer 1
10
25.228579
20
42.322642
11
18.521057
21
35.072279
0
LINE
8
Layer 1
10
18.521057
20
35.072279
11
13.343819
21
29.889365
0
LINE
8
Layer 1
10
13.343819
20
29.889365
11
9.189861
21
26.026449
0
LINE
8
Layer 1
10
9.189861
20
26.026449
11
5.459236
21
22.595685
0
LINE
8
Layer 1
10
5.459236
20
22.595685
11
4.390769
21
21.345565
0
LINE
8
Layer 1
10
4.390769
20
21.345565
11
3.369027
21
19.552976
0
LINE
8
Layer 1
10
3.369027
20
19.552976
11
2.596209
21
17.640994
0
LINE
8
Layer 1
10
2.596209
20
17.640994
11
2.520294
21
17.013355
0
LINE
8
Layer 1
10
2.520294
20
17.013355
11
2.601736
21
16.395615
0
LINE
8
Layer 1
10
2.601736
20
16.395615
11
2.867314
21
15.729382
0
LINE
8
Layer 1
10
2.867314
20
15.729382
11
3.354440
21
15.112124
0
LINE
8
Layer 1
10
3.354440
20
15.112124
11
4.058504
21
14.545864
0
LINE
8
Layer 1
10
4.058504
20
14.545864
11
4.974896
21
14.032625
0
LINE
8
Layer 1
10
4.974896
20
14.032625
11
7.426220
21
13.173301
0
LINE
8
Layer 1
10
7.426220
20
13.173301
11
10.671527
21
12.550338
0
LINE
8
Layer 1
10
10.671527
20
12.550338
11
14.349236
21
12.038810
0
LINE
8
Layer 1
10
14.349236
20
12.038810
11
18.047801
21
11.984076
0
LINE
8
Layer 1
10
18.047801
20
11.984076
11
24.364602
21
12.212635
0
LINE
8
Layer 1
10
24.364602
20
12.212635
11
31.172643
21
12.621070
0
LINE
8
Layer 1
10
31.172643
20
12.621070
11
36.344931
21
13.105963
0
LINE
8
Layer 1
10
36.344931
20
13.105963
11
45.664109
21
14.417586
0
LINE
8
Layer 1
10
45.664109
20
14.417586
11
49.124306
21
15.090338
0
LINE
8
Layer 1
10
49.124306
20
15.090338
11
50.949931
21
15.548949
0
LINE
8
Layer 1
10
50.949931
20
15.548949
11
54.169028
21
16.325060
0
LINE
8
Layer 1
10
54.169028
20
16.325060
11
55.752330
21
16.692232
0
LINE
8
Layer 1
10
55.752330
20
16.692232
11
56.988942
21
16.842849
0
LINE
8
Layer 1
10
56.988942
20
16.842849
11
57.873931
21
16.776463
0
LINE
8
Layer 1
10
57.873931
20
16.776463
11
58.402361
21
16.492629
0
LINE
8
Layer 1
10
58.402361
20
16.492629
11
58.654637
21
15.860446
0
LINE
8
Layer 1
10
58.654637
20
15.860446
11
58.626201
21
14.867604
0
LINE
8
Layer 1
10
58.626201
20
14.867604
11
58.320480
21
13.538542
0
LINE
8
Layer 1
10
58.320480
20
13.538542
11
57.740903
21
11.897699
0
LINE
8
Layer 1
10
57.740903
20
11.897699
11
57.272425
21
10.484818
0
LINE
8
Layer 1
10
57.272425
20
10.484818
11
57.007275
21
9.109727
0
LINE
8
Layer 1
10
57.007275
20
9.109727
11
56.943000
21
7.785124
0
LINE
8
Layer 1
10
56.943000
20
7.785124
11
57.077146
21
6.523709
0
LINE
8
Layer 1
10
57.077146
20
6.523709
11
57.407262
21
5.338178
0
LINE
8
Layer 1
10
57.407262
20
5.338178
11
57.930892
21
4.241231
0
LINE
8
Layer 1
10
57.930892
20
4.241231
11
58.645586
21
3.245565
0
LINE
8
Layer 1
10
58.645586
20
3.245565
11
59.548889
21
2.363879
0
LINE
8
Layer 1
10
59.548889
20
2.363879
11
60.496293
21
1.656414
0
LINE
8
Layer 1
10
60.496293
20
1.656414
11
61.483238
21
1.224952
0
LINE
8
Layer 1
10
61.483238
20
1.224952
11
62.971445
21
0.935211
0
LINE
8
Layer 1
10
62.971445
20
0.935211
11
65.422639
21
0.652907
0
LINE
8
Layer 1
10
65.422639
20
0.652907
11
69.647153
21
0.388324
0
LINE
8
Layer 1
10
69.647153
20
0.388324
11
71.463958
21
0.388324
0
LINE
8
Layer 1
10
71.463958
20
0.388324
11
75.688472
21
0.652907
0
LINE
8
Layer 1
10
75.688472
20
0.652907
11
78.139666
21
0.935209
0
LINE
8
Layer 1
10
78.139666
20
0.935209
11
79.627874
21
1.224952
0
LINE
8
Layer 1
10
79.627874
20
1.224952
11
80.614818
21
1.656416
0
LINE
8
Layer 1
10
80.614818
20
1.656416
11
81.562222
21
2.363879
0
LINE
8
Layer 1
10
81.562222
20
2.363879
11
82.465525
21
3.245564
0
LINE
8
Layer 1
10
82.465525
20
3.245564
11
83.180219
21
4.241228
0
LINE
8
Layer 1
10
83.180219
20
4.241228
11
83.703850
21
5.338175
0
LINE
8
Layer 1
10
83.703850
20
5.338175
11
84.033965
21
6.523706
0
LINE
8
Layer 1
10
84.033965
20
6.523706
11
84.168111
21
7.785122
0
LINE
8
Layer 1
10
84.168111
20
7.785122
11
84.103836
21
9.109725
0
LINE
8
Layer 1
10
84.103836
20
9.109725
11
83.838686
21
10.484817
0
LINE
8
Layer 1
10
83.838686
20
10.484817
11
83.370208
21
11.897699
0
LINE
8
Layer 1
10
83.370208
20
11.897699
11
82.790631
21
13.538543
0
LINE
8
Layer 1
10
82.790631
20
13.538543
11
82.484910
21
14.867604
0
LINE
8
Layer 1
10
82.484910
20
14.867604
11
82.456474
21
15.860445
0
LINE
8
Layer 1
10
82.456474
20
15.860445
11
82.708750
21
16.492629
0
LINE
8
Layer 1
10
82.708750
20
16.492629
11
83.237181
21
16.776464
0
LINE
8
Layer 1
10
83.237181
20
16.776464
11
84.122169
21
16.842849
0
LINE
8
Layer 1
10
84.122169
20
16.842849
11
85.358781
21
16.692232
0
LINE
8
Layer 1
10
85.358781
20
16.692232
11
86.942083
21
16.325060
0
LINE
8
Layer 1
10
86.942083
20
16.325060
11
90.161181
21
15.548949
0
LINE
8
Layer 1
10
90.161181
20
15.548949
11
91.986806
21
15.090338
0
LINE
8
Layer 1
10
91.986806
20
15.090338
11
95.447002
21
14.417586
0
LINE
8
Layer 1
10
95.447002
20
14.417586
11
104.766181
21
13.105963
0
LINE
8
Layer 1
10
104.766181
20
13.105963
11
109.938469
21
12.621071
0
LINE
8
Layer 1
10
109.938469
20
12.621071
11
116.746510
21
12.212635
0
LINE
8
Layer 1
10
116.746510
20
12.212635
11
123.063310
21
11.984076
0
LINE
8
Layer 1
10
123.063310
20
11.984076
11
126.761875
21
12.038810
0
LINE
8
Layer 1
10
126.761875
20
12.038810
11
130.439583
21
12.550338
0
LINE
8
Layer 1
10
130.439583
20
12.550338
11
133.684891
21
13.173302
0
LINE
8
Layer 1
10
133.684891
20
13.173302
11
136.136215
21
14.032625
0
LINE
8
Layer 1
10
136.136215
20
14.032625
11
137.052607
21
14.545864
0
LINE
8
Layer 1
10
137.052607
20
14.545864
11
137.756671
21
15.112124
0
LINE
8
Layer 1
10
137.756671
20
15.112124
11
138.243797
21
15.729382
0
LINE
8
Layer 1
10
138.243797
20
15.729382
11
138.509375
21
16.395615
0
LINE
8
Layer 1
10
138.509375
20
16.395615
11
138.590816
21
17.013355
0
LINE
8
Layer 1
10
138.590816
20
17.013355
11
138.514902
21
17.640994
0
LINE
8
Layer 1
10
138.514902
20
17.640994
11
137.742083
21
19.552976
0
LINE
8
Layer 1
10
137.742083
20
19.552976
11
136.720341
21
21.345565
0
LINE
8
Layer 1
10
136.720341
20
21.345565
11
135.651875
21
22.595685
0
LINE
8
Layer 1
10
135.651875
20
22.595685
11
131.921250
21
26.026449
0
LINE
8
Layer 1
10
131.921250
20
26.026449
11
127.767292
21
29.889365
0
LINE
8
Layer 1
10
127.767292
20
29.889365
11
122.590055
21
35.072280
0
LINE
8
Layer 1
10
122.590055
20
35.072280
11
115.882535
21
42.322642
0
LINE
8
Layer 1
10
115.882535
20
42.322642
11
109.717688
21
49.342564
0
LINE
8
Layer 1
10
109.717688
20
49.342564
11
107.486566
21
52.048020
0
LINE
8
Layer 1
10
107.486566
20
52.048020
11
106.168472
21
53.834157
0
LINE
8
Layer 1
10
106.168472
20
53.834157
11
105.705461
21
54.796692
0
LINE
8
Layer 1
10
105.705461
20
54.796692
11
105.502916
21
55.733223
0
LINE
8
Layer 1
10
105.502916
20
55.733223
11
105.569207
21
56.529404
0
LINE
8
Layer 1
10
105.569207
20
56.529404
11
105.912708
21
57.070893
0
LINE
8
Layer 1
10
105.912708
20
57.070893
11
106.386326
21
57.160682
0
LINE
8
Layer 1
10
106.386326
20
57.160682
11
107.466630
21
56.861898
0
LINE
8
Layer 1
10
107.466630
20
56.861898
11
113.056458
21
54.522074
0
LINE
8
Layer 1
10
113.056458
20
54.522074
11
116.708242
21
53.143336
0
LINE
8
Layer 1
10
116.708242
20
53.143336
11
118.131507
21
52.823806
0
LINE
8
Layer 1
10
118.131507
20
52.823806
11
119.477014
21
52.696449
0
LINE
8
Layer 1
10
119.477014
20
52.696449
11
121.083946
21
52.792849
0
LINE
8
Layer 1
10
121.083946
20
52.792849
11
121.627791
21
53.057462
0
LINE
8
Layer 1
10
121.627791
20
53.057462
11
122.246319
21
53.543115
0
LINE
8
Layer 1
10
122.246319
20
53.543115
11
123.088928
21
54.458310
0
LINE
8
Layer 1
10
123.088928
20
54.458310
11
123.313472
21
55.386379
0
LINE
8
Layer 1
10
123.313472
20
55.386379
11
122.867333
21
56.823178
0
LINE
8
Layer 1
10
122.867333
20
56.823178
11
121.661959
21
58.926283
0
LINE
8
Layer 1
10
121.661959
20
58.926283
11
119.910918
21
61.367284
0
LINE
8
Layer 1
10
119.910918
20
61.367284
11
117.827778
21
63.817768
0
LINE
8
Layer 1
10
117.827778
20
63.817768
11
115.436051
21
66.577767
0
LINE
8
Layer 1
10
115.436051
20
66.577767
11
113.021181
21
69.629782
0
LINE
8
Layer 1
10
113.021181
20
69.629782
11
110.320529
21
72.921792
0
LINE
8
Layer 1
10
110.320529
20
72.921792
11
107.235625
21
76.253185
0
LINE
8
Layer 1
10
107.235625
20
76.253185
11
100.012500
21
83.555685
0
LINE
8
Layer 1
10
100.012500
20
83.555685
11
95.267639
21
88.229990
0
LINE
8
Layer 1
10
95.267639
20
88.229990
11
94.562327
21
88.932242
0
LINE
8
Layer 1
10
94.562327
20
88.932242
11
94.051933
21
89.696543
0
LINE
8
Layer 1
10
94.051933
20
89.696543
11
93.748107
21
90.501474
0
LINE
8
Layer 1
10
93.748107
20
90.501474
11
93.662500
21
91.325615
0
LINE
8
Layer 1
10
93.662500
20
91.325615
11
93.716031
21
91.759557
0
LINE
8
Layer 1
10
93.716031
20
91.759557
11
93.882027
21
92.056139
0
LINE
8
Layer 1
10
93.882027
20
92.056139
11
94.791389
21
92.472143
0
LINE
8
Layer 1
10
94.791389
20
92.472143
11
95.932116
21
92.644654
0
LINE
8
Layer 1
10
95.932116
20
92.644654
11
97.128542
21
92.577976
0
LINE
8
Layer 1
10
97.128542
20
92.577976
11
101.522195
21
92.054637
0
LINE
8
Layer 1
10
101.522195
20
92.054637
11
103.331384
21
92.014148
0
LINE
8
Layer 1
10
103.331384
20
92.014148
11
104.625069
21
92.137004
0
LINE
8
Layer 1
10
104.625069
20
92.137004
11
105.688898
21
92.524703
0
LINE
8
Layer 1
10
105.688898
20
92.524703
11
106.743519
21
93.151645
0
LINE
8
Layer 1
10
106.743519
20
93.151645
11
107.554714
21
93.851145
0
LINE
8
Layer 1
10
107.554714
20
93.851145
11
107.888264
21
94.456518
0
LINE
8
Layer 1
10
107.888264
20
94.456518
11
107.589617
21
95.424183
0
LINE
8
Layer 1
10
107.589617
20
95.424183
11
106.798575
21
96.888464
0
LINE
8
Layer 1
10
106.798575
20
96.888464
11
105.732169
21
98.492762
0
LINE
8
Layer 1
10
105.732169
20
98.492762
11
104.607431
21
99.880476
0
LINE
8
Layer 1
10
104.607431
20
99.880476
11
101.220764
21
104.087351
0
LINE
8
Layer 1
10
101.220764
20
104.087351
11
97.895833
21
108.470615
0
LINE
8
Layer 1
10
97.895833
20
108.470615
11
96.238444
21
110.712292
0
LINE
8
Layer 1
10
96.238444
20
110.712292
11
94.341103
21
113.565477
0
LINE
8
Layer 1
10
94.341103
20
113.565477
11
92.631421
21
116.360520
0
LINE
8
Layer 1
10
92.631421
20
116.360520
11
91.537014
21
118.427768
0
LINE
8
Layer 1
10
91.537014
20
118.427768
11
90.312020
21
120.777379
0
LINE
8
Layer 1
10
90.312020
20
120.777379
11
88.035694
21
124.327976
0
LINE
8
Layer 1
10
88.035694
20
124.327976
11
86.192431
21
127.494156
0
LINE
8
Layer 1
10
86.192431
20
127.494156
11
83.334931
21
133.103323
0
LINE
8
Layer 1
10
83.334931
20
133.103323
11
79.692500
21
140.423462
0
LINE
8
Layer 1
10
79.692500
20
140.423462
11
76.879097
21
146.094364
0
LINE
8
Layer 1
10
76.879097
20
146.094364
11
74.850625
21
150.019017
0
LINE
8
Layer 1
10
74.850625
20
150.019017
11
73.886085
21
151.557725
0
LINE
8
Layer 1
10
73.886085
20
151.557725
11
72.655149
21
153.120082
0
LINE
8
Layer 1
10
72.655149
20
153.120082
11
71.479052
21
154.335761
0
LINE
8
Layer 1
10
71.479052
20
154.335761
11
70.679028
21
154.834434
0
LINE
8
Layer 1
10
70.679028
20
154.834434
11
70.555556
21
154.834434
0
LINE
8
Layer 1
10
70.555556
20
154.834434
11
70.432083
21
154.834434
0
LINE
8
Layer 1
10
70.432083
20
154.834434
11
70.432083
21
154.834434
0
LINE
8
Layer 1
10
70.555556
20
144.330476
11
71.373111
21
144.165696
0
LINE
8
Layer 1
10
71.373111
20
144.165696
11
72.040254
21
143.716146
0
LINE
8
Layer 1
10
72.040254
20
143.716146
11
72.489804
21
143.049003
0
LINE
8
Layer 1
10
72.489804
20
143.049003
11
72.654583
21
142.231448
0
LINE
8
Layer 1
10
72.654583
20
142.231448
11
72.489803
21
141.413892
0
LINE
8
Layer 1
10
72.489803
20
141.413892
11
72.040253
21
140.746749
0
LINE
8
Layer 1
10
72.040253
20
140.746749
11
71.373111
21
140.297199
0
LINE
8
Layer 1
10
71.373111
20
140.297199
11
70.555556
21
140.132420
0
LINE
8
Layer 1
10
70.555556
20
140.132420
11
69.738000
21
140.297199
0
LINE
8
Layer 1
10
69.738000
20
140.297199
11
69.070857
21
140.746749
0
LINE
8
Layer 1
10
69.070857
20
140.746749
11
68.621307
21
141.413892
0
LINE
8
Layer 1
10
68.621307
20
141.413892
11
68.456528
21
142.231448
0
LINE
8
Layer 1
10
68.456528
20
142.231448
11
68.621307
21
143.049003
0
LINE
8
Layer 1
10
68.621307
20
143.049003
11
69.070857
21
143.716146
0
LINE
8
Layer 1
10
69.070857
20
143.716146
11
69.738000
21
144.165697
0
LINE
8
Layer 1
10
69.738000
20
144.165697
11
70.555556
21
144.330476
0
LINE
8
Layer 1
10
70.555556
20
144.330476
11
70.555556
21
144.330476
 0 
ENDSEC
 0 
EOF
