0
SECTION
2
HEADER
9
$ACADVER
1
AC1009
9
$ANGDIR
70
0
9
$EXTMIN
10
0
20
0
9
$EXTMAX
10
24.0000
20
18.0000
0
ENDSEC
0
SECTION
2
ENTITIES
0
POLYLINE
8
Layer 1
66
1
0
VERTEX
8
0
10
4.2891
20
6.7255
0
VERTEX
8
0
10
3.0889
20
6.9134
0
VERTEX
8
0
10
3.8247
20
7.2552
0
VERTEX
8
0
10
3.8247
20
7.2562
0
VERTEX
8
0
10
2.0012
20
7.5407
0
VERTEX
8
0
10
2.7371
20
7.8835
0
VERTEX
8
0
10
2.6657
20
8.6927
0
VERTEX
8
0
10
3.8247
20
7.2562
0
VERTEX
8
0
10
3.7533
20
8.0644
0
VERTEX
8
0
10
4.5173
20
7.1175
42
0.0609
0
VERTEX
8
0
10
4.2891
20
6.7255
0
SEQEND
8
0
0
POLYLINE
8
Layer 1
66
1
0
VERTEX
8
0
10
4.1424
20
5.9766
0
VERTEX
8
0
10
0.8101
20
4.5532
0
VERTEX
8
0
10
1.7047
20
5.9997
0
VERTEX
8
0
10
0.8101
20
7.4462
0
VERTEX
8
0
10
4.1424
20
6.0228
42
0.0051
0
VERTEX
8
0
10
4.1424
20
5.9997
0
VERTEX
8
0
10
4.1424
20
5.9766
0
SEQEND
8
0
0
POLYLINE
8
Layer 1
66
1
0
VERTEX
8
0
10
3.8247
20
4.7432
0
VERTEX
8
0
10
2.0012
20
4.4587
0
VERTEX
8
0
10
2.7371
20
4.1159
0
VERTEX
8
0
10
2.6657
20
3.3067
0
VERTEX
8
0
10
3.8247
20
4.7432
0
SEQEND
8
0
0
POLYLINE
8
Layer 1
66
1
0
VERTEX
8
0
10
4.5173
20
4.8819
0
VERTEX
8
0
10
3.7533
20
3.9350
0
VERTEX
8
0
10
3.8247
20
4.7432
0
VERTEX
8
0
10
3.8247
20
4.7442
0
VERTEX
8
0
10
3.0889
20
5.0860
0
VERTEX
8
0
10
4.2891
20
5.2739
42
0.0323
0
VERTEX
8
0
10
4.3912
20
5.0709
42
0.0303
0
VERTEX
8
0
10
4.5173
20
4.8819
0
SEQEND
8
0
0
POLYLINE
8
Layer 1
66
1
0
VERTEX
8
0
10
5.0923
20
4.3793
0
VERTEX
8
0
10
4.6580
20
0.7816
0
VERTEX
8
0
10
3.8519
20
2.2794
0
VERTEX
8
0
10
2.1520
20
2.2281
0
VERTEX
8
0
10
5.0521
20
4.4024
42
0.0082
0
VERTEX
8
0
10
5.0923
20
4.3793
0
SEQEND
8
0
0
POLYLINE
8
Layer 1
66
1
0
VERTEX
8
0
10
6.0000
20
3.4877
0
VERTEX
8
0
10
5.3356
20
1.7657
0
VERTEX
8
0
10
6.0000
20
2.2321
0
VERTEX
8
0
10
6.6644
20
1.7657
0
VERTEX
8
0
10
6.0000
20
3.4877
0
SEQEND
8
0
0
POLYLINE
8
Layer 1
66
1
0
VERTEX
8
0
10
6.2262
20
4.1561
0
VERTEX
8
0
10
6.6644
20
3.0222
0
VERTEX
8
0
10
6.0000
20
3.4887
0
VERTEX
8
0
10
5.3356
20
3.0222
0
VERTEX
8
0
10
5.7738
20
4.1561
42
0.0289
0
VERTEX
8
0
10
6.0000
20
4.1421
42
0.0316
0
VERTEX
8
0
10
6.2262
20
4.1561
0
SEQEND
8
0
0
POLYLINE
8
Layer 1
66
1
0
VERTEX
8
0
10
6.9479
20
4.4024
42
-0.0054
0
VERTEX
8
0
10
6.9077
20
4.3793
0
VERTEX
8
0
10
7.3420
20
0.7816
0
VERTEX
8
0
10
8.1481
20
2.2794
0
VERTEX
8
0
10
9.8480
20
2.2281
0
VERTEX
8
0
10
6.9479
20
4.4024
0
SEQEND
8
0
0
POLYLINE
8
Layer 1
66
1
0
VERTEX
8
0
10
8.1753
20
4.7432
0
VERTEX
8
0
10
9.3343
20
3.3077
0
VERTEX
8
0
10
9.2629
20
4.1159
0
VERTEX
8
0
10
9.9988
20
4.4587
0
VERTEX
8
0
10
8.1753
20
4.7432
0
SEQEND
8
0
0
POLYLINE
8
Layer 1
66
1
0
VERTEX
8
0
10
7.7109
20
5.2739
42
-0.0609
0
VERTEX
8
0
10
7.4827
20
4.8819
0
VERTEX
8
0
10
8.2457
20
3.9360
0
VERTEX
8
0
10
8.1743
20
4.7442
0
VERTEX
8
0
10
8.9111
20
5.0860
0
VERTEX
8
0
10
7.7109
20
5.2739
0
SEQEND
8
0
0
POLYLINE
8
Layer 1
66
1
0
VERTEX
8
0
10
7.8576
20
6.0228
0
VERTEX
8
0
10
11.1899
20
7.4462
0
VERTEX
8
0
10
10.2953
20
5.9997
0
VERTEX
8
0
10
11.1899
20
4.5532
0
VERTEX
8
0
10
7.8576
20
5.9766
42
0.0051
0
VERTEX
8
0
10
7.8576
20
5.9997
0
VERTEX
8
0
10
7.8576
20
6.0228
0
SEQEND
8
0
0
POLYLINE
8
Layer 1
66
1
0
VERTEX
8
0
10
8.1753
20
7.2562
0
VERTEX
8
0
10
9.3343
20
8.6927
0
VERTEX
8
0
10
9.2629
20
7.8835
0
VERTEX
8
0
10
9.9988
20
7.5407
0
VERTEX
8
0
10
8.1753
20
7.2562
0
SEQEND
8
0
0
POLYLINE
8
Layer 1
66
1
0
VERTEX
8
0
10
8.2457
20
8.0644
0
VERTEX
8
0
10
7.4827
20
7.1185
42
-0.0615
0
VERTEX
8
0
10
7.7109
20
6.7255
0
VERTEX
8
0
10
8.9111
20
6.9134
0
VERTEX
8
0
10
8.1743
20
7.2552
0
VERTEX
8
0
10
8.2457
20
8.0644
0
SEQEND
8
0
0
POLYLINE
8
Layer 1
66
1
0
VERTEX
8
0
10
6.6644
20
8.9772
0
VERTEX
8
0
10
6.2262
20
7.8433
42
0.0289
0
VERTEX
8
0
10
6.0000
20
7.8573
42
0.0316
0
VERTEX
8
0
10
5.7738
20
7.8433
0
VERTEX
8
0
10
5.3356
20
8.9772
0
VERTEX
8
0
10
6.0000
20
8.5107
0
VERTEX
8
0
10
6.6644
20
8.9772
0
SEQEND
8
0
0
POLYLINE
8
Layer 1
66
1
0
VERTEX
8
0
10
6.6644
20
10.2337
0
VERTEX
8
0
10
6.0000
20
8.5117
0
VERTEX
8
0
10
5.3356
20
10.2337
0
VERTEX
8
0
10
6.0000
20
9.7673
0
VERTEX
8
0
10
6.6644
20
10.2337
0
SEQEND
8
0
0
POLYLINE
8
Layer 1
66
1
0
VERTEX
8
0
10
7.3420
20
11.2178
0
VERTEX
8
0
10
6.9077
20
7.6201
42
-0.0082
0
VERTEX
8
0
10
6.9479
20
7.5970
0
VERTEX
8
0
10
9.8480
20
9.7713
0
VERTEX
8
0
10
8.1481
20
9.7200
0
VERTEX
8
0
10
7.3420
20
11.2178
0
SEQEND
8
0
0
POLYLINE
8
Layer 1
66
1
0
VERTEX
8
0
10
6.9097
20
11.8682
0
VERTEX
8
0
10
5.0903
20
11.8682
42
0.1004
0
VERTEX
8
0
10
4.8028
20
11.9858
42
0.3267
0
VERTEX
8
0
10
3.9695
20
11.5887
0
VERTEX
8
0
10
3.3925
20
10.5161
0
VERTEX
8
0
10
2.1751
20
10.5533
42
0.3269
0
VERTEX
8
0
10
1.4142
20
10.0296
42
0.3270
0
VERTEX
8
0
10
1.6826
20
9.1460
0
VERTEX
8
0
10
1.9319
20
8.9591
42
0.1093
0
VERTEX
8
0
10
1.8866
20
8.6243
0
VERTEX
8
0
10
1.9098
20
8.3610
0
VERTEX
8
0
10
1.6705
20
8.2494
42
0.1092
0
VERTEX
8
0
10
1.4031
20
8.0433
0
VERTEX
8
0
10
1.1177
20
8.1649
42
0.3270
0
VERTEX
8
0
10
0.2180
20
7.9559
42
0.3270
0
VERTEX
8
0
10
0.1446
20
7.0351
0
VERTEX
8
0
10
0.7849
20
5.9997
0
VERTEX
8
0
10
0.1446
20
4.9643
42
0.3270
0
VERTEX
8
0
10
0.2180
20
4.0435
42
0.3270
0
VERTEX
8
0
10
1.1177
20
3.8345
0
VERTEX
8
0
10
1.4021
20
3.9561
42
0.1095
0
VERTEX
8
0
10
1.6705
20
3.7500
0
VERTEX
8
0
10
1.9098
20
3.6384
0
VERTEX
8
0
10
1.8866
20
3.3751
42
0.1092
0
VERTEX
8
0
10
1.9319
20
3.0403
0
VERTEX
8
0
10
1.6826
20
2.8534
42
0.3270
0
VERTEX
8
0
10
1.4142
20
1.9698
42
0.3269
0
VERTEX
8
0
10
2.1751
20
1.4461
0
VERTEX
8
0
10
3.3925
20
1.4833
0
VERTEX
8
0
10
3.9695
20
0.4107
42
0.3267
0
VERTEX
8
0
10
4.8028
20
0.0136
42
0.3265
0
VERTEX
8
0
10
5.4341
20
0.6881
0
VERTEX
8
0
10
5.4713
20
0.9957
42
0.1098
0
VERTEX
8
0
10
5.7849
20
1.1254
0
VERTEX
8
0
10
6.0000
20
1.2762
0
VERTEX
8
0
10
6.2151
20
1.1254
42
0.1097
0
VERTEX
8
0
10
6.5287
20
0.9967
0
VERTEX
8
0
10
6.5659
20
0.6881
42
0.3265
0
VERTEX
8
0
10
7.1972
20
0.0136
42
0.3267
0
VERTEX
8
0
10
8.0305
20
0.4107
0
VERTEX
8
0
10
8.6075
20
1.4833
0
VERTEX
8
0
10
9.8249
20
1.4461
42
0.3269
0
VERTEX
8
0
10
10.5858
20
1.9698
42
0.3270
0
VERTEX
8
0
10
10.3174
20
2.8534
0
VERTEX
8
0
10
10.0691
20
3.0403
42
0.1096
0
VERTEX
8
0
10
10.1134
20
3.3761
0
VERTEX
8
0
10
10.0902
20
3.6384
0
VERTEX
8
0
10
10.3295
20
3.7500
42
0.1092
0
VERTEX
8
0
10
10.5969
20
3.9561
0
VERTEX
8
0
10
10.8823
20
3.8345
42
0.3270
0
VERTEX
8
0
10
11.7820
20
4.0435
42
0.3270
0
VERTEX
8
0
10
11.8554
20
4.9643
0
VERTEX
8
0
10
11.2151
20
5.9997
0
VERTEX
8
0
10
11.8554
20
7.0351
42
0.3270
0
VERTEX
8
0
10
11.7820
20
7.9559
42
0.3270
0
VERTEX
8
0
10
10.8823
20
8.1649
0
VERTEX
8
0
10
10.5979
20
8.0433
42
0.1094
0
VERTEX
8
0
10
10.3295
20
8.2494
0
VERTEX
8
0
10
10.0902
20
8.3610
0
VERTEX
8
0
10
10.1134
20
8.6243
42
0.1093
0
VERTEX
8
0
10
10.0681
20
8.9591
0
VERTEX
8
0
10
10.3174
20
9.1460
42
0.3270
0
VERTEX
8
0
10
10.5858
20
10.0296
42
0.3269
0
VERTEX
8
0
10
9.8249
20
10.5533
0
VERTEX
8
0
10
8.6075
20
10.5161
0
VERTEX
8
0
10
8.0305
20
11.5887
42
0.2821
0
VERTEX
8
0
10
7.3239
20
11.9998
42
0.1425
0
VERTEX
8
0
10
6.9097
20
11.8682
0
SEQEND
8
0
0
POLYLINE
8
Layer 1
66
1
0
VERTEX
8
0
10
6.0000
20
11.3274
42
-0.4143
0
VERTEX
8
0
10
6.3086
20
11.0188
42
-0.4143
0
VERTEX
8
0
10
6.0000
20
10.7101
42
-0.4143
0
VERTEX
8
0
10
5.6914
20
11.0188
42
-0.4143
0
VERTEX
8
0
10
6.0000
20
11.3274
0
SEQEND
8
0
0
POLYLINE
8
Layer 1
66
1
0
VERTEX
8
0
10
4.6580
20
11.2178
0
VERTEX
8
0
10
5.0913
20
7.6201
42
0.0133
0
VERTEX
8
0
10
5.0511
20
7.5960
0
VERTEX
8
0
10
2.1520
20
9.7713
0
VERTEX
8
0
10
3.8519
20
9.7200
0
VERTEX
8
0
10
4.6580
20
11.2178
0
SEQEND
8
0
0
ENDSEC
0
EOF
