999
\"DXF R12 Output\" (www.mydxf.blogspot.com)
 0 
SECTION
 2 
HEADER
 9 
$ACADVER
 1 
AC1009
 9 
$EXTMIN
 10 
 0 
 20 
 0 
 9 
$EXTMAX
 10 
 8.5 
 20 
 11 
 0 
ENDSEC
 0 
SECTION
 2 
ENTITIES
0
LINE
8
Layer 1
10
84.587292
20
207.071736
11
44.890972
21
126.470833
0
LINE
8
Layer 1
10
44.890972
20
126.470833
11
-44.000208
21
113.479792
0
LINE
8
Layer 1
10
-44.000208
20
113.479792
11
20.390556
21
50.826458
0
LINE
8
Layer 1
10
20.390556
20
50.826458
11
5.274028
21
-37.738403
0
LINE
8
Layer 1
10
5.274028
20
-37.738403
11
84.763681
21
4.136319
0
LINE
8
Layer 1
10
84.763681
20
4.136319
11
164.315069
21
-37.597292
0
LINE
8
Layer 1
10
164.315069
20
-37.597292
11
149.057431
21
50.932292
0
LINE
8
Layer 1
10
149.057431
20
50.932292
11
213.333542
21
113.700278
0
LINE
8
Layer 1
10
213.333542
20
113.700278
11
124.415903
21
126.541389
0
LINE
8
Layer 1
10
124.415903
20
126.541389
11
84.587292
21
207.071736
0
LINE
8
Layer 1
10
84.587292
20
207.071736
11
84.587292
21
207.071736
0
LINE
8
Layer 1
10
84.666667
20
181.601181
11
85.631498
21
181.499644
0
LINE
8
Layer 1
10
85.631498
20
181.499644
11
86.530289
21
181.208484
0
LINE
8
Layer 1
10
86.530289
20
181.208484
11
87.343744
21
180.747880
0
LINE
8
Layer 1
10
87.343744
20
180.747880
11
88.052566
21
180.138007
0
LINE
8
Layer 1
10
88.052566
20
180.138007
11
88.637461
21
179.399043
0
LINE
8
Layer 1
10
88.637461
20
179.399043
11
89.079133
21
178.551165
0
LINE
8
Layer 1
10
89.079133
20
178.551165
11
89.358286
21
177.614550
0
LINE
8
Layer 1
10
89.358286
20
177.614550
11
89.455625
21
176.609375
0
LINE
8
Layer 1
10
89.455625
20
176.609375
11
89.358287
21
175.604579
0
LINE
8
Layer 1
10
89.358287
20
175.604579
11
89.079134
21
174.668963
0
LINE
8
Layer 1
10
89.079134
20
174.668963
11
88.637462
21
173.822497
0
LINE
8
Layer 1
10
88.637462
20
173.822497
11
88.052567
21
173.085152
0
LINE
8
Layer 1
10
88.052567
20
173.085152
11
87.343744
21
172.476899
0
LINE
8
Layer 1
10
87.343744
20
172.476899
11
86.530290
21
172.017707
0
LINE
8
Layer 1
10
86.530290
20
172.017707
11
85.631498
21
171.727547
0
LINE
8
Layer 1
10
85.631498
20
171.727547
11
84.666667
21
171.626389
0
LINE
8
Layer 1
10
84.666667
20
171.626389
11
83.701835
21
171.727547
0
LINE
8
Layer 1
10
83.701835
20
171.727547
11
82.803044
21
172.017707
0
LINE
8
Layer 1
10
82.803044
20
172.017707
11
81.989590
21
172.476899
0
LINE
8
Layer 1
10
81.989590
20
172.476899
11
81.280767
21
173.085152
0
LINE
8
Layer 1
10
81.280767
20
173.085152
11
80.695872
21
173.822497
0
LINE
8
Layer 1
10
80.695872
20
173.822497
11
80.254200
21
174.668963
0
LINE
8
Layer 1
10
80.254200
20
174.668963
11
79.975047
21
175.604579
0
LINE
8
Layer 1
10
79.975047
20
175.604579
11
79.877708
21
176.609375
0
LINE
8
Layer 1
10
79.877708
20
176.609375
11
79.975046
21
177.614550
0
LINE
8
Layer 1
10
79.975046
20
177.614550
11
80.254199
21
178.551165
0
LINE
8
Layer 1
10
80.254199
20
178.551165
11
80.695871
21
179.399043
0
LINE
8
Layer 1
10
80.695871
20
179.399043
11
81.280766
21
180.138007
0
LINE
8
Layer 1
10
81.280766
20
180.138007
11
81.989589
21
180.747880
0
LINE
8
Layer 1
10
81.989589
20
180.747880
11
82.803044
21
181.208484
0
LINE
8
Layer 1
10
82.803044
20
181.208484
11
83.701835
21
181.499644
0
LINE
8
Layer 1
10
83.701835
20
181.499644
11
84.666667
21
181.601181
0
LINE
8
Layer 1
10
84.666667
20
181.601181
11
84.666667
21
181.601181
0
LINE
8
Layer 1
10
82.938056
20
135.316736
11
86.395278
21
135.316736
0
LINE
8
Layer 1
10
86.395278
20
135.316736
11
86.809792
21
123.260556
0
LINE
8
Layer 1
10
86.809792
20
123.260556
11
97.022708
21
129.046111
0
LINE
8
Layer 1
10
97.022708
20
129.046111
11
97.992847
21
127.608542
0
LINE
8
Layer 1
10
97.992847
20
127.608542
11
87.524167
21
121.355556
0
LINE
8
Layer 1
10
87.524167
20
121.355556
11
98.001667
21
115.217222
0
LINE
8
Layer 1
10
98.001667
20
115.217222
11
97.190278
21
113.744375
0
LINE
8
Layer 1
10
97.190278
20
113.744375
11
86.986181
21
119.282986
0
LINE
8
Layer 1
10
86.986181
20
119.282986
11
88.018056
21
91.951528
0
LINE
8
Layer 1
10
88.018056
20
91.951528
11
95.020694
21
103.919514
0
LINE
8
Layer 1
10
95.020694
20
103.919514
11
96.528819
21
103.108125
0
LINE
8
Layer 1
10
96.528819
20
103.108125
11
89.923056
21
91.254792
0
LINE
8
Layer 1
10
89.923056
20
91.254792
11
114.008958
21
104.184097
0
LINE
8
Layer 1
10
114.008958
20
104.184097
11
104.095903
21
110.216597
0
LINE
8
Layer 1
10
104.095903
20
110.216597
11
105.021944
21
111.680625
0
LINE
8
Layer 1
10
105.021944
20
111.680625
11
115.508264
21
105.674583
0
LINE
8
Layer 1
10
115.508264
20
105.674583
11
115.631736
21
117.951250
0
LINE
8
Layer 1
10
115.631736
20
117.951250
11
117.554375
21
117.951250
0
LINE
8
Layer 1
10
117.554375
20
117.951250
11
117.669028
21
106.142014
0
LINE
8
Layer 1
10
117.669028
20
106.142014
11
128.252361
21
111.918750
0
LINE
8
Layer 1
10
128.252361
20
111.918750
11
129.151944
21
110.243056
0
LINE
8
Layer 1
10
129.151944
20
110.243056
11
119.009583
21
103.760764
0
LINE
8
Layer 1
10
119.009583
20
103.760764
11
129.099028
21
97.851736
0
LINE
8
Layer 1
10
129.099028
20
97.851736
11
128.296458
21
96.308333
0
LINE
8
Layer 1
10
128.296458
20
96.308333
11
117.686667
21
102.279097
0
LINE
8
Layer 1
10
117.686667
20
102.279097
11
117.554375
21
89.984792
0
LINE
8
Layer 1
10
117.554375
20
89.984792
11
115.631736
21
89.984792
0
LINE
8
Layer 1
10
115.631736
20
89.984792
11
115.508264
21
101.794028
0
LINE
8
Layer 1
10
115.508264
20
101.794028
11
90.284653
21
86.245347
0
LINE
8
Layer 1
10
90.284653
20
86.245347
11
106.468333
21
86.113056
0
LINE
8
Layer 1
10
106.468333
20
86.113056
11
106.468333
21
83.220278
0
LINE
8
Layer 1
10
106.468333
20
83.220278
11
90.284653
21
83.087986
0
LINE
8
Layer 1
10
90.284653
20
83.087986
11
115.508264
21
67.539306
0
LINE
8
Layer 1
10
115.508264
20
67.539306
11
115.631736
21
79.348542
0
LINE
8
Layer 1
10
115.631736
20
79.348542
11
117.554375
21
79.348542
0
LINE
8
Layer 1
10
117.554375
20
79.348542
11
117.686667
21
67.054236
0
LINE
8
Layer 1
10
117.686667
20
67.054236
11
128.296458
21
73.025000
0
LINE
8
Layer 1
10
128.296458
20
73.025000
11
129.099028
21
71.481597
0
LINE
8
Layer 1
10
129.099028
20
71.481597
11
119.009583
21
65.572569
0
LINE
8
Layer 1
10
119.009583
20
65.572569
11
129.151944
21
59.090278
0
LINE
8
Layer 1
10
129.151944
20
59.090278
11
128.252361
21
57.414583
0
LINE
8
Layer 1
10
128.252361
20
57.414583
11
117.669028
21
63.191319
0
LINE
8
Layer 1
10
117.669028
20
63.191319
11
117.554375
21
51.382083
0
LINE
8
Layer 1
10
117.554375
20
51.382083
11
115.631736
21
51.382083
0
LINE
8
Layer 1
10
115.631736
20
51.382083
11
115.508264
21
63.658750
0
LINE
8
Layer 1
10
115.508264
20
63.658750
11
105.021944
21
57.652708
0
LINE
8
Layer 1
10
105.021944
20
57.652708
11
104.095903
21
59.116736
0
LINE
8
Layer 1
10
104.095903
20
59.116736
11
114.008958
21
65.149236
0
LINE
8
Layer 1
10
114.008958
20
65.149236
11
89.923056
21
78.078542
0
LINE
8
Layer 1
10
89.923056
20
78.078542
11
96.528819
21
66.225208
0
LINE
8
Layer 1
10
96.528819
20
66.225208
11
95.020694
21
65.413819
0
LINE
8
Layer 1
10
95.020694
20
65.413819
11
88.018056
21
77.381806
0
LINE
8
Layer 1
10
88.018056
20
77.381806
11
86.986181
21
50.050347
0
LINE
8
Layer 1
10
86.986181
20
50.050347
11
97.190278
21
55.588958
0
LINE
8
Layer 1
10
97.190278
20
55.588958
11
98.001667
21
54.116111
0
LINE
8
Layer 1
10
98.001667
20
54.116111
11
87.524167
21
47.977778
0
LINE
8
Layer 1
10
87.524167
20
47.977778
11
97.992847
21
41.724792
0
LINE
8
Layer 1
10
97.992847
20
41.724792
11
97.022708
21
40.287222
0
LINE
8
Layer 1
10
97.022708
20
40.287222
11
86.809792
21
46.072778
0
LINE
8
Layer 1
10
86.809792
20
46.072778
11
86.395278
21
34.016597
0
LINE
8
Layer 1
10
86.395278
20
34.016597
11
82.938056
21
34.016597
0
LINE
8
Layer 1
10
82.938056
20
34.016597
11
82.523542
21
46.072778
0
LINE
8
Layer 1
10
82.523542
20
46.072778
11
72.310625
21
40.287222
0
LINE
8
Layer 1
10
72.310625
20
40.287222
11
71.340486
21
41.724792
0
LINE
8
Layer 1
10
71.340486
20
41.724792
11
81.809167
21
47.977778
0
LINE
8
Layer 1
10
81.809167
20
47.977778
11
71.331667
21
54.116111
0
LINE
8
Layer 1
10
71.331667
20
54.116111
11
72.143056
21
55.588958
0
LINE
8
Layer 1
10
72.143056
20
55.588958
11
82.347153
21
50.050347
0
LINE
8
Layer 1
10
82.347153
20
50.050347
11
81.315278
21
77.381806
0
LINE
8
Layer 1
10
81.315278
20
77.381806
11
74.312639
21
65.413819
0
LINE
8
Layer 1
10
74.312639
20
65.413819
11
72.804514
21
66.225208
0
LINE
8
Layer 1
10
72.804514
20
66.225208
11
79.410278
21
78.078542
0
LINE
8
Layer 1
10
79.410278
20
78.078542
11
55.324375
21
65.149236
0
LINE
8
Layer 1
10
55.324375
20
65.149236
11
65.237431
21
59.116736
0
LINE
8
Layer 1
10
65.237431
20
59.116736
11
64.311389
21
57.652708
0
LINE
8
Layer 1
10
64.311389
20
57.652708
11
53.825069
21
63.658750
0
LINE
8
Layer 1
10
53.825069
20
63.658750
11
53.701597
21
51.382083
0
LINE
8
Layer 1
10
53.701597
20
51.382083
11
51.778958
21
51.382083
0
LINE
8
Layer 1
10
51.778958
20
51.382083
11
51.664306
21
63.191319
0
LINE
8
Layer 1
10
51.664306
20
63.191319
11
41.080972
21
57.414583
0
LINE
8
Layer 1
10
41.080972
20
57.414583
11
40.181389
21
59.090278
0
LINE
8
Layer 1
10
40.181389
20
59.090278
11
50.323750
21
65.572569
0
LINE
8
Layer 1
10
50.323750
20
65.572569
11
40.234306
21
71.481597
0
LINE
8
Layer 1
10
40.234306
20
71.481597
11
41.036875
21
73.025000
0
LINE
8
Layer 1
10
41.036875
20
73.025000
11
51.646667
21
67.054236
0
LINE
8
Layer 1
10
51.646667
20
67.054236
11
51.778958
21
79.348542
0
LINE
8
Layer 1
10
51.778958
20
79.348542
11
53.701597
21
79.348542
0
LINE
8
Layer 1
10
53.701597
20
79.348542
11
53.825069
21
67.539306
0
LINE
8
Layer 1
10
53.825069
20
67.539306
11
79.048681
21
83.087986
0
LINE
8
Layer 1
10
79.048681
20
83.087986
11
62.865000
21
83.220278
0
LINE
8
Layer 1
10
62.865000
20
83.220278
11
62.865000
21
86.113056
0
LINE
8
Layer 1
10
62.865000
20
86.113056
11
79.048681
21
86.245347
0
LINE
8
Layer 1
10
79.048681
20
86.245347
11
53.825069
21
101.794028
0
LINE
8
Layer 1
10
53.825069
20
101.794028
11
53.701597
21
89.984792
0
LINE
8
Layer 1
10
53.701597
20
89.984792
11
51.778958
21
89.984792
0
LINE
8
Layer 1
10
51.778958
20
89.984792
11
51.646667
21
102.279097
0
LINE
8
Layer 1
10
51.646667
20
102.279097
11
41.036875
21
96.308333
0
LINE
8
Layer 1
10
41.036875
20
96.308333
11
40.234306
21
97.851736
0
LINE
8
Layer 1
10
40.234306
20
97.851736
11
50.323750
21
103.760764
0
LINE
8
Layer 1
10
50.323750
20
103.760764
11
40.181389
21
110.243056
0
LINE
8
Layer 1
10
40.181389
20
110.243056
11
41.080972
21
111.918750
0
LINE
8
Layer 1
10
41.080972
20
111.918750
11
51.664306
21
106.142014
0
LINE
8
Layer 1
10
51.664306
20
106.142014
11
51.778958
21
117.951250
0
LINE
8
Layer 1
10
51.778958
20
117.951250
11
53.701597
21
117.951250
0
LINE
8
Layer 1
10
53.701597
20
117.951250
11
53.825069
21
105.674583
0
LINE
8
Layer 1
10
53.825069
20
105.674583
11
64.311389
21
111.680625
0
LINE
8
Layer 1
10
64.311389
20
111.680625
11
65.237431
21
110.216597
0
LINE
8
Layer 1
10
65.237431
20
110.216597
11
55.324375
21
104.184097
0
LINE
8
Layer 1
10
55.324375
20
104.184097
11
79.410278
21
91.254792
0
LINE
8
Layer 1
10
79.410278
20
91.254792
11
72.804514
21
103.108125
0
LINE
8
Layer 1
10
72.804514
20
103.108125
11
74.312639
21
103.919514
0
LINE
8
Layer 1
10
74.312639
20
103.919514
11
81.315278
21
91.951528
0
LINE
8
Layer 1
10
81.315278
20
91.951528
11
82.347153
21
119.282986
0
LINE
8
Layer 1
10
82.347153
20
119.282986
11
72.143056
21
113.744375
0
LINE
8
Layer 1
10
72.143056
20
113.744375
11
71.331667
21
115.217222
0
LINE
8
Layer 1
10
71.331667
20
115.217222
11
81.809167
21
121.355556
0
LINE
8
Layer 1
10
81.809167
20
121.355556
11
71.340486
21
127.608542
0
LINE
8
Layer 1
10
71.340486
20
127.608542
11
72.310625
21
129.046111
0
LINE
8
Layer 1
10
72.310625
20
129.046111
11
82.523542
21
123.260556
0
LINE
8
Layer 1
10
82.523542
20
123.260556
11
82.938056
21
135.316736
0
LINE
8
Layer 1
10
82.938056
20
135.316736
11
82.938056
21
135.316736
 0 
ENDSEC
 0 
EOF
