999
\"DXF R12 Output\" (www.mydxf.blogspot.com)
 0 
SECTION
 2 
HEADER
 9 
$ACADVER
 1 
AC1009
 9 
$EXTMIN
 10 
 0 
 20 
 0 
 9 
$EXTMAX
 10 
 8.5 
 20 
 11 
 0 
ENDSEC
 0 
SECTION
 2 
ENTITIES
0
LINE
8
Layer 1
10
104.854479
20
349.129557
11
104.392036
21
348.453846
0
LINE
8
Layer 1
10
104.392036
20
348.453846
11
103.747361
21
347.139544
0
LINE
8
Layer 1
10
103.747361
20
347.139544
11
102.023465
21
342.889565
0
LINE
8
Layer 1
10
102.023465
20
342.889565
11
99.907090
21
336.968420
0
LINE
8
Layer 1
10
99.907090
20
336.968420
11
97.622535
21
329.964905
0
LINE
8
Layer 1
10
97.622535
20
329.964905
11
83.027445
21
283.402104
0
LINE
8
Layer 1
10
83.027445
20
283.402104
11
75.812049
21
260.811641
0
LINE
8
Layer 1
10
75.812049
20
260.811641
11
66.445799
21
230.675599
0
LINE
8
Layer 1
10
66.445799
20
230.675599
11
60.597629
21
212.142151
0
LINE
8
Layer 1
10
60.597629
20
212.142151
11
58.445386
21
205.791229
0
LINE
8
Layer 1
10
58.445386
20
205.791229
11
57.211841
21
202.612127
0
LINE
8
Layer 1
10
57.211841
20
202.612127
11
56.820094
21
202.137226
0
LINE
8
Layer 1
10
56.820094
20
202.137226
11
56.123524
21
201.706699
0
LINE
8
Layer 1
10
56.123524
20
201.706699
11
55.057862
21
201.317171
0
LINE
8
Layer 1
10
55.057862
20
201.317171
11
53.558840
21
200.965270
0
LINE
8
Layer 1
10
53.558840
20
200.965270
11
49.003642
21
200.360852
0
LINE
8
Layer 1
10
49.003642
20
200.360852
11
41.943784
21
199.866458
0
LINE
8
Layer 1
10
41.943784
20
199.866458
11
31.865119
21
199.455099
0
LINE
8
Layer 1
10
31.865119
20
199.455099
11
18.253502
21
199.099786
0
LINE
8
Layer 1
10
18.253502
20
199.099786
11
-21.625174
21
198.449349
0
LINE
8
Layer 1
10
-21.625174
20
198.449349
11
-98.830590
21
197.408655
0
LINE
8
Layer 1
10
-98.830590
20
197.408655
11
-79.604201
21
182.918307
0
LINE
8
Layer 1
10
-79.604201
20
182.918307
11
-65.719577
21
172.344199
0
LINE
8
Layer 1
10
-65.719577
20
172.344199
11
-59.337118
21
167.272613
0
LINE
8
Layer 1
10
-59.337118
20
167.272613
11
-55.857421
21
164.355001
0
LINE
8
Layer 1
10
-55.857421
20
164.355001
11
-48.947812
21
158.955877
0
LINE
8
Layer 1
10
-48.947812
20
158.955877
11
-42.033804
21
153.542490
0
LINE
8
Layer 1
10
-42.033804
20
153.542490
11
-38.549687
21
150.595043
0
LINE
8
Layer 1
10
-38.549687
20
150.595043
11
-33.850459
21
146.770928
0
LINE
8
Layer 1
10
-33.850459
20
146.770928
11
-24.006424
21
139.244418
0
LINE
8
Layer 1
10
-24.006424
20
139.244418
11
-12.548462
21
130.498769
0
LINE
8
Layer 1
10
-12.548462
20
130.498769
11
-3.977466
21
123.748655
0
LINE
8
Layer 1
10
-3.977466
20
123.748655
11
9.436909
21
113.227057
0
LINE
8
Layer 1
10
9.436909
20
113.227057
11
15.730077
21
108.333973
0
LINE
8
Layer 1
10
15.730077
20
108.333973
11
21.157951
21
103.869627
0
LINE
8
Layer 1
10
21.157951
20
103.869627
11
25.964548
21
99.715668
0
LINE
8
Layer 1
10
25.964548
20
99.715668
11
19.446978
21
77.887543
0
LINE
8
Layer 1
10
19.446978
20
77.887543
11
14.331969
21
61.252273
0
LINE
8
Layer 1
10
14.331969
20
61.252273
11
11.174339
21
51.905460
0
LINE
8
Layer 1
10
11.174339
20
51.905460
11
9.032251
21
45.609647
0
LINE
8
Layer 1
10
9.032251
20
45.609647
11
6.358923
21
36.312682
0
LINE
8
Layer 1
10
6.358923
20
36.312682
11
3.154897
21
24.602577
0
LINE
8
Layer 1
10
3.154897
20
24.602577
11
-0.435857
21
12.180399
0
LINE
8
Layer 1
10
-0.435857
20
12.180399
11
-11.412258
21
-23.694812
0
LINE
8
Layer 1
10
-11.412258
20
-23.694812
11
-14.708326
21
-34.541583
0
LINE
8
Layer 1
10
-14.708326
20
-34.541583
11
-17.296696
21
-43.535006
0
LINE
8
Layer 1
10
-17.296696
20
-43.535006
11
-18.918403
21
-49.738853
0
LINE
8
Layer 1
10
-18.918403
20
-49.738853
11
-19.285831
21
-51.502114
0
LINE
8
Layer 1
10
-19.285831
20
-51.502114
11
-19.314480
21
-52.216895
0
LINE
8
Layer 1
10
-19.314480
20
-52.216895
11
-18.279273
21
-51.717752
0
LINE
8
Layer 1
10
-18.279273
20
-51.717752
11
-15.633734
21
-49.994318
0
LINE
8
Layer 1
10
-15.633734
20
-49.994318
11
-6.319625
21
-43.471129
0
LINE
8
Layer 1
10
-6.319625
20
-43.471129
11
22.744925
21
-22.295283
0
LINE
8
Layer 1
10
22.744925
20
-22.295283
11
54.951665
21
1.765901
0
LINE
8
Layer 1
10
54.951665
20
1.765901
11
68.193511
21
11.895763
0
LINE
8
Layer 1
10
68.193511
20
11.895763
11
77.373091
21
19.167682
0
LINE
8
Layer 1
10
77.373091
20
19.167682
11
84.600223
21
24.688616
0
LINE
8
Layer 1
10
84.600223
20
24.688616
11
93.997743
21
31.391432
0
LINE
8
Layer 1
10
93.997743
20
31.391432
11
104.854479
21
38.887960
0
LINE
8
Layer 1
10
104.854479
20
38.887960
11
105.004410
21
38.994897
0
LINE
8
Layer 1
10
105.004410
20
38.994897
11
105.145521
21
38.887960
0
LINE
8
Layer 1
10
105.145521
20
38.887960
11
116.002257
21
31.391432
0
LINE
8
Layer 1
10
116.002257
20
31.391432
11
125.399773
21
24.688616
0
LINE
8
Layer 1
10
125.399773
20
24.688616
11
132.626910
21
19.167682
0
LINE
8
Layer 1
10
132.626910
20
19.167682
11
141.806488
21
11.895763
0
LINE
8
Layer 1
10
141.806488
20
11.895763
11
155.048334
21
1.765901
0
LINE
8
Layer 1
10
155.048334
20
1.765901
11
187.255074
21
-22.295283
0
LINE
8
Layer 1
10
187.255074
20
-22.295283
11
216.319624
21
-43.471129
0
LINE
8
Layer 1
10
216.319624
20
-43.471129
11
225.633733
21
-49.994318
0
LINE
8
Layer 1
10
225.633733
20
-49.994318
11
228.279273
21
-51.717752
0
LINE
8
Layer 1
10
228.279273
20
-51.717752
11
229.314479
21
-52.216895
0
LINE
8
Layer 1
10
229.314479
20
-52.216895
11
229.285833
21
-51.502114
0
LINE
8
Layer 1
10
229.285833
20
-51.502114
11
228.918406
21
-49.738853
0
LINE
8
Layer 1
10
228.918406
20
-49.738853
11
227.296699
21
-43.535006
0
LINE
8
Layer 1
10
227.296699
20
-43.535006
11
224.708326
21
-34.541583
0
LINE
8
Layer 1
10
224.708326
20
-34.541583
11
221.412257
21
-23.694812
0
LINE
8
Layer 1
10
221.412257
20
-23.694812
11
210.435860
21
12.180399
0
LINE
8
Layer 1
10
210.435860
20
12.180399
11
206.845104
21
24.602577
0
LINE
8
Layer 1
10
206.845104
20
24.602577
11
203.641077
21
36.312682
0
LINE
8
Layer 1
10
203.641077
20
36.312682
11
200.967748
21
45.609647
0
LINE
8
Layer 1
10
200.967748
20
45.609647
11
198.825660
21
51.905460
0
LINE
8
Layer 1
10
198.825660
20
51.905460
11
195.668029
21
61.252273
0
LINE
8
Layer 1
10
195.668029
20
61.252273
11
190.553021
21
77.887543
0
LINE
8
Layer 1
10
190.553021
20
77.887543
11
184.035452
21
99.715668
0
LINE
8
Layer 1
10
184.035452
20
99.715668
11
188.842049
21
103.869627
0
LINE
8
Layer 1
10
188.842049
20
103.869627
11
194.269921
21
108.333973
0
LINE
8
Layer 1
10
194.269921
20
108.333973
11
200.563091
21
113.227057
0
LINE
8
Layer 1
10
200.563091
20
113.227057
11
213.977466
21
123.748655
0
LINE
8
Layer 1
10
213.977466
20
123.748655
11
222.548464
21
130.498769
0
LINE
8
Layer 1
10
222.548464
20
130.498769
11
234.006424
21
139.244418
0
LINE
8
Layer 1
10
234.006424
20
139.244418
11
243.850463
21
146.770928
0
LINE
8
Layer 1
10
243.850463
20
146.770928
11
248.549688
21
150.595043
0
LINE
8
Layer 1
10
248.549688
20
150.595043
11
252.033808
21
153.542490
0
LINE
8
Layer 1
10
252.033808
20
153.542490
11
258.947813
21
158.955877
0
LINE
8
Layer 1
10
258.947813
20
158.955877
11
265.857422
21
164.355001
0
LINE
8
Layer 1
10
265.857422
20
164.355001
11
269.337118
21
167.272613
0
LINE
8
Layer 1
10
269.337118
20
167.272613
11
275.719580
21
172.344199
0
LINE
8
Layer 1
10
275.719580
20
172.344199
11
289.604196
21
182.918307
0
LINE
8
Layer 1
10
289.604196
20
182.918307
11
308.830585
21
197.408655
0
LINE
8
Layer 1
10
308.830585
20
197.408655
11
231.625174
21
198.449349
0
LINE
8
Layer 1
10
231.625174
20
198.449349
11
191.746500
21
199.099786
0
LINE
8
Layer 1
10
191.746500
20
199.099786
11
178.134883
21
199.455099
0
LINE
8
Layer 1
10
178.134883
20
199.455099
11
168.056217
21
199.866458
0
LINE
8
Layer 1
10
168.056217
20
199.866458
11
160.996357
21
200.360852
0
LINE
8
Layer 1
10
160.996357
20
200.360852
11
156.441158
21
200.965270
0
LINE
8
Layer 1
10
156.441158
20
200.965270
11
154.942136
21
201.317171
0
LINE
8
Layer 1
10
154.942136
20
201.317171
11
153.876475
21
201.706699
0
LINE
8
Layer 1
10
153.876475
20
201.706699
11
153.179905
21
202.137226
0
LINE
8
Layer 1
10
153.179905
20
202.137226
11
152.788160
21
202.612127
0
LINE
8
Layer 1
10
152.788160
20
202.612127
11
151.554605
21
205.791229
0
LINE
8
Layer 1
10
151.554605
20
205.791229
11
149.402363
21
212.142151
0
LINE
8
Layer 1
10
149.402363
20
212.142151
11
143.554202
21
230.675599
0
LINE
8
Layer 1
10
143.554202
20
230.675599
11
134.187952
21
260.811641
0
LINE
8
Layer 1
10
134.187952
20
260.811641
11
126.972551
21
283.402104
0
LINE
8
Layer 1
10
126.972551
20
283.402104
11
112.377466
21
329.964905
0
LINE
8
Layer 1
10
112.377466
20
329.964905
11
110.092901
21
336.968420
0
LINE
8
Layer 1
10
110.092901
20
336.968420
11
107.976525
21
342.889565
0
LINE
8
Layer 1
10
107.976525
20
342.889565
11
106.252633
21
347.139544
0
LINE
8
Layer 1
10
106.252633
20
347.139544
11
105.607961
21
348.453846
0
LINE
8
Layer 1
10
105.607961
20
348.453846
11
105.145521
21
349.129557
0
LINE
8
Layer 1
10
105.145521
20
349.129557
11
105.004410
21
349.226571
0
LINE
8
Layer 1
10
105.004410
20
349.226571
11
104.854479
21
349.129557
0
LINE
8
Layer 1
10
104.854479
20
349.129557
11
104.854479
21
349.129557
0
LINE
8
Layer 1
10
99.880313
20
310.535670
11
99.889132
21
310.526850
0
LINE
8
Layer 1
10
99.889132
20
310.526850
11
100.056223
21
308.597481
0
LINE
8
Layer 1
10
100.056223
20
308.597481
11
100.211847
21
303.556310
0
LINE
8
Layer 1
10
100.211847
20
303.556310
11
100.475361
21
285.455471
0
LINE
8
Layer 1
10
100.475361
20
285.455471
11
100.718160
21
226.398168
0
LINE
8
Layer 1
10
100.718160
20
226.398168
11
100.718160
21
141.405182
0
LINE
8
Layer 1
10
100.718160
20
141.405182
11
90.461146
21
155.895530
0
LINE
8
Layer 1
10
90.461146
20
155.895530
11
71.605174
21
182.547891
0
LINE
8
Layer 1
10
71.605174
20
182.547891
11
63.023854
21
194.701085
0
LINE
8
Layer 1
10
63.023854
20
194.701085
11
69.497327
21
215.806016
0
LINE
8
Layer 1
10
69.497327
20
215.806016
11
74.898884
21
233.150249
0
LINE
8
Layer 1
10
74.898884
20
233.150249
11
78.801841
21
245.218863
0
LINE
8
Layer 1
10
78.801841
20
245.218863
11
82.154708
21
255.673052
0
LINE
8
Layer 1
10
82.154708
20
255.673052
11
86.227813
21
269.128378
0
LINE
8
Layer 1
10
86.227813
20
269.128378
11
90.720794
21
283.985970
0
LINE
8
Layer 1
10
90.720794
20
283.985970
11
94.879183
21
297.010428
0
LINE
8
Layer 1
10
94.879183
20
297.010428
11
98.122807
21
306.443479
0
LINE
8
Layer 1
10
98.122807
20
306.443479
11
99.220278
21
309.263767
0
LINE
8
Layer 1
10
99.220278
20
309.263767
11
99.871493
21
310.526850
0
LINE
8
Layer 1
10
99.871493
20
310.526850
11
99.880313
21
310.535670
0
LINE
8
Layer 1
10
99.880313
20
310.535670
11
99.880313
21
310.535670
0
LINE
8
Layer 1
10
110.119688
20
310.535670
11
110.128507
21
310.526850
0
LINE
8
Layer 1
10
110.128507
20
310.526850
11
110.779724
21
309.263767
0
LINE
8
Layer 1
10
110.779724
20
309.263767
11
111.877196
21
306.443479
0
LINE
8
Layer 1
10
111.877196
20
306.443479
11
115.120819
21
297.010428
0
LINE
8
Layer 1
10
115.120819
20
297.010428
11
119.279207
21
283.985970
0
LINE
8
Layer 1
10
119.279207
20
283.985970
11
123.772188
21
269.128378
0
LINE
8
Layer 1
10
123.772188
20
269.128378
11
127.845283
21
255.673052
0
LINE
8
Layer 1
10
127.845283
20
255.673052
11
131.198160
21
245.218863
0
LINE
8
Layer 1
10
131.198160
20
245.218863
11
135.101121
21
233.150249
0
LINE
8
Layer 1
10
135.101121
20
233.150249
11
140.502674
21
215.806016
0
LINE
8
Layer 1
10
140.502674
20
215.806016
11
146.976146
21
194.701085
0
LINE
8
Layer 1
10
146.976146
20
194.701085
11
138.394827
21
182.547891
0
LINE
8
Layer 1
10
138.394827
20
182.547891
11
119.538854
21
155.895530
0
LINE
8
Layer 1
10
119.538854
20
155.895530
11
109.281841
21
141.405182
0
LINE
8
Layer 1
10
109.281841
20
141.405182
11
109.281841
21
226.398168
0
LINE
8
Layer 1
10
109.281841
20
226.398168
11
109.524636
21
285.455471
0
LINE
8
Layer 1
10
109.524636
20
285.455471
11
109.788149
21
303.556310
0
LINE
8
Layer 1
10
109.788149
20
303.556310
11
109.943774
21
308.597481
0
LINE
8
Layer 1
10
109.943774
20
308.597481
11
110.110868
21
310.526850
0
LINE
8
Layer 1
10
110.110868
20
310.526850
11
110.119688
21
310.535670
0
LINE
8
Layer 1
10
110.119688
20
310.535670
11
110.119688
21
310.535670
0
LINE
8
Layer 1
10
3.236839
20
190.132613
11
58.331910
21
190.132613
0
LINE
8
Layer 1
10
58.331910
20
190.132613
11
75.371077
21
165.164766
0
LINE
8
Layer 1
10
75.371077
20
165.164766
11
87.400002
21
147.162559
0
LINE
8
Layer 1
10
87.400002
20
147.162559
11
91.058089
21
141.403418
0
LINE
8
Layer 1
10
91.058089
20
141.403418
11
92.401424
21
138.953377
0
LINE
8
Layer 1
10
92.401424
20
138.953377
11
92.327354
21
138.736728
0
LINE
8
Layer 1
10
92.327354
20
138.736728
11
92.115028
21
138.594506
0
LINE
8
Layer 1
10
92.115028
20
138.594506
11
91.334902
21
138.528449
0
LINE
8
Layer 1
10
91.334902
20
138.528449
11
90.179633
21
138.745411
0
LINE
8
Layer 1
10
90.179633
20
138.745411
11
88.767813
21
139.235599
0
LINE
8
Layer 1
10
88.767813
20
139.235599
11
83.757278
21
141.102268
0
LINE
8
Layer 1
10
83.757278
20
141.102268
11
76.817466
21
143.468932
0
LINE
8
Layer 1
10
76.817466
20
143.468932
11
35.242604
21
157.862266
0
LINE
8
Layer 1
10
35.242604
20
157.862266
11
-22.965730
21
177.961780
0
LINE
8
Layer 1
10
-22.965730
20
177.961780
11
-32.806685
21
181.385735
0
LINE
8
Layer 1
10
-32.806685
20
181.385735
11
-41.161727
21
184.471506
0
LINE
8
Layer 1
10
-41.161727
20
184.471506
11
-47.148006
21
186.879896
0
LINE
8
Layer 1
10
-47.148006
20
186.879896
11
-48.976969
21
187.724075
0
LINE
8
Layer 1
10
-48.976969
20
187.724075
11
-49.882673
21
188.271710
0
LINE
8
Layer 1
10
-49.882673
20
188.271710
11
-49.837859
21
188.475075
0
LINE
8
Layer 1
10
-49.837859
20
188.475075
11
-49.275913
21
188.669567
0
LINE
8
Layer 1
10
-49.275913
20
188.669567
11
-46.669577
21
189.029589
0
LINE
8
Layer 1
10
-46.669577
20
189.029589
11
-36.009796
21
189.617373
0
LINE
8
Layer 1
10
-36.009796
20
189.617373
11
-19.006576
21
189.997551
0
LINE
8
Layer 1
10
-19.006576
20
189.997551
11
3.236839
21
190.132613
0
LINE
8
Layer 1
10
3.236839
20
190.132613
11
3.236839
21
190.132613
0
LINE
8
Layer 1
10
151.668091
20
190.132613
11
206.763160
21
190.132613
0
LINE
8
Layer 1
10
206.763160
20
190.132613
11
229.006579
21
189.997551
0
LINE
8
Layer 1
10
229.006579
20
189.997551
11
246.009799
21
189.617373
0
LINE
8
Layer 1
10
246.009799
20
189.617373
11
256.669578
21
189.029589
0
LINE
8
Layer 1
10
256.669578
20
189.029589
11
259.275914
21
188.669567
0
LINE
8
Layer 1
10
259.275914
20
188.669567
11
259.837860
21
188.475075
0
LINE
8
Layer 1
10
259.837860
20
188.475075
11
259.882674
21
188.271710
0
LINE
8
Layer 1
10
259.882674
20
188.271710
11
258.976972
21
187.724075
0
LINE
8
Layer 1
10
258.976972
20
187.724075
11
257.148010
21
186.879896
0
LINE
8
Layer 1
10
257.148010
20
186.879896
11
251.161730
21
184.471506
0
LINE
8
Layer 1
10
251.161730
20
184.471506
11
242.806686
21
181.385735
0
LINE
8
Layer 1
10
242.806686
20
181.385735
11
232.965729
21
177.961780
0
LINE
8
Layer 1
10
232.965729
20
177.961780
11
174.757396
21
157.862266
0
LINE
8
Layer 1
10
174.757396
20
157.862266
11
133.182535
21
143.468932
0
LINE
8
Layer 1
10
133.182535
20
143.468932
11
126.242717
21
141.102268
0
LINE
8
Layer 1
10
126.242717
20
141.102268
11
121.232188
21
139.235599
0
LINE
8
Layer 1
10
121.232188
20
139.235599
11
119.820365
21
138.745411
0
LINE
8
Layer 1
10
119.820365
20
138.745411
11
118.665097
21
138.528449
0
LINE
8
Layer 1
10
118.665097
20
138.528449
11
117.884971
21
138.594506
0
LINE
8
Layer 1
10
117.884971
20
138.594506
11
117.672646
21
138.736728
0
LINE
8
Layer 1
10
117.672646
20
138.736728
11
117.598577
21
138.953377
0
LINE
8
Layer 1
10
117.598577
20
138.953377
11
118.941912
21
141.403418
0
LINE
8
Layer 1
10
118.941912
20
141.403418
11
122.600000
21
147.162559
0
LINE
8
Layer 1
10
122.600000
20
147.162559
11
134.628924
21
165.164766
0
LINE
8
Layer 1
10
134.628924
20
165.164766
11
151.668091
21
190.132613
0
LINE
8
Layer 1
10
151.668091
20
190.132613
11
151.668091
21
190.132613
0
LINE
8
Layer 1
10
-66.710173
20
184.391155
11
-65.495344
21
184.279790
0
LINE
8
Layer 1
10
-65.495344
20
184.279790
11
-63.892624
21
183.917021
0
LINE
8
Layer 1
10
-63.892624
20
183.917021
11
-59.857465
21
182.494974
0
LINE
8
Layer 1
10
-59.857465
20
182.494974
11
-54.453040
21
180.416507
0
LINE
8
Layer 1
10
-54.453040
20
180.416507
11
-45.500142
21
177.178848
0
LINE
8
Layer 1
10
-45.500142
20
177.178848
11
-21.925036
21
169.001224
0
LINE
8
Layer 1
10
-21.925036
20
169.001224
11
0.583559
21
161.250991
0
LINE
8
Layer 1
10
0.583559
20
161.250991
11
12.373784
21
156.953863
0
LINE
8
Layer 1
10
12.373784
20
156.953863
11
21.113031
21
153.708023
0
LINE
8
Layer 1
10
21.113031
20
153.708023
11
36.283299
21
148.487196
0
LINE
8
Layer 1
10
36.283299
20
148.487196
11
58.503441
21
140.880957
0
LINE
8
Layer 1
10
58.503441
20
140.880957
11
75.548069
21
134.745285
0
LINE
8
Layer 1
10
75.548069
20
134.745285
11
86.315155
21
130.493173
0
LINE
8
Layer 1
10
86.315155
20
130.493173
11
89.000237
21
129.202512
0
LINE
8
Layer 1
10
89.000237
20
129.202512
11
89.607896
21
128.788616
0
LINE
8
Layer 1
10
89.607896
20
128.788616
11
89.702674
21
128.537613
0
LINE
8
Layer 1
10
89.702674
20
128.537613
11
87.017712
21
127.409714
0
LINE
8
Layer 1
10
87.017712
20
127.409714
11
80.329285
21
124.960449
0
LINE
8
Layer 1
10
80.329285
20
124.960449
11
58.975729
21
117.539766
0
LINE
8
Layer 1
10
58.975729
20
117.539766
11
29.095452
21
107.379766
0
LINE
8
Layer 1
10
29.095452
20
107.379766
11
22.816006
21
111.807127
0
LINE
8
Layer 1
10
22.816006
20
111.807127
11
14.455173
21
117.769071
0
LINE
8
Layer 1
10
14.455173
20
117.769071
11
5.097742
21
125.230321
0
LINE
8
Layer 1
10
5.097742
20
125.230321
11
-26.078994
21
149.704280
0
LINE
8
Layer 1
10
-26.078994
20
149.704280
11
-43.270180
21
163.123672
0
LINE
8
Layer 1
10
-43.270180
20
163.123672
11
-51.029201
21
169.336363
0
LINE
8
Layer 1
10
-51.029201
20
169.336363
11
-54.049952
21
171.804738
0
LINE
8
Layer 1
10
-54.049952
20
171.804738
11
-59.857465
21
176.224349
0
LINE
8
Layer 1
10
-59.857465
20
176.224349
11
-62.884376
21
178.627054
0
LINE
8
Layer 1
10
-62.884376
20
178.627054
11
-65.363415
21
180.874172
0
LINE
8
Layer 1
10
-65.363415
20
180.874172
11
-67.038576
21
182.714609
0
LINE
8
Layer 1
10
-67.038576
20
182.714609
11
-67.494700
21
183.403853
0
LINE
8
Layer 1
10
-67.494700
20
183.403853
11
-67.653854
21
183.897266
0
LINE
8
Layer 1
10
-67.653854
20
183.897266
11
-67.407714
21
184.260185
0
LINE
8
Layer 1
10
-67.407714
20
184.260185
11
-66.710173
21
184.391155
0
LINE
8
Layer 1
10
-66.710173
20
184.391155
11
-66.710173
21
184.391155
0
LINE
8
Layer 1
10
276.445591
20
184.391155
11
276.710174
21
184.391155
0
LINE
8
Layer 1
10
276.710174
20
184.391155
11
277.407717
21
184.260185
0
LINE
8
Layer 1
10
277.407717
20
184.260185
11
277.653854
21
183.897266
0
LINE
8
Layer 1
10
277.653854
20
183.897266
11
277.494703
21
183.403853
0
LINE
8
Layer 1
10
277.494703
20
183.403853
11
277.038580
21
182.714609
0
LINE
8
Layer 1
10
277.038580
20
182.714609
11
275.363419
21
180.874172
0
LINE
8
Layer 1
10
275.363419
20
180.874172
11
272.884378
21
178.627054
0
LINE
8
Layer 1
10
272.884378
20
178.627054
11
269.857466
21
176.224349
0
LINE
8
Layer 1
10
269.857466
20
176.224349
11
264.049955
21
171.804738
0
LINE
8
Layer 1
10
264.049955
20
171.804738
11
261.029202
21
169.336363
0
LINE
8
Layer 1
10
261.029202
20
169.336363
11
253.270180
21
163.123672
0
LINE
8
Layer 1
10
253.270180
20
163.123672
11
236.078993
21
149.704280
0
LINE
8
Layer 1
10
236.078993
20
149.704280
11
204.902257
21
125.230321
0
LINE
8
Layer 1
10
204.902257
20
125.230321
11
195.544827
21
117.769071
0
LINE
8
Layer 1
10
195.544827
20
117.769071
11
187.183993
21
111.807127
0
LINE
8
Layer 1
10
187.183993
20
111.807127
11
180.904549
21
107.379766
0
LINE
8
Layer 1
10
180.904549
20
107.379766
11
151.024271
21
117.539766
0
LINE
8
Layer 1
10
151.024271
20
117.539766
11
129.670700
21
124.960449
0
LINE
8
Layer 1
10
129.670700
20
124.960449
11
122.982277
21
127.409714
0
LINE
8
Layer 1
10
122.982277
20
127.409714
11
120.297327
21
128.537613
0
LINE
8
Layer 1
10
120.297327
20
128.537613
11
120.392105
21
128.788616
0
LINE
8
Layer 1
10
120.392105
20
128.788616
11
120.999763
21
129.202512
0
LINE
8
Layer 1
10
120.999763
20
129.202512
11
123.684844
21
130.493173
0
LINE
8
Layer 1
10
123.684844
20
130.493173
11
134.451927
21
134.745285
0
LINE
8
Layer 1
10
134.451927
20
134.745285
11
151.496555
21
140.880957
0
LINE
8
Layer 1
10
151.496555
20
140.880957
11
173.716702
21
148.487196
0
LINE
8
Layer 1
10
173.716702
20
148.487196
11
188.886967
21
153.708023
0
LINE
8
Layer 1
10
188.886967
20
153.708023
11
197.626216
21
156.953863
0
LINE
8
Layer 1
10
197.626216
20
156.953863
11
209.416439
21
161.250991
0
LINE
8
Layer 1
10
209.416439
20
161.250991
11
231.925035
21
169.001224
0
LINE
8
Layer 1
10
231.925035
20
169.001224
11
255.500146
21
177.178848
0
LINE
8
Layer 1
10
255.500146
20
177.178848
11
264.453042
21
180.416507
0
LINE
8
Layer 1
10
264.453042
20
180.416507
11
269.857466
21
182.494974
0
LINE
8
Layer 1
10
269.857466
20
182.494974
11
273.668270
21
183.856459
0
LINE
8
Layer 1
10
273.668270
20
183.856459
11
275.220341
21
184.233425
0
LINE
8
Layer 1
10
275.220341
20
184.233425
11
276.445591
21
184.391155
0
LINE
8
Layer 1
10
276.445591
20
184.391155
11
276.445591
21
184.391155
0
LINE
8
Layer 1
10
93.045243
20
119.012613
11
93.689063
21
118.871502
0
LINE
8
Layer 1
10
93.689063
20
118.871502
11
93.788254
21
118.440198
0
LINE
8
Layer 1
10
93.788254
20
118.440198
11
93.606171
21
117.670437
0
LINE
8
Layer 1
10
93.606171
20
117.670437
11
92.492687
21
115.288007
0
LINE
8
Layer 1
10
92.492687
20
115.288007
11
90.537617
21
112.069129
0
LINE
8
Layer 1
10
90.537617
20
112.069129
11
87.929966
21
108.358724
0
LINE
8
Layer 1
10
87.929966
20
108.358724
11
79.046312
21
95.892657
0
LINE
8
Layer 1
10
79.046312
20
95.892657
11
67.460035
21
78.998793
0
LINE
8
Layer 1
10
67.460035
20
78.998793
11
55.052877
21
60.752985
0
LINE
8
Layer 1
10
55.052877
20
60.752985
11
44.194341
21
45.035113
0
LINE
8
Layer 1
10
44.194341
20
45.035113
11
27.948923
21
21.760599
0
LINE
8
Layer 1
10
27.948923
20
21.760599
11
14.958068
21
3.166522
0
LINE
8
Layer 1
10
14.958068
20
3.166522
11
6.264352
21
-8.895312
0
LINE
8
Layer 1
10
6.264352
20
-8.895312
11
3.334278
21
-12.737613
0
LINE
8
Layer 1
10
3.334278
20
-12.737613
11
1.244918
21
-15.260022
0
LINE
8
Layer 1
10
1.244918
20
-15.260022
11
-0.081586
21
-16.566931
0
LINE
8
Layer 1
10
-0.081586
20
-16.566931
11
-0.483097
21
-16.797194
0
LINE
8
Layer 1
10
-0.483097
20
-16.797194
11
-0.723091
21
-16.762729
0
LINE
8
Layer 1
10
-0.723091
20
-16.762729
11
-0.925236
21
-15.929342
0
LINE
8
Layer 1
10
-0.925236
20
-15.929342
11
-0.758328
21
-14.377566
0
LINE
8
Layer 1
10
-0.758328
20
-14.377566
11
-0.262917
21
-12.329448
0
LINE
8
Layer 1
10
-0.262917
20
-12.329448
11
0.520451
21
-10.007034
0
LINE
8
Layer 1
10
0.520451
20
-10.007034
11
4.027731
21
0.490847
0
LINE
8
Layer 1
10
4.027731
20
0.490847
11
9.348714
21
17.606641
0
LINE
8
Layer 1
10
9.348714
20
17.606641
11
19.764478
21
51.905460
0
LINE
8
Layer 1
10
19.764478
20
51.905460
11
27.308396
21
77.525765
0
LINE
8
Layer 1
10
27.308396
20
77.525765
11
32.887813
21
97.352057
0
LINE
8
Layer 1
10
32.887813
20
97.352057
11
33.605634
21
98.081004
0
LINE
8
Layer 1
10
33.605634
20
98.081004
11
35.398688
21
99.130142
0
LINE
8
Layer 1
10
35.398688
20
99.130142
11
41.636529
21
101.985956
0
LINE
8
Layer 1
10
41.636529
20
101.985956
11
50.453396
21
105.513417
0
LINE
8
Layer 1
10
50.453396
20
105.513417
11
60.701350
21
109.306445
0
LINE
8
Layer 1
10
60.701350
20
109.306445
11
71.232451
21
112.958959
0
LINE
8
Layer 1
10
71.232451
20
112.958959
11
80.898759
21
116.064879
0
LINE
8
Layer 1
10
80.898759
20
116.064879
11
88.552337
21
118.218124
0
LINE
8
Layer 1
10
88.552337
20
118.218124
11
91.265620
21
118.810593
0
LINE
8
Layer 1
10
91.265620
20
118.810593
11
93.045243
21
119.012613
0
LINE
8
Layer 1
10
93.045243
20
119.012613
11
93.045243
21
119.012613
0
LINE
8
Layer 1
10
116.954757
20
119.012613
11
118.734382
21
118.810593
0
LINE
8
Layer 1
10
118.734382
20
118.810593
11
121.447667
21
118.218124
0
LINE
8
Layer 1
10
121.447667
20
118.218124
11
129.101246
21
116.064879
0
LINE
8
Layer 1
10
129.101246
20
116.064879
11
138.767555
21
112.958959
0
LINE
8
Layer 1
10
138.767555
20
112.958959
11
149.298655
21
109.306445
0
LINE
8
Layer 1
10
149.298655
20
109.306445
11
159.546607
21
105.513417
0
LINE
8
Layer 1
10
159.546607
20
105.513417
11
168.363473
21
101.985956
0
LINE
8
Layer 1
10
168.363473
20
101.985956
11
174.601313
21
99.130142
0
LINE
8
Layer 1
10
174.601313
20
99.130142
11
176.394367
21
98.081004
0
LINE
8
Layer 1
10
176.394367
20
98.081004
11
177.112188
21
97.352057
0
LINE
8
Layer 1
10
177.112188
20
97.352057
11
182.691603
21
77.525765
0
LINE
8
Layer 1
10
182.691603
20
77.525765
11
190.235521
21
51.905460
0
LINE
8
Layer 1
10
190.235521
20
51.905460
11
200.651285
21
17.606641
0
LINE
8
Layer 1
10
200.651285
20
17.606641
11
205.972268
21
0.490847
0
LINE
8
Layer 1
10
205.972268
20
0.490847
11
209.479549
21
-10.007034
0
LINE
8
Layer 1
10
209.479549
20
-10.007034
11
210.262918
21
-12.329448
0
LINE
8
Layer 1
10
210.262918
20
-12.329448
11
210.758330
21
-14.377566
0
LINE
8
Layer 1
10
210.758330
20
-14.377566
11
210.925236
21
-15.929342
0
LINE
8
Layer 1
10
210.925236
20
-15.929342
11
210.723091
21
-16.762729
0
LINE
8
Layer 1
10
210.723091
20
-16.762729
11
210.483098
21
-16.797194
0
LINE
8
Layer 1
10
210.483098
20
-16.797194
11
210.081587
21
-16.566931
0
LINE
8
Layer 1
10
210.081587
20
-16.566931
11
208.755084
21
-15.260022
0
LINE
8
Layer 1
10
208.755084
20
-15.260022
11
206.665724
21
-12.737613
0
LINE
8
Layer 1
10
206.665724
20
-12.737613
11
203.735650
21
-8.895312
0
LINE
8
Layer 1
10
203.735650
20
-8.895312
11
195.041933
21
3.166522
0
LINE
8
Layer 1
10
195.041933
20
3.166522
11
182.051077
21
21.760599
0
LINE
8
Layer 1
10
182.051077
20
21.760599
11
165.805660
21
45.035113
0
LINE
8
Layer 1
10
165.805660
20
45.035113
11
154.947116
21
60.752985
0
LINE
8
Layer 1
10
154.947116
20
60.752985
11
142.539966
21
78.998793
0
LINE
8
Layer 1
10
142.539966
20
78.998793
11
130.953684
21
95.892657
0
LINE
8
Layer 1
10
130.953684
20
95.892657
11
122.070035
21
108.358724
0
LINE
8
Layer 1
10
122.070035
20
108.358724
11
119.462387
21
112.069129
0
LINE
8
Layer 1
10
119.462387
20
112.069129
11
117.507313
21
115.288007
0
LINE
8
Layer 1
10
117.507313
20
115.288007
11
116.393826
21
117.670437
0
LINE
8
Layer 1
10
116.393826
20
117.670437
11
116.211743
21
118.440198
0
LINE
8
Layer 1
10
116.211743
20
118.440198
11
116.310938
21
118.871502
0
LINE
8
Layer 1
10
116.310938
20
118.871502
11
116.954757
21
119.012613
0
LINE
8
Layer 1
10
116.954757
20
119.012613
11
116.954757
21
119.012613
0
LINE
8
Layer 1
10
100.718160
20
113.844418
11
100.718160
21
80.736224
0
LINE
8
Layer 1
10
100.718160
20
80.736224
11
100.598440
21
63.221283
0
LINE
8
Layer 1
10
100.598440
20
63.221283
11
100.408315
21
57.248640
0
LINE
8
Layer 1
10
100.408315
20
57.248640
11
100.095370
21
52.777014
0
LINE
8
Layer 1
10
100.095370
20
52.777014
11
99.632621
21
49.539756
0
LINE
8
Layer 1
10
99.632621
20
49.539756
11
98.993087
21
47.270215
0
LINE
8
Layer 1
10
98.993087
20
47.270215
11
98.149784
21
45.701740
0
LINE
8
Layer 1
10
98.149784
20
45.701740
11
97.075729
21
44.567682
0
LINE
8
Layer 1
10
97.075729
20
44.567682
11
86.868630
21
36.616636
0
LINE
8
Layer 1
10
86.868630
20
36.616636
11
67.451216
21
21.795877
0
LINE
8
Layer 1
10
67.451216
20
21.795877
11
38.355868
21
-0.499673
0
LINE
8
Layer 1
10
38.355868
20
-0.499673
11
30.065447
21
-7.008578
0
LINE
8
Layer 1
10
30.065447
20
-7.008578
11
20.611999
21
-13.977389
0
LINE
8
Layer 1
10
20.611999
20
-13.977389
11
12.595694
21
-19.540898
0
LINE
8
Layer 1
10
12.595694
20
-19.540898
11
9.939023
21
-21.212786
0
LINE
8
Layer 1
10
9.939023
20
-21.212786
11
8.616701
21
-21.833895
0
LINE
8
Layer 1
10
8.616701
20
-21.833895
11
8.083586
21
-21.650856
0
LINE
8
Layer 1
10
8.083586
20
-21.650856
11
7.875539
21
-21.111265
0
LINE
8
Layer 1
10
7.875539
20
-21.111265
11
7.998385
21
-20.297989
0
LINE
8
Layer 1
10
7.998385
20
-20.297989
11
8.457951
21
-19.293895
0
LINE
8
Layer 1
10
8.457951
20
-19.293895
11
10.728901
21
-15.766508
0
LINE
8
Layer 1
10
10.728901
20
-15.766508
11
16.487323
21
-7.318202
0
LINE
8
Layer 1
10
16.487323
20
-7.318202
11
46.699063
21
36.312682
0
LINE
8
Layer 1
10
46.699063
20
36.312682
11
76.808646
21
79.968932
0
LINE
8
Layer 1
10
76.808646
20
79.968932
11
86.273162
21
93.662854
0
LINE
8
Layer 1
10
86.273162
20
93.662854
11
94.085938
21
104.698655
0
LINE
8
Layer 1
10
94.085938
20
104.698655
11
100.718160
21
113.844418
0
LINE
8
Layer 1
10
100.718160
20
113.844418
11
100.718160
21
113.844418
0
LINE
8
Layer 1
10
109.281841
20
113.844418
11
115.914063
21
104.698655
0
LINE
8
Layer 1
10
115.914063
20
104.698655
11
123.726837
21
93.662854
0
LINE
8
Layer 1
10
123.726837
20
93.662854
11
133.191354
21
79.968932
0
LINE
8
Layer 1
10
133.191354
20
79.968932
11
163.300938
21
36.312682
0
LINE
8
Layer 1
10
163.300938
20
36.312682
11
193.512675
21
-7.318202
0
LINE
8
Layer 1
10
193.512675
20
-7.318202
11
199.271098
21
-15.766508
0
LINE
8
Layer 1
10
199.271098
20
-15.766508
11
201.542049
21
-19.293895
0
LINE
8
Layer 1
10
201.542049
20
-19.293895
11
202.001613
21
-20.297989
0
LINE
8
Layer 1
10
202.001613
20
-20.297989
11
202.124459
21
-21.111265
0
LINE
8
Layer 1
10
202.124459
20
-21.111265
11
201.916413
21
-21.650856
0
LINE
8
Layer 1
10
201.916413
20
-21.650856
11
201.383299
21
-21.833895
0
LINE
8
Layer 1
10
201.383299
20
-21.833895
11
200.060976
21
-21.212786
0
LINE
8
Layer 1
10
200.060976
20
-21.212786
11
197.404305
21
-19.540898
0
LINE
8
Layer 1
10
197.404305
20
-19.540898
11
189.388000
21
-13.977389
0
LINE
8
Layer 1
10
189.388000
20
-13.977389
11
179.934553
21
-7.008578
0
LINE
8
Layer 1
10
179.934553
20
-7.008578
11
171.644132
21
-0.499673
0
LINE
8
Layer 1
10
171.644132
20
-0.499673
11
142.548785
21
21.795877
0
LINE
8
Layer 1
10
142.548785
20
21.795877
11
123.131367
21
36.616636
0
LINE
8
Layer 1
10
123.131367
20
36.616636
11
112.924271
21
44.567682
0
LINE
8
Layer 1
10
112.924271
20
44.567682
11
111.850212
21
45.701740
0
LINE
8
Layer 1
10
111.850212
20
45.701740
11
111.006907
21
47.270215
0
LINE
8
Layer 1
10
111.006907
20
47.270215
11
110.367372
21
49.539756
0
LINE
8
Layer 1
10
110.367372
20
49.539756
11
109.904625
21
52.777014
0
LINE
8
Layer 1
10
109.904625
20
52.777014
11
109.591681
21
57.248640
0
LINE
8
Layer 1
10
109.591681
20
57.248640
11
109.401558
21
63.221283
0
LINE
8
Layer 1
10
109.401558
20
63.221283
11
109.281841
21
80.736224
0
LINE
8
Layer 1
10
109.281841
20
80.736224
11
109.281841
21
113.844418
0
LINE
8
Layer 1
10
109.281841
20
113.844418
11
109.281841
21
113.844418
 0 
ENDSEC
 0 
EOF
