0
SECTION
2
HEADER
9
$ACADVER
1
AC1009
9
$ANGDIR
70
0
9
$EXTMIN
10
0
20
0
9
$EXTMAX
10
24.0000
20
18.0000
0
ENDSEC
0
SECTION
2
ENTITIES
0
POLYLINE
8
Layer 1
66
1
0
VERTEX
8
0
10
4.5257
20
6.4924
0
VERTEX
8
0
10
4.0615
20
6.4924
0
VERTEX
8
0
10
3.5196
20
7.4325
0
VERTEX
8
0
10
4.6025
20
7.4325
0
VERTEX
8
0
10
4.8355
20
7.0285
42
0.1006
0
VERTEX
8
0
10
4.5257
20
6.4924
0
SEQEND
8
0
0
POLYLINE
8
Layer 1
66
1
0
VERTEX
8
0
10
4.8365
20
4.9705
0
VERTEX
8
0
10
4.6034
20
4.5675
0
VERTEX
8
0
10
3.5186
20
4.5675
0
VERTEX
8
0
10
4.0605
20
5.5057
0
VERTEX
8
0
10
4.5267
20
5.5057
42
0.1005
0
VERTEX
8
0
10
4.8365
20
4.9705
0
SEQEND
8
0
0
POLYLINE
8
Layer 1
66
1
0
VERTEX
8
0
10
6.3088
20
4.4772
0
VERTEX
8
0
10
6.5419
20
4.0732
0
VERTEX
8
0
10
6.0000
20
3.1340
0
VERTEX
8
0
10
5.4581
20
4.0722
0
VERTEX
8
0
10
5.6921
20
4.4772
42
0.0498
0
VERTEX
8
0
10
6.0000
20
4.4461
42
0.0500
0
VERTEX
8
0
10
6.3088
20
4.4772
0
SEQEND
8
0
0
POLYLINE
8
Layer 1
66
1
0
VERTEX
8
0
10
7.4733
20
5.5057
42
-0.1002
0
VERTEX
8
0
10
7.1645
20
4.9715
0
VERTEX
8
0
10
7.3985
20
4.5656
0
VERTEX
8
0
10
8.4814
20
4.5656
0
VERTEX
8
0
10
7.9395
20
5.5057
0
VERTEX
8
0
10
7.4733
20
5.5057
0
SEQEND
8
0
0
POLYLINE
8
Layer 1
66
1
0
VERTEX
8
0
10
7.3975
20
7.4315
0
VERTEX
8
0
10
7.1645
20
7.0275
42
-0.1005
0
VERTEX
8
0
10
7.4743
20
6.4924
0
VERTEX
8
0
10
7.9404
20
6.4924
0
VERTEX
8
0
10
8.4824
20
7.4315
0
VERTEX
8
0
10
7.3975
20
7.4315
0
SEQEND
8
0
0
POLYLINE
8
Layer 1
66
1
0
VERTEX
8
0
10
6.0010
20
8.8640
0
VERTEX
8
0
10
5.4590
20
7.9249
0
VERTEX
8
0
10
5.6912
20
7.5228
42
-0.0500
0
VERTEX
8
0
10
6.0000
20
7.5539
42
-0.0501
0
VERTEX
8
0
10
6.3098
20
7.5228
0
VERTEX
8
0
10
6.5429
20
7.9259
0
VERTEX
8
0
10
6.0010
20
8.8640
0
SEQEND
8
0
0
POLYLINE
8
Layer 1
66
1
0
VERTEX
8
0
10
6.0000
20
11.3619
42
-0.4147
0
VERTEX
8
0
10
6.1428
20
11.2192
42
-0.1967
0
VERTEX
8
0
10
6.1010
20
11.1178
42
-0.1998
0
VERTEX
8
0
10
6.0000
20
11.0754
42
-0.2000
0
VERTEX
8
0
10
5.8989
20
11.1178
42
-0.1975
0
VERTEX
8
0
10
5.8572
20
11.2192
42
-0.4147
0
VERTEX
8
0
10
6.0000
20
11.3619
0
SEQEND
8
0
0
POLYLINE
8
Layer 1
66
1
0
VERTEX
8
0
10
6.0000
20
12.0000
0
VERTEX
8
0
10
5.2085
20
11.1997
0
VERTEX
8
0
10
5.5834
20
10.7821
0
VERTEX
8
0
10
5.5853
20
9.2127
0
VERTEX
8
0
10
5.1502
20
8.4610
0
VERTEX
8
0
10
4.8530
20
8.9757
0
VERTEX
8
0
10
5.3231
20
9.5351
0
VERTEX
8
0
10
5.0881
20
10.0848
0
VERTEX
8
0
10
4.5694
20
9.4671
0
VERTEX
8
0
10
4.3898
20
9.7789
0
VERTEX
8
0
10
4.9395
20
10.4335
0
VERTEX
8
0
10
4.7044
20
10.9822
0
VERTEX
8
0
10
4.1062
20
10.2693
0
VERTEX
8
0
10
3.9265
20
10.5811
0
VERTEX
8
0
10
4.5549
20
11.3318
0
VERTEX
8
0
10
4.3198
20
11.8805
0
VERTEX
8
0
10
3.6429
20
11.0735
0
VERTEX
8
0
10
3.4516
20
11.4037
0
VERTEX
8
0
10
2.5960
20
10.9094
0
VERTEX
8
0
10
2.7873
20
10.5792
0
VERTEX
8
0
10
1.7491
20
10.3956
0
VERTEX
8
0
10
2.1075
20
9.9168
0
VERTEX
8
0
10
3.0709
20
10.0877
0
VERTEX
8
0
10
3.2506
20
9.7760
0
VERTEX
8
0
10
2.3338
20
9.6138
0
VERTEX
8
0
10
2.6931
20
9.1360
0
VERTEX
8
0
10
3.5351
20
9.2846
0
VERTEX
8
0
10
3.7148
20
8.9728
0
VERTEX
8
0
10
2.9204
20
8.8330
0
VERTEX
8
0
10
3.2787
20
8.3542
0
VERTEX
8
0
10
3.9984
20
8.4814
0
VERTEX
8
0
10
4.2956
20
7.9667
0
VERTEX
8
0
10
3.4147
20
7.9667
0
VERTEX
8
0
10
2.0715
20
8.7407
0
VERTEX
8
0
10
1.8948
20
9.2836
0
VERTEX
8
0
10
0.8061
20
8.9990
0
VERTEX
8
0
10
1.1042
20
7.9132
0
VERTEX
8
0
10
1.6520
20
8.0298
0
VERTEX
8
0
10
3.0126
20
7.2460
0
VERTEX
8
0
10
3.4467
20
6.4943
0
VERTEX
8
0
10
2.8524
20
6.4943
0
VERTEX
8
0
10
2.6028
20
7.1810
0
VERTEX
8
0
10
2.0084
20
7.2528
0
VERTEX
8
0
10
2.2852
20
6.4943
0
VERTEX
8
0
10
1.9239
20
6.4943
0
VERTEX
8
0
10
1.6306
20
7.2975
0
VERTEX
8
0
10
1.0382
20
7.3684
0
VERTEX
8
0
10
1.3558
20
6.4934
0
VERTEX
8
0
10
0.9964
20
6.4934
0
VERTEX
8
0
10
0.6614
20
7.4140
0
VERTEX
8
0
10
0.0680
20
7.4849
0
VERTEX
8
0
10
0.4283
20
6.4934
0
VERTEX
8
0
10
0.0466
20
6.4934
0
VERTEX
8
0
10
0.0466
20
5.5057
0
VERTEX
8
0
10
0.4283
20
5.5057
0
VERTEX
8
0
10
0.0680
20
4.5151
0
VERTEX
8
0
10
0.6614
20
4.5860
0
VERTEX
8
0
10
0.9964
20
5.5057
0
VERTEX
8
0
10
1.3558
20
5.5057
0
VERTEX
8
0
10
1.0382
20
4.6306
0
VERTEX
8
0
10
1.6306
20
4.7015
0
VERTEX
8
0
10
1.9239
20
5.5057
0
VERTEX
8
0
10
2.2833
20
5.5057
0
VERTEX
8
0
10
2.0074
20
4.7472
0
VERTEX
8
0
10
2.6008
20
4.8190
0
VERTEX
8
0
10
2.8504
20
5.5057
0
VERTEX
8
0
10
3.4448
20
5.5057
0
VERTEX
8
0
10
3.0039
20
4.7423
0
VERTEX
8
0
10
1.6627
20
3.9663
0
VERTEX
8
0
10
1.1033
20
4.0848
0
VERTEX
8
0
10
0.8061
20
2.9990
0
VERTEX
8
0
10
1.8948
20
2.7135
0
VERTEX
8
0
10
2.0677
20
3.2476
0
VERTEX
8
0
10
3.4264
20
4.0343
0
VERTEX
8
0
10
4.2946
20
4.0343
0
VERTEX
8
0
10
3.9974
20
3.5186
0
VERTEX
8
0
10
3.2778
20
3.6458
0
VERTEX
8
0
10
2.9194
20
3.1670
0
VERTEX
8
0
10
3.7138
20
3.0272
0
VERTEX
8
0
10
3.5342
20
2.7154
0
VERTEX
8
0
10
2.6921
20
2.8640
0
VERTEX
8
0
10
2.3328
20
2.3852
0
VERTEX
8
0
10
3.2496
20
2.2240
0
VERTEX
8
0
10
3.0699
20
1.9123
0
VERTEX
8
0
10
2.1065
20
2.0822
0
VERTEX
8
0
10
1.7481
20
1.6034
0
VERTEX
8
0
10
2.7863
20
1.4208
0
VERTEX
8
0
10
2.5950
20
1.0897
0
VERTEX
8
0
10
3.4506
20
0.5963
0
VERTEX
8
0
10
3.6410
20
0.9265
0
VERTEX
8
0
10
4.3189
20
0.1185
0
VERTEX
8
0
10
4.5549
20
0.6682
0
VERTEX
8
0
10
3.9265
20
1.4179
0
VERTEX
8
0
10
4.1062
20
1.7297
0
VERTEX
8
0
10
4.7044
20
1.0168
0
VERTEX
8
0
10
4.9395
20
1.5665
0
VERTEX
8
0
10
4.3898
20
2.2211
0
VERTEX
8
0
10
4.5694
20
2.5329
0
VERTEX
8
0
10
5.0881
20
1.9142
0
VERTEX
8
0
10
5.3231
20
2.4639
0
VERTEX
8
0
10
4.8530
20
3.0243
0
VERTEX
8
0
10
5.1502
20
3.5380
0
VERTEX
8
0
10
5.5902
20
2.7757
0
VERTEX
8
0
10
5.5921
20
1.2256
0
VERTEX
8
0
10
5.2095
20
0.8003
0
VERTEX
8
0
10
6.0010
20
0.0000
0
VERTEX
8
0
10
6.7925
20
0.8003
0
VERTEX
8
0
10
6.4166
20
1.2179
0
VERTEX
8
0
10
6.4157
20
2.7873
0
VERTEX
8
0
10
6.8498
20
3.5400
0
VERTEX
8
0
10
7.1470
20
3.0243
0
VERTEX
8
0
10
6.6769
20
2.4639
0
VERTEX
8
0
10
6.9119
20
1.9152
0
VERTEX
8
0
10
7.4306
20
2.5329
0
VERTEX
8
0
10
7.6112
20
2.2211
0
VERTEX
8
0
10
7.0615
20
1.5665
0
VERTEX
8
0
10
7.2965
20
1.0168
0
VERTEX
8
0
10
7.8948
20
1.7297
0
VERTEX
8
0
10
8.0745
20
1.4189
0
VERTEX
8
0
10
7.4451
20
0.6682
0
VERTEX
8
0
10
7.6802
20
0.1195
0
VERTEX
8
0
10
8.3581
20
0.9275
0
VERTEX
8
0
10
8.5494
20
0.5963
0
VERTEX
8
0
10
9.4050
20
1.0906
0
VERTEX
8
0
10
9.2137
20
1.4208
0
VERTEX
8
0
10
10.2519
20
1.6044
0
VERTEX
8
0
10
9.8935
20
2.0822
0
VERTEX
8
0
10
8.9301
20
1.9123
0
VERTEX
8
0
10
8.7494
20
2.2240
0
VERTEX
8
0
10
9.6662
20
2.3862
0
VERTEX
8
0
10
9.3079
20
2.8640
0
VERTEX
8
0
10
8.4658
20
2.7154
0
VERTEX
8
0
10
8.2862
20
3.0272
0
VERTEX
8
0
10
9.0806
20
3.1670
0
VERTEX
8
0
10
8.7222
20
3.6458
0
VERTEX
8
0
10
8.0026
20
3.5186
0
VERTEX
8
0
10
7.7054
20
4.0333
0
VERTEX
8
0
10
8.5863
20
4.0333
0
VERTEX
8
0
10
9.9294
20
3.2603
0
VERTEX
8
0
10
10.1062
20
2.7154
0
VERTEX
8
0
10
11.1949
20
3.0010
0
VERTEX
8
0
10
10.8977
20
4.0868
0
VERTEX
8
0
10
10.3490
20
3.9702
0
VERTEX
8
0
10
8.9883
20
4.7540
0
VERTEX
8
0
10
8.5542
20
5.5057
0
VERTEX
8
0
10
9.1486
20
5.5057
0
VERTEX
8
0
10
9.3992
20
4.8190
0
VERTEX
8
0
10
9.9926
20
4.7472
0
VERTEX
8
0
10
9.7167
20
5.5057
0
VERTEX
8
0
10
10.0761
20
5.5057
0
VERTEX
8
0
10
10.3684
20
4.7025
0
VERTEX
8
0
10
10.9618
20
4.6316
0
VERTEX
8
0
10
10.6433
20
5.5057
0
VERTEX
8
0
10
11.0036
20
5.5057
0
VERTEX
8
0
10
11.3386
20
4.5860
0
VERTEX
8
0
10
11.9320
20
4.5151
0
VERTEX
8
0
10
11.5707
20
5.5066
0
VERTEX
8
0
10
11.9534
20
5.5066
0
VERTEX
8
0
10
11.9534
20
6.4934
0
VERTEX
8
0
10
11.5707
20
6.4934
0
VERTEX
8
0
10
11.9320
20
7.4849
0
VERTEX
8
0
10
11.3386
20
7.4140
0
VERTEX
8
0
10
11.0036
20
6.4943
0
VERTEX
8
0
10
10.6433
20
6.4943
0
VERTEX
8
0
10
10.9618
20
7.3694
0
VERTEX
8
0
10
10.3684
20
7.2975
0
VERTEX
8
0
10
10.0761
20
6.4943
0
VERTEX
8
0
10
9.7167
20
6.4943
0
VERTEX
8
0
10
9.9926
20
7.2528
0
VERTEX
8
0
10
9.3992
20
7.1819
0
VERTEX
8
0
10
9.1486
20
6.4943
0
VERTEX
8
0
10
8.5552
20
6.4943
0
VERTEX
8
0
10
8.9961
20
7.2577
0
VERTEX
8
0
10
10.3373
20
8.0337
0
VERTEX
8
0
10
10.8967
20
7.9152
0
VERTEX
8
0
10
11.1939
20
9.0010
0
VERTEX
8
0
10
10.1052
20
9.2855
0
VERTEX
8
0
10
9.9323
20
8.7524
0
VERTEX
8
0
10
8.5736
20
7.9667
0
VERTEX
8
0
10
7.7044
20
7.9667
0
VERTEX
8
0
10
8.0026
20
8.4814
0
VERTEX
8
0
10
8.7222
20
8.3542
0
VERTEX
8
0
10
9.0806
20
8.8330
0
VERTEX
8
0
10
8.2862
20
8.9728
0
VERTEX
8
0
10
8.4658
20
9.2846
0
VERTEX
8
0
10
9.3079
20
9.1360
0
VERTEX
8
0
10
9.6662
20
9.6148
0
VERTEX
8
0
10
8.7504
20
9.7760
0
VERTEX
8
0
10
8.9301
20
10.0877
0
VERTEX
8
0
10
9.8935
20
9.9178
0
VERTEX
8
0
10
10.2519
20
10.3956
0
VERTEX
8
0
10
9.2137
20
10.5792
0
VERTEX
8
0
10
9.4050
20
10.9103
0
VERTEX
8
0
10
8.5494
20
11.4037
0
VERTEX
8
0
10
8.3590
20
11.0735
0
VERTEX
8
0
10
7.6811
20
11.8805
0
VERTEX
8
0
10
7.4461
20
11.3318
0
VERTEX
8
0
10
8.0754
20
10.5811
0
VERTEX
8
0
10
7.8948
20
10.2703
0
VERTEX
8
0
10
7.2965
20
10.9832
0
VERTEX
8
0
10
7.0615
20
10.4335
0
VERTEX
8
0
10
7.6112
20
9.7789
0
VERTEX
8
0
10
7.4315
20
9.4671
0
VERTEX
8
0
10
6.9129
20
10.0848
0
VERTEX
8
0
10
6.6779
20
9.5361
0
VERTEX
8
0
10
7.1479
20
8.9757
0
VERTEX
8
0
10
6.8508
20
8.4610
0
VERTEX
8
0
10
6.4098
20
9.2243
0
VERTEX
8
0
10
6.4089
20
10.7744
0
VERTEX
8
0
10
6.7915
20
11.1997
0
VERTEX
8
0
10
6.0000
20
12.0000
0
SEQEND
8
0
0
ENDSEC
0
EOF
