  0
SECTION
  2
HEADER
  9
$ACADVER
  1
AC1021
  9
$ACADMAINTVER
 70
    25
  9
$DWGCODEPAGE
  3
ANSI_1252
  9
$INSBASE
 10
0.0
 20
0.0
 30
0.0
  9
$EXTMIN
 10
-10.36066
 20
-13.19964
 30
0.0
  9
$EXTMAX
 10
10.2723
 20
14.11417
 30
0.0
  9
$LIMMIN
 10
0.0
 20
0.0
  9
$LIMMAX
 10
12.0
 20
9.0
  9
$ORTHOMODE
 70
     0
  9
$REGENMODE
 70
     1
  9
$FILLMODE
 70
     1
  9
$QTEXTMODE
 70
     0
  9
$MIRRTEXT
 70
     1
  9
$LTSCALE
 40
1.0
  9
$ATTMODE
 70
     1
  9
$TEXTSIZE
 40
0.2
  9
$TRACEWID
 40
0.05
  9
$TEXTSTYLE
  7
Standard
  9
$CLAYER
  8
0
  9
$CELTYPE
  6
ByLayer
  9
$CECOLOR
 62
   256
  9
$CELTSCALE
 40
1.0
  9
$DISPSILH
 70
     0
  9
$DIMSCALE
 40
1.0
  9
$DIMASZ
 40
0.18
  9
$DIMEXO
 40
0.0625
  9
$DIMDLI
 40
0.38
  9
$DIMRND
 40
0.0
  9
$DIMDLE
 40
0.0
  9
$DIMEXE
 40
0.18
  9
$DIMTP
 40
0.0
  9
$DIMTM
 40
0.0
  9
$DIMTXT
 40
0.18
  9
$DIMCEN
 40
0.09
  9
$DIMTSZ
 40
0.0
  9
$DIMTOL
 70
     0
  9
$DIMLIM
 70
     0
  9
$DIMTIH
 70
     1
  9
$DIMTOH
 70
     1
  9
$DIMSE1
 70
     0
  9
$DIMSE2
 70
     0
  9
$DIMTAD
 70
     0
  9
$DIMZIN
 70
     0
  9
$DIMBLK
  1

  9
$DIMASO
 70
     1
  9
$DIMSHO
 70
     1
  9
$DIMPOST
  1

  9
$DIMAPOST
  1

  9
$DIMALT
 70
     0
  9
$DIMALTD
 70
     2
  9
$DIMALTF
 40
25.4
  9
$DIMLFAC
 40
1.0
  9
$DIMTOFL
 70
     0
  9
$DIMTVP
 40
0.0
  9
$DIMTIX
 70
     0
  9
$DIMSOXD
 70
     0
  9
$DIMSAH
 70
     0
  9
$DIMBLK1
  1

  9
$DIMBLK2
  1

  9
$DIMSTYLE
  2
Standard
  9
$DIMCLRD
 70
     0
  9
$DIMCLRE
 70
     0
  9
$DIMCLRT
 70
     0
  9
$DIMTFAC
 40
1.0
  9
$DIMGAP
 40
0.09
  9
$DIMJUST
 70
     0
  9
$DIMSD1
 70
     0
  9
$DIMSD2
 70
     0
  9
$DIMTOLJ
 70
     1
  9
$DIMTZIN
 70
     0
  9
$DIMALTZ
 70
     0
  9
$DIMALTTZ
 70
     0
  9
$DIMUPT
 70
     0
  9
$DIMDEC
 70
     4
  9
$DIMTDEC
 70
     4
  9
$DIMALTU
 70
     2
  9
$DIMALTTD
 70
     2
  9
$DIMTXSTY
  7
Standard
  9
$DIMAUNIT
 70
     0
  9
$DIMADEC
 70
     0
  9
$DIMALTRND
 40
0.0
  9
$DIMAZIN
 70
     0
  9
$DIMDSEP
 70
    46
  9
$DIMATFIT
 70
     3
  9
$DIMFRAC
 70
     0
  9
$DIMLDRBLK
  1

  9
$DIMLUNIT
 70
     2
  9
$DIMLWD
 70
    -2
  9
$DIMLWE
 70
    -2
  9
$DIMTMOVE
 70
     0
  9
$DIMFXL
 40
1.0
  9
$DIMFXLON
 70
     0
  9
$DIMJOGANG
 40
0.7853981633974483
  9
$DIMTFILL
 70
     0
  9
$DIMTFILLCLR
 70
     0
  9
$DIMARCSYM
 70
     0
  9
$DIMLTYPE
  6

  9
$DIMLTEX1
  6

  9
$DIMLTEX2
  6

  9
$LUNITS
 70
     2
  9
$LUPREC
 70
     4
  9
$SKETCHINC
 40
0.1
  9
$FILLETRAD
 40
0.5
  9
$AUNITS
 70
     0
  9
$AUPREC
 70
     0
  9
$MENU
  1
.
  9
$ELEVATION
 40
0.0
  9
$PELEVATION
 40
0.0
  9
$THICKNESS
 40
0.0
  9
$LIMCHECK
 70
     0
  9
$CHAMFERA
 40
0.5
  9
$CHAMFERB
 40
0.5
  9
$CHAMFERC
 40
1.0
  9
$CHAMFERD
 40
0.0
  9
$SKPOLY
 70
     0
  9
$TDCREATE
 40
2455939.498348623
  9
$TDUCREATE
 40
2455939.581681956
  9
$TDUPDATE
 40
2455939.498348634
  9
$TDUUPDATE
 40
2455939.581681968
  9
$TDINDWG
 40
0.0000000116
  9
$TDUSRTIMER
 40
0.0000000116
  9
$USRTIMER
 70
     1
  9
$ANGBASE
 50
0.0
  9
$ANGDIR
 70
     0
  9
$PDMODE
 70
     0
  9
$PDSIZE
 40
0.0
  9
$PLINEWID
 40
0.0
  9
$SPLFRAME
 70
     0
  9
$SPLINETYPE
 70
     6
  9
$SPLINESEGS
 70
     8
  9
$HANDSEED
  5
9F
  9
$SURFTAB1
 70
     6
  9
$SURFTAB2
 70
     6
  9
$SURFTYPE
 70
     6
  9
$SURFU
 70
     6
  9
$SURFV
 70
     6
  9
$UCSBASE
  2

  9
$UCSNAME
  2

  9
$UCSORG
 10
0.0
 20
0.0
 30
0.0
  9
$UCSXDIR
 10
1.0
 20
0.0
 30
0.0
  9
$UCSYDIR
 10
0.0
 20
1.0
 30
0.0
  9
$UCSORTHOREF
  2

  9
$UCSORTHOVIEW
 70
     0
  9
$UCSORGTOP
 10
0.0
 20
0.0
 30
0.0
  9
$UCSORGBOTTOM
 10
0.0
 20
0.0
 30
0.0
  9
$UCSORGLEFT
 10
0.0
 20
0.0
 30
0.0
  9
$UCSORGRIGHT
 10
0.0
 20
0.0
 30
0.0
  9
$UCSORGFRONT
 10
0.0
 20
0.0
 30
0.0
  9
$UCSORGBACK
 10
0.0
 20
0.0
 30
0.0
  9
$PUCSBASE
  2

  9
$PUCSNAME
  2

  9
$PUCSORG
 10
0.0
 20
0.0
 30
0.0
  9
$PUCSXDIR
 10
1.0
 20
0.0
 30
0.0
  9
$PUCSYDIR
 10
0.0
 20
1.0
 30
0.0
  9
$PUCSORTHOREF
  2

  9
$PUCSORTHOVIEW
 70
     0
  9
$PUCSORGTOP
 10
0.0
 20
0.0
 30
0.0
  9
$PUCSORGBOTTOM
 10
0.0
 20
0.0
 30
0.0
  9
$PUCSORGLEFT
 10
0.0
 20
0.0
 30
0.0
  9
$PUCSORGRIGHT
 10
0.0
 20
0.0
 30
0.0
  9
$PUCSORGFRONT
 10
0.0
 20
0.0
 30
0.0
  9
$PUCSORGBACK
 10
0.0
 20
0.0
 30
0.0
  9
$USERI1
 70
     0
  9
$USERI2
 70
     0
  9
$USERI3
 70
     0
  9
$USERI4
 70
     0
  9
$USERI5
 70
     0
  9
$USERR1
 40
0.0
  9
$USERR2
 40
0.0
  9
$USERR3
 40
0.0
  9
$USERR4
 40
0.0
  9
$USERR5
 40
0.0
  9
$WORLDVIEW
 70
     1
  9
$SHADEDGE
 70
     3
  9
$SHADEDIF
 70
    70
  9
$TILEMODE
 70
     1
  9
$MAXACTVP
 70
    64
  9
$PINSBASE
 10
0.0
 20
0.0
 30
0.0
  9
$PLIMCHECK
 70
     0
  9
$PEXTMIN
 10
1.000000000000000E 20
 20
1.000000000000000E 20
 30
1.000000000000000E 20
  9
$PEXTMAX
 10
-1.000000000000000E 20
 20
-1.000000000000000E 20
 30
-1.000000000000000E 20
  9
$PLIMMIN
 10
0.0
 20
0.0
  9
$PLIMMAX
 10
12.0
 20
9.0
  9
$UNITMODE
 70
     0
  9
$VISRETAIN
 70
     1
  9
$PLINEGEN
 70
     0
  9
$PSLTSCALE
 70
     1
  9
$TREEDEPTH
 70
  3020
  9
$CMLSTYLE
  2
Standard
  9
$CMLJUST
 70
     0
  9
$CMLSCALE
 40
1.0
  9
$PROXYGRAPHICS
 70
     1
  9
$MEASUREMENT
 70
     0
  9
$CELWEIGHT
370
    -1
  9
$ENDCAPS
280
     0
  9
$JOINSTYLE
280
     0
  9
$LWDISPLAY
290
     0
  9
$INSUNITS
 70
     5
  9
$HYPERLINKBASE
  1

  9
$STYLESHEET
  1

  9
$XEDIT
290
     1
  9
$CEPSNTYPE
380
     0
  9
$PSTYLEMODE
290
     1
  9
$FINGERPRINTGUID
  2
{42CF0D63-440A-4CBE-86F4-7182A9941A08}
  9
$VERSIONGUID
  2
{FAEB1C32-E019-11D5-929B-00C0DF256EC4}
  9
$EXTNAMES
290
     1
  9
$PSVPSCALE
 40
0.0
  9
$OLESTARTUP
290
     0
  9
$SORTENTS
280
   127
  9
$INDEXCTL
280
     0
  9
$HIDETEXT
280
     1
  9
$XCLIPFRAME
290
     0
  9
$HALOGAP
280
     0
  9
$OBSCOLOR
 70
   257
  9
$OBSLTYPE
280
     0
  9
$INTERSECTIONDISPLAY
280
     0
  9
$INTERSECTIONCOLOR
 70
   257
  9
$DIMASSOC
280
     2
  9
$PROJECTNAME
  1

  9
$CAMERADISPLAY
290
     0
  9
$LENSLENGTH
 40
50.0
  9
$CAMERAHEIGHT
 40
0.0
  9
$STEPSPERSEC
 40
2.0
  9
$STEPSIZE
 40
6.0
  9
$3DDWFPREC
 40
2.0
  9
$PSOLWIDTH
 40
0.25
  9
$PSOLHEIGHT
 40
4.0
  9
$LOFTANG1
 40
1.570796326794897
  9
$LOFTANG2
 40
1.570796326794897
  9
$LOFTMAG1
 40
0.0
  9
$LOFTMAG2
 40
0.0
  9
$LOFTPARAM
 70
     7
  9
$LOFTNORMALS
280
     1
  9
$LATITUDE
 40
37.795
  9
$LONGITUDE
 40
-122.394
  9
$NORTHDIRECTION
 40
0.0
  9
$TIMEZONE
 70
 -8000
  9
$LIGHTGLYPHDISPLAY
280
     1
  9
$TILEMODELIGHTSYNCH
280
     1
  9
$SOLIDHIST
280
     1
  9
$SHOWHIST
280
     1
  9
$DWFFRAME
280
     2
  9
$DGNFRAME
280
     2
  9
$REALWORLDSCALE
290
     1
  9
$INTERFERECOLOR
 62
   256
  9
$CSHADOW
280
     0
  9
$SHADOWPLANELOCATION
 40
0.0
  0
ENDSEC
  0
SECTION
  2
CLASSES
  0
CLASS
  1
ACDBDICTIONARYWDFLT
  2
AcDbDictionaryWithDefault
  3
ObjectDBX Classes
 90
        0
 91
        4
280
     0
281
     0
  0
CLASS
  1
VISUALSTYLE
  2
AcDbVisualStyle
  3
ObjectDBX Classes
 90
     4095
 91
        4
280
     0
281
     0
  0
CLASS
  1
MATERIAL
  2
AcDbMaterial
  3
ObjectDBX Classes
 90
     1153
 91
        4
280
     0
281
     0
  0
ENDSEC
  0
SECTION
  2
TABLES
  0
TABLE
  2
VPORT
  5
8
330
0
100
AcDbSymbolTable
 70
     1
  0
VPORT
  5
29
330
8
100
AcDbSymbolTableRecord
100
AcDbViewportTableRecord
  2
*Active
 70
     0
 10
0.0
 20
0.0
 11
1.0
 21
1.0
 12
10.42990654205607
 22
4.5
 13
0.0
 23
0.0
 14
0.5
 24
0.5
 15
0.5
 25
0.5
 16
0.0
 26
0.0
 36
1.0
 17
0.0
 27
0.0
 37
0.0
 40
9.0
 41
1.972972972850329
 42
50.0
 43
0.0
 44
0.0
 50
0.0
 51
0.0
 71
     0
 72
   100
 73
     1
 74
     3
 75
     0
 76
     0
 77
     0
 78
     0
281
     0
 65
     1
110
0.0
120
0.0
130
0.0
111
1.0
121
0.0
131
0.0
112
0.0
122
1.0
132
0.0
 79
     0
146
0.0
 60
     3
 61
     5
292
     1
282
     1
141
0.0
142
0.0
 63
   250
  0
ENDTAB
  0
TABLE
  2
LTYPE
  5
5
330
0
100
AcDbSymbolTable
 70
     1
  0
LTYPE
  5
14
330
5
100
AcDbSymbolTableRecord
100
AcDbLinetypeTableRecord
  2
ByBlock
 70
     0
  3

 72
    65
 73
     0
 40
0.0
  0
LTYPE
  5
15
330
5
100
AcDbSymbolTableRecord
100
AcDbLinetypeTableRecord
  2
ByLayer
 70
     0
  3

 72
    65
 73
     0
 40
0.0
  0
LTYPE
  5
16
330
5
100
AcDbSymbolTableRecord
100
AcDbLinetypeTableRecord
  2
Continuous
 70
     0
  3
Solid line
 72
    65
 73
     0
 40
0.0
  0
ENDTAB
  0
TABLE
  2
LAYER
  5
2
330
0
100
AcDbSymbolTable
 70
     3
  0
LAYER
  5
10
330
2
100
AcDbSymbolTableRecord
100
AcDbLayerTableRecord
  2
0
 70
     0
 62
     7
  6
Continuous
370
    -3
390
F
347
3E
  0
LAYER
  5
40
330
2
100
AcDbSymbolTableRecord
100
AcDbLayerTableRecord
  2
Camada 1
 70
     0
 62
     7
  6
Continuous
370
    -3
390
F
347
3E
  0
LAYER
  5
42
330
2
100
AcDbSymbolTableRecord
100
AcDbLayerTableRecord
  2
Kerf Pocket Cut 3mm
 70
     0
 62
     7
  6
Continuous
370
    -3
390
F
347
3E
  0
ENDTAB
  0
TABLE
  2
STYLE
  5
3
330
0
100
AcDbSymbolTable
 70
     1
  0
STYLE
  5
11
330
3
100
AcDbSymbolTableRecord
100
AcDbTextStyleTableRecord
  2
Standard
 70
     0
 40
0.0
 41
1.0
 50
0.0
 71
     0
 42
0.2
  3
txt
  4

  0
ENDTAB
  0
TABLE
  2
VIEW
  5
6
330
0
100
AcDbSymbolTable
 70
     0
  0
ENDTAB
  0
TABLE
  2
UCS
  5
7
330
0
100
AcDbSymbolTable
 70
     0
  0
ENDTAB
  0
TABLE
  2
APPID
  5
9
330
0
100
AcDbSymbolTable
 70
     2
  0
APPID
  5
12
330
9
100
AcDbSymbolTableRecord
100
AcDbRegAppTableRecord
  2
ACAD
 70
     0
  0
APPID
  5
3F
330
9
100
AcDbSymbolTableRecord
100
AcDbRegAppTableRecord
  2
ODA
 70
     0
  0
ENDTAB
  0
TABLE
  2
DIMSTYLE
  5
A
330
0
100
AcDbSymbolTable
 70
     1
100
AcDbDimStyleTable
  0
DIMSTYLE
105
27
330
A
100
AcDbSymbolTableRecord
100
AcDbDimStyleTableRecord
  2
Standard
 70
     0
340
11
  0
ENDTAB
  0
TABLE
  2
BLOCK_RECORD
  5
1
330
0
100
AcDbSymbolTable
 70
     1
  0
BLOCK_RECORD
  5
1F
330
1
100
AcDbSymbolTableRecord
100
AcDbBlockTableRecord
  2
*Model_Space
340
22
 70
     0
280
     1
281
     0
  0
BLOCK_RECORD
  5
1B
330
1
100
AcDbSymbolTableRecord
100
AcDbBlockTableRecord
  2
*Paper_Space
340
1E
 70
     0
280
     1
281
     0
  0
BLOCK_RECORD
  5
23
330
1
100
AcDbSymbolTableRecord
100
AcDbBlockTableRecord
  2
*Paper_Space0
340
26
 70
     0
280
     1
281
     0
  0
ENDTAB
  0
ENDSEC
  0
SECTION
  2
BLOCKS
  0
BLOCK
  5
20
330
1F
100
AcDbEntity
  8
0
100
AcDbBlockBegin
  2
*Model_Space
 70
     0
 10
0.0
 20
0.0
 30
0.0
  3
*Model_Space
  1

  0
ENDBLK
  5
21
330
1F
100
AcDbEntity
  8
0
100
AcDbBlockEnd
  0
BLOCK
  5
1C
330
1B
100
AcDbEntity
 67
     1
  8
0
100
AcDbBlockBegin
  2
*Paper_Space
 70
     0
 10
0.0
 20
0.0
 30
0.0
  3
*Paper_Space
  1

  0
ENDBLK
  5
1D
330
1B
100
AcDbEntity
 67
     1
  8
0
100
AcDbBlockEnd
  0
BLOCK
  5
24
330
23
100
AcDbEntity
  8
0
100
AcDbBlockBegin
  2
*Paper_Space0
 70
     0
 10
0.0
 20
0.0
 30
0.0
  3
*Paper_Space0
  1

  0
ENDBLK
  5
25
330
23
100
AcDbEntity
  8
0
100
AcDbBlockEnd
  0
ENDSEC
  0
SECTION
  2
ENTITIES
  0
SPLINE
  5
41
330
1F
100
AcDbEntity
  8
Camada 1
100
AcDbSpline
210
0.0
220
0.0
230
1.0
 70
    11
 71
     3
 72
   972
 73
   968
 74
     0
 42
0.0000000001
 43
0.0000000001
 40
0.0
 40
0.0
 40
0.0
 40
0.0
 40
0.0041152263374486
 40
0.0041152263374486
 40
0.0041152263374486
 40
0.0041152263374486
 40
0.0082304526748971
 40
0.0082304526748971
 40
0.0082304526748971
 40
0.0082304526748971
 40
0.0123456790123457
 40
0.0123456790123457
 40
0.0123456790123457
 40
0.0123456790123457
 40
0.0164609053497942
 40
0.0164609053497942
 40
0.0164609053497942
 40
0.0164609053497942
 40
0.0205761316872428
 40
0.0205761316872428
 40
0.0205761316872428
 40
0.0205761316872428
 40
0.0246913580246914
 40
0.0246913580246914
 40
0.0246913580246914
 40
0.0246913580246914
 40
0.0288065843621399
 40
0.0288065843621399
 40
0.0288065843621399
 40
0.0288065843621399
 40
0.0329218106995885
 40
0.0329218106995885
 40
0.0329218106995885
 40
0.0329218106995885
 40
0.037037037037037
 40
0.037037037037037
 40
0.037037037037037
 40
0.037037037037037
 40
0.0411522633744856
 40
0.0411522633744856
 40
0.0411522633744856
 40
0.0411522633744856
 40
0.0452674897119342
 40
0.0452674897119342
 40
0.0452674897119342
 40
0.0452674897119342
 40
0.0493827160493827
 40
0.0493827160493827
 40
0.0493827160493827
 40
0.0493827160493827
 40
0.0534979423868313
 40
0.0534979423868313
 40
0.0534979423868313
 40
0.0534979423868313
 40
0.0576131687242798
 40
0.0576131687242798
 40
0.0576131687242798
 40
0.0576131687242798
 40
0.0617283950617284
 40
0.0617283950617284
 40
0.0617283950617284
 40
0.0617283950617284
 40
0.065843621399177
 40
0.065843621399177
 40
0.065843621399177
 40
0.065843621399177
 40
0.0699588477366255
 40
0.0699588477366255
 40
0.0699588477366255
 40
0.0699588477366255
 40
0.0740740740740741
 40
0.0740740740740741
 40
0.0740740740740741
 40
0.0740740740740741
 40
0.0781893004115226
 40
0.0781893004115226
 40
0.0781893004115226
 40
0.0781893004115226
 40
0.0823045267489712
 40
0.0823045267489712
 40
0.0823045267489712
 40
0.0823045267489712
 40
0.0864197530864197
 40
0.0864197530864197
 40
0.0864197530864197
 40
0.0864197530864197
 40
0.0905349794238683
 40
0.0905349794238683
 40
0.0905349794238683
 40
0.0905349794238683
 40
0.0946502057613169
 40
0.0946502057613169
 40
0.0946502057613169
 40
0.0946502057613169
 40
0.0987654320987654
 40
0.0987654320987654
 40
0.0987654320987654
 40
0.0987654320987654
 40
0.102880658436214
 40
0.102880658436214
 40
0.102880658436214
 40
0.102880658436214
 40
0.1069958847736626
 40
0.1069958847736626
 40
0.1069958847736626
 40
0.1069958847736626
 40
0.1111111111111111
 40
0.1111111111111111
 40
0.1111111111111111
 40
0.1111111111111111
 40
0.1152263374485597
 40
0.1152263374485597
 40
0.1152263374485597
 40
0.1152263374485597
 40
0.1193415637860082
 40
0.1193415637860082
 40
0.1193415637860082
 40
0.1193415637860082
 40
0.1234567901234568
 40
0.1234567901234568
 40
0.1234567901234568
 40
0.1234567901234568
 40
0.1275720164609054
 40
0.1275720164609054
 40
0.1275720164609054
 40
0.1275720164609054
 40
0.1316872427983539
 40
0.1316872427983539
 40
0.1316872427983539
 40
0.1316872427983539
 40
0.1358024691358025
 40
0.1358024691358025
 40
0.1358024691358025
 40
0.1358024691358025
 40
0.139917695473251
 40
0.139917695473251
 40
0.139917695473251
 40
0.139917695473251
 40
0.1440329218106996
 40
0.1440329218106996
 40
0.1440329218106996
 40
0.1440329218106996
 40
0.1481481481481481
 40
0.1481481481481481
 40
0.1481481481481481
 40
0.1481481481481481
 40
0.1522633744855967
 40
0.1522633744855967
 40
0.1522633744855967
 40
0.1522633744855967
 40
0.1563786008230453
 40
0.1563786008230453
 40
0.1563786008230453
 40
0.1563786008230453
 40
0.1604938271604938
 40
0.1604938271604938
 40
0.1604938271604938
 40
0.1604938271604938
 40
0.1646090534979424
 40
0.1646090534979424
 40
0.1646090534979424
 40
0.1646090534979424
 40
0.168724279835391
 40
0.168724279835391
 40
0.168724279835391
 40
0.168724279835391
 40
0.1728395061728395
 40
0.1728395061728395
 40
0.1728395061728395
 40
0.1728395061728395
 40
0.1769547325102881
 40
0.1769547325102881
 40
0.1769547325102881
 40
0.1769547325102881
 40
0.1810699588477366
 40
0.1810699588477366
 40
0.1810699588477366
 40
0.1810699588477366
 40
0.1851851851851852
 40
0.1851851851851852
 40
0.1851851851851852
 40
0.1851851851851852
 40
0.1893004115226337
 40
0.1893004115226337
 40
0.1893004115226337
 40
0.1893004115226337
 40
0.1934156378600823
 40
0.1934156378600823
 40
0.1934156378600823
 40
0.1934156378600823
 40
0.1975308641975309
 40
0.1975308641975309
 40
0.1975308641975309
 40
0.1975308641975309
 40
0.2016460905349794
 40
0.2016460905349794
 40
0.2016460905349794
 40
0.2016460905349794
 40
0.205761316872428
 40
0.205761316872428
 40
0.205761316872428
 40
0.205761316872428
 40
0.2098765432098765
 40
0.2098765432098765
 40
0.2098765432098765
 40
0.2098765432098765
 40
0.2139917695473251
 40
0.2139917695473251
 40
0.2139917695473251
 40
0.2139917695473251
 40
0.2181069958847737
 40
0.2181069958847737
 40
0.2181069958847737
 40
0.2181069958847737
 40
0.2222222222222222
 40
0.2222222222222222
 40
0.2222222222222222
 40
0.2222222222222222
 40
0.2263374485596708
 40
0.2263374485596708
 40
0.2263374485596708
 40
0.2263374485596708
 40
0.2304526748971193
 40
0.2304526748971193
 40
0.2304526748971193
 40
0.2304526748971193
 40
0.2345679012345679
 40
0.2345679012345679
 40
0.2345679012345679
 40
0.2345679012345679
 40
0.2386831275720165
 40
0.2386831275720165
 40
0.2386831275720165
 40
0.2386831275720165
 40
0.242798353909465
 40
0.242798353909465
 40
0.242798353909465
 40
0.242798353909465
 40
0.2469135802469136
 40
0.2469135802469136
 40
0.2469135802469136
 40
0.2469135802469136
 40
0.2510288065843622
 40
0.2510288065843622
 40
0.2510288065843622
 40
0.2510288065843622
 40
0.2551440329218107
 40
0.2551440329218107
 40
0.2551440329218107
 40
0.2551440329218107
 40
0.2592592592592592
 40
0.2592592592592592
 40
0.2592592592592592
 40
0.2592592592592592
 40
0.2633744855967078
 40
0.2633744855967078
 40
0.2633744855967078
 40
0.2633744855967078
 40
0.2674897119341564
 40
0.2674897119341564
 40
0.2674897119341564
 40
0.2674897119341564
 40
0.2716049382716049
 40
0.2716049382716049
 40
0.2716049382716049
 40
0.2716049382716049
 40
0.2757201646090535
 40
0.2757201646090535
 40
0.2757201646090535
 40
0.2757201646090535
 40
0.2798353909465021
 40
0.2798353909465021
 40
0.2798353909465021
 40
0.2798353909465021
 40
0.2839506172839506
 40
0.2839506172839506
 40
0.2839506172839506
 40
0.2839506172839506
 40
0.2880658436213992
 40
0.2880658436213992
 40
0.2880658436213992
 40
0.2880658436213992
 40
0.2921810699588477
 40
0.2921810699588477
 40
0.2921810699588477
 40
0.2921810699588477
 40
0.2962962962962963
 40
0.2962962962962963
 40
0.2962962962962963
 40
0.2962962962962963
 40
0.3004115226337449
 40
0.3004115226337449
 40
0.3004115226337449
 40
0.3004115226337449
 40
0.3045267489711934
 40
0.3045267489711934
 40
0.3045267489711934
 40
0.3045267489711934
 40
0.308641975308642
 40
0.308641975308642
 40
0.308641975308642
 40
0.308641975308642
 40
0.3127572016460906
 40
0.3127572016460906
 40
0.3127572016460906
 40
0.3127572016460906
 40
0.3168724279835391
 40
0.3168724279835391
 40
0.3168724279835391
 40
0.3168724279835391
 40
0.3209876543209876
 40
0.3209876543209876
 40
0.3209876543209876
 40
0.3209876543209876
 40
0.3251028806584362
 40
0.3251028806584362
 40
0.3251028806584362
 40
0.3251028806584362
 40
0.3292181069958848
 40
0.3292181069958848
 40
0.3292181069958848
 40
0.3292181069958848
 40
0.3333333333333333
 40
0.3333333333333333
 40
0.3333333333333333
 40
0.3333333333333333
 40
0.3374485596707819
 40
0.3374485596707819
 40
0.3374485596707819
 40
0.3374485596707819
 40
0.3415637860082305
 40
0.3415637860082305
 40
0.3415637860082305
 40
0.3415637860082305
 40
0.345679012345679
 40
0.345679012345679
 40
0.345679012345679
 40
0.345679012345679
 40
0.3497942386831276
 40
0.3497942386831276
 40
0.3497942386831276
 40
0.3497942386831276
 40
0.3539094650205761
 40
0.3539094650205761
 40
0.3539094650205761
 40
0.3539094650205761
 40
0.3580246913580247
 40
0.3580246913580247
 40
0.3580246913580247
 40
0.3580246913580247
 40
0.3621399176954733
 40
0.3621399176954733
 40
0.3621399176954733
 40
0.3621399176954733
 40
0.3662551440329218
 40
0.3662551440329218
 40
0.3662551440329218
 40
0.3662551440329218
 40
0.3703703703703703
 40
0.3703703703703703
 40
0.3703703703703703
 40
0.3703703703703703
 40
0.3744855967078189
 40
0.3744855967078189
 40
0.3744855967078189
 40
0.3744855967078189
 40
0.3786008230452675
 40
0.3786008230452675
 40
0.3786008230452675
 40
0.3786008230452675
 40
0.382716049382716
 40
0.382716049382716
 40
0.382716049382716
 40
0.382716049382716
 40
0.3868312757201646
 40
0.3868312757201646
 40
0.3868312757201646
 40
0.3868312757201646
 40
0.3909465020576132
 40
0.3909465020576132
 40
0.3909465020576132
 40
0.3909465020576132
 40
0.3950617283950617
 40
0.3950617283950617
 40
0.3950617283950617
 40
0.3950617283950617
 40
0.3991769547325103
 40
0.3991769547325103
 40
0.3991769547325103
 40
0.3991769547325103
 40
0.4032921810699588
 40
0.4032921810699588
 40
0.4032921810699588
 40
0.4032921810699588
 40
0.4074074074074074
 40
0.4074074074074074
 40
0.4074074074074074
 40
0.4074074074074074
 40
0.411522633744856
 40
0.411522633744856
 40
0.411522633744856
 40
0.411522633744856
 40
0.4156378600823045
 40
0.4156378600823045
 40
0.4156378600823045
 40
0.4156378600823045
 40
0.4197530864197531
 40
0.4197530864197531
 40
0.4197530864197531
 40
0.4197530864197531
 40
0.4238683127572017
 40
0.4238683127572017
 40
0.4238683127572017
 40
0.4238683127572017
 40
0.4279835390946502
 40
0.4279835390946502
 40
0.4279835390946502
 40
0.4279835390946502
 40
0.4320987654320987
 40
0.4320987654320987
 40
0.4320987654320987
 40
0.4320987654320987
 40
0.4362139917695473
 40
0.4362139917695473
 40
0.4362139917695473
 40
0.4362139917695473
 40
0.4403292181069959
 40
0.4403292181069959
 40
0.4403292181069959
 40
0.4403292181069959
 40
0.4444444444444444
 40
0.4444444444444444
 40
0.4444444444444444
 40
0.4444444444444444
 40
0.448559670781893
 40
0.448559670781893
 40
0.448559670781893
 40
0.448559670781893
 40
0.4526748971193416
 40
0.4526748971193416
 40
0.4526748971193416
 40
0.4526748971193416
 40
0.4567901234567901
 40
0.4567901234567901
 40
0.4567901234567901
 40
0.4567901234567901
 40
0.4609053497942387
 40
0.4609053497942387
 40
0.4609053497942387
 40
0.4609053497942387
 40
0.4650205761316872
 40
0.4650205761316872
 40
0.4650205761316872
 40
0.4650205761316872
 40
0.4691358024691358
 40
0.4691358024691358
 40
0.4691358024691358
 40
0.4691358024691358
 40
0.4732510288065844
 40
0.4732510288065844
 40
0.4732510288065844
 40
0.4732510288065844
 40
0.4773662551440329
 40
0.4773662551440329
 40
0.4773662551440329
 40
0.4773662551440329
 40
0.4814814814814815
 40
0.4814814814814815
 40
0.4814814814814815
 40
0.4814814814814815
 40
0.4855967078189301
 40
0.4855967078189301
 40
0.4855967078189301
 40
0.4855967078189301
 40
0.4897119341563786
 40
0.4897119341563786
 40
0.4897119341563786
 40
0.4897119341563786
 40
0.4938271604938271
 40
0.4938271604938271
 40
0.4938271604938271
 40
0.4938271604938271
 40
0.4979423868312757
 40
0.4979423868312757
 40
0.4979423868312757
 40
0.4979423868312757
 40
0.5020576131687243
 40
0.5020576131687243
 40
0.5020576131687243
 40
0.5020576131687243
 40
0.5061728395061729
 40
0.5061728395061729
 40
0.5061728395061729
 40
0.5061728395061729
 40
0.5102880658436214
 40
0.5102880658436214
 40
0.5102880658436214
 40
0.5102880658436214
 40
0.51440329218107
 40
0.51440329218107
 40
0.51440329218107
 40
0.51440329218107
 40
0.5185185185185185
 40
0.5185185185185185
 40
0.5185185185185185
 40
0.5185185185185185
 40
0.522633744855967
 40
0.522633744855967
 40
0.522633744855967
 40
0.522633744855967
 40
0.5267489711934157
 40
0.5267489711934157
 40
0.5267489711934157
 40
0.5267489711934157
 40
0.5308641975308642
 40
0.5308641975308642
 40
0.5308641975308642
 40
0.5308641975308642
 40
0.5349794238683128
 40
0.5349794238683128
 40
0.5349794238683128
 40
0.5349794238683128
 40
0.5390946502057613
 40
0.5390946502057613
 40
0.5390946502057613
 40
0.5390946502057613
 40
0.5432098765432098
 40
0.5432098765432098
 40
0.5432098765432098
 40
0.5432098765432098
 40
0.5473251028806584
 40
0.5473251028806584
 40
0.5473251028806584
 40
0.5473251028806584
 40
0.551440329218107
 40
0.551440329218107
 40
0.551440329218107
 40
0.551440329218107
 40
0.5555555555555556
 40
0.5555555555555556
 40
0.5555555555555556
 40
0.5555555555555556
 40
0.5596707818930041
 40
0.5596707818930041
 40
0.5596707818930041
 40
0.5596707818930041
 40
0.5637860082304527
 40
0.5637860082304527
 40
0.5637860082304527
 40
0.5637860082304527
 40
0.5679012345679012
 40
0.5679012345679012
 40
0.5679012345679012
 40
0.5679012345679012
 40
0.5720164609053497
 40
0.5720164609053497
 40
0.5720164609053497
 40
0.5720164609053497
 40
0.5761316872427984
 40
0.5761316872427984
 40
0.5761316872427984
 40
0.5761316872427984
 40
0.5802469135802469
 40
0.5802469135802469
 40
0.5802469135802469
 40
0.5802469135802469
 40
0.5843621399176955
 40
0.5843621399176955
 40
0.5843621399176955
 40
0.5843621399176955
 40
0.588477366255144
 40
0.588477366255144
 40
0.588477366255144
 40
0.588477366255144
 40
0.5925925925925926
 40
0.5925925925925926
 40
0.5925925925925926
 40
0.5925925925925926
 40
0.5967078189300411
 40
0.5967078189300411
 40
0.5967078189300411
 40
0.5967078189300411
 40
0.6008230452674898
 40
0.6008230452674898
 40
0.6008230452674898
 40
0.6008230452674898
 40
0.6049382716049383
 40
0.6049382716049383
 40
0.6049382716049383
 40
0.6049382716049383
 40
0.6090534979423868
 40
0.6090534979423868
 40
0.6090534979423868
 40
0.6090534979423868
 40
0.6131687242798354
 40
0.6131687242798354
 40
0.6131687242798354
 40
0.6131687242798354
 40
0.6172839506172839
 40
0.6172839506172839
 40
0.6172839506172839
 40
0.6172839506172839
 40
0.6213991769547325
 40
0.6213991769547325
 40
0.6213991769547325
 40
0.6213991769547325
 40
0.6255144032921811
 40
0.6255144032921811
 40
0.6255144032921811
 40
0.6255144032921811
 40
0.6296296296296297
 40
0.6296296296296297
 40
0.6296296296296297
 40
0.6296296296296297
 40
0.6337448559670782
 40
0.6337448559670782
 40
0.6337448559670782
 40
0.6337448559670782
 40
0.6378600823045267
 40
0.6378600823045267
 40
0.6378600823045267
 40
0.6378600823045267
 40
0.6419753086419753
 40
0.6419753086419753
 40
0.6419753086419753
 40
0.6419753086419753
 40
0.6460905349794238
 40
0.6460905349794238
 40
0.6460905349794238
 40
0.6460905349794238
 40
0.6502057613168725
 40
0.6502057613168725
 40
0.6502057613168725
 40
0.6502057613168725
 40
0.654320987654321
 40
0.654320987654321
 40
0.654320987654321
 40
0.654320987654321
 40
0.6584362139917695
 40
0.6584362139917695
 40
0.6584362139917695
 40
0.6584362139917695
 40
0.6625514403292181
 40
0.6625514403292181
 40
0.6625514403292181
 40
0.6625514403292181
 40
0.6666666666666666
 40
0.6666666666666666
 40
0.6666666666666666
 40
0.6666666666666666
 40
0.6707818930041153
 40
0.6707818930041153
 40
0.6707818930041153
 40
0.6707818930041153
 40
0.6748971193415638
 40
0.6748971193415638
 40
0.6748971193415638
 40
0.6748971193415638
 40
0.6790123456790124
 40
0.6790123456790124
 40
0.6790123456790124
 40
0.6790123456790124
 40
0.6831275720164609
 40
0.6831275720164609
 40
0.6831275720164609
 40
0.6831275720164609
 40
0.6872427983539094
 40
0.6872427983539094
 40
0.6872427983539094
 40
0.6872427983539094
 40
0.691358024691358
 40
0.691358024691358
 40
0.691358024691358
 40
0.691358024691358
 40
0.6954732510288066
 40
0.6954732510288066
 40
0.6954732510288066
 40
0.6954732510288066
 40
0.6995884773662552
 40
0.6995884773662552
 40
0.6995884773662552
 40
0.6995884773662552
 40
0.7037037037037037
 40
0.7037037037037037
 40
0.7037037037037037
 40
0.7037037037037037
 40
0.7078189300411523
 40
0.7078189300411523
 40
0.7078189300411523
 40
0.7078189300411523
 40
0.7119341563786008
 40
0.7119341563786008
 40
0.7119341563786008
 40
0.7119341563786008
 40
0.7160493827160493
 40
0.7160493827160493
 40
0.7160493827160493
 40
0.7160493827160493
 40
0.720164609053498
 40
0.720164609053498
 40
0.720164609053498
 40
0.720164609053498
 40
0.7242798353909465
 40
0.7242798353909465
 40
0.7242798353909465
 40
0.7242798353909465
 40
0.7283950617283951
 40
0.7283950617283951
 40
0.7283950617283951
 40
0.7283950617283951
 40
0.7325102880658436
 40
0.7325102880658436
 40
0.7325102880658436
 40
0.7325102880658436
 40
0.7366255144032922
 40
0.7366255144032922
 40
0.7366255144032922
 40
0.7366255144032922
 40
0.7407407407407407
 40
0.7407407407407407
 40
0.7407407407407407
 40
0.7407407407407407
 40
0.7448559670781894
 40
0.7448559670781894
 40
0.7448559670781894
 40
0.7448559670781894
 40
0.7489711934156379
 40
0.7489711934156379
 40
0.7489711934156379
 40
0.7489711934156379
 40
0.7530864197530864
 40
0.7530864197530864
 40
0.7530864197530864
 40
0.7530864197530864
 40
0.757201646090535
 40
0.757201646090535
 40
0.757201646090535
 40
0.757201646090535
 40
0.7613168724279835
 40
0.7613168724279835
 40
0.7613168724279835
 40
0.7613168724279835
 40
0.7654320987654321
 40
0.7654320987654321
 40
0.7654320987654321
 40
0.7654320987654321
 40
0.7695473251028807
 40
0.7695473251028807
 40
0.7695473251028807
 40
0.7695473251028807
 40
0.7736625514403292
 40
0.7736625514403292
 40
0.7736625514403292
 40
0.7736625514403292
 40
0.7777777777777778
 40
0.7777777777777778
 40
0.7777777777777778
 40
0.7777777777777778
 40
0.7818930041152263
 40
0.7818930041152263
 40
0.7818930041152263
 40
0.7818930041152263
 40
0.7860082304526749
 40
0.7860082304526749
 40
0.7860082304526749
 40
0.7860082304526749
 40
0.7901234567901234
 40
0.7901234567901234
 40
0.7901234567901234
 40
0.7901234567901234
 40
0.7942386831275721
 40
0.7942386831275721
 40
0.7942386831275721
 40
0.7942386831275721
 40
0.7983539094650206
 40
0.7983539094650206
 40
0.7983539094650206
 40
0.7983539094650206
 40
0.8024691358024691
 40
0.8024691358024691
 40
0.8024691358024691
 40
0.8024691358024691
 40
0.8065843621399177
 40
0.8065843621399177
 40
0.8065843621399177
 40
0.8065843621399177
 40
0.8106995884773662
 40
0.8106995884773662
 40
0.8106995884773662
 40
0.8106995884773662
 40
0.8148148148148148
 40
0.8148148148148148
 40
0.8148148148148148
 40
0.8148148148148148
 40
0.8189300411522634
 40
0.8189300411522634
 40
0.8189300411522634
 40
0.8189300411522634
 40
0.823045267489712
 40
0.823045267489712
 40
0.823045267489712
 40
0.823045267489712
 40
0.8271604938271605
 40
0.8271604938271605
 40
0.8271604938271605
 40
0.8271604938271605
 40
0.831275720164609
 40
0.831275720164609
 40
0.831275720164609
 40
0.831275720164609
 40
0.8353909465020576
 40
0.8353909465020576
 40
0.8353909465020576
 40
0.8353909465020576
 40
0.8395061728395061
 40
0.8395061728395061
 40
0.8395061728395061
 40
0.8395061728395061
 40
0.8436213991769548
 40
0.8436213991769548
 40
0.8436213991769548
 40
0.8436213991769548
 40
0.8477366255144033
 40
0.8477366255144033
 40
0.8477366255144033
 40
0.8477366255144033
 40
0.8518518518518519
 40
0.8518518518518519
 40
0.8518518518518519
 40
0.8518518518518519
 40
0.8559670781893004
 40
0.8559670781893004
 40
0.8559670781893004
 40
0.8559670781893004
 40
0.8600823045267489
 40
0.8600823045267489
 40
0.8600823045267489
 40
0.8600823045267489
 40
0.8641975308641975
 40
0.8641975308641975
 40
0.8641975308641975
 40
0.8641975308641975
 40
0.8683127572016461
 40
0.8683127572016461
 40
0.8683127572016461
 40
0.8683127572016461
 40
0.8724279835390947
 40
0.8724279835390947
 40
0.8724279835390947
 40
0.8724279835390947
 40
0.8765432098765432
 40
0.8765432098765432
 40
0.8765432098765432
 40
0.8765432098765432
 40
0.8806584362139918
 40
0.8806584362139918
 40
0.8806584362139918
 40
0.8806584362139918
 40
0.8847736625514403
 40
0.8847736625514403
 40
0.8847736625514403
 40
0.8847736625514403
 40
0.8888888888888888
 40
0.8888888888888888
 40
0.8888888888888888
 40
0.8888888888888888
 40
0.8930041152263375
 40
0.8930041152263375
 40
0.8930041152263375
 40
0.8930041152263375
 40
0.897119341563786
 40
0.897119341563786
 40
0.897119341563786
 40
0.897119341563786
 40
0.9012345679012346
 40
0.9012345679012346
 40
0.9012345679012346
 40
0.9012345679012346
 40
0.9053497942386831
 40
0.9053497942386831
 40
0.9053497942386831
 40
0.9053497942386831
 40
0.9094650205761317
 40
0.9094650205761317
 40
0.9094650205761317
 40
0.9094650205761317
 40
0.9135802469135802
 40
0.9135802469135802
 40
0.9135802469135802
 40
0.9135802469135802
 40
0.9176954732510288
 40
0.9176954732510288
 40
0.9176954732510288
 40
0.9176954732510288
 40
0.9218106995884774
 40
0.9218106995884774
 40
0.9218106995884774
 40
0.9218106995884774
 40
0.9259259259259259
 40
0.9259259259259259
 40
0.9259259259259259
 40
0.9259259259259259
 40
0.9300411522633745
 40
0.9300411522633745
 40
0.9300411522633745
 40
0.9300411522633745
 40
0.934156378600823
 40
0.934156378600823
 40
0.934156378600823
 40
0.934156378600823
 40
0.9382716049382716
 40
0.9382716049382716
 40
0.9382716049382716
 40
0.9382716049382716
 40
0.9423868312757202
 40
0.9423868312757202
 40
0.9423868312757202
 40
0.9423868312757202
 40
0.9465020576131687
 40
0.9465020576131687
 40
0.9465020576131687
 40
0.9465020576131687
 40
0.9506172839506173
 40
0.9506172839506173
 40
0.9506172839506173
 40
0.9506172839506173
 40
0.9547325102880658
 40
0.9547325102880658
 40
0.9547325102880658
 40
0.9547325102880658
 40
0.9588477366255144
 40
0.9588477366255144
 40
0.9588477366255144
 40
0.9588477366255144
 40
0.9629629629629629
 40
0.9629629629629629
 40
0.9629629629629629
 40
0.9629629629629629
 40
0.9670781893004116
 40
0.9670781893004116
 40
0.9670781893004116
 40
0.9670781893004116
 40
0.9711934156378601
 40
0.9711934156378601
 40
0.9711934156378601
 40
0.9711934156378601
 40
0.9753086419753086
 40
0.9753086419753086
 40
0.9753086419753086
 40
0.9753086419753086
 40
0.9794238683127572
 40
0.9794238683127572
 40
0.9794238683127572
 40
0.9794238683127572
 40
0.9835390946502057
 40
0.9835390946502057
 40
0.9835390946502057
 40
0.9835390946502057
 40
0.9876543209876543
 40
0.9876543209876543
 40
0.9876543209876543
 40
0.9876543209876543
 40
0.9917695473251029
 40
0.9917695473251029
 40
0.9917695473251029
 40
0.9917695473251029
 40
1.0
 40
1.0
 40
1.0
 40
1.0
 10
1.53344
 20
10.54649
 30
0.0
 10
1.53344
 20
10.45679
 30
0.0
 10
1.53344
 20
10.3187
 30
0.0
 10
1.53344
 20
10.229
 30
0.0
 10
1.53344
 20
10.229
 30
0.0
 10
0.78535
 20
10.41398
 30
0.0
 10
0.3469
 20
9.85074
 30
0.0
 10
0.42022
 20
9.33763
 30
0.0
 10
0.42022
 20
9.33763
 30
0.0
 10
0.22908
 20
9.10831
 30
0.0
 10
0.07318
 20
8.84371
 30
0.0
 10
-0.05068
 20
8.54714
 30
0.0
 10
-0.05068
 20
8.54714
 30
0.0
 10
0.16475
 20
8.53786
 30
0.0
 10
0.37859
 20
8.52003
 30
0.0
 10
0.58842
 20
8.47985
 30
0.0
 10
0.58842
 20
8.47985
 30
0.0
 10
0.59729
 20
8.42004
 30
0.0
 10
0.60616
 20
8.36019
 30
0.0
 10
0.61502
 20
8.30037
 30
0.0
 10
0.61502
 20
8.30037
 30
0.0
 10
0.63117
 20
8.19145
 30
0.0
 10
0.6573
 20
8.11904
 30
0.0
 10
0.77343
 20
8.10986
 30
0.0
 10
0.77343
 20
8.10986
 30
0.0
 10
0.77671
 20
8.01549
 30
0.0
 10
0.77995
 20
7.9211
 30
0.0
 10
0.78322
 20
7.82673
 30
0.0
 10
0.78322
 20
7.82673
 30
0.0
 10
0.78898
 20
7.66018
 30
0.0
 10
0.79603
 20
7.58657
 30
0.0
 10
0.94964
 20
7.58721
 30
0.0
 10
0.94964
 20
7.58721
 30
0.0
 10
1.00727
 20
7.58743
 30
0.0
 10
1.06489
 20
7.58769
 30
0.0
 10
1.12251
 20
7.58791
 30
0.0
 10
1.12251
 20
7.58791
 30
0.0
 10
1.18096
 20
7.49631
 30
0.0
 10
1.26201
 20
7.4595
 30
0.0
 10
1.35972
 20
7.46319
 30
0.0
 10
1.35972
 20
7.46319
 30
0.0
 10
1.38495
 20
7.34591
 30
0.0
 10
1.45338
 20
7.27621
 30
0.0
 10
1.56825
 20
7.2599
 30
0.0
 10
1.56825
 20
7.2599
 30
0.0
 10
1.47128
 20
7.14046
 30
0.0
 10
1.40787
 20
7.01688
 30
0.0
 10
1.38095
 20
6.88905
 30
0.0
 10
1.38095
 20
6.88905
 30
0.0
 10
1.14282
 20
6.79465
 30
0.0
 10
0.90016
 20
6.81595
 30
0.0
 10
0.82178
 20
7.03344
 30
0.0
 10
0.82178
 20
7.03344
 30
0.0
 10
0.79308
 20
7.14558
 30
0.0
 10
0.79092
 20
7.25768
 30
0.0
 10
0.82388
 20
7.36981
 30
0.0
 10
0.82388
 20
7.36981
 30
0.0
 10
0.65259
 20
7.35379
 30
0.0
 10
0.485
 20
7.36479
 30
0.0
 10
0.31931
 20
7.39085
 30
0.0
 10
0.31931
 20
7.39085
 30
0.0
 10
0.24662
 20
7.62529
 30
0.0
 10
0.27424
 20
7.85298
 30
0.0
 10
0.36978
 20
8.0762
 30
0.0
 10
0.36978
 20
8.0762
 30
0.0
 10
0.20858
 20
8.09928
 30
0.0
 10
0.05709
 20
8.08825
 30
0.0
 10
-0.10691
 20
8.06514
 30
0.0
 10
-0.10691
 20
8.06514
 30
0.0
 10
-0.10529
 20
8.15289
 30
0.0
 10
-0.11403
 20
8.24068
 30
0.0
 10
-0.13478
 20
8.3285
 30
0.0
 10
-0.13478
 20
8.3285
 30
0.0
 10
-0.23833
 20
8.30581
 30
0.0
 10
-0.32282
 20
8.2614
 30
0.0
 10
-0.38708
 20
8.19393
 30
0.0
 10
-0.38708
 20
8.19393
 30
0.0
 10
-0.48749
 20
8.14212
 30
0.0
 10
-0.57413
 20
8.25438
 30
0.0
 10
-0.48799
 20
8.36213
 30
0.0
 10
-0.48799
 20
8.36213
 30
0.0
 10
-0.38479
 20
8.49129
 30
0.0
 10
-0.27276
 20
8.61881
 30
0.0
 10
-0.19756
 20
8.77045
 30
0.0
 10
-0.19756
 20
8.77045
 30
0.0
 10
-0.35469
 20
8.74261
 30
0.0
 10
-0.50494
 20
8.72869
 30
0.0
 10
-0.65371
 20
8.71782
 30
0.0
 10
-0.65371
 20
8.71782
 30
0.0
 10
-0.64027
 20
8.86517
 30
0.0
 10
-0.62117
 20
9.01096
 30
0.0
 10
-0.52162
 20
9.1358
 30
0.0
 10
-0.52162
 20
9.1358
 30
0.0
 10
-0.73823
 20
9.14451
 30
0.0
 10
-0.93316
 20
9.08288
 30
0.0
 10
-1.1271
 20
9.01808
 30
0.0
 10
-1.1271
 20
9.01808
 30
0.0
 10
-1.08991
 20
9.1715
 30
0.0
 10
-1.04694
 20
9.32441
 30
0.0
 10
-0.94209
 20
9.47217
 30
0.0
 10
-0.94209
 20
9.47217
 30
0.0
 10
-1.13377
 20
9.43308
 30
0.0
 10
-1.26625
 20
9.34316
 30
0.0
 10
-1.37937
 20
9.23672
 30
0.0
 10
-1.37937
 20
9.23672
 30
0.0
 10
-1.78146
 20
8.94907
 30
0.0
 10
-1.86283
 20
9.20353
 30
0.0
 10
-1.77043
 20
9.55627
 30
0.0
 10
-1.77043
 20
9.55627
 30
0.0
 10
-2.05645
 20
9.50112
 30
0.0
 10
-2.21464
 20
9.32549
 30
0.0
 10
-2.30443
 20
9.08533
 30
0.0
 10
-2.30443
 20
9.08533
 30
0.0
 10
-2.69438
 20
8.79108
 30
0.0
 10
-2.78671
 20
9.21377
 30
0.0
 10
-2.72493
 20
9.52894
 30
0.0
 10
-2.72493
 20
9.52894
 30
0.0
 10
-3.03339
 20
9.36223
 30
0.0
 10
-3.22444
 20
9.15745
 30
0.0
 10
-3.42077
 20
8.90664
 30
0.0
 10
-3.42077
 20
8.90664
 30
0.0
 10
-3.7729
 20
8.50919
 30
0.0
 10
-4.0463
 20
8.87219
 30
0.0
 10
-3.63311
 20
9.25353
 30
0.0
 10
-3.63311
 20
9.25353
 30
0.0
 10
-3.98207
 20
9.20999
 30
0.0
 10
-4.08749
 20
8.99542
 30
0.0
 10
-4.17131
 20
8.76578
 30
0.0
 10
-4.17131
 20
8.76578
 30
0.0
 10
-4.26548
 20
8.4448
 30
0.0
 10
-4.50637
 20
8.60562
 30
0.0
 10
-4.37313
 20
8.90032
 30
0.0
 10
-4.37313
 20
8.90032
 30
0.0
 10
-4.57226
 20
8.82763
 30
0.0
 10
-4.61567
 20
8.67504
 30
0.0
 10
-4.60862
 20
8.49667
 30
0.0
 10
-4.60862
 20
8.49667
 30
0.0
 10
-4.82182
 20
8.43288
 30
0.0
 10
-5.02616
 20
8.50693
 30
0.0
 10
-5.1552
 20
8.61442
 30
0.0
 10
-5.1552
 20
8.61442
 30
0.0
 10
-5.18781
 20
8.52063
 30
0.0
 10
-5.15825
 20
8.40405
 30
0.0
 10
-5.09634
 20
8.3285
 30
0.0
 10
-5.09634
 20
8.3285
 30
0.0
 10
-5.42225
 20
7.9457
 30
0.0
 10
-5.92112
 20
7.97824
 30
0.0
 10
-6.42505
 20
8.17711
 30
0.0
 10
-6.42505
 20
8.17711
 30
0.0
 10
-6.34737
 20
7.73672
 30
0.0
 10
-5.99127
 20
7.38869
 30
0.0
 10
-5.31501
 20
7.45391
 30
0.0
 10
-5.31501
 20
7.45391
 30
0.0
 10
-5.79119
 20
7.20082
 30
0.0
 10
-6.0049
 20
6.87173
 30
0.0
 10
-6.05503
 20
6.49525
 30
0.0
 10
-6.05503
 20
6.49525
 30
0.0
 10
-5.69787
 20
6.53266
 30
0.0
 10
-5.35258
 20
6.6372
 30
0.0
 10
-5.02908
 20
6.86524
 30
0.0
 10
-5.02908
 20
6.86524
 30
0.0
 10
-5.0459
 20
6.51206
 30
0.0
 10
-5.01433
 20
6.23666
 30
0.0
 10
-5.03115
 20
5.88348
 30
0.0
 10
-5.03115
 20
5.88348
 30
0.0
 10
-5.03162
 20
5.78053
 30
0.0
 10
-4.94762
 20
5.66748
 30
0.0
 10
-4.81356
 20
5.6711
 30
0.0
 10
-4.81356
 20
5.6711
 30
0.0
 10
-4.85081
 20
5.29179
 30
0.0
 10
-4.84172
 20
4.86885
 30
0.0
 10
-4.76337
 20
4.42652
 30
0.0
 10
-4.76337
 20
4.42652
 30
0.0
 10
-5.08861
 20
4.25133
 30
0.0
 10
-4.97448
 20
3.91531
 30
0.0
 10
-4.84407
 20
3.53515
 30
0.0
 10
-4.84407
 20
3.53515
 30
0.0
 10
-4.784
 20
2.97003
 30
0.0
 10
-4.50093
 20
2.92662
 30
0.0
 10
-4.07357
 20
3.17351
 30
0.0
 10
-4.07357
 20
3.17351
 30
0.0
 10
-4.04951
 20
3.21191
 30
0.0
 10
-3.9459
 20
3.22478
 30
0.0
 10
-3.88538
 20
3.21556
 30
0.0
 10
-3.88538
 20
3.21556
 30
0.0
 10
-3.73371
 20
2.97604
 30
0.0
 10
-3.51558
 20
3.05423
 30
0.0
 10
-3.46491
 20
3.31647
 30
0.0
 10
-3.46491
 20
3.31647
 30
0.0
 10
-3.40325
 20
3.29966
 30
0.0
 10
-3.34156
 20
3.28281
 30
0.0
 10
-3.2799
 20
3.266
 30
0.0
 10
-3.2799
 20
3.266
 30
0.0
 10
-3.2402
 20
3.09802
 30
0.0
 10
-3.1684
 20
2.94616
 30
0.0
 10
-2.99401
 20
2.84554
 30
0.0
 10
-2.99401
 20
2.84554
 30
0.0
 10
-3.44483
 20
2.47615
 30
0.0
 10
-3.52429
 20
1.96475
 30
0.0
 10
-3.33037
 20
1.34865
 30
0.0
 10
-3.33037
 20
1.34865
 30
0.0
 10
-3.49857
 20
1.18608
 30
0.0
 10
-3.66674
 20
1.02347
 30
0.0
 10
-3.83494
 20
0.8609
 30
0.0
 10
-3.83494
 20
0.8609
 30
0.0
 10
-4.14327
 20
1.02347
 30
0.0
 10
-4.44328
 20
1.20308
 30
0.0
 10
-4.75997
 20
1.34865
 30
0.0
 10
-4.75997
 20
1.34865
 30
0.0
 10
-5.16775
 20
1.53608
 30
0.0
 10
-5.52748
 20
1.45325
 30
0.0
 10
-5.81957
 20
1.16364
 30
0.0
 10
-5.81957
 20
1.16364
 30
0.0
 10
-6.39142
 20
0.24983
 30
0.0
 10
-6.96324
 20
-0.66401
 30
0.0
 10
-7.53509
 20
-1.57783
 30
0.0
 10
-7.53509
 20
-1.57783
 30
0.0
 10
-7.60229
 20
-1.88619
 30
0.0
 10
-7.60804
 20
-2.18337
 30
0.0
 10
-7.55191
 20
-2.46923
 30
0.0
 10
-7.55191
 20
-2.46923
 30
0.0
 10
-7.91682
 20
-2.73443
 30
0.0
 10
-8.06896
 20
-3.20473
 30
0.0
 10
-7.63601
 20
-3.56246
 30
0.0
 10
-7.63601
 20
-3.56246
 30
0.0
 10
-7.45659
 20
-3.34382
 30
0.0
 10
-7.2772
 20
-3.12515
 30
0.0
 10
-7.09778
 20
-2.90651
 30
0.0
 10
-7.09778
 20
-2.90651
 30
0.0
 10
-6.94633
 20
-2.72197
 30
0.0
 10
-6.95774
 20
-2.55282
 30
0.0
 10
-7.16507
 20
-2.40194
 30
0.0
 10
-7.16507
 20
-2.40194
 30
0.0
 10
-7.27803
 20
-1.98396
 30
0.0
 10
-7.12346
 20
-1.75817
 30
0.0
 10
-6.81189
 20
-1.64508
 30
0.0
 10
-6.81189
 20
-1.64508
 30
0.0
 10
-6.84529
 20
-1.50828
 30
0.0
 10
-6.89917
 20
-1.34466
 30
0.0
 10
-6.81189
 20
-1.22461
 30
0.0
 10
-6.81189
 20
-1.22461
 30
0.0
 10
-6.41212
 20
-0.67476
 30
0.0
 10
-5.92608
 20
-0.19308
 30
0.0
 10
-5.48317
 20
0.32271
 30
0.0
 10
-5.48317
 20
0.32271
 30
0.0
 10
-5.3706
 20
0.44816
 30
0.0
 10
-5.25376
 20
0.46631
 30
0.0
 10
-5.12999
 20
0.3059
 30
0.0
 10
-5.12999
 20
0.3059
 30
0.0
 10
-5.0403
 20
0.20498
 30
0.0
 10
-4.95636
 20
0.09854
 30
0.0
 10
-4.86088
 20
0.00316
 30
0.0
 10
-4.86088
 20
0.00316
 30
0.0
 10
-4.71344
 20
-0.14407
 30
0.0
 10
-4.70448
 20
-0.20668
 30
0.0
 10
-4.82726
 20
-0.36687
 30
0.0
 10
-4.82726
 20
-0.36687
 30
0.0
 10
-5.10819
 20
-0.7334
 30
0.0
 10
-5.33182
 20
-1.14051
 30
0.0
 10
-5.58409
 20
-1.52735
 30
0.0
 10
-5.58409
 20
-1.52735
 30
0.0
 10
-5.69689
 20
-1.70537
 30
0.0
 10
-5.63415
 20
-1.95151
 30
0.0
 10
-5.55049
 20
-2.13283
 30
0.0
 10
-5.55049
 20
-2.13283
 30
0.0
 10
-5.64581
 20
-2.26737
 30
0.0
 10
-5.70744
 20
-2.40194
 30
0.0
 10
-5.80276
 20
-2.53648
 30
0.0
 10
-5.80276
 20
-2.53648
 30
0.0
 10
-5.87453
 20
-2.69906
 30
0.0
 10
-5.88231
 20
-2.86169
 30
0.0
 10
-5.81957
 20
-3.02424
 30
0.0
 10
-5.81957
 20
-3.02424
 30
0.0
 10
-5.69377
 20
-3.15003
 30
0.0
 10
-5.61845
 20
-3.32237
 30
0.0
 10
-5.49281
 20
-3.14187
 30
0.0
 10
-5.49281
 20
-3.14187
 30
0.0
 10
-5.49281
 20
-3.14187
 30
0.0
 10
-5.12999
 20
-2.62058
 30
0.0
 10
-5.12999
 20
-2.62058
 30
0.0
 10
-5.12999
 20
-2.62058
 30
0.0
 10
-5.05031
 20
-2.49447
 30
0.0
 10
-5.01338
 20
-2.36263
 30
0.0
 10
-5.07952
 20
-2.21693
 30
0.0
 10
-5.07952
 20
-2.21693
 30
0.0
 10
-5.16918
 20
-2.19595
 30
0.0
 10
-5.23698
 20
-2.03541
 30
0.0
 10
-5.12999
 20
-1.77965
 30
0.0
 10
-5.12999
 20
-1.77965
 30
0.0
 10
-4.96698
 20
-1.47189
 30
0.0
 10
-4.7027
 20
-1.07714
 30
0.0
 10
-4.48901
 20
-0.8619
 30
0.0
 10
-4.48901
 20
-0.8619
 30
0.0
 10
-4.2672
 20
-0.63843
 30
0.0
 10
-4.26148
 20
-0.62063
 30
0.0
 10
-4.05358
 20
-0.87143
 30
0.0
 10
-4.05358
 20
-0.87143
 30
0.0
 10
-3.42328
 20
-1.6317
 30
0.0
 10
-3.15051
 20
-1.6008
 30
0.0
 10
-2.7249
 20
-1.76284
 30
0.0
 10
-2.7249
 20
-1.76284
 30
0.0
 10
-2.52955
 20
-1.83988
 30
0.0
 10
-2.58387
 20
-1.86528
 30
0.0
 10
-2.67445
 20
-1.99829
 30
0.0
 10
-2.67445
 20
-1.99829
 30
0.0
 10
-3.01082
 20
-2.49164
 30
0.0
 10
-3.31988
 20
-3.01238
 30
0.0
 10
-3.65625
 20
-3.50573
 30
0.0
 10
-3.65625
 20
-3.50573
 30
0.0
 10
-3.70752
 20
-3.36734
 30
0.0
 10
-3.73326
 20
-3.08418
 30
0.0
 10
-3.68359
 20
-2.7215
 30
0.0
 10
-3.68359
 20
-2.7215
 30
0.0
 10
-4.31319
 20
-2.78144
 30
0.0
 10
-4.61812
 20
-3.16609
 30
0.0
 10
-4.84407
 20
-3.62971
 30
0.0
 10
-4.84407
 20
-3.62971
 30
0.0
 10
-4.90576
 20
-3.74731
 30
0.0
 10
-4.98973
 20
-3.79245
 30
0.0
 10
-5.09634
 20
-3.76429
 30
0.0
 10
-5.09634
 20
-3.76429
 30
0.0
 10
-5.21947
 20
-3.72309
 30
0.0
 10
-5.32642
 20
-3.74385
 30
0.0
 10
-5.41592
 20
-3.83154
 30
0.0
 10
-5.41592
 20
-3.83154
 30
0.0
 10
-5.5941
 20
-4.00123
 30
0.0
 10
-5.78143
 20
-3.94269
 30
0.0
 10
-5.97093
 20
-3.83154
 30
0.0
 10
-5.97093
 20
-3.83154
 30
0.0
 10
-6.01431
 20
-3.96989
 30
0.0
 10
-6.01097
 20
-4.09061
 30
0.0
 10
-5.98145
 20
-4.24574
 30
0.0
 10
-5.98145
 20
-4.24574
 30
0.0
 10
-6.26114
 20
-4.2555
 30
0.0
 10
-6.4425
 20
-4.18615
 30
0.0
 10
-6.50915
 20
-4.01655
 30
0.0
 10
-6.50915
 20
-4.01655
 30
0.0
 10
-6.58705
 20
-4.17042
 30
0.0
 10
-6.57068
 20
-4.30769
 30
0.0
 10
-6.53645
 20
-4.45596
 30
0.0
 10
-6.53645
 20
-4.45596
 30
0.0
 10
-6.77245
 20
-4.51711
 30
0.0
 10
-6.97494
 20
-4.48959
 30
0.0
 10
-7.13802
 20
-4.37691
 30
0.0
 10
-7.13802
 20
-4.37691
 30
0.0
 10
-7.1719
 20
-4.51184
 30
0.0
 10
-7.17152
 20
-4.6241
 30
0.0
 10
-7.13249
 20
-4.77027
 30
0.0
 10
-7.13249
 20
-4.77027
 30
0.0
 10
-7.23156
 20
-4.82157
 30
0.0
 10
-7.38711
 20
-4.84359
 30
0.0
 10
-7.50144
 20
-4.79023
 30
0.0
 10
-7.50144
 20
-4.79023
 30
0.0
 10
-7.9281
 20
-2.88776
 30
0.0
 10
-8.91905
 20
-1.6412
 30
0.0
 10
-10.17565
 20
-0.70323
 30
0.0
 10
-10.17565
 20
-0.70323
 30
0.0
 10
-10.07232
 20
-0.94609
 30
0.0
 10
-9.99861
 20
-1.19486
 30
0.0
 10
-10.00745
 20
-1.4601
 30
0.0
 10
-10.00745
 20
-1.4601
 30
0.0
 10
-9.84424
 20
-1.48384
 30
0.0
 10
-9.73338
 20
-1.55418
 30
0.0
 10
-9.67108
 20
-1.69555
 30
0.0
 10
-9.67108
 20
-1.69555
 30
0.0
 10
-9.66867
 20
-1.77078
 30
0.0
 10
-9.69587
 20
-1.81096
 30
0.0
 10
-9.75518
 20
-1.81328
 30
0.0
 10
-9.75518
 20
-1.81328
 30
0.0
 10
-9.81125
 20
-1.80206
 30
0.0
 10
-9.86731
 20
-1.79087
 30
0.0
 10
-9.92338
 20
-1.77965
 30
0.0
 10
-9.92338
 20
-1.77965
 30
0.0
 10
-9.96912
 20
-1.98939
 30
0.0
 10
-9.9708
 20
-2.22596
 30
0.0
 10
-9.94862
 20
-2.42718
 30
0.0
 10
-9.94862
 20
-2.42718
 30
0.0
 10
-9.48041
 20
-2.82381
 30
0.0
 10
-9.35995
 20
-3.2218
 30
0.0
 10
-9.35153
 20
-3.66337
 30
0.0
 10
-9.35153
 20
-3.66337
 30
0.0
 10
-9.35153
 20
-3.83157
 30
0.0
 10
-9.35153
 20
-3.99974
 30
0.0
 10
-9.35153
 20
-4.16794
 30
0.0
 10
-9.35153
 20
-4.16794
 30
0.0
 10
-9.43137
 20
-4.45987
 30
0.0
 10
-9.84624
 20
-4.60957
 30
0.0
 10
-10.36066
 20
-4.53793
 30
0.0
 10
-10.36066
 20
-4.53793
 30
0.0
 10
-9.65268
 20
-4.77443
 30
0.0
 10
-9.1114
 20
-5.09163
 30
0.0
 10
-9.09923
 20
-5.66479
 30
0.0
 10
-9.09923
 20
-5.66479
 30
0.0
 10
-9.09462
 20
-6.04502
 30
0.0
 10
-9.28885
 20
-6.22084
 30
0.0
 10
-9.6879
 20
-6.1862
 30
0.0
 10
-9.6879
 20
-6.1862
 30
0.0
 10
-9.51846
 20
-6.31263
 30
0.0
 10
-9.35433
 20
-6.44565
 30
0.0
 10
-9.11608
 20
-6.48894
 30
0.0
 10
-9.11608
 20
-6.48894
 30
0.0
 10
-9.16966
 20
-6.69467
 30
0.0
 10
-9.35674
 20
-6.81297
 30
0.0
 10
-9.65427
 20
-6.85893
 30
0.0
 10
-9.65427
 20
-6.85893
 30
0.0
 10
-9.43448
 20
-6.93804
 30
0.0
 10
-9.23186
 20
-7.04563
 30
0.0
 10
-9.11608
 20
-7.29624
 30
0.0
 10
-9.11608
 20
-7.29624
 30
0.0
 10
-9.13
 20
-7.58013
 30
0.0
 10
-9.33138
 20
-7.62978
 30
0.0
 10
-9.57017
 20
-7.63261
 30
0.0
 10
-9.57017
 20
-7.63261
 30
0.0
 10
-9.51843
 20
-7.92944
 30
0.0
 10
-8.83247
 20
-7.83596
 30
0.0
 10
-9.11048
 20
-8.22757
 30
0.0
 10
-9.11048
 20
-8.22757
 30
0.0
 10
-9.17065
 20
-8.31713
 30
0.0
 10
-9.26139
 20
-8.37962
 30
0.0
 10
-9.37213
 20
-8.42437
 30
0.0
 10
-9.37213
 20
-8.42437
 30
0.0
 10
-9.24655
 20
-8.51559
 30
0.0
 10
-9.09306
 20
-8.57858
 30
0.0
 10
-8.8974
 20
-8.5913
 30
0.0
 10
-8.8974
 20
-8.5913
 30
0.0
 10
-8.99616
 20
-8.75632
 30
0.0
 10
-9.03411
 20
-8.92531
 30
0.0
 10
-9.04879
 20
-9.09586
 30
0.0
 10
-9.04879
 20
-9.09586
 30
0.0
 10
-8.86238
 20
-8.97985
 30
0.0
 10
-8.70251
 20
-8.93691
 30
0.0
 10
-8.62832
 20
-9.12949
 30
0.0
 10
-8.62832
 20
-9.12949
 30
0.0
 10
-8.58364
 20
-9.54433
 30
0.0
 10
-9.06637
 20
-9.5155
 30
0.0
 10
-9.41882
 20
-9.21359
 30
0.0
 10
-9.41882
 20
-9.21359
 30
0.0
 10
-9.41882
 20
-9.21359
 30
0.0
 10
-9.6879
 20
-9.38176
 30
0.0
 10
-9.6879
 20
-9.38176
 30
0.0
 10
-9.6879
 20
-9.38176
 30
0.0
 10
-9.6879
 20
-9.38176
 30
0.0
 10
-9.53546
 20
-9.45397
 30
0.0
 10
-9.53546
 20
-9.45397
 30
0.0
 10
-9.53546
 20
-9.45397
 30
0.0
 10
-9.42282
 20
-9.52205
 30
0.0
 10
-9.37387
 20
-9.62261
 30
0.0
 10
-9.46868
 20
-9.70751
 30
0.0
 10
-9.46868
 20
-9.70751
 30
0.0
 10
-9.46868
 20
-9.70751
 30
0.0
 10
-9.63746
 20
-9.8527
 30
0.0
 10
-9.63746
 20
-9.8527
 30
0.0
 10
-9.63746
 20
-9.8527
 30
0.0
 10
-9.57541
 20
-9.95904
 30
0.0
 10
-9.43598
 20
-10.02668
 30
0.0
 10
-9.21699
 20
-10.05452
 30
0.0
 10
-9.21699
 20
-10.05452
 30
0.0
 10
-9.2394
 20
-10.20591
 30
0.0
 10
-9.19512
 20
-10.32866
 30
0.0
 10
-9.21753
 20
-10.48004
 30
0.0
 10
-9.21753
 20
-10.48004
 30
0.0
 10
-9.05146
 20
-10.29404
 30
0.0
 10
-8.95983
 20
-10.23779
 30
0.0
 10
-8.81331
 20
-10.30682
 30
0.0
 10
-8.81331
 20
-10.30682
 30
0.0
 10
-8.67924
 20
-10.40096
 30
0.0
 10
-8.55154
 20
-10.57081
 30
0.0
 10
-8.47694
 20
-10.7441
 30
0.0
 10
-8.47694
 20
-10.7441
 30
0.0
 10
-8.42698
 20
-10.6599
 30
0.0
 10
-8.45396
 20
-10.57037
 30
0.0
 10
-8.46013
 20
-10.47499
 30
0.0
 10
-8.46013
 20
-10.47499
 30
0.0
 10
-8.37847
 20
-10.51837
 30
0.0
 10
-8.3062
 20
-10.52133
 30
0.0
 10
-8.24149
 20
-10.49183
 30
0.0
 10
-8.24149
 20
-10.49183
 30
0.0
 10
-8.32018
 20
-10.43418
 30
0.0
 10
-8.37011
 20
-10.35885
 30
0.0
 10
-8.37603
 20
-10.25635
 30
0.0
 10
-8.37603
 20
-10.25635
 30
0.0
 10
-8.38785
 20
-10.10226
 30
0.0
 10
-8.40069
 20
-9.92008
 30
0.0
 10
-8.22467
 20
-10.18909
 30
0.0
 10
-8.22467
 20
-10.18909
 30
0.0
 10
-7.97409
 20
-10.83475
 30
0.0
 10
-7.52785
 20
-11.30378
 30
0.0
 10
-6.92962
 20
-11.6355
 30
0.0
 10
-6.92962
 20
-11.6355
 30
0.0
 10
-6.98978
 20
-11.425
 30
0.0
 10
-7.02939
 20
-11.12013
 30
0.0
 10
-6.95428
 20
-10.88703
 30
0.0
 10
-6.95428
 20
-10.88703
 30
0.0
 10
-6.82419
 20
-11.24663
 30
0.0
 10
-6.62599
 20
-11.68874
 30
0.0
 10
-6.30939
 20
-11.87309
 30
0.0
 10
-6.30939
 20
-11.87309
 30
0.0
 10
-6.42413
 20
-11.61443
 30
0.0
 10
-6.53693
 20
-11.3634
 30
0.0
 10
-6.47235
 20
-11.20557
 30
0.0
 10
-6.47235
 20
-11.20557
 30
0.0
 10
-6.2751
 20
-11.47449
 30
0.0
 10
-6.17504
 20
-11.63321
 30
0.0
 10
-5.93021
 20
-11.73499
 30
0.0
 10
-5.93021
 20
-11.73499
 30
0.0
 10
-5.48089
 20
-11.92175
 30
0.0
 10
-5.19661
 20
-12.47462
 30
0.0
 10
-5.14681
 20
-12.72873
 30
0.0
 10
-5.14681
 20
-12.72873
 30
0.0
 10
-5.03305
 20
-12.45895
 30
0.0
 10
-5.06245
 20
-12.02765
 30
0.0
 10
-5.36437
 20
-11.58611
 30
0.0
 10
-5.36437
 20
-11.58611
 30
0.0
 10
-5.05689
 20
-11.60718
 30
0.0
 10
-4.72539
 20
-12.00127
 30
0.0
 10
-4.44042
 20
-12.74555
 30
0.0
 10
-4.44042
 20
-12.74555
 30
0.0
 10
-4.39401
 20
-12.46877
 30
0.0
 10
-4.39128
 20
-12.14293
 30
0.0
 10
-4.56657
 20
-11.77847
 30
0.0
 10
-4.56657
 20
-11.77847
 30
0.0
 10
-4.04207
 20
-11.91129
 30
0.0
 10
-3.56119
 20
-12.16982
 30
0.0
 10
-3.21055
 20
-12.79599
 30
0.0
 10
-3.21055
 20
-12.79599
 30
0.0
 10
-3.21115
 20
-12.50018
 30
0.0
 10
-3.27221
 20
-12.29117
 30
0.0
 10
-3.49539
 20
-11.93716
 30
0.0
 10
-3.49539
 20
-11.93716
 30
0.0
 10
-3.14377
 20
-11.90779
 30
0.0
 10
-2.52704
 20
-12.23704
 30
0.0
 10
-2.4726
 20
-12.45543
 30
0.0
 10
-2.4726
 20
-12.45543
 30
0.0
 10
-2.41071
 20
-12.22035
 30
0.0
 10
-2.67623
 20
-11.91453
 30
0.0
 10
-3.12855
 20
-11.75323
 30
0.0
 10
-3.12855
 20
-11.75323
 30
0.0
 10
-2.84504
 20
-11.62584
 30
0.0
 10
-2.4534
 20
-11.62269
 30
0.0
 10
-2.0185
 20
-11.66913
 30
0.0
 10
-2.0185
 20
-11.66913
 30
0.0
 10
-2.3365
 20
-11.44823
 30
0.0
 10
-2.73898
 20
-11.30832
 30
0.0
 10
-3.25889
 20
-11.37901
 30
0.0
 10
-3.25889
 20
-11.37901
 30
0.0
 10
-2.80839
 20
-11.30314
 30
0.0
 10
-2.34556
 20
-11.22327
 30
0.0
 10
-1.88396
 20
-10.90597
 30
0.0
 10
-1.88396
 20
-10.90597
 30
0.0
 10
-1.44494
 20
-10.78841
 30
0.0
 10
-0.98245
 20
-10.8035
 30
0.0
 10
-0.64987
 20
-10.99427
 30
0.0
 10
-0.64987
 20
-10.99427
 30
0.0
 10
-0.64005
 20
-10.66289
 30
0.0
 10
-1.2707
 20
-10.43767
 30
0.0
 10
-1.741
 20
-10.4918
 30
0.0
 10
-1.741
 20
-10.4918
 30
0.0
 10
-1.25013
 20
-10.30218
 30
0.0
 10
-0.93255
 20
-10.19663
 30
0.0
 10
-0.79038
 20
-9.89621
 30
0.0
 10
-0.79038
 20
-9.89621
 30
0.0
 10
-0.61503
 20
-9.67153
 30
0.0
 10
-0.32583
 20
-9.70973
 30
0.0
 10
-0.41244
 20
-9.98647
 30
0.0
 10
-0.41244
 20
-9.98647
 30
0.0
 10
-0.47919
 20
-10.19977
 30
0.0
 10
-0.46603
 20
-10.41307
 30
0.0
 10
-0.38708
 20
-10.62637
 30
0.0
 10
-0.38708
 20
-10.62637
 30
0.0
 10
-0.32227
 20
-9.93457
 30
0.0
 10
0.55308
 20
-10.02512
 30
0.0
 10
-0.00024
 20
-10.77773
 30
0.0
 10
-0.00024
 20
-10.77773
 30
0.0
 10
0.43456
 20
-10.66966
 30
0.0
 10
0.79826
 20
-10.60285
 30
0.0
 10
1.05094
 20
-10.0167
 30
0.0
 10
1.05094
 20
-10.0167
 30
0.0
 10
1.21535
 20
-9.82647
 30
0.0
 10
1.52702
 20
-9.82848
 30
0.0
 10
1.61437
 20
-9.98727
 30
0.0
 10
1.61437
 20
-9.98727
 30
0.0
 10
1.50223
 20
-10.19469
 30
0.0
 10
1.39013
 20
-10.40214
 30
0.0
 10
1.278
 20
-10.60956
 30
0.0
 10
1.278
 20
-10.60956
 30
0.0
 10
1.77646
 20
-10.63572
 30
0.0
 10
2.26517
 20
-10.62262
 30
0.0
 10
2.74125
 20
-10.55909
 30
0.0
 10
2.74125
 20
-10.55909
 30
0.0
 10
2.702
 20
-10.30682
 30
0.0
 10
2.60389
 20
-10.14704
 30
0.0
 10
2.56463
 20
-9.89478
 30
0.0
 10
2.56463
 20
-9.89478
 30
0.0
 10
2.57553
 20
-9.44087
 30
0.0
 10
3.12275
 20
-9.34651
 30
0.0
 10
3.26263
 20
-9.83588
 30
0.0
 10
3.26263
 20
-9.83588
 30
0.0
 10
3.8081
 20
-10.07702
 30
0.0
 10
4.53086
 20
-9.42927
 30
0.0
 10
3.95221
 20
-8.92766
 30
0.0
 10
3.95221
 20
-8.92766
 30
0.0
 10
3.82327
 20
-8.81553
 30
0.0
 10
3.69432
 20
-8.70343
 30
0.0
 10
3.56537
 20
-8.5913
 30
0.0
 10
3.56537
 20
-8.5913
 30
0.0
 10
3.6119
 20
-8.28958
 30
0.0
 10
3.9838
 20
-8.23183
 30
0.0
 10
4.05312
 20
-8.4231
 30
0.0
 10
4.05312
 20
-8.4231
 30
0.0
 10
4.40287
 20
-8.51063
 30
0.0
 10
4.75697
 20
-8.57836
 30
0.0
 10
5.16317
 20
-8.40629
 30
0.0
 10
5.16317
 20
-8.40629
 30
0.0
 10
5.42615
 20
-8.77072
 30
0.0
 10
5.77478
 20
-9.05661
 30
0.0
 10
6.1723
 20
-9.29769
 30
0.0
 10
6.1723
 20
-9.29769
 30
0.0
 10
6.38951
 20
-9.40664
 30
0.0
 10
6.4348
 20
-9.66352
 30
0.0
 10
6.22379
 20
-9.64982
 30
0.0
 10
6.22379
 20
-9.64982
 30
0.0
 10
5.51743
 20
-9.49843
 30
0.0
 10
5.28007
 20
-9.76818
 30
0.0
 10
5.24724
 20
-10.13862
 30
0.0
 10
5.24724
 20
-10.13862
 30
0.0
 10
5.1597
 20
-10.26614
 30
0.0
 10
5.04322
 20
-10.3755
 30
0.0
 10
4.91087
 20
-10.47499
 30
0.0
 10
4.91087
 20
-10.47499
 30
0.0
 10
5.12347
 20
-10.44292
 30
0.0
 10
5.32062
 20
-10.37817
 30
0.0
 10
5.48272
 20
-10.23953
 30
0.0
 10
5.48272
 20
-10.23953
 30
0.0
 10
5.54467
 20
-10.35062
 30
0.0
 10
5.52369
 20
-10.4022
 30
0.0
 10
5.5618
 20
-10.5117
 30
0.0
 10
5.5618
 20
-10.5117
 30
0.0
 10
5.66173
 20
-10.29096
 30
0.0
 10
5.948
 20
-10.00011
 30
0.0
 10
6.13864
 20
-10.26897
 30
0.0
 10
6.13864
 20
-10.26897
 30
0.0
 10
6.11909
 20
-10.34251
 30
0.0
 10
6.13003
 20
-10.46313
 30
0.0
 10
6.15545
 20
-10.52546
 30
0.0
 10
6.15545
 20
-10.52546
 30
0.0
 10
6.25147
 20
-10.34865
 30
0.0
 10
6.72982
 20
-10.10913
 30
0.0
 10
6.81144
 20
-10.30889
 30
0.0
 10
6.81144
 20
-10.30889
 30
0.0
 10
6.67607
 20
-10.38034
 30
0.0
 10
6.6808
 20
-10.54695
 30
0.0
 10
6.67686
 20
-10.55909
 30
0.0
 10
6.67686
 20
-10.55909
 30
0.0
 10
6.91708
 20
-10.25139
 30
0.0
 10
7.08697
 20
-10.18337
 30
0.0
 10
7.36631
 20
-10.18172
 30
0.0
 10
7.36631
 20
-10.18172
 30
0.0
 10
7.92453
 20
-10.05223
 30
0.0
 10
7.91786
 20
-9.40115
 30
0.0
 10
7.40531
 20
-9.21988
 30
0.0
 10
7.40531
 20
-9.21988
 30
0.0
 10
6.41261
 20
-8.47704
 30
0.0
 10
6.29521
 20
-7.64265
 30
0.0
 10
7.23187
 20
-7.3635
 30
0.0
 10
7.23187
 20
-7.3635
 30
0.0
 10
7.09031
 20
-7.63385
 30
0.0
 10
7.03135
 20
-7.88926
 30
0.0
 10
7.01323
 20
-8.13717
 30
0.0
 10
7.01323
 20
-8.13717
 30
0.0
 10
7.1397
 20
-7.9663
 30
0.0
 10
7.26718
 20
-7.7674
 30
0.0
 10
7.46735
 20
-7.68728
 30
0.0
 10
7.46735
 20
-7.68728
 30
0.0
 10
7.42114
 20
-7.93598
 30
0.0
 10
7.48547
 20
-8.19127
 30
0.0
 10
7.60189
 20
-8.40629
 30
0.0
 10
7.60189
 20
-8.40629
 30
0.0
 10
7.58753
 20
-8.0217
 30
0.0
 10
7.69473
 20
-7.71442
 30
0.0
 10
7.97192
 20
-7.51488
 30
0.0
 10
7.97192
 20
-7.51488
 30
0.0
 10
8.08504
 20
-7.76874
 30
0.0
 10
8.22883
 20
-7.98989
 30
0.0
 10
8.42601
 20
-8.15399
 30
0.0
 10
8.42601
 20
-8.15399
 30
0.0
 10
8.39852
 20
-8.3766
 30
0.0
 10
8.43669
 20
-8.5817
 30
0.0
 10
8.5774
 20
-8.75947
 30
0.0
 10
8.5774
 20
-8.75947
 30
0.0
 10
8.51211
 20
-9.01447
 30
0.0
 10
8.58979
 20
-9.16223
 30
0.0
 10
8.66147
 20
-9.3145
 30
0.0
 10
8.66147
 20
-9.3145
 30
0.0
 10
8.2621
 20
-9.67998
 30
0.0
 10
8.27914
 20
-9.96426
 30
0.0
 10
8.34191
 20
-10.23953
 30
0.0
 10
8.34191
 20
-10.23953
 30
0.0
 10
8.46167
 20
-10.62714
 30
0.0
 10
7.86977
 20
-10.5848
 30
0.0
 10
7.41688
 20
-10.62637
 30
0.0
 10
7.41688
 20
-10.62637
 30
0.0
 10
6.58154
 20
-10.67681
 30
0.0
 10
5.74621
 20
-10.72729
 30
0.0
 10
4.91087
 20
-10.77773
 30
0.0
 10
4.91087
 20
-10.77773
 30
0.0
 10
4.1077
 20
-10.90718
 30
0.0
 10
4.19323
 20
-11.49416
 30
0.0
 10
4.52403
 20
-12.20735
 30
0.0
 10
4.52403
 20
-12.20735
 30
0.0
 10
4.27736
 20
-12.23539
 30
0.0
 10
4.03069
 20
-12.26339
 30
0.0
 10
3.78401
 20
-12.29142
 30
0.0
 10
3.78401
 20
-12.29142
 30
0.0
 10
4.35113
 20
-12.55367
 30
0.0
 10
4.90435
 20
-12.84773
 30
0.0
 10
5.43225
 20
-13.19964
 30
0.0
 10
5.43225
 20
-13.19964
 30
0.0
 10
5.24727
 20
-12.7007
 30
0.0
 10
5.22473
 20
-12.20176
 30
0.0
 10
5.28089
 20
-11.70279
 30
0.0
 10
5.28089
 20
-11.70279
 30
0.0
 10
5.1127
 20
-11.82611
 30
0.0
 10
4.94453
 20
-11.94946
 30
0.0
 10
4.77633
 20
-12.07278
 30
0.0
 10
4.77633
 20
-12.07278
 30
0.0
 10
4.58162
 20
-11.66681
 30
0.0
 10
4.54939
 20
-11.32911
 30
0.0
 10
5.12951
 20
-11.24866
 30
0.0
 10
5.12951
 20
-11.24866
 30
0.0
 10
6.31806
 20
-11.20941
 30
0.0
 10
7.50658
 20
-11.17019
 30
0.0
 10
8.69512
 20
-11.13094
 30
0.0
 10
8.69512
 20
-11.13094
 30
0.0
 10
9.05482
 20
-11.07395
 30
0.0
 10
9.3116
 20
-10.93617
 30
0.0
 10
9.19969
 20
-10.50865
 30
0.0
 10
9.19969
 20
-10.50865
 30
0.0
 10
9.14807
 20
-10.21894
 30
0.0
 10
9.25677
 20
-10.06949
 30
0.0
 10
9.65378
 20
-10.17225
 30
0.0
 10
9.65378
 20
-10.17225
 30
0.0
 10
9.74414
 20
-10.07184
 30
0.0
 10
9.7484
 20
-9.96429
 30
0.0
 10
9.70426
 20
-9.8527
 30
0.0
 10
9.70426
 20
-9.8527
 30
0.0
 10
9.65582
 20
-9.67874
 30
0.0
 10
9.70225
 20
-9.57259
 30
0.0
 10
9.88927
 20
-9.56677
 30
0.0
 10
9.88927
 20
-9.56677
 30
0.0
 10
10.01742
 20
-9.56626
 30
0.0
 10
10.1963
 20
-9.49039
 30
0.0
 10
9.99018
 20
-9.3145
 30
0.0
 10
9.99018
 20
-9.3145
 30
0.0
 10
9.82678
 20
-9.13308
 30
0.0
 10
9.86775
 20
-9.01373
 30
0.0
 10
10.07428
 20
-8.94448
 30
0.0
 10
10.07428
 20
-8.94448
 30
0.0
 10
10.22821
 20
-8.90589
 30
0.0
 10
10.42978
 20
-8.76519
 30
0.0
 10
10.07428
 20
-8.57445
 30
0.0
 10
10.07428
 20
-8.57445
 30
0.0
 10
9.9037
 20
-8.47046
 30
0.0
 10
9.89168
 20
-8.35327
 30
0.0
 10
10.05744
 20
-8.22127
 30
0.0
 10
10.05744
 20
-8.22127
 30
0.0
 10
10.2728
 20
-8.06769
 30
0.0
 10
10.30614
 20
-7.83968
 30
0.0
 10
10.02336
 20
-7.77061
 30
0.0
 10
10.02336
 20
-7.77061
 30
0.0
 10
9.88421
 20
-7.73667
 30
0.0
 10
9.79795
 20
-7.6363
 30
0.0
 10
10.02381
 20
-7.43078
 30
0.0
 10
10.02381
 20
-7.43078
 30
0.0
 10
10.25154
 20
-7.26103
 30
0.0
 10
10.18292
 20
-7.11848
 30
0.0
 10
9.92289
 20
-6.9935
 30
0.0
 10
9.92289
 20
-6.9935
 30
0.0
 10
9.7157
 20
-6.88166
 30
0.0
 10
9.70139
 20
-6.74327
 30
0.0
 10
9.6706
 20
-6.60666
 30
0.0
 10
9.6706
 20
-6.60666
 30
0.0
 10
9.62988
 20
-6.42607
 30
0.0
 10
9.48953
 20
-6.40973
 30
0.0
 10
9.35104
 20
-6.45528
 30
0.0
 10
9.35104
 20
-6.45528
 30
0.0
 10
9.16921
 20
-6.18591
 30
0.0
 10
8.93875
 20
-6.1021
 30
0.0
 10
8.69512
 20
-6.06847
 30
0.0
 10
8.69512
 20
-6.06847
 30
0.0
 10
9.65521
 20
-5.28923
 30
0.0
 10
10.53343
 20
-4.50993
 30
0.0
 10
9.95652
 20
-3.73063
 30
0.0
 10
9.95652
 20
-3.73063
 30
0.0
 10
9.83934
 20
-3.56901
 30
0.0
 10
9.79659
 20
-3.41034
 30
0.0
 10
9.77866
 20
-3.17727
 30
0.0
 10
9.77866
 20
-3.17727
 30
0.0
 10
9.71125
 20
-2.30135
 30
0.0
 10
8.94542
 20
-2.2722
 30
0.0
 10
8.07283
 20
-2.08239
 30
0.0
 10
8.07283
 20
-2.08239
 30
0.0
 10
8.11393
 20
-1.17846
 30
0.0
 10
8.03647
 20
-0.26786
 30
0.0
 10
6.47504
 20
0.72636
 30
0.0
 10
6.47504
 20
0.72636
 30
0.0
 10
6.4574
 20
1.0783
 30
0.0
 10
6.23475
 20
1.34999
 30
0.0
 10
5.70136
 20
1.50004
 30
0.0
 10
5.70136
 20
1.50004
 30
0.0
 10
6.68195
 20
2.34892
 30
0.0
 10
6.40721
 20
3.69912
 30
0.0
 10
4.9445
 20
3.06418
 30
0.0
 10
4.9445
 20
3.06418
 30
0.0
 10
4.78011
 20
3.77934
 30
0.0
 10
4.34668
 20
4.28336
 30
0.0
 10
3.81764
 20
4.71244
 30
0.0
 10
3.81764
 20
4.71244
 30
0.0
 10
4.08929
 20
5.0988
 30
0.0
 10
4.1739
 20
5.52019
 30
0.0
 10
4.08675
 20
5.97384
 30
0.0
 10
4.08675
 20
5.97384
 30
0.0
 10
5.23341
 20
5.28544
 30
0.0
 10
5.73702
 20
5.85389
 30
0.0
 10
6.0041
 20
4.72926
 30
0.0
 10
6.0041
 20
4.72926
 30
0.0
 10
6.12936
 20
5.34519
 30
0.0
 10
6.6104
 20
5.26834
 30
0.0
 10
6.84503
 20
4.76288
 30
0.0
 10
6.84503
 20
4.76288
 30
0.0
 10
6.84837
 20
5.31045
 30
0.0
 10
7.05426
 20
5.58389
 30
0.0
 10
7.82053
 20
5.09928
 30
0.0
 10
7.82053
 20
5.09928
 30
0.0
 10
7.20098
 20
5.63204
 30
0.0
 10
7.66356
 20
5.6738
 30
0.0
 10
8.29147
 20
5.38518
 30
0.0
 10
8.29147
 20
5.38518
 30
0.0
 10
8.13599
 20
5.6341
 30
0.0
 10
7.97879
 20
5.88249
 30
0.0
 10
7.58508
 20
6.07475
 30
0.0
 10
7.58508
 20
6.07475
 30
0.0
 10
7.59249
 20
6.30385
 30
0.0
 10
7.48232
 20
6.45679
 30
0.0
 10
7.29916
 20
6.5625
 30
0.0
 10
7.29916
 20
6.5625
 30
0.0
 10
7.21833
 20
6.68497
 30
0.0
 10
7.21162
 20
6.80441
 30
0.0
 10
7.40007
 20
6.91572
 30
0.0
 10
7.40007
 20
6.91572
 30
0.0
 10
7.53016
 20
7.7043
 30
0.0
 10
7.80982
 20
7.47126
 30
0.0
 10
8.17867
 20
7.62036
 30
0.0
 10
8.17867
 20
7.62036
 30
0.0
 10
8.43857
 20
7.72544
 30
0.0
 10
8.64751
 20
7.98393
 30
0.0
 10
8.52693
 20
8.53033
 30
0.0
 10
8.52693
 20
8.53033
 30
0.0
 10
8.45328
 20
8.86405
 30
0.0
 10
8.76317
 20
9.07036
 30
0.0
 10
9.03572
 20
8.61859
 30
0.0
 10
9.03572
 20
8.61859
 30
0.0
 10
9.28547
 20
8.14196
 30
0.0
 10
9.62826
 20
7.88003
 30
0.0
 10
10.19201
 20
8.00895
 30
0.0
 10
10.19201
 20
8.00895
 30
0.0
 10
9.84302
 20
8.26922
 30
0.0
 10
9.66055
 20
8.58951
 30
0.0
 10
9.87242
 20
9.0517
 30
0.0
 10
9.87242
 20
9.0517
 30
0.0
 10
9.62178
 20
8.83122
 30
0.0
 10
9.36903
 20
8.88678
 30
0.0
 10
9.48562
 20
9.27034
 30
0.0
 10
9.48562
 20
9.27034
 30
0.0
 10
9.52503
 20
9.67905
 30
0.0
 10
9.22331
 20
9.73067
 30
0.0
 10
8.72875
 20
9.65718
 30
0.0
 10
8.72875
 20
9.65718
 30
0.0
 10
8.9903
 20
11.49552
 30
0.0
 10
7.0542
 20
10.88273
 30
0.0
 10
6.13864
 20
9.72447
 30
0.0
 10
6.13864
 20
9.72447
 30
0.0
 10
5.97282
 20
9.4954
 30
0.0
 10
5.76687
 20
9.52395
 30
0.0
 10
5.73499
 20
9.77491
 30
0.0
 10
5.73499
 20
9.77491
 30
0.0
 10
5.82621
 20
10.45546
 30
0.0
 10
5.75107
 20
10.72667
 30
0.0
 10
5.60045
 20
10.78404
 30
0.0
 10
5.60045
 20
10.78404
 30
0.0
 10
5.56612
 20
10.94026
 30
0.0
 10
5.54781
 20
11.11551
 30
0.0
 10
5.56682
 20
11.33908
 30
0.0
 10
5.56682
 20
11.33908
 30
0.0
 10
5.83844
 20
11.44593
 30
0.0
 10
6.00162
 20
11.70478
 30
0.0
 10
5.79805
 20
12.11695
 30
0.0
 10
5.79805
 20
12.11695
 30
0.0
 10
5.79805
 20
12.11695
 30
0.0
 10
6.05273
 20
12.52829
 30
0.0
 10
6.05273
 20
12.52829
 30
0.0
 10
6.05273
 20
12.52829
 30
0.0
 10
6.05273
 20
12.52829
 30
0.0
 10
6.454
 20
12.53742
 30
0.0
 10
6.454
 20
12.53742
 30
0.0
 10
6.454
 20
12.53742
 30
0.0
 10
6.454
 20
12.53742
 30
0.0
 10
6.66215
 20
14.11417
 30
0.0
 10
6.66215
 20
14.11417
 30
0.0
 10
6.66215
 20
14.11417
 30
0.0
 10
6.66215
 20
14.11417
 30
0.0
 10
5.56682
 20
12.9705
 30
0.0
 10
5.56682
 20
12.9705
 30
0.0
 10
5.56682
 20
12.9705
 30
0.0
 10
5.56682
 20
12.9705
 30
0.0
 10
5.80227
 20
12.66776
 30
0.0
 10
5.80227
 20
12.66776
 30
0.0
 10
5.80227
 20
12.66776
 30
0.0
 10
5.74061
 20
12.56125
 30
0.0
 10
5.67892
 20
12.40424
 30
0.0
 10
5.61726
 20
12.29774
 30
0.0
 10
5.61726
 20
12.29774
 30
0.0
 10
5.21304
 20
12.34926
 30
0.0
 10
4.98439
 20
12.21265
 30
0.0
 10
4.89406
 20
11.92774
 30
0.0
 10
4.89406
 20
11.92774
 30
0.0
 10
4.50115
 20
11.81574
 30
0.0
 10
4.78784
 20
11.45912
 30
0.0
 10
4.97816
 20
11.13725
 30
0.0
 10
4.97816
 20
11.13725
 30
0.0
 10
4.97816
 20
11.13725
 30
0.0
 10
4.62494
 20
10.54859
 30
0.0
 10
4.62494
 20
10.54859
 30
0.0
 10
4.62494
 20
10.54859
 30
0.0
 10
4.52931
 20
10.33414
 30
0.0
 10
4.39775
 20
10.3392
 30
0.0
 10
4.35586
 20
10.53177
 30
0.0
 10
4.35586
 20
10.53177
 30
0.0
 10
4.26674
 20
10.94156
 30
0.0
 10
3.97792
 20
11.0023
 30
0.0
 10
3.71673
 20
10.80085
 30
0.0
 10
3.71673
 20
10.80085
 30
0.0
 10
4.0551
 20
10.83394
 30
0.0
 10
4.33628
 20
10.51766
 30
0.0
 10
4.0659
 20
10.24572
 30
0.0
 10
4.0659
 20
10.24572
 30
0.0
 10
3.84917
 20
10.02778
 30
0.0
 10
3.42006
 20
10.07447
 30
0.0
 10
3.36355
 20
10.43086
 30
0.0
 10
3.36355
 20
10.43086
 30
0.0
 10
3.22522
 20
11.3031
 30
0.0
 10
2.86858
 20
11.76657
 30
0.0
 10
2.0853
 20
11.72592
 30
0.0
 10
2.0853
 20
11.72592
 30
0.0
 10
1.94997
 20
11.70942
 30
0.0
 10
1.90102
 20
11.76482
 30
0.0
 10
1.90029
 20
11.86046
 30
0.0
 10
1.90029
 20
11.86046
 30
0.0
 10
2.0888
 20
12.05821
 30
0.0
 10
1.9569
 20
12.16065
 30
0.0
 10
1.81619
 20
12.05386
 30
0.0
 10
1.81619
 20
12.05386
 30
0.0
 10
1.5377
 20
11.84247
 30
0.0
 10
1.28919
 20
11.63619
 30
0.0
 10
1.0257
 20
11.40633
 30
0.0
 10
1.0257
 20
11.40633
 30
0.0
 10
0.46304
 20
10.86658
 30
0.0
 10
0.76193
 20
10.26206
 30
0.0
 10
1.53344
 20
10.54649
 30
0.0
  0
SPLINE
  5
43
330
1F
100
AcDbEntity
  8
Kerf Pocket Cut 3mm
 62
     7
100
AcDbSpline
210
0.0
220
0.0
230
1.0
 70
    11
 71
     3
 72
    44
 73
    40
 74
     0
 42
0.0000000001
 43
0.0000000001
 40
0.0
 40
0.0
 40
0.0
 40
0.0
 40
0.0909090909090909
 40
0.0909090909090909
 40
0.0909090909090909
 40
0.0909090909090909
 40
0.1818181818181818
 40
0.1818181818181818
 40
0.1818181818181818
 40
0.1818181818181818
 40
0.2727272727272727
 40
0.2727272727272727
 40
0.2727272727272727
 40
0.2727272727272727
 40
0.3636363636363636
 40
0.3636363636363636
 40
0.3636363636363636
 40
0.3636363636363636
 40
0.4545454545454545
 40
0.4545454545454545
 40
0.4545454545454545
 40
0.4545454545454545
 40
0.5454545454545454
 40
0.5454545454545454
 40
0.5454545454545454
 40
0.5454545454545454
 40
0.6363636363636364
 40
0.6363636363636364
 40
0.6363636363636364
 40
0.6363636363636364
 40
0.7272727272727273
 40
0.7272727272727273
 40
0.7272727272727273
 40
0.7272727272727273
 40
0.8181818181818182
 40
0.8181818181818182
 40
0.8181818181818182
 40
0.8181818181818182
 40
1.0
 40
1.0
 40
1.0
 40
1.0
 10
1.81994
 20
10.63571
 30
0.0
 10
1.81994
 20
10.63571
 30
0.0
 10
1.81994
 20
10.18368
 30
0.0
 10
1.81994
 20
10.18368
 30
0.0
 10
1.81994
 20
10.18368
 30
0.0
 10
2.54467
 20
10.13724
 30
0.0
 10
2.70992
 20
9.46273
 30
0.0
 10
2.56104
 20
8.73304
 30
0.0
 10
2.56104
 20
8.73304
 30
0.0
 10
2.78238
 20
8.72468
 30
0.0
 10
2.9441
 20
8.64328
 30
0.0
 10
3.03932
 20
8.48074
 30
0.0
 10
3.03932
 20
8.48074
 30
0.0
 10
3.17075
 20
8.49196
 30
0.0
 10
3.30217
 20
8.48872
 30
0.0
 10
3.43353
 20
8.4755
 30
0.0
 10
3.43353
 20
8.4755
 30
0.0
 10
3.43353
 20
8.4755
 30
0.0
 10
4.19564
 20
9.87357
 30
0.0
 10
4.19564
 20
9.87357
 30
0.0
 10
4.19564
 20
9.87357
 30
0.0
 10
3.79231
 20
9.62301
 30
0.0
 10
3.49081
 20
9.77437
 30
0.0
 10
3.2811
 20
10.07857
 30
0.0
 10
3.2811
 20
10.07857
 30
0.0
 10
3.15397
 20
9.81098
 30
0.0
 10
3.31358
 20
9.59104
 30
0.0
 10
3.74889
 20
9.50567
 30
0.0
 10
3.74889
 20
9.50567
 30
0.0
 10
3.60367
 20
9.44515
 30
0.0
 10
3.19166
 20
9.33092
 30
0.0
 10
2.99206
 20
9.58449
 30
0.0
 10
2.99206
 20
9.58449
 30
0.0
 10
2.99206
 20
9.58449
 30
0.0
 10
2.21412
 20
10.57261
 30
0.0
 10
2.21412
 20
10.57261
 30
0.0
 10
2.21412
 20
10.57261
 30
0.0
 10
2.10342
 20
10.71329
 30
0.0
 10
1.86384
 20
10.71637
 30
0.0
 10
1.81994
 20
10.63571
 30
0.0
  0
SPLINE
  5
44
330
1F
100
AcDbEntity
  8
Kerf Pocket Cut 3mm
 62
     7
100
AcDbSpline
210
0.0
220
0.0
230
1.0
 70
    11
 71
     3
 72
    32
 73
    28
 74
     0
 42
0.0000000001
 43
0.0000000001
 40
0.0
 40
0.0
 40
0.0
 40
0.0
 40
0.125
 40
0.125
 40
0.125
 40
0.125
 40
0.25
 40
0.25
 40
0.25
 40
0.25
 40
0.375
 40
0.375
 40
0.375
 40
0.375
 40
0.5
 40
0.5
 40
0.5
 40
0.5
 40
0.625
 40
0.625
 40
0.625
 40
0.625
 40
0.75
 40
0.75
 40
0.75
 40
0.75
 40
1.0
 40
1.0
 40
1.0
 40
1.0
 10
3.72893
 20
8.54396
 30
0.0
 10
3.86172
 20
8.56144
 30
0.0
 10
3.99248
 20
8.53287
 30
0.0
 10
4.11122
 20
8.45233
 30
0.0
 10
4.11122
 20
8.45233
 30
0.0
 10
4.11122
 20
8.45233
 30
0.0
 10
4.50804
 20
8.38399
 30
0.0
 10
4.50804
 20
8.38399
 30
0.0
 10
4.50804
 20
8.38399
 30
0.0
 10
4.55753
 20
8.50153
 30
0.0
 10
4.65034
 20
8.58423
 30
0.0
 10
4.7866
 20
8.62841
 30
0.0
 10
4.7866
 20
8.62841
 30
0.0
 10
4.7866
 20
8.62841
 30
0.0
 10
4.88646
 20
9.94238
 30
0.0
 10
4.88646
 20
9.94238
 30
0.0
 10
4.88646
 20
9.94238
 30
0.0
 10
4.88983
 20
10.13588
 30
0.0
 10
4.92581
 20
10.30385
 30
0.0
 10
5.04134
 20
10.40976
 30
0.0
 10
5.04134
 20
10.40976
 30
0.0
 10
5.11018
 20
10.47291
 30
0.0
 10
5.06159
 20
10.88311
 30
0.0
 10
4.92587
 20
10.65191
 30
0.0
 10
4.92587
 20
10.65191
 30
0.0
 10
4.92587
 20
10.65191
 30
0.0
 10
3.72893
 20
8.54396
 30
0.0
 10
3.72893
 20
8.54396
 30
0.0
  0
SPLINE
  5
45
330
1F
100
AcDbEntity
  8
Kerf Pocket Cut 3mm
 62
     7
100
AcDbSpline
210
0.0
220
0.0
230
1.0
 70
    11
 71
     3
 72
    12
 73
     8
 74
     0
 42
0.0000000001
 43
0.0000000001
 40
0.0
 40
0.0
 40
0.0
 40
0.0
 40
0.3333333333333333
 40
0.3333333333333333
 40
0.3333333333333333
 40
0.3333333333333333
 40
1.0
 40
1.0
 40
1.0
 40
1.0
 10
4.77884
 20
8.31849
 30
0.0
 10
5.16317
 20
7.84288
 30
0.0
 10
6.1211
 20
8.34525
 30
0.0
 10
5.86683
 20
9.02408
 30
0.0
 10
5.86683
 20
9.02408
 30
0.0
 10
5.76566
 20
8.55613
 30
0.0
 10
5.30658
 20
8.2451
 30
0.0
 10
4.77884
 20
8.31849
 30
0.0
  0
SPLINE
  5
46
330
1F
100
AcDbEntity
  8
Kerf Pocket Cut 3mm
 62
     7
100
AcDbSpline
210
0.0
220
0.0
230
1.0
 70
    11
 71
     3
 72
    48
 73
    44
 74
     0
 42
0.0000000001
 43
0.0000000001
 40
0.0
 40
0.0
 40
0.0
 40
0.0
 40
0.0833333333333333
 40
0.0833333333333333
 40
0.0833333333333333
 40
0.0833333333333333
 40
0.1666666666666667
 40
0.1666666666666667
 40
0.1666666666666667
 40
0.1666666666666667
 40
0.25
 40
0.25
 40
0.25
 40
0.25
 40
0.3333333333333333
 40
0.3333333333333333
 40
0.3333333333333333
 40
0.3333333333333333
 40
0.4166666666666667
 40
0.4166666666666667
 40
0.4166666666666667
 40
0.4166666666666667
 40
0.5
 40
0.5
 40
0.5
 40
0.5
 40
0.5833333333333334
 40
0.5833333333333334
 40
0.5833333333333334
 40
0.5833333333333334
 40
0.6666666666666666
 40
0.6666666666666666
 40
0.6666666666666666
 40
0.6666666666666666
 40
0.75
 40
0.75
 40
0.75
 40
0.75
 40
0.8333333333333334
 40
0.8333333333333334
 40
0.8333333333333334
 40
0.8333333333333334
 40
1.0
 40
1.0
 40
1.0
 40
1.0
 10
5.90884
 20
6.97515
 30
0.0
 10
6.3446
 20
6.93571
 30
0.0
 10
6.92176
 20
7.11954
 30
0.0
 10
6.8812
 20
7.52177
 30
0.0
 10
6.8812
 20
7.52177
 30
0.0
 10
6.86372
 20
7.69546
 30
0.0
 10
6.87681
 20
7.87202
 30
0.0
 10
7.02311
 20
7.98428
 30
0.0
 10
7.02311
 20
7.98428
 30
0.0
 10
7.39072
 20
8.26643
 30
0.0
 10
7.65049
 20
8.67942
 30
0.0
 10
7.43834
 20
9.08276
 30
0.0
 10
7.43834
 20
9.08276
 30
0.0
 10
7.31858
 20
9.31049
 30
0.0
 10
7.22036
 20
9.52754
 30
0.0
 10
7.30167
 20
9.79757
 30
0.0
 10
7.30167
 20
9.79757
 30
0.0
 10
7.58648
 20
9.13914
 30
0.0
 10
7.9586
 20
9.29097
 30
0.0
 10
8.18992
 20
10.12345
 30
0.0
 10
8.18992
 20
10.12345
 30
0.0
 10
8.36874
 20
9.81979
 30
0.0
 10
8.45548
 20
9.33601
 30
0.0
 10
7.76946
 20
8.91459
 30
0.0
 10
7.76946
 20
8.91459
 30
0.0
 10
8.30851
 20
8.82626
 30
0.0
 10
8.43053
 20
8.57282
 30
0.0
 10
7.85353
 20
8.45204
 30
0.0
 10
7.85353
 20
8.45204
 30
0.0
 10
7.67929
 20
8.41625
 30
0.0
 10
7.58877
 20
8.24345
 30
0.0
 10
7.71164
 20
8.02633
 30
0.0
 10
7.71164
 20
8.02633
 30
0.0
 10
7.7892
 20
7.91375
 30
0.0
 10
7.75935
 20
7.84116
 30
0.0
 10
7.6065
 20
7.82136
 30
0.0
 10
7.6065
 20
7.82136
 30
0.0
 10
7.29639
 20
7.81367
 30
0.0
 10
7.04543
 20
7.66854
 30
0.0
 10
7.11246
 20
7.43239
 30
0.0
 10
7.11246
 20
7.43239
 30
0.0
 10
7.31413
 20
6.72203
 30
0.0
 10
6.05756
 20
6.55939
 30
0.0
 10
5.90884
 20
6.97515
 30
0.0
  0
SPLINE
  5
47
330
1F
100
AcDbEntity
  8
Kerf Pocket Cut 3mm
 62
     7
100
AcDbSpline
210
0.0
220
0.0
230
1.0
 70
    11
 71
     3
 72
    32
 73
    28
 74
     0
 42
0.0000000001
 43
0.0000000001
 40
0.0
 40
0.0
 40
0.0
 40
0.0
 40
0.125
 40
0.125
 40
0.125
 40
0.125
 40
0.25
 40
0.25
 40
0.25
 40
0.25
 40
0.375
 40
0.375
 40
0.375
 40
0.375
 40
0.5
 40
0.5
 40
0.5
 40
0.5
 40
0.625
 40
0.625
 40
0.625
 40
0.625
 40
0.75
 40
0.75
 40
0.75
 40
0.75
 40
1.0
 40
1.0
 40
1.0
 40
1.0
 10
4.7516
 20
6.42453
 30
0.0
 10
4.75837
 20
5.9978
 30
0.0
 10
5.34046
 20
5.71595
 30
0.0
 10
5.7292
 20
6.15647
 30
0.0
 10
5.7292
 20
6.15647
 30
0.0
 10
5.78241
 20
5.4331
 30
0.0
 10
6.31014
 20
5.0592
 30
0.0
 10
6.68052
 20
5.63614
 30
0.0
 10
6.68052
 20
5.63614
 30
0.0
 10
6.74962
 20
5.74481
 30
0.0
 10
6.84538
 20
5.7812
 30
0.0
 10
6.93806
 20
5.69923
 30
0.0
 10
6.93806
 20
5.69923
 30
0.0
 10
7.09851
 20
5.55732
 30
0.0
 10
7.36838
 20
5.57451
 30
0.0
 10
7.55826
 20
5.64666
 30
0.0
 10
7.55826
 20
5.64666
 30
0.0
 10
7.25917
 20
5.758
 30
0.0
 10
7.10655
 20
6.00925
 30
0.0
 10
7.17984
 20
6.27737
 30
0.0
 10
7.17984
 20
6.27737
 30
0.0
 10
6.61978
 20
5.8305
 30
0.0
 10
6.08251
 20
5.97171
 30
0.0
 10
5.83431
 20
6.59798
 30
0.0
 10
5.83431
 20
6.59798
 30
0.0
 10
5.59746
 20
6.16918
 30
0.0
 10
5.19165
 20
6.0956
 30
0.0
 10
4.7516
 20
6.42453
 30
0.0
  0
SPLINE
  5
48
330
1F
100
AcDbEntity
  8
Kerf Pocket Cut 3mm
 62
     7
100
AcDbSpline
210
0.0
220
0.0
230
1.0
 70
    11
 71
     3
 72
    20
 73
    16
 74
     0
 42
0.0000000001
 43
0.0000000001
 40
0.0
 40
0.0
 40
0.0
 40
0.0
 40
0.2
 40
0.2
 40
0.2
 40
0.2
 40
0.4
 40
0.4
 40
0.4
 40
0.4
 40
0.6
 40
0.6
 40
0.6
 40
0.6
 40
1.0
 40
1.0
 40
1.0
 40
1.0
 10
5.12484
 20
9.81642
 30
0.0
 10
5.07306
 20
9.86409
 30
0.0
 10
5.13065
 20
10.0116
 30
0.0
 10
5.21682
 20
9.90316
 30
0.0
 10
5.21682
 20
9.90316
 30
0.0
 10
5.38232
 20
9.69497
 30
0.0
 10
5.52092
 20
9.94524
 30
0.0
 10
5.46912
 20
10.20275
 30
0.0
 10
5.46912
 20
10.20275
 30
0.0
 10
5.44353
 20
10.32998
 30
0.0
 10
5.587
 20
10.34345
 30
0.0
 10
5.60579
 20
10.21063
 30
0.0
 10
5.60579
 20
10.21063
 30
0.0
 10
5.66529
 20
9.79064
 30
0.0
 10
5.36461
 20
9.59565
 30
0.0
 10
5.12484
 20
9.81642
 30
0.0
  0
SPLINE
  5
49
330
1F
100
AcDbEntity
  8
Kerf Pocket Cut 3mm
 62
     7
100
AcDbSpline
210
0.0
220
0.0
230
1.0
 70
    11
 71
     3
 72
    40
 73
    36
 74
     0
 42
0.0000000001
 43
0.0000000001
 40
0.0
 40
0.0
 40
0.0
 40
0.0
 40
0.1
 40
0.1
 40
0.1
 40
0.1
 40
0.2
 40
0.2
 40
0.2
 40
0.2
 40
0.3
 40
0.3
 40
0.3
 40
0.3
 40
0.4
 40
0.4
 40
0.4
 40
0.4
 40
0.5
 40
0.5
 40
0.5
 40
0.5
 40
0.6
 40
0.6
 40
0.6
 40
0.6
 40
0.7
 40
0.7
 40
0.7
 40
0.7
 40
0.8
 40
0.8
 40
0.8
 40
0.8
 40
1.0
 40
1.0
 40
1.0
 40
1.0
 10
0.60733
 20
8.89132
 30
0.0
 10
0.44079
 20
8.64869
 30
0.0
 10
0.77852
 20
8.78571
 30
0.0
 10
0.86357
 20
8.81644
 30
0.0
 10
0.86357
 20
8.81644
 30
0.0
 10
0.86357
 20
8.81644
 30
0.0
 10
1.5153
 20
8.80856
 30
0.0
 10
1.5153
 20
8.80856
 30
0.0
 10
1.5153
 20
8.80856
 30
0.0
 10
1.90557
 20
8.81863
 30
0.0
 10
1.84438
 20
8.16901
 30
0.0
 10
1.82935
 20
7.92949
 30
0.0
 10
1.82935
 20
7.92949
 30
0.0
 10
1.66684
 20
7.59751
 30
0.0
 10
1.78657
 20
7.47177
 30
0.0
 10
1.92921
 20
7.66403
 30
0.0
 10
1.92921
 20
7.66403
 30
0.0
 10
2.18056
 20
7.9593
 30
0.0
 10
2.22194
 20
8.44797
 30
0.0
 10
2.11582
 20
9.07265
 30
0.0
 10
2.11582
 20
9.07265
 30
0.0
 10
2.1065
 20
9.19378
 30
0.0
 10
1.94841
 20
9.20611
 30
0.0
 10
1.77678
 20
9.16727
 30
0.0
 10
1.77678
 20
9.16727
 30
0.0
 10
1.37596
 20
9.07659
 30
0.0
 10
1.06486
 20
9.07688
 30
0.0
 10
1.03044
 20
9.1804
 30
0.0
 10
1.03044
 20
9.1804
 30
0.0
 10
0.96356
 20
9.38152
 30
0.0
 10
0.81068
 20
9.35378
 30
0.0
 10
0.76501
 20
9.19616
 30
0.0
 10
0.76501
 20
9.19616
 30
0.0
 10
0.73011
 20
9.08114
 30
0.0
 10
0.67621
 20
8.9806
 30
0.0
 10
0.60733
 20
8.89132
 30
0.0
  0
SPLINE
  5
4A
330
1F
100
AcDbEntity
  8
Kerf Pocket Cut 3mm
 62
     7
100
AcDbSpline
210
0.0
220
0.0
230
1.0
 70
    11
 71
     3
 72
    20
 73
    16
 74
     0
 42
0.0000000001
 43
0.0000000001
 40
0.0
 40
0.0
 40
0.0
 40
0.0
 40
0.2
 40
0.2
 40
0.2
 40
0.2
 40
0.4
 40
0.4
 40
0.4
 40
0.4
 40
0.6
 40
0.6
 40
0.6
 40
0.6
 40
1.0
 40
1.0
 40
1.0
 40
1.0
 10
1.00985
 20
8.40511
 30
0.0
 10
0.96141
 20
8.35138
 30
0.0
 10
0.94469
 20
8.2875
 30
0.0
 10
0.9725
 20
8.26244
 30
0.0
 10
0.9725
 20
8.26244
 30
0.0
 10
1.0003
 20
8.23737
 30
0.0
 10
1.0621
 20
8.26061
 30
0.0
 10
1.11054
 20
8.31434
 30
0.0
 10
1.11054
 20
8.31434
 30
0.0
 10
1.15898
 20
8.36807
 30
0.0
 10
1.1757
 20
8.43195
 30
0.0
 10
1.14789
 20
8.45701
 30
0.0
 10
1.14789
 20
8.45701
 30
0.0
 10
1.12009
 20
8.48208
 30
0.0
 10
1.05828
 20
8.45884
 30
0.0
 10
1.00985
 20
8.40511
 30
0.0
  0
SPLINE
  5
4B
330
1F
100
AcDbEntity
  8
Kerf Pocket Cut 3mm
 62
     7
100
AcDbSpline
210
0.0
220
0.0
230
1.0
 70
    11
 71
     3
 72
    20
 73
    16
 74
     0
 42
0.0000000001
 43
0.0000000001
 40
0.0
 40
0.0
 40
0.0
 40
0.0
 40
0.2
 40
0.2
 40
0.2
 40
0.2
 40
0.4
 40
0.4
 40
0.4
 40
0.4
 40
0.6
 40
0.6
 40
0.6
 40
0.6
 40
1.0
 40
1.0
 40
1.0
 40
1.0
 10
1.68442
 20
6.62531
 30
0.0
 10
1.46222
 20
6.54881
 30
0.0
 10
1.54629
 20
6.36208
 30
0.0
 10
1.74223
 20
6.43346
 30
0.0
 10
1.74223
 20
6.43346
 30
0.0
 10
2.4649
 20
6.69676
 30
0.0
 10
3.19811
 20
6.70582
 30
0.0
 10
3.85772
 20
6.26526
 30
0.0
 10
3.85772
 20
6.26526
 30
0.0
 10
4.04035
 20
6.14328
 30
0.0
 10
4.13719
 20
6.30576
 30
0.0
 10
4.00227
 20
6.40454
 30
0.0
 10
4.00227
 20
6.40454
 30
0.0
 10
3.32916
 20
6.89754
 30
0.0
 10
2.54591
 20
6.92195
 30
0.0
 10
1.68442
 20
6.62531
 30
0.0
  0
SPLINE
  5
4C
330
1F
100
AcDbEntity
  8
Kerf Pocket Cut 3mm
 62
     7
100
AcDbSpline
210
0.0
220
0.0
230
1.0
 70
    11
 71
     3
 72
    20
 73
    16
 74
     0
 42
0.0000000001
 43
0.0000000001
 40
0.0
 40
0.0
 40
0.0
 40
0.0
 40
0.2
 40
0.2
 40
0.2
 40
0.2
 40
0.4
 40
0.4
 40
0.4
 40
0.4
 40
0.6
 40
0.6
 40
0.6
 40
0.6
 40
1.0
 40
1.0
 40
1.0
 40
1.0
 10
0.79622
 20
6.03928
 30
0.0
 10
0.55
 20
6.0294
 30
0.0
 10
0.56512
 20
5.70921
 30
0.0
 10
0.7857
 20
5.74493
 30
0.0
 10
0.7857
 20
5.74493
 30
0.0
 10
1.2671
 20
5.81543
 30
0.0
 10
1.62524
 20
5.66484
 30
0.0
 10
1.8474
 20
5.27717
 30
0.0
 10
1.8474
 20
5.27717
 30
0.0
 10
1.98445
 20
5.0927
 30
0.0
 10
2.19477
 20
5.22858
 30
0.0
 10
2.06817
 20
5.44537
 30
0.0
 10
2.06817
 20
5.44537
 30
0.0
 10
1.79121
 20
5.92273
 30
0.0
 10
1.35352
 20
6.09449
 30
0.0
 10
0.79622
 20
6.03928
 30
0.0
  0
SPLINE
  5
4D
330
1F
100
AcDbEntity
  8
Kerf Pocket Cut 3mm
 62
     7
100
AcDbSpline
210
0.0
220
0.0
230
1.0
 70
    11
 71
     3
 72
    20
 73
    16
 74
     0
 42
0.0000000001
 43
0.0000000001
 40
0.0
 40
0.0
 40
0.0
 40
0.0
 40
0.2
 40
0.2
 40
0.2
 40
0.2
 40
0.4
 40
0.4
 40
0.4
 40
0.4
 40
0.6
 40
0.6
 40
0.6
 40
0.6
 40
1.0
 40
1.0
 40
1.0
 40
1.0
 10
0.59255
 20
5.57677
 30
0.0
 10
0.38126
 20
5.53449
 30
0.0
 10
0.48236
 20
5.30092
 30
0.0
 10
0.61884
 20
5.32971
 30
0.0
 10
0.61884
 20
5.32971
 30
0.0
 10
1.01613
 20
5.45109
 30
0.0
 10
1.39627
 20
5.2609
 30
0.0
 10
1.5938
 20
4.90925
 30
0.0
 10
1.5938
 20
4.90925
 30
0.0
 10
1.69605
 20
4.77321
 30
0.0
 10
1.89883
 20
4.95066
 30
0.0
 10
1.77777
 20
5.09846
 30
0.0
 10
1.77777
 20
5.09846
 30
0.0
 10
1.49394
 20
5.55369
 30
0.0
 10
1.07274
 20
5.70311
 30
0.0
 10
0.59255
 20
5.57677
 30
0.0
  0
SPLINE
  5
4E
330
1F
100
AcDbEntity
  8
Kerf Pocket Cut 3mm
 62
     7
100
AcDbSpline
210
0.0
220
0.0
230
1.0
 70
    11
 71
     3
 72
    20
 73
    16
 74
     0
 42
0.0000000001
 43
0.0000000001
 40
0.0
 40
0.0
 40
0.0
 40
0.0
 40
0.2
 40
0.2
 40
0.2
 40
0.2
 40
0.4
 40
0.4
 40
0.4
 40
0.4
 40
0.6
 40
0.6
 40
0.6
 40
0.6
 40
1.0
 40
1.0
 40
1.0
 40
1.0
 10
0.49005
 20
5.08008
 30
0.0
 10
0.44355
 20
5.20725
 30
0.0
 10
0.13779
 20
5.11362
 30
0.0
 10
0.21674
 20
4.92765
 30
0.0
 10
0.21674
 20
4.92765
 30
0.0
 10
0.36492
 20
4.57857
 30
0.0
 10
0.63788
 20
4.36813
 30
0.0
 10
1.09712
 20
4.36003
 30
0.0
 10
1.09712
 20
4.36003
 30
0.0
 10
1.22839
 20
4.35771
 30
0.0
 10
1.27466
 20
4.56567
 30
0.0
 10
1.1208
 20
4.58865
 30
0.0
 10
1.1208
 20
4.58865
 30
0.0
 10
0.78141
 20
4.63937
 30
0.0
 10
0.591
 20
4.80404
 30
0.0
 10
0.49005
 20
5.08008
 30
0.0
  0
SPLINE
  5
4F
330
1F
100
AcDbEntity
  8
Kerf Pocket Cut 3mm
 62
     7
100
AcDbSpline
210
0.0
220
0.0
230
1.0
 70
    11
 71
     3
 72
    20
 73
    16
 74
     0
 42
0.0000000001
 43
0.0000000001
 40
0.0
 40
0.0
 40
0.0
 40
0.0
 40
0.2
 40
0.2
 40
0.2
 40
0.2
 40
0.4
 40
0.4
 40
0.4
 40
0.4
 40
0.6
 40
0.6
 40
0.6
 40
0.6
 40
1.0
 40
1.0
 40
1.0
 40
1.0
 10
0.15499
 20
4.36142
 30
0.0
 10
0.11701
 20
4.46186
 30
0.0
 10
0.23976
 20
4.54215
 30
0.0
 10
0.2798
 20
4.41924
 30
0.0
 10
0.2798
 20
4.41924
 30
0.0
 10
0.3387
 20
4.28546
 30
0.0
 10
0.43875
 20
4.17806
 30
0.0
 10
0.58175
 20
4.12848
 30
0.0
 10
0.58175
 20
4.12848
 30
0.0
 10
0.68002
 20
4.0735
 30
0.0
 10
0.6135
 20
3.9489
 30
0.0
 10
0.50947
 20
4.00103
 30
0.0
 10
0.50947
 20
4.00103
 30
0.0
 10
0.33695
 20
4.09832
 30
0.0
 10
0.2224
 20
4.2116
 30
0.0
 10
0.15499
 20
4.36142
 30
0.0
  0
SPLINE
  5
50
330
1F
100
AcDbEntity
  8
Kerf Pocket Cut 3mm
 62
     7
100
AcDbSpline
210
0.0
220
0.0
230
1.0
 70
    11
 71
     3
 72
    20
 73
    16
 74
     0
 42
0.0000000001
 43
0.0000000001
 40
0.0
 40
0.0
 40
0.0
 40
0.0
 40
0.2
 40
0.2
 40
0.2
 40
0.2
 40
0.4
 40
0.4
 40
0.4
 40
0.4
 40
0.6
 40
0.6
 40
0.6
 40
0.6
 40
1.0
 40
1.0
 40
1.0
 40
1.0
 10
-3.82165
 20
8.39655
 30
0.0
 10
-3.93973
 20
8.37935
 30
0.0
 10
-3.93032
 20
8.22759
 30
0.0
 10
-3.81902
 20
8.24415
 30
0.0
 10
-3.81902
 20
8.24415
 30
0.0
 10
-1.99775
 20
8.43758
 30
0.0
 10
-0.37977
 20
8.13087
 30
0.0
 10
0.59071
 20
6.49652
 30
0.0
 10
0.59071
 20
6.49652
 30
0.0
 10
0.66079
 20
6.37848
 30
0.0
 10
0.77957
 20
6.46331
 30
0.0
 10
0.70898
 20
6.59378
 30
0.0
 10
0.70898
 20
6.59378
 30
0.0
 10
-0.2124
 20
8.29687
 30
0.0
 10
-1.80943
 20
8.71699
 30
0.0
 10
-3.82165
 20
8.39655
 30
0.0
  0
SPLINE
  5
51
330
1F
100
AcDbEntity
  8
Kerf Pocket Cut 3mm
 62
     7
100
AcDbSpline
210
0.0
220
0.0
230
1.0
 70
    11
 71
     3
 72
    72
 73
    68
 74
     0
 42
0.0000000001
 43
0.0000000001
 40
0.0
 40
0.0
 40
0.0
 40
0.0
 40
0.0555555555555556
 40
0.0555555555555556
 40
0.0555555555555556
 40
0.0555555555555556
 40
0.1111111111111111
 40
0.1111111111111111
 40
0.1111111111111111
 40
0.1111111111111111
 40
0.1666666666666667
 40
0.1666666666666667
 40
0.1666666666666667
 40
0.1666666666666667
 40
0.2222222222222222
 40
0.2222222222222222
 40
0.2222222222222222
 40
0.2222222222222222
 40
0.2777777777777778
 40
0.2777777777777778
 40
0.2777777777777778
 40
0.2777777777777778
 40
0.3333333333333333
 40
0.3333333333333333
 40
0.3333333333333333
 40
0.3333333333333333
 40
0.3888888888888889
 40
0.3888888888888889
 40
0.3888888888888889
 40
0.3888888888888889
 40
0.4444444444444444
 40
0.4444444444444444
 40
0.4444444444444444
 40
0.4444444444444444
 40
0.5
 40
0.5
 40
0.5
 40
0.5
 40
0.5555555555555556
 40
0.5555555555555556
 40
0.5555555555555556
 40
0.5555555555555556
 40
0.6111111111111112
 40
0.6111111111111112
 40
0.6111111111111112
 40
0.6111111111111112
 40
0.6666666666666666
 40
0.6666666666666666
 40
0.6666666666666666
 40
0.6666666666666666
 40
0.7222222222222222
 40
0.7222222222222222
 40
0.7222222222222222
 40
0.7222222222222222
 40
0.7777777777777778
 40
0.7777777777777778
 40
0.7777777777777778
 40
0.7777777777777778
 40
0.8333333333333334
 40
0.8333333333333334
 40
0.8333333333333334
 40
0.8333333333333334
 40
0.8888888888888888
 40
0.8888888888888888
 40
0.8888888888888888
 40
0.8888888888888888
 40
1.0
 40
1.0
 40
1.0
 40
1.0
 10
-4.76394
 20
8.10449
 30
0.0
 10
-4.92547
 20
8.21262
 30
0.0
 10
-4.73283
 20
8.38724
 30
0.0
 10
-4.56421
 20
8.2937
 30
0.0
 10
-4.56421
 20
8.2937
 30
0.0
 10
-3.59151
 20
7.71043
 30
0.0
 10
-3.10535
 20
6.97296
 30
0.0
 10
-2.70888
 20
6.2071
 30
0.0
 10
-2.70888
 20
6.2071
 30
0.0
 10
-2.61534
 20
6.05142
 30
0.0
 10
-2.84113
 20
5.92788
 30
0.0
 10
-2.88756
 20
6.01789
 30
0.0
 10
-2.88756
 20
6.01789
 30
0.0
 10
-3.10639
 20
6.50479
 30
0.0
 10
-3.41505
 20
6.91683
 30
0.0
 10
-3.80211
 20
7.26356
 30
0.0
 10
-3.80211
 20
7.26356
 30
0.0
 10
-3.80211
 20
7.26356
 30
0.0
 10
-3.72455
 20
4.4529
 30
0.0
 10
-3.72455
 20
4.4529
 30
0.0
 10
-3.72455
 20
4.4529
 30
0.0
 10
-3.43917
 20
4.41568
 30
0.0
 10
-3.51195
 20
4.1753
 30
0.0
 10
-3.72325
 20
4.19408
 30
0.0
 10
-3.72325
 20
4.19408
 30
0.0
 10
-3.72325
 20
4.19408
 30
0.0
 10
-3.6812
 20
3.5108
 30
0.0
 10
-3.6812
 20
3.5108
 30
0.0
 10
-3.6812
 20
3.5108
 30
0.0
 10
-3.68956
 20
3.32684
 30
0.0
 10
-3.87079
 20
3.37508
 30
0.0
 10
-3.87569
 20
3.52132
 30
0.0
 10
-3.87569
 20
3.52132
 30
0.0
 10
-3.87569
 20
3.52132
 30
0.0
 10
-3.88621
 20
4.02064
 30
0.0
 10
-3.88621
 20
4.02064
 30
0.0
 10
-3.88621
 20
4.02064
 30
0.0
 10
-3.88977
 20
4.19046
 30
0.0
 10
-3.9288
 20
4.21487
 30
0.0
 10
-4.01026
 20
4.21458
 30
0.0
 10
-4.01026
 20
4.21458
 30
0.0
 10
-4.01026
 20
4.21458
 30
0.0
 10
-4.29529
 20
4.21344
 30
0.0
 10
-4.29529
 20
4.21344
 30
0.0
 10
-4.29529
 20
4.21344
 30
0.0
 10
-4.3922
 20
4.20537
 30
0.0
 10
-4.45437
 20
4.14584
 30
0.0
 10
-4.44598
 20
4.07321
 30
0.0
 10
-4.44598
 20
4.07321
 30
0.0
 10
-4.43896
 20
3.90733
 30
0.0
 10
-4.69602
 20
3.88778
 30
0.0
 10
-4.69691
 20
4.07845
 30
0.0
 10
-4.69691
 20
4.07845
 30
0.0
 10
-4.68442
 20
4.34127
 30
0.0
 10
-4.56965
 20
4.47607
 30
0.0
 10
-4.24886
 20
4.47264
 30
0.0
 10
-4.24886
 20
4.47264
 30
0.0
 10
-4.24886
 20
4.47264
 30
0.0
 10
-3.94138
 20
4.48446
 30
0.0
 10
-3.94138
 20
4.48446
 30
0.0
 10
-3.94138
 20
4.48446
 30
0.0
 10
-3.94138
 20
4.48446
 30
0.0
 10
-4.10167
 20
7.42124
 30
0.0
 10
-4.10167
 20
7.42124
 30
0.0
 10
-4.10167
 20
7.42124
 30
0.0
 10
-4.12001
 20
7.75786
 30
0.0
 10
-4.46861
 20
7.90679
 30
0.0
 10
-4.76394
 20
8.10449
 30
0.0
  0
SPLINE
  5
52
330
1F
100
AcDbEntity
  8
Kerf Pocket Cut 3mm
 62
     7
100
AcDbSpline
210
0.0
220
0.0
230
1.0
 70
    11
 71
     3
 72
    12
 73
     8
 74
     0
 42
0.0000000001
 43
0.0000000001
 40
0.0
 40
0.0
 40
0.0
 40
0.0
 40
0.3333333333333333
 40
0.3333333333333333
 40
0.3333333333333333
 40
0.3333333333333333
 40
1.0
 40
1.0
 40
1.0
 40
1.0
 10
-4.33645
 20
6.08937
 30
0.0
 10
-4.58856
 20
5.94374
 30
0.0
 10
-4.6336
 20
5.7033
 30
0.0
 10
-4.38111
 20
5.40348
 30
0.0
 10
-4.38111
 20
5.40348
 30
0.0
 10
-4.36786
 20
5.60556
 30
0.0
 10
-3.97898
 20
5.70864
 30
0.0
 10
-4.33645
 20
6.08937
 30
0.0
  0
SPLINE
  5
53
330
1F
100
AcDbEntity
  8
Kerf Pocket Cut 3mm
 62
     7
100
AcDbSpline
210
0.0
220
0.0
230
1.0
 70
    11
 71
     3
 72
    32
 73
    28
 74
     0
 42
0.0000000001
 43
0.0000000001
 40
0.0
 40
0.0
 40
0.0
 40
0.0
 40
0.125
 40
0.125
 40
0.125
 40
0.125
 40
0.25
 40
0.25
 40
0.25
 40
0.25
 40
0.375
 40
0.375
 40
0.375
 40
0.375
 40
0.5
 40
0.5
 40
0.5
 40
0.5
 40
0.625
 40
0.625
 40
0.625
 40
0.625
 40
0.75
 40
0.75
 40
0.75
 40
0.75
 40
1.0
 40
1.0
 40
1.0
 40
1.0
 10
-2.87135
 20
5.60712
 30
0.0
 10
-2.87027
 20
5.91536
 30
0.0
 10
-2.46551
 20
5.86253
 30
0.0
 10
-2.47584
 20
5.76346
 30
0.0
 10
-2.47584
 20
5.76346
 30
0.0
 10
-2.44841
 20
5.55267
 30
0.0
 10
-2.31145
 20
5.40571
 30
0.0
 10
-2.11586
 20
5.29307
 30
0.0
 10
-2.11586
 20
5.29307
 30
0.0
 10
-2.15276
 20
4.72001
 30
0.0
 10
-2.13935
 20
4.15534
 30
0.0
 10
-2.09218
 20
3.59636
 30
0.0
 10
-2.09218
 20
3.59636
 30
0.0
 10
-2.09218
 20
3.59636
 30
0.0
 10
-2.71237
 20
3.58584
 30
0.0
 10
-2.71237
 20
3.58584
 30
0.0
 10
-2.71237
 20
3.58584
 30
0.0
 10
-2.8416
 20
3.93091
 30
0.0
 10
-3.1111
 20
4.20874
 30
0.0
 10
-3.45087
 20
4.37852
 30
0.0
 10
-3.45087
 20
4.37852
 30
0.0
 10
-3.50515
 20
4.59837
 30
0.0
 10
-3.42293
 20
4.8179
 30
0.0
 10
-3.23283
 20
4.9102
 30
0.0
 10
-3.23283
 20
4.9102
 30
0.0
 10
-3.02026
 20
5.07433
 30
0.0
 10
-2.93673
 20
5.33769
 30
0.0
 10
-2.87135
 20
5.60712
 30
0.0
  0
SPLINE
  5
54
330
1F
100
AcDbEntity
  8
Kerf Pocket Cut 3mm
 62
     7
100
AcDbSpline
210
0.0
220
0.0
230
1.0
 70
    11
 71
     3
 72
    20
 73
    16
 74
     0
 42
0.0000000001
 43
0.0000000001
 40
0.0
 40
0.0
 40
0.0
 40
0.0
 40
0.2
 40
0.2
 40
0.2
 40
0.2
 40
0.4
 40
0.4
 40
0.4
 40
0.4
 40
0.6
 40
0.6
 40
0.6
 40
0.6
 40
1.0
 40
1.0
 40
1.0
 40
1.0
 10
-3.42216
 20
4.00761
 30
0.0
 10
-3.38326
 20
3.84952
 30
0.0
 10
-3.37865
 20
3.69139
 30
0.0
 10
-3.41692
 20
3.53327
 30
0.0
 10
-3.41692
 20
3.53327
 30
0.0
 10
-3.24573
 20
3.50756
 30
0.0
 10
-3.105
 20
3.39177
 30
0.0
 10
-2.9689
 20
3.23288
 30
0.0
 10
-2.9689
 20
3.23288
 30
0.0
 10
-2.94433
 20
3.36383
 30
0.0
 10
-2.92631
 20
3.50571
 30
0.0
 10
-2.96489
 20
3.64362
 30
0.0
 10
-2.96489
 20
3.64362
 30
0.0
 10
-3.04359
 20
3.88715
 30
0.0
 10
-3.19984
 20
4.02337
 30
0.0
 10
-3.42216
 20
4.00761
 30
0.0
  0
SPLINE
  5
55
330
1F
100
AcDbEntity
  8
Kerf Pocket Cut 3mm
 62
     7
100
AcDbSpline
210
0.0
220
0.0
230
1.0
 70
    11
 71
     3
 72
    24
 73
    20
 74
     0
 42
0.0000000001
 43
0.0000000001
 40
0.0
 40
0.0
 40
0.0
 40
0.0
 40
0.1666666666666667
 40
0.1666666666666667
 40
0.1666666666666667
 40
0.1666666666666667
 40
0.3333333333333333
 40
0.3333333333333333
 40
0.3333333333333333
 40
0.3333333333333333
 40
0.5
 40
0.5
 40
0.5
 40
0.5
 40
0.6666666666666666
 40
0.6666666666666666
 40
0.6666666666666666
 40
0.6666666666666666
 40
1.0
 40
1.0
 40
1.0
 40
1.0
 10
-2.7529
 20
3.17183
 30
0.0
 10
-2.77263
 20
2.96024
 30
0.0
 10
-2.54039
 20
2.94184
 30
0.0
 10
-2.55581
 20
3.17707
 30
0.0
 10
-2.55581
 20
3.17707
 30
0.0
 10
-1.6179
 20
3.1471
 30
0.0
 10
-0.76578
 20
3.43639
 30
0.0
 10
0.04594
 20
3.87612
 30
0.0
 10
0.04594
 20
3.87612
 30
0.0
 10
0.1793
 20
3.97678
 30
0.0
 10
0.06253
 20
4.1465
 30
0.0
 10
-0.08936
 20
4.09292
 30
0.0
 10
-0.08936
 20
4.09292
 30
0.0
 10
-0.92133
 20
3.60132
 30
0.0
 10
-1.8053
 20
3.41532
 30
0.0
 10
-2.74238
 20
3.40045
 30
0.0
 10
-2.74238
 20
3.40045
 30
0.0
 10
-2.74238
 20
3.40045
 30
0.0
 10
-2.7529
 20
3.17183
 30
0.0
 10
-2.7529
 20
3.17183
 30
0.0
  0
SPLINE
  5
56
330
1F
100
AcDbEntity
  8
Kerf Pocket Cut 3mm
 62
     7
100
AcDbSpline
210
0.0
220
0.0
230
1.0
 70
    11
 71
     3
 72
    60
 73
    56
 74
     0
 42
0.0000000001
 43
0.0000000001
 40
0.0
 40
0.0
 40
0.0
 40
0.0
 40
0.0666666666666667
 40
0.0666666666666667
 40
0.0666666666666667
 40
0.0666666666666667
 40
0.1333333333333333
 40
0.1333333333333333
 40
0.1333333333333333
 40
0.1333333333333333
 40
0.2
 40
0.2
 40
0.2
 40
0.2
 40
0.2666666666666667
 40
0.2666666666666667
 40
0.2666666666666667
 40
0.2666666666666667
 40
0.3333333333333333
 40
0.3333333333333333
 40
0.3333333333333333
 40
0.3333333333333333
 40
0.4
 40
0.4
 40
0.4
 40
0.4
 40
0.4666666666666667
 40
0.4666666666666667
 40
0.4666666666666667
 40
0.4666666666666667
 40
0.5333333333333333
 40
0.5333333333333333
 40
0.5333333333333333
 40
0.5333333333333333
 40
0.6
 40
0.6
 40
0.6
 40
0.6
 40
0.6666666666666666
 40
0.6666666666666666
 40
0.6666666666666666
 40
0.6666666666666666
 40
0.7333333333333333
 40
0.7333333333333333
 40
0.7333333333333333
 40
0.7333333333333333
 40
0.8
 40
0.8
 40
0.8
 40
0.8
 40
0.8666666666666667
 40
0.8666666666666667
 40
0.8666666666666667
 40
0.8666666666666667
 40
1.0
 40
1.0
 40
1.0
 40
1.0
 10
-3.07757
 20
1.59637
 30
0.0
 10
-3.07757
 20
1.59637
 30
0.0
 10
-2.76745
 20
1.59374
 30
0.0
 10
-2.76745
 20
1.59374
 30
0.0
 10
-2.76745
 20
1.59374
 30
0.0
 10
-2.76745
 20
1.59374
 30
0.0
 10
-2.76755
 20
1.87474
 30
0.0
 10
-2.76755
 20
1.87474
 30
0.0
 10
-2.76755
 20
1.87474
 30
0.0
 10
-2.76755
 20
1.87474
 30
0.0
 10
-2.35233
 20
1.87998
 30
0.0
 10
-2.35233
 20
1.87998
 30
0.0
 10
-2.35233
 20
1.87998
 30
0.0
 10
-2.35233
 20
1.87998
 30
0.0
 10
-2.35748
 20
1.51488
 30
0.0
 10
-2.35748
 20
1.51488
 30
0.0
 10
-2.35748
 20
1.51488
 30
0.0
 10
-2.35748
 20
1.51488
 30
0.0
 10
-1.53755
 20
1.45182
 30
0.0
 10
-1.53755
 20
1.45182
 30
0.0
 10
-1.53755
 20
1.45182
 30
0.0
 10
-1.53755
 20
1.45182
 30
0.0
 10
-1.53759
 20
1.67784
 30
0.0
 10
-1.53759
 20
1.67784
 30
0.0
 10
-1.53759
 20
1.67784
 30
0.0
 10
-1.53759
 20
1.67784
 30
0.0
 10
-1.08556
 20
1.66207
 30
0.0
 10
-1.08556
 20
1.66207
 30
0.0
 10
-1.08556
 20
1.66207
 30
0.0
 10
-1.08556
 20
1.66207
 30
0.0
 10
-1.0908
 20
1.38613
 30
0.0
 10
-1.0908
 20
1.38613
 30
0.0
 10
-1.0908
 20
1.38613
 30
0.0
 10
-1.0908
 20
1.38613
 30
0.0
 10
-0.86482
 20
1.37561
 30
0.0
 10
-0.86482
 20
1.37561
 30
0.0
 10
-0.86482
 20
1.37561
 30
0.0
 10
-0.86482
 20
1.37561
 30
0.0
 10
-0.26761
 20
2.33287
 30
0.0
 10
-0.26761
 20
2.33287
 30
0.0
 10
-0.26761
 20
2.33287
 30
0.0
 10
-1.04195
 20
2.32304
 30
0.0
 10
-1.85177
 20
2.34847
 30
0.0
 10
-2.52043
 20
2.66265
 30
0.0
 10
-2.52043
 20
2.66265
 30
0.0
 10
-2.64661
 20
2.72619
 30
0.0
 10
-2.74028
 20
2.7396
 30
0.0
 10
-2.83255
 20
2.68811
 30
0.0
 10
-2.83255
 20
2.68811
 30
0.0
 10
-2.95669
 20
2.61885
 30
0.0
 10
-3.04105
 20
2.52061
 30
0.0
 10
-3.08806
 20
2.39526
 30
0.0
 10
-3.08806
 20
2.39526
 30
0.0
 10
-3.08806
 20
2.39526
 30
0.0
 10
-3.07757
 20
1.59637
 30
0.0
 10
-3.07757
 20
1.59637
 30
0.0
  0
SPLINE
  5
57
330
1F
100
AcDbEntity
  8
Kerf Pocket Cut 3mm
 62
     7
100
AcDbSpline
210
0.0
220
0.0
230
1.0
 70
    11
 71
     3
 72
    32
 73
    28
 74
     0
 42
0.0000000001
 43
0.0000000001
 40
0.0
 40
0.0
 40
0.0
 40
0.0
 40
0.125
 40
0.125
 40
0.125
 40
0.125
 40
0.25
 40
0.25
 40
0.25
 40
0.25
 40
0.375
 40
0.375
 40
0.375
 40
0.375
 40
0.5
 40
0.5
 40
0.5
 40
0.5
 40
0.625
 40
0.625
 40
0.625
 40
0.625
 40
0.75
 40
0.75
 40
0.75
 40
0.75
 40
1.0
 40
1.0
 40
1.0
 40
1.0
 10
1.85173
 20
4.34506
 30
0.0
 10
2.10059
 20
4.1733
 30
0.0
 10
2.31952
 20
4.24818
 30
0.0
 10
2.55078
 20
4.46593
 30
0.0
 10
2.55078
 20
4.46593
 30
0.0
 10
3.02737
 20
4.91465
 30
0.0
 10
3.79135
 20
4.85966
 30
0.0
 10
3.78204
 20
4.37786
 30
0.0
 10
3.78204
 20
4.37786
 30
0.0
 10
3.28908
 20
4.44082
 30
0.0
 10
2.84929
 20
4.3381
 30
0.0
 10
2.48244
 20
3.96661
 30
0.0
 10
2.48244
 20
3.96661
 30
0.0
 10
2.14725
 20
4.05563
 30
0.0
 10
1.90636
 20
3.83823
 30
0.0
 10
1.68353
 20
3.56191
 30
0.0
 10
1.68353
 20
3.56191
 30
0.0
 10
1.68353
 20
3.56191
 30
0.0
 10
1.57317
 20
3.69858
 30
0.0
 10
1.57317
 20
3.69858
 30
0.0
 10
1.57317
 20
3.69858
 30
0.0
 10
1.57317
 20
3.69858
 30
0.0
 10
2.04093
 20
4.1138
 30
0.0
 10
2.04093
 20
4.1138
 30
0.0
 10
2.04093
 20
4.1138
 30
0.0
 10
1.92219
 20
4.16739
 30
0.0
 10
1.83723
 20
4.23527
 30
0.0
 10
1.85173
 20
4.34506
 30
0.0
  0
SPLINE
  5
58
330
1F
100
AcDbEntity
  8
Kerf Pocket Cut 3mm
 62
     7
100
AcDbSpline
210
0.0
220
0.0
230
1.0
 70
    11
 71
     3
 72
    52
 73
    48
 74
     0
 42
0.0000000001
 43
0.0000000001
 40
0.0
 40
0.0
 40
0.0
 40
0.0
 40
0.0769230769230769
 40
0.0769230769230769
 40
0.0769230769230769
 40
0.0769230769230769
 40
0.1538461538461539
 40
0.1538461538461539
 40
0.1538461538461539
 40
0.1538461538461539
 40
0.2307692307692308
 40
0.2307692307692308
 40
0.2307692307692308
 40
0.2307692307692308
 40
0.3076923076923077
 40
0.3076923076923077
 40
0.3076923076923077
 40
0.3076923076923077
 40
0.3846153846153846
 40
0.3846153846153846
 40
0.3846153846153846
 40
0.3846153846153846
 40
0.4615384615384616
 40
0.4615384615384616
 40
0.4615384615384616
 40
0.4615384615384616
 40
0.5384615384615384
 40
0.5384615384615384
 40
0.5384615384615384
 40
0.5384615384615384
 40
0.6153846153846154
 40
0.6153846153846154
 40
0.6153846153846154
 40
0.6153846153846154
 40
0.6923076923076923
 40
0.6923076923076923
 40
0.6923076923076923
 40
0.6923076923076923
 40
0.7692307692307693
 40
0.7692307692307693
 40
0.7692307692307693
 40
0.7692307692307693
 40
0.8461538461538461
 40
0.8461538461538461
 40
0.8461538461538461
 40
0.8461538461538461
 40
1.0
 40
1.0
 40
1.0
 40
1.0
 10
-0.04328
 20
2.34339
 30
0.0
 10
-0.04328
 20
2.34339
 30
0.0
 10
0.27208
 20
2.34339
 30
0.0
 10
0.27208
 20
2.34339
 30
0.0
 10
0.27208
 20
2.34339
 30
0.0
 10
0.27208
 20
2.34339
 30
0.0
 10
0.47705
 20
2.72708
 30
0.0
 10
0.47705
 20
2.72708
 30
0.0
 10
0.47705
 20
2.72708
 30
0.0
 10
0.47705
 20
2.72708
 30
0.0
 10
0.4823
 20
2.34339
 30
0.0
 10
0.4823
 20
2.34339
 30
0.0
 10
0.4823
 20
2.34339
 30
0.0
 10
0.4823
 20
2.34339
 30
0.0
 10
0.82921
 20
2.34339
 30
0.0
 10
0.82921
 20
2.34339
 30
0.0
 10
0.82921
 20
2.34339
 30
0.0
 10
0.82921
 20
2.34339
 30
0.0
 10
0.78716
 20
3.24213
 30
0.0
 10
0.78716
 20
3.24213
 30
0.0
 10
0.78716
 20
3.24213
 30
0.0
 10
0.78062
 20
3.38293
 30
0.0
 10
0.79819
 20
3.49128
 30
0.0
 10
0.88439
 20
3.6024
 30
0.0
 10
0.88439
 20
3.6024
 30
0.0
 10
0.88439
 20
3.6024
 30
0.0
 10
1.42837
 20
4.30383
 30
0.0
 10
1.42837
 20
4.30383
 30
0.0
 10
1.42837
 20
4.30383
 30
0.0
 10
1.42837
 20
4.30383
 30
0.0
 10
1.33902
 20
4.39845
 30
0.0
 10
1.33902
 20
4.39845
 30
0.0
 10
1.33902
 20
4.39845
 30
0.0
 10
1.33902
 20
4.39845
 30
0.0
 10
0.79241
 20
3.77298
 30
0.0
 10
0.79241
 20
3.77298
 30
0.0
 10
0.79241
 20
3.77298
 30
0.0
 10
0.79241
 20
3.77298
 30
0.0
 10
0.33514
 20
3.77298
 30
0.0
 10
0.33514
 20
3.77298
 30
0.0
 10
0.33514
 20
3.77298
 30
0.0
 10
0.33514
 20
3.77298
 30
0.0
 10
0.33514
 20
3.06869
 30
0.0
 10
0.33514
 20
3.06869
 30
0.0
 10
0.33514
 20
3.06869
 30
0.0
 10
0.33514
 20
3.06869
 30
0.0
 10
-0.04328
 20
2.34339
 30
0.0
 10
-0.04328
 20
2.34339
 30
0.0
  0
SPLINE
  5
59
330
1F
100
AcDbEntity
  8
Kerf Pocket Cut 3mm
 62
     7
100
AcDbSpline
210
0.0
220
0.0
230
1.0
 70
    11
 71
     3
 72
    44
 73
    40
 74
     0
 42
0.0000000001
 43
0.0000000001
 40
0.0
 40
0.0
 40
0.0
 40
0.0
 40
0.0909090909090909
 40
0.0909090909090909
 40
0.0909090909090909
 40
0.0909090909090909
 40
0.1818181818181818
 40
0.1818181818181818
 40
0.1818181818181818
 40
0.1818181818181818
 40
0.2727272727272727
 40
0.2727272727272727
 40
0.2727272727272727
 40
0.2727272727272727
 40
0.3636363636363636
 40
0.3636363636363636
 40
0.3636363636363636
 40
0.3636363636363636
 40
0.4545454545454545
 40
0.4545454545454545
 40
0.4545454545454545
 40
0.4545454545454545
 40
0.5454545454545454
 40
0.5454545454545454
 40
0.5454545454545454
 40
0.5454545454545454
 40
0.6363636363636364
 40
0.6363636363636364
 40
0.6363636363636364
 40
0.6363636363636364
 40
0.7272727272727273
 40
0.7272727272727273
 40
0.7272727272727273
 40
0.7272727272727273
 40
0.8181818181818182
 40
0.8181818181818182
 40
0.8181818181818182
 40
0.8181818181818182
 40
1.0
 40
1.0
 40
1.0
 40
1.0
 10
1.46041
 20
3.00744
 30
0.0
 10
1.82376
 20
3.0431
 30
0.0
 10
2.2981
 20
2.85612
 30
0.0
 10
2.40645
 20
2.39774
 30
0.0
 10
2.40645
 20
2.39774
 30
0.0
 10
2.61081
 20
2.91787
 30
0.0
 10
3.26203
 20
3.05232
 30
0.0
 10
3.53124
 20
2.41878
 30
0.0
 10
3.53124
 20
2.41878
 30
0.0
 10
3.58339
 20
2.90837
 30
0.0
 10
4.00189
 20
3.14046
 30
0.0
 10
4.47979
 20
2.9318
 30
0.0
 10
4.47979
 20
2.9318
 30
0.0
 10
4.47979
 20
2.9318
 30
0.0
 10
4.65314
 20
3.05353
 30
0.0
 10
4.65314
 20
3.05353
 30
0.0
 10
4.65314
 20
3.05353
 30
0.0
 10
4.37589
 20
3.26441
 30
0.0
 10
4.30488
 20
3.49449
 30
0.0
 10
4.23102
 20
3.74759
 30
0.0
 10
4.23102
 20
3.74759
 30
0.0
 10
4.23102
 20
3.74759
 30
0.0
 10
4.10878
 20
3.69349
 30
0.0
 10
4.10878
 20
3.69349
 30
0.0
 10
4.10878
 20
3.69349
 30
0.0
 10
4.10878
 20
3.69349
 30
0.0
 10
4.16195
 20
3.35957
 30
0.0
 10
4.16195
 20
3.35957
 30
0.0
 10
4.16195
 20
3.35957
 30
0.0
 10
3.76892
 20
3.38246
 30
0.0
 10
3.55813
 20
3.19821
 30
0.0
 10
3.47342
 20
2.87077
 30
0.0
 10
3.47342
 20
2.87077
 30
0.0
 10
3.19694
 20
3.35522
 30
0.0
 10
2.60061
 20
3.29213
 30
0.0
 10
2.39596
 20
2.83397
 30
0.0
 10
2.39596
 20
2.83397
 30
0.0
 10
2.31211
 20
3.27528
 30
0.0
 10
1.5303
 20
3.30719
 30
0.0
 10
1.46041
 20
3.00744
 30
0.0
  0
SPLINE
  5
5A
330
1F
100
AcDbEntity
  8
Kerf Pocket Cut 3mm
 62
     7
100
AcDbSpline
210
0.0
220
0.0
230
1.0
 70
    11
 71
     3
 72
    44
 73
    40
 74
     0
 42
0.0000000001
 43
0.0000000001
 40
0.0
 40
0.0
 40
0.0
 40
0.0
 40
0.0909090909090909
 40
0.0909090909090909
 40
0.0909090909090909
 40
0.0909090909090909
 40
0.1818181818181818
 40
0.1818181818181818
 40
0.1818181818181818
 40
0.1818181818181818
 40
0.2727272727272727
 40
0.2727272727272727
 40
0.2727272727272727
 40
0.2727272727272727
 40
0.3636363636363636
 40
0.3636363636363636
 40
0.3636363636363636
 40
0.3636363636363636
 40
0.4545454545454545
 40
0.4545454545454545
 40
0.4545454545454545
 40
0.4545454545454545
 40
0.5454545454545454
 40
0.5454545454545454
 40
0.5454545454545454
 40
0.5454545454545454
 40
0.6363636363636364
 40
0.6363636363636364
 40
0.6363636363636364
 40
0.6363636363636364
 40
0.7272727272727273
 40
0.7272727272727273
 40
0.7272727272727273
 40
0.7272727272727273
 40
0.8181818181818182
 40
0.8181818181818182
 40
0.8181818181818182
 40
0.8181818181818182
 40
1.0
 40
1.0
 40
1.0
 40
1.0
 10
1.47935
 20
0.77639
 30
0.0
 10
1.47935
 20
0.77639
 30
0.0
 10
1.69484
 20
0.56614
 30
0.0
 10
1.69484
 20
0.56614
 30
0.0
 10
1.69484
 20
0.56614
 30
0.0
 10
2.14893
 20
1.02767
 30
0.0
 10
2.57112
 20
1.27536
 30
0.0
 10
2.87742
 20
0.94456
 30
0.0
 10
2.87742
 20
0.94456
 30
0.0
 10
2.9666
 20
0.84822
 30
0.0
 10
3.10702
 20
0.86354
 30
0.0
 10
3.21381
 20
0.95508
 30
0.0
 10
3.21381
 20
0.95508
 30
0.0
 10
3.21381
 20
0.95508
 30
0.0
 10
5.01658
 20
2.50033
 30
0.0
 10
5.01658
 20
2.50033
 30
0.0
 10
5.01658
 20
2.50033
 30
0.0
 10
5.33083
 20
2.7697
 30
0.0
 10
5.64069
 20
2.86238
 30
0.0
 10
6.01519
 20
2.71583
 30
0.0
 10
6.01519
 20
2.71583
 30
0.0
 10
5.72091
 20
3.11106
 30
0.0
 10
5.22337
 20
3.1287
 30
0.0
 10
4.83262
 20
2.79465
 30
0.0
 10
4.83262
 20
2.79465
 30
0.0
 10
4.83262
 20
2.79465
 30
0.0
 10
3.27811
 20
1.46562
 30
0.0
 10
3.27811
 20
1.46562
 30
0.0
 10
3.27811
 20
1.46562
 30
0.0
 10
3.13022
 20
1.33921
 30
0.0
 10
3.17761
 20
1.32129
 30
0.0
 10
3.0438
 20
1.40475
 30
0.0
 10
3.0438
 20
1.40475
 30
0.0
 10
2.78203
 20
1.56825
 30
0.0
 10
2.41573
 20
1.49775
 30
0.0
 10
2.18889
 20
1.323
 30
0.0
 10
2.18889
 20
1.323
 30
0.0
 10
2.18889
 20
1.323
 30
0.0
 10
1.47935
 20
0.77639
 30
0.0
 10
1.47935
 20
0.77639
 30
0.0
  0
SPLINE
  5
5B
330
1F
100
AcDbEntity
  8
Kerf Pocket Cut 3mm
 62
     7
100
AcDbSpline
210
0.0
220
0.0
230
1.0
 70
    11
 71
     3
 72
    12
 73
     8
 74
     0
 42
0.0000000001
 43
0.0000000001
 40
0.0
 40
0.0
 40
0.0
 40
0.0
 40
0.3333333333333333
 40
0.3333333333333333
 40
0.3333333333333333
 40
0.3333333333333333
 40
1.0
 40
1.0
 40
1.0
 40
1.0
 10
2.09967
 20
-0.85948
 30
0.0
 10
2.78642
 20
0.71727
 30
0.0
 10
4.35621
 20
1.8215
 30
0.0
 10
5.32679
 20
1.63054
 30
0.0
 10
5.32679
 20
1.63054
 30
0.0
 10
4.15804
 20
1.35679
 30
0.0
 10
3.11417
 20
0.45153
 30
0.0
 10
2.09967
 20
-0.85948
 30
0.0
  0
SPLINE
  5
5C
330
1F
100
AcDbEntity
  8
Kerf Pocket Cut 3mm
 62
     7
100
AcDbSpline
210
0.0
220
0.0
230
1.0
 70
    11
 71
     3
 72
   108
 73
   104
 74
     0
 42
0.0000000001
 43
0.0000000001
 40
0.0
 40
0.0
 40
0.0
 40
0.0
 40
0.037037037037037
 40
0.037037037037037
 40
0.037037037037037
 40
0.037037037037037
 40
0.0740740740740741
 40
0.0740740740740741
 40
0.0740740740740741
 40
0.0740740740740741
 40
0.1111111111111111
 40
0.1111111111111111
 40
0.1111111111111111
 40
0.1111111111111111
 40
0.1481481481481481
 40
0.1481481481481481
 40
0.1481481481481481
 40
0.1481481481481481
 40
0.1851851851851852
 40
0.1851851851851852
 40
0.1851851851851852
 40
0.1851851851851852
 40
0.2222222222222222
 40
0.2222222222222222
 40
0.2222222222222222
 40
0.2222222222222222
 40
0.2592592592592592
 40
0.2592592592592592
 40
0.2592592592592592
 40
0.2592592592592592
 40
0.2962962962962963
 40
0.2962962962962963
 40
0.2962962962962963
 40
0.2962962962962963
 40
0.3333333333333333
 40
0.3333333333333333
 40
0.3333333333333333
 40
0.3333333333333333
 40
0.3703703703703703
 40
0.3703703703703703
 40
0.3703703703703703
 40
0.3703703703703703
 40
0.4074074074074074
 40
0.4074074074074074
 40
0.4074074074074074
 40
0.4074074074074074
 40
0.4444444444444444
 40
0.4444444444444444
 40
0.4444444444444444
 40
0.4444444444444444
 40
0.4814814814814815
 40
0.4814814814814815
 40
0.4814814814814815
 40
0.4814814814814815
 40
0.5185185185185185
 40
0.5185185185185185
 40
0.5185185185185185
 40
0.5185185185185185
 40
0.5555555555555556
 40
0.5555555555555556
 40
0.5555555555555556
 40
0.5555555555555556
 40
0.5925925925925926
 40
0.5925925925925926
 40
0.5925925925925926
 40
0.5925925925925926
 40
0.6296296296296297
 40
0.6296296296296297
 40
0.6296296296296297
 40
0.6296296296296297
 40
0.6666666666666666
 40
0.6666666666666666
 40
0.6666666666666666
 40
0.6666666666666666
 40
0.7037037037037037
 40
0.7037037037037037
 40
0.7037037037037037
 40
0.7037037037037037
 40
0.7407407407407407
 40
0.7407407407407407
 40
0.7407407407407407
 40
0.7407407407407407
 40
0.7777777777777778
 40
0.7777777777777778
 40
0.7777777777777778
 40
0.7777777777777778
 40
0.8148148148148148
 40
0.8148148148148148
 40
0.8148148148148148
 40
0.8148148148148148
 40
0.8518518518518519
 40
0.8518518518518519
 40
0.8518518518518519
 40
0.8518518518518519
 40
0.8888888888888888
 40
0.8888888888888888
 40
0.8888888888888888
 40
0.8888888888888888
 40
0.9259259259259259
 40
0.9259259259259259
 40
0.9259259259259259
 40
0.9259259259259259
 40
1.0
 40
1.0
 40
1.0
 40
1.0
 10
1.55321
 20
2.09557
 30
0.0
 10
1.55321
 20
2.09557
 30
0.0
 10
1.58474
 20
1.88532
 30
0.0
 10
1.58474
 20
1.88532
 30
0.0
 10
1.58474
 20
1.88532
 30
0.0
 10
1.58474
 20
1.88532
 30
0.0
 10
0.84892
 20
1.82226
 30
0.0
 10
0.84892
 20
1.82226
 30
0.0
 10
0.84892
 20
1.82226
 30
0.0
 10
0.84892
 20
1.82226
 30
0.0
 10
1.13275
 20
-1.16311
 30
0.0
 10
1.13275
 20
-1.16311
 30
0.0
 10
1.13275
 20
-1.16311
 30
0.0
 10
1.13275
 20
-1.16311
 30
0.0
 10
2.01573
 20
-1.62563
 30
0.0
 10
2.01573
 20
-1.62563
 30
0.0
 10
2.01573
 20
-1.62563
 30
0.0
 10
2.30642
 20
-1.77787
 30
0.0
 10
2.48743
 20
-1.72629
 30
0.0
 10
2.61491
 20
-1.41538
 30
0.0
 10
2.61491
 20
-1.41538
 30
0.0
 10
3.08833
 20
-0.1837
 30
0.0
 10
3.88617
 20
0.64887
 30
0.0
 10
4.93801
 20
1.12846
 30
0.0
 10
4.93801
 20
1.12846
 30
0.0
 10
5.58516
 20
1.4235
 30
0.0
 10
6.15119
 20
1.08348
 30
0.0
 10
6.13635
 20
0.60288
 30
0.0
 10
6.13635
 20
0.60288
 30
0.0
 10
5.19638
 20
0.96566
 30
0.0
 10
4.31868
 20
0.30682
 30
0.0
 10
3.47686
 20
-0.94234
 30
0.0
 10
3.47686
 20
-0.94234
 30
0.0
 10
3.47686
 20
-0.94234
 30
0.0
 10
2.81461
 20
-2.05661
 30
0.0
 10
2.81461
 20
-2.05661
 30
0.0
 10
2.81461
 20
-2.05661
 30
0.0
 10
2.63138
 20
-2.44495
 30
0.0
 10
2.27702
 20
-2.43656
 30
0.0
 10
1.93163
 20
-2.17224
 30
0.0
 10
1.93163
 20
-2.17224
 30
0.0
 10
1.93163
 20
-2.17224
 30
0.0
 10
1.23786
 20
-1.65716
 30
0.0
 10
1.23786
 20
-1.65716
 30
0.0
 10
1.23786
 20
-1.65716
 30
0.0
 10
1.23786
 20
-1.65716
 30
0.0
 10
1.32196
 20
-2.89755
 30
0.0
 10
1.32196
 20
-2.89755
 30
0.0
 10
1.32196
 20
-2.89755
 30
0.0
 10
1.32196
 20
-2.89755
 30
0.0
 10
0.83119
 20
-2.47451
 30
0.0
 10
0.83119
 20
-2.47451
 30
0.0
 10
0.83119
 20
-2.47451
 30
0.0
 10
0.83119
 20
-2.47451
 30
0.0
 10
0.78914
 20
-1.25516
 30
0.0
 10
0.78914
 20
-1.25516
 30
0.0
 10
0.78914
 20
-1.25516
 30
0.0
 10
0.78914
 20
-1.25516
 30
0.0
 10
0.23922
 20
-1.23669
 30
0.0
 10
0.23922
 20
-1.23669
 30
0.0
 10
0.23922
 20
-1.23669
 30
0.0
 10
0.23922
 20
-1.23669
 30
0.0
 10
0.15515
 20
-0.18287
 30
0.0
 10
0.15515
 20
-0.18287
 30
0.0
 10
0.15515
 20
-0.18287
 30
0.0
 10
0.15515
 20
-0.18287
 30
0.0
 10
0.52698
 20
0.05627
 30
0.0
 10
0.52698
 20
0.05627
 30
0.0
 10
0.52698
 20
0.05627
 30
0.0
 10
0.52698
 20
0.05627
 30
0.0
 10
0.53356
 20
-0.69008
 30
0.0
 10
0.53356
 20
-0.69008
 30
0.0
 10
0.53356
 20
-0.69008
 30
0.0
 10
0.53356
 20
-0.69008
 30
0.0
 10
0.74381
 20
-0.7006
 30
0.0
 10
0.74381
 20
-0.7006
 30
0.0
 10
0.74381
 20
-0.7006
 30
0.0
 10
0.74381
 20
-0.7006
 30
0.0
 10
0.58613
 20
1.7907
 30
0.0
 10
0.58613
 20
1.7907
 30
0.0
 10
0.58613
 20
1.7907
 30
0.0
 10
0.58613
 20
1.7907
 30
0.0
 10
-0.08663
 20
1.76969
 30
0.0
 10
-0.08663
 20
1.76969
 30
0.0
 10
-0.08663
 20
1.76969
 30
0.0
 10
-0.08663
 20
1.76969
 30
0.0
 10
-1.96746
 20
-1.51461
 30
0.0
 10
-1.96746
 20
-1.51461
 30
0.0
 10
-1.96746
 20
-1.51461
 30
0.0
 10
-1.96746
 20
-1.51461
 30
0.0
 10
-2.20975
 20
-1.65086
 30
0.0
 10
-2.20975
 20
-1.65086
 30
0.0
 10
-2.20975
 20
-1.65086
 30
0.0
 10
-2.20975
 20
-1.65086
 30
0.0
 10
-2.19293
 20
-1.36945
 30
0.0
 10
-2.19293
 20
-1.36945
 30
0.0
 10
-2.19293
 20
-1.36945
 30
0.0
 10
-2.19293
 20
-1.36945
 30
0.0
 10
-0.28636
 20
1.9589
 30
0.0
 10
-0.28636
 20
1.9589
 30
0.0
 10
-0.28636
 20
1.9589
 30
0.0
 10
-0.28636
 20
1.9589
 30
0.0
 10
1.55321
 20
2.09557
 30
0.0
 10
1.55321
 20
2.09557
 30
0.0
  0
SPLINE
  5
5D
330
1F
100
AcDbEntity
  8
Kerf Pocket Cut 3mm
 62
     7
100
AcDbSpline
210
0.0
220
0.0
230
1.0
 70
    11
 71
     3
 72
    20
 73
    16
 74
     0
 42
0.0000000001
 43
0.0000000001
 40
0.0
 40
0.0
 40
0.0
 40
0.0
 40
0.2
 40
0.2
 40
0.2
 40
0.2
 40
0.4
 40
0.4
 40
0.4
 40
0.4
 40
0.6
 40
0.6
 40
0.6
 40
0.6
 40
1.0
 40
1.0
 40
1.0
 40
1.0
 10
0.23171
 20
-3.77783
 30
0.0
 10
0.23171
 20
-3.77783
 30
0.0
 10
0.87428
 20
-3.75291
 30
0.0
 10
0.87428
 20
-3.75291
 30
0.0
 10
0.87428
 20
-3.75291
 30
0.0
 10
0.87428
 20
-3.75291
 30
0.0
 10
0.86767
 20
-2.92637
 30
0.0
 10
0.86767
 20
-2.92637
 30
0.0
 10
0.86767
 20
-2.92637
 30
0.0
 10
0.86767
 20
-2.92637
 30
0.0
 10
0.20543
 20
-2.71612
 30
0.0
 10
0.20543
 20
-2.71612
 30
0.0
 10
0.20543
 20
-2.71612
 30
0.0
 10
0.20543
 20
-2.71612
 30
0.0
 10
0.23171
 20
-3.77783
 30
0.0
 10
0.23171
 20
-3.77783
 30
0.0
  0
SPLINE
  5
5E
330
1F
100
AcDbEntity
  8
Kerf Pocket Cut 3mm
 62
     7
100
AcDbSpline
210
0.0
220
0.0
230
1.0
 70
    11
 71
     3
 72
    16
 73
    12
 74
     0
 42
0.0000000001
 43
0.0000000001
 40
0.0
 40
0.0
 40
0.0
 40
0.0
 40
0.25
 40
0.25
 40
0.25
 40
0.25
 40
0.5
 40
0.5
 40
0.5
 40
0.5
 40
1.0
 40
1.0
 40
1.0
 40
1.0
 10
0.90194
 20
-4.02323
 30
0.0
 10
0.90194
 20
-4.02323
 30
0.0
 10
1.5146
 20
-4.04722
 30
0.0
 10
1.5146
 20
-4.04722
 30
0.0
 10
1.5146
 20
-4.04722
 30
0.0
 10
1.5146
 20
-4.04722
 30
0.0
 10
1.25314
 20
-5.80403
 30
0.0
 10
1.25314
 20
-5.80403
 30
0.0
 10
1.25314
 20
-5.80403
 30
0.0
 10
1.25314
 20
-5.80403
 30
0.0
 10
0.90194
 20
-4.02323
 30
0.0
 10
0.90194
 20
-4.02323
 30
0.0
  0
SPLINE
  5
5F
330
1F
100
AcDbEntity
  8
Kerf Pocket Cut 3mm
 62
     7
100
AcDbSpline
210
0.0
220
0.0
230
1.0
 70
    11
 71
     3
 72
    44
 73
    40
 74
     0
 42
0.0000000001
 43
0.0000000001
 40
0.0
 40
0.0
 40
0.0
 40
0.0
 40
0.0909090909090909
 40
0.0909090909090909
 40
0.0909090909090909
 40
0.0909090909090909
 40
0.1818181818181818
 40
0.1818181818181818
 40
0.1818181818181818
 40
0.1818181818181818
 40
0.2727272727272727
 40
0.2727272727272727
 40
0.2727272727272727
 40
0.2727272727272727
 40
0.3636363636363636
 40
0.3636363636363636
 40
0.3636363636363636
 40
0.3636363636363636
 40
0.4545454545454545
 40
0.4545454545454545
 40
0.4545454545454545
 40
0.4545454545454545
 40
0.5454545454545454
 40
0.5454545454545454
 40
0.5454545454545454
 40
0.5454545454545454
 40
0.6363636363636364
 40
0.6363636363636364
 40
0.6363636363636364
 40
0.6363636363636364
 40
0.7272727272727273
 40
0.7272727272727273
 40
0.7272727272727273
 40
0.7272727272727273
 40
0.8181818181818182
 40
0.8181818181818182
 40
0.8181818181818182
 40
0.8181818181818182
 40
1.0
 40
1.0
 40
1.0
 40
1.0
 10
1.49619
 20
-3.26935
 30
0.0
 10
1.49619
 20
-3.26935
 30
0.0
 10
1.50144
 20
-3.74239
 30
0.0
 10
1.50144
 20
-3.74239
 30
0.0
 10
1.50144
 20
-3.74239
 30
0.0
 10
1.50144
 20
-3.74239
 30
0.0
 10
2.17026
 20
-3.74502
 30
0.0
 10
2.17026
 20
-3.74502
 30
0.0
 10
2.17026
 20
-3.74502
 30
0.0
 10
1.7517
 20
-3.99446
 30
0.0
 10
1.66293
 20
-4.36531
 30
0.0
 10
1.60919
 20
-4.76204
 30
0.0
 10
1.60919
 20
-4.76204
 30
0.0
 10
1.60919
 20
-4.76204
 30
0.0
 10
1.96141
 20
-4.82424
 30
0.0
 10
1.96141
 20
-4.82424
 30
0.0
 10
1.96141
 20
-4.82424
 30
0.0
 10
1.97797
 20
-4.55049
 30
0.0
 10
2.02034
 20
-4.35912
 30
0.0
 10
2.16371
 20
-4.16285
 30
0.0
 10
2.16371
 20
-4.16285
 30
0.0
 10
2.14518
 20
-4.34519
 30
0.0
 10
2.16038
 20
-4.52013
 30
0.0
 10
2.2399
 20
-4.68846
 30
0.0
 10
2.2399
 20
-4.68846
 30
0.0
 10
2.2399
 20
-4.68846
 30
0.0
 10
2.61971
 20
-4.6754
 30
0.0
 10
2.61971
 20
-4.6754
 30
0.0
 10
2.61971
 20
-4.6754
 30
0.0
 10
2.71243
 20
-4.67222
 30
0.0
 10
2.78791
 20
-4.74564
 30
0.0
 10
2.85034
 20
-4.79039
 30
0.0
 10
2.85034
 20
-4.79039
 30
0.0
 10
2.54003
 20
-4.24778
 30
0.0
 10
2.45905
 20
-3.85048
 30
0.0
 10
2.55526
 20
-3.44807
 30
0.0
 10
2.55526
 20
-3.44807
 30
0.0
 10
2.14525
 20
-3.62498
 30
0.0
 10
1.8291
 20
-3.49241
 30
0.0
 10
1.49619
 20
-3.26935
 30
0.0
  0
SPLINE
  5
60
330
1F
100
AcDbEntity
  8
Kerf Pocket Cut 3mm
 62
     7
100
AcDbSpline
210
0.0
220
0.0
230
1.0
 70
    11
 71
     3
 72
    56
 73
    52
 74
     0
 42
0.0000000001
 43
0.0000000001
 40
0.0
 40
0.0
 40
0.0
 40
0.0
 40
0.0714285714285714
 40
0.0714285714285714
 40
0.0714285714285714
 40
0.0714285714285714
 40
0.1428571428571428
 40
0.1428571428571428
 40
0.1428571428571428
 40
0.1428571428571428
 40
0.2142857142857143
 40
0.2142857142857143
 40
0.2142857142857143
 40
0.2142857142857143
 40
0.2857142857142857
 40
0.2857142857142857
 40
0.2857142857142857
 40
0.2857142857142857
 40
0.3571428571428572
 40
0.3571428571428572
 40
0.3571428571428572
 40
0.3571428571428572
 40
0.4285714285714285
 40
0.4285714285714285
 40
0.4285714285714285
 40
0.4285714285714285
 40
0.5
 40
0.5
 40
0.5
 40
0.5
 40
0.5714285714285714
 40
0.5714285714285714
 40
0.5714285714285714
 40
0.5714285714285714
 40
0.6428571428571429
 40
0.6428571428571429
 40
0.6428571428571429
 40
0.6428571428571429
 40
0.7142857142857143
 40
0.7142857142857143
 40
0.7142857142857143
 40
0.7142857142857143
 40
0.7857142857142857
 40
0.7857142857142857
 40
0.7857142857142857
 40
0.7857142857142857
 40
0.8571428571428571
 40
0.8571428571428571
 40
0.8571428571428571
 40
0.8571428571428571
 40
1.0
 40
1.0
 40
1.0
 40
1.0
 10
-1.61403
 20
-1.51683
 30
0.0
 10
-1.56387
 20
-1.44913
 30
0.0
 10
-1.6611
 20
-1.37562
 30
0.0
 10
-1.70861
 20
-1.43801
 30
0.0
 10
-1.70861
 20
-1.43801
 30
0.0
 10
-1.70861
 20
-1.43801
 30
0.0
 10
-2.06602
 20
-1.96358
 30
0.0
 10
-2.06602
 20
-1.96358
 30
0.0
 10
-2.06602
 20
-1.96358
 30
0.0
 10
-2.11567
 20
-2.03878
 30
0.0
 10
-2.07908
 20
-2.15651
 30
0.0
 10
-1.96616
 20
-2.08052
 30
0.0
 10
-1.96616
 20
-2.08052
 30
0.0
 10
-1.96616
 20
-2.08052
 30
0.0
 10
-1.72441
 20
-1.82695
 30
0.0
 10
-1.72441
 20
-1.82695
 30
0.0
 10
-1.72441
 20
-1.82695
 30
0.0
 10
-1.72441
 20
-1.82695
 30
0.0
 10
-1.819
 20
-2.11074
 30
0.0
 10
-1.819
 20
-2.11074
 30
0.0
 10
-1.819
 20
-2.11074
 30
0.0
 10
-1.8756
 20
-2.20978
 30
0.0
 10
-1.8088
 20
-2.29861
 30
0.0
 10
-1.72441
 20
-2.21588
 30
0.0
 10
-1.72441
 20
-2.21588
 30
0.0
 10
-1.72441
 20
-2.21588
 30
0.0
 10
-1.40378
 20
-1.87948
 30
0.0
 10
-1.40378
 20
-1.87948
 30
0.0
 10
-1.40378
 20
-1.87948
 30
0.0
 10
-1.34224
 20
-1.81506
 30
0.0
 10
-1.43769
 20
-1.72095
 30
0.0
 10
-1.49442
 20
-1.79014
 30
0.0
 10
-1.49442
 20
-1.79014
 30
0.0
 10
-1.49442
 20
-1.79014
 30
0.0
 10
-1.61673
 20
-1.89007
 30
0.0
 10
-1.61673
 20
-1.89007
 30
0.0
 10
-1.61673
 20
-1.89007
 30
0.0
 10
-1.61673
 20
-1.89007
 30
0.0
 10
-1.56673
 20
-1.74809
 30
0.0
 10
-1.56673
 20
-1.74809
 30
0.0
 10
-1.56673
 20
-1.74809
 30
0.0
 10
-1.54207
 20
-1.6713
 30
0.0
 10
-1.60144
 20
-1.6468
 30
0.0
 10
-1.67184
 20
-1.67976
 30
0.0
 10
-1.67184
 20
-1.67976
 30
0.0
 10
-1.67184
 20
-1.67976
 30
0.0
 10
-1.77107
 20
-1.72625
 30
0.0
 10
-1.77107
 20
-1.72625
 30
0.0
 10
-1.77107
 20
-1.72625
 30
0.0
 10
-1.77107
 20
-1.72625
 30
0.0
 10
-1.61403
 20
-1.51683
 30
0.0
 10
-1.61403
 20
-1.51683
 30
0.0
  0
SPLINE
  5
61
330
1F
100
AcDbEntity
  8
Kerf Pocket Cut 3mm
 62
     7
100
AcDbSpline
210
0.0
220
0.0
230
1.0
 70
    11
 71
     3
 72
    28
 73
    24
 74
     0
 42
0.0000000001
 43
0.0000000001
 40
0.0
 40
0.0
 40
0.0
 40
0.0
 40
0.1428571428571428
 40
0.1428571428571428
 40
0.1428571428571428
 40
0.1428571428571428
 40
0.2857142857142857
 40
0.2857142857142857
 40
0.2857142857142857
 40
0.2857142857142857
 40
0.4285714285714285
 40
0.4285714285714285
 40
0.4285714285714285
 40
0.4285714285714285
 40
0.5714285714285714
 40
0.5714285714285714
 40
0.5714285714285714
 40
0.5714285714285714
 40
0.7142857142857143
 40
0.7142857142857143
 40
0.7142857142857143
 40
0.7142857142857143
 40
1.0
 40
1.0
 40
1.0
 40
1.0
 10
-2.78923
 20
-2.93219
 30
0.0
 10
-2.66088
 20
-2.78843
 30
0.0
 10
-2.51255
 20
-2.86131
 30
0.0
 10
-2.63558
 20
-3.05036
 30
0.0
 10
-2.63558
 20
-3.05036
 30
0.0
 10
-2.63558
 20
-3.05036
 30
0.0
 10
-3.57682
 20
-4.41509
 30
0.0
 10
-3.57682
 20
-4.41509
 30
0.0
 10
-3.57682
 20
-4.41509
 30
0.0
 10
-3.57682
 20
-4.41509
 30
0.0
 10
-3.24526
 20
-4.45895
 30
0.0
 10
-3.24526
 20
-4.45895
 30
0.0
 10
-3.24526
 20
-4.45895
 30
0.0
 10
-5.22283
 20
-7.33219
 30
0.0
 10
-5.3288
 20
-6.89081
 30
0.0
 10
-3.91802
 20
-4.01747
 30
0.0
 10
-3.91802
 20
-4.01747
 30
0.0
 10
-3.91802
 20
-4.01747
 30
0.0
 10
-3.72484
 20
-4.22111
 30
0.0
 10
-3.72484
 20
-4.22111
 30
0.0
 10
-3.72484
 20
-4.22111
 30
0.0
 10
-3.72484
 20
-4.22111
 30
0.0
 10
-2.78923
 20
-2.93219
 30
0.0
 10
-2.78923
 20
-2.93219
 30
0.0
  0
SPLINE
  5
62
330
1F
100
AcDbEntity
  8
Kerf Pocket Cut 3mm
 62
     7
100
AcDbSpline
210
0.0
220
0.0
230
1.0
 70
    11
 71
     3
 72
    28
 73
    24
 74
     0
 42
0.0000000001
 43
0.0000000001
 40
0.0
 40
0.0
 40
0.0
 40
0.0
 40
0.1428571428571428
 40
0.1428571428571428
 40
0.1428571428571428
 40
0.1428571428571428
 40
0.2857142857142857
 40
0.2857142857142857
 40
0.2857142857142857
 40
0.2857142857142857
 40
0.4285714285714285
 40
0.4285714285714285
 40
0.4285714285714285
 40
0.4285714285714285
 40
0.5714285714285714
 40
0.5714285714285714
 40
0.5714285714285714
 40
0.5714285714285714
 40
0.7142857142857143
 40
0.7142857142857143
 40
0.7142857142857143
 40
0.7142857142857143
 40
1.0
 40
1.0
 40
1.0
 40
1.0
 10
7.18489
 20
-0.97975
 30
0.0
 10
7.82648
 20
-2.38163
 30
0.0
 10
7.41768
 20
-3.53554
 30
0.0
 10
6.14948
 20
-4.48546
 30
0.0
 10
6.14948
 20
-4.48546
 30
0.0
 10
6.70274
 20
-4.42313
 30
0.0
 10
7.51649
 20
-3.67558
 30
0.0
 10
7.74727
 20
-2.75102
 30
0.0
 10
7.74727
 20
-2.75102
 30
0.0
 10
7.74727
 20
-2.75102
 30
0.0
 10
8.38851
 20
-2.7405
 30
0.0
 10
8.38851
 20
-2.7405
 30
0.0
 10
8.38851
 20
-2.7405
 30
0.0
 10
8.80341
 20
-2.7337
 30
0.0
 10
8.57546
 20
-3.64001
 30
0.0
 10
8.04687
 20
-4.24895
 30
0.0
 10
8.04687
 20
-4.24895
 30
0.0
 10
8.78723
 20
-3.86997
 30
0.0
 10
9.83425
 20
-1.98399
 30
0.0
 10
7.78004
 20
-2.46704
 30
0.0
 10
7.78004
 20
-2.46704
 30
0.0
 10
7.80858
 20
-1.53479
 30
0.0
 10
7.58848
 20
-1.14341
 30
0.0
 10
7.18489
 20
-0.97975
 30
0.0
  0
SPLINE
  5
63
330
1F
100
AcDbEntity
  8
Kerf Pocket Cut 3mm
 62
     7
100
AcDbSpline
210
0.0
220
0.0
230
1.0
 70
    11
 71
     3
 72
    16
 73
    12
 74
     0
 42
0.0000000001
 43
0.0000000001
 40
0.0
 40
0.0
 40
0.0
 40
0.0
 40
0.25
 40
0.25
 40
0.25
 40
0.25
 40
0.5
 40
0.5
 40
0.5
 40
0.5
 40
1.0
 40
1.0
 40
1.0
 40
1.0
 10
5.25966
 20
-5.45543
 30
0.0
 10
5.59533
 20
-5.33166
 30
0.0
 10
5.99291
 20
-5.36701
 30
0.0
 10
6.34959
 20
-5.45346
 30
0.0
 10
6.34959
 20
-5.45346
 30
0.0
 10
6.12456
 20
-5.216
 30
0.0
 10
5.95604
 20
-4.97047
 30
0.0
 10
5.82919
 20
-4.71891
 30
0.0
 10
5.82919
 20
-4.71891
 30
0.0
 10
5.67444
 20
-5.00302
 30
0.0
 10
5.4845
 20
-5.24839
 30
0.0
 10
5.25966
 20
-5.45543
 30
0.0
  0
SPLINE
  5
64
330
1F
100
AcDbEntity
  8
Kerf Pocket Cut 3mm
 62
     7
100
AcDbSpline
210
0.0
220
0.0
230
1.0
 70
    11
 71
     3
 72
    12
 73
     8
 74
     0
 42
0.0000000001
 43
0.0000000001
 40
0.0
 40
0.0
 40
0.0
 40
0.0
 40
0.3333333333333333
 40
0.3333333333333333
 40
0.3333333333333333
 40
0.3333333333333333
 40
1.0
 40
1.0
 40
1.0
 40
1.0
 10
6.95173
 20
-5.6448
 30
0.0
 10
5.69227
 20
-6.69947
 30
0.0
 10
5.80377
 20
-8.33236
 30
0.0
 10
6.41563
 20
-8.93501
 30
0.0
 10
6.41563
 20
-8.93501
 30
0.0
 10
6.04268
 20
-7.7831
 30
0.0
 10
6.20341
 20
-6.68457
 30
0.0
 10
6.95173
 20
-5.6448
 30
0.0
  0
SPLINE
  5
65
330
1F
100
AcDbEntity
  8
Kerf Pocket Cut 3mm
 62
     7
100
AcDbSpline
210
0.0
220
0.0
230
1.0
 70
    11
 71
     3
 72
    12
 73
     8
 74
     0
 42
0.0000000001
 43
0.0000000001
 40
0.0
 40
0.0
 40
0.0
 40
0.0
 40
0.3333333333333333
 40
0.3333333333333333
 40
0.3333333333333333
 40
0.3333333333333333
 40
1.0
 40
1.0
 40
1.0
 40
1.0
 10
7.07518
 20
-7.05348
 30
0.0
 10
7.5964
 20
-7.14654
 30
0.0
 10
8.25327
 20
-6.25453
 30
0.0
 10
8.016
 20
-5.9182
 30
0.0
 10
8.016
 20
-5.9182
 30
0.0
 10
7.86344
 20
-6.45763
 30
0.0
 10
7.56404
 20
-6.85044
 30
0.0
 10
7.07518
 20
-7.05348
 30
0.0
  0
SPLINE
  5
66
330
1F
100
AcDbEntity
  8
Kerf Pocket Cut 3mm
 62
     7
100
AcDbSpline
210
0.0
220
0.0
230
1.0
 70
    11
 71
     3
 72
    12
 73
     8
 74
     0
 42
0.0000000001
 43
0.0000000001
 40
0.0
 40
0.0
 40
0.0
 40
0.0
 40
0.3333333333333333
 40
0.3333333333333333
 40
0.3333333333333333
 40
0.3333333333333333
 40
1.0
 40
1.0
 40
1.0
 40
1.0
 10
8.56243
 20
-7.69999
 30
0.0
 10
8.61808
 20
-7.39951
 30
0.0
 10
9.31541
 20
-7.31805
 30
0.0
 10
9.49801
 20
-7.52915
 30
0.0
 10
9.49801
 20
-7.52915
 30
0.0
 10
9.1338
 20
-7.47156
 30
0.0
 10
8.81454
 20
-7.51234
 30
0.0
 10
8.56243
 20
-7.69999
 30
0.0
  0
SPLINE
  5
67
330
1F
100
AcDbEntity
  8
Kerf Pocket Cut 3mm
 62
     7
100
AcDbSpline
210
0.0
220
0.0
230
1.0
 70
    11
 71
     3
 72
    12
 73
     8
 74
     0
 42
0.0000000001
 43
0.0000000001
 40
0.0
 40
0.0
 40
0.0
 40
0.0
 40
0.3333333333333333
 40
0.3333333333333333
 40
0.3333333333333333
 40
0.3333333333333333
 40
1.0
 40
1.0
 40
1.0
 40
1.0
 10
8.77268
 20
-8.17303
 30
0.0
 10
8.89886
 20
-7.92982
 30
0.0
 10
9.393
 20
-7.86081
 30
0.0
 10
9.55319
 20
-8.18355
 30
0.0
 10
9.55319
 20
-8.18355
 30
0.0
 10
9.29132
 20
-8.04116
 30
0.0
 10
9.03121
 20
-8.03852
 30
0.0
 10
8.77268
 20
-8.17303
 30
0.0
  0
SPLINE
  5
68
330
1F
100
AcDbEntity
  8
Kerf Pocket Cut 3mm
 62
     7
100
AcDbSpline
210
0.0
220
0.0
230
1.0
 70
    11
 71
     3
 72
    12
 73
     8
 74
     0
 42
0.0000000001
 43
0.0000000001
 40
0.0
 40
0.0
 40
0.0
 40
0.0
 40
0.3333333333333333
 40
0.3333333333333333
 40
0.3333333333333333
 40
0.3333333333333333
 40
1.0
 40
1.0
 40
1.0
 40
1.0
 10
8.85938
 20
-8.77221
 30
0.0
 10
8.95175
 20
-8.45565
 30
0.0
 10
9.51168
 20
-8.48085
 30
0.0
 10
9.5269
 20
-8.87207
 30
0.0
 10
9.5269
 20
-8.87207
 30
0.0
 10
9.37943
 20
-8.65077
 30
0.0
 10
9.09474
 20
-8.61113
 30
0.0
 10
8.85938
 20
-8.77221
 30
0.0
  0
SPLINE
  5
69
330
1F
100
AcDbEntity
  8
Kerf Pocket Cut 3mm
 62
     7
100
AcDbSpline
210
0.0
220
0.0
230
1.0
 70
    11
 71
     3
 72
    12
 73
     8
 74
     0
 42
0.0000000001
 43
0.0000000001
 40
0.0
 40
0.0
 40
0.0
 40
0.0
 40
0.3333333333333333
 40
0.3333333333333333
 40
0.3333333333333333
 40
0.3333333333333333
 40
1.0
 40
1.0
 40
1.0
 40
1.0
 10
8.85938
 20
-9.17691
 30
0.0
 10
9.02752
 20
-8.97327
 30
0.0
 10
9.29482
 20
-9.05121
 30
0.0
 10
9.33769
 20
-9.31358
 30
0.0
 10
9.33769
 20
-9.31358
 30
0.0
 10
9.19826
 20
-9.173
 30
0.0
 10
9.03896
 20
-9.12647
 30
0.0
 10
8.85938
 20
-9.17691
 30
0.0
  0
SPLINE
  5
6A
330
1F
100
AcDbEntity
  8
Kerf Pocket Cut 3mm
 62
     7
100
AcDbSpline
210
0.0
220
0.0
230
1.0
 70
    11
 71
     3
 72
    12
 73
     8
 74
     0
 42
0.0000000001
 43
0.0000000001
 40
0.0
 40
0.0
 40
0.0
 40
0.0
 40
0.3333333333333333
 40
0.3333333333333333
 40
0.3333333333333333
 40
0.3333333333333333
 40
1.0
 40
1.0
 40
1.0
 40
1.0
 10
8.69115
 20
-9.59213
 30
0.0
 10
8.87839
 20
-9.4567
 30
0.0
 10
9.13987
 20
-9.57252
 30
0.0
 10
9.08009
 20
-9.83919
 30
0.0
 10
9.08009
 20
-9.83919
 30
0.0
 10
9.00829
 20
-9.65335
 30
0.0
 10
8.87594
 20
-9.57576
 30
0.0
 10
8.69115
 20
-9.59213
 30
0.0
  0
SPLINE
  5
6B
330
1F
100
AcDbEntity
  8
Kerf Pocket Cut 3mm
 62
     7
100
AcDbSpline
210
0.0
220
0.0
230
1.0
 70
    11
 71
     3
 72
    24
 73
    20
 74
     0
 42
0.0000000001
 43
0.0000000001
 40
0.0
 40
0.0
 40
0.0
 40
0.0
 40
0.1666666666666667
 40
0.1666666666666667
 40
0.1666666666666667
 40
0.1666666666666667
 40
0.3333333333333333
 40
0.3333333333333333
 40
0.3333333333333333
 40
0.3333333333333333
 40
0.5
 40
0.5
 40
0.5
 40
0.5
 40
0.6666666666666666
 40
0.6666666666666666
 40
0.6666666666666666
 40
0.6666666666666666
 40
1.0
 40
1.0
 40
1.0
 40
1.0
 10
2.13587
 20
-8.69091
 30
0.0
 10
2.03095
 20
-8.77752
 30
0.0
 10
2.13171
 20
-8.94426
 30
0.0
 10
2.25675
 20
-8.8223
 30
0.0
 10
2.25675
 20
-8.8223
 30
0.0
 10
3.1725
 20
-7.98611
 30
0.0
 10
4.03548
 20
-7.09712
 30
0.0
 10
4.81113
 20
-6.12076
 30
0.0
 10
4.81113
 20
-6.12076
 30
0.0
 10
4.14863
 20
-5.94391
 30
0.0
 10
3.63056
 20
-5.57761
 30
0.0
 10
3.1923
 20
-5.10635
 30
0.0
 10
3.1923
 20
-5.10635
 30
0.0
 10
3.0473
 20
-5.31065
 30
0.0
 10
3.7665
 20
-6.01809
 30
0.0
 10
4.39067
 20
-6.32048
 30
0.0
 10
4.39067
 20
-6.32048
 30
0.0
 10
3.67884
 20
-7.14228
 30
0.0
 10
2.92481
 20
-7.93052
 30
0.0
 10
2.13587
 20
-8.69091
 30
0.0
  0
SPLINE
  5
6C
330
1F
100
AcDbEntity
  8
Kerf Pocket Cut 3mm
 62
     7
100
AcDbSpline
210
0.0
220
0.0
230
1.0
 70
    11
 71
     3
 72
    20
 73
    16
 74
     0
 42
0.0000000001
 43
0.0000000001
 40
0.0
 40
0.0
 40
0.0
 40
0.0
 40
0.2
 40
0.2
 40
0.2
 40
0.2
 40
0.4
 40
0.4
 40
0.4
 40
0.4
 40
0.6
 40
0.6
 40
0.6
 40
0.6
 40
1.0
 40
1.0
 40
1.0
 40
1.0
 10
2.86651
 20
-5.71949
 30
0.0
 10
3.06202
 20
-6.02995
 30
0.0
 10
3.30179
 20
-6.21493
 30
0.0
 10
3.58133
 20
-6.28714
 30
0.0
 10
3.58133
 20
-6.28714
 30
0.0
 10
3.1115
 20
-6.35967
 30
0.0
 10
3.091
 20
-6.56147
 30
0.0
 10
3.64439
 20
-6.92835
 30
0.0
 10
3.64439
 20
-6.92835
 30
0.0
 10
2.94311
 20
-7.72793
 30
0.0
 10
2.33792
 20
-8.08743
 30
0.0
 10
1.80481
 20
-8.1162
 30
0.0
 10
1.80481
 20
-8.1162
 30
0.0
 10
2.77765
 20
-7.54752
 30
0.0
 10
3.09911
 20
-6.73663
 30
0.0
 10
2.86651
 20
-5.71949
 30
0.0
  0
SPLINE
  5
6D
330
1F
100
AcDbEntity
  8
Kerf Pocket Cut 3mm
 62
     7
100
AcDbSpline
210
0.0
220
0.0
230
1.0
 70
    11
 71
     3
 72
    56
 73
    52
 74
     0
 42
0.0000000001
 43
0.0000000001
 40
0.0
 40
0.0
 40
0.0
 40
0.0
 40
0.0714285714285714
 40
0.0714285714285714
 40
0.0714285714285714
 40
0.0714285714285714
 40
0.1428571428571428
 40
0.1428571428571428
 40
0.1428571428571428
 40
0.1428571428571428
 40
0.2142857142857143
 40
0.2142857142857143
 40
0.2142857142857143
 40
0.2142857142857143
 40
0.2857142857142857
 40
0.2857142857142857
 40
0.2857142857142857
 40
0.2857142857142857
 40
0.3571428571428572
 40
0.3571428571428572
 40
0.3571428571428572
 40
0.3571428571428572
 40
0.4285714285714285
 40
0.4285714285714285
 40
0.4285714285714285
 40
0.4285714285714285
 40
0.5
 40
0.5
 40
0.5
 40
0.5
 40
0.5714285714285714
 40
0.5714285714285714
 40
0.5714285714285714
 40
0.5714285714285714
 40
0.6428571428571429
 40
0.6428571428571429
 40
0.6428571428571429
 40
0.6428571428571429
 40
0.7142857142857143
 40
0.7142857142857143
 40
0.7142857142857143
 40
0.7142857142857143
 40
0.7857142857142857
 40
0.7857142857142857
 40
0.7857142857142857
 40
0.7857142857142857
 40
0.8571428571428571
 40
0.8571428571428571
 40
0.8571428571428571
 40
0.8571428571428571
 40
1.0
 40
1.0
 40
1.0
 40
1.0
 10
1.92047
 20
-6.13735
 30
0.0
 10
0.58305
 20
-7.15878
 30
0.0
 10
0.29442
 20
-8.56209
 30
0.0
 10
1.75231
 20
-8.84941
 30
0.0
 10
1.75231
 20
-8.84941
 30
0.0
 10
1.60725
 20
-8.91594
 30
0.0
 10
1.44947
 20
-8.93176
 30
0.0
 10
1.28334
 20
-8.91419
 30
0.0
 10
1.28334
 20
-8.91419
 30
0.0
 10
1.47287
 20
-9.06627
 30
0.0
 10
1.63674
 20
-9.21597
 30
0.0
 10
1.6787
 20
-9.35398
 30
0.0
 10
1.6787
 20
-9.35398
 30
0.0
 10
0.75859
 20
-8.95026
 30
0.0
 10
0.26111
 20
-8.89277
 30
0.0
 10
0.3502
 20
-9.31597
 30
0.0
 10
0.3502
 20
-9.31597
 30
0.0
 10
0.02086
 20
-9.2449
 30
0.0
 10
-0.25127
 20
-9.34028
 30
0.0
 10
-0.40199
 20
-9.60561
 30
0.0
 10
-0.40199
 20
-9.60561
 30
0.0
 10
-0.46508
 20
-9.43941
 30
0.0
 10
-0.56373
 20
-9.29238
 30
0.0
 10
-0.71798
 20
-9.17526
 30
0.0
 10
-0.71798
 20
-9.17526
 30
0.0
 10
0.12721
 20
-8.59225
 30
0.0
 10
0.31499
 20
-8.09388
 30
0.0
 10
-0.25547
 20
-7.69309
 30
0.0
 10
-0.25547
 20
-7.69309
 30
0.0
 10
0.33415
 20
-7.58376
 30
0.0
 10
0.5356
 20
-7.30486
 30
0.0
 10
0.29115
 20
-6.83112
 30
0.0
 10
0.29115
 20
-6.83112
 30
0.0
 10
0.29115
 20
-6.83112
 30
0.0
 10
0.73266
 20
-6.87317
 30
0.0
 10
0.73266
 20
-6.87317
 30
0.0
 10
0.73266
 20
-6.87317
 30
0.0
 10
0.73266
 20
-6.87317
 30
0.0
 10
0.73266
 20
-6.55784
 30
0.0
 10
0.73266
 20
-6.55784
 30
0.0
 10
0.73266
 20
-6.55784
 30
0.0
 10
0.73266
 20
-6.55784
 30
0.0
 10
1.3108
 20
-6.51579
 30
0.0
 10
1.3108
 20
-6.51579
 30
0.0
 10
1.3108
 20
-6.51579
 30
0.0
 10
1.3108
 20
-6.51579
 30
0.0
 10
1.30028
 20
-6.3476
 30
0.0
 10
1.30028
 20
-6.3476
 30
0.0
 10
1.30028
 20
-6.3476
 30
0.0
 10
1.30028
 20
-6.3476
 30
0.0
 10
1.92047
 20
-6.13735
 30
0.0
 10
1.92047
 20
-6.13735
 30
0.0
  0
SPLINE
  5
6E
330
1F
100
AcDbEntity
  8
Kerf Pocket Cut 3mm
 62
     7
100
AcDbSpline
210
0.0
220
0.0
230
1.0
 70
    11
 71
     3
 72
    16
 73
    12
 74
     0
 42
0.0000000001
 43
0.0000000001
 40
0.0
 40
0.0
 40
0.0
 40
0.0
 40
0.25
 40
0.25
 40
0.25
 40
0.25
 40
0.5
 40
0.5
 40
0.5
 40
0.5
 40
1.0
 40
1.0
 40
1.0
 40
1.0
 10
-1.64336
 20
-5.31577
 30
0.0
 10
-1.27124
 20
-5.44704
 30
0.0
 10
-0.97301
 20
-5.66542
 30
0.0
 10
-0.79715
 20
-6.02798
 30
0.0
 10
-0.79715
 20
-6.02798
 30
0.0
 10
-0.46257
 20
-5.70118
 30
0.0
 10
-0.04026
 20
-5.64085
 30
0.0
 10
0.46952
 20
-5.84662
 30
0.0
 10
0.46952
 20
-5.84662
 30
0.0
 10
-0.14896
 20
-5.34616
 30
0.0
 10
-0.84267
 20
-5.12942
 30
0.0
 10
-1.64336
 20
-5.31577
 30
0.0
  0
SPLINE
  5
6F
330
1F
100
AcDbEntity
  8
Kerf Pocket Cut 3mm
 62
     7
100
AcDbSpline
210
0.0
220
0.0
230
1.0
 70
    11
 71
     3
 72
    20
 73
    16
 74
     0
 42
0.0000000001
 43
0.0000000001
 40
0.0
 40
0.0
 40
0.0
 40
0.0
 40
0.2
 40
0.2
 40
0.2
 40
0.2
 40
0.4
 40
0.4
 40
0.4
 40
0.4
 40
0.6
 40
0.6
 40
0.6
 40
0.6
 40
1.0
 40
1.0
 40
1.0
 40
1.0
 10
-0.41604
 20
-0.50926
 30
0.0
 10
-0.33524
 20
-0.399
 30
0.0
 10
-0.21129
 20
-0.34967
 30
0.0
 10
-0.05863
 20
-0.34106
 30
0.0
 10
-0.05863
 20
-0.34106
 30
0.0
 10
0.21865
 20
-1.18002
 30
0.0
 10
0.12661
 20
-1.89007
 30
0.0
 10
-0.31617
 20
-2.23848
 30
0.0
 10
-0.31617
 20
-2.23848
 30
0.0
 10
-0.39337
 20
-2.28336
 30
0.0
 10
-0.43997
 20
-2.17158
 30
0.0
 10
-0.38451
 20
-2.11233
 30
0.0
 10
-0.38451
 20
-2.11233
 30
0.0
 10
0.05462
 20
-1.62591
 30
0.0
 10
-0.03387
 20
-0.97419
 30
0.0
 10
-0.41604
 20
-0.50926
 30
0.0
  0
SPLINE
  5
70
330
1F
100
AcDbEntity
  8
Kerf Pocket Cut 3mm
 62
     7
100
AcDbSpline
210
0.0
220
0.0
230
1.0
 70
    11
 71
     3
 72
    12
 73
     8
 74
     0
 42
0.0000000001
 43
0.0000000001
 40
0.0
 40
0.0
 40
0.0
 40
0.0
 40
0.3333333333333333
 40
0.3333333333333333
 40
0.3333333333333333
 40
0.3333333333333333
 40
1.0
 40
1.0
 40
1.0
 40
1.0
 10
-1.04557
 20
-0.71646
 30
0.0
 10
-0.68976
 20
-0.87963
 30
0.0
 10
-0.58573
 20
-1.65589
 30
0.0
 10
-1.01405
 20
-1.87948
 30
0.0
 10
-1.01405
 20
-1.87948
 30
0.0
 10
-0.9767
 20
-1.49182
 30
0.0
 10
-0.98484
 20
-1.10412
 30
0.0
 10
-1.04557
 20
-0.71646
 30
0.0
  0
SPLINE
  5
71
330
1F
100
AcDbEntity
  8
Kerf Pocket Cut 3mm
 62
     7
100
AcDbSpline
210
0.0
220
0.0
230
1.0
 70
    11
 71
     3
 72
    20
 73
    16
 74
     0
 42
0.0000000001
 43
0.0000000001
 40
0.0
 40
0.0
 40
0.0
 40
0.0
 40
0.2
 40
0.2
 40
0.2
 40
0.2
 40
0.4
 40
0.4
 40
0.4
 40
0.4
 40
0.6
 40
0.6
 40
0.6
 40
0.6
 40
1.0
 40
1.0
 40
1.0
 40
1.0
 10
-0.55693
 20
-3.91729
 30
0.0
 10
-0.48005
 20
-3.90884
 30
0.0
 10
-0.41832
 20
-3.91882
 30
0.0
 10
-0.36769
 20
-3.93306
 30
0.0
 10
-0.36769
 20
-3.93306
 30
0.0
 10
-0.36769
 20
-3.93306
 30
0.0
 10
-0.45707
 20
-2.29321
 30
0.0
 10
-0.45707
 20
-2.29321
 30
0.0
 10
-0.45707
 20
-2.29321
 30
0.0
 10
-0.51472
 20
-2.24941
 30
0.0
 10
-0.57632
 20
-2.2477
 30
0.0
 10
-0.641
 20
-2.27745
 30
0.0
 10
-0.641
 20
-2.27745
 30
0.0
 10
-0.641
 20
-2.27745
 30
0.0
 10
-0.55693
 20
-3.91729
 30
0.0
 10
-0.55693
 20
-3.91729
 30
0.0
  0
SPLINE
  5
72
330
1F
100
AcDbEntity
  8
Kerf Pocket Cut 3mm
 62
     7
100
AcDbSpline
210
0.0
220
0.0
230
1.0
 70
    11
 71
     3
 72
    92
 73
    88
 74
     0
 42
0.0000000001
 43
0.0000000001
 40
0.0
 40
0.0
 40
0.0
 40
0.0
 40
0.0434782608695652
 40
0.0434782608695652
 40
0.0434782608695652
 40
0.0434782608695652
 40
0.0869565217391304
 40
0.0869565217391304
 40
0.0869565217391304
 40
0.0869565217391304
 40
0.1304347826086956
 40
0.1304347826086956
 40
0.1304347826086956
 40
0.1304347826086956
 40
0.1739130434782609
 40
0.1739130434782609
 40
0.1739130434782609
 40
0.1739130434782609
 40
0.2173913043478261
 40
0.2173913043478261
 40
0.2173913043478261
 40
0.2173913043478261
 40
0.2608695652173913
 40
0.2608695652173913
 40
0.2608695652173913
 40
0.2608695652173913
 40
0.3043478260869565
 40
0.3043478260869565
 40
0.3043478260869565
 40
0.3043478260869565
 40
0.3478260869565217
 40
0.3478260869565217
 40
0.3478260869565217
 40
0.3478260869565217
 40
0.391304347826087
 40
0.391304347826087
 40
0.391304347826087
 40
0.391304347826087
 40
0.4347826086956522
 40
0.4347826086956522
 40
0.4347826086956522
 40
0.4347826086956522
 40
0.4782608695652174
 40
0.4782608695652174
 40
0.4782608695652174
 40
0.4782608695652174
 40
0.5217391304347826
 40
0.5217391304347826
 40
0.5217391304347826
 40
0.5217391304347826
 40
0.5652173913043478
 40
0.5652173913043478
 40
0.5652173913043478
 40
0.5652173913043478
 40
0.6086956521739131
 40
0.6086956521739131
 40
0.6086956521739131
 40
0.6086956521739131
 40
0.6521739130434783
 40
0.6521739130434783
 40
0.6521739130434783
 40
0.6521739130434783
 40
0.6956521739130435
 40
0.6956521739130435
 40
0.6956521739130435
 40
0.6956521739130435
 40
0.7391304347826086
 40
0.7391304347826086
 40
0.7391304347826086
 40
0.7391304347826086
 40
0.782608695652174
 40
0.782608695652174
 40
0.782608695652174
 40
0.782608695652174
 40
0.8260869565217391
 40
0.8260869565217391
 40
0.8260869565217391
 40
0.8260869565217391
 40
0.8695652173913043
 40
0.8695652173913043
 40
0.8695652173913043
 40
0.8695652173913043
 40
0.9130434782608695
 40
0.9130434782608695
 40
0.9130434782608695
 40
0.9130434782608695
 40
1.0
 40
1.0
 40
1.0
 40
1.0
 10
-1.38417
 20
-2.13696
 30
0.0
 10
-1.3111
 20
-1.96895
 30
0.0
 10
-0.94609
 20
-2.10493
 30
0.0
 10
-0.9637
 20
-2.39975
 30
0.0
 10
-0.9637
 20
-2.39975
 30
0.0
 10
-0.9637
 20
-2.39975
 30
0.0
 10
-0.95318
 20
-3.86091
 30
0.0
 10
-0.95318
 20
-3.86091
 30
0.0
 10
-0.95318
 20
-3.86091
 30
0.0
 10
-1.46474
 20
-3.83637
 30
0.0
 10
-1.89925
 20
-4.00807
 30
0.0
 10
-2.25666
 20
-4.33391
 30
0.0
 10
-2.25666
 20
-4.33391
 30
0.0
 10
-2.04593
 20
-4.28039
 30
0.0
 10
-1.82129
 20
-4.28239
 30
0.0
 10
-1.62197
 20
-4.33394
 30
0.0
 10
-1.62197
 20
-4.33394
 30
0.0
 10
-1.62197
 20
-4.33394
 30
0.0
 10
-1.62594
 20
-4.44957
 30
0.0
 10
-1.62594
 20
-4.44957
 30
0.0
 10
-1.62594
 20
-4.44957
 30
0.0
 10
-2.33138
 20
-4.5366
 30
0.0
 10
-3.02633
 20
-5.28691
 30
0.0
 10
-3.71778
 20
-6.25762
 30
0.0
 10
-3.71778
 20
-6.25762
 30
0.0
 10
-3.80624
 20
-6.40236
 30
0.0
 10
-3.93061
 20
-6.50178
 30
0.0
 10
-4.08571
 20
-6.56245
 30
0.0
 10
-4.08571
 20
-6.56245
 30
0.0
 10
-4.17642
 20
-6.60593
 30
0.0
 10
-4.27187
 20
-6.61362
 30
0.0
 10
-4.36954
 20
-6.6045
 30
0.0
 10
-4.36954
 20
-6.6045
 30
0.0
 10
-4.39474
 20
-6.41819
 30
0.0
 10
-4.35797
 20
-6.22103
 30
0.0
 10
-4.11457
 20
-6.21557
 30
0.0
 10
-4.11457
 20
-6.21557
 30
0.0
 10
-4.11457
 20
-6.21557
 30
0.0
 10
-4.12776
 20
-5.94226
 30
0.0
 10
-4.12776
 20
-5.94226
 30
0.0
 10
-4.12776
 20
-5.94226
 30
0.0
 10
-4.12776
 20
-5.94226
 30
0.0
 10
-3.79124
 20
-5.92303
 30
0.0
 10
-3.79124
 20
-5.92303
 30
0.0
 10
-3.79124
 20
-5.92303
 30
0.0
 10
-3.79124
 20
-5.92303
 30
0.0
 10
-3.77035
 20
-5.60586
 30
0.0
 10
-3.77035
 20
-5.60586
 30
0.0
 10
-3.77035
 20
-5.60586
 30
0.0
 10
-3.77035
 20
-5.60586
 30
0.0
 10
-3.50757
 20
-5.60586
 30
0.0
 10
-3.50757
 20
-5.60586
 30
0.0
 10
-3.50757
 20
-5.60586
 30
0.0
 10
-3.50757
 20
-5.60586
 30
0.0
 10
-3.50757
 20
-5.33255
 30
0.0
 10
-3.50757
 20
-5.33255
 30
0.0
 10
-3.50757
 20
-5.33255
 30
0.0
 10
-3.50757
 20
-5.33255
 30
0.0
 10
-3.21322
 20
-5.33255
 30
0.0
 10
-3.21322
 20
-5.33255
 30
0.0
 10
-3.21322
 20
-5.33255
 30
0.0
 10
-3.21322
 20
-5.33255
 30
0.0
 10
-3.22374
 20
-5.0172
 30
0.0
 10
-3.22374
 20
-5.0172
 30
0.0
 10
-3.22374
 20
-5.0172
 30
0.0
 10
-3.22374
 20
-5.0172
 30
0.0
 10
-2.96095
 20
-4.99619
 30
0.0
 10
-2.96095
 20
-4.99619
 30
0.0
 10
-2.96095
 20
-4.99619
 30
0.0
 10
-2.88747
 20
-4.71439
 30
0.0
 10
-2.93972
 20
-4.46852
 30
0.0
 10
-3.16065
 20
-4.27085
 30
0.0
 10
-3.16065
 20
-4.27085
 30
0.0
 10
-3.16065
 20
-4.27085
 30
0.0
 10
-1.27906
 20
-2.70462
 30
0.0
 10
-1.27906
 20
-2.70462
 30
0.0
 10
-1.27906
 20
-2.70462
 30
0.0
 10
-1.27906
 20
-2.70462
 30
0.0
 10
-1.61542
 20
-2.72563
 30
0.0
 10
-1.61542
 20
-2.72563
 30
0.0
 10
-1.61542
 20
-2.72563
 30
0.0
 10
-1.74151
 20
-2.73348
 30
0.0
 10
-1.75998
 20
-2.61966
 30
0.0
 10
-1.65747
 20
-2.5259
 30
0.0
 10
-1.65747
 20
-2.5259
 30
0.0
 10
-1.53269
 20
-2.4131
 30
0.0
 10
-1.43883
 20
-2.28482
 30
0.0
 10
-1.38417
 20
-2.13696
 30
0.0
  0
SPLINE
  5
73
330
1F
100
AcDbEntity
  8
Kerf Pocket Cut 3mm
 62
     7
100
AcDbSpline
210
0.0
220
0.0
230
1.0
 70
    11
 71
     3
 72
    56
 73
    52
 74
     0
 42
0.0000000001
 43
0.0000000001
 40
0.0
 40
0.0
 40
0.0
 40
0.0
 40
0.0714285714285714
 40
0.0714285714285714
 40
0.0714285714285714
 40
0.0714285714285714
 40
0.1428571428571428
 40
0.1428571428571428
 40
0.1428571428571428
 40
0.1428571428571428
 40
0.2142857142857143
 40
0.2142857142857143
 40
0.2142857142857143
 40
0.2142857142857143
 40
0.2857142857142857
 40
0.2857142857142857
 40
0.2857142857142857
 40
0.2857142857142857
 40
0.3571428571428572
 40
0.3571428571428572
 40
0.3571428571428572
 40
0.3571428571428572
 40
0.4285714285714285
 40
0.4285714285714285
 40
0.4285714285714285
 40
0.4285714285714285
 40
0.5
 40
0.5
 40
0.5
 40
0.5
 40
0.5714285714285714
 40
0.5714285714285714
 40
0.5714285714285714
 40
0.5714285714285714
 40
0.6428571428571429
 40
0.6428571428571429
 40
0.6428571428571429
 40
0.6428571428571429
 40
0.7142857142857143
 40
0.7142857142857143
 40
0.7142857142857143
 40
0.7142857142857143
 40
0.7857142857142857
 40
0.7857142857142857
 40
0.7857142857142857
 40
0.7857142857142857
 40
0.8571428571428571
 40
0.8571428571428571
 40
0.8571428571428571
 40
0.8571428571428571
 40
1.0
 40
1.0
 40
1.0
 40
1.0
 10
-0.99215
 20
-4.85834
 30
0.0
 10
-1.2125
 20
-4.36341
 30
0.0
 10
-2.14233
 20
-4.65785
 30
0.0
 10
-2.66352
 20
-5.39444
 30
0.0
 10
-2.66352
 20
-5.39444
 30
0.0
 10
-2.82225
 20
-5.6188
 30
0.0
 10
-2.6769
 20
-5.72178
 30
0.0
 10
-2.26934
 20
-5.70979
 30
0.0
 10
-2.26934
 20
-5.70979
 30
0.0
 10
-2.94913
 20
-5.82539
 30
0.0
 10
-3.2977
 20
-6.20915
 30
0.0
 10
-3.22066
 20
-6.78726
 30
0.0
 10
-3.22066
 20
-6.78726
 30
0.0
 10
-3.7434
 20
-6.64287
 30
0.0
 10
-4.1311
 20
-6.77747
 30
0.0
 10
-4.11416
 20
-7.28658
 30
0.0
 10
-4.11416
 20
-7.28658
 30
0.0
 10
-4.24593
 20
-7.09553
 30
0.0
 10
-4.40158
 20
-7.07115
 30
0.0
 10
-4.50837
 20
-7.19196
 30
0.0
 10
-4.50837
 20
-7.19196
 30
0.0
 10
-4.50837
 20
-7.19196
 30
0.0
 10
-5.17061
 20
-7.8542
 30
0.0
 10
-5.17061
 20
-7.8542
 30
0.0
 10
-5.17061
 20
-7.8542
 30
0.0
 10
-5.14465
 20
-7.95699
 30
0.0
 10
-5.0704
 20
-8.04049
 30
0.0
 10
-4.93936
 20
-8.10126
 30
0.0
 10
-4.93936
 20
-8.10126
 30
0.0
 10
-4.60178
 20
-7.47947
 30
0.0
 10
-4.29215
 20
-7.10611
 30
0.0
 10
-4.0879
 20
-7.67027
 30
0.0
 10
-4.0879
 20
-7.67027
 30
0.0
 10
-4.0879
 20
-7.67027
 30
0.0
 10
-3.91446
 20
-7.67027
 30
0.0
 10
-3.91446
 20
-7.67027
 30
0.0
 10
-3.91446
 20
-7.67027
 30
0.0
 10
-4.08044
 20
-7.14263
 30
0.0
 10
-3.77468
 20
-6.92946
 30
0.0
 10
-3.01568
 20
-7.01852
 30
0.0
 10
-3.01568
 20
-7.01852
 30
0.0
 10
-3.09419
 20
-6.23584
 30
0.0
 10
-2.63759
 20
-5.81792
 30
0.0
 10
-1.59133
 20
-5.94105
 30
0.0
 10
-1.59133
 20
-5.94105
 30
0.0
 10
-1.80288
 20
-5.66085
 30
0.0
 10
-2.05598
 20
-5.51356
 30
0.0
 10
-2.33768
 20
-5.45753
 30
0.0
 10
-2.33768
 20
-5.45753
 30
0.0
 10
-1.97541
 20
-5.0124
 30
0.0
 10
-1.53663
 20
-4.78489
 30
0.0
 10
-0.99215
 20
-4.85834
 30
0.0
  0
SPLINE
  5
74
330
1F
100
AcDbEntity
  8
Kerf Pocket Cut 3mm
 62
     7
100
AcDbSpline
210
0.0
220
0.0
230
1.0
 70
    11
 71
     3
 72
    16
 73
    12
 74
     0
 42
0.0000000001
 43
0.0000000001
 40
0.0
 40
0.0
 40
0.0
 40
0.0
 40
0.25
 40
0.25
 40
0.25
 40
0.25
 40
0.5
 40
0.5
 40
0.5
 40
0.5
 40
1.0
 40
1.0
 40
1.0
 40
1.0
 10
-2.56868
 20
-6.67818
 30
0.0
 10
-2.12028
 20
-6.58899
 30
0.0
 10
-1.8292
 20
-6.72007
 30
0.0
 10
-1.80133
 20
-7.21952
 30
0.0
 10
-1.80133
 20
-7.21952
 30
0.0
 10
-1.6384
 20
-6.94557
 30
0.0
 10
-1.38617
 20
-6.88722
 30
0.0
 10
-1.05498
 20
-7.01979
 30
0.0
 10
-1.05498
 20
-7.01979
 30
0.0
 10
-1.26781
 20
-6.48017
 30
0.0
 10
-2.20517
 20
-6.33828
 30
0.0
 10
-2.56868
 20
-6.67818
 30
0.0
  0
SPLINE
  5
75
330
1F
100
AcDbEntity
  8
Kerf Pocket Cut 3mm
 62
     7
100
AcDbSpline
210
0.0
220
0.0
230
1.0
 70
    11
 71
     3
 72
    16
 73
    12
 74
     0
 42
0.0000000001
 43
0.0000000001
 40
0.0
 40
0.0
 40
0.0
 40
0.0
 40
0.25
 40
0.25
 40
0.25
 40
0.25
 40
0.5
 40
0.5
 40
0.5
 40
0.5
 40
1.0
 40
1.0
 40
1.0
 40
1.0
 10
-2.86827
 20
-7.17753
 30
0.0
 10
-2.72134
 20
-7.33855
 30
0.0
 10
-2.62961
 20
-7.5193
 30
0.0
 10
-2.67903
 20
-7.75043
 30
0.0
 10
-2.67903
 20
-7.75043
 30
0.0
 10
-2.67903
 20
-7.75043
 30
0.0
 10
-2.38471
 20
-7.76095
 30
0.0
 10
-2.38471
 20
-7.76095
 30
0.0
 10
-2.38471
 20
-7.76095
 30
0.0
 10
-2.41396
 20
-7.4435
 30
0.0
 10
-2.61654
 20
-7.19021
 30
0.0
 10
-2.86827
 20
-7.17753
 30
0.0
  0
SPLINE
  5
76
330
1F
100
AcDbEntity
  8
Kerf Pocket Cut 3mm
 62
     7
100
AcDbSpline
210
0.0
220
0.0
230
1.0
 70
    11
 71
     3
 72
    52
 73
    48
 74
     0
 42
0.0000000001
 43
0.0000000001
 40
0.0
 40
0.0
 40
0.0
 40
0.0
 40
0.0769230769230769
 40
0.0769230769230769
 40
0.0769230769230769
 40
0.0769230769230769
 40
0.1538461538461539
 40
0.1538461538461539
 40
0.1538461538461539
 40
0.1538461538461539
 40
0.2307692307692308
 40
0.2307692307692308
 40
0.2307692307692308
 40
0.2307692307692308
 40
0.3076923076923077
 40
0.3076923076923077
 40
0.3076923076923077
 40
0.3076923076923077
 40
0.3846153846153846
 40
0.3846153846153846
 40
0.3846153846153846
 40
0.3846153846153846
 40
0.4615384615384616
 40
0.4615384615384616
 40
0.4615384615384616
 40
0.4615384615384616
 40
0.5384615384615384
 40
0.5384615384615384
 40
0.5384615384615384
 40
0.5384615384615384
 40
0.6153846153846154
 40
0.6153846153846154
 40
0.6153846153846154
 40
0.6153846153846154
 40
0.6923076923076923
 40
0.6923076923076923
 40
0.6923076923076923
 40
0.6923076923076923
 40
0.7692307692307693
 40
0.7692307692307693
 40
0.7692307692307693
 40
0.7692307692307693
 40
0.8461538461538461
 40
0.8461538461538461
 40
0.8461538461538461
 40
0.8461538461538461
 40
1.0
 40
1.0
 40
1.0
 40
1.0
 10
-1.39396
 20
-8.82799
 30
0.0
 10
-1.83254
 20
-8.57941
 30
0.0
 10
-2.27983
 20
-8.46642
 30
0.0
 10
-2.73945
 20
-8.577
 30
0.0
 10
-2.73945
 20
-8.577
 30
0.0
 10
-3.63718
 20
-8.93021
 30
0.0
 10
-4.0764
 20
-8.88565
 30
0.0
 10
-4.2453
 20
-8.42596
 30
0.0
 10
-4.2453
 20
-8.42596
 30
0.0
 10
-4.32851
 20
-8.51006
 30
0.0
 10
-4.37583
 20
-8.69485
 30
0.0
 10
-4.28471
 20
-8.95414
 30
0.0
 10
-4.28471
 20
-8.95414
 30
0.0
 10
-4.28471
 20
-8.95414
 30
0.0
 10
-4.44239
 20
-8.96466
 30
0.0
 10
-4.44239
 20
-8.96466
 30
0.0
 10
-4.44239
 20
-8.96466
 30
0.0
 10
-4.44239
 20
-8.96466
 30
0.0
 10
-4.41083
 20
-9.16439
 30
0.0
 10
-4.41083
 20
-9.16439
 30
0.0
 10
-4.41083
 20
-9.16439
 30
0.0
 10
-4.41083
 20
-9.16439
 30
0.0
 10
-4.53698
 20
-9.16439
 30
0.0
 10
-4.53698
 20
-9.16439
 30
0.0
 10
-4.53698
 20
-9.16439
 30
0.0
 10
-4.70381
 20
-9.05674
 30
0.0
 10
-4.78393
 20
-8.94432
 30
0.0
 10
-4.82462
 20
-8.82964
 30
0.0
 10
-4.82462
 20
-8.82964
 30
0.0
 10
-4.99968
 20
-8.95554
 30
0.0
 10
-4.87697
 20
-9.19264
 30
0.0
 10
-4.68413
 20
-9.34308
 30
0.0
 10
-4.68413
 20
-9.34308
 30
0.0
 10
-4.74583
 20
-9.50781
 30
0.0
 10
-4.97375
 20
-9.50158
 30
0.0
 10
-5.12564
 20
-9.38513
 30
0.0
 10
-5.12564
 20
-9.38513
 30
0.0
 10
-5.21324
 20
-9.58835
 30
0.0
 10
-5.09065
 20
-9.78455
 30
0.0
 10
-4.75774
 20
-9.97379
 30
0.0
 10
-4.75774
 20
-9.97379
 30
0.0
 10
-5.72034
 20
-10.27249
 30
0.0
 10
-6.23502
 20
-8.68493
 30
0.0
 10
-4.94695
 20
-8.43905
 30
0.0
 10
-4.94695
 20
-8.43905
 30
0.0
 10
-4.31958
 20
-7.55788
 30
0.0
 10
-1.56235
 20
-7.87671
 30
0.0
 10
-1.39396
 20
-8.82799
 30
0.0
  0
SPLINE
  5
77
330
1F
100
AcDbEntity
  8
Kerf Pocket Cut 3mm
 62
     7
100
AcDbSpline
210
0.0
220
0.0
230
1.0
 70
    11
 71
     3
 72
    16
 73
    12
 74
     0
 42
0.0000000001
 43
0.0000000001
 40
0.0
 40
0.0
 40
0.0
 40
0.0
 40
0.25
 40
0.25
 40
0.25
 40
0.25
 40
0.5
 40
0.5
 40
0.5
 40
0.5
 40
1.0
 40
1.0
 40
1.0
 40
1.0
 10
-5.69123
 20
-4.22861
 30
0.0
 10
-5.05352
 20
-4.2788
 30
0.0
 10
-4.98694
 20
-4.62343
 30
0.0
 10
-5.2392
 20
-5.19569
 30
0.0
 10
-5.2392
 20
-5.19569
 30
0.0
 10
-5.05508
 20
-4.93049
 30
0.0
 10
-4.85262
 20
-4.94848
 30
0.0
 10
-4.77669
 20
-5.27979
 30
0.0
 10
-4.77669
 20
-5.27979
 30
0.0
 10
-4.52236
 20
-4.38985
 30
0.0
 10
-5.03099
 20
-3.87114
 30
0.0
 10
-5.69123
 20
-4.22861
 30
0.0
  0
SPLINE
  5
78
330
1F
100
AcDbEntity
  8
Kerf Pocket Cut 3mm
 62
     7
100
AcDbSpline
210
0.0
220
0.0
230
1.0
 70
    11
 71
     3
 72
     8
 73
     4
 74
     0
 42
0.0000000001
 43
0.0000000001
 40
0.0
 40
0.0
 40
0.0
 40
0.0
 40
1.0
 40
1.0
 40
1.0
 40
1.0
 10
-6.10648
 20
-6.54167
 30
0.0
 10
-5.78509
 20
-4.22861
 30
0.0
 10
-4.33038
 20
-6.45576
 30
0.0
 10
-6.10648
 20
-6.54167
 30
0.0
  0
SPLINE
  5
79
330
1F
100
AcDbEntity
  8
Kerf Pocket Cut 3mm
 62
     7
100
AcDbSpline
210
0.0
220
0.0
230
1.0
 70
    11
 71
     3
 72
    80
 73
    76
 74
     0
 42
0.0000000001
 43
0.0000000001
 40
0.0
 40
0.0
 40
0.0
 40
0.0
 40
0.05
 40
0.05
 40
0.05
 40
0.05
 40
0.1
 40
0.1
 40
0.1
 40
0.1
 40
0.15
 40
0.15
 40
0.15
 40
0.15
 40
0.2
 40
0.2
 40
0.2
 40
0.2
 40
0.25
 40
0.25
 40
0.25
 40
0.25
 40
0.3
 40
0.3
 40
0.3
 40
0.3
 40
0.35
 40
0.35
 40
0.35
 40
0.35
 40
0.4
 40
0.4
 40
0.4
 40
0.4
 40
0.45
 40
0.45
 40
0.45
 40
0.45
 40
0.5
 40
0.5
 40
0.5
 40
0.5
 40
0.55
 40
0.55
 40
0.55
 40
0.55
 40
0.6
 40
0.6
 40
0.6
 40
0.6
 40
0.65
 40
0.65
 40
0.65
 40
0.65
 40
0.7
 40
0.7
 40
0.7
 40
0.7
 40
0.75
 40
0.75
 40
0.75
 40
0.75
 40
0.8
 40
0.8
 40
0.8
 40
0.8
 40
0.85
 40
0.85
 40
0.85
 40
0.85
 40
0.9
 40
0.9
 40
0.9
 40
0.9
 40
1.0
 40
1.0
 40
1.0
 40
1.0
 10
-6.42187
 20
-5.92281
 30
0.0
 10
-6.532
 20
-5.68055
 30
0.0
 10
-6.67436
 20
-5.40909
 30
0.0
 10
-6.5848
 20
-5.16855
 30
0.0
 10
-6.5848
 20
-5.16855
 30
0.0
 10
-6.73192
 20
-4.69707
 30
0.0
 10
-7.63496
 20
-5.23787
 30
0.0
 10
-7.46781
 20
-5.85183
 30
0.0
 10
-7.46781
 20
-5.85183
 30
0.0
 10
-8.04494
 20
-5.73128
 30
0.0
 10
-8.16454
 20
-6.12117
 30
0.0
 10
-8.04595
 20
-6.55613
 30
0.0
 10
-8.04595
 20
-6.55613
 30
0.0
 10
-8.45021
 20
-6.50569
 30
0.0
 10
-8.60528
 20
-6.72579
 30
0.0
 10
-8.51899
 20
-7.20785
 30
0.0
 10
-8.51899
 20
-7.20785
 30
0.0
 10
-9.23778
 20
-7.03323
 30
0.0
 10
-9.00674
 20
-9.65818
 30
0.0
 10
-7.46781
 20
-9.42584
 30
0.0
 10
-7.46781
 20
-9.42584
 30
0.0
 10
-8.11807
 20
-9.31072
 30
0.0
 10
-8.42589
 20
-9.00839
 30
0.0
 10
-8.55052
 20
-8.60592
 30
0.0
 10
-8.55052
 20
-8.60592
 30
0.0
 10
-8.17849
 20
-8.89534
 30
0.0
 10
-7.77058
 20
-8.97887
 30
0.0
 10
-7.44152
 20
-8.81356
 30
0.0
 10
-7.44152
 20
-8.81356
 30
0.0
 10
-7.97085
 20
-8.69059
 30
0.0
 10
-8.4313
 20
-8.53975
 30
0.0
 10
-8.66615
 20
-8.16444
 30
0.0
 10
-8.66615
 20
-8.16444
 30
0.0
 10
-8.79007
 20
-7.9282
 30
0.0
 10
-8.65442
 20
-7.68588
 30
0.0
 10
-8.47694
 20
-7.77551
 30
0.0
 10
-8.47694
 20
-7.77551
 30
0.0
 10
-8.18793
 20
-8.15755
 30
0.0
 10
-7.67294
 20
-8.45739
 30
0.0
 10
-7.1104
 20
-8.17493
 30
0.0
 10
-7.1104
 20
-8.17493
 30
0.0
 10
-7.68391
 20
-8.13933
 30
0.0
 10
-8.09973
 20
-7.90932
 30
0.0
 10
-8.37183
 20
-7.5022
 30
0.0
 10
-8.37183
 20
-7.5022
 30
0.0
 10
-8.51899
 20
-7.23973
 30
0.0
 10
-8.23058
 20
-7.00247
 30
0.0
 10
-8.06696
 20
-7.17632
 30
0.0
 10
-8.06696
 20
-7.17632
 30
0.0
 10
-7.68244
 20
-7.62247
 30
0.0
 10
-7.20671
 20
-7.72186
 30
0.0
 10
-6.84494
 20
-7.56265
 30
0.0
 10
-6.84494
 20
-7.56265
 30
0.0
 10
-7.29564
 20
-7.46441
 30
0.0
 10
-7.74207
 20
-7.24307
 30
0.0
 10
-7.88827
 20
-6.95559
 30
0.0
 10
-7.88827
 20
-6.95559
 30
0.0
 10
-8.04595
 20
-6.55613
 30
0.0
 10
-7.82404
 20
-6.13547
 30
0.0
 10
-7.46781
 20
-6.21973
 30
0.0
 10
-7.46781
 20
-6.21973
 30
0.0
 10
-7.27447
 20
-6.75964
 30
0.0
 10
-6.80127
 20
-7.02189
 30
0.0
 10
-6.49021
 20
-6.90301
 30
0.0
 10
-6.49021
 20
-6.90301
 30
0.0
 10
-6.90276
 20
-6.78049
 30
0.0
 10
-7.2041
 20
-6.38087
 30
0.0
 10
-7.28909
 20
-6.05156
 30
0.0
 10
-7.28909
 20
-6.05156
 30
0.0
 10
-7.34341
 20
-5.75559
 30
0.0
 10
-7.07652
 20
-5.4404
 30
0.0
 10
-6.79504
 20
-5.50495
 30
0.0
 10
-6.79504
 20
-5.50495
 30
0.0
 10
-6.74235
 20
-5.71968
 30
0.0
 10
-6.65679
 20
-5.9517
 30
0.0
 10
-6.42187
 20
-5.92281
 30
0.0
  0
SPLINE
  5
7A
330
1F
100
AcDbEntity
  8
Kerf Pocket Cut 3mm
 62
     7
100
AcDbSpline
210
0.0
220
0.0
230
1.0
 70
    11
 71
     3
 72
    28
 73
    24
 74
     0
 42
0.0000000001
 43
0.0000000001
 40
0.0
 40
0.0
 40
0.0
 40
0.0
 40
0.1428571428571428
 40
0.1428571428571428
 40
0.1428571428571428
 40
0.1428571428571428
 40
0.2857142857142857
 40
0.2857142857142857
 40
0.2857142857142857
 40
0.2857142857142857
 40
0.4285714285714285
 40
0.4285714285714285
 40
0.4285714285714285
 40
0.4285714285714285
 40
0.5714285714285714
 40
0.5714285714285714
 40
0.5714285714285714
 40
0.5714285714285714
 40
0.7142857142857143
 40
0.7142857142857143
 40
0.7142857142857143
 40
0.7142857142857143
 40
1.0
 40
1.0
 40
1.0
 40
1.0
 10
-9.33907
 20
-2.16509
 30
0.0
 10
-8.77955
 20
-2.76275
 30
0.0
 10
-8.41363
 20
-3.26989
 30
0.0
 10
-8.96065
 20
-3.25832
 30
0.0
 10
-8.96065
 20
-3.25832
 30
0.0
 10
-8.1155
 20
-4.67193
 30
0.0
 10
-8.14486
 20
-5.50647
 30
0.0
 10
-8.89756
 20
-4.94022
 30
0.0
 10
-8.89756
 20
-4.94022
 30
0.0
 10
-8.65579
 20
-5.51712
 30
0.0
 10
-8.65223
 20
-6.06974
 30
0.0
 10
-8.88708
 20
-6.59058
 30
0.0
 10
-8.88708
 20
-6.59058
 30
0.0
 10
-8.53771
 20
-6.48137
 30
0.0
 10
-8.3745
 20
-5.93253
 30
0.0
 10
-8.52967
 20
-5.33967
 30
0.0
 10
-8.52967
 20
-5.33967
 30
0.0
 10
-7.33626
 20
-5.55869
 30
0.0
 10
-7.67577
 20
-4.6658
 30
0.0
 10
-8.61377
 20
-3.39496
 30
0.0
 10
-8.61377
 20
-3.39496
 30
0.0
 10
-7.8905
 20
-3.55636
 30
0.0
 10
-8.49518
 20
-2.69823
 30
0.0
 10
-9.33907
 20
-2.16509
 30
0.0
  0
SPLINE
  5
7B
330
1F
100
AcDbEntity
  8
Kerf Pocket Cut 3mm
 62
     7
100
AcDbSpline
210
0.0
220
0.0
230
1.0
 70
    11
 71
     3
 72
    32
 73
    28
 74
     0
 42
0.0000000001
 43
0.0000000001
 40
0.0
 40
0.0
 40
0.0
 40
0.0
 40
0.125
 40
0.125
 40
0.125
 40
0.125
 40
0.25
 40
0.25
 40
0.25
 40
0.25
 40
0.375
 40
0.375
 40
0.375
 40
0.375
 40
0.5
 40
0.5
 40
0.5
 40
0.5
 40
0.625
 40
0.625
 40
0.625
 40
0.625
 40
0.75
 40
0.75
 40
0.75
 40
0.75
 40
1.0
 40
1.0
 40
1.0
 40
1.0
 10
-3.01607
 20
-10.80846
 30
0.0
 10
-5.36437
 20
-11.58611
 30
0.0
 10
-7.0647
 20
-9.53216
 30
0.0
 10
-5.80171
 20
-8.65353
 30
0.0
 10
-5.80171
 20
-8.65353
 30
0.0
 10
-6.23851
 20
-8.65919
 30
0.0
 10
-6.47215
 20
-8.47618
 30
0.0
 10
-6.51652
 20
-8.11744
 30
0.0
 10
-6.51652
 20
-8.11744
 30
0.0
 10
-6.76514
 20
-8.3732
 30
0.0
 10
-6.75147
 20
-8.9058
 30
0.0
 10
-6.49548
 20
-9.69419
 30
0.0
 10
-6.49548
 20
-9.69419
 30
0.0
 10
-6.74994
 20
-9.4601
 30
0.0
 10
-6.85346
 20
-9.15218
 30
0.0
 10
-6.91074
 20
-8.77968
 30
0.0
 10
-6.91074
 20
-8.77968
 30
0.0
 10
-7.03784
 20
-9.05864
 30
0.0
 10
-7.17054
 20
-9.53861
 30
0.0
 10
-6.24322
 20
-10.39848
 30
0.0
 10
-6.24322
 20
-10.39848
 30
0.0
 10
-6.49844
 20
-10.31645
 30
0.0
 10
-6.72375
 20
-10.18274
 30
0.0
 10
-6.92647
 20
-10.00955
 30
0.0
 10
-6.92647
 20
-10.00955
 30
0.0
 10
-6.66705
 20
-11.03606
 30
0.0
 10
-3.96929
 20
-11.73012
 30
0.0
 10
-3.01607
 20
-10.80846
 30
0.0
  0
SPLINE
  5
7C
330
1F
100
AcDbEntity
  8
Kerf Pocket Cut 3mm
 62
     7
100
AcDbSpline
210
0.0
220
0.0
230
1.0
 70
    11
 71
     3
 72
    32
 73
    28
 74
     0
 42
0.0000000001
 43
0.0000000001
 40
0.0
 40
0.0
 40
0.0
 40
0.0
 40
0.125
 40
0.125
 40
0.125
 40
0.125
 40
0.25
 40
0.25
 40
0.25
 40
0.25
 40
0.375
 40
0.375
 40
0.375
 40
0.375
 40
0.5
 40
0.5
 40
0.5
 40
0.5
 40
0.625
 40
0.625
 40
0.625
 40
0.625
 40
0.75
 40
0.75
 40
0.75
 40
0.75
 40
1.0
 40
1.0
 40
1.0
 40
1.0
 10
-4.61783
 20
-7.00847
 30
0.0
 10
-4.90808
 20
-7.3737
 30
0.0
 10
-5.22452
 20
-7.72252
 30
0.0
 10
-5.627
 20
-8.0176
 30
0.0
 10
-5.627
 20
-8.0176
 30
0.0
 10
-6.04164
 20
-8.10371
 30
0.0
 10
-6.16541
 20
-7.9964
 30
0.0
 10
-5.9844
 20
-7.68648
 30
0.0
 10
-5.9844
 20
-7.68648
 30
0.0
 10
-5.75458
 20
-7.33298
 30
0.0
 10
-5.46086
 20
-7.03959
 30
0.0
 10
-5.11191
 20
-6.79822
 30
0.0
 10
-5.11191
 20
-6.79822
 30
0.0
 10
-5.11626
 20
-6.88963
 30
0.0
 10
-5.09872
 20
-6.98108
 30
0.0
 10
-5.06106
 20
-7.07249
 30
0.0
 10
-5.06106
 20
-7.07249
 30
0.0
 10
-5.03859
 20
-6.98108
 30
0.0
 10
-5.03452
 20
-6.88963
 30
0.0
 10
-5.01205
 20
-6.79822
 30
0.0
 10
-5.01205
 20
-6.79822
 30
0.0
 10
-5.01205
 20
-6.79822
 30
0.0
 10
-4.85437
 20
-6.67207
 30
0.0
 10
-4.85437
 20
-6.67207
 30
0.0
 10
-4.85437
 20
-6.67207
 30
0.0
 10
-4.74608
 20
-6.76584
 30
0.0
 10
-4.67005
 20
-6.87972
 30
0.0
 10
-4.61783
 20
-7.00847
 30
0.0
  0
ENDSEC
  0
SECTION
  2
OBJECTS
  0
DICTIONARY
  5
C
330
0
100
AcDbDictionary
281
     1
  3
ACAD_GROUP
350
D
  3
ACAD_LAYOUT
350
1A
  3
ACAD_MATERIAL
350
3B
  3
ACAD_MLEADERSTYLE
350
9E
  3
ACAD_MLINESTYLE
350
17
  3
ACAD_PLOTSETTINGS
350
19
  3
ACAD_PLOTSTYLENAME
350
E
  3
ACAD_TABLESTYLE
350
9D
  3
ACAD_VISUALSTYLE
350
2A
  0
DICTIONARY
  5
D
102
{ACAD_REACTORS
330
C
102
}
330
C
100
AcDbDictionary
281
     1
  0
DICTIONARY
  5
1A
102
{ACAD_REACTORS
330
C
102
}
330
C
100
AcDbDictionary
281
     1
  3
Layout1
350
1E
  3
Layout2
350
26
  3
Model
350
22
  0
DICTIONARY
  5
3B
102
{ACAD_REACTORS
330
C
102
}
330
C
100
AcDbDictionary
281
     1
  3
ByBlock
350
3D
  3
ByLayer
350
3C
  3
Global
350
3E
  0
DICTIONARY
  5
9E
102
{ACAD_REACTORS
330
C
102
}
330
C
100
AcDbDictionary
281
     1
  0
DICTIONARY
  5
17
102
{ACAD_REACTORS
330
C
102
}
330
C
100
AcDbDictionary
281
     1
  3
Standard
350
18
  0
DICTIONARY
  5
19
102
{ACAD_REACTORS
330
C
102
}
330
C
100
AcDbDictionary
281
     1
  0
ACDBDICTIONARYWDFLT
  5
E
102
{ACAD_REACTORS
330
C
102
}
330
C
100
AcDbDictionary
281
     1
  3
Normal
350
F
100
AcDbDictionaryWithDefault
340
F
  0
DICTIONARY
  5
9D
102
{ACAD_REACTORS
330
C
102
}
330
C
100
AcDbDictionary
281
     1
  0
DICTIONARY
  5
2A
102
{ACAD_REACTORS
330
C
102
}
330
C
100
AcDbDictionary
281
     1
  3
2dWireframe
350
2F
  3
3D Hidden
350
31
  3
3dWireframe
350
30
  3
Basic
350
32
  3
Brighten
350
36
  3
ColorChange
350
3A
  3
Conceptual
350
34
  3
Dim
350
35
  3
Facepattern
350
39
  3
Flat
350
2B
  3
FlatWithEdges
350
2C
  3
Gouraud
350
2D
  3
GouraudWithEdges
350
2E
  3
Linepattern
350
38
  3
Realistic
350
33
  3
Thicken
350
37
  0
LAYOUT
  5
1E
102
{ACAD_REACTORS
330
1A
102
}
330
1A
100
AcDbPlotSettings
  1

  2
none_device
  4

  6

 40
0.0
 41
0.0
 42
0.0
 43
0.0
 44
0.0
 45
0.0
 46
0.0
 47
0.0
 48
0.0
 49
0.0
140
0.0
141
0.0
142
1.0
143
1.0
 70
   688
 72
     0
 73
     0
 74
     5
  7

 75
    16
 76
     0
 77
     2
 78
   300
147
1.0
148
0.0
149
0.0
100
AcDbLayout
  1
Layout1
 70
     1
 71
     1
 10
0.0
 20
0.0
 11
12.0
 21
9.0
 12
0.0
 22
0.0
 32
0.0
 14
1.000000000000000E 20
 24
1.000000000000000E 20
 34
1.000000000000000E 20
 15
-1.000000000000000E 20
 25
-1.000000000000000E 20
 35
-1.000000000000000E 20
146
0.0
 13
0.0
 23
0.0
 33
0.0
 16
1.0
 26
0.0
 36
0.0
 17
0.0
 27
1.0
 37
0.0
 76
     0
330
1B
  0
LAYOUT
  5
26
102
{ACAD_REACTORS
330
1A
102
}
330
1A
100
AcDbPlotSettings
  1

  2
none_device
  4

  6

 40
0.0
 41
0.0
 42
0.0
 43
0.0
 44
0.0
 45
0.0
 46
0.0
 47
0.0
 48
0.0
 49
0.0
140
0.0
141
0.0
142
1.0
143
1.0
 70
   688
 72
     0
 73
     0
 74
     5
  7

 75
    16
 76
     0
 77
     2
 78
   300
147
1.0
148
0.0
149
0.0
100
AcDbLayout
  1
Layout2
 70
     1
 71
     2
 10
0.0
 20
0.0
 11
0.0
 21
0.0
 12
0.0
 22
0.0
 32
0.0
 14
0.0
 24
0.0
 34
0.0
 15
0.0
 25
0.0
 35
0.0
146
0.0
 13
0.0
 23
0.0
 33
0.0
 16
1.0
 26
0.0
 36
0.0
 17
0.0
 27
1.0
 37
0.0
 76
     0
330
23
  0
LAYOUT
  5
22
102
{ACAD_REACTORS
330
1A
102
}
330
1A
100
AcDbPlotSettings
  1

  2
none_device
  4

  6

 40
0.0
 41
0.0
 42
0.0
 43
0.0
 44
0.0
 45
0.0
 46
0.0
 47
0.0
 48
0.0
 49
0.0
140
0.0
141
0.0
142
1.0
143
1.0
 70
  1712
 72
     0
 73
     0
 74
     0
  7

 75
     0
 76
     0
 77
     2
 78
   300
147
1.0
148
0.0
149
0.0
100
AcDbLayout
  1
Model
 70
     1
 71
     0
 10
0.0
 20
0.0
 11
12.0
 21
9.0
 12
0.0
 22
0.0
 32
0.0
 14
-10.36066
 24
-13.19964
 34
0.0
 15
10.2723
 25
14.11417
 35
0.0
146
0.0
 13
0.0
 23
0.0
 33
0.0
 16
1.0
 26
0.0
 36
0.0
 17
0.0
 27
1.0
 37
0.0
 76
     0
330
1F
331
29
  0
MATERIAL
  5
3D
102
{ACAD_REACTORS
330
3B
102
}
330
3B
100
AcDbMaterial
  1
ByBlock
 72
     1
 94
      127
  0
MATERIAL
  5
3C
102
{ACAD_REACTORS
330
3B
102
}
330
3B
100
AcDbMaterial
  1
ByLayer
 72
     1
 94
      127
  0
MATERIAL
  5
3E
102
{ACAD_REACTORS
330
3B
102
}
330
3B
100
AcDbMaterial
  1
Global
 72
     1
 94
      127
  0
MLINESTYLE
  5
18
102
{ACAD_REACTORS
330
17
102
}
330
17
100
AcDbMlineStyle
  2
Standard
 70
     0
  3

 62
   256
 51
90.0
 52
90.0
 71
     2
 49
0.5
 62
   256
  6
BYLAYER
 49
-0.5
 62
   256
  6
BYLAYER
  0
ACDBPLACEHOLDER
  5
F
102
{ACAD_REACTORS
330
E
102
}
330
E
  0
VISUALSTYLE
  5
2F
102
{ACAD_REACTORS
330
2A
102
}
102
{ACAD_XDICTIONARY
360
85
102
}
330
2A
100
AcDbVisualStyle
  2
2dWireframe
 70
     4
 71
     0
 72
     2
 73
     0
 90
        0
 40
-0.6
 41
-30.0
 62
     5
 63
     7
421
 16777215
 74
     1
 91
        4
 64
     7
 65
   257
 75
     1
175
     1
 42
1.0
 92
        0
 66
   257
 43
1.0
 76
     1
 77
     6
 78
     2
 67
     7
 79
     5
170
     0
171
     0
290
     0
174
     0
 93
        1
 44
0.0
173
     0
291
     0
 45
0.0
  0
VISUALSTYLE
  5
31
102
{ACAD_REACTORS
330
2A
102
}
102
{ACAD_XDICTIONARY
360
89
102
}
330
2A
100
AcDbVisualStyle
  2
3D Hidden
 70
     6
 71
     1
 72
     2
 73
     2
 90
        0
 40
-0.6
 41
-30.0
 62
     5
 63
     7
421
 16777215
 74
     2
 91
        2
 64
     7
 65
   257
 75
     2
175
     1
 42
40.0
 92
        0
 66
   257
 43
1.0
 76
     1
 77
     6
 78
     2
 67
     7
 79
     3
170
     0
171
     0
290
     0
174
     0
 93
        1
 44
0.0
173
     0
291
     0
 45
0.0
  0
VISUALSTYLE
  5
30
102
{ACAD_REACTORS
330
2A
102
}
102
{ACAD_XDICTIONARY
360
87
102
}
330
2A
100
AcDbVisualStyle
  2
3dWireframe
 70
     5
 71
     0
 72
     2
 73
     0
 90
        0
 40
-0.6
 41
-30.0
 62
     5
 63
     7
421
 16777215
 74
     1
 91
        4
 64
     7
 65
   257
 75
     1
175
     1
 42
1.0
 92
        0
 66
   257
 43
1.0
 76
     1
 77
     6
 78
     2
 67
     7
 79
     5
170
     0
171
     0
290
     0
174
     0
 93
        1
 44
0.0
173
     0
291
     0
 45
0.0
  0
VISUALSTYLE
  5
32
102
{ACAD_REACTORS
330
2A
102
}
102
{ACAD_XDICTIONARY
360
8B
102
}
330
2A
100
AcDbVisualStyle
  2
Basic
 70
     7
 71
     1
 72
     0
 73
     1
 90
        0
 40
-0.6
 41
-30.0
 62
     5
 63
     7
421
 16777215
 74
     0
 91
        4
 64
     7
 65
   257
 75
     1
175
     1
 42
1.0
 92
        8
 66
     7
 43
1.0
 76
     1
 77
     6
 78
     2
 67
     7
 79
     5
170
     0
171
     0
290
     0
174
     0
 93
        1
 44
0.0
173
     0
291
     1
 45
0.0
  0
VISUALSTYLE
  5
36
102
{ACAD_REACTORS
330
2A
102
}
102
{ACAD_XDICTIONARY
360
93
102
}
330
2A
100
AcDbVisualStyle
  2
Brighten
 70
    12
 71
     2
 72
     2
 73
     0
 90
        0
 40
-0.6
 41
-30.0
 62
     5
 63
     7
421
 16777215
 74
     1
 91
        4
 64
     7
 65
   257
 75
     1
175
     1
 42
1.0
 92
        8
 66
     7
 43
1.0
 76
     1
 77
     6
 78
     2
 67
     7
 79
     5
170
     0
171
     0
290
     0
174
     0
 93
        1
 44
50.0
173
     0
291
     1
 45
0.0
  0
VISUALSTYLE
  5
3A
102
{ACAD_REACTORS
330
2A
102
}
102
{ACAD_XDICTIONARY
360
9B
102
}
330
2A
100
AcDbVisualStyle
  2
ColorChange
 70
    16
 71
     2
 72
     2
 73
     3
 90
        0
 40
-0.6
 41
-30.0
 62
     5
 63
     8
421
  8421504
 74
     1
 91
        4
 64
     7
 65
   257
 75
     1
175
     1
 42
1.0
 92
        8
 66
     8
424
  8421504
 43
1.0
 76
     1
 77
     6
 78
     2
 67
     7
 79
     5
170
     0
171
     0
290
     0
174
     0
 93
        1
 44
0.0
173
     0
291
     1
 45
0.0
  0
VISUALSTYLE
  5
34
102
{ACAD_REACTORS
330
2A
102
}
102
{ACAD_XDICTIONARY
360
8F
102
}
330
2A
100
AcDbVisualStyle
  2
Conceptual
 70
     9
 71
     3
 72
     2
 73
     0
 90
        0
 40
-0.6
 41
-30.0
 62
     5
 63
     7
421
 16777215
 74
     2
 91
        2
 64
     7
 65
   257
 75
     1
175
     1
 42
40.0
 92
        8
 66
     7
 43
1.0
 76
     1
 77
     6
 78
     2
 67
     7
 79
     3
170
     0
171
     0
290
     0
174
     0
 93
        1
 44
0.0
173
     0
291
     0
 45
0.0
  0
VISUALSTYLE
  5
35
102
{ACAD_REACTORS
330
2A
102
}
102
{ACAD_XDICTIONARY
360
91
102
}
330
2A
100
AcDbVisualStyle
  2
Dim
 70
    11
 71
     2
 72
     2
 73
     0
 90
        0
 40
-0.6
 41
-30.0
 62
     5
 63
     7
421
 16777215
 74
     1
 91
        4
 64
     7
 65
   257
 75
     1
175
     1
 42
1.0
 92
        8
 66
     7
 43
1.0
 76
     1
 77
     6
 78
     2
 67
     7
 79
     5
170
     0
171
     0
290
     0
174
     0
 93
        1
 44
-50.0
173
     0
291
     1
 45
0.0
  0
VISUALSTYLE
  5
39
102
{ACAD_REACTORS
330
2A
102
}
102
{ACAD_XDICTIONARY
360
99
102
}
330
2A
100
AcDbVisualStyle
  2
Facepattern
 70
    15
 71
     2
 72
     2
 73
     0
 90
        0
 40
-0.6
 41
-30.0
 62
     5
 63
     7
421
 16777215
 74
     1
 91
        4
 64
     7
 65
   257
 75
     1
175
     1
 42
1.0
 92
        8
 66
     7
 43
1.0
 76
     1
 77
     6
 78
     2
 67
     7
 79
     5
170
     0
171
     0
290
     0
174
     0
 93
        1
 44
0.0
173
     0
291
     1
 45
0.0
  0
VISUALSTYLE
  5
2B
102
{ACAD_REACTORS
330
2A
102
}
102
{ACAD_XDICTIONARY
360
7D
102
}
330
2A
100
AcDbVisualStyle
  2
Flat
 70
     0
 71
     2
 72
     1
 73
     1
 90
        2
 40
-0.6
 41
30.0
 62
     5
 63
     7
421
 16777215
 74
     0
 91
        4
 64
     7
 65
   257
 75
     1
175
     1
 42
1.0
 92
        8
 66
     7
 43
1.0
 76
     1
 77
     6
 78
     2
 67
     7
 79
     5
170
     0
171
     0
290
     0
174
     0
 93
       13
 44
0.0
173
     0
291
     1
 45
0.0
  0
VISUALSTYLE
  5
2C
102
{ACAD_REACTORS
330
2A
102
}
102
{ACAD_XDICTIONARY
360
7F
102
}
330
2A
100
AcDbVisualStyle
  2
FlatWithEdges
 70
     1
 71
     2
 72
     1
 73
     1
 90
        2
 40
-0.6
 41
30.0
 62
     5
 63
     7
421
 16777215
 74
     1
 91
        4
 64
     7
 65
   257
 75
     1
175
     1
 42
1.0
 92
        0
 66
   257
 43
1.0
 76
     1
 77
     6
 78
     2
 67
     7
 79
     5
170
     0
171
     0
290
     0
174
     0
 93
       13
 44
0.0
173
     0
291
     1
 45
0.0
  0
VISUALSTYLE
  5
2D
102
{ACAD_REACTORS
330
2A
102
}
102
{ACAD_XDICTIONARY
360
81
102
}
330
2A
100
AcDbVisualStyle
  2
Gouraud
 70
     2
 71
     2
 72
     2
 73
     1
 90
        2
 40
-0.6
 41
30.0
 62
     5
 63
     7
421
 16777215
 74
     0
 91
        4
 64
     7
 65
   257
 75
     1
175
     1
 42
1.0
 92
        0
 66
     7
 43
1.0
 76
     1
 77
     6
 78
     2
 67
     7
 79
     5
170
     0
171
     0
290
     0
174
     0
 93
       13
 44
0.0
173
     0
291
     1
 45
0.0
  0
VISUALSTYLE
  5
2E
102
{ACAD_REACTORS
330
2A
102
}
102
{ACAD_XDICTIONARY
360
83
102
}
330
2A
100
AcDbVisualStyle
  2
GouraudWithEdges
 70
     3
 71
     2
 72
     2
 73
     1
 90
        2
 40
-0.6
 41
30.0
 62
     5
 63
     7
421
 16777215
 74
     1
 91
        4
 64
     7
 65
   257
 75
     1
175
     1
 42
1.0
 92
        0
 66
   257
 43
1.0
 76
     1
 77
     6
 78
     2
 67
     7
 79
     5
170
     0
171
     0
290
     0
174
     0
 93
       13
 44
0.0
173
     0
291
     1
 45
0.0
  0
VISUALSTYLE
  5
38
102
{ACAD_REACTORS
330
2A
102
}
102
{ACAD_XDICTIONARY
360
97
102
}
330
2A
100
AcDbVisualStyle
  2
Linepattern
 70
    14
 71
     2
 72
     2
 73
     0
 90
        0
 40
-0.6
 41
-30.0
 62
     5
 63
     7
421
 16777215
 74
     1
 91
        4
 64
     7
 65
   257
 75
     7
175
     7
 42
1.0
 92
        8
 66
     7
 43
1.0
 76
     1
 77
     6
 78
     2
 67
     7
 79
     5
170
     0
171
     0
290
     0
174
     0
 93
        1
 44
0.0
173
     0
291
     1
 45
0.0
  0
VISUALSTYLE
  5
33
102
{ACAD_REACTORS
330
2A
102
}
102
{ACAD_XDICTIONARY
360
8D
102
}
330
2A
100
AcDbVisualStyle
  2
Realistic
 70
     8
 71
     2
 72
     2
 73
     0
 90
        0
 40
-0.6
 41
-30.0
 62
     5
 63
     7
421
 16777215
 74
     1
 91
        0
 64
     7
 65
   257
 75
     1
175
     1
 42
1.0
 92
        8
 66
     8
424
  7895160
 43
1.0
 76
     1
 77
     6
 78
     2
 67
     7
 79
     5
170
     0
171
     0
290
     0
174
     0
 93
       13
 44
0.0
173
     0
291
     0
 45
0.0
  0
VISUALSTYLE
  5
37
102
{ACAD_REACTORS
330
2A
102
}
102
{ACAD_XDICTIONARY
360
95
102
}
330
2A
100
AcDbVisualStyle
  2
Thicken
 70
    13
 71
     2
 72
     2
 73
     0
 90
        0
 40
-0.6
 41
-30.0
 62
     5
 63
     7
421
 16777215
 74
     1
 91
        4
 64
     7
 65
   257
 75
     1
175
     1
 42
1.0
 92
       12
 66
     7
 43
1.0
 76
     1
 77
     6
 78
     2
 67
     7
 79
     5
170
     0
171
     0
290
     0
174
     0
 93
        1
 44
0.0
173
     0
291
     1
 45
0.0
  0
DICTIONARY
  5
85
330
2F
100
AcDbDictionary
280
     1
281
     1
  3
ACAD_XREC_ROUNDTRIP
360
86
  0
DICTIONARY
  5
89
330
31
100
AcDbDictionary
280
     1
281
     1
  3
ACAD_XREC_ROUNDTRIP
360
8A
  0
DICTIONARY
  5
87
330
30
100
AcDbDictionary
280
     1
281
     1
  3
ACAD_XREC_ROUNDTRIP
360
88
  0
DICTIONARY
  5
8B
330
32
100
AcDbDictionary
280
     1
281
     1
  3
ACAD_XREC_ROUNDTRIP
360
8C
  0
DICTIONARY
  5
93
330
36
100
AcDbDictionary
280
     1
281
     1
  3
ACAD_XREC_ROUNDTRIP
360
94
  0
DICTIONARY
  5
9B
330
3A
100
AcDbDictionary
280
     1
281
     1
  3
ACAD_XREC_ROUNDTRIP
360
9C
  0
DICTIONARY
  5
8F
330
34
100
AcDbDictionary
280
     1
281
     1
  3
ACAD_XREC_ROUNDTRIP
360
90
  0
DICTIONARY
  5
91
330
35
100
AcDbDictionary
280
     1
281
     1
  3
ACAD_XREC_ROUNDTRIP
360
92
  0
DICTIONARY
  5
99
330
39
100
AcDbDictionary
280
     1
281
     1
  3
ACAD_XREC_ROUNDTRIP
360
9A
  0
DICTIONARY
  5
7D
330
2B
100
AcDbDictionary
280
     1
281
     1
  3
ACAD_XREC_ROUNDTRIP
360
7E
  0
DICTIONARY
  5
7F
330
2C
100
AcDbDictionary
280
     1
281
     1
  3
ACAD_XREC_ROUNDTRIP
360
80
  0
DICTIONARY
  5
81
330
2D
100
AcDbDictionary
280
     1
281
     1
  3
ACAD_XREC_ROUNDTRIP
360
82
  0
DICTIONARY
  5
83
330
2E
100
AcDbDictionary
280
     1
281
     1
  3
ACAD_XREC_ROUNDTRIP
360
84
  0
DICTIONARY
  5
97
330
38
100
AcDbDictionary
280
     1
281
     1
  3
ACAD_XREC_ROUNDTRIP
360
98
  0
DICTIONARY
  5
8D
330
33
100
AcDbDictionary
280
     1
281
     1
  3
ACAD_XREC_ROUNDTRIP
360
8E
  0
DICTIONARY
  5
95
330
37
100
AcDbDictionary
280
     1
281
     1
  3
ACAD_XREC_ROUNDTRIP
360
96
  0
XRECORD
  5
86
102
{ACAD_REACTORS
330
85
102
}
330
85
100
AcDbXrecord
280
     1
102
RTVSPropertyOp0
 70
     1
102
RTVSPropertyOp1
 70
     1
102
RTVSPropertyOp2
 70
     1
102
RTVSPropertyOp3
 70
     1
102
RTVSPropertyOp4
 70
     1
102
RTVSPropertyOp5
 70
     1
102
RTVSPropertyOp6
 70
     1
102
RTVSPropertyOp7
 70
     1
102
RTVSPropertyOp8
 70
     1
102
RTVSPropertyOp9
 70
     1
102
RTVSPropertyOp10
 70
     1
102
RTVSPropertyOp11
 70
     1
102
RTVSPropertyOp12
 70
     1
102
RTVSPropertyOp13
 70
     1
102
RTVSPropertyOp14
 70
     1
102
RTVSPropertyOp15
 70
     1
102
RTVSPropertyOp16
 70
     1
102
RTVSPropertyOp17
 70
     1
102
RTVSPropertyOp18
 70
     1
102
RTVSPropertyOp19
 70
     1
102
RTVSPropertyOp20
 70
     1
102
RTVSPropertyOp21
 70
     1
102
RTVSPropertyOp22
 70
     1
102
RTVSPropertyOp23
 70
     1
102
RTVSPropertyOp24
 70
     1
102
RTVSPropertyOp25
 70
     1
102
RTVSPropertyOp26
 70
     1
102
RTVSPropertyOp27
 70
     1
  0
XRECORD
  5
8A
102
{ACAD_REACTORS
330
89
102
}
330
89
100
AcDbXrecord
280
     1
102
RTVSPropertyOp0
 70
     1
102
RTVSPropertyOp1
 70
     1
102
RTVSPropertyOp2
 70
     1
102
RTVSPropertyOp3
 70
     1
102
RTVSPropertyOp4
 70
     1
102
RTVSPropertyOp5
 70
     1
102
RTVSPropertyOp6
 70
     1
102
RTVSPropertyOp7
 70
     1
102
RTVSPropertyOp8
 70
     1
102
RTVSPropertyOp9
 70
     1
102
RTVSPropertyOp10
 70
     1
102
RTVSPropertyOp11
 70
     1
102
RTVSPropertyOp12
 70
     1
102
RTVSPropertyOp13
 70
     1
102
RTVSPropertyOp14
 70
     1
102
RTVSPropertyOp15
 70
     1
102
RTVSPropertyOp16
 70
     1
102
RTVSPropertyOp17
 70
     1
102
RTVSPropertyOp18
 70
     1
102
RTVSPropertyOp19
 70
     1
102
RTVSPropertyOp20
 70
     1
102
RTVSPropertyOp21
 70
     1
102
RTVSPropertyOp22
 70
     1
102
RTVSPropertyOp23
 70
     1
102
RTVSPropertyOp24
 70
     1
102
RTVSPropertyOp25
 70
     1
102
RTVSPropertyOp26
 70
     1
102
RTVSPropertyOp27
 70
     1
  0
XRECORD
  5
88
102
{ACAD_REACTORS
330
87
102
}
330
87
100
AcDbXrecord
280
     1
102
RTVSPropertyOp0
 70
     1
102
RTVSPropertyOp1
 70
     1
102
RTVSPropertyOp2
 70
     1
102
RTVSPropertyOp3
 70
     1
102
RTVSPropertyOp4
 70
     1
102
RTVSPropertyOp5
 70
     1
102
RTVSPropertyOp6
 70
     1
102
RTVSPropertyOp7
 70
     1
102
RTVSPropertyOp8
 70
     1
102
RTVSPropertyOp9
 70
     1
102
RTVSPropertyOp10
 70
     1
102
RTVSPropertyOp11
 70
     1
102
RTVSPropertyOp12
 70
     1
102
RTVSPropertyOp13
 70
     1
102
RTVSPropertyOp14
 70
     1
102
RTVSPropertyOp15
 70
     1
102
RTVSPropertyOp16
 70
     1
102
RTVSPropertyOp17
 70
     1
102
RTVSPropertyOp18
 70
     1
102
RTVSPropertyOp19
 70
     1
102
RTVSPropertyOp20
 70
     1
102
RTVSPropertyOp21
 70
     1
102
RTVSPropertyOp22
 70
     1
102
RTVSPropertyOp23
 70
     1
102
RTVSPropertyOp24
 70
     1
102
RTVSPropertyOp25
 70
     1
102
RTVSPropertyOp26
 70
     1
102
RTVSPropertyOp27
 70
     1
  0
XRECORD
  5
8C
102
{ACAD_REACTORS
330
8B
102
}
330
8B
100
AcDbXrecord
280
     1
102
RTVSPropertyOp0
 70
     1
102
RTVSPropertyOp1
 70
     1
102
RTVSPropertyOp2
 70
     1
102
RTVSPropertyOp3
 70
     1
102
RTVSPropertyOp4
 70
     1
102
RTVSPropertyOp5
 70
     1
102
RTVSPropertyOp6
 70
     1
102
RTVSPropertyOp7
 70
     1
102
RTVSPropertyOp8
 70
     1
102
RTVSPropertyOp9
 70
     1
102
RTVSPropertyOp10
 70
     1
102
RTVSPropertyOp11
 70
     1
102
RTVSPropertyOp12
 70
     1
102
RTVSPropertyOp13
 70
     1
102
RTVSPropertyOp14
 70
     1
102
RTVSPropertyOp15
 70
     1
102
RTVSPropertyOp16
 70
     1
102
RTVSPropertyOp17
 70
     1
102
RTVSPropertyOp18
 70
     1
102
RTVSPropertyOp19
 70
     1
102
RTVSPropertyOp20
 70
     1
102
RTVSPropertyOp21
 70
     1
102
RTVSPropertyOp22
 70
     1
102
RTVSPropertyOp23
 70
     1
102
RTVSPropertyOp24
 70
     1
102
RTVSPropertyOp25
 70
     1
102
RTVSPropertyOp26
 70
     1
102
RTVSPropertyOp27
 70
     1
  0
XRECORD
  5
94
102
{ACAD_REACTORS
330
93
102
}
330
93
100
AcDbXrecord
280
     1
102
RTVSPropertyOp0
 70
     1
102
RTVSPropertyOp1
 70
     1
102
RTVSPropertyOp2
 70
     1
102
RTVSPropertyOp3
 70
     1
102
RTVSPropertyOp4
 70
     1
102
RTVSPropertyOp5
 70
     1
102
RTVSPropertyOp6
 70
     1
102
RTVSPropertyOp7
 70
     1
102
RTVSPropertyOp8
 70
     1
102
RTVSPropertyOp9
 70
     1
102
RTVSPropertyOp10
 70
     1
102
RTVSPropertyOp11
 70
     1
102
RTVSPropertyOp12
 70
     1
102
RTVSPropertyOp13
 70
     1
102
RTVSPropertyOp14
 70
     1
102
RTVSPropertyOp15
 70
     1
102
RTVSPropertyOp16
 70
     1
102
RTVSPropertyOp17
 70
     1
102
RTVSPropertyOp18
 70
     1
102
RTVSPropertyOp19
 70
     1
102
RTVSPropertyOp20
 70
     1
102
RTVSPropertyOp21
 70
     1
102
RTVSPropertyOp22
 70
     1
102
RTVSPropertyOp23
 70
     1
102
RTVSPropertyOp24
 70
     1
102
RTVSPropertyOp25
 70
     1
102
RTVSPropertyOp26
 70
     1
102
RTVSPropertyOp27
 70
     1
  0
XRECORD
  5
9C
102
{ACAD_REACTORS
330
9B
102
}
330
9B
100
AcDbXrecord
280
     1
102
RTVSPropertyOp0
 70
     1
102
RTVSPropertyOp1
 70
     1
102
RTVSPropertyOp2
 70
     1
102
RTVSPropertyOp3
 70
     1
102
RTVSPropertyOp4
 70
     1
102
RTVSPropertyOp5
 70
     1
102
RTVSPropertyOp6
 70
     1
102
RTVSPropertyOp7
 70
     1
102
RTVSPropertyOp8
 70
     1
102
RTVSPropertyOp9
 70
     1
102
RTVSPropertyOp10
 70
     1
102
RTVSPropertyOp11
 70
     1
102
RTVSPropertyOp12
 70
     1
102
RTVSPropertyOp13
 70
     1
102
RTVSPropertyOp14
 70
     1
102
RTVSPropertyOp15
 70
     1
102
RTVSPropertyOp16
 70
     1
102
RTVSPropertyOp17
 70
     1
102
RTVSPropertyOp18
 70
     1
102
RTVSPropertyOp19
 70
     1
102
RTVSPropertyOp20
 70
     1
102
RTVSPropertyOp21
 70
     1
102
RTVSPropertyOp22
 70
     1
102
RTVSPropertyOp23
 70
     1
102
RTVSPropertyOp24
 70
     1
102
RTVSPropertyOp25
 70
     1
102
RTVSPropertyOp26
 70
     1
102
RTVSPropertyOp27
 70
     1
  0
XRECORD
  5
90
102
{ACAD_REACTORS
330
8F
102
}
330
8F
100
AcDbXrecord
280
     1
102
RTVSPropertyOp0
 70
     1
102
RTVSPropertyOp1
 70
     1
102
RTVSPropertyOp2
 70
     1
102
RTVSPropertyOp3
 70
     1
102
RTVSPropertyOp4
 70
     1
102
RTVSPropertyOp5
 70
     1
102
RTVSPropertyOp6
 70
     1
102
RTVSPropertyOp7
 70
     1
102
RTVSPropertyOp8
 70
     1
102
RTVSPropertyOp9
 70
     1
102
RTVSPropertyOp10
 70
     1
102
RTVSPropertyOp11
 70
     1
102
RTVSPropertyOp12
 70
     1
102
RTVSPropertyOp13
 70
     1
102
RTVSPropertyOp14
 70
     1
102
RTVSPropertyOp15
 70
     1
102
RTVSPropertyOp16
 70
     1
102
RTVSPropertyOp17
 70
     1
102
RTVSPropertyOp18
 70
     1
102
RTVSPropertyOp19
 70
     1
102
RTVSPropertyOp20
 70
     1
102
RTVSPropertyOp21
 70
     1
102
RTVSPropertyOp22
 70
     1
102
RTVSPropertyOp23
 70
     1
102
RTVSPropertyOp24
 70
     1
102
RTVSPropertyOp25
 70
     1
102
RTVSPropertyOp26
 70
     1
102
RTVSPropertyOp27
 70
     1
  0
XRECORD
  5
92
102
{ACAD_REACTORS
330
91
102
}
330
91
100
AcDbXrecord
280
     1
102
RTVSPropertyOp0
 70
     1
102
RTVSPropertyOp1
 70
     1
102
RTVSPropertyOp2
 70
     1
102
RTVSPropertyOp3
 70
     1
102
RTVSPropertyOp4
 70
     1
102
RTVSPropertyOp5
 70
     1
102
RTVSPropertyOp6
 70
     1
102
RTVSPropertyOp7
 70
     1
102
RTVSPropertyOp8
 70
     1
102
RTVSPropertyOp9
 70
     1
102
RTVSPropertyOp10
 70
     1
102
RTVSPropertyOp11
 70
     1
102
RTVSPropertyOp12
 70
     1
102
RTVSPropertyOp13
 70
     1
102
RTVSPropertyOp14
 70
     1
102
RTVSPropertyOp15
 70
     1
102
RTVSPropertyOp16
 70
     1
102
RTVSPropertyOp17
 70
     1
102
RTVSPropertyOp18
 70
     1
102
RTVSPropertyOp19
 70
     1
102
RTVSPropertyOp20
 70
     1
102
RTVSPropertyOp21
 70
     1
102
RTVSPropertyOp22
 70
     1
102
RTVSPropertyOp23
 70
     1
102
RTVSPropertyOp24
 70
     1
102
RTVSPropertyOp25
 70
     1
102
RTVSPropertyOp26
 70
     1
102
RTVSPropertyOp27
 70
     1
  0
XRECORD
  5
9A
102
{ACAD_REACTORS
330
99
102
}
330
99
100
AcDbXrecord
280
     1
102
RTVSPropertyOp0
 70
     1
102
RTVSPropertyOp1
 70
     1
102
RTVSPropertyOp2
 70
     1
102
RTVSPropertyOp3
 70
     1
102
RTVSPropertyOp4
 70
     1
102
RTVSPropertyOp5
 70
     1
102
RTVSPropertyOp6
 70
     1
102
RTVSPropertyOp7
 70
     1
102
RTVSPropertyOp8
 70
     1
102
RTVSPropertyOp9
 70
     1
102
RTVSPropertyOp10
 70
     1
102
RTVSPropertyOp11
 70
     1
102
RTVSPropertyOp12
 70
     1
102
RTVSPropertyOp13
 70
     1
102
RTVSPropertyOp14
 70
     1
102
RTVSPropertyOp15
 70
     1
102
RTVSPropertyOp16
 70
     1
102
RTVSPropertyOp17
 70
     1
102
RTVSPropertyOp18
 70
     1
102
RTVSPropertyOp19
 70
     1
102
RTVSPropertyOp20
 70
     1
102
RTVSPropertyOp21
 70
     1
102
RTVSPropertyOp22
 70
     1
102
RTVSPropertyOp23
 70
     1
102
RTVSPropertyOp24
 70
     1
102
RTVSPropertyOp25
 70
     1
102
RTVSPropertyOp26
 70
     1
102
RTVSPropertyOp27
 70
     1
  0
XRECORD
  5
7E
102
{ACAD_REACTORS
330
7D
102
}
330
7D
100
AcDbXrecord
280
     1
102
RTVSPropertyOp0
 70
     1
102
RTVSPropertyOp1
 70
     1
102
RTVSPropertyOp2
 70
     1
102
RTVSPropertyOp3
 70
     1
102
RTVSPropertyOp4
 70
     1
102
RTVSPropertyOp5
 70
     1
102
RTVSPropertyOp6
 70
     1
102
RTVSPropertyOp7
 70
     1
102
RTVSPropertyOp8
 70
     1
102
RTVSPropertyOp9
 70
     1
102
RTVSPropertyOp10
 70
     1
102
RTVSPropertyOp11
 70
     1
102
RTVSPropertyOp12
 70
     1
102
RTVSPropertyOp13
 70
     1
102
RTVSPropertyOp14
 70
     1
102
RTVSPropertyOp15
 70
     1
102
RTVSPropertyOp16
 70
     1
102
RTVSPropertyOp17
 70
     1
102
RTVSPropertyOp18
 70
     1
102
RTVSPropertyOp19
 70
     1
102
RTVSPropertyOp20
 70
     1
102
RTVSPropertyOp21
 70
     1
102
RTVSPropertyOp22
 70
     1
102
RTVSPropertyOp23
 70
     1
102
RTVSPropertyOp24
 70
     1
102
RTVSPropertyOp25
 70
     1
102
RTVSPropertyOp26
 70
     1
102
RTVSPropertyOp27
 70
     1
  0
XRECORD
  5
80
102
{ACAD_REACTORS
330
7F
102
}
330
7F
100
AcDbXrecord
280
     1
102
RTVSPropertyOp0
 70
     1
102
RTVSPropertyOp1
 70
     1
102
RTVSPropertyOp2
 70
     1
102
RTVSPropertyOp3
 70
     1
102
RTVSPropertyOp4
 70
     1
102
RTVSPropertyOp5
 70
     1
102
RTVSPropertyOp6
 70
     1
102
RTVSPropertyOp7
 70
     1
102
RTVSPropertyOp8
 70
     1
102
RTVSPropertyOp9
 70
     1
102
RTVSPropertyOp10
 70
     1
102
RTVSPropertyOp11
 70
     1
102
RTVSPropertyOp12
 70
     1
102
RTVSPropertyOp13
 70
     1
102
RTVSPropertyOp14
 70
     1
102
RTVSPropertyOp15
 70
     1
102
RTVSPropertyOp16
 70
     1
102
RTVSPropertyOp17
 70
     1
102
RTVSPropertyOp18
 70
     1
102
RTVSPropertyOp19
 70
     1
102
RTVSPropertyOp20
 70
     1
102
RTVSPropertyOp21
 70
     1
102
RTVSPropertyOp22
 70
     1
102
RTVSPropertyOp23
 70
     1
102
RTVSPropertyOp24
 70
     1
102
RTVSPropertyOp25
 70
     1
102
RTVSPropertyOp26
 70
     1
102
RTVSPropertyOp27
 70
     1
  0
XRECORD
  5
82
102
{ACAD_REACTORS
330
81
102
}
330
81
100
AcDbXrecord
280
     1
102
RTVSPropertyOp0
 70
     1
102
RTVSPropertyOp1
 70
     1
102
RTVSPropertyOp2
 70
     1
102
RTVSPropertyOp3
 70
     1
102
RTVSPropertyOp4
 70
     1
102
RTVSPropertyOp5
 70
     1
102
RTVSPropertyOp6
 70
     1
102
RTVSPropertyOp7
 70
     1
102
RTVSPropertyOp8
 70
     1
102
RTVSPropertyOp9
 70
     1
102
RTVSPropertyOp10
 70
     1
102
RTVSPropertyOp11
 70
     1
102
RTVSPropertyOp12
 70
     1
102
RTVSPropertyOp13
 70
     1
102
RTVSPropertyOp14
 70
     1
102
RTVSPropertyOp15
 70
     1
102
RTVSPropertyOp16
 70
     1
102
RTVSPropertyOp17
 70
     1
102
RTVSPropertyOp18
 70
     1
102
RTVSPropertyOp19
 70
     1
102
RTVSPropertyOp20
 70
     1
102
RTVSPropertyOp21
 70
     1
102
RTVSPropertyOp22
 70
     1
102
RTVSPropertyOp23
 70
     1
102
RTVSPropertyOp24
 70
     1
102
RTVSPropertyOp25
 70
     1
102
RTVSPropertyOp26
 70
     1
102
RTVSPropertyOp27
 70
     1
  0
XRECORD
  5
84
102
{ACAD_REACTORS
330
83
102
}
330
83
100
AcDbXrecord
280
     1
102
RTVSPropertyOp0
 70
     1
102
RTVSPropertyOp1
 70
     1
102
RTVSPropertyOp2
 70
     1
102
RTVSPropertyOp3
 70
     1
102
RTVSPropertyOp4
 70
     1
102
RTVSPropertyOp5
 70
     1
102
RTVSPropertyOp6
 70
     1
102
RTVSPropertyOp7
 70
     1
102
RTVSPropertyOp8
 70
     1
102
RTVSPropertyOp9
 70
     1
102
RTVSPropertyOp10
 70
     1
102
RTVSPropertyOp11
 70
     1
102
RTVSPropertyOp12
 70
     1
102
RTVSPropertyOp13
 70
     1
102
RTVSPropertyOp14
 70
     1
102
RTVSPropertyOp15
 70
     1
102
RTVSPropertyOp16
 70
     1
102
RTVSPropertyOp17
 70
     1
102
RTVSPropertyOp18
 70
     1
102
RTVSPropertyOp19
 70
     1
102
RTVSPropertyOp20
 70
     1
102
RTVSPropertyOp21
 70
     1
102
RTVSPropertyOp22
 70
     1
102
RTVSPropertyOp23
 70
     1
102
RTVSPropertyOp24
 70
     1
102
RTVSPropertyOp25
 70
     1
102
RTVSPropertyOp26
 70
     1
102
RTVSPropertyOp27
 70
     1
  0
XRECORD
  5
98
102
{ACAD_REACTORS
330
97
102
}
330
97
100
AcDbXrecord
280
     1
102
RTVSPropertyOp0
 70
     1
102
RTVSPropertyOp1
 70
     1
102
RTVSPropertyOp2
 70
     1
102
RTVSPropertyOp3
 70
     1
102
RTVSPropertyOp4
 70
     1
102
RTVSPropertyOp5
 70
     1
102
RTVSPropertyOp6
 70
     1
102
RTVSPropertyOp7
 70
     1
102
RTVSPropertyOp8
 70
     1
102
RTVSPropertyOp9
 70
     1
102
RTVSPropertyOp10
 70
     1
102
RTVSPropertyOp11
 70
     1
102
RTVSPropertyOp12
 70
     1
102
RTVSPropertyOp13
 70
     1
102
RTVSPropertyOp14
 70
     1
102
RTVSPropertyOp15
 70
     1
102
RTVSPropertyOp16
 70
     1
102
RTVSPropertyOp17
 70
     1
102
RTVSPropertyOp18
 70
     1
102
RTVSPropertyOp19
 70
     1
102
RTVSPropertyOp20
 70
     1
102
RTVSPropertyOp21
 70
     1
102
RTVSPropertyOp22
 70
     1
102
RTVSPropertyOp23
 70
     1
102
RTVSPropertyOp24
 70
     1
102
RTVSPropertyOp25
 70
     1
102
RTVSPropertyOp26
 70
     1
102
RTVSPropertyOp27
 70
     1
  0
XRECORD
  5
8E
102
{ACAD_REACTORS
330
8D
102
}
330
8D
100
AcDbXrecord
280
     1
102
RTVSPropertyOp0
 70
     1
102
RTVSPropertyOp1
 70
     1
102
RTVSPropertyOp2
 70
     1
102
RTVSPropertyOp3
 70
     1
102
RTVSPropertyOp4
 70
     1
102
RTVSPropertyOp5
 70
     1
102
RTVSPropertyOp6
 70
     1
102
RTVSPropertyOp7
 70
     1
102
RTVSPropertyOp8
 70
     1
102
RTVSPropertyOp9
 70
     1
102
RTVSPropertyOp10
 70
     1
102
RTVSPropertyOp11
 70
     1
102
RTVSPropertyOp12
 70
     1
102
RTVSPropertyOp13
 70
     1
102
RTVSPropertyOp14
 70
     1
102
RTVSPropertyOp15
 70
     1
102
RTVSPropertyOp16
 70
     1
102
RTVSPropertyOp17
 70
     1
102
RTVSPropertyOp18
 70
     1
102
RTVSPropertyOp19
 70
     1
102
RTVSPropertyOp20
 70
     1
102
RTVSPropertyOp21
 70
     1
102
RTVSPropertyOp22
 70
     1
102
RTVSPropertyOp23
 70
     1
102
RTVSPropertyOp24
 70
     1
102
RTVSPropertyOp25
 70
     1
102
RTVSPropertyOp26
 70
     1
102
RTVSPropertyOp27
 70
     1
  0
XRECORD
  5
96
102
{ACAD_REACTORS
330
95
102
}
330
95
100
AcDbXrecord
280
     1
102
RTVSPropertyOp0
 70
     1
102
RTVSPropertyOp1
 70
     1
102
RTVSPropertyOp2
 70
     1
102
RTVSPropertyOp3
 70
     1
102
RTVSPropertyOp4
 70
     1
102
RTVSPropertyOp5
 70
     1
102
RTVSPropertyOp6
 70
     1
102
RTVSPropertyOp7
 70
     1
102
RTVSPropertyOp8
 70
     1
102
RTVSPropertyOp9
 70
     1
102
RTVSPropertyOp10
 70
     1
102
RTVSPropertyOp11
 70
     1
102
RTVSPropertyOp12
 70
     1
102
RTVSPropertyOp13
 70
     1
102
RTVSPropertyOp14
 70
     1
102
RTVSPropertyOp15
 70
     1
102
RTVSPropertyOp16
 70
     1
102
RTVSPropertyOp17
 70
     1
102
RTVSPropertyOp18
 70
     1
102
RTVSPropertyOp19
 70
     1
102
RTVSPropertyOp20
 70
     1
102
RTVSPropertyOp21
 70
     1
102
RTVSPropertyOp22
 70
     1
102
RTVSPropertyOp23
 70
     1
102
RTVSPropertyOp24
 70
     1
102
RTVSPropertyOp25
 70
     1
102
RTVSPropertyOp26
 70
     1
102
RTVSPropertyOp27
 70
     1
  0
ENDSEC
  0
EOF
