999
\"DXF R12 Output\" (www.mydxf.blogspot.com)
 0 
SECTION
 2 
HEADER
 9 
$ACADVER
 1 
AC1009
 9 
$EXTMIN
 10 
 0 
 20 
 0 
 9 
$EXTMAX
 10 
 8.5 
 20 
 11 
 0 
ENDSEC
 0 
SECTION
 2 
ENTITIES
0
LINE
8
Layer 1
10
152.400000
20
254.528520
11
150.140766
21
254.331286
0
LINE
8
Layer 1
10
150.140766
20
254.331286
11
148.010293
21
253.762041
0
LINE
8
Layer 1
10
148.010293
20
253.762041
11
146.041887
21
252.854470
0
LINE
8
Layer 1
10
146.041887
20
252.854470
11
144.268857
21
251.642258
0
LINE
8
Layer 1
10
144.268857
20
251.642258
11
142.724509
21
250.159089
0
LINE
8
Layer 1
10
142.724509
20
250.159089
11
141.442152
21
248.438650
0
LINE
8
Layer 1
10
141.442152
20
248.438650
11
140.455092
21
246.514624
0
LINE
8
Layer 1
10
140.455092
20
246.514624
11
139.796639
21
244.420698
0
LINE
8
Layer 1
10
139.796639
20
244.420698
11
135.341709
21
243.739474
0
LINE
8
Layer 1
10
135.341709
20
243.739474
11
130.955141
21
242.859489
0
LINE
8
Layer 1
10
130.955141
20
242.859489
11
126.641728
21
241.785526
0
LINE
8
Layer 1
10
126.641728
20
241.785526
11
122.406260
21
240.522367
0
LINE
8
Layer 1
10
122.406260
20
240.522367
11
118.253529
21
239.074795
0
LINE
8
Layer 1
10
118.253529
20
239.074795
11
114.188327
21
237.447593
0
LINE
8
Layer 1
10
114.188327
20
237.447593
11
110.215444
21
235.645545
0
LINE
8
Layer 1
10
110.215444
20
235.645545
11
106.339673
21
233.673433
0
LINE
8
Layer 1
10
106.339673
20
233.673433
11
102.565805
21
231.536039
0
LINE
8
Layer 1
10
102.565805
20
231.536039
11
98.898632
21
229.238147
0
LINE
8
Layer 1
10
98.898632
20
229.238147
11
95.342944
21
226.784540
0
LINE
8
Layer 1
10
95.342944
20
226.784540
11
91.903533
21
224.180000
0
LINE
8
Layer 1
10
91.903533
20
224.180000
11
88.585192
21
221.429311
0
LINE
8
Layer 1
10
88.585192
20
221.429311
11
85.392711
21
218.537255
0
LINE
8
Layer 1
10
85.392711
20
218.537255
11
82.330881
21
215.508615
0
LINE
8
Layer 1
10
82.330881
20
215.508615
11
79.404495
21
212.348174
0
LINE
8
Layer 1
10
79.404495
20
212.348174
11
76.618344
21
209.060715
0
LINE
8
Layer 1
10
76.618344
20
209.060715
11
73.977219
21
205.651021
0
LINE
8
Layer 1
10
73.977219
20
205.651021
11
71.485912
21
202.123874
0
LINE
8
Layer 1
10
71.485912
20
202.123874
11
69.149214
21
198.484058
0
LINE
8
Layer 1
10
69.149214
20
198.484058
11
66.971917
21
194.736356
0
LINE
8
Layer 1
10
66.971917
20
194.736356
11
64.958812
21
190.885550
0
LINE
8
Layer 1
10
64.958812
20
190.885550
11
63.114691
21
186.936423
0
LINE
8
Layer 1
10
63.114691
20
186.936423
11
61.444345
21
182.893758
0
LINE
8
Layer 1
10
61.444345
20
182.893758
11
59.952565
21
178.762338
0
LINE
8
Layer 1
10
59.952565
20
178.762338
11
58.644144
21
174.546946
0
LINE
8
Layer 1
10
58.644144
20
174.546946
11
57.523872
21
170.252364
0
LINE
8
Layer 1
10
57.523872
20
170.252364
11
56.596542
21
165.883377
0
LINE
8
Layer 1
10
56.596542
20
165.883377
11
55.866944
21
161.444765
0
LINE
8
Layer 1
10
55.866944
20
161.444765
11
55.339870
21
156.941313
0
LINE
8
Layer 1
10
55.339870
20
156.941313
11
55.020112
21
152.377804
0
LINE
8
Layer 1
10
55.020112
20
152.377804
11
54.912460
21
147.759019
0
LINE
8
Layer 1
10
54.912460
20
147.759019
11
55.039376
21
142.744359
0
LINE
8
Layer 1
10
55.039376
20
142.744359
11
55.416032
21
137.795297
0
LINE
8
Layer 1
10
55.416032
20
137.795297
11
56.036289
21
132.917972
0
LINE
8
Layer 1
10
56.036289
20
132.917972
11
56.894010
21
128.118522
0
LINE
8
Layer 1
10
56.894010
20
128.118522
11
57.983056
21
123.403085
0
LINE
8
Layer 1
10
57.983056
20
123.403085
11
59.297290
21
118.777798
0
LINE
8
Layer 1
10
59.297290
20
118.777798
11
60.830573
21
114.248801
0
LINE
8
Layer 1
10
60.830573
20
114.248801
11
62.576768
21
109.822230
0
LINE
8
Layer 1
10
62.576768
20
109.822230
11
64.529736
21
105.504224
0
LINE
8
Layer 1
10
64.529736
20
105.504224
11
66.683340
21
101.300921
0
LINE
8
Layer 1
10
66.683340
20
101.300921
11
69.031441
21
97.218459
0
LINE
8
Layer 1
10
69.031441
20
97.218459
11
71.567901
21
93.262976
0
LINE
8
Layer 1
10
71.567901
20
93.262976
11
74.286583
21
89.440610
0
LINE
8
Layer 1
10
74.286583
20
89.440610
11
77.181348
21
85.757499
0
LINE
8
Layer 1
10
77.181348
20
85.757499
11
80.246058
21
82.219781
0
LINE
8
Layer 1
10
80.246058
20
82.219781
11
83.474576
21
78.833595
0
LINE
8
Layer 1
10
83.474576
20
78.833595
11
86.860762
21
75.605077
0
LINE
8
Layer 1
10
86.860762
20
75.605077
11
90.398480
21
72.540367
0
LINE
8
Layer 1
10
90.398480
20
72.540367
11
94.081591
21
69.645602
0
LINE
8
Layer 1
10
94.081591
20
69.645602
11
97.903957
21
66.926921
0
LINE
8
Layer 1
10
97.903957
20
66.926921
11
101.859440
21
64.390460
0
LINE
8
Layer 1
10
101.859440
20
64.390460
11
105.941902
21
62.042359
0
LINE
8
Layer 1
10
105.941902
20
62.042359
11
110.145205
21
59.888755
0
LINE
8
Layer 1
10
110.145205
20
59.888755
11
114.463210
21
57.935787
0
LINE
8
Layer 1
10
114.463210
20
57.935787
11
118.889781
21
56.189592
0
LINE
8
Layer 1
10
118.889781
20
56.189592
11
123.418779
21
54.656309
0
LINE
8
Layer 1
10
123.418779
20
54.656309
11
128.044066
21
53.342075
0
LINE
8
Layer 1
10
128.044066
20
53.342075
11
132.759503
21
52.253029
0
LINE
8
Layer 1
10
132.759503
20
52.253029
11
137.558953
21
51.395308
0
LINE
8
Layer 1
10
137.558953
20
51.395308
11
142.436278
21
50.775051
0
LINE
8
Layer 1
10
142.436278
20
50.775051
11
147.385340
21
50.398395
0
LINE
8
Layer 1
10
147.385340
20
50.398395
11
152.400000
21
50.271480
0
LINE
8
Layer 1
10
152.400000
20
50.271480
11
157.414661
21
50.398395
0
LINE
8
Layer 1
10
157.414661
20
50.398395
11
162.363722
21
50.775051
0
LINE
8
Layer 1
10
162.363722
20
50.775051
11
167.241047
21
51.395308
0
LINE
8
Layer 1
10
167.241047
20
51.395308
11
172.040498
21
52.253029
0
LINE
8
Layer 1
10
172.040498
20
52.253029
11
176.755935
21
53.342075
0
LINE
8
Layer 1
10
176.755935
20
53.342075
11
181.381222
21
54.656309
0
LINE
8
Layer 1
10
181.381222
20
54.656309
11
185.910219
21
56.189592
0
LINE
8
Layer 1
10
185.910219
20
56.189592
11
190.336790
21
57.935787
0
LINE
8
Layer 1
10
190.336790
20
57.935787
11
194.654796
21
59.888755
0
LINE
8
Layer 1
10
194.654796
20
59.888755
11
198.858099
21
62.042359
0
LINE
8
Layer 1
10
198.858099
20
62.042359
11
202.940560
21
64.390460
0
LINE
8
Layer 1
10
202.940560
20
64.390460
11
206.896043
21
66.926921
0
LINE
8
Layer 1
10
206.896043
20
66.926921
11
210.718409
21
69.645602
0
LINE
8
Layer 1
10
210.718409
20
69.645602
11
214.401520
21
72.540367
0
LINE
8
Layer 1
10
214.401520
20
72.540367
11
217.939237
21
75.605077
0
LINE
8
Layer 1
10
217.939237
20
75.605077
11
221.325423
21
78.833595
0
LINE
8
Layer 1
10
221.325423
20
78.833595
11
224.553941
21
82.219781
0
LINE
8
Layer 1
10
224.553941
20
82.219781
11
227.618651
21
85.757499
0
LINE
8
Layer 1
10
227.618651
20
85.757499
11
230.513415
21
89.440610
0
LINE
8
Layer 1
10
230.513415
20
89.440610
11
233.232097
21
93.262976
0
LINE
8
Layer 1
10
233.232097
20
93.262976
11
235.768557
21
97.218459
0
LINE
8
Layer 1
10
235.768557
20
97.218459
11
238.116658
21
101.300921
0
LINE
8
Layer 1
10
238.116658
20
101.300921
11
240.270262
21
105.504224
0
LINE
8
Layer 1
10
240.270262
20
105.504224
11
242.223230
21
109.822230
0
LINE
8
Layer 1
10
242.223230
20
109.822230
11
243.969425
21
114.248801
0
LINE
8
Layer 1
10
243.969425
20
114.248801
11
245.502708
21
118.777798
0
LINE
8
Layer 1
10
245.502708
20
118.777798
11
246.816942
21
123.403085
0
LINE
8
Layer 1
10
246.816942
20
123.403085
11
247.905989
21
128.118522
0
LINE
8
Layer 1
10
247.905989
20
128.118522
11
248.763710
21
132.917972
0
LINE
8
Layer 1
10
248.763710
20
132.917972
11
249.383967
21
137.795297
0
LINE
8
Layer 1
10
249.383967
20
137.795297
11
249.760623
21
142.744359
0
LINE
8
Layer 1
10
249.760623
20
142.744359
11
249.887540
21
147.759019
0
LINE
8
Layer 1
10
249.887540
20
147.759019
11
249.779889
21
152.377804
0
LINE
8
Layer 1
10
249.779889
20
152.377804
11
249.460131
21
156.941313
0
LINE
8
Layer 1
10
249.460131
20
156.941313
11
248.933058
21
161.444765
0
LINE
8
Layer 1
10
248.933058
20
161.444765
11
248.203460
21
165.883377
0
LINE
8
Layer 1
10
248.203460
20
165.883377
11
247.276130
21
170.252364
0
LINE
8
Layer 1
10
247.276130
20
170.252364
11
246.155858
21
174.546946
0
LINE
8
Layer 1
10
246.155858
20
174.546946
11
244.847437
21
178.762338
0
LINE
8
Layer 1
10
244.847437
20
178.762338
11
243.355658
21
182.893758
0
LINE
8
Layer 1
10
243.355658
20
182.893758
11
241.685312
21
186.936423
0
LINE
8
Layer 1
10
241.685312
20
186.936423
11
239.841191
21
190.885550
0
LINE
8
Layer 1
10
239.841191
20
190.885550
11
237.828086
21
194.736356
0
LINE
8
Layer 1
10
237.828086
20
194.736356
11
235.650789
21
198.484058
0
LINE
8
Layer 1
10
235.650789
20
198.484058
11
233.314091
21
202.123874
0
LINE
8
Layer 1
10
233.314091
20
202.123874
11
230.822783
21
205.651021
0
LINE
8
Layer 1
10
230.822783
20
205.651021
11
228.181658
21
209.060715
0
LINE
8
Layer 1
10
228.181658
20
209.060715
11
225.395507
21
212.348174
0
LINE
8
Layer 1
10
225.395507
20
212.348174
11
222.469121
21
215.508615
0
LINE
8
Layer 1
10
222.469121
20
215.508615
11
219.407292
21
218.537255
0
LINE
8
Layer 1
10
219.407292
20
218.537255
11
216.214810
21
221.429311
0
LINE
8
Layer 1
10
216.214810
20
221.429311
11
212.896469
21
224.180000
0
LINE
8
Layer 1
10
212.896469
20
224.180000
11
209.457058
21
226.784540
0
LINE
8
Layer 1
10
209.457058
20
226.784540
11
205.901370
21
229.238147
0
LINE
8
Layer 1
10
205.901370
20
229.238147
11
202.234197
21
231.536039
0
LINE
8
Layer 1
10
202.234197
20
231.536039
11
198.460329
21
233.673433
0
LINE
8
Layer 1
10
198.460329
20
233.673433
11
194.584558
21
235.645545
0
LINE
8
Layer 1
10
194.584558
20
235.645545
11
190.611675
21
237.447593
0
LINE
8
Layer 1
10
190.611675
20
237.447593
11
186.546473
21
239.074795
0
LINE
8
Layer 1
10
186.546473
20
239.074795
11
182.393742
21
240.522367
0
LINE
8
Layer 1
10
182.393742
20
240.522367
11
178.158274
21
241.785526
0
LINE
8
Layer 1
10
178.158274
20
241.785526
11
173.844861
21
242.859489
0
LINE
8
Layer 1
10
173.844861
20
242.859489
11
169.458294
21
243.739474
0
LINE
8
Layer 1
10
169.458294
20
243.739474
11
165.003364
21
244.420698
0
LINE
8
Layer 1
10
165.003364
20
244.420698
11
164.344909
21
246.514624
0
LINE
8
Layer 1
10
164.344909
20
246.514624
11
163.357849
21
248.438650
0
LINE
8
Layer 1
10
163.357849
20
248.438650
11
162.075492
21
250.159089
0
LINE
8
Layer 1
10
162.075492
20
250.159089
11
160.531144
21
251.642258
0
LINE
8
Layer 1
10
160.531144
20
251.642258
11
158.758113
21
252.854470
0
LINE
8
Layer 1
10
158.758113
20
252.854470
11
156.789707
21
253.762041
0
LINE
8
Layer 1
10
156.789707
20
253.762041
11
154.659234
21
254.331286
0
LINE
8
Layer 1
10
154.659234
20
254.331286
11
152.400000
21
254.528520
0
LINE
8
Layer 1
10
152.400000
20
254.528520
11
152.400000
21
254.528520
0
LINE
8
Layer 1
10
152.400000
20
248.208887
11
153.795679
21
247.926045
0
LINE
8
Layer 1
10
153.795679
20
247.926045
11
154.937246
21
247.155425
0
LINE
8
Layer 1
10
154.937246
20
247.155425
11
155.707865
21
246.013861
0
LINE
8
Layer 1
10
155.707865
20
246.013861
11
155.990702
21
244.618185
0
LINE
8
Layer 1
10
155.990702
20
244.618185
11
155.707863
21
243.225310
0
LINE
8
Layer 1
10
155.707863
20
243.225310
11
154.937244
21
242.089915
0
LINE
8
Layer 1
10
154.937244
20
242.089915
11
153.795678
21
241.325469
0
LINE
8
Layer 1
10
153.795678
20
241.325469
11
152.400000
21
241.045438
0
LINE
8
Layer 1
10
152.400000
20
241.045438
11
151.004320
21
241.325470
0
LINE
8
Layer 1
10
151.004320
20
241.325470
11
149.862754
21
242.089917
0
LINE
8
Layer 1
10
149.862754
20
242.089917
11
149.092137
21
243.225312
0
LINE
8
Layer 1
10
149.092137
20
243.225312
11
148.809301
21
244.618185
0
LINE
8
Layer 1
10
148.809301
20
244.618185
11
149.092139
21
246.013863
0
LINE
8
Layer 1
10
149.092139
20
246.013863
11
149.862758
21
247.155430
0
LINE
8
Layer 1
10
149.862758
20
247.155430
11
151.004323
21
247.926050
0
LINE
8
Layer 1
10
151.004323
20
247.926050
11
152.400000
21
248.208887
0
LINE
8
Layer 1
10
152.400000
20
248.208887
11
152.400000
21
248.208887
0
LINE
8
Layer 1
10
155.865026
20
232.122545
11
158.558055
21
231.943010
0
LINE
8
Layer 1
10
158.558055
20
231.943010
11
162.684911
21
231.440982
0
LINE
8
Layer 1
10
162.684911
20
231.440982
11
166.717896
21
230.786006
0
LINE
8
Layer 1
10
166.717896
20
230.786006
11
170.657544
21
229.977782
0
LINE
8
Layer 1
10
170.657544
20
229.977782
11
174.504386
21
229.016013
0
LINE
8
Layer 1
10
174.504386
20
229.016013
11
178.258954
21
227.900400
0
LINE
8
Layer 1
10
178.258954
20
227.900400
11
181.921783
21
226.630646
0
LINE
8
Layer 1
10
181.921783
20
226.630646
11
185.493403
21
225.206453
0
LINE
8
Layer 1
10
185.493403
20
225.206453
11
188.974347
21
223.627523
0
LINE
8
Layer 1
10
188.974347
20
223.627523
11
192.365148
21
221.893557
0
LINE
8
Layer 1
10
192.365148
20
221.893557
11
195.666337
21
220.004258
0
LINE
8
Layer 1
10
195.666337
20
220.004258
11
198.878448
21
217.959327
0
LINE
8
Layer 1
10
198.878448
20
217.959327
11
202.002013
21
215.758467
0
LINE
8
Layer 1
10
202.002013
20
215.758467
11
205.037563
21
213.401380
0
LINE
8
Layer 1
10
205.037563
20
213.401380
11
207.985633
21
210.887767
0
LINE
8
Layer 1
10
207.985633
20
210.887767
11
210.846753
21
208.217331
0
LINE
8
Layer 1
10
210.846753
20
208.217331
11
213.621456
21
205.389774
0
LINE
8
Layer 1
10
213.621456
20
205.389774
11
216.447654
21
202.253954
0
LINE
8
Layer 1
10
216.447654
20
202.253954
11
219.088631
21
199.056842
0
LINE
8
Layer 1
10
219.088631
20
199.056842
11
221.544751
21
195.797644
0
LINE
8
Layer 1
10
221.544751
20
195.797644
11
223.816377
21
192.475569
0
LINE
8
Layer 1
10
223.816377
20
192.475569
11
225.903871
21
189.089824
0
LINE
8
Layer 1
10
225.903871
20
189.089824
11
227.807596
21
185.639618
0
LINE
8
Layer 1
10
227.807596
20
185.639618
11
229.527916
21
182.124158
0
LINE
8
Layer 1
10
229.527916
20
182.124158
11
231.065192
21
178.542653
0
LINE
8
Layer 1
10
231.065192
20
178.542653
11
232.419788
21
174.894309
0
LINE
8
Layer 1
10
232.419788
20
174.894309
11
233.592066
21
171.178335
0
LINE
8
Layer 1
10
233.592066
20
171.178335
11
234.582390
21
167.393939
0
LINE
8
Layer 1
10
234.582390
20
167.393939
11
235.391121
21
163.540329
0
LINE
8
Layer 1
10
235.391121
20
163.540329
11
236.018624
21
159.616712
0
LINE
8
Layer 1
10
236.018624
20
159.616712
11
236.465260
21
155.622297
0
LINE
8
Layer 1
10
236.465260
20
155.622297
11
236.731393
21
151.556291
0
LINE
8
Layer 1
10
236.731393
20
151.556291
11
236.817385
21
147.417903
0
LINE
8
Layer 1
10
236.817385
20
147.417903
11
236.703063
21
143.047750
0
LINE
8
Layer 1
10
236.703063
20
143.047750
11
236.370181
21
138.720505
0
LINE
8
Layer 1
10
236.370181
20
138.720505
11
235.821391
21
134.442320
0
LINE
8
Layer 1
10
235.821391
20
134.442320
11
235.059344
21
130.219344
0
LINE
8
Layer 1
10
235.059344
20
130.219344
11
234.086694
21
126.057728
0
LINE
8
Layer 1
10
234.086694
20
126.057728
11
232.906093
21
121.963622
0
LINE
8
Layer 1
10
232.906093
20
121.963622
11
231.520192
21
117.943177
0
LINE
8
Layer 1
10
231.520192
20
117.943177
11
229.931643
21
114.002543
0
LINE
8
Layer 1
10
229.931643
20
114.002543
11
228.143099
21
110.147870
0
LINE
8
Layer 1
10
228.143099
20
110.147870
11
226.157212
21
106.385310
0
LINE
8
Layer 1
10
226.157212
20
106.385310
11
223.976634
21
102.721012
0
LINE
8
Layer 1
10
223.976634
20
102.721012
11
221.604017
21
99.161127
0
LINE
8
Layer 1
10
221.604017
20
99.161127
11
219.042013
21
95.711805
0
LINE
8
Layer 1
10
219.042013
20
95.711805
11
216.293274
21
92.379198
0
LINE
8
Layer 1
10
216.293274
20
92.379198
11
213.360452
21
89.169454
0
LINE
8
Layer 1
10
213.360452
20
89.169454
11
210.246200
21
86.088725
0
LINE
8
Layer 1
10
210.246200
20
86.088725
11
207.050473
21
83.252070
0
LINE
8
Layer 1
10
207.050473
20
83.252070
11
208.738103
21
85.747609
0
LINE
8
Layer 1
10
208.738103
20
85.747609
11
210.440390
21
89.577169
0
LINE
8
Layer 1
10
210.440390
20
89.577169
11
212.587618
21
95.579153
0
LINE
8
Layer 1
10
212.587618
20
95.579153
11
213.592496
21
99.004549
0
LINE
8
Layer 1
10
213.592496
20
99.004549
11
214.425904
21
102.504743
0
LINE
8
Layer 1
10
214.425904
20
102.504743
11
214.993607
21
105.923635
0
LINE
8
Layer 1
10
214.993607
20
105.923635
11
215.201367
21
109.105121
0
LINE
8
Layer 1
10
215.201367
20
109.105121
11
215.133887
21
113.814091
0
LINE
8
Layer 1
10
215.133887
20
113.814091
11
214.872562
21
117.292839
0
LINE
8
Layer 1
10
214.872562
20
117.292839
11
214.308848
21
120.394104
0
LINE
8
Layer 1
10
214.308848
20
120.394104
11
213.334202
21
123.970624
0
LINE
8
Layer 1
10
213.334202
20
123.970624
11
211.228779
21
129.907000
0
LINE
8
Layer 1
10
211.228779
20
129.907000
11
208.791962
21
135.371101
0
LINE
8
Layer 1
10
208.791962
20
135.371101
11
207.520618
21
137.586829
0
LINE
8
Layer 1
10
207.520618
20
137.586829
11
205.917366
21
140.009240
0
LINE
8
Layer 1
10
205.917366
20
140.009240
11
201.971800
21
145.162928
0
LINE
8
Layer 1
10
201.971800
20
145.162928
11
197.468590
21
150.209800
0
LINE
8
Layer 1
10
197.468590
20
150.209800
11
195.168285
21
152.498690
0
LINE
8
Layer 1
10
195.168285
20
152.498690
11
192.921066
21
154.527490
0
LINE
8
Layer 1
10
192.921066
20
154.527490
11
189.240597
21
157.669354
0
LINE
8
Layer 1
10
189.240597
20
157.669354
11
189.581711
21
148.584880
0
LINE
8
Layer 1
10
189.581711
20
148.584880
11
189.666996
21
143.191575
0
LINE
8
Layer 1
10
189.666996
20
143.191575
11
189.438679
21
138.374262
0
LINE
8
Layer 1
10
189.438679
20
138.374262
11
188.836193
21
133.932222
0
LINE
8
Layer 1
10
188.836193
20
133.932222
11
187.798975
21
129.664737
0
LINE
8
Layer 1
10
187.798975
20
129.664737
11
186.266458
21
125.371087
0
LINE
8
Layer 1
10
186.266458
20
125.371087
11
184.178078
21
120.850553
0
LINE
8
Layer 1
10
184.178078
20
120.850553
11
181.473269
21
115.902417
0
LINE
8
Layer 1
10
181.473269
20
115.902417
11
178.091468
21
110.325958
0
LINE
8
Layer 1
10
178.091468
20
110.325958
11
174.462899
21
104.230101
0
LINE
8
Layer 1
10
174.462899
20
104.230101
11
171.553907
21
98.648361
0
LINE
8
Layer 1
10
171.553907
20
98.648361
11
169.364298
21
93.582205
0
LINE
8
Layer 1
10
169.364298
20
93.582205
11
167.893879
21
89.033102
0
LINE
8
Layer 1
10
167.893879
20
89.033102
11
165.221576
21
78.036321
0
LINE
8
Layer 1
10
165.221576
20
78.036321
11
163.548703
21
70.642688
0
LINE
8
Layer 1
10
163.548703
20
70.642688
11
162.166709
21
63.898193
0
LINE
8
Layer 1
10
162.166709
20
63.898193
11
150.227628
21
63.395493
0
LINE
8
Layer 1
10
150.227628
20
63.395493
11
150.353302
21
65.208799
0
LINE
8
Layer 1
10
150.353302
20
65.208799
11
150.847686
21
70.333468
0
LINE
8
Layer 1
10
150.847686
20
70.333468
11
151.740413
21
75.898672
0
LINE
8
Layer 1
10
151.740413
20
75.898672
11
153.034193
21
81.789129
0
LINE
8
Layer 1
10
153.034193
20
81.789129
11
154.731738
21
87.889560
0
LINE
8
Layer 1
10
154.731738
20
87.889560
11
156.835758
21
94.084684
0
LINE
8
Layer 1
10
156.835758
20
94.084684
11
159.348964
21
100.259220
0
LINE
8
Layer 1
10
159.348964
20
100.259220
11
162.274068
21
106.297886
0
LINE
8
Layer 1
10
162.274068
20
106.297886
11
165.613780
21
112.085402
0
LINE
8
Layer 1
10
165.613780
20
112.085402
11
169.292696
21
118.168725
0
LINE
8
Layer 1
10
169.292696
20
118.168725
11
172.450419
21
123.945887
0
LINE
8
Layer 1
10
172.450419
20
123.945887
11
175.107959
21
129.473566
0
LINE
8
Layer 1
10
175.107959
20
129.473566
11
177.286328
21
134.808437
0
LINE
8
Layer 1
10
177.286328
20
134.808437
11
179.006536
21
140.007175
0
LINE
8
Layer 1
10
179.006536
20
140.007175
11
180.289596
21
145.126456
0
LINE
8
Layer 1
10
180.289596
20
145.126456
11
181.156517
21
150.222956
0
LINE
8
Layer 1
10
181.156517
20
150.222956
11
181.628311
21
155.353351
0
LINE
8
Layer 1
10
181.628311
20
155.353351
11
181.625010
21
157.474855
0
LINE
8
Layer 1
10
181.625010
20
157.474855
11
181.404777
21
159.695032
0
LINE
8
Layer 1
10
181.404777
20
159.695032
11
180.989313
21
161.991882
0
LINE
8
Layer 1
10
180.989313
20
161.991882
11
180.400320
21
164.343407
0
LINE
8
Layer 1
10
180.400320
20
164.343407
11
178.788551
21
169.122485
0
LINE
8
Layer 1
10
178.788551
20
169.122485
11
176.743080
21
173.856273
0
LINE
8
Layer 1
10
176.743080
20
173.856273
11
174.437517
21
178.368779
0
LINE
8
Layer 1
10
174.437517
20
178.368779
11
172.045474
21
182.484011
0
LINE
8
Layer 1
10
172.045474
20
182.484011
11
169.740560
21
186.025978
0
LINE
8
Layer 1
10
169.740560
20
186.025978
11
167.696385
21
188.818687
0
LINE
8
Layer 1
10
167.696385
20
188.818687
11
167.409131
21
189.141851
0
LINE
8
Layer 1
10
167.409131
20
189.141851
11
167.768199
21
194.420182
0
LINE
8
Layer 1
10
167.768199
20
194.420182
11
167.895340
21
198.898105
0
LINE
8
Layer 1
10
167.895340
20
198.898105
11
167.828518
21
202.382914
0
LINE
8
Layer 1
10
167.828518
20
202.382914
11
167.538539
21
205.346896
0
LINE
8
Layer 1
10
167.538539
20
205.346896
11
166.996203
21
208.262336
0
LINE
8
Layer 1
10
166.996203
20
208.262336
11
165.570643
21
213.310335
0
LINE
8
Layer 1
10
165.570643
20
213.310335
11
163.589850
21
218.215868
0
LINE
8
Layer 1
10
163.589850
20
218.215868
11
161.103952
21
222.875383
0
LINE
8
Layer 1
10
161.103952
20
222.875383
11
158.163074
21
227.185330
0
LINE
8
Layer 1
10
158.163074
20
227.185330
11
155.754356
21
230.422717
0
LINE
8
Layer 1
10
155.754356
20
230.422717
11
154.751907
21
231.978917
0
LINE
8
Layer 1
10
154.751907
20
231.978917
11
155.865026
21
232.122545
0
LINE
8
Layer 1
10
155.865026
20
232.122545
11
155.865026
21
232.122545
0
LINE
8
Layer 1
10
136.493194
20
230.416961
11
137.732807
21
230.393608
0
LINE
8
Layer 1
10
137.732807
20
230.393608
11
138.967772
21
230.214801
0
LINE
8
Layer 1
10
138.967772
20
230.214801
11
141.432583
21
229.388071
0
LINE
8
Layer 1
10
141.432583
20
229.388071
11
143.905283
21
227.931249
0
LINE
8
Layer 1
10
143.905283
20
227.931249
11
146.403528
21
225.838817
0
LINE
8
Layer 1
10
146.403528
20
225.838817
11
148.446424
21
223.703915
0
LINE
8
Layer 1
10
148.446424
20
223.703915
11
150.145395
21
221.526760
0
LINE
8
Layer 1
10
150.145395
20
221.526760
11
151.515212
21
219.266700
0
LINE
8
Layer 1
10
151.515212
20
219.266700
11
152.570647
21
216.883083
0
LINE
8
Layer 1
10
152.570647
20
216.883083
11
153.326472
21
214.335257
0
LINE
8
Layer 1
10
153.326472
20
214.335257
11
153.797459
21
211.582571
0
LINE
8
Layer 1
10
153.797459
20
211.582571
11
153.998378
21
208.584371
0
LINE
8
Layer 1
10
153.998378
20
208.584371
11
153.944001
21
205.300007
0
LINE
8
Layer 1
10
153.944001
20
205.300007
11
153.448530
21
200.288449
0
LINE
8
Layer 1
10
153.448530
20
200.288449
11
153.016684
21
198.031822
0
LINE
8
Layer 1
10
153.016684
20
198.031822
11
152.442030
21
195.875778
0
LINE
8
Layer 1
10
152.442030
20
195.875778
11
151.709517
21
193.771181
0
LINE
8
Layer 1
10
151.709517
20
193.771181
11
150.804096
21
191.668892
0
LINE
8
Layer 1
10
150.804096
20
191.668892
11
148.414322
21
187.274685
0
LINE
8
Layer 1
10
148.414322
20
187.274685
11
146.890791
21
184.910815
0
LINE
8
Layer 1
10
146.890791
20
184.910815
11
145.101261
21
182.449229
0
LINE
8
Layer 1
10
145.101261
20
182.449229
11
142.901376
21
179.730182
0
LINE
8
Layer 1
10
142.901376
20
179.730182
11
140.146778
21
176.593928
0
LINE
8
Layer 1
10
140.146778
20
176.593928
11
132.396012
21
168.430812
0
LINE
8
Layer 1
10
132.396012
20
168.430812
11
120.694106
21
156.681912
0
LINE
8
Layer 1
10
120.694106
20
156.681912
11
114.292795
21
150.171408
0
LINE
8
Layer 1
10
114.292795
20
150.171408
11
108.600101
21
144.060328
0
LINE
8
Layer 1
10
108.600101
20
144.060328
11
103.649148
21
138.137894
0
LINE
8
Layer 1
10
103.649148
20
138.137894
11
101.462177
21
135.181552
0
LINE
8
Layer 1
10
101.462177
20
135.181552
11
99.473063
21
132.193329
0
LINE
8
Layer 1
10
99.473063
20
132.193329
11
97.032010
21
127.911457
0
LINE
8
Layer 1
10
97.032010
20
127.911457
11
94.998748
21
123.442918
0
LINE
8
Layer 1
10
94.998748
20
123.442918
11
93.385375
21
118.715290
0
LINE
8
Layer 1
10
93.385375
20
118.715290
11
92.203991
21
113.656153
0
LINE
8
Layer 1
10
92.203991
20
113.656153
11
91.466693
21
108.193084
0
LINE
8
Layer 1
10
91.466693
20
108.193084
11
91.185582
21
102.253663
0
LINE
8
Layer 1
10
91.185582
20
102.253663
11
91.372755
21
95.765468
0
LINE
8
Layer 1
10
91.372755
20
95.765468
11
92.040312
21
88.656078
0
LINE
8
Layer 1
10
92.040312
20
88.656078
11
89.161389
21
91.711927
0
LINE
8
Layer 1
10
89.161389
20
91.711927
11
86.462489
21
94.859549
0
LINE
8
Layer 1
10
86.462489
20
94.859549
11
83.944331
21
98.096900
0
LINE
8
Layer 1
10
83.944331
20
98.096900
11
81.607632
21
101.421937
0
LINE
8
Layer 1
10
81.607632
20
101.421937
11
79.453112
21
104.832616
0
LINE
8
Layer 1
10
79.453112
20
104.832616
11
77.481489
21
108.326893
0
LINE
8
Layer 1
10
77.481489
20
108.326893
11
75.693480
21
111.902724
0
LINE
8
Layer 1
10
75.693480
20
111.902724
11
74.089805
21
115.558065
0
LINE
8
Layer 1
10
74.089805
20
115.558065
11
72.671182
21
119.290872
0
LINE
8
Layer 1
10
72.671182
20
119.290872
11
71.438329
21
123.099102
0
LINE
8
Layer 1
10
71.438329
20
123.099102
11
70.391965
21
126.980711
0
LINE
8
Layer 1
10
70.391965
20
126.980711
11
69.532807
21
130.933655
0
LINE
8
Layer 1
10
69.532807
20
130.933655
11
68.861574
21
134.955890
0
LINE
8
Layer 1
10
68.861574
20
134.955890
11
68.378985
21
139.045372
0
LINE
8
Layer 1
10
68.378985
20
139.045372
11
68.085758
21
143.200058
0
LINE
8
Layer 1
10
68.085758
20
143.200058
11
67.982612
21
147.417903
0
LINE
8
Layer 1
10
67.982612
20
147.417903
11
68.175668
21
153.374870
0
LINE
8
Layer 1
10
68.175668
20
153.374870
11
68.770804
21
159.236673
0
LINE
8
Layer 1
10
68.770804
20
159.236673
11
69.758639
21
164.987932
0
LINE
8
Layer 1
10
69.758639
20
164.987932
11
71.129798
21
170.613267
0
LINE
8
Layer 1
10
71.129798
20
170.613267
11
72.874901
21
176.097299
0
LINE
8
Layer 1
10
72.874901
20
176.097299
11
74.984571
21
181.424646
0
LINE
8
Layer 1
10
74.984571
20
181.424646
11
77.449429
21
186.579930
0
LINE
8
Layer 1
10
77.449429
20
186.579930
11
80.260098
21
191.547771
0
LINE
8
Layer 1
10
80.260098
20
191.547771
11
83.407199
21
196.312789
0
LINE
8
Layer 1
10
83.407199
20
196.312789
11
86.881355
21
200.859603
0
LINE
8
Layer 1
10
86.881355
20
200.859603
11
90.673187
21
205.172834
0
LINE
8
Layer 1
10
90.673187
20
205.172834
11
94.773318
21
209.237103
0
LINE
8
Layer 1
10
94.773318
20
209.237103
11
99.172369
21
213.037029
0
LINE
8
Layer 1
10
99.172369
20
213.037029
11
103.860962
21
216.557233
0
LINE
8
Layer 1
10
103.860962
20
216.557233
11
108.829720
21
219.782334
0
LINE
8
Layer 1
10
108.829720
20
219.782334
11
114.069264
21
222.696953
0
LINE
8
Layer 1
10
114.069264
20
222.696953
11
119.342475
21
225.168405
0
LINE
8
Layer 1
10
119.342475
20
225.168405
11
124.883346
21
227.354630
0
LINE
8
Layer 1
10
124.883346
20
227.354630
11
130.268576
21
229.101623
0
LINE
8
Layer 1
10
130.268576
20
229.101623
11
135.074866
21
230.255380
0
LINE
8
Layer 1
10
135.074866
20
230.255380
11
136.493194
21
230.416961
0
LINE
8
Layer 1
10
136.493194
20
230.416961
11
136.493194
21
230.416961
0
LINE
8
Layer 1
10
164.015920
20
172.463042
11
163.395365
21
167.561564
0
LINE
8
Layer 1
10
163.395365
20
167.561564
11
162.536377
21
162.384027
0
LINE
8
Layer 1
10
162.536377
20
162.384027
11
161.390024
21
156.961725
0
LINE
8
Layer 1
10
161.390024
20
156.961725
11
159.907374
21
151.325953
0
LINE
8
Layer 1
10
159.907374
20
151.325953
11
158.039494
21
145.508006
0
LINE
8
Layer 1
10
158.039494
20
145.508006
11
155.737454
21
139.539180
0
LINE
8
Layer 1
10
155.737454
20
139.539180
11
152.952320
21
133.450769
0
LINE
8
Layer 1
10
152.952320
20
133.450769
11
149.635162
21
127.274069
0
LINE
8
Layer 1
10
149.635162
20
127.274069
11
146.569726
21
121.561211
0
LINE
8
Layer 1
10
146.569726
20
121.561211
11
143.949269
21
115.840759
0
LINE
8
Layer 1
10
143.949269
20
115.840759
11
141.762237
21
110.201348
0
LINE
8
Layer 1
10
141.762237
20
110.201348
11
139.997078
21
104.731613
0
LINE
8
Layer 1
10
139.997078
20
104.731613
11
138.642236
21
99.520188
0
LINE
8
Layer 1
10
138.642236
20
99.520188
11
137.686157
21
94.655708
0
LINE
8
Layer 1
10
137.686157
20
94.655708
11
137.117289
21
90.226807
0
LINE
8
Layer 1
10
137.117289
20
90.226807
11
136.924076
21
86.322120
0
LINE
8
Layer 1
10
136.924076
20
86.322120
11
137.038932
21
83.273789
0
LINE
8
Layer 1
10
137.038932
20
83.273789
11
137.384980
21
80.158231
0
LINE
8
Layer 1
10
137.384980
20
80.158231
11
137.941465
21
77.035772
0
LINE
8
Layer 1
10
137.941465
20
77.035772
11
138.687628
21
73.966740
0
LINE
8
Layer 1
10
138.687628
20
73.966740
11
139.602714
21
71.011459
0
LINE
8
Layer 1
10
139.602714
20
71.011459
11
140.665966
21
68.230258
0
LINE
8
Layer 1
10
140.665966
20
68.230258
11
141.856628
21
65.683463
0
LINE
8
Layer 1
10
141.856628
20
65.683463
11
143.153943
21
63.431400
0
LINE
8
Layer 1
10
143.153943
20
63.431400
11
141.214963
21
63.592981
0
LINE
8
Layer 1
10
141.214963
20
63.592981
11
136.863074
21
64.390156
0
LINE
8
Layer 1
10
136.863074
20
64.390156
11
132.544513
21
65.339290
0
LINE
8
Layer 1
10
132.544513
20
65.339290
11
128.279267
21
66.496969
0
LINE
8
Layer 1
10
128.279267
20
66.496969
11
124.087320
21
67.919778
0
LINE
8
Layer 1
10
124.087320
20
67.919778
11
124.087320
21
68.117266
0
LINE
8
Layer 1
10
124.087320
20
68.117266
11
124.515804
21
74.870697
0
LINE
8
Layer 1
10
124.515804
20
74.870697
11
125.269135
21
81.820409
0
LINE
8
Layer 1
10
125.269135
20
81.820409
11
126.461910
21
89.038402
0
LINE
8
Layer 1
10
126.461910
20
89.038402
11
128.208723
21
96.596679
0
LINE
8
Layer 1
10
128.208723
20
96.596679
11
130.624170
21
104.567242
0
LINE
8
Layer 1
10
130.624170
20
104.567242
11
132.118442
21
108.729632
0
LINE
8
Layer 1
10
132.118442
20
108.729632
11
133.822847
21
113.022095
0
LINE
8
Layer 1
10
133.822847
20
113.022095
11
135.751707
21
117.453631
0
LINE
8
Layer 1
10
135.751707
20
117.453631
11
137.919348
21
122.033239
0
LINE
8
Layer 1
10
137.919348
20
122.033239
11
140.340094
21
126.769921
0
LINE
8
Layer 1
10
140.340094
20
126.769921
11
143.028269
21
131.672677
0
LINE
8
Layer 1
10
143.028269
20
131.672677
11
150.820385
21
145.428571
0
LINE
8
Layer 1
10
150.820385
20
145.428571
11
156.713678
21
156.148030
0
LINE
8
Layer 1
10
156.713678
20
156.148030
11
159.042964
21
160.680456
0
LINE
8
Layer 1
10
159.042964
20
160.680456
11
161.011180
21
164.827404
0
LINE
8
Layer 1
10
161.011180
20
164.827404
11
162.656205
21
168.713418
0
LINE
8
Layer 1
10
162.656205
20
168.713418
11
164.015920
21
172.463042
0
LINE
8
Layer 1
10
164.015920
20
172.463042
11
164.015920
21
172.463042
 0 
ENDSEC
 0 
EOF
