  0
SECTION
  2
HEADER
  9
$ACADVER
  1
AC1015
  9
$ACADMAINTVER
 70
     6
  9
$DWGCODEPAGE
  3
ANSI_1252
  9
$INSBASE
 10
0.0
 20
0.0
 30
0.0
  9
$EXTMIN
 10
-1.06185
 20
-1.24509
 30
0.0
  9
$EXTMAX
 10
1.9343
 20
2.93429
 30
0.0
  9
$LIMMIN
 10
0.0
 20
0.0
  9
$LIMMAX
 10
12.0
 20
9.0
  9
$ORTHOMODE
 70
     0
  9
$REGENMODE
 70
     1
  9
$FILLMODE
 70
     1
  9
$QTEXTMODE
 70
     0
  9
$MIRRTEXT
 70
     1
  9
$LTSCALE
 40
1.0
  9
$ATTMODE
 70
     1
  9
$TEXTSIZE
 40
0.2
  9
$TRACEWID
 40
0.05
  9
$TEXTSTYLE
  7
Standard
  9
$CLAYER
  8
0
  9
$CELTYPE
  6
ByLayer
  9
$CECOLOR
 62
   256
  9
$CELTSCALE
 40
1.0
  9
$DISPSILH
 70
     0
  9
$DIMSCALE
 40
1.0
  9
$DIMASZ
 40
0.18
  9
$DIMEXO
 40
0.0625
  9
$DIMDLI
 40
0.38
  9
$DIMRND
 40
0.0
  9
$DIMDLE
 40
0.0
  9
$DIMEXE
 40
0.18
  9
$DIMTP
 40
0.0
  9
$DIMTM
 40
0.0
  9
$DIMTXT
 40
0.18
  9
$DIMCEN
 40
0.09
  9
$DIMTSZ
 40
0.0
  9
$DIMTOL
 70
     0
  9
$DIMLIM
 70
     0
  9
$DIMTIH
 70
     1
  9
$DIMTOH
 70
     1
  9
$DIMSE1
 70
     0
  9
$DIMSE2
 70
     0
  9
$DIMTAD
 70
     0
  9
$DIMZIN
 70
     0
  9
$DIMBLK
  1

  9
$DIMASO
 70
     1
  9
$DIMSHO
 70
     1
  9
$DIMPOST
  1

  9
$DIMAPOST
  1

  9
$DIMALT
 70
     0
  9
$DIMALTD
 70
     2
  9
$DIMALTF
 40
25.4
  9
$DIMLFAC
 40
1.0
  9
$DIMTOFL
 70
     0
  9
$DIMTVP
 40
0.0
  9
$DIMTIX
 70
     0
  9
$DIMSOXD
 70
     0
  9
$DIMSAH
 70
     0
  9
$DIMBLK1
  1

  9
$DIMBLK2
  1

  9
$DIMSTYLE
  2
Standard
  9
$DIMCLRD
 70
     0
  9
$DIMCLRE
 70
     0
  9
$DIMCLRT
 70
     0
  9
$DIMTFAC
 40
1.0
  9
$DIMGAP
 40
0.09
  9
$DIMJUST
 70
     0
  9
$DIMSD1
 70
     0
  9
$DIMSD2
 70
     0
  9
$DIMTOLJ
 70
     1
  9
$DIMTZIN
 70
     0
  9
$DIMALTZ
 70
     0
  9
$DIMALTTZ
 70
     0
  9
$DIMUPT
 70
     0
  9
$DIMDEC
 70
     4
  9
$DIMTDEC
 70
     4
  9
$DIMALTU
 70
     2
  9
$DIMALTTD
 70
     2
  9
$DIMTXSTY
  7
Standard
  9
$DIMAUNIT
 70
     0
  9
$DIMADEC
 70
     0
  9
$DIMALTRND
 40
0.0
  9
$DIMAZIN
 70
     0
  9
$DIMDSEP
 70
    46
  9
$DIMATFIT
 70
     3
  9
$DIMFRAC
 70
     0
  9
$DIMLDRBLK
  1

  9
$DIMLUNIT
 70
     2
  9
$DIMLWD
 70
    -2
  9
$DIMLWE
 70
    -2
  9
$DIMTMOVE
 70
     0
  9
$LUNITS
 70
     2
  9
$LUPREC
 70
     4
  9
$SKETCHINC
 40
0.1
  9
$FILLETRAD
 40
0.5
  9
$AUNITS
 70
     0
  9
$AUPREC
 70
     0
  9
$MENU
  1
.
  9
$ELEVATION
 40
0.0
  9
$PELEVATION
 40
0.0
  9
$THICKNESS
 40
0.0
  9
$LIMCHECK
 70
     0
  9
$CHAMFERA
 40
0.5
  9
$CHAMFERB
 40
0.5
  9
$CHAMFERC
 40
1.0
  9
$CHAMFERD
 40
0.0
  9
$SKPOLY
 70
     0
  9
$TDCREATE
 40
2456423.80572934
  9
$TDUCREATE
 40
2456423.722396007
  9
$TDUPDATE
 40
2456423.805729352
  9
$TDUUPDATE
 40
2456423.722396018
  9
$TDINDWG
 40
0.0000000116
  9
$TDUSRTIMER
 40
0.0000000116
  9
$USRTIMER
 70
     1
  9
$ANGBASE
 50
0.0
  9
$ANGDIR
 70
     0
  9
$PDMODE
 70
     0
  9
$PDSIZE
 40
0.0
  9
$PLINEWID
 40
0.0
  9
$SPLFRAME
 70
     0
  9
$SPLINETYPE
 70
     6
  9
$SPLINESEGS
 70
     8
  9
$HANDSEED
  5
79
  9
$SURFTAB1
 70
     6
  9
$SURFTAB2
 70
     6
  9
$SURFTYPE
 70
     6
  9
$SURFU
 70
     6
  9
$SURFV
 70
     6
  9
$UCSBASE
  2

  9
$UCSNAME
  2

  9
$UCSORG
 10
0.0
 20
0.0
 30
0.0
  9
$UCSXDIR
 10
1.0
 20
0.0
 30
0.0
  9
$UCSYDIR
 10
0.0
 20
1.0
 30
0.0
  9
$UCSORTHOREF
  2

  9
$UCSORTHOVIEW
 70
     0
  9
$UCSORGTOP
 10
0.0
 20
0.0
 30
0.0
  9
$UCSORGBOTTOM
 10
0.0
 20
0.0
 30
0.0
  9
$UCSORGLEFT
 10
0.0
 20
0.0
 30
0.0
  9
$UCSORGRIGHT
 10
0.0
 20
0.0
 30
0.0
  9
$UCSORGFRONT
 10
0.0
 20
0.0
 30
0.0
  9
$UCSORGBACK
 10
0.0
 20
0.0
 30
0.0
  9
$PUCSBASE
  2

  9
$PUCSNAME
  2

  9
$PUCSORG
 10
0.0
 20
0.0
 30
0.0
  9
$PUCSXDIR
 10
1.0
 20
0.0
 30
0.0
  9
$PUCSYDIR
 10
0.0
 20
1.0
 30
0.0
  9
$PUCSORTHOREF
  2

  9
$PUCSORTHOVIEW
 70
     0
  9
$PUCSORGTOP
 10
0.0
 20
0.0
 30
0.0
  9
$PUCSORGBOTTOM
 10
0.0
 20
0.0
 30
0.0
  9
$PUCSORGLEFT
 10
0.0
 20
0.0
 30
0.0
  9
$PUCSORGRIGHT
 10
0.0
 20
0.0
 30
0.0
  9
$PUCSORGFRONT
 10
0.0
 20
0.0
 30
0.0
  9
$PUCSORGBACK
 10
0.0
 20
0.0
 30
0.0
  9
$USERI1
 70
     0
  9
$USERI2
 70
     0
  9
$USERI3
 70
     0
  9
$USERI4
 70
     0
  9
$USERI5
 70
     0
  9
$USERR1
 40
0.0
  9
$USERR2
 40
0.0
  9
$USERR3
 40
0.0
  9
$USERR4
 40
0.0
  9
$USERR5
 40
0.0
  9
$WORLDVIEW
 70
     1
  9
$SHADEDGE
 70
     3
  9
$SHADEDIF
 70
    70
  9
$TILEMODE
 70
     1
  9
$MAXACTVP
 70
    64
  9
$PINSBASE
 10
0.0
 20
0.0
 30
0.0
  9
$PLIMCHECK
 70
     0
  9
$PEXTMIN
 10
1.000000000000000E 20
 20
1.000000000000000E 20
 30
1.000000000000000E 20
  9
$PEXTMAX
 10
-1.000000000000000E 20
 20
-1.000000000000000E 20
 30
-1.000000000000000E 20
  9
$PLIMMIN
 10
0.0
 20
0.0
  9
$PLIMMAX
 10
12.0
 20
9.0
  9
$UNITMODE
 70
     0
  9
$VISRETAIN
 70
     1
  9
$PLINEGEN
 70
     0
  9
$PSLTSCALE
 70
     1
  9
$TREEDEPTH
 70
  3020
  9
$CMLSTYLE
  2
Standard
  9
$CMLJUST
 70
     0
  9
$CMLSCALE
 40
1.0
  9
$PROXYGRAPHICS
 70
     1
  9
$MEASUREMENT
 70
     0
  9
$CELWEIGHT
370
    -1
  9
$ENDCAPS
280
     0
  9
$JOINSTYLE
280
     0
  9
$LWDISPLAY
290
     0
  9
$INSUNITS
 70
     5
  9
$HYPERLINKBASE
  1

  9
$STYLESHEET
  1

  9
$XEDIT
290
     1
  9
$CEPSNTYPE
380
     0
  9
$PSTYLEMODE
290
     1
  9
$FINGERPRINTGUID
  2
{5401014C-999F-4001-902C-542484468A52}
  9
$VERSIONGUID
  2
{FAEB1C32-E019-11D5-929B-00C0DF256EC4}
  9
$EXTNAMES
290
     1
  9
$PSVPSCALE
 40
0.0
  9
$OLESTARTUP
290
     0
  0
ENDSEC
  0
SECTION
  2
CLASSES
  0
CLASS
  1
ACDBDICTIONARYWDFLT
  2
AcDbDictionaryWithDefault
  3
ObjectDBX Classes
 90
        0
280
     0
281
     0
  0
CLASS
  1
VISUALSTYLE
  2
AcDbVisualStyle
  3
ObjectDBX Classes
 90
     4095
280
     0
281
     0
  0
CLASS
  1
SCALE
  2
AcDbScale
  3
ObjectDBX Classes
 90
     1153
280
     0
281
     0
  0
CLASS
  1
DICTIONARYVAR
  2
AcDbDictionaryVar
  3
ObjectDBX Classes
 90
        0
280
     0
281
     0
  0
CLASS
  1
ACDBPLACEHOLDER
  2
AcDbPlaceHolder
  3
ObjectDBX Classes
 90
        0
280
     0
281
     0
  0
CLASS
  1
LAYOUT
  2
AcDbLayout
  3
ObjectDBX Classes
 90
        0
280
     0
281
     0
  0
ENDSEC
  0
SECTION
  2
TABLES
  0
TABLE
  2
VPORT
  5
8
330
0
100
AcDbSymbolTable
 70
     1
  0
VPORT
  5
29
330
8
100
AcDbSymbolTableRecord
100
AcDbViewportTableRecord
  2
*Active
 70
     0
 10
0.0
 20
0.0
 11
1.0
 21
1.0
 12
10.42990654205607
 22
4.5
 13
0.0
 23
0.0
 14
0.5
 24
0.5
 15
0.5
 25
0.5
 16
0.0
 26
0.0
 36
1.0
 17
0.0
 27
0.0
 37
0.0
 40
9.0
 41
1.972972972850329
 42
50.0
 43
0.0
 44
0.0
 50
0.0
 51
0.0
 71
     0
 72
   100
 73
     1
 74
     3
 75
     0
 76
     0
 77
     0
 78
     0
281
     0
 65
     1
110
0.0
120
0.0
130
0.0
111
1.0
121
0.0
131
0.0
112
0.0
122
1.0
132
0.0
 79
     0
146
0.0
  0
ENDTAB
  0
TABLE
  2
LTYPE
  5
5
330
0
100
AcDbSymbolTable
 70
     1
  0
LTYPE
  5
14
330
5
100
AcDbSymbolTableRecord
100
AcDbLinetypeTableRecord
  2
ByBlock
 70
     0
  3

 72
    65
 73
     0
 40
0.0
  0
LTYPE
  5
15
330
5
100
AcDbSymbolTableRecord
100
AcDbLinetypeTableRecord
  2
ByLayer
 70
     0
  3

 72
    65
 73
     0
 40
0.0
  0
LTYPE
  5
16
330
5
100
AcDbSymbolTableRecord
100
AcDbLinetypeTableRecord
  2
Continuous
 70
     0
  3
Solid line
 72
    65
 73
     0
 40
0.0
  0
ENDTAB
  0
TABLE
  2
LAYER
  5
2
330
0
100
AcDbSymbolTable
 70
     2
  0
LAYER
  5
10
330
2
100
AcDbSymbolTableRecord
100
AcDbLayerTableRecord
  2
0
 70
     0
 62
     7
  6
Continuous
370
    -3
390
F
  0
LAYER
  5
5E
330
2
100
AcDbSymbolTableRecord
100
AcDbLayerTableRecord
  2
Ebene 1
 70
     0
 62
     7
  6
Continuous
370
    -3
390
F
  0
ENDTAB
  0
TABLE
  2
STYLE
  5
3
330
0
100
AcDbSymbolTable
 70
     1
  0
STYLE
  5
11
330
3
100
AcDbSymbolTableRecord
100
AcDbTextStyleTableRecord
  2
Standard
 70
     0
 40
0.0
 41
1.0
 50
0.0
 71
     0
 42
0.2
  3
txt
  4

  0
ENDTAB
  0
TABLE
  2
VIEW
  5
6
330
0
100
AcDbSymbolTable
 70
     0
  0
ENDTAB
  0
TABLE
  2
UCS
  5
7
330
0
100
AcDbSymbolTable
 70
     0
  0
ENDTAB
  0
TABLE
  2
APPID
  5
9
330
0
100
AcDbSymbolTable
 70
     2
  0
APPID
  5
12
330
9
100
AcDbSymbolTableRecord
100
AcDbRegAppTableRecord
  2
ACAD
 70
     0
  0
APPID
  5
5D
330
9
100
AcDbSymbolTableRecord
100
AcDbRegAppTableRecord
  2
ODA
 70
     0
  0
ENDTAB
  0
TABLE
  2
DIMSTYLE
  5
A
330
0
100
AcDbSymbolTable
 70
     1
100
AcDbDimStyleTable
  0
DIMSTYLE
105
27
330
A
100
AcDbSymbolTableRecord
100
AcDbDimStyleTableRecord
  2
Standard
 70
     0
340
11
  0
ENDTAB
  0
TABLE
  2
BLOCK_RECORD
  5
1
330
0
100
AcDbSymbolTable
 70
     1
  0
BLOCK_RECORD
  5
1F
330
1
100
AcDbSymbolTableRecord
100
AcDbBlockTableRecord
  2
*Model_Space
340
22
  0
BLOCK_RECORD
  5
1B
330
1
100
AcDbSymbolTableRecord
100
AcDbBlockTableRecord
  2
*Paper_Space
340
1E
  0
BLOCK_RECORD
  5
23
330
1
100
AcDbSymbolTableRecord
100
AcDbBlockTableRecord
  2
*Paper_Space0
340
26
  0
ENDTAB
  0
ENDSEC
  0
SECTION
  2
BLOCKS
  0
BLOCK
  5
20
330
1F
100
AcDbEntity
  8
0
100
AcDbBlockBegin
  2
*Model_Space
 70
     0
 10
0.0
 20
0.0
 30
0.0
  3
*Model_Space
  1

  0
ENDBLK
  5
21
330
1F
100
AcDbEntity
  8
0
100
AcDbBlockEnd
  0
BLOCK
  5
1C
330
1B
100
AcDbEntity
 67
     1
  8
0
100
AcDbBlockBegin
  2
*Paper_Space
 70
     0
 10
0.0
 20
0.0
 30
0.0
  3
*Paper_Space
  1

  0
ENDBLK
  5
1D
330
1B
100
AcDbEntity
 67
     1
  8
0
100
AcDbBlockEnd
  0
BLOCK
  5
24
330
23
100
AcDbEntity
  8
0
100
AcDbBlockBegin
  2
*Paper_Space0
 70
     0
 10
0.0
 20
0.0
 30
0.0
  3
*Paper_Space0
  1

  0
ENDBLK
  5
25
330
23
100
AcDbEntity
  8
0
100
AcDbBlockEnd
  0
ENDSEC
  0
SECTION
  2
ENTITIES
  0
SPLINE
  5
5F
330
1F
100
AcDbEntity
  8
Ebene 1
370
    13
100
AcDbSpline
210
0.0
220
0.0
230
1.0
 70
    11
 71
     3
 72
   112
 73
   108
 74
     0
 42
0.0000000001
 43
0.0000000001
 40
0.0
 40
0.0
 40
0.0
 40
0.0
 40
0.037037037037037
 40
0.037037037037037
 40
0.037037037037037
 40
0.037037037037037
 40
0.0740740740740741
 40
0.0740740740740741
 40
0.0740740740740741
 40
0.0740740740740741
 40
0.1111111111111111
 40
0.1111111111111111
 40
0.1111111111111111
 40
0.1111111111111111
 40
0.1481481481481481
 40
0.1481481481481481
 40
0.1481481481481481
 40
0.1481481481481481
 40
0.1851851851851852
 40
0.1851851851851852
 40
0.1851851851851852
 40
0.1851851851851852
 40
0.2222222222222222
 40
0.2222222222222222
 40
0.2222222222222222
 40
0.2222222222222222
 40
0.2592592592592592
 40
0.2592592592592592
 40
0.2592592592592592
 40
0.2592592592592592
 40
0.2962962962962963
 40
0.2962962962962963
 40
0.2962962962962963
 40
0.2962962962962963
 40
0.3333333333333333
 40
0.3333333333333333
 40
0.3333333333333333
 40
0.3333333333333333
 40
0.3703703703703703
 40
0.3703703703703703
 40
0.3703703703703703
 40
0.3703703703703703
 40
0.4074074074074074
 40
0.4074074074074074
 40
0.4074074074074074
 40
0.4074074074074074
 40
0.4444444444444444
 40
0.4444444444444444
 40
0.4444444444444444
 40
0.4444444444444444
 40
0.4814814814814815
 40
0.4814814814814815
 40
0.4814814814814815
 40
0.4814814814814815
 40
0.5185185185185185
 40
0.5185185185185185
 40
0.5185185185185185
 40
0.5185185185185185
 40
0.5555555555555556
 40
0.5555555555555556
 40
0.5555555555555556
 40
0.5555555555555556
 40
0.5925925925925926
 40
0.5925925925925926
 40
0.5925925925925926
 40
0.5925925925925926
 40
0.6296296296296295
 40
0.6296296296296295
 40
0.6296296296296295
 40
0.6296296296296295
 40
0.6666666666666665
 40
0.6666666666666665
 40
0.6666666666666665
 40
0.6666666666666665
 40
0.7037037037037035
 40
0.7037037037037035
 40
0.7037037037037035
 40
0.7037037037037035
 40
0.7407407407407405
 40
0.7407407407407405
 40
0.7407407407407405
 40
0.7407407407407405
 40
0.7777777777777775
 40
0.7777777777777775
 40
0.7777777777777775
 40
0.7777777777777775
 40
0.8148148148148144
 40
0.8148148148148144
 40
0.8148148148148144
 40
0.8148148148148144
 40
0.8518518518518514
 40
0.8518518518518514
 40
0.8518518518518514
 40
0.8518518518518514
 40
0.8888888888888884
 40
0.8888888888888884
 40
0.8888888888888884
 40
0.8888888888888884
 40
0.9259259259259254
 40
0.9259259259259254
 40
0.9259259259259254
 40
0.9259259259259254
 40
0.9629629629629624
 40
0.9629629629629624
 40
0.9629629629629624
 40
0.9629629629629624
 40
1.0
 40
1.0
 40
1.0
 40
1.0
 10
1.65287
 20
0.74504
 30
0.0
 10
1.65287
 20
0.74504
 30
0.0
 10
1.65177
 20
-1.23945
 30
0.0
 10
1.65177
 20
-1.23945
 30
0.0
 10
1.65177
 20
-1.23945
 30
0.0
 10
1.65177
 20
-1.23945
 30
0.0
 10
-0.78042
 20
-1.23945
 30
0.0
 10
-0.78042
 20
-1.23945
 30
0.0
 10
-0.78042
 20
-1.23945
 30
0.0
 10
-0.78042
 20
-1.23945
 30
0.0
 10
-0.78042
 20
0.74504
 30
0.0
 10
-0.78042
 20
0.74504
 30
0.0
 10
-0.78042
 20
0.74504
 30
0.0
 10
-0.78042
 20
0.74504
 30
0.0
 10
-0.78141
 20
0.87733
 30
0.0
 10
-0.78141
 20
0.87733
 30
0.0
 10
-0.78141
 20
0.87733
 30
0.0
 10
-0.78141
 20
0.87733
 30
0.0
 10
-0.87843
 20
0.76268
 30
0.0
 10
-0.87843
 20
0.76268
 30
0.0
 10
-0.87843
 20
0.76268
 30
0.0
 10
-0.87843
 20
0.76268
 30
0.0
 10
-1.05143
 20
0.8148
 30
0.0
 10
-1.05143
 20
0.8148
 30
0.0
 10
-1.05143
 20
0.8148
 30
0.0
 10
-1.05143
 20
0.8148
 30
0.0
 10
-0.72934
 20
1.15156
 30
0.0
 10
-0.72934
 20
1.15156
 30
0.0
 10
-0.72934
 20
1.15156
 30
0.0
 10
-0.72934
 20
1.15156
 30
0.0
 10
-0.83406
 20
1.21699
 30
0.0
 10
-0.83406
 20
1.21699
 30
0.0
 10
-0.83406
 20
1.21699
 30
0.0
 10
-0.83406
 20
1.21699
 30
0.0
 10
-0.48684
 20
1.55913
 30
0.0
 10
-0.48684
 20
1.55913
 30
0.0
 10
-0.48684
 20
1.55913
 30
0.0
 10
-0.48684
 20
1.55913
 30
0.0
 10
-0.55503
 20
1.62241
 30
0.0
 10
-0.55503
 20
1.62241
 30
0.0
 10
-0.55503
 20
1.62241
 30
0.0
 10
-0.55503
 20
1.62241
 30
0.0
 10
-0.18324
 20
2.00116
 30
0.0
 10
-0.18324
 20
2.00116
 30
0.0
 10
-0.18324
 20
2.00116
 30
0.0
 10
-0.18324
 20
2.00116
 30
0.0
 10
-0.26904
 20
2.06352
 30
0.0
 10
-0.26904
 20
2.06352
 30
0.0
 10
-0.26904
 20
2.06352
 30
0.0
 10
-0.26904
 20
2.06352
 30
0.0
 10
0.07679
 20
2.43209
 30
0.0
 10
0.07679
 20
2.43209
 30
0.0
 10
0.07679
 20
2.43209
 30
0.0
 10
0.07679
 20
2.43209
 30
0.0
 10
-0.01783
 20
2.49399
 30
0.0
 10
-0.01783
 20
2.49399
 30
0.0
 10
-0.01783
 20
2.49399
 30
0.0
 10
-0.01783
 20
2.49399
 30
0.0
 10
0.43623
 20
2.92651
 30
0.0
 10
0.43623
 20
2.92651
 30
0.0
 10
0.43623
 20
2.92651
 30
0.0
 10
0.43623
 20
2.92651
 30
0.0
 10
0.89028
 20
2.49399
 30
0.0
 10
0.89028
 20
2.49399
 30
0.0
 10
0.89028
 20
2.49399
 30
0.0
 10
0.89028
 20
2.49399
 30
0.0
 10
0.79566
 20
2.43209
 30
0.0
 10
0.79566
 20
2.43209
 30
0.0
 10
0.79566
 20
2.43209
 30
0.0
 10
0.79566
 20
2.43209
 30
0.0
 10
1.1415
 20
2.06352
 30
0.0
 10
1.1415
 20
2.06352
 30
0.0
 10
1.1415
 20
2.06352
 30
0.0
 10
1.1415
 20
2.06352
 30
0.0
 10
1.05569
 20
2.00116
 30
0.0
 10
1.05569
 20
2.00116
 30
0.0
 10
1.05569
 20
2.00116
 30
0.0
 10
1.05569
 20
2.00116
 30
0.0
 10
1.42748
 20
1.62241
 30
0.0
 10
1.42748
 20
1.62241
 30
0.0
 10
1.42748
 20
1.62241
 30
0.0
 10
1.42748
 20
1.62241
 30
0.0
 10
1.35929
 20
1.55913
 30
0.0
 10
1.35929
 20
1.55913
 30
0.0
 10
1.35929
 20
1.55913
 30
0.0
 10
1.35929
 20
1.55913
 30
0.0
 10
1.7065
 20
1.21699
 30
0.0
 10
1.7065
 20
1.21699
 30
0.0
 10
1.7065
 20
1.21699
 30
0.0
 10
1.7065
 20
1.21699
 30
0.0
 10
1.6018
 20
1.15156
 30
0.0
 10
1.6018
 20
1.15156
 30
0.0
 10
1.6018
 20
1.15156
 30
0.0
 10
1.6018
 20
1.15156
 30
0.0
 10
1.92388
 20
0.8148
 30
0.0
 10
1.92388
 20
0.8148
 30
0.0
 10
1.92388
 20
0.8148
 30
0.0
 10
1.92388
 20
0.8148
 30
0.0
 10
1.75087
 20
0.76268
 30
0.0
 10
1.75087
 20
0.76268
 30
0.0
 10
1.75087
 20
0.76268
 30
0.0
 10
1.75087
 20
0.76268
 30
0.0
 10
1.65386
 20
0.87733
 30
0.0
 10
1.65386
 20
0.87733
 30
0.0
 10
1.65386
 20
0.87733
 30
0.0
 10
1.65386
 20
0.87733
 30
0.0
 10
1.65287
 20
0.74504
 30
0.0
 10
1.65287
 20
0.74504
 30
0.0
  0
SPLINE
  5
60
330
1F
100
AcDbEntity
  8
Ebene 1
 62
     7
370
    13
100
AcDbSpline
210
0.0
220
0.0
230
1.0
 70
    11
 71
     3
 72
    20
 73
    16
 74
     0
 42
0.0000000001
 43
0.0000000001
 40
0.0
 40
0.0
 40
0.0
 40
0.0
 40
0.25
 40
0.25
 40
0.25
 40
0.25
 40
0.5
 40
0.5
 40
0.5
 40
0.5
 40
0.75
 40
0.75
 40
0.75
 40
0.75
 40
1.0
 40
1.0
 40
1.0
 40
1.0
 10
0.87449
 20
2.05411
 30
0.0
 10
0.77017
 20
2.17636
 30
0.0
 10
0.61485
 20
2.30529
 30
0.0
 10
0.45646
 20
2.35045
 30
0.0
 10
0.45646
 20
2.35045
 30
0.0
 10
0.45646
 20
2.35045
 30
0.0
 10
0.56294
 20
1.73596
 30
0.0
 10
0.56294
 20
1.73596
 30
0.0
 10
0.56294
 20
1.73596
 30
0.0
 10
0.56294
 20
1.73596
 30
0.0
 10
0.87449
 20
2.05129
 30
0.0
 10
0.87449
 20
2.05129
 30
0.0
 10
0.87449
 20
2.05129
 30
0.0
 10
0.87449
 20
2.05129
 30
0.0
 10
0.87449
 20
2.05411
 30
0.0
 10
0.87449
 20
2.05411
 30
0.0
  0
SPLINE
  5
61
330
1F
100
AcDbEntity
  8
Ebene 1
 62
     7
370
    13
100
AcDbSpline
210
0.0
220
0.0
230
1.0
 70
    11
 71
     3
 72
    20
 73
    16
 74
     0
 42
0.0000000001
 43
0.0000000001
 40
0.0
 40
0.0
 40
0.0
 40
0.0
 40
0.25
 40
0.25
 40
0.25
 40
0.25
 40
0.5
 40
0.5
 40
0.5
 40
0.5
 40
0.75
 40
0.75
 40
0.75
 40
0.75
 40
1.0
 40
1.0
 40
1.0
 40
1.0
 10
1.138
 20
1.55341
 30
0.0
 10
1.10558
 20
1.75213
 30
0.0
 10
1.01272
 20
1.90619
 30
0.0
 10
0.89007
 20
2.04282
 30
0.0
 10
0.89007
 20
2.04282
 30
0.0
 10
0.89007
 20
2.04282
 30
0.0
 10
0.62909
 20
1.65299
 30
0.0
 10
0.62909
 20
1.65299
 30
0.0
 10
0.62909
 20
1.65299
 30
0.0
 10
0.62909
 20
1.65299
 30
0.0
 10
1.13674
 20
1.55034
 30
0.0
 10
1.13674
 20
1.55034
 30
0.0
 10
1.13674
 20
1.55034
 30
0.0
 10
1.13674
 20
1.55034
 30
0.0
 10
1.138
 20
1.55341
 30
0.0
 10
1.138
 20
1.55341
 30
0.0
  0
SPLINE
  5
62
330
1F
100
AcDbEntity
  8
Ebene 1
 62
     7
370
    13
100
AcDbSpline
210
0.0
220
0.0
230
1.0
 70
    11
 71
     3
 72
    24
 73
    20
 74
     0
 42
0.0000000001
 43
0.0000000001
 40
0.0
 40
0.0
 40
0.0
 40
0.0
 40
0.2
 40
0.2
 40
0.2
 40
0.2
 40
0.4
 40
0.4
 40
0.4
 40
0.4
 40
0.6000000000000001
 40
0.6000000000000001
 40
0.6000000000000001
 40
0.6000000000000001
 40
0.8
 40
0.8
 40
0.8
 40
0.8
 40
1.0
 40
1.0
 40
1.0
 40
1.0
 10
1.14193
 20
1.5066
 30
0.0
 10
1.15617
 20
1.39154
 30
0.0
 10
1.17819
 20
1.21999
 30
0.0
 10
1.07182
 20
1.14253
 30
0.0
 10
1.07182
 20
1.14253
 30
0.0
 10
1.05658
 20
1.16239
 30
0.0
 10
1.03256
 20
1.17639
 30
0.0
 10
1.00691
 20
1.17639
 30
0.0
 10
1.00691
 20
1.17639
 30
0.0
 10
0.97936
 20
1.17639
 30
0.0
 10
0.95308
 20
1.1606
 30
0.0
 10
0.93797
 20
1.13815
 30
0.0
 10
0.93797
 20
1.13815
 30
0.0
 10
0.93797
 20
1.13815
 30
0.0
 10
0.6749
 20
1.42066
 30
0.0
 10
0.6749
 20
1.42066
 30
0.0
 10
0.6749
 20
1.42066
 30
0.0
 10
0.6749
 20
1.42066
 30
0.0
 10
1.14193
 20
1.5066
 30
0.0
 10
1.14193
 20
1.5066
 30
0.0
  0
SPLINE
  5
63
330
1F
100
AcDbEntity
  8
Ebene 1
370
    13
100
AcDbSpline
210
0.0
220
0.0
230
1.0
 70
    24
 71
     3
 72
     8
 73
     4
 74
     0
 42
0.0000000001
 43
0.0000000001
 40
0.0
 40
0.0
 40
0.0
 40
0.0
 40
1.0
 40
1.0
 40
1.0
 40
1.0
 10
0.84788
 20
-0.71102
 30
0.0
 10
0.84788
 20
-0.71102
 30
0.0
 10
0.83165
 20
-0.7258
 30
0.0
 10
0.83165
 20
-0.7258
 30
0.0
  0
SPLINE
  5
64
330
1F
100
AcDbEntity
  8
Ebene 1
370
    13
100
AcDbSpline
210
0.0
220
0.0
230
1.0
 70
     8
 71
     3
 72
     8
 73
     4
 74
     0
 42
0.0000000001
 43
0.0000000001
 40
0.0
 40
0.0
 40
0.0
 40
0.0
 40
1.0
 40
1.0
 40
1.0
 40
1.0
 10
-0.22082
 20
0.09659
 30
0.0
 10
-0.2303
 20
0.07431
 30
0.0
 10
-0.25756
 20
0.06725
 30
0.0
 10
-0.25756
 20
0.06725
 30
0.0
  0
SPLINE
  5
65
330
1F
100
AcDbEntity
  8
Ebene 1
370
    13
100
AcDbSpline
210
0.0
220
0.0
230
1.0
 70
    27
 71
     3
 72
     8
 73
     4
 74
     0
 42
0.0000000001
 43
0.0000000001
 40
0.0
 40
0.0
 40
0.0
 40
0.0
 40
1.0
 40
1.0
 40
1.0
 40
1.0
 10
-0.1343
 20
0.05786
 30
0.0
 10
-0.1343
 20
0.05786
 30
0.0
 10
-0.1343
 20
0.05786
 30
0.0
 10
-0.1343
 20
0.05786
 30
0.0
  0
SPLINE
  5
66
330
1F
100
AcDbEntity
  8
Ebene 1
 62
     7
370
    13
100
AcDbSpline
210
0.0
220
0.0
230
1.0
 70
    11
 71
     3
 72
    64
 73
    60
 74
     0
 42
0.0000000001
 43
0.0000000001
 40
0.0
 40
0.0
 40
0.0
 40
0.0
 40
0.0666666666666667
 40
0.0666666666666667
 40
0.0666666666666667
 40
0.0666666666666667
 40
0.1333333333333333
 40
0.1333333333333333
 40
0.1333333333333333
 40
0.1333333333333333
 40
0.2
 40
0.2
 40
0.2
 40
0.2
 40
0.2666666666666667
 40
0.2666666666666667
 40
0.2666666666666667
 40
0.2666666666666667
 40
0.3333333333333333
 40
0.3333333333333333
 40
0.3333333333333333
 40
0.3333333333333333
 40
0.4
 40
0.4
 40
0.4
 40
0.4
 40
0.4666666666666666
 40
0.4666666666666666
 40
0.4666666666666666
 40
0.4666666666666666
 40
0.5333333333333333
 40
0.5333333333333333
 40
0.5333333333333333
 40
0.5333333333333333
 40
0.6
 40
0.6
 40
0.6
 40
0.6
 40
0.6666666666666666
 40
0.6666666666666666
 40
0.6666666666666666
 40
0.6666666666666666
 40
0.7333333333333333
 40
0.7333333333333333
 40
0.7333333333333333
 40
0.7333333333333333
 40
0.7999999999999999
 40
0.7999999999999999
 40
0.7999999999999999
 40
0.7999999999999999
 40
0.8666666666666666
 40
0.8666666666666666
 40
0.8666666666666666
 40
0.8666666666666666
 40
0.9333333333333332
 40
0.9333333333333332
 40
0.9333333333333332
 40
0.9333333333333332
 40
1.0
 40
1.0
 40
1.0
 40
1.0
 10
-0.1343
 20
0.05786
 30
0.0
 10
-0.11605
 20
0.11805
 30
0.0
 10
-0.19654
 20
0.08842
 30
0.0
 10
-0.22082
 20
0.09659
 30
0.0
 10
-0.22082
 20
0.09659
 30
0.0
 10
-0.26611
 20
0.13918
 30
0.0
 10
-0.32897
 20
0.08277
 30
0.0
 10
-0.33156
 20
0.01645
 30
0.0
 10
-0.33156
 20
0.01645
 30
0.0
 10
-0.33156
 20
0.01645
 30
0.0
 10
-0.36661
 20
0.02068
 30
0.0
 10
-0.38869
 20
-0.06116
 30
0.0
 10
-0.38869
 20
-0.06116
 30
0.0
 10
-0.39232
 20
-0.04601
 30
0.0
 10
-0.39367
 20
-0.03098
 30
0.0
 10
-0.39367
 20
-0.01459
 30
0.0
 10
-0.39367
 20
-0.01459
 30
0.0
 10
-0.39367
 20
0.08894
 30
0.0
 10
-0.31646
 20
0.17286
 30
0.0
 10
-0.22121
 20
0.17286
 30
0.0
 10
-0.22121
 20
0.17286
 30
0.0
 10
-0.12597
 20
0.17286
 30
0.0
 10
-0.04876
 20
0.08894
 30
0.0
 10
-0.04876
 20
-0.01459
 30
0.0
 10
-0.04876
 20
-0.01459
 30
0.0
 10
-0.04876
 20
-0.1162
 30
0.0
 10
-0.12292
 20
-0.19783
 30
0.0
 10
-0.21573
 20
-0.20086
 30
0.0
 10
-0.21573
 20
-0.20086
 30
0.0
 10
-0.21573
 20
-0.20086
 30
0.0
 10
-0.2303
 20
-0.17264
 30
0.0
 10
-0.21342
 20
-0.13877
 30
0.0
 10
-0.21342
 20
-0.13877
 30
0.0
 10
-0.16798
 20
-0.15571
 30
0.0
 10
-0.17026
 20
-0.14408
 30
0.0
 10
-0.1563
 20
-0.11761
 30
0.0
 10
-0.1563
 20
-0.11761
 30
0.0
 10
-0.14736
 20
-0.11301
 30
0.0
 10
-0.14784
 20
-0.11226
 30
0.0
 10
-0.14877
 20
-0.10779
 30
0.0
 10
-0.14877
 20
-0.10779
 30
0.0
 10
-0.15041
 20
-0.09993
 30
0.0
 10
-0.1615
 20
-0.09362
 30
0.0
 10
-0.1615
 20
-0.09362
 30
0.0
 10
-0.1615
 20
-0.09362
 30
0.0
 10
-0.1615
 20
-0.09362
 30
0.0
 10
-0.13988
 20
-0.10181
 30
0.0
 10
-0.13683
 20
-0.0781
 30
0.0
 10
-0.13683
 20
-0.0781
 30
0.0
 10
-0.13683
 20
-0.07245
 30
0.0
 10
-0.12255
 20
-0.07386
 30
0.0
 10
-0.12125
 20
-0.06116
 30
0.0
 10
-0.12125
 20
-0.06116
 30
0.0
 10
-0.12515
 20
-0.04141
 30
0.0
 10
-0.13713
 20
-0.03271
 30
0.0
 10
-0.13812
 20
-0.02024
 30
0.0
 10
-0.13812
 20
-0.02024
 30
0.0
 10
-0.13982
 20
0.00095
 30
0.0
 10
-0.11865
 20
0.02209
 30
0.0
 10
-0.1343
 20
0.05786
 30
0.0
  0
SPLINE
  5
67
330
1F
100
AcDbEntity
  8
Ebene 1
 62
     7
370
    13
100
AcDbSpline
210
0.0
220
0.0
230
1.0
 70
    11
 71
     3
 72
    36
 73
    32
 74
     0
 42
0.0000000001
 43
0.0000000001
 40
0.0
 40
0.0
 40
0.0
 40
0.0
 40
0.125
 40
0.125
 40
0.125
 40
0.125
 40
0.25
 40
0.25
 40
0.25
 40
0.25
 40
0.375
 40
0.375
 40
0.375
 40
0.375
 40
0.5
 40
0.5
 40
0.5
 40
0.5
 40
0.625
 40
0.625
 40
0.625
 40
0.625
 40
0.75
 40
0.75
 40
0.75
 40
0.75
 40
0.875
 40
0.875
 40
0.875
 40
0.875
 40
1.0
 40
1.0
 40
1.0
 40
1.0
 10
0.43569
 20
0.21755
 30
0.0
 10
0.43569
 20
0.21755
 30
0.0
 10
0.36103
 20
1.43821
 30
0.0
 10
0.36103
 20
1.43821
 30
0.0
 10
0.36103
 20
1.43821
 30
0.0
 10
0.26617
 20
1.4506
 30
0.0
 10
0.10681
 20
1.48833
 30
0.0
 10
0.01195
 20
1.50072
 30
0.0
 10
0.01195
 20
1.50072
 30
0.0
 10
0.01195
 20
1.50072
 30
0.0
 10
0.36239
 20
1.56653
 30
0.0
 10
0.36239
 20
1.56653
 30
0.0
 10
0.36239
 20
1.56653
 30
0.0
 10
0.36239
 20
1.56653
 30
0.0
 10
0.43569
 20
2.00466
 30
0.0
 10
0.43569
 20
2.00466
 30
0.0
 10
0.43569
 20
2.00466
 30
0.0
 10
0.43569
 20
2.00466
 30
0.0
 10
0.50899
 20
1.56653
 30
0.0
 10
0.50899
 20
1.56653
 30
0.0
 10
0.50899
 20
1.56653
 30
0.0
 10
0.50899
 20
1.56653
 30
0.0
 10
0.85944
 20
1.50072
 30
0.0
 10
0.85944
 20
1.50072
 30
0.0
 10
0.85944
 20
1.50072
 30
0.0
 10
0.76458
 20
1.48833
 30
0.0
 10
0.60521
 20
1.4506
 30
0.0
 10
0.51035
 20
1.43821
 30
0.0
 10
0.51035
 20
1.43821
 30
0.0
 10
0.51035
 20
1.43821
 30
0.0
 10
0.43569
 20
0.21755
 30
0.0
 10
0.43569
 20
0.21755
 30
0.0
  0
SPLINE
  5
68
330
1F
100
AcDbEntity
  8
Ebene 1
370
    13
100
AcDbSpline
210
0.0
220
0.0
230
1.0
 70
     8
 71
     3
 72
     8
 73
     4
 74
     0
 42
0.0000000001
 43
0.0000000001
 40
0.0
 40
0.0
 40
0.0
 40
0.0
 40
1.0
 40
1.0
 40
1.0
 40
1.0
 10
0.04363
 20
-0.67782
 30
0.0
 10
0.04363
 20
-0.67782
 30
0.0
 10
0.0605
 20
-0.67923
 30
0.0
 10
0.06959
 20
-0.6877
 30
0.0
  0
SPLINE
  5
69
330
1F
100
AcDbEntity
  8
Ebene 1
370
    13
100
AcDbSpline
210
0.0
220
0.0
230
1.0
 70
     8
 71
     3
 72
     8
 73
     4
 74
     0
 42
0.0000000001
 43
0.0000000001
 40
0.0
 40
0.0
 40
0.0
 40
0.0
 40
1.0
 40
1.0
 40
1.0
 40
1.0
 10
0.02026
 20
-0.72015
 30
0.0
 10
0.02026
 20
-0.72015
 30
0.0
 10
0.03454
 20
-0.71875
 30
0.0
 10
0.04492
 20
-0.72439
 30
0.0
  0
SPLINE
  5
6A
330
1F
100
AcDbEntity
  8
Ebene 1
370
    13
100
AcDbSpline
210
0.0
220
0.0
230
1.0
 70
     8
 71
     3
 72
     8
 73
     4
 74
     0
 42
0.0000000001
 43
0.0000000001
 40
0.0
 40
0.0
 40
0.0
 40
0.0
 40
1.0
 40
1.0
 40
1.0
 40
1.0
 10
0.00728
 20
-0.76955
 30
0.0
 10
0.00728
 20
-0.76955
 30
0.0
 10
0.02415
 20
-0.76672
 30
0.0
 10
0.03454
 20
-0.77236
 30
0.0
  0
SPLINE
  5
6B
330
1F
100
AcDbEntity
  8
Ebene 1
370
    13
100
AcDbSpline
210
0.0
220
0.0
230
1.0
 70
     8
 71
     3
 72
     8
 73
     4
 74
     0
 42
0.0000000001
 43
0.0000000001
 40
0.0
 40
0.0
 40
0.0
 40
0.0
 40
1.0
 40
1.0
 40
1.0
 40
1.0
 10
0.01117
 20
-0.82317
 30
0.0
 10
0.01117
 20
-0.82317
 30
0.0
 10
0.03064
 20
-0.82175
 30
0.0
 10
0.03843
 20
-0.82599
 30
0.0
  0
SPLINE
  5
6C
330
1F
100
AcDbEntity
  8
Ebene 1
 62
     7
370
    13
100
AcDbSpline
210
0.0
220
0.0
230
1.0
 70
    11
 71
     3
 72
    68
 73
    64
 74
     0
 42
0.0000000001
 43
0.0000000001
 40
0.0
 40
0.0
 40
0.0
 40
0.0
 40
0.0625
 40
0.0625
 40
0.0625
 40
0.0625
 40
0.125
 40
0.125
 40
0.125
 40
0.125
 40
0.1875
 40
0.1875
 40
0.1875
 40
0.1875
 40
0.25
 40
0.25
 40
0.25
 40
0.25
 40
0.3125
 40
0.3125
 40
0.3125
 40
0.3125
 40
0.375
 40
0.375
 40
0.375
 40
0.375
 40
0.4375
 40
0.4375
 40
0.4375
 40
0.4375
 40
0.5
 40
0.5
 40
0.5
 40
0.5
 40
0.5625
 40
0.5625
 40
0.5625
 40
0.5625
 40
0.625
 40
0.625
 40
0.625
 40
0.625
 40
0.6875
 40
0.6875
 40
0.6875
 40
0.6875
 40
0.75
 40
0.75
 40
0.75
 40
0.75
 40
0.8125
 40
0.8125
 40
0.8125
 40
0.8125
 40
0.875
 40
0.875
 40
0.875
 40
0.875
 40
0.9375
 40
0.9375
 40
0.9375
 40
0.9375
 40
1.0
 40
1.0
 40
1.0
 40
1.0
 10
0.72066
 20
-0.58933
 30
0.0
 10
0.76804
 20
-0.52824
 30
0.0
 10
0.70183
 20
-0.45416
 30
0.0
 10
0.66613
 20
-0.45627
 30
0.0
 10
0.66613
 20
-0.45627
 30
0.0
 10
0.65639
 20
-0.45769
 30
0.0
 10
0.65769
 20
-0.46827
 30
0.0
 10
0.65769
 20
-0.46827
 30
0.0
 10
0.65769
 20
-0.46827
 30
0.0
 10
0.65512
 20
-0.46742
 30
0.0
 10
0.64505
 20
-0.46368
 30
0.0
 10
0.64081
 20
-0.46474
 30
0.0
 10
0.64081
 20
-0.46474
 30
0.0
 10
0.62443
 20
-0.46887
 30
0.0
 10
0.62882
 20
-0.47326
 30
0.0
 10
0.61357
 20
-0.47975
 30
0.0
 10
0.61357
 20
-0.47975
 30
0.0
 10
0.60163
 20
-0.48483
 30
0.0
 10
0.59837
 20
-0.46869
 30
0.0
 10
0.59017
 20
-0.47264
 30
0.0
 10
0.59017
 20
-0.47264
 30
0.0
 10
0.58102
 20
-0.47705
 30
0.0
 10
0.5854
 20
-0.48423
 30
0.0
 10
0.57742
 20
-0.48656
 30
0.0
 10
0.57742
 20
-0.48656
 30
0.0
 10
0.5759
 20
-0.487
 30
0.0
 10
0.57341
 20
-0.48497
 30
0.0
 10
0.57038
 20
-0.48585
 30
0.0
 10
0.57038
 20
-0.48585
 30
0.0
 10
0.56591
 20
-0.48715
 30
0.0
 10
0.56709
 20
-0.49071
 30
0.0
 10
0.567
 20
-0.49187
 30
0.0
 10
0.567
 20
-0.49187
 30
0.0
 10
0.56511
 20
-0.48905
 30
0.0
 10
0.55726
 20
-0.48846
 30
0.0
 10
0.556
 20
-0.49608
 30
0.0
 10
0.556
 20
-0.49608
 30
0.0
 10
0.53697
 20
-0.49112
 30
0.0
 10
0.53301
 20
-0.51108
 30
0.0
 10
0.5361
 20
-0.52341
 30
0.0
 10
0.5361
 20
-0.52341
 30
0.0
 10
0.5389
 20
-0.53459
 30
0.0
 10
0.53501
 20
-0.55082
 30
0.0
 10
0.53631
 20
-0.55858
 30
0.0
 10
0.53631
 20
-0.55858
 30
0.0
 10
0.53407
 20
-0.56622
 30
0.0
 10
0.52518
 20
-0.57115
 30
0.0
 10
0.51201
 20
-0.5672
 30
0.0
 10
0.51201
 20
-0.5672
 30
0.0
 10
0.47725
 20
-0.55223
 30
0.0
 10
0.46947
 20
-0.52284
 30
0.0
 10
0.47985
 20
-0.49439
 30
0.0
 10
0.47985
 20
-0.49439
 30
0.0
 10
0.50678
 20
-0.44374
 30
0.0
 10
0.55715
 20
-0.40967
 30
0.0
 10
0.61485
 20
-0.40967
 30
0.0
 10
0.61485
 20
-0.40967
 30
0.0
 10
0.70091
 20
-0.40967
 30
0.0
 10
0.77063
 20
-0.48691
 30
0.0
 10
0.77063
 20
-0.58046
 30
0.0
 10
0.77063
 20
-0.58046
 30
0.0
 10
0.74337
 20
-0.5734
 30
0.0
 10
0.72066
 20
-0.58933
 30
0.0
 10
0.72066
 20
-0.58933
 30
0.0
  0
SPLINE
  5
6D
330
1F
100
AcDbEntity
  8
Ebene 1
 62
     7
370
    13
100
AcDbSpline
210
0.0
220
0.0
230
1.0
 70
    11
 71
     3
 72
    24
 73
    20
 74
     0
 42
0.0000000001
 43
0.0000000001
 40
0.0
 40
0.0
 40
0.0
 40
0.0
 40
0.2
 40
0.2
 40
0.2
 40
0.2
 40
0.4
 40
0.4
 40
0.4
 40
0.4
 40
0.6000000000000001
 40
0.6000000000000001
 40
0.6000000000000001
 40
0.6000000000000001
 40
0.8
 40
0.8
 40
0.8
 40
0.8
 40
1.0
 40
1.0
 40
1.0
 40
1.0
 10
0.60973
 20
-1.08705
 30
0.0
 10
0.60973
 20
-1.08705
 30
0.0
 10
0.26433
 20
-1.08705
 30
0.0
 10
0.26433
 20
-1.08705
 30
0.0
 10
0.26433
 20
-1.08705
 30
0.0
 10
0.26433
 20
-1.08705
 30
0.0
 10
0.30976
 20
-0.96569
 30
0.0
 10
0.30976
 20
-0.96569
 30
0.0
 10
0.30976
 20
-0.96569
 30
0.0
 10
0.30976
 20
-0.96569
 30
0.0
 10
0.56162
 20
-0.96569
 30
0.0
 10
0.56162
 20
-0.96569
 30
0.0
 10
0.56162
 20
-0.96569
 30
0.0
 10
0.56162
 20
-0.96569
 30
0.0
 10
0.60706
 20
-1.08705
 30
0.0
 10
0.60706
 20
-1.08705
 30
0.0
 10
0.60706
 20
-1.08705
 30
0.0
 10
0.60706
 20
-1.08705
 30
0.0
 10
0.60973
 20
-1.08705
 30
0.0
 10
0.60973
 20
-1.08705
 30
0.0
  0
SPLINE
  5
6E
330
1F
100
AcDbEntity
  8
Ebene 1
370
    13
100
AcDbSpline
210
0.0
220
0.0
230
1.0
 70
    24
 71
     3
 72
     8
 73
     4
 74
     0
 42
0.0000000001
 43
0.0000000001
 40
0.0
 40
0.0
 40
0.0
 40
0.0
 40
1.0
 40
1.0
 40
1.0
 40
1.0
 10
1.33437
 20
0.33799
 30
0.0
 10
1.33437
 20
0.33799
 30
0.0
 10
1.33643
 20
0.33998
 30
0.0
 10
1.33643
 20
0.33998
 30
0.0
  0
SPLINE
  5
6F
330
1F
100
AcDbEntity
  8
Ebene 1
 62
     7
370
    13
100
AcDbSpline
210
0.0
220
0.0
230
1.0
 70
    11
 71
     3
 72
    40
 73
    36
 74
     0
 42
0.0000000001
 43
0.0000000001
 40
0.0
 40
0.0
 40
0.0
 40
0.0
 40
0.1111111111111111
 40
0.1111111111111111
 40
0.1111111111111111
 40
0.1111111111111111
 40
0.2222222222222222
 40
0.2222222222222222
 40
0.2222222222222222
 40
0.2222222222222222
 40
0.3333333333333333
 40
0.3333333333333333
 40
0.3333333333333333
 40
0.3333333333333333
 40
0.4444444444444444
 40
0.4444444444444444
 40
0.4444444444444444
 40
0.4444444444444444
 40
0.5555555555555556
 40
0.5555555555555556
 40
0.5555555555555556
 40
0.5555555555555556
 40
0.6666666666666667
 40
0.6666666666666667
 40
0.6666666666666667
 40
0.6666666666666667
 40
0.7777777777777779
 40
0.7777777777777779
 40
0.7777777777777779
 40
0.7777777777777779
 40
0.8888888888888891
 40
0.8888888888888891
 40
0.8888888888888891
 40
0.8888888888888891
 40
1.0
 40
1.0
 40
1.0
 40
1.0
 10
1.07442
 20
-0.05128
 30
0.0
 10
1.07442
 20
-0.05128
 30
0.0
 10
1.09779
 20
-0.09644
 30
0.0
 10
1.08481
 20
-0.12748
 30
0.0
 10
1.08481
 20
-0.12748
 30
0.0
 10
1.07486
 20
-0.14587
 30
0.0
 10
1.06403
 20
-0.20368
 30
0.0
 10
1.05884
 20
-0.28835
 30
0.0
 10
1.05884
 20
-0.28835
 30
0.0
 10
1.05115
 20
-0.41379
 30
0.0
 10
0.98614
 20
-0.41535
 30
0.0
 10
1.03109
 20
-0.6723
 30
0.0
 10
1.03109
 20
-0.6723
 30
0.0
 10
1.03109
 20
-0.6723
 30
0.0
 10
1.01582
 20
-0.76634
 30
0.0
 10
1.01582
 20
-0.76634
 30
0.0
 10
1.01582
 20
-0.76634
 30
0.0
 10
1.01582
 20
-0.76634
 30
0.0
 10
0.93949
 20
0.03021
 30
0.0
 10
0.93949
 20
0.03021
 30
0.0
 10
0.93949
 20
0.03021
 30
0.0
 10
0.95394
 20
0.03457
 30
0.0
 10
0.96017
 20
0.01222
 30
0.0
 10
0.96147
 20
-0.01318
 30
0.0
 10
0.96147
 20
-0.01318
 30
0.0
 10
0.97056
 20
-0.06257
 30
0.0
 10
1.05884
 20
-0.04846
 30
0.0
 10
1.05884
 20
-0.04846
 30
0.0
 10
1.05884
 20
-0.04846
 30
0.0
 10
1.06602
 20
-0.05215
 30
0.0
 10
1.07053
 20
-0.04807
 30
0.0
 10
1.07702
 20
-0.04988
 30
0.0
 10
1.07702
 20
-0.04988
 30
0.0
 10
1.07702
 20
-0.04988
 30
0.0
 10
1.07442
 20
-0.05128
 30
0.0
 10
1.07442
 20
-0.05128
 30
0.0
  0
SPLINE
  5
70
330
1F
100
AcDbEntity
  8
Ebene 1
 62
     7
370
    13
100
AcDbSpline
210
0.0
220
0.0
230
1.0
 70
    11
 71
     3
 72
    20
 73
    16
 74
     0
 42
0.0000000001
 43
0.0000000001
 40
0.0
 40
0.0
 40
0.0
 40
0.0
 40
0.25
 40
0.25
 40
0.25
 40
0.25
 40
0.5
 40
0.5
 40
0.5
 40
0.5
 40
0.75
 40
0.75
 40
0.75
 40
0.75
 40
1.0
 40
1.0
 40
1.0
 40
1.0
 10
-0.00311
 20
2.05411
 30
0.0
 10
0.10121
 20
2.17636
 30
0.0
 10
0.25654
 20
2.30529
 30
0.0
 10
0.41492
 20
2.35045
 30
0.0
 10
0.41492
 20
2.35045
 30
0.0
 10
0.41492
 20
2.35045
 30
0.0
 10
0.30845
 20
1.73596
 30
0.0
 10
0.30845
 20
1.73596
 30
0.0
 10
0.30845
 20
1.73596
 30
0.0
 10
0.30845
 20
1.73596
 30
0.0
 10
-0.00311
 20
2.05129
 30
0.0
 10
-0.00311
 20
2.05129
 30
0.0
 10
-0.00311
 20
2.05129
 30
0.0
 10
-0.00311
 20
2.05129
 30
0.0
 10
-0.00311
 20
2.05411
 30
0.0
 10
-0.00311
 20
2.05411
 30
0.0
  0
SPLINE
  5
71
330
1F
100
AcDbEntity
  8
Ebene 1
 62
     7
370
    13
100
AcDbSpline
210
0.0
220
0.0
230
1.0
 70
    11
 71
     3
 72
    20
 73
    16
 74
     0
 42
0.0000000001
 43
0.0000000001
 40
0.0
 40
0.0
 40
0.0
 40
0.0
 40
0.25
 40
0.25
 40
0.25
 40
0.25
 40
0.5
 40
0.5
 40
0.5
 40
0.5
 40
0.75
 40
0.75
 40
0.75
 40
0.75
 40
1.0
 40
1.0
 40
1.0
 40
1.0
 10
-0.26661
 20
1.55341
 30
0.0
 10
-0.2342
 20
1.75213
 30
0.0
 10
-0.14133
 20
1.90619
 30
0.0
 10
-0.01869
 20
2.04282
 30
0.0
 10
-0.01869
 20
2.04282
 30
0.0
 10
-0.01869
 20
2.04282
 30
0.0
 10
0.24229
 20
1.65299
 30
0.0
 10
0.24229
 20
1.65299
 30
0.0
 10
0.24229
 20
1.65299
 30
0.0
 10
0.24229
 20
1.65299
 30
0.0
 10
-0.26535
 20
1.55034
 30
0.0
 10
-0.26535
 20
1.55034
 30
0.0
 10
-0.26535
 20
1.55034
 30
0.0
 10
-0.26535
 20
1.55034
 30
0.0
 10
-0.26661
 20
1.55341
 30
0.0
 10
-0.26661
 20
1.55341
 30
0.0
  0
SPLINE
  5
72
330
1F
100
AcDbEntity
  8
Ebene 1
 62
     7
370
    13
100
AcDbSpline
210
0.0
220
0.0
230
1.0
 70
    11
 71
     3
 72
    24
 73
    20
 74
     0
 42
0.0000000001
 43
0.0000000001
 40
0.0
 40
0.0
 40
0.0
 40
0.0
 40
0.2
 40
0.2
 40
0.2
 40
0.2
 40
0.4
 40
0.4
 40
0.4
 40
0.4
 40
0.6000000000000001
 40
0.6000000000000001
 40
0.6000000000000001
 40
0.6000000000000001
 40
0.8
 40
0.8
 40
0.8
 40
0.8
 40
1.0
 40
1.0
 40
1.0
 40
1.0
 10
-0.27055
 20
1.5066
 30
0.0
 10
-0.2848
 20
1.39154
 30
0.0
 10
-0.30681
 20
1.21999
 30
0.0
 10
-0.20044
 20
1.14253
 30
0.0
 10
-0.20044
 20
1.14253
 30
0.0
 10
-0.1852
 20
1.16239
 30
0.0
 10
-0.16119
 20
1.17639
 30
0.0
 10
-0.13553
 20
1.17639
 30
0.0
 10
-0.13553
 20
1.17639
 30
0.0
 10
-0.10798
 20
1.17639
 30
0.0
 10
-0.0817
 20
1.1606
 30
0.0
 10
-0.06659
 20
1.13815
 30
0.0
 10
-0.06659
 20
1.13815
 30
0.0
 10
-0.06659
 20
1.13815
 30
0.0
 10
0.19649
 20
1.42066
 30
0.0
 10
0.19649
 20
1.42066
 30
0.0
 10
0.19649
 20
1.42066
 30
0.0
 10
0.19649
 20
1.42066
 30
0.0
 10
-0.27055
 20
1.5066
 30
0.0
 10
-0.27055
 20
1.5066
 30
0.0
  0
SPLINE
  5
73
330
1F
100
AcDbEntity
  8
Ebene 1
 62
     7
370
    13
100
AcDbSpline
210
0.0
220
0.0
230
1.0
 70
    11
 71
     3
 72
    72
 73
    68
 74
     0
 42
0.0000000001
 43
0.0000000001
 40
0.0
 40
0.0
 40
0.0
 40
0.0
 40
0.0588235294117647
 40
0.0588235294117647
 40
0.0588235294117647
 40
0.0588235294117647
 40
0.1176470588235294
 40
0.1176470588235294
 40
0.1176470588235294
 40
0.1176470588235294
 40
0.1764705882352941
 40
0.1764705882352941
 40
0.1764705882352941
 40
0.1764705882352941
 40
0.2352941176470588
 40
0.2352941176470588
 40
0.2352941176470588
 40
0.2352941176470588
 40
0.2941176470588235
 40
0.2941176470588235
 40
0.2941176470588235
 40
0.2941176470588235
 40
0.3529411764705883
 40
0.3529411764705883
 40
0.3529411764705883
 40
0.3529411764705883
 40
0.411764705882353
 40
0.411764705882353
 40
0.411764705882353
 40
0.411764705882353
 40
0.4705882352941177
 40
0.4705882352941177
 40
0.4705882352941177
 40
0.4705882352941177
 40
0.5294117647058824
 40
0.5294117647058824
 40
0.5294117647058824
 40
0.5294117647058824
 40
0.5882352941176471
 40
0.5882352941176471
 40
0.5882352941176471
 40
0.5882352941176471
 40
0.6470588235294118
 40
0.6470588235294118
 40
0.6470588235294118
 40
0.6470588235294118
 40
0.7058823529411765
 40
0.7058823529411765
 40
0.7058823529411765
 40
0.7058823529411765
 40
0.7647058823529412
 40
0.7647058823529412
 40
0.7647058823529412
 40
0.7647058823529412
 40
0.823529411764706
 40
0.823529411764706
 40
0.823529411764706
 40
0.823529411764706
 40
0.8823529411764707
 40
0.8823529411764707
 40
0.8823529411764707
 40
0.8823529411764707
 40
0.9411764705882354
 40
0.9411764705882354
 40
0.9411764705882354
 40
0.9411764705882354
 40
1.0
 40
1.0
 40
1.0
 40
1.0
 10
1.3059
 20
0.38758
 30
0.0
 10
1.28453
 20
0.44289
 30
0.0
 10
1.3366
 20
0.49953
 30
0.0
 10
1.31499
 20
0.56538
 30
0.0
 10
1.31499
 20
0.56538
 30
0.0
 10
1.30062
 20
0.60914
 30
0.0
 10
1.26129
 20
0.62323
 30
0.0
 10
1.24229
 20
0.64864
 30
0.0
 10
1.24229
 20
0.64864
 30
0.0
 10
1.22086
 20
0.67728
 30
0.0
 10
1.16965
 20
0.67956
 30
0.0
 10
1.12667
 20
0.63868
 30
0.0
 10
1.12667
 20
0.63868
 30
0.0
 10
1.11032
 20
0.62313
 30
0.0
 10
1.09429
 20
0.63311
 30
0.0
 10
1.07352
 20
0.60348
 30
0.0
 10
1.07352
 20
0.60348
 30
0.0
 10
1.06193
 20
0.58694
 30
0.0
 10
1.07222
 20
0.56396
 30
0.0
 10
1.0852
 20
0.54844
 30
0.0
 10
1.0852
 20
0.54844
 30
0.0
 10
1.07612
 20
0.52869
 30
0.0
 10
1.09689
 20
0.51599
 30
0.0
 10
1.09169
 20
0.48635
 30
0.0
 10
1.09169
 20
0.48635
 30
0.0
 10
1.0897
 20
0.475
 30
0.0
 10
1.07741
 20
0.46236
 30
0.0
 10
1.07741
 20
0.45531
 30
0.0
 10
1.07741
 20
0.45531
 30
0.0
 10
1.07741
 20
0.43979
 30
0.0
 10
1.09818
 20
0.44544
 30
0.0
 10
1.10337
 20
0.43838
 30
0.0
 10
1.10337
 20
0.43838
 30
0.0
 10
1.1121
 20
0.42653
 30
0.0
 10
1.11371
 20
0.40798
 30
0.0
 10
1.10987
 20
0.39463
 30
0.0
 10
1.10987
 20
0.39463
 30
0.0
 10
1.10561
 20
0.37982
 30
0.0
 10
1.09818
 20
0.38475
 30
0.0
 10
1.10468
 20
0.36782
 30
0.0
 10
1.10468
 20
0.36782
 30
0.0
 10
1.10727
 20
0.35794
 30
0.0
 10
1.13843
 20
0.36714
 30
0.0
 10
1.14103
 20
0.35935
 30
0.0
 10
1.14103
 20
0.35935
 30
0.0
 10
1.14192
 20
0.35668
 30
0.0
 10
1.14399
 20
0.34
 30
0.0
 10
1.141
 20
0.32683
 30
0.0
 10
1.141
 20
0.32683
 30
0.0
 10
1.06311
 20
0.34499
 30
0.0
 10
1.00471
 20
0.42025
 30
0.0
 10
1.00471
 20
0.51034
 30
0.0
 10
1.00471
 20
0.51034
 30
0.0
 10
1.00471
 20
0.614
 30
0.0
 10
1.08202
 20
0.69802
 30
0.0
 10
1.17738
 20
0.69802
 30
0.0
 10
1.17738
 20
0.69802
 30
0.0
 10
1.27274
 20
0.69802
 30
0.0
 10
1.35004
 20
0.614
 30
0.0
 10
1.35004
 20
0.51034
 30
0.0
 10
1.35004
 20
0.51034
 30
0.0
 10
1.35004
 20
0.46248
 30
0.0
 10
1.33355
 20
0.4188
 30
0.0
 10
1.30642
 20
0.38564
 30
0.0
 10
1.30642
 20
0.38564
 30
0.0
 10
1.30642
 20
0.38564
 30
0.0
 10
1.3059
 20
0.38758
 30
0.0
 10
1.3059
 20
0.38758
 30
0.0
  0
SPLINE
  5
74
330
1F
100
AcDbEntity
  8
Ebene 1
 62
     7
370
    13
100
AcDbSpline
210
0.0
220
0.0
230
1.0
 70
    11
 71
     3
 72
   416
 73
   412
 74
     0
 42
0.0000000001
 43
0.0000000001
 40
0.0
 40
0.0
 40
0.0
 40
0.0
 40
0.0097087378640777
 40
0.0097087378640777
 40
0.0097087378640777
 40
0.0097087378640777
 40
0.0194174757281553
 40
0.0194174757281553
 40
0.0194174757281553
 40
0.0194174757281553
 40
0.029126213592233
 40
0.029126213592233
 40
0.029126213592233
 40
0.029126213592233
 40
0.0388349514563107
 40
0.0388349514563107
 40
0.0388349514563107
 40
0.0388349514563107
 40
0.0485436893203883
 40
0.0485436893203883
 40
0.0485436893203883
 40
0.0485436893203883
 40
0.058252427184466
 40
0.058252427184466
 40
0.058252427184466
 40
0.058252427184466
 40
0.0679611650485437
 40
0.0679611650485437
 40
0.0679611650485437
 40
0.0679611650485437
 40
0.0776699029126213
 40
0.0776699029126213
 40
0.0776699029126213
 40
0.0776699029126213
 40
0.087378640776699
 40
0.087378640776699
 40
0.087378640776699
 40
0.087378640776699
 40
0.0970873786407767
 40
0.0970873786407767
 40
0.0970873786407767
 40
0.0970873786407767
 40
0.1067961165048543
 40
0.1067961165048543
 40
0.1067961165048543
 40
0.1067961165048543
 40
0.116504854368932
 40
0.116504854368932
 40
0.116504854368932
 40
0.116504854368932
 40
0.1262135922330097
 40
0.1262135922330097
 40
0.1262135922330097
 40
0.1262135922330097
 40
0.1359223300970873
 40
0.1359223300970873
 40
0.1359223300970873
 40
0.1359223300970873
 40
0.145631067961165
 40
0.145631067961165
 40
0.145631067961165
 40
0.145631067961165
 40
0.1553398058252427
 40
0.1553398058252427
 40
0.1553398058252427
 40
0.1553398058252427
 40
0.1650485436893203
 40
0.1650485436893203
 40
0.1650485436893203
 40
0.1650485436893203
 40
0.174757281553398
 40
0.174757281553398
 40
0.174757281553398
 40
0.174757281553398
 40
0.1844660194174757
 40
0.1844660194174757
 40
0.1844660194174757
 40
0.1844660194174757
 40
0.1941747572815533
 40
0.1941747572815533
 40
0.1941747572815533
 40
0.1941747572815533
 40
0.203883495145631
 40
0.203883495145631
 40
0.203883495145631
 40
0.203883495145631
 40
0.2135922330097087
 40
0.2135922330097087
 40
0.2135922330097087
 40
0.2135922330097087
 40
0.2233009708737863
 40
0.2233009708737863
 40
0.2233009708737863
 40
0.2233009708737863
 40
0.233009708737864
 40
0.233009708737864
 40
0.233009708737864
 40
0.233009708737864
 40
0.2427184466019417
 40
0.2427184466019417
 40
0.2427184466019417
 40
0.2427184466019417
 40
0.2524271844660194
 40
0.2524271844660194
 40
0.2524271844660194
 40
0.2524271844660194
 40
0.262135922330097
 40
0.262135922330097
 40
0.262135922330097
 40
0.262135922330097
 40
0.2718446601941747
 40
0.2718446601941747
 40
0.2718446601941747
 40
0.2718446601941747
 40
0.2815533980582524
 40
0.2815533980582524
 40
0.2815533980582524
 40
0.2815533980582524
 40
0.29126213592233
 40
0.29126213592233
 40
0.29126213592233
 40
0.29126213592233
 40
0.3009708737864077
 40
0.3009708737864077
 40
0.3009708737864077
 40
0.3009708737864077
 40
0.3106796116504854
 40
0.3106796116504854
 40
0.3106796116504854
 40
0.3106796116504854
 40
0.320388349514563
 40
0.320388349514563
 40
0.320388349514563
 40
0.320388349514563
 40
0.3300970873786407
 40
0.3300970873786407
 40
0.3300970873786407
 40
0.3300970873786407
 40
0.3398058252427184
 40
0.3398058252427184
 40
0.3398058252427184
 40
0.3398058252427184
 40
0.349514563106796
 40
0.349514563106796
 40
0.349514563106796
 40
0.349514563106796
 40
0.3592233009708737
 40
0.3592233009708737
 40
0.3592233009708737
 40
0.3592233009708737
 40
0.3689320388349513
 40
0.3689320388349513
 40
0.3689320388349513
 40
0.3689320388349513
 40
0.378640776699029
 40
0.378640776699029
 40
0.378640776699029
 40
0.378640776699029
 40
0.3883495145631067
 40
0.3883495145631067
 40
0.3883495145631067
 40
0.3883495145631067
 40
0.3980582524271843
 40
0.3980582524271843
 40
0.3980582524271843
 40
0.3980582524271843
 40
0.407766990291262
 40
0.407766990291262
 40
0.407766990291262
 40
0.407766990291262
 40
0.4174757281553397
 40
0.4174757281553397
 40
0.4174757281553397
 40
0.4174757281553397
 40
0.4271844660194173
 40
0.4271844660194173
 40
0.4271844660194173
 40
0.4271844660194173
 40
0.436893203883495
 40
0.436893203883495
 40
0.436893203883495
 40
0.436893203883495
 40
0.4466019417475727
 40
0.4466019417475727
 40
0.4466019417475727
 40
0.4466019417475727
 40
0.4563106796116503
 40
0.4563106796116503
 40
0.4563106796116503
 40
0.4563106796116503
 40
0.466019417475728
 40
0.466019417475728
 40
0.466019417475728
 40
0.466019417475728
 40
0.4757281553398057
 40
0.4757281553398057
 40
0.4757281553398057
 40
0.4757281553398057
 40
0.4854368932038833
 40
0.4854368932038833
 40
0.4854368932038833
 40
0.4854368932038833
 40
0.495145631067961
 40
0.495145631067961
 40
0.495145631067961
 40
0.495145631067961
 40
0.5048543689320387
 40
0.5048543689320387
 40
0.5048543689320387
 40
0.5048543689320387
 40
0.5145631067961164
 40
0.5145631067961164
 40
0.5145631067961164
 40
0.5145631067961164
 40
0.524271844660194
 40
0.524271844660194
 40
0.524271844660194
 40
0.524271844660194
 40
0.5339805825242717
 40
0.5339805825242717
 40
0.5339805825242717
 40
0.5339805825242717
 40
0.5436893203883494
 40
0.5436893203883494
 40
0.5436893203883494
 40
0.5436893203883494
 40
0.553398058252427
 40
0.553398058252427
 40
0.553398058252427
 40
0.553398058252427
 40
0.5631067961165047
 40
0.5631067961165047
 40
0.5631067961165047
 40
0.5631067961165047
 40
0.5728155339805824
 40
0.5728155339805824
 40
0.5728155339805824
 40
0.5728155339805824
 40
0.58252427184466
 40
0.58252427184466
 40
0.58252427184466
 40
0.58252427184466
 40
0.5922330097087377
 40
0.5922330097087377
 40
0.5922330097087377
 40
0.5922330097087377
 40
0.6019417475728154
 40
0.6019417475728154
 40
0.6019417475728154
 40
0.6019417475728154
 40
0.611650485436893
 40
0.611650485436893
 40
0.611650485436893
 40
0.611650485436893
 40
0.6213592233009707
 40
0.6213592233009707
 40
0.6213592233009707
 40
0.6213592233009707
 40
0.6310679611650484
 40
0.6310679611650484
 40
0.6310679611650484
 40
0.6310679611650484
 40
0.640776699029126
 40
0.640776699029126
 40
0.640776699029126
 40
0.640776699029126
 40
0.6504854368932037
 40
0.6504854368932037
 40
0.6504854368932037
 40
0.6504854368932037
 40
0.6601941747572814
 40
0.6601941747572814
 40
0.6601941747572814
 40
0.6601941747572814
 40
0.669902912621359
 40
0.669902912621359
 40
0.669902912621359
 40
0.669902912621359
 40
0.6796116504854367
 40
0.6796116504854367
 40
0.6796116504854367
 40
0.6796116504854367
 40
0.6893203883495144
 40
0.6893203883495144
 40
0.6893203883495144
 40
0.6893203883495144
 40
0.699029126213592
 40
0.699029126213592
 40
0.699029126213592
 40
0.699029126213592
 40
0.7087378640776697
 40
0.7087378640776697
 40
0.7087378640776697
 40
0.7087378640776697
 40
0.7184466019417474
 40
0.7184466019417474
 40
0.7184466019417474
 40
0.7184466019417474
 40
0.728155339805825
 40
0.728155339805825
 40
0.728155339805825
 40
0.728155339805825
 40
0.7378640776699027
 40
0.7378640776699027
 40
0.7378640776699027
 40
0.7378640776699027
 40
0.7475728155339804
 40
0.7475728155339804
 40
0.7475728155339804
 40
0.7475728155339804
 40
0.757281553398058
 40
0.757281553398058
 40
0.757281553398058
 40
0.757281553398058
 40
0.7669902912621357
 40
0.7669902912621357
 40
0.7669902912621357
 40
0.7669902912621357
 40
0.7766990291262134
 40
0.7766990291262134
 40
0.7766990291262134
 40
0.7766990291262134
 40
0.786407766990291
 40
0.786407766990291
 40
0.786407766990291
 40
0.786407766990291
 40
0.7961165048543687
 40
0.7961165048543687
 40
0.7961165048543687
 40
0.7961165048543687
 40
0.8058252427184464
 40
0.8058252427184464
 40
0.8058252427184464
 40
0.8058252427184464
 40
0.815533980582524
 40
0.815533980582524
 40
0.815533980582524
 40
0.815533980582524
 40
0.8252427184466017
 40
0.8252427184466017
 40
0.8252427184466017
 40
0.8252427184466017
 40
0.8349514563106794
 40
0.8349514563106794
 40
0.8349514563106794
 40
0.8349514563106794
 40
0.844660194174757
 40
0.844660194174757
 40
0.844660194174757
 40
0.844660194174757
 40
0.8543689320388347
 40
0.8543689320388347
 40
0.8543689320388347
 40
0.8543689320388347
 40
0.8640776699029123
 40
0.8640776699029123
 40
0.8640776699029123
 40
0.8640776699029123
 40
0.87378640776699
 40
0.87378640776699
 40
0.87378640776699
 40
0.87378640776699
 40
0.8834951456310677
 40
0.8834951456310677
 40
0.8834951456310677
 40
0.8834951456310677
 40
0.8932038834951453
 40
0.8932038834951453
 40
0.8932038834951453
 40
0.8932038834951453
 40
0.902912621359223
 40
0.902912621359223
 40
0.902912621359223
 40
0.902912621359223
 40
0.9126213592233007
 40
0.9126213592233007
 40
0.9126213592233007
 40
0.9126213592233007
 40
0.9223300970873783
 40
0.9223300970873783
 40
0.9223300970873783
 40
0.9223300970873783
 40
0.932038834951456
 40
0.932038834951456
 40
0.932038834951456
 40
0.932038834951456
 40
0.9417475728155337
 40
0.9417475728155337
 40
0.9417475728155337
 40
0.9417475728155337
 40
0.9514563106796113
 40
0.9514563106796113
 40
0.9514563106796113
 40
0.9514563106796113
 40
0.961165048543689
 40
0.961165048543689
 40
0.961165048543689
 40
0.961165048543689
 40
0.9708737864077667
 40
0.9708737864077667
 40
0.9708737864077667
 40
0.9708737864077667
 40
0.9805825242718443
 40
0.9805825242718443
 40
0.9805825242718443
 40
0.9805825242718443
 40
0.990291262135922
 40
0.990291262135922
 40
0.990291262135922
 40
0.990291262135922
 40
1.0
 40
1.0
 40
1.0
 40
1.0
 10
1.33714
 20
0.33998
 30
0.0
 10
1.47963
 20
0.17126
 30
0.0
 10
1.3275
 20
-0.03835
 30
0.0
 10
1.37714
 20
-0.20212
 30
0.0
 10
1.37714
 20
-0.20212
 30
0.0
 10
1.40157
 20
-0.28271
 30
0.0
 10
1.40936
 20
-0.31093
 30
0.0
 10
1.39378
 20
-0.35044
 30
0.0
 10
1.39378
 20
-0.35044
 30
0.0
 10
1.37923
 20
-0.38735
 30
0.0
 10
1.4358
 20
-0.43503
 30
0.0
 10
1.42494
 20
-0.46898
 30
0.0
 10
1.42494
 20
-0.46898
 30
0.0
 10
1.38735
 20
-0.58651
 30
0.0
 10
1.47687
 20
-0.75966
 30
0.0
 10
1.44571
 20
-0.83305
 30
0.0
 10
1.44571
 20
-0.83305
 30
0.0
 10
1.41314
 20
-0.89887
 30
0.0
 10
1.4866
 20
-0.99612
 30
0.0
 10
1.37821
 20
-0.99392
 30
0.0
 10
1.37821
 20
-0.99392
 30
0.0
 10
1.37821
 20
-0.99392
 30
0.0
 10
1.33667
 20
-1.00238
 30
0.0
 10
1.33667
 20
-1.00238
 30
0.0
 10
1.33667
 20
-1.00238
 30
0.0
 10
1.32628
 20
-1.02213
 30
0.0
 10
1.36782
 20
-1.06447
 30
0.0
 10
1.32887
 20
-1.08705
 30
0.0
 10
1.32887
 20
-1.08705
 30
0.0
 10
1.32887
 20
-1.08705
 30
0.0
 10
1.33147
 20
-1.08705
 30
0.0
 10
1.33147
 20
-1.08705
 30
0.0
 10
1.33147
 20
-1.08705
 30
0.0
 10
1.33147
 20
-1.08705
 30
0.0
 10
1.46908
 20
-1.08705
 30
0.0
 10
1.46908
 20
-1.08705
 30
0.0
 10
1.46908
 20
-1.08705
 30
0.0
 10
1.46908
 20
-1.08705
 30
0.0
 10
1.46908
 20
0.32972
 30
0.0
 10
1.46908
 20
0.32972
 30
0.0
 10
1.46908
 20
0.32972
 30
0.0
 10
1.46908
 20
0.95061
 30
0.0
 10
1.24319
 20
1.04375
 30
0.0
 10
1.07442
 20
1.03246
 30
0.0
 10
1.07442
 20
1.03246
 30
0.0
 10
1.05918
 20
1.0126
 30
0.0
 10
1.03256
 20
0.99577
 30
0.0
 10
1.00691
 20
0.99577
 30
0.0
 10
1.00691
 20
0.99577
 30
0.0
 10
0.96102
 20
0.99577
 30
0.0
 10
0.92382
 20
1.0362
 30
0.0
 10
0.92382
 20
1.08608
 30
0.0
 10
0.92382
 20
1.08608
 30
0.0
 10
0.92382
 20
1.09639
 30
0.0
 10
0.92542
 20
1.1063
 30
0.0
 10
0.92834
 20
1.11553
 30
0.0
 10
0.92834
 20
1.11553
 30
0.0
 10
0.92834
 20
1.11553
 30
0.0
 10
0.57346
 20
1.34322
 30
0.0
 10
0.57346
 20
1.34322
 30
0.0
 10
0.57346
 20
1.34322
 30
0.0
 10
0.57346
 20
1.34322
 30
0.0
 10
0.43569
 20
-0.21628
 30
0.0
 10
0.43569
 20
-0.21628
 30
0.0
 10
0.43569
 20
-0.21628
 30
0.0
 10
0.43569
 20
-0.21628
 30
0.0
 10
0.29792
 20
1.34322
 30
0.0
 10
0.29792
 20
1.34322
 30
0.0
 10
0.29792
 20
1.34322
 30
0.0
 10
0.29792
 20
1.34322
 30
0.0
 10
-0.05696
 20
1.11553
 30
0.0
 10
-0.05696
 20
1.11553
 30
0.0
 10
-0.05696
 20
1.11553
 30
0.0
 10
-0.05403
 20
1.1063
 30
0.0
 10
-0.05245
 20
1.09639
 30
0.0
 10
-0.05245
 20
1.08608
 30
0.0
 10
-0.05245
 20
1.08608
 30
0.0
 10
-0.05245
 20
1.0362
 30
0.0
 10
-0.08964
 20
0.99577
 30
0.0
 10
-0.13553
 20
0.99577
 30
0.0
 10
-0.13553
 20
0.99577
 30
0.0
 10
-0.16119
 20
0.99577
 30
0.0
 10
-0.1878
 20
1.0126
 30
0.0
 10
-0.20304
 20
1.03246
 30
0.0
 10
-0.20304
 20
1.03246
 30
0.0
 10
-0.3718
 20
1.04375
 30
0.0
 10
-0.59709
 20
0.96053
 30
0.0
 10
-0.59709
 20
0.33963
 30
0.0
 10
-0.59709
 20
0.33963
 30
0.0
 10
-0.59709
 20
0.33963
 30
0.0
 10
-0.59709
 20
-1.08705
 30
0.0
 10
-0.59709
 20
-1.08705
 30
0.0
 10
-0.59709
 20
-1.08705
 30
0.0
 10
-0.59709
 20
-1.08705
 30
0.0
 10
-0.53928
 20
-1.08705
 30
0.0
 10
-0.53928
 20
-1.08705
 30
0.0
 10
-0.53928
 20
-1.08705
 30
0.0
 10
-0.53928
 20
-1.08705
 30
0.0
 10
-0.53928
 20
-1.08705
 30
0.0
 10
-0.53928
 20
-1.08705
 30
0.0
 10
-0.53928
 20
-1.08705
 30
0.0
 10
-0.5224
 20
-0.99956
 30
0.0
 10
-0.59251
 20
-1.00802
 30
0.0
 10
-0.54188
 20
-0.93605
 30
0.0
 10
-0.54188
 20
-0.93605
 30
0.0
 10
-0.56743
 20
-0.93144
 30
0.0
 10
-0.58657
 20
-0.92414
 30
0.0
 10
-0.58731
 20
-0.91771
 30
0.0
 10
-0.58731
 20
-0.91771
 30
0.0
 10
-0.58861
 20
-0.89937
 30
0.0
 10
-0.53655
 20
-0.88592
 30
0.0
 10
-0.50942
 20
-0.85845
 30
0.0
 10
-0.50942
 20
-0.85845
 30
0.0
 10
-0.38662
 20
-0.73407
 30
0.0
 10
-0.46788
 20
-0.5734
 30
0.0
 10
-0.44711
 20
-0.3956
 30
0.0
 10
-0.44711
 20
-0.3956
 30
0.0
 10
-0.43995
 20
-0.33435
 30
0.0
 10
-0.41854
 20
-0.24037
 30
0.0
 10
-0.41854
 20
-0.24037
 30
0.0
 10
-0.41854
 20
-0.24037
 30
0.0
 10
-0.41854
 20
-0.24037
 30
0.0
 10
-0.42741
 20
-0.23263
 30
0.0
 10
-0.43153
 20
-0.22626
 30
0.0
 10
-0.43153
 20
-0.22626
 30
0.0
 10
-0.45142
 20
-0.19548
 30
0.0
 10
-0.40419
 20
-0.13046
 30
0.0
 10
-0.40594
 20
-0.12778
 30
0.0
 10
-0.40594
 20
-0.12778
 30
0.0
 10
-0.42887
 20
-0.09264
 30
0.0
 10
-0.43412
 20
-0.06394
 30
0.0
 10
-0.43412
 20
-0.01459
 30
0.0
 10
-0.43412
 20
-0.01459
 30
0.0
 10
-0.43412
 20
0.11322
 30
0.0
 10
-0.3388
 20
0.21683
 30
0.0
 10
-0.22121
 20
0.21683
 30
0.0
 10
-0.22121
 20
0.21683
 30
0.0
 10
-0.10362
 20
0.21683
 30
0.0
 10
-0.00831
 20
0.11322
 30
0.0
 10
-0.00831
 20
-0.01459
 30
0.0
 10
-0.00831
 20
-0.01459
 30
0.0
 10
-0.00831
 20
-0.13953
 30
0.0
 10
-0.09939
 20
-0.24135
 30
0.0
 10
-0.21332
 20
-0.24586
 30
0.0
 10
-0.21332
 20
-0.24586
 30
0.0
 10
-0.19077
 20
-0.32099
 30
0.0
 10
-0.16549
 20
-0.33757
 30
0.0
 10
-0.14332
 20
-0.32222
 30
0.0
 10
-0.14332
 20
-0.32222
 30
0.0
 10
-0.13279
 20
-0.31493
 30
0.0
 10
-0.12388
 20
-0.3088
 30
0.0
 10
-0.11609
 20
-0.30171
 30
0.0
 10
-0.11609
 20
-0.30171
 30
0.0
 10
-0.1055
 20
-0.29208
 30
0.0
 10
-0.1058
 20
-0.28439
 30
0.0
 10
-0.09788
 20
-0.26718
 30
0.0
 10
-0.09788
 20
-0.26718
 30
0.0
 10
-0.0968
 20
-0.26482
 30
0.0
 10
-0.08879
 20
-0.22909
 30
0.0
 10
-0.0816
 20
-0.22956
 30
0.0
 10
-0.0816
 20
-0.22956
 30
0.0
 10
-0.06737
 20
-0.22626
 30
0.0
 10
-0.07842
 20
-0.25608
 30
0.0
 10
-0.07659
 20
-0.25445
 30
0.0
 10
-0.07659
 20
-0.25445
 30
0.0
 10
-0.06657
 20
-0.24278
 30
0.0
 10
-0.0468
 20
-0.21026
 30
0.0
 10
-0.03966
 20
-0.21308
 30
0.0
 10
-0.03966
 20
-0.21308
 30
0.0
 10
-0.02993
 20
-0.21802
 30
0.0
 10
-0.03297
 20
-0.20509
 30
0.0
 10
-0.0219
 20
-0.21135
 30
0.0
 10
-0.0219
 20
-0.21135
 30
0.0
 10
-0.0122
 20
-0.22062
 30
0.0
 10
-0.01759
 20
-0.21873
 30
0.0
 10
-0.01188
 20
-0.22768
 30
0.0
 10
-0.01188
 20
-0.22768
 30
0.0
 10
-0.00462
 20
-0.23636
 30
0.0
 10
-0.01175
 20
-0.2406
 30
0.0
 10
-0.00831
 20
-0.24402
 30
0.0
 10
-0.00831
 20
-0.24402
 30
0.0
 10
-0.00145
 20
-0.25564
 30
0.0
 10
-0.02355
 20
-0.28031
 30
0.0
 10
-0.02907
 20
-0.28835
 30
0.0
 10
-0.02907
 20
-0.28835
 30
0.0
 10
-0.05203
 20
-0.32177
 30
0.0
 10
-0.06301
 20
-0.3277
 30
0.0
 10
-0.0823
 20
-0.35467
 30
0.0
 10
-0.0823
 20
-0.35467
 30
0.0
 10
-0.10022
 20
-0.37972
 30
0.0
 10
-0.11936
 20
-0.41111
 30
0.0
 10
-0.12515
 20
-0.42099
 30
0.0
 10
-0.12515
 20
-0.42099
 30
0.0
 10
-0.11807
 20
-0.5621
 30
0.0
 10
-0.15618
 20
-0.6723
 30
0.0
 10
-0.1343
 20
-0.81059
 30
0.0
 10
-0.1343
 20
-0.81059
 30
0.0
 10
-0.10682
 20
-0.90573
 30
0.0
 10
-0.04855
 20
-1.02496
 30
0.0
 10
-0.14332
 20
-1.08705
 30
0.0
 10
-0.14332
 20
-1.08705
 30
0.0
 10
-0.14332
 20
-1.08705
 30
0.0
 10
0.12674
 20
-1.08705
 30
0.0
 10
0.12674
 20
-1.08705
 30
0.0
 10
0.12674
 20
-1.08705
 30
0.0
 10
0.12674
 20
-1.08705
 30
0.0
 10
0.16566
 20
-0.96569
 30
0.0
 10
0.16566
 20
-0.96569
 30
0.0
 10
0.16566
 20
-0.96569
 30
0.0
 10
0.16566
 20
-0.96569
 30
0.0
 10
0.16566
 20
-0.96569
 30
0.0
 10
0.16566
 20
-0.96569
 30
0.0
 10
0.16566
 20
-0.96569
 30
0.0
 10
0.16566
 20
-0.96569
 30
0.0
 10
0.01837
 20
-0.96547
 30
0.0
 10
0.01837
 20
-0.96547
 30
0.0
 10
0.01837
 20
-0.96547
 30
0.0
 10
0.01735
 20
-0.94169
 30
0.0
 10
0.03324
 20
-0.87115
 30
0.0
 10
-0.02743
 20
-0.87144
 30
0.0
 10
-0.02743
 20
-0.87144
 30
0.0
 10
-0.02743
 20
-0.87144
 30
0.0
 10
-0.02648
 20
-0.83446
 30
0.0
 10
0.01328
 20
-0.82165
 30
0.0
 10
0.01328
 20
-0.82165
 30
0.0
 10
0.00079
 20
-0.802
 30
0.0
 10
-0.04335
 20
-0.81188
 30
0.0
 10
-0.04335
 20
-0.81188
 30
0.0
 10
-0.04335
 20
-0.81188
 30
0.0
 10
-0.03037
 20
-0.76955
 30
0.0
 10
0.00728
 20
-0.76955
 30
0.0
 10
0.00728
 20
-0.76955
 30
0.0
 10
0.00728
 20
-0.76955
 30
0.0
 10
-0.00533
 20
-0.74605
 30
0.0
 10
-0.04269
 20
-0.74974
 30
0.0
 10
-0.04269
 20
-0.74974
 30
0.0
 10
-0.04269
 20
-0.74974
 30
0.0
 10
-0.0122
 20
-0.71451
 30
0.0
 10
0.02156
 20
-0.72157
 30
0.0
 10
0.02156
 20
-0.72157
 30
0.0
 10
0.02156
 20
-0.72157
 30
0.0
 10
0.02095
 20
-0.70823
 30
0.0
 10
-0.02743
 20
-0.68889
 30
0.0
 10
-0.02743
 20
-0.68889
 30
0.0
 10
-0.02743
 20
-0.68889
 30
0.0
 10
-0.02743
 20
-0.68889
 30
0.0
 10
0.00987
 20
-0.67076
 30
0.0
 10
0.04381
 20
-0.67783
 30
0.0
 10
0.04381
 20
-0.67783
 30
0.0
 10
0.03843
 20
-0.64536
 30
0.0
 10
-0.00831
 20
-0.61714
 30
0.0
 10
-0.00831
 20
-0.61714
 30
0.0
 10
-0.00831
 20
-0.61714
 30
0.0
 10
0.02562
 20
-0.60872
 30
0.0
 10
0.0489
 20
-0.61145
 30
0.0
 10
0.0489
 20
-0.61145
 30
0.0
 10
0.0489
 20
-0.61145
 30
0.0
 10
0.0489
 20
-0.61145
 30
0.0
 10
0.04103
 20
-0.55646
 30
0.0
 10
0.04103
 20
-0.55646
 30
0.0
 10
0.04103
 20
-0.55646
 30
0.0
 10
0.09426
 20
-0.55505
 30
0.0
 10
0.10724
 20
-0.58751
 30
0.0
 10
0.13542
 20
-0.58933
 30
0.0
 10
0.13542
 20
-0.58933
 30
0.0
 10
0.16956
 20
-0.57763
 30
0.0
 10
0.19033
 20
-0.53106
 30
0.0
 10
0.23341
 20
-0.54201
 30
0.0
 10
0.23341
 20
-0.54201
 30
0.0
 10
0.25161
 20
-0.53728
 30
0.0
 10
0.26043
 20
-0.52542
 30
0.0
 10
0.28782
 20
-0.5323
 30
0.0
 10
0.28782
 20
-0.5323
 30
0.0
 10
0.32144
 20
-0.52858
 30
0.0
 10
0.33184
 20
-0.51554
 30
0.0
 10
0.38512
 20
-0.52687
 30
0.0
 10
0.38512
 20
-0.52687
 30
0.0
 10
0.40088
 20
-0.5261
 30
0.0
 10
0.40811
 20
-0.51229
 30
0.0
 10
0.42897
 20
-0.52111
 30
0.0
 10
0.42897
 20
-0.52111
 30
0.0
 10
0.45211
 20
-0.43323
 30
0.0
 10
0.52657
 20
-0.36891
 30
0.0
 10
0.61485
 20
-0.36891
 30
0.0
 10
0.61485
 20
-0.36891
 30
0.0
 10
0.72162
 20
-0.36891
 30
0.0
 10
0.80817
 20
-0.46299
 30
0.0
 10
0.80817
 20
-0.57904
 30
0.0
 10
0.80817
 20
-0.57904
 30
0.0
 10
0.80817
 20
-0.59097
 30
0.0
 10
0.80725
 20
-0.60267
 30
0.0
 10
0.8055
 20
-0.61406
 30
0.0
 10
0.8055
 20
-0.61406
 30
0.0
 10
0.80521
 20
-0.61421
 30
0.0
 10
0.82776
 20
-0.60444
 30
0.0
 10
0.85297
 20
-0.61699
 30
0.0
 10
0.85297
 20
-0.61699
 30
0.0
 10
0.84853
 20
-0.61714
 30
0.0
 10
0.81867
 20
-0.64255
 30
0.0
 10
0.81226
 20
-0.6723
 30
0.0
 10
0.81226
 20
-0.6723
 30
0.0
 10
0.81226
 20
-0.6723
 30
0.0
 10
0.84983
 20
-0.65525
 30
0.0
 10
0.88351
 20
-0.67783
 30
0.0
 10
0.88351
 20
-0.67783
 30
0.0
 10
0.868
 20
-0.68064
 30
0.0
 10
0.84788
 20
-0.71102
 30
0.0
 10
0.84788
 20
-0.71102
 30
0.0
 10
0.84788
 20
-0.71102
 30
0.0
 10
0.84788
 20
-0.71102
 30
0.0
 10
0.89397
 20
-0.71733
 30
0.0
 10
0.90386
 20
-0.73868
 30
0.0
 10
0.90386
 20
-0.73868
 30
0.0
 10
0.8719
 20
-0.73285
 30
0.0
 10
0.84788
 20
-0.76634
 30
0.0
 10
0.84788
 20
-0.76634
 30
0.0
 10
0.84788
 20
-0.76634
 30
0.0
 10
0.84788
 20
-0.76634
 30
0.0
 10
0.88488
 20
-0.76531
 30
0.0
 10
0.90435
 20
-0.802
 30
0.0
 10
0.90435
 20
-0.802
 30
0.0
 10
0.8706
 20
-0.802
 30
0.0
 10
0.85297
 20
-0.81612
 30
0.0
 10
0.85297
 20
-0.81612
 30
0.0
 10
0.85297
 20
-0.81612
 30
0.0
 10
0.85297
 20
-0.81612
 30
0.0
 10
0.88877
 20
-0.82881
 30
0.0
 10
0.89878
 20
-0.86038
 30
0.0
 10
0.89878
 20
-0.86038
 30
0.0
 10
0.84593
 20
-0.85986
 30
0.0
 10
0.84941
 20
-0.92897
 30
0.0
 10
0.85297
 20
-0.96547
 30
0.0
 10
0.85297
 20
-0.96547
 30
0.0
 10
0.85297
 20
-0.96547
 30
0.0
 10
0.70702
 20
-0.96547
 30
0.0
 10
0.70702
 20
-0.96547
 30
0.0
 10
0.70702
 20
-0.96547
 30
0.0
 10
0.70702
 20
-0.96547
 30
0.0
 10
0.7473
 20
-1.08705
 30
0.0
 10
0.7473
 20
-1.08705
 30
0.0
 10
0.7473
 20
-1.08705
 30
0.0
 10
0.7473
 20
-1.08705
 30
0.0
 10
1.00691
 20
-1.08705
 30
0.0
 10
1.00691
 20
-1.08705
 30
0.0
 10
1.00691
 20
-1.08705
 30
0.0
 10
1.00691
 20
-1.08705
 30
0.0
 10
0.89007
 20
0.02209
 30
0.0
 10
0.89007
 20
0.02209
 30
0.0
 10
0.89007
 20
0.02209
 30
0.0
 10
0.89007
 20
0.02209
 30
0.0
 10
0.84917
 20
0.05688
 30
0.0
 10
0.84853
 20
0.07289
 30
0.0
 10
0.84853
 20
0.07289
 30
0.0
 10
0.84074
 20
0.13498
 30
0.0
 10
0.86976
 20
0.11629
 30
0.0
 10
0.8719
 20
0.14909
 30
0.0
 10
0.8719
 20
0.14909
 30
0.0
 10
0.8749
 20
0.19515
 30
0.0
 10
0.86411
 20
0.34383
 30
0.0
 10
0.80179
 20
0.28456
 30
0.0
 10
0.80179
 20
0.28456
 30
0.0
 10
0.75549
 20
0.24052
 30
0.0
 10
0.8143
 20
0.17403
 30
0.0
 10
0.80717
 20
0.11318
 30
0.0
 10
0.80717
 20
0.11318
 30
0.0
 10
0.80717
 20
0.11318
 30
0.0
 10
0.80179
 20
0.07572
 30
0.0
 10
0.77664
 20
0.07999
 30
0.0
 10
0.77664
 20
0.07999
 30
0.0
 10
0.76544
 20
0.07854
 30
0.0
 10
0.76137
 20
0.09659
 30
0.0
 10
0.76137
 20
0.09659
 30
0.0
 10
0.76137
 20
0.09659
 30
0.0
 10
0.75883
 20
0.18011
 30
0.0
 10
0.69725
 20
0.2559
 30
0.0
 10
0.76137
 20
0.32338
 30
0.0
 10
0.76137
 20
0.32338
 30
0.0
 10
0.79649
 20
0.35712
 30
0.0
 10
0.82381
 20
0.36654
 30
0.0
 10
0.86411
 20
0.35512
 30
0.0
 10
0.86411
 20
0.35512
 30
0.0
 10
0.92382
 20
0.33819
 30
0.0
 10
0.92642
 20
0.22529
 30
0.0
 10
0.92382
 20
0.16321
 30
0.0
 10
0.92382
 20
0.16321
 30
0.0
 10
0.92852
 20
0.14999
 30
0.0
 10
0.93941
 20
0.14909
 30
0.0
 10
0.94967
 20
0.12424
 30
0.0
 10
0.94967
 20
0.12424
 30
0.0
 10
0.9612
 20
0.13134
 30
0.0
 10
0.94928
 20
0.14279
 30
0.0
 10
0.96797
 20
0.14627
 30
0.0
 10
0.96797
 20
0.14627
 30
0.0
 10
1.04586
 20
0.14909
 30
0.0
 10
1.14972
 20
0.16885
 30
0.0
 10
1.15751
 20
0.27892
 30
0.0
 10
1.15751
 20
0.27892
 30
0.0
 10
1.05408
 20
0.29543
 30
0.0
 10
0.96317
 20
0.39334
 30
0.0
 10
0.96317
 20
0.51034
 30
0.0
 10
0.96317
 20
0.51034
 30
0.0
 10
0.96317
 20
0.63894
 30
0.0
 10
1.05907
 20
0.74318
 30
0.0
 10
1.17738
 20
0.74318
 30
0.0
 10
1.17738
 20
0.74318
 30
0.0
 10
1.29568
 20
0.74318
 30
0.0
 10
1.39158
 20
0.63894
 30
0.0
 10
1.39158
 20
0.51034
 30
0.0
 10
1.39158
 20
0.51034
 30
0.0
 10
1.39158
 20
0.4439
 30
0.0
 10
1.3782
 20
0.3824
 30
0.0
 10
1.33714
 20
0.33998
 30
0.0
  0
ENDSEC
  0
SECTION
  2
OBJECTS
  0
DICTIONARY
  5
C
330
0
100
AcDbDictionary
281
     1
  3
ACAD_GROUP
350
D
  3
ACAD_LAYOUT
350
1A
  3
ACAD_MLEADERSTYLE
350
78
  3
ACAD_MLINESTYLE
350
17
  3
ACAD_PLOTSETTINGS
350
19
  3
ACAD_PLOTSTYLENAME
350
E
  3
ACAD_SCALELIST
350
3B
  3
ACAD_TABLESTYLE
350
77
  3
ACAD_VISUALSTYLE
350
2A
  3
AcDbVariableDictionary
350
75
  0
DICTIONARY
  5
D
102
{ACAD_REACTORS
330
C
102
}
330
C
100
AcDbDictionary
281
     1
  0
DICTIONARY
  5
1A
102
{ACAD_REACTORS
330
C
102
}
330
C
100
AcDbDictionary
281
     1
  3
Layout1
350
1E
  3
Layout2
350
26
  3
Model
350
22
  0
DICTIONARY
  5
78
102
{ACAD_REACTORS
330
C
102
}
330
C
100
AcDbDictionary
281
     1
  0
DICTIONARY
  5
17
102
{ACAD_REACTORS
330
C
102
}
330
C
100
AcDbDictionary
281
     1
  3
Standard
350
18
  0
DICTIONARY
  5
19
102
{ACAD_REACTORS
330
C
102
}
330
C
100
AcDbDictionary
281
     1
  0
ACDBDICTIONARYWDFLT
  5
E
102
{ACAD_REACTORS
330
C
102
}
330
C
100
AcDbDictionary
281
     1
  3
Normal
350
F
100
AcDbDictionaryWithDefault
340
F
  0
DICTIONARY
  5
3B
102
{ACAD_REACTORS
330
C
102
}
330
C
100
AcDbDictionary
281
     1
  3
A0
350
3C
  3
A1
350
3D
  3
A2
350
3E
  3
A3
350
3F
  3
A4
350
40
  3
A5
350
41
  3
A6
350
42
  3
A7
350
43
  3
A8
350
44
  3
A9
350
45
  3
B0
350
46
  3
B1
350
47
  3
B2
350
48
  3
B3
350
49
  3
B4
350
4A
  3
B5
350
4B
  3
B6
350
4C
  3
B7
350
4D
  3
B8
350
4E
  3
B9
350
4F
  3
C0
350
50
  3
C1
350
51
  3
C2
350
52
  3
C3
350
53
  3
C4
350
54
  3
C5
350
55
  3
C6
350
56
  3
C7
350
57
  3
C8
350
58
  3
C9
350
59
  3
D0
350
5A
  3
D1
350
5B
  3
D2
350
5C
  0
DICTIONARY
  5
77
102
{ACAD_REACTORS
330
C
102
}
330
C
100
AcDbDictionary
281
     1
  0
DICTIONARY
  5
2A
102
{ACAD_REACTORS
330
C
102
}
330
C
100
AcDbDictionary
281
     1
  3
2dWireframe
350
2F
  3
3D Hidden
350
31
  3
3dWireframe
350
30
  3
Basic
350
32
  3
Brighten
350
36
  3
ColorChange
350
3A
  3
Conceptual
350
34
  3
Dim
350
35
  3
Facepattern
350
39
  3
Flat
350
2B
  3
FlatWithEdges
350
2C
  3
Gouraud
350
2D
  3
GouraudWithEdges
350
2E
  3
Linepattern
350
38
  3
Realistic
350
33
  3
Thicken
350
37
  0
DICTIONARY
  5
75
102
{ACAD_REACTORS
330
C
102
}
330
C
100
AcDbDictionary
281
     1
  3
CANNOSCALE
350
76
  0
LAYOUT
  5
1E
102
{ACAD_REACTORS
330
1A
102
}
330
1A
100
AcDbPlotSettings
  1

  2
none_device
  4

  6

 40
0.0
 41
0.0
 42
0.0
 43
0.0
 44
0.0
 45
0.0
 46
0.0
 47
0.0
 48
0.0
 49
0.0
140
0.0
141
0.0
142
1.0
143
1.0
 70
   688
 72
     0
 73
     0
 74
     5
  7

 75
    16
147
1.0
148
0.0
149
0.0
100
AcDbLayout
  1
Layout1
 70
     1
 71
     1
 10
0.0
 20
0.0
 11
12.0
 21
9.0
 12
0.0
 22
0.0
 32
0.0
 14
1.000000000000000E 20
 24
1.000000000000000E 20
 34
1.000000000000000E 20
 15
-1.000000000000000E 20
 25
-1.000000000000000E 20
 35
-1.000000000000000E 20
146
0.0
 13
0.0
 23
0.0
 33
0.0
 16
1.0
 26
0.0
 36
0.0
 17
0.0
 27
1.0
 37
0.0
 76
     0
330
1B
  0
LAYOUT
  5
26
102
{ACAD_REACTORS
330
1A
102
}
330
1A
100
AcDbPlotSettings
  1

  2
none_device
  4

  6

 40
0.0
 41
0.0
 42
0.0
 43
0.0
 44
0.0
 45
0.0
 46
0.0
 47
0.0
 48
0.0
 49
0.0
140
0.0
141
0.0
142
1.0
143
1.0
 70
   688
 72
     0
 73
     0
 74
     5
  7

 75
    16
147
1.0
148
0.0
149
0.0
100
AcDbLayout
  1
Layout2
 70
     1
 71
     2
 10
0.0
 20
0.0
 11
0.0
 21
0.0
 12
0.0
 22
0.0
 32
0.0
 14
0.0
 24
0.0
 34
0.0
 15
0.0
 25
0.0
 35
0.0
146
0.0
 13
0.0
 23
0.0
 33
0.0
 16
1.0
 26
0.0
 36
0.0
 17
0.0
 27
1.0
 37
0.0
 76
     0
330
23
  0
LAYOUT
  5
22
102
{ACAD_REACTORS
330
1A
102
}
330
1A
100
AcDbPlotSettings
  1

  2
none_device
  4

  6

 40
0.0
 41
0.0
 42
0.0
 43
0.0
 44
0.0
 45
0.0
 46
0.0
 47
0.0
 48
0.0
 49
0.0
140
0.0
141
0.0
142
1.0
143
1.0
 70
  1712
 72
     0
 73
     0
 74
     0
  7

 75
     0
147
1.0
148
0.0
149
0.0
100
AcDbLayout
  1
Model
 70
     1
 71
     0
 10
0.0
 20
0.0
 11
12.0
 21
9.0
 12
0.0
 22
0.0
 32
0.0
 14
-1.06185
 24
-1.24509
 34
0.0
 15
1.9343
 25
2.93429
 35
0.0
146
0.0
 13
0.0
 23
0.0
 33
0.0
 16
1.0
 26
0.0
 36
0.0
 17
0.0
 27
1.0
 37
0.0
 76
     0
330
1F
331
29
  0
MLINESTYLE
  5
18
102
{ACAD_REACTORS
330
17
102
}
330
17
100
AcDbMlineStyle
  2
Standard
 70
     0
  3

 62
   256
 51
90.0
 52
90.0
 71
     2
 49
0.5
 62
   256
  6
BYLAYER
 49
-0.5
 62
   256
  6
BYLAYER
  0
ACDBPLACEHOLDER
  5
F
102
{ACAD_REACTORS
330
E
102
}
330
E
  0
SCALE
  5
3C
102
{ACAD_REACTORS
330
3B
102
}
330
3B
100
AcDbScale
 70
     0
300
1:1
140
1.0
141
1.0
290
     1
  0
SCALE
  5
3D
102
{ACAD_REACTORS
330
3B
102
}
330
3B
100
AcDbScale
 70
     0
300
1:2
140
1.0
141
2.0
290
     0
  0
SCALE
  5
3E
102
{ACAD_REACTORS
330
3B
102
}
330
3B
100
AcDbScale
 70
     0
300
1:4
140
1.0
141
4.0
290
     0
  0
SCALE
  5
3F
102
{ACAD_REACTORS
330
3B
102
}
330
3B
100
AcDbScale
 70
     0
300
1:5
140
1.0
141
5.0
290
     0
  0
SCALE
  5
40
102
{ACAD_REACTORS
330
3B
102
}
330
3B
100
AcDbScale
 70
     0
300
1:8
140
1.0
141
8.0
290
     0
  0
SCALE
  5
41
102
{ACAD_REACTORS
330
3B
102
}
330
3B
100
AcDbScale
 70
     0
300
1:10
140
1.0
141
10.0
290
     0
  0
SCALE
  5
42
102
{ACAD_REACTORS
330
3B
102
}
330
3B
100
AcDbScale
 70
     0
300
1:16
140
1.0
141
16.0
290
     0
  0
SCALE
  5
43
102
{ACAD_REACTORS
330
3B
102
}
330
3B
100
AcDbScale
 70
     0
300
1:20
140
1.0
141
20.0
290
     0
  0
SCALE
  5
44
102
{ACAD_REACTORS
330
3B
102
}
330
3B
100
AcDbScale
 70
     0
300
1:30
140
1.0
141
30.0
290
     0
  0
SCALE
  5
45
102
{ACAD_REACTORS
330
3B
102
}
330
3B
100
AcDbScale
 70
     0
300
1:40
140
1.0
141
40.0
290
     0
  0
SCALE
  5
46
102
{ACAD_REACTORS
330
3B
102
}
330
3B
100
AcDbScale
 70
     0
300
1:50
140
1.0
141
50.0
290
     0
  0
SCALE
  5
47
102
{ACAD_REACTORS
330
3B
102
}
330
3B
100
AcDbScale
 70
     0
300
1:100
140
1.0
141
100.0
290
     0
  0
SCALE
  5
48
102
{ACAD_REACTORS
330
3B
102
}
330
3B
100
AcDbScale
 70
     0
300
2:1
140
2.0
141
1.0
290
     0
  0
SCALE
  5
49
102
{ACAD_REACTORS
330
3B
102
}
330
3B
100
AcDbScale
 70
     0
300
4:1
140
4.0
141
1.0
290
     0
  0
SCALE
  5
4A
102
{ACAD_REACTORS
330
3B
102
}
330
3B
100
AcDbScale
 70
     0
300
8:1
140
8.0
141
1.0
290
     0
  0
SCALE
  5
4B
102
{ACAD_REACTORS
330
3B
102
}
330
3B
100
AcDbScale
 70
     0
300
10:1
140
10.0
141
1.0
290
     0
  0
SCALE
  5
4C
102
{ACAD_REACTORS
330
3B
102
}
330
3B
100
AcDbScale
 70
     0
300
100:1
140
100.0
141
1.0
290
     0
  0
SCALE
  5
4D
102
{ACAD_REACTORS
330
3B
102
}
330
3B
100
AcDbScale
 70
     0
300
1/128\" = 1\'-0\"
140
0.0078125
141
12.0
290
     0
  0
SCALE
  5
4E
102
{ACAD_REACTORS
330
3B
102
}
330
3B
100
AcDbScale
 70
     0
300
1/64\" = 1\'-0\"
140
0.015625
141
12.0
290
     0
  0
SCALE
  5
4F
102
{ACAD_REACTORS
330
3B
102
}
330
3B
100
AcDbScale
 70
     0
300
1/32\" = 1\'-0\"
140
0.03125
141
12.0
290
     0
  0
SCALE
  5
50
102
{ACAD_REACTORS
330
3B
102
}
330
3B
100
AcDbScale
 70
     0
300
1/16\" = 1\'-0\"
140
0.0625
141
12.0
290
     0
  0
SCALE
  5
51
102
{ACAD_REACTORS
330
3B
102
}
330
3B
100
AcDbScale
 70
     0
300
3/32\" = 1\'-0\"
140
0.09375
141
12.0
290
     0
  0
SCALE
  5
52
102
{ACAD_REACTORS
330
3B
102
}
330
3B
100
AcDbScale
 70
     0
300
1/8\" = 1\'-0\"
140
0.125
141
12.0
290
     0
  0
SCALE
  5
53
102
{ACAD_REACTORS
330
3B
102
}
330
3B
100
AcDbScale
 70
     0
300
3/16\" = 1\'-0\"
140
0.1875
141
12.0
290
     0
  0
SCALE
  5
54
102
{ACAD_REACTORS
330
3B
102
}
330
3B
100
AcDbScale
 70
     0
300
1/4\" = 1\'-0\"
140
0.25
141
12.0
290
     0
  0
SCALE
  5
55
102
{ACAD_REACTORS
330
3B
102
}
330
3B
100
AcDbScale
 70
     0
300
3/8\" = 1\'-0\"
140
0.375
141
12.0
290
     0
  0
SCALE
  5
56
102
{ACAD_REACTORS
330
3B
102
}
330
3B
100
AcDbScale
 70
     0
300
1/2\" = 1\'-0\"
140
0.5
141
12.0
290
     0
  0
SCALE
  5
57
102
{ACAD_REACTORS
330
3B
102
}
330
3B
100
AcDbScale
 70
     0
300
3/4\" = 1\'-0\"
140
0.75
141
12.0
290
     0
  0
SCALE
  5
58
102
{ACAD_REACTORS
330
3B
102
}
330
3B
100
AcDbScale
 70
     0
300
1\" = 1\'-0\"
140
1.0
141
12.0
290
     0
  0
SCALE
  5
59
102
{ACAD_REACTORS
330
3B
102
}
330
3B
100
AcDbScale
 70
     0
300
1-1/2\" = 1\'-0\"
140
1.5
141
12.0
290
     0
  0
SCALE
  5
5A
102
{ACAD_REACTORS
330
3B
102
}
330
3B
100
AcDbScale
 70
     0
300
3\" = 1\'-0\"
140
3.0
141
12.0
290
     0
  0
SCALE
  5
5B
102
{ACAD_REACTORS
330
3B
102
}
330
3B
100
AcDbScale
 70
     0
300
6\" = 1\'-0\"
140
6.0
141
12.0
290
     0
  0
SCALE
  5
5C
102
{ACAD_REACTORS
330
3B
102
}
330
3B
100
AcDbScale
 70
     0
300
1\'-0\" = 1\'-0\"
140
12.0
141
12.0
290
     0
  0
VISUALSTYLE
  5
2F
102
{ACAD_REACTORS
330
2A
102
}
330
2A
100
AcDbVisualStyle
  2
2dWireframe
 70
     4
 71
     0
 72
     2
 73
     0
 90
        0
 40
-0.6
 41
-30.0
 62
     5
 63
     7
 74
     1
 91
        4
 64
     7
 65
   257
 75
     1
175
     1
 42
1.0
 92
        0
 66
   257
 43
1.0
 76
     1
 77
     6
 78
     2
 67
     7
 79
     5
170
     0
171
     0
290
     0
174
     0
 93
        1
 44
0.0
173
     0
291
     0
 45
0.0
1001
ACAD
1000
AcDbSavedByObjectVersion
1070
     0
  0
VISUALSTYLE
  5
31
102
{ACAD_REACTORS
330
2A
102
}
330
2A
100
AcDbVisualStyle
  2
3D Hidden
 70
     6
 71
     1
 72
     2
 73
     2
 90
        0
 40
-0.6
 41
-30.0
 62
     5
 63
     7
 74
     2
 91
        2
 64
     7
 65
   257
 75
     2
175
     1
 42
40.0
 92
        0
 66
   257
 43
1.0
 76
     1
 77
     6
 78
     2
 67
     7
 79
     3
170
     0
171
     0
290
     0
174
     0
 93
        1
 44
0.0
173
     0
291
     0
 45
0.0
1001
ACAD
1000
AcDbSavedByObjectVersion
1070
     0
  0
VISUALSTYLE
  5
30
102
{ACAD_REACTORS
330
2A
102
}
330
2A
100
AcDbVisualStyle
  2
3dWireframe
 70
     5
 71
     0
 72
     2
 73
     0
 90
        0
 40
-0.6
 41
-30.0
 62
     5
 63
     7
 74
     1
 91
        4
 64
     7
 65
   257
 75
     1
175
     1
 42
1.0
 92
        0
 66
   257
 43
1.0
 76
     1
 77
     6
 78
     2
 67
     7
 79
     5
170
     0
171
     0
290
     0
174
     0
 93
        1
 44
0.0
173
     0
291
     0
 45
0.0
1001
ACAD
1000
AcDbSavedByObjectVersion
1070
     0
  0
VISUALSTYLE
  5
32
102
{ACAD_REACTORS
330
2A
102
}
330
2A
100
AcDbVisualStyle
  2
Basic
 70
     7
 71
     1
 72
     0
 73
     1
 90
        0
 40
-0.6
 41
-30.0
 62
     5
 63
     7
 74
     0
 91
        4
 64
     7
 65
   257
 75
     1
175
     1
 42
1.0
 92
        8
 66
     7
 43
1.0
 76
     1
 77
     6
 78
     2
 67
     7
 79
     5
170
     0
171
     0
290
     0
174
     0
 93
        1
 44
0.0
173
     0
291
     1
 45
0.0
1001
ACAD
1000
AcDbSavedByObjectVersion
1070
     0
  0
VISUALSTYLE
  5
36
102
{ACAD_REACTORS
330
2A
102
}
330
2A
100
AcDbVisualStyle
  2
Brighten
 70
    12
 71
     2
 72
     2
 73
     0
 90
        0
 40
-0.6
 41
-30.0
 62
     5
 63
     7
 74
     1
 91
        4
 64
     7
 65
   257
 75
     1
175
     1
 42
1.0
 92
        8
 66
     7
 43
1.0
 76
     1
 77
     6
 78
     2
 67
     7
 79
     5
170
     0
171
     0
290
     0
174
     0
 93
        1
 44
50.0
173
     0
291
     1
 45
0.0
1001
ACAD
1000
AcDbSavedByObjectVersion
1070
     0
  0
VISUALSTYLE
  5
3A
102
{ACAD_REACTORS
330
2A
102
}
330
2A
100
AcDbVisualStyle
  2
ColorChange
 70
    16
 71
     2
 72
     2
 73
     3
 90
        0
 40
-0.6
 41
-30.0
 62
     5
 63
     8
 74
     1
 91
        4
 64
     7
 65
   257
 75
     1
175
     1
 42
1.0
 92
        8
 66
     8
 43
1.0
 76
     1
 77
     6
 78
     2
 67
     7
 79
     5
170
     0
171
     0
290
     0
174
     0
 93
        1
 44
0.0
173
     0
291
     1
 45
0.0
1001
ACAD
1000
AcDbSavedByObjectVersion
1070
     0
  0
VISUALSTYLE
  5
34
102
{ACAD_REACTORS
330
2A
102
}
330
2A
100
AcDbVisualStyle
  2
Conceptual
 70
     9
 71
     3
 72
     2
 73
     0
 90
        0
 40
-0.6
 41
-30.0
 62
     5
 63
     7
 74
     2
 91
        2
 64
     7
 65
   257
 75
     1
175
     1
 42
40.0
 92
        8
 66
     7
 43
1.0
 76
     1
 77
     6
 78
     2
 67
     7
 79
     3
170
     0
171
     0
290
     0
174
     0
 93
        1
 44
0.0
173
     0
291
     0
 45
0.0
1001
ACAD
1000
AcDbSavedByObjectVersion
1070
     0
  0
VISUALSTYLE
  5
35
102
{ACAD_REACTORS
330
2A
102
}
330
2A
100
AcDbVisualStyle
  2
Dim
 70
    11
 71
     2
 72
     2
 73
     0
 90
        0
 40
-0.6
 41
-30.0
 62
     5
 63
     7
 74
     1
 91
        4
 64
     7
 65
   257
 75
     1
175
     1
 42
1.0
 92
        8
 66
     7
 43
1.0
 76
     1
 77
     6
 78
     2
 67
     7
 79
     5
170
     0
171
     0
290
     0
174
     0
 93
        1
 44
-50.0
173
     0
291
     1
 45
0.0
1001
ACAD
1000
AcDbSavedByObjectVersion
1070
     0
  0
VISUALSTYLE
  5
39
102
{ACAD_REACTORS
330
2A
102
}
330
2A
100
AcDbVisualStyle
  2
Facepattern
 70
    15
 71
     2
 72
     2
 73
     0
 90
        0
 40
-0.6
 41
-30.0
 62
     5
 63
     7
 74
     1
 91
        4
 64
     7
 65
   257
 75
     1
175
     1
 42
1.0
 92
        8
 66
     7
 43
1.0
 76
     1
 77
     6
 78
     2
 67
     7
 79
     5
170
     0
171
     0
290
     0
174
     0
 93
        1
 44
0.0
173
     0
291
     1
 45
0.0
1001
ACAD
1000
AcDbSavedByObjectVersion
1070
     0
  0
VISUALSTYLE
  5
2B
102
{ACAD_REACTORS
330
2A
102
}
330
2A
100
AcDbVisualStyle
  2
Flat
 70
     0
 71
     2
 72
     1
 73
     1
 90
        2
 40
-0.6
 41
30.0
 62
     5
 63
     7
 74
     0
 91
        4
 64
     7
 65
   257
 75
     1
175
     1
 42
1.0
 92
        8
 66
     7
 43
1.0
 76
     1
 77
     6
 78
     2
 67
     7
 79
     5
170
     0
171
     0
290
     0
174
     0
 93
       13
 44
0.0
173
     0
291
     1
 45
0.0
1001
ACAD
1000
AcDbSavedByObjectVersion
1070
     0
  0
VISUALSTYLE
  5
2C
102
{ACAD_REACTORS
330
2A
102
}
330
2A
100
AcDbVisualStyle
  2
FlatWithEdges
 70
     1
 71
     2
 72
     1
 73
     1
 90
        2
 40
-0.6
 41
30.0
 62
     5
 63
     7
 74
     1
 91
        4
 64
     7
 65
   257
 75
     1
175
     1
 42
1.0
 92
        0
 66
   257
 43
1.0
 76
     1
 77
     6
 78
     2
 67
     7
 79
     5
170
     0
171
     0
290
     0
174
     0
 93
       13
 44
0.0
173
     0
291
     1
 45
0.0
1001
ACAD
1000
AcDbSavedByObjectVersion
1070
     0
  0
VISUALSTYLE
  5
2D
102
{ACAD_REACTORS
330
2A
102
}
330
2A
100
AcDbVisualStyle
  2
Gouraud
 70
     2
 71
     2
 72
     2
 73
     1
 90
        2
 40
-0.6
 41
30.0
 62
     5
 63
     7
 74
     0
 91
        4
 64
     7
 65
   257
 75
     1
175
     1
 42
1.0
 92
        0
 66
     7
 43
1.0
 76
     1
 77
     6
 78
     2
 67
     7
 79
     5
170
     0
171
     0
290
     0
174
     0
 93
       13
 44
0.0
173
     0
291
     1
 45
0.0
1001
ACAD
1000
AcDbSavedByObjectVersion
1070
     0
  0
VISUALSTYLE
  5
2E
102
{ACAD_REACTORS
330
2A
102
}
330
2A
100
AcDbVisualStyle
  2
GouraudWithEdges
 70
     3
 71
     2
 72
     2
 73
     1
 90
        2
 40
-0.6
 41
30.0
 62
     5
 63
     7
 74
     1
 91
        4
 64
     7
 65
   257
 75
     1
175
     1
 42
1.0
 92
        0
 66
   257
 43
1.0
 76
     1
 77
     6
 78
     2
 67
     7
 79
     5
170
     0
171
     0
290
     0
174
     0
 93
       13
 44
0.0
173
     0
291
     1
 45
0.0
1001
ACAD
1000
AcDbSavedByObjectVersion
1070
     0
  0
VISUALSTYLE
  5
38
102
{ACAD_REACTORS
330
2A
102
}
330
2A
100
AcDbVisualStyle
  2
Linepattern
 70
    14
 71
     2
 72
     2
 73
     0
 90
        0
 40
-0.6
 41
-30.0
 62
     5
 63
     7
 74
     1
 91
        4
 64
     7
 65
   257
 75
     7
175
     7
 42
1.0
 92
        8
 66
     7
 43
1.0
 76
     1
 77
     6
 78
     2
 67
     7
 79
     5
170
     0
171
     0
290
     0
174
     0
 93
        1
 44
0.0
173
     0
291
     1
 45
0.0
1001
ACAD
1000
AcDbSavedByObjectVersion
1070
     0
  0
VISUALSTYLE
  5
33
102
{ACAD_REACTORS
330
2A
102
}
330
2A
100
AcDbVisualStyle
  2
Realistic
 70
     8
 71
     2
 72
     2
 73
     0
 90
        0
 40
-0.6
 41
-30.0
 62
     5
 63
     7
 74
     1
 91
        0
 64
     7
 65
   257
 75
     1
175
     1
 42
1.0
 92
        8
 66
     8
 43
1.0
 76
     1
 77
     6
 78
     2
 67
     7
 79
     5
170
     0
171
     0
290
     0
174
     0
 93
       13
 44
0.0
173
     0
291
     0
 45
0.0
1001
ACAD
1000
AcDbSavedByObjectVersion
1070
     0
  0
VISUALSTYLE
  5
37
102
{ACAD_REACTORS
330
2A
102
}
330
2A
100
AcDbVisualStyle
  2
Thicken
 70
    13
 71
     2
 72
     2
 73
     0
 90
        0
 40
-0.6
 41
-30.0
 62
     5
 63
     7
 74
     1
 91
        4
 64
     7
 65
   257
 75
     1
175
     1
 42
1.0
 92
       12
 66
     7
 43
1.0
 76
     1
 77
     6
 78
     2
 67
     7
 79
     5
170
     0
171
     0
290
     0
174
     0
 93
        1
 44
0.0
173
     0
291
     1
 45
0.0
1001
ACAD
1000
AcDbSavedByObjectVersion
1070
     0
  0
DICTIONARYVAR
  5
76
102
{ACAD_REACTORS
330
75
102
}
330
75
100
DictionaryVariables
280
     0
  1
1:1
  0
ENDSEC
  0
EOF
