  0
SECTION
  2
HEADER
  9
$ACADVER
  1
AC1015
  9
$ACADMAINTVER
 70
     6
  9
$DWGCODEPAGE
  3
ANSI_1251
  9
$INSBASE
 10
0.0
 20
0.0
 30
0.0
  9
$EXTMIN
 10
0.0
 20
0.0
 30
0.0
  9
$EXTMAX
 10
279.4
 20
215.9
 30
0.0
  9
$LIMMIN
 10
0.0
 20
0.0
  9
$LIMMAX
 10
420.0
 20
297.0
  9
$ORTHOMODE
 70
     0
  9
$REGENMODE
 70
     1
  9
$FILLMODE
 70
     1
  9
$QTEXTMODE
 70
     0
  9
$MIRRTEXT
 70
     1
  9
$LTSCALE
 40
1.0
  9
$ATTMODE
 70
     1
  9
$TEXTSIZE
 40
3.5
  9
$TRACEWID
 40
1.0
  9
$TEXTSTYLE
  7
Standard
  9
$CLAYER
  8
0
  9
$CELTYPE
  6
ByLayer
  9
$CECOLOR
 62
   256
  9
$CELTSCALE
 40
1.0
  9
$DISPSILH
 70
     0
  9
$DIMSCALE
 40
1.0
  9
$DIMASZ
 40
6.0
  9
$DIMEXO
 40
1.0
  9
$DIMDLI
 40
3.75
  9
$DIMRND
 40
0.0
  9
$DIMDLE
 40
0.0
  9
$DIMEXE
 40
1.0
  9
$DIMTP
 40
0.0
  9
$DIMTM
 40
0.0
  9
$DIMTXT
 40
3.5
  9
$DIMCEN
 40
2.5
  9
$DIMTSZ
 40
0.0
  9
$DIMTOL
 70
     0
  9
$DIMLIM
 70
     0
  9
$DIMTIH
 70
     1
  9
$DIMTOH
 70
     1
  9
$DIMSE1
 70
     0
  9
$DIMSE2
 70
     0
  9
$DIMTAD
 70
     1
  9
$DIMZIN
 70
     0
  9
$DIMBLK
  1

  9
$DIMASO
 70
     1
  9
$DIMSHO
 70
     1
  9
$DIMPOST
  1

  9
$DIMAPOST
  1

  9
$DIMALT
 70
     0
  9
$DIMALTD
 70
     3
  9
$DIMALTF
 40
0.0394
  9
$DIMLFAC
 40
1.0
  9
$DIMTOFL
 70
     1
  9
$DIMTVP
 40
0.0
  9
$DIMTIX
 70
     0
  9
$DIMSOXD
 70
     0
  9
$DIMSAH
 70
     0
  9
$DIMBLK1
  1

  9
$DIMBLK2
  1

  9
$DIMSTYLE
  2
ISO-25
  9
$DIMCLRD
 70
     0
  9
$DIMCLRE
 70
     0
  9
$DIMCLRT
 70
     0
  9
$DIMTFAC
 40
1.0
  9
$DIMGAP
 40
1.524
  9
$DIMJUST
 70
     0
  9
$DIMSD1
 70
     0
  9
$DIMSD2
 70
     0
  9
$DIMTOLJ
 70
     0
  9
$DIMTZIN
 70
     0
  9
$DIMALTZ
 70
     0
  9
$DIMALTTZ
 70
     0
  9
$DIMUPT
 70
     0
  9
$DIMDEC
 70
     2
  9
$DIMTDEC
 70
     2
  9
$DIMALTU
 70
     2
  9
$DIMALTTD
 70
     3
  9
$DIMTXSTY
  7
Standard
  9
$DIMAUNIT
 70
     0
  9
$DIMADEC
 70
     0
  9
$DIMALTRND
 40
0.0
  9
$DIMAZIN
 70
     0
  9
$DIMDSEP
 70
    44
  9
$DIMATFIT
 70
     3
  9
$DIMFRAC
 70
     0
  9
$DIMLDRBLK
  1

  9
$DIMLUNIT
 70
     2
  9
$DIMLWD
 70
    -2
  9
$DIMLWE
 70
    -2
  9
$DIMTMOVE
 70
     0
  9
$LUNITS
 70
     2
  9
$LUPREC
 70
     2
  9
$SKETCHINC
 40
1.0
  9
$FILLETRAD
 40
10.0
  9
$AUNITS
 70
     0
  9
$AUPREC
 70
     0
  9
$MENU
  1
.
  9
$ELEVATION
 40
0.0
  9
$PELEVATION
 40
0.0
  9
$THICKNESS
 40
0.0
  9
$LIMCHECK
 70
     0
  9
$CHAMFERA
 40
10.0
  9
$CHAMFERB
 40
10.0
  9
$CHAMFERC
 40
20.0
  9
$CHAMFERD
 40
0.0
  9
$SKPOLY
 70
     0
  9
$TDCREATE
 40
2455155.822928611
  9
$TDUCREATE
 40
2455155.697928611
  9
$TDUPDATE
 40
2455155.822928623
  9
$TDUUPDATE
 40
2455155.697928623
  9
$TDINDWG
 40
0.0000000116
  9
$TDUSRTIMER
 40
0.0000000116
  9
$USRTIMER
 70
     1
  9
$ANGBASE
 50
0.0
  9
$ANGDIR
 70
     0
  9
$PDMODE
 70
     0
  9
$PDSIZE
 40
-1.0
  9
$PLINEWID
 40
0.0
  9
$SPLFRAME
 70
     0
  9
$SPLINETYPE
 70
     6
  9
$SPLINESEGS
 70
     8
  9
$HANDSEED
  5
CB
  9
$SURFTAB1
 70
     6
  9
$SURFTAB2
 70
     6
  9
$SURFTYPE
 70
     6
  9
$SURFU
 70
     6
  9
$SURFV
 70
     6
  9
$UCSBASE
  2

  9
$UCSNAME
  2

  9
$UCSORG
 10
0.0
 20
0.0
 30
0.0
  9
$UCSXDIR
 10
1.0
 20
0.0
 30
0.0
  9
$UCSYDIR
 10
0.0
 20
1.0
 30
0.0
  9
$UCSORTHOREF
  2

  9
$UCSORTHOVIEW
 70
     0
  9
$UCSORGTOP
 10
0.0
 20
0.0
 30
0.0
  9
$UCSORGBOTTOM
 10
0.0
 20
0.0
 30
0.0
  9
$UCSORGLEFT
 10
0.0
 20
0.0
 30
0.0
  9
$UCSORGRIGHT
 10
0.0
 20
0.0
 30
0.0
  9
$UCSORGFRONT
 10
0.0
 20
0.0
 30
0.0
  9
$UCSORGBACK
 10
0.0
 20
0.0
 30
0.0
  9
$PUCSBASE
  2

  9
$PUCSNAME
  2

  9
$PUCSORG
 10
0.0
 20
0.0
 30
0.0
  9
$PUCSXDIR
 10
1.0
 20
0.0
 30
0.0
  9
$PUCSYDIR
 10
0.0
 20
1.0
 30
0.0
  9
$PUCSORTHOREF
  2

  9
$PUCSORTHOVIEW
 70
     0
  9
$PUCSORGTOP
 10
0.0
 20
0.0
 30
0.0
  9
$PUCSORGBOTTOM
 10
0.0
 20
0.0
 30
0.0
  9
$PUCSORGLEFT
 10
0.0
 20
0.0
 30
0.0
  9
$PUCSORGRIGHT
 10
0.0
 20
0.0
 30
0.0
  9
$PUCSORGFRONT
 10
0.0
 20
0.0
 30
0.0
  9
$PUCSORGBACK
 10
0.0
 20
0.0
 30
0.0
  9
$USERI1
 70
     0
  9
$USERI2
 70
     0
  9
$USERI3
 70
     0
  9
$USERI4
 70
     0
  9
$USERI5
 70
     0
  9
$USERR1
 40
0.0
  9
$USERR2
 40
0.0
  9
$USERR3
 40
0.0
  9
$USERR4
 40
0.0
  9
$USERR5
 40
0.0
  9
$WORLDVIEW
 70
     1
  9
$SHADEDGE
 70
     3
  9
$SHADEDIF
 70
    70
  9
$TILEMODE
 70
     1
  9
$MAXACTVP
 70
    64
  9
$PINSBASE
 10
0.0
 20
0.0
 30
0.0
  9
$PLIMCHECK
 70
     0
  9
$PEXTMIN
 10
1.0000000000E 20
 20
1.0000000000E 20
 30
1.0000000000E 20
  9
$PEXTMAX
 10
-1.0000000000E 20
 20
-1.0000000000E 20
 30
-1.0000000000E 20
  9
$PLIMMIN
 10
0.0
 20
0.0
  9
$PLIMMAX
 10
420.0
 20
297.0
  9
$UNITMODE
 70
     0
  9
$VISRETAIN
 70
     1
  9
$PLINEGEN
 70
     0
  9
$PSLTSCALE
 70
     1
  9
$TREEDEPTH
 70
  3020
  9
$CMLSTYLE
  2
Standard
  9
$CMLJUST
 70
     0
  9
$CMLSCALE
 40
20.0
  9
$PROXYGRAPHICS
 70
     1
  9
$MEASUREMENT
 70
     1
  9
$CELWEIGHT
370
    -1
  9
$ENDCAPS
280
     0
  9
$JOINSTYLE
280
     0
  9
$LWDISPLAY
290
     1
  9
$INSUNITS
 70
     4
  9
$HYPERLINKBASE
  1

  9
$STYLESHEET
  1

  9
$XEDIT
290
     1
  9
$CEPSNTYPE
380
     0
  9
$PSTYLEMODE
290
     1
  9
$FINGERPRINTGUID
  2
{0005AF3C-EC39-44FF-9BBA-980661AF5B1B}
  9
$VERSIONGUID
  2
{FAEB1C32-E019-11D5-929B-00C0DF256EC4}
  9
$EXTNAMES
290
     1
  9
$PSVPSCALE
 40
0.0
  9
$OLESTARTUP
290
     0
  0
ENDSEC
  0
SECTION
  2
CLASSES
  0
CLASS
  1
ACDBDICTIONARYWDFLT
  2
AcDbDictionaryWithDefault
  3
ObjectDBX Classes
 90
        0
280
     0
281
     0
  0
CLASS
  1
ACDBPLACEHOLDER
  2
AcDbPlaceHolder
  3
ObjectDBX Classes
 90
        0
280
     0
281
     0
  0
CLASS
  1
LAYOUT
  2
AcDbLayout
  3
ObjectDBX Classes
 90
        0
280
     0
281
     0
  0
ENDSEC
  0
SECTION
  2
TABLES
  0
TABLE
  2
VPORT
  5
8
330
0
100
AcDbSymbolTable
 70
     1
  0
VPORT
  5
29
330
8
100
AcDbSymbolTableRecord
100
AcDbViewportTableRecord
  2
*Active
 70
     0
 10
0.0
 20
0.0
 11
1.0
 21
1.0
 12
0.0
 22
0.0
 13
0.0
 23
0.0
 14
10.0
 24
10.0
 15
10.0
 25
10.0
 16
0.0
 26
0.0
 36
1.0
 17
51.5486899563
 27
143.4179388646
 37
0.0
 40
114.1779170453
 41
0.6903349086
 42
50.0
 43
0.0
 44
0.0
 50
0.0
 51
0.0
 71
     0
 72
  2000
 73
     1
 74
     3
 75
     0
 76
     0
 77
     0
 78
     0
281
     0
 65
     1
110
0.0
120
0.0
130
0.0
111
1.0
121
0.0
131
0.0
112
0.0
122
1.0
132
0.0
 79
     0
146
0.0
  0
ENDTAB
  0
TABLE
  2
LTYPE
  5
5
330
0
100
AcDbSymbolTable
 70
     6
  0
LTYPE
  5
14
330
5
100
AcDbSymbolTableRecord
100
AcDbLinetypeTableRecord
  2
ByBlock
 70
     0
  3

 72
    65
 73
     0
 40
0.0
  0
LTYPE
  5
15
330
5
100
AcDbSymbolTableRecord
100
AcDbLinetypeTableRecord
  2
ByLayer
 70
     0
  3

 72
    65
 73
     0
 40
0.0
  0
LTYPE
  5
16
330
5
100
AcDbSymbolTableRecord
100
AcDbLinetypeTableRecord
  2
Continuous
 70
     0
  3
Solid line
 72
    65
 73
     0
 40
0.0
  0
LTYPE
  5
2A
330
5
100
AcDbSymbolTableRecord
100
AcDbLinetypeTableRecord
  2
HIDDEN
 70
     0
  3
Hidden __ __ __ __ __ __ __ __ __ __ __ __ __ __
 72
    65
 73
     2
 40
1.905
 49
1.27
 74
     0
 49
-0.635
 74
     0
  0
LTYPE
  5
2B
330
5
100
AcDbSymbolTableRecord
100
AcDbLinetypeTableRecord
  2
PHANTOM
 70
     0
  3
Phantom ______  __  __  ______  __  __  ______
 72
    65
 73
     6
 40
12.7
 49
6.35
 74
     0
 49
-1.27
 74
     0
 49
1.27
 74
     0
 49
-1.27
 74
     0
 49
1.27
 74
     0
 49
-1.27
 74
     0
  0
LTYPE
  5
2C
330
5
100
AcDbSymbolTableRecord
100
AcDbLinetypeTableRecord
  2
CENTER
 70
     0
  3
Center ____ _ ____ _ ____ _ ____ _ ____ _ ____
 72
    65
 73
     4
 40
10.16
 49
6.35
 74
     0
 49
-1.27
 74
     0
 49
1.27
 74
     0
 49
-1.27
 74
     0
  0
LTYPE
  5
2D
330
5
100
AcDbSymbolTableRecord
100
AcDbLinetypeTableRecord
  2
CENTERX2
 70
     0
  3
Center (2x) ________  __  ________  __  _____
 72
    65
 73
     4
 40
20.32
 49
12.7
 74
     0
 49
-2.54
 74
     0
 49
2.54
 74
     0
 49
-2.54
 74
     0
  0
LTYPE
  5
2E
330
5
100
AcDbSymbolTableRecord
100
AcDbLinetypeTableRecord
  2
DOT2
 70
     0
  3
Dot (.5x) ........................................
 72
    65
 73
     2
 40
0.635
 49
0.0
 74
     0
 49
-0.635
 74
     0
  0
ENDTAB
  0
TABLE
  2
LAYER
  5
2
330
0
100
AcDbSymbolTable
 70
     1
  0
LAYER
  5
10
330
2
100
AcDbSymbolTableRecord
100
AcDbLayerTableRecord
  2
0
 70
     0
 62
     7
  6
Continuous
370
    -3
390
F
  0
ENDTAB
  0
TABLE
  2
STYLE
  5
3
330
0
100
AcDbSymbolTable
 70
     1
  0
STYLE
  5
11
330
3
100
AcDbSymbolTableRecord
100
AcDbTextStyleTableRecord
  2
Standard
 70
     0
 40
0.0
 41
1.0
 50
0.0
 71
     0
 42
2.5
  3
txt
  4

  0
ENDTAB
  0
TABLE
  2
VIEW
  5
6
330
0
100
AcDbSymbolTable
 70
     0
  0
ENDTAB
  0
TABLE
  2
UCS
  5
7
330
0
100
AcDbSymbolTable
 70
     0
  0
ENDTAB
  0
TABLE
  2
APPID
  5
9
330
0
100
AcDbSymbolTable
 70
     1
  0
APPID
  5
12
330
9
100
AcDbSymbolTableRecord
100
AcDbRegAppTableRecord
  2
ACAD
 70
     0
  0
ENDTAB
  0
TABLE
  2
DIMSTYLE
  5
A
330
0
100
AcDbSymbolTable
 70
     1
100
AcDbDimStyleTable
  0
DIMSTYLE
105
27
330
A
100
AcDbSymbolTableRecord
100
AcDbDimStyleTableRecord
  2
ISO-25
 70
     0
 41
2.5
 42
0.625
 43
3.75
 44
1.25
 73
     0
 74
     0
 77
     1
 78
     8
140
2.5
141
2.5
143
0.0393700787
147
0.625
171
     3
172
     1
271
     2
272
     2
274
     3
278
    44
283
     0
284
     8
340
11
  0
ENDTAB
  0
TABLE
  2
BLOCK_RECORD
  5
1
330
0
100
AcDbSymbolTable
 70
     1
  0
BLOCK_RECORD
  5
1F
330
1
100
AcDbSymbolTableRecord
100
AcDbBlockTableRecord
  2
*Model_Space
340
22
  0
BLOCK_RECORD
  5
1B
330
1
100
AcDbSymbolTableRecord
100
AcDbBlockTableRecord
  2
*Paper_Space
340
1E
  0
BLOCK_RECORD
  5
23
330
1
100
AcDbSymbolTableRecord
100
AcDbBlockTableRecord
  2
*Paper_Space0
340
26
  0
ENDTAB
  0
ENDSEC
  0
SECTION
  2
BLOCKS
  0
BLOCK
  5
20
330
1F
100
AcDbEntity
  8
0
100
AcDbBlockBegin
  2
*Model_Space
 70
     0
 71
     0
 10
0.0
 20
0.0
 30
0.0
  3
*Model_Space
  1

  0
ENDBLK
  5
21
330
1F
100
AcDbEntity
  8
0
100
AcDbBlockEnd
  0
BLOCK
  5
1C
330
1B
100
AcDbEntity
 67
     1
  8
0
100
AcDbBlockBegin
  2
*Paper_Space
 70
     0
 71
     0
 10
0.0
 20
0.0
 30
0.0
  3
*Paper_Space
  1

  0
ENDBLK
  5
1D
330
1B
100
AcDbEntity
 67
     1
  8
0
100
AcDbBlockEnd
  0
BLOCK
  5
24
330
23
100
AcDbEntity
  8
0
100
AcDbBlockBegin
  2
*Paper_Space0
 70
     0
 71
     0
 10
0.0
 20
0.0
 30
0.0
  3
*Paper_Space0
  1

  0
ENDBLK
  5
25
330
23
100
AcDbEntity
  8
0
100
AcDbBlockEnd
  0
ENDSEC
  0
SECTION
  2
ENTITIES
  0
ARC
  5
2F
330
1F
100
AcDbEntity
  8
0
  6
Continuous
 62
     7
100
AcDbCircle
 10
51.5486899563
 20
189.5596324934
 30
0.0
 40
9.827873550334491
100
AcDbArc
 50
349.9609269122
 51
190.0390730878
  0
ARC
  5
30
330
1F
100
AcDbEntity
  8
0
  6
Continuous
 62
     7
100
AcDbCircle
 10
44.9609104008
 20
180.0501515212
 30
0.0
 40
8.38617147360514
100
AcDbArc
 50
111.6181131127
 51
248.3818868873
  0
ARC
  5
31
330
1F
100
AcDbEntity
  8
0
  6
Continuous
 62
     7
100
AcDbCircle
 10
29.4479862886
 20
164.7645112756
 30
0.0
 40
8.010130088658839
100
AcDbArc
 50
11.3514911341
 51
178.3365652049
  0
ARC
  5
32
330
1F
100
AcDbEntity
  8
0
  6
Continuous
 62
     7
100
AcDbCircle
 10
20.8519491144
 20
157.0779216204
 30
0.0
 40
7.941005199148918
100
AcDbArc
 50
85.7443078855
 51
270.0
  0
ARC
  5
33
330
1F
100
AcDbEntity
  8
0
  6
Continuous
 62
     7
100
AcDbCircle
 10
29.2625840657
 20
150.2559279618
 30
0.0
 40
8.484749089452825
100
AcDbArc
 50
187.578535632
 51
341.342126842
  0
ARC
  5
34
330
1F
100
AcDbEntity
  8
0
  6
Continuous
 62
     7
100
AcDbCircle
 10
44.8555460461
 20
124.1777671212
 30
0.0
 40
7.522840926683088
100
AcDbArc
 50
113.3715854095
 51
232.3319064352
  0
ARC
  5
35
330
1F
100
AcDbEntity
  8
0
  6
Continuous
 62
     7
100
AcDbCircle
 10
43.660682349
 20
111.5332496586
 30
0.0
 40
7.505160744775107
100
AcDbArc
 50
116.9569102607
 51
256.2065996892
  0
ARC
  5
36
330
1F
100
AcDbEntity
  8
0
  6
Continuous
 62
     7
100
AcDbCircle
 10
44.5100256708
 20
99.133151511
 30
0.0
 40
5.752309209594267
100
AcDbArc
 50
117.3049506435
 51
281.2752503115
  0
ARC
  5
37
330
1F
100
AcDbEntity
  8
0
  6
Continuous
 62
     7
100
AcDbCircle
 10
52.938113513
 20
94.7233607217
 30
0.0
 40
7.406481168302306
100
AcDbArc
 50
189.5711658148
 51
259.1874985077
  0
ARC
  5
38
330
1F
100
AcDbEntity
  8
0
  6
Continuous
 62
     7
100
AcDbCircle
 10
50.1592663996
 20
94.7233607217
 30
0.0
 40
7.406481168302125
100
AcDbArc
 50
280.8125014923
 51
350.4288341852
  0
ARC
  5
39
330
1F
100
AcDbEntity
  8
0
  6
Continuous
 62
     7
100
AcDbCircle
 10
58.5873542419
 20
99.133151511
 30
0.0
 40
5.752309209593856
100
AcDbArc
 50
258.7247496885
 51
62.6950493565
  0
ARC
  5
3A
330
1F
100
AcDbEntity
  8
0
  6
Continuous
 62
     7
100
AcDbCircle
 10
59.4366975636
 20
111.5332496586
 30
0.0
 40
7.505160744775013
100
AcDbArc
 50
283.7934003108
 51
63.0430897393
  0
ARC
  5
3B
330
1F
100
AcDbEntity
  8
0
  6
Continuous
 62
     7
100
AcDbCircle
 10
58.2418338665
 20
124.1777671212
 30
0.0
 40
7.522840926682733
100
AcDbArc
 50
307.6680935648
 51
66.6284145905
  0
ARC
  5
3C
330
1F
100
AcDbEntity
  8
0
  6
Continuous
 62
     7
100
AcDbCircle
 10
73.834795847
 20
150.2559279618
 30
0.0
 40
8.48474908945194
100
AcDbArc
 50
198.657873158
 51
352.421464368
  0
ARC
  5
3D
330
1F
100
AcDbEntity
  8
0
  6
Continuous
 62
     7
100
AcDbCircle
 10
82.2454307982
 20
157.0779216204
 30
0.0
 40
7.941005199148918
100
AcDbArc
 50
270.0
 51
94.2556921145
  0
ARC
  5
3E
330
1F
100
AcDbEntity
  8
0
  6
Continuous
 62
     7
100
AcDbCircle
 10
73.6493936241
 20
164.7645112756
 30
0.0
 40
8.010130088658428
100
AcDbArc
 50
1.6634347948
 51
168.6485088658
  0
ARC
  5
3F
330
1F
100
AcDbEntity
  8
0
  6
Continuous
 62
     7
100
AcDbCircle
 10
58.1364695119
 20
180.0501515212
 30
0.0
 40
8.38617147360481
100
AcDbArc
 50
291.6181131127
 51
68.3818868873
  0
CIRCLE
  5
40
330
1F
100
AcDbEntity
  8
0
  6
Continuous
 62
     7
100
AcDbCircle
 10
51.5486899563
 20
182.6743652212
 30
0.0
 40
1.947005459409628
  0
ARC
  5
41
330
1F
100
AcDbEntity
  8
0
  6
Continuous
 62
     7
100
AcDbCircle
 10
51.5487280563
 20
188.9419108634
 30
0.0
 40
1.033629015106816
100
AcDbArc
 50
90.0021119465
 51
180.0
  0
ARC
  5
42
330
1F
100
AcDbEntity
  8
0
  6
Continuous
 62
     7
100
AcDbCircle
 10
51.5486518563
 20
188.9419108634
 30
0.0
 40
1.033629015107621
100
AcDbArc
 50
0.0
 51
89.9978880534
  0
ARC
  5
43
330
1F
100
AcDbEntity
  8
0
  6
Continuous
 62
     7
100
AcDbCircle
 10
55.9805409221
 20
187.1061623055
 30
0.0
 40
1.033629015106653
100
AcDbArc
 50
45.0021119465
 51
134.9999999999
  0
ARC
  5
44
330
1F
100
AcDbEntity
  8
0
  6
Continuous
 62
     7
100
AcDbCircle
 10
55.9804870406
 20
187.106216187
 30
0.0
 40
1.03362901510706
100
AcDbArc
 50
315.0
 51
44.9978880535
  0
ARC
  5
45
330
1F
100
AcDbEntity
  8
0
  6
Continuous
 62
     7
100
AcDbCircle
 10
57.8162355986
 20
182.6743271212
 30
0.0
 40
1.033629015106669
100
AcDbArc
 50
0.0
 51
90.0
  0
ARC
  5
46
330
1F
100
AcDbEntity
  8
0
  6
Continuous
 62
     7
100
AcDbCircle
 10
57.8162355986
 20
182.6744033212
 30
0.0
 40
1.033629015106612
100
AcDbArc
 50
270.0
 51
360.0
  0
ARC
  5
47
330
1F
100
AcDbEntity
  8
0
  6
Continuous
 62
     7
100
AcDbCircle
 10
55.9804870406
 20
178.2425142554
 30
0.0
 40
1.033629015106979
100
AcDbArc
 50
315.0021119465
 51
45.0
  0
ARC
  5
48
330
1F
100
AcDbEntity
  8
0
  6
Continuous
 62
     7
100
AcDbCircle
 10
55.9805409221
 20
178.242568137
 30
0.0
 40
1.033629015106673
100
AcDbArc
 50
225.0000000001
 51
314.9978880535
  0
ARC
  5
49
330
1F
100
AcDbEntity
  8
0
  6
Continuous
 62
     7
100
AcDbCircle
 10
51.5486518563
 20
176.406819579
 30
0.0
 40
1.033629015107621
100
AcDbArc
 50
270.0021119466
 51
0.0
  0
ARC
  5
4A
330
1F
100
AcDbEntity
  8
0
  6
Continuous
 62
     7
100
AcDbCircle
 10
51.5487280563
 20
176.406819579
 30
0.0
 40
1.033629015106726
100
AcDbArc
 50
180.0
 51
269.9978880535
  0
ARC
  5
4B
330
1F
100
AcDbEntity
  8
0
  6
Continuous
 62
     7
100
AcDbCircle
 10
47.1168389905
 20
178.242568137
 30
0.0
 40
1.033629015106939
100
AcDbArc
 50
225.0021119465
 51
315.0
  0
ARC
  5
4C
330
1F
100
AcDbEntity
  8
0
  6
Continuous
 62
     7
100
AcDbCircle
 10
47.1168928721
 20
178.2425142554
 30
0.0
 40
1.033629015106979
100
AcDbArc
 50
135.0
 51
224.9978880535
  0
ARC
  5
4D
330
1F
100
AcDbEntity
  8
0
  6
Continuous
 62
     7
100
AcDbCircle
 10
45.2811443141
 20
182.6744033212
 30
0.0
 40
1.033629015106612
100
AcDbArc
 50
180.0
 51
270.0
  0
ARC
  5
4E
330
1F
100
AcDbEntity
  8
0
  6
Continuous
 62
     7
100
AcDbCircle
 10
45.2811443141
 20
182.6743271212
 30
0.0
 40
1.033629015106897
100
AcDbArc
 50
90.0
 51
180.0
  0
ARC
  5
4F
330
1F
100
AcDbEntity
  8
0
  6
Continuous
 62
     7
100
AcDbCircle
 10
47.1168928721
 20
187.106216187
 30
0.0
 40
1.033629015106975
100
AcDbArc
 50
135.0021119465
 51
225.0
  0
ARC
  5
50
330
1F
100
AcDbEntity
  8
0
  6
Continuous
 62
     7
100
AcDbCircle
 10
47.1168389905
 20
187.1061623055
 30
0.0
 40
1.033629015107039
100
AcDbArc
 50
45.0
 51
134.9978880535
  0
CIRCLE
  5
51
330
1F
100
AcDbEntity
  8
0
  6
Continuous
 62
     7
100
AcDbCircle
 10
51.5435083563
 20
195.2224478212
 30
0.0
 40
1.997640412300809
  0
ARC
  5
52
330
1F
100
AcDbEntity
  8
0
  6
Continuous
 62
     7
100
AcDbCircle
 10
80.0394187056
 20
157.2002265095
 30
0.0
 40
3.237804301163079
100
AcDbArc
 50
21.7936403039
 51
94.6951828146
  0
ARC
  5
53
330
1F
100
AcDbEntity
  8
0
  6
Continuous
 62
     7
100
AcDbCircle
 10
87.2331312894
 20
151.1122348314
 30
0.0
 40
8.407072272827982
100
AcDbArc
 50
119.8724982693
 51
126.3897132425
  0
ARC
  5
54
330
1F
100
AcDbEntity
  8
0
  6
Continuous
 62
     7
100
AcDbCircle
 10
79.1040268893
 20
156.5489234425
 30
0.0
 40
3.411744270309508
100
AcDbArc
 50
22.9622879139
 51
86.2426892683
  0
LINE
  5
55
330
1F
100
AcDbEntity
  8
0
  6
Continuous
 62
     7
100
AcDbLine
 10
51.5486899563
 20
185.842912737
 30
0.0
 11
52.5822808714
 21
188.9419108634
 31
0.0
  0
LINE
  5
56
330
1F
100
AcDbEntity
  8
0
  6
Continuous
 62
     7
100
AcDbLine
 10
53.7891913912
 20
184.9148666561
 30
0.0
 11
56.7113731264
 21
186.3753301012
 31
0.0
  0
LINE
  5
57
330
1F
100
AcDbEntity
  8
0
  6
Continuous
 62
     7
100
AcDbLine
 10
53.7891913912
 20
184.9148666561
 30
0.0
 11
55.2496548363
 21
187.8370483913
 31
0.0
  0
LINE
  5
58
330
1F
100
AcDbEntity
  8
0
  6
Continuous
 62
     7
100
AcDbLine
 10
54.7172374721
 20
182.6743652212
 30
0.0
 11
57.8162355986
 21
181.6407743061
 31
0.0
  0
LINE
  5
59
330
1F
100
AcDbEntity
  8
0
  6
Continuous
 62
     7
100
AcDbLine
 10
54.7172374721
 20
182.6743652212
 30
0.0
 11
57.8162355986
 21
183.7079561363
 31
0.0
  0
LINE
  5
5A
330
1F
100
AcDbEntity
  8
0
  6
Continuous
 62
     7
100
AcDbLine
 10
53.7891913912
 20
180.4338637863
 30
0.0
 11
55.2496548363
 21
177.5116820512
 31
0.0
  0
LINE
  5
5B
330
1F
100
AcDbEntity
  8
0
  6
Continuous
 62
     7
100
AcDbLine
 10
53.7891913912
 20
180.4338637863
 30
0.0
 11
56.7113731264
 21
178.9734003412
 31
0.0
  0
LINE
  5
5C
330
1F
100
AcDbEntity
  8
0
  6
Continuous
 62
     7
100
AcDbLine
 10
51.5486899563
 20
179.5058177055
 30
0.0
 11
50.5150990412
 21
176.406819579
 31
0.0
  0
LINE
  5
5D
330
1F
100
AcDbEntity
  8
0
  6
Continuous
 62
     7
100
AcDbLine
 10
51.5486899563
 20
179.5058177055
 30
0.0
 11
52.5822808714
 21
176.406819579
 31
0.0
  0
LINE
  5
5E
330
1F
100
AcDbEntity
  8
0
  6
Continuous
 62
     7
100
AcDbLine
 10
49.3081885214
 20
180.4338637863
 30
0.0
 11
46.3860067863
 21
178.9734003412
 31
0.0
  0
LINE
  5
5F
330
1F
100
AcDbEntity
  8
0
  6
Continuous
 62
     7
100
AcDbLine
 10
49.3081885214
 20
180.4338637863
 30
0.0
 11
47.8477250764
 21
177.5116820512
 31
0.0
  0
LINE
  5
60
330
1F
100
AcDbEntity
  8
0
  6
Continuous
 62
     7
100
AcDbLine
 10
48.3801424406
 20
182.6743652212
 30
0.0
 11
45.2811443141
 21
183.7079561363
 31
0.0
  0
LINE
  5
61
330
1F
100
AcDbEntity
  8
0
  6
Continuous
 62
     7
100
AcDbLine
 10
48.3801424406
 20
182.6743652212
 30
0.0
 11
45.2811443141
 21
181.6407743061
 31
0.0
  0
LINE
  5
62
330
1F
100
AcDbEntity
  8
0
  6
Continuous
 62
     7
100
AcDbLine
 10
49.3081885214
 20
184.9148666561
 30
0.0
 11
47.8477250764
 21
187.8370483913
 31
0.0
  0
LINE
  5
63
330
1F
100
AcDbEntity
  8
0
  6
Continuous
 62
     7
100
AcDbLine
 10
49.3081885214
 20
184.9148666561
 30
0.0
 11
46.3860067863
 21
186.3753301012
 31
0.0
  0
LINE
  5
64
330
1F
100
AcDbEntity
  8
0
  6
Continuous
 62
     7
100
AcDbLine
 10
71.4025237563
 20
155.3029442212
 30
0.0
 11
71.1984601563
 21
155.5784834212
 31
0.0
  0
LINE
  5
65
330
1F
100
AcDbEntity
  8
0
  6
Continuous
 62
     7
100
AcDbLine
 10
73.3505005563
 20
159.3162458212
 30
0.0
 11
70.6346563563
 21
157.4702246212
 31
0.0
  0
LINE
  5
66
330
1F
100
AcDbEntity
  8
0
  6
Continuous
 62
     7
100
AcDbLine
 10
73.0687129563
 20
160.1639708212
 30
0.0
 11
73.3505005563
 21
159.3162458212
 31
0.0
  0
LINE
  5
67
330
1F
100
AcDbEntity
  8
0
  6
Continuous
 62
     7
100
AcDbLine
 10
74.3980981563
 20
160.1583320212
 30
0.0
 11
73.0687129563
 21
160.1639708212
 31
0.0
  0
LINE
  5
68
330
1F
100
AcDbEntity
  8
0
  6
Continuous
 62
     7
100
AcDbLine
 10
71.7099145563
 20
152.3626910212
 30
0.0
 11
74.9357653563
 21
152.3626910212
 31
0.0
  0
LINE
  5
69
330
1F
100
AcDbEntity
  8
0
  6
Continuous
 62
     7
100
AcDbLine
 10
71.7099145563
 20
152.9002820212
 30
0.0
 11
71.7099145563
 21
152.3626910212
 31
0.0
  0
LINE
  5
6A
330
1F
100
AcDbEntity
  8
0
  6
Continuous
 62
     7
100
AcDbLine
 10
72.2475817563
 20
152.9002820212
 30
0.0
 11
71.7099145563
 21
152.9002820212
 31
0.0
  0
LINE
  5
6B
330
1F
100
AcDbEntity
  8
0
  6
Continuous
 62
     7
100
AcDbLine
 10
71.4025237563
 20
155.3029442212
 30
0.0
 11
72.2475817563
 21
152.9002820212
 31
0.0
  0
LINE
  5
6C
330
1F
100
AcDbEntity
  8
0
  6
Continuous
 62
     7
100
AcDbLine
 10
71.1984601563
 20
155.5784834212
 30
0.0
 11
71.4025237563
 21
155.3029442212
 31
0.0
  0
LINE
  5
6D
330
1F
100
AcDbEntity
  8
0
  6
Continuous
 62
     7
100
AcDbLine
 10
68.6946805563
 20
153.2312186212
 30
0.0
 11
71.1984601563
 21
155.5784834212
 31
0.0
  0
LINE
  5
6E
330
1F
100
AcDbEntity
  8
0
  6
Continuous
 62
     7
100
AcDbLine
 10
69.3295789563
 20
152.3949998212
 30
0.0
 11
68.6946805563
 21
153.2312186212
 31
0.0
  0
LINE
  5
6F
330
1F
100
AcDbEntity
  8
0
  6
Continuous
 62
     7
100
AcDbLine
 10
67.1400481563
 20
152.3626910212
 30
0.0
 11
69.3295789563
 21
152.3949998212
 31
0.0
  0
LINE
  5
70
330
1F
100
AcDbEntity
  8
0
  6
Continuous
 62
     7
100
AcDbLine
 10
70.4074279563
 20
156.1574510212
 30
0.0
 11
67.1400481563
 21
152.3626910212
 31
0.0
  0
LINE
  5
71
330
1F
100
AcDbEntity
  8
0
  6
Continuous
 62
     7
100
AcDbLine
 10
67.4007283563
 20
160.1522360212
 30
0.0
 11
70.4074279563
 21
156.1574510212
 31
0.0
  0
LINE
  5
72
330
1F
100
AcDbEntity
  8
0
  6
Continuous
 62
     7
100
AcDbLine
 10
77.3550391563
 20
156.6637238212
 30
0.0
 11
77.3550391563
 21
157.2013910212
 31
0.0
  0
LINE
  5
73
330
1F
100
AcDbEntity
  8
0
  6
Continuous
 62
     7
100
AcDbLine
 10
83.0458075563
 20
153.8833382212
 30
0.0
 11
79.7743891563
 21
152.3626910212
 31
0.0
  0
LINE
  5
74
330
1F
100
AcDbEntity
  8
0
  6
Continuous
 62
     7
100
AcDbLine
 10
79.7743891563
 20
152.0938574212
 30
0.0
 11
80.0432227563
 21
152.0938574212
 31
0.0
  0
LINE
  5
75
330
1F
100
AcDbEntity
  8
0
  6
Continuous
 62
     7
100
AcDbLine
 10
32.7315571563
 20
161.2336664212
 30
0.0
 11
31.6562989563
 21
161.2336664212
 31
0.0
  0
LINE
  5
76
330
1F
100
AcDbEntity
  8
0
  6
Continuous
 62
     7
100
AcDbLine
 10
35.4604315563
 20
158.8232318212
 30
0.0
 11
35.1509071563
 21
160.4271656212
 31
0.0
  0
LINE
  5
77
330
1F
100
AcDbEntity
  8
0
  6
Continuous
 62
     7
100
AcDbLine
 10
29.5057825563
 20
155.5884656212
 30
0.0
 11
29.5057825563
 21
156.6637238212
 31
0.0
  0
LINE
  5
78
330
1F
100
AcDbEntity
  8
0
  6
Continuous
 62
     7
100
AcDbLine
 10
32.4627235563
 20
152.3626910212
 30
0.0
 11
32.1938899563
 21
152.3626910212
 31
0.0
  0
LINE
  5
79
330
1F
100
AcDbEntity
  8
0
  6
Continuous
 62
     7
100
AcDbLine
 10
32.1938899563
 20
151.8250238212
 30
0.0
 11
32.4627235563
 21
151.8250238212
 31
0.0
  0
LINE
  5
7A
330
1F
100
AcDbEntity
  8
0
  6
Continuous
 62
     7
100
AcDbLine
 10
27.6240235563
 20
157.4702246212
 30
0.0
 11
27.6240235563
 21
155.3196320212
 31
0.0
  0
LINE
  5
7B
330
1F
100
AcDbEntity
  8
0
  6
Continuous
 62
     7
100
AcDbLine
 10
26.0077453563
 20
160.9043300212
 30
0.0
 11
22.1752663563
 21
161.1187568212
 31
0.0
  0
LINE
  5
7C
330
1F
100
AcDbEntity
  8
0
  6
Continuous
 62
     7
100
AcDbLine
 10
24.9358399563
 20
153.9756164212
 30
0.0
 11
24.9358399563
 21
159.0830738212
 31
0.0
  0
LINE
  5
7D
330
1F
100
AcDbEntity
  8
0
  6
Continuous
 62
     7
100
AcDbLine
 10
22.2477325563
 20
152.0938574212
 30
0.0
 11
26.0111743563
 21
152.0938574212
 31
0.0
  0
LINE
  5
7E
330
1F
100
AcDbEntity
  8
0
  6
Continuous
 62
     7
100
AcDbLine
 10
22.9947211563
 20
160.6018160212
 30
0.0
 11
23.0541571563
 21
153.7067828212
 31
0.0
  0
LINE
  5
7F
330
1F
100
AcDbEntity
  8
0
  6
Continuous
 62
     7
100
AcDbLine
 10
22.1752663563
 20
161.1187568212
 30
0.0
 11
22.9947211563
 21
160.6018160212
 31
0.0
  0
LINE
  5
80
330
1F
100
AcDbEntity
  8
0
  6
Continuous
 62
     7
100
AcDbLine
 10
76.3127755563
 20
162.8411816212
 30
0.0
 11
76.5486145563
 21
164.7282746212
 31
0.0
  0
LINE
  5
81
330
1F
100
AcDbEntity
  8
0
  6
Continuous
 62
     7
100
AcDbLine
 10
70.3658227563
 20
165.2658656212
 30
0.0
 11
70.0970653563
 21
163.3841828212
 31
0.0
  0
LINE
  5
82
330
1F
100
AcDbEntity
  8
0
  6
Continuous
 62
     7
100
AcDbLine
 10
32.7315571563
 20
164.7282746212
 30
0.0
 11
32.7315571563
 21
165.5346992212
 31
0.0
  0
LINE
  5
83
330
1F
100
AcDbEntity
  8
0
  6
Continuous
 62
     7
100
AcDbLine
 10
27.0864325563
 20
164.7282746212
 30
0.0
 11
27.6240235563
 21
164.7282746212
 31
0.0
  0
LINE
  5
84
330
1F
100
AcDbEntity
  8
0
  6
Continuous
 62
     7
100
AcDbLine
 10
58.5379063563
 20
159.6207410212
 30
0.0
 11
58.5379063563
 21
164.3540564212
 31
0.0
  0
LINE
  5
85
330
1F
100
AcDbEntity
  8
0
  6
Continuous
 62
     7
100
AcDbLine
 10
63.3766063563
 20
155.0508746212
 30
0.0
 11
63.3766063563
 21
150.4230962212
 31
0.0
  0
LINE
  5
86
330
1F
100
AcDbEntity
  8
0
  6
Continuous
 62
     7
100
AcDbLine
 10
53.6992063563
 20
173.9116519008
 30
0.0
 11
53.6992063563
 21
164.3540564212
 31
0.0
  0
LINE
  5
87
330
1F
100
AcDbEntity
  8
0
  6
Continuous
 62
     7
100
AcDbLine
 10
53.6992063563
 20
150.4230962212
 30
0.0
 11
63.3766063563
 21
150.4230962212
 31
0.0
  0
LINE
  5
88
330
1F
100
AcDbEntity
  8
0
  6
Continuous
 62
     7
100
AcDbLine
 10
63.3766063563
 20
155.0508746212
 30
0.0
 11
53.6992063563
 21
155.0508746212
 31
0.0
  0
LINE
  5
89
330
1F
100
AcDbEntity
  8
0
  6
Continuous
 62
     7
100
AcDbLine
 10
53.6992063563
 20
159.6207410212
 30
0.0
 11
53.6992063563
 21
155.0508746212
 31
0.0
  0
LINE
  5
8A
330
1F
100
AcDbEntity
  8
0
  6
Continuous
 62
     7
100
AcDbLine
 10
53.6992063563
 20
159.6207410212
 30
0.0
 11
58.5379063563
 21
159.6207410212
 31
0.0
  0
LINE
  5
8B
330
1F
100
AcDbEntity
  8
0
  6
Continuous
 62
     7
100
AcDbLine
 10
58.5450691563
 20
164.3540564212
 30
0.0
 11
53.6992063563
 21
164.3540564212
 31
0.0
  0
LINE
  5
8C
330
1F
100
AcDbEntity
  8
0
  6
Continuous
 62
     7
100
AcDbLine
 10
53.6992063563
 20
119.8665873541
 30
0.0
 11
53.6992063563
 21
99.6809953306
 31
0.0
  0
LINE
  5
8D
330
1F
100
AcDbEntity
  8
0
  6
Continuous
 62
     7
100
AcDbLine
 10
53.6992063563
 20
150.4230962212
 30
0.0
 11
53.6992063563
 21
123.9333799766
 31
0.0
  0
LINE
  5
8E
330
1F
100
AcDbEntity
  8
0
  6
Continuous
 62
     7
100
AcDbLine
 10
49.3981735563
 20
150.4230962212
 30
0.0
 11
49.3981735563
 21
125.9826536562
 31
0.0
  0
LINE
  5
8F
330
1F
100
AcDbEntity
  8
0
  6
Continuous
 62
     7
100
AcDbLine
 10
49.3981735563
 20
99.6809953306
 30
0.0
 11
53.6992063563
 21
99.6809953306
 31
0.0
  0
LINE
  5
90
330
1F
100
AcDbEntity
  8
0
  6
Continuous
 62
     7
100
AcDbLine
 10
49.3981735563
 20
121.9158610337
 30
0.0
 11
49.3981735563
 21
99.6809953306
 31
0.0
  0
LINE
  5
91
330
1F
100
AcDbEntity
  8
0
  6
Continuous
 62
     7
100
AcDbLine
 10
44.6062603563
 20
124.1990199987
 30
0.0
 11
49.3981735563
 21
121.9158610337
 31
0.0
  0
LINE
  5
92
330
1F
100
AcDbEntity
  8
0
  6
Continuous
 62
     7
100
AcDbLine
 10
53.6992063563
 20
99.6809953306
 30
0.0
 11
53.758234171
 21
99.8470547922
 31
0.0
  0
LINE
  5
93
330
1F
100
AcDbEntity
  8
0
  6
Continuous
 62
     7
100
AcDbLine
 10
44.5523107563
 20
164.3540564212
 30
0.0
 11
49.3981735563
 21
164.3540564212
 31
0.0
  0
LINE
  5
94
330
1F
100
AcDbEntity
  8
0
  6
Continuous
 62
     7
100
AcDbLine
 10
49.3981735563
 20
159.6207410212
 30
0.0
 11
44.5594735563
 21
159.6207410212
 31
0.0
  0
LINE
  5
95
330
1F
100
AcDbEntity
  8
0
  6
Continuous
 62
     7
100
AcDbLine
 10
44.5594735563
 20
159.6207410212
 30
0.0
 11
44.5594735563
 21
164.3540564212
 31
0.0
  0
LINE
  5
96
330
1F
100
AcDbEntity
  8
0
  6
Continuous
 62
     7
100
AcDbLine
 10
49.3981735563
 20
159.6207410212
 30
0.0
 11
49.3981735563
 21
155.0508746212
 31
0.0
  0
LINE
  5
97
330
1F
100
AcDbEntity
  8
0
  6
Continuous
 62
     7
100
AcDbLine
 10
39.7207735563
 20
155.0508746212
 30
0.0
 11
39.7207735563
 21
150.4230962212
 31
0.0
  0
LINE
  5
98
330
1F
100
AcDbEntity
  8
0
  6
Continuous
 62
     7
100
AcDbLine
 10
39.7207735563
 20
155.0508746212
 30
0.0
 11
49.3981735563
 21
155.0508746212
 31
0.0
  0
LINE
  5
99
330
1F
100
AcDbEntity
  8
0
  6
Continuous
 62
     7
100
AcDbLine
 10
44.6062603563
 20
128.2658126212
 30
0.0
 11
44.6062603563
 21
124.1990199987
 31
0.0
  0
LINE
  5
9A
330
1F
100
AcDbEntity
  8
0
  6
Continuous
 62
     7
100
AcDbLine
 10
58.8067399563
 20
121.4998402522
 30
0.0
 11
58.8067399563
 21
117.4330476297
 31
0.0
  0
LINE
  5
9B
330
1F
100
AcDbEntity
  8
0
  6
Continuous
 62
     7
100
AcDbLine
 10
49.3981735563
 20
150.4230962212
 30
0.0
 11
39.7207735563
 21
150.4230962212
 31
0.0
  0
LINE
  5
9C
330
1F
100
AcDbEntity
  8
0
  6
Continuous
 62
     7
100
AcDbLine
 10
44.6062603563
 20
128.2658126212
 30
0.0
 11
49.3981735563
 21
125.9826536562
 31
0.0
  0
LINE
  5
9D
330
1F
100
AcDbEntity
  8
0
  6
Continuous
 62
     7
100
AcDbLine
 10
53.6992063563
 20
119.8665873541
 30
0.0
 11
58.8067399563
 21
117.4330476297
 31
0.0
  0
LINE
  5
9E
330
1F
100
AcDbEntity
  8
0
  6
Continuous
 62
     7
100
AcDbLine
 10
53.6992063563
 20
123.9333799766
 30
0.0
 11
58.8067399563
 21
121.4998402522
 31
0.0
  0
LINE
  5
9F
330
1F
100
AcDbEntity
  8
0
  6
Continuous
 62
     7
100
AcDbLine
 10
49.3981735563
 20
173.9116519008
 30
0.0
 11
53.6992063563
 21
173.9116519008
 31
0.0
  0
LINE
  5
A0
330
1F
100
AcDbEntity
  8
0
  6
Continuous
 62
     7
100
AcDbLine
 10
51.5486899563
 20
185.842912737
 30
0.0
 11
50.5150990412
 21
188.9419108634
 31
0.0
  0
LINE
  5
A1
330
1F
100
AcDbEntity
  8
0
  6
Continuous
 62
     7
100
AcDbLine
 10
61.2260899563
 20
147.5415170212
 30
0.0
 11
65.7959563563
 21
147.5415170212
 31
0.0
  0
LINE
  5
A2
330
1F
100
AcDbEntity
  8
0
  6
Continuous
 62
     7
100
AcDbLine
 10
61.2260899563
 20
147.5415170212
 30
0.0
 11
61.2260899563
 21
131.0833700057
 31
0.0
  0
LINE
  5
A3
330
1F
100
AcDbEntity
  8
0
  6
Continuous
 62
     7
100
AcDbLine
 10
61.2260899563
 20
166.3411238212
 30
0.0
 11
65.7959563563
 21
166.3411238212
 31
0.0
  0
LINE
  5
A4
330
1F
100
AcDbEntity
  8
0
  6
Continuous
 62
     7
100
AcDbLine
 10
27.3551899563
 20
166.3411238212
 30
0.0
 11
27.0864325563
 21
166.3411238212
 31
0.0
  0
LINE
  5
A5
330
1F
100
AcDbEntity
  8
0
  6
Continuous
 62
     7
100
AcDbLine
 10
41.8712899563
 20
172.2538628212
 30
0.0
 11
41.8712899563
 21
166.3411238212
 31
0.0
  0
LINE
  5
A6
330
1F
100
AcDbEntity
  8
0
  6
Continuous
 62
     7
100
AcDbLine
 10
61.2260899563
 20
172.2538628212
 30
0.0
 11
61.2260899563
 21
166.3411238212
 31
0.0
  0
LINE
  5
A7
330
1F
100
AcDbEntity
  8
0
  6
Continuous
 62
     7
100
AcDbLine
 10
41.8712899563
 20
166.3411238212
 30
0.0
 11
37.3014235563
 21
166.3411238212
 31
0.0
  0
LINE
  5
A8
330
1F
100
AcDbEntity
  8
0
  6
Continuous
 62
     7
100
AcDbLine
 10
41.8712899563
 20
147.5415170212
 30
0.0
 11
41.8712899563
 21
131.0833700057
 31
0.0
  0
LINE
  5
A9
330
1F
100
AcDbEntity
  8
0
  6
Continuous
 62
     7
100
AcDbLine
 10
41.8712899563
 20
147.5415170212
 30
0.0
 11
37.3014235563
 21
147.5415170212
 31
0.0
  0
LINE
  5
AA
330
1F
100
AcDbEntity
  8
0
  6
Continuous
 62
     7
100
AcDbLine
 10
49.3981735563
 20
173.9116519008
 30
0.0
 11
49.3981735563
 21
164.3540564212
 31
0.0
  0
LWPOLYLINE
  5
AB
330
1F
100
AcDbEntity
  8
0
  6
Continuous
 62
     7
100
AcDbPolyline
 90
       19
 70
   128
 43
0.0
 10
67.4007283563
 20
160.1522360212
 10
67.8065733154
 20
160.1556203481
 10
68.1665911466
 20
160.1629925792
 10
68.483435377
 20
160.17274191
 10
68.7597595336
 20
160.183257536
 10
68.9982171434
 20
160.1929286528
 10
69.2014617335
 20
160.200144456
 10
69.4203228924
 20
160.2031801865
 10
69.5885554184
 20
160.195426314
 10
69.6891962235
 20
160.1793513641
 10
69.7653096063
 20
160.1525312962
 10
69.8321150542
 20
160.0990846795
 10
69.869331536
 20
160.0208542732
 10
69.8833335093
 20
159.9139705089
 10
69.8804954313
 20
159.7745638181
 10
69.8671917597
 20
159.5987646324
 10
69.8497969516
 20
159.3827033833
 10
69.8346854647
 20
159.1225105024
 10
69.8282317563
 20
158.8143164212
  0
ARC
  5
AC
330
1F
100
AcDbEntity
  8
0
  6
Continuous
 62
     7
100
AcDbCircle
 10
125.2141365558
 20
191.1306391771
 30
0.0
 40
64.12443502225278
100
AcDbArc
 50
210.262517584
 51
211.6630847291
  0
LWPOLYLINE
  5
AD
330
1F
100
AcDbEntity
  8
0
  6
Continuous
 62
     7
100
AcDbPolyline
 90
       15
 70
   128
 43
0.0
 10
74.3980981563
 20
160.1583320212
 10
74.3179348807
 20
159.9403878939
 10
74.1951569071
 20
159.7122743192
 10
74.0363861668
 20
159.4761435968
 10
73.8482445909
 20
159.2341480264
 10
73.6373541108
 20
158.9884399078
 10
73.1823504061
 20
158.5032706315
 10
72.7153099482
 20
158.0283936202
 10
72.4929596418
 20
157.7999123254
 10
72.2864205931
 20
157.5801212307
 10
72.1019662839
 20
157.3710593807
 10
71.9458701964
 20
157.17476582
 10
71.8195924283
 20
156.9850414503
 10
71.738536199
 20
156.8139126413
 10
71.7099145563
 20
156.6637238212
  0
LWPOLYLINE
  5
AE
330
1F
100
AcDbEntity
  8
0
  6
Continuous
 62
     7
100
AcDbPolyline
 90
       17
 70
   128
 43
0.0
 10
71.7099145563
 20
156.6637238212
 10
71.7353801422
 20
156.4843233444
 10
71.808192602
 20
156.2709244027
 10
71.9229754894
 20
156.0284991683
 10
72.1048238605
 20
155.7122829659
 10
72.3287007623
 20
155.3707946561
 10
72.6378153035
 20
154.9425967642
 10
72.979170168
 20
154.5038517304
 10
73.3379153985
 20
154.06829289
 10
73.5804809148
 20
153.7852371595
 10
73.8197264262
 20
153.5138923877
 10
74.0511927533
 20
153.258382452
 10
74.2704207172
 20
153.0228312296
 10
74.4729511386
 20
152.811362598
 10
74.6543248383
 20
152.6281004345
 10
74.8100826373
 20
152.4771686164
 10
74.9357653563
 20
152.3626910212
  0
LWPOLYLINE
  5
AF
330
1F
100
AcDbEntity
  8
0
  6
Continuous
 62
     7
100
AcDbPolyline
 90
       17
 70
   128
 43
0.0
 10
76.0110235563
 20
155.8572992212
 10
76.023653587
 20
156.3902303444
 10
76.0610254421
 20
156.8764308545
 10
76.1223617667
 20
157.3184037199
 10
76.2068852055
 20
157.7186519094
 10
76.3138184035
 20
158.0796783913
 10
76.4423840056
 20
158.4039861344
 10
76.6206220812
 20
158.7424710023
 10
76.826555872
 20
159.037526657
 10
77.058912792
 20
159.2932506377
 10
77.3164202551
 20
159.5137404838
 10
77.6540047989
 20
159.7359700065
 10
78.0232828992
 20
159.9209849989
 10
78.4221074706
 20
160.0756987588
 10
78.8483314275
 20
160.207024584
 10
79.2998076845
 20
160.3218757722
 10
79.7743891563
 20
160.4271656212
  0
ARC
  5
B0
330
1F
100
AcDbEntity
  8
0
  6
Continuous
 62
     7
100
AcDbCircle
 10
81.0922513549
 20
156.6055269589
 30
0.0
 40
3.784416599464501
100
AcDbArc
 50
117.7940094214
 51
170.9409664595
  0
LWPOLYLINE
  5
B1
330
1F
100
AcDbEntity
  8
0
  6
Continuous
 62
     7
100
AcDbPolyline
 90
       15
 70
   128
 43
0.0
 10
77.3550391563
 20
156.6637238212
 10
77.3599963284
 20
156.160975138
 10
77.3769445544
 20
155.7053070144
 10
77.4089988989
 20
155.2926364951
 10
77.4592744262
 20
154.9188806252
 10
77.5308862011
 20
154.5799564495
 10
77.6269492881
 20
154.2717810129
 10
77.7505787515
 20
153.9902713604
 10
77.9048896561
 20
153.7313445367
 10
78.1028505922
 20
153.479860621
 10
78.3414849857
 20
153.2439859713
 10
78.6243744379
 20
153.0190261369
 10
78.9551005497
 20
152.8002866674
 10
79.3372449222
 20
152.5830731124
 10
79.7743891563
 20
152.3626910212
  0
LWPOLYLINE
  5
B2
330
1F
100
AcDbEntity
  8
0
  6
Continuous
 62
     7
100
AcDbPolyline
 90
       14
 70
   128
 43
0.0
 10
83.0458075563
 20
153.8833382212
 10
82.9356691541
 20
153.5119161979
 10
82.8206382291
 20
153.19552461
 10
82.6956496197
 20
152.9297827647
 10
82.5556381645
 20
152.710309969
 10
82.3955387019
 20
152.53272553
 10
82.2102860705
 20
152.392648755
 10
81.9948151086
 20
152.2856989509
 10
81.7664280927
 20
152.213021335
 10
81.5044916785
 20
152.1611243287
 10
81.2051044019
 20
152.1266336832
 10
80.8643647987
 20
152.1061751495
 10
80.4783714049
 20
152.0963744784
 10
80.0432227563
 20
152.0938574212
  0
ARC
  5
B3
330
1F
100
AcDbEntity
  8
0
  6
Continuous
 62
     7
100
AcDbCircle
 10
80.2142031916
 20
156.2970281522
 30
0.0
 40
4.226118855319931
100
AcDbArc
 50
185.9724529976
 51
264.0263868988
  0
ARC
  5
B4
330
1F
100
AcDbEntity
  8
0
  6
Continuous
 62
     7
100
AcDbCircle
 10
31.7080201132
 20
157.1363734884
 30
0.0
 40
4.097619364340899
100
AcDbArc
 50
90.7232205895
 51
175.326679922
  0
ARC
  5
B5
330
1F
100
AcDbEntity
  8
0
  6
Continuous
 62
     7
100
AcDbCircle
 10
31.3929322947
 20
153.1859979743
 30
0.0
 40
8.158240248445461
100
AcDbArc
 50
62.5718789342
 51
80.5560579238
  0
LWPOLYLINE
  5
B6
330
1F
100
AcDbEntity
  8
0
  6
Continuous
 62
     7
100
AcDbPolyline
 90
       12
 70
   128
 43
0.0
 10
35.4604315563
 20
158.8232318212
 10
35.2216168254
 20
159.1025461413
 10
34.9839325548
 20
159.4101624368
 10
34.7395910983
 20
159.7295168648
 10
34.4808048095
 20
160.044045582
 10
34.1997860423
 20
160.3371847451
 10
34.0000081345
 20
160.509592959
 10
33.7851741729
 20
160.661080498
 10
33.5530981258
 20
160.786997808
 10
33.3015939617
 20
160.8826953347
 10
33.0284756491
 20
160.9435235239
 10
32.7315571563
 20
160.9648328212
  0
LWPOLYLINE
  5
B7
330
1F
100
AcDbEntity
  8
0
  6
Continuous
 62
     7
100
AcDbPolyline
 90
       16
 70
   128
 43
0.0
 10
32.7315571563
 20
160.9648328212
 10
32.3562821931
 20
160.9404740049
 10
32.0020718667
 20
160.8693887717
 10
31.6693742346
 20
160.7545639449
 10
31.3586373541
 20
160.598986348
 10
31.0703092825
 20
160.4056428044
 10
30.8093756035
 20
160.181881434
 10
30.5709142431
 20
159.927401617
 10
30.3553496816
 20
159.6450330085
 10
30.1631063993
 20
159.337605264
 10
29.9652415138
 20
158.9428700884
 10
29.8017460917
 20
158.5214046925
 10
29.6733363089
 20
158.077983222
 10
29.5807283415
 20
157.6173798228
 10
29.5246383653
 20
157.1443686406
 10
29.5057825563
 20
156.6637238212
  0
ARC
  5
B8
330
1F
100
AcDbEntity
  8
0
  6
Continuous
 62
     7
100
AcDbCircle
 10
32.6740002576
 20
155.4956934435
 30
0.0
 40
3.169575693890056
100
AcDbArc
 50
178.3227365388
 51
261.2876068812
  0
LWPOLYLINE
  5
B9
330
1F
100
AcDbEntity
  8
0
  6
Continuous
 62
     7
100
AcDbPolyline
 90
       12
 70
   128
 43
0.0
 10
32.4627235563
 20
152.3626910212
 10
32.8154037154
 20
152.38885993
 10
33.1360109945
 20
152.4630516638
 10
33.4290075487
 20
152.5787937335
 10
33.6988555328
 20
152.7296136503
 10
33.9500171019
 20
152.9090389252
 10
34.1869544109
 20
153.1105970692
 10
34.4141296148
 20
153.3278155934
 10
34.718752428
 20
153.6401721226
 10
35.0249548828
 20
153.9530735656
 10
35.3443368389
 20
154.2496939795
 10
35.6884981563
 20
154.5132074212
  0
LWPOLYLINE
  5
BA
330
1F
100
AcDbEntity
  8
0
  6
Continuous
 62
     7
100
AcDbPolyline
 90
       16
 70
   128
 43
0.0
 10
35.6884981563
 20
154.5132074212
 10
35.6822914046
 20
154.0637359942
 10
35.6607809641
 20
153.6656130841
 10
35.6196315571
 20
153.3159052235
 10
35.5545079056
 20
153.0116789451
 10
35.461074732
 20
152.7500007813
 10
35.3349967582
 20
152.5279372647
 10
35.1719387065
 20
152.3425549278
 10
34.967565299
 20
152.1909203033
 10
34.7452710204
 20
152.0811018277
 10
34.4830282678
 20
151.9940058405
 10
34.1776980744
 20
151.9275083586
 10
33.8261414734
 20
151.8794853988
 10
33.4252194979
 20
151.8478129781
 10
32.9717931812
 20
151.8303671132
 10
32.4627235563
 20
151.8250238212
  0
ARC
  5
BB
330
1F
100
AcDbEntity
  8
0
  6
Continuous
 62
     7
100
AcDbCircle
 10
32.3140881765
 20
156.7174957442
 30
0.0
 40
4.893948214862155
100
AcDbArc
 50
196.5965750651
 51
268.5926407491
  0
ARC
  5
BC
330
1F
100
AcDbEntity
  8
0
  6
Continuous
 62
     7
100
AcDbCircle
 10
30.5064280989
 20
157.0305532341
 30
0.0
 40
5.936690409232588
100
AcDbArc
 50
139.2685435127
 51
159.7733416719
  0
ARC
  5
BD
330
1F
100
AcDbEntity
  8
0
  6
Continuous
 62
     7
100
AcDbCircle
 10
26.9805488761
 20
153.8959384904
 30
0.0
 40
2.046260770135291
100
AcDbArc
 50
177.7684351695
 51
241.7233262916
  0
LWPOLYLINE
  5
BE
330
1F
100
AcDbEntity
  8
0
  6
Continuous
 62
     7
100
AcDbPolyline
 90
       19
 70
   128
 43
0.0
 10
22.2477325563
 20
152.0938574212
 10
22.278766474
 20
152.3314488422
 10
22.3144684852
 20
152.5260693093
 10
22.3542175179
 20
152.6819143664
 10
22.3973925003
 20
152.8031795575
 10
22.4433723603
 20
152.8940604266
 10
22.491536026
 20
152.9587525174
 10
22.5412624254
 20
153.0014513739
 10
22.6174235551
 20
153.0334400966
 10
22.6936073058
 20
153.0395439766
 10
22.7677175594
 20
153.0339229747
 10
22.8376581982
 20
153.0307370514
 10
22.9013331042
 20
153.0441461675
 10
22.9566461595
 20
153.0883102837
 10
22.9877134905
 20
153.1415435016
 10
23.0135612314
 20
153.2187017284
 10
23.0335765543
 20
153.3239248156
 10
23.0488447986
 20
153.4895985359
 10
23.0541571563
 20
153.7067828212
  0
ARC
  5
BF
330
1F
100
AcDbEntity
  8
0
  6
Continuous
 62
     7
100
AcDbCircle
 10
74.5668233801
 20
167.7336185903
 30
0.0
 40
3.599942866009465
100
AcDbArc
 50
280.203305899
 51
303.4017532246
  0
ARC
  5
C0
330
1F
100
AcDbEntity
  8
0
  6
Continuous
 62
     7
100
AcDbCircle
 10
75.0957900257
 20
165.4973506171
 30
0.0
 40
2.921692577389326
100
AcDbArc
 50
272.1327930213
 51
294.6159836093
  0
LWPOLYLINE
  5
C1
330
1F
100
AcDbEntity
  8
0
  6
Continuous
 62
     7
100
AcDbPolyline
 90
       13
 70
   128
 43
0.0
 10
75.2045227563
 20
162.5776820212
 10
74.9694749635
 20
162.6021122338
 10
74.725858555
 20
162.6698974714
 10
74.47390949
 20
162.7727796342
 10
74.2138637275
 20
162.902500622
 10
73.9459572267
 20
163.0508023348
 10
73.6704259467
 20
163.2094266727
 10
73.3875058464
 20
163.3701155356
 10
73.068041266
 20
163.5394017687
 10
72.7402357853
 20
163.690202245
 10
72.4044034657
 20
163.8115254333
 10
72.0608583689
 20
163.8923798024
 10
71.7099145563
 20
163.9217738212
  0
ARC
  5
C2
330
1F
100
AcDbEntity
  8
0
  6
Continuous
 62
     7
100
AcDbCircle
 10
71.70449889
 20
161.2498379826
 30
0.0
 40
2.671941327055023
100
AcDbArc
 50
89.8838690671
 51
126.9844043876
  0
ARC
  5
C3
330
1F
100
AcDbEntity
  8
0
  6
Continuous
 62
     7
100
AcDbCircle
 10
74.3039309311
 20
151.7993299766
 30
0.0
 40
14.03054803865962
100
AcDbArc
 50
101.7735449131
 51
106.3008527738
  0
LWPOLYLINE
  5
C4
330
1F
100
AcDbEntity
  8
0
  6
Continuous
 62
     7
100
AcDbPolyline
 90
       13
 70
   128
 43
0.0
 10
71.4410809563
 20
165.5346992212
 10
71.6950618913
 20
165.5102690087
 10
71.9576608341
 20
165.442483771
 10
72.2287555917
 20
165.3396016083
 10
72.5082239709
 20
165.2098806205
 10
72.7959437787
 20
165.0615789076
 10
73.091792822
 20
164.9029545697
 10
73.3956489076
 20
164.7422657069
 10
73.7389928982
 20
164.5729794737
 10
74.0917149174
 20
164.4221789974
 10
74.4536523262
 20
164.3008558092
 10
74.8246424855
 20
164.2200014401
 10
75.2045227563
 20
164.1906074212
  0
ARC
  5
C5
330
1F
100
AcDbEntity
  8
0
  6
Continuous
 62
     7
100
AcDbCircle
 10
29.8358174071
 20
170.824785095
 30
0.0
 40
6.030780815730606
100
AcDbArc
 50
284.9092063823
 51
298.6958527413
  0
ARC
  5
C6
330
1F
100
AcDbEntity
  8
0
  6
Continuous
 62
     7
100
AcDbCircle
 10
30.9680718764
 20
165.0368997658
 30
0.0
 40
1.790287634024232
100
AcDbArc
 50
292.6079010807
 51
350.0732746703
  0
LWPOLYLINE
  5
C7
330
1F
100
AcDbEntity
  8
0
  6
Continuous
 62
     7
100
AcDbPolyline
 90
       14
 70
   128
 43
0.0
 10
31.6562989563
 20
163.3841828212
 10
31.2627122281
 20
163.4086130338
 10
30.8950786591
 20
163.4763982714
 10
30.5495112446
 20
163.5792804342
 10
30.2221229799
 20
163.709001422
 10
29.9090268603
 20
163.8573031348
 10
29.6063358813
 20
164.0159274727
 10
29.310163038
 20
164.1766163356
 10
29.0410774913
 20
164.3186750905
 10
28.7712088423
 20
164.4491686821
 10
28.4975631077
 20
164.5617362708
 10
28.217146304
 20
164.6500170168
 10
27.926964448
 20
164.7076500801
 10
27.6240235563
 20
164.7282746212
  0
ARC
  5
C8
330
1F
100
AcDbEntity
  8
0
  6
Continuous
 62
     7
100
AcDbCircle
 10
28.6370358057
 20
158.9031331492
 30
0.0
 40
6.027988354827363
100
AcDbArc
 50
104.9059975476
 51
118.6990615761
  0
LWPOLYLINE
  5
C9
330
1F
100
AcDbEntity
  8
0
  6
Continuous
 62
     7
100
AcDbPolyline
 90
       11
 70
   128
 43
0.0
 10
25.7423407563
 20
164.1906074212
 10
25.8152903501
 20
164.5178480236
 10
25.8972982188
 20
164.871690165
 10
25.9974154938
 20
165.230486497
 10
26.1246933063
 20
165.5725896712
 10
26.2291040633
 20
165.7806944289
 10
26.3522907119
 20
165.9653449323
 10
26.4969350688
 20
166.1201271525
 10
26.6657189508
 20
166.2386270601
 10
26.8613241744
 20
166.3144306261
 10
27.0864325563
 20
166.3411238212
  0
LWPOLYLINE
  5
CA
330
1F
100
AcDbEntity
  8
0
  6
Continuous
 62
     7
100
AcDbPolyline
 90
       15
 70
   128
 43
0.0
 10
27.3551899563
 20
166.3411238212
 10
27.654012198
 20
166.3259249124
 10
27.9213067704
 20
166.2829811849
 10
28.1625346264
 20
166.216272137
 10
28.3831567189
 20
166.1297772671
 10
28.5886340006
 20
166.0274760735
 10
28.9691672845
 20
165.7958192296
 10
29.3537249516
 20
165.5486903069
 10
29.5648202248
 20
165.4263659464
 10
29.7932337651
 20
165.3118708305
 10
30.0444624264
 20
165.2092106192
 10
30.3240030623
 20
165.1223909726
 10
30.6373525268
 20
165.0554175508
 10
30.9900076735
 20
165.0122960136
 10
31.3874653563
 20
164.9970320212
  0
ENDSEC
  0
SECTION
  2
OBJECTS
  0
DICTIONARY
  5
C
330
0
100
AcDbDictionary
281
     1
  3
ACAD_GROUP
350
D
  3
ACAD_LAYOUT
350
1A
  3
ACAD_MLINESTYLE
350
17
  3
ACAD_PLOTSETTINGS
350
19
  3
ACAD_PLOTSTYLENAME
350
E
  0
DICTIONARY
  5
D
102
{ACAD_REACTORS
330
C
102
}
330
C
100
AcDbDictionary
281
     1
  0
DICTIONARY
  5
1A
102
{ACAD_REACTORS
330
C
102
}
330
C
100
AcDbDictionary
281
     1
  3
Layout1
350
1E
  3
Layout2
350
26
  3
Model
350
22
  0
DICTIONARY
  5
17
102
{ACAD_REACTORS
330
C
102
}
330
C
100
AcDbDictionary
281
     1
  3
Standard
350
18
  0
DICTIONARY
  5
19
102
{ACAD_REACTORS
330
C
102
}
330
C
100
AcDbDictionary
281
     1
  0
ACDBDICTIONARYWDFLT
  5
E
102
{ACAD_REACTORS
330
C
102
}
330
C
100
AcDbDictionary
281
     1
  3
Normal
350
F
100
AcDbDictionaryWithDefault
340
F
  0
LAYOUT
  5
1E
102
{ACAD_REACTORS
330
1A
102
}
330
1A
100
AcDbPlotSettings
  1

  2

  4

  6

 40
0.0
 41
0.0
 42
0.0
 43
0.0
 44
0.0
 45
0.0
 46
0.0
 47
0.0
 48
0.0
 49
0.0
140
0.0
141
0.0
142
1.0
143
1.0
 70
   688
 72
     0
 73
     0
 74
     5
  7

 75
    16
147
1.0
148
0.0
149
0.0
100
AcDbLayout
  1
Layout1
 70
     1
 71
     1
 10
0.0
 20
0.0
 11
420.0
 21
297.0
 12
0.0
 22
0.0
 32
0.0
 14
1.0000000000E 20
 24
1.0000000000E 20
 34
1.0000000000E 20
 15
-1.0000000000E 20
 25
-1.0000000000E 20
 35
-1.0000000000E 20
146
0.0
 13
0.0
 23
0.0
 33
0.0
 16
1.0
 26
0.0
 36
0.0
 17
0.0
 27
1.0
 37
0.0
 76
     0
330
1B
  0
LAYOUT
  5
26
102
{ACAD_REACTORS
330
1A
102
}
330
1A
100
AcDbPlotSettings
  1

  2

  4

  6

 40
0.0
 41
0.0
 42
0.0
 43
0.0
 44
0.0
 45
0.0
 46
0.0
 47
0.0
 48
0.0
 49
0.0
140
0.0
141
0.0
142
1.0
143
1.0
 70
   688
 72
     0
 73
     0
 74
     5
  7

 75
    16
147
1.0
148
0.0
149
0.0
100
AcDbLayout
  1
Layout2
 70
     1
 71
     2
 10
0.0
 20
0.0
 11
0.0
 21
0.0
 12
0.0
 22
0.0
 32
0.0
 14
0.0
 24
0.0
 34
0.0
 15
0.0
 25
0.0
 35
0.0
146
0.0
 13
0.0
 23
0.0
 33
0.0
 16
1.0
 26
0.0
 36
0.0
 17
0.0
 27
1.0
 37
0.0
 76
     0
330
23
  0
LAYOUT
  5
22
102
{ACAD_REACTORS
330
1A
102
}
330
1A
100
AcDbPlotSettings
  1

  2

  4

  6

 40
0.0
 41
0.0
 42
0.0
 43
0.0
 44
0.0
 45
0.0
 46
0.0
 47
0.0
 48
0.0
 49
0.0
140
0.0
141
0.0
142
1.0
143
1.0
 70
  1712
 72
     0
 73
     0
 74
     0
  7

 75
     0
147
1.0
148
0.0
149
0.0
100
AcDbLayout
  1
Model
 70
     1
 71
     0
 10
0.0
 20
0.0
 11
0.0
 21
0.0
 12
0.0
 22
0.0
 32
0.0
 14
0.0
 24
0.0
 34
0.0
 15
279.4
 25
215.9
 35
0.0
146
0.0
 13
0.0
 23
0.0
 33
0.0
 16
1.0
 26
0.0
 36
0.0
 17
0.0
 27
1.0
 37
0.0
 76
     0
330
1F
  0
MLINESTYLE
  5
18
102
{ACAD_REACTORS
330
17
102
}
330
17
100
AcDbMlineStyle
  2
Standard
 70
     0
  3

 62
   256
 51
90.0
 52
90.0
 71
     2
 49
0.5
 62
   256
  6
BYLAYER
 49
-0.5
 62
   256
  6
BYLAYER
  0
ACDBPLACEHOLDER
  5
F
102
{ACAD_REACTORS
330
E
102
}
330
E
  0
ENDSEC
  0
EOF
