  0
SECTION
  2
HEADER
  9
$ACADVER
  1
AC1009
  9
$EXTMIN
 10
0.39603785
 20
0.30636107
 30
0.0
  9
$EXTMAX
 10
7.63437698
 20
6.93091569
 30
0.0
  0
ENDSEC
  0
SECTION
  2
ENTITIES
  0
POLYLINE
  8
0
 66
   1
 70
    1
  0
VERTEX
  8
0
 10
4.30878036
 20
0.34044363
  0
VERTEX
  8
0
 10
4.32997259
 20
0.34786822
  0
VERTEX
  8
0
 10
4.35392363
 20
0.35714280
  0
VERTEX
  8
0
 10
4.40864616
 20
0.38050149
  0
VERTEX
  8
0
 10
4.47003598
 20
0.40903885
  0
VERTEX
  8
0
 10
4.53518113
 20
0.44127403
  0
VERTEX
  8
0
 10
4.60116965
 20
0.47572617
  0
VERTEX
  8
0
 10
4.66508957
 20
0.51091441
  0
VERTEX
  8
0
 10
4.72402895
 20
0.54535790
  0
VERTEX
  8
0
 10
4.77507582
 20
0.57757578
  0
VERTEX
  8
0
 10
4.80381270
 20
0.59737778
  0
VERTEX
  8
0
 10
4.83379627
 20
0.61941429
  0
VERTEX
  8
0
 10
4.86473449
 20
0.64340497
  0
VERTEX
  8
0
 10
4.89633529
 20
0.66906947
  0
VERTEX
  8
0
 10
4.92830663
 20
0.69612744
  0
VERTEX
  8
0
 10
4.96035645
 20
0.72429852
  0
VERTEX
  8
0
 10
4.99219271
 20
0.75330238
  0
VERTEX
  8
0
 10
5.02352335
 20
0.78285866
  0
VERTEX
  8
0
 10
5.05405632
 20
0.81268701
  0
VERTEX
  8
0
 10
5.08349956
 20
0.84250709
  0
VERTEX
  8
0
 10
5.11156104
 20
0.87203853
  0
VERTEX
  8
0
 10
5.13794868
 20
0.90100101
  0
VERTEX
  8
0
 10
5.16237045
 20
0.92911416
  0
VERTEX
  8
0
 10
5.18453429
 20
0.95609763
  0
VERTEX
  8
0
 10
5.20414815
 20
0.98167108
  0
VERTEX
  8
0
 10
5.22091998
 20
1.00555416
  0
VERTEX
  8
0
 10
5.23319488
 20
1.02489246
  0
VERTEX
  8
0
 10
5.24571987
 20
1.04631008
  0
VERTEX
  8
0
 10
5.27123877
 20
1.09468884
  0
VERTEX
  8
0
 10
5.29691406
 20
1.14930151
  0
VERTEX
  8
0
 10
5.32218312
 20
1.20875915
  0
VERTEX
  8
0
 10
5.34648335
 20
1.27167284
  0
VERTEX
  8
0
 10
5.36925210
 20
1.33665364
  0
VERTEX
  8
0
 10
5.38992677
 20
1.40231261
  0
VERTEX
  8
0
 10
5.40794474
 20
1.46726082
  0
VERTEX
  8
0
 10
5.41787373
 20
1.50112964
  0
VERTEX
  8
0
 10
5.42924406
 20
1.53152605
  0
VERTEX
  8
0
 10
5.44183396
 20
1.55812845
  0
VERTEX
  8
0
 10
5.45542167
 20
1.58061522
  0
VERTEX
  8
0
 10
5.46252041
 20
1.59021475
  0
VERTEX
  8
0
 10
5.46978543
 20
1.59866476
  0
VERTEX
  8
0
 10
5.47718903
 20
1.60592507
  0
VERTEX
  8
0
 10
5.48470348
 20
1.61195547
  0
VERTEX
  8
0
 10
5.49230107
 20
1.61671576
  0
VERTEX
  8
0
 10
5.49995406
 20
1.62016574
  0
VERTEX
  8
0
 10
5.50763475
 20
1.62226521
  0
VERTEX
  8
0
 10
5.51531541
 20
1.62297397
  0
VERTEX
  8
0
 10
5.52477733
 20
1.62187142
  0
VERTEX
  8
0
 10
5.52918581
 20
1.62021960
  0
VERTEX
  8
0
 10
5.53351728
 20
1.61759084
  0
VERTEX
  8
0
 10
5.53787521
 20
1.61380271
  0
VERTEX
  8
0
 10
5.54236310
 20
1.60867280
  0
VERTEX
  8
0
 10
5.55214263
 20
1.59365790
  0
VERTEX
  8
0
 10
5.56368373
 20
1.57108673
  0
VERTEX
  8
0
 10
5.57781424
 20
1.53949987
  0
VERTEX
  8
0
 10
5.61715487
 20
1.44344144
  0
VERTEX
  8
0
 10
5.63078322
 20
1.41070590
  0
VERTEX
  8
0
 10
5.64472149
 20
1.37989575
  0
VERTEX
  8
0
 10
5.65903718
 20
1.35093355
  0
VERTEX
  8
0
 10
5.67379784
 20
1.32374187
  0
VERTEX
  8
0
 10
5.68907097
 20
1.29824326
  0
VERTEX
  8
0
 10
5.70492411
 20
1.27436030
  0
VERTEX
  8
0
 10
5.72142476
 20
1.25201554
  0
VERTEX
  8
0
 10
5.73864047
 20
1.23113155
  0
VERTEX
  8
0
 10
5.75663874
 20
1.21163089
  0
VERTEX
  8
0
 10
5.77548710
 20
1.19343612
  0
VERTEX
  8
0
 10
5.79525307
 20
1.17646981
  0
VERTEX
  8
0
 10
5.81600418
 20
1.16065453
  0
VERTEX
  8
0
 10
5.83780794
 20
1.14591282
  0
VERTEX
  8
0
 10
5.86073189
 20
1.13216727
  0
VERTEX
  8
0
 10
5.88484353
 20
1.11934042
  0
VERTEX
  8
0
 10
5.91021039
 20
1.10735485
  0
VERTEX
  8
0
 10
5.92043785
 20
1.10380840
  0
VERTEX
  8
0
 10
5.93491946
 20
1.10022619
  0
VERTEX
  8
0
 10
5.97393294
 20
1.09320001
  0
VERTEX
  8
0
 10
6.02182649
 20
1.08676742
  0
VERTEX
  8
0
 10
6.07317579
 20
1.08141954
  0
VERTEX
  8
0
 10
6.12255649
 20
1.07764747
  0
VERTEX
  8
0
 10
6.16454427
 20
1.07594233
  0
VERTEX
  8
0
 10
6.18107070
 20
1.07601833
  0
VERTEX
  8
0
 10
6.19371478
 20
1.07679522
  0
VERTEX
  8
0
 10
6.20179845
 20
1.07833441
  0
VERTEX
  8
0
 10
6.20391825
 20
1.07940904
  0
VERTEX
  8
0
 10
6.20464369
 20
1.08069727
  0
VERTEX
  8
0
 10
6.20281015
 20
1.08339572
  0
VERTEX
  8
0
 10
6.19755518
 20
1.08822243
  0
VERTEX
  8
0
 10
6.17825480
 20
1.10317756
  0
VERTEX
  8
0
 10
6.14969025
 20
1.12339651
  0
VERTEX
  8
0
 10
6.11480923
 20
1.14671311
  0
VERTEX
  8
0
 10
6.09178617
 20
1.16236343
  0
VERTEX
  8
0
 10
6.06796663
 20
1.17977385
  0
VERTEX
  8
0
 10
6.04360911
 20
1.19868718
  0
VERTEX
  8
0
 10
6.01897209
 20
1.21884622
  0
VERTEX
  8
0
 10
5.96989354
 20
1.26187270
  0
VERTEX
  8
0
 10
5.92279886
 20
1.30679576
  0
VERTEX
  8
0
 10
5.87975598
 20
1.35155787
  0
VERTEX
  8
0
 10
5.86040019
 20
1.37323559
  0
VERTEX
  8
0
 10
5.84283281
 20
1.39410151
  0
VERTEX
  8
0
 10
5.82731233
 20
1.41389842
  0
VERTEX
  8
0
 10
5.81409725
 20
1.43236914
  0
VERTEX
  8
0
 10
5.80344604
 20
1.44925647
  0
VERTEX
  8
0
 10
5.79561721
 20
1.46430323
  0
VERTEX
  8
0
 10
5.78821927
 20
1.48131404
  0
VERTEX
  8
0
 10
5.78236718
 20
1.49645256
  0
VERTEX
  8
0
 10
5.77823814
 20
1.50984419
  0
VERTEX
  8
0
 10
5.77600937
 20
1.52161432
  0
VERTEX
  8
0
 10
5.77585808
 20
1.53188832
  0
VERTEX
  8
0
 10
5.77796148
 20
1.54079158
  0
VERTEX
  8
0
 10
5.78249679
 20
1.54844949
  0
VERTEX
  8
0
 10
5.78964121
 20
1.55498742
  0
VERTEX
  8
0
 10
5.79957195
 20
1.56053077
  0
VERTEX
  8
0
 10
5.81246623
 20
1.56520491
  0
VERTEX
  8
0
 10
5.82850126
 20
1.56913523
  0
VERTEX
  8
0
 10
5.84785424
 20
1.57244711
  0
VERTEX
  8
0
 10
5.87070240
 20
1.57526595
  0
VERTEX
  8
0
 10
5.89722294
 20
1.57771711
  0
VERTEX
  8
0
 10
5.96199001
 20
1.58201798
  0
VERTEX
  8
0
 10
6.02174834
 20
1.58622571
  0
VERTEX
  8
0
 10
6.07987019
 20
1.59198202
  0
VERTEX
  8
0
 10
6.13650418
 20
1.59933640
  0
VERTEX
  8
0
 10
6.19179890
 20
1.60833838
  0
VERTEX
  8
0
 10
6.24590296
 20
1.61903746
  0
VERTEX
  8
0
 10
6.29896495
 20
1.63148317
  0
VERTEX
  8
0
 10
6.35113348
 20
1.64572501
  0
VERTEX
  8
0
 10
6.40255715
 20
1.66181251
  0
VERTEX
  8
0
 10
6.45338456
 20
1.67979517
  0
VERTEX
  8
0
 10
6.50376431
 20
1.69972251
  0
VERTEX
  8
0
 10
6.55384502
 20
1.72164404
  0
VERTEX
  8
0
 10
6.60377526
 20
1.74560928
  0
VERTEX
  8
0
 10
6.65370366
 20
1.77166774
  0
VERTEX
  8
0
 10
6.70377882
 20
1.79986894
  0
VERTEX
  8
0
 10
6.75414932
 20
1.83026238
  0
VERTEX
  8
0
 10
6.80496378
 20
1.86289760
  0
VERTEX
  8
0
 10
6.85915645
 20
1.90031930
  0
VERTEX
  8
0
 10
6.91097431
 20
1.93933582
  0
VERTEX
  8
0
 10
6.96040410
 20
1.97989970
  0
VERTEX
  8
0
 10
7.00743254
 20
2.02196346
  0
VERTEX
  8
0
 10
7.05204633
 20
2.06547963
  0
VERTEX
  8
0
 10
7.09423221
 20
2.11040074
  0
VERTEX
  8
0
 10
7.13397688
 20
2.15667931
  0
VERTEX
  8
0
 10
7.17126708
 20
2.20426786
  0
VERTEX
  8
0
 10
7.20608952
 20
2.25311894
  0
VERTEX
  8
0
 10
7.23843093
 20
2.30318505
  0
VERTEX
  8
0
 10
7.26827801
 20
2.35441874
  0
VERTEX
  8
0
 10
7.29561750
 20
2.40677252
  0
VERTEX
  8
0
 10
7.32043611
 20
2.46019893
  0
VERTEX
  8
0
 10
7.34272056
 20
2.51465049
  0
VERTEX
  8
0
 10
7.36245757
 20
2.57007972
  0
VERTEX
  8
0
 10
7.37963387
 20
2.62643917
  0
VERTEX
  8
0
 10
7.39423617
 20
2.68368134
  0
VERTEX
  8
0
 10
7.40625118
 20
2.74175878
  0
VERTEX
  8
0
 10
7.41566565
 20
2.80062400
  0
VERTEX
  8
0
 10
7.42246627
 20
2.86022953
  0
VERTEX
  8
0
 10
7.42663977
 20
2.92052791
  0
VERTEX
  8
0
 10
7.42817288
 20
2.98147165
  0
VERTEX
  8
0
 10
7.42705231
 20
3.04301329
  0
VERTEX
  8
0
 10
7.42326478
 20
3.10510534
  0
VERTEX
  8
0
 10
7.41679701
 20
3.16770035
  0
VERTEX
  8
0
 10
7.40763573
 20
3.23075083
  0
VERTEX
  8
0
 10
7.39576764
 20
3.29420932
  0
VERTEX
  8
0
 10
7.38117948
 20
3.35802833
  0
VERTEX
  8
0
 10
7.36385796
 20
3.42216041
  0
VERTEX
  8
0
 10
7.34378980
 20
3.48655806
  0
VERTEX
  8
0
 10
7.32096173
 20
3.55117383
  0
VERTEX
  8
0
 10
7.29536046
 20
3.61596023
  0
VERTEX
  8
0
 10
7.27134637
 20
3.67545992
  0
VERTEX
  8
0
 10
7.25415209
 20
3.72330332
  0
VERTEX
  8
0
 10
7.24810820
 20
3.74339388
  0
VERTEX
  8
0
 10
7.24376424
 20
3.76121835
  0
VERTEX
  8
0
 10
7.24111854
 20
3.77699271
  0
VERTEX
  8
0
 10
7.24016943
 20
3.79093295
  0
VERTEX
  8
0
 10
7.24091524
 20
3.80325507
  0
VERTEX
  8
0
 10
7.24335430
 20
3.81417506
  0
VERTEX
  8
0
 10
7.24748492
 20
3.82390890
  0
VERTEX
  8
0
 10
7.25330545
 20
3.83267260
  0
VERTEX
  8
0
 10
7.26081420
 20
3.84068214
  0
VERTEX
  8
0
 10
7.27000951
 20
3.84815352
  0
VERTEX
  8
0
 10
7.28088970
 20
3.85530273
  0
VERTEX
  8
0
 10
7.29345311
 20
3.86234575
  0
VERTEX
  8
0
 10
7.30437248
 20
3.86689929
  0
VERTEX
  8
0
 10
7.31674996
 20
3.86988809
  0
VERTEX
  8
0
 10
7.33047086
 20
3.87134985
  0
VERTEX
  8
0
 10
7.34542047
 20
3.87132227
  0
VERTEX
  8
0
 10
7.36148410
 20
3.86984304
  0
VERTEX
  8
0
 10
7.37854704
 20
3.86694984
  0
VERTEX
  8
0
 10
7.39649459
 20
3.86268038
  0
VERTEX
  8
0
 10
7.41521205
 20
3.85707234
  0
VERTEX
  8
0
 10
7.43458472
 20
3.85016341
  0
VERTEX
  8
0
 10
7.45449791
 20
3.84199129
  0
VERTEX
  8
0
 10
7.47483690
 20
3.83259367
  0
VERTEX
  8
0
 10
7.49548700
 20
3.82200824
  0
VERTEX
  8
0
 10
7.51633351
 20
3.81027270
  0
VERTEX
  8
0
 10
7.53726172
 20
3.79742474
  0
VERTEX
  8
0
 10
7.55815695
 20
3.78350204
  0
VERTEX
  8
0
 10
7.57890448
 20
3.76854230
  0
VERTEX
  8
0
 10
7.59869328
 20
3.75408277
  0
VERTEX
  8
0
 10
7.61393441
 20
3.74389166
  0
VERTEX
  8
0
 10
7.62482840
 20
3.73799382
  0
VERTEX
  8
0
 10
7.62870788
 20
3.73666264
  0
VERTEX
  8
0
 10
7.63157576
 20
3.73641410
  0
VERTEX
  8
0
 10
7.63345710
 20
3.73725130
  0
VERTEX
  8
0
 10
7.63437698
 20
3.73917736
  0
VERTEX
  8
0
 10
7.63436045
 20
3.74219536
  0
VERTEX
  8
0
 10
7.63343258
 20
3.74630843
  0
VERTEX
  8
0
 10
7.62894308
 20
3.75783218
  0
VERTEX
  8
0
 10
7.62110898
 20
3.77377345
  0
VERTEX
  8
0
 10
7.60634251
 20
3.79933876
  0
VERTEX
  8
0
 10
7.58777115
 20
3.82686373
  0
VERTEX
  8
0
 10
7.56587839
 20
3.85589880
  0
VERTEX
  8
0
 10
7.54114775
 20
3.88599441
  0
VERTEX
  8
0
 10
7.51406274
 20
3.91670100
  0
VERTEX
  8
0
 10
7.48510685
 20
3.94756902
  0
VERTEX
  8
0
 10
7.45476359
 20
3.97814890
  0
VERTEX
  8
0
 10
7.42351648
 20
4.00799109
  0
VERTEX
  8
0
 10
7.39184902
 20
4.03664604
  0
VERTEX
  8
0
 10
7.36024471
 20
4.06366417
  0
VERTEX
  8
0
 10
7.32918706
 20
4.08859595
  0
VERTEX
  8
0
 10
7.29915958
 20
4.11099179
  0
VERTEX
  8
0
 10
7.27064577
 20
4.13040216
  0
VERTEX
  8
0
 10
7.24412914
 20
4.14637749
  0
VERTEX
  8
0
 10
7.22009320
 20
4.15846822
  0
VERTEX
  8
0
 10
7.20915658
 20
4.16291637
  0
VERTEX
  8
0
 10
7.19902145
 20
4.16622480
  0
VERTEX
  8
0
 10
7.18322908
 20
4.17010091
  0
VERTEX
  8
0
 10
7.16729379
 20
4.17292877
  0
VERTEX
  8
0
 10
7.15121975
 20
4.17471126
  0
VERTEX
  8
0
 10
7.13501114
 20
4.17545124
  0
VERTEX
  8
0
 10
7.11867212
 20
4.17515156
  0
VERTEX
  8
0
 10
7.10220687
 20
4.17381511
  0
VERTEX
  8
0
 10
7.08561955
 20
4.17144474
  0
VERTEX
  8
0
 10
7.06891435
 20
4.16804331
  0
VERTEX
  8
0
 10
7.05209542
 20
4.16361371
  0
VERTEX
  8
0
 10
7.03516695
 20
4.15815879
  0
VERTEX
  8
0
 10
7.01813310
 20
4.15168141
  0
VERTEX
  8
0
 10
7.00099804
 20
4.14418445
  0
VERTEX
  8
0
 10
6.98376595
 20
4.13567076
  0
VERTEX
  8
0
 10
6.96644100
 20
4.12614322
  0
VERTEX
  8
0
 10
6.94902736
 20
4.11560470
  0
VERTEX
  8
0
 10
6.93152920
 20
4.10405805
  0
VERTEX
  8
0
 10
6.91395069
 20
4.09150614
  0
VERTEX
  8
0
 10
6.89629600
 20
4.07795184
  0
VERTEX
  8
0
 10
6.86077478
 20
4.04784753
  0
VERTEX
  8
0
 10
6.82499890
 20
4.01376804
  0
VERTEX
  8
0
 10
6.78900174
 20
3.97573631
  0
VERTEX
  8
0
 10
6.75281668
 20
3.93377525
  0
VERTEX
  8
0
 10
6.71647707
 20
3.88790780
  0
VERTEX
  8
0
 10
6.68001630
 20
3.83815688
  0
VERTEX
  8
0
 10
6.64346772
 20
3.78454542
  0
VERTEX
  8
0
 10
6.61289135
 20
3.73707102
  0
VERTEX
  8
0
 10
6.58239861
 20
3.68756838
  0
VERTEX
  8
0
 10
6.55187914
 20
3.63580650
  0
VERTEX
  8
0
 10
6.52122257
 20
3.58155438
  0
VERTEX
  8
0
 10
6.49031855
 20
3.52458100
  0
VERTEX
  8
0
 10
6.45905670
 20
3.46465538
  0
VERTEX
  8
0
 10
6.42732667
 20
3.40154650
  0
VERTEX
  8
0
 10
6.39501808
 20
3.33502336
  0
VERTEX
  8
0
 10
6.36202058
 20
3.26485496
  0
VERTEX
  8
0
 10
6.32822379
 20
3.19081029
  0
VERTEX
  8
0
 10
6.29351736
 20
3.11265836
  0
VERTEX
  8
0
 10
6.25779092
 20
3.03016815
  0
VERTEX
  8
0
 10
6.18283654
 20
2.85124892
  0
VERTEX
  8
0
 10
6.10247776
 20
2.65220456
  0
VERTEX
  8
0
 10
5.98541885
 20
2.35878854
  0
VERTEX
  8
0
 10
5.94628097
 20
2.26225918
  0
VERTEX
  8
0
 10
5.91712065
 20
2.19225731
  0
VERTEX
  8
0
 10
5.89572527
 20
2.14358923
  0
VERTEX
  8
0
 10
5.87988219
 20
2.11106124
  0
VERTEX
  8
0
 10
5.86737879
 20
2.08947963
  0
VERTEX
  8
0
 10
5.85600246
 20
2.07365070
  0
VERTEX
  8
0
 10
5.84325451
 20
2.05910969
  0
VERTEX
  8
0
 10
5.83116205
 20
2.04887521
  0
VERTEX
  8
0
 10
5.82531114
 20
2.04537549
  0
VERTEX
  8
0
 10
5.81956351
 20
2.04295548
  0
VERTEX
  8
0
 10
5.81389897
 20
2.04161620
  0
VERTEX
  8
0
 10
5.80829732
 20
2.04135870
  0
VERTEX
  8
0
 10
5.80273837
 20
2.04218399
  0
VERTEX
  8
0
 10
5.79720192
 20
2.04409309
  0
VERTEX
  8
0
 10
5.79166777
 20
2.04708705
  0
VERTEX
  8
0
 10
5.78611573
 20
2.05116688
  0
VERTEX
  8
0
 10
5.77487721
 20
2.06258828
  0
VERTEX
  8
0
 10
5.76332477
 20
2.07836550
  0
VERTEX
  8
0
 10
5.75562826
 20
2.09238093
  0
VERTEX
  8
0
 10
5.75246785
 20
2.10065754
  0
VERTEX
  8
0
 10
5.74973659
 20
2.11037577
  0
VERTEX
  8
0
 10
5.74741243
 20
2.12198238
  0
VERTEX
  8
0
 10
5.74547332
 20
2.13592413
  0
VERTEX
  8
0
 10
5.74266199
 20
2.17260011
  0
VERTEX
  8
0
 10
5.74112617
 20
2.22397781
  0
VERTEX
  8
0
 10
5.74068940
 20
2.29363133
  0
VERTEX
  8
0
 10
5.74240725
 20
2.50206221
  0
VERTEX
  8
0
 10
5.74318982
 20
2.65155428
  0
VERTEX
  8
0
 10
5.74195533
 20
2.77390706
  0
VERTEX
  8
0
 10
5.74066273
 20
2.82097559
  0
VERTEX
  8
0
 10
5.73896310
 20
2.85654257
  0
VERTEX
  8
0
 10
5.73688888
 20
2.87903573
  0
VERTEX
  8
0
 10
5.73572142
 20
2.88488831
  0
VERTEX
  8
0
 10
5.73447246
 20
2.88688284
  0
VERTEX
  8
0
 10
5.73107057
 20
2.88559198
  0
VERTEX
  8
0
 10
5.72723512
 20
2.88180183
  0
VERTEX
  8
0
 10
5.72300716
 20
2.87563599
  0
VERTEX
  8
0
 10
5.71842775
 20
2.86721807
  0
VERTEX
  8
0
 10
5.70837874
 20
2.84412049
  0
VERTEX
  8
0
 10
5.69741652
 20
2.81349800
  0
VERTEX
  8
0
 10
5.68586949
 20
2.77633952
  0
VERTEX
  8
0
 10
5.67406606
 20
2.73363396
  0
VERTEX
  8
0
 10
5.66233463
 20
2.68637026
  0
VERTEX
  8
0
 10
5.65100362
 20
2.63553731
  0
VERTEX
  8
0
 10
5.63428892
 20
2.55830880
  0
VERTEX
  8
0
 10
5.61957458
 20
2.49528653
  0
VERTEX
  8
0
 10
5.60640854
 20
2.44519042
  0
VERTEX
  8
0
 10
5.59433879
 20
2.40674042
  0
VERTEX
  8
0
 10
5.58857375
 20
2.39148268
  0
VERTEX
  8
0
 10
5.58291327
 20
2.37865643
  0
VERTEX
  8
0
 10
5.57730085
 20
2.36810168
  0
VERTEX
  8
0
 10
5.57167997
 20
2.35965840
  0
VERTEX
  8
0
 10
5.56599414
 20
2.35316659
  0
VERTEX
  8
0
 10
5.56018684
 20
2.34846624
  0
VERTEX
  8
0
 10
5.55420158
 20
2.34539733
  0
VERTEX
  8
0
 10
5.54798185
 20
2.34379987
  0
VERTEX
  8
0
 10
5.54053918
 20
2.34348298
  0
VERTEX
  8
0
 10
5.53366311
 20
2.34484006
  0
VERTEX
  8
0
 10
5.52732234
 20
2.34799112
  0
VERTEX
  8
0
 10
5.52148555
 20
2.35305617
  0
VERTEX
  8
0
 10
5.51612143
 20
2.36015523
  0
VERTEX
  8
0
 10
5.51119867
 20
2.36940831
  0
VERTEX
  8
0
 10
5.50668596
 20
2.38093540
  0
VERTEX
  8
0
 10
5.50255198
 20
2.39485654
  0
VERTEX
  8
0
 10
5.49876541
 20
2.41129171
  0
VERTEX
  8
0
 10
5.49529496
 20
2.43036095
  0
VERTEX
  8
0
 10
5.48917713
 20
2.47688163
  0
VERTEX
  8
0
 10
5.48394799
 20
2.53537866
  0
VERTEX
  8
0
 10
5.47935702
 20
2.60681213
  0
VERTEX
  8
0
 10
5.47423699
 20
2.68922289
  0
VERTEX
  8
0
 10
5.46835351
 20
2.76671021
  0
VERTEX
  8
0
 10
5.46177726
 20
2.83868300
  0
VERTEX
  8
0
 10
5.45457890
 20
2.90455015
  0
VERTEX
  8
0
 10
5.44682908
 20
2.96372058
  0
VERTEX
  8
0
 10
5.43859847
 20
3.01560318
  0
VERTEX
  8
0
 10
5.42995774
 20
3.05960687
  0
VERTEX
  8
0
 10
5.42097755
 20
3.09514054
  0
VERTEX
  8
0
 10
5.41244328
 20
3.12281278
  0
VERTEX
  8
0
 10
5.40422387
 20
3.14666049
  0
VERTEX
  8
0
 10
5.39639189
 20
3.16654416
  0
VERTEX
  8
0
 10
5.38901993
 20
3.18232426
  0
VERTEX
  8
0
 10
5.38218058
 20
3.19386129
  0
VERTEX
  8
0
 10
5.37594641
 20
3.20101572
  0
VERTEX
  8
0
 10
5.37307896
 20
3.20290587
  0
VERTEX
  8
0
 10
5.37039003
 20
3.20364804
  0
VERTEX
  8
0
 10
5.36788868
 20
3.20322481
  0
VERTEX
  8
0
 10
5.36558400
 20
3.20161873
  0
VERTEX
  8
0
 10
5.36265564
 20
3.19579145
  0
VERTEX
  8
0
 10
5.35963745
 20
3.18427595
  0
VERTEX
  8
0
 10
5.35655345
 20
3.16739549
  0
VERTEX
  8
0
 10
5.35342763
 20
3.14547331
  0
VERTEX
  8
0
 10
5.34714664
 20
3.08779674
  0
VERTEX
  8
0
 10
5.34098657
 20
3.01383215
  0
VERTEX
  8
0
 10
5.33513954
 20
2.92616547
  0
VERTEX
  8
0
 10
5.32979763
 20
2.82738263
  0
VERTEX
  8
0
 10
5.32515295
 20
2.72006954
  0
VERTEX
  8
0
 10
5.32139760
 20
2.60681213
  0
VERTEX
  8
0
 10
5.31745740
 20
2.48668779
  0
VERTEX
  8
0
 10
5.31271612
 20
2.37729576
  0
VERTEX
  8
0
 10
5.30721119
 20
2.27909428
  0
VERTEX
  8
0
 10
5.30098005
 20
2.19254165
  0
VERTEX
  8
0
 10
5.29406013
 20
2.11809613
  0
VERTEX
  8
0
 10
5.28648889
 20
2.05621597
  0
VERTEX
  8
0
 10
5.27830375
 20
2.00735947
  0
VERTEX
  8
0
 10
5.27399267
 20
1.98795829
  0
VERTEX
  8
0
 10
5.26954215
 20
1.97198487
  0
VERTEX
  8
0
 10
5.26490800
 20
1.95957055
  0
VERTEX
  8
0
 10
5.25896771
 20
1.94723041
  0
VERTEX
  8
0
 10
5.25184332
 20
1.93506473
  0
VERTEX
  8
0
 10
5.24365686
 20
1.92317378
  0
VERTEX
  8
0
 10
5.23453035
 20
1.91165786
  0
VERTEX
  8
0
 10
5.22458583
 20
1.90061722
  0
VERTEX
  8
0
 10
5.21394531
 20
1.89015216
  0
VERTEX
  8
0
 10
5.20273085
 20
1.88036294
  0
VERTEX
  8
0
 10
5.19106445
 20
1.87134985
  0
VERTEX
  8
0
 10
5.17906815
 20
1.86321316
  0
VERTEX
  8
0
 10
5.16686399
 20
1.85605314
  0
VERTEX
  8
0
 10
5.15457398
 20
1.84997009
  0
VERTEX
  8
0
 10
5.14232016
 20
1.84506426
  0
VERTEX
  8
0
 10
5.13022455
 20
1.84143595
  0
VERTEX
  8
0
 10
5.11840920
 20
1.83918543
  0
VERTEX
  8
0
 10
5.10699611
 20
1.83841297
  0
VERTEX
  8
0
 10
5.09163155
 20
1.83873737
  0
VERTEX
  8
0
 10
5.07753085
 20
1.84014769
  0
VERTEX
  8
0
 10
5.06423832
 20
1.84329964
  0
VERTEX
  8
0
 10
5.05129829
 20
1.84884890
  0
VERTEX
  8
0
 10
5.03825505
 20
1.85745118
  0
VERTEX
  8
0
 10
5.02465293
 20
1.86976217
  0
VERTEX
  8
0
 10
5.01003624
 20
1.88643756
  0
VERTEX
  8
0
 10
4.99394928
 20
1.90813305
  0
VERTEX
  8
0
 10
4.97593638
 20
1.93550433
  0
VERTEX
  8
0
 10
4.95554184
 20
1.96920711
  0
VERTEX
  8
0
 10
4.93230998
 20
2.00989707
  0
VERTEX
  8
0
 10
4.90578511
 20
2.05822991
  0
VERTEX
  8
0
 10
4.84103360
 20
2.18044703
  0
VERTEX
  8
0
 10
4.75764180
 20
2.34110402
  0
VERTEX
  8
0
 10
4.65138439
 20
2.54521557
  0
VERTEX
  8
0
 10
4.54788273
 20
2.74122187
  0
VERTEX
  8
0
 10
4.44677170
 20
2.92973431
  0
VERTEX
  8
0
 10
4.34768619
 20
3.11136429
  0
VERTEX
  8
0
 10
4.25026108
 20
3.28672321
  0
VERTEX
  8
0
 10
4.15413126
 20
3.45642247
  0
VERTEX
  8
0
 10
4.05893161
 20
3.62107346
  0
VERTEX
  8
0
 10
3.96429702
 20
3.78128759
  0
VERTEX
  8
0
 10
3.86986236
 20
3.93767625
  0
VERTEX
  8
0
 10
3.77526253
 20
4.09085084
  0
VERTEX
  8
0
 10
3.68013240
 20
4.24142277
  0
VERTEX
  8
0
 10
3.58410687
 20
4.39000342
  0
VERTEX
  8
0
 10
3.48682081
 20
4.53720420
  0
VERTEX
  8
0
 10
3.38790911
 20
4.68363650
  0
VERTEX
  8
0
 10
3.28700665
 20
4.82991173
  0
VERTEX
  8
0
 10
3.18374833
 20
4.97664129
  0
VERTEX
  8
0
 10
3.11595735
 20
5.07123714
  0
VERTEX
  8
0
 10
3.04617167
 20
5.16703304
  0
VERTEX
  8
0
 10
2.97464514
 20
5.26371117
  0
VERTEX
  8
0
 10
2.90163164
 20
5.36095372
  0
VERTEX
  8
0
 10
2.82738504
 20
5.45844287
  0
VERTEX
  8
0
 10
2.75215921
 20
5.55586079
  0
VERTEX
  8
0
 10
2.67620801
 20
5.65288968
  0
VERTEX
  8
0
 10
2.59978532
 20
5.74921170
  0
VERTEX
  8
0
 10
2.52314501
 20
5.84450904
  0
VERTEX
  8
0
 10
2.44654094
 20
5.93846389
  0
VERTEX
  8
0
 10
2.37022699
 20
6.03075842
  0
VERTEX
  8
0
 10
2.29445702
 20
6.12107482
  0
VERTEX
  8
0
 10
2.21948491
 20
6.20909527
  0
VERTEX
  8
0
 10
2.14556452
 20
6.29450194
  0
VERTEX
  8
0
 10
2.07294972
 20
6.37697702
  0
VERTEX
  8
0
 10
2.00189439
 20
6.45620270
  0
VERTEX
  8
0
 10
1.86722971
 20
6.60610676
  0
VERTEX
  8
0
 10
1.76294655
 20
6.72418951
  0
VERTEX
  8
0
 10
1.73438372
 20
6.75597931
  0
VERTEX
  8
0
 10
1.70609346
 20
6.78506016
  0
VERTEX
  8
0
 10
1.67803734
 20
6.81144870
  0
VERTEX
  8
0
 10
1.65017691
 20
6.83516156
  0
VERTEX
  8
0
 10
1.62247373
 20
6.85621536
  0
VERTEX
  8
0
 10
1.59488936
 20
6.87462675
  0
VERTEX
  8
0
 10
1.56738535
 20
6.89041234
  0
VERTEX
  8
0
 10
1.53992326
 20
6.90358878
  0
VERTEX
  8
0
 10
1.51246465
 20
6.91417269
  0
VERTEX
  8
0
 10
1.48497108
 20
6.92218071
  0
VERTEX
  8
0
 10
1.45740411
 20
6.92762946
  0
VERTEX
  8
0
 10
1.42972528
 20
6.93053558
  0
VERTEX
  8
0
 10
1.40189616
 20
6.93091569
  0
VERTEX
  8
0
 10
1.37387832
 20
6.92878644
  0
VERTEX
  8
0
 10
1.34563329
 20
6.92416445
  0
VERTEX
  8
0
 10
1.31712265
 20
6.91706635
  0
VERTEX
  8
0
 10
1.29662920
 20
6.91044159
  0
VERTEX
  8
0
 10
1.27601436
 20
6.90245597
  0
VERTEX
  8
0
 10
1.25529197
 20
6.89312664
  0
VERTEX
  8
0
 10
1.23447587
 20
6.88247075
  0
VERTEX
  8
0
 10
1.21357991
 20
6.87050544
  0
VERTEX
  8
0
 10
1.19261791
 20
6.85724785
  0
VERTEX
  8
0
 10
1.17160372
 20
6.84271512
  0
VERTEX
  8
0
 10
1.15055118
 20
6.82692441
  0
VERTEX
  8
0
 10
1.12947413
 20
6.80989285
  0
VERTEX
  8
0
 10
1.10838640
 20
6.79163759
  0
VERTEX
  8
0
 10
1.08730184
 20
6.77217577
  0
VERTEX
  8
0
 10
1.06623428
 20
6.75152454
  0
VERTEX
  8
0
 10
1.04519757
 20
6.72970105
  0
VERTEX
  8
0
 10
1.02420554
 20
6.70672242
  0
VERTEX
  8
0
 10
1.00327204
 20
6.68260582
  0
VERTEX
  8
0
 10
0.98241090
 20
6.65736838
  0
VERTEX
  8
0
 10
0.94096106
 20
6.60359958
  0
VERTEX
  8
0
 10
0.89996675
 20
6.54555315
  0
VERTEX
  8
0
 10
0.85953867
 20
6.48336627
  0
VERTEX
  8
0
 10
0.81978755
 20
6.41717608
  0
VERTEX
  8
0
 10
0.78082409
 20
6.34711974
  0
VERTEX
  8
0
 10
0.74275901
 20
6.27333439
  0
VERTEX
  8
0
 10
0.70570303
 20
6.19595720
  0
VERTEX
  8
0
 10
0.66976686
 20
6.11512531
  0
VERTEX
  8
0
 10
0.64290454
 20
6.05096449
  0
VERTEX
  8
0
 10
0.61859810
 20
5.98963463
  0
VERTEX
  8
0
 10
0.59629290
 20
5.92945621
  0
VERTEX
  8
0
 10
0.57543426
 20
5.86874968
  0
VERTEX
  8
0
 10
0.55546751
 20
5.80583551
  0
VERTEX
  8
0
 10
0.53583799
 20
5.73903417
  0
VERTEX
  8
0
 10
0.51599104
 20
5.66666611
  0
VERTEX
  8
0
 10
0.49537199
 20
5.58705181
  0
VERTEX
  8
0
 10
0.46753948
 20
5.47372410
  0
VERTEX
  8
0
 10
0.44532090
 20
5.37451948
  0
VERTEX
  8
0
 10
0.43612787
 20
5.32873785
  0
VERTEX
  8
0
 10
0.42811155
 20
5.28471643
  0
VERTEX
  8
0
 10
0.42119635
 20
5.24186501
  0
VERTEX
  8
0
 10
0.41530669
 20
5.19959342
  0
VERTEX
  8
0
 10
0.41036697
 20
5.15731145
  0
VERTEX
  8
0
 10
0.40630161
 20
5.11442893
  0
VERTEX
  8
0
 10
0.40303501
 20
5.07035565
  0
VERTEX
  8
0
 10
0.40049159
 20
5.02450144
  0
VERTEX
  8
0
 10
0.39727191
 20
4.92508942
  0
VERTEX
  8
0
 10
0.39603785
 20
4.81147135
  0
VERTEX
  8
0
 10
0.39610413
 20
4.69048291
  0
VERTEX
  8
0
 10
0.39756399
 20
4.59887867
  0
VERTEX
  8
0
 10
0.39894523
 20
4.56362325
  0
VERTEX
  8
0
 10
0.40082933
 20
4.53514701
  0
VERTEX
  8
0
 10
0.40326776
 20
4.51326100
  0
VERTEX
  8
0
 10
0.40631201
 20
4.49777627
  0
VERTEX
  8
0
 10
0.41001357
 20
4.48850386
  0
VERTEX
  8
0
 10
0.41212694
 20
4.48613823
  0
VERTEX
  8
0
 10
0.41442393
 20
4.48525482
  0
VERTEX
  8
0
 10
0.41691100
 20
4.48583001
  0
VERTEX
  8
0
 10
0.41959458
 20
4.48784018
  0
VERTEX
  8
0
 10
0.42557698
 20
4.49607101
  0
VERTEX
  8
0
 10
0.43242265
 20
4.50975833
  0
VERTEX
  8
0
 10
0.44018305
 20
4.52871320
  0
VERTEX
  8
0
 10
0.45865401
 20
4.58166976
  0
VERTEX
  8
0
 10
0.47608528
 20
4.63343147
  0
VERTEX
  8
0
 10
0.49432493
 20
4.68495797
  0
VERTEX
  8
0
 10
0.51333012
 20
4.73618047
  0
VERTEX
  8
0
 10
0.53305802
 20
4.78703018
  0
VERTEX
  8
0
 10
0.55346579
 20
4.83743831
  0
VERTEX
  8
0
 10
0.57451061
 20
4.88733607
  0
VERTEX
  8
0
 10
0.59614963
 20
4.93665467
  0
VERTEX
  8
0
 10
0.61834002
 20
4.98532532
  0
VERTEX
  8
0
 10
0.64103895
 20
5.03327924
  0
VERTEX
  8
0
 10
0.66420358
 20
5.08044762
  0
VERTEX
  8
0
 10
0.68779108
 20
5.12676169
  0
VERTEX
  8
0
 10
0.71175861
 20
5.17215265
  0
VERTEX
  8
0
 10
0.73606334
 20
5.21655172
  0
VERTEX
  8
0
 10
0.76066244
 20
5.25989010
  0
VERTEX
  8
0
 10
0.78551307
 20
5.30209900
  0
VERTEX
  8
0
 10
0.81057239
 20
5.34310963
  0
VERTEX
  8
0
 10
0.83579757
 20
5.38285321
  0
VERTEX
  8
0
 10
0.86114579
 20
5.42126095
  0
VERTEX
  8
0
 10
0.88657419
 20
5.45826404
  0
VERTEX
  8
0
 10
0.91203995
 20
5.49379372
  0
VERTEX
  8
0
 10
0.93750024
 20
5.52778118
  0
VERTEX
  8
0
 10
0.96291222
 20
5.56015763
  0
VERTEX
  8
0
 10
0.98823305
 20
5.59085429
  0
VERTEX
  8
0
 10
1.01341990
 20
5.61980237
  0
VERTEX
  8
0
 10
1.03842994
 20
5.64693307
  0
VERTEX
  8
0
 10
1.06322032
 20
5.67217761
  0
VERTEX
  8
0
 10
1.08774823
 20
5.69546720
  0
VERTEX
  8
0
 10
1.11197082
 20
5.71673304
  0
VERTEX
  8
0
 10
1.13584526
 20
5.73590636
  0
VERTEX
  8
0
 10
1.15932871
 20
5.75291835
  0
VERTEX
  8
0
 10
1.18237834
 20
5.76770023
  0
VERTEX
  8
0
 10
1.20495132
 20
5.78018321
  0
VERTEX
  8
0
 10
1.22733506
 20
5.79056022
  0
VERTEX
  8
0
 10
1.24994137
 20
5.79915961
  0
VERTEX
  8
0
 10
1.27267266
 20
5.80599338
  0
VERTEX
  8
0
 10
1.29543134
 20
5.81107351
  0
VERTEX
  8
0
 10
1.31811982
 20
5.81441199
  0
VERTEX
  8
0
 10
1.34064050
 20
5.81602081
  0
VERTEX
  8
0
 10
1.36289579
 20
5.81591196
  0
VERTEX
  8
0
 10
1.38478810
 20
5.81409743
  0
VERTEX
  8
0
 10
1.40621984
 20
5.81058921
  0
VERTEX
  8
0
 10
1.42709341
 20
5.80539930
  0
VERTEX
  8
0
 10
1.44731123
 20
5.79853967
  0
VERTEX
  8
0
 10
1.46677570
 20
5.79002232
  0
VERTEX
  8
0
 10
1.48538922
 20
5.77985924
  0
VERTEX
  8
0
 10
1.50305422
 20
5.76806242
  0
VERTEX
  8
0
 10
1.51967309
 20
5.75464385
  0
VERTEX
  8
0
 10
1.53514824
 20
5.73961551
  0
VERTEX
  8
0
 10
1.56571013
 20
5.70708393
  0
VERTEX
  8
0
 10
1.51736302
 20
5.60757065
  0
VERTEX
  8
0
 10
1.48953479
 20
5.54948579
  0
VERTEX
  8
0
 10
1.46333967
 20
5.49306621
  0
VERTEX
  8
0
 10
1.43836290
 20
5.43733173
  0
VERTEX
  8
0
 10
1.41418974
 20
5.38130218
  0
VERTEX
  8
0
 10
1.39040540
 20
5.32399739
  0
VERTEX
  8
0
 10
1.36659514
 20
5.26443719
  0
VERTEX
  8
0
 10
1.31723781
 20
5.13462988
  0
VERTEX
  8
0
 10
1.27413782
 20
5.01553926
  0
VERTEX
  8
0
 10
1.23458846
 20
4.90091948
  0
VERTEX
  8
0
 10
1.19851054
 20
4.79035927
  0
VERTEX
  8
0
 10
1.16582489
 20
4.68344733
  0
VERTEX
  8
0
 10
1.13645235
 20
4.57977239
  0
VERTEX
  8
0
 10
1.11031373
 20
4.47892316
  0
VERTEX
  8
0
 10
1.08732987
 20
4.38048837
  0
VERTEX
  8
0
 10
1.06742160
 20
4.28405671
  0
VERTEX
  8
0
 10
1.05050973
 20
4.18921693
  0
VERTEX
  8
0
 10
1.03651510
 20
4.09555772
  0
VERTEX
  8
0
 10
1.02535854
 20
4.00266782
  0
VERTEX
  8
0
 10
1.01696087
 20
3.91013594
  0
VERTEX
  8
0
 10
1.01124291
 20
3.81755078
  0
VERTEX
  8
0
 10
1.00812550
 20
3.72450109
  0
VERTEX
  8
0
 10
1.00752947
 20
3.63057556
  0
VERTEX
  8
0
 10
1.00937563
 20
3.53536292
  0
VERTEX
  8
0
 10
1.01180670
 20
3.47179334
  0
VERTEX
  8
0
 10
1.01501330
 20
3.41131581
  0
VERTEX
  8
0
 10
1.01906442
 20
3.35359261
  0
VERTEX
  8
0
 10
1.02402903
 20
3.29828600
  0
VERTEX
  8
0
 10
1.02997611
 20
3.24505827
  0
VERTEX
  8
0
 10
1.03697466
 20
3.19357168
  0
VERTEX
  8
0
 10
1.04509364
 20
3.14348851
  0
VERTEX
  8
0
 10
1.05440205
 20
3.09447103
  0
VERTEX
  8
0
 10
1.06496886
 20
3.04618152
  0
VERTEX
  8
0
 10
1.07686305
 20
2.99828225
  0
VERTEX
  8
0
 10
1.09015361
 20
2.95043550
  0
VERTEX
  8
0
 10
1.10490952
 20
2.90230353
  0
VERTEX
  8
0
 10
1.12119976
 20
2.85354863
  0
VERTEX
  8
0
 10
1.13909332
 20
2.80383306
  0
VERTEX
  8
0
 10
1.15865916
 20
2.75281910
  0
VERTEX
  8
0
 10
1.17996628
 20
2.70016902
  0
VERTEX
  8
0
 10
1.19731545
 20
2.65964845
  0
VERTEX
  8
0
 10
1.21560236
 20
2.61955795
  0
VERTEX
  8
0
 10
1.23481973
 20
2.57990171
  0
VERTEX
  8
0
 10
1.25496030
 20
2.54068391
  0
VERTEX
  8
0
 10
1.27601679
 20
2.50190873
  0
VERTEX
  8
0
 10
1.29798194
 20
2.46358034
  0
VERTEX
  8
0
 10
1.32084847
 20
2.42570294
  0
VERTEX
  8
0
 10
1.34460912
 20
2.38828071
  0
VERTEX
  8
0
 10
1.36925662
 20
2.35131783
  0
VERTEX
  8
0
 10
1.39478369
 20
2.31481847
  0
VERTEX
  8
0
 10
1.42118307
 20
2.27878683
  0
VERTEX
  8
0
 10
1.44844749
 20
2.24322708
  0
VERTEX
  8
0
 10
1.47656968
 20
2.20814340
  0
VERTEX
  8
0
 10
1.50554236
 20
2.17353999
  0
VERTEX
  8
0
 10
1.53535827
 20
2.13942101
  0
VERTEX
  8
0
 10
1.56601014
 20
2.10579065
  0
VERTEX
  8
0
 10
1.59749070
 20
2.07265310
  0
VERTEX
  8
0
 10
1.62979268
 20
2.04001254
  0
VERTEX
  8
0
 10
1.66290882
 20
2.00787314
  0
VERTEX
  8
0
 10
1.69683183
 20
1.97623910
  0
VERTEX
  8
0
 10
1.73155445
 20
1.94511458
  0
VERTEX
  8
0
 10
1.76706941
 20
1.91450378
  0
VERTEX
  8
0
 10
1.80336944
 20
1.88441088
  0
VERTEX
  8
0
 10
1.84044728
 20
1.85484005
  0
VERTEX
  8
0
 10
1.87829565
 20
1.82579549
  0
VERTEX
  8
0
 10
1.91690727
 20
1.79728136
  0
VERTEX
  8
0
 10
1.95627490
 20
1.76930186
  0
VERTEX
  8
0
 10
1.99639124
 20
1.74186117
  0
VERTEX
  8
0
 10
2.03724904
 20
1.71496347
  0
VERTEX
  8
0
 10
2.07884102
 20
1.68861293
  0
VERTEX
  8
0
 10
2.12115992
 20
1.66281375
  0
VERTEX
  8
0
 10
2.16419846
 20
1.63757010
  0
VERTEX
  8
0
 10
2.20794937
 20
1.61288617
  0
VERTEX
  8
0
 10
2.25240539
 20
1.58876614
  0
VERTEX
  8
0
 10
2.29755925
 20
1.56521419
  0
VERTEX
  8
0
 10
2.34340367
 20
1.54223450
  0
VERTEX
  8
0
 10
2.38993139
 20
1.51983126
  0
VERTEX
  8
0
 10
2.43713513
 20
1.49800864
  0
VERTEX
  8
0
 10
2.48500763
 20
1.47677083
  0
VERTEX
  8
0
 10
2.53354162
 20
1.45612201
  0
VERTEX
  8
0
 10
2.58272982
 20
1.43606637
  0
VERTEX
  8
0
 10
2.63256498
 20
1.41660808
  0
VERTEX
  8
0
 10
2.68303981
 20
1.39775133
  0
VERTEX
  8
0
 10
2.73414705
 20
1.37950029
  0
VERTEX
  8
0
 10
2.78587942
 20
1.36185916
  0
VERTEX
  8
0
 10
2.83822967
 20
1.34483211
  0
VERTEX
  8
0
 10
2.89119052
 20
1.32842332
  0
VERTEX
  8
0
 10
2.94475469
 20
1.31263698
  0
VERTEX
  8
0
 10
2.99891493
 20
1.29747727
  0
VERTEX
  8
0
 10
3.05366395
 20
1.28294838
  0
VERTEX
  8
0
 10
3.10899450
 20
1.26905447
  0
VERTEX
  8
0
 10
3.16489930
 20
1.25579974
  0
VERTEX
  8
0
 10
3.22137108
 20
1.24318837
  0
VERTEX
  8
0
 10
3.27840257
 20
1.23122454
  0
VERTEX
  8
0
 10
3.39411561
 20
1.20925622
  0
VERTEX
  8
0
 10
3.51198026
 20
1.18992824
  0
VERTEX
  8
0
 10
3.63193836
 20
1.17327406
  0
VERTEX
  8
0
 10
3.75393176
 20
1.15932713
  0
VERTEX
  8
0
 10
3.87790230
 20
1.14812091
  0
VERTEX
  8
0
 10
3.94984810
 20
1.14340051
  0
VERTEX
  8
0
 10
4.02510587
 20
1.14020906
  0
VERTEX
  8
0
 10
4.10281769
 20
1.13848676
  0
VERTEX
  8
0
 10
4.18212565
 20
1.13817380
  0
VERTEX
  8
0
 10
4.26217184
 20
1.13921039
  0
VERTEX
  8
0
 10
4.34209832
 20
1.14153672
  0
VERTEX
  8
0
 10
4.42104719
 20
1.14509298
  0
VERTEX
  8
0
 10
4.49816053
 20
1.14981937
  0
VERTEX
  8
0
 10
4.57258042
 20
1.15565609
  0
VERTEX
  8
0
 10
4.64344895
 20
1.16254333
  0
VERTEX
  8
0
 10
4.70990819
 20
1.17042128
  0
VERTEX
  8
0
 10
4.77110023
 20
1.17923015
  0
VERTEX
  8
0
 10
4.82616715
 20
1.18891013
  0
VERTEX
  8
0
 10
4.87425103
 20
1.19940141
  0
VERTEX
  8
0
 10
4.91449397
 20
1.21064419
  0
VERTEX
  8
0
 10
4.93140697
 20
1.21652871
  0
VERTEX
  8
0
 10
4.94603803
 20
1.22257867
  0
VERTEX
  8
0
 10
4.96144208
 20
1.22859889
  0
VERTEX
  8
0
 10
4.97536239
 20
1.23222317
  0
VERTEX
  8
0
 10
4.98626999
 20
1.23317000
  0
VERTEX
  8
0
 10
4.99011622
 20
1.23255141
  0
VERTEX
  8
0
 10
4.99263591
 20
1.23115790
  0
VERTEX
  8
0
 10
4.99375156
 20
1.22910682
  0
VERTEX
  8
0
 10
4.99424445
 20
1.22586810
  0
VERTEX
  8
0
 10
4.99346866
 20
1.21608349
  0
VERTEX
  8
0
 10
4.99052201
 20
1.20231568
  0
VERTEX
  8
0
 10
4.98561798
 20
1.18507625
  0
VERTEX
  8
0
 10
4.97079170
 20
1.14222895
  0
VERTEX
  8
0
 10
4.95069759
 20
1.09163437
  0
VERTEX
  8
0
 10
4.92704347
 20
1.03738530
  0
VERTEX
  8
0
 10
4.90153713
 20
0.98357451
  0
VERTEX
  8
0
 10
4.87588637
 20
0.93429479
  0
VERTEX
  8
0
 10
4.86354052
 20
0.91263307
  0
VERTEX
  8
0
 10
4.85179900
 20
0.89363892
  0
VERTEX
  8
0
 10
4.82385715
 20
0.85302675
  0
VERTEX
  8
0
 10
4.79298205
 20
0.81257236
  0
VERTEX
  8
0
 10
4.75942356
 20
0.77253773
  0
VERTEX
  8
0
 10
4.72343157
 20
0.73318483
  0
VERTEX
  8
0
 10
4.68525593
 20
0.69477565
  0
VERTEX
  8
0
 10
4.64514652
 20
0.65757215
  0
VERTEX
  8
0
 10
4.60335322
 20
0.62183632
  0
VERTEX
  8
0
 10
4.56012588
 20
0.58783014
  0
VERTEX
  8
0
 10
4.51789350
 20
0.55715558
  0
VERTEX
  8
0
 10
4.46496088
 20
0.52041618
  0
VERTEX
  8
0
 10
4.40580587
 20
0.48052856
  0
VERTEX
  8
0
 10
4.34490634
 20
0.44040938
  0
VERTEX
  8
0
 10
4.28674014
 20
0.40297528
  0
VERTEX
  8
0
 10
4.23578513
 20
0.37114290
  0
VERTEX
  8
0
 10
4.19651918
 20
0.34782889
  0
VERTEX
  8
0
 10
4.18266893
 20
0.34027773
  0
VERTEX
  8
0
 10
4.17342014
 20
0.33594990
  0
VERTEX
  8
0
 10
4.16463395
 20
0.33147620
  0
VERTEX
  8
0
 10
4.15743882
 20
0.32571442
  0
VERTEX
  8
0
 10
4.15257724
 20
0.31940777
  0
VERTEX
  8
0
 10
4.15125357
 20
0.31628238
  0
VERTEX
  8
0
 10
4.15079172
 20
0.31329949
  0
VERTEX
  8
0
 10
4.15146364
 20
0.31067886
  0
VERTEX
  8
0
 10
4.15346480
 20
0.30865143
  0
VERTEX
  8
0
 10
4.15677330
 20
0.30721342
  0
VERTEX
  8
0
 10
4.16136721
 20
0.30636107
  0
VERTEX
  8
0
 10
4.17432362
 20
0.30639828
  0
VERTEX
  8
0
 10
4.19215874
 20
0.30873294
  0
VERTEX
  8
0
 10
4.21469728
 20
0.31333493
  0
VERTEX
  8
0
 10
4.24176393
 20
0.32017412
  0
VERTEX
  8
0
 10
4.27318338
 20
0.32922040
  0
VERTEX
  8
0
 10
4.30878036
 20
0.34044363
  0
SEQEND
  0
POLYLINE
  8
0
 66
   1
 70
    1
  0
VERTEX
  8
0
 10
4.47725882
 20
1.45283212
  0
VERTEX
  8
0
 10
4.38263838
 20
1.45746678
  0
VERTEX
  8
0
 10
4.28820840
 20
1.46372161
  0
VERTEX
  8
0
 10
4.19416135
 20
1.47156195
  0
VERTEX
  8
0
 10
4.10068968
 20
1.48095313
  0
VERTEX
  8
0
 10
4.00798589
 20
1.49186049
  0
VERTEX
  8
0
 10
3.91624242
 20
1.50424936
  0
VERTEX
  8
0
 10
3.82565174
 20
1.51808506
  0
VERTEX
  8
0
 10
3.73640634
 20
1.53333294
  0
VERTEX
  8
0
 10
3.64869867
 20
1.54995832
  0
VERTEX
  8
0
 10
3.56272120
 20
1.56792653
  0
VERTEX
  8
0
 10
3.47866640
 20
1.58720291
  0
VERTEX
  8
0
 10
3.39672674
 20
1.60775279
  0
VERTEX
  8
0
 10
3.31709468
 20
1.62954151
  0
VERTEX
  8
0
 10
3.23996270
 20
1.65253439
  0
VERTEX
  8
0
 10
3.16552326
 20
1.67669676
  0
VERTEX
  8
0
 10
3.09396883
 20
1.70199396
  0
VERTEX
  8
0
 10
3.03029173
 20
1.72628229
  0
VERTEX
  8
0
 10
2.96814434
 20
1.75158002
  0
VERTEX
  8
0
 10
2.90752442
 20
1.77788938
  0
VERTEX
  8
0
 10
2.84842974
 20
1.80521260
  0
VERTEX
  8
0
 10
2.79085808
 20
1.83355190
  0
VERTEX
  8
0
 10
2.73480720
 20
1.86290951
  0
VERTEX
  8
0
 10
2.68027487
 20
1.89328767
  0
VERTEX
  8
0
 10
2.62725886
 20
1.92468860
  0
VERTEX
  8
0
 10
2.57575694
 20
1.95711453
  0
VERTEX
  8
0
 10
2.52576688
 20
1.99056769
  0
VERTEX
  8
0
 10
2.47728645
 20
2.02505031
  0
VERTEX
  8
0
 10
2.43031342
 20
2.06056462
  0
VERTEX
  8
0
 10
2.38484556
 20
2.09711284
  0
VERTEX
  8
0
 10
2.34088063
 20
2.13469722
  0
VERTEX
  8
0
 10
2.29841641
 20
2.17331997
  0
VERTEX
  8
0
 10
2.25745066
 20
2.21298332
  0
VERTEX
  8
0
 10
2.21798116
 20
2.25368950
  0
VERTEX
  8
0
 10
2.18000567
 20
2.29544075
  0
VERTEX
  8
0
 10
2.14352196
 20
2.33823929
  0
VERTEX
  8
0
 10
2.10852781
 20
2.38208735
  0
VERTEX
  8
0
 10
2.07502097
 20
2.42698716
  0
VERTEX
  8
0
 10
2.04299923
 20
2.47294095
  0
VERTEX
  8
0
 10
2.01246034
 20
2.51995094
  0
VERTEX
  8
0
 10
1.98340209
 20
2.56801937
  0
VERTEX
  8
0
 10
1.95582223
 20
2.61714847
  0
VERTEX
  8
0
 10
1.92971854
 20
2.66734046
  0
VERTEX
  8
0
 10
1.90508879
 20
2.71859757
  0
VERTEX
  8
0
 10
1.88193074
 20
2.77092204
  0
VERTEX
  8
0
 10
1.86024217
 20
2.82431608
  0
VERTEX
  8
0
 10
1.84002084
 20
2.87878194
  0
VERTEX
  8
0
 10
1.82126452
 20
2.93432184
  0
VERTEX
  8
0
 10
1.80397099
 20
2.99093800
  0
VERTEX
  8
0
 10
1.79237383
 20
3.03299274
  0
VERTEX
  8
0
 10
1.78167784
 20
3.07599178
  0
VERTEX
  8
0
 10
1.77188211
 20
3.11991324
  0
VERTEX
  8
0
 10
1.76298571
 20
3.16473524
  0
VERTEX
  8
0
 10
1.75498774
 20
3.21043593
  0
VERTEX
  8
0
 10
1.74788727
 20
3.25699342
  0
VERTEX
  8
0
 10
1.74168341
 20
3.30438584
  0
VERTEX
  8
0
 10
1.73637522
 20
3.35259131
  0
VERTEX
  8
0
 10
1.73196180
 20
3.40158798
  0
VERTEX
  8
0
 10
1.72844223
 20
3.45135395
  0
VERTEX
  8
0
 10
1.72581559
 20
3.50186736
  0
VERTEX
  8
0
 10
1.72408098
 20
3.55310634
  0
VERTEX
  8
0
 10
1.72323747
 20
3.60504902
  0
VERTEX
  8
0
 10
1.72328415
 20
3.65767351
  0
VERTEX
  8
0
 10
1.72422011
 20
3.71095795
  0
VERTEX
  8
0
 10
1.72604444
 20
3.76488047
  0
VERTEX
  8
0
 10
1.72875621
 20
3.81941919
  0
VERTEX
  8
0
 10
1.73235451
 20
3.87455223
  0
VERTEX
  8
0
 10
1.73683843
 20
3.93025774
  0
VERTEX
  8
0
 10
1.74220706
 20
3.98651382
  0
VERTEX
  8
0
 10
1.74845947
 20
4.04329862
  0
VERTEX
  8
0
 10
1.75559476
 20
4.10059025
  0
VERTEX
  8
0
 10
1.76361200
 20
4.15836685
  0
VERTEX
  8
0
 10
1.77251029
 20
4.21660654
  0
VERTEX
  8
0
 10
1.78228871
 20
4.27528744
  0
VERTEX
  8
0
 10
1.79294635
 20
4.33438769
  0
VERTEX
  8
0
 10
1.80448228
 20
4.39388542
  0
VERTEX
  8
0
 10
1.81689561
 20
4.45375874
  0
VERTEX
  8
0
 10
1.83018540
 20
4.51398580
  0
VERTEX
  8
0
 10
1.84435074
 20
4.57454470
  0
VERTEX
  8
0
 10
1.85939073
 20
4.63541359
  0
VERTEX
  8
0
 10
1.87530444
 20
4.69657058
  0
VERTEX
  8
0
 10
1.90125941
 20
4.79018401
  0
VERTEX
  8
0
 10
1.92997945
 20
4.88762292
  0
VERTEX
  8
0
 10
1.95978998
 20
4.98385865
  0
VERTEX
  8
0
 10
1.98901641
 20
5.07386252
  0
VERTEX
  8
0
 10
2.01598416
 20
5.15260588
  0
VERTEX
  8
0
 10
2.03901864
 20
5.21506006
  0
VERTEX
  8
0
 10
2.04853760
 20
5.23860725
  0
VERTEX
  8
0
 10
2.05644527
 20
5.25619640
  0
VERTEX
  8
0
 10
2.06253233
 20
5.26719892
  0
VERTEX
  8
0
 10
2.06482772
 20
5.27003377
  0
VERTEX
  8
0
 10
2.06658946
 20
5.27098624
  0
VERTEX
  8
0
 10
2.07109702
 20
5.26962616
  0
VERTEX
  8
0
 10
2.07771477
 20
5.26569050
  0
VERTEX
  8
0
 10
2.09686965
 20
5.25054849
  0
VERTEX
  8
0
 10
2.12323173
 20
5.22647242
  0
VERTEX
  8
0
 10
2.15597866
 20
5.19437450
  0
VERTEX
  8
0
 10
2.19428808
 20
5.15516695
  0
VERTEX
  8
0
 10
2.23733764
 20
5.10976197
  0
VERTEX
  8
0
 10
2.33436773
 20
5.00400858
  0
VERTEX
  8
0
 10
2.44049008
 20
4.88441203
  0
VERTEX
  8
0
 10
2.54912584
 20
4.75827001
  0
VERTEX
  8
0
 10
2.65369616
 20
4.63288021
  0
VERTEX
  8
0
 10
2.70240089
 20
4.57274793
  0
VERTEX
  8
0
 10
2.74762218
 20
4.51554033
  0
VERTEX
  8
0
 10
2.75581729
 20
4.50414613
  0
VERTEX
  8
0
 10
2.75883342
 20
4.49853534
  0
VERTEX
  8
0
 10
2.76104533
 20
4.49251763
  0
VERTEX
  8
0
 10
2.76239059
 20
4.48574466
  0
VERTEX
  8
0
 10
2.76280673
 20
4.47786807
  0
VERTEX
  8
0
 10
2.76223132
 20
4.46853953
  0
VERTEX
  8
0
 10
2.76060190
 20
4.45741069
  0
VERTEX
  8
0
 10
2.75393127
 20
4.42835873
  0
VERTEX
  8
0
 10
2.74229526
 20
4.38792544
  0
VERTEX
  8
0
 10
2.70212879
 20
4.26176781
  0
VERTEX
  8
0
 10
2.68072252
 20
4.19376138
  0
VERTEX
  8
0
 10
2.66080311
 20
4.12656586
  0
VERTEX
  8
0
 10
2.64237036
 20
4.06018877
  0
VERTEX
  8
0
 10
2.62542404
 20
3.99463764
  0
VERTEX
  8
0
 10
2.60996391
 20
3.92991998
  0
VERTEX
  8
0
 10
2.59598977
 20
3.86604331
  0
VERTEX
  8
0
 10
2.58350139
 20
3.80301515
  0
VERTEX
  8
0
 10
2.57249855
 20
3.74084302
  0
VERTEX
  8
0
 10
2.56298102
 20
3.67953444
  0
VERTEX
  8
0
 10
2.55494858
 20
3.61909693
  0
VERTEX
  8
0
 10
2.54840101
 20
3.55953800
  0
VERTEX
  8
0
 10
2.54333809
 20
3.50086518
  0
VERTEX
  8
0
 10
2.53975960
 20
3.44308599
  0
VERTEX
  8
0
 10
2.53766530
 20
3.38620794
  0
VERTEX
  8
0
 10
2.53705499
 20
3.33023855
  0
VERTEX
  8
0
 10
2.53792843
 20
3.27518535
  0
VERTEX
  8
0
 10
2.54028541
 20
3.22105584
  0
VERTEX
  8
0
 10
2.54412570
 20
3.16785756
  0
VERTEX
  8
0
 10
2.54944908
 20
3.11559802
  0
VERTEX
  8
0
 10
2.55625533
 20
3.06428474
  0
VERTEX
  8
0
 10
2.56454422
 20
3.01392523
  0
VERTEX
  8
0
 10
2.57431554
 20
2.96452703
  0
VERTEX
  8
0
 10
2.58556906
 20
2.91609764
  0
VERTEX
  8
0
 10
2.59830455
 20
2.86864458
  0
VERTEX
  8
0
 10
2.61252180
 20
2.82217538
  0
VERTEX
  8
0
 10
2.62822059
 20
2.77669756
  0
VERTEX
  8
0
 10
2.64540068
 20
2.73221862
  0
VERTEX
  8
0
 10
2.66406187
 20
2.68874611
  0
VERTEX
  8
0
 10
2.68420391
 20
2.64628752
  0
VERTEX
  8
0
 10
2.70582661
 20
2.60485038
  0
VERTEX
  8
0
 10
2.72892972
 20
2.56444221
  0
VERTEX
  8
0
 10
2.75351303
 20
2.52507053
  0
VERTEX
  8
0
 10
2.76758471
 20
2.50442710
  0
VERTEX
  8
0
 10
2.78358951
 20
2.48258177
  0
VERTEX
  8
0
 10
2.81917440
 20
2.43793781
  0
VERTEX
  8
0
 10
2.85581950
 20
2.39644334
  0
VERTEX
  8
0
 10
2.87314956
 20
2.37853489
  0
VERTEX
  8
0
 10
2.88907661
 20
2.36340308
  0
VERTEX
  8
0
 10
2.91537860
 20
2.34160334
  0
VERTEX
  8
0
 10
2.94335086
 20
2.32189223
  0
VERTEX
  8
0
 10
2.97277953
 20
2.30430355
  0
VERTEX
  8
0
 10
3.00345076
 20
2.28887107
  0
VERTEX
  8
0
 10
3.03515066
 20
2.27562860
  0
VERTEX
  8
0
 10
3.06766539
 20
2.26460993
  0
VERTEX
  8
0
 10
3.10078108
 20
2.25584884
  0
VERTEX
  8
0
 10
3.13428386
 20
2.24937912
  0
VERTEX
  8
0
 10
3.16795987
 20
2.24523457
  0
VERTEX
  8
0
 10
3.20159525
 20
2.24344898
  0
VERTEX
  8
0
 10
3.23497614
 20
2.24405613
  0
VERTEX
  8
0
 10
3.26788868
 20
2.24708983
  0
VERTEX
  8
0
 10
3.30011899
 20
2.25258384
  0
VERTEX
  8
0
 10
3.33145322
 20
2.26057198
  0
VERTEX
  8
0
 10
3.36167750
 20
2.27108803
  0
VERTEX
  8
0
 10
3.39057798
 20
2.28416578
  0
VERTEX
  8
0
 10
3.40520764
 20
2.29209169
  0
VERTEX
  8
0
 10
3.41987471
 20
2.30094757
  0
VERTEX
  8
0
 10
3.44923407
 20
2.32132147
  0
VERTEX
  8
0
 10
3.47848207
 20
2.34503190
  0
VERTEX
  8
0
 10
3.50744468
 20
2.37182327
  0
VERTEX
  8
0
 10
3.53594792
 20
2.40144000
  0
VERTEX
  8
0
 10
3.56381779
 20
2.43362650
  0
VERTEX
  8
0
 10
3.59088027
 20
2.46812719
  0
VERTEX
  8
0
 10
3.61696136
 20
2.50468649
  0
VERTEX
  8
0
 10
3.64188707
 20
2.54304881
  0
VERTEX
  8
0
 10
3.66548339
 20
2.58295857
  0
VERTEX
  8
0
 10
3.68757632
 20
2.62416018
  0
VERTEX
  8
0
 10
3.70799186
 20
2.66639807
  0
VERTEX
  8
0
 10
3.72655600
 20
2.70941664
  0
VERTEX
  8
0
 10
3.74309474
 20
2.75296031
  0
VERTEX
  8
0
 10
3.75743409
 20
2.79677351
  0
VERTEX
  8
0
 10
3.76940002
 20
2.84060064
  0
VERTEX
  8
0
 10
3.78004941
 20
2.88087809
  0
VERTEX
  8
0
 10
3.79025332
 20
2.91386182
  0
VERTEX
  8
0
 10
3.79885372
 20
2.93614811
  0
VERTEX
  8
0
 10
3.80219071
 20
2.94221605
  0
VERTEX
  8
0
 10
3.80469255
 20
2.94433325
  0
VERTEX
  8
0
 10
3.80975289
 20
2.94089931
  0
VERTEX
  8
0
 10
3.81969507
 20
2.93102751
  0
VERTEX
  8
0
 10
3.85214588
 20
2.89455042
  0
VERTEX
  8
0
 10
3.89788691
 20
2.84006217
  0
VERTEX
  8
0
 10
3.95276009
 20
2.77272297
  0
VERTEX
  8
0
 10
4.01260738
 20
2.69769301
  0
VERTEX
  8
0
 10
4.07327070
 20
2.62013250
  0
VERTEX
  8
0
 10
4.13059199
 20
2.54520162
  0
VERTEX
  8
0
 10
4.18041319
 20
2.47806059
  0
VERTEX
  8
0
 10
4.25181698
 20
2.37832401
  0
VERTEX
  8
0
 10
4.31843562
 20
2.28214340
  0
VERTEX
  8
0
 10
4.38155273
 20
2.18746874
  0
VERTEX
  8
0
 10
4.44245190
 20
2.09224996
  0
VERTEX
  8
0
 10
4.50241674
 20
1.99443703
  0
VERTEX
  8
0
 10
4.56273087
 20
1.89197990
  0
VERTEX
  8
0
 10
4.62467789
 20
1.78282853
  0
VERTEX
  8
0
 10
4.68954140
 20
1.66493287
  0
VERTEX
  8
0
 10
4.76183275
 20
1.53403712
  0
VERTEX
  8
0
 10
4.78684968
 20
1.49040623
  0
VERTEX
  8
0
 10
4.79963103
 20
1.46985469
  0
VERTEX
  8
0
 10
4.80439229
 20
1.46205478
  0
VERTEX
  8
0
 10
4.80545137
 20
1.45851968
  0
VERTEX
  8
0
 10
4.80565401
 20
1.45524209
  0
VERTEX
  8
0
 10
4.80501865
 20
1.45223271
  0
VERTEX
  8
0
 10
4.80356373
 20
1.44950225
  0
VERTEX
  8
0
 10
4.79826901
 20
1.44492089
  0
VERTEX
  8
0
 10
4.78991740
 20
1.44158361
  0
VERTEX
  8
0
 10
4.77865646
 20
1.43957605
  0
VERTEX
  8
0
 10
4.76463373
 20
1.43898382
  0
VERTEX
  8
0
 10
4.74799676
 20
1.43989255
  0
VERTEX
  8
0
 10
4.65294607
 20
1.44515750
  0
VERTEX
  8
0
 10
4.47725882
 20
1.45283212
  0
SEQEND
  0
POLYLINE
  8
0
 66
   1
 70
    1
  0
VERTEX
  8
0
 10
5.89351139
 20
1.71724012
  0
VERTEX
  8
0
 10
5.89132847
 20
1.72666447
  0
VERTEX
  8
0
 10
5.89086399
 20
1.73892300
  0
VERTEX
  8
0
 10
5.89207436
 20
1.75389076
  0
VERTEX
  8
0
 10
5.89491598
 20
1.77144282
  0
VERTEX
  8
0
 10
5.89934526
 20
1.79145424
  0
VERTEX
  8
0
 10
5.90531860
 20
1.81380008
  0
VERTEX
  8
0
 10
5.91279242
 20
1.83835541
  0
VERTEX
  8
0
 10
5.92172311
 20
1.86499528
  0
VERTEX
  8
0
 10
5.94378075
 20
1.92402891
  0
VERTEX
  8
0
 10
5.97114278
 20
1.98990147
  0
VERTEX
  8
0
 10
6.00346043
 20
2.06161345
  0
VERTEX
  8
0
 10
6.04038496
 20
2.13816535
  0
VERTEX
  8
0
 10
6.08275308
 20
2.22201763
  0
VERTEX
  8
0
 10
6.12085839
 20
2.29500063
  0
VERTEX
  8
0
 10
6.15052711
 20
2.34927728
  0
VERTEX
  8
0
 10
6.16089343
 20
2.36695164
  0
VERTEX
  8
0
 10
6.16758545
 20
2.37701049
  0
VERTEX
  8
0
 10
6.17567715
 20
2.38806993
  0
VERTEX
  8
0
 10
6.18179118
 20
2.39568057
  0
VERTEX
  8
0
 10
6.18467469
 20
2.39770142
  0
VERTEX
  8
0
 10
6.18774551
 20
2.39827068
  0
VERTEX
  8
0
 10
6.19123090
 20
2.39719187
  0
VERTEX
  8
0
 10
6.19535810
 20
2.39426854
  0
VERTEX
  8
0
 10
6.20644691
 20
2.38210242
  0
VERTEX
  8
0
 10
6.22282992
 20
2.36020061
  0
VERTEX
  8
0
 10
6.27875040
 20
2.28090300
  0
VERTEX
  8
0
 10
6.29454119
 20
2.26010189
  0
VERTEX
  8
0
 10
6.31117497
 20
2.24113292
  0
VERTEX
  8
0
 10
6.32857468
 20
2.22402070
  0
VERTEX
  8
0
 10
6.34666328
 20
2.20878982
  0
VERTEX
  8
0
 10
6.36536372
 20
2.19546489
  0
VERTEX
  8
0
 10
6.38459897
 20
2.18407048
  0
VERTEX
  8
0
 10
6.40429197
 20
2.17463122
  0
VERTEX
  8
0
 10
6.42436568
 20
2.16717168
  0
VERTEX
  8
0
 10
6.44474305
 20
2.16171648
  0
VERTEX
  8
0
 10
6.46534704
 20
2.15829021
  0
VERTEX
  8
0
 10
6.48610061
 20
2.15691747
  0
VERTEX
  8
0
 10
6.50692670
 20
2.15762285
  0
VERTEX
  8
0
 10
6.52774828
 20
2.16043096
  0
VERTEX
  8
0
 10
6.54848830
 20
2.16536639
  0
VERTEX
  8
0
 10
6.56906971
 20
2.17245374
  0
VERTEX
  8
0
 10
6.58941547
 20
2.18171760
  0
VERTEX
  8
0
 10
6.61436412
 20
2.19565532
  0
VERTEX
  8
0
 10
6.63677389
 20
2.21072841
  0
VERTEX
  8
0
 10
6.65702035
 20
2.22735570
  0
VERTEX
  8
0
 10
6.67547910
 20
2.24595602
  0
VERTEX
  8
0
 10
6.69252574
 20
2.26694820
  0
VERTEX
  8
0
 10
6.70853587
 20
2.29075108
  0
VERTEX
  8
0
 10
6.72388508
 20
2.31778348
  0
VERTEX
  8
0
 10
6.73894896
 20
2.34846425
  0
VERTEX
  8
0
 10
6.74844057
 20
2.37032963
  0
VERTEX
  8
0
 10
6.75597015
 20
2.39116958
  0
VERTEX
  8
0
 10
6.76175237
 20
2.41247898
  0
VERTEX
  8
0
 10
6.76600189
 20
2.43575272
  0
VERTEX
  8
0
 10
6.76893339
 20
2.46248570
  0
VERTEX
  8
0
 10
6.77076153
 20
2.49417281
  0
VERTEX
  8
0
 10
6.77170099
 20
2.53230892
  0
VERTEX
  8
0
 10
6.77196644
 20
2.57838894
  0
VERTEX
  8
0
 10
6.77177361
 20
2.62870572
  0
VERTEX
  8
0
 10
6.77088016
 20
2.66869360
  0
VERTEX
  8
0
 10
6.76881364
 20
2.70088273
  0
VERTEX
  8
0
 10
6.76510165
 20
2.72780325
  0
VERTEX
  8
0
 10
6.75927173
 20
2.75198529
  0
VERTEX
  8
0
 10
6.75085146
 20
2.77595900
  0
VERTEX
  8
0
 10
6.73936840
 20
2.80225452
  0
VERTEX
  8
0
 10
6.72435013
 20
2.83340199
  0
VERTEX
  8
0
 10
6.71284199
 20
2.85556027
  0
VERTEX
  8
0
 10
6.70055805
 20
2.87693480
  0
VERTEX
  8
0
 10
6.68767078
 20
2.89729015
  0
VERTEX
  8
0
 10
6.67435267
 20
2.91639089
  0
VERTEX
  8
0
 10
6.66077619
 20
2.93400158
  0
VERTEX
  8
0
 10
6.64711381
 20
2.94988678
  0
VERTEX
  8
0
 10
6.63353801
 20
2.96381107
  0
VERTEX
  8
0
 10
6.62022128
 20
2.97553901
  0
VERTEX
  8
0
 10
6.59827854
 20
2.99473929
  0
VERTEX
  8
0
 10
6.58030932
 20
3.01344514
  0
VERTEX
  8
0
 10
6.57339425
 20
3.02194340
  0
VERTEX
  8
0
 10
6.56816794
 20
3.02951495
  0
VERTEX
  8
0
 10
6.56486217
 20
3.03589209
  0
VERTEX
  8
0
 10
6.56370874
 20
3.04080711
  0
VERTEX
  8
0
 10
6.56461252
 20
3.04800279
  0
VERTEX
  8
0
 10
6.56725159
 20
3.05756008
  0
VERTEX
  8
0
 10
6.57730193
 20
3.08307627
  0
VERTEX
  8
0
 10
6.59299244
 20
3.11598919
  0
VERTEX
  8
0
 10
6.61345579
 20
3.15493237
  0
VERTEX
  8
0
 10
6.63782466
 20
3.19853931
  0
VERTEX
  8
0
 10
6.66523173
 20
3.24544352
  0
VERTEX
  8
0
 10
6.69480967
 20
3.29427852
  0
VERTEX
  8
0
 10
6.72569117
 20
3.34367782
  0
VERTEX
  8
0
 10
6.75700891
 20
3.39227492
  0
VERTEX
  8
0
 10
6.78789555
 20
3.43870335
  0
VERTEX
  8
0
 10
6.81748378
 20
3.48159662
  0
VERTEX
  8
0
 10
6.84490627
 20
3.51958823
  0
VERTEX
  8
0
 10
6.86929571
 20
3.55131171
  0
VERTEX
  8
0
 10
6.88978476
 20
3.57540056
  0
VERTEX
  8
0
 10
6.89829561
 20
3.58415497
  0
VERTEX
  8
0
 10
6.90550612
 20
3.59048829
  0
VERTEX
  8
0
 10
6.91130787
 20
3.59422971
  0
VERTEX
  8
0
 10
6.91559244
 20
3.59520841
  0
VERTEX
  8
0
 10
6.91979309
 20
3.59349676
  0
VERTEX
  8
0
 10
6.92468644
 20
3.58947159
  0
VERTEX
  8
0
 10
6.93019767
 20
3.58328471
  0
VERTEX
  8
0
 10
6.93625196
 20
3.57508792
  0
VERTEX
  8
0
 10
6.94969042
 20
3.55327185
  0
VERTEX
  8
0
 10
6.96440323
 20
3.52523782
  0
VERTEX
  8
0
 10
6.97979180
 20
3.49220031
  0
VERTEX
  8
0
 10
6.99525755
 20
3.45537375
  0
VERTEX
  8
0
 10
7.01020189
 20
3.41597259
  0
VERTEX
  8
0
 10
7.02402623
 20
3.37521130
  0
VERTEX
  8
0
 10
7.03197679
 20
3.34893192
  0
VERTEX
  8
0
 10
7.03920845
 20
3.32231123
  0
VERTEX
  8
0
 10
7.04572283
 20
3.29536517
  0
VERTEX
  8
0
 10
7.05152152
 20
3.26810967
  0
VERTEX
  8
0
 10
7.05660616
 20
3.24056065
  0
VERTEX
  8
0
 10
7.06097834
 20
3.21273406
  0
VERTEX
  8
0
 10
7.06759178
 20
3.15631189
  0
VERTEX
  8
0
 10
7.07137474
 20
3.09897060
  0
VERTEX
  8
0
 10
7.07234010
 20
3.04083766
  0
VERTEX
  8
0
 10
7.07050076
 20
2.98204052
  0
VERTEX
  8
0
 10
7.06586961
 20
2.92270666
  0
VERTEX
  8
0
 10
7.05845952
 20
2.86296353
  0
VERTEX
  8
0
 10
7.04828341
 20
2.80293860
  0
VERTEX
  8
0
 10
7.03535414
 20
2.74275932
  0
VERTEX
  8
0
 10
7.01968461
 20
2.68255315
  0
VERTEX
  8
0
 10
7.00128772
 20
2.62244757
  0
VERTEX
  8
0
 10
6.98017634
 20
2.56257002
  0
VERTEX
  8
0
 10
6.95636337
 20
2.50304797
  0
VERTEX
  8
0
 10
6.92986170
 20
2.44400889
  0
VERTEX
  8
0
 10
6.90502012
 20
2.39450537
  0
VERTEX
  8
0
 10
6.87762859
 20
2.34532998
  0
VERTEX
  8
0
 10
6.84787656
 20
2.29668540
  0
VERTEX
  8
0
 10
6.81595346
 20
2.24877434
  0
VERTEX
  8
0
 10
6.78204873
 20
2.20179950
  0
VERTEX
  8
0
 10
6.74635182
 20
2.15596356
  0
VERTEX
  8
0
 10
6.70905217
 20
2.11146923
  0
VERTEX
  8
0
 10
6.67033922
 20
2.06851921
  0
VERTEX
  8
0
 10
6.63040241
 20
2.02731619
  0
VERTEX
  8
0
 10
6.58943119
 20
1.98806287
  0
VERTEX
  8
0
 10
6.54761499
 20
1.95096194
  0
VERTEX
  8
0
 10
6.50514326
 20
1.91621611
  0
VERTEX
  8
0
 10
6.46220543
 20
1.88402807
  0
VERTEX
  8
0
 10
6.41899096
 20
1.85460052
  0
VERTEX
  8
0
 10
6.37568928
 20
1.82813615
  0
VERTEX
  8
0
 10
6.33248983
 20
1.80483766
  0
VERTEX
  8
0
 10
6.29700786
 20
1.78781467
  0
VERTEX
  8
0
 10
6.26084006
 20
1.77198050
  0
VERTEX
  8
0
 10
6.22436328
 20
1.75741036
  0
VERTEX
  8
0
 10
6.18795436
 20
1.74417944
  0
VERTEX
  8
0
 10
6.15199015
 20
1.73236295
  0
VERTEX
  8
0
 10
6.11684748
 20
1.72203608
  0
VERTEX
  8
0
 10
6.08290321
 20
1.71327403
  0
VERTEX
  8
0
 10
6.05053417
 20
1.70615200
  0
VERTEX
  8
0
 10
6.02011721
 20
1.70074518
  0
VERTEX
  8
0
 10
5.99202916
 20
1.69712877
  0
VERTEX
  8
0
 10
5.96664688
 20
1.69537798
  0
VERTEX
  8
0
 10
5.94434720
 20
1.69556800
  0
VERTEX
  8
0
 10
5.92550697
 20
1.69777402
  0
VERTEX
  8
0
 10
5.91750191
 20
1.69965654
  0
VERTEX
  8
0
 10
5.91050303
 20
1.70207125
  0
VERTEX
  8
0
 10
5.90455743
 20
1.70502757
  0
VERTEX
  8
0
 10
5.89971222
 20
1.70853489
  0
VERTEX
  8
0
 10
5.89601451
 20
1.71260261
  0
VERTEX
  8
0
 10
5.89351139
 20
1.71724012
  0
SEQEND
  0
POLYLINE
  8
0
 66
   1
 70
    1
  0
VERTEX
  8
0
 10
3.13104707
 20
2.58169982
  0
VERTEX
  8
0
 10
3.10854788
 20
2.59396417
  0
VERTEX
  8
0
 10
3.09315536
 20
2.60465372
  0
VERTEX
  8
0
 10
3.08811373
 20
2.60937843
  0
VERTEX
  8
0
 10
3.08483631
 20
2.61367403
  0
VERTEX
  8
0
 10
3.08331897
 20
2.61752872
  0
VERTEX
  8
0
 10
3.08355755
 20
2.62093068
  0
VERTEX
  8
0
 10
3.08554789
 20
2.62386813
  0
VERTEX
  8
0
 10
3.08928586
 20
2.62632924
  0
VERTEX
  8
0
 10
3.09476729
 20
2.62830223
  0
VERTEX
  8
0
 10
3.10198803
 20
2.62977529
  0
VERTEX
  8
0
 10
3.12163088
 20
2.63117439
  0
VERTEX
  8
0
 10
3.14818119
 20
2.63043212
  0
VERTEX
  8
0
 10
3.16473485
 20
2.62993738
  0
VERTEX
  8
0
 10
3.18124563
 20
2.63048245
  0
VERTEX
  8
0
 10
3.19768632
 20
2.63205510
  0
VERTEX
  8
0
 10
3.21402974
 20
2.63464309
  0
VERTEX
  8
0
 10
3.23024866
 20
2.63823417
  0
VERTEX
  8
0
 10
3.24631591
 20
2.64281612
  0
VERTEX
  8
0
 10
3.26220426
 20
2.64837668
  0
VERTEX
  8
0
 10
3.27788653
 20
2.65490362
  0
VERTEX
  8
0
 10
3.29333551
 20
2.66238470
  0
VERTEX
  8
0
 10
3.30852399
 20
2.67080768
  0
VERTEX
  8
0
 10
3.32342478
 20
2.68016032
  0
VERTEX
  8
0
 10
3.33801067
 20
2.69043037
  0
VERTEX
  8
0
 10
3.35225447
 20
2.70160561
  0
VERTEX
  8
0
 10
3.36612896
 20
2.71367379
  0
VERTEX
  8
0
 10
3.37960696
 20
2.72662267
  0
VERTEX
  8
0
 10
3.39266125
 20
2.74044002
  0
VERTEX
  8
0
 10
3.41773786
 20
2.77050597
  0
VERTEX
  8
0
 10
3.44123281
 20
2.80305338
  0
VERTEX
  8
0
 10
3.46277687
 20
2.83735005
  0
VERTEX
  8
0
 10
3.48200085
 20
2.87266379
  0
VERTEX
  8
0
 10
3.49853551
 20
2.90826243
  0
VERTEX
  8
0
 10
3.51201164
 20
2.94341377
  0
VERTEX
  8
0
 10
3.51748737
 20
2.96059290
  0
VERTEX
  8
0
 10
3.52206002
 20
2.97738563
  0
VERTEX
  8
0
 10
3.52568343
 20
2.99370045
  0
VERTEX
  8
0
 10
3.52831145
 20
3.00944583
  0
VERTEX
  8
0
 10
3.53256274
 20
3.03515052
  0
VERTEX
  8
0
 10
3.53755859
 20
3.05713640
  0
VERTEX
  8
0
 10
3.54267616
 20
3.07306835
  0
VERTEX
  8
0
 10
3.54508595
 20
3.07803437
  0
VERTEX
  8
0
 10
3.54729261
 20
3.08061124
  0
VERTEX
  8
0
 10
3.55029256
 20
3.08085691
  0
VERTEX
  8
0
 10
3.55497584
 20
3.07914170
  0
VERTEX
  8
0
 10
3.56844336
 20
3.07053492
  0
VERTEX
  8
0
 10
3.58579710
 20
3.05620351
  0
VERTEX
  8
0
 10
3.60513900
 20
3.03756006
  0
VERTEX
  8
0
 10
3.62063928
 20
3.02135824
  0
VERTEX
  8
0
 10
3.63210451
 20
3.00830197
  0
VERTEX
  8
0
 10
3.63986258
 20
2.99715530
  0
VERTEX
  8
0
 10
3.64424142
 20
2.98668233
  0
VERTEX
  8
0
 10
3.64526609
 20
2.98131225
  0
VERTEX
  8
0
 10
3.64556892
 20
2.97564711
  0
VERTEX
  8
0
 10
3.64417299
 20
2.96281373
  0
VERTEX
  8
0
 10
3.64038153
 20
2.94694625
  0
VERTEX
  8
0
 10
3.63452246
 20
2.92680874
  0
VERTEX
  8
0
 10
3.62123983
 20
2.88680277
  0
VERTEX
  8
0
 10
3.60588108
 20
2.84846841
  0
VERTEX
  8
0
 10
3.58857671
 20
2.81192989
  0
VERTEX
  8
0
 10
3.56945723
 20
2.77731146
  0
VERTEX
  8
0
 10
3.54865314
 20
2.74473736
  0
VERTEX
  8
0
 10
3.52629494
 20
2.71433183
  0
VERTEX
  8
0
 10
3.50251314
 20
2.68621911
  0
VERTEX
  8
0
 10
3.47743824
 20
2.66052344
  0
VERTEX
  8
0
 10
3.45120075
 20
2.63736906
  0
VERTEX
  8
0
 10
3.42393116
 20
2.61688022
  0
VERTEX
  8
0
 10
3.39575998
 20
2.59918115
  0
VERTEX
  8
0
 10
3.36681771
 20
2.58439609
  0
VERTEX
  8
0
 10
3.35209820
 20
2.57813515
  0
VERTEX
  8
0
 10
3.33723486
 20
2.57264929
  0
VERTEX
  8
0
 10
3.32224400
 20
2.56795407
  0
VERTEX
  8
0
 10
3.30714193
 20
2.56406499
  0
VERTEX
  8
0
 10
3.29194497
 20
2.56099760
  0
VERTEX
  8
0
 10
3.27666942
 20
2.55876742
  0
VERTEX
  8
0
 10
3.26133161
 20
2.55738999
  0
VERTEX
  8
0
 10
3.24594784
 20
2.55688083
  0
VERTEX
  8
0
 10
3.23193870
 20
2.55733448
  0
VERTEX
  8
0
 10
3.21688602
 20
2.55874850
  0
VERTEX
  8
0
 10
3.18553516
 20
2.56405048
  0
VERTEX
  8
0
 10
3.17017952
 20
2.56773484
  0
VERTEX
  8
0
 10
3.15566545
 20
2.57197238
  0
VERTEX
  8
0
 10
3.14246421
 20
2.57666131
  0
VERTEX
  8
0
 10
3.13104707
 20
2.58169982
  0
SEQEND
  0
POLYLINE
  8
0
 66
   1
 70
    1
  0
VERTEX
  8
0
 10
6.43731783
 20
2.70304157
  0
VERTEX
  8
0
 10
6.43252836
 20
2.70883532
  0
VERTEX
  8
0
 10
6.42854100
 20
2.71572817
  0
VERTEX
  8
0
 10
6.42534278
 20
2.72357199
  0
VERTEX
  8
0
 10
6.42292078
 20
2.73221863
  0
VERTEX
  8
0
 10
6.42126205
 20
2.74151997
  0
VERTEX
  8
0
 10
6.42035365
 20
2.75132787
  0
VERTEX
  8
0
 10
6.42073609
 20
2.77187081
  0
VERTEX
  8
0
 10
6.42396456
 20
2.79266237
  0
VERTEX
  8
0
 10
6.42661371
 20
2.80278105
  0
VERTEX
  8
0
 10
6.42993555
 20
2.81251748
  0
VERTEX
  8
0
 10
6.43391713
 20
2.82172353
  0
VERTEX
  8
0
 10
6.43854551
 20
2.83025106
  0
VERTEX
  8
0
 10
6.44380776
 20
2.83795194
  0
VERTEX
  8
0
 10
6.44969093
 20
2.84467803
  0
VERTEX
  8
0
 10
6.45712965
 20
2.85161881
  0
VERTEX
  8
0
 10
6.46440282
 20
2.85738754
  0
VERTEX
  8
0
 10
6.47152271
 20
2.86198056
  0
VERTEX
  8
0
 10
6.47850161
 20
2.86539419
  0
VERTEX
  8
0
 10
6.48535177
 20
2.86762479
  0
VERTEX
  8
0
 10
6.49208549
 20
2.86866869
  0
VERTEX
  8
0
 10
6.49871502
 20
2.86852221
  0
VERTEX
  8
0
 10
6.50525264
 20
2.86718171
  0
VERTEX
  8
0
 10
6.51171064
 20
2.86464351
  0
VERTEX
  8
0
 10
6.51810127
 20
2.86090395
  0
VERTEX
  8
0
 10
6.52443681
 20
2.85595937
  0
VERTEX
  8
0
 10
6.53072955
 20
2.84980611
  0
VERTEX
  8
0
 10
6.53699174
 20
2.84244049
  0
VERTEX
  8
0
 10
6.54323567
 20
2.83385887
  0
VERTEX
  8
0
 10
6.55571782
 20
2.81303292
  0
VERTEX
  8
0
 10
6.56445098
 20
2.79644799
  0
VERTEX
  8
0
 10
6.57073997
 20
2.78319945
  0
VERTEX
  8
0
 10
6.57461748
 20
2.77238844
  0
VERTEX
  8
0
 10
6.57611621
 20
2.76311610
  0
VERTEX
  8
0
 10
6.57526887
 20
2.75448357
  0
VERTEX
  8
0
 10
6.57210815
 20
2.74559200
  0
VERTEX
  8
0
 10
6.56666676
 20
2.73554252
  0
VERTEX
  8
0
 10
6.55897739
 20
2.72343628
  0
VERTEX
  8
0
 10
6.55354801
 20
2.71614308
  0
VERTEX
  8
0
 10
6.54735132
 20
2.70957232
  0
VERTEX
  8
0
 10
6.54048963
 20
2.70374116
  0
VERTEX
  8
0
 10
6.53306522
 20
2.69866673
  0
VERTEX
  8
0
 10
6.52518040
 20
2.69436620
  0
VERTEX
  8
0
 10
6.51693746
 20
2.69085670
  0
VERTEX
  8
0
 10
6.50843872
 20
2.68815539
  0
VERTEX
  8
0
 10
6.49978646
 20
2.68627941
  0
VERTEX
  8
0
 10
6.49108299
 20
2.68524592
  0
VERTEX
  8
0
 10
6.48243060
 20
2.68507206
  0
VERTEX
  8
0
 10
6.47393160
 20
2.68577499
  0
VERTEX
  8
0
 10
6.46568828
 20
2.68737185
  0
VERTEX
  8
0
 10
6.45780295
 20
2.68987978
  0
VERTEX
  8
0
 10
6.45037789
 20
2.69331595
  0
VERTEX
  8
0
 10
6.44351542
 20
2.69769750
  0
VERTEX
  8
0
 10
6.43731783
 20
2.70304157
  0
SEQEND
  0
POLYLINE
  8
0
 66
   1
 70
    1
  0
VERTEX
  8
0
 10
2.83373090
 20
3.76659215
  0
VERTEX
  8
0
 10
2.81640269
 20
3.78688399
  0
VERTEX
  8
0
 10
2.80252281
 20
3.80644882
  0
VERTEX
  8
0
 10
2.79676795
 20
3.81632320
  0
VERTEX
  8
0
 10
2.79174552
 20
3.82645334
  0
VERTEX
  8
0
 10
2.78741231
 20
3.83698507
  0
VERTEX
  8
0
 10
2.78372510
 20
3.84806424
  0
VERTEX
  8
0
 10
2.77811582
 20
3.87244823
  0
VERTEX
  8
0
 10
2.77457193
 20
3.90077200
  0
VERTEX
  8
0
 10
2.77274772
 20
3.93420225
  0
VERTEX
  8
0
 10
2.77229745
 20
3.97390568
  0
VERTEX
  8
0
 10
2.77305350
 20
4.00727361
  0
VERTEX
  8
0
 10
2.77511897
 20
4.03831301
  0
VERTEX
  8
0
 10
2.77848085
 20
4.06700435
  0
VERTEX
  8
0
 10
2.78312617
 20
4.09332811
  0
VERTEX
  8
0
 10
2.78904195
 20
4.11726475
  0
VERTEX
  8
0
 10
2.79621520
 20
4.13879476
  0
VERTEX
  8
0
 10
2.80463293
 20
4.15789861
  0
VERTEX
  8
0
 10
2.81428216
 20
4.17455678
  0
VERTEX
  8
0
 10
2.82514990
 20
4.18874974
  0
VERTEX
  8
0
 10
2.83722318
 20
4.20045798
  0
VERTEX
  8
0
 10
2.85048900
 20
4.20966195
  0
VERTEX
  8
0
 10
2.86493438
 20
4.21634214
  0
VERTEX
  8
0
 10
2.88054634
 20
4.22047903
  0
VERTEX
  8
0
 10
2.89731189
 20
4.22205310
  0
VERTEX
  8
0
 10
2.91521805
 20
4.22104480
  0
VERTEX
  8
0
 10
2.93425183
 20
4.21743463
  0
VERTEX
  8
0
 10
2.94419698
 20
4.21402907
  0
VERTEX
  8
0
 10
2.95371329
 20
4.20897408
  0
VERTEX
  8
0
 10
2.96278990
 20
4.20236525
  0
VERTEX
  8
0
 10
2.97141590
 20
4.19429821
  0
VERTEX
  8
0
 10
2.97958042
 20
4.18486857
  0
VERTEX
  8
0
 10
2.98727257
 20
4.17417195
  0
VERTEX
  8
0
 10
2.99448147
 20
4.16230395
  0
VERTEX
  8
0
 10
3.00119622
 20
4.14936020
  0
VERTEX
  8
0
 10
3.00740595
 20
4.13543630
  0
VERTEX
  8
0
 10
3.01309977
 20
4.12062786
  0
VERTEX
  8
0
 10
3.02289614
 20
4.08873986
  0
VERTEX
  8
0
 10
3.03049826
 20
4.05446110
  0
VERTEX
  8
0
 10
3.03581903
 20
4.01855649
  0
VERTEX
  8
0
 10
3.03877137
 20
3.98179094
  0
VERTEX
  8
0
 10
3.03926822
 20
3.94492935
  0
VERTEX
  8
0
 10
3.03722249
 20
3.90873664
  0
VERTEX
  8
0
 10
3.03254709
 20
3.87397772
  0
VERTEX
  8
0
 10
3.02919606
 20
3.85737496
  0
VERTEX
  8
0
 10
3.02515495
 20
3.84141749
  0
VERTEX
  8
0
 10
3.02041289
 20
3.82620093
  0
VERTEX
  8
0
 10
3.01495899
 20
3.81182087
  0
VERTEX
  8
0
 10
3.00878236
 20
3.79837295
  0
VERTEX
  8
0
 10
3.00187212
 20
3.78595277
  0
VERTEX
  8
0
 10
2.99421738
 20
3.77465594
  0
VERTEX
  8
0
 10
2.98580727
 20
3.76457809
  0
VERTEX
  8
0
 10
2.97818417
 20
3.75733230
  0
VERTEX
  8
0
 10
2.96981002
 20
3.75107603
  0
VERTEX
  8
0
 10
2.96079201
 20
3.74580785
  0
VERTEX
  8
0
 10
2.95123729
 20
3.74152634
  0
VERTEX
  8
0
 10
2.94125307
 20
3.73823008
  0
VERTEX
  8
0
 10
2.93094649
 20
3.73591767
  0
VERTEX
  8
0
 10
2.92042476
 20
3.73458766
  0
VERTEX
  8
0
 10
2.90979504
 20
3.73423865
  0
VERTEX
  8
0
 10
2.89916450
 20
3.73486922
  0
VERTEX
  8
0
 10
2.88864034
 20
3.73647795
  0
VERTEX
  8
0
 10
2.87832971
 20
3.73906342
  0
VERTEX
  8
0
 10
2.86833980
 20
3.74262420
  0
VERTEX
  8
0
 10
2.85877779
 20
3.74715889
  0
VERTEX
  8
0
 10
2.84975085
 20
3.75266605
  0
VERTEX
  8
0
 10
2.84136616
 20
3.75914428
  0
VERTEX
  8
0
 10
2.83373090
 20
3.76659215
  0
SEQEND
  0
ENDSEC
  0
EOF
