  0
SECTION
  2
HEADER
  9
$ACADVER
  1
AC1012
  9
$DWGCODEPAGE
  3
ansi_1252
  9
$INSBASE
 10
0.0
 20
0.0
 30
0.0
  9
$EXTMIN
 10
0.0
 20
0.0
 30
0.0
  9
$EXTMAX
 10
11.0
 20
8.5
 30
0.0
  9
$LIMMIN
 10
0.0
 20
0.0
  9
$LIMMAX
 10
0.0
 20
0.0
  9
$ORTHOMODE
 70
         0
  9
$REGENMODE
 70
         1
  9
$FILLMODE
 70
         1
  9
$QTEXTMODE
 70
         0
  9
$MIRRTEXT
 70
         1
  9
$DRAGMODE
 70
         2
  9
$LTSCALE
 40
1.0
  9
$OSMODE
 70
         0
  9
$ATTMODE
 70
         1
  9
$TEXTSIZE
 40
0.12
  9
$TRACEWID
 40
0.05
  9
$TEXTSTYLE
  7
STANDARD
  9
$CLAYER
  8
0
  9
$CELTYPE
  6
CONTINUOUS
  9
$CECOLOR
 62
       256
  9
$CELTSCALE
 40
1.0
  9
$DELOBJ
 70
         1
  9
$DISPSILH
 70
         0
  9
$DIMSCALE
 40
1.0
  9
$DIMASZ
 40
0.18
  9
$DIMEXO
 40
0.05
  9
$DIMDLI
 40
0.38
  9
$DIMRND
 40
0.0
  9
$DIMDLE
 40
0.12
  9
$DIMEXE
 40
0.18
  9
$DIMTP
 40
0.0
  9
$DIMTM
 40
0.0
  9
$DIMTXT
 40
0.12
  9
$DIMCEN
 40
0.09
  9
$DIMTSZ
 40
0.0
  9
$DIMTOL
 70
         0
  9
$DIMLIM
 70
         0
  9
$DIMTIH
 70
         1
  9
$DIMTOH
 70
         1
  9
$DIMSE1
 70
         0
  9
$DIMSE2
 70
         0
  9
$DIMTAD
 70
         0
  9
$DIMZIN
 70
         0
  9
$DIMBLK
  1

  9
$DIMASO
 70
         1
  9
$DIMSHO
 70
         1
  9
$DIMPOST
  1

  9
$DIMAPOST
  1

  9
$DIMALT
 70
         0
  9
$DIMALTD
 70
         2
  9
$DIMALTF
 40
25.4
  9
$DIMLFAC
 40
0.5
  9
$DIMTOFL
 70
         0
  9
$DIMTVP
 40
0.0
  9
$DIMTIX
 70
         0
  9
$DIMSOXD
 70
         0
  9
$DIMSAH
 70
         0
  9
$DIMBLK1
  1

  9
$DIMBLK2
  1

  9
$DIMSTYLE
  2
STANDARD
  9
$DIMCLRD
 70
         0
  9
$DIMCLRE
 70
         0
  9
$DIMCLRT
 70
         0
  9
$DIMTFAC
 40
1.0
  9
$DIMGAP
 40
0.05
  9
$DIMJUST
 70
         0
  9
$DIMSD1
 70
         0
  9
$DIMSD2
 70
         0
  9
$DIMTOLJ
 70
         1
  9
$DIMTZIN
 70
         0
  9
$DIMALTZ
 70
         0
  9
$DIMALTTZ
 70
         0
  9
$DIMFIT
 70
         3
  9
$DIMUPT
 70
         0
  9
$DIMUNIT
 70
         2
  9
$DIMDEC
 70
         4
  9
$DIMTDEC
 70
         4
  9
$DIMALTU
 70
         2
  9
$DIMALTTD
 70
         2
  9
$DIMTXSTY
  7
STANDARD
  9
$DIMAUNIT
 70
         0
  9
$LUNITS
 70
         2
  9
$LUPREC
 70
         3
  9
$SKETCHINC
 40
0.1
  9
$FILLETRAD
 40
0.0
  9
$AUNITS
 70
         0
  9
$AUPREC
 70
         2
  9
$MENU
  1
acad
  9
$ELEVATION
 40
0.0
  9
$PELEVATION
 40
0.0
  9
$THICKNESS
 40
0.0
  9
$LIMCHECK
 70
         0
  9
$BLIPMODE
 70
         1
  9
$CHAMFERA
 40
0.0
  9
$CHAMFERB
 40
0.0
  9
$CHAMFERC
 40
0.0
  9
$CHAMFERD
 40
0.0
  9
$SKPOLY
 70
         0
  9
$TDCREATE
 40
0.000000000
  9
$TDUPDATE
 40
0.000000000
  9
$TDINDWG
 40
0.0000000000
  9
$TDUSRTIMER
 40
0.0000000000
  9
$USRTIMER
 70
         1
  9
$ANGBASE
 50
0.0
  9
$ANGDIR
 70
         0
  9
$PDMODE
 70
         0
  9
$PDSIZE
 40
-1.0
  9
$PLINEWID
 40
0.0
  9
$COORDS
 70
         0
  9
$SPLFRAME
 70
         0
  9
$SPLINETYPE
 70
         6
  9
$SPLINESEGS
 70
         8
  9
$ATTDIA
 70
         0
  9
$ATTREQ
 70
         1
  9
$HANDLING
 70
         1
  9
$HANDSEED
  5
1D7
  9
$SURFTAB1
 70
         6
  9
$SURFTAB2
 70
         6
  9
$SURFTYPE
 70
         6
  9
$SURFU
 70
         6
  9
$SURFV
 70
         6
  9
$UCSNAME
  2

  9
$UCSORG
 10
0.0
 20
0.0
 30
0.0
  9
$UCSXDIR
 10
1.0
 20
0.0
 30
0.0
  9
$UCSYDIR
 10
0.0
 20
1.0
 30
0.0
  9
$PUCSNAME
  2

  9
$PUCSORG
 10
0.0
 20
0.0
 30
0.0
  9
$PUCSXDIR
 10
1.0
 20
0.0
 30
0.0
  9
$PUCSYDIR
 10
0.0
 20
1.0
 30
0.0
  9
$USERI1
 70
         0
  9
$USERI2
 70
         0
  9
$USERI3
 70
         0
  9
$USERI4
 70
         0
  9
$USERI5
 70
         0
  9
$USERR1
 40
0.0
  9
$USERR2
 40
0.0
  9
$USERR3
 40
0.0
  9
$USERR4
 40
0.0
  9
$USERR5
 40
0.0
  9
$WORLDVIEW
 70
         1
  9
$SHADEDGE
 70
         3
  9
$SHADEDIF
 70
        70
  9
$TILEMODE
 70
         1
  9
$MAXACTVP
 70
        16
  9
$PINSBASE
 10
0.0
 20
0.0
 30
0.0
  9
$PLIMCHECK
 70
         0
  9
$PEXTMIN
 10
1.0000000000E+20
 20
1.0000000000E+20
 30
1.0000000000E+20
  9
$PEXTMAX
 10
-1.0000000000E+20
 20
-1.0000000000E+20
 30
-1.0000000000E+20
  9
$PLIMMIN
 10
0.0
 20
0.0
  9
$PLIMMAX
 10
12.0
 20
9.0
  9
$UNITMODE
 70
         0
  9
$VISRETAIN
 70
         0
  9
$PLINEGEN
 70
         1
  9
$PSLTSCALE
 70
         1
  9
$TREEDEPTH
 70
      3020
  9
$PICKSTYLE
 70
         1
  9
$CMLSTYLE
  2
STANDARD
  9
$CMLJUST
 70
         0
  9
$CMLSCALE
 40
1.0
  9
$SAVEIMAGES
 70
         0
  0
ENDSEC
  0
SECTION
  2
CLASSES
  0
CLASS
  1
LWPOLYLINE
  2
AcDbPolyline
  3
\"AutoCAD\"
 90
    32768
280
         0
281
         1
  0
CLASS
  1
IMAGE
  2
AcDbRasterImage
  3
ISM
 90
    32895
280
         0
281
         1
  0
CLASS
  1
OLE2FRAME
  2
AcDbOle2Frame
  3
\"\"
 90
    32768
280
         0
281
         1
  0
CLASS
  1
HATCH
  2
AcDbHatch
  3
\"ACAD_SEDONA\"
 90
    32768
280
         0
281
         1
  0
CLASS
  1
DICTIONARYVAR
  2
AcDbDictionaryVar
  3
\"AutoCAD\"
 90
    32768
280
         0
281
         0
  0
CLASS
  1
RASTERVARIABLES
  2
AcDbRasterVariables
  3
ISM
 90
    32768
280
         0
281
         0
  0
CLASS
  1
IMAGEDEF
  2
AcDbRasterImageDef
  3
ISM
 90
    32768
280
         0
281
         0
  0
CLASS
  1
IMAGEDEF_REACTOR
  2
AcDbRasterImageDefReactor
  3
ISM
 90
    32769
280
         0
281
         0
  0
CLASS
  1
IDBUFFER
  2
AcDbIdBuffer
  3
\"Acad\"
 90
    32768
280
         0
281
         0
  0
CLASS
  1
SPATIAL_FILTER
  2
AcDbSpatialFilter
  3
\"Acad\"
 90
    32768
280
         0
281
         0
  0
CLASS
  1
XRECORD
  2
AcDbXrecord
  3
\"<Built In>\"
 90
    32768
280
         0
281
         0
  0
CLASS
  1
SORTENTSTABLE
  2
AcDbSortentsTable
  3
\"AutoCAD\"
 90
    32768
280
         0
281
         0
  0
CLASS
  1
LAYER_INDEX
  2
AcDbLayerIndex
  3
\"Acad\"
 90
    32768
280
         0
281
         0
  0
CLASS
  1
SPATIAL_INDEX
  2
AcDbSpatialIndex
  3
\"Acad\"
 90
    32768
280
         0
281
         0
  0
CLASS
  1
OBJECT_PTR
  2
CAseDLPNTableRecord
  3
\"ASE-LPNTableRecord\"
 90
    32769
280
         0
281
         0
  0
CLASS
  1
LAYOUT
  2
AcDbLayout
  3
\"AutoCAD 2000\"
 90
    32768
280
         0
281
         0
  0
CLASS
  1
PLOTSETTINGS
  2
AcDbPlotSettings
  3
\"AutoCAD 2000\"
 90
    32768
280
         0
281
         0
  0
CLASS
  1
ACDBDICTIONARYWDFLT
  2
AcDbDictionaryWithDefault
  3
\"AutoCAD 2000\"
 90
    32768
280
         0
281
         0
  0
CLASS
  1
ACDBPLACEHOLDER
  2
AcDbPlaceHolder
  3
\"AutoCAD 2000\"
 90
    32768
280
         0
281
         0
  0
CLASS
  1
VBA_PROJECT
  2
AcDbVbaProject
  3
\"acadvba\"
 90
    32768
280
         0
281
         0
  0
CLASS
  1
WIPEOUT
  2
AcDbWipeout
  3
WipeOut|AutoCAD Express Tool|expresstools@autodesk.com
 90
    32895
280
         0
281
         1
  0
CLASS
  1
WIPEOUTVARIABLES
  2
AcDbWipeoutVariables
  3
WipeOut|AutoCAD Express Tool|expresstools@autodesk.com
 90
    32768
280
         0
281
         0
  0
CLASS
  1
RTEXT
  2
RText
  3
RText|AutoCAD Express Tool|expresstools@autodesk.com
 90
    32768
280
         0
281
         1
  0
CLASS
  1
ARCALIGNEDTEXT
  2
AcDbArcAlignedText
  3
ATEXT|AutoCAD Express Tool|expresstools@autodesk.com
 90
    32768
280
         0
281
         1
  0
ENDSEC
  0
SECTION
  2
TABLES
  0
TABLE
  2
VPORT
  5
7
100
AcDbSymbolTable
 70
         1
  0
VPORT
  5
15
100
AcDbSymbolTableRecord
100
AcDbViewportTableRecord
  2
*ACTIVE
 70
         0
 10
0.0
 20
0.0
 11
1.0
 21
1.0
 12
5.5
 22
4.25
 13
0.0
 23
0.0
 14
1.0
 24
1.0
 15
0.0
 25
0.0
 16
0.0
 26
0.0
 36
1.0
 17
0.0
 27
0.0
 37
0.0
 40
8.5
 41
0.7727272727
 42
50.0
 43
0.0
 44
0.0
 50
0.0
 51
0.0
 71
         0
 72
      2000
 73
         1
 74
         1
 75
         0
 76
         0
 77
         0
 78
         0
  0
ENDTAB
  0
TABLE
  2
LTYPE
  5
4
100
AcDbSymbolTable
 70
         8
  0
LTYPE
  5
11
100
AcDbSymbolTableRecord
100
AcDbLinetypeTableRecord
  2
BYBLOCK
 70
        64
  3

 72
        65
 73
         0
 40
0.0
  0
LTYPE
  5
12
100
AcDbSymbolTableRecord
100
AcDbLinetypeTableRecord
  2
BYLAYER
 70
        64
  3

 72
        65
 73
         0
 40
0.0
  0
LTYPE
  5
13
100
AcDbSymbolTableRecord
100
AcDbLinetypeTableRecord
  2
CONTINUOUS
 70
        64
  3
Solid line
 72
        65
 73
         0
 40
0.0
  0
LTYPE
  5
1D
100
AcDbSymbolTableRecord
100
AcDbLinetypeTableRecord
  2
HIDDEN
 70
        64
  3
Hidden __ __ __ __ __ __ __ __ __ __ __ __ __ __
 72
        65
 73
         2
 40
0.075
 49
0.05
 74
         0
 49
-0.025
 74
         0
  0
LTYPE
  5
1E
100
AcDbSymbolTableRecord
100
AcDbLinetypeTableRecord
  2
PHANTOM
 70
        64
  3
Phantom ______  __  __  ______  __  __  ______
 72
        65
 73
         6
 40
0.5
 49
0.25
 74
         0
 49
-0.05
 74
         0
 49
0.05
 74
         0
 49
-0.05
 74
         0
 49
0.05
 74
         0
 49
-0.05
 74
         0
  0
LTYPE
  5
1F
100
AcDbSymbolTableRecord
100
AcDbLinetypeTableRecord
  2
CENTER
 70
        64
  3
Center ____ _ ____ _ ____ _ ____ _ ____ _ ____
 72
        65
 73
         4
 40
0.4
 49
0.25
 74
         0
 49
-0.05
 74
         0
 49
0.05
 74
         0
 49
-0.05
 74
         0
  0
LTYPE
  5
20
100
AcDbSymbolTableRecord
100
AcDbLinetypeTableRecord
  2
CENTERX2
 70
        64
  3
Center (2x) ________  __  ________  __  _____
 72
        65
 73
         4
 40
0.8
 49
0.5
 74
         0
 49
-0.1
 74
         0
 49
0.1
 74
         0
 49
-0.1
 74
         0
  0
LTYPE
  5
21
100
AcDbSymbolTableRecord
100
AcDbLinetypeTableRecord
  2
DOT2
 70
        64
  3
Dot (.5x) ........................................
 72
        65
 73
         2
 40
0.025
 49
0.0
 74
         0
 49
-0.025
 74
         0
  0
ENDTAB
  0
TABLE
  2
LAYER
  5
2
100
AcDbSymbolTable
 70
         2
  0
LAYER
  5
14
100
AcDbSymbolTableRecord
100
AcDbLayerTableRecord
  2
0
 70
         0
 62
         7
  6
CONTINUOUS
  0
LAYER
  5
23
100
AcDbSymbolTableRecord
100
AcDbLayerTableRecord
  2
DEFPOINTS
 70
         0
 62
         7
  6
CONTINUOUS
  0
ENDTAB
  0
TABLE
  2
STYLE
  5
3
100
AcDbSymbolTable
 70
         1
  0
STYLE
  5
17
100
AcDbSymbolTableRecord
100
AcDbTextStyleTableRecord
  2
STANDARD
 70
         0
 40
0.0
 41
1.0
 50
0.0
 71
         0
 42
0.0
  3
txt
  4

  0
ENDTAB
  0
TABLE
  2
VIEW
  5
5
100
AcDbSymbolTable
 70
         0
  0
ENDTAB
  0
TABLE
  2
UCS
  5
6
100
AcDbSymbolTable
 70
         0
  0
ENDTAB
  0
TABLE
  2
APPID
  5
8
100
AcDbSymbolTable
 70
         1
  0
APPID
  5
16
100
AcDbSymbolTableRecord
100
AcDbRegAppTableRecord
  2
ACAD
 70
         0
  0
ENDTAB
  0
TABLE
  2
DIMSTYLE
  5
9
100
AcDbSymbolTable
 70
         1
  0
DIMSTYLE
105
18
100
AcDbSymbolTableRecord
100
AcDbDimStyleTableRecord
  2
STANDARD
 70
         0
  3

  4

  5

  6

  7

 40
1.0
 41
0.18
 42
0.0625
 43
0.38
 44
0.18
 45
0.0
 46
0.0
 47
0.0
 48
0.0
 71
         0
 72
         0
 73
         1
 74
         1
 75
         0
 76
         0
 77
         0
 78
         0
140
0.18
141
0.09
142
0.0
143
25.4
144
1.0
145
0.0
146
1.0
147
0.09
170
         0
171
         2
172
         0
173
         0
174
         0
175
         0
176
         0
177
         0
178
         0
270
         2
271
         4
272
         4
273
         2
274
         2
275
         0
280
         0
281
         0
282
         0
283
         1
284
         0
285
         0
286
         0
287
         0
288
         0
340
17
  0
ENDTAB
  0
TABLE
  2
BLOCK_RECORD
  5
1
100
AcDbSymbolTable
 70
         0
  0
BLOCK_RECORD
  5
A
100
AcDbSymbolTableRecord
100
AcDbBlockTableRecord
  2
*MODEL_SPACE
  0
BLOCK_RECORD
  5
B
100
AcDbSymbolTableRecord
100
AcDbBlockTableRecord
  2
*PAPER_SPACE
  0
ENDTAB
  0
ENDSEC
  0
SECTION
  2
BLOCKS
  0
BLOCK
  5
D
100
AcDbEntity
  8
0
100
AcDbBlockBegin
  2
*MODEL_SPACE
 70
         0
 10
0.0
 20
0.0
 30
0.0
  3
*MODEL_SPACE
  1

  0
ENDBLK
  5
E
100
AcDbEntity
  8
0
100
AcDbBlockEnd
  0
BLOCK
  5
F
100
AcDbEntity
 67
         1
  8
0
100
AcDbBlockBegin
  2
*PAPER_SPACE
 70
         0
 10
0.0
 20
0.0
 30
0.0
  3
*PAPER_SPACE
  1

  0
ENDBLK
  5
10
100
AcDbEntity
 67
         1
  8
0
100
AcDbBlockEnd
  0
ENDSEC
  0
SECTION
  2
ENTITIES
  0
LINE
  5
24
100
AcDbEntity
  8
0
  6
CONTINUOUS
 62
         7
100
AcDbLine
 10
5.3620634921
 20
3.2756519195
 30
0.0
 11
5.3620634921
 21
5.2316723435
 31
0.0
  0
LINE
  5
25
100
AcDbEntity
  8
0
  6
CONTINUOUS
 62
         7
100
AcDbLine
 10
6.2141006861
 20
4.9551617066
 30
0.0
 11
6.2141006861
 21
4.7006746973
 31
0.0
  0
LINE
  5
26
100
AcDbEntity
  8
0
  6
CONTINUOUS
 62
         7
100
AcDbLine
 10
6.1363427407
 20
4.6178012775
 30
0.0
 11
6.1363427407
 21
4.6079214653
 31
0.0
  0
LINE
  5
27
100
AcDbEntity
  8
0
  6
CONTINUOUS
 62
         7
100
AcDbLine
 10
6.1363427407
 20
4.6079214653
 30
0.0
 11
6.635294909
 21
4.6079214653
 31
0.0
  0
LINE
  5
28
100
AcDbEntity
  8
0
  6
CONTINUOUS
 62
         7
100
AcDbLine
 10
6.635294909
 20
4.6079214653
 30
0.0
 11
6.635294909
 21
3.9134285455
 31
0.0
  0
LINE
  5
29
100
AcDbEntity
  8
0
  6
CONTINUOUS
 62
         7
100
AcDbLine
 10
6.635294909
 20
3.9134285455
 30
0.0
 11
6.140500228
 21
3.9134285455
 31
0.0
  0
LINE
  5
2A
100
AcDbEntity
  8
0
  6
CONTINUOUS
 62
         7
100
AcDbLine
 10
6.2058261529
 20
3.8337014406
 30
0.0
 11
6.2719717181
 21
3.8105443076
 31
0.0
  0
LINE
  5
2B
100
AcDbEntity
  8
0
  6
CONTINUOUS
 62
         7
100
AcDbLine
 10
4.5183008313
 20
3.8337014406
 30
0.0
 11
4.452155266
 21
3.8105443076
 31
0.0
  0
LINE
  5
2C
100
AcDbEntity
  8
0
  6
CONTINUOUS
 62
         7
100
AcDbLine
 10
4.0888320752
 20
3.9134285455
 30
0.0
 11
4.5836267561
 21
3.9134285455
 31
0.0
  0
LINE
  5
2D
100
AcDbEntity
  8
0
  6
CONTINUOUS
 62
         7
100
AcDbLine
 10
4.0888320752
 20
4.6079214653
 30
0.0
 11
4.0888320752
 21
3.9134285455
 31
0.0
  0
LINE
  5
2E
100
AcDbEntity
  8
0
  6
CONTINUOUS
 62
         7
100
AcDbLine
 10
4.5877842435
 20
4.6079214653
 30
0.0
 11
4.0888320752
 21
4.6079214653
 31
0.0
  0
LINE
  5
2F
100
AcDbEntity
  8
0
  6
CONTINUOUS
 62
         7
100
AcDbLine
 10
4.5877842435
 20
4.6178012775
 30
0.0
 11
4.5877842435
 21
4.6079214653
 31
0.0
  0
LINE
  5
30
100
AcDbEntity
  8
0
  6
CONTINUOUS
 62
         7
100
AcDbLine
 10
4.5100262981
 20
4.9551617066
 30
0.0
 11
4.5100262981
 21
4.7006746973
 31
0.0
  0
LINE
  5
31
100
AcDbEntity
  8
0
  6
CONTINUOUS
 62
         7
100
AcDbLine
 10
4.265666819
 20
4.0808218858
 30
0.0
 11
4.3091936267
 21
4.0808218858
 31
0.0
  0
LINE
  5
32
100
AcDbEntity
  8
0
  6
CONTINUOUS
 62
         7
100
AcDbLine
 10
4.3599694295
 20
4.0808218858
 30
0.0
 11
4.4034962372
 21
4.0808218858
 31
0.0
  0
LINE
  5
33
100
AcDbEntity
  8
0
  6
CONTINUOUS
 62
         7
100
AcDbLine
 10
4.4164344611
 20
4.0808218858
 30
0.0
 11
4.4602881476
 21
4.0808218858
 31
0.0
  0
LINE
  5
34
100
AcDbEntity
  8
0
  6
CONTINUOUS
 62
         7
100
AcDbLine
 10
4.5337468044
 20
4.0808218858
 30
0.0
 11
4.5776004908
 21
4.0808218858
 31
0.0
  0
LINE
  5
35
100
AcDbEntity
  8
0
  6
CONTINUOUS
 62
         7
100
AcDbLine
 10
4.5933974676
 20
4.0808218858
 30
0.0
 11
4.6369242752
 21
4.0808218858
 31
0.0
  0
LINE
  5
36
100
AcDbEntity
  8
0
  6
CONTINUOUS
 62
         7
100
AcDbLine
 10
4.6891372489
 20
4.0808218858
 30
0.0
 11
4.7326640566
 21
4.0808218858
 31
0.0
  0
LINE
  5
37
100
AcDbEntity
  8
0
  6
CONTINUOUS
 62
         7
100
AcDbLine
 10
4.7616047532
 20
4.0808218858
 30
0.0
 11
4.8661304898
 21
4.0808218858
 31
0.0
  0
LINE
  5
38
100
AcDbEntity
  8
0
  6
CONTINUOUS
 62
         7
100
AcDbLine
 10
4.8800220242
 20
4.0808218858
 30
0.0
 11
4.993160506
 21
4.0808218858
 31
0.0
  0
LINE
  5
39
100
AcDbEntity
  8
0
  6
CONTINUOUS
 62
         7
100
AcDbLine
 10
5.0549447072
 20
4.0808218858
 30
0.0
 11
5.0983557521
 21
4.0808218858
 31
0.0
  0
LINE
  5
3A
100
AcDbEntity
  8
0
  6
CONTINUOUS
 62
         7
100
AcDbLine
 10
5.2752500833
 20
4.0808218858
 30
0.0
 11
5.3648486638
 21
4.0808218858
 31
0.0
  0
LINE
  5
3B
100
AcDbEntity
  8
0
  6
CONTINUOUS
 62
         7
100
AcDbLine
 10
5.4229044299
 20
4.0808218858
 30
0.0
 11
5.4667616793
 21
4.0808218858
 31
0.0
  0
LINE
  5
3C
100
AcDbEntity
  8
0
  6
CONTINUOUS
 62
         7
100
AcDbLine
 10
5.5402185303
 20
4.0808218858
 30
0.0
 11
5.5840722167
 21
4.0808218858
 31
0.0
  0
LINE
  5
3D
100
AcDbEntity
  8
0
  6
CONTINUOUS
 62
         7
100
AcDbLine
 10
5.6226768018
 20
4.0808218858
 30
0.0
 11
5.6766222603
 21
4.0808218858
 31
0.0
  0
LINE
  5
3E
100
AcDbEntity
  8
0
  6
CONTINUOUS
 62
         7
100
AcDbLine
 10
5.7382444011
 20
4.0808218858
 30
0.0
 11
5.789663397
 21
4.0808218858
 31
0.0
  0
LINE
  5
3F
100
AcDbEntity
  8
0
  6
CONTINUOUS
 62
         7
100
AcDbLine
 10
5.8209453393
 20
4.0808218858
 30
0.0
 11
5.9105439199
 21
4.0808218858
 31
0.0
  0
LINE
  5
40
100
AcDbEntity
  8
0
  6
CONTINUOUS
 62
         7
100
AcDbLine
 10
6.0404695983
 20
4.0808218858
 30
0.0
 11
6.0643995277
 21
4.0808218858
 31
0.0
  0
LINE
  5
41
100
AcDbEntity
  8
0
  6
CONTINUOUS
 62
         7
100
AcDbLine
 10
6.208216107
 20
4.0808218858
 30
0.0
 11
6.2255720405
 21
4.0808218858
 31
0.0
  0
LINE
  5
42
100
AcDbEntity
  8
0
  6
CONTINUOUS
 62
         7
100
AcDbLine
 10
6.3149409115
 20
4.0808218858
 30
0.0
 11
6.3584677193
 21
4.0808218858
 31
0.0
  0
LINE
  5
43
100
AcDbEntity
  8
0
  6
CONTINUOUS
 62
         7
100
AcDbLine
 10
4.265666819
 20
4.4312968001
 30
0.0
 11
4.3091936267
 21
4.4312968001
 31
0.0
  0
LINE
  5
44
100
AcDbEntity
  8
0
  6
CONTINUOUS
 62
         7
100
AcDbLine
 10
4.3599694295
 20
4.4312968001
 30
0.0
 11
4.4034962372
 21
4.4312968001
 31
0.0
  0
LINE
  5
45
100
AcDbEntity
  8
0
  6
CONTINUOUS
 62
         7
100
AcDbLine
 10
4.4594673697
 20
4.4312968001
 30
0.0
 11
4.5345675823
 21
4.4312968001
 31
0.0
  0
LINE
  5
46
100
AcDbEntity
  8
0
  6
CONTINUOUS
 62
         7
100
AcDbLine
 10
4.5933974676
 20
4.4312968001
 30
0.0
 11
4.6891372489
 21
4.4312968001
 31
0.0
  0
LINE
  5
47
100
AcDbEntity
  8
0
  6
CONTINUOUS
 62
         7
100
AcDbLine
 10
4.7616047532
 20
4.4312968001
 30
0.0
 11
4.8051315609
 21
4.4312968001
 31
0.0
  0
LINE
  5
48
100
AcDbEntity
  8
0
  6
CONTINUOUS
 62
         7
100
AcDbLine
 10
4.8800220242
 20
4.4312968001
 30
0.0
 11
4.993160506
 21
4.4312968001
 31
0.0
  0
LINE
  5
49
100
AcDbEntity
  8
0
  6
CONTINUOUS
 62
         7
100
AcDbLine
 10
5.0041799264
 20
4.4312968001
 30
0.0
 11
5.048851668
 21
4.4312968001
 31
0.0
  0
LINE
  5
4A
100
AcDbEntity
  8
0
  6
CONTINUOUS
 62
         7
100
AcDbLine
 10
5.1044487913
 20
4.4312968001
 30
0.0
 11
5.1491205328
 21
4.4312968001
 31
0.0
  0
LINE
  5
4B
100
AcDbEntity
  8
0
  6
CONTINUOUS
 62
         7
100
AcDbLine
 10
5.2752500833
 20
4.4312968001
 30
0.0
 11
5.3648486638
 21
4.4312968001
 31
0.0
  0
LINE
  5
4C
100
AcDbEntity
  8
0
  6
CONTINUOUS
 62
         7
100
AcDbLine
 10
5.4659373114
 20
4.4312968001
 30
0.0
 11
5.5410375242
 21
4.4312968001
 31
0.0
  0
LINE
  5
4D
100
AcDbEntity
  8
0
  6
CONTINUOUS
 62
         7
100
AcDbLine
 10
5.5796438933
 20
4.4312968001
 30
0.0
 11
5.6234975798
 21
4.4312968001
 31
0.0
  0
LINE
  5
4E
100
AcDbEntity
  8
0
  6
CONTINUOUS
 62
         7
100
AcDbLine
 10
5.6758014823
 20
4.4312968001
 30
0.0
 11
5.7196551687
 21
4.4312968001
 31
0.0
  0
LINE
  5
4F
100
AcDbEntity
  8
0
  6
CONTINUOUS
 62
         7
100
AcDbLine
 10
5.7382444011
 20
4.4312968001
 30
0.0
 11
5.789663397
 21
4.4312968001
 31
0.0
  0
LINE
  5
50
100
AcDbEntity
  8
0
  6
CONTINUOUS
 62
         7
100
AcDbLine
 10
5.8209453393
 20
4.4312968001
 30
0.0
 11
5.9105439171
 21
4.4312968001
 31
0.0
  0
LINE
  5
51
100
AcDbEntity
  8
0
  6
CONTINUOUS
 62
         7
100
AcDbLine
 10
6.0404695983
 20
4.4312968001
 30
0.0
 11
6.0643995277
 21
4.4312968001
 31
0.0
  0
LINE
  5
52
100
AcDbEntity
  8
0
  6
CONTINUOUS
 62
         7
100
AcDbLine
 10
6.208216107
 20
4.4312968001
 30
0.0
 11
6.2255720405
 21
4.4312968001
 31
0.0
  0
LINE
  5
53
100
AcDbEntity
  8
0
  6
CONTINUOUS
 62
         7
100
AcDbLine
 10
6.3149409115
 20
4.4312968001
 30
0.0
 11
6.3653624864
 21
4.4312968001
 31
0.0
  0
LINE
  5
54
100
AcDbEntity
  8
0
  6
CONTINUOUS
 62
         7
100
AcDbLine
 10
4.3599694295
 20
4.0808218858
 30
0.0
 11
4.3599694295
 21
4.2357845584
 31
0.0
  0
LINE
  5
55
100
AcDbEntity
  8
0
  6
CONTINUOUS
 62
         7
100
AcDbLine
 10
4.3091936267
 20
4.0808218858
 30
0.0
 11
4.3091936267
 21
4.2357845584
 31
0.0
  0
LINE
  5
56
100
AcDbEntity
  8
0
  6
CONTINUOUS
 62
         7
100
AcDbLine
 10
5.8644786469
 20
4.3925252729
 30
0.0
 11
5.8873908669
 21
4.3925252786
 31
0.0
  0
LINE
  5
57
100
AcDbEntity
  8
0
  6
CONTINUOUS
 62
         7
100
AcDbLine
 10
5.8644786469
 20
4.1291039797
 30
0.0
 11
5.8873908669
 21
4.1291039797
 31
0.0
  0
LINE
  5
58
100
AcDbEntity
  8
0
  6
CONTINUOUS
 62
         7
100
AcDbLine
 10
6.0786340855
 20
4.1474939069
 30
0.0
 11
6.0786340855
 21
4.1854819572
 31
0.0
  0
LINE
  5
59
100
AcDbEntity
  8
0
  6
CONTINUOUS
 62
         7
100
AcDbLine
 10
6.1222809209
 20
4.138703279
 30
0.0
 11
6.1222809209
 21
4.1897630838
 31
0.0
  0
LINE
  5
5A
100
AcDbEntity
  8
0
  6
CONTINUOUS
 62
         7
100
AcDbLine
 10
6.0259890715
 20
4.1474939069
 30
0.0
 11
6.0259890715
 21
4.2029998685
 31
0.0
  0
LINE
  5
5B
100
AcDbEntity
  8
0
  6
CONTINUOUS
 62
         7
100
AcDbLine
 10
5.9825882052
 20
4.138703279
 30
0.0
 11
5.9825882052
 21
4.2029998685
 31
0.0
  0
LINE
  5
5C
100
AcDbEntity
  8
0
  6
CONTINUOUS
 62
         7
100
AcDbLine
 10
4.8051315609
 20
4.1243413496
 30
0.0
 11
4.8661304898
 21
4.1243413496
 31
0.0
  0
LINE
  5
5D
100
AcDbEntity
  8
0
  6
CONTINUOUS
 62
         7
100
AcDbLine
 10
4.9235509607
 20
4.1243413496
 30
0.0
 11
4.993160506
 21
4.1243413496
 31
0.0
  0
LINE
  5
5E
100
AcDbEntity
  8
0
  6
CONTINUOUS
 62
         7
100
AcDbLine
 10
5.318775899
 20
4.1245921361
 30
0.0
 11
5.341936502
 21
4.1245921361
 31
0.0
  0
LINE
  5
5F
100
AcDbEntity
  8
0
  6
CONTINUOUS
 62
         7
100
AcDbLine
 10
5.4667616793
 20
4.0808218858
 30
0.0
 11
5.4779398446
 21
4.1718754441
 31
0.0
  0
LINE
  5
60
100
AcDbEntity
  8
0
  6
CONTINUOUS
 62
         7
100
AcDbLine
 10
5.5069491193
 20
4.3517794936
 30
0.0
 11
5.5224498049
 21
4.225536541
 31
0.0
  0
LINE
  5
61
100
AcDbEntity
  8
0
  6
CONTINUOUS
 62
         7
100
AcDbLine
 10
4.4714681188
 20
4.171875444
 30
0.0
 11
4.5225668332
 21
4.171875444
 31
0.0
  0
LINE
  5
62
100
AcDbEntity
  8
0
  6
CONTINUOUS
 62
         7
100
AcDbLine
 10
4.6369242752
 20
4.3877697733
 30
0.0
 11
4.6601965523
 21
4.3877697733
 31
0.0
  0
LINE
  5
63
100
AcDbEntity
  8
0
  6
CONTINUOUS
 62
         7
100
AcDbLine
 10
4.9235488319
 20
4.3877699924
 30
0.0
 11
4.993160506
 21
4.3877699924
 31
0.0
  0
LINE
  5
64
100
AcDbEntity
  8
0
  6
CONTINUOUS
 62
         7
100
AcDbLine
 10
4.993160506
 20
4.0808218858
 30
0.0
 11
4.993160506
 21
4.1243413496
 31
0.0
  0
LINE
  5
65
100
AcDbEntity
  8
0
  6
CONTINUOUS
 62
         7
100
AcDbLine
 10
4.993160506
 20
4.2428897868
 30
0.0
 11
4.993160506
 21
4.2923814563
 31
0.0
  0
LINE
  5
66
100
AcDbEntity
  8
0
  6
CONTINUOUS
 62
         7
100
AcDbLine
 10
4.9235509607
 20
4.1243413496
 30
0.0
 11
4.9235509607
 21
4.2428897868
 31
0.0
  0
LINE
  5
67
100
AcDbEntity
  8
0
  6
CONTINUOUS
 62
         7
100
AcDbLine
 10
4.6369242752
 20
4.0808218858
 30
0.0
 11
4.6369242752
 21
4.2173704092
 31
0.0
  0
LINE
  5
68
100
AcDbEntity
  8
0
  6
CONTINUOUS
 62
         7
100
AcDbLine
 10
4.6891372489
 20
4.0808218858
 30
0.0
 11
4.6891372489
 21
4.1738436015
 31
0.0
  0
LINE
  5
69
100
AcDbEntity
  8
0
  6
CONTINUOUS
 62
         7
100
AcDbLine
 10
4.7326640566
 20
4.0808218858
 30
0.0
 11
4.7326640566
 21
4.2034788748
 31
0.0
  0
LINE
  5
6A
100
AcDbEntity
  8
0
  6
CONTINUOUS
 62
         7
100
AcDbLine
 10
4.5004791774
 20
4.3517647451
 30
0.0
 11
4.515979863
 21
4.2255217925
 31
0.0
  0
LINE
  5
6B
100
AcDbEntity
  8
0
  6
CONTINUOUS
 62
         7
100
AcDbLine
 10
4.4602881476
 20
4.0808218858
 30
0.0
 11
4.4714681188
 21
4.171875444
 31
0.0
  0
LINE
  5
6C
100
AcDbEntity
  8
0
  6
CONTINUOUS
 62
         7
100
AcDbLine
 10
4.3091936267
 20
4.2793524292
 30
0.0
 11
4.3599694295
 21
4.2793524292
 31
0.0
  0
LINE
  5
6D
100
AcDbEntity
  8
0
  6
CONTINUOUS
 62
         7
100
AcDbLine
 10
4.3599694295
 20
4.4312968001
 30
0.0
 11
4.3599694295
 21
4.2793524292
 31
0.0
  0
LINE
  5
6E
100
AcDbEntity
  8
0
  6
CONTINUOUS
 62
         7
100
AcDbLine
 10
4.3091936267
 20
4.4312968001
 30
0.0
 11
4.3091936267
 21
4.2793524292
 31
0.0
  0
LINE
  5
6F
100
AcDbEntity
  8
0
  6
CONTINUOUS
 62
         7
100
AcDbLine
 10
4.3091936267
 20
4.2357845584
 30
0.0
 11
4.3599694295
 21
4.2357845584
 31
0.0
  0
LINE
  5
70
100
AcDbEntity
  8
0
  6
CONTINUOUS
 62
         7
100
AcDbLine
 10
6.2399321386
 20
4.3709934061
 30
0.0
 11
6.2399321386
 21
4.1506358637
 31
0.0
  0
LINE
  5
71
100
AcDbEntity
  8
0
  6
CONTINUOUS
 62
         7
100
AcDbLine
 10
6.2184002603
 20
4.3925252844
 30
0.0
 11
6.2153932361
 21
4.3925252844
 31
0.0
  0
LINE
  5
72
100
AcDbEntity
  8
0
  6
CONTINUOUS
 62
         7
100
AcDbLine
 10
6.1938613578
 20
4.3709934061
 30
0.0
 11
6.1938613578
 21
4.1506358637
 31
0.0
  0
LINE
  5
73
100
AcDbEntity
  8
0
  6
CONTINUOUS
 62
         7
100
AcDbLine
 10
6.2184002603
 20
4.1291039854
 30
0.0
 11
6.2153932361
 21
4.1291039854
 31
0.0
  0
LINE
  5
74
100
AcDbEntity
  8
0
  6
CONTINUOUS
 62
         7
100
AcDbLine
 10
6.2834534337
 20
4.3734154069
 30
0.0
 11
6.2834534337
 21
4.138703279
 31
0.0
  0
LINE
  5
75
100
AcDbEntity
  8
0
  6
CONTINUOUS
 62
         7
100
AcDbLine
 10
6.1503347138
 20
4.3734154069
 30
0.0
 11
6.1503347138
 21
4.138703279
 31
0.0
  0
LINE
  5
76
100
AcDbEntity
  8
0
  6
CONTINUOUS
 62
         7
100
AcDbLine
 10
6.0786340855
 20
4.3093898802
 30
0.0
 11
6.1222809209
 21
4.3093898802
 31
0.0
  0
LINE
  5
77
100
AcDbEntity
  8
0
  6
CONTINUOUS
 62
         7
100
AcDbLine
 10
6.0786340855
 20
4.3648958043
 30
0.0
 11
6.0786340855
 21
4.3093898802
 31
0.0
  0
LINE
  5
78
100
AcDbEntity
  8
0
  6
CONTINUOUS
 62
         7
100
AcDbLine
 10
6.1222809209
 20
4.3734154069
 30
0.0
 11
6.1222809209
 21
4.3093898802
 31
0.0
  0
LINE
  5
79
100
AcDbEntity
  8
0
  6
CONTINUOUS
 62
         7
100
AcDbLine
 10
6.0491416316
 20
4.3880483616
 30
0.0
 11
6.0554815282
 21
4.3880483616
 31
0.0
  0
LINE
  5
7A
100
AcDbEntity
  8
0
  6
CONTINUOUS
 62
         7
100
AcDbLine
 10
6.0259890715
 20
4.3028322602
 30
0.0
 11
6.0259890715
 21
4.3648958015
 31
0.0
  0
LINE
  5
7B
100
AcDbEntity
  8
0
  6
CONTINUOUS
 62
         7
100
AcDbLine
 10
5.9825882052
 20
4.2983653752
 30
0.0
 11
5.9825882052
 21
4.3734154069
 31
0.0
  0
LINE
  5
7C
100
AcDbEntity
  8
0
  6
CONTINUOUS
 62
         7
100
AcDbLine
 10
6.0351885755
 20
4.2843565135
 30
0.0
 11
6.0992821608
 21
4.2359524504
 31
0.0
  0
LINE
  5
7D
100
AcDbEntity
  8
0
  6
CONTINUOUS
 62
         7
100
AcDbLine
 10
6.0055869654
 20
4.2521760085
 30
0.0
 11
6.0694345814
 21
4.2039577038
 31
0.0
  0
LINE
  5
7E
100
AcDbEntity
  8
0
  6
CONTINUOUS
 62
         7
100
AcDbLine
 10
5.9825882052
 20
4.2029998685
 30
0.0
 11
6.0259890715
 21
4.2029998685
 31
0.0
  0
LINE
  5
7F
100
AcDbEntity
  8
0
  6
CONTINUOUS
 62
         7
100
AcDbLine
 10
6.0491416287
 20
4.1243413496
 30
0.0
 11
6.0554815282
 21
4.1243413496
 31
0.0
  0
LINE
  5
80
100
AcDbEntity
  8
0
  6
CONTINUOUS
 62
         7
100
AcDbLine
 10
5.9105434242
 20
4.3693727213
 30
0.0
 11
5.9105434242
 21
4.152256537
 31
0.0
  0
LINE
  5
81
100
AcDbEntity
  8
0
  6
CONTINUOUS
 62
         7
100
AcDbLine
 10
5.8644786469
 20
4.3925252729
 30
0.0
 11
5.8644786469
 21
4.1291039797
 31
0.0
  0
LINE
  5
82
100
AcDbEntity
  8
0
  6
CONTINUOUS
 62
         7
100
AcDbLine
 10
5.9540707276
 20
4.3877699896
 30
0.0
 11
5.9540707276
 21
4.1243486935
 31
0.0
  0
LINE
  5
83
100
AcDbEntity
  8
0
  6
CONTINUOUS
 62
         7
100
AcDbLine
 10
5.8209453393
 20
4.4312968001
 30
0.0
 11
5.8209453393
 21
4.0808218858
 31
0.0
  0
LINE
  5
84
100
AcDbEntity
  8
0
  6
CONTINUOUS
 62
         7
100
AcDbLine
 10
5.6496495311
 20
4.1824775989
 30
0.0
 11
5.6758014823
 21
4.4312968001
 31
0.0
  0
LINE
  5
85
100
AcDbEntity
  8
0
  6
CONTINUOUS
 62
         7
100
AcDbLine
 10
5.6496495311
 20
4.1824775989
 30
0.0
 11
5.6234975798
 21
4.4312968001
 31
0.0
  0
LINE
  5
86
100
AcDbEntity
  8
0
  6
CONTINUOUS
 62
         7
100
AcDbLine
 10
5.6766222603
 20
4.0808218858
 30
0.0
 11
5.7196551687
 21
4.4312968001
 31
0.0
  0
LINE
  5
87
100
AcDbEntity
  8
0
  6
CONTINUOUS
 62
         7
100
AcDbLine
 10
5.5000257163
 20
4.3517794936
 30
0.0
 11
5.5069491193
 21
4.3517794936
 31
0.0
  0
LINE
  5
88
100
AcDbEntity
  8
0
  6
CONTINUOUS
 62
         7
100
AcDbLine
 10
5.5000257163
 20
4.3517794936
 30
0.0
 11
5.4845275346
 21
4.225536541
 31
0.0
  0
LINE
  5
89
100
AcDbEntity
  8
0
  6
CONTINUOUS
 62
         7
100
AcDbLine
 10
5.4845275346
 20
4.225536541
 30
0.0
 11
5.5224498049
 21
4.225536541
 31
0.0
  0
LINE
  5
8A
100
AcDbEntity
  8
0
  6
CONTINUOUS
 62
         7
100
AcDbLine
 10
5.5796438933
 20
4.4312968001
 30
0.0
 11
5.6226768018
 21
4.0808218858
 31
0.0
  0
LINE
  5
8B
100
AcDbEntity
  8
0
  6
CONTINUOUS
 62
         7
100
AcDbLine
 10
5.5290385591
 20
4.1718754441
 30
0.0
 11
5.5402185303
 21
4.0808218858
 31
0.0
  0
LINE
  5
8C
100
AcDbEntity
  8
0
  6
CONTINUOUS
 62
         7
100
AcDbLine
 10
5.5290385591
 20
4.1718754441
 30
0.0
 11
5.4779398446
 21
4.1718754441
 31
0.0
  0
LINE
  5
8D
100
AcDbEntity
  8
0
  6
CONTINUOUS
 62
         7
100
AcDbLine
 10
5.4659373114
 20
4.4312968001
 30
0.0
 11
5.4229044299
 21
4.0808218858
 31
0.0
  0
LINE
  5
8E
100
AcDbEntity
  8
0
  6
CONTINUOUS
 62
         7
100
AcDbLine
 10
5.5410375242
 20
4.4312968001
 30
0.0
 11
5.5840722167
 21
4.0808218858
 31
0.0
  0
LINE
  5
8F
100
AcDbEntity
  8
0
  6
CONTINUOUS
 62
         7
100
AcDbLine
 10
5.3648466798
 20
4.364618499
 30
0.0
 11
5.3648466798
 21
4.1475023139
 31
0.0
  0
LINE
  5
90
100
AcDbEntity
  8
0
  6
CONTINUOUS
 62
         7
100
AcDbLine
 10
5.3416941225
 20
4.3877710563
 30
0.0
 11
5.318775899
 21
4.3877710563
 31
0.0
  0
LINE
  5
91
100
AcDbEntity
  8
0
  6
CONTINUOUS
 62
         7
100
AcDbLine
 10
5.318775899
 20
4.3877710563
 30
0.0
 11
5.318775899
 21
4.1245921361
 31
0.0
  0
LINE
  5
92
100
AcDbEntity
  8
0
  6
CONTINUOUS
 62
         7
100
AcDbLine
 10
5.4083754715
 20
4.3877699924
 30
0.0
 11
5.4083754715
 21
4.1243486935
 31
0.0
  0
LINE
  5
93
100
AcDbEntity
  8
0
  6
CONTINUOUS
 62
         7
100
AcDbLine
 10
5.2752500833
 20
4.4312968001
 30
0.0
 11
5.2752500833
 21
4.0808218858
 31
0.0
  0
LINE
  5
94
100
AcDbEntity
  8
0
  6
CONTINUOUS
 62
         7
100
AcDbLine
 10
5.1595028229
 20
4.2737502593
 30
0.0
 11
5.1595028229
 21
4.2319522532
 31
0.0
  0
LINE
  5
95
100
AcDbEntity
  8
0
  6
CONTINUOUS
 62
         7
100
AcDbLine
 10
5.2430988119
 20
4.2737502593
 30
0.0
 11
5.2430988119
 21
4.2319522532
 31
0.0
  0
LINE
  5
96
100
AcDbEntity
  8
0
  6
CONTINUOUS
 62
         7
100
AcDbLine
 10
5.1595028229
 20
4.2319522532
 30
0.0
 11
5.2430988119
 21
4.2319522532
 31
0.0
  0
LINE
  5
97
100
AcDbEntity
  8
0
  6
CONTINUOUS
 62
         7
100
AcDbLine
 10
5.1595028229
 20
4.2737502593
 30
0.0
 11
5.2430988119
 21
4.2737502593
 31
0.0
  0
LINE
  5
98
100
AcDbEntity
  8
0
  6
CONTINUOUS
 62
         7
100
AcDbLine
 10
5.0983557521
 20
4.2114103773
 30
0.0
 11
5.0983557521
 21
4.0808218858
 31
0.0
  0
LINE
  5
99
100
AcDbEntity
  8
0
  6
CONTINUOUS
 62
         7
100
AcDbLine
 10
5.0549447072
 20
4.2114103773
 30
0.0
 11
5.0549447072
 21
4.0808218858
 31
0.0
  0
LINE
  5
9A
100
AcDbEntity
  8
0
  6
CONTINUOUS
 62
         7
100
AcDbLine
 10
5.0766502296
 20
4.3108880011
 30
0.0
 11
5.1044487913
 21
4.4312968001
 31
0.0
  0
LINE
  5
9B
100
AcDbEntity
  8
0
  6
CONTINUOUS
 62
         7
100
AcDbLine
 10
5.0766502296
 20
4.3108880011
 30
0.0
 11
5.048851668
 21
4.4312968001
 31
0.0
  0
LINE
  5
9C
100
AcDbEntity
  8
0
  6
CONTINUOUS
 62
         7
100
AcDbLine
 10
5.0983557521
 20
4.2114103773
 30
0.0
 11
5.1491205328
 21
4.4312968001
 31
0.0
  0
LINE
  5
9D
100
AcDbEntity
  8
0
  6
CONTINUOUS
 62
         7
100
AcDbLine
 10
5.0549447072
 20
4.2114103773
 30
0.0
 11
5.0041799264
 21
4.4312968001
 31
0.0
  0
LINE
  5
9E
100
AcDbEntity
  8
0
  6
CONTINUOUS
 62
         7
100
AcDbLine
 10
4.993160506
 20
4.3877699924
 30
0.0
 11
4.993160506
 21
4.4312968001
 31
0.0
  0
LINE
  5
9F
100
AcDbEntity
  8
0
  6
CONTINUOUS
 62
         7
100
AcDbLine
 10
4.9235488319
 20
4.2923814563
 30
0.0
 11
4.993160506
 21
4.2923814563
 31
0.0
  0
LINE
  5
A0
100
AcDbEntity
  8
0
  6
CONTINUOUS
 62
         7
100
AcDbLine
 10
5.789663397
 20
4.4312968001
 30
0.0
 11
5.789663397
 21
4.0808218858
 31
0.0
  0
LINE
  5
A1
100
AcDbEntity
  8
0
  6
CONTINUOUS
 62
         7
100
AcDbLine
 10
5.7382444011
 20
4.4312968001
 30
0.0
 11
5.7382444011
 21
4.0808218858
 31
0.0
  0
LINE
  5
A2
100
AcDbEntity
  8
0
  6
CONTINUOUS
 62
         7
100
AcDbLine
 10
4.9235509607
 20
4.2428897868
 30
0.0
 11
4.993160506
 21
4.2428897868
 31
0.0
  0
LINE
  5
A3
100
AcDbEntity
  8
0
  6
CONTINUOUS
 62
         7
100
AcDbLine
 10
4.8800220242
 20
4.4312968001
 30
0.0
 11
4.8800220242
 21
4.0808218858
 31
0.0
  0
LINE
  5
A4
100
AcDbEntity
  8
0
  6
CONTINUOUS
 62
         7
100
AcDbLine
 10
4.9235488319
 20
4.3877699924
 30
0.0
 11
4.9235488319
 21
4.2923814563
 31
0.0
  0
LINE
  5
A5
100
AcDbEntity
  8
0
  6
CONTINUOUS
 62
         7
100
AcDbLine
 10
4.8661304898
 20
4.1243413496
 30
0.0
 11
4.8661304898
 21
4.0808218858
 31
0.0
  0
LINE
  5
A6
100
AcDbEntity
  8
0
  6
CONTINUOUS
 62
         7
100
AcDbLine
 10
4.8051315609
 20
4.1243413496
 30
0.0
 11
4.8051315609
 21
4.4312968001
 31
0.0
  0
LINE
  5
A7
100
AcDbEntity
  8
0
  6
CONTINUOUS
 62
         7
100
AcDbLine
 10
4.7616047532
 20
4.0808218858
 30
0.0
 11
4.7616047532
 21
4.4312968001
 31
0.0
  0
LINE
  5
A8
100
AcDbEntity
  8
0
  6
CONTINUOUS
 62
         7
100
AcDbLine
 10
4.6369242752
 20
4.3877697733
 30
0.0
 11
4.6369242752
 21
4.2789559925
 31
0.0
  0
LINE
  5
A9
100
AcDbEntity
  8
0
  6
CONTINUOUS
 62
         7
100
AcDbLine
 10
4.6456104412
 20
4.2173704092
 30
0.0
 11
4.6369242752
 21
4.2173704092
 31
0.0
  0
LINE
  5
AA
100
AcDbEntity
  8
0
  6
CONTINUOUS
 62
         7
100
AcDbLine
 10
4.6369242752
 20
4.2789559925
 30
0.0
 11
4.6601965523
 21
4.2789559925
 31
0.0
  0
LINE
  5
AB
100
AcDbEntity
  8
0
  6
CONTINUOUS
 62
         7
100
AcDbLine
 10
4.6891372489
 20
4.3078966891
 30
0.0
 11
4.6891372489
 21
4.3588290767
 31
0.0
  0
LINE
  5
AC
100
AcDbEntity
  8
0
  6
CONTINUOUS
 62
         7
100
AcDbLine
 10
4.7326640566
 20
4.2905324902
 30
0.0
 11
4.7326640566
 21
4.3877699924
 31
0.0
  0
LINE
  5
AD
100
AcDbEntity
  8
0
  6
CONTINUOUS
 62
         7
100
AcDbLine
 10
4.5933974676
 20
4.0808218858
 30
0.0
 11
4.5933974676
 21
4.4312968001
 31
0.0
  0
LINE
  5
AE
100
AcDbEntity
  8
0
  6
CONTINUOUS
 62
         7
100
AcDbLine
 10
4.4935557745
 20
4.3517647451
 30
0.0
 11
4.5004791774
 21
4.3517647451
 31
0.0
  0
LINE
  5
AF
100
AcDbEntity
  8
0
  6
CONTINUOUS
 62
         7
100
AcDbLine
 10
4.4935557745
 20
4.3517647451
 30
0.0
 11
4.478055089
 21
4.2255217925
 31
0.0
  0
LINE
  5
B0
100
AcDbEntity
  8
0
  6
CONTINUOUS
 62
         7
100
AcDbLine
 10
4.478055089
 20
4.2255217925
 30
0.0
 11
4.515979863
 21
4.2255217925
 31
0.0
  0
LINE
  5
B1
100
AcDbEntity
  8
0
  6
CONTINUOUS
 62
         7
100
AcDbLine
 10
4.5225668332
 20
4.171875444
 30
0.0
 11
4.5337468044
 21
4.0808218858
 31
0.0
  0
LINE
  5
B2
100
AcDbEntity
  8
0
  6
CONTINUOUS
 62
         7
100
AcDbLine
 10
4.5345675823
 20
4.4312968001
 30
0.0
 11
4.5776004908
 21
4.0808218858
 31
0.0
  0
LINE
  5
B3
100
AcDbEntity
  8
0
  6
CONTINUOUS
 62
         7
100
AcDbLine
 10
4.4594673697
 20
4.4312968001
 30
0.0
 11
4.4164344611
 21
4.0808218858
 31
0.0
  0
LINE
  5
B4
100
AcDbEntity
  8
0
  6
CONTINUOUS
 62
         7
100
AcDbLine
 10
4.265666819
 20
4.4312968001
 30
0.0
 11
4.265666819
 21
4.0808218858
 31
0.0
  0
LINE
  5
B5
100
AcDbEntity
  8
0
  6
CONTINUOUS
 62
         7
100
AcDbLine
 10
6.4146509102
 20
4.4312968001
 30
0.0
 11
6.4581777179
 21
4.4312968001
 31
0.0
  0
LINE
  5
B6
100
AcDbEntity
  8
0
  6
CONTINUOUS
 62
         7
100
AcDbLine
 10
4.4034962372
 20
4.4312968001
 30
0.0
 11
4.4034962372
 21
4.0808218858
 31
0.0
  0
LINE
  5
B7
100
AcDbEntity
  8
0
  6
CONTINUOUS
 62
         7
100
AcDbLine
 10
6.3584677193
 20
4.2894873867
 30
0.0
 11
6.3584677193
 21
4.0808218858
 31
0.0
  0
LINE
  5
B8
100
AcDbEntity
  8
0
  6
CONTINUOUS
 62
         7
100
AcDbLine
 10
6.3584677193
 20
4.2894873867
 30
0.0
 11
6.4146509102
 21
4.0808218858
 31
0.0
  0
LINE
  5
B9
100
AcDbEntity
  8
0
  6
CONTINUOUS
 62
         7
100
AcDbLine
 10
6.4146509102
 20
4.4312968001
 30
0.0
 11
6.4146509102
 21
4.248238603
 31
0.0
  0
LINE
  5
BA
100
AcDbEntity
  8
0
  6
CONTINUOUS
 62
         7
100
AcDbLine
 10
6.3653624864
 20
4.4312968001
 30
0.0
 11
6.4146509102
 21
4.248238603
 31
0.0
  0
LINE
  5
BB
100
AcDbEntity
  8
0
  6
CONTINUOUS
 62
         7
100
AcDbLine
 10
6.4146509102
 20
4.0808218858
 30
0.0
 11
6.4581777179
 21
4.0808218858
 31
0.0
  0
LINE
  5
BC
100
AcDbEntity
  8
0
  6
CONTINUOUS
 62
         7
100
AcDbLine
 10
6.4581777179
 20
4.4312968001
 30
0.0
 11
6.4581777179
 21
4.0808218858
 31
0.0
  0
LINE
  5
BD
100
AcDbEntity
  8
0
  6
CONTINUOUS
 62
         7
100
AcDbLine
 10
6.3149409115
 20
4.4312968001
 30
0.0
 11
6.3149409115
 21
4.0808218858
 31
0.0
  0
LINE
  5
BE
100
AcDbEntity
  8
0
  6
CONTINUOUS
 62
         7
100
AcDbLine
 10
5.5866192129
 20
4.6519530787
 30
0.0
 11
5.5866192129
 21
4.6079530787
 31
0.0
  0
LINE
  5
BF
100
AcDbEntity
  8
0
  6
CONTINUOUS
 62
         7
100
AcDbLine
 10
5.1406790672
 20
4.6519530787
 30
0.0
 11
5.1406790672
 21
4.6079530787
 31
0.0
  0
LINE
  5
C0
100
AcDbEntity
  8
0
  6
CONTINUOUS
 62
         7
100
AcDbLine
 10
5.1791300121
 20
4.7619538659
 30
0.0
 11
5.2231300121
 21
4.7619538659
 31
0.0
  0
LINE
  5
C1
100
AcDbEntity
  8
0
  6
CONTINUOUS
 62
         7
100
AcDbLine
 10
5.548168268
 20
4.7619538659
 30
0.0
 11
5.504168268
 21
4.7619538659
 31
0.0
  0
LINE
  5
C2
100
AcDbEntity
  8
0
  6
CONTINUOUS
 62
         7
100
AcDbLine
 10
5.6250701578
 20
4.7619538659
 30
0.0
 11
5.6690701578
 21
4.7619538659
 31
0.0
  0
LINE
  5
C3
100
AcDbEntity
  8
0
  6
CONTINUOUS
 62
         7
100
AcDbLine
 10
5.1022281222
 20
4.7619538659
 30
0.0
 11
5.0582281222
 21
4.7619538659
 31
0.0
  0
LINE
  5
C4
100
AcDbEntity
  8
0
  6
CONTINUOUS
 62
         7
100
AcDbLine
 10
5.3620634921
 20
5.0077732265
 30
0.0
 11
5.3620634921
 21
4.6079530787
 31
0.0
  0
LINE
  5
C5
100
AcDbEntity
  8
0
  6
CONTINUOUS
 62
         7
100
AcDbLine
 10
4.9491594637
 20
4.6079530787
 30
0.0
 11
4.9922719144
 21
4.6079530787
 31
0.0
  0
LINE
  5
C6
100
AcDbEntity
  8
0
  6
CONTINUOUS
 62
         7
100
AcDbLine
 10
4.7992125768
 20
4.6079530787
 30
0.0
 11
4.843299212
 21
4.6079530787
 31
0.0
  0
LINE
  5
C7
100
AcDbEntity
  8
0
  6
CONTINUOUS
 62
         7
100
AcDbLine
 10
4.9491594637
 20
4.6079530787
 30
0.0
 11
4.9491594637
 21
4.7134730338
 31
0.0
  0
LINE
  5
C8
100
AcDbEntity
  8
0
  6
CONTINUOUS
 62
         7
100
AcDbLine
 10
4.843299212
 20
4.6079530787
 30
0.0
 11
4.843299212
 21
4.69402437
 31
0.0
  0
LINE
  5
C9
100
AcDbEntity
  8
0
  6
CONTINUOUS
 62
         7
100
AcDbLine
 10
4.9359172629
 20
4.7164053717
 30
0.0
 11
4.8986312999
 21
4.6363434563
 31
0.0
  0
LINE
  5
CA
100
AcDbEntity
  8
0
  6
CONTINUOUS
 62
         7
100
AcDbLine
 10
4.8564905627
 20
4.6970635092
 30
0.0
 11
4.8860892826
 21
4.6362366549
 31
0.0
  0
LINE
  5
CB
100
AcDbEntity
  8
0
  6
CONTINUOUS
 62
         7
100
AcDbLine
 10
4.9451285934
 20
4.8389218683
 30
0.0
 11
4.8997378009
 21
4.7260684625
 31
0.0
  0
LINE
  5
CC
100
AcDbEntity
  8
0
  6
CONTINUOUS
 62
         7
100
AcDbLine
 10
4.8481001949
 20
4.8146096288
 30
0.0
 11
4.8869338462
 21
4.7258756291
 31
0.0
  0
LINE
  5
CD
100
AcDbEntity
  8
0
  6
CONTINUOUS
 62
         7
100
AcDbLine
 10
5.1791300121
 20
4.8589677284
 30
0.0
 11
5.1791300121
 21
4.6662687303
 31
0.0
  0
LINE
  5
CE
100
AcDbEntity
  8
0
  6
CONTINUOUS
 62
         7
100
AcDbLine
 10
5.1165437738
 20
4.6519530787
 30
0.0
 11
5.1648143605
 21
4.6519530787
 31
0.0
  0
LINE
  5
CF
100
AcDbEntity
  8
0
  6
CONTINUOUS
 62
         7
100
AcDbLine
 10
5.0582281222
 20
4.8510921508
 30
0.0
 11
5.0582281222
 21
4.658272213
 31
0.0
  0
LINE
  5
D0
100
AcDbEntity
  8
0
  6
CONTINUOUS
 62
         7
100
AcDbLine
 10
5.1085472565
 20
4.6079530787
 30
0.0
 11
5.1728108778
 21
4.6079530787
 31
0.0
  0
LINE
  5
D1
100
AcDbEntity
  8
0
  6
CONTINUOUS
 62
         7
100
AcDbLine
 10
5.2231300121
 20
4.8718815822
 30
0.0
 11
5.2231300121
 21
4.658272213
 31
0.0
  0
LINE
  5
D2
100
AcDbEntity
  8
0
  6
CONTINUOUS
 62
         7
100
AcDbLine
 10
5.3380634921
 20
4.6079530787
 30
0.0
 11
5.3860634921
 21
4.6079530787
 31
0.0
  0
LINE
  5
D3
100
AcDbEntity
  8
0
  6
CONTINUOUS
 62
         7
100
AcDbLine
 10
5.4782785434
 20
4.9274453926
 30
0.0
 11
5.4782785434
 21
4.9554339333
 31
0.0
  0
LINE
  5
D4
100
AcDbEntity
  8
0
  6
CONTINUOUS
 62
         7
100
AcDbLine
 10
5.2459258321
 20
4.9274850357
 30
0.0
 11
5.2459258321
 21
4.9552825685
 31
0.0
  0
LINE
  5
D5
100
AcDbEntity
  8
0
  6
CONTINUOUS
 62
         7
100
AcDbLine
 10
5.548168268
 20
4.8576390015
 30
0.0
 11
5.548168268
 21
4.6662687303
 31
0.0
  0
LINE
  5
D6
100
AcDbEntity
  8
0
  6
CONTINUOUS
 62
         7
100
AcDbLine
 10
5.6250701578
 20
4.6662687303
 30
0.0
 11
5.6250701578
 21
4.8383164831
 31
0.0
  0
LINE
  5
D7
100
AcDbEntity
  8
0
  6
CONTINUOUS
 62
         7
100
AcDbLine
 10
5.5624839196
 20
4.6519530787
 30
0.0
 11
5.6107545062
 21
4.6519530787
 31
0.0
  0
LINE
  5
D8
100
AcDbEntity
  8
0
  6
CONTINUOUS
 62
         7
100
AcDbLine
 10
5.5544874023
 20
4.6079530787
 30
0.0
 11
5.6187510236
 21
4.6079530787
 31
0.0
  0
LINE
  5
D9
100
AcDbEntity
  8
0
  6
CONTINUOUS
 62
         7
100
AcDbLine
 10
5.8799391977
 20
4.6079530787
 30
0.0
 11
5.9257026476
 21
4.6079530787
 31
0.0
  0
LINE
  5
DA
100
AcDbEntity
  8
0
  6
CONTINUOUS
 62
         7
100
AcDbLine
 10
5.7288238149
 20
4.6079530787
 30
0.0
 11
5.7723587764
 21
4.6079530787
 31
0.0
  0
LINE
  5
DB
100
AcDbEntity
  8
0
  6
CONTINUOUS
 62
         7
100
AcDbLine
 10
5.7723587764
 20
4.8002136498
 30
0.0
 11
5.7723587764
 21
4.7402797131
 31
0.0
  0
LINE
  5
DC
100
AcDbEntity
  8
0
  6
CONTINUOUS
 62
         7
100
AcDbLine
 10
5.8347241224
 20
4.7402797131
 30
0.0
 11
5.7723587764
 21
4.7402797131
 31
0.0
  0
LINE
  5
DD
100
AcDbEntity
  8
0
  6
CONTINUOUS
 62
         7
100
AcDbLine
 10
5.8093876719
 20
4.698133584
 30
0.0
 11
5.7723587764
 21
4.698133584
 31
0.0
  0
LINE
  5
DE
100
AcDbEntity
  8
0
  6
CONTINUOUS
 62
         7
100
AcDbLine
 10
5.7723587764
 20
4.6079530787
 30
0.0
 11
5.7723587764
 21
4.698133584
 31
0.0
  0
LINE
  5
DF
100
AcDbEntity
  8
0
  6
CONTINUOUS
 62
         7
100
AcDbLine
 10
5.8420296126
 20
4.6786042986
 30
0.0
 11
5.8799391977
 21
4.6079530787
 31
0.0
  0
LINE
  5
E0
100
AcDbEntity
  8
0
  6
CONTINUOUS
 62
         7
100
AcDbLine
 10
5.8825248302
 20
4.7037275492
 30
0.0
 11
5.9257026476
 21
4.6079530787
 31
0.0
  0
LINE
  5
E1
100
AcDbEntity
  8
0
  6
CONTINUOUS
 62
         7
100
AcDbLine
 10
5.7288238149
 20
4.8578857455
 30
0.0
 11
5.7288238149
 21
4.6079530787
 31
0.0
  0
LINE
  5
E2
100
AcDbEntity
  8
0
  6
CONTINUOUS
 62
         7
100
AcDbLine
 10
5.6690701578
 20
4.8499014519
 30
0.0
 11
5.6690701578
 21
4.658272213
 31
0.0
  0
LINE
  5
E3
100
AcDbEntity
  8
0
  6
CONTINUOUS
 62
         7
100
AcDbLine
 10
5.504168268
 20
4.8705234963
 30
0.0
 11
5.504168268
 21
4.658272213
 31
0.0
  0
LINE
  5
E4
100
AcDbEntity
  8
0
  6
CONTINUOUS
 62
         7
100
AcDbLine
 10
5.3860634921
 20
4.9598058017
 30
0.0
 11
5.3860634921
 21
4.6079530787
 31
0.0
  0
LINE
  5
E5
100
AcDbEntity
  8
0
  6
CONTINUOUS
 62
         7
100
AcDbLine
 10
5.3380634921
 20
4.6079530787
 30
0.0
 11
5.3380634921
 21
4.9598058017
 31
0.0
  0
LINE
  5
E6
100
AcDbEntity
  8
0
  6
CONTINUOUS
 62
         7
100
AcDbLine
 10
5.1022281222
 20
4.6662687303
 30
0.0
 11
5.1022281222
 21
4.8395346006
 31
0.0
  0
LINE
  5
E7
100
AcDbEntity
  8
0
  6
CONTINUOUS
 62
         7
100
AcDbLine
 10
4.9922719144
 20
4.6079530787
 30
0.0
 11
4.9922719144
 21
4.8480649341
 31
0.0
  0
LINE
  5
E8
100
AcDbEntity
  8
0
  6
CONTINUOUS
 62
         7
100
AcDbLine
 10
4.7992125768
 20
4.6079530787
 30
0.0
 11
4.7992125768
 21
4.8046916661
 31
0.0
  0
LINE
  5
E9
100
AcDbEntity
  8
0
  6
CONTINUOUS
 62
         7
100
AcDbLine
 10
5.7772311661
 20
3.8669024677
 30
0.0
 11
5.9023968294
 21
3.8669024677
 31
0.0
  0
LINE
  5
EA
100
AcDbEntity
  8
0
  6
CONTINUOUS
 62
         7
100
AcDbLine
 10
5.7533837794
 20
3.910429149
 30
0.0
 11
5.9023968294
 21
3.910429149
 31
0.0
  0
LINE
  5
EB
100
AcDbEntity
  8
0
  6
CONTINUOUS
 62
         7
100
AcDbLine
 10
5.7679701432
 20
3.8168009673
 30
0.0
 11
5.7679701432
 21
3.8576414449
 31
0.0
  0
LINE
  5
EC
100
AcDbEntity
  8
0
  6
CONTINUOUS
 62
         7
100
AcDbLine
 10
5.8526625815
 20
3.7640128114
 30
0.0
 11
5.7475956401
 21
3.7640128114
 31
0.0
  0
LINE
  5
ED
100
AcDbEntity
  8
0
  6
CONTINUOUS
 62
         7
100
AcDbLine
 10
5.6080155779
 20
3.8584658869
 30
0.0
 11
5.608076312
 21
3.7758293632
 31
0.0
  0
LINE
  5
EE
100
AcDbEntity
  8
0
  6
CONTINUOUS
 62
         7
100
AcDbLine
 10
5.6756974864
 20
3.5820554923
 30
0.0
 11
5.6756974864
 21
3.6065402742
 31
0.0
  0
LINE
  5
EF
100
AcDbEntity
  8
0
  6
CONTINUOUS
 62
         7
100
AcDbLine
 10
5.6081219149
 20
3.7137805098
 30
0.0
 11
5.6082036091
 21
3.6026250677
 31
0.0
  0
LINE
  5
F0
100
AcDbEntity
  8
0
  6
CONTINUOUS
 62
         7
100
AcDbLine
 10
5.6173829353
 20
3.7230483391
 30
0.0
 11
5.6644769614
 21
3.7230483391
 31
0.0
  0
LINE
  5
F1
100
AcDbEntity
  8
0
  6
CONTINUOUS
 62
         7
100
AcDbLine
 10
5.6737379842
 20
3.732309362
 30
0.0
 11
5.6737379842
 21
3.7573141238
 31
0.0
  0
LINE
  5
F2
100
AcDbEntity
  8
0
  6
CONTINUOUS
 62
         7
100
AcDbLine
 10
5.6173373324
 20
3.7665751467
 30
0.0
 11
5.6644769614
 21
3.7665751467
 31
0.0
  0
LINE
  5
F3
100
AcDbEntity
  8
0
  6
CONTINUOUS
 62
         7
100
AcDbLine
 10
5.6744246039
 20
3.9011681262
 30
0.0
 11
5.6744246039
 21
3.8769947391
 31
0.0
  0
LINE
  5
F4
100
AcDbEntity
  8
0
  6
CONTINUOUS
 62
         7
100
AcDbLine
 10
5.6172765983
 20
3.8677337162
 30
0.0
 11
5.665163581
 21
3.8677337162
 31
0.0
  0
LINE
  5
F5
100
AcDbEntity
  8
0
  6
CONTINUOUS
 62
         7
100
AcDbLine
 10
4.8517845483
 20
3.8670418616
 30
0.0
 11
4.9445671795
 21
3.8670418616
 31
0.0
  0
LINE
  5
F6
100
AcDbEntity
  8
0
  6
CONTINUOUS
 62
         7
100
AcDbLine
 10
5.5937771323
 20
3.910429149
 30
0.0
 11
5.665163581
 21
3.910429149
 31
0.0
  0
LINE
  5
F7
100
AcDbEntity
  8
0
  6
CONTINUOUS
 62
         7
100
AcDbLine
 10
5.5277869878
 20
3.5050402491
 30
0.0
 11
5.5278090574
 21
3.5319742025
 31
0.0
  0
LINE
  5
F8
100
AcDbEntity
  8
0
  6
CONTINUOUS
 62
         7
100
AcDbLine
 10
5.4033537841
 20
3.910429149
 30
0.0
 11
5.4283476038
 21
3.910429149
 31
0.0
  0
LINE
  5
F9
100
AcDbEntity
  8
0
  6
CONTINUOUS
 62
         7
100
AcDbLine
 10
5.4376086266
 20
3.5246394816
 30
0.0
 11
5.4376086266
 21
3.9011681262
 31
0.0
  0
LINE
  5
FA
100
AcDbEntity
  8
0
  6
CONTINUOUS
 62
         7
100
AcDbLine
 10
5.3420369941
 20
3.4610545837
 30
0.0
 11
5.3418987014
 21
3.4866845147
 31
0.0
  0
LINE
  5
FB
100
AcDbEntity
  8
0
  6
CONTINUOUS
 62
         7
100
AcDbLine
 10
5.3423190556
 20
3.8772339015
 30
0.0
 11
5.3423190556
 21
3.9022386634
 31
0.0
  0
LINE
  5
FC
100
AcDbEntity
  8
0
  6
CONTINUOUS
 62
         7
100
AcDbLine
 10
5.2688289918
 20
3.8679728786
 30
0.0
 11
5.3330580328
 21
3.8679728786
 31
0.0
  0
LINE
  5
FD
100
AcDbEntity
  8
0
  6
CONTINUOUS
 62
         7
100
AcDbLine
 10
5.2373845454
 20
3.910429149
 30
0.0
 11
5.3331201158
 21
3.910429149
 31
0.0
  0
LINE
  5
FE
100
AcDbEntity
  8
0
  6
CONTINUOUS
 62
         7
100
AcDbLine
 10
4.9966126326
 20
3.910429149
 30
0.0
 11
5.0429328939
 21
3.910429149
 31
0.0
  0
LINE
  5
FF
100
AcDbEntity
  8
0
  6
CONTINUOUS
 62
         7
100
AcDbLine
 10
5.1326452344
 20
3.910429149
 30
0.0
 11
5.1806717529
 21
3.910429149
 31
0.0
  0
LINE
  5
100
100
AcDbEntity
  8
0
  6
CONTINUOUS
 62
         7
100
AcDbLine
 10
5.0822602346
 20
3.8023781683
 30
0.0
 11
5.1326452344
 21
3.910429149
 31
0.0
  0
LINE
  5
101
100
AcDbEntity
  8
0
  6
CONTINUOUS
 62
         7
100
AcDbLine
 10
5.0822602346
 20
3.8023781683
 30
0.0
 11
5.0429328939
 21
3.910429149
 31
0.0
  0
LINE
  5
102
100
AcDbEntity
  8
0
  6
CONTINUOUS
 62
         7
100
AcDbLine
 10
5.1017868895
 20
3.7412600136
 30
0.0
 11
5.1017868895
 21
3.5438915726
 31
0.0
  0
LINE
  5
103
100
AcDbEntity
  8
0
  6
CONTINUOUS
 62
         7
100
AcDbLine
 10
4.8425235254
 20
3.7690151026
 30
0.0
 11
4.8425235254
 21
3.8577808387
 31
0.0
  0
LINE
  5
104
100
AcDbEntity
  8
0
  6
CONTINUOUS
 62
         7
100
AcDbLine
 10
4.9783564126
 20
3.6322012066
 30
0.0
 11
4.9888216375
 21
3.6544402774
 31
0.0
  0
LINE
  5
105
100
AcDbEntity
  8
0
  6
CONTINUOUS
 62
         7
100
AcDbLine
 10
5.2560222633
 20
3.8551661502
 30
0.0
 11
5.2560222633
 21
3.531982235
 31
0.0
  0
LINE
  5
106
100
AcDbEntity
  8
0
  6
CONTINUOUS
 62
         7
100
AcDbLine
 10
5.0566345214
 20
3.7455203649
 30
0.0
 11
5.0566345214
 21
3.5694602051
 31
0.0
  0
LINE
  5
107
100
AcDbEntity
  8
0
  6
CONTINUOUS
 62
         7
100
AcDbLine
 10
5.9058213347
 20
3.8075399444
 30
0.0
 11
5.7772311661
 21
3.8075399444
 31
0.0
  0
LINE
  5
108
100
AcDbEntity
  8
0
  6
CONTINUOUS
 62
         7
100
AcDbLine
 10
5.9150823576
 20
3.7982789215
 30
0.0
 11
5.9150823576
 21
3.7392830249
 31
0.0
  0
LINE
  5
109
100
AcDbEntity
  8
0
  6
CONTINUOUS
 62
         7
100
AcDbLine
 10
5.7254185122
 20
3.6228623946
 30
0.0
 11
5.7254185122
 21
3.6525033957
 31
0.0
  0
LINE
  5
10A
100
AcDbEntity
  8
0
  6
CONTINUOUS
 62
         7
100
AcDbLine
 10
5.9116578523
 20
3.8761634906
 30
0.0
 11
5.9116578523
 21
3.9011681262
 31
0.0
  0
LINE
  5
10B
100
AcDbEntity
  8
0
  6
CONTINUOUS
 62
         7
100
AcDbLine
 10
5.7244430828
 20
3.7871653687
 30
0.0
 11
5.7244430828
 21
3.8814884524
 31
0.0
  0
LINE
  5
10C
100
AcDbEntity
  8
0
  6
CONTINUOUS
 62
         7
100
AcDbLine
 10
5.5648364357
 20
3.5624038323
 30
0.0
 11
5.5648364357
 21
3.8814884524
 31
0.0
  0
LINE
  5
10D
100
AcDbEntity
  8
0
  6
CONTINUOUS
 62
         7
100
AcDbLine
 10
5.3940927612
 20
3.4642535163
 30
0.0
 11
5.3940927612
 21
3.9011681262
 31
0.0
  0
LINE
  5
10E
100
AcDbEntity
  8
0
  6
CONTINUOUS
 62
         7
100
AcDbLine
 10
5.2084438489
 20
3.514601095
 30
0.0
 11
5.2084438489
 21
3.8814884524
 31
0.0
  0
LINE
  5
10F
100
AcDbEntity
  8
0
  6
CONTINUOUS
 62
         7
100
AcDbLine
 10
5.1017868895
 20
3.7412600136
 30
0.0
 11
5.1806717529
 21
3.910429149
 31
0.0
  0
LINE
  5
110
100
AcDbEntity
  8
0
  6
CONTINUOUS
 62
         7
100
AcDbLine
 10
5.0566345214
 20
3.7455203649
 30
0.0
 11
4.9966126326
 21
3.910429149
 31
0.0
  0
LINE
  5
111
100
AcDbEntity
  8
0
  6
CONTINUOUS
 62
         7
100
AcDbLine
 10
4.9538282024
 20
3.8763028845
 30
0.0
 11
4.9538282024
 21
3.9011681262
 31
0.0
  0
LINE
  5
112
100
AcDbEntity
  8
0
  6
CONTINUOUS
 62
         7
100
AcDbLine
 10
4.798892975
 20
3.7568071779
 30
0.0
 11
4.798892975
 21
3.8814884524
 31
0.0
  0
LINE
  5
113
100
AcDbEntity
  8
0
  6
CONTINUOUS
 62
         7
100
AcDbLine
 10
4.8278336716
 20
3.910429149
 30
0.0
 11
4.9445671795
 21
3.910429149
 31
0.0
  0
LINE
  5
114
100
AcDbEntity
  8
0
  6
CONTINUOUS
 62
         7
100
AcDbLine
 10
4.6477842435
 20
4.6079214653
 30
0.0
 11
4.6877842435
 21
4.6079214653
 31
0.0
  0
LINE
  5
115
100
AcDbEntity
  8
0
  6
CONTINUOUS
 62
         7
100
AcDbLine
 10
6.0719887533
 20
3.9134285455
 30
0.0
 11
6.0317664387
 21
3.9134285455
 31
0.0
  0
LINE
  5
116
100
AcDbEntity
  8
0
  6
CONTINUOUS
 62
         7
100
AcDbLine
 10
6.0363427407
 20
4.6079214653
 30
0.0
 11
6.0763427407
 21
4.6079214653
 31
0.0
  0
LINE
  5
117
100
AcDbEntity
  8
0
  6
CONTINUOUS
 62
         7
100
AcDbLine
 10
4.6923605454
 20
3.9134285455
 30
0.0
 11
4.6521382308
 21
3.9134285455
 31
0.0
  0
LINE
  5
118
100
AcDbEntity
  8
0
  6
CONTINUOUS
 62
         7
100
AcDbLine
 10
4.6100262981
 20
4.8592899683
 30
0.0
 11
4.6100262981
 21
4.7675330136
 31
0.0
  0
LINE
  5
119
100
AcDbEntity
  8
0
  6
CONTINUOUS
 62
         7
100
AcDbLine
 10
4.6877842435
 20
4.6178012775
 30
0.0
 11
4.6877842435
 21
4.6079214653
 31
0.0
  0
LINE
  5
11A
100
AcDbEntity
  8
0
  6
CONTINUOUS
 62
         7
100
AcDbLine
 10
6.535294909
 20
4.0134285455
 30
0.0
 11
6.535294909
 21
4.5079214653
 31
0.0
  0
LINE
  5
11B
100
AcDbEntity
  8
0
  6
CONTINUOUS
 62
         7
100
AcDbLine
 10
6.575294909
 20
3.9734285455
 30
0.0
 11
6.575294909
 21
4.5479214653
 31
0.0
  0
LINE
  5
11C
100
AcDbEntity
  8
0
  6
CONTINUOUS
 62
         7
100
AcDbLine
 10
6.0363427407
 20
4.6079214653
 30
0.0
 11
6.0363427407
 21
4.6178012775
 31
0.0
  0
LINE
  5
11D
100
AcDbEntity
  8
0
  6
CONTINUOUS
 62
         7
100
AcDbLine
 10
6.1141006861
 20
4.7675330136
 30
0.0
 11
6.1141006861
 21
4.8592899683
 31
0.0
  0
LINE
  5
11E
100
AcDbEntity
  8
0
  6
CONTINUOUS
 62
         7
100
AcDbLine
 10
6.1541006861
 20
4.7450764014
 30
0.0
 11
6.1541006861
 21
4.8969309047
 31
0.0
  0
LINE
  5
11F
100
AcDbEntity
  8
0
  6
CONTINUOUS
 62
         7
100
AcDbLine
 10
4.5700262981
 20
4.8969309047
 30
0.0
 11
4.5700262981
 21
4.7450764014
 31
0.0
  0
LINE
  5
120
100
AcDbEntity
  8
0
  6
CONTINUOUS
 62
         7
100
AcDbLine
 10
4.6477842435
 20
4.6178012775
 30
0.0
 11
4.6477842435
 21
4.6079214653
 31
0.0
  0
LINE
  5
121
100
AcDbEntity
  8
0
  6
CONTINUOUS
 62
         7
100
AcDbLine
 10
4.1488320752
 20
3.9734285455
 30
0.0
 11
6.575294909
 21
3.9734285455
 31
0.0
  0
LINE
  5
122
100
AcDbEntity
  8
0
  6
CONTINUOUS
 62
         7
100
AcDbLine
 10
4.1888320752
 20
4.0134285455
 30
0.0
 11
6.535294909
 21
4.0134285455
 31
0.0
  0
LINE
  5
123
100
AcDbEntity
  8
0
  6
CONTINUOUS
 62
         7
100
AcDbLine
 10
4.1888320752
 20
4.5079214653
 30
0.0
 11
4.1888320752
 21
4.0134285455
 31
0.0
  0
LINE
  5
124
100
AcDbEntity
  8
0
  6
CONTINUOUS
 62
         7
100
AcDbLine
 10
6.535294909
 20
4.5079214653
 30
0.0
 11
4.1888320752
 21
4.5079214653
 31
0.0
  0
LINE
  5
125
100
AcDbEntity
  8
0
  6
CONTINUOUS
 62
         7
100
AcDbLine
 10
4.1488320752
 20
4.5479214653
 30
0.0
 11
4.1488320752
 21
3.9734285455
 31
0.0
  0
LINE
  5
126
100
AcDbEntity
  8
0
  6
CONTINUOUS
 62
         7
100
AcDbLine
 10
6.575294909
 20
4.5479214653
 30
0.0
 11
4.1488320752
 21
4.5479214653
 31
0.0
  0
LINE
  5
127
100
AcDbEntity
  8
0
  6
CONTINUOUS
 62
         7
100
AcDbLine
 10
6.0763427407
 20
4.6079214653
 30
0.0
 11
6.0763427407
 21
4.6178012775
 31
0.0
  0
ARC
  5
128
100
AcDbEntity
  8
0
  6
CONTINUOUS
 62
         7
100
AcDbCircle
 10
5.6814053767
 20
4.6478679449
 30
0.0
 40
1.4088846864
100
AcDbArc
 50
240.8535129659
 51
256.8993182196
  0
ARC
  5
129
100
AcDbEntity
  8
0
  6
CONTINUOUS
 62
         7
100
AcDbCircle
 10
6.9169805576
 20
6.6434662848
 30
0.0
 40
3.7551046119
100
AcDbArc
 50
228.9746224209
 51
239.2179445453
  0
ARC
  5
12A
100
AcDbEntity
  8
0
  6
CONTINUOUS
 62
         7
100
AcDbCircle
 10
4.4761505659
 20
3.954098604
 30
0.0
 40
0.1275622273
100
AcDbArc
 50
289.2948190351
 51
335.1454306366
  0
ARC
  5
12B
100
AcDbEntity
  8
0
  6
CONTINUOUS
 62
         7
100
AcDbCircle
 10
4.5836267561
 20
3.9043133608
 30
0.0
 40
0.0091151847
100
AcDbArc
 50
335.1454306365
 51
90.0
  0
ARC
  5
12C
100
AcDbEntity
  8
0
  6
CONTINUOUS
 62
         7
100
AcDbCircle
 10
4.5047425574
 20
4.6178012775
 30
0.0
 40
0.0830416861
100
AcDbArc
 50
0.0
 51
86.3519444401
  0
ARC
  5
12D
100
AcDbEntity
  8
0
  6
CONTINUOUS
 62
         7
100
AcDbCircle
 10
4.4939519096
 20
6.4556780613
 30
0.0
 40
1.5006024512
100
AcDbArc
 50
270.6137616462
 51
305.3457211889
  0
ARC
  5
12E
100
AcDbEntity
  8
0
  6
CONTINUOUS
 62
         7
100
AcDbCircle
 10
6.2301750745
 20
6.4556780613
 30
0.0
 40
1.5006024512
100
AcDbArc
 50
234.6542788111
 51
269.3862383538
  0
ARC
  5
12F
100
AcDbEntity
  8
0
  6
CONTINUOUS
 62
         7
100
AcDbCircle
 10
5.0427216074
 20
4.6478679449
 30
0.0
 40
1.4088846864
100
AcDbArc
 50
283.1006817804
 51
299.1464870341
  0
ARC
  5
130
100
AcDbEntity
  8
0
  6
CONTINUOUS
 62
         7
100
AcDbCircle
 10
3.8071464266
 20
6.6434662848
 30
0.0
 40
3.7551046119
100
AcDbArc
 50
300.7820554547
 51
311.0253775791
  0
ARC
  5
131
100
AcDbEntity
  8
0
  6
CONTINUOUS
 62
         7
100
AcDbCircle
 10
6.140500228
 20
3.9043133608
 30
0.0
 40
0.0091151847
100
AcDbArc
 50
90.0
 51
204.8545693635
  0
ARC
  5
132
100
AcDbEntity
  8
0
  6
CONTINUOUS
 62
         7
100
AcDbCircle
 10
6.2479764182
 20
3.954098604
 30
0.0
 40
0.1275622273
100
AcDbArc
 50
204.8545693634
 51
250.7051809649
  0
ARC
  5
133
100
AcDbEntity
  8
0
  6
CONTINUOUS
 62
         7
100
AcDbCircle
 10
6.2193844268
 20
4.6178012775
 30
0.0
 40
0.0830416861
100
AcDbArc
 50
93.6480555599
 51
180.0
  0
ARC
  5
134
100
AcDbEntity
  8
0
  6
CONTINUOUS
 62
         7
100
AcDbCircle
 10
6.2184002603
 20
4.1506358637
 30
0.0
 40
0.0215318783
100
AcDbArc
 50
270.0
 51
0.0
  0
ARC
  5
135
100
AcDbEntity
  8
0
  6
CONTINUOUS
 62
         7
100
AcDbCircle
 10
6.2153932361
 20
4.1506358637
 30
0.0
 40
0.0215318783
100
AcDbArc
 50
180.0
 51
270.0
  0
ARC
  5
136
100
AcDbEntity
  8
0
  6
CONTINUOUS
 62
         7
100
AcDbCircle
 10
6.2153932361
 20
4.3709934061
 30
0.0
 40
0.0215318783
100
AcDbArc
 50
90.0
 51
180.0
  0
ARC
  5
137
100
AcDbEntity
  8
0
  6
CONTINUOUS
 62
         7
100
AcDbCircle
 10
6.2184002603
 20
4.3709934061
 30
0.0
 40
0.0215318783
100
AcDbArc
 50
360.0
 51
90.0
  0
ARC
  5
138
100
AcDbEntity
  8
0
  6
CONTINUOUS
 62
         7
100
AcDbCircle
 10
6.2255720405
 20
4.138703279
 30
0.0
 40
0.0578813932
100
AcDbArc
 50
270.0
 51
0.0
  0
ARC
  5
139
100
AcDbEntity
  8
0
  6
CONTINUOUS
 62
         7
100
AcDbCircle
 10
6.208216107
 20
4.138703279
 30
0.0
 40
0.0578813932
100
AcDbArc
 50
180.0
 51
270.0
  0
ARC
  5
13A
100
AcDbEntity
  8
0
  6
CONTINUOUS
 62
         7
100
AcDbCircle
 10
6.208216107
 20
4.3734154069
 30
0.0
 40
0.0578813932
100
AcDbArc
 50
90.0
 51
180.0
  0
ARC
  5
13B
100
AcDbEntity
  8
0
  6
CONTINUOUS
 62
         7
100
AcDbCircle
 10
6.2255720405
 20
4.3734154069
 30
0.0
 40
0.0578813932
100
AcDbArc
 50
0.0
 51
90.0
  0
ARC
  5
13C
100
AcDbEntity
  8
0
  6
CONTINUOUS
 62
         7
100
AcDbCircle
 10
6.0554815282
 20
4.3648958043
 30
0.0
 40
0.0231525573
100
AcDbArc
 50
0.0
 51
90.0
  0
ARC
  5
13D
100
AcDbEntity
  8
0
  6
CONTINUOUS
 62
         7
100
AcDbCircle
 10
6.0643995277
 20
4.3734154069
 30
0.0
 40
0.0578813932
100
AcDbArc
 50
0.0
 51
90.0
  0
ARC
  5
13E
100
AcDbEntity
  8
0
  6
CONTINUOUS
 62
         7
100
AcDbCircle
 10
6.0491416316
 20
4.3648958015
 30
0.0
 40
0.0231525601
100
AcDbArc
 50
90.0
 51
180.0
  0
ARC
  5
13F
100
AcDbEntity
  8
0
  6
CONTINUOUS
 62
         7
100
AcDbCircle
 10
6.0404695983
 20
4.3734154069
 30
0.0
 40
0.0578813932
100
AcDbArc
 50
90.0
 51
180.0
  0
ARC
  5
140
100
AcDbEntity
  8
0
  6
CONTINUOUS
 62
         7
100
AcDbCircle
 10
6.0491416287
 20
4.3028322602
 30
0.0
 40
0.0231525573
100
AcDbArc
 50
180.0
 51
232.9395629995
  0
ARC
  5
141
100
AcDbEntity
  8
0
  6
CONTINUOUS
 62
         7
100
AcDbCircle
 10
6.0404695983
 20
4.2983653752
 30
0.0
 40
0.0578813932
100
AcDbArc
 50
180.0
 51
232.9395631172
  0
ARC
  5
142
100
AcDbEntity
  8
0
  6
CONTINUOUS
 62
         7
100
AcDbCircle
 10
6.0643995277
 20
4.1897630838
 30
0.0
 40
0.0578813932
100
AcDbArc
 50
0.0
 51
52.9395629995
  0
ARC
  5
143
100
AcDbEntity
  8
0
  6
CONTINUOUS
 62
         7
100
AcDbCircle
 10
6.0554815282
 20
4.1854819572
 30
0.0
 40
0.0231525573
100
AcDbArc
 50
0.0
 51
52.9395631172
  0
ARC
  5
144
100
AcDbEntity
  8
0
  6
CONTINUOUS
 62
         7
100
AcDbCircle
 10
6.0554815282
 20
4.1474939069
 30
0.0
 40
0.0231525573
100
AcDbArc
 50
270.0
 51
0.0
  0
ARC
  5
145
100
AcDbEntity
  8
0
  6
CONTINUOUS
 62
         7
100
AcDbCircle
 10
6.0491416287
 20
4.1474939069
 30
0.0
 40
0.0231525573
100
AcDbArc
 50
180.0
 51
270.0
  0
ARC
  5
146
100
AcDbEntity
  8
0
  6
CONTINUOUS
 62
         7
100
AcDbCircle
 10
6.0643995277
 20
4.138703279
 30
0.0
 40
0.0578813932
100
AcDbArc
 50
270.0
 51
0.0
  0
ARC
  5
147
100
AcDbEntity
  8
0
  6
CONTINUOUS
 62
         7
100
AcDbCircle
 10
6.0404695983
 20
4.138703279
 30
0.0
 40
0.0578813932
100
AcDbArc
 50
180.0
 51
270.0
  0
ARC
  5
148
100
AcDbEntity
  8
0
  6
CONTINUOUS
 62
         7
100
AcDbCircle
 10
5.8873908669
 20
4.3693727213
 30
0.0
 40
0.0231525573
100
AcDbArc
 50
0.0
 51
90.0
  0
ARC
  5
149
100
AcDbEntity
  8
0
  6
CONTINUOUS
 62
         7
100
AcDbCircle
 10
5.8873908669
 20
4.152256537
 30
0.0
 40
0.0231525573
100
AcDbArc
 50
270.0
 51
0.0
  0
ARC
  5
14A
100
AcDbEntity
  8
0
  6
CONTINUOUS
 62
         7
100
AcDbCircle
 10
5.9105439171
 20
4.3877699896
 30
0.0
 40
0.0435268105
100
AcDbArc
 50
0.0
 51
90.0
  0
ARC
  5
14B
100
AcDbEntity
  8
0
  6
CONTINUOUS
 62
         7
100
AcDbCircle
 10
5.9105439199
 20
4.1243486935
 30
0.0
 40
0.0435268077
100
AcDbArc
 50
270.0
 51
0.0
  0
ARC
  5
14C
100
AcDbEntity
  8
0
  6
CONTINUOUS
 62
         7
100
AcDbCircle
 10
5.341936502
 20
4.1475023139
 30
0.0
 40
0.0229101778
100
AcDbArc
 50
270.0
 51
0.0
  0
ARC
  5
14D
100
AcDbEntity
  8
0
  6
CONTINUOUS
 62
         7
100
AcDbCircle
 10
5.3416941225
 20
4.364618499
 30
0.0
 40
0.0231525573
100
AcDbArc
 50
0.0
 51
90.0
  0
ARC
  5
14E
100
AcDbEntity
  8
0
  6
CONTINUOUS
 62
         7
100
AcDbCircle
 10
5.3648486638
 20
4.1243486935
 30
0.0
 40
0.0435268077
100
AcDbArc
 50
270.0
 51
0.0
  0
ARC
  5
14F
100
AcDbEntity
  8
0
  6
CONTINUOUS
 62
         7
100
AcDbCircle
 10
5.3648486638
 20
4.3877699924
 30
0.0
 40
0.0435268077
100
AcDbArc
 50
0.0
 51
90.0
  0
ARC
  5
150
100
AcDbEntity
  8
0
  6
CONTINUOUS
 62
         7
100
AcDbCircle
 10
4.6601965523
 20
4.3078966891
 30
0.0
 40
0.0289406966
100
AcDbArc
 50
270.0
 51
0.0
  0
ARC
  5
151
100
AcDbEntity
  8
0
  6
CONTINUOUS
 62
         7
100
AcDbCircle
 10
4.6601965523
 20
4.3588290767
 30
0.0
 40
0.0289406966
100
AcDbArc
 50
0.0
 51
90.0
  0
ARC
  5
152
100
AcDbEntity
  8
0
  6
CONTINUOUS
 62
         7
100
AcDbCircle
 10
4.6891372489
 20
4.2034788748
 30
0.0
 40
0.0435268077
100
AcDbArc
 50
0.0
 51
90.0
  0
ARC
  5
153
100
AcDbEntity
  8
0
  6
CONTINUOUS
 62
         7
100
AcDbCircle
 10
4.6891372489
 20
4.2905324902
 30
0.0
 40
0.0435268077
100
AcDbArc
 50
270.0
 51
0.0
  0
ARC
  5
154
100
AcDbEntity
  8
0
  6
CONTINUOUS
 62
         7
100
AcDbCircle
 10
4.6456104412
 20
4.1738436015
 30
0.0
 40
0.0435268077
100
AcDbArc
 50
0.0
 51
90.0
  0
ARC
  5
155
100
AcDbEntity
  8
0
  6
CONTINUOUS
 62
         7
100
AcDbCircle
 10
4.6891372489
 20
4.3877699924
 30
0.0
 40
0.0435268077
100
AcDbArc
 50
0.0
 51
90.0
  0
ARC
  5
156
100
AcDbEntity
  8
0
  6
CONTINUOUS
 62
         7
100
AcDbCircle
 10
6.2301750745
 20
6.4556780613
 30
0.0
 40
1.6746024512
100
AcDbArc
 50
252.579316935
 51
257.3651131731
  0
ARC
  5
157
100
AcDbEntity
  8
0
  6
CONTINUOUS
 62
         7
100
AcDbCircle
 10
6.2301750745
 20
6.4556780613
 30
0.0
 40
1.6746024512
100
AcDbArc
 50
246.8746382326
 51
249.4773857605
  0
ARC
  5
158
100
AcDbEntity
  8
0
  6
CONTINUOUS
 62
         7
100
AcDbCircle
 10
6.2301750745
 20
6.4556780613
 30
0.0
 40
1.7176024512
100
AcDbArc
 50
240.5642281603
 51
243.5020242539
  0
ARC
  5
159
100
AcDbEntity
  8
0
  6
CONTINUOUS
 62
         7
100
AcDbCircle
 10
6.2301750745
 20
6.4556780613
 30
0.0
 40
1.7176024512
100
AcDbArc
 50
247.3238988508
 51
249.0440534817
  0
ARC
  5
15A
100
AcDbEntity
  8
0
  6
CONTINUOUS
 62
         7
100
AcDbCircle
 10
6.2301750745
 20
6.4556780613
 30
0.0
 40
1.6746024512
100
AcDbArc
 50
239.0546162824
 51
243.1861227897
  0
ARC
  5
15B
100
AcDbEntity
  8
0
  6
CONTINUOUS
 62
         7
100
AcDbCircle
 10
4.4939519096
 20
6.4556780613
 30
0.0
 40
1.6746024512
100
AcDbArc
 50
280.6548135648
 51
282.0004930973
  0
ARC
  5
15C
100
AcDbEntity
  8
0
  6
CONTINUOUS
 62
         7
100
AcDbCircle
 10
4.4939519096
 20
6.4556780613
 30
0.0
 40
1.6746024512
100
AcDbArc
 50
285.86459786
 51
287.0090279367
  0
ARC
  5
15D
100
AcDbEntity
  8
0
  6
CONTINUOUS
 62
         7
100
AcDbCircle
 10
4.4939519096
 20
6.4556780613
 30
0.0
 40
1.6746024512
100
AcDbArc
 50
290.6358113091
 51
293.2400380819
  0
ARC
  5
15E
100
AcDbEntity
  8
0
  6
CONTINUOUS
 62
         7
100
AcDbCircle
 10
4.4939519096
 20
6.4556780613
 30
0.0
 40
1.6746024512
100
AcDbArc
 50
296.8233248661
 51
300.9453837176
  0
ARC
  5
15F
100
AcDbEntity
  8
0
  6
CONTINUOUS
 62
         7
100
AcDbCircle
 10
4.4939519096
 20
6.4556780613
 30
0.0
 40
1.7176024512
100
AcDbArc
 50
291.0683334257
 51
292.7898514262
  0
ARC
  5
160
100
AcDbEntity
  8
0
  6
CONTINUOUS
 62
         7
100
AcDbCircle
 10
4.4939519096
 20
6.4556780613
 30
0.0
 40
1.7176024512
100
AcDbArc
 50
296.5009128087
 51
299.4357718397
  0
ARC
  5
161
100
AcDbEntity
  8
0
  6
CONTINUOUS
 62
         7
100
AcDbCircle
 10
6.2301750745
 20
6.4556780613
 30
0.0
 40
1.7176024512
100
AcDbArc
 50
254.5412936751
 51
256.858001183
  0
ARC
  5
162
100
AcDbEntity
  8
0
  6
CONTINUOUS
 62
         7
100
AcDbCircle
 10
4.9857255639
 20
4.8480649341
 30
0.0
 40
0.0065463505
100
AcDbArc
 50
0.0
 51
107.0090279367
  0
ARC
  5
163
100
AcDbEntity
  8
0
  6
CONTINUOUS
 62
         7
100
AcDbCircle
 10
4.9544868772
 20
4.835157871
 30
0.0
 40
0.0100868802
100
AcDbArc
 50
105.86459786
 51
158.0895048986
  0
ARC
  5
164
100
AcDbEntity
  8
0
  6
CONTINUOUS
 62
         7
100
AcDbCircle
 10
4.8432387795
 20
4.8124820733
 30
0.0
 40
0.0053065857
100
AcDbArc
 50
23.6361662942
 51
102.0004930973
  0
ARC
  5
165
100
AcDbEntity
  8
0
  6
CONTINUOUS
 62
         7
100
AcDbCircle
 10
4.8045606873
 20
4.8046916661
 30
0.0
 40
0.0053481105
100
AcDbArc
 50
100.6548135648
 51
180.0
  0
ARC
  5
166
100
AcDbEntity
  8
0
  6
CONTINUOUS
 62
         7
100
AcDbCircle
 10
4.8502449791
 20
4.69402437
 30
0.0
 40
0.0069457672
100
AcDbArc
 50
25.9478382257
 51
180.0
  0
ARC
  5
167
100
AcDbEntity
  8
0
  6
CONTINUOUS
 62
         7
100
AcDbCircle
 10
4.9422136965
 20
4.7134730338
 30
0.0
 40
0.0069457672
100
AcDbArc
 50
0.0
 51
155.0279405162
  0
ARC
  5
168
100
AcDbEntity
  8
0
  6
CONTINUOUS
 62
         7
100
AcDbCircle
 10
4.8932953465
 20
4.7286596835
 30
0.0
 40
0.0069440367
100
AcDbArc
 50
203.6361662942
 51
338.0895048986
  0
ARC
  5
169
100
AcDbEntity
  8
0
  6
CONTINUOUS
 62
         7
100
AcDbCircle
 10
5.1648143605
 20
4.8589677284
 30
0.0
 40
0.0143156516
100
AcDbArc
 50
0.0
 51
112.7898514262
  0
ARC
  5
16A
100
AcDbEntity
  8
0
  6
CONTINUOUS
 62
         7
100
AcDbCircle
 10
5.1648143605
 20
4.6662687303
 30
0.0
 40
0.0143156516
100
AcDbArc
 50
270.0
 51
0.0
  0
ARC
  5
16B
100
AcDbEntity
  8
0
  6
CONTINUOUS
 62
         7
100
AcDbCircle
 10
5.1165437738
 20
4.6662687303
 30
0.0
 40
0.0143156516
100
AcDbArc
 50
180.0
 51
270.0
  0
ARC
  5
16C
100
AcDbEntity
  8
0
  6
CONTINUOUS
 62
         7
100
AcDbCircle
 10
5.098220971
 20
4.8510921508
 30
0.0
 40
0.0399928487
100
AcDbArc
 50
110.6358113091
 51
180.0
  0
ARC
  5
16D
100
AcDbEntity
  8
0
  6
CONTINUOUS
 62
         7
100
AcDbCircle
 10
5.1085472565
 20
4.658272213
 30
0.0
 40
0.0503191342
100
AcDbArc
 50
180.0
 51
270.0
  0
ARC
  5
16E
100
AcDbEntity
  8
0
  6
CONTINUOUS
 62
         7
100
AcDbCircle
 10
5.1728108778
 20
4.658272213
 30
0.0
 40
0.0503191342
100
AcDbArc
 50
270.0
 51
0.0
  0
ARC
  5
16F
100
AcDbEntity
  8
0
  6
CONTINUOUS
 62
         7
100
AcDbCircle
 10
5.1740784
 20
4.8718815822
 30
0.0
 40
0.0490516121
100
AcDbArc
 50
0.0
 51
113.2400380819
  0
ARC
  5
170
100
AcDbEntity
  8
0
  6
CONTINUOUS
 62
         7
100
AcDbCircle
 10
5.3620634921
 20
5.0077732265
 30
0.0
 40
0.0136055129
100
AcDbArc
 50
59.0546162824
 51
120.9453837176
  0
ARC
  5
171
100
AcDbEntity
  8
0
  6
CONTINUOUS
 62
         7
100
AcDbCircle
 10
5.4718910982
 20
4.9554339333
 30
0.0
 40
0.0063874453
100
AcDbArc
 50
0.0
 51
63.1861227897
  0
ARC
  5
172
100
AcDbEntity
  8
0
  6
CONTINUOUS
 62
         7
100
AcDbCircle
 10
5.4682937858
 20
4.9274453926
 30
0.0
 40
0.0099847576
100
AcDbArc
 50
243.5020242539
 51
0.0
  0
ARC
  5
173
100
AcDbEntity
  8
0
  6
CONTINUOUS
 62
         7
100
AcDbCircle
 10
5.2559112445
 20
4.9274850357
 30
0.0
 40
0.0099854124
100
AcDbArc
 50
180.0
 51
296.5009128087
  0
ARC
  5
174
100
AcDbEntity
  8
0
  6
CONTINUOUS
 62
         7
100
AcDbCircle
 10
5.2526230264
 20
4.9552825685
 30
0.0
 40
0.0066971943
100
AcDbArc
 50
116.8233248661
 51
180.0
  0
ARC
  5
175
100
AcDbEntity
  8
0
  6
CONTINUOUS
 62
         7
100
AcDbCircle
 10
4.8923348663
 20
4.6392757942
 30
0.0
 40
0.0069457672
100
AcDbArc
 50
205.9478382257
 51
335.0279405162
  0
ARC
  5
176
100
AcDbEntity
  8
0
  6
CONTINUOUS
 62
         7
100
AcDbCircle
 10
5.6107545062
 20
4.8383164831
 30
0.0
 40
0.0143156516
100
AcDbArc
 50
0.0
 51
69.0440534817
  0
ARC
  5
177
100
AcDbEntity
  8
0
  6
CONTINUOUS
 62
         7
100
AcDbCircle
 10
5.5624839196
 20
4.6662687303
 30
0.0
 40
0.0143156516
100
AcDbArc
 50
180.0
 51
270.0
  0
ARC
  5
178
100
AcDbEntity
  8
0
  6
CONTINUOUS
 62
         7
100
AcDbCircle
 10
5.6107545062
 20
4.6662687303
 30
0.0
 40
0.0143156516
100
AcDbArc
 50
270.0
 51
0.0
  0
ARC
  5
179
100
AcDbEntity
  8
0
  6
CONTINUOUS
 62
         7
100
AcDbCircle
 10
5.5624839196
 20
4.8576390015
 30
0.0
 40
0.0143156516
100
AcDbArc
 50
67.3238988508
 51
180.0
  0
ARC
  5
17A
100
AcDbEntity
  8
0
  6
CONTINUOUS
 62
         7
100
AcDbCircle
 10
5.6187510236
 20
4.658272213
 30
0.0
 40
0.0503191342
100
AcDbArc
 50
270.0
 51
0.0
  0
ARC
  5
17B
100
AcDbEntity
  8
0
  6
CONTINUOUS
 62
         7
100
AcDbCircle
 10
5.5544874023
 20
4.658272213
 30
0.0
 40
0.0503191342
100
AcDbArc
 50
180.0
 51
270.0
  0
ARC
  5
17C
100
AcDbEntity
  8
0
  6
CONTINUOUS
 62
         7
100
AcDbCircle
 10
5.6290773091
 20
4.8499014519
 30
0.0
 40
0.0399928487
100
AcDbArc
 50
0.0
 51
69.4773857605
  0
ARC
  5
17D
100
AcDbEntity
  8
0
  6
CONTINUOUS
 62
         7
100
AcDbCircle
 10
5.5532198801
 20
4.8705234963
 30
0.0
 40
0.0490516121
100
AcDbArc
 50
66.8746382326
 51
180.0
  0
ARC
  5
17E
100
AcDbEntity
  8
0
  6
CONTINUOUS
 62
         7
100
AcDbCircle
 10
5.8347241224
 20
4.7619538659
 30
0.0
 40
0.0216741528
100
AcDbArc
 50
270.0
 51
76.858001183
  0
ARC
  5
17F
100
AcDbEntity
  8
0
  6
CONTINUOUS
 62
         7
100
AcDbCircle
 10
5.8498336956
 20
4.7589819607
 30
0.0
 40
0.0642009367
100
AcDbArc
 50
300.6105751012
 51
77.3651131731
  0
ARC
  5
180
100
AcDbEntity
  8
0
  6
CONTINUOUS
 62
         7
100
AcDbCircle
 10
5.8093876719
 20
4.6610894923
 30
0.0
 40
0.0370440917
100
AcDbArc
 50
28.2168360278
 51
90.0
  0
ARC
  5
181
100
AcDbEntity
  8
0
  6
CONTINUOUS
 62
         7
100
AcDbCircle
 10
5.1165437738
 20
4.8395346006
 30
0.0
 40
0.0143156516
100
AcDbArc
 50
111.0683334257
 51
180.0
  0
ARC
  5
182
100
AcDbEntity
  8
0
  6
CONTINUOUS
 62
         7
100
AcDbCircle
 10
5.6814053767
 20
4.6478679449
 30
0.0
 40
1.2030846864
100
AcDbArc
 50
249.7481026467
 51
253.2743376656
  0
ARC
  5
183
100
AcDbEntity
  8
0
  6
CONTINUOUS
 62
         7
100
AcDbCircle
 10
5.6814053767
 20
4.6478679449
 30
0.0
 40
1.2468846864
100
AcDbArc
 50
248.6593877765
 51
253.6091294054
  0
ARC
  5
184
100
AcDbEntity
  8
0
  6
CONTINUOUS
 62
         7
100
AcDbCircle
 10
6.9169805576
 20
6.6434662848
 30
0.0
 40
3.5931046119
100
AcDbArc
 50
238.8182528772
 51
239.1803513841
  0
ARC
  5
185
100
AcDbEntity
  8
0
  6
CONTINUOUS
 62
         7
100
AcDbCircle
 10
6.9169805576
 20
6.6434662848
 30
0.0
 40
3.5493046119
100
AcDbArc
 50
234.3236670447
 51
237.0334195009
  0
ARC
  5
186
100
AcDbEntity
  8
0
  6
CONTINUOUS
 62
         7
100
AcDbCircle
 10
3.8071464266
 20
6.6434662848
 30
0.0
 40
3.5493046119
100
AcDbArc
 50
302.7909448197
 51
305.3658098562
  0
ARC
  5
187
100
AcDbEntity
  8
0
  6
CONTINUOUS
 62
         7
100
AcDbCircle
 10
5.0427216074
 20
4.6478679449
 30
0.0
 40
1.2030846864
100
AcDbArc
 50
298.8332169253
 51
299.0101362776
  0
ARC
  5
188
100
AcDbEntity
  8
0
  6
CONTINUOUS
 62
         7
100
AcDbCircle
 10
5.7533837794
 20
3.8814884524
 30
0.0
 40
0.0289406966
100
AcDbArc
 50
90.0
 51
180.0
  0
ARC
  5
189
100
AcDbEntity
  8
0
  6
CONTINUOUS
 62
         7
100
AcDbCircle
 10
5.7340215195
 20
3.6525033957
 30
0.0
 40
0.0086030074
100
AcDbArc
 50
122.7909448197
 51
180.0
  0
ARC
  5
18A
100
AcDbEntity
  8
0
  6
CONTINUOUS
 62
         7
100
AcDbCircle
 10
5.7351204136
 20
3.6228623946
 30
0.0
 40
0.0097019015
100
AcDbArc
 50
180.0
 51
296.7361896322
  0
ARC
  5
18B
100
AcDbEntity
  8
0
  6
CONTINUOUS
 62
         7
100
AcDbCircle
 10
5.9037749273
 20
3.7392830249
 30
0.0
 40
0.0113074303
100
AcDbArc
 50
314.1984393706
 51
360.0
  0
ARC
  5
18C
100
AcDbEntity
  8
0
  6
CONTINUOUS
 62
         7
100
AcDbCircle
 10
5.9058213347
 20
3.7982789215
 30
0.0
 40
0.0092610229
100
AcDbArc
 50
0.0
 51
90.0
  0
ARC
  5
18D
100
AcDbEntity
  8
0
  6
CONTINUOUS
 62
         7
100
AcDbCircle
 10
5.9023968294
 20
3.9011681262
 30
0.0
 40
0.0092610229
100
AcDbArc
 50
0.0
 51
90.0
  0
ARC
  5
18E
100
AcDbEntity
  8
0
  6
CONTINUOUS
 62
         7
100
AcDbCircle
 10
5.9023968294
 20
3.8761634906
 30
0.0
 40
0.0092610229
100
AcDbArc
 50
270.0
 51
0.0
  0
ARC
  5
18F
100
AcDbEntity
  8
0
  6
CONTINUOUS
 62
         7
100
AcDbCircle
 10
5.7772311661
 20
3.8576414449
 30
0.0
 40
0.0092610229
100
AcDbArc
 50
90.0
 51
180.0
  0
ARC
  5
190
100
AcDbEntity
  8
0
  6
CONTINUOUS
 62
         7
100
AcDbCircle
 10
5.7772311661
 20
3.8168009673
 30
0.0
 40
0.0092610229
100
AcDbArc
 50
180.0
 51
270.0
  0
ARC
  5
191
100
AcDbEntity
  8
0
  6
CONTINUOUS
 62
         7
100
AcDbCircle
 10
5.7475956401
 20
3.7871653687
 30
0.0
 40
0.0231525573
100
AcDbArc
 50
180.0
 51
270.0
  0
ARC
  5
192
100
AcDbEntity
  8
0
  6
CONTINUOUS
 62
         7
100
AcDbCircle
 10
5.8526625815
 20
3.7539595621
 30
0.0
 40
0.0100532493
100
AcDbArc
 50
331.1133208193
 51
90.0
  0
ARC
  5
193
100
AcDbEntity
  8
0
  6
CONTINUOUS
 62
         7
100
AcDbCircle
 10
5.6173373324
 20
3.7758361696
 30
0.0
 40
0.0092610229
100
AcDbArc
 50
180.0421097902
 51
270.0
  0
ARC
  5
194
100
AcDbEntity
  8
0
  6
CONTINUOUS
 62
         7
100
AcDbCircle
 10
5.594199131
 20
3.5624038323
 30
0.0
 40
0.0293626953
100
AcDbArc
 50
180.0
 51
296.9331605037
  0
ARC
  5
195
100
AcDbEntity
  8
0
  6
CONTINUOUS
 62
         7
100
AcDbCircle
 10
5.5937771323
 20
3.8814884524
 30
0.0
 40
0.0289406966
100
AcDbArc
 50
90.0
 51
180.0
  0
ARC
  5
196
100
AcDbEntity
  8
0
  6
CONTINUOUS
 62
         7
100
AcDbCircle
 10
5.665163581
 20
3.9011681262
 30
0.0
 40
0.0092610229
100
AcDbArc
 50
0.0
 51
90.0
  0
ARC
  5
197
100
AcDbEntity
  8
0
  6
CONTINUOUS
 62
         7
100
AcDbCircle
 10
5.665163581
 20
3.8769947391
 30
0.0
 40
0.0092610229
100
AcDbArc
 50
270.0
 51
0.0
  0
ARC
  5
198
100
AcDbEntity
  8
0
  6
CONTINUOUS
 62
         7
100
AcDbCircle
 10
5.6644769614
 20
3.7573141238
 30
0.0
 40
0.0092610229
100
AcDbArc
 50
0.0
 51
90.0
  0
ARC
  5
199
100
AcDbEntity
  8
0
  6
CONTINUOUS
 62
         7
100
AcDbCircle
 10
5.6644769614
 20
3.732309362
 30
0.0
 40
0.0092610229
100
AcDbArc
 50
270.0
 51
0.0
  0
ARC
  5
19A
100
AcDbEntity
  8
0
  6
CONTINUOUS
 62
         7
100
AcDbCircle
 10
5.6621630707
 20
3.5820554923
 30
0.0
 40
0.0135344156
100
AcDbArc
 50
301.2131485942
 51
0.0
  0
ARC
  5
19B
100
AcDbEntity
  8
0
  6
CONTINUOUS
 62
         7
100
AcDbCircle
 10
5.6649146753
 20
3.6065402742
 30
0.0
 40
0.0107828111
100
AcDbArc
 50
0.0
 51
121.4552322202
  0
ARC
  5
19C
100
AcDbEntity
  8
0
  6
CONTINUOUS
 62
         7
100
AcDbCircle
 10
5.6181340933
 20
3.6026323661
 30
0.0
 40
0.0099304868
100
AcDbArc
 50
180.0421097901
 51
298.8332169253
  0
ARC
  5
19D
100
AcDbEntity
  8
0
  6
CONTINUOUS
 62
         7
100
AcDbCircle
 10
5.6172765983
 20
3.8584726933
 30
0.0
 40
0.0092610229
100
AcDbArc
 50
90.0
 51
180.0421097902
  0
ARC
  5
19E
100
AcDbEntity
  8
0
  6
CONTINUOUS
 62
         7
100
AcDbCircle
 10
5.6173829353
 20
3.7137873162
 30
0.0
 40
0.0092610229
100
AcDbArc
 50
90.0
 51
180.0421097888
  0
ARC
  5
19F
100
AcDbEntity
  8
0
  6
CONTINUOUS
 62
         7
100
AcDbCircle
 10
5.4035770431
 20
3.4642535163
 30
0.0
 40
0.0094842819
100
AcDbArc
 50
180.0
 51
286.9551969296
  0
ARC
  5
1A0
100
AcDbEntity
  8
0
  6
CONTINUOUS
 62
         7
100
AcDbCircle
 10
5.5189959841
 20
3.5050474524
 30
0.0
 40
0.0087910066
100
AcDbArc
 50
292.6241013194
 51
359.9530519524
  0
ARC
  5
1A1
100
AcDbEntity
  8
0
  6
CONTINUOUS
 62
         7
100
AcDbCircle
 10
5.5180061528
 20
3.531982235
 30
0.0
 40
0.009802908
100
AcDbArc
 50
359.9530519524
 51
113.0704075197
  0
ARC
  5
1A2
100
AcDbEntity
  8
0
  6
CONTINUOUS
 62
         7
100
AcDbCircle
 10
5.4469438432
 20
3.5246394816
 30
0.0
 40
0.0093352166
100
AcDbArc
 50
180.0
 51
289.7925535591
  0
ARC
  5
1A3
100
AcDbEntity
  8
0
  6
CONTINUOUS
 62
         7
100
AcDbCircle
 10
5.4283476038
 20
3.9011681262
 30
0.0
 40
0.0092610229
100
AcDbArc
 50
0.0
 51
90.0
  0
ARC
  5
1A4
100
AcDbEntity
  8
0
  6
CONTINUOUS
 62
         7
100
AcDbCircle
 10
5.4033537841
 20
3.9011681262
 30
0.0
 40
0.0092610229
100
AcDbArc
 50
90.0
 51
180.0
  0
ARC
  5
1A5
100
AcDbEntity
  8
0
  6
CONTINUOUS
 62
         7
100
AcDbCircle
 10
5.3322972266
 20
3.4610020303
 30
0.0
 40
0.0097399092
100
AcDbArc
 50
253.6091294054
 51
0.3091506674
  0
ARC
  5
1A6
100
AcDbEntity
  8
0
  6
CONTINUOUS
 62
         7
100
AcDbCircle
 10
5.3324513607
 20
3.4866335392
 30
0.0
 40
0.0094474782
100
AcDbArc
 50
0.3091506674
 51
73.2743376656
  0
ARC
  5
1A7
100
AcDbEntity
  8
0
  6
CONTINUOUS
 62
         7
100
AcDbCircle
 10
5.3331201158
 20
3.9011681262
 30
0.0
 40
0.0092610229
100
AcDbArc
 50
6.6380028231
 51
90.0
  0
ARC
  5
1A8
100
AcDbEntity
  8
0
  6
CONTINUOUS
 62
         7
100
AcDbCircle
 10
5.3330580328
 20
3.8772339015
 30
0.0
 40
0.0092610229
100
AcDbArc
 50
270.0
 51
0.0
  0
ARC
  5
1A9
100
AcDbEntity
  8
0
  6
CONTINUOUS
 62
         7
100
AcDbCircle
 10
5.2688289918
 20
3.8551661502
 30
0.0
 40
0.0128067285
100
AcDbArc
 50
90.0
 51
180.0
  0
ARC
  5
1AA
100
AcDbEntity
  8
0
  6
CONTINUOUS
 62
         7
100
AcDbCircle
 10
5.2696914217
 20
3.531982235
 30
0.0
 40
0.0136691584
100
AcDbArc
 50
180.0
 51
249.7481026467
  0
ARC
  5
1AB
100
AcDbEntity
  8
0
  6
CONTINUOUS
 62
         7
100
AcDbCircle
 10
5.2386374546
 20
3.514601095
 30
0.0
 40
0.0301936057
100
AcDbArc
 50
180.0
 51
248.6593877765
  0
ARC
  5
1AC
100
AcDbEntity
  8
0
  6
CONTINUOUS
 62
         7
100
AcDbCircle
 10
5.2373845454
 20
3.8814884524
 30
0.0
 40
0.0289406966
100
AcDbArc
 50
90.0
 51
180.0
  0
ARC
  5
1AD
100
AcDbEntity
  8
0
  6
CONTINUOUS
 62
         7
100
AcDbCircle
 10
4.9445671795
 20
3.9011681262
 30
0.0
 40
0.0092610229
100
AcDbArc
 50
0.0
 51
90.0
  0
ARC
  5
1AE
100
AcDbEntity
  8
0
  6
CONTINUOUS
 62
         7
100
AcDbCircle
 10
4.9445671795
 20
3.8763028845
 30
0.0
 40
0.0092610229
100
AcDbArc
 50
270.0
 51
0.0
  0
ARC
  5
1AF
100
AcDbEntity
  8
0
  6
CONTINUOUS
 62
         7
100
AcDbCircle
 10
4.968961088
 20
3.6366224428
 30
0.0
 40
0.0103836147
100
AcDbArc
 50
237.0623367517
 51
334.7993407803
  0
ARC
  5
1B0
100
AcDbEntity
  8
0
  6
CONTINUOUS
 62
         7
100
AcDbCircle
 10
4.9808079647
 20
3.6582113382
 30
0.0
 40
0.0088566275
100
AcDbArc
 50
334.7993407803
 51
57.0334195009
  0
ARC
  5
1B1
100
AcDbEntity
  8
0
  6
CONTINUOUS
 62
         7
100
AcDbCircle
 10
4.8298434468
 20
3.7568071779
 30
0.0
 40
0.0309504718
100
AcDbArc
 50
180.0
 51
234.1319944099
  0
ARC
  5
1B2
100
AcDbEntity
  8
0
  6
CONTINUOUS
 62
         7
100
AcDbCircle
 10
4.8532777389
 20
3.7690151026
 30
0.0
 40
0.0107542135
100
AcDbArc
 50
180.0
 51
234.3236670447
  0
ARC
  5
1B3
100
AcDbEntity
  8
0
  6
CONTINUOUS
 62
         7
100
AcDbCircle
 10
4.8517845483
 20
3.8577808387
 30
0.0
 40
0.0092610229
100
AcDbArc
 50
90.0
 51
180.0
  0
ARC
  5
1B4
100
AcDbEntity
  8
0
  6
CONTINUOUS
 62
         7
100
AcDbCircle
 10
4.8278336716
 20
3.8814884524
 30
0.0
 40
0.0289406966
100
AcDbArc
 50
90.0
 51
180.0
  0
ARC
  5
1B5
100
AcDbEntity
  8
0
  6
CONTINUOUS
 62
         7
100
AcDbCircle
 10
5.0427216074
 20
4.6478679449
 30
0.0
 40
1.2468846864
100
AcDbArc
 50
296.9331605037
 51
299.0423023259
  0
ARC
  5
1B6
100
AcDbEntity
  8
0
  6
CONTINUOUS
 62
         7
100
AcDbCircle
 10
3.8071464266
 20
6.6434662848
 30
0.0
 40
3.5931046119
100
AcDbArc
 50
302.5333772885
 51
305.8530484925
  0
ARC
  5
1B7
100
AcDbEntity
  8
0
  6
CONTINUOUS
 62
         7
100
AcDbCircle
 10
5.0427216074
 20
4.6478679449
 30
0.0
 40
1.2030846864
100
AcDbArc
 50
289.7925535591
 51
293.0704075197
  0
ARC
  5
1B8
100
AcDbEntity
  8
0
  6
CONTINUOUS
 62
         7
100
AcDbCircle
 10
3.8071464266
 20
6.6434662848
 30
0.0
 40
3.5493046119
100
AcDbArc
 50
300.8306805683
 51
301.4552322202
  0
ARC
  5
1B9
100
AcDbEntity
  8
0
  6
CONTINUOUS
 62
         7
100
AcDbCircle
 10
6.9169805576
 20
6.6434662848
 30
0.0
 40
3.5931046119
100
AcDbArc
 50
234.1319944099
 51
237.0623367517
  0
ARC
  5
1BA
100
AcDbEntity
  8
0
  6
CONTINUOUS
 62
         7
100
AcDbCircle
 10
5.6814053767
 20
4.6478679449
 30
0.0
 40
1.2468846864
100
AcDbArc
 50
240.9576976741
 51
242.2992703602
  0
ARC
  5
1BB
100
AcDbEntity
  8
0
  6
CONTINUOUS
 62
         7
100
AcDbCircle
 10
5.0427216074
 20
4.6478679449
 30
0.0
 40
1.2468846864
100
AcDbArc
 50
286.9551969296
 51
292.6241013194
  0
ARC
  5
1BC
100
AcDbEntity
  8
0
  6
CONTINUOUS
 62
         7
100
AcDbCircle
 10
3.8071464266
 20
6.6434662848
 30
0.0
 40
3.5931046119
100
AcDbArc
 50
300.8196486159
 51
301.2131485942
  0
ARC
  5
1BD
100
AcDbEntity
  8
0
  6
CONTINUOUS
 62
         7
100
AcDbCircle
 10
4.4939519096
 20
6.4556780613
 30
0.0
 40
1.6006024512
100
AcDbArc
 50
274.1586939119
 51
302.8448157601
  0
ARC
  5
1BE
100
AcDbEntity
  8
0
  6
CONTINUOUS
 62
         7
100
AcDbCircle
 10
4.5047425574
 20
4.6178012775
 30
0.0
 40
0.1830416861
100
AcDbArc
 50
0.0
 51
54.8870634816
  0
ARC
  5
1BF
100
AcDbEntity
  8
0
  6
CONTINUOUS
 62
         7
100
AcDbCircle
 10
4.5836267561
 20
3.9043133608
 30
0.0
 40
0.1091151847
100
AcDbArc
 50
335.1454306366
 51
4.7919174531
  0
ARC
  5
1C0
100
AcDbEntity
  8
0
  6
CONTINUOUS
 62
         7
100
AcDbCircle
 10
4.4761505659
 20
3.954098604
 30
0.0
 40
0.2275622273
100
AcDbArc
 50
313.6918543178
 51
335.1454306366
  0
ARC
  5
1C1
100
AcDbEntity
  8
0
  6
CONTINUOUS
 62
         7
100
AcDbCircle
 10
6.9169805576
 20
6.6434662848
 30
0.0
 40
3.6551046119
100
AcDbArc
 50
231.3339905994
 51
239.1953083122
  0
ARC
  5
1C2
100
AcDbEntity
  8
0
  6
CONTINUOUS
 62
         7
100
AcDbCircle
 10
5.6814053767
 20
4.6478679449
 30
0.0
 40
1.3088846864
100
AcDbArc
 50
240.9152686142
 51
255.878428103
  0
ARC
  5
1C3
100
AcDbEntity
  8
0
  6
CONTINUOUS
 62
         7
100
AcDbCircle
 10
5.0427216074
 20
4.6478679449
 30
0.0
 40
1.3088846864
100
AcDbArc
 50
284.121571897
 51
299.0847313858
  0
ARC
  5
1C4
100
AcDbEntity
  8
0
  6
CONTINUOUS
 62
         7
100
AcDbCircle
 10
3.8071464266
 20
6.6434662848
 30
0.0
 40
3.6551046119
100
AcDbArc
 50
300.8046916878
 51
308.6660094006
  0
ARC
  5
1C5
100
AcDbEntity
  8
0
  6
CONTINUOUS
 62
         7
100
AcDbCircle
 10
6.2479764182
 20
3.954098604
 30
0.0
 40
0.2275622273
100
AcDbArc
 50
204.8545693634
 51
226.3081456822
  0
ARC
  5
1C6
100
AcDbEntity
  8
0
  6
CONTINUOUS
 62
         7
100
AcDbCircle
 10
6.140500228
 20
3.9043133608
 30
0.0
 40
0.1091151847
100
AcDbArc
 50
175.2080825469
 51
204.8545693634
  0
ARC
  5
1C7
100
AcDbEntity
  8
0
  6
CONTINUOUS
 62
         7
100
AcDbCircle
 10
6.2193844268
 20
4.6178012775
 30
0.0
 40
0.1830416861
100
AcDbArc
 50
125.1129365184
 51
180.0
  0
ARC
  5
1C8
100
AcDbEntity
  8
0
  6
CONTINUOUS
 62
         7
100
AcDbCircle
 10
6.2301750745
 20
6.4556780613
 30
0.0
 40
1.6006024512
100
AcDbArc
 50
237.1551842399
 51
265.8413060881
  0
ARC
  5
1C9
100
AcDbEntity
  8
0
  6
CONTINUOUS
 62
         7
100
AcDbCircle
 10
6.2301750745
 20
6.4556780613
 30
0.0
 40
1.5606024512
100
AcDbArc
 50
236.2019757027
 51
267.2059062983
  0
ARC
  5
1CA
100
AcDbEntity
  8
0
  6
CONTINUOUS
 62
         7
100
AcDbCircle
 10
4.4939519096
 20
6.4556780613
 30
0.0
 40
1.5606024512
100
AcDbArc
 50
272.7940937017
 51
303.7980242973
  0
ARC
  5
1CB
100
AcDbEntity
  8
0
  6
CONTINUOUS
 62
         7
100
AcDbCircle
 10
4.5047425574
 20
4.6178012775
 30
0.0
 40
0.1430416861
100
AcDbArc
 50
0.0
 51
62.8451693352
  0
ARC
  5
1CC
100
AcDbEntity
  8
0
  6
CONTINUOUS
 62
         7
100
AcDbCircle
 10
4.5836267561
 20
3.9043133608
 30
0.0
 40
0.0691151847
100
AcDbArc
 50
335.1454306366
 51
7.5784730928
  0
ARC
  5
1CD
100
AcDbEntity
  8
0
  6
CONTINUOUS
 62
         7
100
AcDbCircle
 10
4.4761505659
 20
3.954098604
 30
0.0
 40
0.1875622273
100
AcDbArc
 50
299.4520243805
 51
335.1454306366
  0
ARC
  5
1CE
100
AcDbEntity
  8
0
  6
CONTINUOUS
 62
         7
100
AcDbCircle
 10
6.9169805576
 20
6.6434662848
 30
0.0
 40
3.6951046119
100
AcDbArc
 50
230.5355373117
 51
239.2045736587
  0
ARC
  5
1CF
100
AcDbEntity
  8
0
  6
CONTINUOUS
 62
         7
100
AcDbCircle
 10
5.6814053767
 20
4.6478679449
 30
0.0
 40
1.3488846864
100
AcDbArc
 50
240.8896422591
 51
256.3054852469
  0
ARC
  5
1D0
100
AcDbEntity
  8
0
  6
CONTINUOUS
 62
         7
100
AcDbCircle
 10
5.0427216074
 20
4.6478679449
 30
0.0
 40
1.3488846864
100
AcDbArc
 50
283.6945147531
 51
299.1103577409
  0
ARC
  5
1D1
100
AcDbEntity
  8
0
  6
CONTINUOUS
 62
         7
100
AcDbCircle
 10
3.8071464266
 20
6.6434662848
 30
0.0
 40
3.6951046119
100
AcDbArc
 50
300.7954263413
 51
309.4644626883
  0
ARC
  5
1D2
100
AcDbEntity
  8
0
  6
CONTINUOUS
 62
         7
100
AcDbCircle
 10
6.2479764182
 20
3.954098604
 30
0.0
 40
0.1875622273
100
AcDbArc
 50
204.8545693634
 51
240.5479756195
  0
ARC
  5
1D3
100
AcDbEntity
  8
0
  6
CONTINUOUS
 62
         7
100
AcDbCircle
 10
6.140500228
 20
3.9043133608
 30
0.0
 40
0.0691151847
100
AcDbArc
 50
172.4215269072
 51
204.8545693634
  0
ARC
  5
1D4
100
AcDbEntity
  8
0
  6
CONTINUOUS
 62
         7
100
AcDbCircle
 10
6.2193844268
 20
4.6178012775
 30
0.0
 40
0.1430416861
100
AcDbArc
 50
117.1548306648
 51
180.0
  0
ENDSEC
  0
SECTION
  2
OBJECTS
  0
DICTIONARY
  5
19
100
AcDbDictionary
  3
ACAD_GROUP
350
1A
  3
ACAD_MLINESTYLE
350
1B
  0
DICTIONARY
  5
1A
102
{ACAD_REACTORS
330
19
102
}
100
AcDbDictionary
  0
DICTIONARY
  5
1B
102
{ACAD_REACTORS
330
19
102
}
100
AcDbDictionary
  3
STANDARD
350
1C
  0
MLINESTYLE
  5
1C
102
{ACAD_REACTORS
330
1B
102
}
100
AcDbMlineStyle
  2
STANDARD
 70
         0
  3

 62
         0
 51
90.0
 52
90.0
 71
         2
 49
0.5
 62
       256
  6
BYLAYER
 49
-0.5
 62
       256
  6
BYLAYER
  0
ENDSEC
  0
EOF
