  0
SECTION
  2
HEADER
  9
$ACADVER
  1
AC1009
  9
$LIMMIN
 10
-.26082
 20
3.245193
  9
$LIMMAX
 10
25.21982
 20
22.35567
  0
ENDSEC
  0
SECTION
  2
TABLES
  0
TABLE
  2
LTYPE
 70
     4
  0
LTYPE
  2
CONTINUOUS
 70
     0
  3
Solid line
 72
    65
 73
     0
 40
0.000000
  0
LTYPE
  2
HIDDEN
 70
     0
  3
 _ _ _ _ _ _ _ _ _ _ _
 72
    65
 73
     2
 40
0.375000
 49
0.250000
 49
-0.125000
  0
LTYPE
  2
DASHED
 70
     0
  3
 ___ ___ ___ ___ ___ ___ ___ 
 72
    65
 73
     2
 40
0.750000
 49
0.500000
 49
-0.250000
  0
LTYPE
  2
CENTER
 70
     0
  3
___ _ ___ _ ___ _ ___
 72
    65
 73
     4
 40
2.000000
 49
1.250000
 49
-0.250000
 49
0.250000
 49
-0.250000
  0
LTYPE
  2
BORDER
 70
     0
  3
___ ___ . ___ ___ . ___ ___
 72
    65
 73
     6
 40
1.750000
 49
0.500000
 49
-0.250000
 49
0.500000
 49
-0.250000
 49
0.000000
 49
-0.250000
  0
LTYPE
  2
DOT
 70
     0
  3
.................
 72
    65
 73
     2
 40
0.250000
 49
0.000000
 49
-0.250000
  0
LTYPE
  2
DASHDOT
 70
     0
  3
__ . __ . __ . __
 72
    65
 73
     4
 40
1.000000
 49
0.500000
 49
-0.250000
 49
0.000000
 49
-0.250000
  0
LTYPE
  2
DIVIDE
 70
     0
  3
___ .. ___ .. ___ .. ___
 72
    65
 73
     6
 40
1.250000
 49
0.500000
 49
-0.250000
 49
0.000000
 49
-0.250000
 49
0.000000
 49
-0.250000
  0
ENDTAB
  0
TABLE
  2
LAYER
 70
     8
  0
LAYER
  2
BLACK
 70
     0
 62
     0
  6
CONTINUOUS
  0
LAYER
  2
WHITE
 70
     0
 62
     7
  6
CONTINUOUS
  0
LAYER
  2
RED
 70
     0
 62
     1
  6
CONTINUOUS
  0
LAYER
  2
YELLOW
 70
     0
 62
     2
  6
CONTINUOUS
  0
LAYER
  2
GREEN
 70
     0
 62
     3
  6
CONTINUOUS
  0
LAYER
  2
CYAN
 70
     0
 62
     4
  6
CONTINUOUS
  0
LAYER
  2
BLUE
 70
     0
 62
     5
  6
CONTINUOUS
  0
LAYER
  2
MAGENTA
 70
     0
 62
     6
  6
CONTINUOUS
  0
ENDTAB
  0
ENDSEC
  0
SECTION
  2
BLOCKS
  0
ENDSEC
  0
SECTION
  2
ENTITIES
 0
LINE
 8
WHITE
 10
20.359
 20
10.912
 30
0.0000
 11
20.61
 21
10.912
 31
0.0000
 6
CONTINUOUS
 0
LINE
 8
WHITE
 10
20.61
 20
10.912
 30
0.0000
 11
20.61
 21
12.571
 31
0.0000
 6
CONTINUOUS
 0
LINE
 8
WHITE
 10
20.61
 20
12.571
 30
0.0000
 11
21.031
 21
10.912
 31
0.0000
 6
CONTINUOUS
 0
LINE
 8
WHITE
 10
21.031
 20
10.912
 30
0.0000
 11
21.295
 21
10.912
 31
0.0000
 6
CONTINUOUS
 0
LINE
 8
WHITE
 10
21.295
 20
10.912
 30
0.0000
 11
21.295
 21
13.489
 31
0.0000
 6
CONTINUOUS
 0
LINE
 8
WHITE
 10
21.295
 20
13.489
 30
0.0000
 11
21.05
 21
13.489
 31
0.0000
 6
CONTINUOUS
 0
LINE
 8
WHITE
 10
21.05
 20
13.489
 30
0.0000
 11
21.05
 21
11.811
 31
0.0000
 6
CONTINUOUS
 0
LINE
 8
WHITE
 10
21.05
 20
11.811
 30
0.0000
 11
20.623
 21
13.489
 31
0.0000
 6
CONTINUOUS
 0
LINE
 8
WHITE
 10
20.623
 20
13.489
 30
0.0000
 11
20.359
 21
13.489
 31
0.0000
 6
CONTINUOUS
 0
LINE
 8
WHITE
 10
20.359
 20
13.489
 30
0.0000
 11
20.359
 21
10.912
 31
0.0000
 6
CONTINUOUS
 0
LINE
 8
WHITE
 10
18.284
 20
11.113
 30
0.0000
 11
18.341
 21
11.113
 31
0.0000
 6
CONTINUOUS
 0
ARC
 8
WHITE
 10
18.3401
 20
11.302
 30
 0
 40
.189002
 50
270.2728
 51
1.819133
 6
CONTINUOUS
 0
LINE
 8
WHITE
 10
18.529
 20
11.308
 30
0.0000
 11
18.529
 21
11.943
 31
0.0000
 6
CONTINUOUS
 0
ARC
 8
WHITE
 10
18.34
 20
11.942
 30
 0
 40
.189002
 50
.303149
 51
89.69702
 6
CONTINUOUS
 0
LINE
 8
WHITE
 10
19.095
 20
11.157
 30
0.0000
 11
19.095
 21
13.244
 31
0.0000
 6
CONTINUOUS
 0
ARC
 8
WHITE
 10
19.34
 20
13.244
 30
 0
 40
.245
 50
88.36343
 51
180
 6
CONTINUOUS
 0
LINE
 8
WHITE
 10
19.347
 20
13.489
 30
0.0000
 11
19.793
 21
13.489
 31
0.0000
 6
CONTINUOUS
 0
ARC
 8
WHITE
 10
19.793
 20
13.244
 30
 0
 40
.245
 50
0
 51
90
 6
CONTINUOUS
 0
LINE
 8
WHITE
 10
20.038
 20
13.244
 30
0.0000
 11
20.038
 21
11.157
 31
0.0000
 6
CONTINUOUS
 0
ARC
 8
WHITE
 10
19.793
 20
11.157
 30
 0
 40
.245
 50
270
 51
0
 6
CONTINUOUS
 0
LINE
 8
WHITE
 10
19.793
 20
10.912
 30
0.0000
 11
19.347
 21
10.912
 31
0.0000
 6
CONTINUOUS
 0
ARC
 8
WHITE
 10
19.346
 20
11.157
 30
 0
 40
.245002
 50
180
 51
270.2339
 6
CONTINUOUS
 0
LINE
 8
WHITE
 10
19.598
 20
11.176
 30
0.0000
 11
19.541
 21
11.176
 31
0.0000
 6
CONTINUOUS
 0
ARC
 8
WHITE
 10
19.5419
 20
11.302
 30
 0
 40
.126003
 50
177.7257
 51
269.5908
 6
CONTINUOUS
 0
LINE
 8
WHITE
 10
19.409
 20
11.308
 30
0.0000
 11
19.409
 21
13.093
 31
0.0000
 6
CONTINUOUS
 0
ARC
 8
WHITE
 10
19.535
 20
13.0921
 30
 0
 40
.126003
 50
87.2713
 51
179.5907
 6
CONTINUOUS
 0
LINE
 8
WHITE
 10
19.541
 20
13.218
 30
0.0000
 11
19.598
 21
13.219
 31
0.0000
 6
CONTINUOUS
 0
ARC
 8
WHITE
 10
19.5924
 20
13.081
 30
 0
 40
.138113
 50
4.984151
 51
87.67623
 6
CONTINUOUS
 0
LINE
 8
WHITE
 10
18.781
 20
12.068
 30
0.0000
 11
18.781
 21
11.182
 31
0.0000
 6
CONTINUOUS
 0
ARC
 8
WHITE
 10
18.511
 20
11.182
 30
 0
 40
.27
 50
268.5149
 51
0
 6
CONTINUOUS
 0
LINE
 8
WHITE
 10
18.504
 20
10.912
 30
0.0000
 11
18.108
 21
10.912
 31
0.0000
 6
CONTINUOUS
 0
ARC
 8
WHITE
 10
18.108
 20
11.182
 30
 0
 40
.27
 50
180
 51
270
 6
CONTINUOUS
 0
LINE
 8
WHITE
 10
17.838
 20
11.182
 30
0.0000
 11
17.838
 21
11.622
 31
0.0000
 6
CONTINUOUS
 0
LINE
 8
WHITE
 10
17.838
 20
11.622
 30
0.0000
 11
18.089
 21
11.622
 31
0.0000
 6
CONTINUOUS
 0
LINE
 8
WHITE
 10
18.089
 20
11.622
 30
0.0000
 11
18.089
 21
11.308
 31
0.0000
 6
CONTINUOUS
 0
ARC
 8
WHITE
 10
18.278
 20
11.308
 30
 0
 40
.188999
 50
180
 51
271.8185
 6
CONTINUOUS
 0
LINE
 8
WHITE
 10
18.341
 20
12.137
 30
0.0000
 11
18.108
 21
12.137
 31
0.0000
 6
CONTINUOUS
 0
ARC
 8
WHITE
 10
18.108
 20
12.407
 30
 0
 40
.27
 50
179.7879
 51
270
 6
CONTINUOUS
 0
LINE
 8
WHITE
 10
17.838
 20
12.408
 30
0.0000
 11
17.838
 21
13.219
 31
0.0000
 6
CONTINUOUS
 0
ARC
 8
WHITE
 10
18.108
 20
13.219
 30
 0
 40
.27
 50
90
 51
180
 6
CONTINUOUS
 0
LINE
 8
WHITE
 10
18.108
 20
13.489
 30
0.0000
 11
18.504
 21
13.489
 31
0.0000
 6
CONTINUOUS
 0
ARC
 8
WHITE
 10
18.505
 20
13.219
 30
 0
 40
.270001
 50
0
 51
90.2122
 6
CONTINUOUS
 0
LINE
 8
WHITE
 10
18.089
 20
13.093
 30
0.0000
 11
18.089
 21
12.533
 31
0.0000
 6
CONTINUOUS
 0
ARC
 8
WHITE
 10
18.278
 20
12.5339
 30
 0
 40
.189002
 50
180.2728
 51
271.8194
 6
CONTINUOUS
 0
LINE
 8
WHITE
 10
18.284
 20
12.345
 30
0.0000
 11
18.504
 21
12.345
 31
0.0000
 6
CONTINUOUS
 0
ARC
 8
WHITE
 10
18.5051
 20
12.075
 30
 0
 40
.270002
 50
358.5143
 51
90.23343
 6
CONTINUOUS
 0
LINE
 8
WHITE
 10
19.724
 20
13.093
 30
0.0000
 11
19.724
 21
11.308
 31
0.0000
 6
CONTINUOUS
 0
ARC
 8
WHITE
 10
19.598
 20
11.308
 30
 0
 40
.126
 50
269.9991
 51
0
 6
CONTINUOUS
 0
LINE
 8
WHITE
 10
18.781
 20
13.219
 30
0.0000
 11
18.781
 21
12.779
 31
0.0000
 6
CONTINUOUS
 0
LINE
 8
WHITE
 10
18.781
 20
12.779
 30
0.0000
 11
18.529
 21
12.779
 31
0.0000
 6
CONTINUOUS
 0
LINE
 8
WHITE
 10
18.529
 20
12.779
 30
0.0000
 11
18.529
 21
13.093
 31
0.0000
 6
CONTINUOUS
 0
ARC
 8
WHITE
 10
18.34
 20
13.092
 30
 0
 40
.189002
 50
.303149
 51
89.69702
 6
CONTINUOUS
 0
LINE
 8
WHITE
 10
18.341
 20
13.281
 30
0.0000
 11
18.284
 21
13.281
 31
0.0000
 6
CONTINUOUS
 0
ARC
 8
WHITE
 10
18.291
 20
13.086
 30
 0
 40
.195125
 50
92.05589
 51
177.9441
 6
CONTINUOUS
 0
ARC
 8
WHITE
 10
18.416
 20
28.386
 30
 0
 40
11.02883
 50
238.1862
 51
271.0443
 6
CONTINUOUS
 0
LINE
 8
WHITE
 10
12.602
 20
19.014
 30
0.0000
 11
12.401
 21
19.146
 31
0.0000
 6
CONTINUOUS
 0
LINE
 8
WHITE
 10
12.401
 20
19.146
 30
0.0000
 11
12.195
 21
19.011
 31
0.0000
 6
CONTINUOUS
 0
ARC
 8
WHITE
 10
6.380199
 20
28.3797
 30
 0
 40
11.02653
 50
268.9493
 51
301.8263
 6
CONTINUOUS
 0
LINE
 8
WHITE
 10
6.177999
 20
17.355
 30
0.0000
 11
6.178999
 21
16.094
 31
0.0000
 6
CONTINUOUS
 0
ARC
 8
WHITE
 10
5.964999
 20
15.211
 30
 0
 40
.908562
 50
345.5967
 51
76.37672
 6
CONTINUOUS
 0
ARC
 8
WHITE
 10
6.187599
 20
15.112
 30
 0
 40
.669554
 50
346.2627
 51
349.066
 6
CONTINUOUS
 0
LINE
 8
WHITE
 10
6.837999
 20
14.953
 30
0.0000
 11
7.171999
 21
14.953
 31
0.0000
 6
CONTINUOUS
 0
ARC
 8
WHITE
 10
5.9709
 20
15.2108
 30
 0
 40
1.228455
 50
347.886
 51
64.22762
 6
CONTINUOUS
 0
LINE
 8
WHITE
 10
6.505
 20
16.317
 30
0.0000
 11
6.505
 21
17.031
 31
0.0000
 6
CONTINUOUS
 0
ARC
 8
WHITE
 10
6.386
 20
28.379
 30
 0
 40
11.34862
 50
270.6008
 51
302.0011
 6
CONTINUOUS
 0
ARC
 8
WHITE
 10
18.4104
 20
28.3857
 30
 0
 40
11.35233
 50
238.0322
 51
269.3974
 6
CONTINUOUS
 0
LINE
 8
WHITE
 10
18.291
 20
17.034
 30
0.0000
 11
18.291
 21
16.317
 31
0.0000
 6
CONTINUOUS
 0
ARC
 8
WHITE
 10
18.8248
 20
15.2109
 30
 0
 40
1.228169
 50
115.7618
 51
192.1214
 6
CONTINUOUS
 0
LINE
 8
WHITE
 10
17.624
 20
14.953
 30
0.0000
 11
17.958
 21
14.954
 31
0.0000
 6
CONTINUOUS
 0
ARC
 8
WHITE
 10
18.6179
 20
15.0527
 30
 0
 40
.66724
 50
185.7371
 51
188.5066
 6
CONTINUOUS
 0
ARC
 8
WHITE
 10
18.8312
 20
15.2111
 30
 0
 40
.905621
 50
103.6817
 51
194.3922
 6
CONTINUOUS
 0
LINE
 8
WHITE
 10
18.617
 20
16.091
 30
0.0000
 11
18.617
 21
17.359
 31
0.0000
 6
CONTINUOUS
 0
LINE
 8
WHITE
 10
14.431
 20
16.996
 30
0.0000
 11
14.532
 21
17.003
 31
0.0000
 6
CONTINUOUS
 0
ARC
 8
WHITE
 10
14.532
 20
16.846
 30
 0
 40
.157
 50
359.6346
 51
90
 6
CONTINUOUS
 0
LINE
 8
WHITE
 10
14.683
 20
16.845
 30
0.0000
 11
14.683
 21
15.557
 31
0.0000
 6
CONTINUOUS
 0
ARC
 8
WHITE
 10
14.526
 20
15.5569
 30
 0
 40
.157
 50
272.1898
 51
.036494
 6
CONTINUOUS
 0
LINE
 8
WHITE
 10
15.883
 20
15.997
 30
0.0000
 11
15.883
 21
16.569
 31
0.0000
 6
CONTINUOUS
 0
ARC
 8
WHITE
 10
15.933
 20
16.5697
 30
 0
 40
.050004
 50
74.93622
 51
180.8021
 6
CONTINUOUS
 0
LINE
 8
WHITE
 10
15.946
 20
16.618
 30
0.0000
 11
16.468
 21
16.556
 31
0.0000
 6
CONTINUOUS
 0
ARC
 8
WHITE
 10
16.3432
 20
16.2415
 30
 0
 40
.338356
 50
274.0338
 51
68.35582
 6
CONTINUOUS
 0
LINE
 8
WHITE
 10
16.367
 20
15.904
 30
0.0000
 11
15.933
 21
15.947
 31
0.0000
 6
CONTINUOUS
 0
ARC
 8
WHITE
 10
15.9394
 20
15.997
 30
 0
 40
.050407
 50
180
 51
262.7058
 6
CONTINUOUS
 0
LINE
 8
WHITE
 10
14.28
 20
15.557
 30
0.0000
 11
14.28
 21
16.845
 31
0.0000
 6
CONTINUOUS
 0
ARC
 8
WHITE
 10
14.437
 20
16.8451
 30
 0
 40
.157
 50
92.18978
 51
180.0365
 6
CONTINUOUS
 0
LINE
 8
WHITE
 10
14.532
 20
15.406
 30
0.0000
 11
14.431
 21
15.406
 31
0.0000
 6
CONTINUOUS
 0
ARC
 8
WHITE
 10
14.4309
 20
15.563
 30
 0
 40
.157
 50
182.1898
 51
270.0365
 6
CONTINUOUS
 0
LINE
 8
WHITE
 10
15.022
 20
14.953
 30
0.0000
 11
13.903
 21
14.953
 31
0.0000
 6
CONTINUOUS
 0
ARC
 8
WHITE
 10
13.9028
 20
15.047
 30
 0
 40
.094
 50
183.6597
 51
270.1219
 6
CONTINUOUS
 0
LINE
 8
WHITE
 10
13.809
 20
15.041
 30
0.0000
 11
13.809
 21
17.449
 31
0.0000
 6
CONTINUOUS
 0
ARC
 8
WHITE
 10
13.903
 20
17.4486
 30
 0
 40
.094
 50
66.81783
 51
179.7562
 6
CONTINUOUS
 0
ARC
 8
WHITE
 10
18.3949
 20
28.3937
 30
 0
 40
11.73701
 50
247.6936
 51
253.4317
 6
CONTINUOUS
 0
ARC
 8
WHITE
 10
15.0194
 20
17.0538
 30
 0
 40
.094625
 50
359.516
 51
72.40758
 6
CONTINUOUS
 0
LINE
 8
WHITE
 10
15.114
 20
17.053
 30
0.0000
 11
15.116
 21
15.041
 31
0.0000
 6
CONTINUOUS
 0
ARC
 8
WHITE
 10
15.022
 20
15.041
 30
 0
 40
.093999
 50
270
 51
0
 6
CONTINUOUS
 0
LINE
 8
WHITE
 10
15.519
 20
14.953
 30
0.0000
 11
15.82
 21
14.953
 31
0.0000
 6
CONTINUOUS
 0
LINE
 8
WHITE
 10
15.82
 20
14.953
 30
0.0000
 11
15.82
 21
15.362
 31
0.0000
 6
CONTINUOUS
 0
ARC
 8
WHITE
 10
15.934
 20
15.3597
 30
 0
 40
.114023
 50
96.54575
 51
178.8442
 6
CONTINUOUS
 0
ARC
 8
WHITE
 10
16.0408
 20
14.6141
 30
 0
 40
.867214
 50
23.00514
 51
97.94043
 6
CONTINUOUS
 0
LINE
 8
WHITE
 10
16.839
 20
14.953
 30
0.0000
 11
17.043
 21
14.953
 31
0.0000
 6
CONTINUOUS
 0
ARC
 8
WHITE
 10
16.261
 20
14.9715
 30
 0
 40
.782218
 50
358.6448
 51
47.04625
 6
CONTINUOUS
 0
ARC
 8
WHITE
 10
16.8742
 20
15.6277
 30
 0
 40
.115921
 50
130.4196
 51
226.2233
 6
CONTINUOUS
 0
ARC
 8
WHITE
 10
16.3973
 20
16.1914
 30
 0
 40
.622388
 50
310.1969
 51
75.89238
 6
CONTINUOUS
 0
ARC
 8
WHITE
 10
18.4371
 20
28.3756
 30
 0
 40
11.73351
 50
256.4851
 51
260.74
 6
CONTINUOUS
 0
ARC
 8
WHITE
 10
15.6636
 20
16.8259
 30
 0
 40
.144551
 50
77.45399
 51
179.5639
 6
CONTINUOUS
 0
LINE
 8
WHITE
 10
15.519
 20
16.827
 30
0.0000
 11
15.519
 21
14.953
 31
0.0000
 6
CONTINUOUS
 0
LINE
 8
WHITE
 10
17.209
 20
13.093
 30
0.0000
 11
17.209
 21
11.308
 31
0.0000
 6
CONTINUOUS
 0
ARC
 8
WHITE
 10
17.083
 20
11.308
 30
 0
 40
.126
 50
270.4545
 51
0
 6
CONTINUOUS
 0
LINE
 8
WHITE
 10
16.895
 20
11.308
 30
0.0000
 11
16.895
 21
13.093
 31
0.0000
 6
CONTINUOUS
 0
ARC
 8
WHITE
 10
17.021
 20
13.0921
 30
 0
 40
.126003
 50
87.2713
 51
179.5907
 6
CONTINUOUS
 0
LINE
 8
WHITE
 10
17.027
 20
13.218
 30
0.0000
 11
17.084
 21
13.219
 31
0.0000
 6
CONTINUOUS
 0
ARC
 8
WHITE
 10
17.1091
 20
13.112
 30
 0
 40
.109904
 50
348.9864
 51
103.2017
 6
CONTINUOUS
 0
LINE
 8
WHITE
 10
17.084
 20
11.176
 30
0.0000
 11
17.027
 21
11.176
 31
0.0000
 6
CONTINUOUS
 0
ARC
 8
WHITE
 10
17.0279
 20
11.302
 30
 0
 40
.126003
 50
177.7257
 51
269.5908
 6
CONTINUOUS
 0
LINE
 8
WHITE
 10
16.581
 20
10.912
 30
0.0000
 11
17.272
 21
10.912
 31
0.0000
 6
CONTINUOUS
 0
ARC
 8
WHITE
 10
17.272
 20
11.157
 30
 0
 40
.245
 50
270
 51
0
 6
CONTINUOUS
 0
LINE
 8
WHITE
 10
17.517
 20
11.157
 30
0.0000
 11
17.517
 21
13.244
 31
0.0000
 6
CONTINUOUS
 0
ARC
 8
WHITE
 10
17.272
 20
13.244
 30
 0
 40
.245
 50
0
 51
90
 6
CONTINUOUS
 0
LINE
 8
WHITE
 10
17.272
 20
13.489
 30
0.0000
 11
16.581
 21
13.489
 31
0.0000
 6
CONTINUOUS
 0
LINE
 8
WHITE
 10
16.581
 20
13.489
 30
0.0000
 11
16.581
 21
10.912
 31
0.0000
 6
CONTINUOUS
 0
LINE
 8
WHITE
 10
16.009
 20
10.912
 30
0.0000
 11
16.26
 21
10.912
 31
0.0000
 6
CONTINUOUS
 0
LINE
 8
WHITE
 10
16.26
 20
10.912
 30
0.0000
 11
16.26
 21
13.489
 31
0.0000
 6
CONTINUOUS
 0
LINE
 8
WHITE
 10
16.26
 20
13.489
 30
0.0000
 11
16.009
 21
13.489
 31
0.0000
 6
CONTINUOUS
 0
LINE
 8
WHITE
 10
16.009
 20
13.489
 30
0.0000
 11
16.009
 21
10.912
 31
0.0000
 6
CONTINUOUS
 0
LINE
 8
WHITE
 10
14.915
 20
10.912
 30
0.0000
 11
15.368
 21
10.912
 31
0.0000
 6
CONTINUOUS
 0
LINE
 8
WHITE
 10
15.368
 20
10.912
 30
0.0000
 11
15.682
 21
13.489
 31
0.0000
 6
CONTINUOUS
 0
LINE
 8
WHITE
 10
15.682
 20
13.489
 30
0.0000
 11
15.475
 21
13.489
 31
0.0000
 6
CONTINUOUS
 0
LINE
 8
WHITE
 10
15.475
 20
13.489
 30
0.0000
 11
15.38
 21
12.709
 31
0.0000
 6
CONTINUOUS
 0
LINE
 8
WHITE
 10
15.38
 20
12.709
 30
0.0000
 11
15.343
 21
12.383
 31
0.0000
 6
CONTINUOUS
 0
LINE
 8
WHITE
 10
15.343
 20
12.383
 30
0.0000
 11
15.192
 21
11.132
 31
0.0000
 6
CONTINUOUS
 0
LINE
 8
WHITE
 10
15.192
 20
11.132
 30
0.0000
 11
15.097
 21
11.132
 31
0.0000
 6
CONTINUOUS
 0
LINE
 8
WHITE
 10
15.097
 20
11.132
 30
0.0000
 11
14.947
 21
12.383
 31
0.0000
 6
CONTINUOUS
 0
LINE
 8
WHITE
 10
14.947
 20
12.383
 30
0.0000
 11
14.909
 21
12.709
 31
0.0000
 6
CONTINUOUS
 0
LINE
 8
WHITE
 10
14.909
 20
12.709
 30
0.0000
 11
14.808
 21
13.489
 31
0.0000
 6
CONTINUOUS
 0
LINE
 8
WHITE
 10
14.808
 20
13.489
 30
0.0000
 11
14.601
 21
13.489
 31
0.0000
 6
CONTINUOUS
 0
LINE
 8
WHITE
 10
14.601
 20
13.489
 30
0.0000
 11
14.915
 21
10.912
 31
0.0000
 6
CONTINUOUS
 0
LINE
 8
WHITE
 10
16.971
 20
9.541
 30
0.0000
 11
17.002
 21
9.227
 31
0.0000
 6
CONTINUOUS
 0
ARC
 8
WHITE
 10
17.002
 20
9.239999
 30
 0
 40
.013
 50
270
 51
0
 6
CONTINUOUS
 0
LINE
 8
WHITE
 10
17.015
 20
9.239999
 30
0.0000
 11
16.003
 21
9.215
 31
0.0000
 6
CONTINUOUS
 0
ARC
 8
WHITE
 10
16.003
 20
9.026
 30
 0
 40
.188999
 50
90
 51
181.8182
 6
CONTINUOUS
 0
LINE
 8
WHITE
 10
14.406
 20
9.522999
 30
0.0000
 11
15.047
 21
9.522999
 31
0.0000
 6
CONTINUOUS
 0
ARC
 8
WHITE
 10
15.0341
 20
9.521399
 30
 0
 40
.012998
 50
7.070344
 51
103.8187
 6
CONTINUOUS
 0
LINE
 8
WHITE
 10
15.06
 20
9.51
 30
0.0000
 11
15.06
 21
9.251999
 31
0.0000
 6
CONTINUOUS
 0
ARC
 8
WHITE
 10
15.022
 20
9.253
 30
 0
 40
.038013
 50
270
 51
358.4926
 6
CONTINUOUS
 0
LINE
 8
WHITE
 10
15.022
 20
9.215
 30
0.0000
 11
14.708
 21
9.215
 31
0.0000
 6
CONTINUOUS
 0
ARC
 8
WHITE
 10
14.707
 20
9.077
 30
 0
 40
.138003
 50
89.58482
 51
180.4153
 6
CONTINUOUS
 0
LINE
 8
WHITE
 10
14.569
 20
9.076
 30
0.0000
 11
14.557
 21
8.385
 31
0.0000
 6
CONTINUOUS
 0
ARC
 8
WHITE
 10
14.695
 20
8.384699
 30
 0
 40
.138
 50
179.8754
 51
277.9129
 6
CONTINUOUS
 0
LINE
 8
WHITE
 10
14.714
 20
8.248
 30
0.0000
 11
15.047
 21
8.265
 31
0.0000
 6
CONTINUOUS
 0
ARC
 8
WHITE
 10
15.034
 20
8.265
 30
 0
 40
.013
 50
0
 51
85.60355
 6
CONTINUOUS
 0
LINE
 8
WHITE
 10
15.035
 20
8.277999
 30
0.0000
 11
15.06
 21
7.964
 31
0.0000
 6
CONTINUOUS
 0
ARC
 8
WHITE
 10
15.0594
 20
7.977
 30
 0
 40
.013013
 50
272.6425
 51
13.39259
 6
CONTINUOUS
 0
LINE
 8
WHITE
 10
15.808
 20
9.02
 30
0.0000
 11
15.808
 21
8.906999
 31
0.0000
 6
CONTINUOUS
 0
ARC
 8
WHITE
 10
15.997
 20
8.906999
 30
 0
 40
.188999
 50
180
 51
269.697
 6
CONTINUOUS
 0
LINE
 8
WHITE
 10
15.996
 20
8.711999
 30
0.0000
 11
16.807
 21
8.704999
 31
0.0000
 6
CONTINUOUS
 0
ARC
 8
WHITE
 10
16.807
 20
8.51
 30
 0
 40
.194999
 50
.293658
 51
90
 6
CONTINUOUS
 0
LINE
 8
WHITE
 10
17.002
 20
8.510999
 30
0.0000
 11
17.002
 21
8.159
 31
0.0000
 6
CONTINUOUS
 0
ARC
 8
WHITE
 10
16.9957
 20
8.1719
 30
 0
 40
.014356
 50
296.0296
 51
356.3937
 6
CONTINUOUS
 0
LINE
 8
WHITE
 10
16.581
 20
8.385
 30
0.0000
 11
15.713
 21
8.385
 31
0.0000
 6
CONTINUOUS
 0
ARC
 8
WHITE
 10
15.714
 20
8.579999
 30
 0
 40
.195002
 50
180
 51
269.7062
 6
CONTINUOUS
 0
LINE
 8
WHITE
 10
15.519
 20
8.579999
 30
0.0000
 11
15.519
 21
9.328
 31
0.0000
 6
CONTINUOUS
 0
ARC
 8
WHITE
 10
15.714
 20
9.328
 30
 0
 40
.194999
 50
90.29366
 51
180
 6
CONTINUOUS
 0
LINE
 8
WHITE
 10
15.713
 20
9.522999
 30
0.0000
 11
16.989
 21
9.522999
 31
0.0000
 6
CONTINUOUS
 0
ARC
 8
WHITE
 10
16.9761
 20
9.521399
 30
 0
 40
.012998
 50
7.070344
 51
103.8269
 6
CONTINUOUS
 0
LINE
 8
WHITE
 10
16.996
 20
8.145999
 30
0.0000
 11
16.908
 21
8.088999
 31
0.0000
 6
CONTINUOUS
 0
LINE
 8
WHITE
 10
16.908
 20
8.088999
 30
0.0000
 11
15.519
 21
7.146999
 31
0.0000
 6
CONTINUOUS
 0
LINE
 8
WHITE
 10
15.519
 20
7.146999
 30
0.0000
 11
15.519
 21
7.467
 31
0.0000
 6
CONTINUOUS
 0
ARC
 8
WHITE
 10
15.5253
 20
7.4541
 30
 0
 40
.014356
 50
116.0296
 51
176.3996
 6
CONTINUOUS
 0
LINE
 8
WHITE
 10
15.511
 20
7.454999
 30
0.0000
 11
16.631
 21
8.227999
 31
0.0000
 6
CONTINUOUS
 0
ARC
 8
WHITE
 10
16.5823
 20
8.303899
 30
 0
 40
.09018
 50
302.6856
 51
90.82714
 6
CONTINUOUS
 0
LINE
 8
WHITE
 10
15.079
 20
7.982999
 30
0.0000
 11
14.695
 21
7.932
 31
0.0000
 6
CONTINUOUS
 0
ARC
 8
WHITE
 10
14.695
 20
7.794
 30
 0
 40
.137999
 50
90
 51
180
 6
CONTINUOUS
 0
LINE
 8
WHITE
 10
14.557
 20
7.794
 30
0.0000
 11
14.551
 21
7.133999
 31
0.0000
 6
CONTINUOUS
 0
ARC
 8
WHITE
 10
14.689
 20
7.133699
 30
 0
 40
.138
 50
179.8754
 51
305.9484
 6
CONTINUOUS
 0
LINE
 8
WHITE
 10
14.77
 20
7.021999
 30
0.0000
 11
15.035
 21
7.197
 31
0.0000
 6
CONTINUOUS
 0
ARC
 8
WHITE
 10
15.022
 20
7.196499
 30
 0
 40
.013009
 50
2.202598
 51
117.5541
 6
CONTINUOUS
 0
LINE
 8
WHITE
 10
15.06
 20
7.190999
 30
0.0000
 11
15.06
 21
6.856999
 31
0.0000
 6
CONTINUOUS
 0
ARC
 8
WHITE
 10
15.022
 20
6.857899
 30
 0
 40
.03801
 50
300.0069
 51
358.6432
 6
CONTINUOUS
 0
LINE
 8
WHITE
 10
15.041
 20
6.824999
 30
0.0000
 11
14.299
 21
6.322999
 31
0.0000
 6
CONTINUOUS
 0
ARC
 8
WHITE
 10
14.2758
 20
6.3554
 30
 0
 40
.039849
 50
180.5759
 51
305.6045
 6
CONTINUOUS
 0
LINE
 8
WHITE
 10
14.236
 20
6.355
 30
0.0000
 11
14.261
 21
9.383999
 31
0.0000
 6
CONTINUOUS
 0
ARC
 8
WHITE
 10
14.406
 20
9.383999
 30
 0
 40
.144999
 50
90
 51
180
 6
CONTINUOUS
 0
ARC
 8
WHITE
 10
12.2682
 20
5.569399
 30
 0
 40
.094876
 50
245.596
 51
359.7582
 6
CONTINUOUS
 0
LINE
 8
WHITE
 10
12.363
 20
5.568999
 30
0.0000
 11
12.365
 21
5.706999
 31
0.0000
 6
CONTINUOUS
 0
ARC
 8
WHITE
 10
12.275
 20
5.707399
 30
 0
 40
.09
 50
359.7454
 51
65.02924
 6
CONTINUOUS
 0
LINE
 8
WHITE
 10
12.313
 20
5.789
 30
0.0000
 11
11.673
 21
6.011
 31
0.0000
 6
CONTINUOUS
 0
ARC
 8
WHITE
 10
11.7472
 20
6.1839
 30
 0
 40
.188149
 50
179.6652
 51
246.7734
 6
CONTINUOUS
 0
LINE
 8
WHITE
 10
11.559
 20
6.184999
 30
0.0000
 11
11.559
 21
9.02
 31
0.0000
 6
CONTINUOUS
 0
ARC
 8
WHITE
 10
11.747
 20
9.0269
 30
 0
 40
.188126
 50
90
 51
182.1019
 6
CONTINUOUS
 0
LINE
 8
WHITE
 10
11.747
 20
9.215
 30
0.0000
 11
12.275
 21
9.215
 31
0.0000
 6
CONTINUOUS
 0
ARC
 8
WHITE
 10
12.275
 20
9.277999
 30
 0
 40
.063
 50
270
 51
359.0911
 6
CONTINUOUS
 0
LINE
 8
WHITE
 10
12.338
 20
9.277
 30
0.0000
 11
12.338
 21
9.46
 31
0.0000
 6
CONTINUOUS
 0
ARC
 8
WHITE
 10
12.275
 20
9.46
 30
 0
 40
.063
 50
0
 51
90.00087
 6
CONTINUOUS
 0
LINE
 8
WHITE
 10
12.275
 20
9.522999
 30
0.0000
 11
11.313
 21
9.522
 31
0.0000
 6
CONTINUOUS
 0
ARC
 8
WHITE
 10
11.3073
 20
9.459
 30
 0
 40
.063257
 50
84.83017
 51
179.0954
 6
CONTINUOUS
 0
LINE
 8
WHITE
 10
11.244
 20
9.46
 30
0.0000
 11
11.244
 21
6.116
 31
0.0000
 6
CONTINUOUS
 0
LINE
 8
WHITE
 10
11.244
 20
6.116
 30
0.0000
 11
11.246
 21
5.94
 31
0.0000
 6
CONTINUOUS
 0
ARC
 8
WHITE
 10
11.364
 20
5.9394
 30
 0
 40
.118001
 50
179.7087
 51
244.3903
 6
CONTINUOUS
 0
LINE
 8
WHITE
 10
11.313
 20
5.833
 30
0.0000
 11
12.229
 21
5.482999
 31
0.0000
 6
CONTINUOUS
 0
ARC
 8
WHITE
 10
12.759
 20
5.486499
 30
 0
 40
.042002
 50
179.3179
 51
296.8699
 6
CONTINUOUS
 0
LINE
 8
WHITE
 10
12.778
 20
5.448999
 30
0.0000
 11
13.809
 21
5.933
 31
0.0000
 6
CONTINUOUS
 0
ARC
 8
WHITE
 10
13.7793
 20
5.9939
 30
 0
 40
.067756
 50
295.9978
 51
1.776278
 6
CONTINUOUS
 0
LINE
 8
WHITE
 10
13.847
 20
5.995999
 30
0.0000
 11
13.849
 21
6.267
 31
0.0000
 6
CONTINUOUS
 0
ARC
 8
WHITE
 10
13.809
 20
6.2668
 30
 0
 40
.04
 50
.286476
 51
128.7046
 6
CONTINUOUS
 0
LINE
 8
WHITE
 10
13.784
 20
6.297999
 30
0.0000
 11
13.281
 21
6.027999
 31
0.0000
 6
CONTINUOUS
 0
LINE
 8
WHITE
 10
13.281
 20
6.027999
 30
0.0000
 11
13.193
 21
5.984
 31
0.0000
 6
CONTINUOUS
 0
ARC
 8
WHITE
 10
13.1471
 20
6.0928
 30
 0
 40
.118085
 50
180.8732
 51
292.8737
 6
CONTINUOUS
 0
LINE
 8
WHITE
 10
13.029
 20
6.091
 30
0.0000
 11
13.029
 21
9.484999
 31
0.0000
 6
CONTINUOUS
 0
ARC
 8
WHITE
 10
12.991
 20
9.484999
 30
 0
 40
.037999
 50
0
 51
88.4934
 6
CONTINUOUS
 0
LINE
 8
WHITE
 10
12.992
 20
9.522999
 30
0.0000
 11
12.759
 21
9.522999
 31
0.0000
 6
CONTINUOUS
 0
ARC
 8
WHITE
 10
12.759
 20
9.484999
 30
 0
 40
.037999
 50
90
 51
180
 6
CONTINUOUS
 0
LINE
 8
WHITE
 10
12.721
 20
9.484999
 30
0.0000
 11
12.717
 21
5.486999
 31
0.0000
 6
CONTINUOUS
 0
LINE
 8
WHITE
 10
13.513
 20
10.912
 30
0.0000
 11
13.721
 21
10.912
 31
0.0000
 6
CONTINUOUS
 0
LINE
 8
WHITE
 10
13.721
 20
10.912
 30
0.0000
 11
13.828
 21
11.741
 31
0.0000
 6
CONTINUOUS
 0
LINE
 8
WHITE
 10
13.828
 20
11.741
 30
0.0000
 11
14.287
 21
11.741
 31
0.0000
 6
CONTINUOUS
 0
LINE
 8
WHITE
 10
14.287
 20
11.741
 30
0.0000
 11
14.387
 21
10.912
 31
0.0000
 6
CONTINUOUS
 0
LINE
 8
WHITE
 10
14.387
 20
10.912
 30
0.0000
 11
14.595
 21
10.912
 31
0.0000
 6
CONTINUOUS
 0
LINE
 8
WHITE
 10
14.595
 20
10.912
 30
0.0000
 11
14.28
 21
13.489
 31
0.0000
 6
CONTINUOUS
 0
LINE
 8
WHITE
 10
14.28
 20
13.489
 30
0.0000
 11
13.828
 21
13.489
 31
0.0000
 6
CONTINUOUS
 0
LINE
 8
WHITE
 10
13.828
 20
13.489
 30
0.0000
 11
13.513
 21
10.912
 31
0.0000
 6
CONTINUOUS
 0
LINE
 8
WHITE
 10
12.25
 20
10.912
 30
0.0000
 11
12.941
 21
10.912
 31
0.0000
 6
CONTINUOUS
 0
ARC
 8
WHITE
 10
12.942
 20
11.157
 30
 0
 40
.245002
 50
269.7661
 51
0
 6
CONTINUOUS
 0
LINE
 8
WHITE
 10
13.187
 20
11.157
 30
0.0000
 11
13.187
 21
13.244
 31
0.0000
 6
CONTINUOUS
 0
ARC
 8
WHITE
 10
12.942
 20
13.244
 30
 0
 40
.245
 50
0
 51
90.23396
 6
CONTINUOUS
 0
LINE
 8
WHITE
 10
12.941
 20
13.489
 30
0.0000
 11
12.25
 21
13.489
 31
0.0000
 6
CONTINUOUS
 0
LINE
 8
WHITE
 10
12.25
 20
13.489
 30
0.0000
 11
12.25
 21
10.912
 31
0.0000
 6
CONTINUOUS
 0
LINE
 8
WHITE
 10
12.747
 20
11.176
 30
0.0000
 11
12.564
 21
11.176
 31
0.0000
 6
CONTINUOUS
 0
LINE
 8
WHITE
 10
12.564
 20
11.176
 30
0.0000
 11
12.564
 21
13.093
 31
0.0000
 6
CONTINUOUS
 0
ARC
 8
WHITE
 10
12.69
 20
13.093
 30
 0
 40
.126
 50
90.00043
 51
180
 6
CONTINUOUS
 0
LINE
 8
WHITE
 10
12.69
 20
13.219
 30
0.0000
 11
12.747
 21
13.219
 31
0.0000
 6
CONTINUOUS
 0
ARC
 8
WHITE
 10
12.746
 20
13.093
 30
 0
 40
.126003
 50
.000433
 51
89.54528
 6
CONTINUOUS
 0
LINE
 8
WHITE
 10
13.922
 20
12.012
 30
0.0000
 11
14.192
 21
12.012
 31
0.0000
 6
CONTINUOUS
 0
LINE
 8
WHITE
 10
14.192
 20
12.012
 30
0.0000
 11
14.054
 21
13.118
 31
0.0000
 6
CONTINUOUS
 0
LINE
 8
WHITE
 10
14.054
 20
13.118
 30
0.0000
 11
13.922
 21
12.012
 31
0.0000
 6
CONTINUOUS
 0
LINE
 8
WHITE
 10
11.087
 20
12.093
 30
0.0000
 11
11.722
 21
12.093
 31
0.0000
 6
CONTINUOUS
 0
LINE
 8
WHITE
 10
11.722
 20
12.093
 30
0.0000
 11
11.722
 21
12.301
 31
0.0000
 6
CONTINUOUS
 0
LINE
 8
WHITE
 10
11.722
 20
12.301
 30
0.0000
 11
11.087
 21
12.301
 31
0.0000
 6
CONTINUOUS
 0
LINE
 8
WHITE
 10
11.087
 20
12.301
 30
0.0000
 11
11.087
 21
12.093
 31
0.0000
 6
CONTINUOUS
 0
LINE
 8
WHITE
 10
12.879
 20
13.093
 30
0.0000
 11
12.879
 21
11.308
 31
0.0000
 6
CONTINUOUS
 0
ARC
 8
WHITE
 10
12.753
 20
11.3079
 30
 0
 40
.126
 50
267.2717
 51
.045472
 6
CONTINUOUS
 0
LINE
 8
WHITE
 10
10.892
 20
14.953
 30
0.0000
 11
9.772999
 21
14.953
 31
0.0000
 6
CONTINUOUS
 0
ARC
 8
WHITE
 10
9.772799
 20
15.047
 30
 0
 40
.094
 50
183.6597
 51
270.1219
 6
CONTINUOUS
 0
LINE
 8
WHITE
 10
9.678999
 20
15.041
 30
0.0000
 11
9.678999
 21
17.053
 31
0.0000
 6
CONTINUOUS
 0
ARC
 8
WHITE
 10
9.772999
 20
17.0524
 30
 0
 40
.094001
 50
105.4258
 51
179.6343
 6
CONTINUOUS
 0
ARC
 8
WHITE
 10
6.404
 20
28.3844
 30
 0
 40
11.72823
 50
286.5663
 51
292.3087
 6
CONTINUOUS
 0
ARC
 8
WHITE
 10
10.9008
 20
17.4597
 30
 0
 40
.086761
 50
352.924
 51
121.0883
 6
CONTINUOUS
 0
LINE
 8
WHITE
 10
10.987
 20
17.449
 30
0.0000
 11
10.987
 21
15.041
 31
0.0000
 6
CONTINUOUS
 0
ARC
 8
WHITE
 10
10.893
 20
15.041
 30
 0
 40
.093999
 50
269.3903
 51
0
 6
CONTINUOUS
 0
LINE
 8
WHITE
 10
12.206
 20
17.732
 30
0.0000
 11
12.206
 21
14.953
 31
0.0000
 6
CONTINUOUS
 0
LINE
 8
WHITE
 10
12.206
 20
14.953
 30
0.0000
 11
12.596
 21
14.953
 31
0.0000
 6
CONTINUOUS
 0
LINE
 8
WHITE
 10
12.596
 20
14.953
 30
0.0000
 11
12.596
 21
17.713
 31
0.0000
 6
CONTINUOUS
 0
LINE
 8
WHITE
 10
12.596
 20
17.713
 30
0.0000
 11
13.463
 21
17.361
 31
0.0000
 6
CONTINUOUS
 0
LINE
 8
WHITE
 10
13.463
 20
17.361
 30
0.0000
 11
13.463
 21
17.738
 31
0.0000
 6
CONTINUOUS
 0
LINE
 8
WHITE
 10
13.463
 20
17.738
 30
0.0000
 11
12.401
 21
18.31
 31
0.0000
 6
CONTINUOUS
 0
LINE
 8
WHITE
 10
12.401
 20
18.31
 30
0.0000
 11
11.332
 21
17.738
 31
0.0000
 6
CONTINUOUS
 0
LINE
 8
WHITE
 10
11.332
 20
17.738
 30
0.0000
 11
11.332
 21
17.361
 31
0.0000
 6
CONTINUOUS
 0
LINE
 8
WHITE
 10
11.332
 20
17.361
 30
0.0000
 11
12.206
 21
17.732
 31
0.0000
 6
CONTINUOUS
 0
LINE
 8
WHITE
 10
10.515
 20
16.845
 30
0.0000
 11
10.515
 21
15.557
 31
0.0000
 6
CONTINUOUS
 0
ARC
 8
WHITE
 10
10.358
 20
15.5568
 30
 0
 40
.157
 50
272.5558
 51
.072988
 6
CONTINUOUS
 0
LINE
 8
WHITE
 10
10.113
 20
15.557
 30
0.0000
 11
10.113
 21
16.845
 31
0.0000
 6
CONTINUOUS
 0
ARC
 8
WHITE
 10
10.27
 20
16.8451
 30
 0
 40
.157
 50
92.18978
 51
180.0365
 6
CONTINUOUS
 0
LINE
 8
WHITE
 10
10.264
 20
17.002
 30
0.0000
 11
10.364
 21
16.996
 31
0.0000
 6
CONTINUOUS
 0
ARC
 8
WHITE
 10
10.3642
 20
16.839
 30
 0
 40
.157
 50
2.55615
 51
90.07299
 6
CONTINUOUS
 0
LINE
 8
WHITE
 10
10.364
 20
15.406
 30
0.0000
 11
10.264
 21
15.406
 31
0.0000
 6
CONTINUOUS
 0
ARC
 8
WHITE
 10
10.2639
 20
15.563
 30
 0
 40
.157
 50
182.1898
 51
270.0365
 6
CONTINUOUS
 0
LINE
 8
WHITE
 10
7.775
 20
14.953
 30
0.0000
 11
8.057
 21
14.953
 31
0.0000
 6
CONTINUOUS
 0
LINE
 8
WHITE
 10
8.057
 20
14.953
 30
0.0000
 11
8.057
 21
15.771
 31
0.0000
 6
CONTINUOUS
 0
LINE
 8
WHITE
 10
8.057
 20
15.771
 30
0.0000
 11
8.522999
 21
15.016
 31
0.0000
 6
CONTINUOUS
 0
LINE
 8
WHITE
 10
8.522999
 20
15.016
 30
0.0000
 11
8.956
 21
15.802
 31
0.0000
 6
CONTINUOUS
 0
LINE
 8
WHITE
 10
8.956
 20
15.802
 30
0.0000
 11
8.956
 21
14.953
 31
0.0000
 6
CONTINUOUS
 0
LINE
 8
WHITE
 10
8.956
 20
14.953
 30
0.0000
 11
9.277
 21
14.953
 31
0.0000
 6
CONTINUOUS
 0
LINE
 8
WHITE
 10
9.277
 20
14.953
 30
0.0000
 11
9.277
 21
17.008
 31
0.0000
 6
CONTINUOUS
 0
ARC
 8
WHITE
 10
6.3879
 20
28.3813
 30
 0
 40
11.73452
 50
282.5464
 51
284.2531
 6
CONTINUOUS
 0
LINE
 8
WHITE
 10
8.937
 20
16.927
 30
0.0000
 11
8.529
 21
15.576
 31
0.0000
 6
CONTINUOUS
 0
LINE
 8
WHITE
 10
8.529
 20
15.576
 30
0.0000
 11
8.076
 21
16.772
 31
0.0000
 6
CONTINUOUS
 0
ARC
 8
WHITE
 10
6.3796
 20
28.3851
 30
 0
 40
11.73635
 50
276.8284
 51
278.3108
 6
CONTINUOUS
 0
LINE
 8
WHITE
 10
7.775
 20
16.732
 30
0.0000
 11
7.775
 21
14.953
 31
0.0000
 6
CONTINUOUS
 0
LINE
 8
WHITE
 10
10.251
 20
10.912
 30
0.0000
 11
10.459
 21
10.912
 31
0.0000
 6
CONTINUOUS
 0
LINE
 8
WHITE
 10
10.459
 20
10.912
 30
0.0000
 11
10.459
 21
12.188
 31
0.0000
 6
CONTINUOUS
 0
LINE
 8
WHITE
 10
10.459
 20
12.188
 30
0.0000
 11
10.804
 21
13.489
 31
0.0000
 6
CONTINUOUS
 0
LINE
 8
WHITE
 10
10.804
 20
13.489
 30
0.0000
 11
10.603
 21
13.489
 31
0.0000
 6
CONTINUOUS
 0
LINE
 8
WHITE
 10
10.603
 20
13.489
 30
0.0000
 11
10.352
 21
12.559
 31
0.0000
 6
CONTINUOUS
 0
LINE
 8
WHITE
 10
10.352
 20
12.559
 30
0.0000
 11
10.1
 21
13.489
 31
0.0000
 6
CONTINUOUS
 0
LINE
 8
WHITE
 10
10.1
 20
13.489
 30
0.0000
 11
9.899
 21
13.489
 31
0.0000
 6
CONTINUOUS
 0
LINE
 8
WHITE
 10
9.899
 20
13.489
 30
0.0000
 11
10.251
 21
12.2
 31
0.0000
 6
CONTINUOUS
 0
LINE
 8
WHITE
 10
10.251
 20
12.2
 30
0.0000
 11
10.251
 21
10.912
 31
0.0000
 6
CONTINUOUS
 0
LINE
 8
WHITE
 10
8.862
 20
10.912
 30
0.0000
 11
9.565999
 21
10.912
 31
0.0000
 6
CONTINUOUS
 0
LINE
 8
WHITE
 10
9.565999
 20
10.912
 30
0.0000
 11
9.565999
 21
11.113
 31
0.0000
 6
CONTINUOUS
 0
LINE
 8
WHITE
 10
9.565999
 20
11.113
 30
0.0000
 11
9.112999
 21
11.113
 31
0.0000
 6
CONTINUOUS
 0
LINE
 8
WHITE
 10
9.112999
 20
11.113
 30
0.0000
 11
9.112999
 21
12.137
 31
0.0000
 6
CONTINUOUS
 0
LINE
 8
WHITE
 10
9.112999
 20
12.137
 30
0.0000
 11
9.565999
 21
12.137
 31
0.0000
 6
CONTINUOUS
 0
LINE
 8
WHITE
 10
9.565999
 20
12.137
 30
0.0000
 11
9.565999
 21
12.345
 31
0.0000
 6
CONTINUOUS
 0
LINE
 8
WHITE
 10
9.565999
 20
12.345
 30
0.0000
 11
9.112999
 21
12.345
 31
0.0000
 6
CONTINUOUS
 0
LINE
 8
WHITE
 10
9.112999
 20
12.345
 30
0.0000
 11
9.112999
 21
13.281
 31
0.0000
 6
CONTINUOUS
 0
LINE
 8
WHITE
 10
9.112999
 20
13.281
 30
0.0000
 11
9.565999
 21
13.281
 31
0.0000
 6
CONTINUOUS
 0
LINE
 8
WHITE
 10
9.565999
 20
13.281
 30
0.0000
 11
9.565999
 21
13.489
 31
0.0000
 6
CONTINUOUS
 0
LINE
 8
WHITE
 10
9.565999
 20
13.489
 30
0.0000
 11
8.862
 21
13.489
 31
0.0000
 6
CONTINUOUS
 0
LINE
 8
WHITE
 10
8.862
 20
13.489
 30
0.0000
 11
8.862
 21
10.912
 31
0.0000
 6
CONTINUOUS
 0
LINE
 8
WHITE
 10
8.548
 20
10.912
 30
0.0000
 11
8.548
 21
11.113
 31
0.0000
 6
CONTINUOUS
 0
LINE
 8
WHITE
 10
8.548
 20
11.113
 30
0.0000
 11
7.855999
 21
11.113
 31
0.0000
 6
CONTINUOUS
 0
LINE
 8
WHITE
 10
7.855999
 20
11.113
 30
0.0000
 11
7.855999
 21
13.489
 31
0.0000
 6
CONTINUOUS
 0
LINE
 8
WHITE
 10
7.855999
 20
13.489
 30
0.0000
 11
7.605
 21
13.489
 31
0.0000
 6
CONTINUOUS
 0
LINE
 8
WHITE
 10
7.605
 20
13.489
 30
0.0000
 11
7.605
 21
10.912
 31
0.0000
 6
CONTINUOUS
 0
LINE
 8
WHITE
 10
7.605
 20
10.912
 30
0.0000
 11
8.548
 21
10.912
 31
0.0000
 6
CONTINUOUS
 0
LINE
 8
WHITE
 10
9.685
 20
9.522999
 30
0.0000
 11
10.056
 21
8.781
 31
0.0000
 6
CONTINUOUS
 0
ARC
 8
WHITE
 10
10.1128
 20
8.812299
 30
 0
 40
.064853
 50
208.8572
 51
338.0189
 6
CONTINUOUS
 0
LINE
 8
WHITE
 10
10.173
 20
8.788
 30
0.0000
 11
10.515
 21
9.522999
 31
0.0000
 6
CONTINUOUS
 0
ARC
 8
WHITE
 10
10.5154
 20
9.51
 30
 0
 40
.013006
 50
91.76239
 51
136.247
 6
CONTINUOUS
 0
LINE
 8
WHITE
 10
10.506
 20
9.519
 30
0.0000
 11
10.798
 21
9.522999
 31
0.0000
 6
CONTINUOUS
 0
ARC
 8
WHITE
 10
10.7892
 20
9.534299
 30
 0
 40
.014322
 50
307.9101
 51
107.0469
 6
CONTINUOUS
 0
LINE
 8
WHITE
 10
10.785
 20
9.548
 30
0.0000
 11
10.295
 21
8.328
 31
0.0000
 6
CONTINUOUS
 0
ARC
 8
WHITE
 10
10.4906
 20
8.228199
 30
 0
 40
.219589
 50
152.9682
 51
180.0522
 6
CONTINUOUS
 0
LINE
 8
WHITE
 10
10.271
 20
8.227999
 30
0.0000
 11
10.27
 21
6.499
 31
0.0000
 6
CONTINUOUS
 0
ARC
 8
WHITE
 10
10.2813
 20
6.5078
 30
 0
 40
.014322
 50
217.9101
 51
17.04441
 6
CONTINUOUS
 0
LINE
 8
WHITE
 10
10.295
 20
6.512
 30
0.0000
 11
10
 21
6.656
 31
0.0000
 6
CONTINUOUS
 0
ARC
 8
WHITE
 10
10.0491
 20
6.7316
 30
 0
 40
.090145
 50
179.7459
 51
236.9975
 6
CONTINUOUS
 0
LINE
 8
WHITE
 10
9.958999
 20
6.731999
 30
0.0000
 11
9.961999
 21
8.234
 31
0.0000
 6
CONTINUOUS
 0
ARC
 8
WHITE
 10
9.741999
 20
8.233099
 30
 0
 40
.220001
 50
.23439
 51
27.5899
 6
CONTINUOUS
 0
LINE
 8
WHITE
 10
9.937
 20
8.335
 30
0.0000
 11
9.420999
 21
9.503999
 31
0.0000
 6
CONTINUOUS
 0
ARC
 8
WHITE
 10
9.422699
 20
9.491099
 30
 0
 40
.013011
 50
97.50735
 51
238.8859
 6
CONTINUOUS
 0
LINE
 8
WHITE
 10
9.434
 20
9.522999
 30
0.0000
 11
9.678999
 21
9.522999
 31
0.0000
 6
CONTINUOUS
 0
ARC
 8
WHITE
 10
9.666399
 20
9.509599
 30
 0
 40
.018393
 50
46.76239
 51
88.13277
 6
CONTINUOUS
 0
LINE
 8
WHITE
 10
8.170999
 20
8.272
 30
0.0000
 11
8.956
 21
7.743999
 31
0.0000
 6
CONTINUOUS
 0
ARC
 8
WHITE
 10
8.918499
 20
7.686699
 30
 0
 40
.06848
 50
.250868
 51
56.79725
 6
CONTINUOUS
 0
LINE
 8
WHITE
 10
8.987
 20
7.686999
 30
0.0000
 11
8.987999
 21
7.467
 31
0.0000
 6
CONTINUOUS
 0
ARC
 8
WHITE
 10
8.925
 20
7.4674
 30
 0
 40
.063001
 50
236.2597
 51
359.6362
 6
CONTINUOUS
 0
LINE
 8
WHITE
 10
8.89
 20
7.414999
 30
0.0000
 11
7.8
 21
8.145999
 31
0.0000
 6
CONTINUOUS
 0
ARC
 8
WHITE
 10
7.8375
 20
8.203299
 30
 0
 40
.06848
 50
180.2505
 51
236.7973
 6
CONTINUOUS
 0
LINE
 8
WHITE
 10
7.775
 20
8.203
 30
0.0000
 11
7.775
 21
9.46
 31
0.0000
 6
CONTINUOUS
 0
ARC
 8
WHITE
 10
7.838
 20
9.46
 30
 0
 40
.063
 50
90.90975
 51
180
 6
CONTINUOUS
 0
LINE
 8
WHITE
 10
7.836999
 20
9.522999
 30
0.0000
 11
8.805
 21
9.522999
 31
0.0000
 6
CONTINUOUS
 0
ARC
 8
WHITE
 10
8.805
 20
9.46
 30
 0
 40
.063
 50
0
 51
90
 6
CONTINUOUS
 0
LINE
 8
WHITE
 10
8.868
 20
9.46
 30
0.0000
 11
8.868
 21
9.277
 31
0.0000
 6
CONTINUOUS
 0
ARC
 8
WHITE
 10
8.805
 20
9.278
 30
 0
 40
.063007
 50
270
 51
359.0906
 6
CONTINUOUS
 0
LINE
 8
WHITE
 10
8.805
 20
9.215
 30
0.0000
 11
8.277
 21
9.215
 31
0.0000
 6
CONTINUOUS
 0
ARC
 8
WHITE
 10
8.2779
 20
9.026
 30
 0
 40
.189002
 50
90.27283
 51
181.8191
 6
CONTINUOUS
 0
LINE
 8
WHITE
 10
8.088999
 20
9.02
 30
0.0000
 11
8.088999
 21
8.435
 31
0.0000
 6
CONTINUOUS
 0
ARC
 8
WHITE
 10
8.277999
 20
8.4348
 30
 0
 40
.189
 50
179.9394
 51
236.6126
 6
CONTINUOUS
 0
ARC
 8
WHITE
 10
5.857
 20
9.427999
 30
 0
 40
1.060188
 50
305.789
 51
5.08683
 6
CONTINUOUS
 0
LINE
 8
WHITE
 10
6.913
 20
9.522
 30
0.0000
 11
6.631
 21
9.522999
 31
0.0000
 6
CONTINUOUS
 0
LINE
 8
WHITE
 10
6.473
 20
8.572999
 30
0.0000
 11
10.804
 21
5.638
 31
0.0000
 6
CONTINUOUS
 0
ARC
 8
WHITE
 10
12.3943
 20
7.9888
 30
 0
 40
2.838188
 50
235.9219
 51
304.1856
 6
CONTINUOUS
 0
LINE
 8
WHITE
 10
13.989
 20
5.640999
 30
0.0000
 11
18.322
 21
8.567
 31
0.0000
 6
CONTINUOUS
 0
ARC
 8
WHITE
 10
19.428
 20
9.711
 30
 0
 40
1.591217
 50
186.7856
 51
225.9676
 6
CONTINUOUS
 0
LINE
 8
WHITE
 10
17.848
 20
9.522999
 30
0.0000
 11
18.165
 21
9.522999
 31
0.0000
 6
CONTINUOUS
 0
ARC
 8
WHITE
 10
19.196
 20
9.572899
 30
 0
 40
1.032206
 50
182.7709
 51
246.5368
 6
CONTINUOUS
 0
ARC
 8
WHITE
 10
18.7672
 20
8.5652
 30
 0
 40
.063352
 50
304.4419
 51
73.68192
 6
CONTINUOUS
 0
LINE
 8
WHITE
 10
18.803
 20
8.512999
 30
0.0000
 11
14.375
 21
5.519
 31
0.0000
 6
CONTINUOUS
 0
ARC
 8
WHITE
 10
11.9915
 20
8.723899
 30
 0
 40
3.994052
 50
276.433
 51
306.6384
 6
CONTINUOUS
 0
ARC
 8
WHITE
 10
12.4057
 20
5.0733
 30
 0
 40
.320037
 50
261.2472
 51
275.9725
 6
CONTINUOUS
 0
ARC
 8
WHITE
 10
12.8049
 20
8.723799
 30
 0
 40
3.992006
 50
233.3505
 51
263.5579
 6
CONTINUOUS
 0
LINE
 8
WHITE
 10
10.422
 20
5.520999
 30
0.0000
 11
5.995999
 21
8.517
 31
0.0000
 6
CONTINUOUS
 0
ARC
 8
WHITE
 10
6.034499
 20
8.573699
 30
 0
 40
.068535
 50
114.5822
 51
235.823
 6
CONTINUOUS
 0
ARC
 8
WHITE
 10
5.643799
 20
9.541299
 30
 0
 40
.981381
 50
291.7841
 51
358.9315
 6
CONTINUOUS
 0
LINE
 8
WHITE
 10
4.914999
 20
10.912
 30
0.0000
 11
5.122
 21
10.912
 31
0.0000
 6
CONTINUOUS
 0
LINE
 8
WHITE
 10
5.122
 20
10.912
 30
0.0000
 11
5.223
 21
11.741
 31
0.0000
 6
CONTINUOUS
 0
LINE
 8
WHITE
 10
5.223
 20
11.741
 30
0.0000
 11
5.688
 21
11.741
 31
0.0000
 6
CONTINUOUS
 0
LINE
 8
WHITE
 10
5.688
 20
11.741
 30
0.0000
 11
5.788
 21
10.912
 31
0.0000
 6
CONTINUOUS
 0
LINE
 8
WHITE
 10
5.788
 20
10.912
 30
0.0000
 11
5.995999
 21
10.912
 31
0.0000
 6
CONTINUOUS
 0
LINE
 8
WHITE
 10
5.995999
 20
10.912
 30
0.0000
 11
5.681
 21
13.489
 31
0.0000
 6
CONTINUOUS
 0
LINE
 8
WHITE
 10
5.681
 20
13.489
 30
0.0000
 11
5.229
 21
13.489
 31
0.0000
 6
CONTINUOUS
 0
LINE
 8
WHITE
 10
5.229
 20
13.489
 30
0.0000
 11
4.914999
 21
10.912
 31
0.0000
 6
CONTINUOUS
 0
LINE
 8
WHITE
 10
6.605
 20
11.955
 30
0.0000
 11
6.605
 21
10.912
 31
0.0000
 6
CONTINUOUS
 0
LINE
 8
WHITE
 10
6.605
 20
10.912
 30
0.0000
 11
6.354
 21
10.912
 31
0.0000
 6
CONTINUOUS
 0
LINE
 8
WHITE
 10
6.354
 20
10.912
 30
0.0000
 11
6.354
 21
13.489
 31
0.0000
 6
CONTINUOUS
 0
LINE
 8
WHITE
 10
6.354
 20
13.489
 30
0.0000
 11
7.045
 21
13.489
 31
0.0000
 6
CONTINUOUS
 0
ARC
 8
WHITE
 10
7.046
 20
13.244
 30
 0
 40
.245002
 50
0
 51
90.23386
 6
CONTINUOUS
 0
LINE
 8
WHITE
 10
7.290999
 20
13.244
 30
0.0000
 11
7.290999
 21
12.408
 31
0.0000
 6
CONTINUOUS
 0
ARC
 8
WHITE
 10
7.158999
 20
12.4081
 30
 0
 40
.132
 50
301.016
 51
359.9566
 6
CONTINUOUS
 0
ARC
 8
WHITE
 10
7.2719
 20
12.2387
 30
 0
 40
.072011
 50
128.5728
 51
229.3899
 6
CONTINUOUS
 0
ARC
 8
WHITE
 10
7.156799
 20
12.0657
 30
 0
 40
.13655
 50
3.906288
 51
60.03653
 6
CONTINUOUS
 0
LINE
 8
WHITE
 10
7.293
 20
12.075
 30
0.0000
 11
7.290999
 21
10.912
 31
0.0000
 6
CONTINUOUS
 0
LINE
 8
WHITE
 10
7.290999
 20
10.912
 30
0.0000
 11
7.045
 21
10.912
 31
0.0000
 6
CONTINUOUS
 0
LINE
 8
WHITE
 10
7.045
 20
10.912
 30
0.0000
 11
7.045
 21
11.955
 31
0.0000
 6
CONTINUOUS
 0
ARC
 8
WHITE
 10
6.868999
 20
11.955
 30
 0
 40
.175999
 50
0
 51
90
 6
CONTINUOUS
 0
LINE
 8
WHITE
 10
5.322999
 20
12.012
 30
0.0000
 11
5.586999
 21
12.012
 31
0.0000
 6
CONTINUOUS
 0
LINE
 8
WHITE
 10
5.586999
 20
12.012
 30
0.0000
 11
5.454999
 21
13.118
 31
0.0000
 6
CONTINUOUS
 0
LINE
 8
WHITE
 10
5.454999
 20
13.118
 30
0.0000
 11
5.322999
 21
12.012
 31
0.0000
 6
CONTINUOUS
 0
LINE
 8
WHITE
 10
6.868999
 20
12.137
 30
0.0000
 11
6.788
 21
12.137
 31
0.0000
 6
CONTINUOUS
 0
ARC
 8
WHITE
 10
6.787899
 20
11.961
 30
 0
 40
.176
 50
89.96745
 51
181.9538
 6
CONTINUOUS
 0
LINE
 8
WHITE
 10
6.668
 20
12.521
 30
0.0000
 11
6.668
 21
13.105
 31
0.0000
 6
CONTINUOUS
 0
ARC
 8
WHITE
 10
6.781
 20
13.1052
 30
 0
 40
.113
 50
86.449
 51
180.1014
 6
CONTINUOUS
 0
LINE
 8
WHITE
 10
6.788
 20
13.218
 30
0.0000
 11
6.868999
 21
13.219
 31
0.0000
 6
CONTINUOUS
 0
ARC
 8
WHITE
 10
6.869999
 20
13.106
 30
 0
 40
.113004
 50
359.4928
 51
90.50703
 6
CONTINUOUS
 0
LINE
 8
WHITE
 10
6.982999
 20
13.105
 30
0.0000
 11
6.982999
 21
12.521
 31
0.0000
 6
CONTINUOUS
 0
ARC
 8
WHITE
 10
6.869999
 20
12.521
 30
 0
 40
.112999
 50
269.493
 51
0
 6
CONTINUOUS
 0
LINE
 8
WHITE
 10
6.868999
 20
12.408
 30
0.0000
 11
6.788
 21
12.408
 31
0.0000
 6
CONTINUOUS
 0
ARC
 8
WHITE
 10
6.788
 20
12.521
 30
 0
 40
.112999
 50
180
 51
270
 6
CONTINUOUS
 0
LINE
 8
WHITE
 10
3.664
 20
10.912
 30
0.0000
 11
3.914999
 21
10.912
 31
0.0000
 6
CONTINUOUS
 0
LINE
 8
WHITE
 10
3.914999
 20
10.912
 30
0.0000
 11
3.914999
 21
12.137
 31
0.0000
 6
CONTINUOUS
 0
LINE
 8
WHITE
 10
3.914999
 20
12.137
 30
0.0000
 11
4.355
 21
12.137
 31
0.0000
 6
CONTINUOUS
 0
LINE
 8
WHITE
 10
4.355
 20
12.137
 30
0.0000
 11
4.355
 21
10.912
 31
0.0000
 6
CONTINUOUS
 0
LINE
 8
WHITE
 10
4.355
 20
10.912
 30
0.0000
 11
4.606999
 21
10.912
 31
0.0000
 6
CONTINUOUS
 0
LINE
 8
WHITE
 10
4.606999
 20
10.912
 30
0.0000
 11
4.606999
 21
13.489
 31
0.0000
 6
CONTINUOUS
 0
LINE
 8
WHITE
 10
4.606999
 20
13.489
 30
0.0000
 11
4.355
 21
13.489
 31
0.0000
 6
CONTINUOUS
 0
LINE
 8
WHITE
 10
4.355
 20
13.489
 30
0.0000
 11
4.355
 21
12.345
 31
0.0000
 6
CONTINUOUS
 0
LINE
 8
WHITE
 10
4.355
 20
12.345
 30
0.0000
 11
3.914999
 21
12.345
 31
0.0000
 6
CONTINUOUS
 0
LINE
 8
WHITE
 10
3.914999
 20
12.345
 30
0.0000
 11
3.914999
 21
13.489
 31
0.0000
 6
CONTINUOUS
 0
LINE
 8
WHITE
 10
3.914999
 20
13.489
 30
0.0000
 11
3.664
 21
13.489
 31
0.0000
 6
CONTINUOUS
 0
LINE
 8
WHITE
 10
3.664
 20
13.489
 30
0.0000
 11
3.664
 21
10.912
 31
0.0000
 6
CONTINUOUS
 0
LINE
 8
WHITE
 10
2.934999
 20
10.484
 30
0.0000
 11
22.024
 21
10.484
 31
0.0000
 6
CONTINUOUS
 0
LINE
 8
WHITE
 10
22.024
 20
10.484
 30
0.0000
 11
22.024
 21
13.992
 31
0.0000
 6
CONTINUOUS
 0
LINE
 8
WHITE
 10
22.024
 20
13.992
 30
0.0000
 11
2.934999
 21
13.992
 31
0.0000
 6
CONTINUOUS
 0
LINE
 8
WHITE
 10
2.934999
 20
13.992
 30
0.0000
 11
2.934999
 21
10.484
 31
0.0000
 6
CONTINUOUS
 0
LINE
 8
WHITE
 10
2.506999
 20
10.057
 30
0.0000
 11
22.452
 21
10.057
 31
0.0000
 6
CONTINUOUS
 0
LINE
 8
WHITE
 10
22.452
 20
10.057
 30
0.0000
 11
22.452
 21
14.419
 31
0.0000
 6
CONTINUOUS
 0
LINE
 8
WHITE
 10
22.452
 20
14.419
 30
0.0000
 11
2.506999
 21
14.419
 31
0.0000
 6
CONTINUOUS
 0
LINE
 8
WHITE
 10
2.506999
 20
14.419
 30
0.0000
 11
2.506999
 21
10.057
 31
0.0000
 6
CONTINUOUS
 0
LINE
 8
WHITE
 10
1.25
 20
3.5
 30
0.0000
 11
1.25
 21
20.403
 31
0.0000
 6
CONTINUOUS
 0
LINE
 8
WHITE
 10
1.25
 20
20.403
 30
0.0000
 11
23.709
 21
20.403
 31
0.0000
 6
CONTINUOUS
 0
LINE
 8
WHITE
 10
23.709
 20
20.403
 30
0.0000
 11
23.709
 21
3.5
 31
0.0000
 6
CONTINUOUS
 0
LINE
 8
WHITE
 10
23.709
 20
3.5
 30
0.0000
 11
1.25
 21
3.5
 31
0.0000
 6
CONTINUOUS
 0
ENDSEC
 0
EOF
