  0
SECTION
  2
HEADER
  9
$ACADVER
  1
AC1009
  9
$EXTMIN
 10
2.10295203
 20
1.16423159
 30
0.0
  9
$EXTMAX
 10
9.99037586
 20
11.14692002
 30
0.0
  0
ENDSEC
  0
SECTION
  2
TABLES
  0
TABLE
  2
LAYER
 70
1
 0
LAYER
 2
Default_Layer
 70
0
 62
1
 6
CONTINUOUS
 0
ENDTAB
 0
ENDSEC
  0
SECTION
  2
ENTITIES
  0
POLYLINE
  8
Default_Layer
 66
   1
 39
0.000000
 70
    1
  0
VERTEX
  8
0
 10
7.16700727
 20
9.50000000
  0
VERTEX
  8
0
 10
7.06483548
 20
9.49283242
  0
VERTEX
  8
0
 10
6.95642478
 20
9.48752200
  0
VERTEX
  8
0
 10
6.84386558
 20
9.48416409
  0
VERTEX
  8
0
 10
6.72924832
 20
9.48285407
  0
VERTEX
  8
0
 10
6.61466343
 20
9.48368729
  0
VERTEX
  8
0
 10
6.50220134
 20
9.48675911
  0
VERTEX
  8
0
 10
6.39395248
 20
9.49216489
  0
VERTEX
  8
0
 10
6.29200727
 20
9.50000000
  0
VERTEX
  8
0
 10
6.29697187
 20
9.51912167
  0
VERTEX
  8
0
 10
6.30393279
 20
9.53646996
  0
VERTEX
  8
0
 10
6.31266763
 20
9.55225057
  0
VERTEX
  8
0
 10
6.32295399
 20
9.56666920
  0
VERTEX
  8
0
 10
6.33456945
 20
9.57993155
  0
VERTEX
  8
0
 10
6.34729160
 20
9.59224332
  0
VERTEX
  8
0
 10
6.37516638
 20
9.61483792
  0
VERTEX
  8
0
 10
6.43441032
 20
9.65767102
  0
VERTEX
  8
0
 10
6.46222097
 20
9.68120072
  0
VERTEX
  8
0
 10
6.47489504
 20
9.69421381
  0
VERTEX
  8
0
 10
6.48645172
 20
9.70833333
  0
VERTEX
  8
0
 10
6.50602932
 20
9.73802193
  0
VERTEX
  8
0
 10
6.52242838
 20
9.76917998
  0
VERTEX
  8
0
 10
6.53642550
 20
9.80179186
  0
VERTEX
  8
0
 10
6.54879728
 20
9.83584192
  0
VERTEX
  8
0
 10
6.57177117
 20
9.90819400
  0
VERTEX
  8
0
 10
6.59756283
 20
9.98611111
  0
VERTEX
  8
0
 10
6.59756283
 20
10.02777778
  0
VERTEX
  8
0
 10
6.65878217
 20
10.02042043
  0
VERTEX
  8
0
 10
6.71651179
 20
10.00957362
  0
VERTEX
  8
0
 10
6.77076723
 20
9.99525283
  0
VERTEX
  8
0
 10
6.82156403
 20
9.97747356
  0
VERTEX
  8
0
 10
6.86891773
 20
9.95625130
  0
VERTEX
  8
0
 10
6.91284386
 20
9.93160154
  0
VERTEX
  8
0
 10
6.95335797
 20
9.90353978
  0
VERTEX
  8
0
 10
6.99047558
 20
9.87208150
  0
VERTEX
  8
0
 10
7.02421223
 20
9.83724221
  0
VERTEX
  8
0
 10
7.05458347
 20
9.79903739
  0
VERTEX
  8
0
 10
7.08160484
 20
9.75748253
  0
VERTEX
  8
0
 10
7.10529186
 20
9.71259314
  0
VERTEX
  8
0
 10
7.12566007
 20
9.66438469
  0
VERTEX
  8
0
 10
7.14272502
 20
9.61287269
  0
VERTEX
  8
0
 10
7.15650224
 20
9.55807263
  0
VERTEX
  8
0
 10
7.16700727
 20
9.50000000
  0
SEQEND
  0
POLYLINE
  8
Default_Layer
 66
   1
 39
0.000000
 70
    1
  0
VERTEX
  8
0
 10
7.15311838
 20
9.25000000
  0
VERTEX
  8
0
 10
7.12527783
 20
9.15265025
  0
VERTEX
  8
0
 10
7.11722414
 20
9.12946523
  0
VERTEX
  8
0
 10
7.10788745
 20
9.10758723
  0
VERTEX
  8
0
 10
7.09684498
 20
9.08743929
  0
VERTEX
  8
0
 10
7.08367394
 20
9.06944444
  0
VERTEX
  8
0
 10
7.06074546
 20
9.08123855
  0
VERTEX
  8
0
 10
7.03613255
 20
9.09134807
  0
VERTEX
  8
0
 10
6.98313986
 20
9.10779991
  0
VERTEX
  8
0
 10
6.87109190
 20
9.13464018
  0
VERTEX
  8
0
 10
6.81718230
 20
9.15017462
  0
VERTEX
  8
0
 10
6.79188171
 20
9.15959610
  0
VERTEX
  8
0
 10
6.76811273
 20
9.17054925
  0
VERTEX
  8
0
 10
6.74619697
 20
9.18335571
  0
VERTEX
  8
0
 10
6.72645604
 20
9.19833709
  0
VERTEX
  8
0
 10
6.70921153
 20
9.21581501
  0
VERTEX
  8
0
 10
6.69478505
 20
9.23611111
  0
VERTEX
  8
0
 10
6.71924833
 20
9.24501090
  0
VERTEX
  8
0
 10
6.74563642
 20
9.25207687
  0
VERTEX
  8
0
 10
6.77365636
 20
9.25747249
  0
VERTEX
  8
0
 10
6.80301518
 20
9.26136126
  0
VERTEX
  8
0
 10
6.86457768
 20
9.26527215
  0
VERTEX
  8
0
 10
6.92798026
 20
9.26511744
  0
VERTEX
  8
0
 10
6.99087928
 20
9.26220499
  0
VERTEX
  8
0
 10
7.05093107
 20
9.25784268
  0
VERTEX
  8
0
 10
7.15311838
 20
9.25000000
  0
SEQEND
  0
POLYLINE
  8
Default_Layer
 66
   1
 39
0.000000
 70
    1
  0
VERTEX
  8
0
 10
6.38922949
 20
9.01388889
  0
VERTEX
  8
0
 10
6.44695862
 20
8.99870357
  0
VERTEX
  8
0
 10
6.50622408
 20
8.98505386
  0
VERTEX
  8
0
 10
6.62604138
 20
8.95903879
  0
VERTEX
  8
0
 10
6.68493188
 20
8.94501221
  0
VERTEX
  8
0
 10
6.74203606
 20
8.92919878
  0
VERTEX
  8
0
 10
6.79652327
 20
8.91076788
  0
VERTEX
  8
0
 10
6.84756283
 20
8.88888889
  0
VERTEX
  8
0
 10
6.83964703
 20
8.88200288
  0
VERTEX
  8
0
 10
6.83025046
 20
8.87660354
  0
VERTEX
  8
0
 10
6.80789919
 20
8.86938072
  0
VERTEX
  8
0
 10
6.78227746
 20
8.86545215
  0
VERTEX
  8
0
 10
6.75515370
 20
8.86304956
  0
VERTEX
  8
0
 10
6.72829637
 20
8.86040465
  0
VERTEX
  8
0
 10
6.70347389
 20
8.85574917
  0
VERTEX
  8
0
 10
6.69237836
 20
8.85211487
  0
VERTEX
  8
0
 10
6.68245471
 20
8.84731482
  0
VERTEX
  8
0
 10
6.67392399
 20
8.84112799
  0
VERTEX
  8
0
 10
6.66700727
 20
8.83333333
  0
VERTEX
  8
0
 10
6.66879746
 20
8.75526383
  0
VERTEX
  8
0
 10
6.66835937
 20
8.67496549
  0
VERTEX
  8
0
 10
6.66522401
 20
8.51210824
  0
VERTEX
  8
0
 10
6.66473958
 20
8.43176232
  0
VERTEX
  8
0
 10
6.66645251
 20
8.35361353
  0
VERTEX
  8
0
 10
6.67146924
 20
8.27876837
  0
VERTEX
  8
0
 10
6.68089616
 20
8.20833333
  0
VERTEX
  8
0
 10
6.70673360
 20
8.19944742
  0
VERTEX
  8
0
 10
6.73657111
 20
8.19456254
  0
VERTEX
  8
0
 10
6.76942988
 20
8.19269958
  0
VERTEX
  8
0
 10
6.80433113
 20
8.19287942
  0
VERTEX
  8
0
 10
6.87634589
 20
8.19545103
  0
VERTEX
  8
0
 10
6.91150182
 20
8.19588457
  0
VERTEX
  8
0
 10
6.94478505
 20
8.19444444
  0
VERTEX
  8
0
 10
6.93236645
 20
8.17081499
  0
VERTEX
  8
0
 10
6.91865763
 20
8.14847733
  0
VERTEX
  8
0
 10
6.90377532
 20
8.12731474
  0
VERTEX
  8
0
 10
6.88783628
 20
8.10721046
  0
VERTEX
  8
0
 10
6.85325489
 20
8.06970990
  0
VERTEX
  8
0
 10
6.81584735
 20
8.03504172
  0
VERTEX
  8
0
 10
6.77654754
 20
8.00227201
  0
VERTEX
  8
0
 10
6.73628935
 20
7.97046681
  0
VERTEX
  8
0
 10
6.69600667
 20
7.93869223
  0
VERTEX
  8
0
 10
6.65663339
 20
7.90601431
  0
VERTEX
  8
0
 10
6.61910339
 20
7.87149915
  0
VERTEX
  8
0
 10
6.58435055
 20
7.83421280
  0
VERTEX
  8
0
 10
6.56830741
 20
7.81423858
  0
VERTEX
  8
0
 10
6.55330877
 20
7.79322135
  0
VERTEX
  8
0
 10
6.53947136
 20
7.77104435
  0
VERTEX
  8
0
 10
6.52691193
 20
7.74759086
  0
VERTEX
  8
0
 10
6.51574720
 20
7.72274412
  0
VERTEX
  8
0
 10
6.50609392
 20
7.69638740
  0
VERTEX
  8
0
 10
6.49806881
 20
7.66840397
  0
VERTEX
  8
0
 10
6.49178862
 20
7.63867706
  0
VERTEX
  8
0
 10
6.48737008
 20
7.60708996
  0
VERTEX
  8
0
 10
6.48492992
 20
7.57352590
  0
VERTEX
  8
0
 10
6.48458489
 20
7.53786817
  0
VERTEX
  8
0
 10
6.48645172
 20
7.50000000
  0
VERTEX
  8
0
 10
6.45037850
 20
7.49085050
  0
VERTEX
  8
0
 10
6.41012864
 20
7.48590127
  0
VERTEX
  8
0
 10
6.36674337
 20
7.48411124
  0
VERTEX
  8
0
 10
6.32126395
 20
7.48443931
  0
VERTEX
  8
0
 10
6.22818758
 20
7.48728547
  0
VERTEX
  8
0
 10
6.18267313
 20
7.48772140
  0
VERTEX
  8
0
 10
6.13922949
 20
7.48611111
  0
VERTEX
  8
0
 10
6.14010879
 20
7.54938610
  0
VERTEX
  8
0
 10
6.13847545
 20
7.61519628
  0
VERTEX
  8
0
 10
6.13694827
 20
7.68092328
  0
VERTEX
  8
0
 10
6.13814606
 20
7.74394869
  0
VERTEX
  8
0
 10
6.14058519
 20
7.77363005
  0
VERTEX
  8
0
 10
6.14468761
 20
7.80165413
  0
VERTEX
  8
0
 10
6.15078067
 20
7.82769361
  0
VERTEX
  8
0
 10
6.15919173
 20
7.85142120
  0
VERTEX
  8
0
 10
6.17024812
 20
7.87250959
  0
VERTEX
  8
0
 10
6.18427720
 20
7.89063151
  0
VERTEX
  8
0
 10
6.20160632
 20
7.90545963
  0
VERTEX
  8
0
 10
6.22256283
 20
7.91666667
  0
VERTEX
  8
0
 10
6.21287316
 20
7.93932332
  0
VERTEX
  8
0
 10
6.20650729
 20
7.96224953
  0
VERTEX
  8
0
 10
6.20305462
 20
7.98543463
  0
VERTEX
  8
0
 10
6.20210457
 20
8.00886798
  0
VERTEX
  8
0
 10
6.20324654
 20
8.03253894
  0
VERTEX
  8
0
 10
6.20606994
 20
8.05643684
  0
VERTEX
  8
0
 10
6.21511863
 20
8.10487091
  0
VERTEX
  8
0
 10
6.22596591
 20
8.15408501
  0
VERTEX
  8
0
 10
6.23532701
 20
8.20399394
  0
VERTEX
  8
0
 10
6.23842377
 20
8.22918235
  0
VERTEX
  8
0
 10
6.23991720
 20
8.25451252
  0
VERTEX
  8
0
 10
6.23939671
 20
8.27997380
  0
VERTEX
  8
0
 10
6.23645172
 20
8.30555556
  0
VERTEX
  8
0
 10
6.26491217
 20
8.29562040
  0
VERTEX
  8
0
 10
6.29158389
 20
8.28908168
  0
VERTEX
  8
0
 10
6.31647053
 20
8.28573103
  0
VERTEX
  8
0
 10
6.33957575
 20
8.28536014
  0
VERTEX
  8
0
 10
6.36090321
 20
8.28776064
  0
VERTEX
  8
0
 10
6.38045657
 20
8.29272421
  0
VERTEX
  8
0
 10
6.39823949
 20
8.30004250
  0
VERTEX
  8
0
 10
6.41425561
 20
8.30950718
  0
VERTEX
  8
0
 10
6.42850861
 20
8.32090989
  0
VERTEX
  8
0
 10
6.44100214
 20
8.33404231
  0
VERTEX
  8
0
 10
6.45173986
 20
8.34869609
  0
VERTEX
  8
0
 10
6.46072543
 20
8.36466289
  0
VERTEX
  8
0
 10
6.46796250
 20
8.38173437
  0
VERTEX
  8
0
 10
6.47345473
 20
8.39970219
  0
VERTEX
  8
0
 10
6.47720579
 20
8.41835800
  0
VERTEX
  8
0
 10
6.47921933
 20
8.43749348
  0
VERTEX
  8
0
 10
6.47949900
 20
8.45690028
  0
VERTEX
  8
0
 10
6.47804847
 20
8.47637005
  0
VERTEX
  8
0
 10
6.47487140
 20
8.49569446
  0
VERTEX
  8
0
 10
6.46997144
 20
8.51466517
  0
VERTEX
  8
0
 10
6.46335225
 20
8.53307383
  0
VERTEX
  8
0
 10
6.45501749
 20
8.55071211
  0
VERTEX
  8
0
 10
6.44497082
 20
8.56737166
  0
VERTEX
  8
0
 10
6.43321590
 20
8.58284416
  0
VERTEX
  8
0
 10
6.41975638
 20
8.59692124
  0
VERTEX
  8
0
 10
6.40459593
 20
8.60939458
  0
VERTEX
  8
0
 10
6.38773819
 20
8.62005583
  0
VERTEX
  8
0
 10
6.36918684
 20
8.62869666
  0
VERTEX
  8
0
 10
6.34894552
 20
8.63510872
  0
VERTEX
  8
0
 10
6.32701790
 20
8.63908367
  0
VERTEX
  8
0
 10
6.30340764
 20
8.64041317
  0
VERTEX
  8
0
 10
6.27811838
 20
8.63888889
  0
VERTEX
  8
0
 10
6.28515523
 20
8.69253097
  0
VERTEX
  8
0
 10
6.29628255
 20
8.74210718
  0
VERTEX
  8
0
 10
6.31043397
 20
8.78868372
  0
VERTEX
  8
0
 10
6.32654311
 20
8.83332681
  0
VERTEX
  8
0
 10
6.36036909
 20
8.92107749
  0
VERTEX
  8
0
 10
6.37595318
 20
8.96631749
  0
VERTEX
  8
0
 10
6.38922949
 20
9.01388889
  0
SEQEND
  0
POLYLINE
  8
Default_Layer
 66
   1
 39
0.000000
 70
    1
  0
VERTEX
  8
0
 10
6.47256283
 20
7.26388889
  0
VERTEX
  8
0
 10
6.48000188
 20
7.22438834
  0
VERTEX
  8
0
 10
6.48531549
 20
7.17854272
  0
VERTEX
  8
0
 10
6.48850365
 20
7.12847107
  0
VERTEX
  8
0
 10
6.48956638
 20
7.07629244
  0
VERTEX
  8
0
 10
6.48850365
 20
7.02412586
  0
VERTEX
  8
0
 10
6.48531549
 20
6.97409038
  0
VERTEX
  8
0
 10
6.48000188
 20
6.92830504
  0
VERTEX
  8
0
 10
6.47256283
 20
6.88888889
  0
VERTEX
  8
0
 10
6.43358435
 20
6.88294205
  0
VERTEX
  8
0
 10
6.39415442
 20
6.87994528
  0
VERTEX
  8
0
 10
6.35411474
 20
6.87952112
  0
VERTEX
  8
0
 10
6.31330700
 20
6.88129209
  0
VERTEX
  8
0
 10
6.22875416
 20
6.88990952
  0
VERTEX
  8
0
 10
6.13922949
 20
6.90277778
  0
VERTEX
  8
0
 10
6.14108929
 20
6.94597190
  0
VERTEX
  8
0
 10
6.14065229
 20
6.99148743
  0
VERTEX
  8
0
 10
6.13741082
 20
7.08495910
  0
VERTEX
  8
0
 10
6.13686780
 20
7.13065347
  0
VERTEX
  8
0
 10
6.13855091
 20
7.17414567
  0
VERTEX
  8
0
 10
6.14359086
 20
7.21430481
  0
VERTEX
  8
0
 10
6.14772300
 20
7.23278108
  0
VERTEX
  8
0
 10
6.15311838
 20
7.25000000
  0
VERTEX
  8
0
 10
6.18570425
 20
7.25899669
  0
VERTEX
  8
0
 10
6.22243932
 20
7.26386870
  0
VERTEX
  8
0
 10
6.26229822
 20
7.26564114
  0
VERTEX
  8
0
 10
6.30425561
 20
7.26533914
  0
VERTEX
  8
0
 10
6.39036440
 20
7.26261223
  0
VERTEX
  8
0
 10
6.43246509
 20
7.26223756
  0
VERTEX
  8
0
 10
6.47256283
 20
7.26388889
  0
SEQEND
  0
POLYLINE
  8
Default_Layer
 66
   1
 39
0.000000
 70
    1
  0
VERTEX
  8
0
 10
7.09756283
 20
7.25000000
  0
VERTEX
  8
0
 10
7.09845532
 20
7.19757837
  0
VERTEX
  8
0
 10
7.09771019
 20
7.15228749
  0
VERTEX
  8
0
 10
7.09308026
 20
7.07498220
  0
VERTEX
  8
0
 10
7.08721939
 20
7.00185247
  0
VERTEX
  8
0
 10
7.08367394
 20
6.91666667
  0
VERTEX
  8
0
 10
6.70867394
 20
6.91666667
  0
VERTEX
  8
0
 10
6.70867394
 20
7.25000000
  0
VERTEX
  8
0
 10
6.74979157
 20
7.25744817
  0
VERTEX
  8
0
 10
6.79730807
 20
7.26276829
  0
VERTEX
  8
0
 10
6.84909450
 20
7.26596036
  0
VERTEX
  8
0
 10
6.90302193
 20
7.26702438
  0
VERTEX
  8
0
 10
6.95696142
 20
7.26596036
  0
VERTEX
  8
0
 10
7.00878402
 20
7.26276829
  0
VERTEX
  8
0
 10
7.05636080
 20
7.25744817
  0
VERTEX
  8
0
 10
7.09756283
 20
7.25000000
  0
SEQEND
  0
POLYLINE
  8
Default_Layer
 66
   1
 39
0.000000
 70
    1
  0
VERTEX
  8
0
 10
7.66700727
 20
7.26388889
  0
VERTEX
  8
0
 10
7.66946134
 20
7.24550865
  0
VERTEX
  8
0
 10
7.67452836
 20
7.22974070
  0
VERTEX
  8
0
 10
7.68277927
 20
7.21715796
  0
VERTEX
  8
0
 10
7.69478505
 20
7.20833333
  0
VERTEX
  8
0
 10
7.63379413
 20
7.09904296
  0
VERTEX
  8
0
 10
7.61764861
 20
7.07263291
  0
VERTEX
  8
0
 10
7.60051640
 20
7.04721545
  0
VERTEX
  8
0
 10
7.58208375
 20
7.02310436
  0
VERTEX
  8
0
 10
7.56203686
 20
7.00061345
  0
VERTEX
  8
0
 10
7.54006197
 20
6.98005648
  0
VERTEX
  8
0
 10
7.51584529
 20
6.96174726
  0
VERTEX
  8
0
 10
7.48907305
 20
6.94599958
  0
VERTEX
  8
0
 10
7.45943146
 20
6.93312721
  0
VERTEX
  8
0
 10
7.42660676
 20
6.92344394
  0
VERTEX
  8
0
 10
7.39028516
 20
6.91726357
  0
VERTEX
  8
0
 10
7.35015289
 20
6.91489988
  0
VERTEX
  8
0
 10
7.30589616
 20
6.91666667
  0
VERTEX
  8
0
 10
7.30589616
 20
7.25000000
  0
VERTEX
  8
0
 10
7.34359221
 20
7.25909484
  0
VERTEX
  8
0
 10
7.38551130
 20
7.26399116
  0
VERTEX
  8
0
 10
7.43060518
 20
7.26573697
  0
VERTEX
  8
0
 10
7.47782558
 20
7.26538029
  0
VERTEX
  8
0
 10
7.57445292
 20
7.26255149
  0
VERTEX
  8
0
 10
7.62176335
 20
7.26217541
  0
VERTEX
  8
0
 10
7.66700727
 20
7.26388889
  0
SEQEND
  0
POLYLINE
  8
Default_Layer
 66
   1
 39
0.000000
 70
    1
  0
VERTEX
  8
0
 10
8.76354828
 20
8.31944444
  0
VERTEX
  8
0
 10
8.75085179
 20
8.29047427
  0
VERTEX
  8
0
 10
8.73702874
 20
8.26263065
  0
VERTEX
  8
0
 10
8.70613790
 20
8.21018817
  0
VERTEX
  8
0
 10
8.67114554
 20
8.16184719
  0
VERTEX
  8
0
 10
8.63232147
 20
8.11733792
  0
VERTEX
  8
0
 10
8.58993547
 20
8.07639059
  0
VERTEX
  8
0
 10
8.54425734
 20
8.03873539
  0
VERTEX
  8
0
 10
8.49555687
 20
8.00410253
  0
VERTEX
  8
0
 10
8.44410384
 20
7.97222222
  0
VERTEX
  8
0
 10
8.41404934
 20
8.01677493
  0
VERTEX
  8
0
 10
8.38287041
 20
8.06020939
  0
VERTEX
  8
0
 10
8.31747041
 20
8.14405457
  0
VERTEX
  8
0
 10
8.24856609
 20
8.22441989
  0
VERTEX
  8
0
 10
8.17681974
 20
8.30196744
  0
VERTEX
  8
0
 10
8.10289362
 20
8.37735934
  0
VERTEX
  8
0
 10
8.02745001
 20
8.45125770
  0
VERTEX
  8
0
 10
7.87465940
 20
8.59722222
  0
VERTEX
  8
0
 10
7.90433784
 20
8.61686266
  0
VERTEX
  8
0
 10
7.93502444
 20
8.63428105
  0
VERTEX
  8
0
 10
7.96660613
 20
8.64951686
  0
VERTEX
  8
0
 10
7.99896983
 20
8.66260959
  0
VERTEX
  8
0
 10
8.03200246
 20
8.67359872
  0
VERTEX
  8
0
 10
8.06559094
 20
8.68252376
  0
VERTEX
  8
0
 10
8.09962218
 20
8.68942418
  0
VERTEX
  8
0
 10
8.13398312
 20
8.69433949
  0
VERTEX
  8
0
 10
8.16856067
 20
8.69730916
  0
VERTEX
  8
0
 10
8.20324176
 20
8.69837269
  0
VERTEX
  8
0
 10
8.23791330
 20
8.69756958
  0
VERTEX
  8
0
 10
8.27246222
 20
8.69493929
  0
VERTEX
  8
0
 10
8.30677544
 20
8.69052134
  0
VERTEX
  8
0
 10
8.34073987
 20
8.68435521
  0
VERTEX
  8
0
 10
8.37424245
 20
8.67648039
  0
VERTEX
  8
0
 10
8.40717008
 20
8.66693636
  0
VERTEX
  8
0
 10
8.43940970
 20
8.65576263
  0
VERTEX
  8
0
 10
8.47084822
 20
8.64299867
  0
VERTEX
  8
0
 10
8.50137257
 20
8.62868398
  0
VERTEX
  8
0
 10
8.53086966
 20
8.61285805
  0
VERTEX
  8
0
 10
8.55922642
 20
8.59556037
  0
VERTEX
  8
0
 10
8.58632977
 20
8.57683043
  0
VERTEX
  8
0
 10
8.61206663
 20
8.55670771
  0
VERTEX
  8
0
 10
8.63632392
 20
8.53523172
  0
VERTEX
  8
0
 10
8.65898856
 20
8.51244193
  0
VERTEX
  8
0
 10
8.67994748
 20
8.48837785
  0
VERTEX
  8
0
 10
8.69908759
 20
8.46307895
  0
VERTEX
  8
0
 10
8.71629581
 20
8.43658473
  0
VERTEX
  8
0
 10
8.73145907
 20
8.40893468
  0
VERTEX
  8
0
 10
8.74446429
 20
8.38016829
  0
VERTEX
  8
0
 10
8.75519839
 20
8.35032505
  0
VERTEX
  8
0
 10
8.76354828
 20
8.31944444
  0
SEQEND
  0
POLYLINE
  8
Default_Layer
 66
   1
 39
0.000000
 70
    1
  0
VERTEX
  8
0
 10
6.04200727
 20
6.43055556
  0
VERTEX
  8
0
 10
6.07104422
 20
6.42897034
  0
VERTEX
  8
0
 10
6.09787525
 20
6.42430592
  0
VERTEX
  8
0
 10
6.12251403
 20
6.41678524
  0
VERTEX
  8
0
 10
6.14497420
 20
6.40663124
  0
VERTEX
  8
0
 10
6.16526943
 20
6.39406687
  0
VERTEX
  8
0
 10
6.18341336
 20
6.37931505
  0
VERTEX
  8
0
 10
6.19941966
 20
6.36259874
  0
VERTEX
  8
0
 10
6.21330197
 20
6.34414088
  0
VERTEX
  8
0
 10
6.22507395
 20
6.32416440
  0
VERTEX
  8
0
 10
6.23474926
 20
6.30289225
  0
VERTEX
  8
0
 10
6.24234155
 20
6.28054737
  0
VERTEX
  8
0
 10
6.24786448
 20
6.25735271
  0
VERTEX
  8
0
 10
6.25133170
 20
6.23353119
  0
VERTEX
  8
0
 10
6.25275686
 20
6.20930577
  0
VERTEX
  8
0
 10
6.25215363
 20
6.18489938
  0
VERTEX
  8
0
 10
6.24953565
 20
6.16053497
  0
VERTEX
  8
0
 10
6.24491658
 20
6.13643548
  0
VERTEX
  8
0
 10
6.23831007
 20
6.11282385
  0
VERTEX
  8
0
 10
6.22972979
 20
6.08992301
  0
VERTEX
  8
0
 10
6.21918938
 20
6.06795592
  0
VERTEX
  8
0
 10
6.20670250
 20
6.04714552
  0
VERTEX
  8
0
 10
6.19228280
 20
6.02771473
  0
VERTEX
  8
0
 10
6.17594394
 20
6.00988651
  0
VERTEX
  8
0
 10
6.15769958
 20
5.99388380
  0
VERTEX
  8
0
 10
6.13756337
 20
5.97992954
  0
VERTEX
  8
0
 10
6.11554896
 20
5.96824667
  0
VERTEX
  8
0
 10
6.09167001
 20
5.95905813
  0
VERTEX
  8
0
 10
6.06594017
 20
5.95258686
  0
VERTEX
  8
0
 10
6.03837310
 20
5.94905580
  0
VERTEX
  8
0
 10
6.00898245
 20
5.94868790
  0
VERTEX
  8
0
 10
5.97778188
 20
5.95170610
  0
VERTEX
  8
0
 10
5.94478505
 20
5.95833333
  0
VERTEX
  8
0
 10
5.92479580
 20
5.96452301
  0
VERTEX
  8
0
 10
5.90609938
 20
5.97268967
  0
VERTEX
  8
0
 10
5.88871508
 20
5.98269091
  0
VERTEX
  8
0
 10
5.87266218
 20
5.99438429
  0
VERTEX
  8
0
 10
5.85795996
 20
6.00762738
  0
VERTEX
  8
0
 10
5.84462770
 20
6.02227776
  0
VERTEX
  8
0
 10
5.83268467
 20
6.03819300
  0
VERTEX
  8
0
 10
5.82215017
 20
6.05523068
  0
VERTEX
  8
0
 10
5.81304346
 20
6.07324836
  0
VERTEX
  8
0
 10
5.80538384
 20
6.09210363
  0
VERTEX
  8
0
 10
5.79919058
 20
6.11165405
  0
VERTEX
  8
0
 10
5.79448296
 20
6.13175719
  0
VERTEX
  8
0
 10
5.79128026
 20
6.15227064
  0
VERTEX
  8
0
 10
5.78960176
 20
6.17305196
  0
VERTEX
  8
0
 10
5.78946675
 20
6.19395873
  0
VERTEX
  8
0
 10
5.79089450
 20
6.21484851
  0
VERTEX
  8
0
 10
5.79390430
 20
6.23557890
  0
VERTEX
  8
0
 10
5.79851542
 20
6.25600744
  0
VERTEX
  8
0
 10
5.80474714
 20
6.27599173
  0
VERTEX
  8
0
 10
5.81261875
 20
6.29538933
  0
VERTEX
  8
0
 10
5.82214953
 20
6.31405781
  0
VERTEX
  8
0
 10
5.83335875
 20
6.33185476
  0
VERTEX
  8
0
 10
5.84626571
 20
6.34863773
  0
VERTEX
  8
0
 10
5.86088966
 20
6.36426432
  0
VERTEX
  8
0
 10
5.87724991
 20
6.37859208
  0
VERTEX
  8
0
 10
5.89536573
 20
6.39147859
  0
VERTEX
  8
0
 10
5.91525639
 20
6.40278143
  0
VERTEX
  8
0
 10
5.93694119
 20
6.41235816
  0
VERTEX
  8
0
 10
5.96043939
 20
6.42006637
  0
VERTEX
  8
0
 10
5.98577029
 20
6.42576362
  0
VERTEX
  8
0
 10
6.01295315
 20
6.42930749
  0
VERTEX
  8
0
 10
6.04200727
 20
6.43055556
  0
SEQEND
  0
POLYLINE
  8
Default_Layer
 66
   1
 39
0.000000
 70
    1
  0
VERTEX
  8
0
 10
6.43021495
 20
4.88888889
  0
VERTEX
  8
0
 10
6.43021495
 20
4.66666667
  0
VERTEX
  8
0
 10
6.43749676
 20
4.65211729
  0
VERTEX
  8
0
 10
6.44650893
 20
4.63870355
  0
VERTEX
  8
0
 10
6.45699506
 20
4.62622575
  0
VERTEX
  8
0
 10
6.46869870
 20
4.61448424
  0
VERTEX
  8
0
 10
6.49473286
 20
4.59241133
  0
VERTEX
  8
0
 10
6.52256001
 20
4.57088740
  0
VERTEX
  8
0
 10
6.55012875
 20
4.54831505
  0
VERTEX
  8
0
 10
6.57538768
 20
4.52309687
  0
VERTEX
  8
0
 10
6.58650990
 20
4.50899639
  0
VERTEX
  8
0
 10
6.59628540
 20
4.49363543
  0
VERTEX
  8
0
 10
6.60445774
 20
4.47681430
  0
VERTEX
  8
0
 10
6.61077051
 20
4.45833333
  0
VERTEX
  8
0
 10
6.62236001
 20
4.40585684
  0
VERTEX
  8
0
 10
6.62975828
 20
4.34978032
  0
VERTEX
  8
0
 10
6.63353231
 20
4.29056402
  0
VERTEX
  8
0
 10
6.63424909
 20
4.22866820
  0
VERTEX
  8
0
 10
6.63247563
 20
4.16455309
  0
VERTEX
  8
0
 10
6.62877890
 20
4.09867895
  0
VERTEX
  8
0
 10
6.61788362
 20
3.96349452
  0
VERTEX
  8
0
 10
6.60609921
 20
3.82679689
  0
VERTEX
  8
0
 10
6.60129106
 20
3.75903124
  0
VERTEX
  8
0
 10
6.59796159
 20
3.69226803
  0
VERTEX
  8
0
 10
6.59667782
 20
3.62696749
  0
VERTEX
  8
0
 10
6.59800671
 20
3.56358989
  0
VERTEX
  8
0
 10
6.60251528
 20
3.50259546
  0
VERTEX
  8
0
 10
6.61077051
 20
3.44444444
  0
VERTEX
  8
0
 10
6.57632612
 20
3.44243050
  0
VERTEX
  8
0
 10
6.54570691
 20
3.43659138
  0
VERTEX
  8
0
 10
6.51745663
 20
3.42838332
  0
VERTEX
  8
0
 10
6.49011904
 20
3.41926258
  0
VERTEX
  8
0
 10
6.46223788
 20
3.41068540
  0
VERTEX
  8
0
 10
6.43235691
 20
3.40410804
  0
VERTEX
  8
0
 10
6.39901987
 20
3.40098675
  0
VERTEX
  8
0
 10
6.36077051
 20
3.40277778
  0
VERTEX
  8
0
 10
6.33565391
 20
3.43660542
  0
VERTEX
  8
0
 10
6.31318288
 20
3.47310266
  0
VERTEX
  8
0
 10
6.29339059
 20
3.51230259
  0
VERTEX
  8
0
 10
6.27631019
 20
3.55423827
  0
VERTEX
  8
0
 10
6.26197482
 20
3.59894278
  0
VERTEX
  8
0
 10
6.25041765
 20
3.64644919
  0
VERTEX
  8
0
 10
6.24167183
 20
3.69679057
  0
VERTEX
  8
0
 10
6.23577051
 20
3.75000000
  0
VERTEX
  8
0
 10
6.26156195
 20
3.74994258
  0
VERTEX
  8
0
 10
6.28550067
 20
3.75249057
  0
VERTEX
  8
0
 10
6.30759713
 20
3.75745381
  0
VERTEX
  8
0
 10
6.32786182
 20
3.76464212
  0
VERTEX
  8
0
 10
6.34630520
 20
3.77386535
  0
VERTEX
  8
0
 10
6.36293776
 20
3.78493333
  0
VERTEX
  8
0
 10
6.37776997
 20
3.79765588
  0
VERTEX
  8
0
 10
6.39081231
 20
3.81184285
  0
VERTEX
  8
0
 10
6.40207525
 20
3.82730407
  0
VERTEX
  8
0
 10
6.41156927
 20
3.84384937
  0
VERTEX
  8
0
 10
6.41930484
 20
3.86128859
  0
VERTEX
  8
0
 10
6.42529245
 20
3.87943155
  0
VERTEX
  8
0
 10
6.42954256
 20
3.89808810
  0
VERTEX
  8
0
 10
6.43206565
 20
3.91706806
  0
VERTEX
  8
0
 10
6.43287220
 20
3.93618128
  0
VERTEX
  8
0
 10
6.43197269
 20
3.95523758
  0
VERTEX
  8
0
 10
6.42937758
 20
3.97404680
  0
VERTEX
  8
0
 10
6.42509736
 20
3.99241876
  0
VERTEX
  8
0
 10
6.41914251
 20
4.01016332
  0
VERTEX
  8
0
 10
6.41152349
 20
4.02709030
  0
VERTEX
  8
0
 10
6.40225078
 20
4.04300952
  0
VERTEX
  8
0
 10
6.39133486
 20
4.05773084
  0
VERTEX
  8
0
 10
6.37878621
 20
4.07106408
  0
VERTEX
  8
0
 10
6.36461531
 20
4.08281907
  0
VERTEX
  8
0
 10
6.34883261
 20
4.09280565
  0
VERTEX
  8
0
 10
6.33144862
 20
4.10083365
  0
VERTEX
  8
0
 10
6.31247379
 20
4.10671291
  0
VERTEX
  8
0
 10
6.29191860
 20
4.11025326
  0
VERTEX
  8
0
 10
6.26979354
 20
4.11126453
  0
VERTEX
  8
0
 10
6.24610908
 20
4.10955656
  0
VERTEX
  8
0
 10
6.22087568
 20
4.10493918
  0
VERTEX
  8
0
 10
6.19410384
 20
4.09722222
  0
VERTEX
  8
0
 10
6.19834155
 20
4.12552406
  0
VERTEX
  8
0
 10
6.19948962
 20
4.15248059
  0
VERTEX
  8
0
 10
6.19806425
 20
4.17821631
  0
VERTEX
  8
0
 10
6.19458163
 20
4.20285572
  0
VERTEX
  8
0
 10
6.18350933
 20
4.24934359
  0
VERTEX
  8
0
 10
6.17040220
 20
4.29294018
  0
VERTEX
  8
0
 10
6.15938972
 20
4.33464147
  0
VERTEX
  8
0
 10
6.15595944
 20
4.35509262
  0
VERTEX
  8
0
 10
6.15460137
 20
4.37544344
  0
VERTEX
  8
0
 10
6.15583171
 20
4.39581842
  0
VERTEX
  8
0
 10
6.16016662
 20
4.41634207
  0
VERTEX
  8
0
 10
6.16812231
 20
4.43713887
  0
VERTEX
  8
0
 10
6.18021495
 20
4.45833333
  0
VERTEX
  8
0
 10
6.16319697
 20
4.47263583
  0
VERTEX
  8
0
 10
6.14823614
 20
4.49037818
  0
VERTEX
  8
0
 10
6.13525387
 20
4.51120827
  0
VERTEX
  8
0
 10
6.12417156
 20
4.53477399
  0
VERTEX
  8
0
 10
6.11491060
 20
4.56072326
  0
VERTEX
  8
0
 10
6.10739241
 20
4.58870397
  0
VERTEX
  8
0
 10
6.10153838
 20
4.61836401
  0
VERTEX
  8
0
 10
6.09726991
 20
4.64935129
  0
VERTEX
  8
0
 10
6.09317526
 20
4.71389915
  0
VERTEX
  8
0
 10
6.09447967
 20
4.77953072
  0
VERTEX
  8
0
 10
6.10055435
 20
4.84342920
  0
VERTEX
  8
0
 10
6.11077051
 20
4.90277778
  0
VERTEX
  8
0
 10
6.15087024
 20
4.90112445
  0
VERTEX
  8
0
 10
6.19297186
 20
4.90149819
  0
VERTEX
  8
0
 10
6.27908033
 20
4.90422542
  0
VERTEX
  8
0
 10
6.32103694
 20
4.90452820
  0
VERTEX
  8
0
 10
6.36089499
 20
4.90275661
  0
VERTEX
  8
0
 10
6.39762937
 20
4.89788529
  0
VERTEX
  8
0
 10
6.43021495
 20
4.88888889
  0
SEQEND
  0
POLYLINE
  8
Default_Layer
 66
   1
 39
0.000000
 70
    1
  0
VERTEX
  8
0
 10
4.73645172
 20
7.26388889
  0
VERTEX
  8
0
 10
4.74551682
 20
7.22781568
  0
VERTEX
  8
0
 10
4.75040577
 20
7.18756581
  0
VERTEX
  8
0
 10
4.75215963
 20
7.14418055
  0
VERTEX
  8
0
 10
4.75181950
 20
7.09870112
  0
VERTEX
  8
0
 10
4.74902157
 20
7.00562475
  0
VERTEX
  8
0
 10
4.74864592
 20
6.96011030
  0
VERTEX
  8
0
 10
4.75034060
 20
6.91666667
  0
VERTEX
  8
0
 10
4.70492546
 20
6.91291819
  0
VERTEX
  8
0
 10
4.66419016
 20
6.91384956
  0
VERTEX
  8
0
 10
4.62768543
 20
6.91901149
  0
VERTEX
  8
0
 10
4.59496195
 20
6.92795468
  0
VERTEX
  8
0
 10
4.56557044
 20
6.94022983
  0
VERTEX
  8
0
 10
4.53906158
 20
6.95538765
  0
VERTEX
  8
0
 10
4.51498610
 20
6.97297882
  0
VERTEX
  8
0
 10
4.49289467
 20
6.99255407
  0
VERTEX
  8
0
 10
4.47233802
 20
7.01366408
  0
VERTEX
  8
0
 10
4.45286684
 20
7.03585957
  0
VERTEX
  8
0
 10
4.41538370
 20
7.08170976
  0
VERTEX
  8
0
 10
4.37685086
 20
7.12651025
  0
VERTEX
  8
0
 10
4.35606756
 20
7.14739362
  0
VERTEX
  8
0
 10
4.33367394
 20
7.16666667
  0
VERTEX
  8
0
 10
4.34434891
 20
7.19301931
  0
VERTEX
  8
0
 10
4.35811633
 20
7.21424648
  0
VERTEX
  8
0
 10
4.37472779
 20
7.23086715
  0
VERTEX
  8
0
 10
4.39393485
 20
7.24340034
  0
VERTEX
  8
0
 10
4.41548909
 20
7.25236503
  0
VERTEX
  8
0
 10
4.43914211
 20
7.25828022
  0
VERTEX
  8
0
 10
4.46464547
 20
7.26166491
  0
VERTEX
  8
0
 10
4.49175075
 20
7.26303810
  0
VERTEX
  8
0
 10
4.54977340
 20
7.26182593
  0
VERTEX
  8
0
 10
4.61122269
 20
7.25879570
  0
VERTEX
  8
0
 10
4.67411125
 20
7.25809936
  0
VERTEX
  8
0
 10
4.70547421
 20
7.25992389
  0
VERTEX
  8
0
 10
4.73645172
 20
7.26388889
  0
SEQEND
  0
POLYLINE
  8
Default_Layer
 66
   1
 39
0.000000
 70
    1
  0
VERTEX
  8
0
 10
4.34756283
 20
6.80555556
  0
VERTEX
  8
0
 10
4.33463424
 20
6.77069660
  0
VERTEX
  8
0
 10
4.31988501
 20
6.73766406
  0
VERTEX
  8
0
 10
4.30335543
 20
6.70641768
  0
VERTEX
  8
0
 10
4.28508576
 20
6.67691722
  0
VERTEX
  8
0
 10
4.26511629
 20
6.64912244
  0
VERTEX
  8
0
 10
4.24348730
 20
6.62299309
  0
VERTEX
  8
0
 10
4.22023906
 20
6.59848892
  0
VERTEX
  8
0
 10
4.19541186
 20
6.57556970
  0
VERTEX
  8
0
 10
4.16904598
 20
6.55419517
  0
VERTEX
  8
0
 10
4.14118169
 20
6.53432509
  0
VERTEX
  8
0
 10
4.11185927
 20
6.51591922
  0
VERTEX
  8
0
 10
4.08111900
 20
6.49893732
  0
VERTEX
  8
0
 10
4.04900117
 20
6.48333913
  0
VERTEX
  8
0
 10
4.01554605
 20
6.46908442
  0
VERTEX
  8
0
 10
3.98079391
 20
6.45613294
  0
VERTEX
  8
0
 10
3.94478505
 20
6.44444444
  0
VERTEX
  8
0
 10
3.95084687
 20
6.47195286
  0
VERTEX
  8
0
 10
3.95410156
 20
6.49748223
  0
VERTEX
  8
0
 10
3.95472073
 20
6.52105300
  0
VERTEX
  8
0
 10
3.95287598
 20
6.54268560
  0
VERTEX
  8
0
 10
3.94873890
 20
6.56240044
  0
VERTEX
  8
0
 10
3.94248110
 20
6.58021798
  0
VERTEX
  8
0
 10
3.93427417
 20
6.59615862
  0
VERTEX
  8
0
 10
3.92428971
 20
6.61024281
  0
VERTEX
  8
0
 10
3.91269932
 20
6.62249097
  0
VERTEX
  8
0
 10
3.89967461
 20
6.63292354
  0
VERTEX
  8
0
 10
3.88538716
 20
6.64156094
  0
VERTEX
  8
0
 10
3.87000859
 20
6.64842360
  0
VERTEX
  8
0
 10
3.85371049
 20
6.65353196
  0
VERTEX
  8
0
 10
3.83666445
 20
6.65690644
  0
VERTEX
  8
0
 10
3.81904209
 20
6.65856748
  0
VERTEX
  8
0
 10
3.80101499
 20
6.65853549
  0
VERTEX
  8
0
 10
3.78275475
 20
6.65683093
  0
VERTEX
  8
0
 10
3.76443299
 20
6.65347420
  0
VERTEX
  8
0
 10
3.74622129
 20
6.64848575
  0
VERTEX
  8
0
 10
3.72829125
 20
6.64188600
  0
VERTEX
  8
0
 10
3.71081448
 20
6.63369539
  0
VERTEX
  8
0
 10
3.69396257
 20
6.62393434
  0
VERTEX
  8
0
 10
3.67790713
 20
6.61262329
  0
VERTEX
  8
0
 10
3.66281974
 20
6.59978265
  0
VERTEX
  8
0
 10
3.64887202
 20
6.58543287
  0
VERTEX
  8
0
 10
3.63623556
 20
6.56959438
  0
VERTEX
  8
0
 10
3.62508196
 20
6.55228760
  0
VERTEX
  8
0
 10
3.61558281
 20
6.53353296
  0
VERTEX
  8
0
 10
3.60790973
 20
6.51335090
  0
VERTEX
  8
0
 10
3.60223431
 20
6.49176184
  0
VERTEX
  8
0
 10
3.59872814
 20
6.46878621
  0
VERTEX
  8
0
 10
3.59756283
 20
6.44444444
  0
VERTEX
  8
0
 10
3.54577136
 20
6.46383297
  0
VERTEX
  8
0
 10
3.49751147
 20
6.48675355
  0
VERTEX
  8
0
 10
3.45271178
 20
6.51313466
  0
VERTEX
  8
0
 10
3.41130092
 20
6.54290476
  0
VERTEX
  8
0
 10
3.37320753
 20
6.57599233
  0
VERTEX
  8
0
 10
3.33836022
 20
6.61232582
  0
VERTEX
  8
0
 10
3.30668762
 20
6.65183370
  0
VERTEX
  8
0
 10
3.27811838
 20
6.69444444
  0
VERTEX
  8
0
 10
3.30714255
 20
6.81116922
  0
VERTEX
  8
0
 10
3.33816703
 20
6.92591779
  0
VERTEX
  8
0
 10
3.37150171
 20
7.03838027
  0
VERTEX
  8
0
 10
3.40745648
 20
7.14824678
  0
VERTEX
  8
0
 10
3.44634121
 20
7.25520744
  0
VERTEX
  8
0
 10
3.48846577
 20
7.35895238
  0
VERTEX
  8
0
 10
3.53414005
 20
7.45917171
  0
VERTEX
  8
0
 10
3.58367394
 20
7.55555556
  0
VERTEX
  8
0
 10
3.68564993
 20
7.46829618
  0
VERTEX
  8
0
 10
3.78422682
 20
7.37763693
  0
VERTEX
  8
0
 10
3.88017702
 20
7.28435051
  0
VERTEX
  8
0
 10
3.97427297
 20
7.18920963
  0
VERTEX
  8
0
 10
4.15999183
 20
6.99645529
  0
VERTEX
  8
0
 10
4.25315960
 20
6.90038724
  0
VERTEX
  8
0
 10
4.34756283
 20
6.80555556
  0
SEQEND
  0
POLYLINE
  8
Default_Layer
 66
   1
 39
0.000000
 70
    1
  0
VERTEX
  8
0
 10
6.38922949
 20
10.88888889
  0
VERTEX
  8
0
 10
6.30668580
 20
10.87933316
  0
VERTEX
  8
0
 10
6.21965818
 20
10.87428645
  0
VERTEX
  8
0
 10
6.12928372
 20
10.87261133
  0
VERTEX
  8
0
 10
6.03669954
 20
10.87317039
  0
VERTEX
  8
0
 10
5.84945032
 20
10.87644136
  0
VERTEX
  8
0
 10
5.75705948
 20
10.87687843
  0
VERTEX
  8
0
 10
5.66700727
 20
10.87500000
  0
VERTEX
  8
0
 10
5.68204934
 20
10.88989914
  0
VERTEX
  8
0
 10
5.69843685
 20
10.90376876
  0
VERTEX
  8
0
 10
5.71608384
 20
10.91661850
  0
VERTEX
  8
0
 10
5.73490432
 20
10.92845797
  0
VERTEX
  8
0
 10
5.77572181
 20
10.94914464
  0
VERTEX
  8
0
 10
5.82020149
 20
10.96590581
  0
VERTEX
  8
0
 10
5.86765550
 20
10.97881850
  0
VERTEX
  8
0
 10
5.91739597
 20
10.98795975
  0
VERTEX
  8
0
 10
5.96873508
 20
10.99340658
  0
VERTEX
  8
0
 10
6.02098495
 20
10.99523601
  0
VERTEX
  8
0
 10
6.07345775
 20
10.99352509
  0
VERTEX
  8
0
 10
6.12546561
 20
10.98835083
  0
VERTEX
  8
0
 10
6.17632069
 20
10.97979027
  0
VERTEX
  8
0
 10
6.22533513
 20
10.96792044
  0
VERTEX
  8
0
 10
6.27182108
 20
10.95281835
  0
VERTEX
  8
0
 10
6.31509070
 20
10.93456104
  0
VERTEX
  8
0
 10
6.35445612
 20
10.91322555
  0
VERTEX
  8
0
 10
6.38922949
 20
10.88888889
  0
SEQEND
  0
POLYLINE
  8
Default_Layer
 66
   1
 39
0.000000
 70
    1
  0
VERTEX
  8
0
 10
6.55589616
 20
10.65277778
  0
VERTEX
  8
0
 10
6.56693576
 20
10.63111824
  0
VERTEX
  8
0
 10
6.57654500
 20
10.60803226
  0
VERTEX
  8
0
 10
6.58476458
 20
10.58367549
  0
VERTEX
  8
0
 10
6.59163519
 20
10.55820360
  0
VERTEX
  8
0
 10
6.60149226
 20
10.50453709
  0
VERTEX
  8
0
 10
6.60644172
 20
10.44827803
  0
VERTEX
  8
0
 10
6.60680910
 20
10.39067172
  0
VERTEX
  8
0
 10
6.60291992
 20
10.33296345
  0
VERTEX
  8
0
 10
6.59509969
 20
10.27639852
  0
VERTEX
  8
0
 10
6.58367394
 20
10.22222222
  0
VERTEX
  8
0
 10
6.57244436
 20
10.25178990
  0
VERTEX
  8
0
 10
6.56004389
 20
10.28018695
  0
VERTEX
  8
0
 10
6.53203320
 20
10.33377195
  0
VERTEX
  8
0
 10
6.50024758
 20
10.38358285
  0
VERTEX
  8
0
 10
6.46529276
 20
10.43022525
  0
VERTEX
  8
0
 10
6.42777449
 20
10.47430477
  0
VERTEX
  8
0
 10
6.38829847
 20
10.51642703
  0
VERTEX
  8
0
 10
6.30589616
 20
10.59722222
  0
VERTEX
  8
0
 10
6.30947477
 20
10.61269484
  0
VERTEX
  8
0
 10
6.31601196
 20
10.62521505
  0
VERTEX
  8
0
 10
6.32521795
 20
10.63507263
  0
VERTEX
  8
0
 10
6.33680292
 20
10.64255739
  0
VERTEX
  8
0
 10
6.35047709
 20
10.64795912
  0
VERTEX
  8
0
 10
6.36595063
 20
10.65156759
  0
VERTEX
  8
0
 10
6.40113669
 20
10.65456397
  0
VERTEX
  8
0
 10
6.44004268
 20
10.65386485
  0
VERTEX
  8
0
 10
6.48035019
 20
10.65178856
  0
VERTEX
  8
0
 10
6.51974082
 20
10.65065342
  0
VERTEX
  8
0
 10
6.55589616
 20
10.65277778
  0
SEQEND
  0
POLYLINE
  8
Default_Layer
 66
   1
 39
0.000000
 70
    1
  0
VERTEX
  8
0
 10
5.72256283
 20
10.62500000
  0
VERTEX
  8
0
 10
5.71554679
 20
10.60352227
  0
VERTEX
  8
0
 10
5.70534952
 20
10.58275896
  0
VERTEX
  8
0
 10
5.69238192
 20
10.56257540
  0
VERTEX
  8
0
 10
5.67705492
 20
10.54283691
  0
VERTEX
  8
0
 10
5.64096642
 20
10.50415640
  0
VERTEX
  8
0
 10
5.60037141
 20
10.46564001
  0
VERTEX
  8
0
 10
5.55855727
 20
10.42621028
  0
VERTEX
  8
0
 10
5.51881139
 20
10.38478977
  0
VERTEX
  8
0
 10
5.50074135
 20
10.36299628
  0
VERTEX
  8
0
 10
5.48442115
 20
10.34030105
  0
VERTEX
  8
0
 10
5.47026170
 20
10.31656940
  0
VERTEX
  8
0
 10
5.45867394
 20
10.29166667
  0
VERTEX
  8
0
 10
5.45070293
 20
10.33793565
  0
VERTEX
  8
0
 10
5.44700028
 20
10.38371636
  0
VERTEX
  8
0
 10
5.44706655
 20
10.42884346
  0
VERTEX
  8
0
 10
5.45040231
 20
10.47315164
  0
VERTEX
  8
0
 10
5.45650814
 20
10.51647559
  0
VERTEX
  8
0
 10
5.46488461
 20
10.55864999
  0
VERTEX
  8
0
 10
5.47503228
 20
10.59950953
  0
VERTEX
  8
0
 10
5.48645172
 20
10.63888889
  0
VERTEX
  8
0
 10
5.51578281
 20
10.63696999
  0
VERTEX
  8
0
 10
5.54741002
 20
10.63734719
  0
VERTEX
  8
0
 10
5.61306499
 20
10.64050216
  0
VERTEX
  8
0
 10
5.64484887
 20
10.64103604
  0
VERTEX
  8
0
 10
5.67444110
 20
10.63937827
  0
VERTEX
  8
0
 10
5.70071973
 20
10.63440690
  0
VERTEX
  8
0
 10
5.71226584
 20
10.63032801
  0
VERTEX
  8
0
 10
5.72256283
 20
10.62500000
  0
SEQEND
  0
POLYLINE
  8
Default_Layer
 66
   1
 39
0.000000
 70
    1
  0
VERTEX
  8
0
 10
6.11145172
 20
10.44444444
  0
VERTEX
  8
0
 10
6.15091659
 20
10.42194705
  0
VERTEX
  8
0
 10
6.18766056
 20
10.39816973
  0
VERTEX
  8
0
 10
6.22161036
 20
10.37313668
  0
VERTEX
  8
0
 10
6.25269268
 20
10.34687211
  0
VERTEX
  8
0
 10
6.28083424
 20
10.31940019
  0
VERTEX
  8
0
 10
6.30596176
 20
10.29074514
  0
VERTEX
  8
0
 10
6.32800193
 20
10.26093113
  0
VERTEX
  8
0
 10
6.34688148
 20
10.22998237
  0
VERTEX
  8
0
 10
6.36252711
 20
10.19792305
  0
VERTEX
  8
0
 10
6.37486554
 20
10.16477736
  0
VERTEX
  8
0
 10
6.38382347
 20
10.13056950
  0
VERTEX
  8
0
 10
6.38932762
 20
10.09532367
  0
VERTEX
  8
0
 10
6.39130470
 20
10.05906405
  0
VERTEX
  8
0
 10
6.38968141
 20
10.02181484
  0
VERTEX
  8
0
 10
6.38438448
 20
9.98360024
  0
VERTEX
  8
0
 10
6.37534060
 20
9.94444444
  0
VERTEX
  8
0
 10
6.36220315
 20
9.90528045
  0
VERTEX
  8
0
 10
6.34564168
 20
9.86962158
  0
VERTEX
  8
0
 10
6.32593772
 20
9.83742039
  0
VERTEX
  8
0
 10
6.30337284
 20
9.80862944
  0
VERTEX
  8
0
 10
6.27822859
 20
9.78320131
  0
VERTEX
  8
0
 10
6.25078652
 20
9.76108854
  0
VERTEX
  8
0
 10
6.22132817
 20
9.74224371
  0
VERTEX
  8
0
 10
6.19013511
 20
9.72661937
  0
VERTEX
  8
0
 10
6.15748887
 20
9.71416809
  0
VERTEX
  8
0
 10
6.12367102
 20
9.70484242
  0
VERTEX
  8
0
 10
6.08896310
 20
9.69859494
  0
VERTEX
  8
0
 10
6.05364667
 20
9.69537819
  0
VERTEX
  8
0
 10
6.01800327
 20
9.69514475
  0
VERTEX
  8
0
 10
5.98231445
 20
9.69784718
  0
VERTEX
  8
0
 10
5.94686178
 20
9.70343803
  0
VERTEX
  8
0
 10
5.91192679
 20
9.71186987
  0
VERTEX
  8
0
 10
5.87779105
 20
9.72309526
  0
VERTEX
  8
0
 10
5.84473609
 20
9.73706677
  0
VERTEX
  8
0
 10
5.81304348
 20
9.75373695
  0
VERTEX
  8
0
 10
5.78299476
 20
9.77305837
  0
VERTEX
  8
0
 10
5.75487148
 20
9.79498359
  0
VERTEX
  8
0
 10
5.72895520
 20
9.81946516
  0
VERTEX
  8
0
 10
5.70552747
 20
9.84645567
  0
VERTEX
  8
0
 10
5.68486983
 20
9.87590765
  0
VERTEX
  8
0
 10
5.66726384
 20
9.90777369
  0
VERTEX
  8
0
 10
5.65299105
 20
9.94200633
  0
VERTEX
  8
0
 10
5.64233302
 20
9.97855814
  0
VERTEX
  8
0
 10
5.63557128
 20
10.01738169
  0
VERTEX
  8
0
 10
5.63298740
 20
10.05842953
  0
VERTEX
  8
0
 10
5.63486292
 20
10.10165423
  0
VERTEX
  8
0
 10
5.64147940
 20
10.14700835
  0
VERTEX
  8
0
 10
5.65311838
 20
10.19444444
  0
VERTEX
  8
0
 10
5.66259488
 20
10.22192025
  0
VERTEX
  8
0
 10
5.67471297
 20
10.24862829
  0
VERTEX
  8
0
 10
5.68945429
 20
10.27439448
  0
VERTEX
  8
0
 10
5.70680047
 20
10.29904476
  0
VERTEX
  8
0
 10
5.72673317
 20
10.32240505
  0
VERTEX
  8
0
 10
5.74923401
 20
10.34430129
  0
VERTEX
  8
0
 10
5.77428465
 20
10.36455939
  0
VERTEX
  8
0
 10
5.80186672
 20
10.38300529
  0
VERTEX
  8
0
 10
5.83196187
 20
10.39946491
  0
VERTEX
  8
0
 10
5.86455172
 20
10.41376418
  0
VERTEX
  8
0
 10
5.89961793
 20
10.42572903
  0
VERTEX
  8
0
 10
5.93714214
 20
10.43518539
  0
VERTEX
  8
0
 10
5.97710598
 20
10.44195918
  0
VERTEX
  8
0
 10
6.01949109
 20
10.44587634
  0
VERTEX
  8
0
 10
6.06427913
 20
10.44676278
  0
VERTEX
  8
0
 10
6.11145172
 20
10.44444444
  0
SEQEND
  0
POLYLINE
  8
Default_Layer
 66
   1
 39
0.000000
 70
    1
  0
VERTEX
  8
0
 10
5.75034060
 20
9.50000000
  0
VERTEX
  8
0
 10
5.70851432
 20
9.49383490
  0
VERTEX
  8
0
 10
5.66344510
 20
9.48920577
  0
VERTEX
  8
0
 10
5.56498684
 20
9.48384424
  0
VERTEX
  8
0
 10
5.45778387
 20
9.48249307
  0
VERTEX
  8
0
 10
5.34465422
 20
9.48372994
  0
VERTEX
  8
0
 10
5.11188702
 20
9.48827844
  0
VERTEX
  8
0
 10
4.99788553
 20
9.48874542
  0
VERTEX
  8
0
 10
4.88922949
 20
9.48611111
  0
VERTEX
  8
0
 10
4.89762398
 20
9.54451134
  0
VERTEX
  8
0
 10
4.90973665
 20
9.59919955
  0
VERTEX
  8
0
 10
4.92547337
 20
9.65026985
  0
VERTEX
  8
0
 10
4.94474001
 20
9.69781638
  0
VERTEX
  8
0
 10
4.96744243
 20
9.74193323
  0
VERTEX
  8
0
 10
4.99348648
 20
9.78271454
  0
VERTEX
  8
0
 10
5.02277804
 20
9.82025440
  0
VERTEX
  8
0
 10
5.05522297
 20
9.85464695
  0
VERTEX
  8
0
 10
5.09072713
 20
9.88598630
  0
VERTEX
  8
0
 10
5.12919639
 20
9.91436655
  0
VERTEX
  8
0
 10
5.17053660
 20
9.93988184
  0
VERTEX
  8
0
 10
5.21465364
 20
9.96262627
  0
VERTEX
  8
0
 10
5.26145336
 20
9.98269397
  0
VERTEX
  8
0
 10
5.31084163
 20
10.00017904
  0
VERTEX
  8
0
 10
5.36272431
 20
10.01517560
  0
VERTEX
  8
0
 10
5.41700727
 20
10.02777778
  0
VERTEX
  8
0
 10
5.42397851
 20
10.02780229
  0
VERTEX
  8
0
 10
5.42799068
 20
10.02486970
  0
VERTEX
  8
0
 10
5.42998337
 20
10.01991892
  0
VERTEX
  8
0
 10
5.43089616
 20
10.01388889
  0
VERTEX
  8
0
 10
5.43449421
 20
9.96540360
  0
VERTEX
  8
0
 10
5.44188240
 20
9.92070846
  0
VERTEX
  8
0
 10
5.45271621
 20
9.87945894
  0
VERTEX
  8
0
 10
5.46665108
 20
9.84131047
  0
VERTEX
  8
0
 10
5.48334248
 20
9.80591854
  0
VERTEX
  8
0
 10
5.50244587
 20
9.77293860
  0
VERTEX
  8
0
 10
5.52361672
 20
9.74202611
  0
VERTEX
  8
0
 10
5.54651047
 20
9.71283654
  0
VERTEX
  8
0
 10
5.57078260
 20
9.68502533
  0
VERTEX
  8
0
 10
5.59608856
 20
9.65824796
  0
VERTEX
  8
0
 10
5.64842382
 20
9.60641655
  0
VERTEX
  8
0
 10
5.70075994
 20
9.55458600
  0
VERTEX
  8
0
 10
5.72606697
 20
9.52780970
  0
VERTEX
  8
0
 10
5.75034060
 20
9.50000000
  0
SEQEND
  0
POLYLINE
  8
Default_Layer
 66
   1
 39
0.000000
 70
    1
  0
VERTEX
  8
0
 10
4.90311838
 20
9.25000000
  0
VERTEX
  8
0
 10
4.96019148
 20
9.24804675
  0
VERTEX
  8
0
 10
5.01959578
 20
9.24842412
  0
VERTEX
  8
0
 10
5.14086047
 20
9.25163358
  0
VERTEX
  8
0
 10
5.20045211
 20
9.25219708
  0
VERTEX
  8
0
 10
5.25783745
 20
9.25055403
  0
VERTEX
  8
0
 10
5.31188211
 20
9.24557014
  0
VERTEX
  8
0
 10
5.33729719
 20
9.24147091
  0
VERTEX
  8
0
 10
5.36145172
 20
9.23611111
  0
VERTEX
  8
0
 10
5.34679884
 20
9.21599612
  0
VERTEX
  8
0
 10
5.32949489
 20
9.19853824
  0
VERTEX
  8
0
 10
5.30980736
 20
9.18346999
  0
VERTEX
  8
0
 10
5.28800375
 20
9.17052389
  0
VERTEX
  8
0
 10
5.26435155
 20
9.15943244
  0
VERTEX
  8
0
 10
5.23911825
 20
9.14992816
  0
VERTEX
  8
0
 10
5.18497836
 20
9.13461119
  0
VERTEX
  8
0
 10
5.12772402
 20
9.12243310
  0
VERTEX
  8
0
 10
5.06949520
 20
9.11125401
  0
VERTEX
  8
0
 10
5.01243185
 20
9.09893405
  0
VERTEX
  8
0
 10
4.95867394
 20
9.08333333
  0
VERTEX
  8
0
 10
4.94240796
 20
9.12262356
  0
VERTEX
  8
0
 10
4.92695961
 20
9.16273011
  0
VERTEX
  8
0
 10
4.91347953
 20
9.20480494
  0
VERTEX
  8
0
 10
4.90311838
 20
9.25000000
  0
SEQEND
  0
POLYLINE
  8
Default_Layer
 66
   1
 39
0.000000
 70
    1
  0
VERTEX
  8
0
 10
4.12534060
 20
8.59722222
  0
VERTEX
  8
0
 10
3.97254999
 20
8.45125770
  0
VERTEX
  8
0
 10
3.89710638
 20
8.37735934
  0
VERTEX
  8
0
 10
3.82318026
 20
8.30196744
  0
VERTEX
  8
0
 10
3.75143391
 20
8.22441989
  0
VERTEX
  8
0
 10
3.68252959
 20
8.14405457
  0
VERTEX
  8
0
 10
3.61712959
 20
8.06020939
  0
VERTEX
  8
0
 10
3.58595066
 20
8.01677493
  0
VERTEX
  8
0
 10
3.55589616
 20
7.97222222
  0
VERTEX
  8
0
 10
3.50444313
 20
8.00410253
  0
VERTEX
  8
0
 10
3.45574266
 20
8.03873539
  0
VERTEX
  8
0
 10
3.41006453
 20
8.07639059
  0
VERTEX
  8
0
 10
3.36767853
 20
8.11733792
  0
VERTEX
  8
0
 10
3.32885446
 20
8.16184719
  0
VERTEX
  8
0
 10
3.29386210
 20
8.21018817
  0
VERTEX
  8
0
 10
3.26297126
 20
8.26263065
  0
VERTEX
  8
0
 10
3.24914821
 20
8.29047427
  0
VERTEX
  8
0
 10
3.23645172
 20
8.31944444
  0
VERTEX
  8
0
 10
3.24480161
 20
8.35032505
  0
VERTEX
  8
0
 10
3.25553571
 20
8.38016829
  0
VERTEX
  8
0
 10
3.26854093
 20
8.40893468
  0
VERTEX
  8
0
 10
3.28370419
 20
8.43658473
  0
VERTEX
  8
0
 10
3.30091241
 20
8.46307895
  0
VERTEX
  8
0
 10
3.32005252
 20
8.48837785
  0
VERTEX
  8
0
 10
3.34101144
 20
8.51244193
  0
VERTEX
  8
0
 10
3.36367608
 20
8.53523172
  0
VERTEX
  8
0
 10
3.38793337
 20
8.55670771
  0
VERTEX
  8
0
 10
3.41367023
 20
8.57683043
  0
VERTEX
  8
0
 10
3.44077358
 20
8.59556037
  0
VERTEX
  8
0
 10
3.46913034
 20
8.61285805
  0
VERTEX
  8
0
 10
3.49862743
 20
8.62868398
  0
VERTEX
  8
0
 10
3.52915178
 20
8.64299867
  0
VERTEX
  8
0
 10
3.56059030
 20
8.65576263
  0
VERTEX
  8
0
 10
3.59282992
 20
8.66693636
  0
VERTEX
  8
0
 10
3.62575755
 20
8.67648039
  0
VERTEX
  8
0
 10
3.65926013
 20
8.68435521
  0
VERTEX
  8
0
 10
3.69322456
 20
8.69052134
  0
VERTEX
  8
0
 10
3.72753778
 20
8.69493929
  0
VERTEX
  8
0
 10
3.76208670
 20
8.69756958
  0
VERTEX
  8
0
 10
3.79675824
 20
8.69837269
  0
VERTEX
  8
0
 10
3.83143933
 20
8.69730916
  0
VERTEX
  8
0
 10
3.86601688
 20
8.69433949
  0
VERTEX
  8
0
 10
3.90037782
 20
8.68942418
  0
VERTEX
  8
0
 10
3.93440906
 20
8.68252376
  0
VERTEX
  8
0
 10
3.96799754
 20
8.67359872
  0
VERTEX
  8
0
 10
4.00103017
 20
8.66260959
  0
VERTEX
  8
0
 10
4.03339387
 20
8.64951686
  0
VERTEX
  8
0
 10
4.06497556
 20
8.63428105
  0
VERTEX
  8
0
 10
4.09566216
 20
8.61686266
  0
VERTEX
  8
0
 10
4.12534060
 20
8.59722222
  0
SEQEND
  0
POLYLINE
  8
Default_Layer
 66
   1
 39
0.000000
 70
    1
  0
VERTEX
  8
0
 10
4.29200727
 20
8.40277778
  0
VERTEX
  8
0
 10
4.30464926
 20
8.39632211
  0
VERTEX
  8
0
 10
4.31506350
 20
8.38763871
  0
VERTEX
  8
0
 10
4.32353978
 20
8.37701737
  0
VERTEX
  8
0
 10
4.33036790
 20
8.36474789
  0
VERTEX
  8
0
 10
4.34023875
 20
8.33642368
  0
VERTEX
  8
0
 10
4.34699433
 20
8.30498445
  0
VERTEX
  8
0
 10
4.35295291
 20
8.27274855
  0
VERTEX
  8
0
 10
4.36043278
 20
8.24203435
  0
VERTEX
  8
0
 10
4.36546766
 20
8.22797236
  0
VERTEX
  8
0
 10
4.37175222
 20
8.21516019
  0
VERTEX
  8
0
 10
4.37957623
 20
8.20388762
  0
VERTEX
  8
0
 10
4.38922949
 20
8.19444444
  0
VERTEX
  8
0
 10
4.47722795
 20
8.19910957
  0
VERTEX
  8
0
 10
4.56079309
 20
8.19934138
  0
VERTEX
  8
0
 10
4.60046755
 20
8.19734917
  0
VERTEX
  8
0
 10
4.63849893
 20
8.19371389
  0
VERTEX
  8
0
 10
4.67470900
 20
8.18825728
  0
VERTEX
  8
0
 10
4.70891950
 20
8.18080112
  0
VERTEX
  8
0
 10
4.74095219
 20
8.17116714
  0
VERTEX
  8
0
 10
4.77062882
 20
8.15917710
  0
VERTEX
  8
0
 10
4.79777114
 20
8.14465276
  0
VERTEX
  8
0
 10
4.82220091
 20
8.12741586
  0
VERTEX
  8
0
 10
4.84373987
 20
8.10728816
  0
VERTEX
  8
0
 10
4.86220979
 20
8.08409141
  0
VERTEX
  8
0
 10
4.87743241
 20
8.05764736
  0
VERTEX
  8
0
 10
4.88922949
 20
8.02777778
  0
VERTEX
  8
0
 10
4.88081918
 20
8.02568703
  0
VERTEX
  8
0
 10
4.87396297
 20
8.02206629
  0
VERTEX
  8
0
 10
4.86858927
 20
8.01698716
  0
VERTEX
  8
0
 10
4.86462645
 20
8.01052126
  0
VERTEX
  8
0
 10
4.86200289
 20
8.00274020
  0
VERTEX
  8
0
 10
4.86064700
 20
7.99371560
  0
VERTEX
  8
0
 10
4.86145172
 20
7.97222222
  0
VERTEX
  8
0
 10
4.82474272
 20
7.96655296
  0
VERTEX
  8
0
 10
4.78768711
 20
7.96231752
  0
VERTEX
  8
0
 10
4.71276262
 20
7.95746783
  0
VERTEX
  8
0
 10
4.63713131
 20
7.95631259
  0
VERTEX
  8
0
 10
4.56124624
 20
7.95749122
  0
VERTEX
  8
0
 10
4.41052703
 20
7.96140789
  0
VERTEX
  8
0
 10
4.33659903
 20
7.96142480
  0
VERTEX
  8
0
 10
4.26422949
 20
7.95833333
  0
VERTEX
  8
0
 10
4.25928706
 20
7.91809245
  0
VERTEX
  8
0
 10
4.25737897
 20
7.87482311
  0
VERTEX
  8
0
 10
4.25782259
 20
7.82920794
  0
VERTEX
  8
0
 10
4.25993532
 20
7.78192955
  0
VERTEX
  8
0
 10
4.26643765
 20
7.68511364
  0
VERTEX
  8
0
 10
4.27142506
 20
7.58983636
  0
VERTEX
  8
0
 10
4.27164413
 20
7.54448127
  0
VERTEX
  8
0
 10
4.26943662
 20
7.50155871
  0
VERTEX
  8
0
 10
4.26411994
 20
7.46175130
  0
VERTEX
  8
0
 10
4.25501145
 20
7.42574166
  0
VERTEX
  8
0
 10
4.24882197
 20
7.40937433
  0
VERTEX
  8
0
 10
4.24142856
 20
7.39421242
  0
VERTEX
  8
0
 10
4.23274589
 20
7.38034127
  0
VERTEX
  8
0
 10
4.22268864
 20
7.36784621
  0
VERTEX
  8
0
 10
4.21117148
 20
7.35681255
  0
VERTEX
  8
0
 10
4.19810908
 20
7.34732564
  0
VERTEX
  8
0
 10
4.18341612
 20
7.33947079
  0
VERTEX
  8
0
 10
4.16700727
 20
7.33333333
  0
VERTEX
  8
0
 10
4.14674679
 20
7.36629282
  0
VERTEX
  8
0
 10
4.12219091
 20
7.39764679
  0
VERTEX
  8
0
 10
4.09411969
 20
7.42764082
  0
VERTEX
  8
0
 10
4.06331321
 20
7.45652052
  0
VERTEX
  8
0
 10
3.99661472
 20
7.51191930
  0
VERTEX
  8
0
 10
3.92833599
 20
7.56580789
  0
VERTEX
  8
0
 10
3.89555421
 20
7.59279985
  0
VERTEX
  8
0
 10
3.86471756
 20
7.62015105
  0
VERTEX
  8
0
 10
3.83660613
 20
7.64810708
  0
VERTEX
  8
0
 10
3.81199997
 20
7.67691353
  0
VERTEX
  8
0
 10
3.79167916
 20
7.70681602
  0
VERTEX
  8
0
 10
3.77642377
 20
7.73806012
  0
VERTEX
  8
0
 10
3.77093937
 20
7.75426202
  0
VERTEX
  8
0
 10
3.76701386
 20
7.77089143
  0
VERTEX
  8
0
 10
3.76474473
 20
7.78797904
  0
VERTEX
  8
0
 10
3.76422949
 20
7.80555556
  0
VERTEX
  8
0
 10
3.76570340
 20
7.82092766
  0
VERTEX
  8
0
 10
3.76942323
 20
7.83716321
  0
VERTEX
  8
0
 10
3.77526129
 20
7.85419709
  0
VERTEX
  8
0
 10
3.78308987
 20
7.87196421
  0
VERTEX
  8
0
 10
3.80420786
 20
7.90943766
  0
VERTEX
  8
0
 10
3.83175564
 20
7.94906267
  0
VERTEX
  8
0
 10
3.86471165
 20
7.99031833
  0
VERTEX
  8
0
 10
3.90205435
 20
8.03268376
  0
VERTEX
  8
0
 10
3.94276219
 20
8.07563806
  0
VERTEX
  8
0
 10
3.98581360
 20
8.11866032
  0
VERTEX
  8
0
 10
4.07486094
 20
8.20282517
  0
VERTEX
  8
0
 10
4.16102395
 20
8.28101115
  0
VERTEX
  8
0
 10
4.23613021
 20
8.34905107
  0
VERTEX
  8
0
 10
4.29200727
 20
8.40277778
  0
SEQEND
  0
POLYLINE
  8
Default_Layer
 66
   1
 39
0.000000
 70
    1
  0
VERTEX
  8
0
 10
7.76422949
 20
8.38888889
  0
VERTEX
  8
0
 10
7.80720383
 20
8.36155187
  0
VERTEX
  8
0
 10
7.84837908
 20
8.33241547
  0
VERTEX
  8
0
 10
7.88790497
 20
8.30162945
  0
VERTEX
  8
0
 10
7.92593127
 20
8.26934359
  0
VERTEX
  8
0
 10
7.96260770
 20
8.23570767
  0
VERTEX
  8
0
 10
7.99808402
 20
8.20087146
  0
VERTEX
  8
0
 10
8.06603530
 20
8.12819730
  0
VERTEX
  8
0
 10
8.13098308
 20
8.05251931
  0
VERTEX
  8
0
 10
8.19412532
 20
7.97503569
  0
VERTEX
  8
0
 10
8.31978505
 20
7.81944444
  0
VERTEX
  8
0
 10
8.26635057
 20
7.75473823
  0
VERTEX
  8
0
 10
8.21177684
 20
7.69119615
  0
VERTEX
  8
0
 10
8.15608244
 20
7.62879933
  0
VERTEX
  8
0
 10
8.09928599
 20
7.56752890
  0
VERTEX
  8
0
 10
8.04140609
 20
7.50736596
  0
VERTEX
  8
0
 10
7.98246134
 20
7.44829164
  0
VERTEX
  8
0
 10
7.86145172
 20
7.33333333
  0
VERTEX
  8
0
 10
7.84666648
 20
7.34068352
  0
VERTEX
  8
0
 10
7.83347261
 20
7.34962506
  0
VERTEX
  8
0
 10
7.82178954
 20
7.36007741
  0
VERTEX
  8
0
 10
7.81153673
 20
7.37196002
  0
VERTEX
  8
0
 10
7.80263364
 20
7.38519234
  0
VERTEX
  8
0
 10
7.79499970
 20
7.39969382
  0
VERTEX
  8
0
 10
7.78321714
 20
7.43218209
  0
VERTEX
  8
0
 10
7.77554465
 20
7.46878043
  0
VERTEX
  8
0
 10
7.77133786
 20
7.50884447
  0
VERTEX
  8
0
 10
7.76995237
 20
7.55172982
  0
VERTEX
  8
0
 10
7.77074381
 20
7.59679209
  0
VERTEX
  8
0
 10
7.77627991
 20
7.69086986
  0
VERTEX
  8
0
 10
7.78279110
 20
7.78592271
  0
VERTEX
  8
0
 10
7.78480138
 20
7.83220383
  0
VERTEX
  8
0
 10
7.78512228
 20
7.87679556
  0
VERTEX
  8
0
 10
7.78310941
 20
7.91905353
  0
VERTEX
  8
0
 10
7.77811838
 20
7.95833333
  0
VERTEX
  8
0
 10
7.74582166
 20
7.96596638
  0
VERTEX
  8
0
 10
7.71097934
 20
7.97105398
  0
VERTEX
  8
0
 10
7.67399320
 20
7.97399790
  0
VERTEX
  8
0
 10
7.63526503
 20
7.97519993
  0
VERTEX
  8
0
 10
7.55418970
 20
7.97398534
  0
VERTEX
  8
0
 10
7.47096759
 20
7.97062438
  0
VERTEX
  8
0
 10
7.38881294
 20
7.96833121
  0
VERTEX
  8
0
 10
7.34914036
 20
7.96858947
  0
VERTEX
  8
0
 10
7.31093999
 20
7.97031998
  0
VERTEX
  8
0
 10
7.27461360
 20
7.97392452
  0
VERTEX
  8
0
 10
7.24056298
 20
7.97980486
  0
VERTEX
  8
0
 10
7.20918991
 20
7.98836276
  0
VERTEX
  8
0
 10
7.18089616
 20
8.00000000
  0
VERTEX
  8
0
 10
7.17770505
 20
8.02020644
  0
VERTEX
  8
0
 10
7.17652800
 20
8.03903510
  0
VERTEX
  8
0
 10
7.17728501
 20
8.05653262
  0
VERTEX
  8
0
 10
7.17989607
 20
8.07274559
  0
VERTEX
  8
0
 10
7.18428115
 20
8.08772064
  0
VERTEX
  8
0
 10
7.19036026
 20
8.10150439
  0
VERTEX
  8
0
 10
7.19805336
 20
8.11414344
  0
VERTEX
  8
0
 10
7.20728046
 20
8.12568441
  0
VERTEX
  8
0
 10
7.21796154
 20
8.13617392
  0
VERTEX
  8
0
 10
7.23001659
 20
8.14565859
  0
VERTEX
  8
0
 10
7.25792854
 20
8.16179984
  0
VERTEX
  8
0
 10
7.29037621
 20
8.17448108
  0
VERTEX
  8
0
 10
7.32671950
 20
8.18407525
  0
VERTEX
  8
0
 10
7.36631831
 20
8.19095526
  0
VERTEX
  8
0
 10
7.40853254
 20
8.19549404
  0
VERTEX
  8
0
 10
7.45272210
 20
8.19806450
  0
VERTEX
  8
0
 10
7.49824687
 20
8.19903958
  0
VERTEX
  8
0
 10
7.59074167
 20
8.19769525
  0
VERTEX
  8
0
 10
7.68089616
 20
8.19444444
  0
VERTEX
  8
0
 10
7.69215867
 20
8.20049656
  0
VERTEX
  8
0
 10
7.70160702
 20
8.20836924
  0
VERTEX
  8
0
 10
7.70945699
 20
8.21784667
  0
VERTEX
  8
0
 10
7.71592434
 20
8.22871304
  0
VERTEX
  8
0
 10
7.72557429
 20
8.25374929
  0
VERTEX
  8
0
 10
7.73228304
 20
8.28175147
  0
VERTEX
  8
0
 10
7.74378163
 20
8.33974750
  0
VERTEX
  8
0
 10
7.75202382
 20
8.36628829
  0
VERTEX
  8
0
 10
7.75752333
 20
8.37818902
  0
VERTEX
  8
0
 10
7.76422949
 20
8.38888889
  0
SEQEND
  0
POLYLINE
  8
Default_Layer
 66
   1
 39
0.000000
 70
    1
  0
VERTEX
  8
0
 10
2.73645172
 20
8.13888889
  0
VERTEX
  8
0
 10
2.74709094
 20
8.07638942
  0
VERTEX
  8
0
 10
2.75524306
 20
8.01131710
  0
VERTEX
  8
0
 10
2.76118666
 20
7.94395042
  0
VERTEX
  8
0
 10
2.76520032
 20
7.87456787
  0
VERTEX
  8
0
 10
2.76756260
 20
7.80344795
  0
VERTEX
  8
0
 10
2.76855209
 20
7.73086915
  0
VERTEX
  8
0
 10
2.76752697
 20
7.58244886
  0
VERTEX
  8
0
 10
2.76126043
 20
7.28035542
  0
VERTEX
  8
0
 10
2.76047621
 20
7.13113815
  0
VERTEX
  8
0
 10
2.76164638
 20
7.05796160
  0
VERTEX
  8
0
 10
2.76422949
 20
6.98611111
  0
VERTEX
  8
0
 10
2.73193571
 20
6.98601590
  0
VERTEX
  8
0
 10
2.70068088
 20
6.98759515
  0
VERTEX
  8
0
 10
2.67046367
 20
6.99079564
  0
VERTEX
  8
0
 10
2.64128276
 20
6.99556417
  0
VERTEX
  8
0
 10
2.61313681
 20
7.00184754
  0
VERTEX
  8
0
 10
2.58602449
 20
7.00959252
  0
VERTEX
  8
0
 10
2.55994447
 20
7.01874593
  0
VERTEX
  8
0
 10
2.53489540
 20
7.02925454
  0
VERTEX
  8
0
 10
2.51087597
 20
7.04106515
  0
VERTEX
  8
0
 10
2.48788484
 20
7.05412457
  0
VERTEX
  8
0
 10
2.46592067
 20
7.06837956
  0
VERTEX
  8
0
 10
2.44498214
 20
7.08377694
  0
VERTEX
  8
0
 10
2.40617665
 20
7.11778601
  0
VERTEX
  8
0
 10
2.37145770
 20
7.15572612
  0
VERTEX
  8
0
 10
2.34081463
 20
7.19717161
  0
VERTEX
  8
0
 10
2.31423680
 20
7.24169681
  0
VERTEX
  8
0
 10
2.29171353
 20
7.28887608
  0
VERTEX
  8
0
 10
2.27323416
 20
7.33828375
  0
VERTEX
  8
0
 10
2.25878805
 20
7.38949417
  0
VERTEX
  8
0
 10
2.24836452
 20
7.44208167
  0
VERTEX
  8
0
 10
2.24195292
 20
7.49562061
  0
VERTEX
  8
0
 10
2.23954259
 20
7.54968532
  0
VERTEX
  8
0
 10
2.24112287
 20
7.60385014
  0
VERTEX
  8
0
 10
2.24668310
 20
7.65768942
  0
VERTEX
  8
0
 10
2.25621262
 20
7.71077750
  0
VERTEX
  8
0
 10
2.26970077
 20
7.76268873
  0
VERTEX
  8
0
 10
2.28713689
 20
7.81299743
  0
VERTEX
  8
0
 10
2.30851033
 20
7.86127796
  0
VERTEX
  8
0
 10
2.33381041
 20
7.90710465
  0
VERTEX
  8
0
 10
2.36302649
 20
7.95005186
  0
VERTEX
  8
0
 10
2.39614790
 20
7.98969392
  0
VERTEX
  8
0
 10
2.43316399
 20
8.02560517
  0
VERTEX
  8
0
 10
2.47406409
 20
8.05735995
  0
VERTEX
  8
0
 10
2.49596731
 20
8.07154565
  0
VERTEX
  8
0
 10
2.51883754
 20
8.08453262
  0
VERTEX
  8
0
 10
2.54267345
 20
8.09626763
  0
VERTEX
  8
0
 10
2.56747369
 20
8.10669750
  0
VERTEX
  8
0
 10
2.59323695
 20
8.11576901
  0
VERTEX
  8
0
 10
2.61996188
 20
8.12342894
  0
VERTEX
  8
0
 10
2.64764715
 20
8.12962411
  0
VERTEX
  8
0
 10
2.67629144
 20
8.13430129
  0
VERTEX
  8
0
 10
2.70589340
 20
8.13740729
  0
VERTEX
  8
0
 10
2.73645172
 20
8.13888889
  0
SEQEND
  0
POLYLINE
  8
Default_Layer
 66
   1
 39
0.000000
 70
    1
  0
VERTEX
  8
0
 10
9.27811838
 20
6.97222222
  0
VERTEX
  8
0
 10
9.27811838
 20
8.13888889
  0
VERTEX
  8
0
 10
9.31316700
 20
8.14008889
  0
VERTEX
  8
0
 10
9.34708725
 20
8.13944270
  0
VERTEX
  8
0
 10
9.37987991
 20
8.13700981
  0
VERTEX
  8
0
 10
9.41154573
 20
8.13284969
  0
VERTEX
  8
0
 10
9.44208547
 20
8.12702183
  0
VERTEX
  8
0
 10
9.47149989
 20
8.11958574
  0
VERTEX
  8
0
 10
9.49978975
 20
8.11060088
  0
VERTEX
  8
0
 10
9.52695581
 20
8.10012675
  0
VERTEX
  8
0
 10
9.55299883
 20
8.08822283
  0
VERTEX
  8
0
 10
9.57791957
 20
8.07494861
  0
VERTEX
  8
0
 10
9.60171879
 20
8.06036358
  0
VERTEX
  8
0
 10
9.62439725
 20
8.04452722
  0
VERTEX
  8
0
 10
9.64595572
 20
8.02749903
  0
VERTEX
  8
0
 10
9.66639494
 20
8.00933848
  0
VERTEX
  8
0
 10
9.68571568
 20
7.99010507
  0
VERTEX
  8
0
 10
9.70391870
 20
7.96985828
  0
VERTEX
  8
0
 10
9.73697462
 20
7.92656252
  0
VERTEX
  8
0
 10
9.76556878
 20
7.87992708
  0
VERTEX
  8
0
 10
9.78970725
 20
7.83042787
  0
VERTEX
  8
0
 10
9.80939612
 20
7.77854078
  0
VERTEX
  8
0
 10
9.82464147
 20
7.72474170
  0
VERTEX
  8
0
 10
9.83544937
 20
7.66950653
  0
VERTEX
  8
0
 10
9.84182590
 20
7.61331117
  0
VERTEX
  8
0
 10
9.84377714
 20
7.55663150
  0
VERTEX
  8
0
 10
9.84130917
 20
7.49994343
  0
VERTEX
  8
0
 10
9.83442808
 20
7.44372285
  0
VERTEX
  8
0
 10
9.82313993
 20
7.38844565
  0
VERTEX
  8
0
 10
9.80745081
 20
7.33458773
  0
VERTEX
  8
0
 10
9.78736680
 20
7.28262499
  0
VERTEX
  8
0
 10
9.76289397
 20
7.23303331
  0
VERTEX
  8
0
 10
9.73403842
 20
7.18628860
  0
VERTEX
  8
0
 10
9.70080620
 20
7.14286675
  0
VERTEX
  8
0
 10
9.68255075
 20
7.12255061
  0
VERTEX
  8
0
 10
9.66320341
 20
7.10324365
  0
VERTEX
  8
0
 10
9.64276495
 20
7.08500535
  0
VERTEX
  8
0
 10
9.62123612
 20
7.06789520
  0
VERTEX
  8
0
 10
9.59861769
 20
7.05197268
  0
VERTEX
  8
0
 10
9.57491042
 20
7.03729729
  0
VERTEX
  8
0
 10
9.55011505
 20
7.02392850
  0
VERTEX
  8
0
 10
9.52423237
 20
7.01192582
  0
VERTEX
  8
0
 10
9.49726312
 20
7.00134871
  0
VERTEX
  8
0
 10
9.46920806
 20
6.99225668
  0
VERTEX
  8
0
 10
9.44006796
 20
6.98470921
  0
VERTEX
  8
0
 10
9.40984358
 20
6.97876577
  0
VERTEX
  8
0
 10
9.37853567
 20
6.97448587
  0
VERTEX
  8
0
 10
9.34614499
 20
6.97192899
  0
VERTEX
  8
0
 10
9.31267231
 20
6.97115461
  0
VERTEX
  8
0
 10
9.27811838
 20
6.97222222
  0
SEQEND
  0
POLYLINE
  8
Default_Layer
 66
   1
 39
0.000000
 70
    1
  0
VERTEX
  8
0
 10
3.00034060
 20
8.09722222
  0
VERTEX
  8
0
 10
3.02173350
 20
8.08766549
  0
VERTEX
  8
0
 10
3.04652833
 20
8.07438537
  0
VERTEX
  8
0
 10
3.10374075
 20
8.03835928
  0
VERTEX
  8
0
 10
3.16681171
 20
7.99255258
  0
VERTEX
  8
0
 10
3.23057506
 20
7.94037386
  0
VERTEX
  8
0
 10
3.28986466
 20
7.88523175
  0
VERTEX
  8
0
 10
3.31621738
 20
7.85761461
  0
VERTEX
  8
0
 10
3.33951436
 20
7.83053485
  0
VERTEX
  8
0
 10
3.35910983
 20
7.80441854
  0
VERTEX
  8
0
 10
3.37435802
 20
7.77969176
  0
VERTEX
  8
0
 10
3.38461316
 20
7.75678060
  0
VERTEX
  8
0
 10
3.38922949
 20
7.73611111
  0
VERTEX
  8
0
 10
3.38849167
 20
7.71537402
  0
VERTEX
  8
0
 10
3.38364882
 20
7.69111296
  0
VERTEX
  8
0
 10
3.37520484
 20
7.66380751
  0
VERTEX
  8
0
 10
3.36366364
 20
7.63393723
  0
VERTEX
  8
0
 10
3.33330521
 20
7.56842047
  0
VERTEX
  8
0
 10
3.29660474
 20
7.49839921
  0
VERTEX
  8
0
 10
3.22030266
 20
7.36018936
  0
VERTEX
  8
0
 10
3.18876351
 20
7.29967385
  0
VERTEX
  8
0
 10
3.17641058
 20
7.27324193
  0
VERTEX
  8
0
 10
3.16700727
 20
7.25000000
  0
VERTEX
  8
0
 10
3.15898293
 20
7.22445060
  0
VERTEX
  8
0
 10
3.15305282
 20
7.19937736
  0
VERTEX
  8
0
 10
3.14390388
 20
7.15041779
  0
VERTEX
  8
0
 10
3.13889938
 20
7.12641069
  0
VERTEX
  8
0
 10
3.13241775
 20
7.10263821
  0
VERTEX
  8
0
 10
3.12356614
 20
7.07903996
  0
VERTEX
  8
0
 10
3.11145172
 20
7.05555556
  0
VERTEX
  8
0
 10
3.09314904
 20
7.05294051
  0
VERTEX
  8
0
 10
3.07779578
 20
7.04740014
  0
VERTEX
  8
0
 10
3.06429977
 20
7.04002666
  0
VERTEX
  8
0
 10
3.05156881
 20
7.03191223
  0
VERTEX
  8
0
 10
3.03851071
 20
7.02414905
  0
VERTEX
  8
0
 10
3.02403328
 20
7.01782931
  0
VERTEX
  8
0
 10
3.00704435
 20
7.01404519
  0
VERTEX
  8
0
 10
2.98645172
 20
7.01388889
  0
VERTEX
  8
0
 10
2.99490045
 20
7.13819689
  0
VERTEX
  8
0
 10
2.99977686
 20
7.27587879
  0
VERTEX
  8
0
 10
3.00190817
 20
7.42183460
  0
VERTEX
  8
0
 10
3.00212158
 20
7.57096431
  0
VERTEX
  8
0
 10
3.00010360
 20
7.85834546
  0
VERTEX
  8
0
 10
2.99952662
 20
7.98639689
  0
VERTEX
  8
0
 10
3.00034060
 20
8.09722222
  0
SEQEND
  0
POLYLINE
  8
Default_Layer
 66
   1
 39
0.000000
 70
    1
  0
VERTEX
  8
0
 10
9.02811838
 20
8.08333333
  0
VERTEX
  8
0
 10
9.03650215
 20
8.02112784
  0
VERTEX
  8
0
 10
9.04286540
 20
7.95888986
  0
VERTEX
  8
0
 10
9.04742637
 20
7.89651875
  0
VERTEX
  8
0
 10
9.05040329
 20
7.83391384
  0
VERTEX
  8
0
 10
9.05247791
 20
7.70759997
  0
VERTEX
  8
0
 10
9.05083513
 20
7.57914296
  0
VERTEX
  8
0
 10
9.04338081
 20
7.31257838
  0
VERTEX
  8
0
 10
9.04106101
 20
7.17286023
  0
VERTEX
  8
0
 10
9.04200727
 20
7.02777778
  0
VERTEX
  8
0
 10
9.02525538
 20
7.03359391
  0
VERTEX
  8
0
 10
9.00965896
 20
7.04056607
  0
VERTEX
  8
0
 10
8.98026551
 20
7.05631119
  0
VERTEX
  8
0
 10
8.95049294
 20
7.07167849
  0
VERTEX
  8
0
 10
8.93442262
 20
7.07817838
  0
VERTEX
  8
0
 10
8.91700727
 20
7.08333333
  0
VERTEX
  8
0
 10
8.90661889
 20
7.13457646
  0
VERTEX
  8
0
 10
8.89425102
 20
7.18384012
  0
VERTEX
  8
0
 10
8.88010382
 20
7.23132446
  0
VERTEX
  8
0
 10
8.86437745
 20
7.27722966
  0
VERTEX
  8
0
 10
8.84727205
 20
7.32175587
  0
VERTEX
  8
0
 10
8.82898777
 20
7.36510326
  0
VERTEX
  8
0
 10
8.78968322
 20
7.44906223
  0
VERTEX
  8
0
 10
8.74806500
 20
7.53070786
  0
VERTEX
  8
0
 10
8.70573435
 20
7.61164146
  0
VERTEX
  8
0
 10
8.66429247
 20
7.69346433
  0
VERTEX
  8
0
 10
8.62534060
 20
7.77777778
  0
VERTEX
  8
0
 10
8.65645140
 20
7.81429092
  0
VERTEX
  8
0
 10
8.68916204
 20
7.84922833
  0
VERTEX
  8
0
 10
8.75725474
 20
7.91650407
  0
VERTEX
  8
0
 10
8.82536260
 20
7.98386110
  0
VERTEX
  8
0
 10
8.85809218
 20
8.01890014
  0
VERTEX
  8
0
 10
8.88922949
 20
8.05555556
  0
VERTEX
  8
0
 10
8.89716362
 20
8.04649740
  0
VERTEX
  8
0
 10
8.90560995
 20
8.03967827
  0
VERTEX
  8
0
 10
8.91448005
 20
8.03492678
  0
VERTEX
  8
0
 10
8.92368550
 20
8.03207154
  0
VERTEX
  8
0
 10
8.93313785
 20
8.03094118
  0
VERTEX
  8
0
 10
8.94274869
 20
8.03136430
  0
VERTEX
  8
0
 10
8.96209207
 20
8.03618549
  0
VERTEX
  8
0
 10
8.98100818
 20
8.04516405
  0
VERTEX
  8
0
 10
8.99878958
 20
8.05692892
  0
VERTEX
  8
0
 10
9.01472879
 20
8.07010903
  0
VERTEX
  8
0
 10
9.02811838
 20
8.08333333
  0
SEQEND
  0
POLYLINE
  8
Default_Layer
 66
   1
 39
0.000000
 70
    1
  0
VERTEX
  8
0
 10
7.09756283
 20
7.84722222
  0
VERTEX
  8
0
 10
7.09584735
 20
7.80197631
  0
VERTEX
  8
0
 10
7.09622250
 20
7.75466495
  0
VERTEX
  8
0
 10
7.09905162
 20
7.65803792
  0
VERTEX
  8
0
 10
7.09940908
 20
7.61081830
  0
VERTEX
  8
0
 10
7.09766412
 20
7.56572527
  0
VERTEX
  8
0
 10
7.09276849
 20
7.52380688
  0
VERTEX
  8
0
 10
7.08367394
 20
7.48611111
  0
VERTEX
  8
0
 10
7.03535207
 20
7.48813561
  0
VERTEX
  8
0
 10
6.98421918
 20
7.48734917
  0
VERTEX
  8
0
 10
6.87996915
 20
7.48379261
  0
VERTEX
  8
0
 10
6.83007644
 20
7.48424707
  0
VERTEX
  8
0
 10
6.78382152
 20
7.48833975
  0
VERTEX
  8
0
 10
6.76256206
 20
7.49225426
  0
VERTEX
  8
0
 10
6.74281662
 20
7.49768292
  0
VERTEX
  8
0
 10
6.72478674
 20
7.50482729
  0
VERTEX
  8
0
 10
6.70867394
 20
7.51388889
  0
VERTEX
  8
0
 10
6.71416294
 20
7.55002142
  0
VERTEX
  8
0
 10
6.72312893
 20
7.58268312
  0
VERTEX
  8
0
 10
6.73516605
 20
7.61227982
  0
VERTEX
  8
0
 10
6.74986844
 20
7.63921735
  0
VERTEX
  8
0
 10
6.76683022
 20
7.66390156
  0
VERTEX
  8
0
 10
6.78564553
 20
7.68673829
  0
VERTEX
  8
0
 10
6.80590849
 20
7.70813336
  0
VERTEX
  8
0
 10
6.82721325
 20
7.72849261
  0
VERTEX
  8
0
 10
6.87132467
 20
7.76772703
  0
VERTEX
  8
0
 10
6.91473285
 20
7.80768823
  0
VERTEX
  8
0
 10
6.93515855
 20
7.82895597
  0
VERTEX
  8
0
 10
6.95419084
 20
7.85162292
  0
VERTEX
  8
0
 10
6.97142385
 20
7.87609491
  0
VERTEX
  8
0
 10
6.98645172
 20
7.90277778
  0
VERTEX
  8
0
 10
7.00641492
 20
7.90190765
  0
VERTEX
  8
0
 10
7.02286529
 20
7.89752469
  0
VERTEX
  8
0
 10
7.03669149
 20
7.89051756
  0
VERTEX
  8
0
 10
7.04878217
 20
7.88177490
  0
VERTEX
  8
0
 10
7.07131160
 20
7.86263767
  0
VERTEX
  8
0
 10
7.08352766
 20
7.85402039
  0
VERTEX
  8
0
 10
7.09756283
 20
7.84722222
  0
SEQEND
  0
POLYLINE
  8
Default_Layer
 66
   1
 39
0.000000
 70
    1
  0
VERTEX
  8
0
 10
5.33367394
 20
7.50000000
  0
VERTEX
  8
0
 10
5.29358852
 20
7.49138906
  0
VERTEX
  8
0
 10
5.24973265
 20
7.48657276
  0
VERTEX
  8
0
 10
5.20302163
 20
7.48463590
  0
VERTEX
  8
0
 10
5.15437072
 20
7.48466327
  0
VERTEX
  8
0
 10
5.05491039
 20
7.48694993
  0
VERTEX
  8
0
 10
5.00593154
 20
7.48737880
  0
VERTEX
  8
0
 10
4.95867394
 20
7.48611111
  0
VERTEX
  8
0
 10
4.95867394
 20
7.83333333
  0
VERTEX
  8
0
 10
4.97088089
 20
7.83666727
  0
VERTEX
  8
0
 10
4.98102946
 20
7.84208411
  0
VERTEX
  8
0
 10
4.99824520
 20
7.85607178
  0
VERTEX
  8
0
 10
5.00685923
 20
7.86309525
  0
VERTEX
  8
0
 10
5.01650863
 20
7.86910689
  0
VERTEX
  8
0
 10
5.02796683
 20
7.87333304
  0
VERTEX
  8
0
 10
5.04200727
 20
7.87500000
  0
VERTEX
  8
0
 10
5.06051432
 20
7.85184039
  0
VERTEX
  8
0
 10
5.08079121
 20
7.83045060
  0
VERTEX
  8
0
 10
5.10245073
 20
7.81044346
  0
VERTEX
  8
0
 10
5.12510570
 20
7.79143176
  0
VERTEX
  8
0
 10
5.17185325
 20
7.75484598
  0
VERTEX
  8
0
 10
5.21793634
 20
7.71759574
  0
VERTEX
  8
0
 10
5.23976074
 20
7.69775347
  0
VERTEX
  8
0
 10
5.26025747
 20
7.67658353
  0
VERTEX
  8
0
 10
5.27903932
 20
7.65369871
  0
VERTEX
  8
0
 10
5.29571911
 20
7.62871184
  0
VERTEX
  8
0
 10
5.30990966
 20
7.60123572
  0
VERTEX
  8
0
 10
5.32122377
 20
7.57088317
  0
VERTEX
  8
0
 10
5.32927426
 20
7.53726699
  0
VERTEX
  8
0
 10
5.33367394
 20
7.50000000
  0
SEQEND
  0
POLYLINE
  8
Default_Layer
 66
   1
 39
0.000000
 70
    1
  0
VERTEX
  8
0
 10
7.56978505
 20
7.73611111
  0
VERTEX
  8
0
 10
7.56936054
 20
7.67042002
  0
VERTEX
  8
0
 10
7.57061290
 20
7.60314591
  0
VERTEX
  8
0
 10
7.57012947
 20
7.57065448
  0
VERTEX
  8
0
 10
7.56797912
 20
7.53985440
  0
VERTEX
  8
0
 10
7.56346647
 20
7.51144137
  0
VERTEX
  8
0
 10
7.55589616
 20
7.48611111
  0
VERTEX
  8
0
 10
7.49020507
 20
7.48639387
  0
VERTEX
  8
0
 10
7.42293096
 20
7.48509296
  0
VERTEX
  8
0
 10
7.39043953
 20
7.48558768
  0
VERTEX
  8
0
 10
7.35963945
 20
7.48777334
  0
VERTEX
  8
0
 10
7.33122642
 20
7.49234558
  0
VERTEX
  8
0
 10
7.30589616
 20
7.50000000
  0
VERTEX
  8
0
 10
7.29700747
 20
7.54306414
  0
VERTEX
  8
0
 10
7.29252626
 20
7.58226535
  0
VERTEX
  8
0
 10
7.29223325
 20
7.61762264
  0
VERTEX
  8
0
 10
7.29590920
 20
7.64915498
  0
VERTEX
  8
0
 10
7.30333481
 20
7.67688139
  0
VERTEX
  8
0
 10
7.31429084
 20
7.70082083
  0
VERTEX
  8
0
 10
7.32855802
 20
7.72099232
  0
VERTEX
  8
0
 10
7.34591707
 20
7.73741483
  0
VERTEX
  8
0
 10
7.36614873
 20
7.75010737
  0
VERTEX
  8
0
 10
7.38903374
 20
7.75908893
  0
VERTEX
  8
0
 10
7.41435282
 20
7.76437849
  0
VERTEX
  8
0
 10
7.44188671
 20
7.76599504
  0
VERTEX
  8
0
 10
7.47141615
 20
7.76395759
  0
VERTEX
  8
0
 10
7.50272186
 20
7.75828513
  0
VERTEX
  8
0
 10
7.53558458
 20
7.74899664
  0
VERTEX
  8
0
 10
7.56978505
 20
7.73611111
  0
SEQEND
  0
POLYLINE
  8
Default_Layer
 66
   1
 39
0.000000
 70
    1
  0
VERTEX
  8
0
 10
4.73645172
 20
7.73611111
  0
VERTEX
  8
0
 10
4.73645172
 20
7.50000000
  0
VERTEX
  8
0
 10
4.48645172
 20
7.50000000
  0
VERTEX
  8
0
 10
4.47618547
 20
7.53129468
  0
VERTEX
  8
0
 10
4.46939102
 20
7.56115672
  0
VERTEX
  8
0
 10
4.46606415
 20
7.58942060
  0
VERTEX
  8
0
 10
4.46620067
 20
7.61592080
  0
VERTEX
  8
0
 10
4.46979635
 20
7.64049183
  0
VERTEX
  8
0
 10
4.47684701
 20
7.66296817
  0
VERTEX
  8
0
 10
4.48734843
 20
7.68318431
  0
VERTEX
  8
0
 10
4.50129641
 20
7.70097473
  0
VERTEX
  8
0
 10
4.51868674
 20
7.71617393
  0
VERTEX
  8
0
 10
4.53951522
 20
7.72861639
  0
VERTEX
  8
0
 10
4.56377765
 20
7.73813661
  0
VERTEX
  8
0
 10
4.59146981
 20
7.74456907
  0
VERTEX
  8
0
 10
4.62258750
 20
7.74774826
  0
VERTEX
  8
0
 10
4.65712652
 20
7.74750867
  0
VERTEX
  8
0
 10
4.69508266
 20
7.74368479
  0
VERTEX
  8
0
 10
4.73645172
 20
7.73611111
  0
SEQEND
  0
POLYLINE
  8
Default_Layer
 66
   1
 39
0.000000
 70
    1
  0
VERTEX
  8
0
 10
8.11145172
 20
6.43055556
  0
VERTEX
  8
0
 10
8.07222627
 20
6.43994087
  0
VERTEX
  8
0
 10
8.03474241
 20
6.45106790
  0
VERTEX
  8
0
 10
7.99905322
 20
6.46398973
  0
VERTEX
  8
0
 10
7.96521178
 20
6.47875941
  0
VERTEX
  8
0
 10
7.93327118
 20
6.49543002
  0
VERTEX
  8
0
 10
7.90328451
 20
6.51405461
  0
VERTEX
  8
0
 10
7.87530486
 20
6.53468626
  0
VERTEX
  8
0
 10
7.84938530
 20
6.55737803
  0
VERTEX
  8
0
 10
7.82557893
 20
6.58218298
  0
VERTEX
  8
0
 10
7.80393883
 20
6.60915419
  0
VERTEX
  8
0
 10
7.78451810
 20
6.63834472
  0
VERTEX
  8
0
 10
7.76736981
 20
6.66980763
  0
VERTEX
  8
0
 10
7.75254705
 20
6.70359599
  0
VERTEX
  8
0
 10
7.74010291
 20
6.73976287
  0
VERTEX
  8
0
 10
7.73009047
 20
6.77836133
  0
VERTEX
  8
0
 10
7.72256283
 20
6.81944444
  0
VERTEX
  8
0
 10
7.76334645
 20
6.87062863
  0
VERTEX
  8
0
 10
7.80533743
 20
6.92061152
  0
VERTEX
  8
0
 10
7.89230507
 20
7.01760982
  0
VERTEX
  8
0
 10
7.98219311
 20
7.11171218
  0
VERTEX
  8
0
 10
8.07372888
 20
7.20419140
  0
VERTEX
  8
0
 10
8.16563972
 20
7.29632030
  0
VERTEX
  8
0
 10
8.25665299
 20
7.38937172
  0
VERTEX
  8
0
 10
8.34549602
 20
7.48461845
  0
VERTEX
  8
0
 10
8.38870599
 20
7.53346282
  0
VERTEX
  8
0
 10
8.43089616
 20
7.58333333
  0
VERTEX
  8
0
 10
8.44779001
 20
7.57120205
  0
VERTEX
  8
0
 10
8.46410146
 20
7.55582929
  0
VERTEX
  8
0
 10
8.47986946
 20
7.53746261
  0
VERTEX
  8
0
 10
8.49513296
 20
7.51634956
  0
VERTEX
  8
0
 10
8.50993089
 20
7.49273771
  0
VERTEX
  8
0
 10
8.52430220
 20
7.46687462
  0
VERTEX
  8
0
 10
8.55192072
 20
7.40938497
  0
VERTEX
  8
0
 10
8.57830005
 20
7.34586109
  0
VERTEX
  8
0
 10
8.60375175
 20
7.27828346
  0
VERTEX
  8
0
 10
8.65311838
 20
7.13888889
  0
VERTEX
  8
0
 10
8.67810453
 20
7.07105775
  0
VERTEX
  8
0
 10
8.70341343
 20
7.00568105
  0
VERTEX
  8
0
 10
8.72754639
 20
6.94278919
  0
VERTEX
  8
0
 10
8.74900474
 20
6.88241258
  0
VERTEX
  8
0
 10
8.76628980
 20
6.82458162
  0
VERTEX
  8
0
 10
8.77790288
 20
6.76932671
  0
VERTEX
  8
0
 10
8.78111409
 20
6.74267477
  0
VERTEX
  8
0
 10
8.78234530
 20
6.71667826
  0
VERTEX
  8
0
 10
8.78140918
 20
6.69134095
  0
VERTEX
  8
0
 10
8.77811838
 20
6.66666667
  0
VERTEX
  8
0
 10
8.77281691
 20
6.64879428
  0
VERTEX
  8
0
 10
8.76370127
 20
6.63008064
  0
VERTEX
  8
0
 10
8.75116983
 20
6.61084463
  0
VERTEX
  8
0
 10
8.73562094
 20
6.59140514
  0
VERTEX
  8
0
 10
8.71745295
 20
6.57208104
  0
VERTEX
  8
0
 10
8.69706421
 20
6.55319123
  0
VERTEX
  8
0
 10
8.67485309
 20
6.53505459
  0
VERTEX
  8
0
 10
8.65121794
 20
6.51799001
  0
VERTEX
  8
0
 10
8.62655710
 20
6.50231636
  0
VERTEX
  8
0
 10
8.60126894
 20
6.48835253
  0
VERTEX
  8
0
 10
8.57575181
 20
6.47641741
  0
VERTEX
  8
0
 10
8.55040405
 20
6.46682988
  0
VERTEX
  8
0
 10
8.52562403
 20
6.45990882
  0
VERTEX
  8
0
 10
8.50181011
 20
6.45597312
  0
VERTEX
  8
0
 10
8.47936062
 20
6.45534166
  0
VERTEX
  8
0
 10
8.45867394
 20
6.45833333
  0
VERTEX
  8
0
 10
8.44238799
 20
6.46421033
  0
VERTEX
  8
0
 10
8.42751991
 20
6.47312009
  0
VERTEX
  8
0
 10
8.41383435
 20
6.48459205
  0
VERTEX
  8
0
 10
8.40109598
 20
6.49815564
  0
VERTEX
  8
0
 10
8.37751943
 20
6.52967541
  0
VERTEX
  8
0
 10
8.35490752
 20
6.56391483
  0
VERTEX
  8
0
 10
8.33137753
 20
6.59710935
  0
VERTEX
  8
0
 10
8.31867990
 20
6.61213834
  0
VERTEX
  8
0
 10
8.30504672
 20
6.62549439
  0
VERTEX
  8
0
 10
8.29024265
 20
6.63670693
  0
VERTEX
  8
0
 10
8.27403236
 20
6.64530539
  0
VERTEX
  8
0
 10
8.25618049
 20
6.65081920
  0
VERTEX
  8
0
 10
8.23645172
 20
6.65277778
  0
VERTEX
  8
0
 10
8.21865921
 20
6.65163467
  0
VERTEX
  8
0
 10
8.20149669
 20
6.64832087
  0
VERTEX
  8
0
 10
8.18511430
 20
6.64293738
  0
VERTEX
  8
0
 10
8.16966219
 20
6.63558517
  0
VERTEX
  8
0
 10
8.15529050
 20
6.62636522
  0
VERTEX
  8
0
 10
8.14214938
 20
6.61537852
  0
VERTEX
  8
0
 10
8.13038897
 20
6.60272604
  0
VERTEX
  8
0
 10
8.12015943
 20
6.58850876
  0
VERTEX
  8
0
 10
8.11161090
 20
6.57282766
  0
VERTEX
  8
0
 10
8.10489352
 20
6.55578374
  0
VERTEX
  8
0
 10
8.10015744
 20
6.53747795
  0
VERTEX
  8
0
 10
8.09755282
 20
6.51801130
  0
VERTEX
  8
0
 10
8.09722978
 20
6.49748475
  0
VERTEX
  8
0
 10
8.09933849
 20
6.47599929
  0
VERTEX
  8
0
 10
8.10402909
 20
6.45365590
  0
VERTEX
  8
0
 10
8.11145172
 20
6.43055556
  0
SEQEND
  0
POLYLINE
  8
Default_Layer
 66
   1
 39
0.000000
 70
    1
  0
VERTEX
  8
0
 10
5.31978505
 20
7.25000000
  0
VERTEX
  8
0
 10
5.32881865
 20
7.21563026
  0
VERTEX
  8
0
 10
5.33369984
 20
7.17710859
  0
VERTEX
  8
0
 10
5.33546233
 20
7.13546854
  0
VERTEX
  8
0
 10
5.33513981
 20
7.09174365
  0
VERTEX
  8
0
 10
5.33237462
 20
7.00217356
  0
VERTEX
  8
0
 10
5.33199936
 20
6.95839544
  0
VERTEX
  8
0
 10
5.33367394
 20
6.91666667
  0
VERTEX
  8
0
 10
4.95867394
 20
6.91666667
  0
VERTEX
  8
0
 10
4.96053197
 20
6.95812759
  0
VERTEX
  8
0
 10
4.96009459
 20
7.00190754
  0
VERTEX
  8
0
 10
4.95685474
 20
7.09190407
  0
VERTEX
  8
0
 10
4.95631286
 20
7.13586038
  0
VERTEX
  8
0
 10
4.95799672
 20
7.17761523
  0
VERTEX
  8
0
 10
4.96303661
 20
7.21603848
  0
VERTEX
  8
0
 10
4.96716828
 20
7.23364759
  0
VERTEX
  8
0
 10
4.97256283
 20
7.25000000
  0
VERTEX
  8
0
 10
5.01853679
 20
7.25650139
  0
VERTEX
  8
0
 10
5.06521115
 20
7.26057922
  0
VERTEX
  8
0
 10
5.11186840
 20
7.26251651
  0
VERTEX
  8
0
 10
5.15779103
 20
7.26259626
  0
VERTEX
  8
0
 10
5.24456236
 20
7.25831516
  0
VERTEX
  8
0
 10
5.31978505
 20
7.25000000
  0
SEQEND
  0
POLYLINE
  8
Default_Layer
 66
   1
 39
0.000000
 70
    1
  0
VERTEX
  8
0
 10
5.88922949
 20
7.26388889
  0
VERTEX
  8
0
 10
5.89832434
 20
7.22610873
  0
VERTEX
  8
0
 10
5.90322065
 20
7.18413005
  0
VERTEX
  8
0
 10
5.90496646
 20
7.13900086
  0
VERTEX
  8
0
 10
5.90460978
 20
7.09176917
  0
VERTEX
  8
0
 10
5.90178098
 20
6.99519038
  0
VERTEX
  8
0
 10
5.90140490
 20
6.94793930
  0
VERTEX
  8
0
 10
5.90311838
 20
6.90277778
  0
VERTEX
  8
0
 10
5.86874864
 20
6.89365978
  0
VERTEX
  8
0
 10
5.83022697
 20
6.88871831
  0
VERTEX
  8
0
 10
5.78858692
 20
6.88691966
  0
VERTEX
  8
0
 10
5.74486204
 20
6.88723011
  0
VERTEX
  8
0
 10
5.65529194
 20
6.89004353
  0
VERTEX
  8
0
 10
5.61151382
 20
6.89047907
  0
VERTEX
  8
0
 10
5.56978505
 20
6.88888889
  0
VERTEX
  8
0
 10
5.56978505
 20
7.25000000
  0
VERTEX
  8
0
 10
5.60237063
 20
7.25899669
  0
VERTEX
  8
0
 10
5.63910501
 20
7.26386870
  0
VERTEX
  8
0
 10
5.67896306
 20
7.26564114
  0
VERTEX
  8
0
 10
5.72091967
 20
7.26533914
  0
VERTEX
  8
0
 10
5.80702814
 20
7.26261223
  0
VERTEX
  8
0
 10
5.84912976
 20
7.26223756
  0
VERTEX
  8
0
 10
5.88922949
 20
7.26388889
  0
SEQEND
  0
POLYLINE
  8
Default_Layer
 66
   1
 39
0.000000
 70
    1
  0
VERTEX
  8
0
 10
5.81978505
 20
6.63888889
  0
VERTEX
  8
0
 10
5.79646039
 20
6.60136584
  0
VERTEX
  8
0
 10
5.77110221
 20
6.56589993
  0
VERTEX
  8
0
 10
5.74409111
 20
6.53211072
  0
VERTEX
  8
0
 10
5.71580770
 20
6.49961779
  0
VERTEX
  8
0
 10
5.65694630
 20
6.43699897
  0
VERTEX
  8
0
 10
5.59756283
 20
6.37500000
  0
VERTEX
  8
0
 10
5.58810247
 20
6.38376881
  0
VERTEX
  8
0
 10
5.58069805
 20
6.39459356
  0
VERTEX
  8
0
 10
5.57512970
 20
6.40725437
  0
VERTEX
  8
0
 10
5.57117755
 20
6.42153139
  0
VERTEX
  8
0
 10
5.56724242
 20
6.45405460
  0
VERTEX
  8
0
 10
5.56713374
 20
6.49040424
  0
VERTEX
  8
0
 10
5.57136002
 20
6.56754719
  0
VERTEX
  8
0
 10
5.57217715
 20
6.60482266
  0
VERTEX
  8
0
 10
5.56978505
 20
6.63888889
  0
VERTEX
  8
0
 10
5.59413846
 20
6.64620763
  0
VERTEX
  8
0
 10
5.62437912
 20
6.65143530
  0
VERTEX
  8
0
 10
5.65854863
 20
6.65457190
  0
VERTEX
  8
0
 10
5.69468860
 20
6.65561744
  0
VERTEX
  8
0
 10
5.73084062
 20
6.65457190
  0
VERTEX
  8
0
 10
5.76504630
 20
6.65143530
  0
VERTEX
  8
0
 10
5.79534725
 20
6.64620763
  0
VERTEX
  8
0
 10
5.81978505
 20
6.63888889
  0
SEQEND
  0
POLYLINE
  8
Default_Layer
 66
   1
 39
0.000000
 70
    1
  0
VERTEX
  8
0
 10
6.48645172
 20
6.62500000
  0
VERTEX
  8
0
 10
6.48487534
 20
6.59176805
  0
VERTEX
  8
0
 10
6.48557133
 20
6.55628801
  0
VERTEX
  8
0
 10
6.48815231
 20
6.48421240
  0
VERTEX
  8
0
 10
6.48722329
 20
6.45043118
  0
VERTEX
  8
0
 10
6.48293856
 20
6.42003059
  0
VERTEX
  8
0
 10
6.47909811
 20
6.40653777
  0
VERTEX
  8
0
 10
6.47389111
 20
6.39441780
  0
VERTEX
  8
0
 10
6.46714168
 20
6.38384658
  0
VERTEX
  8
0
 10
6.45867394
 20
6.37500000
  0
VERTEX
  8
0
 10
6.39774324
 20
6.43559741
  0
VERTEX
  8
0
 10
6.33668877
 20
6.49607299
  0
VERTEX
  8
0
 10
6.30785287
 20
6.52800184
  0
VERTEX
  8
0
 10
6.28107133
 20
6.56198430
  0
VERTEX
  8
0
 10
6.25703924
 20
6.59871509
  0
VERTEX
  8
0
 10
6.23645172
 20
6.63888889
  0
VERTEX
  8
0
 10
6.25053624
 20
6.64477772
  0
VERTEX
  8
0
 10
6.26535746
 20
6.64913875
  0
VERTEX
  8
0
 10
6.29675457
 20
6.65381477
  0
VERTEX
  8
0
 10
6.32973226
 20
6.65399158
  0
VERTEX
  8
0
 10
6.36337974
 20
6.65074383
  0
VERTEX
  8
0
 10
6.39678622
 20
6.64514615
  0
VERTEX
  8
0
 10
6.42904090
 20
6.63827319
  0
VERTEX
  8
0
 10
6.48645172
 20
6.62500000
  0
SEQEND
  0
POLYLINE
  8
Default_Layer
 66
   1
 39
0.000000
 70
    1
  0
VERTEX
  8
0
 10
5.58367394
 20
6.00000000
  0
VERTEX
  8
0
 10
5.60400799
 20
5.98995247
  0
VERTEX
  8
0
 10
5.62274559
 20
5.97830833
  0
VERTEX
  8
0
 10
5.64011907
 20
5.96529996
  0
VERTEX
  8
0
 10
5.65636080
 20
5.95115974
  0
VERTEX
  8
0
 10
5.68637844
 20
5.92041324
  0
VERTEX
  8
0
 10
5.71465735
 20
5.88792785
  0
VERTEX
  8
0
 10
5.74305639
 20
5.85556260
  0
VERTEX
  8
0
 10
5.77343441
 20
5.82517649
  0
VERTEX
  8
0
 10
5.78994643
 20
5.81130656
  0
VERTEX
  8
0
 10
5.80765027
 20
5.79862854
  0
VERTEX
  8
0
 10
5.82677829
 20
5.78737482
  0
VERTEX
  8
0
 10
5.84756283
 20
5.77777778
  0
VERTEX
  8
0
 10
5.84115754
 20
5.76417301
  0
VERTEX
  8
0
 10
5.83186959
 20
5.75345692
  0
VERTEX
  8
0
 10
5.82000367
 20
5.74532481
  0
VERTEX
  8
0
 10
5.80586447
 20
5.73947198
  0
VERTEX
  8
0
 10
5.78975667
 20
5.73559372
  0
VERTEX
  8
0
 10
5.77198498
 20
5.73338535
  0
VERTEX
  8
0
 10
5.73266863
 20
5.73275945
  0
VERTEX
  8
0
 10
5.64747545
 20
5.73813942
  0
VERTEX
  8
0
 10
5.60647364
 20
5.73927010
  0
VERTEX
  8
0
 10
5.58743785
 20
5.73837917
  0
VERTEX
  8
0
 10
5.56978505
 20
5.73611111
  0
VERTEX
  8
0
 10
5.57122518
 20
5.76930995
  0
VERTEX
  8
0
 10
5.57079164
 20
5.80440559
  0
VERTEX
  8
0
 10
5.56822002
 20
5.87637213
  0
VERTEX
  8
0
 10
5.56804018
 20
5.91128543
  0
VERTEX
  8
0
 10
5.56990314
 20
5.94418037
  0
VERTEX
  8
0
 10
5.57478802
 20
5.97407816
  0
VERTEX
  8
0
 10
5.58367394
 20
6.00000000
  0
SEQEND
  0
POLYLINE
  8
Default_Layer
 66
   1
 39
0.000000
 70
    1
  0
VERTEX
  8
0
 10
6.48645172
 20
5.97222222
  0
VERTEX
  8
0
 10
6.48056740
 20
5.94677214
  0
VERTEX
  8
0
 10
6.47647135
 20
5.91955791
  0
VERTEX
  8
0
 10
6.47243790
 20
5.86104313
  0
VERTEX
  8
0
 10
6.47193914
 20
5.79909012
  0
VERTEX
  8
0
 10
6.47256283
 20
5.73611111
  0
VERTEX
  8
0
 10
6.44949454
 20
5.72966012
  0
VERTEX
  8
0
 10
6.42088930
 20
5.72616790
  0
VERTEX
  8
0
 10
6.38809875
 20
5.72532464
  0
VERTEX
  8
0
 10
6.35247454
 20
5.72682056
  0
VERTEX
  8
0
 10
6.31536831
 20
5.73034586
  0
VERTEX
  8
0
 10
6.27813170
 20
5.73559073
  0
VERTEX
  8
0
 10
6.24211636
 20
5.74224537
  0
VERTEX
  8
0
 10
6.20867394
 20
5.75000000
  0
VERTEX
  8
0
 10
6.22491934
 20
5.76405863
  0
VERTEX
  8
0
 10
6.24108717
 20
5.78067595
  0
VERTEX
  8
0
 10
6.27338407
 20
5.81937410
  0
VERTEX
  8
0
 10
6.30595266
 20
5.86166934
  0
VERTEX
  8
0
 10
6.33918096
 20
5.90313654
  0
VERTEX
  8
0
 10
6.35616376
 20
5.92217676
  0
VERTEX
  8
0
 10
6.37345700
 20
5.93935055
  0
VERTEX
  8
0
 10
6.39110917
 20
5.95410476
  0
VERTEX
  8
0
 10
6.40916879
 20
5.96588626
  0
VERTEX
  8
0
 10
6.42768435
 20
5.97414189
  0
VERTEX
  8
0
 10
6.44670435
 20
5.97831852
  0
VERTEX
  8
0
 10
6.46627731
 20
5.97786301
  0
VERTEX
  8
0
 10
6.48645172
 20
5.97222222
  0
SEQEND
  0
POLYLINE
  8
Default_Layer
 66
   1
 39
0.000000
 70
    1
  0
VERTEX
  8
0
 10
5.88922949
 20
5.50000000
  0
VERTEX
  8
0
 10
5.89829460
 20
5.46392679
  0
VERTEX
  8
0
 10
5.90318354
 20
5.42367692
  0
VERTEX
  8
0
 10
5.90493741
 20
5.38029166
  0
VERTEX
  8
0
 10
5.90459728
 20
5.33481223
  0
VERTEX
  8
0
 10
5.90179934
 20
5.24173587
  0
VERTEX
  8
0
 10
5.90142370
 20
5.19622142
  0
VERTEX
  8
0
 10
5.90311838
 20
5.15277778
  0
VERTEX
  8
0
 10
5.86874864
 20
5.14366177
  0
VERTEX
  8
0
 10
5.83022697
 20
5.13872124
  0
VERTEX
  8
0
 10
5.78858692
 20
5.13692271
  0
VERTEX
  8
0
 10
5.74486204
 20
5.13723272
  0
VERTEX
  8
0
 10
5.65529194
 20
5.14004450
  0
VERTEX
  8
0
 10
5.61151382
 20
5.14047935
  0
VERTEX
  8
0
 10
5.56978505
 20
5.13888889
  0
VERTEX
  8
0
 10
5.56978505
 20
5.48611111
  0
VERTEX
  8
0
 10
5.60237063
 20
5.49510752
  0
VERTEX
  8
0
 10
5.63910501
 20
5.49997883
  0
VERTEX
  8
0
 10
5.67896306
 20
5.50175042
  0
VERTEX
  8
0
 10
5.72091967
 20
5.50144765
  0
VERTEX
  8
0
 10
5.80702814
 20
5.49872041
  0
VERTEX
  8
0
 10
5.84912976
 20
5.49834668
  0
VERTEX
  8
0
 10
5.88922949
 20
5.50000000
  0
SEQEND
  0
POLYLINE
  8
Default_Layer
 66
   1
 39
0.000000
 70
    1
  0
VERTEX
  8
0
 10
6.47256283
 20
5.50000000
  0
VERTEX
  8
0
 10
6.47256283
 20
5.12500000
  0
VERTEX
  8
0
 10
6.43246509
 20
5.12656893
  0
VERTEX
  8
0
 10
6.39036440
 20
5.12613491
  0
VERTEX
  8
0
 10
6.30425561
 20
5.12335945
  0
VERTEX
  8
0
 10
6.26229822
 20
5.12306873
  0
VERTEX
  8
0
 10
6.22243932
 20
5.12487649
  0
VERTEX
  8
0
 10
6.18570425
 20
5.12980809
  0
VERTEX
  8
0
 10
6.15311838
 20
5.13888889
  0
VERTEX
  8
0
 10
6.15474946
 20
5.18404841
  0
VERTEX
  8
0
 10
6.15431403
 20
5.23129856
  0
VERTEX
  8
0
 10
6.15143669
 20
5.32787768
  0
VERTEX
  8
0
 10
6.15109129
 20
5.37511014
  0
VERTEX
  8
0
 10
6.15287241
 20
5.42024018
  0
VERTEX
  8
0
 10
6.15782832
 20
5.46221956
  0
VERTEX
  8
0
 10
6.16700727
 20
5.50000000
  0
VERTEX
  8
0
 10
6.47256283
 20
5.50000000
  0
SEQEND
  0
POLYLINE
  8
Default_Layer
 66
   1
 39
0.000000
 70
    1
  0
VERTEX
  8
0
 10
5.88922949
 20
4.90277778
  0
VERTEX
  8
0
 10
5.89944565
 20
4.84342920
  0
VERTEX
  8
0
 10
5.90552033
 20
4.77953072
  0
VERTEX
  8
0
 10
5.90682474
 20
4.71389915
  0
VERTEX
  8
0
 10
5.90273009
 20
4.64935129
  0
VERTEX
  8
0
 10
5.89846162
 20
4.61836401
  0
VERTEX
  8
0
 10
5.89260759
 20
4.58870397
  0
VERTEX
  8
0
 10
5.88508940
 20
4.56072326
  0
VERTEX
  8
0
 10
5.87582844
 20
4.53477399
  0
VERTEX
  8
0
 10
5.86474613
 20
4.51120827
  0
VERTEX
  8
0
 10
5.85176386
 20
4.49037818
  0
VERTEX
  8
0
 10
5.83680303
 20
4.47263583
  0
VERTEX
  8
0
 10
5.81978505
 20
4.45833333
  0
VERTEX
  8
0
 10
5.83187769
 20
4.43713887
  0
VERTEX
  8
0
 10
5.83983338
 20
4.41634207
  0
VERTEX
  8
0
 10
5.84416829
 20
4.39581842
  0
VERTEX
  8
0
 10
5.84539863
 20
4.37544344
  0
VERTEX
  8
0
 10
5.84404056
 20
4.35509262
  0
VERTEX
  8
0
 10
5.84061028
 20
4.33464147
  0
VERTEX
  8
0
 10
5.82959780
 20
4.29294018
  0
VERTEX
  8
0
 10
5.81649067
 20
4.24934359
  0
VERTEX
  8
0
 10
5.80541837
 20
4.20285572
  0
VERTEX
  8
0
 10
5.80193575
 20
4.17821631
  0
VERTEX
  8
0
 10
5.80051038
 20
4.15248059
  0
VERTEX
  8
0
 10
5.80165845
 20
4.12552406
  0
VERTEX
  8
0
 10
5.80589616
 20
4.09722222
  0
VERTEX
  8
0
 10
5.77912432
 20
4.10493918
  0
VERTEX
  8
0
 10
5.75389092
 20
4.10955656
  0
VERTEX
  8
0
 10
5.73020646
 20
4.11126453
  0
VERTEX
  8
0
 10
5.70808140
 20
4.11025326
  0
VERTEX
  8
0
 10
5.68752621
 20
4.10671291
  0
VERTEX
  8
0
 10
5.66855138
 20
4.10083365
  0
VERTEX
  8
0
 10
5.65116739
 20
4.09280565
  0
VERTEX
  8
0
 10
5.63538469
 20
4.08281907
  0
VERTEX
  8
0
 10
5.62121379
 20
4.07106408
  0
VERTEX
  8
0
 10
5.60866514
 20
4.05773084
  0
VERTEX
  8
0
 10
5.59774922
 20
4.04300952
  0
VERTEX
  8
0
 10
5.58847651
 20
4.02709030
  0
VERTEX
  8
0
 10
5.58085749
 20
4.01016332
  0
VERTEX
  8
0
 10
5.57490264
 20
3.99241876
  0
VERTEX
  8
0
 10
5.57062242
 20
3.97404680
  0
VERTEX
  8
0
 10
5.56802731
 20
3.95523758
  0
VERTEX
  8
0
 10
5.56712780
 20
3.93618128
  0
VERTEX
  8
0
 10
5.56793435
 20
3.91706806
  0
VERTEX
  8
0
 10
5.57045744
 20
3.89808810
  0
VERTEX
  8
0
 10
5.57470755
 20
3.87943155
  0
VERTEX
  8
0
 10
5.58069516
 20
3.86128859
  0
VERTEX
  8
0
 10
5.58843073
 20
3.84384937
  0
VERTEX
  8
0
 10
5.59792475
 20
3.82730407
  0
VERTEX
  8
0
 10
5.60918769
 20
3.81184285
  0
VERTEX
  8
0
 10
5.62223003
 20
3.79765588
  0
VERTEX
  8
0
 10
5.63706224
 20
3.78493333
  0
VERTEX
  8
0
 10
5.65369480
 20
3.77386535
  0
VERTEX
  8
0
 10
5.67213818
 20
3.76464212
  0
VERTEX
  8
0
 10
5.69240287
 20
3.75745381
  0
VERTEX
  8
0
 10
5.71449933
 20
3.75249057
  0
VERTEX
  8
0
 10
5.73843805
 20
3.74994258
  0
VERTEX
  8
0
 10
5.76422949
 20
3.75000000
  0
VERTEX
  8
0
 10
5.75832817
 20
3.69679057
  0
VERTEX
  8
0
 10
5.74958235
 20
3.64644919
  0
VERTEX
  8
0
 10
5.73802518
 20
3.59894278
  0
VERTEX
  8
0
 10
5.72368981
 20
3.55423827
  0
VERTEX
  8
0
 10
5.70660941
 20
3.51230259
  0
VERTEX
  8
0
 10
5.68681712
 20
3.47310266
  0
VERTEX
  8
0
 10
5.66434609
 20
3.43660542
  0
VERTEX
  8
0
 10
5.63922949
 20
3.40277778
  0
VERTEX
  8
0
 10
5.60098013
 20
3.40098675
  0
VERTEX
  8
0
 10
5.56764309
 20
3.40410804
  0
VERTEX
  8
0
 10
5.53776212
 20
3.41068540
  0
VERTEX
  8
0
 10
5.50988096
 20
3.41926258
  0
VERTEX
  8
0
 10
5.48254337
 20
3.42838332
  0
VERTEX
  8
0
 10
5.45429309
 20
3.43659138
  0
VERTEX
  8
0
 10
5.42367388
 20
3.44243050
  0
VERTEX
  8
0
 10
5.38922949
 20
3.44444444
  0
VERTEX
  8
0
 10
5.39748472
 20
3.50259546
  0
VERTEX
  8
0
 10
5.40199329
 20
3.56358989
  0
VERTEX
  8
0
 10
5.40332218
 20
3.62696749
  0
VERTEX
  8
0
 10
5.40203841
 20
3.69226803
  0
VERTEX
  8
0
 10
5.39870894
 20
3.75903124
  0
VERTEX
  8
0
 10
5.39390079
 20
3.82679689
  0
VERTEX
  8
0
 10
5.38211638
 20
3.96349452
  0
VERTEX
  8
0
 10
5.37122110
 20
4.09867895
  0
VERTEX
  8
0
 10
5.36752437
 20
4.16455309
  0
VERTEX
  8
0
 10
5.36575091
 20
4.22866820
  0
VERTEX
  8
0
 10
5.36646769
 20
4.29056402
  0
VERTEX
  8
0
 10
5.37024172
 20
4.34978032
  0
VERTEX
  8
0
 10
5.37763999
 20
4.40585684
  0
VERTEX
  8
0
 10
5.38922949
 20
4.45833333
  0
VERTEX
  8
0
 10
5.39554226
 20
4.47681430
  0
VERTEX
  8
0
 10
5.40371460
 20
4.49363543
  0
VERTEX
  8
0
 10
5.41349010
 20
4.50899639
  0
VERTEX
  8
0
 10
5.42461232
 20
4.52309687
  0
VERTEX
  8
0
 10
5.44987125
 20
4.54831505
  0
VERTEX
  8
0
 10
5.47743999
 20
4.57088740
  0
VERTEX
  8
0
 10
5.50526714
 20
4.59241133
  0
VERTEX
  8
0
 10
5.53130130
 20
4.61448424
  0
VERTEX
  8
0
 10
5.54300494
 20
4.62622575
  0
VERTEX
  8
0
 10
5.55349107
 20
4.63870355
  0
VERTEX
  8
0
 10
5.56250324
 20
4.65211729
  0
VERTEX
  8
0
 10
5.56978505
 20
4.66666667
  0
VERTEX
  8
0
 10
5.56978505
 20
4.88888889
  0
VERTEX
  8
0
 10
5.60237063
 20
4.89788529
  0
VERTEX
  8
0
 10
5.63910501
 20
4.90275661
  0
VERTEX
  8
0
 10
5.67896306
 20
4.90452820
  0
VERTEX
  8
0
 10
5.72091967
 20
4.90422542
  0
VERTEX
  8
0
 10
5.80702814
 20
4.90149819
  0
VERTEX
  8
0
 10
5.84912976
 20
4.90112445
  0
VERTEX
  8
0
 10
5.88922949
 20
4.90277778
  0
SEQEND
  0
POLYLINE
  8
Default_Layer
 66
   1
 39
0.000000
 70
    1
  0
VERTEX
  8
0
 10
5.44478505
 20
3.16666667
  0
VERTEX
  8
0
 10
5.43855743
 20
3.15594433
  0
VERTEX
  8
0
 10
5.43112168
 20
3.14643157
  0
VERTEX
  8
0
 10
5.42254078
 20
3.13806541
  0
VERTEX
  8
0
 10
5.41287772
 20
3.13078287
  0
VERTEX
  8
0
 10
5.39055703
 20
3.11921670
  0
VERTEX
  8
0
 10
5.36466351
 20
3.11122920
  0
VERTEX
  8
0
 10
5.33570104
 20
3.10631653
  0
VERTEX
  8
0
 10
5.30417351
 20
3.10397480
  0
VERTEX
  8
0
 10
5.27058479
 20
3.10370018
  0
VERTEX
  8
0
 10
5.23543877
 20
3.10498879
  0
VERTEX
  8
0
 10
5.08935939
 20
3.11569843
  0
VERTEX
  8
0
 10
5.05398514
 20
3.11724534
  0
VERTEX
  8
0
 10
5.02007689
 20
3.11733233
  0
VERTEX
  8
0
 10
4.98813853
 20
3.11545554
  0
VERTEX
  8
0
 10
4.95867394
 20
3.11111111
  0
VERTEX
  8
0
 10
4.96278711
 20
3.13453820
  0
VERTEX
  8
0
 10
4.96822222
 20
3.15558721
  0
VERTEX
  8
0
 10
4.97491856
 20
3.17435600
  0
VERTEX
  8
0
 10
4.98281539
 20
3.19094244
  0
VERTEX
  8
0
 10
4.99185199
 20
3.20544441
  0
VERTEX
  8
0
 10
5.00196764
 20
3.21795975
  0
VERTEX
  8
0
 10
5.01310161
 20
3.22858635
  0
VERTEX
  8
0
 10
5.02519318
 20
3.23742206
  0
VERTEX
  8
0
 10
5.03818162
 20
3.24456476
  0
VERTEX
  8
0
 10
5.05200620
 20
3.25011231
  0
VERTEX
  8
0
 10
5.06660621
 20
3.25416257
  0
VERTEX
  8
0
 10
5.08192092
 20
3.25681341
  0
VERTEX
  8
0
 10
5.11445152
 20
3.25830831
  0
VERTEX
  8
0
 10
5.14911221
 20
3.25537994
  0
VERTEX
  8
0
 10
5.18541719
 20
3.24881122
  0
VERTEX
  8
0
 10
5.22288066
 20
3.23938508
  0
VERTEX
  8
0
 10
5.29933988
 20
3.21509229
  0
VERTEX
  8
0
 10
5.37460347
 20
3.18876500
  0
VERTEX
  8
0
 10
5.44478505
 20
3.16666667
  0
SEQEND
  0
POLYLINE
  8
Default_Layer
 66
   1
 39
0.000000
 70
    1
  0
VERTEX
  8
0
 10
7.09756283
 20
3.11111111
  0
VERTEX
  8
0
 10
7.06185945
 20
3.11463494
  0
VERTEX
  8
0
 10
7.02558082
 20
3.11597773
  0
VERTEX
  8
0
 10
6.95220062
 20
3.11398378
  0
VERTEX
  8
0
 10
6.87922790
 20
3.10885638
  0
VERTEX
  8
0
 10
6.80846829
 20
3.10432265
  0
VERTEX
  8
0
 10
6.77448266
 20
3.10344313
  0
VERTEX
  8
0
 10
6.74172744
 20
3.10410969
  0
VERTEX
  8
0
 10
6.71042831
 20
3.10678823
  0
VERTEX
  8
0
 10
6.68081100
 20
3.11194463
  0
VERTEX
  8
0
 10
6.65310120
 20
3.12004479
  0
VERTEX
  8
0
 10
6.62752461
 20
3.13155459
  0
VERTEX
  8
0
 10
6.60430696
 20
3.14693992
  0
VERTEX
  8
0
 10
6.58367394
 20
3.16666667
  0
VERTEX
  8
0
 10
6.61994897
 20
3.17524364
  0
VERTEX
  8
0
 10
6.65801671
 20
3.18625490
  0
VERTEX
  8
0
 10
6.73751861
 20
3.21211670
  0
VERTEX
  8
0
 10
6.81815627
 20
3.23732490
  0
VERTEX
  8
0
 10
6.85764370
 20
3.24751916
  0
VERTEX
  8
0
 10
6.89590631
 20
3.25495233
  0
VERTEX
  8
0
 10
6.93244116
 20
3.25875852
  0
VERTEX
  8
0
 10
6.96674535
 20
3.25807184
  0
VERTEX
  8
0
 10
6.98290378
 20
3.25577307
  0
VERTEX
  8
0
 10
6.99831595
 20
3.25202637
  0
VERTEX
  8
0
 10
7.01291899
 20
3.24672351
  0
VERTEX
  8
0
 10
7.02665004
 20
3.23975624
  0
VERTEX
  8
0
 10
7.03944623
 20
3.23101633
  0
VERTEX
  8
0
 10
7.05124469
 20
3.22039555
  0
VERTEX
  8
0
 10
7.06198256
 20
3.20778564
  0
VERTEX
  8
0
 10
7.07159699
 20
3.19307839
  0
VERTEX
  8
0
 10
7.08002509
 20
3.17616555
  0
VERTEX
  8
0
 10
7.08720401
 20
3.15693888
  0
VERTEX
  8
0
 10
7.09307087
 20
3.13529014
  0
VERTEX
  8
0
 10
7.09756283
 20
3.11111111
  0
SEQEND
  0
POLYLINE
  8
Default_Layer
 66
   1
 39
0.000000
 70
    1
  0
VERTEX
  8
0
 10
5.76422949
 20
2.86111111
  0
VERTEX
  8
0
 10
5.74032975
 20
2.82826416
  0
VERTEX
  8
0
 10
5.71451058
 20
2.79644417
  0
VERTEX
  8
0
 10
5.65930805
 20
2.73449292
  0
VERTEX
  8
0
 10
5.60301004
 20
2.67247296
  0
VERTEX
  8
0
 10
5.57582154
 20
2.64056709
  0
VERTEX
  8
0
 10
5.55000474
 20
2.60759990
  0
VERTEX
  8
0
 10
5.52610816
 20
2.57322334
  0
VERTEX
  8
0
 10
5.50468032
 20
2.53708936
  0
VERTEX
  8
0
 10
5.48626973
 20
2.49884991
  0
VERTEX
  8
0
 10
5.47142493
 20
2.45815694
  0
VERTEX
  8
0
 10
5.46069443
 20
2.41466240
  0
VERTEX
  8
0
 10
5.45462675
 20
2.36801824
  0
VERTEX
  8
0
 10
5.45377041
 20
2.31787642
  0
VERTEX
  8
0
 10
5.45867394
 20
2.26388889
  0
VERTEX
  8
0
 10
5.39399220
 20
2.27212290
  0
VERTEX
  8
0
 10
5.33299577
 20
2.28404245
  0
VERTEX
  8
0
 10
5.27572612
 20
2.29968901
  0
VERTEX
  8
0
 10
5.22222473
 20
2.31910401
  0
VERTEX
  8
0
 10
5.17253308
 20
2.34232891
  0
VERTEX
  8
0
 10
5.12669265
 20
2.36940516
  0
VERTEX
  8
0
 10
5.08474490
 20
2.40037421
  0
VERTEX
  8
0
 10
5.04673131
 20
2.43527751
  0
VERTEX
  8
0
 10
5.01269336
 20
2.47415651
  0
VERTEX
  8
0
 10
4.98267252
 20
2.51705267
  0
VERTEX
  8
0
 10
4.95671027
 20
2.56400743
  0
VERTEX
  8
0
 10
4.93484808
 20
2.61506225
  0
VERTEX
  8
0
 10
4.91712744
 20
2.67025858
  0
VERTEX
  8
0
 10
4.90358981
 20
2.72963786
  0
VERTEX
  8
0
 10
4.89427667
 20
2.79324156
  0
VERTEX
  8
0
 10
4.88922949
 20
2.86111111
  0
VERTEX
  8
0
 10
4.99446825
 20
2.85847872
  0
VERTEX
  8
0
 10
5.10538294
 20
2.85922295
  0
VERTEX
  8
0
 10
5.33525179
 20
2.86559226
  0
VERTEX
  8
0
 10
5.44971182
 20
2.86859283
  0
VERTEX
  8
0
 10
5.56085950
 20
2.86972100
  0
VERTEX
  8
0
 10
5.66644775
 20
2.86766451
  0
VERTEX
  8
0
 10
5.76422949
 20
2.86111111
  0
SEQEND
  0
POLYLINE
  8
Default_Layer
 66
   1
 39
0.000000
 70
    1
  0
VERTEX
  8
0
 10
7.16700727
 20
2.87500000
  0
VERTEX
  8
0
 10
7.16367510
 20
2.80623993
  0
VERTEX
  8
0
 10
7.15611004
 20
2.74171847
  0
VERTEX
  8
0
 10
7.14434707
 20
2.68140065
  0
VERTEX
  8
0
 10
7.12842120
 20
2.62525151
  0
VERTEX
  8
0
 10
7.10836740
 20
2.57323607
  0
VERTEX
  8
0
 10
7.08422068
 20
2.52531937
  0
VERTEX
  8
0
 10
7.05601603
 20
2.48146642
  0
VERTEX
  8
0
 10
7.02378842
 20
2.44164226
  0
VERTEX
  8
0
 10
6.98757287
 20
2.40581193
  0
VERTEX
  8
0
 10
6.94740436
 20
2.37394043
  0
VERTEX
  8
0
 10
6.90331787
 20
2.34599282
  0
VERTEX
  8
0
 10
6.85534841
 20
2.32193411
  0
VERTEX
  8
0
 10
6.80353096
 20
2.30172933
  0
VERTEX
  8
0
 10
6.74790052
 20
2.28534352
  0
VERTEX
  8
0
 10
6.68849207
 20
2.27274169
  0
VERTEX
  8
0
 10
6.62534060
 20
2.26388889
  0
VERTEX
  8
0
 10
6.62475344
 20
2.31625241
  0
VERTEX
  8
0
 10
6.62028334
 20
2.36473326
  0
VERTEX
  8
0
 10
6.61225828
 20
2.40965941
  0
VERTEX
  8
0
 10
6.60100629
 20
2.45135883
  0
VERTEX
  8
0
 10
6.58685535
 20
2.49015946
  0
VERTEX
  8
0
 10
6.57013348
 20
2.52638929
  0
VERTEX
  8
0
 10
6.55116868
 20
2.56037626
  0
VERTEX
  8
0
 10
6.53028895
 20
2.59244834
  0
VERTEX
  8
0
 10
6.50782228
 20
2.62293350
  0
VERTEX
  8
0
 10
6.48409670
 20
2.65215969
  0
VERTEX
  8
0
 10
6.43418077
 20
2.70814702
  0
VERTEX
  8
0
 10
6.38316517
 20
2.76303404
  0
VERTEX
  8
0
 10
6.33367394
 20
2.81944444
  0
VERTEX
  8
0
 10
6.33367394
 20
2.86111111
  0
VERTEX
  8
0
 10
6.38094472
 20
2.86686736
  0
VERTEX
  8
0
 10
6.43064152
 20
2.87117569
  0
VERTEX
  8
0
 10
6.53578376
 20
2.87613098
  0
VERTEX
  8
0
 10
6.64604177
 20
2.87734186
  0
VERTEX
  8
0
 10
6.75835665
 20
2.87617317
  0
VERTEX
  8
0
 10
6.97692152
 20
2.87215655
  0
VERTEX
  8
0
 10
7.07705373
 20
2.87203833
  0
VERTEX
  8
0
 10
7.16700727
 20
2.87500000
  0
SEQEND
  0
POLYLINE
  8
Default_Layer
 66
   1
 39
0.000000
 70
    1
  0
VERTEX
  8
0
 10
5.95867394
 20
2.65277778
  0
VERTEX
  8
0
 10
5.99101336
 20
2.65797896
  0
VERTEX
  8
0
 10
6.02274416
 20
2.66157124
  0
VERTEX
  8
0
 10
6.05376699
 20
2.66336802
  0
VERTEX
  8
0
 10
6.08398252
 20
2.66318272
  0
VERTEX
  8
0
 10
6.11329143
 20
2.66082874
  0
VERTEX
  8
0
 10
6.14159437
 20
2.65611950
  0
VERTEX
  8
0
 10
6.16879202
 20
2.64886841
  0
VERTEX
  8
0
 10
6.19478505
 20
2.63888889
  0
VERTEX
  8
0
 10
6.21612447
 20
2.62807451
  0
VERTEX
  8
0
 10
6.23633928
 20
2.61555011
  0
VERTEX
  8
0
 10
6.25541547
 20
2.60142204
  0
VERTEX
  8
0
 10
6.27333903
 20
2.58579668
  0
VERTEX
  8
0
 10
6.29009594
 20
2.56878037
  0
VERTEX
  8
0
 10
6.30567219
 20
2.55047950
  0
VERTEX
  8
0
 10
6.32005377
 20
2.53100042
  0
VERTEX
  8
0
 10
6.33322666
 20
2.51044949
  0
VERTEX
  8
0
 10
6.34517687
 20
2.48893309
  0
VERTEX
  8
0
 10
6.35589037
 20
2.46655758
  0
VERTEX
  8
0
 10
6.37355119
 20
2.41965467
  0
VERTEX
  8
0
 10
6.38609706
 20
2.37059168
  0
VERTEX
  8
0
 10
6.39341586
 20
2.32021952
  0
VERTEX
  8
0
 10
6.39539550
 20
2.26938912
  0
VERTEX
  8
0
 10
6.39192389
 20
2.21895138
  0
VERTEX
  8
0
 10
6.38288893
 20
2.16975722
  0
VERTEX
  8
0
 10
6.37625017
 20
2.14589240
  0
VERTEX
  8
0
 10
6.36817853
 20
2.12265757
  0
VERTEX
  8
0
 10
6.35866001
 20
2.10015909
  0
VERTEX
  8
0
 10
6.34768059
 20
2.07850332
  0
VERTEX
  8
0
 10
6.33522627
 20
2.05779664
  0
VERTEX
  8
0
 10
6.32128302
 20
2.03814541
  0
VERTEX
  8
0
 10
6.30583685
 20
2.01965598
  0
VERTEX
  8
0
 10
6.28887373
 20
2.00243473
  0
VERTEX
  8
0
 10
6.27037965
 20
1.98658803
  0
VERTEX
  8
0
 10
6.25034060
 20
1.97222222
  0
VERTEX
  8
0
 10
6.21807171
 20
1.95399090
  0
VERTEX
  8
0
 10
6.18331001
 20
1.93955537
  0
VERTEX
  8
0
 10
6.14654438
 20
1.92882155
  0
VERTEX
  8
0
 10
6.10826371
 20
1.92169537
  0
VERTEX
  8
0
 10
6.06895686
 20
1.91808275
  0
VERTEX
  8
0
 10
6.02911273
 20
1.91788961
  0
VERTEX
  8
0
 10
5.98922019
 20
1.92102189
  0
VERTEX
  8
0
 10
5.94976811
 20
1.92738549
  0
VERTEX
  8
0
 10
5.91124539
 20
1.93688636
  0
VERTEX
  8
0
 10
5.87414089
 20
1.94943041
  0
VERTEX
  8
0
 10
5.83894350
 20
1.96492357
  0
VERTEX
  8
0
 10
5.80614209
 20
1.98327176
  0
VERTEX
  8
0
 10
5.77622556
 20
2.00438091
  0
VERTEX
  8
0
 10
5.74968277
 20
2.02815693
  0
VERTEX
  8
0
 10
5.72700260
 20
2.05450577
  0
VERTEX
  8
0
 10
5.70867394
 20
2.08333333
  0
VERTEX
  8
0
 10
5.68746658
 20
2.12891890
  0
VERTEX
  8
0
 10
5.67200840
 20
2.17505664
  0
VERTEX
  8
0
 10
5.66211979
 20
2.22134264
  0
VERTEX
  8
0
 10
5.65762113
 20
2.26737302
  0
VERTEX
  8
0
 10
5.65833281
 20
2.31274386
  0
VERTEX
  8
0
 10
5.66407521
 20
2.35705126
  0
VERTEX
  8
0
 10
5.67466873
 20
2.39989132
  0
VERTEX
  8
0
 10
5.68993374
 20
2.44086015
  0
VERTEX
  8
0
 10
5.70969063
 20
2.47955383
  0
VERTEX
  8
0
 10
5.73375978
 20
2.51556846
  0
VERTEX
  8
0
 10
5.76196159
 20
2.54850014
  0
VERTEX
  8
0
 10
5.79411644
 20
2.57794498
  0
VERTEX
  8
0
 10
5.83004472
 20
2.60349906
  0
VERTEX
  8
0
 10
5.86956680
 20
2.62475849
  0
VERTEX
  8
0
 10
5.91250308
 20
2.64131936
  0
VERTEX
  8
0
 10
5.95867394
 20
2.65277778
  0
SEQEND
  0
POLYLINE
  8
Default_Layer
 66
   1
 39
0.000000
 70
    1
  0
VERTEX
  8
0
 10
5.48645172
 20
2.06944444
  0
VERTEX
  8
0
 10
5.49870800
 20
2.04350672
  0
VERTEX
  8
0
 10
5.51225237
 20
2.01885707
  0
VERTEX
  8
0
 10
5.54268469
 20
1.97290127
  0
VERTEX
  8
0
 10
5.57670736
 20
1.93053566
  0
VERTEX
  8
0
 10
5.61327905
 20
1.89071883
  0
VERTEX
  8
0
 10
5.68990418
 20
1.81456586
  0
VERTEX
  8
0
 10
5.72787498
 20
1.77614691
  0
VERTEX
  8
0
 10
5.76422949
 20
1.73611111
  0
VERTEX
  8
0
 10
5.73697109
 20
1.72508855
  0
VERTEX
  8
0
 10
5.70696295
 20
1.71782037
  0
VERTEX
  8
0
 10
5.67426566
 20
1.71350799
  0
VERTEX
  8
0
 10
5.63893981
 20
1.71135285
  0
VERTEX
  8
0
 10
5.56064485
 20
1.71032002
  0
VERTEX
  8
0
 10
5.47256283
 20
1.70833333
  0
VERTEX
  8
0
 10
5.46481565
 20
1.72914897
  0
VERTEX
  8
0
 10
5.45858353
 20
1.75082855
  0
VERTEX
  8
0
 10
5.45035047
 20
1.79623949
  0
VERTEX
  8
0
 10
5.44723559
 20
1.84348595
  0
VERTEX
  8
0
 10
5.44861082
 20
1.89148775
  0
VERTEX
  8
0
 10
5.45384811
 20
1.93916469
  0
VERTEX
  8
0
 10
5.46231939
 20
1.98543658
  0
VERTEX
  8
0
 10
5.47339662
 20
2.02922323
  0
VERTEX
  8
0
 10
5.48645172
 20
2.06944444
  0
SEQEND
  0
POLYLINE
  8
Default_Layer
 66
   1
 39
0.000000
 70
    1
  0
VERTEX
  8
0
 10
6.56978505
 20
2.05555556
  0
VERTEX
  8
0
 10
6.57832976
 20
2.04025408
  0
VERTEX
  8
0
 10
6.58569470
 20
2.02377881
  0
VERTEX
  8
0
 10
6.59711842
 20
1.98777998
  0
VERTEX
  8
0
 10
6.60452239
 20
1.94850529
  0
VERTEX
  8
0
 10
6.60837280
 20
1.90690095
  0
VERTEX
  8
0
 10
6.60913586
 20
1.86391314
  0
VERTEX
  8
0
 10
6.60727775
 20
1.82048810
  0
VERTEX
  8
0
 10
6.60326468
 20
1.77757202
  0
VERTEX
  8
0
 10
6.59756283
 20
1.73611111
  0
VERTEX
  8
0
 10
6.57499632
 20
1.72683498
  0
VERTEX
  8
0
 10
6.54754442
 20
1.71869774
  0
VERTEX
  8
0
 10
6.51665734
 20
1.71220709
  0
VERTEX
  8
0
 10
6.48378530
 20
1.70787074
  0
VERTEX
  8
0
 10
6.45037850
 20
1.70619637
  0
VERTEX
  8
0
 10
6.41788717
 20
1.70769170
  0
VERTEX
  8
0
 10
6.38776150
 20
1.71286442
  0
VERTEX
  8
0
 10
6.36145172
 20
1.72222222
  0
VERTEX
  8
0
 10
6.36517924
 20
1.75230366
  0
VERTEX
  8
0
 10
6.37241366
 20
1.77888422
  0
VERTEX
  8
0
 10
6.38266903
 20
1.80244986
  0
VERTEX
  8
0
 10
6.39545939
 20
1.82348654
  0
VERTEX
  8
0
 10
6.41029879
 20
1.84248021
  0
VERTEX
  8
0
 10
6.42670126
 20
1.85991683
  0
VERTEX
  8
0
 10
6.46225162
 20
1.89206275
  0
VERTEX
  8
0
 10
6.49822282
 20
1.92381193
  0
VERTEX
  8
0
 10
6.51515135
 20
1.94075264
  0
VERTEX
  8
0
 10
6.53072723
 20
1.95905203
  0
VERTEX
  8
0
 10
6.54446449
 20
1.97919606
  0
VERTEX
  8
0
 10
6.55587719
 20
2.00167069
  0
VERTEX
  8
0
 10
6.56447936
 20
2.02696187
  0
VERTEX
  8
0
 10
6.56978505
 20
2.05555556
  0
SEQEND
  0
POLYLINE
  8
Default_Layer
 66
   1
 39
0.000000
 70
    1
  0
VERTEX
  8
0
 10
5.59756283
 20
1.45833333
  0
VERTEX
  8
0
 10
5.69564411
 20
1.46780825
  0
VERTEX
  8
0
 10
5.79823615
 20
1.47279637
  0
VERTEX
  8
0
 10
5.90420092
 20
1.47443554
  0
VERTEX
  8
0
 10
6.01240040
 20
1.47386362
  0
VERTEX
  8
0
 10
6.23095143
 20
1.47063795
  0
VERTEX
  8
0
 10
6.33902692
 20
1.47025991
  0
VERTEX
  8
0
 10
6.44478505
 20
1.47222222
  0
VERTEX
  8
0
 10
6.42922968
 20
1.44909236
  0
VERTEX
  8
0
 10
6.41169481
 20
1.42760461
  0
VERTEX
  8
0
 10
6.39230794
 20
1.40774119
  0
VERTEX
  8
0
 10
6.37119656
 20
1.38948431
  0
VERTEX
  8
0
 10
6.34848817
 20
1.37281618
  0
VERTEX
  8
0
 10
6.32431027
 20
1.35771903
  0
VERTEX
  8
0
 10
6.29879036
 20
1.34417505
  0
VERTEX
  8
0
 10
6.27205592
 20
1.33216646
  0
VERTEX
  8
0
 10
6.24423445
 20
1.32167549
  0
VERTEX
  8
0
 10
6.21545346
 20
1.31268433
  0
VERTEX
  8
0
 10
6.18584044
 20
1.30517521
  0
VERTEX
  8
0
 10
6.15552287
 20
1.29913033
  0
VERTEX
  8
0
 10
6.09328412
 20
1.29136218
  0
VERTEX
  8
0
 10
6.02975717
 20
1.28923758
  0
VERTEX
  8
0
 10
5.96596200
 20
1.29261423
  0
VERTEX
  8
0
 10
5.90291857
 20
1.30134984
  0
VERTEX
  8
0
 10
5.84164685
 20
1.31530213
  0
VERTEX
  8
0
 10
5.78316681
 20
1.33432879
  0
VERTEX
  8
0
 10
5.75529241
 20
1.34570055
  0
VERTEX
  8
0
 10
5.72849842
 20
1.35828753
  0
VERTEX
  8
0
 10
5.70291233
 20
1.37207197
  0
VERTEX
  8
0
 10
5.67866165
 20
1.38703607
  0
VERTEX
  8
0
 10
5.65587386
 20
1.40316204
  0
VERTEX
  8
0
 10
5.63467646
 20
1.42043210
  0
VERTEX
  8
0
 10
5.61519695
 20
1.43882846
  0
VERTEX
  8
0
 10
5.59756283
 20
1.45833333
  0
SEQEND
  0
POLYLINE
  8
Default_Layer
 66
   1
 39
0.000000
 70
    1
  0
VERTEX
  8
0
 10
5.61077051
 20
9.01388889
  0
VERTEX
  8
0
 10
5.55304138
 20
8.99870357
  0
VERTEX
  8
0
 10
5.49377592
 20
8.98505386
  0
VERTEX
  8
0
 10
5.37395862
 20
8.95903879
  0
VERTEX
  8
0
 10
5.31506812
 20
8.94501221
  0
VERTEX
  8
0
 10
5.25796394
 20
8.92919878
  0
VERTEX
  8
0
 10
5.20347673
 20
8.91076788
  0
VERTEX
  8
0
 10
5.15243717
 20
8.88888889
  0
VERTEX
  8
0
 10
5.16035297
 20
8.88200288
  0
VERTEX
  8
0
 10
5.16974954
 20
8.87660354
  0
VERTEX
  8
0
 10
5.19210081
 20
8.86938072
  0
VERTEX
  8
0
 10
5.21772254
 20
8.86545215
  0
VERTEX
  8
0
 10
5.24484630
 20
8.86304956
  0
VERTEX
  8
0
 10
5.27170363
 20
8.86040465
  0
VERTEX
  8
0
 10
5.29652611
 20
8.85574917
  0
VERTEX
  8
0
 10
5.30762164
 20
8.85211487
  0
VERTEX
  8
0
 10
5.31754529
 20
8.84731482
  0
VERTEX
  8
0
 10
5.32607601
 20
8.84112799
  0
VERTEX
  8
0
 10
5.33299273
 20
8.83333333
  0
VERTEX
  8
0
 10
5.33120254
 20
8.75526383
  0
VERTEX
  8
0
 10
5.33164063
 20
8.67496549
  0
VERTEX
  8
0
 10
5.33477599
 20
8.51210824
  0
VERTEX
  8
0
 10
5.33526042
 20
8.43176232
  0
VERTEX
  8
0
 10
5.33354749
 20
8.35361353
  0
VERTEX
  8
0
 10
5.32853076
 20
8.27876837
  0
VERTEX
  8
0
 10
5.31910384
 20
8.20833333
  0
VERTEX
  8
0
 10
5.29326640
 20
8.19944742
  0
VERTEX
  8
0
 10
5.26342889
 20
8.19456254
  0
VERTEX
  8
0
 10
5.23057012
 20
8.19269958
  0
VERTEX
  8
0
 10
5.19566887
 20
8.19287942
  0
VERTEX
  8
0
 10
5.12365411
 20
8.19545103
  0
VERTEX
  8
0
 10
5.08849818
 20
8.19588457
  0
VERTEX
  8
0
 10
5.05521495
 20
8.19444444
  0
VERTEX
  8
0
 10
5.06763355
 20
8.17081499
  0
VERTEX
  8
0
 10
5.08134237
 20
8.14847733
  0
VERTEX
  8
0
 10
5.09622468
 20
8.12731474
  0
VERTEX
  8
0
 10
5.11216372
 20
8.10721046
  0
VERTEX
  8
0
 10
5.14674511
 20
8.06970990
  0
VERTEX
  8
0
 10
5.18415265
 20
8.03504172
  0
VERTEX
  8
0
 10
5.22345246
 20
8.00227201
  0
VERTEX
  8
0
 10
5.26371065
 20
7.97046681
  0
VERTEX
  8
0
 10
5.30399333
 20
7.93869223
  0
VERTEX
  8
0
 10
5.34336661
 20
7.90601431
  0
VERTEX
  8
0
 10
5.38089661
 20
7.87149915
  0
VERTEX
  8
0
 10
5.41564945
 20
7.83421280
  0
VERTEX
  8
0
 10
5.43169259
 20
7.81423858
  0
VERTEX
  8
0
 10
5.44669123
 20
7.79322135
  0
VERTEX
  8
0
 10
5.46052864
 20
7.77104435
  0
VERTEX
  8
0
 10
5.47308807
 20
7.74759086
  0
VERTEX
  8
0
 10
5.48425280
 20
7.72274412
  0
VERTEX
  8
0
 10
5.49390608
 20
7.69638740
  0
VERTEX
  8
0
 10
5.50193119
 20
7.66840397
  0
VERTEX
  8
0
 10
5.50821138
 20
7.63867706
  0
VERTEX
  8
0
 10
5.51262992
 20
7.60708996
  0
VERTEX
  8
0
 10
5.51507008
 20
7.57352590
  0
VERTEX
  8
0
 10
5.51541511
 20
7.53786817
  0
VERTEX
  8
0
 10
5.51354828
 20
7.50000000
  0
VERTEX
  8
0
 10
5.54962150
 20
7.49085050
  0
VERTEX
  8
0
 10
5.58987136
 20
7.48590127
  0
VERTEX
  8
0
 10
5.63325663
 20
7.48411124
  0
VERTEX
  8
0
 10
5.67873605
 20
7.48443931
  0
VERTEX
  8
0
 10
5.77181242
 20
7.48728547
  0
VERTEX
  8
0
 10
5.81732687
 20
7.48772140
  0
VERTEX
  8
0
 10
5.86077051
 20
7.48611111
  0
VERTEX
  8
0
 10
5.85989121
 20
7.54938610
  0
VERTEX
  8
0
 10
5.86152455
 20
7.61519628
  0
VERTEX
  8
0
 10
5.86305173
 20
7.68092328
  0
VERTEX
  8
0
 10
5.86185394
 20
7.74394869
  0
VERTEX
  8
0
 10
5.85941481
 20
7.77363005
  0
VERTEX
  8
0
 10
5.85531239
 20
7.80165413
  0
VERTEX
  8
0
 10
5.84921933
 20
7.82769361
  0
VERTEX
  8
0
 10
5.84080827
 20
7.85142120
  0
VERTEX
  8
0
 10
5.82975188
 20
7.87250959
  0
VERTEX
  8
0
 10
5.81572280
 20
7.89063151
  0
VERTEX
  8
0
 10
5.79839368
 20
7.90545963
  0
VERTEX
  8
0
 10
5.77743717
 20
7.91666667
  0
VERTEX
  8
0
 10
5.78712684
 20
7.93932332
  0
VERTEX
  8
0
 10
5.79349271
 20
7.96224953
  0
VERTEX
  8
0
 10
5.79694538
 20
7.98543463
  0
VERTEX
  8
0
 10
5.79789543
 20
8.00886798
  0
VERTEX
  8
0
 10
5.79675346
 20
8.03253894
  0
VERTEX
  8
0
 10
5.79393006
 20
8.05643684
  0
VERTEX
  8
0
 10
5.78488137
 20
8.10487091
  0
VERTEX
  8
0
 10
5.77403409
 20
8.15408501
  0
VERTEX
  8
0
 10
5.76467299
 20
8.20399394
  0
VERTEX
  8
0
 10
5.76157623
 20
8.22918235
  0
VERTEX
  8
0
 10
5.76008280
 20
8.25451252
  0
VERTEX
  8
0
 10
5.76060329
 20
8.27997380
  0
VERTEX
  8
0
 10
5.76354828
 20
8.30555556
  0
VERTEX
  8
0
 10
5.73508783
 20
8.29562040
  0
VERTEX
  8
0
 10
5.70841611
 20
8.28908168
  0
VERTEX
  8
0
 10
5.68352947
 20
8.28573103
  0
VERTEX
  8
0
 10
5.66042425
 20
8.28536014
  0
VERTEX
  8
0
 10
5.63909679
 20
8.28776064
  0
VERTEX
  8
0
 10
5.61954343
 20
8.29272421
  0
VERTEX
  8
0
 10
5.60176051
 20
8.30004250
  0
VERTEX
  8
0
 10
5.58574439
 20
8.30950718
  0
VERTEX
  8
0
 10
5.57149139
 20
8.32090989
  0
VERTEX
  8
0
 10
5.55899786
 20
8.33404231
  0
VERTEX
  8
0
 10
5.54826014
 20
8.34869609
  0
VERTEX
  8
0
 10
5.53927457
 20
8.36466289
  0
VERTEX
  8
0
 10
5.53203750
 20
8.38173437
  0
VERTEX
  8
0
 10
5.52654527
 20
8.39970219
  0
VERTEX
  8
0
 10
5.52279421
 20
8.41835800
  0
VERTEX
  8
0
 10
5.52078067
 20
8.43749348
  0
VERTEX
  8
0
 10
5.52050100
 20
8.45690028
  0
VERTEX
  8
0
 10
5.52195153
 20
8.47637005
  0
VERTEX
  8
0
 10
5.52512860
 20
8.49569446
  0
VERTEX
  8
0
 10
5.53002856
 20
8.51466517
  0
VERTEX
  8
0
 10
5.53664775
 20
8.53307383
  0
VERTEX
  8
0
 10
5.54498251
 20
8.55071211
  0
VERTEX
  8
0
 10
5.55502918
 20
8.56737166
  0
VERTEX
  8
0
 10
5.56678410
 20
8.58284416
  0
VERTEX
  8
0
 10
5.58024362
 20
8.59692124
  0
VERTEX
  8
0
 10
5.59540407
 20
8.60939458
  0
VERTEX
  8
0
 10
5.61226181
 20
8.62005583
  0
VERTEX
  8
0
 10
5.63081316
 20
8.62869666
  0
VERTEX
  8
0
 10
5.65105448
 20
8.63510872
  0
VERTEX
  8
0
 10
5.67298210
 20
8.63908367
  0
VERTEX
  8
0
 10
5.69659236
 20
8.64041317
  0
VERTEX
  8
0
 10
5.72188162
 20
8.63888889
  0
VERTEX
  8
0
 10
5.71484477
 20
8.69253097
  0
VERTEX
  8
0
 10
5.70371745
 20
8.74210718
  0
VERTEX
  8
0
 10
5.68956603
 20
8.78868372
  0
VERTEX
  8
0
 10
5.67345689
 20
8.83332681
  0
VERTEX
  8
0
 10
5.63963091
 20
8.92107749
  0
VERTEX
  8
0
 10
5.62404682
 20
8.96631749
  0
VERTEX
  8
0
 10
5.61077051
 20
9.01388889
  0
SEQEND
  0
POLYLINE
  8
Default_Layer
 66
   1
 39
0.000000
 70
    1
  0
VERTEX
  8
0
 10
6.29200727
 20
11.09722222
  0
VERTEX
  8
0
 10
6.23831273
 20
11.11532548
  0
VERTEX
  8
0
 10
6.18479936
 20
11.12923469
  0
VERTEX
  8
0
 10
6.13160785
 20
11.13906206
  0
VERTEX
  8
0
 10
6.07887889
 20
11.14491977
  0
VERTEX
  8
0
 10
6.02675316
 20
11.14692002
  0
VERTEX
  8
0
 10
5.97537135
 20
11.14517501
  0
VERTEX
  8
0
 10
5.92487414
 20
11.13979695
  0
VERTEX
  8
0
 10
5.87540223
 20
11.13089802
  0
VERTEX
  8
0
 10
5.82709630
 20
11.11859042
  0
VERTEX
  8
0
 10
5.78009704
 20
11.10298636
  0
VERTEX
  8
0
 10
5.73454514
 20
11.08419802
  0
VERTEX
  8
0
 10
5.69058128
 20
11.06233761
  0
VERTEX
  8
0
 10
5.64834615
 20
11.03751732
  0
VERTEX
  8
0
 10
5.60798044
 20
11.00984936
  0
VERTEX
  8
0
 10
5.56962483
 20
10.97944591
  0
VERTEX
  8
0
 10
5.53342002
 20
10.94641917
  0
VERTEX
  8
0
 10
5.49950669
 20
10.91088135
  0
VERTEX
  8
0
 10
5.46802553
 20
10.87294464
  0
VERTEX
  8
0
 10
5.43911722
 20
10.83272124
  0
VERTEX
  8
0
 10
5.41292245
 20
10.79032334
  0
VERTEX
  8
0
 10
5.38958191
 20
10.74586315
  0
VERTEX
  8
0
 10
5.36923629
 20
10.69945285
  0
VERTEX
  8
0
 10
5.35202628
 20
10.65120465
  0
VERTEX
  8
0
 10
5.33809255
 20
10.60123074
  0
VERTEX
  8
0
 10
5.32757580
 20
10.54964333
  0
VERTEX
  8
0
 10
5.32061672
 20
10.49655460
  0
VERTEX
  8
0
 10
5.31735600
 20
10.44207677
  0
VERTEX
  8
0
 10
5.31793431
 20
10.38632201
  0
VERTEX
  8
0
 10
5.32249235
 20
10.32940254
  0
VERTEX
  8
0
 10
5.33117081
 20
10.27143054
  0
VERTEX
  8
0
 10
5.34411037
 20
10.21251822
  0
VERTEX
  8
0
 10
5.36145172
 20
10.15277778
  0
VERTEX
  8
0
 10
5.32833324
 20
10.15054391
  0
VERTEX
  8
0
 10
5.29607816
 20
10.14649897
  0
VERTEX
  8
0
 10
5.26469289
 20
10.14069968
  0
VERTEX
  8
0
 10
5.23418386
 20
10.13320276
  0
VERTEX
  8
0
 10
5.20455751
 20
10.12406495
  0
VERTEX
  8
0
 10
5.17582026
 20
10.11334297
  0
VERTEX
  8
0
 10
5.14797854
 20
10.10109356
  0
VERTEX
  8
0
 10
5.12103879
 20
10.08737344
  0
VERTEX
  8
0
 10
5.09500742
 20
10.07223935
  0
VERTEX
  8
0
 10
5.06989089
 20
10.05574800
  0
VERTEX
  8
0
 10
5.04569560
 20
10.03795613
  0
VERTEX
  8
0
 10
5.02242800
 20
10.01892047
  0
VERTEX
  8
0
 10
4.97870155
 20
9.97734469
  0
VERTEX
  8
0
 10
4.93876299
 20
9.93147449
  0
VERTEX
  8
0
 10
4.90266375
 20
9.88176370
  0
VERTEX
  8
0
 10
4.87045528
 20
9.82866615
  0
VERTEX
  8
0
 10
4.84218899
 20
9.77263566
  0
VERTEX
  8
0
 10
4.81791635
 20
9.71412608
  0
VERTEX
  8
0
 10
4.79768877
 20
9.65359122
  0
VERTEX
  8
0
 10
4.78155771
 20
9.59148493
  0
VERTEX
  8
0
 10
4.76957459
 20
9.52826102
  0
VERTEX
  8
0
 10
4.76179086
 20
9.46437334
  0
VERTEX
  8
0
 10
4.75825794
 20
9.40027571
  0
VERTEX
  8
0
 10
4.75902730
 20
9.33642196
  0
VERTEX
  8
0
 10
4.76415034
 20
9.27326593
  0
VERTEX
  8
0
 10
4.77367853
 20
9.21126144
  0
VERTEX
  8
0
 10
4.78766328
 20
9.15086232
  0
VERTEX
  8
0
 10
4.80615605
 20
9.09252241
  0
VERTEX
  8
0
 10
4.82920827
 20
9.03669553
  0
VERTEX
  8
0
 10
4.85687137
 20
8.98383552
  0
VERTEX
  8
0
 10
4.88919680
 20
8.93439620
  0
VERTEX
  8
0
 10
4.90712395
 20
8.91110113
  0
VERTEX
  8
0
 10
4.92623598
 20
8.88883141
  0
VERTEX
  8
0
 10
4.94653931
 20
8.86764378
  0
VERTEX
  8
0
 10
4.96804037
 20
8.84759498
  0
VERTEX
  8
0
 10
4.99074559
 20
8.82874171
  0
VERTEX
  8
0
 10
5.01466139
 20
8.81114073
  0
VERTEX
  8
0
 10
5.03979422
 20
8.79484875
  0
VERTEX
  8
0
 10
5.06615049
 20
8.77992250
  0
VERTEX
  8
0
 10
5.09373664
 20
8.76641871
  0
VERTEX
  8
0
 10
5.12255910
 20
8.75439412
  0
VERTEX
  8
0
 10
5.15262430
 20
8.74390544
  0
VERTEX
  8
0
 10
5.18393866
 20
8.73500942
  0
VERTEX
  8
0
 10
5.21650862
 20
8.72776277
  0
VERTEX
  8
0
 10
5.25034060
 20
8.72222222
  0
VERTEX
  8
0
 10
5.24839225
 20
8.67373981
  0
VERTEX
  8
0
 10
5.24876981
 20
8.62295553
  0
VERTEX
  8
0
 10
5.25197211
 20
8.51901154
  0
VERTEX
  8
0
 10
5.25253158
 20
8.46811693
  0
VERTEX
  8
0
 10
5.25088643
 20
8.41945067
  0
VERTEX
  8
0
 10
5.24590402
 20
8.37414528
  0
VERTEX
  8
0
 10
5.24180739
 20
8.35310684
  0
VERTEX
  8
0
 10
5.23645172
 20
8.33333333
  0
VERTEX
  8
0
 10
4.48645172
 20
8.33333333
  0
VERTEX
  8
0
 10
4.47712410
 20
8.36545111
  0
VERTEX
  8
0
 10
4.46640997
 20
8.39645918
  0
VERTEX
  8
0
 10
4.45435641
 20
8.42635923
  0
VERTEX
  8
0
 10
4.44101049
 20
8.45515294
  0
VERTEX
  8
0
 10
4.42641929
 20
8.48284202
  0
VERTEX
  8
0
 10
4.41062991
 20
8.50942815
  0
VERTEX
  8
0
 10
4.39368942
 20
8.53491304
  0
VERTEX
  8
0
 10
4.37564491
 20
8.55929837
  0
VERTEX
  8
0
 10
4.33643213
 20
8.60477712
  0
VERTEX
  8
0
 10
4.29336824
 20
8.64587796
  0
VERTEX
  8
0
 10
4.24682989
 20
8.68261443
  0
VERTEX
  8
0
 10
4.19719374
 20
8.71500008
  0
VERTEX
  8
0
 10
4.14483645
 20
8.74304844
  0
VERTEX
  8
0
 10
4.09013468
 20
8.76677307
  0
VERTEX
  8
0
 10
4.03346508
 20
8.78618750
  0
VERTEX
  8
0
 10
3.97520431
 20
8.80130529
  0
VERTEX
  8
0
 10
3.91572903
 20
8.81213997
  0
VERTEX
  8
0
 10
3.85541590
 20
8.81870508
  0
VERTEX
  8
0
 10
3.79464156
 20
8.82101418
  0
VERTEX
  8
0
 10
3.73378270
 20
8.81908081
  0
VERTEX
  8
0
 10
3.67321595
 20
8.81291850
  0
VERTEX
  8
0
 10
3.61331797
 20
8.80254081
  0
VERTEX
  8
0
 10
3.55446543
 20
8.78796128
  0
VERTEX
  8
0
 10
3.49703499
 20
8.76919345
  0
VERTEX
  8
0
 10
3.44140329
 20
8.74625086
  0
VERTEX
  8
0
 10
3.38794700
 20
8.71914706
  0
VERTEX
  8
0
 10
3.33704277
 20
8.68789560
  0
VERTEX
  8
0
 10
3.28906727
 20
8.65251002
  0
VERTEX
  8
0
 10
3.24439714
 20
8.61300386
  0
VERTEX
  8
0
 10
3.20340906
 20
8.56939066
  0
VERTEX
  8
0
 10
3.16647967
 20
8.52168397
  0
VERTEX
  8
0
 10
3.14965469
 20
8.49629980
  0
VERTEX
  8
0
 10
3.13398563
 20
8.46989734
  0
VERTEX
  8
0
 10
3.11951957
 20
8.44247828
  0
VERTEX
  8
0
 10
3.10630360
 20
8.41404430
  0
VERTEX
  8
0
 10
3.09438480
 20
8.38459712
  0
VERTEX
  8
0
 10
3.08381024
 20
8.35413841
  0
VERTEX
  8
0
 10
3.07462702
 20
8.32266987
  0
VERTEX
  8
0
 10
3.06688221
 20
8.29019320
  0
VERTEX
  8
0
 10
3.06062290
 20
8.25671009
  0
VERTEX
  8
0
 10
3.05589616
 20
8.22222222
  0
VERTEX
  8
0
 10
3.02385781
 20
8.23546116
  0
VERTEX
  8
0
 10
2.99210642
 20
8.24689138
  0
VERTEX
  8
0
 10
2.96036311
 20
8.25651803
  0
VERTEX
  8
0
 10
2.92834901
 20
8.26434626
  0
VERTEX
  8
0
 10
2.89578526
 20
8.27038120
  0
VERTEX
  8
0
 10
2.86239296
 20
8.27462801
  0
VERTEX
  8
0
 10
2.82789326
 20
8.27709182
  0
VERTEX
  8
0
 10
2.79200727
 20
8.27777778
  0
VERTEX
  8
0
 10
2.74385523
 20
8.27618748
  0
VERTEX
  8
0
 10
2.69750309
 20
8.27215507
  0
VERTEX
  8
0
 10
2.65294437
 20
8.26576781
  0
VERTEX
  8
0
 10
2.61017264
 20
8.25711299
  0
VERTEX
  8
0
 10
2.56918141
 20
8.24627786
  0
VERTEX
  8
0
 10
2.52996425
 20
8.23334972
  0
VERTEX
  8
0
 10
2.49251468
 20
8.21841583
  0
VERTEX
  8
0
 10
2.45682626
 20
8.20156347
  0
VERTEX
  8
0
 10
2.42289252
 20
8.18287991
  0
VERTEX
  8
0
 10
2.39070700
 20
8.16245242
  0
VERTEX
  8
0
 10
2.36026325
 20
8.14036829
  0
VERTEX
  8
0
 10
2.33155481
 20
8.11671478
  0
VERTEX
  8
0
 10
2.30457523
 20
8.09157917
  0
VERTEX
  8
0
 10
2.27931803
 20
8.06504874
  0
VERTEX
  8
0
 10
2.25577677
 20
8.03721075
  0
VERTEX
  8
0
 10
2.23394499
 20
8.00815249
  0
VERTEX
  8
0
 10
2.21381623
 20
7.97796122
  0
VERTEX
  8
0
 10
2.19538402
 20
7.94672423
  0
VERTEX
  8
0
 10
2.17864192
 20
7.91452878
  0
VERTEX
  8
0
 10
2.16358346
 20
7.88146216
  0
VERTEX
  8
0
 10
2.15020219
 20
7.84761163
  0
VERTEX
  8
0
 10
2.13849165
 20
7.81306446
  0
VERTEX
  8
0
 10
2.12844538
 20
7.77790795
  0
VERTEX
  8
0
 10
2.12005692
 20
7.74222935
  0
VERTEX
  8
0
 10
2.11331981
 20
7.70611594
  0
VERTEX
  8
0
 10
2.10822760
 20
7.66965500
  0
VERTEX
  8
0
 10
2.10477383
 20
7.63293381
  0
VERTEX
  8
0
 10
2.10295203
 20
7.59603962
  0
VERTEX
  8
0
 10
2.10275576
 20
7.55905973
  0
VERTEX
  8
0
 10
2.10417855
 20
7.52208141
  0
VERTEX
  8
0
 10
2.10721394
 20
7.48519192
  0
VERTEX
  8
0
 10
2.11185549
 20
7.44847855
  0
VERTEX
  8
0
 10
2.11809672
 20
7.41202857
  0
VERTEX
  8
0
 10
2.12593118
 20
7.37592924
  0
VERTEX
  8
0
 10
2.13535241
 20
7.34026786
  0
VERTEX
  8
0
 10
2.14635396
 20
7.30513169
  0
VERTEX
  8
0
 10
2.15892937
 20
7.27060800
  0
VERTEX
  8
0
 10
2.17307217
 20
7.23678407
  0
VERTEX
  8
0
 10
2.18877591
 20
7.20374718
  0
VERTEX
  8
0
 10
2.20603414
 20
7.17158460
  0
VERTEX
  8
0
 10
2.22484039
 20
7.14038360
  0
VERTEX
  8
0
 10
2.24518820
 20
7.11023146
  0
VERTEX
  8
0
 10
2.26707112
 20
7.08121545
  0
VERTEX
  8
0
 10
2.29048270
 20
7.05342285
  0
VERTEX
  8
0
 10
2.31541646
 20
7.02694093
  0
VERTEX
  8
0
 10
2.34186596
 20
7.00185697
  0
VERTEX
  8
0
 10
2.36982473
 20
6.97825823
  0
VERTEX
  8
0
 10
2.39928632
 20
6.95623200
  0
VERTEX
  8
0
 10
2.43024427
 20
6.93586555
  0
VERTEX
  8
0
 10
2.46269212
 20
6.91724615
  0
VERTEX
  8
0
 10
2.49662341
 20
6.90046109
  0
VERTEX
  8
0
 10
2.53203168
 20
6.88559762
  0
VERTEX
  8
0
 10
2.56891049
 20
6.87274303
  0
VERTEX
  8
0
 10
2.60725336
 20
6.86198459
  0
VERTEX
  8
0
 10
2.64705384
 20
6.85340958
  0
VERTEX
  8
0
 10
2.68830547
 20
6.84710526
  0
VERTEX
  8
0
 10
2.73100180
 20
6.84315892
  0
VERTEX
  8
0
 10
2.77513637
 20
6.84165783
  0
VERTEX
  8
0
 10
2.82070271
 20
6.84268927
  0
VERTEX
  8
0
 10
2.86769437
 20
6.84634050
  0
VERTEX
  8
0
 10
2.91610489
 20
6.85269880
  0
VERTEX
  8
0
 10
2.96592782
 20
6.86185145
  0
VERTEX
  8
0
 10
3.01715669
 20
6.87388572
  0
VERTEX
  8
0
 10
3.06978505
 20
6.88888889
  0
VERTEX
  8
0
 10
3.07329341
 20
6.85346887
  0
VERTEX
  8
0
 10
3.07842570
 20
6.81916288
  0
VERTEX
  8
0
 10
3.08513230
 20
6.78596908
  0
VERTEX
  8
0
 10
3.09336358
 20
6.75388565
  0
VERTEX
  8
0
 10
3.10306990
 20
6.72291076
  0
VERTEX
  8
0
 10
3.11420163
 20
6.69304258
  0
VERTEX
  8
0
 10
3.12670914
 20
6.66427929
  0
VERTEX
  8
0
 10
3.14054281
 20
6.63661904
  0
VERTEX
  8
0
 10
3.15565299
 20
6.61006001
  0
VERTEX
  8
0
 10
3.17199006
 20
6.58460037
  0
VERTEX
  8
0
 10
3.18950438
 20
6.56023830
  0
VERTEX
  8
0
 10
3.20814633
 20
6.53697196
  0
VERTEX
  8
0
 10
3.22786628
 20
6.51479952
  0
VERTEX
  8
0
 10
3.24861458
 20
6.49371916
  0
VERTEX
  8
0
 10
3.29299776
 20
6.45482734
  0
VERTEX
  8
0
 10
3.34089881
 20
6.42028186
  0
VERTEX
  8
0
 10
3.39192068
 20
6.39006810
  0
VERTEX
  8
0
 10
3.44566632
 20
6.36417140
  0
VERTEX
  8
0
 10
3.50173869
 20
6.34257715
  0
VERTEX
  8
0
 10
3.55974074
 20
6.32527071
  0
VERTEX
  8
0
 10
3.61927540
 20
6.31223743
  0
VERTEX
  8
0
 10
3.67994564
 20
6.30346269
  0
VERTEX
  8
0
 10
3.74135440
 20
6.29893185
  0
VERTEX
  8
0
 10
3.80310463
 20
6.29863027
  0
VERTEX
  8
0
 10
3.86479928
 20
6.30254333
  0
VERTEX
  8
0
 10
3.92604131
 20
6.31065637
  0
VERTEX
  8
0
 10
3.98643365
 20
6.32295478
  0
VERTEX
  8
0
 10
4.04557927
 20
6.33942392
  0
VERTEX
  8
0
 10
4.10308111
 20
6.36004914
  0
VERTEX
  8
0
 10
4.15854212
 20
6.38481582
  0
VERTEX
  8
0
 10
4.21156525
 20
6.41370932
  0
VERTEX
  8
0
 10
4.26175345
 20
6.44671501
  0
VERTEX
  8
0
 10
4.30870967
 20
6.48381825
  0
VERTEX
  8
0
 10
4.35203686
 20
6.52500440
  0
VERTEX
  8
0
 10
4.39133797
 20
6.57025883
  0
VERTEX
  8
0
 10
4.40935467
 20
6.59440708
  0
VERTEX
  8
0
 10
4.42621595
 20
6.61956691
  0
VERTEX
  8
0
 10
4.44187219
 20
6.64573649
  0
VERTEX
  8
0
 10
4.45627375
 20
6.67291400
  0
VERTEX
  8
0
 10
4.46937100
 20
6.70109760
  0
VERTEX
  8
0
 10
4.48111432
 20
6.73028546
  0
VERTEX
  8
0
 10
4.49145406
 20
6.76047576
  0
VERTEX
  8
0
 10
4.50034060
 20
6.79166667
  0
VERTEX
  8
0
 10
5.25034060
 20
6.79166667
  0
VERTEX
  8
0
 10
5.25034060
 20
3.54166667
  0
VERTEX
  8
0
 10
5.21516137
 20
3.53083061
  0
VERTEX
  8
0
 10
5.18072407
 20
3.51770015
  0
VERTEX
  8
0
 10
5.14709465
 20
3.50236742
  0
VERTEX
  8
0
 10
5.11433908
 20
3.48492458
  0
VERTEX
  8
0
 10
5.08252333
 20
3.46546374
  0
VERTEX
  8
0
 10
5.05171336
 20
3.44407706
  0
VERTEX
  8
0
 10
5.02197514
 20
3.42085666
  0
VERTEX
  8
0
 10
4.99337462
 20
3.39589468
  0
VERTEX
  8
0
 10
4.96597779
 20
3.36928325
  0
VERTEX
  8
0
 10
4.93985060
 20
3.34111453
  0
VERTEX
  8
0
 10
4.91505902
 20
3.31148063
  0
VERTEX
  8
0
 10
4.89166901
 20
3.28047371
  0
VERTEX
  8
0
 10
4.86974653
 20
3.24818588
  0
VERTEX
  8
0
 10
4.84935756
 20
3.21470930
  0
VERTEX
  8
0
 10
4.83056805
 20
3.18013610
  0
VERTEX
  8
0
 10
4.81344398
 20
3.14455841
  0
VERTEX
  8
0
 10
4.79805130
 20
3.10806837
  0
VERTEX
  8
0
 10
4.78445599
 20
3.07075812
  0
VERTEX
  8
0
 10
4.77272400
 20
3.03271980
  0
VERTEX
  8
0
 10
4.76292131
 20
2.99404554
  0
VERTEX
  8
0
 10
4.75511387
 20
2.95482747
  0
VERTEX
  8
0
 10
4.74936766
 20
2.91515774
  0
VERTEX
  8
0
 10
4.74574863
 20
2.87512848
  0
VERTEX
  8
0
 10
4.74432276
 20
2.83483183
  0
VERTEX
  8
0
 10
4.74515600
 20
2.79435992
  0
VERTEX
  8
0
 10
4.74831433
 20
2.75380489
  0
VERTEX
  8
0
 10
4.75386370
 20
2.71325889
  0
VERTEX
  8
0
 10
4.76187008
 20
2.67281403
  0
VERTEX
  8
0
 10
4.77239945
 20
2.63256247
  0
VERTEX
  8
0
 10
4.78551775
 20
2.59259633
  0
VERTEX
  8
0
 10
4.80129096
 20
2.55300776
  0
VERTEX
  8
0
 10
4.81978505
 20
2.51388889
  0
VERTEX
  8
0
 10
4.84126459
 20
2.47523975
  0
VERTEX
  8
0
 10
4.86488906
 20
2.43905370
  0
VERTEX
  8
0
 10
4.89055239
 20
2.40518795
  0
VERTEX
  8
0
 10
4.91814852
 20
2.37349971
  0
VERTEX
  8
0
 10
4.94757137
 20
2.34384619
  0
VERTEX
  8
0
 10
4.97871489
 20
2.31608460
  0
VERTEX
  8
0
 10
5.01147300
 20
2.29007215
  0
VERTEX
  8
0
 10
5.04573964
 20
2.26566605
  0
VERTEX
  8
0
 10
5.08140874
 20
2.24272351
  0
VERTEX
  8
0
 10
5.11837423
 20
2.22110174
  0
VERTEX
  8
0
 10
5.19577013
 20
2.18124936
  0
VERTEX
  8
0
 10
5.27707881
 20
2.14496659
  0
VERTEX
  8
0
 10
5.36145172
 20
2.11111111
  0
VERTEX
  8
0
 10
5.34572608
 20
2.06353247
  0
VERTEX
  8
0
 10
5.33292384
 20
2.01513367
  0
VERTEX
  8
0
 10
5.32308578
 20
1.96617730
  0
VERTEX
  8
0
 10
5.31625266
 20
1.91692595
  0
VERTEX
  8
0
 10
5.31246526
 20
1.86764218
  0
VERTEX
  8
0
 10
5.31176434
 20
1.81858858
  0
VERTEX
  8
0
 10
5.31419068
 20
1.77002773
  0
VERTEX
  8
0
 10
5.31978505
 20
1.72222222
  0
VERTEX
  8
0
 10
5.32728456
 20
1.68018743
  0
VERTEX
  8
0
 10
5.33681124
 20
1.63986905
  0
VERTEX
  8
0
 10
5.34828881
 20
1.60125826
  0
VERTEX
  8
0
 10
5.36164100
 20
1.56434626
  0
VERTEX
  8
0
 10
5.37679154
 20
1.52912422
  0
VERTEX
  8
0
 10
5.39366414
 20
1.49558334
  0
VERTEX
  8
0
 10
5.41218255
 20
1.46371478
  0
VERTEX
  8
0
 10
5.43227047
 20
1.43350975
  0
VERTEX
  8
0
 10
5.45385166
 20
1.40495942
  0
VERTEX
  8
0
 10
5.47684982
 20
1.37805498
  0
VERTEX
  8
0
 10
5.50118869
 20
1.35278762
  0
VERTEX
  8
0
 10
5.52679199
 20
1.32914851
  0
VERTEX
  8
0
 10
5.55358345
 20
1.30712885
  0
VERTEX
  8
0
 10
5.58148680
 20
1.28671981
  0
VERTEX
  8
0
 10
5.61042576
 20
1.26791259
  0
VERTEX
  8
0
 10
5.64032406
 20
1.25069837
  0
VERTEX
  8
0
 10
5.67110543
 20
1.23506832
  0
VERTEX
  8
0
 10
5.70269359
 20
1.22101364
  0
VERTEX
  8
0
 10
5.73501228
 20
1.20852552
  0
VERTEX
  8
0
 10
5.76798521
 20
1.19759513
  0
VERTEX
  8
0
 10
5.80153612
 20
1.18821366
  0
VERTEX
  8
0
 10
5.83558873
 20
1.18037230
  0
VERTEX
  8
0
 10
5.87006677
 20
1.17406222
  0
VERTEX
  8
0
 10
5.90489397
 20
1.16927462
  0
VERTEX
  8
0
 10
5.93999404
 20
1.16600068
  0
VERTEX
  8
0
 10
5.97529073
 20
1.16423159
  0
VERTEX
  8
0
 10
6.04616884
 20
1.16517267
  0
VERTEX
  8
0
 10
6.11691811
 20
1.17202734
  0
VERTEX
  8
0
 10
6.18692836
 20
1.18472508
  0
VERTEX
  8
0
 10
6.25558939
 20
1.20319537
  0
VERTEX
  8
0
 10
6.28922327
 20
1.21457318
  0
VERTEX
  8
0
 10
6.32229103
 20
1.22736768
  0
VERTEX
  8
0
 10
6.35471639
 20
1.24157006
  0
VERTEX
  8
0
 10
6.38642309
 20
1.25717149
  0
VERTEX
  8
0
 10
6.41733484
 20
1.27416317
  0
VERTEX
  8
0
 10
6.44737539
 20
1.29253629
  0
VERTEX
  8
0
 10
6.47646844
 20
1.31228201
  0
VERTEX
  8
0
 10
6.50453773
 20
1.33339154
  0
VERTEX
  8
0
 10
6.53150699
 20
1.35585605
  0
VERTEX
  8
0
 10
6.55729994
 20
1.37966672
  0
VERTEX
  8
0
 10
6.58184031
 20
1.40481475
  0
VERTEX
  8
0
 10
6.60505183
 20
1.43129132
  0
VERTEX
  8
0
 10
6.62685823
 20
1.45908761
  0
VERTEX
  8
0
 10
6.64718322
 20
1.48819481
  0
VERTEX
  8
0
 10
6.66595054
 20
1.51860409
  0
VERTEX
  8
0
 10
6.68308392
 20
1.55030666
  0
VERTEX
  8
0
 10
6.69850707
 20
1.58329368
  0
VERTEX
  8
0
 10
6.71214374
 20
1.61755636
  0
VERTEX
  8
0
 10
6.72391764
 20
1.65308586
  0
VERTEX
  8
0
 10
6.73375250
 20
1.68987337
  0
VERTEX
  8
0
 10
6.74157205
 20
1.72791009
  0
VERTEX
  8
0
 10
6.74730002
 20
1.76718719
  0
VERTEX
  8
0
 10
6.75086012
 20
1.80769586
  0
VERTEX
  8
0
 10
6.75217610
 20
1.84942729
  0
VERTEX
  8
0
 10
6.75117168
 20
1.89237265
  0
VERTEX
  8
0
 10
6.74777058
 20
1.93652313
  0
VERTEX
  8
0
 10
6.74189652
 20
1.98186993
  0
VERTEX
  8
0
 10
6.73347325
 20
2.02840421
  0
VERTEX
  8
0
 10
6.72242448
 20
2.07611718
  0
VERTEX
  8
0
 10
6.70867394
 20
2.12500000
  0
VERTEX
  8
0
 10
6.74380567
 20
2.13021820
  0
VERTEX
  8
0
 10
6.77781498
 20
2.13694516
  0
VERTEX
  8
0
 10
6.81070453
 20
2.14513418
  0
VERTEX
  8
0
 10
6.84247701
 20
2.15473858
  0
VERTEX
  8
0
 10
6.87313510
 20
2.16571167
  0
VERTEX
  8
0
 10
6.90268147
 20
2.17800678
  0
VERTEX
  8
0
 10
6.93111881
 20
2.19157722
  0
VERTEX
  8
0
 10
6.95844979
 20
2.20637630
  0
VERTEX
  8
0
 10
6.98467709
 20
2.22235735
  0
VERTEX
  8
0
 10
7.00980339
 20
2.23947366
  0
VERTEX
  8
0
 10
7.03383137
 20
2.25767857
  0
VERTEX
  8
0
 10
7.05676371
 20
2.27692539
  0
VERTEX
  8
0
 10
7.09935218
 20
2.31835802
  0
VERTEX
  8
0
 10
7.13759023
 20
2.36339806
  0
VERTEX
  8
0
 10
7.17149929
 20
2.41167205
  0
VERTEX
  8
0
 10
7.20110078
 20
2.46280652
  0
VERTEX
  8
0
 10
7.22641615
 20
2.51642800
  0
VERTEX
  8
0
 10
7.24746682
 20
2.57216300
  0
VERTEX
  8
0
 10
7.26427421
 20
2.62963805
  0
VERTEX
  8
0
 10
7.27685977
 20
2.68847969
  0
VERTEX
  8
0
 10
7.28524492
 20
2.74831444
  0
VERTEX
  8
0
 10
7.28945110
 20
2.80876883
  0
VERTEX
  8
0
 10
7.28949972
 20
2.86946938
  0
VERTEX
  8
0
 10
7.28541223
 20
2.93004262
  0
VERTEX
  8
0
 10
7.27721006
 20
2.99011508
  0
VERTEX
  8
0
 10
7.26491462
 20
3.04931328
  0
VERTEX
  8
0
 10
7.24854737
 20
3.10726375
  0
VERTEX
  8
0
 10
7.22812971
 20
3.16359302
  0
VERTEX
  8
0
 10
7.20368310
 20
3.21792762
  0
VERTEX
  8
0
 10
7.17522894
 20
3.26989407
  0
VERTEX
  8
0
 10
7.14278869
 20
3.31911890
  0
VERTEX
  8
0
 10
7.10638376
 20
3.36522863
  0
VERTEX
  8
0
 10
7.06603559
 20
3.40784980
  0
VERTEX
  8
0
 10
7.02176561
 20
3.44660892
  0
VERTEX
  8
0
 10
6.97359524
 20
3.48113253
  0
VERTEX
  8
0
 10
6.94805411
 20
3.49668931
  0
VERTEX
  8
0
 10
6.92154592
 20
3.51104716
  0
VERTEX
  8
0
 10
6.89407336
 20
3.52415939
  0
VERTEX
  8
0
 10
6.86563909
 20
3.53597932
  0
VERTEX
  8
0
 10
6.83624580
 20
3.54646027
  0
VERTEX
  8
0
 10
6.80589616
 20
3.55555556
  0
VERTEX
  8
0
 10
6.80589616
 20
6.79166667
  0
VERTEX
  8
0
 10
7.59756283
 20
6.79166667
  0
VERTEX
  8
0
 10
7.60290865
 20
6.75614110
  0
VERTEX
  8
0
 10
7.60994503
 20
6.72197726
  0
VERTEX
  8
0
 10
7.61861627
 20
6.68916613
  0
VERTEX
  8
0
 10
7.62886671
 20
6.65769876
  0
VERTEX
  8
0
 10
7.64064067
 20
6.62756614
  0
VERTEX
  8
0
 10
7.65388247
 20
6.59875929
  0
VERTEX
  8
0
 10
7.66853643
 20
6.57126923
  0
VERTEX
  8
0
 10
7.68454688
 20
6.54508697
  0
VERTEX
  8
0
 10
7.70185814
 20
6.52020353
  0
VERTEX
  8
0
 10
7.72041453
 20
6.49660992
  0
VERTEX
  8
0
 10
7.74016037
 20
6.47429716
  0
VERTEX
  8
0
 10
7.76104000
 20
6.45325627
  0
VERTEX
  8
0
 10
7.78299773
 20
6.43347824
  0
VERTEX
  8
0
 10
7.80597789
 20
6.41495411
  0
VERTEX
  8
0
 10
7.82992479
 20
6.39767489
  0
VERTEX
  8
0
 10
7.85478276
 20
6.38163159
  0
VERTEX
  8
0
 10
7.90700922
 20
6.35321681
  0
VERTEX
  8
0
 10
7.96221184
 20
6.32963790
  0
VERTEX
  8
0
 10
8.01994521
 20
6.31082297
  0
VERTEX
  8
0
 10
8.07976391
 20
6.29670015
  0
VERTEX
  8
0
 10
8.14122253
 20
6.28719754
  0
VERTEX
  8
0
 10
8.20387565
 20
6.28224328
  0
VERTEX
  8
0
 10
8.26727786
 20
6.28176548
  0
VERTEX
  8
0
 10
8.33098374
 20
6.28569226
  0
VERTEX
  8
0
 10
8.39454787
 20
6.29395174
  0
VERTEX
  8
0
 10
8.45752485
 20
6.30647204
  0
VERTEX
  8
0
 10
8.51946926
 20
6.32318128
  0
VERTEX
  8
0
 10
8.57993567
 20
6.34400757
  0
VERTEX
  8
0
 10
8.63847869
 20
6.36887904
  0
VERTEX
  8
0
 10
8.69465288
 20
6.39772381
  0
VERTEX
  8
0
 10
8.74801284
 20
6.43046998
  0
VERTEX
  8
0
 10
8.79811314
 20
6.46704570
  0
VERTEX
  8
0
 10
8.84450839
 20
6.50737906
  0
VERTEX
  8
0
 10
8.88675315
 20
6.55139820
  0
VERTEX
  8
0
 10
8.90617991
 20
6.57476747
  0
VERTEX
  8
0
 10
8.92440202
 20
6.59903122
  0
VERTEX
  8
0
 10
8.94136380
 20
6.62418048
  0
VERTEX
  8
0
 10
8.95700957
 20
6.65020626
  0
VERTEX
  8
0
 10
8.97128367
 20
6.67709957
  0
VERTEX
  8
0
 10
8.98413040
 20
6.70485143
  0
VERTEX
  8
0
 10
8.99549410
 20
6.73345284
  0
VERTEX
  8
0
 10
9.00531909
 20
6.76289484
  0
VERTEX
  8
0
 10
9.01354969
 20
6.79316843
  0
VERTEX
  8
0
 10
9.02013022
 20
6.82426462
  0
VERTEX
  8
0
 10
9.02500501
 20
6.85617444
  0
VERTEX
  8
0
 10
9.02811838
 20
6.88888889
  0
VERTEX
  8
0
 10
9.06836522
 20
6.87394232
  0
VERTEX
  8
0
 10
9.11013414
 20
6.86217234
  0
VERTEX
  8
0
 10
9.15308994
 20
6.85342451
  0
VERTEX
  8
0
 10
9.19689743
 20
6.84754437
  0
VERTEX
  8
0
 10
9.24122141
 20
6.84437749
  0
VERTEX
  8
0
 10
9.28572669
 20
6.84376941
  0
VERTEX
  8
0
 10
9.33007806
 20
6.84556569
  0
VERTEX
  8
0
 10
9.37394033
 20
6.84961188
  0
VERTEX
  8
0
 10
9.41697831
 20
6.85575353
  0
VERTEX
  8
0
 10
9.45885679
 20
6.86383620
  0
VERTEX
  8
0
 10
9.49924058
 20
6.87370543
  0
VERTEX
  8
0
 10
9.53779448
 20
6.88520679
  0
VERTEX
  8
0
 10
9.57418330
 20
6.89818581
  0
VERTEX
  8
0
 10
9.60807183
 20
6.91248806
  0
VERTEX
  8
0
 10
9.63912489
 20
6.92795909
  0
VERTEX
  8
0
 10
9.66700727
 20
6.94444444
  0
VERTEX
  8
0
 10
9.69818413
 20
6.96566196
  0
VERTEX
  8
0
 10
9.72766981
 20
6.98786155
  0
VERTEX
  8
0
 10
9.75548259
 20
7.01099379
  0
VERTEX
  8
0
 10
9.78164073
 20
7.03500922
  0
VERTEX
  8
0
 10
9.80616250
 20
7.05985840
  0
VERTEX
  8
0
 10
9.82906619
 20
7.08549190
  0
VERTEX
  8
0
 10
9.85037007
 20
7.11186026
  0
VERTEX
  8
0
 10
9.87009240
 20
7.13891404
  0
VERTEX
  8
0
 10
9.88825146
 20
7.16660380
  0
VERTEX
  8
0
 10
9.90486552
 20
7.19488009
  0
VERTEX
  8
0
 10
9.91995286
 20
7.22369347
  0
VERTEX
  8
0
 10
9.93353175
 20
7.25299450
  0
VERTEX
  8
0
 10
9.94562046
 20
7.28273373
  0
VERTEX
  8
0
 10
9.95623726
 20
7.31286173
  0
VERTEX
  8
0
 10
9.97312825
 20
7.37408621
  0
VERTEX
  8
0
 10
9.98435089
 20
7.43627241
  0
VERTEX
  8
0
 10
9.99005136
 20
7.49902477
  0
VERTEX
  8
0
 10
9.99037586
 20
7.56194774
  0
VERTEX
  8
0
 10
9.98547056
 20
7.62464577
  0
VERTEX
  8
0
 10
9.97548165
 20
7.68672331
  0
VERTEX
  8
0
 10
9.96055530
 20
7.74778482
  0
VERTEX
  8
0
 10
9.94083771
 20
7.80743473
  0
VERTEX
  8
0
 10
9.91647506
 20
7.86527751
  0
VERTEX
  8
0
 10
9.88761352
 20
7.92091760
  0
VERTEX
  8
0
 10
9.85439929
 20
7.97395944
  0
VERTEX
  8
0
 10
9.81697855
 20
8.02400750
  0
VERTEX
  8
0
 10
9.77549747
 20
8.07066622
  0
VERTEX
  8
0
 10
9.73010225
 20
8.11354006
  0
VERTEX
  8
0
 10
9.68093906
 20
8.15223345
  0
VERTEX
  8
0
 10
9.62815409
 20
8.18635085
  0
VERTEX
  8
0
 10
9.60044912
 20
8.20156995
  0
VERTEX
  8
0
 10
9.57189353
 20
8.21549672
  0
VERTEX
  8
0
 10
9.54250558
 20
8.22808171
  0
VERTEX
  8
0
 10
9.51230355
 20
8.23927549
  0
VERTEX
  8
0
 10
9.48130571
 20
8.24902861
  0
VERTEX
  8
0
 10
9.44953034
 20
8.25729163
  0
VERTEX
  8
0
 10
9.41699570
 20
8.26401510
  0
VERTEX
  8
0
 10
9.38372008
 20
8.26914957
  0
VERTEX
  8
0
 10
9.34972174
 20
8.27264562
  0
VERTEX
  8
0
 10
9.31501896
 20
8.27445378
  0
VERTEX
  8
0
 10
9.27963001
 20
8.27452463
  0
VERTEX
  8
0
 10
9.24357316
 20
8.27280870
  0
VERTEX
  8
0
 10
9.20686668
 20
8.26925657
  0
VERTEX
  8
0
 10
9.16952885
 20
8.26381878
  0
VERTEX
  8
0
 10
9.13157795
 20
8.25644590
  0
VERTEX
  8
0
 10
9.09303224
 20
8.24708847
  0
VERTEX
  8
0
 10
9.05391000
 20
8.23569706
  0
VERTEX
  8
0
 10
9.01422949
 20
8.22222222
  0
VERTEX
  8
0
 10
9.00985954
 20
8.25837632
  0
VERTEX
  8
0
 10
9.00392099
 20
8.29335868
  0
VERTEX
  8
0
 10
8.99646213
 20
8.32717314
  0
VERTEX
  8
0
 10
8.98753123
 20
8.35982351
  0
VERTEX
  8
0
 10
8.97717657
 20
8.39131364
  0
VERTEX
  8
0
 10
8.96544643
 20
8.42164735
  0
VERTEX
  8
0
 10
8.95238908
 20
8.45082845
  0
VERTEX
  8
0
 10
8.93805280
 20
8.47886079
  0
VERTEX
  8
0
 10
8.92248587
 20
8.50574819
  0
VERTEX
  8
0
 10
8.90573656
 20
8.53149447
  0
VERTEX
  8
0
 10
8.88785316
 20
8.55610347
  0
VERTEX
  8
0
 10
8.86888392
 20
8.57957901
  0
VERTEX
  8
0
 10
8.84887714
 20
8.60192491
  0
VERTEX
  8
0
 10
8.82788110
 20
8.62314501
  0
VERTEX
  8
0
 10
8.78311430
 20
8.66222310
  0
VERTEX
  8
0
 10
8.73496973
 20
8.69684391
  0
VERTEX
  8
0
 10
8.68383363
 20
8.72703804
  0
VERTEX
  8
0
 10
8.63009219
 20
8.75283612
  0
VERTEX
  8
0
 10
8.57413162
 20
8.77426876
  0
VERTEX
  8
0
 10
8.51633816
 20
8.79136659
  0
VERTEX
  8
0
 10
8.45709800
 20
8.80416022
  0
VERTEX
  8
0
 10
8.39679736
 20
8.81268028
  0
VERTEX
  8
0
 10
8.33582245
 20
8.81695737
  0
VERTEX
  8
0
 10
8.27455949
 20
8.81702212
  0
VERTEX
  8
0
 10
8.21339470
 20
8.81290515
  0
VERTEX
  8
0
 10
8.15271427
 20
8.80463708
  0
VERTEX
  8
0
 10
8.09290444
 20
8.79224853
  0
VERTEX
  8
0
 10
8.03435140
 20
8.77577011
  0
VERTEX
  8
0
 10
7.97744138
 20
8.75523244
  0
VERTEX
  8
0
 10
7.92256059
 20
8.73066614
  0
VERTEX
  8
0
 10
7.87009524
 20
8.70210184
  0
VERTEX
  8
0
 10
7.82043155
 20
8.66957014
  0
VERTEX
  8
0
 10
7.77395572
 20
8.63310168
  0
VERTEX
  8
0
 10
7.73105397
 20
8.59272706
  0
VERTEX
  8
0
 10
7.69211252
 20
8.54847691
  0
VERTEX
  8
0
 10
7.65751758
 20
8.50038184
  0
VERTEX
  8
0
 10
7.64197074
 20
8.47490203
  0
VERTEX
  8
0
 10
7.62765536
 20
8.44847247
  0
VERTEX
  8
0
 10
7.61461971
 20
8.42109700
  0
VERTEX
  8
0
 10
7.60291207
 20
8.39277943
  0
VERTEX
  8
0
 10
7.59258072
 20
8.36352360
  0
VERTEX
  8
0
 10
7.58367394
 20
8.33333333
  0
VERTEX
  8
0
 10
6.80589616
 20
8.33333333
  0
VERTEX
  8
0
 10
6.80589616
 20
8.73611111
  0
VERTEX
  8
0
 10
6.84088976
 20
8.74204713
  0
VERTEX
  8
0
 10
6.87452371
 20
8.74962244
  0
VERTEX
  8
0
 10
6.90680772
 20
8.75878294
  0
VERTEX
  8
0
 10
6.93775149
 20
8.76947454
  0
VERTEX
  8
0
 10
6.96736472
 20
8.78164311
  0
VERTEX
  8
0
 10
6.99565712
 20
8.79523457
  0
VERTEX
  8
0
 10
7.02263838
 20
8.81019481
  0
VERTEX
  8
0
 10
7.04831821
 20
8.82646972
  0
VERTEX
  8
0
 10
7.07270631
 20
8.84400521
  0
VERTEX
  8
0
 10
7.09581238
 20
8.86274716
  0
VERTEX
  8
0
 10
7.11764613
 20
8.88264147
  0
VERTEX
  8
0
 10
7.13821726
 20
8.90363404
  0
VERTEX
  8
0
 10
7.15753546
 20
8.92567078
  0
VERTEX
  8
0
 10
7.17561045
 20
8.94869756
  0
VERTEX
  8
0
 10
7.19245191
 20
8.97266029
  0
VERTEX
  8
0
 10
7.20806957
 20
8.99750488
  0
VERTEX
  8
0
 10
7.23567224
 20
9.04962316
  0
VERTEX
  8
0
 10
7.25849609
 20
9.10461959
  0
VERTEX
  8
0
 10
7.27661872
 20
9.16206133
  0
VERTEX
  8
0
 10
7.29011775
 20
9.22151556
  0
VERTEX
  8
0
 10
7.29907080
 20
9.28254945
  0
VERTEX
  8
0
 10
7.30355550
 20
9.34473016
  0
VERTEX
  8
0
 10
7.30364944
 20
9.40762488
  0
VERTEX
  8
0
 10
7.29943026
 20
9.47080077
  0
VERTEX
  8
0
 10
7.29097558
 20
9.53382501
  0
VERTEX
  8
0
 10
7.27836300
 20
9.59626476
  0
VERTEX
  8
0
 10
7.26167014
 20
9.65768720
  0
VERTEX
  8
0
 10
7.24097463
 20
9.71765950
  0
VERTEX
  8
0
 10
7.21635408
 20
9.77574883
  0
VERTEX
  8
0
 10
7.18788610
 20
9.83152236
  0
VERTEX
  8
0
 10
7.15564832
 20
9.88454727
  0
VERTEX
  8
0
 10
7.11971835
 20
9.93439073
  0
VERTEX
  8
0
 10
7.08017382
 20
9.98061990
  0
VERTEX
  8
0
 10
7.03709232
 20
10.02280197
  0
VERTEX
  8
0
 10
6.99055150
 20
10.06050409
  0
VERTEX
  8
0
 10
6.96600809
 20
10.07753992
  0
VERTEX
  8
0
 10
6.94062895
 20
10.09329345
  0
VERTEX
  8
0
 10
6.91442379
 20
10.10771059
  0
VERTEX
  8
0
 10
6.88740231
 20
10.12073722
  0
VERTEX
  8
0
 10
6.85957420
 20
10.13231924
  0
VERTEX
  8
0
 10
6.83094918
 20
10.14240256
  0
VERTEX
  8
0
 10
6.80153694
 20
10.15093307
  0
VERTEX
  8
0
 10
6.77134718
 20
10.15785665
  0
VERTEX
  8
0
 10
6.74038961
 20
10.16311922
  0
VERTEX
  8
0
 10
6.70867394
 20
10.16666667
  0
VERTEX
  8
0
 10
6.71829416
 20
10.21025761
  0
VERTEX
  8
0
 10
6.72597563
 20
10.25311476
  0
VERTEX
  8
0
 10
6.73176617
 20
10.29521788
  0
VERTEX
  8
0
 10
6.73571358
 20
10.33654672
  0
VERTEX
  8
0
 10
6.73786565
 20
10.37708105
  0
VERTEX
  8
0
 10
6.73827019
 20
10.41680062
  0
VERTEX
  8
0
 10
6.73697501
 20
10.45568519
  0
VERTEX
  8
0
 10
6.73402790
 20
10.49371453
  0
VERTEX
  8
0
 10
6.72947667
 20
10.53086839
  0
VERTEX
  8
0
 10
6.72336913
 20
10.56712654
  0
VERTEX
  8
0
 10
6.71575306
 20
10.60246872
  0
VERTEX
  8
0
 10
6.70667629
 20
10.63687471
  0
VERTEX
  8
0
 10
6.69618660
 20
10.67032425
  0
VERTEX
  8
0
 10
6.68433181
 20
10.70279712
  0
VERTEX
  8
0
 10
6.67115971
 20
10.73427306
  0
VERTEX
  8
0
 10
6.65671811
 20
10.76473185
  0
VERTEX
  8
0
 10
6.64105481
 20
10.79415323
  0
VERTEX
  8
0
 10
6.62421762
 20
10.82251697
  0
VERTEX
  8
0
 10
6.60625433
 20
10.84980283
  0
VERTEX
  8
0
 10
6.58721275
 20
10.87599056
  0
VERTEX
  8
0
 10
6.54608592
 20
10.92499070
  0
VERTEX
  8
0
 10
6.50121957
 20
10.96935546
  0
VERTEX
  8
0
 10
6.45299610
 20
11.00892292
  0
VERTEX
  8
0
 10
6.40179795
 20
11.04353115
  0
VERTEX
  8
0
 10
6.34800753
 20
11.07301822
  0
VERTEX
  8
0
 10
6.29200727
 20
11.09722222
  0
SEQEND
  0
ENDSEC
  0
EOF
