  0
SECTION
  2
HEADER
  9
$ACADVER
  1
AC1006
  9
$DWGCODEPAGE
  3
ansi_1252
  9
$INSBASE
 10
0.0
 20
0.0
 30
0.0
  9
$EXTMIN
 10
0.0131436373687171
 20
-0.0011616121346996
  9
$EXTMAX
 10
7.844888415411242
 20
6.694407797884862
  9
$LIMMIN
 10
0.0
 20
0.0
  9
$LIMMAX
 10
12.0
 20
9.0
  9
$ORTHOMODE
 70
     0
  9
$REGENMODE
 70
     1
  9
$FILLMODE
 70
     1
  9
$QTEXTMODE
 70
     0
  9
$MIRRTEXT
 70
     1
  9
$DRAGMODE
 70
     2
  9
$LTSCALE
 40
0.000394
  9
$OSMODE
 70
    37
  9
$ATTMODE
 70
     1
  9
$TEXTSIZE
 40
0.2
  9
$TRACEWID
 40
0.05
  9
$TEXTSTYLE
  7
STANDARD
  9
$CLAYER
  8
1
  9
$CELTYPE
  6
BYBLOCK
  9
$CECOLOR
 62
   256
  9
$DIMSCALE
 40
1.0
  9
$DIMASZ
 40
0.18
  9
$DIMEXO
 40
0.0625
  9
$DIMDLI
 40
0.38
  9
$DIMRND
 40
0.0
  9
$DIMDLE
 40
0.0
  9
$DIMEXE
 40
0.18
  9
$DIMTP
 40
0.0
  9
$DIMTM
 40
0.0
  9
$DIMTXT
 40
0.18
  9
$DIMCEN
 40
0.09
  9
$DIMTSZ
 40
0.0
  9
$DIMTOL
 70
     0
  9
$DIMLIM
 70
     0
  9
$DIMTIH
 70
     1
  9
$DIMTOH
 70
     1
  9
$DIMSE1
 70
     0
  9
$DIMSE2
 70
     0
  9
$DIMTAD
 70
     0
  9
$DIMZIN
 70
     0
  9
$DIMBLK
  1

  9
$DIMASO
 70
     1
  9
$DIMSHO
 70
     1
  9
$DIMPOST
  1

  9
$DIMAPOST
  1

  9
$DIMALT
 70
     0
  9
$DIMALTD
 70
     2
  9
$DIMALTF
 40
25.4
  9
$DIMLFAC
 40
1.0
  9
$DIMTOFL
 70
     0
  9
$DIMTVP
 40
0.0
  9
$DIMTIX
 70
     0
  9
$DIMSOXD
 70
     0
  9
$DIMSAH
 70
     0
  9
$DIMBLK1
  1

  9
$DIMBLK2
  1

  9
$LUNITS
 70
     2
  9
$LUPREC
 70
     4
  9
$SKETCHINC
 40
0.1
  9
$FILLETRAD
 40
0.5
  9
$AUNITS
 70
     0
  9
$AUPREC
 70
     0
  9
$MENU
  1
.
  9
$ELEVATION
 40
0.0
  9
$THICKNESS
 40
0.0
  9
$LIMCHECK
 70
     0
  9
$CHAMFERA
 40
0.5
  9
$CHAMFERB
 40
0.5
  9
$SKPOLY
 70
     0
  9
$TDCREATE
 40
2453353.508792488
  9
$TDUPDATE
 40
9763803.850965926
  9
$TDINDWG
 40
9763088.046677036
  9
$TDUSRTIMER
 40
9763088.046677036
  9
$USRTIMER
 70
     1
  9
$ANGBASE
 50
0.0
  9
$ANGDIR
 70
     0
  9
$PDMODE
 70
    35
  9
$PDSIZE
 40
0.000315
  9
$PLINEWID
 40
0.0
  9
$COORDS
 70
     1
  9
$SPLFRAME
 70
     0
  9
$SPLINETYPE
 70
     6
  9
$SPLINESEGS
 70
     8
  9
$ATTDIA
 70
     0
  9
$ATTREQ
 70
     1
  9
$HANDLING
 70
     1
  9
$HANDSEED
  5
403C
  9
$SURFTAB1
 70
     6
  9
$SURFTAB2
 70
     6
  9
$SURFTYPE
 70
     6
  9
$SURFU
 70
     6
  9
$SURFV
 70
     6
  9
$UCSNAME
  2

  9
$UCSORG
 10
0.0
 20
0.0
 30
0.0
  9
$UCSXDIR
 10
1.0
 20
0.0
 30
0.0
  9
$UCSYDIR
 10
0.0
 20
1.0
 30
0.0
  9
$USERI1
 70
     0
  9
$USERI2
 70
     0
  9
$USERI3
 70
     0
  9
$USERI4
 70
     0
  9
$USERI5
 70
     0
  9
$USERR1
 40
0.0
  9
$USERR2
 40
0.0
  9
$USERR3
 40
0.0
  9
$USERR4
 40
0.0
  9
$USERR5
 40
0.0
  9
$WORLDVIEW
 70
     1
  0
ENDSEC
  0
SECTION
  2
TABLES
  0
TABLE
  2
VPORT
 70
     1
  0
VPORT
  2
*ACTIVE
 70
     0
 10
0.0
 20
0.0
 11
1.0
 21
1.0
 12
3.796163025163707
 22
3.426293848373708
 13
0.0
 23
0.0
 14
0.5
 24
0.5
 15
0.5
 25
0.5
 16
0.0
 26
0.0
 36
1.0
 17
0.0
 27
0.0
 37
0.0
 40
7.124010507817081
 41
1.972972972850329
 42
50.0
 43
0.0
 44
0.0
 50
0.0
 51
0.0
 71
    16
 72
   100
 73
     1
 74
     1
 75
     0
 76
     0
 77
     0
 78
     0
  0
ENDTAB
  0
TABLE
  2
LTYPE
 70
    10
  0
LTYPE
  2
CONTINUOUS
 70
     0
  3
Solid line
 72
    65
 73
     0
 40
0.0
  0
LTYPE
  2
DASHED
 70
     0
  3
__ __ __ __ __ __ __ __ __ __ __ __ __ __ __
 72
    65
 73
     2
 40
0.000003
 49
0.000002
 49
-0.000001
  0
LTYPE
  2
HIDDEN
 70
     0
  3
 _ _ _ _ _ _ _ _ _ _ _ _ _ _ _ _ _ _ _ _ _ _
 72
    65
 73
     2
 40
0.000001
 49
0.000001
 49
0.0
  0
LTYPE
  2
CENTER
 70
     0
  3
____ _ ____ _ ____ _ ____ _ ____ _ ____ _ ____
 72
    65
 73
     4
 40
0.000008
 49
0.000005
 49
-0.000001
 49
0.000001
 49
-0.000001
  0
LTYPE
  2
PHANTOM
 70
     0
  3
_____ _ _ _____ _ _ _____ _ _ _____ _ _ ____
 72
    65
 73
     6
 40
0.00001
 49
0.000005
 49
-0.000001
 49
0.000001
 49
-0.000001
 49
0.000001
 49
-0.000001
  0
LTYPE
  2
DOT
 70
     0
  3
...............................................
 72
    65
 73
     2
 40
0.000001
 49
0.0
 49
-0.000001
  0
LTYPE
  2
DASHDOT
 70
     0
  3
__ . __ . __ . __ . __ . __ . __ . __ . __ . __
 72
    65
 73
     4
 40
0.000004
 49
0.000002
 49
-0.000001
 49
0.0
 49
-0.000001
  0
LTYPE
  2
BORDER
 70
     0
  3
__ __ . __ __ . __ __ . __ __ . __ __ . __ __
 72
    65
 73
     6
 40
0.000007
 49
0.000002
 49
-0.000001
 49
0.000002
 49
-0.000001
 49
0.0
 49
-0.000001
  0
LTYPE
  2
DIVIDE
 70
     0
  3
__ . . __ . . __ . . __ . . __ . . __ . . __
 72
    65
 73
     6
 40
0.000005
 49
0.000002
 49
-0.000001
 49
0.0
 49
-0.000001
 49
0.0
 49
-0.000001
  0
LTYPE
  2
DOTDOT
 70
     0
  3
 . .  . .  . .  . .  . .  . . 
 72
    65
 73
     5
 40
0.000003
 49
-0.000001
 49
0.0
 49
-0.000001
 49
0.0
 49
-0.000001
  0
ENDTAB
  0
TABLE
  2
LAYER
 70
     6
  0
LAYER
  2
0
 70
     0
 62
     7
  6
CONTINUOUS
  0
LAYER
  2
FOREGROUND
 70
     0
 62
     7
  6
CONTINUOUS
  0
LAYER
  2
BACKGROUND
 70
     1
 62
    -7
  6
CONTINUOUS
  0
LAYER
  2
LAYER_1
 70
     0
 62
     7
  6
CONTINUOUS
  0
LAYER
  2
2
 70
     0
 62
     7
  6
CONTINUOUS
  0
LAYER
  2
1
 70
     0
 62
     7
  6
CONTINUOUS
  0
ENDTAB
  0
TABLE
  2
STYLE
 70
     1
  0
STYLE
  2
STANDARD
 70
     0
 40
0.0
 41
1.0
 50
0.0
 71
     0
 42
0.2
  3
txt
  4

  0
ENDTAB
  0
TABLE
  2
VIEW
 70
     0
  0
ENDTAB
  0
TABLE
  2
UCS
 70
     0
  0
ENDTAB
  0
ENDSEC
  0
SECTION
  2
BLOCKS
  0
ENDSEC
  0
SECTION
  2
ENTITIES
  0
POLYLINE
  5
2BDC
  8
2
  6
BYBLOCK
 62
     2
 66
     1
 10
0.0
 20
0.0
 30
0.0
 70
     1
  0
VERTEX
  5
3D95
  8
2
  6
BYBLOCK
 62
     2
 10
0.5866316148988355
 20
5.926215755478619
 30
0.0
  0
VERTEX
  5
3D96
  8
2
  6
BYBLOCK
 62
     2
 10
0.6914662141819881
 20
5.981842277547232
 30
0.0
  0
VERTEX
  5
3D97
  8
2
  6
BYBLOCK
 62
     2
 10
0.7919850554076798
 20
6.037199095240132
 30
0.0
  0
VERTEX
  5
3D98
  8
2
  6
BYBLOCK
 62
     2
 10
1.022354766761962
 20
6.137521388894417
 30
0.0
  0
VERTEX
  5
3D99
  8
2
  6
BYBLOCK
 62
     2
 10
1.165288317552547
 20
6.188702842427762
 30
0.0
  0
VERTEX
  5
3D9A
  8
2
  6
BYBLOCK
 62
     2
 10
1.328895108483384
 20
6.245274963560129
 30
0.0
  0
VERTEX
  5
3D9B
  8
2
  6
BYBLOCK
 62
     2
 10
1.562980460343381
 20
6.319587773674414
 30
0.0
  0
VERTEX
  5
3D9C
  8
2
  6
BYBLOCK
 62
     2
 10
1.759909407146233
 20
6.382753662271555
 30
0.0
  0
VERTEX
  5
3D9D
  8
2
  6
BYBLOCK
 62
     2
 10
1.921700531797367
 20
6.436064264039093
 30
0.0
  0
VERTEX
  5
3D9E
  8
2
  6
BYBLOCK
 62
     2
 10
2.120317928536398
 20
6.498501273229528
 30
0.0
  0
VERTEX
  5
3D9F
  8
2
  6
BYBLOCK
 62
     2
 10
2.268703082980532
 20
6.543371874172472
 30
0.0
  0
VERTEX
  5
3DA0
  8
2
  6
BYBLOCK
 62
     2
 10
2.3977715341105
 20
6.572940045456726
 30
0.0
  0
VERTEX
  5
3DA1
  8
2
  6
BYBLOCK
 62
     2
 10
2.564260609434456
 20
6.602483379463257
 30
0.0
  0
VERTEX
  5
3DA2
  8
2
  6
BYBLOCK
 62
     2
 10
2.781002795500667
 20
6.641891049657113
 30
0.0
  0
VERTEX
  5
3DA3
  8
2
  6
BYBLOCK
 62
     2
 10
3.083596760913867
 20
6.678721666059193
 30
0.0
  0
VERTEX
  5
3DA4
  8
2
  6
BYBLOCK
 62
     2
 10
3.307684358423436
 20
6.687685169959576
 30
0.0
  0
VERTEX
  5
3DA5
  8
2
  6
BYBLOCK
 62
     2
 10
3.56538509555944
 20
6.694407797884862
 30
0.0
  0
VERTEX
  5
3DA6
  8
2
  6
BYBLOCK
 62
     2
 10
3.773786561243339
 20
6.68544429398448
 30
0.0
  0
VERTEX
  5
3DA7
  8
2
  6
BYBLOCK
 62
     2
 10
3.923925251574749
 20
6.671999038133906
 30
0.0
  0
VERTEX
  5
3DA8
  8
2
  6
BYBLOCK
 62
     2
 10
4.109917957507691
 20
6.640626774482567
 30
0.0
  0
VERTEX
  5
3DA9
  8
2
  6
BYBLOCK
 62
     2
 10
4.316078547216494
 20
6.600291006930844
 30
0.0
  0
VERTEX
  5
3DAA
  8
2
  6
BYBLOCK
 62
     2
 10
4.508793881074725
 20
6.559955239379121
 30
0.0
  0
VERTEX
  5
3DAB
  8
2
  6
BYBLOCK
 62
     2
 10
4.703455619207451
 20
6.510809581813964
 30
0.0
  0
VERTEX
  5
3DAC
  8
2
  6
BYBLOCK
 62
     2
 10
4.936077120966306
 20
6.430845940584357
 30
0.0
  0
VERTEX
  5
3DAD
  8
2
  6
BYBLOCK
 62
     2
 10
5.145463007132064
 20
6.346333523203189
 30
0.0
  0
VERTEX
  5
3DAE
  8
2
  6
BYBLOCK
 62
     2
 10
5.314087061324447
 20
6.270918658125144
 30
0.0
  0
VERTEX
  5
3DAF
  8
2
  6
BYBLOCK
 62
     2
 10
5.460724368682917
 20
6.188702842427762
 30
0.0
  0
VERTEX
  5
3DB0
  8
2
  6
BYBLOCK
 62
     2
 10
5.575786250803159
 20
6.132799641455823
 30
0.0
  0
VERTEX
  5
3DB1
  8
2
  6
BYBLOCK
 62
     2
 10
5.716874224942985
 20
6.050775996749264
 30
0.0
  0
VERTEX
  5
3DB2
  8
2
  6
BYBLOCK
 62
     2
 10
5.874504905718411
 20
5.952256821264623
 30
0.0
  0
VERTEX
  5
3DB3
  8
2
  6
BYBLOCK
 62
     2
 10
5.997412722741085
 20
5.871100451977111
 30
0.0
  0
VERTEX
  5
3DB4
  8
2
  6
BYBLOCK
 62
     2
 10
6.142801161340369
 20
5.776597966887578
 30
0.0
  0
VERTEX
  5
3DB5
  8
2
  6
BYBLOCK
 62
     2
 10
6.314474299233787
 20
5.638058088948626
 30
0.0
  0
VERTEX
  5
3DB6
  8
2
  6
BYBLOCK
 62
     2
 10
6.448116882398866
 20
5.514898777408864
 30
0.0
  0
VERTEX
  5
3DB7
  8
2
  6
BYBLOCK
 62
     2
 10
6.593505320998152
 20
5.340432651089722
 30
0.0
  0
VERTEX
  5
3DB8
  8
2
  6
BYBLOCK
 62
     2
 10
6.69527722801765
 20
5.173235946700546
 30
0.0
  0
VERTEX
  5
3DB9
  8
2
  6
BYBLOCK
 62
     2
 10
6.760702025387328
 20
5.035116930031224
 30
0.0
  0
VERTEX
  5
3DBA
  8
2
  6
BYBLOCK
 62
     2
 10
6.839992825467899
 20
4.829138220739709
 30
0.0
  0
VERTEX
  5
3DBB
  8
2
  6
BYBLOCK
 62
     2
 10
6.899104330758683
 20
4.632099869770427
 30
0.0
  0
VERTEX
  5
3DBC
  8
2
  6
BYBLOCK
 62
     2
 10
6.938512000952539
 20
4.474469188995
 30
0.0
  0
VERTEX
  5
3DBD
  8
2
  6
BYBLOCK
 62
     2
 10
6.977919671146396
 20
4.336542343316501
 30
0.0
  0
VERTEX
  5
3DBE
  8
2
  6
BYBLOCK
 62
     2
 10
7.017327341340252
 20
4.178911662541075
 30
0.0
  0
VERTEX
  5
3DBF
  8
2
  6
BYBLOCK
 62
     2
 10
7.05673501153411
 20
3.981873311571793
 30
0.0
  0
VERTEX
  5
3DC0
  8
2
  6
BYBLOCK
 62
     2
 10
7.076438846631039
 20
3.824242630796367
 30
0.0
  0
VERTEX
  5
3DC1
  8
2
  6
BYBLOCK
 62
     2
 10
7.115846516824893
 20
3.666611950020939
 30
0.0
  0
VERTEX
  5
3DC2
  8
2
  6
BYBLOCK
 62
     2
 10
7.147233893577889
 20
3.512339246776116
 30
0.0
  0
VERTEX
  5
3DC3
  8
2
  6
BYBLOCK
 62
     2
 10
7.16627168354478
 20
3.428029034065597
 30
0.0
  0
VERTEX
  5
3DC4
  8
2
  6
BYBLOCK
 62
     2
 10
7.19074884207364
 20
3.327400715669172
 30
0.0
  0
VERTEX
  5
3DC5
  8
2
  6
BYBLOCK
 62
     2
 10
7.226104737726438
 20
3.292044820016373
 30
0.0
  0
VERTEX
  5
3DC6
  8
2
  6
BYBLOCK
 62
     2
 10
7.312884867794177
 20
3.233127577888516
 30
0.0
  0
VERTEX
  5
3DC7
  8
2
  6
BYBLOCK
 62
     2
 10
7.371996373084962
 20
3.193719907694661
 30
0.0
  0
VERTEX
  5
3DC8
  8
2
  6
BYBLOCK
 62
     2
 10
7.435520427362243
 20
3.164219658810104
 30
0.0
  0
VERTEX
  5
3DC9
  8
2
  6
BYBLOCK
 62
     2
 10
7.844888415411242
 20
3.016385391822305
 30
0.0
  0
VERTEX
  5
3DCA
  8
2
  6
BYBLOCK
 62
     2
 10
7.580616298856453
 20
2.864046680474277
 30
0.0
  0
VERTEX
  5
3DCB
  8
2
  6
BYBLOCK
 62
     2
 10
7.802524968297464
 20
2.772222403464201
 30
0.0
  0
VERTEX
  5
3DCC
  8
2
  6
BYBLOCK
 62
     2
 10
7.726665404829673
 20
2.582901019689882
 30
0.0
  0
VERTEX
  5
3DCD
  8
2
  6
BYBLOCK
 62
     2
 10
7.687257734635816
 20
2.50408567930217
 30
0.0
  0
VERTEX
  5
3DCE
  8
2
  6
BYBLOCK
 62
     2
 10
7.653622455568945
 20
2.437647677580977
 30
0.0
  0
VERTEX
  5
3DCF
  8
2
  6
BYBLOCK
 62
     2
 10
7.61032952211654
 20
2.345289419549178
 30
0.0
  0
VERTEX
  5
3DD0
  8
2
  6
BYBLOCK
 62
     2
 10
7.549330888957317
 20
2.228231987945173
 30
0.0
  0
VERTEX
  5
3DD1
  8
2
  6
BYBLOCK
 62
     2
 10
7.497767895140286
 20
2.128824752287149
 30
0.0
  0
VERTEX
  5
3DD2
  8
2
  6
BYBLOCK
 62
     2
 10
7.414544868596398
 20
1.958016197021286
 30
0.0
  0
VERTEX
  5
3DD3
  8
2
  6
BYBLOCK
 62
     2
 10
7.339059214224955
 20
1.822142019152689
 30
0.0
  0
VERTEX
  5
3DD4
  8
2
  6
BYBLOCK
 62
     2
 10
7.263573559853513
 20
1.686267841284094
 30
0.0
  0
VERTEX
  5
3DD5
  8
2
  6
BYBLOCK
 62
     2
 10
7.180539340044924
 20
1.573039359726929
 30
0.0
  0
VERTEX
  5
3DD6
  8
2
  6
BYBLOCK
 62
     2
 10
7.112602251110627
 20
1.474908009044053
 30
0.0
  0
VERTEX
  5
3DD7
  8
2
  6
BYBLOCK
 62
     2
 10
7.037116596739184
 20
1.384325223798322
 30
0.0
  0
VERTEX
  5
3DD8
  8
2
  6
BYBLOCK
 62
     2
 10
6.943925423154612
 20
1.275218876761396
 30
0.0
  0
VERTEX
  5
3DD9
  8
2
  6
BYBLOCK
 62
     2
 10
6.87362550730476
 20
1.201805368950013
 30
0.0
  0
VERTEX
  5
3DDA
  8
2
  6
BYBLOCK
 62
     2
 10
6.778765547958608
 20
1.10725477104002
 30
0.0
  0
VERTEX
  5
3DDB
  8
2
  6
BYBLOCK
 62
     2
 10
6.682362144692472
 20
1.026298047032547
 30
0.0
  0
VERTEX
  5
3DDC
  8
2
  6
BYBLOCK
 62
     2
 10
6.58384296920783
 20
0.9474827066448327
 30
0.0
  0
VERTEX
  5
3DDD
  8
2
  6
BYBLOCK
 62
     2
 10
6.489930605872611
 20
0.8785747875664201
 30
0.0
  0
VERTEX
  5
3DDE
  8
2
  6
BYBLOCK
 62
     2
 10
6.39210820311264
 20
0.8052937969698353
 30
0.0
  0
VERTEX
  5
3DDF
  8
2
  6
BYBLOCK
 62
     2
 10
6.25936798335813
 20
0.722387204572741
 30
0.0
  0
VERTEX
  5
3DE0
  8
2
  6
BYBLOCK
 62
     2
 10
6.130654761978479
 20
0.6519251801909077
 30
0.0
  0
VERTEX
  5
3DE1
  8
2
  6
BYBLOCK
 62
     2
 10
6.013930352939493
 20
0.5922308854113412
 30
0.0
  0
VERTEX
  5
3DE2
  8
2
  6
BYBLOCK
 62
     2
 10
5.872142654571096
 20
0.52897040634022
 30
0.0
  0
VERTEX
  5
3DE3
  8
2
  6
BYBLOCK
 62
     2
 10
5.748614859154777
 20
0.4732517580711293
 30
0.0
  0
VERTEX
  5
3DE4
  8
2
  6
BYBLOCK
 62
     2
 10
5.603528872617123
 20
0.4145264778058879
 30
0.0
  0
VERTEX
  5
3DE5
  8
2
  6
BYBLOCK
 62
     2
 10
5.451534029577676
 20
0.3558011975406465
 30
0.0
  0
VERTEX
  5
3DE6
  8
2
  6
BYBLOCK
 62
     2
 10
5.289175901785539
 20
0.2936214890245087
 30
0.0
  0
VERTEX
  5
3DE7
  8
2
  6
BYBLOCK
 62
     2
 10
5.130272202244298
 20
0.2383506370101653
 30
0.0
  0
VERTEX
  5
3DE8
  8
2
  6
BYBLOCK
 62
     2
 10
4.978277359204851
 20
0.1934430697485098
 30
0.0
  0
VERTEX
  5
3DE9
  8
2
  6
BYBLOCK
 62
     2
 10
4.814311455986914
 20
0.1513842079705525
 30
0.0
  0
VERTEX
  5
3DEA
  8
2
  6
BYBLOCK
 62
     2
 10
4.672570964805785
 20
0.1199216325738435
 30
0.0
  0
VERTEX
  5
3DEB
  8
2
  6
BYBLOCK
 62
     2
 10
4.484230148433111
 20
0.0898741931151494
 30
0.0
  0
VERTEX
  5
3DEC
  8
2
  6
BYBLOCK
 62
     2
 10
4.298198097964146
 20
0.060810127283059
 30
0.0
  0
VERTEX
  5
3DED
  8
2
  6
BYBLOCK
 62
     2
 10
4.14056741718872
 20
0.0411062921861308
 30
0.0
  0
VERTEX
  5
3DEE
  8
2
  6
BYBLOCK
 62
     2
 10
3.889502421598828
 20
0.0179066153784573
 30
0.0
  0
VERTEX
  5
3DEF
  8
2
  6
BYBLOCK
 62
     2
 10
3.707083045056298
 20
0.0016986219922735
 30
0.0
  0
VERTEX
  5
3DF0
  8
2
  6
BYBLOCK
 62
     2
 10
3.508137871335699
 20
-0.0011616121346996
 30
0.0
  0
VERTEX
  5
3DF1
  8
2
  6
BYBLOCK
 62
     2
 10
3.303154425569268
 20
-0.0011616121346996
 30
0.0
  0
VERTEX
  5
3DF2
  8
2
  6
BYBLOCK
 62
     2
 10
3.136307434829149
 20
0.00360544474359
 30
0.0
  0
VERTEX
  5
3DF3
  8
2
  6
BYBLOCK
 62
     2
 10
2.907488704671272
 20
0.0131395585001682
 30
0.0
  0
VERTEX
  5
3DF4
  8
2
  6
BYBLOCK
 62
     2
 10
2.751447042855275
 20
0.0263284158634354
 30
0.0
  0
VERTEX
  5
3DF5
  8
2
  6
BYBLOCK
 62
     2
 10
2.59286295070419
 20
0.0465089566481917
 30
0.0
  0
VERTEX
  5
3DF6
  8
2
  6
BYBLOCK
 62
     2
 10
2.40662992865903
 20
0.0706620448315238
 30
0.0
  0
VERTEX
  5
3DF7
  8
2
  6
BYBLOCK
 62
     2
 10
2.23438027345685
 20
0.1027602278120032
 30
0.0
  0
VERTEX
  5
3DF8
  8
2
  6
BYBLOCK
 62
     2
 10
2.074207162346335
 20
0.1339049994168255
 30
0.0
  0
VERTEX
  5
3DF9
  8
2
  6
BYBLOCK
 62
     2
 10
1.967107284480774
 20
0.1556215918623653
 30
0.0
  0
VERTEX
  5
3DFA
  8
2
  6
BYBLOCK
 62
     2
 10
1.818798848267335
 20
0.1852832791050523
 30
0.0
  0
VERTEX
  5
3DFB
  8
2
  6
BYBLOCK
 62
     2
 10
1.713817662347679
 20
0.2139915549720824
 30
0.0
  0
VERTEX
  5
3DFC
  8
2
  6
BYBLOCK
 62
     2
 10
1.588920772136505
 20
0.2446066535904284
 30
0.0
  0
VERTEX
  5
3DFD
  8
2
  6
BYBLOCK
 62
     2
 10
1.401734338715686
 20
0.2972561484461984
 30
0.0
  0
VERTEX
  5
3DFE
  8
2
  6
BYBLOCK
 62
     2
 10
1.286689366052975
 20
0.3296721352185645
 30
0.0
  0
VERTEX
  5
3DFF
  8
2
  6
BYBLOCK
 62
     2
 10
1.1799072919793
 20
0.3608169068233869
 30
0.0
  0
VERTEX
  5
3E00
  8
2
  6
BYBLOCK
 62
     2
 10
1.022435513099817
 20
0.4056272414793051
 30
0.0
  0
VERTEX
  5
3E01
  8
2
  6
BYBLOCK
 62
     2
 10
0.8595610697582722
 20
0.4542512216378528
 30
0.0
  0
VERTEX
  5
3E02
  8
2
  6
BYBLOCK
 62
     2
 10
0.751507780517052
 20
0.4942944994154821
 30
0.0
  0
VERTEX
  5
3E03
  8
2
  6
BYBLOCK
 62
     2
 10
0.5988030585158575
 20
0.5435540871578027
 30
0.0
  0
VERTEX
  5
3E04
  8
2
  6
BYBLOCK
 62
     2
 10
0.4362464189661989
 20
0.5928136749001239
 30
0.0
  0
VERTEX
  5
3E05
  8
2
  6
BYBLOCK
 62
     2
 10
0.318023408384629
 20
0.6322213450939797
 30
0.0
  0
VERTEX
  5
3E06
  8
2
  6
BYBLOCK
 62
     2
 10
0.2022368935408519
 20
0.6747011186094012
 30
0.0
  0
VERTEX
  5
3E07
  8
2
  6
BYBLOCK
 62
     2
 10
0.138782069760958
 20
0.6989601413900272
 30
0.0
  0
VERTEX
  5
3E08
  8
2
  6
BYBLOCK
 62
     2
 10
0.0798824336647647
 20
0.7191936494734327
 30
0.0
  0
VERTEX
  5
3E09
  8
2
  6
BYBLOCK
 62
     2
 10
0.0131436373687171
 20
0.7488553367161197
 30
0.0
  0
VERTEX
  5
3E0A
  8
2
  6
BYBLOCK
 62
     2
 10
0.2244831589728674
 20
0.7451476258107842
 30
0.0
  0
VERTEX
  5
3E0B
  8
2
  6
BYBLOCK
 62
     2
 10
0.5396385859264254
 20
0.7377322040001134
 30
0.0
  0
VERTEX
  5
3E0C
  8
2
  6
BYBLOCK
 62
     2
 10
0.8080768554727487
 20
0.7326473433299364
 30
0.0
  0
VERTEX
  5
3E0D
  8
2
  6
BYBLOCK
 62
     2
 10
1.003102449093422
 20
0.7266090712841054
 30
0.0
  0
VERTEX
  5
3E0E
  8
2
  6
BYBLOCK
 62
     2
 10
1.184780283454884
 20
0.7266090712841054
 30
0.0
  0
VERTEX
  5
3E0F
  8
2
  6
BYBLOCK
 62
     2
 10
1.403535226869706
 20
0.7266090712841054
 30
0.0
  0
VERTEX
  5
3E10
  8
2
  6
BYBLOCK
 62
     2
 10
1.674198122959232
 20
0.7377322040001134
 30
0.0
  0
VERTEX
  5
3E11
  8
2
  6
BYBLOCK
 62
     2
 10
1.886385121341745
 20
0.7491731405080064
 30
0.0
  0
VERTEX
  5
3E12
  8
2
  6
BYBLOCK
 62
     2
 10
2.100584877072869
 20
0.7636861803374649
 30
0.0
  0
VERTEX
  5
3E13
  8
2
  6
BYBLOCK
 62
     2
 10
2.357370340916709
 20
0.7904876334531789
 30
0.0
  0
VERTEX
  5
3E14
  8
2
  6
BYBLOCK
 62
     2
 10
2.551548457759019
 20
0.8235392278093162
 30
0.0
  0
VERTEX
  5
3E15
  8
2
  6
BYBLOCK
 62
     2
 10
2.736669166532579
 20
0.8588154487086558
 30
0.0
  0
VERTEX
  5
3E16
  8
2
  6
BYBLOCK
 62
     2
 10
2.904151764856469
 20
0.8982231189025121
 30
0.0
  0
VERTEX
  5
3E17
  8
2
  6
BYBLOCK
 62
     2
 10
3.115967992148448
 20
0.9671865417417609
 30
0.0
  0
VERTEX
  5
3E18
  8
2
  6
BYBLOCK
 62
     2
 10
3.248968879052714
 20
1.016446129484082
 30
0.0
  0
VERTEX
  5
3E19
  8
2
  6
BYBLOCK
 62
     2
 10
3.391821683505445
 20
1.085409552323331
 30
0.0
  0
VERTEX
  5
3E1A
  8
2
  6
BYBLOCK
 62
     2
 10
3.549452364280872
 20
1.164224892711044
 30
0.0
  0
VERTEX
  5
3E1B
  8
2
  6
BYBLOCK
 62
     2
 10
3.63940864304583
 20
1.224948064074618
 30
0.0
  0
VERTEX
  5
3E1C
  8
2
  6
BYBLOCK
 62
     2
 10
3.718484301996619
 20
1.304023723025408
 30
0.0
  0
VERTEX
  5
3E1D
  8
2
  6
BYBLOCK
 62
     2
 10
3.760657986770374
 20
1.3567408289926
 30
0.0
  0
VERTEX
  5
3E1E
  8
2
  6
BYBLOCK
 62
     2
 10
3.781744829157251
 20
1.420001356153232
 30
0.0
  0
VERTEX
  5
3E1F
  8
2
  6
BYBLOCK
 62
     2
 10
3.781744829157251
 20
1.520163857490898
 30
0.0
  0
VERTEX
  5
3E20
  8
2
  6
BYBLOCK
 62
     2
 10
3.765929697367093
 20
1.604511227038407
 30
0.0
  0
VERTEX
  5
3E21
  8
2
  6
BYBLOCK
 62
     2
 10
3.734299433786777
 20
1.683586885989196
 30
0.0
  0
VERTEX
  5
3E22
  8
2
  6
BYBLOCK
 62
     2
 10
3.702669170206461
 20
1.736303991956389
 30
0.0
  0
VERTEX
  5
3E23
  8
2
  6
BYBLOCK
 62
     2
 10
3.660495485432707
 20
1.783749387326863
 30
0.0
  0
VERTEX
  5
3E24
  8
2
  6
BYBLOCK
 62
     2
 10
3.576148115885198
 20
1.80483622971374
 30
0.0
  0
VERTEX
  5
3E25
  8
2
  6
BYBLOCK
 62
     2
 10
3.506159430828465
 20
1.798771638473391
 30
0.0
  0
VERTEX
  5
3E26
  8
2
  6
BYBLOCK
 62
     2
 10
3.391266645897081
 20
1.791278630760473
 30
0.0
  0
VERTEX
  5
3E27
  8
2
  6
BYBLOCK
 62
     2
 10
3.291359876391529
 20
1.768799607621725
 30
0.0
  0
VERTEX
  5
3E28
  8
2
  6
BYBLOCK
 62
     2
 10
3.173969422222505
 20
1.731334569057143
 30
0.0
  0
VERTEX
  5
3E29
  8
2
  6
BYBLOCK
 62
     2
 10
3.056578968053481
 20
1.67388817659145
 30
0.0
  0
VERTEX
  5
3E2A
  8
2
  6
BYBLOCK
 62
     2
 10
2.924202498458625
 20
1.591465091749371
 30
0.0
  0
VERTEX
  5
3E2B
  8
2
  6
BYBLOCK
 62
     2
 10
2.830262383242988
 20
1.513967965681522
 30
0.0
  0
VERTEX
  5
3E2C
  8
2
  6
BYBLOCK
 62
     2
 10
2.731743207758347
 20
1.425300707745344
 30
0.0
  0
VERTEX
  5
3E2D
  8
2
  6
BYBLOCK
 62
     2
 10
2.662779784919098
 20
1.361263243680327
 30
0.0
  0
VERTEX
  5
3E2E
  8
2
  6
BYBLOCK
 62
     2
 10
2.582021812902109
 20
1.294242452470352
 30
0.0
  0
VERTEX
  5
3E2F
  8
2
  6
BYBLOCK
 62
     2
 10
2.519580081961139
 20
1.246786736955216
 30
0.0
  0
VERTEX
  5
3E30
  8
2
  6
BYBLOCK
 62
     2
 10
2.442047521878332
 20
1.187416721208602
 30
0.0
  0
VERTEX
  5
3E31
  8
2
  6
BYBLOCK
 62
     2
 10
2.364441120693348
 20
1.146640476518188
 30
0.0
  0
VERTEX
  5
3E32
  8
2
  6
BYBLOCK
 62
     2
 10
2.297093555055676
 20
1.134457270871062
 30
0.0
  0
VERTEX
  5
3E33
  8
2
  6
BYBLOCK
 62
     2
 10
2.234062469664964
 20
1.138164981776398
 30
0.0
  0
VERTEX
  5
3E34
  8
2
  6
BYBLOCK
 62
     2
 10
2.174739095179589
 20
1.149288114492405
 30
0.0
  0
VERTEX
  5
3E35
  8
2
  6
BYBLOCK
 62
     2
 10
2.086442608333944
 20
1.198706604130669
 30
0.0
  0
VERTEX
  5
3E36
  8
2
  6
BYBLOCK
 62
     2
 10
2.007627267946231
 20
1.257818109421453
 30
0.0
  0
VERTEX
  5
3E37
  8
2
  6
BYBLOCK
 62
     2
 10
1.938663845106982
 20
1.326781532260702
 30
0.0
  0
VERTEX
  5
3E38
  8
2
  6
BYBLOCK
 62
     2
 10
1.874626381041965
 20
1.400670913874184
 30
0.0
  0
VERTEX
  5
3E39
  8
2
  6
BYBLOCK
 62
     2
 10
1.79088508188002
 20
1.499190089358826
 30
0.0
  0
VERTEX
  5
3E3A
  8
2
  6
BYBLOCK
 62
     2
 10
1.720907177201874
 20
1.59724205067203
 30
0.0
  0
VERTEX
  5
3E3B
  8
2
  6
BYBLOCK
 62
     2
 10
1.645478055658364
 20
1.714397920303438
 30
0.0
  0
VERTEX
  5
3E3C
  8
2
  6
BYBLOCK
 62
     2
 10
1.581283058600058
 20
1.820319665449644
 30
0.0
  0
VERTEX
  5
3E3D
  8
2
  6
BYBLOCK
 62
     2
 10
1.530775351985969
 20
1.925072144578004
 30
0.0
  0
VERTEX
  5
3E3E
  8
2
  6
BYBLOCK
 62
     2
 10
1.474650583129278
 20
2.040439725005645
 30
0.0
  0
VERTEX
  5
3E3F
  8
2
  6
BYBLOCK
 62
     2
 10
1.421643856986848
 20
2.162043390861808
 30
0.0
  0
VERTEX
  5
3E40
  8
2
  6
BYBLOCK
 62
     2
 10
1.3779912589872
 20
2.264938800432407
 30
0.0
  0
VERTEX
  5
3E41
  8
2
  6
BYBLOCK
 62
     2
 10
1.322439659747102
 20
2.410913638386063
 30
0.0
  0
VERTEX
  5
3E42
  8
2
  6
BYBLOCK
 62
     2
 10
1.280712911659202
 20
2.524171954624647
 30
0.0
  0
VERTEX
  5
3E43
  8
2
  6
BYBLOCK
 62
     2
 10
1.241966645577582
 20
2.673196054938574
 30
0.0
  0
VERTEX
  5
3E44
  8
2
  6
BYBLOCK
 62
     2
 10
1.212161825514796
 20
2.825200637258778
 30
0.0
  0
VERTEX
  5
3E45
  8
2
  6
BYBLOCK
 62
     2
 10
1.178854079473411
 20
2.996775566244581
 30
0.0
  0
VERTEX
  5
3E46
  8
2
  6
BYBLOCK
 62
     2
 10
1.154801023504205
 20
3.141093902059815
 30
0.0
  0
VERTEX
  5
3E47
  8
2
  6
BYBLOCK
 62
     2
 10
1.130747967535
 20
3.333518349813458
 30
0.0
  0
VERTEX
  5
3E48
  8
2
  6
BYBLOCK
 62
     2
 10
1.112708175558096
 20
3.5139162695825
 30
0.0
  0
VERTEX
  5
3E49
  8
2
  6
BYBLOCK
 62
     2
 10
1.100681647573494
 20
3.658234605397733
 30
0.0
  0
VERTEX
  5
3E4A
  8
2
  6
BYBLOCK
 62
     2
 10
1.100681647573494
 20
3.814579469197567
 30
0.0
  0
VERTEX
  5
3E4B
  8
2
  6
BYBLOCK
 62
     2
 10
1.106694911565795
 20
3.9588978050128
 30
0.0
  0
VERTEX
  5
3E4C
  8
2
  6
BYBLOCK
 62
     2
 10
1.112708175558096
 20
4.103216140828033
 30
0.0
  0
VERTEX
  5
3E4D
  8
2
  6
BYBLOCK
 62
     2
 10
1.130747967535
 20
4.235507948658664
 30
0.0
  0
VERTEX
  5
3E4E
  8
2
  6
BYBLOCK
 62
     2
 10
1.149056131961343
 20
4.36321293939996
 30
0.0
  0
VERTEX
  5
3E4F
  8
2
  6
BYBLOCK
 62
     2
 10
1.19038247942926
 20
4.550078277272525
 30
0.0
  0
VERTEX
  5
3E50
  8
2
  6
BYBLOCK
 62
     2
 10
1.236117967042941
 20
4.717775065189356
 30
0.0
  0
VERTEX
  5
3E51
  8
2
  6
BYBLOCK
 62
     2
 10
1.276846464999569
 20
4.845976419766593
 30
0.0
  0
VERTEX
  5
3E52
  8
2
  6
BYBLOCK
 62
     2
 10
1.319443242678978
 20
4.959567826911683
 30
0.0
  0
VERTEX
  5
3E53
  8
2
  6
BYBLOCK
 62
     2
 10
1.362383541153312
 20
5.086561272031402
 30
0.0
  0
VERTEX
  5
3E54
  8
2
  6
BYBLOCK
 62
     2
 10
1.404636798037796
 20
5.186750641201866
 30
0.0
  0
VERTEX
  5
3E55
  8
2
  6
BYBLOCK
 62
     2
 10
1.4379659294882
 20
5.271046508489487
 30
0.0
  0
VERTEX
  5
3E56
  8
2
  6
BYBLOCK
 62
     2
 10
1.482730890450045
 20
5.378436140759203
 30
0.0
  0
VERTEX
  5
3E57
  8
2
  6
BYBLOCK
 62
     2
 10
1.549270501772863
 20
5.46859297462605
 30
0.0
  0
VERTEX
  5
3E58
  8
2
  6
BYBLOCK
 62
     2
 10
1.609143986345946
 20
5.52514015450063
 30
0.0
  0
VERTEX
  5
3E59
  8
2
  6
BYBLOCK
 62
     2
 10
1.668635972545246
 20
5.55714684462408
 30
0.0
  0
VERTEX
  5
3E5A
  8
2
  6
BYBLOCK
 62
     2
 10
1.719002401260539
 20
5.576518547976116
 30
0.0
  0
VERTEX
  5
3E5B
  8
2
  6
BYBLOCK
 62
     2
 10
1.77905468165185
 20
5.58426722931693
 30
0.0
  0
VERTEX
  5
3E5C
  8
2
  6
BYBLOCK
 62
     2
 10
1.844918473048771
 20
5.57845571831132
 30
0.0
  0
VERTEX
  5
3E5D
  8
2
  6
BYBLOCK
 62
     2
 10
1.898532495115851
 20
5.560066353834928
 30
0.0
  0
VERTEX
  5
3E5E
  8
2
  6
BYBLOCK
 62
     2
 10
1.95971072863528
 20
5.535195984085719
 30
0.0
  0
VERTEX
  5
3E5F
  8
2
  6
BYBLOCK
 62
     2
 10
2.015122081646063
 20
5.490625982750959
 30
0.0
  0
VERTEX
  5
3E60
  8
2
  6
BYBLOCK
 62
     2
 10
2.091368567108177
 20
5.420253273647559
 30
0.0
  0
VERTEX
  5
3E61
  8
2
  6
BYBLOCK
 62
     2
 10
2.166901005110383
 20
5.344870032439984
 30
0.0
  0
VERTEX
  5
3E62
  8
2
  6
BYBLOCK
 62
     2
 10
2.250018034626559
 20
5.266571381446485
 30
0.0
  0
VERTEX
  5
3E63
  8
2
  6
BYBLOCK
 62
     2
 10
2.313610414327353
 20
5.208233561986431
 30
0.0
  0
VERTEX
  5
3E64
  8
2
  6
BYBLOCK
 62
     2
 10
2.40662992865903
 20
5.124695747193634
 30
0.0
  0
VERTEX
  5
3E65
  8
2
  6
BYBLOCK
 62
     2
 10
2.51665001930891
 20
5.039033891168466
 30
0.0
  0
VERTEX
  5
3E66
  8
2
  6
BYBLOCK
 62
     2
 10
2.645414841030681
 20
4.948888459562762
 30
0.0
  0
VERTEX
  5
3E67
  8
2
  6
BYBLOCK
 62
     2
 10
2.785602456561863
 20
4.866425156309126
 30
0.0
  0
VERTEX
  5
3E68
  8
2
  6
BYBLOCK
 62
     2
 10
2.93953395596865
 20
4.785336241443051
 30
0.0
  0
VERTEX
  5
3E69
  8
2
  6
BYBLOCK
 62
     2
 10
3.037513275748467
 20
4.739484475568071
 30
0.0
  0
VERTEX
  5
3E6A
  8
2
  6
BYBLOCK
 62
     2
 10
3.152564156040543
 20
4.687754665926248
 30
0.0
  0
VERTEX
  5
3E6B
  8
2
  6
BYBLOCK
 62
     2
 10
3.271795552985216
 20
4.647191457262686
 30
0.0
  0
VERTEX
  5
3E6C
  8
2
  6
BYBLOCK
 62
     2
 10
3.391821683505445
 20
4.612396034673498
 30
0.0
  0
VERTEX
  5
3E6D
  8
2
  6
BYBLOCK
 62
     2
 10
3.555757234110806
 20
4.576943347485853
 30
0.0
  0
VERTEX
  5
3E6E
  8
2
  6
BYBLOCK
 62
     2
 10
3.662266015046463
 20
4.5548984389573
 30
0.0
  0
VERTEX
  5
3E6F
  8
2
  6
BYBLOCK
 62
     2
 10
3.737688013589073
 20
4.557792739119718
 30
0.0
  0
VERTEX
  5
3E70
  8
2
  6
BYBLOCK
 62
     2
 10
3.80471514287054
 20
4.567368043302786
 30
0.0
  0
VERTEX
  5
3E71
  8
2
  6
BYBLOCK
 62
     2
 10
3.83344105541974
 20
4.576943347485853
 30
0.0
  0
VERTEX
  5
3E72
  8
2
  6
BYBLOCK
 62
     2
 10
3.871742272152007
 20
4.615244564218119
 30
0.0
  0
VERTEX
  5
3E73
  8
2
  6
BYBLOCK
 62
     2
 10
3.890892880518141
 20
4.691846997682652
 30
0.0
  0
VERTEX
  5
3E74
  8
2
  6
BYBLOCK
 62
     2
 10
3.890892880518141
 20
4.720572910231852
 30
0.0
  0
VERTEX
  5
3E75
  8
2
  6
BYBLOCK
 62
     2
 10
3.871742272152007
 20
4.787600039513318
 30
0.0
  0
VERTEX
  5
3E76
  8
2
  6
BYBLOCK
 62
     2
 10
3.843016359602807
 20
4.864202472977853
 30
0.0
  0
VERTEX
  5
3E77
  8
2
  6
BYBLOCK
 62
     2
 10
3.823865751236674
 20
4.931229602259321
 30
0.0
  0
VERTEX
  5
3E78
  8
2
  6
BYBLOCK
 62
     2
 10
3.766413926138274
 20
5.026982644089987
 30
0.0
  0
VERTEX
  5
3E79
  8
2
  6
BYBLOCK
 62
     2
 10
3.708962101039873
 20
5.094009773371454
 30
0.0
  0
VERTEX
  5
3E7A
  8
2
  6
BYBLOCK
 62
     2
 10
3.613209059209206
 20
5.189762815202122
 30
0.0
  0
VERTEX
  5
3E7B
  8
2
  6
BYBLOCK
 62
     2
 10
3.546181929927739
 20
5.237639336117455
 30
0.0
  0
VERTEX
  5
3E7C
  8
2
  6
BYBLOCK
 62
     2
 10
3.488730104829338
 20
5.285515857032788
 30
0.0
  0
VERTEX
  5
3E7D
  8
2
  6
BYBLOCK
 62
     2
 10
3.410990467594388
 20
5.324932265561772
 30
0.0
  0
VERTEX
  5
3E7E
  8
2
  6
BYBLOCK
 62
     2
 10
3.300193404771488
 20
5.392635066652339
 30
0.0
  0
VERTEX
  5
3E7F
  8
2
  6
BYBLOCK
 62
     2
 10
3.186601997626398
 20
5.449430770224885
 30
0.0
  0
VERTEX
  5
3E80
  8
2
  6
BYBLOCK
 62
     2
 10
3.087209516374444
 20
5.492027547904294
 30
0.0
  0
VERTEX
  5
3E81
  8
2
  6
BYBLOCK
 62
     2
 10
3.002015961015626
 20
5.527524862637135
 30
0.0
  0
VERTEX
  5
3E82
  8
2
  6
BYBLOCK
 62
     2
 10
2.899582916898984
 20
5.571445079166031
 30
0.0
  0
VERTEX
  5
3E83
  8
2
  6
BYBLOCK
 62
     2
 10
2.776699846549628
 20
5.616129832020342
 30
0.0
  0
VERTEX
  5
3E84
  8
2
  6
BYBLOCK
 62
     2
 10
2.675440665473493
 20
5.648215732728794
 30
0.0
  0
VERTEX
  5
3E85
  8
2
  6
BYBLOCK
 62
     2
 10
2.545828623469019
 20
5.683156961301808
 30
0.0
  0
VERTEX
  5
3E86
  8
2
  6
BYBLOCK
 62
     2
 10
2.40662992865903
 20
5.715810800101483
 30
0.0
  0
VERTEX
  5
3E87
  8
2
  6
BYBLOCK
 62
     2
 10
2.248999247883603
 20
5.755218470295339
 30
0.0
  0
VERTEX
  5
3E88
  8
2
  6
BYBLOCK
 62
     2
 10
2.130776237302034
 20
5.774922305392268
 30
0.0
  0
VERTEX
  5
3E89
  8
2
  6
BYBLOCK
 62
     2
 10
1.993892222602951
 20
5.804403917553293
 30
0.0
  0
VERTEX
  5
3E8A
  8
2
  6
BYBLOCK
 62
     2
 10
1.859002426618157
 20
5.825702306392998
 30
0.0
  0
VERTEX
  5
3E8B
  8
2
  6
BYBLOCK
 62
     2
 10
1.745411019473067
 20
5.839901232286134
 30
0.0
  0
VERTEX
  5
3E8C
  8
2
  6
BYBLOCK
 62
     2
 10
1.624720149381408
 20
5.854100158179269
 30
0.0
  0
VERTEX
  5
3E8D
  8
2
  6
BYBLOCK
 62
     2
 10
1.480549679103399
 20
5.87344148087691
 30
0.0
  0
VERTEX
  5
3E8E
  8
2
  6
BYBLOCK
 62
     2
 10
1.34614758929718
 20
5.88342612311815
 30
0.0
  0
VERTEX
  5
3E8F
  8
2
  6
BYBLOCK
 62
     2
 10
1.211852432553387
 20
5.894146935770136
 30
0.0
  0
VERTEX
  5
3E90
  8
2
  6
BYBLOCK
 62
     2
 10
1.121502019404713
 20
5.900541976062337
 30
0.0
  0
VERTEX
  5
3E91
  8
2
  6
BYBLOCK
 62
     2
 10
1.011207845244819
 20
5.907151677540136
 30
0.0
  0
VERTEX
  5
3E92
  8
2
  6
BYBLOCK
 62
     2
 10
0.8818800781860793
 20
5.913378865770478
 30
0.0
  0
VERTEX
  5
3E93
  8
2
  6
BYBLOCK
 62
     2
 10
0.7994163364191084
 20
5.916440778804422
 30
0.0
  0
VERTEX
  5
3E94
  8
2
  6
BYBLOCK
 62
     2
 10
0.7043031038901289
 20
5.921936792242572
 30
0.0
  0
VERTEX
  5
3E95
  8
2
  6
BYBLOCK
 62
     2
 10
0.6083602812562939
 20
5.924821876152471
 30
0.0
  0
SEQEND
  5
3D94
  8
2
  6
BYBLOCK
 62
     2
  0
CIRCLE
  5
2BDE
  8
1
  6
BYBLOCK
 62
     1
 10
6.758049591661715
 20
3.276371568961582
 30
0.0
 40
0.1561458267718034
  0
POLYLINE
  5
2BDF
  8
1
  6
BYBLOCK
 62
     1
 66
     1
 10
0.0
 20
0.0
 30
0.0
 70
     1
  0
VERTEX
  5
3E97
  8
1
  6
BYBLOCK
 62
     1
 10
4.319343465523044
 20
6.261677687439522
 30
0.0
  0
VERTEX
  5
3E98
  8
1
  6
BYBLOCK
 62
     1
 10
4.450322464126796
 20
6.229602846619963
 30
0.0
  0
VERTEX
  5
3E99
  8
1
  6
BYBLOCK
 62
     1
 10
4.546622511413685
 20
6.199409455688662
 30
0.0
  0
VERTEX
  5
3E9A
  8
1
  6
BYBLOCK
 62
     1
 10
4.654861041166736
 20
6.146272315233321
 30
0.0
  0
VERTEX
  5
3E9B
  8
1
  6
BYBLOCK
 62
     1
 10
4.772990249868921
 20
6.064842501357362
 30
0.0
  0
VERTEX
  5
3E9C
  8
1
  6
BYBLOCK
 62
     1
 10
4.886901820266705
 20
5.967815416974716
 30
0.0
  0
VERTEX
  5
3E9D
  8
1
  6
BYBLOCK
 62
     1
 10
4.997528086177196
 20
5.857576806303569
 30
0.0
  0
VERTEX
  5
3E9E
  8
1
  6
BYBLOCK
 62
     1
 10
5.083888792449609
 20
5.771216100031157
 30
0.0
  0
VERTEX
  5
3E9F
  8
1
  6
BYBLOCK
 62
     1
 10
5.187521639976505
 20
5.633038969995296
 30
0.0
  0
VERTEX
  5
3EA0
  8
1
  6
BYBLOCK
 62
     1
 10
5.273882346248918
 20
5.494861839959434
 30
0.0
  0
VERTEX
  5
3EA1
  8
1
  6
BYBLOCK
 62
     1
 10
5.342970911266849
 20
5.356684709923572
 30
0.0
  0
VERTEX
  5
3EA2
  8
1
  6
BYBLOCK
 62
     1
 10
5.409245909232105
 20
5.184299283526616
 30
0.0
  0
VERTEX
  5
3EA3
  8
1
  6
BYBLOCK
 62
     1
 10
5.46387590004823
 20
5.028514026088402
 30
0.0
  0
VERTEX
  5
3EA4
  8
1
  6
BYBLOCK
 62
     1
 10
5.48484834316131
 20
4.875016599270786
 30
0.0
  0
VERTEX
  5
3EA5
  8
1
  6
BYBLOCK
 62
     1
 10
5.491721291700328
 20
4.682574040178271
 30
0.0
  0
VERTEX
  5
3EA6
  8
1
  6
BYBLOCK
 62
     1
 10
5.498594240239346
 20
4.483258532546737
 30
0.0
  0
VERTEX
  5
3EA7
  8
1
  6
BYBLOCK
 62
     1
 10
5.498594240239346
 20
4.201467642446981
 30
0.0
  0
VERTEX
  5
3EA8
  8
1
  6
BYBLOCK
 62
     1
 10
5.491721291700328
 20
3.995279186276429
 30
0.0
  0
VERTEX
  5
3EA9
  8
1
  6
BYBLOCK
 62
     1
 10
5.498935160305765
 20
3.853974637146847
 30
0.0
  0
VERTEX
  5
3EAA
  8
1
  6
BYBLOCK
 62
     1
 10
5.498420182557193
 20
3.715831290747719
 30
0.0
  0
VERTEX
  5
3EAB
  8
1
  6
BYBLOCK
 62
     1
 10
5.515692323811677
 20
3.508565595693928
 30
0.0
  0
VERTEX
  5
3EAC
  8
1
  6
BYBLOCK
 62
     1
 10
5.53296446506616
 20
3.370388465658065
 30
0.0
  0
VERTEX
  5
3EAD
  8
1
  6
BYBLOCK
 62
     1
 10
5.567508747575125
 20
3.180394911858756
 30
0.0
  0
VERTEX
  5
3EAE
  8
1
  6
BYBLOCK
 62
     1
 10
5.60205303008409
 20
2.990401358059447
 30
0.0
  0
VERTEX
  5
3EAF
  8
1
  6
BYBLOCK
 62
     1
 10
5.671141595102021
 20
2.783135663005656
 30
0.0
  0
VERTEX
  5
3EB0
  8
1
  6
BYBLOCK
 62
     1
 10
5.722958018865468
 20
2.662230674224277
 30
0.0
  0
VERTEX
  5
3EB1
  8
1
  6
BYBLOCK
 62
     1
 10
5.815011233664007
 20
2.483135598286951
 30
0.0
  0
VERTEX
  5
3EB2
  8
1
  6
BYBLOCK
 62
     1
 10
5.903991748927159
 20
2.337042678519083
 30
0.0
  0
VERTEX
  5
3EB3
  8
1
  6
BYBLOCK
 62
     1
 10
5.964767996428225
 20
2.247699284116692
 30
0.0
  0
VERTEX
  5
3EB4
  8
1
  6
BYBLOCK
 62
     1
 10
6.038916569024933
 20
2.150148176468136
 30
0.0
  0
VERTEX
  5
3EB5
  8
1
  6
BYBLOCK
 62
     1
 10
6.130775168147365
 20
2.052548414900553
 30
0.0
  0
VERTEX
  5
3EB6
  8
1
  6
BYBLOCK
 62
     1
 10
6.245598417050406
 20
1.926242841107208
 30
0.0
  0
VERTEX
  5
3EB7
  8
1
  6
BYBLOCK
 62
     1
 10
6.344755104026843
 20
1.833167894009108
 30
0.0
  0
VERTEX
  5
3EB8
  8
1
  6
BYBLOCK
 62
     1
 10
6.431115810299257
 20
1.764079328991177
 30
0.0
  0
VERTEX
  5
3EB9
  8
1
  6
BYBLOCK
 62
     1
 10
6.51747651657167
 20
1.694990763973246
 30
0.0
  0
VERTEX
  5
3EBA
  8
1
  6
BYBLOCK
 62
     1
 10
6.572802367099248
 20
1.647800984509772
 30
0.0
  0
VERTEX
  5
3EBB
  8
1
  6
BYBLOCK
 62
     1
 10
6.63838150535305
 20
1.59135791644635
 30
0.0
  0
VERTEX
  5
3EBC
  8
1
  6
BYBLOCK
 62
     1
 10
6.674089740072622
 20
1.556179791508913
 30
0.0
  0
VERTEX
  5
3EBD
  8
1
  6
BYBLOCK
 62
     1
 10
6.693745134961914
 20
1.505092043248998
 30
0.0
  0
VERTEX
  5
3EBE
  8
1
  6
BYBLOCK
 62
     1
 10
6.68328697377919
 20
1.454892869571925
 30
0.0
  0
VERTEX
  5
3EBF
  8
1
  6
BYBLOCK
 62
     1
 10
6.616354742209759
 20
1.385869005765949
 30
0.0
  0
VERTEX
  5
3EC0
  8
1
  6
BYBLOCK
 62
     1
 10
6.543677562815874
 20
1.319731719536849
 30
0.0
  0
VERTEX
  5
3EC1
  8
1
  6
BYBLOCK
 62
     1
 10
6.474929093079536
 20
1.261369623262568
 30
0.0
  0
VERTEX
  5
3EC2
  8
1
  6
BYBLOCK
 62
     1
 10
6.410725989772554
 20
1.211579461514297
 30
0.0
  0
VERTEX
  5
3EC3
  8
1
  6
BYBLOCK
 62
     1
 10
6.362246095438711
 20
1.215510263757581
 30
0.0
  0
VERTEX
  5
3EC4
  8
1
  6
BYBLOCK
 62
     1
 10
6.316386735933724
 20
1.239095077217289
 30
0.0
  0
VERTEX
  5
3EC5
  8
1
  6
BYBLOCK
 62
     1
 10
6.239857254605254
 20
1.311938459475945
 30
0.0
  0
VERTEX
  5
3EC6
  8
1
  6
BYBLOCK
 62
     1
 10
6.137489408973051
 20
1.418636503901524
 30
0.0
  0
VERTEX
  5
3EC7
  8
1
  6
BYBLOCK
 62
     1
 10
6.072666138317707
 20
1.489327586436552
 30
0.0
  0
VERTEX
  5
3EC8
  8
1
  6
BYBLOCK
 62
     1
 10
5.995610265860087
 20
1.573652880824138
 30
0.0
  0
VERTEX
  5
3EC9
  8
1
  6
BYBLOCK
 62
     1
 10
5.912951572664777
 20
1.660446481464282
 30
0.0
  0
VERTEX
  5
3ECA
  8
1
  6
BYBLOCK
 62
     1
 10
5.809318725137881
 20
1.78135147024566
 30
0.0
  0
VERTEX
  5
3ECB
  8
1
  6
BYBLOCK
 62
     1
 10
5.711670309651272
 20
1.891795866436295
 30
0.0
  0
VERTEX
  5
3ECC
  8
1
  6
BYBLOCK
 62
     1
 10
5.625552872973991
 20
2.000877952894185
 30
0.0
  0
VERTEX
  5
3ECD
  8
1
  6
BYBLOCK
 62
     1
 10
5.527953111406407
 20
2.127183526687528
 30
0.0
  0
VERTEX
  5
3ECE
  8
1
  6
BYBLOCK
 62
     1
 10
5.441835674729128
 20
2.253489100480871
 30
0.0
  0
VERTEX
  5
3ECF
  8
1
  6
BYBLOCK
 62
     1
 10
5.372941725387304
 20
2.374053511829062
 30
0.0
  0
VERTEX
  5
3ED0
  8
1
  6
BYBLOCK
 62
     1
 10
5.2911544875034
 20
2.524053544188414
 30
0.0
  0
VERTEX
  5
3ED1
  8
1
  6
BYBLOCK
 62
     1
 10
5.239338063739953
 20
2.627686391715312
 30
0.0
  0
VERTEX
  5
3ED2
  8
1
  6
BYBLOCK
 62
     1
 10
5.1803408017894
 20
2.788816804032793
 30
0.0
  0
VERTEX
  5
3ED3
  8
1
  6
BYBLOCK
 62
     1
 10
5.135705216213058
 20
2.938584934295999
 30
0.0
  0
VERTEX
  5
3ED4
  8
1
  6
BYBLOCK
 62
     1
 10
5.093548397373413
 20
3.109387220034771
 30
0.0
  0
VERTEX
  5
3ED5
  8
1
  6
BYBLOCK
 62
     1
 10
5.071066840146556
 20
3.272719560704146
 30
0.0
  0
VERTEX
  5
3ED6
  8
1
  6
BYBLOCK
 62
     1
 10
5.058957359387332
 20
3.409960342642005
 30
0.0
  0
VERTEX
  5
3ED7
  8
1
  6
BYBLOCK
 62
     1
 10
5.04518640186086
 20
3.568826177404012
 30
0.0
  0
VERTEX
  5
3ED8
  8
1
  6
BYBLOCK
 62
     1
 10
5.032072368686162
 20
3.681287008238754
 30
0.0
  0
VERTEX
  5
3ED9
  8
1
  6
BYBLOCK
 62
     1
 10
5.032072368686162
 20
3.836736279529097
 30
0.0
  0
VERTEX
  5
3EDA
  8
1
  6
BYBLOCK
 62
     1
 10
5.022628917109663
 20
4.059835810053637
 30
0.0
  0
VERTEX
  5
3EDB
  8
1
  6
BYBLOCK
 62
     1
 10
5.022628917109663
 20
4.201113085577905
 30
0.0
  0
VERTEX
  5
3EDC
  8
1
  6
BYBLOCK
 62
     1
 10
5.022628917109663
 20
4.338353867515765
 30
0.0
  0
VERTEX
  5
3EDD
  8
1
  6
BYBLOCK
 62
     1
 10
5.02666541069607
 20
4.519996078904109
 30
0.0
  0
VERTEX
  5
3EDE
  8
1
  6
BYBLOCK
 62
     1
 10
5.024360791047074
 20
4.668828143100235
 30
0.0
  0
VERTEX
  5
3EDF
  8
1
  6
BYBLOCK
 62
     1
 10
5.008541019138634
 20
4.803730218268658
 30
0.0
  0
VERTEX
  5
3EE0
  8
1
  6
BYBLOCK
 62
     1
 10
4.969377202734926
 20
4.943746084660971
 30
0.0
  0
VERTEX
  5
3EE1
  8
1
  6
BYBLOCK
 62
     1
 10
4.935012460039834
 20
5.060586209824284
 30
0.0
  0
VERTEX
  5
3EE2
  8
1
  6
BYBLOCK
 62
     1
 10
4.893895238650301
 20
5.183963297378745
 30
0.0
  0
VERTEX
  5
3EE3
  8
1
  6
BYBLOCK
 62
     1
 10
4.842078814886853
 20
5.322140427414608
 30
0.0
  0
VERTEX
  5
3EE4
  8
1
  6
BYBLOCK
 62
     1
 10
4.790680540720448
 20
5.445471328009316
 30
0.0
  0
VERTEX
  5
3EE5
  8
1
  6
BYBLOCK
 62
     1
 10
4.738445967359955
 20
5.563950404977365
 30
0.0
  0
VERTEX
  5
3EE6
  8
1
  6
BYBLOCK
 62
     1
 10
4.685163052580061
 20
5.658914965002352
 30
0.0
  0
VERTEX
  5
3EE7
  8
1
  6
BYBLOCK
 62
     1
 10
4.639475672862043
 20
5.73413516664809
 30
0.0
  0
VERTEX
  5
3EE8
  8
1
  6
BYBLOCK
 62
     1
 10
4.586681515486757
 20
5.818000524922307
 30
0.0
  0
VERTEX
  5
3EE9
  8
1
  6
BYBLOCK
 62
     1
 10
4.536178163131215
 20
5.893755553455615
 30
0.0
  0
VERTEX
  5
3EEA
  8
1
  6
BYBLOCK
 62
     1
 10
4.488199978393451
 20
5.964460246753377
 30
0.0
  0
VERTEX
  5
3EEB
  8
1
  6
BYBLOCK
 62
     1
 10
4.43328721669149
 20
6.036544902364899
 30
0.0
  0
VERTEX
  5
3EEC
  8
1
  6
BYBLOCK
 62
     1
 10
4.382142938446815
 20
6.108394800966668
 30
0.0
  0
VERTEX
  5
3EED
  8
1
  6
BYBLOCK
 62
     1
 10
4.349315759415715
 20
6.153847818086653
 30
0.0
  0
VERTEX
  5
3EEE
  8
1
  6
BYBLOCK
 62
     1
 10
4.299106290204015
 20
6.205636278863748
 30
0.0
  0
VERTEX
  5
3EEF
  8
1
  6
BYBLOCK
 62
     1
 10
4.208817354165267
 20
6.285028274346095
 30
0.0
  0
SEQEND
  5
3E96
  8
1
  6
BYBLOCK
 62
     1
  0
POLYLINE
  5
2BE0
  8
1
  6
BYBLOCK
 62
     1
 66
     1
 10
0.0
 20
0.0
 30
0.0
  0
VERTEX
  5
3EF1
  8
1
  6
BYBLOCK
 62
     1
 10
5.483012723551872
 20
5.82020087958171
 30
0.0
  0
VERTEX
  5
3EF2
  8
1
  6
BYBLOCK
 62
     1
 10
5.645007492909711
 20
5.733939336021249
 30
0.0
  0
VERTEX
  5
3EF3
  8
1
  6
BYBLOCK
 62
     1
 10
5.75124087972495
 20
5.667125885194055
 30
0.0
  0
VERTEX
  5
3EF4
  8
1
  6
BYBLOCK
 62
     1
 10
5.822731272110048
 20
5.617015797073659
 30
0.0
  0
VERTEX
  5
3EF5
  8
1
  6
BYBLOCK
 62
     1
 10
5.887835752175729
 20
5.565172569071879
 30
0.0
  0
VERTEX
  5
3EF6
  8
1
  6
BYBLOCK
 62
     1
 10
5.956015277855707
 20
5.503191182090079
 30
0.0
  0
VERTEX
  5
3EF7
  8
1
  6
BYBLOCK
 62
     1
 10
6.042789219630229
 20
5.416417240315559
 30
0.0
  0
VERTEX
  5
3EF8
  8
1
  6
BYBLOCK
 62
     1
 10
6.117740785739701
 20
5.322259096264811
 30
0.0
  0
VERTEX
  5
3EF9
  8
1
  6
BYBLOCK
 62
     1
 10
6.182907167030801
 20
5.232838454817291
 30
0.0
  0
VERTEX
  5
3EFA
  8
1
  6
BYBLOCK
 62
     1
 10
6.237724507699534
 20
5.142283513325064
 30
0.0
  0
VERTEX
  5
3EFB
  8
1
  6
BYBLOCK
 62
     1
 10
6.28271840343447
 20
5.067293687100171
 30
0.0
  0
VERTEX
  5
3EFC
  8
1
  6
BYBLOCK
 62
     1
 10
6.327712299169406
 20
4.962307930385321
 30
0.0
  0
VERTEX
  5
3EFD
  8
1
  6
BYBLOCK
 62
     1
 10
6.342710264414384
 20
4.872320138915447
 30
0.0
  0
VERTEX
  5
3EFE
  8
1
  6
BYBLOCK
 62
     1
 10
6.357708229659362
 20
4.767334382200595
 30
0.0
  0
VERTEX
  5
3EFF
  8
1
  6
BYBLOCK
 62
     1
 10
6.358894293237411
 20
4.641649903043055
 30
0.0
  0
VERTEX
  5
3F00
  8
1
  6
BYBLOCK
 62
     1
 10
6.342710264414384
 20
4.497371007790976
 30
0.0
  0
VERTEX
  5
3F01
  8
1
  6
BYBLOCK
 62
     1
 10
6.340299877142872
 20
4.412318771210394
 30
0.0
  0
VERTEX
  5
3F02
  8
1
  6
BYBLOCK
 62
     1
 10
6.31550732235015
 20
4.269761581152253
 30
0.0
  0
VERTEX
  5
3F03
  8
1
  6
BYBLOCK
 62
     1
 10
6.297716368679448
 20
4.152417807156462
 30
0.0
  0
VERTEX
  5
3F04
  8
1
  6
BYBLOCK
 62
     1
 10
6.265922212764711
 20
3.984647201035973
 30
0.0
  0
VERTEX
  5
3F05
  8
1
  6
BYBLOCK
 62
     1
 10
6.237724507699534
 20
3.822462571766928
 30
0.0
  0
VERTEX
  5
3F06
  8
1
  6
BYBLOCK
 62
     1
 10
6.237724507699534
 20
3.672482919317139
 30
0.0
  0
VERTEX
  5
3F07
  8
1
  6
BYBLOCK
 62
     1
 10
6.237724507699534
 20
3.567497162602288
 30
0.0
  0
VERTEX
  5
3F08
  8
1
  6
BYBLOCK
 62
     1
 10
6.237724507699534
 20
3.432515475397478
 30
0.0
  0
VERTEX
  5
3F09
  8
1
  6
BYBLOCK
 62
     1
 10
6.270491344989049
 20
3.29849431012449
 30
0.0
  0
VERTEX
  5
3F0A
  8
1
  6
BYBLOCK
 62
     1
 10
6.297716368679448
 20
3.207545996722796
 30
0.0
  0
VERTEX
  5
3F0B
  8
1
  6
BYBLOCK
 62
     1
 10
6.334380117289253
 20
3.103465426260708
 30
0.0
  0
VERTEX
  5
3F0C
  8
1
  6
BYBLOCK
 62
     1
 10
6.362961936476189
 20
3.026126386107828
 30
0.0
  0
VERTEX
  5
3F0D
  8
1
  6
BYBLOCK
 62
     1
 10
6.404994023515796
 20
2.94206221202861
 30
0.0
  0
VERTEX
  5
3F0E
  8
1
  6
BYBLOCK
 62
     1
 10
6.447696021129236
 20
2.877590761333262
 30
0.0
  0
VERTEX
  5
3F0F
  8
1
  6
BYBLOCK
 62
     1
 10
6.507687882109152
 20
2.787602969863388
 30
0.0
  0
VERTEX
  5
3F10
  8
1
  6
BYBLOCK
 62
     1
 10
6.567679743089067
 20
2.712613143638495
 30
0.0
  0
VERTEX
  5
3F11
  8
1
  6
BYBLOCK
 62
     1
 10
6.627671604068982
 20
2.6376233174136
 30
0.0
  0
VERTEX
  5
3F12
  8
1
  6
BYBLOCK
 62
     1
 10
6.680967944850246
 20
2.586737363903851
 30
0.0
  0
VERTEX
  5
3F13
  8
1
  6
BYBLOCK
 62
     1
 10
6.747655326028814
 20
2.53263756069875
 30
0.0
  0
VERTEX
  5
3F14
  8
1
  6
BYBLOCK
 62
     1
 10
6.855281030707704
 20
2.459254659321531
 30
0.0
  0
VERTEX
  5
3F15
  8
1
  6
BYBLOCK
 62
     1
 10
6.942628874213538
 20
2.397655873493939
 30
0.0
  0
VERTEX
  5
3F16
  8
1
  6
BYBLOCK
 62
     1
 10
7.017618700438431
 20
2.352661977759003
 30
0.0
  0
VERTEX
  5
3F17
  8
1
  6
BYBLOCK
 62
     1
 10
7.107606491908304
 20
2.307668082024066
 30
0.0
  0
VERTEX
  5
3F18
  8
1
  6
BYBLOCK
 62
     1
 10
7.170085260390576
 20
2.277136509918217
 30
0.0
  0
VERTEX
  5
3F19
  8
1
  6
BYBLOCK
 62
     1
 10
7.185595461508346
 20
2.244824817565602
 30
0.0
  0
VERTEX
  5
3F1A
  8
1
  6
BYBLOCK
 62
     1
 10
7.1825963181332
 20
2.217680290554193
 30
0.0
  0
VERTEX
  5
3F1B
  8
1
  6
BYBLOCK
 62
     1
 10
7.152600387643241
 20
2.157688429574277
 30
0.0
  0
VERTEX
  5
3F1C
  8
1
  6
BYBLOCK
 62
     1
 10
7.112848127720963
 20
2.089814984817664
 30
0.0
  0
VERTEX
  5
3F1D
  8
1
  6
BYBLOCK
 62
     1
 10
7.077610561418347
 20
2.022706742369469
 30
0.0
  0
VERTEX
  5
3F1E
  8
1
  6
BYBLOCK
 62
     1
 10
7.04761463092839
 20
1.962714881389553
 30
0.0
  0
VERTEX
  5
3F1F
  8
1
  6
BYBLOCK
 62
     1
 10
6.994940515996619
 20
1.935010531109044
 30
0.0
  0
VERTEX
  5
3F20
  8
1
  6
BYBLOCK
 62
     1
 10
6.938339829047824
 20
1.95586341577439
 30
0.0
  0
VERTEX
  5
3F21
  8
1
  6
BYBLOCK
 62
     1
 10
6.777651256518771
 20
2.052702672859426
 30
0.0
  0
VERTEX
  5
3F22
  8
1
  6
BYBLOCK
 62
     1
 10
6.627671604068982
 20
2.157688429574277
 30
0.0
  0
VERTEX
  5
3F23
  8
1
  6
BYBLOCK
 62
     1
 10
6.537161586095897
 20
2.235580666091015
 30
0.0
  0
VERTEX
  5
3F24
  8
1
  6
BYBLOCK
 62
     1
 10
6.41770009063928
 20
2.352661977759003
 30
0.0
  0
VERTEX
  5
3F25
  8
1
  6
BYBLOCK
 62
     1
 10
6.312714333924427
 20
2.457647734473854
 30
0.0
  0
VERTEX
  5
3F26
  8
1
  6
BYBLOCK
 62
     1
 10
6.236079322736436
 20
2.547712046174569
 30
0.0
  0
VERTEX
  5
3F27
  8
1
  6
BYBLOCK
 62
     1
 10
6.188388668305015
 20
2.624673252560636
 30
0.0
  0
VERTEX
  5
3F28
  8
1
  6
BYBLOCK
 62
     1
 10
6.12381492866046
 20
2.719634634390861
 30
0.0
  0
VERTEX
  5
3F29
  8
1
  6
BYBLOCK
 62
     1
 10
6.072746890004765
 20
2.832596865598326
 30
0.0
  0
VERTEX
  5
3F2A
  8
1
  6
BYBLOCK
 62
     1
 10
6.027752994269831
 20
2.952580587558155
 30
0.0
  0
VERTEX
  5
3F2B
  8
1
  6
BYBLOCK
 62
     1
 10
5.982759098534892
 20
3.072564309517986
 30
0.0
  0
VERTEX
  5
3F2C
  8
1
  6
BYBLOCK
 62
     1
 10
5.952763168044935
 20
3.177550066232838
 30
0.0
  0
VERTEX
  5
3F2D
  8
1
  6
BYBLOCK
 62
     1
 10
5.922767237554977
 20
3.312531753437647
 30
0.0
  0
VERTEX
  5
3F2E
  8
1
  6
BYBLOCK
 62
     1
 10
5.892771307065019
 20
3.477509371132415
 30
0.0
  0
VERTEX
  5
3F2F
  8
1
  6
BYBLOCK
 62
     1
 10
5.892771307065019
 20
3.582495127847267
 30
0.0
  0
VERTEX
  5
3F30
  8
1
  6
BYBLOCK
 62
     1
 10
5.892771307065019
 20
3.717476815052077
 30
0.0
  0
VERTEX
  5
3F31
  8
1
  6
BYBLOCK
 62
     1
 10
5.892771307065019
 20
3.852458502256885
 30
0.0
  0
VERTEX
  5
3F32
  8
1
  6
BYBLOCK
 62
     1
 10
5.887835752175729
 20
4.009439755828693
 30
0.0
  0
VERTEX
  5
3F33
  8
1
  6
BYBLOCK
 62
     1
 10
5.887835752175729
 20
4.164393223283193
 30
0.0
  0
VERTEX
  5
3F34
  8
1
  6
BYBLOCK
 62
     1
 10
5.907769272309998
 20
4.302397459606252
 30
0.0
  0
VERTEX
  5
3F35
  8
1
  6
BYBLOCK
 62
     1
 10
5.922767237554977
 20
4.482373042545998
 30
0.0
  0
VERTEX
  5
3F36
  8
1
  6
BYBLOCK
 62
     1
 10
5.937765202799957
 20
4.617354729750806
 30
0.0
  0
VERTEX
  5
3F37
  8
1
  6
BYBLOCK
 62
     1
 10
5.937765202799957
 20
4.752336416955616
 30
0.0
  0
VERTEX
  5
3F38
  8
1
  6
BYBLOCK
 62
     1
 10
5.922767237554977
 20
4.887318104160426
 30
0.0
  0
VERTEX
  5
3F39
  8
1
  6
BYBLOCK
 62
     1
 10
5.908869228714954
 20
5.016260084212831
 30
0.0
  0
VERTEX
  5
3F3A
  8
1
  6
BYBLOCK
 62
     1
 10
5.877929461485745
 20
5.140019153129665
 30
0.0
  0
VERTEX
  5
3F3B
  8
1
  6
BYBLOCK
 62
     1
 10
5.832779446085104
 20
5.247269270039918
 30
0.0
  0
VERTEX
  5
3F3C
  8
1
  6
BYBLOCK
 62
     1
 10
5.802790026786239
 20
5.321237789757887
 30
0.0
  0
VERTEX
  5
3F3D
  8
1
  6
BYBLOCK
 62
     1
 10
5.757789619860211
 20
5.397248922489707
 30
0.0
  0
VERTEX
  5
3F3E
  8
1
  6
BYBLOCK
 62
     1
 10
5.697797758880294
 20
5.502234679204557
 30
0.0
  0
VERTEX
  5
3F3F
  8
1
  6
BYBLOCK
 62
     1
 10
5.648091190640196
 20
5.577595861085614
 30
0.0
  0
VERTEX
  5
3F40
  8
1
  6
BYBLOCK
 62
     1
 10
5.612731456663958
 20
5.630635462049972
 30
0.0
  0
VERTEX
  5
3F41
  8
1
  6
BYBLOCK
 62
     1
 10
5.560822544867445
 20
5.703205148640739
 30
0.0
  0
VERTEX
  5
3F42
  8
1
  6
BYBLOCK
 62
     1
 10
5.483020253511447
 20
5.820193349622136
 30
0.0
  0
SEQEND
  5
3EF0
  8
1
  6
BYBLOCK
 62
     1
  0
POLYLINE
  5
2BE1
  8
1
  6
BYBLOCK
 62
     1
 66
     1
 10
0.0
 20
0.0
 30
0.0
 70
     1
  0
VERTEX
  5
3F44
  8
1
  6
BYBLOCK
 62
     1
 10
2.840787242476472
 20
6.285144885776337
 30
0.0
  0
VERTEX
  5
3F45
  8
1
  6
BYBLOCK
 62
     1
 10
3.111831314938514
 20
6.32073653165519
 30
0.0
  0
VERTEX
  5
3F46
  8
1
  6
BYBLOCK
 62
     1
 10
3.306216457815332
 20
6.323474350568948
 30
0.0
  0
VERTEX
  5
3F47
  8
1
  6
BYBLOCK
 62
     1
 10
3.462272135899538
 20
6.309785256000159
 30
0.0
  0
VERTEX
  5
3F48
  8
1
  6
BYBLOCK
 62
     1
 10
3.581240862344502
 20
6.279169130443231
 30
0.0
  0
VERTEX
  5
3F49
  8
1
  6
BYBLOCK
 62
     1
 10
3.681781556266703
 20
6.238208106993447
 30
0.0
  0
VERTEX
  5
3F4A
  8
1
  6
BYBLOCK
 62
     1
 10
3.793865811342934
 20
6.158733082273992
 30
0.0
  0
VERTEX
  5
3F4B
  8
1
  6
BYBLOCK
 62
     1
 10
3.922047366521853
 20
6.049820066046372
 30
0.0
  0
VERTEX
  5
3F4C
  8
1
  6
BYBLOCK
 62
     1
 10
4.031652531889091
 20
5.936798809764246
 30
0.0
  0
VERTEX
  5
3F4D
  8
1
  6
BYBLOCK
 62
     1
 10
4.126767220107554
 20
5.825831673509374
 30
0.0
  0
VERTEX
  5
3F4E
  8
1
  6
BYBLOCK
 62
     1
 10
4.214714815622232
 20
5.705353068432654
 30
0.0
  0
VERTEX
  5
3F4F
  8
1
  6
BYBLOCK
 62
     1
 10
4.301144148508069
 20
5.572192504926806
 30
0.0
  0
VERTEX
  5
3F50
  8
1
  6
BYBLOCK
 62
     1
 10
4.380406388690121
 20
5.445372920635522
 30
0.0
  0
VERTEX
  5
3F51
  8
1
  6
BYBLOCK
 62
     1
 10
4.427963732799353
 20
5.35025823241706
 30
0.0
  0
VERTEX
  5
3F52
  8
1
  6
BYBLOCK
 62
     1
 10
4.485791677044849
 20
5.240519102700219
 30
0.0
  0
VERTEX
  5
3F53
  8
1
  6
BYBLOCK
 62
     1
 10
4.525087886261868
 20
5.149646618885866
 30
0.0
  0
VERTEX
  5
3F54
  8
1
  6
BYBLOCK
 62
     1
 10
4.576664160859202
 20
5.034214004310876
 30
0.0
  0
VERTEX
  5
3F55
  8
1
  6
BYBLOCK
 62
     1
 10
4.608592330848029
 20
4.945797533572586
 30
0.0
  0
VERTEX
  5
3F56
  8
1
  6
BYBLOCK
 62
     1
 10
4.638064487760793
 20
4.847557010530043
 30
0.0
  0
VERTEX
  5
3F57
  8
1
  6
BYBLOCK
 62
     1
 10
4.65034455314111
 20
4.751772500563563
 30
0.0
  0
VERTEX
  5
3F58
  8
1
  6
BYBLOCK
 62
     1
 10
4.647888540065046
 20
4.655987990597083
 30
0.0
  0
VERTEX
  5
3F59
  8
1
  6
BYBLOCK
 62
     1
 10
4.638890601250013
 20
4.472054938591521
 30
0.0
  0
VERTEX
  5
3F5A
  8
1
  6
BYBLOCK
 62
     1
 10
4.606962431261187
 20
4.28048591865856
 30
0.0
  0
VERTEX
  5
3F5B
  8
1
  6
BYBLOCK
 62
     1
 10
4.57503426127236
 20
4.076145630730071
 30
0.0
  0
VERTEX
  5
3F5C
  8
1
  6
BYBLOCK
 62
     1
 10
4.57503426127236
 20
3.903733512790406
 30
0.0
  0
VERTEX
  5
3F5D
  8
1
  6
BYBLOCK
 62
     1
 10
4.57503426127236
 20
3.769635198837333
 30
0.0
  0
VERTEX
  5
3F5E
  8
1
  6
BYBLOCK
 62
     1
 10
4.586488213163457
 20
3.63819384448473
 30
0.0
  0
VERTEX
  5
3F5F
  8
1
  6
BYBLOCK
 62
     1
 10
4.594191163265656
 20
3.546138008915547
 30
0.0
  0
VERTEX
  5
3F60
  8
1
  6
BYBLOCK
 62
     1
 10
4.613348065258952
 20
3.412039694962474
 30
0.0
  0
VERTEX
  5
3F61
  8
1
  6
BYBLOCK
 62
     1
 10
4.634313485971895
 20
3.276467773163764
 30
0.0
  0
VERTEX
  5
3F62
  8
1
  6
BYBLOCK
 62
     1
 10
4.668886668928329
 20
3.131291826337327
 30
0.0
  0
VERTEX
  5
3F63
  8
1
  6
BYBLOCK
 62
     1
 10
4.702367375570457
 20
3.01559452970261
 30
0.0
  0
VERTEX
  5
3F64
  8
1
  6
BYBLOCK
 62
     1
 10
4.741060745214258
 20
2.907574609139013
 30
0.0
  0
VERTEX
  5
3F65
  8
1
  6
BYBLOCK
 62
     1
 10
4.801881961197728
 20
2.717528694832535
 30
0.0
  0
VERTEX
  5
3F66
  8
1
  6
BYBLOCK
 62
     1
 10
4.855979829782434
 20
2.59193227408164
 30
0.0
  0
VERTEX
  5
3F67
  8
1
  6
BYBLOCK
 62
     1
 10
4.903537173891666
 20
2.480965137826767
 30
0.0
  0
VERTEX
  5
3F68
  8
1
  6
BYBLOCK
 62
     1
 10
4.975514703882774
 20
2.322237131698493
 30
0.0
  0
VERTEX
  5
3F69
  8
1
  6
BYBLOCK
 62
     1
 10
5.02189857282124
 20
2.203706885592635
 30
0.0
  0
VERTEX
  5
3F6A
  8
1
  6
BYBLOCK
 62
     1
 10
5.100096890316285
 20
2.06816313526789
 30
0.0
  0
VERTEX
  5
3F6B
  8
1
  6
BYBLOCK
 62
     1
 10
5.173081986644995
 20
1.948259048442157
 30
0.0
  0
VERTEX
  5
3F6C
  8
1
  6
BYBLOCK
 62
     1
 10
5.244790375749295
 20
1.845377724608538
 30
0.0
  0
VERTEX
  5
3F6D
  8
1
  6
BYBLOCK
 62
     1
 10
5.326909173421827
 20
1.739249188855562
 30
0.0
  0
VERTEX
  5
3F6E
  8
1
  6
BYBLOCK
 62
     1
 10
5.406216068387081
 20
1.63681111619211
 30
0.0
  0
VERTEX
  5
3F6F
  8
1
  6
BYBLOCK
 62
     1
 10
5.508654141050534
 20
1.527764135614886
 30
0.0
  0
VERTEX
  5
3F70
  8
1
  6
BYBLOCK
 62
     1
 10
5.601044887493726
 20
1.418851119387266
 30
0.0
  0
VERTEX
  5
3F71
  8
1
  6
BYBLOCK
 62
     1
 10
5.664454679639368
 20
1.355441327241624
 30
0.0
  0
VERTEX
  5
3F72
  8
1
  6
BYBLOCK
 62
     1
 10
5.763097095730722
 20
1.2501900032365
 30
0.0
  0
VERTEX
  5
3F73
  8
1
  6
BYBLOCK
 62
     1
 10
5.838831608039883
 20
1.165211950804698
 30
0.0
  0
VERTEX
  5
3F74
  8
1
  6
BYBLOCK
 62
     1
 10
5.887411690732108
 20
1.103591951179297
 30
0.0
  0
VERTEX
  5
3F75
  8
1
  6
BYBLOCK
 62
     1
 10
5.92617130656432
 20
1.049907421045234
 30
0.0
  0
VERTEX
  5
3F76
  8
1
  6
BYBLOCK
 62
     1
 10
5.948502296549033
 20
0.9857058248391823
 30
0.0
  0
VERTEX
  5
3F77
  8
1
  6
BYBLOCK
 62
     1
 10
5.902241400185525
 20
0.9274252302585423
 30
0.0
  0
VERTEX
  5
3F78
  8
1
  6
BYBLOCK
 62
     1
 10
5.83064969937593
 20
0.8811463093780551
 30
0.0
  0
VERTEX
  5
3F79
  8
1
  6
BYBLOCK
 62
     1
 10
5.743205550529923
 20
0.8381912888922963
 30
0.0
  0
VERTEX
  5
3F7A
  8
1
  6
BYBLOCK
 62
     1
 10
5.63581799931553
 20
0.7952362684065402
 30
0.0
  0
VERTEX
  5
3F7B
  8
1
  6
BYBLOCK
 62
     1
 10
5.585192439457315
 20
0.7829634054106085
 30
0.0
  0
VERTEX
  5
3F7C
  8
1
  6
BYBLOCK
 62
     1
 10
5.546839742595034
 20
0.7906339447830665
 30
0.0
  0
VERTEX
  5
3F7D
  8
1
  6
BYBLOCK
 62
     1
 10
5.521782647311675
 20
0.8164580940036691
 30
0.0
  0
VERTEX
  5
3F7E
  8
1
  6
BYBLOCK
 62
     1
 10
5.458372855166032
 20
0.8957203341857217
 30
0.0
  0
VERTEX
  5
3F7F
  8
1
  6
BYBLOCK
 62
     1
 10
5.404167710267338
 20
0.9593858109771127
 30
0.0
  0
VERTEX
  5
3F80
  8
1
  6
BYBLOCK
 62
     1
 10
5.315700822838338
 20
1.070097262586237
 30
0.0
  0
VERTEX
  5
3F81
  8
1
  6
BYBLOCK
 62
     1
 10
5.252291030692696
 20
1.14935950276829
 30
0.0
  0
VERTEX
  5
3F82
  8
1
  6
BYBLOCK
 62
     1
 10
5.188881238547054
 20
1.228621742950342
 30
0.0
  0
VERTEX
  5
3F83
  8
1
  6
BYBLOCK
 62
     1
 10
5.129656945680182
 20
1.300406509835042
 30
0.0
  0
VERTEX
  5
3F84
  8
1
  6
BYBLOCK
 62
     1
 10
5.062552856870982
 20
1.382368161511922
 30
0.0
  0
VERTEX
  5
3F85
  8
1
  6
BYBLOCK
 62
     1
 10
4.991003118253283
 20
1.479700252197411
 30
0.0
  0
VERTEX
  5
3F86
  8
1
  6
BYBLOCK
 62
     1
 10
4.919389621928077
 20
1.577375599751372
 30
0.0
  0
VERTEX
  5
3F87
  8
1
  6
BYBLOCK
 62
     1
 10
4.854372257587193
 20
1.676464563674737
 30
0.0
  0
VERTEX
  5
3F88
  8
1
  6
BYBLOCK
 62
     1
 10
4.808422485673202
 20
1.751752528151886
 30
0.0
  0
VERTEX
  5
3F89
  8
1
  6
BYBLOCK
 62
     1
 10
4.75193418492374
 20
1.848296169432785
 30
0.0
  0
VERTEX
  5
3F8A
  8
1
  6
BYBLOCK
 62
     1
 10
4.705671829527342
 20
1.934211972311811
 30
0.0
  0
VERTEX
  5
3F8B
  8
1
  6
BYBLOCK
 62
     1
 10
4.646191658303403
 20
2.049867860802805
 30
0.0
  0
VERTEX
  5
3F8C
  8
1
  6
BYBLOCK
 62
     1
 10
4.602340661199866
 20
2.132211281025736
 30
0.0
  0
VERTEX
  5
3F8D
  8
1
  6
BYBLOCK
 62
     1
 10
4.554783317090636
 20
2.24317841728061
 30
0.0
  0
VERTEX
  5
3F8E
  8
1
  6
BYBLOCK
 62
     1
 10
4.523078421017814
 20
2.322440657462662
 30
0.0
  0
VERTEX
  5
3F8F
  8
1
  6
BYBLOCK
 62
     1
 10
4.475521076908583
 20
2.433407793717537
 30
0.0
  0
VERTEX
  5
3F90
  8
1
  6
BYBLOCK
 62
     1
 10
4.424519269997464
 20
2.586035417454469
 30
0.0
  0
VERTEX
  5
3F91
  8
1
  6
BYBLOCK
 62
     1
 10
4.380406388690121
 20
2.718751858372925
 30
0.0
  0
VERTEX
  5
3F92
  8
1
  6
BYBLOCK
 62
     1
 10
4.33284904458089
 20
2.893128786773439
 30
0.0
  0
VERTEX
  5
3F93
  8
1
  6
BYBLOCK
 62
     1
 10
4.299715195445631
 20
3.009923372236063
 30
0.0
  0
VERTEX
  5
3F94
  8
1
  6
BYBLOCK
 62
     1
 10
4.260017093179804
 20
3.157373466366281
 30
0.0
  0
VERTEX
  5
3F95
  8
1
  6
BYBLOCK
 62
     1
 10
4.225990148380522
 20
3.310494717963045
 30
0.0
  0
VERTEX
  5
3F96
  8
1
  6
BYBLOCK
 62
     1
 10
4.206029460289606
 20
3.447964468047804
 30
0.0
  0
VERTEX
  5
3F97
  8
1
  6
BYBLOCK
 62
     1
 10
4.184868540404898
 20
3.569217897834223
 30
0.0
  0
VERTEX
  5
3F98
  8
1
  6
BYBLOCK
 62
     1
 10
4.174324564216785
 20
3.701603636630372
 30
0.0
  0
VERTEX
  5
3F99
  8
1
  6
BYBLOCK
 62
     1
 10
4.174324564216785
 20
3.812570772885245
 30
0.0
  0
VERTEX
  5
3F9A
  8
1
  6
BYBLOCK
 62
     1
 10
4.191653702640888
 20
3.946684069058379
 30
0.0
  0
VERTEX
  5
3F9B
  8
1
  6
BYBLOCK
 62
     1
 10
4.204521474629186
 20
4.068927902947203
 30
0.0
  0
VERTEX
  5
3F9C
  8
1
  6
BYBLOCK
 62
     1
 10
4.231661305847069
 20
4.223551070077086
 30
0.0
  0
VERTEX
  5
3F9D
  8
1
  6
BYBLOCK
 62
     1
 10
4.269439252435247
 20
4.351554006123202
 30
0.0
  0
VERTEX
  5
3F9E
  8
1
  6
BYBLOCK
 62
     1
 10
4.292988652019612
 20
4.441351893443025
 30
0.0
  0
VERTEX
  5
3F9F
  8
1
  6
BYBLOCK
 62
     1
 10
4.316996596544479
 20
4.541783382560126
 30
0.0
  0
VERTEX
  5
3FA0
  8
1
  6
BYBLOCK
 62
     1
 10
4.316996596544479
 20
4.636898070778587
 30
0.0
  0
VERTEX
  5
3FA1
  8
1
  6
BYBLOCK
 62
     1
 10
4.285291700471658
 20
4.763717655069872
 30
0.0
  0
VERTEX
  5
3FA2
  8
1
  6
BYBLOCK
 62
     1
 10
4.245102395590617
 20
4.867205115138551
 30
0.0
  0
VERTEX
  5
3FA3
  8
1
  6
BYBLOCK
 62
     1
 10
4.197518078793546
 20
4.988896891774992
 30
0.0
  0
VERTEX
  5
3FA4
  8
1
  6
BYBLOCK
 62
     1
 10
4.13049094951208
 20
5.11337584615486
 30
0.0
  0
VERTEX
  5
3FA5
  8
1
  6
BYBLOCK
 62
     1
 10
4.063357427961913
 20
5.207586200089363
 30
0.0
  0
VERTEX
  5
3FA6
  8
1
  6
BYBLOCK
 62
     1
 10
3.984095187779861
 20
5.334405784380648
 30
0.0
  0
VERTEX
  5
3FA7
  8
1
  6
BYBLOCK
 62
     1
 10
3.904832947597809
 20
5.445372920635522
 30
0.0
  0
VERTEX
  5
3FA8
  8
1
  6
BYBLOCK
 62
     1
 10
3.793865811342934
 20
5.572192504926806
 30
0.0
  0
VERTEX
  5
3FA9
  8
1
  6
BYBLOCK
 62
     1
 10
3.670610368053127
 20
5.705714802146236
 30
0.0
  0
VERTEX
  5
3FAA
  8
1
  6
BYBLOCK
 62
     1
 10
3.555174756512821
 20
5.828597872495591
 30
0.0
  0
VERTEX
  5
3FAB
  8
1
  6
BYBLOCK
 62
     1
 10
3.454634062590622
 20
5.921691107608741
 30
0.0
  0
VERTEX
  5
3FAC
  8
1
  6
BYBLOCK
 62
     1
 10
3.326529520312858
 20
6.014983729578654
 30
0.0
  0
VERTEX
  5
3FAD
  8
1
  6
BYBLOCK
 62
     1
 10
3.183457561932712
 20
6.07936611084972
 30
0.0
  0
VERTEX
  5
3FAE
  8
1
  6
BYBLOCK
 62
     1
 10
3.018924809795544
 20
6.136594894201779
 30
0.0
  0
VERTEX
  5
3FAF
  8
1
  6
BYBLOCK
 62
     1
 10
2.86869925349639
 20
6.174747416436484
 30
0.0
  0
VERTEX
  5
3FB0
  8
1
  6
BYBLOCK
 62
     1
 10
2.689859305521208
 20
6.198592742833175
 30
0.0
  0
VERTEX
  5
3FB1
  8
1
  6
BYBLOCK
 62
     1
 10
2.413687491930224
 20
6.19753468053608
 30
0.0
  0
SEQEND
  5
3F43
  8
1
  6
BYBLOCK
 62
     1
  0
POLYLINE
  5
2BE2
  8
1
  6
BYBLOCK
 62
     1
 66
     1
 10
0.0
 20
0.0
 30
0.0
 70
     1
  0
VERTEX
  5
3FB3
  8
1
  6
BYBLOCK
 62
     1
 10
4.88677978675149
 20
0.5137726835163791
 30
0.0
  0
VERTEX
  5
3FB4
  8
1
  6
BYBLOCK
 62
     1
 10
4.809745790281524
 20
0.482959084928393
 30
0.0
  0
VERTEX
  5
3FB5
  8
1
  6
BYBLOCK
 62
     1
 10
4.723907908500703
 20
0.4521454863404051
 30
0.0
  0
VERTEX
  5
3FB6
  8
1
  6
BYBLOCK
 62
     1
 10
4.638486608772161
 20
0.4267094243597369
 30
0.0
  0
VERTEX
  5
3FB7
  8
1
  6
BYBLOCK
 62
     1
 10
4.594686028725779
 20
0.4525534389541484
 30
0.0
  0
VERTEX
  5
3FB8
  8
1
  6
BYBLOCK
 62
     1
 10
4.538858553763996
 20
0.5251291564044671
 30
0.0
  0
VERTEX
  5
3FB9
  8
1
  6
BYBLOCK
 62
     1
 10
4.510944816283104
 20
0.5893307526105183
 30
0.0
  0
VERTEX
  5
3FBA
  8
1
  6
BYBLOCK
 62
     1
 10
4.449534593825142
 20
0.7428563087554234
 30
0.0
  0
VERTEX
  5
3FBB
  8
1
  6
BYBLOCK
 62
     1
 10
4.390915745115269
 20
0.8991732386484177
 30
0.0
  0
VERTEX
  5
3FBC
  8
1
  6
BYBLOCK
 62
     1
 10
4.332296896405396
 20
1.06107291603759
 30
0.0
  0
VERTEX
  5
3FBD
  8
1
  6
BYBLOCK
 62
     1
 10
4.272013914652145
 20
1.219676353477899
 30
0.0
  0
VERTEX
  5
3FBE
  8
1
  6
BYBLOCK
 62
     1
 10
4.208753387491513
 20
1.388371092572916
 30
0.0
  0
VERTEX
  5
3FBF
  8
1
  6
BYBLOCK
 62
     1
 10
4.150764570927601
 20
1.551794121071214
 30
0.0
  0
VERTEX
  5
3FC0
  8
1
  6
BYBLOCK
 62
     1
 10
4.108590886153847
 20
1.688858596585916
 30
0.0
  0
VERTEX
  5
3FC1
  8
1
  6
BYBLOCK
 62
     1
 10
4.050602069589934
 20
1.825923072100617
 30
0.0
  0
VERTEX
  5
3FC2
  8
1
  6
BYBLOCK
 62
     1
 10
4.00842838481618
 20
1.936628994631722
 30
0.0
  0
VERTEX
  5
3FC3
  8
1
  6
BYBLOCK
 62
     1
 10
3.939896147058829
 20
2.015704653582512
 30
0.0
  0
VERTEX
  5
3FC4
  8
1
  6
BYBLOCK
 62
     1
 10
3.850277066914601
 20
2.078965180743143
 30
0.0
  0
VERTEX
  5
3FC5
  8
1
  6
BYBLOCK
 62
     1
 10
3.717353281411122
 20
2.112480304899509
 30
0.0
  0
VERTEX
  5
3FC6
  8
1
  6
BYBLOCK
 62
     1
 10
3.575734532543565
 20
2.110852503188391
 30
0.0
  0
VERTEX
  5
3FC7
  8
1
  6
BYBLOCK
 62
     1
 10
3.434115783676008
 20
2.086435477521568
 30
0.0
  0
VERTEX
  5
3FC8
  8
1
  6
BYBLOCK
 62
     1
 10
3.261568802297146
 20
2.037601426187929
 30
0.0
  0
VERTEX
  5
3FC9
  8
1
  6
BYBLOCK
 62
     1
 10
3.11995005342959
 20
1.980628366298681
 30
0.0
  0
VERTEX
  5
3FCA
  8
1
  6
BYBLOCK
 62
     1
 10
3.038559967873522
 20
1.948072332076256
 30
0.0
  0
VERTEX
  5
3FCB
  8
1
  6
BYBLOCK
 62
     1
 10
2.928029939009917
 20
1.894309022039924
 30
0.0
  0
VERTEX
  5
3FCC
  8
1
  6
BYBLOCK
 62
     1
 10
2.810667728316535
 20
1.834126212297761
 30
0.0
  0
VERTEX
  5
3FCD
  8
1
  6
BYBLOCK
 62
     1
 10
2.742689811788721
 20
1.795173605154167
 30
0.0
  0
VERTEX
  5
3FCE
  8
1
  6
BYBLOCK
 62
     1
 10
2.673726043520369
 20
1.754226367744833
 30
0.0
  0
VERTEX
  5
3FCF
  8
1
  6
BYBLOCK
 62
     1
 10
2.598296921976859
 20
1.702503541543569
 30
0.0
  0
VERTEX
  5
3FD0
  8
1
  6
BYBLOCK
 62
     1
 10
2.520712682674962
 20
1.64862559758392
 30
0.0
  0
VERTEX
  5
3FD1
  8
1
  6
BYBLOCK
 62
     1
 10
2.466834738715312
 20
1.609833477932972
 30
0.0
  0
VERTEX
  5
3FD2
  8
1
  6
BYBLOCK
 62
     1
 10
2.404336323722119
 20
1.566731122765251
 30
0.0
  0
VERTEX
  5
3FD3
  8
1
  6
BYBLOCK
 62
     1
 10
2.34399302648731
 20
1.523628767597531
 30
0.0
  0
VERTEX
  5
3FD4
  8
1
  6
BYBLOCK
 62
     1
 10
2.289771180757705
 20
1.49228785296228
 30
0.0
  0
VERTEX
  5
3FD5
  8
1
  6
BYBLOCK
 62
     1
 10
2.240937129424065
 20
1.49228785296228
 30
0.0
  0
VERTEX
  5
3FD6
  8
1
  6
BYBLOCK
 62
     1
 10
2.175825060979211
 20
1.49228785296228
 30
0.0
  0
VERTEX
  5
3FD7
  8
1
  6
BYBLOCK
 62
     1
 10
2.143269026756784
 20
1.508565870073493
 30
0.0
  0
VERTEX
  5
3FD8
  8
1
  6
BYBLOCK
 62
     1
 10
2.10693007306485
 20
1.553800416214934
 30
0.0
  0
VERTEX
  5
3FD9
  8
1
  6
BYBLOCK
 62
     1
 10
2.061878941200717
 20
1.606233972740773
 30
0.0
  0
VERTEX
  5
3FDA
  8
1
  6
BYBLOCK
 62
     1
 10
2.010935625678018
 20
1.685537720892445
 30
0.0
  0
VERTEX
  5
3FDB
  8
1
  6
BYBLOCK
 62
     1
 10
1.959564128233291
 20
1.771884835622767
 30
0.0
  0
VERTEX
  5
3FDC
  8
1
  6
BYBLOCK
 62
     1
 10
1.917453114317929
 20
1.842069858815036
 30
0.0
  0
VERTEX
  5
3FDD
  8
1
  6
BYBLOCK
 62
     1
 10
1.877043203242122
 20
1.916502149594366
 30
0.0
  0
VERTEX
  5
3FDE
  8
1
  6
BYBLOCK
 62
     1
 10
1.833986701643729
 20
1.996906383409896
 30
0.0
  0
VERTEX
  5
3FDF
  8
1
  6
BYBLOCK
 62
     1
 10
1.790790266410932
 20
2.08530200349567
 30
0.0
  0
VERTEX
  5
3FE0
  8
1
  6
BYBLOCK
 62
     1
 10
1.743150780806226
 20
2.170897752222571
 30
0.0
  0
VERTEX
  5
3FE1
  8
1
  6
BYBLOCK
 62
     1
 10
1.702983054075457
 20
2.261275137366799
 30
0.0
  0
VERTEX
  5
3FE2
  8
1
  6
BYBLOCK
 62
     1
 10
1.654928513420382
 20
2.355022759856591
 30
0.0
  0
VERTEX
  5
3FE3
  8
1
  6
BYBLOCK
 62
     1
 10
1.622372479197954
 20
2.436412845412658
 30
0.0
  0
VERTEX
  5
3FE4
  8
1
  6
BYBLOCK
 62
     1
 10
1.589816444975529
 20
2.517802930968724
 30
0.0
  0
VERTEX
  5
3FE5
  8
1
  6
BYBLOCK
 62
     1
 10
1.540982393641888
 20
2.648027067858433
 30
0.0
  0
VERTEX
  5
3FE6
  8
1
  6
BYBLOCK
 62
     1
 10
1.500975154403766
 20
2.765297571413159
 30
0.0
  0
VERTEX
  5
3FE7
  8
1
  6
BYBLOCK
 62
     1
 10
1.47117033434098
 20
2.887497333670579
 30
0.0
  0
VERTEX
  5
3FE8
  8
1
  6
BYBLOCK
 62
     1
 10
1.443314290974607
 20
3.022421461416339
 30
0.0
  0
VERTEX
  5
3FE9
  8
1
  6
BYBLOCK
 62
     1
 10
1.427036273863394
 20
3.152645598306048
 30
0.0
  0
VERTEX
  5
3FEA
  8
1
  6
BYBLOCK
 62
     1
 10
1.40453629795539
 20
3.266347791657807
 30
0.0
  0
VERTEX
  5
3FEB
  8
1
  6
BYBLOCK
 62
     1
 10
1.390170004124196
 20
3.419008982528693
 30
0.0
  0
VERTEX
  5
3FEC
  8
1
  6
BYBLOCK
 62
     1
 10
1.384759282943566
 20
3.548866290863781
 30
0.0
  0
VERTEX
  5
3FED
  8
1
  6
BYBLOCK
 62
     1
 10
1.373937840582309
 20
3.689545041560125
 30
0.0
  0
VERTEX
  5
3FEE
  8
1
  6
BYBLOCK
 62
     1
 10
1.368527119401681
 20
3.878920282882131
 30
0.0
  0
VERTEX
  5
3FEF
  8
1
  6
BYBLOCK
 62
     1
 10
1.367396493296204
 20
3.972004080182355
 30
0.0
  0
VERTEX
  5
3FF0
  8
1
  6
BYBLOCK
 62
     1
 10
1.384759282943566
 20
4.154867063094192
 30
0.0
  0
VERTEX
  5
3FF1
  8
1
  6
BYBLOCK
 62
     1
 10
1.417223610027339
 20
4.300956534971167
 30
0.0
  0
VERTEX
  5
3FF2
  8
1
  6
BYBLOCK
 62
     1
 10
1.443314290974607
 20
4.422330932980694
 30
0.0
  0
VERTEX
  5
3FF3
  8
1
  6
BYBLOCK
 62
     1
 10
1.475870325197034
 20
4.536277052759187
 30
0.0
  0
VERTEX
  5
3FF4
  8
1
  6
BYBLOCK
 62
     1
 10
1.507119532693631
 20
4.653662190237233
 30
0.0
  0
VERTEX
  5
3FF5
  8
1
  6
BYBLOCK
 62
     1
 10
1.533439481487537
 20
4.762701978097701
 30
0.0
  0
VERTEX
  5
3FF6
  8
1
  6
BYBLOCK
 62
     1
 10
1.573538427864315
 20
4.910671446317098
 30
0.0
  0
VERTEX
  5
3FF7
  8
1
  6
BYBLOCK
 62
     1
 10
1.606094462086741
 20
5.024617566095591
 30
0.0
  0
VERTEX
  5
3FF8
  8
1
  6
BYBLOCK
 62
     1
 10
1.638650496309168
 20
5.122285668762872
 30
0.0
  0
VERTEX
  5
3FF9
  8
1
  6
BYBLOCK
 62
     1
 10
1.672559210826753
 20
5.213901100278941
 30
0.0
  0
VERTEX
  5
3FFA
  8
1
  6
BYBLOCK
 62
     1
 10
1.704347722231877
 20
5.276288477707194
 30
0.0
  0
VERTEX
  5
3FFB
  8
1
  6
BYBLOCK
 62
     1
 10
1.749032475086188
 20
5.305014390256394
 30
0.0
  0
VERTEX
  5
3FFC
  8
1
  6
BYBLOCK
 62
     1
 10
1.793717227940498
 20
5.314589694439462
 30
0.0
  0
VERTEX
  5
3FFD
  8
1
  6
BYBLOCK
 62
     1
 10
1.854360821099922
 20
5.292247318012308
 30
0.0
  0
VERTEX
  5
3FFE
  8
1
  6
BYBLOCK
 62
     1
 10
1.93165480431101
 20
5.236231788541366
 30
0.0
  0
VERTEX
  5
3FFF
  8
1
  6
BYBLOCK
 62
     1
 10
2.004373919967966
 20
5.170960131693461
 30
0.0
  0
VERTEX
  5
4000
  8
1
  6
BYBLOCK
 62
     1
 10
2.07815695831193
 20
5.106007651651659
 30
0.0
  0
VERTEX
  5
4001
  8
1
  6
BYBLOCK
 62
     1
 10
2.128852874347834
 20
5.056056481496661
 30
0.0
  0
VERTEX
  5
4002
  8
1
  6
BYBLOCK
 62
     1
 10
2.186304699446235
 20
5.004988192520306
 30
0.0
  0
VERTEX
  5
4003
  8
1
  6
BYBLOCK
 62
     1
 10
2.257215146535279
 20
4.943227480539523
 30
0.0
  0
VERTEX
  5
4004
  8
1
  6
BYBLOCK
 62
     1
 10
2.323037945304706
 20
4.890541729382385
 30
0.0
  0
VERTEX
  5
4005
  8
1
  6
BYBLOCK
 62
     1
 10
2.4037173005362
 20
4.82928136076103
 30
0.0
  0
VERTEX
  5
4006
  8
1
  6
BYBLOCK
 62
     1
 10
2.493131760724555
 20
4.769190258157522
 30
0.0
  0
VERTEX
  5
4007
  8
1
  6
BYBLOCK
 62
     1
 10
2.571685961789094
 20
4.719005357468443
 30
0.0
  0
VERTEX
  5
4008
  8
1
  6
BYBLOCK
 62
     1
 10
2.637165396643401
 20
4.679413141044909
 30
0.0
  0
VERTEX
  5
4009
  8
1
  6
BYBLOCK
 62
     1
 10
2.701192331547459
 20
4.638897340913823
 30
0.0
  0
VERTEX
  5
400A
  8
1
  6
BYBLOCK
 62
     1
 10
2.773090728252761
 20
4.589467193178928
 30
0.0
  0
VERTEX
  5
400B
  8
1
  6
BYBLOCK
 62
     1
 10
2.849184726551519
 20
4.542169236417754
 30
0.0
  0
VERTEX
  5
400C
  8
1
  6
BYBLOCK
 62
     1
 10
2.922367023197988
 20
4.497737127739541
 30
0.0
  0
VERTEX
  5
400D
  8
1
  6
BYBLOCK
 62
     1
 10
2.990322012941138
 20
4.458532325964647
 30
0.0
  0
VERTEX
  5
400E
  8
1
  6
BYBLOCK
 62
     1
 10
3.047822388877649
 20
4.429782137996391
 30
0.0
  0
VERTEX
  5
400F
  8
1
  6
BYBLOCK
 62
     1
 10
3.118391032072459
 20
4.398418296576475
 30
0.0
  0
VERTEX
  5
4010
  8
1
  6
BYBLOCK
 62
     1
 10
3.196800635622248
 20
4.369668108608218
 30
0.0
  0
VERTEX
  5
4011
  8
1
  6
BYBLOCK
 62
     1
 10
3.285664852978675
 20
4.346145227543282
 30
0.0
  0
VERTEX
  5
4012
  8
1
  6
BYBLOCK
 62
     1
 10
3.384983684141741
 20
4.322622346478346
 30
0.0
  0
VERTEX
  5
4013
  8
1
  6
BYBLOCK
 62
     1
 10
3.501061994893957
 20
4.301873606357715
 30
0.0
  0
VERTEX
  5
4014
  8
1
  6
BYBLOCK
 62
     1
 10
3.581947691187423
 20
4.288392656975471
 30
0.0
  0
VERTEX
  5
4015
  8
1
  6
BYBLOCK
 62
     1
 10
3.689795286245378
 20
4.270418057799144
 30
0.0
  0
VERTEX
  5
4016
  8
1
  6
BYBLOCK
 62
     1
 10
3.866742459936384
 20
4.242642824789215
 30
0.0
  0
VERTEX
  5
4017
  8
1
  6
BYBLOCK
 62
     1
 10
3.853874687948087
 20
4.181520907844804
 30
0.0
  0
VERTEX
  5
4018
  8
1
  6
BYBLOCK
 62
     1
 10
3.843831695011321
 20
4.111248587689943
 30
0.0
  0
VERTEX
  5
4019
  8
1
  6
BYBLOCK
 62
     1
 10
3.838420165408812
 20
4.0300756436523
 30
0.0
  0
VERTEX
  5
401A
  8
1
  6
BYBLOCK
 62
     1
 10
3.824922200974418
 20
3.911297696090562
 30
0.0
  0
VERTEX
  5
401B
  8
1
  6
BYBLOCK
 62
     1
 10
3.815271371983195
 20
3.779403033210516
 30
0.0
  0
VERTEX
  5
401C
  8
1
  6
BYBLOCK
 62
     1
 10
3.815271371983195
 20
3.660376142318766
 30
0.0
  0
VERTEX
  5
401D
  8
1
  6
BYBLOCK
 62
     1
 10
3.812054428986121
 20
3.560650909409463
 30
0.0
  0
VERTEX
  5
401E
  8
1
  6
BYBLOCK
 62
     1
 10
3.822185576601283
 20
3.445630446581271
 30
0.0
  0
VERTEX
  5
401F
  8
1
  6
BYBLOCK
 62
     1
 10
3.827597106203793
 20
3.364457502543628
 30
0.0
  0
VERTEX
  5
4020
  8
1
  6
BYBLOCK
 62
     1
 10
3.843831695011321
 20
3.272461499300966
 30
0.0
  0
VERTEX
  5
4021
  8
1
  6
BYBLOCK
 62
     1
 10
3.854654754216341
 20
3.207523144070852
 30
0.0
  0
VERTEX
  5
4022
  8
1
  6
BYBLOCK
 62
     1
 10
3.881712402228888
 20
3.11011561122568
 30
0.0
  0
VERTEX
  5
4023
  8
1
  6
BYBLOCK
 62
     1
 10
3.903358520638926
 20
3.023531137585528
 30
0.0
  0
VERTEX
  5
4024
  8
1
  6
BYBLOCK
 62
     1
 10
3.925004639048964
 20
2.953181252752904
 30
0.0
  0
VERTEX
  5
4025
  8
1
  6
BYBLOCK
 62
     1
 10
3.952062287061512
 20
2.850362190305223
 30
0.0
  0
VERTEX
  5
4026
  8
1
  6
BYBLOCK
 62
     1
 10
3.984531464676569
 20
2.731308539050013
 30
0.0
  0
VERTEX
  5
4027
  8
1
  6
BYBLOCK
 62
     1
 10
4.017000642291627
 20
2.633901006204842
 30
0.0
  0
VERTEX
  5
4028
  8
1
  6
BYBLOCK
 62
     1
 10
4.060292879111702
 20
2.525670414154651
 30
0.0
  0
VERTEX
  5
4029
  8
1
  6
BYBLOCK
 62
     1
 10
4.094636449836654
 20
2.449160137685664
 30
0.0
  0
VERTEX
  5
402A
  8
1
  6
BYBLOCK
 62
     1
 10
4.147459761701775
 20
2.331775000207617
 30
0.0
  0
VERTEX
  5
402B
  8
1
  6
BYBLOCK
 62
     1
 10
4.194413816692993
 20
2.229063004914329
 30
0.0
  0
VERTEX
  5
402C
  8
1
  6
BYBLOCK
 62
     1
 10
4.244302500121163
 20
2.129285638057989
 30
0.0
  0
VERTEX
  5
402D
  8
1
  6
BYBLOCK
 62
     1
 10
4.301529203130872
 20
2.005370098303593
 30
0.0
  0
VERTEX
  5
402E
  8
1
  6
BYBLOCK
 62
     1
 10
4.362472702055752
 20
1.868247225722612
 30
0.0
  0
VERTEX
  5
402F
  8
1
  6
BYBLOCK
 62
     1
 10
4.443762567538622
 20
1.714625973096553
 30
0.0
  0
VERTEX
  5
4030
  8
1
  6
BYBLOCK
 62
     1
 10
4.511750634466592
 20
1.591011305954789
 30
0.0
  0
VERTEX
  5
4031
  8
1
  6
BYBLOCK
 62
     1
 10
4.567377234680386
 20
1.485938838884289
 30
0.0
  0
VERTEX
  5
4032
  8
1
  6
BYBLOCK
 62
     1
 10
4.629184568251269
 20
1.387047105170878
 30
0.0
  0
VERTEX
  5
4033
  8
1
  6
BYBLOCK
 62
     1
 10
4.697172635179239
 20
1.27579390474329
 30
0.0
  0
VERTEX
  5
4034
  8
1
  6
BYBLOCK
 62
     1
 10
4.756585706114952
 20
1.178310613457336
 30
0.0
  0
VERTEX
  5
4035
  8
1
  6
BYBLOCK
 62
     1
 10
4.820787302321003
 20
1.075029784778036
 30
0.0
  0
VERTEX
  5
4036
  8
1
  6
BYBLOCK
 62
     1
 10
4.887780272275143
 20
0.9689575823506472
 30
0.0
  0
VERTEX
  5
4037
  8
1
  6
BYBLOCK
 62
     1
 10
4.957564615977373
 20
0.8545112586789907
 30
0.0
  0
VERTEX
  5
4038
  8
1
  6
BYBLOCK
 62
     1
 10
5.010600717191068
 20
0.7651872987401369
 30
0.0
  0
VERTEX
  5
4039
  8
1
  6
BYBLOCK
 62
     1
 10
5.055262697160495
 20
0.6898202075417289
 30
0.0
  0
VERTEX
  5
403A
  8
1
  6
BYBLOCK
 62
     1
 10
5.072391714351359
 20
0.6352675197802044
 30
0.0
  0
VERTEX
  5
403B
  8
1
  6
BYBLOCK
 62
     1
 10
5.040119217957177
 20
0.5811835048155123
 30
0.0
  0
SEQEND
  5
3FB2
  8
1
  6
BYBLOCK
 62
     1
  0
ENDSEC
  0
EOF
