  0
SECTION
  2
HEADER
  9
$ACADVER
  1
AC1014
  9
$HANDSEED
  5
FFFF
  9
$MEASUREMENT
 70
     1
  0
ENDSEC
  0
SECTION
  2
TABLES
  0
TABLE
  2
VPORT
  5
8
330
0
100
AcDbSymbolTable
 70
     4
  0
VPORT
  5
2E
330
8
100
AcDbSymbolTableRecord
100
AcDbViewportTableRecord
  2
*ACTIVE
 70
     0
 10
0.0
 20
0.0
 11
1.0
 21
1.0
 12
210.0
 22
148.5
 13
0.0
 23
0.0
 14
10.0
 24
10.0
 15
10.0
 25
10.0
 16
0.0
 26
0.0
 36
1.0
 17
0.0
 27
0.0
 37
0.0
 40
341.0
 41
1.24
 42
50.0
 43
0.0
 44
0.0
 50
0.0
 51
0.0
 71
     0
 72
   100
 73
     1
 74
     3
 75
     0
 76
     0
 77
     0
 78
     0
  0
ENDTAB
  0
TABLE
  2
LTYPE
  5
5
330
0
100
AcDbSymbolTable
 70
     1
  0
LTYPE
  5
14
330
5
100
AcDbSymbolTableRecord
100
AcDbLinetypeTableRecord
  2
BYBLOCK
 70
     0
  3

 72
    65
 73
     0
 40
0.0
  0
LTYPE
  5
15
330
5
100
AcDbSymbolTableRecord
100
AcDbLinetypeTableRecord
  2
BYLAYER
 70
     0
  3

 72
    65
 73
     0
 40
0.0
  0
LTYPE
  5
16
330
5
100
AcDbSymbolTableRecord
100
AcDbLinetypeTableRecord
  2
CONTINUOUS
 70
     0
  3
Solid line
 72
    65
 73
     0
 40
0.0
  0
ENDTAB
  0
TABLE
  2
LAYER
  5
2
100
AcDbSymbolTable
 70
2
  0
LAYER
  5
50
100
AcDbSymbolTableRecord
100
AcDbLayerTableRecord
  2
0
 70
0
  6
CONTINUOUS
  0
LAYER
  5
51
100
AcDbSymbolTableRecord
100
AcDbLayerTableRecord
  2
Layer_1
 70
0
  6
CONTINUOUS
  0
ENDTAB
  0
TABLE
  2
STYLE
  5
3
330
0
100
AcDbSymbolTable
 70
     1
  0
STYLE
  5
11
330
3
100
AcDbSymbolTableRecord
100
AcDbTextStyleTableRecord
  2
STANDARD
 70
     0
 40
0.0
 41
1.0
 50
0.0
 71
     0
 42
2.5
  3
txt
  4

  0
ENDTAB
  0
TABLE
  2
VIEW
  5
6
330
0
100
AcDbSymbolTable
 70
     0
  0
ENDTAB
  0
TABLE
  2
UCS
  5
7
330
0
100
AcDbSymbolTable
 70
     0
  0
ENDTAB
  0
TABLE
  2
APPID
  5
9
330
0
100
AcDbSymbolTable
 70
     2
  0
APPID
  5
12
330
9
100
AcDbSymbolTableRecord
100
AcDbRegAppTableRecord
  2
ACAD
 70
     0
  0
ENDTAB
  0
TABLE
  2
DIMSTYLE
  5
A
330
0
100
AcDbSymbolTable
 70
     1
  0
DIMSTYLE
105
27
330
A
100
AcDbSymbolTableRecord
100
AcDbDimStyleTableRecord
  2
ISO-25
 70
     0
  3

  4

  5

  6

  7

 40
1.0
 41
2.5
 42
0.625
 43
3.75
 44
1.25
 45
0.0
 46
0.0
 47
0.0
 48
0.0
140
2.5
141
2.5
142
0.0
143
0.03937007874016
144
1.0
145
0.0
146
1.0
147
0.625
 71
     0
 72
     0
 73
     0
 74
     0
 75
     0
 76
     0
 77
     1
 78
     8
170
     0
171
     3
172
     1
173
     0
174
     0
175
     0
176
     0
177
     0
178
     0
270
     2
271
     2
272
     2
273
     2
274
     3
340
11
275
     0
280
     0
281
     0
282
     0
283
     0
284
     8
285
     0
286
     0
287
     3
288
     0
  0
ENDTAB
  0
TABLE
  2
BLOCK_RECORD
  5
1
330
0
100
AcDbSymbolTable
 70
     1
  0
BLOCK_RECORD
  5
1F
330
1
100
AcDbSymbolTableRecord
100
AcDbBlockTableRecord
  2
*MODEL_SPACE
  0
BLOCK_RECORD
  5
1B
330
1
100
AcDbSymbolTableRecord
100
AcDbBlockTableRecord
  2
*PAPER_SPACE
  0
ENDTAB
  0
ENDSEC
  0
SECTION
  2
BLOCKS
  0
BLOCK
  5
20
330
1F
100
AcDbEntity
  8
0
100
AcDbBlockBegin
  2
*MODEL_SPACE
 70
     0
 10
0.0
 20
0.0
 30
0.0
  3
*MODEL_SPACE
  1

  0
ENDBLK
  5
21
330
1F
100
AcDbEntity
  8
0
100
AcDbBlockEnd
  0
BLOCK
  5
1C
330
1B
100
AcDbEntity
 67
     1
  8
0
100
AcDbBlockBegin
  2
*PAPER_SPACE
  1

  0
ENDBLK
  5
1D
330
1B
100
AcDbEntity
 67
     1
  8
0
100
AcDbBlockEnd
  0
ENDSEC
  0
SECTION
  2
ENTITIES
  0
SPLINE
  5
100
100
AcDbEntity
  8
Layer_1
 62
7
100
AcDbSpline
 70
8
 71
3
 72
8
 73
4
 74
0
 40
0
 40
0
 40
0
 40
0
 40
1
 40
1
 40
1
 40
1
 10
42.673421
 20
7.847944
 30
0.0
 10
40.632266
 20
8.810252
 30
0.0
 10
39.343616
 20
9.455380
 30
0.0
 10
38.801529
 20
9.786305
 30
0.0
  0
SPLINE
  5
101
100
AcDbEntity
  8
Layer_1
 62
7
100
AcDbSpline
 70
8
 71
3
 72
8
 73
4
 74
0
 40
0
 40
0
 40
0
 40
0
 40
1
 40
1
 40
1
 40
1
 10
38.801529
 20
9.786305
 30
0.0
 10
36.123584
 20
11.421102
 30
0.0
 10
34.895205
 20
13.263131
 30
0.0
 10
34.651140
 20
16.010067
 30
0.0
  0
SPLINE
  5
102
100
AcDbEntity
  8
Layer_1
 62
7
100
AcDbSpline
 70
8
 71
3
 72
8
 73
4
 74
0
 40
0
 40
0
 40
0
 40
0
 40
1
 40
1
 40
1
 40
1
 10
34.651140
 20
16.010067
 30
0.0
 10
34.560968
 20
17.024985
 30
0.0
 10
34.603394
 20
20.016211
 30
0.0
 10
34.726875
 20
21.349555
 30
0.0
  0
SPLINE
  5
103
100
AcDbEntity
  8
Layer_1
 62
7
100
AcDbSpline
 70
8
 71
3
 72
8
 73
4
 74
0
 40
0
 40
0
 40
0
 40
0
 40
1
 40
1
 40
1
 40
1
 10
34.726875
 20
21.349555
 30
0.0
 10
34.891882
 20
23.131285
 30
0.0
 10
35.333742
 20
26.312873
 30
0.0
 10
35.776871
 20
28.910023
 30
0.0
  0
SPLINE
  5
104
100
AcDbEntity
  8
Layer_1
 62
7
100
AcDbSpline
 70
8
 71
3
 72
8
 73
4
 74
0
 40
0
 40
0
 40
0
 40
0
 40
1
 40
1
 40
1
 40
1
 10
35.776871
 20
28.910023
 30
0.0
 10
35.855704
 20
29.372052
 30
0.0
 10
35.940037
 20
30.083535
 30
0.0
 10
35.964278
 20
30.491097
 30
0.0
  0
LINE
  5
105
100
AcDbEntity
  8
Layer_1
 62
7
100
AcDbLine
 10
35.964278
 20
30.491097
 30
0.0
 11
36.008355
 21
31.232118
 31
0.0
  0
LINE
  5
106
100
AcDbEntity
  8
Layer_1
 62
7
100
AcDbLine
 10
36.008355
 20
31.232118
 30
0.0
 11
33.635672
 21
31.278534
 31
0.0
  0
SPLINE
  5
107
100
AcDbEntity
  8
Layer_1
 62
7
100
AcDbSpline
 70
8
 71
3
 72
8
 73
4
 74
0
 40
0
 40
0
 40
0
 40
0
 40
1
 40
1
 40
1
 40
1
 10
33.635672
 20
31.278534
 30
0.0
 10
30.395233
 20
31.341923
 30
0.0
 10
28.166330
 20
31.334668
 30
0.0
 10
26.959774
 20
31.256811
 30
0.0
  0
SPLINE
  5
108
100
AcDbEntity
  8
Layer_1
 62
7
100
AcDbSpline
 70
8
 71
3
 72
8
 73
4
 74
0
 40
0
 40
0
 40
0
 40
0
 40
1
 40
1
 40
1
 40
1
 10
26.959774
 20
31.256811
 30
0.0
 10
25.844749
 20
31.184853
 30
0.0
 10
25.825777
 20
31.189851
 30
0.0
 10
25.556665
 20
31.626334
 30
0.0
  0
LINE
  5
109
100
AcDbEntity
  8
Layer_1
 62
7
100
AcDbLine
 10
25.556665
 20
31.626334
 30
0.0
 11
25.435734
 21
31.822477
 31
0.0
  0
LINE
  5
10a
100
AcDbEntity
  8
Layer_1
 62
7
100
AcDbLine
 10
25.435734
 20
31.822477
 30
0.0
 11
25.304172
 21
31.141527
 31
0.0
  0
SPLINE
  5
10b
100
AcDbEntity
  8
Layer_1
 62
7
100
AcDbSpline
 70
8
 71
3
 72
8
 73
4
 74
0
 40
0
 40
0
 40
0
 40
0
 40
1
 40
1
 40
1
 40
1
 10
25.304172
 20
31.141527
 30
0.0
 10
25.231813
 20
30.767001
 30
0.0
 10
25.137417
 20
30.449118
 30
0.0
 10
25.094402
 20
30.435116
 30
0.0
  0
SPLINE
  5
10c
100
AcDbEntity
  8
Layer_1
 62
7
100
AcDbSpline
 70
8
 71
3
 72
8
 73
4
 74
0
 40
0
 40
0
 40
0
 40
0
 40
1
 40
1
 40
1
 40
1
 10
25.094402
 20
30.435116
 30
0.0
 10
24.995648
 20
30.402969
 30
0.0
 10
24.927595
 20
30.736344
 30
0.0
 10
24.927595
 20
31.252261
 30
0.0
  0
SPLINE
  5
10d
100
AcDbEntity
  8
Layer_1
 62
7
100
AcDbSpline
 70
8
 71
3
 72
8
 73
4
 74
0
 40
0
 40
0
 40
0
 40
0
 40
1
 40
1
 40
1
 40
1
 10
24.927595
 20
31.252261
 30
0.0
 10
24.927595
 20
31.740245
 30
0.0
 10
24.873916
 20
31.809095
 30
0.0
 10
24.707195
 20
31.534944
 30
0.0
  0
SPLINE
  5
10e
100
AcDbEntity
  8
Layer_1
 62
7
100
AcDbSpline
 70
8
 71
3
 72
8
 73
4
 74
0
 40
0
 40
0
 40
0
 40
0
 40
1
 40
1
 40
1
 40
1
 10
24.707195
 20
31.534944
 30
0.0
 10
24.542425
 20
31.264003
 30
0.0
 10
24.283880
 20
31.250879
 30
0.0
 10
24.166945
 20
31.507525
 30
0.0
  0
SPLINE
  5
10f
100
AcDbEntity
  8
Layer_1
 62
7
100
AcDbSpline
 70
8
 71
3
 72
8
 73
4
 74
0
 40
0
 40
0
 40
0
 40
0
 40
1
 40
1
 40
1
 40
1
 10
24.166945
 20
31.507525
 30
0.0
 10
24.121250
 20
31.607813
 30
0.0
 10
24.064453
 20
31.875579
 30
0.0
 10
24.040729
 20
32.102563
 30
0.0
  0
SPLINE
  5
110
100
AcDbEntity
  8
Layer_1
 62
7
100
AcDbSpline
 70
8
 71
3
 72
8
 73
4
 74
0
 40
0
 40
0
 40
0
 40
0
 40
1
 40
1
 40
1
 40
1
 10
24.040729
 20
32.102563
 30
0.0
 10
23.962282
 20
32.853098
 30
0.0
 10
23.900036
 20
32.620484
 30
0.0
 10
23.696646
 20
30.816727
 30
0.0
  0
SPLINE
  5
111
100
AcDbEntity
  8
Layer_1
 62
7
100
AcDbSpline
 70
8
 71
3
 72
8
 73
4
 74
0
 40
0
 40
0
 40
0
 40
0
 40
1
 40
1
 40
1
 40
1
 10
23.696646
 20
30.816727
 30
0.0
 10
23.653900
 20
30.437632
 30
0.0
 10
23.573262
 20
30.276033
 30
0.0
 10
23.475583
 20
30.373712
 30
0.0
  0
SPLINE
  5
112
100
AcDbEntity
  8
Layer_1
 62
7
100
AcDbSpline
 70
8
 71
3
 72
8
 73
4
 74
0
 40
0
 40
0
 40
0
 40
0
 40
1
 40
1
 40
1
 40
1
 10
23.475583
 20
30.373712
 30
0.0
 10
23.452146
 20
30.397154
 30
0.0
 10
23.381210
 20
30.628693
 30
0.0
 10
23.317946
 20
30.888255
 30
0.0
  0
SPLINE
  5
113
100
AcDbEntity
  8
Layer_1
 62
7
100
AcDbSpline
 70
8
 71
3
 72
8
 73
4
 74
0
 40
0
 40
0
 40
0
 40
0
 40
1
 40
1
 40
1
 40
1
 10
23.317946
 20
30.888255
 30
0.0
 10
23.213254
 20
31.317779
 30
0.0
 10
23.184876
 20
31.363330
 30
0.0
 10
23.002126
 20
31.395188
 30
0.0
  0
SPLINE
  5
114
100
AcDbEntity
  8
Layer_1
 62
7
100
AcDbSpline
 70
8
 71
3
 72
8
 73
4
 74
0
 40
0
 40
0
 40
0
 40
0
 40
1
 40
1
 40
1
 40
1
 10
23.002126
 20
31.395188
 30
0.0
 10
22.843628
 20
31.422816
 30
0.0
 10
22.787477
 20
31.481800
 30
0.0
 10
22.735549
 20
31.675205
 30
0.0
  0
LINE
  5
115
100
AcDbEntity
  8
Layer_1
 62
7
100
AcDbLine
 10
22.735549
 20
31.675205
 30
0.0
 11
22.669764
 21
31.920220
 31
0.0
  0
LINE
  5
116
100
AcDbEntity
  8
Layer_1
 62
7
100
AcDbLine
 10
22.669764
 20
31.920220
 30
0.0
 11
22.585818
 21
31.678055
 31
0.0
  0
SPLINE
  5
117
100
AcDbEntity
  8
Layer_1
 62
7
100
AcDbSpline
 70
8
 71
3
 72
8
 73
4
 74
0
 40
0
 40
0
 40
0
 40
0
 40
1
 40
1
 40
1
 40
1
 10
22.585818
 20
31.678055
 30
0.0
 10
22.525478
 20
31.503982
 30
0.0
 10
22.416602
 20
31.390794
 30
0.0
 10
22.198630
 20
31.275528
 30
0.0
  0
SPLINE
  5
118
100
AcDbEntity
  8
Layer_1
 62
7
100
AcDbSpline
 70
8
 71
3
 72
8
 73
4
 74
0
 40
0
 40
0
 40
0
 40
0
 40
1
 40
1
 40
1
 40
1
 10
22.198630
 20
31.275528
 30
0.0
 10
21.818917
 20
31.074730
 30
0.0
 10
21.719503
 20
31.074191
 30
0.0
 10
21.673777
 20
31.272671
 30
0.0
  0
SPLINE
  5
119
100
AcDbEntity
  8
Layer_1
 62
7
100
AcDbSpline
 70
8
 71
3
 72
8
 73
4
 74
0
 40
0
 40
0
 40
0
 40
0
 40
1
 40
1
 40
1
 40
1
 10
21.673777
 20
31.272671
 30
0.0
 10
21.653819
 20
31.359300
 30
0.0
 10
21.592262
 20
31.630273
 30
0.0
 10
21.536982
 20
31.874828
 30
0.0
  0
SPLINE
  5
11a
100
AcDbEntity
  8
Layer_1
 62
7
100
AcDbSpline
 70
8
 71
3
 72
8
 73
4
 74
0
 40
0
 40
0
 40
0
 40
0
 40
1
 40
1
 40
1
 40
1
 10
21.536982
 20
31.874828
 30
0.0
 10
21.481702
 20
32.119382
 30
0.0
 10
21.420540
 20
32.335407
 30
0.0
 10
21.401067
 20
32.354882
 30
0.0
  0
SPLINE
  5
11b
100
AcDbEntity
  8
Layer_1
 62
7
100
AcDbSpline
 70
8
 71
3
 72
8
 73
4
 74
0
 40
0
 40
0
 40
0
 40
0
 40
1
 40
1
 40
1
 40
1
 10
21.401067
 20
32.354882
 30
0.0
 10
21.381593
 20
32.374356
 30
0.0
 10
21.313301
 20
32.205766
 30
0.0
 10
21.249307
 20
31.980240
 30
0.0
  0
SPLINE
  5
11c
100
AcDbEntity
  8
Layer_1
 62
7
100
AcDbSpline
 70
8
 71
3
 72
8
 73
4
 74
0
 40
0
 40
0
 40
0
 40
0
 40
1
 40
1
 40
1
 40
1
 10
21.249307
 20
31.980240
 30
0.0
 10
21.102454
 20
31.462705
 30
0.0
 10
20.948325
 20
31.297174
 30
0.0
 10
20.613289
 20
31.297174
 30
0.0
  0
SPLINE
  5
11d
100
AcDbEntity
  8
Layer_1
 62
7
100
AcDbSpline
 70
8
 71
3
 72
8
 73
4
 74
0
 40
0
 40
0
 40
0
 40
0
 40
1
 40
1
 40
1
 40
1
 10
20.613289
 20
31.297174
 30
0.0
 10
20.407473
 20
31.297174
 30
0.0
 10
20.317230
 20
31.343759
 30
0.0
 10
20.161345
 20
31.530486
 30
0.0
  0
LINE
  5
11e
100
AcDbEntity
  8
Layer_1
 62
7
100
AcDbLine
 10
20.161345
 20
31.530486
 30
0.0
 11
19.966568
 21
31.763798
 31
0.0
  0
LINE
  5
11f
100
AcDbEntity
  8
Layer_1
 62
7
100
AcDbLine
 10
19.966568
 20
31.763798
 30
0.0
 11
19.789129
 21
31.561987
 31
0.0
  0
SPLINE
  5
120
100
AcDbEntity
  8
Layer_1
 62
7
100
AcDbSpline
 70
8
 71
3
 72
8
 73
4
 74
0
 40
0
 40
0
 40
0
 40
0
 40
1
 40
1
 40
1
 40
1
 10
19.789129
 20
31.561987
 30
0.0
 10
19.691537
 20
31.450992
 30
0.0
 10
19.610694
 20
31.336549
 30
0.0
 10
19.609478
 20
31.307672
 30
0.0
  0
SPLINE
  5
121
100
AcDbEntity
  8
Layer_1
 62
7
100
AcDbSpline
 70
8
 71
3
 72
8
 73
4
 74
0
 40
0
 40
0
 40
0
 40
0
 40
1
 40
1
 40
1
 40
1
 10
19.609478
 20
31.307672
 30
0.0
 10
19.608261
 20
31.278796
 30
0.0
 10
19.532297
 20
31.255171
 30
0.0
 10
19.440669
 20
31.255171
 30
0.0
  0
SPLINE
  5
122
100
AcDbEntity
  8
Layer_1
 62
7
100
AcDbSpline
 70
8
 71
3
 72
8
 73
4
 74
0
 40
0
 40
0
 40
0
 40
0
 40
1
 40
1
 40
1
 40
1
 10
19.440669
 20
31.255171
 30
0.0
 10
19.281333
 20
31.255171
 30
0.0
 10
19.265788
 20
31.300169
 30
0.0
 10
19.083955
 20
32.287734
 30
0.0
  0
SPLINE
  5
123
100
AcDbEntity
  8
Layer_1
 62
7
100
AcDbSpline
 70
8
 71
3
 72
8
 73
4
 74
0
 40
0
 40
0
 40
0
 40
0
 40
1
 40
1
 40
1
 40
1
 10
19.083955
 20
32.287734
 30
0.0
 10
18.979391
 20
32.855643
 30
0.0
 10
18.871794
 20
33.395465
 30
0.0
 10
18.844852
 20
33.487334
 30
0.0
  0
SPLINE
  5
124
100
AcDbEntity
  8
Layer_1
 62
7
100
AcDbSpline
 70
8
 71
3
 72
8
 73
4
 74
0
 40
0
 40
0
 40
0
 40
0
 40
1
 40
1
 40
1
 40
1
 10
18.844852
 20
33.487334
 30
0.0
 10
18.765831
 20
33.756780
 30
0.0
 10
18.243574
 20
30.508361
 30
0.0
 10
18.244002
 20
29.750078
 30
0.0
  0
SPLINE
  5
125
100
AcDbEntity
  8
Layer_1
 62
7
100
AcDbSpline
 70
8
 71
3
 72
8
 73
4
 74
0
 40
0
 40
0
 40
0
 40
0
 40
1
 40
1
 40
1
 40
1
 10
18.244002
 20
29.750078
 30
0.0
 10
18.244611
 20
28.655126
 30
0.0
 10
18.591052
 20
27.904943
 30
0.0
 10
19.583344
 20
26.849776
 30
0.0
  0
SPLINE
  5
126
100
AcDbEntity
  8
Layer_1
 62
7
100
AcDbSpline
 70
8
 71
3
 72
8
 73
4
 74
0
 40
0
 40
0
 40
0
 40
0
 40
1
 40
1
 40
1
 40
1
 10
19.583344
 20
26.849776
 30
0.0
 10
20.980770
 20
25.363805
 30
0.0
 10
22.847231
 20
24.130019
 30
0.0
 10
24.570401
 20
23.553177
 30
0.0
  0
SPLINE
  5
127
100
AcDbEntity
  8
Layer_1
 62
7
100
AcDbSpline
 70
8
 71
3
 72
8
 73
4
 74
0
 40
0
 40
0
 40
0
 40
0
 40
1
 40
1
 40
1
 40
1
 10
24.570401
 20
23.553177
 30
0.0
 10
25.742885
 20
23.160680
 30
0.0
 10
26.417519
 20
23.058713
 30
0.0
 10
28.112794
 20
23.017760
 30
0.0
  0
SPLINE
  5
128
100
AcDbEntity
  8
Layer_1
 62
7
100
AcDbSpline
 70
8
 71
3
 72
8
 73
4
 74
0
 40
0
 40
0
 40
0
 40
0
 40
1
 40
1
 40
1
 40
1
 10
28.112794
 20
23.017760
 30
0.0
 10
29.631185
 20
22.981079
 30
0.0
 10
30.373135
 20
23.019877
 30
0.0
 10
32.410964
 20
23.241974
 30
0.0
  0
SPLINE
  5
129
100
AcDbEntity
  8
Layer_1
 62
7
100
AcDbSpline
 70
8
 71
3
 72
8
 73
4
 74
0
 40
0
 40
0
 40
0
 40
0
 40
1
 40
1
 40
1
 40
1
 10
32.410964
 20
23.241974
 30
0.0
 10
33.148577
 20
23.322396
 30
0.0
 10
33.439608
 20
23.331062
 30
0.0
 10
33.496030
 20
23.274277
 30
0.0
  0
SPLINE
  5
12a
100
AcDbEntity
  8
Layer_1
 62
7
100
AcDbSpline
 70
8
 71
3
 72
8
 73
4
 74
0
 40
0
 40
0
 40
0
 40
0
 40
1
 40
1
 40
1
 40
1
 10
33.496030
 20
23.274277
 30
0.0
 10
33.684382
 20
23.084716
 30
0.0
 10
33.465767
 20
21.518488
 30
0.0
 10
33.124114
 20
20.609748
 30
0.0
  0
LINE
  5
12b
100
AcDbEntity
  8
Layer_1
 62
7
100
AcDbLine
 10
33.124114
 20
20.609748
 30
0.0
 11
32.977566
 21
20.219961
 31
0.0
  0
LINE
  5
12c
100
AcDbEntity
  8
Layer_1
 62
7
100
AcDbLine
 10
32.977566
 20
20.219961
 30
0.0
 11
32.470299
 21
20.101700
 31
0.0
  0
SPLINE
  5
12d
100
AcDbEntity
  8
Layer_1
 62
7
100
AcDbSpline
 70
8
 71
3
 72
8
 73
4
 74
0
 40
0
 40
0
 40
0
 40
0
 40
1
 40
1
 40
1
 40
1
 10
32.470299
 20
20.101700
 30
0.0
 10
31.371826
 20
19.845615
 30
0.0
 10
30.498140
 20
19.749834
 30
0.0
 10
29.232863
 20
19.746788
 30
0.0
  0
SPLINE
  5
12e
100
AcDbEntity
  8
Layer_1
 62
7
100
AcDbSpline
 70
8
 71
3
 72
8
 73
4
 74
0
 40
0
 40
0
 40
0
 40
0
 40
1
 40
1
 40
1
 40
1
 10
29.232863
 20
19.746788
 30
0.0
 10
27.473537
 20
19.742555
 30
0.0
 10
26.114750
 20
19.975319
 30
0.0
 10
24.297556
 20
20.592227
 30
0.0
  0
SPLINE
  5
12f
100
AcDbEntity
  8
Layer_1
 62
7
100
AcDbSpline
 70
8
 71
3
 72
8
 73
4
 74
0
 40
0
 40
0
 40
0
 40
0
 40
1
 40
1
 40
1
 40
1
 10
24.297556
 20
20.592227
 30
0.0
 10
23.469970
 20
20.873180
 30
0.0
 10
21.712470
 20
21.697474
 30
0.0
 10
20.972350
 20
22.151798
 30
0.0
  0
SPLINE
  5
130
100
AcDbEntity
  8
Layer_1
 62
7
100
AcDbSpline
 70
8
 71
3
 72
8
 73
4
 74
0
 40
0
 40
0
 40
0
 40
0
 40
1
 40
1
 40
1
 40
1
 10
20.972350
 20
22.151798
 30
0.0
 10
18.165593
 20
23.874727
 30
0.0
 10
16.173293
 20
26.981748
 30
0.0
 10
15.606369
 20
30.520124
 30
0.0
  0
SPLINE
  5
131
100
AcDbEntity
  8
Layer_1
 62
7
100
AcDbSpline
 70
8
 71
3
 72
8
 73
4
 74
0
 40
0
 40
0
 40
0
 40
0
 40
1
 40
1
 40
1
 40
1
 10
15.606369
 20
30.520124
 30
0.0
 10
15.492970
 20
31.227887
 30
0.0
 10
15.493481
 20
33.315495
 30
0.0
 10
15.607189
 20
33.915337
 30
0.0
  0
SPLINE
  5
132
100
AcDbEntity
  8
Layer_1
 62
7
100
AcDbSpline
 70
8
 71
3
 72
8
 73
4
 74
0
 40
0
 40
0
 40
0
 40
0
 40
1
 40
1
 40
1
 40
1
 10
15.607189
 20
33.915337
 30
0.0
 10
16.393397
 20
38.062413
 30
0.0
 10
19.710799
 20
41.190130
 30
0.0
 10
24.309181
 20
42.119762
 30
0.0
  0
SPLINE
  5
133
100
AcDbEntity
  8
Layer_1
 62
7
100
AcDbSpline
 70
8
 71
3
 72
8
 73
4
 74
0
 40
0
 40
0
 40
0
 40
0
 40
1
 40
1
 40
1
 40
1
 10
24.309181
 20
42.119762
 30
0.0
 10
25.448678
 20
42.350129
 30
0.0
 10
27.548343
 20
42.351912
 30
0.0
 10
28.676798
 20
42.123466
 30
0.0
  0
SPLINE
  5
134
100
AcDbEntity
  8
Layer_1
 62
7
100
AcDbSpline
 70
8
 71
3
 72
8
 73
4
 74
0
 40
0
 40
0
 40
0
 40
0
 40
1
 40
1
 40
1
 40
1
 10
28.676798
 20
42.123466
 30
0.0
 10
31.004999
 20
41.652153
 30
0.0
 10
32.565822
 20
40.797009
 30
0.0
 10
33.908021
 20
39.257383
 30
0.0
  0
SPLINE
  5
135
100
AcDbEntity
  8
Layer_1
 62
7
100
AcDbSpline
 70
8
 71
3
 72
8
 73
4
 74
0
 40
0
 40
0
 40
0
 40
0
 40
1
 40
1
 40
1
 40
1
 10
33.908021
 20
39.257383
 30
0.0
 10
36.242442
 20
36.579590
 30
0.0
 10
37.157985
 20
32.531804
 30
0.0
 10
36.302540
 20
28.670769
 30
0.0
  0
SPLINE
  5
136
100
AcDbEntity
  8
Layer_1
 62
7
100
AcDbSpline
 70
8
 71
3
 72
8
 73
4
 74
0
 40
0
 40
0
 40
0
 40
0
 40
1
 40
1
 40
1
 40
1
 10
36.302540
 20
28.670769
 30
0.0
 10
35.788931
 20
26.352595
 30
0.0
 10
35.468232
 20
21.951437
 30
0.0
 10
35.628792
 20
19.424433
 30
0.0
  0
SPLINE
  5
137
100
AcDbEntity
  8
Layer_1
 62
7
100
AcDbSpline
 70
8
 71
3
 72
8
 73
4
 74
0
 40
0
 40
0
 40
0
 40
0
 40
1
 40
1
 40
1
 40
1
 10
35.628792
 20
19.424433
 30
0.0
 10
35.748561
 20
17.539457
 30
0.0
 10
36.077432
 20
15.448320
 30
0.0
 10
36.401693
 20
14.509946
 30
0.0
  0
SPLINE
  5
138
100
AcDbEntity
  8
Layer_1
 62
7
100
AcDbSpline
 70
8
 71
3
 72
8
 73
4
 74
0
 40
0
 40
0
 40
0
 40
0
 40
1
 40
1
 40
1
 40
1
 10
36.401693
 20
14.509946
 30
0.0
 10
37.108754
 20
12.463783
 30
0.0
 10
38.435939
 20
11.065677
 30
0.0
 10
40.209645
 20
10.498508
 30
0.0
  0
SPLINE
  5
139
100
AcDbEntity
  8
Layer_1
 62
7
100
AcDbSpline
 70
8
 71
3
 72
8
 73
4
 74
0
 40
0
 40
0
 40
0
 40
0
 40
1
 40
1
 40
1
 40
1
 10
40.209645
 20
10.498508
 30
0.0
 10
41.135665
 20
10.202399
 30
0.0
 10
41.752774
 20
10.287370
 30
0.0
 10
42.158827
 20
10.766893
 30
0.0
  0
SPLINE
  5
13a
100
AcDbEntity
  8
Layer_1
 62
7
100
AcDbSpline
 70
8
 71
3
 72
8
 73
4
 74
0
 40
0
 40
0
 40
0
 40
0
 40
1
 40
1
 40
1
 40
1
 10
42.158827
 20
10.766893
 30
0.0
 10
42.473422
 20
11.138411
 30
0.0
 10
42.614673
 20
12.221541
 30
0.0
 10
42.499243
 20
13.377288
 30
0.0
  0
SPLINE
  5
13b
100
AcDbEntity
  8
Layer_1
 62
7
100
AcDbSpline
 70
8
 71
3
 72
8
 73
4
 74
0
 40
0
 40
0
 40
0
 40
0
 40
1
 40
1
 40
1
 40
1
 10
42.499243
 20
13.377288
 30
0.0
 10
42.226008
 20
16.113112
 30
0.0
 10
40.781967
 20
18.049904
 30
0.0
 10
37.582771
 20
19.971406
 30
0.0
  0
LINE
  5
13c
100
AcDbEntity
  8
Layer_1
 62
7
100
AcDbLine
 10
37.582771
 20
19.971406
 30
0.0
 11
36.692115
 21
20.506351
 31
0.0
  0
LINE
  5
13d
100
AcDbEntity
  8
Layer_1
 62
7
100
AcDbLine
 10
36.692115
 20
20.506351
 30
0.0
 11
36.645024
 21
20.820377
 31
0.0
  0
SPLINE
  5
13e
100
AcDbEntity
  8
Layer_1
 62
7
100
AcDbSpline
 70
8
 71
3
 72
8
 73
4
 74
0
 40
0
 40
0
 40
0
 40
0
 40
1
 40
1
 40
1
 40
1
 10
36.645024
 20
20.820377
 30
0.0
 10
36.619122
 20
20.993092
 30
0.0
 10
36.634441
 20
21.655342
 30
0.0
 10
36.679074
 20
22.292043
 30
0.0
  0
SPLINE
  5
13f
100
AcDbEntity
  8
Layer_1
 62
7
100
AcDbSpline
 70
8
 71
3
 72
8
 73
4
 74
0
 40
0
 40
0
 40
0
 40
0
 40
1
 40
1
 40
1
 40
1
 10
36.679074
 20
22.292043
 30
0.0
 10
36.723701
 20
22.928744
 30
0.0
 10
36.759788
 20
23.488280
 30
0.0
 10
36.759266
 20
23.535455
 30
0.0
  0
SPLINE
  5
140
100
AcDbEntity
  8
Layer_1
 62
7
100
AcDbSpline
 70
8
 71
3
 72
8
 73
4
 74
0
 40
0
 40
0
 40
0
 40
0
 40
1
 40
1
 40
1
 40
1
 10
36.759266
 20
23.535455
 30
0.0
 10
36.757943
 20
23.642746
 30
0.0
 10
36.912957
 20
23.586578
 30
0.0
 10
37.771007
 20
23.168531
 30
0.0
  0
SPLINE
  5
141
100
AcDbEntity
  8
Layer_1
 62
7
100
AcDbSpline
 70
8
 71
3
 72
8
 73
4
 74
0
 40
0
 40
0
 40
0
 40
0
 40
1
 40
1
 40
1
 40
1
 10
37.771007
 20
23.168531
 30
0.0
 10
39.637129
 20
22.259346
 30
0.0
 10
41.465849
 20
20.793125
 30
0.0
 10
42.571739
 20
19.319425
 30
0.0
  0
SPLINE
  5
142
100
AcDbEntity
  8
Layer_1
 62
7
100
AcDbSpline
 70
8
 71
3
 72
8
 73
4
 74
0
 40
0
 40
0
 40
0
 40
0
 40
1
 40
1
 40
1
 40
1
 10
42.571739
 20
19.319425
 30
0.0
 10
43.032415
 20
18.705534
 30
0.0
 10
43.669490
 20
17.477716
 30
0.0
 10
43.897529
 20
16.764267
 30
0.0
  0
SPLINE
  5
143
100
AcDbEntity
  8
Layer_1
 62
7
100
AcDbSpline
 70
8
 71
3
 72
8
 73
4
 74
0
 40
0
 40
0
 40
0
 40
0
 40
1
 40
1
 40
1
 40
1
 10
43.897529
 20
16.764267
 30
0.0
 10
44.579199
 20
14.631580
 30
0.0
 10
44.605755
 20
11.497516
 30
0.0
 10
43.960674
 20
9.312315
 30
0.0
  0
SPLINE
  5
144
100
AcDbEntity
  8
Layer_1
 62
7
100
AcDbSpline
 70
8
 71
3
 72
8
 73
4
 74
0
 40
0
 40
0
 40
0
 40
0
 40
1
 40
1
 40
1
 40
1
 10
43.960674
 20
9.312315
 30
0.0
 10
43.780279
 20
8.701228
 30
0.0
 10
43.375712
 20
7.914053
 30
0.0
 10
43.174171
 20
7.781999
 30
0.0
  0
SPLINE
  5
145
100
AcDbEntity
  8
Layer_1
 62
7
100
AcDbSpline
 70
8
 71
3
 72
8
 73
4
 74
0
 40
0
 40
0
 40
0
 40
0
 40
1
 40
1
 40
1
 40
1
 10
43.174171
 20
7.781999
 30
0.0
 10
43.039940
 20
7.694046
 30
0.0
 10
42.984296
 20
7.701375
 30
0.0
 10
42.673410
 20
7.847941
 30
0.0
  0
LINE
  5
146
100
AcDbEntity
  8
Layer_1
 62
7
100
AcDbLine
 10
42.673410
 20
7.847941
 30
0.0
 11
42.673421
 21
7.847944
 31
0.0
  0
SPLINE
  5
147
100
AcDbEntity
  8
Layer_1
 62
7
100
AcDbSpline
 70
8
 71
3
 72
8
 73
4
 74
0
 40
0
 40
0
 40
0
 40
0
 40
1
 40
1
 40
1
 40
1
 10
18.658021
 20
33.862830
 30
0.0
 10
18.686149
 20
34.025007
 30
0.0
 10
18.742476
 20
34.125347
 30
0.0
 10
18.805387
 20
34.125347
 30
0.0
  0
SPLINE
  5
148
100
AcDbEntity
  8
Layer_1
 62
7
100
AcDbSpline
 70
8
 71
3
 72
8
 73
4
 74
0
 40
0
 40
0
 40
0
 40
0
 40
1
 40
1
 40
1
 40
1
 10
18.805387
 20
34.125347
 30
0.0
 10
18.861397
 20
34.125347
 30
0.0
 10
18.907769
 20
34.101720
 30
0.0
 10
18.908438
 20
34.072843
 30
0.0
  0
SPLINE
  5
149
100
AcDbEntity
  8
Layer_1
 62
7
100
AcDbSpline
 70
8
 71
3
 72
8
 73
4
 74
0
 40
0
 40
0
 40
0
 40
0
 40
1
 40
1
 40
1
 40
1
 10
18.908438
 20
34.072843
 30
0.0
 10
18.909099
 20
34.043967
 30
0.0
 10
18.956560
 20
33.799825
 30
0.0
 10
19.013891
 20
33.530310
 30
0.0
  0
SPLINE
  5
14a
100
AcDbEntity
  8
Layer_1
 62
7
100
AcDbSpline
 70
8
 71
3
 72
8
 73
4
 74
0
 40
0
 40
0
 40
0
 40
0
 40
1
 40
1
 40
1
 40
1
 10
19.013891
 20
33.530310
 30
0.0
 10
19.071222
 20
33.260792
 30
0.0
 10
19.165976
 20
32.756761
 30
0.0
 10
19.224455
 20
32.410239
 30
0.0
  0
SPLINE
  5
14b
100
AcDbEntity
  8
Layer_1
 62
7
100
AcDbSpline
 70
8
 71
3
 72
8
 73
4
 74
0
 40
0
 40
0
 40
0
 40
0
 40
1
 40
1
 40
1
 40
1
 10
19.224455
 20
32.410239
 30
0.0
 10
19.282934
 20
32.063719
 30
0.0
 10
19.349371
 20
31.688418
 30
0.0
 10
19.372093
 20
31.576238
 30
0.0
  0
LINE
  5
14c
100
AcDbEntity
  8
Layer_1
 62
7
100
AcDbLine
 10
19.372093
 20
31.576238
 30
0.0
 11
19.413406
 21
31.372278
 31
0.0
  0
LINE
  5
14d
100
AcDbEntity
  8
Layer_1
 62
7
100
AcDbLine
 10
19.413406
 20
31.372278
 30
0.0
 11
19.690934
 21
31.672837
 31
0.0
  0
LINE
  5
14e
100
AcDbEntity
  8
Layer_1
 62
7
100
AcDbLine
 10
19.690934
 20
31.672837
 30
0.0
 11
19.968461
 21
31.973396
 31
0.0
  0
LINE
  5
14f
100
AcDbEntity
  8
Layer_1
 62
7
100
AcDbLine
 10
19.968461
 20
31.973396
 30
0.0
 11
20.263042
 21
31.684285
 31
0.0
  0
SPLINE
  5
150
100
AcDbEntity
  8
Layer_1
 62
7
100
AcDbSpline
 70
8
 71
3
 72
8
 73
4
 74
0
 40
0
 40
0
 40
0
 40
0
 40
1
 40
1
 40
1
 40
1
 10
20.263042
 20
31.684285
 30
0.0
 10
20.729510
 20
31.226482
 30
0.0
 10
20.857563
 20
31.298756
 30
0.0
 10
21.144833
 20
32.181967
 30
0.0
  0
SPLINE
  5
151
100
AcDbEntity
  8
Layer_1
 62
7
100
AcDbSpline
 70
8
 71
3
 72
8
 73
4
 74
0
 40
0
 40
0
 40
0
 40
0
 40
1
 40
1
 40
1
 40
1
 10
21.144833
 20
32.181967
 30
0.0
 10
21.229228
 20
32.441438
 30
0.0
 10
21.323756
 20
32.669480
 30
0.0
 10
21.354896
 20
32.688726
 30
0.0
  0
SPLINE
  5
152
100
AcDbEntity
  8
Layer_1
 62
7
100
AcDbSpline
 70
8
 71
3
 72
8
 73
4
 74
0
 40
0
 40
0
 40
0
 40
0
 40
1
 40
1
 40
1
 40
1
 10
21.354896
 20
32.688726
 30
0.0
 10
21.468734
 20
32.759081
 30
0.0
 10
21.575482
 20
32.515731
 30
0.0
 10
21.688931
 20
31.927236
 30
0.0
  0
SPLINE
  5
153
100
AcDbEntity
  8
Layer_1
 62
7
100
AcDbSpline
 70
8
 71
3
 72
8
 73
4
 74
0
 40
0
 40
0
 40
0
 40
0
 40
1
 40
1
 40
1
 40
1
 10
21.688931
 20
31.927236
 30
0.0
 10
21.752768
 20
31.596102
 30
0.0
 10
21.838165
 20
31.325291
 30
0.0
 10
21.878704
 20
31.325434
 30
0.0
  0
SPLINE
  5
154
100
AcDbEntity
  8
Layer_1
 62
7
100
AcDbSpline
 70
8
 71
3
 72
8
 73
4
 74
0
 40
0
 40
0
 40
0
 40
0
 40
1
 40
1
 40
1
 40
1
 10
21.878704
 20
31.325434
 30
0.0
 10
22.090499
 20
31.326227
 30
0.0
 10
22.405088
 20
31.616102
 30
0.0
 10
22.485560
 20
31.884694
 30
0.0
  0
SPLINE
  5
155
100
AcDbEntity
  8
Layer_1
 62
7
100
AcDbSpline
 70
8
 71
3
 72
8
 73
4
 74
0
 40
0
 40
0
 40
0
 40
0
 40
1
 40
1
 40
1
 40
1
 10
22.485560
 20
31.884694
 30
0.0
 10
22.598077
 20
32.260241
 30
0.0
 10
22.769487
 20
32.236167
 30
0.0
 10
22.854564
 20
31.832873
 30
0.0
  0
SPLINE
  5
156
100
AcDbEntity
  8
Layer_1
 62
7
100
AcDbSpline
 70
8
 71
3
 72
8
 73
4
 74
0
 40
0
 40
0
 40
0
 40
0
 40
1
 40
1
 40
1
 40
1
 10
22.854564
 20
31.832873
 30
0.0
 10
22.909701
 20
31.571501
 30
0.0
 10
22.935313
 20
31.542016
 30
0.0
 10
23.076442
 20
31.577436
 30
0.0
  0
SPLINE
  5
157
100
AcDbEntity
  8
Layer_1
 62
7
100
AcDbSpline
 70
8
 71
3
 72
8
 73
4
 74
0
 40
0
 40
0
 40
0
 40
0
 40
1
 40
1
 40
1
 40
1
 10
23.076442
 20
31.577436
 30
0.0
 10
23.262050
 20
31.624021
 30
0.0
 10
23.347868
 20
31.502609
 30
0.0
 10
23.426827
 20
31.081726
 30
0.0
  0
SPLINE
  5
158
100
AcDbEntity
  8
Layer_1
 62
7
100
AcDbSpline
 70
8
 71
3
 72
8
 73
4
 74
0
 40
0
 40
0
 40
0
 40
0
 40
1
 40
1
 40
1
 40
1
 10
23.426827
 20
31.081726
 30
0.0
 10
23.493717
 20
30.725166
 30
0.0
 10
23.560413
 20
30.889125
 30
0.0
 10
23.625527
 20
31.570187
 30
0.0
  0
SPLINE
  5
159
100
AcDbEntity
  8
Layer_1
 62
7
100
AcDbSpline
 70
8
 71
3
 72
8
 73
4
 74
0
 40
0
 40
0
 40
0
 40
0
 40
1
 40
1
 40
1
 40
1
 10
23.625527
 20
31.570187
 30
0.0
 10
23.727962
 20
32.641614
 30
0.0
 10
23.831767
 20
33.393462
 30
0.0
 10
23.885648
 20
33.454202
 30
0.0
  0
SPLINE
  5
15a
100
AcDbEntity
  8
Layer_1
 62
7
100
AcDbSpline
 70
8
 71
3
 72
8
 73
4
 74
0
 40
0
 40
0
 40
0
 40
0
 40
1
 40
1
 40
1
 40
1
 10
23.885648
 20
33.454202
 30
0.0
 10
23.976277
 20
33.556374
 30
0.0
 10
24.062343
 20
33.236286
 30
0.0
 10
24.156940
 20
32.445243
 30
0.0
  0
SPLINE
  5
15b
100
AcDbEntity
  8
Layer_1
 62
7
100
AcDbSpline
 70
8
 71
3
 72
8
 73
4
 74
0
 40
0
 40
0
 40
0
 40
0
 40
1
 40
1
 40
1
 40
1
 10
24.156940
 20
32.445243
 30
0.0
 10
24.283507
 20
31.386870
 30
0.0
 10
24.390659
 20
31.240193
 30
0.0
 10
24.655559
 20
31.762700
 30
0.0
  0
SPLINE
  5
15c
100
AcDbEntity
  8
Layer_1
 62
7
100
AcDbSpline
 70
8
 71
3
 72
8
 73
4
 74
0
 40
0
 40
0
 40
0
 40
0
 40
1
 40
1
 40
1
 40
1
 10
24.655559
 20
31.762700
 30
0.0
 10
24.803289
 20
32.054094
 30
0.0
 10
24.927293
 20
32.188862
 30
0.0
 10
24.989990
 20
32.126163
 30
0.0
  0
SPLINE
  5
15d
100
AcDbEntity
  8
Layer_1
 62
7
100
AcDbSpline
 70
8
 71
3
 72
8
 73
4
 74
0
 40
0
 40
0
 40
0
 40
0
 40
1
 40
1
 40
1
 40
1
 10
24.989990
 20
32.126163
 30
0.0
 10
25.007286
 20
32.108860
 30
0.0
 10
25.041846
 20
31.882191
 30
0.0
 10
25.066788
 20
31.622439
 30
0.0
  0
SPLINE
  5
15e
100
AcDbEntity
  8
Layer_1
 62
7
100
AcDbSpline
 70
8
 71
3
 72
8
 73
4
 74
0
 40
0
 40
0
 40
0
 40
0
 40
1
 40
1
 40
1
 40
1
 10
25.066788
 20
31.622439
 30
0.0
 10
25.115789
 20
31.112156
 30
0.0
 10
25.155818
 20
31.138683
 30
0.0
 10
25.278446
 20
31.762700
 30
0.0
  0
SPLINE
  5
15f
100
AcDbEntity
  8
Layer_1
 62
7
100
AcDbSpline
 70
8
 71
3
 72
8
 73
4
 74
0
 40
0
 40
0
 40
0
 40
0
 40
1
 40
1
 40
1
 40
1
 10
25.278446
 20
31.762700
 30
0.0
 10
25.371344
 20
32.235428
 30
0.0
 10
25.517265
 20
32.294698
 30
0.0
 10
25.623147
 20
31.902710
 30
0.0
  0
SPLINE
  5
160
100
AcDbEntity
  8
Layer_1
 62
7
100
AcDbSpline
 70
8
 71
3
 72
8
 73
4
 74
0
 40
0
 40
0
 40
0
 40
0
 40
1
 40
1
 40
1
 40
1
 10
25.623147
 20
31.902710
 30
0.0
 10
25.662147
 20
31.758324
 30
0.0
 10
25.762540
 20
31.597629
 30
0.0
 10
25.846243
 20
31.545609
 30
0.0
  0
SPLINE
  5
161
100
AcDbEntity
  8
Layer_1
 62
7
100
AcDbSpline
 70
8
 71
3
 72
8
 73
4
 74
0
 40
0
 40
0
 40
0
 40
0
 40
1
 40
1
 40
1
 40
1
 10
25.846243
 20
31.545609
 30
0.0
 10
25.970766
 20
31.468216
 30
0.0
 10
26.902759
 20
31.452931
 30
0.0
 10
30.973427
 20
31.461509
 30
0.0
  0
SPLINE
  5
162
100
AcDbEntity
  8
Layer_1
 62
7
100
AcDbSpline
 70
8
 71
3
 72
8
 73
4
 74
0
 40
0
 40
0
 40
0
 40
0
 40
1
 40
1
 40
1
 40
1
 10
30.973427
 20
31.461509
 30
0.0
 10
33.709676
 20
31.467277
 30
0.0
 10
35.961455
 20
31.485030
 30
0.0
 10
35.977378
 20
31.500948
 30
0.0
  0
SPLINE
  5
163
100
AcDbEntity
  8
Layer_1
 62
7
100
AcDbSpline
 70
8
 71
3
 72
8
 73
4
 74
0
 40
0
 40
0
 40
0
 40
0
 40
1
 40
1
 40
1
 40
1
 10
35.977378
 20
31.500948
 30
0.0
 10
35.993305
 20
31.516876
 30
0.0
 10
35.951448
 20
31.916989
 30
0.0
 10
35.884377
 20
32.390096
 30
0.0
  0
SPLINE
  5
164
100
AcDbEntity
  8
Layer_1
 62
7
100
AcDbSpline
 70
8
 71
3
 72
8
 73
4
 74
0
 40
0
 40
0
 40
0
 40
0
 40
1
 40
1
 40
1
 40
1
 10
35.884377
 20
32.390096
 30
0.0
 10
35.598822
 20
34.404226
 30
0.0
 10
34.754196
 20
36.156392
 30
0.0
 10
33.368861
 20
37.608497
 30
0.0
  0
SPLINE
  5
165
100
AcDbEntity
  8
Layer_1
 62
7
100
AcDbSpline
 70
8
 71
3
 72
8
 73
4
 74
0
 40
0
 40
0
 40
0
 40
0
 40
1
 40
1
 40
1
 40
1
 10
33.368861
 20
37.608497
 30
0.0
 10
31.981854
 20
39.062356
 30
0.0
 10
30.336945
 20
40.002695
 30
0.0
 10
28.356504
 20
40.473895
 30
0.0
  0
SPLINE
  5
166
100
AcDbEntity
  8
Layer_1
 62
7
100
AcDbSpline
 70
8
 71
3
 72
8
 73
4
 74
0
 40
0
 40
0
 40
0
 40
0
 40
1
 40
1
 40
1
 40
1
 10
28.356504
 20
40.473895
 30
0.0
 10
27.626979
 20
40.647467
 30
0.0
 10
27.429934
 20
40.665069
 30
0.0
 10
26.222676
 20
40.664519
 30
0.0
  0
SPLINE
  5
167
100
AcDbEntity
  8
Layer_1
 62
7
100
AcDbSpline
 70
8
 71
3
 72
8
 73
4
 74
0
 40
0
 40
0
 40
0
 40
0
 40
1
 40
1
 40
1
 40
1
 10
26.222676
 20
40.664519
 30
0.0
 10
25.085157
 20
40.663990
 30
0.0
 10
24.801379
 20
40.641368
 30
0.0
 10
24.262554
 20
40.508306
 30
0.0
  0
SPLINE
  5
168
100
AcDbEntity
  8
Layer_1
 62
7
100
AcDbSpline
 70
8
 71
3
 72
8
 73
4
 74
0
 40
0
 40
0
 40
0
 40
0
 40
1
 40
1
 40
1
 40
1
 10
24.262554
 20
40.508306
 30
0.0
 10
22.626136
 20
40.104155
 30
0.0
 10
21.625259
 20
39.625818
 30
0.0
 10
20.335050
 20
38.631281
 30
0.0
  0
SPLINE
  5
169
100
AcDbEntity
  8
Layer_1
 62
7
100
AcDbSpline
 70
8
 71
3
 72
8
 73
4
 74
0
 40
0
 40
0
 40
0
 40
0
 40
1
 40
1
 40
1
 40
1
 10
20.335050
 20
38.631281
 30
0.0
 10
17.690503
 20
36.592775
 30
0.0
 10
16.564126
 20
33.329047
 30
0.0
 10
17.487410
 20
30.380114
 30
0.0
  0
SPLINE
  5
16a
100
AcDbEntity
  8
Layer_1
 62
7
100
AcDbSpline
 70
8
 71
3
 72
8
 73
4
 74
0
 40
0
 40
0
 40
0
 40
0
 40
1
 40
1
 40
1
 40
1
 10
17.487410
 20
30.380114
 30
0.0
 10
17.802063
 20
29.375126
 30
0.0
 10
17.773360
 20
29.328099
 30
0.0
 10
18.213740
 20
31.570187
 30
0.0
  0
SPLINE
  5
16b
100
AcDbEntity
  8
Layer_1
 62
7
100
AcDbSpline
 70
8
 71
3
 72
8
 73
4
 74
0
 40
0
 40
0
 40
0
 40
0
 40
1
 40
1
 40
1
 40
1
 10
18.213740
 20
31.570187
 30
0.0
 10
18.433051
 20
32.686757
 30
0.0
 10
18.632978
 20
33.718447
 30
0.0
 10
18.658021
 20
33.862830
 30
0.0
  0
LINE
  5
16c
100
AcDbEntity
  8
Layer_1
 62
7
100
AcDbLine
 10
18.658021
 20
33.862830
 30
0.0
 11
18.658021
 21
33.862830
 31
0.0
  0
SPLINE
  5
16d
100
AcDbEntity
  8
Layer_1
 62
7
100
AcDbSpline
 70
8
 71
3
 72
8
 73
4
 74
0
 40
0
 40
0
 40
0
 40
0
 40
1
 40
1
 40
1
 40
1
 10
27.027725
 20
31.602992
 30
0.0
 10
27.027725
 20
31.640285
 30
0.0
 10
27.075545
 20
31.652451
 30
0.0
 10
27.133989
 20
31.630022
 30
0.0
  0
SPLINE
  5
16e
100
AcDbEntity
  8
Layer_1
 62
7
100
AcDbSpline
 70
8
 71
3
 72
8
 73
4
 74
0
 40
0
 40
0
 40
0
 40
0
 40
1
 40
1
 40
1
 40
1
 10
27.133989
 20
31.630022
 30
0.0
 10
27.149838
 20
31.662957
 30
0.0
 10
27.032188
 20
31.566715
 30
0.0
 10
27.027714
 20
31.602992
 30
0.0
  0
LINE
  5
16f
100
AcDbEntity
  8
Layer_1
 62
7
100
AcDbLine
 10
27.027714
 20
31.602992
 30
0.0
 11
27.027725
 21
31.602992
 31
0.0
  0
SPLINE
  5
170
100
AcDbEntity
  8
Layer_1
 62
7
100
AcDbSpline
 70
8
 71
3
 72
8
 73
4
 74
0
 40
0
 40
0
 40
0
 40
0
 40
1
 40
1
 40
1
 40
1
 10
45.607896
 20
15.346693
 30
0.0
 10
45.988325
 20
16.422695
 30
0.0
 10
46.644176
 20
17.843013
 30
0.0
 10
48.256685
 20
21.082931
 30
0.0
  0
SPLINE
  5
171
100
AcDbEntity
  8
Layer_1
 62
7
100
AcDbSpline
 70
8
 71
3
 72
8
 73
4
 74
0
 40
0
 40
0
 40
0
 40
0
 40
1
 40
1
 40
1
 40
1
 10
48.256685
 20
21.082931
 30
0.0
 10
50.044236
 20
24.674552
 30
0.0
 10
50.628232
 20
25.900869
 30
0.0
 10
51.200685
 20
27.264931
 30
0.0
  0
SPLINE
  5
172
100
AcDbEntity
  8
Layer_1
 62
7
100
AcDbSpline
 70
8
 71
3
 72
8
 73
4
 74
0
 40
0
 40
0
 40
0
 40
0
 40
1
 40
1
 40
1
 40
1
 10
51.200685
 20
27.264931
 30
0.0
 10
52.149237
 20
29.525177
 30
0.0
 10
52.762158
 20
31.486610
 30
0.0
 10
53.081970
 20
33.285306
 30
0.0
  0
SPLINE
  5
173
100
AcDbEntity
  8
Layer_1
 62
7
100
AcDbSpline
 70
8
 71
3
 72
8
 73
4
 74
0
 40
0
 40
0
 40
0
 40
0
 40
1
 40
1
 40
1
 40
1
 10
53.081970
 20
33.285306
 30
0.0
 10
53.292536
 20
34.469575
 30
0.0
 10
53.310327
 20
37.035560
 30
0.0
 10
53.114731
 20
38.010597
 30
0.0
  0
SPLINE
  5
174
100
AcDbEntity
  8
Layer_1
 62
7
100
AcDbSpline
 70
8
 71
3
 72
8
 73
4
 74
0
 40
0
 40
0
 40
0
 40
0
 40
1
 40
1
 40
1
 40
1
 10
53.114731
 20
38.010597
 30
0.0
 10
52.757163
 20
39.793058
 30
0.0
 10
52.140212
 20
41.312237
 30
0.0
 10
51.200137
 20
42.725083
 30
0.0
  0
SPLINE
  5
175
100
AcDbEntity
  8
Layer_1
 62
7
100
AcDbSpline
 70
8
 71
3
 72
8
 73
4
 74
0
 40
0
 40
0
 40
0
 40
0
 40
1
 40
1
 40
1
 40
1
 10
51.200137
 20
42.725083
 30
0.0
 10
49.370985
 20
45.474125
 30
0.0
 10
46.556840
 20
46.262076
 30
0.0
 10
42.906752
 20
45.047199
 30
0.0
  0
SPLINE
  5
176
100
AcDbEntity
  8
Layer_1
 62
7
100
AcDbSpline
 70
8
 71
3
 72
8
 73
4
 74
0
 40
0
 40
0
 40
0
 40
0
 40
1
 40
1
 40
1
 40
1
 10
42.906752
 20
45.047199
 30
0.0
 10
40.485721
 20
44.241395
 30
0.0
 10
37.776714
 20
42.318043
 30
0.0
 10
36.668654
 20
40.618251
 30
0.0
  0
SPLINE
  5
177
100
AcDbEntity
  8
Layer_1
 62
7
100
AcDbSpline
 70
8
 71
3
 72
8
 73
4
 74
0
 40
0
 40
0
 40
0
 40
0
 40
1
 40
1
 40
1
 40
1
 10
36.668654
 20
40.618251
 30
0.0
 10
36.474135
 20
40.319854
 30
0.0
 10
36.303051
 20
40.087643
 30
0.0
 10
36.288467
 20
40.102229
 30
0.0
  0
SPLINE
  5
178
100
AcDbEntity
  8
Layer_1
 62
7
100
AcDbSpline
 70
8
 71
3
 72
8
 73
4
 74
0
 40
0
 40
0
 40
0
 40
0
 40
1
 40
1
 40
1
 40
1
 10
36.288467
 20
40.102229
 30
0.0
 10
36.240527
 20
40.150166
 30
0.0
 10
36.806823
 20
41.396457
 30
0.0
 10
37.103309
 20
41.895519
 30
0.0
  0
SPLINE
  5
179
100
AcDbEntity
  8
Layer_1
 62
7
100
AcDbSpline
 70
8
 71
3
 72
8
 73
4
 74
0
 40
0
 40
0
 40
0
 40
0
 40
1
 40
1
 40
1
 40
1
 10
37.103309
 20
41.895519
 30
0.0
 10
38.520849
 20
44.281590
 30
0.0
 10
41.314169
 20
46.477513
 30
0.0
 10
43.952938
 20
47.280245
 30
0.0
  0
SPLINE
  5
17a
100
AcDbEntity
  8
Layer_1
 62
7
100
AcDbSpline
 70
8
 71
3
 72
8
 73
4
 74
0
 40
0
 40
0
 40
0
 40
0
 40
1
 40
1
 40
1
 40
1
 10
43.952938
 20
47.280245
 30
0.0
 10
45.065654
 20
47.618740
 30
0.0
 10
45.399973
 20
47.667577
 30
0.0
 10
46.558936
 20
47.660920
 30
0.0
  0
SPLINE
  5
17b
100
AcDbEntity
  8
Layer_1
 62
7
100
AcDbSpline
 70
8
 71
3
 72
8
 73
4
 74
0
 40
0
 40
0
 40
0
 40
0
 40
1
 40
1
 40
1
 40
1
 10
46.558936
 20
47.660920
 30
0.0
 10
47.489544
 20
47.655575
 30
0.0
 10
47.743655
 20
47.628707
 30
0.0
 10
48.344048
 20
47.472193
 30
0.0
  0
SPLINE
  5
17c
100
AcDbEntity
  8
Layer_1
 62
7
100
AcDbSpline
 70
8
 71
3
 72
8
 73
4
 74
0
 40
0
 40
0
 40
0
 40
0
 40
1
 40
1
 40
1
 40
1
 10
48.344048
 20
47.472193
 30
0.0
 10
49.187132
 20
47.252411
 30
0.0
 10
50.392571
 20
46.672243
 30
0.0
 10
51.074217
 20
46.158187
 30
0.0
  0
SPLINE
  5
17d
100
AcDbEntity
  8
Layer_1
 62
7
100
AcDbSpline
 70
8
 71
3
 72
8
 73
4
 74
0
 40
0
 40
0
 40
0
 40
0
 40
1
 40
1
 40
1
 40
1
 10
51.074217
 20
46.158187
 30
0.0
 10
54.569217
 20
43.522463
 30
0.0
 10
56.158080
 20
38.246098
 30
0.0
 10
54.950601
 20
33.285306
 30
0.0
  0
SPLINE
  5
17e
100
AcDbEntity
  8
Layer_1
 62
7
100
AcDbSpline
 70
8
 71
3
 72
8
 73
4
 74
0
 40
0
 40
0
 40
0
 40
0
 40
1
 40
1
 40
1
 40
1
 10
54.950601
 20
33.285306
 30
0.0
 10
54.536684
 20
31.584773
 30
0.0
 10
53.971243
 20
30.073925
 30
0.0
 10
52.618852
 20
27.054918
 30
0.0
  0
SPLINE
  5
17f
100
AcDbEntity
  8
Layer_1
 62
7
100
AcDbSpline
 70
8
 71
3
 72
8
 73
4
 74
0
 40
0
 40
0
 40
0
 40
0
 40
1
 40
1
 40
1
 40
1
 10
52.618852
 20
27.054918
 30
0.0
 10
51.620608
 20
24.826492
 30
0.0
 10
51.020279
 20
23.689879
 30
0.0
 10
49.531498
 20
21.209556
 30
0.0
  0
SPLINE
  5
180
100
AcDbEntity
  8
Layer_1
 62
7
100
AcDbSpline
 70
8
 71
3
 72
8
 73
4
 74
0
 40
0
 40
0
 40
0
 40
0
 40
1
 40
1
 40
1
 40
1
 10
49.531498
 20
21.209556
 30
0.0
 10
48.416914
 20
19.352646
 30
0.0
 10
45.654037
 20
15.087341
 30
0.0
 10
45.564481
 20
15.085301
 30
0.0
  0
SPLINE
  5
181
100
AcDbEntity
  8
Layer_1
 62
7
100
AcDbSpline
 70
8
 71
3
 72
8
 73
4
 74
0
 40
0
 40
0
 40
0
 40
0
 40
1
 40
1
 40
1
 40
1
 10
45.564481
 20
15.085301
 30
0.0
 10
45.537311
 20
15.084772
 30
0.0
 10
45.556861
 20
15.202310
 30
0.0
 10
45.607896
 20
15.346693
 30
0.0
  0
LINE
  5
182
100
AcDbEntity
  8
Layer_1
 62
7
100
AcDbLine
 10
45.607896
 20
15.346693
 30
0.0
 11
45.607896
 21
15.346693
 31
0.0
  0
ENDSEC
  0
SECTION
  2
OBJECTS
  0
DICTIONARY
  5
C
330
0
100
AcDbDictionary
  3
ACAD_GROUP
350
D
  3
ACAD_MLINESTYLE
350
17
  0
DICTIONARY
  5
D
330
C
100
AcDbDictionary
  0
DICTIONARY
  5
1A
330
C
100
AcDbDictionary
  0
DICTIONARY
  5
17
330
C
100
AcDbDictionary
  3
STANDARD
350
18
  0
DICTIONARY
  5
19
330
C
100
AcDbDictionary
  0
ENDSEC
  0
EOF
