0
SECTION
2
HEADER
9
$EXTMIN
10
15.751300
20
14.131859
9
$EXTMAX
10
29.989075
20
33.770710
0
ENDSEC
0
SECTION
2
TABLES
0
TABLE
2
LTYPE
70
1
0
LTYPE
2
0
70
0
3
Solid Line
72
65
73
0
40
0.0
0
ENDTAB
0
TABLE
2
LAYER
70
1
0
LAYER
2
1
70
0
62
7
6
0
0
ENDTAB
0
ENDSEC
0
SECTION
2
BLOCKS
0
ENDSEC
0
SECTION
2
ENTITIES
0
LINE
8
1
10
21.788738
20
23.537403
11
21.879021
21
23.677219
0
ARC
8
1
10
12.137346
20
24.767887
40
9.802539
50
-6.388173
51
0.820308
0
ARC
8
1
10
21.722031
20
18.040075
40
6.871573
50
88.191581
51
94.450780
0
ARC
8
1
10
21.569805
20
16.798424
40
8.101468
50
92.695720
51
103.420691
0
LINE
8
1
10
19.689461
20
24.678658
11
19.723913
21
24.609383
0
ARC
8
1
10
23.342035
20
26.248201
40
3.971969
50
-155.631973
51
-114.585497
0
ARC
8
1
10
14.202312
20
24.537090
40
7.724688
50
-14.244696
51
-6.456821
0
LINE
8
1
10
23.896055
20
23.765427
11
23.834381
21
23.657343
0
ARC
8
1
10
31.545179
20
24.213362
40
7.730819
50
-175.875586
51
-168.042620
0
ARC
8
1
10
22.469461
20
26.291931
40
3.979005
50
-67.656664
51
-25.585004
0
LINE
8
1
10
26.058308
20
24.573599
11
26.048805
21
24.576754
0
ARC
8
1
10
23.844181
20
16.683386
40
8.195464
50
74.394905
51
85.515215
0
ARC
8
1
10
23.827990
20
19.113794
40
5.777443
50
83.470003
51
90.047513
0
ARC
8
1
10
33.705700
20
24.363598
40
9.896577
50
176.943813
51
-175.958997
0
LINE
8
1
10
21.858234
20
27.671242
11
21.914698
21
27.759594
0
ARC
8
1
10
14.214052
20
27.106966
40
7.728251
50
4.844228
51
12.676079
0
ARC
8
1
10
23.307020
20
25.146986
40
3.972074
50
113.016772
51
155.221102
0
LINE
8
1
10
19.700647
20
26.811752
11
19.809540
21
26.788078
0
ARC
8
1
10
21.802439
20
34.626884
40
8.088172
50
-104.264387
51
-93.789509
0
ARC
8
1
10
21.864634
20
32.373337
40
5.847470
50
-95.857404
51
-89.247428
0
ARC
8
1
10
12.058064
20
26.929115
40
9.891575
50
-2.333494
51
4.764787
0
LINE
8
1
10
23.962650
20
27.820465
11
23.870178
21
27.724358
0
ARC
8
1
10
33.612827
20
26.753355
40
9.790917
50
174.308398
51
-178.452453
0
ARC
8
1
10
23.955664
20
33.357052
40
6.869348
50
-91.085885
51
-84.824562
0
ARC
8
1
10
24.092106
20
34.602360
40
8.101075
50
-86.580399
51
-75.855000
0
LINE
8
1
10
26.071819
20
26.746906
11
26.028419
21
26.832928
0
ARC
8
1
10
22.439123
20
25.131065
40
3.972327
50
25.367935
51
66.136209
0
ARC
8
1
10
31.548132
20
26.959064
40
7.715977
50
166.473463
51
174.242084
0
LINE
8
1
10
19.548433
20
28.967293
11
19.687286
21
28.994709
0
ARC
8
1
10
23.182913
20
25.403278
40
5.011764
50
110.747691
51
134.225508
0
LINE
8
1
10
21.407478
20
30.090027
11
21.406151
21
30.097065
0
ARC
8
1
10
15.582686
20
28.597006
40
6.013561
50
14.444735
51
59.354731
0
LINE
8
1
10
18.647926
20
33.770710
11
22.747925
21
33.770710
0
LINE
8
1
10
22.747925
20
33.770710
11
22.992453
21
33.770710
0
LINE
8
1
10
22.992453
20
33.770710
11
27.092449
21
33.770710
0
ARC
8
1
10
30.155550
20
28.599369
40
6.010437
50
120.639204
51
165.640117
0
ARC
8
1
10
24.002275
20
29.007784
40
1.131619
50
64.272703
51
73.012256
0
ARC
8
1
10
22.525023
20
25.359543
40
5.065783
50
22.147903
51
67.133662
0
ARC
8
1
10
28.008352
20
27.697140
40
0.899568
50
-151.603845
51
-150.831514
0
ARC
8
1
10
21.948792
20
41.687592
40
15.362566
50
-69.921553
51
-58.441522
0
ARC
8
1
10
54807.601563
20
10.757559
40
54777.615393
50
179.981335
51
179.987174
0
ARC
8
1
10
24.010098
20
13.185452
40
11.504296
50
58.695674
51
73.510468
0
ARC
8
1
10
22.919691
20
25.523438
40
4.547606
50
-74.382871
51
-16.700530
0
ARC
8
1
10
37.344761
20
21.776592
40
13.215981
50
-177.255223
51
-144.679978
0
LINE
8
1
10
26.561371
20
14.135869
11
26.533033
21
14.135896
0
ARC
8
1
10
22.849926
20
1693.003174
40
1678.871318
50
-90.125277
51
-89.874302
0
ARC
8
1
10
8.396339
20
21.776203
40
13.215171
50
-35.320438
51
-2.721312
0
LINE
8
1
10
21.596607
20
21.148773
11
21.482523
21
21.177631
0
ARC
8
1
10
22.819014
20
25.522440
40
4.545720
50
-163.305456
51
-107.098226
0
ARC
8
1
10
21.730227
20
13.185593
40
11.504146
50
106.489480
51
121.304464
0
LINE
8
1
10
15.752836
20
23.014946
11
15.751369
21
23.200880
0
LINE
8
1
10
15.751369
20
23.200880
11
15.751369
21
28.384949
0
LINE
8
1
10
15.751369
20
28.384949
11
15.751300
21
28.597050
0
ARC
8
1
10
23.791590
20
41.687614
40
15.362589
50
-121.558449
51
-110.078554
0
ARC
8
1
10
18.054049
20
27.521933
40
0.532969
50
-29.594649
51
-18.939679
0
ARC
8
1
10
23.206953
20
25.369761
40
5.052566
50
134.256281
51
156.938506
0
ENDSEC
0
EOF
