0
SECTION
2
HEADER
9
$EXTMIN
10
17.396921
20
5.305473
9
$EXTMAX
10
36.004173
20
31.557070
0
ENDSEC
0
SECTION
2
TABLES
0
TABLE
2
LTYPE
70
1
0
LTYPE
2
0
70
0
3
Solid Line
72
65
73
0
40
0.0
0
ENDTAB
0
TABLE
2
LAYER
70
1
0
LAYER
2
1
70
0
62
7
6
0
0
ENDTAB
0
ENDSEC
0
SECTION
2
BLOCKS
0
ENDSEC
0
SECTION
2
ENTITIES
0
ARC
8
1
10
-0.832186
20
26.277679
40
27.943614
50
-7.057676
51
1.373818
0
ARC
8
1
10
27.244377
20
18.269884
40
8.678899
50
90.930762
51
103.319237
0
LINE
8
1
10
25.244963
20
26.715334
11
25.244965
21
27.644550
0
ARC
8
1
10
27.244444
20
36.090446
40
8.679348
50
-103.318975
51
-90.931154
0
ARC
8
1
10
18.459795
20
27.278479
40
8.644635
50
0.886624
51
13.331444
0
LINE
8
1
10
26.871479
20
29.271791
11
27.800695
21
29.271791
0
ARC
8
1
10
36.246708
20
27.272306
40
8.679462
50
166.681158
51
179.068813
0
ARC
8
1
10
27.438185
20
36.031834
40
8.619457
50
-89.134444
51
-76.659394
0
LINE
8
1
10
29.427032
20
27.644968
11
29.427032
21
26.715748
0
ARC
8
1
10
27.434105
20
18.306160
40
8.642507
50
76.667835
51
89.115646
0
ARC
8
1
10
55.536369
20
26.278210
40
27.976884
50
178.628897
51
-172.519044
0
LINE
8
1
10
27.797619
20
22.635715
11
28.772223
21
23.252693
0
LINE
8
1
10
28.772223
20
23.252693
11
29.818682
21
22.780764
0
LINE
8
1
10
29.818682
20
22.780764
11
30.155422
21
22.104933
0
LINE
8
1
10
30.155422
20
22.104933
11
28.654505
21
22.781816
0
LINE
8
1
10
28.654505
20
22.781816
11
28.117958
21
22.439024
0
ARC
8
1
10
28.153820
20
22.052485
40
0.388199
50
45.721010
51
95.300554
0
ARC
8
1
10
27.841400
20
21.721348
40
0.843427
50
8.972963
51
46.231008
0
ARC
8
1
10
27.658978
20
21.677200
40
1.030614
50
-0.179627
51
9.815521
0
LINE
8
1
10
28.689587
20
21.673969
11
28.086210
21
21.329185
0
ARC
8
1
10
28.412197
20
21.431959
40
0.341804
50
-162.501530
51
-125.930758
0
ARC
8
1
10
28.292698
20
21.312141
40
0.176653
50
-117.318969
51
-58.567617
0
ARC
8
1
10
28.058064
20
21.740353
40
0.664788
50
-60.559395
51
-27.156353
0
ARC
8
1
10
28.107117
20
21.253813
40
0.572526
50
-27.336931
51
18.653275
0
ARC
8
1
10
28.101416
20
21.219490
40
0.562803
50
-66.362760
51
-23.964480
0
ARC
8
1
10
28.199905
20
21.100950
40
0.416912
50
-133.177509
51
-72.241126
0
ARC
8
1
10
28.453186
20
21.367720
40
0.784763
50
-165.351475
51
-133.335342
0
ARC
8
1
10
29.017241
20
21.552479
40
1.377680
50
155.992210
51
-163.849515
0
ARC
8
1
10
28.487988
20
21.767122
40
0.807112
50
141.717815
51
154.625012
0
LINE
8
1
10
27.854429
20
22.267157
11
27.595034
21
22.104933
0
LINE
8
1
10
27.595034
20
22.104933
11
27.307251
21
22.198040
0
ARC
8
1
10
26.502195
20
22.131927
40
0.807766
50
-21.011372
51
4.694691
0
ARC
8
1
10
33.409492
20
19.768030
40
6.493455
50
161.370925
51
164.564504
0
LINE
8
1
10
27.150251
20
21.496284
11
27.146978
21
21.479033
0
ARC
8
1
10
27.740753
20
21.351433
40
0.607330
50
167.871821
51
-156.373606
0
LINE
8
1
10
27.184330
20
21.108032
11
27.193771
21
21.088768
0
ARC
8
1
10
28.704384
20
21.989277
40
1.758655
50
-149.199909
51
-134.126090
0
LINE
8
1
10
27.479939
20
20.726898
11
27.500998
21
20.705317
0
LINE
8
1
10
27.500998
20
20.705317
11
27.020761
21
20.705317
0
ARC
8
1
10
27.495821
20
21.206341
40
0.690440
50
-176.521228
51
-133.476235
0
ARC
8
1
10
28.430515
20
21.268629
40
1.627200
50
168.761754
51
-176.329061
0
ARC
8
1
10
25.305006
20
21.878658
40
1.557304
50
-10.841057
51
1.689485
0
LINE
8
1
10
26.861633
20
21.924572
11
26.858974
21
21.938406
0
ARC
8
1
10
26.817190
20
21.935471
40
0.041887
50
4.018513
51
124.983254
0
LINE
8
1
10
26.793175
20
21.969790
11
26.784109
21
21.964401
0
ARC
8
1
10
26.994293
20
21.735336
40
0.310883
50
132.538688
51
164.557888
0
LINE
8
1
10
26.694633
20
21.818113
11
26.688335
21
21.800150
0
ARC
8
1
10
28.547714
20
21.256926
40
1.937107
50
163.714079
51
-178.435114
0
ARC
8
1
10
27.970341
20
21.158962
40
1.359758
50
178.100838
51
-162.352761
0
LINE
8
1
10
26.674572
20
20.746744
11
26.682722
21
20.725594
0
LINE
8
1
10
26.682722
20
20.725594
11
26.691372
21
20.705317
0
LINE
8
1
10
26.691372
20
20.705317
11
26.149565
21
20.705317
0
LINE
8
1
10
26.149565
20
20.705317
11
26.155668
21
20.715927
0
LINE
8
1
10
26.155668
20
20.715927
11
26.161674
21
20.727604
0
LINE
8
1
10
26.161674
20
20.727604
11
26.167576
21
20.740351
0
LINE
8
1
10
26.167576
20
20.740351
11
26.173374
21
20.754166
0
LINE
8
1
10
26.173374
20
20.754166
11
26.179077
21
20.769049
0
LINE
8
1
10
26.179077
20
20.769049
11
26.184673
21
20.785000
0
LINE
8
1
10
26.184673
20
20.785000
11
26.190168
21
20.802021
0
LINE
8
1
10
26.190168
20
20.802021
11
26.195560
21
20.820112
0
ARC
8
1
10
22.271038
20
21.763733
40
4.036372
50
-13.519685
51
-2.527229
0
ARC
8
1
10
24.508003
20
21.638424
40
1.796253
50
-1.680322
51
8.814282
0
ARC
8
1
10
26.182964
20
21.897331
40
0.101403
50
9.270974
51
48.074067
0
LINE
8
1
10
26.250719
20
21.972776
11
26.235758
21
21.976715
0
LINE
8
1
10
26.235758
20
21.976715
11
26.216681
21
21.972610
0
LINE
8
1
10
26.216681
20
21.972610
11
26.207195
21
21.967480
0
LINE
8
1
10
26.207195
20
21.967480
11
26.197754
21
21.960297
0
LINE
8
1
10
26.197754
20
21.960297
11
26.188349
21
21.951063
0
LINE
8
1
10
26.188349
20
21.951063
11
26.178978
21
21.939774
0
LINE
8
1
10
26.178978
20
21.939774
11
26.169649
21
21.926432
0
LINE
8
1
10
26.169649
20
21.926432
11
26.160357
21
21.911041
0
LINE
8
1
10
26.160357
20
21.911041
11
26.151104
21
21.893597
0
LINE
8
1
10
26.151104
20
21.893597
11
26.144238
21
21.879370
0
LINE
8
1
10
26.144238
20
21.879370
11
26.137505
21
21.864393
0
LINE
8
1
10
26.137505
20
21.864393
11
26.130901
21
21.848671
0
LINE
8
1
10
26.130901
20
21.848671
11
26.124422
21
21.832199
0
LINE
8
1
10
26.124422
20
21.832199
11
26.118071
21
21.814980
0
LINE
8
1
10
26.118071
20
21.814980
11
26.111853
21
21.797010
0
LINE
8
1
10
26.111853
20
21.797010
11
26.105759
21
21.778296
0
LINE
8
1
10
26.105759
20
21.778296
11
26.099796
21
21.758831
0
LINE
8
1
10
26.099796
20
21.758831
11
26.093958
21
21.738617
0
ARC
8
1
10
29.005901
20
21.016544
40
3.000134
50
166.073310
51
-176.140433
0
ARC
8
1
10
26.477253
20
20.855692
40
0.466495
50
-174.946693
51
-161.194788
0
LINE
8
1
10
26.035660
20
20.705317
11
25.346090
21
20.705317
0
LINE
8
1
10
25.346090
20
20.705317
11
25.360655
21
20.718279
0
ARC
8
1
10
24.507114
20
21.599794
40
1.227029
50
-45.923724
51
-14.146603
0
ARC
8
1
10
24.576866
20
21.646841
40
1.172567
50
-17.210219
51
15.942656
0
ARC
8
1
10
25.118465
20
21.788046
40
0.613151
50
17.156612
51
59.882812
0
ARC
8
1
10
26.006023
20
21.244843
40
1.220186
50
103.295170
51
118.375812
0
ARC
8
1
10
25.762625
20
22.257544
40
0.178698
50
53.586936
51
102.016846
0
ARC
8
1
10
25.633366
20
22.199869
40
0.309802
50
7.261745
51
40.568657
0
ARC
8
1
10
26.482786
20
22.319675
40
0.548069
50
-171.538384
51
-158.128901
0
LINE
8
1
10
25.974165
20
22.115509
11
25.979769
21
22.106298
0
LINE
8
1
10
25.979769
20
22.106298
11
25.992561
21
22.090618
0
ARC
8
1
10
26.436678
20
21.935797
40
0.470329
50
117.966858
51
160.781170
0
ARC
8
1
10
26.377131
20
21.988131
40
0.397173
50
76.931714
51
113.916892
0
ARC
8
1
10
26.383886
20
22.157438
40
0.232890
50
14.083702
51
69.108163
0
LINE
8
1
10
26.609776
20
22.214109
11
26.614408
21
22.198362
0
ARC
8
1
10
27.114691
20
21.686798
40
0.715528
50
113.099759
51
134.361182
0
LINE
8
1
10
26.833965
20
22.344957
11
25.593809
21
22.752388
0
LINE
8
1
10
25.593809
20
22.752388
11
24.788200
21
22.366074
0
LINE
8
1
10
24.788200
20
22.366074
11
24.804649
21
22.359106
0
ARC
8
1
10
24.506426
20
21.790916
40
0.641698
50
23.392512
51
62.306538
0
ARC
8
1
10
23.964268
20
21.530155
40
1.243057
50
-26.014452
51
24.502328
0
ARC
8
1
10
24.555712
20
21.234873
40
0.582057
50
-65.830098
51
-25.427827
0
ARC
8
1
10
24.650915
20
21.082607
40
0.404901
50
-133.076456
51
-69.300979
0
ARC
8
1
10
24.936859
20
21.391344
40
0.825711
50
-167.603401
51
-132.938137
0
ARC
8
1
10
25.336088
20
21.521662
40
1.244303
50
151.931001
51
-165.688711
0
LINE
8
1
10
24.238138
20
22.107149
11
24.210611
21
22.104933
0
LINE
8
1
10
24.210611
20
22.104933
11
23.849756
21
22.269442
0
ARC
8
1
10
24.946688
20
21.885723
40
1.162110
50
160.719606
51
179.156439
0
ARC
8
1
10
23.035805
20
21.206495
40
1.022612
50
42.917090
51
56.050703
0
ARC
8
1
10
23.512556
20
21.891634
40
0.188461
50
59.963031
51
102.753218
0
ARC
8
1
10
23.562307
20
21.915783
40
0.183950
50
119.777006
51
167.146224
0
ARC
8
1
10
24.510363
20
21.647612
40
1.168999
50
164.668182
51
-166.566509
0
LINE
8
1
10
23.373346
20
21.376034
11
23.377979
21
21.361334
0
LINE
8
1
10
23.377979
20
21.361334
11
23.382952
21
21.347097
0
LINE
8
1
10
23.382952
20
21.347097
11
23.388262
21
21.333321
0
ARC
8
1
10
23.605259
20
21.403938
40
0.228199
50
-161.973483
51
-85.907727
0
ARC
8
1
10
23.621702
20
21.596331
40
0.420010
50
-90.021593
51
-37.700977
0
ARC
8
1
10
23.165615
20
21.316723
40
0.788733
50
-38.657687
51
1.653193
0
ARC
8
1
10
23.468292
20
21.081230
40
0.405304
50
-105.514799
51
-39.389669
0
LINE
8
1
10
23.359879
20
20.690695
11
23.343546
21
20.696531
0
ARC
8
1
10
23.565571
20
21.181280
40
0.533176
50
-154.190092
51
-114.608749
0
LINE
8
1
10
23.085583
20
20.949142
11
23.076612
21
20.966255
0
LINE
8
1
10
23.076612
20
20.966255
11
23.067928
21
20.983791
0
LINE
8
1
10
23.067928
20
20.983791
11
23.059525
21
21.001751
0
ARC
8
1
10
24.261879
20
21.509777
40
1.305276
50
156.553237
51
-157.094669
0
ARC
8
1
10
23.671827
20
21.763357
40
0.663050
50
121.055138
51
156.368523
0
ARC
8
1
10
23.515182
20
21.977007
40
0.399935
50
89.315758
51
117.617755
0
LINE
8
1
10
23.519958
20
22.376913
11
23.624687
21
22.376913
0
LINE
8
1
10
23.624687
20
22.376913
11
22.827412
21
22.752388
0
LINE
8
1
10
22.827412
20
22.752388
11
22.095892
21
22.378845
0
LINE
8
1
10
22.095892
20
22.378845
11
22.098221
21
22.373835
0
LINE
8
1
10
22.098221
20
22.373835
11
22.494528
21
22.373837
0
LINE
8
1
10
22.494528
20
22.373837
11
22.485764
21
22.350935
0
ARC
8
1
10
28.301405
20
20.934132
40
5.985734
50
166.308339
51
174.531539
0
ARC
8
1
10
23.456354
20
21.431774
40
1.115818
50
176.259955
51
-167.943155
0
ARC
8
1
10
22.493654
20
21.222454
40
0.130681
50
-169.527004
51
-120.724819
0
LINE
8
1
10
22.426888
20
21.110117
11
22.438776
21
21.106665
0
LINE
8
1
10
22.438776
20
21.106665
11
22.451431
21
21.105515
0
LINE
8
1
10
22.451431
20
21.105515
11
22.462790
21
21.105978
0
ARC
8
1
10
22.388905
20
21.511265
40
0.411966
50
-79.668269
51
-38.908835
0
ARC
8
1
10
21.968058
20
21.915342
40
0.994504
50
-41.796704
51
-36.699638
0
LINE
8
1
10
22.765430
20
21.321007
11
22.761292
21
21.298208
0
ARC
8
1
10
24.363997
20
21.134844
40
1.611009
50
174.179913
51
-167.541476
0
ARC
8
1
10
23.448574
20
20.957243
40
0.679255
50
-165.510912
51
-158.229717
0
LINE
8
1
10
22.817764
20
20.705317
11
21.651033
21
20.705317
0
LINE
8
1
10
21.651033
20
20.705317
11
21.667883
21
20.716436
0
LINE
8
1
10
21.667883
20
20.716436
11
21.684334
21
20.728014
0
ARC
8
1
10
21.172083
20
21.385309
40
0.833329
50
-52.069588
51
-20.097141
0
ARC
8
1
10
20.611309
20
21.627890
40
1.443739
50
-21.491077
51
13.670225
0
ARC
8
1
10
21.376156
20
21.794140
40
0.661548
50
15.334906
51
43.680174
0
LINE
8
1
10
21.854591
20
22.251026
11
21.846268
21
22.251377
0
LINE
8
1
10
21.846268
20
22.251377
11
21.444214
21
22.046072
0
LINE
8
1
10
21.444214
20
22.046072
11
21.433826
21
22.035885
0
ARC
8
1
10
20.561329
20
21.657726
40
0.950924
50
-0.627033
51
23.432910
0
LINE
8
1
10
21.512196
20
21.647320
11
20.908819
21
21.302536
0
ARC
8
1
10
21.234793
20
21.405306
40
0.341790
50
-162.501467
51
-125.928544
0
ARC
8
1
10
21.115311
20
21.285479
40
0.176640
50
-117.320407
51
-58.566415
0
ARC
8
1
10
20.880707
20
21.713667
40
0.664740
50
-60.560437
51
-27.155000
0
ARC
8
1
10
20.929733
20
21.227160
40
0.572518
50
-27.336686
51
18.653942
0
ARC
8
1
10
20.924034
20
21.192833
40
0.562792
50
-66.363338
51
-23.963908
0
ARC
8
1
10
21.022514
20
21.074297
40
0.416908
50
-133.177676
51
-72.240966
0
ARC
8
1
10
21.275757
20
21.341045
40
0.784717
50
-165.352622
51
-133.334457
0
ARC
8
1
10
21.839817
20
21.525833
40
1.377647
50
155.991774
51
-163.849042
0
ARC
8
1
10
21.169653
20
21.828806
40
0.642204
50
122.189853
51
156.356996
0
ARC
8
1
10
20.987186
20
22.085926
40
0.327866
50
69.101740
51
119.139940
0
LINE
8
1
10
21.104139
20
22.392223
11
21.106556
21
22.397799
0
LINE
8
1
10
21.106556
20
22.397799
11
20.031586
21
23.517561
0
LINE
8
1
10
20.031586
20
23.517561
11
18.940535
21
22.901646
0
ARC
8
1
10
19.174238
20
22.763573
40
0.271443
50
149.425243
51
-170.810762
0
ARC
8
1
10
19.594284
20
22.782866
40
0.690851
50
-174.797704
51
-142.957486
0
ARC
8
1
10
17.323189
20
21.054806
40
2.162936
50
29.675575
51
37.339019
0
ARC
8
1
10
18.793039
20
21.920885
40
0.457753
50
-6.236923
51
26.572311
0
ARC
8
1
10
17.614775
20
21.955433
40
1.635481
50
-19.128126
51
-2.953821
0
ARC
8
1
10
17.837681
20
22.508871
40
1.713217
50
-39.483338
51
-24.593734
0
ARC
8
1
10
18.711643
20
22.069008
40
0.736368
50
-21.773382
51
6.043403
0
ARC
8
1
10
23.425007
20
23.477854
40
4.197795
50
-164.798132
51
-161.509494
0
ARC
8
1
10
19.867916
20
22.439688
40
0.497764
50
153.713005
51
-172.777299
0
ARC
8
1
10
19.890341
20
22.722910
40
0.472899
50
-172.371328
51
-133.355411
0
LINE
8
1
10
19.565685
20
22.379061
11
19.574524
21
22.369558
0
LINE
8
1
10
19.574524
20
22.369558
11
19.583473
21
22.360134
0
LINE
8
1
10
19.583473
20
22.360134
11
19.592539
21
22.350784
0
ARC
8
1
10
19.260269
20
21.973354
40
0.502848
50
9.262385
51
48.640990
0
LINE
8
1
10
19.756561
20
22.054291
11
19.758177
21
22.038670
0
LINE
8
1
10
19.758177
20
22.038670
11
19.759331
21
22.022585
0
ARC
8
1
10
16.920866
20
22.031763
40
2.838480
50
-12.456338
51
-0.185265
0
ARC
8
1
10
17.835304
20
22.815834
40
2.323573
50
-36.936955
51
-28.804152
0
ARC
8
1
10
19.136471
20
22.046772
40
0.814207
50
-25.496121
51
9.857234
0
LINE
8
1
10
19.938658
20
22.186159
11
19.934160
21
22.203564
0
ARC
8
1
10
19.257603
20
21.974401
40
0.714315
50
18.712165
51
38.037812
0
ARC
8
1
10
26.000223
20
27.227108
40
7.832842
50
-144.635397
51
-142.091094
0
ARC
8
1
10
19.830557
20
22.831543
40
0.257876
50
160.241837
51
-147.671002
0
LINE
8
1
10
19.587862
20
22.918718
11
20.132746
21
22.918718
0
ARC
8
1
10
18.867865
20
22.194906
40
1.457336
50
2.989412
51
29.779797
0
ARC
8
1
10
19.147041
20
22.255449
40
1.176278
50
-26.477383
51
0.753023
0
ARC
8
1
10
23.341209
20
20.140587
40
3.520941
50
153.146893
51
160.137600
0
ARC
8
1
10
20.891802
20
21.048653
40
0.908981
50
161.513721
51
-173.016958
0
ARC
8
1
10
20.540915
20
21.037230
40
0.560185
50
-169.811777
51
-143.664909
0
LINE
8
1
10
20.089649
20
20.705317
11
19.458567
21
20.705317
0
LINE
8
1
10
19.458567
20
20.705317
11
19.450737
21
20.723658
0
LINE
8
1
10
19.450737
20
20.723658
11
19.443417
21
20.742500
0
LINE
8
1
10
19.443417
20
20.742500
11
19.436598
21
20.761848
0
LINE
8
1
10
19.436598
20
20.761848
11
19.430286
21
20.781700
0
LINE
8
1
10
19.430286
20
20.781700
11
19.424477
21
20.802061
0
ARC
8
1
10
20.590639
20
21.069332
40
1.196398
50
161.587491
51
-167.091398
0
ARC
8
1
10
19.828159
20
20.918894
40
0.646540
50
125.198314
51
163.823676
0
ARC
8
1
10
19.854589
20
20.952036
40
0.663849
50
167.208353
51
-160.174299
0
LINE
8
1
10
19.230087
20
20.726885
11
19.236921
21
20.705317
0
LINE
8
1
10
19.236921
20
20.705317
11
18.482700
21
20.705317
0
ARC
8
1
10
17.571976
20
21.577713
40
1.261148
50
-43.768616
51
-19.295714
0
ARC
8
1
10
17.417910
20
21.682499
40
1.441984
50
-21.202878
51
2.467540
0
ARC
8
1
10
18.155262
20
21.652794
40
0.709259
50
7.435672
51
39.073484
0
ARC
8
1
10
15.497049
20
19.539141
40
4.105348
50
38.590505
51
43.466404
0
ARC
8
1
10
19.360270
20
23.156353
40
1.187318
50
-149.518463
51
-138.093875
0
LINE
8
1
10
18.337048
20
22.554073
11
18.328978
21
22.556412
0
LINE
8
1
10
18.328978
20
22.556412
11
18.206940
21
22.487520
0
LINE
8
1
10
18.206940
20
22.487520
11
17.396921
21
22.027260
0
LINE
8
1
10
17.396921
20
22.027260
11
17.562107
21
22.522816
0
LINE
8
1
10
17.562107
20
22.522816
11
18.324659
21
22.958397
0
LINE
8
1
10
18.324659
20
22.958397
11
19.010771
21
23.345716
0
LINE
8
1
10
19.010771
20
23.345716
11
19.028889
21
23.449720
0
ARC
8
1
10
-5.674270
20
26.610641
40
24.904567
50
-7.291724
51
1.373795
0
ARC
8
1
10
19.348814
20
19.473701
40
7.735047
50
90.930952
51
103.319090
0
LINE
8
1
10
17.566860
20
27.000692
11
17.566860
21
27.828833
0
ARC
8
1
10
19.348814
20
35.355824
40
7.735047
50
-103.319090
51
-90.930952
0
ARC
8
1
10
11.519982
20
27.502619
40
7.704078
50
0.886376
51
13.331577
0
LINE
8
1
10
19.016451
20
29.279072
11
19.844593
21
29.279072
0
ARC
8
1
10
27.371542
20
27.497124
40
7.735005
50
166.680873
51
179.069092
0
ARC
8
1
10
19.521481
20
35.304222
40
7.682308
50
-89.134242
51
-76.659913
0
LINE
8
1
10
21.294024
20
27.829201
11
21.294024
21
27.001062
0
ARC
8
1
10
19.517859
20
19.506052
40
7.702593
50
76.668004
51
89.115522
0
ARC
8
1
10
44.523663
20
26.610540
40
24.894068
50
178.625387
51
-173.494525
0
LINE
8
1
10
19.789886
20
23.790091
11
20.149305
21
23.988438
0
LINE
8
1
10
20.149305
20
23.988438
11
21.561934
21
22.516951
0
LINE
8
1
10
21.561934
20
22.516951
11
22.338425
21
22.913456
0
ARC
8
1
10
-13.510657
20
27.664579
40
36.162548
50
-7.549485
51
1.382781
0
ARC
8
1
10
22.824593
20
17.261663
40
11.277070
50
90.930998
51
103.319042
0
LINE
8
1
10
20.226658
20
28.235407
11
20.226660
21
29.442760
0
ARC
8
1
10
22.824648
20
40.416786
40
11.277357
50
-103.318975
51
-90.931255
0
ARC
8
1
10
11.410595
20
28.967138
40
11.232109
50
0.886502
51
13.331388
0
LINE
8
1
10
22.340029
20
31.557070
11
23.547379
21
31.557070
0
ARC
8
1
10
34.521202
20
28.959133
40
11.277148
50
166.681035
51
179.068982
0
ARC
8
1
10
23.076340
20
40.340942
40
11.199850
50
-89.134363
51
-76.659767
0
LINE
8
1
10
25.660515
20
29.443296
11
25.660515
21
28.235947
0
ARC
8
1
10
23.071054
20
17.309088
40
11.229495
50
76.667919
51
89.115625
0
ARC
8
1
10
59.577591
20
27.667320
40
36.343627
50
178.628427
51
-172.537149
0
LINE
8
1
10
23.541821
20
22.946892
11
24.328331
21
22.575809
0
LINE
8
1
10
24.328331
20
22.575809
11
25.711529
21
23.223265
0
LINE
8
1
10
25.711529
20
23.223265
11
26.894230
21
22.840626
0
LINE
8
1
10
26.894230
20
22.840626
11
26.899698
21
22.844292
0
LINE
8
1
10
20.980566
20
22.129583
11
20.964590
21
22.121136
0
LINE
8
1
10
20.964590
20
22.121136
11
20.956907
21
22.113743
0
LINE
8
1
10
20.956907
20
22.113743
11
20.949425
21
22.104240
0
LINE
8
1
10
20.949425
20
22.104240
11
20.942150
21
22.092627
0
LINE
8
1
10
20.942150
20
22.092627
11
20.935078
21
22.078901
0
ARC
8
1
10
21.891226
20
21.730299
40
1.017715
50
159.968633
51
179.195901
0
ARC
8
1
10
24.162348
20
21.549866
40
3.294496
50
176.611652
51
178.626203
0
ARC
8
1
10
17.685995
20
27.447924
40
6.632635
50
-61.323072
51
-59.023871
0
ARC
8
1
10
20.250866
20
21.794338
40
0.849465
50
-2.234173
51
18.624000
0
ARC
8
1
10
20.930449
20
22.019495
40
0.133615
50
20.194766
51
49.764649
0
LINE
8
1
10
21.016754
20
22.121496
11
20.980566
21
22.129583
0
LINE
8
1
10
24.682035
20
20.952448
11
24.689762
21
20.961586
0
LINE
8
1
10
24.689762
20
20.961586
11
24.697386
21
20.972757
0
ARC
8
1
10
24.011988
20
21.305067
40
0.761709
50
-25.866051
51
-2.018335
0
ARC
8
1
10
22.009912
20
21.513790
40
2.773333
50
-4.872223
51
8.142713
0
ARC
8
1
10
24.279902
20
21.835484
40
0.480674
50
8.508574
51
31.090866
0
LINE
8
1
10
24.691526
20
22.083702
11
24.683573
21
22.092840
0
ARC
8
1
10
24.651400
20
22.068224
40
0.040510
50
37.420230
51
147.900819
0
LINE
8
1
10
24.617083
20
22.089750
11
24.609030
21
22.078876
0
LINE
8
1
10
24.609030
20
22.078876
11
24.601051
21
22.065584
0
ARC
8
1
10
25.380939
20
21.719145
40
0.853373
50
156.048403
51
178.655497
0
ARC
8
1
10
27.277298
20
21.530848
40
2.757377
50
175.667154
51
-172.256777
0
ARC
8
1
10
25.141855
20
21.250143
40
0.603661
50
-171.348321
51
-151.964536
0
ARC
8
1
10
24.649670
20
20.981056
40
0.043198
50
-160.183315
51
-41.473656
0
LINE
8
1
10
28.157955
20
22.298363
11
28.141979
21
22.289915
0
LINE
8
1
10
28.141979
20
22.289915
11
28.134296
21
22.282524
0
LINE
8
1
10
28.134296
20
22.282524
11
28.126820
21
22.273022
0
LINE
8
1
10
28.126820
20
22.273022
11
28.119543
21
22.261406
0
LINE
8
1
10
28.119543
20
22.261406
11
28.112467
21
22.247681
0
ARC
8
1
10
29.068953
20
21.899021
40
1.018051
50
159.972116
51
179.192946
0
ARC
8
1
10
31.303528
20
21.720259
40
3.258253
50
176.602343
51
178.639302
0
ARC
8
1
10
24.866571
20
27.610926
40
6.626040
50
-61.323235
51
-59.021780
0
ARC
8
1
10
27.428329
20
21.963135
40
0.849392
50
-2.235397
51
18.624464
0
ARC
8
1
10
28.107855
20
22.188282
40
0.133598
50
20.193954
51
49.768156
0
LINE
8
1
10
28.194143
20
22.290276
11
28.157955
21
22.298363
0
ARC
8
1
10
62.074429
20
11.077141
40
27.937826
50
178.625790
51
-172.749760
0
ARC
8
1
10
34.011261
20
3.105793
40
8.642385
50
76.667746
51
89.115722
0
LINE
8
1
10
36.004173
20
11.515259
11
36.004173
21
12.444479
0
ARC
8
1
10
34.015339
20
20.831232
40
8.619344
50
-89.134484
51
-76.659308
0
ARC
8
1
10
42.823208
20
12.071916
40
8.678814
50
166.680811
51
179.069392
0
LINE
8
1
10
34.377838
20
14.071302
11
33.448624
21
14.071302
0
ARC
8
1
10
25.036781
20
12.077962
40
8.644796
50
0.886791
51
13.331380
0
ARC
8
1
10
33.821594
20
20.890024
40
8.679415
50
-103.318922
51
-90.931172
0
LINE
8
1
10
31.822107
20
12.444061
11
31.822107
21
11.514845
0
ARC
8
1
10
33.821526
20
3.069362
40
8.678932
50
90.930771
51
103.319211
0
ARC
8
1
10
5.750342
20
11.077212
40
27.938234
50
-6.158900
51
1.374038
0
LINE
8
1
10
33.527321
20
8.079825
11
33.524601
21
8.077405
0
LINE
8
1
10
33.524601
20
8.077405
11
33.520996
21
8.077929
0
LINE
8
1
10
33.520996
20
8.077929
11
33.123722
21
8.332785
0
LINE
8
1
10
33.123722
20
8.332785
11
31.318928
21
7.705029
0
LINE
8
1
10
31.318928
20
7.705029
11
29.886862
21
8.607428
0
LINE
8
1
10
29.886862
20
8.607428
11
29.577682
21
8.481820
0
LINE
8
1
10
29.577682
20
8.481820
11
29.575241
21
8.483955
0
LINE
8
1
10
29.575241
20
8.483955
11
29.574173
21
8.490001
0
ARC
8
1
10
67.460236
20
12.709547
40
38.120314
50
178.626175
51
-173.644889
0
ARC
8
1
10
29.168896
20
1.834693
40
11.790208
50
76.667901
51
89.115592
0
LINE
8
1
10
31.887657
20
13.307153
11
31.887657
21
14.574794
0
ARC
8
1
10
29.174498
20
26.015894
40
11.758402
50
-89.134532
51
-76.659225
0
ARC
8
1
10
41.190231
20
14.066516
40
11.839689
50
166.680777
51
179.069270
0
LINE
8
1
10
29.669010
20
16.794098
11
28.401373
21
16.794098
0
ARC
8
1
10
16.926077
20
14.074798
40
11.793092
50
0.886766
51
13.331466
0
ARC
8
1
10
28.910175
20
26.096098
40
11.840350
50
-103.318994
51
-90.931160
0
LINE
8
1
10
26.182486
20
14.574224
11
26.182486
21
13.306588
0
ARC
8
1
10
28.910076
20
1.785363
40
11.839695
50
90.930731
51
103.319251
0
ARC
8
1
10
-9.128081
20
12.706202
40
37.856952
50
-7.113933
51
1.388444
0
LINE
8
1
10
28.437443
20
8.017891
11
28.432100
21
8.011667
0
LINE
8
1
10
28.432100
20
8.011667
11
27.827042
21
7.763882
0
LINE
8
1
10
27.827042
20
7.763882
11
27.281359
21
7.531484
0
LINE
8
1
10
27.281359
20
7.531484
11
27.011703
21
6.953971
0
ARC
8
1
10
72.244392
20
-101.827126
40
117.810539
50
111.999527
51
112.578216
0
LINE
8
1
10
28.112684
20
7.405267
11
28.114246
21
7.402788
0
ARC
8
1
10
29.371538
20
7.232410
40
1.268783
50
172.282757
51
-163.241331
0
ARC
8
1
10
-6.468329
20
-3.244301
40
36.071019
50
15.629914
51
16.278379
0
ARC
8
1
10
27.544901
20
6.334526
40
0.737277
50
-20.654150
51
10.908489
0
LINE
8
1
10
28.234791
20
6.074469
11
28.226490
21
6.056778
0
LINE
8
1
10
28.226490
20
6.056778
11
28.731516
21
6.056778
0
ARC
8
1
10
28.731339
20
5.921989
40
0.134789
50
20.281137
51
89.924596
0
LINE
8
1
10
28.857771
20
5.968711
11
28.867638
21
5.945318
0
LINE
8
1
10
28.867638
20
5.945318
11
28.876186
21
5.919172
0
ARC
8
1
10
28.079218
20
5.716935
40
0.822228
50
-16.212606
51
14.238748
0
ARC
8
1
10
27.857018
20
5.861320
40
1.078628
50
-31.019314
51
-20.285178
0
LINE
8
1
10
28.781395
20
5.305473
11
29.576347
21
5.305473
0
ARC
8
1
10
31.288223
20
6.618640
40
2.157528
50
-156.385798
51
-142.508465
0
ARC
8
1
10
30.580908
20
6.246523
40
1.361599
50
176.140445
51
-158.811311
0
ARC
8
1
10
32.515507
20
6.202392
40
3.295908
50
161.966720
51
177.638917
0
ARC
8
1
10
30.283512
20
6.928998
40
0.948621
50
143.006141
51
161.964023
0
ARC
8
1
10
29.765833
20
7.293171
40
0.316690
50
126.750479
51
139.269749
0
LINE
8
1
10
29.576347
20
7.546918
11
28.896740
21
7.546918
0
LINE
8
1
10
28.896740
20
7.546918
11
28.900175
21
7.537375
0
LINE
8
1
10
28.900175
20
7.537375
11
28.903357
21
7.526560
0
LINE
8
1
10
28.903357
20
7.526560
11
28.906284
21
7.514472
0
ARC
8
1
10
25.574720
20
7.046011
40
3.364338
50
-5.541759
51
8.004036
0
ARC
8
1
10
28.289055
20
6.769305
40
0.636107
50
-28.598698
51
-4.344896
0
LINE
8
1
10
28.847553
20
6.464818
11
28.833820
21
6.445887
0
ARC
8
1
10
28.732714
20
6.517161
40
0.123703
50
-154.614342
51
-35.181420
0
ARC
8
1
10
29.176710
20
6.742207
40
0.621443
50
-177.762614
51
-153.418390
0
ARC
8
1
10
30.955845
20
6.930673
40
2.409513
50
167.501417
51
-174.934956
0
ARC
8
1
10
28.963472
20
7.363907
40
0.370690
50
150.415597
51
166.231813
0
LINE
8
1
10
28.641109
20
7.546918
11
28.465549
21
7.546918
0
LINE
8
1
10
28.465549
20
7.546918
11
28.463879
21
7.548612
0
LINE
8
1
10
28.463879
20
7.548612
11
28.464930
21
7.550746
0
LINE
8
1
10
28.464930
20
7.550746
11
29.847628
21
8.116994
0
LINE
8
1
10
29.847628
20
8.116994
11
30.734512
21
7.556195
0
ARC
8
1
10
30.720375
20
7.551894
40
0.014777
50
-131.111479
51
16.921668
0
ARC
8
1
10
30.586044
20
6.708633
40
0.841407
50
81.482998
51
90.167025
0
LINE
8
1
10
30.583591
20
7.550036
11
29.766819
21
7.550036
0
ARC
8
1
10
28.631491
20
6.667028
40
1.438288
50
17.950556
51
37.874193
0
ARC
8
1
10
29.381342
20
6.929698
40
0.644258
50
0.551463
51
16.279915
0
ARC
8
1
10
30.718824
20
6.518736
40
0.809090
50
125.680884
51
148.962751
0
ARC
8
1
10
30.439678
20
6.837441
40
0.389543
50
84.949321
51
119.660983
0
ARC
8
1
10
30.469677
20
6.961089
40
0.264418
50
18.543524
51
89.069214
0
ARC
8
1
10
30.368788
20
6.927872
40
0.370634
50
-27.226753
51
18.451872
0
ARC
8
1
10
30.473688
20
6.914806
40
0.273806
50
-85.121166
51
-34.861081
0
ARC
8
1
10
30.384018
20
7.376623
40
0.743264
50
-110.720824
51
-81.258637
0
ARC
8
1
10
30.285952
20
7.052477
40
0.406038
50
-125.982313
51
-113.963060
0
ARC
8
1
10
30.353186
20
6.589770
40
0.333924
50
156.314606
51
-123.612367
0
ARC
8
1
10
30.282673
20
6.512584
40
0.231163
50
-119.644725
51
-60.487968
0
ARC
8
1
10
30.638489
20
5.829010
40
0.539675
50
104.476604
51
116.635481
0
ARC
8
1
10
30.531109
20
6.152033
40
0.201408
50
18.850528
51
97.856424
0
ARC
8
1
10
30.370089
20
6.084719
40
0.375723
50
-30.263366
51
20.631722
0
ARC
8
1
10
30.275883
20
6.083001
40
0.458844
50
-61.487060
51
-24.137903
0
ARC
8
1
10
30.411327
20
5.881627
40
0.218441
50
-106.817960
51
-67.501770
0
ARC
8
1
10
30.507500
20
6.235841
40
0.585424
50
-135.361541
51
-105.797441
0
ARC
8
1
10
30.924513
20
6.722091
40
1.224952
50
-138.295328
51
-132.882355
0
ARC
8
1
10
27.796356
20
6.521655
40
2.297340
50
-28.070836
51
-15.514908
0
ARC
8
1
10
29.413555
20
5.662328
40
0.466019
50
-49.381599
51
-28.409301
0
LINE
8
1
10
29.716942
20
5.308591
11
30.306141
21
5.308591
0
ARC
8
1
10
30.342442
20
6.444325
40
1.136314
50
-91.830678
51
-60.067047
0
LINE
8
1
10
30.909447
20
5.459584
11
30.929516
21
5.472248
0
LINE
8
1
10
30.929516
20
5.472248
11
30.948921
21
5.485335
0
LINE
8
1
10
30.948921
20
5.485335
11
30.967663
21
5.498847
0
ARC
8
1
10
30.629091
20
5.983390
40
0.591111
50
-55.056293
51
31.758441
0
ARC
8
1
10
30.686041
20
5.970764
40
0.550841
50
35.996855
51
78.918038
0
LINE
8
1
10
30.791920
20
6.511333
11
30.769157
21
6.516525
0
LINE
8
1
10
30.769157
20
6.516525
11
30.745697
21
6.521278
0
LINE
8
1
10
30.745697
20
6.521278
11
30.766602
21
6.529524
0
ARC
8
1
10
30.567869
20
7.095693
40
0.600035
50
-70.658282
51
-32.627360
0
ARC
8
1
10
30.484434
20
7.084748
40
0.666610
50
-27.963390
51
1.624685
0
ARC
8
1
10
30.795246
20
7.127110
40
0.356303
50
-3.775463
51
28.465155
0
ARC
8
1
10
31.119478
20
7.301493
40
0.011911
50
54.919094
51
-157.485993
0
LINE
8
1
10
31.126324
20
7.311240
11
31.279694
21
7.214596
0
LINE
8
1
10
31.279694
20
7.214596
11
31.864941
21
7.416824
0
ARC
8
1
10
31.863468
20
7.403645
40
0.013262
50
-44.418742
51
83.625226
0
ARC
8
1
10
33.031857
20
5.616107
40
2.122565
50
123.092889
51
141.552946
0
ARC
8
1
10
31.554214
20
6.628600
40
0.358542
50
84.336156
51
121.009805
0
ARC
8
1
10
31.561380
20
6.852597
40
0.135760
50
12.898728
51
78.002926
0
LINE
8
1
10
31.693714
20
6.882903
11
31.698788
21
6.866061
0
LINE
8
1
10
31.698788
20
6.866061
11
31.703453
21
6.848149
0
LINE
8
1
10
31.703453
20
6.848149
11
31.707714
21
6.829168
0
LINE
8
1
10
31.707714
20
6.829168
11
31.711571
21
6.809117
0
LINE
8
1
10
31.711571
20
6.809117
11
31.715019
21
6.787995
0
LINE
8
1
10
31.715019
20
6.787995
11
31.718063
21
6.765804
0
LINE
8
1
10
31.718063
20
6.765804
11
31.720703
21
6.742543
0
ARC
8
1
10
29.096731
20
6.565064
40
2.629967
50
-21.327089
51
3.869447
0
ARC
8
1
10
30.680414
20
5.932512
40
0.924777
50
-42.690912
51
-20.505354
0
LINE
8
1
10
31.360146
20
5.305473
11
32.395142
21
5.305473
0
ARC
8
1
10
33.040104
20
5.877561
40
0.862126
50
-163.961246
51
-138.426662
0
ARC
8
1
10
35.106785
20
6.544894
40
3.033553
50
-177.660726
51
-162.632225
0
ARC
8
1
10
36.741421
20
6.693153
40
4.673587
50
172.885519
51
-176.662571
0
ARC
8
1
10
32.759563
20
7.184204
40
0.661596
50
148.801425
51
172.375307
0
LINE
8
1
10
32.193649
20
7.526915
11
32.201248
21
7.533661
0
LINE
8
1
10
32.201248
20
7.533661
11
32.210297
21
7.538285
0
LINE
8
1
10
32.210297
20
7.538285
11
33.084488
21
7.842351
0
LINE
8
1
10
33.084488
20
7.842351
11
33.492527
21
7.578125
0
ARC
8
1
10
33.473782
20
7.568011
40
0.021300
50
-107.682122
51
28.348188
0
ARC
8
1
10
33.403255
20
6.664268
40
0.885768
50
85.852898
51
90.056257
0
LINE
8
1
10
33.402386
20
7.550036
11
32.585613
21
7.550036
0
ARC
8
1
10
31.450190
20
6.666989
40
1.438387
50
17.950896
51
37.873075
0
ARC
8
1
10
32.200325
20
6.929712
40
0.644069
50
0.550353
51
16.283497
0
ARC
8
1
10
33.537716
20
6.518646
40
0.809220
50
125.682756
51
148.960835
0
ARC
8
1
10
33.258472
20
6.837441
40
0.389543
50
84.949321
51
119.660983
0
ARC
8
1
10
33.288471
20
6.961089
40
0.264418
50
18.543524
51
89.069214
0
ARC
8
1
10
33.187557
20
6.927878
40
0.370656
50
-27.226121
51
18.449749
0
ARC
8
1
10
33.292488
20
6.914789
40
0.273788
50
-85.122062
51
-34.859356
0
ARC
8
1
10
33.202812
20
7.376623
40
0.743264
50
-110.720824
51
-81.258637
0
ARC
8
1
10
33.104572
20
7.052176
40
0.405692
50
-125.987443
51
-113.957918
0
ARC
8
1
10
33.171982
20
6.589770
40
0.333925
50
156.314737
51
-123.612639
0
ARC
8
1
10
33.101467
20
6.512569
40
0.231150
50
-119.646478
51
-60.487044
0
LINE
8
1
10
33.215336
20
6.311413
11
33.224689
21
6.315526
0
ARC
8
1
10
33.358711
20
6.089580
40
0.262705
50
88.449822
51
120.674549
0
ARC
8
1
10
33.347969
20
6.147233
40
0.205730
50
14.802314
51
85.022814
0
ARC
8
1
10
33.184856
20
6.085540
40
0.379616
50
-30.064199
51
17.516003
0
ARC
8
1
10
33.094677
20
6.083001
40
0.458844
50
-61.487060
51
-24.137903
0
ARC
8
1
10
33.230122
20
5.881633
40
0.218448
50
-106.817453
51
-67.502440
0
ARC
8
1
10
33.326279
20
6.235826
40
0.585406
50
-135.361783
51
-105.796398
0
ARC
8
1
10
33.744625
20
6.723344
40
1.226770
50
-138.292602
51
-132.887779
0
ARC
8
1
10
30.615150
20
6.521655
40
2.297340
50
-28.070836
51
-15.514908
0
ARC
8
1
10
32.232349
20
5.662328
40
0.466019
50
-49.381599
51
-28.409301
0
LINE
8
1
10
32.535736
20
5.308591
11
33.124935
21
5.308591
0
ARC
8
1
10
33.161236
20
6.444325
40
1.136314
50
-91.830678
51
-60.067047
0
LINE
8
1
10
33.728241
20
5.459584
11
33.748314
21
5.472248
0
LINE
8
1
10
33.748314
20
5.472248
11
33.767715
21
5.485335
0
LINE
8
1
10
33.767715
20
5.485335
11
33.786461
21
5.498847
0
ARC
8
1
10
33.447884
20
5.983390
40
0.591114
50
-55.055839
51
31.758343
0
ARC
8
1
10
33.504837
20
5.970766
40
0.550839
50
35.996811
51
78.918195
0
LINE
8
1
10
33.610714
20
6.511333
11
33.587952
21
6.516525
0
LINE
8
1
10
33.587952
20
6.516525
11
33.564491
21
6.521278
0
LINE
8
1
10
33.564491
20
6.521278
11
33.585396
21
6.529524
0
ARC
8
1
10
33.386665
20
7.095691
40
0.600033
50
-70.658409
51
-32.627343
0
ARC
8
1
10
33.303226
20
7.084748
40
0.666611
50
-27.963313
51
1.624680
0
ARC
8
1
10
33.567863
20
7.123932
40
0.402218
50
-2.890695
51
19.572036
0
ARC
8
1
10
33.963749
20
7.258413
40
0.016909
50
65.471122
51
179.120977
0
LINE
8
1
10
33.970768
20
7.273794
11
34.124207
21
7.175362
0
LINE
8
1
10
34.124207
20
7.175362
11
35.271870
21
6.442802
0
LINE
8
1
10
35.271870
20
6.442802
11
34.956017
21
7.181342
0
LINE
8
1
10
34.956017
20
7.181342
11
34.361897
21
7.545456
0
LINE
8
1
10
34.361897
20
7.545456
11
34.360329
21
7.549266
0
LINE
8
1
10
34.360329
20
7.549266
11
34.359982
21
7.551302
0
ENDSEC
0
EOF
