  0
SECTION
  2
HEADER
  9
$ACADVER
  1
AC1009
  9
$DWGCODEPAGE
  3
ansi_1252
  9
$INSBASE
 10
0.0
 20
0.0
 30
0.0
  9
$EXTMIN
 10
2.856123670655391
 20
3.496194900669734
 30
0.0
  9
$EXTMAX
 10
9.146825396825397
 20
8.49818536600506
 30
0.0
  9
$LIMMIN
 10
0.0
 20
0.0
  9
$LIMMAX
 10
12.0
 20
9.0
  9
$ORTHOMODE
 70
     0
  9
$REGENMODE
 70
     1
  9
$FILLMODE
 70
     1
  9
$QTEXTMODE
 70
     0
  9
$MIRRTEXT
 70
     1
  9
$DRAGMODE
 70
     2
  9
$LTSCALE
 40
1.0
  9
$OSMODE
 70
    37
  9
$ATTMODE
 70
     1
  9
$TEXTSIZE
 40
0.2
  9
$TRACEWID
 40
0.05
  9
$TEXTSTYLE
  7
STANDARD
  9
$CLAYER
  8
0
  9
$CELTYPE
  6
BYLAYER
  9
$CECOLOR
 62
   256
  9
$DIMSCALE
 40
1.0
  9
$DIMASZ
 40
0.18
  9
$DIMEXO
 40
0.0625
  9
$DIMDLI
 40
0.38
  9
$DIMRND
 40
0.0
  9
$DIMDLE
 40
0.0
  9
$DIMEXE
 40
0.18
  9
$DIMTP
 40
0.0
  9
$DIMTM
 40
0.0
  9
$DIMTXT
 40
0.18
  9
$DIMCEN
 40
0.09
  9
$DIMTSZ
 40
0.0
  9
$DIMTOL
 70
     0
  9
$DIMLIM
 70
     0
  9
$DIMTIH
 70
     1
  9
$DIMTOH
 70
     1
  9
$DIMSE1
 70
     0
  9
$DIMSE2
 70
     0
  9
$DIMTAD
 70
     0
  9
$DIMZIN
 70
     0
  9
$DIMBLK
  1

  9
$DIMASO
 70
     1
  9
$DIMSHO
 70
     1
  9
$DIMPOST
  1

  9
$DIMAPOST
  1

  9
$DIMALT
 70
     0
  9
$DIMALTD
 70
     2
  9
$DIMALTF
 40
25.4
  9
$DIMLFAC
 40
1.0
  9
$DIMTOFL
 70
     0
  9
$DIMTVP
 40
0.0
  9
$DIMTIX
 70
     0
  9
$DIMSOXD
 70
     0
  9
$DIMSAH
 70
     0
  9
$DIMBLK1
  1

  9
$DIMBLK2
  1

  9
$DIMSTYLE
  2
STANDARD
  9
$DIMCLRD
 70
     0
  9
$DIMCLRE
 70
     0
  9
$DIMCLRT
 70
     0
  9
$DIMTFAC
 40
1.0
  9
$DIMGAP
 40
0.09
  9
$LUNITS
 70
     2
  9
$LUPREC
 70
     4
  9
$SKETCHINC
 40
0.1
  9
$FILLETRAD
 40
0.5
  9
$AUNITS
 70
     0
  9
$AUPREC
 70
     0
  9
$MENU
  1
.
  9
$ELEVATION
 40
0.0
  9
$PELEVATION
 40
0.0
  9
$THICKNESS
 40
0.0
  9
$LIMCHECK
 70
     0
  9
$CHAMFERA
 40
0.0
  9
$CHAMFERB
 40
0.0
  9
$SKPOLY
 70
     0
  9
$TDCREATE
 40
2454910.5
  9
$TDUPDATE
 40
2457643.835353356
  9
$TDINDWG
 40
0.0000000116
  9
$TDUSRTIMER
 40
0.0000000116
  9
$USRTIMER
 70
     1
  9
$ANGBASE
 50
0.0
  9
$ANGDIR
 70
     0
  9
$PDMODE
 70
     0
  9
$PDSIZE
 40
0.0
  9
$PLINEWID
 40
0.0
  9
$COORDS
 70
     1
  9
$SPLFRAME
 70
     0
  9
$SPLINETYPE
 70
     6
  9
$SPLINESEGS
 70
     8
  9
$ATTDIA
 70
     0
  9
$ATTREQ
 70
     1
  9
$HANDLING
 70
     1
  9
$HANDSEED
  5
187
  9
$SURFTAB1
 70
     6
  9
$SURFTAB2
 70
     6
  9
$SURFTYPE
 70
     6
  9
$SURFU
 70
     6
  9
$SURFV
 70
     6
  9
$UCSNAME
  2

  9
$UCSORG
 10
0.0
 20
0.0
 30
0.0
  9
$UCSXDIR
 10
1.0
 20
0.0
 30
0.0
  9
$UCSYDIR
 10
0.0
 20
1.0
 30
0.0
  9
$PUCSNAME
  2

  9
$PUCSORG
 10
0.0
 20
0.0
 30
0.0
  9
$PUCSXDIR
 10
1.0
 20
0.0
 30
0.0
  9
$PUCSYDIR
 10
0.0
 20
1.0
 30
0.0
  9
$USERI1
 70
     0
  9
$USERI2
 70
     0
  9
$USERI3
 70
     0
  9
$USERI4
 70
     0
  9
$USERI5
 70
     0
  9
$USERR1
 40
0.0
  9
$USERR2
 40
0.0
  9
$USERR3
 40
0.0
  9
$USERR4
 40
0.0
  9
$USERR5
 40
0.0
  9
$WORLDVIEW
 70
     1
  9
$SHADEDGE
 70
     3
  9
$SHADEDIF
 70
    70
  9
$TILEMODE
 70
     1
  9
$MAXACTVP
 70
    64
  9
$PLIMCHECK
 70
     0
  9
$PEXTMIN
 10
1.000000000000000E+20
 20
1.000000000000000E+20
 30
1.000000000000000E+20
  9
$PEXTMAX
 10
-1.000000000000000E+20
 20
-1.000000000000000E+20
 30
-1.000000000000000E+20
  9
$PLIMMIN
 10
0.0
 20
0.0
  9
$PLIMMAX
 10
12.0
 20
9.0
  9
$UNITMODE
 70
     0
  9
$VISRETAIN
 70
     1
  9
$PLINEGEN
 70
     0
  9
$PSLTSCALE
 70
     1
  0
ENDSEC
  0
SECTION
  2
TABLES
  0
TABLE
  2
VPORT
 70
     1
  0
VPORT
  2
*ACTIVE
 70
     0
 10
0.0
 20
0.0
 11
1.0
 21
1.0
 12
10.42990654205607
 22
4.5
 13
0.0
 23
0.0
 14
0.5
 24
0.5
 15
0.5
 25
0.5
 16
0.0
 26
0.0
 36
1.0
 17
0.0
 27
0.0
 37
0.0
 40
9.0
 41
1.972972972850329
 42
50.0
 43
0.0
 44
0.0
 50
0.0
 51
0.0
 71
     0
 72
   100
 73
     1
 74
     3
 75
     0
 76
     0
 77
     0
 78
     0
  0
ENDTAB
  0
TABLE
  2
LTYPE
 70
     2
  0
LTYPE
  2
CONTINUOUS
 70
     0
  3
Solid line
 72
    65
 73
     0
 40
0.0
  0
LTYPE
  2
CONTINUOUS2
 70
     0
  3
Solid Line
 72
    65
 73
     0
 40
0.0
  0
ENDTAB
  0
TABLE
  2
LAYER
 70
     2
  0
LAYER
  2
0
 70
     0
 62
     7
  6
CONTINUOUS
  0
LAYER
  2
LAYER_1
 70
     0
 62
    18
  6
CONTINUOUS
  0
ENDTAB
  0
TABLE
  2
STYLE
 70
     1
  0
STYLE
  2
STANDARD
 70
     0
 40
0.0
 41
1.0
 50
0.0
 71
     0
 42
0.2
  3
txt
  4

  0
ENDTAB
  0
TABLE
  2
VIEW
 70
     0
  0
ENDTAB
  0
TABLE
  2
UCS
 70
     0
  0
ENDTAB
  0
TABLE
  2
APPID
 70
     1
  0
APPID
  2
ACAD
 70
     0
  0
ENDTAB
  0
TABLE
  2
DIMSTYLE
 70
     1
  0
DIMSTYLE
  2
STANDARD
 70
     0
  3

  4

  5

  6

  7

 40
1.0
 41
0.18
 42
0.0625
 43
0.38
 44
0.18
 45
0.0
 46
0.0
 47
0.0
 48
0.0
140
0.18
141
0.09
142
0.0
143
25.4
144
1.0
145
0.0
146
1.0
147
0.09
 71
     0
 72
     0
 73
     1
 74
     1
 75
     0
 76
     0
 77
     0
 78
     0
170
     0
171
     2
172
     0
173
     0
174
     0
175
     0
176
     0
177
     0
178
     0
  0
ENDTAB
  0
ENDSEC
  0
SECTION
  2
BLOCKS
  0
BLOCK
  8
0
  2
$MODEL_SPACE
 70
     0
 10
0.0
 20
0.0
 30
0.0
  3
$MODEL_SPACE
  1

  0
ENDBLK
  5
21
  8
0
  0
BLOCK
 67
     1
  8
0
  2
$PAPER_SPACE
 70
     0
 10
0.0
 20
0.0
 30
0.0
  3
$PAPER_SPACE
  1

  0
ENDBLK
  5
1D
 67
     1
  8
0
  0
ENDSEC
  0
SECTION
  2
ENTITIES
  0
POLYLINE
  5
70
  8
LAYER_1
 66
     1
 10
0.0
 20
0.0
 30
0.0
 70
     1
  0
VERTEX
  5
84
  8
LAYER_1
 10
4.609126984126984
 20
3.500843984803927
 30
0.0
 42
0.1195543516763062
  0
VERTEX
  5
85
  8
LAYER_1
 10
5.088233653071992
 20
3.569559098963721
 30
0.0
 42
0.5794809048742952
  0
VERTEX
  5
86
  8
LAYER_1
 10
5.171581516750669
 20
4.16111483799005
 30
0.0
 42
0.1349700306313653
  0
VERTEX
  5
87
  8
LAYER_1
 10
4.910019801574138
 20
4.269262021883431
 30
0.0
 42
0.0909186621325079
  0
VERTEX
  5
88
  8
LAYER_1
 10
4.494642476658113
 20
4.245311661547065
 30
0.0
 42
0.1128623625228497
  0
VERTEX
  5
89
  8
LAYER_1
 10
4.308923402693068
 20
4.152438141713535
 30
0.0
 42
0.2511859853582926
  0
VERTEX
  5
8A
  8
LAYER_1
 10
4.177262048827536
 20
3.832251545409953
 30
0.0
 42
0.2064077228239314
  0
VERTEX
  5
8B
  8
LAYER_1
 10
4.292742710791982
 20
3.625392841116911
 30
0.0
 42
0.1406692514781794
  0
SEQEND
  5
17A
  8
LAYER_1
  0
POLYLINE
  5
71
  8
LAYER_1
 66
     1
 10
0.0
 20
0.0
 30
0.0
 70
     1
  0
VERTEX
  5
8C
  8
LAYER_1
 10
6.71031746031746
 20
3.527581555032377
 30
0.0
  0
VERTEX
  5
8D
  8
LAYER_1
 10
7.454365079365081
 20
3.530186476914834
 30
0.0
 42
0.0978798971258296
  0
VERTEX
  5
8E
  8
LAYER_1
 10
7.703212188913995
 20
3.594629694341906
 30
0.0
 42
0.2468514087336648
  0
VERTEX
  5
8F
  8
LAYER_1
 10
7.84137011659177
 20
3.780876882363324
 30
0.0
 42
0.1275332781850312
  0
VERTEX
  5
90
  8
LAYER_1
 10
7.817628381321074
 20
4.018719492767753
 30
0.0
 42
0.2225076325180816
  0
VERTEX
  5
91
  8
LAYER_1
 10
7.625395947601875
 20
4.208783400327553
 30
0.0
 42
0.0221386694810578
  0
VERTEX
  5
92
  8
LAYER_1
 10
7.5620504984739
 20
4.228210183917689
 30
0.0
 42
0.0358954064000001
  0
VERTEX
  5
93
  8
LAYER_1
 10
7.521825396825397
 20
4.235594101424595
 30
0.0
  0
VERTEX
  5
94
  8
LAYER_1
 10
6.71031746031746
 20
4.238411630703411
 30
0.0
  0
VERTEX
  5
95
  8
LAYER_1
 10
6.71031746031746
 20
4.095238095238095
 30
0.0
  0
VERTEX
  5
96
  8
LAYER_1
 10
6.84920634920635
 20
4.095238095238095
 30
0.0
  0
VERTEX
  5
97
  8
LAYER_1
 10
6.84920634920635
 20
3.67063492063492
 30
0.0
  0
VERTEX
  5
98
  8
LAYER_1
 10
6.71031746031746
 20
3.67063492063492
 30
0.0
  0
SEQEND
  5
17B
  8
LAYER_1
  0
POLYLINE
  5
72
  8
LAYER_1
 66
     1
 10
0.0
 20
0.0
 30
0.0
 70
     1
  0
VERTEX
  5
99
  8
LAYER_1
 10
2.869047619047619
 20
3.527777777777778
 30
0.0
  0
VERTEX
  5
9A
  8
LAYER_1
 10
3.436507936507937
 20
3.527777777777778
 30
0.0
  0
VERTEX
  5
9B
  8
LAYER_1
 10
3.436507936507937
 20
3.674603174603174
 30
0.0
  0
VERTEX
  5
9C
  8
LAYER_1
 10
3.297619047619048
 20
3.674603174603174
 30
0.0
  0
VERTEX
  5
9D
  8
LAYER_1
 10
3.297619047619048
 20
3.809523809523809
 30
0.0
  0
VERTEX
  5
9E
  8
LAYER_1
 10
3.718253968253968
 20
3.809523809523809
 30
0.0
  0
VERTEX
  5
9F
  8
LAYER_1
 10
3.718253968253968
 20
3.67063492063492
 30
0.0
  0
VERTEX
  5
A0
  8
LAYER_1
 10
3.57936507936508
 20
3.67063492063492
 30
0.0
  0
VERTEX
  5
A1
  8
LAYER_1
 10
3.57936507936508
 20
3.527777777777778
 30
0.0
  0
VERTEX
  5
A2
  8
LAYER_1
 10
4.142857142857143
 20
3.527777777777778
 30
0.0
  0
VERTEX
  5
A3
  8
LAYER_1
 10
4.142857142857143
 20
3.674603174603174
 30
0.0
  0
VERTEX
  5
A4
  8
LAYER_1
 10
4.007936507936508
 20
3.674603174603174
 30
0.0
  0
VERTEX
  5
A5
  8
LAYER_1
 10
4.007936507936508
 20
4.099206349206349
 30
0.0
  0
VERTEX
  5
A6
  8
LAYER_1
 10
4.142857142857143
 20
4.099206349206349
 30
0.0
  0
VERTEX
  5
A7
  8
LAYER_1
 10
4.142857142857143
 20
4.238095238095238
 30
0.0
  0
VERTEX
  5
A8
  8
LAYER_1
 10
3.57936507936508
 20
4.238095238095238
 30
0.0
  0
VERTEX
  5
A9
  8
LAYER_1
 10
3.57936507936508
 20
4.095238095238095
 30
0.0
  0
VERTEX
  5
AA
  8
LAYER_1
 10
3.718253968253968
 20
4.095238095238095
 30
0.0
  0
VERTEX
  5
AB
  8
LAYER_1
 10
3.718253968253968
 20
3.956349206349207
 30
0.0
  0
VERTEX
  5
AC
  8
LAYER_1
 10
3.297619047619048
 20
3.956349206349207
 30
0.0
  0
VERTEX
  5
AD
  8
LAYER_1
 10
3.297619047619048
 20
4.099206349206349
 30
0.0
  0
VERTEX
  5
AE
  8
LAYER_1
 10
3.436507936507937
 20
4.099206349206349
 30
0.0
  0
VERTEX
  5
AF
  8
LAYER_1
 10
3.436507936507937
 20
4.238095238095238
 30
0.0
  0
VERTEX
  5
B0
  8
LAYER_1
 10
2.869047619047619
 20
4.238095238095238
 30
0.0
  0
VERTEX
  5
B1
  8
LAYER_1
 10
2.869047619047619
 20
4.095238095238095
 30
0.0
  0
VERTEX
  5
B2
  8
LAYER_1
 10
3.0
 20
4.095238095238095
 30
0.0
  0
VERTEX
  5
B3
  8
LAYER_1
 10
3.0
 20
3.67063492063492
 30
0.0
  0
VERTEX
  5
B4
  8
LAYER_1
 10
2.869047619047619
 20
3.67063492063492
 30
0.0
  0
SEQEND
  5
17C
  8
LAYER_1
  0
POLYLINE
  5
73
  8
LAYER_1
 66
     1
 10
0.0
 20
0.0
 30
0.0
 70
     1
  0
VERTEX
  5
B5
  8
LAYER_1
 10
4.720994793124339
 20
3.649627020672616
 30
0.0
 42
-0.5566228546445959
  0
VERTEX
  5
B6
  8
LAYER_1
 10
4.53699199556447
 20
4.003684142295058
 30
0.0
 42
-0.5545472392541246
  0
VERTEX
  5
B7
  8
LAYER_1
 10
4.936702662205965
 20
4.012317296228251
 30
0.0
 42
-0.2865482305700784
  0
VERTEX
  5
B8
  8
LAYER_1
 10
4.942054897039248
 20
3.76451152677385
 30
0.0
 42
-0.2848327351949606
  0
SEQEND
  5
17D
  8
LAYER_1
  0
POLYLINE
  5
74
  8
LAYER_1
 66
     1
 10
0.0
 20
0.0
 30
0.0
 70
     1
  0
VERTEX
  5
B9
  8
LAYER_1
 10
7.134920634920636
 20
3.674603174603174
 30
0.0
  0
VERTEX
  5
BA
  8
LAYER_1
 10
7.134920634920636
 20
4.099512796382196
 30
0.0
  0
VERTEX
  5
BB
  8
LAYER_1
 10
7.299603174603176
 20
4.096491635548055
 30
0.0
 42
-0.0979146841274214
  0
VERTEX
  5
BC
  8
LAYER_1
 10
7.461434546766079
 20
4.055120334895528
 30
0.0
 42
-0.2329278831901649
  0
VERTEX
  5
BD
  8
LAYER_1
 10
7.557856431979237
 20
3.932815281259754
 30
0.0
 42
-0.1856969566295803
  0
VERTEX
  5
BE
  8
LAYER_1
 10
7.530299514431132
 20
3.759070520661509
 30
0.0
 42
-0.2589188699368532
  0
VERTEX
  5
BF
  8
LAYER_1
 10
7.418650793650794
 20
3.692208783148909
 30
0.0
 42
0.0543126377808911
  0
VERTEX
  5
C0
  8
LAYER_1
 10
7.362086424764519
 20
3.684157548119706
 30
0.0
 42
0.2059078862482484
  0
VERTEX
  5
C1
  8
LAYER_1
 10
7.349674738050595
 20
3.674603174603174
 30
0.0
  0
SEQEND
  5
17E
  8
LAYER_1
  0
POLYLINE
  5
75
  8
LAYER_1
 66
     1
 10
0.0
 20
0.0
 30
0.0
 70
     1
  0
VERTEX
  5
C2
  8
LAYER_1
 10
8.32936507936508
 20
3.905728371238985
 30
0.0
 42
-0.3123951937636467
  0
VERTEX
  5
C3
  8
LAYER_1
 10
8.32584566629256
 20
3.90816506553785
 30
0.0
 42
-0.2188141607589166
  0
VERTEX
  5
C4
  8
LAYER_1
 10
8.326260729599216
 20
3.913984828694272
 30
0.0
 42
-0.003868075827973
  0
VERTEX
  5
C5
  8
LAYER_1
 10
8.374976617712136
 20
4.001123633182587
 30
0.0
 42
0.0038680758280083
  0
VERTEX
  5
C6
  8
LAYER_1
 10
8.423692505825056
 20
4.088262437670903
 30
0.0
 42
-0.2683581593726917
  0
VERTEX
  5
C7
  8
LAYER_1
 10
8.42816448103559
 20
4.090969874917883
 30
0.0
 42
-0.256129628724016
  0
VERTEX
  5
C8
  8
LAYER_1
 10
8.43299010275583
 20
4.088448746648046
 30
0.0
 42
0.0175041110282078
  0
VERTEX
  5
C9
  8
LAYER_1
 10
8.53148949188338
 20
3.951313529362889
 30
0.0
 42
-0.0912385669105934
  0
VERTEX
  5
CA
  8
LAYER_1
 10
8.550870183601946
 20
3.913712083833176
 30
0.0
 42
-0.1737963026168136
  0
VERTEX
  5
CB
  8
LAYER_1
 10
8.550576702353366
 20
3.907872815622557
 30
0.0
 42
-0.3028898417762677
  0
VERTEX
  5
CC
  8
LAYER_1
 10
8.54761904761905
 20
3.905900151848044
 30
0.0
 42
0.0003935336981802
  0
VERTEX
  5
CD
  8
LAYER_1
 10
8.438492063492065
 20
3.905814261543514
 30
0.0
 42
-0.0003935336982778
  0
SEQEND
  5
17F
  8
LAYER_1
  0
POLYLINE
  5
76
  8
LAYER_1
 66
     1
 10
0.0
 20
0.0
 30
0.0
 70
     1
  0
VERTEX
  5
CE
  8
LAYER_1
 10
5.345238095238096
 20
3.527777777777778
 30
0.0
  0
VERTEX
  5
CF
  8
LAYER_1
 10
5.793650793650794
 20
3.527777777777778
 30
0.0
  0
VERTEX
  5
D0
  8
LAYER_1
 10
5.793650793650794
 20
3.674603174603174
 30
0.0
  0
VERTEX
  5
D1
  8
LAYER_1
 10
5.654681029420747
 20
3.674603174603174
 30
0.0
  0
VERTEX
  5
D2
  8
LAYER_1
 10
5.656746031746032
 20
4.031972581222862
 30
0.0
  0
VERTEX
  5
D3
  8
LAYER_1
 10
6.046020135885029
 20
3.529761904761905
 30
0.0
  0
VERTEX
  5
D4
  8
LAYER_1
 10
6.480158730158731
 20
3.527710007856906
 30
0.0
  0
VERTEX
  5
D5
  8
LAYER_1
 10
6.480158730158731
 20
4.099206349206349
 30
0.0
  0
VERTEX
  5
D6
  8
LAYER_1
 10
6.623015873015873
 20
4.099206349206349
 30
0.0
  0
VERTEX
  5
D7
  8
LAYER_1
 10
6.623015873015873
 20
4.238095238095238
 30
0.0
  0
VERTEX
  5
D8
  8
LAYER_1
 10
6.162698412698413
 20
4.238095238095238
 30
0.0
  0
VERTEX
  5
D9
  8
LAYER_1
 10
6.162698412698413
 20
4.095238095238095
 30
0.0
  0
VERTEX
  5
DA
  8
LAYER_1
 10
6.305555555555556
 20
4.095238095238095
 30
0.0
  0
VERTEX
  5
DB
  8
LAYER_1
 10
6.305555555555556
 20
3.725313909692296
 30
0.0
  0
VERTEX
  5
DC
  8
LAYER_1
 10
5.906774155609305
 20
4.238095238095238
 30
0.0
  0
VERTEX
  5
DD
  8
LAYER_1
 10
5.345238095238096
 20
4.238095238095238
 30
0.0
  0
VERTEX
  5
DE
  8
LAYER_1
 10
5.345238095238096
 20
4.095238095238095
 30
0.0
  0
VERTEX
  5
DF
  8
LAYER_1
 10
5.480158730158731
 20
4.095238095238095
 30
0.0
  0
VERTEX
  5
E0
  8
LAYER_1
 10
5.480158730158731
 20
3.67063492063492
 30
0.0
  0
VERTEX
  5
E1
  8
LAYER_1
 10
5.345238095238096
 20
3.67063492063492
 30
0.0
  0
SEQEND
  5
180
  8
LAYER_1
  0
POLYLINE
  5
77
  8
LAYER_1
 66
     1
 10
0.0
 20
0.0
 30
0.0
 70
     1
  0
VERTEX
  5
E2
  8
LAYER_1
 10
7.857142857142858
 20
3.527777777777778
 30
0.0
  0
VERTEX
  5
E3
  8
LAYER_1
 10
8.32936507936508
 20
3.527777777777778
 30
0.0
  0
VERTEX
  5
E4
  8
LAYER_1
 10
8.32936507936508
 20
3.674603174603174
 30
0.0
  0
VERTEX
  5
E5
  8
LAYER_1
 10
8.197563580919175
 20
3.674603174603174
 30
0.0
 42
-0.2129697124001829
  0
VERTEX
  5
E6
  8
LAYER_1
 10
8.197091964420338
 20
3.677298755400201
 30
0.0
 42
-0.0653282866475805
  0
VERTEX
  5
E7
  8
LAYER_1
 10
8.200246492617698
 20
3.68526749781004
 30
0.0
 42
0.0568581474621873
  0
VERTEX
  5
E8
  8
LAYER_1
 10
8.216066997335028
 20
3.723341682303388
 30
0.0
 42
-0.1914034823105781
  0
VERTEX
  5
E9
  8
LAYER_1
 10
8.241295438189928
 20
3.755952380952381
 30
0.0
  0
VERTEX
  5
EA
  8
LAYER_1
 10
8.613095238095239
 20
3.757750784519432
 30
0.0
 42
-0.1241602571952139
  0
VERTEX
  5
EB
  8
LAYER_1
 10
8.638735958731012
 20
3.734941618824321
 30
0.0
 42
-0.0583395745226579
  0
VERTEX
  5
EC
  8
LAYER_1
 10
8.672074502558406
 20
3.67093106429968
 30
0.0
 42
-0.5252018147339146
  0
VERTEX
  5
ED
  8
LAYER_1
 10
8.671296296296298
 20
3.669802270614467
 30
0.0
 42
-0.0423658400918767
  0
VERTEX
  5
EE
  8
LAYER_1
 10
8.562204030489772
 20
3.679062462379905
 30
0.0
 42
0.2433287607279733
  0
VERTEX
  5
EF
  8
LAYER_1
 10
8.535714285714286
 20
3.67063492063492
 30
0.0
  0
VERTEX
  5
F0
  8
LAYER_1
 10
8.535714285714286
 20
3.527777777777778
 30
0.0
  0
VERTEX
  5
F1
  8
LAYER_1
 10
9.146825396825397
 20
3.527777777777778
 30
0.0
  0
VERTEX
  5
F2
  8
LAYER_1
 10
9.146825396825397
 20
3.674603174603174
 30
0.0
  0
VERTEX
  5
F3
  8
LAYER_1
 10
9.005952380952381
 20
3.674678921937296
 30
0.0
  0
VERTEX
  5
F4
  8
LAYER_1
 10
8.666028598796073
 20
4.238095238095238
 30
0.0
  0
VERTEX
  5
F5
  8
LAYER_1
 10
8.07936507936508
 20
4.238095238095238
 30
0.0
  0
VERTEX
  5
F6
  8
LAYER_1
 10
8.07936507936508
 20
4.095405872439346
 30
0.0
  0
VERTEX
  5
F7
  8
LAYER_1
 10
8.233222589946045
 20
4.092862045017042
 30
0.0
  0
VERTEX
  5
F8
  8
LAYER_1
 10
8.060806519113127
 20
3.776948666161189
 30
0.0
 42
0.2309437246971875
  0
VERTEX
  5
F9
  8
LAYER_1
 10
8.062681229436311
 20
3.773337992311883
 30
0.0
 42
-0.958669367553371
  0
VERTEX
  5
FA
  8
LAYER_1
 10
8.06039828487732
 20
3.769970549872512
 30
0.0
 42
-0.0628567547817964
  0
VERTEX
  5
FB
  8
LAYER_1
 10
8.059220123036788
 20
3.770921575543314
 30
0.0
 42
0.2729291779933155
  0
VERTEX
  5
FC
  8
LAYER_1
 10
8.057761598015642
 20
3.771328048066005
 30
0.0
  0
VERTEX
  5
FD
  8
LAYER_1
 10
8.001984126984128
 20
3.670855124015029
 30
0.0
  0
VERTEX
  5
FE
  8
LAYER_1
 10
7.857142857142858
 20
3.67063492063492
 30
0.0
  0
SEQEND
  5
181
  8
LAYER_1
  0
POLYLINE
  5
78
  8
LAYER_1
 66
     1
 10
0.0
 20
0.0
 30
0.0
 70
     1
  0
VERTEX
  5
FF
  8
LAYER_1
 10
4.509920634920635
 20
4.396876837176868
 30
0.0
  0
VERTEX
  5
100
  8
LAYER_1
 10
6.751598521912152
 20
4.398809523809524
 30
0.0
  0
VERTEX
  5
101
  8
LAYER_1
 10
5.920954319881467
 20
4.888888888888889
 30
0.0
 42
0.0634955196599635
  0
VERTEX
  5
102
  8
LAYER_1
 10
5.917993161205852
 20
4.889344214656405
 30
0.0
 42
0.0168499920964064
  0
VERTEX
  5
103
  8
LAYER_1
 10
5.906746031746033
 20
4.889254837720119
 30
0.0
  0
VERTEX
  5
104
  8
LAYER_1
 10
4.196428571428571
 20
4.702024602606858
 30
0.0
  0
SEQEND
  5
182
  8
LAYER_1
  0
POLYLINE
  5
79
  8
LAYER_1
 66
     1
 10
0.0
 20
0.0
 30
0.0
 70
     1
  0
VERTEX
  5
105
  8
LAYER_1
 10
4.125
 20
4.761719093230749
 30
0.0
 42
0.0635831452601861
  0
VERTEX
  5
106
  8
LAYER_1
 10
4.26389403780982
 20
4.775835416219289
 30
0.0
 42
-0.0244677385073139
  0
VERTEX
  5
107
  8
LAYER_1
 10
4.518932095330367
 20
4.822074800505969
 30
0.0
 42
-0.0151619633550806
  0
VERTEX
  5
108
  8
LAYER_1
 10
5.145401462230931
 20
4.884999912193618
 30
0.0
 42
0.0155217628134119
  0
VERTEX
  5
109
  8
LAYER_1
 10
5.771825396825397
 20
4.948375708148266
 30
0.0
 42
-0.1039852262639727
  0
VERTEX
  5
10A
  8
LAYER_1
 10
5.785239961018339
 20
4.947362909617989
 30
0.0
 42
0.3611504347020613
  0
VERTEX
  5
10B
  8
LAYER_1
 10
5.797574721821402
 20
4.95273226426084
 30
0.0
 42
0.2904248444475583
  0
VERTEX
  5
10C
  8
LAYER_1
 10
5.795535640297473
 20
4.973427048631344
 30
0.0
 42
-0.4649817884031026
  0
VERTEX
  5
10D
  8
LAYER_1
 10
5.812470175086437
 20
5.054075505331598
 30
0.0
 42
-0.0769817044213405
  0
VERTEX
  5
10E
  8
LAYER_1
 10
5.838567946220752
 20
5.063297791878455
 30
0.0
 42
-0.0187398522370144
  0
VERTEX
  5
10F
  8
LAYER_1
 10
5.950396825396826
 20
5.08003236397505
 30
0.0
 42
0.0076798969077366
  0
VERTEX
  5
110
  8
LAYER_1
 10
6.730605232415582
 20
5.179200210941241
 30
0.0
 42
0.1953276972432061
  0
VERTEX
  5
111
  8
LAYER_1
 10
7.363922538684962
 20
5.548218935385171
 30
0.0
 42
0.0193361940815376
  0
VERTEX
  5
112
  8
LAYER_1
 10
7.41306979492915
 20
5.617244119460163
 30
0.0
 42
0.0158158424515516
  0
VERTEX
  5
113
  8
LAYER_1
 10
7.467073973648041
 20
5.705634248268654
 30
0.0
 42
0.3295863625310497
  0
VERTEX
  5
114
  8
LAYER_1
 10
7.466605040425458
 20
5.709525620665863
 30
0.0
 42
0.2529157179445449
  0
VERTEX
  5
115
  8
LAYER_1
 10
7.461949897106605
 20
5.711061457773084
 30
0.0
 42
-0.0001724617625977
  0
VERTEX
  5
116
  8
LAYER_1
 10
5.636563982505725
 20
5.385645152967776
 30
0.0
 42
0.0001761825302709
  0
VERTEX
  5
117
  8
LAYER_1
 10
3.811180489552202
 20
5.060215264498376
 30
0.0
 42
0.1796663234327973
  0
VERTEX
  5
118
  8
LAYER_1
 10
3.804634828707051
 20
5.056359636721292
 30
0.0
 42
0.3942632484194932
  0
VERTEX
  5
119
  8
LAYER_1
 10
3.804898753880459
 20
5.052493713585663
 30
0.0
 42
-0.0131085218478219
  0
VERTEX
  5
11A
  8
LAYER_1
 10
4.046418636307314
 20
4.814642265544416
 30
0.0
 42
0.0817995147477394
  0
VERTEX
  5
11B
  8
LAYER_1
 10
4.11448254647355
 20
4.763888888888889
 30
0.0
 42
0.0686174164530689
  0
VERTEX
  5
11C
  8
LAYER_1
 10
4.118493750028702
 20
4.76246785670971
 30
0.0
 42
0.0444644155790363
  0
SEQEND
  5
183
  8
LAYER_1
  0
POLYLINE
  5
7A
  8
LAYER_1
 66
     1
 10
0.0
 20
0.0
 30
0.0
 70
     1
  0
VERTEX
  5
11D
  8
LAYER_1
 10
3.7374860238741
 20
5.121379675751778
 30
0.0
 42
0.3270648039422629
  0
VERTEX
  5
11E
  8
LAYER_1
 10
3.739808584384004
 20
5.119314010662429
 30
0.0
 42
0.0718622432032908
  0
VERTEX
  5
11F
  8
LAYER_1
 10
3.752638807999519
 20
5.119939999811669
 30
0.0
 42
-0.0139438202249205
  0
VERTEX
  5
120
  8
LAYER_1
 10
4.871091289388076
 20
5.30542335874863
 30
0.0
 42
0.0270591525128497
  0
VERTEX
  5
121
  8
LAYER_1
 10
5.149411767764528
 20
5.359112363064383
 30
0.0
 42
0.5883310868035335
  0
VERTEX
  5
122
  8
LAYER_1
 10
5.154141944865616
 20
5.376713616025147
 30
0.0
 42
-0.3873038871022849
  0
VERTEX
  5
123
  8
LAYER_1
 10
5.149670497128033
 20
5.44871221907747
 30
0.0
 42
-0.158572839838461
  0
VERTEX
  5
124
  8
LAYER_1
 10
5.171239211357139
 20
5.462820773021797
 30
0.0
 42
-0.0283174097365511
  0
VERTEX
  5
125
  8
LAYER_1
 10
5.309097537518932
 20
5.49193345471064
 30
0.0
 42
0.0187641401033264
  0
VERTEX
  5
126
  8
LAYER_1
 10
5.525126419712411
 20
5.533261629011626
 30
0.0
 42
-0.0065263489717401
  0
VERTEX
  5
127
  8
LAYER_1
 10
5.740079365079366
 20
5.579863423085326
 30
0.0
 42
0.0036609923260572
  0
VERTEX
  5
128
  8
LAYER_1
 10
6.512410809230704
 20
5.742676644423373
 30
0.0
 42
-0.0131694880659864
  0
VERTEX
  5
129
  8
LAYER_1
 10
7.287698412698413
 20
5.89077504609152
 30
0.0
 42
0.1465703901185229
  0
VERTEX
  5
12A
  8
LAYER_1
 10
7.792587547429584
 20
6.136835406120906
 30
0.0
 42
0.0901564689996795
  0
VERTEX
  5
12B
  8
LAYER_1
 10
8.078073676138308
 20
6.515177357160736
 30
0.0
 42
0.3124247880543632
  0
VERTEX
  5
12C
  8
LAYER_1
 10
8.077274577769154
 20
6.520887575664339
 30
0.0
 42
0.2751157348226873
  0
VERTEX
  5
12D
  8
LAYER_1
 10
8.071124004523092
 20
6.522717474993474
 30
0.0
 42
0.0002577936702059
  0
VERTEX
  5
12E
  8
LAYER_1
 10
6.824191015906987
 20
6.206598734318173
 30
0.0
 42
-0.0000635138771826
  0
VERTEX
  5
12F
  8
LAYER_1
 10
5.577380952380953
 20
5.889995509768199
 30
0.0
  0
VERTEX
  5
130
  8
LAYER_1
 10
3.477134040258942
 20
5.35583651882878
 30
0.0
 42
0.4780901046940857
  0
VERTEX
  5
131
  8
LAYER_1
 10
3.487567603486175
 20
5.342703173373236
 30
0.0
 42
-0.1766442066219635
  0
VERTEX
  5
132
  8
LAYER_1
 10
3.503282134450049
 20
5.336838233385755
 30
0.0
  0
VERTEX
  5
133
  8
LAYER_1
 10
3.741708366009885
 20
5.123558873326046
 30
0.0
 42
-0.5752245450324397
  0
VERTEX
  5
134
  8
LAYER_1
 10
3.739501788915602
 20
5.122654130143558
 30
0.0
 42
0.697938342169247
  0
SEQEND
  5
184
  8
LAYER_1
  0
POLYLINE
  5
7B
  8
LAYER_1
 66
     1
 10
0.0
 20
0.0
 30
0.0
 70
     1
  0
VERTEX
  5
135
  8
LAYER_1
 10
3.952324930158798
 20
4.396757016771792
 30
0.0
  0
VERTEX
  5
136
  8
LAYER_1
 10
4.380825860450338
 20
4.398809523809524
 30
0.0
  0
VERTEX
  5
137
  8
LAYER_1
 10
3.240079365079365
 20
5.435892835688398
 30
0.0
 42
-0.1611335750690304
  0
VERTEX
  5
138
  8
LAYER_1
 10
3.157263315105678
 20
5.610287541253351
 30
0.0
 42
-0.2225572772293663
  0
VERTEX
  5
139
  8
LAYER_1
 10
3.201447600519784
 20
5.746277507748051
 30
0.0
 42
-0.0715433199499071
  0
VERTEX
  5
13A
  8
LAYER_1
 10
3.291856845070802
 20
5.818766160311727
 30
0.0
 42
-0.0389953785077848
  0
VERTEX
  5
13B
  8
LAYER_1
 10
3.482142857142857
 20
5.911868867985014
 30
0.0
 42
-0.0118974394132951
  0
VERTEX
  5
13C
  8
LAYER_1
 10
3.934431036526912
 20
6.078654269249946
 30
0.0
 42
0.0023281458268059
  0
VERTEX
  5
13D
  8
LAYER_1
 10
5.755952380952381
 20
6.711030051298485
 30
0.0
 42
-0.0017122624303864
  0
VERTEX
  5
13E
  8
LAYER_1
 10
7.078299800350914
 20
7.171934024444843
 30
0.0
 42
0.0058102016403142
  0
VERTEX
  5
13F
  8
LAYER_1
 10
8.396825396825397
 20
7.643660027007416
 30
0.0
 42
0.0869858261807676
  0
VERTEX
  5
140
  8
LAYER_1
 10
8.665492431089216
 20
7.800619762947318
 30
0.0
 42
0.1127155432472448
  0
VERTEX
  5
141
  8
LAYER_1
 10
8.81040913397364
 20
7.993623383582429
 30
0.0
 42
0.0165314078918892
  0
VERTEX
  5
142
  8
LAYER_1
 10
8.85908345985445
 20
8.1132248868719
 30
0.0
 42
0.0053021828438193
  0
VERTEX
  5
143
  8
LAYER_1
 10
8.994387726731418
 20
8.49230033226926
 30
0.0
 42
0.2903101445328252
  0
VERTEX
  5
144
  8
LAYER_1
 10
8.993279505944944
 20
8.496973295375536
 30
0.0
 42
0.2984266329235333
  0
VERTEX
  5
145
  8
LAYER_1
 10
8.988673931159902
 20
8.49787256145281
 30
0.0
  0
VERTEX
  5
146
  8
LAYER_1
 10
8.663456143910967
 20
8.363095238095237
 30
0.0
 42
-0.4073916905253737
  0
VERTEX
  5
147
  8
LAYER_1
 10
8.658486337581309
 20
8.359761322029463
 30
0.0
 42
0.1436590719739074
  0
VERTEX
  5
148
  8
LAYER_1
 10
8.652533284145381
 20
8.359148846661025
 30
0.0
  0
VERTEX
  5
149
  8
LAYER_1
 10
7.966204097135824
 20
8.077110664987007
 30
0.0
 42
0.1964040619030041
  0
VERTEX
  5
14A
  8
LAYER_1
 10
7.966488974404594
 20
8.073226104133997
 30
0.0
 42
-0.7544791809819513
  0
VERTEX
  5
14B
  8
LAYER_1
 10
7.963610410508241
 20
8.070602206656273
 30
0.0
 42
-0.1707374496047625
  0
VERTEX
  5
14C
  8
LAYER_1
 10
7.962218163394468
 20
8.072327371668688
 30
0.0
 42
0.2949013969711001
  0
VERTEX
  5
14D
  8
LAYER_1
 10
7.960462041701835
 20
8.073680362040621
 30
0.0
  0
VERTEX
  5
14E
  8
LAYER_1
 10
7.180555555555557
 20
7.757068752621294
 30
0.0
 42
-0.0319069418762476
  0
VERTEX
  5
14F
  8
LAYER_1
 10
6.839568102830933
 20
7.610936279212803
 30
0.0
 42
0.0157784107592017
  0
VERTEX
  5
150
  8
LAYER_1
 10
6.49404761904762
 20
7.475870598944805
 30
0.0
 42
-0.0073034902657647
  0
VERTEX
  5
151
  8
LAYER_1
 10
6.291792024968396
 20
7.392829640220672
 30
0.0
 42
0.0057882350253556
  0
VERTEX
  5
152
  8
LAYER_1
 10
6.089285714285715
 20
7.310401973167355
 30
0.0
 42
-0.011401779203514
  0
VERTEX
  5
153
  8
LAYER_1
 10
6.031307785000909
 20
7.287558070862174
 30
0.0
 42
0.0087461294522355
  0
VERTEX
  5
154
  8
LAYER_1
 10
5.97320935546967
 20
7.265022395973536
 30
0.0
  0
VERTEX
  5
155
  8
LAYER_1
 10
4.156298775505158
 20
6.521583612960923
 30
0.0
 42
0.2336353556842956
  0
VERTEX
  5
156
  8
LAYER_1
 10
4.156842754097172
 20
6.517780284233321
 30
0.0
 42
-0.810925987710174
  0
VERTEX
  5
157
  8
LAYER_1
 10
4.154191344362093
 20
6.514999771953992
 30
0.0
 42
-0.1719200106368396
  0
VERTEX
  5
158
  8
LAYER_1
 10
4.152839064282613
 20
6.516683313239742
 30
0.0
 42
0.296126496063451
  0
VERTEX
  5
159
  8
LAYER_1
 10
4.151131571747094
 20
6.518005221676559
 30
0.0
  0
VERTEX
  5
15A
  8
LAYER_1
 10
3.390873015873016
 20
6.209575419354804
 30
0.0
 42
-0.0110421955875842
  0
VERTEX
  5
15B
  8
LAYER_1
 10
3.286544972138678
 20
6.167838836190136
 30
0.0
 42
0.0372379969466031
  0
VERTEX
  5
15C
  8
LAYER_1
 10
3.184544146764412
 20
6.120699524499535
 30
0.0
 42
0.1151835069340042
  0
VERTEX
  5
15D
  8
LAYER_1
 10
2.924064681489649
 20
5.884426791446121
 30
0.0
 42
0.243554341191713
  0
VERTEX
  5
15E
  8
LAYER_1
 10
2.879445970891008
 20
5.534787024847082
 30
0.0
 42
0.076467718994529
  0
VERTEX
  5
15F
  8
LAYER_1
 10
2.947194982829878
 20
5.411803345634158
 30
0.0
 42
0.0344757690728019
  0
VERTEX
  5
160
  8
LAYER_1
 10
3.152777777777778
 20
5.179793598871357
 30
0.0
  0
SEQEND
  5
185
  8
LAYER_1
  0
POLYLINE
  5
7C
  8
LAYER_1
 66
     1
 10
0.0
 20
0.0
 30
0.0
 70
     1
  0
VERTEX
  5
161
  8
LAYER_1
 10
3.410348295175263
 20
5.424603174603174
 30
0.0
 42
0.0992642603153545
  0
VERTEX
  5
162
  8
LAYER_1
 10
3.413071971105621
 20
5.424057066229412
 30
0.0
 42
0.0317152055346269
  0
VERTEX
  5
163
  8
LAYER_1
 10
3.421672878133181
 20
5.424603174603174
 30
0.0
  0
VERTEX
  5
164
  8
LAYER_1
 10
4.605660581935116
 20
5.72944950246594
 30
0.0
 42
0.6095820345756633
  0
VERTEX
  5
165
  8
LAYER_1
 10
4.609397284383852
 20
5.745981818124008
 30
0.0
 42
-0.3728756003314496
  0
VERTEX
  5
166
  8
LAYER_1
 10
4.598833426442776
 20
5.811958297073026
 30
0.0
 42
-0.1622815738285455
  0
VERTEX
  5
167
  8
LAYER_1
 10
4.614046180965997
 20
5.82461637456755
 30
0.0
 42
-0.0269990662763775
  0
VERTEX
  5
168
  8
LAYER_1
 10
4.72420634920635
 20
5.86090834657353
 30
0.0
 42
-0.0010846460844043
  0
VERTEX
  5
169
  8
LAYER_1
 10
6.381099606531885
 20
6.30539614322142
 30
0.0
 42
-0.0011917812053589
  0
VERTEX
  5
16A
  8
LAYER_1
 10
7.890873015873018
 20
6.703057196252609
 30
0.0
 42
0.0645135837325788
  0
VERTEX
  5
16B
  8
LAYER_1
 10
8.09226195312213
 20
6.784431696340516
 30
0.0
 42
0.0730231738675569
  0
VERTEX
  5
16C
  8
LAYER_1
 10
8.24419480010847
 20
6.902017550871637
 30
0.0
 42
0.050553467241733
  0
VERTEX
  5
16D
  8
LAYER_1
 10
8.397587813518573
 20
7.097496219118141
 30
0.0
 42
0.0309183372227392
  0
VERTEX
  5
16E
  8
LAYER_1
 10
8.592948556604428
 20
7.452980776828612
 30
0.0
 42
0.3087288534946008
  0
VERTEX
  5
16F
  8
LAYER_1
 10
8.592210075157016
 20
7.457609753256648
 30
0.0
 42
0.2903903895013082
  0
VERTEX
  5
170
  8
LAYER_1
 10
8.587428038581688
 20
7.458823011503309
 30
0.0
 42
0.0004265348974444
  0
VERTEX
  5
171
  8
LAYER_1
 10
7.177725585120996
 20
6.995384486862672
 30
0.0
 42
-0.0006057165607748
  0
VERTEX
  5
172
  8
LAYER_1
 10
5.767857142857143
 20
6.532451177494377
 30
0.0
 42
-0.0029701803623047
  0
VERTEX
  5
173
  8
LAYER_1
 10
4.31577245069175
 20
6.067133957806528
 30
0.0
 42
0.0104328598317053
  0
VERTEX
  5
174
  8
LAYER_1
 10
3.537698412698413
 20
5.804934512336999
 30
0.0
 42
0.0273637313062858
  0
VERTEX
  5
175
  8
LAYER_1
 10
3.350834199560363
 20
5.725794661680522
 30
0.0
 42
0.4641858330442187
  0
VERTEX
  5
176
  8
LAYER_1
 10
3.302549562067036
 20
5.533730158730158
 30
0.0
 42
0.0391182117492974
  0
VERTEX
  5
177
  8
LAYER_1
 10
3.37391006903723
 20
5.449193206864581
 30
0.0
 42
0.0992642603151465
  0
SEQEND
  5
186
  8
LAYER_1
  0
ENDSEC
  0
EOF
