<?xml version="1.0" encoding="UTF-8" standalone="no"?>
<!-- Created with Inkscape (http://www.inkscape.org/) -->

<svg
   xmlns:dc="http://purl.org/dc/elements/1.1/"
   xmlns:cc="http://creativecommons.org/ns#"
   xmlns:rdf="http://www.w3.org/1999/02/22-rdf-syntax-ns#"
   xmlns:svg="http://www.w3.org/2000/svg"
   xmlns="http://www.w3.org/2000/svg"
   xmlns:sodipodi="http://sodipodi.sourceforge.net/DTD/sodipodi-0.dtd"
   xmlns:inkscape="http://www.inkscape.org/namespaces/inkscape"
   width="744.09448819"
   height="1052.3622047"
   id="svg4407"
   version="1.1"
   inkscape:version="0.48.1 r9760"
   sodipodi:docname="clacker.svg.2012_11_05_21_17_41.2.svg">
  <sodipodi:namedview
     id="base"
     pagecolor="#ffffff"
     bordercolor="#666666"
     borderopacity="1.0"
     inkscape:pageopacity="0.0"
     inkscape:pageshadow="2"
     inkscape:zoom="0.7"
     inkscape:cx="232.23266"
     inkscape:cy="566.39743"
     inkscape:document-units="mm"
     inkscape:current-layer="layer1"
     showgrid="true"
     inkscape:window-width="1280"
     inkscape:window-height="724"
     inkscape:window-x="0"
     inkscape:window-y="0"
     inkscape:window-maximized="1">
    <inkscape:grid
       spacingy="1mm"
       spacingx="1mm"
       snapvisiblegridlinesonly="true"
       enabled="true"
       visible="true"
       dotted="true"
       empspacing="10"
       units="mm"
       id="grid4415"
       type="xygrid" />
  </sodipodi:namedview>
  <defs
     id="defs4409" />
  <metadata
     id="metadata4412">
    <rdf:RDF>
      <cc:Work
         rdf:about="">
        <dc:format>image/svg+xml</dc:format>
        <dc:type
           rdf:resource="http://purl.org/dc/dcmitype/StillImage" />
        <dc:title></dc:title>
      </cc:Work>
    </rdf:RDF>
  </metadata>
  <g
     id="layer1"
     inkscape:groupmode="layer"
     inkscape:label="Layer 1">
    <path
       style="fill:#000000;fill-opacity:0.51111115;stroke:none"
       d="m 171.15625,443.4375 c -39.13829,0 -70.84375,31.73671 -70.84375,70.875 0,39.13829 31.70546,70.84375 70.84375,70.84375 26.23026,0 49.12184,-14.25585 61.375,-35.4375 l 363.84375,0 0,-70.84375 -363.84375,0 c -12.25466,-21.17586 -35.14907,-35.4375 -61.375,-35.4375 z m 0,53.15625 c 9.78457,0 17.71875,7.90293 17.71875,17.6875 0,9.78457 -7.93418,17.71875 -17.71875,17.71875 -9.78457,0 -17.71875,-7.93418 -17.71875,-17.71875 0,-9.78457 7.93418,-17.6875 17.71875,-17.6875 z m 70.875,12.375 35.4375,0 0,10.65625 -35.4375,0 0,-10.65625 z m 70.875,0 35.4375,0 0,10.65625 -35.4375,0 0,-10.65625 z m 70.84375,0 35.4375,0 0,10.65625 -35.4375,0 0,-10.65625 z m 70.875,0 35.4375,0 0,10.65625 -35.4375,0 0,-10.65625 z m 70.875,0 35.4375,0 0,10.65625 -35.4375,0 0,-10.65625 z"
       id="rect4417"
       inkscape:connector-curvature="0" />
    <path
       style="fill:#000000;fill-opacity:0.51111115;stroke:none"
       d="M 246.03125 579.96875 L 246.03125 590.59375 L 244.5 590.59375 L 244.5 626.03125 L 564.9375 626.03125 L 564.9375 661.46875 L 223.25 661.46875 L 223.25 696.90625 L 564.9375 696.90625 L 564.9375 732.34375 L 244.5 732.34375 L 244.5 767.75 L 246.03125 767.75 L 246.03125 778.40625 L 281.46875 778.40625 L 281.46875 767.75 L 316.90625 767.75 L 316.90625 778.40625 L 352.34375 778.40625 L 352.34375 767.75 L 387.75 767.75 L 387.75 778.40625 L 423.1875 778.40625 L 423.1875 767.75 L 458.625 767.75 L 458.625 778.40625 L 494.0625 778.40625 L 494.0625 767.75 L 529.5 767.75 L 529.5 778.40625 L 564.9375 778.40625 L 564.9375 767.75 L 600.375 767.75 L 600.375 590.59375 L 564.9375 590.59375 L 564.9375 579.96875 L 529.5 579.96875 L 529.5 590.59375 L 494.0625 590.59375 L 494.0625 579.96875 L 458.625 579.96875 L 458.625 590.59375 L 423.1875 590.59375 L 423.1875 579.96875 L 387.75 579.96875 L 387.75 590.59375 L 352.34375 590.59375 L 352.34375 579.96875 L 316.90625 579.96875 L 316.90625 590.59375 L 281.46875 590.59375 L 281.46875 579.96875 L 246.03125 579.96875 z "
       id="rect4929" />
    <path
       style="fill:#000000;fill-opacity:0.42028988;stroke:none"
       d="m 194.04035,250.98644 -4.15625,6.59375 -1.6875,6.625 -3.96875,0.78125 -4.125,-5.46875 -6.34375,-4.5 -1.59375,0.65625 -1.28125,7.6875 0.96875,6.75 -3.375,2.25 -5.90625,-3.46875 -7.59375,-1.75 -1.21875,1.21875 1.75,7.59375 3.5,5.90625 -2.25,3.34375 -6.78125,-0.9375 -7.6875,1.28125 -0.65625,1.59375 4.53125,6.34375 5.46875,4.125 -0.8125,3.96875 -6.625,1.6875 -6.59375,4.125 0,1.75 6.59375,4.125 6.625,1.6875 0.8125,3.96875 -5.46875,4.125 -4.53125,6.34375 0.65625,1.59375 7.6875,1.28125 6.78125,-0.9375 2.25,3.34375 -3.5,5.90625 -1.75,7.59375 1.21875,1.21875 7.59375,-1.75 5.90625,-3.5 3.375,2.25 -0.96875,6.78125 1.28125,7.6875 1.59375,0.65625 6.34375,-4.5 4.125,-5.5 3.96875,0.8125 1.6875,6.625 4.15625,6.59375 1.71875,0 4.125,-6.59375 1.71875,-6.625 3.96875,-0.8125 4.09375,5.5 6.34375,4.5 1.59375,-0.65625 1.28125,-7.6875 -0.9375,-6.78125 3.34375,-2.25 5.90625,3.5 7.59375,1.75 1.21875,-1.21875 -1.75,-7.59375 -3.46875,-5.90625 2.25,-3.34375 6.78125,0.9375 7.65625,-1.28125 0.65625,-1.59375 -4.5,-6.34375 -5.46875,-4.125 0.78125,-3.96875 6.625,-1.6875 6.59375,-4.125 0,-1.75 -6.59375,-4.125 -6.625,-1.6875 -0.78125,-3.96875 5.46875,-4.125 4.5,-6.34375 -0.65625,-1.59375 -7.65625,-1.28125 -6.78125,0.9375 -2.25,-3.34375 3.46875,-5.90625 1.75,-7.59375 -1.21875,-1.21875 -7.59375,1.75 -5.90625,3.46875 -3.34375,-2.25 0.9375,-6.75 -1.28125,-7.6875 -1.59375,-0.65625 -6.34375,4.5 -4.09375,5.46875 -3.96875,-0.78125 -1.71875,-6.625 -4.125,-6.59375 -1.71875,0 z m 0.84375,39.5625 c 9.78457,0 17.71875,7.93418 17.71875,17.71875 0,9.78458 -7.93418,17.71875 -17.71875,17.71875 -9.78457,0 -17.71875,-7.93417 -17.71875,-17.71875 0,-9.78457 7.93418,-17.71875 17.71875,-17.71875 z"
       id="path3115"
       inkscape:connector-curvature="0" />
    <path
       inkscape:connector-curvature="0"
       style="fill:#000000;fill-opacity:0.51111115;stroke:none"
       d="m 525.43799,333.71873 c 39.13829,0 70.84375,31.73671 70.84375,70.875 0,39.13829 -31.70546,70.84375 -70.84375,70.84375 -26.23026,0 -49.12184,-14.25585 -61.375,-35.4375 l -363.84375,0 0,-70.84375 363.84375,0 c 12.25466,-21.17586 35.14907,-35.4375 61.375,-35.4375 z m 0,53.15625 c -9.78457,0 -17.71875,7.90293 -17.71875,17.6875 0,9.78457 7.93418,17.71875 17.71875,17.71875 9.78457,0 17.71875,-7.93418 17.71875,-17.71875 0,-9.78457 -7.93418,-17.6875 -17.71875,-17.6875 z m -70.87501,12.375 -35.4375,0 0,10.65625 35.4375,0 0,-10.65625 z m -70.875,0 -35.4375,0 0,10.65625 35.4375,0 0,-10.65625 z m -70.84375,0 -35.4375,0 0,10.65625 35.4375,0 0,-10.65625 z m -70.875,0 -35.4375,0 0,10.65625 35.4375,0 0,-10.65625 z m -70.875,0 -35.4375,0 0,10.65625 35.4375,0 0,-10.65625 z"
       id="rect4417-1" />
    <path
       style="fill:#000000;fill-opacity:0.42028988;stroke:none"
       d="m 312.33957,250.98644 -4.15625,6.59375 -1.6875,6.625 -3.96875,0.78125 -4.125,-5.46875 -6.34375,-4.5 -1.59375,0.65625 -1.28125,7.6875 0.96875,6.75 -3.375,2.25 -5.90625,-3.46875 -7.59375,-1.75 -1.21875,1.21875 1.75,7.59375 3.5,5.90625 -2.25,3.34375 -6.78125,-0.9375 -7.6875,1.28125 -0.65625,1.59375 4.53125,6.34375 5.46875,4.125 -0.8125,3.96875 -6.625,1.6875 -6.59375,4.125 0,1.75 6.59375,4.125 6.625,1.6875 0.8125,3.96875 -5.46875,4.125 -4.53125,6.34375 0.65625,1.59375 7.6875,1.28125 6.78125,-0.9375 2.25,3.34375 -3.5,5.90625 -1.75,7.59375 1.21875,1.21875 7.59375,-1.75 5.90625,-3.5 3.375,2.25 -0.96875,6.78125 1.28125,7.6875 1.59375,0.65625 6.34375,-4.5 4.125,-5.5 3.96875,0.8125 1.6875,6.625 4.15625,6.59375 1.71875,0 4.125,-6.59375 1.71875,-6.625 3.96875,-0.8125 4.09375,5.5 6.34375,4.5 1.59375,-0.65625 1.28125,-7.6875 -0.9375,-6.78125 3.34375,-2.25 5.90625,3.5 7.59375,1.75 1.21875,-1.21875 -1.75,-7.59375 -3.46875,-5.90625 2.25,-3.34375 6.78125,0.9375 7.65625,-1.28125 0.65625,-1.59375 -4.5,-6.34375 -5.46875,-4.125 0.78125,-3.96875 6.625,-1.6875 6.59375,-4.125 0,-1.75 -6.59375,-4.125 -6.625,-1.6875 -0.78125,-3.96875 5.46875,-4.125 4.5,-6.34375 -0.65625,-1.59375 -7.65625,-1.28125 -6.78125,0.9375 -2.25,-3.34375 3.46875,-5.90625 1.75,-7.59375 -1.21875,-1.21875 -7.59375,1.75 -5.90625,3.46875 -3.34375,-2.25 0.9375,-6.75 -1.28125,-7.6875 -1.59375,-0.65625 -6.34375,4.5 -4.09375,5.46875 -3.96875,-0.78125 -1.71875,-6.625 -4.125,-6.59375 -1.71875,0 z m 0.84375,39.5625 c 9.78457,0 17.71875,7.93418 17.71875,17.71875 0,9.78458 -7.93418,17.71875 -17.71875,17.71875 -9.78457,0 -17.71875,-7.93417 -17.71875,-17.71875 0,-9.78457 7.93418,-17.71875 17.71875,-17.71875 z"
       id="path3115-0"
       inkscape:connector-curvature="0" />
    <path
       style="fill:#000000;fill-opacity:0.42028988;stroke:none"
       d="m 430.3531,251.27212 -4.15625,6.59375 -1.6875,6.625 -3.96875,0.78125 -4.125,-5.46875 -6.34375,-4.5 -1.59375,0.65625 -1.28125,7.6875 0.96875,6.75 -3.375,2.25 -5.90625,-3.46875 -7.59375,-1.75 -1.21875,1.21875 1.75,7.59375 3.5,5.90625 -2.25,3.34375 -6.78125,-0.9375 -7.6875,1.28125 -0.65625,1.59375 4.53125,6.34375 5.46875,4.125 -0.8125,3.96875 -6.625,1.6875 -6.59375,4.125 0,1.75 6.59375,4.125 6.625,1.6875 0.8125,3.96875 -5.46875,4.125 -4.53125,6.34375 0.65625,1.59375 7.6875,1.28125 6.78125,-0.9375 2.25,3.34375 -3.5,5.90625 -1.75,7.59375 1.21875,1.21875 7.59375,-1.75 5.90625,-3.5 3.375,2.25 -0.96875,6.78125 1.28125,7.6875 1.59375,0.65625 6.34375,-4.5 4.125,-5.5 3.96875,0.8125 1.6875,6.625 4.15625,6.59375 1.71875,0 4.125,-6.59375 1.71875,-6.625 3.96875,-0.8125 4.09375,5.5 6.34375,4.5 1.59375,-0.65625 1.28125,-7.6875 -0.9375,-6.78125 3.34375,-2.25 5.90625,3.5 7.59375,1.75 1.21875,-1.21875 -1.75,-7.59375 -3.46875,-5.90625 2.25,-3.34375 6.78125,0.9375 7.65625,-1.28125 0.65625,-1.59375 -4.5,-6.34375 -5.46875,-4.125 0.78125,-3.96875 6.625,-1.6875 6.59375,-4.125 0,-1.75 -6.59375,-4.125 -6.625,-1.6875 -0.78125,-3.96875 5.46875,-4.125 4.5,-6.34375 -0.65625,-1.59375 -7.65625,-1.28125 -6.78125,0.9375 -2.25,-3.34375 3.46875,-5.90625 1.75,-7.59375 -1.21875,-1.21875 -7.59375,1.75 -5.90625,3.46875 -3.34375,-2.25 0.9375,-6.75 -1.28125,-7.6875 -1.59375,-0.65625 -6.34375,4.5 -4.09375,5.46875 -3.96875,-0.78125 -1.71875,-6.625 -4.125,-6.59375 -1.71875,0 z m 0.84375,39.5625 c 9.78457,0 17.71875,7.93418 17.71875,17.71875 0,9.78458 -7.93418,17.71875 -17.71875,17.71875 -9.78457,0 -17.71875,-7.93417 -17.71875,-17.71875 0,-9.78457 7.93418,-17.71875 17.71875,-17.71875 z"
       id="path3115-1"
       inkscape:connector-curvature="0" />
    <path
       style="fill:#000000;fill-opacity:0.42028988;stroke:none"
       d="m 141.73228,609.44215 c -19.56914,0 -35.4375,15.86836 -35.4375,35.4375 0,19.56914 15.86836,35.4375 35.4375,35.4375 19.56914,0 35.4375,-15.86836 35.4375,-35.4375 0,-19.56914 -15.86836,-35.4375 -35.4375,-35.4375 z m 0,17.71875 c 9.78457,0 17.71875,7.93418 17.71875,17.71875 0,9.78457 -7.93418,17.71875 -17.71875,17.71875 -9.78457,0 -17.71875,-7.93418 -17.71875,-17.71875 0,-9.78457 7.93418,-17.71875 17.71875,-17.71875 z"
       id="path3978"
       inkscape:connector-curvature="0" />
    <path
       inkscape:connector-curvature="0"
       style="fill:#000000;fill-opacity:0.42028988;stroke:none"
       d="m 141.73228,680.30829 c -19.56914,0 -35.4375,15.86836 -35.4375,35.4375 0,19.56914 15.86836,35.4375 35.4375,35.4375 19.56914,0 35.4375,-15.86836 35.4375,-35.4375 0,-19.56914 -15.86836,-35.4375 -35.4375,-35.4375 z m 0,17.71875 c 9.78457,0 17.71875,7.93418 17.71875,17.71875 0,9.78457 -7.93418,17.71875 -17.71875,17.71875 -9.78457,0 -17.71875,-7.93418 -17.71875,-17.71875 0,-9.78457 7.93418,-17.71875 17.71875,-17.71875 z"
       id="path3978-3" />
  </g>
</svg>
