  0
SECTION
  2
HEADER
  9
$ACADVER
  1
AC1014
  9
$ACADMAINTVER
 70
     9
  9
$DWGCODEPAGE
  3
ANSI_1252
  9
$INSBASE
 10
0.0
 20
0.0
 30
0.0
  9
$EXTMIN
 10
1.000000000000000E+20
 20
1.000000000000000E+20
 30
1.000000000000000E+20
  9
$EXTMAX
 10
-1.000000000000000E+20
 20
-1.000000000000000E+20
 30
-1.000000000000000E+20
  9
$LIMMIN
 10
0.0
 20
0.0
  9
$LIMMAX
 10
12.0
 20
9.0
  9
$ORTHOMODE
 70
     0
  9
$REGENMODE
 70
     1
  9
$FILLMODE
 70
     1
  9
$QTEXTMODE
 70
     0
  9
$MIRRTEXT
 70
     1
  9
$DRAGMODE
 70
     2
  9
$LTSCALE
 40
1.0
  9
$OSMODE
 70
    37
  9
$ATTMODE
 70
     1
  9
$TEXTSIZE
 40
0.2
  9
$TRACEWID
 40
0.05
  9
$TEXTSTYLE
  7
STANDARD
  9
$CLAYER
  8
0
  9
$CELTYPE
  6
BYLAYER
  9
$CECOLOR
 62
   256
  9
$CELTSCALE
 40
1.0
  9
$DELOBJ
 70
     1
  9
$DISPSILH
 70
     0
  9
$DIMSCALE
 40
1.0
  9
$DIMASZ
 40
0.18
  9
$DIMEXO
 40
0.0625
  9
$DIMDLI
 40
0.38
  9
$DIMRND
 40
0.0
  9
$DIMDLE
 40
0.0
  9
$DIMEXE
 40
0.18
  9
$DIMTP
 40
0.0
  9
$DIMTM
 40
0.0
  9
$DIMTXT
 40
0.18
  9
$DIMCEN
 40
0.09
  9
$DIMTSZ
 40
0.0
  9
$DIMTOL
 70
     0
  9
$DIMLIM
 70
     0
  9
$DIMTIH
 70
     1
  9
$DIMTOH
 70
     1
  9
$DIMSE1
 70
     0
  9
$DIMSE2
 70
     0
  9
$DIMTAD
 70
     0
  9
$DIMZIN
 70
     0
  9
$DIMBLK
  1

  9
$DIMASO
 70
     1
  9
$DIMSHO
 70
     1
  9
$DIMPOST
  1

  9
$DIMAPOST
  1

  9
$DIMALT
 70
     0
  9
$DIMALTD
 70
     2
  9
$DIMALTF
 40
25.4
  9
$DIMLFAC
 40
1.0
  9
$DIMTOFL
 70
     0
  9
$DIMTVP
 40
0.0
  9
$DIMTIX
 70
     0
  9
$DIMSOXD
 70
     0
  9
$DIMSAH
 70
     0
  9
$DIMBLK1
  1

  9
$DIMBLK2
  1

  9
$DIMSTYLE
  2
STANDARD
  9
$DIMCLRD
 70
     0
  9
$DIMCLRE
 70
     0
  9
$DIMCLRT
 70
     0
  9
$DIMTFAC
 40
1.0
  9
$DIMGAP
 40
0.09
  9
$DIMJUST
 70
     0
  9
$DIMSD1
 70
     0
  9
$DIMSD2
 70
     0
  9
$DIMTOLJ
 70
     1
  9
$DIMTZIN
 70
     0
  9
$DIMALTZ
 70
     0
  9
$DIMALTTZ
 70
     0
  9
$DIMFIT
 70
     3
  9
$DIMUPT
 70
     0
  9
$DIMUNIT
 70
     2
  9
$DIMDEC
 70
     4
  9
$DIMTDEC
 70
     4
  9
$DIMALTU
 70
     2
  9
$DIMALTTD
 70
     2
  9
$DIMTXSTY
  7
STANDARD
  9
$DIMAUNIT
 70
     0
  9
$LUNITS
 70
     2
  9
$LUPREC
 70
     4
  9
$SKETCHINC
 40
0.1
  9
$FILLETRAD
 40
0.5
  9
$AUNITS
 70
     0
  9
$AUPREC
 70
     0
  9
$MENU
  1
.
  9
$ELEVATION
 40
0.0
  9
$PELEVATION
 40
0.0
  9
$THICKNESS
 40
0.0
  9
$LIMCHECK
 70
     0
  9
$CHAMFERA
 40
0.5
  9
$CHAMFERB
 40
0.5
  9
$CHAMFERC
 40
1.0
  9
$CHAMFERD
 40
0.0
  9
$SKPOLY
 70
     0
  9
$TDCREATE
 40
2458066.447220197
  9
$TDUPDATE
 40
2458066.447220208
  9
$TDINDWG
 40
0.0000000116
  9
$TDUSRTIMER
 40
0.0000000116
  9
$USRTIMER
 70
     1
  9
$ANGBASE
 50
0.0
  9
$ANGDIR
 70
     0
  9
$PDMODE
 70
     0
  9
$PDSIZE
 40
0.0
  9
$PLINEWID
 40
0.0
  9
$COORDS
 70
     1
  9
$SPLFRAME
 70
     0
  9
$SPLINETYPE
 70
     6
  9
$SPLINESEGS
 70
     8
  9
$ATTDIA
 70
     0
  9
$ATTREQ
 70
     1
  9
$HANDLING
 70
     1
  9
$HANDSEED
  5
1A6
  9
$SURFTAB1
 70
     6
  9
$SURFTAB2
 70
     6
  9
$SURFTYPE
 70
     6
  9
$SURFU
 70
     6
  9
$SURFV
 70
     6
  9
$UCSNAME
  2

  9
$UCSORG
 10
0.0
 20
0.0
 30
0.0
  9
$UCSXDIR
 10
1.0
 20
0.0
 30
0.0
  9
$UCSYDIR
 10
0.0
 20
1.0
 30
0.0
  9
$PUCSNAME
  2

  9
$PUCSORG
 10
0.0
 20
0.0
 30
0.0
  9
$PUCSXDIR
 10
1.0
 20
0.0
 30
0.0
  9
$PUCSYDIR
 10
0.0
 20
1.0
 30
0.0
  9
$USERI1
 70
     0
  9
$USERI2
 70
     0
  9
$USERI3
 70
     0
  9
$USERI4
 70
     0
  9
$USERI5
 70
     0
  9
$USERR1
 40
0.0
  9
$USERR2
 40
0.0
  9
$USERR3
 40
0.0
  9
$USERR4
 40
0.0
  9
$USERR5
 40
0.0
  9
$WORLDVIEW
 70
     1
  9
$SHADEDGE
 70
     3
  9
$SHADEDIF
 70
    70
  9
$TILEMODE
 70
     1
  9
$MAXACTVP
 70
    64
  9
$PINSBASE
 10
0.0
 20
0.0
 30
0.0
  9
$PLIMCHECK
 70
     0
  9
$PEXTMIN
 10
1.000000000000000E+20
 20
1.000000000000000E+20
 30
1.000000000000000E+20
  9
$PEXTMAX
 10
-1.000000000000000E+20
 20
-1.000000000000000E+20
 30
-1.000000000000000E+20
  9
$PLIMMIN
 10
0.0
 20
0.0
  9
$PLIMMAX
 10
12.0
 20
9.0
  9
$UNITMODE
 70
     0
  9
$VISRETAIN
 70
     1
  9
$PLINEGEN
 70
     0
  9
$PSLTSCALE
 70
     1
  9
$TREEDEPTH
 70
  3020
  9
$PICKSTYLE
 70
     1
  9
$CMLSTYLE
  2
STANDARD
  9
$CMLJUST
 70
     0
  9
$CMLSCALE
 40
1.0
  9
$PROXYGRAPHICS
 70
     1
  9
$MEASUREMENT
 70
     0
  0
ENDSEC
  0
SECTION
  2
CLASSES
  0
CLASS
  1
ACDBDICTIONARYWDFLT
  2
AcDbDictionaryWithDefault
  3
ObjectDBX Classes
 90
        0
280
     0
281
     0
  0
CLASS
  1
VISUALSTYLE
  2
AcDbVisualStyle
  3
ObjectDBX Classes
 90
     4095
280
     0
281
     0
  0
CLASS
  1
XRECORD
  2
AcDbXrecord
  3
AutoCAD 2000
 90
        0
280
     0
281
     0
  0
CLASS
  1
LWPOLYLINE
  2
AcDbPolyline
  3
AutoCAD 2000
 90
        0
280
     0
281
     1
  0
CLASS
  1
HATCH
  2
AcDbHatch
  3
AutoCAD 2000
 90
        0
280
     0
281
     1
  0
CLASS
  1
ACDBPLACEHOLDER
  2
AcDbPlaceHolder
  3
ObjectDBX Classes
 90
        0
280
     0
281
     0
  0
CLASS
  1
LAYOUT
  2
AcDbLayout
  3
ObjectDBX Classes
 90
        0
280
     0
281
     0
  0
ENDSEC
  0
SECTION
  2
TABLES
  0
TABLE
  2
VPORT
  5
8
330
0
100
AcDbSymbolTable
 70
     1
  0
VPORT
  5
29
330
8
100
AcDbSymbolTableRecord
100
AcDbViewportTableRecord
  2
*ACTIVE
 70
     0
 10
0.0
 20
0.0
 11
1.0
 21
1.0
 12
0.0
 22
0.0
 13
0.0
 23
0.0
 14
0.5
 24
0.5
 15
0.5
 25
0.5
 16
0.0
 26
0.0
 36
1.0
 17
155.0000135246181
 27
-90.00001896621528
 37
0.0
 40
180.0000379324306
 41
1.722222009562052
 42
50.0
 43
0.0
 44
0.0
 50
0.0
 51
0.0
 71
     0
 72
   100
 73
     1
 74
     3
 75
     0
 76
     0
 77
     0
 78
     0
  0
ENDTAB
  0
TABLE
  2
LTYPE
  5
5
330
0
100
AcDbSymbolTable
 70
     1
  0
LTYPE
  5
14
330
5
100
AcDbSymbolTableRecord
100
AcDbLinetypeTableRecord
  2
BYBLOCK
 70
     0
  3

 72
    65
 73
     0
 40
0.0
  0
LTYPE
  5
15
330
5
100
AcDbSymbolTableRecord
100
AcDbLinetypeTableRecord
  2
BYLAYER
 70
     0
  3

 72
    65
 73
     0
 40
0.0
  0
LTYPE
  5
16
330
5
100
AcDbSymbolTableRecord
100
AcDbLinetypeTableRecord
  2
CONTINUOUS
 70
     0
  3
Solid line
 72
    65
 73
     0
 40
0.0
  0
ENDTAB
  0
TABLE
  2
LAYER
  5
2
330
0
100
AcDbSymbolTable
 70
     2
  0
LAYER
  5
10
330
2
100
AcDbSymbolTableRecord
100
AcDbLayerTableRecord
  2
0
 70
     0
 62
     7
  6
CONTINUOUS
  0
LAYER
  5
3B
330
2
100
AcDbSymbolTableRecord
100
AcDbLayerTableRecord
  2
LAYER_1
 70
     0
 62
     7
  6
CONTINUOUS
  0
ENDTAB
  0
TABLE
  2
STYLE
  5
3
330
0
100
AcDbSymbolTable
 70
     1
  0
STYLE
  5
11
330
3
100
AcDbSymbolTableRecord
100
AcDbTextStyleTableRecord
  2
STANDARD
 70
     0
 40
0.0
 41
1.0
 50
0.0
 71
     0
 42
0.2
  3
txt
  4

  0
ENDTAB
  0
TABLE
  2
VIEW
  5
6
330
0
100
AcDbSymbolTable
 70
     0
  0
ENDTAB
  0
TABLE
  2
UCS
  5
7
330
0
100
AcDbSymbolTable
 70
     0
  0
ENDTAB
  0
TABLE
  2
APPID
  5
9
330
0
100
AcDbSymbolTable
 70
     1
  0
APPID
  5
12
330
9
100
AcDbSymbolTableRecord
100
AcDbRegAppTableRecord
  2
ACAD
 70
     0
  0
ENDTAB
  0
TABLE
  2
DIMSTYLE
  5
A
330
0
100
AcDbSymbolTable
 70
     1
  0
DIMSTYLE
105
27
330
A
100
AcDbSymbolTableRecord
100
AcDbDimStyleTableRecord
  2
STANDARD
 70
     0
  3

  4

  5

  6

  7

 40
1.0
 41
0.18
 42
0.0625
 43
0.38
 44
0.18
 45
0.0
 46
0.0
 47
0.0
 48
0.0
140
0.18
141
0.09
142
0.0
143
25.4
144
1.0
145
0.0
146
1.0
147
0.09
 71
     0
 72
     0
 73
     1
 74
     1
 75
     0
 76
     0
 77
     0
 78
     0
170
     0
171
     2
172
     0
173
     0
174
     0
175
     0
176
     0
177
     0
178
     0
270
     2
271
     4
272
     4
273
     2
274
     2
340
11
275
     0
280
     0
281
     0
282
     0
283
     1
284
     0
285
     0
286
     0
287
     3
288
     0
  0
ENDTAB
  0
TABLE
  2
BLOCK_RECORD
  5
1
330
0
100
AcDbSymbolTable
 70
     1
  0
BLOCK_RECORD
  5
1F
330
1
100
AcDbSymbolTableRecord
100
AcDbBlockTableRecord
  2
*MODEL_SPACE
  0
BLOCK_RECORD
  5
1B
330
1
100
AcDbSymbolTableRecord
100
AcDbBlockTableRecord
  2
*PAPER_SPACE
  0
ENDTAB
  0
ENDSEC
  0
SECTION
  2
BLOCKS
  0
BLOCK
  5
20
330
1F
100
AcDbEntity
  8
0
100
AcDbBlockBegin
  2
*MODEL_SPACE
 70
     0
 71
     0
 10
0.0
 20
0.0
 30
0.0
  3
*MODEL_SPACE
  1

  0
ENDBLK
  5
21
330
1F
100
AcDbEntity
  8
0
100
AcDbBlockEnd
  0
BLOCK
  5
1C
330
1B
100
AcDbEntity
 67
     1
  8
0
100
AcDbBlockBegin
  2
*PAPER_SPACE
 70
     0
 71
     0
 10
0.0
 20
0.0
 30
0.0
  3
*PAPER_SPACE
  1

  0
ENDBLK
  5
1D
330
1B
100
AcDbEntity
 67
     1
  8
0
100
AcDbBlockEnd
  0
ENDSEC
  0
SECTION
  2
ENTITIES
  0
POLYLINE
  5
3C
330
1F
100
AcDbEntity
  8
LAYER_1
100
AcDb2dPolyline
 66
     1
 10
0.0
 20
0.0
 30
0.0
  0
VERTEX
  5
3D
330
3C
100
AcDbEntity
  8
LAYER_1
100
AcDbVertex
100
AcDb2dVertex
 10
86.99934079856267
 20
-16.22002630887902
 30
0.0
  0
VERTEX
  5
3E
330
3C
100
AcDbEntity
  8
LAYER_1
100
AcDbVertex
100
AcDb2dVertex
 10
86.99934079856267
 20
-6.998883733059307
 30
0.0
  0
VERTEX
  5
3F
330
3C
100
AcDbEntity
  8
LAYER_1
100
AcDbVertex
100
AcDb2dVertex
 10
77.7775092036459
 20
-6.998883733059307
 30
0.0
  0
VERTEX
  5
40
330
3C
100
AcDbEntity
  8
LAYER_1
100
AcDbVertex
100
AcDb2dVertex
 10
77.7775092036459
 20
-10.00093993890601
 30
0.0
  0
VERTEX
  5
41
330
3C
100
AcDbEntity
  8
LAYER_1
100
AcDbVertex
100
AcDb2dVertex
 10
68.55602211827767
 20
-10.00093993890601
 30
0.0
  0
VERTEX
  5
42
330
3C
100
AcDbEntity
  8
LAYER_1
100
AcDbVertex
100
AcDb2dVertex
 10
68.55602211827767
 20
-6.998883733059307
 30
0.0
  0
VERTEX
  5
43
330
3C
100
AcDbEntity
  8
LAYER_1
100
AcDbVertex
100
AcDb2dVertex
 10
59.33453503290942
 20
-6.998883733059307
 30
0.0
  0
VERTEX
  5
44
330
3C
100
AcDbEntity
  8
LAYER_1
100
AcDbVertex
100
AcDb2dVertex
 10
59.33453503290942
 20
-10.00093993890601
 30
0.0
  0
VERTEX
  5
45
330
3C
100
AcDbEntity
  8
LAYER_1
100
AcDbVertex
100
AcDb2dVertex
 10
50.10925834250741
 20
-10.00093993890601
 30
0.0
  0
VERTEX
  5
46
330
3C
100
AcDbEntity
  8
LAYER_1
100
AcDbVertex
100
AcDb2dVertex
 10
50.10925834250741
 20
-6.998883733059307
 30
0.0
  0
VERTEX
  5
47
330
3C
100
AcDbEntity
  8
LAYER_1
100
AcDbVertex
100
AcDb2dVertex
 10
40.88777125713917
 20
-6.998883733059307
 30
0.0
  0
VERTEX
  5
48
330
3C
100
AcDbEntity
  8
LAYER_1
100
AcDbVertex
100
AcDb2dVertex
 10
40.88777125713917
 20
-10.00093993890601
 30
0.0
  0
VERTEX
  5
49
330
3C
100
AcDbEntity
  8
LAYER_1
100
AcDbVertex
100
AcDb2dVertex
 10
31.66593966222241
 20
-10.00093993890601
 30
0.0
  0
VERTEX
  5
4A
330
3C
100
AcDbEntity
  8
LAYER_1
100
AcDbVertex
100
AcDb2dVertex
 10
31.66593966222241
 20
-6.998883733059307
 30
0.0
  0
VERTEX
  5
4B
330
3C
100
AcDbEntity
  8
LAYER_1
100
AcDbVertex
100
AcDb2dVertex
 10
22.44445257685416
 20
-6.998883733059307
 30
0.0
  0
VERTEX
  5
4C
330
3C
100
AcDbEntity
  8
LAYER_1
100
AcDbVertex
100
AcDb2dVertex
 10
22.44445257685416
 20
-10.00093993890601
 30
0.0
  0
VERTEX
  5
4D
330
3C
100
AcDbEntity
  8
LAYER_1
100
AcDbVertex
100
AcDb2dVertex
 10
13.22296549148593
 20
-10.00093993890601
 30
0.0
  0
VERTEX
  5
4E
330
3C
100
AcDbEntity
  8
LAYER_1
100
AcDbVertex
100
AcDb2dVertex
 10
13.22296549148593
 20
-6.998883733059307
 30
0.0
  0
VERTEX
  5
4F
330
3C
100
AcDbEntity
  8
LAYER_1
100
AcDbVertex
100
AcDb2dVertex
 10
4.001133896569161
 20
-6.998883733059307
 30
0.0
  0
VERTEX
  5
50
330
3C
100
AcDbEntity
  8
LAYER_1
100
AcDbVertex
100
AcDb2dVertex
 10
4.001133896569161
 20
-16.22002630887902
 30
0.0
  0
VERTEX
  5
51
330
3C
100
AcDbEntity
  8
LAYER_1
100
AcDbVertex
100
AcDb2dVertex
 10
6.99974500693062
 20
-16.22002630887902
 30
0.0
  0
VERTEX
  5
52
330
3C
100
AcDbEntity
  8
LAYER_1
100
AcDbVertex
100
AcDb2dVertex
 10
6.99974500693062
 20
-25.44530299928104
 30
0.0
  0
VERTEX
  5
53
330
3C
100
AcDbEntity
  8
LAYER_1
100
AcDbVertex
100
AcDb2dVertex
 10
4.001133896569161
 20
-25.44530299928104
 30
0.0
  0
VERTEX
  5
54
330
3C
100
AcDbEntity
  8
LAYER_1
100
AcDbVertex
100
AcDb2dVertex
 10
4.001133896569161
 20
-34.6671345941978
 30
0.0
  0
VERTEX
  5
55
330
3C
100
AcDbEntity
  8
LAYER_1
100
AcDbVertex
100
AcDb2dVertex
 10
6.99974500693062
 20
-34.6671345941978
 30
0.0
  0
VERTEX
  5
56
330
3C
100
AcDbEntity
  8
LAYER_1
100
AcDbVertex
100
AcDb2dVertex
 10
6.99974500693062
 20
-43.88862167956604
 30
0.0
  0
VERTEX
  5
57
330
3C
100
AcDbEntity
  8
LAYER_1
100
AcDbVertex
100
AcDb2dVertex
 10
4.001133896569161
 20
-43.88862167956604
 30
0.0
  0
VERTEX
  5
58
330
3C
100
AcDbEntity
  8
LAYER_1
100
AcDbVertex
100
AcDb2dVertex
 10
4.001133896569161
 20
-53.11010876493428
 30
0.0
  0
VERTEX
  5
59
330
3C
100
AcDbEntity
  8
LAYER_1
100
AcDbVertex
100
AcDb2dVertex
 10
6.99974500693062
 20
-53.11010876493428
 30
0.0
  0
VERTEX
  5
5A
330
3C
100
AcDbEntity
  8
LAYER_1
100
AcDbVertex
100
AcDb2dVertex
 10
6.99974500693062
 20
-62.33194035985105
 30
0.0
  0
VERTEX
  5
5B
330
3C
100
AcDbEntity
  8
LAYER_1
100
AcDbVertex
100
AcDb2dVertex
 10
4.001133896569161
 20
-62.33194035985105
 30
0.0
  0
VERTEX
  5
5C
330
3C
100
AcDbEntity
  8
LAYER_1
100
AcDbVertex
100
AcDb2dVertex
 10
4.001133896569161
 20
-71.55342744521928
 30
0.0
  0
VERTEX
  5
5D
330
3C
100
AcDbEntity
  8
LAYER_1
100
AcDbVertex
100
AcDb2dVertex
 10
6.99974500693062
 20
-71.55342744521928
 30
0.0
  0
VERTEX
  5
5E
330
3C
100
AcDbEntity
  8
LAYER_1
100
AcDbVertex
100
AcDb2dVertex
 10
6.99974500693062
 20
-80.77491453058752
 30
0.0
  0
VERTEX
  5
5F
330
3C
100
AcDbEntity
  8
LAYER_1
100
AcDbVertex
100
AcDb2dVertex
 10
4.001133896569161
 20
-80.77491453058752
 30
0.0
  0
VERTEX
  5
60
330
3C
100
AcDbEntity
  8
LAYER_1
100
AcDbVertex
100
AcDb2dVertex
 10
4.001133896569161
 20
-90.00019122098954
 30
0.0
  0
VERTEX
  5
61
330
3C
100
AcDbEntity
  8
LAYER_1
100
AcDbVertex
100
AcDb2dVertex
 10
13.22296549148593
 20
-90.00019122098954
 30
0.0
  0
VERTEX
  5
62
330
3C
100
AcDbEntity
  8
LAYER_1
100
AcDbVertex
100
AcDb2dVertex
 10
13.22296549148593
 20
-86.99813501514284
 30
0.0
  0
VERTEX
  5
63
330
3C
100
AcDbEntity
  8
LAYER_1
100
AcDbVertex
100
AcDb2dVertex
 10
22.44445257685416
 20
-86.99813501514284
 30
0.0
  0
VERTEX
  5
64
330
3C
100
AcDbEntity
  8
LAYER_1
100
AcDbVertex
100
AcDb2dVertex
 10
22.44445257685416
 20
-90.00019122098954
 30
0.0
  0
VERTEX
  5
65
330
3C
100
AcDbEntity
  8
LAYER_1
100
AcDbVertex
100
AcDb2dVertex
 10
31.66593966222241
 20
-90.00019122098954
 30
0.0
  0
VERTEX
  5
66
330
3C
100
AcDbEntity
  8
LAYER_1
100
AcDbVertex
100
AcDb2dVertex
 10
31.66593966222241
 20
-86.99813501514284
 30
0.0
  0
VERTEX
  5
67
330
3C
100
AcDbEntity
  8
LAYER_1
100
AcDbVertex
100
AcDb2dVertex
 10
40.89121635262442
 20
-86.99813501514284
 30
0.0
  0
VERTEX
  5
68
330
3C
100
AcDbEntity
  8
LAYER_1
100
AcDbVertex
100
AcDb2dVertex
 10
40.89121635262442
 20
-90.00019122098954
 30
0.0
  0
VERTEX
  5
69
330
3C
100
AcDbEntity
  8
LAYER_1
100
AcDbVertex
100
AcDb2dVertex
 10
50.11270343799266
 20
-90.00019122098954
 30
0.0
  0
VERTEX
  5
6A
330
3C
100
AcDbEntity
  8
LAYER_1
100
AcDbVertex
100
AcDb2dVertex
 10
50.11270343799266
 20
-86.99813501514284
 30
0.0
  0
VERTEX
  5
6B
330
3C
100
AcDbEntity
  8
LAYER_1
100
AcDbVertex
100
AcDb2dVertex
 10
59.33453503290942
 20
-86.99813501514284
 30
0.0
  0
VERTEX
  5
6C
330
3C
100
AcDbEntity
  8
LAYER_1
100
AcDbVertex
100
AcDb2dVertex
 10
59.33453503290942
 20
-90.00019122098954
 30
0.0
  0
VERTEX
  5
6D
330
3C
100
AcDbEntity
  8
LAYER_1
100
AcDbVertex
100
AcDb2dVertex
 10
68.55602211827767
 20
-90.00019122098954
 30
0.0
  0
VERTEX
  5
6E
330
3C
100
AcDbEntity
  8
LAYER_1
100
AcDbVertex
100
AcDb2dVertex
 10
68.55602211827767
 20
-86.99813501514284
 30
0.0
  0
VERTEX
  5
6F
330
3C
100
AcDbEntity
  8
LAYER_1
100
AcDbVertex
100
AcDb2dVertex
 10
77.7775092036459
 20
-86.99813501514284
 30
0.0
  0
VERTEX
  5
70
330
3C
100
AcDbEntity
  8
LAYER_1
100
AcDbVertex
100
AcDb2dVertex
 10
77.7775092036459
 20
-90.00019122098954
 30
0.0
  0
VERTEX
  5
71
330
3C
100
AcDbEntity
  8
LAYER_1
100
AcDbVertex
100
AcDb2dVertex
 10
86.99934079856267
 20
-90.00019122098954
 30
0.0
  0
VERTEX
  5
72
330
3C
100
AcDbEntity
  8
LAYER_1
100
AcDbVertex
100
AcDb2dVertex
 10
86.99934079856267
 20
-80.77491453058752
 30
0.0
  0
VERTEX
  5
73
330
3C
100
AcDbEntity
  8
LAYER_1
100
AcDbVertex
100
AcDb2dVertex
 10
84.0007296882012
 20
-80.77491453058752
 30
0.0
  0
VERTEX
  5
74
330
3C
100
AcDbEntity
  8
LAYER_1
100
AcDbVertex
100
AcDb2dVertex
 10
84.0007296882012
 20
-71.55342744521928
 30
0.0
  0
VERTEX
  5
75
330
3C
100
AcDbEntity
  8
LAYER_1
100
AcDbVertex
100
AcDb2dVertex
 10
86.99934079856267
 20
-71.55342744521928
 30
0.0
  0
VERTEX
  5
76
330
3C
100
AcDbEntity
  8
LAYER_1
100
AcDbVertex
100
AcDb2dVertex
 10
86.99934079856267
 20
-62.33194035985105
 30
0.0
  0
VERTEX
  5
77
330
3C
100
AcDbEntity
  8
LAYER_1
100
AcDbVertex
100
AcDb2dVertex
 10
84.0007296882012
 20
-62.33194035985105
 30
0.0
  0
VERTEX
  5
78
330
3C
100
AcDbEntity
  8
LAYER_1
100
AcDbVertex
100
AcDb2dVertex
 10
84.0007296882012
 20
-53.11010876493428
 30
0.0
  0
VERTEX
  5
79
330
3C
100
AcDbEntity
  8
LAYER_1
100
AcDbVertex
100
AcDb2dVertex
 10
86.99934079856267
 20
-53.11010876493428
 30
0.0
  0
VERTEX
  5
7A
330
3C
100
AcDbEntity
  8
LAYER_1
100
AcDbVertex
100
AcDb2dVertex
 10
86.99934079856267
 20
-43.88862167956604
 30
0.0
  0
VERTEX
  5
7B
330
3C
100
AcDbEntity
  8
LAYER_1
100
AcDbVertex
100
AcDb2dVertex
 10
84.0007296882012
 20
-43.88862167956604
 30
0.0
  0
VERTEX
  5
7C
330
3C
100
AcDbEntity
  8
LAYER_1
100
AcDbVertex
100
AcDb2dVertex
 10
84.0007296882012
 20
-34.6671345941978
 30
0.0
  0
VERTEX
  5
7D
330
3C
100
AcDbEntity
  8
LAYER_1
100
AcDbVertex
100
AcDb2dVertex
 10
86.99934079856267
 20
-34.6671345941978
 30
0.0
  0
VERTEX
  5
7E
330
3C
100
AcDbEntity
  8
LAYER_1
100
AcDbVertex
100
AcDb2dVertex
 10
86.99934079856267
 20
-25.44530299928104
 30
0.0
  0
VERTEX
  5
7F
330
3C
100
AcDbEntity
  8
LAYER_1
100
AcDbVertex
100
AcDb2dVertex
 10
84.0007296882012
 20
-25.44530299928104
 30
0.0
  0
VERTEX
  5
80
330
3C
100
AcDbEntity
  8
LAYER_1
100
AcDbVertex
100
AcDb2dVertex
 10
84.0007296882012
 20
-16.22002630887902
 30
0.0
  0
VERTEX
  5
81
330
3C
100
AcDbEntity
  8
LAYER_1
100
AcDbVertex
100
AcDb2dVertex
 10
86.99934079856267
 20
-16.22002630887902
 30
0.0
  0
SEQEND
  5
82
330
3C
100
AcDbEntity
  8
LAYER_1
  0
POLYLINE
  5
83
330
1F
100
AcDbEntity
  8
LAYER_1
100
AcDb2dPolyline
 66
     1
 10
0.0
 20
0.0
 30
0.0
  0
VERTEX
  5
84
330
83
100
AcDbEntity
  8
LAYER_1
100
AcDbVertex
100
AcDb2dVertex
 10
25.2994032054807
 20
-60.1002075045062
 30
0.0
  0
VERTEX
  5
85
330
83
100
AcDbEntity
  8
LAYER_1
100
AcDbVertex
100
AcDb2dVertex
 10
14.70194498330368
 20
-60.1002075045062
 30
0.0
  0
VERTEX
  5
86
330
83
100
AcDbEntity
  8
LAYER_1
100
AcDbVertex
100
AcDb2dVertex
 10
14.70194498330368
 20
-56.89764674141795
 30
0.0
  0
VERTEX
  5
87
330
83
100
AcDbEntity
  8
LAYER_1
100
AcDbVertex
100
AcDb2dVertex
 10
25.2994032054807
 20
-56.89764674141795
 30
0.0
  0
VERTEX
  5
88
330
83
100
AcDbEntity
  8
LAYER_1
100
AcDbVertex
100
AcDb2dVertex
 10
25.2994032054807
 20
-60.1002075045062
 30
0.0
  0
SEQEND
  5
89
330
83
100
AcDbEntity
  8
LAYER_1
  0
POLYLINE
  5
8A
330
1F
100
AcDbEntity
  8
LAYER_1
100
AcDb2dPolyline
 66
     1
 10
0.0
 20
0.0
 30
0.0
  0
VERTEX
  5
8B
330
8A
100
AcDbEntity
  8
LAYER_1
100
AcDbVertex
100
AcDb2dVertex
 10
33.90146212260102
 20
-17.59944254117306
 30
0.0
  0
VERTEX
  5
8C
330
8A
100
AcDbEntity
  8
LAYER_1
100
AcDbVertex
100
AcDb2dVertex
 10
37.09988877110698
 20
-17.59944254117306
 30
0.0
  0
VERTEX
  5
8D
330
8A
100
AcDbEntity
  8
LAYER_1
100
AcDbVertex
100
AcDb2dVertex
 10
37.09988877110698
 20
-28.20069036838386
 30
0.0
  0
VERTEX
  5
8E
330
8A
100
AcDbEntity
  8
LAYER_1
100
AcDbVertex
100
AcDb2dVertex
 10
33.90146212260102
 20
-28.20069036838386
 30
0.0
  0
VERTEX
  5
8F
330
8A
100
AcDbEntity
  8
LAYER_1
100
AcDbVertex
100
AcDb2dVertex
 10
33.90146212260102
 20
-17.59944254117306
 30
0.0
  0
SEQEND
  5
90
330
8A
100
AcDbEntity
  8
LAYER_1
  0
POLYLINE
  5
91
330
1F
100
AcDbEntity
  8
LAYER_1
100
AcDb2dPolyline
 66
     1
 10
0.0
 20
0.0
 30
0.0
  0
VERTEX
  5
92
330
91
100
AcDbEntity
  8
LAYER_1
100
AcDbVertex
100
AcDb2dVertex
 10
33.90146212260102
 20
-38.79780408101236
 30
0.0
  0
VERTEX
  5
93
330
91
100
AcDbEntity
  8
LAYER_1
100
AcDbVertex
100
AcDb2dVertex
 10
37.09988877110698
 20
-38.79780408101236
 30
0.0
  0
VERTEX
  5
94
330
91
100
AcDbEntity
  8
LAYER_1
100
AcDbVertex
100
AcDb2dVertex
 10
37.09988877110698
 20
-49.39905190822316
 30
0.0
  0
VERTEX
  5
95
330
91
100
AcDbEntity
  8
LAYER_1
100
AcDbVertex
100
AcDb2dVertex
 10
33.90146212260102
 20
-49.39905190822316
 30
0.0
  0
VERTEX
  5
96
330
91
100
AcDbEntity
  8
LAYER_1
100
AcDbVertex
100
AcDb2dVertex
 10
33.90146212260102
 20
-38.79780408101236
 30
0.0
  0
SEQEND
  5
97
330
91
100
AcDbEntity
  8
LAYER_1
  0
POLYLINE
  5
98
330
1F
100
AcDbEntity
  8
LAYER_1
100
AcDb2dPolyline
 66
     1
 10
0.0
 20
0.0
 30
0.0
  0
VERTEX
  5
99
330
98
100
AcDbEntity
  8
LAYER_1
100
AcDbVertex
100
AcDb2dVertex
 10
46.50155435035378
 20
-60.1002075045062
 30
0.0
  0
VERTEX
  5
9A
330
98
100
AcDbEntity
  8
LAYER_1
100
AcDbVertex
100
AcDb2dVertex
 10
35.90065103269151
 20
-60.1002075045062
 30
0.0
  0
VERTEX
  5
9B
330
98
100
AcDbEntity
  8
LAYER_1
100
AcDbVertex
100
AcDb2dVertex
 10
35.90065103269151
 20
-56.89764674141795
 30
0.0
  0
VERTEX
  5
9C
330
98
100
AcDbEntity
  8
LAYER_1
100
AcDbVertex
100
AcDb2dVertex
 10
46.50155435035378
 20
-56.89764674141795
 30
0.0
  0
VERTEX
  5
9D
330
98
100
AcDbEntity
  8
LAYER_1
100
AcDbVertex
100
AcDb2dVertex
 10
46.50155435035378
 20
-60.1002075045062
 30
0.0
  0
SEQEND
  5
9E
330
98
100
AcDbEntity
  8
LAYER_1
  0
POLYLINE
  5
9F
330
1F
100
AcDbEntity
  8
LAYER_1
100
AcDb2dPolyline
 66
     1
 10
0.0
 20
0.0
 30
0.0
  0
VERTEX
  5
A0
330
9F
100
AcDbEntity
  8
LAYER_1
100
AcDbVertex
100
AcDb2dVertex
 10
44.70218097840779
 20
-40.10108370308237
 30
0.0
  0
VERTEX
  5
A1
330
9F
100
AcDbEntity
  8
LAYER_1
100
AcDbVertex
100
AcDb2dVertex
 10
44.70218097840779
 20
-36.89886744954265
 30
0.0
  0
VERTEX
  5
A2
330
9F
100
AcDbEntity
  8
LAYER_1
100
AcDbVertex
100
AcDb2dVertex
 10
55.29963920058481
 20
-36.89886744954265
 30
0.0
  0
VERTEX
  5
A3
330
9F
100
AcDbEntity
  8
LAYER_1
100
AcDbVertex
100
AcDb2dVertex
 10
55.29963920058481
 20
-40.10108370308237
 30
0.0
  0
VERTEX
  5
A4
330
9F
100
AcDbEntity
  8
LAYER_1
100
AcDbVertex
100
AcDb2dVertex
 10
44.70218097840779
 20
-40.10108370308237
 30
0.0
  0
SEQEND
  5
A5
330
9F
100
AcDbEntity
  8
LAYER_1
  0
POLYLINE
  5
A6
330
1F
100
AcDbEntity
  8
LAYER_1
100
AcDb2dPolyline
 66
     1
 10
0.0
 20
0.0
 30
0.0
  0
VERTEX
  5
A7
330
A6
100
AcDbEntity
  8
LAYER_1
100
AcDbVertex
100
AcDb2dVertex
 10
57.10245766801606
 20
-79.39928790332726
 30
0.0
  0
VERTEX
  5
A8
330
A6
100
AcDbEntity
  8
LAYER_1
100
AcDbVertex
100
AcDb2dVertex
 10
53.90058592402485
 20
-79.39928790332726
 30
0.0
  0
VERTEX
  5
A9
330
A6
100
AcDbEntity
  8
LAYER_1
100
AcDbVertex
100
AcDb2dVertex
 10
53.90058592402485
 20
-68.79838458566499
 30
0.0
  0
VERTEX
  5
AA
330
A6
100
AcDbEntity
  8
LAYER_1
100
AcDbVertex
100
AcDb2dVertex
 10
57.10245766801606
 20
-68.79838458566499
 30
0.0
  0
VERTEX
  5
AB
330
A6
100
AcDbEntity
  8
LAYER_1
100
AcDbVertex
100
AcDb2dVertex
 10
57.10245766801606
 20
-79.39928790332726
 30
0.0
  0
SEQEND
  5
AC
330
A6
100
AcDbEntity
  8
LAYER_1
  0
POLYLINE
  5
AD
330
1F
100
AcDbEntity
  8
LAYER_1
100
AcDb2dPolyline
 66
     1
 10
0.0
 20
0.0
 30
0.0
  0
VERTEX
  5
AE
330
AD
100
AcDbEntity
  8
LAYER_1
100
AcDbVertex
100
AcDb2dVertex
 10
57.10245766801606
 20
-58.20058185393944
 30
0.0
  0
VERTEX
  5
AF
330
AD
100
AcDbEntity
  8
LAYER_1
100
AcDbVertex
100
AcDb2dVertex
 10
53.90058592402485
 20
-58.20058185393944
 30
0.0
  0
VERTEX
  5
B0
330
AD
100
AcDbEntity
  8
LAYER_1
100
AcDbVertex
100
AcDb2dVertex
 10
53.90058592402485
 20
-47.60002304582569
 30
0.0
  0
VERTEX
  5
B1
330
AD
100
AcDbEntity
  8
LAYER_1
100
AcDbVertex
100
AcDb2dVertex
 10
57.10245766801606
 20
-47.60002304582569
 30
0.0
  0
VERTEX
  5
B2
330
AD
100
AcDbEntity
  8
LAYER_1
100
AcDbVertex
100
AcDb2dVertex
 10
57.10245766801606
 20
-58.20058185393944
 30
0.0
  0
SEQEND
  5
B3
330
AD
100
AcDbEntity
  8
LAYER_1
  0
POLYLINE
  5
B4
330
1F
100
AcDbEntity
  8
LAYER_1
100
AcDb2dPolyline
 66
     1
 10
0.0
 20
0.0
 30
0.0
  0
VERTEX
  5
B5
330
B4
100
AcDbEntity
  8
LAYER_1
100
AcDbVertex
100
AcDb2dVertex
 10
76.50179034545789
 20
-40.10108370308237
 30
0.0
  0
VERTEX
  5
B6
330
B4
100
AcDbEntity
  8
LAYER_1
100
AcDbVertex
100
AcDb2dVertex
 10
65.90088702779562
 20
-40.10108370308237
 30
0.0
  0
VERTEX
  5
B7
330
B4
100
AcDbEntity
  8
LAYER_1
100
AcDbVertex
100
AcDb2dVertex
 10
65.90088702779562
 20
-36.89886744954265
 30
0.0
  0
VERTEX
  5
B8
330
B4
100
AcDbEntity
  8
LAYER_1
100
AcDbVertex
100
AcDb2dVertex
 10
76.50179034545789
 20
-36.89886744954265
 30
0.0
  0
VERTEX
  5
B9
330
B4
100
AcDbEntity
  8
LAYER_1
100
AcDbVertex
100
AcDb2dVertex
 10
76.50179034545789
 20
-40.10108370308237
 30
0.0
  0
SEQEND
  5
BA
330
B4
100
AcDbEntity
  8
LAYER_1
  0
SPLINE
  5
BB
330
1F
100
AcDbEntity
  8
LAYER_1
100
AcDbSpline
210
0.0
220
0.0
230
1.0
 70
    11
 71
     3
 72
   149
 73
   145
 74
     0
 42
0.0000000001
 43
0.0000000001
 40
0.0
 40
0.0
 40
0.0
 40
0.0
 40
1.0
 40
1.0
 40
1.0
 40
2.0
 40
2.0
 40
2.0
 40
3.0
 40
3.0
 40
3.0
 40
4.0
 40
4.0
 40
4.0
 40
5.0
 40
5.0
 40
5.0
 40
6.0
 40
6.0
 40
6.0
 40
7.0
 40
7.0
 40
7.0
 40
8.0
 40
8.0
 40
8.0
 40
9.0
 40
9.0
 40
9.0
 40
10.0
 40
10.0
 40
10.0
 40
11.0
 40
11.0
 40
11.0
 40
12.0
 40
12.0
 40
12.0
 40
13.0
 40
13.0
 40
13.0
 40
14.0
 40
14.0
 40
14.0
 40
15.0
 40
15.0
 40
15.0
 40
16.0
 40
16.0
 40
16.0
 40
17.0
 40
17.0
 40
17.0
 40
18.0
 40
18.0
 40
18.0
 40
19.0
 40
19.0
 40
19.0
 40
20.0
 40
20.0
 40
20.0
 40
21.0
 40
21.0
 40
21.0
 40
22.0
 40
22.0
 40
22.0
 40
23.0
 40
23.0
 40
23.0
 40
24.0
 40
24.0
 40
24.0
 40
25.0
 40
25.0
 40
25.0
 40
26.0
 40
26.0
 40
26.0
 40
27.0
 40
27.0
 40
27.0
 40
28.0
 40
28.0
 40
28.0
 40
29.0
 40
29.0
 40
29.0
 40
30.0
 40
30.0
 40
30.0
 40
31.0
 40
31.0
 40
31.0
 40
32.0
 40
32.0
 40
32.0
 40
33.0
 40
33.0
 40
33.0
 40
34.0
 40
34.0
 40
34.0
 40
35.0
 40
35.0
 40
35.0
 40
36.0
 40
36.0
 40
36.0
 40
37.0
 40
37.0
 40
37.0
 40
38.0
 40
38.0
 40
38.0
 40
39.0
 40
39.0
 40
39.0
 40
40.0
 40
40.0
 40
40.0
 40
41.0
 40
41.0
 40
41.0
 40
42.0
 40
42.0
 40
42.0
 40
43.0
 40
43.0
 40
43.0
 40
44.0
 40
44.0
 40
44.0
 40
45.0
 40
45.0
 40
45.0
 40
46.0
 40
46.0
 40
46.0
 40
47.0
 40
47.0
 40
47.0
 40
48.0
 40
48.0
 40
48.0
 40
48.0
 10
89.5190836364744
 20
-40.0008314244616
 30
0.0
 10
88.96890188748
 20
-40.0008314244616
 30
0.0
 10
88.520694964849
 20
-40.4490383470926
 30
0.0
 10
88.520694964849
 20
-41.00300970112077
 30
0.0
 10
88.520694964849
 20
-41.00300970112077
 30
0.0
 10
88.520694964849
 20
-50.00228812769041
 30
0.0
 10
88.520694964849
 20
-50.00228812769041
 30
0.0
 10
88.520694964849
 20
-50.55625948171858
 30
0.0
 10
88.96890188748
 20
-51.0006767993158
 30
0.0
 10
89.5190836364744
 20
-51.0006767993158
 30
0.0
 10
89.5190836364744
 20
-51.0006767993158
 30
0.0
 10
91.51930607521045
 20
-51.0006767993158
 30
0.0
 10
91.51930607521045
 20
-51.0006767993158
 30
0.0
 10
91.51930607521045
 20
-51.0006767993158
 30
0.0
 10
91.51930607521045
 20
-62.00017766462149
 30
0.0
 10
91.51930607521045
 20
-62.00017766462149
 30
0.0
 10
106.3607774256668
 20
-62.00017766462149
 30
0.0
 10
109.7228461097221
 20
-87.00158011062808
 30
0.0
 10
120.0202365151338
 20
-87.00158011062808
 30
0.0
 10
125.8624294390205
 20
-87.00158011062808
 30
0.0
 10
124.5112629897055
 20
-85.66798364828787
 30
0.0
 10
129.6441107531793
 20
-85.66798364828787
 30
0.0
 10
132.5827772020974
 20
-85.66798364828787
 30
0.0
 10
133.404776984878
 20
-87.00158011062808
 30
0.0
 10
138.5200547613769
 20
-87.00158011062808
 30
0.0
 10
138.5200547613769
 20
-87.00158011062808
 30
0.0
 10
138.5200547613769
 20
-75.57144230966617
 30
0.0
 10
138.5200547613769
 20
-75.57144230966617
 30
0.0
 10
138.5200547613769
 20
-75.57144230966617
 30
0.0
 10
140.520277200113
 20
-75.57144230966617
 30
0.0
 10
140.520277200113
 20
-75.57144230966617
 30
0.0
 10
141.0742485541412
 20
-75.57144230966617
 30
0.0
 10
141.5221109672237
 20
-75.12702499206894
 30
0.0
 10
141.5221109672237
 20
-74.57305363804076
 30
0.0
 10
141.5221109672237
 20
-74.57305363804076
 30
0.0
 10
141.5221109672237
 20
-65.14348278536343
 30
0.0
 10
141.5221109672237
 20
-65.14348278536343
 30
0.0
 10
141.5221109672237
 20
-64.58951143133527
 30
0.0
 10
141.0742485541412
 20
-64.14164901825278
 30
0.0
 10
140.520277200113
 20
-64.14164901825278
 30
0.0
 10
140.520277200113
 20
-64.14164901825278
 30
0.0
 10
138.5200547613769
 20
-64.14164901825278
 30
0.0
 10
138.5200547613769
 20
-64.14164901825278
 30
0.0
 10
138.5200547613769
 20
-64.14164901825278
 30
0.0
 10
138.5200547613769
 20
-52.71495631277612
 30
0.0
 10
138.5200547613769
 20
-52.71495631277612
 30
0.0
 10
138.5200547613769
 20
-52.71495631277612
 30
0.0
 10
140.520277200113
 20
-52.71495631277612
 30
0.0
 10
140.520277200113
 20
-52.71495631277612
 30
0.0
 10
141.0742485541412
 20
-52.71495631277612
 30
0.0
 10
141.5221109672237
 20
-52.2705389951789
 30
0.0
 10
141.5221109672237
 20
-51.71656764115072
 30
0.0
 10
141.5221109672237
 20
-51.71656764115072
 30
0.0
 10
141.5221109672237
 20
-42.28699678847339
 30
0.0
 10
141.5221109672237
 20
-42.28699678847339
 30
0.0
 10
141.5221109672237
 20
-41.73302543444522
 30
0.0
 10
141.0742485541412
 20
-41.28481851181422
 30
0.0
 10
140.520277200113
 20
-41.28481851181422
 30
0.0
 10
140.520277200113
 20
-41.28481851181422
 30
0.0
 10
138.5200547613769
 20
-41.28481851181422
 30
0.0
 10
138.5200547613769
 20
-41.28481851181422
 30
0.0
 10
138.5200547613769
 20
-41.28481851181422
 30
0.0
 10
138.5200547613769
 20
-29.85502522040083
 30
0.0
 10
138.5200547613769
 20
-29.85502522040083
 30
0.0
 10
138.5200547613769
 20
-29.85502522040083
 30
0.0
 10
140.520277200113
 20
-29.85502522040083
 30
0.0
 10
140.520277200113
 20
-29.85502522040083
 30
0.0
 10
141.0742485541412
 20
-29.85502522040083
 30
0.0
 10
141.5221109672237
 20
-29.4106079028036
 30
0.0
 10
141.5221109672237
 20
-28.85663654877543
 30
0.0
 10
141.5221109672237
 20
-28.85663654877543
 30
0.0
 10
141.5221109672237
 20
-19.4270656960981
 30
0.0
 10
141.5221109672237
 20
-19.4270656960981
 30
0.0
 10
141.5221109672237
 20
-18.90823431601947
 30
0.0
 10
141.1269585150655
 20
-18.48138698539702
 30
0.0
 10
140.6225965360249
 20
-18.42867702447269
 30
0.0
 10
140.6225965360249
 20
-18.42867702447269
 30
0.0
 10
138.5200547613769
 20
-18.42867702447269
 30
0.0
 10
138.5200547613769
 20
-18.42867702447269
 30
0.0
 10
138.5200547613769
 20
-18.42867702447269
 30
0.0
 10
138.5200547613769
 20
-6.998539223510782
 30
0.0
 10
138.5200547613769
 20
-6.998539223510782
 30
0.0
 10
138.5200547613769
 20
-6.998539223510782
 30
0.0
 10
130.9212076495614
 20
-6.998539223510782
 30
0.0
 10
130.9212076495614
 20
-6.998539223510782
 30
0.0
 10
130.9212076495614
 20
-6.998539223510782
 30
0.0
 10
130.9212076495614
 20
-5.001761880259976
 30
0.0
 10
130.9212076495614
 20
-5.001761880259976
 30
0.0
 10
130.9212076495614
 20
-4.447790526231802
 30
0.0
 10
130.4733452364789
 20
-3.999928113149324
 30
0.0
 10
129.922818977936
 20
-3.999928113149324
 30
0.0
 10
129.922818977936
 20
-3.999928113149324
 30
0.0
 10
121.3221380990097
 20
-3.999928113149324
 30
0.0
 10
121.3221380990097
 20
-3.999928113149324
 30
0.0
 10
120.7681667449816
 20
-3.999928113149324
 30
0.0
 10
120.3203043318991
 20
-4.447790526231802
 30
0.0
 10
120.3203043318991
 20
-5.001761880259976
 30
0.0
 10
120.3203043318991
 20
-5.001761880259976
 30
0.0
 10
120.3203043318991
 20
-6.998539223510782
 30
0.0
 10
120.3203043318991
 20
-6.998539223510782
 30
0.0
 10
120.3203043318991
 20
-6.998539223510782
 30
0.0
 10
109.7228461097221
 20
-6.998539223510782
 30
0.0
 10
109.7228461097221
 20
-6.998539223510782
 30
0.0
 10
109.7228461097221
 20
-6.998539223510782
 30
0.0
 10
109.7228461097221
 20
-5.001761880259976
 30
0.0
 10
109.7228461097221
 20
-5.001761880259976
 30
0.0
 10
109.7228461097221
 20
-4.447790526231802
 30
0.0
 10
109.2746391870911
 20
-3.999928113149324
 30
0.0
 10
108.7210123426114
 20
-3.999928113149324
 30
0.0
 10
108.7210123426114
 20
-3.999928113149324
 30
0.0
 10
100.1237765591705
 20
-3.999928113149324
 30
0.0
 10
100.1237765591705
 20
-3.999928113149324
 30
0.0
 10
99.56980520514227
 20
-3.999928113149324
 30
0.0
 10
99.1219427920598
 20
-4.447790526231802
 30
0.0
 10
99.1219427920598
 20
-5.001761880259976
 30
0.0
 10
99.1219427920598
 20
-5.001761880259976
 30
0.0
 10
99.1219427920598
 20
-6.998539223510782
 30
0.0
 10
99.1219427920598
 20
-6.998539223510782
 30
0.0
 10
99.1219427920598
 20
-6.998539223510782
 30
0.0
 10
91.51930607521045
 20
-6.998539223510782
 30
0.0
 10
91.51930607521045
 20
-6.998539223510782
 30
0.0
 10
91.51930607521045
 20
-6.998539223510782
 30
0.0
 10
91.51930607521045
 20
-18.00148518430171
 30
0.0
 10
91.51930607521045
 20
-18.00148518430171
 30
0.0
 10
91.51930607521045
 20
-18.00148518430171
 30
0.0
 10
89.5190836364744
 20
-18.00148518430171
 30
0.0
 10
89.5190836364744
 20
-18.00148518430171
 30
0.0
 10
88.96890188748
 20
-18.00148518430171
 30
0.0
 10
88.520694964849
 20
-18.44624701144747
 30
0.0
 10
88.520694964849
 20
-18.99987385592712
 30
0.0
 10
88.520694964849
 20
-18.99987385592712
 30
0.0
 10
88.520694964849
 20
-27.99949679204527
 30
0.0
 10
88.520694964849
 20
-27.99949679204527
 30
0.0
 10
88.520694964849
 20
-28.55312363652492
 30
0.0
 10
88.96890188748
 20
-28.99754095412214
 30
0.0
 10
89.5190836364744
 20
-28.99754095412214
 30
0.0
 10
89.5190836364744
 20
-28.99754095412214
 30
0.0
 10
91.51930607521045
 20
-28.99754095412214
 30
0.0
 10
91.51930607521045
 20
-28.99754095412214
 30
0.0
 10
91.51930607521045
 20
-28.99754095412214
 30
0.0
 10
91.51930607521045
 20
-40.0008314244616
 30
0.0
 10
91.51930607521045
 20
-40.0008314244616
 30
0.0
 10
91.51930607521045
 20
-40.0008314244616
 30
0.0
 10
89.5190836364744
 20
-40.0008314244616
 30
0.0
 10
89.5190836364744
 20
-40.0008314244616
 30
0.0
  0
POLYLINE
  5
BC
330
1F
100
AcDbEntity
  8
LAYER_1
100
AcDb2dPolyline
 66
     1
 10
0.0
 20
0.0
 30
0.0
  0
VERTEX
  5
BD
330
BC
100
AcDbEntity
  8
LAYER_1
100
AcDbVertex
100
AcDb2dVertex
 10
118.422401229075
 20
-18.42867702447269
 30
0.0
  0
VERTEX
  5
BE
330
BC
100
AcDbEntity
  8
LAYER_1
100
AcDbVertex
100
AcDb2dVertex
 10
121.6184163107412
 20
-18.42867702447269
 30
0.0
  0
VERTEX
  5
BF
330
BC
100
AcDbEntity
  8
LAYER_1
100
AcDbVertex
100
AcDb2dVertex
 10
121.6184163107412
 20
-29.85502522040083
 30
0.0
  0
VERTEX
  5
C0
330
BC
100
AcDbEntity
  8
LAYER_1
100
AcDbVertex
100
AcDb2dVertex
 10
118.422401229075
 20
-29.85502522040083
 30
0.0
  0
VERTEX
  5
C1
330
BC
100
AcDbEntity
  8
LAYER_1
100
AcDbVertex
100
AcDb2dVertex
 10
118.422401229075
 20
-18.42867702447269
 30
0.0
  0
SEQEND
  5
C2
330
BC
100
AcDbEntity
  8
LAYER_1
  0
POLYLINE
  5
C3
330
1F
100
AcDbEntity
  8
LAYER_1
100
AcDb2dPolyline
 66
     1
 10
0.0
 20
0.0
 30
0.0
  0
VERTEX
  5
C4
330
C3
100
AcDbEntity
  8
LAYER_1
100
AcDbVertex
100
AcDb2dVertex
 10
118.422401229075
 20
-41.28481851181422
 30
0.0
  0
VERTEX
  5
C5
330
C3
100
AcDbEntity
  8
LAYER_1
100
AcDbVertex
100
AcDb2dVertex
 10
121.6184163107412
 20
-41.28481851181422
 30
0.0
  0
VERTEX
  5
C6
330
C3
100
AcDbEntity
  8
LAYER_1
100
AcDbVertex
100
AcDb2dVertex
 10
121.6184163107412
 20
-52.71495631277612
 30
0.0
  0
VERTEX
  5
C7
330
C3
100
AcDbEntity
  8
LAYER_1
100
AcDbVertex
100
AcDb2dVertex
 10
118.422401229075
 20
-52.71495631277612
 30
0.0
  0
VERTEX
  5
C8
330
C3
100
AcDbEntity
  8
LAYER_1
100
AcDbVertex
100
AcDb2dVertex
 10
118.422401229075
 20
-41.28481851181422
 30
0.0
  0
SEQEND
  5
C9
330
C3
100
AcDbEntity
  8
LAYER_1
  0
POLYLINE
  5
CA
330
1F
100
AcDbEntity
  8
LAYER_1
100
AcDb2dPolyline
 66
     1
 10
0.0
 20
0.0
 30
0.0
  0
VERTEX
  5
CB
330
CA
100
AcDbEntity
  8
LAYER_1
100
AcDbVertex
100
AcDb2dVertex
 10
118.422401229075
 20
-64.14164901825278
 30
0.0
  0
VERTEX
  5
CC
330
CA
100
AcDbEntity
  8
LAYER_1
100
AcDbVertex
100
AcDb2dVertex
 10
121.6184163107412
 20
-64.14164901825278
 30
0.0
  0
VERTEX
  5
CD
330
CA
100
AcDbEntity
  8
LAYER_1
100
AcDbVertex
100
AcDb2dVertex
 10
121.6184163107412
 20
-75.57144230966617
 30
0.0
  0
VERTEX
  5
CE
330
CA
100
AcDbEntity
  8
LAYER_1
100
AcDbVertex
100
AcDb2dVertex
 10
118.422401229075
 20
-75.57144230966617
 30
0.0
  0
VERTEX
  5
CF
330
CA
100
AcDbEntity
  8
LAYER_1
100
AcDbVertex
100
AcDb2dVertex
 10
118.422401229075
 20
-64.14164901825278
 30
0.0
  0
SEQEND
  5
D0
330
CA
100
AcDbEntity
  8
LAYER_1
  0
SPLINE
  5
D1
330
1F
100
AcDbEntity
  8
LAYER_1
100
AcDbSpline
210
0.0
220
0.0
230
1.0
 70
     8
 71
     3
 72
   110
 73
   106
 74
     0
 42
0.0000000001
 43
0.0000000001
 40
0.0
 40
0.0
 40
0.0
 40
0.0
 40
1.0
 40
1.0
 40
1.0
 40
2.0
 40
2.0
 40
2.0
 40
3.0
 40
3.0
 40
3.0
 40
4.0
 40
4.0
 40
4.0
 40
5.0
 40
5.0
 40
5.0
 40
6.0
 40
6.0
 40
6.0
 40
7.0
 40
7.0
 40
7.0
 40
8.0
 40
8.0
 40
8.0
 40
9.0
 40
9.0
 40
9.0
 40
10.0
 40
10.0
 40
10.0
 40
11.0
 40
11.0
 40
11.0
 40
12.0
 40
12.0
 40
12.0
 40
13.0
 40
13.0
 40
13.0
 40
14.0
 40
14.0
 40
14.0
 40
15.0
 40
15.0
 40
15.0
 40
16.0
 40
16.0
 40
16.0
 40
17.0
 40
17.0
 40
17.0
 40
18.0
 40
18.0
 40
18.0
 40
19.0
 40
19.0
 40
19.0
 40
20.0
 40
20.0
 40
20.0
 40
21.0
 40
21.0
 40
21.0
 40
22.0
 40
22.0
 40
22.0
 40
23.0
 40
23.0
 40
23.0
 40
24.0
 40
24.0
 40
24.0
 40
25.0
 40
25.0
 40
25.0
 40
26.0
 40
26.0
 40
26.0
 40
27.0
 40
27.0
 40
27.0
 40
28.0
 40
28.0
 40
28.0
 40
29.0
 40
29.0
 40
29.0
 40
30.0
 40
30.0
 40
30.0
 40
31.0
 40
31.0
 40
31.0
 40
32.0
 40
32.0
 40
32.0
 40
33.0
 40
33.0
 40
33.0
 40
34.0
 40
34.0
 40
34.0
 40
35.0
 40
35.0
 40
35.0
 40
35.0
 10
141.5221109672237
 20
-74.57305363804076
 30
0.0
 10
141.5221109672237
 20
-75.0918850181194
 30
0.0
 10
141.9172634193818
 20
-75.51873234874185
 30
0.0
 10
142.4216253984224
 20
-75.57144230966617
 30
0.0
 10
142.4216253984224
 20
-75.57144230966617
 30
0.0
 10
144.5241671730704
 20
-75.57144230966617
 30
0.0
 10
144.5241671730704
 20
-75.57144230966617
 30
0.0
 10
144.5241671730704
 20
-75.57144230966617
 30
0.0
 10
144.5241671730704
 20
-87.00158011062808
 30
0.0
 10
144.5241671730704
 20
-87.00158011062808
 30
0.0
 10
144.5241671730704
 20
-87.00158011062808
 30
0.0
 10
152.1230142848859
 20
-87.00158011062808
 30
0.0
 10
152.1230142848859
 20
-87.00158011062808
 30
0.0
 10
152.1230142848859
 20
-87.00158011062808
 30
0.0
 10
152.1230142848859
 20
-88.99835745387888
 30
0.0
 10
152.1230142848859
 20
-88.99835745387888
 30
0.0
 10
152.1230142848859
 20
-89.55232880790706
 30
0.0
 10
152.5708766979684
 20
-90.00019122098954
 30
0.0
 10
153.1214029565113
 20
-90.00019122098954
 30
0.0
 10
153.1214029565113
 20
-90.00019122098954
 30
0.0
 10
161.7220838354375
 20
-90.00019122098954
 30
0.0
 10
161.7220838354375
 20
-90.00019122098954
 30
0.0
 10
162.2760551894657
 20
-90.00019122098954
 30
0.0
 10
162.7239176025482
 20
-89.55232880790706
 30
0.0
 10
162.7239176025482
 20
-88.99835745387888
 30
0.0
 10
162.7239176025482
 20
-88.99835745387888
 30
0.0
 10
162.7239176025482
 20
-87.00158011062808
 30
0.0
 10
162.7239176025482
 20
-87.00158011062808
 30
0.0
 10
162.7239176025482
 20
-87.00158011062808
 30
0.0
 10
173.3213758247252
 20
-87.00158011062808
 30
0.0
 10
173.3213758247252
 20
-87.00158011062808
 30
0.0
 10
173.3213758247252
 20
-87.00158011062808
 30
0.0
 10
173.3213758247252
 20
-88.99835745387888
 30
0.0
 10
173.3213758247252
 20
-88.99835745387888
 30
0.0
 10
173.3213758247252
 20
-89.55232880790706
 30
0.0
 10
173.7695827473562
 20
-90.00019122098954
 30
0.0
 10
174.3232095918359
 20
-90.00019122098954
 30
0.0
 10
174.3232095918359
 20
-90.00019122098954
 30
0.0
 10
182.9204453752768
 20
-90.00019122098954
 30
0.0
 10
182.9204453752768
 20
-90.00019122098954
 30
0.0
 10
183.474416729305
 20
-90.00019122098954
 30
0.0
 10
183.9222791423875
 20
-89.55232880790706
 30
0.0
 10
183.9222791423875
 20
-88.99835745387888
 30
0.0
 10
183.9222791423875
 20
-88.99835745387888
 30
0.0
 10
183.9222791423875
 20
-87.00158011062808
 30
0.0
 10
183.9222791423875
 20
-87.00158011062808
 30
0.0
 10
183.9222791423875
 20
-87.00158011062808
 30
0.0
 10
191.5249158592368
 20
-87.00158011062808
 30
0.0
 10
191.5249158592368
 20
-87.00158011062808
 30
0.0
 10
191.5249158592368
 20
-87.00158011062808
 30
0.0
 10
191.5249158592368
 20
-75.99863414983714
 30
0.0
 10
191.5249158592368
 20
-75.99863414983714
 30
0.0
 10
191.5249158592368
 20
-75.99863414983714
 30
0.0
 10
193.5251382979729
 20
-75.99863414983714
 30
0.0
 10
193.5251382979729
 20
-75.99863414983714
 30
0.0
 10
194.0753200469673
 20
-75.99863414983714
 30
0.0
 10
194.5235269695983
 20
-75.55387232269139
 30
0.0
 10
194.5235269695983
 20
-75.00024547821175
 30
0.0
 10
194.5235269695983
 20
-75.00024547821175
 30
0.0
 10
194.5235269695983
 20
-66.0006225420936
 30
0.0
 10
194.5235269695983
 20
-66.0006225420936
 30
0.0
 10
194.5235269695983
 20
-65.44699569761394
 30
0.0
 10
194.0753200469673
 20
-65.00257838001671
 30
0.0
 10
193.5251382979729
 20
-65.00257838001671
 30
0.0
 10
193.5251382979729
 20
-65.00257838001671
 30
0.0
 10
191.5249158592368
 20
-65.00257838001671
 30
0.0
 10
191.5249158592368
 20
-65.00257838001671
 30
0.0
 10
191.5249158592368
 20
-65.00257838001671
 30
0.0
 10
191.5249158592368
 20
-53.99928790967726
 30
0.0
 10
191.5249158592368
 20
-53.99928790967726
 30
0.0
 10
191.5249158592368
 20
-53.99928790967726
 30
0.0
 10
193.5251382979729
 20
-53.99928790967726
 30
0.0
 10
193.5251382979729
 20
-53.99928790967726
 30
0.0
 10
194.0753200469673
 20
-53.99928790967726
 30
0.0
 10
194.5235269695983
 20
-53.55108098704626
 30
0.0
 10
194.5235269695983
 20
-52.99710963301808
 30
0.0
 10
194.5235269695983
 20
-52.99710963301808
 30
0.0
 10
194.5235269695983
 20
-43.99783120644846
 30
0.0
 10
194.5235269695983
 20
-43.99783120644846
 30
0.0
 10
194.5235269695983
 20
-43.44385985242029
 30
0.0
 10
194.0753200469673
 20
-42.99944253482306
 30
0.0
 10
193.5251382979729
 20
-42.99944253482306
 30
0.0
 10
193.5251382979729
 20
-42.99944253482306
 30
0.0
 10
191.5249158592368
 20
-42.99944253482306
 30
0.0
 10
191.5249158592368
 20
-42.99944253482306
 30
0.0
 10
191.5249158592368
 20
-42.99944253482306
 30
0.0
 10
191.5249158592368
 20
-31.99994166951738
 30
0.0
 10
191.5249158592368
 20
-31.99994166951738
 30
0.0
 10
176.6834445087805
 20
-31.99994166951738
 30
0.0
 10
173.3213758247252
 20
-6.998539223510782
 30
0.0
 10
163.0239854193134
 20
-6.998539223510782
 30
0.0
 10
157.1817924954268
 20
-6.998539223510782
 30
0.0
 10
158.5329589447418
 20
-8.332135685850995
 30
0.0
 10
153.400111181268
 20
-8.332135685850995
 30
0.0
 10
150.4614447323499
 20
-8.332135685850995
 30
0.0
 10
149.6394449495693
 20
-6.998539223510782
 30
0.0
 10
144.5241671730704
 20
-6.998539223510782
 30
0.0
 10
144.5241671730704
 20
-6.998539223510782
 30
0.0
 10
144.5241671730704
 20
-18.42867702447269
 30
0.0
 10
144.5241671730704
 20
-18.42867702447269
 30
0.0
 10
144.5241671730704
 20
-18.42867702447269
 30
0.0
 10
142.5239447343343
 20
-18.42867702447269
 30
0.0
 10
142.5239447343343
 20
-18.42867702447269
 30
0.0
 10
141.9699733803061
 20
-18.42867702447269
 30
0.0
 10
141.5221109672237
 20
-18.87309434206992
 30
0.0
 10
141.5221109672237
 20
-19.4270656960981
 30
0.0
  0
SPLINE
  5
D2
330
1F
100
AcDbEntity
  8
LAYER_1
100
AcDbSpline
210
0.0
220
0.0
230
1.0
 70
     8
 71
     3
 72
    20
 73
    16
 74
     0
 42
0.0000000001
 43
0.0000000001
 40
0.0
 40
0.0
 40
0.0
 40
0.0
 40
1.0
 40
1.0
 40
1.0
 40
2.0
 40
2.0
 40
2.0
 40
3.0
 40
3.0
 40
3.0
 40
4.0
 40
4.0
 40
4.0
 40
5.0
 40
5.0
 40
5.0
 40
5.0
 10
141.5221109672237
 20
-51.71312254566547
 30
0.0
 10
141.5221109672237
 20
-52.26709389969365
 30
0.0
 10
141.9699733803061
 20
-52.71530082232465
 30
0.0
 10
142.5239447343343
 20
-52.71530082232465
 30
0.0
 10
142.5239447343343
 20
-52.71530082232465
 30
0.0
 10
144.5241671730704
 20
-52.71530082232465
 30
0.0
 10
144.5241671730704
 20
-52.71530082232465
 30
0.0
 10
144.5241671730704
 20
-52.71530082232465
 30
0.0
 10
144.5241671730704
 20
-64.14509411373804
 30
0.0
 10
144.5241671730704
 20
-64.14509411373804
 30
0.0
 10
144.5241671730704
 20
-64.14509411373804
 30
0.0
 10
142.5239447343343
 20
-64.14509411373804
 30
0.0
 10
142.5239447343343
 20
-64.14509411373804
 30
0.0
 10
141.9699733803061
 20
-64.14509411373804
 30
0.0
 10
141.5221109672237
 20
-64.58951143133527
 30
0.0
 10
141.5221109672237
 20
-65.14348278536343
 30
0.0
  0
SPLINE
  5
D3
330
1F
100
AcDbEntity
  8
LAYER_1
100
AcDbSpline
210
0.0
220
0.0
230
1.0
 70
     8
 71
     3
 72
    20
 73
    16
 74
     0
 42
0.0000000001
 43
0.0000000001
 40
0.0
 40
0.0
 40
0.0
 40
0.0
 40
1.0
 40
1.0
 40
1.0
 40
2.0
 40
2.0
 40
2.0
 40
3.0
 40
3.0
 40
3.0
 40
4.0
 40
4.0
 40
4.0
 40
5.0
 40
5.0
 40
5.0
 40
5.0
 10
141.5221109672237
 20
-28.85663654877543
 30
0.0
 10
141.5221109672237
 20
-29.4106079028036
 30
0.0
 10
141.9699733803061
 20
-29.85847031588608
 30
0.0
 10
142.5239447343343
 20
-29.85847031588608
 30
0.0
 10
142.5239447343343
 20
-29.85847031588608
 30
0.0
 10
144.5241671730704
 20
-29.85847031588608
 30
0.0
 10
144.5241671730704
 20
-29.85847031588608
 30
0.0
 10
144.5241671730704
 20
-29.85847031588608
 30
0.0
 10
144.5241671730704
 20
-41.28516302136274
 30
0.0
 10
144.5241671730704
 20
-41.28516302136274
 30
0.0
 10
144.5241671730704
 20
-41.28516302136274
 30
0.0
 10
142.5239447343343
 20
-41.28516302136274
 30
0.0
 10
142.5239447343343
 20
-41.28516302136274
 30
0.0
 10
141.9699733803061
 20
-41.28516302136274
 30
0.0
 10
141.5221109672237
 20
-41.72958033895997
 30
0.0
 10
141.5221109672237
 20
-42.28355169298814
 30
0.0
  0
POLYLINE
  5
D4
330
1F
100
AcDbEntity
  8
LAYER_1
100
AcDb2dPolyline
 66
     1
 10
0.0
 20
0.0
 30
0.0
  0
VERTEX
  5
D5
330
D4
100
AcDbEntity
  8
LAYER_1
100
AcDbVertex
100
AcDb2dVertex
 10
164.6218207053723
 20
-75.57144230966617
 30
0.0
  0
VERTEX
  5
D6
330
D4
100
AcDbEntity
  8
LAYER_1
100
AcDbVertex
100
AcDb2dVertex
 10
161.4258056237061
 20
-75.57144230966617
 30
0.0
  0
VERTEX
  5
D7
330
D4
100
AcDbEntity
  8
LAYER_1
100
AcDbVertex
100
AcDb2dVertex
 10
161.4258056237061
 20
-64.14509411373804
 30
0.0
  0
VERTEX
  5
D8
330
D4
100
AcDbEntity
  8
LAYER_1
100
AcDbVertex
100
AcDb2dVertex
 10
164.6218207053723
 20
-64.14509411373804
 30
0.0
  0
VERTEX
  5
D9
330
D4
100
AcDbEntity
  8
LAYER_1
100
AcDbVertex
100
AcDb2dVertex
 10
164.6218207053723
 20
-75.57144230966617
 30
0.0
  0
SEQEND
  5
DA
330
D4
100
AcDbEntity
  8
LAYER_1
  0
POLYLINE
  5
DB
330
1F
100
AcDbEntity
  8
LAYER_1
100
AcDb2dPolyline
 66
     1
 10
0.0
 20
0.0
 30
0.0
  0
VERTEX
  5
DC
330
DB
100
AcDbEntity
  8
LAYER_1
100
AcDbVertex
100
AcDb2dVertex
 10
164.6218207053723
 20
-52.71530082232465
 30
0.0
  0
VERTEX
  5
DD
330
DB
100
AcDbEntity
  8
LAYER_1
100
AcDbVertex
100
AcDb2dVertex
 10
161.4258056237061
 20
-52.71530082232465
 30
0.0
  0
VERTEX
  5
DE
330
DB
100
AcDbEntity
  8
LAYER_1
100
AcDbVertex
100
AcDb2dVertex
 10
161.4258056237061
 20
-41.28516302136274
 30
0.0
  0
VERTEX
  5
DF
330
DB
100
AcDbEntity
  8
LAYER_1
100
AcDbVertex
100
AcDb2dVertex
 10
164.6218207053723
 20
-41.28516302136274
 30
0.0
  0
VERTEX
  5
E0
330
DB
100
AcDbEntity
  8
LAYER_1
100
AcDbVertex
100
AcDb2dVertex
 10
164.6218207053723
 20
-52.71530082232465
 30
0.0
  0
SEQEND
  5
E1
330
DB
100
AcDbEntity
  8
LAYER_1
  0
POLYLINE
  5
E2
330
1F
100
AcDbEntity
  8
LAYER_1
100
AcDb2dPolyline
 66
     1
 10
0.0
 20
0.0
 30
0.0
  0
VERTEX
  5
E3
330
E2
100
AcDbEntity
  8
LAYER_1
100
AcDbVertex
100
AcDb2dVertex
 10
164.6218207053723
 20
-29.85847031588608
 30
0.0
  0
VERTEX
  5
E4
330
E2
100
AcDbEntity
  8
LAYER_1
100
AcDbVertex
100
AcDb2dVertex
 10
161.4258056237061
 20
-29.85847031588608
 30
0.0
  0
VERTEX
  5
E5
330
E2
100
AcDbEntity
  8
LAYER_1
100
AcDbVertex
100
AcDb2dVertex
 10
161.4258056237061
 20
-18.42867702447269
 30
0.0
  0
VERTEX
  5
E6
330
E2
100
AcDbEntity
  8
LAYER_1
100
AcDbVertex
100
AcDb2dVertex
 10
164.6218207053723
 20
-18.42867702447269
 30
0.0
  0
VERTEX
  5
E7
330
E2
100
AcDbEntity
  8
LAYER_1
100
AcDbVertex
100
AcDb2dVertex
 10
164.6218207053723
 20
-29.85847031588608
 30
0.0
  0
SEQEND
  5
E8
330
E2
100
AcDbEntity
  8
LAYER_1
  0
SPLINE
  5
E9
330
1F
100
AcDbEntity
  8
LAYER_1
100
AcDbSpline
210
0.0
220
0.0
230
1.0
 70
    11
 71
     3
 72
   149
 73
   145
 74
     0
 42
0.0000000001
 43
0.0000000001
 40
0.0
 40
0.0
 40
0.0
 40
0.0
 40
1.0
 40
1.0
 40
1.0
 40
2.0
 40
2.0
 40
2.0
 40
3.0
 40
3.0
 40
3.0
 40
4.0
 40
4.0
 40
4.0
 40
5.0
 40
5.0
 40
5.0
 40
6.0
 40
6.0
 40
6.0
 40
7.0
 40
7.0
 40
7.0
 40
8.0
 40
8.0
 40
8.0
 40
9.0
 40
9.0
 40
9.0
 40
10.0
 40
10.0
 40
10.0
 40
11.0
 40
11.0
 40
11.0
 40
12.0
 40
12.0
 40
12.0
 40
13.0
 40
13.0
 40
13.0
 40
14.0
 40
14.0
 40
14.0
 40
15.0
 40
15.0
 40
15.0
 40
16.0
 40
16.0
 40
16.0
 40
17.0
 40
17.0
 40
17.0
 40
18.0
 40
18.0
 40
18.0
 40
19.0
 40
19.0
 40
19.0
 40
20.0
 40
20.0
 40
20.0
 40
21.0
 40
21.0
 40
21.0
 40
22.0
 40
22.0
 40
22.0
 40
23.0
 40
23.0
 40
23.0
 40
24.0
 40
24.0
 40
24.0
 40
25.0
 40
25.0
 40
25.0
 40
26.0
 40
26.0
 40
26.0
 40
27.0
 40
27.0
 40
27.0
 40
28.0
 40
28.0
 40
28.0
 40
29.0
 40
29.0
 40
29.0
 40
30.0
 40
30.0
 40
30.0
 40
31.0
 40
31.0
 40
31.0
 40
32.0
 40
32.0
 40
32.0
 40
33.0
 40
33.0
 40
33.0
 40
34.0
 40
34.0
 40
34.0
 40
35.0
 40
35.0
 40
35.0
 40
36.0
 40
36.0
 40
36.0
 40
37.0
 40
37.0
 40
37.0
 40
38.0
 40
38.0
 40
38.0
 40
39.0
 40
39.0
 40
39.0
 40
40.0
 40
40.0
 40
40.0
 40
41.0
 40
41.0
 40
41.0
 40
42.0
 40
42.0
 40
42.0
 40
43.0
 40
43.0
 40
43.0
 40
44.0
 40
44.0
 40
44.0
 40
45.0
 40
45.0
 40
45.0
 40
46.0
 40
46.0
 40
46.0
 40
47.0
 40
47.0
 40
47.0
 40
48.0
 40
48.0
 40
48.0
 40
48.0
 10
196.5282280324652
 20
-40.0008314244616
 30
0.0
 10
195.9780462834708
 20
-40.0008314244616
 30
0.0
 10
195.5298393608398
 20
-40.4490383470926
 30
0.0
 10
195.5298393608398
 20
-41.00300970112077
 30
0.0
 10
195.5298393608398
 20
-41.00300970112077
 30
0.0
 10
195.5298393608398
 20
-50.00228812769041
 30
0.0
 10
195.5298393608398
 20
-50.00228812769041
 30
0.0
 10
195.5298393608398
 20
-50.55625948171858
 30
0.0
 10
195.9780462834708
 20
-51.0006767993158
 30
0.0
 10
196.5282280324652
 20
-51.0006767993158
 30
0.0
 10
196.5282280324652
 20
-51.0006767993158
 30
0.0
 10
198.5284504712012
 20
-51.0006767993158
 30
0.0
 10
198.5284504712012
 20
-51.0006767993158
 30
0.0
 10
198.5284504712012
 20
-51.0006767993158
 30
0.0
 10
198.5284504712012
 20
-62.00017766462149
 30
0.0
 10
198.5284504712012
 20
-62.00017766462149
 30
0.0
 10
213.3699218216575
 20
-62.00017766462149
 30
0.0
 10
216.7319905057128
 20
-87.00158011062808
 30
0.0
 10
227.0293809111246
 20
-87.00158011062808
 30
0.0
 10
232.8715738350113
 20
-87.00158011062808
 30
0.0
 10
231.5204073856963
 20
-85.66798364828787
 30
0.0
 10
236.65325514917
 20
-85.66798364828787
 30
0.0
 10
239.5919215980881
 20
-85.66798364828787
 30
0.0
 10
240.4139213808687
 20
-87.00158011062808
 30
0.0
 10
245.5291991573677
 20
-87.00158011062808
 30
0.0
 10
245.5291991573677
 20
-87.00158011062808
 30
0.0
 10
245.5291991573677
 20
-75.57144230966617
 30
0.0
 10
245.5291991573677
 20
-75.57144230966617
 30
0.0
 10
245.5291991573677
 20
-75.57144230966617
 30
0.0
 10
247.5294215961038
 20
-75.57144230966617
 30
0.0
 10
247.5294215961038
 20
-75.57144230966617
 30
0.0
 10
248.083392950132
 20
-75.57144230966617
 30
0.0
 10
248.5312553632144
 20
-75.12702499206894
 30
0.0
 10
248.5312553632144
 20
-74.57305363804076
 30
0.0
 10
248.5312553632144
 20
-74.57305363804076
 30
0.0
 10
248.5312553632144
 20
-65.14348278536343
 30
0.0
 10
248.5312553632144
 20
-65.14348278536343
 30
0.0
 10
248.5312553632144
 20
-64.58951143133527
 30
0.0
 10
248.083392950132
 20
-64.14164901825278
 30
0.0
 10
247.5294215961038
 20
-64.14164901825278
 30
0.0
 10
247.5294215961038
 20
-64.14164901825278
 30
0.0
 10
245.5291991573677
 20
-64.14164901825278
 30
0.0
 10
245.5291991573677
 20
-64.14164901825278
 30
0.0
 10
245.5291991573677
 20
-64.14164901825278
 30
0.0
 10
245.5291991573677
 20
-52.71495631277612
 30
0.0
 10
245.5291991573677
 20
-52.71495631277612
 30
0.0
 10
245.5291991573677
 20
-52.71495631277612
 30
0.0
 10
247.5294215961038
 20
-52.71495631277612
 30
0.0
 10
247.5294215961038
 20
-52.71495631277612
 30
0.0
 10
248.083392950132
 20
-52.71495631277612
 30
0.0
 10
248.5312553632144
 20
-52.2705389951789
 30
0.0
 10
248.5312553632144
 20
-51.71656764115072
 30
0.0
 10
248.5312553632144
 20
-51.71656764115072
 30
0.0
 10
248.5312553632144
 20
-42.28699678847339
 30
0.0
 10
248.5312553632144
 20
-42.28699678847339
 30
0.0
 10
248.5312553632144
 20
-41.73302543444522
 30
0.0
 10
248.083392950132
 20
-41.28481851181422
 30
0.0
 10
247.5294215961038
 20
-41.28481851181422
 30
0.0
 10
247.5294215961038
 20
-41.28481851181422
 30
0.0
 10
245.5291991573677
 20
-41.28481851181422
 30
0.0
 10
245.5291991573677
 20
-41.28481851181422
 30
0.0
 10
245.5291991573677
 20
-41.28481851181422
 30
0.0
 10
245.5291991573677
 20
-29.85502522040083
 30
0.0
 10
245.5291991573677
 20
-29.85502522040083
 30
0.0
 10
245.5291991573677
 20
-29.85502522040083
 30
0.0
 10
247.5294215961038
 20
-29.85502522040083
 30
0.0
 10
247.5294215961038
 20
-29.85502522040083
 30
0.0
 10
248.083392950132
 20
-29.85502522040083
 30
0.0
 10
248.5312553632144
 20
-29.4106079028036
 30
0.0
 10
248.5312553632144
 20
-28.85663654877543
 30
0.0
 10
248.5312553632144
 20
-28.85663654877543
 30
0.0
 10
248.5312553632144
 20
-19.4270656960981
 30
0.0
 10
248.5312553632144
 20
-19.4270656960981
 30
0.0
 10
248.5312553632144
 20
-18.90823431601947
 30
0.0
 10
248.1361029110563
 20
-18.48138698539702
 30
0.0
 10
247.6317409320157
 20
-18.42867702447269
 30
0.0
 10
247.6317409320157
 20
-18.42867702447269
 30
0.0
 10
245.5291991573677
 20
-18.42867702447269
 30
0.0
 10
245.5291991573677
 20
-18.42867702447269
 30
0.0
 10
245.5291991573677
 20
-18.42867702447269
 30
0.0
 10
245.5291991573677
 20
-6.998539223510782
 30
0.0
 10
245.5291991573677
 20
-6.998539223510782
 30
0.0
 10
245.5291991573677
 20
-6.998539223510782
 30
0.0
 10
237.9303520455522
 20
-6.998539223510782
 30
0.0
 10
237.9303520455522
 20
-6.998539223510782
 30
0.0
 10
237.9303520455522
 20
-6.998539223510782
 30
0.0
 10
237.9303520455522
 20
-5.001761880259976
 30
0.0
 10
237.9303520455522
 20
-5.001761880259976
 30
0.0
 10
237.9303520455522
 20
-4.447790526231802
 30
0.0
 10
237.4824896324697
 20
-3.999928113149324
 30
0.0
 10
236.9319633739267
 20
-3.999928113149324
 30
0.0
 10
236.9319633739267
 20
-3.999928113149324
 30
0.0
 10
228.3312824950005
 20
-3.999928113149324
 30
0.0
 10
228.3312824950005
 20
-3.999928113149324
 30
0.0
 10
227.7773111409724
 20
-3.999928113149324
 30
0.0
 10
227.3294487278899
 20
-4.447790526231802
 30
0.0
 10
227.3294487278899
 20
-5.001761880259976
 30
0.0
 10
227.3294487278899
 20
-5.001761880259976
 30
0.0
 10
227.3294487278899
 20
-6.998539223510782
 30
0.0
 10
227.3294487278899
 20
-6.998539223510782
 30
0.0
 10
227.3294487278899
 20
-6.998539223510782
 30
0.0
 10
216.7319905057128
 20
-6.998539223510782
 30
0.0
 10
216.7319905057128
 20
-6.998539223510782
 30
0.0
 10
216.7319905057128
 20
-6.998539223510782
 30
0.0
 10
216.7319905057128
 20
-5.001761880259976
 30
0.0
 10
216.7319905057128
 20
-5.001761880259976
 30
0.0
 10
216.7319905057128
 20
-4.447790526231802
 30
0.0
 10
216.2837835830818
 20
-3.999928113149324
 30
0.0
 10
215.7301567386022
 20
-3.999928113149324
 30
0.0
 10
215.7301567386022
 20
-3.999928113149324
 30
0.0
 10
207.1329209551612
 20
-3.999928113149324
 30
0.0
 10
207.1329209551612
 20
-3.999928113149324
 30
0.0
 10
206.578949601133
 20
-3.999928113149324
 30
0.0
 10
206.1310871880506
 20
-4.447790526231802
 30
0.0
 10
206.1310871880506
 20
-5.001761880259976
 30
0.0
 10
206.1310871880506
 20
-5.001761880259976
 30
0.0
 10
206.1310871880506
 20
-6.998539223510782
 30
0.0
 10
206.1310871880506
 20
-6.998539223510782
 30
0.0
 10
206.1310871880506
 20
-6.998539223510782
 30
0.0
 10
198.5284504712012
 20
-6.998539223510782
 30
0.0
 10
198.5284504712012
 20
-6.998539223510782
 30
0.0
 10
198.5284504712012
 20
-6.998539223510782
 30
0.0
 10
198.5284504712012
 20
-18.00148518430171
 30
0.0
 10
198.5284504712012
 20
-18.00148518430171
 30
0.0
 10
198.5284504712012
 20
-18.00148518430171
 30
0.0
 10
196.5282280324652
 20
-18.00148518430171
 30
0.0
 10
196.5282280324652
 20
-18.00148518430171
 30
0.0
 10
195.9780462834708
 20
-18.00148518430171
 30
0.0
 10
195.5298393608398
 20
-18.44624701144747
 30
0.0
 10
195.5298393608398
 20
-18.99987385592712
 30
0.0
 10
195.5298393608398
 20
-18.99987385592712
 30
0.0
 10
195.5298393608398
 20
-27.99949679204527
 30
0.0
 10
195.5298393608398
 20
-27.99949679204527
 30
0.0
 10
195.5298393608398
 20
-28.55312363652492
 30
0.0
 10
195.9780462834708
 20
-28.99754095412214
 30
0.0
 10
196.5282280324652
 20
-28.99754095412214
 30
0.0
 10
196.5282280324652
 20
-28.99754095412214
 30
0.0
 10
198.5284504712012
 20
-28.99754095412214
 30
0.0
 10
198.5284504712012
 20
-28.99754095412214
 30
0.0
 10
198.5284504712012
 20
-28.99754095412214
 30
0.0
 10
198.5284504712012
 20
-40.0008314244616
 30
0.0
 10
198.5284504712012
 20
-40.0008314244616
 30
0.0
 10
198.5284504712012
 20
-40.0008314244616
 30
0.0
 10
196.5282280324652
 20
-40.0008314244616
 30
0.0
 10
196.5282280324652
 20
-40.0008314244616
 30
0.0
  0
POLYLINE
  5
EA
330
1F
100
AcDbEntity
  8
LAYER_1
100
AcDb2dPolyline
 66
     1
 10
0.0
 20
0.0
 30
0.0
  0
VERTEX
  5
EB
330
EA
100
AcDbEntity
  8
LAYER_1
100
AcDbVertex
100
AcDb2dVertex
 10
225.4315456250657
 20
-18.42867702447269
 30
0.0
  0
VERTEX
  5
EC
330
EA
100
AcDbEntity
  8
LAYER_1
100
AcDbVertex
100
AcDb2dVertex
 10
228.627560706732
 20
-18.42867702447269
 30
0.0
  0
VERTEX
  5
ED
330
EA
100
AcDbEntity
  8
LAYER_1
100
AcDbVertex
100
AcDb2dVertex
 10
228.627560706732
 20
-29.85502522040083
 30
0.0
  0
VERTEX
  5
EE
330
EA
100
AcDbEntity
  8
LAYER_1
100
AcDbVertex
100
AcDb2dVertex
 10
225.4315456250657
 20
-29.85502522040083
 30
0.0
  0
VERTEX
  5
EF
330
EA
100
AcDbEntity
  8
LAYER_1
100
AcDbVertex
100
AcDb2dVertex
 10
225.4315456250657
 20
-18.42867702447269
 30
0.0
  0
SEQEND
  5
F0
330
EA
100
AcDbEntity
  8
LAYER_1
  0
POLYLINE
  5
F1
330
1F
100
AcDbEntity
  8
LAYER_1
100
AcDb2dPolyline
 66
     1
 10
0.0
 20
0.0
 30
0.0
  0
VERTEX
  5
F2
330
F1
100
AcDbEntity
  8
LAYER_1
100
AcDbVertex
100
AcDb2dVertex
 10
225.4315456250657
 20
-41.28481851181422
 30
0.0
  0
VERTEX
  5
F3
330
F1
100
AcDbEntity
  8
LAYER_1
100
AcDbVertex
100
AcDb2dVertex
 10
228.627560706732
 20
-41.28481851181422
 30
0.0
  0
VERTEX
  5
F4
330
F1
100
AcDbEntity
  8
LAYER_1
100
AcDbVertex
100
AcDb2dVertex
 10
228.627560706732
 20
-52.71495631277612
 30
0.0
  0
VERTEX
  5
F5
330
F1
100
AcDbEntity
  8
LAYER_1
100
AcDbVertex
100
AcDb2dVertex
 10
225.4315456250657
 20
-52.71495631277612
 30
0.0
  0
VERTEX
  5
F6
330
F1
100
AcDbEntity
  8
LAYER_1
100
AcDbVertex
100
AcDb2dVertex
 10
225.4315456250657
 20
-41.28481851181422
 30
0.0
  0
SEQEND
  5
F7
330
F1
100
AcDbEntity
  8
LAYER_1
  0
POLYLINE
  5
F8
330
1F
100
AcDbEntity
  8
LAYER_1
100
AcDb2dPolyline
 66
     1
 10
0.0
 20
0.0
 30
0.0
  0
VERTEX
  5
F9
330
F8
100
AcDbEntity
  8
LAYER_1
100
AcDbVertex
100
AcDb2dVertex
 10
225.4315456250657
 20
-64.14164901825278
 30
0.0
  0
VERTEX
  5
FA
330
F8
100
AcDbEntity
  8
LAYER_1
100
AcDbVertex
100
AcDb2dVertex
 10
228.627560706732
 20
-64.14164901825278
 30
0.0
  0
VERTEX
  5
FB
330
F8
100
AcDbEntity
  8
LAYER_1
100
AcDbVertex
100
AcDb2dVertex
 10
228.627560706732
 20
-75.57144230966617
 30
0.0
  0
VERTEX
  5
FC
330
F8
100
AcDbEntity
  8
LAYER_1
100
AcDbVertex
100
AcDb2dVertex
 10
225.4315456250657
 20
-75.57144230966617
 30
0.0
  0
VERTEX
  5
FD
330
F8
100
AcDbEntity
  8
LAYER_1
100
AcDbVertex
100
AcDb2dVertex
 10
225.4315456250657
 20
-64.14164901825278
 30
0.0
  0
SEQEND
  5
FE
330
F8
100
AcDbEntity
  8
LAYER_1
  0
SPLINE
  5
FF
330
1F
100
AcDbEntity
  8
LAYER_1
100
AcDbSpline
210
0.0
220
0.0
230
1.0
 70
     8
 71
     3
 72
   110
 73
   106
 74
     0
 42
0.0000000001
 43
0.0000000001
 40
0.0
 40
0.0
 40
0.0
 40
0.0
 40
1.0
 40
1.0
 40
1.0
 40
2.0
 40
2.0
 40
2.0
 40
3.0
 40
3.0
 40
3.0
 40
4.0
 40
4.0
 40
4.0
 40
5.0
 40
5.0
 40
5.0
 40
6.0
 40
6.0
 40
6.0
 40
7.0
 40
7.0
 40
7.0
 40
8.0
 40
8.0
 40
8.0
 40
9.0
 40
9.0
 40
9.0
 40
10.0
 40
10.0
 40
10.0
 40
11.0
 40
11.0
 40
11.0
 40
12.0
 40
12.0
 40
12.0
 40
13.0
 40
13.0
 40
13.0
 40
14.0
 40
14.0
 40
14.0
 40
15.0
 40
15.0
 40
15.0
 40
16.0
 40
16.0
 40
16.0
 40
17.0
 40
17.0
 40
17.0
 40
18.0
 40
18.0
 40
18.0
 40
19.0
 40
19.0
 40
19.0
 40
20.0
 40
20.0
 40
20.0
 40
21.0
 40
21.0
 40
21.0
 40
22.0
 40
22.0
 40
22.0
 40
23.0
 40
23.0
 40
23.0
 40
24.0
 40
24.0
 40
24.0
 40
25.0
 40
25.0
 40
25.0
 40
26.0
 40
26.0
 40
26.0
 40
27.0
 40
27.0
 40
27.0
 40
28.0
 40
28.0
 40
28.0
 40
29.0
 40
29.0
 40
29.0
 40
30.0
 40
30.0
 40
30.0
 40
31.0
 40
31.0
 40
31.0
 40
32.0
 40
32.0
 40
32.0
 40
33.0
 40
33.0
 40
33.0
 40
34.0
 40
34.0
 40
34.0
 40
35.0
 40
35.0
 40
35.0
 40
35.0
 10
248.5312553632144
 20
-74.57305363804076
 30
0.0
 10
248.5312553632144
 20
-75.0918850181194
 30
0.0
 10
248.9264078153726
 20
-75.51873234874185
 30
0.0
 10
249.4307697944132
 20
-75.57144230966617
 30
0.0
 10
249.4307697944132
 20
-75.57144230966617
 30
0.0
 10
251.5333115690611
 20
-75.57144230966617
 30
0.0
 10
251.5333115690611
 20
-75.57144230966617
 30
0.0
 10
251.5333115690611
 20
-75.57144230966617
 30
0.0
 10
251.5333115690611
 20
-87.00158011062808
 30
0.0
 10
251.5333115690611
 20
-87.00158011062808
 30
0.0
 10
251.5333115690611
 20
-87.00158011062808
 30
0.0
 10
259.1321586808767
 20
-87.00158011062808
 30
0.0
 10
259.1321586808767
 20
-87.00158011062808
 30
0.0
 10
259.1321586808767
 20
-87.00158011062808
 30
0.0
 10
259.1321586808767
 20
-88.99835745387888
 30
0.0
 10
259.1321586808767
 20
-88.99835745387888
 30
0.0
 10
259.1321586808767
 20
-89.55232880790706
 30
0.0
 10
259.5800210939591
 20
-90.00019122098954
 30
0.0
 10
260.1305473525021
 20
-90.00019122098954
 30
0.0
 10
260.1305473525021
 20
-90.00019122098954
 30
0.0
 10
268.7312282314283
 20
-90.00019122098954
 30
0.0
 10
268.7312282314283
 20
-90.00019122098954
 30
0.0
 10
269.2851995854565
 20
-90.00019122098954
 30
0.0
 10
269.733061998539
 20
-89.55232880790706
 30
0.0
 10
269.733061998539
 20
-88.99835745387888
 30
0.0
 10
269.733061998539
 20
-88.99835745387888
 30
0.0
 10
269.733061998539
 20
-87.00158011062808
 30
0.0
 10
269.733061998539
 20
-87.00158011062808
 30
0.0
 10
269.733061998539
 20
-87.00158011062808
 30
0.0
 10
280.330520220716
 20
-87.00158011062808
 30
0.0
 10
280.330520220716
 20
-87.00158011062808
 30
0.0
 10
280.330520220716
 20
-87.00158011062808
 30
0.0
 10
280.330520220716
 20
-88.99835745387888
 30
0.0
 10
280.330520220716
 20
-88.99835745387888
 30
0.0
 10
280.330520220716
 20
-89.55232880790706
 30
0.0
 10
280.778727143347
 20
-90.00019122098954
 30
0.0
 10
281.3323539878267
 20
-90.00019122098954
 30
0.0
 10
281.3323539878267
 20
-90.00019122098954
 30
0.0
 10
289.9295897712676
 20
-90.00019122098954
 30
0.0
 10
289.9295897712676
 20
-90.00019122098954
 30
0.0
 10
290.4835611252958
 20
-90.00019122098954
 30
0.0
 10
290.9314235383783
 20
-89.55232880790706
 30
0.0
 10
290.9314235383783
 20
-88.99835745387888
 30
0.0
 10
290.9314235383783
 20
-88.99835745387888
 30
0.0
 10
290.9314235383783
 20
-87.00158011062808
 30
0.0
 10
290.9314235383783
 20
-87.00158011062808
 30
0.0
 10
290.9314235383783
 20
-87.00158011062808
 30
0.0
 10
298.5340602552276
 20
-87.00158011062808
 30
0.0
 10
298.5340602552276
 20
-87.00158011062808
 30
0.0
 10
298.5340602552276
 20
-87.00158011062808
 30
0.0
 10
298.5340602552276
 20
-75.99863414983714
 30
0.0
 10
298.5340602552276
 20
-75.99863414983714
 30
0.0
 10
298.5340602552276
 20
-75.99863414983714
 30
0.0
 10
300.5342826939637
 20
-75.99863414983714
 30
0.0
 10
300.5342826939637
 20
-75.99863414983714
 30
0.0
 10
301.0844644429581
 20
-75.99863414983714
 30
0.0
 10
301.5326713655891
 20
-75.55387232269139
 30
0.0
 10
301.5326713655891
 20
-75.00024547821175
 30
0.0
 10
301.5326713655891
 20
-75.00024547821175
 30
0.0
 10
301.5326713655891
 20
-66.0006225420936
 30
0.0
 10
301.5326713655891
 20
-66.0006225420936
 30
0.0
 10
301.5326713655891
 20
-65.44699569761394
 30
0.0
 10
301.0844644429581
 20
-65.00257838001671
 30
0.0
 10
300.5342826939637
 20
-65.00257838001671
 30
0.0
 10
300.5342826939637
 20
-65.00257838001671
 30
0.0
 10
298.5340602552276
 20
-65.00257838001671
 30
0.0
 10
298.5340602552276
 20
-65.00257838001671
 30
0.0
 10
298.5340602552276
 20
-65.00257838001671
 30
0.0
 10
298.5340602552276
 20
-53.99928790967726
 30
0.0
 10
298.5340602552276
 20
-53.99928790967726
 30
0.0
 10
298.5340602552276
 20
-53.99928790967726
 30
0.0
 10
300.5342826939637
 20
-53.99928790967726
 30
0.0
 10
300.5342826939637
 20
-53.99928790967726
 30
0.0
 10
301.0844644429581
 20
-53.99928790967726
 30
0.0
 10
301.5326713655891
 20
-53.55108098704626
 30
0.0
 10
301.5326713655891
 20
-52.99710963301808
 30
0.0
 10
301.5326713655891
 20
-52.99710963301808
 30
0.0
 10
301.5326713655891
 20
-43.99783120644846
 30
0.0
 10
301.5326713655891
 20
-43.99783120644846
 30
0.0
 10
301.5326713655891
 20
-43.44385985242029
 30
0.0
 10
301.0844644429581
 20
-42.99944253482306
 30
0.0
 10
300.5342826939637
 20
-42.99944253482306
 30
0.0
 10
300.5342826939637
 20
-42.99944253482306
 30
0.0
 10
298.5340602552276
 20
-42.99944253482306
 30
0.0
 10
298.5340602552276
 20
-42.99944253482306
 30
0.0
 10
298.5340602552276
 20
-42.99944253482306
 30
0.0
 10
298.5340602552276
 20
-31.99994166951738
 30
0.0
 10
298.5340602552276
 20
-31.99994166951738
 30
0.0
 10
283.6925889047713
 20
-31.99994166951738
 30
0.0
 10
280.330520220716
 20
-6.998539223510782
 30
0.0
 10
270.0331298153042
 20
-6.998539223510782
 30
0.0
 10
264.1909368914176
 20
-6.998539223510782
 30
0.0
 10
265.5421033407325
 20
-8.332135685850995
 30
0.0
 10
260.4092555772588
 20
-8.332135685850995
 30
0.0
 10
257.4705891283407
 20
-8.332135685850995
 30
0.0
 10
256.6485893455601
 20
-6.998539223510782
 30
0.0
 10
251.5333115690611
 20
-6.998539223510782
 30
0.0
 10
251.5333115690611
 20
-6.998539223510782
 30
0.0
 10
251.5333115690611
 20
-18.42867702447269
 30
0.0
 10
251.5333115690611
 20
-18.42867702447269
 30
0.0
 10
251.5333115690611
 20
-18.42867702447269
 30
0.0
 10
249.5330891303251
 20
-18.42867702447269
 30
0.0
 10
249.5330891303251
 20
-18.42867702447269
 30
0.0
 10
248.9791177762969
 20
-18.42867702447269
 30
0.0
 10
248.5312553632144
 20
-18.87309434206992
 30
0.0
 10
248.5312553632144
 20
-19.4270656960981
 30
0.0
  0
SPLINE
  5
100
330
1F
100
AcDbEntity
  8
LAYER_1
100
AcDbSpline
210
0.0
220
0.0
230
1.0
 70
     8
 71
     3
 72
    20
 73
    16
 74
     0
 42
0.0000000001
 43
0.0000000001
 40
0.0
 40
0.0
 40
0.0
 40
0.0
 40
1.0
 40
1.0
 40
1.0
 40
2.0
 40
2.0
 40
2.0
 40
3.0
 40
3.0
 40
3.0
 40
4.0
 40
4.0
 40
4.0
 40
5.0
 40
5.0
 40
5.0
 40
5.0
 10
248.5312553632144
 20
-51.71312254566547
 30
0.0
 10
248.5312553632144
 20
-52.26709389969365
 30
0.0
 10
248.9791177762969
 20
-52.71530082232465
 30
0.0
 10
249.5330891303251
 20
-52.71530082232465
 30
0.0
 10
249.5330891303251
 20
-52.71530082232465
 30
0.0
 10
251.5333115690611
 20
-52.71530082232465
 30
0.0
 10
251.5333115690611
 20
-52.71530082232465
 30
0.0
 10
251.5333115690611
 20
-52.71530082232465
 30
0.0
 10
251.5333115690611
 20
-64.14509411373804
 30
0.0
 10
251.5333115690611
 20
-64.14509411373804
 30
0.0
 10
251.5333115690611
 20
-64.14509411373804
 30
0.0
 10
249.5330891303251
 20
-64.14509411373804
 30
0.0
 10
249.5330891303251
 20
-64.14509411373804
 30
0.0
 10
248.9791177762969
 20
-64.14509411373804
 30
0.0
 10
248.5312553632144
 20
-64.58951143133527
 30
0.0
 10
248.5312553632144
 20
-65.14348278536343
 30
0.0
  0
SPLINE
  5
101
330
1F
100
AcDbEntity
  8
LAYER_1
100
AcDbSpline
210
0.0
220
0.0
230
1.0
 70
     8
 71
     3
 72
    20
 73
    16
 74
     0
 42
0.0000000001
 43
0.0000000001
 40
0.0
 40
0.0
 40
0.0
 40
0.0
 40
1.0
 40
1.0
 40
1.0
 40
2.0
 40
2.0
 40
2.0
 40
3.0
 40
3.0
 40
3.0
 40
4.0
 40
4.0
 40
4.0
 40
5.0
 40
5.0
 40
5.0
 40
5.0
 10
248.5312553632144
 20
-28.85663654877543
 30
0.0
 10
248.5312553632144
 20
-29.4106079028036
 30
0.0
 10
248.9791177762969
 20
-29.85847031588608
 30
0.0
 10
249.5330891303251
 20
-29.85847031588608
 30
0.0
 10
249.5330891303251
 20
-29.85847031588608
 30
0.0
 10
251.5333115690611
 20
-29.85847031588608
 30
0.0
 10
251.5333115690611
 20
-29.85847031588608
 30
0.0
 10
251.5333115690611
 20
-29.85847031588608
 30
0.0
 10
251.5333115690611
 20
-41.28516302136274
 30
0.0
 10
251.5333115690611
 20
-41.28516302136274
 30
0.0
 10
251.5333115690611
 20
-41.28516302136274
 30
0.0
 10
249.5330891303251
 20
-41.28516302136274
 30
0.0
 10
249.5330891303251
 20
-41.28516302136274
 30
0.0
 10
248.9791177762969
 20
-41.28516302136274
 30
0.0
 10
248.5312553632144
 20
-41.72958033895997
 30
0.0
 10
248.5312553632144
 20
-42.28355169298814
 30
0.0
  0
POLYLINE
  5
102
330
1F
100
AcDbEntity
  8
LAYER_1
100
AcDb2dPolyline
 66
     1
 10
0.0
 20
0.0
 30
0.0
  0
VERTEX
  5
103
330
102
100
AcDbEntity
  8
LAYER_1
100
AcDbVertex
100
AcDb2dVertex
 10
271.6309651013631
 20
-75.57144230966617
 30
0.0
  0
VERTEX
  5
104
330
102
100
AcDbEntity
  8
LAYER_1
100
AcDbVertex
100
AcDb2dVertex
 10
268.4349500196968
 20
-75.57144230966617
 30
0.0
  0
VERTEX
  5
105
330
102
100
AcDbEntity
  8
LAYER_1
100
AcDbVertex
100
AcDb2dVertex
 10
268.4349500196968
 20
-64.14509411373804
 30
0.0
  0
VERTEX
  5
106
330
102
100
AcDbEntity
  8
LAYER_1
100
AcDbVertex
100
AcDb2dVertex
 10
271.6309651013631
 20
-64.14509411373804
 30
0.0
  0
VERTEX
  5
107
330
102
100
AcDbEntity
  8
LAYER_1
100
AcDbVertex
100
AcDb2dVertex
 10
271.6309651013631
 20
-75.57144230966617
 30
0.0
  0
SEQEND
  5
108
330
102
100
AcDbEntity
  8
LAYER_1
  0
POLYLINE
  5
109
330
1F
100
AcDbEntity
  8
LAYER_1
100
AcDb2dPolyline
 66
     1
 10
0.0
 20
0.0
 30
0.0
  0
VERTEX
  5
10A
330
109
100
AcDbEntity
  8
LAYER_1
100
AcDbVertex
100
AcDb2dVertex
 10
271.6309651013631
 20
-52.71530082232465
 30
0.0
  0
VERTEX
  5
10B
330
109
100
AcDbEntity
  8
LAYER_1
100
AcDbVertex
100
AcDb2dVertex
 10
268.4349500196968
 20
-52.71530082232465
 30
0.0
  0
VERTEX
  5
10C
330
109
100
AcDbEntity
  8
LAYER_1
100
AcDbVertex
100
AcDb2dVertex
 10
268.4349500196968
 20
-41.28516302136274
 30
0.0
  0
VERTEX
  5
10D
330
109
100
AcDbEntity
  8
LAYER_1
100
AcDbVertex
100
AcDb2dVertex
 10
271.6309651013631
 20
-41.28516302136274
 30
0.0
  0
VERTEX
  5
10E
330
109
100
AcDbEntity
  8
LAYER_1
100
AcDbVertex
100
AcDb2dVertex
 10
271.6309651013631
 20
-52.71530082232465
 30
0.0
  0
SEQEND
  5
10F
330
109
100
AcDbEntity
  8
LAYER_1
  0
POLYLINE
  5
110
330
1F
100
AcDbEntity
  8
LAYER_1
100
AcDb2dPolyline
 66
     1
 10
0.0
 20
0.0
 30
0.0
  0
VERTEX
  5
111
330
110
100
AcDbEntity
  8
LAYER_1
100
AcDbVertex
100
AcDb2dVertex
 10
271.6309651013631
 20
-29.85847031588608
 30
0.0
  0
VERTEX
  5
112
330
110
100
AcDbEntity
  8
LAYER_1
100
AcDbVertex
100
AcDb2dVertex
 10
268.4349500196968
 20
-29.85847031588608
 30
0.0
  0
VERTEX
  5
113
330
110
100
AcDbEntity
  8
LAYER_1
100
AcDbVertex
100
AcDb2dVertex
 10
268.4349500196968
 20
-18.42867702447269
 30
0.0
  0
VERTEX
  5
114
330
110
100
AcDbEntity
  8
LAYER_1
100
AcDbVertex
100
AcDb2dVertex
 10
271.6309651013631
 20
-18.42867702447269
 30
0.0
  0
VERTEX
  5
115
330
110
100
AcDbEntity
  8
LAYER_1
100
AcDbVertex
100
AcDb2dVertex
 10
271.6309651013631
 20
-29.85847031588608
 30
0.0
  0
SEQEND
  5
116
330
110
100
AcDbEntity
  8
LAYER_1
  0
SPLINE
  5
117
330
1F
100
AcDbEntity
  8
LAYER_1
100
AcDbSpline
210
0.0
220
0.0
230
1.0
 70
    11
 71
     3
 72
   125
 73
   121
 74
     0
 42
0.0000000001
 43
0.0000000001
 40
0.0
 40
0.0
 40
0.0
 40
0.0
 40
1.0
 40
1.0
 40
1.0
 40
2.0
 40
2.0
 40
2.0
 40
3.0
 40
3.0
 40
3.0
 40
4.0
 40
4.0
 40
4.0
 40
5.0
 40
5.0
 40
5.0
 40
6.0
 40
6.0
 40
6.0
 40
7.0
 40
7.0
 40
7.0
 40
8.0
 40
8.0
 40
8.0
 40
9.0
 40
9.0
 40
9.0
 40
10.0
 40
10.0
 40
10.0
 40
11.0
 40
11.0
 40
11.0
 40
12.0
 40
12.0
 40
12.0
 40
13.0
 40
13.0
 40
13.0
 40
14.0
 40
14.0
 40
14.0
 40
15.0
 40
15.0
 40
15.0
 40
16.0
 40
16.0
 40
16.0
 40
17.0
 40
17.0
 40
17.0
 40
18.0
 40
18.0
 40
18.0
 40
19.0
 40
19.0
 40
19.0
 40
20.0
 40
20.0
 40
20.0
 40
21.0
 40
21.0
 40
21.0
 40
22.0
 40
22.0
 40
22.0
 40
23.0
 40
23.0
 40
23.0
 40
24.0
 40
24.0
 40
24.0
 40
25.0
 40
25.0
 40
25.0
 40
26.0
 40
26.0
 40
26.0
 40
27.0
 40
27.0
 40
27.0
 40
28.0
 40
28.0
 40
28.0
 40
29.0
 40
29.0
 40
29.0
 40
30.0
 40
30.0
 40
30.0
 40
31.0
 40
31.0
 40
31.0
 40
32.0
 40
32.0
 40
32.0
 40
33.0
 40
33.0
 40
33.0
 40
34.0
 40
34.0
 40
34.0
 40
35.0
 40
35.0
 40
35.0
 40
36.0
 40
36.0
 40
36.0
 40
37.0
 40
37.0
 40
37.0
 40
38.0
 40
38.0
 40
38.0
 40
39.0
 40
39.0
 40
39.0
 40
40.0
 40
40.0
 40
40.0
 40
40.0
 10
62.00000540984723
 20
-109.8477308210624
 30
0.0
 10
62.00000540984723
 20
-109.8477308210624
 30
0.0
 10
62.00000540984723
 20
-100.3261759189289
 30
0.0
 10
62.00000540984723
 20
-100.3261759189289
 30
0.0
 10
62.00000540984723
 20
-100.3261759189289
 30
0.0
 10
59.00139429948577
 20
-100.3261759189289
 30
0.0
 10
59.00139429948577
 20
-100.3261759189289
 30
0.0
 10
59.00139429948577
 20
-100.3261759189289
 30
0.0
 10
59.00139429948577
 20
-94.2548841452731
 30
0.0
 10
59.00139429948577
 20
-94.2548841452731
 30
0.0
 10
59.00139429948577
 20
-94.2548841452731
 30
0.0
 10
48.15347763553108
 20
-94.2548841452731
 30
0.0
 10
48.15347763553108
 20
-94.2548841452731
 30
0.0
 10
48.15347763553108
 20
-94.2548841452731
 30
0.0
 10
48.15347763553108
 20
-91.25627303491163
 30
0.0
 10
48.15347763553108
 20
-91.25627303491163
 30
0.0
 10
48.15347763553108
 20
-91.25627303491163
 30
0.0
 10
36.85425346300866
 20
-91.25627303491163
 30
0.0
 10
36.85425346300866
 20
-91.25627303491163
 30
0.0
 10
36.85425346300866
 20
-91.25627303491163
 30
0.0
 10
36.85425346300866
 20
-94.2548841452731
 30
0.0
 10
36.85425346300866
 20
-94.2548841452731
 30
0.0
 10
36.85425346300866
 20
-94.2548841452731
 30
0.0
 10
26.1508585546602
 20
-94.2548841452731
 30
0.0
 10
26.1508585546602
 20
-94.2548841452731
 30
0.0
 10
26.1508585546602
 20
-94.2548841452731
 30
0.0
 10
26.1508585546602
 20
-91.25627303491163
 30
0.0
 10
26.1508585546602
 20
-91.25627303491163
 30
0.0
 10
26.1508585546602
 20
-91.25627303491163
 30
0.0
 10
14.85146212736352
 20
-91.25627303491163
 30
0.0
 10
14.85146212736352
 20
-91.25627303491163
 30
0.0
 10
14.85146212736352
 20
-91.25627303491163
 30
0.0
 10
14.85146212736352
 20
-94.2548841452731
 30
0.0
 10
14.85146212736352
 20
-94.2548841452731
 30
0.0
 10
14.85146212736352
 20
-94.2548841452731
 30
0.0
 10
3.999928113149324
 20
-94.2548841452731
 30
0.0
 10
3.999928113149324
 20
-94.2548841452731
 30
0.0
 10
3.999928113149324
 20
-108.0628268501544
 30
0.0
 10
12.02562255558735
 20
-108.277800808434
 30
0.0
 10
12.02562255558735
 20
-118.9248684055986
 30
0.0
 10
12.02562255558735
 20
-128.1887301654355
 30
0.0
 10
3.999928113149324
 20
-131.3461601776669
 30
0.0
 10
3.999928113149324
 20
-142.6350490637336
 30
0.0
 10
3.999928113149324
 20
-153.0561183970658
 30
0.0
 10
6.733955890243594
 20
-151.4262437229941
 30
0.0
 10
6.733955890243594
 20
-159.0392157262992
 30
0.0
 10
6.733955890243594
 20
-164.7046752517926
 30
0.0
 10
3.999928113149324
 20
-166.3593546133581
 30
0.0
 10
3.999928113149324
 20
-171.2558688265437
 30
0.0
 10
3.999928113149324
 20
-171.2558688265437
 30
0.0
 10
3.999928113149324
 20
-174.2544799369051
 30
0.0
 10
3.999928113149324
 20
-174.2544799369051
 30
0.0
 10
3.999928113149324
 20
-174.2544799369051
 30
0.0
 10
14.99960123322927
 20
-174.2544799369051
 30
0.0
 10
14.99960123322927
 20
-174.2544799369051
 30
0.0
 10
14.99960123322927
 20
-174.2544799369051
 30
0.0
 10
14.99960123322927
 20
-171.2558688265437
 30
0.0
 10
14.99960123322927
 20
-171.2558688265437
 30
0.0
 10
14.99960123322927
 20
-171.2558688265437
 30
0.0
 10
25.99910209853495
 20
-171.2558688265437
 30
0.0
 10
25.99910209853495
 20
-171.2558688265437
 30
0.0
 10
25.99910209853495
 20
-171.2558688265437
 30
0.0
 10
25.99910209853495
 20
-174.2544799369051
 30
0.0
 10
25.99910209853495
 20
-174.2544799369051
 30
0.0
 10
25.99910209853495
 20
-174.2544799369051
 30
0.0
 10
37.00239256887441
 20
-174.2544799369051
 30
0.0
 10
37.00239256887441
 20
-174.2544799369051
 30
0.0
 10
37.00239256887441
 20
-174.2544799369051
 30
0.0
 10
37.00239256887441
 20
-171.2558688265437
 30
0.0
 10
37.00239256887441
 20
-171.2558688265437
 30
0.0
 10
37.00239256887441
 20
-171.2558688265437
 30
0.0
 10
48.00189343418008
 20
-171.2558688265437
 30
0.0
 10
48.00189343418008
 20
-171.2558688265437
 30
0.0
 10
48.00189343418008
 20
-171.2558688265437
 30
0.0
 10
48.00189343418008
 20
-174.2544799369051
 30
0.0
 10
48.00189343418008
 20
-174.2544799369051
 30
0.0
 10
48.00189343418008
 20
-174.2544799369051
 30
0.0
 10
59.00139429948577
 20
-174.2544799369051
 30
0.0
 10
59.00139429948577
 20
-174.2544799369051
 30
0.0
 10
59.00139429948577
 20
-174.2544799369051
 30
0.0
 10
59.00139429948577
 20
-165.1811319574026
 30
0.0
 10
59.00139429948577
 20
-165.1811319574026
 30
0.0
 10
59.00139429948577
 20
-165.1811319574026
 30
0.0
 10
62.00000540984723
 20
-165.1811319574026
 30
0.0
 10
62.00000540984723
 20
-165.1811319574026
 30
0.0
 10
62.00000540984723
 20
-165.1811319574026
 30
0.0
 10
62.00000540984723
 20
-155.6595770552692
 30
0.0
 10
62.00000540984723
 20
-155.6595770552692
 30
0.0
 10
62.00000540984723
 20
-155.6595770552692
 30
0.0
 10
59.00139429948577
 20
-155.6595770552692
 30
0.0
 10
59.00139429948577
 20
-155.6595770552692
 30
0.0
 10
59.00139429948577
 20
-155.6595770552692
 30
0.0
 10
59.00139429948577
 20
-146.7378132771176
 30
0.0
 10
59.00139429948577
 20
-146.7378132771176
 30
0.0
 10
59.00139429948577
 20
-146.7378132771176
 30
0.0
 10
62.00000540984723
 20
-146.7378132771176
 30
0.0
 10
62.00000540984723
 20
-146.7378132771176
 30
0.0
 10
62.00000540984723
 20
-146.7378132771176
 30
0.0
 10
62.00000540984723
 20
-137.2162583749841
 30
0.0
 10
62.00000540984723
 20
-137.2162583749841
 30
0.0
 10
62.00000540984723
 20
-137.2162583749841
 30
0.0
 10
59.00139429948577
 20
-137.2162583749841
 30
0.0
 10
59.00139429948577
 20
-137.2162583749841
 30
0.0
 10
59.00139429948577
 20
-137.2162583749841
 30
0.0
 10
59.00139429948577
 20
-128.2944945968326
 30
0.0
 10
59.00139429948577
 20
-128.2944945968326
 30
0.0
 10
59.00139429948577
 20
-128.2944945968326
 30
0.0
 10
62.00000540984723
 20
-128.2944945968326
 30
0.0
 10
62.00000540984723
 20
-128.2944945968326
 30
0.0
 10
62.00000540984723
 20
-128.2944945968326
 30
0.0
 10
62.00000540984723
 20
-118.7729396946991
 30
0.0
 10
62.00000540984723
 20
-118.7729396946991
 30
0.0
 10
62.00000540984723
 20
-118.7729396946991
 30
0.0
 10
59.00139429948577
 20
-118.7729396946991
 30
0.0
 10
59.00139429948577
 20
-118.7729396946991
 30
0.0
 10
59.00139429948577
 20
-118.7729396946991
 30
0.0
 10
59.00139429948577
 20
-109.8477308210624
 30
0.0
 10
59.00139429948577
 20
-109.8477308210624
 30
0.0
 10
59.00139429948577
 20
-109.8477308210624
 30
0.0
 10
62.00000540984723
 20
-109.8477308210624
 30
0.0
 10
62.00000540984723
 20
-109.8477308210624
 30
0.0
  0
POLYLINE
  5
118
330
1F
100
AcDbEntity
  8
LAYER_1
100
AcDb2dPolyline
 66
     1
 10
0.0
 20
0.0
 30
0.0
  0
VERTEX
  5
119
330
118
100
AcDbEntity
  8
LAYER_1
100
AcDbVertex
100
AcDb2dVertex
 10
25.99910209853495
 20
-144.356563277713
 30
0.0
  0
VERTEX
  5
11A
330
118
100
AcDbEntity
  8
LAYER_1
100
AcDbVertex
100
AcDb2dVertex
 10
14.99960123322927
 20
-144.356563277713
 30
0.0
  0
VERTEX
  5
11B
330
118
100
AcDbEntity
  8
LAYER_1
100
AcDbVertex
100
AcDb2dVertex
 10
14.99960123322927
 20
-141.1567585910129
 30
0.0
  0
VERTEX
  5
11C
330
118
100
AcDbEntity
  8
LAYER_1
100
AcDbVertex
100
AcDb2dVertex
 10
25.99910209853495
 20
-141.1567585910129
 30
0.0
  0
VERTEX
  5
11D
330
118
100
AcDbEntity
  8
LAYER_1
100
AcDbVertex
100
AcDb2dVertex
 10
25.99910209853495
 20
-144.356563277713
 30
0.0
  0
SEQEND
  5
11E
330
118
100
AcDbEntity
  8
LAYER_1
  0
SPLINE
  5
11F
330
1F
100
AcDbEntity
  8
LAYER_1
100
AcDbSpline
210
0.0
220
0.0
230
1.0
 70
    11
 71
     3
 72
    23
 73
    19
 74
     0
 42
0.0000000001
 43
0.0000000001
 40
0.0
 40
0.0
 40
0.0
 40
0.0
 40
1.0
 40
1.0
 40
1.0
 40
2.0
 40
2.0
 40
2.0
 40
3.0
 40
3.0
 40
3.0
 40
4.0
 40
4.0
 40
4.0
 40
5.0
 40
5.0
 40
5.0
 40
6.0
 40
6.0
 40
6.0
 40
6.0
 10
31.8023654434383
 20
-136.8317857188302
 30
0.0
 10
29.63264430682795
 20
-136.8317857188302
 30
0.0
 10
27.83723279469
 20
-135.2690904067209
 30
0.0
 10
27.47377522099614
 20
-133.2051337015077
 30
0.0
 10
27.47377522099614
 20
-133.2051337015077
 30
0.0
 10
30.55007323454998
 20
-133.2051337015077
 30
0.0
 10
30.55007323454998
 20
-133.2051337015077
 30
0.0
 10
30.80742186729815
 20
-133.6250908411597
 30
0.0
 10
31.26975368141867
 20
-133.9072441614017
 30
0.0
 10
31.8023654434383
 20
-133.9072441614017
 30
0.0
 10
32.32808701448742
 20
-133.9072441614017
 30
0.0
 10
32.79351941454468
 20
-133.6250908411597
 30
0.0
 10
33.04776746135612
 20
-133.2051337015077
 30
0.0
 10
33.04776746135612
 20
-133.2051337015077
 30
0.0
 10
36.12733831562095
 20
-133.2051337015077
 30
0.0
 10
36.12733831562095
 20
-133.2051337015077
 30
0.0
 10
35.76422525147562
 20
-135.2690904067209
 30
0.0
 10
33.96485187952962
 20
-136.8317857188302
 30
0.0
 10
31.8023654434383
 20
-136.8317857188302
 30
0.0
  0
SPLINE
  5
120
330
1F
100
AcDbEntity
  8
LAYER_1
100
AcDbSpline
210
0.0
220
0.0
230
1.0
 70
    11
 71
     3
 72
    23
 73
    19
 74
     0
 42
0.0000000001
 43
0.0000000001
 40
0.0
 40
0.0
 40
0.0
 40
0.0
 40
1.0
 40
1.0
 40
1.0
 40
2.0
 40
2.0
 40
2.0
 40
3.0
 40
3.0
 40
3.0
 40
4.0
 40
4.0
 40
4.0
 40
5.0
 40
5.0
 40
5.0
 40
6.0
 40
6.0
 40
6.0
 40
6.0
 10
33.04776746135612
 20
-131.6813679683817
 30
0.0
 10
32.79351941454468
 20
-131.2579657332445
 30
0.0
 10
32.33153210997268
 20
-130.9792575084878
 30
0.0
 10
31.8023654434383
 20
-130.9792575084878
 30
0.0
 10
31.26975368141867
 20
-130.9792575084878
 30
0.0
 10
30.80742186729815
 20
-131.2579657332445
 30
0.0
 10
30.55007323454998
 20
-131.6813679683817
 30
0.0
 10
30.55007323454998
 20
-131.6813679683817
 30
0.0
 10
27.47377522099614
 20
-131.6813679683817
 30
0.0
 10
27.47377522099614
 20
-131.6813679683817
 30
0.0
 10
27.83361544443049
 20
-129.6174112631686
 30
0.0
 10
29.63264430682795
 20
-128.0474812505402
 30
0.0
 10
31.8023654434383
 20
-128.0474812505402
 30
0.0
 10
33.96485187952962
 20
-128.0474812505402
 30
0.0
 10
35.76422525147562
 20
-129.6174112631686
 30
0.0
 10
36.12733831562095
 20
-131.6813679683817
 30
0.0
 10
36.12733831562095
 20
-131.6813679683817
 30
0.0
 10
33.04776746135612
 20
-131.6813679683817
 30
0.0
 10
33.04776746135612
 20
-131.6813679683817
 30
0.0
  0
SPLINE
  5
121
330
1F
100
AcDbEntity
  8
LAYER_1
100
AcDbSpline
210
0.0
220
0.0
230
1.0
 70
    11
 71
     3
 72
    32
 73
    28
 74
     0
 42
0.0000000001
 43
0.0000000001
 40
0.0
 40
0.0
 40
0.0
 40
0.0
 40
1.0
 40
1.0
 40
1.0
 40
2.0
 40
2.0
 40
2.0
 40
3.0
 40
3.0
 40
3.0
 40
4.0
 40
4.0
 40
4.0
 40
5.0
 40
5.0
 40
5.0
 40
6.0
 40
6.0
 40
6.0
 40
7.0
 40
7.0
 40
7.0
 40
8.0
 40
8.0
 40
8.0
 40
9.0
 40
9.0
 40
9.0
 40
9.0
 10
31.8023654434383
 20
-127.5396741760144
 30
0.0
 10
31.8023654434383
 20
-127.5396741760144
 30
0.0
 10
24.57042100080184
 20
-127.5396741760144
 30
0.0
 10
24.57042100080184
 20
-127.5396741760144
 30
0.0
 10
24.57042100080184
 20
-127.5396741760144
 30
0.0
 10
24.57042100080184
 20
-124.6078979180668
 30
0.0
 10
24.57042100080184
 20
-124.6078979180668
 30
0.0
 10
24.57042100080184
 20
-124.6078979180668
 30
0.0
 10
27.65722655558569
 20
-124.6078979180668
 30
0.0
 10
27.65722655558569
 20
-124.6078979180668
 30
0.0
 10
27.57609455690806
 20
-124.3822441637829
 30
0.0
 10
27.51614989546471
 20
-124.14935570898
 30
0.0
 10
27.47377522099614
 20
-123.9061319677214
 30
0.0
 10
27.47377522099614
 20
-123.9061319677214
 30
0.0
 10
30.55007323454998
 20
-123.9061319677214
 30
0.0
 10
30.55007323454998
 20
-123.9061319677214
 30
0.0
 10
30.80742186729815
 20
-124.3291896933101
 30
0.0
 10
31.26975368141867
 20
-124.6078979180668
 30
0.0
 10
31.8023654434383
 20
-124.6078979180668
 30
0.0
 10
32.33153210997268
 20
-124.6078979180668
 30
0.0
 10
32.79351941454468
 20
-124.3291896933101
 30
0.0
 10
33.05121255684136
 20
-123.9061319677214
 30
0.0
 10
33.05121255684136
 20
-123.9061319677214
 30
0.0
 10
36.12733831562095
 20
-123.9061319677214
 30
0.0
 10
36.12733831562095
 20
-123.9061319677214
 30
0.0
 10
35.76422525147562
 20
-125.969744163386
 30
0.0
 10
33.96485187952962
 20
-127.5396741760144
 30
0.0
 10
31.8023654434383
 20
-127.5396741760144
 30
0.0
  0
SPLINE
  5
122
330
1F
100
AcDbEntity
  8
LAYER_1
100
AcDbSpline
210
0.0
220
0.0
230
1.0
 70
    11
 71
     3
 72
    23
 73
    19
 74
     0
 42
0.0000000001
 43
0.0000000001
 40
0.0
 40
0.0
 40
0.0
 40
0.0
 40
1.0
 40
1.0
 40
1.0
 40
2.0
 40
2.0
 40
2.0
 40
3.0
 40
3.0
 40
3.0
 40
4.0
 40
4.0
 40
4.0
 40
5.0
 40
5.0
 40
5.0
 40
6.0
 40
6.0
 40
6.0
 40
6.0
 10
33.05121255684136
 20
-122.3820217250469
 30
0.0
 10
32.79351941454468
 20
-121.9586194899097
 30
0.0
 10
32.32808701448742
 20
-121.6799112651529
 30
0.0
 10
31.8023654434383
 20
-121.6799112651529
 30
0.0
 10
31.26975368141867
 20
-121.6799112651529
 30
0.0
 10
30.80742186729815
 20
-121.9586194899097
 30
0.0
 10
30.55007323454998
 20
-122.3820217250469
 30
0.0
 10
30.55007323454998
 20
-122.3820217250469
 30
0.0
 10
27.47377522099614
 20
-122.3820217250469
 30
0.0
 10
27.47377522099614
 20
-122.3820217250469
 30
0.0
 10
27.83723279469
 20
-120.3184095293822
 30
0.0
 10
29.63264430682795
 20
-118.7519246122391
 30
0.0
 10
31.8023654434383
 20
-118.7519246122391
 30
0.0
 10
33.96485187952962
 20
-118.7519246122391
 30
0.0
 10
35.76422525147562
 20
-120.3184095293822
 30
0.0
 10
36.12733831562095
 20
-122.3820217250469
 30
0.0
 10
36.12733831562095
 20
-122.3820217250469
 30
0.0
 10
33.05121255684136
 20
-122.3820217250469
 30
0.0
 10
33.05121255684136
 20
-122.3820217250469
 30
0.0
  0
SPLINE
  5
123
330
1F
100
AcDbEntity
  8
LAYER_1
100
AcDbSpline
210
0.0
220
0.0
230
1.0
 70
    11
 71
     3
 72
    29
 73
    25
 74
     0
 42
0.0000000001
 43
0.0000000001
 40
0.0
 40
0.0
 40
0.0
 40
0.0
 40
1.0
 40
1.0
 40
1.0
 40
2.0
 40
2.0
 40
2.0
 40
3.0
 40
3.0
 40
3.0
 40
4.0
 40
4.0
 40
4.0
 40
5.0
 40
5.0
 40
5.0
 40
6.0
 40
6.0
 40
6.0
 40
7.0
 40
7.0
 40
7.0
 40
8.0
 40
8.0
 40
8.0
 40
8.0
 10
31.79892034795305
 20
-118.2403279326795
 30
0.0
 10
29.88689235363939
 20
-118.2403279326795
 30
0.0
 10
28.26046277505294
 20
-117.0162855067702
 30
0.0
 10
27.65722655558569
 20
-115.3123412797657
 30
0.0
 10
27.65722655558569
 20
-115.3123412797657
 30
0.0
 10
31.79892034795305
 20
-115.3123412797657
 30
0.0
 10
31.79892034795305
 20
-115.3123412797657
 30
0.0
 10
32.60679523924414
 20
-115.3123412797657
 30
0.0
 10
33.2627414196357
 20
-114.6560505898256
 30
0.0
 10
33.2627414196357
 20
-113.8447306030492
 30
0.0
 10
33.2627414196357
 20
-113.0368557117582
 30
0.0
 10
32.60679523924414
 20
-112.3843546268518
 30
0.0
 10
31.79892034795305
 20
-112.3843546268518
 30
0.0
 10
31.79892034795305
 20
-112.3843546268518
 30
0.0
 10
27.65722655558569
 20
-112.3843546268518
 30
0.0
 10
27.65722655558569
 20
-112.3843546268518
 30
0.0
 10
28.26046277505294
 20
-110.676965304362
 30
0.0
 10
29.88689235363939
 20
-109.456367973938
 30
0.0
 10
31.79892034795305
 20
-109.456367973938
 30
0.0
 10
34.22599011731156
 20
-109.456367973938
 30
0.0
 10
36.19107258209807
 20
-111.421105929176
 30
0.0
 10
36.19107258209807
 20
-113.8447306030492
 30
0.0
 10
36.19107258209807
 20
-116.2718003724078
 30
0.0
 10
34.22599011731156
 20
-118.2403279326795
 30
0.0
 10
31.79892034795305
 20
-118.2403279326795
 30
0.0
  0
SPLINE
  5
124
330
1F
100
AcDbEntity
  8
LAYER_1
100
AcDbSpline
210
0.0
220
0.0
230
1.0
 70
    11
 71
     3
 72
    23
 73
    19
 74
     0
 42
0.0000000001
 43
0.0000000001
 40
0.0
 40
0.0
 40
0.0
 40
0.0
 40
1.0
 40
1.0
 40
1.0
 40
2.0
 40
2.0
 40
2.0
 40
3.0
 40
3.0
 40
3.0
 40
4.0
 40
4.0
 40
4.0
 40
5.0
 40
5.0
 40
5.0
 40
6.0
 40
6.0
 40
6.0
 40
6.0
 10
27.47377522099614
 20
-105.3112290860854
 30
0.0
 10
27.47377522099614
 20
-105.3112290860854
 30
0.0
 10
30.55007323454998
 20
-105.3112290860854
 30
0.0
 10
30.55007323454998
 20
-105.3112290860854
 30
0.0
 10
30.80742186729815
 20
-105.7342868116741
 30
0.0
 10
31.26975368141867
 20
-106.0129950364308
 30
0.0
 10
31.8023654434383
 20
-106.0129950364308
 30
0.0
 10
32.32808701448742
 20
-106.0129950364308
 30
0.0
 10
32.79351941454468
 20
-105.7342868116741
 30
0.0
 10
33.05121255684136
 20
-105.3112290860854
 30
0.0
 10
33.05121255684136
 20
-105.3112290860854
 30
0.0
 10
36.12733831562095
 20
-105.3112290860854
 30
0.0
 10
36.12733831562095
 20
-105.3112290860854
 30
0.0
 10
35.76422525147562
 20
-107.3782863772353
 30
0.0
 10
33.96485187952962
 20
-108.9413261988932
 30
0.0
 10
31.8023654434383
 20
-108.9413261988932
 30
0.0
 10
29.63264430682795
 20
-108.9413261988932
 30
0.0
 10
27.83723279469
 20
-107.3782863772353
 30
0.0
 10
27.47377522099614
 20
-105.3112290860854
 30
0.0
  0
SPLINE
  5
125
330
1F
100
AcDbEntity
  8
LAYER_1
100
AcDbSpline
210
0.0
220
0.0
230
1.0
 70
    11
 71
     3
 72
    32
 73
    28
 74
     0
 42
0.0000000001
 43
0.0000000001
 40
0.0
 40
0.0
 40
0.0
 40
0.0
 40
1.0
 40
1.0
 40
1.0
 40
2.0
 40
2.0
 40
2.0
 40
3.0
 40
3.0
 40
3.0
 40
4.0
 40
4.0
 40
4.0
 40
5.0
 40
5.0
 40
5.0
 40
6.0
 40
6.0
 40
6.0
 40
7.0
 40
7.0
 40
7.0
 40
8.0
 40
8.0
 40
8.0
 40
9.0
 40
9.0
 40
9.0
 40
9.0
 10
35.94405923580565
 20
-103.0850083835169
 30
0.0
 10
36.02501897970902
 20
-103.3110066473493
 30
0.0
 10
36.08496364115237
 20
-103.5473401976375
 30
0.0
 10
36.12733831562095
 20
-103.7871188434109
 30
0.0
 10
36.12733831562095
 20
-103.7871188434109
 30
0.0
 10
33.05121255684136
 20
-103.7871188434109
 30
0.0
 10
33.05121255684136
 20
-103.7871188434109
 30
0.0
 10
32.79351941454468
 20
-103.3671617037589
 30
0.0
 10
32.33153210997268
 20
-103.0850083835169
 30
0.0
 10
31.8023654434383
 20
-103.0850083835169
 30
0.0
 10
31.26975368141867
 20
-103.0850083835169
 30
0.0
 10
30.80742186729815
 20
-103.3671617037589
 30
0.0
 10
30.55007323454998
 20
-103.7871188434109
 30
0.0
 10
30.55007323454998
 20
-103.7871188434109
 30
0.0
 10
27.47377522099614
 20
-103.7871188434109
 30
0.0
 10
27.47377522099614
 20
-103.7871188434109
 30
0.0
 10
27.83361544443049
 20
-101.7269517432315
 30
0.0
 10
29.63264430682795
 20
-100.1570217306031
 30
0.0
 10
31.8023654434383
 20
-100.1570217306031
 30
0.0
 10
31.8023654434383
 20
-100.1570217306031
 30
0.0
 10
39.0308647905895
 20
-100.1570217306031
 30
0.0
 10
39.0308647905895
 20
-100.1570217306031
 30
0.0
 10
39.0308647905895
 20
-100.1570217306031
 30
0.0
 10
39.0308647905895
 20
-103.0850083835169
 30
0.0
 10
39.0308647905895
 20
-103.0850083835169
 30
0.0
 10
39.0308647905895
 20
-103.0850083835169
 30
0.0
 10
35.94405923580565
 20
-103.0850083835169
 30
0.0
 10
35.94405923580565
 20
-103.0850083835169
 30
0.0
  0
POLYLINE
  5
126
330
1F
100
AcDbEntity
  8
LAYER_1
100
AcDb2dPolyline
 66
     1
 10
0.0
 20
0.0
 30
0.0
  0
VERTEX
  5
127
330
126
100
AcDbEntity
  8
LAYER_1
100
AcDbVertex
100
AcDb2dVertex
 10
48.00189343418008
 20
-144.356563277713
 30
0.0
  0
VERTEX
  5
128
330
126
100
AcDbEntity
  8
LAYER_1
100
AcDbVertex
100
AcDb2dVertex
 10
37.00239256887441
 20
-144.356563277713
 30
0.0
  0
VERTEX
  5
129
330
126
100
AcDbEntity
  8
LAYER_1
100
AcDbVertex
100
AcDb2dVertex
 10
37.00239256887441
 20
-141.1567585910129
 30
0.0
  0
VERTEX
  5
12A
330
126
100
AcDbEntity
  8
LAYER_1
100
AcDbVertex
100
AcDb2dVertex
 10
48.00189343418008
 20
-141.1567585910129
 30
0.0
  0
VERTEX
  5
12B
330
126
100
AcDbEntity
  8
LAYER_1
100
AcDbVertex
100
AcDb2dVertex
 10
48.00189343418008
 20
-144.356563277713
 30
0.0
  0
SEQEND
  5
12C
330
126
100
AcDbEntity
  8
LAYER_1
  0
SPLINE
  5
12D
330
1F
100
AcDbEntity
  8
LAYER_1
100
AcDbSpline
210
0.0
220
0.0
230
1.0
 70
     8
 71
     3
 72
    86
 73
    82
 74
     0
 42
0.0000000001
 43
0.0000000001
 40
0.0
 40
0.0
 40
0.0
 40
0.0
 40
1.0
 40
1.0
 40
1.0
 40
2.0
 40
2.0
 40
2.0
 40
3.0
 40
3.0
 40
3.0
 40
4.0
 40
4.0
 40
4.0
 40
5.0
 40
5.0
 40
5.0
 40
6.0
 40
6.0
 40
6.0
 40
7.0
 40
7.0
 40
7.0
 40
8.0
 40
8.0
 40
8.0
 40
9.0
 40
9.0
 40
9.0
 40
10.0
 40
10.0
 40
10.0
 40
11.0
 40
11.0
 40
11.0
 40
12.0
 40
12.0
 40
12.0
 40
13.0
 40
13.0
 40
13.0
 40
14.0
 40
14.0
 40
14.0
 40
15.0
 40
15.0
 40
15.0
 40
16.0
 40
16.0
 40
16.0
 40
17.0
 40
17.0
 40
17.0
 40
18.0
 40
18.0
 40
18.0
 40
19.0
 40
19.0
 40
19.0
 40
20.0
 40
20.0
 40
20.0
 40
21.0
 40
21.0
 40
21.0
 40
22.0
 40
22.0
 40
22.0
 40
23.0
 40
23.0
 40
23.0
 40
24.0
 40
24.0
 40
24.0
 40
25.0
 40
25.0
 40
25.0
 40
26.0
 40
26.0
 40
26.0
 40
27.0
 40
27.0
 40
27.0
 40
27.0
 10
62.00138344804132
 20
-165.1807874478541
 30
0.0
 10
62.00138344804132
 20
-165.1807874478541
 30
0.0
 10
64.99999455840278
 20
-165.1807874478541
 30
0.0
 10
64.99999455840278
 20
-165.1807874478541
 30
0.0
 10
64.99999455840278
 20
-165.1807874478541
 30
0.0
 10
64.99999455840278
 20
-171.2507011833158
 30
0.0
 10
64.99999455840278
 20
-171.2507011833158
 30
0.0
 10
64.99999455840278
 20
-171.2507011833158
 30
0.0
 10
75.84928926055157
 20
-171.2507011833158
 30
0.0
 10
75.84928926055157
 20
-171.2507011833158
 30
0.0
 10
75.84928926055157
 20
-171.2507011833158
 30
0.0
 10
75.84928926055157
 20
-174.2493122936773
 30
0.0
 10
75.84928926055157
 20
-174.2493122936773
 30
0.0
 10
75.84928926055157
 20
-174.2493122936773
 30
0.0
 10
87.14920245217104
 20
-174.2493122936773
 30
0.0
 10
87.14920245217104
 20
-174.2493122936773
 30
0.0
 10
87.14920245217104
 20
-174.2493122936773
 30
0.0
 10
87.14920245217104
 20
-171.2507011833158
 30
0.0
 10
87.14920245217104
 20
-171.2507011833158
 30
0.0
 10
87.14920245217104
 20
-171.2507011833158
 30
0.0
 10
97.85242510574523
 20
-171.2507011833158
 30
0.0
 10
97.85242510574523
 20
-171.2507011833158
 30
0.0
 10
97.85242510574523
 20
-171.2507011833158
 30
0.0
 10
97.85242510574523
 20
-174.2493122936773
 30
0.0
 10
97.85242510574523
 20
-174.2493122936773
 30
0.0
 10
97.85242510574523
 20
-174.2493122936773
 30
0.0
 10
109.1516492782677
 20
-174.2493122936773
 30
0.0
 10
109.1516492782677
 20
-174.2493122936773
 30
0.0
 10
109.1516492782677
 20
-174.2493122936773
 30
0.0
 10
109.1516492782677
 20
-171.2507011833158
 30
0.0
 10
109.1516492782677
 20
-171.2507011833158
 30
0.0
 10
109.1516492782677
 20
-171.2507011833158
 30
0.0
 10
120.0016329995135
 20
-171.2507011833158
 30
0.0
 10
120.0016329995135
 20
-171.2507011833158
 30
0.0
 10
120.0016329995135
 20
-157.4462035739197
 30
0.0
 10
111.9759385570755
 20
-157.2277845201549
 30
0.0
 10
111.9759385570755
 20
-146.5841620184755
 30
0.0
 10
111.9759385570755
 20
-137.3203002586387
 30
0.0
 10
120.0016329995135
 20
-134.1628702464072
 30
0.0
 10
120.0016329995135
 20
-122.8739813603405
 30
0.0
 10
120.0016329995135
 20
-112.4529120270083
 30
0.0
 10
117.2676052224192
 20
-114.08278670108
 30
0.0
 10
117.2676052224192
 20
-106.4698146977749
 30
0.0
 10
117.2676052224192
 20
-100.8009100767963
 30
0.0
 10
120.0016329995135
 20
-99.14967581071606
 30
0.0
 10
120.0016329995135
 20
-94.25316159753046
 30
0.0
 10
120.0016329995135
 20
-94.25316159753046
 30
0.0
 10
120.0016329995135
 20
-91.25110539168375
 30
0.0
 10
120.0016329995135
 20
-91.25110539168375
 30
0.0
 10
120.0016329995135
 20
-91.25110539168375
 30
0.0
 10
109.0017876246593
 20
-91.25110539168375
 30
0.0
 10
109.0017876246593
 20
-91.25110539168375
 30
0.0
 10
109.0017876246593
 20
-91.25110539168375
 30
0.0
 10
109.0017876246593
 20
-94.24971650204522
 30
0.0
 10
109.0017876246593
 20
-94.24971650204522
 30
0.0
 10
109.0017876246593
 20
-94.24971650204522
 30
0.0
 10
98.0022867593536
 20
-94.24971650204522
 30
0.0
 10
98.0022867593536
 20
-94.24971650204522
 30
0.0
 10
98.0022867593536
 20
-94.24971650204522
 30
0.0
 10
98.0022867593536
 20
-91.25110539168375
 30
0.0
 10
98.0022867593536
 20
-91.25110539168375
 30
0.0
 10
98.0022867593536
 20
-91.25110539168375
 30
0.0
 10
86.99899628901414
 20
-91.25110539168375
 30
0.0
 10
86.99899628901414
 20
-91.25110539168375
 30
0.0
 10
86.99899628901414
 20
-91.25110539168375
 30
0.0
 10
86.99899628901414
 20
-94.24971650204522
 30
0.0
 10
86.99899628901414
 20
-94.24971650204522
 30
0.0
 10
86.99899628901414
 20
-94.24971650204522
 30
0.0
 10
75.99949542370847
 20
-94.24971650204522
 30
0.0
 10
75.99949542370847
 20
-94.24971650204522
 30
0.0
 10
75.99949542370847
 20
-94.24971650204522
 30
0.0
 10
75.99949542370847
 20
-91.25110539168375
 30
0.0
 10
75.99949542370847
 20
-91.25110539168375
 30
0.0
 10
75.99949542370847
 20
-91.25110539168375
 30
0.0
 10
64.99999455840278
 20
-91.25110539168375
 30
0.0
 10
64.99999455840278
 20
-91.25110539168375
 30
0.0
 10
64.99999455840278
 20
-91.25110539168375
 30
0.0
 10
64.99999455840278
 20
-100.3265204284774
 30
0.0
 10
64.99999455840278
 20
-100.3265204284774
 30
0.0
 10
64.99999455840278
 20
-100.3265204284774
 30
0.0
 10
62.00138344804132
 20
-100.3265204284774
 30
0.0
 10
62.00138344804132
 20
-100.3265204284774
 30
0.0
  0
POLYLINE
  5
12E
330
1F
100
AcDbEntity
  8
LAYER_1
100
AcDb2dPolyline
 66
     1
 10
0.0
 20
0.0
 30
0.0
  0
VERTEX
  5
12F
330
12E
100
AcDbEntity
  8
LAYER_1
100
AcDbVertex
100
AcDb2dVertex
 10
62.00138344804132
 20
-146.7340236720839
 30
0.0
  0
VERTEX
  5
130
330
12E
100
AcDbEntity
  8
LAYER_1
100
AcDbVertex
100
AcDb2dVertex
 10
64.99999455840278
 20
-146.7340236720839
 30
0.0
  0
VERTEX
  5
131
330
12E
100
AcDbEntity
  8
LAYER_1
100
AcDbVertex
100
AcDb2dVertex
 10
64.99999455840278
 20
-155.6595770552692
 30
0.0
  0
VERTEX
  5
132
330
12E
100
AcDbEntity
  8
LAYER_1
100
AcDbVertex
100
AcDb2dVertex
 10
62.00138344804132
 20
-155.6595770552692
 30
0.0
  0
SEQEND
  5
133
330
12E
100
AcDbEntity
  8
LAYER_1
  0
POLYLINE
  5
134
330
1F
100
AcDbEntity
  8
LAYER_1
100
AcDb2dPolyline
 66
     1
 10
0.0
 20
0.0
 30
0.0
  0
VERTEX
  5
135
330
134
100
AcDbEntity
  8
LAYER_1
100
AcDbVertex
100
AcDb2dVertex
 10
62.00138344804132
 20
-128.2910495013474
 30
0.0
  0
VERTEX
  5
136
330
134
100
AcDbEntity
  8
LAYER_1
100
AcDbVertex
100
AcDb2dVertex
 10
64.99999455840278
 20
-128.2910495013474
 30
0.0
  0
VERTEX
  5
137
330
134
100
AcDbEntity
  8
LAYER_1
100
AcDbVertex
100
AcDb2dVertex
 10
64.99999455840278
 20
-137.2128132794989
 30
0.0
  0
VERTEX
  5
138
330
134
100
AcDbEntity
  8
LAYER_1
100
AcDbVertex
100
AcDb2dVertex
 10
62.00138344804132
 20
-137.2128132794989
 30
0.0
  0
SEQEND
  5
139
330
134
100
AcDbEntity
  8
LAYER_1
  0
POLYLINE
  5
13A
330
1F
100
AcDbEntity
  8
LAYER_1
100
AcDb2dPolyline
 66
     1
 10
0.0
 20
0.0
 30
0.0
  0
VERTEX
  5
13B
330
13A
100
AcDbEntity
  8
LAYER_1
100
AcDbVertex
100
AcDb2dVertex
 10
62.00138344804132
 20
-109.8477308210624
 30
0.0
  0
VERTEX
  5
13C
330
13A
100
AcDbEntity
  8
LAYER_1
100
AcDbVertex
100
AcDb2dVertex
 10
64.99999455840278
 20
-109.8477308210624
 30
0.0
  0
VERTEX
  5
13D
330
13A
100
AcDbEntity
  8
LAYER_1
100
AcDbVertex
100
AcDb2dVertex
 10
64.99999455840278
 20
-118.7694945992139
 30
0.0
  0
VERTEX
  5
13E
330
13A
100
AcDbEntity
  8
LAYER_1
100
AcDbVertex
100
AcDb2dVertex
 10
62.00138344804132
 20
-118.7694945992139
 30
0.0
  0
SEQEND
  5
13F
330
13A
100
AcDbEntity
  8
LAYER_1
  0
POLYLINE
  5
140
330
1F
100
AcDbEntity
  8
LAYER_1
100
AcDb2dPolyline
 66
     1
 10
0.0
 20
0.0
 30
0.0
  0
VERTEX
  5
141
330
140
100
AcDbEntity
  8
LAYER_1
100
AcDbVertex
100
AcDb2dVertex
 10
109.0017876246593
 20
-121.1514336177156
 30
0.0
  0
VERTEX
  5
142
330
140
100
AcDbEntity
  8
LAYER_1
100
AcDbVertex
100
AcDb2dVertex
 10
109.0017876246593
 20
-124.3498602662216
 30
0.0
  0
VERTEX
  5
143
330
140
100
AcDbEntity
  8
LAYER_1
100
AcDbVertex
100
AcDb2dVertex
 10
98.0022867593536
 20
-124.3498602662216
 30
0.0
  0
VERTEX
  5
144
330
140
100
AcDbEntity
  8
LAYER_1
100
AcDbVertex
100
AcDb2dVertex
 10
98.0022867593536
 20
-121.1514336177156
 30
0.0
  0
VERTEX
  5
145
330
140
100
AcDbEntity
  8
LAYER_1
100
AcDbVertex
100
AcDb2dVertex
 10
109.0017876246593
 20
-121.1514336177156
 30
0.0
  0
SEQEND
  5
146
330
140
100
AcDbEntity
  8
LAYER_1
  0
POLYLINE
  5
147
330
1F
100
AcDbEntity
  8
LAYER_1
100
AcDb2dPolyline
 66
     1
 10
0.0
 20
0.0
 30
0.0
  0
VERTEX
  5
148
330
147
100
AcDbEntity
  8
LAYER_1
100
AcDbVertex
100
AcDb2dVertex
 10
86.99899628901414
 20
-121.1514336177156
 30
0.0
  0
VERTEX
  5
149
330
147
100
AcDbEntity
  8
LAYER_1
100
AcDbVertex
100
AcDb2dVertex
 10
86.99899628901414
 20
-124.3498602662216
 30
0.0
  0
VERTEX
  5
14A
330
147
100
AcDbEntity
  8
LAYER_1
100
AcDbVertex
100
AcDb2dVertex
 10
75.99949542370847
 20
-124.3498602662216
 30
0.0
  0
VERTEX
  5
14B
330
147
100
AcDbEntity
  8
LAYER_1
100
AcDbVertex
100
AcDb2dVertex
 10
75.99949542370847
 20
-121.1514336177156
 30
0.0
  0
VERTEX
  5
14C
330
147
100
AcDbEntity
  8
LAYER_1
100
AcDbVertex
100
AcDb2dVertex
 10
86.99899628901414
 20
-121.1514336177156
 30
0.0
  0
SEQEND
  5
14D
330
147
100
AcDbEntity
  8
LAYER_1
  0
SPLINE
  5
14E
330
1F
100
AcDbEntity
  8
LAYER_1
100
AcDbSpline
210
0.0
220
0.0
230
1.0
 70
    11
 71
     3
 72
   125
 73
   121
 74
     0
 42
0.0000000001
 43
0.0000000001
 40
0.0
 40
0.0
 40
0.0
 40
0.0
 40
1.0
 40
1.0
 40
1.0
 40
2.0
 40
2.0
 40
2.0
 40
3.0
 40
3.0
 40
3.0
 40
4.0
 40
4.0
 40
4.0
 40
5.0
 40
5.0
 40
5.0
 40
6.0
 40
6.0
 40
6.0
 40
7.0
 40
7.0
 40
7.0
 40
8.0
 40
8.0
 40
8.0
 40
9.0
 40
9.0
 40
9.0
 40
10.0
 40
10.0
 40
10.0
 40
11.0
 40
11.0
 40
11.0
 40
12.0
 40
12.0
 40
12.0
 40
13.0
 40
13.0
 40
13.0
 40
14.0
 40
14.0
 40
14.0
 40
15.0
 40
15.0
 40
15.0
 40
16.0
 40
16.0
 40
16.0
 40
17.0
 40
17.0
 40
17.0
 40
18.0
 40
18.0
 40
18.0
 40
19.0
 40
19.0
 40
19.0
 40
20.0
 40
20.0
 40
20.0
 40
21.0
 40
21.0
 40
21.0
 40
22.0
 40
22.0
 40
22.0
 40
23.0
 40
23.0
 40
23.0
 40
24.0
 40
24.0
 40
24.0
 40
25.0
 40
25.0
 40
25.0
 40
26.0
 40
26.0
 40
26.0
 40
27.0
 40
27.0
 40
27.0
 40
28.0
 40
28.0
 40
28.0
 40
29.0
 40
29.0
 40
29.0
 40
30.0
 40
30.0
 40
30.0
 40
31.0
 40
31.0
 40
31.0
 40
32.0
 40
32.0
 40
32.0
 40
33.0
 40
33.0
 40
33.0
 40
34.0
 40
34.0
 40
34.0
 40
35.0
 40
35.0
 40
35.0
 40
36.0
 40
36.0
 40
36.0
 40
37.0
 40
37.0
 40
37.0
 40
38.0
 40
38.0
 40
38.0
 40
39.0
 40
39.0
 40
39.0
 40
40.0
 40
40.0
 40
40.0
 40
40.0
 10
165.5674994160734
 20
-174.2562024846478
 30
0.0
 10
165.5674994160734
 20
-174.2562024846478
 30
0.0
 10
176.5670002813791
 20
-174.2562024846478
 30
0.0
 10
176.5670002813791
 20
-174.2562024846478
 30
0.0
 10
176.5670002813791
 20
-174.2562024846478
 30
0.0
 10
176.5670002813791
 20
-165.1807874478541
 30
0.0
 10
176.5670002813791
 20
-165.1807874478541
 30
0.0
 10
176.5670002813791
 20
-165.1807874478541
 30
0.0
 10
179.5656113917406
 20
-165.1807874478541
 30
0.0
 10
179.5656113917406
 20
-165.1807874478541
 30
0.0
 10
179.5656113917406
 20
-165.1807874478541
 30
0.0
 10
179.5656113917406
 20
-155.6595770552692
 30
0.0
 10
179.5656113917406
 20
-155.6595770552692
 30
0.0
 10
179.5656113917406
 20
-155.6595770552692
 30
0.0
 10
176.5670002813791
 20
-155.6595770552692
 30
0.0
 10
176.5670002813791
 20
-155.6595770552692
 30
0.0
 10
176.5670002813791
 20
-155.6595770552692
 30
0.0
 10
176.5670002813791
 20
-146.7378132771176
 30
0.0
 10
176.5670002813791
 20
-146.7378132771176
 30
0.0
 10
176.5670002813791
 20
-146.7378132771176
 30
0.0
 10
179.5656113917406
 20
-146.7378132771176
 30
0.0
 10
179.5656113917406
 20
-146.7378132771176
 30
0.0
 10
179.5656113917406
 20
-146.7378132771176
 30
0.0
 10
179.5656113917406
 20
-137.2162583749841
 30
0.0
 10
179.5656113917406
 20
-137.2162583749841
 30
0.0
 10
179.5656113917406
 20
-137.2162583749841
 30
0.0
 10
176.5670002813791
 20
-137.2162583749841
 30
0.0
 10
176.5670002813791
 20
-137.2162583749841
 30
0.0
 10
176.5670002813791
 20
-137.2162583749841
 30
0.0
 10
176.5670002813791
 20
-128.2944945968326
 30
0.0
 10
176.5670002813791
 20
-128.2944945968326
 30
0.0
 10
176.5670002813791
 20
-128.2944945968326
 30
0.0
 10
179.5656113917406
 20
-128.2944945968326
 30
0.0
 10
179.5656113917406
 20
-128.2944945968326
 30
0.0
 10
179.5656113917406
 20
-128.2944945968326
 30
0.0
 10
179.5656113917406
 20
-118.7732842042477
 30
0.0
 10
179.5656113917406
 20
-118.7732842042477
 30
0.0
 10
179.5656113917406
 20
-118.7732842042477
 30
0.0
 10
176.5670002813791
 20
-118.7732842042477
 30
0.0
 10
176.5670002813791
 20
-118.7732842042477
 30
0.0
 10
176.5670002813791
 20
-118.7732842042477
 30
0.0
 10
176.5670002813791
 20
-109.8477308210624
 30
0.0
 10
176.5670002813791
 20
-109.8477308210624
 30
0.0
 10
176.5670002813791
 20
-109.8477308210624
 30
0.0
 10
179.5656113917406
 20
-109.8477308210624
 30
0.0
 10
179.5656113917406
 20
-109.8477308210624
 30
0.0
 10
179.5656113917406
 20
-109.8477308210624
 30
0.0
 10
179.5656113917406
 20
-100.3265204284774
 30
0.0
 10
179.5656113917406
 20
-100.3265204284774
 30
0.0
 10
179.5656113917406
 20
-100.3265204284774
 30
0.0
 10
176.5670002813791
 20
-100.3265204284774
 30
0.0
 10
176.5670002813791
 20
-100.3265204284774
 30
0.0
 10
176.5670002813791
 20
-100.3265204284774
 30
0.0
 10
176.5670002813791
 20
-94.25660669301571
 30
0.0
 10
176.5670002813791
 20
-94.25660669301571
 30
0.0
 10
176.5670002813791
 20
-94.25660669301571
 30
0.0
 10
165.7177055792303
 20
-94.25660669301571
 30
0.0
 10
165.7177055792303
 20
-94.25660669301571
 30
0.0
 10
165.7177055792303
 20
-94.25660669301571
 30
0.0
 10
165.7177055792303
 20
-91.25799558265426
 30
0.0
 10
165.7177055792303
 20
-91.25799558265426
 30
0.0
 10
165.7177055792303
 20
-91.25799558265426
 30
0.0
 10
154.4177923876108
 20
-91.25799558265426
 30
0.0
 10
154.4177923876108
 20
-91.25799558265426
 30
0.0
 10
154.4177923876108
 20
-91.25799558265426
 30
0.0
 10
154.4177923876108
 20
-94.25660669301571
 30
0.0
 10
154.4177923876108
 20
-94.25660669301571
 30
0.0
 10
154.4177923876108
 20
-94.25660669301571
 30
0.0
 10
143.7145697340366
 20
-94.25660669301571
 30
0.0
 10
143.7145697340366
 20
-94.25660669301571
 30
0.0
 10
143.7145697340366
 20
-94.25660669301571
 30
0.0
 10
143.7145697340366
 20
-91.25799558265426
 30
0.0
 10
143.7145697340366
 20
-91.25799558265426
 30
0.0
 10
143.7145697340366
 20
-91.25799558265426
 30
0.0
 10
132.4153455615142
 20
-91.25799558265426
 30
0.0
 10
132.4153455615142
 20
-91.25799558265426
 30
0.0
 10
132.4153455615142
 20
-91.25799558265426
 30
0.0
 10
132.4153455615142
 20
-94.25660669301571
 30
0.0
 10
132.4153455615142
 20
-94.25660669301571
 30
0.0
 10
132.4153455615142
 20
-94.25660669301571
 30
0.0
 10
121.5653618402684
 20
-94.25660669301571
 30
0.0
 10
121.5653618402684
 20
-94.25660669301571
 30
0.0
 10
121.5653618402684
 20
-108.0611043024118
 30
0.0
 10
129.5910562827064
 20
-108.2795233561767
 30
0.0
 10
129.5910562827064
 20
-118.923145857856
 30
0.0
 10
129.5910562827064
 20
-128.1870076176928
 30
0.0
 10
121.5653618402684
 20
-131.3444376299243
 30
0.0
 10
121.5653618402684
 20
-142.633326515991
 30
0.0
 10
121.5653618402684
 20
-153.0543958493232
 30
0.0
 10
124.2993896173627
 20
-151.4245211752515
 30
0.0
 10
124.2993896173627
 20
-159.0374931785566
 30
0.0
 10
124.2993896173627
 20
-164.7063977995352
 30
0.0
 10
121.5653618402684
 20
-166.3576320656155
 30
0.0
 10
121.5653618402684
 20
-171.254146278801
 30
0.0
 10
121.5653618402684
 20
-171.254146278801
 30
0.0
 10
121.5653618402684
 20
-174.2562024846478
 30
0.0
 10
121.5653618402684
 20
-174.2562024846478
 30
0.0
 10
121.5653618402684
 20
-174.2562024846478
 30
0.0
 10
132.5652072151226
 20
-174.2562024846478
 30
0.0
 10
132.5652072151226
 20
-174.2562024846478
 30
0.0
 10
132.5652072151226
 20
-174.2562024846478
 30
0.0
 10
132.5652072151226
 20
-171.2575913742863
 30
0.0
 10
132.5652072151226
 20
-171.2575913742863
 30
0.0
 10
132.5652072151226
 20
-171.2575913742863
 30
0.0
 10
143.5647080804283
 20
-171.2575913742863
 30
0.0
 10
143.5647080804283
 20
-171.2575913742863
 30
0.0
 10
143.5647080804283
 20
-171.2575913742863
 30
0.0
 10
143.5647080804283
 20
-174.2562024846478
 30
0.0
 10
143.5647080804283
 20
-174.2562024846478
 30
0.0
 10
143.5647080804283
 20
-174.2562024846478
 30
0.0
 10
154.5679985507677
 20
-174.2562024846478
 30
0.0
 10
154.5679985507677
 20
-174.2562024846478
 30
0.0
 10
154.5679985507677
 20
-174.2562024846478
 30
0.0
 10
154.5679985507677
 20
-171.2575913742863
 30
0.0
 10
154.5679985507677
 20
-171.2575913742863
 30
0.0
 10
154.5679985507677
 20
-171.2575913742863
 30
0.0
 10
165.5674994160734
 20
-171.2575913742863
 30
0.0
 10
165.5674994160734
 20
-171.2575913742863
 30
0.0
 10
165.5674994160734
 20
-171.2575913742863
 30
0.0
 10
165.5674994160734
 20
-174.2562024846478
 30
0.0
 10
165.5674994160734
 20
-174.2562024846478
 30
0.0
  0
POLYLINE
  5
14F
330
1F
100
AcDbEntity
  8
LAYER_1
100
AcDb2dPolyline
 66
     1
 10
0.0
 20
0.0
 30
0.0
  0
VERTEX
  5
150
330
14F
100
AcDbEntity
  8
LAYER_1
100
AcDbVertex
100
AcDb2dVertex
 10
132.5652072151226
 20
-144.3558742586159
 30
0.0
  0
VERTEX
  5
151
330
14F
100
AcDbEntity
  8
LAYER_1
100
AcDbVertex
100
AcDb2dVertex
 10
132.5652072151226
 20
-141.15744761011
 30
0.0
  0
VERTEX
  5
152
330
14F
100
AcDbEntity
  8
LAYER_1
100
AcDbVertex
100
AcDb2dVertex
 10
143.5647080804283
 20
-141.15744761011
 30
0.0
  0
VERTEX
  5
153
330
14F
100
AcDbEntity
  8
LAYER_1
100
AcDbVertex
100
AcDb2dVertex
 10
143.5647080804283
 20
-144.3558742586159
 30
0.0
  0
VERTEX
  5
154
330
14F
100
AcDbEntity
  8
LAYER_1
100
AcDbVertex
100
AcDb2dVertex
 10
132.5652072151226
 20
-144.3558742586159
 30
0.0
  0
SEQEND
  5
155
330
14F
100
AcDbEntity
  8
LAYER_1
  0
POLYLINE
  5
156
330
1F
100
AcDbEntity
  8
LAYER_1
100
AcDb2dPolyline
 66
     1
 10
0.0
 20
0.0
 30
0.0
  0
VERTEX
  5
157
330
156
100
AcDbEntity
  8
LAYER_1
100
AcDbVertex
100
AcDb2dVertex
 10
154.5679985507677
 20
-144.3558742586159
 30
0.0
  0
VERTEX
  5
158
330
156
100
AcDbEntity
  8
LAYER_1
100
AcDbVertex
100
AcDb2dVertex
 10
154.5679985507677
 20
-141.15744761011
 30
0.0
  0
VERTEX
  5
159
330
156
100
AcDbEntity
  8
LAYER_1
100
AcDbVertex
100
AcDb2dVertex
 10
165.5674994160734
 20
-141.15744761011
 30
0.0
  0
VERTEX
  5
15A
330
156
100
AcDbEntity
  8
LAYER_1
100
AcDbVertex
100
AcDb2dVertex
 10
165.5674994160734
 20
-144.3558742586159
 30
0.0
  0
VERTEX
  5
15B
330
156
100
AcDbEntity
  8
LAYER_1
100
AcDbVertex
100
AcDb2dVertex
 10
154.5679985507677
 20
-144.3558742586159
 30
0.0
  0
SEQEND
  5
15C
330
156
100
AcDbEntity
  8
LAYER_1
  0
SPLINE
  5
15D
330
1F
100
AcDbEntity
  8
LAYER_1
100
AcDbSpline
210
0.0
220
0.0
230
1.0
 70
     8
 71
     3
 72
    86
 73
    82
 74
     0
 42
0.0000000001
 43
0.0000000001
 40
0.0
 40
0.0
 40
0.0
 40
0.0
 40
1.0
 40
1.0
 40
1.0
 40
2.0
 40
2.0
 40
2.0
 40
3.0
 40
3.0
 40
3.0
 40
4.0
 40
4.0
 40
4.0
 40
5.0
 40
5.0
 40
5.0
 40
6.0
 40
6.0
 40
6.0
 40
7.0
 40
7.0
 40
7.0
 40
8.0
 40
8.0
 40
8.0
 40
9.0
 40
9.0
 40
9.0
 40
10.0
 40
10.0
 40
10.0
 40
11.0
 40
11.0
 40
11.0
 40
12.0
 40
12.0
 40
12.0
 40
13.0
 40
13.0
 40
13.0
 40
14.0
 40
14.0
 40
14.0
 40
15.0
 40
15.0
 40
15.0
 40
16.0
 40
16.0
 40
16.0
 40
17.0
 40
17.0
 40
17.0
 40
18.0
 40
18.0
 40
18.0
 40
19.0
 40
19.0
 40
19.0
 40
20.0
 40
20.0
 40
20.0
 40
21.0
 40
21.0
 40
21.0
 40
22.0
 40
22.0
 40
22.0
 40
23.0
 40
23.0
 40
23.0
 40
24.0
 40
24.0
 40
24.0
 40
25.0
 40
25.0
 40
25.0
 40
26.0
 40
26.0
 40
26.0
 40
27.0
 40
27.0
 40
27.0
 40
27.0
 10
179.5656113917406
 20
-165.1807874478541
 30
0.0
 10
179.5656113917406
 20
-165.1807874478541
 30
0.0
 10
182.564222502102
 20
-165.1807874478541
 30
0.0
 10
182.564222502102
 20
-165.1807874478541
 30
0.0
 10
182.564222502102
 20
-165.1807874478541
 30
0.0
 10
182.564222502102
 20
-171.2507011833158
 30
0.0
 10
182.564222502102
 20
-171.2507011833158
 30
0.0
 10
182.564222502102
 20
-171.2507011833158
 30
0.0
 10
193.4135172042508
 20
-171.2507011833158
 30
0.0
 10
193.4135172042508
 20
-171.2507011833158
 30
0.0
 10
193.4135172042508
 20
-171.2507011833158
 30
0.0
 10
193.4135172042508
 20
-174.2493122936773
 30
0.0
 10
193.4135172042508
 20
-174.2493122936773
 30
0.0
 10
193.4135172042508
 20
-174.2493122936773
 30
0.0
 10
204.7134303958703
 20
-174.2493122936773
 30
0.0
 10
204.7134303958703
 20
-174.2493122936773
 30
0.0
 10
204.7134303958703
 20
-174.2493122936773
 30
0.0
 10
204.7134303958703
 20
-171.2507011833158
 30
0.0
 10
204.7134303958703
 20
-171.2507011833158
 30
0.0
 10
204.7134303958703
 20
-171.2507011833158
 30
0.0
 10
215.4166530494444
 20
-171.2507011833158
 30
0.0
 10
215.4166530494444
 20
-171.2507011833158
 30
0.0
 10
215.4166530494444
 20
-171.2507011833158
 30
0.0
 10
215.4166530494444
 20
-174.2493122936773
 30
0.0
 10
215.4166530494444
 20
-174.2493122936773
 30
0.0
 10
215.4166530494444
 20
-174.2493122936773
 30
0.0
 10
226.7158772219669
 20
-174.2493122936773
 30
0.0
 10
226.7158772219669
 20
-174.2493122936773
 30
0.0
 10
226.7158772219669
 20
-174.2493122936773
 30
0.0
 10
226.7158772219669
 20
-171.2507011833158
 30
0.0
 10
226.7158772219669
 20
-171.2507011833158
 30
0.0
 10
226.7158772219669
 20
-171.2507011833158
 30
0.0
 10
237.5658609432127
 20
-171.2507011833158
 30
0.0
 10
237.5658609432127
 20
-171.2507011833158
 30
0.0
 10
237.5658609432127
 20
-157.4462035739197
 30
0.0
 10
229.5401665007747
 20
-157.2277845201549
 30
0.0
 10
229.5401665007747
 20
-146.5841620184755
 30
0.0
 10
229.5401665007747
 20
-137.3203002586387
 30
0.0
 10
237.5658609432127
 20
-134.1628702464072
 30
0.0
 10
237.5658609432127
 20
-122.8739813603405
 30
0.0
 10
237.5658609432127
 20
-112.4529120270083
 30
0.0
 10
234.8318331661184
 20
-114.08278670108
 30
0.0
 10
234.8318331661184
 20
-106.4698146977749
 30
0.0
 10
234.8318331661184
 20
-100.8009100767963
 30
0.0
 10
237.5658609432127
 20
-99.14967581071606
 30
0.0
 10
237.5658609432127
 20
-94.25316159753046
 30
0.0
 10
237.5658609432127
 20
-94.25316159753046
 30
0.0
 10
237.5658609432127
 20
-91.25110539168375
 30
0.0
 10
237.5658609432127
 20
-91.25110539168375
 30
0.0
 10
237.5658609432127
 20
-91.25110539168375
 30
0.0
 10
226.5660155683585
 20
-91.25110539168375
 30
0.0
 10
226.5660155683585
 20
-91.25110539168375
 30
0.0
 10
226.5660155683585
 20
-91.25110539168375
 30
0.0
 10
226.5660155683585
 20
-94.24971650204522
 30
0.0
 10
226.5660155683585
 20
-94.24971650204522
 30
0.0
 10
226.5660155683585
 20
-94.24971650204522
 30
0.0
 10
215.5665147030528
 20
-94.24971650204522
 30
0.0
 10
215.5665147030528
 20
-94.24971650204522
 30
0.0
 10
215.5665147030528
 20
-94.24971650204522
 30
0.0
 10
215.5665147030528
 20
-91.25110539168375
 30
0.0
 10
215.5665147030528
 20
-91.25110539168375
 30
0.0
 10
215.5665147030528
 20
-91.25110539168375
 30
0.0
 10
204.5632242327134
 20
-91.25110539168375
 30
0.0
 10
204.5632242327134
 20
-91.25110539168375
 30
0.0
 10
204.5632242327134
 20
-91.25110539168375
 30
0.0
 10
204.5632242327134
 20
-94.24971650204522
 30
0.0
 10
204.5632242327134
 20
-94.24971650204522
 30
0.0
 10
204.5632242327134
 20
-94.24971650204522
 30
0.0
 10
193.5637233674077
 20
-94.24971650204522
 30
0.0
 10
193.5637233674077
 20
-94.24971650204522
 30
0.0
 10
193.5637233674077
 20
-94.24971650204522
 30
0.0
 10
193.5637233674077
 20
-91.25110539168375
 30
0.0
 10
193.5637233674077
 20
-91.25110539168375
 30
0.0
 10
193.5637233674077
 20
-91.25110539168375
 30
0.0
 10
182.564222502102
 20
-91.25110539168375
 30
0.0
 10
182.564222502102
 20
-91.25110539168375
 30
0.0
 10
182.564222502102
 20
-91.25110539168375
 30
0.0
 10
182.564222502102
 20
-100.3265204284774
 30
0.0
 10
182.564222502102
 20
-100.3265204284774
 30
0.0
 10
182.564222502102
 20
-100.3265204284774
 30
0.0
 10
179.5656113917406
 20
-100.3265204284774
 30
0.0
 10
179.5656113917406
 20
-100.3265204284774
 30
0.0
  0
POLYLINE
  5
15E
330
1F
100
AcDbEntity
  8
LAYER_1
100
AcDb2dPolyline
 66
     1
 10
0.0
 20
0.0
 30
0.0
  0
VERTEX
  5
15F
330
15E
100
AcDbEntity
  8
LAYER_1
100
AcDbVertex
100
AcDb2dVertex
 10
179.5656113917406
 20
-146.7340236720839
 30
0.0
  0
VERTEX
  5
160
330
15E
100
AcDbEntity
  8
LAYER_1
100
AcDbVertex
100
AcDb2dVertex
 10
182.564222502102
 20
-146.7340236720839
 30
0.0
  0
VERTEX
  5
161
330
15E
100
AcDbEntity
  8
LAYER_1
100
AcDbVertex
100
AcDb2dVertex
 10
182.564222502102
 20
-155.6595770552692
 30
0.0
  0
VERTEX
  5
162
330
15E
100
AcDbEntity
  8
LAYER_1
100
AcDbVertex
100
AcDb2dVertex
 10
179.5656113917406
 20
-155.6595770552692
 30
0.0
  0
SEQEND
  5
163
330
15E
100
AcDbEntity
  8
LAYER_1
  0
POLYLINE
  5
164
330
1F
100
AcDbEntity
  8
LAYER_1
100
AcDb2dPolyline
 66
     1
 10
0.0
 20
0.0
 30
0.0
  0
VERTEX
  5
165
330
164
100
AcDbEntity
  8
LAYER_1
100
AcDbVertex
100
AcDb2dVertex
 10
179.5656113917406
 20
-128.2910495013474
 30
0.0
  0
VERTEX
  5
166
330
164
100
AcDbEntity
  8
LAYER_1
100
AcDbVertex
100
AcDb2dVertex
 10
182.564222502102
 20
-128.2910495013474
 30
0.0
  0
VERTEX
  5
167
330
164
100
AcDbEntity
  8
LAYER_1
100
AcDbVertex
100
AcDb2dVertex
 10
182.564222502102
 20
-137.2128132794989
 30
0.0
  0
VERTEX
  5
168
330
164
100
AcDbEntity
  8
LAYER_1
100
AcDbVertex
100
AcDb2dVertex
 10
179.5656113917406
 20
-137.2128132794989
 30
0.0
  0
SEQEND
  5
169
330
164
100
AcDbEntity
  8
LAYER_1
  0
POLYLINE
  5
16A
330
1F
100
AcDbEntity
  8
LAYER_1
100
AcDb2dPolyline
 66
     1
 10
0.0
 20
0.0
 30
0.0
  0
VERTEX
  5
16B
330
16A
100
AcDbEntity
  8
LAYER_1
100
AcDbVertex
100
AcDb2dVertex
 10
179.5656113917406
 20
-109.8477308210624
 30
0.0
  0
VERTEX
  5
16C
330
16A
100
AcDbEntity
  8
LAYER_1
100
AcDbVertex
100
AcDb2dVertex
 10
182.564222502102
 20
-109.8477308210624
 30
0.0
  0
VERTEX
  5
16D
330
16A
100
AcDbEntity
  8
LAYER_1
100
AcDbVertex
100
AcDb2dVertex
 10
182.564222502102
 20
-118.7694945992139
 30
0.0
  0
VERTEX
  5
16E
330
16A
100
AcDbEntity
  8
LAYER_1
100
AcDbVertex
100
AcDb2dVertex
 10
179.5656113917406
 20
-118.7694945992139
 30
0.0
  0
SEQEND
  5
16F
330
16A
100
AcDbEntity
  8
LAYER_1
  0
POLYLINE
  5
170
330
1F
100
AcDbEntity
  8
LAYER_1
100
AcDb2dPolyline
 66
     1
 10
0.0
 20
0.0
 30
0.0
  0
VERTEX
  5
171
330
170
100
AcDbEntity
  8
LAYER_1
100
AcDbVertex
100
AcDb2dVertex
 10
226.5660155683585
 20
-121.1514336177156
 30
0.0
  0
VERTEX
  5
172
330
170
100
AcDbEntity
  8
LAYER_1
100
AcDbVertex
100
AcDb2dVertex
 10
226.5660155683585
 20
-124.3498602662216
 30
0.0
  0
VERTEX
  5
173
330
170
100
AcDbEntity
  8
LAYER_1
100
AcDbVertex
100
AcDb2dVertex
 10
215.5665147030528
 20
-124.3498602662216
 30
0.0
  0
VERTEX
  5
174
330
170
100
AcDbEntity
  8
LAYER_1
100
AcDbVertex
100
AcDb2dVertex
 10
215.5665147030528
 20
-121.1514336177156
 30
0.0
  0
VERTEX
  5
175
330
170
100
AcDbEntity
  8
LAYER_1
100
AcDbVertex
100
AcDb2dVertex
 10
226.5660155683585
 20
-121.1514336177156
 30
0.0
  0
SEQEND
  5
176
330
170
100
AcDbEntity
  8
LAYER_1
  0
POLYLINE
  5
177
330
1F
100
AcDbEntity
  8
LAYER_1
100
AcDb2dPolyline
 66
     1
 10
0.0
 20
0.0
 30
0.0
  0
VERTEX
  5
178
330
177
100
AcDbEntity
  8
LAYER_1
100
AcDbVertex
100
AcDb2dVertex
 10
204.5632242327134
 20
-121.1514336177156
 30
0.0
  0
VERTEX
  5
179
330
177
100
AcDbEntity
  8
LAYER_1
100
AcDbVertex
100
AcDb2dVertex
 10
204.5632242327134
 20
-124.3498602662216
 30
0.0
  0
VERTEX
  5
17A
330
177
100
AcDbEntity
  8
LAYER_1
100
AcDbVertex
100
AcDb2dVertex
 10
193.5637233674077
 20
-124.3498602662216
 30
0.0
  0
VERTEX
  5
17B
330
177
100
AcDbEntity
  8
LAYER_1
100
AcDbVertex
100
AcDb2dVertex
 10
193.5637233674077
 20
-121.1514336177156
 30
0.0
  0
VERTEX
  5
17C
330
177
100
AcDbEntity
  8
LAYER_1
100
AcDbVertex
100
AcDb2dVertex
 10
204.5632242327134
 20
-121.1514336177156
 30
0.0
  0
SEQEND
  5
17D
330
177
100
AcDbEntity
  8
LAYER_1
  0
POLYLINE
  5
17E
330
1F
100
AcDbEntity
  8
LAYER_1
 62
     7
100
AcDb2dPolyline
 66
     1
 10
0.0
 20
0.0
 30
0.0
  0
VERTEX
  5
17F
330
17E
100
AcDbEntity
  8
LAYER_1
 62
     7
100
AcDbVertex
100
AcDb2dVertex
 10
310.0000270492361
 20
-180.0000379324306
 30
0.0
  0
VERTEX
  5
180
330
17E
100
AcDbEntity
  8
LAYER_1
 62
     7
100
AcDbVertex
100
AcDb2dVertex
 10
0.0
 20
-180.0000379324306
 30
0.0
  0
VERTEX
  5
181
330
17E
100
AcDbEntity
  8
LAYER_1
 62
     7
100
AcDbVertex
100
AcDb2dVertex
 10
0.0
 20
0.0
 30
0.0
  0
VERTEX
  5
182
330
17E
100
AcDbEntity
  8
LAYER_1
 62
     7
100
AcDbVertex
100
AcDb2dVertex
 10
310.0000270492361
 20
0.0
 30
0.0
  0
VERTEX
  5
183
330
17E
100
AcDbEntity
  8
LAYER_1
 62
     7
100
AcDbVertex
100
AcDb2dVertex
 10
310.0000270492361
 20
-180.0000379324306
 30
0.0
  0
SEQEND
  5
184
330
17E
100
AcDbEntity
  8
LAYER_1
  0
ENDSEC
  0
SECTION
  2
OBJECTS
  0
DICTIONARY
  5
C
330
0
100
AcDbDictionary
  3
ACAD_GROUP
350
D
  3
ACAD_LAYOUT
350
1A
  3
ACAD_MLINESTYLE
350
17
  3
ACAD_PLOTSETTINGS
350
19
  3
ACAD_TABLESTYLE
350
1A5
  3
ACAD_VISUALSTYLE
350
2A
  3
ACDBHEADERROUNDTRIPXREC
350
185
  0
DICTIONARY
  5
D
102
{ACAD_REACTORS
330
C
102
}
330
C
100
AcDbDictionary
  0
DICTIONARY
  5
1A
102
{ACAD_REACTORS
330
C
102
}
330
C
100
AcDbDictionary
  0
DICTIONARY
  5
17
102
{ACAD_REACTORS
330
C
102
}
330
C
100
AcDbDictionary
  3
STANDARD
350
18
  0
DICTIONARY
  5
19
102
{ACAD_REACTORS
330
C
102
}
330
C
100
AcDbDictionary
  0
DICTIONARY
  5
1A5
102
{ACAD_REACTORS
330
C
102
}
330
C
100
AcDbDictionary
  0
DICTIONARY
  5
2A
102
{ACAD_REACTORS
330
C
102
}
330
C
100
AcDbDictionary
  3
2DWIREFRAME
350
2F
  3
3D_HIDDEN
350
31
  3
3DWIREFRAME
350
30
  3
BASIC
350
32
  3
BRIGHTEN
350
36
  3
COLORCHANGE
350
3A
  3
CONCEPTUAL
350
34
  3
DIM
350
35
  3
FACEPATTERN
350
39
  3
FLAT
350
2B
  3
FLATWITHEDGES
350
2C
  3
GOURAUD
350
2D
  3
GOURAUDWITHEDGES
350
2E
  3
LINEPATTERN
350
38
  3
REALISTIC
350
33
  3
THICKEN
350
37
  0
DICTIONARY
  5
185
102
{ACAD_REACTORS
330
C
102
}
330
C
100
AcDbDictionary
  3
CEPSNTYPE
350
18E
  3
DIMSTYLEDATA
350
1A4
  3
FINGERPRINTGUID
350
18F
  3
HYPERLINKBASE
350
188
  3
INSUNITS
350
18D
  3
LAYOUTDICT
350
18A
  3
LWETCUNION
350
18C
  3
PLOTSETDICT
350
18B
  3
PSVPSCALE
350
191
  3
PUCSBASE
350
194
  3
PUCSORGBACK
350
19A
  3
PUCSORGBOTTOM
350
196
  3
PUCSORGFRONT
350
199
  3
PUCSORGLEFT
350
197
  3
PUCSORGRIGHT
350
198
  3
PUCSORGTOP
350
195
  3
PUCSORTHOREF
350
192
  3
PUCSORTHOVIEW
350
193
  3
STYLESHEET
350
189
  3
TSTACKALIGN
350
186
  3
TSTACKSIZE
350
187
  3
UCSBASE
350
19D
  3
UCSORGBACK
350
1A3
  3
UCSORGBOTTOM
350
19F
  3
UCSORGFRONT
350
1A2
  3
UCSORGLEFT
350
1A0
  3
UCSORGRIGHT
350
1A1
  3
UCSORGTOP
350
19E
  3
UCSORTHOREF
350
19B
  3
UCSORTHOVIEW
350
19C
  3
VERSIONGUID
350
190
  0
MLINESTYLE
  5
18
102
{ACAD_REACTORS
330
17
102
}
330
17
100
AcDbMlineStyle
  2
Standard
 70
     0
  3

 62
   256
 51
90.0
 52
90.0
 71
     2
 49
0.5
 62
   256
  6
BYLAYER
 49
-0.5
 62
   256
  6
BYLAYER
  0
VISUALSTYLE
  5
2F
102
{ACAD_REACTORS
330
2A
102
}
330
2A
100
AcDbVisualStyle
  2
2dWireframe
 70
     4
 71
     0
 72
     2
 73
     0
 90
        0
 40
-0.6
 41
-30.0
 62
     5
 63
     7
 74
     1
 91
        4
 64
     7
 65
   257
 75
     1
175
     1
 42
1.0
 92
        0
 66
   257
 43
1.0
 76
     1
 77
     6
 78
     2
 67
     7
 79
     5
170
     0
171
     0
290
     0
174
     0
 93
        1
 44
0.0
173
     0
291
     0
 45
0.0
1001
ACAD
1000
AcDbSavedByObjectVersion
1070
     0
  0
VISUALSTYLE
  5
31
102
{ACAD_REACTORS
330
2A
102
}
330
2A
100
AcDbVisualStyle
  2
3D Hidden
 70
     6
 71
     1
 72
     2
 73
     2
 90
        0
 40
-0.6
 41
-30.0
 62
     5
 63
     7
 74
     2
 91
        2
 64
     7
 65
   257
 75
     2
175
     1
 42
40.0
 92
        0
 66
   257
 43
1.0
 76
     1
 77
     6
 78
     2
 67
     7
 79
     3
170
     0
171
     0
290
     0
174
     0
 93
        1
 44
0.0
173
     0
291
     0
 45
0.0
1001
ACAD
1000
AcDbSavedByObjectVersion
1070
     0
  0
VISUALSTYLE
  5
30
102
{ACAD_REACTORS
330
2A
102
}
330
2A
100
AcDbVisualStyle
  2
3dWireframe
 70
     5
 71
     0
 72
     2
 73
     0
 90
        0
 40
-0.6
 41
-30.0
 62
     5
 63
     7
 74
     1
 91
        4
 64
     7
 65
   257
 75
     1
175
     1
 42
1.0
 92
        0
 66
   257
 43
1.0
 76
     1
 77
     6
 78
     2
 67
     7
 79
     5
170
     0
171
     0
290
     0
174
     0
 93
        1
 44
0.0
173
     0
291
     0
 45
0.0
1001
ACAD
1000
AcDbSavedByObjectVersion
1070
     0
  0
VISUALSTYLE
  5
32
102
{ACAD_REACTORS
330
2A
102
}
330
2A
100
AcDbVisualStyle
  2
Basic
 70
     7
 71
     1
 72
     0
 73
     1
 90
        0
 40
-0.6
 41
-30.0
 62
     5
 63
     7
 74
     0
 91
        4
 64
     7
 65
   257
 75
     1
175
     1
 42
1.0
 92
        8
 66
     7
 43
1.0
 76
     1
 77
     6
 78
     2
 67
     7
 79
     5
170
     0
171
     0
290
     0
174
     0
 93
        1
 44
0.0
173
     0
291
     1
 45
0.0
1001
ACAD
1000
AcDbSavedByObjectVersion
1070
     0
  0
VISUALSTYLE
  5
36
102
{ACAD_REACTORS
330
2A
102
}
330
2A
100
AcDbVisualStyle
  2
Brighten
 70
    12
 71
     2
 72
     2
 73
     0
 90
        0
 40
-0.6
 41
-30.0
 62
     5
 63
     7
 74
     1
 91
        4
 64
     7
 65
   257
 75
     1
175
     1
 42
1.0
 92
        8
 66
     7
 43
1.0
 76
     1
 77
     6
 78
     2
 67
     7
 79
     5
170
     0
171
     0
290
     0
174
     0
 93
        1
 44
50.0
173
     0
291
     1
 45
0.0
1001
ACAD
1000
AcDbSavedByObjectVersion
1070
     0
  0
VISUALSTYLE
  5
3A
102
{ACAD_REACTORS
330
2A
102
}
330
2A
100
AcDbVisualStyle
  2
ColorChange
 70
    16
 71
     2
 72
     2
 73
     3
 90
        0
 40
-0.6
 41
-30.0
 62
     5
 63
     8
 74
     1
 91
        4
 64
     7
 65
   257
 75
     1
175
     1
 42
1.0
 92
        8
 66
     8
 43
1.0
 76
     1
 77
     6
 78
     2
 67
     7
 79
     5
170
     0
171
     0
290
     0
174
     0
 93
        1
 44
0.0
173
     0
291
     1
 45
0.0
1001
ACAD
1000
AcDbSavedByObjectVersion
1070
     0
  0
VISUALSTYLE
  5
34
102
{ACAD_REACTORS
330
2A
102
}
330
2A
100
AcDbVisualStyle
  2
Conceptual
 70
     9
 71
     3
 72
     2
 73
     0
 90
        0
 40
-0.6
 41
-30.0
 62
     5
 63
     7
 74
     2
 91
        2
 64
     7
 65
   257
 75
     1
175
     1
 42
40.0
 92
        8
 66
     7
 43
1.0
 76
     1
 77
     6
 78
     2
 67
     7
 79
     3
170
     0
171
     0
290
     0
174
     0
 93
        1
 44
0.0
173
     0
291
     0
 45
0.0
1001
ACAD
1000
AcDbSavedByObjectVersion
1070
     0
  0
VISUALSTYLE
  5
35
102
{ACAD_REACTORS
330
2A
102
}
330
2A
100
AcDbVisualStyle
  2
Dim
 70
    11
 71
     2
 72
     2
 73
     0
 90
        0
 40
-0.6
 41
-30.0
 62
     5
 63
     7
 74
     1
 91
        4
 64
     7
 65
   257
 75
     1
175
     1
 42
1.0
 92
        8
 66
     7
 43
1.0
 76
     1
 77
     6
 78
     2
 67
     7
 79
     5
170
     0
171
     0
290
     0
174
     0
 93
        1
 44
-50.0
173
     0
291
     1
 45
0.0
1001
ACAD
1000
AcDbSavedByObjectVersion
1070
     0
  0
VISUALSTYLE
  5
39
102
{ACAD_REACTORS
330
2A
102
}
330
2A
100
AcDbVisualStyle
  2
Facepattern
 70
    15
 71
     2
 72
     2
 73
     0
 90
        0
 40
-0.6
 41
-30.0
 62
     5
 63
     7
 74
     1
 91
        4
 64
     7
 65
   257
 75
     1
175
     1
 42
1.0
 92
        8
 66
     7
 43
1.0
 76
     1
 77
     6
 78
     2
 67
     7
 79
     5
170
     0
171
     0
290
     0
174
     0
 93
        1
 44
0.0
173
     0
291
     1
 45
0.0
1001
ACAD
1000
AcDbSavedByObjectVersion
1070
     0
  0
VISUALSTYLE
  5
2B
102
{ACAD_REACTORS
330
2A
102
}
330
2A
100
AcDbVisualStyle
  2
Flat
 70
     0
 71
     2
 72
     1
 73
     1
 90
        2
 40
-0.6
 41
30.0
 62
     5
 63
     7
 74
     0
 91
        4
 64
     7
 65
   257
 75
     1
175
     1
 42
1.0
 92
        8
 66
     7
 43
1.0
 76
     1
 77
     6
 78
     2
 67
     7
 79
     5
170
     0
171
     0
290
     0
174
     0
 93
       13
 44
0.0
173
     0
291
     1
 45
0.0
1001
ACAD
1000
AcDbSavedByObjectVersion
1070
     0
  0
VISUALSTYLE
  5
2C
102
{ACAD_REACTORS
330
2A
102
}
330
2A
100
AcDbVisualStyle
  2
FlatWithEdges
 70
     1
 71
     2
 72
     1
 73
     1
 90
        2
 40
-0.6
 41
30.0
 62
     5
 63
     7
 74
     1
 91
        4
 64
     7
 65
   257
 75
     1
175
     1
 42
1.0
 92
        0
 66
   257
 43
1.0
 76
     1
 77
     6
 78
     2
 67
     7
 79
     5
170
     0
171
     0
290
     0
174
     0
 93
       13
 44
0.0
173
     0
291
     1
 45
0.0
1001
ACAD
1000
AcDbSavedByObjectVersion
1070
     0
  0
VISUALSTYLE
  5
2D
102
{ACAD_REACTORS
330
2A
102
}
330
2A
100
AcDbVisualStyle
  2
Gouraud
 70
     2
 71
     2
 72
     2
 73
     1
 90
        2
 40
-0.6
 41
30.0
 62
     5
 63
     7
 74
     0
 91
        4
 64
     7
 65
   257
 75
     1
175
     1
 42
1.0
 92
        0
 66
     7
 43
1.0
 76
     1
 77
     6
 78
     2
 67
     7
 79
     5
170
     0
171
     0
290
     0
174
     0
 93
       13
 44
0.0
173
     0
291
     1
 45
0.0
1001
ACAD
1000
AcDbSavedByObjectVersion
1070
     0
  0
VISUALSTYLE
  5
2E
102
{ACAD_REACTORS
330
2A
102
}
330
2A
100
AcDbVisualStyle
  2
GouraudWithEdges
 70
     3
 71
     2
 72
     2
 73
     1
 90
        2
 40
-0.6
 41
30.0
 62
     5
 63
     7
 74
     1
 91
        4
 64
     7
 65
   257
 75
     1
175
     1
 42
1.0
 92
        0
 66
   257
 43
1.0
 76
     1
 77
     6
 78
     2
 67
     7
 79
     5
170
     0
171
     0
290
     0
174
     0
 93
       13
 44
0.0
173
     0
291
     1
 45
0.0
1001
ACAD
1000
AcDbSavedByObjectVersion
1070
     0
  0
VISUALSTYLE
  5
38
102
{ACAD_REACTORS
330
2A
102
}
330
2A
100
AcDbVisualStyle
  2
Linepattern
 70
    14
 71
     2
 72
     2
 73
     0
 90
        0
 40
-0.6
 41
-30.0
 62
     5
 63
     7
 74
     1
 91
        4
 64
     7
 65
   257
 75
     7
175
     7
 42
1.0
 92
        8
 66
     7
 43
1.0
 76
     1
 77
     6
 78
     2
 67
     7
 79
     5
170
     0
171
     0
290
     0
174
     0
 93
        1
 44
0.0
173
     0
291
     1
 45
0.0
1001
ACAD
1000
AcDbSavedByObjectVersion
1070
     0
  0
VISUALSTYLE
  5
33
102
{ACAD_REACTORS
330
2A
102
}
330
2A
100
AcDbVisualStyle
  2
Realistic
 70
     8
 71
     2
 72
     2
 73
     0
 90
        0
 40
-0.6
 41
-30.0
 62
     5
 63
     7
 74
     1
 91
        0
 64
     7
 65
   257
 75
     1
175
     1
 42
1.0
 92
        8
 66
     8
 43
1.0
 76
     1
 77
     6
 78
     2
 67
     7
 79
     5
170
     0
171
     0
290
     0
174
     0
 93
       13
 44
0.0
173
     0
291
     0
 45
0.0
1001
ACAD
1000
AcDbSavedByObjectVersion
1070
     0
  0
VISUALSTYLE
  5
37
102
{ACAD_REACTORS
330
2A
102
}
330
2A
100
AcDbVisualStyle
  2
Thicken
 70
    13
 71
     2
 72
     2
 73
     0
 90
        0
 40
-0.6
 41
-30.0
 62
     5
 63
     7
 74
     1
 91
        4
 64
     7
 65
   257
 75
     1
175
     1
 42
1.0
 92
       12
 66
     7
 43
1.0
 76
     1
 77
     6
 78
     2
 67
     7
 79
     5
170
     0
171
     0
290
     0
174
     0
 93
        1
 44
0.0
173
     0
291
     1
 45
0.0
1001
ACAD
1000
AcDbSavedByObjectVersion
1070
     0
  0
XRECORD
  5
18E
102
{ACAD_REACTORS
330
185
102
}
330
185
100
AcDbXrecord
 90
        0
  0
XRECORD
  5
1A4
102
{ACAD_REACTORS
330
185
102
}
330
185
100
AcDbXrecord
1000
DSTYLE
1002
{
1070
   340
340
11
1002
}
  0
XRECORD
  5
18F
102
{ACAD_REACTORS
330
185
102
}
330
185
100
AcDbXrecord
  1
{F6298C0F-66E8-4A74-AD81-C2205A5F79DD}
  0
XRECORD
  5
188
102
{ACAD_REACTORS
330
185
102
}
330
185
100
AcDbXrecord
  1

  0
XRECORD
  5
18D
102
{ACAD_REACTORS
330
185
102
}
330
185
100
AcDbXrecord
 90
        1
  0
XRECORD
  5
18A
102
{ACAD_REACTORS
330
185
102
}
330
185
100
AcDbXrecord
340
1A
  0
XRECORD
  5
18C
102
{ACAD_REACTORS
330
185
102
}
330
185
100
AcDbXrecord
 90
    10269
  0
XRECORD
  5
18B
102
{ACAD_REACTORS
330
185
102
}
330
185
100
AcDbXrecord
340
19
  0
XRECORD
  5
191
102
{ACAD_REACTORS
330
185
102
}
330
185
100
AcDbXrecord
 40
0.0
  0
XRECORD
  5
194
102
{ACAD_REACTORS
330
185
102
}
330
185
100
AcDbXrecord
340
0
  0
XRECORD
  5
19A
102
{ACAD_REACTORS
330
185
102
}
330
185
100
AcDbXrecord
 10
0.0
 20
0.0
 30
0.0
  0
XRECORD
  5
196
102
{ACAD_REACTORS
330
185
102
}
330
185
100
AcDbXrecord
 10
0.0
 20
0.0
 30
0.0
  0
XRECORD
  5
199
102
{ACAD_REACTORS
330
185
102
}
330
185
100
AcDbXrecord
 10
0.0
 20
0.0
 30
0.0
  0
XRECORD
  5
197
102
{ACAD_REACTORS
330
185
102
}
330
185
100
AcDbXrecord
 10
0.0
 20
0.0
 30
0.0
  0
XRECORD
  5
198
102
{ACAD_REACTORS
330
185
102
}
330
185
100
AcDbXrecord
 10
0.0
 20
0.0
 30
0.0
  0
XRECORD
  5
195
102
{ACAD_REACTORS
330
185
102
}
330
185
100
AcDbXrecord
 10
0.0
 20
0.0
 30
0.0
  0
XRECORD
  5
192
102
{ACAD_REACTORS
330
185
102
}
330
185
100
AcDbXrecord
340
0
  0
XRECORD
  5
193
102
{ACAD_REACTORS
330
185
102
}
330
185
100
AcDbXrecord
 70
     0
  0
XRECORD
  5
189
102
{ACAD_REACTORS
330
185
102
}
330
185
100
AcDbXrecord
  1

  0
XRECORD
  5
186
102
{ACAD_REACTORS
330
185
102
}
330
185
100
AcDbXrecord
 90
        1
  0
XRECORD
  5
187
102
{ACAD_REACTORS
330
185
102
}
330
185
100
AcDbXrecord
 90
       70
  0
XRECORD
  5
19D
102
{ACAD_REACTORS
330
185
102
}
330
185
100
AcDbXrecord
340
0
  0
XRECORD
  5
1A3
102
{ACAD_REACTORS
330
185
102
}
330
185
100
AcDbXrecord
 10
0.0
 20
0.0
 30
0.0
  0
XRECORD
  5
19F
102
{ACAD_REACTORS
330
185
102
}
330
185
100
AcDbXrecord
 10
0.0
 20
0.0
 30
0.0
  0
XRECORD
  5
1A2
102
{ACAD_REACTORS
330
185
102
}
330
185
100
AcDbXrecord
 10
0.0
 20
0.0
 30
0.0
  0
XRECORD
  5
1A0
102
{ACAD_REACTORS
330
185
102
}
330
185
100
AcDbXrecord
 10
0.0
 20
0.0
 30
0.0
  0
XRECORD
  5
1A1
102
{ACAD_REACTORS
330
185
102
}
330
185
100
AcDbXrecord
 10
0.0
 20
0.0
 30
0.0
  0
XRECORD
  5
19E
102
{ACAD_REACTORS
330
185
102
}
330
185
100
AcDbXrecord
 10
0.0
 20
0.0
 30
0.0
  0
XRECORD
  5
19B
102
{ACAD_REACTORS
330
185
102
}
330
185
100
AcDbXrecord
340
0
  0
XRECORD
  5
19C
102
{ACAD_REACTORS
330
185
102
}
330
185
100
AcDbXrecord
 70
     0
  0
XRECORD
  5
190
102
{ACAD_REACTORS
330
185
102
}
330
185
100
AcDbXrecord
  1
{FAEB1C32-E019-11D5-929B-00C0DF256EC4}
  0
ENDSEC
  0
EOF
