  0
SECTION
  2
HEADER
  9
$ACADVER
  1
AC1014
  9
$ACADMAINTVER
 70
     9
  9
$DWGCODEPAGE
  3
ANSI_1252
  9
$INSBASE
 10
0.0
 20
0.0
 30
0.0
  9
$EXTMIN
 10
1.000000000000000E+20
 20
1.000000000000000E+20
 30
1.000000000000000E+20
  9
$EXTMAX
 10
-1.000000000000000E+20
 20
-1.000000000000000E+20
 30
-1.000000000000000E+20
  9
$LIMMIN
 10
0.0
 20
0.0
  9
$LIMMAX
 10
12.0
 20
9.0
  9
$ORTHOMODE
 70
     0
  9
$REGENMODE
 70
     1
  9
$FILLMODE
 70
     1
  9
$QTEXTMODE
 70
     0
  9
$MIRRTEXT
 70
     1
  9
$DRAGMODE
 70
     2
  9
$LTSCALE
 40
1.0
  9
$OSMODE
 70
    37
  9
$ATTMODE
 70
     1
  9
$TEXTSIZE
 40
0.2
  9
$TRACEWID
 40
0.05
  9
$TEXTSTYLE
  7
STANDARD
  9
$CLAYER
  8
0
  9
$CELTYPE
  6
BYLAYER
  9
$CECOLOR
 62
   256
  9
$CELTSCALE
 40
1.0
  9
$DELOBJ
 70
     1
  9
$DISPSILH
 70
     0
  9
$DIMSCALE
 40
1.0
  9
$DIMASZ
 40
0.18
  9
$DIMEXO
 40
0.0625
  9
$DIMDLI
 40
0.38
  9
$DIMRND
 40
0.0
  9
$DIMDLE
 40
0.0
  9
$DIMEXE
 40
0.18
  9
$DIMTP
 40
0.0
  9
$DIMTM
 40
0.0
  9
$DIMTXT
 40
0.18
  9
$DIMCEN
 40
0.09
  9
$DIMTSZ
 40
0.0
  9
$DIMTOL
 70
     0
  9
$DIMLIM
 70
     0
  9
$DIMTIH
 70
     1
  9
$DIMTOH
 70
     1
  9
$DIMSE1
 70
     0
  9
$DIMSE2
 70
     0
  9
$DIMTAD
 70
     0
  9
$DIMZIN
 70
     0
  9
$DIMBLK
  1

  9
$DIMASO
 70
     1
  9
$DIMSHO
 70
     1
  9
$DIMPOST
  1

  9
$DIMAPOST
  1

  9
$DIMALT
 70
     0
  9
$DIMALTD
 70
     2
  9
$DIMALTF
 40
25.4
  9
$DIMLFAC
 40
1.0
  9
$DIMTOFL
 70
     0
  9
$DIMTVP
 40
0.0
  9
$DIMTIX
 70
     0
  9
$DIMSOXD
 70
     0
  9
$DIMSAH
 70
     0
  9
$DIMBLK1
  1

  9
$DIMBLK2
  1

  9
$DIMSTYLE
  2
STANDARD
  9
$DIMCLRD
 70
     0
  9
$DIMCLRE
 70
     0
  9
$DIMCLRT
 70
     0
  9
$DIMTFAC
 40
1.0
  9
$DIMGAP
 40
0.09
  9
$DIMJUST
 70
     0
  9
$DIMSD1
 70
     0
  9
$DIMSD2
 70
     0
  9
$DIMTOLJ
 70
     1
  9
$DIMTZIN
 70
     0
  9
$DIMALTZ
 70
     0
  9
$DIMALTTZ
 70
     0
  9
$DIMFIT
 70
     3
  9
$DIMUPT
 70
     0
  9
$DIMUNIT
 70
     2
  9
$DIMDEC
 70
     4
  9
$DIMTDEC
 70
     4
  9
$DIMALTU
 70
     2
  9
$DIMALTTD
 70
     2
  9
$DIMTXSTY
  7
STANDARD
  9
$DIMAUNIT
 70
     0
  9
$LUNITS
 70
     2
  9
$LUPREC
 70
     4
  9
$SKETCHINC
 40
0.1
  9
$FILLETRAD
 40
0.5
  9
$AUNITS
 70
     0
  9
$AUPREC
 70
     0
  9
$MENU
  1
.
  9
$ELEVATION
 40
0.0
  9
$PELEVATION
 40
0.0
  9
$THICKNESS
 40
0.0
  9
$LIMCHECK
 70
     0
  9
$CHAMFERA
 40
0.5
  9
$CHAMFERB
 40
0.5
  9
$CHAMFERC
 40
1.0
  9
$CHAMFERD
 40
0.0
  9
$SKPOLY
 70
     0
  9
$TDCREATE
 40
2458185.54383184
  9
$TDUPDATE
 40
2458185.543831852
  9
$TDINDWG
 40
0.0000000116
  9
$TDUSRTIMER
 40
0.0000000116
  9
$USRTIMER
 70
     1
  9
$ANGBASE
 50
0.0
  9
$ANGDIR
 70
     0
  9
$PDMODE
 70
     0
  9
$PDSIZE
 40
0.0
  9
$PLINEWID
 40
0.0
  9
$COORDS
 70
     1
  9
$SPLFRAME
 70
     0
  9
$SPLINETYPE
 70
     6
  9
$SPLINESEGS
 70
     8
  9
$ATTDIA
 70
     0
  9
$ATTREQ
 70
     1
  9
$HANDLING
 70
     1
  9
$HANDSEED
  5
183
  9
$SURFTAB1
 70
     6
  9
$SURFTAB2
 70
     6
  9
$SURFTYPE
 70
     6
  9
$SURFU
 70
     6
  9
$SURFV
 70
     6
  9
$UCSNAME
  2

  9
$UCSORG
 10
0.0
 20
0.0
 30
0.0
  9
$UCSXDIR
 10
1.0
 20
0.0
 30
0.0
  9
$UCSYDIR
 10
0.0
 20
1.0
 30
0.0
  9
$PUCSNAME
  2

  9
$PUCSORG
 10
0.0
 20
0.0
 30
0.0
  9
$PUCSXDIR
 10
1.0
 20
0.0
 30
0.0
  9
$PUCSYDIR
 10
0.0
 20
1.0
 30
0.0
  9
$USERI1
 70
     0
  9
$USERI2
 70
     0
  9
$USERI3
 70
     0
  9
$USERI4
 70
     0
  9
$USERI5
 70
     0
  9
$USERR1
 40
0.0
  9
$USERR2
 40
0.0
  9
$USERR3
 40
0.0
  9
$USERR4
 40
0.0
  9
$USERR5
 40
0.0
  9
$WORLDVIEW
 70
     1
  9
$SHADEDGE
 70
     3
  9
$SHADEDIF
 70
    70
  9
$TILEMODE
 70
     1
  9
$MAXACTVP
 70
    64
  9
$PINSBASE
 10
0.0
 20
0.0
 30
0.0
  9
$PLIMCHECK
 70
     0
  9
$PEXTMIN
 10
1.000000000000000E+20
 20
1.000000000000000E+20
 30
1.000000000000000E+20
  9
$PEXTMAX
 10
-1.000000000000000E+20
 20
-1.000000000000000E+20
 30
-1.000000000000000E+20
  9
$PLIMMIN
 10
0.0
 20
0.0
  9
$PLIMMAX
 10
12.0
 20
9.0
  9
$UNITMODE
 70
     0
  9
$VISRETAIN
 70
     1
  9
$PLINEGEN
 70
     0
  9
$PSLTSCALE
 70
     1
  9
$TREEDEPTH
 70
  3020
  9
$PICKSTYLE
 70
     1
  9
$CMLSTYLE
  2
STANDARD
  9
$CMLJUST
 70
     0
  9
$CMLSCALE
 40
1.0
  9
$PROXYGRAPHICS
 70
     1
  9
$MEASUREMENT
 70
     0
  0
ENDSEC
  0
SECTION
  2
CLASSES
  0
CLASS
  1
ACDBDICTIONARYWDFLT
  2
AcDbDictionaryWithDefault
  3
ObjectDBX Classes
 90
        0
280
     0
281
     0
  0
CLASS
  1
VISUALSTYLE
  2
AcDbVisualStyle
  3
ObjectDBX Classes
 90
     4095
280
     0
281
     0
  0
CLASS
  1
XRECORD
  2
AcDbXrecord
  3
AutoCAD 2000
 90
        0
280
     0
281
     0
  0
CLASS
  1
LWPOLYLINE
  2
AcDbPolyline
  3
AutoCAD 2000
 90
        0
280
     0
281
     1
  0
CLASS
  1
HATCH
  2
AcDbHatch
  3
AutoCAD 2000
 90
        0
280
     0
281
     1
  0
CLASS
  1
ACDBPLACEHOLDER
  2
AcDbPlaceHolder
  3
ObjectDBX Classes
 90
        0
280
     0
281
     0
  0
CLASS
  1
LAYOUT
  2
AcDbLayout
  3
ObjectDBX Classes
 90
        0
280
     0
281
     0
  0
ENDSEC
  0
SECTION
  2
TABLES
  0
TABLE
  2
VPORT
  5
8
330
0
100
AcDbSymbolTable
 70
     1
  0
VPORT
  5
29
330
8
100
AcDbSymbolTableRecord
100
AcDbViewportTableRecord
  2
*ACTIVE
 70
     0
 10
0.0
 20
0.0
 11
1.0
 21
1.0
 12
0.0
 22
0.0
 13
0.0
 23
0.0
 14
0.5
 24
0.5
 15
0.5
 25
0.5
 16
0.0
 26
0.0
 36
1.0
 17
122.4779676343111
 27
-140.5178656332733
 37
0.0
 40
281.0357312665466
 41
0.8716184741515846
 42
50.0
 43
0.0
 44
0.0
 50
0.0
 51
0.0
 71
     0
 72
   100
 73
     1
 74
     3
 75
     0
 76
     0
 77
     0
 78
     0
  0
ENDTAB
  0
TABLE
  2
LTYPE
  5
5
330
0
100
AcDbSymbolTable
 70
     1
  0
LTYPE
  5
14
330
5
100
AcDbSymbolTableRecord
100
AcDbLinetypeTableRecord
  2
BYBLOCK
 70
     0
  3

 72
    65
 73
     0
 40
0.0
  0
LTYPE
  5
15
330
5
100
AcDbSymbolTableRecord
100
AcDbLinetypeTableRecord
  2
BYLAYER
 70
     0
  3

 72
    65
 73
     0
 40
0.0
  0
LTYPE
  5
16
330
5
100
AcDbSymbolTableRecord
100
AcDbLinetypeTableRecord
  2
CONTINUOUS
 70
     0
  3
Solid line
 72
    65
 73
     0
 40
0.0
  0
ENDTAB
  0
TABLE
  2
LAYER
  5
2
330
0
100
AcDbSymbolTable
 70
     2
  0
LAYER
  5
10
330
2
100
AcDbSymbolTableRecord
100
AcDbLayerTableRecord
  2
0
 70
     0
 62
     7
  6
CONTINUOUS
  0
LAYER
  5
3B
330
2
100
AcDbSymbolTableRecord
100
AcDbLayerTableRecord
  2
LAYER_1
 70
     0
 62
     7
  6
CONTINUOUS
  0
ENDTAB
  0
TABLE
  2
STYLE
  5
3
330
0
100
AcDbSymbolTable
 70
     1
  0
STYLE
  5
11
330
3
100
AcDbSymbolTableRecord
100
AcDbTextStyleTableRecord
  2
STANDARD
 70
     0
 40
0.0
 41
1.0
 50
0.0
 71
     0
 42
0.2
  3
txt
  4

  0
ENDTAB
  0
TABLE
  2
VIEW
  5
6
330
0
100
AcDbSymbolTable
 70
     0
  0
ENDTAB
  0
TABLE
  2
UCS
  5
7
330
0
100
AcDbSymbolTable
 70
     0
  0
ENDTAB
  0
TABLE
  2
APPID
  5
9
330
0
100
AcDbSymbolTable
 70
     1
  0
APPID
  5
12
330
9
100
AcDbSymbolTableRecord
100
AcDbRegAppTableRecord
  2
ACAD
 70
     0
  0
ENDTAB
  0
TABLE
  2
DIMSTYLE
  5
A
330
0
100
AcDbSymbolTable
 70
     1
  0
DIMSTYLE
105
27
330
A
100
AcDbSymbolTableRecord
100
AcDbDimStyleTableRecord
  2
STANDARD
 70
     0
  3

  4

  5

  6

  7

 40
1.0
 41
0.18
 42
0.0625
 43
0.38
 44
0.18
 45
0.0
 46
0.0
 47
0.0
 48
0.0
140
0.18
141
0.09
142
0.0
143
25.4
144
1.0
145
0.0
146
1.0
147
0.09
 71
     0
 72
     0
 73
     1
 74
     1
 75
     0
 76
     0
 77
     0
 78
     0
170
     0
171
     2
172
     0
173
     0
174
     0
175
     0
176
     0
177
     0
178
     0
270
     2
271
     4
272
     4
273
     2
274
     2
340
11
275
     0
280
     0
281
     0
282
     0
283
     1
284
     0
285
     0
286
     0
287
     3
288
     0
  0
ENDTAB
  0
TABLE
  2
BLOCK_RECORD
  5
1
330
0
100
AcDbSymbolTable
 70
     1
  0
BLOCK_RECORD
  5
1F
330
1
100
AcDbSymbolTableRecord
100
AcDbBlockTableRecord
  2
*MODEL_SPACE
  0
BLOCK_RECORD
  5
1B
330
1
100
AcDbSymbolTableRecord
100
AcDbBlockTableRecord
  2
*PAPER_SPACE
  0
ENDTAB
  0
ENDSEC
  0
SECTION
  2
BLOCKS
  0
BLOCK
  5
20
330
1F
100
AcDbEntity
  8
0
100
AcDbBlockBegin
  2
*MODEL_SPACE
 70
     0
 71
     0
 10
0.0
 20
0.0
 30
0.0
  3
*MODEL_SPACE
  1

  0
ENDBLK
  5
21
330
1F
100
AcDbEntity
  8
0
100
AcDbBlockEnd
  0
BLOCK
  5
1C
330
1B
100
AcDbEntity
 67
     1
  8
0
100
AcDbBlockBegin
  2
*PAPER_SPACE
 70
     0
 71
     0
 10
0.0
 20
0.0
 30
0.0
  3
*PAPER_SPACE
  1

  0
ENDBLK
  5
1D
330
1B
100
AcDbEntity
 67
     1
  8
0
100
AcDbBlockEnd
  0
ENDSEC
  0
SECTION
  2
ENTITIES
  0
POLYLINE
  5
3C
330
1F
100
AcDbEntity
  8
LAYER_1
100
AcDb2dPolyline
 66
     1
 10
0.0
 20
0.0
 30
0.0
  0
VERTEX
  5
3D
330
3C
100
AcDbEntity
  8
LAYER_1
100
AcDbVertex
100
AcDb2dVertex
 10
222.2773884535453
 20
-18.28381075931794
 30
0.0
  0
VERTEX
  5
3E
330
3C
100
AcDbEntity
  8
LAYER_1
100
AcDbVertex
100
AcDb2dVertex
 10
222.2773884535453
 20
-3.999928113149324
 30
0.0
  0
VERTEX
  5
3F
330
3C
100
AcDbEntity
  8
LAYER_1
100
AcDbVertex
100
AcDb2dVertex
 10
210.8510402576171
 20
-3.999928113149324
 30
0.0
  0
VERTEX
  5
40
330
3C
100
AcDbEntity
  8
LAYER_1
100
AcDbVertex
100
AcDb2dVertex
 10
210.8510402576171
 20
-6.998539223510782
 30
0.0
  0
VERTEX
  5
41
330
3C
100
AcDbEntity
  8
LAYER_1
100
AcDbVertex
100
AcDb2dVertex
 10
199.4209024566552
 20
-6.998539223510782
 30
0.0
  0
VERTEX
  5
42
330
3C
100
AcDbEntity
  8
LAYER_1
100
AcDbVertex
100
AcDb2dVertex
 10
199.4209024566552
 20
-3.999928113149324
 30
0.0
  0
VERTEX
  5
43
330
3C
100
AcDbEntity
  8
LAYER_1
100
AcDbVertex
100
AcDb2dVertex
 10
187.9911091652418
 20
-3.999928113149324
 30
0.0
  0
VERTEX
  5
44
330
3C
100
AcDbEntity
  8
LAYER_1
100
AcDbVertex
100
AcDb2dVertex
 10
187.9911091652418
 20
-6.998539223510782
 30
0.0
  0
VERTEX
  5
45
330
3C
100
AcDbEntity
  8
LAYER_1
100
AcDbVertex
100
AcDb2dVertex
 10
176.5647609693137
 20
-6.998539223510782
 30
0.0
  0
VERTEX
  5
46
330
3C
100
AcDbEntity
  8
LAYER_1
100
AcDbVertex
100
AcDb2dVertex
 10
176.5647609693137
 20
-3.999928113149324
 30
0.0
  0
VERTEX
  5
47
330
3C
100
AcDbEntity
  8
LAYER_1
100
AcDbVertex
100
AcDb2dVertex
 10
165.1342786588033
 20
-3.999928113149324
 30
0.0
  0
VERTEX
  5
48
330
3C
100
AcDbEntity
  8
LAYER_1
100
AcDbVertex
100
AcDb2dVertex
 10
165.1342786588033
 20
-6.998539223510782
 30
0.0
  0
VERTEX
  5
49
330
3C
100
AcDbEntity
  8
LAYER_1
100
AcDbVertex
100
AcDb2dVertex
 10
153.7079304628751
 20
-6.998539223510782
 30
0.0
  0
VERTEX
  5
4A
330
3C
100
AcDbEntity
  8
LAYER_1
100
AcDbVertex
100
AcDb2dVertex
 10
153.7079304628751
 20
-3.999928113149324
 30
0.0
  0
VERTEX
  5
4B
330
3C
100
AcDbEntity
  8
LAYER_1
100
AcDbVertex
100
AcDb2dVertex
 10
142.2781371714617
 20
-3.999928113149324
 30
0.0
  0
VERTEX
  5
4C
330
3C
100
AcDbEntity
  8
LAYER_1
100
AcDbVertex
100
AcDb2dVertex
 10
142.2781371714617
 20
-18.28381075931794
 30
0.0
  0
VERTEX
  5
4D
330
3C
100
AcDbEntity
  8
LAYER_1
100
AcDbVertex
100
AcDb2dVertex
 10
145.2767482818232
 20
-18.28381075931794
 30
0.0
  0
VERTEX
  5
4E
330
3C
100
AcDbEntity
  8
LAYER_1
100
AcDbVertex
100
AcDb2dVertex
 10
145.2767482818232
 20
-32.57131075574606
 30
0.0
  0
VERTEX
  5
4F
330
3C
100
AcDbEntity
  8
LAYER_1
100
AcDbVertex
100
AcDb2dVertex
 10
142.2781371714617
 20
-32.57131075574606
 30
0.0
  0
VERTEX
  5
50
330
3C
100
AcDbEntity
  8
LAYER_1
100
AcDbVertex
100
AcDb2dVertex
 10
142.2781371714617
 20
-46.85536565668894
 30
0.0
  0
VERTEX
  5
51
330
3C
100
AcDbEntity
  8
LAYER_1
100
AcDbVertex
100
AcDb2dVertex
 10
145.2767482818232
 20
-46.85536565668894
 30
0.0
  0
VERTEX
  5
52
330
3C
100
AcDbEntity
  8
LAYER_1
100
AcDbVertex
100
AcDb2dVertex
 10
145.2767482818232
 20
-61.14286565311706
 30
0.0
  0
VERTEX
  5
53
330
3C
100
AcDbEntity
  8
LAYER_1
100
AcDbVertex
100
AcDb2dVertex
 10
142.2781371714617
 20
-61.14286565311706
 30
0.0
  0
VERTEX
  5
54
330
3C
100
AcDbEntity
  8
LAYER_1
100
AcDbVertex
100
AcDb2dVertex
 10
142.2781371714617
 20
-75.42692055405993
 30
0.0
  0
VERTEX
  5
55
330
3C
100
AcDbEntity
  8
LAYER_1
100
AcDbVertex
100
AcDb2dVertex
 10
145.2767482818232
 20
-75.42692055405993
 30
0.0
  0
VERTEX
  5
56
330
3C
100
AcDbEntity
  8
LAYER_1
100
AcDbVertex
100
AcDb2dVertex
 10
145.2767482818232
 20
-89.71442055048807
 30
0.0
  0
VERTEX
  5
57
330
3C
100
AcDbEntity
  8
LAYER_1
100
AcDbVertex
100
AcDb2dVertex
 10
142.2781371714617
 20
-89.71442055048807
 30
0.0
  0
VERTEX
  5
58
330
3C
100
AcDbEntity
  8
LAYER_1
100
AcDbVertex
100
AcDb2dVertex
 10
142.2781371714617
 20
-103.9981309418824
 30
0.0
  0
VERTEX
  5
59
330
3C
100
AcDbEntity
  8
LAYER_1
100
AcDbVertex
100
AcDb2dVertex
 10
151.5668036187923
 20
-103.9981309418824
 30
0.0
  0
VERTEX
  5
5A
330
3C
100
AcDbEntity
  8
LAYER_1
100
AcDbVertex
100
AcDb2dVertex
 10
151.5668036187923
 20
-80.52807343906937
 30
0.0
  0
VERTEX
  5
5B
330
3C
100
AcDbEntity
  8
LAYER_1
100
AcDbVertex
100
AcDb2dVertex
 10
159.9277058519452
 20
-80.52807343906937
 30
0.0
  0
VERTEX
  5
5C
330
3C
100
AcDbEntity
  8
LAYER_1
100
AcDbVertex
100
AcDb2dVertex
 10
159.9277058519452
 20
-77.09538029756644
 30
0.0
  0
VERTEX
  5
5D
330
3C
100
AcDbEntity
  8
LAYER_1
100
AcDbVertex
100
AcDb2dVertex
 10
169.2160277897273
 20
-77.09538029756644
 30
0.0
  0
VERTEX
  5
5E
330
3C
100
AcDbEntity
  8
LAYER_1
100
AcDbVertex
100
AcDb2dVertex
 10
169.2160277897273
 20
-81.99912921127105
 30
0.0
  0
VERTEX
  5
5F
330
3C
100
AcDbEntity
  8
LAYER_1
100
AcDbVertex
100
AcDb2dVertex
 10
177.2806518111486
 20
-81.99912921127105
 30
0.0
  0
VERTEX
  5
60
330
3C
100
AcDbEntity
  8
LAYER_1
100
AcDbVertex
100
AcDb2dVertex
 10
177.2806518111486
 20
-79.54725475441874
 30
0.0
  0
VERTEX
  5
61
330
3C
100
AcDbEntity
  8
LAYER_1
100
AcDbVertex
100
AcDb2dVertex
 10
187.2748738138584
 20
-79.54725475441874
 30
0.0
  0
VERTEX
  5
62
330
3C
100
AcDbEntity
  8
LAYER_1
100
AcDbVertex
100
AcDb2dVertex
 10
187.2748738138584
 20
-81.99912921127105
 30
0.0
  0
VERTEX
  5
63
330
3C
100
AcDbEntity
  8
LAYER_1
100
AcDbVertex
100
AcDb2dVertex
 10
195.2264987033635
 20
-81.99912921127105
 30
0.0
  0
VERTEX
  5
64
330
3C
100
AcDbEntity
  8
LAYER_1
100
AcDbVertex
100
AcDb2dVertex
 10
195.2264987033635
 20
-77.09538029756644
 30
0.0
  0
VERTEX
  5
65
330
3C
100
AcDbEntity
  8
LAYER_1
100
AcDbVertex
100
AcDb2dVertex
 10
204.5186102461794
 20
-77.09538029756644
 30
0.0
  0
VERTEX
  5
66
330
3C
100
AcDbEntity
  8
LAYER_1
100
AcDbVertex
100
AcDb2dVertex
 10
204.5186102461794
 20
-80.52807343906937
 30
0.0
  0
VERTEX
  5
67
330
3C
100
AcDbEntity
  8
LAYER_1
100
AcDbVertex
100
AcDb2dVertex
 10
212.8795124793322
 20
-80.52807343906937
 30
0.0
  0
VERTEX
  5
68
330
3C
100
AcDbEntity
  8
LAYER_1
100
AcDbVertex
100
AcDb2dVertex
 10
212.8795124793322
 20
-103.9981309418824
 30
0.0
  0
VERTEX
  5
69
330
3C
100
AcDbEntity
  8
LAYER_1
100
AcDbVertex
100
AcDb2dVertex
 10
222.2773884535453
 20
-103.9981309418824
 30
0.0
  0
VERTEX
  5
6A
330
3C
100
AcDbEntity
  8
LAYER_1
100
AcDbVertex
100
AcDb2dVertex
 10
222.2773884535453
 20
-89.71442055048807
 30
0.0
  0
VERTEX
  5
6B
330
3C
100
AcDbEntity
  8
LAYER_1
100
AcDbVertex
100
AcDb2dVertex
 10
219.2787773431838
 20
-89.71442055048807
 30
0.0
  0
VERTEX
  5
6C
330
3C
100
AcDbEntity
  8
LAYER_1
100
AcDbVertex
100
AcDb2dVertex
 10
219.2787773431838
 20
-75.42692055405993
 30
0.0
  0
VERTEX
  5
6D
330
3C
100
AcDbEntity
  8
LAYER_1
100
AcDbVertex
100
AcDb2dVertex
 10
222.2773884535453
 20
-75.42692055405993
 30
0.0
  0
VERTEX
  5
6E
330
3C
100
AcDbEntity
  8
LAYER_1
100
AcDbVertex
100
AcDb2dVertex
 10
222.2773884535453
 20
-61.14286565311706
 30
0.0
  0
VERTEX
  5
6F
330
3C
100
AcDbEntity
  8
LAYER_1
100
AcDbVertex
100
AcDb2dVertex
 10
219.2787773431838
 20
-61.14286565311706
 30
0.0
  0
VERTEX
  5
70
330
3C
100
AcDbEntity
  8
LAYER_1
100
AcDbVertex
100
AcDb2dVertex
 10
219.2787773431838
 20
-46.85536565668894
 30
0.0
  0
VERTEX
  5
71
330
3C
100
AcDbEntity
  8
LAYER_1
100
AcDbVertex
100
AcDb2dVertex
 10
222.2773884535453
 20
-46.85536565668894
 30
0.0
  0
VERTEX
  5
72
330
3C
100
AcDbEntity
  8
LAYER_1
100
AcDbVertex
100
AcDb2dVertex
 10
222.2773884535453
 20
-32.57131075574606
 30
0.0
  0
VERTEX
  5
73
330
3C
100
AcDbEntity
  8
LAYER_1
100
AcDbVertex
100
AcDb2dVertex
 10
219.2787773431838
 20
-32.57131075574606
 30
0.0
  0
VERTEX
  5
74
330
3C
100
AcDbEntity
  8
LAYER_1
100
AcDbVertex
100
AcDb2dVertex
 10
219.2787773431838
 20
-18.28381075931794
 30
0.0
  0
VERTEX
  5
75
330
3C
100
AcDbEntity
  8
LAYER_1
100
AcDbVertex
100
AcDb2dVertex
 10
222.2773884535453
 20
-18.28381075931794
 30
0.0
  0
SEQEND
  5
76
330
3C
100
AcDbEntity
  8
LAYER_1
  0
SPLINE
  5
77
330
1F
100
AcDbEntity
  8
LAYER_1
100
AcDbSpline
210
0.0
220
0.0
230
1.0
 70
    11
 71
     3
 72
    29
 73
    25
 74
     0
 42
0.0000000001
 43
0.0000000001
 40
0.0
 40
0.0
 40
0.0
 40
0.0
 40
1.0
 40
1.0
 40
1.0
 40
2.0
 40
2.0
 40
2.0
 40
3.0
 40
3.0
 40
3.0
 40
4.0
 40
4.0
 40
4.0
 40
5.0
 40
5.0
 40
5.0
 40
6.0
 40
6.0
 40
6.0
 40
7.0
 40
7.0
 40
7.0
 40
8.0
 40
8.0
 40
8.0
 40
8.0
 10
167.0852362321002
 20
-32.85656466192475
 30
0.0
 10
166.7889580203687
 20
-33.00504827733901
 30
0.0
 10
166.5105943051606
 20
-33.15663247869001
 30
0.0
 10
166.234642156792
 20
-33.33646646302005
 30
0.0
 10
164.2347642276045
 20
-34.5394938064693
 30
0.0
 10
162.9363077392138
 20
-36.75124510799969
 30
0.0
 10
162.9363077392138
 20
-39.25238443029107
 30
0.0
 10
162.9363077392138
 20
-41.73250867012243
 30
0.0
 10
164.2347642276045
 20
-43.93736978068232
 30
0.0
 10
166.234642156792
 20
-45.14384221961682
 30
0.0
 10
166.5105943051606
 20
-45.32746580898063
 30
0.0
 10
166.7889580203687
 20
-45.47560491484638
 30
0.0
 10
167.0852362321002
 20
-45.60582952418882
 30
0.0
 10
167.0852362321002
 20
-45.60582952418882
 30
0.0
 10
167.0852362321002
 20
-55.40988225611281
 30
0.0
 10
167.0852362321002
 20
-55.40988225611281
 30
0.0
 10
159.3554754918452
 20
-54.09385578074737
 30
0.0
 10
153.4647067216165
 20
-47.36627331715149
 30
0.0
 10
153.4647067216165
 20
-39.25238443029107
 30
0.0
 10
153.4647067216165
 20
-31.13160535246016
 30
0.0
 10
159.3554754918452
 20
-24.3864529018895
 30
0.0
 10
167.0852362321002
 20
-23.07421603155784
 30
0.0
 10
167.0852362321002
 20
-23.07421603155784
 30
0.0
 10
167.0852362321002
 20
-32.85656466192475
 30
0.0
 10
167.0852362321002
 20
-32.85656466192475
 30
0.0
  0
POLYLINE
  5
78
330
1F
100
AcDbEntity
  8
LAYER_1
100
AcDb2dPolyline
 66
     1
 10
0.0
 20
0.0
 30
0.0
  0
VERTEX
  5
79
330
78
100
AcDbEntity
  8
LAYER_1
100
AcDbVertex
100
AcDb2dVertex
 10
155.6943725196702
 20
-16.99207220712351
 30
0.0
  0
VERTEX
  5
7A
330
78
100
AcDbEntity
  8
LAYER_1
100
AcDbVertex
100
AcDb2dVertex
 10
162.7499280734618
 20
-14.52262776329643
 30
0.0
  0
VERTEX
  5
7B
330
78
100
AcDbEntity
  8
LAYER_1
100
AcDbVertex
100
AcDb2dVertex
 10
183.5638169571473
 20
-16.46290554058914
 30
0.0
  0
VERTEX
  5
7C
330
78
100
AcDbEntity
  8
LAYER_1
100
AcDbVertex
100
AcDb2dVertex
 10
181.9763169575441
 20
-17.52123887365789
 30
0.0
  0
VERTEX
  5
7D
330
78
100
AcDbEntity
  8
LAYER_1
100
AcDbVertex
100
AcDb2dVertex
 10
155.6943725196702
 20
-16.99207220712351
 30
0.0
  0
SEQEND
  5
7E
330
78
100
AcDbEntity
  8
LAYER_1
  0
SPLINE
  5
7F
330
1F
100
AcDbEntity
  8
LAYER_1
100
AcDbSpline
210
0.0
220
0.0
230
1.0
 70
    11
 71
     3
 72
    29
 73
    25
 74
     0
 42
0.0000000001
 43
0.0000000001
 40
0.0
 40
0.0
 40
0.0
 40
0.0
 40
1.0
 40
1.0
 40
1.0
 40
2.0
 40
2.0
 40
2.0
 40
3.0
 40
3.0
 40
3.0
 40
4.0
 40
4.0
 40
4.0
 40
5.0
 40
5.0
 40
5.0
 40
6.0
 40
6.0
 40
6.0
 40
7.0
 40
7.0
 40
7.0
 40
8.0
 40
8.0
 40
8.0
 40
8.0
 10
172.405152680423
 20
-55.46638182207091
 30
0.0
 10
172.405152680423
 20
-55.46638182207091
 30
0.0
 10
172.405152680423
 20
-45.71882865610502
 30
0.0
 10
172.405152680423
 20
-45.71882865610502
 30
0.0
 10
172.6804158096945
 20
-45.60582952418882
 30
0.0
 10
172.9201944554679
 20
-45.49317490182116
 30
0.0
 10
173.1847777887351
 20
-45.34848089144066
 30
0.0
 10
175.3510538298601
 20
-44.17749293600424
 30
0.0
 10
176.797304914568
 20
-41.88064777598817
 30
0.0
 10
176.797304914568
 20
-39.25238443029107
 30
0.0
 10
176.797304914568
 20
-36.61723089362347
 30
0.0
 10
175.3510538298601
 20
-34.32073024315593
 30
0.0
 10
173.1847777887351
 20
-33.13527288668146
 30
0.0
 10
172.9201944554679
 20
-33.00504827733901
 30
0.0
 10
172.6804158096945
 20
-32.89204914542282
 30
0.0
 10
172.405152680423
 20
-32.78594020447713
 30
0.0
 10
172.405152680423
 20
-32.78594020447713
 30
0.0
 10
172.405152680423
 20
-23.01771646559974
 30
0.0
 10
172.405152680423
 20
-23.01771646559974
 30
0.0
 10
180.2616929345353
 20
-24.241758891509
 30
0.0
 10
186.2623602507435
 20
-31.05753579952728
 30
0.0
 10
186.2623602507435
 20
-39.25238443029107
 30
0.0
 10
186.2623602507435
 20
-47.44068737963288
 30
0.0
 10
180.2616929345353
 20
-54.23854979112787
 30
0.0
 10
172.405152680423
 20
-55.46638182207091
 30
0.0
  0
SPLINE
  5
80
330
1F
100
AcDbEntity
  8
LAYER_1
100
AcDbSpline
210
0.0
220
0.0
230
1.0
 70
    11
 71
     3
 72
    17
 73
    13
 74
     0
 42
0.0000000001
 43
0.0000000001
 40
0.0
 40
0.0
 40
0.0
 40
0.0
 40
1.0
 40
1.0
 40
1.0
 40
2.0
 40
2.0
 40
2.0
 40
3.0
 40
3.0
 40
3.0
 40
4.0
 40
4.0
 40
4.0
 40
4.0
 10
202.0774155853314
 20
-51.77255044278603
 30
0.0
 10
197.6146388937387
 20
-51.77255044278603
 30
0.0
 10
193.9883313859647
 20
-48.14624293501205
 30
0.0
 10
193.9883313859647
 20
-43.67278644741514
 30
0.0
 10
193.9883313859647
 20
-39.21379936085627
 30
0.0
 10
197.6146388937387
 20
-35.58714734353377
 30
0.0
 10
202.0774155853314
 20
-35.58714734353377
 30
0.0
 10
206.5505275633797
 20
-35.58714734353377
 30
0.0
 10
210.1771795807022
 20
-39.21379936085627
 30
0.0
 10
210.1771795807022
 20
-43.67278644741514
 30
0.0
 10
210.1771795807022
 20
-48.14624293501205
 30
0.0
 10
206.5505275633797
 20
-51.77255044278603
 30
0.0
 10
202.0774155853314
 20
-51.77255044278603
 30
0.0
  0
POLYLINE
  5
81
330
1F
100
AcDbEntity
  8
LAYER_1
100
AcDb2dPolyline
 66
     1
 10
0.0
 20
0.0
 30
0.0
  0
VERTEX
  5
82
330
81
100
AcDbEntity
  8
LAYER_1
100
AcDbVertex
100
AcDb2dVertex
 10
204.0459431456031
 20
-29.06075845627648
 30
0.0
  0
VERTEX
  5
83
330
81
100
AcDbEntity
  8
LAYER_1
100
AcDbVertex
100
AcDb2dVertex
 10
191.1695542599333
 20
-35.93992512122335
 30
0.0
  0
VERTEX
  5
84
330
81
100
AcDbEntity
  8
LAYER_1
100
AcDbVertex
100
AcDb2dVertex
 10
194.5209431479844
 20
-30.82809244020964
 30
0.0
  0
VERTEX
  5
85
330
81
100
AcDbEntity
  8
LAYER_1
100
AcDbVertex
100
AcDb2dVertex
 10
207.0445542559646
 20
-26.59131401244939
 30
0.0
  0
VERTEX
  5
86
330
81
100
AcDbEntity
  8
LAYER_1
100
AcDbVertex
100
AcDb2dVertex
 10
212.5126098101531
 20
-34.52881401046502
 30
0.0
  0
VERTEX
  5
87
330
81
100
AcDbEntity
  8
LAYER_1
100
AcDbVertex
100
AcDb2dVertex
 10
204.0459431456031
 20
-29.06075845627648
 30
0.0
  0
SEQEND
  5
88
330
81
100
AcDbEntity
  8
LAYER_1
  0
POLYLINE
  5
89
330
1F
100
AcDbEntity
  8
LAYER_1
100
AcDb2dPolyline
 66
     1
 10
0.0
 20
0.0
 30
0.0
  0
VERTEX
  5
8A
330
89
100
AcDbEntity
  8
LAYER_1
100
AcDbVertex
100
AcDb2dVertex
 10
120.9195786915583
 20
-190.7191080252369
 30
0.0
  0
VERTEX
  5
8B
330
89
100
AcDbEntity
  8
LAYER_1
100
AcDbVertex
100
AcDb2dVertex
 10
114.9189113753501
 20
-190.7191080252369
 30
0.0
  0
VERTEX
  5
8C
330
89
100
AcDbEntity
  8
LAYER_1
100
AcDbVertex
100
AcDb2dVertex
 10
114.9189113753501
 20
-193.7177191355983
 30
0.0
  0
VERTEX
  5
8D
330
89
100
AcDbEntity
  8
LAYER_1
100
AcDbVertex
100
AcDb2dVertex
 10
108.9216891546272
 20
-193.7177191355983
 30
0.0
  0
VERTEX
  5
8E
330
89
100
AcDbEntity
  8
LAYER_1
100
AcDbVertex
100
AcDb2dVertex
 10
108.9216891546272
 20
-190.7191080252369
 30
0.0
  0
VERTEX
  5
8F
330
89
100
AcDbEntity
  8
LAYER_1
100
AcDbVertex
100
AcDb2dVertex
 10
102.9210218384191
 20
-190.7191080252369
 30
0.0
  0
VERTEX
  5
90
330
89
100
AcDbEntity
  8
LAYER_1
100
AcDbVertex
100
AcDb2dVertex
 10
102.9210218384191
 20
-193.7177191355983
 30
0.0
  0
VERTEX
  5
91
330
89
100
AcDbEntity
  8
LAYER_1
100
AcDbVertex
100
AcDb2dVertex
 10
96.92035452221089
 20
-193.7177191355983
 30
0.0
  0
VERTEX
  5
92
330
89
100
AcDbEntity
  8
LAYER_1
100
AcDbVertex
100
AcDb2dVertex
 10
96.92035452221089
 20
-190.7191080252369
 30
0.0
  0
VERTEX
  5
93
330
89
100
AcDbEntity
  8
LAYER_1
100
AcDbVertex
100
AcDb2dVertex
 10
90.91968720600272
 20
-190.7191080252369
 30
0.0
  0
VERTEX
  5
94
330
89
100
AcDbEntity
  8
LAYER_1
100
AcDbVertex
100
AcDb2dVertex
 10
90.91968720600272
 20
-193.7177191355983
 30
0.0
  0
VERTEX
  5
95
330
89
100
AcDbEntity
  8
LAYER_1
100
AcDbVertex
100
AcDb2dVertex
 10
84.92212047573128
 20
-193.7177191355983
 30
0.0
  0
VERTEX
  5
96
330
89
100
AcDbEntity
  8
LAYER_1
100
AcDbVertex
100
AcDb2dVertex
 10
84.92212047573128
 20
-181.4345756924886
 30
0.0
  0
VERTEX
  5
97
330
89
100
AcDbEntity
  8
LAYER_1
100
AcDbVertex
100
AcDb2dVertex
 10
87.92073158609274
 20
-181.4345756924886
 30
0.0
  0
VERTEX
  5
98
330
89
100
AcDbEntity
  8
LAYER_1
100
AcDbVertex
100
AcDb2dVertex
 10
87.92073158609274
 20
-169.1472981347965
 30
0.0
  0
VERTEX
  5
99
330
89
100
AcDbEntity
  8
LAYER_1
100
AcDbVertex
100
AcDb2dVertex
 10
84.92212047573128
 20
-169.1472981347965
 30
0.0
  0
VERTEX
  5
9A
330
89
100
AcDbEntity
  8
LAYER_1
100
AcDbVertex
100
AcDb2dVertex
 10
84.92212047573128
 20
-156.8634656725897
 30
0.0
  0
VERTEX
  5
9B
330
89
100
AcDbEntity
  8
LAYER_1
100
AcDbVertex
100
AcDb2dVertex
 10
87.92073158609274
 20
-156.8634656725897
 30
0.0
  0
VERTEX
  5
9C
330
89
100
AcDbEntity
  8
LAYER_1
100
AcDbVertex
100
AcDb2dVertex
 10
87.92073158609274
 20
-144.5761881148976
 30
0.0
  0
VERTEX
  5
9D
330
89
100
AcDbEntity
  8
LAYER_1
100
AcDbVertex
100
AcDb2dVertex
 10
84.92212047573128
 20
-144.5761881148976
 30
0.0
  0
VERTEX
  5
9E
330
89
100
AcDbEntity
  8
LAYER_1
100
AcDbVertex
100
AcDb2dVertex
 10
84.92212047573128
 20
-132.2923556526908
 30
0.0
  0
VERTEX
  5
9F
330
89
100
AcDbEntity
  8
LAYER_1
100
AcDbVertex
100
AcDb2dVertex
 10
87.92073158609274
 20
-132.2923556526908
 30
0.0
  0
VERTEX
  5
A0
330
89
100
AcDbEntity
  8
LAYER_1
100
AcDbVertex
100
AcDb2dVertex
 10
87.92073158609274
 20
-120.0050780949987
 30
0.0
  0
VERTEX
  5
A1
330
89
100
AcDbEntity
  8
LAYER_1
100
AcDbVertex
100
AcDb2dVertex
 10
84.92212047573128
 20
-120.0050780949987
 30
0.0
  0
VERTEX
  5
A2
330
89
100
AcDbEntity
  8
LAYER_1
100
AcDbVertex
100
AcDb2dVertex
 10
84.92212047573128
 20
-107.7215901423404
 30
0.0
  0
VERTEX
  5
A3
330
89
100
AcDbEntity
  8
LAYER_1
100
AcDbVertex
100
AcDb2dVertex
 10
90.91968720600272
 20
-107.7215901423404
 30
0.0
  0
VERTEX
  5
A4
330
89
100
AcDbEntity
  8
LAYER_1
100
AcDbVertex
100
AcDb2dVertex
 10
90.91968720600272
 20
-110.7202012527019
 30
0.0
  0
VERTEX
  5
A5
330
89
100
AcDbEntity
  8
LAYER_1
100
AcDbVertex
100
AcDb2dVertex
 10
96.92035452221089
 20
-110.7202012527019
 30
0.0
  0
VERTEX
  5
A6
330
89
100
AcDbEntity
  8
LAYER_1
100
AcDbVertex
100
AcDb2dVertex
 10
96.92035452221089
 20
-107.7215901423404
 30
0.0
  0
VERTEX
  5
A7
330
89
100
AcDbEntity
  8
LAYER_1
100
AcDbVertex
100
AcDb2dVertex
 10
102.9210218384191
 20
-107.7215901423404
 30
0.0
  0
VERTEX
  5
A8
330
89
100
AcDbEntity
  8
LAYER_1
100
AcDbVertex
100
AcDb2dVertex
 10
102.9210218384191
 20
-110.7202012527019
 30
0.0
  0
VERTEX
  5
A9
330
89
100
AcDbEntity
  8
LAYER_1
100
AcDbVertex
100
AcDb2dVertex
 10
108.9216891546272
 20
-110.7202012527019
 30
0.0
  0
VERTEX
  5
AA
330
89
100
AcDbEntity
  8
LAYER_1
100
AcDbVertex
100
AcDb2dVertex
 10
108.9216891546272
 20
-107.7215901423404
 30
0.0
  0
VERTEX
  5
AB
330
89
100
AcDbEntity
  8
LAYER_1
100
AcDbVertex
100
AcDb2dVertex
 10
114.9189113753501
 20
-107.7215901423404
 30
0.0
  0
VERTEX
  5
AC
330
89
100
AcDbEntity
  8
LAYER_1
100
AcDbVertex
100
AcDb2dVertex
 10
114.9189113753501
 20
-110.7202012527019
 30
0.0
  0
VERTEX
  5
AD
330
89
100
AcDbEntity
  8
LAYER_1
100
AcDbVertex
100
AcDb2dVertex
 10
120.9195786915583
 20
-110.7202012527019
 30
0.0
  0
VERTEX
  5
AE
330
89
100
AcDbEntity
  8
LAYER_1
100
AcDbVertex
100
AcDb2dVertex
 10
120.9195786915583
 20
-107.7215901423404
 30
0.0
  0
VERTEX
  5
AF
330
89
100
AcDbEntity
  8
LAYER_1
100
AcDbVertex
100
AcDb2dVertex
 10
126.9202460077665
 20
-107.7215901423404
 30
0.0
  0
VERTEX
  5
B0
330
89
100
AcDbEntity
  8
LAYER_1
100
AcDbVertex
100
AcDb2dVertex
 10
126.9202460077665
 20
-117.7192572405355
 30
0.0
  0
VERTEX
  5
B1
330
89
100
AcDbEntity
  8
LAYER_1
100
AcDbVertex
100
AcDb2dVertex
 10
109.9200778262526
 20
-117.7192572405355
 30
0.0
  0
VERTEX
  5
B2
330
89
100
AcDbEntity
  8
LAYER_1
100
AcDbVertex
100
AcDb2dVertex
 10
109.9200778262526
 20
-126.7185356671051
 30
0.0
  0
VERTEX
  5
B3
330
89
100
AcDbEntity
  8
LAYER_1
100
AcDbVertex
100
AcDb2dVertex
 10
116.9191338140862
 20
-126.7185356671051
 30
0.0
  0
VERTEX
  5
B4
330
89
100
AcDbEntity
  8
LAYER_1
100
AcDbVertex
100
AcDb2dVertex
 10
116.9191338140862
 20
-136.7199923703339
 30
0.0
  0
VERTEX
  5
B5
330
89
100
AcDbEntity
  8
LAYER_1
100
AcDbVertex
100
AcDb2dVertex
 10
106.9214667158912
 20
-136.7199923703339
 30
0.0
  0
VERTEX
  5
B6
330
89
100
AcDbEntity
  8
LAYER_1
100
AcDbVertex
100
AcDb2dVertex
 10
106.9214667158912
 20
-146.7211045640142
 30
0.0
  0
VERTEX
  5
B7
330
89
100
AcDbEntity
  8
LAYER_1
100
AcDbVertex
100
AcDb2dVertex
 10
111.9203002649887
 20
-146.7211045640142
 30
0.0
  0
VERTEX
  5
B8
330
89
100
AcDbEntity
  8
LAYER_1
100
AcDbVertex
100
AcDb2dVertex
 10
111.9203002649887
 20
-154.7185492234732
 30
0.0
  0
VERTEX
  5
B9
330
89
100
AcDbEntity
  8
LAYER_1
100
AcDbVertex
100
AcDb2dVertex
 10
106.9214667158912
 20
-154.7185492234732
 30
0.0
  0
VERTEX
  5
BA
330
89
100
AcDbEntity
  8
LAYER_1
100
AcDbVertex
100
AcDb2dVertex
 10
106.9214667158912
 20
-164.720005926702
 30
0.0
  0
VERTEX
  5
BB
330
89
100
AcDbEntity
  8
LAYER_1
100
AcDbVertex
100
AcDb2dVertex
 10
116.9191338140862
 20
-164.720005926702
 30
0.0
  0
VERTEX
  5
BC
330
89
100
AcDbEntity
  8
LAYER_1
100
AcDbVertex
100
AcDb2dVertex
 10
116.9191338140862
 20
-174.7207736108337
 30
0.0
  0
VERTEX
  5
BD
330
89
100
AcDbEntity
  8
LAYER_1
100
AcDbVertex
100
AcDb2dVertex
 10
109.9200778262526
 20
-174.7207736108337
 30
0.0
  0
VERTEX
  5
BE
330
89
100
AcDbEntity
  8
LAYER_1
100
AcDbVertex
100
AcDb2dVertex
 10
109.9200778262526
 20
-183.7200520374033
 30
0.0
  0
VERTEX
  5
BF
330
89
100
AcDbEntity
  8
LAYER_1
100
AcDbVertex
100
AcDb2dVertex
 10
126.9202460077665
 20
-183.7200520374033
 30
0.0
  0
VERTEX
  5
C0
330
89
100
AcDbEntity
  8
LAYER_1
100
AcDbVertex
100
AcDb2dVertex
 10
126.9202460077665
 20
-193.7177191355983
 30
0.0
  0
VERTEX
  5
C1
330
89
100
AcDbEntity
  8
LAYER_1
100
AcDbVertex
100
AcDb2dVertex
 10
120.9195786915583
 20
-193.7177191355983
 30
0.0
  0
VERTEX
  5
C2
330
89
100
AcDbEntity
  8
LAYER_1
100
AcDbVertex
100
AcDb2dVertex
 10
120.9195786915583
 20
-190.7191080252369
 30
0.0
  0
SEQEND
  5
C3
330
89
100
AcDbEntity
  8
LAYER_1
  0
SPLINE
  5
C4
330
1F
100
AcDbEntity
  8
LAYER_1
100
AcDbSpline
210
0.0
220
0.0
230
1.0
 70
    11
 71
     3
 72
    80
 73
    76
 74
     0
 42
0.0000000001
 43
0.0000000001
 40
0.0
 40
0.0
 40
0.0
 40
0.0
 40
1.0
 40
1.0
 40
1.0
 40
2.0
 40
2.0
 40
2.0
 40
3.0
 40
3.0
 40
3.0
 40
4.0
 40
4.0
 40
4.0
 40
5.0
 40
5.0
 40
5.0
 40
6.0
 40
6.0
 40
6.0
 40
7.0
 40
7.0
 40
7.0
 40
8.0
 40
8.0
 40
8.0
 40
9.0
 40
9.0
 40
9.0
 40
10.0
 40
10.0
 40
10.0
 40
11.0
 40
11.0
 40
11.0
 40
12.0
 40
12.0
 40
12.0
 40
13.0
 40
13.0
 40
13.0
 40
14.0
 40
14.0
 40
14.0
 40
15.0
 40
15.0
 40
15.0
 40
16.0
 40
16.0
 40
16.0
 40
17.0
 40
17.0
 40
17.0
 40
18.0
 40
18.0
 40
18.0
 40
19.0
 40
19.0
 40
19.0
 40
20.0
 40
20.0
 40
20.0
 40
21.0
 40
21.0
 40
21.0
 40
22.0
 40
22.0
 40
22.0
 40
23.0
 40
23.0
 40
23.0
 40
24.0
 40
24.0
 40
24.0
 40
25.0
 40
25.0
 40
25.0
 40
25.0
 10
130.8686699434113
 20
-114.4722547456875
 30
0.0
 10
130.8686699434113
 20
-114.4722547456875
 30
0.0
 10
130.8686699434113
 20
-107.4731987578539
 30
0.0
 10
130.8686699434113
 20
-107.4731987578539
 30
0.0
 10
130.8686699434113
 20
-107.4731987578539
 30
0.0
 10
130.071130338576
 20
-107.4731987578539
 30
0.0
 10
130.071130338576
 20
-107.4731987578539
 30
0.0
 10
130.071130338576
 20
-105.8147297912546
 30
0.0
 10
131.2703680769914
 20
-101.958978924163
 30
0.0
 10
133.870726149258
 20
-103.4162543144237
 30
0.0
 10
133.870726149258
 20
-103.4162543144237
 30
0.0
 10
134.2727687923867
 20
-139.3740939321704
 30
0.0
 10
134.2727687923867
 20
-139.3740939321704
 30
0.0
 10
134.2727687923867
 20
-140.2560383763943
 30
0.0
 10
134.9924492392554
 20
-140.968484122744
 30
0.0
 10
135.8778387789646
 20
-140.9719292182292
 30
0.0
 10
136.7597832231885
 20
-140.9719292182292
 30
0.0
 10
137.476018574572
 20
-140.2560383763943
 30
0.0
 10
137.476018574572
 20
-139.3740939321704
 30
0.0
 10
137.476018574572
 20
-139.3740939321704
 30
0.0
 10
137.8711710267301
 20
-103.4162543144237
 30
0.0
 10
137.8711710267301
 20
-103.4162543144237
 30
0.0
 10
140.4780747804187
 20
-101.958978924163
 30
0.0
 10
141.6776570283827
 20
-105.8147297912546
 30
0.0
 10
141.6776570283827
 20
-107.4731987578539
 30
0.0
 10
141.6776570283827
 20
-107.4731987578539
 30
0.0
 10
140.8697821370916
 20
-107.4731987578539
 30
0.0
 10
140.8697821370916
 20
-107.4731987578539
 30
0.0
 10
140.8697821370916
 20
-107.4731987578539
 30
0.0
 10
140.8732272325769
 20
-114.4722547456875
 30
0.0
 10
140.8732272325769
 20
-114.4722547456875
 30
0.0
 10
140.8732272325769
 20
-114.4722547456875
 30
0.0
 10
143.8752834384235
 20
-114.4708767074934
 30
0.0
 10
143.8752834384235
 20
-114.4708767074934
 30
0.0
 10
143.8752834384235
 20
-114.4708767074934
 30
0.0
 10
143.8752834384235
 20
-187.4731390590345
 30
0.0
 10
143.8752834384235
 20
-187.4731390590345
 30
0.0
 10
143.8752834384235
 20
-187.4731390590345
 30
0.0
 10
140.8766723280621
 20
-187.4724500399375
 30
0.0
 10
140.8766723280621
 20
-187.4724500399375
 30
0.0
 10
140.8766723280621
 20
-187.4724500399375
 30
0.0
 10
140.8766723280621
 20
-194.471506027771
 30
0.0
 10
140.8766723280621
 20
-194.471506027771
 30
0.0
 10
140.8766723280621
 20
-194.471506027771
 30
0.0
 10
141.6776570283827
 20
-194.471506027771
 30
0.0
 10
141.6776570283827
 20
-194.471506027771
 30
0.0
 10
141.6776570283827
 20
-196.1292859752732
 30
0.0
 10
140.4780747804187
 20
-199.9850368423648
 30
0.0
 10
137.8746161222154
 20
-198.5284504712012
 30
0.0
 10
137.8746161222154
 20
-198.5284504712012
 30
0.0
 10
137.4725734790867
 20
-150.9723523928125
 30
0.0
 10
137.4725734790867
 20
-150.9723523928125
 30
0.0
 10
137.4725734790867
 20
-150.9723523928125
 30
0.0
 10
134.2727687923867
 20
-150.9723523928125
 30
0.0
 10
134.2727687923867
 20
-150.9723523928125
 30
0.0
 10
134.2727687923867
 20
-150.9723523928125
 30
0.0
 10
133.8741712447433
 20
-198.5284504712012
 30
0.0
 10
133.8741712447433
 20
-198.5284504712012
 30
0.0
 10
131.2703680769914
 20
-199.9850368423648
 30
0.0
 10
130.071130338576
 20
-196.1292859752732
 30
0.0
 10
130.071130338576
 20
-194.471506027771
 30
0.0
 10
130.071130338576
 20
-194.471506027771
 30
0.0
 10
130.8755601343818
 20
-194.471506027771
 30
0.0
 10
130.8755601343818
 20
-194.471506027771
 30
0.0
 10
130.8755601343818
 20
-194.471506027771
 30
0.0
 10
130.8721150388966
 20
-187.4724500399375
 30
0.0
 10
130.8721150388966
 20
-187.4724500399375
 30
0.0
 10
130.8721150388966
 20
-187.4724500399375
 30
0.0
 10
127.8707478521469
 20
-187.4731390590345
 30
0.0
 10
127.8707478521469
 20
-187.4731390590345
 30
0.0
 10
127.8707478521469
 20
-187.4731390590345
 30
0.0
 10
127.8707478521469
 20
-114.4708767074934
 30
0.0
 10
127.8707478521469
 20
-114.4708767074934
 30
0.0
 10
127.8707478521469
 20
-114.4708767074934
 30
0.0
 10
130.8686699434113
 20
-114.4722547456875
 30
0.0
 10
130.8686699434113
 20
-114.4722547456875
 30
0.0
  0
SPLINE
  5
C5
330
1F
100
AcDbEntity
  8
LAYER_1
100
AcDbSpline
210
0.0
220
0.0
230
1.0
 70
    11
 71
     3
 72
    80
 73
    76
 74
     0
 42
0.0000000001
 43
0.0000000001
 40
0.0
 40
0.0
 40
0.0
 40
0.0
 40
1.0
 40
1.0
 40
1.0
 40
2.0
 40
2.0
 40
2.0
 40
3.0
 40
3.0
 40
3.0
 40
4.0
 40
4.0
 40
4.0
 40
5.0
 40
5.0
 40
5.0
 40
6.0
 40
6.0
 40
6.0
 40
7.0
 40
7.0
 40
7.0
 40
8.0
 40
8.0
 40
8.0
 40
9.0
 40
9.0
 40
9.0
 40
10.0
 40
10.0
 40
10.0
 40
11.0
 40
11.0
 40
11.0
 40
12.0
 40
12.0
 40
12.0
 40
13.0
 40
13.0
 40
13.0
 40
14.0
 40
14.0
 40
14.0
 40
15.0
 40
15.0
 40
15.0
 40
16.0
 40
16.0
 40
16.0
 40
17.0
 40
17.0
 40
17.0
 40
18.0
 40
18.0
 40
18.0
 40
19.0
 40
19.0
 40
19.0
 40
20.0
 40
20.0
 40
20.0
 40
21.0
 40
21.0
 40
21.0
 40
22.0
 40
22.0
 40
22.0
 40
23.0
 40
23.0
 40
23.0
 40
24.0
 40
24.0
 40
24.0
 40
25.0
 40
25.0
 40
25.0
 40
25.0
 10
156.5184393597419
 20
-192.9728894916873
 30
0.0
 10
156.5184393597419
 20
-192.9728894916873
 30
0.0
 10
149.5193833719084
 20
-192.9728894916873
 30
0.0
 10
149.5193833719084
 20
-192.9728894916873
 30
0.0
 10
149.5193833719084
 20
-192.9728894916873
 30
0.0
 10
149.5193833719084
 20
-193.7700845869741
 30
0.0
 10
149.5193833719084
 20
-193.7700845869741
 30
0.0
 10
147.8609144053091
 20
-193.7700845869741
 30
0.0
 10
144.0051635382175
 20
-192.5711913581072
 30
0.0
 10
145.4624389284782
 20
-189.9708332858406
 30
0.0
 10
145.4624389284782
 20
-189.9708332858406
 30
0.0
 10
181.4202785462248
 20
-189.5684461331635
 30
0.0
 10
181.4202785462248
 20
-189.5684461331635
 30
0.0
 10
182.3022229904488
 20
-189.5684461331635
 30
0.0
 10
183.0146687367984
 20
-188.8491101958433
 30
0.0
 10
183.0181138322837
 20
-187.9637206561341
 30
0.0
 10
183.0181138322837
 20
-187.0817762119101
 30
0.0
 10
182.3022229904488
 20
-186.3651963509782
 30
0.0
 10
181.4202785462248
 20
-186.3651963509782
 30
0.0
 10
181.4202785462248
 20
-186.3651963509782
 30
0.0
 10
145.4624389284782
 20
-185.9703884083685
 30
0.0
 10
145.4624389284782
 20
-185.9703884083685
 30
0.0
 10
144.0051635382175
 20
-183.3631401451314
 30
0.0
 10
147.8609144053091
 20
-182.1635578971675
 30
0.0
 10
149.5193833719084
 20
-182.1635578971675
 30
0.0
 10
149.5193833719084
 20
-182.1635578971675
 30
0.0
 10
149.5193833719084
 20
-182.9717772980071
 30
0.0
 10
149.5193833719084
 20
-182.9717772980071
 30
0.0
 10
149.5193833719084
 20
-182.9717772980071
 30
0.0
 10
156.5184393597419
 20
-182.9683322025218
 30
0.0
 10
156.5184393597419
 20
-182.9683322025218
 30
0.0
 10
156.5184393597419
 20
-182.9683322025218
 30
0.0
 10
156.5170613215478
 20
-179.9662759966751
 30
0.0
 10
156.5170613215478
 20
-179.9662759966751
 30
0.0
 10
156.5170613215478
 20
-179.9662759966751
 30
0.0
 10
229.5193236730889
 20
-179.9662759966751
 30
0.0
 10
229.5193236730889
 20
-179.9662759966751
 30
0.0
 10
229.5193236730889
 20
-179.9662759966751
 30
0.0
 10
229.5182901444433
 20
-182.9648871070366
 30
0.0
 10
229.5182901444433
 20
-182.9648871070366
 30
0.0
 10
229.5182901444433
 20
-182.9648871070366
 30
0.0
 10
236.5173461322769
 20
-182.9648871070366
 30
0.0
 10
236.5173461322769
 20
-182.9648871070366
 30
0.0
 10
236.5173461322769
 20
-182.9648871070366
 30
0.0
 10
236.5173461322769
 20
-182.1635578971675
 30
0.0
 10
236.5173461322769
 20
-182.1635578971675
 30
0.0
 10
238.1754705893277
 20
-182.1635578971675
 30
0.0
 10
242.0315659659678
 20
-183.3631401451314
 30
0.0
 10
240.5742905757071
 20
-185.9669433128833
 30
0.0
 10
240.5742905757071
 20
-185.9669433128833
 30
0.0
 10
193.0185370068669
 20
-186.3686414464634
 30
0.0
 10
193.0185370068669
 20
-186.3686414464634
 30
0.0
 10
193.0185370068669
 20
-186.3686414464634
 30
0.0
 10
193.0185370068669
 20
-189.5684461331635
 30
0.0
 10
193.0185370068669
 20
-189.5684461331635
 30
0.0
 10
193.0185370068669
 20
-189.5684461331635
 30
0.0
 10
240.5742905757071
 20
-189.9673881903554
 30
0.0
 10
240.5742905757071
 20
-189.9673881903554
 30
0.0
 10
242.0315659659678
 20
-192.5711913581072
 30
0.0
 10
238.1754705893277
 20
-193.7700845869741
 30
0.0
 10
236.5173461322769
 20
-193.7700845869741
 30
0.0
 10
236.5173461322769
 20
-193.7700845869741
 30
0.0
 10
236.5173461322769
 20
-192.9659993007168
 30
0.0
 10
236.5173461322769
 20
-192.9659993007168
 30
0.0
 10
236.5173461322769
 20
-192.9659993007168
 30
0.0
 10
229.5182901444433
 20
-192.9694443962021
 30
0.0
 10
229.5182901444433
 20
-192.9694443962021
 30
0.0
 10
229.5182901444433
 20
-192.9694443962021
 30
0.0
 10
229.5193236730889
 20
-195.9708115829517
 30
0.0
 10
229.5193236730889
 20
-195.9708115829517
 30
0.0
 10
229.5193236730889
 20
-195.9708115829517
 30
0.0
 10
156.5170613215478
 20
-195.9708115829517
 30
0.0
 10
156.5170613215478
 20
-195.9708115829517
 30
0.0
 10
156.5170613215478
 20
-195.9708115829517
 30
0.0
 10
156.5184393597419
 20
-192.9728894916873
 30
0.0
 10
156.5184393597419
 20
-192.9728894916873
 30
0.0
  0
POLYLINE
  5
C6
330
1F
100
AcDbEntity
  8
LAYER_1
100
AcDb2dPolyline
 66
     1
 10
0.0
 20
0.0
 30
0.0
  0
VERTEX
  5
C7
330
C6
100
AcDbEntity
  8
LAYER_1
100
AcDbVertex
100
AcDb2dVertex
 10
168.5518133801711
 20
-96.13194442041146
 30
0.0
  0
VERTEX
  5
C8
330
C6
100
AcDbEntity
  8
LAYER_1
100
AcDbVertex
100
AcDb2dVertex
 10
158.8669609520367
 20
-96.13194442041146
 30
0.0
  0
VERTEX
  5
C9
330
C6
100
AcDbEntity
  8
LAYER_1
100
AcDbVertex
100
AcDb2dVertex
 10
158.8669609520367
 20
-99.13055553077292
 30
0.0
  0
VERTEX
  5
CA
330
C6
100
AcDbEntity
  8
LAYER_1
100
AcDbVertex
100
AcDb2dVertex
 10
152.7767211532121
 20
-99.13055553077292
 30
0.0
  0
VERTEX
  5
CB
330
C6
100
AcDbEntity
  8
LAYER_1
100
AcDbVertex
100
AcDb2dVertex
 10
152.7767211532121
 20
-107.3615776641318
 30
0.0
  0
VERTEX
  5
CC
330
C6
100
AcDbEntity
  8
LAYER_1
100
AcDbVertex
100
AcDb2dVertex
 10
149.7781100428506
 20
-107.3615776641318
 30
0.0
  0
VERTEX
  5
CD
330
C6
100
AcDbEntity
  8
LAYER_1
100
AcDbVertex
100
AcDb2dVertex
 10
149.7781100428506
 20
-119.1885904649945
 30
0.0
  0
VERTEX
  5
CE
330
C6
100
AcDbEntity
  8
LAYER_1
100
AcDbVertex
100
AcDb2dVertex
 10
152.7767211532121
 20
-119.1885904649945
 30
0.0
  0
VERTEX
  5
CF
330
C6
100
AcDbEntity
  8
LAYER_1
100
AcDbVertex
100
AcDb2dVertex
 10
152.7767211532121
 20
-130.2180636610219
 30
0.0
  0
VERTEX
  5
D0
330
C6
100
AcDbEntity
  8
LAYER_1
100
AcDbVertex
100
AcDb2dVertex
 10
149.7781100428506
 20
-130.2180636610219
 30
0.0
  0
VERTEX
  5
D1
330
C6
100
AcDbEntity
  8
LAYER_1
100
AcDbVertex
100
AcDb2dVertex
 10
149.7781100428506
 20
-142.044731952336
 30
0.0
  0
VERTEX
  5
D2
330
C6
100
AcDbEntity
  8
LAYER_1
100
AcDbVertex
100
AcDb2dVertex
 10
152.7767211532121
 20
-142.044731952336
 30
0.0
  0
VERTEX
  5
D3
330
C6
100
AcDbEntity
  8
LAYER_1
100
AcDbVertex
100
AcDb2dVertex
 10
152.7767211532121
 20
-153.0745496579119
 30
0.0
  0
VERTEX
  5
D4
330
C6
100
AcDbEntity
  8
LAYER_1
100
AcDbVertex
100
AcDb2dVertex
 10
149.7781100428506
 20
-153.0745496579119
 30
0.0
  0
VERTEX
  5
D5
330
C6
100
AcDbEntity
  8
LAYER_1
100
AcDbVertex
100
AcDb2dVertex
 10
149.7781100428506
 20
-164.9050075542599
 30
0.0
  0
VERTEX
  5
D6
330
C6
100
AcDbEntity
  8
LAYER_1
100
AcDbVertex
100
AcDb2dVertex
 10
152.7767211532121
 20
-164.9050075542599
 30
0.0
  0
VERTEX
  5
D7
330
C6
100
AcDbEntity
  8
LAYER_1
100
AcDbVertex
100
AcDb2dVertex
 10
152.7767211532121
 20
-173.1325845921335
 30
0.0
  0
VERTEX
  5
D8
330
C6
100
AcDbEntity
  8
LAYER_1
100
AcDbVertex
100
AcDb2dVertex
 10
158.8669609520367
 20
-173.1325845921335
 30
0.0
  0
VERTEX
  5
D9
330
C6
100
AcDbEntity
  8
LAYER_1
100
AcDbVertex
100
AcDb2dVertex
 10
158.8669609520367
 20
-176.131195702495
 30
0.0
  0
VERTEX
  5
DA
330
C6
100
AcDbEntity
  8
LAYER_1
100
AcDbVertex
100
AcDb2dVertex
 10
168.5518133801711
 20
-176.131195702495
 30
0.0
  0
VERTEX
  5
DB
330
C6
100
AcDbEntity
  8
LAYER_1
100
AcDbVertex
100
AcDb2dVertex
 10
168.5518133801711
 20
-173.1325845921335
 30
0.0
  0
VERTEX
  5
DC
330
C6
100
AcDbEntity
  8
LAYER_1
100
AcDbVertex
100
AcDb2dVertex
 10
177.4370591461789
 20
-173.1325845921335
 30
0.0
  0
VERTEX
  5
DD
330
C6
100
AcDbEntity
  8
LAYER_1
100
AcDbVertex
100
AcDb2dVertex
 10
177.4370591461789
 20
-176.131195702495
 30
0.0
  0
VERTEX
  5
DE
330
C6
100
AcDbEntity
  8
LAYER_1
100
AcDbVertex
100
AcDb2dVertex
 10
187.1222560838618
 20
-176.131195702495
 30
0.0
  0
VERTEX
  5
DF
330
C6
100
AcDbEntity
  8
LAYER_1
100
AcDbVertex
100
AcDb2dVertex
 10
187.1222560838618
 20
-173.1325845921335
 30
0.0
  0
VERTEX
  5
E0
330
C6
100
AcDbEntity
  8
LAYER_1
100
AcDbVertex
100
AcDb2dVertex
 10
196.0071573403211
 20
-173.1325845921335
 30
0.0
  0
VERTEX
  5
E1
330
C6
100
AcDbEntity
  8
LAYER_1
100
AcDbVertex
100
AcDb2dVertex
 10
196.0071573403211
 20
-176.131195702495
 30
0.0
  0
VERTEX
  5
E2
330
C6
100
AcDbEntity
  8
LAYER_1
100
AcDbVertex
100
AcDb2dVertex
 10
205.692354278004
 20
-176.131195702495
 30
0.0
  0
VERTEX
  5
E3
330
C6
100
AcDbEntity
  8
LAYER_1
100
AcDbVertex
100
AcDb2dVertex
 10
205.692354278004
 20
-173.1325845921335
 30
0.0
  0
VERTEX
  5
E4
330
C6
100
AcDbEntity
  8
LAYER_1
100
AcDbVertex
100
AcDb2dVertex
 10
211.7788044717949
 20
-173.1325845921335
 30
0.0
  0
VERTEX
  5
E5
330
C6
100
AcDbEntity
  8
LAYER_1
100
AcDbVertex
100
AcDb2dVertex
 10
211.7788044717949
 20
-164.9015624587746
 30
0.0
  0
VERTEX
  5
E6
330
C6
100
AcDbEntity
  8
LAYER_1
100
AcDbVertex
100
AcDb2dVertex
 10
214.7774155821564
 20
-164.9015624587746
 30
0.0
  0
VERTEX
  5
E7
330
C6
100
AcDbEntity
  8
LAYER_1
100
AcDbVertex
100
AcDb2dVertex
 10
214.7774155821564
 20
-153.0745496579119
 30
0.0
  0
VERTEX
  5
E8
330
C6
100
AcDbEntity
  8
LAYER_1
100
AcDbVertex
100
AcDb2dVertex
 10
211.7788044717949
 20
-153.0745496579119
 30
0.0
  0
VERTEX
  5
E9
330
C6
100
AcDbEntity
  8
LAYER_1
100
AcDbVertex
100
AcDb2dVertex
 10
211.7788044717949
 20
-142.044731952336
 30
0.0
  0
VERTEX
  5
EA
330
C6
100
AcDbEntity
  8
LAYER_1
100
AcDbVertex
100
AcDb2dVertex
 10
214.7774155821564
 20
-142.044731952336
 30
0.0
  0
VERTEX
  5
EB
330
C6
100
AcDbEntity
  8
LAYER_1
100
AcDbVertex
100
AcDb2dVertex
 10
214.7774155821564
 20
-130.2180636610219
 30
0.0
  0
VERTEX
  5
EC
330
C6
100
AcDbEntity
  8
LAYER_1
100
AcDbVertex
100
AcDb2dVertex
 10
211.7788044717949
 20
-130.2180636610219
 30
0.0
  0
VERTEX
  5
ED
330
C6
100
AcDbEntity
  8
LAYER_1
100
AcDbVertex
100
AcDb2dVertex
 10
211.7788044717949
 20
-119.1885904649945
 30
0.0
  0
VERTEX
  5
EE
330
C6
100
AcDbEntity
  8
LAYER_1
100
AcDbVertex
100
AcDb2dVertex
 10
214.7774155821564
 20
-119.1885904649945
 30
0.0
  0
VERTEX
  5
EF
330
C6
100
AcDbEntity
  8
LAYER_1
100
AcDbVertex
100
AcDb2dVertex
 10
214.7774155821564
 20
-107.3581325686466
 30
0.0
  0
VERTEX
  5
F0
330
C6
100
AcDbEntity
  8
LAYER_1
100
AcDbVertex
100
AcDb2dVertex
 10
211.7788044717949
 20
-107.3581325686466
 30
0.0
  0
VERTEX
  5
F1
330
C6
100
AcDbEntity
  8
LAYER_1
100
AcDbVertex
100
AcDb2dVertex
 10
211.7788044717949
 20
-99.13055553077292
 30
0.0
  0
VERTEX
  5
F2
330
C6
100
AcDbEntity
  8
LAYER_1
100
AcDbVertex
100
AcDb2dVertex
 10
205.692354278004
 20
-99.13055553077292
 30
0.0
  0
VERTEX
  5
F3
330
C6
100
AcDbEntity
  8
LAYER_1
100
AcDbVertex
100
AcDb2dVertex
 10
205.692354278004
 20
-96.13194442041146
 30
0.0
  0
VERTEX
  5
F4
330
C6
100
AcDbEntity
  8
LAYER_1
100
AcDbVertex
100
AcDb2dVertex
 10
196.0071573403211
 20
-96.13194442041146
 30
0.0
  0
VERTEX
  5
F5
330
C6
100
AcDbEntity
  8
LAYER_1
100
AcDbVertex
100
AcDb2dVertex
 10
196.0071573403211
 20
-99.13055553077292
 30
0.0
  0
VERTEX
  5
F6
330
C6
100
AcDbEntity
  8
LAYER_1
100
AcDbVertex
100
AcDb2dVertex
 10
187.1222560838618
 20
-99.13055553077292
 30
0.0
  0
VERTEX
  5
F7
330
C6
100
AcDbEntity
  8
LAYER_1
100
AcDbVertex
100
AcDb2dVertex
 10
187.1222560838618
 20
-96.13194442041146
 30
0.0
  0
VERTEX
  5
F8
330
C6
100
AcDbEntity
  8
LAYER_1
100
AcDbVertex
100
AcDb2dVertex
 10
177.4370591461789
 20
-96.13194442041146
 30
0.0
  0
VERTEX
  5
F9
330
C6
100
AcDbEntity
  8
LAYER_1
100
AcDbVertex
100
AcDb2dVertex
 10
177.4370591461789
 20
-99.13055553077292
 30
0.0
  0
VERTEX
  5
FA
330
C6
100
AcDbEntity
  8
LAYER_1
100
AcDbVertex
100
AcDb2dVertex
 10
168.5518133801711
 20
-99.13055553077292
 30
0.0
  0
VERTEX
  5
FB
330
C6
100
AcDbEntity
  8
LAYER_1
100
AcDbVertex
100
AcDb2dVertex
 10
168.5518133801711
 20
-96.13194442041146
 30
0.0
  0
SEQEND
  5
FC
330
C6
100
AcDbEntity
  8
LAYER_1
  0
POLYLINE
  5
FD
330
1F
100
AcDbEntity
  8
LAYER_1
100
AcDb2dPolyline
 66
     1
 10
0.0
 20
0.0
 30
0.0
  0
VERTEX
  5
FE
330
FD
100
AcDbEntity
  8
LAYER_1
100
AcDbVertex
100
AcDb2dVertex
 10
205.7781371555867
 20
-105.1312228469811
 30
0.0
  0
VERTEX
  5
FF
330
FD
100
AcDbEntity
  8
LAYER_1
100
AcDbVertex
100
AcDb2dVertex
 10
205.7781371555867
 20
-167.1319172759254
 30
0.0
  0
VERTEX
  5
100
330
FD
100
AcDbEntity
  8
LAYER_1
100
AcDbVertex
100
AcDb2dVertex
 10
158.7808335649055
 20
-167.1319172759254
 30
0.0
  0
VERTEX
  5
101
330
FD
100
AcDbEntity
  8
LAYER_1
100
AcDbVertex
100
AcDb2dVertex
 10
158.7808335649055
 20
-105.1312228469811
 30
0.0
  0
VERTEX
  5
102
330
FD
100
AcDbEntity
  8
LAYER_1
100
AcDbVertex
100
AcDb2dVertex
 10
205.7781371555867
 20
-105.1312228469811
 30
0.0
  0
SEQEND
  5
103
330
FD
100
AcDbEntity
  8
LAYER_1
  0
SPLINE
  5
104
330
1F
100
AcDbEntity
  8
LAYER_1
100
AcDbSpline
210
0.0
220
0.0
230
1.0
 70
    11
 71
     3
 72
   128
 73
   124
 74
     0
 42
0.0000000001
 43
0.0000000001
 40
0.0
 40
0.0
 40
0.0
 40
0.0
 40
1.0
 40
1.0
 40
1.0
 40
2.0
 40
2.0
 40
2.0
 40
3.0
 40
3.0
 40
3.0
 40
4.0
 40
4.0
 40
4.0
 40
5.0
 40
5.0
 40
5.0
 40
6.0
 40
6.0
 40
6.0
 40
7.0
 40
7.0
 40
7.0
 40
8.0
 40
8.0
 40
8.0
 40
9.0
 40
9.0
 40
9.0
 40
10.0
 40
10.0
 40
10.0
 40
11.0
 40
11.0
 40
11.0
 40
12.0
 40
12.0
 40
12.0
 40
13.0
 40
13.0
 40
13.0
 40
14.0
 40
14.0
 40
14.0
 40
15.0
 40
15.0
 40
15.0
 40
16.0
 40
16.0
 40
16.0
 40
17.0
 40
17.0
 40
17.0
 40
18.0
 40
18.0
 40
18.0
 40
19.0
 40
19.0
 40
19.0
 40
20.0
 40
20.0
 40
20.0
 40
21.0
 40
21.0
 40
21.0
 40
22.0
 40
22.0
 40
22.0
 40
23.0
 40
23.0
 40
23.0
 40
24.0
 40
24.0
 40
24.0
 40
25.0
 40
25.0
 40
25.0
 40
26.0
 40
26.0
 40
26.0
 40
27.0
 40
27.0
 40
27.0
 40
28.0
 40
28.0
 40
28.0
 40
29.0
 40
29.0
 40
29.0
 40
30.0
 40
30.0
 40
30.0
 40
31.0
 40
31.0
 40
31.0
 40
32.0
 40
32.0
 40
32.0
 40
33.0
 40
33.0
 40
33.0
 40
34.0
 40
34.0
 40
34.0
 40
35.0
 40
35.0
 40
35.0
 40
36.0
 40
36.0
 40
36.0
 40
37.0
 40
37.0
 40
37.0
 40
38.0
 40
38.0
 40
38.0
 40
39.0
 40
39.0
 40
39.0
 40
40.0
 40
40.0
 40
40.0
 40
41.0
 40
41.0
 40
41.0
 40
41.0
 10
3.999928113149324
 20
-91.14275713867265
 30
0.0
 10
3.999928113149324
 20
-91.14275713867265
 30
0.0
 10
3.999928113149324
 20
-103.9981309418824
 30
0.0
 10
3.999928113149324
 20
-103.9981309418824
 30
0.0
 10
3.999928113149324
 20
-103.9981309418824
 30
0.0
 10
13.28480495544616
 20
-103.9981309418824
 30
0.0
 10
13.28480495544616
 20
-103.9981309418824
 30
0.0
 10
13.28480495544616
 20
-103.9981309418824
 30
0.0
 10
13.28480495544616
 20
-100.999519831521
 30
0.0
 10
13.28480495544616
 20
-100.999519831521
 30
0.0
 10
13.28480495544616
 20
-100.999519831521
 30
0.0
 10
22.57002630729152
 20
-100.999519831521
 30
0.0
 10
22.57002630729152
 20
-100.999519831521
 30
0.0
 10
22.57002630729152
 20
-100.999519831521
 30
0.0
 10
22.57002630729152
 20
-103.9981309418824
 30
0.0
 10
22.57002630729152
 20
-103.9981309418824
 30
0.0
 10
22.57002630729152
 20
-103.9981309418824
 30
0.0
 10
31.85524765913688
 20
-103.9981309418824
 30
0.0
 10
31.85524765913688
 20
-103.9981309418824
 30
0.0
 10
31.85524765913688
 20
-103.9981309418824
 30
0.0
 10
31.85524765913688
 20
-100.999519831521
 30
0.0
 10
31.85524765913688
 20
-100.999519831521
 30
0.0
 10
31.85524765913688
 20
-100.999519831521
 30
0.0
 10
41.1439141064675
 20
-100.999519831521
 30
0.0
 10
41.1439141064675
 20
-100.999519831521
 30
0.0
 10
41.1439141064675
 20
-100.999519831521
 30
0.0
 10
41.1439141064675
 20
-103.9981309418824
 30
0.0
 10
41.1439141064675
 20
-103.9981309418824
 30
0.0
 10
41.1439141064675
 20
-103.9981309418824
 30
0.0
 10
50.42879094876433
 20
-103.9981309418824
 30
0.0
 10
50.42879094876433
 20
-103.9981309418824
 30
0.0
 10
50.42879094876433
 20
-103.9981309418824
 30
0.0
 10
50.42879094876433
 20
-100.999519831521
 30
0.0
 10
50.42879094876433
 20
-100.999519831521
 30
0.0
 10
50.42879094876433
 20
-100.999519831521
 30
0.0
 10
59.7140123006097
 20
-100.999519831521
 30
0.0
 10
59.7140123006097
 20
-100.999519831521
 30
0.0
 10
59.7140123006097
 20
-100.999519831521
 30
0.0
 10
59.7140123006097
 20
-103.9981309418824
 30
0.0
 10
59.7140123006097
 20
-103.9981309418824
 30
0.0
 10
59.7140123006097
 20
-103.9981309418824
 30
0.0
 10
66.0006225420936
 20
-103.9981309418824
 30
0.0
 10
66.0006225420936
 20
-103.9981309418824
 30
0.0
 10
66.0006225420936
 20
-103.9981309418824
 30
0.0
 10
66.0006225420936
 20
-89.91423608863255
 30
0.0
 10
66.0006225420936
 20
-89.91423608863255
 30
0.0
 10
66.0006225420936
 20
-89.91423608863255
 30
0.0
 10
68.99923365245506
 20
-89.91423608863255
 30
0.0
 10
68.99923365245506
 20
-89.91423608863255
 30
0.0
 10
68.99923365245506
 20
-89.91423608863255
 30
0.0
 10
68.99923365245506
 20
-75.22676050636693
 30
0.0
 10
68.99923365245506
 20
-75.22676050636693
 30
0.0
 10
68.99923365245506
 20
-75.22676050636693
 30
0.0
 10
66.0006225420936
 20
-75.22676050636693
 30
0.0
 10
66.0006225420936
 20
-75.22676050636693
 30
0.0
 10
66.0006225420936
 20
-75.22676050636693
 30
0.0
 10
66.0006225420936
 20
-61.34268119126155
 30
0.0
 10
66.0006225420936
 20
-61.34268119126155
 30
0.0
 10
66.0006225420936
 20
-61.34268119126155
 30
0.0
 10
68.99923365245506
 20
-61.34268119126155
 30
0.0
 10
68.99923365245506
 20
-61.34268119126155
 30
0.0
 10
68.99923365245506
 20
-61.34268119126155
 30
0.0
 10
68.99923365245506
 20
-46.65520560899592
 30
0.0
 10
68.99923365245506
 20
-46.65520560899592
 30
0.0
 10
68.99923365245506
 20
-46.65520560899592
 30
0.0
 10
66.0006225420936
 20
-46.65520560899592
 30
0.0
 10
66.0006225420936
 20
-46.65520560899592
 30
0.0
 10
66.0006225420936
 20
-46.65520560899592
 30
0.0
 10
66.0006225420936
 20
-32.77112629389055
 30
0.0
 10
66.0006225420936
 20
-32.77112629389055
 30
0.0
 10
66.0006225420936
 20
-32.77112629389055
 30
0.0
 10
68.99923365245506
 20
-32.77112629389055
 30
0.0
 10
68.99923365245506
 20
-32.77112629389055
 30
0.0
 10
68.99923365245506
 20
-32.77112629389055
 30
0.0
 10
68.99923365245506
 20
-18.08365071162492
 30
0.0
 10
68.99923365245506
 20
-18.08365071162492
 30
0.0
 10
68.99923365245506
 20
-18.08365071162492
 30
0.0
 10
66.0006225420936
 20
-18.08365071162492
 30
0.0
 10
66.0006225420936
 20
-18.08365071162492
 30
0.0
 10
66.0006225420936
 20
-18.08365071162492
 30
0.0
 10
66.0006225420936
 20
-3.999928113149324
 30
0.0
 10
66.0006225420936
 20
-3.999928113149324
 30
0.0
 10
66.0006225420936
 20
-3.999928113149324
 30
0.0
 10
18.99987385592712
 20
-3.999928113149324
 30
0.0
 10
18.99987385592712
 20
-3.999928113149324
 30
0.0
 10
10.70615098473666
 20
-3.999928113149324
 30
0.0
 10
3.999928113149324
 20
-8.473040091197712
 30
0.0
 10
3.999928113149324
 20
-14.0010403068296
 30
0.0
 10
3.999928113149324
 20
-14.0010403068296
 30
0.0
 10
3.999928113149324
 20
-26.85641411003937
 30
0.0
 10
3.999928113149324
 20
-26.85641411003937
 30
0.0
 10
3.999928113149324
 20
-26.85641411003937
 30
0.0
 10
6.998539223510782
 20
-26.85641411003937
 30
0.0
 10
6.998539223510782
 20
-26.85641411003937
 30
0.0
 10
6.998539223510782
 20
-26.85641411003937
 30
0.0
 10
6.998539223510782
 20
-39.71488849918586
 30
0.0
 10
6.998539223510782
 20
-39.71488849918586
 30
0.0
 10
6.998539223510782
 20
-39.71488849918586
 30
0.0
 10
3.999928113149324
 20
-39.71488849918586
 30
0.0
 10
3.999928113149324
 20
-39.71488849918586
 30
0.0
 10
3.999928113149324
 20
-39.71488849918586
 30
0.0
 10
3.999928113149324
 20
-52.57026230239563
 30
0.0
 10
3.999928113149324
 20
-52.57026230239563
 30
0.0
 10
3.999928113149324
 20
-52.57026230239563
 30
0.0
 10
6.998539223510782
 20
-52.57026230239563
 30
0.0
 10
6.998539223510782
 20
-52.57026230239563
 30
0.0
 10
6.998539223510782
 20
-52.57026230239563
 30
0.0
 10
6.998539223510782
 20
-65.42908120109065
 30
0.0
 10
6.998539223510782
 20
-65.42908120109065
 30
0.0
 10
6.998539223510782
 20
-65.42908120109065
 30
0.0
 10
3.999928113149324
 20
-65.42908120109065
 30
0.0
 10
3.999928113149324
 20
-65.42908120109065
 30
0.0
 10
3.999928113149324
 20
-65.42908120109065
 30
0.0
 10
3.999928113149324
 20
-78.28428274952616
 30
0.0
 10
3.999928113149324
 20
-78.28428274952616
 30
0.0
 10
3.999928113149324
 20
-78.28428274952616
 30
0.0
 10
6.998539223510782
 20
-78.28428274952616
 30
0.0
 10
6.998539223510782
 20
-78.28428274952616
 30
0.0
 10
6.998539223510782
 20
-78.28428274952616
 30
0.0
 10
6.998539223510782
 20
-91.14275713867265
 30
0.0
 10
6.998539223510782
 20
-91.14275713867265
 30
0.0
 10
6.998539223510782
 20
-91.14275713867265
 30
0.0
 10
3.999928113149324
 20
-91.14275713867265
 30
0.0
 10
3.999928113149324
 20
-91.14275713867265
 30
0.0
  0
SPLINE
  5
105
330
1F
100
AcDbEntity
  8
LAYER_1
100
AcDbSpline
210
0.0
220
0.0
230
1.0
 70
    11
 71
     3
 72
    17
 73
    13
 74
     0
 42
0.0000000001
 43
0.0000000001
 40
0.0
 40
0.0
 40
0.0
 40
0.0
 40
1.0
 40
1.0
 40
1.0
 40
2.0
 40
2.0
 40
2.0
 40
3.0
 40
3.0
 40
3.0
 40
4.0
 40
4.0
 40
4.0
 40
4.0
 10
15.24988742023267
 20
-22.07255451922144
 30
0.0
 10
18.14962429016746
 20
-22.07255451922144
 30
0.0
 10
20.49917941110785
 20
-24.42210964016184
 30
0.0
 10
20.49917941110785
 20
-27.32184651009662
 30
0.0
 10
20.49917941110785
 20
-30.22192788957994
 30
0.0
 10
18.14962429016746
 20
-32.5711385009718
 30
0.0
 10
15.24988742023267
 20
-32.5711385009718
 30
0.0
 10
12.35015055029788
 20
-32.5711385009718
 30
0.0
 10
10.00059542935749
 20
-30.22192788957994
 30
0.0
 10
10.00059542935749
 20
-27.32184651009662
 30
0.0
 10
10.00059542935749
 20
-24.42210964016184
 30
0.0
 10
12.35015055029788
 20
-22.07255451922144
 30
0.0
 10
15.24988742023267
 20
-22.07255451922144
 30
0.0
  0
SPLINE
  5
106
330
1F
100
AcDbEntity
  8
LAYER_1
100
AcDbSpline
210
0.0
220
0.0
230
1.0
 70
    11
 71
     3
 72
   128
 73
   124
 74
     0
 42
0.0000000001
 43
0.0000000001
 40
0.0
 40
0.0
 40
0.0
 40
0.0
 40
1.0
 40
1.0
 40
1.0
 40
2.0
 40
2.0
 40
2.0
 40
3.0
 40
3.0
 40
3.0
 40
4.0
 40
4.0
 40
4.0
 40
5.0
 40
5.0
 40
5.0
 40
6.0
 40
6.0
 40
6.0
 40
7.0
 40
7.0
 40
7.0
 40
8.0
 40
8.0
 40
8.0
 40
9.0
 40
9.0
 40
9.0
 40
10.0
 40
10.0
 40
10.0
 40
11.0
 40
11.0
 40
11.0
 40
12.0
 40
12.0
 40
12.0
 40
13.0
 40
13.0
 40
13.0
 40
14.0
 40
14.0
 40
14.0
 40
15.0
 40
15.0
 40
15.0
 40
16.0
 40
16.0
 40
16.0
 40
17.0
 40
17.0
 40
17.0
 40
18.0
 40
18.0
 40
18.0
 40
19.0
 40
19.0
 40
19.0
 40
20.0
 40
20.0
 40
20.0
 40
21.0
 40
21.0
 40
21.0
 40
22.0
 40
22.0
 40
22.0
 40
23.0
 40
23.0
 40
23.0
 40
24.0
 40
24.0
 40
24.0
 40
25.0
 40
25.0
 40
25.0
 40
26.0
 40
26.0
 40
26.0
 40
27.0
 40
27.0
 40
27.0
 40
28.0
 40
28.0
 40
28.0
 40
29.0
 40
29.0
 40
29.0
 40
30.0
 40
30.0
 40
30.0
 40
31.0
 40
31.0
 40
31.0
 40
32.0
 40
32.0
 40
32.0
 40
33.0
 40
33.0
 40
33.0
 40
34.0
 40
34.0
 40
34.0
 40
35.0
 40
35.0
 40
35.0
 40
36.0
 40
36.0
 40
36.0
 40
37.0
 40
37.0
 40
37.0
 40
38.0
 40
38.0
 40
38.0
 40
39.0
 40
39.0
 40
39.0
 40
40.0
 40
40.0
 40
40.0
 40
41.0
 40
41.0
 40
41.0
 40
41.0
 10
136.6729668169602
 20
-16.85512966158483
 30
0.0
 10
136.6729668169602
 20
-16.85512966158483
 30
0.0
 10
136.6729668169602
 20
-3.999928113149324
 30
0.0
 10
136.6729668169602
 20
-3.999928113149324
 30
0.0
 10
136.6729668169602
 20
-3.999928113149324
 30
0.0
 10
127.3880899746634
 20
-3.999928113149324
 30
0.0
 10
127.3880899746634
 20
-3.999928113149324
 30
0.0
 10
127.3880899746634
 20
-3.999928113149324
 30
0.0
 10
127.3880899746634
 20
-6.998539223510782
 30
0.0
 10
127.3880899746634
 20
-6.998539223510782
 30
0.0
 10
127.3880899746634
 20
-6.998539223510782
 30
0.0
 10
118.102868622818
 20
-6.998539223510782
 30
0.0
 10
118.102868622818
 20
-6.998539223510782
 30
0.0
 10
118.102868622818
 20
-6.998539223510782
 30
0.0
 10
118.102868622818
 20
-3.999928113149324
 30
0.0
 10
118.102868622818
 20
-3.999928113149324
 30
0.0
 10
118.102868622818
 20
-3.999928113149324
 30
0.0
 10
108.8176472709727
 20
-3.999928113149324
 30
0.0
 10
108.8176472709727
 20
-3.999928113149324
 30
0.0
 10
108.8176472709727
 20
-3.999928113149324
 30
0.0
 10
108.8176472709727
 20
-6.998539223510782
 30
0.0
 10
108.8176472709727
 20
-6.998539223510782
 30
0.0
 10
108.8176472709727
 20
-6.998539223510782
 30
0.0
 10
99.52898082364206
 20
-6.998539223510782
 30
0.0
 10
99.52898082364206
 20
-6.998539223510782
 30
0.0
 10
99.52898082364206
 20
-6.998539223510782
 30
0.0
 10
99.52898082364206
 20
-3.999928113149324
 30
0.0
 10
99.52898082364206
 20
-3.999928113149324
 30
0.0
 10
99.52898082364206
 20
-3.999928113149324
 30
0.0
 10
90.24410398134523
 20
-3.999928113149324
 30
0.0
 10
90.24410398134523
 20
-3.999928113149324
 30
0.0
 10
90.24410398134523
 20
-3.999928113149324
 30
0.0
 10
90.24410398134523
 20
-6.998539223510782
 30
0.0
 10
90.24410398134523
 20
-6.998539223510782
 30
0.0
 10
90.24410398134523
 20
-6.998539223510782
 30
0.0
 10
80.95888262949987
 20
-6.998539223510782
 30
0.0
 10
80.95888262949987
 20
-6.998539223510782
 30
0.0
 10
80.95888262949987
 20
-6.998539223510782
 30
0.0
 10
80.95888262949987
 20
-3.999928113149324
 30
0.0
 10
80.95888262949987
 20
-3.999928113149324
 30
0.0
 10
80.95888262949987
 20
-3.999928113149324
 30
0.0
 10
74.67227238801597
 20
-3.999928113149324
 30
0.0
 10
74.67227238801597
 20
-3.999928113149324
 30
0.0
 10
74.67227238801597
 20
-3.999928113149324
 30
0.0
 10
74.67227238801597
 20
-18.08382296639918
 30
0.0
 10
74.67227238801597
 20
-18.08382296639918
 30
0.0
 10
74.67227238801597
 20
-18.08382296639918
 30
0.0
 10
71.6736612776545
 20
-18.08382296639918
 30
0.0
 10
71.6736612776545
 20
-18.08382296639918
 30
0.0
 10
71.6736612776545
 20
-18.08382296639918
 30
0.0
 10
71.6736612776545
 20
-32.77129854866482
 30
0.0
 10
71.6736612776545
 20
-32.77129854866482
 30
0.0
 10
71.6736612776545
 20
-32.77129854866482
 30
0.0
 10
74.67227238801597
 20
-32.77129854866482
 30
0.0
 10
74.67227238801597
 20
-32.77129854866482
 30
0.0
 10
74.67227238801597
 20
-32.77129854866482
 30
0.0
 10
74.67227238801597
 20
-46.65537786377018
 30
0.0
 10
74.67227238801597
 20
-46.65537786377018
 30
0.0
 10
74.67227238801597
 20
-46.65537786377018
 30
0.0
 10
71.6736612776545
 20
-46.65537786377018
 30
0.0
 10
71.6736612776545
 20
-46.65537786377018
 30
0.0
 10
71.6736612776545
 20
-46.65537786377018
 30
0.0
 10
71.6736612776545
 20
-61.34285344603582
 30
0.0
 10
71.6736612776545
 20
-61.34285344603582
 30
0.0
 10
71.6736612776545
 20
-61.34285344603582
 30
0.0
 10
74.67227238801597
 20
-61.34285344603582
 30
0.0
 10
74.67227238801597
 20
-61.34285344603582
 30
0.0
 10
74.67227238801597
 20
-61.34285344603582
 30
0.0
 10
74.67227238801597
 20
-75.22710501591546
 30
0.0
 10
74.67227238801597
 20
-75.22710501591546
 30
0.0
 10
74.67227238801597
 20
-75.22710501591546
 30
0.0
 10
71.6736612776545
 20
-75.22710501591546
 30
0.0
 10
71.6736612776545
 20
-75.22710501591546
 30
0.0
 10
71.6736612776545
 20
-75.22710501591546
 30
0.0
 10
71.6736612776545
 20
-89.91423608863255
 30
0.0
 10
71.6736612776545
 20
-89.91423608863255
 30
0.0
 10
71.6736612776545
 20
-89.91423608863255
 30
0.0
 10
74.67227238801597
 20
-89.91423608863255
 30
0.0
 10
74.67227238801597
 20
-89.91423608863255
 30
0.0
 10
74.67227238801597
 20
-89.91423608863255
 30
0.0
 10
74.67227238801597
 20
-103.9981309418824
 30
0.0
 10
74.67227238801597
 20
-103.9981309418824
 30
0.0
 10
74.67227238801597
 20
-103.9981309418824
 30
0.0
 10
121.6730210741824
 20
-103.9981309418824
 30
0.0
 10
121.6730210741824
 20
-103.9981309418824
 30
0.0
 10
129.9667439453729
 20
-103.9981309418824
 30
0.0
 10
136.6729668169602
 20
-99.52501896383403
 30
0.0
 10
136.6729668169602
 20
-93.99701874820214
 30
0.0
 10
136.6729668169602
 20
-93.99701874820214
 30
0.0
 10
136.6729668169602
 20
-81.14164494499236
 30
0.0
 10
136.6729668169602
 20
-81.14164494499236
 30
0.0
 10
136.6729668169602
 20
-81.14164494499236
 30
0.0
 10
133.6743557065988
 20
-81.14164494499236
 30
0.0
 10
133.6743557065988
 20
-81.14164494499236
 30
0.0
 10
133.6743557065988
 20
-81.14164494499236
 30
0.0
 10
133.6743557065988
 20
-68.28317055584587
 30
0.0
 10
133.6743557065988
 20
-68.28317055584587
 30
0.0
 10
133.6743557065988
 20
-68.28317055584587
 30
0.0
 10
136.6729668169602
 20
-68.28317055584587
 30
0.0
 10
136.6729668169602
 20
-68.28317055584587
 30
0.0
 10
136.6729668169602
 20
-68.28317055584587
 30
0.0
 10
136.6729668169602
 20
-55.42779675263611
 30
0.0
 10
136.6729668169602
 20
-55.42779675263611
 30
0.0
 10
136.6729668169602
 20
-55.42779675263611
 30
0.0
 10
133.6743557065988
 20
-55.42779675263611
 30
0.0
 10
133.6743557065988
 20
-55.42779675263611
 30
0.0
 10
133.6743557065988
 20
-55.42779675263611
 30
0.0
 10
133.6743557065988
 20
-42.56897785394109
 30
0.0
 10
133.6743557065988
 20
-42.56897785394109
 30
0.0
 10
133.6743557065988
 20
-42.56897785394109
 30
0.0
 10
136.6729668169602
 20
-42.56897785394109
 30
0.0
 10
136.6729668169602
 20
-42.56897785394109
 30
0.0
 10
136.6729668169602
 20
-42.56897785394109
 30
0.0
 10
136.6729668169602
 20
-29.71394856027985
 30
0.0
 10
136.6729668169602
 20
-29.71394856027985
 30
0.0
 10
136.6729668169602
 20
-29.71394856027985
 30
0.0
 10
133.6743557065988
 20
-29.71394856027985
 30
0.0
 10
133.6743557065988
 20
-29.71394856027985
 30
0.0
 10
133.6743557065988
 20
-29.71394856027985
 30
0.0
 10
133.6743557065988
 20
-16.85512966158483
 30
0.0
 10
133.6743557065988
 20
-16.85512966158483
 30
0.0
 10
133.6743557065988
 20
-16.85512966158483
 30
0.0
 10
136.6729668169602
 20
-16.85512966158483
 30
0.0
 10
136.6729668169602
 20
-16.85512966158483
 30
0.0
  0
SPLINE
  5
107
330
1F
100
AcDbEntity
  8
LAYER_1
100
AcDbSpline
210
0.0
220
0.0
230
1.0
 70
    11
 71
     3
 72
    17
 73
    13
 74
     0
 42
0.0000000001
 43
0.0000000001
 40
0.0
 40
0.0
 40
0.0
 40
0.0
 40
1.0
 40
1.0
 40
1.0
 40
2.0
 40
2.0
 40
2.0
 40
3.0
 40
3.0
 40
3.0
 40
4.0
 40
4.0
 40
4.0
 40
4.0
 10
125.4230075098769
 20
-85.92550453581029
 30
0.0
 10
122.5232706399421
 20
-85.92550453581029
 30
0.0
 10
120.1737155190017
 20
-83.57594941486991
 30
0.0
 10
120.1737155190017
 20
-80.67621254493511
 30
0.0
 10
120.1737155190017
 20
-77.7761311654518
 30
0.0
 10
122.5232706399421
 20
-75.42692055405993
 30
0.0
 10
125.4230075098769
 20
-75.42692055405993
 30
0.0
 10
128.3227443798117
 20
-75.42692055405993
 30
0.0
 10
130.6722995007521
 20
-77.7761311654518
 30
0.0
 10
130.6722995007521
 20
-80.67621254493511
 30
0.0
 10
130.6722995007521
 20
-83.57594941486991
 30
0.0
 10
128.3227443798117
 20
-85.92550453581029
 30
0.0
 10
125.4230075098769
 20
-85.92550453581029
 30
0.0
  0
POLYLINE
  5
108
330
1F
100
AcDbEntity
  8
LAYER_1
100
AcDb2dPolyline
 66
     1
 10
0.0
 20
0.0
 30
0.0
  0
VERTEX
  5
109
330
108
100
AcDbEntity
  8
LAYER_1
100
AcDbVertex
100
AcDb2dVertex
 10
198.7577215757446
 20
-222.2153767348107
 30
0.0
  0
VERTEX
  5
10A
330
108
100
AcDbEntity
  8
LAYER_1
100
AcDbVertex
100
AcDb2dVertex
 10
198.7577215757446
 20
-232.6741698637065
 30
0.0
  0
VERTEX
  5
10B
330
108
100
AcDbEntity
  8
LAYER_1
100
AcDbVertex
100
AcDb2dVertex
 10
201.7563326861061
 20
-232.6741698637065
 30
0.0
  0
VERTEX
  5
10C
330
108
100
AcDbEntity
  8
LAYER_1
100
AcDbVertex
100
AcDb2dVertex
 10
201.7563326861061
 20
-243.9327419095029
 30
0.0
  0
VERTEX
  5
10D
330
108
100
AcDbEntity
  8
LAYER_1
100
AcDbVertex
100
AcDb2dVertex
 10
198.7577215757446
 20
-243.9327419095029
 30
0.0
  0
VERTEX
  5
10E
330
108
100
AcDbEntity
  8
LAYER_1
100
AcDbVertex
100
AcDb2dVertex
 10
198.7577215757446
 20
-254.3872286690421
 30
0.0
  0
VERTEX
  5
10F
330
108
100
AcDbEntity
  8
LAYER_1
100
AcDbVertex
100
AcDb2dVertex
 10
201.7563326861061
 20
-254.3872286690421
 30
0.0
  0
VERTEX
  5
110
330
108
100
AcDbEntity
  8
LAYER_1
100
AcDbVertex
100
AcDb2dVertex
 10
201.7563326861061
 20
-265.6464897339356
 30
0.0
  0
VERTEX
  5
111
330
108
100
AcDbEntity
  8
LAYER_1
100
AcDbVertex
100
AcDb2dVertex
 10
198.7577215757446
 20
-265.6464897339356
 30
0.0
  0
VERTEX
  5
112
330
108
100
AcDbEntity
  8
LAYER_1
100
AcDbVertex
100
AcDb2dVertex
 10
198.7577215757446
 20
-276.3042371271045
 30
0.0
  0
VERTEX
  5
113
330
108
100
AcDbEntity
  8
LAYER_1
100
AcDbVertex
100
AcDb2dVertex
 10
118.7584702936611
 20
-276.3042371271045
 30
0.0
  0
VERTEX
  5
114
330
108
100
AcDbEntity
  8
LAYER_1
100
AcDbVertex
100
AcDb2dVertex
 10
118.7584702936611
 20
-265.6464897339356
 30
0.0
  0
VERTEX
  5
115
330
108
100
AcDbEntity
  8
LAYER_1
100
AcDbVertex
100
AcDb2dVertex
 10
115.7598591832996
 20
-265.6464897339356
 30
0.0
  0
VERTEX
  5
116
330
108
100
AcDbEntity
  8
LAYER_1
100
AcDbVertex
100
AcDb2dVertex
 10
115.7598591832996
 20
-254.3872286690421
 30
0.0
  0
VERTEX
  5
117
330
108
100
AcDbEntity
  8
LAYER_1
100
AcDbVertex
100
AcDb2dVertex
 10
118.7584702936611
 20
-254.3872286690421
 30
0.0
  0
VERTEX
  5
118
330
108
100
AcDbEntity
  8
LAYER_1
100
AcDbVertex
100
AcDb2dVertex
 10
118.7584702936611
 20
-243.9292968140177
 30
0.0
  0
VERTEX
  5
119
330
108
100
AcDbEntity
  8
LAYER_1
100
AcDbVertex
100
AcDb2dVertex
 10
115.7598591832996
 20
-243.9292968140177
 30
0.0
  0
VERTEX
  5
11A
330
108
100
AcDbEntity
  8
LAYER_1
100
AcDbVertex
100
AcDb2dVertex
 10
115.7598591832996
 20
-232.6741698637065
 30
0.0
  0
VERTEX
  5
11B
330
108
100
AcDbEntity
  8
LAYER_1
100
AcDbVertex
100
AcDb2dVertex
 10
118.7584702936611
 20
-232.6741698637065
 30
0.0
  0
VERTEX
  5
11C
330
108
100
AcDbEntity
  8
LAYER_1
100
AcDbVertex
100
AcDb2dVertex
 10
118.7584702936611
 20
-222.2153767348107
 30
0.0
  0
VERTEX
  5
11D
330
108
100
AcDbEntity
  8
LAYER_1
100
AcDbVertex
100
AcDb2dVertex
 10
115.7598591832996
 20
-222.2153767348107
 30
0.0
  0
VERTEX
  5
11E
330
108
100
AcDbEntity
  8
LAYER_1
100
AcDbVertex
100
AcDb2dVertex
 10
115.7598591832996
 20
-210.9604220392738
 30
0.0
  0
VERTEX
  5
11F
330
108
100
AcDbEntity
  8
LAYER_1
100
AcDbVertex
100
AcDb2dVertex
 10
118.7584702936611
 20
-210.9604220392738
 30
0.0
  0
VERTEX
  5
120
330
108
100
AcDbEntity
  8
LAYER_1
100
AcDbVertex
100
AcDb2dVertex
 10
118.7584702936611
 20
-203.3005967373693
 30
0.0
  0
VERTEX
  5
121
330
108
100
AcDbEntity
  8
LAYER_1
100
AcDbVertex
100
AcDb2dVertex
 10
127.8431870882649
 20
-203.3005967373693
 30
0.0
  0
VERTEX
  5
122
330
108
100
AcDbEntity
  8
LAYER_1
100
AcDbVertex
100
AcDb2dVertex
 10
127.8431870882649
 20
-200.3019856270078
 30
0.0
  0
VERTEX
  5
123
330
108
100
AcDbEntity
  8
LAYER_1
100
AcDbVertex
100
AcDb2dVertex
 10
140.530784741343
 20
-200.3019856270078
 30
0.0
  0
VERTEX
  5
124
330
108
100
AcDbEntity
  8
LAYER_1
100
AcDbVertex
100
AcDb2dVertex
 10
140.530784741343
 20
-203.3005967373693
 30
0.0
  0
VERTEX
  5
125
330
108
100
AcDbEntity
  8
LAYER_1
100
AcDbVertex
100
AcDb2dVertex
 10
152.4142971081638
 20
-203.3005967373693
 30
0.0
  0
VERTEX
  5
126
330
108
100
AcDbEntity
  8
LAYER_1
100
AcDbVertex
100
AcDb2dVertex
 10
152.4142971081638
 20
-200.3019856270078
 30
0.0
  0
VERTEX
  5
127
330
108
100
AcDbEntity
  8
LAYER_1
100
AcDbVertex
100
AcDb2dVertex
 10
165.1018947612419
 20
-200.3019856270078
 30
0.0
  0
VERTEX
  5
128
330
108
100
AcDbEntity
  8
LAYER_1
100
AcDbVertex
100
AcDb2dVertex
 10
165.1018947612419
 20
-203.3005967373693
 30
0.0
  0
VERTEX
  5
129
330
108
100
AcDbEntity
  8
LAYER_1
100
AcDbVertex
100
AcDb2dVertex
 10
176.9854071280627
 20
-203.3005967373693
 30
0.0
  0
VERTEX
  5
12A
330
108
100
AcDbEntity
  8
LAYER_1
100
AcDbVertex
100
AcDb2dVertex
 10
176.9854071280627
 20
-200.3019856270078
 30
0.0
  0
VERTEX
  5
12B
330
108
100
AcDbEntity
  8
LAYER_1
100
AcDbVertex
100
AcDb2dVertex
 10
189.6730047811408
 20
-200.3019856270078
 30
0.0
  0
VERTEX
  5
12C
330
108
100
AcDbEntity
  8
LAYER_1
100
AcDbVertex
100
AcDb2dVertex
 10
189.6730047811408
 20
-203.3005967373693
 30
0.0
  0
VERTEX
  5
12D
330
108
100
AcDbEntity
  8
LAYER_1
100
AcDbVertex
100
AcDb2dVertex
 10
198.7577215757446
 20
-203.3005967373693
 30
0.0
  0
VERTEX
  5
12E
330
108
100
AcDbEntity
  8
LAYER_1
100
AcDbVertex
100
AcDb2dVertex
 10
198.7577215757446
 20
-210.9604220392738
 30
0.0
  0
VERTEX
  5
12F
330
108
100
AcDbEntity
  8
LAYER_1
100
AcDbVertex
100
AcDb2dVertex
 10
201.7563326861061
 20
-210.9604220392738
 30
0.0
  0
VERTEX
  5
130
330
108
100
AcDbEntity
  8
LAYER_1
100
AcDbVertex
100
AcDb2dVertex
 10
201.7563326861061
 20
-222.2153767348107
 30
0.0
  0
VERTEX
  5
131
330
108
100
AcDbEntity
  8
LAYER_1
100
AcDbVertex
100
AcDb2dVertex
 10
198.7577215757446
 20
-222.2153767348107
 30
0.0
  0
SEQEND
  5
132
330
108
100
AcDbEntity
  8
LAYER_1
  0
SPLINE
  5
133
330
1F
100
AcDbEntity
  8
LAYER_1
100
AcDbSpline
210
0.0
220
0.0
230
1.0
 70
    11
 71
     3
 72
    92
 73
    88
 74
     0
 42
0.0000000001
 43
0.0000000001
 40
0.0
 40
0.0
 40
0.0
 40
0.0
 40
1.0
 40
1.0
 40
1.0
 40
2.0
 40
2.0
 40
2.0
 40
3.0
 40
3.0
 40
3.0
 40
4.0
 40
4.0
 40
4.0
 40
5.0
 40
5.0
 40
5.0
 40
6.0
 40
6.0
 40
6.0
 40
7.0
 40
7.0
 40
7.0
 40
8.0
 40
8.0
 40
8.0
 40
9.0
 40
9.0
 40
9.0
 40
10.0
 40
10.0
 40
10.0
 40
11.0
 40
11.0
 40
11.0
 40
12.0
 40
12.0
 40
12.0
 40
13.0
 40
13.0
 40
13.0
 40
14.0
 40
14.0
 40
14.0
 40
15.0
 40
15.0
 40
15.0
 40
16.0
 40
16.0
 40
16.0
 40
17.0
 40
17.0
 40
17.0
 40
18.0
 40
18.0
 40
18.0
 40
19.0
 40
19.0
 40
19.0
 40
20.0
 40
20.0
 40
20.0
 40
21.0
 40
21.0
 40
21.0
 40
22.0
 40
22.0
 40
22.0
 40
23.0
 40
23.0
 40
23.0
 40
24.0
 40
24.0
 40
24.0
 40
25.0
 40
25.0
 40
25.0
 40
26.0
 40
26.0
 40
26.0
 40
27.0
 40
27.0
 40
27.0
 40
28.0
 40
28.0
 40
28.0
 40
29.0
 40
29.0
 40
29.0
 40
29.0
 10
56.99721000094167
 20
-259.3750379125868
 30
0.0
 10
56.99721000094167
 20
-236.1585394374881
 30
0.0
 10
45.99770913563599
 20
-224.3754516040624
 30
0.0
 10
45.99770913563599
 20
-203.3005967373693
 30
0.0
 10
45.99770913563599
 20
-203.3005967373693
 30
0.0
 10
40.19720186712084
 20
-203.3005967373693
 30
0.0
 10
40.19720186712084
 20
-203.3005967373693
 30
0.0
 10
40.19720186712084
 20
-203.3005967373693
 30
0.0
 10
40.19720186712084
 20
-200.3019856270078
 30
0.0
 10
40.19720186712084
 20
-200.3019856270078
 30
0.0
 10
40.19720186712084
 20
-200.3019856270078
 30
0.0
 10
33.79586994597812
 20
-200.3019856270078
 30
0.0
 10
33.79586994597812
 20
-200.3019856270078
 30
0.0
 10
33.79586994597812
 20
-200.3019856270078
 30
0.0
 10
33.79586994597812
 20
-203.3005967373693
 30
0.0
 10
33.79586994597812
 20
-203.3005967373693
 30
0.0
 10
33.79586994597812
 20
-203.3005967373693
 30
0.0
 10
28.19896782064123
 20
-203.3005967373693
 30
0.0
 10
28.19896782064123
 20
-203.3005967373693
 30
0.0
 10
28.19896782064123
 20
-203.3005967373693
 30
0.0
 10
28.19896782064123
 20
-200.3019856270078
 30
0.0
 10
28.19896782064123
 20
-200.3019856270078
 30
0.0
 10
28.19896782064123
 20
-200.3019856270078
 30
0.0
 10
21.79798040904704
 20
-200.3019856270078
 30
0.0
 10
21.79798040904704
 20
-200.3019856270078
 30
0.0
 10
21.79798040904704
 20
-200.3019856270078
 30
0.0
 10
21.79798040904704
 20
-203.3005967373693
 30
0.0
 10
21.79798040904704
 20
-203.3005967373693
 30
0.0
 10
21.79798040904704
 20
-203.3005967373693
 30
0.0
 10
16.1976331882249
 20
-203.3005967373693
 30
0.0
 10
16.1976331882249
 20
-203.3005967373693
 30
0.0
 10
16.1976331882249
 20
-203.3005967373693
 30
0.0
 10
16.1976331882249
 20
-200.3019856270078
 30
0.0
 10
16.1976331882249
 20
-200.3019856270078
 30
0.0
 10
16.1976331882249
 20
-200.3019856270078
 30
0.0
 10
9.796645776630701
 20
-200.3019856270078
 30
0.0
 10
9.796645776630701
 20
-200.3019856270078
 30
0.0
 10
9.796645776630701
 20
-200.3019856270078
 30
0.0
 10
9.796645776630701
 20
-203.3005967373693
 30
0.0
 10
9.796645776630701
 20
-203.3005967373693
 30
0.0
 10
9.796645776630701
 20
-203.3005967373693
 30
0.0
 10
3.999928113149324
 20
-203.3005967373693
 30
0.0
 10
3.999928113149324
 20
-203.3005967373693
 30
0.0
 10
3.999928113149324
 20
-203.3005967373693
 30
0.0
 10
3.999928113149324
 20
-211.1605820869668
 30
0.0
 10
3.999928113149324
 20
-211.1605820869668
 30
0.0
 10
3.999928113149324
 20
-211.1605820869668
 30
0.0
 10
6.998539223510782
 20
-211.1605820869668
 30
0.0
 10
6.998539223510782
 20
-211.1605820869668
 30
0.0
 10
6.998539223510782
 20
-211.1605820869668
 30
0.0
 10
6.998539223510782
 20
-222.0190062921515
 30
0.0
 10
6.998539223510782
 20
-222.0190062921515
 30
0.0
 10
6.998539223510782
 20
-222.0190062921515
 30
0.0
 10
3.999928113149324
 20
-222.0190062921515
 30
0.0
 10
3.999928113149324
 20
-222.0190062921515
 30
0.0
 10
3.999928113149324
 20
-222.0190062921515
 30
0.0
 10
3.999928113149324
 20
-232.8739854018509
 30
0.0
 10
3.999928113149324
 20
-232.8739854018509
 30
0.0
 10
3.999928113149324
 20
-232.8739854018509
 30
0.0
 10
6.998539223510782
 20
-232.8739854018509
 30
0.0
 10
6.998539223510782
 20
-232.8739854018509
 30
0.0
 10
6.998539223510782
 20
-232.8739854018509
 30
0.0
 10
6.998539223510782
 20
-243.7329263713584
 30
0.0
 10
6.998539223510782
 20
-243.7329263713584
 30
0.0
 10
6.998539223510782
 20
-243.7329263713584
 30
0.0
 10
3.999928113149324
 20
-243.7329263713584
 30
0.0
 10
3.999928113149324
 20
-243.7329263713584
 30
0.0
 10
3.999928113149324
 20
-243.7329263713584
 30
0.0
 10
3.999928113149324
 20
-254.5911783217689
 30
0.0
 10
3.999928113149324
 20
-254.5911783217689
 30
0.0
 10
3.999928113149324
 20
-254.5911783217689
 30
0.0
 10
6.998539223510782
 20
-254.5911783217689
 30
0.0
 10
6.998539223510782
 20
-254.5911783217689
 30
0.0
 10
6.998539223510782
 20
-254.5911783217689
 30
0.0
 10
6.998539223510782
 20
-265.4459851766941
 30
0.0
 10
6.998539223510782
 20
-265.4459851766941
 30
0.0
 10
6.998539223510782
 20
-265.4459851766941
 30
0.0
 10
3.999928113149324
 20
-265.4459851766941
 30
0.0
 10
3.999928113149324
 20
-265.4459851766941
 30
0.0
 10
3.999928113149324
 20
-265.4459851766941
 30
0.0
 10
3.999928113149324
 20
-276.3042371271045
 30
0.0
 10
3.999928113149324
 20
-276.3042371271045
 30
0.0
 10
3.999928113149324
 20
-276.3042371271045
 30
0.0
 10
45.99770913563599
 20
-276.3042371271045
 30
0.0
 10
45.99770913563599
 20
-276.3042371271045
 30
0.0
 10
51.74791801006649
 20
-276.3042371271045
 30
0.0
 10
56.99721000094167
 20
-269.92667636481
 30
0.0
 10
56.99721000094167
 20
-259.3750379125868
 30
0.0
  0
SPLINE
  5
134
330
1F
100
AcDbEntity
  8
LAYER_1
100
AcDbSpline
210
0.0
220
0.0
230
1.0
 70
    11
 71
     3
 72
    17
 73
    13
 74
     0
 42
0.0000000001
 43
0.0000000001
 40
0.0
 40
0.0
 40
0.0
 40
0.0
 40
1.0
 40
1.0
 40
1.0
 40
2.0
 40
2.0
 40
2.0
 40
3.0
 40
3.0
 40
3.0
 40
4.0
 40
4.0
 40
4.0
 40
4.0
 10
25.07082112003438
 20
-262.052566123723
 30
0.0
 10
25.07082112003438
 20
-259.1524847442396
 30
0.0
 10
27.42037624097477
 20
-256.8029296232993
 30
0.0
 10
30.32045762045808
 20
-256.8029296232993
 30
0.0
 10
33.2205389999414
 20
-256.8029296232993
 30
0.0
 10
35.56940510178473
 20
-259.1524847442396
 30
0.0
 10
35.56940510178473
 20
-262.052566123723
 30
0.0
 10
35.56940510178473
 20
-264.9519584841092
 30
0.0
 10
33.2205389999414
 20
-267.3015136050496
 30
0.0
 10
30.32045762045808
 20
-267.3015136050496
 30
0.0
 10
27.42037624097477
 20
-267.3015136050496
 30
0.0
 10
25.07082112003438
 20
-264.9519584841092
 30
0.0
 10
25.07082112003438
 20
-262.052566123723
 30
0.0
  0
SPLINE
  5
135
330
1F
100
AcDbEntity
  8
LAYER_1
100
AcDbSpline
210
0.0
220
0.0
230
1.0
 70
    11
 71
     3
 72
    92
 73
    88
 74
     0
 42
0.0000000001
 43
0.0000000001
 40
0.0
 40
0.0
 40
0.0
 40
0.0
 40
1.0
 40
1.0
 40
1.0
 40
2.0
 40
2.0
 40
2.0
 40
3.0
 40
3.0
 40
3.0
 40
4.0
 40
4.0
 40
4.0
 40
5.0
 40
5.0
 40
5.0
 40
6.0
 40
6.0
 40
6.0
 40
7.0
 40
7.0
 40
7.0
 40
8.0
 40
8.0
 40
8.0
 40
9.0
 40
9.0
 40
9.0
 40
10.0
 40
10.0
 40
10.0
 40
11.0
 40
11.0
 40
11.0
 40
12.0
 40
12.0
 40
12.0
 40
13.0
 40
13.0
 40
13.0
 40
14.0
 40
14.0
 40
14.0
 40
15.0
 40
15.0
 40
15.0
 40
16.0
 40
16.0
 40
16.0
 40
17.0
 40
17.0
 40
17.0
 40
18.0
 40
18.0
 40
18.0
 40
19.0
 40
19.0
 40
19.0
 40
20.0
 40
20.0
 40
20.0
 40
21.0
 40
21.0
 40
21.0
 40
22.0
 40
22.0
 40
22.0
 40
23.0
 40
23.0
 40
23.0
 40
24.0
 40
24.0
 40
24.0
 40
25.0
 40
25.0
 40
25.0
 40
26.0
 40
26.0
 40
26.0
 40
27.0
 40
27.0
 40
27.0
 40
28.0
 40
28.0
 40
28.0
 40
29.0
 40
29.0
 40
29.0
 40
29.0
 10
101.700424507995
 20
-200.3019856270078
 30
0.0
 10
101.700424507995
 20
-200.3019856270078
 30
0.0
 10
59.70229897595984
 20
-200.3019856270078
 30
0.0
 10
59.70229897595984
 20
-200.3019856270078
 30
0.0
 10
59.70229897595984
 20
-200.3019856270078
 30
0.0
 10
59.70229897595984
 20
-211.1602375774183
 30
0.0
 10
59.70229897595984
 20
-211.1602375774183
 30
0.0
 10
59.70229897595984
 20
-211.1602375774183
 30
0.0
 10
62.7009100863213
 20
-211.1602375774183
 30
0.0
 10
62.7009100863213
 20
-211.1602375774183
 30
0.0
 10
62.7009100863213
 20
-211.1602375774183
 30
0.0
 10
62.7009100863213
 20
-222.0155611966663
 30
0.0
 10
62.7009100863213
 20
-222.0155611966663
 30
0.0
 10
62.7009100863213
 20
-222.0155611966663
 30
0.0
 10
59.70229897595984
 20
-222.0155611966663
 30
0.0
 10
59.70229897595984
 20
-222.0155611966663
 30
0.0
 10
59.70229897595984
 20
-222.0155611966663
 30
0.0
 10
59.70229897595984
 20
-232.8739854018509
 30
0.0
 10
59.70229897595984
 20
-232.8739854018509
 30
0.0
 10
59.70229897595984
 20
-232.8739854018509
 30
0.0
 10
62.7009100863213
 20
-232.8739854018509
 30
0.0
 10
62.7009100863213
 20
-232.8739854018509
 30
0.0
 10
62.7009100863213
 20
-232.8739854018509
 30
0.0
 10
62.7009100863213
 20
-243.7322373522614
 30
0.0
 10
62.7009100863213
 20
-243.7322373522614
 30
0.0
 10
62.7009100863213
 20
-243.7322373522614
 30
0.0
 10
59.70229897595984
 20
-243.7322373522614
 30
0.0
 10
59.70229897595984
 20
-243.7322373522614
 30
0.0
 10
59.70229897595984
 20
-243.7322373522614
 30
0.0
 10
59.70229897595984
 20
-254.5877332262836
 30
0.0
 10
59.70229897595984
 20
-254.5877332262836
 30
0.0
 10
59.70229897595984
 20
-254.5877332262836
 30
0.0
 10
62.7009100863213
 20
-254.5877332262836
 30
0.0
 10
62.7009100863213
 20
-254.5877332262836
 30
0.0
 10
62.7009100863213
 20
-254.5877332262836
 30
0.0
 10
62.7009100863213
 20
-265.4459851766941
 30
0.0
 10
62.7009100863213
 20
-265.4459851766941
 30
0.0
 10
62.7009100863213
 20
-265.4459851766941
 30
0.0
 10
59.70229897595984
 20
-265.4459851766941
 30
0.0
 10
59.70229897595984
 20
-265.4459851766941
 30
0.0
 10
59.70229897595984
 20
-265.4459851766941
 30
0.0
 10
59.70229897595984
 20
-273.3056260167431
 30
0.0
 10
59.70229897595984
 20
-273.3056260167431
 30
0.0
 10
59.70229897595984
 20
-273.3056260167431
 30
0.0
 10
65.49936114898975
 20
-273.3056260167431
 30
0.0
 10
65.49936114898975
 20
-273.3056260167431
 30
0.0
 10
65.49936114898975
 20
-273.3056260167431
 30
0.0
 10
65.49936114898975
 20
-276.3042371271045
 30
0.0
 10
65.49936114898975
 20
-276.3042371271045
 30
0.0
 10
65.49936114898975
 20
-276.3042371271045
 30
0.0
 10
71.90034856058395
 20
-276.3042371271045
 30
0.0
 10
71.90034856058395
 20
-276.3042371271045
 30
0.0
 10
71.90034856058395
 20
-276.3042371271045
 30
0.0
 10
71.90034856058395
 20
-273.3056260167431
 30
0.0
 10
71.90034856058395
 20
-273.3056260167431
 30
0.0
 10
71.90034856058395
 20
-273.3056260167431
 30
0.0
 10
77.50069578140608
 20
-273.3056260167431
 30
0.0
 10
77.50069578140608
 20
-273.3056260167431
 30
0.0
 10
77.50069578140608
 20
-273.3056260167431
 30
0.0
 10
77.50069578140608
 20
-276.3042371271045
 30
0.0
 10
77.50069578140608
 20
-276.3042371271045
 30
0.0
 10
77.50069578140608
 20
-276.3042371271045
 30
0.0
 10
83.90168319300028
 20
-276.3042371271045
 30
0.0
 10
83.90168319300028
 20
-276.3042371271045
 30
0.0
 10
83.90168319300028
 20
-276.3042371271045
 30
0.0
 10
83.90168319300028
 20
-273.3056260167431
 30
0.0
 10
83.90168319300028
 20
-273.3056260167431
 30
0.0
 10
83.90168319300028
 20
-273.3056260167431
 30
0.0
 10
89.49858531833716
 20
-273.3056260167431
 30
0.0
 10
89.49858531833716
 20
-273.3056260167431
 30
0.0
 10
89.49858531833716
 20
-273.3056260167431
 30
0.0
 10
89.49858531833716
 20
-276.3042371271045
 30
0.0
 10
89.49858531833716
 20
-276.3042371271045
 30
0.0
 10
89.49858531833716
 20
-276.3042371271045
 30
0.0
 10
95.89991723947989
 20
-276.3042371271045
 30
0.0
 10
95.89991723947989
 20
-276.3042371271045
 30
0.0
 10
95.89991723947989
 20
-276.3042371271045
 30
0.0
 10
95.89991723947989
 20
-273.3056260167431
 30
0.0
 10
95.89991723947989
 20
-273.3056260167431
 30
0.0
 10
95.89991723947989
 20
-273.3056260167431
 30
0.0
 10
101.700424507995
 20
-273.3056260167431
 30
0.0
 10
101.700424507995
 20
-273.3056260167431
 30
0.0
 10
101.700424507995
 20
-252.2305988952757
 30
0.0
 10
112.6999253733007
 20
-240.4483723357212
 30
0.0
 10
112.6999253733007
 20
-217.2317016058483
 30
0.0
 10
112.6999253733007
 20
-206.6802354083994
 30
0.0
 10
107.4506333824255
 20
-200.3019856270078
 30
0.0
 10
101.700424507995
 20
-200.3019856270078
 30
0.0
  0
SPLINE
  5
136
330
1F
100
AcDbEntity
  8
LAYER_1
100
AcDbSpline
210
0.0
220
0.0
230
1.0
 70
    11
 71
     3
 72
    17
 73
    13
 74
     0
 42
0.0000000001
 43
0.0000000001
 40
0.0
 40
0.0
 40
0.0
 40
0.0
 40
1.0
 40
1.0
 40
1.0
 40
2.0
 40
2.0
 40
2.0
 40
3.0
 40
3.0
 40
3.0
 40
4.0
 40
4.0
 40
4.0
 40
4.0
 10
86.0228284832686
 20
-209.3047091490627
 30
0.0
 10
88.92290986275192
 20
-209.3047091490627
 30
0.0
 10
91.27212047414378
 20
-211.6540920152289
 30
0.0
 10
91.27212047414378
 20
-214.5541733947122
 30
0.0
 10
91.27212047414378
 20
-217.4535657550984
 30
0.0
 10
88.92290986275192
 20
-219.8031208760388
 30
0.0
 10
86.0228284832686
 20
-219.8031208760388
 30
0.0
 10
83.12309161333381
 20
-219.8031208760388
 30
0.0
 10
80.77353649239342
 20
-217.4535657550984
 30
0.0
 10
80.77353649239342
 20
-214.5541733947122
 30
0.0
 10
80.77353649239342
 20
-211.6540920152289
 30
0.0
 10
83.12309161333381
 20
-209.3047091490627
 30
0.0
 10
86.0228284832686
 20
-209.3047091490627
 30
0.0
  0
POLYLINE
  5
137
330
1F
100
AcDbEntity
  8
LAYER_1
100
AcDb2dPolyline
 66
     1
 10
0.0
 20
0.0
 30
0.0
  0
VERTEX
  5
138
330
137
100
AcDbEntity
  8
LAYER_1
100
AcDbVertex
100
AcDb2dVertex
 10
81.00056828487139
 20
-131.8879014427225
 30
0.0
  0
VERTEX
  5
139
330
137
100
AcDbEntity
  8
LAYER_1
100
AcDbVertex
100
AcDb2dVertex
 10
81.00056828487139
 20
-144.3426106409977
 30
0.0
  0
VERTEX
  5
13A
330
137
100
AcDbEntity
  8
LAYER_1
100
AcDbVertex
100
AcDb2dVertex
 10
83.99917939523284
 20
-144.3426106409977
 30
0.0
  0
VERTEX
  5
13B
330
137
100
AcDbEntity
  8
LAYER_1
100
AcDbVertex
100
AcDb2dVertex
 10
83.99917939523284
 20
-157.6014051255302
 30
0.0
  0
VERTEX
  5
13C
330
137
100
AcDbEntity
  8
LAYER_1
100
AcDbVertex
100
AcDb2dVertex
 10
81.00056828487139
 20
-157.6014051255302
 30
0.0
  0
VERTEX
  5
13D
330
137
100
AcDbEntity
  8
LAYER_1
100
AcDbVertex
100
AcDb2dVertex
 10
81.00056828487139
 20
-170.0568033429025
 30
0.0
  0
VERTEX
  5
13E
330
137
100
AcDbEntity
  8
LAYER_1
100
AcDbVertex
100
AcDb2dVertex
 10
83.99917939523284
 20
-170.0568033429025
 30
0.0
  0
VERTEX
  5
13F
330
137
100
AcDbEntity
  8
LAYER_1
100
AcDbVertex
100
AcDb2dVertex
 10
83.99917939523284
 20
-183.315597827435
 30
0.0
  0
VERTEX
  5
140
330
137
100
AcDbEntity
  8
LAYER_1
100
AcDbVertex
100
AcDb2dVertex
 10
81.00056828487139
 20
-183.315597827435
 30
0.0
  0
VERTEX
  5
141
330
137
100
AcDbEntity
  8
LAYER_1
100
AcDbVertex
100
AcDb2dVertex
 10
81.00056828487139
 20
-195.9708115829517
 30
0.0
  0
VERTEX
  5
142
330
137
100
AcDbEntity
  8
LAYER_1
100
AcDbVertex
100
AcDb2dVertex
 10
6.998539223510782
 20
-195.9708115829517
 30
0.0
  0
VERTEX
  5
143
330
137
100
AcDbEntity
  8
LAYER_1
100
AcDbVertex
100
AcDb2dVertex
 10
6.998539223510782
 20
-183.315597827435
 30
0.0
  0
VERTEX
  5
144
330
137
100
AcDbEntity
  8
LAYER_1
100
AcDbVertex
100
AcDb2dVertex
 10
3.999928113149324
 20
-183.315597827435
 30
0.0
  0
VERTEX
  5
145
330
137
100
AcDbEntity
  8
LAYER_1
100
AcDbVertex
100
AcDb2dVertex
 10
3.999928113149324
 20
-170.0568033429025
 30
0.0
  0
VERTEX
  5
146
330
137
100
AcDbEntity
  8
LAYER_1
100
AcDbVertex
100
AcDb2dVertex
 10
6.998539223510782
 20
-170.0568033429025
 30
0.0
  0
VERTEX
  5
147
330
137
100
AcDbEntity
  8
LAYER_1
100
AcDbVertex
100
AcDb2dVertex
 10
6.998539223510782
 20
-157.6014051255302
 30
0.0
  0
VERTEX
  5
148
330
137
100
AcDbEntity
  8
LAYER_1
100
AcDbVertex
100
AcDb2dVertex
 10
3.999928113149324
 20
-157.6014051255302
 30
0.0
  0
VERTEX
  5
149
330
137
100
AcDbEntity
  8
LAYER_1
100
AcDbVertex
100
AcDb2dVertex
 10
3.999928113149324
 20
-144.3426106409977
 30
0.0
  0
VERTEX
  5
14A
330
137
100
AcDbEntity
  8
LAYER_1
100
AcDbVertex
100
AcDb2dVertex
 10
6.998539223510782
 20
-144.3426106409977
 30
0.0
  0
VERTEX
  5
14B
330
137
100
AcDbEntity
  8
LAYER_1
100
AcDbVertex
100
AcDb2dVertex
 10
6.998539223510782
 20
-131.8879014427225
 30
0.0
  0
VERTEX
  5
14C
330
137
100
AcDbEntity
  8
LAYER_1
100
AcDbVertex
100
AcDb2dVertex
 10
3.999928113149324
 20
-131.8879014427225
 30
0.0
  0
VERTEX
  5
14D
330
137
100
AcDbEntity
  8
LAYER_1
100
AcDbVertex
100
AcDb2dVertex
 10
3.999928113149324
 20
-118.62910695819
 30
0.0
  0
VERTEX
  5
14E
330
137
100
AcDbEntity
  8
LAYER_1
100
AcDbVertex
100
AcDb2dVertex
 10
6.998539223510782
 20
-118.62910695819
 30
0.0
  0
VERTEX
  5
14F
330
137
100
AcDbEntity
  8
LAYER_1
100
AcDbVertex
100
AcDb2dVertex
 10
6.998539223510782
 20
-105.9738932026732
 30
0.0
  0
VERTEX
  5
150
330
137
100
AcDbEntity
  8
LAYER_1
100
AcDbVertex
100
AcDb2dVertex
 10
15.43006591411123
 20
-105.9738932026732
 30
0.0
  0
VERTEX
  5
151
330
137
100
AcDbEntity
  8
LAYER_1
100
AcDbVertex
100
AcDb2dVertex
 10
15.43006591411123
 20
-108.9725043130347
 30
0.0
  0
VERTEX
  5
152
330
137
100
AcDbEntity
  8
LAYER_1
100
AcDbVertex
100
AcDb2dVertex
 10
26.85641411003937
 20
-108.9725043130347
 30
0.0
  0
VERTEX
  5
153
330
137
100
AcDbEntity
  8
LAYER_1
100
AcDbVertex
100
AcDb2dVertex
 10
26.85641411003937
 20
-105.9738932026732
 30
0.0
  0
VERTEX
  5
154
330
137
100
AcDbEntity
  8
LAYER_1
100
AcDbVertex
100
AcDb2dVertex
 10
38.28655191100128
 20
-105.9738932026732
 30
0.0
  0
VERTEX
  5
155
330
137
100
AcDbEntity
  8
LAYER_1
100
AcDbVertex
100
AcDb2dVertex
 10
38.28655191100128
 20
-108.9725043130347
 30
0.0
  0
VERTEX
  5
156
330
137
100
AcDbEntity
  8
LAYER_1
100
AcDbVertex
100
AcDb2dVertex
 10
49.71290010692942
 20
-108.9725043130347
 30
0.0
  0
VERTEX
  5
157
330
137
100
AcDbEntity
  8
LAYER_1
100
AcDbVertex
100
AcDb2dVertex
 10
49.71290010692942
 20
-105.9738932026732
 30
0.0
  0
VERTEX
  5
158
330
137
100
AcDbEntity
  8
LAYER_1
100
AcDbVertex
100
AcDb2dVertex
 10
61.14303790789133
 20
-105.9738932026732
 30
0.0
  0
VERTEX
  5
159
330
137
100
AcDbEntity
  8
LAYER_1
100
AcDbVertex
100
AcDb2dVertex
 10
61.14303790789133
 20
-108.9725043130347
 30
0.0
  0
VERTEX
  5
15A
330
137
100
AcDbEntity
  8
LAYER_1
100
AcDbVertex
100
AcDb2dVertex
 10
72.57283119930472
 20
-108.9725043130347
 30
0.0
  0
VERTEX
  5
15B
330
137
100
AcDbEntity
  8
LAYER_1
100
AcDbVertex
100
AcDb2dVertex
 10
72.57283119930472
 20
-105.9738932026732
 30
0.0
  0
VERTEX
  5
15C
330
137
100
AcDbEntity
  8
LAYER_1
100
AcDbVertex
100
AcDb2dVertex
 10
81.00056828487139
 20
-105.9738932026732
 30
0.0
  0
VERTEX
  5
15D
330
137
100
AcDbEntity
  8
LAYER_1
100
AcDbVertex
100
AcDb2dVertex
 10
81.00056828487139
 20
-118.62910695819
 30
0.0
  0
VERTEX
  5
15E
330
137
100
AcDbEntity
  8
LAYER_1
100
AcDbVertex
100
AcDb2dVertex
 10
83.99917939523284
 20
-118.62910695819
 30
0.0
  0
VERTEX
  5
15F
330
137
100
AcDbEntity
  8
LAYER_1
100
AcDbVertex
100
AcDb2dVertex
 10
83.99917939523284
 20
-131.8879014427225
 30
0.0
  0
VERTEX
  5
160
330
137
100
AcDbEntity
  8
LAYER_1
100
AcDbVertex
100
AcDb2dVertex
 10
81.00056828487139
 20
-131.8879014427225
 30
0.0
  0
SEQEND
  5
161
330
137
100
AcDbEntity
  8
LAYER_1
  0
ENDSEC
  0
SECTION
  2
OBJECTS
  0
DICTIONARY
  5
C
330
0
100
AcDbDictionary
  3
ACAD_GROUP
350
D
  3
ACAD_LAYOUT
350
1A
  3
ACAD_MLINESTYLE
350
17
  3
ACAD_PLOTSETTINGS
350
19
  3
ACAD_TABLESTYLE
350
182
  3
ACAD_VISUALSTYLE
350
2A
  3
ACDBHEADERROUNDTRIPXREC
350
162
  0
DICTIONARY
  5
D
102
{ACAD_REACTORS
330
C
102
}
330
C
100
AcDbDictionary
  0
DICTIONARY
  5
1A
102
{ACAD_REACTORS
330
C
102
}
330
C
100
AcDbDictionary
  0
DICTIONARY
  5
17
102
{ACAD_REACTORS
330
C
102
}
330
C
100
AcDbDictionary
  3
STANDARD
350
18
  0
DICTIONARY
  5
19
102
{ACAD_REACTORS
330
C
102
}
330
C
100
AcDbDictionary
  0
DICTIONARY
  5
182
102
{ACAD_REACTORS
330
C
102
}
330
C
100
AcDbDictionary
  0
DICTIONARY
  5
2A
102
{ACAD_REACTORS
330
C
102
}
330
C
100
AcDbDictionary
  3
2DWIREFRAME
350
2F
  3
3D_HIDDEN
350
31
  3
3DWIREFRAME
350
30
  3
BASIC
350
32
  3
BRIGHTEN
350
36
  3
COLORCHANGE
350
3A
  3
CONCEPTUAL
350
34
  3
DIM
350
35
  3
FACEPATTERN
350
39
  3
FLAT
350
2B
  3
FLATWITHEDGES
350
2C
  3
GOURAUD
350
2D
  3
GOURAUDWITHEDGES
350
2E
  3
LINEPATTERN
350
38
  3
REALISTIC
350
33
  3
THICKEN
350
37
  0
DICTIONARY
  5
162
102
{ACAD_REACTORS
330
C
102
}
330
C
100
AcDbDictionary
  3
CEPSNTYPE
350
16B
  3
DIMSTYLEDATA
350
181
  3
FINGERPRINTGUID
350
16C
  3
HYPERLINKBASE
350
165
  3
INSUNITS
350
16A
  3
LAYOUTDICT
350
167
  3
LWETCUNION
350
169
  3
PLOTSETDICT
350
168
  3
PSVPSCALE
350
16E
  3
PUCSBASE
350
171
  3
PUCSORGBACK
350
177
  3
PUCSORGBOTTOM
350
173
  3
PUCSORGFRONT
350
176
  3
PUCSORGLEFT
350
174
  3
PUCSORGRIGHT
350
175
  3
PUCSORGTOP
350
172
  3
PUCSORTHOREF
350
16F
  3
PUCSORTHOVIEW
350
170
  3
STYLESHEET
350
166
  3
TSTACKALIGN
350
163
  3
TSTACKSIZE
350
164
  3
UCSBASE
350
17A
  3
UCSORGBACK
350
180
  3
UCSORGBOTTOM
350
17C
  3
UCSORGFRONT
350
17F
  3
UCSORGLEFT
350
17D
  3
UCSORGRIGHT
350
17E
  3
UCSORGTOP
350
17B
  3
UCSORTHOREF
350
178
  3
UCSORTHOVIEW
350
179
  3
VERSIONGUID
350
16D
  0
MLINESTYLE
  5
18
102
{ACAD_REACTORS
330
17
102
}
330
17
100
AcDbMlineStyle
  2
Standard
 70
     0
  3

 62
   256
 51
90.0
 52
90.0
 71
     2
 49
0.5
 62
   256
  6
BYLAYER
 49
-0.5
 62
   256
  6
BYLAYER
  0
VISUALSTYLE
  5
2F
102
{ACAD_REACTORS
330
2A
102
}
330
2A
100
AcDbVisualStyle
  2
2dWireframe
 70
     4
 71
     0
 72
     2
 73
     0
 90
        0
 40
-0.6
 41
-30.0
 62
     5
 63
     7
 74
     1
 91
        4
 64
     7
 65
   257
 75
     1
175
     1
 42
1.0
 92
        0
 66
   257
 43
1.0
 76
     1
 77
     6
 78
     2
 67
     7
 79
     5
170
     0
171
     0
290
     0
174
     0
 93
        1
 44
0.0
173
     0
291
     0
 45
0.0
1001
ACAD
1000
AcDbSavedByObjectVersion
1070
     0
  0
VISUALSTYLE
  5
31
102
{ACAD_REACTORS
330
2A
102
}
330
2A
100
AcDbVisualStyle
  2
3D Hidden
 70
     6
 71
     1
 72
     2
 73
     2
 90
        0
 40
-0.6
 41
-30.0
 62
     5
 63
     7
 74
     2
 91
        2
 64
     7
 65
   257
 75
     2
175
     1
 42
40.0
 92
        0
 66
   257
 43
1.0
 76
     1
 77
     6
 78
     2
 67
     7
 79
     3
170
     0
171
     0
290
     0
174
     0
 93
        1
 44
0.0
173
     0
291
     0
 45
0.0
1001
ACAD
1000
AcDbSavedByObjectVersion
1070
     0
  0
VISUALSTYLE
  5
30
102
{ACAD_REACTORS
330
2A
102
}
330
2A
100
AcDbVisualStyle
  2
3dWireframe
 70
     5
 71
     0
 72
     2
 73
     0
 90
        0
 40
-0.6
 41
-30.0
 62
     5
 63
     7
 74
     1
 91
        4
 64
     7
 65
   257
 75
     1
175
     1
 42
1.0
 92
        0
 66
   257
 43
1.0
 76
     1
 77
     6
 78
     2
 67
     7
 79
     5
170
     0
171
     0
290
     0
174
     0
 93
        1
 44
0.0
173
     0
291
     0
 45
0.0
1001
ACAD
1000
AcDbSavedByObjectVersion
1070
     0
  0
VISUALSTYLE
  5
32
102
{ACAD_REACTORS
330
2A
102
}
330
2A
100
AcDbVisualStyle
  2
Basic
 70
     7
 71
     1
 72
     0
 73
     1
 90
        0
 40
-0.6
 41
-30.0
 62
     5
 63
     7
 74
     0
 91
        4
 64
     7
 65
   257
 75
     1
175
     1
 42
1.0
 92
        8
 66
     7
 43
1.0
 76
     1
 77
     6
 78
     2
 67
     7
 79
     5
170
     0
171
     0
290
     0
174
     0
 93
        1
 44
0.0
173
     0
291
     1
 45
0.0
1001
ACAD
1000
AcDbSavedByObjectVersion
1070
     0
  0
VISUALSTYLE
  5
36
102
{ACAD_REACTORS
330
2A
102
}
330
2A
100
AcDbVisualStyle
  2
Brighten
 70
    12
 71
     2
 72
     2
 73
     0
 90
        0
 40
-0.6
 41
-30.0
 62
     5
 63
     7
 74
     1
 91
        4
 64
     7
 65
   257
 75
     1
175
     1
 42
1.0
 92
        8
 66
     7
 43
1.0
 76
     1
 77
     6
 78
     2
 67
     7
 79
     5
170
     0
171
     0
290
     0
174
     0
 93
        1
 44
50.0
173
     0
291
     1
 45
0.0
1001
ACAD
1000
AcDbSavedByObjectVersion
1070
     0
  0
VISUALSTYLE
  5
3A
102
{ACAD_REACTORS
330
2A
102
}
330
2A
100
AcDbVisualStyle
  2
ColorChange
 70
    16
 71
     2
 72
     2
 73
     3
 90
        0
 40
-0.6
 41
-30.0
 62
     5
 63
     8
 74
     1
 91
        4
 64
     7
 65
   257
 75
     1
175
     1
 42
1.0
 92
        8
 66
     8
 43
1.0
 76
     1
 77
     6
 78
     2
 67
     7
 79
     5
170
     0
171
     0
290
     0
174
     0
 93
        1
 44
0.0
173
     0
291
     1
 45
0.0
1001
ACAD
1000
AcDbSavedByObjectVersion
1070
     0
  0
VISUALSTYLE
  5
34
102
{ACAD_REACTORS
330
2A
102
}
330
2A
100
AcDbVisualStyle
  2
Conceptual
 70
     9
 71
     3
 72
     2
 73
     0
 90
        0
 40
-0.6
 41
-30.0
 62
     5
 63
     7
 74
     2
 91
        2
 64
     7
 65
   257
 75
     1
175
     1
 42
40.0
 92
        8
 66
     7
 43
1.0
 76
     1
 77
     6
 78
     2
 67
     7
 79
     3
170
     0
171
     0
290
     0
174
     0
 93
        1
 44
0.0
173
     0
291
     0
 45
0.0
1001
ACAD
1000
AcDbSavedByObjectVersion
1070
     0
  0
VISUALSTYLE
  5
35
102
{ACAD_REACTORS
330
2A
102
}
330
2A
100
AcDbVisualStyle
  2
Dim
 70
    11
 71
     2
 72
     2
 73
     0
 90
        0
 40
-0.6
 41
-30.0
 62
     5
 63
     7
 74
     1
 91
        4
 64
     7
 65
   257
 75
     1
175
     1
 42
1.0
 92
        8
 66
     7
 43
1.0
 76
     1
 77
     6
 78
     2
 67
     7
 79
     5
170
     0
171
     0
290
     0
174
     0
 93
        1
 44
-50.0
173
     0
291
     1
 45
0.0
1001
ACAD
1000
AcDbSavedByObjectVersion
1070
     0
  0
VISUALSTYLE
  5
39
102
{ACAD_REACTORS
330
2A
102
}
330
2A
100
AcDbVisualStyle
  2
Facepattern
 70
    15
 71
     2
 72
     2
 73
     0
 90
        0
 40
-0.6
 41
-30.0
 62
     5
 63
     7
 74
     1
 91
        4
 64
     7
 65
   257
 75
     1
175
     1
 42
1.0
 92
        8
 66
     7
 43
1.0
 76
     1
 77
     6
 78
     2
 67
     7
 79
     5
170
     0
171
     0
290
     0
174
     0
 93
        1
 44
0.0
173
     0
291
     1
 45
0.0
1001
ACAD
1000
AcDbSavedByObjectVersion
1070
     0
  0
VISUALSTYLE
  5
2B
102
{ACAD_REACTORS
330
2A
102
}
330
2A
100
AcDbVisualStyle
  2
Flat
 70
     0
 71
     2
 72
     1
 73
     1
 90
        2
 40
-0.6
 41
30.0
 62
     5
 63
     7
 74
     0
 91
        4
 64
     7
 65
   257
 75
     1
175
     1
 42
1.0
 92
        8
 66
     7
 43
1.0
 76
     1
 77
     6
 78
     2
 67
     7
 79
     5
170
     0
171
     0
290
     0
174
     0
 93
       13
 44
0.0
173
     0
291
     1
 45
0.0
1001
ACAD
1000
AcDbSavedByObjectVersion
1070
     0
  0
VISUALSTYLE
  5
2C
102
{ACAD_REACTORS
330
2A
102
}
330
2A
100
AcDbVisualStyle
  2
FlatWithEdges
 70
     1
 71
     2
 72
     1
 73
     1
 90
        2
 40
-0.6
 41
30.0
 62
     5
 63
     7
 74
     1
 91
        4
 64
     7
 65
   257
 75
     1
175
     1
 42
1.0
 92
        0
 66
   257
 43
1.0
 76
     1
 77
     6
 78
     2
 67
     7
 79
     5
170
     0
171
     0
290
     0
174
     0
 93
       13
 44
0.0
173
     0
291
     1
 45
0.0
1001
ACAD
1000
AcDbSavedByObjectVersion
1070
     0
  0
VISUALSTYLE
  5
2D
102
{ACAD_REACTORS
330
2A
102
}
330
2A
100
AcDbVisualStyle
  2
Gouraud
 70
     2
 71
     2
 72
     2
 73
     1
 90
        2
 40
-0.6
 41
30.0
 62
     5
 63
     7
 74
     0
 91
        4
 64
     7
 65
   257
 75
     1
175
     1
 42
1.0
 92
        0
 66
     7
 43
1.0
 76
     1
 77
     6
 78
     2
 67
     7
 79
     5
170
     0
171
     0
290
     0
174
     0
 93
       13
 44
0.0
173
     0
291
     1
 45
0.0
1001
ACAD
1000
AcDbSavedByObjectVersion
1070
     0
  0
VISUALSTYLE
  5
2E
102
{ACAD_REACTORS
330
2A
102
}
330
2A
100
AcDbVisualStyle
  2
GouraudWithEdges
 70
     3
 71
     2
 72
     2
 73
     1
 90
        2
 40
-0.6
 41
30.0
 62
     5
 63
     7
 74
     1
 91
        4
 64
     7
 65
   257
 75
     1
175
     1
 42
1.0
 92
        0
 66
   257
 43
1.0
 76
     1
 77
     6
 78
     2
 67
     7
 79
     5
170
     0
171
     0
290
     0
174
     0
 93
       13
 44
0.0
173
     0
291
     1
 45
0.0
1001
ACAD
1000
AcDbSavedByObjectVersion
1070
     0
  0
VISUALSTYLE
  5
38
102
{ACAD_REACTORS
330
2A
102
}
330
2A
100
AcDbVisualStyle
  2
Linepattern
 70
    14
 71
     2
 72
     2
 73
     0
 90
        0
 40
-0.6
 41
-30.0
 62
     5
 63
     7
 74
     1
 91
        4
 64
     7
 65
   257
 75
     7
175
     7
 42
1.0
 92
        8
 66
     7
 43
1.0
 76
     1
 77
     6
 78
     2
 67
     7
 79
     5
170
     0
171
     0
290
     0
174
     0
 93
        1
 44
0.0
173
     0
291
     1
 45
0.0
1001
ACAD
1000
AcDbSavedByObjectVersion
1070
     0
  0
VISUALSTYLE
  5
33
102
{ACAD_REACTORS
330
2A
102
}
330
2A
100
AcDbVisualStyle
  2
Realistic
 70
     8
 71
     2
 72
     2
 73
     0
 90
        0
 40
-0.6
 41
-30.0
 62
     5
 63
     7
 74
     1
 91
        0
 64
     7
 65
   257
 75
     1
175
     1
 42
1.0
 92
        8
 66
     8
 43
1.0
 76
     1
 77
     6
 78
     2
 67
     7
 79
     5
170
     0
171
     0
290
     0
174
     0
 93
       13
 44
0.0
173
     0
291
     0
 45
0.0
1001
ACAD
1000
AcDbSavedByObjectVersion
1070
     0
  0
VISUALSTYLE
  5
37
102
{ACAD_REACTORS
330
2A
102
}
330
2A
100
AcDbVisualStyle
  2
Thicken
 70
    13
 71
     2
 72
     2
 73
     0
 90
        0
 40
-0.6
 41
-30.0
 62
     5
 63
     7
 74
     1
 91
        4
 64
     7
 65
   257
 75
     1
175
     1
 42
1.0
 92
       12
 66
     7
 43
1.0
 76
     1
 77
     6
 78
     2
 67
     7
 79
     5
170
     0
171
     0
290
     0
174
     0
 93
        1
 44
0.0
173
     0
291
     1
 45
0.0
1001
ACAD
1000
AcDbSavedByObjectVersion
1070
     0
  0
XRECORD
  5
16B
102
{ACAD_REACTORS
330
162
102
}
330
162
100
AcDbXrecord
 90
        0
  0
XRECORD
  5
181
102
{ACAD_REACTORS
330
162
102
}
330
162
100
AcDbXrecord
1000
DSTYLE
1002
{
1070
   340
340
11
1002
}
  0
XRECORD
  5
16C
102
{ACAD_REACTORS
330
162
102
}
330
162
100
AcDbXrecord
  1
{32F6A502-DE17-4F3F-99C4-8099F7A7CCC6}
  0
XRECORD
  5
165
102
{ACAD_REACTORS
330
162
102
}
330
162
100
AcDbXrecord
  1

  0
XRECORD
  5
16A
102
{ACAD_REACTORS
330
162
102
}
330
162
100
AcDbXrecord
 90
        1
  0
XRECORD
  5
167
102
{ACAD_REACTORS
330
162
102
}
330
162
100
AcDbXrecord
340
1A
  0
XRECORD
  5
169
102
{ACAD_REACTORS
330
162
102
}
330
162
100
AcDbXrecord
 90
    10269
  0
XRECORD
  5
168
102
{ACAD_REACTORS
330
162
102
}
330
162
100
AcDbXrecord
340
19
  0
XRECORD
  5
16E
102
{ACAD_REACTORS
330
162
102
}
330
162
100
AcDbXrecord
 40
0.0
  0
XRECORD
  5
171
102
{ACAD_REACTORS
330
162
102
}
330
162
100
AcDbXrecord
340
0
  0
XRECORD
  5
177
102
{ACAD_REACTORS
330
162
102
}
330
162
100
AcDbXrecord
 10
0.0
 20
0.0
 30
0.0
  0
XRECORD
  5
173
102
{ACAD_REACTORS
330
162
102
}
330
162
100
AcDbXrecord
 10
0.0
 20
0.0
 30
0.0
  0
XRECORD
  5
176
102
{ACAD_REACTORS
330
162
102
}
330
162
100
AcDbXrecord
 10
0.0
 20
0.0
 30
0.0
  0
XRECORD
  5
174
102
{ACAD_REACTORS
330
162
102
}
330
162
100
AcDbXrecord
 10
0.0
 20
0.0
 30
0.0
  0
XRECORD
  5
175
102
{ACAD_REACTORS
330
162
102
}
330
162
100
AcDbXrecord
 10
0.0
 20
0.0
 30
0.0
  0
XRECORD
  5
172
102
{ACAD_REACTORS
330
162
102
}
330
162
100
AcDbXrecord
 10
0.0
 20
0.0
 30
0.0
  0
XRECORD
  5
16F
102
{ACAD_REACTORS
330
162
102
}
330
162
100
AcDbXrecord
340
0
  0
XRECORD
  5
170
102
{ACAD_REACTORS
330
162
102
}
330
162
100
AcDbXrecord
 70
     0
  0
XRECORD
  5
166
102
{ACAD_REACTORS
330
162
102
}
330
162
100
AcDbXrecord
  1

  0
XRECORD
  5
163
102
{ACAD_REACTORS
330
162
102
}
330
162
100
AcDbXrecord
 90
        1
  0
XRECORD
  5
164
102
{ACAD_REACTORS
330
162
102
}
330
162
100
AcDbXrecord
 90
       70
  0
XRECORD
  5
17A
102
{ACAD_REACTORS
330
162
102
}
330
162
100
AcDbXrecord
340
0
  0
XRECORD
  5
180
102
{ACAD_REACTORS
330
162
102
}
330
162
100
AcDbXrecord
 10
0.0
 20
0.0
 30
0.0
  0
XRECORD
  5
17C
102
{ACAD_REACTORS
330
162
102
}
330
162
100
AcDbXrecord
 10
0.0
 20
0.0
 30
0.0
  0
XRECORD
  5
17F
102
{ACAD_REACTORS
330
162
102
}
330
162
100
AcDbXrecord
 10
0.0
 20
0.0
 30
0.0
  0
XRECORD
  5
17D
102
{ACAD_REACTORS
330
162
102
}
330
162
100
AcDbXrecord
 10
0.0
 20
0.0
 30
0.0
  0
XRECORD
  5
17E
102
{ACAD_REACTORS
330
162
102
}
330
162
100
AcDbXrecord
 10
0.0
 20
0.0
 30
0.0
  0
XRECORD
  5
17B
102
{ACAD_REACTORS
330
162
102
}
330
162
100
AcDbXrecord
 10
0.0
 20
0.0
 30
0.0
  0
XRECORD
  5
178
102
{ACAD_REACTORS
330
162
102
}
330
162
100
AcDbXrecord
340
0
  0
XRECORD
  5
179
102
{ACAD_REACTORS
330
162
102
}
330
162
100
AcDbXrecord
 70
     0
  0
XRECORD
  5
16D
102
{ACAD_REACTORS
330
162
102
}
330
162
100
AcDbXrecord
  1
{FAEB1C32-E019-11D5-929B-00C0DF256EC4}
  0
ENDSEC
  0
EOF
