<?xml version="1.0" encoding="utf-8"?>
<!-- Generator: Adobe Illustrator 19.2.1, SVG Export Plug-In . SVG Version: 6.00 Build 0)  -->
<svg version="1.1" xmlns="http://www.w3.org/2000/svg" xmlns:xlink="http://www.w3.org/1999/xlink" x="0px" y="0px" width="992.1px"
	 height="566.9px" viewBox="0 0 992.1 566.9" style="enable-background:new 0 0 992.1 566.9;" xml:space="preserve">
<style type="text/css">
	.st0{display:none;}
	.st1{fill:#FFFFFF;stroke:#000000;stroke-miterlimit:10;}
</style>
<g id="Ebene_1" class="st0">
</g>
<g id="Ebene_2">
	<path class="st1" d="M287.1,176H127.8c-18.6,0-33.7,15.1-33.7,33.7v103c0,18.6,15.1,33.7,33.7,33.7h51.3l24.2,41.9
		c0.9,1.5,2.5,2.4,4.2,2.4c1.7,0,3.3-0.9,4.2-2.4l24.2-41.9h51.3c18.6,0,33.7-15.1,33.7-33.7v-103C320.8,191.1,305.7,176,287.1,176z
		 M207.5,309c-4.6,0-52.1-28.7-52.1-64.3c0-14,11.7-26,26-26c13.6,0,21,8.4,24.1,14.1c1.3,2.3,2.5,2.3,3.8,0
		c3.2-5.7,10.8-14.1,24.2-14.1c14.4,0,26,13.6,26,26C259.5,280.3,212.2,309,207.5,309z"/>
	<path class="st1" d="M864.3,176H705c-18.6,0-33.7,15.1-33.7,33.7v103c0,18.6,15.1,33.7,33.7,33.7h51.3l24.2,41.9
		c0.9,1.5,2.5,2.4,4.2,2.4c1.7,0,3.3-0.9,4.2-2.4l24.2-41.9h51.3c18.6,0,33.7-15.1,33.7-33.7v-103C898.1,191.1,883,176,864.3,176z
		 M785.3,211.4c11.1,0,20,10.6,20,23.7s-9,23.7-20,23.7s-20-10.6-20-23.7S774.2,211.4,785.3,211.4z M736.2,302.5
		c0,0,3.5-41.5,26.8-41.5c11.3,0,8.5,6,22.3,6s11-6,22.3-6c23.3,0,26.8,41.5,26.8,41.5H736.2z"/>
	<path class="st1" d="M576,176H416.6c-18.6,0-33.7,15.1-33.7,33.7v103c0,18.6,15.1,33.7,33.7,33.7h51.3l24.2,41.9
		c0.9,1.5,2.5,2.4,4.2,2.4c1.7,0,3.3-0.9,4.2-2.4l24.2-41.9H576c18.6,0,33.7-15.1,33.7-33.7v-103C609.7,191.1,594.6,176,576,176z
		 M545.8,309h-58.1c-25,0-45.2-20.2-45.2-45.2s20.2-45.2,45.2-45.2c24.2,0,44,19.1,45.1,43l0.1,0v26.3l14.7,16.9l0,0
		c0.4,0.4,0.7,1.1,0.7,1.7C548.3,307.9,547.2,309,545.8,309z"/>
</g>
</svg>
