<?xml version="1.0" encoding="UTF-8" standalone="no"?>
<svg
   xmlns:osb="http://www.openswatchbook.org/uri/2009/osb"
   xmlns:dc="http://purl.org/dc/elements/1.1/"
   xmlns:cc="http://creativecommons.org/ns#"
   xmlns:rdf="http://www.w3.org/1999/02/22-rdf-syntax-ns#"
   xmlns:svg="http://www.w3.org/2000/svg"
   xmlns="http://www.w3.org/2000/svg"
   version="1.1"
   id="svg2"
   viewBox="0 0 2160 1080"
   height="12in"
   width="24in">
  <defs
     id="defs4">
    <linearGradient
       osb:paint="solid"
       id="linearGradient5943">
      <stop
         id="stop5945"
         offset="0"
         style="stop-color:#000000;stop-opacity:1;" />
    </linearGradient>
    <clipPath
       id="clipPath6444"
       clipPathUnits="userSpaceOnUse">
      <rect
         style="color:#000000;clip-rule:nonzero;display:inline;overflow:visible;visibility:visible;opacity:1;isolation:auto;mix-blend-mode:normal;color-interpolation:sRGB;color-interpolation-filters:linearRGB;solid-color:#000000;solid-opacity:1;fill:none;fill-opacity:1;fill-rule:nonzero;stroke:#000000;stroke-width:1;stroke-linecap:butt;stroke-linejoin:miter;stroke-miterlimit:4;stroke-dasharray:none;stroke-dashoffset:0;stroke-opacity:1;color-rendering:auto;image-rendering:auto;shape-rendering:auto;text-rendering:auto;enable-background:accumulate"
         id="rect6446"
         width="20.613411"
         height="6.3135009"
         x="334.01324"
         y="1905.3262" />
    </clipPath>
  </defs>
  <metadata
     id="metadata7">
    <rdf:RDF>
      <cc:Work
         rdf:about="">
        <dc:format>image/svg+xml</dc:format>
        <dc:type
           rdf:resource="http://purl.org/dc/dcmitype/StillImage" />
        <dc:title></dc:title>
      </cc:Work>
    </rdf:RDF>
  </metadata>
  <g
     id="layer1"
     transform="translate(0,27.637855)">
    <g
       transform="matrix(0,1,-1,0,1208.4379,2427.2116)"
       id="g6038">
      <g
         id="g5864"
         transform="translate(-1028.7,-1797.3502)">
        <path
           d="m -1082.0362,1559.1516 0,107.2124 17.2124,0 0,-107.2124 -17.2124,0"
           style="fill:none;stroke:#000000;stroke-width:0.78758943;stroke-miterlimit:3.88235307;stroke-dasharray:none;stroke-opacity:1"
           id="path6059" />
        <path
           id="path6801"
           transform="translate(0,-27.637855)"
           d="m -1318.8789,1478.8086 0,22.5 -98.8008,0 0,85.5371 22.5,0 0,107.0996 -22.5,0 0,108.8223 688.50001,0 0,-108.8223 -22.5,0 0,-107.0996 22.5,0 0,-85.9492 -0.006,0 0,0.4121 -98.80859,0 0,-22.5 -97.45703,0 0,22.5 -99.25579,0 0,-22.5 -97.4571,0 0,22.5 -99.2578,0 0,-22.5 -97.457,0 z"
           style="fill:none;stroke:#000000;stroke-width:0.89999998;stroke-miterlimit:3.88235307;stroke-dasharray:none;stroke-opacity:1" />
      </g>
      <path
         style="fill:none;stroke:#000000;stroke-width:0.89999998;stroke-miterlimit:3.88235307;stroke-dasharray:none;stroke-opacity:1"
         d="m -2446.3809,5.4179688 0,0.078125 22.5,0 0,107.0996062 -22.5,0 0,85.95118 97.9063,0 0,0.40234 0.9023,0.002 0,18.0918 97.4571,0 0,-18.0918 99.2558,0 0,18.0918 97.4571,0 0,-18.0918 99.2578,0 0,18.0918 97.457,0 0,-18.0918 0.8984,-0.002 0,-0.40234 97.9082,0 0,-85.95118 -22.5,0 0,-107.0996062 22.5,0 0,-0.078125 -688.5,0 z"
         transform="translate(0,-27.637855)"
         id="path6065" />
    </g>
    <g
       transform="matrix(0,1,-1,0,1592.8365,1179.6891)"
       id="g6078">
      <path
         id="path6075"
         style="fill:none;stroke:#000000;stroke-width:0.80706;stroke-miterlimit:3.88235307;stroke-dasharray:none;stroke-opacity:1"
         d="m -606.13877,-17.84324 0,18.09294 -96.07512,0 0,-18.09294 -100.63918,0 0,18.09294 -95.72156,0 0,-18.09294 -100.28563,0 0,18.09294 -96.78224,0 0,-18.09294 -99.3214,-0.226775 0,-86.176775 22.5,0 0,-107.1 0,-108.9 0,-107.1 c 0,-19.2378 1.2382,-57.4097 1.2702,-85.8499 l 310.49599,0.0729 1.37749,-0.0371 18.53103,0.0321 311.45409,-0.0679 c 0.1428,26.3136 0.3712,44.9852 0.3712,85.8499 l 0,107.1 0,108.9 0,107.1 22.5,0 0,86.176765 z" />
      <path
         style="fill:none;stroke:#000000;stroke-width:0.7873612;stroke-miterlimit:3.88235307;stroke-dasharray:none;stroke-opacity:1"
         d="m -859.32022,-513.15089 0,246.96223 17.21264,0 0,-246.96223 0,-0.01"
         id="path6071" />
    </g>
    <g
       transform="translate(2395.5255,-204.33304)"
       id="g6159">
      <path
         id="path6101"
         style="fill:none;fill-opacity:1;stroke:#000000;stroke-width:0.89999998;stroke-miterlimit:3.88235307;stroke-dasharray:none;stroke-opacity:1"
         d="m -949.08114,113.6878 77.4072,0 0,22.5 96.19644,0 0,-22.5 100.63908,0 0,22.5 36.26085,0 -0.004,-270.45 22.5,0 0.0893,270.45 37.22865,0 0,-22.5 100.63908,0 0,22.5 96.07522,0 0,-22.5 76.46776,0" />
      <g
         id="g6088">
        <path
           d="m -949.08114,113.6878 0,-85.05 -22.5,0 0,-108.9 22.5,0 0,-107.1 c 0,-25.3052 0,-78.9 0,-108.9 l -0.079,-84.7881 234.351,-0.2009 -0.023,0.4653 0,-92.2891 c -0.78707,-4.6607 -1.20053,-9.3769 -1.23633,-14.1035 -3.7e-4,-49.0082 39.72814,-88.7376 88.73633,-88.7383 49.00895,-4e-4 88.73865,39.7293 88.73828,88.7383 -0.007,4.908 -0.42119,9.807 -1.23828,14.6465 l 0.0133,91.7086 234.17311,-0.2269 0.0645,84.7881 c 0,21.4571 0,108.9 0,108.9 l 0,107.1 22.5,0 0,108.9 -22.5,0 0,85.05"
           style="fill:none;fill-opacity:1;stroke:#000000;stroke-width:0.89999998;stroke-miterlimit:3.88235307;stroke-dasharray:none;stroke-opacity:1"
           id="path6095" />
        <path
           style="opacity:1;fill:none;fill-opacity:1;stroke:#000000;stroke-width:0.89999998;stroke-miterlimit:3.88235307;stroke-dasharray:none;stroke-opacity:1"
           d="m -629.93172,-551.8253 c 1.26953,-0.023 2.54474,0 3.82618,0.07 29.32237,-0.7127 56.21461,22.4953 62.44335,50.6485 8.26044,30.5518 -11.37957,64.0934 -40.52343,74.7812 -33.65054,14.5768 -75.54244,-8.1249 -85.04102,-42.7305 -13.05726,-37.7847 19.93957,-82.0599 59.29492,-82.7695 z"
           id="path6639" />
      </g>
    </g>
    <flowRoot
       transform="translate(0,-27.637855)"
       style="font-style:normal;font-weight:normal;font-size:40px;line-height:125%;font-family:sans-serif;letter-spacing:0px;word-spacing:0px;fill:#000000;fill-opacity:1;stroke:#000000;stroke-width:0.9;stroke-linecap:butt;stroke-linejoin:miter;stroke-opacity:1;stroke-miterlimit:3.88235307;stroke-dasharray:none"
       id="flowRoot6841"
       xml:space="preserve"><flowRegion
         id="flowRegion6843"><rect
           style="stroke:#000000;stroke-opacity:1;stroke-width:0.9;stroke-miterlimit:3.88235307;stroke-dasharray:none"
           y="-175.82164"
           x="-1928.9873"
           height="42.426407"
           width="65.053825"
           id="rect6845" /></flowRegion><flowPara
         id="flowPara6847">11</flowPara></flowRoot>    <g
       transform="matrix(0.98909005,0,0,0.99451494,1738.3243,235.70262)"
       id="g6853">
      <rect
         style="color:#000000;clip-rule:nonzero;display:inline;overflow:visible;visibility:visible;opacity:1;isolation:auto;mix-blend-mode:normal;color-interpolation:sRGB;color-interpolation-filters:linearRGB;solid-color:#000000;solid-opacity:1;fill:#00ff00;fill-opacity:1;fill-rule:nonzero;stroke:#0000ff;stroke-width:0.99000001;stroke-linecap:butt;stroke-linejoin:miter;stroke-miterlimit:4;stroke-dasharray:none;stroke-dashoffset:0;stroke-opacity:1;color-rendering:auto;image-rendering:auto;shape-rendering:auto;text-rendering:auto;enable-background:accumulate"
         id="rect6839"
         width="90"
         height="180"
         x="-1940.301"
         y="-288.31229" />
      <text
         xml:space="preserve"
         style="font-style:normal;font-weight:normal;font-size:40px;line-height:125%;font-family:sans-serif;letter-spacing:0px;word-spacing:0px;fill:#000000;fill-opacity:1;stroke:#0000ff;stroke-width:1px;stroke-linecap:butt;stroke-linejoin:miter;stroke-opacity:1"
         x="-251.67191"
         y="1906.2197"
         id="text6849"
         transform="matrix(0,1,-1,0,0,0)"><tspan
           id="tspan6851"
           x="-251.67191"
           y="1906.2197">1&quot;x2&quot;</tspan></text>
    </g>
    <g
       transform="translate(-581.0447,-1902.5316)"
       id="g4318">
      <path
         id="path4320"
         style="fill:none;stroke:#000000;stroke-width:0.787274;stroke-miterlimit:3.88235307;stroke-dasharray:none;stroke-opacity:1"
         d="m 677.06445,1500.0271 97.47958,0 0,-17.2128 -97.47958,0 0,17.2128" />
      <path
         id="path4322"
         style="fill:none;stroke:#000000;stroke-width:0.787274;stroke-miterlimit:3.88235307;stroke-dasharray:none;stroke-opacity:1"
         d="m 1070.5834,1500.0271 97.4796,0 0,-17.2128 -97.4796,0 0,17.2128" />
      <path
         id="path4324"
         style="fill:none;stroke:#000000;stroke-width:0.787274;stroke-miterlimit:3.88235307;stroke-dasharray:none;stroke-opacity:1"
         d="m 913.95734,1245.9214 0,97.4796 17.21272,0 0,-97.4796 -17.21272,0" />
      <path
         id="path4326"
         style="fill:none;fill-opacity:1;stroke:#000000;stroke-width:0.89999998;stroke-miterlimit:3.88235307;stroke-dasharray:none;stroke-opacity:1"
         d="m 677.12081,1147.1707 0,22.5 97.4572,0 0,-22.5 99.2571,0 0,22.5 97.4572,0 0,-22.5 99.25709,0 0,22.5 97.4572,0 0,-22.5 98.8071,0 0,98.8071 -22.5,0 0,97.4572 22.5,0 0,99.2571 -22.5,0 0,97.4572 22.5,0 0,99.2571 -22.5,0 0,97.4572 22.5,0 0,98.8071 -98.8071,0 0,-22.5 -97.4572,0 0,22.5 -99.25709,0 0,-22.5 -97.4572,0 0,22.5 -99.2571,0 0,-22.5 -97.4572,0 0,22.5 -98.8071,0 0,-98.8071 22.5,0 0,-97.4572 -22.5,0 0,-99.2571 22.5,0 0,-97.4572 -22.5,0 0,-99.2571 22.5,0 0,-97.4572 -22.5,0.066 0,-98.8403 z" />
      <path
         id="path4328"
         style="fill:none;stroke:#000000;stroke-width:0.787274;stroke-miterlimit:3.88235307;stroke-dasharray:none;stroke-opacity:1"
         d="m 913.95734,1639.4404 0,97.4796 17.21272,0 0,-97.4796 -17.21272,0" />
      <path
         id="path4330"
         d="m 913.95629,1442.6804 0,40.1329 -40.13282,0 0,17.2129 40.13282,0 0,40.1348 17.21289,0 0,-40.1348 40.13476,0 0,-17.2129 -40.13476,0 0,-40.1329 -17.21289,0 z"
         style="fill:none;stroke:#000000;stroke-width:0.787274;stroke-miterlimit:3.88235307;stroke-dasharray:none;stroke-opacity:1" />
    </g>
    <g
       transform="translate(2044.9553,-1416.5316)"
       id="g5929">
      <path
         id="path5911"
         style="fill:none;stroke:#000000;stroke-width:0.80706;stroke-miterlimit:3.88235307;stroke-dasharray:none;stroke-opacity:1"
         d="m -1334.8546,1256.7173 18.093,0 0,-97.4572 -18.093,0 0,-99.2571 18.093,0 0,-97.45723 -18.093,0 0,-99.2571 18.093,0 0,-97.4572 -18.093,0 0.023,-98.58034 98.8305,0.22677 0,18.09294 97.4571,0 0,-18.09294 99.2571,0 0,18.09294 97.4572,0 0,-18.09294 99.2571,0 0,18.09294 97.4572,0 0,-18.09294 98.5803,-0.22677 -0.2267,98.58034 -18.093,0 0,97.4572 18.093,0 0,99.2571 -18.093,0 0,97.45723 18.093,0 0,99.2571 -18.093,0 0,97.4572 18.093,0 0.2268,98.8303 -98.5802,0.023 0,-18.0929 -97.4572,0 0,18.0929 -99.2571,0 0,-18.0929 -97.4572,0 0,18.0929 -99.2571,0 0,-18.0929 -97.4571,0 0,18.0929 -98.8305,-0.023 z" />
      <path
         style="color:#000000;clip-rule:nonzero;display:inline;overflow:visible;visibility:visible;opacity:1;isolation:auto;mix-blend-mode:normal;color-interpolation:sRGB;color-interpolation-filters:linearRGB;solid-color:#000000;solid-opacity:1;fill:none;fill-opacity:1;fill-rule:nonzero;stroke:#000000;stroke-width:0.6441592;stroke-linecap:butt;stroke-linejoin:miter;stroke-miterlimit:4;stroke-dasharray:none;stroke-dashoffset:0;stroke-opacity:1;color-rendering:auto;image-rendering:auto;shape-rendering:auto;text-rendering:auto;enable-background:accumulate"
         d="m -1000.2725,921.73277 0,80.09963 -80.0996,0 0,19.1562 80.0996,0 0,80.0995 19.1562,0 0,-80.0995 80.09963,0 0,-19.1562 -80.09963,0 0,-80.09963 -19.1562,0 z"
         id="rect5921" />
    </g>
    <g
       transform="matrix(0,-1,1,0,-771.6521,-737.3432)"
       id="g5965">
      <path
         d="m -1082.0362,1559.1516 0,107.2124 17.2124,0 0,-107.2124 -17.2124,0"
         style="fill:none;stroke:#000000;stroke-width:0.78758943;stroke-miterlimit:3.88235307;stroke-dasharray:none;stroke-opacity:1"
         id="path5967" />
      <path
         id="path5969"
         transform="translate(0,-27.637855)"
         d="m -1318.8789,1478.8086 0,22.5 -98.8008,0 0,85.5371 22.5,0 0,107.0996 -22.5,0 0,108.8223 688.50001,0 0,-108.8223 -22.5,0 0,-107.0996 22.5,0 0,-85.9492 -0.006,0 0,0.4121 -98.80859,0 0,-22.5 -97.45703,0 0,22.5 -99.25579,0 0,-22.5 -97.4571,0 0,22.5 -99.2578,0 0,-22.5 -97.457,0 z"
         style="fill:none;stroke:#000000;stroke-width:0.89999998;stroke-miterlimit:3.88235307;stroke-dasharray:none;stroke-opacity:1" />
    </g>
    <path
       id="path5971"
       d="m 1966.2483,945.41585 0,-18.0938 98.8066,0.023 0,-85.4082 -22.5,0 0,-107.0995 22.5,0 0,-0.078 -688.5,0 0,0.078 22.5,0 0,107.0995 -22.5,0 0,85.9512 0.2305,0 0,-0.543 98.5801,-0.023 0,18.0938 97.457,0 0,-18.0938 99.2559,0 0,18.0938 97.459,0 0,-18.0938 99.2558,0 0,18.0938 97.4571,0 z"
       style="fill:none;stroke:#000000;stroke-width:0.89999998;stroke-miterlimit:3.88235307;stroke-dasharray:none;stroke-opacity:1" />
    <g
       transform="matrix(-1,0,0,-1,620.8922,1826.2317)"
       id="g5985">
      <path
         d="m 492.80906,1499.5301 85.1623,0 0,-17.2124 -85.1623,0 0,17.2124"
         style="fill:none;stroke:#000000;stroke-width:0.78769362;stroke-miterlimit:3.88235307;stroke-dasharray:none;stroke-opacity:1"
         id="path5987" />
      <path
         style="fill:none;stroke:#000000;stroke-width:0.89999998;stroke-miterlimit:3.88235307;stroke-dasharray:none;stroke-opacity:1"
         d="m 383.96484,1174.7695 0,22.5 -107.82226,0 c 0.73699,20.4112 -0.0996,643.4119 -0.0996,643.418 3.144,0 1.95982,0.082 0.0156,0.082 l 107.90625,0 0,22.5 108.90039,0 0,-22.5 85.04883,0 0,-75.4082 0.40039,0 0,-0.8593 22.09961,0 0,-97.4571 -22.09961,0 0,-99.2578 22.09961,0 0,-97.457 -22.09961,0 0,-99.2578 22.09961,0 0,-97.4551 -22.09961,0.064 0,-1.0058 -0.40039,0 0,-75.4063 -85.04883,0 0,-22.5 -108.90039,0 z m -107.82226,22.5 c -0.0263,-0.7268 -0.0556,-0.8571 -0.0859,0 l 0.0859,0 z"
         transform="translate(0,-27.637855)"
         id="path5989" />
    </g>
    <path
       id="path5991"
       d="m 10.930599,948.2902 688.500001,0 0,-108.0781 -22.5,0.051 0,-84.7793 -76.5801,0.018 0,-18.0918 -97.457,0 0,18.0918 -99.2578,0 0,-18.0918 -97.457,0 0,18.0918 -99.2559,0 0,-18.0918 -97.457,0 0,18.0918 -76.035201,-0.016 0,84.7265 -22.5,0 0,108.0781 z"
       style="fill:none;stroke:#000000;stroke-width:0.89999998;stroke-miterlimit:3.88235307;stroke-dasharray:none;stroke-opacity:1" />
    <g
       transform="translate(77.0023,-1152.5316)"
       id="g5995">
      <path
         id="path5997"
         style="fill:none;stroke:#000000;stroke-width:0.78769362;stroke-miterlimit:3.88235307;stroke-dasharray:none;stroke-opacity:1"
         d="m 492.80906,1499.5301 85.1623,0 0,-17.2124 -85.1623,0 0,17.2124" />
      <path
         id="path5999"
         transform="translate(0,-27.637855)"
         d="m 383.96484,1174.7695 0,22.5 -107.82226,0 c 0.73699,20.4112 -0.0996,643.4119 -0.0996,643.418 3.144,0 1.95982,0.082 0.0156,0.082 l 107.90625,0 0,22.5 108.90039,0 0,-22.5 85.04883,0 0,-75.4082 0.40039,0 0,-0.8593 22.09961,0 0,-97.4571 -22.09961,0 0,-99.2578 22.09961,0 0,-97.457 -22.09961,0 0,-99.2578 22.09961,0 0,-97.4551 -22.09961,0.064 0,-1.0058 -0.40039,0 0,-75.4063 -85.04883,0 0,-22.5 -108.90039,0 z m -107.82226,22.5 c -0.0263,-0.7268 -0.0556,-0.8571 -0.0859,0 l 0.0859,0 z"
         style="fill:none;stroke:#000000;stroke-width:0.89999998;stroke-miterlimit:3.88235307;stroke-dasharray:none;stroke-opacity:1" />
    </g>
    <path
       id="path6001"
       d="m 690.09264,829.1183 22.5,-0.053 0,85.0762 75.4063,0.025 0,0.4023 0.6289,0 0,18.0918 97.457,0 0,-18.0918 99.25586,0 0,18.0918 97.4571,0 0,-18.0918 99.2578,0 0,18.0918 97.457,0 0,-18.0918 1.1719,0 0,-0.4023 75.4082,0 0,-85.0508 22.5,0 0,-108.07616 -688.50006,0 0,108.07816 z"
       style="fill:none;stroke:#000000;stroke-width:0.89999998;stroke-miterlimit:3.88235307;stroke-dasharray:none;stroke-opacity:1" />
  </g>
  <g
     id="g4197"
     transform="translate(0,27.637855)" />
  <g
     id="g4509"
     transform="translate(0,27.637855)" />
  <g
     id="g6171" />
</svg>
