<?xml version="1.0" encoding="utf-8"?>
<!-- Generator: Adobe Illustrator 19.2.1, SVG Export Plug-In . SVG Version: 6.00 Build 0)  -->
<svg version="1.1" id="Standard" xmlns="http://www.w3.org/2000/svg" xmlns:xlink="http://www.w3.org/1999/xlink" x="0px" y="0px"
	 width="1133.86px" height="708.66px" viewBox="0 0 1133.86 708.66" style="enable-background:new 0 0 1133.86 708.66;"
	 xml:space="preserve">
<style type="text/css">
	.st0{fill:#FFFFFF;stroke:#000000;stroke-width:0.7087;stroke-linecap:round;stroke-linejoin:round;stroke-miterlimit:10;}
</style>
<g id="LINE_9_">
	<polygon class="st0" points="383.04,230.44 418.47,230.44 716.11,230.44 751.54,230.44 751.54,284.3 716.11,284.3 716.11,338.16 
		418.47,338.16 418.47,284.3 383.04,284.3 	"/>
</g>
<g id="LINE_21_">
	<polygon class="st0" points="418.47,404.41 383.04,404.41 383.04,444.09 418.47,444.09 418.47,478.11 716.11,478.11 716.11,444.09 
		751.54,444.09 751.54,404.41 716.11,404.41 716.11,370.39 418.47,370.39 	"/>
</g>
<g id="ARC">
	<path class="st0" d="M327.82,444.09h35.43H327.82v-39.69h35.43h-35.43h35.43v-34.02h-35.43H161.99v53.86h-36.85v-50.61
		c-27.95,10.18-42.36,41.08-32.18,69.03c7.75,21.27,27.97,35.43,50.61,35.43h184.25h35.43v-34.02"/>
</g>
<g id="ARC_1_">
	<path class="st0" d="M806.76,444.09h-35.43H806.76v-39.69h-35.43h35.43h-35.43v-34.02h35.43h165.83v53.86h36.85v-50.61
		c27.95,10.18,42.36,41.08,32.18,69.03c-7.75,21.27-27.97,35.43-50.61,35.43H806.76h-35.43v-34.02"/>
</g>
</svg>
