<?xml version="1.0" encoding="UTF-8"?>
<!DOCTYPE svg PUBLIC "-//W3C//DTD SVG 1.1//EN" "http://www.w3.org/Graphics/SVG/1.1/DTD/svg11.dtd">
<!-- Creator: CorelDRAW X8 -->
<svg xmlns="http://www.w3.org/2000/svg" xml:space="preserve" width="210mm" height="297mm" version="1.1" style="shape-rendering:geometricPrecision; text-rendering:geometricPrecision; image-rendering:optimizeQuality; fill-rule:evenodd; clip-rule:evenodd"
viewBox="0 0 21000 29700"
 xmlns:xlink="http://www.w3.org/1999/xlink">
 <defs>
  <style type="text/css">
   <![CDATA[
    .str1 {stroke:#2B2A29;stroke-width:7.62}
    .str0 {stroke:black;stroke-width:7.62}
    .fil0 {fill:none}
   ]]>
  </style>
 </defs>
 <g id="Ebene_x0020_1">
  <metadata id="CorelCorpID_0Corel-Layer"/>
  <path class="fil0 str0" d="M5821 7703l750 0 0 600 -400 0 0 600 400 0 0 600 -400 0 0 600 400 0 0 600 -750 0 0 -400 -750 0 0 400 -600 0 0 -400 -600 0 0 400 -600 0 0 -400 -600 0 0 400 -600 0 0 -400 -750 0 0 400 -750 0 0 -600 400 0 0 -600 -400 0 0 -600 400 0 0 -600 -400 0 0 -600 750 0m1350 0l600 0m-1950 0l750 0m2400 0l-600 0m1950 0l-750 0m-3000 0l600 0m600 0l600 0m600 0l600 0"/>
  <path class="fil0 str0" d="M10054 7900l450 0 0 600 400 0 0 600 -400 0 0 600 400 0 0 600 -400 0 0 600 -450 0 0 -400 -850 0 0 400 -600 0 0 -400 -850 0 0 400 -450 0 0 -600 -400 0 0 -600 400 0 0 -600 -400 0 0 -600 400 0 0 -600m373 -500l0 500m-500 0c-276,0 -500,-224 -500,-500 0,-276 224,-500 500,-500 276,0 500,224 500,500m-500 500l127 0m373 0l2827 0m-2827 0l77 0m1450 0l850 0m-2300 0l850 0m0 0l600 0m-2027 -782c156,0 282,126 282,282 0,156 -126,283 -282,283 -156,0 -283,-127 -283,-283 0,-156 127,-282 283,-282z"/>
  <g id="_1857057561344">
   <polygon class="fil0 str0" points="956,3899 1306,3899 1306,3499 2056,3499 2056,3899 2656,3899 2656,3499 3256,3499 3256,3899 3856,3899 3856,3499 4456,3499 4456,3899 5056,3899 5056,3499 5806,3499 5806,3899 6156,3899 6156,4349 6556,4349 6556,5199 6156,5199 6156,5799 6556,5799 6556,6649 6156,6649 6156,7099 5806,7099 5806,7499 5056,7499 5056,7099 4456,7099 4456,7499 3856,7499 3856,7099 3256,7099 3256,7499 2656,7499 2656,7099 2056,7099 2056,7499 1306,7499 1306,7099 956,7099 956,6649 556,6649 556,5799 956,5799 956,5199 556,5199 556,4349 956,4349 "/>
  </g>
  <path class="fil0 str0" d="M15826 1773l450 0m-2959 -837l72 -100 199 -274 294 -170 294 -170 337 -35 337 -36 323 105 322 104 253 227 252 227 138 310 138 309 0 340m-2827 1l2827 -1m-2827 -499l0 500m-132 -838c82,89 132,208 132,338m0 500l2827 -1m-2827 1l77 0m1450 -1l850 0m-2300 1l850 0m0 0l600 -1"/>
  <path class="fil0 str1" d="M13709 3997l50 -233m3177 168l400 0 0 -200 -400 0m-3135 -164l-392 -83 -41 195 391 84m350 -785l-324 -235 -118 161 324 235m638 -574l-200 -347 -173 100 200 347m817 -266l-41 -398 -199 21 41 398m855 90l124 -381 -191 -61 -123 380m744 430l267 -298 -148 -134 -268 298m505 695l366 -163 -82 -183 -365 163m178 675l400 0 0 -200 -400 0m-3135 -164l49 -234 141 -194m118 -161l140 -194 207 -119m173 -100l208 -120 237 -25m199 -21l238 -25 228 74m190 62l227 74 178 160m149 134l177 160 98 218m81 183l97 218 0 74m0 200l0 65m-2800 0l53 -246 52 -247 149 -204 148 -204 218 -126 219 -126 251 -27 250 -26 240 78 240 78 188 169 187 168 103 231 102 230 0 252m-2827 0l427 0m2400 0l400 0"/>
  <path class="fil0 str0" d="M5793 295l750 0 0 600 -400 0 0 600 400 0 0 600 -400 0 0 600 400 0 0 600 -750 0 0 -400 -750 0 0 400 -600 0 0 -400 -600 0 0 400 -600 0 0 -400 -600 0 0 400 -600 0 0 -400 -750 0 0 400 -750 0 0 -600 400 0 0 -600 -400 0 0 -600 400 0 0 -600 -400 0 0 -600 750 0m1350 0l600 0m-1950 0l750 0m2400 0l-600 0m1950 0l-750 0m-3000 0l600 0m600 0l600 0m600 0l600 0"/>
  <path class="fil0 str1" d="M7131 740l6000 0 0 670 -6000 0 0 -670zm400 235l400 0 0 200 -400 0 0 -200zm4800 0l400 0 0 200 -400 0 0 -200zm-3200 -100l300 0 0 400 -300 0 0 -400zm1700 0l300 0 0 400 -300 0 0 -400z"/>
  <path class="fil0 str1" d="M7521 382l400 0 0 200 -400 0 0 -200zm4800 0l400 0 0 200 -400 0 0 -200zm-5200 -68l6000 0 0 335 -6000 0 0 -335z"/>
  <path class="fil0 str1" d="M7138 1510l6000 0 0 670 -6000 0 0 -670zm400 235l400 0 0 200 -400 0 0 -200zm4800 0l400 0 0 200 -400 0 0 -200z"/>
  <path class="fil0 str1" d="M7147 2291l6000 0 0 670 -6000 0 0 -670zm400 235l400 0 0 200 -400 0 0 -200zm4800 0l400 0 0 200 -400 0 0 -200z"/>
  <path class="fil0 str1" d="M7143 3068l6000 0 0 670 -6000 0 0 -670zm400 235l400 0 0 200 -400 0 0 -200zm4800 0l400 0 0 200 -400 0 0 -200z"/>
  <path class="fil0 str1" d="M7150 3839l6000 0 0 670 -6000 0 0 -670zm400 235l400 0 0 200 -400 0 0 -200zm4800 0l400 0 0 200 -400 0 0 -200z"/>
  <path class="fil0 str1" d="M7160 5063l0 -444 6000 0 0 444m0 0l-400 0 0 226m-5200 0l0 -226 -400 0m5600 226l-5200 0m0 -435l400 0 0 200 -400 0 0 -200zm4800 0l400 0 0 200 -400 0 0 -200z"/>
  <path class="fil0 str1" d="M9795 6282l300 0 0 400m-300 100l-1400 0m-300 0l-100 0 0 -100 100 0m300 0l1400 0m300 0l100 0 0 100 -100 0m-300 -500l0 400m0 100l0 470 -130 130 -1140 0 -130 -130 0 -470m0 -100l0 -400m1700 500l0 600 -300 300 -1400 0 -300 -300 0 -600m0 -100l0 -400 300 0"/>
  <path class="fil0 str1" d="M7154 5809l0 -403 6000 0 0 403m0 0l-400 0m0 32l0 235m-5200 0l0 -235m0 -32l-400 0m5600 267l-5200 0m0 -267l0 -168 400 0 0 200 -400 0m5200 0l-400 0 0 -200 400 0 0 168"/>
  <path class="fil0 str0" d="M14234 7887l450 0 0 600 400 0 0 600 -400 0 0 600 400 0 0 600 -400 0 0 600 -450 0 0 -400 -850 0 0 400 -600 0 0 -400 -850 0 0 400 -450 0 0 -600 -400 0 0 -600 400 0 0 -600 -400 0 0 -600 400 0 0 -600m373 -500l0 500m-500 0c-276,0 -500,-224 -500,-500 0,-276 224,-500 500,-500 277,0 500,224 500,500m-500 500l127 0m373 0l2827 0m-2827 0l77 0m1450 0l850 0m-2300 0l850 0m0 0l600 0m-2027 -783c156,0 283,127 283,283 0,156 -127,282 -283,282 -156,0 -282,-126 -282,-282 0,-156 126,-283 282,-283z"/>
  <path class="fil0 str0" d="M14503 7752l450 0m-2959 -837l72 -99 199 -275 294 -169 294 -170 337 -36 337 -35 323 104 323 105 252 227 252 227 138 309 138 310 0 339m-2827 2l2827 -2m-2827 -498l0 500m-132 -839c82,89 132,208 132,339m0 500l2827 -2m-2827 2l77 0m1450 -1l850 -1m-2300 2l850 -1m0 0l600 0"/>
  <path class="fil0 str1" d="M13895 5744l49 -234m3178 169l400 0 0 -200 -400 0m-3136 -165l-391 -83 -42 196 391 83m350 -785l-324 -235 -117 162 323 235m639 -575l-200 -347 -174 100 200 347m818 -266l-42 -398 -199 21 42 398m854 90l124 -380 -190 -62 -124 380m744 430l268 -297 -149 -134 -268 297m505 695l366 -163 -82 -182 -365 162m179 676l400 0 0 -200 -400 0m-3136 -165l50 -234 140 -193m118 -162l140 -194 207 -119m174 -100l207 -120 238 -25m199 -21l237 -25 228 74m190 62l228 74 177 160m149 134l178 160 97 218m81 183l98 219 0 74m0 200l0 65m-2800 0l52 -247 53 -247 148 -204 148 -204 219 -126 218 -126 251 -27 251 -26 240 78 239 78 188 169 187 169 103 230 103 230 0 253m-2827 0l427 0m2400 0l400 0"/>
 </g>
</svg>
