  0
SECTION
  2
HEADER
  9
$ACADVER
  1
AC1009
  9
$DWGCODEPAGE
  3
ansi_1252
  9
$INSBASE
 10
0.0
 20
0.0
 30
0.0
  9
$EXTMIN
 10
0.0
 20
0.0
 30
0.0
  9
$EXTMAX
 10
594.0
 20
420.0
 30
0.0
  9
$LIMMIN
 10
0.0
 20
0.0
  9
$LIMMAX
 10
594.0
 20
420.0
  9
$ORTHOMODE
 70
     0
  9
$REGENMODE
 70
     1
  9
$FILLMODE
 70
     1
  9
$QTEXTMODE
 70
     0
  9
$MIRRTEXT
 70
     1
  9
$DRAGMODE
 70
     2
  9
$LTSCALE
 40
1.0
  9
$OSMODE
 70
    37
  9
$ATTMODE
 70
     1
  9
$TEXTSIZE
 40
3.5
  9
$TRACEWID
 40
1.0
  9
$TEXTSTYLE
  7
STANDARD
  9
$CLAYER
  8
0
  9
$CELTYPE
  6
BYLAYER
  9
$CECOLOR
 62
   256
  9
$DIMSCALE
 40
1.0
  9
$DIMASZ
 40
2.5
  9
$DIMEXO
 40
0.625
  9
$DIMDLI
 40
3.75
  9
$DIMRND
 40
0.0
  9
$DIMDLE
 40
0.0
  9
$DIMEXE
 40
1.25
  9
$DIMTP
 40
0.0
  9
$DIMTM
 40
0.0
  9
$DIMTXT
 40
2.5
  9
$DIMCEN
 40
2.5
  9
$DIMTSZ
 40
0.0
  9
$DIMTOL
 70
     0
  9
$DIMLIM
 70
     0
  9
$DIMTIH
 70
     0
  9
$DIMTOH
 70
     0
  9
$DIMSE1
 70
     0
  9
$DIMSE2
 70
     0
  9
$DIMTAD
 70
     1
  9
$DIMZIN
 70
     8
  9
$DIMBLK
  1

  9
$DIMASO
 70
     1
  9
$DIMSHO
 70
     1
  9
$DIMPOST
  1

  9
$DIMAPOST
  1

  9
$DIMALT
 70
     0
  9
$DIMALTD
 70
     3
  9
$DIMALTF
 40
0.0393700787
  9
$DIMLFAC
 40
1.0
  9
$DIMTOFL
 70
     1
  9
$DIMTVP
 40
0.0
  9
$DIMTIX
 70
     0
  9
$DIMSOXD
 70
     0
  9
$DIMSAH
 70
     0
  9
$DIMBLK1
  1

  9
$DIMBLK2
  1

  9
$DIMSTYLE
  2
ISO-25
  9
$DIMCLRD
 70
     0
  9
$DIMCLRE
 70
     0
  9
$DIMCLRT
 70
     0
  9
$DIMTFAC
 40
1.0
  9
$DIMGAP
 40
0.625
  9
$LUNITS
 70
     2
  9
$LUPREC
 70
     4
  9
$SKETCHINC
 40
1.0
  9
$FILLETRAD
 40
10.0
  9
$AUNITS
 70
     0
  9
$AUPREC
 70
     0
  9
$MENU
  1
.
  9
$ELEVATION
 40
0.0
  9
$PELEVATION
 40
0.0
  9
$THICKNESS
 40
0.0
  9
$LIMCHECK
 70
     0
  9
$CHAMFERA
 40
0.0
  9
$CHAMFERB
 40
0.0
  9
$SKPOLY
 70
     0
  9
$TDCREATE
 40
2457649.779140556
  9
$TDUPDATE
 40
2457649.779142187
  9
$TDINDWG
 40
0.0000000116
  9
$TDUSRTIMER
 40
0.0000000116
  9
$USRTIMER
 70
     1
  9
$ANGBASE
 50
0.0
  9
$ANGDIR
 70
     0
  9
$PDMODE
 70
     0
  9
$PDSIZE
 40
0.0
  9
$PLINEWID
 40
0.0
  9
$COORDS
 70
     1
  9
$SPLFRAME
 70
     0
  9
$SPLINETYPE
 70
     6
  9
$SPLINESEGS
 70
     8
  9
$ATTDIA
 70
     0
  9
$ATTREQ
 70
     1
  9
$HANDLING
 70
     1
  9
$HANDSEED
  5
2DD
  9
$SURFTAB1
 70
     6
  9
$SURFTAB2
 70
     6
  9
$SURFTYPE
 70
     6
  9
$SURFU
 70
     6
  9
$SURFV
 70
     6
  9
$UCSNAME
  2

  9
$UCSORG
 10
0.0
 20
0.0
 30
0.0
  9
$UCSXDIR
 10
1.0
 20
0.0
 30
0.0
  9
$UCSYDIR
 10
0.0
 20
1.0
 30
0.0
  9
$PUCSNAME
  2

  9
$PUCSORG
 10
0.0
 20
0.0
 30
0.0
  9
$PUCSXDIR
 10
1.0
 20
0.0
 30
0.0
  9
$PUCSYDIR
 10
0.0
 20
1.0
 30
0.0
  9
$USERI1
 70
     0
  9
$USERI2
 70
     0
  9
$USERI3
 70
     0
  9
$USERI4
 70
     0
  9
$USERI5
 70
     0
  9
$USERR1
 40
0.0
  9
$USERR2
 40
0.0
  9
$USERR3
 40
0.0
  9
$USERR4
 40
0.0
  9
$USERR5
 40
0.0
  9
$WORLDVIEW
 70
     1
  9
$SHADEDGE
 70
     3
  9
$SHADEDIF
 70
    70
  9
$TILEMODE
 70
     1
  9
$MAXACTVP
 70
    64
  9
$PLIMCHECK
 70
     0
  9
$PEXTMIN
 10
0.0
 20
0.0
 30
0.0
  9
$PEXTMAX
 10
594.0
 20
420.0
 30
0.0
  9
$PLIMMIN
 10
0.0
 20
0.0
  9
$PLIMMAX
 10
594.0
 20
420.0
  9
$UNITMODE
 70
     0
  9
$VISRETAIN
 70
     1
  9
$PLINEGEN
 70
     0
  9
$PSLTSCALE
 70
     1
  0
ENDSEC
  0
SECTION
  2
TABLES
  0
TABLE
  2
VPORT
 70
     1
  0
VPORT
  2
*ACTIVE
 70
     0
 10
0.0
 20
0.0
 11
1.0
 21
1.0
 12
344.1869158879
 22
148.5
 13
0.0
 23
0.0
 14
10.0
 24
10.0
 15
10.0
 25
10.0
 16
0.0
 26
0.0
 36
1.0
 17
0.0
 27
0.0
 37
0.0
 40
297.0
 41
1.9729729729
 42
50.0
 43
0.0
 44
0.0
 50
0.0
 51
0.0
 71
     0
 72
   100
 73
     1
 74
     3
 75
     0
 76
     0
 77
     0
 78
     0
  0
ENDTAB
  0
TABLE
  2
LTYPE
 70
     1
  0
LTYPE
  2
CONTINUOUS
 70
     0
  3
Solid line
 72
    65
 73
     0
 40
0.0
  0
ENDTAB
  0
TABLE
  2
LAYER
 70
     2
  0
LAYER
  2
0
 70
     0
 62
     7
  6
CONTINUOUS
  0
LAYER
  2
STANDARD
 70
     0
 62
     7
  6
CONTINUOUS
  0
ENDTAB
  0
TABLE
  2
STYLE
 70
     1
  0
STYLE
  2
STANDARD
 70
     0
 40
0.0
 41
1.0
 50
0.0
 71
     0
 42
3.5
  3
txt
  4

  0
ENDTAB
  0
TABLE
  2
VIEW
 70
     0
  0
ENDTAB
  0
TABLE
  2
UCS
 70
     0
  0
ENDTAB
  0
TABLE
  2
APPID
 70
     1
  0
APPID
  2
ACAD
 70
     0
  0
ENDTAB
  0
TABLE
  2
DIMSTYLE
 70
     1
  0
DIMSTYLE
  2
ISO-25
 70
     0
  3

  4

  5

  6

  7

 40
1.0
 41
2.5
 42
0.625
 43
3.75
 44
1.25
 45
0.0
 46
0.0
 47
0.0
 48
0.0
140
2.5
141
2.5
142
0.0
143
0.0393700787
144
1.0
145
0.0
146
1.0
147
0.625
 71
     0
 72
     0
 73
     0
 74
     0
 75
     0
 76
     0
 77
     1
 78
     8
170
     0
171
     3
172
     1
173
     0
174
     0
175
     0
176
     0
177
     0
178
     0
  0
ENDTAB
  0
ENDSEC
  0
SECTION
  2
BLOCKS
  0
BLOCK
  8
0
  2
$MODEL_SPACE
 70
     0
 10
0.0
 20
0.0
 30
0.0
  3
$MODEL_SPACE
  1

  0
ENDBLK
  5
21
  8
0
  0
BLOCK
 67
     1
  8
0
  2
$PAPER_SPACE
 70
     0
 10
0.0
 20
0.0
 30
0.0
  3
$PAPER_SPACE
  1

  0
ENDBLK
  5
1D
 67
     1
  8
0
  0
BLOCK
  8
0
  2
SE
 70
     0
 10
0.0
 20
0.0
 30
0.0
  3
SE
  1

  0
INSERT
  5
94
  8
STANDARD
  2
SE1
 10
0.0
 20
0.0
 30
0.0
  0
ENDBLK
  5
9A
  8
0
  0
BLOCK
  8
0
  2
SE1
 70
     0
 10
0.0
 20
0.0
 30
0.0
  3
SE1
  1

  0
CIRCLE
  5
95
  8
STANDARD
  6
CONTINUOUS
 62
     7
 10
169.6205804456
 20
243.7483939286
 30
0.0
 40
2.0
  0
CIRCLE
  5
96
  8
STANDARD
  6
CONTINUOUS
 62
     7
 10
169.6205804456
 20
243.7483939286
 30
0.0
 40
15.0
  0
ENDBLK
  5
98
  8
0
  0
BLOCK
  8
0
  2
SE2
 70
     0
 10
0.0
 20
0.0
 30
0.0
  3
SE2
  1

  0
INSERT
  5
9E
  8
STANDARD
  2
SE3
 10
0.0
 20
0.0
 30
0.0
  0
ENDBLK
  5
AB
  8
0
  0
BLOCK
  8
0
  2
SE3
 70
     0
 10
0.0
 20
0.0
 30
0.0
  3
SE3
  1

  0
CIRCLE
  5
9F
  8
STANDARD
  6
CONTINUOUS
 62
     7
 10
64.4943437736
 20
60.1531903163
 30
0.0
 40
2.0
  0
LINE
  5
A0
  8
STANDARD
  6
CONTINUOUS
 62
     7
 10
39.4943437736
 20
75.1531903163
 30
0.0
 11
39.4943437736
 21
66.6531903163
 31
0.0
  0
LINE
  5
A1
  8
STANDARD
  6
CONTINUOUS
 62
     7
 10
39.4943437736
 20
66.6531903163
 30
0.0
 11
32.9943437736
 21
66.6531903163
 31
0.0
  0
LINE
  5
A2
  8
STANDARD
  6
CONTINUOUS
 62
     7
 10
32.9943437736
 20
53.6531903163
 30
0.0
 11
39.4943437736
 21
53.6531903163
 31
0.0
  0
LINE
  5
A3
  8
STANDARD
  6
CONTINUOUS
 62
     7
 10
32.9943437736
 20
66.6531903163
 30
0.0
 11
32.9943437736
 21
53.6531903163
 31
0.0
  0
ARC
  5
A4
  8
STANDARD
  6
CONTINUOUS
 62
     7
 10
64.4943437736
 20
60.1531903163
 30
0.0
 40
15.0
 50
270.0
 51
90.0
  0
LINE
  5
A5
  8
STANDARD
  6
CONTINUOUS
 62
     7
 10
64.4943437736
 20
75.1531903163
 30
0.0
 11
39.4943437736
 21
75.1531903163
 31
0.0
  0
LINE
  5
A6
  8
STANDARD
  6
CONTINUOUS
 62
     7
 10
39.4943437736
 20
45.1531903163
 30
0.0
 11
64.4943437736
 21
45.1531903163
 31
0.0
  0
LINE
  5
A7
  8
STANDARD
  6
CONTINUOUS
 62
     7
 10
39.4943437736
 20
53.6531903163
 30
0.0
 11
39.4943437736
 21
45.1531903163
 31
0.0
  0
ENDBLK
  5
A9
  8
0
  0
BLOCK
  8
0
  2
SE4
 70
     0
 10
0.0
 20
0.0
 30
0.0
  3
SE4
  1

  0
INSERT
  5
AF
  8
STANDARD
  2
SE5
 10
0.0
 20
0.0
 30
0.0
  0
ENDBLK
  5
BE
  8
0
  0
BLOCK
  8
0
  2
SE5
 70
     0
 10
0.0
 20
0.0
 30
0.0
  3
SE5
  1

  0
CIRCLE
  5
B0
  8
STANDARD
  6
CONTINUOUS
 62
     7
 10
60.39702268
 20
222.9079517737
 30
0.0
 40
2.0
  0
LINE
  5
B1
  8
STANDARD
  6
CONTINUOUS
 62
     7
 10
30.39702268
 20
212.9079517737
 30
0.0
 11
30.39702268
 21
219.6579517737
 31
0.0
  0
LINE
  5
B2
  8
STANDARD
  6
CONTINUOUS
 62
     7
 10
36.89702268
 20
219.6579517737
 30
0.0
 11
36.89702268
 21
226.1579517737
 31
0.0
  0
LINE
  5
B3
  8
STANDARD
  6
CONTINUOUS
 62
     7
 10
30.39702268
 20
219.6579517737
 30
0.0
 11
36.89702268
 21
219.6579517737
 31
0.0
  0
LINE
  5
B4
  8
STANDARD
  6
CONTINUOUS
 62
     7
 10
36.89702268
 20
226.1579517737
 30
0.0
 11
30.39702268
 21
226.1579517737
 31
0.0
  0
LINE
  5
B5
  8
STANDARD
  6
CONTINUOUS
 62
     7
 10
30.39702268
 20
226.1579517737
 30
0.0
 11
30.39702268
 21
232.9079517737
 31
0.0
  0
LINE
  5
B6
  8
STANDARD
  6
CONTINUOUS
 62
     7
 10
30.39702268
 20
232.9079517737
 30
0.0
 11
35.39702268
 21
232.9079517737
 31
0.0
  0
LINE
  5
B7
  8
STANDARD
  6
CONTINUOUS
 62
     7
 10
35.39702268
 20
212.9079517737
 30
0.0
 11
30.39702268
 21
212.9079517737
 31
0.0
  0
ARC
  5
B8
  8
STANDARD
  6
CONTINUOUS
 62
     7
 10
35.39702268
 20
162.9079517737
 30
0.0
 40
50.00000000000028
 50
67.380135052
 51
90.0
  0
ARC
  5
B9
  8
STANDARD
  6
CONTINUOUS
 62
     7
 10
35.39702268
 20
282.9079517737
 30
0.0
 40
49.99999999999836
 50
270.0
 51
292.619864948
  0
ARC
  5
BA
  8
STANDARD
  6
CONTINUOUS
 62
     7
 10
60.39702268
 20
222.9079517737
 30
0.0
 40
15.0
 50
247.380135052
 51
112.619864948
  0
ENDBLK
  5
BC
  8
0
  0
BLOCK
  8
0
  2
SE6
 70
     0
 10
0.0
 20
0.0
 30
0.0
  3
SE6
  1

  0
INSERT
  5
C2
  8
STANDARD
  2
SE7
 10
0.0
 20
0.0
 30
0.0
  0
ENDBLK
  5
D1
  8
0
  0
BLOCK
  8
0
  2
SE7
 70
     0
 10
0.0
 20
0.0
 30
0.0
  3
SE7
  1

  0
CIRCLE
  5
C3
  8
STANDARD
  6
CONTINUOUS
 62
     7
 10
168.5269730809
 20
301.0390987662
 30
0.0
 40
2.0
  0
LINE
  5
C4
  8
STANDARD
  6
CONTINUOUS
 62
     7
 10
178.5269730809
 20
271.0390987662
 30
0.0
 11
171.7769730809
 21
271.0390987662
 31
0.0
  0
LINE
  5
C5
  8
STANDARD
  6
CONTINUOUS
 62
     7
 10
171.7769730809
 20
277.5390987662
 30
0.0
 11
165.2769730809
 21
277.5390987662
 31
0.0
  0
LINE
  5
C6
  8
STANDARD
  6
CONTINUOUS
 62
     7
 10
171.7769730809
 20
271.0390987662
 30
0.0
 11
171.7769730809
 21
277.5390987662
 31
0.0
  0
LINE
  5
C7
  8
STANDARD
  6
CONTINUOUS
 62
     7
 10
165.2769730809
 20
277.5390987662
 30
0.0
 11
165.2769730809
 21
271.0390987662
 31
0.0
  0
LINE
  5
C8
  8
STANDARD
  6
CONTINUOUS
 62
     7
 10
165.2769730809
 20
271.0390987662
 30
0.0
 11
158.5269730809
 21
271.0390987662
 31
0.0
  0
LINE
  5
C9
  8
STANDARD
  6
CONTINUOUS
 62
     7
 10
158.5269730809
 20
271.0390987662
 30
0.0
 11
158.5269730809
 21
276.0390987662
 31
0.0
  0
LINE
  5
CA
  8
STANDARD
  6
CONTINUOUS
 62
     7
 10
178.5269730809
 20
276.0390987662
 30
0.0
 11
178.5269730809
 21
271.0390987662
 31
0.0
  0
ARC
  5
CB
  8
STANDARD
  6
CONTINUOUS
 62
     7
 10
228.5269730809
 20
276.0390987662
 30
0.0
 40
49.99999999999696
 50
157.380135052
 51
180.0
  0
ARC
  5
CC
  8
STANDARD
  6
CONTINUOUS
 62
     7
 10
108.5269730809
 20
276.0390987662
 30
0.0
 40
49.99999999999836
 50
0.0
 51
22.619864948
  0
ARC
  5
CD
  8
STANDARD
  6
CONTINUOUS
 62
     7
 10
168.5269730809
 20
301.0390987662
 30
0.0
 40
15.0
 50
337.380135052
 51
202.619864948
  0
ENDBLK
  5
CF
  8
0
  0
BLOCK
  8
0
  2
SE8
 70
     0
 10
0.0
 20
0.0
 30
0.0
  3
SE8
  1

  0
INSERT
  5
D5
  8
STANDARD
  2
SE9
 10
0.0
 20
0.0
 30
0.0
  0
ENDBLK
  5
E2
  8
0
  0
BLOCK
  8
0
  2
SE9
 70
     0
 10
0.0
 20
0.0
 30
0.0
  3
SE9
  1

  0
CIRCLE
  5
D6
  8
STANDARD
  6
CONTINUOUS
 62
     7
 10
261.5784532108
 20
164.7859943776
 30
0.0
 40
2.0
  0
LINE
  5
D7
  8
STANDARD
  6
CONTINUOUS
 62
     7
 10
236.5784532108
 20
179.7859943776
 30
0.0
 11
236.5784532108
 21
171.2859943776
 31
0.0
  0
LINE
  5
D8
  8
STANDARD
  6
CONTINUOUS
 62
     7
 10
236.5784532108
 20
171.2859943776
 30
0.0
 11
230.0784532108
 21
171.2859943776
 31
0.0
  0
LINE
  5
D9
  8
STANDARD
  6
CONTINUOUS
 62
     7
 10
230.0784532108
 20
158.2859943776
 30
0.0
 11
236.5784532108
 21
158.2859943776
 31
0.0
  0
LINE
  5
DA
  8
STANDARD
  6
CONTINUOUS
 62
     7
 10
230.0784532108
 20
171.2859943776
 30
0.0
 11
230.0784532108
 21
158.2859943776
 31
0.0
  0
ARC
  5
DB
  8
STANDARD
  6
CONTINUOUS
 62
     7
 10
261.5784532108
 20
164.7859943776
 30
0.0
 40
15.0
 50
270.0
 51
90.0
  0
LINE
  5
DC
  8
STANDARD
  6
CONTINUOUS
 62
     7
 10
261.5784532108
 20
179.7859943776
 30
0.0
 11
236.5784532108
 21
179.7859943776
 31
0.0
  0
LINE
  5
DD
  8
STANDARD
  6
CONTINUOUS
 62
     7
 10
236.5784532108
 20
149.7859943776
 30
0.0
 11
261.5784532108
 21
149.7859943776
 31
0.0
  0
LINE
  5
DE
  8
STANDARD
  6
CONTINUOUS
 62
     7
 10
236.5784532108
 20
158.2859943776
 30
0.0
 11
236.5784532108
 21
149.7859943776
 31
0.0
  0
ENDBLK
  5
E0
  8
0
  0
BLOCK
  8
0
  2
SE10
 70
     0
 10
0.0
 20
0.0
 30
0.0
  3
SE10
  1

  0
INSERT
  5
E6
  8
STANDARD
  2
SE11
 10
0.0
 20
0.0
 30
0.0
  0
ENDBLK
  5
FE
  8
0
  0
BLOCK
  8
0
  2
SE11
 70
     0
 10
0.0
 20
0.0
 30
0.0
  3
SE11
  1

  0
CIRCLE
  5
E7
  8
STANDARD
  6
CONTINUOUS
 62
     7
 10
185.5639858519
 20
44.5502831429
 30
0.0
 40
2.0
  0
ARC
  5
E8
  8
STANDARD
  6
CONTINUOUS
 62
     7
 10
166.7980489064
 20
106.782426048
 30
0.0
 40
55.99999999999984
 50
256.4334746448
 51
265.1524445705
  0
ARC
  5
E9
  8
STANDARD
  6
CONTINUOUS
 62
     7
 10
185.5639858519
 20
44.5502831429
 30
0.0
 40
21.00000000000001
 50
171.7515457176
 51
177.48397515
  0
ARC
  5
EA
  8
STANDARD
  6
CONTINUOUS
 62
     7
 10
161.5871222657
 20
45.6038544833
 30
0.0
 40
2.99999999999999
 50
260.2093507074
 51
357.48397515
  0
ARC
  5
EB
  8
STANDARD
  6
CONTINUOUS
 62
     7
 10
161.8122596699
 20
47.9934653012
 30
0.0
 40
3.000000000000004
 50
351.7515457176
 51
85.1524445705
  0
ARC
  5
EC
  8
STANDARD
  6
CONTINUOUS
 62
     7
 10
166.7980489064
 20
106.782426048
 30
0.0
 40
49.99999999999984
 50
256.4334746448
 51
286.7805452052
  0
ARC
  5
ED
  8
STANDARD
  6
CONTINUOUS
 62
     7
 10
155.7667600293
 20
-13.2175741246
 30
0.0
 40
49.99999999999998
 50
62.7148736742
 51
81.4318241694
  0
ARC
  5
EE
  8
STANDARD
  6
CONTINUOUS
 62
     7
 10
185.5639858519
 20
44.5502831429
 30
0.0
 40
15.0
 50
242.7148736742
 51
106.7805452052
  0
CIRCLE
  5
EF
  8
STANDARD
  6
CONTINUOUS
 62
     7
 10
45.5641137139
 20
184.3614904565
 30
0.0
 40
2.0
  0
ARC
  5
F0
  8
STANDARD
  6
CONTINUOUS
 62
     7
 10
45.5641137139
 20
184.3614904565
 30
0.0
 40
21.00000000000129
 50
272.5932878189
 51
278.3257176924
  0
ARC
  5
F1
  8
STANDARD
  6
CONTINUOUS
 62
     7
 10
107.8215059109
 20
165.6794906485
 30
0.0
 40
56.00000000000001
 50
184.9248188395
 51
193.6437907584
  0
ARC
  5
F2
  8
STANDARD
  6
CONTINUOUS
 62
     7
 10
49.0393219559
 20
160.614429003
 30
0.0
 40
3.000000000000264
 50
4.9248188395
 51
98.3257176924
  0
ARC
  5
F3
  8
STANDARD
  6
CONTINUOUS
 62
     7
 10
46.6500167241
 20
160.3860694038
 30
0.0
 40
3.000000000000024
 50
92.5932878189
 51
189.8679138215
  0
ARC
  5
F4
  8
STANDARD
  6
CONTINUOUS
 62
     7
 10
-12.1635098032
 20
154.4863924137
 30
0.0
 40
49.99999999999634
 50
8.6454398298
 51
27.3623890698
  0
ARC
  5
F5
  8
STANDARD
  6
CONTINUOUS
 62
     7
 10
107.8215059109
 20
165.6794906485
 30
0.0
 40
49.99999999998447
 50
163.2967182048
 51
193.6437907584
  0
ARC
  5
F6
  8
STANDARD
  6
CONTINUOUS
 62
     7
 10
45.5641137139
 20
184.3614904565
 30
0.0
 40
15.00000000000258
 50
343.2967182048
 51
207.3623890698
  0
ARC
  5
F7
  8
STANDARD
  6
CONTINUOUS
 62
     7
 10
185.5639858519
 20
184.5502832292
 30
0.0
 40
136.0
 50
193.6437907584
 51
256.4334746448
  0
ARC
  5
F8
  8
STANDARD
  6
CONTINUOUS
 62
     7
 10
185.5639858519
 20
184.5502832292
 30
0.0
 40
130.0
 50
193.6437907584
 51
256.4334746448
  0
ARC
  5
F9
  8
STANDARD
  6
CONTINUOUS
 62
     7
 10
185.5639858519
 20
184.5502832292
 30
0.0
 40
144.0000001725534
 50
189.8679138215
 51
260.2093507074
  0
ARC
  5
FA
  8
STANDARD
  6
CONTINUOUS
 62
     7
 10
185.5639858519
 20
184.5502832292
 30
0.0
 40
150.0000001725534
 50
188.6454398298
 51
261.4318241694
  0
ENDBLK
  5
FC
  8
0
  0
BLOCK
  8
0
  2
SE12
 70
     0
 10
0.0
 20
0.0
 30
0.0
  3
SE12
  1

  0
INSERT
  5
102
  8
STANDARD
  2
SE13
 10
0.0
 20
0.0
 30
0.0
  0
ENDBLK
  5
135
  8
0
  0
BLOCK
  8
0
  2
SE13
 70
     0
 10
0.0
 20
0.0
 30
0.0
  3
SE13
  1

  0
INSERT
  5
104
  8
0
  2
SE14
 10
0.0
 20
0.0
 30
0.0
  0
ARC
  5
111
  8
STANDARD
  6
CONTINUOUS
 62
     7
 10
44.7860344941
 20
301.3012481468
 30
0.0
 40
18.75
 50
288.5896362614
 51
296.4103637386
  0
ARC
  5
112
  8
STANDARD
  6
CONTINUOUS
 62
     7
 10
44.7860344941
 20
301.3012481468
 30
0.0
 40
18.75
 50
18.5896362614
 51
26.4103637386
  0
ARC
  5
113
  8
STANDARD
  6
CONTINUOUS
 62
     7
 10
44.7860344941
 20
301.3012481468
 30
0.0
 40
18.75
 50
63.5896362614
 51
71.4103637386
  0
ARC
  5
114
  8
STANDARD
  6
CONTINUOUS
 62
     7
 10
44.7860344941
 20
301.3012481468
 30
0.0
 40
18.75
 50
108.5896362614
 51
116.4103637386
  0
ARC
  5
115
  8
STANDARD
  6
CONTINUOUS
 62
     7
 10
44.7860344941
 20
301.3012481468
 30
0.0
 40
18.75
 50
153.5896362614
 51
161.4103637386
  0
ARC
  5
116
  8
STANDARD
  6
CONTINUOUS
 62
     7
 10
44.7860344941
 20
301.3012481468
 30
0.0
 40
18.75
 50
198.5896362614
 51
206.4103637386
  0
ARC
  5
117
  8
STANDARD
  6
CONTINUOUS
 62
     7
 10
44.7860344941
 20
301.3012481468
 30
0.0
 40
18.75
 50
243.5896362614
 51
251.4103637386
  0
ARC
  5
118
  8
STANDARD
  6
CONTINUOUS
 62
     7
 10
44.7860344941
 20
301.3012481468
 30
0.0
 40
18.75
 50
333.5896362614
 51
341.4103637386
  0
ARC
  5
119
  8
STANDARD
  6
CONTINUOUS
 62
     7
 10
61.1360345173
 20
295.8021573817
 30
0.0
 40
1.499999999998045
 50
341.4103637386
 51
41.8018435518
  0
ARC
  5
11A
  8
STANDARD
  6
CONTINUOUS
 62
     7
 10
61.1360345173
 20
306.8003389119
 30
0.0
 40
1.49999999999999
 50
318.1981564482
 51
18.5896362614
  0
ARC
  5
11B
  8
STANDARD
  6
CONTINUOUS
 62
     7
 10
67.2860345788
 20
301.3012481468
 30
0.0
 40
6.750000000000001
 50
138.1981564482
 51
221.8018435518
  0
ARC
  5
11C
  8
STANDARD
  6
CONTINUOUS
 62
     7
 10
60.2356747533
 20
308.9739996652
 30
0.0
 40
1.499999999998045
 50
26.4103637386
 51
86.8018435518
  0
ARC
  5
11D
  8
STANDARD
  6
CONTINUOUS
 62
     7
 10
52.4587860125
 20
316.7508884059
 30
0.0
 40
1.49999999999999
 50
3.1981564482
 51
63.5896362614
  0
ARC
  5
11E
  8
STANDARD
  6
CONTINUOUS
 62
     7
 10
60.6959371307
 20
317.2111507834
 30
0.0
 40
6.750000000000001
 50
183.1981564482
 51
266.8018435518
  0
ARC
  5
11F
  8
STANDARD
  6
CONTINUOUS
 62
     7
 10
50.2851252592
 20
317.65124817
 30
0.0
 40
1.499999999998045
 50
71.4103637386
 51
131.8018435518
  0
ARC
  5
120
  8
STANDARD
  6
CONTINUOUS
 62
     7
 10
39.286943729
 20
317.65124817
 30
0.0
 40
1.49999999999999
 50
48.1981564482
 51
108.5896362614
  0
ARC
  5
121
  8
STANDARD
  6
CONTINUOUS
 62
     7
 10
44.7860344941
 20
323.8012482315
 30
0.0
 40
6.750000000000001
 50
228.1981564482
 51
311.8018435518
  0
ARC
  5
122
  8
STANDARD
  6
CONTINUOUS
 62
     7
 10
37.1132829757
 20
316.7508884059
 30
0.0
 40
1.499999999998045
 50
116.4103637386
 51
176.8018435518
  0
ARC
  5
123
  8
STANDARD
  6
CONTINUOUS
 62
     7
 10
29.336394235
 20
308.9739996652
 30
0.0
 40
1.49999999999999
 50
93.1981564482
 51
153.5896362614
  0
ARC
  5
124
  8
STANDARD
  6
CONTINUOUS
 62
     7
 10
28.8761318575
 20
317.2111507834
 30
0.0
 40
6.750000000000001
 50
273.1981564482
 51
356.8018435518
  0
ARC
  5
125
  8
STANDARD
  6
CONTINUOUS
 62
     7
 10
28.436034471
 20
306.8003389119
 30
0.0
 40
1.499999999998045
 50
161.4103637386
 51
221.8018435518
  0
ARC
  5
126
  8
STANDARD
  6
CONTINUOUS
 62
     7
 10
28.436034471
 20
295.8021573817
 30
0.0
 40
1.49999999999999
 50
138.1981564482
 51
198.5896362614
  0
ARC
  5
127
  8
STANDARD
  6
CONTINUOUS
 62
     7
 10
22.2860344094
 20
301.3012481468
 30
0.0
 40
6.750000000000001
 50
318.1981564482
 51
41.8018435518
  0
ARC
  5
128
  8
STANDARD
  6
CONTINUOUS
 62
     7
 10
29.336394235
 20
293.6284966284
 30
0.0
 40
1.499999999998045
 50
206.4103637386
 51
266.8018435518
  0
ARC
  5
129
  8
STANDARD
  6
CONTINUOUS
 62
     7
 10
37.1132829757
 20
285.8516078877
 30
0.0
 40
1.49999999999999
 50
183.1981564482
 51
243.5896362614
  0
ARC
  5
12A
  8
STANDARD
  6
CONTINUOUS
 62
     7
 10
28.8761318575
 20
285.3913455102
 30
0.0
 40
6.750000000000001
 50
3.1981564482
 51
86.8018435518
  0
ARC
  5
12B
  8
STANDARD
  6
CONTINUOUS
 62
     7
 10
39.286943729
 20
284.9512481236
 30
0.0
 40
1.499999999998045
 50
251.4103637386
 51
311.8018435518
  0
ARC
  5
12C
  8
STANDARD
  6
CONTINUOUS
 62
     7
 10
50.2851252592
 20
284.9512481236
 30
0.0
 40
1.49999999999999
 50
228.1981564482
 51
288.5896362614
  0
ARC
  5
12D
  8
STANDARD
  6
CONTINUOUS
 62
     7
 10
44.7860344941
 20
278.8012480621
 30
0.0
 40
6.750000000000001
 50
48.1981564482
 51
131.8018435518
  0
ARC
  5
12E
  8
STANDARD
  6
CONTINUOUS
 62
     7
 10
52.4587860125
 20
285.8516078877
 30
0.0
 40
1.499999999998045
 50
296.4103637386
 51
356.8018435518
  0
ARC
  5
12F
  8
STANDARD
  6
CONTINUOUS
 62
     7
 10
60.2356747533
 20
293.6284966284
 30
0.0
 40
1.49999999999999
 50
273.1981564482
 51
333.5896362614
  0
ARC
  5
130
  8
STANDARD
  6
CONTINUOUS
 62
     7
 10
60.6959371307
 20
285.3913455102
 30
0.0
 40
6.750000000000001
 50
93.1981564482
 51
176.8018435518
  0
CIRCLE
  5
131
  8
STANDARD
  6
CONTINUOUS
 62
     7
 10
44.7860344941
 20
301.3012481468
 30
0.0
 40
2.0
  0
ENDBLK
  5
133
  8
0
  0
BLOCK
  8
0
  2
SE14
 70
     0
 10
0.0
 20
0.0
 30
0.0
  3
SE14
  1

  0
INSERT
  5
106
  8
STANDARD
  2
SE15
 10
0.0
 20
0.0
 30
0.0
  0
ENDBLK
  5
110
  8
0
  0
BLOCK
  8
0
  2
SE15
 70
     0
 10
0.0
 20
0.0
 30
0.0
  3
SE15
  1

  0
LINE
  5
107
  8
STANDARD
  6
CONTINUOUS
 62
     7
 10
46.7778929228
 20
297.8512481468
 30
0.0
 11
48.7697513515
 21
301.3012481468
 31
0.0
  0
LINE
  5
108
  8
STANDARD
  6
CONTINUOUS
 62
     7
 10
48.7697513515
 20
301.3012481468
 30
0.0
 11
46.7778929228
 21
304.7512481468
 31
0.0
  0
LINE
  5
109
  8
STANDARD
  6
CONTINUOUS
 62
     7
 10
46.7778929228
 20
304.7512481468
 30
0.0
 11
42.7941760654
 21
304.7512481468
 31
0.0
  0
LINE
  5
10A
  8
STANDARD
  6
CONTINUOUS
 62
     7
 10
42.7941760654
 20
304.7512481468
 30
0.0
 11
40.8023176367
 21
301.3012481468
 31
0.0
  0
LINE
  5
10B
  8
STANDARD
  6
CONTINUOUS
 62
     7
 10
40.8023176367
 20
301.3012481468
 30
0.0
 11
42.7941760654
 21
297.8512481468
 31
0.0
  0
LINE
  5
10C
  8
STANDARD
  6
CONTINUOUS
 62
     7
 10
42.7941760654
 20
297.8512481468
 30
0.0
 11
46.7778929228
 21
297.8512481468
 31
0.0
  0
ENDBLK
  5
10E
  8
0
  0
BLOCK
  8
0
  2
SE16
 70
     0
 10
0.0
 20
0.0
 30
0.0
  3
SE16
  1

  0
INSERT
  5
139
  8
STANDARD
  2
SE17
 10
0.0
 20
0.0
 30
0.0
  0
ENDBLK
  5
16C
  8
0
  0
BLOCK
  8
0
  2
SE17
 70
     0
 10
0.0
 20
0.0
 30
0.0
  3
SE17
  1

  0
INSERT
  5
13B
  8
0
  2
SE18
 10
0.0
 20
0.0
 30
0.0
  0
ARC
  5
148
  8
STANDARD
  6
CONTINUOUS
 62
     7
 10
44.7860344941
 20
259.5388195123
 30
0.0
 40
18.75
 50
311.0896362614
 51
318.9103637386
  0
ARC
  5
149
  8
STANDARD
  6
CONTINUOUS
 62
     7
 10
44.7860344941
 20
259.5388195123
 30
0.0
 40
18.75
 50
41.0896362614
 51
48.9103637386
  0
ARC
  5
14A
  8
STANDARD
  6
CONTINUOUS
 62
     7
 10
44.7860344941
 20
259.5388195123
 30
0.0
 40
18.75
 50
86.0896362614
 51
93.9103637386
  0
ARC
  5
14B
  8
STANDARD
  6
CONTINUOUS
 62
     7
 10
44.7860344941
 20
259.5388195123
 30
0.0
 40
18.75
 50
131.0896362614
 51
138.9103637386
  0
ARC
  5
14C
  8
STANDARD
  6
CONTINUOUS
 62
     7
 10
44.7860344941
 20
259.5388195123
 30
0.0
 40
18.75
 50
176.0896362614
 51
183.9103637386
  0
ARC
  5
14D
  8
STANDARD
  6
CONTINUOUS
 62
     7
 10
44.7860344941
 20
259.5388195123
 30
0.0
 40
18.75
 50
221.0896362614
 51
228.9103637386
  0
ARC
  5
14E
  8
STANDARD
  6
CONTINUOUS
 62
     7
 10
44.7860344941
 20
259.5388195123
 30
0.0
 40
18.75
 50
266.0896362614
 51
273.9103637386
  0
ARC
  5
14F
  8
STANDARD
  6
CONTINUOUS
 62
     7
 10
44.7860344941
 20
259.5388195123
 30
0.0
 40
18.75
 50
356.0896362614
 51
3.9103637386
  0
ARC
  5
150
  8
STANDARD
  6
CONTINUOUS
 62
     7
 10
61.9958758009
 20
260.7151962351
 30
0.0
 40
1.499999999998045
 50
3.9103637386
 51
64.3018435518
  0
ARC
  5
151
  8
STANDARD
  6
CONTINUOUS
 62
     7
 10
57.7870539432
 20
270.8761910457
 30
0.0
 40
1.49999999999999
 50
340.6981564482
 51
41.0896362614
  0
ARC
  5
152
  8
STANDARD
  6
CONTINUOUS
 62
     7
 10
65.5733240539
 20
268.149196773
 30
0.0
 40
6.750000000000001
 50
160.6981564482
 51
244.3018435518
  0
ARC
  5
153
  8
STANDARD
  6
CONTINUOUS
 62
     7
 10
56.1234060274
 20
272.5398389614
 30
0.0
 40
1.499999999998045
 50
48.9103637386
 51
109.3018435518
  0
ARC
  5
154
  8
STANDARD
  6
CONTINUOUS
 62
     7
 10
45.9624112168
 20
276.7486608192
 30
0.0
 40
1.49999999999999
 50
25.6981564482
 51
86.0896362614
  0
ARC
  5
155
  8
STANDARD
  6
CONTINUOUS
 62
     7
 10
53.3964117547
 20
280.3261090721
 30
0.0
 40
6.750000000000001
 50
205.6981564482
 51
289.3018435518
  0
ARC
  5
156
  8
STANDARD
  6
CONTINUOUS
 62
     7
 10
43.6096577714
 20
276.7486608192
 30
0.0
 40
1.499999999998045
 50
93.9103637386
 51
154.3018435518
  0
ARC
  5
157
  8
STANDARD
  6
CONTINUOUS
 62
     7
 10
33.4486629608
 20
272.5398389614
 30
0.0
 40
1.49999999999999
 50
70.6981564482
 51
131.0896362614
  0
ARC
  5
158
  8
STANDARD
  6
CONTINUOUS
 62
     7
 10
36.1756572335
 20
280.3261090721
 30
0.0
 40
6.750000000000001
 50
250.6981564482
 51
334.3018435518
  0
ARC
  5
159
  8
STANDARD
  6
CONTINUOUS
 62
     7
 10
31.785015045
 20
270.8761910457
 30
0.0
 40
1.499999999998045
 50
138.9103637386
 51
199.3018435518
  0
ARC
  5
15A
  8
STANDARD
  6
CONTINUOUS
 62
     7
 10
27.5761931873
 20
260.7151962351
 30
0.0
 40
1.49999999999999
 50
115.6981564482
 51
176.0896362614
  0
ARC
  5
15B
  8
STANDARD
  6
CONTINUOUS
 62
     7
 10
23.9987449343
 20
268.149196773
 30
0.0
 40
6.750000000000001
 50
295.6981564482
 51
19.3018435518
  0
ARC
  5
15C
  8
STANDARD
  6
CONTINUOUS
 62
     7
 10
27.5761931873
 20
258.3624427896
 30
0.0
 40
1.499999999998045
 50
183.9103637386
 51
244.3018435518
  0
ARC
  5
15D
  8
STANDARD
  6
CONTINUOUS
 62
     7
 10
31.785015045
 20
248.201447979
 30
0.0
 40
1.49999999999999
 50
160.6981564482
 51
221.0896362614
  0
ARC
  5
15E
  8
STANDARD
  6
CONTINUOUS
 62
     7
 10
23.9987449343
 20
250.9284422517
 30
0.0
 40
6.750000000000001
 50
340.6981564482
 51
64.3018435518
  0
ARC
  5
15F
  8
STANDARD
  6
CONTINUOUS
 62
     7
 10
33.4486629608
 20
246.5378000633
 30
0.0
 40
1.499999999998045
 50
228.9103637386
 51
289.3018435518
  0
ARC
  5
160
  8
STANDARD
  6
CONTINUOUS
 62
     7
 10
43.6096577714
 20
242.3289782055
 30
0.0
 40
1.49999999999999
 50
205.6981564482
 51
266.0896362614
  0
ARC
  5
161
  8
STANDARD
  6
CONTINUOUS
 62
     7
 10
36.1756572335
 20
238.7515299526
 30
0.0
 40
6.750000000000001
 50
25.6981564482
 51
109.3018435518
  0
ARC
  5
162
  8
STANDARD
  6
CONTINUOUS
 62
     7
 10
45.9624112168
 20
242.3289782055
 30
0.0
 40
1.499999999998045
 50
273.9103637386
 51
334.3018435518
  0
ARC
  5
163
  8
STANDARD
  6
CONTINUOUS
 62
     7
 10
56.1234060274
 20
246.5378000633
 30
0.0
 40
1.49999999999999
 50
250.6981564482
 51
311.0896362614
  0
ARC
  5
164
  8
STANDARD
  6
CONTINUOUS
 62
     7
 10
53.3964117547
 20
238.7515299526
 30
0.0
 40
6.750000000000001
 50
70.6981564482
 51
154.3018435518
  0
ARC
  5
165
  8
STANDARD
  6
CONTINUOUS
 62
     7
 10
57.7870539432
 20
248.201447979
 30
0.0
 40
1.499999999998045
 50
318.9103637386
 51
19.3018435518
  0
ARC
  5
166
  8
STANDARD
  6
CONTINUOUS
 62
     7
 10
61.9958758009
 20
258.3624427896
 30
0.0
 40
1.49999999999999
 50
295.6981564482
 51
356.0896362614
  0
ARC
  5
167
  8
STANDARD
  6
CONTINUOUS
 62
     7
 10
65.5733240539
 20
250.9284422517
 30
0.0
 40
6.750000000000001
 50
115.6981564482
 51
199.3018435518
  0
CIRCLE
  5
168
  8
STANDARD
  6
CONTINUOUS
 62
     7
 10
44.7860344941
 20
259.5388195123
 30
0.0
 40
2.0
  0
ENDBLK
  5
16A
  8
0
  0
BLOCK
  8
0
  2
SE18
 70
     0
 10
0.0
 20
0.0
 30
0.0
  3
SE18
  1

  0
INSERT
  5
13D
  8
STANDARD
  2
SE19
 10
0.0
 20
0.0
 30
0.0
  0
ENDBLK
  5
147
  8
0
  0
BLOCK
  8
0
  2
SE19
 70
     0
 10
0.0
 20
0.0
 30
0.0
  3
SE19
  1

  0
LINE
  5
13E
  8
STANDARD
  6
CONTINUOUS
 62
     7
 10
47.9465295697
 20
257.1136863455
 30
0.0
 11
48.466508962
 21
261.0633219529
 31
0.0
  0
LINE
  5
13F
  8
STANDARD
  6
CONTINUOUS
 62
     7
 10
48.466508962
 20
261.0633219529
 30
0.0
 11
45.3060138864
 21
263.4884551198
 31
0.0
  0
LINE
  5
140
  8
STANDARD
  6
CONTINUOUS
 62
     7
 10
45.3060138864
 20
263.4884551198
 30
0.0
 11
41.6255394185
 21
261.9639526792
 31
0.0
  0
LINE
  5
141
  8
STANDARD
  6
CONTINUOUS
 62
     7
 10
41.6255394185
 20
261.9639526792
 30
0.0
 11
41.1055600262
 21
258.0143170718
 31
0.0
  0
LINE
  5
142
  8
STANDARD
  6
CONTINUOUS
 62
     7
 10
41.1055600262
 20
258.0143170718
 30
0.0
 11
44.2660551018
 21
255.5891839049
 31
0.0
  0
LINE
  5
143
  8
STANDARD
  6
CONTINUOUS
 62
     7
 10
44.2660551018
 20
255.5891839049
 30
0.0
 11
47.9465295697
 21
257.1136863455
 31
0.0
  0
ENDBLK
  5
145
  8
0
  0
BLOCK
  8
0
  2
SE20
 70
     0
 10
0.0
 20
0.0
 30
0.0
  3
SE20
  1

  0
INSERT
  5
170
  8
STANDARD
  2
SE21
 10
0.0
 20
0.0
 30
0.0
  0
ENDBLK
  5
1A3
  8
0
  0
BLOCK
  8
0
  2
SE21
 70
     0
 10
0.0
 20
0.0
 30
0.0
  3
SE21
  1

  0
INSERT
  5
172
  8
0
  2
SE22
 10
0.0
 20
0.0
 30
0.0
  0
ARC
  5
17F
  8
STANDARD
  6
CONTINUOUS
 62
     7
 10
86.6300437427
 20
259.6821330791
 30
0.0
 40
18.75
 50
288.5896362614
 51
296.4103637386
  0
ARC
  5
180
  8
STANDARD
  6
CONTINUOUS
 62
     7
 10
86.6300437427
 20
259.6821330791
 30
0.0
 40
18.75
 50
18.5896362614
 51
26.4103637386
  0
ARC
  5
181
  8
STANDARD
  6
CONTINUOUS
 62
     7
 10
86.6300437427
 20
259.6821330791
 30
0.0
 40
18.75
 50
63.5896362614
 51
71.4103637386
  0
ARC
  5
182
  8
STANDARD
  6
CONTINUOUS
 62
     7
 10
86.6300437427
 20
259.6821330791
 30
0.0
 40
18.75
 50
108.5896362614
 51
116.4103637386
  0
ARC
  5
183
  8
STANDARD
  6
CONTINUOUS
 62
     7
 10
86.6300437427
 20
259.6821330791
 30
0.0
 40
18.75
 50
153.5896362614
 51
161.4103637386
  0
ARC
  5
184
  8
STANDARD
  6
CONTINUOUS
 62
     7
 10
86.6300437427
 20
259.6821330791
 30
0.0
 40
18.75
 50
198.5896362614
 51
206.4103637386
  0
ARC
  5
185
  8
STANDARD
  6
CONTINUOUS
 62
     7
 10
86.6300437427
 20
259.6821330791
 30
0.0
 40
18.75
 50
243.5896362614
 51
251.4103637386
  0
ARC
  5
186
  8
STANDARD
  6
CONTINUOUS
 62
     7
 10
86.6300437427
 20
259.6821330791
 30
0.0
 40
18.75
 50
333.5896362614
 51
341.4103637386
  0
ARC
  5
187
  8
STANDARD
  6
CONTINUOUS
 62
     7
 10
102.9800437659
 20
254.183042314
 30
0.0
 40
1.499999999998045
 50
341.4103637386
 51
41.8018435518
  0
ARC
  5
188
  8
STANDARD
  6
CONTINUOUS
 62
     7
 10
102.9800437659
 20
265.1812238442
 30
0.0
 40
1.49999999999999
 50
318.1981564482
 51
18.5896362614
  0
ARC
  5
189
  8
STANDARD
  6
CONTINUOUS
 62
     7
 10
109.1300438274
 20
259.6821330791
 30
0.0
 40
6.750000000000001
 50
138.1981564482
 51
221.8018435518
  0
ARC
  5
18A
  8
STANDARD
  6
CONTINUOUS
 62
     7
 10
102.0796840018
 20
267.3548845975
 30
0.0
 40
1.499999999998045
 50
26.4103637386
 51
86.8018435518
  0
ARC
  5
18B
  8
STANDARD
  6
CONTINUOUS
 62
     7
 10
94.3027952611
 20
275.1317733382
 30
0.0
 40
1.49999999999999
 50
3.1981564482
 51
63.5896362614
  0
ARC
  5
18C
  8
STANDARD
  6
CONTINUOUS
 62
     7
 10
102.5399463793
 20
275.5920357157
 30
0.0
 40
6.750000000000001
 50
183.1981564482
 51
266.8018435518
  0
ARC
  5
18D
  8
STANDARD
  6
CONTINUOUS
 62
     7
 10
92.1291345078
 20
276.0321331022
 30
0.0
 40
1.499999999998045
 50
71.4103637386
 51
131.8018435518
  0
ARC
  5
18E
  8
STANDARD
  6
CONTINUOUS
 62
     7
 10
81.1309529776
 20
276.0321331022
 30
0.0
 40
1.49999999999999
 50
48.1981564482
 51
108.5896362614
  0
ARC
  5
18F
  8
STANDARD
  6
CONTINUOUS
 62
     7
 10
86.6300437427
 20
282.1821331638
 30
0.0
 40
6.750000000000001
 50
228.1981564482
 51
311.8018435518
  0
ARC
  5
190
  8
STANDARD
  6
CONTINUOUS
 62
     7
 10
78.9572922243
 20
275.1317733382
 30
0.0
 40
1.499999999998045
 50
116.4103637386
 51
176.8018435518
  0
ARC
  5
191
  8
STANDARD
  6
CONTINUOUS
 62
     7
 10
71.1804034836
 20
267.3548845975
 30
0.0
 40
1.49999999999999
 50
93.1981564482
 51
153.5896362614
  0
ARC
  5
192
  8
STANDARD
  6
CONTINUOUS
 62
     7
 10
70.7201411061
 20
275.5920357157
 30
0.0
 40
6.750000000000001
 50
273.1981564482
 51
356.8018435518
  0
ARC
  5
193
  8
STANDARD
  6
CONTINUOUS
 62
     7
 10
70.2800437195
 20
265.1812238442
 30
0.0
 40
1.499999999998045
 50
161.4103637386
 51
221.8018435518
  0
ARC
  5
194
  8
STANDARD
  6
CONTINUOUS
 62
     7
 10
70.2800437195
 20
254.183042314
 30
0.0
 40
1.49999999999999
 50
138.1981564482
 51
198.5896362614
  0
ARC
  5
195
  8
STANDARD
  6
CONTINUOUS
 62
     7
 10
64.130043658
 20
259.6821330791
 30
0.0
 40
6.750000000000001
 50
318.1981564482
 51
41.8018435518
  0
ARC
  5
196
  8
STANDARD
  6
CONTINUOUS
 62
     7
 10
71.1804034836
 20
252.0093815606
 30
0.0
 40
1.499999999998045
 50
206.4103637386
 51
266.8018435518
  0
ARC
  5
197
  8
STANDARD
  6
CONTINUOUS
 62
     7
 10
78.9572922243
 20
244.2324928199
 30
0.0
 40
1.49999999999999
 50
183.1981564482
 51
243.5896362614
  0
ARC
  5
198
  8
STANDARD
  6
CONTINUOUS
 62
     7
 10
70.7201411061
 20
243.7722304425
 30
0.0
 40
6.750000000000001
 50
3.1981564482
 51
86.8018435518
  0
ARC
  5
199
  8
STANDARD
  6
CONTINUOUS
 62
     7
 10
81.1309529776
 20
243.3321330559
 30
0.0
 40
1.499999999998045
 50
251.4103637386
 51
311.8018435518
  0
ARC
  5
19A
  8
STANDARD
  6
CONTINUOUS
 62
     7
 10
92.1291345078
 20
243.3321330559
 30
0.0
 40
1.49999999999999
 50
228.1981564482
 51
288.5896362614
  0
ARC
  5
19B
  8
STANDARD
  6
CONTINUOUS
 62
     7
 10
86.6300437427
 20
237.1821329943
 30
0.0
 40
6.750000000000001
 50
48.1981564482
 51
131.8018435518
  0
ARC
  5
19C
  8
STANDARD
  6
CONTINUOUS
 62
     7
 10
94.3027952611
 20
244.2324928199
 30
0.0
 40
1.499999999998045
 50
296.4103637386
 51
356.8018435518
  0
ARC
  5
19D
  8
STANDARD
  6
CONTINUOUS
 62
     7
 10
102.0796840018
 20
252.0093815606
 30
0.0
 40
1.49999999999999
 50
273.1981564482
 51
333.5896362614
  0
ARC
  5
19E
  8
STANDARD
  6
CONTINUOUS
 62
     7
 10
102.5399463793
 20
243.7722304425
 30
0.0
 40
6.750000000000001
 50
93.1981564482
 51
176.8018435518
  0
CIRCLE
  5
19F
  8
STANDARD
  6
CONTINUOUS
 62
     7
 10
86.6300437427
 20
259.6821330791
 30
0.0
 40
2.0
  0
ENDBLK
  5
1A1
  8
0
  0
BLOCK
  8
0
  2
SE22
 70
     0
 10
0.0
 20
0.0
 30
0.0
  3
SE22
  1

  0
INSERT
  5
174
  8
STANDARD
  2
SE23
 10
0.0
 20
0.0
 30
0.0
  0
ENDBLK
  5
17E
  8
0
  0
BLOCK
  8
0
  2
SE23
 70
     0
 10
0.0
 20
0.0
 30
0.0
  3
SE23
  1

  0
LINE
  5
175
  8
STANDARD
  6
CONTINUOUS
 62
     7
 10
88.6219021714
 20
256.2321330791
 30
0.0
 11
90.6137606001
 21
259.6821330791
 31
0.0
  0
LINE
  5
176
  8
STANDARD
  6
CONTINUOUS
 62
     7
 10
90.6137606001
 20
259.6821330791
 30
0.0
 11
88.6219021714
 21
263.1321330791
 31
0.0
  0
LINE
  5
177
  8
STANDARD
  6
CONTINUOUS
 62
     7
 10
88.6219021714
 20
263.1321330791
 30
0.0
 11
84.638185314
 21
263.1321330791
 31
0.0
  0
LINE
  5
178
  8
STANDARD
  6
CONTINUOUS
 62
     7
 10
84.638185314
 20
263.1321330791
 30
0.0
 11
82.6463268853
 21
259.6821330791
 31
0.0
  0
LINE
  5
179
  8
STANDARD
  6
CONTINUOUS
 62
     7
 10
82.6463268853
 20
259.6821330791
 30
0.0
 11
84.638185314
 21
256.2321330791
 31
0.0
  0
LINE
  5
17A
  8
STANDARD
  6
CONTINUOUS
 62
     7
 10
84.638185314
 20
256.2321330791
 30
0.0
 11
88.6219021714
 21
256.2321330791
 31
0.0
  0
ENDBLK
  5
17C
  8
0
  0
BLOCK
  8
0
  2
SE24
 70
     0
 10
0.0
 20
0.0
 30
0.0
  3
SE24
  1

  0
INSERT
  5
1A7
  8
STANDARD
  2
SE25
 10
0.0
 20
0.0
 30
0.0
  0
ENDBLK
  5
1DA
  8
0
  0
BLOCK
  8
0
  2
SE25
 70
     0
 10
0.0
 20
0.0
 30
0.0
  3
SE25
  1

  0
INSERT
  5
1A9
  8
0
  2
SE26
 10
0.0
 20
0.0
 30
0.0
  0
ARC
  5
1B6
  8
STANDARD
  6
CONTINUOUS
 62
     7
 10
86.1127284977
 20
300.7224758507
 30
0.0
 40
18.75
 50
311.0896362614
 51
318.9103637386
  0
ARC
  5
1B7
  8
STANDARD
  6
CONTINUOUS
 62
     7
 10
86.1127284977
 20
300.7224758507
 30
0.0
 40
18.75
 50
41.0896362614
 51
48.9103637386
  0
ARC
  5
1B8
  8
STANDARD
  6
CONTINUOUS
 62
     7
 10
86.1127284977
 20
300.7224758507
 30
0.0
 40
18.75
 50
86.0896362614
 51
93.9103637386
  0
ARC
  5
1B9
  8
STANDARD
  6
CONTINUOUS
 62
     7
 10
86.1127284977
 20
300.7224758507
 30
0.0
 40
18.75
 50
131.0896362614
 51
138.9103637386
  0
ARC
  5
1BA
  8
STANDARD
  6
CONTINUOUS
 62
     7
 10
86.1127284977
 20
300.7224758507
 30
0.0
 40
18.75
 50
176.0896362614
 51
183.9103637386
  0
ARC
  5
1BB
  8
STANDARD
  6
CONTINUOUS
 62
     7
 10
86.1127284977
 20
300.7224758507
 30
0.0
 40
18.75
 50
221.0896362614
 51
228.9103637386
  0
ARC
  5
1BC
  8
STANDARD
  6
CONTINUOUS
 62
     7
 10
86.1127284977
 20
300.7224758507
 30
0.0
 40
18.75
 50
266.0896362614
 51
273.9103637386
  0
ARC
  5
1BD
  8
STANDARD
  6
CONTINUOUS
 62
     7
 10
86.1127284977
 20
300.7224758507
 30
0.0
 40
18.75
 50
356.0896362614
 51
3.9103637386
  0
ARC
  5
1BE
  8
STANDARD
  6
CONTINUOUS
 62
     7
 10
103.3225698045
 20
301.8988525734
 30
0.0
 40
1.499999999998045
 50
3.9103637386
 51
64.3018435518
  0
ARC
  5
1BF
  8
STANDARD
  6
CONTINUOUS
 62
     7
 10
99.1137479468
 20
312.059847384
 30
0.0
 40
1.49999999999999
 50
340.6981564482
 51
41.0896362614
  0
ARC
  5
1C0
  8
STANDARD
  6
CONTINUOUS
 62
     7
 10
106.9000180575
 20
309.3328531113
 30
0.0
 40
6.750000000000001
 50
160.6981564482
 51
244.3018435518
  0
ARC
  5
1C1
  8
STANDARD
  6
CONTINUOUS
 62
     7
 10
97.450100031
 20
313.7234952997
 30
0.0
 40
1.499999999998045
 50
48.9103637386
 51
109.3018435518
  0
ARC
  5
1C2
  8
STANDARD
  6
CONTINUOUS
 62
     7
 10
87.2891052204
 20
317.9323171575
 30
0.0
 40
1.49999999999999
 50
25.6981564482
 51
86.0896362614
  0
ARC
  5
1C3
  8
STANDARD
  6
CONTINUOUS
 62
     7
 10
94.7231057583
 20
321.5097654104
 30
0.0
 40
6.750000000000001
 50
205.6981564482
 51
289.3018435518
  0
ARC
  5
1C4
  8
STANDARD
  6
CONTINUOUS
 62
     7
 10
84.936351775
 20
317.9323171575
 30
0.0
 40
1.499999999998045
 50
93.9103637386
 51
154.3018435518
  0
ARC
  5
1C5
  8
STANDARD
  6
CONTINUOUS
 62
     7
 10
74.7753569644
 20
313.7234952997
 30
0.0
 40
1.49999999999999
 50
70.6981564482
 51
131.0896362614
  0
ARC
  5
1C6
  8
STANDARD
  6
CONTINUOUS
 62
     7
 10
77.5023512371
 20
321.5097654104
 30
0.0
 40
6.750000000000001
 50
250.6981564482
 51
334.3018435518
  0
ARC
  5
1C7
  8
STANDARD
  6
CONTINUOUS
 62
     7
 10
73.1117090486
 20
312.059847384
 30
0.0
 40
1.499999999998045
 50
138.9103637386
 51
199.3018435518
  0
ARC
  5
1C8
  8
STANDARD
  6
CONTINUOUS
 62
     7
 10
68.9028871909
 20
301.8988525734
 30
0.0
 40
1.49999999999999
 50
115.6981564482
 51
176.0896362614
  0
ARC
  5
1C9
  8
STANDARD
  6
CONTINUOUS
 62
     7
 10
65.3254389379
 20
309.3328531113
 30
0.0
 40
6.750000000000001
 50
295.6981564482
 51
19.3018435518
  0
ARC
  5
1CA
  8
STANDARD
  6
CONTINUOUS
 62
     7
 10
68.9028871909
 20
299.5460991279
 30
0.0
 40
1.499999999998045
 50
183.9103637386
 51
244.3018435518
  0
ARC
  5
1CB
  8
STANDARD
  6
CONTINUOUS
 62
     7
 10
73.1117090486
 20
289.3851043173
 30
0.0
 40
1.49999999999999
 50
160.6981564482
 51
221.0896362614
  0
ARC
  5
1CC
  8
STANDARD
  6
CONTINUOUS
 62
     7
 10
65.3254389379
 20
292.11209859
 30
0.0
 40
6.750000000000001
 50
340.6981564482
 51
64.3018435518
  0
ARC
  5
1CD
  8
STANDARD
  6
CONTINUOUS
 62
     7
 10
74.7753569644
 20
287.7214564016
 30
0.0
 40
1.499999999998045
 50
228.9103637386
 51
289.3018435518
  0
ARC
  5
1CE
  8
STANDARD
  6
CONTINUOUS
 62
     7
 10
84.936351775
 20
283.5126345438
 30
0.0
 40
1.49999999999999
 50
205.6981564482
 51
266.0896362614
  0
ARC
  5
1CF
  8
STANDARD
  6
CONTINUOUS
 62
     7
 10
77.5023512371
 20
279.9351862909
 30
0.0
 40
6.750000000000001
 50
25.6981564482
 51
109.3018435518
  0
ARC
  5
1D0
  8
STANDARD
  6
CONTINUOUS
 62
     7
 10
87.2891052204
 20
283.5126345438
 30
0.0
 40
1.499999999998045
 50
273.9103637386
 51
334.3018435518
  0
ARC
  5
1D1
  8
STANDARD
  6
CONTINUOUS
 62
     7
 10
97.450100031
 20
287.7214564016
 30
0.0
 40
1.49999999999999
 50
250.6981564482
 51
311.0896362614
  0
ARC
  5
1D2
  8
STANDARD
  6
CONTINUOUS
 62
     7
 10
94.7231057583
 20
279.9351862909
 30
0.0
 40
6.750000000000001
 50
70.6981564482
 51
154.3018435518
  0
ARC
  5
1D3
  8
STANDARD
  6
CONTINUOUS
 62
     7
 10
99.1137479468
 20
289.3851043173
 30
0.0
 40
1.499999999998045
 50
318.9103637386
 51
19.3018435518
  0
ARC
  5
1D4
  8
STANDARD
  6
CONTINUOUS
 62
     7
 10
103.3225698045
 20
299.5460991279
 30
0.0
 40
1.49999999999999
 50
295.6981564482
 51
356.0896362614
  0
ARC
  5
1D5
  8
STANDARD
  6
CONTINUOUS
 62
     7
 10
106.9000180575
 20
292.11209859
 30
0.0
 40
6.750000000000001
 50
115.6981564482
 51
199.3018435518
  0
CIRCLE
  5
1D6
  8
STANDARD
  6
CONTINUOUS
 62
     7
 10
86.1127284977
 20
300.7224758507
 30
0.0
 40
2.0
  0
ENDBLK
  5
1D8
  8
0
  0
BLOCK
  8
0
  2
SE26
 70
     0
 10
0.0
 20
0.0
 30
0.0
  3
SE26
  1

  0
INSERT
  5
1AB
  8
STANDARD
  2
SE27
 10
0.0
 20
0.0
 30
0.0
  0
ENDBLK
  5
1B5
  8
0
  0
BLOCK
  8
0
  2
SE27
 70
     0
 10
0.0
 20
0.0
 30
0.0
  3
SE27
  1

  0
LINE
  5
1AC
  8
STANDARD
  6
CONTINUOUS
 62
     7
 10
89.2732235733
 20
298.2973426838
 30
0.0
 11
89.7932029656
 21
302.2469782912
 31
0.0
  0
LINE
  5
1AD
  8
STANDARD
  6
CONTINUOUS
 62
     7
 10
89.7932029656
 20
302.2469782912
 30
0.0
 11
86.63270789
 21
304.6721114581
 31
0.0
  0
LINE
  5
1AE
  8
STANDARD
  6
CONTINUOUS
 62
     7
 10
86.63270789
 20
304.6721114581
 30
0.0
 11
82.9522334221
 21
303.1476090176
 31
0.0
  0
LINE
  5
1AF
  8
STANDARD
  6
CONTINUOUS
 62
     7
 10
82.9522334221
 20
303.1476090176
 30
0.0
 11
82.4322540298
 21
299.1979734101
 31
0.0
  0
LINE
  5
1B0
  8
STANDARD
  6
CONTINUOUS
 62
     7
 10
82.4322540298
 20
299.1979734101
 30
0.0
 11
85.5927491054
 21
296.7728402432
 31
0.0
  0
LINE
  5
1B1
  8
STANDARD
  6
CONTINUOUS
 62
     7
 10
85.5927491054
 20
296.7728402432
 30
0.0
 11
89.2732235733
 21
298.2973426838
 31
0.0
  0
ENDBLK
  5
1B3
  8
0
  0
BLOCK
  8
0
  2
SE28
 70
     0
 10
0.0
 20
0.0
 30
0.0
  3
SE28
  1

  0
INSERT
  5
1DE
  8
STANDARD
  2
SE29
 10
0.0
 20
0.0
 30
0.0
  0
ENDBLK
  5
211
  8
0
  0
BLOCK
  8
0
  2
SE29
 70
     0
 10
0.0
 20
0.0
 30
0.0
  3
SE29
  1

  0
INSERT
  5
1E0
  8
0
  2
SE30
 10
0.0
 20
0.0
 30
0.0
  0
ARC
  5
1ED
  8
STANDARD
  6
CONTINUOUS
 62
     7
 10
127.6703865143
 20
301.0162035255
 30
0.0
 40
18.75
 50
288.5896362614
 51
296.4103637386
  0
ARC
  5
1EE
  8
STANDARD
  6
CONTINUOUS
 62
     7
 10
127.6703865143
 20
301.0162035255
 30
0.0
 40
18.75
 50
18.5896362614
 51
26.4103637386
  0
ARC
  5
1EF
  8
STANDARD
  6
CONTINUOUS
 62
     7
 10
127.6703865143
 20
301.0162035255
 30
0.0
 40
18.75
 50
63.5896362614
 51
71.4103637386
  0
ARC
  5
1F0
  8
STANDARD
  6
CONTINUOUS
 62
     7
 10
127.6703865143
 20
301.0162035255
 30
0.0
 40
18.75
 50
108.5896362614
 51
116.4103637386
  0
ARC
  5
1F1
  8
STANDARD
  6
CONTINUOUS
 62
     7
 10
127.6703865143
 20
301.0162035255
 30
0.0
 40
18.75
 50
153.5896362614
 51
161.4103637386
  0
ARC
  5
1F2
  8
STANDARD
  6
CONTINUOUS
 62
     7
 10
127.6703865143
 20
301.0162035255
 30
0.0
 40
18.75
 50
198.5896362614
 51
206.4103637386
  0
ARC
  5
1F3
  8
STANDARD
  6
CONTINUOUS
 62
     7
 10
127.6703865143
 20
301.0162035255
 30
0.0
 40
18.75
 50
243.5896362614
 51
251.4103637386
  0
ARC
  5
1F4
  8
STANDARD
  6
CONTINUOUS
 62
     7
 10
127.6703865143
 20
301.0162035255
 30
0.0
 40
18.75
 50
333.5896362614
 51
341.4103637386
  0
ARC
  5
1F5
  8
STANDARD
  6
CONTINUOUS
 62
     7
 10
144.0203865375
 20
295.5171127604
 30
0.0
 40
1.499999999998045
 50
341.4103637386
 51
41.8018435518
  0
ARC
  5
1F6
  8
STANDARD
  6
CONTINUOUS
 62
     7
 10
144.0203865375
 20
306.5152942906
 30
0.0
 40
1.49999999999999
 50
318.1981564482
 51
18.5896362614
  0
ARC
  5
1F7
  8
STANDARD
  6
CONTINUOUS
 62
     7
 10
150.170386599
 20
301.0162035255
 30
0.0
 40
6.750000000000001
 50
138.1981564482
 51
221.8018435518
  0
ARC
  5
1F8
  8
STANDARD
  6
CONTINUOUS
 62
     7
 10
143.1200267735
 20
308.6889550439
 30
0.0
 40
1.499999999998045
 50
26.4103637386
 51
86.8018435518
  0
ARC
  5
1F9
  8
STANDARD
  6
CONTINUOUS
 62
     7
 10
135.3431380327
 20
316.4658437846
 30
0.0
 40
1.49999999999999
 50
3.1981564482
 51
63.5896362614
  0
ARC
  5
1FA
  8
STANDARD
  6
CONTINUOUS
 62
     7
 10
143.5802891509
 20
316.9261061621
 30
0.0
 40
6.750000000000001
 50
183.1981564482
 51
266.8018435518
  0
ARC
  5
1FB
  8
STANDARD
  6
CONTINUOUS
 62
     7
 10
133.1694772794
 20
317.3662035486
 30
0.0
 40
1.499999999998045
 50
71.4103637386
 51
131.8018435518
  0
ARC
  5
1FC
  8
STANDARD
  6
CONTINUOUS
 62
     7
 10
122.1712957492
 20
317.3662035486
 30
0.0
 40
1.49999999999999
 50
48.1981564482
 51
108.5896362614
  0
ARC
  5
1FD
  8
STANDARD
  6
CONTINUOUS
 62
     7
 10
127.6703865143
 20
323.5162036102
 30
0.0
 40
6.750000000000001
 50
228.1981564482
 51
311.8018435518
  0
ARC
  5
1FE
  8
STANDARD
  6
CONTINUOUS
 62
     7
 10
119.9976349959
 20
316.4658437846
 30
0.0
 40
1.499999999998045
 50
116.4103637386
 51
176.8018435518
  0
ARC
  5
1FF
  8
STANDARD
  6
CONTINUOUS
 62
     7
 10
112.2207462552
 20
308.6889550439
 30
0.0
 40
1.49999999999999
 50
93.1981564482
 51
153.5896362614
  0
ARC
  5
200
  8
STANDARD
  6
CONTINUOUS
 62
     7
 10
111.7604838777
 20
316.9261061621
 30
0.0
 40
6.750000000000001
 50
273.1981564482
 51
356.8018435518
  0
ARC
  5
201
  8
STANDARD
  6
CONTINUOUS
 62
     7
 10
111.3203864912
 20
306.5152942906
 30
0.0
 40
1.499999999998045
 50
161.4103637386
 51
221.8018435518
  0
ARC
  5
202
  8
STANDARD
  6
CONTINUOUS
 62
     7
 10
111.3203864912
 20
295.5171127604
 30
0.0
 40
1.49999999999999
 50
138.1981564482
 51
198.5896362614
  0
ARC
  5
203
  8
STANDARD
  6
CONTINUOUS
 62
     7
 10
105.1703864296
 20
301.0162035255
 30
0.0
 40
6.750000000000001
 50
318.1981564482
 51
41.8018435518
  0
ARC
  5
204
  8
STANDARD
  6
CONTINUOUS
 62
     7
 10
112.2207462552
 20
293.3434520071
 30
0.0
 40
1.499999999998045
 50
206.4103637386
 51
266.8018435518
  0
ARC
  5
205
  8
STANDARD
  6
CONTINUOUS
 62
     7
 10
119.9976349959
 20
285.5665632663
 30
0.0
 40
1.49999999999999
 50
183.1981564482
 51
243.5896362614
  0
ARC
  5
206
  8
STANDARD
  6
CONTINUOUS
 62
     7
 10
111.7604838777
 20
285.1063008889
 30
0.0
 40
6.750000000000001
 50
3.1981564482
 51
86.8018435518
  0
ARC
  5
207
  8
STANDARD
  6
CONTINUOUS
 62
     7
 10
122.1712957492
 20
284.6662035023
 30
0.0
 40
1.499999999998045
 50
251.4103637386
 51
311.8018435518
  0
ARC
  5
208
  8
STANDARD
  6
CONTINUOUS
 62
     7
 10
133.1694772794
 20
284.6662035023
 30
0.0
 40
1.49999999999999
 50
228.1981564482
 51
288.5896362614
  0
ARC
  5
209
  8
STANDARD
  6
CONTINUOUS
 62
     7
 10
127.6703865143
 20
278.5162034408
 30
0.0
 40
6.750000000000001
 50
48.1981564482
 51
131.8018435518
  0
ARC
  5
20A
  8
STANDARD
  6
CONTINUOUS
 62
     7
 10
135.3431380327
 20
285.5665632663
 30
0.0
 40
1.499999999998045
 50
296.4103637386
 51
356.8018435518
  0
ARC
  5
20B
  8
STANDARD
  6
CONTINUOUS
 62
     7
 10
143.1200267735
 20
293.3434520071
 30
0.0
 40
1.49999999999999
 50
273.1981564482
 51
333.5896362614
  0
ARC
  5
20C
  8
STANDARD
  6
CONTINUOUS
 62
     7
 10
143.5802891509
 20
285.1063008889
 30
0.0
 40
6.750000000000001
 50
93.1981564482
 51
176.8018435518
  0
CIRCLE
  5
20D
  8
STANDARD
  6
CONTINUOUS
 62
     7
 10
127.6703865143
 20
301.0162035255
 30
0.0
 40
2.0
  0
ENDBLK
  5
20F
  8
0
  0
BLOCK
  8
0
  2
SE30
 70
     0
 10
0.0
 20
0.0
 30
0.0
  3
SE30
  1

  0
INSERT
  5
1E2
  8
STANDARD
  2
SE31
 10
0.0
 20
0.0
 30
0.0
  0
ENDBLK
  5
1EC
  8
0
  0
BLOCK
  8
0
  2
SE31
 70
     0
 10
0.0
 20
0.0
 30
0.0
  3
SE31
  1

  0
LINE
  5
1E3
  8
STANDARD
  6
CONTINUOUS
 62
     7
 10
129.662244943
 20
297.5662035255
 30
0.0
 11
131.6541033717
 21
301.0162035255
 31
0.0
  0
LINE
  5
1E4
  8
STANDARD
  6
CONTINUOUS
 62
     7
 10
131.6541033717
 20
301.0162035255
 30
0.0
 11
129.662244943
 21
304.4662035255
 31
0.0
  0
LINE
  5
1E5
  8
STANDARD
  6
CONTINUOUS
 62
     7
 10
129.662244943
 20
304.4662035255
 30
0.0
 11
125.6785280856
 21
304.4662035255
 31
0.0
  0
LINE
  5
1E6
  8
STANDARD
  6
CONTINUOUS
 62
     7
 10
125.6785280856
 20
304.4662035255
 30
0.0
 11
123.6866696569
 21
301.0162035255
 31
0.0
  0
LINE
  5
1E7
  8
STANDARD
  6
CONTINUOUS
 62
     7
 10
123.6866696569
 20
301.0162035255
 30
0.0
 11
125.6785280856
 21
297.5662035255
 31
0.0
  0
LINE
  5
1E8
  8
STANDARD
  6
CONTINUOUS
 62
     7
 10
125.6785280856
 20
297.5662035255
 30
0.0
 11
129.662244943
 21
297.5662035255
 31
0.0
  0
ENDBLK
  5
1EA
  8
0
  0
BLOCK
  8
0
  2
SE32
 70
     0
 10
0.0
 20
0.0
 30
0.0
  3
SE32
  1

  0
INSERT
  5
215
  8
STANDARD
  2
SE33
 10
0.0
 20
0.0
 30
0.0
  0
ENDBLK
  5
248
  8
0
  0
BLOCK
  8
0
  2
SE33
 70
     0
 10
0.0
 20
0.0
 30
0.0
  3
SE33
  1

  0
INSERT
  5
217
  8
0
  2
SE34
 10
0.0
 20
0.0
 30
0.0
  0
ARC
  5
224
  8
STANDARD
  6
CONTINUOUS
 62
     7
 10
127.6703865143
 20
259.253774891
 30
0.0
 40
18.75
 50
311.0896362614
 51
318.9103637386
  0
ARC
  5
225
  8
STANDARD
  6
CONTINUOUS
 62
     7
 10
127.6703865143
 20
259.253774891
 30
0.0
 40
18.75
 50
41.0896362614
 51
48.9103637386
  0
ARC
  5
226
  8
STANDARD
  6
CONTINUOUS
 62
     7
 10
127.6703865143
 20
259.253774891
 30
0.0
 40
18.75
 50
86.0896362614
 51
93.9103637386
  0
ARC
  5
227
  8
STANDARD
  6
CONTINUOUS
 62
     7
 10
127.6703865143
 20
259.253774891
 30
0.0
 40
18.75
 50
131.0896362614
 51
138.9103637386
  0
ARC
  5
228
  8
STANDARD
  6
CONTINUOUS
 62
     7
 10
127.6703865143
 20
259.253774891
 30
0.0
 40
18.75
 50
176.0896362614
 51
183.9103637386
  0
ARC
  5
229
  8
STANDARD
  6
CONTINUOUS
 62
     7
 10
127.6703865143
 20
259.253774891
 30
0.0
 40
18.75
 50
221.0896362614
 51
228.9103637386
  0
ARC
  5
22A
  8
STANDARD
  6
CONTINUOUS
 62
     7
 10
127.6703865143
 20
259.253774891
 30
0.0
 40
18.75
 50
266.0896362614
 51
273.9103637386
  0
ARC
  5
22B
  8
STANDARD
  6
CONTINUOUS
 62
     7
 10
127.6703865143
 20
259.253774891
 30
0.0
 40
18.75
 50
356.0896362614
 51
3.9103637386
  0
ARC
  5
22C
  8
STANDARD
  6
CONTINUOUS
 62
     7
 10
144.8802278211
 20
260.4301516138
 30
0.0
 40
1.499999999998045
 50
3.9103637386
 51
64.3018435518
  0
ARC
  5
22D
  8
STANDARD
  6
CONTINUOUS
 62
     7
 10
140.6714059634
 20
270.5911464244
 30
0.0
 40
1.49999999999999
 50
340.6981564482
 51
41.0896362614
  0
ARC
  5
22E
  8
STANDARD
  6
CONTINUOUS
 62
     7
 10
148.4576760741
 20
267.8641521517
 30
0.0
 40
6.750000000000001
 50
160.6981564482
 51
244.3018435518
  0
ARC
  5
22F
  8
STANDARD
  6
CONTINUOUS
 62
     7
 10
139.0077580476
 20
272.2547943401
 30
0.0
 40
1.499999999998045
 50
48.9103637386
 51
109.3018435518
  0
ARC
  5
230
  8
STANDARD
  6
CONTINUOUS
 62
     7
 10
128.846763237
 20
276.4636161979
 30
0.0
 40
1.49999999999999
 50
25.6981564482
 51
86.0896362614
  0
ARC
  5
231
  8
STANDARD
  6
CONTINUOUS
 62
     7
 10
136.2807637749
 20
280.0410644508
 30
0.0
 40
6.750000000000001
 50
205.6981564482
 51
289.3018435518
  0
ARC
  5
232
  8
STANDARD
  6
CONTINUOUS
 62
     7
 10
126.4940097916
 20
276.4636161979
 30
0.0
 40
1.499999999998045
 50
93.9103637386
 51
154.3018435518
  0
ARC
  5
233
  8
STANDARD
  6
CONTINUOUS
 62
     7
 10
116.333014981
 20
272.2547943401
 30
0.0
 40
1.49999999999999
 50
70.6981564482
 51
131.0896362614
  0
ARC
  5
234
  8
STANDARD
  6
CONTINUOUS
 62
     7
 10
119.0600092537
 20
280.0410644508
 30
0.0
 40
6.750000000000001
 50
250.6981564482
 51
334.3018435518
  0
ARC
  5
235
  8
STANDARD
  6
CONTINUOUS
 62
     7
 10
114.6693670652
 20
270.5911464244
 30
0.0
 40
1.499999999998045
 50
138.9103637386
 51
199.3018435518
  0
ARC
  5
236
  8
STANDARD
  6
CONTINUOUS
 62
     7
 10
110.4605452075
 20
260.4301516138
 30
0.0
 40
1.49999999999999
 50
115.6981564482
 51
176.0896362614
  0
ARC
  5
237
  8
STANDARD
  6
CONTINUOUS
 62
     7
 10
106.8830969545
 20
267.8641521517
 30
0.0
 40
6.750000000000001
 50
295.6981564482
 51
19.3018435518
  0
ARC
  5
238
  8
STANDARD
  6
CONTINUOUS
 62
     7
 10
110.4605452075
 20
258.0773981683
 30
0.0
 40
1.499999999998045
 50
183.9103637386
 51
244.3018435518
  0
ARC
  5
239
  8
STANDARD
  6
CONTINUOUS
 62
     7
 10
114.6693670652
 20
247.9164033577
 30
0.0
 40
1.49999999999999
 50
160.6981564482
 51
221.0896362614
  0
ARC
  5
23A
  8
STANDARD
  6
CONTINUOUS
 62
     7
 10
106.8830969545
 20
250.6433976304
 30
0.0
 40
6.750000000000001
 50
340.6981564482
 51
64.3018435518
  0
ARC
  5
23B
  8
STANDARD
  6
CONTINUOUS
 62
     7
 10
116.333014981
 20
246.252755442
 30
0.0
 40
1.499999999998045
 50
228.9103637386
 51
289.3018435518
  0
ARC
  5
23C
  8
STANDARD
  6
CONTINUOUS
 62
     7
 10
126.4940097916
 20
242.0439335842
 30
0.0
 40
1.49999999999999
 50
205.6981564482
 51
266.0896362614
  0
ARC
  5
23D
  8
STANDARD
  6
CONTINUOUS
 62
     7
 10
119.0600092537
 20
238.4664853313
 30
0.0
 40
6.750000000000001
 50
25.6981564482
 51
109.3018435518
  0
ARC
  5
23E
  8
STANDARD
  6
CONTINUOUS
 62
     7
 10
128.846763237
 20
242.0439335842
 30
0.0
 40
1.499999999998045
 50
273.9103637386
 51
334.3018435518
  0
ARC
  5
23F
  8
STANDARD
  6
CONTINUOUS
 62
     7
 10
139.0077580476
 20
246.252755442
 30
0.0
 40
1.49999999999999
 50
250.6981564482
 51
311.0896362614
  0
ARC
  5
240
  8
STANDARD
  6
CONTINUOUS
 62
     7
 10
136.2807637749
 20
238.4664853313
 30
0.0
 40
6.750000000000001
 50
70.6981564482
 51
154.3018435518
  0
ARC
  5
241
  8
STANDARD
  6
CONTINUOUS
 62
     7
 10
140.6714059634
 20
247.9164033577
 30
0.0
 40
1.499999999998045
 50
318.9103637386
 51
19.3018435518
  0
ARC
  5
242
  8
STANDARD
  6
CONTINUOUS
 62
     7
 10
144.8802278211
 20
258.0773981683
 30
0.0
 40
1.49999999999999
 50
295.6981564482
 51
356.0896362614
  0
ARC
  5
243
  8
STANDARD
  6
CONTINUOUS
 62
     7
 10
148.4576760741
 20
250.6433976304
 30
0.0
 40
6.750000000000001
 50
115.6981564482
 51
199.3018435518
  0
CIRCLE
  5
244
  8
STANDARD
  6
CONTINUOUS
 62
     7
 10
127.6703865143
 20
259.253774891
 30
0.0
 40
2.0
  0
ENDBLK
  5
246
  8
0
  0
BLOCK
  8
0
  2
SE34
 70
     0
 10
0.0
 20
0.0
 30
0.0
  3
SE34
  1

  0
INSERT
  5
219
  8
STANDARD
  2
SE35
 10
0.0
 20
0.0
 30
0.0
  0
ENDBLK
  5
223
  8
0
  0
BLOCK
  8
0
  2
SE35
 70
     0
 10
0.0
 20
0.0
 30
0.0
  3
SE35
  1

  0
LINE
  5
21A
  8
STANDARD
  6
CONTINUOUS
 62
     7
 10
130.8308815899
 20
256.8286417242
 30
0.0
 11
131.3508609822
 21
260.7782773316
 31
0.0
  0
LINE
  5
21B
  8
STANDARD
  6
CONTINUOUS
 62
     7
 10
131.3508609822
 20
260.7782773316
 30
0.0
 11
128.1903659066
 21
263.2034104985
 31
0.0
  0
LINE
  5
21C
  8
STANDARD
  6
CONTINUOUS
 62
     7
 10
128.1903659066
 20
263.2034104985
 30
0.0
 11
124.5098914387
 21
261.6789080579
 31
0.0
  0
LINE
  5
21D
  8
STANDARD
  6
CONTINUOUS
 62
     7
 10
124.5098914387
 20
261.6789080579
 30
0.0
 11
123.9899120464
 21
257.7292724505
 31
0.0
  0
LINE
  5
21E
  8
STANDARD
  6
CONTINUOUS
 62
     7
 10
123.9899120464
 20
257.7292724505
 30
0.0
 11
127.150407122
 21
255.3041392836
 31
0.0
  0
LINE
  5
21F
  8
STANDARD
  6
CONTINUOUS
 62
     7
 10
127.150407122
 20
255.3041392836
 30
0.0
 11
130.8308815899
 21
256.8286417242
 31
0.0
  0
ENDBLK
  5
221
  8
0
  0
BLOCK
  8
0
  2
SE36
 70
     0
 10
0.0
 20
0.0
 30
0.0
  3
SE36
  1

  0
INSERT
  5
24C
  8
STANDARD
  2
SE37
 10
0.0
 20
0.0
 30
0.0
  0
ENDBLK
  5
263
  8
0
  0
BLOCK
  8
0
  2
SE37
 70
     0
 10
0.0
 20
0.0
 30
0.0
  3
SE37
  1

  0
CIRCLE
  5
24D
  8
STANDARD
  6
CONTINUOUS
 62
     7
 10
225.8811521851
 20
196.392539042
 30
0.0
 40
1.5
  0
CIRCLE
  5
24E
  8
STANDARD
  6
CONTINUOUS
 62
     7
 10
225.8811521851
 20
247.3925387463
 30
0.0
 40
1.5
  0
LINE
  5
24F
  8
STANDARD
  6
CONTINUOUS
 62
     7
 10
222.6311521851
 20
218.6425388942
 30
0.0
 11
215.8811521851
 21
218.6425388942
 31
0.0
  0
LINE
  5
250
  8
STANDARD
  6
CONTINUOUS
 62
     7
 10
235.8811521851
 20
218.6425388942
 30
0.0
 11
229.1311521851
 21
218.6425388942
 31
0.0
  0
LINE
  5
251
  8
STANDARD
  6
CONTINUOUS
 62
     7
 10
235.8811521851
 20
212.1425388942
 30
0.0
 11
229.1311521851
 21
212.1425388942
 31
0.0
  0
LINE
  5
252
  8
STANDARD
  6
CONTINUOUS
 62
     7
 10
229.1311521851
 20
212.1425388942
 30
0.0
 11
229.1311521851
 21
218.6425388942
 31
0.0
  0
LINE
  5
253
  8
STANDARD
  6
CONTINUOUS
 62
     7
 10
222.6311521851
 20
218.6425388942
 30
0.0
 11
222.6311521851
 21
212.1425388942
 31
0.0
  0
LINE
  5
254
  8
STANDARD
  6
CONTINUOUS
 62
     7
 10
215.8811521851
 20
212.1425388942
 30
0.0
 11
215.8811521851
 21
218.6425388942
 31
0.0
  0
LINE
  5
255
  8
STANDARD
  6
CONTINUOUS
 62
     7
 10
222.6311521851
 20
212.1425388942
 30
0.0
 11
215.8811521851
 21
212.1425388942
 31
0.0
  0
LINE
  5
256
  8
STANDARD
  6
CONTINUOUS
 62
     7
 10
235.8811521851
 20
218.6425388942
 30
0.0
 11
235.8811521851
 21
212.1425388942
 31
0.0
  0
LINE
  5
257
  8
STANDARD
  6
CONTINUOUS
 62
     7
 10
235.8811521851
 20
225.1425388942
 30
0.0
 11
229.1311521851
 21
225.1425388942
 31
0.0
  0
LINE
  5
258
  8
STANDARD
  6
CONTINUOUS
 62
     7
 10
229.1311521851
 20
231.6425388942
 30
0.0
 11
235.8811521851
 21
231.6425388942
 31
0.0
  0
LINE
  5
259
  8
STANDARD
  6
CONTINUOUS
 62
     7
 10
229.1311521851
 20
225.1425388942
 30
0.0
 11
229.1311521851
 21
231.6425388942
 31
0.0
  0
LINE
  5
25A
  8
STANDARD
  6
CONTINUOUS
 62
     7
 10
222.6311521851
 20
231.6425388942
 30
0.0
 11
222.6311521851
 21
225.1425388942
 31
0.0
  0
LINE
  5
25B
  8
STANDARD
  6
CONTINUOUS
 62
     7
 10
215.8811521851
 20
231.6425388942
 30
0.0
 11
222.6311521851
 21
231.6425388942
 31
0.0
  0
LINE
  5
25C
  8
STANDARD
  6
CONTINUOUS
 62
     7
 10
215.8811521851
 20
225.1425388942
 30
0.0
 11
215.8811521851
 21
231.6425388942
 31
0.0
  0
LINE
  5
25D
  8
STANDARD
  6
CONTINUOUS
 62
     7
 10
222.6311521851
 20
225.1425388942
 30
0.0
 11
215.8811521851
 21
225.1425388942
 31
0.0
  0
LINE
  5
25E
  8
STANDARD
  6
CONTINUOUS
 62
     7
 10
235.8811521851
 20
231.6425388942
 30
0.0
 11
235.8811521851
 21
225.1425388942
 31
0.0
  0
CIRCLE
  5
25F
  8
STANDARD
  6
CONTINUOUS
 62
     7
 10
225.8811521851
 20
221.8925388942
 30
0.0
 40
29.0
  0
ENDBLK
  5
261
  8
0
  0
BLOCK
  8
0
  2
SE38
 70
     0
 10
0.0
 20
0.0
 30
0.0
  3
SE38
  1

  0
INSERT
  5
267
  8
STANDARD
  2
SE39
 10
0.0
 20
0.0
 30
0.0
  0
ENDBLK
  5
26F
  8
0
  0
BLOCK
  8
0
  2
SE39
 70
     0
 10
0.0
 20
0.0
 30
0.0
  3
SE39
  1

  0
CIRCLE
  5
268
  8
STANDARD
  6
CONTINUOUS
 62
     7
 10
226.4288668139
 20
52.8230521418
 30
0.0
 40
1.5
  0
CIRCLE
  5
269
  8
STANDARD
  6
CONTINUOUS
 62
     7
 10
226.4288668139
 20
103.8230518461
 30
0.0
 40
1.5
  0
CIRCLE
  5
26A
  8
STANDARD
  6
CONTINUOUS
 62
     7
 10
226.4288668139
 20
78.3230516982
 30
0.0
 40
29.0
  0
CIRCLE
  5
26B
  8
STANDARD
  6
CONTINUOUS
 62
     7
 10
226.4288668139
 20
78.3230519939
 30
0.0
 40
22.0
  0
ENDBLK
  5
26D
  8
0
  0
BLOCK
  8
0
  2
SE40
 70
     0
 10
0.0
 20
0.0
 30
0.0
  3
SE40
  1

  0
INSERT
  5
273
  8
STANDARD
  2
SE41
 10
0.0
 20
0.0
 30
0.0
  0
ENDBLK
  5
284
  8
0
  0
BLOCK
  8
0
  2
SE41
 70
     0
 10
0.0
 20
0.0
 30
0.0
  3
SE41
  1

  0
CIRCLE
  5
274
  8
STANDARD
  6
CONTINUOUS
 62
     7
 10
222.2107220682
 20
263.9706129696
 30
0.0
 40
1.5
  0
CIRCLE
  5
275
  8
STANDARD
  6
CONTINUOUS
 62
     7
 10
222.2107220682
 20
314.970612674
 30
0.0
 40
1.5
  0
ARC
  5
276
  8
STANDARD
  6
CONTINUOUS
 62
     7
 10
222.2107220682
 20
289.4706128218
 30
0.0
 40
18.0
 50
279.5940682269
 51
80.4059317731
  0
LINE
  5
277
  8
STANDARD
  6
CONTINUOUS
 62
     7
 10
219.2107220682
 20
308.9706128218
 30
0.0
 11
219.2107220682
 21
307.2188521711
 31
0.0
  0
LINE
  5
278
  8
STANDARD
  6
CONTINUOUS
 62
     7
 10
225.2107220682
 20
307.2188521711
 30
0.0
 11
225.2107220682
 21
308.9706128218
 31
0.0
  0
ARC
  5
279
  8
STANDARD
  6
CONTINUOUS
 62
     7
 10
222.2107220682
 20
289.4706128218
 30
0.0
 40
18.0
 50
99.5940682269
 51
260.4059317731
  0
LINE
  5
27A
  8
STANDARD
  6
CONTINUOUS
 62
     7
 10
236.0811482171
 20
277.9984169358
 30
0.0
 11
245.6907140618
 21
272.4503315086
 31
0.0
  0
LINE
  5
27B
  8
STANDARD
  6
CONTINUOUS
 62
     7
 10
248.6907140618
 20
277.6464839313
 30
0.0
 11
239.0811482171
 21
283.1945693585
 31
0.0
  0
LINE
  5
27C
  8
STANDARD
  6
CONTINUOUS
 62
     7
 10
225.2107220682
 20
308.9706128218
 30
0.0
 11
219.2107220682
 21
308.9706128218
 31
0.0
  0
LINE
  5
27D
  8
STANDARD
  6
CONTINUOUS
 62
     7
 10
225.2107220682
 20
269.9706128218
 30
0.0
 11
225.2107220682
 21
271.7223734725
 31
0.0
  0
LINE
  5
27E
  8
STANDARD
  6
CONTINUOUS
 62
     7
 10
219.2107220682
 20
269.9706128218
 30
0.0
 11
225.2107220682
 21
269.9706128218
 31
0.0
  0
LINE
  5
27F
  8
STANDARD
  6
CONTINUOUS
 62
     7
 10
219.2107220682
 20
271.7223734725
 30
0.0
 11
219.2107220682
 21
269.9706128218
 31
0.0
  0
CIRCLE
  5
280
  8
STANDARD
  6
CONTINUOUS
 62
     7
 10
222.2107220682
 20
289.4706128218
 30
0.0
 40
29.0
  0
ENDBLK
  5
282
  8
0
  0
BLOCK
  8
0
  2
SE42
 70
     0
 10
0.0
 20
0.0
 30
0.0
  3
SE42
  1

  0
INSERT
  5
288
  8
STANDARD
  2
SE43
 10
0.0
 20
0.0
 30
0.0
  0
ENDBLK
  5
2C2
  8
0
  0
BLOCK
  8
0
  2
SE43
 70
     0
 10
0.0
 20
0.0
 30
0.0
  3
SE43
  1

  0
LINE
  5
289
  8
STANDARD
  6
CONTINUOUS
 62
     7
 10
146.1244478041
 20
222.2604339817
 30
0.0
 11
148.6244478041
 21
222.2604339817
 31
0.0
  0
LINE
  5
28A
  8
STANDARD
  6
CONTINUOUS
 62
     7
 10
158.9744478041
 20
117.7604339679
 30
0.0
 11
158.9744478041
 21
113.7604339679
 31
0.0
  0
LINE
  5
28B
  8
STANDARD
  6
CONTINUOUS
 62
     7
 10
135.7744478041
 20
117.7604339679
 30
0.0
 11
135.7744478041
 21
113.7604339679
 31
0.0
  0
ARC
  5
28C
  8
STANDARD
  6
CONTINUOUS
 62
     7
 10
164.8744478041
 20
206.5314095283
 30
0.0
 40
1.0
 50
0.0
 51
90.0
  0
ARC
  5
28D
  8
STANDARD
  6
CONTINUOUS
 62
     7
 10
150.1244478041
 20
211.0314095283
 30
0.0
 40
1.5
 50
180.0
 51
270.0
  0
ARC
  5
28E
  8
STANDARD
  6
CONTINUOUS
 62
     7
 10
165.3744478041
 20
207.5314095283
 30
0.0
 40
2.0
 50
0.0
 51
90.0
  0
ARC
  5
28F
  8
STANDARD
  6
CONTINUOUS
 62
     7
 10
149.1244478041
 20
210.5314095283
 30
0.0
 40
3.0
 50
180.0
 51
270.0
  0
LINE
  5
290
  8
STANDARD
  6
CONTINUOUS
 62
     7
 10
165.8744478041
 20
206.5314095283
 30
0.0
 11
165.8744478041
 21
204.5604339679
 31
0.0
  0
LINE
  5
291
  8
STANDARD
  6
CONTINUOUS
 62
     7
 10
167.3744478041
 20
204.5604339679
 30
0.0
 11
167.3744478041
 21
207.5314095283
 31
0.0
  0
LINE
  5
292
  8
STANDARD
  6
CONTINUOUS
 62
     7
 10
165.3744478041
 20
209.5314095283
 30
0.0
 11
150.1244478041
 21
209.5314095283
 31
0.0
  0
LINE
  5
293
  8
STANDARD
  6
CONTINUOUS
 62
     7
 10
149.1244478041
 20
207.5314095283
 30
0.0
 11
164.8744478041
 21
207.5314095283
 31
0.0
  0
LINE
  5
294
  8
STANDARD
  6
CONTINUOUS
 62
     7
 10
146.1244478041
 20
210.5314095283
 30
0.0
 11
146.1244478041
 21
222.2604339817
 31
0.0
  0
LINE
  5
295
  8
STANDARD
  6
CONTINUOUS
 62
     7
 10
148.6244478041
 20
222.2604339817
 30
0.0
 11
148.6244478041
 21
211.0314095283
 31
0.0
  0
ARC
  5
296
  8
STANDARD
  6
CONTINUOUS
 62
     7
 10
130.3744478041
 20
201.5604339679
 30
0.0
 40
3.0
 50
90.0
 51
180.0
  0
ARC
  5
297
  8
STANDARD
  6
CONTINUOUS
 62
     7
 10
130.8744478041
 20
201.2604339679
 30
0.0
 40
2.0
 50
90.0
 51
180.0
  0
LINE
  5
298
  8
STANDARD
  6
CONTINUOUS
 62
     7
 10
143.8744478041
 20
203.2604339679
 30
0.0
 11
130.8744478041
 21
203.2604339679
 31
0.0
  0
LINE
  5
299
  8
STANDARD
  6
CONTINUOUS
 62
     7
 10
143.8744478041
 20
205.2104339679
 30
0.0
 11
143.8744478041
 21
203.9104339679
 31
0.0
  0
LINE
  5
29A
  8
STANDARD
  6
CONTINUOUS
 62
     7
 10
130.3744478041
 20
204.5604339679
 30
0.0
 11
143.8744478041
 21
204.5604339679
 31
0.0
  0
ARC
  5
29B
  8
STANDARD
  6
CONTINUOUS
 62
     7
 10
163.8744478041
 20
119.7604339679
 30
0.0
 40
2.0
 50
270.0
 51
0.0
  0
ARC
  5
29C
  8
STANDARD
  6
CONTINUOUS
 62
     7
 10
165.3744478041
 20
115.7604339679
 30
0.0
 40
2.0
 50
270.0
 51
0.0
  0
ARC
  5
29D
  8
STANDARD
  6
CONTINUOUS
 62
     7
 10
129.3744478041
 20
115.7604339679
 30
0.0
 40
2.0
 50
180.0
 51
270.0
  0
ARC
  5
29E
  8
STANDARD
  6
CONTINUOUS
 62
     7
 10
130.8744478041
 20
119.7604339679
 30
0.0
 40
2.0
 50
180.0
 51
270.0
  0
LINE
  5
29F
  8
STANDARD
  6
CONTINUOUS
 62
     7
 10
158.9744478041
 20
112.2604339679
 30
0.0
 11
158.9744478041
 21
113.7604339679
 31
0.0
  0
LINE
  5
2A0
  8
STANDARD
  6
CONTINUOUS
 62
     7
 10
158.9744478041
 20
113.7604339679
 30
0.0
 11
165.3744478041
 21
113.7604339679
 31
0.0
  0
LINE
  5
2A1
  8
STANDARD
  6
CONTINUOUS
 62
     7
 10
135.7744478041
 20
117.7604339679
 30
0.0
 11
130.8744478041
 21
117.7604339679
 31
0.0
  0
LINE
  5
2A2
  8
STANDARD
  6
CONTINUOUS
 62
     7
 10
135.7744478041
 20
119.2604339679
 30
0.0
 11
135.7744478041
 21
117.7604339679
 31
0.0
  0
LINE
  5
2A3
  8
STANDARD
  6
CONTINUOUS
 62
     7
 10
165.8744478041
 20
204.5604339679
 30
0.0
 11
165.8744478041
 21
119.7604339679
 31
0.0
  0
LINE
  5
2A4
  8
STANDARD
  6
CONTINUOUS
 62
     7
 10
167.3744478041
 20
115.7604339679
 30
0.0
 11
167.3744478041
 21
204.5604339679
 31
0.0
  0
LINE
  5
2A5
  8
STANDARD
  6
CONTINUOUS
 62
     7
 10
127.3744478041
 20
201.5604339679
 30
0.0
 11
127.3744478041
 21
115.7604339679
 31
0.0
  0
LINE
  5
2A6
  8
STANDARD
  6
CONTINUOUS
 62
     7
 10
128.8744478041
 20
119.7604339679
 30
0.0
 11
128.8744478041
 21
201.2604339679
 31
0.0
  0
LINE
  5
2A7
  8
STANDARD
  6
CONTINUOUS
 62
     7
 10
127.3744478041
 20
117.7604339679
 30
0.0
 11
127.3744478041
 21
115.7604339679
 31
0.0
  0
LINE
  5
2A8
  8
STANDARD
  6
CONTINUOUS
 62
     7
 10
163.8744478041
 20
117.7604339679
 30
0.0
 11
158.9744478041
 21
117.7604339679
 31
0.0
  0
LINE
  5
2A9
  8
STANDARD
  6
CONTINUOUS
 62
     7
 10
167.3744478041
 20
115.7604339679
 30
0.0
 11
167.3744478041
 21
117.7604339679
 31
0.0
  0
LINE
  5
2AA
  8
STANDARD
  6
CONTINUOUS
 62
     7
 10
129.3744478041
 20
113.7604339679
 30
0.0
 11
135.7744478041
 21
113.7604339679
 31
0.0
  0
LINE
  5
2AB
  8
STANDARD
  6
CONTINUOUS
 62
     7
 10
143.8744478041
 20
205.2104339679
 30
0.0
 11
143.8744478041
 21
202.6104339679
 31
0.0
  0
LINE
  5
2AC
  8
STANDARD
  6
CONTINUOUS
 62
     7
 10
150.8744478041
 20
205.2104339679
 30
0.0
 11
143.8744478041
 21
205.2104339679
 31
0.0
  0
LINE
  5
2AD
  8
STANDARD
  6
CONTINUOUS
 62
     7
 10
150.8744478041
 20
202.6104339679
 30
0.0
 11
150.8744478041
 21
205.2104339679
 31
0.0
  0
LINE
  5
2AE
  8
STANDARD
  6
CONTINUOUS
 62
     7
 10
143.8744478041
 20
202.6104339679
 30
0.0
 11
150.8744478041
 21
202.6104339679
 31
0.0
  0
LINE
  5
2AF
  8
STANDARD
  6
CONTINUOUS
 62
     7
 10
144.9744478041
 20
110.9104339679
 30
0.0
 11
144.9744478041
 21
112.2604339679
 31
0.0
  0
LINE
  5
2B0
  8
STANDARD
  6
CONTINUOUS
 62
     7
 10
135.7744478041
 20
112.2604339679
 30
0.0
 11
144.9744478041
 21
112.2604339679
 31
0.0
  0
LINE
  5
2B1
  8
STANDARD
  6
CONTINUOUS
 62
     7
 10
149.7744478041
 20
120.6104339679
 30
0.0
 11
149.7744478041
 21
119.2604339679
 31
0.0
  0
LINE
  5
2B2
  8
STANDARD
  6
CONTINUOUS
 62
     7
 10
158.9744478041
 20
119.2604339679
 30
0.0
 11
149.7744478041
 21
119.2604339679
 31
0.0
  0
LINE
  5
2B3
  8
STANDARD
  6
CONTINUOUS
 62
     7
 10
144.9744478041
 20
119.2604339679
 30
0.0
 11
144.9744478041
 21
120.6104339679
 31
0.0
  0
LINE
  5
2B4
  8
STANDARD
  6
CONTINUOUS
 62
     7
 10
149.7744478041
 20
110.9104339679
 30
0.0
 11
144.9744478041
 21
110.9104339679
 31
0.0
  0
LINE
  5
2B5
  8
STANDARD
  6
CONTINUOUS
 62
     7
 10
149.7744478041
 20
112.2604339679
 30
0.0
 11
149.7744478041
 21
110.9104339679
 31
0.0
  0
LINE
  5
2B6
  8
STANDARD
  6
CONTINUOUS
 62
     7
 10
144.9744478041
 20
120.6104339679
 30
0.0
 11
149.7744478041
 21
120.6104339679
 31
0.0
  0
LINE
  5
2B7
  8
STANDARD
  6
CONTINUOUS
 62
     7
 10
135.7744478041
 20
113.7604339679
 30
0.0
 11
135.7744478041
 21
112.2604339679
 31
0.0
  0
LINE
  5
2B8
  8
STANDARD
  6
CONTINUOUS
 62
     7
 10
144.9744478041
 20
119.2604339679
 30
0.0
 11
135.7744478041
 21
119.2604339679
 31
0.0
  0
LINE
  5
2B9
  8
STANDARD
  6
CONTINUOUS
 62
     7
 10
158.9744478041
 20
117.7604339679
 30
0.0
 11
158.9744478041
 21
119.2604339679
 31
0.0
  0
LINE
  5
2BA
  8
STANDARD
  6
CONTINUOUS
 62
     7
 10
149.7744478041
 20
112.2604339679
 30
0.0
 11
158.9744478041
 21
112.2604339679
 31
0.0
  0
CIRCLE
  5
2BB
  8
STANDARD
  6
CONTINUOUS
 62
     7
 10
106.3622544953
 20
191.7726272767
 30
0.0
 40
2.0
  0
CIRCLE
  5
2BC
  8
STANDARD
  6
CONTINUOUS
 62
     7
 10
147.3744478041
 20
150.7604339679
 30
0.0
 40
70.0
  0
CIRCLE
  5
2BD
  8
STANDARD
  6
CONTINUOUS
 62
     7
 10
147.3744478041
 20
92.7604339679
 30
0.0
 40
2.0
  0
CIRCLE
  5
2BE
  8
STANDARD
  6
CONTINUOUS
 62
     7
 10
188.386641113
 20
191.7726272767
 30
0.0
 40
2.0
  0
ENDBLK
  5
2C0
  8
0
  0
BLOCK
  8
0
  2
SE44
 70
     0
 10
0.0
 20
0.0
 30
0.0
  3
SE44
  1

  0
INSERT
  5
2C6
  8
STANDARD
  2
SE45
 10
0.0
 20
0.0
 30
0.0
  0
ENDBLK
  5
2CE
  8
0
  0
BLOCK
  8
0
  2
SE45
 70
     0
 10
0.0
 20
0.0
 30
0.0
  3
SE45
  1

  0
CIRCLE
  5
2C7
  8
STANDARD
  6
CONTINUOUS
 62
     7
 10
329.0982649469
 20
40.9257663709
 30
0.0
 40
2.0
  0
CIRCLE
  5
2C8
  8
STANDARD
  6
CONTINUOUS
 62
     7
 10
288.086071638
 20
139.9379596797
 30
0.0
 40
2.0
  0
CIRCLE
  5
2C9
  8
STANDARD
  6
CONTINUOUS
 62
     7
 10
329.0982649469
 20
98.9257663709
 30
0.0
 40
70.0
  0
CIRCLE
  5
2CA
  8
STANDARD
  6
CONTINUOUS
 62
     7
 10
370.1104582557
 20
139.9379596797
 30
0.0
 40
2.0
  0
ENDBLK
  5
2CC
  8
0
  0
BLOCK
  8
0
  2
*X47
 70
     1
 10
0.0
 20
0.0
 30
0.0
  3
*X47
  1

  0
TEXT
  5
2D9
  8
STANDARD
  6
CONTINUOUS
 62
     7
 10
124.422934077
 20
16.6389047642
 30
0.0
 40
3.5
  1
Desk Lamp - ZenziWerken - 6.5 mm Beech Plywood / 4 mm High Density Fiberboard
  0
TEXT
  5
2DA
  8
STANDARD
  6
CONTINUOUS
 62
     7
 10
265.385434077
 20
16.6389047642
 30
0.0
 40
3.5
  1
*
  0
ENDBLK
  5
2DC
  8
0
  0
ENDSEC
  0
SECTION
  2
ENTITIES
  0
INSERT
  5
6F
  8
STANDARD
  2
*X47
 10
0.0
 20
0.0
 30
0.0
  0
CIRCLE
  5
70
  8
STANDARD
  6
CONTINUOUS
 62
     7
 10
329.8482649538
 20
188.2730448191
 30
0.0
 40
2.0
  0
CIRCLE
  5
71
  8
STANDARD
  6
CONTINUOUS
 62
     7
 10
370.8604582626
 20
287.2852381279
 30
0.0
 40
2.0
  0
CIRCLE
  5
72
  8
STANDARD
  6
CONTINUOUS
 62
     7
 10
288.836071645
 20
287.2852381279
 30
0.0
 40
2.0
  0
LINE
  5
73
  8
STANDARD
  6
CONTINUOUS
 62
     7
 10
341.4482649538
 20
213.2730448191
 30
0.0
 11
341.4482649538
 21
209.2730448191
 31
0.0
  0
LINE
  5
74
  8
STANDARD
  6
CONTINUOUS
 62
     7
 10
318.2482649538
 20
213.2730448191
 30
0.0
 11
318.2482649538
 21
209.2730448191
 31
0.0
  0
LINE
  5
75
  8
STANDARD
  6
CONTINUOUS
 62
     7
 10
341.4482649538
 20
207.7730448191
 30
0.0
 11
341.4482649538
 21
209.2730448191
 31
0.0
  0
LINE
  5
76
  8
STANDARD
  6
CONTINUOUS
 62
     7
 10
318.2482649538
 20
214.7730448191
 30
0.0
 11
318.2482649538
 21
213.2730448191
 31
0.0
  0
LINE
  5
77
  8
STANDARD
  6
CONTINUOUS
 62
     7
 10
333.3482649538
 20
300.7230448191
 30
0.0
 11
326.3482649538
 21
300.7230448191
 31
0.0
  0
LINE
  5
78
  8
STANDARD
  6
CONTINUOUS
 62
     7
 10
333.3482649538
 20
298.1230448191
 30
0.0
 11
333.3482649538
 21
300.7230448191
 31
0.0
  0
LINE
  5
79
  8
STANDARD
  6
CONTINUOUS
 62
     7
 10
326.3482649538
 20
298.1230448191
 30
0.0
 11
333.3482649538
 21
298.1230448191
 31
0.0
  0
LINE
  5
7A
  8
STANDARD
  6
CONTINUOUS
 62
     7
 10
327.4482649538
 20
206.4230448191
 30
0.0
 11
327.4482649538
 21
207.7730448191
 31
0.0
  0
LINE
  5
7B
  8
STANDARD
  6
CONTINUOUS
 62
     7
 10
318.2482649538
 20
207.7730448191
 30
0.0
 11
327.4482649538
 21
207.7730448191
 31
0.0
  0
LINE
  5
7C
  8
STANDARD
  6
CONTINUOUS
 62
     7
 10
332.2482649538
 20
216.1230448191
 30
0.0
 11
332.2482649538
 21
214.7730448191
 31
0.0
  0
LINE
  5
7D
  8
STANDARD
  6
CONTINUOUS
 62
     7
 10
341.4482649538
 20
214.7730448191
 30
0.0
 11
332.2482649538
 21
214.7730448191
 31
0.0
  0
LINE
  5
7E
  8
STANDARD
  6
CONTINUOUS
 62
     7
 10
327.4482649538
 20
214.7730448191
 30
0.0
 11
327.4482649538
 21
216.1230448191
 31
0.0
  0
LINE
  5
7F
  8
STANDARD
  6
CONTINUOUS
 62
     7
 10
332.2482649538
 20
206.4230448191
 30
0.0
 11
327.4482649538
 21
206.4230448191
 31
0.0
  0
LINE
  5
80
  8
STANDARD
  6
CONTINUOUS
 62
     7
 10
332.2482649538
 20
207.7730448191
 30
0.0
 11
332.2482649538
 21
206.4230448191
 31
0.0
  0
LINE
  5
81
  8
STANDARD
  6
CONTINUOUS
 62
     7
 10
327.4482649538
 20
216.1230448191
 30
0.0
 11
332.2482649538
 21
216.1230448191
 31
0.0
  0
LINE
  5
82
  8
STANDARD
  6
CONTINUOUS
 62
     7
 10
318.2482649538
 20
209.2730448191
 30
0.0
 11
318.2482649538
 21
207.7730448191
 31
0.0
  0
LINE
  5
83
  8
STANDARD
  6
CONTINUOUS
 62
     7
 10
327.4482649538
 20
214.7730448191
 30
0.0
 11
318.2482649538
 21
214.7730448191
 31
0.0
  0
LINE
  5
84
  8
STANDARD
  6
CONTINUOUS
 62
     7
 10
341.4482649538
 20
213.2730448191
 30
0.0
 11
341.4482649538
 21
214.7730448191
 31
0.0
  0
LINE
  5
85
  8
STANDARD
  6
CONTINUOUS
 62
     7
 10
332.2482649538
 20
207.7730448191
 30
0.0
 11
341.4482649538
 21
207.7730448191
 31
0.0
  0
LINE
  5
86
  8
STANDARD
  6
CONTINUOUS
 62
     7
 10
337.0982649538
 20
274.7730448191
 30
0.0
 11
337.0982649538
 21
287.7730448191
 31
0.0
  0
LINE
  5
87
  8
STANDARD
  6
CONTINUOUS
 62
     7
 10
322.5982649538
 20
287.7730448191
 30
0.0
 11
322.5982649538
 21
274.7730448191
 31
0.0
  0
LINE
  5
88
  8
STANDARD
  6
CONTINUOUS
 62
     7
 10
337.0982649538
 20
274.7730448191
 30
0.0
 11
343.5982649538
 21
274.7730448191
 31
0.0
  0
LINE
  5
89
  8
STANDARD
  6
CONTINUOUS
 62
     7
 10
337.0982649538
 20
287.7730448191
 30
0.0
 11
343.5982649538
 21
287.7730448191
 31
0.0
  0
LINE
  5
8A
  8
STANDARD
  6
CONTINUOUS
 62
     7
 10
316.0982649538
 20
287.7730448191
 30
0.0
 11
316.0982649538
 21
274.7730448191
 31
0.0
  0
LINE
  5
8B
  8
STANDARD
  6
CONTINUOUS
 62
     7
 10
322.5982649538
 20
287.7730448191
 30
0.0
 11
316.0982649538
 21
287.7730448191
 31
0.0
  0
LINE
  5
8C
  8
STANDARD
  6
CONTINUOUS
 62
     7
 10
316.0982649538
 20
274.7730448191
 30
0.0
 11
322.5982649538
 21
274.7730448191
 31
0.0
  0
LINE
  5
8D
  8
STANDARD
  6
CONTINUOUS
 62
     7
 10
316.0982649538
 20
287.7730448191
 30
0.0
 11
316.0982649538
 21
274.7730448191
 31
0.0
  0
LINE
  5
8E
  8
STANDARD
  6
CONTINUOUS
 62
     7
 10
343.5982649538
 20
274.7730448191
 30
0.0
 11
343.5982649538
 21
287.7730448191
 31
0.0
  0
CIRCLE
  5
8F
  8
STANDARD
  6
CONTINUOUS
 62
     7
 10
329.8482649538
 20
246.2730448191
 30
0.0
 40
70.0
  0
LINE
  5
90
  8
STANDARD
  6
CONTINUOUS
 62
     7
 10
326.3482649538
 20
300.7230448191
 30
0.0
 11
326.3482649538
 21
298.1230448191
 31
0.0
  0
INSERT
  5
92
  8
0
  2
SE
 10
0.0
 20
0.0
 30
0.0
  0
INSERT
  5
9C
  8
0
  2
SE2
 10
0.0
 20
0.0
 30
0.0
  0
INSERT
  5
AD
  8
0
  2
SE4
 10
0.0
 20
0.0
 30
0.0
  0
INSERT
  5
C0
  8
0
  2
SE6
 10
0.0
 20
0.0
 30
0.0
  0
INSERT
  5
D3
  8
0
  2
SE8
 10
0.0
 20
0.0
 30
0.0
  0
INSERT
  5
E4
  8
0
  2
SE10
 10
0.0
 20
0.0
 30
0.0
  0
INSERT
  5
100
  8
0
  2
SE12
 10
0.0
 20
0.0
 30
0.0
  0
INSERT
  5
137
  8
0
  2
SE16
 10
0.0
 20
0.0
 30
0.0
  0
INSERT
  5
16E
  8
0
  2
SE20
 10
0.0
 20
0.0
 30
0.0
  0
INSERT
  5
1A5
  8
0
  2
SE24
 10
0.0
 20
0.0
 30
0.0
  0
INSERT
  5
1DC
  8
0
  2
SE28
 10
0.0
 20
0.0
 30
0.0
  0
INSERT
  5
213
  8
0
  2
SE32
 10
0.0
 20
0.0
 30
0.0
  0
INSERT
  5
24A
  8
0
  2
SE36
 10
0.0
 20
0.0
 30
0.0
  0
INSERT
  5
265
  8
0
  2
SE38
 10
0.0
 20
0.0
 30
0.0
  0
INSERT
  5
271
  8
0
  2
SE40
 10
0.0
 20
0.0
 30
0.0
  0
INSERT
  5
286
  8
0
  2
SE42
 10
0.0
 20
0.0
 30
0.0
  0
INSERT
  5
2C4
  8
0
  2
SE44
 10
0.0
 20
0.0
 30
0.0
  0
ENDSEC
  0
EOF
