<?xml version="1.0" encoding="utf-8"?>
<!-- Generator: Adobe Illustrator 19.2.1, SVG Export Plug-In . SVG Version: 6.00 Build 0)  -->
<svg version="1.1" id="STANDARD" xmlns="http://www.w3.org/2000/svg" xmlns:xlink="http://www.w3.org/1999/xlink" x="0px" y="0px"
	 width="1417.323px" height="1133.858px" viewBox="0 0 1417.323 1133.858" style="enable-background:new 0 0 1417.323 1133.858;"
	 xml:space="preserve">
<style type="text/css">
	.st0{fill:#FFFFFF;stroke:#000000;stroke-width:0.7087;stroke-linecap:round;stroke-linejoin:round;stroke-miterlimit:10;}
	.st1{fill:none;stroke:#000000;stroke-width:0.7087;stroke-linecap:round;stroke-linejoin:round;stroke-miterlimit:10;}
	.st2{fill:#010202;}
	.st3{font-family:'MyriadPro-Regular';}
	.st4{font-size:14.0131px;}
</style>
<path class="st0" d="M523.37,414.659c-109.587,0-198.425,88.838-198.425,198.425s88.838,198.425,198.425,198.425
	s198.425-88.838,198.425-198.425S632.957,414.659,523.37,414.659z M407.115,502.498c-3.131,0-5.669-2.538-5.669-5.669
	c0-3.131,2.538-5.669,5.669-5.669c3.131,0,5.669,2.538,5.669,5.669C412.784,499.96,410.246,502.498,407.115,502.498z
	 M523.37,783.163c-3.131,0-5.669-2.538-5.669-5.669c0-3.131,2.538-5.669,5.669-5.669s5.669,2.538,5.669,5.669
	C529.04,780.625,526.501,783.163,523.37,783.163z M556.252,706.627v11.339v4.252h-26.079v3.827h-13.606v-3.827h-26.079v-4.252
	v-11.339v-4.252h26.079v-3.827h13.606v3.827h26.079V706.627z M639.625,502.498c-3.131,0-5.669-2.538-5.669-5.669
	c0-3.131,2.538-5.669,5.669-5.669c3.131,0,5.669,2.538,5.669,5.669C645.295,499.96,642.756,502.498,639.625,502.498z"/>
<path class="st0" d="M282.085,173.6c1.019-1.14,1.348-2.74,0.86-4.19c-0.771-2.293-1.698-4.531-2.774-6.697
	c-0.68-1.37-2.044-2.269-3.571-2.354c-9.727-0.544-17.493-8.309-18.037-18.037c-0.085-1.527-0.984-2.891-2.354-3.571
	c-2.167-1.076-4.404-2.003-6.697-2.774c-1.45-0.488-3.049-0.159-4.19,0.86c-7.263,6.494-18.245,6.494-25.508,0
	c-1.14-1.019-2.74-1.348-4.19-0.86c-2.293,0.771-4.531,1.698-6.697,2.774c-1.37,0.68-2.269,2.044-2.354,3.571
	c-0.544,9.727-8.309,17.493-18.037,18.037c-1.527,0.085-2.891,0.984-3.571,2.354c-1.076,2.167-2.003,4.404-2.774,6.697
	c-0.488,1.45-0.159,3.049,0.86,4.19c6.494,7.263,6.494,18.245,0,25.508c-1.019,1.14-1.348,2.74-0.86,4.19
	c0.771,2.293,1.698,4.531,2.774,6.697c0.68,1.37,2.044,2.269,3.571,2.354c9.727,0.544,17.493,8.309,18.037,18.037
	c0.085,1.527,0.984,2.891,2.354,3.571c2.167,1.076,4.404,2.003,6.697,2.774c1.45,0.488,3.049,0.159,4.19-0.86
	c7.263-6.494,18.245-6.494,25.508,0c1.14,1.019,2.74,1.348,4.19,0.86c2.293-0.771,4.531-1.698,6.697-2.774
	c1.37-0.68,2.269-2.044,2.354-3.571c0.544-9.727,8.309-17.493,18.037-18.037c1.527-0.085,2.891-0.984,3.571-2.354
	c1.076-2.167,2.003-4.404,2.774-6.697c0.488-1.45,0.159-3.049-0.86-4.19C275.591,191.845,275.591,180.863,282.085,173.6z
	 M232.568,192.023c-3.131,0-5.669-2.538-5.669-5.669c0-3.131,2.538-5.669,5.669-5.669c3.131,0,5.669,2.538,5.669,5.669
	C238.238,189.485,235.699,192.023,232.568,192.023z"/>
<path class="st0" d="M285.594,301.111c-0.104-1.526-1.02-2.878-2.398-3.541c-8.779-4.225-12.982-14.371-9.761-23.566
	c0.506-1.444,0.197-3.047-0.808-4.2c-1.59-1.823-3.303-3.536-5.126-5.126c-1.153-1.005-2.757-1.314-4.2-0.808
	c-9.195,3.22-19.341-0.982-23.566-9.761c-0.663-1.378-2.016-2.294-3.541-2.398c-2.414-0.165-4.836-0.165-7.249,0
	c-1.526,0.104-2.878,1.02-3.541,2.398c-4.225,8.779-14.371,12.982-23.566,9.761c-1.443-0.506-3.047-0.197-4.2,0.808
	c-1.823,1.59-3.536,3.303-5.126,5.126c-1.005,1.153-1.314,2.756-0.808,4.2c3.22,9.195-0.982,19.341-9.761,23.566
	c-1.378,0.663-2.294,2.016-2.398,3.541c-0.165,2.414-0.165,4.836,0,7.249c0.104,1.526,1.02,2.878,2.398,3.541
	c8.779,4.225,12.982,14.371,9.761,23.566c-0.506,1.443-0.197,3.047,0.808,4.2c1.59,1.823,3.303,3.536,5.126,5.126
	c1.153,1.005,2.757,1.314,4.2,0.808c9.195-3.22,19.341,0.982,23.566,9.761c0.663,1.378,2.016,2.294,3.541,2.398
	c2.414,0.165,4.836,0.165,7.249,0c1.526-0.104,2.878-1.02,3.541-2.398c4.225-8.779,14.371-12.982,23.566-9.761
	c1.443,0.506,3.047,0.197,4.2-0.808c1.823-1.59,3.536-3.303,5.126-5.126c1.005-1.153,1.314-2.757,0.808-4.2
	c-3.22-9.195,0.982-19.341,9.761-23.566c1.378-0.663,2.294-2.016,2.398-3.541C285.759,305.947,285.759,303.525,285.594,301.111z
	 M232.568,310.405c-3.131,0-5.669-2.538-5.669-5.669c0-3.131,2.538-5.669,5.669-5.669c3.131,0,5.669,2.538,5.669,5.669
	C238.238,307.867,235.699,310.405,232.568,310.405z"/>
<path class="st0" d="M400.697,291.576c1.019-1.14,1.348-2.74,0.86-4.19c-0.771-2.293-1.698-4.531-2.774-6.697
	c-0.68-1.37-2.044-2.269-3.571-2.354c-9.727-0.544-17.493-8.309-18.037-18.037c-0.085-1.527-0.984-2.891-2.354-3.571
	c-2.167-1.076-4.404-2.003-6.697-2.774c-1.45-0.488-3.049-0.159-4.19,0.86c-7.263,6.494-18.245,6.494-25.508,0
	c-1.14-1.019-2.74-1.348-4.19-0.86c-2.293,0.771-4.531,1.698-6.697,2.774c-1.37,0.68-2.269,2.044-2.354,3.571
	c-0.544,9.727-8.309,17.493-18.037,18.037c-1.527,0.085-2.891,0.984-3.571,2.354c-1.076,2.167-2.003,4.404-2.774,6.697
	c-0.488,1.45-0.159,3.049,0.86,4.19c6.494,7.263,6.494,18.245,0,25.508c-1.019,1.14-1.348,2.74-0.86,4.19
	c0.771,2.293,1.698,4.531,2.774,6.697c0.68,1.37,2.044,2.269,3.571,2.354c9.727,0.544,17.493,8.309,18.037,18.037
	c0.085,1.527,0.984,2.891,2.354,3.571c2.167,1.076,4.404,2.003,6.697,2.774c1.45,0.488,3.049,0.159,4.19-0.86
	c7.263-6.494,18.245-6.494,25.508,0c1.14,1.019,2.74,1.348,4.19,0.86c2.293-0.771,4.531-1.698,6.697-2.774
	c1.37-0.68,2.269-2.044,2.354-3.571c0.544-9.727,8.309-17.493,18.037-18.037c1.527-0.085,2.891-0.984,3.571-2.354
	c1.076-2.167,2.003-4.404,2.774-6.697c0.488-1.45,0.159-3.049-0.86-4.19C394.204,309.821,394.204,298.838,400.697,291.576z
	 M351.181,309.999c-3.131,0-5.669-2.538-5.669-5.669c0-3.131,2.538-5.669,5.669-5.669c3.131,0,5.669,2.538,5.669,5.669
	C356.851,307.461,354.312,309.999,351.181,309.999z"/>
<path class="st0" d="M402.741,184.37c-0.104-1.526-1.02-2.878-2.398-3.541c-8.779-4.225-12.982-14.371-9.761-23.566
	c0.506-1.443,0.197-3.047-0.808-4.2c-1.59-1.823-3.303-3.536-5.126-5.126c-1.153-1.005-2.757-1.314-4.2-0.808
	c-9.195,3.22-19.341-0.982-23.566-9.761c-0.663-1.378-2.016-2.294-3.541-2.398c-2.414-0.165-4.836-0.165-7.249,0
	c-1.526,0.104-2.878,1.02-3.541,2.398c-4.225,8.779-14.371,12.982-23.566,9.761c-1.444-0.506-3.047-0.197-4.2,0.808
	c-1.823,1.59-3.536,3.303-5.126,5.126c-1.005,1.153-1.314,2.757-0.808,4.2c3.22,9.195-0.982,19.341-9.761,23.566
	c-1.378,0.663-2.294,2.016-2.398,3.541c-0.165,2.414-0.165,4.836,0,7.249c0.104,1.526,1.02,2.878,2.398,3.541
	c8.779,4.225,12.982,14.371,9.761,23.566c-0.506,1.443-0.197,3.047,0.808,4.2c1.59,1.823,3.303,3.536,5.126,5.126
	c1.153,1.005,2.757,1.314,4.2,0.808c9.195-3.22,19.341,0.982,23.566,9.761c0.663,1.378,2.016,2.294,3.541,2.398
	c2.414,0.165,4.836,0.165,7.249,0c1.526-0.104,2.878-1.02,3.541-2.398c4.225-8.779,14.371-12.982,23.566-9.761
	c1.443,0.506,3.047,0.197,4.2-0.808c1.823-1.59,3.536-3.303,5.126-5.126c1.005-1.153,1.314-2.757,0.808-4.2
	c-3.22-9.195,0.982-19.341,9.761-23.566c1.378-0.663,2.294-2.016,2.398-3.541C402.906,189.206,402.906,186.784,402.741,184.37z
	 M349.715,193.664c-3.131,0-5.669-2.538-5.669-5.669c0-3.131,2.538-5.669,5.669-5.669s5.669,2.538,5.669,5.669
	C355.384,191.126,352.846,193.664,349.715,193.664z"/>
<path class="st0" d="M517.032,174.408c1.02-1.14,1.348-2.74,0.861-4.19c-0.771-2.293-1.698-4.531-2.774-6.697
	c-0.68-1.37-2.044-2.269-3.571-2.354c-9.727-0.544-17.493-8.309-18.037-18.037c-0.085-1.527-0.984-2.891-2.354-3.571
	c-2.167-1.076-4.404-2.003-6.697-2.774c-1.45-0.488-3.049-0.159-4.19,0.86c-7.263,6.494-18.245,6.494-25.508,0
	c-1.14-1.019-2.74-1.348-4.19-0.86c-2.293,0.771-4.531,1.698-6.697,2.774c-1.37,0.68-2.269,2.044-2.354,3.571
	c-0.544,9.727-8.309,17.493-18.037,18.037c-1.527,0.085-2.891,0.984-3.571,2.354c-1.076,2.167-2.003,4.404-2.774,6.697
	c-0.488,1.45-0.159,3.05,0.86,4.19c6.494,7.263,6.494,18.245,0,25.508c-1.019,1.14-1.348,2.74-0.86,4.19
	c0.771,2.293,1.698,4.531,2.774,6.697c0.68,1.37,2.044,2.269,3.571,2.354c9.727,0.544,17.493,8.309,18.037,18.037
	c0.085,1.527,0.984,2.891,2.354,3.571c2.167,1.076,4.404,2.003,6.697,2.774c1.45,0.488,3.049,0.159,4.19-0.86
	c7.263-6.494,18.245-6.494,25.508,0c1.14,1.019,2.74,1.348,4.19,0.86c2.293-0.771,4.531-1.698,6.697-2.774
	c1.37-0.68,2.269-2.044,2.354-3.571c0.544-9.727,8.309-17.493,18.037-18.037c1.527-0.085,2.891-0.984,3.571-2.354
	c1.076-2.167,2.003-4.404,2.774-6.697c0.488-1.45,0.159-3.049-0.861-4.19C510.538,192.653,510.538,181.671,517.032,174.408z
	 M467.516,192.832c-3.131,0-5.669-2.538-5.669-5.669s2.538-5.669,5.669-5.669c3.131,0,5.669,2.538,5.669,5.669
	S470.647,192.832,467.516,192.832z"/>
<path class="st0" d="M520.542,301.919c-0.104-1.526-1.02-2.878-2.398-3.541c-8.779-4.225-12.982-14.371-9.761-23.566
	c0.506-1.443,0.197-3.047-0.808-4.2c-1.59-1.823-3.303-3.536-5.126-5.126c-1.153-1.005-2.757-1.314-4.2-0.808
	c-9.195,3.22-19.341-0.982-23.566-9.761c-0.663-1.378-2.016-2.294-3.541-2.398c-2.414-0.165-4.836-0.165-7.249,0
	c-1.526,0.104-2.878,1.02-3.541,2.398c-4.225,8.779-14.371,12.982-23.566,9.761c-1.443-0.506-3.047-0.197-4.2,0.808
	c-1.823,1.59-3.536,3.303-5.126,5.126c-1.005,1.153-1.314,2.757-0.808,4.2c3.22,9.195-0.982,19.341-9.761,23.566
	c-1.378,0.663-2.294,2.016-2.398,3.541c-0.165,2.414-0.165,4.836,0,7.249c0.104,1.526,1.02,2.878,2.398,3.541
	c8.779,4.225,12.982,14.371,9.761,23.566c-0.506,1.443-0.197,3.047,0.808,4.2c1.59,1.823,3.303,3.536,5.126,5.126
	c1.153,1.005,2.757,1.314,4.2,0.808c9.195-3.22,19.341,0.982,23.566,9.761c0.663,1.378,2.016,2.294,3.541,2.398
	c2.414,0.165,4.836,0.165,7.249,0c1.526-0.104,2.878-1.02,3.541-2.398c4.225-8.779,14.371-12.982,23.566-9.761
	c1.443,0.506,3.047,0.197,4.2-0.808c1.823-1.59,3.536-3.303,5.126-5.126c1.005-1.153,1.314-2.757,0.808-4.2
	c-3.22-9.195,0.982-19.341,9.761-23.566c1.378-0.663,2.294-2.016,2.398-3.541C520.707,306.755,520.707,304.333,520.542,301.919z
	 M467.516,311.213c-3.131,0-5.669-2.538-5.669-5.669c0-3.131,2.538-5.669,5.669-5.669c3.131,0,5.669,2.538,5.669,5.669
	C473.185,308.675,470.647,311.213,467.516,311.213z"/>
<path class="st0" d="M586.43,306.977c-23.483,0-42.52,19.037-42.52,42.52s19.037,42.52,42.52,42.52
	c23.483,0,42.52-19.037,42.52-42.52S609.913,306.977,586.43,306.977z M586.43,355.165c-3.131,0-5.669-2.538-5.669-5.669
	c0-3.131,2.538-5.669,5.669-5.669c3.131,0,5.669,2.538,5.669,5.669C592.099,352.627,589.561,355.165,586.43,355.165z"/>
<path class="st0" d="M288.434,827.404h-70.866v24.094h-18.425v36.85h18.425v24.095h70.866c23.483,0,42.52-19.037,42.52-42.52
	S311.917,827.404,288.434,827.404z M288.434,875.593c-3.131,0-5.669-2.538-5.669-5.669s2.538-5.669,5.669-5.669
	s5.669,2.538,5.669,5.669S291.566,875.593,288.434,875.593z"/>
<path class="st0" d="M293.174,369.323c-10.466-4.361-22.241-4.361-32.707,0c-17.273,7.197-35.8,10.902-54.512,10.902h-14.173v19.134
	h18.425v18.425h-18.425v19.134h14.173c18.712,0,37.24,3.705,54.512,10.902c21.677,9.032,46.571-1.219,55.603-22.895
	C325.101,403.249,314.85,378.354,293.174,369.323z M276.82,414.241c-3.131,0-5.669-2.538-5.669-5.669
	c0-3.131,2.538-5.669,5.669-5.669s5.669,2.538,5.669,5.669C282.489,411.703,279.951,414.241,276.82,414.241z"/>
<path class="st0" d="M599.684,147.848c-21.677-9.032-46.571,1.219-55.603,22.895c-4.361,10.466-4.361,22.241,0,32.707
	c7.197,17.273,10.902,35.8,10.902,54.512v14.173h19.134v-18.425h18.425v18.425h19.134v-14.173c0-18.712,3.705-37.239,10.902-54.512
	C631.611,181.774,621.36,156.88,599.684,147.848z M583.33,192.767c-3.131,0-5.669-2.538-5.669-5.669
	c0-3.131,2.538-5.669,5.669-5.669c3.131,0,5.669,2.538,5.669,5.669C588.999,190.228,586.461,192.767,583.33,192.767z"/>
<path class="st0" d="M847.098,530.807h-70.866v24.094h-18.425v36.85h18.425v24.095h70.866c23.483,0,42.52-19.037,42.52-42.52
	S870.581,530.807,847.098,530.807z M847.098,578.996c-3.131,0-5.669-2.538-5.669-5.669s2.538-5.669,5.669-5.669
	c3.131,0,5.669,2.538,5.669,5.669S850.229,578.996,847.098,578.996z"/>
<path class="st0" d="M651.116,876.363c-9.809-5.06-21.201-6.107-31.768-2.92c-24.099,7.267-49.698,7.985-74.166,2.081
	C410.95,843.133,306.091,738.415,273.519,604.226c-5.937-24.46-5.254-50.06,1.981-74.169c6.749-22.492-6.013-46.197-28.505-52.946
	s-46.197,6.013-52.946,28.505c-3.172,10.571-2.11,21.962,2.963,31.764c7.109,13.737,11.922,28.545,14.247,43.837
	c28.013,184.242,172.738,328.771,357.017,356.536c15.295,2.305,30.11,7.097,43.857,14.188c20.87,10.765,46.516,2.573,57.281-18.297
	S671.986,887.128,651.116,876.363z M234.774,512.168c3.131,0,5.669,2.538,5.669,5.669c0,3.131-2.538,5.669-5.669,5.669
	c-3.131,0-5.669-2.538-5.669-5.669C229.105,514.706,231.643,512.168,234.774,512.168z M572.712,905.612
	c-0.285,1.965-0.471,3.943-0.558,5.927c-0.016,0.36-0.054,0.718-0.116,1.073c-0.799,4.628-5.198,7.733-9.826,6.934
	c-169.982-29.332-303.176-162.348-332.738-332.29c-0.062-0.355-0.101-0.713-0.117-1.073c-0.212-4.692,3.419-8.667,8.11-8.88
	c1.984-0.09,3.961-0.279,5.926-0.566c0.167-0.024,0.334-0.044,0.501-0.058c4.679-0.403,8.799,3.063,9.203,7.742
	c0.692,8.026,1.993,15.988,3.893,23.817c34.076,140.382,143.774,249.933,284.202,283.819c7.831,1.89,15.795,3.181,23.822,3.861
	c0.168,0.014,0.335,0.033,0.501,0.058C570.164,896.65,573.386,900.964,572.712,905.612z M631.624,919.822
	c-3.131,0-5.669-2.538-5.669-5.669c0-3.131,2.538-5.669,5.669-5.669c3.131,0,5.669,2.538,5.669,5.669
	C637.293,917.283,634.755,919.822,631.624,919.822z"/>
<g id="LINE_28_">
	<line class="st1" x1="238.215" y1="196.134" x2="243.861" y2="186.354"/>
</g>
<g id="LINE_29_">
	<line class="st1" x1="243.861" y1="186.354" x2="238.215" y2="176.575"/>
</g>
<g id="LINE_30_">
	<line class="st1" x1="238.215" y1="176.575" x2="226.922" y2="176.575"/>
</g>
<g id="LINE_31_">
	<line class="st1" x1="226.922" y1="176.575" x2="221.276" y2="186.354"/>
</g>
<g id="LINE_32_">
	<line class="st1" x1="221.276" y1="186.354" x2="226.922" y2="196.134"/>
</g>
<g id="LINE_33_">
	<line class="st1" x1="226.922" y1="196.134" x2="238.215" y2="196.134"/>
</g>
<g id="LINE_34_">
	<line class="st1" x1="241.527" y1="311.61" x2="243.001" y2="300.414"/>
</g>
<g id="LINE_35_">
	<line class="st1" x1="243.001" y1="300.414" x2="234.042" y2="293.54"/>
</g>
<g id="LINE_36_">
	<line class="st1" x1="234.042" y1="293.54" x2="223.61" y2="297.862"/>
</g>
<g id="LINE_37_">
	<line class="st1" x1="223.61" y1="297.862" x2="222.136" y2="309.057"/>
</g>
<g id="LINE_38_">
	<line class="st1" x1="222.136" y1="309.057" x2="231.094" y2="315.932"/>
</g>
<g id="LINE_39_">
	<line class="st1" x1="231.094" y1="315.932" x2="241.527" y2="311.61"/>
</g>
<g id="LINE_40_">
	<line class="st1" x1="356.828" y1="314.109" x2="362.474" y2="304.33"/>
</g>
<g id="LINE_41_">
	<line class="st1" x1="362.474" y1="304.33" x2="356.828" y2="294.55"/>
</g>
<g id="LINE_42_">
	<line class="st1" x1="356.828" y1="294.55" x2="345.535" y2="294.55"/>
</g>
<g id="LINE_43_">
	<line class="st1" x1="345.535" y1="294.55" x2="339.889" y2="304.33"/>
</g>
<g id="LINE_44_">
	<line class="st1" x1="339.889" y1="304.33" x2="345.535" y2="314.109"/>
</g>
<g id="LINE_45_">
	<line class="st1" x1="345.535" y1="314.109" x2="356.828" y2="314.109"/>
</g>
<g id="LINE_46_">
	<line class="st1" x1="358.674" y1="194.869" x2="360.148" y2="183.673"/>
</g>
<g id="LINE_47_">
	<line class="st1" x1="360.148" y1="183.673" x2="351.189" y2="176.799"/>
</g>
<g id="LINE_48_">
	<line class="st1" x1="351.189" y1="176.799" x2="340.756" y2="181.12"/>
</g>
<g id="LINE_49_">
	<line class="st1" x1="340.756" y1="181.12" x2="339.282" y2="192.316"/>
</g>
<g id="LINE_50_">
	<line class="st1" x1="339.282" y1="192.316" x2="348.241" y2="199.191"/>
</g>
<g id="LINE_51_">
	<line class="st1" x1="348.241" y1="199.191" x2="358.674" y2="194.869"/>
</g>
<g id="LINE_52_">
	<line class="st1" x1="473.162" y1="196.942" x2="478.809" y2="187.162"/>
</g>
<g id="LINE_53_">
	<line class="st1" x1="478.809" y1="187.162" x2="473.162" y2="177.383"/>
</g>
<g id="LINE_54_">
	<line class="st1" x1="473.162" y1="177.383" x2="461.87" y2="177.383"/>
</g>
<g id="LINE_55_">
	<line class="st1" x1="461.87" y1="177.383" x2="456.224" y2="187.162"/>
</g>
<g id="LINE_56_">
	<line class="st1" x1="456.224" y1="187.162" x2="461.87" y2="196.942"/>
</g>
<g id="LINE_57_">
	<line class="st1" x1="461.87" y1="196.942" x2="473.162" y2="196.942"/>
</g>
<g id="LINE_58_">
	<line class="st1" x1="476.475" y1="312.418" x2="477.949" y2="301.222"/>
</g>
<g id="LINE_59_">
	<line class="st1" x1="477.949" y1="301.222" x2="468.99" y2="294.348"/>
</g>
<g id="LINE_60_">
	<line class="st1" x1="468.99" y1="294.348" x2="458.557" y2="298.67"/>
</g>
<g id="LINE_61_">
	<line class="st1" x1="458.557" y1="298.67" x2="457.083" y2="309.865"/>
</g>
<g id="LINE_62_">
	<line class="st1" x1="457.083" y1="309.865" x2="466.042" y2="316.74"/>
</g>
<g id="LINE_63_">
	<line class="st1" x1="466.042" y1="316.74" x2="476.475" y2="312.418"/>
</g>
<path class="st0" d="M745.909,329.245c-45.4,0-82.205,36.804-82.205,82.205c0,45.4,36.804,82.205,82.205,82.205
	s82.205-36.804,82.205-82.205C828.114,366.049,791.309,329.245,745.909,329.245z M736.696,439.088h-19.134v-18.425h19.134V439.088z
	 M736.696,402.237h-19.134v-18.425h19.134V402.237z M745.909,487.985c-2.348,0-4.252-1.904-4.252-4.252
	c0-2.348,1.904-4.252,4.252-4.252c2.348,0,4.252,1.904,4.252,4.252C750.161,486.082,748.257,487.985,745.909,487.985z
	 M745.909,343.418c-2.348,0-4.252-1.904-4.252-4.252c0-2.348,1.904-4.252,4.252-4.252c2.348,0,4.252,1.904,4.252,4.252
	C750.161,341.515,748.257,343.418,745.909,343.418z M774.255,439.088h-19.134v-18.425h19.134V439.088z M774.255,402.237h-19.134
	v-18.425h19.134V402.237z"/>
<path class="st0" d="M747.461,736.214c-45.4,0-82.205,36.804-82.205,82.205c0,45.4,36.804,82.205,82.205,82.205
	c45.4,0,82.205-36.804,82.205-82.205C829.666,773.018,792.862,736.214,747.461,736.214z M747.461,741.883
	c2.348,0,4.252,1.904,4.252,4.252c0,2.348-1.904,4.252-4.252,4.252c-2.348,0-4.252-1.904-4.252-4.252
	C743.21,743.787,745.113,741.883,747.461,741.883z M747.461,894.954c-2.348,0-4.252-1.904-4.252-4.252
	c0-2.348,1.904-4.252,4.252-4.252c2.348,0,4.252,1.904,4.252,4.252C751.714,893.05,749.81,894.954,747.461,894.954z
	 M747.461,880.781c-34.442,0-62.362-27.921-62.362-62.362s27.921-62.362,62.362-62.362c34.442,0,62.362,27.92,62.362,62.362
	S781.903,880.781,747.461,880.781z"/>
<path class="st0" d="M735.505,137.685c-45.4,0-82.205,36.804-82.205,82.205c0,45.4,36.804,82.205,82.205,82.205
	c45.4,0,82.205-36.804,82.205-82.205C817.709,174.489,780.905,137.685,735.505,137.685z M735.505,143.354
	c2.348,0,4.252,1.904,4.252,4.252c0,2.348-1.904,4.252-4.252,4.252c-2.348,0-4.252-1.904-4.252-4.252
	C731.253,145.258,733.156,143.354,735.505,143.354z M735.505,296.425c-2.348,0-4.252-1.904-4.252-4.252
	c0-2.348,1.904-4.252,4.252-4.252c2.348,0,4.252,1.904,4.252,4.252C739.757,294.522,737.853,296.425,735.505,296.425z
	 M744.008,270.2v4.966h-17.008V270.2c-21.412-3.619-38.187-20.394-41.806-41.806c-4.697-27.785,14.021-54.117,41.806-58.814v-4.966
	h17.008v4.966c21.412,3.619,38.187,20.394,41.806,41.806C790.511,239.171,771.794,265.503,744.008,270.2z"/>
<g id="LINE_82_">
	<line class="st1" x1="774.822" y1="252.409" x2="802.062" y2="268.136"/>
</g>
<g id="LINE_83_">
	<line class="st1" x1="810.566" y1="253.407" x2="783.326" y2="237.68"/>
</g>
<path class="st0" d="M1040.619,143.914c-109.587,0-198.425,88.838-198.425,198.425s88.838,198.425,198.425,198.425
	c109.587,0,198.425-88.838,198.425-198.425S1150.206,143.914,1040.619,143.914z M1030.698,187.993h19.843v7.37h-19.843V187.993z
	 M924.364,231.754c-3.131,0-5.669-2.538-5.669-5.669s2.538-5.669,5.669-5.669s5.669,2.538,5.669,5.669
	S927.495,231.754,924.364,231.754z M1001.642,224.702h18.425v36.85h-18.425V224.702z M1040.619,512.418
	c-3.131,0-5.669-2.538-5.669-5.669c0-3.131,2.538-5.669,5.669-5.669c3.131,0,5.669,2.538,5.669,5.669
	C1046.288,509.88,1043.75,512.418,1040.619,512.418z M1073.501,435.883v11.339v4.252h-26.079v3.827h-13.606v-3.827h-26.079v-4.252
	v-11.339v-4.252h26.079v-3.827h13.606v3.827h26.079V435.883z M1079.595,261.552h-18.425v-36.85h18.425V261.552z M1156.874,231.754
	c-3.131,0-5.669-2.538-5.669-5.669s2.538-5.669,5.669-5.669c3.131,0,5.669,2.538,5.669,5.669S1160.005,231.754,1156.874,231.754z"/>
<g id="LINE_118_">
	<line class="st1" x1="519.827" y1="410.407" x2="526.914" y2="410.407"/>
</g>
<g id="ARC_220_">
	<path class="st1" d="M575.811,454.993c0-1.566-1.269-2.835-2.835-2.835"/>
</g>
<g id="ARC_221_">
	<path class="st1" d="M526.914,442.237c0,2.348,1.904,4.252,4.252,4.252"/>
</g>
<g id="ARC_222_">
	<path class="st1" d="M580.063,452.158c0-3.131-2.538-5.669-5.669-5.669"/>
</g>
<g id="ARC_223_">
	<path class="st1" d="M519.827,443.655c0,4.697,3.807,8.504,8.504,8.504"/>
</g>
<g id="LINE_121_">
	<line class="st1" x1="575.811" y1="454.993" x2="575.811" y2="460.58"/>
</g>
<g id="LINE_122_">
	<line class="st1" x1="580.063" y1="460.58" x2="580.063" y2="452.158"/>
</g>
<g id="LINE_123_">
	<line class="st1" x1="574.394" y1="446.489" x2="531.165" y2="446.489"/>
</g>
<g id="LINE_124_">
	<line class="st1" x1="528.331" y1="452.158" x2="572.977" y2="452.158"/>
</g>
<g id="LINE_125_">
	<line class="st1" x1="519.827" y1="443.655" x2="519.827" y2="410.407"/>
</g>
<g id="LINE_126_">
	<line class="st1" x1="526.914" y1="410.407" x2="526.914" y2="442.237"/>
</g>
<g id="ARC_224_">
	<path class="st1" d="M475.181,460.58c-4.697,0-8.504,3.807-8.504,8.504"/>
</g>
<g id="ARC_225_">
	<path class="st1" d="M476.599,464.265c-3.131,0-5.669,2.538-5.669,5.669"/>
</g>
<g id="LINE_127_">
	<line class="st1" x1="513.449" y1="464.265" x2="476.599" y2="464.265"/>
</g>
<g id="LINE_128_">
	<line class="st1" x1="513.449" y1="458.738" x2="513.449" y2="462.423"/>
</g>
<g id="LINE_129_">
	<line class="st1" x1="475.181" y1="460.58" x2="513.449" y2="460.58"/>
</g>
<g id="ARC_226_">
	<path class="st1" d="M570.142,706.627c3.131,0,5.669-2.538,5.669-5.669"/>
</g>
<g id="ARC_227_">
	<path class="st1" d="M574.394,717.966c3.131,0,5.669-2.538,5.669-5.669"/>
</g>
<g id="ARC_228_">
	<path class="st1" d="M466.677,712.297c0,3.131,2.538,5.669,5.669,5.669"/>
</g>
<g id="ARC_229_">
	<path class="st1" d="M470.929,700.958c0,3.131,2.538,5.669,5.669,5.669"/>
</g>
<g id="LINE_131_">
	<line class="st1" x1="556.252" y1="717.966" x2="574.394" y2="717.966"/>
</g>
<g id="LINE_132_">
	<line class="st1" x1="490.488" y1="706.627" x2="476.599" y2="706.627"/>
</g>
<g id="LINE_134_">
	<line class="st1" x1="575.811" y1="460.58" x2="575.811" y2="700.958"/>
</g>
<g id="LINE_135_">
	<line class="st1" x1="580.063" y1="712.297" x2="580.063" y2="460.58"/>
</g>
<g id="LINE_136_">
	<line class="st1" x1="466.677" y1="469.084" x2="466.677" y2="712.297"/>
</g>
<g id="LINE_137_">
	<line class="st1" x1="470.929" y1="700.958" x2="470.929" y2="469.934"/>
</g>
<g id="LINE_138_">
	<line class="st1" x1="466.677" y1="706.627" x2="466.677" y2="712.297"/>
</g>
<g id="LINE_139_">
	<line class="st1" x1="570.142" y1="706.627" x2="556.252" y2="706.627"/>
</g>
<g id="LINE_140_">
	<line class="st1" x1="580.063" y1="712.297" x2="580.063" y2="706.627"/>
</g>
<g id="LINE_141_">
	<line class="st1" x1="472.347" y1="717.966" x2="490.488" y2="717.966"/>
</g>
<g id="LINE_142_">
	<line class="st1" x1="513.449" y1="458.738" x2="513.449" y2="466.108"/>
</g>
<g id="LINE_143_">
	<line class="st1" x1="533.292" y1="458.738" x2="513.449" y2="458.738"/>
</g>
<g id="LINE_144_">
	<line class="st1" x1="533.292" y1="466.108" x2="533.292" y2="458.738"/>
</g>
<g id="LINE_145_">
	<line class="st1" x1="513.449" y1="466.108" x2="533.292" y2="466.108"/>
</g>
<path class="st0" d="M1038.493,561.592c-109.587,0-198.425,88.838-198.425,198.425s88.838,198.425,198.425,198.425
	c109.587,0,198.425-88.838,198.425-198.425S1148.08,561.592,1038.493,561.592z M922.238,649.431c-3.131,0-5.669-2.538-5.669-5.669
	c0-3.131,2.538-5.669,5.669-5.669c3.131,0,5.669,2.538,5.669,5.669C927.907,646.893,925.369,649.431,922.238,649.431z
	 M1038.493,930.096c-3.131,0-5.669-2.538-5.669-5.669s2.538-5.669,5.669-5.669c3.131,0,5.669,2.538,5.669,5.669
	S1041.624,930.096,1038.493,930.096z M1154.748,649.431c-3.131,0-5.669-2.538-5.669-5.669c0-3.131,2.538-5.669,5.669-5.669
	c3.131,0,5.669,2.538,5.669,5.669C1160.417,646.893,1157.879,649.431,1154.748,649.431z"/>
<text transform="matrix(1 0 0 1 466.8259 1009.1042)" class="st2 st3 st4">Desk Lamp - ZenziWerken - 6.5 mm Beech Plywood / 4 mm High Density Fiberboard</text>
</svg>
