<?xml version="1.0" encoding="utf-8"?>
<!-- Generator: Adobe Illustrator 19.2.1, SVG Export Plug-In . SVG Version: 6.00 Build 0)  -->
<svg version="1.1" id="Ebene_1" xmlns="http://www.w3.org/2000/svg" xmlns:xlink="http://www.w3.org/1999/xlink" x="0px" y="0px"
	 width="992.1px" height="708.7px" viewBox="0 0 992.1 708.7" style="enable-background:new 0 0 992.1 708.7;" xml:space="preserve"
	>
<style type="text/css">
	.st0{fill:#FFFFFF;stroke:#010202;stroke-width:0.7087;stroke-linecap:round;stroke-linejoin:round;stroke-miterlimit:10;}
	.st1{fill:none;stroke:#010202;stroke-width:0.7087;stroke-linecap:round;stroke-linejoin:round;stroke-miterlimit:10;}
	.st2{fill:#010202;}
	.st3{font-family:'ArialMT';}
	.st4{font-size:14.0131px;}
</style>
<path class="st0" d="M573.5,159.3c-15.7-27.1-50.3-36.4-77.4-20.8c-25.9,14.9-55.2,22.8-85,22.8v17.9h-17.9V197H411v42h-17.9v17.9
	H411v17.9c49.8,0,98.6-13.1,141.7-38C579.8,221,589.1,186.4,573.5,159.3z M524.4,193.3c-3.1,0-5.7-2.5-5.7-5.7
	c0-3.1,2.5-5.7,5.7-5.7s5.7,2.5,5.7,5.7C530,190.7,527.5,193.3,524.4,193.3z"/>
<path class="st0" d="M327.9,157.4c-31.3,0-56.7,25.4-56.7,56.7c0,31.3,25.4,56.7,56.7,56.7c31.3,0,56.7-25.4,56.7-56.7
	C384.6,182.8,359.2,157.4,327.9,157.4z M366.9,216.8c0.2,0.2,0.4,0.4,0.6,0.6c-1.6,19.3-16.9,34.6-36.3,36.3
	c-21.8,1.8-41-14.4-42.8-36.3c1.8-1.5,2.1-4.2,0.6-6c-0.2-0.2-0.4-0.4-0.6-0.6c1.6-19.3,16.9-34.6,36.3-36.3
	c21.8-1.8,41,14.4,42.8,36.3C365.7,212.3,365.4,215,366.9,216.8z"/>
<path class="st0" d="M403.1,285H253.4c-31.3,0-56.7,25.4-56.7,56.7s25.4,56.7,56.7,56.7h149.7c31.3,0,56.7-25.4,56.7-56.7
	S434.4,285,403.1,285z M403.1,380.5H253.4c-21.4,0-38.8-17.4-38.8-38.8c0-21.4,17.4-38.8,38.8-38.8h149.7
	c21.4,0,38.8,17.4,38.8,38.8C441.9,363.1,424.5,380.5,403.1,380.5z"/>
<path class="st0" d="M131.5,262.9c-31.3,0-56.7,25.4-56.7,56.7v149.7c0,31.3,25.4,56.7,56.7,56.7c31.3,0,56.7-25.4,56.7-56.7V319.6
	C188.2,288.3,162.8,262.9,131.5,262.9z M170.3,469.2c0,21.4-17.4,38.8-38.8,38.8c-21.4,0-38.8-17.4-38.8-38.8V319.6
	c0-21.4,17.4-38.8,38.8-38.8c21.4,0,38.8,17.4,38.8,38.8V469.2z"/>
<g id="LINE_4_">
	<line class="st1" x1="217.4" y1="347.4" x2="217.4" y2="336"/>
</g>
<g id="LINE_5_">
	<line class="st1" x1="333.9" y1="377.7" x2="322.6" y2="377.7"/>
</g>
<g id="LINE_6_">
	<line class="st1" x1="200.4" y1="347.4" x2="217.4" y2="347.4"/>
</g>
<g id="LINE_7_">
	<line class="st1" x1="200.4" y1="336" x2="200.4" y2="347.4"/>
</g>
<g id="LINE_8_">
	<line class="st1" x1="217.4" y1="336" x2="200.4" y2="336"/>
</g>
<g id="LINE_9_">
	<line class="st1" x1="333.9" y1="394.7" x2="333.9" y2="377.7"/>
</g>
<g id="LINE_10_">
	<line class="st1" x1="322.6" y1="394.7" x2="333.9" y2="394.7"/>
</g>
<g id="LINE_11_">
	<line class="st1" x1="322.6" y1="377.7" x2="322.6" y2="394.7"/>
</g>
<path class="st0" d="M403.1,412.6H253.4c-31.3,0-56.7,25.4-56.7,56.7c0,31.3,25.4,56.7,56.7,56.7h149.7c31.3,0,56.7-25.4,56.7-56.7
	C459.8,437.9,434.4,412.6,403.1,412.6z M253.4,474.9c-3.1,0-5.7-2.5-5.7-5.7c0-3.1,2.5-5.7,5.7-5.7c3.1,0,5.7,2.5,5.7,5.7
	C259.1,472.4,256.5,474.9,253.4,474.9z M318.7,508.1h-17.9v-17.9h17.9V508.1z M318.7,448.3h-17.9v-17.9h17.9V448.3z M333.9,474.9
	c0,3.1-2.5,5.7-5.7,5.7s-5.7-2.5-5.7-5.7v-11.3c0-3.1,2.5-5.7,5.7-5.7s5.7,2.5,5.7,5.7V474.9z M355.6,508.1h-17.9v-17.9h17.9V508.1z
	 M355.6,448.3h-17.9v-17.9h17.9V448.3z M403.1,474.9c-3.1,0-5.7-2.5-5.7-5.7c0-3.1,2.5-5.7,5.7-5.7s5.7,2.5,5.7,5.7
	C408.7,472.4,406.2,474.9,403.1,474.9z"/>
<path class="st0" d="M524.9,285c-31.3,0-56.7,25.4-56.7,56.7s25.4,56.7,56.7,56.7h80.2V285H524.9z M524.9,347.4
	c-3.1,0-5.7-2.5-5.7-5.7s2.5-5.7,5.7-5.7c3.1,0,5.7,2.5,5.7,5.7S528.1,347.4,524.9,347.4z"/>
<path class="st0" d="M868.5,247.7c-31.3,0-56.7,25.4-56.7,56.7c0,31.3,25.4,56.7,56.7,56.7c31.3,0,56.7-25.4,56.7-56.7
	C925.2,273,899.8,247.7,868.5,247.7z M871.8,343.9c-1.5-1.8-4.2-2.1-6-0.6c-0.2,0.2-0.4,0.4-0.6,0.6c-19.3-1.6-34.6-16.9-36.3-36.3
	c-1.8-21.8,14.4-41,36.3-42.8c1.5,1.8,4.2,2.1,6,0.6c0.2-0.2,0.4-0.4,0.6-0.6c19.3,1.6,34.6,16.9,36.3,36.3
	C909.9,322.9,893.6,342.1,871.8,343.9z"/>
<path class="st0" d="M868.5,125.8c-31.3,0-56.7,25.4-56.7,56.7c0,31.3,25.4,56.7,56.7,56.7c31.3,0,56.7-25.4,56.7-56.7
	C925.2,151.2,899.8,125.8,868.5,125.8z M871.8,222c-1.5-1.8-4.2-2.1-6-0.6c-0.2,0.2-0.4,0.4-0.6,0.6c-19.3-1.6-34.6-16.9-36.3-36.3
	c-1.8-21.8,14.4-41,36.3-42.8c1.5,1.8,4.2,2.1,6,0.6c0.2-0.2,0.4-0.4,0.6-0.6c19.3,1.6,34.6,16.9,36.3,36.3
	C909.9,201,893.6,220.2,871.8,222z"/>
<path class="st0" d="M868.5,369.6c-31.3,0-56.7,25.4-56.7,56.7c0,31.3,25.4,56.7,56.7,56.7c31.3,0,56.7-25.4,56.7-56.7
	C925.2,394.9,899.8,369.6,868.5,369.6z M841.7,399.5h17.9v17.9h-17.9V399.5z M843,431.2c-2.7,0-5-2.2-5-5c0-2.7,2.2-5,5-5s5,2.2,5,5
	C848,429,845.7,431.2,843,431.2z M862.1,455.5c0,2.3-1.9,4.3-4.3,4.3c-2.3,0-4.3-1.9-4.3-4.3v-1.4c0-2.3,1.9-4.3,4.3-4.3
	c2.3,0,4.3,1.9,4.3,4.3V455.5z M874.9,398.4v-1.4c0-2.3,1.9-4.3,4.3-4.3c2.3,0,4.3,1.9,4.3,4.3v1.4c0,2.3-1.9,4.3-4.3,4.3
	C876.8,402.6,874.9,400.7,874.9,398.4z M895.3,453h-17.9v-17.9h17.9V453z M894,431.2c-2.7,0-5-2.2-5-5c0-2.7,2.2-5,5-5s5,2.2,5,5
	C899,429,896.8,431.2,894,431.2z"/>
<g id="INSERT_18_">
	<g id="INSERT_17_">
		<g id="LINE_60_">
			<line class="st1" x1="529.9" y1="197.2" x2="535.5" y2="187.6"/>
		</g>
		<g id="LINE_61_">
			<line class="st1" x1="535.5" y1="187.6" x2="529.9" y2="178"/>
		</g>
		<g id="LINE_62_">
			<line class="st1" x1="529.9" y1="178" x2="518.8" y2="178"/>
		</g>
		<g id="LINE_63_">
			<line class="st1" x1="518.8" y1="178" x2="513.2" y2="187.6"/>
		</g>
		<g id="LINE_64_">
			<line class="st1" x1="513.2" y1="187.6" x2="518.8" y2="197.2"/>
		</g>
		<g id="LINE_65_">
			<line class="st1" x1="518.8" y1="197.2" x2="529.9" y2="197.2"/>
		</g>
	</g>
</g>
<g id="LINE_72_">
	<path class="st0" d="M573.7,239.1c28.5-19.4,35.8-58.2,16.4-86.7c-4.4-6.4-9.9-12-16.4-16.4c-0.8-0.5-1.2-1.4-1.2-2.3
		c0-1.6,1.3-2.8,2.8-2.8h43.5v29.9h17.9v17.9h-17.9v65.6h-43.5c-0.9,0-1.8-0.5-2.3-1.2C572.1,241.8,572.4,240,573.7,239.1z"/>
</g>
<g id="LINE_73_">
	<line class="st1" x1="598.9" y1="196.1" x2="598.9" y2="200.4"/>
</g>
<g id="LINE_74_">
	<line class="st1" x1="598.9" y1="200.4" x2="620.2" y2="200.4"/>
</g>
<g id="LINE_75_">
	<line class="st1" x1="620.2" y1="196.1" x2="598.9" y2="196.1"/>
</g>
<g id="LINE_76_">
	<line class="st1" x1="620.2" y1="196.1" x2="620.2" y2="200.4"/>
</g>
<path class="st0" d="M262.7,195.2v-17.9h-17.9v-17.9c-29.9,0-59.2-7.9-85-22.8c-27.1-15.7-61.8-6.4-77.4,20.8
	c-15.7,27.1-6.4,61.8,20.8,77.4c43.1,24.9,92,38,141.7,38V255h17.9v-17.9h-17.9v-42H262.7z M131.5,191.4c-3.1,0-5.7-2.5-5.7-5.7
	c0-3.1,2.5-5.7,5.7-5.7s5.7,2.5,5.7,5.7C137.1,188.9,134.6,191.4,131.5,191.4z"/>
<g id="CIRCLE_11_">
	<path class="st1" d="M121.5,185.8c0-5.5,4.4-9.9,9.9-9.9c5.5,0,9.9,4.4,9.9,9.9c0,5.5-4.4,9.9-9.9,9.9
		C126,195.7,121.5,191.2,121.5,185.8L121.5,185.8z"/>
</g>
<g id="LINE_92_">
	<path class="st0" d="M768.5,199.1c-19.4-28.5-58.2-35.8-86.7-16.4c-6.4,4.4-12,9.9-16.4,16.4c-0.5,0.8-1.4,1.2-2.3,1.2
		c-1.6,0-2.8-1.3-2.8-2.8V154h29.9v-17.9H708V154h65.6v43.5c0,0.9-0.5,1.8-1.2,2.3C771.1,200.7,769.4,200.4,768.5,199.1z"/>
</g>
<g id="LINE_93_">
	<line class="st1" x1="725.5" y1="173.9" x2="729.8" y2="173.9"/>
</g>
<g id="LINE_94_">
	<line class="st1" x1="729.8" y1="173.9" x2="729.8" y2="152.6"/>
</g>
<g id="LINE_95_">
	<line class="st1" x1="725.5" y1="152.6" x2="725.5" y2="173.9"/>
</g>
<g id="LINE_96_">
	<line class="st1" x1="725.5" y1="152.6" x2="729.8" y2="152.6"/>
</g>
<path class="st0" d="M707.2,217.9c-50.1,0-90.7,40.6-90.7,90.7c0,50.1,40.6,90.7,90.7,90.7c50.1,0,90.7-40.6,90.7-90.7
	C797.9,258.5,757.3,217.9,707.2,217.9z M773.9,357.4l-7.8-4.5c-6.8,9-15.5,16.3-25.5,21.4l3.1,8.5l-16.8,6.1l-3.1-8.5
	c-10.9,2.5-22.3,2.5-33.3,0l-3.1,8.5l-16.8-6.1l3.1-8.5c-10-5.1-18.7-12.4-25.5-21.4l-7.8,4.5l-8.9-15.5l7.8-4.5
	c-4.4-10.3-6.4-21.5-5.8-32.8l-8.9-1.6l3.1-17.6l8.9,1.6c3.3-10.7,9-20.6,16.6-28.8l-5.8-6.9l13.7-11.5l5.8,6.9
	c9.4-6.1,20.1-10,31.3-11.4v-9h17.9v9c11.1,1.4,21.8,5.3,31.3,11.4l5.8-6.9l13.7,11.5l-5.8,6.9c7.7,8.2,13.4,18.1,16.6,28.8l8.9-1.6
	l3.1,17.6l-8.9,1.6c0.6,11.2-1.4,22.4-5.8,32.8l7.8,4.5L773.9,357.4z"/>
<path class="st0" d="M756.2,309l-3.1-17.6l7.7-1.4c-2.4-6.8-6-13.2-10.8-18.6l-5,6l-13.7-11.5l5-6c-6.2-3.7-13.1-6.2-20.2-7.4v7.8
	h-17.9v-7.8c-7.1,1.1-14,3.6-20.2,7.4l5,6l-13.7,11.5l-5-6c-4.7,5.5-8.4,11.8-10.8,18.6l7.7,1.4l-3.1,17.6l-7.7-1.4
	c-0.1,7.2,1.1,14.4,3.7,21.2l6.8-3.9l8.9,15.5l-6.8,3.9c4.6,5.6,10.2,10.3,16.5,13.8l2.7-7.3l16.8,6.1l-2.7,7.3
	c7.1,1.4,14.4,1.4,21.5,0l-2.7-7.3l16.8-6.1l2.7,7.3c6.3-3.5,11.9-8.2,16.5-13.8l-6.8-3.9l8.9-15.5l6.8,3.9c2.6-6.8,3.9-14,3.7-21.2
	L756.2,309z M710.5,348.1c-1.5-1.8-4.2-2.1-6-0.6c-0.2,0.2-0.4,0.4-0.6,0.6c-19.3-1.6-34.6-16.9-36.3-36.3
	c-1.8-21.8,14.4-41,36.3-42.8c1.5,1.8,4.2,2.1,6,0.6c0.2-0.2,0.4-0.4,0.6-0.6c19.3,1.6,34.6,16.9,36.3,36.3
	C748.6,327.1,732.4,346.3,710.5,348.1z"/>
<g id="INSERT_33_">
	<g id="ARC_66_">
		<path class="st0" d="M461.8,430.1h8.5v-17.9h8.5v17.9c0,13,5.4,25.5,15,34.3c12.1,11.3,19,27.1,19,43.6h-8.5v17.9h-8.5v-17.9
			c0-11.8-4.9-23.1-13.6-31.2C469.2,464.8,461.8,447.9,461.8,430.1z"/>
	</g>
</g>
<g id="INSERT_35_">
	<g id="ARC_70_">
		<path class="st0" d="M501.5,430.1h8.5v-17.9h8.5v17.9c0,13,5.4,25.5,15,34.3c12.1,11.3,19,27.1,19,43.6H544v17.9h-8.5v-17.9
			c0-11.8-4.9-23.1-13.6-31.2C508.9,464.8,501.5,447.9,501.5,430.1z"/>
	</g>
</g>
<g id="INSERT_38_">
	<g id="INSERT_37_">
		<g id="ARC_74_">
			<path class="st0" d="M541.2,430.1h8.5v-17.9h8.5v17.9c0,13,5.4,25.5,15,34.3c12.1,11.3,19,27.1,19,43.6h-8.5v17.9h-8.5v-17.9
				c0-11.8-4.9-23.1-13.6-31.2C548.6,464.8,541.2,447.9,541.2,430.1z"/>
		</g>
	</g>
</g>
<g id="INSERT_40_">
	<g id="INSERT_39_">
		<g id="ARC_78_">
			<path class="st0" d="M580.9,430.1h8.5v-17.9h8.5v17.9c0,13,5.4,25.5,15,34.3c12.1,11.3,19,27.1,19,43.6h-8.5v17.9h-8.5v-17.9
				c0-11.8-4.9-23.1-13.6-31.2C588.3,464.8,580.9,447.9,580.9,430.1z"/>
		</g>
	</g>
</g>
<g id="INSERT_42_">
	<g id="INSERT_41_">
		<g id="ARC_82_">
			<path class="st0" d="M620.6,430.1h8.5v-17.9h8.5v17.9c0,13,5.4,25.5,15,34.3c12.1,11.3,19,27.1,19,43.6h-8.5v17.9h-8.5v-17.9
				c0-11.8-4.9-23.1-13.6-31.2C628,464.8,620.6,447.9,620.6,430.1z"/>
		</g>
	</g>
</g>
<g id="INSERT_44_">
	<g id="INSERT_43_">
		<g id="ARC_86_">
			<path class="st0" d="M660.3,430.1h8.5v-17.9h8.5v17.9c0,13,5.4,25.5,15,34.3c12.1,11.3,19,27.1,19,43.6h-8.5v17.9h-8.5v-17.9
				c0-11.8-4.9-23.1-13.6-31.2C667.7,464.8,660.3,447.9,660.3,430.1z"/>
		</g>
	</g>
</g>
<g id="INSERT_46_">
	<g id="INSERT_45_">
		<g id="ARC_90_">
			<path class="st0" d="M699.9,430.1h8.5v-17.9h8.5v17.9c0,13,5.4,25.5,15,34.3c12.1,11.3,19,27.1,19,43.6h-8.5v17.9H734v-17.9
				c0-11.8-4.9-23.1-13.6-31.2C707.3,464.8,699.9,447.9,699.9,430.1z"/>
		</g>
	</g>
</g>
<g id="INSERT_48_">
	<g id="INSERT_47_">
		<g id="ARC_94_">
			<path class="st0" d="M739.6,430.1h8.5v-17.9h8.5v17.9c0,13,5.4,25.5,15,34.3c12.1,11.3,19,27.1,19,43.6h-8.5v17.9h-8.5v-17.9
				c0-11.8-4.9-23.1-13.6-31.2C747,464.8,739.6,447.9,739.6,430.1z"/>
		</g>
	</g>
</g>
<g id="INSERT_50_">
	<g id="INSERT_49_">
		<g id="ARC_98_">
			<path class="st0" d="M779.3,430.1h8.5v-17.9h8.5v17.9c0,13,5.4,25.5,15,34.3c12.1,11.3,19,27.1,19,43.6h-8.5v17.9h-8.5v-17.9
				c0-11.8-4.9-23.1-13.6-31.2C786.7,464.8,779.3,447.9,779.3,430.1z"/>
		</g>
	</g>
</g>
<text transform="matrix(1 0 0 1 349.0431 583.4994)" class="st2 st3 st4">Wall Spot Lamp - ZenziWerken - 6.3 mm Plywood</text>
</svg>
