  0
SECTION
  2
HEADER
  9
$ACADVER
  1
AC1009
  9
$DWGCODEPAGE
  3
ansi_1252
  9
$INSBASE
 10
0.0
 20
0.0
 30
0.0
  9
$EXTMIN
 10
0.0
 20
0.0
 30
0.0
  9
$EXTMAX
 10
594.0
 20
420.0
 30
0.0
  9
$LIMMIN
 10
0.0
 20
0.0
  9
$LIMMAX
 10
594.0
 20
420.0
  9
$ORTHOMODE
 70
     0
  9
$REGENMODE
 70
     1
  9
$FILLMODE
 70
     1
  9
$QTEXTMODE
 70
     0
  9
$MIRRTEXT
 70
     1
  9
$DRAGMODE
 70
     2
  9
$LTSCALE
 40
1.0
  9
$OSMODE
 70
    37
  9
$ATTMODE
 70
     1
  9
$TEXTSIZE
 40
3.5
  9
$TRACEWID
 40
1.0
  9
$TEXTSTYLE
  7
STANDARD
  9
$CLAYER
  8
0
  9
$CELTYPE
  6
BYLAYER
  9
$CECOLOR
 62
   256
  9
$DIMSCALE
 40
1.0
  9
$DIMASZ
 40
2.5
  9
$DIMEXO
 40
0.625
  9
$DIMDLI
 40
3.75
  9
$DIMRND
 40
0.0
  9
$DIMDLE
 40
0.0
  9
$DIMEXE
 40
1.25
  9
$DIMTP
 40
0.0
  9
$DIMTM
 40
0.0
  9
$DIMTXT
 40
2.5
  9
$DIMCEN
 40
2.5
  9
$DIMTSZ
 40
0.0
  9
$DIMTOL
 70
     0
  9
$DIMLIM
 70
     0
  9
$DIMTIH
 70
     0
  9
$DIMTOH
 70
     0
  9
$DIMSE1
 70
     0
  9
$DIMSE2
 70
     0
  9
$DIMTAD
 70
     1
  9
$DIMZIN
 70
     8
  9
$DIMBLK
  1

  9
$DIMASO
 70
     1
  9
$DIMSHO
 70
     1
  9
$DIMPOST
  1

  9
$DIMAPOST
  1

  9
$DIMALT
 70
     0
  9
$DIMALTD
 70
     3
  9
$DIMALTF
 40
0.0393700787
  9
$DIMLFAC
 40
1.0
  9
$DIMTOFL
 70
     1
  9
$DIMTVP
 40
0.0
  9
$DIMTIX
 70
     0
  9
$DIMSOXD
 70
     0
  9
$DIMSAH
 70
     0
  9
$DIMBLK1
  1

  9
$DIMBLK2
  1

  9
$DIMSTYLE
  2
ISO-25
  9
$DIMCLRD
 70
     0
  9
$DIMCLRE
 70
     0
  9
$DIMCLRT
 70
     0
  9
$DIMTFAC
 40
1.0
  9
$DIMGAP
 40
0.625
  9
$LUNITS
 70
     2
  9
$LUPREC
 70
     4
  9
$SKETCHINC
 40
1.0
  9
$FILLETRAD
 40
10.0
  9
$AUNITS
 70
     0
  9
$AUPREC
 70
     0
  9
$MENU
  1
.
  9
$ELEVATION
 40
0.0
  9
$PELEVATION
 40
0.0
  9
$THICKNESS
 40
0.0
  9
$LIMCHECK
 70
     0
  9
$CHAMFERA
 40
0.0
  9
$CHAMFERB
 40
0.0
  9
$SKPOLY
 70
     0
  9
$TDCREATE
 40
2457929.480054317
  9
$TDUPDATE
 40
2457929.480057037
  9
$TDINDWG
 40
0.0000000116
  9
$TDUSRTIMER
 40
0.0000000116
  9
$USRTIMER
 70
     1
  9
$ANGBASE
 50
0.0
  9
$ANGDIR
 70
     0
  9
$PDMODE
 70
     0
  9
$PDSIZE
 40
0.0
  9
$PLINEWID
 40
0.0
  9
$COORDS
 70
     1
  9
$SPLFRAME
 70
     0
  9
$SPLINETYPE
 70
     6
  9
$SPLINESEGS
 70
     8
  9
$ATTDIA
 70
     0
  9
$ATTREQ
 70
     1
  9
$HANDLING
 70
     1
  9
$HANDSEED
  5
29E
  9
$SURFTAB1
 70
     6
  9
$SURFTAB2
 70
     6
  9
$SURFTYPE
 70
     6
  9
$SURFU
 70
     6
  9
$SURFV
 70
     6
  9
$UCSNAME
  2

  9
$UCSORG
 10
0.0
 20
0.0
 30
0.0
  9
$UCSXDIR
 10
1.0
 20
0.0
 30
0.0
  9
$UCSYDIR
 10
0.0
 20
1.0
 30
0.0
  9
$PUCSNAME
  2

  9
$PUCSORG
 10
0.0
 20
0.0
 30
0.0
  9
$PUCSXDIR
 10
1.0
 20
0.0
 30
0.0
  9
$PUCSYDIR
 10
0.0
 20
1.0
 30
0.0
  9
$USERI1
 70
     0
  9
$USERI2
 70
     0
  9
$USERI3
 70
     0
  9
$USERI4
 70
     0
  9
$USERI5
 70
     0
  9
$USERR1
 40
0.0
  9
$USERR2
 40
0.0
  9
$USERR3
 40
0.0
  9
$USERR4
 40
0.0
  9
$USERR5
 40
0.0
  9
$WORLDVIEW
 70
     1
  9
$SHADEDGE
 70
     3
  9
$SHADEDIF
 70
    70
  9
$TILEMODE
 70
     1
  9
$MAXACTVP
 70
    64
  9
$PLIMCHECK
 70
     0
  9
$PEXTMIN
 10
0.0
 20
0.0
 30
0.0
  9
$PEXTMAX
 10
594.0
 20
420.0
 30
0.0
  9
$PLIMMIN
 10
0.0
 20
0.0
  9
$PLIMMAX
 10
594.0
 20
420.0
  9
$UNITMODE
 70
     0
  9
$VISRETAIN
 70
     1
  9
$PLINEGEN
 70
     0
  9
$PSLTSCALE
 70
     1
  0
ENDSEC
  0
SECTION
  2
TABLES
  0
TABLE
  2
VPORT
 70
     1
  0
VPORT
  2
*ACTIVE
 70
     0
 10
0.0
 20
0.0
 11
1.0
 21
1.0
 12
344.1869158879
 22
148.5
 13
0.0
 23
0.0
 14
10.0
 24
10.0
 15
10.0
 25
10.0
 16
0.0
 26
0.0
 36
1.0
 17
0.0
 27
0.0
 37
0.0
 40
297.0
 41
1.9729729729
 42
50.0
 43
0.0
 44
0.0
 50
0.0
 51
0.0
 71
     0
 72
   100
 73
     1
 74
     3
 75
     0
 76
     0
 77
     0
 78
     0
  0
ENDTAB
  0
TABLE
  2
LTYPE
 70
     1
  0
LTYPE
  2
CONTINUOUS
 70
     0
  3
Solid line
 72
    65
 73
     0
 40
0.0
  0
ENDTAB
  0
TABLE
  2
LAYER
 70
     3
  0
LAYER
  2
0
 70
     0
 62
     7
  6
CONTINUOUS
  0
LAYER
  2
EBENE_2
 70
     0
 62
     7
  6
CONTINUOUS
  0
LAYER
  2
STANDARD
 70
     0
 62
     7
  6
CONTINUOUS
  0
ENDTAB
  0
TABLE
  2
STYLE
 70
     1
  0
STYLE
  2
STANDARD
 70
     0
 40
0.0
 41
1.0
 50
0.0
 71
     0
 42
3.5
  3
txt
  4

  0
ENDTAB
  0
TABLE
  2
VIEW
 70
     0
  0
ENDTAB
  0
TABLE
  2
UCS
 70
     0
  0
ENDTAB
  0
TABLE
  2
APPID
 70
     1
  0
APPID
  2
ACAD
 70
     0
  0
ENDTAB
  0
TABLE
  2
DIMSTYLE
 70
     1
  0
DIMSTYLE
  2
ISO-25
 70
     0
  3

  4

  5

  6

  7

 40
1.0
 41
2.5
 42
0.625
 43
3.75
 44
1.25
 45
0.0
 46
0.0
 47
0.0
 48
0.0
140
2.5
141
2.5
142
0.0
143
0.0393700787
144
1.0
145
0.0
146
1.0
147
0.625
 71
     0
 72
     0
 73
     0
 74
     0
 75
     0
 76
     0
 77
     1
 78
     8
170
     0
171
     3
172
     1
173
     0
174
     0
175
     0
176
     0
177
     0
178
     0
  0
ENDTAB
  0
ENDSEC
  0
SECTION
  2
BLOCKS
  0
BLOCK
  8
0
  2
$MODEL_SPACE
 70
     0
 10
0.0
 20
0.0
 30
0.0
  3
$MODEL_SPACE
  1

  0
ENDBLK
  5
21
  8
0
  0
BLOCK
 67
     1
  8
0
  2
$PAPER_SPACE
 70
     0
 10
0.0
 20
0.0
 30
0.0
  3
$PAPER_SPACE
  1

  0
ENDBLK
  5
1D
 67
     1
  8
0
  0
BLOCK
  8
0
  2
SE
 70
     0
 10
0.0
 20
0.0
 30
0.0
  3
SE
  1

  0
INSERT
  5
74
  8
STANDARD
  2
SE1
 10
0.0
 20
0.0
 30
0.0
  0
ENDBLK
  5
80
  8
0
  0
BLOCK
  8
0
  2
SE1
 70
     0
 10
0.0
 20
0.0
 30
0.0
  3
SE1
  1

  0
LINE
  5
75
  8
STANDARD
  6
CONTINUOUS
 62
     7
 10
155.1890820449
 20
163.9767025435
 30
0.0
 11
155.1890820449
 21
216.7767025435
 31
0.0
  0
ARC
  5
76
  8
STANDARD
  6
CONTINUOUS
 62
     7
 10
168.8890820449
 20
163.9767025435
 30
0.0
 40
13.70000000000002
 50
180.0
 51
0.0
  0
LINE
  5
77
  8
STANDARD
  6
CONTINUOUS
 62
     7
 10
182.5890820449
 20
216.7767025435
 30
0.0
 11
182.5890820449
 21
163.9767025435
 31
0.0
  0
ARC
  5
78
  8
STANDARD
  6
CONTINUOUS
 62
     7
 10
168.8890820449
 20
216.7767025435
 30
0.0
 40
13.70000000000002
 50
0.0
 51
180.0
  0
ARC
  5
79
  8
STANDARD
  6
CONTINUOUS
 62
     7
 10
168.8890820449
 20
216.7767025435
 30
0.0
 40
20.00000000000002
 50
0.0
 51
180.0
  0
ARC
  5
7A
  8
STANDARD
  6
CONTINUOUS
 62
     7
 10
168.8890820449
 20
163.9767025435
 30
0.0
 40
20.00000000000002
 50
180.0
 51
0.0
  0
LINE
  5
7B
  8
STANDARD
  6
CONTINUOUS
 62
     7
 10
188.8890820449
 20
163.9767025435
 30
0.0
 11
188.8890820449
 21
216.7767025435
 31
0.0
  0
LINE
  5
7C
  8
STANDARD
  6
CONTINUOUS
 62
     7
 10
148.8890820449
 20
216.7767025435
 30
0.0
 11
148.8890820449
 21
163.9767025435
 31
0.0
  0
ENDBLK
  5
7E
  8
0
  0
BLOCK
  8
0
  2
SE2
 70
     0
 10
0.0
 20
0.0
 30
0.0
  3
SE2
  1

  0
INSERT
  5
84
  8
STANDARD
  2
SE3
 10
0.0
 20
0.0
 30
0.0
  0
ENDBLK
  5
98
  8
0
  0
BLOCK
  8
0
  2
SE3
 70
     0
 10
0.0
 20
0.0
 30
0.0
  3
SE3
  1

  0
LINE
  5
85
  8
STANDARD
  6
CONTINUOUS
 62
     7
 10
199.1890820449
 20
206.9767025435
 30
0.0
 11
199.1890820449
 21
210.9767025435
 31
0.0
  0
LINE
  5
86
  8
STANDARD
  6
CONTINUOUS
 62
     7
 10
240.2890820449
 20
196.2767025435
 30
0.0
 11
236.2890820449
 21
196.2767025435
 31
0.0
  0
LINE
  5
87
  8
STANDARD
  6
CONTINUOUS
 62
     7
 10
193.1890820449
 20
206.9767025435
 30
0.0
 11
199.1890820449
 21
206.9767025435
 31
0.0
  0
LINE
  5
88
  8
STANDARD
  6
CONTINUOUS
 62
     7
 10
193.1890820449
 20
210.9767025435
 30
0.0
 11
193.1890820449
 21
206.9767025435
 31
0.0
  0
LINE
  5
89
  8
STANDARD
  6
CONTINUOUS
 62
     7
 10
199.1890820449
 20
210.9767025435
 30
0.0
 11
193.1890820449
 21
210.9767025435
 31
0.0
  0
LINE
  5
8A
  8
STANDARD
  6
CONTINUOUS
 62
     7
 10
240.2890820449
 20
190.2767025435
 30
0.0
 11
240.2890820449
 21
196.2767025435
 31
0.0
  0
LINE
  5
8B
  8
STANDARD
  6
CONTINUOUS
 62
     7
 10
236.2890820449
 20
190.2767025435
 30
0.0
 11
240.2890820449
 21
190.2767025435
 31
0.0
  0
LINE
  5
8C
  8
STANDARD
  6
CONTINUOUS
 62
     7
 10
236.2890820449
 20
196.2767025435
 30
0.0
 11
236.2890820449
 21
190.2767025435
 31
0.0
  0
LINE
  5
8D
  8
STANDARD
  6
CONTINUOUS
 62
     7
 10
211.8890820449
 20
222.6767025435
 30
0.0
 11
264.6890820449
 21
222.6767025435
 31
0.0
  0
ARC
  5
8E
  8
STANDARD
  6
CONTINUOUS
 62
     7
 10
211.8890820449
 20
208.9767025435
 30
0.0
 40
13.70000000000002
 50
90.0
 51
270.0
  0
LINE
  5
8F
  8
STANDARD
  6
CONTINUOUS
 62
     7
 10
264.6890820449
 20
195.2767025435
 30
0.0
 11
211.8890820449
 21
195.2767025435
 31
0.0
  0
ARC
  5
90
  8
STANDARD
  6
CONTINUOUS
 62
     7
 10
264.6890820449
 20
208.9767025435
 30
0.0
 40
13.70000000000002
 50
270.0
 51
90.0
  0
ARC
  5
91
  8
STANDARD
  6
CONTINUOUS
 62
     7
 10
264.6890820449
 20
208.9767025435
 30
0.0
 40
20.00000000000002
 50
270.0
 51
90.0
  0
ARC
  5
92
  8
STANDARD
  6
CONTINUOUS
 62
     7
 10
211.8890820449
 20
208.9767025435
 30
0.0
 40
20.00000000000002
 50
90.0
 51
270.0
  0
LINE
  5
93
  8
STANDARD
  6
CONTINUOUS
 62
     7
 10
211.8890820449
 20
188.9767025435
 30
0.0
 11
264.6890820449
 21
188.9767025435
 31
0.0
  0
LINE
  5
94
  8
STANDARD
  6
CONTINUOUS
 62
     7
 10
264.6890820449
 20
228.9767025435
 30
0.0
 11
211.8890820449
 21
228.9767025435
 31
0.0
  0
ENDBLK
  5
96
  8
0
  0
BLOCK
  8
0
  2
SE4
 70
     0
 10
0.0
 20
0.0
 30
0.0
  3
SE4
  1

  0
INSERT
  5
9C
  8
STANDARD
  2
SE5
 10
0.0
 20
0.0
 30
0.0
  0
ENDBLK
  5
BA
  8
0
  0
BLOCK
  8
0
  2
SE5
 70
     0
 10
0.0
 20
0.0
 30
0.0
  3
SE5
  1

  0
ARC
  5
9D
  8
STANDARD
  6
CONTINUOUS
 62
     7
 10
238.2890820449
 20
165.9767025435
 30
0.0
 40
2.0
 50
0.0
 51
180.0
  0
ARC
  5
9E
  8
STANDARD
  6
CONTINUOUS
 62
     7
 10
238.2890820449
 20
161.9767025435
 30
0.0
 40
2.0
 50
180.0
 51
0.0
  0
LINE
  5
9F
  8
STANDARD
  6
CONTINUOUS
 62
     7
 10
236.2890820449
 20
165.9767025435
 30
0.0
 11
236.2890820449
 21
161.9767025435
 31
0.0
  0
LINE
  5
A0
  8
STANDARD
  6
CONTINUOUS
 62
     7
 10
240.2890820449
 20
161.9767025435
 30
0.0
 11
240.2890820449
 21
165.9767025435
 31
0.0
  0
CIRCLE
  5
A1
  8
STANDARD
  6
CONTINUOUS
 62
     7
 10
264.6890820449
 20
163.9767025435
 30
0.0
 40
2.0
  0
ARC
  5
A2
  8
STANDARD
  6
CONTINUOUS
 62
     7
 10
264.6890820449
 20
163.9767025435
 30
0.0
 40
20.00000000000002
 50
270.0
 51
90.0
  0
LINE
  5
A3
  8
STANDARD
  6
CONTINUOUS
 62
     7
 10
247.9390820449
 20
156.5767025435
 30
0.0
 11
247.9390820449
 21
150.2767025435
 31
0.0
  0
LINE
  5
A4
  8
STANDARD
  6
CONTINUOUS
 62
     7
 10
247.9390820449
 20
177.6767025435
 30
0.0
 11
247.9390820449
 21
171.3767025435
 31
0.0
  0
LINE
  5
A5
  8
STANDARD
  6
CONTINUOUS
 62
     7
 10
241.6390820449
 20
156.5767025435
 30
0.0
 11
247.9390820449
 21
156.5767025435
 31
0.0
  0
LINE
  5
A6
  8
STANDARD
  6
CONTINUOUS
 62
     7
 10
241.6390820449
 20
150.2767025435
 30
0.0
 11
241.6390820449
 21
156.5767025435
 31
0.0
  0
LINE
  5
A7
  8
STANDARD
  6
CONTINUOUS
 62
     7
 10
247.9390820449
 20
150.2767025435
 30
0.0
 11
241.6390820449
 21
150.2767025435
 31
0.0
  0
LINE
  5
A8
  8
STANDARD
  6
CONTINUOUS
 62
     7
 10
241.6390820449
 20
177.6767025435
 30
0.0
 11
247.9390820449
 21
177.6767025435
 31
0.0
  0
LINE
  5
A9
  8
STANDARD
  6
CONTINUOUS
 62
     7
 10
241.6390820449
 20
171.3767025435
 30
0.0
 11
241.6390820449
 21
177.6767025435
 31
0.0
  0
LINE
  5
AA
  8
STANDARD
  6
CONTINUOUS
 62
     7
 10
247.9390820449
 20
171.3767025435
 30
0.0
 11
241.6390820449
 21
171.3767025435
 31
0.0
  0
LINE
  5
AB
  8
STANDARD
  6
CONTINUOUS
 62
     7
 10
234.9390820449
 20
156.5767025435
 30
0.0
 11
234.9390820449
 21
150.2767025435
 31
0.0
  0
LINE
  5
AC
  8
STANDARD
  6
CONTINUOUS
 62
     7
 10
234.9390820449
 20
177.6767025435
 30
0.0
 11
234.9390820449
 21
171.3767025435
 31
0.0
  0
CIRCLE
  5
AD
  8
STANDARD
  6
CONTINUOUS
 62
     7
 10
211.8890820449
 20
163.9767025435
 30
0.0
 40
2.0
  0
ARC
  5
AE
  8
STANDARD
  6
CONTINUOUS
 62
     7
 10
211.8890820449
 20
163.9767025435
 30
0.0
 40
20.00000000000002
 50
90.0
 51
270.0
  0
LINE
  5
AF
  8
STANDARD
  6
CONTINUOUS
 62
     7
 10
211.8890820449
 20
143.9767025435
 30
0.0
 11
264.6890820449
 21
143.9767025435
 31
0.0
  0
LINE
  5
B0
  8
STANDARD
  6
CONTINUOUS
 62
     7
 10
264.6890820449
 20
183.9767025435
 30
0.0
 11
211.8890820449
 21
183.9767025435
 31
0.0
  0
LINE
  5
B1
  8
STANDARD
  6
CONTINUOUS
 62
     7
 10
228.6390820449
 20
156.5767025435
 30
0.0
 11
234.9390820449
 21
156.5767025435
 31
0.0
  0
LINE
  5
B2
  8
STANDARD
  6
CONTINUOUS
 62
     7
 10
228.6390820449
 20
150.2767025435
 30
0.0
 11
228.6390820449
 21
156.5767025435
 31
0.0
  0
LINE
  5
B3
  8
STANDARD
  6
CONTINUOUS
 62
     7
 10
234.9390820449
 20
150.2767025435
 30
0.0
 11
228.6390820449
 21
150.2767025435
 31
0.0
  0
LINE
  5
B4
  8
STANDARD
  6
CONTINUOUS
 62
     7
 10
228.6390820449
 20
177.6767025435
 30
0.0
 11
234.9390820449
 21
177.6767025435
 31
0.0
  0
LINE
  5
B5
  8
STANDARD
  6
CONTINUOUS
 62
     7
 10
228.6390820449
 20
171.3767025435
 30
0.0
 11
228.6390820449
 21
177.6767025435
 31
0.0
  0
LINE
  5
B6
  8
STANDARD
  6
CONTINUOUS
 62
     7
 10
234.9390820449
 20
171.3767025435
 30
0.0
 11
228.6390820449
 21
171.3767025435
 31
0.0
  0
ENDBLK
  5
B8
  8
0
  0
BLOCK
  8
0
  2
SE6
 70
     0
 10
0.0
 20
0.0
 30
0.0
  3
SE6
  1

  0
INSERT
  5
BE
  8
STANDARD
  2
SE7
 10
0.0
 20
0.0
 30
0.0
  0
ENDBLK
  5
C7
  8
0
  0
BLOCK
  8
0
  2
SE7
 70
     0
 10
0.0
 20
0.0
 30
0.0
  3
SE7
  1

  0
CIRCLE
  5
BF
  8
STANDARD
  6
CONTINUOUS
 62
     7
 10
307.6890820449
 20
208.9767025435
 30
0.0
 40
2.0
  0
ARC
  5
C0
  8
STANDARD
  6
CONTINUOUS
 62
     7
 10
307.6890820449
 20
208.9767025435
 30
0.0
 40
20.00000000000002
 50
90.0
 51
270.0
  0
LINE
  5
C1
  8
STANDARD
  6
CONTINUOUS
 62
     7
 10
335.9890820449
 20
228.9767025435
 30
0.0
 11
307.6890820449
 21
228.9767025435
 31
0.0
  0
LINE
  5
C2
  8
STANDARD
  6
CONTINUOUS
 62
     7
 10
335.9890820449
 20
188.9767025435
 30
0.0
 11
335.9890820449
 21
228.9767025435
 31
0.0
  0
LINE
  5
C3
  8
STANDARD
  6
CONTINUOUS
 62
     7
 10
307.6890820449
 20
188.9767025435
 30
0.0
 11
335.9890820449
 21
188.9767025435
 31
0.0
  0
ENDBLK
  5
C5
  8
0
  0
BLOCK
  8
0
  2
SE8
 70
     0
 10
0.0
 20
0.0
 30
0.0
  3
SE8
  1

  0
INSERT
  5
CB
  8
STANDARD
  2
SE9
 10
0.0
 20
0.0
 30
0.0
  0
ENDBLK
  5
D4
  8
0
  0
BLOCK
  8
0
  2
SE9
 70
     0
 10
0.0
 20
0.0
 30
0.0
  3
SE9
  1

  0
ARC
  5
CC
  8
STANDARD
  6
CONTINUOUS
 62
     7
 10
223.2871569033
 20
253.9732540239
 30
0.0
 40
1.5
 50
309.2137135657
 51
50.7862864343
  0
ARC
  5
CD
  8
STANDARD
  6
CONTINUOUS
 62
     7
 10
253.0871569033
 20
253.9732540239
 30
0.0
 40
1.5
 50
129.2137135657
 51
230.7862864343
  0
ARC
  5
CE
  8
STANDARD
  6
CONTINUOUS
 62
     7
 10
238.1871569033
 20
253.9732540239
 30
0.0
 40
14.0
 50
184.7618062691
 51
355.2381937309
  0
ARC
  5
CF
  8
STANDARD
  6
CONTINUOUS
 62
     7
 10
238.1871569033
 20
253.9732540239
 30
0.0
 40
14.0
 50
4.7618062691
 51
175.2381937309
  0
CIRCLE
  5
D0
  8
STANDARD
  6
CONTINUOUS
 62
     7
 10
238.1871569033
 20
253.9732540239
 30
0.0
 40
20.0
  0
ENDBLK
  5
D2
  8
0
  0
BLOCK
  8
0
  2
SE10
 70
     0
 10
0.0
 20
0.0
 30
0.0
  3
SE10
  1

  0
INSERT
  5
D8
  8
STANDARD
  2
SE11
 10
0.0
 20
0.0
 30
0.0
  0
ENDBLK
  5
E1
  8
0
  0
BLOCK
  8
0
  2
SE11
 70
     0
 10
0.0
 20
0.0
 30
0.0
  3
SE11
  1

  0
ARC
  5
D9
  8
STANDARD
  6
CONTINUOUS
 62
     7
 10
428.8890800895
 20
237.0463885446
 30
0.0
 40
1.5
 50
219.2137135657
 51
320.7862864343
  0
ARC
  5
DA
  8
STANDARD
  6
CONTINUOUS
 62
     7
 10
428.8890800895
 20
207.2463885446
 30
0.0
 40
1.5
 50
39.2137135657
 51
140.7862864343
  0
ARC
  5
DB
  8
STANDARD
  6
CONTINUOUS
 62
     7
 10
428.8890800895
 20
222.1463885446
 30
0.0
 40
14.0
 50
94.7618062691
 51
265.2381937309
  0
ARC
  5
DC
  8
STANDARD
  6
CONTINUOUS
 62
     7
 10
428.8890800895
 20
222.1463885446
 30
0.0
 40
14.0
 50
274.7618062691
 51
85.2381937309
  0
CIRCLE
  5
DD
  8
STANDARD
  6
CONTINUOUS
 62
     7
 10
428.8890800895
 20
222.1463885446
 30
0.0
 40
20.0
  0
ENDBLK
  5
DF
  8
0
  0
BLOCK
  8
0
  2
SE12
 70
     0
 10
0.0
 20
0.0
 30
0.0
  3
SE12
  1

  0
INSERT
  5
E5
  8
STANDARD
  2
SE13
 10
0.0
 20
0.0
 30
0.0
  0
ENDBLK
  5
EE
  8
0
  0
BLOCK
  8
0
  2
SE13
 70
     0
 10
0.0
 20
0.0
 30
0.0
  3
SE13
  1

  0
ARC
  5
E6
  8
STANDARD
  6
CONTINUOUS
 62
     7
 10
428.8890800895
 20
280.0463885446
 30
0.0
 40
1.5
 50
219.2137135657
 51
320.7862864343
  0
ARC
  5
E7
  8
STANDARD
  6
CONTINUOUS
 62
     7
 10
428.8890800895
 20
250.2463885446
 30
0.0
 40
1.5
 50
39.2137135657
 51
140.7862864343
  0
ARC
  5
E8
  8
STANDARD
  6
CONTINUOUS
 62
     7
 10
428.8890800895
 20
265.1463885446
 30
0.0
 40
14.0
 50
94.7618062691
 51
265.2381937309
  0
ARC
  5
E9
  8
STANDARD
  6
CONTINUOUS
 62
     7
 10
428.8890800895
 20
265.1463885446
 30
0.0
 40
14.0
 50
274.7618062691
 51
85.2381937309
  0
CIRCLE
  5
EA
  8
STANDARD
  6
CONTINUOUS
 62
     7
 10
428.8890800895
 20
265.1463885446
 30
0.0
 40
20.0
  0
ENDBLK
  5
EC
  8
0
  0
BLOCK
  8
0
  2
SE14
 70
     0
 10
0.0
 20
0.0
 30
0.0
  3
SE14
  1

  0
INSERT
  5
F2
  8
STANDARD
  2
SE15
 10
0.0
 20
0.0
 30
0.0
  0
ENDBLK
  5
109
  8
0
  0
BLOCK
  8
0
  2
SE15
 70
     0
 10
0.0
 20
0.0
 30
0.0
  3
SE15
  1

  0
ARC
  5
F3
  8
STANDARD
  6
CONTINUOUS
 62
     7
 10
425.1268585864
 20
168.8097699179
 30
0.0
 40
1.5
 50
180.0
 51
0.0
  0
ARC
  5
F4
  8
STANDARD
  6
CONTINUOUS
 62
     7
 10
425.1268585864
 20
169.3097699179
 30
0.0
 40
1.5
 50
0.0
 51
180.0
  0
LINE
  5
F5
  8
STANDARD
  6
CONTINUOUS
 62
     7
 10
423.6268585864
 20
168.8097699179
 30
0.0
 11
423.6268585864
 21
169.3097699179
 31
0.0
  0
LINE
  5
F6
  8
STANDARD
  6
CONTINUOUS
 62
     7
 10
426.6268585864
 20
169.3097699179
 30
0.0
 11
426.6268585864
 21
168.8097699179
 31
0.0
  0
ARC
  5
F7
  8
STANDARD
  6
CONTINUOUS
 62
     7
 10
432.6513015925
 20
189.4830071713
 30
0.0
 40
1.5
 50
0.0
 51
180.0
  0
ARC
  5
F8
  8
STANDARD
  6
CONTINUOUS
 62
     7
 10
432.6513015925
 20
188.9830071713
 30
0.0
 40
1.5
 50
180.0
 51
0.0
  0
LINE
  5
F9
  8
STANDARD
  6
CONTINUOUS
 62
     7
 10
434.1513015925
 20
189.4830071713
 30
0.0
 11
434.1513015925
 21
188.9830071713
 31
0.0
  0
LINE
  5
FA
  8
STANDARD
  6
CONTINUOUS
 62
     7
 10
431.1513015925
 20
188.9830071713
 30
0.0
 11
431.1513015925
 21
189.4830071713
 31
0.0
  0
LINE
  5
FB
  8
STANDARD
  6
CONTINUOUS
 62
     7
 10
419.4390800895
 20
182.2963885446
 30
0.0
 11
425.7390800895
 21
182.2963885446
 31
0.0
  0
CIRCLE
  5
FC
  8
STANDARD
  6
CONTINUOUS
 62
     7
 10
437.8890801134
 20
179.1463885446
 30
0.0
 40
1.75
  0
CIRCLE
  5
FD
  8
STANDARD
  6
CONTINUOUS
 62
     7
 10
419.8890800064
 20
179.1463885446
 30
0.0
 40
1.75
  0
LINE
  5
FE
  8
STANDARD
  6
CONTINUOUS
 62
     7
 10
432.0390800895
 20
175.9963885446
 30
0.0
 11
432.0390800895
 21
169.6963885446
 31
0.0
  0
LINE
  5
FF
  8
STANDARD
  6
CONTINUOUS
 62
     7
 10
438.3390800895
 20
175.9963885446
 30
0.0
 11
432.0390800895
 21
175.9963885446
 31
0.0
  0
LINE
  5
100
  8
STANDARD
  6
CONTINUOUS
 62
     7
 10
438.3390800895
 20
169.6963885446
 30
0.0
 11
438.3390800895
 21
175.9963885446
 31
0.0
  0
LINE
  5
101
  8
STANDARD
  6
CONTINUOUS
 62
     7
 10
432.0390800895
 20
169.6963885446
 30
0.0
 11
438.3390800895
 21
169.6963885446
 31
0.0
  0
LINE
  5
102
  8
STANDARD
  6
CONTINUOUS
 62
     7
 10
419.4390800895
 20
188.5963885446
 30
0.0
 11
419.4390800895
 21
182.2963885446
 31
0.0
  0
LINE
  5
103
  8
STANDARD
  6
CONTINUOUS
 62
     7
 10
425.7390800895
 20
188.5963885446
 30
0.0
 11
419.4390800895
 21
188.5963885446
 31
0.0
  0
LINE
  5
104
  8
STANDARD
  6
CONTINUOUS
 62
     7
 10
425.7390800895
 20
182.2963885446
 30
0.0
 11
425.7390800895
 21
188.5963885446
 31
0.0
  0
CIRCLE
  5
105
  8
STANDARD
  6
CONTINUOUS
 62
     7
 10
428.8890800895
 20
179.1463885446
 30
0.0
 40
20.0
  0
ENDBLK
  5
107
  8
0
  0
BLOCK
  8
0
  2
SE16
 70
     0
 10
0.0
 20
0.0
 30
0.0
  3
SE16
  1

  0
INSERT
  5
10D
  8
STANDARD
  2
SE17
 10
0.0
 20
0.0
 30
0.0
  0
ENDBLK
  5
12C
  8
0
  0
BLOCK
  8
0
  2
SE17
 70
     0
 10
0.0
 20
0.0
 30
0.0
  3
SE17
  1

  0
ARC
  5
10E
  8
STANDARD
  6
CONTINUOUS
 62
     7
 10
267.4871568645
 20
332.6167160544
 30
0.0
 40
60.00000000000006
 50
270.0
 51
300.0000005611
  0
ARC
  5
10F
  8
STANDARD
  6
CONTINUOUS
 62
     7
 10
267.4871568645
 20
332.6167160544
 30
0.0
 40
100.0000035745447
 50
270.0
 51
300.0000003345
  0
ARC
  5
110
  8
STANDARD
  6
CONTINUOUS
 62
     7
 10
307.4871582654
 20
263.3346824966
 30
0.0
 40
20.00000178727235
 50
299.9999999946
 51
119.9999999898
  0
LINE
  5
111
  8
STANDARD
  6
CONTINUOUS
 62
     7
 10
267.4871568645
 20
238.9167160544
 30
0.0
 11
267.4871568645
 21
232.6167124798
 31
0.0
  0
LINE
  5
112
  8
STANDARD
  6
CONTINUOUS
 62
     7
 10
267.4871568645
 20
272.6167160544
 30
0.0
 11
267.4871568645
 21
266.3167160544
 31
0.0
  0
LINE
  5
113
  8
STANDARD
  6
CONTINUOUS
 62
     7
 10
261.1871568645
 20
245.2167160544
 30
0.0
 11
267.4871568645
 21
245.2167160544
 31
0.0
  0
LINE
  5
114
  8
STANDARD
  6
CONTINUOUS
 62
     7
 10
261.1871568645
 20
238.9167160544
 30
0.0
 11
261.1871568645
 21
245.2167160544
 31
0.0
  0
LINE
  5
115
  8
STANDARD
  6
CONTINUOUS
 62
     7
 10
267.4871568645
 20
238.9167160544
 30
0.0
 11
261.1871568645
 21
238.9167160544
 31
0.0
  0
LINE
  5
116
  8
STANDARD
  6
CONTINUOUS
 62
     7
 10
261.1871568645
 20
266.3167160544
 30
0.0
 11
267.4871568645
 21
266.3167160544
 31
0.0
  0
LINE
  5
117
  8
STANDARD
  6
CONTINUOUS
 62
     7
 10
261.1871568645
 20
260.0167160544
 30
0.0
 11
261.1871568645
 21
266.3167160544
 31
0.0
  0
LINE
  5
118
  8
STANDARD
  6
CONTINUOUS
 62
     7
 10
267.4871568645
 20
260.0167160544
 30
0.0
 11
261.1871568645
 21
260.0167160544
 31
0.0
  0
LINE
  5
119
  8
STANDARD
  6
CONTINUOUS
 62
     7
 10
267.4871568645
 20
260.0167160544
 30
0.0
 11
267.4871568645
 21
245.2167160544
 31
0.0
  0
INSERT
  5
11B
  8
0
  2
SE18
 10
0.0
 20
0.0
 30
0.0
  0
CIRCLE
  5
128
  8
STANDARD
  6
CONTINUOUS
 62
     7
 10
307.4871582654
 20
263.3346824966
 30
0.0
 40
2.0
  0
ENDBLK
  5
12A
  8
0
  0
BLOCK
  8
0
  2
SE18
 70
     0
 10
0.0
 20
0.0
 30
0.0
  3
SE18
  1

  0
INSERT
  5
11D
  8
STANDARD
  2
SE19
 10
0.0
 20
0.0
 30
0.0
  0
ENDBLK
  5
127
  8
0
  0
BLOCK
  8
0
  2
SE19
 70
     0
 10
0.0
 20
0.0
 30
0.0
  3
SE19
  1

  0
LINE
  5
11E
  8
STANDARD
  6
CONTINUOUS
 62
     7
 10
309.4501491806
 20
259.9346824966
 30
0.0
 11
311.4131400959
 21
263.3346824966
 31
0.0
  0
LINE
  5
11F
  8
STANDARD
  6
CONTINUOUS
 62
     7
 10
311.4131400959
 20
263.3346824966
 30
0.0
 11
309.4501491806
 21
266.7346824966
 31
0.0
  0
LINE
  5
120
  8
STANDARD
  6
CONTINUOUS
 62
     7
 10
309.4501491806
 20
266.7346824966
 30
0.0
 11
305.5241673501
 21
266.7346824966
 31
0.0
  0
LINE
  5
121
  8
STANDARD
  6
CONTINUOUS
 62
     7
 10
305.5241673501
 20
266.7346824966
 30
0.0
 11
303.5611764349
 21
263.3346824966
 31
0.0
  0
LINE
  5
122
  8
STANDARD
  6
CONTINUOUS
 62
     7
 10
303.5611764349
 20
263.3346824966
 30
0.0
 11
305.5241673501
 21
259.9346824966
 31
0.0
  0
LINE
  5
123
  8
STANDARD
  6
CONTINUOUS
 62
     7
 10
305.5241673501
 20
259.9346824966
 30
0.0
 11
309.4501491806
 21
259.9346824966
 31
0.0
  0
ENDBLK
  5
125
  8
0
  0
BLOCK
  8
0
  2
SE20
 70
     0
 10
0.0
 20
0.0
 30
0.0
  3
SE20
  1

  0
INSERT
  5
130
  8
STANDARD
  2
SE21
 10
0.0
 20
0.0
 30
0.0
  0
ENDBLK
  5
142
  8
0
  0
BLOCK
  8
0
  2
SE21
 70
     0
 10
0.0
 20
0.0
 30
0.0
  3
SE21
  1

  0
LINE
  5
131
  8
STANDARD
  6
CONTINUOUS
 62
     7
 10
325.4486396622
 20
243.3346824966
 30
0.0
 11
340.7871582654
 21
243.3346824966
 31
0.0
  0
LINE
  5
132
  8
STANDARD
  6
CONTINUOUS
 62
     7
 10
340.7871582654
 20
243.3346824966
 30
0.0
 11
340.7871582654
 21
266.4846824966
 31
0.0
  0
LINE
  5
133
  8
STANDARD
  6
CONTINUOUS
 62
     7
 10
340.7871582654
 20
283.3346824966
 30
0.0
 11
325.4486396622
 21
283.3346824966
 31
0.0
  0
LINE
  5
134
  8
STANDARD
  6
CONTINUOUS
 62
     7
 10
340.7871582654
 20
272.7846824966
 30
0.0
 11
347.0871582654
 21
272.7846824966
 31
0.0
  0
LINE
  5
135
  8
STANDARD
  6
CONTINUOUS
 62
     7
 10
347.0871582654
 20
272.7846824966
 30
0.0
 11
347.0871582654
 21
266.4846824966
 31
0.0
  0
LINE
  5
136
  8
STANDARD
  6
CONTINUOUS
 62
     7
 10
347.0871582654
 20
266.4846824966
 30
0.0
 11
340.7871582654
 21
266.4846824966
 31
0.0
  0
ARC
  5
137
  8
STANDARD
  6
CONTINUOUS
 62
     7
 10
312.4871582654
 20
263.3346824966
 30
0.0
 40
22.0
 50
304.3011527568
 51
55.6988472432
  0
ARC
  5
138
  8
STANDARD
  6
CONTINUOUS
 62
     7
 10
325.4486396622
 20
282.3346824966
 30
0.0
 40
1.000000000000001
 50
90.0
 51
235.6988472432
  0
ARC
  5
139
  8
STANDARD
  6
CONTINUOUS
 62
     7
 10
325.4486396622
 20
244.3346824966
 30
0.0
 40
1.000000000000009
 50
124.3011527568
 51
270.0
  0
LINE
  5
13A
  8
STANDARD
  6
CONTINUOUS
 62
     7
 10
340.7871582654
 20
272.7846824966
 30
0.0
 11
340.7871582654
 21
283.3346824966
 31
0.0
  0
LINE
  5
13B
  8
STANDARD
  6
CONTINUOUS
 62
     7
 10
333.7871582654
 20
260.3224609936
 30
0.0
 11
333.7871582654
 21
258.8224609936
 31
0.0
  0
LINE
  5
13C
  8
STANDARD
  6
CONTINUOUS
 62
     7
 10
333.7871582654
 20
258.8224609936
 30
0.0
 11
341.2871582654
 21
258.8224609936
 31
0.0
  0
LINE
  5
13D
  8
STANDARD
  6
CONTINUOUS
 62
     7
 10
341.2871582654
 20
260.3224609936
 30
0.0
 11
333.7871582654
 21
260.3224609936
 31
0.0
  0
LINE
  5
13E
  8
STANDARD
  6
CONTINUOUS
 62
     7
 10
341.2871582654
 20
260.3224609936
 30
0.0
 11
341.2871582654
 21
258.8224609936
 31
0.0
  0
ENDBLK
  5
140
  8
0
  0
BLOCK
  8
0
  2
SE22
 70
     0
 10
0.0
 20
0.0
 30
0.0
  3
SE22
  1

  0
INSERT
  5
146
  8
STANDARD
  2
SE23
 10
0.0
 20
0.0
 30
0.0
  0
ENDBLK
  5
158
  8
0
  0
BLOCK
  8
0
  2
SE23
 70
     0
 10
0.0
 20
0.0
 30
0.0
  3
SE23
  1

  0
LINE
  5
147
  8
STANDARD
  6
CONTINUOUS
 62
     7
 10
208.8871568631
 20
260.6610207427
 30
0.0
 11
208.8871568631
 21
245.8610207427
 31
0.0
  0
CIRCLE
  5
148
  8
STANDARD
  6
CONTINUOUS
 62
     7
 10
168.8778778977
 20
263.9843393614
 30
0.0
 40
2.0
  0
LINE
  5
149
  8
STANDARD
  6
CONTINUOUS
 62
     7
 10
208.8871568631
 20
260.6610207427
 30
0.0
 11
215.1871568631
 21
260.6610207427
 31
0.0
  0
LINE
  5
14A
  8
STANDARD
  6
CONTINUOUS
 62
     7
 10
215.1871568631
 20
260.6610207427
 30
0.0
 11
215.1871568631
 21
266.9610207427
 31
0.0
  0
LINE
  5
14B
  8
STANDARD
  6
CONTINUOUS
 62
     7
 10
215.1871568631
 20
266.9610207427
 30
0.0
 11
208.8871568631
 21
266.9610207427
 31
0.0
  0
LINE
  5
14C
  8
STANDARD
  6
CONTINUOUS
 62
     7
 10
208.8871568631
 20
239.5610207427
 30
0.0
 11
215.1871568631
 21
239.5610207427
 31
0.0
  0
LINE
  5
14D
  8
STANDARD
  6
CONTINUOUS
 62
     7
 10
215.1871568631
 20
239.5610207427
 30
0.0
 11
215.1871568631
 21
245.8610207427
 31
0.0
  0
LINE
  5
14E
  8
STANDARD
  6
CONTINUOUS
 62
     7
 10
215.1871568631
 20
245.8610207427
 30
0.0
 11
208.8871568631
 21
245.8610207427
 31
0.0
  0
LINE
  5
14F
  8
STANDARD
  6
CONTINUOUS
 62
     7
 10
208.8871568631
 20
273.2610207427
 30
0.0
 11
208.8871568631
 21
266.9610207427
 31
0.0
  0
LINE
  5
150
  8
STANDARD
  6
CONTINUOUS
 62
     7
 10
208.8871568631
 20
239.5610207427
 30
0.0
 11
208.8871568631
 21
233.2610171682
 31
0.0
  0
CIRCLE
  5
151
  8
STANDARD
  6
CONTINUOUS
 62
     7
 10
168.8778778977
 20
263.9843393614
 30
0.0
 40
3.5
  0
ARC
  5
152
  8
STANDARD
  6
CONTINUOUS
 62
     7
 10
168.8871554623
 20
263.978987185
 30
0.0
 40
20.00000178727235
 50
60.0000000102
 51
240.0000000054
  0
ARC
  5
153
  8
STANDARD
  6
CONTINUOUS
 62
     7
 10
208.8871568631
 20
333.2610207427
 30
0.0
 40
100.0000035745447
 50
239.9999996655
 51
270.0
  0
ARC
  5
154
  8
STANDARD
  6
CONTINUOUS
 62
     7
 10
208.8871568631
 20
333.2610207427
 30
0.0
 40
60.00000000000006
 50
239.9999994389
 51
270.0
  0
ENDBLK
  5
156
  8
0
  0
BLOCK
  8
0
  2
SE24
 70
     0
 10
0.0
 20
0.0
 30
0.0
  3
SE24
  1

  0
INSERT
  5
15C
  8
STANDARD
  2
SE25
 10
0.0
 20
0.0
 30
0.0
  0
ENDBLK
  5
16E
  8
0
  0
BLOCK
  8
0
  2
SE25
 70
     0
 10
0.0
 20
0.0
 30
0.0
  3
SE25
  1

  0
LINE
  5
15D
  8
STANDARD
  6
CONTINUOUS
 62
     7
 10
395.4306219722
 20
259.8378303956
 30
0.0
 11
395.4306219722
 21
275.1763489988
 31
0.0
  0
LINE
  5
15E
  8
STANDARD
  6
CONTINUOUS
 62
     7
 10
395.4306219722
 20
275.1763489988
 30
0.0
 11
372.2806219722
 21
275.1763489988
 31
0.0
  0
LINE
  5
15F
  8
STANDARD
  6
CONTINUOUS
 62
     7
 10
355.4306219722
 20
275.1763489988
 30
0.0
 11
355.4306219722
 21
259.8378303956
 31
0.0
  0
LINE
  5
160
  8
STANDARD
  6
CONTINUOUS
 62
     7
 10
365.9806219722
 20
275.1763489988
 30
0.0
 11
365.9806219722
 21
281.4763489988
 31
0.0
  0
LINE
  5
161
  8
STANDARD
  6
CONTINUOUS
 62
     7
 10
365.9806219722
 20
281.4763489988
 30
0.0
 11
372.2806219722
 21
281.4763489988
 31
0.0
  0
LINE
  5
162
  8
STANDARD
  6
CONTINUOUS
 62
     7
 10
372.2806219722
 20
281.4763489988
 30
0.0
 11
372.2806219722
 21
275.1763489988
 31
0.0
  0
ARC
  5
163
  8
STANDARD
  6
CONTINUOUS
 62
     7
 10
375.4306219722
 20
246.8763489988
 30
0.0
 40
22.0
 50
34.3011527568
 51
145.6988472432
  0
ARC
  5
164
  8
STANDARD
  6
CONTINUOUS
 62
     7
 10
356.4306219722
 20
259.8378303956
 30
0.0
 40
1.000000000000001
 50
180.0
 51
325.6988472432
  0
ARC
  5
165
  8
STANDARD
  6
CONTINUOUS
 62
     7
 10
394.4306219722
 20
259.8378303956
 30
0.0
 40
1.000000000000009
 50
214.3011527568
 51
0.0
  0
LINE
  5
166
  8
STANDARD
  6
CONTINUOUS
 62
     7
 10
365.9806219722
 20
275.1763489988
 30
0.0
 11
355.4306219722
 21
275.1763489988
 31
0.0
  0
LINE
  5
167
  8
STANDARD
  6
CONTINUOUS
 62
     7
 10
378.4428434753
 20
268.1763489988
 30
0.0
 11
379.9428434753
 21
268.1763489988
 31
0.0
  0
LINE
  5
168
  8
STANDARD
  6
CONTINUOUS
 62
     7
 10
379.9428434753
 20
268.1763489988
 30
0.0
 11
379.9428434753
 21
275.6763489988
 31
0.0
  0
LINE
  5
169
  8
STANDARD
  6
CONTINUOUS
 62
     7
 10
378.4428434753
 20
275.6763489988
 30
0.0
 11
378.4428434753
 21
268.1763489988
 31
0.0
  0
LINE
  5
16A
  8
STANDARD
  6
CONTINUOUS
 62
     7
 10
378.4428434753
 20
275.6763489988
 30
0.0
 11
379.9428434753
 21
275.6763489988
 31
0.0
  0
ENDBLK
  5
16C
  8
0
  0
BLOCK
  8
0
  2
SE26
 70
     0
 10
0.0
 20
0.0
 30
0.0
  3
SE26
  1

  0
INSERT
  5
172
  8
STANDARD
  2
SE27
 10
0.0
 20
0.0
 30
0.0
  0
ENDBLK
  5
1D3
  8
0
  0
BLOCK
  8
0
  2
SE27
 70
     0
 10
0.0
 20
0.0
 30
0.0
  3
SE27
  1

  0
LINE
  5
173
  8
STANDARD
  6
CONTINUOUS
 62
     7
 10
348.0632850793
 20
210.4816095068
 30
0.0
 11
345.2993452973
 21
208.8858481297
 31
0.0
  0
LINE
  5
174
  8
STANDARD
  6
CONTINUOUS
 62
     7
 10
345.2993452973
 20
208.8858481297
 30
0.0
 11
348.4493452973
 21
203.4298880858
 31
0.0
  0
LINE
  5
175
  8
STANDARD
  6
CONTINUOUS
 62
     7
 10
348.4493452973
 20
203.4298880858
 30
0.0
 11
351.2132850793
 21
205.025649463
 31
0.0
  0
LINE
  5
176
  8
STANDARD
  6
CONTINUOUS
 62
     7
 10
347.1196852765
 20
228.2416076013
 30
0.0
 11
343.9766489242
 21
228.7958097115
 31
0.0
  0
LINE
  5
177
  8
STANDARD
  6
CONTINUOUS
 62
     7
 10
343.9766489242
 20
228.7958097115
 30
0.0
 11
342.8826654049
 21
222.5915208675
 31
0.0
  0
LINE
  5
178
  8
STANDARD
  6
CONTINUOUS
 62
     7
 10
342.8826654049
 20
222.5915208675
 30
0.0
 11
346.0257017572
 21
222.0373187573
 31
0.0
  0
LINE
  5
179
  8
STANDARD
  6
CONTINUOUS
 62
     7
 10
357.8127526142
 20
242.4530897131
 30
0.0
 11
355.7612813318
 21
244.897937984
 31
0.0
  0
LINE
  5
17A
  8
STANDARD
  6
CONTINUOUS
 62
     7
 10
355.7612813318
 20
244.897937984
 30
0.0
 11
350.9352013401
 21
240.848376043
 31
0.0
  0
LINE
  5
17B
  8
STANDARD
  6
CONTINUOUS
 62
     7
 10
350.9352013401
 20
240.848376043
 30
0.0
 11
352.9866726226
 21
238.403527772
 31
0.0
  0
LINE
  5
17C
  8
STANDARD
  6
CONTINUOUS
 62
     7
 10
375.1390820449
 20
246.4663454191
 30
0.0
 11
375.1390820449
 21
249.6578681733
 31
0.0
  0
LINE
  5
17D
  8
STANDARD
  6
CONTINUOUS
 62
     7
 10
375.1390820449
 20
249.6578681733
 30
0.0
 11
368.8390820449
 21
249.6578681733
 31
0.0
  0
LINE
  5
17E
  8
STANDARD
  6
CONTINUOUS
 62
     7
 10
368.8390820449
 20
249.6578681733
 30
0.0
 11
368.8390820449
 21
246.4663454191
 31
0.0
  0
LINE
  5
17F
  8
STANDARD
  6
CONTINUOUS
 62
     7
 10
390.9914914673
 20
238.403527772
 30
0.0
 11
393.0429627497
 21
240.848376043
 31
0.0
  0
LINE
  5
180
  8
STANDARD
  6
CONTINUOUS
 62
     7
 10
393.0429627497
 20
240.848376043
 30
0.0
 11
388.2168827581
 21
244.897937984
 31
0.0
  0
LINE
  5
181
  8
STANDARD
  6
CONTINUOUS
 62
     7
 10
388.2168827581
 20
244.897937984
 30
0.0
 11
386.1654114756
 21
242.4530897131
 31
0.0
  0
LINE
  5
182
  8
STANDARD
  6
CONTINUOUS
 62
     7
 10
397.9524623327
 20
222.0373187573
 30
0.0
 11
401.095498685
 21
222.5915208675
 31
0.0
  0
LINE
  5
183
  8
STANDARD
  6
CONTINUOUS
 62
     7
 10
401.095498685
 20
222.5915208675
 30
0.0
 11
400.0015151657
 21
228.7958097115
 31
0.0
  0
LINE
  5
184
  8
STANDARD
  6
CONTINUOUS
 62
     7
 10
400.0015151657
 20
228.7958097115
 30
0.0
 11
396.8584788134
 21
228.2416076013
 31
0.0
  0
LINE
  5
185
  8
STANDARD
  6
CONTINUOUS
 62
     7
 10
392.7648790106
 20
205.025649463
 30
0.0
 11
395.5288187925
 21
203.4298880858
 31
0.0
  0
LINE
  5
186
  8
STANDARD
  6
CONTINUOUS
 62
     7
 10
395.5288187925
 20
203.4298880858
 30
0.0
 11
398.6788187925
 21
208.8858481297
 31
0.0
  0
LINE
  5
187
  8
STANDARD
  6
CONTINUOUS
 62
     7
 10
398.6788187925
 20
208.8858481297
 30
0.0
 11
395.9148790106
 21
210.4816095068
 31
0.0
  0
LINE
  5
188
  8
STANDARD
  6
CONTINUOUS
 62
     7
 10
377.856069391
 20
195.3284690155
 30
0.0
 11
378.9476344608
 21
192.3294186343
 31
0.0
  0
LINE
  5
189
  8
STANDARD
  6
CONTINUOUS
 62
     7
 10
378.9476344608
 20
192.3294186343
 30
0.0
 11
384.8676979718
 21
194.4841455372
 31
0.0
  0
LINE
  5
18A
  8
STANDARD
  6
CONTINUOUS
 62
     7
 10
384.8676979718
 20
194.4841455372
 30
0.0
 11
383.776132902
 21
197.4831959185
 31
0.0
  0
LINE
  5
18B
  8
STANDARD
  6
CONTINUOUS
 62
     7
 10
360.2020311879
 20
197.4831959185
 30
0.0
 11
359.1104661181
 21
194.4841455372
 31
0.0
  0
LINE
  5
18C
  8
STANDARD
  6
CONTINUOUS
 62
     7
 10
359.1104661181
 20
194.4841455372
 30
0.0
 11
365.030529629
 21
192.3294186343
 31
0.0
  0
LINE
  5
18D
  8
STANDARD
  6
CONTINUOUS
 62
     7
 10
365.030529629
 20
192.3294186343
 30
0.0
 11
366.1220946988
 21
195.3284690155
 31
0.0
  0
LINE
  5
18E
  8
STANDARD
  6
CONTINUOUS
 62
     7
 10
388.1838221401
 20
226.7120315814
 30
0.0
 11
389.2778056594
 21
220.5077427374
 31
0.0
  0
LINE
  5
18F
  8
STANDARD
  6
CONTINUOUS
 62
     7
 10
389.2778056594
 20
220.5077427374
 30
0.0
 11
391.9864009006
 21
220.9853411582
 31
0.0
  0
LINE
  5
190
  8
STANDARD
  6
CONTINUOUS
 62
     7
 10
390.8924173813
 20
227.1896300022
 30
0.0
 11
388.1838221401
 21
226.7120315814
 31
0.0
  0
LINE
  5
191
  8
STANDARD
  6
CONTINUOUS
 62
     7
 10
388.2865139564
 20
214.8858481243
 30
0.0
 11
385.1365139564
 21
209.4298880805
 31
0.0
  0
LINE
  5
192
  8
STANDARD
  6
CONTINUOUS
 62
     7
 10
385.1365139564
 20
209.4298880805
 30
0.0
 11
387.5184126369
 21
208.0546982361
 31
0.0
  0
LINE
  5
193
  8
STANDARD
  6
CONTINUOUS
 62
     7
 10
390.6684126369
 20
213.5106582799
 30
0.0
 11
388.2865139564
 21
214.8858481243
 31
0.0
  0
LINE
  5
194
  8
STANDARD
  6
CONTINUOUS
 62
     7
 10
380.7634562556
 20
205.7604569766
 30
0.0
 11
374.8433927446
 21
203.6057300736
 31
0.0
  0
LINE
  5
195
  8
STANDARD
  6
CONTINUOUS
 62
     7
 10
374.8433927446
 20
203.6057300736
 30
0.0
 11
375.784078
 21
201.0212185757
 31
0.0
  0
LINE
  5
196
  8
STANDARD
  6
CONTINUOUS
 62
     7
 10
381.7041415109
 20
203.1759454787
 30
0.0
 11
380.7634562556
 21
205.7604569766
 31
0.0
  0
LINE
  5
197
  8
STANDARD
  6
CONTINUOUS
 62
     7
 10
369.1347713452
 20
203.6057300736
 30
0.0
 11
363.2147078343
 21
205.7604569766
 31
0.0
  0
LINE
  5
198
  8
STANDARD
  6
CONTINUOUS
 62
     7
 10
363.2147078343
 20
205.7604569766
 30
0.0
 11
362.274022579
 21
203.1759454787
 31
0.0
  0
LINE
  5
199
  8
STANDARD
  6
CONTINUOUS
 62
     7
 10
368.1940860899
 20
201.0212185757
 30
0.0
 11
369.1347713452
 21
203.6057300736
 31
0.0
  0
LINE
  5
19A
  8
STANDARD
  6
CONTINUOUS
 62
     7
 10
358.8416501335
 20
209.4298880805
 30
0.0
 11
355.6916501335
 21
214.8858481243
 31
0.0
  0
LINE
  5
19B
  8
STANDARD
  6
CONTINUOUS
 62
     7
 10
355.6916501335
 20
214.8858481243
 30
0.0
 11
353.3097514529
 21
213.5106582799
 31
0.0
  0
LINE
  5
19C
  8
STANDARD
  6
CONTINUOUS
 62
     7
 10
356.4597514529
 20
208.0546982361
 30
0.0
 11
358.8416501335
 21
209.4298880805
 31
0.0
  0
LINE
  5
19D
  8
STANDARD
  6
CONTINUOUS
 62
     7
 10
354.7003584305
 20
220.5077427374
 30
0.0
 11
355.7943419498
 21
226.7120315814
 31
0.0
  0
LINE
  5
19E
  8
STANDARD
  6
CONTINUOUS
 62
     7
 10
355.7943419498
 20
226.7120315814
 30
0.0
 11
353.0857467086
 21
227.1896300022
 31
0.0
  0
LINE
  5
19F
  8
STANDARD
  6
CONTINUOUS
 62
     7
 10
351.9917631893
 20
220.9853411582
 30
0.0
 11
354.7003584305
 21
220.5077427374
 31
0.0
  0
LINE
  5
1A0
  8
STANDARD
  6
CONTINUOUS
 62
     7
 10
358.6486526494
 20
231.6558427338
 30
0.0
 11
363.4747326411
 21
235.7054046748
 31
0.0
  0
LINE
  5
1A1
  8
STANDARD
  6
CONTINUOUS
 62
     7
 10
363.4747326411
 20
235.7054046748
 30
0.0
 11
361.7068226552
 21
237.8123177519
 31
0.0
  0
LINE
  5
1A2
  8
STANDARD
  6
CONTINUOUS
 62
     7
 10
356.8807426636
 20
233.7627558108
 30
0.0
 11
358.6486526494
 21
231.6558427338
 31
0.0
  0
INSERT
  5
1A4
  8
0
  2
SE28
 10
0.0
 20
0.0
 30
0.0
  0
INSERT
  5
1AF
  8
0
  2
SE30
 10
0.0
 20
0.0
 30
0.0
  0
ARC
  5
1B9
  8
STANDARD
  6
CONTINUOUS
 62
     7
 10
371.9890820449
 20
220.6578681296
 30
0.0
 40
20.0
 50
219.0618169539
 51
240.9381830461
  0
ARC
  5
1BA
  8
STANDARD
  6
CONTINUOUS
 62
     7
 10
371.9890820449
 20
220.6578681296
 30
0.0
 40
20.0
 50
299.0618169539
 51
320.9381830461
  0
ARC
  5
1BB
  8
STANDARD
  6
CONTINUOUS
 62
     7
 10
371.9890820449
 20
220.6578681296
 30
0.0
 40
20.0
 50
339.0618169539
 51
0.9381830461
  0
ARC
  5
1BC
  8
STANDARD
  6
CONTINUOUS
 62
     7
 10
371.9890820449
 20
220.6578681296
 30
0.0
 40
20.0
 50
19.0618169539
 51
40.9381830461
  0
ARC
  5
1BD
  8
STANDARD
  6
CONTINUOUS
 62
     7
 10
371.9890820449
 20
220.6578681296
 30
0.0
 40
20.0
 50
59.0618169539
 51
80.9381830461
  0
ARC
  5
1BE
  8
STANDARD
  6
CONTINUOUS
 62
     7
 10
371.9890820449
 20
220.6578681296
 30
0.0
 40
20.0
 50
99.0618169539
 51
120.9381830461
  0
ARC
  5
1BF
  8
STANDARD
  6
CONTINUOUS
 62
     7
 10
371.9890820449
 20
220.6578681296
 30
0.0
 40
20.0
 50
139.0618169539
 51
160.9381830461
  0
ARC
  5
1C0
  8
STANDARD
  6
CONTINUOUS
 62
     7
 10
371.9890820449
 20
220.6578681296
 30
0.0
 40
20.0
 50
179.0618169539
 51
200.9381830461
  0
ARC
  5
1C1
  8
STANDARD
  6
CONTINUOUS
 62
     7
 10
371.9890820449
 20
220.6578681296
 30
0.0
 40
20.0
 50
259.0618169539
 51
280.9381830461
  0
ARC
  5
1C2
  8
STANDARD
  6
CONTINUOUS
 62
     7
 10
371.9890820449
 20
220.6578681296
 30
0.0
 40
26.00000000000014
 50
216.9586989863
 51
243.0413010137
  0
ARC
  5
1C3
  8
STANDARD
  6
CONTINUOUS
 62
     7
 10
371.9890820449
 20
220.6578681296
 30
0.0
 40
26.00000000000014
 50
296.9586989863
 51
323.0413010137
  0
ARC
  5
1C4
  8
STANDARD
  6
CONTINUOUS
 62
     7
 10
371.9890820449
 20
220.6578681296
 30
0.0
 40
26.00000000000014
 50
336.9586989863
 51
3.0413010137
  0
ARC
  5
1C5
  8
STANDARD
  6
CONTINUOUS
 62
     7
 10
371.9890820449
 20
220.6578681296
 30
0.0
 40
26.00000000000014
 50
16.9586989863
 51
43.0413010137
  0
ARC
  5
1C6
  8
STANDARD
  6
CONTINUOUS
 62
     7
 10
371.9890820449
 20
220.6578681296
 30
0.0
 40
26.00000000000014
 50
56.9586989863
 51
83.0413010137
  0
ARC
  5
1C7
  8
STANDARD
  6
CONTINUOUS
 62
     7
 10
371.9890820449
 20
220.6578681296
 30
0.0
 40
26.00000000000014
 50
176.9586989863
 51
203.0413010137
  0
ARC
  5
1C8
  8
STANDARD
  6
CONTINUOUS
 62
     7
 10
371.9890820449
 20
220.6578681296
 30
0.0
 40
26.00000000000014
 50
136.9586989863
 51
163.0413010137
  0
ARC
  5
1C9
  8
STANDARD
  6
CONTINUOUS
 62
     7
 10
371.9890820449
 20
220.6578681296
 30
0.0
 40
26.00000000000014
 50
96.9586989863
 51
123.0413010137
  0
ARC
  5
1CA
  8
STANDARD
  6
CONTINUOUS
 62
     7
 10
371.9890820449
 20
220.6578681296
 30
0.0
 40
26.00000000000014
 50
256.9586989863
 51
283.0413010137
  0
CIRCLE
  5
1CB
  8
STANDARD
  6
CONTINUOUS
 62
     7
 10
371.9890820449
 20
220.6578678523
 30
0.0
 40
32.0
  0
ARC
  5
1CC
  8
STANDARD
  6
CONTINUOUS
 62
     7
 10
371.9890820449
 20
235.5578681296
 30
0.0
 40
1.5
 50
219.2137135657
 51
320.7862864343
  0
ARC
  5
1CD
  8
STANDARD
  6
CONTINUOUS
 62
     7
 10
371.9890820449
 20
205.7578681296
 30
0.0
 40
1.5
 50
39.2137135657
 51
140.7862864343
  0
ARC
  5
1CE
  8
STANDARD
  6
CONTINUOUS
 62
     7
 10
371.9890820449
 20
220.6578681296
 30
0.0
 40
14.0
 50
94.7618062691
 51
265.2381937309
  0
ARC
  5
1CF
  8
STANDARD
  6
CONTINUOUS
 62
     7
 10
371.9890820449
 20
220.6578681296
 30
0.0
 40
14.0
 50
274.7618062691
 51
85.2381937309
  0
ENDBLK
  5
1D1
  8
0
  0
BLOCK
  8
0
  2
SE28
 70
     0
 10
0.0
 20
0.0
 30
0.0
  3
SE28
  1

  0
INSERT
  5
1A6
  8
STANDARD
  2
SE29
 10
0.0
 20
0.0
 30
0.0
  0
ENDBLK
  5
1AD
  8
0
  0
BLOCK
  8
0
  2
SE29
 70
     0
 10
0.0
 20
0.0
 30
0.0
  3
SE29
  1

  0
LINE
  5
1A7
  8
STANDARD
  6
CONTINUOUS
 62
     7
 10
382.2713414346
 20
237.8123177519
 30
0.0
 11
380.5034314488
 21
235.7054046748
 31
0.0
  0
LINE
  5
1A8
  8
STANDARD
  6
CONTINUOUS
 62
     7
 10
385.3295114404
 20
231.6558427338
 30
0.0
 11
387.0974214263
 21
233.7627558108
 31
0.0
  0
LINE
  5
1A9
  8
STANDARD
  6
CONTINUOUS
 62
     7
 10
380.5034314488
 20
235.7054046748
 30
0.0
 11
385.3295114404
 21
231.6558427338
 31
0.0
  0
ENDBLK
  5
1AB
  8
0
  0
BLOCK
  8
0
  2
SE30
 70
     0
 10
0.0
 20
0.0
 30
0.0
  3
SE30
  1

  0
INSERT
  5
1B1
  8
STANDARD
  2
SE31
 10
0.0
 20
0.0
 30
0.0
  0
ENDBLK
  5
1B8
  8
0
  0
BLOCK
  8
0
  2
SE31
 70
     0
 10
0.0
 20
0.0
 30
0.0
  3
SE31
  1

  0
LINE
  5
1B2
  8
STANDARD
  6
CONTINUOUS
 62
     7
 10
368.8390820449
 20
240.4082478728
 30
0.0
 11
368.8390820449
 21
237.657868184
 31
0.0
  0
LINE
  5
1B3
  8
STANDARD
  6
CONTINUOUS
 62
     7
 10
375.1390820449
 20
237.657868184
 30
0.0
 11
375.1390820449
 21
240.4082478728
 31
0.0
  0
LINE
  5
1B4
  8
STANDARD
  6
CONTINUOUS
 62
     7
 10
368.8390820449
 20
237.657868184
 30
0.0
 11
375.1390820449
 21
237.657868184
 31
0.0
  0
ENDBLK
  5
1B6
  8
0
  0
BLOCK
  8
0
  2
SE32
 70
     0
 10
0.0
 20
0.0
 30
0.0
  3
SE32
  1

  0
INSERT
  5
1D7
  8
STANDARD
  2
SE33
 10
0.0
 20
0.0
 30
0.0
  0
ENDBLK
  5
28F
  8
0
  0
BLOCK
  8
0
  2
SE33
 70
     0
 10
0.0
 20
0.0
 30
0.0
  3
SE33
  1

  0
INSERT
  5
1D9
  8
0
  2
SE34
 10
0.0
 20
0.0
 30
0.0
  0
INSERT
  5
1ED
  8
0
  2
SE36
 10
0.0
 20
0.0
 30
0.0
  0
INSERT
  5
201
  8
0
  2
SE38
 10
0.0
 20
0.0
 30
0.0
  0
INSERT
  5
215
  8
0
  2
SE40
 10
0.0
 20
0.0
 30
0.0
  0
INSERT
  5
229
  8
0
  2
SE42
 10
0.0
 20
0.0
 30
0.0
  0
INSERT
  5
23D
  8
0
  2
SE44
 10
0.0
 20
0.0
 30
0.0
  0
INSERT
  5
251
  8
0
  2
SE46
 10
0.0
 20
0.0
 30
0.0
  0
INSERT
  5
265
  8
0
  2
SE48
 10
0.0
 20
0.0
 30
0.0
  0
INSERT
  5
279
  8
0
  2
SE50
 10
0.0
 20
0.0
 30
0.0
  0
ENDBLK
  5
28D
  8
0
  0
BLOCK
  8
0
  2
SE34
 70
     0
 10
0.0
 20
0.0
 30
0.0
  3
SE34
  1

  0
INSERT
  5
1DB
  8
STANDARD
  2
SE35
 10
0.0
 20
0.0
 30
0.0
  0
ENDBLK
  5
1EB
  8
0
  0
BLOCK
  8
0
  2
SE35
 70
     0
 10
0.0
 20
0.0
 30
0.0
  3
SE35
  1

  0
LINE
  5
1DC
  8
STANDARD
  6
CONTINUOUS
 62
     7
 10
297.4220347919
 20
143.9767025435
 30
0.0
 11
300.4220347919
 21
143.9767025435
 31
0.0
  0
LINE
  5
1DD
  8
STANDARD
  6
CONTINUOUS
 62
     7
 10
288.4220347919
 20
177.7767025435
 30
0.0
 11
288.4220347919
 21
184.0767025435
 31
0.0
  0
LINE
  5
1DE
  8
STANDARD
  6
CONTINUOUS
 62
     7
 10
285.4220347919
 20
177.7767025435
 30
0.0
 11
288.4220347919
 21
177.7767025435
 31
0.0
  0
LINE
  5
1DF
  8
STANDARD
  6
CONTINUOUS
 62
     7
 10
300.4220347919
 20
150.2767025435
 30
0.0
 11
303.4220347919
 21
150.2767025435
 31
0.0
  0
LINE
  5
1E0
  8
STANDARD
  6
CONTINUOUS
 62
     7
 10
297.4220347919
 20
150.2767025435
 30
0.0
 11
297.4220347919
 21
143.9767025435
 31
0.0
  0
LINE
  5
1E1
  8
STANDARD
  6
CONTINUOUS
 62
     7
 10
300.4220347919
 20
143.9767025435
 30
0.0
 11
300.4220347919
 21
150.2767025435
 31
0.0
  0
LINE
  5
1E2
  8
STANDARD
  6
CONTINUOUS
 62
     7
 10
288.4220347919
 20
184.0767025435
 30
0.0
 11
291.4220347919
 21
184.0767025435
 31
0.0
  0
ARC
  5
1E3
  8
STANDARD
  6
CONTINUOUS
 62
     7
 10
282.4220347919
 20
150.2767025435
 30
0.0
 40
21.0
 50
0.0
 51
47.1494124038
  0
ARC
  5
1E4
  8
STANDARD
  6
CONTINUOUS
 62
     7
 10
307.9324514586
 20
177.7767025435
 30
0.0
 40
16.51041666666627
 50
180.0
 51
227.1494124038
  0
LINE
  5
1E5
  8
STANDARD
  6
CONTINUOUS
 62
     7
 10
291.4220347919
 20
184.0767025435
 30
0.0
 11
291.4220347919
 21
177.7767025435
 31
0.0
  0
ARC
  5
1E6
  8
STANDARD
  6
CONTINUOUS
 62
     7
 10
307.9324514586
 20
177.7767025435
 30
0.0
 40
22.51041666666627
 50
180.0
 51
227.1494124038
  0
ARC
  5
1E7
  8
STANDARD
  6
CONTINUOUS
 62
     7
 10
282.4220347919
 20
150.2767025435
 30
0.0
 40
15.0
 50
0.0
 51
47.1494124038
  0
ENDBLK
  5
1E9
  8
0
  0
BLOCK
  8
0
  2
SE36
 70
     0
 10
0.0
 20
0.0
 30
0.0
  3
SE36
  1

  0
INSERT
  5
1EF
  8
STANDARD
  2
SE37
 10
0.0
 20
0.0
 30
0.0
  0
ENDBLK
  5
1FF
  8
0
  0
BLOCK
  8
0
  2
SE37
 70
     0
 10
0.0
 20
0.0
 30
0.0
  3
SE37
  1

  0
LINE
  5
1F0
  8
STANDARD
  6
CONTINUOUS
 62
     7
 10
311.4220347919
 20
143.9767025435
 30
0.0
 11
314.4220347919
 21
143.9767025435
 31
0.0
  0
LINE
  5
1F1
  8
STANDARD
  6
CONTINUOUS
 62
     7
 10
302.4220347919
 20
177.7767025435
 30
0.0
 11
302.4220347919
 21
184.0767025435
 31
0.0
  0
LINE
  5
1F2
  8
STANDARD
  6
CONTINUOUS
 62
     7
 10
299.4220347919
 20
177.7767025435
 30
0.0
 11
302.4220347919
 21
177.7767025435
 31
0.0
  0
LINE
  5
1F3
  8
STANDARD
  6
CONTINUOUS
 62
     7
 10
314.4220347919
 20
150.2767025435
 30
0.0
 11
317.4220347919
 21
150.2767025435
 31
0.0
  0
LINE
  5
1F4
  8
STANDARD
  6
CONTINUOUS
 62
     7
 10
311.4220347919
 20
150.2767025435
 30
0.0
 11
311.4220347919
 21
143.9767025435
 31
0.0
  0
LINE
  5
1F5
  8
STANDARD
  6
CONTINUOUS
 62
     7
 10
314.4220347919
 20
143.9767025435
 30
0.0
 11
314.4220347919
 21
150.2767025435
 31
0.0
  0
LINE
  5
1F6
  8
STANDARD
  6
CONTINUOUS
 62
     7
 10
302.4220347919
 20
184.0767025435
 30
0.0
 11
305.4220347919
 21
184.0767025435
 31
0.0
  0
ARC
  5
1F7
  8
STANDARD
  6
CONTINUOUS
 62
     7
 10
296.4220347919
 20
150.2767025435
 30
0.0
 40
21.0
 50
0.0
 51
47.1494124038
  0
ARC
  5
1F8
  8
STANDARD
  6
CONTINUOUS
 62
     7
 10
321.9324514586
 20
177.7767025435
 30
0.0
 40
16.51041666666627
 50
180.0
 51
227.1494124038
  0
LINE
  5
1F9
  8
STANDARD
  6
CONTINUOUS
 62
     7
 10
305.4220347919
 20
184.0767025435
 30
0.0
 11
305.4220347919
 21
177.7767025435
 31
0.0
  0
ARC
  5
1FA
  8
STANDARD
  6
CONTINUOUS
 62
     7
 10
321.9324514586
 20
177.7767025435
 30
0.0
 40
22.51041666666627
 50
180.0
 51
227.1494124038
  0
ARC
  5
1FB
  8
STANDARD
  6
CONTINUOUS
 62
     7
 10
296.4220347919
 20
150.2767025435
 30
0.0
 40
15.0
 50
0.0
 51
47.1494124038
  0
ENDBLK
  5
1FD
  8
0
  0
BLOCK
  8
0
  2
SE38
 70
     0
 10
0.0
 20
0.0
 30
0.0
  3
SE38
  1

  0
INSERT
  5
203
  8
STANDARD
  2
SE39
 10
0.0
 20
0.0
 30
0.0
  0
ENDBLK
  5
213
  8
0
  0
BLOCK
  8
0
  2
SE39
 70
     0
 10
0.0
 20
0.0
 30
0.0
  3
SE39
  1

  0
LINE
  5
204
  8
STANDARD
  6
CONTINUOUS
 62
     7
 10
325.4220347919
 20
143.9767025435
 30
0.0
 11
328.4220347919
 21
143.9767025435
 31
0.0
  0
LINE
  5
205
  8
STANDARD
  6
CONTINUOUS
 62
     7
 10
316.4220347919
 20
177.7767025435
 30
0.0
 11
316.4220347919
 21
184.0767025435
 31
0.0
  0
LINE
  5
206
  8
STANDARD
  6
CONTINUOUS
 62
     7
 10
313.4220347919
 20
177.7767025435
 30
0.0
 11
316.4220347919
 21
177.7767025435
 31
0.0
  0
LINE
  5
207
  8
STANDARD
  6
CONTINUOUS
 62
     7
 10
328.4220347919
 20
150.2767025435
 30
0.0
 11
331.4220347919
 21
150.2767025435
 31
0.0
  0
LINE
  5
208
  8
STANDARD
  6
CONTINUOUS
 62
     7
 10
325.4220347919
 20
150.2767025435
 30
0.0
 11
325.4220347919
 21
143.9767025435
 31
0.0
  0
LINE
  5
209
  8
STANDARD
  6
CONTINUOUS
 62
     7
 10
328.4220347919
 20
143.9767025435
 30
0.0
 11
328.4220347919
 21
150.2767025435
 31
0.0
  0
LINE
  5
20A
  8
STANDARD
  6
CONTINUOUS
 62
     7
 10
316.4220347919
 20
184.0767025435
 30
0.0
 11
319.4220347919
 21
184.0767025435
 31
0.0
  0
ARC
  5
20B
  8
STANDARD
  6
CONTINUOUS
 62
     7
 10
310.4220347919
 20
150.2767025435
 30
0.0
 40
21.0
 50
0.0
 51
47.1494124038
  0
ARC
  5
20C
  8
STANDARD
  6
CONTINUOUS
 62
     7
 10
335.9324514586
 20
177.7767025435
 30
0.0
 40
16.51041666666627
 50
180.0
 51
227.1494124038
  0
LINE
  5
20D
  8
STANDARD
  6
CONTINUOUS
 62
     7
 10
319.4220347919
 20
184.0767025435
 30
0.0
 11
319.4220347919
 21
177.7767025435
 31
0.0
  0
ARC
  5
20E
  8
STANDARD
  6
CONTINUOUS
 62
     7
 10
335.9324514586
 20
177.7767025435
 30
0.0
 40
22.51041666666627
 50
180.0
 51
227.1494124038
  0
ARC
  5
20F
  8
STANDARD
  6
CONTINUOUS
 62
     7
 10
310.4220347919
 20
150.2767025435
 30
0.0
 40
15.0
 50
0.0
 51
47.1494124038
  0
ENDBLK
  5
211
  8
0
  0
BLOCK
  8
0
  2
SE40
 70
     0
 10
0.0
 20
0.0
 30
0.0
  3
SE40
  1

  0
INSERT
  5
217
  8
STANDARD
  2
SE41
 10
0.0
 20
0.0
 30
0.0
  0
ENDBLK
  5
227
  8
0
  0
BLOCK
  8
0
  2
SE41
 70
     0
 10
0.0
 20
0.0
 30
0.0
  3
SE41
  1

  0
LINE
  5
218
  8
STANDARD
  6
CONTINUOUS
 62
     7
 10
339.4220347919
 20
143.9767025435
 30
0.0
 11
342.4220347919
 21
143.9767025435
 31
0.0
  0
LINE
  5
219
  8
STANDARD
  6
CONTINUOUS
 62
     7
 10
330.4220347919
 20
177.7767025435
 30
0.0
 11
330.4220347919
 21
184.0767025435
 31
0.0
  0
LINE
  5
21A
  8
STANDARD
  6
CONTINUOUS
 62
     7
 10
327.4220347919
 20
177.7767025435
 30
0.0
 11
330.4220347919
 21
177.7767025435
 31
0.0
  0
LINE
  5
21B
  8
STANDARD
  6
CONTINUOUS
 62
     7
 10
342.4220347919
 20
150.2767025435
 30
0.0
 11
345.4220347919
 21
150.2767025435
 31
0.0
  0
LINE
  5
21C
  8
STANDARD
  6
CONTINUOUS
 62
     7
 10
339.4220347919
 20
150.2767025435
 30
0.0
 11
339.4220347919
 21
143.9767025435
 31
0.0
  0
LINE
  5
21D
  8
STANDARD
  6
CONTINUOUS
 62
     7
 10
342.4220347919
 20
143.9767025435
 30
0.0
 11
342.4220347919
 21
150.2767025435
 31
0.0
  0
LINE
  5
21E
  8
STANDARD
  6
CONTINUOUS
 62
     7
 10
330.4220347919
 20
184.0767025435
 30
0.0
 11
333.4220347919
 21
184.0767025435
 31
0.0
  0
ARC
  5
21F
  8
STANDARD
  6
CONTINUOUS
 62
     7
 10
324.4220347919
 20
150.2767025435
 30
0.0
 40
21.0
 50
0.0
 51
47.1494124038
  0
ARC
  5
220
  8
STANDARD
  6
CONTINUOUS
 62
     7
 10
349.9324514586
 20
177.7767025435
 30
0.0
 40
16.51041666666627
 50
180.0
 51
227.1494124038
  0
LINE
  5
221
  8
STANDARD
  6
CONTINUOUS
 62
     7
 10
333.4220347919
 20
184.0767025435
 30
0.0
 11
333.4220347919
 21
177.7767025435
 31
0.0
  0
ARC
  5
222
  8
STANDARD
  6
CONTINUOUS
 62
     7
 10
349.9324514586
 20
177.7767025435
 30
0.0
 40
22.51041666666627
 50
180.0
 51
227.1494124038
  0
ARC
  5
223
  8
STANDARD
  6
CONTINUOUS
 62
     7
 10
324.4220347919
 20
150.2767025435
 30
0.0
 40
15.0
 50
0.0
 51
47.1494124038
  0
ENDBLK
  5
225
  8
0
  0
BLOCK
  8
0
  2
SE42
 70
     0
 10
0.0
 20
0.0
 30
0.0
  3
SE42
  1

  0
INSERT
  5
22B
  8
STANDARD
  2
SE43
 10
0.0
 20
0.0
 30
0.0
  0
ENDBLK
  5
23B
  8
0
  0
BLOCK
  8
0
  2
SE43
 70
     0
 10
0.0
 20
0.0
 30
0.0
  3
SE43
  1

  0
LINE
  5
22C
  8
STANDARD
  6
CONTINUOUS
 62
     7
 10
353.4220347919
 20
143.9767025435
 30
0.0
 11
356.4220347919
 21
143.9767025435
 31
0.0
  0
LINE
  5
22D
  8
STANDARD
  6
CONTINUOUS
 62
     7
 10
344.4220347919
 20
177.7767025435
 30
0.0
 11
344.4220347919
 21
184.0767025435
 31
0.0
  0
LINE
  5
22E
  8
STANDARD
  6
CONTINUOUS
 62
     7
 10
341.4220347919
 20
177.7767025435
 30
0.0
 11
344.4220347919
 21
177.7767025435
 31
0.0
  0
LINE
  5
22F
  8
STANDARD
  6
CONTINUOUS
 62
     7
 10
356.4220347919
 20
150.2767025435
 30
0.0
 11
359.4220347919
 21
150.2767025435
 31
0.0
  0
LINE
  5
230
  8
STANDARD
  6
CONTINUOUS
 62
     7
 10
353.4220347919
 20
150.2767025435
 30
0.0
 11
353.4220347919
 21
143.9767025435
 31
0.0
  0
LINE
  5
231
  8
STANDARD
  6
CONTINUOUS
 62
     7
 10
356.4220347919
 20
143.9767025435
 30
0.0
 11
356.4220347919
 21
150.2767025435
 31
0.0
  0
LINE
  5
232
  8
STANDARD
  6
CONTINUOUS
 62
     7
 10
344.4220347919
 20
184.0767025435
 30
0.0
 11
347.4220347919
 21
184.0767025435
 31
0.0
  0
ARC
  5
233
  8
STANDARD
  6
CONTINUOUS
 62
     7
 10
338.4220347919
 20
150.2767025435
 30
0.0
 40
21.0
 50
0.0
 51
47.1494124038
  0
ARC
  5
234
  8
STANDARD
  6
CONTINUOUS
 62
     7
 10
363.9324514586
 20
177.7767025435
 30
0.0
 40
16.51041666666627
 50
180.0
 51
227.1494124038
  0
LINE
  5
235
  8
STANDARD
  6
CONTINUOUS
 62
     7
 10
347.4220347919
 20
184.0767025435
 30
0.0
 11
347.4220347919
 21
177.7767025435
 31
0.0
  0
ARC
  5
236
  8
STANDARD
  6
CONTINUOUS
 62
     7
 10
363.9324514586
 20
177.7767025435
 30
0.0
 40
22.51041666666627
 50
180.0
 51
227.1494124038
  0
ARC
  5
237
  8
STANDARD
  6
CONTINUOUS
 62
     7
 10
338.4220347919
 20
150.2767025435
 30
0.0
 40
15.0
 50
0.0
 51
47.1494124038
  0
ENDBLK
  5
239
  8
0
  0
BLOCK
  8
0
  2
SE44
 70
     0
 10
0.0
 20
0.0
 30
0.0
  3
SE44
  1

  0
INSERT
  5
23F
  8
STANDARD
  2
SE45
 10
0.0
 20
0.0
 30
0.0
  0
ENDBLK
  5
24F
  8
0
  0
BLOCK
  8
0
  2
SE45
 70
     0
 10
0.0
 20
0.0
 30
0.0
  3
SE45
  1

  0
LINE
  5
240
  8
STANDARD
  6
CONTINUOUS
 62
     7
 10
367.4220347919
 20
143.9767025435
 30
0.0
 11
370.4220347919
 21
143.9767025435
 31
0.0
  0
LINE
  5
241
  8
STANDARD
  6
CONTINUOUS
 62
     7
 10
358.4220347919
 20
177.7767025435
 30
0.0
 11
358.4220347919
 21
184.0767025435
 31
0.0
  0
LINE
  5
242
  8
STANDARD
  6
CONTINUOUS
 62
     7
 10
355.4220347919
 20
177.7767025435
 30
0.0
 11
358.4220347919
 21
177.7767025435
 31
0.0
  0
LINE
  5
243
  8
STANDARD
  6
CONTINUOUS
 62
     7
 10
370.4220347919
 20
150.2767025435
 30
0.0
 11
373.4220347919
 21
150.2767025435
 31
0.0
  0
LINE
  5
244
  8
STANDARD
  6
CONTINUOUS
 62
     7
 10
367.4220347919
 20
150.2767025435
 30
0.0
 11
367.4220347919
 21
143.9767025435
 31
0.0
  0
LINE
  5
245
  8
STANDARD
  6
CONTINUOUS
 62
     7
 10
370.4220347919
 20
143.9767025435
 30
0.0
 11
370.4220347919
 21
150.2767025435
 31
0.0
  0
LINE
  5
246
  8
STANDARD
  6
CONTINUOUS
 62
     7
 10
358.4220347919
 20
184.0767025435
 30
0.0
 11
361.4220347919
 21
184.0767025435
 31
0.0
  0
ARC
  5
247
  8
STANDARD
  6
CONTINUOUS
 62
     7
 10
352.4220347919
 20
150.2767025435
 30
0.0
 40
21.0
 50
0.0
 51
47.1494124038
  0
ARC
  5
248
  8
STANDARD
  6
CONTINUOUS
 62
     7
 10
377.9324514586
 20
177.7767025435
 30
0.0
 40
16.51041666666627
 50
180.0
 51
227.1494124038
  0
LINE
  5
249
  8
STANDARD
  6
CONTINUOUS
 62
     7
 10
361.4220347919
 20
184.0767025435
 30
0.0
 11
361.4220347919
 21
177.7767025435
 31
0.0
  0
ARC
  5
24A
  8
STANDARD
  6
CONTINUOUS
 62
     7
 10
377.9324514586
 20
177.7767025435
 30
0.0
 40
22.51041666666627
 50
180.0
 51
227.1494124038
  0
ARC
  5
24B
  8
STANDARD
  6
CONTINUOUS
 62
     7
 10
352.4220347919
 20
150.2767025435
 30
0.0
 40
15.0
 50
0.0
 51
47.1494124038
  0
ENDBLK
  5
24D
  8
0
  0
BLOCK
  8
0
  2
SE46
 70
     0
 10
0.0
 20
0.0
 30
0.0
  3
SE46
  1

  0
INSERT
  5
253
  8
STANDARD
  2
SE47
 10
0.0
 20
0.0
 30
0.0
  0
ENDBLK
  5
263
  8
0
  0
BLOCK
  8
0
  2
SE47
 70
     0
 10
0.0
 20
0.0
 30
0.0
  3
SE47
  1

  0
LINE
  5
254
  8
STANDARD
  6
CONTINUOUS
 62
     7
 10
381.4220347919
 20
143.9767025435
 30
0.0
 11
384.4220347919
 21
143.9767025435
 31
0.0
  0
LINE
  5
255
  8
STANDARD
  6
CONTINUOUS
 62
     7
 10
372.4220347919
 20
177.7767025435
 30
0.0
 11
372.4220347919
 21
184.0767025435
 31
0.0
  0
LINE
  5
256
  8
STANDARD
  6
CONTINUOUS
 62
     7
 10
369.4220347919
 20
177.7767025435
 30
0.0
 11
372.4220347919
 21
177.7767025435
 31
0.0
  0
LINE
  5
257
  8
STANDARD
  6
CONTINUOUS
 62
     7
 10
384.4220347919
 20
150.2767025435
 30
0.0
 11
387.4220347919
 21
150.2767025435
 31
0.0
  0
LINE
  5
258
  8
STANDARD
  6
CONTINUOUS
 62
     7
 10
381.4220347919
 20
150.2767025435
 30
0.0
 11
381.4220347919
 21
143.9767025435
 31
0.0
  0
LINE
  5
259
  8
STANDARD
  6
CONTINUOUS
 62
     7
 10
384.4220347919
 20
143.9767025435
 30
0.0
 11
384.4220347919
 21
150.2767025435
 31
0.0
  0
LINE
  5
25A
  8
STANDARD
  6
CONTINUOUS
 62
     7
 10
372.4220347919
 20
184.0767025435
 30
0.0
 11
375.4220347919
 21
184.0767025435
 31
0.0
  0
ARC
  5
25B
  8
STANDARD
  6
CONTINUOUS
 62
     7
 10
366.4220347919
 20
150.2767025435
 30
0.0
 40
21.0
 50
0.0
 51
47.1494124038
  0
ARC
  5
25C
  8
STANDARD
  6
CONTINUOUS
 62
     7
 10
391.9324514586
 20
177.7767025435
 30
0.0
 40
16.51041666666627
 50
180.0
 51
227.1494124038
  0
LINE
  5
25D
  8
STANDARD
  6
CONTINUOUS
 62
     7
 10
375.4220347919
 20
184.0767025435
 30
0.0
 11
375.4220347919
 21
177.7767025435
 31
0.0
  0
ARC
  5
25E
  8
STANDARD
  6
CONTINUOUS
 62
     7
 10
391.9324514586
 20
177.7767025435
 30
0.0
 40
22.51041666666627
 50
180.0
 51
227.1494124038
  0
ARC
  5
25F
  8
STANDARD
  6
CONTINUOUS
 62
     7
 10
366.4220347919
 20
150.2767025435
 30
0.0
 40
15.0
 50
0.0
 51
47.1494124038
  0
ENDBLK
  5
261
  8
0
  0
BLOCK
  8
0
  2
SE48
 70
     0
 10
0.0
 20
0.0
 30
0.0
  3
SE48
  1

  0
INSERT
  5
267
  8
STANDARD
  2
SE49
 10
0.0
 20
0.0
 30
0.0
  0
ENDBLK
  5
277
  8
0
  0
BLOCK
  8
0
  2
SE49
 70
     0
 10
0.0
 20
0.0
 30
0.0
  3
SE49
  1

  0
LINE
  5
268
  8
STANDARD
  6
CONTINUOUS
 62
     7
 10
395.4220347919
 20
143.9767025435
 30
0.0
 11
398.4220347919
 21
143.9767025435
 31
0.0
  0
LINE
  5
269
  8
STANDARD
  6
CONTINUOUS
 62
     7
 10
386.4220347919
 20
177.7767025435
 30
0.0
 11
386.4220347919
 21
184.0767025435
 31
0.0
  0
LINE
  5
26A
  8
STANDARD
  6
CONTINUOUS
 62
     7
 10
383.4220347919
 20
177.7767025435
 30
0.0
 11
386.4220347919
 21
177.7767025435
 31
0.0
  0
LINE
  5
26B
  8
STANDARD
  6
CONTINUOUS
 62
     7
 10
398.4220347919
 20
150.2767025435
 30
0.0
 11
401.4220347919
 21
150.2767025435
 31
0.0
  0
LINE
  5
26C
  8
STANDARD
  6
CONTINUOUS
 62
     7
 10
395.4220347919
 20
150.2767025435
 30
0.0
 11
395.4220347919
 21
143.9767025435
 31
0.0
  0
LINE
  5
26D
  8
STANDARD
  6
CONTINUOUS
 62
     7
 10
398.4220347919
 20
143.9767025435
 30
0.0
 11
398.4220347919
 21
150.2767025435
 31
0.0
  0
LINE
  5
26E
  8
STANDARD
  6
CONTINUOUS
 62
     7
 10
386.4220347919
 20
184.0767025435
 30
0.0
 11
389.4220347919
 21
184.0767025435
 31
0.0
  0
ARC
  5
26F
  8
STANDARD
  6
CONTINUOUS
 62
     7
 10
380.4220347919
 20
150.2767025435
 30
0.0
 40
21.0
 50
0.0
 51
47.1494124038
  0
ARC
  5
270
  8
STANDARD
  6
CONTINUOUS
 62
     7
 10
405.9324514586
 20
177.7767025435
 30
0.0
 40
16.51041666666627
 50
180.0
 51
227.1494124038
  0
LINE
  5
271
  8
STANDARD
  6
CONTINUOUS
 62
     7
 10
389.4220347919
 20
184.0767025435
 30
0.0
 11
389.4220347919
 21
177.7767025435
 31
0.0
  0
ARC
  5
272
  8
STANDARD
  6
CONTINUOUS
 62
     7
 10
405.9324514586
 20
177.7767025435
 30
0.0
 40
22.51041666666627
 50
180.0
 51
227.1494124038
  0
ARC
  5
273
  8
STANDARD
  6
CONTINUOUS
 62
     7
 10
380.4220347919
 20
150.2767025435
 30
0.0
 40
15.0
 50
0.0
 51
47.1494124038
  0
ENDBLK
  5
275
  8
0
  0
BLOCK
  8
0
  2
SE50
 70
     0
 10
0.0
 20
0.0
 30
0.0
  3
SE50
  1

  0
INSERT
  5
27B
  8
STANDARD
  2
SE51
 10
0.0
 20
0.0
 30
0.0
  0
ENDBLK
  5
28B
  8
0
  0
BLOCK
  8
0
  2
SE51
 70
     0
 10
0.0
 20
0.0
 30
0.0
  3
SE51
  1

  0
LINE
  5
27C
  8
STANDARD
  6
CONTINUOUS
 62
     7
 10
409.4220347919
 20
143.9767025435
 30
0.0
 11
412.4220347919
 21
143.9767025435
 31
0.0
  0
LINE
  5
27D
  8
STANDARD
  6
CONTINUOUS
 62
     7
 10
400.4220347919
 20
177.7767025435
 30
0.0
 11
400.4220347919
 21
184.0767025435
 31
0.0
  0
LINE
  5
27E
  8
STANDARD
  6
CONTINUOUS
 62
     7
 10
397.4220347919
 20
177.7767025435
 30
0.0
 11
400.4220347919
 21
177.7767025435
 31
0.0
  0
LINE
  5
27F
  8
STANDARD
  6
CONTINUOUS
 62
     7
 10
412.4220347919
 20
150.2767025435
 30
0.0
 11
415.4220347919
 21
150.2767025435
 31
0.0
  0
LINE
  5
280
  8
STANDARD
  6
CONTINUOUS
 62
     7
 10
409.4220347919
 20
150.2767025435
 30
0.0
 11
409.4220347919
 21
143.9767025435
 31
0.0
  0
LINE
  5
281
  8
STANDARD
  6
CONTINUOUS
 62
     7
 10
412.4220347919
 20
143.9767025435
 30
0.0
 11
412.4220347919
 21
150.2767025435
 31
0.0
  0
LINE
  5
282
  8
STANDARD
  6
CONTINUOUS
 62
     7
 10
400.4220347919
 20
184.0767025435
 30
0.0
 11
403.4220347919
 21
184.0767025435
 31
0.0
  0
ARC
  5
283
  8
STANDARD
  6
CONTINUOUS
 62
     7
 10
394.4220347919
 20
150.2767025435
 30
0.0
 40
21.0
 50
0.0
 51
47.1494124038
  0
ARC
  5
284
  8
STANDARD
  6
CONTINUOUS
 62
     7
 10
419.9324514586
 20
177.7767025435
 30
0.0
 40
16.51041666666627
 50
180.0
 51
227.1494124038
  0
LINE
  5
285
  8
STANDARD
  6
CONTINUOUS
 62
     7
 10
403.4220347919
 20
184.0767025435
 30
0.0
 11
403.4220347919
 21
177.7767025435
 31
0.0
  0
ARC
  5
286
  8
STANDARD
  6
CONTINUOUS
 62
     7
 10
419.9324514586
 20
177.7767025435
 30
0.0
 40
22.51041666666627
 50
180.0
 51
227.1494124038
  0
ARC
  5
287
  8
STANDARD
  6
CONTINUOUS
 62
     7
 10
394.4220347919
 20
150.2767025435
 30
0.0
 40
15.0
 50
0.0
 51
47.1494124038
  0
ENDBLK
  5
289
  8
0
  0
BLOCK
  8
0
  2
*X53
 70
     1
 10
0.0
 20
0.0
 30
0.0
  3
*X53
  1

  0
TEXT
  5
29A
  8
EBENE_2
  6
CONTINUOUS
 62
     7
 10
259.3209291647
 20
123.5616058989
 30
0.0
 40
3.5
  1
Wall Spot Lamp
  0
TEXT
  5
29B
  8
EBENE_2
  6
CONTINUOUS
 62
     7
 10
285.5919291647
 20
123.5616058989
 30
0.0
 40
3.5
  1
 - ZenziWerken - 6.3 mm Plywood
  0
ENDBLK
  5
29D
  8
0
  0
ENDSEC
  0
SECTION
  2
ENTITIES
  0
INSERT
  5
6F
  8
EBENE_2
  2
*X53
 10
0.0
 20
0.0
 30
0.0
  0
INSERT
  5
71
  8
0
  2
SE
 10
0.0
 20
0.0
 30
0.0
  0
INSERT
  5
82
  8
0
  2
SE2
 10
0.0
 20
0.0
 30
0.0
  0
INSERT
  5
9A
  8
0
  2
SE4
 10
0.0
 20
0.0
 30
0.0
  0
INSERT
  5
BC
  8
0
  2
SE6
 10
0.0
 20
0.0
 30
0.0
  0
INSERT
  5
C9
  8
0
  2
SE8
 10
0.0
 20
0.0
 30
0.0
  0
INSERT
  5
D6
  8
0
  2
SE10
 10
0.0
 20
0.0
 30
0.0
  0
INSERT
  5
E3
  8
0
  2
SE12
 10
0.0
 20
0.0
 30
0.0
  0
INSERT
  5
F0
  8
0
  2
SE14
 10
0.0
 20
0.0
 30
0.0
  0
INSERT
  5
10B
  8
0
  2
SE16
 10
0.0
 20
0.0
 30
0.0
  0
INSERT
  5
12E
  8
0
  2
SE20
 10
0.0
 20
0.0
 30
0.0
  0
INSERT
  5
144
  8
0
  2
SE22
 10
0.0
 20
0.0
 30
0.0
  0
INSERT
  5
15A
  8
0
  2
SE24
 10
0.0
 20
0.0
 30
0.0
  0
INSERT
  5
170
  8
0
  2
SE26
 10
0.0
 20
0.0
 30
0.0
  0
INSERT
  5
1D5
  8
0
  2
SE32
 10
0.0
 20
0.0
 30
0.0
  0
ENDSEC
  0
EOF
