<?xml version="1.0" encoding="utf-8"?>
<!-- Generator: Adobe Illustrator 19.2.1, SVG Export Plug-In . SVG Version: 6.00 Build 0)  -->
<svg version="1.1" id="Ebene_1" xmlns="http://www.w3.org/2000/svg" xmlns:xlink="http://www.w3.org/1999/xlink" x="0px" y="0px"
	 width="1275.59px" height="992.13px" viewBox="0 0 1275.59 992.13" style="enable-background:new 0 0 1275.59 992.13;"
	 xml:space="preserve">
<style type="text/css">
	.st0{fill:none;stroke:#000000;stroke-width:0.7087;stroke-linecap:round;stroke-linejoin:round;stroke-miterlimit:10;}
	.st1{font-family:'ArialMT';}
	.st2{font-size:14.0131px;}
</style>
<g id="CIRCLE">
	<path class="st0" d="M983.79,618.69c0-1.57,1.27-2.83,2.83-2.83s2.83,1.27,2.83,2.83c0,1.57-1.27,2.83-2.83,2.83
		S983.79,620.26,983.79,618.69L983.79,618.69z"/>
</g>
<g id="CIRCLE_1_">
	<path class="st0" d="M918.74,731.37c0-1.57,1.27-2.83,2.83-2.83s2.83,1.27,2.83,2.83s-1.27,2.83-2.83,2.83
		S918.74,732.94,918.74,731.37L918.74,731.37z"/>
</g>
<g id="CIRCLE_2_">
	<path class="st0" d="M1048.84,731.37c0-1.57,1.27-2.83,2.83-2.83c1.57,0,2.83,1.27,2.83,2.83s-1.27,2.83-2.83,2.83
		C1050.11,734.21,1048.84,732.94,1048.84,731.37L1048.84,731.37z"/>
</g>
<g id="LINE">
	<line class="st0" x1="1051.82" y1="686.72" x2="1051.82" y2="700.9"/>
</g>
<g id="LINE_1_">
	<line class="st0" x1="1085.84" y1="686.72" x2="1051.82" y2="686.72"/>
</g>
<g id="CIRCLE_3_">
	<path class="st0" d="M918.59,693.81c0-37.57,30.46-68.03,68.03-68.03c37.57,0,68.03,30.46,68.03,68.03s-30.46,68.03-68.03,68.03
		C949.05,761.84,918.59,731.38,918.59,693.81L918.59,693.81z"/>
</g>
<g id="LINE_2_">
	<line class="st0" x1="1051.82" y1="700.9" x2="1085.84" y2="700.9"/>
</g>
<g id="CIRCLE_4_">
	<path class="st0" d="M890.25,693.81c0-53.23,43.15-96.38,96.38-96.38s96.38,43.15,96.38,96.38c0,53.23-43.15,96.38-96.38,96.38
		S890.25,747.04,890.25,693.81L890.25,693.81z"/>
</g>
<g id="LINE_3_">
	<line class="st0" x1="1085.84" y1="700.9" x2="1085.84" y2="686.72"/>
</g>
<g id="CIRCLE_5_">
	<path class="st0" d="M650.32,694.32c-2.35,0-4.25-1.9-4.25-4.25c0-2.35,1.9-4.25,4.25-4.25c2.35,0,4.25,1.9,4.25,4.25
		C654.57,692.42,652.67,694.32,650.32,694.32L650.32,694.32z"/>
</g>
<g id="CIRCLE_6_">
	<path class="st0" d="M650.32,549.76c-2.35,0-4.25-1.9-4.25-4.25c0-2.35,1.9-4.25,4.25-4.25c2.35,0,4.25,1.9,4.25,4.25
		C654.57,547.85,652.67,549.76,650.32,549.76L650.32,549.76z"/>
</g>
<g id="CIRCLE_7_">
	<path class="st0" d="M650.32,699.99c-45.4,0-82.2-36.8-82.2-82.2c0-45.4,36.8-82.2,82.2-82.2c45.4,0,82.2,36.8,82.2,82.2
		C732.52,663.19,695.72,699.99,650.32,699.99L650.32,699.99z"/>
</g>
<g id="LINE_4_">
	<line class="st0" x1="621.97" y1="626.72" x2="621.97" y2="608.86"/>
</g>
<g id="LINE_5_">
	<line class="st0" x1="621.97" y1="608.86" x2="641.11" y2="608.86"/>
</g>
<g id="LINE_6_">
	<line class="st0" x1="641.11" y1="608.86" x2="641.11" y2="626.72"/>
</g>
<g id="LINE_7_">
	<line class="st0" x1="641.11" y1="626.72" x2="621.97" y2="626.72"/>
</g>
<g id="LINE_8_">
	<line class="st0" x1="659.53" y1="626.72" x2="659.53" y2="608.86"/>
</g>
<g id="LINE_9_">
	<line class="st0" x1="659.53" y1="608.86" x2="678.67" y2="608.86"/>
</g>
<g id="LINE_10_">
	<line class="st0" x1="678.67" y1="608.86" x2="678.67" y2="626.72"/>
</g>
<g id="LINE_11_">
	<line class="st0" x1="678.67" y1="626.72" x2="659.53" y2="626.72"/>
</g>
<g id="INSERT_1_">
	<g id="INSERT">
		<g id="CIRCLE_8_">
			<path class="st0" d="M463.3,578.34c-2.35,0-4.25-1.9-4.25-4.25c0-2.35,1.9-4.25,4.25-4.25s4.25,1.9,4.25,4.25
				C467.55,576.44,465.65,578.34,463.3,578.34L463.3,578.34z"/>
		</g>
		<g id="CIRCLE_9_">
			<path class="st0" d="M463.3,722.91c-2.35,0-4.25-1.9-4.25-4.25c0-2.35,1.9-4.25,4.25-4.25s4.25,1.9,4.25,4.25
				C467.55,721.01,465.65,722.91,463.3,722.91L463.3,722.91z"/>
		</g>
		<g id="CIRCLE_10_">
			<path class="st0" d="M463.3,728.58c-45.4,0-82.2-36.8-82.2-82.2c0-45.4,36.8-82.2,82.2-82.2s82.2,36.8,82.2,82.2
				C545.5,691.77,508.7,728.58,463.3,728.58L463.3,728.58z"/>
		</g>
		<g id="CIRCLE_11_">
			<path class="st0" d="M463.3,708.74c-34.44,0-62.36-27.92-62.36-62.36s27.92-62.36,62.36-62.36s62.36,27.92,62.36,62.36
				S497.74,708.74,463.3,708.74L463.3,708.74z"/>
		</g>
		<g id="CIRCLE_12_">
			<path class="st0" d="M463.3,700.23c-29.75,0-53.86-24.11-53.86-53.86s24.11-53.86,53.86-53.86s53.86,24.11,53.86,53.86
				S493.04,700.23,463.3,700.23L463.3,700.23z"/>
		</g>
	</g>
</g>
<g id="INSERT_3_">
	<g id="INSERT_2_">
		<g id="ARC">
			<path class="st0" d="M274.8,513.17c2.92,9.55,8.58,18.03,16.27,24.4"/>
		</g>
		<g id="LINE_12_">
			<line class="st0" x1="243.01" y1="481.99" x2="275.23" y2="481.99"/>
		</g>
		<g id="LINE_13_">
			<line class="st0" x1="274.8" y1="513.17" x2="242.75" y2="513.17"/>
		</g>
		<g id="LINE_14_">
			<line class="st0" x1="305.8" y1="546.08" x2="303.32" y2="550.38"/>
		</g>
		<g id="LINE_15_">
			<line class="st0" x1="303.32" y1="550.38" x2="288.59" y2="541.87"/>
		</g>
		<g id="LINE_16_">
			<line class="st0" x1="288.59" y1="541.87" x2="291.07" y2="537.57"/>
		</g>
		<g id="LINE_17_">
			<line class="st0" x1="343.86" y1="446.13" x2="358.59" y2="454.64"/>
		</g>
		<g id="ARC_1_">
			<path class="st0" d="M305.8,546.08c26.41,9.83,55.79-3.62,65.61-30.03c7.57-20.35,1.43-43.27-15.3-57.11"/>
		</g>
		<g id="LINE_18_">
			<line class="st0" x1="341.38" y1="450.43" x2="343.86" y2="446.13"/>
		</g>
		<g id="LINE_19_">
			<line class="st0" x1="358.59" y1="454.64" x2="356.11" y2="458.94"/>
		</g>
		<g id="ARC_2_">
			<path class="st0" d="M341.38,450.43c-26.41-9.83-55.79,3.62-65.61,30.03c-0.19,0.51-0.37,1.02-0.54,1.53"/>
		</g>
		<g id="CIRCLE_13_">
			<path class="st0" d="M323.59,430.22c-2.35,0-4.25-1.9-4.25-4.25s1.9-4.25,4.25-4.25s4.25,1.9,4.25,4.25
				S325.94,430.22,323.59,430.22L323.59,430.22z"/>
		</g>
		<g id="CIRCLE_14_">
			<path class="st0" d="M323.59,574.79c-2.35,0-4.25-1.9-4.25-4.25c0-2.35,1.9-4.25,4.25-4.25s4.25,1.9,4.25,4.25
				C327.84,572.89,325.94,574.79,323.59,574.79L323.59,574.79z"/>
		</g>
		<g id="ARC_3_">
			<path class="st0" d="M263.77,513.17c8.24,33.04,41.7,53.14,74.74,44.9c33.04-8.24,53.14-41.7,44.9-74.74s-41.7-53.14-74.74-44.9
				c-21.63,5.4-38.67,22.05-44.55,43.56"/>
		</g>
		<g id="ARC_4_">
			<path class="st0" d="M242.75,513.17c8.24,44.65,51.11,74.16,95.76,65.92s74.16-51.11,65.92-95.76s-51.11-74.16-95.76-65.92
				c-33.02,6.09-59.02,31.66-65.66,64.58"/>
		</g>
	</g>
</g>
<g id="INSERT_5_">
	<g id="INSERT_4_">
		<g id="CIRCLE_15_">
			<path class="st0" d="M463.13,495.33c-3.13,0-5.67-2.54-5.67-5.67c0-3.13,2.54-5.67,5.67-5.67c3.13,0,5.67,2.54,5.67,5.67
				C468.8,492.8,466.27,495.33,463.13,495.33L463.13,495.33z"/>
		</g>
		<g id="CIRCLE_16_">
			<path class="st0" d="M463.13,532.19c-23.48,0-42.52-19.04-42.52-42.52s19.04-42.52,42.52-42.52s42.52,19.04,42.52,42.52
				S486.62,532.19,463.13,532.19L463.13,532.19z"/>
		</g>
	</g>
</g>
<g id="INSERT_9_">
	<g id="INSERT_8_">
		<g id="INSERT_7_">
			<g id="INSERT_6_">
				<g id="CIRCLE_17_">
					<path class="st0" d="M425.7,114.4c0-3.13,2.54-5.67,5.67-5.67c3.13,0,5.67,2.54,5.67,5.67c0,3.13-2.54,5.67-5.67,5.67
						C428.24,120.07,425.7,117.53,425.7,114.4L425.7,114.4z"/>
				</g>
				<g id="CIRCLE_18_">
					<path class="st0" d="M312.54,310.41c0-3.13,2.54-5.67,5.67-5.67c3.13,0,5.67,2.54,5.67,5.67c0,3.13-2.54,5.67-5.67,5.67
						C315.08,316.08,312.54,313.54,312.54,310.41L312.54,310.41z"/>
				</g>
				<g id="CIRCLE_19_">
					<path class="st0" d="M538.87,310.41c0-3.13,2.54-5.67,5.67-5.67c3.13,0,5.67,2.54,5.67,5.67c0,3.13-2.54,5.67-5.67,5.67
						C541.41,316.08,538.87,313.54,538.87,310.41L538.87,310.41z"/>
				</g>
			</g>
		</g>
		<g id="CIRCLE_20_">
			<path class="st0" d="M347.75,245.07c0-46.18,37.44-83.62,83.62-83.62s83.62,37.44,83.62,83.62s-37.44,83.62-83.62,83.62
				S347.75,291.25,347.75,245.07L347.75,245.07z"/>
		</g>
		<g id="LINE_20_">
			<line class="st0" x1="464.25" y1="360.79" x2="464.25" y2="372.13"/>
		</g>
		<g id="LINE_21_">
			<line class="st0" x1="398.49" y1="360.79" x2="398.49" y2="372.13"/>
		</g>
		<g id="LINE_22_">
			<line class="st0" x1="464.25" y1="376.38" x2="464.25" y2="372.13"/>
		</g>
		<g id="LINE_23_">
			<line class="st0" x1="398.49" y1="356.54" x2="398.49" y2="360.79"/>
		</g>
		<g id="LINE_24_">
			<line class="st0" x1="424.57" y1="380.21" x2="424.57" y2="376.38"/>
		</g>
		<g id="LINE_25_">
			<line class="st0" x1="398.49" y1="376.38" x2="424.57" y2="376.38"/>
		</g>
		<g id="LINE_26_">
			<line class="st0" x1="438.18" y1="352.71" x2="438.18" y2="356.54"/>
		</g>
		<g id="LINE_27_">
			<line class="st0" x1="464.25" y1="356.54" x2="438.18" y2="356.54"/>
		</g>
		<g id="LINE_28_">
			<line class="st0" x1="424.57" y1="356.54" x2="424.57" y2="352.71"/>
		</g>
		<g id="LINE_29_">
			<line class="st0" x1="438.18" y1="380.21" x2="424.57" y2="380.21"/>
		</g>
		<g id="LINE_30_">
			<line class="st0" x1="438.18" y1="376.38" x2="438.18" y2="380.21"/>
		</g>
		<g id="LINE_31_">
			<line class="st0" x1="424.57" y1="352.71" x2="438.18" y2="352.71"/>
		</g>
		<g id="LINE_32_">
			<line class="st0" x1="398.49" y1="372.13" x2="398.49" y2="376.38"/>
		</g>
		<g id="LINE_33_">
			<line class="st0" x1="424.57" y1="356.54" x2="398.49" y2="356.54"/>
		</g>
		<g id="LINE_34_">
			<line class="st0" x1="464.25" y1="360.79" x2="464.25" y2="356.54"/>
		</g>
		<g id="LINE_35_">
			<line class="st0" x1="438.18" y1="376.38" x2="464.25" y2="376.38"/>
		</g>
		<g id="CIRCLE_21_">
			<path class="st0" d="M261.29,245.07c0-93.93,76.15-170.08,170.08-170.08s170.08,76.15,170.08,170.08S525.3,415.15,431.37,415.15
				S261.29,339,261.29,245.07L261.29,245.07z"/>
		</g>
	</g>
</g>
<g id="INSERT_19_">
	<g id="INSERT_18_">
		<g id="INSERT_11_">
			<g id="INSERT_10_">
				<g id="LINE_36_">
					<line class="st0" x1="814.81" y1="242.18" x2="805.03" y2="236.53"/>
				</g>
				<g id="LINE_37_">
					<line class="st0" x1="805.03" y1="236.53" x2="795.25" y2="242.18"/>
				</g>
				<g id="LINE_38_">
					<line class="st0" x1="795.25" y1="242.18" x2="795.25" y2="253.47"/>
				</g>
				<g id="LINE_39_">
					<line class="st0" x1="795.25" y1="253.47" x2="805.03" y2="259.12"/>
				</g>
				<g id="LINE_40_">
					<line class="st0" x1="805.03" y1="259.12" x2="814.81" y2="253.47"/>
				</g>
				<g id="LINE_41_">
					<line class="st0" x1="814.81" y1="253.47" x2="814.81" y2="242.18"/>
				</g>
			</g>
		</g>
		<g id="INSERT_13_">
			<g id="INSERT_12_">
				<g id="LINE_42_">
					<line class="st0" x1="927.97" y1="438.19" x2="918.19" y2="432.54"/>
				</g>
				<g id="LINE_43_">
					<line class="st0" x1="918.19" y1="432.54" x2="908.41" y2="438.19"/>
				</g>
				<g id="LINE_44_">
					<line class="st0" x1="908.41" y1="438.19" x2="908.41" y2="449.48"/>
				</g>
				<g id="LINE_45_">
					<line class="st0" x1="908.41" y1="449.48" x2="918.19" y2="455.13"/>
				</g>
				<g id="LINE_46_">
					<line class="st0" x1="918.19" y1="455.13" x2="927.97" y2="449.48"/>
				</g>
				<g id="LINE_47_">
					<line class="st0" x1="927.97" y1="449.48" x2="927.97" y2="438.19"/>
				</g>
			</g>
		</g>
		<g id="INSERT_15_">
			<g id="INSERT_14_">
				<g id="LINE_48_">
					<line class="st0" x1="701.64" y1="438.19" x2="691.87" y2="432.54"/>
				</g>
				<g id="LINE_49_">
					<line class="st0" x1="691.87" y1="432.54" x2="682.09" y2="438.19"/>
				</g>
				<g id="LINE_50_">
					<line class="st0" x1="682.09" y1="438.19" x2="682.09" y2="449.48"/>
				</g>
				<g id="LINE_51_">
					<line class="st0" x1="682.09" y1="449.48" x2="691.87" y2="455.13"/>
				</g>
				<g id="LINE_52_">
					<line class="st0" x1="691.87" y1="455.13" x2="701.64" y2="449.48"/>
				</g>
				<g id="LINE_53_">
					<line class="st0" x1="701.64" y1="449.48" x2="701.64" y2="438.19"/>
				</g>
			</g>
		</g>
		<g id="INSERT_17_">
			<g id="INSERT_16_">
				<g id="CIRCLE_22_">
					<path class="st0" d="M805.03,242.16c3.13,0,5.67,2.54,5.67,5.67c0,3.13-2.54,5.67-5.67,5.67s-5.67-2.54-5.67-5.67
						C799.36,244.7,801.9,242.16,805.03,242.16L805.03,242.16z"/>
				</g>
				<g id="CIRCLE_23_">
					<path class="st0" d="M691.87,438.16c3.13,0,5.67,2.54,5.67,5.67c0,3.13-2.54,5.67-5.67,5.67c-3.13,0-5.67-2.54-5.67-5.67
						C686.2,440.7,688.73,438.16,691.87,438.16L691.87,438.16z"/>
				</g>
				<g id="CIRCLE_24_">
					<path class="st0" d="M918.19,438.16c3.13,0,5.67,2.54,5.67,5.67c0,3.13-2.54,5.67-5.67,5.67c-3.13,0-5.67-2.54-5.67-5.67
						C912.52,440.7,915.06,438.16,918.19,438.16L918.19,438.16z"/>
				</g>
			</g>
		</g>
		<g id="CIRCLE_25_">
			<path class="st0" d="M705.82,287.79c3.13,0,5.67,2.54,5.67,5.67c0,3.13-2.54,5.67-5.67,5.67c-3.13,0-5.67-2.54-5.67-5.67
				C700.15,290.33,702.69,287.79,705.82,287.79L705.82,287.79z"/>
		</g>
		<g id="CIRCLE_26_">
			<path class="st0" d="M904.24,287.79c3.13,0,5.67,2.54,5.67,5.67c0,3.13-2.54,5.67-5.67,5.67s-5.67-2.54-5.67-5.67
				C898.57,290.33,901.11,287.79,904.24,287.79L904.24,287.79z"/>
		</g>
		<g id="CIRCLE_27_">
			<path class="st0" d="M805.03,208.42c93.93,0,170.08,76.15,170.08,170.08s-76.15,170.08-170.08,170.08S634.95,472.43,634.95,378.5
				S711.1,208.42,805.03,208.42L805.03,208.42z"/>
		</g>
	</g>
</g>
<g id="INSERT_23_">
	<g id="INSERT_22_">
		<g id="INSERT_21_">
			<g id="INSERT_20_">
				<g id="LINE_54_">
					<line class="st0" x1="441.15" y1="239.42" x2="431.37" y2="233.78"/>
				</g>
				<g id="LINE_55_">
					<line class="st0" x1="431.37" y1="233.78" x2="421.59" y2="239.42"/>
				</g>
				<g id="LINE_56_">
					<line class="st0" x1="421.59" y1="239.42" x2="421.59" y2="250.72"/>
				</g>
				<g id="LINE_57_">
					<line class="st0" x1="421.59" y1="250.72" x2="431.37" y2="256.36"/>
				</g>
				<g id="LINE_58_">
					<line class="st0" x1="431.37" y1="256.36" x2="441.15" y2="250.72"/>
				</g>
				<g id="LINE_59_">
					<line class="st0" x1="441.15" y1="250.72" x2="441.15" y2="239.42"/>
				</g>
			</g>
		</g>
		<g id="ARC_5_">
			<path class="st0" d="M481.75,228.13c-0.77-2.29-1.7-4.53-2.77-6.7"/>
		</g>
		<g id="ARC_6_">
			<path class="st0" d="M414.43,194.69c-2.29,0.77-4.53,1.7-6.7,2.77"/>
		</g>
		<g id="ARC_7_">
			<path class="st0" d="M383.77,221.43c-1.08,2.17-2,4.4-2.77,6.7"/>
		</g>
		<g id="ARC_8_">
			<path class="st0" d="M381,262.01c0.77,2.29,1.7,4.53,2.77,6.7"/>
		</g>
		<g id="ARC_9_">
			<path class="st0" d="M407.73,292.67c2.17,1.08,4.4,2,6.7,2.77"/>
		</g>
		<g id="ARC_10_">
			<path class="st0" d="M448.32,295.45c2.29-0.77,4.53-1.7,6.7-2.77"/>
		</g>
		<g id="ARC_11_">
			<path class="st0" d="M478.98,268.71c1.08-2.17,2-4.4,2.77-6.7"/>
		</g>
		<g id="ARC_12_">
			<path class="st0" d="M455.01,197.47c-2.17-1.08-4.4-2-6.7-2.77"/>
		</g>
		<g id="ARC_13_">
			<path class="st0" d="M448.32,194.69c-1.45-0.49-3.05-0.16-4.19,0.86"/>
		</g>
		<g id="ARC_14_">
			<path class="st0" d="M418.62,195.55c-1.14-1.02-2.74-1.35-4.19-0.86"/>
		</g>
		<g id="ARC_15_">
			<path class="st0" d="M418.62,195.55c7.26,6.49,18.25,6.49,25.51,0"/>
		</g>
		<g id="ARC_16_">
			<path class="st0" d="M407.73,197.47c-1.37,0.68-2.27,2.04-2.35,3.57"/>
		</g>
		<g id="ARC_17_">
			<path class="st0" d="M387.34,219.08c-1.53,0.09-2.89,0.98-3.57,2.35"/>
		</g>
		<g id="ARC_18_">
			<path class="st0" d="M387.34,219.08c9.73-0.54,17.49-8.31,18.04-18.04"/>
		</g>
		<g id="ARC_19_">
			<path class="st0" d="M381,228.13c-0.49,1.45-0.16,3.05,0.86,4.19"/>
		</g>
		<g id="ARC_20_">
			<path class="st0" d="M381.86,257.82c-1.02,1.14-1.35,2.74-0.86,4.19"/>
		</g>
		<g id="ARC_21_">
			<path class="st0" d="M381.86,257.82c6.49-7.26,6.49-18.25,0-25.51"/>
		</g>
		<g id="ARC_22_">
			<path class="st0" d="M383.77,268.71c0.68,1.37,2.04,2.27,3.57,2.35"/>
		</g>
		<g id="ARC_23_">
			<path class="st0" d="M405.38,289.1c0.09,1.53,0.98,2.89,2.35,3.57"/>
		</g>
		<g id="ARC_24_">
			<path class="st0" d="M405.38,289.1c-0.54-9.73-8.31-17.49-18.04-18.04"/>
		</g>
		<g id="ARC_25_">
			<path class="st0" d="M414.43,295.45c1.45,0.49,3.05,0.16,4.19-0.86"/>
		</g>
		<g id="ARC_26_">
			<path class="st0" d="M444.13,294.59c1.14,1.02,2.74,1.35,4.19,0.86"/>
		</g>
		<g id="ARC_27_">
			<path class="st0" d="M444.13,294.59c-7.26-6.49-18.25-6.49-25.51,0"/>
		</g>
		<g id="ARC_28_">
			<path class="st0" d="M455.01,292.67c1.37-0.68,2.27-2.04,2.35-3.57"/>
		</g>
		<g id="ARC_29_">
			<path class="st0" d="M475.4,271.07c1.53-0.09,2.89-0.98,3.57-2.35"/>
		</g>
		<g id="ARC_30_">
			<path class="st0" d="M475.4,271.07c-9.73,0.54-17.49,8.31-18.04,18.04"/>
		</g>
		<g id="ARC_31_">
			<path class="st0" d="M481.75,262.01c0.49-1.45,0.16-3.05-0.86-4.19"/>
		</g>
		<g id="ARC_32_">
			<path class="st0" d="M480.89,232.32c1.02-1.14,1.35-2.74,0.86-4.19"/>
		</g>
		<g id="ARC_33_">
			<path class="st0" d="M480.89,232.32c-6.49,7.26-6.49,18.25,0,25.51"/>
		</g>
		<g id="ARC_34_">
			<path class="st0" d="M478.98,221.43c-0.68-1.37-2.04-2.27-3.57-2.35"/>
		</g>
		<g id="ARC_35_">
			<path class="st0" d="M457.37,201.04c-0.09-1.53-0.98-2.89-2.35-3.57"/>
		</g>
		<g id="ARC_36_">
			<path class="st0" d="M457.37,201.04c0.54,9.73,8.31,17.49,18.04,18.04"/>
		</g>
		<g id="CIRCLE_28_">
			<path class="st0" d="M425.7,245.07c0-3.13,2.54-5.67,5.67-5.67c3.13,0,5.67,2.54,5.67,5.67s-2.54,5.67-5.67,5.67
				C428.24,250.74,425.7,248.2,425.7,245.07L425.7,245.07z"/>
		</g>
	</g>
</g>
<g id="INSERT_27_">
	<g id="INSERT_26_">
		<g id="INSERT_25_">
			<g id="INSERT_24_">
				<g id="LINE_60_">
					<line class="st0" x1="1093.1" y1="135.7" x2="1091.62" y2="146.9"/>
				</g>
				<g id="LINE_61_">
					<line class="st0" x1="1091.62" y1="146.9" x2="1100.58" y2="153.77"/>
				</g>
				<g id="LINE_62_">
					<line class="st0" x1="1100.58" y1="153.77" x2="1111.01" y2="149.45"/>
				</g>
				<g id="LINE_63_">
					<line class="st0" x1="1111.01" y1="149.45" x2="1112.49" y2="138.26"/>
				</g>
				<g id="LINE_64_">
					<line class="st0" x1="1112.49" y1="138.26" x2="1103.53" y2="131.38"/>
				</g>
				<g id="LINE_65_">
					<line class="st0" x1="1103.53" y1="131.38" x2="1093.1" y2="135.7"/>
				</g>
			</g>
		</g>
		<g id="ARC_37_">
			<path class="st0" d="M1067.12,102.52c-1.82,1.59-3.54,3.3-5.13,5.13"/>
		</g>
		<g id="ARC_38_">
			<path class="st0" d="M1062,177.51c1.59,1.82,3.3,3.54,5.13,5.13"/>
		</g>
		<g id="ARC_39_">
			<path class="st0" d="M1098.43,195.6c2.41,0.16,4.84,0.16,7.25,0"/>
		</g>
		<g id="ARC_40_">
			<path class="st0" d="M1136.99,182.64c1.82-1.59,3.54-3.3,5.13-5.13"/>
		</g>
		<g id="ARC_41_">
			<path class="st0" d="M1155.08,146.2c0.16-2.41,0.16-4.84,0-7.25"/>
		</g>
		<g id="ARC_42_">
			<path class="st0" d="M1142.11,107.65c-1.59-1.82-3.3-3.54-5.13-5.13"/>
		</g>
		<g id="ARC_43_">
			<path class="st0" d="M1105.68,89.55c-2.41-0.16-4.84-0.16-7.25,0"/>
		</g>
		<g id="ARC_44_">
			<path class="st0" d="M1049.03,138.95c-0.17,2.41-0.17,4.84,0,7.25"/>
		</g>
		<g id="ARC_45_">
			<path class="st0" d="M1049.03,146.2c0.1,1.53,1.02,2.88,2.4,3.54"/>
		</g>
		<g id="ARC_46_">
			<path class="st0" d="M1061.19,173.31c-0.51,1.44-0.2,3.05,0.81,4.2"/>
		</g>
		<g id="ARC_47_">
			<path class="st0" d="M1061.19,173.31c3.22-9.19-0.98-19.34-9.76-23.57"/>
		</g>
		<g id="ARC_48_">
			<path class="st0" d="M1067.12,182.64c1.15,1.01,2.76,1.31,4.2,0.81"/>
		</g>
		<g id="ARC_49_">
			<path class="st0" d="M1094.89,193.21c0.66,1.38,2.02,2.29,3.54,2.4"/>
		</g>
		<g id="ARC_50_">
			<path class="st0" d="M1094.89,193.21c-4.22-8.78-14.37-12.98-23.57-9.76"/>
		</g>
		<g id="ARC_51_">
			<path class="st0" d="M1105.68,195.6c1.53-0.1,2.88-1.02,3.54-2.4"/>
		</g>
		<g id="ARC_52_">
			<path class="st0" d="M1132.79,183.44c1.44,0.51,3.05,0.2,4.2-0.81"/>
		</g>
		<g id="ARC_53_">
			<path class="st0" d="M1132.79,183.44c-9.19-3.22-19.34,0.98-23.57,9.76"/>
		</g>
		<g id="ARC_54_">
			<path class="st0" d="M1142.11,177.51c1.01-1.15,1.31-2.76,0.81-4.2"/>
		</g>
		<g id="ARC_55_">
			<path class="st0" d="M1152.68,149.74c1.38-0.66,2.29-2.02,2.4-3.54"/>
		</g>
		<g id="ARC_56_">
			<path class="st0" d="M1152.68,149.74c-8.78,4.22-12.98,14.37-9.76,23.57"/>
		</g>
		<g id="ARC_57_">
			<path class="st0" d="M1155.08,138.95c-0.1-1.53-1.02-2.88-2.4-3.54"/>
		</g>
		<g id="ARC_58_">
			<path class="st0" d="M1142.92,111.85c0.51-1.44,0.2-3.05-0.81-4.2"/>
		</g>
		<g id="ARC_59_">
			<path class="st0" d="M1142.92,111.85c-3.22,9.19,0.98,19.34,9.76,23.57"/>
		</g>
		<g id="ARC_60_">
			<path class="st0" d="M1136.99,102.52c-1.15-1.01-2.76-1.31-4.2-0.81"/>
		</g>
		<g id="ARC_61_">
			<path class="st0" d="M1109.22,91.95c-0.66-1.38-2.02-2.29-3.54-2.4"/>
		</g>
		<g id="ARC_62_">
			<path class="st0" d="M1109.22,91.95c4.22,8.78,14.37,12.98,23.57,9.76"/>
		</g>
		<g id="ARC_63_">
			<path class="st0" d="M1098.43,89.55c-1.53,0.1-2.88,1.02-3.54,2.4"/>
		</g>
		<g id="ARC_64_">
			<path class="st0" d="M1071.32,101.71c-1.44-0.51-3.05-0.2-4.2,0.81"/>
		</g>
		<g id="ARC_65_">
			<path class="st0" d="M1071.32,101.71c9.19,3.22,19.34-0.98,23.57-9.76"/>
		</g>
		<g id="ARC_66_">
			<path class="st0" d="M1062,107.65c-1.01,1.15-1.31,2.76-0.81,4.2"/>
		</g>
		<g id="ARC_67_">
			<path class="st0" d="M1051.43,135.41c-1.38,0.66-2.29,2.02-2.4,3.54"/>
		</g>
		<g id="ARC_68_">
			<path class="st0" d="M1051.43,135.41c8.78-4.22,12.98-14.37,9.76-23.57"/>
		</g>
		<g id="CIRCLE_29_">
			<path class="st0" d="M1102.05,148.25c-3.13,0-5.67-2.54-5.67-5.67c0-3.13,2.54-5.67,5.67-5.67c3.13,0,5.67,2.54,5.67,5.67
				C1107.72,145.71,1105.19,148.25,1102.05,148.25L1102.05,148.25z"/>
		</g>
	</g>
</g>
<g id="INSERT_31_">
	<g id="INSERT_30_">
		<g id="INSERT_29_">
			<g id="INSERT_28_">
				<g id="LINE_66_">
					<line class="st0" x1="572.8" y1="470.3" x2="567.16" y2="480.08"/>
				</g>
				<g id="LINE_67_">
					<line class="st0" x1="567.16" y1="480.08" x2="572.8" y2="489.86"/>
				</g>
				<g id="LINE_68_">
					<line class="st0" x1="572.8" y1="489.86" x2="584.1" y2="489.86"/>
				</g>
				<g id="LINE_69_">
					<line class="st0" x1="584.1" y1="489.86" x2="589.74" y2="480.08"/>
				</g>
				<g id="LINE_70_">
					<line class="st0" x1="589.74" y1="480.08" x2="584.1" y2="470.3"/>
				</g>
				<g id="LINE_71_">
					<line class="st0" x1="584.1" y1="470.3" x2="572.8" y2="470.3"/>
				</g>
			</g>
		</g>
		<g id="ARC_69_">
			<path class="st0" d="M561.51,429.7c-2.29,0.77-4.53,1.7-6.7,2.77"/>
		</g>
		<g id="ARC_70_">
			<path class="st0" d="M528.07,497.02c0.77,2.29,1.7,4.53,2.77,6.7"/>
		</g>
		<g id="ARC_71_">
			<path class="st0" d="M554.81,527.68c2.17,1.08,4.4,2,6.7,2.77"/>
		</g>
		<g id="ARC_72_">
			<path class="st0" d="M595.39,530.45c2.29-0.77,4.53-1.7,6.7-2.77"/>
		</g>
		<g id="ARC_73_">
			<path class="st0" d="M626.05,503.72c1.08-2.17,2-4.4,2.77-6.7"/>
		</g>
		<g id="ARC_74_">
			<path class="st0" d="M628.83,463.13c-0.77-2.29-1.7-4.53-2.77-6.7"/>
		</g>
		<g id="ARC_75_">
			<path class="st0" d="M602.09,432.47c-2.17-1.08-4.4-2-6.7-2.77"/>
		</g>
		<g id="ARC_76_">
			<path class="st0" d="M530.85,456.44c-1.08,2.17-2,4.4-2.77,6.7"/>
		</g>
		<g id="ARC_77_">
			<path class="st0" d="M528.07,463.13c-0.49,1.45-0.16,3.05,0.86,4.19"/>
		</g>
		<g id="ARC_78_">
			<path class="st0" d="M528.93,492.83c-1.02,1.14-1.35,2.74-0.86,4.19"/>
		</g>
		<g id="ARC_79_">
			<path class="st0" d="M528.93,492.83c6.49-7.26,6.49-18.25,0-25.51"/>
		</g>
		<g id="ARC_80_">
			<path class="st0" d="M530.85,503.72c0.68,1.37,2.04,2.27,3.57,2.35"/>
		</g>
		<g id="ARC_81_">
			<path class="st0" d="M552.45,524.11c0.09,1.53,0.98,2.89,2.35,3.57"/>
		</g>
		<g id="ARC_82_">
			<path class="st0" d="M552.45,524.11c-0.54-9.73-8.31-17.49-18.04-18.04"/>
		</g>
		<g id="ARC_83_">
			<path class="st0" d="M561.51,530.45c1.45,0.49,3.05,0.16,4.19-0.86"/>
		</g>
		<g id="ARC_84_">
			<path class="st0" d="M591.2,529.59c1.14,1.02,2.74,1.35,4.19,0.86"/>
		</g>
		<g id="ARC_85_">
			<path class="st0" d="M591.2,529.59c-7.26-6.49-18.25-6.49-25.51,0"/>
		</g>
		<g id="ARC_86_">
			<path class="st0" d="M602.09,527.68c1.37-0.68,2.27-2.04,2.35-3.57"/>
		</g>
		<g id="ARC_87_">
			<path class="st0" d="M622.48,506.07c1.53-0.09,2.89-0.98,3.57-2.35"/>
		</g>
		<g id="ARC_88_">
			<path class="st0" d="M622.48,506.07c-9.73,0.54-17.49,8.31-18.04,18.04"/>
		</g>
		<g id="ARC_89_">
			<path class="st0" d="M628.83,497.02c0.49-1.45,0.16-3.05-0.86-4.19"/>
		</g>
		<g id="ARC_90_">
			<path class="st0" d="M627.97,467.32c1.02-1.14,1.35-2.74,0.86-4.19"/>
		</g>
		<g id="ARC_91_">
			<path class="st0" d="M627.97,467.32c-6.49,7.26-6.49,18.25,0,25.51"/>
		</g>
		<g id="ARC_92_">
			<path class="st0" d="M626.05,456.44c-0.68-1.37-2.04-2.27-3.57-2.35"/>
		</g>
		<g id="ARC_93_">
			<path class="st0" d="M604.44,436.05c-0.09-1.53-0.98-2.89-2.35-3.57"/>
		</g>
		<g id="ARC_94_">
			<path class="st0" d="M604.44,436.05c0.54,9.73,8.31,17.49,18.04,18.04"/>
		</g>
		<g id="ARC_95_">
			<path class="st0" d="M595.39,429.7c-1.45-0.49-3.05-0.16-4.19,0.86"/>
		</g>
		<g id="ARC_96_">
			<path class="st0" d="M565.7,430.56c-1.14-1.02-2.74-1.35-4.19-0.86"/>
		</g>
		<g id="ARC_97_">
			<path class="st0" d="M565.7,430.56c7.26,6.49,18.25,6.49,25.51,0"/>
		</g>
		<g id="ARC_98_">
			<path class="st0" d="M554.81,432.47c-1.37,0.68-2.27,2.04-2.35,3.57"/>
		</g>
		<g id="ARC_99_">
			<path class="st0" d="M534.42,454.08c-1.53,0.09-2.89,0.98-3.57,2.35"/>
		</g>
		<g id="ARC_100_">
			<path class="st0" d="M534.42,454.08c9.73-0.54,17.49-8.31,18.04-18.04"/>
		</g>
		<g id="CIRCLE_30_">
			<path class="st0" d="M578.45,485.75c-3.13,0-5.67-2.54-5.67-5.67c0-3.13,2.54-5.67,5.67-5.67c3.13,0,5.67,2.54,5.67,5.67
				C584.12,483.21,581.58,485.75,578.45,485.75L578.45,485.75z"/>
		</g>
	</g>
</g>
<g id="INSERT_35_">
	<g id="INSERT_34_">
		<g id="INSERT_33_">
			<g id="INSERT_32_">
				<g id="LINE_72_">
					<line class="st0" x1="993.5" y1="684.85" x2="982.3" y2="683.38"/>
				</g>
				<g id="LINE_73_">
					<line class="st0" x1="982.3" y1="683.38" x2="975.43" y2="692.34"/>
				</g>
				<g id="LINE_74_">
					<line class="st0" x1="975.43" y1="692.34" x2="979.75" y2="702.77"/>
				</g>
				<g id="LINE_75_">
					<line class="st0" x1="979.75" y1="702.77" x2="990.95" y2="704.24"/>
				</g>
				<g id="LINE_76_">
					<line class="st0" x1="990.95" y1="704.24" x2="997.82" y2="695.29"/>
				</g>
				<g id="LINE_77_">
					<line class="st0" x1="997.82" y1="695.29" x2="993.5" y2="684.85"/>
				</g>
			</g>
		</g>
		<g id="ARC_101_">
			<path class="st0" d="M1026.68,658.88c-1.59-1.82-3.3-3.54-5.13-5.13"/>
		</g>
		<g id="ARC_102_">
			<path class="st0" d="M951.69,653.75c-1.82,1.59-3.54,3.3-5.13,5.13"/>
		</g>
		<g id="ARC_103_">
			<path class="st0" d="M933.6,690.19c-0.16,2.41-0.16,4.84,0,7.25"/>
		</g>
		<g id="ARC_104_">
			<path class="st0" d="M946.57,728.74c1.59,1.82,3.3,3.54,5.13,5.13"/>
		</g>
		<g id="ARC_105_">
			<path class="st0" d="M983,746.84c2.41,0.16,4.84,0.16,7.25,0"/>
		</g>
		<g id="ARC_106_">
			<path class="st0" d="M1021.56,733.87c1.82-1.59,3.54-3.3,5.13-5.13"/>
		</g>
		<g id="ARC_107_">
			<path class="st0" d="M1039.65,697.44c0.17-2.41,0.17-4.84,0-7.25"/>
		</g>
		<g id="ARC_108_">
			<path class="st0" d="M990.25,640.79c-2.41-0.16-4.84-0.16-7.25,0"/>
		</g>
		<g id="ARC_109_">
			<path class="st0" d="M983,640.79c-1.53,0.1-2.88,1.02-3.54,2.4"/>
		</g>
		<g id="ARC_110_">
			<path class="st0" d="M955.89,652.95c-1.44-0.51-3.05-0.2-4.2,0.81"/>
		</g>
		<g id="ARC_111_">
			<path class="st0" d="M955.89,652.95c9.19,3.22,19.34-0.98,23.57-9.76"/>
		</g>
		<g id="ARC_112_">
			<path class="st0" d="M946.57,658.88c-1.01,1.15-1.31,2.76-0.81,4.2"/>
		</g>
		<g id="ARC_113_">
			<path class="st0" d="M936,686.65c-1.38,0.66-2.29,2.02-2.4,3.54"/>
		</g>
		<g id="ARC_114_">
			<path class="st0" d="M936,686.65c8.78-4.22,12.98-14.37,9.76-23.57"/>
		</g>
		<g id="ARC_115_">
			<path class="st0" d="M933.6,697.44c0.1,1.53,1.02,2.88,2.4,3.54"/>
		</g>
		<g id="ARC_116_">
			<path class="st0" d="M945.76,724.54c-0.51,1.44-0.2,3.05,0.81,4.2"/>
		</g>
		<g id="ARC_117_">
			<path class="st0" d="M945.76,724.54c3.22-9.19-0.98-19.34-9.76-23.57"/>
		</g>
		<g id="ARC_118_">
			<path class="st0" d="M951.69,733.87c1.15,1.01,2.76,1.31,4.2,0.81"/>
		</g>
		<g id="ARC_119_">
			<path class="st0" d="M979.46,744.44c0.66,1.38,2.02,2.29,3.54,2.4"/>
		</g>
		<g id="ARC_120_">
			<path class="st0" d="M979.46,744.44c-4.22-8.78-14.37-12.98-23.57-9.76"/>
		</g>
		<g id="ARC_121_">
			<path class="st0" d="M990.25,746.84c1.53-0.1,2.88-1.02,3.54-2.4"/>
		</g>
		<g id="ARC_122_">
			<path class="st0" d="M1017.36,734.68c1.44,0.51,3.05,0.2,4.2-0.81"/>
		</g>
		<g id="ARC_123_">
			<path class="st0" d="M1017.36,734.68c-9.19-3.22-19.34,0.98-23.57,9.76"/>
		</g>
		<g id="ARC_124_">
			<path class="st0" d="M1026.68,728.74c1.01-1.15,1.31-2.76,0.81-4.2"/>
		</g>
		<g id="ARC_125_">
			<path class="st0" d="M1037.25,700.98c1.38-0.66,2.29-2.02,2.4-3.54"/>
		</g>
		<g id="ARC_126_">
			<path class="st0" d="M1037.25,700.98c-8.78,4.22-12.98,14.37-9.76,23.57"/>
		</g>
		<g id="ARC_127_">
			<path class="st0" d="M1039.65,690.19c-0.1-1.53-1.02-2.88-2.4-3.54"/>
		</g>
		<g id="ARC_128_">
			<path class="st0" d="M1027.49,663.08c0.51-1.44,0.2-3.05-0.81-4.2"/>
		</g>
		<g id="ARC_129_">
			<path class="st0" d="M1027.49,663.08c-3.22,9.19,0.98,19.34,9.76,23.57"/>
		</g>
		<g id="ARC_130_">
			<path class="st0" d="M1021.56,653.75c-1.15-1.01-2.76-1.31-4.2-0.81"/>
		</g>
		<g id="ARC_131_">
			<path class="st0" d="M993.79,643.18c-0.66-1.38-2.02-2.29-3.54-2.4"/>
		</g>
		<g id="ARC_132_">
			<path class="st0" d="M993.79,643.18c4.22,8.78,14.37,12.98,23.57,9.76"/>
		</g>
		<g id="CIRCLE_31_">
			<path class="st0" d="M980.95,693.81c0-3.13,2.54-5.67,5.67-5.67s5.67,2.54,5.67,5.67c0,3.13-2.54,5.67-5.67,5.67
				S980.95,696.94,980.95,693.81L980.95,693.81z"/>
		</g>
	</g>
</g>
<g id="INSERT_37_">
	<g id="INSERT_36_">
		<g id="LINE_78_">
			<line class="st0" x1="189.4" y1="253.87" x2="203.57" y2="253.87"/>
		</g>
		<g id="LINE_79_">
			<line class="st0" x1="132.64" y1="253.87" x2="118.53" y2="253.87"/>
		</g>
		<g id="LINE_80_">
			<line class="st0" x1="203.57" y1="320.49" x2="203.57" y2="253.87"/>
		</g>
		<g id="LINE_81_">
			<line class="st0" x1="118.53" y1="320.49" x2="118.53" y2="253.87"/>
		</g>
		<g id="ARC_133_">
			<path class="st0" d="M118.53,320.49c0,23.48,19.04,42.52,42.52,42.52s42.52-19.04,42.52-42.52"/>
		</g>
		<g id="ARC_134_">
			<path class="st0" d="M132.64,253.87c0.04-1.42,0.06-2.83,0.06-4.25"/>
		</g>
		<g id="LINE_82_">
			<line class="st0" x1="132.71" y1="249.62" x2="132.71" y2="235.45"/>
		</g>
		<g id="LINE_83_">
			<line class="st0" x1="189.4" y1="235.45" x2="189.4" y2="253.87"/>
		</g>
		<g id="LINE_84_">
			<line class="st0" x1="170.27" y1="235.45" x2="189.4" y2="235.45"/>
		</g>
		<g id="LINE_85_">
			<line class="st0" x1="170.27" y1="253.87" x2="170.27" y2="235.45"/>
		</g>
		<g id="LINE_86_">
			<line class="st0" x1="151.84" y1="235.45" x2="151.84" y2="253.87"/>
		</g>
		<g id="LINE_87_">
			<line class="st0" x1="151.84" y1="253.87" x2="170.27" y2="253.87"/>
		</g>
		<g id="LINE_88_">
			<line class="st0" x1="132.71" y1="235.45" x2="151.84" y2="235.45"/>
		</g>
		<g id="CIRCLE_32_">
			<path class="st0" d="M161.05,326.15c-3.13,0-5.67-2.54-5.67-5.67c0-3.13,2.54-5.67,5.67-5.67c3.13,0,5.67,2.54,5.67,5.67
				C166.72,323.62,164.19,326.15,161.05,326.15L161.05,326.15z"/>
		</g>
	</g>
</g>
<g id="INSERT_39_">
	<g id="INSERT_38_">
		<g id="LINE_89_">
			<line class="st0" x1="189.4" y1="106.47" x2="203.57" y2="106.47"/>
		</g>
		<g id="LINE_90_">
			<line class="st0" x1="132.64" y1="106.47" x2="118.53" y2="106.47"/>
		</g>
		<g id="LINE_91_">
			<line class="st0" x1="203.57" y1="173.08" x2="203.57" y2="106.47"/>
		</g>
		<g id="LINE_92_">
			<line class="st0" x1="118.53" y1="173.08" x2="118.53" y2="106.47"/>
		</g>
		<g id="ARC_135_">
			<path class="st0" d="M118.53,173.08c0,23.48,19.04,42.52,42.52,42.52s42.52-19.04,42.52-42.52"/>
		</g>
		<g id="ARC_136_">
			<path class="st0" d="M132.64,106.47c0.04-1.42,0.06-2.83,0.06-4.25"/>
		</g>
		<g id="LINE_93_">
			<line class="st0" x1="132.71" y1="102.22" x2="132.71" y2="88.04"/>
		</g>
		<g id="LINE_94_">
			<line class="st0" x1="189.4" y1="88.04" x2="189.4" y2="106.47"/>
		</g>
		<g id="LINE_95_">
			<line class="st0" x1="170.27" y1="88.04" x2="189.4" y2="88.04"/>
		</g>
		<g id="LINE_96_">
			<line class="st0" x1="170.27" y1="106.47" x2="170.27" y2="88.04"/>
		</g>
		<g id="LINE_97_">
			<line class="st0" x1="151.84" y1="88.04" x2="151.84" y2="106.47"/>
		</g>
		<g id="LINE_98_">
			<line class="st0" x1="151.84" y1="106.47" x2="170.27" y2="106.47"/>
		</g>
		<g id="LINE_99_">
			<line class="st0" x1="132.71" y1="88.04" x2="151.84" y2="88.04"/>
		</g>
		<g id="CIRCLE_33_">
			<path class="st0" d="M161.05,178.75c-3.13,0-5.67-2.54-5.67-5.67c0-3.13,2.54-5.67,5.67-5.67c3.13,0,5.67,2.54,5.67,5.67
				C166.72,176.21,164.19,178.75,161.05,178.75L161.05,178.75z"/>
		</g>
	</g>
</g>
<g id="INSERT_41_">
	<g id="INSERT_40_">
		<g id="LINE_100_">
			<line class="st0" x1="202.01" y1="758.71" x2="216.19" y2="758.71"/>
		</g>
		<g id="LINE_101_">
			<line class="st0" x1="145.26" y1="758.71" x2="131.15" y2="758.71"/>
		</g>
		<g id="LINE_102_">
			<line class="st0" x1="216.19" y1="825.33" x2="216.19" y2="758.71"/>
		</g>
		<g id="LINE_103_">
			<line class="st0" x1="131.15" y1="825.33" x2="131.15" y2="758.71"/>
		</g>
		<g id="ARC_137_">
			<path class="st0" d="M131.15,825.33c0,23.48,19.04,42.52,42.52,42.52s42.52-19.04,42.52-42.52"/>
		</g>
		<g id="ARC_138_">
			<path class="st0" d="M145.26,758.71c0.04-1.42,0.06-2.83,0.06-4.25"/>
		</g>
		<g id="LINE_104_">
			<line class="st0" x1="145.32" y1="754.46" x2="145.32" y2="740.29"/>
		</g>
		<g id="LINE_105_">
			<line class="st0" x1="202.01" y1="740.29" x2="202.01" y2="758.71"/>
		</g>
		<g id="LINE_106_">
			<line class="st0" x1="182.88" y1="740.29" x2="202.01" y2="740.29"/>
		</g>
		<g id="LINE_107_">
			<line class="st0" x1="182.88" y1="758.71" x2="182.88" y2="740.29"/>
		</g>
		<g id="LINE_108_">
			<line class="st0" x1="164.46" y1="740.29" x2="164.46" y2="758.71"/>
		</g>
		<g id="LINE_109_">
			<line class="st0" x1="164.46" y1="758.71" x2="182.88" y2="758.71"/>
		</g>
		<g id="LINE_110_">
			<line class="st0" x1="145.32" y1="740.29" x2="164.46" y2="740.29"/>
		</g>
		<g id="CIRCLE_34_">
			<path class="st0" d="M173.67,831c-3.13,0-5.67-2.54-5.67-5.67c0-3.13,2.54-5.67,5.67-5.67c3.13,0,5.67,2.54,5.67,5.67
				C179.34,828.46,176.8,831,173.67,831L173.67,831z"/>
		</g>
	</g>
</g>
<g id="INSERT_55_">
	<g id="INSERT_54_">
		<g id="INSERT_51_">
			<g id="INSERT_50_">
				<g id="INSERT_49_">
					<g id="INSERT_48_">
						<g id="INSERT_43_">
							<g id="INSERT_42_">
								<g id="ARC_139_">
									<path class="st0" d="M834.01,705.63c1.45,18.73,17.81,32.74,36.54,31.29c0.24-0.02,0.47-0.04,0.71-0.06"/>
								</g>
								<g id="ARC_140_">
									<path class="st0" d="M891.67,772.2c7.21-10.06,4.9-24.05-5.16-31.26c-4.42-3.17-9.84-4.62-15.25-4.09"/>
								</g>
								<g id="ARC_141_">
									<path class="st0" d="M891.67,772.2c-10.94,15.27-7.44,36.52,7.83,47.46c0.19,0.14,0.39,0.28,0.58,0.41"/>
								</g>
							</g>
						</g>
						<g id="INSERT_45_">
							<g id="INSERT_44_">
								<g id="ARC_142_">
									<path class="st0" d="M1073.17,820.07c15.5-10.62,19.45-31.79,8.83-47.29c-0.13-0.2-0.27-0.39-0.41-0.59"/>
								</g>
								<g id="ARC_143_">
									<path class="st0" d="M1101.99,736.85c-12.31-1.21-23.28,7.78-24.49,20.09c-0.53,5.41,0.92,10.83,4.09,15.25"/>
								</g>
								<g id="ARC_144_">
									<path class="st0" d="M1101.99,736.85c18.7,1.84,35.35-11.82,37.19-30.51c0.02-0.24,0.04-0.47,0.06-0.71"/>
								</g>
							</g>
						</g>
						<g id="INSERT_47_">
							<g id="INSERT_46_">
								<g id="ARC_145_">
									<path class="st0" d="M1052.7,555.73c-16.95-8.11-37.26-0.95-45.37,16c-0.1,0.21-0.2,0.43-0.3,0.65"/>
								</g>
								<g id="ARC_146_">
									<path class="st0" d="M966.22,572.38c5.1,11.27,18.38,16.27,29.65,11.16c4.95-2.24,8.92-6.21,11.16-11.16"/>
								</g>
								<g id="ARC_147_">
									<path class="st0" d="M966.22,572.38c-7.75-17.11-27.91-24.7-45.02-16.95c-0.22,0.1-0.43,0.2-0.65,0.3"/>
								</g>
							</g>
						</g>
					</g>
				</g>
				<g id="ARC_148_">
					<path class="st0" d="M900.08,820.07c52.16,35.75,120.93,35.75,173.08,0"/>
				</g>
				<g id="ARC_149_">
					<path class="st0" d="M1139.24,705.63c4.88-63.04-29.5-122.6-86.54-149.89"/>
				</g>
				<g id="ARC_150_">
					<path class="st0" d="M920.55,555.73c-57.04,27.29-91.42,86.85-86.54,149.89"/>
				</g>
			</g>
		</g>
		<g id="LINE_111_">
			<line class="st0" x1="979.54" y1="844.05" x2="979.54" y2="861.06"/>
		</g>
		<g id="LINE_112_">
			<line class="st0" x1="993.71" y1="844.05" x2="979.54" y2="844.05"/>
		</g>
		<g id="LINE_113_">
			<line class="st0" x1="993.71" y1="861.06" x2="993.71" y2="844.05"/>
		</g>
		<g id="LINE_114_">
			<line class="st0" x1="979.54" y1="861.06" x2="993.71" y2="861.06"/>
		</g>
		<g id="INSERT_53_">
			<g id="INSERT_52_">
				<g id="CIRCLE_35_">
					<path class="st0" d="M980.95,563.14c0-3.13,2.54-5.67,5.67-5.67s5.67,2.54,5.67,5.67c0,3.13-2.54,5.67-5.67,5.67
						S980.95,566.27,980.95,563.14L980.95,563.14z"/>
				</g>
				<g id="CIRCLE_36_">
					<path class="st0" d="M867.79,759.15c0-3.13,2.54-5.67,5.67-5.67c3.13,0,5.67,2.54,5.67,5.67c0,3.13-2.54,5.67-5.67,5.67
						C870.33,764.82,867.79,762.28,867.79,759.15L867.79,759.15z"/>
				</g>
				<g id="CIRCLE_37_">
					<path class="st0" d="M1094.12,759.15c0-3.13,2.54-5.67,5.67-5.67c3.13,0,5.67,2.54,5.67,5.67c0,3.13-2.54,5.67-5.67,5.67
						C1096.66,764.82,1094.12,762.28,1094.12,759.15L1094.12,759.15z"/>
				</g>
			</g>
		</g>
		<g id="CIRCLE_38_">
			<path class="st0" d="M816.55,693.81c0-93.93,76.15-170.08,170.08-170.08s170.08,76.15,170.08,170.08s-76.15,170.08-170.08,170.08
				S816.55,787.74,816.55,693.81L816.55,693.81z"/>
		</g>
	</g>
</g>
<g id="INSERT_57_">
	<g id="INSERT_56_">
		<g id="CIRCLE_39_">
			<path class="st0" d="M895.92,693.81c0-0.78,0.63-1.42,1.42-1.42s1.42,0.63,1.42,1.42s-0.63,1.42-1.42,1.42
				S895.92,694.59,895.92,693.81L895.92,693.81z"/>
		</g>
		<g id="CIRCLE_40_">
			<path class="st0" d="M896.82,706.52c0-0.78,0.63-1.42,1.42-1.42c0.78,0,1.42,0.63,1.42,1.42s-0.63,1.42-1.42,1.42
				C897.46,707.94,896.82,707.3,896.82,706.52L896.82,706.52z"/>
		</g>
		<g id="CIRCLE_41_">
			<path class="st0" d="M899.53,718.97c0-0.78,0.63-1.42,1.42-1.42c0.78,0,1.42,0.63,1.42,1.42s-0.63,1.42-1.42,1.42
				C900.17,720.38,899.53,719.75,899.53,718.97L899.53,718.97z"/>
		</g>
		<g id="CIRCLE_42_">
			<path class="st0" d="M903.98,730.9c0-0.78,0.63-1.42,1.42-1.42c0.78,0,1.42,0.63,1.42,1.42c0,0.78-0.63,1.42-1.42,1.42
				C904.62,732.32,903.98,731.69,903.98,730.9L903.98,730.9z"/>
		</g>
		<g id="CIRCLE_43_">
			<path class="st0" d="M910.09,742.09c0-0.78,0.63-1.42,1.42-1.42s1.42,0.63,1.42,1.42c0,0.78-0.63,1.42-1.42,1.42
				S910.09,742.87,910.09,742.09L910.09,742.09z"/>
		</g>
		<g id="CIRCLE_44_">
			<path class="st0" d="M917.72,752.28c0-0.78,0.63-1.42,1.42-1.42s1.42,0.63,1.42,1.42c0,0.78-0.63,1.42-1.42,1.42
				S917.72,753.07,917.72,752.28L917.72,752.28z"/>
		</g>
		<g id="CIRCLE_45_">
			<path class="st0" d="M926.73,761.29c0-0.78,0.63-1.42,1.42-1.42s1.42,0.63,1.42,1.42c0,0.78-0.63,1.42-1.42,1.42
				S926.73,762.08,926.73,761.29L926.73,761.29z"/>
		</g>
		<g id="CIRCLE_46_">
			<path class="st0" d="M936.93,768.93c0-0.78,0.63-1.42,1.42-1.42s1.42,0.63,1.42,1.42c0,0.78-0.63,1.42-1.42,1.42
				S936.93,769.71,936.93,768.93L936.93,768.93z"/>
		</g>
		<g id="CIRCLE_47_">
			<path class="st0" d="M948.11,775.03c0-0.78,0.63-1.42,1.42-1.42s1.42,0.63,1.42,1.42s-0.63,1.42-1.42,1.42
				S948.11,775.82,948.11,775.03L948.11,775.03z"/>
		</g>
		<g id="CIRCLE_48_">
			<path class="st0" d="M960.05,779.49c0-0.78,0.63-1.42,1.42-1.42c0.78,0,1.42,0.63,1.42,1.42s-0.63,1.42-1.42,1.42
				C960.69,780.9,960.05,780.27,960.05,779.49L960.05,779.49z"/>
		</g>
		<g id="CIRCLE_49_">
			<path class="st0" d="M972.5,782.19c0-0.78,0.63-1.42,1.42-1.42c0.78,0,1.42,0.63,1.42,1.42s-0.63,1.42-1.42,1.42
				C973.13,783.61,972.5,782.98,972.5,782.19L972.5,782.19z"/>
		</g>
		<g id="CIRCLE_50_">
			<path class="st0" d="M985.21,783.1c0-0.78,0.63-1.42,1.42-1.42s1.42,0.63,1.42,1.42c0,0.78-0.63,1.42-1.42,1.42
				S985.21,783.89,985.21,783.1L985.21,783.1z"/>
		</g>
	</g>
</g>
<g id="INSERT_59_">
	<g id="INSERT_58_">
		<g id="CIRCLE_51_">
			<path class="st0" d="M729.19,865.75c-45.4,0-82.2-36.8-82.2-82.2c0-45.4,36.8-82.2,82.2-82.2s82.2,36.8,82.2,82.2
				C811.39,828.94,774.59,865.75,729.19,865.75L729.19,865.75z"/>
		</g>
		<g id="LINE_115_">
			<line class="st0" x1="739.11" y1="779.29" x2="719.27" y2="779.29"/>
		</g>
		<g id="LINE_116_">
			<line class="st0" x1="719.27" y1="779.29" x2="719.27" y2="787.8"/>
		</g>
		<g id="LINE_117_">
			<line class="st0" x1="719.27" y1="787.8" x2="739.11" y2="787.8"/>
		</g>
		<g id="LINE_118_">
			<line class="st0" x1="739.11" y1="787.8" x2="739.11" y2="779.29"/>
		</g>
		<g id="LINE_119_">
			<line class="st0" x1="774.68" y1="811.89" x2="756.82" y2="811.89"/>
		</g>
		<g id="LINE_120_">
			<line class="st0" x1="756.82" y1="774.33" x2="756.82" y2="755.2"/>
		</g>
		<g id="LINE_121_">
			<line class="st0" x1="756.82" y1="755.2" x2="774.68" y2="755.2"/>
		</g>
		<g id="LINE_122_">
			<line class="st0" x1="774.68" y1="755.2" x2="774.68" y2="774.33"/>
		</g>
		<g id="LINE_123_">
			<line class="st0" x1="774.68" y1="774.33" x2="756.82" y2="774.33"/>
		</g>
		<g id="LINE_124_">
			<line class="st0" x1="756.82" y1="792.76" x2="774.68" y2="792.76"/>
		</g>
		<g id="LINE_125_">
			<line class="st0" x1="774.68" y1="792.76" x2="774.68" y2="811.89"/>
		</g>
		<g id="LINE_126_">
			<line class="st0" x1="756.82" y1="811.89" x2="756.82" y2="792.76"/>
		</g>
		<g id="LINE_127_">
			<line class="st0" x1="702.12" y1="811.89" x2="684.26" y2="811.89"/>
		</g>
		<g id="LINE_128_">
			<line class="st0" x1="684.26" y1="774.33" x2="684.26" y2="755.2"/>
		</g>
		<g id="LINE_129_">
			<line class="st0" x1="684.26" y1="755.2" x2="702.12" y2="755.2"/>
		</g>
		<g id="LINE_130_">
			<line class="st0" x1="702.12" y1="774.33" x2="684.26" y2="774.33"/>
		</g>
		<g id="LINE_131_">
			<line class="st0" x1="684.26" y1="792.76" x2="702.12" y2="792.76"/>
		</g>
		<g id="LINE_132_">
			<line class="st0" x1="684.26" y1="811.89" x2="684.26" y2="792.76"/>
		</g>
		<g id="LINE_133_">
			<line class="st0" x1="702.12" y1="811.89" x2="702.12" y2="792.76"/>
		</g>
		<g id="LINE_134_">
			<line class="st0" x1="702.12" y1="774.33" x2="702.12" y2="755.2"/>
		</g>
	</g>
</g>
<g id="INSERT_61_">
	<g id="INSERT_60_">
		<g id="CIRCLE_52_">
			<path class="st0" d="M654.07,786.38c-1.57,0-2.83-1.27-2.83-2.83c0-1.57,1.27-2.83,2.83-2.83s2.83,1.27,2.83,2.83
				C656.9,785.11,655.63,786.38,654.07,786.38L654.07,786.38z"/>
		</g>
		<g id="CIRCLE_53_">
			<path class="st0" d="M766.75,851.43c-1.57,0-2.83-1.27-2.83-2.83c0-1.57,1.27-2.83,2.83-2.83c1.57,0,2.83,1.27,2.83,2.83
				C769.58,850.16,768.31,851.43,766.75,851.43L766.75,851.43z"/>
		</g>
		<g id="CIRCLE_54_">
			<path class="st0" d="M766.75,721.32c-1.57,0-2.83-1.27-2.83-2.83c0-1.57,1.27-2.83,2.83-2.83c1.57,0,2.83,1.27,2.83,2.83
				C769.58,720.06,768.31,721.32,766.75,721.32L766.75,721.32z"/>
		</g>
	</g>
</g>
<g id="INSERT_63_">
	<g id="INSERT_62_">
		<g id="ARC_151_">
			<path class="st0" d="M498.14,804.4c1.34-4.5-1.22-9.24-5.72-10.58c-0.3-0.09-0.61-0.16-0.92-0.22"/>
		</g>
		<g id="ARC_152_">
			<path class="st0" d="M486.05,838.69c4.63,0.8,9.03-2.29,9.83-6.92c0.14-0.8,0.16-1.62,0.07-2.43"/>
		</g>
		<g id="ARC_153_">
			<path class="st0" d="M189.67,491.77c-0.83-4.62-5.26-7.69-9.88-6.86c-0.31,0.06-0.62,0.13-0.92,0.22"/>
		</g>
		<g id="ARC_154_">
			<path class="st0" d="M153.93,487.32c-4.67-0.54-8.88,2.81-9.42,7.48c-0.09,0.81-0.07,1.63,0.07,2.43"/>
		</g>
		<g id="ARC_155_">
			<path class="st0" d="M498.14,804.4c-2.41,8.08-3.15,16.57-2.19,24.94"/>
		</g>
		<g id="ARC_156_">
			<path class="st0" d="M189.67,491.77C217.4,645.53,337.74,765.87,491.5,793.6"/>
		</g>
		<g id="ARC_157_">
			<path class="st0" d="M153.93,487.32c8.38,0.96,16.86,0.22,24.94-2.19"/>
		</g>
		<g id="ARC_158_">
			<path class="st0" d="M144.58,497.23c30.34,174.49,166.98,311.13,341.47,341.47"/>
		</g>
		<g id="ARC_159_">
			<path class="st0" d="M118.53,425.37c0,242.66,196.71,439.37,439.37,439.37"/>
		</g>
		<g id="ARC_160_">
			<path class="st0" d="M203.57,425.37c0,195.69,158.64,354.33,354.33,354.33"/>
		</g>
		<g id="ARC_161_">
			<path class="st0" d="M557.9,864.74c23.48,0,42.52-19.04,42.52-42.52s-19.04-42.52-42.52-42.52"/>
		</g>
		<g id="ARC_162_">
			<path class="st0" d="M203.57,425.37c0-23.48-19.04-42.52-42.52-42.52s-42.52,19.04-42.52,42.52"/>
		</g>
		<g id="CIRCLE_55_">
			<path class="st0" d="M161.05,431.04c-3.13,0-5.67-2.54-5.67-5.67c0-3.13,2.54-5.67,5.67-5.67c3.13,0,5.67,2.54,5.67,5.67
				C166.72,428.5,164.19,431.04,161.05,431.04L161.05,431.04z"/>
		</g>
		<g id="CIRCLE_56_">
			<path class="st0" d="M557.9,827.89c-3.13,0-5.67-2.54-5.67-5.67c0-3.13,2.54-5.67,5.67-5.67c3.13,0,5.67,2.54,5.67,5.67
				C563.57,825.35,561.04,827.89,557.9,827.89L557.9,827.89z"/>
		</g>
	</g>
</g>
<g id="INSERT_65_">
	<g id="INSERT_64_">
		<g id="ARC_163_">
			<path class="st0" d="M739.69,132.86c-0.86,4.62,2.18,9.06,6.8,9.92c0.31,0.06,0.62,0.1,0.94,0.12"/>
		</g>
		<g id="ARC_164_">
			<path class="st0" d="M748.13,97.49c-4.69-0.32-8.74,3.23-9.06,7.91c-0.05,0.81,0.01,1.63,0.18,2.42"/>
		</g>
		<g id="ARC_165_">
			<path class="st0" d="M1079.23,411.44c1.31,4.51,6.03,7.1,10.54,5.79c0.3-0.09,0.6-0.19,0.89-0.31"/>
		</g>
		<g id="ARC_166_">
			<path class="st0" d="M1115.24,412.12c4.7,0.04,8.54-3.73,8.58-8.42c0.01-0.81-0.1-1.62-0.32-2.41"/>
		</g>
		<g id="ARC_167_">
			<path class="st0" d="M739.69,132.86c1.55-8.29,1.4-16.81-0.44-25.04"/>
		</g>
		<g id="ARC_168_">
			<path class="st0" d="M1079.23,411.44c-43.69-150.01-175.98-257.08-331.8-268.54"/>
		</g>
		<g id="ARC_169_">
			<path class="st0" d="M1115.24,412.12c-8.43-0.08-16.79,1.55-24.58,4.79"/>
		</g>
		<g id="ARC_170_">
			<path class="st0" d="M1123.5,401.29c-48.45-170.35-198.67-291.92-375.37-303.8"/>
		</g>
		<g id="ARC_171_">
			<path class="st0" d="M1156.93,470.02c-25.43-241.32-241.67-416.34-483-390.91"/>
		</g>
		<g id="ARC_172_">
			<path class="st0" d="M1072.36,478.94c-20.51-194.61-194.9-335.75-389.51-315.25"/>
		</g>
		<g id="ARC_173_">
			<path class="st0" d="M673.93,79.12c-23.35,2.46-40.29,23.39-37.83,46.74c2.46,23.35,23.39,40.29,46.74,37.83"/>
		</g>
		<g id="ARC_174_">
			<path class="st0" d="M1072.36,478.94c2.46,23.35,23.39,40.29,46.74,37.83c23.35-2.46,40.29-23.39,37.83-46.74"/>
		</g>
		<g id="CIRCLE_57_">
			<path class="st0" d="M1114.64,480.15c-3.13,0-5.67-2.54-5.67-5.67c0-3.13,2.54-5.67,5.67-5.67c3.13,0,5.67,2.54,5.67,5.67
				C1120.31,477.61,1117.77,480.15,1114.64,480.15L1114.64,480.15z"/>
		</g>
		<g id="CIRCLE_58_">
			<path class="st0" d="M678.39,127.07c-3.13,0-5.67-2.54-5.67-5.67s2.54-5.67,5.67-5.67s5.67,2.54,5.67,5.67
				S681.52,127.07,678.39,127.07L678.39,127.07z"/>
		</g>
	</g>
</g>
<g id="TEXT">
	<text transform="matrix(1 0 0 1 445.9373 947.2975)" class="st1 st2">Swiveling Wall Spot Lamp - ZenziWerken - 6.3 mm Beech Plywood</text>
</g>
</svg>
