<?xml version="1.0" encoding="utf-8"?>
<!-- Generator: Adobe Illustrator 19.2.1, SVG Export Plug-In . SVG Version: 6.00 Build 0)  -->
<svg version="1.1" id="Ebene_1" xmlns="http://www.w3.org/2000/svg" xmlns:xlink="http://www.w3.org/1999/xlink" x="0px" y="0px"
	 width="1275.59px" height="1133.86px" viewBox="0 0 1275.59 1133.86" style="enable-background:new 0 0 1275.59 1133.86;"
	 xml:space="preserve">
<style type="text/css">
	.st0{fill:none;stroke:#000000;stroke-width:0.7087;stroke-linecap:round;stroke-linejoin:round;stroke-miterlimit:10;}
	.st1{fill:#010202;}
	.st2{font-family:'MyriadPro-Regular';}
	.st3{font-size:14.0131px;}
</style>
<g id="CIRCLE">
	<path class="st0" d="M557.66,248.75c0-3.13,2.54-5.67,5.67-5.67c3.13,0,5.67,2.54,5.67,5.67s-2.54,5.67-5.67,5.67
		C560.2,254.42,557.66,251.88,557.66,248.75L557.66,248.75z"/>
</g>
<g id="LINE">
	<line class="st0" x1="629.95" y1="258" x2="629.95" y2="271.47"/>
</g>
<g id="ARC">
	<path class="st0" d="M579.68,209.5c15.56,8.64,32.62,14.27,50.26,16.6"/>
</g>
<g id="ARC_1_">
	<path class="st0" d="M629.95,271.47c-17.64,2.31-34.69,7.91-50.26,16.53"/>
</g>
<g id="ARC_2_">
	<path class="st0" d="M579.68,209.5c-21.68-9.03-46.57,1.22-55.6,22.9s1.22,46.57,22.9,55.6c10.47,4.36,22.24,4.36,32.71,0"/>
</g>
<g id="LINE_1_">
	<line class="st0" x1="629.95" y1="258" x2="648.37" y2="258"/>
</g>
<g id="LINE_2_">
	<line class="st0" x1="648.37" y1="258" x2="648.37" y2="239.57"/>
</g>
<g id="LINE_3_">
	<line class="st0" x1="648.37" y1="239.57" x2="629.95" y2="239.57"/>
</g>
<g id="LINE_4_">
	<line class="st0" x1="629.95" y1="226.1" x2="629.95" y2="239.57"/>
</g>
<g id="CIRCLE_1_">
	<path class="st0" d="M621.38,335.27c0-3.13,2.54-5.67,5.67-5.67c3.13,0,5.67,2.54,5.67,5.67c0,3.13-2.54,5.67-5.67,5.67
		C623.92,340.94,621.38,338.4,621.38,335.27L621.38,335.27z"/>
</g>
<g id="LINE_5_">
	<line class="st0" x1="693.67" y1="344.52" x2="693.67" y2="357.99"/>
</g>
<g id="ARC_3_">
	<path class="st0" d="M643.4,296.02c15.56,8.64,32.62,14.27,50.26,16.6"/>
</g>
<g id="ARC_4_">
	<path class="st0" d="M693.67,357.99c-17.64,2.31-34.69,7.91-50.26,16.53"/>
</g>
<g id="ARC_5_">
	<path class="st0" d="M643.4,296.02c-21.68-9.03-46.57,1.22-55.6,22.9c-9.03,21.68,1.22,46.57,22.9,55.6
		c10.47,4.36,22.24,4.36,32.71,0"/>
</g>
<g id="LINE_6_">
	<line class="st0" x1="693.67" y1="344.52" x2="712.09" y2="344.52"/>
</g>
<g id="LINE_7_">
	<line class="st0" x1="712.09" y1="344.52" x2="712.09" y2="326.09"/>
</g>
<g id="LINE_8_">
	<line class="st0" x1="712.09" y1="326.09" x2="693.67" y2="326.09"/>
</g>
<g id="LINE_9_">
	<line class="st0" x1="693.67" y1="312.62" x2="693.67" y2="326.09"/>
</g>
<g id="LINE_10_">
	<line class="st0" x1="154.31" y1="171.54" x2="1004.7" y2="171.54"/>
</g>
<g id="LINE_11_">
	<line class="st0" x1="1004.7" y1="171.54" x2="1004.7" y2="126.19"/>
</g>
<g id="LINE_12_">
	<line class="st0" x1="1004.7" y1="126.19" x2="154.31" y2="126.19"/>
</g>
<g id="LINE_13_">
	<line class="st0" x1="154.31" y1="126.19" x2="154.31" y2="171.54"/>
</g>
<g id="LINE_14_">
	<line class="st0" x1="154.31" y1="114.85" x2="1004.7" y2="114.85"/>
</g>
<g id="LINE_15_">
	<line class="st0" x1="1004.7" y1="114.85" x2="1004.7" y2="69.5"/>
</g>
<g id="LINE_16_">
	<line class="st0" x1="1004.7" y1="69.5" x2="154.31" y2="69.5"/>
</g>
<g id="LINE_17_">
	<line class="st0" x1="154.31" y1="69.5" x2="154.31" y2="114.85"/>
</g>
<g id="LINE_18_">
	<line class="st0" x1="161.39" y1="108.05" x2="997.61" y2="108.05"/>
</g>
<g id="LINE_19_">
	<line class="st0" x1="997.61" y1="108.05" x2="997.61" y2="76.3"/>
</g>
<g id="LINE_20_">
	<line class="st0" x1="997.61" y1="76.3" x2="161.39" y2="76.3"/>
</g>
<g id="LINE_21_">
	<line class="st0" x1="161.39" y1="76.3" x2="161.39" y2="108.05"/>
</g>
<g id="LINE_22_">
	<line class="st0" x1="164.23" y1="97.84" x2="994.78" y2="97.84"/>
</g>
<g id="LINE_23_">
	<line class="st0" x1="994.78" y1="97.84" x2="994.78" y2="86.51"/>
</g>
<g id="LINE_24_">
	<line class="st0" x1="994.78" y1="86.51" x2="164.23" y2="86.51"/>
</g>
<g id="LINE_25_">
	<line class="st0" x1="164.23" y1="86.51" x2="164.23" y2="97.84"/>
</g>
<g id="LINE_26_">
	<line class="st0" x1="588.72" y1="101.39" x2="607.14" y2="101.39"/>
</g>
<g id="LINE_27_">
	<line class="st0" x1="607.14" y1="101.39" x2="607.14" y2="82.96"/>
</g>
<g id="LINE_28_">
	<line class="st0" x1="607.14" y1="82.96" x2="588.72" y2="82.96"/>
</g>
<g id="LINE_29_">
	<line class="st0" x1="570.29" y1="82.96" x2="570.29" y2="101.39"/>
</g>
<g id="LINE_30_">
	<line class="st0" x1="551.86" y1="101.39" x2="570.29" y2="101.39"/>
</g>
<g id="LINE_31_">
	<line class="st0" x1="588.72" y1="101.39" x2="588.72" y2="82.96"/>
</g>
<g id="LINE_32_">
	<line class="st0" x1="570.29" y1="82.96" x2="551.86" y2="82.96"/>
</g>
<g id="LINE_33_">
	<line class="st0" x1="551.86" y1="82.96" x2="551.86" y2="101.39"/>
</g>
<g id="INSERT_2_">
	<g id="INSERT_1_">
		<g id="CIRCLE_2_">
			<path class="st0" d="M552.36,417.47c0-3.13,2.54-5.67,5.67-5.67s5.67,2.54,5.67,5.67s-2.54,5.67-5.67,5.67
				S552.36,420.6,552.36,417.47L552.36,417.47z"/>
		</g>
		<g id="CIRCLE_3_">
			<path class="st0" d="M515.51,417.47c0-23.48,19.04-42.52,42.52-42.52s42.52,19.04,42.52,42.52s-19.04,42.52-42.52,42.52
				S515.51,440.95,515.51,417.47L515.51,417.47z"/>
		</g>
	</g>
</g>
<g id="INSERT_4_">
	<g id="INSERT_3_">
		<g id="CIRCLE_4_">
			<path class="st0" d="M597.55,982.12c0-3.13,2.54-5.67,5.67-5.67s5.67,2.54,5.67,5.67s-2.54,5.67-5.67,5.67
				S597.55,985.25,597.55,982.12L597.55,982.12z"/>
		</g>
		<g id="ARC_6_">
			<path class="st0" d="M512.79,960.03c7.83,1.89,15.79,3.18,23.82,3.86"/>
		</g>
		<g id="ARC_7_">
			<path class="st0" d="M544.31,973.58c-0.28,1.97-0.47,3.94-0.56,5.93"/>
		</g>
		<g id="ARC_8_">
			<path class="st0" d="M533.81,987.52c4.63,0.8,9.03-2.31,9.83-6.93c0.06-0.35,0.1-0.71,0.12-1.07"/>
		</g>
		<g id="ARC_9_">
			<path class="st0" d="M544.31,973.58c0.67-4.65-2.55-8.96-7.2-9.64c-0.17-0.02-0.33-0.04-0.5-0.06"/>
		</g>
		<g id="ARC_10_">
			<path class="st0" d="M516.78,943.49c24.47,5.9,50.07,5.19,74.17-2.08"/>
		</g>
		<g id="ARC_11_">
			<path class="st0" d="M583.73,1019.91c-13.75-7.09-28.56-11.88-43.86-14.19"/>
		</g>
		<g id="ARC_12_">
			<path class="st0" d="M583.73,1019.91c20.87,10.77,46.52,2.57,57.28-18.3c10.77-20.87,2.57-46.52-18.3-57.28
				c-9.81-5.06-21.2-6.11-31.77-2.92"/>
		</g>
		<g id="CIRCLE_5_">
			<path class="st0" d="M200.7,585.81c0-3.13,2.54-5.67,5.67-5.67c3.13,0,5.67,2.54,5.67,5.67c0,3.13-2.54,5.67-5.67,5.67
				C203.24,591.48,200.7,588.94,200.7,585.81L200.7,585.81z"/>
		</g>
		<g id="ARC_13_">
			<path class="st0" d="M209.06,645.27c1.98-0.09,3.96-0.28,5.93-0.57"/>
		</g>
		<g id="ARC_14_">
			<path class="st0" d="M224.69,652.39c0.69,8.03,1.99,15.99,3.89,23.82"/>
		</g>
		<g id="ARC_15_">
			<path class="st0" d="M224.69,652.39c-0.4-4.68-4.52-8.15-9.2-7.74c-0.17,0.01-0.33,0.03-0.5,0.06"/>
		</g>
		<g id="ARC_16_">
			<path class="st0" d="M209.06,645.27c-4.69,0.21-8.32,4.19-8.11,8.88c0.02,0.36,0.06,0.72,0.12,1.07"/>
		</g>
		<g id="ARC_17_">
			<path class="st0" d="M182.86,649.19c-2.33-15.29-7.14-30.1-14.25-43.84"/>
		</g>
		<g id="ARC_18_">
			<path class="st0" d="M247.1,598.03c-7.23,24.11-7.92,49.71-1.98,74.17"/>
		</g>
		<g id="ARC_19_">
			<path class="st0" d="M247.1,598.03c6.75-22.49-6.01-46.2-28.5-52.95c-22.49-6.75-46.2,6.01-52.95,28.5
				c-3.17,10.57-2.11,21.96,2.96,31.76"/>
		</g>
		<g id="ARC_20_">
			<path class="st0" d="M228.59,676.21c34.08,140.38,143.77,249.93,284.2,283.82"/>
		</g>
		<g id="ARC_21_">
			<path class="st0" d="M245.12,672.2c32.57,134.19,137.43,238.91,271.66,271.3"/>
		</g>
		<g id="ARC_22_">
			<path class="st0" d="M201.07,655.23c29.56,169.94,162.76,302.96,332.74,332.29"/>
		</g>
		<g id="ARC_23_">
			<path class="st0" d="M182.86,649.19c28.01,184.24,172.74,328.77,357.02,356.54"/>
		</g>
	</g>
</g>
<g id="INSERT_8_">
	<g id="INSERT_7_">
		<g id="INSERT_6_">
			<g id="INSERT_5_">
				<g id="LINE_34_">
					<line class="st0" x1="209.81" y1="264.1" x2="215.46" y2="254.32"/>
				</g>
				<g id="LINE_35_">
					<line class="st0" x1="215.46" y1="254.32" x2="209.81" y2="244.54"/>
				</g>
				<g id="LINE_36_">
					<line class="st0" x1="209.81" y1="244.54" x2="198.52" y2="244.54"/>
				</g>
				<g id="LINE_37_">
					<line class="st0" x1="198.52" y1="244.54" x2="192.87" y2="254.32"/>
				</g>
				<g id="LINE_38_">
					<line class="st0" x1="192.87" y1="254.32" x2="198.52" y2="264.1"/>
				</g>
				<g id="LINE_39_">
					<line class="st0" x1="198.52" y1="264.1" x2="209.81" y2="264.1"/>
				</g>
			</g>
		</g>
		<g id="ARC_24_">
			<path class="st0" d="M221.11,304.7c2.29-0.77,4.53-1.7,6.7-2.77"/>
		</g>
		<g id="ARC_25_">
			<path class="st0" d="M254.54,237.38c-0.77-2.29-1.7-4.53-2.77-6.7"/>
		</g>
		<g id="ARC_26_">
			<path class="st0" d="M227.81,206.72c-2.17-1.08-4.4-2-6.7-2.77"/>
		</g>
		<g id="ARC_27_">
			<path class="st0" d="M187.22,203.95c-2.29,0.77-4.53,1.7-6.7,2.77"/>
		</g>
		<g id="ARC_28_">
			<path class="st0" d="M156.56,230.68c-1.08,2.17-2,4.4-2.77,6.7"/>
		</g>
		<g id="ARC_29_">
			<path class="st0" d="M153.79,271.27c0.77,2.29,1.7,4.53,2.77,6.7"/>
		</g>
		<g id="ARC_30_">
			<path class="st0" d="M180.52,301.93c2.17,1.08,4.4,2,6.7,2.77"/>
		</g>
		<g id="ARC_31_">
			<path class="st0" d="M251.77,277.96c1.08-2.17,2-4.4,2.77-6.7"/>
		</g>
		<g id="ARC_32_">
			<path class="st0" d="M254.54,271.27c0.49-1.45,0.16-3.05-0.86-4.19"/>
		</g>
		<g id="ARC_33_">
			<path class="st0" d="M253.68,241.57c1.02-1.14,1.35-2.74,0.86-4.19"/>
		</g>
		<g id="ARC_34_">
			<path class="st0" d="M253.68,241.57c-6.49,7.26-6.49,18.25,0,25.51"/>
		</g>
		<g id="ARC_35_">
			<path class="st0" d="M251.77,230.68c-0.68-1.37-2.04-2.27-3.57-2.35"/>
		</g>
		<g id="ARC_36_">
			<path class="st0" d="M230.16,210.29c-0.09-1.53-0.98-2.89-2.35-3.57"/>
		</g>
		<g id="ARC_37_">
			<path class="st0" d="M230.16,210.29c0.54,9.73,8.31,17.49,18.04,18.04"/>
		</g>
		<g id="ARC_38_">
			<path class="st0" d="M221.11,203.95c-1.45-0.49-3.05-0.16-4.19,0.86"/>
		</g>
		<g id="ARC_39_">
			<path class="st0" d="M191.41,204.81c-1.14-1.02-2.74-1.35-4.19-0.86"/>
		</g>
		<g id="ARC_40_">
			<path class="st0" d="M191.41,204.81c7.26,6.49,18.25,6.49,25.51,0"/>
		</g>
		<g id="ARC_41_">
			<path class="st0" d="M180.52,206.72c-1.37,0.68-2.27,2.04-2.35,3.57"/>
		</g>
		<g id="ARC_42_">
			<path class="st0" d="M160.13,228.33c-1.53,0.09-2.89,0.98-3.57,2.35"/>
		</g>
		<g id="ARC_43_">
			<path class="st0" d="M160.13,228.33c9.73-0.54,17.49-8.31,18.04-18.04"/>
		</g>
		<g id="ARC_44_">
			<path class="st0" d="M153.79,237.38c-0.49,1.45-0.16,3.05,0.86,4.19"/>
		</g>
		<g id="ARC_45_">
			<path class="st0" d="M154.65,267.08c-1.02,1.14-1.35,2.74-0.86,4.19"/>
		</g>
		<g id="ARC_46_">
			<path class="st0" d="M154.65,267.08c6.49-7.26,6.49-18.25,0-25.51"/>
		</g>
		<g id="ARC_47_">
			<path class="st0" d="M156.56,277.96c0.68,1.37,2.04,2.27,3.57,2.35"/>
		</g>
		<g id="ARC_48_">
			<path class="st0" d="M178.17,298.35c0.09,1.53,0.98,2.89,2.35,3.57"/>
		</g>
		<g id="ARC_49_">
			<path class="st0" d="M178.17,298.35c-0.54-9.73-8.31-17.49-18.04-18.04"/>
		</g>
		<g id="ARC_50_">
			<path class="st0" d="M187.22,304.7c1.45,0.49,3.05,0.16,4.19-0.86"/>
		</g>
		<g id="ARC_51_">
			<path class="st0" d="M216.92,303.84c1.14,1.02,2.74,1.35,4.19,0.86"/>
		</g>
		<g id="ARC_52_">
			<path class="st0" d="M216.92,303.84c-7.26-6.49-18.25-6.49-25.51,0"/>
		</g>
		<g id="ARC_53_">
			<path class="st0" d="M227.81,301.93c1.37-0.68,2.27-2.04,2.35-3.57"/>
		</g>
		<g id="ARC_54_">
			<path class="st0" d="M248.2,280.32c1.53-0.09,2.89-0.98,3.57-2.35"/>
		</g>
		<g id="ARC_55_">
			<path class="st0" d="M248.2,280.32c-9.73,0.54-17.49,8.31-18.04,18.04"/>
		</g>
		<g id="CIRCLE_6_">
			<path class="st0" d="M198.5,254.32c0-3.13,2.54-5.67,5.67-5.67c3.13,0,5.67,2.54,5.67,5.67s-2.54,5.67-5.67,5.67
				C201.03,259.99,198.5,257.45,198.5,254.32L198.5,254.32z"/>
		</g>
	</g>
</g>
<g id="INSERT_12_">
	<g id="INSERT_11_">
		<g id="INSERT_10_">
			<g id="INSERT_9_">
				<g id="LINE_40_">
					<line class="st0" x1="213.12" y1="379.58" x2="214.6" y2="368.38"/>
				</g>
				<g id="LINE_41_">
					<line class="st0" x1="214.6" y1="368.38" x2="205.64" y2="361.51"/>
				</g>
				<g id="LINE_42_">
					<line class="st0" x1="205.64" y1="361.51" x2="195.21" y2="365.83"/>
				</g>
				<g id="LINE_43_">
					<line class="st0" x1="195.21" y1="365.83" x2="193.73" y2="377.03"/>
				</g>
				<g id="LINE_44_">
					<line class="st0" x1="193.73" y1="377.03" x2="202.69" y2="383.9"/>
				</g>
				<g id="LINE_45_">
					<line class="st0" x1="202.69" y1="383.9" x2="213.12" y2="379.58"/>
				</g>
			</g>
		</g>
		<g id="ARC_56_">
			<path class="st0" d="M239.1,412.76c1.82-1.59,3.54-3.3,5.13-5.13"/>
		</g>
		<g id="ARC_57_">
			<path class="st0" d="M244.22,337.77c-1.59-1.82-3.3-3.54-5.13-5.13"/>
		</g>
		<g id="ARC_58_">
			<path class="st0" d="M207.79,319.68c-2.41-0.16-4.84-0.16-7.25,0"/>
		</g>
		<g id="ARC_59_">
			<path class="st0" d="M169.23,332.65c-1.82,1.59-3.54,3.3-5.13,5.13"/>
		</g>
		<g id="ARC_60_">
			<path class="st0" d="M151.14,369.08c-0.16,2.41-0.16,4.84,0,7.25"/>
		</g>
		<g id="ARC_61_">
			<path class="st0" d="M164.11,407.64c1.59,1.82,3.3,3.54,5.13,5.13"/>
		</g>
		<g id="ARC_62_">
			<path class="st0" d="M200.54,425.73c2.41,0.16,4.84,0.16,7.25,0"/>
		</g>
		<g id="ARC_63_">
			<path class="st0" d="M257.19,376.33c0.16-2.41,0.16-4.84,0-7.25"/>
		</g>
		<g id="ARC_64_">
			<path class="st0" d="M257.19,369.08c-0.1-1.53-1.02-2.88-2.4-3.54"/>
		</g>
		<g id="ARC_65_">
			<path class="st0" d="M245.03,341.97c0.51-1.44,0.2-3.05-0.81-4.2"/>
		</g>
		<g id="ARC_66_">
			<path class="st0" d="M245.03,341.97c-3.22,9.19,0.98,19.34,9.76,23.57"/>
		</g>
		<g id="ARC_67_">
			<path class="st0" d="M239.1,332.65c-1.15-1.01-2.76-1.31-4.2-0.81"/>
		</g>
		<g id="ARC_68_">
			<path class="st0" d="M211.33,322.08c-0.66-1.38-2.02-2.29-3.54-2.4"/>
		</g>
		<g id="ARC_69_">
			<path class="st0" d="M211.33,322.08c4.22,8.78,14.37,12.98,23.57,9.76"/>
		</g>
		<g id="ARC_70_">
			<path class="st0" d="M200.54,319.68c-1.53,0.1-2.88,1.02-3.54,2.4"/>
		</g>
		<g id="ARC_71_">
			<path class="st0" d="M173.43,331.84c-1.44-0.51-3.05-0.2-4.2,0.81"/>
		</g>
		<g id="ARC_72_">
			<path class="st0" d="M173.43,331.84c9.19,3.22,19.34-0.98,23.57-9.76"/>
		</g>
		<g id="ARC_73_">
			<path class="st0" d="M164.11,337.77c-1.01,1.15-1.31,2.76-0.81,4.2"/>
		</g>
		<g id="ARC_74_">
			<path class="st0" d="M153.54,365.54c-1.38,0.66-2.29,2.02-2.4,3.54"/>
		</g>
		<g id="ARC_75_">
			<path class="st0" d="M153.54,365.54c8.78-4.22,12.98-14.37,9.76-23.57"/>
		</g>
		<g id="ARC_76_">
			<path class="st0" d="M151.14,376.33c0.1,1.53,1.02,2.88,2.4,3.54"/>
		</g>
		<g id="ARC_77_">
			<path class="st0" d="M163.3,403.44c-0.51,1.44-0.2,3.05,0.81,4.2"/>
		</g>
		<g id="ARC_78_">
			<path class="st0" d="M163.3,403.44c3.22-9.19-0.98-19.34-9.76-23.57"/>
		</g>
		<g id="ARC_79_">
			<path class="st0" d="M169.23,412.76c1.15,1.01,2.76,1.31,4.2,0.81"/>
		</g>
		<g id="ARC_80_">
			<path class="st0" d="M197,423.33c0.66,1.38,2.02,2.29,3.54,2.4"/>
		</g>
		<g id="ARC_81_">
			<path class="st0" d="M197,423.33c-4.22-8.78-14.37-12.98-23.57-9.76"/>
		</g>
		<g id="ARC_82_">
			<path class="st0" d="M207.79,425.73c1.53-0.1,2.88-1.02,3.54-2.4"/>
		</g>
		<g id="ARC_83_">
			<path class="st0" d="M234.9,413.57c1.44,0.51,3.05,0.2,4.2-0.81"/>
		</g>
		<g id="ARC_84_">
			<path class="st0" d="M234.9,413.57c-9.19-3.22-19.34,0.98-23.57,9.76"/>
		</g>
		<g id="ARC_85_">
			<path class="st0" d="M244.22,407.64c1.01-1.15,1.31-2.76,0.81-4.2"/>
		</g>
		<g id="ARC_86_">
			<path class="st0" d="M254.79,379.87c1.38-0.66,2.29-2.02,2.4-3.54"/>
		</g>
		<g id="ARC_87_">
			<path class="st0" d="M254.79,379.87c-8.78,4.22-12.98,14.37-9.76,23.57"/>
		</g>
		<g id="CIRCLE_7_">
			<path class="st0" d="M198.5,372.71c0-3.13,2.54-5.67,5.67-5.67c3.13,0,5.67,2.54,5.67,5.67s-2.54,5.67-5.67,5.67
				C201.03,378.37,198.5,375.84,198.5,372.71L198.5,372.71z"/>
		</g>
	</g>
</g>
<g id="INSERT_16_">
	<g id="INSERT_15_">
		<g id="INSERT_14_">
			<g id="INSERT_13_">
				<g id="LINE_46_">
					<line class="st0" x1="328.42" y1="382.08" x2="334.07" y2="372.3"/>
				</g>
				<g id="LINE_47_">
					<line class="st0" x1="334.07" y1="372.3" x2="328.42" y2="362.52"/>
				</g>
				<g id="LINE_48_">
					<line class="st0" x1="328.42" y1="362.52" x2="317.13" y2="362.52"/>
				</g>
				<g id="LINE_49_">
					<line class="st0" x1="317.13" y1="362.52" x2="311.49" y2="372.3"/>
				</g>
				<g id="LINE_50_">
					<line class="st0" x1="311.49" y1="372.3" x2="317.13" y2="382.08"/>
				</g>
				<g id="LINE_51_">
					<line class="st0" x1="317.13" y1="382.08" x2="328.42" y2="382.08"/>
				</g>
			</g>
		</g>
		<g id="ARC_88_">
			<path class="st0" d="M339.72,422.68c2.29-0.77,4.53-1.7,6.7-2.77"/>
		</g>
		<g id="ARC_89_">
			<path class="st0" d="M373.15,355.36c-0.77-2.29-1.7-4.53-2.77-6.7"/>
		</g>
		<g id="ARC_90_">
			<path class="st0" d="M346.42,324.7c-2.17-1.08-4.4-2-6.7-2.77"/>
		</g>
		<g id="ARC_91_">
			<path class="st0" d="M305.83,321.92c-2.29,0.77-4.53,1.7-6.7,2.77"/>
		</g>
		<g id="ARC_92_">
			<path class="st0" d="M275.18,348.66c-1.08,2.17-2,4.4-2.77,6.7"/>
		</g>
		<g id="ARC_93_">
			<path class="st0" d="M272.4,389.24c0.77,2.29,1.7,4.53,2.77,6.7"/>
		</g>
		<g id="ARC_94_">
			<path class="st0" d="M299.14,419.9c2.17,1.08,4.4,2,6.7,2.77"/>
		</g>
		<g id="ARC_95_">
			<path class="st0" d="M370.38,395.94c1.08-2.17,2-4.4,2.77-6.7"/>
		</g>
		<g id="ARC_96_">
			<path class="st0" d="M373.15,389.24c0.49-1.45,0.16-3.05-0.86-4.19"/>
		</g>
		<g id="ARC_97_">
			<path class="st0" d="M372.29,359.55c1.02-1.14,1.35-2.74,0.86-4.19"/>
		</g>
		<g id="ARC_98_">
			<path class="st0" d="M372.29,359.55c-6.49,7.26-6.49,18.24,0,25.51"/>
		</g>
		<g id="ARC_99_">
			<path class="st0" d="M370.38,348.66c-0.68-1.37-2.04-2.27-3.57-2.35"/>
		</g>
		<g id="ARC_100_">
			<path class="st0" d="M348.77,328.27c-0.09-1.53-0.98-2.89-2.35-3.57"/>
		</g>
		<g id="ARC_101_">
			<path class="st0" d="M348.77,328.27c0.54,9.73,8.31,17.49,18.04,18.04"/>
		</g>
		<g id="ARC_102_">
			<path class="st0" d="M339.72,321.92c-1.45-0.49-3.05-0.16-4.19,0.86"/>
		</g>
		<g id="ARC_103_">
			<path class="st0" d="M310.02,322.78c-1.14-1.02-2.74-1.35-4.19-0.86"/>
		</g>
		<g id="ARC_104_">
			<path class="st0" d="M310.02,322.78c7.26,6.49,18.25,6.49,25.51,0"/>
		</g>
		<g id="ARC_105_">
			<path class="st0" d="M299.14,324.7c-1.37,0.68-2.27,2.04-2.35,3.57"/>
		</g>
		<g id="ARC_106_">
			<path class="st0" d="M278.75,346.3c-1.53,0.09-2.89,0.98-3.57,2.35"/>
		</g>
		<g id="ARC_107_">
			<path class="st0" d="M278.75,346.3c9.73-0.54,17.49-8.31,18.04-18.04"/>
		</g>
		<g id="ARC_108_">
			<path class="st0" d="M272.4,355.36c-0.49,1.45-0.16,3.05,0.86,4.19"/>
		</g>
		<g id="ARC_109_">
			<path class="st0" d="M273.26,385.05c-1.02,1.14-1.35,2.74-0.86,4.19"/>
		</g>
		<g id="ARC_110_">
			<path class="st0" d="M273.26,385.05c6.49-7.26,6.49-18.24,0-25.51"/>
		</g>
		<g id="ARC_111_">
			<path class="st0" d="M275.18,395.94c0.68,1.37,2.04,2.27,3.57,2.35"/>
		</g>
		<g id="ARC_112_">
			<path class="st0" d="M296.78,416.33c0.09,1.53,0.98,2.89,2.35,3.57"/>
		</g>
		<g id="ARC_113_">
			<path class="st0" d="M296.78,416.33c-0.54-9.73-8.31-17.49-18.04-18.04"/>
		</g>
		<g id="ARC_114_">
			<path class="st0" d="M305.83,422.68c1.45,0.49,3.05,0.16,4.19-0.86"/>
		</g>
		<g id="ARC_115_">
			<path class="st0" d="M335.53,421.82c1.14,1.02,2.74,1.35,4.19,0.86"/>
		</g>
		<g id="ARC_116_">
			<path class="st0" d="M335.53,421.82c-7.26-6.49-18.25-6.49-25.51,0"/>
		</g>
		<g id="ARC_117_">
			<path class="st0" d="M346.42,419.9c1.37-0.68,2.27-2.04,2.35-3.57"/>
		</g>
		<g id="ARC_118_">
			<path class="st0" d="M366.81,398.29c1.53-0.09,2.89-0.98,3.57-2.35"/>
		</g>
		<g id="ARC_119_">
			<path class="st0" d="M366.81,398.29c-9.73,0.54-17.49,8.31-18.04,18.04"/>
		</g>
		<g id="CIRCLE_8_">
			<path class="st0" d="M317.11,372.3c0-3.13,2.54-5.67,5.67-5.67c3.13,0,5.67,2.54,5.67,5.67s-2.54,5.67-5.67,5.67
				C319.65,377.97,317.11,375.43,317.11,372.3L317.11,372.3z"/>
		</g>
	</g>
</g>
<g id="INSERT_20_">
	<g id="INSERT_19_">
		<g id="INSERT_18_">
			<g id="INSERT_17_">
				<g id="LINE_52_">
					<line class="st0" x1="330.27" y1="262.84" x2="331.74" y2="251.64"/>
				</g>
				<g id="LINE_53_">
					<line class="st0" x1="331.74" y1="251.64" x2="322.79" y2="244.77"/>
				</g>
				<g id="LINE_54_">
					<line class="st0" x1="322.79" y1="244.77" x2="312.35" y2="249.09"/>
				</g>
				<g id="LINE_55_">
					<line class="st0" x1="312.35" y1="249.09" x2="310.88" y2="260.29"/>
				</g>
				<g id="LINE_56_">
					<line class="st0" x1="310.88" y1="260.29" x2="319.84" y2="267.16"/>
				</g>
				<g id="LINE_57_">
					<line class="st0" x1="319.84" y1="267.16" x2="330.27" y2="262.84"/>
				</g>
			</g>
		</g>
		<g id="ARC_120_">
			<path class="st0" d="M356.24,296.02c1.82-1.59,3.54-3.3,5.13-5.13"/>
		</g>
		<g id="ARC_121_">
			<path class="st0" d="M361.37,221.03c-1.59-1.82-3.3-3.54-5.13-5.13"/>
		</g>
		<g id="ARC_122_">
			<path class="st0" d="M324.94,202.94c-2.41-0.16-4.84-0.16-7.25,0"/>
		</g>
		<g id="ARC_123_">
			<path class="st0" d="M286.38,215.91c-1.82,1.59-3.54,3.3-5.13,5.13"/>
		</g>
		<g id="ARC_124_">
			<path class="st0" d="M268.29,252.34c-0.16,2.41-0.16,4.84,0,7.25"/>
		</g>
		<g id="ARC_125_">
			<path class="st0" d="M281.25,290.9c1.59,1.82,3.3,3.54,5.13,5.13"/>
		</g>
		<g id="ARC_126_">
			<path class="st0" d="M317.69,308.99c2.41,0.16,4.84,0.16,7.25,0"/>
		</g>
		<g id="ARC_127_">
			<path class="st0" d="M374.34,259.59c0.16-2.41,0.16-4.84,0-7.25"/>
		</g>
		<g id="ARC_128_">
			<path class="st0" d="M374.34,252.34c-0.1-1.53-1.02-2.88-2.4-3.54"/>
		</g>
		<g id="ARC_129_">
			<path class="st0" d="M362.18,225.23c0.51-1.44,0.2-3.05-0.81-4.2"/>
		</g>
		<g id="ARC_130_">
			<path class="st0" d="M362.18,225.23c-3.22,9.19,0.98,19.34,9.76,23.57"/>
		</g>
		<g id="ARC_131_">
			<path class="st0" d="M356.24,215.91c-1.15-1.01-2.76-1.31-4.2-0.81"/>
		</g>
		<g id="ARC_132_">
			<path class="st0" d="M328.48,205.34c-0.66-1.38-2.02-2.29-3.54-2.4"/>
		</g>
		<g id="ARC_133_">
			<path class="st0" d="M328.48,205.34c4.22,8.78,14.37,12.98,23.57,9.76"/>
		</g>
		<g id="ARC_134_">
			<path class="st0" d="M317.69,202.94c-1.53,0.1-2.88,1.02-3.54,2.4"/>
		</g>
		<g id="ARC_135_">
			<path class="st0" d="M290.58,215.1c-1.44-0.51-3.05-0.2-4.2,0.81"/>
		</g>
		<g id="ARC_136_">
			<path class="st0" d="M290.58,215.1c9.19,3.22,19.34-0.98,23.57-9.76"/>
		</g>
		<g id="ARC_137_">
			<path class="st0" d="M281.25,221.03c-1.01,1.15-1.31,2.76-0.81,4.2"/>
		</g>
		<g id="ARC_138_">
			<path class="st0" d="M270.68,248.8c-1.38,0.66-2.29,2.02-2.4,3.54"/>
		</g>
		<g id="ARC_139_">
			<path class="st0" d="M270.68,248.8c8.78-4.22,12.98-14.37,9.76-23.57"/>
		</g>
		<g id="ARC_140_">
			<path class="st0" d="M268.29,259.59c0.1,1.53,1.02,2.88,2.4,3.54"/>
		</g>
		<g id="ARC_141_">
			<path class="st0" d="M280.45,286.7c-0.51,1.44-0.2,3.05,0.81,4.2"/>
		</g>
		<g id="ARC_142_">
			<path class="st0" d="M280.45,286.7c3.22-9.19-0.98-19.34-9.76-23.57"/>
		</g>
		<g id="ARC_143_">
			<path class="st0" d="M286.38,296.02c1.15,1.01,2.76,1.31,4.2,0.81"/>
		</g>
		<g id="ARC_144_">
			<path class="st0" d="M314.15,306.59c0.66,1.38,2.02,2.29,3.54,2.4"/>
		</g>
		<g id="ARC_145_">
			<path class="st0" d="M314.15,306.59c-4.22-8.78-14.37-12.98-23.57-9.76"/>
		</g>
		<g id="ARC_146_">
			<path class="st0" d="M324.94,308.99c1.53-0.1,2.88-1.02,3.54-2.4"/>
		</g>
		<g id="ARC_147_">
			<path class="st0" d="M352.04,296.83c1.44,0.51,3.05,0.2,4.2-0.81"/>
		</g>
		<g id="ARC_148_">
			<path class="st0" d="M352.04,296.83c-9.19-3.22-19.34,0.98-23.57,9.76"/>
		</g>
		<g id="ARC_149_">
			<path class="st0" d="M361.37,290.9c1.01-1.15,1.31-2.76,0.81-4.2"/>
		</g>
		<g id="ARC_150_">
			<path class="st0" d="M371.94,263.13c1.38-0.66,2.29-2.02,2.4-3.54"/>
		</g>
		<g id="ARC_151_">
			<path class="st0" d="M371.94,263.13c-8.78,4.22-12.98,14.37-9.76,23.57"/>
		</g>
		<g id="CIRCLE_9_">
			<path class="st0" d="M315.64,255.96c0-3.13,2.54-5.67,5.67-5.67c3.13,0,5.67,2.54,5.67,5.67c0,3.13-2.54,5.67-5.67,5.67
				C318.18,261.63,315.64,259.1,315.64,255.96L315.64,255.96z"/>
		</g>
	</g>
</g>
<g id="INSERT_24_">
	<g id="INSERT_23_">
		<g id="INSERT_22_">
			<g id="INSERT_21_">
				<g id="LINE_58_">
					<line class="st0" x1="444.76" y1="264.91" x2="450.41" y2="255.13"/>
				</g>
				<g id="LINE_59_">
					<line class="st0" x1="450.41" y1="255.13" x2="444.76" y2="245.35"/>
				</g>
				<g id="LINE_60_">
					<line class="st0" x1="444.76" y1="245.35" x2="433.47" y2="245.35"/>
				</g>
				<g id="LINE_61_">
					<line class="st0" x1="433.47" y1="245.35" x2="427.82" y2="255.13"/>
				</g>
				<g id="LINE_62_">
					<line class="st0" x1="427.82" y1="255.13" x2="433.47" y2="264.91"/>
				</g>
				<g id="LINE_63_">
					<line class="st0" x1="433.47" y1="264.91" x2="444.76" y2="264.91"/>
				</g>
			</g>
		</g>
		<g id="ARC_152_">
			<path class="st0" d="M456.06,305.51c2.29-0.77,4.53-1.7,6.7-2.77"/>
		</g>
		<g id="ARC_153_">
			<path class="st0" d="M489.49,238.19c-0.77-2.29-1.7-4.53-2.77-6.7"/>
		</g>
		<g id="ARC_154_">
			<path class="st0" d="M462.75,207.53c-2.17-1.08-4.4-2-6.7-2.77"/>
		</g>
		<g id="ARC_155_">
			<path class="st0" d="M422.17,204.75c-2.29,0.77-4.53,1.7-6.7,2.77"/>
		</g>
		<g id="ARC_156_">
			<path class="st0" d="M391.51,231.49c-1.08,2.17-2,4.4-2.77,6.7"/>
		</g>
		<g id="ARC_157_">
			<path class="st0" d="M388.74,272.07c0.77,2.29,1.7,4.53,2.77,6.7"/>
		</g>
		<g id="ARC_158_">
			<path class="st0" d="M415.47,302.73c2.17,1.08,4.4,2,6.7,2.77"/>
		</g>
		<g id="ARC_159_">
			<path class="st0" d="M486.72,278.77c1.08-2.17,2-4.4,2.77-6.7"/>
		</g>
		<g id="ARC_160_">
			<path class="st0" d="M489.49,272.07c0.49-1.45,0.16-3.05-0.86-4.19"/>
		</g>
		<g id="ARC_161_">
			<path class="st0" d="M488.63,242.38c1.02-1.14,1.35-2.74,0.86-4.19"/>
		</g>
		<g id="ARC_162_">
			<path class="st0" d="M488.63,242.38c-6.49,7.26-6.49,18.24,0,25.51"/>
		</g>
		<g id="ARC_163_">
			<path class="st0" d="M486.72,231.49c-0.68-1.37-2.04-2.27-3.57-2.35"/>
		</g>
		<g id="ARC_164_">
			<path class="st0" d="M465.11,211.1c-0.09-1.53-0.98-2.89-2.35-3.57"/>
		</g>
		<g id="ARC_165_">
			<path class="st0" d="M465.11,211.1c0.54,9.73,8.31,17.49,18.04,18.04"/>
		</g>
		<g id="ARC_166_">
			<path class="st0" d="M456.06,204.75c-1.45-0.49-3.05-0.16-4.19,0.86"/>
		</g>
		<g id="ARC_167_">
			<path class="st0" d="M426.36,205.62c-1.14-1.02-2.74-1.35-4.19-0.86"/>
		</g>
		<g id="ARC_168_">
			<path class="st0" d="M426.36,205.62c7.26,6.49,18.25,6.49,25.51,0"/>
		</g>
		<g id="ARC_169_">
			<path class="st0" d="M415.47,207.53c-1.37,0.68-2.27,2.04-2.35,3.57"/>
		</g>
		<g id="ARC_170_">
			<path class="st0" d="M395.08,229.14c-1.53,0.09-2.89,0.98-3.57,2.35"/>
		</g>
		<g id="ARC_171_">
			<path class="st0" d="M395.08,229.14c9.73-0.54,17.49-8.31,18.04-18.04"/>
		</g>
		<g id="ARC_172_">
			<path class="st0" d="M388.74,238.19c-0.49,1.45-0.16,3.05,0.86,4.19"/>
		</g>
		<g id="ARC_173_">
			<path class="st0" d="M389.6,267.89c-1.02,1.14-1.35,2.74-0.86,4.19"/>
		</g>
		<g id="ARC_174_">
			<path class="st0" d="M389.6,267.89c6.49-7.26,6.49-18.25,0-25.51"/>
		</g>
		<g id="ARC_175_">
			<path class="st0" d="M391.51,278.77c0.68,1.37,2.04,2.27,3.57,2.35"/>
		</g>
		<g id="ARC_176_">
			<path class="st0" d="M413.12,299.16c0.09,1.53,0.98,2.89,2.35,3.57"/>
		</g>
		<g id="ARC_177_">
			<path class="st0" d="M413.12,299.16c-0.54-9.73-8.31-17.49-18.04-18.04"/>
		</g>
		<g id="ARC_178_">
			<path class="st0" d="M422.17,305.51c1.45,0.49,3.05,0.16,4.19-0.86"/>
		</g>
		<g id="ARC_179_">
			<path class="st0" d="M451.87,304.65c1.14,1.02,2.74,1.35,4.19,0.86"/>
		</g>
		<g id="ARC_180_">
			<path class="st0" d="M451.87,304.65c-7.26-6.49-18.25-6.49-25.51,0"/>
		</g>
		<g id="ARC_181_">
			<path class="st0" d="M462.75,302.73c1.37-0.68,2.27-2.04,2.35-3.57"/>
		</g>
		<g id="ARC_182_">
			<path class="st0" d="M483.14,281.13c1.53-0.09,2.89-0.98,3.57-2.35"/>
		</g>
		<g id="ARC_183_">
			<path class="st0" d="M483.14,281.13c-9.73,0.54-17.49,8.31-18.04,18.04"/>
		</g>
		<g id="CIRCLE_10_">
			<path class="st0" d="M433.44,255.13c0-3.13,2.54-5.67,5.67-5.67c3.13,0,5.67,2.54,5.67,5.67c0,3.13-2.54,5.67-5.67,5.67
				C435.98,260.8,433.44,258.26,433.44,255.13L433.44,255.13z"/>
		</g>
	</g>
</g>
<g id="INSERT_28_">
	<g id="INSERT_27_">
		<g id="INSERT_26_">
			<g id="INSERT_25_">
				<g id="LINE_64_">
					<line class="st0" x1="448.07" y1="380.39" x2="449.55" y2="369.19"/>
				</g>
				<g id="LINE_65_">
					<line class="st0" x1="449.55" y1="369.19" x2="440.59" y2="362.32"/>
				</g>
				<g id="LINE_66_">
					<line class="st0" x1="440.59" y1="362.32" x2="430.15" y2="366.64"/>
				</g>
				<g id="LINE_67_">
					<line class="st0" x1="430.15" y1="366.64" x2="428.68" y2="377.83"/>
				</g>
				<g id="LINE_68_">
					<line class="st0" x1="428.68" y1="377.83" x2="437.64" y2="384.71"/>
				</g>
				<g id="LINE_69_">
					<line class="st0" x1="437.64" y1="384.71" x2="448.07" y2="380.39"/>
				</g>
			</g>
		</g>
		<g id="ARC_184_">
			<path class="st0" d="M474.05,413.57c1.82-1.59,3.54-3.3,5.13-5.13"/>
		</g>
		<g id="ARC_185_">
			<path class="st0" d="M479.17,338.58c-1.59-1.82-3.3-3.54-5.13-5.13"/>
		</g>
		<g id="ARC_186_">
			<path class="st0" d="M442.74,320.49c-2.41-0.16-4.84-0.16-7.25,0"/>
		</g>
		<g id="ARC_187_">
			<path class="st0" d="M404.18,333.46c-1.82,1.59-3.54,3.3-5.13,5.13"/>
		</g>
		<g id="ARC_188_">
			<path class="st0" d="M386.09,369.89c-0.17,2.41-0.17,4.84,0,7.25"/>
		</g>
		<g id="ARC_189_">
			<path class="st0" d="M399.06,408.45c1.59,1.82,3.3,3.54,5.13,5.13"/>
		</g>
		<g id="ARC_190_">
			<path class="st0" d="M435.49,426.54c2.41,0.16,4.84,0.16,7.25,0"/>
		</g>
		<g id="ARC_191_">
			<path class="st0" d="M492.14,377.14c0.16-2.41,0.16-4.84,0-7.25"/>
		</g>
		<g id="ARC_192_">
			<path class="st0" d="M492.14,369.89c-0.1-1.53-1.02-2.88-2.4-3.54"/>
		</g>
		<g id="ARC_193_">
			<path class="st0" d="M479.98,342.78c0.51-1.44,0.2-3.05-0.81-4.2"/>
		</g>
		<g id="ARC_194_">
			<path class="st0" d="M479.98,342.78c-3.22,9.19,0.98,19.34,9.76,23.57"/>
		</g>
		<g id="ARC_195_">
			<path class="st0" d="M474.05,333.46c-1.15-1.01-2.76-1.31-4.2-0.81"/>
		</g>
		<g id="ARC_196_">
			<path class="st0" d="M446.28,322.89c-0.66-1.38-2.02-2.29-3.54-2.4"/>
		</g>
		<g id="ARC_197_">
			<path class="st0" d="M446.28,322.89c4.22,8.78,14.37,12.98,23.57,9.76"/>
		</g>
		<g id="ARC_198_">
			<path class="st0" d="M435.49,320.49c-1.53,0.1-2.88,1.02-3.54,2.4"/>
		</g>
		<g id="ARC_199_">
			<path class="st0" d="M408.38,332.65c-1.44-0.51-3.05-0.2-4.2,0.81"/>
		</g>
		<g id="ARC_200_">
			<path class="st0" d="M408.38,332.65c9.19,3.22,19.34-0.98,23.57-9.76"/>
		</g>
		<g id="ARC_201_">
			<path class="st0" d="M399.06,338.58c-1.01,1.15-1.31,2.76-0.81,4.2"/>
		</g>
		<g id="ARC_202_">
			<path class="st0" d="M388.49,366.35c-1.38,0.66-2.29,2.02-2.4,3.54"/>
		</g>
		<g id="ARC_203_">
			<path class="st0" d="M388.49,366.35c8.78-4.22,12.98-14.37,9.76-23.57"/>
		</g>
		<g id="ARC_204_">
			<path class="st0" d="M386.09,377.14c0.1,1.53,1.02,2.88,2.4,3.54"/>
		</g>
		<g id="ARC_205_">
			<path class="st0" d="M398.25,404.25c-0.51,1.44-0.2,3.05,0.81,4.2"/>
		</g>
		<g id="ARC_206_">
			<path class="st0" d="M398.25,404.25c3.22-9.19-0.98-19.34-9.76-23.57"/>
		</g>
		<g id="ARC_207_">
			<path class="st0" d="M404.18,413.57c1.15,1.01,2.76,1.31,4.2,0.81"/>
		</g>
		<g id="ARC_208_">
			<path class="st0" d="M431.95,424.14c0.66,1.38,2.02,2.29,3.54,2.4"/>
		</g>
		<g id="ARC_209_">
			<path class="st0" d="M431.95,424.14c-4.22-8.78-14.37-12.98-23.57-9.76"/>
		</g>
		<g id="ARC_210_">
			<path class="st0" d="M442.74,426.54c1.53-0.1,2.88-1.02,3.54-2.4"/>
		</g>
		<g id="ARC_211_">
			<path class="st0" d="M469.85,414.38c1.44,0.51,3.05,0.2,4.2-0.81"/>
		</g>
		<g id="ARC_212_">
			<path class="st0" d="M469.85,414.38c-9.19-3.22-19.34,0.98-23.57,9.76"/>
		</g>
		<g id="ARC_213_">
			<path class="st0" d="M479.17,408.45c1.01-1.15,1.31-2.76,0.81-4.2"/>
		</g>
		<g id="ARC_214_">
			<path class="st0" d="M489.74,380.68c1.38-0.66,2.29-2.02,2.4-3.54"/>
		</g>
		<g id="ARC_215_">
			<path class="st0" d="M489.74,380.68c-8.78,4.22-12.98,14.37-9.76,23.57"/>
		</g>
		<g id="CIRCLE_11_">
			<path class="st0" d="M433.44,373.51c0-3.13,2.54-5.67,5.67-5.67c3.13,0,5.67,2.54,5.67,5.67c0,3.13-2.54,5.67-5.67,5.67
				C435.98,379.18,433.44,376.64,433.44,373.51L433.44,373.51z"/>
		</g>
	</g>
</g>
<g id="INSERT_38_">
	<g id="INSERT_37_">
		<g id="INSERT_30_">
			<g id="INSERT_29_">
				<g id="LINE_70_">
					<line class="st0" x1="933.8" y1="986.75" x2="924.02" y2="981.1"/>
				</g>
				<g id="LINE_71_">
					<line class="st0" x1="924.02" y1="981.1" x2="914.24" y2="986.75"/>
				</g>
				<g id="LINE_72_">
					<line class="st0" x1="914.24" y1="986.75" x2="914.24" y2="998.04"/>
				</g>
				<g id="LINE_73_">
					<line class="st0" x1="914.24" y1="998.04" x2="924.02" y2="1003.69"/>
				</g>
				<g id="LINE_74_">
					<line class="st0" x1="924.02" y1="1003.69" x2="933.8" y2="998.04"/>
				</g>
				<g id="LINE_75_">
					<line class="st0" x1="933.8" y1="998.04" x2="933.8" y2="986.75"/>
				</g>
			</g>
		</g>
		<g id="INSERT_32_">
			<g id="INSERT_31_">
				<g id="LINE_76_">
					<line class="st0" x1="1050.06" y1="706.09" x2="1040.28" y2="700.44"/>
				</g>
				<g id="LINE_77_">
					<line class="st0" x1="1040.28" y1="700.44" x2="1030.5" y2="706.09"/>
				</g>
				<g id="LINE_78_">
					<line class="st0" x1="1030.5" y1="706.09" x2="1030.5" y2="717.38"/>
				</g>
				<g id="LINE_79_">
					<line class="st0" x1="1030.5" y1="717.38" x2="1040.28" y2="723.02"/>
				</g>
				<g id="LINE_80_">
					<line class="st0" x1="1040.28" y1="723.02" x2="1050.06" y2="717.38"/>
				</g>
				<g id="LINE_81_">
					<line class="st0" x1="1050.06" y1="717.38" x2="1050.06" y2="706.09"/>
				</g>
			</g>
		</g>
		<g id="INSERT_34_">
			<g id="INSERT_33_">
				<g id="LINE_82_">
					<line class="st0" x1="817.55" y1="706.09" x2="807.77" y2="700.44"/>
				</g>
				<g id="LINE_83_">
					<line class="st0" x1="807.77" y1="700.44" x2="797.99" y2="706.09"/>
				</g>
				<g id="LINE_84_">
					<line class="st0" x1="797.99" y1="706.09" x2="797.99" y2="717.38"/>
				</g>
				<g id="LINE_85_">
					<line class="st0" x1="797.99" y1="717.38" x2="807.77" y2="723.02"/>
				</g>
				<g id="LINE_86_">
					<line class="st0" x1="807.77" y1="723.02" x2="817.55" y2="717.38"/>
				</g>
				<g id="LINE_87_">
					<line class="st0" x1="817.55" y1="717.38" x2="817.55" y2="706.09"/>
				</g>
			</g>
		</g>
		<g id="INSERT_36_">
			<g id="INSERT_35_">
				<g id="CIRCLE_12_">
					<path class="st0" d="M918.35,992.4c0-3.13,2.54-5.67,5.67-5.67c3.13,0,5.67,2.54,5.67,5.67c0,3.13-2.54,5.67-5.67,5.67
						C920.89,998.07,918.35,995.53,918.35,992.4L918.35,992.4z"/>
				</g>
				<g id="CIRCLE_13_">
					<path class="st0" d="M802.1,711.73c0-3.13,2.54-5.67,5.67-5.67c3.13,0,5.67,2.54,5.67,5.67s-2.54,5.67-5.67,5.67
						C804.64,717.4,802.1,714.86,802.1,711.73L802.1,711.73z"/>
				</g>
				<g id="CIRCLE_14_">
					<path class="st0" d="M725.6,827.99c0-109.59,88.84-198.43,198.43-198.43s198.43,88.84,198.43,198.43
						s-88.84,198.43-198.43,198.43S725.6,937.57,725.6,827.99L725.6,827.99z"/>
				</g>
				<g id="CIRCLE_15_">
					<path class="st0" d="M1034.61,711.73c0-3.13,2.54-5.67,5.67-5.67s5.67,2.54,5.67,5.67s-2.54,5.67-5.67,5.67
						S1034.61,714.86,1034.61,711.73L1034.61,711.73z"/>
				</g>
			</g>
		</g>
	</g>
</g>
<g id="INSERT_44_">
	<g id="INSERT_43_">
		<g id="LINE_88_">
			<line class="st0" x1="491.42" y1="535.11" x2="498.51" y2="535.11"/>
		</g>
		<g id="CIRCLE_16_">
			<path class="st0" d="M489.3,845.46c0-3.13,2.54-5.67,5.67-5.67c3.13,0,5.67,2.54,5.67,5.67s-2.54,5.67-5.67,5.67
				C491.84,851.13,489.3,848.59,489.3,845.46L489.3,845.46z"/>
		</g>
		<g id="CIRCLE_17_">
			<path class="st0" d="M346.15,681.05c0-82.19,66.63-148.82,148.82-148.82s148.82,66.63,148.82,148.82s-66.63,148.82-148.82,148.82
				S346.15,763.24,346.15,681.05L346.15,681.05z"/>
		</g>
		<g id="LINE_89_">
			<line class="st0" x1="491.42" y1="481.21" x2="498.51" y2="481.21"/>
		</g>
		<g id="LINE_90_">
			<line class="st0" x1="491.42" y1="535.11" x2="491.42" y2="481.21"/>
		</g>
		<g id="LINE_91_">
			<line class="st0" x1="498.51" y1="481.21" x2="498.51" y2="535.11"/>
		</g>
		<g id="CIRCLE_18_">
			<path class="st0" d="M373.04,564.8c0-3.13,2.54-5.67,5.67-5.67s5.67,2.54,5.67,5.67s-2.54,5.67-5.67,5.67
				S373.04,567.93,373.04,564.8L373.04,564.8z"/>
		</g>
		<g id="CIRCLE_19_">
			<path class="st0" d="M605.55,564.8c0-3.13,2.54-5.67,5.67-5.67s5.67,2.54,5.67,5.67s-2.54,5.67-5.67,5.67
				S605.55,567.93,605.55,564.8L605.55,564.8z"/>
		</g>
		<g id="INSERT_40_">
			<g id="INSERT_39_">
				<g id="CIRCLE_20_">
					<path class="st0" d="M519.16,612.95c0-3.13,2.54-5.67,5.67-5.67c3.13,0,5.67,2.54,5.67,5.67s-2.54,5.67-5.67,5.67
						C521.7,618.62,519.16,616.08,519.16,612.95L519.16,612.95z"/>
				</g>
				<g id="LINE_92_">
					<line class="st0" x1="453.96" y1="570.43" x2="453.96" y2="594.53"/>
				</g>
				<g id="LINE_93_">
					<line class="st0" x1="453.96" y1="594.53" x2="435.54" y2="594.53"/>
				</g>
				<g id="LINE_94_">
					<line class="st0" x1="435.54" y1="631.38" x2="453.96" y2="631.38"/>
				</g>
				<g id="LINE_95_">
					<line class="st0" x1="435.54" y1="594.53" x2="435.54" y2="631.38"/>
				</g>
				<g id="ARC_216_">
					<path class="st0" d="M524.83,655.47c23.48,0,42.52-19.04,42.52-42.52s-19.04-42.52-42.52-42.52"/>
				</g>
				<g id="LINE_96_">
					<line class="st0" x1="524.83" y1="570.43" x2="453.96" y2="570.43"/>
				</g>
				<g id="LINE_97_">
					<line class="st0" x1="453.96" y1="655.47" x2="524.83" y2="655.47"/>
				</g>
				<g id="LINE_98_">
					<line class="st0" x1="453.96" y1="631.38" x2="453.96" y2="655.47"/>
				</g>
			</g>
		</g>
		<g id="INSERT_42_">
			<g id="INSERT_41_">
				<g id="CIRCLE_21_">
					<path class="st0" d="M515.41,717.12c0-3.13,2.54-5.67,5.67-5.67c3.13,0,5.67,2.54,5.67,5.67c0,3.13-2.54,5.67-5.67,5.67
						C517.95,722.79,515.41,720.25,515.41,717.12L515.41,717.12z"/>
				</g>
				<g id="LINE_99_">
					<line class="st0" x1="450.21" y1="674.6" x2="450.21" y2="698.7"/>
				</g>
				<g id="LINE_100_">
					<line class="st0" x1="450.21" y1="698.7" x2="431.79" y2="698.7"/>
				</g>
				<g id="LINE_101_">
					<line class="st0" x1="431.79" y1="735.55" x2="450.21" y2="735.55"/>
				</g>
				<g id="LINE_102_">
					<line class="st0" x1="431.79" y1="698.7" x2="431.79" y2="735.55"/>
				</g>
				<g id="ARC_217_">
					<path class="st0" d="M521.08,759.64c23.48,0,42.52-19.04,42.52-42.52s-19.04-42.52-42.52-42.52"/>
				</g>
				<g id="LINE_103_">
					<line class="st0" x1="521.08" y1="674.6" x2="450.21" y2="674.6"/>
				</g>
				<g id="LINE_104_">
					<line class="st0" x1="450.21" y1="759.64" x2="521.08" y2="759.64"/>
				</g>
				<g id="LINE_105_">
					<line class="st0" x1="450.21" y1="735.55" x2="450.21" y2="759.64"/>
				</g>
			</g>
		</g>
		<g id="CIRCLE_22_">
			<path class="st0" d="M296.54,681.05c0-109.59,88.84-198.43,198.43-198.43s198.43,88.84,198.43,198.43
				s-88.84,198.43-198.43,198.43S296.54,790.64,296.54,681.05L296.54,681.05z"/>
		</g>
	</g>
</g>
<g id="INSERT_46_">
	<g id="INSERT_45_">
		<g id="LINE_106_">
			<line class="st0" x1="916.23" y1="255.96" x2="916.23" y2="263.33"/>
		</g>
		<g id="CIRCLE_23_">
			<path class="st0" d="M727.72,410.31c0-109.59,88.84-198.43,198.43-198.43s198.43,88.84,198.43,198.43
				s-88.84,198.43-198.43,198.43S727.72,519.9,727.72,410.31L727.72,410.31z"/>
		</g>
		<g id="LINE_107_">
			<line class="st0" x1="965.13" y1="329.52" x2="965.13" y2="292.67"/>
		</g>
		<g id="LINE_108_">
			<line class="st0" x1="887.17" y1="292.67" x2="887.17" y2="329.52"/>
		</g>
		<g id="LINE_109_">
			<line class="st0" x1="887.17" y1="329.52" x2="905.6" y2="329.52"/>
		</g>
		<g id="LINE_110_">
			<line class="st0" x1="905.6" y1="292.67" x2="887.17" y2="292.67"/>
		</g>
		<g id="LINE_111_">
			<line class="st0" x1="887.17" y1="292.67" x2="887.17" y2="329.52"/>
		</g>
		<g id="LINE_112_">
			<line class="st0" x1="946.7" y1="292.67" x2="965.13" y2="292.67"/>
		</g>
		<g id="LINE_113_">
			<line class="st0" x1="946.7" y1="329.52" x2="965.13" y2="329.52"/>
		</g>
		<g id="LINE_114_">
			<line class="st0" x1="905.6" y1="292.67" x2="905.6" y2="329.52"/>
		</g>
		<g id="LINE_115_">
			<line class="st0" x1="946.7" y1="329.52" x2="946.7" y2="292.67"/>
		</g>
		<g id="LINE_116_">
			<line class="st0" x1="932.95" y1="519.44" x2="959.03" y2="519.44"/>
		</g>
		<g id="LINE_117_">
			<line class="st0" x1="959.03" y1="503.85" x2="959.03" y2="499.6"/>
		</g>
		<g id="LINE_118_">
			<line class="st0" x1="919.35" y1="499.6" x2="893.27" y2="499.6"/>
		</g>
		<g id="LINE_119_">
			<line class="st0" x1="893.27" y1="515.19" x2="893.27" y2="519.44"/>
		</g>
		<g id="LINE_120_">
			<line class="st0" x1="919.35" y1="495.77" x2="932.95" y2="495.77"/>
		</g>
		<g id="LINE_121_">
			<line class="st0" x1="932.95" y1="519.44" x2="932.95" y2="523.27"/>
		</g>
		<g id="LINE_122_">
			<line class="st0" x1="932.95" y1="523.27" x2="919.35" y2="523.27"/>
		</g>
		<g id="LINE_123_">
			<line class="st0" x1="919.35" y1="499.6" x2="919.35" y2="495.77"/>
		</g>
		<g id="LINE_124_">
			<line class="st0" x1="959.03" y1="499.6" x2="932.95" y2="499.6"/>
		</g>
		<g id="LINE_125_">
			<line class="st0" x1="932.95" y1="495.77" x2="932.95" y2="499.6"/>
		</g>
		<g id="LINE_126_">
			<line class="st0" x1="893.27" y1="519.44" x2="919.35" y2="519.44"/>
		</g>
		<g id="LINE_127_">
			<line class="st0" x1="919.35" y1="523.27" x2="919.35" y2="519.44"/>
		</g>
		<g id="LINE_128_">
			<line class="st0" x1="916.23" y1="263.33" x2="936.07" y2="263.33"/>
		</g>
		<g id="LINE_129_">
			<line class="st0" x1="936.07" y1="263.33" x2="936.07" y2="255.96"/>
		</g>
		<g id="LINE_130_">
			<line class="st0" x1="936.07" y1="255.96" x2="916.23" y2="255.96"/>
		</g>
		<g id="LINE_131_">
			<line class="st0" x1="893.27" y1="499.6" x2="893.27" y2="503.85"/>
		</g>
		<g id="LINE_132_">
			<line class="st0" x1="959.03" y1="519.44" x2="959.03" y2="515.19"/>
		</g>
		<g id="LINE_133_">
			<line class="st0" x1="893.27" y1="503.85" x2="893.27" y2="515.19"/>
		</g>
		<g id="LINE_134_">
			<line class="st0" x1="959.03" y1="503.85" x2="959.03" y2="515.19"/>
		</g>
		<g id="CIRCLE_24_">
			<path class="st0" d="M804.23,294.05c0-3.13,2.54-5.67,5.67-5.67s5.67,2.54,5.67,5.67s-2.54,5.67-5.67,5.67
				S804.23,297.18,804.23,294.05L804.23,294.05z"/>
		</g>
		<g id="CIRCLE_25_">
			<path class="st0" d="M1036.74,294.05c0-3.13,2.54-5.67,5.67-5.67s5.67,2.54,5.67,5.67s-2.54,5.67-5.67,5.67
				S1036.74,297.18,1036.74,294.05L1036.74,294.05z"/>
		</g>
		<g id="CIRCLE_26_">
			<path class="st0" d="M920.48,574.72c0-3.13,2.54-5.67,5.67-5.67c3.13,0,5.67,2.54,5.67,5.67c0,3.13-2.54,5.67-5.67,5.67
				C923.02,580.39,920.48,577.85,920.48,574.72L920.48,574.72z"/>
		</g>
	</g>
</g>
<g id="INSERT_96_">
	<g id="INSERT_95_">
		<g id="INSERT_48_">
			<g id="INSERT_47_">
				<g id="LINE_135_">
					<line class="st0" x1="187.68" y1="143.53" x2="187.68" y2="154.2"/>
				</g>
				<g id="ARC_218_">
					<path class="st0" d="M187.68,143.53c-2.95-4.15-8.7-5.12-12.85-2.18c-4.15,2.95-5.12,8.7-2.18,12.85
						c2.95,4.15,8.7,5.12,12.85,2.18c0.84-0.6,1.58-1.34,2.18-2.18"/>
				</g>
				<g id="CIRCLE_27_">
					<path class="st0" d="M173.09,148.87c0-3.91,3.17-7.09,7.09-7.09s7.09,3.17,7.09,7.09c0,3.91-3.17,7.09-7.09,7.09
						S173.09,152.78,173.09,148.87L173.09,148.87z"/>
				</g>
			</g>
		</g>
		<g id="INSERT_50_">
			<g id="INSERT_49_">
				<g id="LINE_136_">
					<line class="st0" x1="222.41" y1="143.53" x2="222.41" y2="154.2"/>
				</g>
				<g id="ARC_219_">
					<path class="st0" d="M222.41,143.53c-2.95-4.15-8.7-5.12-12.85-2.18c-4.15,2.95-5.12,8.7-2.18,12.85
						c2.95,4.15,8.7,5.12,12.85,2.18c0.84-0.6,1.58-1.34,2.18-2.18"/>
				</g>
				<g id="CIRCLE_28_">
					<path class="st0" d="M207.81,148.87c0-3.91,3.17-7.09,7.09-7.09s7.09,3.17,7.09,7.09c0,3.91-3.17,7.09-7.09,7.09
						S207.81,152.78,207.81,148.87L207.81,148.87z"/>
				</g>
			</g>
		</g>
		<g id="INSERT_52_">
			<g id="INSERT_51_">
				<g id="LINE_137_">
					<line class="st0" x1="257.13" y1="143.53" x2="257.13" y2="154.2"/>
				</g>
				<g id="ARC_220_">
					<path class="st0" d="M257.13,143.53c-2.95-4.15-8.7-5.12-12.85-2.18c-4.15,2.95-5.12,8.7-2.18,12.85
						c2.95,4.15,8.7,5.12,12.85,2.18c0.84-0.6,1.58-1.34,2.18-2.18"/>
				</g>
				<g id="CIRCLE_29_">
					<path class="st0" d="M242.53,148.87c0-3.91,3.17-7.09,7.09-7.09s7.09,3.17,7.09,7.09c0,3.91-3.17,7.09-7.09,7.09
						S242.53,152.78,242.53,148.87L242.53,148.87z"/>
				</g>
			</g>
		</g>
		<g id="INSERT_54_">
			<g id="INSERT_53_">
				<g id="LINE_138_">
					<line class="st0" x1="291.86" y1="143.53" x2="291.86" y2="154.2"/>
				</g>
				<g id="ARC_221_">
					<path class="st0" d="M291.86,143.53c-2.95-4.15-8.7-5.12-12.85-2.18c-4.15,2.95-5.12,8.7-2.18,12.85
						c2.95,4.15,8.7,5.12,12.85,2.18c0.84-0.6,1.58-1.34,2.18-2.18"/>
				</g>
				<g id="CIRCLE_30_">
					<path class="st0" d="M277.26,148.87c0-3.91,3.17-7.09,7.09-7.09c3.91,0,7.09,3.17,7.09,7.09c0,3.91-3.17,7.09-7.09,7.09
						C280.43,155.95,277.26,152.78,277.26,148.87L277.26,148.87z"/>
				</g>
			</g>
		</g>
		<g id="INSERT_56_">
			<g id="INSERT_55_">
				<g id="LINE_139_">
					<line class="st0" x1="326.58" y1="143.53" x2="326.58" y2="154.2"/>
				</g>
				<g id="ARC_222_">
					<path class="st0" d="M326.58,143.53c-2.95-4.15-8.7-5.12-12.85-2.18c-4.15,2.95-5.12,8.7-2.18,12.85
						c2.95,4.15,8.7,5.12,12.85,2.18c0.84-0.6,1.58-1.34,2.18-2.18"/>
				</g>
				<g id="CIRCLE_31_">
					<path class="st0" d="M311.98,148.87c0-3.91,3.17-7.09,7.09-7.09s7.09,3.17,7.09,7.09c0,3.91-3.17,7.09-7.09,7.09
						S311.98,152.78,311.98,148.87L311.98,148.87z"/>
				</g>
			</g>
		</g>
		<g id="INSERT_58_">
			<g id="INSERT_57_">
				<g id="LINE_140_">
					<line class="st0" x1="361.31" y1="143.53" x2="361.31" y2="154.2"/>
				</g>
				<g id="ARC_223_">
					<path class="st0" d="M361.31,143.53c-2.95-4.15-8.7-5.12-12.85-2.18c-4.15,2.95-5.12,8.7-2.18,12.85
						c2.95,4.15,8.7,5.12,12.85,2.18c0.84-0.6,1.58-1.34,2.18-2.18"/>
				</g>
				<g id="CIRCLE_32_">
					<path class="st0" d="M346.71,148.87c0-3.91,3.17-7.09,7.09-7.09c3.91,0,7.09,3.17,7.09,7.09c0,3.91-3.17,7.09-7.09,7.09
						C349.88,155.95,346.71,152.78,346.71,148.87L346.71,148.87z"/>
				</g>
			</g>
		</g>
		<g id="INSERT_60_">
			<g id="INSERT_59_">
				<g id="LINE_141_">
					<line class="st0" x1="396.03" y1="143.53" x2="396.03" y2="154.2"/>
				</g>
				<g id="ARC_224_">
					<path class="st0" d="M396.03,143.53c-2.95-4.15-8.7-5.12-12.85-2.18c-4.15,2.95-5.12,8.7-2.18,12.85
						c2.95,4.15,8.7,5.12,12.85,2.18c0.84-0.6,1.58-1.34,2.18-2.18"/>
				</g>
				<g id="CIRCLE_33_">
					<path class="st0" d="M381.43,148.87c0-3.91,3.17-7.09,7.09-7.09c3.91,0,7.09,3.17,7.09,7.09c0,3.91-3.17,7.09-7.09,7.09
						C384.6,155.95,381.43,152.78,381.43,148.87L381.43,148.87z"/>
				</g>
			</g>
		</g>
		<g id="INSERT_62_">
			<g id="INSERT_61_">
				<g id="LINE_142_">
					<line class="st0" x1="430.75" y1="143.53" x2="430.75" y2="154.2"/>
				</g>
				<g id="ARC_225_">
					<path class="st0" d="M430.75,143.53c-2.95-4.15-8.7-5.12-12.85-2.18c-4.15,2.95-5.12,8.7-2.18,12.85
						c2.95,4.15,8.7,5.12,12.85,2.18c0.84-0.6,1.58-1.34,2.18-2.18"/>
				</g>
				<g id="CIRCLE_34_">
					<path class="st0" d="M416.16,148.87c0-3.91,3.17-7.09,7.09-7.09c3.91,0,7.09,3.17,7.09,7.09c0,3.91-3.17,7.09-7.09,7.09
						C419.33,155.95,416.16,152.78,416.16,148.87L416.16,148.87z"/>
				</g>
			</g>
		</g>
		<g id="INSERT_64_">
			<g id="INSERT_63_">
				<g id="LINE_143_">
					<line class="st0" x1="465.48" y1="143.53" x2="465.48" y2="154.2"/>
				</g>
				<g id="ARC_226_">
					<path class="st0" d="M465.48,143.53c-2.95-4.15-8.7-5.12-12.85-2.18c-4.15,2.95-5.12,8.7-2.18,12.85
						c2.95,4.15,8.7,5.12,12.85,2.18c0.84-0.6,1.58-1.34,2.18-2.18"/>
				</g>
				<g id="CIRCLE_35_">
					<path class="st0" d="M450.88,148.87c0-3.91,3.17-7.09,7.09-7.09c3.91,0,7.09,3.17,7.09,7.09c0,3.91-3.17,7.09-7.09,7.09
						C454.05,155.95,450.88,152.78,450.88,148.87L450.88,148.87z"/>
				</g>
			</g>
		</g>
		<g id="INSERT_66_">
			<g id="INSERT_65_">
				<g id="LINE_144_">
					<line class="st0" x1="500.2" y1="143.53" x2="500.2" y2="154.2"/>
				</g>
				<g id="ARC_227_">
					<path class="st0" d="M500.2,143.53c-2.95-4.15-8.7-5.12-12.85-2.18c-4.15,2.95-5.12,8.7-2.18,12.85
						c2.95,4.15,8.7,5.12,12.85,2.18c0.84-0.6,1.58-1.34,2.18-2.18"/>
				</g>
				<g id="CIRCLE_36_">
					<path class="st0" d="M485.6,148.87c0-3.91,3.17-7.09,7.09-7.09s7.09,3.17,7.09,7.09c0,3.91-3.17,7.09-7.09,7.09
						S485.6,152.78,485.6,148.87L485.6,148.87z"/>
				</g>
			</g>
		</g>
		<g id="INSERT_68_">
			<g id="INSERT_67_">
				<g id="LINE_145_">
					<line class="st0" x1="534.93" y1="143.53" x2="534.93" y2="154.2"/>
				</g>
				<g id="ARC_228_">
					<path class="st0" d="M534.93,143.53c-2.95-4.15-8.7-5.12-12.85-2.18c-4.15,2.95-5.12,8.7-2.18,12.85
						c2.95,4.15,8.7,5.12,12.85,2.18c0.84-0.6,1.58-1.34,2.18-2.18"/>
				</g>
				<g id="CIRCLE_37_">
					<path class="st0" d="M520.33,148.87c0-3.91,3.17-7.09,7.09-7.09s7.09,3.17,7.09,7.09c0,3.91-3.17,7.09-7.09,7.09
						S520.33,152.78,520.33,148.87L520.33,148.87z"/>
				</g>
			</g>
		</g>
		<g id="INSERT_70_">
			<g id="INSERT_69_">
				<g id="LINE_146_">
					<line class="st0" x1="569.65" y1="143.53" x2="569.65" y2="154.2"/>
				</g>
				<g id="ARC_229_">
					<path class="st0" d="M569.65,143.53c-2.95-4.15-8.7-5.12-12.85-2.18c-4.15,2.95-5.12,8.7-2.18,12.85
						c2.95,4.15,8.7,5.12,12.85,2.18c0.84-0.6,1.58-1.34,2.18-2.18"/>
				</g>
				<g id="CIRCLE_38_">
					<path class="st0" d="M555.05,148.87c0-3.91,3.17-7.09,7.09-7.09c3.91,0,7.09,3.17,7.09,7.09c0,3.91-3.17,7.09-7.09,7.09
						C558.23,155.95,555.05,152.78,555.05,148.87L555.05,148.87z"/>
				</g>
			</g>
		</g>
		<g id="INSERT_72_">
			<g id="INSERT_71_">
				<g id="LINE_147_">
					<line class="st0" x1="604.38" y1="143.53" x2="604.38" y2="154.2"/>
				</g>
				<g id="ARC_230_">
					<path class="st0" d="M604.38,143.53c-2.95-4.15-8.7-5.12-12.85-2.18c-4.15,2.95-5.12,8.7-2.18,12.85
						c2.95,4.15,8.7,5.12,12.85,2.18c0.84-0.6,1.58-1.34,2.18-2.18"/>
				</g>
				<g id="CIRCLE_39_">
					<path class="st0" d="M589.78,148.87c0-3.91,3.17-7.09,7.09-7.09s7.09,3.17,7.09,7.09c0,3.91-3.17,7.09-7.09,7.09
						S589.78,152.78,589.78,148.87L589.78,148.87z"/>
				</g>
			</g>
		</g>
		<g id="INSERT_74_">
			<g id="INSERT_73_">
				<g id="LINE_148_">
					<line class="st0" x1="639.1" y1="143.53" x2="639.1" y2="154.2"/>
				</g>
				<g id="ARC_231_">
					<path class="st0" d="M639.1,143.53c-2.95-4.15-8.7-5.12-12.85-2.18c-4.15,2.95-5.12,8.7-2.18,12.85
						c2.95,4.15,8.7,5.12,12.85,2.18c0.84-0.6,1.58-1.34,2.18-2.18"/>
				</g>
				<g id="CIRCLE_40_">
					<path class="st0" d="M624.5,148.87c0-3.91,3.17-7.09,7.09-7.09s7.09,3.17,7.09,7.09c0,3.91-3.17,7.09-7.09,7.09
						S624.5,152.78,624.5,148.87L624.5,148.87z"/>
				</g>
			</g>
		</g>
		<g id="INSERT_76_">
			<g id="INSERT_75_">
				<g id="LINE_149_">
					<line class="st0" x1="673.83" y1="143.53" x2="673.83" y2="154.2"/>
				</g>
				<g id="ARC_232_">
					<path class="st0" d="M673.83,143.53c-2.95-4.15-8.7-5.12-12.85-2.18c-4.15,2.95-5.12,8.7-2.18,12.85
						c2.95,4.15,8.7,5.12,12.85,2.18c0.84-0.6,1.58-1.34,2.18-2.18"/>
				</g>
				<g id="CIRCLE_41_">
					<path class="st0" d="M659.23,148.87c0-3.91,3.17-7.09,7.09-7.09s7.09,3.17,7.09,7.09c0,3.91-3.17,7.09-7.09,7.09
						S659.23,152.78,659.23,148.87L659.23,148.87z"/>
				</g>
			</g>
		</g>
		<g id="INSERT_78_">
			<g id="INSERT_77_">
				<g id="LINE_150_">
					<line class="st0" x1="708.55" y1="143.53" x2="708.55" y2="154.2"/>
				</g>
				<g id="ARC_233_">
					<path class="st0" d="M708.55,143.53c-2.95-4.15-8.7-5.12-12.85-2.18c-4.15,2.95-5.12,8.7-2.18,12.85
						c2.95,4.15,8.7,5.12,12.85,2.18c0.84-0.6,1.58-1.34,2.18-2.18"/>
				</g>
				<g id="CIRCLE_42_">
					<path class="st0" d="M693.95,148.87c0-3.91,3.17-7.09,7.09-7.09c3.91,0,7.09,3.17,7.09,7.09c0,3.91-3.17,7.09-7.09,7.09
						C697.12,155.95,693.95,152.78,693.95,148.87L693.95,148.87z"/>
				</g>
			</g>
		</g>
		<g id="INSERT_80_">
			<g id="INSERT_79_">
				<g id="LINE_151_">
					<line class="st0" x1="743.27" y1="143.53" x2="743.27" y2="154.2"/>
				</g>
				<g id="ARC_234_">
					<path class="st0" d="M743.27,143.53c-2.95-4.15-8.7-5.12-12.85-2.18c-4.15,2.95-5.12,8.7-2.18,12.85
						c2.95,4.15,8.7,5.12,12.85,2.18c0.84-0.6,1.58-1.34,2.18-2.18"/>
				</g>
				<g id="CIRCLE_43_">
					<path class="st0" d="M728.68,148.87c0-3.91,3.17-7.09,7.09-7.09s7.09,3.17,7.09,7.09c0,3.91-3.17,7.09-7.09,7.09
						S728.68,152.78,728.68,148.87L728.68,148.87z"/>
				</g>
			</g>
		</g>
		<g id="INSERT_82_">
			<g id="INSERT_81_">
				<g id="LINE_152_">
					<line class="st0" x1="778" y1="143.53" x2="778" y2="154.2"/>
				</g>
				<g id="ARC_235_">
					<path class="st0" d="M778,143.53c-2.95-4.15-8.7-5.12-12.85-2.18c-4.15,2.95-5.12,8.7-2.18,12.85
						c2.95,4.15,8.7,5.12,12.85,2.18c0.84-0.6,1.58-1.34,2.18-2.18"/>
				</g>
				<g id="CIRCLE_44_">
					<path class="st0" d="M763.4,148.87c0-3.91,3.17-7.09,7.09-7.09s7.09,3.17,7.09,7.09c0,3.91-3.17,7.09-7.09,7.09
						S763.4,152.78,763.4,148.87L763.4,148.87z"/>
				</g>
			</g>
		</g>
		<g id="INSERT_84_">
			<g id="INSERT_83_">
				<g id="LINE_153_">
					<line class="st0" x1="812.72" y1="143.53" x2="812.72" y2="154.2"/>
				</g>
				<g id="ARC_236_">
					<path class="st0" d="M812.72,143.53c-2.95-4.15-8.7-5.12-12.85-2.18c-4.15,2.95-5.12,8.7-2.18,12.85
						c2.95,4.15,8.7,5.12,12.85,2.18c0.84-0.6,1.58-1.34,2.18-2.18"/>
				</g>
				<g id="CIRCLE_45_">
					<path class="st0" d="M798.12,148.87c0-3.91,3.17-7.09,7.09-7.09c3.91,0,7.09,3.17,7.09,7.09c0,3.91-3.17,7.09-7.09,7.09
						C801.3,155.95,798.12,152.78,798.12,148.87L798.12,148.87z"/>
				</g>
			</g>
		</g>
		<g id="INSERT_86_">
			<g id="INSERT_85_">
				<g id="LINE_154_">
					<line class="st0" x1="847.45" y1="143.53" x2="847.45" y2="154.2"/>
				</g>
				<g id="ARC_237_">
					<path class="st0" d="M847.45,143.53c-2.95-4.15-8.7-5.12-12.85-2.18c-4.15,2.95-5.12,8.7-2.18,12.85
						c2.95,4.15,8.7,5.12,12.85,2.18c0.84-0.6,1.58-1.34,2.18-2.18"/>
				</g>
				<g id="CIRCLE_46_">
					<path class="st0" d="M832.85,148.87c0-3.91,3.17-7.09,7.09-7.09s7.09,3.17,7.09,7.09c0,3.91-3.17,7.09-7.09,7.09
						S832.85,152.78,832.85,148.87L832.85,148.87z"/>
				</g>
			</g>
		</g>
		<g id="INSERT_88_">
			<g id="INSERT_87_">
				<g id="LINE_155_">
					<line class="st0" x1="882.17" y1="143.53" x2="882.17" y2="154.2"/>
				</g>
				<g id="ARC_238_">
					<path class="st0" d="M882.17,143.53c-2.95-4.15-8.7-5.12-12.85-2.18c-4.15,2.95-5.12,8.7-2.18,12.85
						c2.95,4.15,8.7,5.12,12.85,2.18c0.84-0.6,1.58-1.34,2.18-2.18"/>
				</g>
				<g id="CIRCLE_47_">
					<path class="st0" d="M867.57,148.87c0-3.91,3.17-7.09,7.09-7.09s7.09,3.17,7.09,7.09c0,3.91-3.17,7.09-7.09,7.09
						S867.57,152.78,867.57,148.87L867.57,148.87z"/>
				</g>
			</g>
		</g>
		<g id="INSERT_90_">
			<g id="INSERT_89_">
				<g id="LINE_156_">
					<line class="st0" x1="916.9" y1="143.53" x2="916.9" y2="154.2"/>
				</g>
				<g id="ARC_239_">
					<path class="st0" d="M916.9,143.53c-2.95-4.15-8.7-5.12-12.85-2.18c-4.15,2.95-5.12,8.7-2.18,12.85
						c2.95,4.15,8.7,5.12,12.85,2.18c0.84-0.6,1.58-1.34,2.18-2.18"/>
				</g>
				<g id="CIRCLE_48_">
					<path class="st0" d="M902.3,148.87c0-3.91,3.17-7.09,7.09-7.09s7.09,3.17,7.09,7.09c0,3.91-3.17,7.09-7.09,7.09
						S902.3,152.78,902.3,148.87L902.3,148.87z"/>
				</g>
			</g>
		</g>
		<g id="INSERT_92_">
			<g id="INSERT_91_">
				<g id="LINE_157_">
					<line class="st0" x1="951.62" y1="143.53" x2="951.62" y2="154.2"/>
				</g>
				<g id="ARC_240_">
					<path class="st0" d="M951.62,143.53c-2.95-4.15-8.7-5.12-12.85-2.18c-4.15,2.95-5.12,8.7-2.18,12.85
						c2.95,4.15,8.7,5.12,12.85,2.18c0.84-0.6,1.58-1.34,2.18-2.18"/>
				</g>
				<g id="CIRCLE_49_">
					<path class="st0" d="M937.02,148.87c0-3.91,3.17-7.09,7.09-7.09c3.91,0,7.09,3.17,7.09,7.09c0,3.91-3.17,7.09-7.09,7.09
						C940.2,155.95,937.02,152.78,937.02,148.87L937.02,148.87z"/>
				</g>
			</g>
		</g>
		<g id="INSERT_94_">
			<g id="INSERT_93_">
				<g id="LINE_158_">
					<line class="st0" x1="986.35" y1="143.53" x2="986.35" y2="154.2"/>
				</g>
				<g id="ARC_241_">
					<path class="st0" d="M986.35,143.53c-2.95-4.15-8.7-5.12-12.85-2.18c-4.15,2.95-5.12,8.7-2.18,12.85
						c2.95,4.15,8.7,5.12,12.85,2.18c0.84-0.6,1.58-1.34,2.18-2.18"/>
				</g>
				<g id="CIRCLE_50_">
					<path class="st0" d="M971.75,148.87c0-3.91,3.17-7.09,7.09-7.09s7.09,3.17,7.09,7.09c0,3.91-3.17,7.09-7.09,7.09
						S971.75,152.78,971.75,148.87L971.75,148.87z"/>
				</g>
			</g>
		</g>
	</g>
</g>
<text transform="matrix(1 0 0 1 385.9636 1070.5099)" class="st1 st2 st3">PianoLamp - ZenziWerken - 6.5 mm Birch Plywood / 5 mm PVC Foam / 4 mm High Density Fiberboard</text>
</svg>
