  0
SECTION
  2
HEADER
  9
$ACADVER
  1
AC1009
  9
$DWGCODEPAGE
  3
ansi_1252
  9
$INSBASE
 10
0.0
 20
0.0
 30
0.0
  9
$EXTMIN
 10
0.0
 20
0.0
 30
0.0
  9
$EXTMAX
 10
594.0
 20
420.0
 30
0.0
  9
$LIMMIN
 10
0.0
 20
0.0
  9
$LIMMAX
 10
594.0
 20
420.0
  9
$ORTHOMODE
 70
     0
  9
$REGENMODE
 70
     1
  9
$FILLMODE
 70
     1
  9
$QTEXTMODE
 70
     0
  9
$MIRRTEXT
 70
     1
  9
$DRAGMODE
 70
     2
  9
$LTSCALE
 40
1.0
  9
$OSMODE
 70
    37
  9
$ATTMODE
 70
     1
  9
$TEXTSIZE
 40
3.5
  9
$TRACEWID
 40
1.0
  9
$TEXTSTYLE
  7
STANDARD
  9
$CLAYER
  8
0
  9
$CELTYPE
  6
BYLAYER
  9
$CECOLOR
 62
   256
  9
$DIMSCALE
 40
1.0
  9
$DIMASZ
 40
2.5
  9
$DIMEXO
 40
0.625
  9
$DIMDLI
 40
3.75
  9
$DIMRND
 40
0.0
  9
$DIMDLE
 40
0.0
  9
$DIMEXE
 40
1.25
  9
$DIMTP
 40
0.0
  9
$DIMTM
 40
0.0
  9
$DIMTXT
 40
2.5
  9
$DIMCEN
 40
2.5
  9
$DIMTSZ
 40
0.0
  9
$DIMTOL
 70
     0
  9
$DIMLIM
 70
     0
  9
$DIMTIH
 70
     0
  9
$DIMTOH
 70
     0
  9
$DIMSE1
 70
     0
  9
$DIMSE2
 70
     0
  9
$DIMTAD
 70
     1
  9
$DIMZIN
 70
     8
  9
$DIMBLK
  1

  9
$DIMASO
 70
     1
  9
$DIMSHO
 70
     1
  9
$DIMPOST
  1

  9
$DIMAPOST
  1

  9
$DIMALT
 70
     0
  9
$DIMALTD
 70
     3
  9
$DIMALTF
 40
0.0393700787
  9
$DIMLFAC
 40
1.0
  9
$DIMTOFL
 70
     1
  9
$DIMTVP
 40
0.0
  9
$DIMTIX
 70
     0
  9
$DIMSOXD
 70
     0
  9
$DIMSAH
 70
     0
  9
$DIMBLK1
  1

  9
$DIMBLK2
  1

  9
$DIMSTYLE
  2
ISO-25
  9
$DIMCLRD
 70
     0
  9
$DIMCLRE
 70
     0
  9
$DIMCLRT
 70
     0
  9
$DIMTFAC
 40
1.0
  9
$DIMGAP
 40
0.625
  9
$LUNITS
 70
     2
  9
$LUPREC
 70
     4
  9
$SKETCHINC
 40
1.0
  9
$FILLETRAD
 40
10.0
  9
$AUNITS
 70
     0
  9
$AUPREC
 70
     0
  9
$MENU
  1
.
  9
$ELEVATION
 40
0.0
  9
$PELEVATION
 40
0.0
  9
$THICKNESS
 40
0.0
  9
$LIMCHECK
 70
     0
  9
$CHAMFERA
 40
0.0
  9
$CHAMFERB
 40
0.0
  9
$SKPOLY
 70
     0
  9
$TDCREATE
 40
2458039.916437859
  9
$TDUPDATE
 40
2458039.916441493
  9
$TDINDWG
 40
0.0000000116
  9
$TDUSRTIMER
 40
0.0000000116
  9
$USRTIMER
 70
     1
  9
$ANGBASE
 50
0.0
  9
$ANGDIR
 70
     0
  9
$PDMODE
 70
     0
  9
$PDSIZE
 40
0.0
  9
$PLINEWID
 40
0.0
  9
$COORDS
 70
     1
  9
$SPLFRAME
 70
     0
  9
$SPLINETYPE
 70
     6
  9
$SPLINESEGS
 70
     8
  9
$ATTDIA
 70
     0
  9
$ATTREQ
 70
     1
  9
$HANDLING
 70
     1
  9
$HANDSEED
  5
23D
  9
$SURFTAB1
 70
     6
  9
$SURFTAB2
 70
     6
  9
$SURFTYPE
 70
     6
  9
$SURFU
 70
     6
  9
$SURFV
 70
     6
  9
$UCSNAME
  2

  9
$UCSORG
 10
0.0
 20
0.0
 30
0.0
  9
$UCSXDIR
 10
1.0
 20
0.0
 30
0.0
  9
$UCSYDIR
 10
0.0
 20
1.0
 30
0.0
  9
$PUCSNAME
  2

  9
$PUCSORG
 10
0.0
 20
0.0
 30
0.0
  9
$PUCSXDIR
 10
1.0
 20
0.0
 30
0.0
  9
$PUCSYDIR
 10
0.0
 20
1.0
 30
0.0
  9
$USERI1
 70
     0
  9
$USERI2
 70
     0
  9
$USERI3
 70
     0
  9
$USERI4
 70
     0
  9
$USERI5
 70
     0
  9
$USERR1
 40
0.0
  9
$USERR2
 40
0.0
  9
$USERR3
 40
0.0
  9
$USERR4
 40
0.0
  9
$USERR5
 40
0.0
  9
$WORLDVIEW
 70
     1
  9
$SHADEDGE
 70
     3
  9
$SHADEDIF
 70
    70
  9
$TILEMODE
 70
     1
  9
$MAXACTVP
 70
    64
  9
$PLIMCHECK
 70
     0
  9
$PEXTMIN
 10
0.0
 20
0.0
 30
0.0
  9
$PEXTMAX
 10
594.0
 20
420.0
 30
0.0
  9
$PLIMMIN
 10
0.0
 20
0.0
  9
$PLIMMAX
 10
594.0
 20
420.0
  9
$UNITMODE
 70
     0
  9
$VISRETAIN
 70
     1
  9
$PLINEGEN
 70
     0
  9
$PSLTSCALE
 70
     1
  0
ENDSEC
  0
SECTION
  2
TABLES
  0
TABLE
  2
VPORT
 70
     1
  0
VPORT
  2
*ACTIVE
 70
     0
 10
0.0
 20
0.0
 11
1.0
 21
1.0
 12
344.1869158879
 22
148.5
 13
0.0
 23
0.0
 14
10.0
 24
10.0
 15
10.0
 25
10.0
 16
0.0
 26
0.0
 36
1.0
 17
0.0
 27
0.0
 37
0.0
 40
297.0
 41
1.9729729729
 42
50.0
 43
0.0
 44
0.0
 50
0.0
 51
0.0
 71
     0
 72
   100
 73
     1
 74
     3
 75
     0
 76
     0
 77
     0
 78
     0
  0
ENDTAB
  0
TABLE
  2
LTYPE
 70
     1
  0
LTYPE
  2
CONTINUOUS
 70
     0
  3
Solid line
 72
    65
 73
     0
 40
0.0
  0
ENDTAB
  0
TABLE
  2
LAYER
 70
     2
  0
LAYER
  2
0
 70
     0
 62
     7
  6
CONTINUOUS
  0
LAYER
  2
STANDARD
 70
     0
 62
     7
  6
CONTINUOUS
  0
ENDTAB
  0
TABLE
  2
STYLE
 70
     1
  0
STYLE
  2
STANDARD
 70
     0
 40
0.0
 41
1.0
 50
0.0
 71
     0
 42
3.5
  3
txt
  4

  0
ENDTAB
  0
TABLE
  2
VIEW
 70
     0
  0
ENDTAB
  0
TABLE
  2
UCS
 70
     0
  0
ENDTAB
  0
TABLE
  2
APPID
 70
     1
  0
APPID
  2
ACAD
 70
     0
  0
ENDTAB
  0
TABLE
  2
DIMSTYLE
 70
     1
  0
DIMSTYLE
  2
ISO-25
 70
     0
  3

  4

  5

  6

  7

 40
1.0
 41
2.5
 42
0.625
 43
3.75
 44
1.25
 45
0.0
 46
0.0
 47
0.0
 48
0.0
140
2.5
141
2.5
142
0.0
143
0.0393700787
144
1.0
145
0.0
146
1.0
147
0.625
 71
     0
 72
     0
 73
     0
 74
     0
 75
     0
 76
     0
 77
     1
 78
     8
170
     0
171
     3
172
     1
173
     0
174
     0
175
     0
176
     0
177
     0
178
     0
  0
ENDTAB
  0
ENDSEC
  0
SECTION
  2
BLOCKS
  0
BLOCK
  8
0
  2
$MODEL_SPACE
 70
     0
 10
0.0
 20
0.0
 30
0.0
  3
$MODEL_SPACE
  1

  0
ENDBLK
  5
21
  8
0
  0
BLOCK
 67
     1
  8
0
  2
$PAPER_SPACE
 70
     0
 10
0.0
 20
0.0
 30
0.0
  3
$PAPER_SPACE
  1

  0
ENDBLK
  5
1D
 67
     1
  8
0
  0
ENDSEC
  0
SECTION
  2
ENTITIES
  0
TEXT
  5
6F
  8
STANDARD
  6
CONTINUOUS
 62
     7
 10
124.419434077
 20
16.6389047642
 30
0.0
 40
3.5
  1
PianoLamp - ZenziWerken - 6.5 mm Birch Plywood / 5 mm PVC Foam / 4 mm High Density Fiberboard
  0
CIRCLE
  5
70
  8
STANDARD
  6
CONTINUOUS
 62
     7
 10
171.491579712
 20
303.2666294868
 30
0.0
 40
2.0
  0
LINE
  5
71
  8
STANDARD
  6
CONTINUOUS
 62
     7
 10
194.99253139
 20
300.0044657869
 30
0.0
 11
194.99253139
 21
295.2509201349
 31
0.0
  0
ARC
  5
72
  8
STANDARD
  6
CONTINUOUS
 62
     7
 10
201.5277765372
 20
360.8290773025
 30
0.0
 40
49.99999999999696
 50
240.9652938047
 51
262.489672152
  0
ARC
  5
73
  8
STANDARD
  6
CONTINUOUS
 62
     7
 10
201.4702643462
 20
245.6723060383
 30
0.0
 40
49.99999999999836
 50
97.4438585371
 51
118.9593566143
  0
ARC
  5
74
  8
STANDARD
  6
CONTINUOUS
 62
     7
 10
171.491579712
 20
303.2666294868
 30
0.0
 40
15.0
 50
67.380135052
 51
292.619864948
  0
LINE
  5
75
  8
STANDARD
  6
CONTINUOUS
 62
     7
 10
194.99253139
 20
300.0044657869
 30
0.0
 11
201.49253139
 21
300.0044657869
 31
0.0
  0
LINE
  5
76
  8
STANDARD
  6
CONTINUOUS
 62
     7
 10
201.49253139
 20
300.0044657869
 30
0.0
 11
201.49253139
 21
306.5044657869
 31
0.0
  0
LINE
  5
77
  8
STANDARD
  6
CONTINUOUS
 62
     7
 10
201.49253139
 20
306.5044657869
 30
0.0
 11
194.99253139
 21
306.5044657869
 31
0.0
  0
LINE
  5
78
  8
STANDARD
  6
CONTINUOUS
 62
     7
 10
194.99253139
 20
311.2580114388
 30
0.0
 11
194.99253139
 21
306.5044657869
 31
0.0
  0
CIRCLE
  5
79
  8
STANDARD
  6
CONTINUOUS
 62
     7
 10
193.9697885072
 20
272.7446932368
 30
0.0
 40
2.0
  0
LINE
  5
7A
  8
STANDARD
  6
CONTINUOUS
 62
     7
 10
217.4707401852
 20
269.4825295369
 30
0.0
 11
217.4707401852
 21
264.728983885
 31
0.0
  0
ARC
  5
7B
  8
STANDARD
  6
CONTINUOUS
 62
     7
 10
224.0059853324
 20
330.3071410525
 30
0.0
 40
49.99999999999696
 50
240.9652938047
 51
262.489672152
  0
ARC
  5
7C
  8
STANDARD
  6
CONTINUOUS
 62
     7
 10
223.9484731414
 20
215.1503697883
 30
0.0
 40
49.99999999999836
 50
97.4438585371
 51
118.9593566143
  0
ARC
  5
7D
  8
STANDARD
  6
CONTINUOUS
 62
     7
 10
193.9697885072
 20
272.7446932368
 30
0.0
 40
15.0
 50
67.380135052
 51
292.619864948
  0
LINE
  5
7E
  8
STANDARD
  6
CONTINUOUS
 62
     7
 10
217.4707401852
 20
269.4825295369
 30
0.0
 11
223.9707401852
 21
269.4825295369
 31
0.0
  0
LINE
  5
7F
  8
STANDARD
  6
CONTINUOUS
 62
     7
 10
223.9707401852
 20
269.4825295369
 30
0.0
 11
223.9707401852
 21
275.9825295369
 31
0.0
  0
LINE
  5
80
  8
STANDARD
  6
CONTINUOUS
 62
     7
 10
223.9707401852
 20
275.9825295369
 30
0.0
 11
217.4707401852
 21
275.9825295369
 31
0.0
  0
LINE
  5
81
  8
STANDARD
  6
CONTINUOUS
 62
     7
 10
217.4707401852
 20
280.7360751888
 30
0.0
 11
217.4707401852
 21
275.9825295369
 31
0.0
  0
LINE
  5
82
  8
STANDARD
  6
CONTINUOUS
 62
     7
 10
27.1966213853
 20
330.503778066
 30
0.0
 11
327.1966213853
 21
330.503778066
 31
0.0
  0
LINE
  5
83
  8
STANDARD
  6
CONTINUOUS
 62
     7
 10
327.1966213853
 20
330.503778066
 30
0.0
 11
327.1966213853
 21
346.503778066
 31
0.0
  0
LINE
  5
84
  8
STANDARD
  6
CONTINUOUS
 62
     7
 10
327.1966213853
 20
346.503778066
 30
0.0
 11
27.1966213853
 21
346.503778066
 31
0.0
  0
LINE
  5
85
  8
STANDARD
  6
CONTINUOUS
 62
     7
 10
27.1966213853
 20
346.503778066
 30
0.0
 11
27.1966213853
 21
330.503778066
 31
0.0
  0
LINE
  5
86
  8
STANDARD
  6
CONTINUOUS
 62
     7
 10
27.1966213853
 20
350.503778066
 30
0.0
 11
327.1966213853
 21
350.503778066
 31
0.0
  0
LINE
  5
87
  8
STANDARD
  6
CONTINUOUS
 62
     7
 10
327.1966213853
 20
350.503778066
 30
0.0
 11
327.1966213853
 21
366.503778066
 31
0.0
  0
LINE
  5
88
  8
STANDARD
  6
CONTINUOUS
 62
     7
 10
327.1966213853
 20
366.503778066
 30
0.0
 11
27.1966213853
 21
366.503778066
 31
0.0
  0
LINE
  5
89
  8
STANDARD
  6
CONTINUOUS
 62
     7
 10
27.1966213853
 20
366.503778066
 30
0.0
 11
27.1966213853
 21
350.503778066
 31
0.0
  0
LINE
  5
8A
  8
STANDARD
  6
CONTINUOUS
 62
     7
 10
29.6966213853
 20
352.903778066
 30
0.0
 11
324.6966213853
 21
352.903778066
 31
0.0
  0
LINE
  5
8B
  8
STANDARD
  6
CONTINUOUS
 62
     7
 10
324.6966213853
 20
352.903778066
 30
0.0
 11
324.6966213853
 21
364.103778066
 31
0.0
  0
LINE
  5
8C
  8
STANDARD
  6
CONTINUOUS
 62
     7
 10
324.6966213853
 20
364.103778066
 30
0.0
 11
29.6966213853
 21
364.103778066
 31
0.0
  0
LINE
  5
8D
  8
STANDARD
  6
CONTINUOUS
 62
     7
 10
29.6966213853
 20
364.103778066
 30
0.0
 11
29.6966213853
 21
352.903778066
 31
0.0
  0
LINE
  5
8E
  8
STANDARD
  6
CONTINUOUS
 62
     7
 10
30.6966213853
 20
356.503778066
 30
0.0
 11
323.6966213853
 21
356.503778066
 31
0.0
  0
LINE
  5
8F
  8
STANDARD
  6
CONTINUOUS
 62
     7
 10
323.6966213853
 20
356.503778066
 30
0.0
 11
323.6966213853
 21
360.503778066
 31
0.0
  0
LINE
  5
90
  8
STANDARD
  6
CONTINUOUS
 62
     7
 10
323.6966213853
 20
360.503778066
 30
0.0
 11
30.6966213853
 21
360.503778066
 31
0.0
  0
LINE
  5
91
  8
STANDARD
  6
CONTINUOUS
 62
     7
 10
30.6966213853
 20
360.503778066
 30
0.0
 11
30.6966213853
 21
356.503778066
 31
0.0
  0
LINE
  5
92
  8
STANDARD
  6
CONTINUOUS
 62
     7
 10
180.4466213853
 20
355.253778066
 30
0.0
 11
186.9466213853
 21
355.253778066
 31
0.0
  0
LINE
  5
93
  8
STANDARD
  6
CONTINUOUS
 62
     7
 10
186.9466213853
 20
355.253778066
 30
0.0
 11
186.9466213853
 21
361.753778066
 31
0.0
  0
LINE
  5
94
  8
STANDARD
  6
CONTINUOUS
 62
     7
 10
186.9466213853
 20
361.753778066
 30
0.0
 11
180.4466213853
 21
361.753778066
 31
0.0
  0
LINE
  5
95
  8
STANDARD
  6
CONTINUOUS
 62
     7
 10
173.9466213853
 20
361.753778066
 30
0.0
 11
173.9466213853
 21
355.253778066
 31
0.0
  0
LINE
  5
96
  8
STANDARD
  6
CONTINUOUS
 62
     7
 10
167.4466213853
 20
355.253778066
 30
0.0
 11
173.9466213853
 21
355.253778066
 31
0.0
  0
LINE
  5
97
  8
STANDARD
  6
CONTINUOUS
 62
     7
 10
180.4466213853
 20
355.253778066
 30
0.0
 11
180.4466213853
 21
361.753778066
 31
0.0
  0
LINE
  5
98
  8
STANDARD
  6
CONTINUOUS
 62
     7
 10
173.9466213853
 20
361.753778066
 30
0.0
 11
167.4466213853
 21
361.753778066
 31
0.0
  0
LINE
  5
99
  8
STANDARD
  6
CONTINUOUS
 62
     7
 10
167.4466213853
 20
361.753778066
 30
0.0
 11
167.4466213853
 21
355.253778066
 31
0.0
  0
LINE
  5
9A
  8
STANDARD
  6
CONTINUOUS
 62
     7
 10
161.4716213853
 20
340.3852668383
 30
0.0
 11
161.4716213853
 21
336.6222892938
 31
0.0
  0
ARC
  5
9B
  8
STANDARD
  6
CONTINUOUS
 62
     7
 10
158.8216213853
 20
338.503778066
 30
0.0
 40
3.250000000000001
 50
35.3745904472
 51
324.6254095528
  0
CIRCLE
  5
9C
  8
STANDARD
  6
CONTINUOUS
 62
     7
 10
158.8216213853
 20
338.503778066
 30
0.0
 40
2.5
  0
LINE
  5
9D
  8
STANDARD
  6
CONTINUOUS
 62
     7
 10
234.9716213853
 20
340.3852668383
 30
0.0
 11
234.9716213853
 21
336.6222892938
 31
0.0
  0
ARC
  5
9E
  8
STANDARD
  6
CONTINUOUS
 62
     7
 10
232.3216213853
 20
338.503778066
 30
0.0
 40
3.250000000000001
 50
35.3745904472
 51
324.6254095528
  0
CIRCLE
  5
9F
  8
STANDARD
  6
CONTINUOUS
 62
     7
 10
232.3216213853
 20
338.503778066
 30
0.0
 40
2.5
  0
LINE
  5
A0
  8
STANDARD
  6
CONTINUOUS
 62
     7
 10
51.2216213853
 20
340.3852668383
 30
0.0
 11
51.2216213853
 21
336.6222892938
 31
0.0
  0
ARC
  5
A1
  8
STANDARD
  6
CONTINUOUS
 62
     7
 10
48.5716213853
 20
338.503778066
 30
0.0
 40
3.250000000000001
 50
35.3745904472
 51
324.6254095528
  0
CIRCLE
  5
A2
  8
STANDARD
  6
CONTINUOUS
 62
     7
 10
48.5716213853
 20
338.503778066
 30
0.0
 40
2.5
  0
LINE
  5
A3
  8
STANDARD
  6
CONTINUOUS
 62
     7
 10
112.4716213853
 20
340.3852668383
 30
0.0
 11
112.4716213853
 21
336.6222892938
 31
0.0
  0
ARC
  5
A4
  8
STANDARD
  6
CONTINUOUS
 62
     7
 10
109.8216213853
 20
338.503778066
 30
0.0
 40
3.250000000000001
 50
35.3745904472
 51
324.6254095528
  0
CIRCLE
  5
A5
  8
STANDARD
  6
CONTINUOUS
 62
     7
 10
109.8216213853
 20
338.503778066
 30
0.0
 40
2.5
  0
LINE
  5
A6
  8
STANDARD
  6
CONTINUOUS
 62
     7
 10
173.7216213853
 20
340.3852668383
 30
0.0
 11
173.7216213853
 21
336.6222892938
 31
0.0
  0
ARC
  5
A7
  8
STANDARD
  6
CONTINUOUS
 62
     7
 10
171.0716213853
 20
338.503778066
 30
0.0
 40
3.250000000000001
 50
35.3745904472
 51
324.6254095528
  0
CIRCLE
  5
A8
  8
STANDARD
  6
CONTINUOUS
 62
     7
 10
171.0716213853
 20
338.503778066
 30
0.0
 40
2.5
  0
LINE
  5
A9
  8
STANDARD
  6
CONTINUOUS
 62
     7
 10
222.7216213853
 20
340.3852668383
 30
0.0
 11
222.7216213853
 21
336.6222892938
 31
0.0
  0
ARC
  5
AA
  8
STANDARD
  6
CONTINUOUS
 62
     7
 10
220.0716213853
 20
338.503778066
 30
0.0
 40
3.250000000000001
 50
35.3745904472
 51
324.6254095528
  0
CIRCLE
  5
AB
  8
STANDARD
  6
CONTINUOUS
 62
     7
 10
220.0716213853
 20
338.503778066
 30
0.0
 40
2.5
  0
CIRCLE
  5
AC
  8
STANDARD
  6
CONTINUOUS
 62
     7
 10
185.5639858519
 20
44.5502831429
 30
0.0
 40
2.0
  0
ARC
  5
AD
  8
STANDARD
  6
CONTINUOUS
 62
     7
 10
166.7980489064
 20
106.782426048
 30
0.0
 40
55.99999999999984
 50
256.4334746448
 51
265.1524445705
  0
ARC
  5
AE
  8
STANDARD
  6
CONTINUOUS
 62
     7
 10
185.5639858519
 20
44.5502831429
 30
0.0
 40
21.00000000000001
 50
171.7515457176
 51
177.48397515
  0
ARC
  5
AF
  8
STANDARD
  6
CONTINUOUS
 62
     7
 10
161.5871222657
 20
45.6038544833
 30
0.0
 40
2.99999999999999
 50
260.2093507074
 51
357.48397515
  0
ARC
  5
B0
  8
STANDARD
  6
CONTINUOUS
 62
     7
 10
161.8122596699
 20
47.9934653012
 30
0.0
 40
3.000000000000004
 50
351.7515457176
 51
85.1524445705
  0
ARC
  5
B1
  8
STANDARD
  6
CONTINUOUS
 62
     7
 10
166.7980489064
 20
106.782426048
 30
0.0
 40
49.99999999999984
 50
256.4334746448
 51
286.7805452052
  0
ARC
  5
B2
  8
STANDARD
  6
CONTINUOUS
 62
     7
 10
155.7667600293
 20
-13.2175741246
 30
0.0
 40
49.99999999999998
 50
62.7148736742
 51
81.4318241694
  0
ARC
  5
B3
  8
STANDARD
  6
CONTINUOUS
 62
     7
 10
185.5639858519
 20
44.5502831429
 30
0.0
 40
15.0
 50
242.7148736742
 51
106.7805452052
  0
CIRCLE
  5
B4
  8
STANDARD
  6
CONTINUOUS
 62
     7
 10
45.5641137139
 20
184.3614904565
 30
0.0
 40
2.0
  0
ARC
  5
B5
  8
STANDARD
  6
CONTINUOUS
 62
     7
 10
45.5641137139
 20
184.3614904565
 30
0.0
 40
21.00000000000129
 50
272.5932878189
 51
278.3257176924
  0
ARC
  5
B6
  8
STANDARD
  6
CONTINUOUS
 62
     7
 10
107.8215059109
 20
165.6794906485
 30
0.0
 40
56.00000000000001
 50
184.9248188395
 51
193.6437907584
  0
ARC
  5
B7
  8
STANDARD
  6
CONTINUOUS
 62
     7
 10
49.0393219559
 20
160.614429003
 30
0.0
 40
3.000000000000264
 50
4.9248188395
 51
98.3257176924
  0
ARC
  5
B8
  8
STANDARD
  6
CONTINUOUS
 62
     7
 10
46.6500167241
 20
160.3860694038
 30
0.0
 40
3.000000000000024
 50
92.5932878189
 51
189.8679138215
  0
ARC
  5
B9
  8
STANDARD
  6
CONTINUOUS
 62
     7
 10
-12.1635098032
 20
154.4863924137
 30
0.0
 40
49.99999999999634
 50
8.6454398298
 51
27.3623890698
  0
ARC
  5
BA
  8
STANDARD
  6
CONTINUOUS
 62
     7
 10
107.8215059109
 20
165.6794906485
 30
0.0
 40
49.99999999998447
 50
163.2967182048
 51
193.6437907584
  0
ARC
  5
BB
  8
STANDARD
  6
CONTINUOUS
 62
     7
 10
45.5641137139
 20
184.3614904565
 30
0.0
 40
15.00000000000258
 50
343.2967182048
 51
207.3623890698
  0
ARC
  5
BC
  8
STANDARD
  6
CONTINUOUS
 62
     7
 10
185.5639858519
 20
184.5502832292
 30
0.0
 40
136.0
 50
193.6437907584
 51
256.4334746448
  0
ARC
  5
BD
  8
STANDARD
  6
CONTINUOUS
 62
     7
 10
185.5639858519
 20
184.5502832292
 30
0.0
 40
130.0
 50
193.6437907584
 51
256.4334746448
  0
ARC
  5
BE
  8
STANDARD
  6
CONTINUOUS
 62
     7
 10
185.5639858519
 20
184.5502832292
 30
0.0
 40
144.0000001725534
 50
189.8679138215
 51
260.2093507074
  0
ARC
  5
BF
  8
STANDARD
  6
CONTINUOUS
 62
     7
 10
185.5639858519
 20
184.5502832292
 30
0.0
 40
150.0000001725534
 50
188.6454398298
 51
261.4318241694
  0
CIRCLE
  5
C0
  8
STANDARD
  6
CONTINUOUS
 62
     7
 10
157.9091180169
 20
174.7845597009
 30
0.0
 40
2.0
  0
LINE
  5
C1
  8
STANDARD
  6
CONTINUOUS
 62
     7
 10
132.9091180169
 20
189.7845597009
 30
0.0
 11
132.9091180169
 21
181.2845597009
 31
0.0
  0
LINE
  5
C2
  8
STANDARD
  6
CONTINUOUS
 62
     7
 10
132.9091180169
 20
181.2845597009
 30
0.0
 11
126.4091180169
 21
181.2845597009
 31
0.0
  0
LINE
  5
C3
  8
STANDARD
  6
CONTINUOUS
 62
     7
 10
126.4091180169
 20
168.2845597009
 30
0.0
 11
132.9091180169
 21
168.2845597009
 31
0.0
  0
LINE
  5
C4
  8
STANDARD
  6
CONTINUOUS
 62
     7
 10
126.4091180169
 20
181.2845597009
 30
0.0
 11
126.4091180169
 21
168.2845597009
 31
0.0
  0
ARC
  5
C5
  8
STANDARD
  6
CONTINUOUS
 62
     7
 10
157.9091180169
 20
174.7845597009
 30
0.0
 40
15.0
 50
270.0
 51
90.0
  0
LINE
  5
C6
  8
STANDARD
  6
CONTINUOUS
 62
     7
 10
157.9091180169
 20
189.7845597009
 30
0.0
 11
132.9091180169
 21
189.7845597009
 31
0.0
  0
LINE
  5
C7
  8
STANDARD
  6
CONTINUOUS
 62
     7
 10
132.9091180169
 20
159.7845597009
 30
0.0
 11
157.9091180169
 21
159.7845597009
 31
0.0
  0
LINE
  5
C8
  8
STANDARD
  6
CONTINUOUS
 62
     7
 10
132.9091180169
 20
168.2845597009
 30
0.0
 11
132.9091180169
 21
159.7845597009
 31
0.0
  0
LINE
  5
C9
  8
STANDARD
  6
CONTINUOUS
 62
     7
 10
75.7216213853
 20
340.3852668383
 30
0.0
 11
75.7216213853
 21
336.6222892938
 31
0.0
  0
ARC
  5
CA
  8
STANDARD
  6
CONTINUOUS
 62
     7
 10
73.0716213853
 20
338.503778066
 30
0.0
 40
3.250000000000001
 50
35.3745904472
 51
324.6254095528
  0
CIRCLE
  5
CB
  8
STANDARD
  6
CONTINUOUS
 62
     7
 10
73.0716213853
 20
338.503778066
 30
0.0
 40
2.5
  0
LINE
  5
CC
  8
STANDARD
  6
CONTINUOUS
 62
     7
 10
124.7216213853
 20
340.3852668383
 30
0.0
 11
124.7216213853
 21
336.6222892938
 31
0.0
  0
ARC
  5
CD
  8
STANDARD
  6
CONTINUOUS
 62
     7
 10
122.0716213853
 20
338.503778066
 30
0.0
 40
3.250000000000001
 50
35.3745904472
 51
324.6254095528
  0
CIRCLE
  5
CE
  8
STANDARD
  6
CONTINUOUS
 62
     7
 10
122.0716213853
 20
338.503778066
 30
0.0
 40
2.5
  0
LINE
  5
CF
  8
STANDARD
  6
CONTINUOUS
 62
     7
 10
136.9716213853
 20
340.3852668383
 30
0.0
 11
136.9716213853
 21
336.6222892938
 31
0.0
  0
ARC
  5
D0
  8
STANDARD
  6
CONTINUOUS
 62
     7
 10
134.3216213853
 20
338.503778066
 30
0.0
 40
3.250000000000001
 50
35.3745904472
 51
324.6254095528
  0
CIRCLE
  5
D1
  8
STANDARD
  6
CONTINUOUS
 62
     7
 10
134.3216213853
 20
338.503778066
 30
0.0
 40
2.5
  0
LINE
  5
D2
  8
STANDARD
  6
CONTINUOUS
 62
     7
 10
296.2216213853
 20
340.3852668383
 30
0.0
 11
296.2216213853
 21
336.6222892938
 31
0.0
  0
ARC
  5
D3
  8
STANDARD
  6
CONTINUOUS
 62
     7
 10
293.5716213853
 20
338.503778066
 30
0.0
 40
3.250000000000001
 50
35.3745904472
 51
324.6254095528
  0
CIRCLE
  5
D4
  8
STANDARD
  6
CONTINUOUS
 62
     7
 10
293.5716213853
 20
338.503778066
 30
0.0
 40
2.5
  0
CIRCLE
  5
D5
  8
STANDARD
  6
CONTINUOUS
 62
     7
 10
156.5863928038
 20
138.0367517817
 30
0.0
 40
2.0
  0
LINE
  5
D6
  8
STANDARD
  6
CONTINUOUS
 62
     7
 10
131.5863928038
 20
153.0367517817
 30
0.0
 11
131.5863928038
 21
144.5367517817
 31
0.0
  0
LINE
  5
D7
  8
STANDARD
  6
CONTINUOUS
 62
     7
 10
131.5863928038
 20
144.5367517817
 30
0.0
 11
125.0863928038
 21
144.5367517817
 31
0.0
  0
LINE
  5
D8
  8
STANDARD
  6
CONTINUOUS
 62
     7
 10
125.0863928038
 20
131.5367517817
 30
0.0
 11
131.5863928038
 21
131.5367517817
 31
0.0
  0
LINE
  5
D9
  8
STANDARD
  6
CONTINUOUS
 62
     7
 10
125.0863928038
 20
144.5367517817
 30
0.0
 11
125.0863928038
 21
131.5367517817
 31
0.0
  0
ARC
  5
DA
  8
STANDARD
  6
CONTINUOUS
 62
     7
 10
156.5863928038
 20
138.0367517817
 30
0.0
 40
15.0
 50
270.0
 51
90.0
  0
LINE
  5
DB
  8
STANDARD
  6
CONTINUOUS
 62
     7
 10
156.5863928038
 20
153.0367517817
 30
0.0
 11
131.5863928038
 21
153.0367517817
 31
0.0
  0
LINE
  5
DC
  8
STANDARD
  6
CONTINUOUS
 62
     7
 10
131.5863928038
 20
123.0367517817
 30
0.0
 11
156.5863928038
 21
123.0367517817
 31
0.0
  0
LINE
  5
DD
  8
STANDARD
  6
CONTINUOUS
 62
     7
 10
131.5863928038
 20
131.5367517817
 30
0.0
 11
131.5863928038
 21
123.0367517817
 31
0.0
  0
CIRCLE
  5
DE
  8
STANDARD
  6
CONTINUOUS
 62
     7
 10
169.6205804456
 20
243.7483939286
 30
0.0
 40
2.0
  0
CIRCLE
  5
DF
  8
STANDARD
  6
CONTINUOUS
 62
     7
 10
169.6205804456
 20
243.7483939286
 30
0.0
 40
15.0
  0
LINE
  5
E0
  8
STANDARD
  6
CONTINUOUS
 62
     7
 10
63.4716213853
 20
340.3852668383
 30
0.0
 11
63.4716213853
 21
336.6222892938
 31
0.0
  0
ARC
  5
E1
  8
STANDARD
  6
CONTINUOUS
 62
     7
 10
60.8216213853
 20
338.503778066
 30
0.0
 40
3.250000000000001
 50
35.3745904472
 51
324.6254095528
  0
CIRCLE
  5
E2
  8
STANDARD
  6
CONTINUOUS
 62
     7
 10
60.8216213853
 20
338.503778066
 30
0.0
 40
2.5
  0
LINE
  5
E3
  8
STANDARD
  6
CONTINUOUS
 62
     7
 10
271.7216213853
 20
340.3852668383
 30
0.0
 11
271.7216213853
 21
336.6222892938
 31
0.0
  0
ARC
  5
E4
  8
STANDARD
  6
CONTINUOUS
 62
     7
 10
269.0716213853
 20
338.503778066
 30
0.0
 40
3.250000000000001
 50
35.3745904472
 51
324.6254095528
  0
CIRCLE
  5
E5
  8
STANDARD
  6
CONTINUOUS
 62
     7
 10
269.0716213853
 20
338.503778066
 30
0.0
 40
2.5
  0
LINE
  5
E6
  8
STANDARD
  6
CONTINUOUS
 62
     7
 10
87.9716213853
 20
340.3852668383
 30
0.0
 11
87.9716213853
 21
336.6222892938
 31
0.0
  0
ARC
  5
E7
  8
STANDARD
  6
CONTINUOUS
 62
     7
 10
85.3216213853
 20
338.503778066
 30
0.0
 40
3.250000000000001
 50
35.3745904472
 51
324.6254095528
  0
CIRCLE
  5
E8
  8
STANDARD
  6
CONTINUOUS
 62
     7
 10
85.3216213853
 20
338.503778066
 30
0.0
 40
2.5
  0
LINE
  5
E9
  8
STANDARD
  6
CONTINUOUS
 62
     7
 10
259.4716213853
 20
340.3852668383
 30
0.0
 11
259.4716213853
 21
336.6222892938
 31
0.0
  0
ARC
  5
EA
  8
STANDARD
  6
CONTINUOUS
 62
     7
 10
256.8216213853
 20
338.503778066
 30
0.0
 40
3.250000000000001
 50
35.3745904472
 51
324.6254095528
  0
CIRCLE
  5
EB
  8
STANDARD
  6
CONTINUOUS
 62
     7
 10
256.8216213853
 20
338.503778066
 30
0.0
 40
2.5
  0
LINE
  5
EC
  8
STANDARD
  6
CONTINUOUS
 62
     7
 10
343.1981538862
 20
141.9298181084
 30
0.0
 11
339.7481538862
 21
143.9216765372
 31
0.0
  0
LINE
  5
ED
  8
STANDARD
  6
CONTINUOUS
 62
     7
 10
339.7481538862
 20
143.9216765372
 30
0.0
 11
336.2981538862
 21
141.9298181084
 31
0.0
  0
LINE
  5
EE
  8
STANDARD
  6
CONTINUOUS
 62
     7
 10
336.2981538862
 20
141.9298181084
 30
0.0
 11
336.2981538862
 21
137.946101251
 31
0.0
  0
LINE
  5
EF
  8
STANDARD
  6
CONTINUOUS
 62
     7
 10
336.2981538862
 20
137.946101251
 30
0.0
 11
339.7481538862
 21
135.9542428223
 31
0.0
  0
LINE
  5
F0
  8
STANDARD
  6
CONTINUOUS
 62
     7
 10
339.7481538862
 20
135.9542428223
 30
0.0
 11
343.1981538862
 21
137.946101251
 31
0.0
  0
LINE
  5
F1
  8
STANDARD
  6
CONTINUOUS
 62
     7
 10
343.1981538862
 20
137.946101251
 30
0.0
 11
343.1981538862
 21
141.9298181084
 31
0.0
  0
LINE
  5
F2
  8
STANDARD
  6
CONTINUOUS
 62
     7
 10
261.1737672685
 20
141.9298181084
 30
0.0
 11
257.7237672685
 21
143.9216765372
 31
0.0
  0
LINE
  5
F3
  8
STANDARD
  6
CONTINUOUS
 62
     7
 10
257.7237672685
 20
143.9216765372
 30
0.0
 11
254.2737672685
 21
141.9298181084
 31
0.0
  0
LINE
  5
F4
  8
STANDARD
  6
CONTINUOUS
 62
     7
 10
254.2737672685
 20
141.9298181084
 30
0.0
 11
254.2737672685
 21
137.946101251
 31
0.0
  0
LINE
  5
F5
  8
STANDARD
  6
CONTINUOUS
 62
     7
 10
254.2737672685
 20
137.946101251
 30
0.0
 11
257.7237672685
 21
135.9542428223
 31
0.0
  0
LINE
  5
F6
  8
STANDARD
  6
CONTINUOUS
 62
     7
 10
257.7237672685
 20
135.9542428223
 30
0.0
 11
261.1737672685
 21
137.946101251
 31
0.0
  0
LINE
  5
F7
  8
STANDARD
  6
CONTINUOUS
 62
     7
 10
261.1737672685
 20
137.946101251
 30
0.0
 11
261.1737672685
 21
141.9298181084
 31
0.0
  0
LINE
  5
F8
  8
STANDARD
  6
CONTINUOUS
 62
     7
 10
302.1859605774
 20
42.9176247996
 30
0.0
 11
298.7359605774
 21
44.9094832283
 31
0.0
  0
LINE
  5
F9
  8
STANDARD
  6
CONTINUOUS
 62
     7
 10
298.7359605774
 20
44.9094832283
 30
0.0
 11
295.2859605774
 21
42.9176247996
 31
0.0
  0
LINE
  5
FA
  8
STANDARD
  6
CONTINUOUS
 62
     7
 10
295.2859605774
 20
42.9176247996
 30
0.0
 11
295.2859605774
 21
38.9339079422
 31
0.0
  0
LINE
  5
FB
  8
STANDARD
  6
CONTINUOUS
 62
     7
 10
295.2859605774
 20
38.9339079422
 30
0.0
 11
298.7359605774
 21
36.9420495135
 31
0.0
  0
LINE
  5
FC
  8
STANDARD
  6
CONTINUOUS
 62
     7
 10
298.7359605774
 20
36.9420495135
 30
0.0
 11
302.1859605774
 21
38.9339079422
 31
0.0
  0
LINE
  5
FD
  8
STANDARD
  6
CONTINUOUS
 62
     7
 10
302.1859605774
 20
38.9339079422
 30
0.0
 11
302.1859605774
 21
42.9176247996
 31
0.0
  0
LINE
  5
FE
  8
STANDARD
  6
CONTINUOUS
 62
     7
 10
100.2216213853
 20
340.3852668383
 30
0.0
 11
100.2216213853
 21
336.6222892938
 31
0.0
  0
ARC
  5
FF
  8
STANDARD
  6
CONTINUOUS
 62
     7
 10
97.5716213853
 20
338.503778066
 30
0.0
 40
3.250000000000001
 50
35.3745904472
 51
324.6254095528
  0
CIRCLE
  5
100
  8
STANDARD
  6
CONTINUOUS
 62
     7
 10
97.5716213853
 20
338.503778066
 30
0.0
 40
2.5
  0
LINE
  5
101
  8
STANDARD
  6
CONTINUOUS
 62
     7
 10
283.9716213853
 20
340.3852668383
 30
0.0
 11
283.9716213853
 21
336.6222892938
 31
0.0
  0
ARC
  5
102
  8
STANDARD
  6
CONTINUOUS
 62
     7
 10
281.3216213853
 20
338.503778066
 30
0.0
 40
3.250000000000001
 50
35.3745904472
 51
324.6254095528
  0
CIRCLE
  5
103
  8
STANDARD
  6
CONTINUOUS
 62
     7
 10
281.3216213853
 20
338.503778066
 30
0.0
 40
2.5
  0
LINE
  5
104
  8
STANDARD
  6
CONTINUOUS
 62
     7
 10
185.9716213853
 20
340.3852668383
 30
0.0
 11
185.9716213853
 21
336.6222892938
 31
0.0
  0
ARC
  5
105
  8
STANDARD
  6
CONTINUOUS
 62
     7
 10
183.3216213853
 20
338.503778066
 30
0.0
 40
3.250000000000001
 50
35.3745904472
 51
324.6254095528
  0
CIRCLE
  5
106
  8
STANDARD
  6
CONTINUOUS
 62
     7
 10
183.3216213853
 20
338.503778066
 30
0.0
 40
2.5
  0
LINE
  5
107
  8
STANDARD
  6
CONTINUOUS
 62
     7
 10
320.7216213853
 20
340.3852668383
 30
0.0
 11
320.7216213853
 21
336.6222892938
 31
0.0
  0
ARC
  5
108
  8
STANDARD
  6
CONTINUOUS
 62
     7
 10
318.0716213853
 20
338.503778066
 30
0.0
 40
3.250000000000001
 50
35.3745904472
 51
324.6254095528
  0
CIRCLE
  5
109
  8
STANDARD
  6
CONTINUOUS
 62
     7
 10
318.0716213853
 20
338.503778066
 30
0.0
 40
2.5
  0
LINE
  5
10A
  8
STANDARD
  6
CONTINUOUS
 62
     7
 10
308.4716213853
 20
340.3852668383
 30
0.0
 11
308.4716213853
 21
336.6222892938
 31
0.0
  0
ARC
  5
10B
  8
STANDARD
  6
CONTINUOUS
 62
     7
 10
305.8216213853
 20
338.503778066
 30
0.0
 40
3.250000000000001
 50
35.3745904472
 51
324.6254095528
  0
CIRCLE
  5
10C
  8
STANDARD
  6
CONTINUOUS
 62
     7
 10
305.8216213853
 20
338.503778066
 30
0.0
 40
2.5
  0
LINE
  5
10D
  8
STANDARD
  6
CONTINUOUS
 62
     7
 10
210.4716213853
 20
340.3852668383
 30
0.0
 11
210.4716213853
 21
336.6222892938
 31
0.0
  0
ARC
  5
10E
  8
STANDARD
  6
CONTINUOUS
 62
     7
 10
207.8216213853
 20
338.503778066
 30
0.0
 40
3.250000000000001
 50
35.3745904472
 51
324.6254095528
  0
CIRCLE
  5
10F
  8
STANDARD
  6
CONTINUOUS
 62
     7
 10
207.8216213853
 20
338.503778066
 30
0.0
 40
2.5
  0
LINE
  5
110
  8
STANDARD
  6
CONTINUOUS
 62
     7
 10
198.2216213853
 20
340.3852668383
 30
0.0
 11
198.2216213853
 21
336.6222892938
 31
0.0
  0
ARC
  5
111
  8
STANDARD
  6
CONTINUOUS
 62
     7
 10
195.5716213853
 20
338.503778066
 30
0.0
 40
3.250000000000001
 50
35.3745904472
 51
324.6254095528
  0
CIRCLE
  5
112
  8
STANDARD
  6
CONTINUOUS
 62
     7
 10
195.5716213853
 20
338.503778066
 30
0.0
 40
2.5
  0
LINE
  5
113
  8
STANDARD
  6
CONTINUOUS
 62
     7
 10
247.2216213853
 20
340.3852668383
 30
0.0
 11
247.2216213853
 21
336.6222892938
 31
0.0
  0
ARC
  5
114
  8
STANDARD
  6
CONTINUOUS
 62
     7
 10
244.5716213853
 20
338.503778066
 30
0.0
 40
3.250000000000001
 50
35.3745904472
 51
324.6254095528
  0
CIRCLE
  5
115
  8
STANDARD
  6
CONTINUOUS
 62
     7
 10
244.5716213853
 20
338.503778066
 30
0.0
 40
2.5
  0
LINE
  5
116
  8
STANDARD
  6
CONTINUOUS
 62
     7
 10
149.2216213853
 20
340.3852668383
 30
0.0
 11
149.2216213853
 21
336.6222892938
 31
0.0
  0
ARC
  5
117
  8
STANDARD
  6
CONTINUOUS
 62
     7
 10
146.5716213853
 20
338.503778066
 30
0.0
 40
3.250000000000001
 50
35.3745904472
 51
324.6254095528
  0
CIRCLE
  5
118
  8
STANDARD
  6
CONTINUOUS
 62
     7
 10
146.5716213853
 20
338.503778066
 30
0.0
 40
2.5
  0
LINE
  5
119
  8
STANDARD
  6
CONTINUOUS
 62
     7
 10
38.9716213853
 20
340.3852668383
 30
0.0
 11
38.9716213853
 21
336.6222892938
 31
0.0
  0
ARC
  5
11A
  8
STANDARD
  6
CONTINUOUS
 62
     7
 10
36.3216213853
 20
338.503778066
 30
0.0
 40
3.250000000000001
 50
35.3745904472
 51
324.6254095528
  0
CIRCLE
  5
11B
  8
STANDARD
  6
CONTINUOUS
 62
     7
 10
36.3216213853
 20
338.503778066
 30
0.0
 40
2.5
  0
LINE
  5
11C
  8
STANDARD
  6
CONTINUOUS
 62
     7
 10
295.9859605843
 20
300.7230448191
 30
0.0
 11
295.9859605843
 21
298.1230448191
 31
0.0
  0
CIRCLE
  5
11D
  8
STANDARD
  6
CONTINUOUS
 62
     7
 10
299.4859605843
 20
246.2730448191
 30
0.0
 40
70.0
  0
LINE
  5
11E
  8
STANDARD
  6
CONTINUOUS
 62
     7
 10
313.2359605843
 20
274.7730448191
 30
0.0
 11
313.2359605843
 21
287.7730448191
 31
0.0
  0
LINE
  5
11F
  8
STANDARD
  6
CONTINUOUS
 62
     7
 10
285.7359605843
 20
287.7730448191
 30
0.0
 11
285.7359605843
 21
274.7730448191
 31
0.0
  0
LINE
  5
120
  8
STANDARD
  6
CONTINUOUS
 62
     7
 10
285.7359605843
 20
274.7730448191
 30
0.0
 11
292.2359605843
 21
274.7730448191
 31
0.0
  0
LINE
  5
121
  8
STANDARD
  6
CONTINUOUS
 62
     7
 10
292.2359605843
 20
287.7730448191
 30
0.0
 11
285.7359605843
 21
287.7730448191
 31
0.0
  0
LINE
  5
122
  8
STANDARD
  6
CONTINUOUS
 62
     7
 10
285.7359605843
 20
287.7730448191
 30
0.0
 11
285.7359605843
 21
274.7730448191
 31
0.0
  0
LINE
  5
123
  8
STANDARD
  6
CONTINUOUS
 62
     7
 10
306.7359605843
 20
287.7730448191
 30
0.0
 11
313.2359605843
 21
287.7730448191
 31
0.0
  0
LINE
  5
124
  8
STANDARD
  6
CONTINUOUS
 62
     7
 10
306.7359605843
 20
274.7730448191
 30
0.0
 11
313.2359605843
 21
274.7730448191
 31
0.0
  0
LINE
  5
125
  8
STANDARD
  6
CONTINUOUS
 62
     7
 10
292.2359605843
 20
287.7730448191
 30
0.0
 11
292.2359605843
 21
274.7730448191
 31
0.0
  0
LINE
  5
126
  8
STANDARD
  6
CONTINUOUS
 62
     7
 10
306.7359605843
 20
274.7730448191
 30
0.0
 11
306.7359605843
 21
287.7730448191
 31
0.0
  0
LINE
  5
127
  8
STANDARD
  6
CONTINUOUS
 62
     7
 10
301.8859605843
 20
207.7730448191
 30
0.0
 11
311.0859605843
 21
207.7730448191
 31
0.0
  0
LINE
  5
128
  8
STANDARD
  6
CONTINUOUS
 62
     7
 10
311.0859605843
 20
213.2730448191
 30
0.0
 11
311.0859605843
 21
214.7730448191
 31
0.0
  0
LINE
  5
129
  8
STANDARD
  6
CONTINUOUS
 62
     7
 10
297.0859605843
 20
214.7730448191
 30
0.0
 11
287.8859605843
 21
214.7730448191
 31
0.0
  0
LINE
  5
12A
  8
STANDARD
  6
CONTINUOUS
 62
     7
 10
287.8859605843
 20
209.2730448191
 30
0.0
 11
287.8859605843
 21
207.7730448191
 31
0.0
  0
LINE
  5
12B
  8
STANDARD
  6
CONTINUOUS
 62
     7
 10
297.0859605843
 20
216.1230448191
 30
0.0
 11
301.8859605843
 21
216.1230448191
 31
0.0
  0
LINE
  5
12C
  8
STANDARD
  6
CONTINUOUS
 62
     7
 10
301.8859605843
 20
207.7730448191
 30
0.0
 11
301.8859605843
 21
206.4230448191
 31
0.0
  0
LINE
  5
12D
  8
STANDARD
  6
CONTINUOUS
 62
     7
 10
301.8859605843
 20
206.4230448191
 30
0.0
 11
297.0859605843
 21
206.4230448191
 31
0.0
  0
LINE
  5
12E
  8
STANDARD
  6
CONTINUOUS
 62
     7
 10
297.0859605843
 20
214.7730448191
 30
0.0
 11
297.0859605843
 21
216.1230448191
 31
0.0
  0
LINE
  5
12F
  8
STANDARD
  6
CONTINUOUS
 62
     7
 10
311.0859605843
 20
214.7730448191
 30
0.0
 11
301.8859605843
 21
214.7730448191
 31
0.0
  0
LINE
  5
130
  8
STANDARD
  6
CONTINUOUS
 62
     7
 10
301.8859605843
 20
216.1230448191
 30
0.0
 11
301.8859605843
 21
214.7730448191
 31
0.0
  0
LINE
  5
131
  8
STANDARD
  6
CONTINUOUS
 62
     7
 10
287.8859605843
 20
207.7730448191
 30
0.0
 11
297.0859605843
 21
207.7730448191
 31
0.0
  0
LINE
  5
132
  8
STANDARD
  6
CONTINUOUS
 62
     7
 10
297.0859605843
 20
206.4230448191
 30
0.0
 11
297.0859605843
 21
207.7730448191
 31
0.0
  0
LINE
  5
133
  8
STANDARD
  6
CONTINUOUS
 62
     7
 10
295.9859605843
 20
298.1230448191
 30
0.0
 11
302.9859605843
 21
298.1230448191
 31
0.0
  0
LINE
  5
134
  8
STANDARD
  6
CONTINUOUS
 62
     7
 10
302.9859605843
 20
298.1230448191
 30
0.0
 11
302.9859605843
 21
300.7230448191
 31
0.0
  0
LINE
  5
135
  8
STANDARD
  6
CONTINUOUS
 62
     7
 10
302.9859605843
 20
300.7230448191
 30
0.0
 11
295.9859605843
 21
300.7230448191
 31
0.0
  0
LINE
  5
136
  8
STANDARD
  6
CONTINUOUS
 62
     7
 10
287.8859605843
 20
214.7730448191
 30
0.0
 11
287.8859605843
 21
213.2730448191
 31
0.0
  0
LINE
  5
137
  8
STANDARD
  6
CONTINUOUS
 62
     7
 10
311.0859605843
 20
207.7730448191
 30
0.0
 11
311.0859605843
 21
209.2730448191
 31
0.0
  0
LINE
  5
138
  8
STANDARD
  6
CONTINUOUS
 62
     7
 10
287.8859605843
 20
213.2730448191
 30
0.0
 11
287.8859605843
 21
209.2730448191
 31
0.0
  0
LINE
  5
139
  8
STANDARD
  6
CONTINUOUS
 62
     7
 10
311.0859605843
 20
213.2730448191
 30
0.0
 11
311.0859605843
 21
209.2730448191
 31
0.0
  0
CIRCLE
  5
13A
  8
STANDARD
  6
CONTINUOUS
 62
     7
 10
258.4737672755
 20
287.2852381279
 30
0.0
 40
2.0
  0
CIRCLE
  5
13B
  8
STANDARD
  6
CONTINUOUS
 62
     7
 10
340.4981538931
 20
287.2852381279
 30
0.0
 40
2.0
  0
CIRCLE
  5
13C
  8
STANDARD
  6
CONTINUOUS
 62
     7
 10
299.4859605843
 20
188.2730448191
 30
0.0
 40
2.0
  0
LINE
  5
13D
  8
STANDARD
  6
CONTINUOUS
 62
     7
 10
146.1244478041
 20
202.2455509059
 30
0.0
 11
148.6244478041
 21
202.2455509059
 31
0.0
  0
CIRCLE
  5
13E
  8
STANDARD
  6
CONTINUOUS
 62
     7
 10
147.3744478041
 20
92.7604339679
 30
0.0
 40
2.0
  0
CIRCLE
  5
13F
  8
STANDARD
  6
CONTINUOUS
 62
     7
 10
147.3744478041
 20
150.7604339679
 30
0.0
 40
52.5
  0
LINE
  5
140
  8
STANDARD
  6
CONTINUOUS
 62
     7
 10
146.1244478041
 20
221.2604339817
 30
0.0
 11
148.6244478041
 21
221.2604339817
 31
0.0
  0
LINE
  5
141
  8
STANDARD
  6
CONTINUOUS
 62
     7
 10
146.1244478041
 20
202.2455509059
 30
0.0
 11
146.1244478041
 21
221.2604339817
 31
0.0
  0
LINE
  5
142
  8
STANDARD
  6
CONTINUOUS
 62
     7
 10
148.6244478041
 20
221.2604339817
 30
0.0
 11
148.6244478041
 21
202.2455509059
 31
0.0
  0
CIRCLE
  5
143
  8
STANDARD
  6
CONTINUOUS
 62
     7
 10
106.3622544953
 20
191.7726272767
 30
0.0
 40
2.0
  0
CIRCLE
  5
144
  8
STANDARD
  6
CONTINUOUS
 62
     7
 10
188.386641113
 20
191.7726272767
 30
0.0
 40
2.0
  0
CIRCLE
  5
145
  8
STANDARD
  6
CONTINUOUS
 62
     7
 10
147.3744478041
 20
150.7604339679
 30
0.0
 40
70.0
  0
ARC
  5
146
  8
STANDARD
  6
CONTINUOUS
 62
     7
 10
127.6703865143
 20
301.0162035255
 30
0.0
 40
18.75
 50
288.5896362614
 51
296.4103637386
  0
ARC
  5
147
  8
STANDARD
  6
CONTINUOUS
 62
     7
 10
127.6703865143
 20
301.0162035255
 30
0.0
 40
18.75
 50
18.5896362614
 51
26.4103637386
  0
ARC
  5
148
  8
STANDARD
  6
CONTINUOUS
 62
     7
 10
127.6703865143
 20
301.0162035255
 30
0.0
 40
18.75
 50
63.5896362614
 51
71.4103637386
  0
ARC
  5
149
  8
STANDARD
  6
CONTINUOUS
 62
     7
 10
127.6703865143
 20
301.0162035255
 30
0.0
 40
18.75
 50
108.5896362614
 51
116.4103637386
  0
ARC
  5
14A
  8
STANDARD
  6
CONTINUOUS
 62
     7
 10
127.6703865143
 20
301.0162035255
 30
0.0
 40
18.75
 50
153.5896362614
 51
161.4103637386
  0
ARC
  5
14B
  8
STANDARD
  6
CONTINUOUS
 62
     7
 10
127.6703865143
 20
301.0162035255
 30
0.0
 40
18.75
 50
198.5896362614
 51
206.4103637386
  0
ARC
  5
14C
  8
STANDARD
  6
CONTINUOUS
 62
     7
 10
127.6703865143
 20
301.0162035255
 30
0.0
 40
18.75
 50
243.5896362614
 51
251.4103637386
  0
ARC
  5
14D
  8
STANDARD
  6
CONTINUOUS
 62
     7
 10
127.6703865143
 20
301.0162035255
 30
0.0
 40
18.75
 50
333.5896362614
 51
341.4103637386
  0
ARC
  5
14E
  8
STANDARD
  6
CONTINUOUS
 62
     7
 10
144.0203865375
 20
295.5171127604
 30
0.0
 40
1.499999999998045
 50
341.4103637386
 51
41.8018435518
  0
ARC
  5
14F
  8
STANDARD
  6
CONTINUOUS
 62
     7
 10
144.0203865375
 20
306.5152942906
 30
0.0
 40
1.49999999999999
 50
318.1981564482
 51
18.5896362614
  0
ARC
  5
150
  8
STANDARD
  6
CONTINUOUS
 62
     7
 10
150.170386599
 20
301.0162035255
 30
0.0
 40
6.750000000000001
 50
138.1981564482
 51
221.8018435518
  0
ARC
  5
151
  8
STANDARD
  6
CONTINUOUS
 62
     7
 10
143.1200267735
 20
308.6889550439
 30
0.0
 40
1.499999999998045
 50
26.4103637386
 51
86.8018435518
  0
ARC
  5
152
  8
STANDARD
  6
CONTINUOUS
 62
     7
 10
135.3431380327
 20
316.4658437846
 30
0.0
 40
1.49999999999999
 50
3.1981564482
 51
63.5896362614
  0
ARC
  5
153
  8
STANDARD
  6
CONTINUOUS
 62
     7
 10
143.5802891509
 20
316.9261061621
 30
0.0
 40
6.750000000000001
 50
183.1981564482
 51
266.8018435518
  0
ARC
  5
154
  8
STANDARD
  6
CONTINUOUS
 62
     7
 10
133.1694772794
 20
317.3662035486
 30
0.0
 40
1.499999999998045
 50
71.4103637386
 51
131.8018435518
  0
ARC
  5
155
  8
STANDARD
  6
CONTINUOUS
 62
     7
 10
122.1712957492
 20
317.3662035486
 30
0.0
 40
1.49999999999999
 50
48.1981564482
 51
108.5896362614
  0
ARC
  5
156
  8
STANDARD
  6
CONTINUOUS
 62
     7
 10
127.6703865143
 20
323.5162036102
 30
0.0
 40
6.750000000000001
 50
228.1981564482
 51
311.8018435518
  0
ARC
  5
157
  8
STANDARD
  6
CONTINUOUS
 62
     7
 10
119.9976349959
 20
316.4658437846
 30
0.0
 40
1.499999999998045
 50
116.4103637386
 51
176.8018435518
  0
ARC
  5
158
  8
STANDARD
  6
CONTINUOUS
 62
     7
 10
112.2207462552
 20
308.6889550439
 30
0.0
 40
1.49999999999999
 50
93.1981564482
 51
153.5896362614
  0
ARC
  5
159
  8
STANDARD
  6
CONTINUOUS
 62
     7
 10
111.7604838777
 20
316.9261061621
 30
0.0
 40
6.750000000000001
 50
273.1981564482
 51
356.8018435518
  0
ARC
  5
15A
  8
STANDARD
  6
CONTINUOUS
 62
     7
 10
111.3203864912
 20
306.5152942906
 30
0.0
 40
1.499999999998045
 50
161.4103637386
 51
221.8018435518
  0
ARC
  5
15B
  8
STANDARD
  6
CONTINUOUS
 62
     7
 10
111.3203864912
 20
295.5171127604
 30
0.0
 40
1.49999999999999
 50
138.1981564482
 51
198.5896362614
  0
ARC
  5
15C
  8
STANDARD
  6
CONTINUOUS
 62
     7
 10
105.1703864296
 20
301.0162035255
 30
0.0
 40
6.750000000000001
 50
318.1981564482
 51
41.8018435518
  0
ARC
  5
15D
  8
STANDARD
  6
CONTINUOUS
 62
     7
 10
112.2207462552
 20
293.3434520071
 30
0.0
 40
1.499999999998045
 50
206.4103637386
 51
266.8018435518
  0
ARC
  5
15E
  8
STANDARD
  6
CONTINUOUS
 62
     7
 10
119.9976349959
 20
285.5665632663
 30
0.0
 40
1.49999999999999
 50
183.1981564482
 51
243.5896362614
  0
ARC
  5
15F
  8
STANDARD
  6
CONTINUOUS
 62
     7
 10
111.7604838777
 20
285.1063008889
 30
0.0
 40
6.750000000000001
 50
3.1981564482
 51
86.8018435518
  0
ARC
  5
160
  8
STANDARD
  6
CONTINUOUS
 62
     7
 10
122.1712957492
 20
284.6662035023
 30
0.0
 40
1.499999999998045
 50
251.4103637386
 51
311.8018435518
  0
ARC
  5
161
  8
STANDARD
  6
CONTINUOUS
 62
     7
 10
133.1694772794
 20
284.6662035023
 30
0.0
 40
1.49999999999999
 50
228.1981564482
 51
288.5896362614
  0
ARC
  5
162
  8
STANDARD
  6
CONTINUOUS
 62
     7
 10
127.6703865143
 20
278.5162034408
 30
0.0
 40
6.750000000000001
 50
48.1981564482
 51
131.8018435518
  0
ARC
  5
163
  8
STANDARD
  6
CONTINUOUS
 62
     7
 10
135.3431380327
 20
285.5665632663
 30
0.0
 40
1.499999999998045
 50
296.4103637386
 51
356.8018435518
  0
ARC
  5
164
  8
STANDARD
  6
CONTINUOUS
 62
     7
 10
143.1200267735
 20
293.3434520071
 30
0.0
 40
1.49999999999999
 50
273.1981564482
 51
333.5896362614
  0
ARC
  5
165
  8
STANDARD
  6
CONTINUOUS
 62
     7
 10
143.5802891509
 20
285.1063008889
 30
0.0
 40
6.750000000000001
 50
93.1981564482
 51
176.8018435518
  0
CIRCLE
  5
166
  8
STANDARD
  6
CONTINUOUS
 62
     7
 10
127.6703865143
 20
301.0162035255
 30
0.0
 40
2.0
  0
ARC
  5
167
  8
STANDARD
  6
CONTINUOUS
 62
     7
 10
127.6703865143
 20
259.253774891
 30
0.0
 40
18.75
 50
311.0896362614
 51
318.9103637386
  0
ARC
  5
168
  8
STANDARD
  6
CONTINUOUS
 62
     7
 10
127.6703865143
 20
259.253774891
 30
0.0
 40
18.75
 50
41.0896362614
 51
48.9103637386
  0
ARC
  5
169
  8
STANDARD
  6
CONTINUOUS
 62
     7
 10
127.6703865143
 20
259.253774891
 30
0.0
 40
18.75
 50
86.0896362614
 51
93.9103637386
  0
ARC
  5
16A
  8
STANDARD
  6
CONTINUOUS
 62
     7
 10
127.6703865143
 20
259.253774891
 30
0.0
 40
18.75
 50
131.0896362614
 51
138.9103637386
  0
ARC
  5
16B
  8
STANDARD
  6
CONTINUOUS
 62
     7
 10
127.6703865143
 20
259.253774891
 30
0.0
 40
18.75
 50
176.0896362614
 51
183.9103637386
  0
ARC
  5
16C
  8
STANDARD
  6
CONTINUOUS
 62
     7
 10
127.6703865143
 20
259.253774891
 30
0.0
 40
18.75
 50
221.0896362614
 51
228.9103637386
  0
ARC
  5
16D
  8
STANDARD
  6
CONTINUOUS
 62
     7
 10
127.6703865143
 20
259.253774891
 30
0.0
 40
18.75
 50
266.0896362614
 51
273.9103637386
  0
ARC
  5
16E
  8
STANDARD
  6
CONTINUOUS
 62
     7
 10
127.6703865143
 20
259.253774891
 30
0.0
 40
18.75
 50
356.0896362614
 51
3.9103637386
  0
ARC
  5
16F
  8
STANDARD
  6
CONTINUOUS
 62
     7
 10
144.8802278211
 20
260.4301516138
 30
0.0
 40
1.499999999998045
 50
3.9103637386
 51
64.3018435518
  0
ARC
  5
170
  8
STANDARD
  6
CONTINUOUS
 62
     7
 10
140.6714059634
 20
270.5911464244
 30
0.0
 40
1.49999999999999
 50
340.6981564482
 51
41.0896362614
  0
ARC
  5
171
  8
STANDARD
  6
CONTINUOUS
 62
     7
 10
148.4576760741
 20
267.8641521517
 30
0.0
 40
6.750000000000001
 50
160.6981564482
 51
244.3018435518
  0
ARC
  5
172
  8
STANDARD
  6
CONTINUOUS
 62
     7
 10
139.0077580476
 20
272.2547943401
 30
0.0
 40
1.499999999998045
 50
48.9103637386
 51
109.3018435518
  0
ARC
  5
173
  8
STANDARD
  6
CONTINUOUS
 62
     7
 10
128.846763237
 20
276.4636161979
 30
0.0
 40
1.49999999999999
 50
25.6981564482
 51
86.0896362614
  0
ARC
  5
174
  8
STANDARD
  6
CONTINUOUS
 62
     7
 10
136.2807637749
 20
280.0410644508
 30
0.0
 40
6.750000000000001
 50
205.6981564482
 51
289.3018435518
  0
ARC
  5
175
  8
STANDARD
  6
CONTINUOUS
 62
     7
 10
126.4940097916
 20
276.4636161979
 30
0.0
 40
1.499999999998045
 50
93.9103637386
 51
154.3018435518
  0
ARC
  5
176
  8
STANDARD
  6
CONTINUOUS
 62
     7
 10
116.333014981
 20
272.2547943401
 30
0.0
 40
1.49999999999999
 50
70.6981564482
 51
131.0896362614
  0
ARC
  5
177
  8
STANDARD
  6
CONTINUOUS
 62
     7
 10
119.0600092537
 20
280.0410644508
 30
0.0
 40
6.750000000000001
 50
250.6981564482
 51
334.3018435518
  0
ARC
  5
178
  8
STANDARD
  6
CONTINUOUS
 62
     7
 10
114.6693670652
 20
270.5911464244
 30
0.0
 40
1.499999999998045
 50
138.9103637386
 51
199.3018435518
  0
ARC
  5
179
  8
STANDARD
  6
CONTINUOUS
 62
     7
 10
110.4605452075
 20
260.4301516138
 30
0.0
 40
1.49999999999999
 50
115.6981564482
 51
176.0896362614
  0
ARC
  5
17A
  8
STANDARD
  6
CONTINUOUS
 62
     7
 10
106.8830969545
 20
267.8641521517
 30
0.0
 40
6.750000000000001
 50
295.6981564482
 51
19.3018435518
  0
ARC
  5
17B
  8
STANDARD
  6
CONTINUOUS
 62
     7
 10
110.4605452075
 20
258.0773981683
 30
0.0
 40
1.499999999998045
 50
183.9103637386
 51
244.3018435518
  0
ARC
  5
17C
  8
STANDARD
  6
CONTINUOUS
 62
     7
 10
114.6693670652
 20
247.9164033577
 30
0.0
 40
1.49999999999999
 50
160.6981564482
 51
221.0896362614
  0
ARC
  5
17D
  8
STANDARD
  6
CONTINUOUS
 62
     7
 10
106.8830969545
 20
250.6433976304
 30
0.0
 40
6.750000000000001
 50
340.6981564482
 51
64.3018435518
  0
ARC
  5
17E
  8
STANDARD
  6
CONTINUOUS
 62
     7
 10
116.333014981
 20
246.252755442
 30
0.0
 40
1.499999999998045
 50
228.9103637386
 51
289.3018435518
  0
ARC
  5
17F
  8
STANDARD
  6
CONTINUOUS
 62
     7
 10
126.4940097916
 20
242.0439335842
 30
0.0
 40
1.49999999999999
 50
205.6981564482
 51
266.0896362614
  0
ARC
  5
180
  8
STANDARD
  6
CONTINUOUS
 62
     7
 10
119.0600092537
 20
238.4664853313
 30
0.0
 40
6.750000000000001
 50
25.6981564482
 51
109.3018435518
  0
ARC
  5
181
  8
STANDARD
  6
CONTINUOUS
 62
     7
 10
128.846763237
 20
242.0439335842
 30
0.0
 40
1.499999999998045
 50
273.9103637386
 51
334.3018435518
  0
ARC
  5
182
  8
STANDARD
  6
CONTINUOUS
 62
     7
 10
139.0077580476
 20
246.252755442
 30
0.0
 40
1.49999999999999
 50
250.6981564482
 51
311.0896362614
  0
ARC
  5
183
  8
STANDARD
  6
CONTINUOUS
 62
     7
 10
136.2807637749
 20
238.4664853313
 30
0.0
 40
6.750000000000001
 50
70.6981564482
 51
154.3018435518
  0
ARC
  5
184
  8
STANDARD
  6
CONTINUOUS
 62
     7
 10
140.6714059634
 20
247.9164033577
 30
0.0
 40
1.499999999998045
 50
318.9103637386
 51
19.3018435518
  0
ARC
  5
185
  8
STANDARD
  6
CONTINUOUS
 62
     7
 10
144.8802278211
 20
258.0773981683
 30
0.0
 40
1.49999999999999
 50
295.6981564482
 51
356.0896362614
  0
ARC
  5
186
  8
STANDARD
  6
CONTINUOUS
 62
     7
 10
148.4576760741
 20
250.6433976304
 30
0.0
 40
6.750000000000001
 50
115.6981564482
 51
199.3018435518
  0
CIRCLE
  5
187
  8
STANDARD
  6
CONTINUOUS
 62
     7
 10
127.6703865143
 20
259.253774891
 30
0.0
 40
2.0
  0
LINE
  5
188
  8
STANDARD
  6
CONTINUOUS
 62
     7
 10
129.662244943
 20
297.5662035255
 30
0.0
 11
131.6541033717
 21
301.0162035255
 31
0.0
  0
LINE
  5
189
  8
STANDARD
  6
CONTINUOUS
 62
     7
 10
131.6541033717
 20
301.0162035255
 30
0.0
 11
129.662244943
 21
304.4662035255
 31
0.0
  0
LINE
  5
18A
  8
STANDARD
  6
CONTINUOUS
 62
     7
 10
129.662244943
 20
304.4662035255
 30
0.0
 11
125.6785280856
 21
304.4662035255
 31
0.0
  0
LINE
  5
18B
  8
STANDARD
  6
CONTINUOUS
 62
     7
 10
125.6785280856
 20
304.4662035255
 30
0.0
 11
123.6866696569
 21
301.0162035255
 31
0.0
  0
LINE
  5
18C
  8
STANDARD
  6
CONTINUOUS
 62
     7
 10
123.6866696569
 20
301.0162035255
 30
0.0
 11
125.6785280856
 21
297.5662035255
 31
0.0
  0
LINE
  5
18D
  8
STANDARD
  6
CONTINUOUS
 62
     7
 10
125.6785280856
 20
297.5662035255
 30
0.0
 11
129.662244943
 21
297.5662035255
 31
0.0
  0
LINE
  5
18E
  8
STANDARD
  6
CONTINUOUS
 62
     7
 10
130.8308815899
 20
256.8286417242
 30
0.0
 11
131.3508609822
 21
260.7782773316
 31
0.0
  0
LINE
  5
18F
  8
STANDARD
  6
CONTINUOUS
 62
     7
 10
131.3508609822
 20
260.7782773316
 30
0.0
 11
128.1903659066
 21
263.2034104985
 31
0.0
  0
LINE
  5
190
  8
STANDARD
  6
CONTINUOUS
 62
     7
 10
128.1903659066
 20
263.2034104985
 30
0.0
 11
124.5098914387
 21
261.6789080579
 31
0.0
  0
LINE
  5
191
  8
STANDARD
  6
CONTINUOUS
 62
     7
 10
124.5098914387
 20
261.6789080579
 30
0.0
 11
123.9899120464
 21
257.7292724505
 31
0.0
  0
LINE
  5
192
  8
STANDARD
  6
CONTINUOUS
 62
     7
 10
123.9899120464
 20
257.7292724505
 30
0.0
 11
127.150407122
 21
255.3041392836
 31
0.0
  0
LINE
  5
193
  8
STANDARD
  6
CONTINUOUS
 62
     7
 10
127.150407122
 20
255.3041392836
 30
0.0
 11
130.8308815899
 21
256.8286417242
 31
0.0
  0
ARC
  5
194
  8
STANDARD
  6
CONTINUOUS
 62
     7
 10
86.6300437427
 20
259.6821330791
 30
0.0
 40
18.75
 50
288.5896362614
 51
296.4103637386
  0
ARC
  5
195
  8
STANDARD
  6
CONTINUOUS
 62
     7
 10
86.6300437427
 20
259.6821330791
 30
0.0
 40
18.75
 50
18.5896362614
 51
26.4103637386
  0
ARC
  5
196
  8
STANDARD
  6
CONTINUOUS
 62
     7
 10
86.6300437427
 20
259.6821330791
 30
0.0
 40
18.75
 50
63.5896362614
 51
71.4103637386
  0
ARC
  5
197
  8
STANDARD
  6
CONTINUOUS
 62
     7
 10
86.6300437427
 20
259.6821330791
 30
0.0
 40
18.75
 50
108.5896362614
 51
116.4103637386
  0
ARC
  5
198
  8
STANDARD
  6
CONTINUOUS
 62
     7
 10
86.6300437427
 20
259.6821330791
 30
0.0
 40
18.75
 50
153.5896362614
 51
161.4103637386
  0
ARC
  5
199
  8
STANDARD
  6
CONTINUOUS
 62
     7
 10
86.6300437427
 20
259.6821330791
 30
0.0
 40
18.75
 50
198.5896362614
 51
206.4103637386
  0
ARC
  5
19A
  8
STANDARD
  6
CONTINUOUS
 62
     7
 10
86.6300437427
 20
259.6821330791
 30
0.0
 40
18.75
 50
243.5896362614
 51
251.4103637386
  0
ARC
  5
19B
  8
STANDARD
  6
CONTINUOUS
 62
     7
 10
86.6300437427
 20
259.6821330791
 30
0.0
 40
18.75
 50
333.5896362614
 51
341.4103637386
  0
ARC
  5
19C
  8
STANDARD
  6
CONTINUOUS
 62
     7
 10
102.9800437659
 20
254.183042314
 30
0.0
 40
1.499999999998045
 50
341.4103637386
 51
41.8018435518
  0
ARC
  5
19D
  8
STANDARD
  6
CONTINUOUS
 62
     7
 10
102.9800437659
 20
265.1812238442
 30
0.0
 40
1.49999999999999
 50
318.1981564482
 51
18.5896362614
  0
ARC
  5
19E
  8
STANDARD
  6
CONTINUOUS
 62
     7
 10
109.1300438274
 20
259.6821330791
 30
0.0
 40
6.750000000000001
 50
138.1981564482
 51
221.8018435518
  0
ARC
  5
19F
  8
STANDARD
  6
CONTINUOUS
 62
     7
 10
102.0796840018
 20
267.3548845975
 30
0.0
 40
1.499999999998045
 50
26.4103637386
 51
86.8018435518
  0
ARC
  5
1A0
  8
STANDARD
  6
CONTINUOUS
 62
     7
 10
94.3027952611
 20
275.1317733382
 30
0.0
 40
1.49999999999999
 50
3.1981564482
 51
63.5896362614
  0
ARC
  5
1A1
  8
STANDARD
  6
CONTINUOUS
 62
     7
 10
102.5399463793
 20
275.5920357157
 30
0.0
 40
6.750000000000001
 50
183.1981564482
 51
266.8018435518
  0
ARC
  5
1A2
  8
STANDARD
  6
CONTINUOUS
 62
     7
 10
92.1291345078
 20
276.0321331022
 30
0.0
 40
1.499999999998045
 50
71.4103637386
 51
131.8018435518
  0
ARC
  5
1A3
  8
STANDARD
  6
CONTINUOUS
 62
     7
 10
81.1309529776
 20
276.0321331022
 30
0.0
 40
1.49999999999999
 50
48.1981564482
 51
108.5896362614
  0
ARC
  5
1A4
  8
STANDARD
  6
CONTINUOUS
 62
     7
 10
86.6300437427
 20
282.1821331638
 30
0.0
 40
6.750000000000001
 50
228.1981564482
 51
311.8018435518
  0
ARC
  5
1A5
  8
STANDARD
  6
CONTINUOUS
 62
     7
 10
78.9572922243
 20
275.1317733382
 30
0.0
 40
1.499999999998045
 50
116.4103637386
 51
176.8018435518
  0
ARC
  5
1A6
  8
STANDARD
  6
CONTINUOUS
 62
     7
 10
71.1804034836
 20
267.3548845975
 30
0.0
 40
1.49999999999999
 50
93.1981564482
 51
153.5896362614
  0
ARC
  5
1A7
  8
STANDARD
  6
CONTINUOUS
 62
     7
 10
70.7201411061
 20
275.5920357157
 30
0.0
 40
6.750000000000001
 50
273.1981564482
 51
356.8018435518
  0
ARC
  5
1A8
  8
STANDARD
  6
CONTINUOUS
 62
     7
 10
70.2800437195
 20
265.1812238442
 30
0.0
 40
1.499999999998045
 50
161.4103637386
 51
221.8018435518
  0
ARC
  5
1A9
  8
STANDARD
  6
CONTINUOUS
 62
     7
 10
70.2800437195
 20
254.183042314
 30
0.0
 40
1.49999999999999
 50
138.1981564482
 51
198.5896362614
  0
ARC
  5
1AA
  8
STANDARD
  6
CONTINUOUS
 62
     7
 10
64.130043658
 20
259.6821330791
 30
0.0
 40
6.750000000000001
 50
318.1981564482
 51
41.8018435518
  0
ARC
  5
1AB
  8
STANDARD
  6
CONTINUOUS
 62
     7
 10
71.1804034836
 20
252.0093815606
 30
0.0
 40
1.499999999998045
 50
206.4103637386
 51
266.8018435518
  0
ARC
  5
1AC
  8
STANDARD
  6
CONTINUOUS
 62
     7
 10
78.9572922243
 20
244.2324928199
 30
0.0
 40
1.49999999999999
 50
183.1981564482
 51
243.5896362614
  0
ARC
  5
1AD
  8
STANDARD
  6
CONTINUOUS
 62
     7
 10
70.7201411061
 20
243.7722304425
 30
0.0
 40
6.750000000000001
 50
3.1981564482
 51
86.8018435518
  0
ARC
  5
1AE
  8
STANDARD
  6
CONTINUOUS
 62
     7
 10
81.1309529776
 20
243.3321330559
 30
0.0
 40
1.499999999998045
 50
251.4103637386
 51
311.8018435518
  0
ARC
  5
1AF
  8
STANDARD
  6
CONTINUOUS
 62
     7
 10
92.1291345078
 20
243.3321330559
 30
0.0
 40
1.49999999999999
 50
228.1981564482
 51
288.5896362614
  0
ARC
  5
1B0
  8
STANDARD
  6
CONTINUOUS
 62
     7
 10
86.6300437427
 20
237.1821329943
 30
0.0
 40
6.750000000000001
 50
48.1981564482
 51
131.8018435518
  0
ARC
  5
1B1
  8
STANDARD
  6
CONTINUOUS
 62
     7
 10
94.3027952611
 20
244.2324928199
 30
0.0
 40
1.499999999998045
 50
296.4103637386
 51
356.8018435518
  0
ARC
  5
1B2
  8
STANDARD
  6
CONTINUOUS
 62
     7
 10
102.0796840018
 20
252.0093815606
 30
0.0
 40
1.49999999999999
 50
273.1981564482
 51
333.5896362614
  0
ARC
  5
1B3
  8
STANDARD
  6
CONTINUOUS
 62
     7
 10
102.5399463793
 20
243.7722304425
 30
0.0
 40
6.750000000000001
 50
93.1981564482
 51
176.8018435518
  0
CIRCLE
  5
1B4
  8
STANDARD
  6
CONTINUOUS
 62
     7
 10
86.6300437427
 20
259.6821330791
 30
0.0
 40
2.0
  0
ARC
  5
1B5
  8
STANDARD
  6
CONTINUOUS
 62
     7
 10
86.1127284977
 20
300.7224758507
 30
0.0
 40
18.75
 50
311.0896362614
 51
318.9103637386
  0
ARC
  5
1B6
  8
STANDARD
  6
CONTINUOUS
 62
     7
 10
86.1127284977
 20
300.7224758507
 30
0.0
 40
18.75
 50
41.0896362614
 51
48.9103637386
  0
ARC
  5
1B7
  8
STANDARD
  6
CONTINUOUS
 62
     7
 10
86.1127284977
 20
300.7224758507
 30
0.0
 40
18.75
 50
86.0896362614
 51
93.9103637386
  0
ARC
  5
1B8
  8
STANDARD
  6
CONTINUOUS
 62
     7
 10
86.1127284977
 20
300.7224758507
 30
0.0
 40
18.75
 50
131.0896362614
 51
138.9103637386
  0
ARC
  5
1B9
  8
STANDARD
  6
CONTINUOUS
 62
     7
 10
86.1127284977
 20
300.7224758507
 30
0.0
 40
18.75
 50
176.0896362614
 51
183.9103637386
  0
ARC
  5
1BA
  8
STANDARD
  6
CONTINUOUS
 62
     7
 10
86.1127284977
 20
300.7224758507
 30
0.0
 40
18.75
 50
221.0896362614
 51
228.9103637386
  0
ARC
  5
1BB
  8
STANDARD
  6
CONTINUOUS
 62
     7
 10
86.1127284977
 20
300.7224758507
 30
0.0
 40
18.75
 50
266.0896362614
 51
273.9103637386
  0
ARC
  5
1BC
  8
STANDARD
  6
CONTINUOUS
 62
     7
 10
86.1127284977
 20
300.7224758507
 30
0.0
 40
18.75
 50
356.0896362614
 51
3.9103637386
  0
ARC
  5
1BD
  8
STANDARD
  6
CONTINUOUS
 62
     7
 10
103.3225698045
 20
301.8988525734
 30
0.0
 40
1.499999999998045
 50
3.9103637386
 51
64.3018435518
  0
ARC
  5
1BE
  8
STANDARD
  6
CONTINUOUS
 62
     7
 10
99.1137479468
 20
312.059847384
 30
0.0
 40
1.49999999999999
 50
340.6981564482
 51
41.0896362614
  0
ARC
  5
1BF
  8
STANDARD
  6
CONTINUOUS
 62
     7
 10
106.9000180575
 20
309.3328531113
 30
0.0
 40
6.750000000000001
 50
160.6981564482
 51
244.3018435518
  0
ARC
  5
1C0
  8
STANDARD
  6
CONTINUOUS
 62
     7
 10
97.450100031
 20
313.7234952997
 30
0.0
 40
1.499999999998045
 50
48.9103637386
 51
109.3018435518
  0
ARC
  5
1C1
  8
STANDARD
  6
CONTINUOUS
 62
     7
 10
87.2891052204
 20
317.9323171575
 30
0.0
 40
1.49999999999999
 50
25.6981564482
 51
86.0896362614
  0
ARC
  5
1C2
  8
STANDARD
  6
CONTINUOUS
 62
     7
 10
94.7231057583
 20
321.5097654104
 30
0.0
 40
6.750000000000001
 50
205.6981564482
 51
289.3018435518
  0
ARC
  5
1C3
  8
STANDARD
  6
CONTINUOUS
 62
     7
 10
84.936351775
 20
317.9323171575
 30
0.0
 40
1.499999999998045
 50
93.9103637386
 51
154.3018435518
  0
ARC
  5
1C4
  8
STANDARD
  6
CONTINUOUS
 62
     7
 10
74.7753569644
 20
313.7234952997
 30
0.0
 40
1.49999999999999
 50
70.6981564482
 51
131.0896362614
  0
ARC
  5
1C5
  8
STANDARD
  6
CONTINUOUS
 62
     7
 10
77.5023512371
 20
321.5097654104
 30
0.0
 40
6.750000000000001
 50
250.6981564482
 51
334.3018435518
  0
ARC
  5
1C6
  8
STANDARD
  6
CONTINUOUS
 62
     7
 10
73.1117090486
 20
312.059847384
 30
0.0
 40
1.499999999998045
 50
138.9103637386
 51
199.3018435518
  0
ARC
  5
1C7
  8
STANDARD
  6
CONTINUOUS
 62
     7
 10
68.9028871909
 20
301.8988525734
 30
0.0
 40
1.49999999999999
 50
115.6981564482
 51
176.0896362614
  0
ARC
  5
1C8
  8
STANDARD
  6
CONTINUOUS
 62
     7
 10
65.3254389379
 20
309.3328531113
 30
0.0
 40
6.750000000000001
 50
295.6981564482
 51
19.3018435518
  0
ARC
  5
1C9
  8
STANDARD
  6
CONTINUOUS
 62
     7
 10
68.9028871909
 20
299.5460991279
 30
0.0
 40
1.499999999998045
 50
183.9103637386
 51
244.3018435518
  0
ARC
  5
1CA
  8
STANDARD
  6
CONTINUOUS
 62
     7
 10
73.1117090486
 20
289.3851043173
 30
0.0
 40
1.49999999999999
 50
160.6981564482
 51
221.0896362614
  0
ARC
  5
1CB
  8
STANDARD
  6
CONTINUOUS
 62
     7
 10
65.3254389379
 20
292.11209859
 30
0.0
 40
6.750000000000001
 50
340.6981564482
 51
64.3018435518
  0
ARC
  5
1CC
  8
STANDARD
  6
CONTINUOUS
 62
     7
 10
74.7753569644
 20
287.7214564016
 30
0.0
 40
1.499999999998045
 50
228.9103637386
 51
289.3018435518
  0
ARC
  5
1CD
  8
STANDARD
  6
CONTINUOUS
 62
     7
 10
84.936351775
 20
283.5126345438
 30
0.0
 40
1.49999999999999
 50
205.6981564482
 51
266.0896362614
  0
ARC
  5
1CE
  8
STANDARD
  6
CONTINUOUS
 62
     7
 10
77.5023512371
 20
279.9351862909
 30
0.0
 40
6.750000000000001
 50
25.6981564482
 51
109.3018435518
  0
ARC
  5
1CF
  8
STANDARD
  6
CONTINUOUS
 62
     7
 10
87.2891052204
 20
283.5126345438
 30
0.0
 40
1.499999999998045
 50
273.9103637386
 51
334.3018435518
  0
ARC
  5
1D0
  8
STANDARD
  6
CONTINUOUS
 62
     7
 10
97.450100031
 20
287.7214564016
 30
0.0
 40
1.49999999999999
 50
250.6981564482
 51
311.0896362614
  0
ARC
  5
1D1
  8
STANDARD
  6
CONTINUOUS
 62
     7
 10
94.7231057583
 20
279.9351862909
 30
0.0
 40
6.750000000000001
 50
70.6981564482
 51
154.3018435518
  0
ARC
  5
1D2
  8
STANDARD
  6
CONTINUOUS
 62
     7
 10
99.1137479468
 20
289.3851043173
 30
0.0
 40
1.499999999998045
 50
318.9103637386
 51
19.3018435518
  0
ARC
  5
1D3
  8
STANDARD
  6
CONTINUOUS
 62
     7
 10
103.3225698045
 20
299.5460991279
 30
0.0
 40
1.49999999999999
 50
295.6981564482
 51
356.0896362614
  0
ARC
  5
1D4
  8
STANDARD
  6
CONTINUOUS
 62
     7
 10
106.9000180575
 20
292.11209859
 30
0.0
 40
6.750000000000001
 50
115.6981564482
 51
199.3018435518
  0
CIRCLE
  5
1D5
  8
STANDARD
  6
CONTINUOUS
 62
     7
 10
86.1127284977
 20
300.7224758507
 30
0.0
 40
2.0
  0
LINE
  5
1D6
  8
STANDARD
  6
CONTINUOUS
 62
     7
 10
89.2732235733
 20
298.2973426838
 30
0.0
 11
89.7932029656
 21
302.2469782912
 31
0.0
  0
LINE
  5
1D7
  8
STANDARD
  6
CONTINUOUS
 62
     7
 10
89.7932029656
 20
302.2469782912
 30
0.0
 11
86.63270789
 21
304.6721114581
 31
0.0
  0
LINE
  5
1D8
  8
STANDARD
  6
CONTINUOUS
 62
     7
 10
86.63270789
 20
304.6721114581
 30
0.0
 11
82.9522334221
 21
303.1476090176
 31
0.0
  0
LINE
  5
1D9
  8
STANDARD
  6
CONTINUOUS
 62
     7
 10
82.9522334221
 20
303.1476090176
 30
0.0
 11
82.4322540298
 21
299.1979734101
 31
0.0
  0
LINE
  5
1DA
  8
STANDARD
  6
CONTINUOUS
 62
     7
 10
82.4322540298
 20
299.1979734101
 30
0.0
 11
85.5927491054
 21
296.7728402432
 31
0.0
  0
LINE
  5
1DB
  8
STANDARD
  6
CONTINUOUS
 62
     7
 10
85.5927491054
 20
296.7728402432
 30
0.0
 11
89.2732235733
 21
298.2973426838
 31
0.0
  0
LINE
  5
1DC
  8
STANDARD
  6
CONTINUOUS
 62
     7
 10
88.6219021714
 20
256.2321330791
 30
0.0
 11
90.6137606001
 21
259.6821330791
 31
0.0
  0
LINE
  5
1DD
  8
STANDARD
  6
CONTINUOUS
 62
     7
 10
90.6137606001
 20
259.6821330791
 30
0.0
 11
88.6219021714
 21
263.1321330791
 31
0.0
  0
LINE
  5
1DE
  8
STANDARD
  6
CONTINUOUS
 62
     7
 10
88.6219021714
 20
263.1321330791
 30
0.0
 11
84.638185314
 21
263.1321330791
 31
0.0
  0
LINE
  5
1DF
  8
STANDARD
  6
CONTINUOUS
 62
     7
 10
84.638185314
 20
263.1321330791
 30
0.0
 11
82.6463268853
 21
259.6821330791
 31
0.0
  0
LINE
  5
1E0
  8
STANDARD
  6
CONTINUOUS
 62
     7
 10
82.6463268853
 20
259.6821330791
 30
0.0
 11
84.638185314
 21
256.2321330791
 31
0.0
  0
LINE
  5
1E1
  8
STANDARD
  6
CONTINUOUS
 62
     7
 10
84.638185314
 20
256.2321330791
 30
0.0
 11
88.6219021714
 21
256.2321330791
 31
0.0
  0
ARC
  5
1E2
  8
STANDARD
  6
CONTINUOUS
 62
     7
 10
44.7860344941
 20
259.5388195123
 30
0.0
 40
18.75
 50
311.0896362614
 51
318.9103637386
  0
ARC
  5
1E3
  8
STANDARD
  6
CONTINUOUS
 62
     7
 10
44.7860344941
 20
259.5388195123
 30
0.0
 40
18.75
 50
41.0896362614
 51
48.9103637386
  0
ARC
  5
1E4
  8
STANDARD
  6
CONTINUOUS
 62
     7
 10
44.7860344941
 20
259.5388195123
 30
0.0
 40
18.75
 50
86.0896362614
 51
93.9103637386
  0
ARC
  5
1E5
  8
STANDARD
  6
CONTINUOUS
 62
     7
 10
44.7860344941
 20
259.5388195123
 30
0.0
 40
18.75
 50
131.0896362614
 51
138.9103637386
  0
ARC
  5
1E6
  8
STANDARD
  6
CONTINUOUS
 62
     7
 10
44.7860344941
 20
259.5388195123
 30
0.0
 40
18.75
 50
176.0896362614
 51
183.9103637386
  0
ARC
  5
1E7
  8
STANDARD
  6
CONTINUOUS
 62
     7
 10
44.7860344941
 20
259.5388195123
 30
0.0
 40
18.75
 50
221.0896362614
 51
228.9103637386
  0
ARC
  5
1E8
  8
STANDARD
  6
CONTINUOUS
 62
     7
 10
44.7860344941
 20
259.5388195123
 30
0.0
 40
18.75
 50
266.0896362614
 51
273.9103637386
  0
ARC
  5
1E9
  8
STANDARD
  6
CONTINUOUS
 62
     7
 10
44.7860344941
 20
259.5388195123
 30
0.0
 40
18.75
 50
356.0896362614
 51
3.9103637386
  0
ARC
  5
1EA
  8
STANDARD
  6
CONTINUOUS
 62
     7
 10
61.9958758009
 20
260.7151962351
 30
0.0
 40
1.499999999998045
 50
3.9103637386
 51
64.3018435518
  0
ARC
  5
1EB
  8
STANDARD
  6
CONTINUOUS
 62
     7
 10
57.7870539432
 20
270.8761910457
 30
0.0
 40
1.49999999999999
 50
340.6981564482
 51
41.0896362614
  0
ARC
  5
1EC
  8
STANDARD
  6
CONTINUOUS
 62
     7
 10
65.5733240539
 20
268.149196773
 30
0.0
 40
6.750000000000001
 50
160.6981564482
 51
244.3018435518
  0
ARC
  5
1ED
  8
STANDARD
  6
CONTINUOUS
 62
     7
 10
56.1234060274
 20
272.5398389614
 30
0.0
 40
1.499999999998045
 50
48.9103637386
 51
109.3018435518
  0
ARC
  5
1EE
  8
STANDARD
  6
CONTINUOUS
 62
     7
 10
45.9624112168
 20
276.7486608192
 30
0.0
 40
1.49999999999999
 50
25.6981564482
 51
86.0896362614
  0
ARC
  5
1EF
  8
STANDARD
  6
CONTINUOUS
 62
     7
 10
53.3964117547
 20
280.3261090721
 30
0.0
 40
6.750000000000001
 50
205.6981564482
 51
289.3018435518
  0
ARC
  5
1F0
  8
STANDARD
  6
CONTINUOUS
 62
     7
 10
43.6096577714
 20
276.7486608192
 30
0.0
 40
1.499999999998045
 50
93.9103637386
 51
154.3018435518
  0
ARC
  5
1F1
  8
STANDARD
  6
CONTINUOUS
 62
     7
 10
33.4486629608
 20
272.5398389614
 30
0.0
 40
1.49999999999999
 50
70.6981564482
 51
131.0896362614
  0
ARC
  5
1F2
  8
STANDARD
  6
CONTINUOUS
 62
     7
 10
36.1756572335
 20
280.3261090721
 30
0.0
 40
6.750000000000001
 50
250.6981564482
 51
334.3018435518
  0
ARC
  5
1F3
  8
STANDARD
  6
CONTINUOUS
 62
     7
 10
31.785015045
 20
270.8761910457
 30
0.0
 40
1.499999999998045
 50
138.9103637386
 51
199.3018435518
  0
ARC
  5
1F4
  8
STANDARD
  6
CONTINUOUS
 62
     7
 10
27.5761931873
 20
260.7151962351
 30
0.0
 40
1.49999999999999
 50
115.6981564482
 51
176.0896362614
  0
ARC
  5
1F5
  8
STANDARD
  6
CONTINUOUS
 62
     7
 10
23.9987449343
 20
268.149196773
 30
0.0
 40
6.750000000000001
 50
295.6981564482
 51
19.3018435518
  0
ARC
  5
1F6
  8
STANDARD
  6
CONTINUOUS
 62
     7
 10
27.5761931873
 20
258.3624427896
 30
0.0
 40
1.499999999998045
 50
183.9103637386
 51
244.3018435518
  0
ARC
  5
1F7
  8
STANDARD
  6
CONTINUOUS
 62
     7
 10
31.785015045
 20
248.201447979
 30
0.0
 40
1.49999999999999
 50
160.6981564482
 51
221.0896362614
  0
ARC
  5
1F8
  8
STANDARD
  6
CONTINUOUS
 62
     7
 10
23.9987449343
 20
250.9284422517
 30
0.0
 40
6.750000000000001
 50
340.6981564482
 51
64.3018435518
  0
ARC
  5
1F9
  8
STANDARD
  6
CONTINUOUS
 62
     7
 10
33.4486629608
 20
246.5378000633
 30
0.0
 40
1.499999999998045
 50
228.9103637386
 51
289.3018435518
  0
ARC
  5
1FA
  8
STANDARD
  6
CONTINUOUS
 62
     7
 10
43.6096577714
 20
242.3289782055
 30
0.0
 40
1.49999999999999
 50
205.6981564482
 51
266.0896362614
  0
ARC
  5
1FB
  8
STANDARD
  6
CONTINUOUS
 62
     7
 10
36.1756572335
 20
238.7515299526
 30
0.0
 40
6.750000000000001
 50
25.6981564482
 51
109.3018435518
  0
ARC
  5
1FC
  8
STANDARD
  6
CONTINUOUS
 62
     7
 10
45.9624112168
 20
242.3289782055
 30
0.0
 40
1.499999999998045
 50
273.9103637386
 51
334.3018435518
  0
ARC
  5
1FD
  8
STANDARD
  6
CONTINUOUS
 62
     7
 10
56.1234060274
 20
246.5378000633
 30
0.0
 40
1.49999999999999
 50
250.6981564482
 51
311.0896362614
  0
ARC
  5
1FE
  8
STANDARD
  6
CONTINUOUS
 62
     7
 10
53.3964117547
 20
238.7515299526
 30
0.0
 40
6.750000000000001
 50
70.6981564482
 51
154.3018435518
  0
ARC
  5
1FF
  8
STANDARD
  6
CONTINUOUS
 62
     7
 10
57.7870539432
 20
248.201447979
 30
0.0
 40
1.499999999998045
 50
318.9103637386
 51
19.3018435518
  0
ARC
  5
200
  8
STANDARD
  6
CONTINUOUS
 62
     7
 10
61.9958758009
 20
258.3624427896
 30
0.0
 40
1.49999999999999
 50
295.6981564482
 51
356.0896362614
  0
ARC
  5
201
  8
STANDARD
  6
CONTINUOUS
 62
     7
 10
65.5733240539
 20
250.9284422517
 30
0.0
 40
6.750000000000001
 50
115.6981564482
 51
199.3018435518
  0
CIRCLE
  5
202
  8
STANDARD
  6
CONTINUOUS
 62
     7
 10
44.7860344941
 20
259.5388195123
 30
0.0
 40
2.0
  0
LINE
  5
203
  8
STANDARD
  6
CONTINUOUS
 62
     7
 10
47.9465295697
 20
257.1136863455
 30
0.0
 11
48.466508962
 21
261.0633219529
 31
0.0
  0
LINE
  5
204
  8
STANDARD
  6
CONTINUOUS
 62
     7
 10
48.466508962
 20
261.0633219529
 30
0.0
 11
45.3060138864
 21
263.4884551198
 31
0.0
  0
LINE
  5
205
  8
STANDARD
  6
CONTINUOUS
 62
     7
 10
45.3060138864
 20
263.4884551198
 30
0.0
 11
41.6255394185
 21
261.9639526792
 31
0.0
  0
LINE
  5
206
  8
STANDARD
  6
CONTINUOUS
 62
     7
 10
41.6255394185
 20
261.9639526792
 30
0.0
 11
41.1055600262
 21
258.0143170718
 31
0.0
  0
LINE
  5
207
  8
STANDARD
  6
CONTINUOUS
 62
     7
 10
41.1055600262
 20
258.0143170718
 30
0.0
 11
44.2660551018
 21
255.5891839049
 31
0.0
  0
LINE
  5
208
  8
STANDARD
  6
CONTINUOUS
 62
     7
 10
44.2660551018
 20
255.5891839049
 30
0.0
 11
47.9465295697
 21
257.1136863455
 31
0.0
  0
ARC
  5
209
  8
STANDARD
  6
CONTINUOUS
 62
     7
 10
44.7860344941
 20
301.3012481468
 30
0.0
 40
18.75
 50
288.5896362614
 51
296.4103637386
  0
ARC
  5
20A
  8
STANDARD
  6
CONTINUOUS
 62
     7
 10
44.7860344941
 20
301.3012481468
 30
0.0
 40
18.75
 50
18.5896362614
 51
26.4103637386
  0
ARC
  5
20B
  8
STANDARD
  6
CONTINUOUS
 62
     7
 10
44.7860344941
 20
301.3012481468
 30
0.0
 40
18.75
 50
63.5896362614
 51
71.4103637386
  0
ARC
  5
20C
  8
STANDARD
  6
CONTINUOUS
 62
     7
 10
44.7860344941
 20
301.3012481468
 30
0.0
 40
18.75
 50
108.5896362614
 51
116.4103637386
  0
ARC
  5
20D
  8
STANDARD
  6
CONTINUOUS
 62
     7
 10
44.7860344941
 20
301.3012481468
 30
0.0
 40
18.75
 50
153.5896362614
 51
161.4103637386
  0
ARC
  5
20E
  8
STANDARD
  6
CONTINUOUS
 62
     7
 10
44.7860344941
 20
301.3012481468
 30
0.0
 40
18.75
 50
198.5896362614
 51
206.4103637386
  0
ARC
  5
20F
  8
STANDARD
  6
CONTINUOUS
 62
     7
 10
44.7860344941
 20
301.3012481468
 30
0.0
 40
18.75
 50
243.5896362614
 51
251.4103637386
  0
ARC
  5
210
  8
STANDARD
  6
CONTINUOUS
 62
     7
 10
44.7860344941
 20
301.3012481468
 30
0.0
 40
18.75
 50
333.5896362614
 51
341.4103637386
  0
ARC
  5
211
  8
STANDARD
  6
CONTINUOUS
 62
     7
 10
61.1360345173
 20
295.8021573817
 30
0.0
 40
1.499999999998045
 50
341.4103637386
 51
41.8018435518
  0
ARC
  5
212
  8
STANDARD
  6
CONTINUOUS
 62
     7
 10
61.1360345173
 20
306.8003389119
 30
0.0
 40
1.49999999999999
 50
318.1981564482
 51
18.5896362614
  0
ARC
  5
213
  8
STANDARD
  6
CONTINUOUS
 62
     7
 10
67.2860345788
 20
301.3012481468
 30
0.0
 40
6.750000000000001
 50
138.1981564482
 51
221.8018435518
  0
ARC
  5
214
  8
STANDARD
  6
CONTINUOUS
 62
     7
 10
60.2356747533
 20
308.9739996652
 30
0.0
 40
1.499999999998045
 50
26.4103637386
 51
86.8018435518
  0
ARC
  5
215
  8
STANDARD
  6
CONTINUOUS
 62
     7
 10
52.4587860125
 20
316.7508884059
 30
0.0
 40
1.49999999999999
 50
3.1981564482
 51
63.5896362614
  0
ARC
  5
216
  8
STANDARD
  6
CONTINUOUS
 62
     7
 10
60.6959371307
 20
317.2111507834
 30
0.0
 40
6.750000000000001
 50
183.1981564482
 51
266.8018435518
  0
ARC
  5
217
  8
STANDARD
  6
CONTINUOUS
 62
     7
 10
50.2851252592
 20
317.65124817
 30
0.0
 40
1.499999999998045
 50
71.4103637386
 51
131.8018435518
  0
ARC
  5
218
  8
STANDARD
  6
CONTINUOUS
 62
     7
 10
39.286943729
 20
317.65124817
 30
0.0
 40
1.49999999999999
 50
48.1981564482
 51
108.5896362614
  0
ARC
  5
219
  8
STANDARD
  6
CONTINUOUS
 62
     7
 10
44.7860344941
 20
323.8012482315
 30
0.0
 40
6.750000000000001
 50
228.1981564482
 51
311.8018435518
  0
ARC
  5
21A
  8
STANDARD
  6
CONTINUOUS
 62
     7
 10
37.1132829757
 20
316.7508884059
 30
0.0
 40
1.499999999998045
 50
116.4103637386
 51
176.8018435518
  0
ARC
  5
21B
  8
STANDARD
  6
CONTINUOUS
 62
     7
 10
29.336394235
 20
308.9739996652
 30
0.0
 40
1.49999999999999
 50
93.1981564482
 51
153.5896362614
  0
ARC
  5
21C
  8
STANDARD
  6
CONTINUOUS
 62
     7
 10
28.8761318575
 20
317.2111507834
 30
0.0
 40
6.750000000000001
 50
273.1981564482
 51
356.8018435518
  0
ARC
  5
21D
  8
STANDARD
  6
CONTINUOUS
 62
     7
 10
28.436034471
 20
306.8003389119
 30
0.0
 40
1.499999999998045
 50
161.4103637386
 51
221.8018435518
  0
ARC
  5
21E
  8
STANDARD
  6
CONTINUOUS
 62
     7
 10
28.436034471
 20
295.8021573817
 30
0.0
 40
1.49999999999999
 50
138.1981564482
 51
198.5896362614
  0
ARC
  5
21F
  8
STANDARD
  6
CONTINUOUS
 62
     7
 10
22.2860344094
 20
301.3012481468
 30
0.0
 40
6.750000000000001
 50
318.1981564482
 51
41.8018435518
  0
ARC
  5
220
  8
STANDARD
  6
CONTINUOUS
 62
     7
 10
29.336394235
 20
293.6284966284
 30
0.0
 40
1.499999999998045
 50
206.4103637386
 51
266.8018435518
  0
ARC
  5
221
  8
STANDARD
  6
CONTINUOUS
 62
     7
 10
37.1132829757
 20
285.8516078877
 30
0.0
 40
1.49999999999999
 50
183.1981564482
 51
243.5896362614
  0
ARC
  5
222
  8
STANDARD
  6
CONTINUOUS
 62
     7
 10
28.8761318575
 20
285.3913455102
 30
0.0
 40
6.750000000000001
 50
3.1981564482
 51
86.8018435518
  0
ARC
  5
223
  8
STANDARD
  6
CONTINUOUS
 62
     7
 10
39.286943729
 20
284.9512481236
 30
0.0
 40
1.499999999998045
 50
251.4103637386
 51
311.8018435518
  0
ARC
  5
224
  8
STANDARD
  6
CONTINUOUS
 62
     7
 10
50.2851252592
 20
284.9512481236
 30
0.0
 40
1.49999999999999
 50
228.1981564482
 51
288.5896362614
  0
ARC
  5
225
  8
STANDARD
  6
CONTINUOUS
 62
     7
 10
44.7860344941
 20
278.8012480621
 30
0.0
 40
6.750000000000001
 50
48.1981564482
 51
131.8018435518
  0
ARC
  5
226
  8
STANDARD
  6
CONTINUOUS
 62
     7
 10
52.4587860125
 20
285.8516078877
 30
0.0
 40
1.499999999998045
 50
296.4103637386
 51
356.8018435518
  0
ARC
  5
227
  8
STANDARD
  6
CONTINUOUS
 62
     7
 10
60.2356747533
 20
293.6284966284
 30
0.0
 40
1.49999999999999
 50
273.1981564482
 51
333.5896362614
  0
ARC
  5
228
  8
STANDARD
  6
CONTINUOUS
 62
     7
 10
60.6959371307
 20
285.3913455102
 30
0.0
 40
6.750000000000001
 50
93.1981564482
 51
176.8018435518
  0
CIRCLE
  5
229
  8
STANDARD
  6
CONTINUOUS
 62
     7
 10
44.7860344941
 20
301.3012481468
 30
0.0
 40
2.0
  0
LINE
  5
22A
  8
STANDARD
  6
CONTINUOUS
 62
     7
 10
46.7778929228
 20
297.8512481468
 30
0.0
 11
48.7697513515
 21
301.3012481468
 31
0.0
  0
LINE
  5
22B
  8
STANDARD
  6
CONTINUOUS
 62
     7
 10
48.7697513515
 20
301.3012481468
 30
0.0
 11
46.7778929228
 21
304.7512481468
 31
0.0
  0
LINE
  5
22C
  8
STANDARD
  6
CONTINUOUS
 62
     7
 10
46.7778929228
 20
304.7512481468
 30
0.0
 11
42.7941760654
 21
304.7512481468
 31
0.0
  0
LINE
  5
22D
  8
STANDARD
  6
CONTINUOUS
 62
     7
 10
42.7941760654
 20
304.7512481468
 30
0.0
 11
40.8023176367
 21
301.3012481468
 31
0.0
  0
LINE
  5
22E
  8
STANDARD
  6
CONTINUOUS
 62
     7
 10
40.8023176367
 20
301.3012481468
 30
0.0
 11
42.7941760654
 21
297.8512481468
 31
0.0
  0
LINE
  5
22F
  8
STANDARD
  6
CONTINUOUS
 62
     7
 10
42.7941760654
 20
297.8512481468
 30
0.0
 11
46.7778929228
 21
297.8512481468
 31
0.0
  0
CIRCLE
  5
230
  8
STANDARD
  6
CONTINUOUS
 62
     7
 10
298.7359605774
 20
40.9257663709
 30
0.0
 40
2.0
  0
CIRCLE
  5
231
  8
STANDARD
  6
CONTINUOUS
 62
     7
 10
257.7237672685
 20
139.9379596797
 30
0.0
 40
2.0
  0
CIRCLE
  5
232
  8
STANDARD
  6
CONTINUOUS
 62
     7
 10
298.7359605774
 20
98.9257663709
 30
0.0
 40
70.0
  0
CIRCLE
  5
233
  8
STANDARD
  6
CONTINUOUS
 62
     7
 10
339.7481538862
 20
139.9379596797
 30
0.0
 40
2.0
  0
ENDSEC
  0
EOF
