<?xml version="1.0" encoding="utf-8"?>
<!-- Generator: Adobe Illustrator 19.0.0, SVG Export Plug-In . SVG Version: 6.00 Build 0)  -->
<svg version="1.1" id="Default" xmlns="http://www.w3.org/2000/svg" xmlns:xlink="http://www.w3.org/1999/xlink" x="0px" y="0px"
	 width="1417.323px" height="992.126px" viewBox="0 0 1417.323 992.126" style="enable-background:new 0 0 1417.323 992.126;"
	 xml:space="preserve">
<style type="text/css">
	.st0{fill:#FFFFFF;stroke:#000000;stroke-linecap:round;stroke-linejoin:round;stroke-miterlimit:10;}
</style>
<polyline class="st0" points="646.659,849.19 646.659,679.111 646.659,849.19 385.872,849.19 385.872,679.111 367.447,679.111 
	367.447,867.615 665.084,867.615 665.084,679.111 646.659,679.111 "/>
<polyline class="st0" points="349.021,660.686 349.021,830.765 349.021,660.686 609.809,660.686 609.809,830.765 628.234,830.765 
	628.234,642.261 330.596,642.261 330.596,830.765 349.021,830.765 "/>
<polyline class="st0" points="312.171,884.623 482.25,884.623 312.171,884.623 312.171,623.835 482.25,623.835 482.25,605.41 
	293.746,605.41 293.746,903.048 482.25,903.048 482.25,884.623 "/>
<polyline class="st0" points="683.51,625.253 513.431,625.253 683.51,625.253 683.51,886.04 513.431,886.04 513.431,904.465 
	701.935,904.465 701.935,606.828 513.431,606.828 513.431,625.253 "/>
<polyline class="st0" points="1068.637,849.19 1068.637,679.111 1068.637,849.19 807.85,849.19 807.85,679.111 789.425,679.111 
	789.425,867.615 1087.062,867.615 1087.062,679.111 1068.637,679.111 "/>
<polyline class="st0" points="770.999,660.686 770.999,830.765 770.999,660.686 1031.787,660.686 1031.787,830.765 
	1050.212,830.765 1050.212,642.261 752.574,642.261 752.574,830.765 770.999,830.765 "/>
<polyline class="st0" points="734.149,884.623 904.228,884.623 734.149,884.623 734.149,623.835 904.228,623.835 904.228,605.41 
	715.724,605.41 715.724,903.048 904.228,903.048 904.228,884.623 "/>
<polyline class="st0" points="1105.488,625.253 935.409,625.253 1105.488,625.253 1105.488,886.04 935.409,886.04 935.409,904.465 
	1123.913,904.465 1123.913,606.828 935.409,606.828 935.409,625.253 "/>
<polyline class="st0" points="646.659,534.904 646.659,364.825 646.659,534.904 385.872,534.904 385.872,364.825 367.447,364.825 
	367.447,553.329 665.084,553.329 665.084,364.825 646.659,364.825 "/>
<polyline class="st0" points="349.021,346.4 349.021,516.479 349.021,346.4 609.809,346.4 609.809,516.479 628.234,516.479 
	628.234,327.975 330.596,327.975 330.596,516.479 349.021,516.479 "/>
<polyline class="st0" points="312.171,570.337 482.25,570.337 312.171,570.337 312.171,309.55 482.25,309.55 482.25,291.125 
	293.746,291.125 293.746,588.762 482.25,588.762 482.25,570.337 "/>
<polyline class="st0" points="683.51,310.967 513.431,310.967 683.51,310.967 683.51,571.754 513.431,571.754 513.431,590.18 
	701.935,590.18 701.935,292.542 513.431,292.542 513.431,310.967 "/>
<polyline class="st0" points="1068.637,534.904 1068.637,364.825 1068.637,534.904 807.85,534.904 807.85,364.825 789.425,364.825 
	789.425,553.329 1087.062,553.329 1087.062,364.825 1068.637,364.825 "/>
<polyline class="st0" points="770.999,346.4 770.999,516.479 770.999,346.4 1031.787,346.4 1031.787,516.479 1050.212,516.479 
	1050.212,327.975 752.574,327.975 752.574,516.479 770.999,516.479 "/>
<polyline class="st0" points="734.149,570.337 904.228,570.337 734.149,570.337 734.149,309.55 904.228,309.55 904.228,291.125 
	715.724,291.125 715.724,588.762 904.228,588.762 904.228,570.337 "/>
<polyline class="st0" points="1105.488,310.967 935.409,310.967 1105.488,310.967 1105.488,571.754 935.409,571.754 935.409,590.18 
	1123.913,590.18 1123.913,292.542 935.409,292.542 935.409,310.967 "/>
<rect x="605.557" y="85.133" class="st0" width="297.638" height="188.504"/>
<path class="st0" d="M591.384,273.637V85.133h-49.606c-15.655,0-28.346,12.691-28.346,28.346v113.386
	c0,15.655-12.691,28.346-28.346,28.346h-85.039h85.039h-85.039c-15.655,0-28.346-12.691-28.346-28.346V113.48
	c0-15.655-12.691-28.346-28.346-28.346h-49.606v188.504H591.384z"/>
</svg>
