  0
SECTION
  2
BLOCKS
  0
ENDSEC
  0
SECTION
  2
ENTITIES
  0
LINE
  8
0
 10
-28.4904
 20
57.7873
 11
-27.9749
 21
59.5618
  0
LINE
  8
0
 10
-27.9749
 20
59.5618
 11
-27.349
 21
61.3004
  0
LINE
  8
0
 10
-27.349
 20
61.3004
 11
-26.6151
 21
62.9963
  0
LINE
  8
0
 10
-26.6151
 20
62.9963
 11
-25.7762
 21
64.6428
  0
LINE
  8
0
 10
-25.7762
 20
64.6428
 11
-24.8355
 21
66.2333
  0
LINE
  8
0
 10
-24.8355
 20
66.2333
 11
-24.5
 21
66.727
  0
LINE
  8
0
 10
-24.5
 20
66.727
 11
-24.5
 21
71.75
  0
LINE
  8
0
 10
-24.5
 20
71.75
 11
-19.0555
 21
71.75
  0
LINE
  8
0
 10
-19.0555
 20
71.75
 11
-19.0555
 21
66.75
  0
LINE
  8
0
 10
-19.0555
 20
66.75
 11
-13.6111
 21
66.75
  0
LINE
  8
0
 10
-13.6111
 20
66.75
 11
-13.6111
 21
71.75
  0
LINE
  8
0
 10
-13.6111
 20
71.75
 11
-8.16666
 21
71.75
  0
LINE
  8
0
 10
-8.16666
 20
71.75
 11
-8.16666
 21
66.75
  0
LINE
  8
0
 10
-8.16666
 20
66.75
 11
-2.7222
 21
66.75
  0
LINE
  8
0
 10
-2.7222
 20
66.75
 11
-2.7222
 21
71.75
  0
LINE
  8
0
 10
-2.7222
 20
71.75
 11
2.72221
 21
71.75
  0
LINE
  8
0
 10
2.72221
 20
71.75
 11
2.72221
 21
66.75
  0
LINE
  8
0
 10
2.72221
 20
66.75
 11
8.16666
 21
66.75
  0
LINE
  8
0
 10
8.16666
 20
66.75
 11
8.16666
 21
71.75
  0
LINE
  8
0
 10
8.16666
 20
71.75
 11
13.6111
 21
71.75
  0
LINE
  8
0
 10
13.6111
 20
71.75
 11
13.6111
 21
66.75
  0
LINE
  8
0
 10
13.6111
 20
66.75
 11
19.0555
 21
66.75
  0
LINE
  8
0
 10
19.0555
 20
66.75
 11
19.0555
 21
71.75
  0
LINE
  8
0
 10
19.0555
 20
71.75
 11
24.5
 21
71.75
  0
LINE
  8
0
 10
24.5
 20
71.75
 11
24.5
 21
66.727
  0
LINE
  8
0
 10
24.5
 20
66.727
 11
24.8355
 21
66.2333
  0
LINE
  8
0
 10
24.8355
 20
66.2333
 11
25.7762
 21
64.6428
  0
LINE
  8
0
 10
25.7762
 20
64.6428
 11
26.6151
 21
62.9963
  0
LINE
  8
0
 10
26.6151
 20
62.9963
 11
27.349
 21
61.3004
  0
LINE
  8
0
 10
27.349
 20
61.3004
 11
27.9749
 21
59.5618
  0
LINE
  8
0
 10
27.9749
 20
59.5618
 11
28.4904
 21
57.7873
  0
LINE
  8
0
 10
28.4904
 20
57.7873
 11
28.4988
 21
57.75
  0
LINE
  8
0
 10
28.4988
 20
57.75
 11
42.5
 21
57.75
  0
LINE
  8
0
 10
42.5
 20
57.75
 11
42.5
 21
74.1389
  0
LINE
  8
0
 10
42.5
 20
74.1389
 11
37.5
 21
74.1389
  0
LINE
  8
0
 10
37.5
 20
74.1389
 11
37.5
 21
79.5833
  0
LINE
  8
0
 10
37.5
 20
79.5833
 11
42.5
 21
79.5833
  0
LINE
  8
0
 10
42.5
 20
79.5833
 11
42.5
 21
85.0278
  0
LINE
  8
0
 10
42.5
 20
85.0278
 11
37.5
 21
85.0278
  0
LINE
  8
0
 10
37.5
 20
85.0278
 11
37.5
 21
90.4722
  0
LINE
  8
0
 10
37.5
 20
90.4722
 11
42.5
 21
90.4722
  0
LINE
  8
0
 10
42.5
 20
90.4722
 11
42.5
 21
95.9167
  0
LINE
  8
0
 10
42.5
 20
95.9167
 11
37.5
 21
95.9167
  0
LINE
  8
0
 10
37.5
 20
95.9167
 11
37.5
 21
101.361
  0
LINE
  8
0
 10
37.5
 20
101.361
 11
42.5
 21
101.361
  0
LINE
  8
0
 10
42.5
 20
101.361
 11
42.5
 21
117.75
  0
LINE
  8
0
 10
42.5
 20
117.75
 11
42.4954
 21
117.75
  0
LINE
  8
0
 10
42.4954
 20
117.75
 11
42.4094
 21
118.046
  0
LINE
  8
0
 10
42.4094
 20
118.046
 11
42.2168
 21
118.581
  0
LINE
  8
0
 10
42.2168
 20
118.581
 11
41.9911
 21
119.103
  0
LINE
  8
0
 10
41.9911
 20
119.103
 11
41.733
 21
119.609
  0
LINE
  8
0
 10
41.733
 20
119.609
 11
41.4437
 21
120.098
  0
LINE
  8
0
 10
41.4437
 20
120.098
 11
41.1242
 21
120.568
  0
LINE
  8
0
 10
41.1242
 20
120.568
 11
40.7758
 21
121.018
  0
LINE
  8
0
 10
40.7758
 20
121.018
 11
40.3999
 21
121.444
  0
LINE
  8
0
 10
40.3999
 20
121.444
 11
39.9979
 21
121.846
  0
LINE
  8
0
 10
39.9979
 20
121.846
 11
39.5715
 21
122.222
  0
LINE
  8
0
 10
39.5715
 20
122.222
 11
39.1224
 21
122.57
  0
LINE
  8
0
 10
39.1224
 20
122.57
 11
38.6523
 21
122.89
  0
LINE
  8
0
 10
38.6523
 20
122.89
 11
38.163
 21
123.179
  0
LINE
  8
0
 10
38.163
 20
123.179
 11
37.6565
 21
123.437
  0
LINE
  8
0
 10
37.6565
 20
123.437
 11
37.1349
 21
123.663
  0
LINE
  8
0
 10
37.1349
 20
123.663
 11
36.6
 21
123.855
  0
LINE
  8
0
 10
36.6
 20
123.855
 11
36.0542
 21
124.014
  0
LINE
  8
0
 10
36.0542
 20
124.014
 11
35.4995
 21
124.138
  0
LINE
  8
0
 10
35.4995
 20
124.138
 11
34.938
 21
124.227
  0
LINE
  8
0
 10
34.938
 20
124.227
 11
34.3721
 21
124.28
  0
LINE
  8
0
 10
34.3721
 20
124.28
 11
33.804
 21
124.298
  0
LINE
  8
0
 10
33.804
 20
124.298
 11
33.2358
 21
124.28
  0
LINE
  8
0
 10
33.2358
 20
124.28
 11
32.6699
 21
124.227
  0
LINE
  8
0
 10
32.6699
 20
124.227
 11
32.1085
 21
124.138
  0
LINE
  8
0
 10
32.1085
 20
124.138
 11
31.5538
 21
124.014
  0
LINE
  8
0
 10
31.5538
 20
124.014
 11
31.0079
 21
123.855
  0
LINE
  8
0
 10
31.0079
 20
123.855
 11
30.4731
 21
123.663
  0
LINE
  8
0
 10
30.4731
 20
123.663
 11
29.9514
 21
123.437
  0
LINE
  8
0
 10
29.9514
 20
123.437
 11
29.445
 21
123.179
  0
LINE
  8
0
 10
29.445
 20
123.179
 11
28.9557
 21
122.89
  0
LINE
  8
0
 10
28.9557
 20
122.89
 11
28.4856
 21
122.57
  0
LINE
  8
0
 10
28.4856
 20
122.57
 11
28.0364
 21
122.222
  0
LINE
  8
0
 10
28.0364
 20
122.222
 11
27.61
 21
121.846
  0
LINE
  8
0
 10
27.61
 20
121.846
 11
27.2081
 21
121.444
  0
LINE
  8
0
 10
27.2081
 20
121.444
 11
26.8322
 21
121.018
  0
LINE
  8
0
 10
26.8322
 20
121.018
 11
26.4838
 21
120.568
  0
LINE
  8
0
 10
26.4838
 20
120.568
 11
26.1643
 21
120.098
  0
LINE
  8
0
 10
26.1643
 20
120.098
 11
25.875
 21
119.609
  0
LINE
  8
0
 10
25.875
 20
119.609
 11
25.6169
 21
119.103
  0
LINE
  8
0
 10
25.6169
 20
119.103
 11
25.3911
 21
118.581
  0
LINE
  8
0
 10
25.3911
 20
118.581
 11
25.1986
 21
118.046
  0
LINE
  8
0
 10
25.1986
 20
118.046
 11
25.1126
 21
117.75
  0
LINE
  8
0
 10
25.1126
 20
117.75
 11
-42.5
 21
117.75
  0
LINE
  8
0
 10
-42.5
 20
117.75
 11
-42.5
 21
101.361
  0
LINE
  8
0
 10
-42.5
 20
101.361
 11
-37.5
 21
101.361
  0
LINE
  8
0
 10
-37.5
 20
101.361
 11
-37.5
 21
95.9167
  0
LINE
  8
0
 10
-37.5
 20
95.9167
 11
-42.5
 21
95.9167
  0
LINE
  8
0
 10
-42.5
 20
95.9167
 11
-42.5
 21
90.4722
  0
LINE
  8
0
 10
-42.5
 20
90.4722
 11
-37.5
 21
90.4722
  0
LINE
  8
0
 10
-37.5
 20
90.4722
 11
-37.5
 21
85.0278
  0
LINE
  8
0
 10
-37.5
 20
85.0278
 11
-42.5
 21
85.0278
  0
LINE
  8
0
 10
-42.5
 20
85.0278
 11
-42.5
 21
79.5833
  0
LINE
  8
0
 10
-42.5
 20
79.5833
 11
-37.5
 21
79.5833
  0
LINE
  8
0
 10
-37.5
 20
79.5833
 11
-37.5
 21
74.1389
  0
LINE
  8
0
 10
-37.5
 20
74.1389
 11
-42.5
 21
74.1389
  0
LINE
  8
0
 10
-42.5
 20
74.1389
 11
-42.5
 21
57.75
  0
LINE
  8
0
 10
-42.5
 20
57.75
 11
-28.4988
 21
57.75
  0
LINE
  8
0
 10
-28.4988
 20
57.75
 11
-28.4904
 21
57.7873
  0
LINE
  8
0
 10
33.5719
 20
111.561
 11
33.3407
 21
111.583
  0
LINE
  8
0
 10
33.3407
 20
111.583
 11
33.1114
 21
111.619
  0
LINE
  8
0
 10
33.1114
 20
111.619
 11
32.8848
 21
111.67
  0
LINE
  8
0
 10
32.8848
 20
111.67
 11
32.6618
 21
111.735
  0
LINE
  8
0
 10
32.6618
 20
111.735
 11
32.4434
 21
111.814
  0
LINE
  8
0
 10
32.4434
 20
111.814
 11
32.2303
 21
111.906
  0
LINE
  8
0
 10
32.2303
 20
111.906
 11
32.0234
 21
112.011
  0
LINE
  8
0
 10
32.0234
 20
112.011
 11
31.8236
 21
112.129
  0
LINE
  8
0
 10
31.8236
 20
112.129
 11
31.6315
 21
112.26
  0
LINE
  8
0
 10
31.6315
 20
112.26
 11
31.4481
 21
112.402
  0
LINE
  8
0
 10
31.4481
 20
112.402
 11
31.2739
 21
112.556
  0
LINE
  8
0
 10
31.2739
 20
112.556
 11
31.1097
 21
112.72
  0
LINE
  8
0
 10
31.1097
 20
112.72
 11
30.9562
 21
112.894
  0
LINE
  8
0
 10
30.9562
 20
112.894
 11
30.8138
 21
113.078
  0
LINE
  8
0
 10
30.8138
 20
113.078
 11
30.6833
 21
113.27
  0
LINE
  8
0
 10
30.6833
 20
113.27
 11
30.5651
 21
113.469
  0
LINE
  8
0
 10
30.5651
 20
113.469
 11
30.4597
 21
113.676
  0
LINE
  8
0
 10
30.4597
 20
113.676
 11
30.3675
 21
113.889
  0
LINE
  8
0
 10
30.3675
 20
113.889
 11
30.2889
 21
114.108
  0
LINE
  8
0
 10
30.2889
 20
114.108
 11
30.2241
 21
114.331
  0
LINE
  8
0
 10
30.2241
 20
114.331
 11
30.1734
 21
114.557
  0
LINE
  8
0
 10
30.1734
 20
114.557
 11
30.1371
 21
114.787
  0
LINE
  8
0
 10
30.1371
 20
114.787
 11
30.1153
 21
115.018
  0
LINE
  8
0
 10
30.1153
 20
115.018
 11
30.108
 21
115.25
  0
LINE
  8
0
 10
30.108
 20
115.25
 11
30.1153
 21
115.482
  0
LINE
  8
0
 10
30.1153
 20
115.482
 11
30.1371
 21
115.713
  0
LINE
  8
0
 10
30.1371
 20
115.713
 11
30.1734
 21
115.943
  0
LINE
  8
0
 10
30.1734
 20
115.943
 11
30.2241
 21
116.169
  0
LINE
  8
0
 10
30.2241
 20
116.169
 11
30.2889
 21
116.392
  0
LINE
  8
0
 10
30.2889
 20
116.392
 11
30.3675
 21
116.611
  0
LINE
  8
0
 10
30.3675
 20
116.611
 11
30.4597
 21
116.824
  0
LINE
  8
0
 10
30.4597
 20
116.824
 11
30.5651
 21
117.031
  0
LINE
  8
0
 10
30.5651
 20
117.031
 11
30.6833
 21
117.23
  0
LINE
  8
0
 10
30.6833
 20
117.23
 11
30.8138
 21
117.422
  0
LINE
  8
0
 10
30.8138
 20
117.422
 11
30.9562
 21
117.606
  0
LINE
  8
0
 10
30.9562
 20
117.606
 11
31.1097
 21
117.78
  0
LINE
  8
0
 10
31.1097
 20
117.78
 11
31.2739
 21
117.944
  0
LINE
  8
0
 10
31.2739
 20
117.944
 11
31.4481
 21
118.098
  0
LINE
  8
0
 10
31.4481
 20
118.098
 11
31.6315
 21
118.24
  0
LINE
  8
0
 10
31.6315
 20
118.24
 11
31.8236
 21
118.371
  0
LINE
  8
0
 10
31.8236
 20
118.371
 11
32.0234
 21
118.489
  0
LINE
  8
0
 10
32.0234
 20
118.489
 11
32.2303
 21
118.594
  0
LINE
  8
0
 10
32.2303
 20
118.594
 11
32.4434
 21
118.686
  0
LINE
  8
0
 10
32.4434
 20
118.686
 11
32.6618
 21
118.765
  0
LINE
  8
0
 10
32.6618
 20
118.765
 11
32.8848
 21
118.83
  0
LINE
  8
0
 10
32.8848
 20
118.83
 11
33.1114
 21
118.881
  0
LINE
  8
0
 10
33.1114
 20
118.881
 11
33.3407
 21
118.917
  0
LINE
  8
0
 10
33.3407
 20
118.917
 11
33.5719
 21
118.939
  0
LINE
  8
0
 10
33.5719
 20
118.939
 11
33.804
 21
118.946
  0
LINE
  8
0
 10
33.804
 20
118.946
 11
34.0361
 21
118.939
  0
LINE
  8
0
 10
34.0361
 20
118.939
 11
34.2672
 21
118.917
  0
LINE
  8
0
 10
34.2672
 20
118.917
 11
34.4966
 21
118.881
  0
LINE
  8
0
 10
34.4966
 20
118.881
 11
34.7231
 21
118.83
  0
LINE
  8
0
 10
34.7231
 20
118.83
 11
34.9461
 21
118.765
  0
LINE
  8
0
 10
34.9461
 20
118.765
 11
35.1646
 21
118.686
  0
LINE
  8
0
 10
35.1646
 20
118.686
 11
35.3777
 21
118.594
  0
LINE
  8
0
 10
35.3777
 20
118.594
 11
35.5845
 21
118.489
  0
LINE
  8
0
 10
35.5845
 20
118.489
 11
35.7844
 21
118.371
  0
LINE
  8
0
 10
35.7844
 20
118.371
 11
35.9764
 21
118.24
  0
LINE
  8
0
 10
35.9764
 20
118.24
 11
36.1599
 21
118.098
  0
LINE
  8
0
 10
36.1599
 20
118.098
 11
36.3341
 21
117.944
  0
LINE
  8
0
 10
36.3341
 20
117.944
 11
36.4983
 21
117.78
  0
LINE
  8
0
 10
36.4983
 20
117.78
 11
36.6518
 21
117.606
  0
LINE
  8
0
 10
36.6518
 20
117.606
 11
36.7941
 21
117.422
  0
LINE
  8
0
 10
36.7941
 20
117.422
 11
36.9246
 21
117.23
  0
LINE
  8
0
 10
36.9246
 20
117.23
 11
37.0428
 21
117.031
  0
LINE
  8
0
 10
37.0428
 20
117.031
 11
37.1482
 21
116.824
  0
LINE
  8
0
 10
37.1482
 20
116.824
 11
37.2404
 21
116.611
  0
LINE
  8
0
 10
37.2404
 20
116.611
 11
37.3191
 21
116.392
  0
LINE
  8
0
 10
37.3191
 20
116.392
 11
37.3839
 21
116.169
  0
LINE
  8
0
 10
37.3839
 20
116.169
 11
37.4345
 21
115.943
  0
LINE
  8
0
 10
37.4345
 20
115.943
 11
37.4709
 21
115.713
  0
LINE
  8
0
 10
37.4709
 20
115.713
 11
37.4927
 21
115.482
  0
LINE
  8
0
 10
37.4927
 20
115.482
 11
37.5
 21
115.25
  0
LINE
  8
0
 10
37.5
 20
115.25
 11
37.4927
 21
115.018
  0
LINE
  8
0
 10
37.4927
 20
115.018
 11
37.4709
 21
114.787
  0
LINE
  8
0
 10
37.4709
 20
114.787
 11
37.4345
 21
114.557
  0
LINE
  8
0
 10
37.4345
 20
114.557
 11
37.3839
 21
114.331
  0
LINE
  8
0
 10
37.3839
 20
114.331
 11
37.3191
 21
114.108
  0
LINE
  8
0
 10
37.3191
 20
114.108
 11
37.2404
 21
113.889
  0
LINE
  8
0
 10
37.2404
 20
113.889
 11
37.1482
 21
113.676
  0
LINE
  8
0
 10
37.1482
 20
113.676
 11
37.0428
 21
113.469
  0
LINE
  8
0
 10
37.0428
 20
113.469
 11
36.9246
 21
113.27
  0
LINE
  8
0
 10
36.9246
 20
113.27
 11
36.7941
 21
113.078
  0
LINE
  8
0
 10
36.7941
 20
113.078
 11
36.6518
 21
112.894
  0
LINE
  8
0
 10
36.6518
 20
112.894
 11
36.4983
 21
112.72
  0
LINE
  8
0
 10
36.4983
 20
112.72
 11
36.3341
 21
112.556
  0
LINE
  8
0
 10
36.3341
 20
112.556
 11
36.1599
 21
112.402
  0
LINE
  8
0
 10
36.1599
 20
112.402
 11
35.9764
 21
112.26
  0
LINE
  8
0
 10
35.9764
 20
112.26
 11
35.7844
 21
112.129
  0
LINE
  8
0
 10
35.7844
 20
112.129
 11
35.5845
 21
112.011
  0
LINE
  8
0
 10
35.5845
 20
112.011
 11
35.3777
 21
111.906
  0
LINE
  8
0
 10
35.3777
 20
111.906
 11
35.1646
 21
111.814
  0
LINE
  8
0
 10
35.1646
 20
111.814
 11
34.9461
 21
111.735
  0
LINE
  8
0
 10
34.9461
 20
111.735
 11
34.7231
 21
111.67
  0
LINE
  8
0
 10
34.7231
 20
111.67
 11
34.4966
 21
111.619
  0
LINE
  8
0
 10
34.4966
 20
111.619
 11
34.2672
 21
111.583
  0
LINE
  8
0
 10
34.2672
 20
111.583
 11
34.0361
 21
111.561
  0
LINE
  8
0
 10
34.0361
 20
111.561
 11
33.804
 21
111.554
  0
LINE
  8
0
 10
33.804
 20
111.554
 11
33.5719
 21
111.561
  0
LINE
  8
0
 10
60.7596
 20
57.7873
 11
61.2751
 21
59.5618
  0
LINE
  8
0
 10
61.2751
 20
59.5618
 11
61.901
 21
61.3004
  0
LINE
  8
0
 10
61.901
 20
61.3004
 11
62.6349
 21
62.9963
  0
LINE
  8
0
 10
62.6349
 20
62.9963
 11
63.4738
 21
64.6428
  0
LINE
  8
0
 10
63.4738
 20
64.6428
 11
64.4145
 21
66.2333
  0
LINE
  8
0
 10
64.4145
 20
66.2333
 11
64.75
 21
66.727
  0
LINE
  8
0
 10
64.75
 20
66.727
 11
64.75
 21
71.75
  0
LINE
  8
0
 10
64.75
 20
71.75
 11
70.1945
 21
71.75
  0
LINE
  8
0
 10
70.1945
 20
71.75
 11
70.1945
 21
66.75
  0
LINE
  8
0
 10
70.1945
 20
66.75
 11
75.6389
 21
66.75
  0
LINE
  8
0
 10
75.6389
 20
66.75
 11
75.6389
 21
71.75
  0
LINE
  8
0
 10
75.6389
 20
71.75
 11
81.0833
 21
71.75
  0
LINE
  8
0
 10
81.0833
 20
71.75
 11
81.0833
 21
66.75
  0
LINE
  8
0
 10
81.0833
 20
66.75
 11
86.5278
 21
66.75
  0
LINE
  8
0
 10
86.5278
 20
66.75
 11
86.5278
 21
71.75
  0
LINE
  8
0
 10
86.5278
 20
71.75
 11
91.9722
 21
71.75
  0
LINE
  8
0
 10
91.9722
 20
71.75
 11
91.9722
 21
66.75
  0
LINE
  8
0
 10
91.9722
 20
66.75
 11
97.4167
 21
66.75
  0
LINE
  8
0
 10
97.4167
 20
66.75
 11
97.4167
 21
71.75
  0
LINE
  8
0
 10
97.4167
 20
71.75
 11
102.861
 21
71.75
  0
LINE
  8
0
 10
102.861
 20
71.75
 11
102.861
 21
66.75
  0
LINE
  8
0
 10
102.861
 20
66.75
 11
108.306
 21
66.75
  0
LINE
  8
0
 10
108.306
 20
66.75
 11
108.306
 21
71.75
  0
LINE
  8
0
 10
108.306
 20
71.75
 11
113.75
 21
71.75
  0
LINE
  8
0
 10
113.75
 20
71.75
 11
113.75
 21
66.727
  0
LINE
  8
0
 10
113.75
 20
66.727
 11
114.086
 21
66.2333
  0
LINE
  8
0
 10
114.086
 20
66.2333
 11
115.026
 21
64.6428
  0
LINE
  8
0
 10
115.026
 20
64.6428
 11
115.865
 21
62.9963
  0
LINE
  8
0
 10
115.865
 20
62.9963
 11
116.599
 21
61.3004
  0
LINE
  8
0
 10
116.599
 20
61.3004
 11
117.225
 21
59.5618
  0
LINE
  8
0
 10
117.225
 20
59.5618
 11
117.74
 21
57.7873
  0
LINE
  8
0
 10
117.74
 20
57.7873
 11
117.749
 21
57.75
  0
LINE
  8
0
 10
117.749
 20
57.75
 11
131.75
 21
57.75
  0
LINE
  8
0
 10
131.75
 20
57.75
 11
131.75
 21
74.1389
  0
LINE
  8
0
 10
131.75
 20
74.1389
 11
126.75
 21
74.1389
  0
LINE
  8
0
 10
126.75
 20
74.1389
 11
126.75
 21
79.5833
  0
LINE
  8
0
 10
126.75
 20
79.5833
 11
131.75
 21
79.5833
  0
LINE
  8
0
 10
131.75
 20
79.5833
 11
131.75
 21
85.0278
  0
LINE
  8
0
 10
131.75
 20
85.0278
 11
126.75
 21
85.0278
  0
LINE
  8
0
 10
126.75
 20
85.0278
 11
126.75
 21
90.4722
  0
LINE
  8
0
 10
126.75
 20
90.4722
 11
131.75
 21
90.4722
  0
LINE
  8
0
 10
131.75
 20
90.4722
 11
131.75
 21
95.9167
  0
LINE
  8
0
 10
131.75
 20
95.9167
 11
126.75
 21
95.9167
  0
LINE
  8
0
 10
126.75
 20
95.9167
 11
126.75
 21
101.361
  0
LINE
  8
0
 10
126.75
 20
101.361
 11
131.75
 21
101.361
  0
LINE
  8
0
 10
131.75
 20
101.361
 11
131.75
 21
117.75
  0
LINE
  8
0
 10
131.75
 20
117.75
 11
64.1374
 21
117.75
  0
LINE
  8
0
 10
64.1374
 20
117.75
 11
64.0514
 21
118.046
  0
LINE
  8
0
 10
64.0514
 20
118.046
 11
63.8589
 21
118.581
  0
LINE
  8
0
 10
63.8589
 20
118.581
 11
63.6331
 21
119.103
  0
LINE
  8
0
 10
63.6331
 20
119.103
 11
63.375
 21
119.609
  0
LINE
  8
0
 10
63.375
 20
119.609
 11
63.0857
 21
120.098
  0
LINE
  8
0
 10
63.0857
 20
120.098
 11
62.7662
 21
120.568
  0
LINE
  8
0
 10
62.7662
 20
120.568
 11
62.4178
 21
121.018
  0
LINE
  8
0
 10
62.4178
 20
121.018
 11
62.0419
 21
121.444
  0
LINE
  8
0
 10
62.0419
 20
121.444
 11
61.64
 21
121.846
  0
LINE
  8
0
 10
61.64
 20
121.846
 11
61.2136
 21
122.222
  0
LINE
  8
0
 10
61.2136
 20
122.222
 11
60.7644
 21
122.57
  0
LINE
  8
0
 10
60.7644
 20
122.57
 11
60.2943
 21
122.89
  0
LINE
  8
0
 10
60.2943
 20
122.89
 11
59.805
 21
123.179
  0
LINE
  8
0
 10
59.805
 20
123.179
 11
59.2986
 21
123.437
  0
LINE
  8
0
 10
59.2986
 20
123.437
 11
58.7769
 21
123.663
  0
LINE
  8
0
 10
58.7769
 20
123.663
 11
58.2421
 21
123.855
  0
LINE
  8
0
 10
58.2421
 20
123.855
 11
57.6962
 21
124.014
  0
LINE
  8
0
 10
57.6962
 20
124.014
 11
57.1415
 21
124.138
  0
LINE
  8
0
 10
57.1415
 20
124.138
 11
56.5801
 21
124.227
  0
LINE
  8
0
 10
56.5801
 20
124.227
 11
56.0142
 21
124.28
  0
LINE
  8
0
 10
56.0142
 20
124.28
 11
55.446
 21
124.298
  0
LINE
  8
0
 10
55.446
 20
124.298
 11
54.8779
 21
124.28
  0
LINE
  8
0
 10
54.8779
 20
124.28
 11
54.312
 21
124.227
  0
LINE
  8
0
 10
54.312
 20
124.227
 11
53.7505
 21
124.138
  0
LINE
  8
0
 10
53.7505
 20
124.138
 11
53.1958
 21
124.014
  0
LINE
  8
0
 10
53.1958
 20
124.014
 11
52.65
 21
123.855
  0
LINE
  8
0
 10
52.65
 20
123.855
 11
52.1151
 21
123.663
  0
LINE
  8
0
 10
52.1151
 20
123.663
 11
51.5935
 21
123.437
  0
LINE
  8
0
 10
51.5935
 20
123.437
 11
51.087
 21
123.179
  0
LINE
  8
0
 10
51.087
 20
123.179
 11
50.5977
 21
122.89
  0
LINE
  8
0
 10
50.5977
 20
122.89
 11
50.1276
 21
122.57
  0
LINE
  8
0
 10
50.1276
 20
122.57
 11
49.6785
 21
122.222
  0
LINE
  8
0
 10
49.6785
 20
122.222
 11
49.2521
 21
121.846
  0
LINE
  8
0
 10
49.2521
 20
121.846
 11
48.8501
 21
121.444
  0
LINE
  8
0
 10
48.8501
 20
121.444
 11
48.4742
 21
121.018
  0
LINE
  8
0
 10
48.4742
 20
121.018
 11
48.1258
 21
120.568
  0
LINE
  8
0
 10
48.1258
 20
120.568
 11
47.8063
 21
120.098
  0
LINE
  8
0
 10
47.8063
 20
120.098
 11
47.517
 21
119.609
  0
LINE
  8
0
 10
47.517
 20
119.609
 11
47.2589
 21
119.103
  0
LINE
  8
0
 10
47.2589
 20
119.103
 11
47.0332
 21
118.581
  0
LINE
  8
0
 10
47.0332
 20
118.581
 11
46.8406
 21
118.046
  0
LINE
  8
0
 10
46.8406
 20
118.046
 11
46.7546
 21
117.75
  0
LINE
  8
0
 10
46.7546
 20
117.75
 11
46.75
 21
117.75
  0
LINE
  8
0
 10
46.75
 20
117.75
 11
46.75
 21
117.734
  0
LINE
  8
0
 10
46.75
 20
117.734
 11
46.6821
 21
117.5
  0
LINE
  8
0
 10
46.6821
 20
117.5
 11
46.558
 21
116.945
  0
LINE
  8
0
 10
46.558
 20
116.945
 11
46.4691
 21
116.384
  0
LINE
  8
0
 10
46.4691
 20
116.384
 11
46.4156
 21
115.818
  0
LINE
  8
0
 10
46.4156
 20
115.818
 11
46.3978
 21
115.25
  0
LINE
  8
0
 10
46.3978
 20
115.25
 11
46.4156
 21
114.682
  0
LINE
  8
0
 10
46.4156
 20
114.682
 11
46.4691
 21
114.116
  0
LINE
  8
0
 10
46.4691
 20
114.116
 11
46.558
 21
113.555
  0
LINE
  8
0
 10
46.558
 20
113.555
 11
46.6821
 21
113
  0
LINE
  8
0
 10
46.6821
 20
113
 11
46.75
 21
112.766
  0
LINE
  8
0
 10
46.75
 20
112.766
 11
46.75
 21
101.361
  0
LINE
  8
0
 10
46.75
 20
101.361
 11
51.75
 21
101.361
  0
LINE
  8
0
 10
51.75
 20
101.361
 11
51.75
 21
95.9167
  0
LINE
  8
0
 10
51.75
 20
95.9167
 11
46.75
 21
95.9167
  0
LINE
  8
0
 10
46.75
 20
95.9167
 11
46.75
 21
90.4722
  0
LINE
  8
0
 10
46.75
 20
90.4722
 11
51.75
 21
90.4722
  0
LINE
  8
0
 10
51.75
 20
90.4722
 11
51.75
 21
85.0278
  0
LINE
  8
0
 10
51.75
 20
85.0278
 11
46.75
 21
85.0278
  0
LINE
  8
0
 10
46.75
 20
85.0278
 11
46.75
 21
79.5833
  0
LINE
  8
0
 10
46.75
 20
79.5833
 11
51.75
 21
79.5833
  0
LINE
  8
0
 10
51.75
 20
79.5833
 11
51.75
 21
74.1389
  0
LINE
  8
0
 10
51.75
 20
74.1389
 11
46.75
 21
74.1389
  0
LINE
  8
0
 10
46.75
 20
74.1389
 11
46.75
 21
57.75
  0
LINE
  8
0
 10
46.75
 20
57.75
 11
60.7512
 21
57.75
  0
LINE
  8
0
 10
60.7512
 20
57.75
 11
60.7596
 21
57.7873
  0
LINE
  8
0
 10
55.2139
 20
111.561
 11
54.9828
 21
111.583
  0
LINE
  8
0
 10
54.9828
 20
111.583
 11
54.7534
 21
111.619
  0
LINE
  8
0
 10
54.7534
 20
111.619
 11
54.5269
 21
111.67
  0
LINE
  8
0
 10
54.5269
 20
111.67
 11
54.3039
 21
111.735
  0
LINE
  8
0
 10
54.3039
 20
111.735
 11
54.0854
 21
111.814
  0
LINE
  8
0
 10
54.0854
 20
111.814
 11
53.8723
 21
111.906
  0
LINE
  8
0
 10
53.8723
 20
111.906
 11
53.6655
 21
112.011
  0
LINE
  8
0
 10
53.6655
 20
112.011
 11
53.4656
 21
112.129
  0
LINE
  8
0
 10
53.4656
 20
112.129
 11
53.2736
 21
112.26
  0
LINE
  8
0
 10
53.2736
 20
112.26
 11
53.0901
 21
112.402
  0
LINE
  8
0
 10
53.0901
 20
112.402
 11
52.9159
 21
112.556
  0
LINE
  8
0
 10
52.9159
 20
112.556
 11
52.7517
 21
112.72
  0
LINE
  8
0
 10
52.7517
 20
112.72
 11
52.5982
 21
112.894
  0
LINE
  8
0
 10
52.5982
 20
112.894
 11
52.4559
 21
113.078
  0
LINE
  8
0
 10
52.4559
 20
113.078
 11
52.3254
 21
113.27
  0
LINE
  8
0
 10
52.3254
 20
113.27
 11
52.2072
 21
113.469
  0
LINE
  8
0
 10
52.2072
 20
113.469
 11
52.1018
 21
113.676
  0
LINE
  8
0
 10
52.1018
 20
113.676
 11
52.0096
 21
113.889
  0
LINE
  8
0
 10
52.0096
 20
113.889
 11
51.9309
 21
114.108
  0
LINE
  8
0
 10
51.9309
 20
114.108
 11
51.8661
 21
114.331
  0
LINE
  8
0
 10
51.8661
 20
114.331
 11
51.8155
 21
114.557
  0
LINE
  8
0
 10
51.8155
 20
114.557
 11
51.7791
 21
114.787
  0
LINE
  8
0
 10
51.7791
 20
114.787
 11
51.7573
 21
115.018
  0
LINE
  8
0
 10
51.7573
 20
115.018
 11
51.75
 21
115.25
  0
LINE
  8
0
 10
51.75
 20
115.25
 11
51.7573
 21
115.482
  0
LINE
  8
0
 10
51.7573
 20
115.482
 11
51.7791
 21
115.713
  0
LINE
  8
0
 10
51.7791
 20
115.713
 11
51.8155
 21
115.943
  0
LINE
  8
0
 10
51.8155
 20
115.943
 11
51.8661
 21
116.169
  0
LINE
  8
0
 10
51.8661
 20
116.169
 11
51.9309
 21
116.392
  0
LINE
  8
0
 10
51.9309
 20
116.392
 11
52.0096
 21
116.611
  0
LINE
  8
0
 10
52.0096
 20
116.611
 11
52.1018
 21
116.824
  0
LINE
  8
0
 10
52.1018
 20
116.824
 11
52.2072
 21
117.031
  0
LINE
  8
0
 10
52.2072
 20
117.031
 11
52.3254
 21
117.23
  0
LINE
  8
0
 10
52.3254
 20
117.23
 11
52.4559
 21
117.422
  0
LINE
  8
0
 10
52.4559
 20
117.422
 11
52.5982
 21
117.606
  0
LINE
  8
0
 10
52.5982
 20
117.606
 11
52.7517
 21
117.78
  0
LINE
  8
0
 10
52.7517
 20
117.78
 11
52.9159
 21
117.944
  0
LINE
  8
0
 10
52.9159
 20
117.944
 11
53.0901
 21
118.098
  0
LINE
  8
0
 10
53.0901
 20
118.098
 11
53.2736
 21
118.24
  0
LINE
  8
0
 10
53.2736
 20
118.24
 11
53.4656
 21
118.371
  0
LINE
  8
0
 10
53.4656
 20
118.371
 11
53.6655
 21
118.489
  0
LINE
  8
0
 10
53.6655
 20
118.489
 11
53.8723
 21
118.594
  0
LINE
  8
0
 10
53.8723
 20
118.594
 11
54.0854
 21
118.686
  0
LINE
  8
0
 10
54.0854
 20
118.686
 11
54.3039
 21
118.765
  0
LINE
  8
0
 10
54.3039
 20
118.765
 11
54.5269
 21
118.83
  0
LINE
  8
0
 10
54.5269
 20
118.83
 11
54.7534
 21
118.881
  0
LINE
  8
0
 10
54.7534
 20
118.881
 11
54.9828
 21
118.917
  0
LINE
  8
0
 10
54.9828
 20
118.917
 11
55.2139
 21
118.939
  0
LINE
  8
0
 10
55.2139
 20
118.939
 11
55.446
 21
118.946
  0
LINE
  8
0
 10
55.446
 20
118.946
 11
55.6781
 21
118.939
  0
LINE
  8
0
 10
55.6781
 20
118.939
 11
55.9093
 21
118.917
  0
LINE
  8
0
 10
55.9093
 20
118.917
 11
56.1386
 21
118.881
  0
LINE
  8
0
 10
56.1386
 20
118.881
 11
56.3652
 21
118.83
  0
LINE
  8
0
 10
56.3652
 20
118.83
 11
56.5882
 21
118.765
  0
LINE
  8
0
 10
56.5882
 20
118.765
 11
56.8066
 21
118.686
  0
LINE
  8
0
 10
56.8066
 20
118.686
 11
57.0197
 21
118.594
  0
LINE
  8
0
 10
57.0197
 20
118.594
 11
57.2266
 21
118.489
  0
LINE
  8
0
 10
57.2266
 20
118.489
 11
57.4264
 21
118.371
  0
LINE
  8
0
 10
57.4264
 20
118.371
 11
57.6185
 21
118.24
  0
LINE
  8
0
 10
57.6185
 20
118.24
 11
57.8019
 21
118.098
  0
LINE
  8
0
 10
57.8019
 20
118.098
 11
57.9761
 21
117.944
  0
LINE
  8
0
 10
57.9761
 20
117.944
 11
58.1403
 21
117.78
  0
LINE
  8
0
 10
58.1403
 20
117.78
 11
58.2938
 21
117.606
  0
LINE
  8
0
 10
58.2938
 20
117.606
 11
58.4362
 21
117.422
  0
LINE
  8
0
 10
58.4362
 20
117.422
 11
58.5667
 21
117.23
  0
LINE
  8
0
 10
58.5667
 20
117.23
 11
58.6849
 21
117.031
  0
LINE
  8
0
 10
58.6849
 20
117.031
 11
58.7903
 21
116.824
  0
LINE
  8
0
 10
58.7903
 20
116.824
 11
58.8825
 21
116.611
  0
LINE
  8
0
 10
58.8825
 20
116.611
 11
58.9611
 21
116.392
  0
LINE
  8
0
 10
58.9611
 20
116.392
 11
59.0259
 21
116.169
  0
LINE
  8
0
 10
59.0259
 20
116.169
 11
59.0766
 21
115.943
  0
LINE
  8
0
 10
59.0766
 20
115.943
 11
59.1129
 21
115.713
  0
LINE
  8
0
 10
59.1129
 20
115.713
 11
59.1347
 21
115.482
  0
LINE
  8
0
 10
59.1347
 20
115.482
 11
59.142
 21
115.25
  0
LINE
  8
0
 10
59.142
 20
115.25
 11
59.1347
 21
115.018
  0
LINE
  8
0
 10
59.1347
 20
115.018
 11
59.1129
 21
114.787
  0
LINE
  8
0
 10
59.1129
 20
114.787
 11
59.0766
 21
114.557
  0
LINE
  8
0
 10
59.0766
 20
114.557
 11
59.0259
 21
114.331
  0
LINE
  8
0
 10
59.0259
 20
114.331
 11
58.9611
 21
114.108
  0
LINE
  8
0
 10
58.9611
 20
114.108
 11
58.8825
 21
113.889
  0
LINE
  8
0
 10
58.8825
 20
113.889
 11
58.7903
 21
113.676
  0
LINE
  8
0
 10
58.7903
 20
113.676
 11
58.6849
 21
113.469
  0
LINE
  8
0
 10
58.6849
 20
113.469
 11
58.5667
 21
113.27
  0
LINE
  8
0
 10
58.5667
 20
113.27
 11
58.4362
 21
113.078
  0
LINE
  8
0
 10
58.4362
 20
113.078
 11
58.2938
 21
112.894
  0
LINE
  8
0
 10
58.2938
 20
112.894
 11
58.1403
 21
112.72
  0
LINE
  8
0
 10
58.1403
 20
112.72
 11
57.9761
 21
112.556
  0
LINE
  8
0
 10
57.9761
 20
112.556
 11
57.8019
 21
112.402
  0
LINE
  8
0
 10
57.8019
 20
112.402
 11
57.6185
 21
112.26
  0
LINE
  8
0
 10
57.6185
 20
112.26
 11
57.4264
 21
112.129
  0
LINE
  8
0
 10
57.4264
 20
112.129
 11
57.2266
 21
112.011
  0
LINE
  8
0
 10
57.2266
 20
112.011
 11
57.0197
 21
111.906
  0
LINE
  8
0
 10
57.0197
 20
111.906
 11
56.8066
 21
111.814
  0
LINE
  8
0
 10
56.8066
 20
111.814
 11
56.5882
 21
111.735
  0
LINE
  8
0
 10
56.5882
 20
111.735
 11
56.3652
 21
111.67
  0
LINE
  8
0
 10
56.3652
 20
111.67
 11
56.1386
 21
111.619
  0
LINE
  8
0
 10
56.1386
 20
111.619
 11
55.9093
 21
111.583
  0
LINE
  8
0
 10
55.9093
 20
111.583
 11
55.6781
 21
111.561
  0
LINE
  8
0
 10
55.6781
 20
111.561
 11
55.446
 21
111.554
  0
LINE
  8
0
 10
55.446
 20
111.554
 11
55.2139
 21
111.561
  0
LINE
  8
0
 10
-28.4904
 20
0.037323
 11
-27.9749
 21
1.81181
  0
LINE
  8
0
 10
-27.9749
 20
1.81181
 11
-27.349
 21
3.55043
  0
LINE
  8
0
 10
-27.349
 20
3.55043
 11
-26.6151
 21
5.24632
  0
LINE
  8
0
 10
-26.6151
 20
5.24632
 11
-25.7762
 21
6.89279
  0
LINE
  8
0
 10
-25.7762
 20
6.89279
 11
-24.8355
 21
8.48332
  0
LINE
  8
0
 10
-24.8355
 20
8.48332
 11
-24.5
 21
8.97704
  0
LINE
  8
0
 10
-24.5
 20
8.97704
 11
-24.5
 21
14
  0
LINE
  8
0
 10
-24.5
 20
14
 11
-19.0555
 21
14
  0
LINE
  8
0
 10
-19.0555
 20
14
 11
-19.0555
 21
9
  0
LINE
  8
0
 10
-19.0555
 20
9
 11
-13.6111
 21
9
  0
LINE
  8
0
 10
-13.6111
 20
9
 11
-13.6111
 21
14
  0
LINE
  8
0
 10
-13.6111
 20
14
 11
-8.16666
 21
14
  0
LINE
  8
0
 10
-8.16666
 20
14
 11
-8.16666
 21
9
  0
LINE
  8
0
 10
-8.16666
 20
9
 11
-2.7222
 21
9
  0
LINE
  8
0
 10
-2.7222
 20
9
 11
-2.7222
 21
14
  0
LINE
  8
0
 10
-2.7222
 20
14
 11
2.72221
 21
14
  0
LINE
  8
0
 10
2.72221
 20
14
 11
2.72221
 21
9
  0
LINE
  8
0
 10
2.72221
 20
9
 11
8.16666
 21
9
  0
LINE
  8
0
 10
8.16666
 20
9
 11
8.16666
 21
14
  0
LINE
  8
0
 10
8.16666
 20
14
 11
13.6111
 21
14
  0
LINE
  8
0
 10
13.6111
 20
14
 11
13.6111
 21
9
  0
LINE
  8
0
 10
13.6111
 20
9
 11
19.0555
 21
9
  0
LINE
  8
0
 10
19.0555
 20
9
 11
19.0555
 21
14
  0
LINE
  8
0
 10
19.0555
 20
14
 11
24.5
 21
14
  0
LINE
  8
0
 10
24.5
 20
14
 11
24.5
 21
8.97704
  0
LINE
  8
0
 10
24.5
 20
8.97704
 11
24.8355
 21
8.48332
  0
LINE
  8
0
 10
24.8355
 20
8.48332
 11
25.7762
 21
6.89279
  0
LINE
  8
0
 10
25.7762
 20
6.89279
 11
26.6151
 21
5.24632
  0
LINE
  8
0
 10
26.6151
 20
5.24632
 11
27.349
 21
3.55043
  0
LINE
  8
0
 10
27.349
 20
3.55043
 11
27.9749
 21
1.81181
  0
LINE
  8
0
 10
27.9749
 20
1.81181
 11
28.4904
 21
0.037323
  0
LINE
  8
0
 10
28.4904
 20
0.037323
 11
28.4988
 21
0
  0
LINE
  8
0
 10
28.4988
 20
0
 11
37.5
 21
0
  0
LINE
  8
0
 10
37.5
 20
0
 11
37.5
 21
16.3889
  0
LINE
  8
0
 10
37.5
 20
16.3889
 11
42.5
 21
16.3889
  0
LINE
  8
0
 10
42.5
 20
16.3889
 11
42.5
 21
21.8333
  0
LINE
  8
0
 10
42.5
 20
21.8333
 11
37.5
 21
21.8333
  0
LINE
  8
0
 10
37.5
 20
21.8333
 11
37.5
 21
27.2778
  0
LINE
  8
0
 10
37.5
 20
27.2778
 11
42.5
 21
27.2778
  0
LINE
  8
0
 10
42.5
 20
27.2778
 11
42.5
 21
32.7222
  0
LINE
  8
0
 10
42.5
 20
32.7222
 11
37.5
 21
32.7222
  0
LINE
  8
0
 10
37.5
 20
32.7222
 11
37.5
 21
38.1667
  0
LINE
  8
0
 10
37.5
 20
38.1667
 11
42.5
 21
38.1667
  0
LINE
  8
0
 10
42.5
 20
38.1667
 11
42.5
 21
43.6111
  0
LINE
  8
0
 10
42.5
 20
43.6111
 11
37.5
 21
43.6111
  0
LINE
  8
0
 10
37.5
 20
43.6111
 11
37.5
 21
55
  0
LINE
  8
0
 10
37.5
 20
55
 11
-37.5
 21
55
  0
LINE
  8
0
 10
-37.5
 20
55
 11
-37.5
 21
43.6111
  0
LINE
  8
0
 10
-37.5
 20
43.6111
 11
-42.5
 21
43.6111
  0
LINE
  8
0
 10
-42.5
 20
43.6111
 11
-42.5
 21
38.1667
  0
LINE
  8
0
 10
-42.5
 20
38.1667
 11
-37.5
 21
38.1667
  0
LINE
  8
0
 10
-37.5
 20
38.1667
 11
-37.5
 21
32.7222
  0
LINE
  8
0
 10
-37.5
 20
32.7222
 11
-42.5
 21
32.7222
  0
LINE
  8
0
 10
-42.5
 20
32.7222
 11
-42.5
 21
27.2778
  0
LINE
  8
0
 10
-42.5
 20
27.2778
 11
-37.5
 21
27.2778
  0
LINE
  8
0
 10
-37.5
 20
27.2778
 11
-37.5
 21
21.8333
  0
LINE
  8
0
 10
-37.5
 20
21.8333
 11
-42.5
 21
21.8333
  0
LINE
  8
0
 10
-42.5
 20
21.8333
 11
-42.5
 21
16.3889
  0
LINE
  8
0
 10
-42.5
 20
16.3889
 11
-37.5
 21
16.3889
  0
LINE
  8
0
 10
-37.5
 20
16.3889
 11
-37.5
 21
0
  0
LINE
  8
0
 10
-37.5
 20
0
 11
-28.4988
 21
0
  0
LINE
  8
0
 10
-28.4988
 20
0
 11
-28.4904
 21
0.037323
  0
LINE
  8
0
 10
60.7596
 20
0.037323
 11
61.2751
 21
1.81181
  0
LINE
  8
0
 10
61.2751
 20
1.81181
 11
61.901
 21
3.55043
  0
LINE
  8
0
 10
61.901
 20
3.55043
 11
62.6349
 21
5.24632
  0
LINE
  8
0
 10
62.6349
 20
5.24632
 11
63.4738
 21
6.89279
  0
LINE
  8
0
 10
63.4738
 20
6.89279
 11
64.4145
 21
8.48332
  0
LINE
  8
0
 10
64.4145
 20
8.48332
 11
64.75
 21
8.97704
  0
LINE
  8
0
 10
64.75
 20
8.97704
 11
64.75
 21
14
  0
LINE
  8
0
 10
64.75
 20
14
 11
70.1945
 21
14
  0
LINE
  8
0
 10
70.1945
 20
14
 11
70.1945
 21
9
  0
LINE
  8
0
 10
70.1945
 20
9
 11
75.6389
 21
9
  0
LINE
  8
0
 10
75.6389
 20
9
 11
75.6389
 21
14
  0
LINE
  8
0
 10
75.6389
 20
14
 11
81.0833
 21
14
  0
LINE
  8
0
 10
81.0833
 20
14
 11
81.0833
 21
9
  0
LINE
  8
0
 10
81.0833
 20
9
 11
86.5278
 21
9
  0
LINE
  8
0
 10
86.5278
 20
9
 11
86.5278
 21
14
  0
LINE
  8
0
 10
86.5278
 20
14
 11
91.9722
 21
14
  0
LINE
  8
0
 10
91.9722
 20
14
 11
91.9722
 21
9
  0
LINE
  8
0
 10
91.9722
 20
9
 11
97.4167
 21
9
  0
LINE
  8
0
 10
97.4167
 20
9
 11
97.4167
 21
14
  0
LINE
  8
0
 10
97.4167
 20
14
 11
102.861
 21
14
  0
LINE
  8
0
 10
102.861
 20
14
 11
102.861
 21
9
  0
LINE
  8
0
 10
102.861
 20
9
 11
108.306
 21
9
  0
LINE
  8
0
 10
108.306
 20
9
 11
108.306
 21
14
  0
LINE
  8
0
 10
108.306
 20
14
 11
113.75
 21
14
  0
LINE
  8
0
 10
113.75
 20
14
 11
113.75
 21
8.97704
  0
LINE
  8
0
 10
113.75
 20
8.97704
 11
114.086
 21
8.48332
  0
LINE
  8
0
 10
114.086
 20
8.48332
 11
115.026
 21
6.89279
  0
LINE
  8
0
 10
115.026
 20
6.89279
 11
115.865
 21
5.24632
  0
LINE
  8
0
 10
115.865
 20
5.24632
 11
116.599
 21
3.55043
  0
LINE
  8
0
 10
116.599
 20
3.55043
 11
117.225
 21
1.81181
  0
LINE
  8
0
 10
117.225
 20
1.81181
 11
117.74
 21
0.037323
  0
LINE
  8
0
 10
117.74
 20
0.037323
 11
117.749
 21
0
  0
LINE
  8
0
 10
117.749
 20
0
 11
126.75
 21
0
  0
LINE
  8
0
 10
126.75
 20
0
 11
126.75
 21
16.3889
  0
LINE
  8
0
 10
126.75
 20
16.3889
 11
131.75
 21
16.3889
  0
LINE
  8
0
 10
131.75
 20
16.3889
 11
131.75
 21
21.8333
  0
LINE
  8
0
 10
131.75
 20
21.8333
 11
126.75
 21
21.8333
  0
LINE
  8
0
 10
126.75
 20
21.8333
 11
126.75
 21
27.2778
  0
LINE
  8
0
 10
126.75
 20
27.2778
 11
131.75
 21
27.2778
  0
LINE
  8
0
 10
131.75
 20
27.2778
 11
131.75
 21
32.7222
  0
LINE
  8
0
 10
131.75
 20
32.7222
 11
126.75
 21
32.7222
  0
LINE
  8
0
 10
126.75
 20
32.7222
 11
126.75
 21
38.1667
  0
LINE
  8
0
 10
126.75
 20
38.1667
 11
131.75
 21
38.1667
  0
LINE
  8
0
 10
131.75
 20
38.1667
 11
131.75
 21
43.6111
  0
LINE
  8
0
 10
131.75
 20
43.6111
 11
126.75
 21
43.6111
  0
LINE
  8
0
 10
126.75
 20
43.6111
 11
126.75
 21
48.2411
  0
LINE
  8
0
 10
126.75
 20
48.2411
 11
51.75
 21
48.2411
  0
LINE
  8
0
 10
51.75
 20
48.2411
 11
51.75
 21
43.6111
  0
LINE
  8
0
 10
51.75
 20
43.6111
 11
46.75
 21
43.6111
  0
LINE
  8
0
 10
46.75
 20
43.6111
 11
46.75
 21
38.1667
  0
LINE
  8
0
 10
46.75
 20
38.1667
 11
51.75
 21
38.1667
  0
LINE
  8
0
 10
51.75
 20
38.1667
 11
51.75
 21
32.7222
  0
LINE
  8
0
 10
51.75
 20
32.7222
 11
46.75
 21
32.7222
  0
LINE
  8
0
 10
46.75
 20
32.7222
 11
46.75
 21
27.2778
  0
LINE
  8
0
 10
46.75
 20
27.2778
 11
51.75
 21
27.2778
  0
LINE
  8
0
 10
51.75
 20
27.2778
 11
51.75
 21
21.8333
  0
LINE
  8
0
 10
51.75
 20
21.8333
 11
46.75
 21
21.8333
  0
LINE
  8
0
 10
46.75
 20
21.8333
 11
46.75
 21
16.3889
  0
LINE
  8
0
 10
46.75
 20
16.3889
 11
51.75
 21
16.3889
  0
LINE
  8
0
 10
51.75
 20
16.3889
 11
51.75
 21
0
  0
LINE
  8
0
 10
51.75
 20
0
 11
60.7512
 21
0
  0
LINE
  8
0
 10
60.7512
 20
0
 11
60.7596
 21
0.037323
  0
LINE
  8
0
 10
-19.0555
 20
-82.125
 11
-13.6111
 21
-82.125
  0
LINE
  8
0
 10
-13.6111
 20
-82.125
 11
-13.6111
 21
-87.125
  0
LINE
  8
0
 10
-13.6111
 20
-87.125
 11
-8.16666
 21
-87.125
  0
LINE
  8
0
 10
-8.16666
 20
-87.125
 11
-8.16666
 21
-82.125
  0
LINE
  8
0
 10
-8.16666
 20
-82.125
 11
-2.72221
 21
-82.125
  0
LINE
  8
0
 10
-2.72221
 20
-82.125
 11
-2.72221
 21
-87.125
  0
LINE
  8
0
 10
-2.72221
 20
-87.125
 11
2.72221
 21
-87.125
  0
LINE
  8
0
 10
2.72221
 20
-87.125
 11
2.72221
 21
-82.125
  0
LINE
  8
0
 10
2.72221
 20
-82.125
 11
8.16666
 21
-82.125
  0
LINE
  8
0
 10
8.16666
 20
-82.125
 11
8.16666
 21
-87.125
  0
LINE
  8
0
 10
8.16666
 20
-87.125
 11
13.6111
 21
-87.125
  0
LINE
  8
0
 10
13.6111
 20
-87.125
 11
13.6111
 21
-82.125
  0
LINE
  8
0
 10
13.6111
 20
-82.125
 11
19.0555
 21
-82.125
  0
LINE
  8
0
 10
19.0555
 20
-82.125
 11
19.0555
 21
-87.125
  0
LINE
  8
0
 10
19.0555
 20
-87.125
 11
24.5
 21
-87.125
  0
LINE
  8
0
 10
24.5
 20
-87.125
 11
24.5
 21
-82.125
  0
LINE
  8
0
 10
24.5
 20
-82.125
 11
37.5
 21
-82.125
  0
LINE
  8
0
 10
37.5
 20
-82.125
 11
37.5
 21
-69.125
  0
LINE
  8
0
 10
37.5
 20
-69.125
 11
42.5
 21
-69.125
  0
LINE
  8
0
 10
42.5
 20
-69.125
 11
42.5
 21
-63.6805
  0
LINE
  8
0
 10
42.5
 20
-63.6805
 11
37.5
 21
-63.6805
  0
LINE
  8
0
 10
37.5
 20
-63.6805
 11
37.5
 21
-58.2361
  0
LINE
  8
0
 10
37.5
 20
-58.2361
 11
42.5
 21
-58.2361
  0
LINE
  8
0
 10
42.5
 20
-58.2361
 11
42.5
 21
-52.7917
  0
LINE
  8
0
 10
42.5
 20
-52.7917
 11
37.5
 21
-52.7917
  0
LINE
  8
0
 10
37.5
 20
-52.7917
 11
37.5
 21
-47.3472
  0
LINE
  8
0
 10
37.5
 20
-47.3472
 11
42.5
 21
-47.3472
  0
LINE
  8
0
 10
42.5
 20
-47.3472
 11
42.5
 21
-41.9028
  0
LINE
  8
0
 10
42.5
 20
-41.9028
 11
37.5
 21
-41.9028
  0
LINE
  8
0
 10
37.5
 20
-41.9028
 11
37.5
 21
-36.4583
  0
LINE
  8
0
 10
37.5
 20
-36.4583
 11
42.5
 21
-36.4583
  0
LINE
  8
0
 10
42.5
 20
-36.4583
 11
42.5
 21
-31.0139
  0
LINE
  8
0
 10
42.5
 20
-31.0139
 11
37.5
 21
-31.0139
  0
LINE
  8
0
 10
37.5
 20
-31.0139
 11
37.5
 21
-25.5695
  0
LINE
  8
0
 10
37.5
 20
-25.5695
 11
42.5
 21
-25.5695
  0
LINE
  8
0
 10
42.5
 20
-25.5695
 11
42.5
 21
-20.125
  0
LINE
  8
0
 10
42.5
 20
-20.125
 11
37.5
 21
-20.125
  0
LINE
  8
0
 10
37.5
 20
-20.125
 11
37.5
 21
-7.125
  0
LINE
  8
0
 10
37.5
 20
-7.125
 11
24.5
 21
-7.125
  0
LINE
  8
0
 10
24.5
 20
-7.125
 11
24.5
 21
-2.125
  0
LINE
  8
0
 10
24.5
 20
-2.125
 11
19.0555
 21
-2.125
  0
LINE
  8
0
 10
19.0555
 20
-2.125
 11
19.0555
 21
-7.125
  0
LINE
  8
0
 10
19.0555
 20
-7.125
 11
13.6111
 21
-7.125
  0
LINE
  8
0
 10
13.6111
 20
-7.125
 11
13.6111
 21
-2.125
  0
LINE
  8
0
 10
13.6111
 20
-2.125
 11
8.16666
 21
-2.125
  0
LINE
  8
0
 10
8.16666
 20
-2.125
 11
8.16666
 21
-7.125
  0
LINE
  8
0
 10
8.16666
 20
-7.125
 11
2.72221
 21
-7.125
  0
LINE
  8
0
 10
2.72221
 20
-7.125
 11
2.72221
 21
-2.125
  0
LINE
  8
0
 10
2.72221
 20
-2.125
 11
-2.72221
 21
-2.125
  0
LINE
  8
0
 10
-2.72221
 20
-2.125
 11
-2.72221
 21
-7.125
  0
LINE
  8
0
 10
-2.72221
 20
-7.125
 11
-8.16666
 21
-7.125
  0
LINE
  8
0
 10
-8.16666
 20
-7.125
 11
-8.16666
 21
-2.125
  0
LINE
  8
0
 10
-8.16666
 20
-2.125
 11
-13.6111
 21
-2.125
  0
LINE
  8
0
 10
-13.6111
 20
-2.125
 11
-13.6111
 21
-7.125
  0
LINE
  8
0
 10
-13.6111
 20
-7.125
 11
-19.0555
 21
-7.12498
  0
LINE
  8
0
 10
-19.0555
 20
-7.12498
 11
-19.0555
 21
-2.12498
  0
LINE
  8
0
 10
-19.0555
 20
-2.12498
 11
-24.5
 21
-2.12498
  0
LINE
  8
0
 10
-24.5
 20
-2.12498
 11
-24.5
 21
-7.12498
  0
LINE
  8
0
 10
-24.5
 20
-7.12498
 11
-37.5
 21
-7.12498
  0
LINE
  8
0
 10
-37.5
 20
-7.12498
 11
-37.5
 21
-20.125
  0
LINE
  8
0
 10
-37.5
 20
-20.125
 11
-42.5
 21
-20.125
  0
LINE
  8
0
 10
-42.5
 20
-20.125
 11
-42.5
 21
-25.5694
  0
LINE
  8
0
 10
-42.5
 20
-25.5694
 11
-37.5
 21
-25.5694
  0
LINE
  8
0
 10
-37.5
 20
-25.5694
 11
-37.5
 21
-31.0139
  0
LINE
  8
0
 10
-37.5
 20
-31.0139
 11
-42.5
 21
-31.0139
  0
LINE
  8
0
 10
-42.5
 20
-31.0139
 11
-42.5
 21
-36.4583
  0
LINE
  8
0
 10
-42.5
 20
-36.4583
 11
-37.5
 21
-36.4583
  0
LINE
  8
0
 10
-37.5
 20
-36.4583
 11
-37.5
 21
-41.9028
  0
LINE
  8
0
 10
-37.5
 20
-41.9028
 11
-42.5
 21
-41.9028
  0
LINE
  8
0
 10
-42.5
 20
-41.9028
 11
-42.5
 21
-47.3472
  0
LINE
  8
0
 10
-42.5
 20
-47.3472
 11
-37.5
 21
-47.3472
  0
LINE
  8
0
 10
-37.5
 20
-47.3472
 11
-37.5
 21
-52.7916
  0
LINE
  8
0
 10
-37.5
 20
-52.7916
 11
-42.5
 21
-52.7916
  0
LINE
  8
0
 10
-42.5
 20
-52.7916
 11
-42.5
 21
-58.2361
  0
LINE
  8
0
 10
-42.5
 20
-58.2361
 11
-37.5
 21
-58.2361
  0
LINE
  8
0
 10
-37.5
 20
-58.2361
 11
-37.5
 21
-63.6805
  0
LINE
  8
0
 10
-37.5
 20
-63.6805
 11
-42.5
 21
-63.6805
  0
LINE
  8
0
 10
-42.5
 20
-63.6805
 11
-42.5
 21
-69.125
  0
LINE
  8
0
 10
-42.5
 20
-69.125
 11
-37.5
 21
-69.125
  0
LINE
  8
0
 10
-37.5
 20
-69.125
 11
-37.5
 21
-82.125
  0
LINE
  8
0
 10
-37.5
 20
-82.125
 11
-24.5
 21
-82.125
  0
LINE
  8
0
 10
-24.5
 20
-82.125
 11
-24.5
 21
-87.125
  0
LINE
  8
0
 10
-24.5
 20
-87.125
 11
-19.0555
 21
-87.125
  0
LINE
  8
0
 10
-19.0555
 20
-87.125
 11
-19.0555
 21
-82.125
  0
LINE
  8
0
 10
58.1682
 20
-82.125
 11
131.75
 21
-82.125
  0
LINE
  8
0
 10
131.75
 20
-82.125
 11
131.75
 21
-7.125
  0
LINE
  8
0
 10
131.75
 20
-7.125
 11
58.1682
 21
-7.125
  0
LINE
  8
0
 10
58.1682
 20
-7.125
 11
58.1682
 21
-2.125
  0
LINE
  8
0
 10
58.1682
 20
-2.125
 11
52.7238
 21
-2.125
  0
LINE
  8
0
 10
52.7238
 20
-2.125
 11
52.7238
 21
-7.125
  0
LINE
  8
0
 10
52.7238
 20
-7.125
 11
46.75
 21
-7.125
  0
LINE
  8
0
 10
46.75
 20
-7.125
 11
46.75
 21
-82.125
  0
LINE
  8
0
 10
46.75
 20
-82.125
 11
52.7238
 21
-82.125
  0
LINE
  8
0
 10
52.7238
 20
-82.125
 11
52.7238
 21
-87.125
  0
LINE
  8
0
 10
52.7238
 20
-87.125
 11
58.1682
 21
-87.125
  0
LINE
  8
0
 10
58.1682
 20
-87.125
 11
58.1682
 21
-82.125
  0
ENDSEC
  0
SECTION
  2
OBJECTS
  0
DICTIONARY
  0
ENDSEC
  0
EOF
