<?xml version="1.0" encoding="UTF-8" standalone="no"?>
<!-- Created with Inkscape (http://www.inkscape.org/) -->

<svg
   xmlns:dc="http://purl.org/dc/elements/1.1/"
   xmlns:cc="http://creativecommons.org/ns#"
   xmlns:rdf="http://www.w3.org/1999/02/22-rdf-syntax-ns#"
   xmlns:svg="http://www.w3.org/2000/svg"
   xmlns="http://www.w3.org/2000/svg"
   xmlns:sodipodi="http://sodipodi.sourceforge.net/DTD/sodipodi-0.dtd"
   xmlns:inkscape="http://www.inkscape.org/namespaces/inkscape"
   id="svg2"
   version="1.1"
   inkscape:version="0.91 r13725"
   xml:space="preserve"
   width="1000mm"
   height="1000mm"
   viewBox="0 0 3543.307 3543.3068"
   sodipodi:docname="mdf_pencilStand_Geant_R1.svg"><metadata
     id="metadata8"><rdf:RDF><cc:Work
         rdf:about=""><dc:format>image/svg+xml</dc:format><dc:type
           rdf:resource="http://purl.org/dc/dcmitype/StillImage" /><dc:title></dc:title></cc:Work></rdf:RDF></metadata><defs
     id="defs6"><clipPath
       clipPathUnits="userSpaceOnUse"
       id="clipPath58"><path
         d="m 0,841.89 1190.551,0 0,-841.89 L 0,0 0,841.89 Z"
         id="path60"
         inkscape:connector-curvature="0" /></clipPath><clipPath
       id="clipPath4586"
       clipPathUnits="userSpaceOnUse"><path
         inkscape:connector-curvature="0"
         id="path4588"
         d="m 0,841.89 1190.551,0 0,-841.89 L 0,0 0,841.89 Z" /></clipPath></defs><sodipodi:namedview
     pagecolor="#ffffff"
     bordercolor="#666666"
     borderopacity="1"
     objecttolerance="10"
     gridtolerance="10"
     guidetolerance="10"
     inkscape:pageopacity="0"
     inkscape:pageshadow="2"
     inkscape:window-width="1920"
     inkscape:window-height="1017"
     id="namedview4"
     showgrid="false"
     units="mm"
     inkscape:zoom="0.22425732"
     inkscape:cx="2257.0719"
     inkscape:cy="161.2518"
     inkscape:window-x="-8"
     inkscape:window-y="-8"
     inkscape:window-maximized="1"
     inkscape:current-layer="g10" /><g
     id="g10"
     inkscape:groupmode="layer"
     inkscape:label="mdf_pencilStand"
     transform="matrix(1.25,0,0,-1.25,0,3543.3067)"><path
       inkscape:connector-curvature="0"
       id="path14"
       style="fill:none;stroke:#ed1c24;stroke-width:0.28346455;stroke-linecap:butt;stroke-linejoin:miter;stroke-miterlimit:4;stroke-dasharray:none;stroke-opacity:1"
       d="m 1397.5356,39.219468 0,56.938966 -57.501,0 0,12.903346 57.501,0 0,57.22196 -57.501,0 0,12.90335 57.501,0 0,57.22196 -57.501,0 0,12.90137 57.501,0 0,56.94094 -55.5378,0 0,13.74246 -57.222,0 0,-13.74246 -54.9777,0 0,13.74246 -57.22,0.002 0,-13.74444 -55.8188,0 0,-48.80313 -13.7445,0 0,-57.22395 13.7445,0 0,-54.97575 -13.7445,0 0,-57.221973 13.7445,0 0,-48.807089 55.8188,0 0,-13.740476 57.22,0 0,13.740476 54.9777,0 0,-13.740476 57.222,0 0,13.740476 55.5378,0 z" /><path
       inkscape:connector-curvature="0"
       id="path18"
       style="fill:none;stroke:#ed1c24;stroke-width:0.28346455;stroke-linecap:butt;stroke-linejoin:miter;stroke-miterlimit:4;stroke-dasharray:none;stroke-opacity:1"
       d="m 1118.1604,338.74353 55.8208,0 0,-13.74048 57.22,-0.002 0,13.74246 54.9777,0 0,-13.74246 57.222,0 0,13.74246 55.5378,0 0,267.02992 -55.5358,0 0,13.74245 -57.222,0.002 0,-13.74443 -54.9777,0 0,13.74443 -57.22,0 0,-13.74443 -55.8208,0 0,-48.80314 -13.7405,0 0,-8.13781 235.6147,0 0,-12.90136 -235.6147,0 0,-36.18279 13.7405,0 0,-21.03918 221.8722,0 0,-12.90334 -221.8722,0 0,-21.03522 -13.7405,0 0,-36.18477 235.6127,0 0,-12.90334 -235.6127,0 0,-8.13188 13.7405,0 0,-48.80709 z" /><path
       inkscape:connector-curvature="0"
       id="path26"
       style="fill:none;stroke:#ed1c24;stroke-width:0.28346455;stroke-linecap:butt;stroke-linejoin:miter;stroke-miterlimit:4;stroke-dasharray:none;stroke-opacity:1"
       d="m 1098.9824,28.629568 0,56.938966 -57.501,0 0,12.903342 57.501,0 0,57.221964 -57.501,0 0,12.90335 57.501,0 0,57.22196 -57.501,0 0,12.90137 57.501,0 0,56.94094 -55.5378,0 0,13.74246 -57.22197,0 0,-13.74246 -54.97774,0 0,13.74246 -57.21999,0.002 0,-13.74444 -55.81883,0 0,-48.80313 -13.74443,0 0,-57.22395 13.74443,0 0,-54.97575 -13.74443,0 0,-57.221973 13.74443,0 0,-48.807089 55.81883,0 0,-13.740476 57.21999,0 0,13.740476 54.97774,0 0,-13.740476 57.22197,0 0,13.740476 55.5378,0 z" /><path
       inkscape:connector-curvature="0"
       id="path30"
       style="fill:none;stroke:#ed1c24;stroke-width:0.28346455;stroke-linecap:butt;stroke-linejoin:miter;stroke-miterlimit:4;stroke-dasharray:none;stroke-opacity:1"
       d="m 819.60717,338.74353 55.82081,0 0,-13.74048 57.21999,-0.002 0,13.74246 54.97773,0 0,-13.74246 57.222,0 0,13.74246 55.5378,0 0,267.02992 -55.5358,0 0,13.74245 -57.222,0.002 0,-13.74443 -54.97773,0 0,13.74443 -57.21999,0 0,-13.74443 -55.82081,0 0,-48.80314 -13.74048,0 0,-8.13781 235.61461,0 0,-12.90136 -235.61461,0 0,-36.18279 13.74048,0 0,-21.03918 221.87213,0 0,-12.90334 -221.87213,0 0,-21.03522 -13.74048,0 0,-36.18477 235.61261,0 0,-12.90334 -235.61261,0 0,-8.13188 13.74048,0 0,-48.80709 z" /><path
       inkscape:connector-curvature="0"
       id="path34"
       style="fill:none;stroke:#ed1c24;stroke-width:0.28346455;stroke-linecap:butt;stroke-linejoin:miter;stroke-miterlimit:4;stroke-dasharray:none;stroke-opacity:1"
       d="m 773.86702,28.629568 0,56.938966 -57.50299,0 0,12.903342 57.50299,0 -0.002,57.221964 -57.50101,0 0,12.90335 57.50101,0 0,57.22196 -57.50101,0 0,12.90137 57.50101,0 0,56.94094 -55.5378,0 0,13.74246 -57.22197,0 0,-13.74246 -54.97774,0 0,13.74246 -57.21999,0.002 0,-13.74444 -55.81685,0 0,-48.80313 -13.74443,0 0,-57.22395 13.74443,0 0,-54.97575 -13.74443,0 0,-57.221973 13.74443,0 0,-48.807089 55.81685,0 0,-13.740476 57.21999,0 0,13.740476 54.97774,0 0,-13.740476 57.22197,0 0,13.740476 55.53978,0 z" /><path
       inkscape:connector-curvature="0"
       id="path38"
       style="fill:none;stroke:#ed1c24;stroke-width:0.28346455;stroke-linecap:butt;stroke-linejoin:miter;stroke-miterlimit:4;stroke-dasharray:none;stroke-opacity:1"
       d="m 494.48989,338.74353 55.82081,0 0,-13.74048 57.21999,-0.002 0,13.74246 54.97773,0 0,-13.74246 57.22197,0 0,13.74246 55.53979,0 -0.002,267.02992 -55.53781,0 0,13.74245 -57.22197,0.002 0,-13.74443 -54.97773,0 0,13.74443 -57.21999,0 0,-13.74443 -55.82081,0 0,-48.80314 -13.74048,0 0,-8.13781 235.61463,0 0,-12.90136 -235.61463,0 0,-36.18279 13.74048,0 0,-21.03918 221.87218,0 0,-12.90334 -221.87218,0 0,-21.03522 -13.74048,0 0,-36.18477 235.61266,0 0,-12.90334 -235.61266,0 0,-8.13188 13.74048,0 0,-48.80709 z" /><path
       d="m 1104.4156,926.54532 0,0 0.01,0 0,0 -0.01,0 z m 210.938,-231.4072 0,7.5738 -35.6267,0 0,12.9013 35.6267,0 0,35.6227 12.9013,0 0,-35.6227 7.5718,0 0,-12.9013 -7.5718,0 0,-7.5738 -12.9013,0 z m -70.1253,0 0,56.0998 12.9033,0 0,-56.0998 -12.9033,0 z m -70.1234,0 0,7.5738 -7.5758,0 0,12.9013 7.5758,0 0,35.6227 12.9014,0 0,-35.6227 35.6208,0 0,-12.9013 -35.6208,0 0,-7.5738 -12.9014,0 z m 104.622,77.6991 0,12.9033 56.0998,0 0,-12.9033 -56.0998,0 z m -112.1978,0 0,12.9033 56.0999,0 0,-12.9033 -56.0999,0 z m 147.8245,34.4986 0,35.6247 -35.6267,0 0,12.9033 35.6267,0 0,7.5718 12.9013,0 0,-7.5718 7.5718,0 0,-12.9033 -7.5718,0 0,-35.6247 -12.9013,0 z m -70.1253,0 0,56.0998 12.9033,0 0,-56.0998 -12.9033,0 z m -70.1234,0 0,35.6247 -7.5758,0 0,12.9033 7.5758,0 0,7.5718 12.9014,0 0,-7.5718 35.6208,0 0,-12.9033 -35.6208,0 0,-35.6247 -12.9014,0 z m 104.0679,-175.3073 57.2199,0 0,13.7444 48.8011,0 0,48.8071 13.7444,0 0,57.22 -13.7444,0 0,54.9777 13.7444,0 0,57.22 -13.7444,0 0,48.8031 -48.8011,0 0,13.7445 -57.2199,0 0,-13.7445 -54.9797,0 0,13.7445 -57.22,0 0,-13.7465 -48.8111,0 0,-48.8031 -13.7464,0 0,-57.22 13.7445,0 0,-54.9777 -13.7445,0 0,-57.22 13.7425,0 0,-48.8071 48.811,0 0,-13.7424 57.22,0 0,13.7424 54.9796,0 0,-13.7424 z"
       style="fill:none;stroke:#ed1c24;stroke-width:0.28346452;stroke-linecap:butt;stroke-linejoin:miter;stroke-miterlimit:4;stroke-dasharray:none;stroke-opacity:1"
       id="path40"
       inkscape:connector-curvature="0" /><path
       d="m 192.02573,744.27372 0,-56.0999 -12.90333,0 0,56.0999 12.90333,0 z m 168.99816,21.5933 0,12.9053 56.09984,0 0,-12.9053 -56.09984,0 z m -112.19575,0 0,12.9053 56.09787,0 0,-12.9053 -56.09787,0 z m -69.70574,34.5065 0,56.0999 12.90333,0 0,-56.0999 -12.90333,0 z m 125.80361,48.5221 0,-12.9053 -56.09787,0 0,12.9053 56.09787,0 z m 112.19772,0 0,-12.9053 -56.09984,0 0,12.9053 56.09984,0 z m -112.19772,-140.2486 0,-12.9053 -56.09787,0 0,12.9053 56.09787,0 z m 112.19772,0 0,-12.9053 -56.09984,0 0,12.9053 56.09984,0 z m -168.29559,-69.7988 0,-13.7424 56.09985,0 0,13.7385 56.0959,0 0,-13.7385 56.10184,0 0,13.7385 56.09787,0 0,267.0299 -56.09787,0 0,13.7444 -56.10184,0 0,-13.7464 -56.0959,0 0,13.7464 -56.09985,0 0,-13.7444 -56.09985,0 0,13.7444 -56.09985,0 0,-13.7484 -56.097885,0 0,13.7484 -71.8688386,0 162.1051536,-280.7763 78.06127,0 z"
       style="fill:none;stroke:#ed1c24;stroke-width:0.28346452;stroke-linecap:butt;stroke-linejoin:miter;stroke-miterlimit:4;stroke-dasharray:none;stroke-opacity:1"
       id="path46"
       inkscape:connector-curvature="0" /><path
       d="m 179.1224,387.39566 0,56.09986 12.90333,0 0,-56.09986 -12.90333,0 z m 181.90149,77.70107 0,12.90532 56.09984,0 0,-12.90532 -56.09984,0 z m -112.19772,0 0,12.90532 56.09984,0 0,-12.90532 -56.09984,0 z m -69.70377,34.49859 0,56.0999 12.90333,0 0,-56.0999 -12.90333,0 z m 125.80361,48.5301 0,-12.9054 -56.09984,0 0,12.9054 56.09984,0 z m 112.19772,0 0,-12.9054 -56.09984,0 0,12.9054 56.09984,0 z m -112.19772,-140.24868 0,-12.90532 -56.09984,0 0,12.90532 56.09984,0 z m 112.19772,0 0,-12.90532 -56.09984,0 0,12.90532 56.09984,0 z m -336.593175,-69.88582 56.097885,0 0,-13.74646 56.09985,0 0,13.74444 56.09788,0 0,-13.74444 56.10182,0 0,13.74646 56.0959,0 0,-13.74445 56.10184,0 0,13.74445 56.09787,0 0,267.0299 -56.09787,0 0,13.7385 -56.10184,0 0,-13.7405 -56.0959,0 0,13.7405 -56.10182,0 0,-13.7425 -78.0593,0 -162.1051536,-280.77631 71.8688386,0 0,13.74645 z"
       style="fill:none;stroke:#ed1c24;stroke-width:0.28346452;stroke-linecap:butt;stroke-linejoin:miter;stroke-miterlimit:4;stroke-dasharray:none;stroke-opacity:1"
       id="path48"
       inkscape:connector-curvature="0" /><path
       d="m 904.13205,699.50582 0,12.9053 56.0999,0 0,-12.9053 -56.0999,0 z m -112.19781,0 0,12.9053 56.09986,0 0,-12.9053 -56.09986,0 z m 112.19781,70.1233 0,12.9054 56.0999,0 0,-12.9054 -56.0999,0 z m -112.19781,0 0,12.9054 56.09986,0 0,-12.9054 -56.09986,0 z m 112.19781,70.1253 0,12.9054 56.0999,0 0,-12.9054 -56.0999,0 z m -112.19781,0 0,12.9054 56.09986,0 0,-12.9054 -56.09986,0 z m 0.56011,-197.1856 54.97771,0 0,-13.7444 57.21999,0 0,13.7444 54.9778,0 0,-13.7444 56.65995,0 0,294.5148 -56.65995,0 0,-13.7424 -54.9778,0 0,13.7444 -57.21999,0 0,-13.7444 -54.97771,0 0,13.7444 -70.68145,0 0,-63.1057 13.74047,0 0,-56.0998 -13.74047,0 0,-56.0999 13.74242,0 0,-56.0978 -13.74242,0 0,-63.1116 70.68341,0 0,13.7424 z"
       style="fill:none;stroke:#ed1c24;stroke-width:0.28346452;stroke-linecap:butt;stroke-linejoin:miter;stroke-miterlimit:4;stroke-dasharray:none;stroke-opacity:1"
       id="path50"
       inkscape:connector-curvature="0" /><path
       d="m 179.11844,75.556868 0,56.099902 12.90334,0 0,-56.099902 -12.90334,0 z m 181.90149,77.693102 0,12.9053 56.09985,0 0,-12.9053 -56.09985,0 z m -112.19773,0 0,12.9053 56.09987,0 0,-12.9053 -56.09987,0 z m -69.70376,34.5046 0,56.0998 12.90334,0 0,-56.0998 -12.90334,0 z m 125.80363,48.52408 0,-12.90534 -56.09987,0 0,12.90534 56.09987,0 z m 112.19771,0 0,-12.90534 -56.09985,0 0,12.90534 56.09985,0 z M 304.92207,96.029968 l 0,-12.9052 -56.09987,0 0,12.9052 56.09987,0 z m 112.19771,0 0,-12.9052 -56.09985,0 0,12.9052 56.09985,0 z m -0.56007,-83.5451 56.65993,0 0.004,294.481152 -56.66388,0.007 0,-13.71475 -54.97971,0 0,13.71871 -57.21998,0.007 0,-13.72462 -54.97775,0 0,13.72859 -57.22197,0.007 0,-13.73457 -54.97576,0 0,13.73854 -57.221965,0.007 0,-13.74243 -63.206579,0 -0.004,-267.027922 63.210539,0 0,-13.7445 57.221995,0 0,13.7445 54.97576,0 0,-13.7445 57.22194,0 0,13.7445 54.97774,0 0,-13.7445 57.21998,0 0,13.7445 54.97973,0 0,-13.7445 z"
       style="fill:none;stroke:#ed1c24;stroke-width:0.28346452;stroke-linecap:butt;stroke-linejoin:miter;stroke-miterlimit:4;stroke-dasharray:none;stroke-opacity:1"
       id="path52"
       inkscape:connector-curvature="0" /><path
       inkscape:connector-curvature="0"
       id="path4550"
       style="fill:none;stroke:#0000be;stroke-width:0.25;stroke-linecap:butt;stroke-linejoin:miter;stroke-miterlimit:4;stroke-dasharray:none;stroke-opacity:1"
       d="m 1945.1835,585.89499 0,28.206 6.943,0 0,28.913 -6.943,0 0,27.78 6.943,0 0,28.914 -6.944,0 0,28.06298 -134.929,0 0,-28.06198 -6.944,0 0,-28.914 6.944,0 0,-27.78 -6.944,0 0,-28.913 6.945,0 0,-28.206 24.66,0 0,-6.943 4.112,0 0,119.055 6.519,0 0,-119.055 18.283,0 0,6.943 10.631,0 0,112.111 6.52,0 0,-112.111 10.629,0 0,-6.943 18.284,0 0,119.054 6.52,0 0,-119.054 4.109,0 0,6.943 24.662,0 z" /><path
       inkscape:connector-curvature="0"
       id="path4572"
       style="fill:none;stroke:#0000be;stroke-width:0.25;stroke-linecap:butt;stroke-linejoin:miter;stroke-miterlimit:4;stroke-dasharray:none;stroke-opacity:1"
       d="m 1703.2431,346.6602 -3.827,0 0,-18.002 -6.52,0 0,18.002 -18,0 0,6.52 18,0 0,3.824 6.52,0 0,-3.824 3.827,0 0,-6.52 z m 0,-35.434 -28.347,0 0,6.52 28.347,0 0,-6.52 z m 0,-35.433 -3.827,0 0,-3.828 -6.52,0 0,3.828 -18,0 0,6.519 18,0 0,17.998 6.52,0 0,-17.998 3.827,0 0,-6.519 z m -39.261,52.865 -6.52,0 0,28.346 6.52,0 0,-28.346 z m 0,-56.693 -6.52,0 0,28.346 6.52,0 0,-28.346 z m -17.432,74.695 -18.001,0 0,-18.002 -6.52,0 0,18.002 -3.826,0 0,6.52 3.826,0 0,3.824 6.52,0 0,-3.824 18.001,0 0,-6.52 z m 0,-35.434 -28.347,0 0,6.52 28.347,0 0,-6.52 z m 0,-35.433 -18.001,0 0,-3.828 -6.52,0 0,3.828 -3.826,0 0,6.519 3.826,0 0,17.998 6.52,0 0,-17.998 18.001,0 0,-6.519 z m 88.583,52.584 0,28.914 -6.946,0 0,24.658 -24.661,0 0,6.945 -28.913,0 0,-6.945 -27.78,0 0,6.945 -28.913,0 0,-6.945 -24.66,0 0,-24.658 -6.945,0 0,-28.914 6.945,0 0,-27.78 -6.946,0 0,-28.914 6.946,0 0,-24.664 24.66,0 0,-6.945 28.913,0.001 0,6.944 27.78,0 0,-6.944 28.913,0.001 0,6.943 24.661,0 0,24.664 6.945,0 0,28.914 -6.945,0 0,27.78 6.946,0 z m -148.819,-88.303 10e-4,0 0,0.004 -10e-4,0 0,-0.004 z" /><path
       inkscape:connector-curvature="0"
       id="path4592"
       style="fill:#221b19;fill-opacity:1;fill-rule:nonzero;stroke:none"
       d="m 1377.3118,930.75395 -1.8,5.424 c -0.384,1.248 -0.696,2.401 -0.936,3.481 l -0.072,0 c -0.24,-1.104 -0.576,-2.257 -0.912,-3.408 l -1.824,-5.497 5.544,0 z m 4.488,-7.513 -2.112,0 -1.968,5.929 -6.361,0 -1.92,-5.929 -2.04,0 6.049,18.29 2.304,0 6.048,-18.29 z" /><path
       inkscape:connector-curvature="0"
       id="path4596"
       style="fill:#221b19;fill-opacity:1;fill-rule:nonzero;stroke:none"
       d="m 1382.7989,613.07372 c 0.456,-0.096 1.104,-0.12 1.944,-0.12 2.52,0 4.777,0.984 4.777,3.745 0,2.736 -2.376,3.744 -4.801,3.744 l -1.92,0 0,-7.369 z m 2.136,8.905 c 2.425,0 3.985,1.392 3.985,3.264 l 0,0.024 c 0,2.161 -1.584,3.097 -4.08,3.097 -1.057,0 -1.681,-0.073 -2.041,-0.168 l 0,-6.217 2.136,0 z m 2.905,-0.672 c 1.728,-0.408 3.768,-1.848 3.768,-4.608 0,-1.633 -0.624,-2.785 -1.464,-3.601 -1.224,-1.2 -3.193,-1.728 -5.953,-1.728 -1.512,0 -2.64,0.12 -3.384,0.192 l 0,17.977 c 1.008,0.217 2.448,0.385 3.936,0.385 2.257,0 3.744,-0.433 4.825,-1.345 0.864,-0.744 1.368,-1.8 1.368,-3.168 0,-1.8 -1.224,-3.36 -3.096,-4.032 l 0,-0.072 z" /><path
       inkscape:connector-curvature="0"
       id="path4600"
       style="fill:#221b19;fill-opacity:1;fill-rule:nonzero;stroke:none"
       d="m 1399.237,316.93536 c -0.84,-0.408 -2.472,-0.816 -4.56,-0.816 -4.705,0 -8.497,3.048 -8.497,9.24 0,5.905 3.672,9.577 9.025,9.577 2.184,0 3.456,-0.456 4.032,-0.744 l -0.528,-1.68 c -0.84,0.408 -2.016,0.744 -3.456,0.744 -4.153,0 -6.985,-2.784 -6.985,-7.824 0,-4.801 2.593,-7.633 6.865,-7.633 1.392,0 2.76,0.312 3.672,0.744 l 0.432,-1.608 z" /><path
       inkscape:connector-curvature="0"
       id="path4604"
       style="fill:#221b19;fill-opacity:1;fill-rule:nonzero;stroke:#0000be;stroke-opacity:1"
       d="m 1530.2832,688.38913 c -0.42,-0.204 -1.235,-0.408 -2.278,-0.408 -2.352,0 -4.246,1.523 -4.246,4.617 0,2.951 1.835,4.786 4.509,4.786 1.092,0 1.727,-0.228 2.015,-0.372 l -0.264,-0.839 c -0.42,0.204 -1.007,0.371 -1.727,0.371 -2.074,0 -3.49,-1.391 -3.49,-3.909 0,-2.399 1.295,-3.814 3.43,-3.814 0.697,0 1.38,0.155 1.835,0.372 l 0.216,-0.804 z" /><path
       inkscape:connector-curvature="0"
       id="path4608"
       style="fill:#221b19;fill-opacity:1;fill-rule:nonzero;stroke:#0000be;stroke-opacity:1"
       d="m 1782.2832,710.38913 c -0.42,-0.204 -1.235,-0.408 -2.278,-0.408 -2.352,0 -4.246,1.523 -4.246,4.617 0,2.951 1.835,4.786 4.509,4.786 1.092,0 1.727,-0.228 2.015,-0.372 l -0.264,-0.839 c -0.42,0.204 -1.007,0.371 -1.727,0.371 -2.074,0 -3.49,-1.391 -3.49,-3.909 0,-2.399 1.295,-3.814 3.43,-3.814 0.697,0 1.38,0.155 1.835,0.372 l 0.216,-0.804 z" /><path
       inkscape:connector-curvature="0"
       id="path4612"
       style="fill:#221b19;fill-opacity:1;fill-rule:nonzero;stroke:#0000be;stroke-opacity:1"
       d="m 1579.2823,744.39307 c 0.228,-0.048 0.551,-0.06 0.971,-0.06 1.259,0 2.386,0.492 2.386,1.871 0,1.367 -1.187,1.871 -2.398,1.871 l -0.959,0 0,-3.682 z m 1.067,4.449 c 1.211,0 1.992,0.696 1.992,1.632 l 0,0.011 c 0,1.08 -0.792,1.548 -2.039,1.548 -0.528,0 -0.84,-0.036 -1.02,-0.084 l 0,-3.107 1.067,0 z m 1.452,-0.335 c 0.863,-0.204 1.882,-0.924 1.882,-2.303 0,-0.816 -0.311,-1.392 -0.731,-1.799 -0.611,-0.6 -1.596,-0.864 -2.975,-0.864 -0.756,0 -1.319,0.06 -1.691,0.096 l 0,8.983 c 0.504,0.108 1.224,0.192 1.967,0.192 1.128,0 1.871,-0.216 2.411,-0.671 0.431,-0.373 0.683,-0.9 0.683,-1.583 0,-0.9 -0.612,-1.68 -1.546,-2.016 l 0,-0.035 z" /><path
       inkscape:connector-curvature="0"
       id="path4616"
       style="fill:#221b19;fill-opacity:1;fill-rule:nonzero;stroke:#0000be;stroke-opacity:1"
       d="m 1613.7823,744.39307 c 0.228,-0.048 0.551,-0.06 0.971,-0.06 1.259,0 2.386,0.492 2.386,1.871 0,1.367 -1.187,1.871 -2.398,1.871 l -0.959,0 0,-3.682 z m 1.067,4.449 c 1.211,0 1.992,0.696 1.992,1.632 l 0,0.011 c 0,1.08 -0.792,1.548 -2.039,1.548 -0.528,0 -0.84,-0.036 -1.02,-0.084 l 0,-3.107 1.067,0 z m 1.452,-0.335 c 0.863,-0.204 1.882,-0.924 1.882,-2.303 0,-0.816 -0.311,-1.392 -0.731,-1.799 -0.611,-0.6 -1.596,-0.864 -2.975,-0.864 -0.756,0 -1.319,0.06 -1.691,0.096 l 0,8.983 c 0.504,0.108 1.224,0.192 1.967,0.192 1.128,0 1.871,-0.216 2.411,-0.671 0.431,-0.373 0.683,-0.9 0.683,-1.583 0,-0.9 -0.612,-1.68 -1.546,-2.016 l 0,-0.035 z" /><path
       inkscape:connector-curvature="0"
       id="path4620"
       style="fill:#221b19;fill-opacity:1;fill-rule:nonzero;stroke:#0000be;stroke-opacity:1"
       d="m 1648.2823,744.39307 c 0.228,-0.048 0.551,-0.06 0.971,-0.06 1.259,0 2.386,0.492 2.386,1.871 0,1.367 -1.187,1.871 -2.398,1.871 l -0.959,0 0,-3.682 z m 1.067,4.449 c 1.211,0 1.992,0.696 1.992,1.632 l 0,0.011 c 0,1.08 -0.792,1.548 -2.039,1.548 -0.528,0 -0.84,-0.036 -1.02,-0.084 l 0,-3.107 1.067,0 z m 1.452,-0.335 c 0.863,-0.204 1.882,-0.924 1.882,-2.303 0,-0.816 -0.311,-1.392 -0.731,-1.799 -0.611,-0.6 -1.596,-0.864 -2.975,-0.864 -0.756,0 -1.319,0.06 -1.691,0.096 l 0,8.983 c 0.504,0.108 1.224,0.192 1.967,0.192 1.128,0 1.871,-0.216 2.411,-0.671 0.431,-0.373 0.683,-0.9 0.683,-1.583 0,-0.9 -0.612,-1.68 -1.546,-2.016 l 0,-0.035 z" /><path
       inkscape:connector-curvature="0"
       id="path4624"
       style="fill:#221b19;fill-opacity:1;fill-rule:nonzero;stroke:#0000be;stroke-opacity:1"
       d="m 1796.2823,744.39307 c 0.228,-0.048 0.551,-0.06 0.971,-0.06 1.259,0 2.386,0.492 2.386,1.871 0,1.367 -1.187,1.871 -2.398,1.871 l -0.959,0 0,-3.682 z m 1.067,4.449 c 1.211,0 1.992,0.696 1.992,1.632 l 0,0.011 c 0,1.08 -0.792,1.548 -2.039,1.548 -0.528,0 -0.84,-0.036 -1.02,-0.084 l 0,-3.107 1.067,0 z m 1.452,-0.335 c 0.863,-0.204 1.882,-0.924 1.882,-2.303 0,-0.816 -0.311,-1.392 -0.731,-1.799 -0.611,-0.6 -1.596,-0.864 -2.975,-0.864 -0.756,0 -1.319,0.06 -1.691,0.096 l 0,8.983 c 0.504,0.108 1.224,0.192 1.967,0.192 1.128,0 1.871,-0.216 2.411,-0.671 0.431,-0.373 0.683,-0.9 0.683,-1.583 0,-0.9 -0.612,-1.68 -1.546,-2.016 l 0,-0.035 z" /><path
       inkscape:connector-curvature="0"
       id="path4628"
       style="fill:#221b19;fill-opacity:1;fill-rule:nonzero;stroke:#0000be;stroke-opacity:1"
       d="m 1830.7823,744.39307 c 0.228,-0.048 0.551,-0.06 0.971,-0.06 1.259,0 2.386,0.492 2.386,1.871 0,1.367 -1.187,1.871 -2.398,1.871 l -0.959,0 0,-3.682 z m 1.067,4.449 c 1.211,0 1.992,0.696 1.992,1.632 l 0,0.011 c 0,1.08 -0.792,1.548 -2.039,1.548 -0.528,0 -0.84,-0.036 -1.02,-0.084 l 0,-3.107 1.067,0 z m 1.452,-0.335 c 0.863,-0.204 1.882,-0.924 1.882,-2.303 0,-0.816 -0.311,-1.392 -0.731,-1.799 -0.611,-0.6 -1.596,-0.864 -2.975,-0.864 -0.756,0 -1.319,0.06 -1.691,0.096 l 0,8.983 c 0.504,0.108 1.224,0.192 1.967,0.192 1.128,0 1.871,-0.216 2.411,-0.671 0.431,-0.373 0.683,-0.9 0.683,-1.583 0,-0.9 -0.612,-1.68 -1.546,-2.016 l 0,-0.035 z" /><path
       inkscape:connector-curvature="0"
       id="path4632"
       style="fill:#221b19;fill-opacity:1;fill-rule:nonzero;stroke:#0000be;stroke-opacity:1"
       d="m 1865.2823,744.39307 c 0.228,-0.048 0.551,-0.06 0.971,-0.06 1.259,0 2.386,0.492 2.386,1.871 0,1.367 -1.187,1.871 -2.398,1.871 l -0.959,0 0,-3.682 z m 1.067,4.449 c 1.211,0 1.992,0.696 1.992,1.632 l 0,0.011 c 0,1.08 -0.792,1.548 -2.039,1.548 -0.528,0 -0.84,-0.036 -1.02,-0.084 l 0,-3.107 1.067,0 z m 1.452,-0.335 c 0.863,-0.204 1.882,-0.924 1.882,-2.303 0,-0.816 -0.311,-1.392 -0.731,-1.799 -0.611,-0.6 -1.596,-0.864 -2.975,-0.864 -0.756,0 -1.319,0.06 -1.691,0.096 l 0,8.983 c 0.504,0.108 1.224,0.192 1.967,0.192 1.128,0 1.871,-0.216 2.411,-0.671 0.431,-0.373 0.683,-0.9 0.683,-1.583 0,-0.9 -0.612,-1.68 -1.546,-2.016 l 0,-0.035 z" /><path
       inkscape:connector-curvature="0"
       id="path4636"
       style="fill:#221b19;fill-opacity:1;fill-rule:nonzero;stroke:#0000be;stroke-opacity:1"
       d="m 1741.6192,533.34963 -0.899,2.71 c -0.192,0.624 -0.348,1.2 -0.468,1.74 l -0.036,0 c -0.119,-0.552 -0.287,-1.128 -0.455,-1.703 l -0.913,-2.747 2.771,0 z m 2.243,-3.754 -1.055,0 -0.984,2.962 -3.178,0 -0.96,-2.962 -1.019,0 3.022,9.139 1.152,0 3.022,-9.139 z" /><path
       inkscape:connector-curvature="0"
       id="path4640"
       style="fill:#221b19;fill-opacity:1;fill-rule:nonzero;stroke:#0000be;stroke-opacity:1"
       d="m 1508.1475,406.59563 -4.822,0 0,9.139 4.617,0 0,-0.84 -3.621,0 0,-3.094 3.406,0 0,-0.828 -3.406,0 0,-3.537 3.826,0 0,-0.84 z" /><path
       inkscape:connector-curvature="0"
       id="path4644"
       style="fill:#221b19;fill-opacity:1;fill-rule:nonzero;stroke:#0000be;stroke-opacity:1"
       d="m 1548.0879,445.21673 c -0.491,-0.191 -1.451,-0.467 -2.603,-0.467 -3.585,0 -4.437,2.674 -4.437,4.606 0,2.782 1.811,4.713 4.678,4.713 0.875,0 1.654,-0.168 2.11,-0.383 l -0.264,-0.828 c -0.444,0.203 -1.019,0.371 -1.871,0.371 -2.159,0 -3.61,-1.391 -3.61,-3.814 0,-2.47 1.38,-3.849 3.467,-3.849 0.767,0 1.283,0.12 1.547,0.263 l 0,2.927 -1.848,0 0,0.803 2.831,0 0,-4.342 z" /><path
       inkscape:connector-curvature="0"
       id="path4648"
       style="fill:#221b19;fill-opacity:1;fill-rule:nonzero;stroke:#0000be;stroke-opacity:1"
       d="m 1542.5713,213.63673 c 0.3,-0.047 0.731,-0.06 1.163,-0.06 2.471,0 3.825,1.404 3.825,4.019 0,2.374 -1.27,3.657 -3.644,3.657 -0.576,0 -1.032,-0.059 -1.344,-0.12 l 0,-7.496 z m -0.996,8.229 c 0.672,0.107 1.451,0.191 2.303,0.191 3.67,0 4.725,-2.171 4.725,-4.414 0,-1.451 -0.384,-2.686 -1.247,-3.586 -0.804,-0.827 -2.135,-1.283 -3.802,-1.283 -0.755,0 -1.403,0.024 -1.979,0.095 l 0,8.997 z" /><path
       inkscape:connector-curvature="0"
       id="path4652"
       style="fill:#221b19;fill-opacity:1;fill-rule:nonzero;stroke:#0000be;stroke-opacity:1"
       d="m 1726.8252,406.59563 0,9.139 4.605,0 0,-0.84 -3.609,0 0,-3.25 3.322,0 0,-0.827 -3.322,0 0,-4.222 -0.996,0 z" /><path
       inkscape:connector-curvature="0"
       id="path4656"
       style="fill:#221b19;fill-opacity:1;fill-rule:nonzero;stroke:#0000be;stroke-opacity:1"
       d="m 1832.9307,551.63623 0,9.391 c -0.479,-0.636 -1.259,-1.452 -2.015,-2.015 l -0.395,0.647 c 1.055,0.816 2.098,2.003 2.782,3.071 0.684,-1.068 1.728,-2.255 2.782,-3.071 l -0.395,-0.647 c -0.755,0.563 -1.535,1.379 -2.015,2.015 l 0,-9.391 -0.744,0 z" /><path
       inkscape:connector-curvature="0"
       id="path4660"
       style="fill:#221b19;fill-opacity:1;fill-rule:nonzero;stroke:#0000be;stroke-opacity:1"
       d="m 1615.9307,214.63673 0,9.391 c -0.479,-0.636 -1.259,-1.452 -2.015,-2.016 l -0.395,0.648 c 1.055,0.816 2.098,2.002 2.782,3.071 0.684,-1.069 1.728,-2.255 2.782,-3.071 l -0.395,-0.648 c -0.755,0.564 -1.535,1.38 -2.015,2.016 l 0,-9.391 -0.744,0 z" /><path
       inkscape:connector-curvature="0"
       id="path4664"
       style="fill:#221b19;fill-opacity:1;fill-rule:nonzero;stroke:#0000be;stroke-opacity:1"
       d="m 1616.6748,420.33693 0,-9.391 c 0.479,0.636 1.26,1.452 2.015,2.015 l 0.395,-0.647 c -1.055,-0.816 -2.098,-2.003 -2.782,-3.071 -0.684,1.068 -1.728,2.255 -2.782,3.071 l 0.395,0.647 c 0.756,-0.563 1.535,-1.379 2.015,-2.015 l 0,9.391 0.744,0 z" /><path
       inkscape:connector-curvature="0"
       id="path4668"
       style="fill:#221b19;fill-opacity:1;fill-rule:nonzero;stroke:#0000be;stroke-opacity:1"
       d="m 1520.4522,317.11523 0,0.744 9.392,0 c -0.636,0.48 -1.452,1.259 -2.015,2.015 l 0.647,0.395 c 0.816,-1.054 2.003,-2.098 3.071,-2.782 -1.068,-0.684 -2.255,-1.727 -3.071,-2.782 l -0.647,0.395 c 0.563,0.755 1.379,1.536 2.015,2.015 l -9.392,0 z" /><path
       inkscape:connector-curvature="0"
       id="path4672"
       style="fill:#221b19;fill-opacity:1;fill-rule:nonzero;stroke:#0000be;stroke-opacity:1"
       d="m 1714.1534,317.11523 -9.391,0 c 0.636,-0.479 1.452,-1.26 2.016,-2.015 l -0.648,-0.395 c -0.816,1.055 -2.002,2.098 -3.071,2.782 1.069,0.684 2.255,1.728 3.071,2.782 l 0.648,-0.395 c -0.564,-0.756 -1.38,-1.535 -2.016,-2.015 l 9.391,0 0,-0.744 z" /><path
       inkscape:connector-curvature="0"
       id="path4676"
       style="fill:#221b19;fill-opacity:1;fill-rule:nonzero;stroke:#0000be;stroke-opacity:1"
       d="m 1530.2832,653.38913 c -0.42,-0.204 -1.235,-0.408 -2.278,-0.408 -2.352,0 -4.246,1.523 -4.246,4.617 0,2.951 1.835,4.786 4.509,4.786 1.092,0 1.727,-0.228 2.015,-0.372 l -0.264,-0.839 c -0.42,0.204 -1.007,0.371 -1.727,0.371 -2.074,0 -3.49,-1.391 -3.49,-3.909 0,-2.399 1.295,-3.814 3.43,-3.814 0.697,0 1.38,0.155 1.835,0.372 l 0.216,-0.804 z" /><path
       inkscape:connector-curvature="0"
       id="path4680"
       style="fill:#221b19;fill-opacity:1;fill-rule:nonzero;stroke:#0000be;stroke-opacity:1"
       d="m 1530.2832,618.38913 c -0.42,-0.204 -1.235,-0.408 -2.278,-0.408 -2.352,0 -4.246,1.523 -4.246,4.617 0,2.951 1.835,4.786 4.509,4.786 1.092,0 1.727,-0.228 2.015,-0.372 l -0.264,-0.839 c -0.42,0.204 -1.007,0.371 -1.727,0.371 -2.074,0 -3.49,-1.391 -3.49,-3.909 0,-2.399 1.295,-3.814 3.43,-3.814 0.697,0 1.38,0.155 1.835,0.372 l 0.216,-0.804 z" /><path
       inkscape:connector-curvature="0"
       id="path4684"
       style="fill:#221b19;fill-opacity:1;fill-rule:nonzero;stroke:#0000be;stroke-opacity:1"
       d="m 1512.2334,871.59567 -1.992,0 0,7.729 c 0,2.136 -0.769,3.984 -3.026,3.984 -1.535,0 -3.455,-1.272 -3.455,-3.672 l 0,-8.041 -1.992,0 0,19.202 1.992,0 0,-8.137 0.047,0 c 0.865,1.44 2.449,2.328 4.057,2.328 1.608,0 4.369,-0.984 4.369,-5.424 l 0,-7.969 z" /><path
       inkscape:connector-curvature="0"
       id="path4688"
       style="fill:#221b19;fill-opacity:1;fill-rule:nonzero;stroke:#0000be;stroke-opacity:1"
       d="m 1521.1846,883.42877 c -2.833,0 -4.009,-2.784 -4.009,-5.305 0,-2.903 1.609,-5.256 3.96,-5.256 2.377,0 4.033,2.353 4.033,5.305 0,2.328 -1.129,5.256 -3.984,5.256 m 6.023,-5.185 c 0,-4.872 -3.215,-6.936 -6.12,-6.936 -3.36,0 -5.952,2.52 -5.952,6.745 0,4.464 2.784,6.936 6.12,6.936 3.577,0 5.952,-2.736 5.952,-6.745" /><path
       inkscape:connector-curvature="0"
       id="path4692"
       style="fill:#221b19;fill-opacity:1;fill-rule:nonzero;stroke:#0000be;stroke-opacity:1"
       d="m 1547.0323,884.70067 -4.152,-13.105 -1.776,0 -2.064,6.577 c -0.481,1.487 -0.84,2.808 -1.153,4.32 l -0.072,0 c -0.311,-1.56 -0.72,-2.928 -1.199,-4.344 l -2.185,-6.553 -1.799,0 -3.866,13.105 2.065,0 1.824,-6.864 c 0.36,-1.465 0.721,-2.809 0.984,-4.153 l 0.073,0 c 0.287,1.296 0.719,2.712 1.152,4.128 l 2.184,6.889 1.728,0 2.088,-6.769 c 0.456,-1.536 0.84,-2.928 1.152,-4.248 l 0.073,0 c 0.24,1.296 0.599,2.664 1.031,4.225 l 1.92,6.792 1.992,0 z" /><path
       inkscape:connector-curvature="0"
       id="path4696"
       style="fill:#221b19;fill-opacity:1;fill-rule:nonzero;stroke:#0000be;stroke-opacity:1"
       d="m 1555.5508,887.05327 1.968,0.672 0,-3.048 3.385,0 0,-1.561 -3.385,0 0,-7.56 c 0,-1.656 0.504,-2.568 1.777,-2.568 0.6,0 1.008,0.072 1.344,0.191 l 0.119,-1.536 c -0.432,-0.192 -1.104,-0.312 -1.943,-0.312 -3.168,0 -3.265,2.881 -3.265,4.273 l 0,7.512 -2.017,0 0,1.561 2.017,0 0,2.376 z" /><path
       inkscape:connector-curvature="0"
       id="path4700"
       style="fill:#221b19;fill-opacity:1;fill-rule:nonzero;stroke:#0000be;stroke-opacity:1"
       d="m 1568.6065,883.42877 c -2.832,0 -4.008,-2.784 -4.008,-5.305 0,-2.903 1.608,-5.256 3.961,-5.256 2.375,0 4.031,2.353 4.031,5.305 0,2.328 -1.127,5.256 -3.984,5.256 m 6.025,-5.185 c 0,-4.872 -3.216,-6.936 -6.121,-6.936 -3.36,0 -5.952,2.52 -5.952,6.745 0,4.464 2.784,6.936 6.12,6.936 3.576,0 5.953,-2.736 5.953,-6.745" /><path
       inkscape:connector-curvature="0"
       id="path4704"
       style="fill:#221b19;fill-opacity:1;fill-rule:nonzero;stroke:#0000be;stroke-opacity:1"
       d="m 1601.0557,871.59567 -1.969,0 0,7.561 c 0,2.544 -0.912,4.176 -2.88,4.176 -1.608,0 -3.072,-1.512 -3.072,-3.504 l 0,-8.233 -1.968,0 0,8.064 c 0,2.089 -0.888,3.673 -2.736,3.673 -1.705,0 -3.217,-1.68 -3.217,-3.72 l 0,-8.017 -1.968,0 0,9.721 c 0,1.344 -0.047,2.304 -0.096,3.384 l 1.753,0 0.12,-2.112 0.072,0 c 0.72,1.272 1.92,2.4 3.984,2.4 1.704,0 3.024,-1.056 3.577,-2.616 l 0.046,0 c 0.866,1.56 2.186,2.616 4.202,2.616 1.607,0 4.152,-1.032 4.152,-5.52 l 0,-7.873 z" /><path
       inkscape:connector-curvature="0"
       id="path4708"
       style="fill:#221b19;fill-opacity:1;fill-rule:nonzero;stroke:#0000be;stroke-opacity:1"
       d="m 1611.5186,878.38817 c -2.473,0 -5.568,-0.36 -5.568,-3.12 0,-1.68 1.055,-2.424 2.255,-2.424 1.945,0 3.313,1.488 3.313,3.072 l 0,2.472 z m 1.969,-3.672 c 0,-1.08 0.023,-2.208 0.191,-3.12 l -1.824,0 -0.191,1.68 -0.073,0 c -0.672,-1.033 -2.016,-1.969 -3.865,-1.969 -2.496,0 -3.816,1.825 -3.816,3.721 0,3.144 2.736,4.848 7.586,4.824 0,1.104 0,3.6 -2.977,3.6 -1.129,0 -2.305,-0.312 -3.193,-0.936 l -0.48,1.369 c 1.056,0.696 2.521,1.104 3.985,1.104 3.696,0 4.657,-2.617 4.657,-5.209 l 0,-5.064 z" /><path
       inkscape:connector-curvature="0"
       id="path4712"
       style="fill:#221b19;fill-opacity:1;fill-rule:nonzero;stroke:#0000be;stroke-opacity:1"
       d="m 1627.4786,871.59567 -2.448,0 -4.512,6.457 -1.201,-1.369 0,-5.088 -1.992,0 0,19.202 1.992,0 0,-12.218 0.049,0 c 0.311,0.456 0.767,1.033 1.127,1.465 l 3.913,4.632 2.4,0 -4.921,-5.4 5.593,-7.681 z" /><path
       inkscape:connector-curvature="0"
       id="path4716"
       style="fill:#221b19;fill-opacity:1;fill-rule:nonzero;stroke:#0000be;stroke-opacity:1"
       d="m 1637.2461,879.39647 c 0.024,1.776 -0.72,4.08 -3.288,4.08 -2.4,0 -3.457,-2.28 -3.649,-4.08 l 6.937,0 z m 1.272,-7.249 c -0.744,-0.36 -2.113,-0.816 -4.105,-0.816 -3.815,0 -6.096,2.689 -6.096,6.601 0,4.104 2.305,7.056 5.832,7.056 4.034,0 5.065,-3.696 5.065,-5.976 0,-0.456 -0.024,-0.792 -0.048,-1.104 l -8.905,0 c 0.025,-3.624 2.089,-4.992 4.441,-4.992 1.632,0 2.615,0.335 3.432,0.671 l 0.384,-1.44 z" /><path
       inkscape:connector-curvature="0"
       id="path4720"
       style="fill:#221b19;fill-opacity:1;fill-rule:nonzero;stroke:none"
       d="m 1005.019,936.61262 c 0.6,-0.096 1.464,-0.12 2.328,-0.12 4.945,0 7.657,2.808 7.657,8.041 0,4.752 -2.544,7.321 -7.297,7.321 -1.152,0 -2.064,-0.12 -2.688,-0.241 l 0,-15.001 z m -1.992,16.466 c 1.344,0.216 2.904,0.384 4.608,0.384 7.345,0 9.457,-4.345 9.457,-8.833 0,-2.904 -0.768,-5.376 -2.496,-7.177 -1.608,-1.656 -4.272,-2.568 -7.609,-2.568 -1.512,0 -2.808,0.048 -3.96,0.192 l 0,18.002 z" /><path
       inkscape:connector-curvature="0"
       id="path4724"
       style="fill:#221b19;fill-opacity:1;fill-rule:nonzero;stroke:none"
       d="m 90.556488,519.97167 0,18.289 9.217,0 0,-1.68 -7.225,0 0,-6.504 6.649,0 0,-1.656 -6.649,0 0,-8.449 -1.992,0 z" /><path
       inkscape:connector-curvature="0"
       id="path4728"
       style="fill:#221b19;fill-opacity:1;fill-rule:nonzero;stroke:none"
       d="m 46.956888,301.25972 c -0.984,-0.385 -2.904,-0.936 -5.208,-0.936 -7.177,0 -8.881,5.352 -8.881,9.217 0,5.569 3.624,9.432 9.36,9.432 1.753,0 3.313,-0.336 4.225,-0.768 l -0.528,-1.656 c -0.888,0.408 -2.04,0.744 -3.744,0.744 -4.321,0 -7.225,-2.784 -7.225,-7.633 0,-4.944 2.76,-7.705 6.937,-7.705 1.536,0 2.568,0.241 3.096,0.53 l 0,5.855 -3.697,0 0,1.608 5.665,0 0,-8.688 z" /><path
       inkscape:connector-curvature="0"
       id="path4732"
       style="fill:#221b19;fill-opacity:1;fill-rule:nonzero;stroke:none"
       d="m 85.663086,755.82387 -9.649,0 0,18.289 9.241,0 0,-1.68 -7.249,0 0,-6.192 6.817,0 0,-1.656 -6.817,0 0,-7.081 7.657,0 0,-1.68 z" /><path
       inkscape:connector-curvature="0"
       id="path4736"
       style="fill:#221b19;fill-opacity:1;fill-rule:nonzero;stroke:#0000be;stroke-opacity:1"
       d="m 1626.333,107.43743 c 0.456,-0.096 1.104,-0.119 1.944,-0.119 2.521,0 4.777,0.984 4.777,3.744 0,2.736 -2.376,3.744 -4.801,3.744 l -1.92,0 0,-7.369 z m 2.137,8.905 c 2.424,0 3.984,1.392 3.984,3.265 l 0,0.023 c 0,2.161 -1.584,3.097 -4.08,3.097 -1.057,0 -1.681,-0.072 -2.041,-0.168 l 0,-6.217 2.137,0 z m 2.904,-0.672 c 1.728,-0.408 3.768,-1.848 3.768,-4.608 0,-1.633 -0.623,-2.784 -1.464,-3.601 -1.224,-1.2 -3.193,-1.727 -5.952,-1.727 -1.513,0 -2.641,0.119 -3.385,0.191 l 0,17.978 c 1.008,0.216 2.448,0.384 3.936,0.384 2.257,0 3.744,-0.432 4.825,-1.344 0.864,-0.744 1.368,-1.801 1.368,-3.168 0,-1.801 -1.225,-3.36 -3.096,-4.033 l 0,-0.072 z" /><path
       inkscape:connector-curvature="0"
       id="path4740"
       style="fill:#221b19;fill-opacity:1;fill-rule:nonzero;stroke:#0000be;stroke-opacity:1"
       d="m 1650.0459,124.16793 -5.881,-10.441 0,-7.849 -1.992,0 0,7.801 -5.568,10.489 2.28,0 2.544,-5.113 c 0.696,-1.367 1.272,-2.544 1.824,-3.864 l 0.072,0 c 0.504,1.224 1.129,2.472 1.848,3.888 l 2.641,5.089 2.232,0 z" /><path
       inkscape:connector-curvature="0"
       id="path4744"
       style="fill:#221b19;fill-opacity:1;fill-rule:nonzero;stroke:#0000be;stroke-opacity:1"
       d="m 1669.5088,124.16793 -5.88,-10.441 0,-7.849 -1.992,0 0,7.801 -5.568,10.489 2.28,0 2.544,-5.113 c 0.696,-1.367 1.272,-2.544 1.824,-3.864 l 0.071,0 c 0.505,1.224 1.129,2.472 1.849,3.888 l 2.64,5.089 2.232,0 z" /><path
       inkscape:connector-curvature="0"
       id="path4748"
       style="fill:#221b19;fill-opacity:1;fill-rule:nonzero;stroke:#0000be;stroke-opacity:1"
       d="m 1678.1241,112.66993 c -2.472,0 -5.568,-0.359 -5.568,-3.119 0,-1.681 1.056,-2.425 2.255,-2.425 1.946,0 3.313,1.488 3.313,3.072 l 0,2.472 z m 1.969,-3.672 c 0,-1.08 0.023,-2.208 0.191,-3.12 l -1.824,0 -0.191,1.681 -0.073,0 c -0.672,-1.034 -2.015,-1.969 -3.864,-1.969 -2.496,0 -3.816,1.824 -3.816,3.721 0,3.144 2.736,4.847 7.585,4.824 0,1.103 0,3.599 -2.977,3.599 -1.128,0 -2.305,-0.311 -3.192,-0.935 l -0.48,1.368 c 1.056,0.696 2.52,1.105 3.984,1.105 3.696,0 4.657,-2.618 4.657,-5.209 l 0,-5.065 z" /><path
       inkscape:connector-curvature="0"
       id="path4752"
       style="fill:#221b19;fill-opacity:1;fill-rule:nonzero;stroke:#0000be;stroke-opacity:1"
       d="m 1701.7412,105.87793 -1.968,0 0,7.561 c 0,2.543 -0.912,4.176 -2.88,4.176 -1.608,0 -3.072,-1.511 -3.072,-3.504 l 0,-8.233 -1.969,0 0,8.064 c 0,2.089 -0.887,3.673 -2.736,3.673 -1.704,0 -3.216,-1.68 -3.216,-3.72 l 0,-8.017 -1.968,0 0,9.721 c 0,1.344 -0.048,2.303 -0.096,3.383 l 1.753,0 0.119,-2.111 0.072,0 c 0.721,1.272 1.92,2.401 3.984,2.401 1.705,0 3.024,-1.057 3.577,-2.618 l 0.047,0 c 0.865,1.561 2.185,2.618 4.201,2.618 1.608,0 4.152,-1.034 4.152,-5.522 l 0,-7.872 z" /><path
       inkscape:connector-curvature="0"
       id="path4756"
       style="fill:#221b19;fill-opacity:1;fill-rule:nonzero;stroke:#0000be;stroke-opacity:1"
       d="m 1712.2041,112.66993 c -2.472,0 -5.568,-0.359 -5.568,-3.119 0,-1.681 1.056,-2.425 2.255,-2.425 1.946,0 3.313,1.488 3.313,3.072 l 0,2.472 z m 1.969,-3.672 c 0,-1.08 0.023,-2.208 0.191,-3.12 l -1.824,0 -0.191,1.681 -0.073,0 c -0.672,-1.034 -2.015,-1.969 -3.864,-1.969 -2.496,0 -3.816,1.824 -3.816,3.721 0,3.144 2.736,4.847 7.585,4.824 0,1.103 0,3.599 -2.977,3.599 -1.128,0 -2.305,-0.311 -3.192,-0.935 l -0.48,1.368 c 1.056,0.696 2.52,1.105 3.984,1.105 3.696,0 4.657,-2.618 4.657,-5.209 l 0,-5.065 z" /><path
       inkscape:connector-curvature="0"
       id="path4760"
       style="fill:#221b19;fill-opacity:1;fill-rule:nonzero;stroke:#0000be;stroke-opacity:1"
       d="m 1724.1328,116.96673 c -0.479,0.313 -1.368,0.768 -2.544,0.768 -1.44,0 -2.209,-0.888 -2.209,-1.944 0,-1.129 0.744,-1.656 2.425,-2.377 2.112,-0.863 3.336,-1.968 3.336,-3.935 0,-2.328 -1.777,-3.866 -4.632,-3.866 -1.297,0 -2.545,0.362 -3.433,0.889 l 0.552,1.536 c 0.696,-0.408 1.824,-0.887 2.953,-0.887 1.752,0 2.615,0.935 2.615,2.111 0,1.225 -0.695,1.896 -2.423,2.593 -2.209,0.887 -3.336,2.112 -3.336,3.696 0,2.04 1.632,3.721 4.271,3.721 1.248,0 2.305,-0.361 3,-0.793 l -0.575,-1.512 z" /><path
       inkscape:connector-curvature="0"
       id="path4764"
       style="fill:#221b19;fill-opacity:1;fill-rule:nonzero;stroke:#0000be;stroke-opacity:1"
       d="m 1738.6534,105.87793 -1.992,0 0,7.729 c 0,2.135 -0.769,3.984 -3.026,3.984 -1.535,0 -3.455,-1.273 -3.455,-3.673 l 0,-8.04 -1.992,0 0,19.202 1.992,0 0,-8.137 0.047,0 c 0.865,1.44 2.449,2.329 4.057,2.329 1.608,0 4.369,-0.985 4.369,-5.425 l 0,-7.969 z" /><path
       d="m 1744.5077,105.87803 -1.992,0 0,13.081 1.992,0 0,-13.081 z m -1.009,15.386 c -0.767,0 -1.295,0.599 -1.295,1.367 0,0.744 0.551,1.345 1.32,1.345 0.792,0 1.296,-0.601 1.296,-1.345 0,-0.84 -0.552,-1.367 -1.321,-1.367"
       style="fill:#221b19;fill-opacity:1;fill-rule:nonzero;stroke:#0000be;stroke-opacity:1"
       id="path4766"
       inkscape:connector-curvature="0" /><path
       inkscape:connector-curvature="0"
       id="path4770"
       style="fill:#221b19;fill-opacity:1;fill-rule:nonzero;stroke:#0000be;stroke-opacity:1"
       d="m 1748.9952,121.33593 1.969,0.672 0,-3.049 3.384,0 0,-1.561 -3.384,0 0,-7.56 c 0,-1.656 0.504,-2.568 1.775,-2.568 0.601,0 1.008,0.072 1.344,0.192 l 0.121,-1.536 c -0.433,-0.192 -1.105,-0.313 -1.944,-0.313 -3.169,0 -3.265,2.881 -3.265,4.274 l 0,7.511 -2.016,0 0,1.561 2.016,0 0,2.377 z" /><path
       inkscape:connector-curvature="0"
       id="path4774"
       style="fill:#221b19;fill-opacity:1;fill-rule:nonzero;stroke:#0000be;stroke-opacity:1"
       d="m 1763.5635,112.66993 c -2.473,0 -5.568,-0.359 -5.568,-3.119 0,-1.681 1.055,-2.425 2.255,-2.425 1.945,0 3.313,1.488 3.313,3.072 l 0,2.472 z m 1.969,-3.672 c 0,-1.08 0.023,-2.208 0.191,-3.12 l -1.824,0 -0.191,1.681 -0.073,0 c -0.672,-1.034 -2.016,-1.969 -3.865,-1.969 -2.496,0 -3.816,1.824 -3.816,3.721 0,3.144 2.736,4.847 7.586,4.824 0,1.103 0,3.599 -2.977,3.599 -1.129,0 -2.305,-0.311 -3.193,-0.935 l -0.48,1.368 c 1.056,0.696 2.521,1.105 3.985,1.105 3.696,0 4.657,-2.618 4.657,-5.209 l 0,-5.065 z" /><path
       inkscape:connector-curvature="0"
       id="path4778"
       style="fill:#221b19;fill-opacity:1;fill-rule:nonzero;stroke:#0000be;stroke-opacity:1"
       d="m 1787.0596,105.87793 -2.353,0 -5.976,9.169 -1.704,-1.992 0,-7.177 -1.992,0 0,18.29 1.992,0 0,-8.93 0.095,0 c 0.458,0.697 0.961,1.369 1.417,1.969 l 5.568,6.961 2.449,0 -6.434,-7.777 6.938,-10.513 z" /><path
       inkscape:connector-curvature="0"
       id="path4782"
       style="fill:#221b19;fill-opacity:1;fill-rule:nonzero;stroke:#0000be;stroke-opacity:1"
       d="m 1796.8506,113.67873 c 0.024,1.776 -0.72,4.08 -3.288,4.08 -2.4,0 -3.456,-2.28 -3.648,-4.08 l 6.936,0 z m 1.272,-7.249 c -0.744,-0.359 -2.112,-0.816 -4.104,-0.816 -3.816,0 -6.096,2.689 -6.096,6.601 0,4.104 2.304,7.057 5.832,7.057 4.033,0 5.065,-3.697 5.065,-5.977 0,-0.457 -0.025,-0.793 -0.049,-1.104 l -8.904,0 c 0.024,-3.624 2.088,-4.992 4.44,-4.992 1.632,0 2.616,0.335 3.433,0.671 l 0.383,-1.44 z" /><path
       inkscape:connector-curvature="0"
       id="path4786"
       style="fill:#221b19;fill-opacity:1;fill-rule:nonzero;stroke:#0000be;stroke-opacity:1"
       d="m 1812.2588,105.87793 -1.992,0 0,7.729 c 0,2.135 -0.768,4.008 -3.049,4.008 -1.703,0 -3.432,-1.44 -3.432,-3.72 l 0,-8.017 -1.992,0 0,9.721 c 0,1.344 -0.048,2.328 -0.096,3.383 l 1.776,0 0.121,-2.135 0.047,0 c 0.648,1.272 2.16,2.425 4.201,2.425 1.632,0 4.416,-0.985 4.416,-5.425 l 0,-7.969 z" /><path
       inkscape:connector-curvature="0"
       id="path4790"
       style="fill:#221b19;fill-opacity:1;fill-rule:nonzero;stroke:#0000be;stroke-opacity:1"
       d="m 1827.0655,120.32713 1.537,0 0,-6.48 6.24,0 0,-1.441 -6.24,0 0,-6.528 -1.537,0 0,6.528 -6.24,0 0,1.441 6.24,0 0,6.48 z" /><path
       inkscape:connector-curvature="0"
       id="path4794"
       style="fill:#221b19;fill-opacity:1;fill-rule:nonzero;stroke:#0000be;stroke-opacity:1"
       d="m 1843.6963,118.95893 c 0,1.633 0,3.769 1.441,5.232 0.864,0.84 1.993,1.176 3.024,1.176 0.84,0 1.512,-0.191 1.944,-0.384 l -0.336,-1.559 c -0.36,0.143 -0.816,0.311 -1.512,0.311 -2.065,0 -2.569,-1.92 -2.569,-4.032 l 0,-0.744 3.169,0 0,-1.561 -3.169,0 0,-11.52 -1.992,0 0,11.52 -1.8,0 0,1.561 1.8,0 z" /><path
       inkscape:connector-curvature="0"
       id="path4798"
       style="fill:#221b19;fill-opacity:1;fill-rule:nonzero;stroke:#0000be;stroke-opacity:1"
       d="m 1850.3682,107.10153 c 0,0.912 0.601,1.561 1.441,1.561 0.84,0 1.416,-0.649 1.416,-1.561 0,-0.863 -0.552,-1.512 -1.441,-1.512 -0.911,0 -1.416,0.721 -1.416,1.512" /><path
       inkscape:connector-curvature="0"
       id="path4802"
       style="fill:#221b19;fill-opacity:1;fill-rule:nonzero;stroke:#0000be;stroke-opacity:1"
       d="m 1865.7774,105.87793 -9.553,0 0,18.29 1.992,0 0,-16.586 7.561,0 0,-1.704 z" /><path
       inkscape:connector-curvature="0"
       id="path4806"
       style="fill:#221b19;fill-opacity:1;fill-rule:nonzero;stroke:#0000be;stroke-opacity:1"
       d="m 1874.8975,112.66993 c -2.473,0 -5.568,-0.359 -5.568,-3.119 0,-1.681 1.055,-2.425 2.255,-2.425 1.945,0 3.313,1.488 3.313,3.072 l 0,2.472 z m 1.969,-3.672 c 0,-1.08 0.023,-2.208 0.191,-3.12 l -1.824,0 -0.191,1.681 -0.073,0 c -0.672,-1.034 -2.016,-1.969 -3.865,-1.969 -2.496,0 -3.816,1.824 -3.816,3.721 0,3.144 2.736,4.847 7.586,4.824 0,1.103 0,3.599 -2.977,3.599 -1.129,0 -2.305,-0.311 -3.193,-0.935 l -0.48,1.368 c 1.056,0.696 2.521,1.105 3.985,1.105 3.696,0 4.657,-2.618 4.657,-5.209 l 0,-5.065 z" /><path
       inkscape:connector-curvature="0"
       id="path4810"
       style="fill:#221b19;fill-opacity:1;fill-rule:nonzero;stroke:#0000be;stroke-opacity:1"
       d="m 1882.6963,110.99023 c 0,-1.943 1.465,-3.768 3.673,-3.768 2.544,0 3.96,2.184 3.96,5.28 0,2.736 -1.344,5.136 -3.889,5.136 -2.279,0 -3.744,-2.135 -3.744,-4.056 l 0,-2.592 z m 0.049,5.856 c 0.815,1.513 2.304,2.425 4.344,2.425 3.096,0 5.281,-2.664 5.281,-6.697 0,-4.752 -2.904,-6.984 -5.617,-6.984 -1.897,0 -3.288,0.767 -4.225,2.448 l -0.072,0 -0.119,-2.16 -1.729,0 c 0.048,0.864 0.096,2.184 0.096,3.24 l 0,15.962 1.992,0 0,-8.234 0.049,0 z" /><path
       inkscape:connector-curvature="0"
       id="path4814"
       style="fill:#221b19;fill-opacity:1;fill-rule:nonzero;stroke:#0000be;stroke-opacity:1"
       d="m 1900.4571,117.71093 c -2.832,0 -4.009,-2.784 -4.009,-5.305 0,-2.904 1.609,-5.256 3.961,-5.256 2.376,0 4.032,2.352 4.032,5.305 0,2.328 -1.128,5.256 -3.984,5.256 m 6.024,-5.185 c 0,-4.872 -3.216,-6.936 -6.121,-6.936 -3.359,0 -5.951,2.52 -5.951,6.744 0,4.465 2.783,6.938 6.119,6.938 3.577,0 5.953,-2.737 5.953,-6.746" /><path
       d="m 1690.5407,688.81803 -148.819,0 0,7.086 148.819,0 0,-7.086 z"
       style="fill:none;stroke:#0000be;stroke-width:0.25;stroke-linecap:butt;stroke-linejoin:miter;stroke-miterlimit:4;stroke-dasharray:none;stroke-opacity:1"
       id="path4816"
       inkscape:connector-curvature="0" /><path
       d="m 1690.5407,653.38503 -148.819,0 0,7.086 148.819,0 0,-7.086 z"
       style="fill:none;stroke:#0000be;stroke-width:0.25;stroke-linecap:butt;stroke-linejoin:miter;stroke-miterlimit:4;stroke-dasharray:none;stroke-opacity:1"
       id="path4818"
       inkscape:connector-curvature="0" /><path
       d="m 1690.5407,617.95203 -148.819,0 0,7.086 148.819,0 0,-7.086 z"
       style="fill:none;stroke:#0000be;stroke-width:0.25;stroke-linecap:butt;stroke-linejoin:miter;stroke-miterlimit:4;stroke-dasharray:none;stroke-opacity:1"
       id="path4820"
       inkscape:connector-curvature="0" /><path
       d="m 1584.2417,582.51903 -7.086,0 0,148.81904 7.086,0 0,-148.81904 z"
       style="fill:none;stroke:#0000be;stroke-width:0.25;stroke-linecap:butt;stroke-linejoin:miter;stroke-miterlimit:4;stroke-dasharray:none;stroke-opacity:1"
       id="path4822"
       inkscape:connector-curvature="0" /><path
       d="m 1619.6747,582.51903 -7.087,0 0,148.81904 7.087,0 0,-148.81904 z"
       style="fill:none;stroke:#0000be;stroke-width:0.25;stroke-linecap:butt;stroke-linejoin:miter;stroke-miterlimit:4;stroke-dasharray:none;stroke-opacity:1"
       id="path4824"
       inkscape:connector-curvature="0" /><path
       d="m 1655.1077,582.51903 -7.086,0 0,148.81904 7.086,0 0,-148.81904 z"
       style="fill:none;stroke:#0000be;stroke-width:0.25;stroke-linecap:butt;stroke-linejoin:miter;stroke-miterlimit:4;stroke-dasharray:none;stroke-opacity:1"
       id="path4826"
       inkscape:connector-curvature="0" /><path
       d="m 1801.2377,582.51903 -7.086,0 0,148.81904 7.086,0 0,-148.81904 z"
       style="fill:#ffffff;fill-opacity:1;fill-rule:nonzero;stroke:#0000be;stroke-width:0.25;stroke-linecap:butt;stroke-linejoin:miter;stroke-miterlimit:4;stroke-dasharray:none;stroke-opacity:1"
       id="path4828"
       inkscape:connector-curvature="0" /><path
       d="m 1836.6707,582.51903 -7.087,0 0,148.81904 7.087,0 0,-148.81904 z"
       style="fill:#ffffff;fill-opacity:1;fill-rule:nonzero;stroke:#0000be;stroke-width:0.25;stroke-linecap:butt;stroke-linejoin:miter;stroke-miterlimit:4;stroke-dasharray:none;stroke-opacity:1"
       id="path4830"
       inkscape:connector-curvature="0" /><path
       d="m 1872.1037,582.51903 -7.086,0 0,148.81904 7.086,0 0,-148.81904 z"
       style="fill:#ffffff;fill-opacity:1;fill-rule:nonzero;stroke:#0000be;stroke-width:0.25;stroke-linecap:butt;stroke-linejoin:miter;stroke-miterlimit:4;stroke-dasharray:none;stroke-opacity:1"
       id="path4832"
       inkscape:connector-curvature="0" /><path
       inkscape:connector-curvature="0"
       id="path4836"
       style="fill:#0e0f0f;fill-opacity:1;fill-rule:nonzero;stroke:#0000be;stroke-opacity:1"
       d="m 1509.1592,783.08397 0,24.153 -0.072,0 -4.428,-2.556 -0.72,2.232 5.579,3.131 2.556,0 0,-26.96 -2.915,0 z" /><path
       inkscape:connector-curvature="0"
       id="path4840"
       style="fill:#0e0f0f;fill-opacity:1;fill-rule:nonzero;stroke:#0000be;stroke-opacity:1"
       d="m 1529.4805,800.46537 1.148,0.392 0,-1.779 1.976,0 0,-0.91 -1.976,0 0,-4.413 c 0,-0.966 0.294,-1.498 1.037,-1.498 0.35,0 0.588,0.041 0.785,0.111 l 0.07,-0.896 c -0.253,-0.112 -0.644,-0.182 -1.135,-0.182 -1.849,0 -1.905,1.681 -1.905,2.493 l 0,4.385 -1.177,0 0,0.91 1.177,0 0,1.387 z" /><path
       inkscape:connector-curvature="0"
       id="path4844"
       style="fill:#0e0f0f;fill-opacity:1;fill-rule:nonzero;stroke:#0000be;stroke-opacity:1"
       d="m 1537.0977,798.35007 c -1.653,0 -2.339,-1.625 -2.339,-3.096 0,-1.695 0.938,-3.068 2.311,-3.068 1.386,0 2.353,1.373 2.353,3.096 0,1.359 -0.658,3.068 -2.325,3.068 m 3.517,-3.026 c 0,-2.843 -1.877,-4.048 -3.573,-4.048 -1.961,0 -3.474,1.471 -3.474,3.936 0,2.606 1.625,4.049 3.572,4.049 2.088,0 3.475,-1.598 3.475,-3.937" /><path
       inkscape:connector-curvature="0"
       id="path4848"
       style="fill:#0e0f0f;fill-opacity:1;fill-rule:nonzero;stroke:#0000be;stroke-opacity:1"
       d="m 1543.5362,794.48387 c 0,-1.485 1.107,-2.269 2.145,-2.269 1.498,0 2.324,1.289 2.324,3.109 0,1.583 -0.798,2.984 -2.283,2.984 -1.303,0 -2.186,-1.261 -2.186,-2.367 l 0,-1.457 z m -0.069,3.306 c 0.532,0.939 1.415,1.471 2.605,1.471 1.808,0 3.11,-1.555 3.11,-3.895 0,-2.801 -1.639,-4.09 -3.32,-4.09 -1.009,0 -1.849,0.462 -2.297,1.219 l -0.029,0 0,-4.174 -1.162,0 0,8.306 c 0,0.995 -0.027,1.765 -0.056,2.465 l 1.05,0 0.07,-1.302 0.029,0 z" /><path
       d="m 1690.5407,349.94203 -148.819,0 0,7.087 148.819,0 0,-7.087 z"
       style="fill:#ffffff;fill-opacity:1;fill-rule:nonzero;stroke:#0000be;stroke-width:0.25;stroke-linecap:butt;stroke-linejoin:miter;stroke-miterlimit:4;stroke-dasharray:none;stroke-opacity:1"
       id="path4850"
       inkscape:connector-curvature="0" /><path
       d="m 1690.5407,314.51003 -148.819,0 0,7.086 148.819,0 0,-7.086 z"
       style="fill:#ffffff;fill-opacity:1;fill-rule:nonzero;stroke:#0000be;stroke-width:0.25;stroke-linecap:butt;stroke-linejoin:miter;stroke-miterlimit:4;stroke-dasharray:none;stroke-opacity:1"
       id="path4852"
       inkscape:connector-curvature="0" /><path
       d="m 1690.5407,279.07603 -148.819,0 0,7.086 148.819,0 0,-7.086 z"
       style="fill:#ffffff;fill-opacity:1;fill-rule:nonzero;stroke:#0000be;stroke-width:0.25;stroke-linecap:butt;stroke-linejoin:miter;stroke-miterlimit:4;stroke-dasharray:none;stroke-opacity:1"
       id="path4854"
       inkscape:connector-curvature="0" /><path
       d="m 1584.2417,243.64303 -7.086,0 0,148.819 7.086,0 0,-148.819 z"
       style="fill:#ffffff;fill-opacity:1;fill-rule:nonzero;stroke:#0000be;stroke-width:0.25;stroke-linecap:butt;stroke-linejoin:miter;stroke-miterlimit:4;stroke-dasharray:none;stroke-opacity:1"
       id="path4856"
       inkscape:connector-curvature="0" /><path
       d="m 1619.6747,243.64303 -7.087,0 0,148.819 7.087,0 0,-148.819 z"
       style="fill:#ffffff;fill-opacity:1;fill-rule:nonzero;stroke:#0000be;stroke-width:0.25;stroke-linecap:butt;stroke-linejoin:miter;stroke-miterlimit:4;stroke-dasharray:none;stroke-opacity:1"
       id="path4858"
       inkscape:connector-curvature="0" /><path
       d="m 1655.1077,243.64303 -7.086,0 0,148.819 7.086,0 0,-148.819 z"
       style="fill:#ffffff;fill-opacity:1;fill-rule:nonzero;stroke:#0000be;stroke-width:0.25;stroke-linecap:butt;stroke-linejoin:miter;stroke-miterlimit:4;stroke-dasharray:none;stroke-opacity:1"
       id="path4860"
       inkscape:connector-curvature="0" /><path
       inkscape:connector-curvature="0"
       id="path4864"
       style="fill:#0e0f0f;fill-opacity:1;fill-rule:nonzero;stroke:#0000be;stroke-opacity:1"
       d="m 1511.1026,488.78613 c 3.168,-0.54 5.867,-3.096 5.867,-6.983 0,-4.284 -3.096,-8.028 -9.142,-8.028 -2.701,0 -5.148,0.865 -6.371,1.729 l 0.899,2.303 c 0.972,-0.647 3.132,-1.62 5.507,-1.62 4.536,0 6.011,3.168 6.011,5.652 0,3.96 -3.347,5.759 -6.875,5.759 l -1.763,0 0,2.232 1.763,0 c 2.592,0 5.94,1.619 5.94,5.003 0,2.34 -1.404,4.356 -4.644,4.356 -1.979,0 -3.851,-0.972 -4.931,-1.764 l -0.9,2.195 c 1.295,1.009 3.815,2.017 6.407,2.017 4.931,0 7.127,-3.132 7.127,-6.372 0,-2.771 -1.764,-5.255 -4.895,-6.371 l 0,-0.108 z" /><path
       inkscape:connector-curvature="0"
       id="path4868"
       style="fill:#0e0f0f;fill-opacity:1;fill-rule:nonzero;stroke:#0000be;stroke-opacity:1"
       d="m 1529.4805,491.58983 1.148,0.392 0,-1.779 1.976,0 0,-0.911 -1.976,0 0,-4.413 c 0,-0.966 0.294,-1.498 1.037,-1.498 0.35,0 0.588,0.042 0.785,0.111 l 0.07,-0.896 c -0.253,-0.111 -0.644,-0.182 -1.135,-0.182 -1.849,0 -1.905,1.682 -1.905,2.494 l 0,4.384 -1.177,0 0,0.911 1.177,0 0,1.387 z" /><path
       inkscape:connector-curvature="0"
       id="path4872"
       style="fill:#0e0f0f;fill-opacity:1;fill-rule:nonzero;stroke:#0000be;stroke-opacity:1"
       d="m 1537.0977,489.47463 c -1.653,0 -2.339,-1.625 -2.339,-3.096 0,-1.695 0.938,-3.068 2.311,-3.068 1.386,0 2.353,1.373 2.353,3.096 0,1.359 -0.658,3.068 -2.325,3.068 m 3.517,-3.026 c 0,-2.843 -1.877,-4.048 -3.573,-4.048 -1.961,0 -3.474,1.47 -3.474,3.935 0,2.606 1.625,4.049 3.572,4.049 2.088,0 3.475,-1.598 3.475,-3.936" /><path
       inkscape:connector-curvature="0"
       id="path4876"
       style="fill:#0e0f0f;fill-opacity:1;fill-rule:nonzero;stroke:#0000be;stroke-opacity:1"
       d="m 1543.5362,485.60743 c 0,-1.484 1.107,-2.269 2.145,-2.269 1.498,0 2.324,1.289 2.324,3.11 0,1.583 -0.798,2.983 -2.283,2.983 -1.303,0 -2.186,-1.26 -2.186,-2.367 l 0,-1.457 z m -0.069,3.307 c 0.532,0.938 1.415,1.47 2.605,1.47 1.808,0 3.11,-1.554 3.11,-3.894 0,-2.801 -1.639,-4.09 -3.32,-4.09 -1.009,0 -1.849,0.462 -2.297,1.219 l -0.029,0 0,-4.174 -1.162,0 0,8.306 c 0,0.995 -0.027,1.764 -0.056,2.465 l 1.05,0 0.07,-1.302 0.029,0 z" /><path
       inkscape:connector-curvature="0"
       id="path4880"
       style="fill:#0e0f0f;fill-opacity:1;fill-rule:nonzero;stroke:#0000be;stroke-opacity:1"
       d="m 1556.1368,480.64943 c -0.995,1.303 -2.073,3.333 -2.073,6.429 0,3.125 1.064,5.155 2.073,6.486 l 0.952,0 c -1.162,-1.555 -2.003,-3.614 -2.003,-6.5 0,-2.815 0.868,-4.832 2.003,-6.415 l -0.952,0 z" /><path
       inkscape:connector-curvature="0"
       id="path4884"
       style="fill:#0e0f0f;fill-opacity:1;fill-rule:nonzero;stroke:#0000be;stroke-opacity:1"
       d="m 1559.8184,482.56833 -1.163,0 0,6.724 -1.051,0 0,0.911 1.051,0 0,0.461 c 0,1.92 1.037,3.278 3.139,3.278 0.615,0 1.441,-0.21 1.82,-0.49 l -0.35,-0.897 c -0.365,0.253 -0.967,0.435 -1.555,0.435 -1.891,0 -1.891,-1.695 -1.891,-2.787 l 4.272,0 0,-7.635 -1.163,0 0,6.724 -3.109,0 0,-6.724 z" /><path
       inkscape:connector-curvature="0"
       id="path4888"
       style="fill:#0e0f0f;fill-opacity:1;fill-rule:nonzero;stroke:#0000be;stroke-opacity:1"
       d="m 1572.4912,482.56833 -1.163,0 0,4.51 c 0,1.248 -0.448,2.34 -1.778,2.34 -0.996,0 -2.004,-0.84 -2.004,-2.171 l 0,-4.679 -1.162,0 0,5.673 c 0,0.784 -0.029,1.358 -0.057,1.975 l 1.037,0 0.07,-1.247 0.028,0 c 0.379,0.744 1.26,1.415 2.451,1.415 0.953,0 2.578,-0.574 2.578,-3.166 l 0,-4.65 z" /><path
       d="m 1575.9037,482.56803 -1.162,0 0,7.635 1.162,0 0,-7.635 z m -0.588,8.979 c -0.447,0 -0.756,0.35 -0.756,0.799 0,0.434 0.322,0.784 0.769,0.784 0.463,0 0.757,-0.35 0.757,-0.784 0,-0.491 -0.321,-0.799 -0.77,-0.799"
       style="fill:#0e0f0f;fill-opacity:1;fill-rule:nonzero;stroke:#0000be;stroke-opacity:1"
       id="path4890"
       inkscape:connector-curvature="0" /><path
       inkscape:connector-curvature="0"
       id="path4894"
       style="fill:#0e0f0f;fill-opacity:1;fill-rule:nonzero;stroke:#0000be;stroke-opacity:1"
       d="m 1581.7852,489.04003 c -0.28,0.183 -0.799,0.448 -1.485,0.448 -0.84,0 -1.288,-0.518 -1.288,-1.135 0,-0.658 0.434,-0.966 1.415,-1.386 1.232,-0.504 1.947,-1.149 1.947,-2.297 0,-1.359 -1.037,-2.256 -2.704,-2.256 -0.757,0 -1.486,0.211 -2.003,0.519 l 0.322,0.896 c 0.406,-0.238 1.065,-0.518 1.723,-0.518 1.022,0 1.527,0.546 1.527,1.232 0,0.715 -0.406,1.107 -1.416,1.514 -1.288,0.517 -1.946,1.232 -1.946,2.156 0,1.191 0.952,2.172 2.493,2.172 0.728,0 1.345,-0.211 1.751,-0.463 l -0.336,-0.882 z" /><path
       inkscape:connector-curvature="0"
       id="path4898"
       style="fill:#0e0f0f;fill-opacity:1;fill-rule:nonzero;stroke:#0000be;stroke-opacity:1"
       d="m 1590.2569,482.56833 -1.163,0 0,4.51 c 0,1.248 -0.448,2.326 -1.765,2.326 -0.896,0 -2.017,-0.742 -2.017,-2.144 l 0,-4.692 -1.162,0 0,11.206 1.162,0 0,-4.749 0.028,0 c 0.505,0.841 1.429,1.359 2.367,1.359 0.939,0 2.55,-0.574 2.55,-3.166 l 0,-4.65 z" /><path
       inkscape:connector-curvature="0"
       id="path4902"
       style="fill:#0e0f0f;fill-opacity:1;fill-rule:nonzero;stroke:#0000be;stroke-opacity:1"
       d="m 1592.6045,493.56443 c 0.995,-1.303 2.06,-3.334 2.06,-6.457 0,-3.11 -1.05,-5.113 -2.06,-6.458 l -0.952,0 c 1.135,1.555 2.003,3.614 2.003,6.472 0,2.843 -0.854,4.86 -2.003,6.443 l 0.952,0 z" /><path
       inkscape:connector-curvature="0"
       id="path4906"
       style="fill:#0e0f0f;fill-opacity:1;fill-rule:nonzero;stroke:#0000be;stroke-opacity:1"
       d="m 1748.5098,783.08397 -15.946,0 0,1.836 2.628,2.771 c 6.407,6.479 9.646,10.403 9.646,14.794 0,2.88 -1.26,5.544 -5.147,5.544 -2.16,0 -4.104,-1.188 -5.399,-2.232 l -1.008,2.088 c 1.656,1.476 4.104,2.628 6.983,2.628 5.435,0 7.596,-3.96 7.596,-7.667 0,-5.076 -3.565,-9.395 -9.144,-15.011 l -2.124,-2.231 0,-0.072 11.915,0 0,-2.448 z" /><path
       inkscape:connector-curvature="0"
       id="path4910"
       style="fill:#0e0f0f;fill-opacity:1;fill-rule:nonzero;stroke:#0000be;stroke-opacity:1"
       d="m 1763.7442,797.91607 c -0.28,0.182 -0.799,0.448 -1.485,0.448 -0.84,0 -1.288,-0.518 -1.288,-1.135 0,-0.658 0.434,-0.966 1.415,-1.386 1.232,-0.505 1.947,-1.149 1.947,-2.298 0,-1.358 -1.037,-2.255 -2.704,-2.255 -0.757,0 -1.486,0.21 -2.003,0.519 l 0.322,0.896 c 0.406,-0.238 1.065,-0.518 1.723,-0.518 1.022,0 1.527,0.546 1.527,1.232 0,0.715 -0.406,1.107 -1.416,1.513 -1.288,0.519 -1.946,1.233 -1.946,2.157 0,1.191 0.952,2.172 2.493,2.172 0.728,0 1.345,-0.211 1.751,-0.463 l -0.336,-0.882 z" /><path
       d="m 1767.2707,791.44407 -1.162,0 0,7.634 1.162,0 0,-7.634 z m -0.588,8.979 c -0.448,0 -0.757,0.35 -0.757,0.799 0,0.434 0.322,0.784 0.771,0.784 0.463,0 0.755,-0.35 0.755,-0.784 0,-0.491 -0.321,-0.799 -0.769,-0.799"
       style="fill:#0e0f0f;fill-opacity:1;fill-rule:nonzero;stroke:#0000be;stroke-opacity:1"
       id="path4912"
       inkscape:connector-curvature="0" /><path
       inkscape:connector-curvature="0"
       id="path4916"
       style="fill:#0e0f0f;fill-opacity:1;fill-rule:nonzero;stroke:#0000be;stroke-opacity:1"
       d="m 1774.5811,796.02487 c 0,1.527 -1.079,2.283 -2.06,2.283 -1.442,0 -2.297,-1.345 -2.297,-3.096 0,-1.61 0.756,-2.983 2.255,-2.983 1.261,0 2.102,1.107 2.102,2.325 l 0,1.471 z m 1.162,-2.689 c 0,-0.617 0.027,-1.374 0.057,-1.892 l -1.037,0 -0.057,1.303 -0.041,0 c -0.393,-0.798 -1.262,-1.471 -2.494,-1.471 -1.765,0 -3.137,1.527 -3.137,3.88 0,2.578 1.512,4.091 3.291,4.091 1.121,0 1.877,-0.547 2.227,-1.177 l 0.029,0 0,4.58 1.162,0 0,-9.314 z" /><path
       inkscape:connector-curvature="0"
       id="path4920"
       style="fill:#0e0f0f;fill-opacity:1;fill-rule:nonzero;stroke:#0000be;stroke-opacity:1"
       d="m 1782.7002,795.99657 c 0.014,1.037 -0.42,2.381 -1.919,2.381 -1.401,0 -2.017,-1.33 -2.129,-2.381 l 4.048,0 z m 0.742,-4.23 c -0.433,-0.21 -1.232,-0.477 -2.394,-0.477 -2.228,0 -3.559,1.569 -3.559,3.853 0,2.395 1.346,4.118 3.404,4.118 2.354,0 2.955,-2.157 2.955,-3.488 0,-0.266 -0.013,-0.462 -0.027,-0.644 l -5.197,0 c 0.013,-2.115 1.219,-2.914 2.592,-2.914 0.952,0 1.526,0.196 2.003,0.392 l 0.223,-0.84 z" /><path
       d="m 1907.5367,532.17503 -148.819,0 0,7.086 148.819,0 0,-7.086 z"
       style="fill:none;stroke:#0000be;stroke-width:0.25;stroke-linecap:butt;stroke-linejoin:miter;stroke-miterlimit:4;stroke-dasharray:none;stroke-opacity:1"
       id="path4922"
       inkscape:connector-curvature="0" /><path
       d="m 1510.3057,243.64303 -7.086,0 0,148.819 7.086,0 0,-148.819 z"
       style="fill:#ffffff;fill-opacity:1;fill-rule:nonzero;stroke:#0000be;stroke-width:0.25;stroke-linecap:butt;stroke-linejoin:miter;stroke-miterlimit:4;stroke-dasharray:none;stroke-opacity:1"
       id="path4924"
       inkscape:connector-curvature="0" /><path
       d="m 1733.0587,243.64303 -7.086,0 0,148.819 7.086,0 0,-148.819 z"
       style="fill:#ffffff;fill-opacity:1;fill-rule:nonzero;stroke:#0000be;stroke-width:0.25;stroke-linecap:butt;stroke-linejoin:miter;stroke-miterlimit:4;stroke-dasharray:none;stroke-opacity:1"
       id="path4926"
       inkscape:connector-curvature="0" /><path
       d="m 1541.7227,437.02903 148.818,0 0,-7.086 -148.818,0 0,7.086 z"
       style="fill:#ffffff;fill-opacity:1;fill-rule:nonzero;stroke:#0000be;stroke-width:0.25;stroke-linecap:butt;stroke-linejoin:miter;stroke-miterlimit:4;stroke-dasharray:none;stroke-opacity:1"
       id="path4928"
       inkscape:connector-curvature="0" /><path
       d="m 1541.7227,204.59603 148.818,0 0,-7.086 -148.818,0 0,7.086 z"
       style="fill:#ffffff;fill-opacity:1;fill-rule:nonzero;stroke:#0000be;stroke-width:0.25;stroke-linecap:butt;stroke-linejoin:miter;stroke-miterlimit:4;stroke-dasharray:none;stroke-opacity:1"
       id="path4930"
       inkscape:connector-curvature="0" /><flowRoot
       xml:space="preserve"
       id="flowRoot5525"
       style="font-style:normal;font-weight:normal;font-size:40px;line-height:125%;font-family:sans-serif;letter-spacing:0px;word-spacing:0px;fill:#000000;fill-opacity:1;stroke:#0000be;stroke-width:1px;stroke-linecap:butt;stroke-linejoin:miter;stroke-opacity:1;"
       transform="matrix(0.40624639,0,0,-0.40624639,799.8518,1481.0728)"><flowRegion
         id="flowRegion5527"><rect
           id="rect5529"
           width="1002.6872"
           height="113.51182"
           x="2027.4463"
           y="3426.6423"
           style="stroke:#0000be;stroke-opacity:1;" /></flowRegion><flowPara
         id="flowPara5531">Modded by Ursidae - Marc Olvier Ducharme</flowPara></flowRoot><flowRoot
       xml:space="preserve"
       id="flowRoot5533"
       style="fill:black;stroke:none;stroke-opacity:1;stroke-width:1px;stroke-linejoin:miter;stroke-linecap:butt;fill-opacity:1;font-family:sans-serif;font-style:normal;font-weight:normal;font-size:40px;line-height:125%;letter-spacing:0px;word-spacing:0px"><flowRegion
         id="flowRegion5535"><rect
           id="rect5537"
           width="728.36719"
           height="110.35867"
           x="2286.001"
           y="3064.0352" /></flowRegion><flowPara
         id="flowPara5539"></flowPara></flowRoot><flowRoot
       xml:space="preserve"
       id="flowRoot5541"
       style="font-style:normal;font-weight:normal;font-size:40px;line-height:125%;font-family:sans-serif;letter-spacing:0px;word-spacing:0px;fill:#000000;fill-opacity:1;stroke:none;stroke-width:1px;stroke-linecap:butt;stroke-linejoin:miter;stroke-opacity:1"
       transform="matrix(2.1286853,0,0,-2.1286853,-122.49597,5667.7072)"><flowRegion
         id="flowRegion5543"><rect
           id="rect5545"
           width="1570.2461"
           height="126.12418"
           x="88.286926"
           y="2121.2568" /></flowRegion><flowPara
         id="flowPara5547"
         style="fill:#0000ce;fill-opacity:1">FOR 4.5MM Birch Plywood</flowPara></flowRoot></g></svg>