<?xml version="1.0" encoding="utf-8"?>
<!-- Generator: Adobe Illustrator 19.2.1, SVG Export Plug-In . SVG Version: 6.00 Build 0)  -->
<svg version="1.1" id="EBENE_x5F_2" xmlns="http://www.w3.org/2000/svg" xmlns:xlink="http://www.w3.org/1999/xlink" x="0px"
	 y="0px" width="566.9px" height="425.2px" viewBox="0 0 566.9 425.2" style="enable-background:new 0 0 566.9 425.2;"
	 xml:space="preserve">
<style type="text/css">
	.st0{fill:#FFFFFF;stroke:#000000;stroke-width:0.7087;stroke-linecap:round;stroke-linejoin:round;stroke-miterlimit:10;}
	.st1{font-family:'ArialMT';}
	.st2{font-size:14.0131px;}
	.st3{fill:none;stroke:#000000;stroke-width:0.7087;stroke-linecap:round;stroke-linejoin:round;stroke-miterlimit:10;}
</style>
<g id="ARC_3_">
	<path class="st0" d="M113.9,275.7V111.3c0-15.7,12.7-28.3,28.3-28.3h283.5c15.7,0,28.3,12.7,28.3,28.3v164.4
		c0,15.7-12.7,28.3-28.3,28.3H142.2C126.6,304.1,113.9,291.4,113.9,275.7z"/>
</g>
<text transform="matrix(1 0 0 1 93.0431 338.4994)" class="st1 st2">Travel Bedside Phoneholder - ZenziWerken - 7 mm Hardwood</text>
<g id="LINE_4_">
	<line class="st3" x1="349.1" y1="275.7" x2="420" y2="275.7"/>
</g>
<g id="LINE_5_">
	<line class="st3" x1="420" y1="275.7" x2="420" y2="255.9"/>
</g>
<g id="LINE_6_">
	<line class="st3" x1="420" y1="255.9" x2="349.1" y2="255.9"/>
</g>
<g id="LINE_7_">
	<line class="st3" x1="147.9" y1="255.9" x2="147.9" y2="275.7"/>
</g>
<g id="LINE_8_">
	<line class="st3" x1="349.1" y1="255.9" x2="349.1" y2="275.7"/>
</g>
<g id="LINE_9_">
	<line class="st3" x1="218.8" y1="275.7" x2="218.8" y2="255.9"/>
</g>
<g id="LINE_10_">
	<line class="st3" x1="218.8" y1="255.9" x2="147.9" y2="255.9"/>
</g>
<g id="LINE_11_">
	<line class="st3" x1="147.9" y1="275.7" x2="218.8" y2="275.7"/>
</g>
<g id="LINE_12_">
	<line class="st3" x1="405.8" y1="233.2" x2="363.3" y2="233.2"/>
</g>
<g id="LINE_13_">
	<line class="st3" x1="133.7" y1="145.3" x2="133.7" y2="117"/>
</g>
<g id="LINE_14_">
	<line class="st3" x1="420" y1="219" x2="420" y2="145.3"/>
</g>
<g id="LINE_15_">
	<line class="st3" x1="218.8" y1="219" x2="218.8" y2="145.3"/>
</g>
<g id="LINE_16_">
	<line class="st3" x1="349.1" y1="145.3" x2="349.1" y2="219"/>
</g>
<g id="LINE_17_">
	<line class="st3" x1="133.7" y1="145.3" x2="147.9" y2="145.3"/>
</g>
<g id="LINE_18_">
	<line class="st3" x1="147.9" y1="145.3" x2="147.9" y2="219"/>
</g>
<g id="LINE_19_">
	<line class="st3" x1="204.6" y1="233.2" x2="162.1" y2="233.2"/>
</g>
<g id="ARC_4_">
	<path class="st3" d="M147.9,102.8c-7.8,0-14.2,6.3-14.2,14.2"/>
</g>
<g id="ARC_5_">
	<path class="st3" d="M405.8,233.2c7.8,0,14.2-6.3,14.2-14.2"/>
</g>
<g id="ARC_6_">
	<path class="st3" d="M349.1,219c0,7.8,6.3,14.2,14.2,14.2"/>
</g>
<g id="ARC_7_">
	<path class="st3" d="M204.6,233.2c7.8,0,14.2-6.3,14.2-14.2"/>
</g>
<g id="ARC_8_">
	<path class="st3" d="M147.9,219c0,7.8,6.3,14.2,14.2,14.2"/>
</g>
<g id="LINE_20_">
	<line class="st3" x1="434.2" y1="145.3" x2="434.2" y2="117"/>
</g>
<g id="LINE_21_">
	<line class="st3" x1="434.2" y1="145.3" x2="420" y2="145.3"/>
</g>
<g id="ARC_9_">
	<path class="st3" d="M434.2,117c0-7.8-6.3-14.2-14.2-14.2"/>
</g>
<g id="LINE_22_">
	<line class="st3" x1="147.9" y1="102.8" x2="420" y2="102.8"/>
</g>
<g id="LINE_23_">
	<line class="st3" x1="134.9" y1="111.3" x2="433" y2="111.3"/>
</g>
<g id="LINE_24_">
	<line class="st3" x1="147.9" y1="145.3" x2="218.8" y2="145.3"/>
</g>
<g id="LINE_25_">
	<line class="st3" x1="349.1" y1="145.3" x2="420" y2="145.3"/>
</g>
<g id="LINE_26_">
	<line class="st3" x1="218.8" y1="145.3" x2="349.1" y2="145.3"/>
</g>
</svg>
