  0
SECTION
  2
HEADER
  9
$ACADVER
  1
AC1009
  9
$DWGCODEPAGE
  3
ansi_1252
  9
$INSBASE
 10
0.0
 20
0.0
 30
0.0
  9
$EXTMIN
 10
0.0
 20
0.0
 30
0.0
  9
$EXTMAX
 10
310.0
 20
350.0
 30
0.0
  9
$LIMMIN
 10
0.0
 20
0.0
  9
$LIMMAX
 10
310.0
 20
350.0
  9
$ORTHOMODE
 70
     0
  9
$REGENMODE
 70
     1
  9
$FILLMODE
 70
     1
  9
$QTEXTMODE
 70
     0
  9
$MIRRTEXT
 70
     1
  9
$DRAGMODE
 70
     2
  9
$LTSCALE
 40
1.0
  9
$OSMODE
 70
    37
  9
$ATTMODE
 70
     1
  9
$TEXTSIZE
 40
2.5
  9
$TRACEWID
 40
1.0
  9
$TEXTSTYLE
  7
STANDARD
  9
$CLAYER
  8
0
  9
$CELTYPE
  6
BYLAYER
  9
$CECOLOR
 62
   256
  9
$DIMSCALE
 40
1.0
  9
$DIMASZ
 40
2.5
  9
$DIMEXO
 40
0.625
  9
$DIMDLI
 40
3.75
  9
$DIMRND
 40
0.0
  9
$DIMDLE
 40
0.0
  9
$DIMEXE
 40
1.25
  9
$DIMTP
 40
0.0
  9
$DIMTM
 40
0.0
  9
$DIMTXT
 40
2.5
  9
$DIMCEN
 40
2.5
  9
$DIMTSZ
 40
0.0
  9
$DIMTOL
 70
     0
  9
$DIMLIM
 70
     0
  9
$DIMTIH
 70
     0
  9
$DIMTOH
 70
     0
  9
$DIMSE1
 70
     0
  9
$DIMSE2
 70
     0
  9
$DIMTAD
 70
     1
  9
$DIMZIN
 70
     8
  9
$DIMBLK
  1

  9
$DIMASO
 70
     1
  9
$DIMSHO
 70
     1
  9
$DIMPOST
  1

  9
$DIMAPOST
  1

  9
$DIMALT
 70
     0
  9
$DIMALTD
 70
     3
  9
$DIMALTF
 40
0.0393700787
  9
$DIMLFAC
 40
1.0
  9
$DIMTOFL
 70
     1
  9
$DIMTVP
 40
0.0
  9
$DIMTIX
 70
     0
  9
$DIMSOXD
 70
     0
  9
$DIMSAH
 70
     0
  9
$DIMBLK1
  1

  9
$DIMBLK2
  1

  9
$DIMSTYLE
  2
ISO-25
  9
$DIMCLRD
 70
     0
  9
$DIMCLRE
 70
     0
  9
$DIMCLRT
 70
     0
  9
$DIMTFAC
 40
1.0
  9
$DIMGAP
 40
0.625
  9
$LUNITS
 70
     2
  9
$LUPREC
 70
     4
  9
$SKETCHINC
 40
1.0
  9
$FILLETRAD
 40
10.0
  9
$AUNITS
 70
     0
  9
$AUPREC
 70
     0
  9
$MENU
  1
.
  9
$ELEVATION
 40
0.0
  9
$PELEVATION
 40
0.0
  9
$THICKNESS
 40
0.0
  9
$LIMCHECK
 70
     0
  9
$CHAMFERA
 40
0.0
  9
$CHAMFERB
 40
0.0
  9
$SKPOLY
 70
     0
  9
$TDCREATE
 40
2457664.92968515
  9
$TDUPDATE
 40
2457664.929688461
  9
$TDINDWG
 40
0.0000000116
  9
$TDUSRTIMER
 40
0.0000000116
  9
$USRTIMER
 70
     1
  9
$ANGBASE
 50
0.0
  9
$ANGDIR
 70
     0
  9
$PDMODE
 70
     0
  9
$PDSIZE
 40
0.0
  9
$PLINEWID
 40
0.0
  9
$COORDS
 70
     1
  9
$SPLFRAME
 70
     0
  9
$SPLINETYPE
 70
     6
  9
$SPLINESEGS
 70
     8
  9
$ATTDIA
 70
     0
  9
$ATTREQ
 70
     1
  9
$HANDLING
 70
     1
  9
$HANDSEED
  5
2DA
  9
$SURFTAB1
 70
     6
  9
$SURFTAB2
 70
     6
  9
$SURFTYPE
 70
     6
  9
$SURFU
 70
     6
  9
$SURFV
 70
     6
  9
$UCSNAME
  2

  9
$UCSORG
 10
0.0
 20
0.0
 30
0.0
  9
$UCSXDIR
 10
1.0
 20
0.0
 30
0.0
  9
$UCSYDIR
 10
0.0
 20
1.0
 30
0.0
  9
$PUCSNAME
  2

  9
$PUCSORG
 10
0.0
 20
0.0
 30
0.0
  9
$PUCSXDIR
 10
1.0
 20
0.0
 30
0.0
  9
$PUCSYDIR
 10
0.0
 20
1.0
 30
0.0
  9
$USERI1
 70
     0
  9
$USERI2
 70
     0
  9
$USERI3
 70
     0
  9
$USERI4
 70
     0
  9
$USERI5
 70
     0
  9
$USERR1
 40
0.0
  9
$USERR2
 40
0.0
  9
$USERR3
 40
0.0
  9
$USERR4
 40
0.0
  9
$USERR5
 40
0.0
  9
$WORLDVIEW
 70
     1
  9
$SHADEDGE
 70
     3
  9
$SHADEDIF
 70
    70
  9
$TILEMODE
 70
     1
  9
$MAXACTVP
 70
    64
  9
$PLIMCHECK
 70
     0
  9
$PEXTMIN
 10
0.0
 20
0.0
 30
0.0
  9
$PEXTMAX
 10
310.0
 20
350.0
 30
0.0
  9
$PLIMMIN
 10
0.0
 20
0.0
  9
$PLIMMAX
 10
310.0
 20
350.0
  9
$UNITMODE
 70
     0
  9
$VISRETAIN
 70
     1
  9
$PLINEGEN
 70
     0
  9
$PSLTSCALE
 70
     1
  0
ENDSEC
  0
SECTION
  2
TABLES
  0
TABLE
  2
VPORT
 70
     1
  0
VPORT
  2
*ACTIVE
 70
     0
 10
0.0
 20
0.0
 11
1.0
 21
1.0
 12
344.1869158879
 22
148.5
 13
0.0
 23
0.0
 14
10.0
 24
10.0
 15
10.0
 25
10.0
 16
0.0
 26
0.0
 36
1.0
 17
0.0
 27
0.0
 37
0.0
 40
297.0
 41
1.9729729729
 42
50.0
 43
0.0
 44
0.0
 50
0.0
 51
0.0
 71
     0
 72
   100
 73
     1
 74
     3
 75
     0
 76
     0
 77
     0
 78
     0
  0
ENDTAB
  0
TABLE
  2
LTYPE
 70
     1
  0
LTYPE
  2
CONTINUOUS
 70
     0
  3
Solid line
 72
    65
 73
     0
 40
0.0
  0
ENDTAB
  0
TABLE
  2
LAYER
 70
     3
  0
LAYER
  2
0
 70
     0
 62
     7
  6
CONTINUOUS
  0
LAYER
  2
LAYER1
 70
     0
 62
     7
  6
CONTINUOUS
  0
LAYER
  2
STANDARD
 70
     0
 62
     7
  6
CONTINUOUS
  0
ENDTAB
  0
TABLE
  2
STYLE
 70
     1
  0
STYLE
  2
STANDARD
 70
     0
 40
0.0
 41
1.0
 50
0.0
 71
     0
 42
2.5
  3
txt
  4

  0
ENDTAB
  0
TABLE
  2
VIEW
 70
     0
  0
ENDTAB
  0
TABLE
  2
UCS
 70
     0
  0
ENDTAB
  0
TABLE
  2
APPID
 70
     1
  0
APPID
  2
ACAD
 70
     0
  0
ENDTAB
  0
TABLE
  2
DIMSTYLE
 70
     1
  0
DIMSTYLE
  2
ISO-25
 70
     0
  3

  4

  5

  6

  7

 40
1.0
 41
2.5
 42
0.625
 43
3.75
 44
1.25
 45
0.0
 46
0.0
 47
0.0
 48
0.0
140
2.5
141
2.5
142
0.0
143
0.0393700787
144
1.0
145
0.0
146
1.0
147
0.625
 71
     0
 72
     0
 73
     0
 74
     0
 75
     0
 76
     0
 77
     1
 78
     8
170
     0
171
     3
172
     1
173
     0
174
     0
175
     0
176
     0
177
     0
178
     0
  0
ENDTAB
  0
ENDSEC
  0
SECTION
  2
BLOCKS
  0
BLOCK
  8
0
  2
$MODEL_SPACE
 70
     0
 10
0.0
 20
0.0
 30
0.0
  3
$MODEL_SPACE
  1

  0
ENDBLK
  5
21
  8
0
  0
BLOCK
 67
     1
  8
0
  2
$PAPER_SPACE
 70
     0
 10
0.0
 20
0.0
 30
0.0
  3
$PAPER_SPACE
  1

  0
ENDBLK
  5
1D
 67
     1
  8
0
  0
BLOCK
  8
0
  2
SE
 70
     0
 10
0.0
 20
0.0
 30
0.0
  3
SE
  1

  0
INSERT
  5
131
  8
LAYER1
  2
SE1
 10
0.0
 20
0.0
 30
0.0
  0
ENDBLK
  5
13A
  8
0
  0
BLOCK
  8
0
  2
SE1
 70
     0
 10
0.0
 20
0.0
 30
0.0
  3
SE1
  1

  0
LINE
  5
132
  8
LAYER1
  6
CONTINUOUS
 62
     7
 10
543.9964109884
 20
166.6261339965
 30
0.0
 11
543.9964109884
 21
162.4261339965
 31
0.0
  0
LINE
  5
133
  8
LAYER1
  6
CONTINUOUS
 62
     7
 10
548.1964109884
 20
166.6261339965
 30
0.0
 11
543.9964109884
 21
166.6261339965
 31
0.0
  0
LINE
  5
134
  8
LAYER1
  6
CONTINUOUS
 62
     7
 10
548.1964109884
 20
162.4261339965
 30
0.0
 11
548.1964109884
 21
166.6261339965
 31
0.0
  0
LINE
  5
135
  8
LAYER1
  6
CONTINUOUS
 62
     7
 10
543.9964109884
 20
162.4261339965
 30
0.0
 11
548.1964109884
 21
162.4261339965
 31
0.0
  0
CIRCLE
  5
136
  8
LAYER1
  6
CONTINUOUS
 62
     7
 10
546.0964109884
 20
164.5261339965
 30
0.0
 40
4.500000000000001
  0
ENDBLK
  5
138
  8
0
  0
BLOCK
  8
0
  2
SE2
 70
     0
 10
0.0
 20
0.0
 30
0.0
  3
SE2
  1

  0
INSERT
  5
13E
  8
LAYER1
  2
SE3
 10
0.0
 20
0.0
 30
0.0
  0
ENDBLK
  5
156
  8
0
  0
BLOCK
  8
0
  2
SE3
 70
     0
 10
0.0
 20
0.0
 30
0.0
  3
SE3
  1

  0
LINE
  5
13F
  8
LAYER1
  6
CONTINUOUS
 62
     7
 10
727.8466858461
 20
13.0012480256
 30
0.0
 11
669.1466858461
 21
13.0012480256
 31
0.0
  0
LINE
  5
140
  8
LAYER1
  6
CONTINUOUS
 62
     7
 10
669.1466858461
 20
38.0012480256
 30
0.0
 11
664.9466858461
 21
38.0012480256
 31
0.0
  0
LINE
  5
141
  8
LAYER1
  6
CONTINUOUS
 62
     7
 10
669.1466858461
 20
13.0012480256
 30
0.0
 11
669.1466858461
 21
38.0012480256
 31
0.0
  0
LINE
  5
142
  8
LAYER1
  6
CONTINUOUS
 62
     7
 10
664.9466858461
 20
38.0012480256
 30
0.0
 11
664.9466858461
 21
13.0012480256
 31
0.0
  0
LINE
  5
143
  8
LAYER1
  6
CONTINUOUS
 62
     7
 10
606.2466858461
 20
63.0012480256
 30
0.0
 11
647.0466858461
 21
63.0012480256
 31
0.0
  0
LINE
  5
144
  8
LAYER1
  6
CONTINUOUS
 62
     7
 10
687.0466858461
 20
67.2012480256
 30
0.0
 11
647.0466858461
 21
67.2012480256
 31
0.0
  0
LINE
  5
145
  8
LAYER1
  6
CONTINUOUS
 62
     7
 10
687.0466858461
 20
63.0012480256
 30
0.0
 11
687.0466858461
 21
67.2012480256
 31
0.0
  0
LINE
  5
146
  8
LAYER1
  6
CONTINUOUS
 62
     7
 10
647.0466858461
 20
67.2012480256
 30
0.0
 11
647.0466858461
 21
63.0012480256
 31
0.0
  0
LINE
  5
147
  8
LAYER1
  6
CONTINUOUS
 62
     7
 10
606.2466858461
 20
48.0012480256
 30
0.0
 11
606.2466858461
 21
63.0012480256
 31
0.0
  0
LINE
  5
148
  8
LAYER1
  6
CONTINUOUS
 62
     7
 10
727.8466858461
 20
63.0012480256
 30
0.0
 11
727.8466858461
 21
48.0012480256
 31
0.0
  0
LINE
  5
149
  8
LAYER1
  6
CONTINUOUS
 62
     7
 10
606.2466858461
 20
48.0012480256
 30
0.0
 11
602.0466858461
 21
48.0012480256
 31
0.0
  0
LINE
  5
14A
  8
LAYER1
  6
CONTINUOUS
 62
     7
 10
602.0466858461
 20
28.0012480256
 30
0.0
 11
602.0466858461
 21
48.0012480256
 31
0.0
  0
LINE
  5
14B
  8
LAYER1
  6
CONTINUOUS
 62
     7
 10
602.0466858461
 20
28.0012480256
 30
0.0
 11
606.2466858461
 21
28.0012480256
 31
0.0
  0
LINE
  5
14C
  8
LAYER1
  6
CONTINUOUS
 62
     7
 10
732.0466858461
 20
48.0012480256
 30
0.0
 11
727.8466858461
 21
48.0012480256
 31
0.0
  0
LINE
  5
14D
  8
LAYER1
  6
CONTINUOUS
 62
     7
 10
727.8466858461
 20
28.0012480256
 30
0.0
 11
732.0466858461
 21
28.0012480256
 31
0.0
  0
LINE
  5
14E
  8
LAYER1
  6
CONTINUOUS
 62
     7
 10
732.0466858461
 20
48.0012480256
 30
0.0
 11
732.0466858461
 21
28.0012480256
 31
0.0
  0
LINE
  5
14F
  8
LAYER1
  6
CONTINUOUS
 62
     7
 10
687.0466858461
 20
63.0012480256
 30
0.0
 11
727.8466858461
 21
63.0012480256
 31
0.0
  0
LINE
  5
150
  8
LAYER1
  6
CONTINUOUS
 62
     7
 10
606.2466858461
 20
13.0012480256
 30
0.0
 11
606.2466858461
 21
28.0012480256
 31
0.0
  0
LINE
  5
151
  8
LAYER1
  6
CONTINUOUS
 62
     7
 10
664.9466858461
 20
13.0012480256
 30
0.0
 11
606.2466858461
 21
13.0012480256
 31
0.0
  0
LINE
  5
152
  8
LAYER1
  6
CONTINUOUS
 62
     7
 10
727.8466858461
 20
28.0012480256
 30
0.0
 11
727.8466858461
 21
13.0012480256
 31
0.0
  0
ENDBLK
  5
154
  8
0
  0
BLOCK
  8
0
  2
SE4
 70
     0
 10
0.0
 20
0.0
 30
0.0
  3
SE4
  1

  0
INSERT
  5
15A
  8
LAYER1
  2
SE5
 10
0.0
 20
0.0
 30
0.0
  0
ENDBLK
  5
172
  8
0
  0
BLOCK
  8
0
  2
SE5
 70
     0
 10
0.0
 20
0.0
 30
0.0
  3
SE5
  1

  0
LINE
  5
15B
  8
LAYER1
  6
CONTINUOUS
 62
     7
 10
746.3195561321
 20
17.2012480256
 30
0.0
 11
746.3195561321
 21
75.9012480256
 31
0.0
  0
LINE
  5
15C
  8
LAYER1
  6
CONTINUOUS
 62
     7
 10
771.3195561321
 20
75.9012480256
 30
0.0
 11
771.3195561321
 21
80.1012480256
 31
0.0
  0
LINE
  5
15D
  8
LAYER1
  6
CONTINUOUS
 62
     7
 10
746.3195561321
 20
75.9012480256
 30
0.0
 11
771.3195561321
 21
75.9012480256
 31
0.0
  0
LINE
  5
15E
  8
LAYER1
  6
CONTINUOUS
 62
     7
 10
771.3195561321
 20
80.1012480256
 30
0.0
 11
746.3195561321
 21
80.1012480256
 31
0.0
  0
LINE
  5
15F
  8
LAYER1
  6
CONTINUOUS
 62
     7
 10
796.3195561321
 20
138.8012480256
 30
0.0
 11
796.3195561321
 21
98.0012480256
 31
0.0
  0
LINE
  5
160
  8
LAYER1
  6
CONTINUOUS
 62
     7
 10
800.5195561321
 20
58.0012480256
 30
0.0
 11
800.5195561321
 21
98.0012480256
 31
0.0
  0
LINE
  5
161
  8
LAYER1
  6
CONTINUOUS
 62
     7
 10
796.3195561321
 20
58.0012480256
 30
0.0
 11
800.5195561321
 21
58.0012480256
 31
0.0
  0
LINE
  5
162
  8
LAYER1
  6
CONTINUOUS
 62
     7
 10
800.5195561321
 20
98.0012480256
 30
0.0
 11
796.3195561321
 21
98.0012480256
 31
0.0
  0
LINE
  5
163
  8
LAYER1
  6
CONTINUOUS
 62
     7
 10
781.3195561321
 20
138.8012480256
 30
0.0
 11
796.3195561321
 21
138.8012480256
 31
0.0
  0
LINE
  5
164
  8
LAYER1
  6
CONTINUOUS
 62
     7
 10
796.3195561321
 20
17.2012480256
 30
0.0
 11
781.3195561321
 21
17.2012480256
 31
0.0
  0
LINE
  5
165
  8
LAYER1
  6
CONTINUOUS
 62
     7
 10
781.3195561321
 20
138.8012480256
 30
0.0
 11
781.3195561321
 21
143.0012480256
 31
0.0
  0
LINE
  5
166
  8
LAYER1
  6
CONTINUOUS
 62
     7
 10
761.3195561321
 20
143.0012480256
 30
0.0
 11
781.3195561321
 21
143.0012480256
 31
0.0
  0
LINE
  5
167
  8
LAYER1
  6
CONTINUOUS
 62
     7
 10
761.3195561321
 20
143.0012480256
 30
0.0
 11
761.3195561321
 21
138.8012480256
 31
0.0
  0
LINE
  5
168
  8
LAYER1
  6
CONTINUOUS
 62
     7
 10
781.3195561321
 20
13.0012480256
 30
0.0
 11
781.3195561321
 21
17.2012480256
 31
0.0
  0
LINE
  5
169
  8
LAYER1
  6
CONTINUOUS
 62
     7
 10
761.3195561321
 20
17.2012480256
 30
0.0
 11
761.3195561321
 21
13.0012480256
 31
0.0
  0
LINE
  5
16A
  8
LAYER1
  6
CONTINUOUS
 62
     7
 10
781.3195561321
 20
13.0012480256
 30
0.0
 11
761.3195561321
 21
13.0012480256
 31
0.0
  0
LINE
  5
16B
  8
LAYER1
  6
CONTINUOUS
 62
     7
 10
796.3195561321
 20
58.0012480256
 30
0.0
 11
796.3195561321
 21
17.2012480256
 31
0.0
  0
LINE
  5
16C
  8
LAYER1
  6
CONTINUOUS
 62
     7
 10
746.3195561321
 20
138.8012480256
 30
0.0
 11
761.3195561321
 21
138.8012480256
 31
0.0
  0
LINE
  5
16D
  8
LAYER1
  6
CONTINUOUS
 62
     7
 10
746.3195561321
 20
80.1012480256
 30
0.0
 11
746.3195561321
 21
138.8012480256
 31
0.0
  0
LINE
  5
16E
  8
LAYER1
  6
CONTINUOUS
 62
     7
 10
761.3195561321
 20
17.2012480256
 30
0.0
 11
746.3195561321
 21
17.2012480256
 31
0.0
  0
ENDBLK
  5
170
  8
0
  0
BLOCK
  8
0
  2
SE6
 70
     0
 10
0.0
 20
0.0
 30
0.0
  3
SE6
  1

  0
INSERT
  5
176
  8
LAYER1
  2
SE7
 10
0.0
 20
0.0
 30
0.0
  0
ENDBLK
  5
18E
  8
0
  0
BLOCK
  8
0
  2
SE7
 70
     0
 10
0.0
 20
0.0
 30
0.0
  3
SE7
  1

  0
LINE
  5
177
  8
LAYER1
  6
CONTINUOUS
 62
     7
 10
727.8466858461
 20
78.0012480256
 30
0.0
 11
669.1466858461
 21
78.0012480256
 31
0.0
  0
LINE
  5
178
  8
LAYER1
  6
CONTINUOUS
 62
     7
 10
669.1466858461
 20
103.0012480256
 30
0.0
 11
664.9466858461
 21
103.0012480256
 31
0.0
  0
LINE
  5
179
  8
LAYER1
  6
CONTINUOUS
 62
     7
 10
669.1466858461
 20
78.0012480256
 30
0.0
 11
669.1466858461
 21
103.0012480256
 31
0.0
  0
LINE
  5
17A
  8
LAYER1
  6
CONTINUOUS
 62
     7
 10
664.9466858461
 20
103.0012480256
 30
0.0
 11
664.9466858461
 21
78.0012480256
 31
0.0
  0
LINE
  5
17B
  8
LAYER1
  6
CONTINUOUS
 62
     7
 10
606.2466858461
 20
128.0012480256
 30
0.0
 11
647.0466858461
 21
128.0012480256
 31
0.0
  0
LINE
  5
17C
  8
LAYER1
  6
CONTINUOUS
 62
     7
 10
687.0466858461
 20
132.2012480256
 30
0.0
 11
647.0466858461
 21
132.2012480256
 31
0.0
  0
LINE
  5
17D
  8
LAYER1
  6
CONTINUOUS
 62
     7
 10
687.0466858461
 20
128.0012480256
 30
0.0
 11
687.0466858461
 21
132.2012480256
 31
0.0
  0
LINE
  5
17E
  8
LAYER1
  6
CONTINUOUS
 62
     7
 10
647.0466858461
 20
132.2012480256
 30
0.0
 11
647.0466858461
 21
128.0012480256
 31
0.0
  0
LINE
  5
17F
  8
LAYER1
  6
CONTINUOUS
 62
     7
 10
606.2466858461
 20
113.0012480256
 30
0.0
 11
606.2466858461
 21
128.0012480256
 31
0.0
  0
LINE
  5
180
  8
LAYER1
  6
CONTINUOUS
 62
     7
 10
727.8466858461
 20
128.0012480256
 30
0.0
 11
727.8466858461
 21
113.0012480256
 31
0.0
  0
LINE
  5
181
  8
LAYER1
  6
CONTINUOUS
 62
     7
 10
606.2466858461
 20
113.0012480256
 30
0.0
 11
602.0466858461
 21
113.0012480256
 31
0.0
  0
LINE
  5
182
  8
LAYER1
  6
CONTINUOUS
 62
     7
 10
602.0466858461
 20
93.0012480256
 30
0.0
 11
602.0466858461
 21
113.0012480256
 31
0.0
  0
LINE
  5
183
  8
LAYER1
  6
CONTINUOUS
 62
     7
 10
602.0466858461
 20
93.0012480256
 30
0.0
 11
606.2466858461
 21
93.0012480256
 31
0.0
  0
LINE
  5
184
  8
LAYER1
  6
CONTINUOUS
 62
     7
 10
732.0466858461
 20
113.0012480256
 30
0.0
 11
727.8466858461
 21
113.0012480256
 31
0.0
  0
LINE
  5
185
  8
LAYER1
  6
CONTINUOUS
 62
     7
 10
727.8466858461
 20
93.0012480256
 30
0.0
 11
732.0466858461
 21
93.0012480256
 31
0.0
  0
LINE
  5
186
  8
LAYER1
  6
CONTINUOUS
 62
     7
 10
732.0466858461
 20
113.0012480256
 30
0.0
 11
732.0466858461
 21
93.0012480256
 31
0.0
  0
LINE
  5
187
  8
LAYER1
  6
CONTINUOUS
 62
     7
 10
687.0466858461
 20
128.0012480256
 30
0.0
 11
727.8466858461
 21
128.0012480256
 31
0.0
  0
LINE
  5
188
  8
LAYER1
  6
CONTINUOUS
 62
     7
 10
606.2466858461
 20
78.0012480256
 30
0.0
 11
606.2466858461
 21
93.0012480256
 31
0.0
  0
LINE
  5
189
  8
LAYER1
  6
CONTINUOUS
 62
     7
 10
664.9466858461
 20
78.0012480256
 30
0.0
 11
606.2466858461
 21
78.0012480256
 31
0.0
  0
LINE
  5
18A
  8
LAYER1
  6
CONTINUOUS
 62
     7
 10
727.8466858461
 20
93.0012480256
 30
0.0
 11
727.8466858461
 21
78.0012480256
 31
0.0
  0
ENDBLK
  5
18C
  8
0
  0
BLOCK
  8
0
  2
SE8
 70
     0
 10
0.0
 20
0.0
 30
0.0
  3
SE8
  1

  0
INSERT
  5
192
  8
LAYER1
  2
SE9
 10
0.0
 20
0.0
 30
0.0
  0
ENDBLK
  5
1AA
  8
0
  0
BLOCK
  8
0
  2
SE9
 70
     0
 10
0.0
 20
0.0
 30
0.0
  3
SE9
  1

  0
LINE
  5
193
  8
LAYER1
  6
CONTINUOUS
 62
     7
 10
727.8466858461
 20
143.0012480256
 30
0.0
 11
669.1466858461
 21
143.0012480256
 31
0.0
  0
LINE
  5
194
  8
LAYER1
  6
CONTINUOUS
 62
     7
 10
669.1466858461
 20
168.0012480256
 30
0.0
 11
664.9466858461
 21
168.0012480256
 31
0.0
  0
LINE
  5
195
  8
LAYER1
  6
CONTINUOUS
 62
     7
 10
669.1466858461
 20
143.0012480256
 30
0.0
 11
669.1466858461
 21
168.0012480256
 31
0.0
  0
LINE
  5
196
  8
LAYER1
  6
CONTINUOUS
 62
     7
 10
664.9466858461
 20
168.0012480256
 30
0.0
 11
664.9466858461
 21
143.0012480256
 31
0.0
  0
LINE
  5
197
  8
LAYER1
  6
CONTINUOUS
 62
     7
 10
606.2466858461
 20
193.0012480256
 30
0.0
 11
647.0466858461
 21
193.0012480256
 31
0.0
  0
LINE
  5
198
  8
LAYER1
  6
CONTINUOUS
 62
     7
 10
687.0466858461
 20
197.2012480256
 30
0.0
 11
647.0466858461
 21
197.2012480256
 31
0.0
  0
LINE
  5
199
  8
LAYER1
  6
CONTINUOUS
 62
     7
 10
687.0466858461
 20
193.0012480256
 30
0.0
 11
687.0466858461
 21
197.2012480256
 31
0.0
  0
LINE
  5
19A
  8
LAYER1
  6
CONTINUOUS
 62
     7
 10
647.0466858461
 20
197.2012480256
 30
0.0
 11
647.0466858461
 21
193.0012480256
 31
0.0
  0
LINE
  5
19B
  8
LAYER1
  6
CONTINUOUS
 62
     7
 10
606.2466858461
 20
178.0012480256
 30
0.0
 11
606.2466858461
 21
193.0012480256
 31
0.0
  0
LINE
  5
19C
  8
LAYER1
  6
CONTINUOUS
 62
     7
 10
727.8466858461
 20
193.0012480256
 30
0.0
 11
727.8466858461
 21
178.0012480256
 31
0.0
  0
LINE
  5
19D
  8
LAYER1
  6
CONTINUOUS
 62
     7
 10
606.2466858461
 20
178.0012480256
 30
0.0
 11
602.0466858461
 21
178.0012480256
 31
0.0
  0
LINE
  5
19E
  8
LAYER1
  6
CONTINUOUS
 62
     7
 10
602.0466858461
 20
158.0012480256
 30
0.0
 11
602.0466858461
 21
178.0012480256
 31
0.0
  0
LINE
  5
19F
  8
LAYER1
  6
CONTINUOUS
 62
     7
 10
602.0466858461
 20
158.0012480256
 30
0.0
 11
606.2466858461
 21
158.0012480256
 31
0.0
  0
LINE
  5
1A0
  8
LAYER1
  6
CONTINUOUS
 62
     7
 10
732.0466858461
 20
178.0012480256
 30
0.0
 11
727.8466858461
 21
178.0012480256
 31
0.0
  0
LINE
  5
1A1
  8
LAYER1
  6
CONTINUOUS
 62
     7
 10
727.8466858461
 20
158.0012480256
 30
0.0
 11
732.0466858461
 21
158.0012480256
 31
0.0
  0
LINE
  5
1A2
  8
LAYER1
  6
CONTINUOUS
 62
     7
 10
732.0466858461
 20
178.0012480256
 30
0.0
 11
732.0466858461
 21
158.0012480256
 31
0.0
  0
LINE
  5
1A3
  8
LAYER1
  6
CONTINUOUS
 62
     7
 10
687.0466858461
 20
193.0012480256
 30
0.0
 11
727.8466858461
 21
193.0012480256
 31
0.0
  0
LINE
  5
1A4
  8
LAYER1
  6
CONTINUOUS
 62
     7
 10
606.2466858461
 20
143.0012480256
 30
0.0
 11
606.2466858461
 21
158.0012480256
 31
0.0
  0
LINE
  5
1A5
  8
LAYER1
  6
CONTINUOUS
 62
     7
 10
664.9466858461
 20
143.0012480256
 30
0.0
 11
606.2466858461
 21
143.0012480256
 31
0.0
  0
LINE
  5
1A6
  8
LAYER1
  6
CONTINUOUS
 62
     7
 10
727.8466858461
 20
158.0012480256
 30
0.0
 11
727.8466858461
 21
143.0012480256
 31
0.0
  0
ENDBLK
  5
1A8
  8
0
  0
BLOCK
  8
0
  2
SE10
 70
     0
 10
0.0
 20
0.0
 30
0.0
  3
SE10
  1

  0
INSERT
  5
1AE
  8
LAYER1
  2
SE11
 10
0.0
 20
0.0
 30
0.0
  0
ENDBLK
  5
1C6
  8
0
  0
BLOCK
  8
0
  2
SE11
 70
     0
 10
0.0
 20
0.0
 30
0.0
  3
SE11
  1

  0
LINE
  5
1AF
  8
LAYER1
  6
CONTINUOUS
 62
     7
 10
724.2252216428
 20
274.2441453457
 30
0.0
 11
665.5252216428
 21
274.2441453457
 31
0.0
  0
LINE
  5
1B0
  8
LAYER1
  6
CONTINUOUS
 62
     7
 10
665.5252216428
 20
299.2441453457
 30
0.0
 11
661.3252216428
 21
299.2441453457
 31
0.0
  0
LINE
  5
1B1
  8
LAYER1
  6
CONTINUOUS
 62
     7
 10
665.5252216428
 20
274.2441453457
 30
0.0
 11
665.5252216428
 21
299.2441453457
 31
0.0
  0
LINE
  5
1B2
  8
LAYER1
  6
CONTINUOUS
 62
     7
 10
661.3252216428
 20
299.2441453457
 30
0.0
 11
661.3252216428
 21
274.2441453457
 31
0.0
  0
LINE
  5
1B3
  8
LAYER1
  6
CONTINUOUS
 62
     7
 10
602.6252216428
 20
324.2441453457
 30
0.0
 11
643.4252216428
 21
324.2441453457
 31
0.0
  0
LINE
  5
1B4
  8
LAYER1
  6
CONTINUOUS
 62
     7
 10
683.4252216428
 20
328.4441453457
 30
0.0
 11
643.4252216428
 21
328.4441453457
 31
0.0
  0
LINE
  5
1B5
  8
LAYER1
  6
CONTINUOUS
 62
     7
 10
683.4252216428
 20
324.2441453457
 30
0.0
 11
683.4252216428
 21
328.4441453457
 31
0.0
  0
LINE
  5
1B6
  8
LAYER1
  6
CONTINUOUS
 62
     7
 10
643.4252216428
 20
328.4441453457
 30
0.0
 11
643.4252216428
 21
324.2441453457
 31
0.0
  0
LINE
  5
1B7
  8
LAYER1
  6
CONTINUOUS
 62
     7
 10
602.6252216428
 20
309.2441453457
 30
0.0
 11
602.6252216428
 21
324.2441453457
 31
0.0
  0
LINE
  5
1B8
  8
LAYER1
  6
CONTINUOUS
 62
     7
 10
724.2252216428
 20
324.2441453457
 30
0.0
 11
724.2252216428
 21
309.2441453457
 31
0.0
  0
LINE
  5
1B9
  8
LAYER1
  6
CONTINUOUS
 62
     7
 10
602.6252216428
 20
309.2441453457
 30
0.0
 11
598.4252216428
 21
309.2441453457
 31
0.0
  0
LINE
  5
1BA
  8
LAYER1
  6
CONTINUOUS
 62
     7
 10
598.4252216428
 20
289.2441453457
 30
0.0
 11
598.4252216428
 21
309.2441453457
 31
0.0
  0
LINE
  5
1BB
  8
LAYER1
  6
CONTINUOUS
 62
     7
 10
598.4252216428
 20
289.2441453457
 30
0.0
 11
602.6252216428
 21
289.2441453457
 31
0.0
  0
LINE
  5
1BC
  8
LAYER1
  6
CONTINUOUS
 62
     7
 10
728.4252216428
 20
309.2441453457
 30
0.0
 11
724.2252216428
 21
309.2441453457
 31
0.0
  0
LINE
  5
1BD
  8
LAYER1
  6
CONTINUOUS
 62
     7
 10
724.2252216428
 20
289.2441453457
 30
0.0
 11
728.4252216428
 21
289.2441453457
 31
0.0
  0
LINE
  5
1BE
  8
LAYER1
  6
CONTINUOUS
 62
     7
 10
728.4252216428
 20
309.2441453457
 30
0.0
 11
728.4252216428
 21
289.2441453457
 31
0.0
  0
LINE
  5
1BF
  8
LAYER1
  6
CONTINUOUS
 62
     7
 10
683.4252216428
 20
324.2441453457
 30
0.0
 11
724.2252216428
 21
324.2441453457
 31
0.0
  0
LINE
  5
1C0
  8
LAYER1
  6
CONTINUOUS
 62
     7
 10
602.6252216428
 20
274.2441453457
 30
0.0
 11
602.6252216428
 21
289.2441453457
 31
0.0
  0
LINE
  5
1C1
  8
LAYER1
  6
CONTINUOUS
 62
     7
 10
661.3252216428
 20
274.2441453457
 30
0.0
 11
602.6252216428
 21
274.2441453457
 31
0.0
  0
LINE
  5
1C2
  8
LAYER1
  6
CONTINUOUS
 62
     7
 10
724.2252216428
 20
289.2441453457
 30
0.0
 11
724.2252216428
 21
274.2441453457
 31
0.0
  0
ENDBLK
  5
1C4
  8
0
  0
BLOCK
  8
0
  2
SE12
 70
     0
 10
0.0
 20
0.0
 30
0.0
  3
SE12
  1

  0
INSERT
  5
1CA
  8
LAYER1
  2
SE13
 10
0.0
 20
0.0
 30
0.0
  0
ENDBLK
  5
1E2
  8
0
  0
BLOCK
  8
0
  2
SE13
 70
     0
 10
0.0
 20
0.0
 30
0.0
  3
SE13
  1

  0
LINE
  5
1CB
  8
LAYER1
  6
CONTINUOUS
 62
     7
 10
727.8466858461
 20
208.0012480256
 30
0.0
 11
669.1466858461
 21
208.0012480256
 31
0.0
  0
LINE
  5
1CC
  8
LAYER1
  6
CONTINUOUS
 62
     7
 10
669.1466858461
 20
233.0012480256
 30
0.0
 11
664.9466858461
 21
233.0012480256
 31
0.0
  0
LINE
  5
1CD
  8
LAYER1
  6
CONTINUOUS
 62
     7
 10
669.1466858461
 20
208.0012480256
 30
0.0
 11
669.1466858461
 21
233.0012480256
 31
0.0
  0
LINE
  5
1CE
  8
LAYER1
  6
CONTINUOUS
 62
     7
 10
664.9466858461
 20
233.0012480256
 30
0.0
 11
664.9466858461
 21
208.0012480256
 31
0.0
  0
LINE
  5
1CF
  8
LAYER1
  6
CONTINUOUS
 62
     7
 10
606.2466858461
 20
258.0012480256
 30
0.0
 11
647.0466858461
 21
258.0012480256
 31
0.0
  0
LINE
  5
1D0
  8
LAYER1
  6
CONTINUOUS
 62
     7
 10
687.0466858461
 20
262.2012480256
 30
0.0
 11
647.0466858461
 21
262.2012480256
 31
0.0
  0
LINE
  5
1D1
  8
LAYER1
  6
CONTINUOUS
 62
     7
 10
687.0466858461
 20
258.0012480256
 30
0.0
 11
687.0466858461
 21
262.2012480256
 31
0.0
  0
LINE
  5
1D2
  8
LAYER1
  6
CONTINUOUS
 62
     7
 10
647.0466858461
 20
262.2012480256
 30
0.0
 11
647.0466858461
 21
258.0012480256
 31
0.0
  0
LINE
  5
1D3
  8
LAYER1
  6
CONTINUOUS
 62
     7
 10
606.2466858461
 20
243.0012480256
 30
0.0
 11
606.2466858461
 21
258.0012480256
 31
0.0
  0
LINE
  5
1D4
  8
LAYER1
  6
CONTINUOUS
 62
     7
 10
727.8466858461
 20
258.0012480256
 30
0.0
 11
727.8466858461
 21
243.0012480256
 31
0.0
  0
LINE
  5
1D5
  8
LAYER1
  6
CONTINUOUS
 62
     7
 10
606.2466858461
 20
243.0012480256
 30
0.0
 11
602.0466858461
 21
243.0012480256
 31
0.0
  0
LINE
  5
1D6
  8
LAYER1
  6
CONTINUOUS
 62
     7
 10
602.0466858461
 20
223.0012480256
 30
0.0
 11
602.0466858461
 21
243.0012480256
 31
0.0
  0
LINE
  5
1D7
  8
LAYER1
  6
CONTINUOUS
 62
     7
 10
602.0466858461
 20
223.0012480256
 30
0.0
 11
606.2466858461
 21
223.0012480256
 31
0.0
  0
LINE
  5
1D8
  8
LAYER1
  6
CONTINUOUS
 62
     7
 10
732.0466858461
 20
243.0012480256
 30
0.0
 11
727.8466858461
 21
243.0012480256
 31
0.0
  0
LINE
  5
1D9
  8
LAYER1
  6
CONTINUOUS
 62
     7
 10
727.8466858461
 20
223.0012480256
 30
0.0
 11
732.0466858461
 21
223.0012480256
 31
0.0
  0
LINE
  5
1DA
  8
LAYER1
  6
CONTINUOUS
 62
     7
 10
732.0466858461
 20
243.0012480256
 30
0.0
 11
732.0466858461
 21
223.0012480256
 31
0.0
  0
LINE
  5
1DB
  8
LAYER1
  6
CONTINUOUS
 62
     7
 10
687.0466858461
 20
258.0012480256
 30
0.0
 11
727.8466858461
 21
258.0012480256
 31
0.0
  0
LINE
  5
1DC
  8
LAYER1
  6
CONTINUOUS
 62
     7
 10
606.2466858461
 20
208.0012480256
 30
0.0
 11
606.2466858461
 21
223.0012480256
 31
0.0
  0
LINE
  5
1DD
  8
LAYER1
  6
CONTINUOUS
 62
     7
 10
664.9466858461
 20
208.0012480256
 30
0.0
 11
606.2466858461
 21
208.0012480256
 31
0.0
  0
LINE
  5
1DE
  8
LAYER1
  6
CONTINUOUS
 62
     7
 10
727.8466858461
 20
223.0012480256
 30
0.0
 11
727.8466858461
 21
208.0012480256
 31
0.0
  0
ENDBLK
  5
1E0
  8
0
  0
BLOCK
  8
0
  2
SE14
 70
     0
 10
0.0
 20
0.0
 30
0.0
  3
SE14
  1

  0
INSERT
  5
1E6
  8
LAYER1
  2
SE15
 10
0.0
 20
0.0
 30
0.0
  0
ENDBLK
  5
235
  8
0
  0
BLOCK
  8
0
  2
SE15
 70
     0
 10
0.0
 20
0.0
 30
0.0
  3
SE15
  1

  0
LINE
  5
1E7
  8
LAYER1
  6
CONTINUOUS
 62
     7
 10
330.723568927
 20
200.0012480256
 30
0.0
 11
363.505536164
 21
200.0012480256
 31
0.0
  0
LINE
  5
1E8
  8
LAYER1
  6
CONTINUOUS
 62
     7
 10
364.505536164
 20
201.0012480256
 30
0.0
 11
364.505536164
 21
201.7870344632
 31
0.0
  0
LINE
  5
1E9
  8
LAYER1
  6
CONTINUOUS
 62
     7
 10
360.305536164
 20
204.2012480256
 30
0.0
 11
330.723568927
 21
204.2012480256
 31
0.0
  0
LINE
  5
1EA
  8
LAYER1
  6
CONTINUOUS
 62
     7
 10
361.005536164
 20
205.7012480256
 30
0.0
 11
360.305536164
 21
205.7012480256
 31
0.0
  0
LINE
  5
1EB
  8
LAYER1
  6
CONTINUOUS
 62
     7
 10
360.305536164
 20
205.7012480256
 30
0.0
 11
360.305536164
 21
204.2012480256
 31
0.0
  0
LINE
  5
1EC
  8
STANDARD
  6
CONTINUOUS
 62
     7
 10
361.005536164
 20
205.7012480256
 30
0.0
 11
364.2126429452
 21
202.4941412444
 31
0.0
  0
ARC
  5
1ED
  8
STANDARD
  6
CONTINUOUS
 62
     7
 10
363.505536164
 20
201.0012480256
 30
0.0
 40
1.0
 50
270.0
 51
0.0
  0
ARC
  5
1EE
  8
STANDARD
  6
CONTINUOUS
 62
     7
 10
363.505536164
 20
201.7870344632
 30
0.0
 40
1.0
 50
0.0
 51
45.0
  0
ARC
  5
1EF
  8
STANDARD
  6
CONTINUOUS
 62
     7
 10
363.505536164
 20
142.0154615879
 30
0.0
 40
1.0
 50
315.0
 51
0.0
  0
ARC
  5
1F0
  8
STANDARD
  6
CONTINUOUS
 62
     7
 10
363.505536164
 20
142.8012480256
 30
0.0
 40
1.0
 50
0.0
 51
90.0
  0
LINE
  5
1F1
  8
STANDARD
  6
CONTINUOUS
 62
     7
 10
361.005536164
 20
138.1012480256
 30
0.0
 11
364.2126429452
 21
141.3083548067
 31
0.0
  0
ARC
  5
1F2
  8
STANDARD
  6
CONTINUOUS
 62
     7
 10
330.723568927
 20
198.5012480256
 30
0.0
 40
1.500000000000001
 50
90.0
 51
340.5287793655
  0
ARC
  5
1F3
  8
STANDARD
  6
CONTINUOUS
 62
     7
 10
330.723568927
 20
145.3012480256
 30
0.0
 40
1.500000000000001
 50
19.4712206345
 51
270.0
  0
LINE
  5
1F4
  8
STANDARD
  6
CONTINUOUS
 62
     7
 10
332.1377824894
 20
198.0012480256
 30
0.0
 11
356.105536164
 21
198.0012480256
 31
0.0
  0
LINE
  5
1F5
  8
STANDARD
  6
CONTINUOUS
 62
     7
 10
332.1377824894
 20
145.8012480256
 30
0.0
 11
356.105536164
 21
145.8012480256
 31
0.0
  0
LINE
  5
1F6
  8
LAYER1
  6
CONTINUOUS
 62
     7
 10
321.105536164
 20
51.4012480256
 30
0.0
 11
321.105536164
 21
47.2012480256
 31
0.0
  0
LINE
  5
1F7
  8
LAYER1
  6
CONTINUOUS
 62
     7
 10
321.105536164
 20
47.2012480256
 30
0.0
 11
341.105536164
 21
47.2012480256
 31
0.0
  0
LINE
  5
1F8
  8
LAYER1
  6
CONTINUOUS
 62
     7
 10
341.105536164
 20
47.2012480256
 30
0.0
 11
341.105536164
 21
51.4012480256
 31
0.0
  0
LINE
  5
1F9
  8
LAYER1
  6
CONTINUOUS
 62
     7
 10
341.105536164
 20
51.4012480256
 30
0.0
 11
321.105536164
 21
51.4012480256
 31
0.0
  0
LINE
  5
1FA
  8
LAYER1
  6
CONTINUOUS
 62
     7
 10
321.105536164
 20
228.2012480256
 30
0.0
 11
321.105536164
 21
224.0012480256
 31
0.0
  0
LINE
  5
1FB
  8
LAYER1
  6
CONTINUOUS
 62
     7
 10
321.105536164
 20
224.0012480256
 30
0.0
 11
341.105536164
 21
224.0012480256
 31
0.0
  0
LINE
  5
1FC
  8
LAYER1
  6
CONTINUOUS
 62
     7
 10
341.105536164
 20
224.0012480256
 30
0.0
 11
341.105536164
 21
228.2012480256
 31
0.0
  0
LINE
  5
1FD
  8
LAYER1
  6
CONTINUOUS
 62
     7
 10
341.105536164
 20
228.2012480256
 30
0.0
 11
321.105536164
 21
228.2012480256
 31
0.0
  0
LINE
  5
1FE
  8
LAYER1
  6
CONTINUOUS
 62
     7
 10
321.105536164
 20
119.8012480256
 30
0.0
 11
321.105536164
 21
115.6012480256
 31
0.0
  0
LINE
  5
1FF
  8
LAYER1
  6
CONTINUOUS
 62
     7
 10
321.105536164
 20
115.6012480256
 30
0.0
 11
341.105536164
 21
115.6012480256
 31
0.0
  0
LINE
  5
200
  8
LAYER1
  6
CONTINUOUS
 62
     7
 10
341.105536164
 20
115.6012480256
 30
0.0
 11
341.105536164
 21
119.8012480256
 31
0.0
  0
LINE
  5
201
  8
LAYER1
  6
CONTINUOUS
 62
     7
 10
341.105536164
 20
119.8012480256
 30
0.0
 11
321.105536164
 21
119.8012480256
 31
0.0
  0
LINE
  5
202
  8
LAYER1
  6
CONTINUOUS
 62
     7
 10
321.105536164
 20
296.6012480256
 30
0.0
 11
321.105536164
 21
292.4012480256
 31
0.0
  0
LINE
  5
203
  8
LAYER1
  6
CONTINUOUS
 62
     7
 10
321.105536164
 20
292.4012480256
 30
0.0
 11
341.105536164
 21
292.4012480256
 31
0.0
  0
LINE
  5
204
  8
LAYER1
  6
CONTINUOUS
 62
     7
 10
341.105536164
 20
292.4012480256
 30
0.0
 11
341.105536164
 21
296.6012480256
 31
0.0
  0
LINE
  5
205
  8
LAYER1
  6
CONTINUOUS
 62
     7
 10
341.105536164
 20
296.6012480256
 30
0.0
 11
321.105536164
 21
296.6012480256
 31
0.0
  0
LINE
  5
206
  8
LAYER1
  6
CONTINUOUS
 62
     7
 10
321.105536164
 20
262.4012480256
 30
0.0
 11
321.105536164
 21
258.2012480256
 31
0.0
  0
LINE
  5
207
  8
LAYER1
  6
CONTINUOUS
 62
     7
 10
321.105536164
 20
258.2012480256
 30
0.0
 11
341.105536164
 21
258.2012480256
 31
0.0
  0
LINE
  5
208
  8
LAYER1
  6
CONTINUOUS
 62
     7
 10
341.105536164
 20
258.2012480256
 30
0.0
 11
341.105536164
 21
262.4012480256
 31
0.0
  0
LINE
  5
209
  8
LAYER1
  6
CONTINUOUS
 62
     7
 10
341.105536164
 20
262.4012480256
 30
0.0
 11
321.105536164
 21
262.4012480256
 31
0.0
  0
LINE
  5
20A
  8
LAYER1
  6
CONTINUOUS
 62
     7
 10
321.105536164
 20
85.6012480256
 30
0.0
 11
321.105536164
 21
81.4012480256
 31
0.0
  0
LINE
  5
20B
  8
LAYER1
  6
CONTINUOUS
 62
     7
 10
321.105536164
 20
81.4012480256
 30
0.0
 11
341.105536164
 21
81.4012480256
 31
0.0
  0
LINE
  5
20C
  8
LAYER1
  6
CONTINUOUS
 62
     7
 10
341.105536164
 20
81.4012480256
 30
0.0
 11
341.105536164
 21
85.6012480256
 31
0.0
  0
LINE
  5
20D
  8
LAYER1
  6
CONTINUOUS
 62
     7
 10
341.105536164
 20
85.6012480256
 30
0.0
 11
321.105536164
 21
85.6012480256
 31
0.0
  0
LINE
  5
20E
  8
LAYER1
  6
CONTINUOUS
 62
     7
 10
321.105536164
 20
174.0012480256
 30
0.0
 11
321.105536164
 21
169.8012480256
 31
0.0
  0
LINE
  5
20F
  8
LAYER1
  6
CONTINUOUS
 62
     7
 10
321.105536164
 20
169.8012480256
 30
0.0
 11
341.105536164
 21
169.8012480256
 31
0.0
  0
LINE
  5
210
  8
LAYER1
  6
CONTINUOUS
 62
     7
 10
341.105536164
 20
169.8012480256
 30
0.0
 11
341.105536164
 21
174.0012480256
 31
0.0
  0
LINE
  5
211
  8
LAYER1
  6
CONTINUOUS
 62
     7
 10
341.105536164
 20
174.0012480256
 30
0.0
 11
321.105536164
 21
174.0012480256
 31
0.0
  0
ARC
  5
212
  8
STANDARD
  6
CONTINUOUS
 62
     7
 10
330.723568927
 20
138.1012480256
 30
0.0
 40
1.5
 50
90.0
 51
340.5287793655
  0
LINE
  5
213
  8
LAYER1
  6
CONTINUOUS
 62
     7
 10
360.305536164
 20
138.1012480256
 30
0.0
 11
360.305536164
 21
139.6012480256
 31
0.0
  0
LINE
  5
214
  8
LAYER1
  6
CONTINUOUS
 62
     7
 10
361.005536164
 20
138.1012480256
 30
0.0
 11
360.305536164
 21
138.1012480256
 31
0.0
  0
LINE
  5
215
  8
LAYER1
  6
CONTINUOUS
 62
     7
 10
360.305536164
 20
139.6012480256
 30
0.0
 11
330.723568927
 21
139.6012480256
 31
0.0
  0
LINE
  5
216
  8
LAYER1
  6
CONTINUOUS
 62
     7
 10
364.505536164
 20
142.8012480256
 30
0.0
 11
364.505536164
 21
142.0154615879
 31
0.0
  0
LINE
  5
217
  8
LAYER1
  6
CONTINUOUS
 62
     7
 10
356.105536164
 20
137.6012480256
 30
0.0
 11
332.1377824894
 21
137.6012480256
 31
0.0
  0
LINE
  5
218
  8
LAYER1
  6
CONTINUOUS
 62
     7
 10
330.723568927
 20
143.8012480256
 30
0.0
 11
363.505536164
 21
143.8012480256
 31
0.0
  0
ARC
  5
219
  8
STANDARD
  6
CONTINUOUS
 62
     7
 10
330.723568927
 20
205.7012480256
 30
0.0
 40
1.5
 50
19.4712206345
 51
270.0
  0
LINE
  5
21A
  8
LAYER1
  6
CONTINUOUS
 62
     7
 10
356.105536164
 20
145.8012480256
 30
0.0
 11
356.105536164
 21
198.0012480256
 31
0.0
  0
LINE
  5
21B
  8
LAYER1
  6
CONTINUOUS
 62
     7
 10
356.105536164
 20
206.2012480256
 30
0.0
 11
356.105536164
 21
326.7012480256
 31
0.0
  0
LINE
  5
21C
  8
LAYER1
  6
CONTINUOUS
 62
     7
 10
356.105536164
 20
206.2012480256
 30
0.0
 11
332.1377824894
 21
206.2012480256
 31
0.0
  0
POINT
  5
21D
  8
LAYER1
  6
CONTINUOUS
 62
     7
 10
331.105536164
 20
171.9012480256
 30
0.0
  0
LINE
  5
21E
  8
LAYER1
  6
CONTINUOUS
 62
     7
 10
306.105536164
 20
201.9012480256
 30
0.0
 11
306.105536164
 21
141.9012480256
 31
0.0
  0
LINE
  5
21F
  8
LAYER1
  6
CONTINUOUS
 62
     7
 10
306.105536164
 20
326.7012480256
 30
0.0
 11
306.105536164
 21
261.9012480256
 31
0.0
  0
LINE
  5
220
  8
LAYER1
  6
CONTINUOUS
 62
     7
 10
301.905536164
 20
141.9012480256
 30
0.0
 11
306.105536164
 21
141.9012480256
 31
0.0
  0
LINE
  5
221
  8
LAYER1
  6
CONTINUOUS
 62
     7
 10
301.905536164
 20
81.9012480256
 30
0.0
 11
301.905536164
 21
141.9012480256
 31
0.0
  0
LINE
  5
222
  8
LAYER1
  6
CONTINUOUS
 62
     7
 10
306.105536164
 20
81.9012480256
 30
0.0
 11
301.905536164
 21
81.9012480256
 31
0.0
  0
LINE
  5
223
  8
LAYER1
  6
CONTINUOUS
 62
     7
 10
301.905536164
 20
261.9012480256
 30
0.0
 11
306.105536164
 21
261.9012480256
 31
0.0
  0
LINE
  5
224
  8
LAYER1
  6
CONTINUOUS
 62
     7
 10
301.905536164
 20
201.9012480256
 30
0.0
 11
301.905536164
 21
261.9012480256
 31
0.0
  0
LINE
  5
225
  8
LAYER1
  6
CONTINUOUS
 62
     7
 10
306.105536164
 20
201.9012480256
 30
0.0
 11
301.905536164
 21
201.9012480256
 31
0.0
  0
LINE
  5
226
  8
LAYER1
  6
CONTINUOUS
 62
     7
 10
341.105536164
 20
17.1012480256
 30
0.0
 11
341.105536164
 21
13.0012480256
 31
0.0
  0
LINE
  5
227
  8
LAYER1
  6
CONTINUOUS
 62
     7
 10
356.105536164
 20
17.1012480256
 30
0.0
 11
341.105536164
 21
17.1012480256
 31
0.0
  0
LINE
  5
228
  8
LAYER1
  6
CONTINUOUS
 62
     7
 10
321.105536164
 20
17.1012480256
 30
0.0
 11
321.105536164
 21
13.0012480256
 31
0.0
  0
LINE
  5
229
  8
LAYER1
  6
CONTINUOUS
 62
     7
 10
306.105536164
 20
17.1012480256
 30
0.0
 11
321.105536164
 21
17.1012480256
 31
0.0
  0
LINE
  5
22A
  8
LAYER1
  6
CONTINUOUS
 62
     7
 10
321.105536164
 20
13.0012480256
 30
0.0
 11
341.105536164
 21
13.0012480256
 31
0.0
  0
LINE
  5
22B
  8
LAYER1
  6
CONTINUOUS
 62
     7
 10
321.105536164
 20
326.7012480256
 30
0.0
 11
321.105536164
 21
330.8012480256
 31
0.0
  0
LINE
  5
22C
  8
LAYER1
  6
CONTINUOUS
 62
     7
 10
306.105536164
 20
326.7012480256
 30
0.0
 11
321.105536164
 21
326.7012480256
 31
0.0
  0
LINE
  5
22D
  8
LAYER1
  6
CONTINUOUS
 62
     7
 10
341.105536164
 20
326.7012480256
 30
0.0
 11
341.105536164
 21
330.8012480256
 31
0.0
  0
LINE
  5
22E
  8
LAYER1
  6
CONTINUOUS
 62
     7
 10
356.105536164
 20
326.7012480256
 30
0.0
 11
341.105536164
 21
326.7012480256
 31
0.0
  0
LINE
  5
22F
  8
LAYER1
  6
CONTINUOUS
 62
     7
 10
341.105536164
 20
330.8012480256
 30
0.0
 11
321.105536164
 21
330.8012480256
 31
0.0
  0
LINE
  5
230
  8
LAYER1
  6
CONTINUOUS
 62
     7
 10
356.105536164
 20
17.1012480256
 30
0.0
 11
356.105536164
 21
137.6012480256
 31
0.0
  0
LINE
  5
231
  8
LAYER1
  6
CONTINUOUS
 62
     7
 10
306.105536164
 20
81.9012480256
 30
0.0
 11
306.105536164
 21
17.1012480256
 31
0.0
  0
ENDBLK
  5
233
  8
0
  0
BLOCK
  8
0
  2
SE16
 70
     0
 10
0.0
 20
0.0
 30
0.0
  3
SE16
  1

  0
INSERT
  5
239
  8
LAYER1
  2
SE17
 10
0.0
 20
0.0
 30
0.0
  0
ENDBLK
  5
286
  8
0
  0
BLOCK
  8
0
  2
SE17
 70
     0
 10
0.0
 20
0.0
 30
0.0
  3
SE17
  1

  0
LINE
  5
23A
  8
LAYER1
  6
CONTINUOUS
 62
     7
 10
74.7240821325
 20
296.6012480256
 30
0.0
 11
74.7240821325
 21
301.6012480256
 31
0.0
  0
LINE
  5
23B
  8
LAYER1
  6
CONTINUOUS
 62
     7
 10
74.7240821325
 20
262.4012480256
 30
0.0
 11
74.7240821325
 21
267.4012480256
 31
0.0
  0
LINE
  5
23C
  8
LAYER1
  6
CONTINUOUS
 62
     7
 10
74.7240821325
 20
228.2012480256
 30
0.0
 11
74.7240821325
 21
233.2012480256
 31
0.0
  0
LINE
  5
23D
  8
LAYER1
  6
CONTINUOUS
 62
     7
 10
74.7240821325
 20
174.0012480256
 30
0.0
 11
74.7240821325
 21
189.0012480256
 31
0.0
  0
LINE
  5
23E
  8
LAYER1
  6
CONTINUOUS
 62
     7
 10
74.7240821325
 20
119.8012480256
 30
0.0
 11
74.7240821325
 21
134.8012480256
 31
0.0
  0
LINE
  5
23F
  8
LAYER1
  6
CONTINUOUS
 62
     7
 10
74.7240821325
 20
85.6012480256
 30
0.0
 11
74.7240821325
 21
90.6012480256
 31
0.0
  0
LINE
  5
240
  8
LAYER1
  6
CONTINUOUS
 62
     7
 10
74.7240821325
 20
51.4012480256
 30
0.0
 11
74.7240821325
 21
56.4012480256
 31
0.0
  0
LINE
  5
241
  8
LAYER1
  6
CONTINUOUS
 62
     7
 10
74.7240821325
 20
42.2012480256
 30
0.0
 11
74.7240821325
 21
47.2012480256
 31
0.0
  0
LINE
  5
242
  8
LAYER1
  6
CONTINUOUS
 62
     7
 10
78.9240821325
 20
321.6012480256
 30
0.0
 11
74.7240821325
 21
321.6012480256
 31
0.0
  0
LINE
  5
243
  8
LAYER1
  6
CONTINUOUS
 62
     7
 10
78.9240821325
 20
301.6012480256
 30
0.0
 11
78.9240821325
 21
321.6012480256
 31
0.0
  0
LINE
  5
244
  8
LAYER1
  6
CONTINUOUS
 62
     7
 10
74.7240821325
 20
301.6012480256
 30
0.0
 11
78.9240821325
 21
301.6012480256
 31
0.0
  0
LINE
  5
245
  8
LAYER1
  6
CONTINUOUS
 62
     7
 10
78.9240821325
 20
287.4012480256
 30
0.0
 11
74.7240821325
 21
287.4012480256
 31
0.0
  0
LINE
  5
246
  8
LAYER1
  6
CONTINUOUS
 62
     7
 10
78.9240821325
 20
267.4012480256
 30
0.0
 11
78.9240821325
 21
287.4012480256
 31
0.0
  0
LINE
  5
247
  8
LAYER1
  6
CONTINUOUS
 62
     7
 10
74.7240821325
 20
267.4012480256
 30
0.0
 11
78.9240821325
 21
267.4012480256
 31
0.0
  0
LINE
  5
248
  8
LAYER1
  6
CONTINUOUS
 62
     7
 10
78.9240821325
 20
253.2012480256
 30
0.0
 11
74.7240821325
 21
253.2012480256
 31
0.0
  0
LINE
  5
249
  8
LAYER1
  6
CONTINUOUS
 62
     7
 10
78.9240821325
 20
233.2012480256
 30
0.0
 11
78.9240821325
 21
253.2012480256
 31
0.0
  0
LINE
  5
24A
  8
LAYER1
  6
CONTINUOUS
 62
     7
 10
74.7240821325
 20
233.2012480256
 30
0.0
 11
78.9240821325
 21
233.2012480256
 31
0.0
  0
LINE
  5
24B
  8
LAYER1
  6
CONTINUOUS
 62
     7
 10
74.7240821325
 20
22.2012480256
 30
0.0
 11
78.9240821325
 21
22.2012480256
 31
0.0
  0
LINE
  5
24C
  8
LAYER1
  6
CONTINUOUS
 62
     7
 10
78.9240821325
 20
42.2012480256
 30
0.0
 11
74.7240821325
 21
42.2012480256
 31
0.0
  0
LINE
  5
24D
  8
LAYER1
  6
CONTINUOUS
 62
     7
 10
78.9240821325
 20
22.2012480256
 30
0.0
 11
78.9240821325
 21
42.2012480256
 31
0.0
  0
LINE
  5
24E
  8
LAYER1
  6
CONTINUOUS
 62
     7
 10
74.7240821325
 20
56.4012480256
 30
0.0
 11
78.9240821325
 21
56.4012480256
 31
0.0
  0
LINE
  5
24F
  8
LAYER1
  6
CONTINUOUS
 62
     7
 10
78.9240821325
 20
76.4012480256
 30
0.0
 11
74.7240821325
 21
76.4012480256
 31
0.0
  0
LINE
  5
250
  8
LAYER1
  6
CONTINUOUS
 62
     7
 10
78.9240821325
 20
56.4012480256
 30
0.0
 11
78.9240821325
 21
76.4012480256
 31
0.0
  0
LINE
  5
251
  8
LAYER1
  6
CONTINUOUS
 62
     7
 10
74.7240821325
 20
90.6012480256
 30
0.0
 11
78.9240821325
 21
90.6012480256
 31
0.0
  0
LINE
  5
252
  8
LAYER1
  6
CONTINUOUS
 62
     7
 10
78.9240821325
 20
110.6012480256
 30
0.0
 11
74.7240821325
 21
110.6012480256
 31
0.0
  0
LINE
  5
253
  8
LAYER1
  6
CONTINUOUS
 62
     7
 10
78.9240821325
 20
90.6012480256
 30
0.0
 11
78.9240821325
 21
110.6012480256
 31
0.0
  0
LINE
  5
254
  8
LAYER1
  6
CONTINUOUS
 62
     7
 10
74.7240821325
 20
134.8012480256
 30
0.0
 11
78.9240821325
 21
134.8012480256
 31
0.0
  0
LINE
  5
255
  8
LAYER1
  6
CONTINUOUS
 62
     7
 10
78.9240821325
 20
154.8012480256
 30
0.0
 11
74.7240821325
 21
154.8012480256
 31
0.0
  0
LINE
  5
256
  8
LAYER1
  6
CONTINUOUS
 62
     7
 10
78.9240821325
 20
134.8012480256
 30
0.0
 11
78.9240821325
 21
154.8012480256
 31
0.0
  0
LINE
  5
257
  8
LAYER1
  6
CONTINUOUS
 62
     7
 10
74.7240821325
 20
189.0012480256
 30
0.0
 11
78.9240821325
 21
189.0012480256
 31
0.0
  0
LINE
  5
258
  8
LAYER1
  6
CONTINUOUS
 62
     7
 10
78.9240821325
 20
209.0012480256
 30
0.0
 11
74.7240821325
 21
209.0012480256
 31
0.0
  0
LINE
  5
259
  8
LAYER1
  6
CONTINUOUS
 62
     7
 10
78.9240821325
 20
189.0012480256
 30
0.0
 11
78.9240821325
 21
209.0012480256
 31
0.0
  0
LINE
  5
25A
  8
LAYER1
  6
CONTINUOUS
 62
     7
 10
74.7240821325
 20
296.6012480256
 30
0.0
 11
49.7240821325
 21
296.6012480256
 31
0.0
  0
LINE
  5
25B
  8
LAYER1
  6
CONTINUOUS
 62
     7
 10
49.7240821325
 20
296.6012480256
 30
0.0
 11
49.7240821325
 21
292.4012480256
 31
0.0
  0
LINE
  5
25C
  8
LAYER1
  6
CONTINUOUS
 62
     7
 10
49.7240821325
 20
292.4012480256
 30
0.0
 11
74.7240821325
 21
292.4012480256
 31
0.0
  0
LINE
  5
25D
  8
LAYER1
  6
CONTINUOUS
 62
     7
 10
74.7240821325
 20
119.8012480256
 30
0.0
 11
49.7240821325
 21
119.8012480256
 31
0.0
  0
LINE
  5
25E
  8
LAYER1
  6
CONTINUOUS
 62
     7
 10
49.7240821325
 20
119.8012480256
 30
0.0
 11
49.7240821325
 21
115.6012480256
 31
0.0
  0
LINE
  5
25F
  8
LAYER1
  6
CONTINUOUS
 62
     7
 10
49.7240821325
 20
115.6012480256
 30
0.0
 11
74.7240821325
 21
115.6012480256
 31
0.0
  0
LINE
  5
260
  8
LAYER1
  6
CONTINUOUS
 62
     7
 10
74.7240821325
 20
228.2012480256
 30
0.0
 11
49.7240821325
 21
228.2012480256
 31
0.0
  0
LINE
  5
261
  8
LAYER1
  6
CONTINUOUS
 62
     7
 10
49.7240821325
 20
228.2012480256
 30
0.0
 11
49.7240821325
 21
224.0012480256
 31
0.0
  0
LINE
  5
262
  8
LAYER1
  6
CONTINUOUS
 62
     7
 10
49.7240821325
 20
224.0012480256
 30
0.0
 11
74.7240821325
 21
224.0012480256
 31
0.0
  0
LINE
  5
263
  8
LAYER1
  6
CONTINUOUS
 62
     7
 10
74.7240821325
 20
51.4012480256
 30
0.0
 11
49.7240821325
 21
51.4012480256
 31
0.0
  0
LINE
  5
264
  8
LAYER1
  6
CONTINUOUS
 62
     7
 10
49.7240821325
 20
51.4012480256
 30
0.0
 11
49.7240821325
 21
47.2012480256
 31
0.0
  0
LINE
  5
265
  8
LAYER1
  6
CONTINUOUS
 62
     7
 10
49.7240821325
 20
47.2012480256
 30
0.0
 11
74.7240821325
 21
47.2012480256
 31
0.0
  0
LINE
  5
266
  8
LAYER1
  6
CONTINUOUS
 62
     7
 10
74.7240821325
 20
85.6012480256
 30
0.0
 11
49.7240821325
 21
85.6012480256
 31
0.0
  0
LINE
  5
267
  8
LAYER1
  6
CONTINUOUS
 62
     7
 10
49.7240821325
 20
85.6012480256
 30
0.0
 11
49.7240821325
 21
81.4012480256
 31
0.0
  0
LINE
  5
268
  8
LAYER1
  6
CONTINUOUS
 62
     7
 10
49.7240821325
 20
81.4012480256
 30
0.0
 11
74.7240821325
 21
81.4012480256
 31
0.0
  0
LINE
  5
269
  8
LAYER1
  6
CONTINUOUS
 62
     7
 10
74.7240821325
 20
262.4012480256
 30
0.0
 11
49.7240821325
 21
262.4012480256
 31
0.0
  0
LINE
  5
26A
  8
LAYER1
  6
CONTINUOUS
 62
     7
 10
49.7240821325
 20
262.4012480256
 30
0.0
 11
49.7240821325
 21
258.2012480256
 31
0.0
  0
LINE
  5
26B
  8
LAYER1
  6
CONTINUOUS
 62
     7
 10
49.7240821325
 20
258.2012480256
 30
0.0
 11
74.7240821325
 21
258.2012480256
 31
0.0
  0
LINE
  5
26C
  8
LAYER1
  6
CONTINUOUS
 62
     7
 10
74.7240821325
 20
174.0012480256
 30
0.0
 11
49.7240821325
 21
174.0012480256
 31
0.0
  0
LINE
  5
26D
  8
LAYER1
  6
CONTINUOUS
 62
     7
 10
49.7240821325
 20
174.0012480256
 30
0.0
 11
49.7240821325
 21
169.8012480256
 31
0.0
  0
LINE
  5
26E
  8
LAYER1
  6
CONTINUOUS
 62
     7
 10
49.7240821325
 20
169.8012480256
 30
0.0
 11
74.7240821325
 21
169.8012480256
 31
0.0
  0
LINE
  5
26F
  8
LAYER1
  6
CONTINUOUS
 62
     7
 10
74.7240821325
 20
287.4012480256
 30
0.0
 11
74.7240821325
 21
292.4012480256
 31
0.0
  0
LINE
  5
270
  8
LAYER1
  6
CONTINUOUS
 62
     7
 10
74.7240821325
 20
253.2012480256
 30
0.0
 11
74.7240821325
 21
258.2012480256
 31
0.0
  0
LINE
  5
271
  8
LAYER1
  6
CONTINUOUS
 62
     7
 10
74.7240821325
 20
209.0012480256
 30
0.0
 11
74.7240821325
 21
224.0012480256
 31
0.0
  0
LINE
  5
272
  8
LAYER1
  6
CONTINUOUS
 62
     7
 10
74.7240821325
 20
154.8012480256
 30
0.0
 11
74.7240821325
 21
169.8012480256
 31
0.0
  0
LINE
  5
273
  8
LAYER1
  6
CONTINUOUS
 62
     7
 10
74.7240821325
 20
110.6012480256
 30
0.0
 11
74.7240821325
 21
115.6012480256
 31
0.0
  0
LINE
  5
274
  8
LAYER1
  6
CONTINUOUS
 62
     7
 10
74.7240821325
 20
76.4012480256
 30
0.0
 11
74.7240821325
 21
81.4012480256
 31
0.0
  0
LINE
  5
275
  8
LAYER1
  6
CONTINUOUS
 62
     7
 10
74.7240821325
 20
17.1012480256
 30
0.0
 11
74.7240821325
 21
22.2012480256
 31
0.0
  0
LINE
  5
276
  8
LAYER1
  6
CONTINUOUS
 62
     7
 10
74.7240821325
 20
321.6012480256
 30
0.0
 11
74.7240821325
 21
326.7012480256
 31
0.0
  0
LINE
  5
277
  8
LAYER1
  6
CONTINUOUS
 62
     7
 10
39.7240821325
 20
326.7012480256
 30
0.0
 11
39.7240821325
 21
330.8012480256
 31
0.0
  0
LINE
  5
278
  8
LAYER1
  6
CONTINUOUS
 62
     7
 10
24.7240821325
 20
326.7012480256
 30
0.0
 11
39.7240821325
 21
326.7012480256
 31
0.0
  0
LINE
  5
279
  8
LAYER1
  6
CONTINUOUS
 62
     7
 10
59.7240821325
 20
326.7012480256
 30
0.0
 11
59.7240821325
 21
330.8012480256
 31
0.0
  0
LINE
  5
27A
  8
LAYER1
  6
CONTINUOUS
 62
     7
 10
74.7240821325
 20
326.7012480256
 30
0.0
 11
59.7240821325
 21
326.7012480256
 31
0.0
  0
LINE
  5
27B
  8
LAYER1
  6
CONTINUOUS
 62
     7
 10
59.7240821325
 20
330.8012480256
 30
0.0
 11
39.7240821325
 21
330.8012480256
 31
0.0
  0
POINT
  5
27C
  8
LAYER1
  6
CONTINUOUS
 62
     7
 10
49.7240821325
 20
171.9012480256
 30
0.0
  0
LINE
  5
27D
  8
LAYER1
  6
CONTINUOUS
 62
     7
 10
59.7240821325
 20
17.1012480256
 30
0.0
 11
59.7240821325
 21
13.0012480256
 31
0.0
  0
LINE
  5
27E
  8
LAYER1
  6
CONTINUOUS
 62
     7
 10
74.7240821325
 20
17.1012480256
 30
0.0
 11
59.7240821325
 21
17.1012480256
 31
0.0
  0
LINE
  5
27F
  8
LAYER1
  6
CONTINUOUS
 62
     7
 10
39.7240821325
 20
17.1012480256
 30
0.0
 11
39.7240821325
 21
13.0012480256
 31
0.0
  0
LINE
  5
280
  8
LAYER1
  6
CONTINUOUS
 62
     7
 10
24.7240821325
 20
17.1012480256
 30
0.0
 11
39.7240821325
 21
17.1012480256
 31
0.0
  0
LINE
  5
281
  8
LAYER1
  6
CONTINUOUS
 62
     7
 10
39.7240821325
 20
13.0012480256
 30
0.0
 11
59.7240821325
 21
13.0012480256
 31
0.0
  0
LINE
  5
282
  8
LAYER1
  6
CONTINUOUS
 62
     7
 10
24.7240821325
 20
326.7012480256
 30
0.0
 11
24.7240821325
 21
17.1012480256
 31
0.0
  0
ENDBLK
  5
284
  8
0
  0
BLOCK
  8
0
  2
SE18
 70
     0
 10
0.0
 20
0.0
 30
0.0
  3
SE18
  1

  0
INSERT
  5
28A
  8
LAYER1
  2
SE19
 10
0.0
 20
0.0
 30
0.0
  0
ENDBLK
  5
2B4
  8
0
  0
BLOCK
  8
0
  2
SE19
 70
     0
 10
0.0
 20
0.0
 30
0.0
  3
SE19
  1

  0
LINE
  5
28B
  8
STANDARD
  6
CONTINUOUS
 62
     7
 10
375.7498352009
 20
197.0012480256
 30
0.0
 11
379.9498352009
 21
197.0012480256
 31
0.0
  0
ARC
  5
28C
  8
STANDARD
  6
CONTINUOUS
 62
     7
 10
510.7498352009
 20
303.2841026132
 30
0.0
 40
5.000000000000004
 50
110.027172484
 51
180.0
  0
ARC
  5
28D
  8
STANDARD
  6
CONTINUOUS
 62
     7
 10
505.7498352009
 20
317.0012451728
 30
0.0
 40
9.600000000000053
 50
290.027172484
 51
0.0
  0
LINE
  5
28E
  8
STANDARD
  6
CONTINUOUS
 62
     7
 10
515.3498352009
 20
326.6012480256
 30
0.0
 11
515.3498352009
 21
317.0012451728
 31
0.0
  0
LINE
  5
28F
  8
STANDARD
  6
CONTINUOUS
 62
     7
 10
500.3498352009
 20
330.8012480256
 30
0.0
 11
500.3498352009
 21
326.6012451728
 31
0.0
  0
LINE
  5
290
  8
LAYER1
  6
CONTINUOUS
 62
     7
 10
505.7498352009
 20
326.6012451728
 30
0.0
 11
500.3498352009
 21
326.6012451728
 31
0.0
  0
LINE
  5
291
  8
LAYER1
  6
CONTINUOUS
 62
     7
 10
509.9498352009
 20
326.6012480256
 30
0.0
 11
515.3498352009
 21
326.6012480256
 31
0.0
  0
LINE
  5
292
  8
LAYER1
  6
CONTINUOUS
 62
     7
 10
505.7498352009
 20
330.8012480256
 30
0.0
 11
509.9498352009
 21
330.8012480256
 31
0.0
  0
LINE
  5
293
  8
LAYER1
  6
CONTINUOUS
 62
     7
 10
505.7498352009
 20
326.6012451728
 30
0.0
 11
505.7498352009
 21
330.8012480256
 31
0.0
  0
LINE
  5
294
  8
LAYER1
  6
CONTINUOUS
 62
     7
 10
509.9498352009
 20
330.8012480256
 30
0.0
 11
509.9498352009
 21
326.6012480256
 31
0.0
  0
ARC
  5
295
  8
STANDARD
  6
CONTINUOUS
 62
     7
 10
510.7498352009
 20
40.5183934379
 30
0.0
 40
5.000000000000004
 50
180.0
 51
249.972827516
  0
ARC
  5
296
  8
STANDARD
  6
CONTINUOUS
 62
     7
 10
505.7498352009
 20
26.8012508783
 30
0.0
 40
9.600000000000053
 50
0.0
 51
69.972827516
  0
LINE
  5
297
  8
STANDARD
  6
CONTINUOUS
 62
     7
 10
515.3498352009
 20
17.2012480256
 30
0.0
 11
515.3498352009
 21
26.8012508783
 31
0.0
  0
LINE
  5
298
  8
STANDARD
  6
CONTINUOUS
 62
     7
 10
500.3498352009
 20
13.0012480256
 30
0.0
 11
500.3498352009
 21
17.2012508783
 31
0.0
  0
LINE
  5
299
  8
LAYER1
  6
CONTINUOUS
 62
     7
 10
505.7498352009
 20
17.2012508783
 30
0.0
 11
500.3498352009
 21
17.2012508783
 31
0.0
  0
LINE
  5
29A
  8
LAYER1
  6
CONTINUOUS
 62
     7
 10
509.9498352009
 20
17.2012480256
 30
0.0
 11
515.3498352009
 21
17.2012480256
 31
0.0
  0
LINE
  5
29B
  8
LAYER1
  6
CONTINUOUS
 62
     7
 10
505.7498352009
 20
13.0012480256
 30
0.0
 11
509.9498352009
 21
13.0012480256
 31
0.0
  0
LINE
  5
29C
  8
LAYER1
  6
CONTINUOUS
 62
     7
 10
505.7498352009
 20
17.2012508783
 30
0.0
 11
505.7498352009
 21
13.0012480256
 31
0.0
  0
LINE
  5
29D
  8
LAYER1
  6
CONTINUOUS
 62
     7
 10
509.9498352009
 20
13.0012480256
 30
0.0
 11
509.9498352009
 21
17.2012480256
 31
0.0
  0
ARC
  5
29E
  8
LAYER1
  6
CONTINUOUS
 62
     7
 10
370.7498352009
 20
216.9239418561
 30
0.0
 40
5.000000000000012
 50
302.9207345281
 51
0.0
  0
ARC
  5
29F
  8
LAYER1
  6
CONTINUOUS
 62
     7
 10
370.7498352009
 20
126.878554195
 30
0.0
 40
5.000000000000004
 50
0.0
 51
57.0792654719
  0
LINE
  5
2A0
  8
LAYER1
  6
CONTINUOUS
 62
     7
 10
375.7498352009
 20
139.6012480256
 30
0.0
 11
375.7498352009
 21
146.8012480256
 31
0.0
  0
ARC
  5
2A1
  8
LAYER1
  6
CONTINUOUS
 62
     7
 10
375.7498352009
 20
209.2012480256
 30
0.0
 40
4.199999999999982
 50
122.9207345281
 51
180.0
  0
ARC
  5
2A2
  8
LAYER1
  6
CONTINUOUS
 62
     7
 10
375.7498352009
 20
134.6012480256
 30
0.0
 40
4.199999999999982
 50
180.0
 51
237.0792654719
  0
LINE
  5
2A3
  8
LAYER1
  6
CONTINUOUS
 62
     7
 10
371.5498352009
 20
209.2012480256
 30
0.0
 11
371.5498352009
 21
134.6012480256
 31
0.0
  0
LINE
  5
2A4
  8
LAYER1
  6
CONTINUOUS
 62
     7
 10
375.7498352009
 20
197.0012480256
 30
0.0
 11
375.7498352009
 21
204.2012480256
 31
0.0
  0
LINE
  5
2A5
  8
LAYER1
  6
CONTINUOUS
 62
     7
 10
375.7498352009
 20
197.0012480256
 30
0.0
 11
375.7498352009
 21
204.2012480256
 31
0.0
  0
LINE
  5
2A6
  8
LAYER1
  6
CONTINUOUS
 62
     7
 10
375.7498352009
 20
204.2012480256
 30
0.0
 11
379.9498352009
 21
204.2012480256
 31
0.0
  0
LINE
  5
2A7
  8
LAYER1
  6
CONTINUOUS
 62
     7
 10
379.9498352009
 20
204.2012480256
 30
0.0
 11
379.9498352009
 21
197.0012480256
 31
0.0
  0
LINE
  5
2A8
  8
LAYER1
  6
CONTINUOUS
 62
     7
 10
375.7498352009
 20
13.0012480256
 30
0.0
 11
375.7498352009
 21
126.878554195
 31
0.0
  0
LINE
  5
2A9
  8
LAYER1
  6
CONTINUOUS
 62
     7
 10
375.7498352009
 20
139.6012480256
 30
0.0
 11
379.9498352009
 21
139.6012480256
 31
0.0
  0
LINE
  5
2AA
  8
LAYER1
  6
CONTINUOUS
 62
     7
 10
379.9498352009
 20
146.8012480256
 30
0.0
 11
375.7498352009
 21
146.8012480256
 31
0.0
  0
LINE
  5
2AB
  8
LAYER1
  6
CONTINUOUS
 62
     7
 10
379.9498352009
 20
139.6012480256
 30
0.0
 11
379.9498352009
 21
146.8012480256
 31
0.0
  0
POINT
  5
2AC
  8
LAYER1
  6
CONTINUOUS
 62
     7
 10
440.7498352009
 20
171.9012480256
 30
0.0
  0
LINE
  5
2AD
  8
LAYER1
  6
CONTINUOUS
 62
     7
 10
500.3498352009
 20
13.0012480256
 30
0.0
 11
375.7498352009
 21
13.0012480256
 31
0.0
  0
LINE
  5
2AE
  8
LAYER1
  6
CONTINUOUS
 62
     7
 10
505.7498352009
 20
303.2841026132
 30
0.0
 11
505.7498352009
 21
40.5183934379
 31
0.0
  0
LINE
  5
2AF
  8
LAYER1
  6
CONTINUOUS
 62
     7
 10
375.7498352009
 20
330.8012480256
 30
0.0
 11
500.3498352009
 21
330.8012480256
 31
0.0
  0
LINE
  5
2B0
  8
LAYER1
  6
CONTINUOUS
 62
     7
 10
375.7498352009
 20
216.9239418561
 30
0.0
 11
375.7498352009
 21
330.8012480256
 31
0.0
  0
ENDBLK
  5
2B2
  8
0
  0
BLOCK
  8
0
  2
SE20
 70
     0
 10
0.0
 20
0.0
 30
0.0
  3
SE20
  1

  0
INSERT
  5
2B8
  8
LAYER1
  2
SE21
 10
0.0
 20
0.0
 30
0.0
  0
ENDBLK
  5
2D0
  8
0
  0
BLOCK
  8
0
  2
SE21
 70
     0
 10
0.0
 20
0.0
 30
0.0
  3
SE21
  1

  0
LINE
  5
2B9
  8
LAYER1
  6
CONTINUOUS
 62
     7
 10
746.3195561321
 20
162.5068336203
 30
0.0
 11
746.3195561321
 21
221.2068336203
 31
0.0
  0
LINE
  5
2BA
  8
LAYER1
  6
CONTINUOUS
 62
     7
 10
771.3195561321
 20
221.2068336203
 30
0.0
 11
771.3195561321
 21
225.4068336203
 31
0.0
  0
LINE
  5
2BB
  8
LAYER1
  6
CONTINUOUS
 62
     7
 10
746.3195561321
 20
221.2068336203
 30
0.0
 11
771.3195561321
 21
221.2068336203
 31
0.0
  0
LINE
  5
2BC
  8
LAYER1
  6
CONTINUOUS
 62
     7
 10
771.3195561321
 20
225.4068336203
 30
0.0
 11
746.3195561321
 21
225.4068336203
 31
0.0
  0
LINE
  5
2BD
  8
LAYER1
  6
CONTINUOUS
 62
     7
 10
796.3195561321
 20
284.1068336203
 30
0.0
 11
796.3195561321
 21
243.3068336203
 31
0.0
  0
LINE
  5
2BE
  8
LAYER1
  6
CONTINUOUS
 62
     7
 10
800.5195561321
 20
203.3068336203
 30
0.0
 11
800.5195561321
 21
243.3068336203
 31
0.0
  0
LINE
  5
2BF
  8
LAYER1
  6
CONTINUOUS
 62
     7
 10
796.3195561321
 20
203.3068336203
 30
0.0
 11
800.5195561321
 21
203.3068336203
 31
0.0
  0
LINE
  5
2C0
  8
LAYER1
  6
CONTINUOUS
 62
     7
 10
800.5195561321
 20
243.3068336203
 30
0.0
 11
796.3195561321
 21
243.3068336203
 31
0.0
  0
LINE
  5
2C1
  8
LAYER1
  6
CONTINUOUS
 62
     7
 10
781.3195561321
 20
284.1068336203
 30
0.0
 11
796.3195561321
 21
284.1068336203
 31
0.0
  0
LINE
  5
2C2
  8
LAYER1
  6
CONTINUOUS
 62
     7
 10
796.3195561321
 20
162.5068336203
 30
0.0
 11
781.3195561321
 21
162.5068336203
 31
0.0
  0
LINE
  5
2C3
  8
LAYER1
  6
CONTINUOUS
 62
     7
 10
781.3195561321
 20
284.1068336203
 30
0.0
 11
781.3195561321
 21
288.3068336203
 31
0.0
  0
LINE
  5
2C4
  8
LAYER1
  6
CONTINUOUS
 62
     7
 10
761.3195561321
 20
288.3068336203
 30
0.0
 11
781.3195561321
 21
288.3068336203
 31
0.0
  0
LINE
  5
2C5
  8
LAYER1
  6
CONTINUOUS
 62
     7
 10
761.3195561321
 20
288.3068336203
 30
0.0
 11
761.3195561321
 21
284.1068336203
 31
0.0
  0
LINE
  5
2C6
  8
LAYER1
  6
CONTINUOUS
 62
     7
 10
781.3195561321
 20
158.3068336203
 30
0.0
 11
781.3195561321
 21
162.5068336203
 31
0.0
  0
LINE
  5
2C7
  8
LAYER1
  6
CONTINUOUS
 62
     7
 10
761.3195561321
 20
162.5068336203
 30
0.0
 11
761.3195561321
 21
158.3068336203
 31
0.0
  0
LINE
  5
2C8
  8
LAYER1
  6
CONTINUOUS
 62
     7
 10
781.3195561321
 20
158.3068336203
 30
0.0
 11
761.3195561321
 21
158.3068336203
 31
0.0
  0
LINE
  5
2C9
  8
LAYER1
  6
CONTINUOUS
 62
     7
 10
796.3195561321
 20
203.3068336203
 30
0.0
 11
796.3195561321
 21
162.5068336203
 31
0.0
  0
LINE
  5
2CA
  8
LAYER1
  6
CONTINUOUS
 62
     7
 10
746.3195561321
 20
284.1068336203
 30
0.0
 11
761.3195561321
 21
284.1068336203
 31
0.0
  0
LINE
  5
2CB
  8
LAYER1
  6
CONTINUOUS
 62
     7
 10
746.3195561321
 20
225.4068336203
 30
0.0
 11
746.3195561321
 21
284.1068336203
 31
0.0
  0
LINE
  5
2CC
  8
LAYER1
  6
CONTINUOUS
 62
     7
 10
761.3195561321
 20
162.5068336203
 30
0.0
 11
746.3195561321
 21
162.5068336203
 31
0.0
  0
ENDBLK
  5
2CE
  8
0
  0
ENDSEC
  0
SECTION
  2
ENTITIES
  0
LINE
  5
6F
  8
LAYER1
  6
CONTINUOUS
 62
     7
 10
286.8751892032
 20
330.8012480256
 30
0.0
 11
251.8751892032
 21
330.8012480256
 31
0.0
  0
LINE
  5
70
  8
LAYER1
  6
CONTINUOUS
 62
     7
 10
251.8751892032
 20
13.0012480256
 30
0.0
 11
286.8751892032
 21
13.0012480256
 31
0.0
  0
LINE
  5
71
  8
LAYER1
  6
CONTINUOUS
 62
     7
 10
251.8751892032
 20
13.0012480256
 30
0.0
 11
251.8751892032
 21
17.2012480256
 31
0.0
  0
LINE
  5
72
  8
LAYER1
  6
CONTINUOUS
 62
     7
 10
251.8751892032
 20
17.2012480256
 30
0.0
 11
191.8751892032
 21
17.2012480256
 31
0.0
  0
LINE
  5
73
  8
LAYER1
  6
CONTINUOUS
 62
     7
 10
191.8751892032
 20
17.2012480256
 30
0.0
 11
191.8751892032
 21
13.0012480256
 31
0.0
  0
LINE
  5
74
  8
LAYER1
  6
CONTINUOUS
 62
     7
 10
156.8751892032
 20
13.0012480256
 30
0.0
 11
191.8751892032
 21
13.0012480256
 31
0.0
  0
LINE
  5
75
  8
LAYER1
  6
CONTINUOUS
 62
     7
 10
251.8751892032
 20
326.6012480256
 30
0.0
 11
251.8751892032
 21
330.8012480256
 31
0.0
  0
LINE
  5
76
  8
LAYER1
  6
CONTINUOUS
 62
     7
 10
191.8751892032
 20
330.8012480256
 30
0.0
 11
191.8751892032
 21
326.6012480256
 31
0.0
  0
LINE
  5
77
  8
LAYER1
  6
CONTINUOUS
 62
     7
 10
191.8751892032
 20
326.6012480256
 30
0.0
 11
251.8751892032
 21
326.6012480256
 31
0.0
  0
LINE
  5
78
  8
LAYER1
  6
CONTINUOUS
 62
     7
 10
191.8751892032
 20
330.8012480256
 30
0.0
 11
156.8751892032
 21
330.8012480256
 31
0.0
  0
LINE
  5
79
  8
LAYER1
  6
CONTINUOUS
 62
     7
 10
156.8751892032
 20
330.8012480256
 30
0.0
 11
156.8751892032
 21
261.9012480256
 31
0.0
  0
LINE
  5
7A
  8
LAYER1
  6
CONTINUOUS
 62
     7
 10
286.8751892032
 20
261.9012480256
 30
0.0
 11
286.8751892032
 21
330.8012480256
 31
0.0
  0
LINE
  5
7B
  8
LAYER1
  6
CONTINUOUS
 62
     7
 10
161.0751892032
 20
201.9012480256
 30
0.0
 11
156.8751892032
 21
201.9012480256
 31
0.0
  0
LINE
  5
7C
  8
LAYER1
  6
CONTINUOUS
 62
     7
 10
156.8751892032
 20
141.9012480256
 30
0.0
 11
161.0751892032
 21
141.9012480256
 31
0.0
  0
LINE
  5
7D
  8
LAYER1
  6
CONTINUOUS
 62
     7
 10
286.8751892032
 20
201.9012480256
 30
0.0
 11
282.6751892032
 21
201.9012480256
 31
0.0
  0
LINE
  5
7E
  8
LAYER1
  6
CONTINUOUS
 62
     7
 10
282.6751892032
 20
141.9012480256
 30
0.0
 11
286.8751892032
 21
141.9012480256
 31
0.0
  0
LINE
  5
7F
  8
LAYER1
  6
CONTINUOUS
 62
     7
 10
156.8751892032
 20
81.9012480256
 30
0.0
 11
161.0751892032
 21
81.9012480256
 31
0.0
  0
LINE
  5
80
  8
LAYER1
  6
CONTINUOUS
 62
     7
 10
161.0751892032
 20
81.9012480256
 30
0.0
 11
161.0751892032
 21
141.9012480256
 31
0.0
  0
LINE
  5
81
  8
LAYER1
  6
CONTINUOUS
 62
     7
 10
156.8751892032
 20
261.9012480256
 30
0.0
 11
161.0751892032
 21
261.9012480256
 31
0.0
  0
LINE
  5
82
  8
LAYER1
  6
CONTINUOUS
 62
     7
 10
161.0751892032
 20
261.9012480256
 30
0.0
 11
161.0751892032
 21
201.9012480256
 31
0.0
  0
LINE
  5
83
  8
LAYER1
  6
CONTINUOUS
 62
     7
 10
282.6751892032
 20
141.9012480256
 30
0.0
 11
282.6751892032
 21
81.9012480256
 31
0.0
  0
LINE
  5
84
  8
LAYER1
  6
CONTINUOUS
 62
     7
 10
282.6751892032
 20
81.9012480256
 30
0.0
 11
286.8751892032
 21
81.9012480256
 31
0.0
  0
LINE
  5
85
  8
LAYER1
  6
CONTINUOUS
 62
     7
 10
282.6751892032
 20
201.9012480256
 30
0.0
 11
282.6751892032
 21
261.9012480256
 31
0.0
  0
LINE
  5
86
  8
LAYER1
  6
CONTINUOUS
 62
     7
 10
282.6751892032
 20
261.9012480256
 30
0.0
 11
286.8751892032
 21
261.9012480256
 31
0.0
  0
LINE
  5
87
  8
LAYER1
  6
CONTINUOUS
 62
     7
 10
156.8751892032
 20
81.9012480256
 30
0.0
 11
156.8751892032
 21
13.0012480256
 31
0.0
  0
LINE
  5
88
  8
LAYER1
  6
CONTINUOUS
 62
     7
 10
156.8751892032
 20
201.9012480256
 30
0.0
 11
156.8751892032
 21
141.9012480256
 31
0.0
  0
LINE
  5
89
  8
LAYER1
  6
CONTINUOUS
 62
     7
 10
286.8751892032
 20
13.0012480256
 30
0.0
 11
286.8751892032
 21
81.9012480256
 31
0.0
  0
LINE
  5
8A
  8
LAYER1
  6
CONTINUOUS
 62
     7
 10
286.8751892032
 20
141.9012480256
 30
0.0
 11
286.8751892032
 21
201.9012480256
 31
0.0
  0
LINE
  5
8B
  8
LAYER1
  6
CONTINUOUS
 62
     7
 10
223.9751892032
 20
189.0012480256
 30
0.0
 11
223.9751892032
 21
209.0012480256
 31
0.0
  0
LINE
  5
8C
  8
LAYER1
  6
CONTINUOUS
 62
     7
 10
223.9751892032
 20
209.0012480256
 30
0.0
 11
219.7751892032
 21
209.0012480256
 31
0.0
  0
LINE
  5
8D
  8
LAYER1
  6
CONTINUOUS
 62
     7
 10
219.7751892032
 20
209.0012480256
 30
0.0
 11
219.7751892032
 21
189.0012480256
 31
0.0
  0
LINE
  5
8E
  8
LAYER1
  6
CONTINUOUS
 62
     7
 10
219.7751892032
 20
189.0012480256
 30
0.0
 11
223.9751892032
 21
189.0012480256
 31
0.0
  0
LINE
  5
8F
  8
LAYER1
  6
CONTINUOUS
 62
     7
 10
223.9751892032
 20
134.8012480256
 30
0.0
 11
223.9751892032
 21
154.8012480256
 31
0.0
  0
LINE
  5
90
  8
LAYER1
  6
CONTINUOUS
 62
     7
 10
223.9751892032
 20
154.8012480256
 30
0.0
 11
219.7751892032
 21
154.8012480256
 31
0.0
  0
LINE
  5
91
  8
LAYER1
  6
CONTINUOUS
 62
     7
 10
219.7751892032
 20
154.8012480256
 30
0.0
 11
219.7751892032
 21
134.8012480256
 31
0.0
  0
LINE
  5
92
  8
LAYER1
  6
CONTINUOUS
 62
     7
 10
219.7751892032
 20
134.8012480256
 30
0.0
 11
223.9751892032
 21
134.8012480256
 31
0.0
  0
LINE
  5
93
  8
LAYER1
  6
CONTINUOUS
 62
     7
 10
223.9751892032
 20
90.6012480256
 30
0.0
 11
223.9751892032
 21
110.6012480256
 31
0.0
  0
LINE
  5
94
  8
LAYER1
  6
CONTINUOUS
 62
     7
 10
223.9751892032
 20
110.6012480256
 30
0.0
 11
219.7751892032
 21
110.6012480256
 31
0.0
  0
LINE
  5
95
  8
LAYER1
  6
CONTINUOUS
 62
     7
 10
219.7751892032
 20
110.6012480256
 30
0.0
 11
219.7751892032
 21
90.6012480256
 31
0.0
  0
LINE
  5
96
  8
LAYER1
  6
CONTINUOUS
 62
     7
 10
219.7751892032
 20
90.6012480256
 30
0.0
 11
223.9751892032
 21
90.6012480256
 31
0.0
  0
LINE
  5
97
  8
LAYER1
  6
CONTINUOUS
 62
     7
 10
223.9751892032
 20
56.4012480256
 30
0.0
 11
223.9751892032
 21
76.4012480256
 31
0.0
  0
LINE
  5
98
  8
LAYER1
  6
CONTINUOUS
 62
     7
 10
223.9751892032
 20
76.4012480256
 30
0.0
 11
219.7751892032
 21
76.4012480256
 31
0.0
  0
LINE
  5
99
  8
LAYER1
  6
CONTINUOUS
 62
     7
 10
219.7751892032
 20
76.4012480256
 30
0.0
 11
219.7751892032
 21
56.4012480256
 31
0.0
  0
LINE
  5
9A
  8
LAYER1
  6
CONTINUOUS
 62
     7
 10
219.7751892032
 20
56.4012480256
 30
0.0
 11
223.9751892032
 21
56.4012480256
 31
0.0
  0
LINE
  5
9B
  8
LAYER1
  6
CONTINUOUS
 62
     7
 10
223.9751892032
 20
22.2012480256
 30
0.0
 11
223.9751892032
 21
42.2012480256
 31
0.0
  0
LINE
  5
9C
  8
LAYER1
  6
CONTINUOUS
 62
     7
 10
223.9751892032
 20
42.2012480256
 30
0.0
 11
219.7751892032
 21
42.2012480256
 31
0.0
  0
LINE
  5
9D
  8
LAYER1
  6
CONTINUOUS
 62
     7
 10
219.7751892032
 20
42.2012480256
 30
0.0
 11
219.7751892032
 21
22.2012480256
 31
0.0
  0
LINE
  5
9E
  8
LAYER1
  6
CONTINUOUS
 62
     7
 10
219.7751892032
 20
22.2012480256
 30
0.0
 11
223.9751892032
 21
22.2012480256
 31
0.0
  0
POINT
  5
9F
  8
LAYER1
  6
CONTINUOUS
 62
     7
 10
221.8751892032
 20
171.9012480256
 30
0.0
  0
LINE
  5
A0
  8
LAYER1
  6
CONTINUOUS
 62
     7
 10
219.7751892032
 20
253.2012480256
 30
0.0
 11
219.7751892032
 21
233.2012480256
 31
0.0
  0
LINE
  5
A1
  8
LAYER1
  6
CONTINUOUS
 62
     7
 10
219.7751892032
 20
233.2012480256
 30
0.0
 11
223.9751892032
 21
233.2012480256
 31
0.0
  0
LINE
  5
A2
  8
LAYER1
  6
CONTINUOUS
 62
     7
 10
223.9751892032
 20
233.2012480256
 30
0.0
 11
223.9751892032
 21
253.2012480256
 31
0.0
  0
LINE
  5
A3
  8
LAYER1
  6
CONTINUOUS
 62
     7
 10
223.9751892032
 20
253.2012480256
 30
0.0
 11
219.7751892032
 21
253.2012480256
 31
0.0
  0
LINE
  5
A4
  8
LAYER1
  6
CONTINUOUS
 62
     7
 10
219.7751892032
 20
287.4012480256
 30
0.0
 11
219.7751892032
 21
267.4012480256
 31
0.0
  0
LINE
  5
A5
  8
LAYER1
  6
CONTINUOUS
 62
     7
 10
219.7751892032
 20
267.4012480256
 30
0.0
 11
223.9751892032
 21
267.4012480256
 31
0.0
  0
LINE
  5
A6
  8
LAYER1
  6
CONTINUOUS
 62
     7
 10
223.9751892032
 20
267.4012480256
 30
0.0
 11
223.9751892032
 21
287.4012480256
 31
0.0
  0
LINE
  5
A7
  8
LAYER1
  6
CONTINUOUS
 62
     7
 10
223.9751892032
 20
287.4012480256
 30
0.0
 11
219.7751892032
 21
287.4012480256
 31
0.0
  0
LINE
  5
A8
  8
LAYER1
  6
CONTINUOUS
 62
     7
 10
219.7751892032
 20
321.6012480256
 30
0.0
 11
219.7751892032
 21
301.6012480256
 31
0.0
  0
LINE
  5
A9
  8
LAYER1
  6
CONTINUOUS
 62
     7
 10
219.7751892032
 20
301.6012480256
 30
0.0
 11
223.9751892032
 21
301.6012480256
 31
0.0
  0
LINE
  5
AA
  8
LAYER1
  6
CONTINUOUS
 62
     7
 10
223.9751892032
 20
301.6012480256
 30
0.0
 11
223.9751892032
 21
321.6012480256
 31
0.0
  0
LINE
  5
AB
  8
LAYER1
  6
CONTINUOUS
 62
     7
 10
223.9751892032
 20
321.6012480256
 30
0.0
 11
219.7751892032
 21
321.6012480256
 31
0.0
  0
LINE
  5
AC
  8
LAYER1
  6
CONTINUOUS
 62
     7
 10
201.8751892032
 20
47.2012480256
 30
0.0
 11
241.8751892032
 21
47.2012480256
 31
0.0
  0
LINE
  5
AD
  8
LAYER1
  6
CONTINUOUS
 62
     7
 10
201.8751892032
 20
51.4012480256
 30
0.0
 11
201.8751892032
 21
47.2012480256
 31
0.0
  0
LINE
  5
AE
  8
LAYER1
  6
CONTINUOUS
 62
     7
 10
241.8751892032
 20
51.4012480256
 30
0.0
 11
201.8751892032
 21
51.4012480256
 31
0.0
  0
LINE
  5
AF
  8
LAYER1
  6
CONTINUOUS
 62
     7
 10
241.8751892032
 20
47.2012480256
 30
0.0
 11
241.8751892032
 21
51.4012480256
 31
0.0
  0
LINE
  5
B0
  8
LAYER1
  6
CONTINUOUS
 62
     7
 10
201.8751892032
 20
292.4012480256
 30
0.0
 11
241.8751892032
 21
292.4012480256
 31
0.0
  0
LINE
  5
B1
  8
LAYER1
  6
CONTINUOUS
 62
     7
 10
201.8751892032
 20
296.6012480256
 30
0.0
 11
201.8751892032
 21
292.4012480256
 31
0.0
  0
LINE
  5
B2
  8
LAYER1
  6
CONTINUOUS
 62
     7
 10
241.8751892032
 20
296.6012480256
 30
0.0
 11
201.8751892032
 21
296.6012480256
 31
0.0
  0
LINE
  5
B3
  8
LAYER1
  6
CONTINUOUS
 62
     7
 10
241.8751892032
 20
292.4012480256
 30
0.0
 11
241.8751892032
 21
296.6012480256
 31
0.0
  0
LINE
  5
B4
  8
LAYER1
  6
CONTINUOUS
 62
     7
 10
201.8751892032
 20
258.2012480256
 30
0.0
 11
241.8751892032
 21
258.2012480256
 31
0.0
  0
LINE
  5
B5
  8
LAYER1
  6
CONTINUOUS
 62
     7
 10
201.8751892032
 20
262.4012480256
 30
0.0
 11
201.8751892032
 21
258.2012480256
 31
0.0
  0
LINE
  5
B6
  8
LAYER1
  6
CONTINUOUS
 62
     7
 10
241.8751892032
 20
262.4012480256
 30
0.0
 11
201.8751892032
 21
262.4012480256
 31
0.0
  0
LINE
  5
B7
  8
LAYER1
  6
CONTINUOUS
 62
     7
 10
241.8751892032
 20
258.2012480256
 30
0.0
 11
241.8751892032
 21
262.4012480256
 31
0.0
  0
LINE
  5
B8
  8
LAYER1
  6
CONTINUOUS
 62
     7
 10
201.8751892032
 20
224.0012480256
 30
0.0
 11
241.8751892032
 21
224.0012480256
 31
0.0
  0
LINE
  5
B9
  8
LAYER1
  6
CONTINUOUS
 62
     7
 10
201.8751892032
 20
228.2012480256
 30
0.0
 11
201.8751892032
 21
224.0012480256
 31
0.0
  0
LINE
  5
BA
  8
LAYER1
  6
CONTINUOUS
 62
     7
 10
241.8751892032
 20
228.2012480256
 30
0.0
 11
201.8751892032
 21
228.2012480256
 31
0.0
  0
LINE
  5
BB
  8
LAYER1
  6
CONTINUOUS
 62
     7
 10
241.8751892032
 20
224.0012480256
 30
0.0
 11
241.8751892032
 21
228.2012480256
 31
0.0
  0
LINE
  5
BC
  8
LAYER1
  6
CONTINUOUS
 62
     7
 10
201.8751892032
 20
81.4012480256
 30
0.0
 11
241.8751892032
 21
81.4012480256
 31
0.0
  0
LINE
  5
BD
  8
LAYER1
  6
CONTINUOUS
 62
     7
 10
201.8751892032
 20
85.6012480256
 30
0.0
 11
201.8751892032
 21
81.4012480256
 31
0.0
  0
LINE
  5
BE
  8
LAYER1
  6
CONTINUOUS
 62
     7
 10
241.8751892032
 20
85.6012480256
 30
0.0
 11
201.8751892032
 21
85.6012480256
 31
0.0
  0
LINE
  5
BF
  8
LAYER1
  6
CONTINUOUS
 62
     7
 10
241.8751892032
 20
81.4012480256
 30
0.0
 11
241.8751892032
 21
85.6012480256
 31
0.0
  0
LINE
  5
C0
  8
LAYER1
  6
CONTINUOUS
 62
     7
 10
201.8751892032
 20
169.8012480256
 30
0.0
 11
241.8751892032
 21
169.8012480256
 31
0.0
  0
LINE
  5
C1
  8
LAYER1
  6
CONTINUOUS
 62
     7
 10
201.8751892032
 20
174.0012480256
 30
0.0
 11
201.8751892032
 21
169.8012480256
 31
0.0
  0
LINE
  5
C2
  8
LAYER1
  6
CONTINUOUS
 62
     7
 10
241.8751892032
 20
174.0012480256
 30
0.0
 11
201.8751892032
 21
174.0012480256
 31
0.0
  0
LINE
  5
C3
  8
LAYER1
  6
CONTINUOUS
 62
     7
 10
241.8751892032
 20
169.8012480256
 30
0.0
 11
241.8751892032
 21
174.0012480256
 31
0.0
  0
LINE
  5
C4
  8
LAYER1
  6
CONTINUOUS
 62
     7
 10
201.8751892032
 20
115.6012480256
 30
0.0
 11
241.8751892032
 21
115.6012480256
 31
0.0
  0
LINE
  5
C5
  8
LAYER1
  6
CONTINUOUS
 62
     7
 10
201.8751892032
 20
119.8012480256
 30
0.0
 11
201.8751892032
 21
115.6012480256
 31
0.0
  0
LINE
  5
C6
  8
LAYER1
  6
CONTINUOUS
 62
     7
 10
241.8751892032
 20
119.8012480256
 30
0.0
 11
201.8751892032
 21
119.8012480256
 31
0.0
  0
LINE
  5
C7
  8
LAYER1
  6
CONTINUOUS
 62
     7
 10
241.8751892032
 20
115.6012480256
 30
0.0
 11
241.8751892032
 21
119.8012480256
 31
0.0
  0
LINE
  5
C8
  8
LAYER1
  6
CONTINUOUS
 62
     7
 10
528.5088211128
 20
166.6261339965
 30
0.0
 11
528.5088211128
 21
162.4261339965
 31
0.0
  0
LINE
  5
C9
  8
LAYER1
  6
CONTINUOUS
 62
     7
 10
532.7088211128
 20
166.6261339965
 30
0.0
 11
528.5088211128
 21
166.6261339965
 31
0.0
  0
LINE
  5
CA
  8
LAYER1
  6
CONTINUOUS
 62
     7
 10
532.7088211128
 20
162.4261339965
 30
0.0
 11
532.7088211128
 21
166.6261339965
 31
0.0
  0
LINE
  5
CB
  8
LAYER1
  6
CONTINUOUS
 62
     7
 10
528.5088211128
 20
162.4261339965
 30
0.0
 11
532.7088211128
 21
162.4261339965
 31
0.0
  0
CIRCLE
  5
CC
  8
LAYER1
  6
CONTINUOUS
 62
     7
 10
530.6088211128
 20
164.5261339965
 30
0.0
 40
4.500000000000001
  0
ARC
  5
CE
  8
STANDARD
  6
CONTINUOUS
 62
     7
 10
575.2088211128
 20
21.4933223601
 30
0.0
 40
7.500000000000062
 50
193.4148487562
 51
90.0
  0
ARC
  5
CF
  8
STANDARD
  6
CONTINUOUS
 62
     7
 10
563.0498737899
 20
18.5933223601
 30
0.0
 40
4.999999999999963
 50
13.4148487562
 51
90.0
  0
LINE
  5
D0
  8
STANDARD
  6
CONTINUOUS
 62
     7
 10
575.2088211128
 20
28.9933223601
 30
0.0
 11
573.1088211128
 21
28.9933223601
 31
0.0
  0
CIRCLE
  5
D1
  8
LAYER1
  6
CONTINUOUS
 62
     7
 10
575.2088211128
 20
21.4933223601
 30
0.0
 40
4.575
  0
LINE
  5
D2
  8
LAYER1
  6
CONTINUOUS
 62
     7
 10
523.1088211128
 20
23.5933223601
 30
0.0
 11
523.1088211128
 21
58.5933223601
 31
0.0
  0
LINE
  5
D3
  8
LAYER1
  6
CONTINUOUS
 62
     7
 10
518.9088211128
 20
118.5933223601
 30
0.0
 11
518.9088211128
 21
58.5933223601
 31
0.0
  0
LINE
  5
D4
  8
LAYER1
  6
CONTINUOUS
 62
     7
 10
523.1088211128
 20
118.5933223601
 30
0.0
 11
518.9088211128
 21
118.5933223601
 31
0.0
  0
LINE
  5
D5
  8
LAYER1
  6
CONTINUOUS
 62
     7
 10
518.9088211128
 20
58.5933223601
 30
0.0
 11
523.1088211128
 21
58.5933223601
 31
0.0
  0
LINE
  5
D6
  8
LAYER1
  6
CONTINUOUS
 62
     7
 10
538.1088211128
 20
90.6933223601
 30
0.0
 11
538.1088211128
 21
86.4933223601
 31
0.0
  0
LINE
  5
D7
  8
LAYER1
  6
CONTINUOUS
 62
     7
 10
558.1088211128
 20
90.6933223601
 30
0.0
 11
538.1088211128
 21
90.6933223601
 31
0.0
  0
LINE
  5
D8
  8
LAYER1
  6
CONTINUOUS
 62
     7
 10
558.1088211128
 20
86.4933223601
 30
0.0
 11
558.1088211128
 21
90.6933223601
 31
0.0
  0
LINE
  5
D9
  8
LAYER1
  6
CONTINUOUS
 62
     7
 10
538.1088211128
 20
86.4933223601
 30
0.0
 11
558.1088211128
 21
86.4933223601
 31
0.0
  0
LINE
  5
DA
  8
LAYER1
  6
CONTINUOUS
 62
     7
 10
538.1088211128
 20
23.5933223601
 30
0.0
 11
523.1088211128
 21
23.5933223601
 31
0.0
  0
LINE
  5
DB
  8
LAYER1
  6
CONTINUOUS
 62
     7
 10
523.1088211128
 20
153.5933223601
 30
0.0
 11
538.1088211128
 21
153.5933223601
 31
0.0
  0
LINE
  5
DC
  8
LAYER1
  6
CONTINUOUS
 62
     7
 10
538.1088211128
 20
27.7933223601
 30
0.0
 11
538.1088211128
 21
23.5933223601
 31
0.0
  0
LINE
  5
DD
  8
LAYER1
  6
CONTINUOUS
 62
     7
 10
558.1088211128
 20
27.7933223601
 30
0.0
 11
538.1088211128
 21
27.7933223601
 31
0.0
  0
LINE
  5
DE
  8
LAYER1
  6
CONTINUOUS
 62
     7
 10
558.1088211128
 20
23.5933223601
 30
0.0
 11
558.1088211128
 21
27.7933223601
 31
0.0
  0
LINE
  5
DF
  8
LAYER1
  6
CONTINUOUS
 62
     7
 10
538.1088211128
 20
153.5933223601
 30
0.0
 11
538.1088211128
 21
149.3933223601
 31
0.0
  0
LINE
  5
E0
  8
LAYER1
  6
CONTINUOUS
 62
     7
 10
558.1088211128
 20
149.3933223601
 30
0.0
 11
558.1088211128
 21
153.5933223601
 31
0.0
  0
LINE
  5
E1
  8
LAYER1
  6
CONTINUOUS
 62
     7
 10
538.1088211128
 20
149.3933223601
 30
0.0
 11
558.1088211128
 21
149.3933223601
 31
0.0
  0
LINE
  5
E2
  8
LAYER1
  6
CONTINUOUS
 62
     7
 10
523.1088211128
 20
118.5933223601
 30
0.0
 11
523.1088211128
 21
153.5933223601
 31
0.0
  0
LINE
  5
E3
  8
LAYER1
  6
CONTINUOUS
 62
     7
 10
563.0498737899
 20
23.5933223601
 30
0.0
 11
558.1088211128
 21
23.5933223601
 31
0.0
  0
LINE
  5
E4
  8
LAYER1
  6
CONTINUOUS
 62
     7
 10
573.1088211128
 20
153.5933223601
 30
0.0
 11
573.1088211128
 21
28.9933223601
 31
0.0
  0
LINE
  5
E5
  8
LAYER1
  6
CONTINUOUS
 62
     7
 10
558.1088211128
 20
153.5933223601
 30
0.0
 11
573.1088211128
 21
153.5933223601
 31
0.0
  0
ARC
  5
E6
  8
STANDARD
  6
CONTINUOUS
 62
     7
 10
575.2088211128
 20
174.2891128529
 30
0.0
 40
7.500000000000062
 50
193.4148487562
 51
90.0
  0
ARC
  5
E7
  8
STANDARD
  6
CONTINUOUS
 62
     7
 10
563.0498737899
 20
171.3891128529
 30
0.0
 40
4.999999999999963
 50
13.4148487562
 51
90.0
  0
LINE
  5
E8
  8
STANDARD
  6
CONTINUOUS
 62
     7
 10
575.2088211128
 20
181.7891128529
 30
0.0
 11
573.1088211128
 21
181.7891128529
 31
0.0
  0
CIRCLE
  5
E9
  8
LAYER1
  6
CONTINUOUS
 62
     7
 10
575.2088211128
 20
174.2891128529
 30
0.0
 40
4.575
  0
LINE
  5
EA
  8
LAYER1
  6
CONTINUOUS
 62
     7
 10
523.1088211128
 20
176.3891128529
 30
0.0
 11
523.1088211128
 21
211.3891128529
 31
0.0
  0
LINE
  5
EB
  8
LAYER1
  6
CONTINUOUS
 62
     7
 10
518.9088211128
 20
271.3891128529
 30
0.0
 11
518.9088211128
 21
211.3891128529
 31
0.0
  0
LINE
  5
EC
  8
LAYER1
  6
CONTINUOUS
 62
     7
 10
523.1088211128
 20
271.3891128529
 30
0.0
 11
518.9088211128
 21
271.3891128529
 31
0.0
  0
LINE
  5
ED
  8
LAYER1
  6
CONTINUOUS
 62
     7
 10
518.9088211128
 20
211.3891128529
 30
0.0
 11
523.1088211128
 21
211.3891128529
 31
0.0
  0
LINE
  5
EE
  8
LAYER1
  6
CONTINUOUS
 62
     7
 10
538.1088211128
 20
243.4891128529
 30
0.0
 11
538.1088211128
 21
239.2891128529
 31
0.0
  0
LINE
  5
EF
  8
LAYER1
  6
CONTINUOUS
 62
     7
 10
558.1088211128
 20
243.4891128529
 30
0.0
 11
538.1088211128
 21
243.4891128529
 31
0.0
  0
LINE
  5
F0
  8
LAYER1
  6
CONTINUOUS
 62
     7
 10
558.1088211128
 20
239.2891128529
 30
0.0
 11
558.1088211128
 21
243.4891128529
 31
0.0
  0
LINE
  5
F1
  8
LAYER1
  6
CONTINUOUS
 62
     7
 10
538.1088211128
 20
239.2891128529
 30
0.0
 11
558.1088211128
 21
239.2891128529
 31
0.0
  0
LINE
  5
F2
  8
LAYER1
  6
CONTINUOUS
 62
     7
 10
538.1088211128
 20
176.3891128529
 30
0.0
 11
523.1088211128
 21
176.3891128529
 31
0.0
  0
LINE
  5
F3
  8
LAYER1
  6
CONTINUOUS
 62
     7
 10
523.1088211128
 20
306.3891128529
 30
0.0
 11
538.1088211128
 21
306.3891128529
 31
0.0
  0
LINE
  5
F4
  8
LAYER1
  6
CONTINUOUS
 62
     7
 10
538.1088211128
 20
180.5891128529
 30
0.0
 11
538.1088211128
 21
176.3891128529
 31
0.0
  0
LINE
  5
F5
  8
LAYER1
  6
CONTINUOUS
 62
     7
 10
558.1088211128
 20
180.5891128529
 30
0.0
 11
538.1088211128
 21
180.5891128529
 31
0.0
  0
LINE
  5
F6
  8
LAYER1
  6
CONTINUOUS
 62
     7
 10
558.1088211128
 20
176.3891128529
 30
0.0
 11
558.1088211128
 21
180.5891128529
 31
0.0
  0
LINE
  5
F7
  8
LAYER1
  6
CONTINUOUS
 62
     7
 10
538.1088211128
 20
306.3891128529
 30
0.0
 11
538.1088211128
 21
302.1891128529
 31
0.0
  0
LINE
  5
F8
  8
LAYER1
  6
CONTINUOUS
 62
     7
 10
558.1088211128
 20
302.1891128529
 30
0.0
 11
558.1088211128
 21
306.3891128529
 31
0.0
  0
LINE
  5
F9
  8
LAYER1
  6
CONTINUOUS
 62
     7
 10
538.1088211128
 20
302.1891128529
 30
0.0
 11
558.1088211128
 21
302.1891128529
 31
0.0
  0
LINE
  5
FA
  8
LAYER1
  6
CONTINUOUS
 62
     7
 10
523.1088211128
 20
271.3891128529
 30
0.0
 11
523.1088211128
 21
306.3891128529
 31
0.0
  0
LINE
  5
FB
  8
LAYER1
  6
CONTINUOUS
 62
     7
 10
563.0498737899
 20
176.3891128529
 30
0.0
 11
558.1088211128
 21
176.3891128529
 31
0.0
  0
LINE
  5
FC
  8
LAYER1
  6
CONTINUOUS
 62
     7
 10
573.1088211128
 20
306.3891128529
 30
0.0
 11
573.1088211128
 21
181.7891128529
 31
0.0
  0
LINE
  5
FD
  8
LAYER1
  6
CONTINUOUS
 62
     7
 10
558.1088211128
 20
306.3891128529
 30
0.0
 11
573.1088211128
 21
306.3891128529
 31
0.0
  0
LINE
  5
FE
  8
LAYER1
  6
CONTINUOUS
 62
     7
 10
124.3847122539
 20
169.8012480256
 30
0.0
 11
124.3847122539
 21
174.0012480256
 31
0.0
  0
LINE
  5
FF
  8
LAYER1
  6
CONTINUOUS
 62
     7
 10
124.3847122539
 20
174.0012480256
 30
0.0
 11
104.3847122539
 21
174.0012480256
 31
0.0
  0
LINE
  5
100
  8
LAYER1
  6
CONTINUOUS
 62
     7
 10
104.3847122539
 20
174.0012480256
 30
0.0
 11
104.3847122539
 21
169.8012480256
 31
0.0
  0
LINE
  5
101
  8
LAYER1
  6
CONTINUOUS
 62
     7
 10
104.3847122539
 20
169.8012480256
 30
0.0
 11
124.3847122539
 21
169.8012480256
 31
0.0
  0
LINE
  5
102
  8
LAYER1
  6
CONTINUOUS
 62
     7
 10
124.3847122539
 20
47.2012480256
 30
0.0
 11
124.3847122539
 21
51.4012480256
 31
0.0
  0
LINE
  5
103
  8
LAYER1
  6
CONTINUOUS
 62
     7
 10
124.3847122539
 20
51.4012480256
 30
0.0
 11
104.3847122539
 21
51.4012480256
 31
0.0
  0
LINE
  5
104
  8
LAYER1
  6
CONTINUOUS
 62
     7
 10
104.3847122539
 20
51.4012480256
 30
0.0
 11
104.3847122539
 21
47.2012480256
 31
0.0
  0
LINE
  5
105
  8
LAYER1
  6
CONTINUOUS
 62
     7
 10
104.3847122539
 20
47.2012480256
 30
0.0
 11
124.3847122539
 21
47.2012480256
 31
0.0
  0
LINE
  5
106
  8
LAYER1
  6
CONTINUOUS
 62
     7
 10
124.3847122539
 20
258.2012480256
 30
0.0
 11
124.3847122539
 21
262.4012480256
 31
0.0
  0
LINE
  5
107
  8
LAYER1
  6
CONTINUOUS
 62
     7
 10
124.3847122539
 20
262.4012480256
 30
0.0
 11
104.3847122539
 21
262.4012480256
 31
0.0
  0
LINE
  5
108
  8
LAYER1
  6
CONTINUOUS
 62
     7
 10
104.3847122539
 20
262.4012480256
 30
0.0
 11
104.3847122539
 21
258.2012480256
 31
0.0
  0
LINE
  5
109
  8
LAYER1
  6
CONTINUOUS
 62
     7
 10
104.3847122539
 20
258.2012480256
 30
0.0
 11
124.3847122539
 21
258.2012480256
 31
0.0
  0
LINE
  5
10A
  8
LAYER1
  6
CONTINUOUS
 62
     7
 10
124.3847122539
 20
224.0012480256
 30
0.0
 11
124.3847122539
 21
228.2012480256
 31
0.0
  0
LINE
  5
10B
  8
LAYER1
  6
CONTINUOUS
 62
     7
 10
124.3847122539
 20
228.2012480256
 30
0.0
 11
104.3847122539
 21
228.2012480256
 31
0.0
  0
LINE
  5
10C
  8
LAYER1
  6
CONTINUOUS
 62
     7
 10
104.3847122539
 20
228.2012480256
 30
0.0
 11
104.3847122539
 21
224.0012480256
 31
0.0
  0
LINE
  5
10D
  8
LAYER1
  6
CONTINUOUS
 62
     7
 10
104.3847122539
 20
224.0012480256
 30
0.0
 11
124.3847122539
 21
224.0012480256
 31
0.0
  0
LINE
  5
10E
  8
LAYER1
  6
CONTINUOUS
 62
     7
 10
124.3847122539
 20
292.4012480256
 30
0.0
 11
124.3847122539
 21
296.6012480256
 31
0.0
  0
LINE
  5
10F
  8
LAYER1
  6
CONTINUOUS
 62
     7
 10
124.3847122539
 20
296.6012480256
 30
0.0
 11
104.3847122539
 21
296.6012480256
 31
0.0
  0
LINE
  5
110
  8
LAYER1
  6
CONTINUOUS
 62
     7
 10
104.3847122539
 20
296.6012480256
 30
0.0
 11
104.3847122539
 21
292.4012480256
 31
0.0
  0
LINE
  5
111
  8
LAYER1
  6
CONTINUOUS
 62
     7
 10
104.3847122539
 20
292.4012480256
 30
0.0
 11
124.3847122539
 21
292.4012480256
 31
0.0
  0
LINE
  5
112
  8
LAYER1
  6
CONTINUOUS
 62
     7
 10
124.3847122539
 20
81.4012480256
 30
0.0
 11
124.3847122539
 21
85.6012480256
 31
0.0
  0
LINE
  5
113
  8
LAYER1
  6
CONTINUOUS
 62
     7
 10
124.3847122539
 20
85.6012480256
 30
0.0
 11
104.3847122539
 21
85.6012480256
 31
0.0
  0
LINE
  5
114
  8
LAYER1
  6
CONTINUOUS
 62
     7
 10
104.3847122539
 20
85.6012480256
 30
0.0
 11
104.3847122539
 21
81.4012480256
 31
0.0
  0
LINE
  5
115
  8
LAYER1
  6
CONTINUOUS
 62
     7
 10
104.3847122539
 20
81.4012480256
 30
0.0
 11
124.3847122539
 21
81.4012480256
 31
0.0
  0
LINE
  5
116
  8
LAYER1
  6
CONTINUOUS
 62
     7
 10
124.3847122539
 20
115.6012480256
 30
0.0
 11
124.3847122539
 21
119.8012480256
 31
0.0
  0
LINE
  5
117
  8
LAYER1
  6
CONTINUOUS
 62
     7
 10
124.3847122539
 20
119.8012480256
 30
0.0
 11
104.3847122539
 21
119.8012480256
 31
0.0
  0
LINE
  5
118
  8
LAYER1
  6
CONTINUOUS
 62
     7
 10
104.3847122539
 20
119.8012480256
 30
0.0
 11
104.3847122539
 21
115.6012480256
 31
0.0
  0
LINE
  5
119
  8
LAYER1
  6
CONTINUOUS
 62
     7
 10
104.3847122539
 20
115.6012480256
 30
0.0
 11
124.3847122539
 21
115.6012480256
 31
0.0
  0
LINE
  5
11A
  8
LAYER1
  6
CONTINUOUS
 62
     7
 10
139.3847122539
 20
141.9012480256
 30
0.0
 11
139.3847122539
 21
201.9012480256
 31
0.0
  0
LINE
  5
11B
  8
LAYER1
  6
CONTINUOUS
 62
     7
 10
139.3847122539
 20
17.1012480256
 30
0.0
 11
139.3847122539
 21
81.9012480256
 31
0.0
  0
LINE
  5
11C
  8
LAYER1
  6
CONTINUOUS
 62
     7
 10
143.5847122539
 20
201.9012480256
 30
0.0
 11
139.3847122539
 21
201.9012480256
 31
0.0
  0
LINE
  5
11D
  8
LAYER1
  6
CONTINUOUS
 62
     7
 10
143.5847122539
 20
261.9012480256
 30
0.0
 11
143.5847122539
 21
201.9012480256
 31
0.0
  0
LINE
  5
11E
  8
LAYER1
  6
CONTINUOUS
 62
     7
 10
139.3847122539
 20
261.9012480256
 30
0.0
 11
143.5847122539
 21
261.9012480256
 31
0.0
  0
LINE
  5
11F
  8
LAYER1
  6
CONTINUOUS
 62
     7
 10
143.5847122539
 20
81.9012480256
 30
0.0
 11
139.3847122539
 21
81.9012480256
 31
0.0
  0
LINE
  5
120
  8
LAYER1
  6
CONTINUOUS
 62
     7
 10
143.5847122539
 20
141.9012480256
 30
0.0
 11
143.5847122539
 21
81.9012480256
 31
0.0
  0
LINE
  5
121
  8
LAYER1
  6
CONTINUOUS
 62
     7
 10
139.3847122539
 20
141.9012480256
 30
0.0
 11
143.5847122539
 21
141.9012480256
 31
0.0
  0
LINE
  5
122
  8
LAYER1
  6
CONTINUOUS
 62
     7
 10
104.3847122539
 20
326.7012480256
 30
0.0
 11
104.3847122539
 21
330.8012480256
 31
0.0
  0
LINE
  5
123
  8
LAYER1
  6
CONTINUOUS
 62
     7
 10
89.3847122539
 20
326.7012480256
 30
0.0
 11
104.3847122539
 21
326.7012480256
 31
0.0
  0
LINE
  5
124
  8
LAYER1
  6
CONTINUOUS
 62
     7
 10
124.3847122539
 20
326.7012480256
 30
0.0
 11
124.3847122539
 21
330.8012480256
 31
0.0
  0
LINE
  5
125
  8
LAYER1
  6
CONTINUOUS
 62
     7
 10
139.3847122539
 20
326.7012480256
 30
0.0
 11
124.3847122539
 21
326.7012480256
 31
0.0
  0
LINE
  5
126
  8
LAYER1
  6
CONTINUOUS
 62
     7
 10
124.3847122539
 20
330.8012480256
 30
0.0
 11
104.3847122539
 21
330.8012480256
 31
0.0
  0
LINE
  5
127
  8
LAYER1
  6
CONTINUOUS
 62
     7
 10
124.3847122539
 20
17.1012480256
 30
0.0
 11
124.3847122539
 21
13.0012480256
 31
0.0
  0
LINE
  5
128
  8
LAYER1
  6
CONTINUOUS
 62
     7
 10
139.3847122539
 20
17.1012480256
 30
0.0
 11
124.3847122539
 21
17.1012480256
 31
0.0
  0
LINE
  5
129
  8
LAYER1
  6
CONTINUOUS
 62
     7
 10
104.3847122539
 20
17.1012480256
 30
0.0
 11
104.3847122539
 21
13.0012480256
 31
0.0
  0
LINE
  5
12A
  8
LAYER1
  6
CONTINUOUS
 62
     7
 10
89.3847122539
 20
17.1012480256
 30
0.0
 11
104.3847122539
 21
17.1012480256
 31
0.0
  0
LINE
  5
12B
  8
LAYER1
  6
CONTINUOUS
 62
     7
 10
104.3847122539
 20
13.0012480256
 30
0.0
 11
124.3847122539
 21
13.0012480256
 31
0.0
  0
LINE
  5
12C
  8
LAYER1
  6
CONTINUOUS
 62
     7
 10
89.3847122539
 20
326.7012480256
 30
0.0
 11
89.3847122539
 21
17.1012480256
 31
0.0
  0
LINE
  5
12D
  8
LAYER1
  6
CONTINUOUS
 62
     7
 10
139.3847122539
 20
261.9012480256
 30
0.0
 11
139.3847122539
 21
326.7012480256
 31
0.0
  0
INSERT
  5
12F
  8
0
  2
SE
 10
0.0
 20
0.0
 30
0.0
  0
INSERT
  5
13C
  8
0
  2
SE2
 10
0.0
 20
0.0
 30
0.0
  0
INSERT
  5
158
  8
0
  2
SE4
 10
0.0
 20
0.0
 30
0.0
  0
INSERT
  5
174
  8
0
  2
SE6
 10
0.0
 20
0.0
 30
0.0
  0
INSERT
  5
190
  8
0
  2
SE8
 10
0.0
 20
0.0
 30
0.0
  0
INSERT
  5
1AC
  8
0
  2
SE10
 10
0.0
 20
0.0
 30
0.0
  0
INSERT
  5
1C8
  8
0
  2
SE12
 10
0.0
 20
0.0
 30
0.0
  0
INSERT
  5
1E4
  8
0
  2
SE14
 10
0.0
 20
0.0
 30
0.0
  0
INSERT
  5
237
  8
0
  2
SE16
 10
0.0
 20
0.0
 30
0.0
  0
INSERT
  5
288
  8
0
  2
SE18
 10
0.0
 20
0.0
 30
0.0
  0
INSERT
  5
2B6
  8
0
  2
SE20
 10
0.0
 20
0.0
 30
0.0
  0
ENDSEC
  0
EOF
