<?xml version="1.0" encoding="utf-8"?>
<!-- Generator: Adobe Illustrator 19.2.1, SVG Export Plug-In . SVG Version: 6.00 Build 0)  -->
<svg version="1.1" xmlns="http://www.w3.org/2000/svg" xmlns:xlink="http://www.w3.org/1999/xlink" x="0px" y="0px"
	 width="2267.717px" height="1133.858px" viewBox="0 0 2267.717 1133.858" style="enable-background:new 0 0 2267.717 1133.858;"
	 xml:space="preserve">
<style type="text/css">
	.st0{fill:#FFFFFF;stroke:#000000;stroke-width:0.7087;stroke-linecap:round;stroke-linejoin:round;stroke-miterlimit:10;}
</style>
<g id="LAYER1">
	<path class="st0" d="M777.411,311.811V116.504h-99.213v11.905H508.12v-11.905h-99.213v195.307h11.906V481.89h-11.906v170.079
		h11.906v170.079h-11.906v195.307h99.213v-11.906h170.079v11.906h99.213V822.047h-11.906V651.969h11.906V481.89h-11.906V311.811
		H777.411z M587.206,142.583h11.906v56.693h-11.906V142.583z M599.112,991.276h-11.906v-56.693h11.906V991.276z M649.852,920.409
		H536.466v-11.905h113.386V920.409z M587.206,894.331v-56.693h11.906v56.693H587.206z M649.852,823.465H536.466v-11.906h113.386
		V823.465z M587.206,797.386v-56.693h11.906v56.693H587.206z M649.852,726.52H536.466v-11.906h113.386V726.52z M587.206,672.094
		v-56.693h11.906v56.693H587.206z M649.852,572.882H536.466v-11.906h113.386V572.882z M587.206,518.457v-56.693h11.906v56.693
		H587.206z M649.852,419.244H536.466v-11.906h113.386V419.244z M587.206,393.165v-56.693h11.906v56.693H587.206z M649.852,322.299
		H536.466v-11.906h113.386V322.299z M587.206,296.22v-56.693h11.906v56.693H587.206z M649.852,225.354H536.466v-11.905h113.386
		V225.354z"/>
	<path class="st0" d="M1615.415,988.35c-2.283-9.573-10.838-16.328-20.68-16.328h-5.953V618.826h-42.52v11.906h-56.693v-11.906
		h-42.52v99.213h-11.906v170.079h11.906v99.213h42.52v-11.905h56.693v11.905h14.006c6.561,0,12.264,4.503,13.787,10.885
		c2.724,11.421,14.191,18.471,25.612,15.747C1611.088,1011.238,1618.139,999.771,1615.415,988.35z M1546.262,809.03h-56.693v-11.906
		h56.693V809.03z M1594.735,1006.251c-7.162,0-12.969-5.806-12.969-12.969s5.806-12.969,12.969-12.969
		c7.162,0,12.969,5.806,12.969,12.969S1601.897,1006.251,1594.735,1006.251z"/>
	<path class="st0" d="M1615.415,555.228c-2.283-9.573-10.838-16.328-20.68-16.328h-5.953V185.704h-42.52v11.906h-56.693v-11.906
		h-42.52v99.213h-11.906v170.079h11.906v99.213h42.52v-11.906h56.693v11.906h14.006c6.561,0,12.264,4.503,13.787,10.885
		c2.724,11.421,14.191,18.472,25.612,15.747C1611.088,578.116,1618.139,566.649,1615.415,555.228z M1546.262,375.908h-56.693
		v-11.906h56.693V375.908z M1594.735,573.129c-7.162,0-12.969-5.806-12.969-12.969s5.806-12.969,12.969-12.969
		c7.162,0,12.969,5.806,12.969,12.969S1601.897,573.129,1594.735,573.129z"/>
	<path class="st0" d="M371.233,481.89V311.811h-11.906V128.126h-42.52v-11.622h-56.693v11.622h-42.52v877.606h42.52v11.622h56.693
		v-11.622h42.52V822.047h11.906V651.969h-11.906V481.89H371.233z M316.808,920.409h-56.693v-11.905h56.693V920.409z
		 M316.808,823.465h-56.693v-11.906h56.693V823.465z M316.808,726.52h-56.693v-11.906h56.693V726.52z M316.808,572.882h-56.693
		v-11.906h56.693V572.882z M316.808,419.244h-56.693v-11.906h56.693V419.244z M316.808,322.299h-56.693v-11.906h56.693V322.299z
		 M316.808,225.354h-56.693v-11.905h56.693V225.354z"/>
	<g id="LINE_205_">
		<polygon class="st0" points="1682.716,1017.354 1682.716,974.835 1670.811,974.835 1670.811,918.142 1682.716,918.142 
			1682.716,875.622 1798.37,875.622 1798.37,863.717 1911.755,863.717 1911.755,875.622 2027.409,875.622 2027.409,918.142 
			2039.315,918.142 2039.315,974.835 2027.409,974.835 2027.409,1017.354 1861.015,1017.354 1861.015,946.488 1849.11,946.488 
			1849.11,1017.354 		"/>
	</g>
	<g id="LINE_225_">
		<polygon class="st0" points="2079.773,660.756 2122.293,660.756 2122.293,648.85 2178.986,648.85 2178.986,660.756 
			2221.505,660.756 2221.505,776.409 2233.411,776.409 2233.411,889.795 2221.505,889.795 2221.505,1005.449 2178.986,1005.449 
			2178.986,1017.354 2122.293,1017.354 2122.293,1005.449 2079.773,1005.449 2079.773,839.055 2150.639,839.055 2150.639,827.15 
			2079.773,827.15 		"/>
	</g>
	<g id="LINE_245_">
		<polygon class="st0" points="1682.716,833.102 1682.716,790.583 1670.811,790.583 1670.811,733.89 1682.716,733.89 
			1682.716,691.37 1798.37,691.37 1798.37,679.465 1911.755,679.465 1911.755,691.37 2027.409,691.37 2027.409,733.89 
			2039.315,733.89 2039.315,790.583 2027.409,790.583 2027.409,833.102 1861.015,833.102 1861.015,762.236 1849.11,762.236 
			1849.11,833.102 		"/>
	</g>
	<g id="LINE_265_">
		<polygon class="st0" points="1682.716,648.85 1682.716,606.331 1670.811,606.331 1670.811,549.638 1682.716,549.638 
			1682.716,507.118 1798.37,507.118 1798.37,495.213 1911.755,495.213 1911.755,507.118 2027.409,507.118 2027.409,549.638 
			2039.315,549.638 2039.315,606.331 2027.409,606.331 2027.409,648.85 1861.015,648.85 1861.015,577.984 1849.11,577.984 
			1849.11,648.85 		"/>
	</g>
	<g id="LINE_285_">
		<polygon class="st0" points="1672.451,276.823 1672.451,234.304 1660.545,234.304 1660.545,177.611 1672.451,177.611 
			1672.451,135.091 1788.104,135.091 1788.104,123.185 1901.49,123.185 1901.49,135.091 2017.144,135.091 2017.144,177.611 
			2029.049,177.611 2029.049,234.304 2017.144,234.304 2017.144,276.823 1850.75,276.823 1850.75,205.957 1838.844,205.957 
			1838.844,276.823 		"/>
	</g>
	<g id="LINE_305_">
		<polygon class="st0" points="1682.716,464.598 1682.716,422.079 1670.811,422.079 1670.811,365.386 1682.716,365.386 
			1682.716,322.866 1798.37,322.866 1798.37,310.961 1911.755,310.961 1911.755,322.866 2027.409,322.866 2027.409,365.386 
			2039.315,365.386 2039.315,422.079 2027.409,422.079 2027.409,464.598 1861.015,464.598 1861.015,393.732 1849.11,393.732 
			1849.11,464.598 		"/>
	</g>
	<path class="st0" d="M901.706,487.276h92.925c1.565,0,2.835-1.269,2.835-2.835v-2.227c0-0.752-0.299-1.473-0.83-2.004l-9.091-9.091
		h-1.984v4.252h-83.854c-1.802,0-3.408-1.136-4.009-2.835c-0.783-2.214,0.378-4.643,2.591-5.426s4.643,0.378,5.426,2.591h67.94
		V128.126h-42.52v-11.622h-56.693v11.622h-42.52v183.685h-11.906V481.89h11.906v170.079h-11.906v170.079h11.906v183.685h42.52
		v11.622h56.693v-11.622h42.52V664.157h-67.94c-0.601,1.699-2.207,2.835-4.009,2.835c-2.348,0-4.252-1.904-4.252-4.252
		c0-2.348,1.904-4.252,4.252-4.252h83.854v4.252h1.984l9.091-9.091c0.532-0.532,0.83-1.253,0.83-2.004v-2.227
		c0-1.565-1.269-2.835-2.835-2.835h-92.925c-1.802,0-3.408-1.136-4.009-2.835c-0.783-2.214,0.378-4.643,2.591-5.426
		s4.643,0.378,5.426,2.591h67.94V492.945h-67.94c-0.601,1.699-2.207,2.835-4.009,2.835c-2.348,0-4.252-1.904-4.252-4.252
		C897.454,489.179,899.357,487.276,901.706,487.276z M874.442,213.449h56.693v11.905h-56.693V213.449z M874.442,310.394h56.693
		v11.906h-56.693V310.394z M931.135,920.409h-56.693v-11.905h56.693V920.409z M931.135,823.465h-56.693v-11.906h56.693V823.465z
		 M931.135,714.614v11.906h-56.693v-11.906H931.135z M931.135,560.976v11.906h-56.693v-11.906H931.135z M874.442,419.244v-11.906
		h56.693v11.906H874.442z"/>
	<g id="LINE_443_">
		<polygon class="st0" points="76.825,1017.354 76.825,1005.732 34.306,1005.732 34.306,128.126 76.825,128.126 76.825,116.504 
			133.518,116.504 133.518,128.126 176.038,128.126 176.038,142.583 187.943,142.583 187.943,199.276 176.038,199.276 
			176.038,213.449 105.172,213.449 105.172,225.354 176.038,225.354 176.038,239.528 187.943,239.528 187.943,296.22 
			176.038,296.22 176.038,310.394 105.172,310.394 105.172,322.299 176.038,322.299 176.038,336.472 187.943,336.472 
			187.943,393.165 176.038,393.165 176.038,407.339 105.172,407.339 105.172,419.244 176.038,419.244 176.038,461.764 
			187.943,461.764 187.943,518.457 176.038,518.457 176.038,560.976 105.172,560.976 105.172,572.882 176.038,572.882 
			176.038,615.402 187.943,615.402 187.943,672.094 176.038,672.094 176.038,714.614 105.172,714.614 105.172,726.52 
			176.038,726.52 176.038,740.693 187.943,740.693 187.943,797.386 176.038,797.386 176.038,811.559 105.172,811.559 
			105.172,823.465 176.038,823.465 176.038,837.638 187.943,837.638 187.943,894.331 176.038,894.331 176.038,908.504 
			105.172,908.504 105.172,920.409 176.038,920.409 176.038,934.583 187.943,934.583 187.943,991.276 176.038,991.276 
			176.038,1005.732 133.518,1005.732 133.518,1017.354 		"/>
	</g>
	<g id="LINE_492_">
		<polygon class="st0" points="2079.773,248.866 2122.293,248.866 2122.293,236.961 2178.986,236.961 2178.986,248.866 
			2221.505,248.866 2221.505,364.52 2233.411,364.52 2233.411,477.905 2221.505,477.905 2221.505,593.559 2178.986,593.559 
			2178.986,605.464 2122.293,605.464 2122.293,593.559 2079.773,593.559 2079.773,427.165 2150.639,427.165 2150.639,415.26 
			2079.773,415.26 		"/>
	</g>
	<path class="st0" d="M1407.163,181.189c10.744-3.916,17.893-14.132,17.893-25.567v-27.213h-15.307v-11.905h-11.906v11.906h-15.307
		v-11.906h-353.197v322.802c0,4.806-2.436,9.285-6.47,11.897c-3.389,2.194-5.435,5.956-5.435,9.994v211.465
		c0,4.037,2.046,7.8,5.435,9.994c4.035,2.612,6.47,7.091,6.47,11.897v322.802h353.197v-11.906h15.307v11.906h11.906v-11.906h15.307
		v-27.213c0-11.435-7.149-21.651-17.893-25.567c-5.596-2.04-9.319-7.36-9.319-13.316V194.505
		C1397.843,188.549,1401.567,183.229,1407.163,181.189z M1041.245,658.488h-11.906v-20.409h11.906V658.488z M1041.245,495.78
		h-11.906V475.37h11.906V495.78z"/>
	<path class="st0" d="M1468.31,575.079c-7.045,0-12.756,5.711-12.756,12.756c0,7.045,5.711,12.756,12.756,12.756
		s12.756-5.711,12.756-12.756C1481.066,580.79,1475.354,575.079,1468.31,575.079z M1474.262,593.788h-11.906v-11.906h11.906V593.788
		z"/>
	<path class="st0" d="M1512.211,575.079c-7.045,0-12.756,5.711-12.756,12.756c0,7.045,5.711,12.756,12.756,12.756
		s12.756-5.711,12.756-12.756C1524.967,580.79,1519.256,575.079,1512.211,575.079z M1518.164,593.788h-11.906v-11.906h11.906
		V593.788z"/>
</g>
<g id="STANDARD">
</g>
</svg>
