<svg xmlns="http://www.w3.org/2000/svg" version="1.1" width="13.867999999999999in" height="12.972in" viewBox = " 0 0 1248.12 1167.48" >
<!-- Front--> 
<g transform="translate(22.5, 22.5) " > 
<polygon style="stroke:#000000; fill:none; stroke-width:0.9" points="0, 0 24.434999999999988, 0 24.434999999999988, 10.62 48.869999999999976, 10.62 48.869999999999976, 0 66.86999999999998, 0 66.86999999999998, 10.62 84.86999999999998, 10.62 84.86999999999998, 0 102.86999999999998, 0 102.86999999999998, 10.62 120.86999999999998, 10.62 120.86999999999998, 0 138.86999999999998, 0 138.86999999999998, 10.62 156.86999999999998, 10.62 156.86999999999998, 0 174.86999999999998, 0 174.86999999999998, 10.62 192.86999999999998, 10.62 192.86999999999998, 0 210.86999999999998, 0 210.86999999999998, 10.62 228.86999999999998, 10.62 228.86999999999998, 0 246.86999999999998, 0 246.86999999999998, 10.62 264.87, 10.62 264.87, 0 282.87, 0 282.87, 10.62 300.87, 10.62 300.87, 0 318.87, 0 318.87, 10.62 336.87, 10.62 336.87, 0 354.87, 0 354.87, 10.62 372.87, 10.62 372.87, 0 390.87, 0 390.87, 10.62 408.87, 10.62 408.87, 0 426.87, 0 426.87, 10.62 444.87, 10.62 444.87, 0 462.87, 0 462.87, 10.62 480.87, 10.62 480.87, 0 498.87, 0 498.87, 10.62 523.305, 10.62 523.305, 0 547.7399999999999, 0 547.7399999999999, 27.809999999999995 537.1199999999999, 27.809999999999995 537.1199999999999, 55.61999999999999 547.7399999999999, 55.61999999999999 547.7399999999999, 73.61999999999999 537.1199999999999, 73.61999999999999 537.1199999999999, 91.61999999999999 547.7399999999999, 91.61999999999999 547.7399999999999, 109.61999999999999 537.1199999999999, 109.61999999999999 537.1199999999999, 127.61999999999999 547.7399999999999, 127.61999999999999 547.7399999999999, 145.62 537.1199999999999, 145.62 537.1199999999999, 163.62 547.7399999999999, 163.62 547.7399999999999, 181.62 537.1199999999999, 181.62 537.1199999999999, 199.62 547.7399999999999, 199.62 547.7399999999999, 217.62 537.1199999999999, 217.62 537.1199999999999, 235.62 547.7399999999999, 235.62 547.7399999999999, 253.62 537.1199999999999, 253.62 537.1199999999999, 271.62 547.7399999999999, 271.62 547.7399999999999, 289.62 537.1199999999999, 289.62 537.1199999999999, 307.62 547.7399999999999, 307.62 547.7399999999999, 325.62 537.1199999999999, 325.62 537.1199999999999, 343.62 547.7399999999999, 343.62 547.7399999999999, 361.62 537.1199999999999, 361.62 537.1199999999999, 379.62 547.7399999999999, 379.62 547.7399999999999, 397.62 537.1199999999999, 397.62 537.1199999999999, 415.62 547.7399999999999, 415.62 547.7399999999999, 433.62 537.1199999999999, 433.62 537.1199999999999, 451.62 547.7399999999999, 451.62 547.7399999999999, 469.62 537.1199999999999, 469.62 537.1199999999999, 487.62 547.7399999999999, 487.62 547.7399999999999, 505.62 537.1199999999999, 505.62 537.1199999999999, 533.43 547.7399999999999, 533.43 547.74, 561.24 523.305, 561.24 523.305, 550.62 498.87, 550.62 498.87, 561.24 480.87, 561.24 480.87, 550.62 462.87, 550.62 462.87, 561.24 444.87, 561.24 444.87, 550.62 426.87, 550.62 426.87, 561.24 408.87, 561.24 408.87, 550.62 390.87, 550.62 390.87, 561.24 372.87, 561.24 372.87, 550.62 354.87, 550.62 354.87, 561.24 336.87, 561.24 336.87, 550.62 318.87, 550.62 318.87, 561.24 300.87, 561.24 300.87, 550.62 282.87, 550.62 282.87, 561.24 264.87, 561.24 264.87, 550.62 246.86999999999998, 550.62 246.86999999999998, 561.24 228.86999999999998, 561.24 228.86999999999998, 550.62 210.86999999999998, 550.62 210.86999999999998, 561.24 192.86999999999998, 561.24 192.86999999999998, 550.62 174.86999999999998, 550.62 174.86999999999998, 561.24 156.86999999999998, 561.24 156.86999999999998, 550.62 138.86999999999998, 550.62 138.86999999999998, 561.24 120.86999999999998, 561.24 120.86999999999998, 550.62 102.86999999999998, 550.62 102.86999999999998, 561.24 84.86999999999998, 561.24 84.86999999999998, 550.62 66.86999999999998, 550.62 66.86999999999998, 561.24 48.869999999999976, 561.24 48.869999999999976, 550.62 24.434999999999988, 550.62 24.434999999999988, 561.24 0, 561.24 0, 533.43 10.62, 533.43 10.62, 505.62 0, 505.62 0, 487.62 10.62, 487.62 10.62, 469.62 0, 469.62 0, 451.62 10.62, 451.62 10.62, 433.62 0, 433.62 0, 415.62 10.62, 415.62 10.62, 397.62 0, 397.62 0, 379.62 10.62, 379.62 10.62, 361.62 0, 361.62 0, 343.62 10.62, 343.62 10.62, 325.62 0, 325.62 0, 307.62 10.62, 307.62 10.62, 289.62 0, 289.62 0, 271.62 10.62, 271.62 10.62, 253.62 0, 253.62 0, 235.62 10.62, 235.62 10.62, 217.62 0, 217.62 0, 199.62 10.62, 199.62 10.62, 181.62 0, 181.62 0, 163.62 10.62, 163.62 10.62, 145.62 0, 145.62 0, 127.61999999999999 10.62, 127.61999999999999 10.62, 109.61999999999999 0, 109.61999999999999 0, 91.61999999999999 10.62, 91.61999999999999 10.62, 73.61999999999999 0, 73.61999999999999 0, 55.61999999999999 10.62, 55.61999999999999 10.62, 27.809999999999995 0, 27.809999999999995 "/> 
</g>
<!-- Back--> 
<g transform="translate(570.2399999999999, 22.5) " > 
<polygon style="stroke:#000000; fill:none; stroke-width:0.9" points="0, 0 24.434999999999988, 0 24.434999999999988, 10.62 48.869999999999976, 10.62 48.869999999999976, 0 66.86999999999998, 0 66.86999999999998, 10.62 84.86999999999998, 10.62 84.86999999999998, 0 102.86999999999998, 0 102.86999999999998, 10.62 120.86999999999998, 10.62 120.86999999999998, 0 138.86999999999998, 0 138.86999999999998, 10.62 156.86999999999998, 10.62 156.86999999999998, 0 174.86999999999998, 0 174.86999999999998, 10.62 192.86999999999998, 10.62 192.86999999999998, 0 210.86999999999998, 0 210.86999999999998, 10.62 228.86999999999998, 10.62 228.86999999999998, 0 246.86999999999998, 0 246.86999999999998, 10.62 264.87, 10.62 264.87, 0 282.87, 0 282.87, 10.62 300.87, 10.62 300.87, 0 318.87, 0 318.87, 10.62 336.87, 10.62 336.87, 0 354.87, 0 354.87, 10.62 372.87, 10.62 372.87, 0 390.87, 0 390.87, 10.62 408.87, 10.62 408.87, 0 426.87, 0 426.87, 10.62 444.87, 10.62 444.87, 0 462.87, 0 462.87, 10.62 480.87, 10.62 480.87, 0 498.87, 0 498.87, 10.62 523.305, 10.62 523.305, 0 547.7399999999999, 0 547.7399999999999, 27.809999999999995 537.1199999999999, 27.809999999999995 537.1199999999999, 55.61999999999999 547.7399999999999, 55.61999999999999 547.7399999999999, 73.61999999999999 537.1199999999999, 73.61999999999999 537.1199999999999, 91.61999999999999 547.7399999999999, 91.61999999999999 547.7399999999999, 109.61999999999999 537.1199999999999, 109.61999999999999 537.1199999999999, 127.61999999999999 547.7399999999999, 127.61999999999999 547.7399999999999, 145.62 537.1199999999999, 145.62 537.1199999999999, 163.62 547.7399999999999, 163.62 547.7399999999999, 181.62 537.1199999999999, 181.62 537.1199999999999, 199.62 547.7399999999999, 199.62 547.7399999999999, 217.62 537.1199999999999, 217.62 537.1199999999999, 235.62 547.7399999999999, 235.62 547.7399999999999, 253.62 537.1199999999999, 253.62 537.1199999999999, 271.62 547.7399999999999, 271.62 547.7399999999999, 289.62 537.1199999999999, 289.62 537.1199999999999, 307.62 547.7399999999999, 307.62 547.7399999999999, 325.62 537.1199999999999, 325.62 537.1199999999999, 343.62 547.7399999999999, 343.62 547.7399999999999, 361.62 537.1199999999999, 361.62 537.1199999999999, 379.62 547.7399999999999, 379.62 547.7399999999999, 397.62 537.1199999999999, 397.62 537.1199999999999, 415.62 547.7399999999999, 415.62 547.7399999999999, 433.62 537.1199999999999, 433.62 537.1199999999999, 451.62 547.7399999999999, 451.62 547.7399999999999, 469.62 537.1199999999999, 469.62 537.1199999999999, 487.62 547.7399999999999, 487.62 547.7399999999999, 505.62 537.1199999999999, 505.62 537.1199999999999, 533.43 547.7399999999999, 533.43 547.74, 561.24 523.305, 561.24 523.305, 550.62 498.87, 550.62 498.87, 561.24 480.87, 561.24 480.87, 550.62 462.87, 550.62 462.87, 561.24 444.87, 561.24 444.87, 550.62 426.87, 550.62 426.87, 561.24 408.87, 561.24 408.87, 550.62 390.87, 550.62 390.87, 561.24 372.87, 561.24 372.87, 550.62 354.87, 550.62 354.87, 561.24 336.87, 561.24 336.87, 550.62 318.87, 550.62 318.87, 561.24 300.87, 561.24 300.87, 550.62 282.87, 550.62 282.87, 561.24 264.87, 561.24 264.87, 550.62 246.86999999999998, 550.62 246.86999999999998, 561.24 228.86999999999998, 561.24 228.86999999999998, 550.62 210.86999999999998, 550.62 210.86999999999998, 561.24 192.86999999999998, 561.24 192.86999999999998, 550.62 174.86999999999998, 550.62 174.86999999999998, 561.24 156.86999999999998, 561.24 156.86999999999998, 550.62 138.86999999999998, 550.62 138.86999999999998, 561.24 120.86999999999998, 561.24 120.86999999999998, 550.62 102.86999999999998, 550.62 102.86999999999998, 561.24 84.86999999999998, 561.24 84.86999999999998, 550.62 66.86999999999998, 550.62 66.86999999999998, 561.24 48.869999999999976, 561.24 48.869999999999976, 550.62 24.434999999999988, 550.62 24.434999999999988, 561.24 0, 561.24 0, 533.43 10.62, 533.43 10.62, 505.62 0, 505.62 0, 487.62 10.62, 487.62 10.62, 469.62 0, 469.62 0, 451.62 10.62, 451.62 10.62, 433.62 0, 433.62 0, 415.62 10.62, 415.62 10.62, 397.62 0, 397.62 0, 379.62 10.62, 379.62 10.62, 361.62 0, 361.62 0, 343.62 10.62, 343.62 10.62, 325.62 0, 325.62 0, 307.62 10.62, 307.62 10.62, 289.62 0, 289.62 0, 271.62 10.62, 271.62 10.62, 253.62 0, 253.62 0, 235.62 10.62, 235.62 10.62, 217.62 0, 217.62 0, 199.62 10.62, 199.62 10.62, 181.62 0, 181.62 0, 163.62 10.62, 163.62 10.62, 145.62 0, 145.62 0, 127.61999999999999 10.62, 127.61999999999999 10.62, 109.61999999999999 0, 109.61999999999999 0, 91.61999999999999 10.62, 91.61999999999999 10.62, 73.61999999999999 0, 73.61999999999999 0, 55.61999999999999 10.62, 55.61999999999999 10.62, 27.809999999999995 0, 27.809999999999995 "/> 
</g>
<!-- Left--> 
<g transform="translate(1117.9799999999998, 22.5) " > 
<polygon style="stroke:#000000; fill:none; stroke-width:0.9" points="10.62, 0 21.528, 0 21.528, 10.62 43.056, 10.62 43.056, 0 64.584, 0 64.584, 10.62 86.112, 10.62 86.112, 0 97.02, 0 97.02, 27.809999999999995 107.64, 27.809999999999995 107.64, 55.61999999999999 97.02, 55.61999999999999 97.02, 73.61999999999999 107.64, 73.61999999999999 107.64, 91.61999999999999 97.02, 91.61999999999999 97.02, 109.61999999999999 107.64, 109.61999999999999 107.64, 127.61999999999999 97.02, 127.61999999999999 97.02, 145.62 107.64, 145.62 107.64, 163.62 97.02, 163.62 97.02, 181.62 107.64, 181.62 107.64, 199.62 97.02, 199.62 97.02, 217.62 107.64, 217.62 107.64, 235.62 97.02, 235.62 97.02, 253.62 107.64, 253.62 107.64, 271.62 97.02, 271.62 97.02, 289.62 107.64, 289.62 107.64, 307.62 97.02, 307.62 97.02, 325.62 107.64, 325.62 107.64, 343.62 97.02, 343.62 97.02, 361.62 107.64, 361.62 107.64, 379.62 97.02, 379.62 97.02, 397.62 107.64, 397.62 107.64, 415.62 97.02, 415.62 97.02, 433.62 107.64, 433.62 107.64, 451.62 97.02, 451.62 97.02, 469.62 107.64, 469.62 107.64, 487.62 97.02, 487.62 97.02, 505.62 107.64, 505.62 107.64, 533.43 97.02, 533.43 97.01999999999998, 561.24 86.112, 561.24 86.112, 550.62 64.584, 550.62 64.584, 561.24 43.056, 561.24 43.056, 550.62 21.528, 550.62 21.528, 561.24 10.62, 561.24 10.62, 533.43 0, 533.43 0, 505.62 10.62, 505.62 10.62, 487.62 0, 487.62 0, 469.62 10.62, 469.62 10.62, 451.62 0, 451.62 0, 433.62 10.62, 433.62 10.62, 415.62 0, 415.62 0, 397.62 10.62, 397.62 10.62, 379.62 0, 379.62 0, 361.62 10.62, 361.62 10.62, 343.62 0, 343.62 0, 325.62 10.62, 325.62 10.62, 307.62 0, 307.62 0, 289.62 10.62, 289.62 10.62, 271.62 0, 271.62 0, 253.62 10.62, 253.62 10.62, 235.62 0, 235.62 0, 217.62 10.62, 217.62 10.62, 199.62 0, 199.62 0, 181.62 10.62, 181.62 10.62, 163.62 0, 163.62 0, 145.62 10.62, 145.62 10.62, 127.61999999999999 0, 127.61999999999999 0, 109.61999999999999 10.62, 109.61999999999999 10.62, 91.61999999999999 0, 91.61999999999999 0, 73.61999999999999 10.62, 73.61999999999999 10.62, 55.61999999999999 0, 55.61999999999999 0, 27.809999999999995 10.62, 27.809999999999995 "/> 
</g>
<!-- Right--> 
<g transform="translate(1117.9799999999998, 583.74) " > 
<polygon style="stroke:#000000; fill:none; stroke-width:0.9" points="10.62, 0 21.528, 0 21.528, 10.62 43.056, 10.62 43.056, 0 64.584, 0 64.584, 10.62 86.112, 10.62 86.112, 0 97.02, 0 97.02, 27.809999999999995 107.64, 27.809999999999995 107.64, 55.61999999999999 97.02, 55.61999999999999 97.02, 73.61999999999999 107.64, 73.61999999999999 107.64, 91.61999999999999 97.02, 91.61999999999999 97.02, 109.61999999999999 107.64, 109.61999999999999 107.64, 127.61999999999999 97.02, 127.61999999999999 97.02, 145.62 107.64, 145.62 107.64, 163.62 97.02, 163.62 97.02, 181.62 107.64, 181.62 107.64, 199.62 97.02, 199.62 97.02, 217.62 107.64, 217.62 107.64, 235.62 97.02, 235.62 97.02, 253.62 107.64, 253.62 107.64, 271.62 97.02, 271.62 97.02, 289.62 107.64, 289.62 107.64, 307.62 97.02, 307.62 97.02, 325.62 107.64, 325.62 107.64, 343.62 97.02, 343.62 97.02, 361.62 107.64, 361.62 107.64, 379.62 97.02, 379.62 97.02, 397.62 107.64, 397.62 107.64, 415.62 97.02, 415.62 97.02, 433.62 107.64, 433.62 107.64, 451.62 97.02, 451.62 97.02, 469.62 107.64, 469.62 107.64, 487.62 97.02, 487.62 97.02, 505.62 107.64, 505.62 107.64, 533.43 97.02, 533.43 97.01999999999998, 561.24 86.112, 561.24 86.112, 550.62 64.584, 550.62 64.584, 561.24 43.056, 561.24 43.056, 550.62 21.528, 550.62 21.528, 561.24 10.62, 561.24 10.62, 533.43 0, 533.43 0, 505.62 10.62, 505.62 10.62, 487.62 0, 487.62 0, 469.62 10.62, 469.62 10.62, 451.62 0, 451.62 0, 433.62 10.62, 433.62 10.62, 415.62 0, 415.62 0, 397.62 10.62, 397.62 10.62, 379.62 0, 379.62 0, 361.62 10.62, 361.62 10.62, 343.62 0, 343.62 0, 325.62 10.62, 325.62 10.62, 307.62 0, 307.62 0, 289.62 10.62, 289.62 10.62, 271.62 0, 271.62 0, 253.62 10.62, 253.62 10.62, 235.62 0, 235.62 0, 217.62 10.62, 217.62 10.62, 199.62 0, 199.62 0, 181.62 10.62, 181.62 10.62, 163.62 0, 163.62 0, 145.62 10.62, 145.62 10.62, 127.61999999999999 0, 127.61999999999999 0, 109.61999999999999 10.62, 109.61999999999999 10.62, 91.61999999999999 0, 91.61999999999999 0, 73.61999999999999 10.62, 73.61999999999999 10.62, 55.61999999999999 0, 55.61999999999999 0, 27.809999999999995 10.62, 27.809999999999995 "/> 
</g>
<!-- Top--> 
<g transform="translate(22.5, 583.74) " > 
<polygon style="stroke:#000000; fill:none; stroke-width:0.9" points="10.62, 10.62 24.434999999999988, 10.62 24.434999999999988, 0 48.869999999999976, 0 48.869999999999976, 10.62 66.86999999999998, 10.62 66.86999999999998, 0 84.86999999999998, 0 84.86999999999998, 10.62 102.86999999999998, 10.62 102.86999999999998, 0 120.86999999999998, 0 120.86999999999998, 10.62 138.86999999999998, 10.62 138.86999999999998, 0 156.86999999999998, 0 156.86999999999998, 10.62 174.86999999999998, 10.62 174.86999999999998, 0 192.86999999999998, 0 192.86999999999998, 10.62 210.86999999999998, 10.62 210.86999999999998, 0 228.86999999999998, 0 228.86999999999998, 10.62 246.86999999999998, 10.62 246.86999999999998, 0 264.87, 0 264.87, 10.62 282.87, 10.62 282.87, 0 300.87, 0 300.87, 10.62 318.87, 10.62 318.87, 0 336.87, 0 336.87, 10.62 354.87, 10.62 354.87, 0 372.87, 0 372.87, 10.62 390.87, 10.62 390.87, 0 408.87, 0 408.87, 10.62 426.87, 10.62 426.87, 0 444.87, 0 444.87, 10.62 462.87, 10.62 462.87, 0 480.87, 0 480.87, 10.62 498.87, 10.62 498.87, 0 523.305, 0 523.305, 10.62 537.1199999999999, 10.62 537.1199999999999, 21.528 547.7399999999999, 21.528 547.7399999999999, 43.056 537.1199999999999, 43.056 537.1199999999999, 64.584 547.7399999999999, 64.584 547.7399999999999, 86.112 537.1199999999999, 86.112 537.12, 97.02 523.305, 97.02 523.305, 107.64 498.87, 107.64 498.87, 97.02 480.87, 97.02 480.87, 107.64 462.87, 107.64 462.87, 97.02 444.87, 97.02 444.87, 107.64 426.87, 107.64 426.87, 97.02 408.87, 97.02 408.87, 107.64 390.87, 107.64 390.87, 97.02 372.87, 97.02 372.87, 107.64 354.87, 107.64 354.87, 97.02 336.87, 97.02 336.87, 107.64 318.87, 107.64 318.87, 97.02 300.87, 97.02 300.87, 107.64 282.87, 107.64 282.87, 97.02 264.87, 97.02 264.87, 107.64 246.86999999999998, 107.64 246.86999999999998, 97.02 228.86999999999998, 97.02 228.86999999999998, 107.64 210.86999999999998, 107.64 210.86999999999998, 97.02 192.86999999999998, 97.02 192.86999999999998, 107.64 174.86999999999998, 107.64 174.86999999999998, 97.02 156.86999999999998, 97.02 156.86999999999998, 107.64 138.86999999999998, 107.64 138.86999999999998, 97.02 120.86999999999998, 97.02 120.86999999999998, 107.64 102.86999999999998, 107.64 102.86999999999998, 97.02 84.86999999999998, 97.02 84.86999999999998, 107.64 66.86999999999998, 107.64 66.86999999999998, 97.02 48.869999999999976, 97.02 48.869999999999976, 107.64 24.434999999999988, 107.64 24.434999999999988, 97.02 10.62, 97.01999999999998 10.62, 86.112 0, 86.112 0, 64.584 10.62, 64.584 10.62, 43.056 0, 43.056 0, 21.528 10.62, 21.528 "/> 
</g>
<!-- Bottom--> 
<g transform="translate(570.2399999999999, 583.74) " > 
<polygon style="stroke:#000000; fill:none; stroke-width:0.9" points="10.62, 10.62 24.434999999999988, 10.62 24.434999999999988, 0 48.869999999999976, 0 48.869999999999976, 10.62 66.86999999999998, 10.62 66.86999999999998, 0 84.86999999999998, 0 84.86999999999998, 10.62 102.86999999999998, 10.62 102.86999999999998, 0 120.86999999999998, 0 120.86999999999998, 10.62 138.86999999999998, 10.62 138.86999999999998, 0 156.86999999999998, 0 156.86999999999998, 10.62 174.86999999999998, 10.62 174.86999999999998, 0 192.86999999999998, 0 192.86999999999998, 10.62 210.86999999999998, 10.62 210.86999999999998, 0 228.86999999999998, 0 228.86999999999998, 10.62 246.86999999999998, 10.62 246.86999999999998, 0 264.87, 0 264.87, 10.62 282.87, 10.62 282.87, 0 300.87, 0 300.87, 10.62 318.87, 10.62 318.87, 0 336.87, 0 336.87, 10.62 354.87, 10.62 354.87, 0 372.87, 0 372.87, 10.62 390.87, 10.62 390.87, 0 408.87, 0 408.87, 10.62 426.87, 10.62 426.87, 0 444.87, 0 444.87, 10.62 462.87, 10.62 462.87, 0 480.87, 0 480.87, 10.62 498.87, 10.62 498.87, 0 523.305, 0 523.305, 10.62 537.1199999999999, 10.62 537.1199999999999, 21.528 547.7399999999999, 21.528 547.7399999999999, 43.056 537.1199999999999, 43.056 537.1199999999999, 64.584 547.7399999999999, 64.584 547.7399999999999, 86.112 537.1199999999999, 86.112 537.12, 97.02 523.305, 97.02 523.305, 107.64 498.87, 107.64 498.87, 97.02 480.87, 97.02 480.87, 107.64 462.87, 107.64 462.87, 97.02 444.87, 97.02 444.87, 107.64 426.87, 107.64 426.87, 97.02 408.87, 97.02 408.87, 107.64 390.87, 107.64 390.87, 97.02 372.87, 97.02 372.87, 107.64 354.87, 107.64 354.87, 97.02 336.87, 97.02 336.87, 107.64 318.87, 107.64 318.87, 97.02 300.87, 97.02 300.87, 107.64 282.87, 107.64 282.87, 97.02 264.87, 97.02 264.87, 107.64 246.86999999999998, 107.64 246.86999999999998, 97.02 228.86999999999998, 97.02 228.86999999999998, 107.64 210.86999999999998, 107.64 210.86999999999998, 97.02 192.86999999999998, 97.02 192.86999999999998, 107.64 174.86999999999998, 107.64 174.86999999999998, 97.02 156.86999999999998, 97.02 156.86999999999998, 107.64 138.86999999999998, 107.64 138.86999999999998, 97.02 120.86999999999998, 97.02 120.86999999999998, 107.64 102.86999999999998, 107.64 102.86999999999998, 97.02 84.86999999999998, 97.02 84.86999999999998, 107.64 66.86999999999998, 107.64 66.86999999999998, 97.02 48.869999999999976, 97.02 48.869999999999976, 107.64 24.434999999999988, 107.64 24.434999999999988, 97.02 10.62, 97.01999999999998 10.62, 86.112 0, 86.112 0, 64.584 10.62, 64.584 10.62, 43.056 0, 43.056 0, 21.528 10.62, 21.528 "/> 
</g></svg>