<?xml version="1.0" encoding="UTF-8" standalone="no"?>
<!-- Created with Inkscape (http://www.inkscape.org/) -->

<svg
   xmlns:dc="http://purl.org/dc/elements/1.1/"
   xmlns:cc="http://creativecommons.org/ns#"
   xmlns:rdf="http://www.w3.org/1999/02/22-rdf-syntax-ns#"
   xmlns:svg="http://www.w3.org/2000/svg"
   xmlns="http://www.w3.org/2000/svg"
   xmlns:sodipodi="http://sodipodi.sourceforge.net/DTD/sodipodi-0.dtd"
   xmlns:inkscape="http://www.inkscape.org/namespaces/inkscape"
   id="svg2"
   version="1.1"
   inkscape:version="0.48.4 r9939"
   width="708.66248"
   height="744.09998"
   xml:space="preserve"
   sodipodi:docname="Flex_Box_v3.svg"><metadata
     id="metadata8"><rdf:RDF><cc:Work
         rdf:about=""><dc:format>image/svg+xml</dc:format><dc:type
           rdf:resource="http://purl.org/dc/dcmitype/StillImage" /><dc:title></dc:title></cc:Work></rdf:RDF></metadata><defs
     id="defs6"><clipPath
       clipPathUnits="userSpaceOnUse"
       id="clipPath1038"><path
         d="m 0,595.28 566.93,0 L 566.93,0 0,0 0,595.28 z"
         id="path1040"
         inkscape:connector-curvature="0" /></clipPath></defs><sodipodi:namedview
     pagecolor="#ffffff"
     bordercolor="#666666"
     borderopacity="1"
     objecttolerance="10"
     gridtolerance="10"
     guidetolerance="10"
     inkscape:pageopacity="0"
     inkscape:pageshadow="2"
     inkscape:window-width="1600"
     inkscape:window-height="876"
     id="namedview4"
     showgrid="false"
     inkscape:document-units="mm"
     units="mm"
     inkscape:zoom="1.0072942"
     inkscape:cx="180.38342"
     inkscape:cy="372.06072"
     inkscape:window-x="0"
     inkscape:window-y="24"
     inkscape:window-maximized="1"
     inkscape:current-layer="g10" /><g
     id="g10"
     inkscape:groupmode="layer"
     inkscape:label="Flex_Box_v3"
     transform="matrix(1.25,0,0,-1.25,0,744.09997)"
     style="display:inline"><g
       id="g12"
       transform="translate(8.5039,578.2725)" /><g
       id="g16"
       transform="translate(408.1895,221.1074)" /><g
       id="g20"
       transform="translate(391.1807,586.7764)" /><g
       id="g24"
       transform="translate(68.0317,310.3984)" /><g
       id="g28"
       transform="translate(76.5356,310.3984)" /><g
       id="g32"
       transform="translate(144.5669,310.3984)" /><g
       id="g36"
       transform="translate(212.5986,310.3984)" /><g
       id="g40"
       transform="translate(280.6299,310.3984)" /><g
       id="g44"
       transform="translate(348.6611,310.3984)" /><g
       id="g48"
       transform="translate(408.1895,306.1465)" /><g
       id="g52"
       transform="translate(365.6699,306.1465)" /><g
       id="g56"
       transform="translate(306.1416,306.1465)" /><g
       id="g60"
       transform="translate(238.1104,306.1465)" /><g
       id="g64"
       transform="translate(170.0791,306.1465)" /><g
       id="g68"
       transform="translate(102.0474,306.1465)" /><g
       id="g72"
       transform="translate(42.52,306.1465)" /><g
       id="g76"
       transform="translate(68.0317,301.8945)" /><g
       id="g80"
       transform="translate(76.5356,301.8945)" /><g
       id="g84"
       transform="translate(144.5669,301.8945)" /><g
       id="g88"
       transform="translate(212.5986,301.8945)" /><g
       id="g92"
       transform="translate(280.6299,301.8945)" /><g
       id="g96"
       transform="translate(348.6611,301.8945)" /><g
       id="g100"
       transform="translate(408.1895,297.6426)" /><g
       id="g104"
       transform="translate(365.6699,297.6426)" /><g
       id="g108"
       transform="translate(306.1416,297.6426)" /><g
       id="g112"
       transform="translate(238.1104,297.6426)" /><g
       id="g116"
       transform="translate(170.0791,297.6426)" /><g
       id="g120"
       transform="translate(102.0474,297.6426)" /><g
       id="g124"
       transform="translate(42.52,297.6426)" /><g
       id="g128"
       transform="translate(68.0317,318.9023)" /><g
       id="g132"
       transform="translate(76.5356,318.9023)" /><g
       id="g136"
       transform="translate(144.5669,318.9023)" /><g
       id="g140"
       transform="translate(212.5986,318.9023)" /><g
       id="g144"
       transform="translate(280.6299,318.9023)" /><g
       id="g148"
       transform="translate(348.6611,318.9023)" /><g
       id="g152"
       transform="translate(408.1895,314.6504)" /><g
       id="g156"
       transform="translate(365.6699,314.6504)" /><g
       id="g160"
       transform="translate(306.1416,314.6504)" /><g
       id="g164"
       transform="translate(238.1104,314.6504)" /><g
       id="g168"
       transform="translate(170.0791,314.6504)" /><g
       id="g172"
       transform="translate(102.0474,314.6504)" /><g
       id="g176"
       transform="translate(42.52,314.6504)" /><g
       id="g180"
       transform="translate(68.0317,284.8867)" /><g
       id="g184"
       transform="translate(76.5356,284.8867)" /><g
       id="g188"
       transform="translate(144.5669,284.8867)" /><g
       id="g192"
       transform="translate(212.5986,284.8867)" /><g
       id="g196"
       transform="translate(280.6299,284.8867)" /><g
       id="g200"
       transform="translate(348.6611,284.8867)" /><g
       id="g204"
       transform="translate(408.1895,280.6348)" /><g
       id="g208"
       transform="translate(365.6699,280.6348)" /><g
       id="g212"
       transform="translate(306.1416,280.6348)" /><g
       id="g216"
       transform="translate(238.1104,280.6348)" /><g
       id="g220"
       transform="translate(170.0791,280.6348)" /><g
       id="g224"
       transform="translate(102.0474,280.6348)" /><g
       id="g228"
       transform="translate(42.52,280.6348)" /><g
       id="g232"
       transform="translate(68.0317,276.3828)" /><g
       id="g236"
       transform="translate(76.5356,276.3828)" /><g
       id="g240"
       transform="translate(144.5669,276.3828)" /><g
       id="g244"
       transform="translate(212.5986,276.3828)" /><g
       id="g248"
       transform="translate(280.6299,276.3828)" /><g
       id="g252"
       transform="translate(348.6611,276.3828)" /><g
       id="g256"
       transform="translate(408.1895,272.1309)" /><g
       id="g260"
       transform="translate(365.6699,272.1309)" /><g
       id="g264"
       transform="translate(306.1416,272.1309)" /><g
       id="g268"
       transform="translate(238.1104,272.1309)" /><g
       id="g272"
       transform="translate(170.0791,272.1309)" /><g
       id="g276"
       transform="translate(102.0474,272.1309)" /><g
       id="g280"
       transform="translate(42.52,272.1309)" /><g
       id="g284"
       transform="translate(68.0317,293.3906)" /><g
       id="g288"
       transform="translate(76.5356,293.3906)" /><g
       id="g292"
       transform="translate(144.5669,293.3906)" /><g
       id="g296"
       transform="translate(212.5986,293.3906)" /><g
       id="g300"
       transform="translate(280.6299,293.3906)" /><g
       id="g304"
       transform="translate(348.6611,293.3906)" /><g
       id="g308"
       transform="translate(408.1895,289.1387)" /><g
       id="g312"
       transform="translate(365.6699,289.1387)" /><g
       id="g316"
       transform="translate(306.1416,289.1387)" /><g
       id="g320"
       transform="translate(238.1104,289.1387)" /><g
       id="g324"
       transform="translate(170.0791,289.1387)" /><g
       id="g328"
       transform="translate(102.0474,289.1387)" /><g
       id="g332"
       transform="translate(42.52,289.1387)" /><g
       id="g336"
       transform="translate(68.0317,259.375)" /><g
       id="g340"
       transform="translate(76.5356,259.375)" /><g
       id="g344"
       transform="translate(144.5669,259.375)" /><g
       id="g348"
       transform="translate(212.5986,259.375)" /><g
       id="g352"
       transform="translate(280.6299,259.375)" /><g
       id="g356"
       transform="translate(348.6611,259.375)" /><g
       id="g360"
       transform="translate(408.1895,331.6582)" /><g
       id="g364"
       transform="translate(365.6699,331.6582)" /><g
       id="g368"
       transform="translate(306.1416,331.6582)" /><g
       id="g372"
       transform="translate(238.1104,331.6582)" /><g
       id="g376"
       transform="translate(170.0791,331.6582)" /><g
       id="g380"
       transform="translate(102.0474,331.6582)" /><g
       id="g384"
       transform="translate(42.52,331.6582)" /><g
       id="g388"
       transform="translate(68.0317,327.4063)" /><g
       id="g392"
       transform="translate(76.5356,327.4063)" /><g
       id="g396"
       transform="translate(144.5669,327.4063)" /><g
       id="g400"
       transform="translate(212.5986,327.4063)" /><g
       id="g404"
       transform="translate(280.6299,327.4063)" /><g
       id="g408"
       transform="translate(348.6611,327.4063)" /><g
       id="g412"
       transform="translate(408.1895,323.1543)" /><g
       id="g416"
       transform="translate(365.6699,323.1543)" /><g
       id="g420"
       transform="translate(306.1416,323.1543)" /><g
       id="g424"
       transform="translate(238.1104,323.1543)" /><g
       id="g428"
       transform="translate(170.0791,323.1543)" /><g
       id="g432"
       transform="translate(102.0474,323.1543)" /><g
       id="g436"
       transform="translate(42.52,323.1543)" /><g
       id="g440"
       transform="translate(68.0317,267.8789)" /><g
       id="g444"
       transform="translate(76.5356,267.8789)" /><g
       id="g448"
       transform="translate(144.5669,267.8789)" /><g
       id="g452"
       transform="translate(212.5986,267.8789)" /><g
       id="g456"
       transform="translate(280.6299,267.8789)" /><g
       id="g460"
       transform="translate(348.6611,267.8789)" /><g
       id="g464"
       transform="translate(408.1895,263.627)" /><g
       id="g468"
       transform="translate(365.6699,263.627)" /><g
       id="g472"
       transform="translate(306.1416,263.627)" /><g
       id="g476"
       transform="translate(238.1104,263.627)" /><g
       id="g480"
       transform="translate(170.0791,263.627)" /><g
       id="g484"
       transform="translate(102.0474,263.627)" /><g
       id="g488"
       transform="translate(42.52,263.627)" /><g
       id="g492"
       transform="translate(408.1895,221.1074)" /><g
       id="g496"
       transform="translate(399.6846,221.1074)" /><g
       id="g500"
       transform="translate(399.6846,187.0908)" /><g
       id="g504"
       transform="translate(408.1895,153.0752)" /><g
       id="g508"
       transform="translate(399.6846,153.0752)" /><g
       id="g512"
       transform="translate(399.6846,119.0596)" /><g
       id="g516"
       transform="translate(408.1895,85.0439)" /><g
       id="g520"
       transform="translate(399.6846,85.0439)" /><g
       id="g524"
       transform="translate(399.6846,51.0283)" /><g
       id="g528"
       transform="translate(408.1895,17.0127)" /><g
       id="g532"
       transform="translate(371.8535,17.0127)" /><g
       id="g536"
       transform="translate(335.5186,17.0127)" /><g
       id="g540"
       transform="translate(299.1836,17.0127)" /><g
       id="g544"
       transform="translate(335.5186,17.0127)" /><g
       id="g548"
       transform="translate(262.8491,17.0127)" /><g
       id="g552"
       transform="translate(226.5142,17.0127)" /><g
       id="g556"
       transform="translate(262.519,17.0127)" /><g
       id="g560"
       transform="translate(190.1792,17.0127)" /><g
       id="g564"
       transform="translate(190.1792,17.0127)" /><g
       id="g568"
       transform="translate(117.5088,17.0127)" /><g
       id="g572"
       transform="translate(81.1743,17.0127)" /><g
       id="g576"
       transform="translate(117.5088,17.0127)" /><g
       id="g580"
       transform="translate(44.8389,17.0127)" /><g
       id="g584"
       transform="translate(44.8389,17.0127)" /><g
       id="g588"
       transform="translate(44.8389,8.5088)" /><g
       id="g592"
       transform="translate(117.5088,8.5088)" /><g
       id="g596"
       transform="translate(190.1792,8.5088)" /><g
       id="g600"
       transform="translate(262.8491,8.5088)" /><g
       id="g604"
       transform="translate(335.5186,8.5088)" /><g
       id="g608"
       transform="translate(408.1895,187.0908)" /><g
       id="g612"
       transform="translate(408.1895,119.0596)" /><g
       id="g616"
       transform="translate(408.1895,51.0283)" /><g
       id="g620"
       transform="translate(17.0088,221.1074)" /><g
       id="g624"
       transform="translate(8.5039,187.0908)" /><g
       id="g628"
       transform="translate(17.0088,153.0752)" /><g
       id="g632"
       transform="translate(8.5039,119.0596)" /><g
       id="g636"
       transform="translate(17.0088,85.0439)" /><g
       id="g640"
       transform="translate(8.5039,51.0283)" /><g
       id="g644"
       transform="translate(17.0088,221.1074)" /><g
       id="g648"
       transform="translate(17.0088,153.0752)" /><g
       id="g652"
       transform="translate(17.0088,85.0439)" /><g
       id="g656"
       transform="translate(8.5039,17.0127)" /><g
       id="g660"
       transform="translate(8.5039,85.0439)" /><g
       id="g664"
       transform="translate(8.5039,153.0752)" /><g
       id="g668"
       transform="translate(153.8442,17.0127)" /><g
       id="g686"
       transform="translate(518.7393,182.8389)" /><g
       id="g690"
       transform="translate(552.7549,199.8467)" /><g
       id="g694"
       transform="translate(518.7393,582.5239)" /><g
       id="g698"
       transform="translate(535.7471,191.3428)" /><g
       id="g702"
       transform="translate(518.7393,182.8389)" /><g
       id="g706"
       transform="translate(518.7393,191.3428)" /><g
       id="g710"
       transform="translate(535.7471,182.8389)" /><g
       id="g714"
       transform="translate(493.2275,582.5244)" /><g
       id="g718"
       transform="translate(493.2275,546.1885)" /><g
       id="g722"
       transform="translate(493.2275,509.8535)" /><g
       id="g726"
       transform="translate(493.2275,473.5186)" /><g
       id="g730"
       transform="translate(493.2275,509.8535)" /><g
       id="g734"
       transform="translate(493.2275,437.1846)" /><g
       id="g738"
       transform="translate(493.2275,400.8486)" /><g
       id="g742"
       transform="translate(493.2275,437.1846)" /><g
       id="g746"
       transform="translate(493.2275,364.5146)" /><g
       id="g750"
       transform="translate(493.2275,328.1787)" /><g
       id="g754"
       transform="translate(493.2275,364.5146)" /><g
       id="g758"
       transform="translate(493.2275,291.8438)" /><g
       id="g762"
       transform="translate(493.2275,255.5088)" /><g
       id="g766"
       transform="translate(493.2275,291.8438)" /><g
       id="g770"
       transform="translate(493.2275,219.1738)" /><g
       id="g774"
       transform="translate(493.2275,219.1738)" /><g
       id="g778"
       transform="translate(501.7314,219.1738)" /><g
       id="g782"
       transform="translate(501.7314,291.8438)" /><g
       id="g786"
       transform="translate(501.7314,364.5146)" /><g
       id="g790"
       transform="translate(501.7314,437.1846)" /><g
       id="g794"
       transform="translate(501.7314,509.8535)" /><g
       id="g798"
       transform="translate(535.7471,582.5239)" /><g
       id="g802"
       transform="translate(518.7393,574.02)" /><g
       id="g806"
       transform="translate(518.7393,574.02)" /><g
       id="g810"
       transform="translate(535.7471,582.5239)" /><g
       id="g814"
       transform="translate(552.7549,582.5244)" /><g
       id="g818"
       transform="translate(561.2588,582.5239)" /><g
       id="g822"
       transform="translate(561.2588,565.5156)" /><g
       id="g826"
       transform="translate(552.7549,182.8389)" /><g
       id="g830"
       transform="translate(561.2588,182.8389)" /><g
       id="g834"
       transform="translate(561.2588,199.8467)"
       style="stroke:#0000ff;stroke-opacity:1;stroke-width:1.6;stroke-miterlimit:4;stroke-dasharray:none"><path
         id="path836"
         style="fill:none;stroke:#0000ff;stroke-width:1.6;stroke-linecap:round;stroke-linejoin:round;stroke-miterlimit:4;stroke-opacity:1;stroke-dasharray:none"
         d="m -25.5117,382.6772 10e-5,-8.50395 -17.0079,5e-5 0,8.50395 -25.5119,2e-4 1e-4,-36.3357 8.50395,5e-5 0,-36.335 -8.50395,0 0,-36.33495 8.50395,5e-5 0,-36.334 -8.50395,0 0,-36.336 8.50395,0 0,-36.334 -8.50395,0 0,-36.33595 8.50395,1e-4 0,-36.33495 -8.50395,0 0,-36.335 8.50395,0 0,-36.335 -8.50395,0 -1e-4,-36.33495 25.5119,5e-5 0,8.50395 17.0079,-5e-5 -10e-5,-8.50395 17.0079,5e-5 8.50385,0 L 0,1e-4 -8.50395,0 l 0,365.66895 8.50395,1e-4 5e-5,17.0084 -8.50385,0 z"
         inkscape:connector-curvature="0"
         sodipodi:nodetypes="ccccccccccccccccccccccccccccccccccccccc" /></g><g
       id="g838"
       transform="translate(8.5039,578.2725)" /><g
       id="g842"
       transform="translate(25.5117,578.2725)" /><g
       id="g846"
       transform="translate(408.1895,578.2725)" /><g
       id="g850"
       transform="translate(391.1807,578.2725)"
       style="stroke:#ff0000;stroke-opacity:1;stroke-width:1.6;stroke-miterlimit:4;stroke-dasharray:none"><path
         id="path852"
         style="fill:none;stroke:#ff0000;stroke-width:1.6;stroke-linecap:round;stroke-linejoin:round;stroke-miterlimit:4;stroke-opacity:1;stroke-dasharray:none"
         d="m -91.99735,-569.76375 2.5e-4,8.50395 36.335,0 0,-8.50395 36.33495,0 -5e-5,8.50395 36.336,-2e-4 5e-5,34.0158 -8.50495,-2e-4 -5e-5,34.0158 8.50495,-1.5e-4 5e-5,34.01585 -8.50495,-2e-4 -5e-5,34.0158 8.50495,-2e-4 5e-5,34.0158 -8.50495,-2e-4 -5e-5,34.0168 8.50495,0 0,357.16505 L -1e-4,0 0,8.50395 l -365.669,0 10e-5,-8.50395 -17.0079,0 -5e-5,-357.16505 8.50495,-5e-5 5e-5,-34.0168 -8.50495,4e-4 -5e-5,-34.0158 8.50495,0 5e-5,-34.0158 -8.50495,3.5e-4 -5e-5,-34.01585 8.50495,0 5e-5,-34.0158 -8.50495,4e-4 0,-34.0158 36.335,0 0,-8.50395 36.3352,0 4.5e-4,8.50395 36.33425,0 0,-8.50395 36.3352,0.038 2e-4,8.46595 36.335,0 0,-8.50395 36.335,0 -5e-5,8.50395 36.1699,0 0,-8.50395 z"
         inkscape:connector-curvature="0"
         sodipodi:nodetypes="ccccccccccccccccccccccccccccccccccccccccccccccccccccc" /></g><g
       id="g854"
       transform="translate(408.1895,340.1621)" /><g
       id="g858"
       transform="translate(365.6699,340.1621)" /><g
       id="g862"
       transform="translate(306.1416,340.1621)" /><g
       id="g866"
       transform="translate(238.1104,340.1621)" /><g
       id="g870"
       transform="translate(170.0791,340.1621)" /><g
       id="g874"
       transform="translate(102.0474,340.1621)" /><g
       id="g878"
       transform="translate(42.52,340.1621)" /><g
       id="g882"
       transform="translate(68.0317,335.9102)" /><g
       id="g886"
       transform="translate(76.5356,335.9102)" /><g
       id="g890"
       transform="translate(144.5669,335.9102)" /><g
       id="g894"
       transform="translate(212.5986,335.9102)" /><g
       id="g898"
       transform="translate(280.6299,335.9102)" /><g
       id="g902"
       transform="translate(348.6611,335.9102)" /><g
       id="g906"
       transform="translate(408.1895,255.123)" /><g
       id="g910"
       transform="translate(365.6699,255.123)" /><g
       id="g914"
       transform="translate(306.1416,255.123)" /><g
       id="g918"
       transform="translate(238.1104,255.123)" /><g
       id="g922"
       transform="translate(170.0791,255.123)" /><g
       id="g926"
       transform="translate(102.0474,255.123)" /><g
       id="g930"
       transform="translate(42.52,255.123)" /><g
       id="g934"
       transform="translate(68.0317,250.8711)" /><g
       id="g938"
       transform="translate(76.5356,250.8711)" /><g
       id="g942"
       transform="translate(144.5669,250.8711)" /><g
       id="g946"
       transform="translate(212.5986,250.8711)" /><g
       id="g950"
       transform="translate(280.6299,250.8711)" /><g
       id="g954"
       transform="translate(348.6611,250.8711)" /><g
       id="g958"
       transform="translate(425.1963,208.3496)" /><g
       id="g962"
       transform="translate(484.7236,276.3828)" /><g
       id="g966"
       transform="translate(450.708,38.2715)" /><g
       id="g970"
       transform="translate(433.7012,242.3662)" /><g
       id="g974"
       transform="translate(425.1963,208.3496)" /><g
       id="g978"
       transform="translate(433.7012,174.334)" /><g
       id="g982"
       transform="translate(425.1963,140.3184)" /><g
       id="g986"
       transform="translate(433.7012,106.3027)" /><g
       id="g990"
       transform="translate(425.1963,72.2871)" /><g
       id="g994"
       transform="translate(433.7012,38.2715)" /><g
       id="g998"
       transform="translate(433.7012,106.3027)" /><g
       id="g1002"
       transform="translate(433.7012,174.334)" /><g
       id="g1006"
       transform="translate(433.7012,242.3662)" /><g
       id="g1010"
       transform="translate(425.1963,140.3184)" /><g
       id="g1014"
       transform="translate(425.1963,72.2871)" /><g
       id="g1018"
       transform="translate(467.7158,38.2725)" /><g
       id="g1022"
       transform="translate(467.7158,29.7686)" /><g
       id="g1026"
       transform="translate(450.708,29.7686)" /><g
       id="g1030"
       transform="translate(467.7158,38.2725)" /><g
       id="g1042"
       transform="translate(433.7002,276.3828)" /><g
       id="g1046"
       transform="translate(484.7227,276.3828)"
       style="stroke:#0000ff;stroke-opacity:1;stroke-width:1.6;stroke-miterlimit:4;stroke-dasharray:none"><path
         id="path1048"
         style="fill:none;stroke:#0000ff;stroke-width:1.6;stroke-linecap:round;stroke-linejoin:round;stroke-miterlimit:4;stroke-opacity:1;stroke-dasharray:none"
         d="m -51.0216,-238.1113 1.5e-4,34.0158 -8.50495,-2e-4 -5e-5,34.0158 8.50495,-2e-4 5e-5,34.01585 -8.50495,-1.5e-4 -5e-5,34.0158 8.50495,-2e-4 5e-5,34.0158 -8.50495,-2e-4 -5e-5,34.0168 8.50495,-2e-4 -5e-4,34.0168 C -51.0225,14.102 -39.6125,25.512 -25.51075,25.512 -11.41,25.512 0,14.102 4.5e-4,0 l 5.5e-4,-238.11115 -17.0079,8.5e-4 0,-8.50395 -17.0079,5e-5 1e-4,8.50345 z"
         inkscape:connector-curvature="0"
         sodipodi:nodetypes="cccccccccccccccccccccc" /></g><g
       id="g1058"
       transform="translate(425.1963,488.9795)" /><g
       id="g1062"
       transform="translate(484.7236,557.0127)" /><g
       id="g1066"
       transform="translate(450.708,318.9014)" /><g
       id="g1070"
       transform="translate(433.7012,522.9961)" /><g
       id="g1074"
       transform="translate(425.1963,488.9795)" /><g
       id="g1078"
       transform="translate(433.7012,454.9639)" /><g
       id="g1082"
       transform="translate(425.1963,420.9482)" /><g
       id="g1086"
       transform="translate(433.7012,386.9326)" /><g
       id="g1090"
       transform="translate(425.1963,352.917)" /><g
       id="g1094"
       transform="translate(433.7012,318.9014)" /><g
       id="g1098"
       transform="translate(433.7012,386.9326)" /><g
       id="g1102"
       transform="translate(433.7012,454.9639)" /><g
       id="g1106"
       transform="translate(433.7012,522.9961)" /><g
       id="g1110"
       transform="translate(425.1963,420.9482)" /><g
       id="g1114"
       transform="translate(425.1963,352.917)" /><g
       id="g1118"
       transform="translate(467.7158,318.9023)" /><g
       id="g1122"
       transform="translate(467.7158,310.3984)" /><g
       id="g1126"
       transform="translate(450.708,310.3984)" /><g
       id="g1130"
       transform="translate(467.7158,318.9023)" /><g
       id="g1134"
       transform="translate(433.7002,557.0127)" /><g
       id="g1138"
       transform="translate(484.7227,557.0127)"
       style="stroke:#0000ff;stroke-opacity:1;stroke-width:1.6;stroke-miterlimit:4;stroke-dasharray:none"><path
         id="path1140"
         style="fill:none;stroke:#0000ff;stroke-width:1.6;stroke-linecap:round;stroke-linejoin:round;stroke-miterlimit:4;stroke-opacity:1;stroke-dasharray:none"
         d="M -51.022,2e-4 C -51.0225,14.102 -39.6125,25.512 -25.51075,25.512 -11.41,25.512 0,14.102 4.5e-4,0 l 5.5e-4,-238.1112 -17.0079,8e-4 0,-8.50395 -17.0079,5e-5 1e-4,8.5035 -17.0069,-5e-4 1.5e-4,34.0158 -8.50495,-2e-4 -5e-5,34.0158 8.50495,-2e-4 5e-5,34.0158 -8.50495,-2e-4 -5e-5,34.01585 8.50495,-1.5e-4 5e-5,34.0158 -8.50495,-2e-4 -5e-5,34.0168 8.50495,-2e-4 z"
         inkscape:connector-curvature="0"
         sodipodi:nodetypes="cccccccccccccccccccccc" /></g></g><g
     inkscape:groupmode="layer"
     id="layer3"
     inkscape:label="Decoration"
     style="display:inline"><path
       d="m 100.985,95.668721 -31.89,0 0,-10.63 31.89,0 0,10.63 z"
       style="fill:none;stroke:#ff0000;stroke-width:2;stroke-linecap:round;stroke-linejoin:round;stroke-miterlimit:10;stroke-opacity:1;stroke-dasharray:none;display:inline"
       id="path672"
       inkscape:connector-curvature="0" /><path
       d="m 212.59875,116.92997 -85.04,0 0,-10.63 85.04,0 0,10.63 z"
       style="fill:none;stroke:#ff0000;stroke-width:2;stroke-linecap:round;stroke-linejoin:round;stroke-miterlimit:10;stroke-opacity:1;stroke-dasharray:none;display:inline"
       id="path674"
       inkscape:connector-curvature="0" /><path
       d="m 170.07875,138.18872 -85.04,0 0,-10.63 85.04,0 0,10.63 z"
       style="fill:none;stroke:#ff0000;stroke-width:2;stroke-linecap:round;stroke-linejoin:round;stroke-miterlimit:10;stroke-opacity:1;stroke-dasharray:none;display:inline"
       id="path676"
       inkscape:connector-curvature="0" /><path
       d="m 212.59875,159.44872 -85.04,0 0,-10.63 85.04,0 0,10.63 z"
       style="fill:none;stroke:#ff0000;stroke-width:2;stroke-linecap:round;stroke-linejoin:round;stroke-miterlimit:10;stroke-opacity:1;stroke-dasharray:none;display:inline"
       id="path678"
       inkscape:connector-curvature="0" /><path
       d="m 265.74875,138.18872 -85.04,0 0,-10.63 85.04,0 0,10.63 z"
       style="fill:none;stroke:#ff0000;stroke-width:2;stroke-linecap:round;stroke-linejoin:round;stroke-miterlimit:10;stroke-opacity:1;stroke-dasharray:none;display:inline"
       id="path680"
       inkscape:connector-curvature="0" /><path
       d="m 308.2675,116.92997 -85.04,0 0,-10.63 85.04,0 0,10.63 z"
       style="fill:none;stroke:#ff0000;stroke-width:2;stroke-linecap:round;stroke-linejoin:round;stroke-miterlimit:10;stroke-opacity:1;stroke-dasharray:none;display:inline"
       id="path682"
       inkscape:connector-curvature="0" /><path
       d="m 116.92875,116.92872 -21.26,0 0,-10.63 21.26,0 0,10.63 z"
       style="fill:none;stroke:#ff0000;stroke-width:2;stroke-linecap:round;stroke-linejoin:round;stroke-miterlimit:10;stroke-opacity:1;stroke-dasharray:none;display:inline"
       id="path684"
       inkscape:connector-curvature="0" /></g><g
     inkscape:groupmode="layer"
     id="layer2"
     inkscape:label="Hinge"
     style="display:inline"><path
       inkscape:connector-curvature="0"
       id="path956"
       style="fill:none;stroke:#ff0000;stroke-width:2;stroke-linecap:round;stroke-linejoin:round;stroke-miterlimit:10;stroke-opacity:1;stroke-dasharray:none;display:inline"
       d="m 435.82638,430.51109 63.78,0 m -148.819,0 74.40875,0 m -159.44788,0 74.40875,0 m -159.44837,0 74.41,0 m -159.44913,0 74.40875,0 m -85.038625,0 -63.78,0 M 53.15,425.19622 l -42.52,0 m 116.92925,0 -63.77875,0 m 148.81838,0 -74.41,0 m 159.44912,0 -74.40875,0 m 159.44775,0 -74.40875,0 m 148.81913,0 -63.78,0 m 116.9295,0 -42.52,0 m -31.8905,-100.984 63.78,0 m -148.819,0 74.40875,0 m -159.44788,0 74.40875,0 m -159.44837,0 74.41,0 m -159.44913,0 74.40875,0 m -85.038625,0 -63.78,0 M 53.15,318.89734 l -42.52,0 m 116.92925,0 -63.77875,0 m 148.81838,0 -74.41,0 m 159.44912,0 -74.40875,0 m 159.44775,0 -74.40875,0 m 148.81913,0 -63.78,0 m 116.9295,0 -42.52,0 M 53.15,414.56622 l -42.52,0 m 116.92925,0 -63.77875,0 m 148.81838,0 -74.41,0 m 159.44912,0 -74.40875,0 m 159.44775,0 -74.40875,0 m 148.81913,0 -63.78,0 m 116.9295,0 -42.52,0 m -31.8905,-5.31488 63.78,0 m -148.819,0 74.40875,0 m -159.44788,0 74.40875,0 m -159.44837,0 74.41,0 m -159.44913,0 74.40875,0 m -85.038625,0 -63.78,0 M 53.15,340.15709 l -42.52,0 m 116.92925,0 -63.77875,0 m 148.81838,0 -74.41,0 m 159.44912,0 -74.40875,0 m 159.44775,0 -74.40875,0 m 148.81913,0 -63.78,0 m 116.9295,0 -42.52,0 m -31.8905,-5.315 63.78,0 m -148.819,0 74.40875,0 m -159.44788,0 74.40875,0 m -159.44837,0 74.41,0 m -159.44913,0 74.40875,0 m -85.038625,0 -63.78,0 M 53.15,329.52722 l -42.52,0 m 116.92925,0 -63.77875,0 m 148.81838,0 -74.41,0 m 159.44912,0 -74.40875,0 m 159.44775,0 -74.40875,0 m 148.81913,0 -63.78,0 m 116.9295,0 -42.52,0 m -31.8905,90.354 63.78,0 m -148.819,0 74.40875,0 m -159.44788,0 74.40875,0 m -159.44837,0 74.41,0 m -159.44913,0 74.40875,0 m -85.038625,0 -63.78,0 M 53.15,382.67659 l -42.52,0 m 116.92925,0 -63.77875,0 m 148.81838,0 -74.41,0 m 159.44912,0 -74.40875,0 m 159.44775,0 -74.40875,0 m 148.81913,0 -63.78,0 m 116.9295,0 -42.52,0 m -31.8905,-5.31487 63.78,0 m -148.819,0 74.40875,0 m -159.44788,0 74.40875,0 m -159.44837,0 74.41,0 m -159.44913,0 74.40875,0 m -85.038625,0 -63.78,0 M 53.15,403.93634 l -42.52,0 m 116.92925,0 -63.77875,0 m 148.81838,0 -74.41,0 m 159.44912,0 -74.40875,0 m 159.44775,0 -74.40875,0 m 148.81913,0 -63.78,0 m 116.9295,0 -42.52,0 m -31.8905,-5.31487 63.78,0 m -148.819,0 74.40875,0 m -159.44788,0 74.40875,0 m -159.44837,0 74.41,0 m -159.44913,0 74.40875,0 m -85.038625,0 -63.78,0 m 31.890375,-5.315 -42.52,0 m 116.92925,0 -63.77875,0 m 148.81838,0 -74.41,0 m 159.44912,0 -74.40875,0 m 159.44775,0 -74.40875,0 m 148.81913,0 -63.78,0 m 116.9295,0 -42.52,0 m -31.8905,-5.31488 63.78,0 m -148.819,0 74.40875,0 m -159.44788,0 74.40875,0 m -159.44837,0 74.41,0 m -159.44913,0 74.40875,0 m -85.038625,0 -63.78,0 M 53.15,350.78697 l -42.52,0 m 116.92925,0 -63.77875,0 m 148.81838,0 -74.41,0 m 159.44912,0 -74.40875,0 m 159.44775,0 -74.40875,0 m 148.81913,0 -63.78,0 m 116.9295,0 -42.52,0 m -31.8905,-5.31488 63.78,0 m -148.819,0 74.40875,0 m -159.44788,0 74.40875,0 m -159.44837,0 74.41,0 m -159.44913,0 74.40875,0 m -85.038625,0 -63.78,0 M 53.15,372.04672 l -42.52,0 m 116.92925,0 -63.77875,0 m 148.81838,0 -74.41,0 m 159.44912,0 -74.40875,0 m 159.44775,0 -74.40875,0 m 148.81913,0 -63.78,0 m 116.9295,0 -42.52,0 m -31.8905,-5.31488 63.78,0 m -148.819,0 74.40875,0 m -159.44788,0 74.40875,0 m -159.44837,0 74.41,0 m -159.44913,0 74.40875,0 m -85.038625,0 -63.78,0 m 31.890375,-5.315 -42.52,0 m 116.92925,0 -63.77875,0 m 148.81838,0 -74.41,0 m 159.44912,0 -74.40875,0 m 159.44775,0 -74.40875,0 m 148.81913,0 -63.78,0 m 116.9295,0 -42.52,0 m -31.8905,-5.31487 63.78,0 m -148.819,0 74.40875,0 m -159.44788,0 74.40875,0 m -159.44837,0 74.41,0 m -159.44913,0 74.40875,0 m -85.038625,0 -63.78,0" /></g><g
     inkscape:groupmode="layer"
     id="layer1"
     inkscape:label="Holes"
     style="display:inline"><g
       id="g1050"
       transform="matrix(1.25,0,0,-1.25,196.654,680.31459)"
       style="stroke-width:1.60000000000000009;stroke-miterlimit:10;stroke-dasharray:none;stroke:#ff0000;stroke-opacity:1"><path
         d="m 0,0 c 0,-2.349 -1.904,-4.253 -4.252,-4.253 -2.349,0 -4.252,1.904 -4.252,4.253 0,2.349 1.903,4.252 4.252,4.252 C -1.904,4.252 0,2.349 0,0 z"
         style="fill:none;stroke:#ff0000;stroke-width:1.60000000000000009;stroke-linecap:round;stroke-linejoin:round;stroke-miterlimit:10;stroke-opacity:1;stroke-dasharray:none"
         id="path1052"
         inkscape:connector-curvature="0" /></g><g
       id="g1054"
       transform="matrix(1.25,0,0,-1.25,334.8425,680.31459)"
       style="stroke-width:1.60000000000000009;stroke-miterlimit:10;stroke-dasharray:none;stroke:#ff0000;stroke-opacity:1"><path
         d="m 0,0 c 0,-2.349 -1.904,-4.253 -4.252,-4.253 -2.349,0 -4.252,1.904 -4.252,4.253 0,2.349 1.903,4.252 4.252,4.252 C -1.904,4.252 0,2.349 0,0 z"
         style="fill:none;stroke:#ff0000;stroke-width:1.60000000000000009;stroke-linecap:round;stroke-linejoin:round;stroke-miterlimit:10;stroke-opacity:1;stroke-dasharray:none"
         id="path1056"
         inkscape:connector-curvature="0" /></g></g></svg>