  0
SECTION
  2
HEADER
  9
$ACADVER
  1
AC1009
  9
$DWGCODEPAGE
  3
ansi_1252
  9
$INSBASE
 10
0.0
 20
0.0
 30
0.0
  9
$EXTMIN
 10
0.0
 20
0.0
 30
0.0
  9
$EXTMAX
 10
594.0
 20
420.0
 30
0.0
  9
$LIMMIN
 10
0.0
 20
0.0
  9
$LIMMAX
 10
594.0
 20
420.0
  9
$ORTHOMODE
 70
     0
  9
$REGENMODE
 70
     1
  9
$FILLMODE
 70
     1
  9
$QTEXTMODE
 70
     0
  9
$MIRRTEXT
 70
     1
  9
$DRAGMODE
 70
     2
  9
$LTSCALE
 40
1.0
  9
$OSMODE
 70
    37
  9
$ATTMODE
 70
     1
  9
$TEXTSIZE
 40
3.5
  9
$TRACEWID
 40
1.0
  9
$TEXTSTYLE
  7
STANDARD
  9
$CLAYER
  8
0
  9
$CELTYPE
  6
BYLAYER
  9
$CECOLOR
 62
   256
  9
$DIMSCALE
 40
1.0
  9
$DIMASZ
 40
2.5
  9
$DIMEXO
 40
0.625
  9
$DIMDLI
 40
3.75
  9
$DIMRND
 40
0.0
  9
$DIMDLE
 40
0.0
  9
$DIMEXE
 40
1.25
  9
$DIMTP
 40
0.0
  9
$DIMTM
 40
0.0
  9
$DIMTXT
 40
2.5
  9
$DIMCEN
 40
2.5
  9
$DIMTSZ
 40
0.0
  9
$DIMTOL
 70
     0
  9
$DIMLIM
 70
     0
  9
$DIMTIH
 70
     0
  9
$DIMTOH
 70
     0
  9
$DIMSE1
 70
     0
  9
$DIMSE2
 70
     0
  9
$DIMTAD
 70
     1
  9
$DIMZIN
 70
     8
  9
$DIMBLK
  1

  9
$DIMASO
 70
     1
  9
$DIMSHO
 70
     1
  9
$DIMPOST
  1

  9
$DIMAPOST
  1

  9
$DIMALT
 70
     0
  9
$DIMALTD
 70
     3
  9
$DIMALTF
 40
0.0393700787
  9
$DIMLFAC
 40
1.0
  9
$DIMTOFL
 70
     1
  9
$DIMTVP
 40
0.0
  9
$DIMTIX
 70
     0
  9
$DIMSOXD
 70
     0
  9
$DIMSAH
 70
     0
  9
$DIMBLK1
  1

  9
$DIMBLK2
  1

  9
$DIMSTYLE
  2
ISO-25
  9
$DIMCLRD
 70
     0
  9
$DIMCLRE
 70
     0
  9
$DIMCLRT
 70
     0
  9
$DIMTFAC
 40
1.0
  9
$DIMGAP
 40
0.625
  9
$LUNITS
 70
     2
  9
$LUPREC
 70
     4
  9
$SKETCHINC
 40
1.0
  9
$FILLETRAD
 40
10.0
  9
$AUNITS
 70
     0
  9
$AUPREC
 70
     0
  9
$MENU
  1
.
  9
$ELEVATION
 40
0.0
  9
$PELEVATION
 40
0.0
  9
$THICKNESS
 40
0.0
  9
$LIMCHECK
 70
     0
  9
$CHAMFERA
 40
0.0
  9
$CHAMFERB
 40
0.0
  9
$SKPOLY
 70
     0
  9
$TDCREATE
 40
2457880.557636655
  9
$TDUPDATE
 40
2457880.557639224
  9
$TDINDWG
 40
0.0000000116
  9
$TDUSRTIMER
 40
0.0000000116
  9
$USRTIMER
 70
     1
  9
$ANGBASE
 50
0.0
  9
$ANGDIR
 70
     0
  9
$PDMODE
 70
     0
  9
$PDSIZE
 40
0.0
  9
$PLINEWID
 40
0.0
  9
$COORDS
 70
     1
  9
$SPLFRAME
 70
     0
  9
$SPLINETYPE
 70
     6
  9
$SPLINESEGS
 70
     8
  9
$ATTDIA
 70
     0
  9
$ATTREQ
 70
     1
  9
$HANDLING
 70
     1
  9
$HANDSEED
  5
1F1
  9
$SURFTAB1
 70
     6
  9
$SURFTAB2
 70
     6
  9
$SURFTYPE
 70
     6
  9
$SURFU
 70
     6
  9
$SURFV
 70
     6
  9
$UCSNAME
  2

  9
$UCSORG
 10
0.0
 20
0.0
 30
0.0
  9
$UCSXDIR
 10
1.0
 20
0.0
 30
0.0
  9
$UCSYDIR
 10
0.0
 20
1.0
 30
0.0
  9
$PUCSNAME
  2

  9
$PUCSORG
 10
0.0
 20
0.0
 30
0.0
  9
$PUCSXDIR
 10
1.0
 20
0.0
 30
0.0
  9
$PUCSYDIR
 10
0.0
 20
1.0
 30
0.0
  9
$USERI1
 70
     0
  9
$USERI2
 70
     0
  9
$USERI3
 70
     0
  9
$USERI4
 70
     0
  9
$USERI5
 70
     0
  9
$USERR1
 40
0.0
  9
$USERR2
 40
0.0
  9
$USERR3
 40
0.0
  9
$USERR4
 40
0.0
  9
$USERR5
 40
0.0
  9
$WORLDVIEW
 70
     1
  9
$SHADEDGE
 70
     3
  9
$SHADEDIF
 70
    70
  9
$TILEMODE
 70
     1
  9
$MAXACTVP
 70
    64
  9
$PLIMCHECK
 70
     0
  9
$PEXTMIN
 10
0.0
 20
0.0
 30
0.0
  9
$PEXTMAX
 10
594.0
 20
420.0
 30
0.0
  9
$PLIMMIN
 10
0.0
 20
0.0
  9
$PLIMMAX
 10
594.0
 20
420.0
  9
$UNITMODE
 70
     0
  9
$VISRETAIN
 70
     1
  9
$PLINEGEN
 70
     0
  9
$PSLTSCALE
 70
     1
  0
ENDSEC
  0
SECTION
  2
TABLES
  0
TABLE
  2
VPORT
 70
     1
  0
VPORT
  2
*ACTIVE
 70
     0
 10
0.0
 20
0.0
 11
1.0
 21
1.0
 12
344.1869158879
 22
148.5
 13
0.0
 23
0.0
 14
10.0
 24
10.0
 15
10.0
 25
10.0
 16
0.0
 26
0.0
 36
1.0
 17
0.0
 27
0.0
 37
0.0
 40
297.0
 41
1.9729729729
 42
50.0
 43
0.0
 44
0.0
 50
0.0
 51
0.0
 71
     0
 72
   100
 73
     1
 74
     3
 75
     0
 76
     0
 77
     0
 78
     0
  0
ENDTAB
  0
TABLE
  2
LTYPE
 70
     1
  0
LTYPE
  2
CONTINUOUS
 70
     0
  3
Solid line
 72
    65
 73
     0
 40
0.0
  0
ENDTAB
  0
TABLE
  2
LAYER
 70
     1
  0
LAYER
  2
0
 70
     0
 62
     7
  6
CONTINUOUS
  0
ENDTAB
  0
TABLE
  2
STYLE
 70
     1
  0
STYLE
  2
STANDARD
 70
     0
 40
0.0
 41
1.0
 50
0.0
 71
     0
 42
3.5
  3
txt
  4

  0
ENDTAB
  0
TABLE
  2
VIEW
 70
     0
  0
ENDTAB
  0
TABLE
  2
UCS
 70
     0
  0
ENDTAB
  0
TABLE
  2
APPID
 70
     1
  0
APPID
  2
ACAD
 70
     0
  0
ENDTAB
  0
TABLE
  2
DIMSTYLE
 70
     1
  0
DIMSTYLE
  2
ISO-25
 70
     0
  3

  4

  5

  6

  7

 40
1.0
 41
2.5
 42
0.625
 43
3.75
 44
1.25
 45
0.0
 46
0.0
 47
0.0
 48
0.0
140
2.5
141
2.5
142
0.0
143
0.0393700787
144
1.0
145
0.0
146
1.0
147
0.625
 71
     0
 72
     0
 73
     0
 74
     0
 75
     0
 76
     0
 77
     1
 78
     8
170
     0
171
     3
172
     1
173
     0
174
     0
175
     0
176
     0
177
     0
178
     0
  0
ENDTAB
  0
ENDSEC
  0
SECTION
  2
BLOCKS
  0
BLOCK
  8
0
  2
$MODEL_SPACE
 70
     0
 10
0.0
 20
0.0
 30
0.0
  3
$MODEL_SPACE
  1

  0
ENDBLK
  5
21
  8
0
  0
BLOCK
 67
     1
  8
0
  2
$PAPER_SPACE
 70
     0
 10
0.0
 20
0.0
 30
0.0
  3
$PAPER_SPACE
  1

  0
ENDBLK
  5
1D
 67
     1
  8
0
  0
BLOCK
  8
0
  2
SE
 70
     0
 10
0.0
 20
0.0
 30
0.0
  3
SE
  1

  0
INSERT
  5
78
  8
0
  2
SE1
 10
0.0
 20
0.0
 30
0.0
  0
ENDBLK
  5
88
  8
0
  0
BLOCK
  8
0
  2
SE1
 70
     0
 10
0.0
 20
0.0
 30
0.0
  3
SE1
  1

  0
LINE
  5
79
  8
0
  6
CONTINUOUS
 62
     7
 10
213.6149197702
 20
58.1696223302
 30
0.0
 11
213.6149197702
 21
52.1696223302
 31
0.0
  0
LINE
  5
7A
  8
0
  6
CONTINUOUS
 62
     7
 10
213.6149197702
 20
52.1696223302
 30
0.0
 11
220.1149197702
 21
52.1696223302
 31
0.0
  0
LINE
  5
7B
  8
0
  6
CONTINUOUS
 62
     7
 10
220.1149197702
 20
52.1696223302
 30
0.0
 11
220.1149197702
 21
154.1696223302
 31
0.0
  0
LINE
  5
7C
  8
0
  6
CONTINUOUS
 62
     7
 10
220.1149197702
 20
154.1696223302
 30
0.0
 11
213.6149197702
 21
154.1696223302
 31
0.0
  0
LINE
  5
7D
  8
0
  6
CONTINUOUS
 62
     7
 10
213.6149197702
 20
154.1696223302
 30
0.0
 11
213.6149197702
 21
148.1696223302
 31
0.0
  0
LINE
  5
7E
  8
0
  6
CONTINUOUS
 62
     7
 10
213.6149197702
 20
148.1696223302
 30
0.0
 11
208.1149197702
 21
148.1696223302
 31
0.0
  0
LINE
  5
7F
  8
0
  6
CONTINUOUS
 62
     7
 10
208.1149197702
 20
148.1696223302
 30
0.0
 11
208.1149197702
 21
154.1696223302
 31
0.0
  0
LINE
  5
80
  8
0
  6
CONTINUOUS
 62
     7
 10
208.1149197702
 20
154.1696223302
 30
0.0
 11
201.6149197702
 21
154.1696223302
 31
0.0
  0
LINE
  5
81
  8
0
  6
CONTINUOUS
 62
     7
 10
201.6149197702
 20
154.1696223302
 30
0.0
 11
201.6149197702
 21
52.1696223302
 31
0.0
  0
LINE
  5
82
  8
0
  6
CONTINUOUS
 62
     7
 10
201.6149197702
 20
52.1696223302
 30
0.0
 11
208.1149197702
 21
52.1696223302
 31
0.0
  0
LINE
  5
83
  8
0
  6
CONTINUOUS
 62
     7
 10
208.1149197702
 20
52.1696223302
 30
0.0
 11
208.1149197702
 21
58.1696223302
 31
0.0
  0
LINE
  5
84
  8
0
  6
CONTINUOUS
 62
     7
 10
208.1149197702
 20
58.1696223302
 30
0.0
 11
213.6149197702
 21
58.1696223302
 31
0.0
  0
ENDBLK
  5
86
  8
0
  0
BLOCK
  8
0
  2
SE2
 70
     0
 10
0.0
 20
0.0
 30
0.0
  3
SE2
  1

  0
INSERT
  5
8C
  8
0
  2
SE3
 10
0.0
 20
0.0
 30
0.0
  0
ENDBLK
  5
9C
  8
0
  0
BLOCK
  8
0
  2
SE3
 70
     0
 10
0.0
 20
0.0
 30
0.0
  3
SE3
  1

  0
LINE
  5
8D
  8
0
  6
CONTINUOUS
 62
     7
 10
78.8825907968
 20
146.336312614
 30
0.0
 11
85.3825907968
 21
146.336312614
 31
0.0
  0
LINE
  5
8E
  8
0
  6
CONTINUOUS
 62
     7
 10
85.3825907968
 20
146.336312614
 30
0.0
 11
85.3825907968
 21
140.336312614
 31
0.0
  0
LINE
  5
8F
  8
0
  6
CONTINUOUS
 62
     7
 10
85.3825907968
 20
140.336312614
 30
0.0
 11
90.8825907968
 21
140.336312614
 31
0.0
  0
LINE
  5
90
  8
0
  6
CONTINUOUS
 62
     7
 10
90.8825907968
 20
140.336312614
 30
0.0
 11
90.8825907968
 21
146.336312614
 31
0.0
  0
LINE
  5
91
  8
0
  6
CONTINUOUS
 62
     7
 10
90.8825907968
 20
146.336312614
 30
0.0
 11
97.3825907968
 21
146.336312614
 31
0.0
  0
LINE
  5
92
  8
0
  6
CONTINUOUS
 62
     7
 10
97.3825907968
 20
146.336312614
 30
0.0
 11
97.3825907968
 21
57.336312614
 31
0.0
  0
LINE
  5
93
  8
0
  6
CONTINUOUS
 62
     7
 10
97.3825907968
 20
57.336312614
 30
0.0
 11
90.8825907968
 21
57.336312614
 31
0.0
  0
LINE
  5
94
  8
0
  6
CONTINUOUS
 62
     7
 10
90.8825907968
 20
57.336312614
 30
0.0
 11
90.8825907968
 21
63.336312614
 31
0.0
  0
LINE
  5
95
  8
0
  6
CONTINUOUS
 62
     7
 10
90.8825907968
 20
63.336312614
 30
0.0
 11
85.3825907968
 21
63.336312614
 31
0.0
  0
LINE
  5
96
  8
0
  6
CONTINUOUS
 62
     7
 10
85.3825907968
 20
63.336312614
 30
0.0
 11
85.3825907968
 21
57.336312614
 31
0.0
  0
LINE
  5
97
  8
0
  6
CONTINUOUS
 62
     7
 10
85.3825907968
 20
57.336312614
 30
0.0
 11
78.8825907968
 21
57.336312614
 31
0.0
  0
LINE
  5
98
  8
0
  6
CONTINUOUS
 62
     7
 10
78.8825907968
 20
57.336312614
 30
0.0
 11
78.8825907968
 21
146.336312614
 31
0.0
  0
ENDBLK
  5
9A
  8
0
  0
BLOCK
  8
0
  2
SE4
 70
     0
 10
0.0
 20
0.0
 30
0.0
  3
SE4
  1

  0
INSERT
  5
A0
  8
0
  2
SE5
 10
0.0
 20
0.0
 30
0.0
  0
ENDBLK
  5
A8
  8
0
  0
BLOCK
  8
0
  2
SE5
 70
     0
 10
0.0
 20
0.0
 30
0.0
  3
SE5
  1

  0
LINE
  5
A1
  8
0
  6
CONTINUOUS
 62
     7
 10
109.2906635646
 20
150.078494392
 30
0.0
 11
115.184601318
 21
151.2016585646
 31
0.0
  0
LINE
  5
A2
  8
0
  6
CONTINUOUS
 62
     7
 10
115.184601318
 20
151.2016585646
 30
0.0
 11
116.401362505
 21
144.8165593317
 31
0.0
  0
LINE
  5
A3
  8
0
  6
CONTINUOUS
 62
     7
 10
116.401362505
 20
144.8165593317
 30
0.0
 11
110.5074247516
 21
143.6933951591
 31
0.0
  0
LINE
  5
A4
  8
0
  6
CONTINUOUS
 62
     7
 10
110.5074247516
 20
143.6933951591
 30
0.0
 11
109.2906635646
 21
150.078494392
 31
0.0
  0
ENDBLK
  5
A6
  8
0
  0
BLOCK
  8
0
  2
SE6
 70
     0
 10
0.0
 20
0.0
 30
0.0
  3
SE6
  1

  0
INSERT
  5
AC
  8
0
  2
SE7
 10
0.0
 20
0.0
 30
0.0
  0
ENDBLK
  5
B4
  8
0
  0
BLOCK
  8
0
  2
SE7
 70
     0
 10
0.0
 20
0.0
 30
0.0
  3
SE7
  1

  0
LINE
  5
AD
  8
0
  6
CONTINUOUS
 62
     7
 10
111.5369919098
 20
138.2906188851
 30
0.0
 11
117.4309296632
 21
139.4137830577
 31
0.0
  0
LINE
  5
AE
  8
0
  6
CONTINUOUS
 62
     7
 10
117.4309296632
 20
139.4137830577
 30
0.0
 11
118.6476908502
 21
133.0286838249
 31
0.0
  0
LINE
  5
AF
  8
0
  6
CONTINUOUS
 62
     7
 10
118.6476908502
 20
133.0286838249
 30
0.0
 11
112.7537530968
 21
131.9055196523
 31
0.0
  0
LINE
  5
B0
  8
0
  6
CONTINUOUS
 62
     7
 10
112.7537530968
 20
131.9055196523
 30
0.0
 11
111.5369919098
 21
138.2906188851
 31
0.0
  0
ENDBLK
  5
B2
  8
0
  0
BLOCK
  8
0
  2
SE8
 70
     0
 10
0.0
 20
0.0
 30
0.0
  3
SE8
  1

  0
INSERT
  5
B8
  8
0
  2
SE9
 10
0.0
 20
0.0
 30
0.0
  0
ENDBLK
  5
C7
  8
0
  0
BLOCK
  8
0
  2
SE9
 70
     0
 10
0.0
 20
0.0
 30
0.0
  3
SE9
  1

  0
ARC
  5
B9
  8
0
  6
CONTINUOUS
 62
     7
 10
137.1649623786
 20
40.196782697
 30
0.0
 40
10.00000000000321
 50
190.5203014303
 51
9.7417787024
  0
ARC
  5
BA
  8
0
  6
CONTINUOUS
 62
     7
 10
177.8571077238
 20
47.1829609786
 30
0.0
 40
31.28749665185085
 50
179.9368681015
 51
189.7417787024
  0
LINE
  5
BB
  8
0
  6
CONTINUOUS
 62
     7
 10
146.5696300649
 20
47.2174353968
 30
0.0
 11
146.7114600354
 21
175.9361274307
 31
0.0
  0
ARC
  5
BC
  8
0
  6
CONTINUOUS
 62
     7
 10
141.7114630706
 20
175.941636727
 30
0.0
 40
5.000000000038511
 50
359.9368681025
 51
89.9368681013
  0
LINE
  5
BD
  8
0
  6
CONTINUOUS
 62
     7
 10
141.7169723669
 20
180.9416336918
 30
0.0
 11
82.5903135133
 21
181.0067829886
 31
0.0
  0
ARC
  5
BE
  8
0
  6
CONTINUOUS
 62
     7
 10
82.584804217
 20
176.0067860239
 30
0.0
 40
4.999999999983316
 50
89.936868102
 51
199.9368681008
  0
LINE
  5
BF
  8
0
  6
CONTINUOUS
 62
     7
 10
77.8844596749
 20
174.3018633905
 30
0.0
 11
83.3328071319
 21
159.2811758053
 31
0.0
  0
ARC
  5
C0
  8
0
  6
CONTINUOUS
 62
     7
 10
88.033151674
 20
160.9860984387
 30
0.0
 40
5.000000000028251
 50
199.9368681017
 51
292.1343416049
  0
ARC
  5
C1
  8
0
  6
CONTINUOUS
 62
     7
 10
137.1649623874
 20
40.1967826702
 30
0.0
 40
125.3993620682278
 50
107.9458357508
 51
112.1343416049
  0
ARC
  5
C2
  8
0
  6
CONTINUOUS
 62
     7
 10
100.0677781858
 20
154.7385013178
 30
0.0
 40
5.000000000038772
 50
10.7890760143
 51
107.9458357497
  0
LINE
  5
C3
  8
0
  6
CONTINUOUS
 62
     7
 10
104.9793929804
 20
155.6744714616
 30
0.0
 11
127.3506221142
 21
38.2787823908
 31
0.0
  0
ENDBLK
  5
C5
  8
0
  0
BLOCK
  8
0
  2
SE10
 70
     0
 10
0.0
 20
0.0
 30
0.0
  3
SE10
  1

  0
INSERT
  5
CB
  8
0
  2
SE11
 10
0.0
 20
0.0
 30
0.0
  0
ENDBLK
  5
D3
  8
0
  0
BLOCK
  8
0
  2
SE11
 70
     0
 10
0.0
 20
0.0
 30
0.0
  3
SE11
  1

  0
ARC
  5
CC
  8
0
  6
CONTINUOUS
 62
     7
 10
137.1649623768
 20
40.1967826966
 30
0.0
 40
131.000000000078
 50
89.4901759231
 51
111.0017047758
  0
ARC
  5
CD
  8
0
  6
CONTINUOUS
 62
     7
 10
89.4983306734
 20
164.3615612052
 30
0.0
 40
2.000000000023022
 50
111.0017047767
 51
291.0017047767
  0
ARC
  5
CE
  8
0
  6
CONTINUOUS
 62
     7
 10
137.1649623767
 20
40.1967826964
 30
0.0
 40
135.0000000002663
 50
89.4901759231
 51
111.0017047757
  0
ARC
  5
CF
  8
0
  6
CONTINUOUS
 62
     7
 10
138.3483952234
 20
173.1915175049
 30
0.0
 40
1.999999999997884
 50
269.4901759231
 51
89.4901759231
  0
ENDBLK
  5
D1
  8
0
  0
BLOCK
  8
0
  2
SE12
 70
     0
 10
0.0
 20
0.0
 30
0.0
  3
SE12
  1

  0
INSERT
  5
D7
  8
0
  2
SE13
 10
0.0
 20
0.0
 30
0.0
  0
ENDBLK
  5
DF
  8
0
  0
BLOCK
  8
0
  2
SE13
 70
     0
 10
0.0
 20
0.0
 30
0.0
  3
SE13
  1

  0
LINE
  5
D8
  8
0
  6
CONTINUOUS
 62
     7
 10
187.7093364355
 20
150.078494392
 30
0.0
 11
181.8153986821
 21
151.2016585646
 31
0.0
  0
LINE
  5
D9
  8
0
  6
CONTINUOUS
 62
     7
 10
181.8153986821
 20
151.2016585646
 30
0.0
 11
180.5986374951
 21
144.8165593317
 31
0.0
  0
LINE
  5
DA
  8
0
  6
CONTINUOUS
 62
     7
 10
180.5986374951
 20
144.8165593317
 30
0.0
 11
186.4925752485
 21
143.6933951591
 31
0.0
  0
LINE
  5
DB
  8
0
  6
CONTINUOUS
 62
     7
 10
186.4925752485
 20
143.6933951591
 30
0.0
 11
187.7093364355
 21
150.078494392
 31
0.0
  0
ENDBLK
  5
DD
  8
0
  0
BLOCK
  8
0
  2
SE14
 70
     0
 10
0.0
 20
0.0
 30
0.0
  3
SE14
  1

  0
INSERT
  5
E3
  8
0
  2
SE15
 10
0.0
 20
0.0
 30
0.0
  0
ENDBLK
  5
EB
  8
0
  0
BLOCK
  8
0
  2
SE15
 70
     0
 10
0.0
 20
0.0
 30
0.0
  3
SE15
  1

  0
LINE
  5
E4
  8
0
  6
CONTINUOUS
 62
     7
 10
185.4630080903
 20
138.2906188851
 30
0.0
 11
179.5690703369
 21
139.4137830577
 31
0.0
  0
LINE
  5
E5
  8
0
  6
CONTINUOUS
 62
     7
 10
179.5690703369
 20
139.4137830577
 30
0.0
 11
178.3523091499
 21
133.0286838249
 31
0.0
  0
LINE
  5
E6
  8
0
  6
CONTINUOUS
 62
     7
 10
178.3523091499
 20
133.0286838249
 30
0.0
 11
184.2462469033
 21
131.9055196523
 31
0.0
  0
LINE
  5
E7
  8
0
  6
CONTINUOUS
 62
     7
 10
184.2462469033
 20
131.9055196523
 30
0.0
 11
185.4630080903
 21
138.2906188851
 31
0.0
  0
ENDBLK
  5
E9
  8
0
  0
BLOCK
  8
0
  2
SE16
 70
     0
 10
0.0
 20
0.0
 30
0.0
  3
SE16
  1

  0
INSERT
  5
EF
  8
0
  2
SE17
 10
0.0
 20
0.0
 30
0.0
  0
ENDBLK
  5
FE
  8
0
  0
BLOCK
  8
0
  2
SE17
 70
     0
 10
0.0
 20
0.0
 30
0.0
  3
SE17
  1

  0
ARC
  5
F0
  8
0
  6
CONTINUOUS
 62
     7
 10
159.8350376215
 20
40.196782697
 30
0.0
 40
10.00000000000317
 50
170.2582212976
 51
349.4796985697
  0
ARC
  5
F1
  8
0
  6
CONTINUOUS
 62
     7
 10
119.1428922763
 20
47.1829609786
 30
0.0
 40
31.28749665185134
 50
350.2582212976
 51
0.0631318985
  0
LINE
  5
F2
  8
0
  6
CONTINUOUS
 62
     7
 10
150.4303699352
 20
47.2174353968
 30
0.0
 11
150.2885399647
 21
175.9361274307
 31
0.0
  0
ARC
  5
F3
  8
0
  6
CONTINUOUS
 62
     7
 10
155.2885369295
 20
175.941636727
 30
0.0
 40
5.000000000038552
 50
90.0631318987
 51
180.0631318975
  0
LINE
  5
F4
  8
0
  6
CONTINUOUS
 62
     7
 10
155.2830276332
 20
180.9416336918
 30
0.0
 11
214.4096864868
 21
181.0067829886
 31
0.0
  0
ARC
  5
F5
  8
0
  6
CONTINUOUS
 62
     7
 10
214.4151957831
 20
176.0067860239
 30
0.0
 40
4.999999999983316
 50
340.0631318992
 51
90.063131898
  0
LINE
  5
F6
  8
0
  6
CONTINUOUS
 62
     7
 10
219.1155403252
 20
174.3018633905
 30
0.0
 11
213.6671928682
 21
159.2811758053
 31
0.0
  0
ARC
  5
F7
  8
0
  6
CONTINUOUS
 62
     7
 10
208.9668483261
 20
160.9860984387
 30
0.0
 40
5.000000000028274
 50
247.8656583951
 51
340.0631318983
  0
ARC
  5
F8
  8
0
  6
CONTINUOUS
 62
     7
 10
159.8350376127
 20
40.1967826702
 30
0.0
 40
125.3993620682276
 50
67.8656583951
 51
72.0541642492
  0
ARC
  5
F9
  8
0
  6
CONTINUOUS
 62
     7
 10
196.9322218143
 20
154.7385013178
 30
0.0
 40
5.000000000038768
 50
72.0541642503
 51
169.2109239857
  0
LINE
  5
FA
  8
0
  6
CONTINUOUS
 62
     7
 10
192.0206070197
 20
155.6744714616
 30
0.0
 11
169.6493778859
 21
38.2787823908
 31
0.0
  0
ENDBLK
  5
FC
  8
0
  0
BLOCK
  8
0
  2
SE18
 70
     0
 10
0.0
 20
0.0
 30
0.0
  3
SE18
  1

  0
INSERT
  5
102
  8
0
  2
SE19
 10
0.0
 20
0.0
 30
0.0
  0
ENDBLK
  5
10A
  8
0
  0
BLOCK
  8
0
  2
SE19
 70
     0
 10
0.0
 20
0.0
 30
0.0
  3
SE19
  1

  0
ARC
  5
103
  8
0
  6
CONTINUOUS
 62
     7
 10
159.8350376233
 20
40.1967826966
 30
0.0
 40
131.0000000000779
 50
68.9982952242
 51
90.5098240769
  0
ARC
  5
104
  8
0
  6
CONTINUOUS
 62
     7
 10
207.5016693267
 20
164.3615612052
 30
0.0
 40
2.000000000023022
 50
248.9982952233
 51
68.9982952233
  0
ARC
  5
105
  8
0
  6
CONTINUOUS
 62
     7
 10
159.8350376234
 20
40.1967826964
 30
0.0
 40
135.0000000002659
 50
68.9982952243
 51
90.5098240769
  0
ARC
  5
106
  8
0
  6
CONTINUOUS
 62
     7
 10
158.6516047767
 20
173.1915175049
 30
0.0
 40
1.999999999997897
 50
90.5098240769
 51
270.5098240769
  0
ENDBLK
  5
108
  8
0
  0
BLOCK
  8
0
  2
SE20
 70
     0
 10
0.0
 20
0.0
 30
0.0
  3
SE20
  1

  0
INSERT
  5
10E
  8
0
  2
SE21
 10
0.0
 20
0.0
 30
0.0
  0
ENDBLK
  5
116
  8
0
  0
BLOCK
  8
0
  2
SE21
 70
     0
 10
0.0
 20
0.0
 30
0.0
  3
SE21
  1

  0
LINE
  5
10F
  8
0
  6
CONTINUOUS
 62
     7
 10
56.8926567715
 20
75.1942378709
 30
0.0
 11
62.8926567715
 21
75.1942378709
 31
0.0
  0
LINE
  5
110
  8
0
  6
CONTINUOUS
 62
     7
 10
62.8926567715
 20
75.1942378709
 30
0.0
 11
62.8926567715
 21
68.6942378709
 31
0.0
  0
LINE
  5
111
  8
0
  6
CONTINUOUS
 62
     7
 10
62.8926567715
 20
68.6942378709
 30
0.0
 11
56.8926567715
 21
68.6942378709
 31
0.0
  0
LINE
  5
112
  8
0
  6
CONTINUOUS
 62
     7
 10
56.8926567715
 20
68.6942378709
 30
0.0
 11
56.8926567715
 21
75.1942378709
 31
0.0
  0
ENDBLK
  5
114
  8
0
  0
BLOCK
  8
0
  2
SE22
 70
     0
 10
0.0
 20
0.0
 30
0.0
  3
SE22
  1

  0
INSERT
  5
11A
  8
0
  2
SE23
 10
0.0
 20
0.0
 30
0.0
  0
ENDBLK
  5
122
  8
0
  0
BLOCK
  8
0
  2
SE23
 70
     0
 10
0.0
 20
0.0
 30
0.0
  3
SE23
  1

  0
LINE
  5
11B
  8
0
  6
CONTINUOUS
 62
     7
 10
56.8926567715
 20
63.1942378709
 30
0.0
 11
56.8926567715
 21
56.6942378709
 31
0.0
  0
LINE
  5
11C
  8
0
  6
CONTINUOUS
 62
     7
 10
56.8926567715
 20
56.6942378709
 30
0.0
 11
62.8926567715
 21
56.6942378709
 31
0.0
  0
LINE
  5
11D
  8
0
  6
CONTINUOUS
 62
     7
 10
62.8926567715
 20
56.6942378709
 30
0.0
 11
62.8926567715
 21
63.1942378709
 31
0.0
  0
LINE
  5
11E
  8
0
  6
CONTINUOUS
 62
     7
 10
62.8926567715
 20
63.1942378709
 30
0.0
 11
56.8926567715
 21
63.1942378709
 31
0.0
  0
ENDBLK
  5
120
  8
0
  0
BLOCK
  8
0
  2
SE24
 70
     0
 10
0.0
 20
0.0
 30
0.0
  3
SE24
  1

  0
INSERT
  5
126
  8
0
  2
SE25
 10
0.0
 20
0.0
 30
0.0
  0
ENDBLK
  5
13A
  8
0
  0
BLOCK
  8
0
  2
SE25
 70
     0
 10
0.0
 20
0.0
 30
0.0
  3
SE25
  1

  0
ARC
  5
127
  8
0
  6
CONTINUOUS
 62
     7
 10
112.4044566844
 20
49.3212254704
 30
0.0
 40
5.000000000000156
 50
20.0
 51
112.1974735036
  0
ARC
  5
128
  8
0
  6
CONTINUOUS
 62
     7
 10
63.1395829786
 20
170.0563315484
 30
0.0
 40
125.3993620417774
 50
277.1568125078
 51
292.1974735037
  0
ARC
  5
129
  8
0
  6
CONTINUOUS
 62
     7
 10
78.1395829794
 20
50.5950140433
 30
0.0
 40
5.000000000004842
 50
180.0
 51
277.1568125066
  0
LINE
  5
12A
  8
0
  6
CONTINUOUS
 62
     7
 10
73.1395829794
 20
50.5950140433
 30
0.0
 11
73.1395829794
 21
170.0563315465
 31
0.0
  0
ARC
  5
12B
  8
0
  6
CONTINUOUS
 62
     7
 10
63.1395829793
 20
170.0563315464
 30
0.0
 40
10.0000000000994
 50
0.0
 51
94.525614595
  0
ARC
  5
12C
  8
0
  6
CONTINUOUS
 62
     7
 10
74.1923930262
 20
30.4152261145
 30
0.0
 40
150.0778459864575
 50
94.5256145955
 51
102.1156423433
  0
ARC
  5
12D
  8
0
  6
CONTINUOUS
 62
     7
 10
43.7426567717
 20
172.261604137
 30
0.0
 40
5.000000000014062
 50
102.1156423429
 51
179.9999999999
  0
LINE
  5
12E
  8
0
  6
CONTINUOUS
 62
     7
 10
38.7426567717
 20
172.261604137
 30
0.0
 11
38.7426567717
 21
169.8717242177
 31
0.0
  0
ARC
  5
12F
  8
0
  6
CONTINUOUS
 62
     7
 10
43.7426567717
 20
169.8717242177
 30
0.0
 40
4.999999999997876
 50
180.0
 51
282.3495953242
  0
ARC
  5
130
  8
0
  6
CONTINUOUS
 62
     7
 10
74.2613101746
 20
30.4803429453
 30
0.0
 40
137.6931861672158
 50
101.0878117282
 51
102.3495953242
  0
ARC
  5
131
  8
0
  6
CONTINUOUS
 62
     7
 10
48.7426567715
 20
160.6966245068
 30
0.0
 40
5.000000000002277
 50
0.0
 51
101.0878117272
  0
LINE
  5
132
  8
0
  6
CONTINUOUS
 62
     7
 10
53.7426567715
 20
160.6966245068
 30
0.0
 11
53.7426567715
 21
34.064276621
 31
0.0
  0
ARC
  5
133
  8
0
  6
CONTINUOUS
 62
     7
 10
58.7426567715
 20
34.064276621
 30
0.0
 40
5.000000000002444
 50
180.0
 51
268.1481448721
  0
ARC
  5
134
  8
0
  6
CONTINUOUS
 62
     7
 10
63.1395829794
 20
170.0563315473
 30
0.0
 40
141.0631175710083
 50
268.1481448722
 51
292.1059594859
  0
ARC
  5
135
  8
0
  6
CONTINUOUS
 62
     7
 10
114.3429413487
 20
43.9952826272
 30
0.0
 40
5.000000000057569
 50
292.1059594858
 51
20.0
  0
LINE
  5
136
  8
0
  6
CONTINUOUS
 62
     7
 10
119.0414044527
 20
45.7053833438
 30
0.0
 11
117.1029197883
 21
51.031326187
 31
0.0
  0
ENDBLK
  5
138
  8
0
  0
BLOCK
  8
0
  2
SE26
 70
     0
 10
0.0
 20
0.0
 30
0.0
  3
SE26
  1

  0
INSERT
  5
13E
  8
0
  2
SE27
 10
0.0
 20
0.0
 30
0.0
  0
ENDBLK
  5
146
  8
0
  0
BLOCK
  8
0
  2
SE27
 70
     0
 10
0.0
 20
0.0
 30
0.0
  3
SE27
  1

  0
LINE
  5
13F
  8
0
  6
CONTINUOUS
 62
     7
 10
240.1073432286
 20
75.1942378709
 30
0.0
 11
234.1073432286
 21
75.1942378709
 31
0.0
  0
LINE
  5
140
  8
0
  6
CONTINUOUS
 62
     7
 10
234.1073432286
 20
75.1942378709
 30
0.0
 11
234.1073432286
 21
68.6942378709
 31
0.0
  0
LINE
  5
141
  8
0
  6
CONTINUOUS
 62
     7
 10
234.1073432286
 20
68.6942378709
 30
0.0
 11
240.1073432286
 21
68.6942378709
 31
0.0
  0
LINE
  5
142
  8
0
  6
CONTINUOUS
 62
     7
 10
240.1073432286
 20
68.6942378709
 30
0.0
 11
240.1073432286
 21
75.1942378709
 31
0.0
  0
ENDBLK
  5
144
  8
0
  0
BLOCK
  8
0
  2
SE28
 70
     0
 10
0.0
 20
0.0
 30
0.0
  3
SE28
  1

  0
INSERT
  5
14A
  8
0
  2
SE29
 10
0.0
 20
0.0
 30
0.0
  0
ENDBLK
  5
152
  8
0
  0
BLOCK
  8
0
  2
SE29
 70
     0
 10
0.0
 20
0.0
 30
0.0
  3
SE29
  1

  0
LINE
  5
14B
  8
0
  6
CONTINUOUS
 62
     7
 10
240.1073432286
 20
63.1942378709
 30
0.0
 11
240.1073432286
 21
56.6942378709
 31
0.0
  0
LINE
  5
14C
  8
0
  6
CONTINUOUS
 62
     7
 10
240.1073432286
 20
56.6942378709
 30
0.0
 11
234.1073432286
 21
56.6942378709
 31
0.0
  0
LINE
  5
14D
  8
0
  6
CONTINUOUS
 62
     7
 10
234.1073432286
 20
56.6942378709
 30
0.0
 11
234.1073432286
 21
63.1942378709
 31
0.0
  0
LINE
  5
14E
  8
0
  6
CONTINUOUS
 62
     7
 10
234.1073432286
 20
63.1942378709
 30
0.0
 11
240.1073432286
 21
63.1942378709
 31
0.0
  0
ENDBLK
  5
150
  8
0
  0
BLOCK
  8
0
  2
SE30
 70
     0
 10
0.0
 20
0.0
 30
0.0
  3
SE30
  1

  0
INSERT
  5
156
  8
0
  2
SE31
 10
0.0
 20
0.0
 30
0.0
  0
ENDBLK
  5
16A
  8
0
  0
BLOCK
  8
0
  2
SE31
 70
     0
 10
0.0
 20
0.0
 30
0.0
  3
SE31
  1

  0
ARC
  5
157
  8
0
  6
CONTINUOUS
 62
     7
 10
184.5955433157
 20
49.3212254704
 30
0.0
 40
5.000000000000128
 50
67.8025264964
 51
160.0
  0
ARC
  5
158
  8
0
  6
CONTINUOUS
 62
     7
 10
233.8604170215
 20
170.0563315484
 30
0.0
 40
125.3993620417779
 50
247.8025264963
 51
262.8431874922
  0
ARC
  5
159
  8
0
  6
CONTINUOUS
 62
     7
 10
218.8604170207
 20
50.5950140433
 30
0.0
 40
5.000000000004833
 50
262.8431874934
 51
0.0
  0
LINE
  5
15A
  8
0
  6
CONTINUOUS
 62
     7
 10
223.8604170207
 20
50.5950140433
 30
0.0
 11
223.8604170207
 21
170.0563315465
 31
0.0
  0
ARC
  5
15B
  8
0
  6
CONTINUOUS
 62
     7
 10
233.8604170208
 20
170.0563315464
 30
0.0
 40
10.00000000009891
 50
85.474385405
 51
180.0
  0
ARC
  5
15C
  8
0
  6
CONTINUOUS
 62
     7
 10
222.8076069739
 20
30.4152261145
 30
0.0
 40
150.0778459864575
 50
77.8843576567
 51
85.4743854045
  0
ARC
  5
15D
  8
0
  6
CONTINUOUS
 62
     7
 10
253.2573432284
 20
172.261604137
 30
0.0
 40
5.000000000014575
 50
0.0
 51
77.8843576571
  0
LINE
  5
15E
  8
0
  6
CONTINUOUS
 62
     7
 10
258.2573432284
 20
172.261604137
 30
0.0
 11
258.2573432284
 21
169.8717242177
 31
0.0
  0
ARC
  5
15F
  8
0
  6
CONTINUOUS
 62
     7
 10
253.2573432284
 20
169.8717242177
 30
0.0
 40
4.99999999999838
 50
257.6504046758
 51
0.0
  0
ARC
  5
160
  8
0
  6
CONTINUOUS
 62
     7
 10
222.7386898255
 20
30.4803429453
 30
0.0
 40
137.6931861672422
 50
77.6504046758
 51
78.9121882718
  0
ARC
  5
161
  8
0
  6
CONTINUOUS
 62
     7
 10
248.2573432286
 20
160.6966245068
 30
0.0
 40
5.000000000002274
 50
78.9121882728
 51
179.9999999999
  0
LINE
  5
162
  8
0
  6
CONTINUOUS
 62
     7
 10
243.2573432286
 20
160.6966245068
 30
0.0
 11
243.2573432286
 21
34.064276621
 31
0.0
  0
ARC
  5
163
  8
0
  6
CONTINUOUS
 62
     7
 10
238.2573432286
 20
34.064276621
 30
0.0
 40
5.000000000002956
 50
271.8518551279
 51
360.0
  0
ARC
  5
164
  8
0
  6
CONTINUOUS
 62
     7
 10
233.8604170207
 20
170.0563315473
 30
0.0
 40
141.0631175710057
 50
247.8940405141
 51
271.8518551278
  0
ARC
  5
165
  8
0
  6
CONTINUOUS
 62
     7
 10
182.6570586514
 20
43.9952826272
 30
0.0
 40
5.000000000057555
 50
160.0
 51
247.8940405142
  0
LINE
  5
166
  8
0
  6
CONTINUOUS
 62
     7
 10
177.9585955474
 20
45.7053833438
 30
0.0
 11
179.8970802118
 21
51.031326187
 31
0.0
  0
ENDBLK
  5
168
  8
0
  0
BLOCK
  8
0
  2
SE32
 70
     0
 10
0.0
 20
0.0
 30
0.0
  3
SE32
  1

  0
INSERT
  5
16E
  8
0
  2
SE33
 10
0.0
 20
0.0
 30
0.0
  0
ENDBLK
  5
178
  8
0
  0
BLOCK
  8
0
  2
SE33
 70
     0
 10
0.0
 20
0.0
 30
0.0
  3
SE33
  1

  0
LINE
  5
16F
  8
0
  6
CONTINUOUS
 62
     7
 10
109.1420939514
 20
63.6084350667
 30
0.0
 11
105.8170939514
 21
65.5281247118
 31
0.0
  0
LINE
  5
170
  8
0
  6
CONTINUOUS
 62
     7
 10
105.8170939514
 20
65.5281247118
 30
0.0
 11
105.8170939514
 21
69.3675040019
 31
0.0
  0
LINE
  5
171
  8
0
  6
CONTINUOUS
 62
     7
 10
105.8170939514
 20
69.3675040019
 30
0.0
 11
109.1420939514
 21
71.287193647
 31
0.0
  0
LINE
  5
172
  8
0
  6
CONTINUOUS
 62
     7
 10
109.1420939514
 20
71.287193647
 30
0.0
 11
112.4670939514
 21
69.3675040019
 31
0.0
  0
LINE
  5
173
  8
0
  6
CONTINUOUS
 62
     7
 10
112.4670939514
 20
69.3675040019
 30
0.0
 11
112.4670939514
 21
65.5281247118
 31
0.0
  0
LINE
  5
174
  8
0
  6
CONTINUOUS
 62
     7
 10
112.4670939514
 20
65.5281247118
 30
0.0
 11
109.1420939514
 21
63.6084350667
 31
0.0
  0
ENDBLK
  5
176
  8
0
  0
BLOCK
  8
0
  2
SE34
 70
     0
 10
0.0
 20
0.0
 30
0.0
  3
SE34
  1

  0
INSERT
  5
17C
  8
0
  2
SE35
 10
0.0
 20
0.0
 30
0.0
  0
ENDBLK
  5
198
  8
0
  0
BLOCK
  8
0
  2
SE35
 70
     0
 10
0.0
 20
0.0
 30
0.0
  3
SE35
  1

  0
ARC
  5
17D
  8
0
  6
CONTINUOUS
 62
     7
 10
116.9090872311
 20
71.9463171476
 30
0.0
 40
2.500000000002843
 50
182.8324533017
 51
237.5046752211
  0
ARC
  5
17E
  8
0
  6
CONTINUOUS
 62
     7
 10
115.0287794749
 20
68.9942936481
 30
0.0
 40
0.9999999999990108
 50
333.7779435819
 51
57.5046752212
  0
ARC
  5
17F
  8
0
  6
CONTINUOUS
 62
     7
 10
118.1685886732
 20
67.4478143569
 30
0.0
 40
2.50000000000351
 50
153.777943582
 51
206.8739382999
  0
ARC
  5
180
  8
0
  6
CONTINUOUS
 62
     7
 10
115.046577358
 20
65.8657127963
 30
0.0
 40
1.000000000000327
 50
303.1260617001
 51
26.8739383
  0
ARC
  5
181
  8
0
  6
CONTINUOUS
 62
     7
 10
116.9592676876
 20
62.934566996
 30
0.0
 40
2.499999999997428
 50
123.1260617001
 51
176.8739383004
  0
ARC
  5
182
  8
0
  6
CONTINUOUS
 62
     7
 10
113.4644757975
 20
63.1254325108
 30
0.0
 40
0.999999999999375
 50
273.1260616995
 51
356.8739383004
  0
ARC
  5
183
  8
0
  6
CONTINUOUS
 62
     7
 10
113.6553413123
 20
59.6306406206
 30
0.0
 40
2.500000000003993
 50
93.1260616996
 51
146.8739382997
  0
ARC
  5
184
  8
0
  6
CONTINUOUS
 62
     7
 10
110.7241955119
 20
61.5433309503
 30
0.0
 40
0.9999999999997101
 50
243.1260617001
 51
326.8739382997
  0
ARC
  5
185
  8
0
  6
CONTINUOUS
 62
     7
 10
109.1420939514
 20
58.4213196351
 30
0.0
 40
2.500000000004178
 50
63.1260617002
 51
116.8739382998
  0
ARC
  5
186
  8
0
  6
CONTINUOUS
 62
     7
 10
107.5599923909
 20
61.5433309503
 30
0.0
 40
0.9999999999996865
 50
213.1260617003
 51
296.8739382999
  0
ARC
  5
187
  8
0
  6
CONTINUOUS
 62
     7
 10
104.6288465905
 20
59.6306406206
 30
0.0
 40
2.500000000003453
 50
33.1260617003
 51
86.8739383004
  0
ARC
  5
188
  8
0
  6
CONTINUOUS
 62
     7
 10
104.8197121053
 20
63.1254325108
 30
0.0
 40
0.9999999999999083
 50
183.1260616996
 51
266.8739383004
  0
ARC
  5
189
  8
0
  6
CONTINUOUS
 62
     7
 10
101.3249202152
 20
62.934566996
 30
0.0
 40
2.499999999997414
 50
3.1260616996
 51
56.8739382999
  0
ARC
  5
18A
  8
0
  6
CONTINUOUS
 62
     7
 10
103.2376105448
 20
65.8657127963
 30
0.0
 40
1.000000000000335
 50
153.1260617
 51
236.8739382999
  0
ARC
  5
18B
  8
0
  6
CONTINUOUS
 62
     7
 10
100.1155992296
 20
67.4478143569
 30
0.0
 40
2.500000000001492
 50
333.1260617
 51
26.8739383
  0
ARC
  5
18C
  8
0
  6
CONTINUOUS
 62
     7
 10
103.2376105448
 20
69.0299159174
 30
0.0
 40
1.000000000000314
 50
123.1260617001
 51
206.8739383
  0
ARC
  5
18D
  8
0
  6
CONTINUOUS
 62
     7
 10
101.3249202152
 20
71.9610617177
 30
0.0
 40
2.499999999997428
 50
303.1260617001
 51
356.8739383004
  0
ARC
  5
18E
  8
0
  6
CONTINUOUS
 62
     7
 10
104.8197121053
 20
71.770196203
 30
0.0
 40
1.000000000000443
 50
93.1260616995
 51
176.8739383004
  0
ARC
  5
18F
  8
0
  6
CONTINUOUS
 62
     7
 10
104.6288465905
 20
75.2649880931
 30
0.0
 40
2.500000000002487
 50
273.1260616996
 51
326.8739382997
  0
ARC
  5
190
  8
0
  6
CONTINUOUS
 62
     7
 10
107.5599923909
 20
73.3522977635
 30
0.0
 40
0.9999999999996947
 50
63.1260617001
 51
146.8739382997
  0
ARC
  5
191
  8
0
  6
CONTINUOUS
 62
     7
 10
109.1420939514
 20
76.4743090787
 30
0.0
 40
2.500000000004178
 50
243.1260617002
 51
296.8739382998
  0
ARC
  5
192
  8
0
  6
CONTINUOUS
 62
     7
 10
110.7241955119
 20
73.3522977635
 30
0.0
 40
0.9999999999997118
 50
33.1260617003
 51
116.8739382999
  0
ARC
  5
193
  8
0
  6
CONTINUOUS
 62
     7
 10
113.6553413123
 20
75.2649880931
 30
0.0
 40
2.500000000001023
 50
213.1260617003
 51
266.035601147
  0
ARC
  5
194
  8
0
  6
CONTINUOUS
 62
     7
 10
113.4133631539
 20
71.7733628883
 30
0.0
 40
0.9999999999994037
 50
2.8324533016
 51
86.0356011471
  0
ENDBLK
  5
196
  8
0
  0
BLOCK
  8
0
  2
SE36
 70
     0
 10
0.0
 20
0.0
 30
0.0
  3
SE36
  1

  0
INSERT
  5
19C
  8
0
  2
SE37
 10
0.0
 20
0.0
 30
0.0
  0
ENDBLK
  5
1A6
  8
0
  0
BLOCK
  8
0
  2
SE37
 70
     0
 10
0.0
 20
0.0
 30
0.0
  3
SE37
  1

  0
LINE
  5
19D
  8
0
  6
CONTINUOUS
 62
     7
 10
187.8579060487
 20
63.6084350667
 30
0.0
 11
191.1829060487
 21
65.5281247118
 31
0.0
  0
LINE
  5
19E
  8
0
  6
CONTINUOUS
 62
     7
 10
191.1829060487
 20
65.5281247118
 30
0.0
 11
191.1829060487
 21
69.3675040019
 31
0.0
  0
LINE
  5
19F
  8
0
  6
CONTINUOUS
 62
     7
 10
191.1829060487
 20
69.3675040019
 30
0.0
 11
187.8579060487
 21
71.287193647
 31
0.0
  0
LINE
  5
1A0
  8
0
  6
CONTINUOUS
 62
     7
 10
187.8579060487
 20
71.287193647
 30
0.0
 11
184.5329060487
 21
69.3675040019
 31
0.0
  0
LINE
  5
1A1
  8
0
  6
CONTINUOUS
 62
     7
 10
184.5329060487
 20
69.3675040019
 30
0.0
 11
184.5329060487
 21
65.5281247118
 31
0.0
  0
LINE
  5
1A2
  8
0
  6
CONTINUOUS
 62
     7
 10
184.5329060487
 20
65.5281247118
 30
0.0
 11
187.8579060487
 21
63.6084350667
 31
0.0
  0
ENDBLK
  5
1A4
  8
0
  0
BLOCK
  8
0
  2
SE38
 70
     0
 10
0.0
 20
0.0
 30
0.0
  3
SE38
  1

  0
INSERT
  5
1AA
  8
0
  2
SE39
 10
0.0
 20
0.0
 30
0.0
  0
ENDBLK
  5
1C6
  8
0
  0
BLOCK
  8
0
  2
SE39
 70
     0
 10
0.0
 20
0.0
 30
0.0
  3
SE39
  1

  0
ARC
  5
1AB
  8
0
  6
CONTINUOUS
 62
     7
 10
180.090912769
 20
71.9463171476
 30
0.0
 40
2.500000000002302
 50
302.4953247789
 51
357.1675466983
  0
ARC
  5
1AC
  8
0
  6
CONTINUOUS
 62
     7
 10
181.9712205252
 20
68.9942936481
 30
0.0
 40
0.9999999999992326
 50
122.4953247788
 51
206.2220564181
  0
ARC
  5
1AD
  8
0
  6
CONTINUOUS
 62
     7
 10
178.8314113269
 20
67.4478143569
 30
0.0
 40
2.500000000003475
 50
333.1260617001
 51
26.222056418
  0
ARC
  5
1AE
  8
0
  6
CONTINUOUS
 62
     7
 10
181.9534226421
 20
65.8657127963
 30
0.0
 40
1.000000000000313
 50
153.1260617
 51
236.8739382999
  0
ARC
  5
1AF
  8
0
  6
CONTINUOUS
 62
     7
 10
180.0407323125
 20
62.934566996
 30
0.0
 40
2.499999999997446
 50
3.1260616996
 51
56.8739382999
  0
ARC
  5
1B0
  8
0
  6
CONTINUOUS
 62
     7
 10
183.5355242026
 20
63.1254325108
 30
0.0
 40
0.9999999999999148
 50
183.1260616996
 51
266.8739383005
  0
ARC
  5
1B1
  8
0
  6
CONTINUOUS
 62
     7
 10
183.3446586878
 20
59.6306406206
 30
0.0
 40
2.500000000002959
 50
33.1260617003
 51
86.8739383004
  0
ARC
  5
1B2
  8
0
  6
CONTINUOUS
 62
     7
 10
186.2758044882
 20
61.5433309503
 30
0.0
 40
0.9999999999997158
 50
213.1260617003
 51
296.8739382999
  0
ARC
  5
1B3
  8
0
  6
CONTINUOUS
 62
     7
 10
187.8579060487
 20
58.4213196351
 30
0.0
 40
2.500000000004143
 50
63.1260617002
 51
116.8739382998
  0
ARC
  5
1B4
  8
0
  6
CONTINUOUS
 62
     7
 10
189.4400076092
 20
61.5433309503
 30
0.0
 40
0.9999999999997158
 50
243.1260617001
 51
326.8739382997
  0
ARC
  5
1B5
  8
0
  6
CONTINUOUS
 62
     7
 10
192.3711534096
 20
59.6306406206
 30
0.0
 40
2.500000000003427
 50
93.1260616996
 51
146.8739382997
  0
ARC
  5
1B6
  8
0
  6
CONTINUOUS
 62
     7
 10
192.1802878948
 20
63.1254325108
 30
0.0
 40
0.9999999999999148
 50
273.1260616996
 51
356.8739383004
  0
ARC
  5
1B7
  8
0
  6
CONTINUOUS
 62
     7
 10
195.6750797849
 20
62.934566996
 30
0.0
 40
2.499999999997476
 50
123.1260617001
 51
176.8739383004
  0
ARC
  5
1B8
  8
0
  6
CONTINUOUS
 62
     7
 10
193.7623894553
 20
65.8657127963
 30
0.0
 40
1.000000000000341
 50
303.1260617001
 51
26.8739383
  0
ARC
  5
1B9
  8
0
  6
CONTINUOUS
 62
     7
 10
196.8844007705
 20
67.4478143569
 30
0.0
 40
2.500000000001531
 50
153.1260617001
 51
206.8739382999
  0
ARC
  5
1BA
  8
0
  6
CONTINUOUS
 62
     7
 10
193.7623894553
 20
69.0299159174
 30
0.0
 40
1.000000000000341
 50
333.1260617
 51
56.8739382999
  0
ARC
  5
1BB
  8
0
  6
CONTINUOUS
 62
     7
 10
195.6750797849
 20
71.9610617177
 30
0.0
 40
2.499999999997483
 50
183.1260616996
 51
236.8739382999
  0
ARC
  5
1BC
  8
0
  6
CONTINUOUS
 62
     7
 10
192.1802878948
 20
71.770196203
 30
0.0
 40
0.9999999999999148
 50
3.1260616996
 51
86.8739383004
  0
ARC
  5
1BD
  8
0
  6
CONTINUOUS
 62
     7
 10
192.3711534096
 20
75.2649880931
 30
0.0
 40
2.500000000003438
 50
213.1260617003
 51
266.8739383004
  0
ARC
  5
1BE
  8
0
  6
CONTINUOUS
 62
     7
 10
189.4400076092
 20
73.3522977635
 30
0.0
 40
0.9999999999997158
 50
33.1260617003
 51
116.8739382999
  0
ARC
  5
1BF
  8
0
  6
CONTINUOUS
 62
     7
 10
187.8579060487
 20
76.4743090787
 30
0.0
 40
2.500000000004112
 50
243.1260617002
 51
296.8739382998
  0
ARC
  5
1C0
  8
0
  6
CONTINUOUS
 62
     7
 10
186.2758044882
 20
73.3522977635
 30
0.0
 40
0.9999999999997158
 50
63.1260617001
 51
146.8739382997
  0
ARC
  5
1C1
  8
0
  6
CONTINUOUS
 62
     7
 10
183.3446586878
 20
75.2649880931
 30
0.0
 40
2.500000000001021
 50
273.964398853
 51
326.8739382997
  0
ARC
  5
1C2
  8
0
  6
CONTINUOUS
 62
     7
 10
183.5866368462
 20
71.7733628883
 30
0.0
 40
0.999999999999403
 50
93.9643988529
 51
177.1675466984
  0
ENDBLK
  5
1C4
  8
0
  0
BLOCK
  8
0
  2
SE40
 70
     0
 10
0.0
 20
0.0
 30
0.0
  3
SE40
  1

  0
INSERT
  5
1CA
  8
0
  2
SE41
 10
0.0
 20
0.0
 30
0.0
  0
ENDBLK
  5
1D4
  8
0
  0
BLOCK
  8
0
  2
SE41
 70
     0
 10
0.0
 20
0.0
 30
0.0
  3
SE41
  1

  0
LINE
  5
1CB
  8
0
  6
CONTINUOUS
 62
     7
 10
110.9429978594
 20
42.104771042
 30
0.0
 11
107.6179978594
 21
44.0244606871
 31
0.0
  0
LINE
  5
1CC
  8
0
  6
CONTINUOUS
 62
     7
 10
107.6179978594
 20
44.0244606871
 30
0.0
 11
107.6179978594
 21
47.8638399772
 31
0.0
  0
LINE
  5
1CD
  8
0
  6
CONTINUOUS
 62
     7
 10
107.6179978594
 20
47.8638399772
 30
0.0
 11
110.9429978594
 21
49.7835296223
 31
0.0
  0
LINE
  5
1CE
  8
0
  6
CONTINUOUS
 62
     7
 10
110.9429978594
 20
49.7835296223
 30
0.0
 11
114.2679978594
 21
47.8638399772
 31
0.0
  0
LINE
  5
1CF
  8
0
  6
CONTINUOUS
 62
     7
 10
114.2679978594
 20
47.8638399772
 30
0.0
 11
114.2679978594
 21
44.0244606871
 31
0.0
  0
LINE
  5
1D0
  8
0
  6
CONTINUOUS
 62
     7
 10
114.2679978594
 20
44.0244606871
 30
0.0
 11
110.9429978594
 21
42.104771042
 31
0.0
  0
ENDBLK
  5
1D2
  8
0
  0
BLOCK
  8
0
  2
SE42
 70
     0
 10
0.0
 20
0.0
 30
0.0
  3
SE42
  1

  0
INSERT
  5
1D8
  8
0
  2
SE43
 10
0.0
 20
0.0
 30
0.0
  0
ENDBLK
  5
1E2
  8
0
  0
BLOCK
  8
0
  2
SE43
 70
     0
 10
0.0
 20
0.0
 30
0.0
  3
SE43
  1

  0
LINE
  5
1D9
  8
0
  6
CONTINUOUS
 62
     7
 10
186.0570021407
 20
42.104771042
 30
0.0
 11
182.7320021407
 21
44.0244606871
 31
0.0
  0
LINE
  5
1DA
  8
0
  6
CONTINUOUS
 62
     7
 10
182.7320021407
 20
44.0244606871
 30
0.0
 11
182.7320021407
 21
47.8638399772
 31
0.0
  0
LINE
  5
1DB
  8
0
  6
CONTINUOUS
 62
     7
 10
182.7320021407
 20
47.8638399772
 30
0.0
 11
186.0570021407
 21
49.7835296223
 31
0.0
  0
LINE
  5
1DC
  8
0
  6
CONTINUOUS
 62
     7
 10
186.0570021407
 20
49.7835296223
 30
0.0
 11
189.3820021407
 21
47.8638399772
 31
0.0
  0
LINE
  5
1DD
  8
0
  6
CONTINUOUS
 62
     7
 10
189.3820021407
 20
47.8638399772
 30
0.0
 11
189.3820021407
 21
44.0244606871
 31
0.0
  0
LINE
  5
1DE
  8
0
  6
CONTINUOUS
 62
     7
 10
189.3820021407
 20
44.0244606871
 30
0.0
 11
186.0570021407
 21
42.104771042
 31
0.0
  0
ENDBLK
  5
1E0
  8
0
  0
BLOCK
  8
0
  2
*X45
 70
     1
 10
0.0
 20
0.0
 30
0.0
  3
*X45
  1

  0
TEXT
  5
1ED
  8
0
  6
CONTINUOUS
 62
     7
 10
103.7811382259
 20
7.9862817932
 30
0.0
 40
3.5
  1
Tilting Tablet Stand
  0
TEXT
  5
1EE
  8
0
  6
CONTINUOUS
 62
     7
 10
137.5281382259
 20
7.9862817932
 30
0.0
 40
3.5
  1
 - ZenziWerken - 6.5 mm plywood
  0
ENDBLK
  5
1F0
  8
0
  0
ENDSEC
  0
SECTION
  2
ENTITIES
  0
CIRCLE
  5
6E
  8
0
  6
CONTINUOUS
 62
     7
 10
137.1649623786
 20
40.196782697
 30
0.0
 40
2.0
  0
CIRCLE
  5
6F
  8
0
  6
CONTINUOUS
 62
     7
 10
159.8350376215
 20
40.196782697
 30
0.0
 40
2.0
  0
CIRCLE
  5
70
  8
0
  6
CONTINUOUS
 62
     7
 10
63.1395829794
 20
170.0563315465
 30
0.0
 40
2.0
  0
CIRCLE
  5
71
  8
0
  6
CONTINUOUS
 62
     7
 10
233.8604170207
 20
170.0563315465
 30
0.0
 40
2.0
  0
CIRCLE
  5
72
  8
0
  6
CONTINUOUS
 62
     7
 10
110.9429978594
 20
45.9441503321
 30
0.0
 40
2.0
  0
CIRCLE
  5
73
  8
0
  6
CONTINUOUS
 62
     7
 10
186.0570021407
 20
45.9441503321
 30
0.0
 40
2.0
  0
INSERT
  5
74
  8
0
  2
*X45
 10
0.0
 20
0.0
 30
0.0
  0
INSERT
  5
76
  8
0
  2
SE
 10
0.0
 20
0.0
 30
0.0
  0
INSERT
  5
8A
  8
0
  2
SE2
 10
0.0
 20
0.0
 30
0.0
  0
INSERT
  5
9E
  8
0
  2
SE4
 10
0.0
 20
0.0
 30
0.0
  0
INSERT
  5
AA
  8
0
  2
SE6
 10
0.0
 20
0.0
 30
0.0
  0
INSERT
  5
B6
  8
0
  2
SE8
 10
0.0
 20
0.0
 30
0.0
  0
INSERT
  5
C9
  8
0
  2
SE10
 10
0.0
 20
0.0
 30
0.0
  0
INSERT
  5
D5
  8
0
  2
SE12
 10
0.0
 20
0.0
 30
0.0
  0
INSERT
  5
E1
  8
0
  2
SE14
 10
0.0
 20
0.0
 30
0.0
  0
INSERT
  5
ED
  8
0
  2
SE16
 10
0.0
 20
0.0
 30
0.0
  0
INSERT
  5
100
  8
0
  2
SE18
 10
0.0
 20
0.0
 30
0.0
  0
INSERT
  5
10C
  8
0
  2
SE20
 10
0.0
 20
0.0
 30
0.0
  0
INSERT
  5
118
  8
0
  2
SE22
 10
0.0
 20
0.0
 30
0.0
  0
INSERT
  5
124
  8
0
  2
SE24
 10
0.0
 20
0.0
 30
0.0
  0
INSERT
  5
13C
  8
0
  2
SE26
 10
0.0
 20
0.0
 30
0.0
  0
INSERT
  5
148
  8
0
  2
SE28
 10
0.0
 20
0.0
 30
0.0
  0
INSERT
  5
154
  8
0
  2
SE30
 10
0.0
 20
0.0
 30
0.0
  0
INSERT
  5
16C
  8
0
  2
SE32
 10
0.0
 20
0.0
 30
0.0
  0
INSERT
  5
17A
  8
0
  2
SE34
 10
0.0
 20
0.0
 30
0.0
  0
INSERT
  5
19A
  8
0
  2
SE36
 10
0.0
 20
0.0
 30
0.0
  0
INSERT
  5
1A8
  8
0
  2
SE38
 10
0.0
 20
0.0
 30
0.0
  0
INSERT
  5
1C8
  8
0
  2
SE40
 10
0.0
 20
0.0
 30
0.0
  0
INSERT
  5
1D6
  8
0
  2
SE42
 10
0.0
 20
0.0
 30
0.0
  0
ENDSEC
  0
EOF
