<?xml version="1.0" encoding="utf-8"?>
<!-- Generator: Adobe Illustrator 19.2.1, SVG Export Plug-In . SVG Version: 6.00 Build 0)  -->
<svg version="1.1" id="Ebene_1" xmlns="http://www.w3.org/2000/svg" xmlns:xlink="http://www.w3.org/1999/xlink" x="0px" y="0px"
	 width="850.4px" height="708.7px" viewBox="0 0 850.4 708.7" style="enable-background:new 0 0 850.4 708.7;" xml:space="preserve"
	>
<style type="text/css">
	.st0{fill:none;stroke:#000000;stroke-width:0.7087;stroke-linecap:round;stroke-linejoin:round;stroke-miterlimit:10;}
	.st1{font-family:'ArialMT';}
	.st2{font-size:14.0131px;}
</style>
<g id="CIRCLE">
	<path class="st0" d="M387.3,505.7c0-3.1,2.5-5.7,5.7-5.7s5.7,2.5,5.7,5.7c0,3.1-2.5,5.7-5.7,5.7S387.3,508.8,387.3,505.7
		L387.3,505.7z"/>
</g>
<g id="CIRCLE_1_">
	<path class="st0" d="M451.6,505.7c0-3.1,2.5-5.7,5.7-5.7s5.7,2.5,5.7,5.7c0,3.1-2.5,5.7-5.7,5.7S451.6,508.8,451.6,505.7
		L451.6,505.7z"/>
</g>
<g id="CIRCLE_2_">
	<path class="st0" d="M177.5,137.5c0-3.1,2.5-5.7,5.7-5.7s5.7,2.5,5.7,5.7s-2.5,5.7-5.7,5.7S177.5,140.7,177.5,137.5L177.5,137.5z"
		/>
</g>
<g id="CIRCLE_3_">
	<path class="st0" d="M661.4,137.5c0-3.1,2.5-5.7,5.7-5.7s5.7,2.5,5.7,5.7s-2.5,5.7-5.7,5.7S661.4,140.7,661.4,137.5L661.4,137.5z"
		/>
</g>
<g id="CIRCLE_4_">
	<path class="st0" d="M313,489.4c0-3.1,2.5-5.7,5.7-5.7c3.1,0,5.7,2.5,5.7,5.7c0,3.1-2.5,5.7-5.7,5.7C315.5,495,313,492.5,313,489.4
		L313,489.4z"/>
</g>
<g id="CIRCLE_5_">
	<path class="st0" d="M525.9,489.4c0-3.1,2.5-5.7,5.7-5.7s5.7,2.5,5.7,5.7c0,3.1-2.5,5.7-5.7,5.7S525.9,492.5,525.9,489.4
		L525.9,489.4z"/>
</g>
<g id="INSERT_2_">
	<g id="INSERT_1_">
		<g id="LINE">
			<line class="st0" x1="609.7" y1="454.7" x2="609.7" y2="471.7"/>
		</g>
		<g id="LINE_1_">
			<line class="st0" x1="609.7" y1="471.7" x2="628.1" y2="471.7"/>
		</g>
		<g id="LINE_2_">
			<line class="st0" x1="628.1" y1="471.7" x2="628.1" y2="182.6"/>
		</g>
		<g id="LINE_3_">
			<line class="st0" x1="628.1" y1="182.6" x2="609.7" y2="182.6"/>
		</g>
		<g id="LINE_4_">
			<line class="st0" x1="609.7" y1="182.6" x2="609.7" y2="199.6"/>
		</g>
		<g id="LINE_5_">
			<line class="st0" x1="609.7" y1="199.6" x2="594.1" y2="199.6"/>
		</g>
		<g id="LINE_6_">
			<line class="st0" x1="594.1" y1="199.6" x2="594.1" y2="182.6"/>
		</g>
		<g id="LINE_7_">
			<line class="st0" x1="594.1" y1="182.6" x2="575.7" y2="182.6"/>
		</g>
		<g id="LINE_8_">
			<line class="st0" x1="575.7" y1="182.6" x2="575.7" y2="471.7"/>
		</g>
		<g id="LINE_9_">
			<line class="st0" x1="575.7" y1="471.7" x2="594.1" y2="471.7"/>
		</g>
		<g id="LINE_10_">
			<line class="st0" x1="594.1" y1="471.7" x2="594.1" y2="454.7"/>
		</g>
		<g id="LINE_11_">
			<line class="st0" x1="594.1" y1="454.7" x2="609.7" y2="454.7"/>
		</g>
	</g>
</g>
<g id="INSERT_4_">
	<g id="INSERT_3_">
		<g id="LINE_12_">
			<line class="st0" x1="227.8" y1="204.8" x2="246.2" y2="204.8"/>
		</g>
		<g id="LINE_13_">
			<line class="st0" x1="246.2" y1="204.8" x2="246.2" y2="221.8"/>
		</g>
		<g id="LINE_14_">
			<line class="st0" x1="246.2" y1="221.8" x2="261.8" y2="221.8"/>
		</g>
		<g id="LINE_15_">
			<line class="st0" x1="261.8" y1="221.8" x2="261.8" y2="204.8"/>
		</g>
		<g id="LINE_16_">
			<line class="st0" x1="261.8" y1="204.8" x2="280.2" y2="204.8"/>
		</g>
		<g id="LINE_17_">
			<line class="st0" x1="280.2" y1="204.8" x2="280.2" y2="457.1"/>
		</g>
		<g id="LINE_18_">
			<line class="st0" x1="280.2" y1="457.1" x2="261.8" y2="457.1"/>
		</g>
		<g id="LINE_19_">
			<line class="st0" x1="261.8" y1="457.1" x2="261.8" y2="440.1"/>
		</g>
		<g id="LINE_20_">
			<line class="st0" x1="261.8" y1="440.1" x2="246.2" y2="440.1"/>
		</g>
		<g id="LINE_21_">
			<line class="st0" x1="246.2" y1="440.1" x2="246.2" y2="457.1"/>
		</g>
		<g id="LINE_22_">
			<line class="st0" x1="246.2" y1="457.1" x2="227.8" y2="457.1"/>
		</g>
		<g id="LINE_23_">
			<line class="st0" x1="227.8" y1="457.1" x2="227.8" y2="204.8"/>
		</g>
	</g>
</g>
<g id="INSERT_6_">
	<g id="INSERT_5_">
		<g id="LINE_24_">
			<line class="st0" x1="314" y1="194.2" x2="330.7" y2="191"/>
		</g>
		<g id="LINE_25_">
			<line class="st0" x1="330.7" y1="191" x2="334.1" y2="209.1"/>
		</g>
		<g id="LINE_26_">
			<line class="st0" x1="334.1" y1="209.1" x2="317.4" y2="212.3"/>
		</g>
		<g id="LINE_27_">
			<line class="st0" x1="317.4" y1="212.3" x2="314" y2="194.2"/>
		</g>
	</g>
</g>
<g id="INSERT_8_">
	<g id="INSERT_7_">
		<g id="LINE_28_">
			<line class="st0" x1="320.4" y1="227.6" x2="337.1" y2="224.4"/>
		</g>
		<g id="LINE_29_">
			<line class="st0" x1="337.1" y1="224.4" x2="340.5" y2="242.5"/>
		</g>
		<g id="LINE_30_">
			<line class="st0" x1="340.5" y1="242.5" x2="323.8" y2="245.7"/>
		</g>
		<g id="LINE_31_">
			<line class="st0" x1="323.8" y1="245.7" x2="320.4" y2="227.6"/>
		</g>
	</g>
</g>
<g id="INSERT_10_">
	<g id="INSERT_9_">
		<g id="ARC">
			<path class="st0" d="M365.1,510.8c2.9,15.4,17.7,25.6,33,22.7c15.2-2.8,25.4-17.4,22.8-32.7"/>
		</g>
		<g id="ARC_1_">
			<path class="st0" d="M419.7,485.7c0,5.1,0.4,10.1,1.3,15.1"/>
		</g>
		<g id="LINE_32_">
			<line class="st0" x1="419.7" y1="485.7" x2="420.1" y2="120.9"/>
		</g>
		<g id="ARC_2_">
			<path class="st0" d="M420.1,120.9c0-7.8-6.3-14.2-14.2-14.2"/>
		</g>
		<g id="LINE_33_">
			<line class="st0" x1="405.9" y1="106.7" x2="238.3" y2="106.5"/>
		</g>
		<g id="ARC_3_">
			<path class="st0" d="M238.3,106.5c-7.8,0-14.2,6.3-14.2,14.2c0,1.7,0.3,3.3,0.8,4.8"/>
		</g>
		<g id="LINE_34_">
			<line class="st0" x1="225" y1="125.5" x2="240.4" y2="168.1"/>
		</g>
		<g id="ARC_4_">
			<path class="st0" d="M240.4,168.1c2.7,7.4,10.8,11.2,18.2,8.5c0.2-0.1,0.3-0.1,0.5-0.2"/>
		</g>
		<g id="ARC_5_">
			<path class="st0" d="M283.5,167.5c-8.2,2.7-16.4,5.6-24.4,8.9"/>
		</g>
		<g id="ARC_6_">
			<path class="st0" d="M301.8,178.3c-1.5-7.7-8.9-12.7-16.6-11.3c-0.6,0.1-1.2,0.3-1.7,0.4"/>
		</g>
		<g id="LINE_35_">
			<line class="st0" x1="301.8" y1="178.3" x2="365.2" y2="511.1"/>
		</g>
	</g>
</g>
<g id="INSERT_12_">
	<g id="INSERT_11_">
		<g id="ARC_7_">
			<path class="st0" d="M396.3,134.3c-46.6-0.4-92.9,7.9-136.4,24.7"/>
		</g>
		<g id="ARC_8_">
			<path class="st0" d="M255.9,148.4c-2.9,1.1-4.4,4.4-3.3,7.3s4.4,4.4,7.3,3.3"/>
		</g>
		<g id="ARC_9_">
			<path class="st0" d="M396.4,123c-48-0.4-95.7,8.2-140.6,25.4"/>
		</g>
		<g id="ARC_10_">
			<path class="st0" d="M396.3,134.3c3.1,0,5.7-2.5,5.7-5.6c0-3.1-2.5-5.7-5.6-5.7"/>
		</g>
	</g>
</g>
<g id="INSERT_14_">
	<g id="INSERT_13_">
		<g id="LINE_36_">
			<line class="st0" x1="536.3" y1="194.2" x2="519.6" y2="191"/>
		</g>
		<g id="LINE_37_">
			<line class="st0" x1="519.6" y1="191" x2="516.1" y2="209.1"/>
		</g>
		<g id="LINE_38_">
			<line class="st0" x1="516.1" y1="209.1" x2="532.8" y2="212.3"/>
		</g>
		<g id="LINE_39_">
			<line class="st0" x1="532.8" y1="212.3" x2="536.3" y2="194.2"/>
		</g>
	</g>
</g>
<g id="INSERT_16_">
	<g id="INSERT_15_">
		<g id="LINE_40_">
			<line class="st0" x1="529.9" y1="227.6" x2="513.2" y2="224.4"/>
		</g>
		<g id="LINE_41_">
			<line class="st0" x1="513.2" y1="224.4" x2="509.8" y2="242.5"/>
		</g>
		<g id="LINE_42_">
			<line class="st0" x1="509.8" y1="242.5" x2="526.5" y2="245.7"/>
		</g>
		<g id="LINE_43_">
			<line class="st0" x1="526.5" y1="245.7" x2="529.9" y2="227.6"/>
		</g>
	</g>
</g>
<g id="INSERT_18_">
	<g id="INSERT_17_">
		<g id="ARC_11_">
			<path class="st0" d="M429.3,500.9c-2.6,15.4,7.7,30.1,23.1,32.7c15.3,2.6,29.8-7.5,32.7-22.8"/>
		</g>
		<g id="ARC_12_">
			<path class="st0" d="M429.3,500.9c0.9-5,1.3-10,1.3-15.1"/>
		</g>
		<g id="LINE_44_">
			<line class="st0" x1="430.6" y1="485.7" x2="430.2" y2="120.9"/>
		</g>
		<g id="ARC_13_">
			<path class="st0" d="M444.4,106.7c-7.8,0-14.2,6.4-14.2,14.2"/>
		</g>
		<g id="LINE_45_">
			<line class="st0" x1="444.4" y1="106.7" x2="612" y2="106.5"/>
		</g>
		<g id="ARC_14_">
			<path class="st0" d="M625.3,125.5c2.7-7.4-1.1-15.5-8.5-18.2c-1.6-0.6-3.2-0.9-4.8-0.8"/>
		</g>
		<g id="LINE_46_">
			<line class="st0" x1="625.3" y1="125.5" x2="609.9" y2="168.1"/>
		</g>
		<g id="ARC_15_">
			<path class="st0" d="M591.2,176.4c7.3,2.9,15.5-0.5,18.5-7.8c0.1-0.2,0.1-0.3,0.2-0.5"/>
		</g>
		<g id="ARC_16_">
			<path class="st0" d="M591.2,176.4c-8-3.3-16.2-6.2-24.4-8.9"/>
		</g>
		<g id="ARC_17_">
			<path class="st0" d="M566.8,167.5c-7.4-2.4-15.4,1.7-17.9,9.1c-0.2,0.6-0.3,1.1-0.4,1.7"/>
		</g>
		<g id="LINE_47_">
			<line class="st0" x1="548.5" y1="178.3" x2="485.1" y2="511.1"/>
		</g>
	</g>
</g>
<g id="INSERT_20_">
	<g id="INSERT_19_">
		<g id="ARC_18_">
			<path class="st0" d="M590.3,159c-43.5-16.7-89.8-25.1-136.4-24.7"/>
		</g>
		<g id="ARC_19_">
			<path class="st0" d="M590.3,159c2.9,1.1,6.2-0.3,7.3-3.3c1.1-2.9-0.3-6.2-3.3-7.3"/>
		</g>
		<g id="ARC_20_">
			<path class="st0" d="M594.4,148.4c-44.8-17.2-92.5-25.8-140.6-25.4"/>
		</g>
		<g id="ARC_21_">
			<path class="st0" d="M453.9,123c-3.1,0-5.6,2.6-5.6,5.7c0,3.1,2.6,5.6,5.7,5.6"/>
		</g>
	</g>
</g>
<g id="INSERT_22_">
	<g id="INSERT_21_">
		<g id="LINE_48_">
			<line class="st0" x1="165.5" y1="406.4" x2="182.5" y2="406.4"/>
		</g>
		<g id="LINE_49_">
			<line class="st0" x1="182.5" y1="406.4" x2="182.5" y2="424.9"/>
		</g>
		<g id="LINE_50_">
			<line class="st0" x1="182.5" y1="424.9" x2="165.5" y2="424.9"/>
		</g>
		<g id="LINE_51_">
			<line class="st0" x1="165.5" y1="424.9" x2="165.5" y2="406.4"/>
		</g>
	</g>
</g>
<g id="INSERT_24_">
	<g id="INSERT_23_">
		<g id="LINE_52_">
			<line class="st0" x1="165.5" y1="440.5" x2="165.5" y2="458.9"/>
		</g>
		<g id="LINE_53_">
			<line class="st0" x1="165.5" y1="458.9" x2="182.5" y2="458.9"/>
		</g>
		<g id="LINE_54_">
			<line class="st0" x1="182.5" y1="458.9" x2="182.5" y2="440.5"/>
		</g>
		<g id="LINE_55_">
			<line class="st0" x1="182.5" y1="440.5" x2="165.5" y2="440.5"/>
		</g>
	</g>
</g>
<g id="INSERT_26_">
	<g id="INSERT_25_">
		<g id="ARC_22_">
			<path class="st0" d="M336.1,474.9c-2.7-7.4-10.8-11.1-18.2-8.5c-0.2,0.1-0.3,0.1-0.5,0.2"/>
		</g>
		<g id="ARC_23_">
			<path class="st0" d="M227.5,490.2c30.9-3.9,61.2-11.8,90-23.6"/>
		</g>
		<g id="ARC_24_">
			<path class="st0" d="M211.5,476.2c0,7.8,6.3,14.2,14.2,14.2c0.6,0,1.2,0,1.8-0.1"/>
		</g>
		<g id="LINE_56_">
			<line class="st0" x1="211.5" y1="476.2" x2="211.5" y2="137.5"/>
		</g>
		<g id="ARC_25_">
			<path class="st0" d="M211.5,137.5c0-15.7-12.7-28.3-28.3-28.3c-0.7,0-1.5,0-2.2,0.1"/>
		</g>
		<g id="ARC_26_">
			<path class="st0" d="M180.9,109.3c-18.7,1.5-37.3,4.2-55.7,8.1"/>
		</g>
		<g id="ARC_27_">
			<path class="st0" d="M125.2,117.4c-6.5,1.4-11.2,7.2-11.2,13.9"/>
		</g>
		<g id="LINE_57_">
			<line class="st0" x1="114" y1="131.3" x2="114" y2="138.1"/>
		</g>
		<g id="ARC_28_">
			<path class="st0" d="M114,138.1c0,7.8,6.3,14.2,14.2,14.2c1,0,2-0.1,3-0.3"/>
		</g>
		<g id="ARC_29_">
			<path class="st0" d="M139.6,150.2c-2.8,0.6-5.6,1.1-8.4,1.7"/>
		</g>
		<g id="ARC_30_">
			<path class="st0" d="M156.5,164.1c0-7.8-6.3-14.2-14.2-14.2c-0.9,0-1.8,0.1-2.7,0.3"/>
		</g>
		<g id="LINE_58_">
			<line class="st0" x1="156.5" y1="164.1" x2="156.5" y2="523"/>
		</g>
		<g id="ARC_31_">
			<path class="st0" d="M156.5,523c0,7.6,6.1,13.9,13.7,14.2"/>
		</g>
		<g id="ARC_32_">
			<path class="st0" d="M170.2,537.2c55.9,1.8,111.6-8.1,163.4-29.2"/>
		</g>
		<g id="ARC_33_">
			<path class="st0" d="M333.6,508c7.1-2.9,10.6-10.8,8-18"/>
		</g>
		<g id="LINE_59_">
			<line class="st0" x1="341.6" y1="490" x2="336.1" y2="474.9"/>
		</g>
	</g>
</g>
<g id="INSERT_28_">
	<g id="INSERT_27_">
		<g id="LINE_60_">
			<line class="st0" x1="684.8" y1="406.4" x2="667.8" y2="406.4"/>
		</g>
		<g id="LINE_61_">
			<line class="st0" x1="667.8" y1="406.4" x2="667.8" y2="424.9"/>
		</g>
		<g id="LINE_62_">
			<line class="st0" x1="667.8" y1="424.9" x2="684.8" y2="424.9"/>
		</g>
		<g id="LINE_63_">
			<line class="st0" x1="684.8" y1="424.9" x2="684.8" y2="406.4"/>
		</g>
	</g>
</g>
<g id="INSERT_30_">
	<g id="INSERT_29_">
		<g id="LINE_64_">
			<line class="st0" x1="684.8" y1="440.5" x2="684.8" y2="458.9"/>
		</g>
		<g id="LINE_65_">
			<line class="st0" x1="684.8" y1="458.9" x2="667.8" y2="458.9"/>
		</g>
		<g id="LINE_66_">
			<line class="st0" x1="667.8" y1="458.9" x2="667.8" y2="440.5"/>
		</g>
		<g id="LINE_67_">
			<line class="st0" x1="667.8" y1="440.5" x2="684.8" y2="440.5"/>
		</g>
	</g>
</g>
<g id="INSERT_32_">
	<g id="INSERT_31_">
		<g id="ARC_34_">
			<path class="st0" d="M532.8,466.7c-7.2-3-15.5,0.5-18.5,7.8c-0.1,0.2-0.1,0.3-0.2,0.5"/>
		</g>
		<g id="ARC_35_">
			<path class="st0" d="M532.8,466.7c28.8,11.8,59.1,19.7,90,23.6"/>
		</g>
		<g id="ARC_36_">
			<path class="st0" d="M622.8,490.2c7.8,1,14.9-4.5,15.8-12.3c0.1-0.6,0.1-1.2,0.1-1.8"/>
		</g>
		<g id="LINE_68_">
			<line class="st0" x1="638.8" y1="476.2" x2="638.8" y2="137.5"/>
		</g>
		<g id="ARC_37_">
			<path class="st0" d="M669.3,109.3c-15.6-1.2-29.3,10.4-30.5,26c-0.1,0.7-0.1,1.5-0.1,2.2"/>
		</g>
		<g id="ARC_38_">
			<path class="st0" d="M725.1,117.4c-18.4-3.9-37-6.7-55.7-8.1"/>
		</g>
		<g id="ARC_39_">
			<path class="st0" d="M736.3,131.3c0-6.7-4.7-12.5-11.2-13.9"/>
		</g>
		<g id="LINE_69_">
			<line class="st0" x1="736.3" y1="131.3" x2="736.3" y2="138.1"/>
		</g>
		<g id="ARC_40_">
			<path class="st0" d="M719.1,151.9c7.6,1.7,15.2-3.2,16.9-10.8c0.2-1,0.3-2,0.3-3"/>
		</g>
		<g id="ARC_41_">
			<path class="st0" d="M719.1,151.9c-2.8-0.6-5.6-1.2-8.4-1.7"/>
		</g>
		<g id="ARC_42_">
			<path class="st0" d="M710.6,150.2c-7.7-1.5-15.1,3.5-16.6,11.2c-0.2,0.9-0.3,1.8-0.3,2.7"/>
		</g>
		<g id="LINE_70_">
			<line class="st0" x1="693.7" y1="164.1" x2="693.7" y2="523"/>
		</g>
		<g id="ARC_43_">
			<path class="st0" d="M680,537.2c7.6-0.2,13.7-6.5,13.7-14.2"/>
		</g>
		<g id="ARC_44_">
			<path class="st0" d="M516.6,508c51.8,21.1,107.5,31,163.4,29.2"/>
		</g>
		<g id="ARC_45_">
			<path class="st0" d="M508.6,490c-2.6,7.2,0.9,15.1,8,18"/>
		</g>
		<g id="LINE_71_">
			<line class="st0" x1="508.6" y1="490" x2="514.1" y2="474.9"/>
		</g>
	</g>
</g>
<g id="INSERT_34_">
	<g id="INSERT_33_">
		<g id="LINE_72_">
			<line class="st0" x1="313.6" y1="439.3" x2="304.1" y2="433.8"/>
		</g>
		<g id="LINE_73_">
			<line class="st0" x1="304.1" y1="433.8" x2="304.1" y2="423"/>
		</g>
		<g id="LINE_74_">
			<line class="st0" x1="304.1" y1="423" x2="313.6" y2="417.5"/>
		</g>
		<g id="LINE_75_">
			<line class="st0" x1="313.6" y1="417.5" x2="323" y2="423"/>
		</g>
		<g id="LINE_76_">
			<line class="st0" x1="323" y1="423" x2="323" y2="433.8"/>
		</g>
		<g id="LINE_77_">
			<line class="st0" x1="323" y1="433.8" x2="313.6" y2="439.3"/>
		</g>
	</g>
</g>
<g id="INSERT_36_">
	<g id="INSERT_35_">
		<g id="ARC_46_">
			<path class="st0" d="M328.5,416c0.1,2.3,1.3,4.4,3.3,5.6"/>
		</g>
		<g id="ARC_47_">
			<path class="st0" d="M332.8,425.3c0.6-1.3,0.2-2.9-1-3.6"/>
		</g>
		<g id="ARC_48_">
			<path class="st0" d="M332.8,425.3c-1,2-1,4.3,0,6.3"/>
		</g>
		<g id="ARC_49_">
			<path class="st0" d="M331.9,435.3c1.2-0.8,1.6-2.4,1-3.7"/>
		</g>
		<g id="ARC_50_">
			<path class="st0" d="M331.9,435.3c-1.9,1.2-3.1,3.3-3.2,5.5"/>
		</g>
		<g id="ARC_51_">
			<path class="st0" d="M326,443.5c1.4-0.1,2.6-1.2,2.7-2.7"/>
		</g>
		<g id="ARC_52_">
			<path class="st0" d="M326,443.5c-2.3,0.1-4.3,1.3-5.5,3.2"/>
		</g>
		<g id="ARC_53_">
			<path class="st0" d="M316.8,447.7c1.3,0.7,2.9,0.2,3.7-1"/>
		</g>
		<g id="ARC_54_">
			<path class="st0" d="M316.8,447.7c-2-1-4.4-1-6.4,0"/>
		</g>
		<g id="ARC_55_">
			<path class="st0" d="M306.7,446.7c0.8,1.2,2.4,1.6,3.7,1"/>
		</g>
		<g id="ARC_56_">
			<path class="st0" d="M306.7,446.7c-1.2-1.9-3.3-3.1-5.5-3.2"/>
		</g>
		<g id="ARC_57_">
			<path class="st0" d="M298.5,440.8c0.1,1.4,1.2,2.6,2.7,2.7"/>
		</g>
		<g id="ARC_58_">
			<path class="st0" d="M298.5,440.8c-0.1-2.3-1.3-4.3-3.2-5.5"/>
		</g>
		<g id="ARC_59_">
			<path class="st0" d="M294.3,431.6c-0.7,1.3-0.2,2.9,1,3.7"/>
		</g>
		<g id="ARC_60_">
			<path class="st0" d="M294.3,431.6c1-2,1-4.4,0-6.4"/>
		</g>
		<g id="ARC_61_">
			<path class="st0" d="M295.3,421.5c-1.2,0.8-1.6,2.4-1,3.7"/>
		</g>
		<g id="ARC_62_">
			<path class="st0" d="M295.3,421.5c1.9-1.2,3.1-3.3,3.2-5.5"/>
		</g>
		<g id="ARC_63_">
			<path class="st0" d="M301.2,413.3c-1.4,0.1-2.6,1.2-2.7,2.7"/>
		</g>
		<g id="ARC_64_">
			<path class="st0" d="M301.2,413.3c2.3-0.1,4.3-1.3,5.5-3.2"/>
		</g>
		<g id="ARC_65_">
			<path class="st0" d="M310.4,409.1c-1.3-0.7-2.9-0.2-3.7,1"/>
		</g>
		<g id="ARC_66_">
			<path class="st0" d="M310.4,409.1c2,1,4.4,1,6.4,0"/>
		</g>
		<g id="ARC_67_">
			<path class="st0" d="M320.4,410.1c-0.8-1.2-2.4-1.6-3.7-1"/>
		</g>
		<g id="ARC_68_">
			<path class="st0" d="M320.4,410.1c1.2,1.9,3.2,3,5.4,3.2"/>
		</g>
		<g id="ARC_69_">
			<path class="st0" d="M328.5,416c-0.1-1.4-1.2-2.6-2.6-2.7"/>
		</g>
	</g>
</g>
<g id="INSERT_38_">
	<g id="INSERT_37_">
		<g id="LINE_78_">
			<line class="st0" x1="536.7" y1="439.3" x2="546.1" y2="433.8"/>
		</g>
		<g id="LINE_79_">
			<line class="st0" x1="546.1" y1="433.8" x2="546.1" y2="423"/>
		</g>
		<g id="LINE_80_">
			<line class="st0" x1="546.1" y1="423" x2="536.7" y2="417.5"/>
		</g>
		<g id="LINE_81_">
			<line class="st0" x1="536.7" y1="417.5" x2="527.3" y2="423"/>
		</g>
		<g id="LINE_82_">
			<line class="st0" x1="527.3" y1="423" x2="527.3" y2="433.8"/>
		</g>
		<g id="LINE_83_">
			<line class="st0" x1="527.3" y1="433.8" x2="536.7" y2="439.3"/>
		</g>
	</g>
</g>
<g id="INSERT_40_">
	<g id="INSERT_39_">
		<g id="ARC_70_">
			<path class="st0" d="M518.5,421.6c1.9-1.2,3.2-3.3,3.3-5.6"/>
		</g>
		<g id="ARC_71_">
			<path class="st0" d="M518.5,421.6c-1.2,0.8-1.7,2.3-1,3.6"/>
		</g>
		<g id="ARC_72_">
			<path class="st0" d="M517.4,431.6c1-2,1-4.3,0-6.3"/>
		</g>
		<g id="ARC_73_">
			<path class="st0" d="M517.4,431.6c-0.7,1.3-0.2,2.9,1,3.7"/>
		</g>
		<g id="ARC_74_">
			<path class="st0" d="M521.6,440.8c-0.1-2.3-1.3-4.3-3.2-5.5"/>
		</g>
		<g id="ARC_75_">
			<path class="st0" d="M521.6,440.8c0.1,1.4,1.2,2.6,2.7,2.7"/>
		</g>
		<g id="ARC_76_">
			<path class="st0" d="M529.8,446.7c-1.2-1.9-3.3-3.1-5.5-3.2"/>
		</g>
		<g id="ARC_77_">
			<path class="st0" d="M529.8,446.7c0.8,1.2,2.4,1.6,3.7,1"/>
		</g>
		<g id="ARC_78_">
			<path class="st0" d="M539.9,447.7c-2-1-4.4-1-6.4,0"/>
		</g>
		<g id="ARC_79_">
			<path class="st0" d="M539.9,447.7c1.3,0.7,2.9,0.2,3.7-1"/>
		</g>
		<g id="ARC_80_">
			<path class="st0" d="M549.1,443.5c-2.3,0.1-4.3,1.3-5.5,3.2"/>
		</g>
		<g id="ARC_81_">
			<path class="st0" d="M549.1,443.5c1.4-0.1,2.6-1.2,2.7-2.7"/>
		</g>
		<g id="ARC_82_">
			<path class="st0" d="M555,435.3c-1.9,1.2-3.1,3.3-3.2,5.5"/>
		</g>
		<g id="ARC_83_">
			<path class="st0" d="M555,435.3c1.2-0.8,1.6-2.4,1-3.7"/>
		</g>
		<g id="ARC_84_">
			<path class="st0" d="M556,425.2c-1,2-1,4.4,0,6.4"/>
		</g>
		<g id="ARC_85_">
			<path class="st0" d="M556,425.2c0.7-1.3,0.2-2.9-1-3.7"/>
		</g>
		<g id="ARC_86_">
			<path class="st0" d="M551.8,416c0.1,2.3,1.3,4.3,3.2,5.5"/>
		</g>
		<g id="ARC_87_">
			<path class="st0" d="M551.8,416c-0.1-1.4-1.2-2.6-2.7-2.7"/>
		</g>
		<g id="ARC_88_">
			<path class="st0" d="M543.6,410.1c1.2,1.9,3.3,3.1,5.5,3.2"/>
		</g>
		<g id="ARC_89_">
			<path class="st0" d="M543.6,410.1c-0.8-1.2-2.4-1.6-3.7-1"/>
		</g>
		<g id="ARC_90_">
			<path class="st0" d="M533.5,409.1c2,1,4.4,1,6.4,0"/>
		</g>
		<g id="ARC_91_">
			<path class="st0" d="M533.5,409.1c-1.3-0.7-2.9-0.2-3.7,1"/>
		</g>
		<g id="ARC_92_">
			<path class="st0" d="M524.4,413.3c2.2-0.2,4.2-1.3,5.4-3.2"/>
		</g>
		<g id="ARC_93_">
			<path class="st0" d="M524.4,413.3c-1.4,0.1-2.6,1.3-2.6,2.7"/>
		</g>
	</g>
</g>
<g id="INSERT_42_">
	<g id="INSERT_41_">
		<g id="LINE_84_">
			<line class="st0" x1="318.7" y1="500.2" x2="309.2" y2="494.8"/>
		</g>
		<g id="LINE_85_">
			<line class="st0" x1="309.2" y1="494.8" x2="309.2" y2="483.9"/>
		</g>
		<g id="LINE_86_">
			<line class="st0" x1="309.2" y1="483.9" x2="318.7" y2="478.5"/>
		</g>
		<g id="LINE_87_">
			<line class="st0" x1="318.7" y1="478.5" x2="328.1" y2="483.9"/>
		</g>
		<g id="LINE_88_">
			<line class="st0" x1="328.1" y1="483.9" x2="328.1" y2="494.8"/>
		</g>
		<g id="LINE_89_">
			<line class="st0" x1="328.1" y1="494.8" x2="318.7" y2="500.2"/>
		</g>
	</g>
</g>
<g id="INSERT_44_">
	<g id="INSERT_43_">
		<g id="LINE_90_">
			<line class="st0" x1="531.6" y1="500.2" x2="522.2" y2="494.8"/>
		</g>
		<g id="LINE_91_">
			<line class="st0" x1="522.2" y1="494.8" x2="522.2" y2="483.9"/>
		</g>
		<g id="LINE_92_">
			<line class="st0" x1="522.2" y1="483.9" x2="531.6" y2="478.5"/>
		</g>
		<g id="LINE_93_">
			<line class="st0" x1="531.6" y1="478.5" x2="541" y2="483.9"/>
		</g>
		<g id="LINE_94_">
			<line class="st0" x1="541" y1="483.9" x2="541" y2="494.8"/>
		</g>
		<g id="LINE_95_">
			<line class="st0" x1="541" y1="494.8" x2="531.6" y2="500.2"/>
		</g>
	</g>
</g>
<text transform="matrix(1 0 0 1 257.5187 605.4086)" class="st1 st2">Tilting Tablet Stand - ZenziWerken - 6.5 mm plywood</text>
</svg>
