<?xml version="1.0" encoding="UTF-8" standalone="no"?>
<!-- Created with Inkscape (http://www.inkscape.org/) -->

<svg
   xmlns:dc="http://purl.org/dc/elements/1.1/"
   xmlns:cc="http://creativecommons.org/ns#"
   xmlns:rdf="http://www.w3.org/1999/02/22-rdf-syntax-ns#"
   xmlns:svg="http://www.w3.org/2000/svg"
   xmlns="http://www.w3.org/2000/svg"
   xmlns:sodipodi="http://sodipodi.sourceforge.net/DTD/sodipodi-0.dtd"
   xmlns:inkscape="http://www.inkscape.org/namespaces/inkscape"
   width="990"
   height="765"
   id="svg2"
   version="1.1"
   inkscape:version="0.48.1 "
   sodipodi:docname="tropical puzzle.svg"
   inkscape:export-filename="C:\Users\Lauren\Pictures\puzzles\tropical puzzle.png"
   inkscape:export-xdpi="72"
   inkscape:export-ydpi="72">
  <defs
     id="defs4">
    <marker
       inkscape:stockid="Arrow1Lstart"
       orient="auto"
       refY="0.0"
       refX="0.0"
       id="Arrow1Lstart"
       style="overflow:visible">
      <path
         id="path7219"
         d="M 0.0,0.0 L 5.0,-5.0 L -12.5,0.0 L 5.0,5.0 L 0.0,0.0 z "
         style="fill-rule:evenodd;stroke:#000000;stroke-width:1.0pt;marker-start:none"
         transform="scale(0.8) translate(12.5,0)" />
    </marker>
  </defs>
  <sodipodi:namedview
     id="base"
     pagecolor="#ffffff"
     bordercolor="#666666"
     borderopacity="1.0"
     inkscape:pageopacity="0.0"
     inkscape:pageshadow="2"
     inkscape:zoom="0.7"
     inkscape:cx="416.53527"
     inkscape:cy="380.96625"
     inkscape:document-units="px"
     inkscape:current-layer="layer1"
     showgrid="true"
     inkscape:window-width="1280"
     inkscape:window-height="750"
     inkscape:window-x="-8"
     inkscape:window-y="-8"
     inkscape:window-maximized="1">
    <inkscape:grid
       type="xygrid"
       id="grid3755"
       empspacing="5"
       visible="true"
       enabled="false"
       snapvisiblegridlinesonly="true"
       units="in"
       spacingx="1in"
       spacingy="1in"
       dotted="false"
       originx="0.5in"
       originy="0.75in" />
  </sodipodi:namedview>
  <metadata
     id="metadata7">
    <rdf:RDF>
      <cc:Work
         rdf:about="">
        <dc:format>image/svg+xml</dc:format>
        <dc:type
           rdf:resource="http://purl.org/dc/dcmitype/StillImage" />
        <dc:title></dc:title>
      </cc:Work>
    </rdf:RDF>
  </metadata>
  <g
     inkscape:label="Layer 1"
     inkscape:groupmode="layer"
     id="layer1"
     transform="translate(0,-287.36218)">
    <path
       style="fill:none;stroke:#000000;stroke-width:0.01000000000000000;stroke-linejoin:miter;stroke-miterlimit:4;stroke-dashoffset:0;stroke-opacity:1;stroke-dasharray:none"
       d="m 45,354.86218 900,0 0,630 -900,0 z"
       id="rect2985" />
    <g
       id="g8389"
       style="stroke:#000000;stroke-width:0.01000000000000000;stroke-miterlimit:4;stroke-dasharray:none;stroke-linejoin:round;fill:none;stroke-opacity:1">
      <path
         sodipodi:nodetypes="ccsccsccsccsccsccsccscc"
         transform="translate(0,287.36218)"
         inkscape:connector-curvature="0"
         id="path3935"
         d="m 855,705.5 -6.06092,-38.4848 c -0.50508,-24.24366 21.89534,7.97955 24.24366,-17.67767 2.10305,-22.9774 -25.25381,1.51523 -24.24366,-14.64721 L 855,579.13193 C 854.49492,559.43396 828.18019,592.6193 831.26142,560.94919 832.719,545.9675 856.01015,571.05071 855,545.29182 l 0,-55.55839 c 0,-23.23351 -25.85056,9.75315 -24.74874,-15.65736 C 831.35736,448.56708 855,479.63191 855,457.91363 l 0,-52.02286 c 1.51523,-18.18275 25.07478,6.8976 25.25381,-14.14214 0.25522,-29.99129 -27.27412,1.01016 -25.25381,-14.64721 l 0,-65.15484 c 4.54569,-14.64721 22.35417,8.69798 25.75889,-13.63706 3.43192,-22.51343 -26.26397,8.5863 -25.75889,-16.16244 l 0,-57.07362 c -2.52538,-15.15228 -25.41323,9.59394 -25.25381,-17.67767 0.0935,-16.00178 24.24366,6.06092 25.25381,-10.6066 l 0,-77.27667 c 0.50508,-9.59645 23.4741,8.8301 23.73858,-8.08122 C 879.17481,83.539291 855.50508,114.96684 855,101.32978 L 855,59.5"
         style="fill:none;stroke:#000000;stroke-width:0.01000000000000000;stroke-linecap:butt;stroke-linejoin:round;stroke-miterlimit:4;stroke-opacity:1;stroke-dasharray:none;marker-start:none" />
      <path
         sodipodi:nodetypes="csccsccsccsccsccssscc"
         inkscape:connector-curvature="0"
         d="m 764.00571,944.93113 c 11.42316,-0.51355 17.70797,-10.93793 18.15884,-22.086 0.45074,-11.14473 -9.16924,-21.15232 -16.98744,-27.91459 L 765,858.07647 c 1.42857,-15 -20.31421,6.39966 -20.71429,-11.42858 -0.4531,-20.19106 20.35715,3.21429 20.71429,-13.92857 l 0,-54.64285 c -0.71429,-15.71429 17.69811,5.09295 20.71429,-15 C 788.3432,745.56337 763.57143,761.64789 765,747.36218 l 0,-52.85714 c -0.35714,-16.78572 -19.4427,15.35484 -23.21429,-6.42857 -6.23778,-36.02731 22.85715,-10.35715 23.21429,-25 l 0,-53.57143 c -2.14286,-12.14286 -16.23318,10.95593 -17.5,-9.64286 -1.56181,-25.39544 25,-10e-6 32.85714,-17.14286 0,0 6.18942,-14.51612 0.11799,-18.08755 -10.10119,-0.58066 -20.54162,-7.37198 -29.76525,-17.97955 -9.22364,-10.60757 -9.56107,-26.80127 -14.91313,-42.77374 -5.35207,-15.97249 -15.71874,-31.72373 -14.32319,-48.52583 1.39554,-16.8021 6.88392,-32.88519 17.9031,-45.98165 6.30814,-14.60554 16.72688,-21.93028 26.40158,-32.41041"
         style="fill:none;stroke:#000000;stroke-width:0.01000000000000000;stroke-linecap:butt;stroke-linejoin:round;stroke-miterlimit:4;stroke-opacity:1;stroke-dasharray:none;marker-start:none"
         id="path6693" />
      <path
         sodipodi:nodetypes="cccc"
         inkscape:connector-curvature="0"
         d="m 692.08901,449.06467 c 11.84415,-14.73605 9.06907,-16.95143 29.60537,-35.97373 14.58324,-16.2901 26.67887,-27.39194 44.05188,-36.10813 L 765,346.86218"
         style="fill:none;stroke:#000000;stroke-width:0.01000000000000000;stroke-linecap:butt;stroke-linejoin:round;stroke-miterlimit:4;stroke-opacity:1;stroke-dasharray:none;marker-start:none"
         id="path6663" />
      <path
         sodipodi:nodetypes="cccscccccccscc"
         inkscape:connector-curvature="0"
         d="m 674.24348,826.77016 c 18.45812,2.97571 35.53348,24.88332 52.19311,41.5142 -16.41165,-9.6082 -27.17832,-13.2602 -37.97858,-10.87982 -14.83528,1.48277 -19.24125,11.18326 -25.38346,11.9474 -8.87698,1.10437 -10.18873,-2.74187 -12.88904,-2.38022 0,0 4.34016,2.12207 9.71555,5.33299 7.64689,4.37588 9.90192,10.22265 12.89836,18.64201 4.33133,9.48099 11.87795,14.56737 22.48946,18.51652 12.4551,3.57045 24.52298,11.51281 34.08184,19.48433 10.60035,6.37997 20.58052,16.72717 34.62706,16.03473 L 765,951.852 c 0.50508,11.61676 24.85098,-9.03279 24.24366,8.08122 -0.54787,15.43869 -22.22335,1.51523 -24.24366,11.11168 l 0,21.81728"
         style="fill:none;stroke:#000000;stroke-width:0.01000000000000000;stroke-linecap:butt;stroke-linejoin:round;stroke-miterlimit:4;stroke-opacity:1;stroke-dasharray:none;marker-start:none"
         id="path3937" />
      <path
         sodipodi:nodetypes="cssccsccsccscc"
         inkscape:connector-curvature="0"
         id="path6680"
         d="m 646.12612,894.07242 c -6.58546,-4.39455 -13.80662,-10.15097 -15.30135,-17.05733 -2.61053,-12.06193 -2.30245,-26.59799 7.17786,-35.8604 C 649.80149,829.62703 654.40254,826.25871 675,827.0982 l 0,-62.62946 c -0.50508,-14.64721 17.46674,29.52354 25.25381,-3.53553 4.63725,-19.68688 -30.30457,8.5863 -25.25381,-25.75889 l 0,-55.05331 c -0.50508,-16.66752 -26.16509,5.72316 -26.26397,-11.11168 -0.14142,-24.08019 25.25382,6.56599 26.26397,-14.64721 l 0,-62.62946 c -0.50508,-12.12183 -25.641,14.6432 -20.70813,-15.65737 3.4907,-21.44187 19.69798,14.64722 20.70813,-12.12183 l 0.0893,-7.66271"
         style="fill:none;stroke:#000000;stroke-width:0.01000000000000000;stroke-linecap:butt;stroke-linejoin:round;stroke-miterlimit:4;stroke-opacity:1;stroke-dasharray:none;marker-start:none" />
      <path
         sodipodi:nodetypes="ccccsscc"
         inkscape:connector-curvature="0"
         d="m 647.94866,540.46624 c 7.50922,-5.15178 16.43839,-10.42449 18.49018,-22.93473 2.74237,-11.56395 0.0229,-22.99709 2.83922,-34.51167 5.64938,-14.86602 15.85341,-23.9873 22.87925,-32.97929 C 691.08588,421.46912 677.24289,411.07428 675,407.37982 c -6.42568,-10.58428 -24.74874,9.09137 -23.23351,-15.15229 0.75745,-12.11921 23.73859,2.52538 23.23351,-8.08122 l 0,-37.28409"
         style="fill:none;stroke:#000000;stroke-width:0.01000000000000000;stroke-linecap:butt;stroke-linejoin:round;stroke-miterlimit:4;stroke-opacity:1;stroke-dasharray:none;marker-start:none"
         id="path3939" />
      <path
         sodipodi:nodetypes="ccsccsccsccsccsccsccscc"
         transform="translate(0,287.36218)"
         inkscape:connector-curvature="0"
         id="path3941"
         d="m 585,705.5 0,-27.8782 c 1.01015,-13.63705 23.23351,9.59645 23.73858,-12.6269 0.46287,-20.36615 -23.2335,3.53553 -23.73858,-13.63706 l -8.08122,-73.23606 c -0.50508,-16.66751 16.62947,7.03953 21.2132,-11.11167 8.37147,-33.15035 -18.18274,1.01015 -21.2132,-12.62691 L 585,491.24866 c 1.51523,-9.59645 24.83891,3.70293 25.25381,-13.63706 0.56395,-23.56889 -24.74873,4.54569 -25.25381,-12.12183 l 4.04061,-66.67007 c -1.01015,-14.64721 -23.35667,21.09371 -23.23351,-13.63706 0.19269,-54.33507 20.70813,1.01015 23.23351,-15.65737 l 6.06092,-62.62944 c -2.02031,-12.62691 -26.0339,8.91696 -26.26397,-13.13199 -0.20053,-19.21842 24.74874,4.54569 26.26397,-13.63706 L 585,223.05316 c 0,-9.09137 24.74874,10.26988 26.26397,-9.09137 1.90468,-24.33761 -28.28428,5.55584 -26.26397,-19.1929 l 0,-68.1853 c 0,-12.12183 30.08141,20.36549 30.30458,-13.13198 C 615.4315,94.400692 588.03046,129.10897 585,100.8247 L 585,59.5"
         style="fill:none;stroke:#000000;stroke-width:0.01000000000000000;stroke-linecap:butt;stroke-linejoin:round;stroke-miterlimit:4;stroke-opacity:1;stroke-dasharray:none;marker-start:none" />
      <path
         sodipodi:nodetypes="ccsccsccsccsccsccsccscc"
         transform="translate(0,287.36218)"
         inkscape:connector-curvature="0"
         id="path3945"
         d="m 405,705.5 6.06092,-31.91881 c 4.54568,-12.6269 -24.39669,9.58529 -24.24366,-19.19289 0.16955,-31.88343 17.17259,7.57614 24.24366,-9.59645 l -14.14214,-70.2056 c -3.03046,-15.65737 -25.75889,2.65104 -25.75889,-10.60661 0,-34.85026 23.73858,-5.05076 25.75889,-11.11167 L 405,486.70297 c 0,-14.64721 -18.7651,9.8945 -17.17259,-14.14213 2.37435,-35.83764 16.16244,6.06091 17.17259,-9.59645 l 0,-70.71068 c 0.50508,-10.6066 24.68559,11.42163 23.23351,-12.62691 -1.27483,-21.11302 -21.2132,5.05077 -23.23351,-10.6066 l 0,-61.11423 c -1.01015,-17.17259 -26.33444,2.64015 -26.26397,-16.16244 0.12257,-32.69997 27.27412,4.04061 26.26397,-16.66751 l -6.06092,-60.10408 c 4.04061,-16.16244 25.18029,15.2501 27.27412,-10.6066 1.58185,-19.53425 -30.30458,2.0203 -27.27412,-11.61676 L 405,117.49222 C 400.95939,105.37039 370.56112,134.69335 377.2208,109.411 382.51701,89.304873 402.47462,107.39069 405,96.784091 L 405,59.5"
         style="fill:none;stroke:#000000;stroke-width:0.01000000000000000;stroke-linecap:butt;stroke-linejoin:round;stroke-miterlimit:4;stroke-opacity:1;stroke-dasharray:none;marker-start:none" />
      <path
         sodipodi:nodetypes="ccsccccsccsccsccsccscc"
         transform="translate(0,287.36218)"
         inkscape:connector-curvature="0"
         id="path3947"
         d="m 315,59.5 -4.04061,37.051123 c -0.71429,17.857137 18.42883,-7.685602 22.85714,15.714277 3.50469,18.51931 -23.57143,-2.85714 -22.85714,12.14286 L 315,157.89832 l 0,87.88327 -6.06092,31.23872 c 0.71429,15 23.11562,-3.05933 21.60189,14.79079 -2.5226,29.74674 -20.17332,1.63778 -21.60189,12.35207 l 12.12184,60.36765 c 1.42857,18.57143 26.43904,-8.37921 29.28571,14.28571 2.27914,18.1462 -22.85714,-3.57143 -29.28571,10 L 315,458.57143 c 1.42857,16.42857 20.27584,-12.22818 20.71429,7.85714 0.64201,29.41095 -16.42858,0 -20.71429,16.42857 L 308.93908,535 c -7.85714,13.57143 -20.94164,-9.42967 -23.57143,9.28571 -2.53735,18.0575 17.14286,-7.14285 23.57143,10 l 0,84.28572 C 305.36765,649.28571 288.95303,621.89151 287.51051,650 c -0.87152,16.98206 17.85714,0.71429 21.42857,12.85714 L 315,705.5"
         style="fill:none;stroke:#000000;stroke-width:0.01000000000000000;stroke-linecap:butt;stroke-linejoin:round;stroke-miterlimit:4;stroke-opacity:1;stroke-dasharray:none;marker-start:none" />
      <path
         sodipodi:nodetypes="ccsccsccsccssc"
         inkscape:connector-curvature="0"
         id="path6576"
         d="m 225,992.86218 0,-35.85714 c 2.85714,-26.78572 29.49143,-6.3115 21.78571,-23.21429 -9.46462,-20.76101 -22.85714,12.5 -21.78571,-4.64286 l 0,-52.14285 c 2.14286,-13.21429 17.67546,21.78151 18.21429,-11.07143 0.6332,-38.60755 -18.92858,6.78571 -18.21429,-13.57143 l -8.08122,-79.88796 c 5.35714,-13.21429 22.09219,14.39201 23.57143,-11.07143 0.99764,-17.17333 -23.21429,4.64286 -23.57143,-11.78571 L 225,701.29075 c 1.78571,-18.21428 18.88976,4.76593 20,-16.78571 0.73326,-14.23382 -20.35714,4.04762 -20,-5.35715 0.0995,-2.6207 0.18992,-5.36169 0.27184,-8.20645"
         style="fill:none;stroke:#000000;stroke-width:0.01000000000000000;stroke-linecap:butt;stroke-linejoin:round;stroke-miterlimit:4;stroke-opacity:1;stroke-dasharray:none;marker-start:none" />
      <path
         sodipodi:nodetypes="ccsccscc"
         inkscape:connector-curvature="0"
         id="path3949"
         d="M 224.30456,534.85922 C 224.07787,517.58696 225,507.36218 225,507.36218 c 0,-12.14286 -22.50372,2.87032 -20.35714,-16.42857 3.38945,-30.47297 21.07143,1.78571 20.35714,-13.21429 l 0,-69.64286 c 1.42857,-7.14285 25.61293,9.2481 26.42857,-8.57142 1.6492,-36.03073 -27.14286,1.07142 -26.42857,-11.42858 l 0,-41.21428"
         style="fill:none;stroke:#000000;stroke-width:0.01000000000000000;stroke-linecap:butt;stroke-linejoin:round;stroke-miterlimit:4;stroke-opacity:1;stroke-dasharray:none;marker-start:none" />
      <path
         sodipodi:nodetypes="ccsccsccsccsccsccsccsccsscccscscscsccsc"
         inkscape:connector-curvature="0"
         d="m 37,444.86218 42.802051,0 c 16.162441,5.05076 -15.813619,28.96324 11.111678,27.27412 28.580421,-1.79296 -1.010152,-25.25381 15.152291,-27.27412 l 65.65991,0 c 16.42857,2.14286 -14.10029,26.08016 10.10153,25.71429 28.06126,-0.42423 -4.30674,-26.42858 12.12183,-25.71429 l 62.0101,8.08122 c 25,-9.28571 -4.78191,-21.23351 16.42857,-28.57143 26.75416,-9.25579 -2.85714,27.14286 12.14286,28.57143 l 61.18347,-8.08122 c 17.14285,-0.71429 -11.90209,-24.47331 12.85714,-25.71429 26.38638,-1.32253 -2.14286,24.28572 15.71428,25.71429 l 57.14286,6.06092 c 15.71429,-2.85714 -17.74486,-20.99163 16.42857,-22.14286 38.05235,-1.2819 1.42857,20 17.85715,22.14286 l 63.57142,-6.06092 c 25,-0.71429 -10.88447,22.21673 16.42858,18.57143 21.85441,-2.91677 -2.14286,-10 14.28571,-18.57143 l 58.57143,0 c 15.71428,-2.14286 -15.13924,21.52782 15.71428,18.57143 23.13253,-2.21657 3.60109,-17.14657 16.42858,-18.57143 l 41.08588,3.74979 c 0,0 -6.41173,23.95525 -1.50743,39.8569 1.54793,5.01901 1.09857,8.36804 3.14856,11.62075 5.07482,8.0522 4.26484,-5.38133 8.31163,-10.23409 7.66816,20.98102 7.67175,27.9142 3.61116,36.4223 7.82855,13.93971 9.62641,25.72404 12.3328,33.63673 11.40235,-1.26861 24.05477,5.73064 33.2414,6.54473 14.70558,1.30313 24.97525,2.9591 29.65483,-1.70078 -7.64957,-4.23144 -12.17805,-13.10724 -15.01676,-21.32452 -2.89146,-8.37012 -7.63041,-15.70829 -1.37275,-26.5309 0,0 10.75388,6.05171 16.65869,7.59183 6.1207,1.59639 8.79093,1.30131 18.9116,1.56696 -6.19218,-6.3109 -12.61464,-5.73239 -15.65986,-19.92899 -3.4973,-16.30417 9.44504,-25.93813 10.27991,-27.38728 -15.97198,-0.72266 -19.85873,19.32286 -33.10549,15.33673 0,0 -3.73151,-18.60694 -14.23283,-30.65686 -10.50133,-12.04993 -19.74179,-28.67638 -7.9053,-53.87591"
         style="fill:none;stroke:#000000;stroke-width:0.01000000000000000;stroke-linecap:butt;stroke-linejoin:round;stroke-miterlimit:4;stroke-opacity:1;stroke-dasharray:none;marker-start:none"
         id="path6689" />
      <path
         sodipodi:nodetypes="ccscsccscc"
         inkscape:connector-curvature="0"
         id="path3955"
         d="m 735.53571,444.95147 24.099,-0.0893 c 14.14214,-2.02031 -7.19987,-24.67339 12.12183,-24.24366 32.49676,0.72275 -15.71304,32.32488 36.81489,24.24366 18.57143,-3.57143 -2.70533,-19.22354 16.42857,-19.28571 18.49997,-0.0601 -2.14286,17.85714 16.42857,19.28571 l 46.30603,10.10153 c 22.14285,2.85714 -5.51702,-26.71953 15,-23.57143 20.86443,3.20141 2.14285,18.57143 15.71428,23.57143 L 953,444.86218"
         style="fill:none;stroke:#000000;stroke-width:0.01000000000000000;stroke-linecap:butt;stroke-linejoin:round;stroke-miterlimit:4;stroke-opacity:1;stroke-dasharray:none;marker-start:none" />
      <path
         sodipodi:nodetypes="csscsc"
         inkscape:connector-curvature="0"
         id="path6580"
         d="m 37,534.86218 43.812203,4.04061 c 22.129437,2.0409 -7.973927,-29.7472 15.152288,-29.29442 21.246179,0.41596 -3.030457,27.27411 16.162439,29.29442 7.07107,0.50508 13.91566,-0.36295 27.28425,-1.53887 19.43841,-1.70983 27.07432,8.67307 43.23676,-2.43861"
         style="fill:none;stroke:#000000;stroke-width:0.01000000000000000;stroke-linecap:butt;stroke-linejoin:round;stroke-miterlimit:4;stroke-opacity:1;stroke-dasharray:none;marker-start:none" />
      <path
         sodipodi:nodetypes="ccscccscssccsccsscsc"
         inkscape:connector-curvature="0"
         id="path6676"
         d="m 224.28571,534.86218 36.33365,-2.02031 c 18.18275,-1.01015 -8.13443,-29.20942 14.14214,-27.27412 21.67857,1.88335 0,24.24366 16.16244,27.27412 l 22.22335,2.02031 119.198,0 c 19.1929,1.01015 -12.60176,35.31703 14.14214,32.32488 29.37098,-3.28607 5.05076,-29.29442 17.17259,-32.32488 l 60.60915,0 c 22.22336,0 -5.82457,19.02366 13.13198,27.27412 30.3278,13.19956 8.08122,-26.26397 18.18275,-27.27412 l 57.5787,0 c 19.19289,2.02031 -9.01947,-15.27041 18.96884,-22.59742 32.09153,-8.40118 -2.33196,23.16114 15.80862,28.14804 8.61606,0.56996 8.60423,1.83637 1.0721,5.98801 17.32265,0.48088 17.66726,1.44777 25.98698,9.80188 0.95441,0.95836 2.01378,2.01393 3.21577,3.17714 6.74443,6.52683 8.81109,7.26219 17.11254,8.27447 11.90332,0.6514 25.26023,5.85155 29.54415,4.37489 4.4331,-1.52807 -12.88741,-12.19553 -7.17475,-12.11463"
         style="fill:none;stroke:#000000;stroke-width:0.01000000000000000;stroke-linecap:butt;stroke-linejoin:round;stroke-miterlimit:4;stroke-opacity:1;stroke-dasharray:none;marker-start:none" />
      <path
         sodipodi:nodetypes="ccsccscc"
         inkscape:connector-curvature="0"
         id="path3957"
         d="m 766.07143,544.5558 32.95923,-4.64286 c 16.16244,7.07107 -7.42239,25.16123 14.14214,23.23351 20.95935,-1.87362 0,-23.23351 16.16244,-28.28427 l 58.58885,0 c 18.18274,1.01015 -13.33199,-23.82846 15.15229,-23.23351 28.85781,0.60276 0,16.16244 16.16244,23.23351 l 33.76118,0"
         style="fill:none;stroke:#000000;stroke-width:0.01000000000000000;stroke-linecap:butt;stroke-linejoin:round;stroke-miterlimit:4;stroke-opacity:1;stroke-dasharray:none;marker-start:none" />
      <path
         sodipodi:nodetypes="ccsccsccsccsccsccsccsccscscscsccsscsscscscsc"
         inkscape:connector-curvature="0"
         id="path6566"
         d="m 953,624.86218 -32.75128,0.0363 c -23.23351,13.13198 7.42235,28.56509 -19.19434,32.35008 -24.03516,3.41789 8.08126,-26.23729 -16.1624,-32.2982 l -59.59443,0.0874 c -20.20305,0 0.70548,-23.44138 -19.19434,-26.23728 -22.23991,-3.12467 5.04783,23.25871 -16.16537,26.28917 l -60.60606,0.0889 c -18.18274,1.01015 12.85738,24.02075 -16.16389,28.30651 -20.31169,2.99956 4.03916,-23.21276 -13.13343,-28.26352 l -52.52337,0.0771 c -20.20306,3.03046 2.4951,38.24306 -28.28869,29.31814 -31.02115,-8.99372 10.10453,-22.19964 -4.03761,-29.27071 l -60.6105,0.0889 c -13.13199,-2.02031 7.08124,-23.3356 -14.14211,-24.22439 -22.0503,-0.92343 5.05672,24.26588 -14.13617,24.26588 l -62.63674,0.0919 c -18.18274,-4.04061 7.98968,-29.50224 -17.17256,-28.25907 -20.61862,1.01868 1.01315,30.32532 -14.13914,28.30502 l -54.5496,0.08 c -22.22335,-1.01015 0.37366,-20.35146 -17.17256,-21.19097 -29.14591,-1.39451 8.07978,20.22973 -16.16388,21.23989 l -49.49589,0.0726 c -15.15229,-3.03045 6.45921,27.77943 -14.14063,23.24685 -26.52642,-5.83661 3.70216,-35.32668 -23.40507,-23.34991 -0.93272,-1.88736 -1.56449,-2.83865 -2.82455,-4.93794 -4.03381,-6.7204 -9.35339,-12.82166 -10.5605,-21.01253 4.27578,-5.07544 10.15681,-7.37938 17.01113,-4.94027 6.85432,2.43912 16.49504,0.10837 20.65913,-7.02322 1.62025,-7.65597 -7.19587,-13.32703 -14.43192,-14.98846 -7.23604,-1.66143 -15.3126,1.18809 -21.524,5.38726 -7.03408,3.23517 -10.29603,-7.32381 -15.33288,-10.91485 -3.11102,-7.86524 3.60464,-16.65045 0.13431,-23.7756 -5.13012,-10.53297 -16.44321,-17.66127 -27.79487,-21.51279 -11.35168,-3.85148 -25.77079,-5.43789 -32.98543,-5.52592 -6.25503,2.36456 1.29932,9.66176 6.10708,14.17965 4.80774,4.5179 15.25726,7.74359 22.47224,11.80936 7.21499,4.06575 14.79426,9.56612 15.48454,18.44909 -13.85925,-0.47127 -28.09581,2.89323 -40.20809,9.43694 -7.02066,3.79295 -12.01585,10.56246 -17.34982,16.49447 -7.08413,-3.78418 -13.21987,-8.85428 -22.73409,-8.27723 -9.51424,0.57704 -17.73313,13.73006 -16.63552,24.01272 5.96491,3.03852 13.78184,-1.5966 20.05861,-0.12219 6.27679,1.47443 16.70285,0.54184 8.77049,10.95484"
         style="fill:none;stroke:#000000;stroke-width:0.01000000000000000;stroke-linecap:butt;stroke-linejoin:round;stroke-miterlimit:4;stroke-opacity:1;stroke-dasharray:none;marker-start:none" />
      <path
         sodipodi:nodetypes="csscsscscsscssccssc"
         inkscape:connector-curvature="0"
         d="m 257.31411,625.6165 c 2.27102,4.60615 2.91982,10.05022 0.18804,15.67784 -3.76047,7.74678 -10.48209,13.88227 -17.00622,19.53769 -5.81871,5.04391 -12.5391,10.88417 -19.40142,12.54067 -6.33409,3.13627 -5.02631,-9.20531 -2.74346,-14.3763 2.2829,-5.17096 5.88537,-8.83088 12.0081,-17.13716 6.12271,-8.30627 7.46389,-14.4101 6.18107,-21.62861 -4.31718,7.34276 -19.57469,14.25704 -31.10234,16.11388 -10.52213,1.69487 -22.58363,-2.75426 -31.57195,-5.0499 -0.037,5.42082 -0.30253,11.45393 -1.16411,17.61368 -0.86157,6.15974 -6.48134,9.42821 -13.03708,8.60422 -6.55574,-0.824 -11.65392,-4.61638 -17.10151,-7.67002 -8.63275,-6.03765 3.535,-11.06008 7.6244,-15.27963 4.08938,-4.21955 10.73289,-8.54215 2.66332,-12.45534 -3.1605,-1.53263 -8.78228,-3.10856 -6.94079,-8.82064 0,0 -17.62079,1.47377 -40.8543,11.5753 -18.485267,-6.06092 8.98968,-23.87443 -25.253809,-20.20305 -27.82195,2.9829 1.961894,16.66752 -5.050763,20.20305 -8.756281,4.41461 -27.722863,0 -37.751288,0"
         style="fill:none;stroke:#000000;stroke-width:0.01000000000000000;stroke-linecap:butt;stroke-linejoin:round;stroke-miterlimit:4;stroke-opacity:1;stroke-dasharray:none;marker-start:none"
         id="path6547" />
      <path
         sodipodi:nodetypes="ccsccsccsccsccscc"
         inkscape:connector-curvature="0"
         id="path6572"
         d="m 135,992.86218 0,-40.00003 c 1.01015,-20.20305 27.13598,6.92475 28.28427,-13.63706 1.24475,-22.28907 -23.73858,1.51523 -28.28427,-15.15228 l 0,-65.15484 c 3.03046,-16.16244 19.27747,9.68963 21.2132,-15.15229 1.77185,-22.73871 -18.18274,7.57614 -21.2132,-12.12183 l 0,-54.04316 c -2.52538,-21.71828 -26.8815,7.87735 -25.75889,-14.64721 1.09669,-22.00454 23.73858,6.06091 25.75889,-14.14214 l 1.45074,-60.10214 c -0.50507,-25.25382 -24.20616,8.95227 -29.95034,-8.56219 -9.252781,-28.21247 13.917,-5.58902 18.96776,-21.24639 -6.06092,-29.29442 20.34358,-45.65945 20.34358,-45.65945 16.01776,-10.45952 31.47289,-16.46353 47.51246,-20.8503 15.07974,-4.12427 33.71786,-7.2784 47.14297,-5.80152 0.52272,7.64614 2.68557,7.04056 3.61771,13.25021"
         style="fill:none;stroke:#000000;stroke-width:0.01000000000000000;stroke-linecap:butt;stroke-linejoin:round;stroke-miterlimit:4;stroke-opacity:1;stroke-dasharray:none;marker-start:none" />
      <path
         sodipodi:nodetypes="ccsccscc"
         inkscape:connector-curvature="0"
         id="path6552"
         d="m 135,346.86218 0.91657,39.3029 c 1.01015,15.65737 -24.9109,-3.57985 -24.81009,14.64901 0.14557,26.3236 23.11261,-2.53663 25.63799,13.62581 l 1.74404,59.56272 c -3.03046,21.21321 25.46736,-3.70326 25.1629,14.64988 -0.58949,35.53583 -24.37803,-5.52233 -24.37803,12.15534 l 0.2723,36.37654"
         style="fill:none;stroke:#000000;stroke-width:0.01000000000000000;stroke-linecap:butt;stroke-linejoin:round;stroke-miterlimit:4;stroke-opacity:1;stroke-dasharray:none;marker-start:none" />
      <path
         sodipodi:nodetypes="ccsccsccsccsccsccsccsccsccsccscc"
         transform="translate(0,287.36218)"
         inkscape:connector-curvature="0"
         id="path3963"
         d="m 37,427.5 38.761441,0 c 19.192898,7.07107 -11.859857,30.58012 13.131983,30.30458 C 114.65828,457.52051 91.923882,427.5 104.04571,427.5 l 60.60915,8.08122 c 17.1726,-3.03046 -14.49918,-28.38984 11.11168,-29.29442 25.59939,-0.90418 1.01016,26.26396 18.18275,29.29442 L 258.59905,427.5 c 20.20305,6.06092 -4.26719,27.49092 17.17259,29.29442 23.39074,1.96762 -4.04061,-34.34518 17.1726,-29.29442 l 45.45686,0 c 21.21321,-1.01015 -20.79326,-22.49816 23.23351,-20.20305 20.71685,1.07997 7.07107,21.2132 17.17259,20.20305 l 53.53809,0 c 18.18275,2.02031 -0.91822,27.95839 17.17259,28.28427 39.05524,0.70353 -3.03045,-27.27412 21.21321,-28.28427 l 59.599,8.08122 c 12.12183,0 -20.2012,-42.86549 6.06092,-29.29442 46.69778,24.13129 6.06091,28.28427 25.25381,29.29442 L 610.13214,427.5 c 14.14213,-5.05076 -11.41341,-23.48441 14.14213,-22.22336 34.07157,1.68129 -3.03045,20.20305 15.15229,22.22336 l 62.62945,-4.04061 c 18.18275,0 -6.34289,29.58942 15.15229,27.27412 27.68725,-2.98227 -3.03046,-19.1929 16.16244,-27.27412 L 793.9799,427.5 c 19.1929,2.02031 -6.91733,25.40992 16.16244,23.23351 29.86538,-2.81629 -1.01015,-21.2132 19.1929,-23.23351 l 57.57869,0 c 16.16245,3.03046 -9.53724,26.49564 14.14214,26.26397 25.10553,-0.24563 -2.0203,-30.30458 18.18275,-26.26397 L 953,427.5"
         style="fill:none;stroke:#000000;stroke-width:0.01000000000000000;stroke-linecap:butt;stroke-linejoin:round;stroke-miterlimit:4;stroke-opacity:1;stroke-dasharray:none;marker-start:none" />
      <path
         sodipodi:nodetypes="ccsccssssccsccsc"
         inkscape:connector-curvature="0"
         id="path6626"
         d="m 37,804.86218 40.020305,-6.06092 c 20,4.28571 -14.624969,32.32824 12.857143,27.14286 27.557362,-5.19958 -0.714286,-27.85715 15.714292,-27.14286 l 60.24509,0 c 12.85715,2.85714 -8.86882,29.689 10.71429,27.85714 21.73143,-2.03281 0.77489,-29.17159 15,-27.85714 l 65.59174,6.06092 c 27.02771,2.49746 -0.0222,-31.89708 17.85714,-30.71429 21.82233,1.44365 -7.85714,19.28572 15,30.71429 l 41.42857,0 c 22.14286,0.71429 -5.71563,31.82722 10,27.14286 31.8027,-9.47943 -12.14286,-20.71429 27.85714,-27.14286 l 47.85715,0 c 12.85714,8.57143 -4.65712,23.09194 4.28571,22.14286 53.11557,-5.63705 -20.50508,-20.83684 35.30479,-22.03516"
         style="fill:none;stroke:#000000;stroke-width:0.01000000000000000;stroke-linecap:butt;stroke-linejoin:round;stroke-miterlimit:4;stroke-opacity:1;stroke-dasharray:none;marker-start:none" />
      <path
         sodipodi:nodetypes="cccscscsssccsccsccsscscsscc"
         inkscape:connector-curvature="0"
         d="m 536.59301,848.01071 c 2.93757,12.31412 9.99745,24.93592 17.63619,34.76278 6.01239,10.81306 16.01092,21.14253 15.5772,34.17962 -0.90531,11.39879 -12.33108,18.30567 -23.48807,18.37364 -11.15362,0.068 -19.88494,-7.83604 -26.22888,-15.69949 -4.54414,-6.76541 -9.57767,-16.46791 -14.74693,-25.3003 -3.71616,-6.34957 -7.50247,-12.24946 -11.43382,-16.42629 -16.25555,-17.36176 -37.22515,-37.6942 -39.56553,-56.24358 -0.84328,-6.68369 0.15167,-11.97473 2.29004,-16.63335 3.80183,-8.28259 7.72959,-11.24376 12.99082,-16.57721 6.92852,-7.02364 16.76649,-7.84368 26.70013,-6.93397 L 495,759.92302 c 2.02031,-8.5863 19.5225,17.24642 20.70813,-10.10153 0.80236,-18.50756 -22.72844,4.54569 -20.70813,-7.57614 l 0,-62.62946 c -6.2325,-10.69356 -21.21638,6.75816 -22.73925,-9.14516 -1.8492,-19.31122 19.01821,-0.39722 22.73925,-17.62388 l -8.08122,-39.90102 c 2.02031,-17.17259 22.89153,1.36043 22.72843,-11.11168 -0.34148,-26.1134 -24.29986,-0.11168 -22.72843,-11.11168 l 12.12183,-84.85282 c -3.53553,-13.63706 -21.6357,12.45777 -25.75889,-14.64721 -4.02649,-26.4693 26.76904,-1.01015 25.75889,-13.63706 l -20.20305,-70.2056 c -9.2187,-32.03498 9.831,13.19636 17.17259,-20.20305 3.51553,-15.99334 -16.16244,-1.51522 -17.17259,-9.09137 L 495,346.86218"
         style="fill:none;stroke:#000000;stroke-width:0.01000000000000000;stroke-linecap:butt;stroke-linejoin:round;stroke-miterlimit:4;stroke-opacity:1;stroke-dasharray:none;marker-start:none"
         id="path6624" />
      <path
         sodipodi:nodetypes="cccsccsccsccsscscc"
         inkscape:connector-curvature="0"
         id="path3965"
         d="m 496.18576,781.35711 c 15.95054,0.29922 23.72472,12.62965 29.97296,23.87769 l 14.55557,-0.37262 c 15.71428,-2.14286 -6.83165,-19.71383 11.42857,-18.57143 20.00977,1.25186 -2.85715,12.85714 12.14285,18.57143 l 49.28572,0 C 627.85714,801.29075 608.15094,783.3236 625,783.43361 c 20.62944,0.13469 0,24.28571 14.28571,21.42857 l 65.71429,0 c 21.42857,-4.28571 -10.23337,-15.56959 11.42857,-22.85714 29.3223,-9.86467 2.14286,23.57143 12.14286,22.85714 l 65.59174,2.02031 c 25,-1.42857 -5.33654,-25.06177 14.28571,-25 28.07886,0.0884 7.86352,25.35702 17.85715,25 l 56.55111,-2.02031 c 15.71429,0.71429 -5.91641,19.27125 16.42858,20 18.3951,0.59993 -0.71429,-15.71429 18.57142,-20 l 35.14286,0"
         style="fill:none;stroke:#000000;stroke-width:0.01000000000000000;stroke-linecap:butt;stroke-linejoin:round;stroke-miterlimit:4;stroke-opacity:1;stroke-dasharray:none;marker-start:none" />
      <path
         sodipodi:nodetypes="ccsccsccsccsccscc"
         inkscape:connector-curvature="0"
         id="path6620"
         d="m 37,894.86218 40.781746,0 c 15.152288,-3.03046 -7.590727,-28.9843 12.121831,-29.29442 23.089373,-0.36326 4.04061,25.25381 21.213203,29.29442 l 62.62946,6.06092 c 13.13198,2.02031 -7.08728,24.61158 18.18274,23.23351 19.44798,-1.06058 -8.08122,-12.12183 12.12183,-23.23351 l 49.49747,-6.06092 c 16.16244,5.05076 -11.72963,34.523 15.15229,27.27412 23.91696,-6.44936 5.05076,-24.24366 20.20305,-27.27412 l 54.54825,0 c 17.17259,1.01015 -10.76264,-27.0971 13.13198,-26.26397 21.35429,0.74456 -2.02031,18.18275 21.2132,26.26397 l 51.51778,10.10153 c 18.18274,-3.03046 -16.46967,-20.75319 12.12183,-25.25381 20.54655,-3.23426 0,23.2335 24.24366,25.25381 l 39.52222,-10.73288"
         style="fill:none;stroke:#000000;stroke-width:0.01000000000000000;stroke-linecap:butt;stroke-linejoin:round;stroke-miterlimit:4;stroke-opacity:1;stroke-dasharray:none;marker-start:none" />
      <path
         sodipodi:nodetypes="ccsccccscc"
         inkscape:connector-curvature="0"
         id="path6631"
         d="m 675,992.86218 0,-31.41373 c 2.52538,-18.68782 20.07103,3.47359 17.67767,-13.63706 -2.73554,-19.55697 -16.66752,3.03046 -17.67767,-17.67767 0.37881,-6.18718 17.72233,-10.82001 20.37398,-20.79527 0,0 -25.20327,-4.53388 -38.66282,-9.94531 -3.44703,-1.34746 -7.10297,-3.24963 -10.39928,-5.05211 -20.0173,-1.49916 6.61192,22.74199 -21.02745,23.75466 -30.14488,1.10446 2.0203,-25.25382 -23.23351,-23.23351 -7.07107,1.13642 -31.31473,-3.91434 -40.27983,0"
         style="fill:none;stroke:#000000;stroke-width:0.01000000000000000;stroke-linecap:butt;stroke-linejoin:round;stroke-miterlimit:4;stroke-opacity:1;stroke-dasharray:none;marker-start:none" />
      <path
         sodipodi:nodetypes="cccsccssc"
         inkscape:connector-curvature="0"
         d="m 723.84797,865.84923 c 9.33807,9.23269 30.15219,21.02803 41.42442,29.12321 l 26.68721,-0.11026 c 24.66194,0.53828 -8.37004,30.67236 18.18274,29.29442 32.62403,-1.693 1.95392,-29.63061 17.17259,-29.29442 l 59.59901,4.04062 c 21.2132,2.0203 -32.11268,-19.26966 12.12183,-27.27412 21.14932,-3.82707 -3.86883,30.1551 20.20305,27.27412 L 953,894.86218"
         style="fill:none;stroke:#000000;stroke-width:0.01000000000000000;stroke-linecap:butt;stroke-linejoin:round;stroke-miterlimit:4;stroke-opacity:1;stroke-dasharray:none;marker-start:none"
         id="path3967" />
      <path
         sodipodi:nodetypes="cccccsccccscc"
         inkscape:connector-curvature="0"
         d="m 525.8494,805.01304 c 4.94625,13.63735 10.86568,43.3138 10.86568,43.3138 -3.37935,-10.48466 -9.19594,-18.74086 -18.52268,-23.39504 -8.31157,-3.28365 -14.07748,-5.73802 -18.18831,-13.5306 -3.02453,-5.48242 -4.99638,-9.89287 -4.99638,-9.89287 0.61729,4.472 1.69098,5.22277 1.93641,12.96314 0.40665,12.82501 -10.82046,10.18279 -12.81158,24.95842 -2.74967,10.71222 0.53064,21.59788 9.77617,38.47078 3.93134,4.17683 7.71765,10.07672 11.31332,16.14692 L 495,923.56773 c -6.56599,16.66752 -26.91459,-7.09783 -26.76904,12.12183 0.1344,17.7478 20.20305,-6.56599 26.76904,12.62691 l 0,44.54571"
         style="fill:none;stroke:#000000;stroke-width:0.01000000000000000;stroke-linecap:butt;stroke-linejoin:round;stroke-miterlimit:4;stroke-opacity:1;stroke-dasharray:none;marker-start:none"
         id="path6608" />
    </g>
    <path
       style="fill:none;stroke:#000000;stroke-width:0.01000000000000000;stroke-linejoin:round;stroke-miterlimit:4;stroke-opacity:1;stroke-dashoffset:0;stroke-dasharray:none"
       d="m 45.714286,302.36218 35.433072,0 0,35.43308 -35.433072,0 z"
       id="rect3808"
       inkscape:connector-curvature="0" />
  </g>
</svg>
