  0
SECTION
  2
HEADER
  9
$ACADVER
  1
AC1015
  9
$ACADMAINTVER
 70
     6
  9
$DWGCODEPAGE
  3
ANSI_1252
  9
$INSBASE
 10
0.0
 20
0.0
 30
0.0
  9
$EXTMIN
 10
1.000000E+20
 20
1.000000E+20
 30
1.000000E+20
  9
$EXTMAX
 10
-1.000000E+20
 20
-1.000000E+20
 30
-1.000000E+20
  9
$LIMMIN
 10
0.0
 20
0.0
  9
$LIMMAX
 10
420.0
 20
297.0
  9
$ORTHOMODE
 70
     0
  9
$REGENMODE
 70
     1
  9
$FILLMODE
 70
     1
  9
$QTEXTMODE
 70
     0
  9
$MIRRTEXT
 70
     1
  9
$LTSCALE
 40
1.0
  9
$ATTMODE
 70
     1
  9
$TEXTSIZE
 40
2.5
  9
$TRACEWID
 40
1.0
  9
$TEXTSTYLE
  7
Standard
  9
$CLAYER
  8
0
  9
$CELTYPE
  6
ByLayer
  9
$CECOLOR
 62
   256
  9
$CELTSCALE
 40
1.0
  9
$DISPSILH
 70
     0
  9
$DIMSCALE
 40
1.0
  9
$DIMASZ
 40
2.5
  9
$DIMEXO
 40
0.625
  9
$DIMDLI
 40
3.75
  9
$DIMRND
 40
0.0
  9
$DIMDLE
 40
0.0
  9
$DIMEXE
 40
1.25
  9
$DIMTP
 40
0.0
  9
$DIMTM
 40
0.0
  9
$DIMTXT
 40
2.5
  9
$DIMCEN
 40
2.5
  9
$DIMTSZ
 40
0.0
  9
$DIMTOL
 70
     0
  9
$DIMLIM
 70
     0
  9
$DIMTIH
 70
     0
  9
$DIMTOH
 70
     0
  9
$DIMSE1
 70
     0
  9
$DIMSE2
 70
     0
  9
$DIMTAD
 70
     1
  9
$DIMZIN
 70
     8
  9
$DIMBLK
  1

  9
$DIMASO
 70
     1
  9
$DIMSHO
 70
     1
  9
$DIMPOST
  1

  9
$DIMAPOST
  1

  9
$DIMALT
 70
     0
  9
$DIMALTD
 70
     3
  9
$DIMALTF
 40
0.03937
  9
$DIMLFAC
 40
1.0
  9
$DIMTOFL
 70
     1
  9
$DIMTVP
 40
0.0
  9
$DIMTIX
 70
     0
  9
$DIMSOXD
 70
     0
  9
$DIMSAH
 70
     0
  9
$DIMBLK1
  1

  9
$DIMBLK2
  1

  9
$DIMSTYLE
  2
ISO-25
  9
$DIMCLRD
 70
     0
  9
$DIMCLRE
 70
     0
  9
$DIMCLRT
 70
     0
  9
$DIMTFAC
 40
1.0
  9
$DIMGAP
 40
0.625
  9
$DIMJUST
 70
     0
  9
$DIMSD1
 70
     0
  9
$DIMSD2
 70
     0
  9
$DIMTOLJ
 70
     0
  9
$DIMTZIN
 70
     8
  9
$DIMALTZ
 70
     0
  9
$DIMALTTZ
 70
     0
  9
$DIMUPT
 70
     0
  9
$DIMDEC
 70
     2
  9
$DIMTDEC
 70
     2
  9
$DIMALTU
 70
     2
  9
$DIMALTTD
 70
     3
  9
$DIMTXSTY
  7
Standard
  9
$DIMAUNIT
 70
     0
  9
$DIMADEC
 70
     0
  9
$DIMALTRND
 40
0.0
  9
$DIMAZIN
 70
     0
  9
$DIMDSEP
 70
    44
  9
$DIMATFIT
 70
     3
  9
$DIMFRAC
 70
     0
  9
$DIMLDRBLK
  1

  9
$DIMLUNIT
 70
     2
  9
$DIMLWD
 70
    -2
  9
$DIMLWE
 70
    -2
  9
$DIMTMOVE
 70
     0
  9
$LUNITS
 70
     2
  9
$LUPREC
 70
     4
  9
$SKETCHINC
 40
1.0
  9
$FILLETRAD
 40
10.0
  9
$AUNITS
 70
     0
  9
$AUPREC
 70
     0
  9
$MENU
  1
.
  9
$ELEVATION
 40
0.0
  9
$PELEVATION
 40
0.0
  9
$THICKNESS
 40
0.0
  9
$LIMCHECK
 70
     0
  9
$CHAMFERA
 40
10.0
  9
$CHAMFERB
 40
10.0
  9
$CHAMFERC
 40
20.0
  9
$CHAMFERD
 40
0.0
  9
$SKPOLY
 70
     0
  9
$TDCREATE
 40
2454811.566032257
  9
$TDUCREATE
 40
2454811.52436559
  9
$TDUPDATE
 40
2454811.566032269
  9
$TDUUPDATE
 40
2454811.524365602
  9
$TDINDWG
 40
0.0000000116
  9
$TDUSRTIMER
 40
0.0000000116
  9
$USRTIMER
 70
     1
  9
$ANGBASE
 50
0.0
  9
$ANGDIR
 70
     0
  9
$PDMODE
 70
     3
  9
$PDSIZE
 40
-0.7
  9
$PLINEWID
 40
0.0
  9
$SPLFRAME
 70
     0
  9
$SPLINETYPE
 70
     6
  9
$SPLINESEGS
 70
     8
  9
$HANDSEED
  5
3C
  9
$SURFTAB1
 70
     6
  9
$SURFTAB2
 70
     6
  9
$SURFTYPE
 70
     6
  9
$SURFU
 70
     6
  9
$SURFV
 70
     6
  9
$UCSBASE
  2

  9
$UCSNAME
  2

  9
$UCSORG
 10
0.0
 20
0.0
 30
0.0
  9
$UCSXDIR
 10
1.0
 20
0.0
 30
0.0
  9
$UCSYDIR
 10
0.0
 20
1.0
 30
0.0
  9
$UCSORTHOREF
  2

  9
$UCSORTHOVIEW
 70
     0
  9
$UCSORGTOP
 10
0.0
 20
0.0
 30
0.0
  9
$UCSORGBOTTOM
 10
0.0
 20
0.0
 30
0.0
  9
$UCSORGLEFT
 10
0.0
 20
0.0
 30
0.0
  9
$UCSORGRIGHT
 10
0.0
 20
0.0
 30
0.0
  9
$UCSORGFRONT
 10
0.0
 20
0.0
 30
0.0
  9
$UCSORGBACK
 10
0.0
 20
0.0
 30
0.0
  9
$PUCSBASE
  2

  9
$PUCSNAME
  2

  9
$PUCSORG
 10
0.0
 20
0.0
 30
0.0
  9
$PUCSXDIR
 10
1.0
 20
0.0
 30
0.0
  9
$PUCSYDIR
 10
0.0
 20
1.0
 30
0.0
  9
$PUCSORTHOREF
  2

  9
$PUCSORTHOVIEW
 70
     0
  9
$PUCSORGTOP
 10
0.0
 20
0.0
 30
0.0
  9
$PUCSORGBOTTOM
 10
0.0
 20
0.0
 30
0.0
  9
$PUCSORGLEFT
 10
0.0
 20
0.0
 30
0.0
  9
$PUCSORGRIGHT
 10
0.0
 20
0.0
 30
0.0
  9
$PUCSORGFRONT
 10
0.0
 20
0.0
 30
0.0
  9
$PUCSORGBACK
 10
0.0
 20
0.0
 30
0.0
  9
$USERI1
 70
     0
  9
$USERI2
 70
     0
  9
$USERI3
 70
     0
  9
$USERI4
 70
     0
  9
$USERI5
 70
     0
  9
$USERR1
 40
0.0
  9
$USERR2
 40
0.0
  9
$USERR3
 40
0.0
  9
$USERR4
 40
0.0
  9
$USERR5
 40
0.0
  9
$WORLDVIEW
 70
     1
  9
$SHADEDGE
 70
     3
  9
$SHADEDIF
 70
    70
  9
$TILEMODE
 70
     1
  9
$MAXACTVP
 70
    64
  9
$PINSBASE
 10
0.0
 20
0.0
 30
0.0
  9
$PLIMCHECK
 70
     0
  9
$PEXTMIN
 10
1.000000E+20
 20
1.000000E+20
 30
1.000000E+20
  9
$PEXTMAX
 10
-1.000000E+20
 20
-1.000000E+20
 30
-1.000000E+20
  9
$PLIMMIN
 10
0.0
 20
0.0
  9
$PLIMMAX
 10
420.0
 20
297.0
  9
$UNITMODE
 70
     0
  9
$VISRETAIN
 70
     1
  9
$PLINEGEN
 70
     0
  9
$PSLTSCALE
 70
     1
  9
$TREEDEPTH
 70
  3020
  9
$CMLSTYLE
  2
Standard
  9
$CMLJUST
 70
     1
  9
$CMLSCALE
 40
1.0
  9
$PROXYGRAPHICS
 70
     1
  9
$MEASUREMENT
 70
     1
  9
$CELWEIGHT
370
    -1
  9
$ENDCAPS
280
     0
  9
$JOINSTYLE
280
     0
  9
$LWDISPLAY
290
     0
  9
$INSUNITS
 70
     4
  9
$HYPERLINKBASE
  1

  9
$STYLESHEET
  1

  9
$XEDIT
290
     1
  9
$CEPSNTYPE
380
     0
  9
$PSTYLEMODE
290
     1
  9
$FINGERPRINTGUID
  2
{FAEB1C30-E019-11D5-929B-00C0DF256EC4}
  9
$VERSIONGUID
  2
{FAEB1C32-E019-11D5-929B-00C0DF256EC4}
  9
$EXTNAMES
290
     1
  9
$PSVPSCALE
 40
0.0
  9
$OLESTARTUP
290
     0
  0
ENDSEC
  0
SECTION
  2
CLASSES
  0
CLASS
  1
ACDBDICTIONARYWDFLT
  2
AcDbDictionaryWithDefault
  3
ObjectDBX Classes
 90
        0
280
     0
281
     0
  0
CLASS
  1
ACDBPLACEHOLDER
  2
AcDbPlaceHolder
  3
ObjectDBX Classes
 90
        0
280
     0
281
     0
  0
CLASS
  1
LAYOUT
  2
AcDbLayout
  3
ObjectDBX Classes
 90
        0
280
     0
281
     0
  0
ENDSEC
  0
SECTION
  2
TABLES
  0
TABLE
  2
VPORT
  5
8
330
0
100
AcDbSymbolTable
 70
     2
  0
VPORT
  5
29
330
8
100
AcDbSymbolTableRecord
100
AcDbViewportTableRecord
  2
*Active
 70
     0
 10
0.0
 20
0.0
 11
1.0
 21
1.0
 12
50.0
 22
50.0
 13
0.0
 23
0.0
 14
10.0
 24
10.0
 15
10.0
 25
10.0
 16
0.0
 26
0.0
 36
1.0
 17
0.0
 27
0.0
 37
0.0
 40
103.921569
 41
1.0
 42
50.0
 43
0.0
 44
0.0
 50
0.0
 51
0.0
 71
     0
 72
   100
 73
     1
 74
     3
 75
     0
 76
     0
 77
     0
 78
     0
281
     0
 65
     1
110
0.0
120
0.0
130
0.0
111
1.0
121
0.0
131
0.0
112
0.0
122
1.0
132
0.0
 79
     0
146
0.0
  0
ENDTAB
  0
TABLE
  2
LTYPE
  5
5
330
0
100
AcDbSymbolTable
 70
     1
  0
LTYPE
  5
14
330
5
100
AcDbSymbolTableRecord
100
AcDbLinetypeTableRecord
  2
ByBlock
 70
     0
  3

 72
    65
 73
     0
 40
0.0
  0
LTYPE
  5
15
330
5
100
AcDbSymbolTableRecord
100
AcDbLinetypeTableRecord
  2
ByLayer
 70
     0
  3

 72
    65
 73
     0
 40
0.0
  0
LTYPE
  5
16
330
5
100
AcDbSymbolTableRecord
100
AcDbLinetypeTableRecord
  2
Continuous
 70
     0
  3

 72
    65
 73
     0
 40
0.0
  0
ENDTAB
  0
TABLE
  2
LAYER
  5
2
330
0
100
AcDbSymbolTable
 70
     1
  0
LAYER
  5
10
330
2
100
AcDbSymbolTableRecord
100
AcDbLayerTableRecord
  2
0
 70
     0
 62
     7
  6
Continuous
370
    -3
390
F
  0
ENDTAB
  0
TABLE
  2
STYLE
  5
3
330
0
100
AcDbSymbolTable
 70
     1
  0
STYLE
  5
11
330
3
100
AcDbSymbolTableRecord
100
AcDbTextStyleTableRecord
  2
Standard
 70
     0
 40
1.0
 41
1.0
 50
0.0
 71
     0
 42
2.5
  3
RomanS
  4

  0
ENDTAB
  0
TABLE
  2
VIEW
  5
6
330
0
100
AcDbSymbolTable
 70
     0
  0
ENDTAB
  0
TABLE
  2
UCS
  5
7
330
0
100
AcDbSymbolTable
 70
     0
  0
ENDTAB
  0
TABLE
  2
APPID
  5
9
330
0
100
AcDbSymbolTable
 70
     1
  0
APPID
  5
12
330
9
100
AcDbSymbolTableRecord
100
AcDbRegAppTableRecord
  2
ACAD
 70
     0
  0
ENDTAB
  0
TABLE
  2
DIMSTYLE
  5
A
330
0
100
AcDbSymbolTable
 70
     1
100
AcDbDimStyleTable
  0
DIMSTYLE
105
27
330
A
100
AcDbSymbolTableRecord
100
AcDbDimStyleTableRecord
  2
ISO-25
 70
     0
 41
2.5
 42
0.625
 44
1.25
 73
     0
 74
     0
 77
     1
 78
     8
 79
     2
140
2.5
141
2.5
146
0.0
147
0.625
271
     2
272
     0
273
     0
274
     0
278
    44
283
     0
289
     0
340
11
  0
ENDTAB
  0
TABLE
  2
BLOCK_RECORD
  5
1
330
0
100
AcDbSymbolTable
 70
     1
  0
BLOCK_RECORD
  5
1F
330
1
100
AcDbSymbolTableRecord
100
AcDbBlockTableRecord
  2
*Model_Space
340
22
  0
BLOCK_RECORD
  5
1B
330
1
100
AcDbSymbolTableRecord
100
AcDbBlockTableRecord
  2
*Paper_Space
340
1E
  0
BLOCK_RECORD
  5
23
330
1
100
AcDbSymbolTableRecord
100
AcDbBlockTableRecord
  2
*Paper_Space0
340
26
  0
ENDTAB
  0
ENDSEC
  0
SECTION
  2
BLOCKS
  0
BLOCK
  5
20
330
1F
100
AcDbEntity
  8
0
100
AcDbBlockBegin
  2
*Model_Space
 70
     0
 71
     0
 10
0.0
 20
0.0
 30
0.0
  3
*Model_Space
  1

  0
ENDBLK
  5
21
330
1F
100
AcDbEntity
  8
0
100
AcDbBlockEnd
  0
BLOCK
  5
1C
330
1B
100
AcDbEntity
 67
     1
  8
0
100
AcDbBlockBegin
  2
*Paper_Space
 70
     0
 71
     0
 10
0.0
 20
0.0
 30
0.0
  3
*Paper_Space
  1

  0
ENDBLK
  5
1D
330
1B
100
AcDbEntity
 67
     1
  8
0
100
AcDbBlockEnd
  0
BLOCK
  5
24
330
23
100
AcDbEntity
  8
0
100
AcDbBlockBegin
  2
*Paper_Space0
 70
     0
 71
     0
 10
0.0
 20
0.0
 30
0.0
  3
*Paper_Space0
  1

  0
ENDBLK
  5
25
330
23
100
AcDbEntity
  8
0
100
AcDbBlockEnd
  0
ENDSEC
  0
SECTION
  2
ENTITIES
  0
LWPOLYLINE
  5
2A
330
1F
100
AcDbEntity
  8
0
100
AcDbPolyline
 90
      505
 70
   128
 43
0.0
 10
55.421389
 20
166.616944
 10
55.407892
 20
166.946804
 10
55.419658
 20
167.274338
 10
55.455699
 20
167.598667
 10
55.515027
 20
167.918915
 10
55.596653
 20
168.234201
 10
55.699589
 20
168.543649
 10
55.822847
 20
168.846378
 10
55.965438
 20
169.14151
 10
56.126375
 20
169.428168
 10
56.304668
 20
169.705473
 10
56.49933
 20
169.972545
 10
56.709372
 20
170.228507
 10
56.933806
 20
170.47248
 10
57.171644
 20
170.703586
 10
57.421897
 20
170.920945
 10
57.683576
 20
171.123681
 10
57.955695
 20
171.310913
 10
58.237264
 20
171.481764
 10
58.527294
 20
171.635355
 10
58.824799
 20
171.770807
 10
59.128789
 20
171.887243
 10
59.438275
 20
171.983783
 10
59.752271
 20
172.059549
 10
60.069787
 20
172.113663
 10
60.389836
 20
172.145246
 10
60.711428
 20
172.15342
 10
61.033575
 20
172.137305
 10
61.35529
 20
172.096024
 10
61.675584
 20
172.028699
 10
61.993468
 20
171.934449
 10
62.307955
 20
171.812398
 10
62.618056
 20
171.661667
 10
62.877642
 20
171.548001
 10
63.127094
 20
171.419175
 10
63.366198
 20
171.275944
 10
63.59474
 20
171.119064
 10
63.812508
 20
170.949291
 10
64.019288
 20
170.76738
 10
64.214867
 20
170.574088
 10
64.399032
 20
170.370169
 10
64.57157
 20
170.156381
 10
64.732268
 20
169.933478
 10
64.880912
 20
169.702216
 10
65.017289
 20
169.463351
 10
65.141186
 20
169.217639
 10
65.252391
 20
168.965836
 10
65.350689
 20
168.708698
 10
65.435868
 20
168.446979
 10
65.507714
 20
168.181437
 10
65.566015
 20
167.912826
 10
65.610557
 20
167.641902
 10
65.641127
 20
167.369422
 10
65.657512
 20
167.096141
 10
65.659498
 20
166.822815
 10
65.646873
 20
166.550199
 10
65.619423
 20
166.279049
 10
65.576935
 20
166.010122
 10
65.519196
 20
165.744173
 10
65.445993
 20
165.481957
 10
65.357113
 20
165.22423
 10
65.252342
 20
164.971749
 10
65.131468
 20
164.725268
 10
64.994277
 20
164.485545
 10
64.840556
 20
164.253333
 10
65.280288
 20
164.095341
 10
65.725807
 20
163.96174
 10
66.176288
 20
163.847157
 10
66.630903
 20
163.746215
 10
67.549227
 20
163.563763
 10
68.011284
 20
163.471503
 10
68.474167
 20
163.371389
 10
69.133732
 20
163.215358
 10
69.789384
 20
163.045052
 10
70.440926
 20
162.860664
 10
71.088167
 20
162.662388
 10
71.730912
 20
162.450418
 10
72.368968
 20
162.224947
 10
73.00214
 20
161.98617
 10
73.630234
 20
161.73428
 10
74.253058
 20
161.46947
 10
74.870417
 20
161.191935
 10
75.482117
 20
160.901869
 10
76.087965
 20
160.599465
 10
76.687767
 20
160.284917
 10
77.281329
 20
159.958419
 10
77.868458
 20
159.620164
 10
78.448958
 20
159.270347
 10
79.022638
 20
158.909161
 10
79.589302
 20
158.5368
 10
80.148758
 20
158.153458
 10
80.700811
 20
157.759328
 10
81.245267
 20
157.354605
 10
81.781933
 20
156.939482
 10
82.310615
 20
156.514152
 10
82.83112
 20
156.078811
 10
83.343253
 20
155.633651
 10
83.84682
 20
155.178866
 10
84.341628
 20
154.71465
 10
84.827484
 20
154.241197
 10
85.304192
 20
153.7587
 10
85.77156
 20
153.267354
 10
86.229394
 20
152.767353
 10
86.6775
 20
152.258889
 10
87.07663
 20
151.77554
 10
87.466969
 20
151.284736
 10
87.848407
 20
150.786673
 10
88.220834
 20
150.281542
 10
88.58414
 20
149.769538
 10
88.938215
 20
149.250855
 10
89.282949
 20
148.725687
 10
89.618234
 20
148.194227
 10
89.943958
 20
147.65667
 10
90.260012
 20
147.113208
 10
90.566286
 20
146.564036
 10
90.862671
 20
146.009348
 10
91.149056
 20
145.449337
 10
91.425333
 20
144.884197
 10
91.69139
 20
144.314122
 10
91.947118
 20
143.739306
 10
92.192408
 20
143.159942
 10
92.427149
 20
142.576224
 10
92.651232
 20
141.988347
 10
92.864547
 20
141.396503
 10
93.066984
 20
140.800887
 10
93.258433
 20
140.201692
 10
93.438785
 20
139.599113
 10
93.60793
 20
138.993342
 10
93.765757
 20
138.384574
 10
93.912157
 20
137.773003
 10
94.047021
 20
137.158822
 10
94.170238
 20
136.542225
 10
94.281699
 20
135.923407
 10
94.381293
 20
135.30256
 10
94.468912
 20
134.679878
 10
94.544444
 20
134.055556
 10
94.534445
 20
133.745471
 10
94.542171
 20
133.436885
 10
94.564676
 20
133.129643
 10
94.599015
 20
132.823589
 10
94.691412
 20
132.214428
 10
94.795799
 20
131.60816
 10
94.888609
 20
131.003545
 10
94.92331
 20
130.701471
 10
94.94628
 20
130.399345
 10
94.954574
 20
130.097012
 10
94.945247
 20
129.794317
 10
94.915352
 20
129.491105
 10
94.861944
 20
129.187222
 10
94.785024
 20
128.835866
 10
94.724485
 20
128.483114
 10
94.677692
 20
128.129225
 10
94.64201
 20
127.774457
 10
94.593434
 20
127.063321
 10
94.557674
 20
126.351771
 10
94.513645
 20
125.641874
 10
94.481942
 20
125.288192
 10
94.440265
 20
124.935699
 10
94.385979
 20
124.584652
 10
94.316448
 20
124.235311
 10
94.229037
 20
123.887933
 10
94.121111
 20
123.542778
 10
93.901581
 20
122.526406
 10
93.65306
 20
121.515408
 10
93.517913
 20
121.012312
 10
93.375498
 20
120.511025
 10
93.225809
 20
120.011701
 10
93.068841
 20
119.514497
 10
92.904587
 20
119.019565
 10
92.733039
 20
118.527063
 10
92.554192
 20
118.037145
 10
92.36804
 20
117.549965
 10
92.174575
 20
117.06568
 10
91.973792
 20
116.584443
 10
91.765683
 20
116.10641
 10
91.550243
 20
115.631736
 10
91.327465
 20
115.160576
 10
91.097342
 20
114.693085
 10
90.859869
 20
114.229419
 10
90.615037
 20
113.769731
 10
90.362842
 20
113.314177
 10
90.103277
 20
112.862913
 10
89.836335
 20
112.416093
 10
89.56201
 20
111.973872
 10
89.280294
 20
111.536405
 10
88.991183
 20
111.103847
 10
88.694669
 20
110.676354
 10
88.390746
 20
110.25408
 10
88.079407
 20
109.83718
 10
87.760647
 20
109.42581
 10
87.434457
 20
109.020124
 10
87.100833
 20
108.620278
 10
87.49826
 20
108.371128
 10
87.898993
 20
108.10875
 10
88.306341
 20
107.846372
 10
88.723611
 20
107.597222
 10
88.225726
 20
107.324784
 10
87.723707
 20
107.031675
 10
87.477089
 20
106.875044
 10
87.23657
 20
106.710455
 10
87.004526
 20
106.536977
 10
86.783333
 20
106.353681
 10
86.57537
 20
106.159636
 10
86.383013
 20
105.953912
 10
86.20864
 20
105.735579
 10
86.054627
 20
105.503707
 10
85.923351
 20
105.257365
 10
85.866983
 20
105.128478
 10
85.817191
 20
104.995624
 10
85.774271
 20
104.858688
 10
85.738522
 20
104.717553
 10
85.71024
 20
104.572103
 10
85.689722
 20
104.422222
 10
85.747634
 20
104.042581
 10
85.82725
 20
103.670433
 10
85.926297
 20
103.305004
 10
86.0425
 20
102.945516
 10
86.173586
 20
102.591197
 10
86.317281
 20
102.24127
 10
86.471311
 20
101.89496
 10
86.633403
 20
101.551493
 10
86.972676
 20
100.869984
 10
87.31691
 20
100.190543
 10
87.647914
 20
99.506967
 10
87.802772
 20
99.161691
 10
87.9475
 20
98.813056
 10
87.690677
 20
98.919569
 10
87.435766
 20
99.038434
 10
86.929405
 20
99.299779
 10
86.423872
 20
99.570219
 10
86.169994
 20
99.700452
 10
85.914618
 20
99.822882
 10
85.657175
 20
99.93415
 10
85.397096
 20
100.030897
 10
85.133813
 20
100.109764
 10
84.866758
 20
100.167391
 10
84.595362
 20
100.200421
 10
84.457858
 20
100.206662
 10
84.319057
 20
100.205494
 10
84.178885
 20
100.196497
 10
84.037274
 20
100.179251
 10
83.89415
 20
100.153337
 10
83.749444
 20
100.118333
 10
83.656685
 20
100.067622
 10
83.576225
 20
100.008641
 10
83.507134
 20
99.94222
 10
83.448481
 20
99.869184
 10
83.399337
 20
99.79036
 10
83.358771
 20
99.706576
 10
83.299653
 20
99.527431
 10
83.263686
 20
99.338364
 10
83.243429
 20
99.14599
 10
83.220278
 20
98.777778
 10
83.211484
 20
98.579746
 10
83.211114
 20
98.382496
 10
83.232956
 20
97.99016
 10
83.280429
 20
97.600408
 10
83.34816
 20
97.212878
 10
83.430773
 20
96.827208
 10
83.522895
 20
96.443037
 10
83.714167
 20
95.677743
 10
83.802568
 20
95.295897
 10
83.87898
 20
94.914103
 10
83.938029
 20
94.531999
 10
83.97434
 20
94.149223
 10
83.98229
 20
93.95747
 10
83.98254
 20
93.765414
 10
83.974418
 20
93.573008
 10
83.957253
 20
93.380209
 10
83.930372
 20
93.18697
 10
83.893105
 20
92.993247
 10
83.844779
 20
92.798994
 10
83.784722
 20
92.604167
 10
83.747764
 20
92.430841
 10
83.703203
 20
92.261423
 10
83.65129
 20
92.095893
 10
83.592279
 20
91.934233
 10
83.526421
 20
91.776423
 10
83.453967
 20
91.622444
 10
83.290282
 20
91.325898
 10
83.103239
 20
91.044443
 10
82.894854
 20
90.777922
 10
82.667142
 20
90.52618
 10
82.422118
 20
90.289063
 10
82.161798
 20
90.066415
 10
81.888197
 20
89.858081
 10
81.603331
 20
89.663907
 10
81.309214
 20
89.483737
 10
81.007863
 20
89.317416
 10
80.701293
 20
89.16479
 10
80.391518
 20
89.025703
 10
80.080556
 20
88.9
 10
80.063054
 20
89.37625
 10
80.059609
 20
89.8525
 10
80.071736
 20
90.805
 10
80.075732
 20
91.28125
 10
80.070634
 20
91.7575
 10
80.050652
 20
92.23375
 10
80.01
 20
92.71
 10
79.95321
 20
92.858755
 10
79.888888
 20
93.000869
 10
79.817357
 20
93.136524
 10
79.73894
 20
93.265901
 10
79.65396
 20
93.389179
 10
79.56274
 20
93.506541
 10
79.465604
 20
93.618166
 10
79.362873
 20
93.724236
 10
79.141922
 20
93.920434
 10
78.902471
 20
94.096582
 10
78.647103
 20
94.254126
 10
78.378403
 20
94.394514
 10
78.098954
 20
94.519192
 10
77.81134
 20
94.629607
 10
77.518145
 20
94.727207
 10
77.221953
 20
94.813437
 10
76.630913
 20
94.95758
 10
76.058889
 20
95.073611
 10
75.864792
 20
95.560679
 10
75.650438
 20
96.039891
 10
75.534502
 20
96.275131
 10
75.412107
 20
96.506702
 10
75.282786
 20
96.734035
 10
75.146076
 20
96.956562
 10
75.001512
 20
97.173715
 10
74.848627
 20
97.384926
 10
74.686957
 20
97.589625
 10
74.516037
 20
97.787244
 10
74.335402
 20
97.977215
 10
74.144587
 20
98.15897
 10
73.943127
 20
98.331939
 10
73.730556
 20
98.495556
 10
73.467945
 20
98.424294
 10
73.208899
 20
98.343834
 10
72.699232
 20
98.161519
 10
72.197006
 20
97.961015
 10
71.697674
 20
97.754722
 10
71.196688
 20
97.555044
 10
70.689501
 20
97.374384
 10
70.432161
 20
97.29506
 10
70.171565
 20
97.225142
 10
69.907146
 20
97.166179
 10
69.638333
 20
97.119722
 10
69.006296
 20
97.002313
 10
68.378806
 20
96.868368
 10
67.129201
 20
96.590556
 10
66.502952
 20
96.466532
 10
66.188561
 20
96.412582
 10
65.872982
 20
96.36566
 10
65.555955
 20
96.327006
 10
65.237224
 20
96.29786
 10
64.916529
 20
96.279463
 10
64.593611
 20
96.273056
 10
63.373634
 20
96.127259
 10
62.76194
 20
96.065626
 10
62.149523
 20
96.012882
 10
61.536692
 20
95.970059
 10
60.923758
 20
95.938192
 10
60.31103
 20
95.918314
 10
59.698819
 20
95.911458
 10
59.087436
 20
95.918659
 10
58.477189
 20
95.940948
 10
57.868389
 20
95.979361
 10
57.261345
 20
96.034931
 10
56.656369
 20
96.10869
 10
56.053771
 20
96.201673
 10
55.453859
 20
96.314913
 10
54.856944
 20
96.449444
 10
54.068323
 20
96.591211
 10
53.283604
 20
96.751795
 10
52.503173
 20
96.930995
 10
51.72742
 20
97.128611
 10
50.95673
 20
97.344443
 10
50.191493
 20
97.57829
 10
49.432095
 20
97.829953
 10
48.678924
 20
98.099232
 10
47.932367
 20
98.385925
 10
47.192813
 20
98.689833
 10
46.460648
 20
99.010756
 10
45.736261
 20
99.348492
 10
45.020038
 20
99.702843
 10
44.312368
 20
100.073607
 10
43.613638
 20
100.460585
 10
42.924236
 20
100.863576
 10
42.244549
 20
101.28238
 10
41.574964
 20
101.716797
 10
40.91587
 20
102.166627
 10
40.267654
 20
102.631668
 10
39.630703
 20
103.111722
 10
39.005406
 20
103.606587
 10
38.392148
 20
104.116064
 10
37.791319
 20
104.639952
 10
37.203306
 20
105.178051
 10
36.628496
 20
105.730161
 10
36.067277
 20
106.296082
 10
35.520037
 20
106.875613
 10
34.987162
 20
107.468553
 10
34.469042
 20
108.074704
 10
33.966062
 20
108.693864
 10
33.478611
 20
109.325833
 10
33.099931
 20
109.825408
 10
32.731198
 20
110.33181
 10
32.372438
 20
110.844839
 10
32.023678
 20
111.364296
 10
31.684944
 20
111.88998
 10
31.35626
 20
112.421691
 10
31.037653
 20
112.959228
 10
30.729149
 20
113.502391
 10
30.430774
 20
114.050981
 10
30.142553
 20
114.604796
 10
29.864512
 20
115.163637
 10
29.596678
 20
115.727303
 10
29.339075
 20
116.295594
 10
29.09173
 20
116.86831
 10
28.854669
 20
117.445251
 10
28.627917
 20
118.026215
 10
28.4115
 20
118.611004
 10
28.205445
 20
119.199417
 10
28.009776
 20
119.791253
 10
27.82452
 20
120.386312
 10
27.649703
 20
120.984395
 10
27.485351
 20
121.5853
 10
27.331488
 20
122.188828
 10
27.188142
 20
122.794779
 10
27.055338
 20
123.402951
 10
26.933102
 20
124.013145
 10
26.821459
 20
124.625161
 10
26.720436
 20
125.238798
 10
26.630058
 20
125.853857
 10
26.550352
 20
126.470136
 10
26.481342
 20
127.087435
 10
26.423056
 20
127.705556
 10
26.443451
 20
128.848776
 10
26.453924
 20
129.998611
 10
26.458333
 20
132.291667
 10
26.514552
 20
132.975919
 10
26.583967
 20
133.659266
 10
26.666547
 20
134.341425
 10
26.76226
 20
135.022112
 10
26.871072
 20
135.701041
 10
26.992952
 20
136.377929
 10
27.127867
 20
137.052491
 10
27.275786
 20
137.724444
 10
27.436675
 20
138.393504
 10
27.610502
 20
139.059384
 10
27.797236
 20
139.721803
 10
27.996844
 20
140.380475
 10
28.209293
 20
141.035117
 10
28.434552
 20
141.685443
 10
28.672588
 20
142.33117
 10
28.923368
 20
142.972014
 10
29.186861
 20
143.60769
 10
29.463034
 20
144.237914
 10
29.751854
 20
144.862402
 10
30.05329
 20
145.48087
 10
30.36731
 20
146.093034
 10
30.69388
 20
146.698608
 10
31.032969
 20
147.29731
 10
31.384544
 20
147.888854
 10
31.748574
 20
148.472957
 10
32.125024
 20
149.049335
 10
32.513865
 20
149.617702
 10
32.915062
 20
150.177776
 10
33.328585
 20
150.729271
 10
33.7544
 20
151.271903
 10
34.192475
 20
151.805389
 10
34.642778
 20
152.329444
 10
35.156372
 20
152.934247
 10
35.684842
 20
153.524884
 10
36.227768
 20
154.101245
 10
36.784731
 20
154.663221
 10
37.355311
 20
155.210702
 10
37.939088
 20
155.743577
 10
38.535642
 20
156.261738
 10
39.144553
 20
156.765074
 10
39.765401
 20
157.253475
 10
40.397767
 20
157.726832
 10
41.04123
 20
158.185036
 10
41.695371
 20
158.627975
 10
42.359769
 20
159.05554
 10
43.034005
 20
159.467622
 10
43.71766
 20
159.864111
 10
44.410312
 20
160.244896
 10
45.111543
 20
160.609868
 10
45.820933
 20
160.958918
 10
46.538061
 20
161.291935
 10
47.262507
 20
161.608809
 10
47.993852
 20
161.909431
 10
48.731677
 20
162.193692
 10
49.47556
 20
162.46148
 10
50.225082
 20
162.712687
 10
50.979824
 20
162.947202
 10
51.739366
 20
163.164916
 10
52.503286
 20
163.365718
 10
53.271167
 20
163.5495
 10
54.042587
 20
163.716151
 10
54.817128
 20
163.865562
 10
55.594368
 20
163.997622
 10
56.373889
 20
164.112222
 10
56.086155
 20
164.706984
 10
55.948488
 20
165.013252
 10
55.818264
 20
165.324896
 10
55.697961
 20
165.6415
 10
55.590061
 20
165.962652
 10
55.497043
 20
166.287938
 10
55.421389
 20
166.616944
  0
LWPOLYLINE
  5
2B
330
1F
100
AcDbEntity
  8
0
100
AcDbPolyline
 90
       97
 70
   128
 43
0.0
 10
59.760556
 20
169.580278
 10
59.933071
 20
169.635853
 10
60.106323
 20
169.677197
 10
60.279807
 20
169.704757
 10
60.45302
 20
169.718977
 10
60.625458
 20
169.720305
 10
60.796616
 20
169.709185
 10
60.965992
 20
169.686063
 10
61.133082
 20
169.651385
 10
61.29738
 20
169.605596
 10
61.458385
 20
169.549143
 10
61.615591
 20
169.48247
 10
61.768495
 20
169.406025
 10
61.916593
 20
169.320252
 10
62.059382
 20
169.225597
 10
62.196356
 20
169.122505
 10
62.327014
 20
169.011424
 10
62.45085
 20
168.892797
 10
62.567361
 20
168.767072
 10
62.676043
 20
168.634693
 10
62.776392
 20
168.496106
 10
62.867905
 20
168.351758
 10
62.950077
 20
168.202093
 10
63.022404
 20
168.047558
 10
63.084384
 20
167.888598
 10
63.135511
 20
167.725659
 10
63.175283
 20
167.559187
 10
63.203194
 20
167.389627
 10
63.218742
 20
167.217425
 10
63.221423
 20
167.043026
 10
63.210733
 20
166.866878
 10
63.186167
 20
166.689424
 10
63.147222
 20
166.511111
 10
63.131161
 20
166.301117
 10
63.096864
 20
166.101162
 10
63.04532
 20
165.911361
 10
62.977517
 20
165.731831
 10
62.894444
 20
165.562687
 10
62.797089
 20
165.404047
 10
62.68644
 20
165.256026
 10
62.563485
 20
165.118741
 10
62.429214
 20
164.992308
 10
62.284613
 20
164.876844
 10
62.130673
 20
164.772464
 10
61.968379
 20
164.679285
 10
61.798722
 20
164.597423
 10
61.62269
 20
164.526994
 10
61.44127
 20
164.468116
 10
61.255451
 20
164.420903
 10
61.066222
 20
164.385472
 10
60.87457
 20
164.36194
 10
60.681484
 20
164.350423
 10
60.487953
 20
164.351036
 10
60.294964
 20
164.363897
 10
60.103506
 20
164.389122
 10
59.914567
 20
164.426826
 10
59.729136
 20
164.477127
 10
59.548201
 20
164.54014
 10
59.37275
 20
164.615981
 10
59.203771
 20
164.704768
 10
59.042253
 20
164.806616
 10
58.889184
 20
164.921641
 10
58.745553
 20
165.04996
 10
58.612347
 20
165.191689
 10
58.490556
 20
165.346944
 10
58.374552
 20
165.478635
 10
58.271112
 20
165.615404
 10
58.179983
 20
165.756745
 10
58.100915
 20
165.902156
 10
58.033655
 20
166.051133
 10
57.977951
 20
166.203171
 10
57.933551
 20
166.357768
 10
57.900204
 20
166.514418
 10
57.877657
 20
166.672619
 10
57.865658
 20
166.831867
 10
57.863956
 20
166.991657
 10
57.872299
 20
167.151485
 10
57.890434
 20
167.310849
 10
57.91811
 20
167.469244
 10
57.955075
 20
167.626166
 10
58.001076
 20
167.781111
 10
58.055863
 20
167.933576
 10
58.119183
 20
168.083057
 10
58.190784
 20
168.229049
 10
58.270414
 20
168.371049
 10
58.357821
 20
168.508554
 10
58.452754
 20
168.641059
 10
58.554961
 20
168.76806
 10
58.664188
 20
168.889054
 10
58.780186
 20
169.003536
 10
58.902701
 20
169.111004
 10
59.031482
 20
169.210953
 10
59.166277
 20
169.302879
 10
59.306833
 20
169.386278
 10
59.4529
 20
169.460647
 10
59.604225
 20
169.525481
 10
59.760556
 20
169.580278
  0
LWPOLYLINE
  5
2C
330
1F
100
AcDbEntity
  8
0
100
AcDbPolyline
 90
      435
 70
   128
 43
0.0
 10
51.1175
 20
158.4325
 10
52.154198
 20
158.750551
 10
52.67601
 20
158.898828
 10
53.199991
 20
159.038837
 10
53.72604
 20
159.16975
 10
54.254053
 20
159.290742
 10
54.783926
 20
159.400985
 10
55.315556
 20
159.499653
 10
55.848839
 20
159.585918
 10
56.383673
 20
159.658954
 10
56.919954
 20
159.717934
 10
57.457578
 20
159.762031
 10
57.996443
 20
159.790419
 10
58.536444
 20
159.80227
 10
59.077479
 20
159.796758
 10
59.619444
 20
159.773056
 10
60.188368
 20
159.765821
 10
60.757704
 20
159.768095
 10
61.899271
 20
159.786285
 10
63.047452
 20
159.79786
 10
63.625057
 20
159.791866
 10
64.205556
 20
159.773056
 10
65.090523
 20
159.653227
 10
65.972132
 20
159.505647
 10
66.849503
 20
159.330679
 10
67.721758
 20
159.128685
 10
68.588018
 20
158.900025
 10
69.447406
 20
158.645062
 10
70.299042
 20
158.364158
 10
71.142049
 20
158.057674
 10
71.975546
 20
157.725971
 10
72.798657
 20
157.369412
 10
73.610503
 20
156.988359
 10
74.410204
 20
156.583173
 10
75.196883
 20
156.154215
 10
75.969661
 20
155.701848
 10
76.727659
 20
155.226434
 10
77.47
 20
154.728333
 10
78.137812
 20
154.262298
 10
78.791659
 20
153.777349
 10
79.431217
 20
153.274003
 10
80.056164
 20
152.752778
 10
80.666177
 20
152.214189
 10
81.260931
 20
151.658753
 10
81.840106
 20
151.086988
 10
82.403377
 20
150.49941
 10
82.950421
 20
149.896535
 10
83.480916
 20
149.278881
 10
83.994539
 20
148.646965
 10
84.490967
 20
148.001302
 10
84.969876
 20
147.34241
 10
85.430944
 20
146.670806
 10
85.873848
 20
145.987006
 10
86.298264
 20
145.291528
 10
86.70387
 20
144.584887
 10
87.090343
 20
143.867601
 10
87.45736
 20
143.140186
 10
87.804597
 20
142.40316
 10
88.131733
 20
141.657038
 10
88.438443
 20
140.902338
 10
88.724406
 20
140.139577
 10
88.989297
 20
139.369271
 10
89.232794
 20
138.591937
 10
89.454574
 20
137.808091
 10
89.654314
 20
137.018252
 10
89.831692
 20
136.222934
 10
89.986383
 20
135.422656
 10
90.118065
 20
134.617933
 10
90.226416
 20
133.809283
 10
90.311111
 20
132.997222
 10
90.290484
 20
132.487512
 10
90.280036
 20
131.977129
 10
90.280794
 20
130.95497
 10
90.295608
 20
129.931983
 10
90.306701
 20
128.90941
 10
90.305298
 20
128.398666
 10
90.296297
 20
127.88849
 10
90.277478
 20
127.379038
 10
90.246619
 20
126.870464
 10
90.201497
 20
126.362924
 10
90.13989
 20
125.856573
 10
90.059576
 20
125.351565
 10
89.958333
 20
124.848056
 10
89.844283
 20
124.201523
 10
89.714007
 20
123.558556
 10
89.567815
 20
122.919414
 10
89.406016
 20
122.284353
 10
89.22892
 20
121.653634
 10
89.036839
 20
121.027514
 10
88.830082
 20
120.406251
 10
88.608958
 20
119.790104
 10
88.373779
 20
119.179332
 10
88.124854
 20
118.574192
 10
87.862492
 20
117.974944
 10
87.587005
 20
117.381845
 10
87.298702
 20
116.795153
 10
86.997894
 20
116.215129
 10
86.68489
 20
115.642028
 10
86.36
 20
115.076111
 10
85.69799
 20
114.011163
 10
85.358511
 20
113.48117
 10
85.006215
 20
112.959444
 10
84.63573
 20
112.450948
 10
84.441986
 20
112.203212
 10
84.24168
 20
111.960642
 10
84.034139
 20
111.723861
 10
83.818691
 20
111.493487
 10
83.594665
 20
111.270142
 10
83.361389
 20
111.054444
 10
83.044673
 20
111.362574
 10
82.744234
 20
111.690547
 10
82.462296
 20
112.03671
 10
82.201081
 20
112.39941
 10
81.962809
 20
112.776992
 10
81.749704
 20
113.167804
 10
81.653284
 20
113.367654
 10
81.563988
 20
113.570191
 10
81.482095
 20
113.775209
 10
81.407882
 20
113.9825
 10
81.341627
 20
114.191858
 10
81.283609
 20
114.403077
 10
81.234104
 20
114.61595
 10
81.19339
 20
114.830269
 10
81.161746
 20
115.045829
 10
81.139449
 20
115.262422
 10
81.126776
 20
115.479842
 10
81.124006
 20
115.697882
 10
81.131416
 20
115.916335
 10
81.149284
 20
116.134996
 10
81.177888
 20
116.353656
 10
81.217506
 20
116.572109
 10
81.268415
 20
116.790149
 10
81.330893
 20
117.007569
 10
81.405217
 20
117.224163
 10
81.491667
 20
117.439722
 10
80.796515
 20
117.514481
 10
80.091029
 20
117.587999
 10
79.381408
 20
117.672266
 10
79.026985
 20
117.722177
 10
78.673854
 20
117.779271
 10
78.32279
 20
117.845046
 10
77.974569
 20
117.921002
 10
77.629964
 20
118.008637
 10
77.289753
 20
118.109449
 10
76.954708
 20
118.224937
 10
76.625607
 20
118.3566
 10
76.303224
 20
118.505936
 10
75.988333
 20
118.674444
 10
75.800205
 20
118.797572
 10
75.619364
 20
118.928555
 10
75.445653
 20
119.066979
 10
75.278919
 20
119.212431
 10
75.119007
 20
119.364497
 10
74.96576
 20
119.522765
 10
74.819025
 20
119.68682
 10
74.678646
 20
119.85625
 10
74.416336
 20
120.209579
 10
74.177591
 20
120.579444
 10
73.96117
 20
120.962539
 10
73.765833
 20
121.355556
 10
73.98768
 20
121.317704
 10
74.209837
 20
121.290038
 10
74.431994
 20
121.272411
 10
74.653841
 20
121.264674
 10
74.875068
 20
121.266677
 10
75.095365
 20
121.278273
 10
75.314421
 20
121.299313
 10
75.531927
 20
121.329648
 10
75.747573
 20
121.36913
 10
75.961048
 20
121.41761
 10
76.172043
 20
121.47494
 10
76.380247
 20
121.540971
 10
76.585351
 20
121.615554
 10
76.787044
 20
121.698541
 10
76.985017
 20
121.789783
 10
77.178958
 20
121.889132
 10
77.368559
 20
121.996439
 10
77.553509
 20
122.111556
 10
77.733498
 20
122.234334
 10
77.908216
 20
122.364624
 10
78.077353
 20
122.502278
 10
78.240599
 20
122.647148
 10
78.397644
 20
122.799084
 10
78.548177
 20
122.957938
 10
78.691889
 20
123.123562
 10
78.82847
 20
123.295807
 10
78.957609
 20
123.474525
 10
79.078997
 20
123.659567
 10
79.192324
 20
123.850783
 10
79.297279
 20
124.048027
 10
79.393552
 20
124.251149
 10
79.480833
 20
124.46
 10
79.569147
 20
124.702798
 10
79.642469
 20
124.948006
 10
79.701101
 20
125.195139
 10
79.745348
 20
125.443713
 10
79.775513
 20
125.693242
 10
79.7919
 20
125.943243
 10
79.794812
 20
126.193231
 10
79.784553
 20
126.442721
 10
79.761427
 20
126.69123
 10
79.725737
 20
126.938273
 10
79.677786
 20
127.183364
 10
79.617879
 20
127.426021
 10
79.546319
 20
127.665757
 10
79.46341
 20
127.90209
 10
79.369454
 20
128.134533
 10
79.264757
 20
128.362604
 10
79.149621
 20
128.585817
 10
79.02435
 20
128.803688
 10
78.889247
 20
129.015733
 10
78.744616
 20
129.221466
 10
78.590762
 20
129.420405
 10
78.427986
 20
129.612063
 10
78.256594
 20
129.795957
 10
78.076888
 20
129.971602
 10
77.889172
 20
130.138513
 10
77.69375
 20
130.296207
 10
77.490926
 20
130.444199
 10
77.281002
 20
130.582004
 10
77.064283
 20
130.709137
 10
76.841072
 20
130.825115
 10
76.611673
 20
130.929453
 10
76.376389
 20
131.021667
 10
76.253821
 20
131.083532
 10
76.125104
 20
131.137904
 10
75.854388
 20
131.230577
 10
75.574577
 20
131.312502
 10
75.296007
 20
131.396493
 10
75.029012
 20
131.495367
 10
74.903085
 20
131.55439
 10
74.783928
 20
131.62194
 10
74.672832
 20
131.699618
 10
74.57109
 20
131.789027
 10
74.479993
 20
131.891769
 10
74.400833
 20
132.009444
 10
74.458745
 20
132.241558
 10
74.526786
 20
132.473981
 10
74.605162
 20
132.705371
 10
74.69408
 20
132.934384
 10
74.793746
 20
133.159676
 10
74.904368
 20
133.379903
 10
75.026153
 20
133.593723
 10
75.159306
 20
133.799792
 10
75.304034
 20
133.996765
 10
75.460545
 20
134.1833
 10
75.629044
 20
134.358052
 10
75.80974
 20
134.519679
 10
76.002837
 20
134.666836
 10
76.208544
 20
134.79818
 10
76.427066
 20
134.912368
 10
76.658611
 20
135.008056
 10
76.943038
 20
135.043351
 10
77.227465
 20
135.070481
 10
77.796319
 20
135.103967
 10
78.365174
 20
135.115956
 10
78.934028
 20
135.113889
 10
80.071736
 20
135.097352
 10
80.64059
 20
135.097766
 10
81.209444
 20
135.113889
 10
81.05724
 20
135.638853
 10
80.904622
 20
136.178286
 10
80.83423
 20
136.451749
 10
80.771022
 20
136.726814
 10
80.717425
 20
137.002809
 10
80.675868
 20
137.279062
 10
80.648781
 20
137.554903
 10
80.638592
 20
137.829658
 10
80.64773
 20
138.102656
 10
80.678624
 20
138.373225
 10
80.733703
 20
138.640693
 10
80.815394
 20
138.90439
 10
80.866979
 20
139.034613
 10
80.926128
 20
139.163642
 10
80.993145
 20
139.291391
 10
81.068333
 20
139.417778
 10
81.23592
 20
139.63841
 10
81.420146
 20
139.838424
 10
81.619462
 20
140.019524
 10
81.832318
 20
140.183416
 10
82.057162
 20
140.331805
 10
82.292445
 20
140.466396
 10
82.536616
 20
140.588895
 10
82.788125
 20
140.701007
 10
83.306956
 20
140.900891
 10
83.836536
 20
141.079692
 10
84.364463
 20
141.251051
 10
84.878333
 20
141.428611
 10
84.081689
 20
141.912647
 10
83.267682
 20
142.397096
 10
82.861144
 20
142.644773
 10
82.458636
 20
142.898909
 10
82.06295
 20
143.161623
 10
81.676875
 20
143.435035
 10
81.303203
 20
143.721262
 10
80.944723
 20
144.022424
 10
80.604227
 20
144.340638
 10
80.441595
 20
144.506803
 10
80.284505
 20
144.678025
 10
80.133306
 20
144.85457
 10
79.988348
 20
145.036703
 10
79.849977
 20
145.224688
 10
79.718545
 20
145.41879
 10
79.594399
 20
145.619274
 10
79.477888
 20
145.826405
 10
79.369361
 20
146.040447
 10
79.269167
 20
146.261667
 10
79.195683
 20
146.397481
 10
79.132741
 20
146.539548
 10
79.031042
 20
146.837687
 10
78.949186
 20
147.146574
 10
78.872292
 20
147.456701
 10
78.785475
 20
147.758561
 10
78.733695
 20
147.903418
 10
78.673854
 20
148.042643
 10
78.604091
 20
148.175047
 10
78.522546
 20
148.299441
 10
78.427358
 20
148.414636
 10
78.316667
 20
148.519444
 10
77.410469
 20
148.137177
 10
76.491042
 20
147.749948
 10
76.026367
 20
147.563258
 10
75.558385
 20
147.38587
 10
75.087096
 20
147.221298
 10
74.6125
 20
147.073056
 10
74.134596
 20
146.944657
 10
73.653385
 20
146.839616
 10
73.168867
 20
146.761447
 10
72.925368
 20
146.733537
 10
72.681042
 20
146.713663
 10
72.435889
 20
146.702264
 10
72.189909
 20
146.699779
 10
71.943102
 20
146.706648
 10
71.695469
 20
146.723309
 10
71.447008
 20
146.750203
 10
71.197721
 20
146.787767
 10
70.947607
 20
146.836442
 10
70.696667
 20
146.896667
 10
70.503896
 20
147.015152
 10
70.321978
 20
147.145058
 10
70.150188
 20
147.285403
 10
69.987804
 20
147.435204
 10
69.834101
 20
147.59348
 10
69.688356
 20
147.75925
 10
69.549846
 20
147.93153
 10
69.417847
 20
148.10934
 10
69.170489
 20
148.477621
 10
68.940495
 20
148.856237
 10
68.509444
 20
149.613056
 10
68.041893
 20
149.272758
 10
67.56535
 20
148.941193
 10
67.079919
 20
148.62048
 10
66.585703
 20
148.312739
 10
66.082805
 20
148.020086
 10
65.571329
 20
147.744642
 10
65.051378
 20
147.488525
 10
64.523056
 20
147.253854
 10
63.986465
 20
147.042747
 10
63.441709
 20
146.857324
 10
63.166302
 20
146.774905
 10
62.888892
 20
146.699702
 10
62.609492
 20
146.631979
 10
62.328116
 20
146.572001
 10
62.044777
 20
146.520033
 10
61.759486
 20
146.476339
 10
61.472258
 20
146.441185
 10
61.183104
 20
146.414836
 10
60.892039
 20
146.397555
 10
60.599075
 20
146.389609
 10
60.304224
 20
146.391261
 10
60.0075
 20
146.402778
 10
60.323966
 20
146.903419
 10
60.627617
 20
147.424731
 10
60.769598
 20
147.692363
 10
60.902329
 20
147.964233
 10
61.023795
 20
148.24003
 10
61.131979
 20
148.519444
 10
61.224868
 20
148.802166
 10
61.300444
 20
149.087885
 10
61.356694
 20
149.376291
 10
61.391602
 20
149.667075
 10
61.403151
 20
149.959925
 10
61.389328
 20
150.254532
 10
61.348116
 20
150.550587
 10
61.2775
 20
150.847778
 10
61.23081
 20
151.041944
 10
61.176834
 20
151.23405
 10
61.047643
 20
151.61128
 10
60.891167
 20
151.977864
 10
60.708646
 20
152.332201
 10
60.50132
 20
152.672688
 10
60.27043
 20
152.997724
 10
60.017215
 20
153.305707
 10
59.742917
 20
153.595035
 10
59.448774
 20
153.864105
 10
59.136029
 20
154.111317
 10
58.80592
 20
154.335067
 10
58.634741
 20
154.437644
 10
58.459688
 20
154.533754
 10
58.280913
 20
154.623199
 10
58.098573
 20
154.705777
 10
57.912822
 20
154.781288
 10
57.723815
 20
154.849532
 10
57.531708
 20
154.910309
 10
57.336655
 20
154.963418
 10
57.138812
 20
155.00866
 10
56.938333
 20
155.045833
 10
56.660159
 20
155.130514
 10
56.381468
 20
155.187496
 10
56.10257
 20
155.218846
 10
55.823776
 20
155.226632
 10
55.545395
 20
155.21292
 10
55.267738
 20
155.179779
 10
54.991114
 20
155.129274
 10
54.715833
 20
155.063472
 10
54.442207
 20
154.984442
 10
54.170544
 20
154.894249
 10
53.634349
 20
154.688646
 10
53.10973
 20
154.463199
 10
52.599167
 20
154.234444
 10
52.621672
 20
154.523824
 10
52.623765
 20
154.809844
 10
52.606531
 20
155.092454
 10
52.571055
 20
155.371602
 10
52.518422
 20
155.647235
 10
52.449718
 20
155.919303
 10
52.366028
 20
156.187753
 10
52.268437
 20
156.452535
 10
52.158031
 20
156.713595
 10
52.035894
 20
156.970884
 10
51.903111
 20
157.224348
 10
51.760768
 20
157.473937
 10
51.609951
 20
157.719598
 10
51.451743
 20
157.96128
 10
51.1175
 20
158.4325
  0
LWPOLYLINE
  5
2D
330
1F
100
AcDbEntity
  8
0
100
AcDbPolyline
 90
       37
 70
   128
 43
0.0
 10
37.923611
 20
149.507222
 10
38.381395
 20
150.031497
 10
38.854062
 20
150.546263
 10
39.339959
 20
151.051934
 10
39.837431
 20
151.548924
 10
40.344824
 20
152.037645
 10
40.860486
 20
152.518511
 10
41.382763
 20
152.991936
 10
41.91
 20
153.458333
 10
42.266636
 20
152.882865
 10
42.646424
 20
152.320625
 10
43.046055
 20
151.771615
 10
43.462222
 20
151.235833
 10
43.340203
 20
151.082993
 10
43.212436
 20
150.93543
 10
43.079164
 20
150.793254
 10
42.940635
 20
150.656575
 10
42.648784
 20
150.400148
 10
42.338845
 20
150.167027
 10
42.012784
 20
149.95809
 10
41.672564
 20
149.774217
 10
41.320148
 20
149.616285
 10
40.9575
 20
149.485174
 10
40.586584
 20
149.38176
 10
40.209363
 20
149.306924
 10
40.019002
 20
149.280497
 10
39.827802
 20
149.261544
 10
39.636007
 20
149.250174
 10
39.443863
 20
149.246497
 10
39.251616
 20
149.250624
 10
39.059511
 20
149.262664
 10
38.867793
 20
149.282726
 10
38.676709
 20
149.310921
 10
38.486503
 20
149.347358
 10
38.297421
 20
149.392147
 10
38.109709
 20
149.445399
 10
37.923611
 20
149.507222
  0
LWPOLYLINE
  5
2E
330
1F
100
AcDbEntity
  8
0
100
AcDbPolyline
 90
       46
 70
   128
 43
0.0
 10
46.707778
 20
149.824722
 10
47.170385
 20
149.85249
 10
47.630512
 20
149.888112
 10
48.085678
 20
149.939444
 10
48.533403
 20
150.01434
 10
48.753699
 20
150.06308
 10
48.971206
 20
150.120656
 10
49.185611
 20
150.188051
 10
49.396606
 20
150.266246
 10
49.60388
 20
150.356223
 10
49.807123
 20
150.458964
 10
50.006026
 20
150.575452
 10
50.200278
 20
150.706667
 10
50.4825
 20
149.93276
 10
50.614516
 20
149.540846
 10
50.738264
 20
149.145625
 10
50.85209
 20
148.747096
 10
50.95434
 20
148.34526
 10
51.043362
 20
147.940117
 10
51.1175
 20
147.531667
 10
50.917056
 20
147.424016
 10
50.712839
 20
147.325305
 10
50.294536
 20
147.150777
 10
49.865483
 20
147.000226
 10
49.428576
 20
146.865799
 10
48.542773
 20
146.613893
 10
48.099665
 20
146.480706
 10
47.660278
 20
146.332222
 10
47.521275
 20
146.28359
 10
47.382104
 20
146.243304
 10
47.103413
 20
146.186426
 10
46.824515
 20
146.158899
 10
46.54572
 20
146.158038
 10
46.26734
 20
146.181155
 10
45.989682
 20
146.225562
 10
45.713058
 20
146.288573
 10
45.437778
 20
146.3675
 10
45.164151
 20
146.459656
 10
44.892488
 20
146.562355
 10
44.356293
 20
146.788628
 10
43.831674
 20
147.024824
 10
43.321111
 20
147.249444
 10
44.187622
 20
147.865152
 10
45.040903
 20
148.497396
 10
45.880955
 20
149.149484
 10
46.707778
 20
149.824722
  0
LWPOLYLINE
  5
2F
330
1F
100
AcDbEntity
  8
0
100
AcDbPolyline
 90
      638
 70
   128
 43
0.0
 10
35.948056
 20
146.861389
 10
36.041558
 20
146.925834
 10
36.136726
 20
146.980486
 10
36.233368
 20
147.025681
 10
36.331288
 20
147.061756
 10
36.430294
 20
147.089045
 10
36.530191
 20
147.107885
 10
36.630785
 20
147.118613
 10
36.731884
 20
147.121562
 10
36.934817
 20
147.105474
 10
37.13744
 20
147.062307
 10
37.338203
 20
146.994749
 10
37.535556
 20
146.905486
 10
37.727947
 20
146.797207
 10
37.913827
 20
146.672598
 10
38.091646
 20
146.534346
 10
38.259852
 20
146.385139
 10
38.416897
 20
146.227664
 10
38.561229
 20
146.064607
 10
38.691299
 20
145.898657
 10
38.805556
 20
145.7325
 10
38.900493
 20
145.61883
 10
38.987103
 20
145.50279
 10
39.136767
 20
145.264036
 10
39.257388
 20
145.017117
 10
39.35181
 20
144.762912
 10
39.422874
 20
144.502299
 10
39.473422
 20
144.236157
 10
39.506297
 20
143.965364
 10
39.52434
 20
143.690799
 10
39.530395
 20
143.413339
 10
39.527303
 20
143.133864
 10
39.505048
 20
142.572383
 10
39.480312
 20
142.013382
 10
39.474119
 20
141.737007
 10
39.475833
 20
141.463889
 10
39.22734
 20
141.504226
 10
38.978232
 20
141.532748
 10
38.728931
 20
141.54963
 10
38.479856
 20
141.555046
 10
38.231427
 20
141.549171
 10
37.984064
 20
141.532179
 10
37.738186
 20
141.504245
 10
37.494214
 20
141.465543
 10
37.252568
 20
141.416246
 10
37.013667
 20
141.356531
 10
36.777931
 20
141.286571
 10
36.54578
 20
141.20654
 10
36.317634
 20
141.116614
 10
36.093912
 20
141.016965
 10
35.875036
 20
140.90777
 10
35.661424
 20
140.789201
 10
35.453496
 20
140.661435
 10
35.251673
 20
140.524644
 10
35.056373
 20
140.379004
 10
34.868018
 20
140.224688
 10
34.687027
 20
140.061872
 10
34.513819
 20
139.890729
 10
34.348815
 20
139.711434
 10
34.192435
 20
139.524162
 10
34.045098
 20
139.329087
 10
33.907224
 20
139.126383
 10
33.779233
 20
138.916225
 10
33.661546
 20
138.698786
 10
33.554581
 20
138.474243
 10
33.458759
 20
138.242768
 10
33.374499
 20
138.004536
 10
33.302222
 20
137.759722
 10
33.248965
 20
137.572985
 10
33.20483
 20
137.38658
 10
33.169637
 20
137.200633
 10
33.143205
 20
137.015272
 10
33.125355
 20
136.83062
 10
33.115906
 20
136.646806
 10
33.114679
 20
136.463953
 10
33.121493
 20
136.28219
 10
33.136168
 20
136.10164
 10
33.158524
 20
135.922431
 10
33.22556
 20
135.568538
 10
33.321161
 20
135.221518
 10
33.443885
 20
134.882378
 10
33.592292
 20
134.552127
 10
33.764942
 20
134.231772
 10
33.960394
 20
133.922321
 10
34.177208
 20
133.624781
 10
34.413943
 20
133.34016
 10
34.669159
 20
133.069466
 10
34.941415
 20
132.813706
 10
35.229271
 20
132.573889
 10
35.531286
 20
132.351021
 10
35.84602
 20
132.146111
 10
36.172033
 20
131.960167
 10
36.507884
 20
131.794195
 10
36.852132
 20
131.649204
 10
37.203336
 20
131.526201
 10
37.560058
 20
131.426194
 10
37.920855
 20
131.350191
 10
38.284288
 20
131.299199
 10
38.648916
 20
131.274227
 10
39.013298
 20
131.276281
 10
39.375994
 20
131.306369
 10
39.735564
 20
131.3655
 10
39.913727
 20
131.406271
 10
40.090568
 20
131.454681
 10
40.265906
 20
131.510855
 10
40.439563
 20
131.574919
 10
40.611358
 20
131.646999
 10
40.781111
 20
131.727222
 10
41.062084
 20
131.85445
 10
41.335565
 20
131.997593
 10
41.600673
 20
132.156033
 10
41.856532
 20
132.329149
 10
42.102262
 20
132.516321
 10
42.336985
 20
132.716929
 10
42.559823
 20
132.930353
 10
42.769896
 20
133.155972
 10
42.966327
 20
133.393167
 10
43.148236
 20
133.641317
 10
43.314746
 20
133.899803
 10
43.464978
 20
134.168003
 10
43.598054
 20
134.445299
 10
43.713094
 20
134.73107
 10
43.809221
 20
135.024695
 10
43.885556
 20
135.325556
 10
43.939977
 20
135.4876
 10
43.984413
 20
135.649567
 10
44.01921
 20
135.811379
 10
44.044719
 20
135.972958
 10
44.061288
 20
136.134227
 10
44.069265
 20
136.295109
 10
44.069
 20
136.455525
 10
44.060842
 20
136.615399
 10
44.02224
 20
136.933209
 10
43.956249
 20
137.247919
 10
43.86566
 20
137.558908
 10
43.753264
 20
137.865556
 10
43.621851
 20
138.167243
 10
43.474211
 20
138.463349
 10
43.313136
 20
138.753253
 10
43.141415
 20
139.036337
 10
42.961839
 20
139.311979
 10
42.777199
 20
139.579559
 10
42.403889
 20
140.088056
 10
42.328797
 20
140.184982
 10
42.262037
 20
140.283866
 10
42.152121
 20
140.487067
 10
42.071351
 20
140.696778
 10
42.016936
 20
140.912122
 10
41.986085
 20
141.132221
 10
41.976008
 20
141.356195
 10
41.983915
 20
141.583167
 10
42.007014
 20
141.812257
 10
42.042516
 20
142.042587
 10
42.087629
 20
142.27328
 10
42.19553
 20
142.732235
 10
42.308391
 20
143.182096
 10
42.403889
 20
143.615833
 10
42.783383
 20
143.308798
 10
43.152853
 20
142.983521
 10
43.509713
 20
142.640777
 10
43.85138
 20
142.281341
 10
44.175271
 20
141.905989
 10
44.478801
 20
141.515496
 10
44.759387
 20
141.110637
 10
44.890268
 20
140.903063
 10
45.014444
 20
140.692187
 10
45.131593
 20
140.478108
 10
45.24139
 20
140.260922
 10
45.343514
 20
140.040725
 10
45.43764
 20
139.817616
 10
45.523447
 20
139.591689
 10
45.60061
 20
139.363044
 10
45.668808
 20
139.131776
 10
45.727717
 20
138.897982
 10
45.777014
 20
138.661759
 10
45.816377
 20
138.423205
 10
45.845481
 20
138.182415
 10
45.864005
 20
137.939487
 10
45.871625
 20
137.694518
 10
45.868019
 20
137.447605
 10
45.852862
 20
137.198845
 10
45.825833
 20
136.948333
 10
45.752367
 20
136.620085
 10
45.664741
 20
136.296797
 10
45.563679
 20
135.97847
 10
45.449905
 20
135.665104
 10
45.324141
 20
135.356699
 10
45.187113
 20
135.053255
 10
45.039542
 20
134.754772
 10
44.882153
 20
134.46125
 10
44.715669
 20
134.172689
 10
44.540813
 20
133.889089
 10
44.358309
 20
133.610449
 10
44.16888
 20
133.336771
 10
43.772143
 20
132.804297
 10
43.356389
 20
132.291667
 10
43.582766
 20
132.126018
 10
43.798188
 20
131.947088
 10
44.001621
 20
131.755653
 10
44.192031
 20
131.552487
 10
44.368386
 20
131.338366
 10
44.529651
 20
131.114064
 10
44.674792
 20
130.880357
 10
44.802778
 20
130.638021
 10
44.912573
 20
130.387829
 10
45.003145
 20
130.130558
 10
45.073459
 20
129.866983
 10
45.122483
 20
129.597878
 10
45.149182
 20
129.324018
 10
45.152524
 20
129.04618
 10
45.131474
 20
128.765138
 10
45.085
 20
128.481667
 10
44.966222
 20
127.91028
 10
44.82269
 20
127.346852
 10
44.656111
 20
126.791072
 10
44.46819
 20
126.24263
 10
44.260632
 20
125.701216
 10
44.035142
 20
125.16652
 10
43.793425
 20
124.638232
 10
43.537187
 20
124.116042
 10
43.268134
 20
123.599639
 10
42.98797
 20
123.088714
 10
42.698401
 20
122.582957
 10
42.401133
 20
122.082057
 10
41.790317
 20
121.09359
 10
41.169167
 20
120.120833
 10
41.606487
 20
120.061715
 10
42.061584
 20
120.005078
 10
42.519162
 20
119.933558
 10
42.744101
 20
119.886791
 10
42.963924
 20
119.829792
 10
43.176719
 20
119.76039
 10
43.380573
 20
119.676416
 10
43.573576
 20
119.575699
 10
43.753815
 20
119.456068
 10
43.919378
 20
119.315353
 10
44.068352
 20
119.151383
 10
44.136022
 20
119.06
 10
44.198827
 20
118.961989
 10
44.256529
 20
118.85708
 10
44.308889
 20
118.745
 10
44.362684
 20
118.380414
 10
44.405214
 20
118.014433
 10
44.436788
 20
117.647315
 10
44.457717
 20
117.279319
 10
44.468311
 20
116.910702
 10
44.468879
 20
116.541724
 10
44.459732
 20
116.172642
 10
44.441181
 20
115.803715
 10
44.413534
 20
115.435202
 10
44.377102
 20
115.067361
 10
44.332195
 20
114.700449
 10
44.279123
 20
114.334727
 10
44.218197
 20
113.970451
 10
44.149725
 20
113.60788
 10
43.991389
 20
112.888889
 10
44.636035
 20
112.877038
 10
45.312101
 20
112.853611
 10
45.655198
 20
112.830839
 10
45.998088
 20
112.797112
 10
46.338085
 20
112.749741
 10
46.6725
 20
112.686042
 10
46.998647
 20
112.603325
 10
47.313839
 20
112.498904
 10
47.466487
 20
112.437715
 10
47.615388
 20
112.370092
 10
47.760207
 20
112.295699
 10
47.900608
 20
112.214201
 10
48.036254
 20
112.125262
 10
48.16681
 20
112.028545
 10
48.29194
 20
111.923715
 10
48.411309
 20
111.810436
 10
48.524579
 20
111.688372
 10
48.631416
 20
111.557187
 10
48.731483
 20
111.416546
 10
48.824444
 20
111.266111
 10
48.896693
 20
111.071695
 10
48.955126
 20
110.878667
 10
49.000393
 20
110.68697
 10
49.033148
 20
110.496546
 10
49.054044
 20
110.307336
 10
49.063732
 20
110.119282
 10
49.062866
 20
109.932326
 10
49.052096
 20
109.746411
 10
49.032077
 20
109.561477
 10
49.00346
 20
109.377467
 10
48.923043
 20
109.011985
 10
48.816064
 20
108.649501
 10
48.687743
 20
108.289549
 10
48.543299
 20
107.931663
 10
48.387951
 20
107.57538
 10
48.065421
 20
106.86576
 10
47.908678
 20
106.511492
 10
47.761908
 20
106.156966
 10
47.630331
 20
105.801716
 10
47.519167
 20
105.445278
 10
47.982119
 20
105.458507
 10
48.444657
 20
105.484965
 10
48.906369
 20
105.524653
 10
49.36684
 20
105.577569
 10
49.825658
 20
105.643715
 10
50.282409
 20
105.72309
 10
50.736679
 20
105.815694
 10
51.188056
 20
105.921528
 10
51.636125
 20
106.04059
 10
52.080473
 20
106.172882
 10
52.520687
 20
106.318403
 10
52.956354
 20
106.477153
 10
53.38706
 20
106.649132
 10
53.812391
 20
106.83434
 10
54.231935
 20
107.032778
 10
54.645278
 20
107.244444
 10
54.946758
 20
107.426931
 10
55.229842
 20
107.629468
 10
55.495148
 20
107.850609
 10
55.743299
 20
108.088906
 10
55.974912
 20
108.342913
 10
56.19061
 20
108.611183
 10
56.391011
 20
108.892268
 10
56.576736
 20
109.184722
 10
56.748405
 20
109.487098
 10
56.906638
 20
109.797949
 10
57.052056
 20
110.115828
 10
57.185278
 20
110.439288
 10
57.306924
 20
110.766882
 10
57.417615
 20
111.097164
 10
57.517971
 20
111.428685
 10
57.608611
 20
111.76
 10
58.454727
 20
111.793624
 10
58.876751
 20
111.808989
 10
59.297535
 20
111.817326
 10
59.716665
 20
111.814088
 10
60.133728
 20
111.794727
 10
60.548311
 20
111.754695
 10
60.96
 20
111.689444
 10
61.261515
 20
111.635977
 10
61.417026
 20
111.603248
 10
61.572951
 20
111.579201
 10
61.727223
 20
111.573345
 10
61.803092
 20
111.580209
 10
61.877773
 20
111.595187
 10
61.951008
 20
111.619466
 10
62.022536
 20
111.654236
 10
62.092101
 20
111.700684
 10
62.159444
 20
111.76
 10
61.793506
 20
112.337674
 10
61.414753
 20
112.908733
 10
60.64691
 20
114.044236
 10
60.271877
 20
114.615295
 10
59.91214
 20
115.192969
 10
59.574727
 20
115.780564
 10
59.416589
 20
116.079116
 10
59.266667
 20
116.381389
 10
59.025992
 20
116.874244
 10
58.789865
 20
117.374128
 10
58.572756
 20
117.881452
 10
58.475854
 20
118.138034
 10
58.389132
 20
118.396632
 10
58.314399
 20
118.657296
 10
58.253464
 20
118.92008
 10
58.208135
 20
119.185033
 10
58.180221
 20
119.452209
 10
58.171531
 20
119.721659
 10
58.183873
 20
119.993434
 10
58.219056
 20
120.267586
 10
58.278889
 20
120.544167
 10
58.327836
 20
120.642513
 10
58.381906
 20
120.732734
 10
58.440846
 20
120.815177
 10
58.504405
 20
120.890192
 10
58.57233
 20
120.958127
 10
58.64437
 20
121.019331
 10
58.799787
 20
121.122943
 10
58.96864
 20
121.203816
 10
59.148913
 20
121.264743
 10
59.338592
 20
121.308513
 10
59.53566
 20
121.337917
 10
59.738102
 20
121.355745
 10
59.943904
 20
121.364788
 10
60.357522
 20
121.367682
 10
60.760391
 20
121.368923
 10
60.952757
 20
121.375899
 10
61.136389
 20
121.390833
 10
60.647254
 20
122.150959
 10
60.140343
 20
122.901163
 10
59.627644
 20
123.64806
 10
59.121146
 20
124.398264
 10
58.632838
 20
125.15839
 10
58.399252
 20
125.54424
 10
58.174709
 20
125.935052
 10
57.960708
 20
126.331651
 10
57.758748
 20
126.734865
 10
57.570327
 20
127.145521
 10
57.396944
 20
127.564444
 10
57.292024
 20
127.798323
 10
57.20085
 20
128.036491
 10
57.121457
 20
128.278277
 10
57.051884
 20
128.523008
 10
56.934337
 20
129.018619
 10
56.8325
 20
129.517951
 10
56.730663
 20
130.01563
 10
56.613116
 20
130.50628
 10
56.543543
 20
130.747291
 10
56.46415
 20
130.984529
 10
56.372976
 20
131.217322
 10
56.268056
 20
131.445
 10
55.480369
 20
131.855655
 10
55.078051
 20
132.059536
 10
54.676146
 20
132.269618
 10
54.279202
 20
132.491275
 10
53.891766
 20
132.729883
 10
53.703036
 20
132.857222
 10
53.518387
 20
132.990814
 10
53.338389
 20
133.131331
 10
53.163611
 20
133.279444
 10
53.437221
 20
133.360818
 10
53.725299
 20
133.460794
 10
54.022473
 20
133.561598
 10
54.323368
 20
133.645451
 10
54.473531
 20
133.675467
 10
54.622609
 20
133.694578
 10
54.76993
 20
133.700564
 10
54.914822
 20
133.691202
 10
55.056614
 20
133.66427
 10
55.194633
 20
133.617546
 10
55.328208
 20
133.548808
 10
55.456667
 20
133.455833
 10
55.937271
 20
132.985558
 10
56.406385
 20
132.501111
 10
56.86347
 20
132.002996
 10
57.307992
 20
131.491715
 10
57.739414
 20
130.967775
 10
58.1572
 20
130.431677
 10
58.560813
 20
129.883926
 10
58.949718
 20
129.325026
 10
59.323378
 20
128.755481
 10
59.681258
 20
128.175794
 10
60.022821
 20
127.586469
 10
60.347531
 20
126.988011
 10
60.654852
 20
126.380923
 10
60.944247
 20
125.765708
 10
61.215181
 20
125.142872
 10
61.467118
 20
124.512917
 10
61.699521
 20
123.876347
 10
61.911854
 20
123.233667
 10
62.103581
 20
122.585379
 10
62.274166
 20
121.931989
 10
62.423073
 20
121.273999
 10
62.549765
 20
120.611914
 10
62.653707
 20
119.946238
 10
62.734362
 20
119.277474
 10
62.791194
 20
118.606126
 10
62.823667
 20
117.932698
 10
62.831246
 20
117.257694
 10
62.813392
 20
116.581618
 10
62.769572
 20
115.904973
 10
62.699248
 20
115.228264
 10
62.601884
 20
114.551994
 10
62.476944
 20
113.876667
 10
62.434242
 20
113.730758
 10
62.423063
 20
113.608983
 10
62.440203
 20
113.509015
 10
62.482457
 20
113.428529
 10
62.546622
 20
113.365199
 10
62.629493
 20
113.316701
 10
62.727868
 20
113.280708
 10
62.838542
 20
113.254896
 10
63.08397
 20
113.22451
 10
63.340148
 20
113.20694
 10
63.581442
 20
113.183582
 10
63.688498
 20
113.163919
 10
63.782222
 20
113.135833
 10
64.041733
 20
113.108031
 10
64.290649
 20
113.052324
 10
64.528301
 20
112.970572
 10
64.754015
 20
112.864635
 10
64.96712
 20
112.736375
 10
65.166944
 20
112.58765
 10
65.352815
 20
112.420321
 10
65.524062
 20
112.23625
 10
65.680013
 20
112.037296
 10
65.819996
 20
111.825319
 10
65.943339
 20
111.60218
 10
66.049371
 20
111.36974
 10
66.137419
 20
111.129858
 10
66.206812
 20
110.884395
 10
66.256877
 20
110.635211
 10
66.286944
 20
110.384167
 10
66.3123
 20
109.469838
 10
66.331042
 20
108.55303
 10
66.336554
 20
107.634567
 10
66.322222
 20
106.715278
 10
66.305548
 20
106.255581
 10
66.281432
 20
105.795988
 10
66.249048
 20
105.336602
 10
66.207569
 20
104.877526
 10
66.156169
 20
104.418863
 10
66.094019
 20
103.960717
 10
66.020294
 20
103.503191
 10
65.934167
 20
103.046389
 10
66.174884
 20
103.062701
 10
66.419581
 20
103.071056
 10
66.666448
 20
103.070108
 10
66.913676
 20
103.058516
 10
67.159458
 20
103.034934
 10
67.401984
 20
102.99802
 10
67.639446
 20
102.946429
 10
67.870035
 20
102.878819
 10
68.091942
 20
102.793846
 10
68.303359
 20
102.690166
 10
68.502477
 20
102.566435
 10
68.687487
 20
102.421311
 10
68.856581
 20
102.253448
 10
68.934594
 20
102.160571
 10
69.00795
 20
102.061505
 10
69.076422
 20
101.956083
 10
69.139785
 20
101.844137
 10
69.197812
 20
101.725498
 10
69.250278
 20
101.6
 10
68.812113
 20
101.450061
 10
68.370952
 20
101.316606
 10
67.927103
 20
101.197932
 10
67.480877
 20
101.092331
 10
67.032584
 20
100.998099
 10
66.582534
 20
100.91353
 10
65.678403
 20
100.766562
 10
64.770965
 20
100.637785
 10
63.8627
 20
100.513555
 10
62.956088
 20
100.380229
 10
62.504178
 20
100.305893
 10
62.053611
 20
100.224167
 10
61.703434
 20
100.168838
 10
61.353981
 20
100.133767
 10
61.005148
 20
100.116886
 10
60.656832
 20
100.116128
 10
60.308929
 20
100.129427
 10
59.961336
 20
100.154714
 10
59.266667
 20
100.232986
 10
58.571998
 20
100.33441
 10
57.876502
 20
100.442448
 10
57.179352
 20
100.540564
 10
56.829899
 20
100.580734
 10
56.479722
 20
100.612222
 10
55.917041
 20
100.684416
 10
55.356879
 20
100.768613
 10
54.799379
 20
100.864672
 10
54.244682
 20
100.97245
 10
53.692931
 20
101.091807
 10
53.144267
 20
101.222602
 10
52.598833
 20
101.364692
 10
52.056771
 20
101.517938
 10
51.518223
 20
101.682197
 10
50.983331
 20
101.857328
 10
50.452237
 20
102.04319
 10
49.925084
 20
102.239642
 10
49.402013
 20
102.446542
 10
48.883166
 20
102.66375
 10
48.368686
 20
102.891123
 10
47.858715
 20
103.12852
 10
47.353395
 20
103.3758
 10
46.852868
 20
103.632823
 10
46.357276
 20
103.899446
 10
45.866761
 20
104.175528
 10
45.381466
 20
104.460927
 10
44.901531
 20
104.755504
 10
44.427101
 20
105.059116
 10
43.958316
 20
105.371622
 10
43.495319
 20
105.69288
 10
43.038252
 20
106.02275
 10
42.587256
 20
106.36109
 10
42.142475
 20
106.707759
 10
41.70405
 20
107.062615
 10
41.272123
 20
107.425518
 10
40.846837
 20
107.796325
 10
40.428333
 20
108.174896
 10
40.016754
 20
108.561089
 10
39.612242
 20
108.954763
 10
39.214938
 20
109.355777
 10
38.824986
 20
109.763989
 10
38.442526
 20
110.179258
 10
38.067702
 20
110.601443
 10
37.700655
 20
111.030403
 10
37.341528
 20
111.465996
 10
36.990462
 20
111.90808
 10
36.647599
 20
112.356515
 10
36.313083
 20
112.811159
 10
35.987054
 20
113.271872
 10
35.669655
 20
113.73851
 10
35.361029
 20
114.210935
 10
35.061316
 20
114.689003
 10
34.77066
 20
115.172574
 10
34.489202
 20
115.661506
 10
34.217085
 20
116.155659
 10
33.95445
 20
116.65489
 10
33.70144
 20
117.159059
 10
33.458197
 20
117.668024
 10
33.224863
 20
118.181644
 10
33.00158
 20
118.699778
 10
32.78849
 20
119.222284
 10
32.585735
 20
119.74902
 10
32.393458
 20
120.279847
 10
32.2118
 20
120.814622
 10
32.040904
 20
121.353204
 10
31.880911
 20
121.895452
 10
31.731965
 20
122.441225
 10
31.594206
 20
122.99038
 10
31.467778
 20
123.542778
 10
31.238266
 20
124.845368
 10
31.132217
 20
125.50072
 10
31.033971
 20
126.158294
 10
30.945028
 20
126.817729
 10
30.866884
 20
127.478662
 10
30.80104
 20
128.140731
 10
30.748993
 20
128.803576
 10
30.712242
 20
129.466835
 10
30.692287
 20
130.130145
 10
30.690625
 20
130.793145
 10
30.708754
 20
131.455473
 10
30.748175
 20
132.116768
 10
30.810385
 20
132.776667
 10
30.896882
 20
133.43481
 10
31.009167
 20
134.090833
 10
31.122769
 20
134.94855
 10
31.264793
 20
135.801461
 10
31.434722
 20
136.648894
 10
31.63204
 20
137.490178
 10
31.85623
 20
138.32464
 10
32.106774
 20
139.15161
 10
32.383157
 20
139.970414
 10
32.684861
 20
140.780382
 10
33.01137
 20
141.580841
 10
33.362167
 20
142.37112
 10
33.736735
 20
143.150547
 10
34.134557
 20
143.918451
 10
34.555117
 20
144.674158
 10
34.997898
 20
145.416998
 10
35.462383
 20
146.146299
 10
35.948056
 20
146.861389
  0
LWPOLYLINE
  5
30
330
1F
100
AcDbEntity
  8
0
100
AcDbPolyline
 90
       60
 70
   128
 43
0.0
 10
52.881389
 20
145.344444
 10
53.020295
 20
145.388938
 10
53.159201
 20
145.417618
 10
53.298108
 20
145.432036
 10
53.437014
 20
145.433741
 10
53.57592
 20
145.424285
 10
53.714826
 20
145.405216
 10
53.992639
 20
145.344444
 10
54.270451
 20
145.263829
 10
54.548264
 20
145.175773
 10
54.826076
 20
145.092677
 10
55.103889
 20
145.026944
 10
55.396515
 20
144.995043
 10
55.692036
 20
144.976784
 10
56.290104
 20
144.969618
 10
56.894787
 20
144.982296
 10
57.502778
 20
144.991667
 10
57.40187
 20
144.775503
 10
57.29124
 20
144.569978
 10
57.171296
 20
144.374776
 10
57.042444
 20
144.18958
 10
56.905091
 20
144.014072
 10
56.759645
 20
143.847938
 10
56.606511
 20
143.69086
 10
56.446098
 20
143.542522
 10
56.278812
 20
143.402607
 10
56.105059
 20
143.270798
 10
55.925248
 20
143.14678
 10
55.739785
 20
143.030236
 10
55.549076
 20
142.920849
 10
55.353529
 20
142.818302
 10
54.949549
 20
142.632465
 10
54.531099
 20
142.470193
 10
54.101435
 20
142.328952
 10
53.663813
 20
142.206212
 10
53.221489
 20
142.09944
 10
52.777717
 20
142.006104
 10
52.335755
 20
141.923671
 10
51.470278
 20
141.781389
 10
51.165783
 20
141.783826
 10
50.861598
 20
141.804195
 10
50.558861
 20
141.842238
 10
50.258707
 20
141.897695
 10
49.962273
 20
141.970309
 10
49.670698
 20
142.059822
 10
49.385117
 20
142.165974
 10
49.106667
 20
142.288507
 10
48.836485
 20
142.427163
 10
48.575709
 20
142.581685
 10
48.325474
 20
142.751812
 10
48.086918
 20
142.937287
 10
47.861179
 20
143.137852
 10
47.649391
 20
143.353248
 10
47.452694
 20
143.583217
 10
47.272222
 20
143.8275
 10
47.973368
 20
143.993967
 10
48.674514
 20
144.173663
 10
50.076806
 20
144.559514
 10
51.479097
 20
144.958594
 10
52.881389
 20
145.344444
  0
LWPOLYLINE
  5
31
330
1F
100
AcDbEntity
  8
0
100
AcDbPolyline
 90
       60
 70
   128
 43
0.0
 10
52.881389
 20
145.344444
 10
53.020295
 20
145.388938
 10
53.159201
 20
145.417618
 10
53.298108
 20
145.432036
 10
53.437014
 20
145.433741
 10
53.57592
 20
145.424285
 10
53.714826
 20
145.405216
 10
53.992639
 20
145.344444
 10
54.270451
 20
145.263829
 10
54.548264
 20
145.175773
 10
54.826076
 20
145.092677
 10
55.103889
 20
145.026944
 10
55.396515
 20
144.995043
 10
55.692036
 20
144.976784
 10
56.290104
 20
144.969618
 10
56.894787
 20
144.982296
 10
57.502778
 20
144.991667
 10
57.40187
 20
144.775503
 10
57.29124
 20
144.569978
 10
57.171296
 20
144.374776
 10
57.042444
 20
144.18958
 10
56.905091
 20
144.014072
 10
56.759645
 20
143.847938
 10
56.606511
 20
143.69086
 10
56.446098
 20
143.542522
 10
56.278812
 20
143.402607
 10
56.105059
 20
143.270798
 10
55.925248
 20
143.14678
 10
55.739785
 20
143.030236
 10
55.549076
 20
142.920849
 10
55.353529
 20
142.818302
 10
54.949549
 20
142.632465
 10
54.531099
 20
142.470193
 10
54.101435
 20
142.328952
 10
53.663813
 20
142.206212
 10
53.221489
 20
142.09944
 10
52.777717
 20
142.006104
 10
52.335755
 20
141.923671
 10
51.470278
 20
141.781389
 10
51.165783
 20
141.783826
 10
50.861598
 20
141.804195
 10
50.558861
 20
141.842238
 10
50.258707
 20
141.897695
 10
49.962273
 20
141.970309
 10
49.670698
 20
142.059822
 10
49.385117
 20
142.165974
 10
49.106667
 20
142.288507
 10
48.836485
 20
142.427163
 10
48.575709
 20
142.581685
 10
48.325474
 20
142.751812
 10
48.086918
 20
142.937287
 10
47.861179
 20
143.137852
 10
47.649391
 20
143.353248
 10
47.452694
 20
143.583217
 10
47.272222
 20
143.8275
 10
47.973368
 20
143.993967
 10
48.674514
 20
144.173663
 10
50.076806
 20
144.559514
 10
51.479097
 20
144.958594
 10
52.881389
 20
145.344444
  0
LWPOLYLINE
  5
32
330
1F
100
AcDbEntity
  8
0
100
AcDbPolyline
 90
      128
 70
   128
 43
0.0
 10
54.151389
 20
138.43
 10
54.392477
 20
138.510822
 10
54.638112
 20
138.567253
 10
54.886228
 20
138.598052
 10
55.134757
 20
138.601979
 10
55.381632
 20
138.577795
 10
55.503804
 20
138.554773
 10
55.624787
 20
138.524258
 10
55.744324
 20
138.486095
 10
55.862154
 20
138.440129
 10
55.978022
 20
138.386204
 10
56.091667
 20
138.324167
 10
56.264299
 20
138.245039
 10
56.431758
 20
138.159956
 10
56.751954
 20
137.972905
 10
57.053856
 20
137.764976
 10
57.339067
 20
137.538134
 10
57.609188
 20
137.294341
 10
57.865822
 20
137.035563
 10
58.11057
 20
136.763762
 10
58.345035
 20
136.480903
 10
58.570818
 20
136.188948
 10
58.789521
 20
135.889862
 10
59.212096
 20
135.278151
 10
59.625577
 20
134.661479
 10
60.042778
 20
134.055556
 10
60.454467
 20
134.119703
 10
60.869049
 20
134.19832
 10
61.286113
 20
134.279418
 10
61.705243
 20
134.351007
 10
62.126027
 20
134.401099
 10
62.33691
 20
134.414336
 10
62.548051
 20
134.417704
 10
62.759399
 20
134.409703
 10
62.970902
 20
134.388834
 10
63.182509
 20
134.353599
 10
63.394167
 20
134.3025
 10
63.676785
 20
134.160174
 10
63.94359
 20
133.998987
 10
64.196133
 20
133.820746
 10
64.435964
 20
133.627261
 10
64.664632
 20
133.42034
 10
64.883688
 20
133.201792
 10
65.094683
 20
132.973425
 10
65.299167
 20
132.737049
 10
65.694801
 20
132.247501
 10
66.082995
 20
131.747617
 10
66.476149
 20
131.251868
 10
66.678462
 20
131.010065
 10
66.886667
 20
130.774722
 10
67.140777
 20
131.166016
 10
67.404809
 20
131.563511
 10
67.685378
 20
131.953565
 10
67.83393
 20
132.141538
 10
67.989097
 20
132.322535
 10
68.151706
 20
132.49485
 10
68.322582
 20
132.656778
 10
68.502554
 20
132.806614
 10
68.692448
 20
132.942652
 10
68.89309
 20
133.063187
 10
69.105308
 20
133.166514
 10
69.329928
 20
133.250928
 10
69.567778
 20
133.314722
 10
69.821242
 20
133.326246
 10
70.06587
 20
133.309348
 10
70.301919
 20
133.266198
 10
70.529648
 20
133.198967
 10
70.749316
 20
133.109825
 10
70.961181
 20
133.000943
 10
71.165501
 20
132.874491
 10
71.362535
 20
132.732639
 10
71.55254
 20
132.577558
 10
71.735776
 20
132.411418
 10
71.912501
 20
132.23639
 10
72.082973
 20
132.054644
 10
72.406192
 20
131.67968
 10
72.7075
 20
131.303889
 10
72.450892
 20
131.193896
 10
72.197488
 20
131.075479
 10
71.948011
 20
130.948484
 10
71.703186
 20
130.812756
 10
71.463734
 20
130.66814
 10
71.230381
 20
130.51448
 10
71.003849
 20
130.351621
 10
70.784861
 20
130.17941
 10
70.574142
 20
129.99769
 10
70.372414
 20
129.806306
 10
70.180402
 20
129.605104
 10
69.998828
 20
129.393928
 10
69.828416
 20
129.172624
 10
69.66989
 20
128.941036
 10
69.523973
 20
128.699009
 10
69.391389
 20
128.446389
 10
68.987184
 20
128.414556
 10
68.581998
 20
128.398433
 10
68.176502
 20
128.39802
 10
67.771367
 20
128.413316
 10
67.367266
 20
128.444322
 10
66.96487
 20
128.491037
 10
66.564852
 20
128.553462
 10
66.167882
 20
128.631597
 10
65.774633
 20
128.725442
 10
65.385776
 20
128.834996
 10
65.001984
 20
128.960259
 10
64.623928
 20
129.101233
 10
64.25228
 20
129.257916
 10
63.887711
 20
129.430308
 10
63.530894
 20
129.61841
 10
63.1825
 20
129.822222
 10
62.784195
 20
130.131678
 10
62.395502
 20
130.450745
 10
62.015284
 20
130.778288
 10
61.642405
 20
131.113168
 10
60.914111
 20
131.800396
 10
60.201528
 20
132.503333
 10
59.495559
 20
133.212885
 10
58.787109
 20
133.919957
 10
58.067084
 20
134.615452
 10
57.699889
 20
134.956017
 10
57.326389
 20
135.290278
 10
56.925173
 20
135.671168
 10
56.5376
 20
136.068594
 10
55.778576
 20
136.886597
 10
55.394724
 20
137.293945
 10
54.999709
 20
137.691372
 10
54.587331
 20
138.072261
 10
54.372693
 20
138.254438
 10
54.151389
 20
138.43
  0
LWPOLYLINE
  5
33
330
1F
100
AcDbEntity
  8
0
100
AcDbPolyline
 90
       30
 70
   128
 43
0.0
 10
49.318333
 20
138.288889
 10
49.657184
 20
138.113732
 10
49.985235
 20
137.919506
 10
50.301607
 20
137.706986
 10
50.605421
 20
137.476949
 10
50.895799
 20
137.230168
 10
51.171864
 20
136.967419
 10
51.432735
 20
136.689477
 10
51.677535
 20
136.397118
 10
51.905385
 20
136.091116
 10
52.115406
 20
135.772247
 10
52.306721
 20
135.441285
 10
52.478451
 20
135.099006
 10
52.629716
 20
134.746185
 10
52.759639
 20
134.383598
 10
52.867342
 20
134.012018
 10
52.951944
 20
133.632222
 10
52.630534
 20
133.83451
 10
52.327004
 20
134.056589
 10
52.040217
 20
134.296755
 10
51.769036
 20
134.553303
 10
51.512325
 20
134.824527
 10
51.268946
 20
135.108721
 10
51.037763
 20
135.404181
 10
50.817639
 20
135.709201
 10
50.607436
 20
136.022076
 10
50.406019
 20
136.341101
 10
50.024991
 20
136.990777
 10
49.665461
 20
137.644587
 10
49.318333
 20
138.288889
  0
LWPOLYLINE
  5
34
330
1F
100
AcDbEntity
  8
0
100
AcDbPolyline
 90
       30
 70
   128
 43
0.0
 10
49.318333
 20
138.288889
 10
49.657184
 20
138.113732
 10
49.985235
 20
137.919506
 10
50.301607
 20
137.706986
 10
50.605421
 20
137.476949
 10
50.895799
 20
137.230168
 10
51.171864
 20
136.967419
 10
51.432735
 20
136.689477
 10
51.677535
 20
136.397118
 10
51.905385
 20
136.091116
 10
52.115406
 20
135.772247
 10
52.306721
 20
135.441285
 10
52.478451
 20
135.099006
 10
52.629716
 20
134.746185
 10
52.759639
 20
134.383598
 10
52.867342
 20
134.012018
 10
52.951944
 20
133.632222
 10
52.630534
 20
133.83451
 10
52.327004
 20
134.056589
 10
52.040217
 20
134.296755
 10
51.769036
 20
134.553303
 10
51.512325
 20
134.824527
 10
51.268946
 20
135.108721
 10
51.037763
 20
135.404181
 10
50.817639
 20
135.709201
 10
50.607436
 20
136.022076
 10
50.406019
 20
136.341101
 10
50.024991
 20
136.990777
 10
49.665461
 20
137.644587
 10
49.318333
 20
138.288889
  0
LWPOLYLINE
  5
35
330
1F
100
AcDbEntity
  8
0
100
AcDbPolyline
 90
       47
 70
   128
 43
0.0
 10
64.946389
 20
125.871111
 10
65.450613
 20
125.904391
 10
65.957318
 20
125.925681
 10
66.465676
 20
125.936223
 10
66.974861
 20
125.937257
 10
67.992405
 20
125.91576
 10
69.003333
 20
125.871111
 10
69.049136
 20
125.62222
 10
69.106824
 20
125.378187
 10
69.175881
 20
125.138908
 10
69.25579
 20
124.90428
 10
69.346034
 20
124.674199
 10
69.446097
 20
124.448562
 10
69.555462
 20
124.227267
 10
69.673611
 20
124.010208
 10
69.800029
 20
123.797284
 10
69.934198
 20
123.588391
 10
70.075602
 20
123.383425
 10
70.223724
 20
123.182283
 10
70.538054
 20
122.791058
 10
70.873056
 20
122.413889
 10
70.638987
 20
122.389865
 10
70.406521
 20
122.377138
 10
70.175811
 20
122.375432
 10
69.947014
 20
122.384468
 10
69.720284
 20
122.403968
 10
69.495775
 20
122.433655
 10
69.273644
 20
122.473251
 10
69.054045
 20
122.522478
 10
68.837133
 20
122.581059
 10
68.623064
 20
122.648715
 10
68.411991
 20
122.725169
 10
68.204071
 20
122.810144
 10
67.999458
 20
122.903361
 10
67.798308
 20
123.004542
 10
67.600775
 20
123.11341
 10
67.407014
 20
123.229687
 10
67.217181
 20
123.353096
 10
67.03143
 20
123.483358
 10
66.849916
 20
123.620197
 10
66.672795
 20
123.763333
 10
66.332351
 20
124.067388
 10
66.011337
 20
124.393303
 10
65.710993
 20
124.738855
 10
65.432561
 20
125.101821
 10
65.177279
 20
125.479981
 10
64.946389
 20
125.871111
  0
LWPOLYLINE
  5
36
330
1F
100
AcDbEntity
  8
0
100
AcDbPolyline
 90
      372
 70
   128
 43
0.0
 10
58.384722
 20
78.810556
 10
58.612108
 20
78.934836
 10
58.8441
 20
79.043298
 10
59.080135
 20
79.136243
 10
59.319652
 20
79.213976
 10
59.562089
 20
79.276801
 10
59.806883
 20
79.32502
 10
60.053474
 20
79.358938
 10
60.301298
 20
79.378859
 10
60.549794
 20
79.385084
 10
60.798399
 20
79.37792
 10
61.046553
 20
79.357668
 10
61.293692
 20
79.324633
 10
61.539255
 20
79.279118
 10
61.78268
 20
79.221426
 10
62.023405
 20
79.151862
 10
62.260868
 20
79.070729
 10
62.494507
 20
78.978331
 10
62.72376
 20
78.87497
 10
62.948064
 20
78.760952
 10
63.166859
 20
78.636578
 10
63.379582
 20
78.502154
 10
63.585671
 20
78.357982
 10
63.784564
 20
78.204366
 10
63.975699
 20
78.04161
 10
64.158514
 20
77.870018
 10
64.332447
 20
77.689892
 10
64.496936
 20
77.501537
 10
64.65142
 20
77.305256
 10
64.795335
 20
77.101352
 10
64.928121
 20
76.89013
 10
65.049215
 20
76.671893
 10
65.158056
 20
76.446944
 10
65.239849
 20
76.297204
 10
65.313412
 20
76.145714
 10
65.378992
 20
75.992583
 10
65.436833
 20
75.83792
 10
65.530281
 20
75.524443
 10
65.59572
 20
75.206159
 10
65.635115
 20
74.883948
 10
65.650429
 20
74.558688
 10
65.643625
 20
74.231257
 10
65.616667
 20
73.902535
 10
65.571519
 20
73.573399
 10
65.510144
 20
73.244728
 10
65.434507
 20
72.917401
 10
65.346571
 20
72.592296
 10
65.2483
 20
72.270292
 10
65.141657
 20
71.952266
 10
64.911111
 20
71.331667
 10
65.614788
 20
71.225531
 10
66.316701
 20
71.105591
 10
67.016535
 20
70.971892
 10
67.713972
 20
70.82448
 10
68.408696
 20
70.663399
 10
69.10039
 20
70.488695
 10
69.788739
 20
70.300413
 10
70.473424
 20
70.098598
 10
71.154131
 20
69.883296
 10
71.830542
 20
69.654551
 10
72.502341
 20
69.412409
 10
73.169212
 20
69.156916
 10
73.830837
 20
68.888115
 10
74.4869
 20
68.606054
 10
75.137086
 20
68.310775
 10
75.781076
 20
68.002326
 10
76.418556
 20
67.680751
 10
77.049207
 20
67.346096
 10
77.672715
 20
66.998405
 10
78.288761
 20
66.637724
 10
78.897031
 20
66.264098
 10
79.497206
 20
65.877572
 10
80.088971
 20
65.478192
 10
80.67201
 20
65.066003
 10
81.246004
 20
64.641049
 10
81.810639
 20
64.203377
 10
82.365598
 20
63.75303
 10
82.910564
 20
63.290056
 10
83.44522
 20
62.814498
 10
83.96925
 20
62.326402
 10
84.482338
 20
61.825814
 10
84.984167
 20
61.312778
 10
85.477865
 20
60.807845
 10
85.960085
 20
60.292048
 10
86.430716
 20
59.765682
 10
86.889649
 20
59.229046
 10
87.336774
 20
58.682437
 10
87.771981
 20
58.126151
 10
88.19516
 20
57.560485
 10
88.606202
 20
56.985738
 10
89.004997
 20
56.402205
 10
89.391434
 20
55.810185
 10
89.765405
 20
55.209974
 10
90.126799
 20
54.60187
 10
90.475506
 20
53.986169
 10
90.811416
 20
53.363168
 10
91.134421
 20
52.733166
 10
91.44441
 20
52.096458
 10
91.741273
 20
51.453343
 10
92.0249
 20
50.804117
 10
92.295181
 20
50.149077
 10
92.552008
 20
49.488521
 10
92.795269
 20
48.822746
 10
93.024856
 20
48.152048
 10
93.240658
 20
47.476725
 10
93.442565
 20
46.797075
 10
93.630468
 20
46.113393
 10
93.804257
 20
45.425978
 10
93.963822
 20
44.735127
 10
94.109053
 20
44.041136
 10
94.239841
 20
43.344303
 10
94.356075
 20
42.644925
 10
94.457646
 20
41.943299
 10
94.544444
 20
41.239722
 10
94.553006
 20
40.876325
 10
94.576553
 20
40.513703
 10
94.611882
 20
40.151804
 10
94.65579
 20
39.790577
 10
94.756525
 20
39.069932
 10
94.853125
 20
38.351354
 10
94.891865
 20
37.992711
 10
94.91996
 20
37.63443
 10
94.934205
 20
37.276459
 10
94.931398
 20
36.918746
 10
94.908333
 20
36.561239
 10
94.861807
 20
36.203888
 10
94.788616
 20
35.846641
 10
94.741019
 20
35.668039
 10
94.685556
 20
35.489444
 10
94.657791
 20
34.954095
 10
94.620849
 20
34.41968
 10
94.5748
 20
33.886308
 10
94.519717
 20
33.354088
 10
94.455671
 20
32.823128
 10
94.382735
 20
32.293535
 10
94.300979
 20
31.765418
 10
94.210477
 20
31.238886
 10
94.111299
 20
30.714046
 10
94.003518
 20
30.191006
 10
93.887206
 20
29.669875
 10
93.762434
 20
29.150762
 10
93.629274
 20
28.633773
 10
93.487798
 20
28.119018
 10
93.338078
 20
27.606604
 10
93.180187
 20
27.096641
 10
93.014195
 20
26.589235
 10
92.840174
 20
26.084495
 10
92.658197
 20
25.58253
 10
92.468335
 20
25.083447
 10
92.270661
 20
24.587356
 10
92.065245
 20
24.094363
 10
91.85216
 20
23.604577
 10
91.631478
 20
23.118107
 10
91.403271
 20
22.63506
 10
91.16761
 20
22.155545
 10
90.924568
 20
21.67967
 10
90.674216
 20
21.207543
 10
90.416625
 20
20.739272
 10
90.151869
 20
20.274966
 10
89.880019
 20
19.814733
 10
89.601146
 20
19.358681
 10
89.315323
 20
18.906917
 10
89.022621
 20
18.459552
 10
88.723112
 20
18.016691
 10
88.416868
 20
17.578445
 10
88.103962
 20
17.14492
 10
87.784464
 20
16.716226
 10
87.458447
 20
16.292469
 10
87.125983
 20
15.87376
 10
86.787142
 20
15.460205
 10
86.441999
 20
15.051913
 10
86.090623
 20
14.648992
 10
85.733087
 20
14.25155
 10
85.369464
 20
13.859696
 10
84.999824
 20
13.473538
 10
84.624239
 20
13.093184
 10
84.242782
 20
12.718741
 10
83.855524
 20
12.350319
 10
83.462538
 20
11.988026
 10
83.063895
 20
11.631969
 10
82.659666
 20
11.282257
 10
82.249924
 20
10.938998
 10
81.834741
 20
10.602301
 10
81.414188
 20
10.272273
 10
80.988338
 20
9.949022
 10
80.557262
 20
9.632658
 10
80.121032
 20
9.323288
 10
79.67972
 20
9.021019
 10
79.233398
 20
8.725962
 10
78.782137
 20
8.438223
 10
78.32601
 20
8.157911
 10
77.865089
 20
7.885134
 10
77.399444
 20
7.62
 10
76.606607
 20
7.192619
 10
75.802712
 20
6.783944
 10
74.988274
 20
6.394493
 10
74.163811
 20
6.024783
 10
73.329839
 20
5.67533
 10
72.486876
 20
5.34665
 10
71.635438
 20
5.039262
 10
70.776042
 20
4.753681
 10
69.909204
 20
4.490424
 10
69.035442
 20
4.250008
 10
68.155271
 20
4.032949
 10
67.26921
 20
3.839766
 10
66.377774
 20
3.670973
 10
65.481481
 20
3.527089
 10
64.580847
 20
3.408629
 10
63.676389
 20
3.316111
 10
63.196536
 20
3.261408
 10
62.716146
 20
3.216246
 10
62.235304
 20
3.180451
 10
61.754095
 20
3.153847
 10
61.2726
 20
3.136261
 10
60.790906
 20
3.127518
 10
60.309096
 20
3.127444
 10
59.827253
 20
3.135864
 10
59.345461
 20
3.152604
 10
58.863806
 20
3.177489
 10
58.38237
 20
3.210346
 10
57.901238
 20
3.250999
 10
56.94022
 20
3.354998
 10
55.981424
 20
3.48809
 10
55.025522
 20
3.648881
 10
54.073185
 20
3.835976
 10
53.125086
 20
4.047979
 10
52.181897
 20
4.283494
 10
51.244288
 20
4.541127
 10
50.312932
 20
4.819482
 10
49.388501
 20
5.117164
 10
48.471667
 20
5.432778
 10
47.763851
 20
5.708693
 10
47.062735
 20
6.000512
 10
46.368607
 20
6.308015
 10
45.681759
 20
6.630982
 10
45.002482
 20
6.969193
 10
44.331067
 20
7.32243
 10
43.667803
 20
7.690472
 10
43.012982
 20
8.073099
 10
42.366894
 20
8.470092
 10
41.72983
 20
8.881232
 10
41.102081
 20
9.306299
 10
40.483937
 20
9.745073
 10
39.875689
 20
10.197334
 10
39.277628
 20
10.662863
 10
38.690045
 20
11.141441
 10
38.113229
 20
11.632847
 10
37.547472
 20
12.136863
 10
36.993065
 20
12.653267
 10
36.450298
 20
13.181842
 10
35.919461
 20
13.722367
 10
35.400846
 20
14.274622
 10
34.894743
 20
14.838388
 10
34.401443
 20
15.413445
 10
33.921237
 20
15.999575
 10
33.454415
 20
16.596556
 10
33.001267
 20
17.20417
 10
32.562085
 20
17.822196
 10
32.13716
 20
18.450416
 10
31.726781
 20
19.088609
 10
31.33124
 20
19.736556
 10
30.950827
 20
20.394037
 10
30.585833
 20
21.060833
 10
30.167022
 20
21.84703
 10
29.770379
 20
22.64413
 10
29.395751
 20
23.451463
 10
29.042982
 20
24.268355
 10
28.711917
 20
25.094136
 10
28.402401
 20
25.928133
 10
28.114279
 20
26.769675
 10
27.847396
 20
27.61809
 10
27.601597
 20
28.472707
 10
27.376727
 20
29.332852
 10
27.172631
 20
30.197855
 10
26.989154
 20
31.067044
 10
26.82614
 20
31.939747
 10
26.683436
 20
32.815292
 10
26.560885
 20
33.693008
 10
26.458333
 20
34.572222
 10
26.443451
 20
35.815213
 10
26.445104
 20
37.054896
 10
26.458333
 20
39.511111
 10
26.520013
 20
40.284236
 10
26.599134
 20
41.055565
 10
26.695567
 20
41.824749
 10
26.809182
 20
42.59144
 10
26.93985
 20
43.355289
 10
27.087442
 20
44.115946
 10
27.251829
 20
44.873064
 10
27.432882
 20
45.626293
 10
27.630471
 20
46.375285
 10
27.844468
 20
47.119691
 10
28.074742
 20
47.859161
 10
28.321165
 20
48.593347
 10
28.583608
 20
49.321901
 10
28.861942
 20
50.044473
 10
29.156037
 20
50.760715
 10
29.465764
 20
51.470278
 10
29.790994
 20
52.172812
 10
30.131597
 20
52.86797
 10
30.487446
 20
53.555402
 10
30.858409
 20
54.23476
 10
31.244359
 20
54.905695
 10
31.645166
 20
55.567857
 10
32.0607
 20
56.220899
 10
32.490833
 20
56.86447
 10
32.935436
 20
57.498224
 10
33.394379
 20
58.12181
 10
33.867532
 20
58.73488
 10
34.354768
 20
59.337084
 10
34.855956
 20
59.928075
 10
35.370968
 20
60.507504
 10
35.899673
 20
61.075021
 10
36.441944
 20
61.630278
 10
37.403195
 20
62.497339
 10
38.383876
 20
63.347865
 10
38.882407
 20
63.764859
 10
39.386881
 20
64.175239
 10
39.897659
 20
64.578177
 10
40.415104
 20
64.972847
 10
40.939577
 20
65.358422
 10
41.471439
 20
65.734076
 10
42.011053
 20
66.09898
 10
42.55878
 20
66.452309
 10
43.114982
 20
66.793236
 10
43.680021
 20
67.120933
 10
44.254258
 20
67.434575
 10
44.838056
 20
67.733333
 10
45.516412
 20
68.071004
 10
46.2019
 20
68.395756
 10
46.894209
 20
68.707072
 10
47.59303
 20
69.004436
 10
48.298051
 20
69.28733
 10
49.008964
 20
69.555238
 10
49.725457
 20
69.807643
 10
50.447222
 20
70.044028
 10
51.173948
 20
70.263877
 10
51.905324
 20
70.466672
 10
52.641042
 20
70.651898
 10
53.38079
 20
70.819036
 10
54.124259
 20
70.967572
 10
54.871138
 20
71.096987
 10
55.621118
 20
71.206765
 10
56.373889
 20
71.296389
 10
56.031033
 20
72.044388
 10
55.869113
 20
72.424382
 10
55.72125
 20
72.808924
 10
55.59323
 20
73.198426
 10
55.490842
 20
73.593303
 10
55.451068
 20
73.792886
 10
55.419873
 20
73.993968
 10
55.397979
 20
74.196599
 10
55.386111
 20
74.400833
 10
55.452343
 20
74.739099
 10
55.532321
 20
75.077932
 10
55.626562
 20
75.415423
 10
55.735582
 20
75.749657
 10
55.859898
 20
76.078724
 10
56.000027
 20
76.400711
 10
56.156486
 20
76.713707
 10
56.329792
 20
77.015799
 10
56.52046
 20
77.305075
 10
56.729009
 20
77.579623
 10
56.955955
 20
77.837531
 10
57.201814
 20
78.076888
 10
57.467104
 20
78.295781
 10
57.607196
 20
78.396956
 10
57.75234
 20
78.492298
 10
57.9026
 20
78.581568
 10
58.058041
 20
78.664527
 10
58.218727
 20
78.740936
 10
58.384722
 20
78.810556
  0
LWPOLYLINE
  5
37
330
1F
100
AcDbEntity
  8
0
100
AcDbPolyline
 90
       97
 70
   128
 43
0.0
 10
59.725278
 20
76.799722
 10
59.897894
 20
76.858502
 10
60.071441
 20
76.902851
 10
60.245401
 20
76.933222
 10
60.419258
 20
76.950066
 10
60.592494
 20
76.953836
 10
60.764594
 20
76.944985
 10
60.93504
 20
76.923963
 10
61.103316
 20
76.891224
 10
61.268904
 20
76.847219
 10
61.431289
 20
76.792401
 10
61.589953
 20
76.727222
 10
61.744379
 20
76.652134
 10
61.894052
 20
76.56759
 10
62.038453
 20
76.47404
 10
62.177066
 20
76.371938
 10
62.309375
 20
76.261736
 10
62.434863
 20
76.143886
 10
62.553012
 20
76.01884
 10
62.663307
 20
75.88705
 10
62.76523
 20
75.748968
 10
62.858265
 20
75.605047
 10
62.941895
 20
75.455739
 10
63.015602
 20
75.301495
 10
63.078872
 20
75.142769
 10
63.131185
 20
74.980012
 10
63.172027
 20
74.813676
 10
63.20088
 20
74.644214
 10
63.217227
 20
74.472078
 10
63.220551
 20
74.297719
 10
63.210336
 20
74.121591
 10
63.186066
 20
73.944145
 10
63.147222
 20
73.765833
 10
63.125658
 20
73.568149
 10
63.087984
 20
73.378708
 10
63.035039
 20
73.19769
 10
62.967664
 20
73.025276
 10
62.886698
 20
72.861646
 10
62.79298
 20
72.706983
 10
62.687351
 20
72.561467
 10
62.570651
 20
72.425278
 10
62.443719
 20
72.298597
 10
62.307394
 20
72.181606
 10
62.162517
 20
72.074485
 10
62.009927
 20
71.977415
 10
61.850465
 20
71.890577
 10
61.684969
 20
71.814152
 10
61.514279
 20
71.748321
 10
61.339236
 20
71.693264
 10
61.160679
 20
71.649162
 10
60.979448
 20
71.616197
 10
60.796382
 20
71.594549
 10
60.612321
 20
71.584399
 10
60.428105
 20
71.585928
 10
60.244574
 20
71.599316
 10
60.062568
 20
71.624745
 10
59.882925
 20
71.662396
 10
59.706487
 20
71.712449
 10
59.534092
 20
71.775085
 10
59.366581
 20
71.850485
 10
59.204793
 20
71.93883
 10
59.049568
 20
72.040301
 10
58.901745
 20
72.155079
 10
58.762165
 20
72.283344
 10
58.631667
 20
72.425278
 10
58.502441
 20
72.551166
 10
58.385825
 20
72.683694
 10
58.281611
 20
72.822269
 10
58.189592
 20
72.966296
 10
58.109562
 20
73.11518
 10
58.041315
 20
73.268327
 10
57.984643
 20
73.425144
 10
57.93934
 20
73.585035
 10
57.905199
 20
73.747406
 10
57.882014
 20
73.911664
 10
57.869577
 20
74.077214
 10
57.867682
 20
74.243461
 10
57.876123
 20
74.409812
 10
57.894692
 20
74.575672
 10
57.923183
 20
74.740447
 10
57.961389
 20
74.903542
 10
58.009103
 20
75.064363
 10
58.06612
 20
75.222316
 10
58.132231
 20
75.376807
 10
58.207231
 20
75.527242
 10
58.290912
 20
75.673025
 10
58.383069
 20
75.813564
 10
58.483493
 20
75.948263
 10
58.591979
 20
76.076528
 10
58.70832
 20
76.197765
 10
58.832309
 20
76.31138
 10
58.963739
 20
76.416778
 10
59.102405
 20
76.513366
 10
59.248098
 20
76.600548
 10
59.400612
 20
76.677731
 10
59.559741
 20
76.744321
 10
59.725278
 20
76.799722
  0
LWPOLYLINE
  5
38
330
1F
100
AcDbEntity
  8
0
100
AcDbPolyline
 90
      363
 70
   128
 43
0.0
 10
39.228889
 20
58.137778
 10
39.670778
 20
58.598816
 10
40.123132
 20
59.049195
 10
40.585667
 20
59.4888
 10
41.058097
 20
59.917514
 10
41.540139
 20
60.335221
 10
42.031509
 20
60.741805
 10
42.531922
 20
61.137149
 10
43.041094
 20
61.521137
 10
43.558741
 20
61.893653
 10
44.084579
 20
62.254581
 10
44.618323
 20
62.603804
 10
45.15969
 20
62.941206
 10
45.708394
 20
63.26667
 10
46.264153
 20
63.580081
 10
46.826681
 20
63.881323
 10
47.395694
 20
64.170278
 10
47.970909
 20
64.446831
 10
48.552041
 20
64.710865
 10
49.138805
 20
64.962264
 10
49.730918
 20
65.200913
 10
50.328095
 20
65.426693
 10
50.930052
 20
65.63949
 10
51.536505
 20
65.839188
 10
52.14717
 20
66.025668
 10
52.761762
 20
66.198817
 10
53.379998
 20
66.358516
 10
54.001592
 20
66.504651
 10
54.626261
 20
66.637104
 10
55.25372
 20
66.755759
 10
55.883686
 20
66.860501
 10
56.515874
 20
66.951213
 10
57.15
 20
67.027778
 10
57.388056
 20
67.036115
 10
57.625699
 20
67.034944
 10
57.862515
 20
67.024677
 10
58.09809
 20
67.005729
 10
58.332012
 20
66.978513
 10
58.563867
 20
66.943442
 10
59.019722
 20
66.851389
 10
58.602866
 20
66.153688
 10
58.171953
 20
65.463429
 10
57.726158
 20
64.781438
 10
57.264653
 20
64.108542
 10
56.786611
 20
63.445567
 10
56.291207
 20
62.793342
 10
55.777612
 20
62.152692
 10
55.245
 20
61.524444
 10
54.983423
 20
61.237416
 10
54.715075
 20
60.957933
 10
54.44063
 20
60.685271
 10
54.16076
 20
60.418707
 10
53.587427
 20
59.900978
 10
53.000451
 20
59.398958
 10
51.80707
 20
58.418898
 10
51.211413
 20
57.929281
 10
50.623611
 20
57.432222
 10
50.919106
 20
57.213596
 10
51.223127
 20
57.007786
 10
51.535106
 20
56.815206
 10
51.854475
 20
56.636267
 10
52.180665
 20
56.471385
 10
52.513108
 20
56.320972
 10
52.851236
 20
56.185442
 10
53.194479
 20
56.065208
 10
53.54227
 20
55.960684
 10
53.89404
 20
55.872283
 10
54.249221
 20
55.800418
 10
54.607244
 20
55.745503
 10
54.967541
 20
55.707952
 10
55.329543
 20
55.688177
 10
55.692682
 20
55.686592
 10
56.056389
 20
55.703611
 10
55.926
 20
55.408749
 10
55.786354
 20
55.119487
 10
55.637703
 20
54.835844
 10
55.4803
 20
54.557841
 10
55.314396
 20
54.285497
 10
55.140243
 20
54.01883
 10
54.958094
 20
53.757861
 10
54.768199
 20
53.502609
 10
54.570811
 20
53.253092
 10
54.366182
 20
53.009331
 10
54.154564
 20
52.771345
 10
53.936208
 20
52.539153
 10
53.711367
 20
52.312775
 10
53.480293
 20
52.092229
 10
53.243237
 20
51.877537
 10
53.000451
 20
51.668715
 10
52.752188
 20
51.465785
 10
52.498699
 20
51.268766
 10
52.240236
 20
51.077676
 10
51.977051
 20
50.892535
 10
51.437524
 20
50.54018
 10
50.882131
 20
50.211853
 10
50.312889
 20
49.907712
 10
49.731814
 20
49.62791
 10
49.14092
 20
49.372602
 10
48.542222
 20
49.141944
 10
48.021599
 20
48.927866
 10
47.492708
 20
48.732391
 10
46.957203
 20
48.550973
 10
46.416736
 20
48.379062
 10
45.327535
 20
48.045577
 10
44.782107
 20
47.874907
 10
44.238333
 20
47.695556
 10
44.487121
 20
47.449076
 10
44.74366
 20
47.212002
 10
45.007434
 20
46.983816
 10
45.277925
 20
46.764002
 10
45.554618
 20
46.552042
 10
45.836995
 20
46.347421
 10
46.12454
 20
46.149621
 10
46.416736
 20
45.958125
 10
47.013013
 20
45.59198
 10
47.621693
 20
45.244852
 10
48.23864
 20
44.912607
 10
48.859722
 20
44.591111
 10
49.113445
 20
44.469361
 10
49.371457
 20
44.35464
 10
49.897661
 20
44.141319
 10
50.971979
 20
43.744444
 10
51.509345
 20
43.541046
 10
52.039683
 20
43.321111
 10
52.300537
 20
43.201842
 10
52.557619
 20
43.074718
 10
52.810256
 20
42.938499
 10
53.057778
 20
42.791944
 10
52.750474
 20
42.351729
 10
52.430762
 20
41.92391
 10
52.099048
 20
41.508273
 10
51.755738
 20
41.104606
 10
51.401241
 20
40.712695
 10
51.035963
 20
40.332327
 10
50.660311
 20
39.96329
 10
50.274692
 20
39.605369
 10
49.879512
 20
39.258352
 10
49.47518
 20
38.922026
 10
49.062101
 20
38.596177
 10
48.640683
 20
38.280592
 10
48.211333
 20
37.975058
 10
47.774457
 20
37.679362
 10
47.330463
 20
37.393291
 10
46.879757
 20
37.116632
 10
46.422747
 20
36.849171
 10
45.959839
 20
36.590695
 10
45.491441
 20
36.340991
 10
45.017958
 20
36.099846
 10
44.5398
 20
35.867047
 10
44.057371
 20
35.642381
 10
43.57108
 20
35.425634
 10
43.081332
 20
35.216593
 10
42.588536
 20
35.015045
 10
42.093098
 20
34.820777
 10
41.095924
 20
34.453229
 10
40.093065
 20
34.112242
 10
39.087778
 20
33.796111
 10
39.343585
 20
33.529805
 10
39.607918
 20
33.273008
 10
39.88021
 20
33.025305
 10
40.159891
 20
32.786285
 10
40.446394
 20
32.555532
 10
40.73915
 20
32.332635
 10
41.03759
 20
32.117178
 10
41.341146
 20
31.90875
 10
41.961332
 20
31.511324
 10
42.595161
 20
31.137049
 10
43.238084
 20
30.782617
 10
43.885556
 20
30.444722
 10
44.238127
 20
30.278738
 10
44.594418
 20
30.123915
 10
44.954017
 20
29.979014
 10
45.31651
 20
29.842795
 10
46.048524
 20
29.591441
 10
46.787153
 20
29.359931
 10
48.271024
 20
28.916753
 10
49.009653
 20
28.685243
 10
49.741667
 20
28.433889
 10
48.968251
 20
27.880701
 10
48.182899
 20
27.345445
 10
47.386074
 20
26.827863
 10
46.578242
 20
26.327695
 10
45.759868
 20
25.844684
 10
44.931418
 20
25.378572
 10
44.093355
 20
24.929099
 10
43.246146
 20
24.496007
 10
42.390255
 20
24.079038
 10
41.526147
 20
23.677935
 10
40.654289
 20
23.292437
 10
39.775143
 20
22.922287
 10
38.889177
 20
22.567227
 10
37.996854
 20
22.226998
 10
37.09864
 20
21.901342
 10
36.195
 20
21.59
 10
36.465302
 20
21.252232
 10
36.746766
 20
20.926802
 10
37.038979
 20
20.613645
 10
37.341528
 20
20.312696
 10
37.653998
 20
20.023892
 10
37.975977
 20
19.747167
 10
38.30705
 20
19.482456
 10
38.646806
 20
19.229696
 10
38.994829
 20
18.988822
 10
39.350707
 20
18.759768
 10
39.714027
 20
18.542471
 10
40.084375
 20
18.336865
 10
40.461337
 20
18.142887
 10
40.844501
 20
17.960471
 10
41.233452
 20
17.789554
 10
41.627778
 20
17.630069
 10
42.027064
 20
17.481954
 10
42.430898
 20
17.345143
 10
42.838867
 20
17.219571
 10
43.250556
 20
17.105175
 10
43.665552
 20
17.001889
 10
44.083442
 20
16.909648
 10
44.503812
 20
16.828389
 10
44.92625
 20
16.758047
 10
45.350341
 20
16.698557
 10
45.775673
 20
16.649854
 10
46.201831
 20
16.611874
 10
46.628403
 20
16.584552
 10
47.054975
 20
16.567824
 10
47.481133
 20
16.561625
 10
47.906464
 20
16.56589
 10
48.330556
 20
16.580556
 10
49.229932
 20
16.680119
 10
50.128069
 20
16.794978
 10
51.023725
 20
16.927201
 10
51.91566
 20
17.078854
 10
52.802634
 20
17.252005
 10
53.683407
 20
17.44872
 10
54.556739
 20
17.671066
 10
54.990227
 20
17.792497
 10
55.421389
 20
17.921111
 10
55.790359
 20
18.026393
 10
56.157261
 20
18.148212
 10
56.523337
 20
18.273338
 10
56.889826
 20
18.388542
 10
57.073614
 20
18.438289
 10
57.257969
 20
18.480595
 10
57.443048
 20
18.513805
 10
57.629006
 20
18.536267
 10
57.815997
 20
18.546327
 10
58.004177
 20
18.542331
 10
58.1937
 20
18.522625
 10
58.384722
 20
18.485556
 10
58.151007
 20
18.190104
 10
57.917292
 20
17.894653
 10
57.7963
 20
17.751061
 10
57.670347
 20
17.612431
 10
57.53778
 20
17.480414
 10
57.396944
 20
17.356667
 10
57.041342
 20
17.324765
 10
56.688633
 20
17.306506
 10
55.990243
 20
17.29934
 10
55.298468
 20
17.312018
 10
54.61
 20
17.321389
 10
54.681296
 20
16.726869
 10
54.761998
 20
16.133796
 10
54.946241
 20
14.951163
 10
55.368472
 20
12.594167
 10
55.584962
 20
11.416495
 10
55.790703
 20
10.23717
 10
55.974947
 20
9.054538
 10
56.055648
 20
8.461465
 10
56.126944
 20
7.866944
 10
55.450346
 20
7.977404
 10
54.776751
 20
8.103631
 10
54.106477
 20
8.245478
 10
53.439839
 20
8.402795
 10
52.777154
 20
8.575434
 10
52.118739
 20
8.763246
 10
51.464911
 20
8.966084
 10
50.815985
 20
9.183798
 10
50.172279
 20
9.416239
 10
49.534108
 20
9.66326
 10
48.90179
 20
9.924712
 10
48.275641
 20
10.200445
 10
47.655977
 20
10.490313
 10
47.043115
 20
10.794165
 10
46.437371
 20
11.111853
 10
45.839062
 20
11.443229
 10
45.248505
 20
11.788145
 10
44.666016
 20
12.146451
 10
44.091911
 20
12.517999
 10
43.526508
 20
12.902641
 10
42.970122
 20
13.300227
 10
42.423069
 20
13.71061
 10
41.885668
 20
14.133641
 10
41.358234
 20
14.569171
 10
40.841083
 20
15.017052
 10
40.334532
 20
15.477135
 10
39.838898
 20
15.949271
 10
39.354497
 20
16.433312
 10
38.881646
 20
16.92911
 10
38.420661
 20
17.436515
 10
37.971859
 20
17.95538
 10
37.535556
 20
18.485556
 10
37.095906
 20
19.023547
 10
36.669984
 20
19.57232
 10
36.257872
 20
20.131492
 10
35.859654
 20
20.700683
 10
35.475415
 20
21.279512
 10
35.105239
 20
21.867597
 10
34.749209
 20
22.464558
 10
34.407409
 20
23.070013
 10
34.079923
 20
23.683581
 10
33.766836
 20
24.304882
 10
33.468232
 20
24.933533
 10
33.184193
 20
25.569154
 10
32.914805
 20
26.211364
 10
32.660151
 20
26.859782
 10
32.420315
 20
27.514026
 10
32.195382
 20
28.173715
 10
31.985435
 20
28.838469
 10
31.790557
 20
29.507906
 10
31.610834
 20
30.181645
 10
31.446349
 20
30.859305
 10
31.297186
 20
31.540505
 10
31.163429
 20
32.224863
 10
31.045163
 20
32.911999
 10
30.94247
 20
33.601532
 10
30.855435
 20
34.29308
 10
30.784142
 20
34.986262
 10
30.728675
 20
35.680698
 10
30.689117
 20
36.376005
 10
30.665554
 20
37.071804
 10
30.658068
 20
37.767712
 10
30.666745
 20
38.463349
 10
30.691667
 20
39.158333
 10
30.7514
 20
39.819425
 10
30.824751
 20
40.479553
 10
30.911692
 20
41.138377
 10
31.012198
 20
41.795554
 10
31.126244
 20
42.450741
 10
31.253803
 20
43.103596
 10
31.394849
 20
43.753777
 10
31.549358
 20
44.400942
 10
31.717302
 20
45.044747
 10
31.898656
 20
45.684851
 10
32.093394
 20
46.320912
 10
32.301491
 20
46.952586
 10
32.52292
 20
47.579532
 10
32.757656
 20
48.201408
 10
33.005673
 20
48.81787
 10
33.266944
 20
49.428576
 10
33.541445
 20
50.033185
 10
33.82915
 20
50.631354
 10
34.130031
 20
51.22274
 10
34.444065
 20
51.807001
 10
34.771224
 20
52.383795
 10
35.111483
 20
52.95278
 10
35.464816
 20
53.513612
 10
35.831198
 20
54.065951
 10
36.210602
 20
54.609452
 10
36.603003
 20
55.143774
 10
37.008374
 20
55.668576
 10
37.426691
 20
56.183513
 10
37.857926
 20
56.688244
 10
38.302055
 20
57.182427
 10
38.759051
 20
57.665719
 10
39.228889
 20
58.137778
  0
LWPOLYLINE
  5
39
330
1F
100
AcDbEntity
  8
0
100
AcDbPolyline
 90
      356
 70
   128
 43
0.0
 10
62.053611
 20
66.9925
 10
62.695157
 20
67.001698
 10
63.336289
 20
66.99002
 10
63.976595
 20
66.958083
 10
64.61566
 20
66.90651
 10
65.253071
 20
66.83592
 10
65.888416
 20
66.746934
 10
66.52128
 20
66.64017
 10
67.15125
 20
66.51625
 10
67.777913
 20
66.375793
 10
68.400855
 20
66.219421
 10
69.019663
 20
66.047751
 10
69.633924
 20
65.861406
 10
70.243223
 20
65.661005
 10
70.847148
 20
65.447168
 10
71.445286
 20
65.220515
 10
72.037222
 20
64.981667
 10
72.503328
 20
64.785625
 10
72.965621
 20
64.58122
 10
73.424007
 20
64.368562
 10
73.878393
 20
64.147764
 10
74.328688
 20
63.918937
 10
74.774797
 20
63.682192
 10
75.216629
 20
63.43764
 10
75.65409
 20
63.185394
 10
76.087088
 20
62.925564
 10
76.515529
 20
62.658262
 10
76.939321
 20
62.383599
 10
77.35837
 20
62.101687
 10
77.772585
 20
61.812638
 10
78.181872
 20
61.516562
 10
78.586138
 20
61.213571
 10
78.985291
 20
60.903776
 10
79.379237
 20
60.587289
 10
79.767884
 20
60.264222
 10
80.151139
 20
59.934685
 10
80.528909
 20
59.598791
 10
80.901101
 20
59.25665
 10
81.267622
 20
58.908375
 10
81.62838
 20
58.554075
 10
81.983282
 20
58.193864
 10
82.332234
 20
57.827852
 10
82.675144
 20
57.456151
 10
83.011919
 20
57.078871
 10
83.342467
 20
56.696126
 10
83.666693
 20
56.308025
 10
83.984507
 20
55.914681
 10
84.295813
 20
55.516205
 10
84.600521
 20
55.112708
 10
84.898536
 20
54.704302
 10
85.189767
 20
54.291098
 10
85.474119
 20
53.873208
 10
85.751501
 20
53.450743
 10
86.02182
 20
53.023814
 10
86.284982
 20
52.592533
 10
86.540895
 20
52.157011
 10
86.789466
 20
51.71736
 10
87.030601
 20
51.273691
 10
87.264209
 20
50.826116
 10
87.490197
 20
50.374746
 10
87.708471
 20
49.919692
 10
87.918938
 20
49.461066
 10
88.121506
 20
48.998979
 10
88.316083
 20
48.533544
 10
88.502574
 20
48.06487
 10
88.680887
 20
47.59307
 10
88.85093
 20
47.118254
 10
89.012609
 20
46.640536
 10
89.165832
 20
46.160025
 10
89.310506
 20
45.676833
 10
89.446537
 20
45.191072
 10
89.573834
 20
44.702854
 10
89.692303
 20
44.212288
 10
89.801851
 20
43.719488
 10
89.902386
 20
43.224564
 10
89.993814
 20
42.727629
 10
90.076044
 20
42.228792
 10
90.148981
 20
41.728166
 10
90.212533
 20
41.225862
 10
90.266607
 20
40.721992
 10
90.311111
 20
40.216667
 10
90.297882
 20
37.729583
 10
90.296228
 20
36.486042
 10
90.311111
 20
35.2425
 10
90.272191
 20
34.562277
 10
90.215139
 20
33.884392
 10
90.14022
 20
33.209116
 10
90.047699
 20
32.536722
 10
89.93784
 20
31.86748
 10
89.810909
 20
31.201661
 10
89.66717
 20
30.539538
 10
89.506888
 20
29.88138
 10
89.330328
 20
29.22746
 10
89.137755
 20
28.578049
 10
88.929433
 20
27.933418
 10
88.705628
 20
27.293838
 10
88.466604
 20
26.659581
 10
88.212626
 20
26.030918
 10
87.943959
 20
25.40812
 10
87.660868
 20
24.791458
 10
87.363618
 20
24.181205
 10
87.052473
 20
23.577631
 10
86.727698
 20
22.981007
 10
86.389559
 20
22.391605
 10
86.03832
 20
21.809696
 10
85.674245
 20
21.235551
 10
85.2976
 20
20.669442
 10
84.90865
 20
20.111641
 10
84.507659
 20
19.562417
 10
84.094893
 20
19.022043
 10
83.670615
 20
18.49079
 10
83.235092
 20
17.968929
 10
82.788587
 20
17.456732
 10
82.331366
 20
16.954469
 10
81.863693
 20
16.462412
 10
81.385833
 20
15.980833
 10
81.005925
 20
15.626561
 10
80.620333
 20
15.278206
 10
80.22916
 20
14.935897
 10
79.832509
 20
14.599763
 10
79.430483
 20
14.269934
 10
79.023187
 20
13.946539
 10
78.610723
 20
13.629706
 10
78.193194
 20
13.319566
 10
77.770705
 20
13.016247
 10
77.343358
 20
12.719878
 10
76.911257
 20
12.430589
 10
76.474505
 20
12.148509
 10
76.033206
 20
11.873767
 10
75.587462
 20
11.606492
 10
75.137378
 20
11.346814
 10
74.683056
 20
11.094861
 10
74.224599
 20
10.850763
 10
73.762113
 20
10.614649
 10
73.295698
 20
10.386649
 10
72.82546
 20
10.16689
 10
72.351501
 20
9.955503
 10
71.873925
 20
9.752617
 10
71.392834
 20
9.558361
 10
70.908333
 20
9.372865
 10
70.420525
 20
9.196256
 10
69.929513
 20
9.028665
 10
69.4354
 20
8.870221
 10
68.93829
 20
8.721053
 10
68.438286
 20
8.581289
 10
67.935492
 20
8.45106
 10
67.43001
 20
8.330495
 10
66.921944
 20
8.219722
 10
66.670521
 20
8.174729
 10
66.418685
 20
8.144206
 10
66.166022
 20
8.126085
 10
65.912118
 20
8.118299
 10
65.398937
 20
8.125464
 10
64.875833
 20
8.149167
 10
65.048433
 20
9.389677
 10
65.244596
 20
10.625226
 10
65.458123
 20
11.857467
 10
65.682812
 20
13.088056
 10
66.140872
 20
15.550885
 10
66.361841
 20
16.786434
 10
66.569167
 20
18.026944
 10
62.794444
 20
18.026944
 10
62.820352
 20
18.261762
 10
62.842951
 20
18.556111
 10
62.858937
 20
18.85046
 10
62.865
 20
19.085278
 10
63.585223
 20
18.934753
 10
64.304154
 20
18.775701
 10
65.739588
 20
18.440907
 10
67.174194
 20
18.098671
 10
68.610868
 20
17.766771
 10
69.330884
 20
17.610252
 10
70.052503
 20
17.462982
 10
70.776085
 20
17.327185
 10
71.501992
 20
17.205082
 10
72.230587
 20
17.098896
 10
72.96223
 20
17.010848
 10
73.697285
 20
16.94316
 10
74.436111
 20
16.898056
 10
75.187495
 20
16.925608
 10
75.565451
 20
16.950426
 10
75.944305
 20
16.982874
 10
76.323598
 20
17.02315
 10
76.702872
 20
17.071456
 10
77.081668
 20
17.127991
 10
77.459527
 20
17.192956
 10
77.835991
 20
17.266551
 10
78.210601
 20
17.348975
 10
78.582898
 20
17.440431
 10
78.952425
 20
17.541117
 10
79.318721
 20
17.651234
 10
79.681329
 20
17.770982
 10
80.03979
 20
17.900562
 10
80.393646
 20
18.040174
 10
80.742437
 20
18.190017
 10
81.085705
 20
18.350292
 10
81.422992
 20
18.5212
 10
81.753838
 20
18.702941
 10
82.077786
 20
18.895715
 10
82.394376
 20
19.099721
 10
82.703151
 20
19.315161
 10
83.00365
 20
19.542235
 10
83.295416
 20
19.781143
 10
83.577991
 20
20.032085
 10
83.850914
 20
20.295261
 10
84.113729
 20
20.570872
 10
84.365976
 20
20.859118
 10
84.607196
 20
21.160198
 10
84.836931
 20
21.474315
 10
85.054722
 20
21.801667
 10
84.170582
 20
22.074217
 10
83.291453
 20
22.363148
 10
82.418216
 20
22.669133
 10
81.551749
 20
22.992843
 10
80.69293
 20
23.334949
 10
79.842637
 20
23.696125
 10
79.00175
 20
24.07704
 10
78.171146
 20
24.478368
 10
77.351704
 20
24.90078
 10
76.544303
 20
25.344947
 10
75.749821
 20
25.811542
 10
74.969136
 20
26.301237
 10
74.203128
 20
26.814703
 10
73.452674
 20
27.352611
 10
73.083555
 20
27.630942
 10
72.718653
 20
27.915635
 10
72.35808
 20
28.206774
 10
72.001944
 20
28.504444
 10
73.291099
 20
28.91193
 10
73.937485
 20
29.126267
 10
74.582734
 20
29.350009
 10
75.22509
 20
29.584913
 10
75.862794
 20
29.832735
 10
76.494091
 20
30.095235
 10
77.117222
 20
30.374167
 10
77.730432
 20
30.671289
 10
78.331963
 20
30.988358
 10
78.920058
 20
31.327132
 10
79.49296
 20
31.689366
 10
79.773165
 20
31.879831
 10
80.048912
 20
32.076819
 10
80.319983
 20
32.280551
 10
80.586158
 20
32.491247
 10
80.847216
 20
32.709125
 10
81.102939
 20
32.934407
 10
81.353107
 20
33.16731
 10
81.5975
 20
33.408056
 10
80.628748
 20
33.792924
 10
79.65674
 20
34.195053
 10
78.685662
 20
34.616819
 10
77.719701
 20
35.060599
 10
76.763041
 20
35.52877
 10
76.289507
 20
35.772745
 10
75.819868
 20
36.02371
 10
75.354648
 20
36.281961
 10
74.894369
 20
36.547795
 10
74.439555
 20
36.82151
 10
73.990729
 20
37.103403
 10
73.548414
 20
37.39377
 10
73.113134
 20
37.69291
 10
72.685412
 20
38.001119
 10
72.26577
 20
38.318695
 10
71.854732
 20
38.645934
 10
71.452822
 20
38.983133
 10
71.060562
 20
39.33059
 10
70.678477
 20
39.688602
 10
70.307088
 20
40.057467
 10
69.946919
 20
40.43748
 10
69.598494
 20
40.82894
 10
69.262336
 20
41.232143
 10
68.938967
 20
41.647387
 10
68.628912
 20
42.074968
 10
68.332693
 20
42.515185
 10
68.050833
 20
42.968333
 10
68.601575
 20
43.10463
 10
69.154435
 20
43.250073
 10
69.707399
 20
43.406369
 10
70.258451
 20
43.575221
 10
70.805575
 20
43.758337
 10
71.346756
 20
43.95742
 10
71.879979
 20
44.174177
 10
72.403229
 20
44.410312
 10
72.91449
 20
44.667532
 10
73.411746
 20
44.947541
 10
73.654493
 20
45.096624
 10
73.892983
 20
45.252044
 10
74.126964
 20
45.414014
 10
74.356185
 20
45.582747
 10
74.580393
 20
45.758457
 10
74.799336
 20
45.941356
 10
75.012763
 20
46.131658
 10
75.220422
 20
46.329575
 10
75.42206
 20
46.535322
 10
75.617426
 20
46.74911
 10
75.806268
 20
46.971154
 10
75.988333
 20
47.201667
 10
74.418541
 20
47.993763
 10
73.624059
 20
48.394152
 10
72.829319
 20
48.802396
 10
72.038919
 20
49.222215
 10
71.257459
 20
49.657331
 10
70.489539
 20
50.111463
 10
70.112093
 20
50.346824
 10
69.739757
 20
50.588333
 10
69.373105
 20
50.836458
 10
69.012713
 20
51.091662
 10
68.659154
 20
51.354411
 10
68.313005
 20
51.625169
 10
67.97484
 20
51.904403
 10
67.645234
 20
52.192576
 10
67.324761
 20
52.490155
 10
67.013997
 20
52.797604
 10
66.713517
 20
53.115388
 10
66.423896
 20
53.443973
 10
66.145707
 20
53.783823
 10
65.879527
 20
54.135404
 10
65.625931
 20
54.49918
 10
65.385492
 20
54.875617
 10
65.158787
 20
55.26518
 10
64.946389
 20
55.668333
 10
65.28797
 20
55.749448
 10
65.636786
 20
55.822811
 10
66.348681
 20
55.958273
 10
67.06719
 20
56.098695
 10
67.424274
 20
56.178259
 10
67.777431
 20
56.268056
 10
68.1248
 20
56.371081
 10
68.46452
 20
56.490333
 10
68.794733
 20
56.628809
 10
69.113576
 20
56.789505
 10
69.268154
 20
56.879123
 10
69.419191
 20
56.97542
 10
69.566456
 20
57.07877
 10
69.709716
 20
57.18955
 10
69.848738
 20
57.308132
 10
69.983291
 20
57.434892
 10
70.113141
 20
57.570205
 10
70.238056
 20
57.714444
 10
69.909702
 20
57.929291
 10
69.586097
 20
58.150404
 10
69.267233
 20
58.37764
 10
68.953104
 20
58.610858
 10
68.339024
 20
59.09467
 10
67.743806
 20
59.600703
 10
67.167399
 20
60.12782
 10
66.60975
 20
60.674884
 10
66.070808
 20
61.240758
 10
65.550521
 20
61.824306
 10
65.048837
 20
62.42439
 10
64.565706
 20
63.039873
 10
64.101074
 20
63.669619
 10
63.654891
 20
64.312491
 10
63.227105
 20
64.967352
 10
62.817664
 20
65.633065
 10
62.426517
 20
66.308494
 10
62.053611
 20
66.9925
  0
LWPOLYLINE
  5
3A
330
1F
100
AcDbEntity
  8
0
100
AcDbPolyline
 90
      666
 70
   128
 43
0.0
 10
57.714444
 20
61.206944
 10
58.102018
 20
61.691049
 10
58.473468
 20
62.18921
 10
58.832516
 20
62.698946
 10
59.182882
 20
63.217778
 10
59.872452
 20
64.272804
 10
60.571944
 20
65.334444
 10
60.862866
 20
64.822193
 10
61.166292
 20
64.317177
 10
61.481501
 20
63.819188
 10
61.807769
 20
63.328021
 10
62.144372
 20
62.843468
 10
62.490587
 20
62.365323
 10
62.84569
 20
61.89338
 10
63.208958
 20
61.427431
 10
63.579668
 20
60.967269
 10
63.957095
 20
60.512689
 10
64.72921
 20
59.619444
 10
65.519515
 20
58.746044
 10
66.322222
 20
57.890833
 10
64.187917
 20
57.886424
 10
63.117457
 20
57.875951
 10
62.053611
 20
57.855556
 10
62.208365
 20
57.341134
 10
62.378828
 20
56.829193
 10
62.750347
 20
55.809444
 10
63.135095
 20
54.789696
 10
63.322095
 20
54.277755
 10
63.5
 20
53.763333
 10
63.08776
 20
53.636761
 10
62.675933
 20
53.491584
 10
62.472371
 20
53.41034
 10
62.271548
 20
53.32243
 10
62.074342
 20
53.227182
 10
61.881632
 20
53.123924
 10
61.694296
 20
53.011984
 10
61.513213
 20
52.890691
 10
61.339262
 20
52.759372
 10
61.17332
 20
52.617357
 10
61.016267
 20
52.463973
 10
60.868981
 20
52.298548
 10
60.732339
 20
52.12041
 10
60.607222
 20
51.928889
 10
60.532075
 20
51.774858
 10
60.465345
 20
51.617306
 10
60.406973
 20
51.456641
 10
60.356902
 20
51.293269
 10
60.315073
 20
51.127597
 10
60.281428
 20
50.960033
 10
60.25591
 20
50.790984
 10
60.238459
 20
50.620855
 10
60.229019
 20
50.450055
 10
60.22753
 20
50.27899
 10
60.233934
 20
50.108067
 10
60.248174
 20
49.937693
 10
60.270192
 20
49.768275
 10
60.299928
 20
49.60022
 10
60.337326
 20
49.433935
 10
60.382326
 20
49.269826
 10
60.434872
 20
49.108302
 10
60.494903
 20
48.949768
 10
60.562364
 20
48.794633
 10
60.637195
 20
48.643301
 10
60.719337
 20
48.496182
 10
60.808734
 20
48.353681
 10
60.905327
 20
48.216205
 10
61.009058
 20
48.084162
 10
61.119869
 20
47.957959
 10
61.237701
 20
47.838002
 10
61.362496
 20
47.724698
 10
61.494197
 20
47.618454
 10
61.632744
 20
47.519678
 10
61.778081
 20
47.428776
 10
61.930149
 20
47.346155
 10
62.088889
 20
47.272222
 10
62.276262
 20
47.171585
 10
62.467531
 20
47.087651
 10
62.662042
 20
47.01997
 10
62.859143
 20
46.968089
 10
63.058183
 20
46.931556
 10
63.258507
 20
46.909919
 10
63.459465
 20
46.902725
 10
63.660404
 20
46.909523
 10
63.86067
 20
46.929859
 10
64.059613
 20
46.963283
 10
64.256578
 20
47.009342
 10
64.450915
 20
47.067584
 10
64.641971
 20
47.137556
 10
64.829092
 20
47.218806
 10
65.011627
 20
47.310883
 10
65.188924
 20
47.413333
 10
65.360329
 20
47.525706
 10
65.525191
 20
47.647548
 10
65.682857
 20
47.778408
 10
65.832674
 20
47.917833
 10
65.973991
 20
48.065371
 10
66.106154
 20
48.220571
 10
66.228512
 20
48.382979
 10
66.340412
 20
48.552144
 10
66.441202
 20
48.727614
 10
66.530228
 20
48.908935
 10
66.60684
 20
49.095657
 10
66.670384
 20
49.287327
 10
66.720207
 20
49.483493
 10
66.755658
 20
49.683703
 10
66.776084
 20
49.887504
 10
66.780833
 20
50.094444
 10
67.447115
 20
49.62474
 10
68.122491
 20
49.167852
 10
68.806136
 20
48.723365
 10
69.497222
 20
48.290868
 10
70.194923
 20
47.869946
 10
70.898411
 20
47.460187
 10
71.606861
 20
47.061176
 10
72.319444
 20
46.6725
 10
71.879247
 20
46.449955
 10
71.432126
 20
46.244826
 10
70.978596
 20
46.056336
 10
70.519175
 20
45.883711
 10
70.05438
 20
45.726175
 10
69.584728
 20
45.582954
 10
69.110734
 20
45.453272
 10
68.632917
 20
45.336354
 10
68.151792
 20
45.231425
 10
67.667877
 20
45.13771
 10
67.181687
 20
45.054433
 10
66.693741
 20
44.98082
 10
66.204555
 20
44.916096
 10
65.714645
 20
44.859484
 10
64.734722
 20
44.7675
 10
64.868866
 20
44.381684
 10
65.01908
 20
44.004342
 10
65.184075
 20
43.634856
 10
65.362556
 20
43.272604
 10
65.553234
 20
42.916967
 10
65.754815
 20
42.567324
 10
65.966008
 20
42.223056
 10
66.185521
 20
41.883542
 10
66.644339
 20
41.216296
 10
67.120933
 20
40.560625
 10
67.604969
 20
39.911569
 10
68.086111
 20
39.264167
 10
67.82791
 20
39.244702
 10
67.569967
 20
39.212628
 10
67.313368
 20
39.167738
 10
67.059197
 20
39.109826
 10
66.808541
 20
39.038685
 10
66.562483
 20
38.954108
 10
66.32211
 20
38.855888
 10
66.088507
 20
38.743819
 10
65.862758
 20
38.617694
 10
65.64595
 20
38.477307
 10
65.439167
 20
38.32245
 10
65.243494
 20
38.152917
 10
65.060017
 20
37.968501
 10
64.88982
 20
37.768995
 10
64.73399
 20
37.554194
 10
64.593611
 20
37.323889
 10
64.453475
 20
37.086261
 10
64.34317
 20
36.843763
 10
64.261519
 20
36.597518
 10
64.207347
 20
36.348651
 10
64.179478
 20
36.098285
 10
64.176737
 20
35.847545
 10
64.197948
 20
35.597554
 10
64.241936
 20
35.349436
 10
64.307524
 20
35.104315
 10
64.393537
 20
34.863316
 10
64.4988
 20
34.627561
 10
64.622137
 20
34.398176
 10
64.762371
 20
34.176284
 10
64.918329
 20
33.963009
 10
65.088833
 20
33.759475
 10
65.272708
 20
33.566806
 10
65.468779
 20
33.386125
 10
65.675871
 20
33.218558
 10
65.892806
 20
33.065228
 10
66.11841
 20
32.927258
 10
66.351508
 20
32.805773
 10
66.590922
 20
32.701897
 10
66.835479
 20
32.616754
 10
67.084002
 20
32.551467
 10
67.335315
 20
32.507161
 10
67.588243
 20
32.484959
 10
67.841611
 20
32.485987
 10
68.094242
 20
32.511366
 10
68.344961
 20
32.562222
 10
68.592592
 20
32.639679
 10
68.83596
 20
32.74486
 10
69.073889
 20
32.878889
 10
69.334028
 20
33.015857
 10
69.572463
 20
33.174271
 10
69.789814
 20
33.352426
 10
69.986701
 20
33.548615
 10
70.163745
 20
33.761135
 10
70.321565
 20
33.988279
 10
70.460781
 20
34.228341
 10
70.582014
 20
34.479618
 10
70.685884
 20
34.740403
 10
70.77301
 20
35.008991
 10
70.844013
 20
35.283678
 10
70.899514
 20
35.562756
 10
70.940132
 20
35.844522
 10
70.966487
 20
36.127269
 10
70.979199
 20
36.409294
 10
70.978889
 20
36.688889
 10
71.345921
 20
36.402705
 10
71.719102
 20
36.125822
 10
72.097968
 20
35.857622
 10
72.482053
 20
35.597483
 10
72.870892
 20
35.344785
 10
73.264021
 20
35.098908
 10
74.061285
 20
34.625139
 10
74.870124
 20
34.171213
 10
75.686819
 20
33.73217
 10
77.328889
 20
32.878889
 10
77.056065
 20
32.710974
 10
76.780102
 20
32.550907
 10
76.21943
 20
32.252639
 10
75.648216
 20
31.980727
 10
75.067804
 20
31.73181
 10
74.479537
 20
31.50253
 10
73.884758
 20
31.289529
 10
73.284812
 20
31.089446
 10
72.681042
 20
30.898924
 10
71.467403
 20
30.533123
 10
70.254592
 20
30.165256
 10
69.651855
 20
29.97215
 10
69.053356
 20
29.76845
 10
68.460438
 20
29.550797
 10
67.874444
 20
29.315833
 10
68.143782
 20
29.04436
 10
68.421801
 20
28.784462
 10
68.707262
 20
28.534486
 10
68.998924
 20
28.292778
 10
69.59589
 20
27.827552
 10
70.202778
 20
27.375556
 10
69.969398
 20
27.164001
 10
69.734727
 20
26.939889
 10
69.502433
 20
26.703891
 10
69.276185
 20
26.45668
 10
69.059652
 20
26.198926
 10
68.856503
 20
25.931303
 10
68.670408
 20
25.654481
 10
68.505035
 20
25.369132
 10
68.364053
 20
25.075928
 10
68.303855
 20
24.926591
 10
68.251131
 20
24.775542
 10
68.20634
 20
24.622865
 10
68.169939
 20
24.468644
 10
68.142388
 20
24.312964
 10
68.124145
 20
24.155907
 10
68.115669
 20
23.997559
 10
68.117418
 20
23.838002
 10
68.129852
 20
23.677322
 10
68.153428
 20
23.515602
 10
68.188606
 20
23.352925
 10
68.235844
 20
23.189377
 10
68.2956
 20
23.025041
 10
68.368333
 20
22.86
 10
68.434271
 20
22.672025
 10
68.512605
 20
22.49184
 10
68.602709
 20
22.319587
 10
68.703955
 20
22.155409
 10
68.815717
 20
21.999447
 10
68.937368
 20
21.851844
 10
69.068283
 20
21.712742
 10
69.207834
 20
21.582283
 10
69.355395
 20
21.460609
 10
69.510339
 20
21.347861
 10
69.67204
 20
21.244183
 10
69.839871
 20
21.149717
 10
70.013206
 20
21.064604
 10
70.191418
 20
20.988986
 10
70.37388
 20
20.923006
 10
70.559965
 20
20.866806
 10
70.749048
 20
20.820527
 10
70.940502
 20
20.784313
 10
71.1337
 20
20.758304
 10
71.328015
 20
20.742644
 10
71.522821
 20
20.737475
 10
71.717492
 20
20.742937
 10
71.9114
 20
20.759174
 10
72.103919
 20
20.786328
 10
72.294423
 20
20.824541
 10
72.482285
 20
20.873954
 10
72.666879
 20
20.934711
 10
72.847578
 20
21.006952
 10
73.023754
 20
21.090821
 10
73.194783
 20
21.186459
 10
73.360037
 20
21.294008
 10
73.518889
 20
21.413611
 10
73.670766
 20
21.524681
 10
73.809517
 20
21.645673
 10
73.936073
 20
21.77576
 10
74.051363
 20
21.914115
 10
74.156318
 20
22.059911
 10
74.251867
 20
22.212322
 10
74.338942
 20
22.370521
 10
74.418472
 20
22.533681
 10
74.558619
 20
22.871576
 10
74.679748
 20
23.219392
 10
74.894722
 20
23.918333
 10
75.261745
 20
23.679235
 10
75.634867
 20
23.450834
 10
76.013569
 20
23.232251
 10
76.397335
 20
23.022609
 10
76.785649
 20
22.821027
 10
77.177994
 20
22.626629
 10
77.972708
 20
22.255868
 10
78.777345
 20
21.903297
 10
79.587769
 20
21.561888
 10
81.209444
 20
20.884444
 10
80.912146
 20
20.676947
 10
80.609137
 20
20.484133
 10
80.300701
 20
20.305594
 10
79.987125
 20
20.140924
 10
79.66869
 20
19.989715
 10
79.345682
 20
19.851562
 10
79.018385
 20
19.726056
 10
78.687083
 20
19.612791
 10
78.352061
 20
19.51136
 10
78.013602
 20
19.421355
 10
77.67199
 20
19.342371
 10
77.327511
 20
19.274
 10
76.980448
 20
19.215835
 10
76.631085
 20
19.167469
 10
76.279707
 20
19.128495
 10
75.926597
 20
19.098507
 10
75.572041
 20
19.077097
 10
75.216322
 20
19.063858
 10
74.502533
 20
19.060266
 10
73.787503
 20
19.084477
 10
73.073507
 20
19.133234
 10
72.362818
 20
19.203281
 10
71.657711
 20
19.291363
 10
70.960458
 20
19.394225
 10
70.273333
 20
19.508611
 10
69.056595
 20
19.747012
 10
67.841923
 20
20.013524
 10
67.236008
 20
20.157839
 10
66.631385
 20
20.309803
 10
66.028313
 20
20.46962
 10
65.427049
 20
20.6375
 10
64.827852
 20
20.813648
 10
64.23098
 20
20.99827
 10
63.636693
 20
21.191575
 10
63.045247
 20
21.393767
 10
62.456903
 20
21.605055
 10
61.871917
 20
21.825645
 10
61.290548
 20
22.055742
 10
60.713056
 20
22.295556
 10
60.523024
 20
22.112983
 10
60.323898
 20
21.947877
 10
60.116503
 20
21.798687
 10
59.901667
 20
21.663863
 10
59.680216
 20
21.541855
 10
59.452977
 20
21.431112
 10
59.220778
 20
21.330085
 10
58.984444
 20
21.237222
 10
58.502682
 20
21.069791
 10
58.014306
 20
20.916415
 10
57.525929
 20
20.764693
 10
57.044167
 20
20.602222
 10
56.387686
 20
20.387429
 10
55.728002
 20
20.180336
 10
55.065218
 20
19.982028
 10
54.399436
 20
19.793589
 10
53.73076
 20
19.616107
 10
53.059294
 20
19.450665
 10
52.38514
 20
19.298348
 10
51.708403
 20
19.160243
 10
51.029185
 20
19.037434
 10
50.34759
 20
18.931006
 10
49.663721
 20
18.842045
 10
48.977682
 20
18.771636
 10
48.289576
 20
18.720864
 10
47.599506
 20
18.690814
 10
46.907576
 20
18.682572
 10
46.213889
 20
18.697222
 10
45.811657
 20
18.725214
 10
45.412008
 20
18.769018
 10
45.015047
 20
18.827912
 10
44.620877
 20
18.901172
 10
44.2296
 20
18.988074
 10
43.841321
 20
19.087896
 10
43.456142
 20
19.199913
 10
43.074167
 20
19.323403
 10
42.695499
 20
19.457641
 10
42.320242
 20
19.601904
 10
41.948499
 20
19.755469
 10
41.580373
 20
19.917613
 10
41.215968
 20
20.087611
 10
40.855387
 20
20.264741
 10
40.146111
 20
20.6375
 10
40.348554
 20
20.796465
 10
40.558489
 20
20.943493
 10
40.775142
 20
21.079876
 10
40.997739
 20
21.206905
 10
41.225503
 20
21.325873
 10
41.457659
 20
21.438071
 10
41.932049
 20
21.647326
 10
42.414706
 20
21.845006
 10
42.899431
 20
22.041445
 10
43.380022
 20
22.24698
 10
43.850278
 20
22.471944
 10
44.408874
 20
22.729775
 10
44.960494
 20
23.000009
 10
45.505603
 20
23.281817
 10
46.044666
 20
23.574375
 10
46.578147
 20
23.876854
 10
47.106513
 20
24.188429
 10
47.630228
 20
24.508271
 10
48.149757
 20
24.835556
 10
49.178118
 20
25.509141
 10
50.195317
 20
26.202569
 10
52.211111
 20
27.6225
 10
52.439452
 20
27.209984
 10
52.566283
 20
27.004786
 10
52.701693
 20
26.802843
 10
52.845784
 20
26.606068
 10
52.99866
 20
26.416372
 10
53.160424
 20
26.235668
 10
53.331181
 20
26.065868
 10
53.511032
 20
25.908884
 10
53.700081
 20
25.766627
 10
53.898433
 20
25.64101
 10
54.106189
 20
25.533945
 10
54.323454
 20
25.447344
 10
54.550331
 20
25.383119
 10
54.786923
 20
25.343182
 10
55.033333
 20
25.329444
 10
55.285308
 20
25.29961
 10
55.537695
 20
25.289206
 10
55.789256
 20
25.297818
 10
56.03875
 20
25.325035
 10
56.284937
 20
25.370441
 10
56.526576
 20
25.433624
 10
56.762427
 20
25.51417
 10
56.99125
 20
25.611667
 10
57.211805
 20
25.725699
 10
57.422852
 20
25.855855
 10
57.623149
 20
26.00172
 10
57.811458
 20
26.162882
 10
57.986538
 20
26.338926
 10
58.147148
 20
26.52944
 10
58.292049
 20
26.73401
 10
58.42
 20
26.952222
 10
58.545362
 20
27.144006
 10
58.650641
 20
27.341759
 10
58.736424
 20
27.544628
 10
58.803301
 20
27.75176
 10
58.851859
 20
27.962303
 10
58.882685
 20
28.175403
 10
58.896367
 20
28.390209
 10
58.893494
 20
28.605868
 10
58.874652
 20
28.821527
 10
58.840431
 20
29.036333
 10
58.791417
 20
29.249433
 10
58.728198
 20
29.459976
 10
58.651363
 20
29.667108
 10
58.561499
 20
29.869977
 10
58.459193
 20
30.06773
 10
58.345035
 20
30.259514
 10
58.219611
 20
30.444477
 10
58.083509
 20
30.621766
 10
57.937317
 20
30.790528
 10
57.781624
 20
30.949911
 10
57.617016
 20
31.099062
 10
57.444082
 20
31.237129
 10
57.263409
 20
31.363258
 10
57.075586
 20
31.476597
 10
56.8812
 20
31.576294
 10
56.680838
 20
31.661495
 10
56.47509
 20
31.731349
 10
56.264542
 20
31.785002
 10
56.049782
 20
31.821602
 10
55.831398
 20
31.840296
 10
55.609979
 20
31.840231
 10
55.386111
 20
31.820556
 10
55.239815
 20
31.840136
 10
55.098377
 20
31.846557
 10
54.961486
 20
31.840719
 10
54.828832
 20
31.823518
 10
54.700106
 20
31.795853
 10
54.574998
 20
31.758621
 10
54.453196
 20
31.712721
 10
54.334392
 20
31.659049
 10
54.104536
 20
31.531986
 10
53.882947
 20
31.384613
 10
53.454653
 20
31.057674
 10
53.242986
 20
30.892473
 10
53.029666
 20
30.735695
 10
52.812211
 20
30.594524
 10
52.588142
 20
30.476141
 10
52.472852
 20
30.427741
 10
52.354978
 20
30.387732
 10
52.23421
 20
30.357011
 10
52.110239
 20
30.336477
 10
51.982753
 20
30.327028
 10
51.851443
 20
30.329561
 10
51.715999
 20
30.344975
 10
51.576111
 20
30.374167
 10
51.0412
 20
30.446901
 10
50.5082
 20
30.53271
 10
49.977371
 20
30.631438
 10
49.448971
 20
30.74293
 10
48.923258
 20
30.867031
 10
48.400491
 20
31.003586
 10
47.880928
 20
31.15244
 10
47.364826
 20
31.313437
 10
46.852446
 20
31.486424
 10
46.344045
 20
31.671245
 10
45.839881
 20
31.867745
 10
45.340213
 20
32.075768
 10
44.845299
 20
32.295161
 10
44.355398
 20
32.525767
 10
43.870767
 20
32.767431
 10
43.391667
 20
33.02
 10
44.510565
 20
33.531941
 10
45.06513
 20
33.795922
 10
45.61582
 20
34.066207
 10
46.162169
 20
34.34352
 10
46.703713
 20
34.628584
 10
47.239985
 20
34.922123
 10
47.770521
 20
35.224861
 10
48.294856
 20
35.537521
 10
48.812524
 20
35.860826
 10
49.323062
 20
36.1955
 10
49.826003
 20
36.542266
 10
50.320882
 20
36.901847
 10
50.807235
 20
37.274969
 10
51.284596
 20
37.662352
 10
51.7525
 20
38.064722
 10
51.845586
 20
37.669019
 10
51.902956
 20
37.473363
 10
51.968025
 20
37.280343
 10
52.041156
 20
37.090837
 10
52.12271
 20
36.905723
 10
52.213049
 20
36.725881
 10
52.312535
 20
36.552188
 10
52.421529
 20
36.385522
 10
52.540393
 20
36.226764
 10
52.66949
 20
36.07679
 10
52.80918
 20
35.93648
 10
52.959825
 20
35.806712
 10
53.121788
 20
35.688364
 10
53.295429
 20
35.582316
 10
53.481111
 20
35.489444
 10
53.737142
 20
35.352037
 10
54.001389
 20
35.243465
 10
54.272148
 20
35.162798
 10
54.547713
 20
35.109106
 10
54.826378
 20
35.081459
 10
55.106438
 20
35.078927
 10
55.386189
 20
35.100579
 10
55.663924
 20
35.145486
 10
55.937938
 20
35.212717
 10
56.206526
 20
35.301342
 10
56.467983
 20
35.410431
 10
56.720603
 20
35.539054
 10
56.962682
 20
35.68628
 10
57.192512
 20
35.851179
 10
57.408391
 20
36.032822
 10
57.608611
 20
36.230278
 10
57.739361
 20
36.399656
 10
57.854246
 20
36.576579
 10
57.953939
 20
36.760323
 10
58.03911
 20
36.950165
 10
58.110432
 20
37.145381
 10
58.168577
 20
37.345248
 10
58.214216
 20
37.549043
 10
58.248021
 20
37.756042
 10
58.270664
 20
37.965521
 10
58.282816
 20
38.176757
 10
58.28515
 20
38.389026
 10
58.278338
 20
38.601606
 10
58.26305
 20
38.813772
 10
58.239959
 20
39.024801
 10
58.173056
 20
39.440556
 10
58.139411
 20
39.577393
 10
58.098202
 20
39.710083
 10
58.04972
 20
39.838613
 10
57.994255
 20
39.96297
 10
57.932098
 20
40.083141
 10
57.86354
 20
40.199114
 10
57.708381
 20
40.418411
 10
57.531105
 20
40.620759
 10
57.334037
 20
40.806054
 10
57.119502
 20
40.974191
 10
56.889826
 20
41.125069
 10
56.647335
 20
41.258584
 10
56.394353
 20
41.374632
 10
56.133206
 20
41.47311
 10
55.86622
 20
41.553915
 10
55.595719
 20
41.616943
 10
55.32403
 20
41.662091
 10
55.053479
 20
41.689256
 10
54.786389
 20
41.698333
 10
55.150191
 20
42.28648
 10
55.500764
 20
42.884549
 10
55.838108
 20
43.489232
 10
56.162222
 20
44.097222
 10
54.301871
 20
44.737183
 10
53.371075
 20
45.054063
 10
52.444826
 20
45.380451
 10
51.526846
 20
45.72503
 10
51.072119
 20
45.906853
 10
50.620855
 20
46.09648
 10
50.173518
 20
46.294995
 10
49.730573
 20
46.503484
 10
49.292487
 20
46.723031
 10
48.859722
 20
46.954722
 10
50.184844
 20
47.558854
 10
50.844097
 20
47.867535
 10
51.496736
 20
48.189444
 10
52.139453
 20
48.531198
 10
52.456057
 20
48.711583
 10
52.768941
 20
48.89941
 10
53.07769
 20
49.095505
 10
53.381892
 20
49.300694
 10
53.681133
 20
49.515806
 10
53.975
 20
49.741667
 10
54.235675
 20
49.930658
 10
54.488612
 20
50.127052
 10
54.733927
 20
50.330604
 10
54.971735
 20
50.541067
 10
55.202154
 20
50.758196
 10
55.425299
 20
50.981746
 10
55.641287
 20
51.211471
 10
55.850234
 20
51.447127
 10
56.052257
 20
51.688466
 10
56.247471
 20
51.935245
 10
56.435993
 20
52.187217
 10
56.617939
 20
52.444137
 10
56.793426
 20
52.70576
 10
56.96257
 20
52.97184
 10
57.282292
 20
53.516389
 10
57.578036
 20
54.075821
 10
57.850732
 20
54.648172
 10
58.101311
 20
55.231478
 10
58.330703
 20
55.823776
 10
58.539838
 20
56.423102
 10
58.729645
 20
57.027492
 10
58.901056
 20
57.634983
 10
59.055
 20
58.243611
 10
58.777584
 20
58.231898
 10
58.500891
 20
58.211089
 10
57.949262
 20
58.148802
 10
57.399287
 20
58.069978
 10
56.850139
 20
57.987847
 10
56.300991
 20
57.915638
 10
56.026158
 20
57.887388
 10
55.751016
 20
57.86658
 10
55.47546
 20
57.854867
 10
55.199387
 20
57.853902
 10
54.922694
 20
57.86534
 10
54.645278
 20
57.890833
 10
55.013007
 20
58.31837
 10
55.397687
 20
58.731437
 10
56.19309
 20
59.53566
 10
56.591412
 20
59.937565
 10
56.981879
 20
60.346497
 10
57.35829
 20
60.767833
 10
57.539287
 20
60.984831
 10
57.714444
 20
61.206944
  0
LWPOLYLINE
  5
3B
330
1F
100
AcDbEntity
  8
0
100
AcDbPolyline
 90
       21
 70
   128
 43
0.0
 10
57.114722
 20
15.134167
 10
63.888056
 20
15.134167
 10
63.771405
 20
14.250844
 10
63.63615
 20
13.372483
 10
63.48684
 20
12.497428
 10
63.328021
 20
11.624028
 10
63.000048
 20
9.875573
 10
62.839989
 20
8.997211
 10
62.688611
 20
8.113889
 10
62.134502
 20
8.095148
 10
61.582873
 20
8.089635
 10
60.48375
 20
8.105069
 10
59.384627
 20
8.133733
 10
58.832998
 20
8.144757
 10
58.278889
 20
8.149167
 10
57.953121
 20
9.875573
 10
57.63066
 20
11.615208
 10
57.479971
 20
12.489987
 10
57.341272
 20
13.368073
 10
57.218282
 20
14.249466
 10
57.114722
 20
15.134167
  0
ENDSEC
  0
SECTION
  2
OBJECTS
  0
DICTIONARY
  5
C
330
0
100
AcDbDictionary
281
     1
  3
ACAD_GROUP
350
D
  3
ACAD_LAYOUT
350
1A
  3
ACAD_MLINESTYLE
350
17
  3
ACAD_PLOTSETTINGS
350
19
  3
ACAD_PLOTSTYLENAME
350
E
  0
DICTIONARY
  5
D
102
{ACAD_REACTORS
330
C
102
}
330
C
100
AcDbDictionary
281
     1
  0
DICTIONARY
  5
1A
102
{ACAD_REACTORS
330
C
102
}
330
C
100
AcDbDictionary
281
     1
  3
Layout1
350
1E
  3
Layout2
350
26
  3
Model
350
22
  0
DICTIONARY
  5
17
102
{ACAD_REACTORS
330
C
102
}
330
C
100
AcDbDictionary
281
     1
  3
Standard
350
18
  0
DICTIONARY
  5
19
102
{ACAD_REACTORS
330
C
102
}
330
C
100
AcDbDictionary
281
     1
  0
ACDBDICTIONARYWDFLT
  5
E
102
{ACAD_REACTORS
330
C
102
}
330
C
100
AcDbDictionary
281
     1
  3
Normal
350
F
100
AcDbDictionaryWithDefault
340
F
  0
LAYOUT
  5
1E
102
{ACAD_REACTORS
330
1A
102
}
330
1A
100
AcDbPlotSettings
  1

  2

  4

  6

 40
0.0
 41
0.0
 42
0.0
 43
0.0
 44
0.0
 45
0.0
 46
0.0
 47
0.0
 48
0.0
 49
0.0
140
0.0
141
0.0
142
1.0
143
1.0
 70
   688
 72
     0
 73
     0
 74
     5
  7

 75
    16
147
1.0
148
0.0
149
0.0
100
AcDbLayout
  1
Layout1
 70
     1
 71
     1
 10
0.0
 20
0.0
 11
420.0
 21
297.0
 12
0.0
 22
0.0
 32
0.0
 14
1.000000E+20
 24
1.000000E+20
 34
1.000000E+20
 15
-1.000000E+20
 25
-1.000000E+20
 35
-1.000000E+20
146
0.0
 13
0.0
 23
0.0
 33
0.0
 16
1.0
 26
0.0
 36
0.0
 17
0.0
 27
1.0
 37
0.0
 76
     0
330
1B
  0
LAYOUT
  5
26
102
{ACAD_REACTORS
330
1A
102
}
330
1A
100
AcDbPlotSettings
  1

  2

  4

  6

 40
0.0
 41
0.0
 42
0.0
 43
0.0
 44
0.0
 45
0.0
 46
0.0
 47
0.0
 48
0.0
 49
0.0
140
0.0
141
0.0
142
1.0
143
1.0
 70
   688
 72
     0
 73
     0
 74
     5
  7

 75
    16
147
1.0
148
0.0
149
0.0
100
AcDbLayout
  1
Layout2
 70
     1
 71
     2
 10
0.0
 20
0.0
 11
0.0
 21
0.0
 12
0.0
 22
0.0
 32
0.0
 14
0.0
 24
0.0
 34
0.0
 15
0.0
 25
0.0
 35
0.0
146
0.0
 13
0.0
 23
0.0
 33
0.0
 16
1.0
 26
0.0
 36
0.0
 17
0.0
 27
1.0
 37
0.0
 76
     0
330
23
  0
LAYOUT
  5
22
102
{ACAD_REACTORS
330
1A
102
}
330
1A
100
AcDbPlotSettings
  1

  2

  4

  6

 40
0.0
 41
0.0
 42
0.0
 43
0.0
 44
0.0
 45
0.0
 46
0.0
 47
0.0
 48
0.0
 49
0.0
140
0.0
141
0.0
142
1.0
143
1.0
 70
  1712
 72
     0
 73
     0
 74
     0
  7

 75
     0
147
1.0
148
0.0
149
0.0
100
AcDbLayout
  1
Model
 70
     1
 71
     0
 10
0.0
 20
0.0
 11
0.0
 21
0.0
 12
0.0
 22
0.0
 32
0.0
 14
0.0
 24
0.0
 34
0.0
 15
0.0
 25
0.0
 35
0.0
146
0.0
 13
0.0
 23
0.0
 33
0.0
 16
1.0
 26
0.0
 36
0.0
 17
0.0
 27
1.0
 37
0.0
 76
     0
330
1F
  0
MLINESTYLE
  5
18
102
{ACAD_REACTORS
330
17
102
}
330
17
100
AcDbMlineStyle
  2
Standard
 70
     0
  3

 62
   256
 51
90.0
 52
90.0
 71
     2
 49
1.0
 62
   256
  6
BYLAYER
 49
-1.0
 62
   256
  6
BYLAYER
  0
ACDBPLACEHOLDER
  5
F
102
{ACAD_REACTORS
330
E
102
}
330
E
  0
ENDSEC
  0
EOF
