  0
SECTION
  2
HEADER
  9
$ACADVER
  1
AC1018
  9
$ACADMAINTVER
 70
    76
  9
$DWGCODEPAGE
  3
ANSI_1252
  9
$INSBASE
 10
0.0
 20
0.0
 30
0.0
  9
$EXTMIN
 10
0.0002579939741452
 20
0.0104141
 30
0.0
  9
$EXTMAX
 10
207.0757026795915
 20
167.2963639203124
 30
0.0
  9
$LIMMIN
 10
0.0
 20
0.0
  9
$LIMMAX
 10
12.0
 20
9.0
  9
$ORTHOMODE
 70
     0
  9
$REGENMODE
 70
     1
  9
$FILLMODE
 70
     1
  9
$QTEXTMODE
 70
     0
  9
$MIRRTEXT
 70
     0
  9
$LTSCALE
 40
1.0
  9
$ATTMODE
 70
     1
  9
$TEXTSIZE
 40
0.2
  9
$TRACEWID
 40
0.05
  9
$TEXTSTYLE
  7
Standard
  9
$CLAYER
  8
0
  9
$CELTYPE
  6
ByLayer
  9
$CECOLOR
 62
   256
  9
$CELTSCALE
 40
1.0
  9
$DISPSILH
 70
     0
  9
$DIMSCALE
 40
1.0
  9
$DIMASZ
 40
0.18
  9
$DIMEXO
 40
0.0625
  9
$DIMDLI
 40
0.38
  9
$DIMRND
 40
0.0
  9
$DIMDLE
 40
0.0
  9
$DIMEXE
 40
0.18
  9
$DIMTP
 40
0.0
  9
$DIMTM
 40
0.0
  9
$DIMTXT
 40
0.18
  9
$DIMCEN
 40
0.09
  9
$DIMTSZ
 40
0.0
  9
$DIMTOL
 70
     0
  9
$DIMLIM
 70
     0
  9
$DIMTIH
 70
     1
  9
$DIMTOH
 70
     1
  9
$DIMSE1
 70
     0
  9
$DIMSE2
 70
     0
  9
$DIMTAD
 70
     0
  9
$DIMZIN
 70
     0
  9
$DIMBLK
  1

  9
$DIMASO
 70
     1
  9
$DIMSHO
 70
     1
  9
$DIMPOST
  1

  9
$DIMAPOST
  1

  9
$DIMALT
 70
     0
  9
$DIMALTD
 70
     2
  9
$DIMALTF
 40
25.4
  9
$DIMLFAC
 40
1.0
  9
$DIMTOFL
 70
     0
  9
$DIMTVP
 40
0.0
  9
$DIMTIX
 70
     0
  9
$DIMSOXD
 70
     0
  9
$DIMSAH
 70
     0
  9
$DIMBLK1
  1

  9
$DIMBLK2
  1

  9
$DIMSTYLE
  2
Standard
  9
$DIMCLRD
 70
     0
  9
$DIMCLRE
 70
     0
  9
$DIMCLRT
 70
     0
  9
$DIMTFAC
 40
1.0
  9
$DIMGAP
 40
0.09
  9
$DIMJUST
 70
     0
  9
$DIMSD1
 70
     0
  9
$DIMSD2
 70
     0
  9
$DIMTOLJ
 70
     1
  9
$DIMTZIN
 70
     0
  9
$DIMALTZ
 70
     0
  9
$DIMALTTZ
 70
     0
  9
$DIMUPT
 70
     0
  9
$DIMDEC
 70
     4
  9
$DIMTDEC
 70
     4
  9
$DIMALTU
 70
     2
  9
$DIMALTTD
 70
     2
  9
$DIMTXSTY
  7
Standard
  9
$DIMAUNIT
 70
     0
  9
$DIMADEC
 70
     0
  9
$DIMALTRND
 40
0.0
  9
$DIMAZIN
 70
     0
  9
$DIMDSEP
 70
    46
  9
$DIMATFIT
 70
     3
  9
$DIMFRAC
 70
     0
  9
$DIMLDRBLK
  1

  9
$DIMLUNIT
 70
     2
  9
$DIMLWD
 70
    -2
  9
$DIMLWE
 70
    -2
  9
$DIMTMOVE
 70
     0
  9
$LUNITS
 70
     2
  9
$LUPREC
 70
     4
  9
$SKETCHINC
 40
0.1
  9
$FILLETRAD
 40
0.0
  9
$AUNITS
 70
     0
  9
$AUPREC
 70
     0
  9
$MENU
  1
.
  9
$ELEVATION
 40
0.0
  9
$PELEVATION
 40
0.0
  9
$THICKNESS
 40
0.0
  9
$LIMCHECK
 70
     0
  9
$CHAMFERA
 40
0.0
  9
$CHAMFERB
 40
0.0
  9
$CHAMFERC
 40
0.0
  9
$CHAMFERD
 40
0.0
  9
$SKPOLY
 70
     0
  9
$TDCREATE
 40
2454771.926036956
  9
$TDUCREATE
 40
2454771.884370289
  9
$TDUPDATE
 40
2454771.926261031
  9
$TDUUPDATE
 40
2454771.884594364
  9
$TDINDWG
 40
0.0002242477
  9
$TDUSRTIMER
 40
0.0002242477
  9
$USRTIMER
 70
     1
  9
$ANGBASE
 50
0.0
  9
$ANGDIR
 70
     0
  9
$PDMODE
 70
     0
  9
$PDSIZE
 40
0.0
  9
$PLINEWID
 40
0.0
  9
$SPLFRAME
 70
     0
  9
$SPLINETYPE
 70
     6
  9
$SPLINESEGS
 70
     8
  9
$HANDSEED
  5
76A
  9
$SURFTAB1
 70
     6
  9
$SURFTAB2
 70
     6
  9
$SURFTYPE
 70
     6
  9
$SURFU
 70
     6
  9
$SURFV
 70
     6
  9
$UCSBASE
  2

  9
$UCSNAME
  2

  9
$UCSORG
 10
0.0
 20
0.0
 30
0.0
  9
$UCSXDIR
 10
1.0
 20
0.0
 30
0.0
  9
$UCSYDIR
 10
0.0
 20
1.0
 30
0.0
  9
$UCSORTHOREF
  2

  9
$UCSORTHOVIEW
 70
     0
  9
$UCSORGTOP
 10
0.0
 20
0.0
 30
0.0
  9
$UCSORGBOTTOM
 10
0.0
 20
0.0
 30
0.0
  9
$UCSORGLEFT
 10
0.0
 20
0.0
 30
0.0
  9
$UCSORGRIGHT
 10
0.0
 20
0.0
 30
0.0
  9
$UCSORGFRONT
 10
0.0
 20
0.0
 30
0.0
  9
$UCSORGBACK
 10
0.0
 20
0.0
 30
0.0
  9
$PUCSBASE
  2

  9
$PUCSNAME
  2

  9
$PUCSORG
 10
0.0
 20
0.0
 30
0.0
  9
$PUCSXDIR
 10
1.0
 20
0.0
 30
0.0
  9
$PUCSYDIR
 10
0.0
 20
1.0
 30
0.0
  9
$PUCSORTHOREF
  2

  9
$PUCSORTHOVIEW
 70
     0
  9
$PUCSORGTOP
 10
0.0
 20
0.0
 30
0.0
  9
$PUCSORGBOTTOM
 10
0.0
 20
0.0
 30
0.0
  9
$PUCSORGLEFT
 10
0.0
 20
0.0
 30
0.0
  9
$PUCSORGRIGHT
 10
0.0
 20
0.0
 30
0.0
  9
$PUCSORGFRONT
 10
0.0
 20
0.0
 30
0.0
  9
$PUCSORGBACK
 10
0.0
 20
0.0
 30
0.0
  9
$USERI1
 70
     0
  9
$USERI2
 70
     0
  9
$USERI3
 70
     0
  9
$USERI4
 70
     0
  9
$USERI5
 70
     0
  9
$USERR1
 40
0.0
  9
$USERR2
 40
0.0
  9
$USERR3
 40
0.0
  9
$USERR4
 40
0.0
  9
$USERR5
 40
0.0
  9
$WORLDVIEW
 70
     1
  9
$SHADEDGE
 70
     3
  9
$SHADEDIF
 70
    70
  9
$TILEMODE
 70
     1
  9
$MAXACTVP
 70
    64
  9
$PINSBASE
 10
0.0
 20
0.0
 30
0.0
  9
$PLIMCHECK
 70
     0
  9
$PEXTMIN
 10
1.000000000000000E+20
 20
1.000000000000000E+20
 30
1.000000000000000E+20
  9
$PEXTMAX
 10
-1.000000000000000E+20
 20
-1.000000000000000E+20
 30
-1.000000000000000E+20
  9
$PLIMMIN
 10
0.0
 20
0.0
  9
$PLIMMAX
 10
12.0
 20
9.0
  9
$UNITMODE
 70
     0
  9
$VISRETAIN
 70
     1
  9
$PLINEGEN
 70
     0
  9
$PSLTSCALE
 70
     1
  9
$TREEDEPTH
 70
  3020
  9
$CMLSTYLE
  2
Standard
  9
$CMLJUST
 70
     0
  9
$CMLSCALE
 40
1.0
  9
$PROXYGRAPHICS
 70
     1
  9
$MEASUREMENT
 70
     0
  9
$CELWEIGHT
370
    -1
  9
$ENDCAPS
280
     0
  9
$JOINSTYLE
280
     0
  9
$LWDISPLAY
290
     0
  9
$INSUNITS
 70
     0
  9
$HYPERLINKBASE
  1

  9
$STYLESHEET
  1

  9
$XEDIT
290
     1
  9
$CEPSNTYPE
380
     0
  9
$PSTYLEMODE
290
     1
  9
$FINGERPRINTGUID
  2
{4FAE707D-2CB2-4A85-8307-53E1DFC055AA}
  9
$VERSIONGUID
  2
{4A46FEB8-9C35-4D3B-BF80-EB59AA03F607}
  9
$EXTNAMES
290
     1
  9
$PSVPSCALE
 40
0.0
  9
$OLESTARTUP
290
     0
  9
$SORTENTS
280
   127
  9
$INDEXCTL
280
     0
  9
$HIDETEXT
280
     0
  9
$XCLIPFRAME
290
     0
  9
$HALOGAP
280
     0
  9
$OBSCOLOR
 70
   257
  9
$OBSLTYPE
280
     0
  9
$INTERSECTIONDISPLAY
280
     0
  9
$INTERSECTIONCOLOR
 70
   257
  9
$DIMASSOC
280
     1
  9
$PROJECTNAME
  1

  0
ENDSEC
  0
SECTION
  2
CLASSES
  0
CLASS
  1
ACDBDICTIONARYWDFLT
  2
AcDbDictionaryWithDefault
  3
ObjectDBX Classes
 90
        0
 91
        1
280
     0
281
     0
  0
CLASS
  1
TABLESTYLE
  2
AcDbTableStyle
  3
ObjectDBX Classes
 90
     2047
 91
        1
280
     0
281
     0
  0
CLASS
  1
DICTIONARYVAR
  2
AcDbDictionaryVar
  3
ObjectDBX Classes
 90
        0
 91
        1
280
     0
281
     0
  0
ENDSEC
  0
SECTION
  2
TABLES
  0
TABLE
  2
VPORT
  5
8
330
0
100
AcDbSymbolTable
 70
     2
  0
VPORT
  5
769
330
8
100
AcDbSymbolTableRecord
100
AcDbViewportTableRecord
  2
*Active
 70
     0
 10
0.0
 20
0.0
 11
1.0
 21
1.0
 12
103.5379803367828
 22
83.65338901015624
 13
0.0
 23
0.0
 14
1.0
 24
1.0
 15
0.0
 25
0.0
 16
0.0
 26
0.0
 36
1.0
 17
0.0
 27
0.0
 37
0.0
 40
169.0075890980515
 41
2.072164948453608
 42
50.0
 43
0.0
 44
0.0
 50
0.0
 51
0.0
 71
     0
 72
  1000
 73
     1
 74
     3
 75
     0
 76
     0
 77
     0
 78
     0
281
     0
 65
     1
110
0.0
120
0.0
130
0.0
111
1.0
121
0.0
131
0.0
112
0.0
122
1.0
132
0.0
 79
     0
146
0.0
  0
ENDTAB
  0
TABLE
  2
LTYPE
  5
5
330
0
100
AcDbSymbolTable
 70
     2
  0
LTYPE
  5
13
330
5
100
AcDbSymbolTableRecord
100
AcDbLinetypeTableRecord
  2
ByBlock
 70
     0
  3

 72
    65
 73
     0
 40
0.0
  0
LTYPE
  5
14
330
5
100
AcDbSymbolTableRecord
100
AcDbLinetypeTableRecord
  2
ByLayer
 70
     0
  3

 72
    65
 73
     0
 40
0.0
  0
LTYPE
  5
15
330
5
100
AcDbSymbolTableRecord
100
AcDbLinetypeTableRecord
  2
Continuous
 70
     0
  3
Solid line
 72
    65
 73
     0
 40
0.0
  0
ENDTAB
  0
TABLE
  2
LAYER
  5
2
330
0
100
AcDbSymbolTable
 70
     1
  0
LAYER
  5
10
330
2
100
AcDbSymbolTableRecord
100
AcDbLayerTableRecord
  2
0
 70
     0
 62
     7
  6
Continuous
370
    -3
390
F
  0
ENDTAB
  0
TABLE
  2
STYLE
  5
3
330
0
100
AcDbSymbolTable
 70
     1
  0
STYLE
  5
11
330
3
100
AcDbSymbolTableRecord
100
AcDbTextStyleTableRecord
  2
Standard
 70
     0
 40
0.0
 41
1.0
 50
0.0
 71
     0
 42
0.2
  3
txt
  4

  0
ENDTAB
  0
TABLE
  2
VIEW
  5
6
330
0
100
AcDbSymbolTable
 70
     0
  0
ENDTAB
  0
TABLE
  2
UCS
  5
7
330
0
100
AcDbSymbolTable
 70
     0
  0
ENDTAB
  0
TABLE
  2
APPID
  5
9
330
0
100
AcDbSymbolTable
 70
     1
  0
APPID
  5
12
330
9
100
AcDbSymbolTableRecord
100
AcDbRegAppTableRecord
  2
ACAD
 70
     0
  0
ENDTAB
  0
TABLE
  2
DIMSTYLE
  5
A
330
0
100
AcDbSymbolTable
 70
     2
100
AcDbDimStyleTable
 71
     0
  0
DIMSTYLE
105
75D
330
A
100
AcDbSymbolTableRecord
100
AcDbDimStyleTableRecord
  2
Standard
 70
     0
340
11
  0
ENDTAB
  0
TABLE
  2
BLOCK_RECORD
  5
1
330
0
100
AcDbSymbolTable
 70
     1
  0
BLOCK_RECORD
  5
22
330
1
100
AcDbSymbolTableRecord
100
AcDbBlockTableRecord
  2
*Model_Space
340
25
  0
BLOCK_RECORD
  5
1E
330
1
100
AcDbSymbolTableRecord
100
AcDbBlockTableRecord
  2
*Paper_Space
340
21
  0
ENDTAB
  0
ENDSEC
  0
SECTION
  2
BLOCKS
  0
BLOCK
  5
23
330
22
100
AcDbEntity
  8
0
100
AcDbBlockBegin
  2
*Model_Space
 70
     0
 10
0.0
 20
0.0
 30
0.0
  3
*Model_Space
  1

  0
ENDBLK
  5
24
330
22
100
AcDbEntity
  8
0
100
AcDbBlockEnd
  0
BLOCK
  5
1F
330
1E
100
AcDbEntity
 67
     1
  8
0
100
AcDbBlockBegin
  2
*Paper_Space
 70
     0
 10
0.0
 20
0.0
 30
0.0
  3
*Paper_Space
  1

  0
ENDBLK
  5
20
330
1E
100
AcDbEntity
 67
     1
  8
0
100
AcDbBlockEnd
  0
ENDSEC
  0
SECTION
  2
ENTITIES
  0
LWPOLYLINE
  5
2A
330
22
100
AcDbEntity
  8
0
100
AcDbPolyline
 90
      158
 70
     1
 43
0.0
 10
129.907
 20
4.53959
 42
-0.191161
 10
97.588
 20
12.2404
 42
0.236831
 10
90.34269999999999
 20
15.3455
 42
0.0412036
 10
88.6162
 20
15.0977
 42
0.0333862
 10
86.55559999999999
 20
14.4791
 42
-0.282547
 10
64.7628
 20
18.7227
 42
-0.349693
 10
58.18979999999999
 20
23.1006
 10
54.94559999999999
 20
33.0048
 42
-0.0435634
 10
54.4592
 20
35.2036
 42
-0.0777212
 10
54.4902
 20
36.4706
 42
-0.0980325
 10
61.8717
 20
55.2198
 10
62.5738
 20
56.32699999999999
 10
63.5003
 20
57.7826
 42
0.145691
 10
67.0531
 20
69.9289
 42
-0.5074880000000001
 10
63.7965
 20
83.7827
 42
-0.0259579
 10
51.0785
 20
85.0697
 42
-0.235146
 10
39.4679
 20
93.281
 42
-0.0168613
 10
39.3505
 20
93.51510000000001
 10
38.2999
 20
95.81979999999999
 42
0.132596
 10
35.2391
 20
99.54450000000001
 42
-0.8114399999999999
 10
30.0575
 20
107.799
 10
38.944
 20
115.904
 42
0.392532
 10
39.321
 20
119.94
 42
-0.0775027
 10
38.4213
 20
121.492
 42
0.0851747
 10
37.3135
 20
123.458
 42
-0.163211
 10
32.9645
 20
133.679
 42
0.213269
 10
7.98193
 20
130.15
 42
-0.676265
 10
2.67578
 20
129.873
 42
-0.300588
 10
7.49622
 20
161.509
 42
-0.7391550000000001
 10
14.6871
 20
158.232
 42
0.241124
 10
34.2444
 20
142.797
 42
0.102433
 10
37.89070000000001
 20
142.465
 42
-0.00526496
 10
42.84899999999999
 20
143.718
 42
-0.137645
 10
44.89489999999999
 20
143.635
 10
47.6161
 20
142.702
 42
-0.382063
 10
51.65829999999999
 20
136.502
 42
0.171839
 10
57.85759999999999
 20
135.679
 42
0.246473
 10
57.9839
 20
135.783
 42
0.178641
 10
57.9931
 20
136.003
 42
0.0566092
 10
57.7782
 20
136.428
 42
0.00737499
 10
56.9735
 20
137.611
 42
-0.0833751
 10
56.08550000000001
 20
139.339
 42
-0.166352
 10
56.0931
 20
140.288
 42
-0.186351
 10
56.8342
 20
141.02
 10
62.4207
 20
143.735
 10
64.4816
 20
153.963
 42
-0.395677
 10
62.7978
 20
158.666
 42
-0.4805770000000001
 10
82.78350000000001
 20
162.535
 42
-0.204408
 10
105.912
 20
152.406
 10
108.878
 20
155.052
 42
-0.094877
 10
109.58
 20
155.493
 42
-0.0563421
 10
110.796
 20
155.719
 42
-0.121237
 10
127.752
 20
153.839
 42
0.0607012
 10
128.251
 20
153.716
 42
0.174625
 10
129.012
 20
153.874
 42
0.147202
 10
129.602
 20
154.647
 42
0.0686804
 10
130.032
 20
156.824
 42
-0.4087100000000001
 10
142.419
 20
167.266
 42
-0.113037
 10
167.425
 20
159.873
 42
-0.105301
 10
200.548
 20
131.561
 42
-0.0602821
 10
206.798
 20
121.59
 42
-0.762019
 10
202.295
 20
117.801
 42
-0.0314166
 10
195.426
 20
122.888
 42
-0.0169218
 10
195.202
 20
123.082
 42
0.0536574
 10
194.486
 20
123.645
 42
0.111702
 10
194.285
 20
123.716
 42
0.174952
 10
194.185
 20
123.692
 42
0.173737
 10
194.124
 20
123.597
 10
192.764
 20
118.899
 42
-0.154515
 10
178.76
 20
129.353
 10
167.558
 20
133.237
 42
-0.5385170000000001
 10
163.459
 20
130.704
 10
163.195
 20
130.808
 42
0.119654
 10
162.803
 20
130.852
 42
0.206045
 10
162.576
 20
130.709
 42
0.131905
 10
162.487
 20
130.421
 42
0.0614505
 10
162.514
 20
130.026
 42
0.0729917
 10
163.041
 20
128.609
 42
0.0815231
 10
163.631
 20
127.758
 10
180.078
 20
112.978
 42
-0.255147
 10
183.295
 20
103.933
 42
-0.143163
 10
191.336
 20
87.90649999999999
 42
-0.192675
 10
190.6559999999999
 20
83.95149999999999
 42
-0.0479121
 10
190.277
 20
83.46760000000001
 42
-0.2542
 10
189.093
 20
83.01160000000001
 42
-0.064004
 10
187.73
 20
83.4332
 42
-0.19598
 10
181.21
 20
89.69419999999999
 42
0.049709
 10
180.8709999999999
 20
90.3153
 42
0.116151
 10
180.564
 20
90.6099
 42
0.182514
 10
180.27
 20
90.64950000000001
 42
0.0964981
 10
179.972
 20
90.50589999999999
 42
0.014953
 10
179.479
 20
90.1035
 42
-0.0936456
 10
178.644
 20
89.59430000000001
 42
-0.213231
 10
177.121
 20
89.8076
 42
-0.084703
 10
168.169
 20
96.8768
 42
0.0517166
 10
167.582
 20
97.4342
 42
0.122425
 10
167.281
 20
97.57760000000001
 42
0.257232
 10
166.998
 20
97.4796
 42
0.0642853
 10
166.83
 20
97.24160000000001
 42
-0.00666785
 10
166.461
 20
96.5178
 42
-0.181174
 10
166.057
 20
96.18310000000001
 42
-0.107485
 10
165.325
 20
96.12090000000002
 42
-0.0404985
 10
163.783
 20
96.50299999999999
 42
-0.185179
 10
153.75
 20
103.768
 42
-0.428924
 10
144.492
 20
104.438
 42
-0.0067759
 10
143.337
 20
105.882
 42
-0.0259235
 10
143.061
 20
106.278
 42
0.653625
 10
138.4479999999999
 20
105.607
 10
133.796
 20
106.833
 42
0.6486330000000001
 10
128.644
 20
100.996
 42
0.695843
 10
130.921
 20
92.06520000000001
 42
0.0741157
 10
133.513
 20
92.17589999999999
 42
-0.0469644
 10
135.155
 20
92.3352
 42
-0.5049570000000001
 10
138.884
 20
87.31010000000001
 42
0.0322654
 10
138.596
 20
86.1663
 42
0.104263
 10
138.592
 20
85.41949999999999
 42
0.240118
 10
138.921
 20
85.02970000000001
 42
0.0963028
 10
139.415
 20
84.94759999999999
 42
0.0515517
 10
140.767
 20
85.1613
 42
-0.317254
 10
152.001
 20
80.9994
 42
-0.5055260000000001
 10
151.102
 20
78.89
 10
146.099
 20
78.0424
 42
0.125042
 10
145.767
 20
77.8617
 42
0.101696
 10
145.388
 20
77.2658
 42
-0.0234335
 10
145.014
 20
76.36639999999999
 42
-0.305909
 10
136.894
 20
72.10259999999999
 42
0.0621276
 10
132.705
 20
72.1768
 42
-0.3939949999999999
 10
123.765
 20
78.7087
 42
-0.296378
 10
114.662
 20
85.04989999999999
 42
0.5911680000000001
 10
109.766
 20
87.3864
 10
111.23
 20
83.8118
 42
-0.0078261
 10
111.449
 20
83.26309999999999
 42
-0.119616
 10
111.591
 20
82.4901
 42
-0.0732712
 10
111.291
 20
81.54099999999999
 42
-0.141484
 10
107.425
 20
76.75270000000001
 42
-0.179683
 10
119.426
 20
52.7671
 42
0.0921325
 10
119.78
 20
51.5516
 42
0.121314
 10
120.077
 20
51.1962
 42
0.3033
 10
120.417
 20
51.1866
 42
0.0952027
 10
120.595
 20
51.3529
 42
0.228351
 10
120.901
 20
53.05279999999999
 42
-0.0486111
 10
120.69
 20
54.15849999999999
 42
-0.362474
 10
130.792
 20
67.5309
 42
0.0959061
 10
142.907
 20
65.43510000000001
 42
-0.216464
 10
158.508
 20
70.8295
 42
0.255752
 10
164.11
 20
69.39579999999999
 42
-0.355801
 10
174.412
 20
77.89749999999999
 42
-0.244268
 10
186.794
 20
71.57389999999999
 10
193.296
 20
68.6297
 42
-0.384643
 10
190.083
 20
53.0916
 10
195.474
 20
47.2452
 42
-0.451165
 10
194.213
 20
35.0758
 42
0.142384
 10
188.63
 20
31.7797
 42
-0.474001
 10
177.601
 20
21.6091
 42
-0.342402
 10
171.678
 20
17.2903
 42
0.4089610000000001
 10
165.455
 20
20.7341
 42
0.0263233
 10
162.983
 20
19.905
 42
0.0784818
 10
162.225
 20
19.4582
 42
-0.151616
  0
LWPOLYLINE
  5
CA
330
22
100
AcDbEntity
  8
0
100
AcDbPolyline
 90
      360
 70
     1
 43
0.0
 10
165.5659999999999
 20
26.2791
 42
-0.263768
 10
111.345
 20
7.62341
 42
-0.106529
 10
99.5751
 20
12.493
 10
97.23180000000001
 20
14.1549
 42
-0.0598108
 10
97.1255
 20
14.2523
 42
0.102843
 10
89.958
 20
19.7788
 42
0.038593
 10
89.30809999999999
 20
20.0502
 42
0.224401
 10
89.0803
 20
20.0144
 42
0.357877
 10
89.0365
 20
19.8654
 10
89.1186
 20
19.7075
 42
0.0189396
 10
89.386
 20
19.305
 42
-0.0485212
 10
90.1431
 20
18.1131
 42
-0.100932
 10
90.2505
 20
17.7051
 42
-0.2546
 10
90.1143
 20
17.4182
 42
-0.0986925
 10
89.95279999999999
 20
17.3442
 42
-0.0564462
 10
89.6465
 20
17.3071
 10
84.00299999999999
 20
17.2634
 42
0.0805553
 10
83.6212
 20
17.1985
 42
0.0168313
 10
81.89919999999998
 20
16.5446
 42
-0.439316
 10
62.9715
 20
25.2548
 42
0.136352
 10
61.5478
 20
37.3467
 42
0.072618
 10
61.0565
 20
38.1681
 42
0.138304
 10
60.2307
 20
38.80040000000001
 42
0.264914
 10
59.52429999999999
 20
38.6835
 42
0.136562
 10
59.0567
 20
37.95450000000001
 42
-0.0378301
 10
57.0285
 20
33.5285
 42
-0.26807
 10
62.151
 20
21.8241
 42
-0.176642
 10
56.6485
 20
37.9318
 42
-0.0377753
 10
56.8577
 20
40.1047
 42
-0.071564
 10
57.2154
 20
41.2045
 10
72.24540000000001
 20
71.7479
 10
69.7021
 20
73.8921
 10
69.7471
 20
73.86879999999999
 42
0.0497587
 10
69.9167
 20
73.83289999999999
 42
0.0341278
 10
71.1831
 20
73.80549999999999
 42
0.0330179
 10
72.0971
 20
73.8739
 42
0.0454645
 10
72.1544
 20
73.89109999999999
 42
1.708429999999999
 10
69.78749999999999
 20
72.3966
 42
-0.0157632
 10
70.11579999999999
 20
72.2081
 42
-0.0792737
 10
70.373
 20
72.01139999999999
 42
-0.238311
 10
70.39159999999999
 20
71.934
 42
-0.263737
 10
70.3421
 20
71.8806
 10
70.278
 20
71.86679999999999
 42
-0.0349872
 10
70.09310000000001
 20
71.8571
 42
-0.0163136
 10
68.8248
 20
71.9559
 42
-0.4243840000000001
 10
63.9018
 20
78.0582
 42
-0.0826972
 10
67.2616
 20
89.49670000000001
 42
0.312169
 10
71.1782
 20
92.36589999999999
 42
0.0655252
 10
71.3063
 20
92.92299999999999
 42
0.142154
 10
71.249
 20
93.2693
 42
0.261847
 10
70.8953
 20
93.4594
 42
0.0750897
 10
70.5343
 20
93.4106
 42
0.0813869
 10
69.2519
 20
92.75399999999999
 42
0.080621
 10
68.4987
 20
92.07219999999999
 42
-0.151014
 10
64.22039999999999
 20
88.76269999999999
 42
-0.0303311
 10
62.63899999999999
 20
88.277
 42
0.0356497
 10
60.7871
 20
87.6866
 42
-0.387879
 10
39.7613
 20
95.60389999999999
 42
0.37977
 10
31.7919
 20
102.609
 42
-0.0799713
 10
30.8354
 20
102.735
 42
-0.201721
 10
30.183
 20
103.23
 42
-0.176054
 10
30.1135
 20
104.05
 42
-0.0948757
 10
30.7685
 20
105.386
 42
-0.2328489999999999
 10
52.9792
 20
117.573
 42
-0.8840339999999999
 10
53.6077
 20
113.943
 10
53.3179
 20
113.846
 42
0.0900466
 10
52.7979
 20
113.586
 42
0.186368
 10
52.7147
 20
113.436
 42
0.248402
 10
52.7597
 20
113.312
 10
52.8387
 20
113.257
 42
0.0532543
 10
53.073
 20
113.162
 42
0.0717914
 10
54.53929999999999
 20
113.001
 42
-0.8409540000000001
 10
55.1302
 20
110.388
 42
0.12793
 10
53.6441
 20
109.106
 42
0.0932683
 10
53.1845
 20
108.233
 42
0.113288
 10
53.1694
 20
107.998
 42
0.271504
 10
53.2738
 20
107.873
 10
53.37559999999999
 20
107.86
 42
0.0923676
 10
53.68829999999999
 20
107.954
 42
-0.0632565
 10
56.7288
 20
108.898
 42
-0.0795486
 10
57.3817
 20
108.91
 42
-0.1479
 10
57.64199999999999
 20
108.797
 42
-0.243352
 10
57.7158
 20
108.566
 42
-0.109783
 10
57.5631
 20
108.197
 10
54.7402
 20
103.701
 42
0.323362
 10
55.0274
 20
99.28130000000001
 42
0.292009
 10
57.1648
 20
105.33
 42
-0.027781
 10
57.133
 20
104.951
 42
-0.0130883
 10
56.9554
 20
103.872
 10
55.843
 20
100.774
 42
-0.0734583
 10
55.7079
 20
100.502
 10
55.6402
 20
100.434
 42
-0.273163
 10
55.5075
 20
100.417
 10
55.44389999999999
 20
100.46
 42
-0.0846685
 10
55.3256
 20
100.631
 42
-0.0875443
 10
55.07319999999999
 20
101.731
 42
-0.102859
 10
55.1396
 20
102.474
 42
-0.229997
 10
66.6516
 20
113.265
 42
-0.203697
 10
86.26549999999999
 20
111.424
 42
-0.101077
 10
87.2469
 20
110.692
 42
-0.256055
 10
87.43999999999999
 20
109.79
 42
-0.0807563
 10
87.0424
 20
109.01
 42
0.0226319
 10
85.8895
 20
107.34
 42
0.306467
 10
85.91269999999999
 20
106.569
 42
0.200704
 10
86.74339999999999
 20
106.084
 42
0.295381
 10
87.61549999999999
 20
106.421
 10
89.0709
 20
108.533
 42
-0.0645443
 10
89.3321
 20
108.824
 42
-0.0178819
 10
90.4298
 20
109.7
 42
0.155263
 10
100.075
 20
123.081
 42
-0.0371296
 10
100.795
 20
124.828
 42
-0.0473977
 10
101.582
 20
126.084
 42
0.173918
 10
106.122
 20
140.257
 42
-0.593075
 10
115.803
 20
154.531
 42
-0.159668
 10
151.361
 20
139.151
 42
0.0364191
 10
152.138
 20
138.555
 42
-0.0815862
 10
153.742
 20
137.076
 42
0.0554485
 10
177.186
 20
113.098
 42
-0.206738
 10
181.724
 20
106.691
 42
-0.0187264
 10
181.868
 20
105.977
 42
-0.0721781
 10
181.896
 20
105.36
 42
-0.0963086
 10
181.843
 20
105.194
 42
-0.210346
 10
181.738
 20
105.111
 42
-0.161822
 10
181.567
 20
105.139
 42
-0.0677275
 10
181.321
 20
105.302
 10
175.52
 20
110.345
 42
-0.0995919
 10
174.039
 20
112.406
 42
0.0831608
 10
173.456
 20
113.067
 42
0.0998961
 10
173.095
 20
113.283
 42
0.121653
 10
172.986
 20
113.291
 42
0.207258
 10
172.9109999999999
 20
113.238
 42
0.13001
 10
172.88
 20
113.115
 42
0.0601035
 10
172.925
 20
112.613
 42
0.167454
 10
174.629
 20
110.059
 42
-0.205319
 10
189.589
 20
86.6798
 42
-0.385302
 10
184.271
 20
90.85230000000001
 42
0.0894097
 10
184.064
 20
91.51819999999998
 42
0.193167
 10
183.6309999999999
 20
91.89490000000001
 42
0.0549219
 10
183.057
 20
91.99559999999999
 42
-0.240251
 10
181.446
 20
92.9526
 42
0.020119
 10
171.937
 20
105.011
 42
0.140646
 10
175.229
 20
99.72140000000001
 42
-0.0524138
 10
176.523
 20
98.2798
 42
0.0257949
 10
177.122
 20
97.5359
 42
-0.263376
 10
178.325
 20
92.02389999999999
 42
-0.133585
 10
177.967
 20
91.36320000000001
 42
-0.291688
 10
177.42
 20
91.2176
 42
-0.280636
 10
176.9359999999999
 20
91.8116
 42
-0.356398
 10
177.185
 20
92.20119999999999
 42
-0.104024
 10
177.571
 20
92.25329999999999
 42
-0.0112072
 10
177.946
 20
92.209
 42
0.198859
 10
177.998
 20
92.2263
 42
0.4573600000000001
 10
177.998
 20
92.2541
 42
0.0479108
 10
177.863
 20
92.33920000000001
 42
0.0259534
 10
176.653
 20
92.8584
 42
0.036249
 10
176.427
 20
92.93269999999999
 42
0.14723
 10
175.507
 20
93.13
 42
-0.0932098
 10
164.394
 20
104.005
 42
0.0276978
 10
163.3
 20
105.448
 42
0.0457312
 10
162.515
 20
106.217
 42
-0.0999763
 10
158.309
 20
111.333
 10
158.237
 20
111.456
 42
0.184736
 10
158.136
 20
111.529
 42
0.4268260000000001
 10
158.084
 20
111.496
 42
0.0603829
 10
158.076
 20
111.305
 42
0.0683627
 10
158.476
 20
109.612
 42
0.0862534
 10
158.66
 20
109.283
 10
165.199
 20
101.864
 42
-1.078019999999999
 10
162.447
 20
99.66039999999999
 42
0.0263788
 10
161.122
 20
101.381
 42
0.0769604
 10
160.891
 20
101.583
 42
0.220288
 10
160.825
 20
101.588
 42
0.288583
 10
160.793
 20
101.546
 42
-0.259689
 10
160.596
 20
101.273
 42
-0.123184
 10
160.115
 20
101.185
 42
-0.129404
 10
158.59
 20
101.734
 42
-0.131993
 10
153.442
 20
107.338
 10
153.326
 20
107.547
 42
0.0950473
 10
153.034
 20
107.919
 42
0.131705
 10
152.873
 20
107.997
 42
0.168383
 10
152.655
 20
107.943
 42
0.0300021
 10
152.512
 20
107.842
 42
-0.0734507
 10
152.182
 20
107.635
 42
-0.230723
 10
151.585
 20
107.711
 42
-0.0750459
 10
150.907
 20
108.23
 42
-0.139132
 10
149.977
 20
110.287
 42
0.133079
 10
147.83
 20
114.429
 42
0.0784723
 10
147.367
 20
114.846
 42
0.206758
 10
147.213
 20
114.864
 42
0.2866329999999999
 10
147.136
 20
114.778
 10
147.131
 20
114.681
 42
0.0426854
 10
147.166
 20
114.426
 42
0.0428447
 10
147.595
 20
113.17
 10
150.888
 20
106.327
 42
-0.7967900000000001
 10
148.295
 20
104.379
 10
134.053
 20
117.64
 42
0.8899259999999999
 10
133.507
 20
117.191
 10
134.602
 20
115.492
 42
0.123604
 10
135.163
 20
114.955
 42
0.0157074
 10
136.0
 20
114.572
 42
-0.269252
 10
140.549
 20
107.887
 10
136.413
 20
108.621
 42
-0.149536
 10
127.352
 20
113.899
 42
0.0979852
 10
126.553
 20
114.467
 42
0.0978549
 10
126.084
 20
114.606
 42
0.122488
 10
125.966
 20
114.586
 42
0.239765
 10
125.909
 20
114.513
 10
125.908
 20
114.454
 42
0.0879403
 10
125.97
 20
114.289
 42
0.0424553
 10
126.866
 20
112.969
 42
-0.0331479
 10
129.174
 20
110.024
 42
-1.108759999999999
 10
125.543
 20
108.338
 42
-0.4862090000000001
 10
120.197
 20
110.377
 42
-0.368096
 10
115.23
 20
112.213
 42
-0.0807769
 10
115.899
 20
110.566
 42
-0.214689
 10
115.663
 20
109.176
 42
-0.159721
 10
114.375
 20
108.336
 42
-0.274594
 10
107.958
 20
109.728
 42
0.0708906
 10
107.259
 20
110.225
 42
0.101574
 10
106.796
 20
110.368
 42
0.129447
 10
106.64
 20
110.339
 42
0.282925
 10
106.542
 20
110.155
 42
0.0888143
 10
106.591
 20
109.929
 42
0.0696016
 10
107.032
 20
109.203
 10
110.077
 20
104.782
 42
-1.07401
 10
106.358
 20
102.116
 42
-0.330435
 10
100.503
 20
102.933
 42
0.0949175
 10
99.7952
 20
103.433
 42
0.169623
 10
99.26700000000002
 20
103.494
 42
0.354319
 10
98.99979999999999
 20
103.119
 42
0.119785
 10
99.11830000000001
 20
102.734
 42
0.0998298
 10
99.6821
 20
102.128
 10
104.001
 20
98.8324
 42
-0.302432
 10
96.538
 20
99.2068
 42
0.0185781
 10
96.1986
 20
99.44490000000001
 42
0.275672
 10
96.1214
 20
99.4462
 42
0.425659
 10
96.10799999999999
 20
99.39289999999999
 42
0.00657133
 10
96.53159999999999
 20
98.80970000000001
 42
-0.0225661
 10
97.2905
 20
97.64890000000001
 42
-0.146309
 10
97.7111
 20
96.1584
 42
-0.390266
 10
96.4385
 20
94.78700000000001
 42
-0.152033
 10
94.6095
 20
95.20090000000001
 42
-0.157953
 10
88.40340000000001
 20
101.56
 42
0.0405567
 10
88.07210000000001
 20
102.143
 42
0.0708175
 10
87.91920000000001
 20
102.317
 42
0.252548
 10
87.82439999999999
 20
102.332
 42
0.250272
 10
87.7585
 20
102.261
 42
0.065495
 10
87.7428
 20
102.082
 42
0.095716
 10
88.08089999999999
 20
100.806
 42
0.186428
 10
95.84090000000001
 20
93.5513
 42
0.4236740000000001
 10
99.5099
 20
95.03159999999999
 42
-0.0696409
 10
99.8496
 20
95.7085
 42
-0.184542
 10
100.22
 20
95.96850000000001
 42
-0.11853
 10
100.697
 20
95.9312
 42
0.0132275
 10
102.28
 20
95.44349999999999
 42
-0.121204
 10
102.743
 20
95.22859999999999
 42
-0.139809
 10
103.03
 20
94.75399999999998
 42
0.0422112
 10
103.279
 20
94.0543
 42
0.0683749
 10
109.359
 20
85.3536
 42
-0.39693
 10
104.122
 20
77.75190000000001
 10
103.956
 20
77.72159999999999
 42
-0.109921
 10
103.445
 20
77.736
 42
-0.204645
 10
103.163
 20
77.9603
 42
-0.132799
 10
103.086
 20
78.384
 42
-0.0712158
 10
103.384
 20
79.57399999999999
 42
0.314134
 10
101.734
 20
85.9364
 42
0.6840570000000001
 10
97.7739
 20
83.81629999999999
 10
97.8485
 20
83.1431
 42
0.115179
 10
98.5203
 20
80.7314
 42
-0.262943
 10
98.5749
 20
77.0578
 10
98.473
 20
76.8918
 42
-0.105874
 10
98.2853
 20
76.7023
 42
-0.208358
 10
98.11810000000001
 20
76.6752
 42
-0.144201
 10
97.9704
 20
76.77710000000001
 42
-0.0615823
 10
97.84080000000001
 20
76.9745
 42
-0.0431208
 10
97.5885
 20
77.6675
 42
0.0196122
 10
97.4238
 20
78.2281
 10
97.39969999999999
 20
78.27840000000001
 42
0.746352
 10
93.2281
 20
77.0962
 42
-0.112238
 10
93.1482
 20
76.75449999999999
 42
-0.161241
 10
92.6168
 20
76.2616
 42
-0.10072
 10
91.0471
 20
75.91639999999999
 42
-0.0875191
 10
89.6377
 20
76.0655
 42
0.209617
 10
83.7615
 20
75.6125
 42
0.103579
 10
83.1346
 20
75.0552
 42
0.117138
 10
82.87119999999999
 20
74.5304
 42
0.121253
 10
82.8767
 20
74.3716
 42
0.20039
 10
82.96319999999999
 20
74.26829999999999
 42
0.135252
 10
83.1426
 20
74.2381
 42
0.0754543
 10
83.61169999999999
 20
74.3681
 10
87.3956
 20
75.9547
 42
0.472662
 10
94.38970000000001
 20
77.1406
 42
0.056229
 10
94.5479
 20
77.5411
 42
-0.0669685
 10
94.65329999999999
 20
77.80129999999999
 42
-0.182369
 10
94.96720000000001
 20
78.0234
 42
-0.0671592
 10
95.51909999999999
 20
78.0978
 42
-0.066749
 10
96.34310000000001
 20
78.03749999999999
 42
-0.178155
 10
96.8058
 20
77.7313
 42
-0.0931543
 10
96.994
 20
77.2723
 42
0.0334936
 10
97.1319
 20
76.7839
 42
0.211944
 10
97.57460000000001
 20
76.31999999999999
 42
0.0898933
 10
98.43330000000001
 20
76.1761
 42
0.259442
 10
99.6499
 20
76.8147
 42
0.199958
 10
99.8408
 20
78.46169999999999
 10
98.6348
 20
83.40850000000001
 42
-0.0769114
 10
98.56659999999999
 20
84.0769
 42
-0.280639
 10
99.20189999999999
 20
85.06829999999999
 42
-0.133429
 10
100.214
 20
85.23899999999999
 42
-0.235472
 10
102.399
 20
84.0076
 42
-0.306239
 10
101.958
 20
77.1923
 42
0.0953264
 10
109.98
 20
71.76829999999999
 42
-0.297498
 10
113.512
 20
29.3697
 42
0.6847840000000001
 10
117.87
 20
37.57950000000001
 10
120.581
 20
50.3448
 42
-0.149432
 10
123.949
 20
46.7372
 42
-0.0383847
 10
124.218
 20
46.02829999999999
 42
-0.0960671
 10
123.56
 20
50.3854
 42
-0.047734
 10
123.079
 20
51.8268
 42
-0.0307954
 10
122.692
 20
54.1469
 42
-0.311313
 10
128.547
 20
64.86399999999999
 42
0.0620096
 10
143.742
 20
63.5543
 42
-0.237233
 10
154.559
 20
68.8704
 42
-0.0357442
 10
157.222
 20
68.6555
 42
-0.0775553
 10
158.402
 20
68.28189999999999
 42
0.0976879
 10
171.116
 20
64.91199999999999
 42
0.6096350000000001
 10
173.584
 20
68.93049999999999
 42
0.0926834
 10
173.453
 20
69.08419999999999
 42
0.177053
 10
172.875
 20
69.2508
 42
0.135535
 10
172.443
 20
69.1319
 42
0.112062
 10
172.349
 20
69.0391
 42
0.274915
 10
172.349
 20
68.8683
 42
0.106612
 10
172.468
 20
68.7411
 42
-0.105603
 10
173.207
 20
67.9579
 42
-0.332675
 10
173.1259999999999
 20
66.9789
 42
-0.120722
 10
172.156
 20
66.34759999999999
 42
-0.248468
 10
166.114
 20
66.94110000000001
 42
-0.0699574
 10
165.41
 20
67.50449999999999
 42
-0.157469
 10
165.236
 20
67.8677
 42
-0.111925
 10
165.302
 20
68.2601
 42
0.0170371
 10
165.71
 20
69.3147
 42
-0.4439960000000001
 10
178.6259999999999
 20
75.0198
 42
-0.101542
 10
185.926
 20
69.58490000000001
 42
-0.473511
 10
192.111
 20
65.1004
 42
-0.0497494
 10
192.0149999999999
 20
62.712
 42
0.031144
 10
191.898
 20
61.2178
 42
-0.28551
 10
188.803
 20
56.4053
 42
-0.0578764
 10
187.078
 20
55.81949999999999
 42
-0.0724412
 10
185.624
 20
55.7216
 42
0.0125259
 10
170.544
 20
56.3042
 42
0.5531810000000001
 10
162.542
 20
44.3034
 42
-0.6834180000000001
 10
152.117
 20
63.7977
 42
-0.4865090000000001
 10
158.331
 20
63.5782
 42
0.294623
 10
151.148
 20
53.1131
 42
-0.0367576
 10
151.2
 20
53.575
 42
-0.0753604
 10
152.459
 20
56.73899999999999
 42
-0.0754492
 10
153.527
 20
58.20399999999999
 42
0.091693
 10
158.493
 20
64.6544
 42
0.395123
 10
151.345
 20
63.8641
 42
0.7043650000000001
 10
162.3229999999999
 20
43.65169999999999
 42
-0.0349543
 10
166.825
 20
35.121
 42
-0.290727
  0
LWPOLYLINE
  5
234
330
22
100
AcDbEntity
  8
0
100
AcDbPolyline
 90
       12
 70
     1
 43
0.0
 10
180.543
 20
23.0292
 42
0.286665
 10
172.555
 20
19.9361
 10
166.155
 20
23.3426
 42
0.113034
 10
169.757
 20
32.1143
 10
163.039
 20
44.1988
 42
-0.490345
 10
167.468
 20
54.2716
 42
-0.123193
 10
187.39
 20
54.3101
 10
192.583
 20
48.2174
 42
-0.227724
 10
194.814
 20
39.7027
 42
-0.149216
 10
194.182
 20
38.4131
 42
-0.047715
 10
192.978
 20
37.4735
 42
-0.0383948
 10
186.186
 20
33.423
 42
-0.189323
  0
LWPOLYLINE
  5
242
330
22
100
AcDbEntity
  8
0
100
AcDbPolyline
 90
       12
 70
     1
 43
0.0
 10
73.39019999999999
 20
46.192
 42
0.184827
 10
85.1074
 20
26.4313
 42
-0.219016
 10
85.1378
 20
26.3715
 42
-0.309232
 10
85.11129999999999
 20
26.3295
 42
-0.0744307
 10
85.00620000000001
 20
26.307
 42
-0.076321
 10
84.3167
 20
26.3882
 42
-0.117295
 10
83.5876
 20
26.7383
 10
74.9854
 20
34.2115
 42
-0.163322
 10
65.77199999999999
 20
49.7202
 42
-0.281738
 10
66.64570000000001
 20
52.9076
 42
-0.240413
 10
67.99179999999999
 20
53.299
 42
-0.142154
 10
69.18689999999999
 20
52.5605
 42
-0.101738
  0
LWPOLYLINE
  5
250
330
22
100
AcDbEntity
  8
0
100
AcDbPolyline
 90
        9
 70
     1
 43
0.0
 10
60.0827
 20
37.7294
 42
-0.175304
 10
61.69489999999999
 20
30.5297
 10
61.6379
 20
30.1599
 42
-0.0690913
 10
61.5047
 20
29.7076
 42
-0.2958860000000001
 10
61.3587
 20
29.6257
 42
-0.220729
 10
61.16859999999999
 20
29.7292
 42
-0.0431768
 10
60.9696
 20
30.0751
 42
0.0152831
 10
60.0111
 20
32.1997
 42
0.101981
 10
59.6017
 20
32.7304
 42
-0.5498029999999999
  0
LWPOLYLINE
  5
25B
330
22
100
AcDbEntity
  8
0
100
AcDbPolyline
 90
       12
 70
     1
 43
0.0
 10
117.813
 20
34.7652
 42
-0.240749
 10
115.91
 20
30.1907
 42
-0.245271
 10
115.012
 20
29.9734
 42
-0.338938
 10
114.636
 20
30.4195
 42
-0.137822
 10
114.77
 20
30.8997
 42
0.0160721
 10
116.89
 20
35.1151
 42
-0.0333551
 10
117.127
 20
35.56430000000001
 42
-0.0823817
 10
117.325
 20
35.8094
 42
-0.12825
 10
117.436
 20
35.868
 42
-0.196339
 10
117.532
 20
35.8488
 42
-0.116865
 10
117.613
 20
35.7569
 42
-0.054344
 10
117.681
 20
35.5974
 42
-0.0533495
  0
LWPOLYLINE
  5
269
330
22
100
AcDbEntity
  8
0
100
AcDbPolyline
 90
        8
 70
     1
 43
0.0
 10
71.4713
 20
48.4277
 10
77.00369999999999
 20
33.6609
 42
-0.237178
 10
67.04080000000001
 20
51.0141
 10
67.042
 20
51.4838
 42
-0.122528
 10
67.2099
 20
52.0988
 42
-0.315565
 10
67.79099999999999
 20
52.3294
 42
-0.0865043
 10
68.3321
 20
52.1147
 42
-0.0807841
 10
70.19580000000001
 20
50.4032
 42
-0.0737466
  0
LWPOLYLINE
  5
273
330
22
100
AcDbEntity
  8
0
100
AcDbPolyline
 90
       18
 70
     1
 43
0.0
 10
80.5072
 20
53.4571
 42
0.130957
 10
83.2548
 20
34.2277
 42
-0.061626
 10
83.42690000000001
 20
33.6965
 42
-0.095165
 10
83.4303
 20
33.4908
 10
83.4045
 20
33.429
 42
-0.259982
 10
83.3073
 20
33.3812
 42
-0.120705
 10
83.1623
 20
33.42690000000001
 42
-0.0565347
 10
82.98489999999999
 20
33.5564
 42
-0.121271
 10
82.26090000000001
 20
34.7237
 10
76.69029999999999
 20
50.7057
 42
-0.267657
 10
77.9136
 20
57.5522
 42
0.0168
 10
78.0604
 20
57.7402
 42
-0.0608521
 10
78.3739
 20
58.1043
 42
-0.185435
 10
78.6122
 20
58.19600000000001
 42
-0.151074
 10
78.81409999999999
 20
58.1108
 42
-0.0952106
 10
79.12269999999999
 20
57.7076
 10
80.4418
 20
55.3419
 42
-0.15974
 10
80.65989999999999
 20
54.418
 42
-0.00563943
  0
LWPOLYLINE
  5
287
330
22
100
AcDbEntity
  8
0
100
AcDbPolyline
 90
        8
 70
     1
 43
0.0
 10
79.2056
 20
57.20839999999999
 42
-0.0315108
 10
79.5724
 20
47.4615
 42
-0.0399589
 10
79.509
 20
46.7051
 42
-0.2761179999999999
 10
79.36939999999999
 20
46.55109999999999
 42
-0.347291
 10
79.20910000000001
 20
46.61389999999999
 42
-0.0411089
 10
79.00449999999999
 20
47.07869999999999
 42
-0.0194665
 10
78.03889999999999
 20
50.6397
 10
78.0205
 20
50.697
 42
-0.479095
  0
LWPOLYLINE
  5
291
330
22
100
AcDbEntity
  8
0
100
AcDbPolyline
 90
       58
 70
     1
 43
0.0
 10
125.925
 20
82.0574
 42
0.134831
 10
129.868
 20
74.1768
 42
-0.0698688
 10
130.014
 20
73.9751
 42
-0.253458
 10
130.008
 20
73.87439999999999
 42
-0.242418
 10
129.918
 20
73.8207
 42
-0.0590766
 10
129.731
 20
73.8378
 42
-0.042842
 10
128.827
 20
74.1376
 42
-0.0280624
 10
128.431
 20
74.3176
 42
-0.136068
 10
125.474
 20
77.4954
 42
0.4178010000000001
 10
122.716
 20
83.353
 42
0.0117114
 10
122.492
 20
83.42589999999999
 42
0.0705814
 10
121.812
 20
83.55549999999999
 42
0.0830355
 10
121.699
 20
83.5387
 42
0.249062
 10
121.655
 20
83.48829999999999
 42
0.193548
 10
121.668
 20
83.405
 10
121.709
 20
83.34760000000001
 42
0.0597359
 10
122.124
 20
83.0053
 10
124.608
 20
81.2833
 42
-0.0656095
 10
124.954
 20
80.9837
 42
-0.138073
 10
125.082
 20
80.7323
 42
-0.248834
 10
124.959
 20
80.43699999999999
 42
-0.085722
 10
124.586
 20
80.22820000000001
 42
-0.0593515
 10
123.399
 20
79.9884
 42
-0.376183
 10
115.904
 20
87.6768
 42
0.104973
 10
115.405
 20
89.50700000000001
 42
-0.154412
 10
114.99
 20
91.89629999999999
 42
0.125691
 10
113.508
 20
99.5326
 10
109.57
 20
107.935
 42
-0.236693
 10
117.448
 20
94.22270000000001
 42
0.05226
 10
116.548
 20
92.2783
 42
0.645946
 10
128.365
 20
85.6508
 42
-0.6132410000000001
 10
133.59
 20
84.65389999999999
 42
0.4005780000000001
 10
135.037
 20
77.1924
 42
0.0208246
 10
135.293
 20
77.0279
 42
-0.0155983
 10
136.133
 20
76.5548
 42
-0.0786013
 10
136.251
 20
76.4494
 42
-0.290598
 10
136.256
 20
76.366
 42
-0.174851
 10
136.157
 20
76.27909999999999
 10
136.046
 20
76.2449
 42
-0.041447
 10
135.157
 20
76.14279999999999
 42
-0.223921
 10
128.653
 20
78.76139999999999
 42
0.266735
 10
129.565
 20
84.47259999999999
 42
0.0693977
 10
129.256
 20
85.12579999999999
 42
0.249522
 10
129.127
 20
85.18739999999999
 42
0.30664
 10
129.031
 20
85.1166
 42
0.0542523
 10
128.981
 20
84.8558
 42
0.0266433
 10
128.987
 20
83.1394
 10
128.985
 20
83.0901
 10
128.414
 20
79.41849999999999
 42
-0.8092299999999999
 10
127.444
 20
79.3642
 10
126.522
 20
82.75109999999999
 42
0.049172
 10
126.327
 20
83.30519999999999
 42
0.0766678
 10
126.209
 20
83.4876
 10
126.155
 20
83.52960000000001
 42
0.279856
 10
126.057
 20
83.5269
 42
0.0871136
 10
126.019
 20
83.4933
 42
0.0534006
 10
125.975
 20
83.42399999999999
 42
0.0556709
 10
125.914
 20
83.23959999999999
 42
0.0967641
  0
LWPOLYLINE
  5
2CD
330
22
100
AcDbEntity
  8
0
100
AcDbPolyline
 90
       20
 70
     1
 43
0.0
 10
142.944
 20
76.253
 42
-0.377535
 10
133.415
 20
74.29559999999999
 42
0.12056
 10
133.234
 20
74.3443
 42
0.0724166
 10
132.895
 20
74.291
 42
-0.0154398
 10
132.038
 20
74.02249999999999
 42
-0.281056
 10
130.548
 20
74.40989999999999
 10
128.915
 20
76.0126
 42
-0.0364441
 10
128.667
 20
76.28619999999999
 42
-0.0886043
 10
128.562
 20
76.47339999999999
 10
128.556
 20
76.5386
 42
-0.268691
 10
128.617
 20
76.6203
 10
128.679
 20
76.6399
 42
-0.0637856
 10
128.849
 20
76.64480000000001
 42
-0.0587922
 10
129.795
 20
76.39699999999999
 42
0.0913774
 10
135.938
 20
75.173
 10
141.913
 20
78.5584
 10
142.231
 20
78.7225
 42
-0.113754
 10
142.969
 20
78.9213
 42
-0.285684
 10
143.504
 20
78.6384
 42
-0.118988
 10
143.621
 20
78.14289999999999
 42
-0.149964
  0
LWPOLYLINE
  5
2E3
330
22
100
AcDbEntity
  8
0
100
AcDbPolyline
 90
       12
 70
     1
 43
0.0
 10
135.149
 20
82.30529999999999
 42
0.354404
 10
139.751
 20
78.33169999999999
 42
0.109675
 10
139.18
 20
78.21519999999999
 42
0.0257069
 10
138.38
 20
77.7724
 42
-0.240926
 10
136.633
 20
77.60349999999999
 42
-0.406476
 10
133.742
 20
83.57420000000001
 10
133.886
 20
83.9775
 42
-0.0870931
 10
134.253
 20
84.69230000000001
 42
-0.197969
 10
134.45
 20
84.79449999999999
 42
-0.253276
 10
134.613
 20
84.72379999999999
 10
134.684
 20
84.60880000000001
 42
-0.0456689
 10
134.806
 20
84.2754
 42
-0.0203353
  0
LWPOLYLINE
  5
2F1
330
22
100
AcDbEntity
  8
0
100
AcDbPolyline
 90
       16
 70
     1
 43
0.0
 10
147.477
 20
80.3227
 42
-0.168199
 10
136.097
 20
80.2618
 42
0.551574
 10
128.644
 20
87.4323
 42
-0.46909
 10
123.919
 20
88.36060000000001
 42
-0.0423793
 10
123.224
 20
89.93729999999999
 42
-0.0787537
 10
123.064
 20
90.85460000000001
 42
0.0149393
 10
122.435
 20
104.611
 42
-0.227407
 10
122.852
 20
105.788
 42
-0.377328
 10
123.818
 20
105.863
 42
-0.128851
 10
124.267
 20
105.267
 10
125.473
 20
102.644
 42
0.5007729999999999
 10
129.376
 20
90.7501
 42
-0.180316
 10
135.876
 20
89.40269999999999
 42
0.416928
 10
139.346
 20
83.04959999999999
 42
0.02248
 10
141.349
 20
82.5685
 42
0.0685376
 10
142.026
 20
82.5319
 42
-0.238304
  0
LWPOLYLINE
  5
303
330
22
100
AcDbEntity
  8
0
100
AcDbPolyline
 90
       15
 70
     1
 43
0.0
 10
142.849
 20
83.91719999999999
 42
-0.319025
 10
150.259
 20
80.6348
 10
150.305
 20
80.5263
 42
-0.28477
 10
150.262
 20
80.3701
 42
-0.0896588
 10
150.1929999999999
 20
80.3261
 42
-0.0541713
 10
150.065
 20
80.2885
 42
-0.0542034
 10
149.752
 20
80.27379999999999
 42
-0.110337
 10
147.629
 20
80.9354
 42
-0.101737
 10
147.234
 20
81.27889999999998
 42
0.256285
 10
142.914
 20
83.36809999999999
 42
-0.0372212
 10
141.951
 20
83.37000000000001
 42
-0.0893063
 10
141.68
 20
83.4275
 42
-0.270809
 10
141.64
 20
83.48550000000001
 42
-0.247663
 10
141.671
 20
83.5547
 42
-0.0610072
 10
141.817
 20
83.63509999999999
 42
-0.0463549
  0
LWPOLYLINE
  5
314
330
22
100
AcDbEntity
  8
0
100
AcDbPolyline
 90
       15
 70
     1
 43
0.0
 10
121.951
 20
95.5184
 42
0.543229
 10
127.391
 20
86.3532
 42
-0.266548
 10
127.481
 20
86.2969
 42
-0.273804
 10
127.476
 20
86.1936
 42
-0.0560212
 10
127.33
 20
86.02999999999999
 42
-0.060664
 10
125.654
 20
84.94429999999999
 42
-0.0612225
 10
125.321
 20
84.81860000000001
 42
-0.5219310000000001
 10
118.124
 20
91.71739999999999
 42
0.0745503
 10
118.956
 20
103.209
 42
-0.0365349
 10
118.946
 20
103.798
 42
-0.0904236
 10
119.017
 20
104.132
 42
-0.243997
 10
119.145
 20
104.227
 42
-0.196956
 10
119.334
 20
104.184
 42
-0.062512
 10
119.546
 20
103.978
 42
-0.0949715
 10
120.45
 20
102.15
  0
LWPOLYLINE
  5
325
330
22
100
AcDbEntity
  8
0
100
AcDbPolyline
 90
       10
 70
     1
 43
0.0
 10
184.79
 20
87.38100000000001
 42
-0.00575453
 10
189.485
 20
86.2799
 42
0.181695
 10
189.31
 20
86.1996
 42
0.110127
 10
189.206
 20
86.02
 42
0.0415084
 10
189.145
 20
85.77290000000001
 42
-0.0400488
 10
189.013
 20
85.0678
 42
-0.145864
 10
188.816
 20
84.7438
 42
-0.186399
 10
188.422
 20
84.62529999999999
 42
-0.0871178
 10
187.743
 20
84.81939999999999
 42
-0.124559
 10
185.079
 20
86.94499999999999
 42
-0.0297912
  0
LWPOLYLINE
  5
331
330
22
100
AcDbEntity
  8
0
100
AcDbPolyline
 90
       16
 70
     1
 43
0.0
 10
136.859
 20
90.2617
 42
-0.0426805
 10
137.143
 20
89.85039999999999
 42
-0.04873
 10
137.366
 20
89.3561
 42
-0.0974802
 10
137.402
 20
89.08549999999999
 10
137.338
 20
88.8034
 42
-0.0565127
 10
137.098
 20
88.11049999999999
 42
-0.16056
 10
136.914
 20
87.93919999999999
 42
-0.259709
 10
136.753
 20
87.9516
 42
-0.24875
 10
136.601
 20
88.23269999999999
 10
136.616
 20
88.4811
 42
0.0320929
 10
136.628
 20
89.0708
 10
136.627
 20
89.37749999999999
 42
0.131435
 10
136.439
 20
89.8421
 42
0.0679354
 10
135.953
 20
90.38439999999999
 42
-0.204055
 10
135.903
 20
90.49660000000001
 42
-0.336177
 10
135.95
 20
90.5607
 42
-0.305495
  0
LWPOLYLINE
  5
343
330
22
100
AcDbEntity
  8
0
100
AcDbPolyline
 90
        9
 70
     1
 43
0.0
 10
108.282
 20
93.9362
 42
-0.2695699999999999
 10
114.112
 20
89.112
 42
-0.3463179999999999
 10
104.721
 20
94.06270000000001
 10
104.6
 20
94.37139999999999
 42
-0.103356
 10
104.531
 20
94.80769999999999
 42
-0.365661
 10
104.788
 20
95.0814
 10
104.953
 20
95.09019999999999
 42
-0.0544582
 10
105.37
 20
95.01319999999999
 42
-0.0276028
 10
107.013
 20
94.3707
 42
0.0563882
  0
LWPOLYLINE
  5
34E
330
22
100
AcDbEntity
  8
0
100
AcDbPolyline
 90
        3
 70
     1
 43
0.0
 10
111.942
 20
100.859
 42
-0.291174
 10
113.795
 20
90.6841
 42
0.0545994
 10
107.436
 20
97.19360000000001
  0
LWPOLYLINE
  5
353
330
22
100
AcDbEntity
  8
0
100
AcDbPolyline
 90
       24
 70
     1
 43
0.0
 10
105.24
 20
95.92959999999999
 10
105.091
 20
96.05360000000001
 42
-0.209888
 10
105.026
 20
96.219
 42
-0.0631657
 10
105.12
 20
96.7787
 42
0.0407342
 10
105.286
 20
97.46540000000001
 10
105.293
 20
97.7067
 42
-0.210651
 10
105.416
 20
97.9513
 42
-0.187729
 10
105.705
 20
98.04680000000001
 42
-0.0470875
 10
106.0
 20
97.9897
 10
106.125
 20
97.9446
 42
-0.0915084
 10
106.212
 20
97.8725
 42
-0.0457493
 10
106.339
 20
97.6876
 42
0.0993479
 10
108.917
 20
94.89209999999999
 42
-0.0882406
 10
109.114
 20
94.70730000000001
 42
-0.16304
 10
109.16
 20
94.5659
 42
-0.231342
 10
109.079
 20
94.40179999999999
 42
-0.254164
 10
108.912
 20
94.3753
 10
108.775
 20
94.43279999999999
 42
0.0227613
 10
108.385
 20
94.62609999999999
 42
0.0534957
 10
107.925
 20
94.82190000000001
 10
107.606
 20
94.8679
 42
0.0123472
 10
106.979
 20
94.9623
 42
-0.0386257
 10
106.67
 20
95.0375
 42
-0.0497597
 10
106.444
 20
95.1373
 42
-0.0187138
  0
LWPOLYLINE
  5
36D
330
22
100
AcDbEntity
  8
0
100
AcDbPolyline
 90
       14
 70
     1
 43
0.0
 10
117.613
 20
105.081
 42
-0.205864
 10
118.153
 20
97.1987
 42
-0.0295106
 10
117.858
 20
96.43410000000001
 42
-0.0669411
 10
117.782
 20
96.3146
 42
-0.307525
 10
117.73
 20
96.3029
 42
-0.202734
 10
117.675
 20
96.3569
 42
-0.0396974
 10
117.632
 20
96.505
 10
117.434
 20
97.5722
 42
0.116694
 10
113.989
 20
105.11
 10
113.804
 20
105.386
 42
-0.129741
 10
113.666
 20
105.838
 42
-0.268602
 10
113.941
 20
106.279
 42
-0.0901852
 10
114.363
 20
106.421
 42
-0.138081
 10
116.474
 20
106.059
 42
-0.168116
  0
LWPOLYLINE
  5
37D
330
22
100
AcDbEntity
  8
0
100
AcDbPolyline
 90
       18
 70
     1
 43
0.0
 10
165.174
 20
97.8532
 42
-0.119785
 10
165.077
 20
97.78680000000001
 42
-0.0701314
 10
164.941
 20
97.74779999999999
 42
-0.0432423
 10
164.712
 20
97.73600000000001
 42
-0.0339759
 10
163.833
 20
97.84080000000001
 42
-0.0215071
 10
163.061
 20
98.1193
 42
-0.0774502
 10
162.711
 20
98.3068
 42
-0.0977482
 10
162.501
 20
98.54210000000001
 42
0.0918994
 10
162.301
 20
98.77110000000001
 42
0.0908764
 10
162.029
 20
98.9154
 42
-0.300029
 10
161.987
 20
98.96689999999999
 42
-0.426838
 10
162.02
 20
99.0052
 42
-0.0228501
 10
162.411
 20
98.9982
 42
0.0166748
 10
164.065
 20
98.8588
 42
-0.0357482
 10
164.917
 20
98.8206
 42
-0.167765
 10
165.162
 20
98.68389999999999
 42
-0.160683
 10
165.28
 20
98.41549999999999
 42
-0.0981498
 10
165.244
 20
97.9725
 42
-0.101348
  0
LWPOLYLINE
  5
391
330
22
100
AcDbEntity
  8
0
100
AcDbPolyline
 90
       24
 70
     1
 43
0.0
 10
125.6
 20
100.274
 42
0.078411
 10
125.795
 20
103.188
 42
0.0114915
 10
125.75
 20
103.974
 42
0.0482848
 10
125.717
 20
104.158
 42
0.0265612
 10
125.707
 20
104.187
 10
125.592
 20
104.472
 42
-0.264624
 10
125.618
 20
104.677
 42
-0.217634
 10
125.835
 20
104.794
 10
126.816
 20
104.762
 10
126.978
 20
104.727
 42
-0.239644
 10
127.155
 20
104.549
 42
-0.0573911
 10
127.183
 20
104.438
 42
-0.0234304
 10
127.207
 20
104.159
 42
-0.0183531
 10
127.179
 20
102.871
 42
-0.0907573
 10
127.054
 20
102.283
 42
-0.0514255
 10
125.886
 20
100.472
 42
0.0785485
 10
125.808
 20
100.327
 42
0.0723892
 10
125.775
 20
100.152
 42
-0.0277878
 10
125.761
 20
99.7595
 42
-0.0157922
 10
125.742
 20
99.4743
 42
-0.0562743
 10
125.725
 20
99.3956
 42
-0.323377
 10
125.626
 20
99.3246
 42
-0.3246989999999999
 10
125.528
 20
99.39660000000001
 42
-0.089471
 10
125.492
 20
99.7615
  0
LWPOLYLINE
  5
3AB
330
22
100
AcDbEntity
  8
0
100
AcDbPolyline
 90
       13
 70
     1
 43
0.0
 10
159.964
 20
100.288
 42
-0.0406077
 10
160.295
 20
100.28
 42
-0.034444
 10
160.676
 20
100.215
 42
-0.0928522
 10
160.853
 20
100.135
 42
-0.10675
 10
160.969
 20
100.011
 42
0.00708133
 10
161.299
 20
99.43649999999999
 42
-0.315305
 10
161.28
 20
99.3096
 42
-0.222828
 10
161.118
 20
99.24660000000001
 42
-0.106108
 10
160.468
 20
99.52249999999999
 42
-0.0197254
 10
160.192
 20
99.6915
 42
-0.0850005
 10
159.867
 20
99.9784
 42
-0.227745
 10
159.834
 20
100.174
 42
-0.1494
 10
159.88
 20
100.249
 42
-0.142122
  0
LWPOLYLINE
  5
3BA
330
22
100
AcDbEntity
  8
0
100
AcDbPolyline
 90
       17
 70
     1
 43
0.0
 10
106.883
 20
99.5723
 42
-0.15312
 10
104.47
 20
99.8435
 42
-0.0188731
 10
103.48
 20
100.325
 42
-0.266673
 10
103.451
 20
100.377
 42
-0.298912
 10
103.481
 20
100.421
 42
-0.0643899
 10
103.836
 20
100.52
 10
104.158
 20
100.535
 42
0.00903592
 10
105.141
 20
100.595
 42
-0.0113898
 10
105.968
 20
100.71
 42
-0.0337586
 10
106.191
 20
100.717
 42
-0.0300992
 10
106.44
 20
100.693
 42
0.0178403
 10
107.54
 20
100.534
 42
-0.0543916
 10
107.918
 20
100.462
 42
-0.350104
 10
107.977
 20
100.369
 42
-0.188667
 10
107.89
 20
100.202
 42
-0.0273487
 10
107.538
 20
99.9234
 10
107.36
 20
99.78239999999999
 42
-0.123224
  0
LWPOLYLINE
  5
3CD
330
22
100
AcDbEntity
  8
0
100
AcDbPolyline
 90
       19
 70
     1
 43
0.0
 10
120.841
 20
106.009
 42
-0.219968
 10
122.426
 20
101.437
 42
-0.0448775
 10
122.284
 20
100.581
 42
-0.0753147
 10
122.198
 20
100.383
 10
122.152
 20
100.335
 42
-0.293118
 10
122.054
 20
100.327
 42
-0.0784463
 10
122.01
 20
100.358
 42
-0.0453577
 10
121.95
 20
100.427
 42
-0.0428348
 10
121.841
 20
100.616
 42
-0.0335782
 10
121.441
 20
101.752
 42
0.18297
 10
117.89
 20
106.406
 42
-0.0583486
 10
117.377
 20
106.802
 42
-0.105045
 10
117.131
 20
107.162
 42
-0.240791
 10
117.171
 20
107.624
 42
-0.126468
 10
117.583
 20
107.974
 42
-0.155718
 10
119.442
 20
108.204
 42
-0.106522
 10
119.947
 20
108.019
 42
-0.152383
 10
120.229
 20
107.618
 42
-0.0279281
 10
120.401
 20
106.935
 42
0.137092
  0
LWPOLYLINE
  5
3E2
330
22
100
AcDbEntity
  8
0
100
AcDbPolyline
 90
        7
 70
     1
 43
0.0
 10
146.683
 20
105.09
 42
-0.213149
 10
146.928
 20
105.134
 10
147.233
 20
104.962
 42
-0.092652
 10
148.186
 20
103.955
 42
-0.373381
 10
148.153
 20
103.919
 42
-0.138026
 10
146.708
 20
104.851
 10
146.632
 20
104.937
 42
-0.361483
  0
LWPOLYLINE
  5
3EB
330
22
100
AcDbEntity
  8
0
100
AcDbPolyline
 90
       12
 70
     1
 43
0.0
 10
125.499
 20
107.1
 10
125.647
 20
106.939
 42
0.0363762
 10
126.153
 20
106.515
 10
126.284
 20
106.454
 42
-0.146162
 10
126.344
 20
106.375
 42
-0.290514
 10
126.336
 20
106.34
 42
-0.127757
 10
126.271
 20
106.301
 42
-0.117342
 10
125.19
 20
106.407
 42
-0.0828401
 10
123.868
 20
107.021
 42
-0.305006
 10
123.852
 20
107.083
 42
-0.20566
 10
123.914
 20
107.149
 42
-0.0728554
 10
124.752
 20
107.295
 42
-0.204942
  0
LWPOLYLINE
  5
3F9
330
22
100
AcDbEntity
  8
0
100
AcDbPolyline
 90
        9
 70
     1
 43
0.0
 10
133.199
 20
109.002
 42
-0.170548
 10
134.762
 20
108.627
 42
0.0159104
 10
135.462
 20
108.223
 42
-0.5714640000000001
 10
135.449
 20
107.982
 10
135.032
 20
107.957
 42
-0.0920508
 10
133.507
 20
108.513
 42
-0.0584409
 10
133.01
 20
108.768
 42
-0.166622
 10
132.967
 20
108.845
 42
-0.218879
 10
132.983
 20
108.912
 42
-0.183094
  0
LWPOLYLINE
  5
404
330
22
100
AcDbEntity
  8
0
100
AcDbPolyline
 90
       20
 70
     1
 43
0.0
 10
66.0294
 20
114.86
 42
0.109473
 10
58.95
 20
111.198
 10
58.7546
 20
111.065
 42
-0.316241
 10
58.0623
 20
111.132
 42
-0.0927824
 10
57.6393
 20
111.661
 42
-0.0970129
 10
56.8307
 20
114.836
 42
0.458057
 10
51.8665
 20
118.857
 42
-0.108472
 10
51.887
 20
128.995
 42
-0.0663359
 10
52.10119999999999
 20
129.632
 42
-0.204596
 10
52.6351
 20
130.142
 42
-0.123271
 10
53.3799
 20
130.161
 42
-0.0156185
 10
54.7546
 20
129.794
 42
-0.207655
 10
58.5555
 20
126.769
 42
0.4901920000000001
 10
58.8485
 20
120.297
 42
-0.194972
 10
67.69289999999999
 20
116.666
 10
67.8832
 20
116.465
 42
-0.117826
 10
68.185
 20
115.97
 42
-0.136773
 10
68.1919
 20
115.717
 42
-0.167851
 10
67.97119999999999
 20
115.432
 42
-0.0655634
 10
67.5457
 20
115.229
 42
-0.0154368
  0
LWPOLYLINE
  5
41A
330
22
100
AcDbEntity
  8
0
100
AcDbPolyline
 90
       22
 70
     1
 43
0.0
 10
113.517
 20
120.993
 42
-0.282872
 10
104.107
 20
110.917
 42
-0.0481807
 10
103.468
 20
110.816
 42
-0.0779747
 10
102.883
 20
110.847
 42
-0.107729
 10
102.751
 20
110.908
 42
-0.276111
 10
102.712
 20
111.002
 10
102.736
 20
111.062
 42
-0.0894665
 10
102.885
 20
111.21
 42
-0.0429395
 10
103.407
 20
111.509
 10
108.282
 20
113.856
 10
113.066
 20
121.072
 10
114.216
 20
132.115
 42
0.0472556
 10
114.228
 20
133.408
 42
0.0207774
 10
113.857
 20
136.322
 42
-0.221525
 10
116.137
 20
144.632
 42
-0.0336922
 10
116.685
 20
145.139
 42
-0.0258261
 10
117.539
 20
145.786
 42
-0.0587327
 10
117.819
 20
145.945
 42
-0.521913
 10
117.853
 20
145.921
 42
-0.158431
 10
117.818
 20
145.813
 42
-0.0253795
 10
117.592
 20
145.548
 42
0.187875
 10
114.545
 20
137.738
 42
-0.0668625
  0
LWPOLYLINE
  5
432
330
22
100
AcDbEntity
  8
0
100
AcDbPolyline
 90
       37
 70
     1
 43
0.0
 10
85.5136
 20
117.363
 10
90.83809999999999
 20
112.548
 42
-0.357678
 10
85.9295
 20
112.52
 42
-0.38068
 10
82.3872
 20
135.675
 42
0.048695
 10
82.7189
 20
136.309
 42
0.0995611
 10
82.86939999999999
 20
136.947
 42
0.117589
 10
82.8362
 20
137.098
 42
0.248149
 10
82.7443
 20
137.164
 10
82.67529999999998
 20
137.159
 42
0.0939376
 10
82.48899999999999
 20
137.063
 42
0.0638728
 10
81.91079999999999
 20
136.465
 42
0.108617
 10
77.3494
 20
127.217
 10
77.2446
 20
126.86
 42
-0.0993336
 10
77.01309999999999
 20
126.429
 42
-0.236105
 10
76.7848
 20
126.344
 42
-0.180043
 10
76.5061
 20
126.485
 42
-0.0621723
 10
76.25539999999999
 20
126.855
 42
-0.0657698
 10
75.66259999999999
 20
128.629
 42
-0.0757241
 10
75.5358
 20
129.991
 42
-0.0645394
 10
78.9576
 20
143.817
 10
79.04859999999999
 20
144.04
 42
-0.0765839
 10
79.25360000000001
 20
144.424
 42
-0.249568
 10
79.3408
 20
144.459
 42
-0.258273
 10
79.4151
 20
144.406
 10
79.44370000000001
 20
144.332
 42
-0.0119269
 10
79.5779
 20
143.735
 42
0.0926608
 10
79.8102
 20
143.102
 42
0.109148
 10
79.95059999999999
 20
142.958
 42
0.221772
 10
80.0783
 20
142.941
 42
0.144918
 10
80.19240000000001
 20
143.03
 42
0.0625972
 10
80.2916
 20
143.202
 42
0.0922945
 10
80.5203
 20
144.529
 42
0.0704939
 10
80.48669999999999
 20
144.807
 10
79.31449999999999
 20
148.636
 42
-0.314737
 10
85.28669999999999
 20
140.6
 42
-0.0167735
 10
85.2799
 20
139.03
 42
-0.00988233
 10
85.12649999999998
 20
136.37
 42
0.048909
  0
LWPOLYLINE
  5
459
330
22
100
AcDbEntity
  8
0
100
AcDbPolyline
 90
       62
 70
     1
 43
0.0
 10
119.518
 20
114.974
 42
-0.4128090000000001
 10
115.076
 20
113.315
 42
-0.024769
 10
113.43
 20
114.139
 42
-0.0607132
 10
113.13
 20
114.343
 42
-0.355928
 10
113.126
 20
114.384
 42
-0.277901
 10
113.171
 20
114.406
 10
113.42
 20
114.35
 42
-0.0279727
 10
114.964
 20
113.79
 42
0.4585930000000001
 10
118.683
 20
115.742
 10
118.738
 20
115.913
 42
-0.0867101
 10
119.185
 20
116.547
 42
0.0408184
 10
120.02
 20
117.485
 42
0.2094
 10
120.231
 20
118.435
 42
0.132707
 10
119.668
 20
119.421
 10
116.439
 20
123.031
 42
-0.0431186
 10
116.019
 20
123.582
 42
-0.0286486
 10
115.881
 20
123.85
 42
-0.0838897
 10
115.852
 20
123.98
 42
-0.244779
 10
115.888
 20
124.049
 42
-0.197895
 10
115.98
 20
124.07
 42
-0.0691118
 10
116.152
 20
124.008
 42
-0.046581
 10
116.749
 20
123.612
 42
0.218381
 10
121.718
 20
122.474
 10
121.673
 20
122.506
 10
121.467
 20
122.758
 42
-0.0269463
 10
120.282
 20
124.56
 42
-0.0468411
 10
119.976
 20
125.163
 42
-0.539148
 10
120.026
 20
125.227
 42
-0.167534
 10
120.219
 20
125.145
 42
-0.0231299
 10
121.135
 20
124.162
 42
0.21947
 10
128.938
 20
120.69
 42
0.9357799999999999
 10
129.167
 20
124.376
 42
-0.213484
 10
127.931
 20
125.072
 42
-0.166812
 10
127.748
 20
125.597
 42
-0.137484
 10
127.791
 20
125.735
 42
-0.291986
 10
127.972
 20
125.8
 42
-0.0995755
 10
128.166
 20
125.718
 42
-0.0139933
 10
128.497
 20
125.493
 42
0.0565123
 10
130.748
 20
124.034
 42
0.193348
 10
132.292
 20
123.902
 10
135.988
 20
125.204
 42
-0.0903099
 10
136.22
 20
125.251
 10
136.291
 20
125.236
 42
-0.2745929999999999
 10
136.355
 20
125.141
 10
136.353
 20
125.067
 42
-0.0683731
 10
136.289
 20
124.879
 42
-0.107714
 10
135.449
 20
123.895
 42
-0.102157
 10
135.148
 20
123.741
 10
131.49
 20
122.883
 42
0.0391429
 10
131.481
 20
122.815
 10
131.496
 20
122.517
 42
-0.108616
 10
131.325
 20
121.009
 42
-0.259766
 10
130.566
 20
120.343
 42
-0.116704
 10
124.674
 20
120.489
 42
0.252691
 10
119.006
 20
121.448
 42
0.2544
 10
118.951
 20
121.389
 42
0.161018
 10
118.96
 20
121.268
 42
0.0517071
 10
119.045
 20
121.119
 42
0.0474844
 10
119.884
 20
120.249
 10
119.969
 20
120.175
 42
-0.4528260000000001
 10
120.387
 20
116.306
 42
0.0269365
 10
119.904
 20
115.748
 42
0.0491615
  0
LWPOLYLINE
  5
499
330
22
100
AcDbEntity
  8
0
100
AcDbPolyline
 90
       85
 70
     1
 43
0.0
 10
94.1284
 20
118.364
 42
-0.764717
 10
91.61430000000001
 20
114.183
 42
-0.316021
 10
85.86
 20
120.637
 42
-0.0204922
 10
85.8101
 20
141.645
 10
85.82349999999999
 20
141.882
 42
-0.0739317
 10
85.89200000000001
 20
142.306
 42
-0.273372
 10
85.9572
 20
142.358
 42
-0.282914
 10
86.03140000000001
 20
142.325
 42
-0.0516479
 10
86.11310000000001
 20
142.164
 42
-0.0371269
 10
86.48609999999999
 20
140.748
 10
87.2305
 20
137.053
 42
-0.0304149
 10
87.3862
 20
135.931
 42
-0.0358877
 10
87.3914
 20
134.971
 42
0.0923566
 10
89.4702
 20
117.413
 42
0.132288
 10
90.20470000000001
 20
116.402
 42
0.097796
 10
90.44819999999999
 20
116.259
 10
90.50870000000001
 20
116.25
 42
0.323416
 10
90.5845
 20
116.301
 42
0.0970607
 10
90.5948
 20
116.354
 42
0.0510453
 10
90.5841
 20
116.457
 42
0.0552304
 10
90.39939999999999
 20
116.922
 10
89.3097
 20
119.075
 42
-0.0934954
 10
89.2138
 20
119.406
 42
-0.0178505
 10
89.10670000000001
 20
121.192
 42
0.0445424
 10
86.45789999999999
 20
142.574
 42
0.240566
 10
78.7359
 20
151.796
 42
0.0195771
 10
78.24699999999999
 20
151.978
 42
-0.0288505
 10
77.12229999999999
 20
152.372
 42
-0.0800213
 10
76.9601
 20
152.4779999999999
 42
-0.227118
 10
76.9341
 20
152.555
 42
-0.210225
 10
76.9787
 20
152.63
 42
-0.0805776
 10
77.2159
 20
152.727
 42
-0.0307324
 10
77.995
 20
152.868
 42
-0.127896
 10
86.4935
 20
151.792
 10
86.92339999999999
 20
151.64
 42
0.0801629
 10
87.5336
 20
151.537
 10
87.72530000000001
 20
151.572
 42
0.265769
 10
87.9105
 20
151.783
 10
87.91529999999999
 20
151.944
 42
0.0854922
 10
87.77799999999999
 20
152.344
 42
0.0769304
 10
87.07500000000001
 20
153.257
 42
0.124102
 10
85.86350000000001
 20
154.042
 42
0.122689
 10
85.4218
 20
154.066
 42
0.265888
 10
85.3363
 20
153.988
 42
0.23837
 10
85.35639999999999
 20
153.862
 42
0.0439806
 10
85.50690000000001
 20
153.699
 42
-0.028411
 10
85.9992
 20
153.233
 42
-0.0945956
 10
86.10559999999999
 20
153.063
 42
-0.280325
 10
86.07600000000001
 20
152.941
 42
-0.14805
 10
85.8765
 20
152.833
 42
-0.0538234
 10
85.1125
 20
152.816
 42
-0.0274199
 10
79.0436
 20
153.533
 42
0.0110115
 10
78.05199999999999
 20
153.699
 42
0.20519
 10
76.0256
 20
153.225
 42
-0.301983
 10
70.72969999999999
 20
153.208
 42
-0.218277
 10
70.58800000000001
 20
153.404
 42
-0.167661
 10
70.6463
 20
153.646
 42
-0.0774904
 10
71.0203
 20
154.061
 42
-0.0628195
 10
73.10179999999999
 20
155.29
 42
-0.0546504
 10
73.4496
 20
155.415
 42
-0.132061
 10
83.63290000000001
 20
154.523
 42
0.0881627
 10
84.82280000000001
 20
154.32
 42
0.104567
 10
85.0966
 20
154.369
 42
0.2602489999999999
 10
85.15080000000001
 20
154.446
 42
0.217296
 10
85.11610000000001
 20
154.55
 10
85.04009999999999
 20
154.617
 42
0.0604415
 10
84.3279
 20
154.972
 42
0.0296214
 10
79.1035
 20
156.692
 42
-0.0723051
 10
78.6922
 20
156.848
 42
-0.320487
 10
78.63679999999999
 20
156.987
 42
-0.213774
 10
78.7675
 20
157.155
 42
-0.0447548
 10
79.142
 20
157.301
 42
-0.0323517
 10
82.5702
 20
157.908
 42
-0.226509
 10
96.46720000000001
 20
153.391
 42
-0.0589278
 10
97.5774
 20
152.055
 42
-0.0723209
 10
98.17010000000001
 20
150.767
 10
103.287
 20
133.424
 10
96.83390000000001
 20
120.002
 42
-0.00618659
 10
96.29570000000001
 20
119.286
 42
-0.061643
 10
96.2095
 20
119.202
 42
-0.250255
 10
96.10129999999999
 20
119.182
 42
-0.0574208
 10
96.0152
 20
119.222
 42
0.0791888
 10
95.32239999999999
 20
119.518
 42
-0.327812
 10
92.01030000000001
 20
123.62
 42
0.0582016
 10
92.3089
 20
121.49
 42
0.105659
  0
LWPOLYLINE
  5
4F0
330
22
100
AcDbEntity
  8
0
100
AcDbPolyline
 90
       48
 70
     1
 43
0.0
 10
77.40179999999999
 20
124.032
 10
80.6901
 20
115.885
 10
69.95999999999999
 20
115.809
 42
0.293805
 10
60.00379999999999
 20
121.77
 42
-0.149851
 10
59.01959999999999
 20
122.029
 42
-0.514574
 10
58.98839999999999
 20
125.655
 42
0.500146
 10
58.992
 20
129.809
 42
-0.237532
 10
58.4466
 20
130.777
 42
-0.262182
 10
58.8764
 20
131.636
 42
-0.253013
 10
59.3254
 20
131.673
 42
-0.151961
 10
59.6366
 20
131.356
 10
60.73409999999999
 20
129.388
 42
0.0318351
 10
60.8789
 20
129.158
 42
0.0735967
 10
60.9904
 20
129.039
 10
61.0347
 20
129.015
 42
0.286687
 10
61.1028
 20
129.03
 42
0.0836184
 10
61.1242
 20
129.058
 42
0.0502745
 10
61.1463
 20
129.112
 42
0.0487042
 10
61.1688
 20
129.243
 42
0.0707192
 10
61.1043
 20
129.973
 42
-0.163388
 10
61.5114
 20
135.9
 42
-0.0152999
 10
61.9671
 20
136.8829999999999
 42
-0.0423786
 10
62.4741
 20
137.772
 42
-0.0703333
 10
59.3492
 20
133.713
 42
0.0707098
 10
59.3025
 20
133.433
 42
-0.0216151
 10
59.287
 20
133.104
 42
-0.0756234
 10
59.2632
 20
133.014
 42
-0.191664
 10
59.2151
 20
132.965
 42
-0.171895
 10
59.1328
 20
132.967
 42
-0.0690414
 10
59.0068
 20
133.03
 42
-0.0711642
 10
58.5175
 20
133.478
 42
-0.225285
 10
58.3624
 20
134.035
 42
-0.103639
 10
58.6047
 20
134.522
 42
0.0418794
 10
58.9132
 20
134.999
 42
0.354443
 10
57.9789
 20
138.764
 42
-0.122871
 10
57.6018
 20
139.181
 42
-0.219304
 10
57.59409999999999
 20
139.535
 42
-0.114023
 10
57.83979999999999
 20
139.841
 42
-0.0301705
 10
58.6267
 20
140.363
 10
64.0193
 20
143.886
 10
64.74509999999999
 20
150.476
 42
-0.5100350000000001
 10
68.29909999999999
 20
152.8
 42
-0.140003
 10
75.99099999999999
 20
149.294
 42
-0.094831
 10
76.749
 20
148.455
 42
-0.133899
 10
77.1509
 20
146.59
 42
-0.0924003
 10
75.80289999999999
 20
139.082
 42
-0.00903174
 10
75.53069999999999
 20
138.4
 10
74.3858
 20
135.712
 42
0.342426
  0
LWPOLYLINE
  5
522
330
22
100
AcDbEntity
  8
0
100
AcDbPolyline
 90
       35
 70
     1
 43
0.0
 10
48.80639999999999
 20
119.011
 10
41.97989999999999
 20
117.08
 10
40.3316
 20
121.232
 42
0.0256348
 10
39.5799
 20
122.875
 42
0.0509967
 10
39.07950000000001
 20
123.635
 42
-0.132951
 10
34.5582
 20
133.356
 42
-0.247559
 10
35.8474
 20
137.691
 42
-0.0553563
 10
36.2423
 20
138.007
 42
-0.126305
 10
36.5249
 20
138.107
 42
-0.285104
 10
36.7801
 20
137.949
 42
-0.0759454
 10
36.866
 20
137.705
 42
-0.0385786
 10
36.9267
 20
136.939
 42
0.0497119
 10
36.954
 20
136.597
 42
0.191297
 10
37.0013
 20
136.528
 42
0.321422
 10
37.054
 20
136.53
 42
0.0966432
 10
37.1767
 20
136.685
 42
0.0545841
 10
37.4551
 20
137.476
 42
-0.00833209
 10
38.0815
 20
140.243
 42
-0.9054639999999999
 10
41.6212
 20
139.522
 42
0.0501873
 10
41.66369999999999
 20
138.553
 42
0.0698774
 10
41.85899999999999
 20
137.762
 42
0.09689
 10
41.9524
 20
137.627
 42
0.180938
 10
42.0321
 20
137.597
 42
0.1729
 10
42.116
 20
137.626
 42
0.0982588
 10
42.2394
 20
137.796
 42
0.149797
 10
42.38539999999999
 20
138.736
 42
0.0122727
 10
42.21929999999999
 20
139.726
 42
-0.17212
 10
42.3953
 20
141.091
 42
-1.088529999999999
 10
45.3892
 20
139.101
 42
0.0934528
 10
45.68119999999999
 20
139.657
 42
0.00689869
 10
45.8488
 20
140.387
 42
-0.17935
 10
46.24139999999999
 20
140.992
 42
-0.0744568
 10
46.97619999999999
 20
141.352
 42
-0.27362
 10
48.5392
 20
141.071
 42
-0.17488
 10
49.2721
 20
139.542
 42
-0.0889766
  0
LWPOLYLINE
  5
547
330
22
100
AcDbEntity
  8
0
100
AcDbPolyline
 90
       22
 70
     1
 43
0.0
 10
201.034
 20
120.6
 42
-0.0485167
 10
200.885
 20
120.711
 10
200.746
 20
120.857
 42
-0.225916
 10
200.721
 20
121.09
 42
-0.172089
 10
200.91
 20
121.325
 42
-0.0373606
 10
201.344
 20
121.578
 42
-0.189497
 10
201.516
 20
121.594
 42
-0.134331
 10
201.72
 20
121.47
 42
0.055122
 10
202.75
 20
120.527
 42
0.138074
 10
203.272
 20
120.341
 42
0.0886359
 10
204.833
 20
120.452
 42
-0.0309892
 10
205.159
 20
120.547
 42
-0.207545
 10
205.338
 20
120.511
 42
-0.379371
 10
205.364
 20
120.404
 10
205.151
 20
120.123
 42
0.0236706
 10
204.46
 20
119.209
 10
204.355
 20
119.064
 42
-0.189177
 10
204.078
 20
118.956
 42
-0.189153
 10
203.263
 20
119.278
 10
203.091
 20
119.455
 42
0.0910202
 10
202.068
 20
120.193
 42
-0.00765038
 10
201.282
 20
120.47
 42
-0.0322569
  0
LWPOLYLINE
  5
55F
330
22
100
AcDbEntity
  8
0
100
AcDbPolyline
 90
      180
 70
     1
 43
0.0
 10
191.954
 20
139.082
 42
-0.158558
 10
204.83
 20
121.824
 42
-0.099248
 10
204.342
 20
121.103
 42
-0.202458
 10
203.837
 20
120.899
 42
-0.171721
 10
203.325
 20
121.136
 10
201.474
 20
122.746
 42
0.3316429999999999
 10
201.43
 20
122.749
 42
0.0951928
 10
201.329
 20
122.654
 42
0.0131303
 10
201.176
 20
122.416
 42
-0.0750699
 10
200.756
 20
121.871
 42
-0.202603
 10
200.388
 20
121.732
 42
-0.154242
 10
200.067
 20
121.888
 42
-0.138858
 10
197.795
 20
125.421
 42
0.266144
 10
197.301
 20
125.908
 42
0.104747
 10
196.571
 20
125.925
 42
0.0324269
 10
195.86
 20
125.744
 42
-0.151772
 10
195.996
 20
125.805
 42
-0.0976327
 10
196.1
 20
125.784
 42
-0.0602692
 10
196.248
 20
125.7
 42
-0.058024
 10
196.527
 20
125.423
 42
-0.0767346
 10
197.382
 20
123.889
 42
-0.0842732
 10
197.506
 20
123.366
 42
-0.288025
 10
197.424
 20
123.231
 42
-0.250911
 10
197.246
 20
123.236
 10
197.085
 20
123.35
 10
192.916
 20
127.281
 42
-0.046697
 10
192.334
 20
128.832
 10
182.164
 20
139.828
 42
0.0618641
 10
181.479
 20
140.418
 42
0.0890292
 10
181.267
 20
140.507
 10
181.193
 20
140.508
 42
0.270687
 10
181.105
 20
140.432
 42
0.125008
 10
181.095
 20
140.268
 42
0.0556171
 10
181.16
 20
140.034
 42
0.0914168
 10
181.927
 20
138.905
 10
189.023
 20
131.214
 42
-0.161489
 10
191.946
 20
124.706
 10
191.978
 20
124.335
 42
-0.127977
 10
191.867
 20
123.57
 42
-0.247983
 10
191.344
 20
123.167
 42
-0.0621631
 10
190.783
 20
123.139
 42
0.036856
 10
189.777
 20
123.188
 42
0.192699
 10
189.136
 20
122.925
 42
0.249454
 10
189.107
 20
122.816
 42
0.293749
 10
189.177
 20
122.747
 10
189.395
 20
122.734
 42
0.0250258
 10
190.265
 20
122.805
 42
-0.0552558
 10
191.347
 20
122.827
 42
-0.0868341
 10
191.578
 20
122.755
 42
-0.148251
 10
191.702
 20
122.624
 42
-0.202461
 10
191.72
 20
122.173
 42
-0.393638
 10
190.214
 20
121.456
 42
-0.0982736
 10
186.685
 20
123.219
 42
-0.0406357
 10
186.314
 20
123.541
 42
-0.357442
 10
186.309
 20
123.65
 42
-0.275318
 10
186.433
 20
123.701
 42
-0.0272809
 10
186.79
 20
123.621
 42
0.0351922
 10
188.465
 20
123.2
 42
0.0911026
 10
188.791
 20
123.209
 42
0.231222
 10
188.901
 20
123.308
 42
0.187472
 10
188.903
 20
123.486
 42
0.171052
 10
188.314
 20
124.155
 42
0.0583958
 10
187.97
 20
124.326
 42
0.0178049
 10
186.59
 20
124.755
 42
-0.113695
 10
185.597
 20
125.265
 42
-0.145513
 10
183.349
 20
129.263
 42
0.332313
 10
183.321
 20
129.286
 42
0.136244
 10
183.243
 20
129.27
 42
0.034675
 10
183.0959999999999
 20
129.175
 42
-0.0200926
 10
182.42
 20
128.688
 42
-0.120125
 10
181.753
 20
128.426
 42
-0.230213
 10
181.279
 20
128.594
 42
0.0693757
 10
180.064
 20
129.415
 42
-0.0805482
 10
178.926
 20
130.206
 10
169.837
 20
140.227
 10
169.612
 20
140.466
 42
0.0719697
 10
169.142
 20
140.866
 42
0.197561
 10
168.989
 20
140.885
 42
0.324371
 10
168.926
 20
140.807
 42
0.0790597
 10
168.96
 20
140.598
 42
0.114301
 10
169.9429999999999
 20
139.052
 42
-0.119942
 10
173.0679999999999
 20
134.506
 42
-0.0867608
 10
173.252
 20
133.625
 42
-0.11865
 10
173.203
 20
133.352
 42
-0.175984
 10
173.11
 20
133.256
 42
-0.175036
 10
172.961
 20
133.25
 42
-0.0844851
 10
172.75
 20
133.356
 42
-0.0630414
 10
172.113
 20
133.98
 42
0.300961
 10
167.532
 20
135.318
 10
160.034
 20
140.806
 42
0.9715809999999999
 10
159.563
 20
140.2
 10
165.23
 20
135.658
 42
-1.433559999999999
 10
162.977
 20
134.444
 42
-0.356211
 10
158.118
 20
136.239
 42
0.0245854
 10
158.09
 20
136.047
 42
0.242091
 10
158.508
 20
134.946
 10
160.552
 20
133.3239999999999
 42
-0.120745
 10
160.873
 20
132.869
 42
-0.135096
 10
161.0
 20
132.062
 42
-0.114322
 10
160.93
 20
131.883
 42
-0.311815
 10
160.704
 20
131.808
 42
-0.102561
 10
160.465
 20
131.93
 42
-0.0588497
 10
159.965
 20
132.451
 42
0.0164879
 10
155.96
 20
137.224
 42
-0.140428
 10
150.098
 20
144.359
 10
149.675
 20
145.271
 42
-0.0621383
 10
149.638
 20
145.394
 42
-0.254572
 10
149.662
 20
145.453
 42
-0.199308
 10
149.737
 20
145.476
 42
-0.0483406
 10
149.892
 20
145.44
 42
-0.0135005
 10
150.66
 20
145.146
 42
0.267068
 10
155.092
 20
145.779
 10
155.215
 20
145.857
 42
-0.2852489999999999
 10
155.652
 20
145.8239999999999
 42
-0.0592623
 10
155.853
 20
145.651
 10
156.487
 20
144.876
 42
0.143133
 10
157.183
 20
144.387
 42
0.090534
 10
157.711
 20
144.358
 42
0.0558379
 10
158.039
 20
144.406
 42
0.180092
 10
158.11
 20
144.46
 42
0.301596
 10
158.109
 20
144.516
 10
158.074
 20
144.556
 42
0.030965
 10
157.958
 20
144.65
 42
-0.0745299
 10
157.055
 20
145.441
 10
152.43
 20
151.348
 10
152.193
 20
151.654
 42
-0.0580357
 10
152.027
 20
151.899
 42
-0.242981
 10
152.031
 20
151.956
 42
-0.212782
 10
152.083
 20
151.993
 10
152.133
 20
152.001
 42
0.187927
 10
152.588
 20
152.236
 42
0.115136
 10
152.897
 20
152.861
 42
-0.0208941
 10
153.13
 20
153.548
 42
0.0660063
 10
153.347
 20
154.281
 42
0.288697
 10
152.952
 20
155.044
 42
0.179081
 10
152.797
 20
155.083
 42
0.278658
 10
152.711
 20
155.018
 10
152.689
 20
154.933
 42
0.0369623
 10
152.673
 20
154.549
 42
-0.0679757
 10
152.609
 20
153.352
 42
-0.183189
 10
152.2949999999999
 20
152.848
 42
-0.21242
 10
151.158
 20
152.653
 42
-0.0656812
 10
149.963
 20
153.13
 42
0.0573641
 10
148.621
 20
153.725
 42
0.07044
 10
148.308
 20
153.768
 42
0.244487
 10
148.186
 20
153.694
 42
0.221774
 10
148.168
 20
153.54
 42
0.0645234
 10
148.291
 20
153.309
 42
0.068894
 10
149.464
 20
152.142
 42
0.0729561
 10
150.226
 20
151.669
 42
-0.197657
 10
153.894
 20
148.294
 42
-0.0688257
 10
154.274
 20
147.245
 42
-0.191533
 10
154.154
 20
146.605
 42
-0.154819
 10
153.441
 20
146.109
 42
-0.305137
 10
148.104
 20
147.326
 42
0.0634854
 10
147.626
 20
147.701
 42
0.0882026
 10
147.129
 20
147.916
 42
0.107085
 10
146.989
 20
147.917
 42
0.245742
 10
146.91
 20
147.852
 10
146.9
 20
147.792
 42
0.0975942
 10
146.948
 20
147.608
 42
0.0491887
 10
147.227
 20
147.152
 10
150.71
 20
142.399
 10
140.224
 20
149.592
 10
141.321
 20
159.646
 42
0.0689624
 10
141.328
 20
160.72
 42
0.10067
 10
141.238
 20
160.972
 42
0.0962376
 10
141.172
 20
161.036
 42
0.125361
 10
141.105
 20
161.06
 42
0.178618
 10
140.946
 20
161.004
 42
0.076819
 10
140.775
 20
160.827
 42
0.130301
 10
140.284
 20
159.293
 10
139.631
 20
149.935
 10
131.45
 20
152.933
 42
-0.520349
 10
145.648
 20
165.609
 42
-0.0423263
 10
166.573
 20
158.777
 42
-0.0184342
 10
167.977
 20
158.12
 42
-0.0178547
 10
169.374
 20
157.339
 42
-0.0613603
 10
189.876
 20
141.149
 10
191.853
 20
139.166
 42
0.0419698
  0
LWPOLYLINE
  5
615
330
22
100
AcDbEntity
  8
0
100
AcDbPolyline
 90
       20
 70
     1
 43
0.0
 10
150.784
 20
126.842
 42
-0.7032270000000001
 10
145.22
 20
125.328
 42
-0.4229340000000001
 10
133.956
 20
129.341
 42
-0.0379697
 10
133.748
 20
129.868
 42
-0.0774925
 10
133.717
 20
130.048
 42
-0.331322
 10
133.757
 20
130.096
 42
-0.202318
 10
133.851
 20
130.081
 42
-0.0455439
 10
133.989
 20
129.97
 42
-0.0552337
 10
134.766
 20
128.986
 42
0.248147
 10
141.28
 20
124.961
 42
0.564685
 10
142.746
 20
127.31
 42
-0.0231235
 10
143.01
 20
127.116
 42
-0.0147941
 10
143.4
 20
126.737
 42
-0.0465291
 10
144.191
 20
125.827
 42
0.683284
 10
149.82
 20
126.868
 42
-0.114159
 10
150.159
 20
127.718
 42
-0.13287
 10
150.371
 20
127.897
 42
-0.251019
 10
150.569
 20
127.89
 42
-0.129244
 10
150.677
 20
127.775
 42
-0.0745028
 10
150.755
 20
127.565
 42
-0.0745572
  0
LWPOLYLINE
  5
62B
330
22
100
AcDbEntity
  8
0
100
AcDbPolyline
 90
       25
 70
     1
 43
0.0
 10
94.8657
 20
143.353
 42
0.106545
 10
96.13280000000001
 20
127.176
 10
96.19370000000001
 20
126.953
 42
-0.0900969
 10
96.2593
 20
126.329
 42
-0.119704
 10
96.2034
 20
126.17
 42
-0.207134
 10
96.10240000000001
 20
126.105
 42
-0.146093
 10
95.9669
 20
126.131
 42
-0.0899075
 10
95.72180000000001
 20
126.324
 42
-0.0908725
 10
95.2111
 20
127.209
 42
-0.116293
 10
94.30159999999998
 20
133.898
 42
0.0574651
 10
94.2661
 20
135.831
 42
-0.0367109
 10
94.19220000000001
 20
137.065
 42
0.102842
 10
92.4885
 20
145.859
 42
-0.052163
 10
92.2255
 20
146.639
 42
-0.0958584
 10
92.2108
 20
146.92
 42
-0.245284
 10
92.29559999999999
 20
147.024
 42
-0.181402
 10
92.47200000000001
 20
147.032
 42
-0.0570994
 10
92.7059
 20
146.918
 42
-0.0478284
 10
93.9583
 20
145.842
 42
-0.162185
 10
98.868
 20
136.006
 42
-0.0314693
 10
98.97960000000001
 20
133.397
 42
-0.0485945
 10
98.95610000000001
 20
133.209
 42
-0.558526
 10
98.93120000000001
 20
133.202
 42
-0.133926
 10
98.88750000000001
 20
133.273
 42
-0.0248035
 10
98.81619999999999
 20
133.611
 42
0.106769
  0
LWPOLYLINE
  5
646
330
22
100
AcDbEntity
  8
0
100
AcDbPolyline
 90
        7
 70
     1
 43
0.0
 10
182.28
 20
127.244
 42
-0.5746319999999999
 10
182.462
 20
127.561
 10
182.769
 20
127.448
 42
-0.247803
 10
183.497
 20
126.269
 42
-0.216726
 10
183.469
 20
126.122
 42
-0.438856
 10
183.386
 20
126.111
 10
182.408
 20
127.097
  0
LWPOLYLINE
  5
64F
330
22
100
AcDbEntity
  8
0
100
AcDbPolyline
 90
       16
 70
     1
 43
0.0
 10
140.206
 20
143.141
 42
-0.0916582
 10
156.332
 20
129.154
 42
-0.19396
 10
156.366
 20
129.039
 42
-0.375971
 10
156.317
 20
128.993
 42
-0.0705634
 10
156.142
 20
129.02
 42
-0.0623101
 10
155.099
 20
129.513
 42
-0.088218
 10
154.301
 20
130.18
 42
-0.0211567
 10
154.161
 20
130.412
 42
0.0617574
 10
153.316
 20
131.359
 42
-0.0530632
 10
152.02
 20
132.712
 42
0.17619
 10
137.653
 20
142.996
 42
-0.0669834
 10
136.799
 20
143.309
 42
-0.262112
 10
136.715
 20
143.454
 42
-0.325369
 10
136.796
 20
143.569
 42
-0.0550455
 10
137.146
 20
143.631
 42
-0.0562798
 10
138.878
 20
143.54
 42
-0.0903899
  0
LWPOLYLINE
  5
661
330
22
100
AcDbEntity
  8
0
100
AcDbPolyline
 90
       35
 70
     1
 43
0.0
 10
5.07584
 20
135.282
 42
-0.286566
 10
4.045259999999999
 20
130.197
 42
-0.279766
 10
7.52808
 20
158.266
 42
-0.17624
 10
11.4175
 20
160.765
 10
11.6618
 20
160.801
 42
-0.12327
 10
12.1861
 20
160.758
 42
-0.139568
 10
12.3774
 20
160.622
 42
-0.181298
 10
12.4578
 20
160.294
 42
-0.0833461
 10
12.3272
 20
159.861
 42
-0.100388
 10
11.2626
 20
158.565
 42
0.175017
 10
8.61322
 20
153.977
 42
0.0114689
 10
8.530939999999999
 20
153.46
 42
0.0577036
 10
8.503659999999999
 20
153.033
 42
0.258293
 10
8.54691
 20
152.97
 42
0.338624
 10
8.606749999999999
 20
152.982
 42
0.0476451
 10
8.7009
 20
153.121
 42
0.0245673
 10
9.240809999999999
 20
154.32
 42
-0.1399
 10
12.7086
 20
158.709
 42
0.181863
 10
34.5081
 20
140.509
 10
34.7583
 20
140.409
 42
-0.102606
 10
35.05
 20
140.216
 42
-0.170749
 10
35.10390000000001
 20
140.079
 42
-0.160401
 10
35.0603
 20
139.929
 42
-0.0782089
 10
34.8554
 20
139.731
 42
-0.0224526
 10
34.1633
 20
139.297
 42
0.0825083
 10
33.2858
 20
138.626
 42
0.164062
 10
33.0536
 20
138.123
 10
32.806
 20
135.205
 42
0.219479
 10
6.434909999999999
 20
132.802
 42
-0.133531
 10
5.75565
 20
138.839
 42
0.0302151
 10
5.789119999999999
 20
139.185
 42
0.116628
 10
5.69739
 20
139.789
 42
0.136575
 10
5.560459999999999
 20
139.97
 42
0.340871
 10
5.278839999999999
 20
139.964
 42
0.137705
 10
5.07458
 20
139.676
 42
0.166147
  0
LWPOLYLINE
  5
686
330
22
100
AcDbEntity
  8
0
100
AcDbPolyline
 90
       18
 70
     1
 43
0.0
 10
53.3153
 20
134.392
 42
-0.319341
 10
58.1111
 20
131.827
 42
0.0830486
 10
58.0523
 20
131.803
 42
0.0261235
 10
57.9249
 20
131.672
 42
-0.0653731
 10
56.8393
 20
130.627
 42
-0.115337
 10
56.4234
 20
130.457
 42
-0.2929489999999999
 10
55.9442
 20
130.676
 42
0.160218
 10
54.9451
 20
131.385
 42
0.0918381
 10
53.0918
 20
131.515
 42
-0.0945864
 10
52.6949
 20
131.564
 42
-0.180624
 10
51.9855
 20
132.196
 42
-0.112129
 10
51.5493
 20
133.85
 42
-0.0843007
 10
51.6071
 20
134.63
 42
-0.175929
 10
51.64139999999999
 20
134.675
 42
-0.103623
 10
51.7292
 20
134.708
 42
-0.0627866
 10
51.9794
 20
134.702
 42
-0.0304743
 10
52.8779
 20
134.487
 42
0.0377446
 10
53.27729999999999
 20
134.392
  0
LWPOLYLINE
  5
69A
330
22
100
AcDbEntity
  8
0
100
AcDbPolyline
 90
       13
 70
     1
 43
0.0
 10
165.187
 20
132.835
 42
-0.140456
 10
165.196
 20
132.66
 42
-0.184515
 10
165.104
 20
132.489
 42
-0.124505
 10
164.852
 20
132.362
 42
-0.0449908
 10
163.664
 20
132.301
 42
-0.12956
 10
162.84
 20
132.435
 10
162.689
 20
132.55
 42
-0.0865255
 10
162.561
 20
132.809
 42
-0.0950106
 10
162.535
 20
133.071
 42
-0.28458
 10
162.646
 20
133.254
 10
162.753
 20
133.256
 42
0.0861869
 10
164.787
 20
132.962
 42
-0.0833968
 10
165.106
 20
132.921
 42
-0.213769
  0
LWPOLYLINE
  5
6A9
330
22
100
AcDbEntity
  8
0
100
AcDbPolyline
 90
        9
 70
     1
 43
0.0
 10
175.052
 20
132.651
 10
175.079
 20
132.531
 42
-0.396159
 10
174.801
 20
132.232
 42
-0.179946
 10
172.543
 20
132.755
 42
-0.168028
 10
172.509
 20
132.819
 42
-0.266367
 10
172.525
 20
132.864
 10
172.787
 20
132.9479999999999
 42
-0.0547156
 10
174.394
 20
132.969
 42
-0.120471
 10
174.864
 20
132.869
 42
-0.25524
  0
LWPOLYLINE
  5
6B4
330
22
100
AcDbEntity
  8
0
100
AcDbPolyline
 90
       80
 70
     1
 43
0.0
 10
102.572
 20
146.204
 42
-0.1045
 10
104.499
 20
135.865
 10
104.48
 20
135.583
 42
-0.0996347
 10
104.381
 20
135.228
 42
-0.23785
 10
104.23
 20
135.132
 42
-0.17736
 10
104.002
 20
135.19
 42
-0.0586552
 10
103.76
 20
135.415
 42
-0.0617224
 10
102.863
 20
136.855
 42
-0.0483742
 10
102.723
 20
137.205
 10
99.4677
 20
150.572
 10
99.4443
 20
150.692
 42
-0.286117
 10
99.46840000000001
 20
150.743
 42
-0.341642
 10
99.51680000000001
 20
150.739
 42
-0.0379488
 10
99.6657
 20
150.564
 42
0.040636
 10
100.909
 20
149.007
 42
0.0933185
 10
101.378
 20
148.671
 42
0.143776
 10
101.664
 20
148.626
 10
101.726
 20
148.646
 42
0.190184
 10
101.799
 20
148.731
 42
0.107896
 10
101.813
 20
148.866
 42
0.0616567
 10
101.745
 20
149.137
 42
0.0564276
 10
101.081
 20
150.3
 42
0.294565
 10
81.32389999999999
 20
158.129
 42
0.0186691
 10
71.2513
 20
155.772
 42
-0.0512626
 10
70.1058
 20
155.525
 42
-0.114587
 10
69.78570000000001
 20
155.566
 42
-0.249499
 10
69.618
 20
155.751
 42
-0.113949
 10
69.62019999999999
 20
155.977
 42
-0.085867
 10
69.9778
 20
156.738
 42
-0.187236
 10
74.7029
 20
160.229
 42
0.047195
 10
75.4143
 20
160.483
 42
0.0944956
 10
75.80840000000001
 20
160.746
 42
0.133182
 10
75.90659999999999
 20
160.909
 42
0.211674
 10
75.88169999999999
 20
161.051
 42
0.136969
 10
75.7406
 20
161.163
 42
0.0702366
 10
75.49039999999999
 20
161.234
 42
0.0966528
 10
74.1573
 20
161.107
 42
0.168063
 10
69.3672
 20
157.946
 42
0.0237927
 10
68.4131
 20
156.571
 42
0.041852
 10
67.977
 20
155.725
 42
-1.29897
 10
65.2671
 20
157.653
 42
-0.0710472
 10
70.4016
 20
161.516
 10
70.6707
 20
161.665
 42
0.186526
 10
70.774
 20
161.804
 42
0.4447510000000001
 10
70.72849999999999
 20
161.875
 10
70.3049
 20
161.875
 42
0.0104295
 10
68.5771
 20
161.696
 42
-0.0595346
 10
67.7324
 20
161.684
 42
-0.376273
 10
67.6118
 20
161.828
 42
-0.227696
 10
67.7409
 20
162.083
 42
-0.0387308
 10
68.52419999999999
 20
162.557
 42
-0.227602
 10
79.66899999999999
 20
163.003
 42
-0.0294958
 10
80.3748
 20
162.682
 42
-0.101175
 10
80.64770000000001
 20
162.46
 42
-0.265768
 10
80.6906
 20
162.192
 42
-0.0929091
 10
80.592
 20
162.035
 42
-0.0649752
 10
80.2561
 20
161.765
 10
78.36750000000001
 20
160.572
 42
0.0447005
 10
77.9966
 20
160.301
 42
0.201165
 10
77.9238
 20
160.139
 42
0.354665
 10
77.9906
 20
160.052
 10
78.1041
 20
160.038
 42
0.0362287
 10
78.423
 20
160.052
 42
0.0286375
 10
80.17149999999999
 20
160.402
 42
-0.266052
 10
103.1
 20
152.544
 42
-0.275832
 10
104.005
 20
147.604
 10
103.885
 20
147.298
 42
-0.0857085
 10
103.592
 20
146.759
 10
103.512
 20
146.689
 42
-0.284872
 10
103.367
 20
146.683
 42
-0.0791092
 10
103.312
 20
146.726
 42
-0.0444439
 10
103.235
 20
146.822
 42
-0.0311417
 10
103.102
 20
147.065
 42
0.0548345
 10
102.578
 20
148.011
 42
0.154501
 10
102.044
 20
148.401
 10
101.949
 20
148.413
 42
0.286121
 10
101.837
 20
148.341
 42
0.0834521
 10
101.817
 20
148.276
 42
0.0495603
 10
101.813
 20
148.163
 42
0.0528005
 10
101.903
 20
147.759
 42
0.0228735
  0
LWPOLYLINE
  5
706
330
22
100
AcDbEntity
  8
0
100
AcDbPolyline
 90
       21
 70
     1
 43
0.0
 10
68.7611
 20
145.69
 42
0.2721929999999999
 10
70.5497
 20
141.72
 10
70.6399
 20
141.648
 42
-0.129628
 10
70.7301
 20
141.52
 42
-0.217569
 10
70.7178
 20
141.413
 42
-0.121946
 10
70.62479999999999
 20
141.326
 42
-0.0538223
 10
70.4725
 20
141.258
 42
-0.0646942
 10
69.7046
 20
141.136
 42
-0.0460178
 10
69.54430000000001
 20
141.139
 10
65.1965
 20
141.84
 42
-0.143904
 10
67.0566
 20
148.249
 42
-0.0460878
 10
67.2897
 20
148.559
 42
-0.0992261
 10
67.4849
 20
148.708
 42
-0.176754
 10
67.65080000000001
 20
148.724
 42
-0.128954
 10
67.79609999999999
 20
148.633
 42
-0.0547313
 10
67.92919999999999
 20
148.461
 42
-0.00481467
 10
68.265
 20
147.853
 42
0.121613
 10
68.7119
 20
147.322
 42
-0.117224
 10
68.9533
 20
147.081
 42
-0.192729
 10
69.0179
 20
146.402
 42
-0.0392248
 10
68.78449999999999
 20
145.77
 42
0.0580898
  0
LWPOLYLINE
  5
71D
330
22
100
AcDbEntity
  8
0
100
AcDbPolyline
 90
       28
 70
     1
 43
0.0
 10
171.699
 20
144.049
 42
-0.281113
 10
165.568
 20
142.225
 10
158.841
 20
143.966
 42
-0.0219996
 10
158.5
 20
144.051
 42
-0.0642514
 10
158.324
 20
144.123
 42
-0.360669
 10
158.308
 20
144.175
 42
-0.21607
 10
158.37
 20
144.232
 42
-0.0391547
 10
158.541
 20
144.271
 42
-0.0382203
 10
159.891
 20
144.334
 10
159.968
 20
144.343
 42
0.21827
 10
160.118
 20
144.482
 42
0.0645003
 10
160.166
 20
144.647
 42
0.0350304
 10
160.197
 20
145.063
 42
-0.063282
 10
160.244
 20
145.556
 42
-0.104978
 10
160.308
 20
145.685
 42
-0.26544
 10
160.491
 20
145.746
 42
-0.176758
 10
160.947
 20
145.484
 42
-0.0481893
 10
161.374
 20
144.846
 42
0.0754104
 10
161.822
 20
144.219
 42
0.288051
 10
162.663
 20
144.026
 42
-0.132981
 10
164.234
 20
144.146
 42
-0.0794066
 10
165.667
 20
143.444
 42
0.418572
 10
171.958
 20
144.975
 10
172.072
 20
145.16
 42
-0.0584016
 10
172.299
 20
145.469
 42
-0.339093
 10
172.349
 20
145.475
 42
-0.302158
 10
172.374
 20
145.424
 42
-0.0425792
 10
172.298
 20
145.157
 42
-0.0758963
  0
LWPOLYLINE
  5
73B
330
22
100
AcDbEntity
  8
0
100
AcDbPolyline
 90
       10
 70
     1
 43
0.0
 10
67.41859999999999
 20
147.037
 42
-0.0282423
 10
67.80419999999999
 20
147.073
 10
68.0116
 20
147.067
 42
-0.253208
 10
68.2389
 20
146.851
 10
68.2656
 20
146.642
 42
0.0293387
 10
68.2957
 20
146.232
 42
-0.079917
 10
68.2753
 20
146.01
 42
-0.118646
 10
68.2045
 20
145.876
 10
67.8758
 20
145.772
 42
-0.217296
 10
67.2203
 20
146.077
 42
-0.615833
  0
LWPOLYLINE
  5
747
330
22
100
AcDbEntity
  8
0
100
AcDbPolyline
 90
        7
 70
     1
 43
0.0
 10
77.97969999999999
 20
151.247
 42
-0.192427
 10
83.35410000000001
 20
147.4779999999999
 10
77.6598
 20
149.951
 42
-0.146124
 10
76.7727
 20
150.65
 42
-0.13491
 10
76.6605
 20
150.96
 42
-0.31274
 10
76.8412
 20
151.263
 42
-0.0905492
 10
77.09520000000001
 20
151.335
 42
-0.0850013
  0
LWPOLYLINE
  5
750
330
22
100
AcDbEntity
  8
0
100
AcDbPolyline
 90
       11
 70
     1
 43
0.0
 10
162.748
 20
151.062
 42
0.215688
 10
171.771
 20
148.6
 42
0.0473093
 10
171.079
 20
148.391
 42
0.0154039
 10
170.598
 20
148.199
 42
-0.10277
 10
168.314
 20
147.65
 42
-0.255973
 10
161.61
 20
151.556
 10
161.484
 20
151.772
 42
-0.0722671
 10
161.302
 20
152.164
 42
-0.365309
 10
161.331
 20
152.22
 42
-0.232679
 10
161.422
 20
152.214
 42
-0.0349946
 10
161.593
 20
152.094
 42
-0.00490787
  0
ENDSEC
  0
SECTION
  2
OBJECTS
  0
DICTIONARY
  5
C
330
0
100
AcDbDictionary
281
     1
  3
ACAD_COLOR
350
1B
  3
ACAD_GROUP
350
D
  3
ACAD_LAYOUT
350
19
  3
ACAD_MATERIAL
350
1A
  3
ACAD_MLINESTYLE
350
16
  3
ACAD_PLOTSETTINGS
350
18
  3
ACAD_PLOTSTYLENAME
350
E
  3
ACAD_TABLESTYLE
350
1C
  3
AcDbVariableDictionary
350
767
  0
DICTIONARY
  5
1B
102
{ACAD_REACTORS
330
C
102
}
330
C
100
AcDbDictionary
281
     1
  0
DICTIONARY
  5
D
102
{ACAD_REACTORS
330
C
102
}
330
C
100
AcDbDictionary
281
     1
  0
DICTIONARY
  5
19
102
{ACAD_REACTORS
330
C
102
}
330
C
100
AcDbDictionary
281
     1
  3
Layout1
350
21
  3
Model
350
25
  0
DICTIONARY
  5
1A
102
{ACAD_REACTORS
330
C
102
}
330
C
100
AcDbDictionary
281
     1
  0
DICTIONARY
  5
16
102
{ACAD_REACTORS
330
C
102
}
330
C
100
AcDbDictionary
281
     1
  3
Standard
350
17
  0
DICTIONARY
  5
18
102
{ACAD_REACTORS
330
C
102
}
330
C
100
AcDbDictionary
281
     1
  0
ACDBDICTIONARYWDFLT
  5
E
102
{ACAD_REACTORS
330
C
102
}
330
C
100
AcDbDictionary
281
     1
  3
Normal
350
F
100
AcDbDictionaryWithDefault
340
F
  0
DICTIONARY
  5
1C
102
{ACAD_REACTORS
330
C
102
}
330
C
100
AcDbDictionary
281
     1
  3
Standard
350
1D
  0
DICTIONARY
  5
767
102
{ACAD_REACTORS
330
C
102
}
330
C
100
AcDbDictionary
281
     1
  3
CTABLESTYLE
350
768
  0
LAYOUT
  5
21
102
{ACAD_REACTORS
330
19
102
}
330
19
100
AcDbPlotSettings
  1

  2
Samsung ML-2010 Series
  4

  6

 40
0.0
 41
0.0
 42
0.0
 43
0.0
 44
0.0
 45
0.0
 46
0.0
 47
0.0
 48
0.0
 49
0.0
140
0.0
141
0.0
142
1.0
143
1.0
 70
   688
 72
     0
 73
     0
 74
     5
  7
Samsung ML-2010 Series
 75
    16
147
1.0
 76
     0
 77
     2
 78
   300
148
0.0
149
0.0
100
AcDbLayout
  1
Layout1
 70
     1
 71
     1
 10
0.0
 20
0.0
 11
12.0
 21
9.0
 12
0.0
 22
0.0
 32
0.0
 14
1.000000000000000E+20
 24
1.000000000000000E+20
 34
1.000000000000000E+20
 15
-1.000000000000000E+20
 25
-1.000000000000000E+20
 35
-1.000000000000000E+20
146
0.0
 13
0.0
 23
0.0
 33
0.0
 16
1.0
 26
0.0
 36
0.0
 17
0.0
 27
1.0
 37
0.0
 76
     0
330
1E
  0
LAYOUT
  5
25
102
{ACAD_REACTORS
330
19
102
}
330
19
100
AcDbPlotSettings
  1

  2
Samsung ML-2010 Series
  4

  6

 40
0.0
 41
0.0
 42
0.0
 43
0.0
 44
0.0
 45
0.0
 46
0.0
 47
0.0
 48
0.0
 49
0.0
140
0.0
141
0.0
142
1.0
143
1.0
 70
  1712
 72
     0
 73
     0
 74
     0
  7
Samsung ML-2010 Series
 75
     0
147
1.0
 76
     0
 77
     2
 78
   300
148
0.0
149
0.0
100
AcDbLayout
  1
Model
 70
     1
 71
     0
 10
0.0
 20
0.0
 11
12.0
 21
9.0
 12
0.0
 22
0.0
 32
0.0
 14
0.0
 24
0.0
 34
0.0
 15
0.0
 25
0.0
 35
0.0
146
0.0
 13
0.0
 23
0.0
 33
0.0
 16
1.0
 26
0.0
 36
0.0
 17
0.0
 27
1.0
 37
0.0
 76
     0
330
22
  0
MLINESTYLE
  5
17
102
{ACAD_REACTORS
330
16
102
}
330
16
100
AcDbMlineStyle
  2
STANDARD
 70
     0
  3

 62
   256
 51
90.0
 52
90.0
 71
     2
 49
0.5
 62
   256
  6
BYLAYER
 49
-0.5
 62
   256
  6
BYLAYER
  0
ACDBPLACEHOLDER
  5
F
102
{ACAD_REACTORS
330
E
102
}
330
E
  0
TABLESTYLE
  5
1D
102
{ACAD_REACTORS
330
1C
102
}
330
1C
100
AcDbTableStyle
  3
Standard
 70
     0
 71
     0
 40
0.06
 41
0.06
280
     0
281
     0
  7
Standard
140
0.18
170
     2
 62
     0
 63
     7
283
     0
274
    -2
284
     1
 64
     0
275
    -2
285
     1
 65
     0
276
    -2
286
     1
 66
     0
277
    -2
287
     1
 67
     0
278
    -2
288
     1
 68
     0
279
    -2
289
     1
 69
     0
  7
Standard
140
0.25
170
     5
 62
     0
 63
     7
283
     0
274
    -2
284
     1
 64
     0
275
    -2
285
     1
 65
     0
276
    -2
286
     1
 66
     0
277
    -2
287
     1
 67
     0
278
    -2
288
     1
 68
     0
279
    -2
289
     1
 69
     0
  7
Standard
140
0.18
170
     5
 62
     0
 63
     7
283
     0
274
    -2
284
     1
 64
     0
275
    -2
285
     1
 65
     0
276
    -2
286
     1
 66
     0
277
    -2
287
     1
 67
     0
278
    -2
288
     1
 68
     0
279
    -2
289
     1
 69
     0
  0
DICTIONARYVAR
  5
768
102
{ACAD_REACTORS
330
767
102
}
330
767
100
DictionaryVariables
280
     0
  1
STANDARD
  0
ENDSEC
  0
EOF
