  0
SECTION
  2
HEADER
  9
$ACADVER
  1
AC1018
  9
$ACADMAINTVER
 70
    76
  9
$DWGCODEPAGE
  3
ANSI_1252
  9
$INSBASE
 10
0.0
 20
0.0
 30
0.0
  9
$EXTMIN
 10
0.0637284781670236
 20
0.0001220699999323
 30
0.0
  9
$EXTMAX
 10
1060.9
 20
1559.74
 30
0.0
  9
$LIMMIN
 10
0.0
 20
0.0
  9
$LIMMAX
 10
12.0
 20
9.0
  9
$ORTHOMODE
 70
     0
  9
$REGENMODE
 70
     1
  9
$FILLMODE
 70
     1
  9
$QTEXTMODE
 70
     0
  9
$MIRRTEXT
 70
     0
  9
$LTSCALE
 40
1.0
  9
$ATTMODE
 70
     1
  9
$TEXTSIZE
 40
0.2
  9
$TRACEWID
 40
0.05
  9
$TEXTSTYLE
  7
Standard
  9
$CLAYER
  8
0
  9
$CELTYPE
  6
ByLayer
  9
$CECOLOR
 62
   256
  9
$CELTSCALE
 40
1.0
  9
$DISPSILH
 70
     0
  9
$DIMSCALE
 40
1.0
  9
$DIMASZ
 40
0.18
  9
$DIMEXO
 40
0.0625
  9
$DIMDLI
 40
0.38
  9
$DIMRND
 40
0.0
  9
$DIMDLE
 40
0.0
  9
$DIMEXE
 40
0.18
  9
$DIMTP
 40
0.0
  9
$DIMTM
 40
0.0
  9
$DIMTXT
 40
0.18
  9
$DIMCEN
 40
0.09
  9
$DIMTSZ
 40
0.0
  9
$DIMTOL
 70
     0
  9
$DIMLIM
 70
     0
  9
$DIMTIH
 70
     1
  9
$DIMTOH
 70
     1
  9
$DIMSE1
 70
     0
  9
$DIMSE2
 70
     0
  9
$DIMTAD
 70
     0
  9
$DIMZIN
 70
     0
  9
$DIMBLK
  1

  9
$DIMASO
 70
     1
  9
$DIMSHO
 70
     1
  9
$DIMPOST
  1

  9
$DIMAPOST
  1

  9
$DIMALT
 70
     0
  9
$DIMALTD
 70
     2
  9
$DIMALTF
 40
25.4
  9
$DIMLFAC
 40
1.0
  9
$DIMTOFL
 70
     0
  9
$DIMTVP
 40
0.0
  9
$DIMTIX
 70
     0
  9
$DIMSOXD
 70
     0
  9
$DIMSAH
 70
     0
  9
$DIMBLK1
  1

  9
$DIMBLK2
  1

  9
$DIMSTYLE
  2
Standard
  9
$DIMCLRD
 70
     0
  9
$DIMCLRE
 70
     0
  9
$DIMCLRT
 70
     0
  9
$DIMTFAC
 40
1.0
  9
$DIMGAP
 40
0.09
  9
$DIMJUST
 70
     0
  9
$DIMSD1
 70
     0
  9
$DIMSD2
 70
     0
  9
$DIMTOLJ
 70
     1
  9
$DIMTZIN
 70
     0
  9
$DIMALTZ
 70
     0
  9
$DIMALTTZ
 70
     0
  9
$DIMUPT
 70
     0
  9
$DIMDEC
 70
     4
  9
$DIMTDEC
 70
     4
  9
$DIMALTU
 70
     2
  9
$DIMALTTD
 70
     2
  9
$DIMTXSTY
  7
Standard
  9
$DIMAUNIT
 70
     0
  9
$DIMADEC
 70
     0
  9
$DIMALTRND
 40
0.0
  9
$DIMAZIN
 70
     0
  9
$DIMDSEP
 70
    46
  9
$DIMATFIT
 70
     3
  9
$DIMFRAC
 70
     0
  9
$DIMLDRBLK
  1

  9
$DIMLUNIT
 70
     2
  9
$DIMLWD
 70
    -2
  9
$DIMLWE
 70
    -2
  9
$DIMTMOVE
 70
     0
  9
$LUNITS
 70
     2
  9
$LUPREC
 70
     4
  9
$SKETCHINC
 40
0.1
  9
$FILLETRAD
 40
0.0
  9
$AUNITS
 70
     0
  9
$AUPREC
 70
     0
  9
$MENU
  1
.
  9
$ELEVATION
 40
0.0
  9
$PELEVATION
 40
0.0
  9
$THICKNESS
 40
0.0
  9
$LIMCHECK
 70
     0
  9
$CHAMFERA
 40
0.0
  9
$CHAMFERB
 40
0.0
  9
$CHAMFERC
 40
0.0
  9
$CHAMFERD
 40
0.0
  9
$SKPOLY
 70
     0
  9
$TDCREATE
 40
2454772.470628796
  9
$TDUCREATE
 40
2454772.428962129
  9
$TDUPDATE
 40
2454772.470730429
  9
$TDUUPDATE
 40
2454772.429063762
  9
$TDINDWG
 40
0.0001018171
  9
$TDUSRTIMER
 40
0.0001018171
  9
$USRTIMER
 70
     1
  9
$ANGBASE
 50
0.0
  9
$ANGDIR
 70
     0
  9
$PDMODE
 70
     0
  9
$PDSIZE
 40
0.0
  9
$PLINEWID
 40
0.0
  9
$SPLFRAME
 70
     0
  9
$SPLINETYPE
 70
     6
  9
$SPLINESEGS
 70
     8
  9
$HANDSEED
  5
CA8
  9
$SURFTAB1
 70
     6
  9
$SURFTAB2
 70
     6
  9
$SURFTYPE
 70
     6
  9
$SURFU
 70
     6
  9
$SURFV
 70
     6
  9
$UCSBASE
  2

  9
$UCSNAME
  2

  9
$UCSORG
 10
0.0
 20
0.0
 30
0.0
  9
$UCSXDIR
 10
1.0
 20
0.0
 30
0.0
  9
$UCSYDIR
 10
0.0
 20
1.0
 30
0.0
  9
$UCSORTHOREF
  2

  9
$UCSORTHOVIEW
 70
     0
  9
$UCSORGTOP
 10
0.0
 20
0.0
 30
0.0
  9
$UCSORGBOTTOM
 10
0.0
 20
0.0
 30
0.0
  9
$UCSORGLEFT
 10
0.0
 20
0.0
 30
0.0
  9
$UCSORGRIGHT
 10
0.0
 20
0.0
 30
0.0
  9
$UCSORGFRONT
 10
0.0
 20
0.0
 30
0.0
  9
$UCSORGBACK
 10
0.0
 20
0.0
 30
0.0
  9
$PUCSBASE
  2

  9
$PUCSNAME
  2

  9
$PUCSORG
 10
0.0
 20
0.0
 30
0.0
  9
$PUCSXDIR
 10
1.0
 20
0.0
 30
0.0
  9
$PUCSYDIR
 10
0.0
 20
1.0
 30
0.0
  9
$PUCSORTHOREF
  2

  9
$PUCSORTHOVIEW
 70
     0
  9
$PUCSORGTOP
 10
0.0
 20
0.0
 30
0.0
  9
$PUCSORGBOTTOM
 10
0.0
 20
0.0
 30
0.0
  9
$PUCSORGLEFT
 10
0.0
 20
0.0
 30
0.0
  9
$PUCSORGRIGHT
 10
0.0
 20
0.0
 30
0.0
  9
$PUCSORGFRONT
 10
0.0
 20
0.0
 30
0.0
  9
$PUCSORGBACK
 10
0.0
 20
0.0
 30
0.0
  9
$USERI1
 70
     0
  9
$USERI2
 70
     0
  9
$USERI3
 70
     0
  9
$USERI4
 70
     0
  9
$USERI5
 70
     0
  9
$USERR1
 40
0.0
  9
$USERR2
 40
0.0
  9
$USERR3
 40
0.0
  9
$USERR4
 40
0.0
  9
$USERR5
 40
0.0
  9
$WORLDVIEW
 70
     1
  9
$SHADEDGE
 70
     3
  9
$SHADEDIF
 70
    70
  9
$TILEMODE
 70
     1
  9
$MAXACTVP
 70
    64
  9
$PINSBASE
 10
0.0
 20
0.0
 30
0.0
  9
$PLIMCHECK
 70
     0
  9
$PEXTMIN
 10
1.000000000000000E+20
 20
1.000000000000000E+20
 30
1.000000000000000E+20
  9
$PEXTMAX
 10
-1.000000000000000E+20
 20
-1.000000000000000E+20
 30
-1.000000000000000E+20
  9
$PLIMMIN
 10
0.0
 20
0.0
  9
$PLIMMAX
 10
12.0
 20
9.0
  9
$UNITMODE
 70
     0
  9
$VISRETAIN
 70
     1
  9
$PLINEGEN
 70
     0
  9
$PSLTSCALE
 70
     1
  9
$TREEDEPTH
 70
  3020
  9
$CMLSTYLE
  2
Standard
  9
$CMLJUST
 70
     0
  9
$CMLSCALE
 40
1.0
  9
$PROXYGRAPHICS
 70
     1
  9
$MEASUREMENT
 70
     0
  9
$CELWEIGHT
370
    -1
  9
$ENDCAPS
280
     0
  9
$JOINSTYLE
280
     0
  9
$LWDISPLAY
290
     0
  9
$INSUNITS
 70
     0
  9
$HYPERLINKBASE
  1

  9
$STYLESHEET
  1

  9
$XEDIT
290
     1
  9
$CEPSNTYPE
380
     0
  9
$PSTYLEMODE
290
     1
  9
$FINGERPRINTGUID
  2
{22F9C09C-A4BB-42CC-B1CD-13E1F6013429}
  9
$VERSIONGUID
  2
{3F7DF5E3-0C60-4D7C-A0F0-5589772D464A}
  9
$EXTNAMES
290
     1
  9
$PSVPSCALE
 40
0.0
  9
$OLESTARTUP
290
     0
  9
$SORTENTS
280
   127
  9
$INDEXCTL
280
     0
  9
$HIDETEXT
280
     0
  9
$XCLIPFRAME
290
     0
  9
$HALOGAP
280
     0
  9
$OBSCOLOR
 70
   257
  9
$OBSLTYPE
280
     0
  9
$INTERSECTIONDISPLAY
280
     0
  9
$INTERSECTIONCOLOR
 70
   257
  9
$DIMASSOC
280
     1
  9
$PROJECTNAME
  1

  0
ENDSEC
  0
SECTION
  2
CLASSES
  0
CLASS
  1
ACDBDICTIONARYWDFLT
  2
AcDbDictionaryWithDefault
  3
ObjectDBX Classes
 90
        0
 91
        1
280
     0
281
     0
  0
CLASS
  1
TABLESTYLE
  2
AcDbTableStyle
  3
ObjectDBX Classes
 90
     2047
 91
        1
280
     0
281
     0
  0
CLASS
  1
DICTIONARYVAR
  2
AcDbDictionaryVar
  3
ObjectDBX Classes
 90
        0
 91
        1
280
     0
281
     0
  0
ENDSEC
  0
SECTION
  2
TABLES
  0
TABLE
  2
VPORT
  5
8
330
0
100
AcDbSymbolTable
 70
     2
  0
VPORT
  5
CA7
330
8
100
AcDbSymbolTableRecord
100
AcDbViewportTableRecord
  2
*Active
 70
     0
 10
0.0
 20
0.0
 11
1.0
 21
1.0
 12
530.4818642390833
 22
779.870061035
 13
0.0
 23
0.0
 14
1.0
 24
1.0
 15
0.0
 25
0.0
 16
0.0
 26
0.0
 36
1.0
 17
0.0
 27
0.0
 37
0.0
 40
1576.072232672722
 41
2.087412587412587
 42
50.0
 43
0.0
 44
0.0
 50
0.0
 51
0.0
 71
     0
 72
  1000
 73
     1
 74
     3
 75
     0
 76
     0
 77
     0
 78
     0
281
     0
 65
     1
110
0.0
120
0.0
130
0.0
111
1.0
121
0.0
131
0.0
112
0.0
122
1.0
132
0.0
 79
     0
146
0.0
  0
ENDTAB
  0
TABLE
  2
LTYPE
  5
5
330
0
100
AcDbSymbolTable
 70
     1
  0
LTYPE
  5
13
330
5
100
AcDbSymbolTableRecord
100
AcDbLinetypeTableRecord
  2
ByBlock
 70
     0
  3

 72
    65
 73
     0
 40
0.0
  0
LTYPE
  5
14
330
5
100
AcDbSymbolTableRecord
100
AcDbLinetypeTableRecord
  2
ByLayer
 70
     0
  3

 72
    65
 73
     0
 40
0.0
  0
LTYPE
  5
15
330
5
100
AcDbSymbolTableRecord
100
AcDbLinetypeTableRecord
  2
Continuous
 70
     0
  3
Solid line
 72
    65
 73
     0
 40
0.0
  0
ENDTAB
  0
TABLE
  2
LAYER
  5
2
330
0
100
AcDbSymbolTable
 70
     1
  0
LAYER
  5
10
330
2
100
AcDbSymbolTableRecord
100
AcDbLayerTableRecord
  2
0
 70
     0
 62
     7
  6
Continuous
370
    -3
390
F
  0
ENDTAB
  0
TABLE
  2
STYLE
  5
3
330
0
100
AcDbSymbolTable
 70
     1
  0
STYLE
  5
11
330
3
100
AcDbSymbolTableRecord
100
AcDbTextStyleTableRecord
  2
Standard
 70
     0
 40
0.0
 41
1.0
 50
0.0
 71
     0
 42
0.2
  3
txt
  4

  0
ENDTAB
  0
TABLE
  2
VIEW
  5
6
330
0
100
AcDbSymbolTable
 70
     0
  0
ENDTAB
  0
TABLE
  2
UCS
  5
7
330
0
100
AcDbSymbolTable
 70
     0
  0
ENDTAB
  0
TABLE
  2
APPID
  5
9
330
0
100
AcDbSymbolTable
 70
     1
  0
APPID
  5
12
330
9
100
AcDbSymbolTableRecord
100
AcDbRegAppTableRecord
  2
ACAD
 70
     0
  0
ENDTAB
  0
TABLE
  2
DIMSTYLE
  5
A
330
0
100
AcDbSymbolTable
 70
     1
100
AcDbDimStyleTable
 71
     0
  0
DIMSTYLE
105
CA1
330
A
100
AcDbSymbolTableRecord
100
AcDbDimStyleTableRecord
  2
Standard
 70
     0
340
11
  0
ENDTAB
  0
TABLE
  2
BLOCK_RECORD
  5
1
330
0
100
AcDbSymbolTable
 70
     0
  0
BLOCK_RECORD
  5
22
330
1
100
AcDbSymbolTableRecord
100
AcDbBlockTableRecord
  2
*Model_Space
340
25
  0
BLOCK_RECORD
  5
1E
330
1
100
AcDbSymbolTableRecord
100
AcDbBlockTableRecord
  2
*Paper_Space
340
21
  0
ENDTAB
  0
ENDSEC
  0
SECTION
  2
BLOCKS
  0
BLOCK
  5
23
330
22
100
AcDbEntity
  8
0
100
AcDbBlockBegin
  2
*Model_Space
 70
     0
 10
0.0
 20
0.0
 30
0.0
  3
*Model_Space
  1

  0
ENDBLK
  5
24
330
22
100
AcDbEntity
  8
0
100
AcDbBlockEnd
  0
BLOCK
  5
1F
330
1E
100
AcDbEntity
 67
     1
  8
0
100
AcDbBlockBegin
  2
*Paper_Space
 70
     0
 10
0.0
 20
0.0
 30
0.0
  3
*Paper_Space
  1

  0
ENDBLK
  5
20
330
1E
100
AcDbEntity
 67
     1
  8
0
100
AcDbBlockEnd
  0
ENDSEC
  0
SECTION
  2
ENTITIES
  0
LWPOLYLINE
  5
26
330
22
100
AcDbEntity
  8
0
100
AcDbPolyline
 90
      482
 70
     1
 43
0.0
 10
410.8119999999999
 20
41.83769999999999
 42
0.0419406
 10
336.311
 20
4.96918
 42
-0.0895477
 10
331.854
 20
3.0318
 42
-0.252608
 10
328.624
 20
3.90179
 42
-0.122634
 10
326.994
 20
6.86823
 42
0.017731
 10
324.536
 20
15.3871
 42
0.106043
 10
322.5
 20
18.9322
 42
0.294069
 10
318.504
 20
19.9481
 42
0.0354477
 10
310.16
 20
16.7088
 42
-0.0774629
 10
303.052
 20
14.3296
 42
-0.259711
 10
298.486
 20
15.9495
 10
297.97
 20
16.364
 42
0.246587
 10
296.902
 20
16.3218
 10
296.352
 20
15.9445
 42
0.0541222
 10
294.642
 20
13.863
 42
-0.0354912
 10
291.622
 20
9.607849999999999
 42
-0.0830747
 10
290.368
 20
8.55597
 42
-0.192797
 10
289.092
 20
8.351319999999999
 42
-0.166009
 10
287.799
 20
9.31122
 42
-0.0701841
 10
286.494
 20
11.7526
 42
0.00993988
 10
283.722
 20
18.2983
 42
-0.115718
 10
279.966
 20
32.879
 42
0.66692
 10
260.807
 20
39.4233
 42
-0.0524296
 10
255.201
 20
34.2794
 42
0.0517795
 10
249.657
 20
29.2062
 42
-0.121128
 10
207.288
 20
0.00012207
 42
0.154205
 10
202.536
 20
69.2535
 10
106.913
 20
24.8594
 42
-0.6168600000000001
 10
96.31950000000001
 20
33.2656
 10
106.171
 20
80.5394
 10
52.3995
 20
63.90789999999999
 10
73.8356
 20
131.878
 10
53.1531
 20
119.779
 10
53.2472
 20
119.968
 42
0.0177795
 10
54.0272
 20
123.199
 42
0.0176466
 10
56.1348
 20
135.099
 42
0.0471888
 10
56.592
 20
140.52
 42
0.230901
 10
56.31260000000001
 20
140.994
 42
0.261724
 10
55.8217
 20
141.029
 42
0.0407906
 10
53.729
 20
139.677
 42
-0.0154889
 10
38.7252
 20
128.48
 42
-0.0788611
 10
33.7878
 20
126.005
 42
-0.24258
 10
31.8948
 20
126.419
 42
-0.244031
 10
31.1426
 20
128.193
 42
-0.0691355
 10
32.37
 20
132.676
 42
-0.0748154
 10
62.0653
 20
184.559
 42
0.0654038
 10
65.0017
 20
189.075
 42
0.0986632
 10
65.52800000000001
 20
191.048
 42
0.289943
 10
64.6301
 20
192.743
 42
0.100072
 10
63.1746
 20
193.201
 42
0.0542567
 10
60.1655
 20
193.172
 42
0.048976
 10
35.3253
 20
186.956
 42
-0.061282
 10
23.0883
 20
184.492
 42
-0.100683
 10
19.9142
 20
184.923
 42
-0.248992
 10
18.3522
 20
186.598
 42
-0.0996341
 10
18.2871
 20
187.817
 42
-0.0586638
 10
18.8218
 20
189.806
 42
-0.0573862
 10
21.7422
 20
194.839
 42
-0.0908066
 10
58.7455
 20
230.913
 42
0.0312803
 10
61.9242
 20
233.288
 42
0.0862372
 10
63.411
 20
234.976
 42
0.239338
 10
63.4285
 20
235.992
 42
0.181898
 10
62.47959999999999
 20
236.891
 42
0.0447187
 10
60.6464
 20
237.419
 42
-0.0208024
 10
54.4212
 20
238.69
 42
-0.130042
 10
50.16519999999999
 20
240.898
 42
-0.137328
 10
49.2938
 20
242.316
 42
-0.205432
 10
49.7171
 20
243.914
 42
-0.077873
 10
51.3643
 20
245.43
 42
-0.0498053
 10
58.1348
 20
248.762
 42
0.0320109
 10
61.0799
 20
250.054
 10
71.7855
 20
256.525
 42
0.104412
 10
72.89010000000001
 20
257.469
 42
0.221951
 10
73.08379999999999
 20
258.345
 42
0.151404
 10
72.53379999999999
 20
259.149
 42
0.0714128
 10
70.6806
 20
260.213
 42
0.0443742
 10
61.9206
 20
262.47
 42
0.196237
 10
13.4998
 20
252.71
 42
-0.24599
 10
4.569269999999999
 20
251.638
 42
-0.18309
 10
2.383729999999999
 20
253.562
 42
-0.2591699999999999
 10
2.67442
 20
256.344
 42
-0.097856
 10
5.102909999999999
 20
258.731
 10
33.782
 20
278.56
 10
4.147909999999999
 20
279.257
 42
-0.0477441
 10
2.59317
 20
279.416
 42
-0.108943
 10
1.7149
 20
279.777
 42
-0.213508
 10
1.406519999999999
 20
280.304
 42
-0.139893
 10
1.56142
 20
280.957
 42
-0.0806463
 10
2.83477
 20
282.495
 10
6.25118
 20
285.445
 42
-0.0464549
 10
33.6421
 20
307.892
 42
-0.0262659
 10
45.58349999999999
 20
315.069
 42
-0.0735571
 10
50.29279999999999
 20
316.745
 10
92.14910000000001
 20
325.01
 42
0.0375659
 10
97.37070000000001
 20
326.34
 42
0.253245
 10
98.36579999999999
 20
327.48
 42
0.366832
 10
97.8499
 20
328.467
 42
0.0384781
 10
92.66630000000001
 20
329.7480000000001
 42
0.0121188
 10
83.53959999999998
 20
331.288
 42
-0.0515954
 10
78.56149999999999
 20
332.485
 42
-0.446455
 10
78.2642
 20
333.312
 42
-0.199267
 10
79.58849999999999
 20
334.389
 10
107.426
 20
342.677
 10
88.9953
 20
350.821
 10
88.5575
 20
351.046
 42
-0.0248321
 10
85.91979999999999
 20
352.831
 42
0.0353986
 10
76.2205
 20
359.465
 42
0.0968449
 10
74.34709999999999
 20
360.1130000000001
 10
73.9068
 20
360.091
 42
-0.0405349
 10
148.256
 20
371.068
 10
152.095
 20
371.39
 42
0.0846049
 10
159.079
 20
372.853
 42
0.211392
 10
160.309
 20
374.249
 42
0.244799
 10
160.025
 20
375.854
 42
0.0625041
 10
157.98
 20
377.756
 42
0.00816307
 10
149.327
 20
383.502
 42
-0.0973557
 10
141.545
 20
390.389
 42
-0.20452
 10
141.331
 20
391.5490000000001
 42
-0.244095
 10
141.978
 20
392.3169999999999
 10
142.713
 20
392.535
 42
-0.0395558
 10
144.723
 20
392.753
 42
0.01481
 10
155.578
 20
392.869
 42
0.0977611
 10
158.661
 20
393.64
 42
0.164581
 10
159.7649999999999
 20
394.6880000000001
 42
0.114583
 10
160.185
 20
397.383
 42
0.122767
 10
156.495
 20
407.6219999999999
 42
-0.140011
 10
156.046
 20
408.8269999999999
 42
-0.206058
 10
156.731
 20
410.3559999999999
 42
-0.0991484
 10
159.427
 20
411.92
 42
-0.0499241
 10
168.451
 20
413.949
 10
212.239
 20
420.2449999999999
 10
148.305
 20
449.7619999999999
 42
-0.306492
 10
132.54
 20
475.4869999999999
 42
-0.212361
 10
183.765
 20
566.723
 42
-0.15225
 10
157.091
 20
651.081
 10
157.664
 20
784.794
 10
101.286
 20
796.801
 42
-0.171874
 10
65.9138
 20
816.501
 10
26.4547
 20
859.276
 42
-0.365697
 10
25.7117
 20
879.021
 42
0.0402865
 10
27.1937
 20
881.005
 42
0.0979858
 10
27.8228
 20
882.473
 42
0.320781
 10
27.1502
 20
884.058
 42
0.0696939
 10
25.819
 20
884.6630000000001
 42
0.0306785
 10
21.3693
 20
885.5859999999999
 42
-0.6122880000000001
 10
13.6324
 20
910.3530000000001
 42
0.243
 10
14.4402
 20
912.847
 42
0.103783
 10
13.2209
 20
915.985
 42
0.0805135
 10
4.82583
 20
924.8639999999999
 42
-0.797065
 10
15.1789
 20
947.0
 10
16.8847
 20
946.6989999999999
 42
0.110512
 10
20.5897
 20
946.8160000000001
 42
0.346109
 10
22.8519
 20
949.6039999999998
 42
0.0877396
 10
22.4445
 20
952.2339999999999
 42
0.0958638
 10
17.9974
 20
959.575
 42
-0.5844560000000002
 10
25.6865
 20
982.0319999999998
 10
27.1817
 20
982.3400000000001
 42
0.0712499
 10
30.1359
 20
983.328
 42
0.118834
 10
31.0141
 20
984.0469999999999
 42
0.196415
 10
31.1914
 20
984.8219999999999
 42
0.112755
 10
30.8157
 20
985.6569999999999
 42
0.0521159
 10
28.996
 20
987.5299999999999
 42
-0.0673935
 10
25.8113
 20
990.929
 10
13.694
 20
1010.49
 42
0.251628
 10
27.4017
 20
1052.25
 42
-0.0961573
 10
27.3427
 20
1055.38
 42
-0.263151
 10
29.2252
 20
1057.72
 42
-0.0961511
 10
31.4367
 20
1058.11
 42
-0.0588416
 10
37.0527
 20
1057.22
 42
0.0380062
 10
43.7821
 20
1055.73
 42
0.101136
 10
45.59709999999999
 20
1055.86
 42
0.256119
 10
46.54359999999999
 20
1056.8
 10
46.67629999999999
 20
1057.41
 42
0.0744281
 10
46.3752
 20
1061.6
 42
0.00972003
 10
42.3786
 20
1075.92
 42
-0.224648
 10
56.0629
 20
1137.76
 42
0.104167
 10
96.4732
 20
1078.89
 42
0.00812489
 10
108.296
 20
1067.97
 42
0.054346
 10
110.258
 20
1066.57
 42
-0.117998
 10
244.963
 20
941.8499999999999
 42
0.313307
 10
241.144
 20
980.6089999999999
 42
-0.236618
 10
237.894
 20
993.846
 42
0.147321
 10
237.292
 20
1002.6
 42
-0.117809
 10
231.472
 20
1032.64
 42
-0.174259
 10
277.133
 20
1130.76
 42
-0.0454244
 10
282.188
 20
1134.88
 42
0.0799899
 10
290.532
 20
1142.71
 42
-0.343006
 10
440.261
 20
1180.91
 10
481.43
 20
1162.57
 10
506.207
 20
1126.98
 42
0.137738
 10
512.44
 20
1121.84
 42
-0.167781
 10
519.588
 20
1115.22
 42
-0.0375683
 10
547.8139999999999
 20
1051.25
 42
1.03969
 10
566.365
 20
1042.08
 42
-0.103213
 10
570.865
 20
1048.31
 42
0.0546546
 10
573.575
 20
1051.38
 42
-0.218342
 10
607.244
 20
1071.0
 42
-0.273272
 10
603.899
 20
1010.15
 42
0.405939
 10
599.6249999999999
 20
980.5950000000001
 10
569.106
 20
851.6349999999999
 10
528.0159999999999
 20
801.8939999999998
 42
0.5446310000000001
 10
496.3619999999999
 20
781.1499999999999
 42
0.0552724
 10
496.461
 20
780.311
 10
501.553
 20
758.74
 42
-0.107415
 10
502.5669999999999
 20
712.6519999999999
 42
-0.141711
 10
493.863
 20
696.8760000000001
 10
459.1019999999999
 20
665.7910000000001
 10
490.5319999999999
 20
547.098
 10
512.9119999999999
 20
561.4429999999999
 10
513.9769999999999
 20
562.0659999999999
 42
-0.0824231
 10
515.572
 20
562.649
 42
-0.0801071
 10
516.1569999999999
 20
562.638
 42
-0.114921
 10
516.5339999999999
 20
562.475
 42
-0.192546
 10
516.961
 20
561.697
 42
-0.0791556
 10
516.949
 20
560.469
 42
-0.0584731
 10
515.994
 20
557.2769999999999
 42
-0.0703722
 10
513.361
 20
552.5339999999999
 42
0.0717741
 10
496.4819999999999
 20
526.337
 42
0.0625664
 10
495.7059999999999
 20
524.0199999999999
 42
0.114787
 10
495.737
 20
522.386
 42
0.233233
 10
496.971
 20
521.039
 42
0.088806
 10
498.3699999999999
 20
520.7619999999999
 42
0.0926187
 10
502.803
 20
521.658
 42
0.100092
 10
507.242
 20
524.303
 42
-0.4341400000000001
 10
536.0389999999999
 20
523.8809999999999
 42
0.175019
 10
570.115
 20
543.066
 42
-0.0115652
 10
572.909
 20
546.2019999999999
 42
-0.0926142
 10
581.459
 20
552.3969999999999
 42
0.321354
 10
594.8819999999999
 20
577.82
 42
0.036318
 10
597.789
 20
562.9139999999999
 42
0.0759691
 10
599.2519999999999
 20
559.4619999999999
 42
0.2182469999999999
 10
600.4139999999999
 20
558.7559999999999
 42
0.260745
 10
601.4859999999999
 20
559.201
 10
602.0859999999999
 20
560.193
 42
0.0497434
 10
603.961
 20
566.3819999999999
 42
-0.150779
 10
623.1489999999999
 20
600.4119999999999
 10
621.259
 20
560.7669999999999
 42
0.148486
 10
622.0319999999999
 20
557.6669999999999
 42
0.247914
 10
628.9439999999999
 20
553.9509999999999
 42
0.327588
 10
634.9099999999999
 20
557.5639999999999
 42
0.105288
 10
635.5679999999999
 20
563.1409999999999
 42
-0.030706
 10
635.431
 20
568.4630000000001
 42
-0.9912569999999998
 10
973.892
 20
536.9959999999999
 42
-0.0153466
 10
973.2489999999998
 20
531.8380000000001
 10
973.113
 20
530.623
 42
0.0769491
 10
973.164
 20
529.8119999999999
 42
0.295843
 10
973.7569999999999
 20
529.229
 42
0.0770904
 10
974.61
 20
529.1849999999999
 42
0.0692744
 10
988.5469999999999
 20
532.538
 42
-0.272189
 10
1002.49
 20
530.311
 42
-0.113709
 10
1003.76
 20
528.96
 42
-0.215026
 10
1003.86
 20
527.748
 42
-0.140452
 10
1003.01
 20
526.681
 42
-0.0622863
 10
1001.4
 20
525.7669999999999
 42
-0.0913711
 10
989.1289999999999
 20
523.73
 42
0.458629
 10
968.96
 20
501.364
 42
-0.145143
 10
968.538
 20
499.4969999999999
 42
-0.0615661
 10
966.14
 20
496.259
 10
959.941
 20
489.9939999999999
 42
0.078328
 10
958.924
 20
488.498
 42
0.358366
 10
959.1789999999999
 20
487.7169999999999
 42
0.153574
 10
960.8589999999999
 20
487.2659999999999
 42
0.0399567
 10
967.3580000000001
 20
488.449
 42
-0.163362
 10
1000.66
 20
485.749
 42
-0.5065460000000001
 10
1000.72
 20
485.513
 42
-0.119039
 10
1000.04
 20
485.027
 42
-0.0287053
 10
996.5099999999999
 20
483.9509999999999
 10
977.551
 20
479.383
 42
0.10488
 10
974.103
 20
477.619
 42
0.123572
 10
973.4289999999999
 20
476.656
 42
0.181901
 10
973.4479999999999
 20
475.706
 42
0.130785
 10
974.155
 20
474.818
 42
0.0871536
 10
976.4969999999999
 20
473.709
 42
0.0785919
 10
985.7319999999999
 20
472.9049999999999
 42
-0.0485415
 10
1052.17
 20
469.0159999999999
 42
-0.0377276
 10
1055.66
 20
468.285
 42
-0.297073
 10
1056.02
 20
467.83
 42
-0.355779
 10
1055.74
 20
467.4159999999999
 42
-0.0384167
 10
1053.18
 20
466.9649999999999
 42
-0.00758594
 10
1027.91
 20
465.491
 10
1027.34
 20
465.399
 10
994.8960000000001
 20
455.241
 42
0.0838641
 10
987.077
 20
451.801
 42
0.0952949
 10
985.8389999999999
 20
450.5279999999999
 42
0.286536
 10
985.7560000000001
 20
448.7549999999999
 42
0.109567
 10
986.7699999999999
 20
447.6759999999999
 42
0.053777
 10
988.544
 20
446.688
 42
0.060401
 10
997.6449999999999
 20
444.3559999999999
 42
-0.132969
 10
1036.21
 20
427.088
 42
-0.061747
 10
1039.68
 20
423.689
 42
-0.0958211
 10
1040.25
 20
422.5569999999999
 42
-0.203682
 10
1040.15
 20
421.7469999999999
 42
-0.156622
 10
1039.46
 20
421.218
 42
-0.0741817
 10
1037.5
 20
420.859
 42
-0.0335472
 10
1029.99
 20
421.3119999999999
 42
0.114249
 10
995.381
 20
417.0849999999999
 42
0.289469
 10
994.8249999999999
 20
416.365
 42
0.209839
 10
995.204
 20
415.218
 10
995.9010000000001
 20
414.553
 42
0.0469896
 10
1000.73
 20
411.4589999999999
 42
0.0514848
 10
1017.24
 20
404.5259999999999
 42
-0.134237
 10
1049.79
 20
386.957
 42
-0.0335617
 10
1055.02
 20
381.046
 42
0.0374687
 10
1012.79
 20
388.326
 42
-0.0271298
 10
1007.49
 20
387.963
 42
0.0300243
 10
1006.42
 20
387.923
 42
0.307658
 10
1006.34
 20
387.846
 42
0.312558
 10
1006.38
 20
387.742
 10
1006.91
 20
387.456
 42
-0.0172146
 10
1011.12
 20
385.23
 10
1032.91
 20
374.227
 42
-0.332327
 10
1040.66
 20
358.011
 42
0.016897
 10
1039.87
 20
354.36
 42
-0.0200411
 10
1038.04
 20
346.992
 42
-0.116272
 10
1035.54
 20
342.732
 42
-0.312329
 10
1031.28
 20
342.0209999999999
 42
-0.0693701
 10
1028.26
 20
343.895
 42
-0.0184023
 10
1022.01
 20
349.794
 42
0.0998508
 10
1017.02
 20
353.407
 42
0.114268
 10
1015.18
 20
353.695
 42
0.157508
 10
1014.56
 20
353.411
 42
0.077107
 10
1014.04
 20
352.753
 42
0.0495866
 10
1012.76
 20
349.565
 42
-0.0508395
 10
1011.75
 20
347.041
 42
-0.0861012
 10
1011.28
 20
346.453
 42
-0.322431
 10
1010.46
 20
346.345
 42
0.0888234
 10
1006.03
 20
347.315
 42
0.109474
 10
1002.34
 20
346.9190000000001
 42
0.128889
 10
1001.5
 20
346.335
 42
0.206913
 10
1001.27
 20
345.46
 42
0.124186
 10
1001.81
 20
344.264
 42
0.0663116
 10
1004.45
 20
341.796
 10
1018.17
 20
331.5440000000001
 42
-0.7785300000000001
 10
1015.27
 20
324.57
 10
982.768
 20
329.356
 42
0.072891
 10
978.195
 20
329.551
 42
0.108663
 10
976.5169999999999
 20
329.017
 42
0.189893
 10
975.7739999999998
 20
328.0530000000001
 42
0.1373
 10
975.83
 20
326.746
 42
0.0776337
 10
977.1089999999999
 20
324.333
 42
0.0637734
 10
984.248
 20
317.312
 42
-0.16392
 10
1005.99
 20
284.009
 42
0.0738805
 10
1007.65
 20
280.162
 42
0.0934522
 10
1015.92
 20
271.947
 42
-0.0391842
 10
1019.1
 20
269.391
 42
-0.223025
 10
1019.55
 20
268.111
 42
-0.274399
 10
1018.87
 20
267.204
 10
1017.64
 20
266.832
 42
-0.0389388
 10
1006.3
 20
265.852
 42
0.0280519
 10
940.1849999999999
 20
259.59
 10
955.546
 20
205.803
 10
907.596
 20
224.199
 42
1.23626
 10
905.5750000000001
 20
196.609
 42
0.0687397
 10
908.277
 20
197.4109999999999
 42
-0.0207423
 10
913.17
 20
199.596
 42
-0.253029
 10
920.1110000000001
 20
198.921
 42
-0.039161
 10
925.5169999999999
 20
195.121
 42
-0.0788417
 10
926.1089999999999
 20
194.404
 42
-0.240957
 10
926.1139999999999
 20
193.879
 42
-0.186009
 10
925.623
 20
193.432
 42
-0.0597943
 10
924.422
 20
193.169
 42
-0.0340217
 10
918.1269999999999
 20
193.13
 42
0.0545608
 10
872.1119999999999
 20
190.117
 42
-0.10957
 10
892.5269999999999
 20
123.027
 42
-0.00845937
 10
892.641
 20
121.175
 42
-0.0656691
 10
892.406
 20
116.372
 42
-0.0850913
 10
892.063
 20
115.518
 10
891.825
 20
115.266
 42
-0.259437
 10
891.197
 20
115.203
 42
-0.0742299
 10
890.848
 20
115.391
 42
-0.0428923
 10
890.338
 20
115.846
 42
-0.0507216
 10
888.545
 20
118.447
 10
879.6130000000001
 20
134.057
 10
833.474
 20
145.119
 10
829.0029999999999
 20
116.624
 42
-0.0798313
 10
827.89
 20
113.81
 42
0.0261983
 10
825.2919999999999
 20
108.867
 42
0.158458
 10
824.699
 20
104.588
 42
0.200893
 10
827.885
 20
100.649
 42
-0.0508681
 10
798.7639999999998
 20
123.18
 42
0.0419248
 10
795.4439999999999
 20
125.963
 42
0.204831
 10
793.827
 20
126.254
 42
0.355802
 10
793.2
 20
125.447
 42
0.0581753
 10
793.6749999999999
 20
122.947
 10
799.2029999999999
 20
107.331
 42
-0.0794538
 10
800.084
 20
102.732
 42
-0.0597613
 10
799.9589999999999
 20
101.833
 42
-0.125191
 10
799.7460000000001
 20
101.449
 42
-0.136879
 10
799.0189999999999
 20
101.06
 42
-0.0705198
 10
797.221
 20
100.936
 42
-0.0708207
 10
786.6210000000001
 20
103.71
 42
0.345934
 10
786.1419999999999
 20
103.593
 42
0.166054
 10
785.831
 20
102.703
 42
0.0366162
 10
785.965
 20
101.181
 10
787.7689999999999
 20
92.4235
 42
-0.0589927
 10
787.8289999999999
 20
91.30259999999999
 42
-0.28758
 10
787.612
 20
91.03559999999999
 42
-0.257493
 10
787.2389999999999
 20
91.10190000000001
 42
-0.0564428
 10
786.4580000000001
 20
91.9152
 42
-0.0502534
 10
784.315
 20
95.74479999999999
 42
0.0986897
 10
778.7719999999999
 20
104.298
 42
0.202279
 10
772.6269999999999
 20
106.971
 42
0.00871221
 10
767.598
 20
106.637
 10
716.355
 20
104.161
 10
741.5449999999999
 20
84.4049
 10
697.908
 20
93.976
 42
0.7902610000000001
 10
694.5889999999999
 20
87.09090000000001
 10
708.473
 20
75.80840000000001
 10
709.536
 20
74.87820000000001
 42
-0.112482
 10
711.3039999999999
 20
72.5586
 42
-0.145266
 10
711.463
 20
71.3939
 42
-0.216634
 10
710.5089999999998
 20
70.19849999999999
 42
-0.0752598
 10
709.2739999999999
 20
69.75709999999999
 42
-0.162792
 10
701.666
 20
71.04649999999999
 42
0.243253
 10
675.428
 20
71.9454
 10
674.258
 20
71.2312
 42
0.198962
 10
673.2619999999999
 20
69.615
 42
0.149289
 10
673.6469999999999
 20
67.83629999999999
 42
0.0586167
 10
674.9189999999999
 20
66.0008
 42
0.00647602
 10
678.1399999999999
 20
62.5811
 42
-0.0776164
 10
679.101
 20
61.2083
 42
-0.327529
 10
678.8889999999999
 20
60.3517
 42
-0.150057
 10
677.248
 20
59.66409999999999
 42
-0.0420706
 10
670.6069999999999
 20
59.9729
 42
-0.211387
 10
634.3939999999999
 20
81.14029999999999
 42
0.127714
 10
603.778
 20
51.7299
 42
-0.0292749
 10
601.872
 20
48.9669
 42
-0.112019
 10
598.1889999999999
 20
45.6705
 42
-0.186803
 10
595.999
 20
45.4098
 42
-0.182531
 10
594.1699999999999
 20
46.9446
 42
-0.115003
 10
592.5599999999999
 20
52.4486
 42
-0.0573709
 10
593.461
 20
62.8046
 42
0.0469177
 10
593.789
 20
65.6889
 42
0.229852
 10
593.381
 20
66.4902
 42
0.288268
 10
592.6459999999999
 20
66.5541
 10
591.922
 20
66.082
 42
0.0331629
 10
588.3259999999999
 20
62.63889999999999
 42
0.154897
 10
575.5419999999999
 20
36.029
 42
0.0525215
 10
575.5359999999999
 20
39.2239
 42
-0.0482155
 10
575.205
 20
45.6646
 10
577.608
 20
67.13979999999999
 42
0.050938
 10
577.696
 20
70.24550000000001
 42
0.124123
 10
577.181
 20
71.9777
 42
0.240151
 10
576.187
 20
72.56019999999999
 42
0.129932
 10
574.8409999999999
 20
72.2168
 42
0.0532256
 10
573.2669999999999
 20
71.17180000000001
 42
0.0642235
 10
566.38
 20
63.2535
 42
-0.0166946
 10
539.008
 20
23.5853
 10
537.8989999999999
 20
22.2048
 42
-0.123552
 10
534.982
 20
19.9001
 42
-0.285705
 10
531.946
 20
20.3105
 42
-0.0930713
 10
530.2080000000001
 20
22.478
 42
-0.0592447
 10
527.188
 20
31.3206
 42
0.096549
 10
524.418
 20
37.6552
 42
0.113034
 10
521.1599999999999
 20
40.9425
 42
0.173308
 10
519.099
 20
41.43379999999999
 42
0.189176
 10
517.196
 20
40.23279999999999
 42
0.0900741
 10
515.646
 20
36.8635
 10
508.839
 20
12.8682
 42
-0.27908
 10
464.639
 20
30.0415
 10
463.1319999999999
 20
31.7027
 42
0.326547
 10
455.7799999999999
 20
32.864
 42
0.0472819
 10
451.4969999999999
 20
30.2532
 42
-0.0499072
 10
445.908
 20
26.6605
 42
-0.104497
 10
443.158
 20
26.0208
 42
-0.203607
 10
439.0769999999999
 20
28.0121
 42
-0.0737168
 10
436.38
 20
32.0876
 10
435.908
 20
32.9055
 42
0.295381
 10
435.244
 20
33.1708
 42
0.262412
 10
434.642
 20
32.6564
 10
434.428
 20
31.9289
 42
0.0143892
 10
433.858
 20
28.8358
 42
-0.0614898
 10
432.503
 20
23.2217
 42
-0.106628
 10
431.568
 20
21.817
 42
-0.227883
 10
430.278
 20
21.4077
 42
-0.0897879
 10
429.558
 20
21.6416
 42
-0.0551859
 10
428.5479999999999
 20
22.3374
 42
-0.0630723
 10
426.227
 20
24.8734
 42
-0.21294
 10
424.8369999999999
 20
33.4274
 42
0.0280012
 10
425.9649999999999
 20
38.8453
 42
0.341509
 10
422.9829999999999
 20
44.3818
 42
0.180483
 10
417.6029999999999
 20
44.5656
 42
0.0301241
  0
LWPOLYLINE
  5
20A
330
22
100
AcDbEntity
  8
0
100
AcDbPolyline
 90
      838
 70
     1
 43
0.0
 10
562.0009999999999
 20
86.16710000000001
 10
537.306
 20
39.6293
 10
509.7609999999999
 20
53.6864
 42
0.117458
 10
507.509
 20
54.3293
 42
0.176254
 10
505.8819999999999
 20
53.7703
 42
0.119179
 10
504.793
 20
52.2516
 42
0.0711458
 10
503.967
 20
48.70409999999999
 42
0.0436127
 10
504.635
 20
35.1005
 42
-0.6236460000000001
 10
483.504
 20
22.7859
 42
-0.0657039
 10
480.0869999999999
 20
25.7756
 42
-0.0284938
 10
473.66
 20
33.9926
 42
0.31815
 10
442.013
 20
45.4705
 10
440.995
 20
45.3307
 42
-0.0394003
 10
436.5779999999999
 20
45.4241
 42
-0.0653492
 10
430.274
 20
46.52969999999999
 42
-0.0960235
 10
429.384
 20
47.0358
 42
-0.319931
 10
429.293
 20
47.55449999999999
 42
-0.157159
 10
429.9769999999999
 20
48.2787
 42
0.0201206
 10
434.029
 20
50.756
 42
0.0691156
 10
442.764
 20
58.0146
 42
0.0875998
 10
443.791
 20
59.7291
 42
0.272283
 10
443.538
 20
60.8591
 42
0.179935
 10
442.0309999999999
 20
61.6108
 10
440.588
 20
61.6392
 42
0.0430877
 10
433.283
 20
60.3342
 42
0.0803941
 10
368.142
 20
32.1338
 42
-0.423845
 10
331.3309999999999
 20
29.6605
 42
0.0909984
 10
327.702
 20
31.8097
 42
-0.0554874
 10
326.748
 20
32.2645
 42
-0.148807
 10
326.438
 20
32.6074
 42
-0.184155
 10
326.445
 20
33.0731
 42
-0.0746203
 10
326.821
 20
33.73940000000001
 42
-0.0355902
 10
328.875
 20
35.9871
 10
340.721
 20
47.7963
 42
0.0408544
 10
343.659
 20
50.9499
 42
0.190455
 10
345.018
 20
54.998
 42
0.175443
 10
342.714
 20
59.2729
 42
0.308943
 10
335.61
 20
61.1409
 42
0.156393
 10
328.75
 20
55.4423
 42
-0.156975
 10
293.187
 20
26.8606
 10
276.09
 20
67.0663
 10
328.8130000000001
 20
75.07340000000001
 42
0.0296361
 10
332.745
 20
75.884
 42
0.0912018
 10
336.353
 20
77.41710000000001
 42
0.131113
 10
337.38
 20
78.54659999999999
 42
0.205498
 10
337.423
 20
79.6788
 42
0.133191
 10
336.584
 20
80.7426
 42
0.0693366
 10
334.964
 20
81.66619999999999
 42
0.113081
 10
324.614
 20
82.76709999999999
 42
0.120946
 10
243.688
 20
54.74569999999999
 42
0.0381575
 10
240.732
 20
52.5595
 42
0.0873689
 10
239.32
 20
50.897
 42
0.195633
 10
239.122
 20
49.6526
 42
0.158356
 10
239.803
 20
48.7205
 42
0.0573772
 10
241.032
 20
47.9949
 42
-0.0173283
 10
243.804
 20
46.74069999999999
 42
-0.114261
 10
244.682
 20
46.0009
 42
-0.252902
 10
244.779
 20
45.0447
 42
-0.08
 10
244.487
 20
44.5276
 42
-0.0449504
 10
243.761
 20
43.7668
 10
220.316
 20
23.2662
 10
216.573
 20
81.4062
 42
0.07253
 10
144.885
 20
52.27949999999999
 42
-0.0498017
 10
140.475
 20
50.0882
 42
-0.086648
 10
138.796
 20
49.7333
 42
-0.244779
 10
138.093
 20
50.1198
 42
-0.207306
 10
137.928
 20
51.0368
 42
-0.065736
 10
138.5
 20
52.4102
 42
-0.0944486
 10
145.679
 20
60.136
 10
176.863
 20
82.79909999999999
 42
-0.0389534
 10
180.838
 20
85.14230000000001
 42
0.0687219
 10
182.022
 20
85.91849999999999
 42
0.252574
 10
182.545
 20
87.27450000000001
 42
0.067079
 10
182.287
 20
88.30710000000001
 42
0.040983
 10
179.887
 20
92.69620000000001
 42
0.100276
 10
177.654
 20
95.28029999999999
 42
0.312261
 10
173.355
 20
95.5347
 42
0.0714635
 10
170.647
 20
93.4518
 42
-0.0125867
 10
166.303
 20
88.9628
 42
0.0192018
 10
125.555
 20
50.04529999999999
 10
124.333
 20
48.856
 42
-0.0894223
 10
121.416
 20
46.8104
 42
-0.127383
 10
120.054
 20
46.55109999999999
 42
-0.186104
 10
119.119
 20
47.0215
 42
-0.121124
 10
118.58
 20
48.0905
 42
-0.0631856
 10
118.402
 20
49.6265
 42
-0.111265
 10
120.658
 20
57.8087
 42
0.402482
 10
109.444
 20
95.9886
 10
62.79939999999999
 20
73.7542
 10
93.0396
 20
144.847
 42
0.165074
 10
95.96339999999999
 20
157.582
 42
0.0452922
 10
95.2626
 20
159.451
 42
0.112069
 10
94.5683
 20
160.417
 42
0.133176
 10
94.09969999999999
 20
160.641
 42
0.165197
 10
93.3745
 20
160.474
 42
0.0600488
 10
92.60559999999999
 20
159.849
 42
0.00790899
 10
90.86209999999999
 20
157.9
 10
75.1098
 20
141.287
 10
72.9593
 20
141.423
 10
94.21330000000001
 20
179.147
 10
59.8892
 20
159.898
 42
-0.8509439999999999
 10
56.02669999999999
 20
164.755
 10
94.8957
 20
207.475
 10
37.6534
 20
197.416
 42
-0.147338
 10
92.3989
 20
235.731
 42
0.0384886
 10
95.7365
 20
237.094
 42
0.134466
 10
99.4181
 20
240.114
 42
0.275545
 10
99.6164
 20
243.809
 42
0.158123
 10
96.63120000000001
 20
246.523
 42
0.138543
 10
91.7187
 20
247.311
 42
0.0159694
 10
67.84189999999999
 20
243.992
 42
-0.0498487
 10
64.5857
 20
243.749
 42
-0.56547
 10
64.4231
 20
244.073
 42
-0.136501
 10
65.2842
 20
244.851
 42
-0.0792689
 10
117.864
 20
261.406
 42
0.0339585
 10
121.719
 20
262.215
 42
0.107151
 10
125.146
 20
263.817
 42
0.145197
 10
126.038
 20
265.025
 42
0.248504
 10
125.595
 20
266.844
 42
0.105528
 10
123.382
 20
268.426
 42
0.129327
 10
113.66
 20
269.649
 42
-0.181756
 10
78.4962
 20
278.449
 10
44.9336
 20
275.475
 10
43.8447
 20
275.441
 42
-0.108735
 10
42.3354
 20
275.776
 42
-0.276715
 10
41.4917
 20
277.035
 42
-0.102917
 10
41.6814
 20
278.187
 42
-0.14746
 10
44.9798
 20
282.111
 42
-0.133935
 10
46.64579999999999
 20
282.751
 42
-0.191197
 10
47.5065
 20
282.5
 42
0.129542
 10
49.5287
 20
281.676
 42
0.0630948
 10
52.3059
 20
281.618
 42
0.113932
 10
65.80199999999999
 20
286.563
 42
0.0847193
 10
67.16849999999999
 20
287.87
 42
0.331227
 10
67.1142
 20
288.775
 42
0.184433
 10
65.78619999999999
 20
289.512
 10
64.3563
 20
289.6040000000001
 10
24.229
 20
289.893
 10
47.7511
 20
304.4
 10
125.762
 20
316.208
 42
0.0469883
 10
130.441
 20
317.353
 42
0.121379
 10
135.409
 20
320.322
 42
0.189852
 10
136.509
 20
322.937
 42
0.184495
 10
135.16
 20
325.9
 42
0.24411
 10
121.831
 20
330.2290000000001
 42
-0.0129936
 10
113.654
 20
329.229
 42
-0.177956
 10
106.067
 20
331.282
 10
105.491
 20
331.8080000000001
 42
-0.199312
 10
105.101
 20
332.875
 42
-0.154233
 10
105.575
 20
333.935
 42
-0.08151
 10
107.503
 20
335.447
 42
-0.0744359
 10
116.243
 20
338.475
 42
-0.0676837
 10
118.068
 20
338.644
 10
135.317
 20
336.996
 42
0.0422365
 10
137.256
 20
336.957
 42
0.121743
 10
139.158
 20
337.464
 42
0.197389
 10
140.0
 20
338.492
 42
0.177015
 10
139.765
 20
340.36
 42
0.141377
 10
136.135
 20
344.202
 42
0.0951296
 10
110.701
 20
353.912
 42
-0.069649
 10
106.28
 20
355.161
 42
-0.110224
 10
105.373
 20
355.848
 42
-0.22807
 10
105.197
 20
356.55
 42
-0.148689
 10
105.645
 20
357.247
 42
-0.0627897
 10
106.614
 20
357.92
 42
-0.076613
 10
113.593
 20
359.976
 42
-0.128269
 10
177.34
 20
353.75
 42
0.283695
 10
186.856
 20
355.947
 42
0.2384
 10
188.062
 20
359.329
 42
0.188042
 10
186.17
 20
362.217
 10
170.227
 20
375.1040000000001
 42
-0.3657780000000001
 10
195.62
 20
391.429
 42
0.107898
 10
204.787
 20
392.019
 42
0.123926
 10
206.802
 20
393.21
 42
0.29556
 10
207.13
 20
394.851
 42
0.0949551
 10
206.507
 20
395.82
 42
0.0712746
 10
203.55
 20
397.981
 42
0.0259043
 10
192.425
 20
402.779
 42
-0.061951
 10
189.926
 20
404.039
 42
-0.398497
 10
189.836
 20
404.5759999999999
 42
-0.203272
 10
190.64
 20
405.0989999999999
 42
-0.0341813
 10
193.405
 20
405.3219999999999
 10
245.88
 20
404.199
 42
0.101642
 10
263.84
 20
405.611
 42
0.0163265
 10
274.673
 20
410.902
 42
0.0425858
 10
278.565
 20
413.4079999999999
 42
-0.50542
 10
307.3
 20
405.183
 10
312.684
 20
391.014
 42
0.049845
 10
313.171
 20
390.055
 42
1.51726
 10
320.559
 20
400.9459999999999
 42
-0.220799
 10
307.691
 20
410.365
 42
-1.15507
 10
322.754
 20
415.8579999999999
 42
0.090127
 10
328.582
 20
402.055
 42
0.0817344
 10
330.82
 20
399.449
 42
0.262942
 10
331.807
 20
399.312
 42
0.280986
 10
332.374
 20
400.0619999999999
 10
332.367
 20
401.1269999999999
 42
0.0548237
 10
330.125
 20
409.85
 42
0.0715604
 10
303.452
 20
462.3730000000001
 42
0.0259168
 10
299.293
 20
467.338
 42
-0.0748605
 10
298.529
 20
468.414
 42
-0.280176
 10
298.579
 20
468.7859999999999
 42
-0.219325
 10
298.998
 20
468.9919999999999
 10
299.459
 20
468.9659999999999
 42
-0.038088
 10
303.022
 20
468.0959999999999
 42
-0.128623
 10
325.774
 20
454.291
 42
0.173883
 10
333.486
 20
450.8909999999999
 42
0.141766
 10
336.778
 20
451.4509999999999
 42
0.233378
 10
337.933
 20
453.009
 42
0.123699
 10
337.772
 20
454.633
 42
0.0859082
 10
335.726
 20
458.004
 10
319.209
 20
477.908
 42
0.116844
 10
319.438
 20
477.735
 42
0.0671198
 10
319.914
 20
477.599
 42
0.0530767
 10
321.14
 20
477.59
 42
0.0158452
 10
325.73
 20
478.282
 42
-0.0770552
 10
333.001
 20
478.7269999999999
 42
-0.174324
 10
335.911
 20
477.369
 42
0.210806
 10
361.13
 20
465.934
 42
0.0946351
 10
363.638
 20
466.2869999999999
 42
0.2938590000000001
 10
365.098
 20
468.0759999999999
 42
0.0907139
 10
364.949
 20
469.928
 42
0.0355774
 10
363.23
 20
474.664
 42
-0.081662
 10
361.336
 20
481.2509999999999
 42
-0.21322
 10
362.783
 20
485.86
 42
-0.131987
 10
364.22
 20
486.874
 42
-0.189841
 10
365.539
 20
486.7869999999999
 42
-0.111584
 10
366.7390000000001
 20
485.805
 42
-0.0630615
 10
368.312
 20
483.104
 42
-0.0419632
 10
371.692
 20
471.1899999999999
 42
0.28575
 10
389.202
 20
453.704
 42
0.0524856
 10
391.379
 20
453.3949999999999
 42
0.111182
 10
392.756
 20
453.627
 42
0.187089
 10
393.451
 20
454.3109999999999
 42
0.128082
 10
393.583
 20
455.3619999999999
 42
0.0834345
 10
392.63
 20
458.2149999999999
 10
389.174
 20
464.4919999999999
 42
0.026851
 10
370.063
 20
498.568
 42
-0.0461651
 10
367.425
 20
503.429
 42
-0.0727293
 10
367.08
 20
504.76
 10
367.1130000000001
 20
505.187
 42
-0.291721
 10
367.536
 20
505.6119999999999
 42
-0.0850229
 10
367.846
 20
505.6359999999999
 42
-0.0500197
 10
368.362
 20
505.535
 42
-0.0483611
 10
369.504
 20
505.037
 42
-0.0515628
 10
374.7380000000001
 20
501.1519999999999
 10
398.591
 20
479.9069999999999
 10
400.0309999999999
 20
478.6769999999999
 42
0.0953372
 10
404.4069999999999
 20
476.0369999999999
 42
0.198133
 10
407.4089999999999
 20
476.2509999999999
 42
0.0623623
 10
410.156
 20
478.2619999999999
 42
-0.100054
 10
417.7229999999999
 20
482.934
 10
418.333
 20
483.2329999999999
 42
0.147723
 10
419.0659999999999
 20
484.0809999999999
 42
0.145044
 10
419.1679999999999
 20
485.8219999999999
 42
0.0885906
 10
417.2189999999999
 20
489.9369999999999
 42
0.00732137
 10
414.8559999999999
 20
493.2319999999999
 10
414.782
 20
493.3709999999999
 42
-0.134034
 10
415.535
 20
530.4680000000001
 42
0.0474158
 10
414.995
 20
527.812
 42
0.199296
 10
416.428
 20
522.3749999999999
 42
0.0470285
 10
420.228
 20
518.709
 42
-0.125066
 10
423.5519999999999
 20
514.207
 42
-0.0515603
 10
426.9409999999999
 20
498.367
 42
0.264103
 10
443.233
 20
477.787
 10
444.4499999999999
 20
477.378
 42
0.116553
 10
446.2869999999999
 20
477.2689999999999
 42
0.237669
 10
447.841
 20
478.586
 42
0.0792479
 10
448.415
 20
481.209
 42
-0.00715733
 10
448.7059999999999
 20
488.2619999999999
 42
-0.288834
 10
455.203
 20
496.9949999999999
 42
-0.302754
 10
460.639
 20
496.077
 42
-0.119771
 10
463.2889999999999
 20
491.561
 42
0.315634
 10
483.7069999999999
 20
476.635
 42
0.0867649
 10
486.565
 20
476.9549999999999
 10
487.328
 20
477.383
 42
0.260874
 10
487.767
 20
478.675
 10
487.5379999999999
 20
479.4999999999999
 42
0.05637
 10
486.4259999999999
 20
481.409
 42
0.00602835
 10
482.0739999999999
 20
486.774
 42
-0.0844059
 10
480.3139999999999
 20
489.609
 10
480.159
 20
490.373
 42
-0.286419
 10
480.7839999999999
 20
491.508
 10
481.6609999999999
 20
491.84
 42
-0.0561578
 10
487.8949999999999
 20
492.5839999999999
 42
-0.162207
 10
504.4069999999999
 20
486.296
 10
504.816
 20
486.0829999999999
 42
0.207029
 10
506.0649999999999
 20
486.238
 42
0.101613
 10
507.721
 20
487.818
 42
0.0245889
 10
510.88
 20
493.0509999999999
 42
-0.0633659
 10
511.5969999999999
 20
494.066
 42
-0.0739302
 10
542.341
 20
516.6599999999999
 42
-0.0427921
 10
547.839
 20
519.1519999999999
 42
-0.0764834
 10
549.253
 20
519.4149999999999
 10
549.681
 20
519.3380000000001
 42
-0.29534
 10
550.056
 20
518.8229999999999
 42
-0.0726733
 10
550.0449999999999
 20
518.478
 42
-0.041655
 10
549.8919999999999
 20
517.898
 42
-0.036904
 10
549.3129999999999
 20
516.65
 42
-0.00602807
 10
545.8099999999999
 20
510.986
 42
0.0275695
 10
527.8959999999999
 20
476.8979999999999
 42
0.0302965
 10
526.2839999999999
 20
473.0669999999999
 42
0.167579
 10
526.2959999999999
 20
472.609
 42
0.5169990000000001
 10
526.4730000000001
 20
472.5619999999999
 42
0.035763
 10
527.3340000000001
 20
473.485
 42
-0.0461282
 10
532.465
 20
479.0939999999999
 42
-0.090014
 10
533.878
 20
479.921
 42
-0.190682
 10
534.735
 20
479.851
 42
-0.180545
 10
535.3559999999999
 20
479.193
 42
-0.00917148
 10
535.981
 20
477.6169999999999
 42
0.0295526
 10
536.812
 20
475.574
 42
0.120243
 10
537.187
 20
475.1209999999999
 42
0.219311
 10
537.6469999999999
 20
475.0569999999999
 10
537.936
 20
475.174
 42
0.0498261
 10
538.6839999999999
 20
475.708
 10
544.204
 20
480.8399999999999
 42
0.0754732
 10
565.248
 20
506.605
 10
566.2949999999999
 20
508.6159999999999
 42
0.198553
 10
566.3219999999999
 20
510.7569999999999
 42
0.32348
 10
565.1419999999999
 20
511.5059999999999
 10
563.8969999999999
 20
511.3019999999999
 42
0.0282811
 10
557.368
 20
508.9599999999999
 42
-0.0646591
 10
552.967
 20
507.629
 42
-0.310182
 10
551.725
 20
508.2889999999999
 42
-0.225147
 10
551.6539999999999
 20
510.144
 10
552.644
 20
512.0219999999999
 42
-0.0289045
 10
556.739
 20
517.7849999999999
 10
568.658
 20
532.2090000000001
 42
-0.6719960000000001
 10
595.2949999999999
 20
524.3380000000001
 42
0.0101641
 10
595.6990000000001
 20
520.903
 42
0.105513
 10
597.932
 20
513.6239999999999
 42
0.253941
 10
602.12
 20
511.019
 42
0.213725
 10
604.323
 20
511.758
 42
0.138624
 10
605.503
 20
513.914
 42
0.154025
 10
604.5689999999999
 20
522.832
 42
-0.227853
 10
605.1059999999999
 20
557.568
 42
-0.0358131
 10
606.8459999999999
 20
560.374
 42
-0.0777647
 10
608.961
 20
562.6839999999999
 42
-0.0988193
 10
609.7669999999999
 20
563.086
 42
-0.320681
 10
610.7619999999999
 20
562.705
 42
-0.103627
 10
611.202
 20
561.5969999999999
 42
-0.0465944
 10
611.399
 20
559.648
 10
612.0149999999999
 20
533.8049999999999
 10
612.071
 20
533.4119999999999
 42
0.0710317
 10
612.442
 20
532.549
 42
0.0995463
 10
615.089
 20
529.85
 42
0.135246
 10
619.368
 20
528.088
 42
0.182721
 10
621.451
 20
528.6259999999999
 42
0.137111
 10
624.1
 20
532.2849999999999
 42
0.0460448
 10
625.6199999999999
 20
538.8919999999999
 42
-0.103464
 10
627.59
 20
545.0119999999999
 42
-0.1375
 10
629.054
 20
546.476
 42
-0.0949744
 10
631.7619999999999
 20
547.276
 42
-0.0531107
 10
638.966
 20
547.067
 42
0.0527415
 10
639.989
 20
547.0219999999999
 10
640.1069999999999
 20
547.062
 10
640.5529999999999
 20
547.4159999999999
 42
-0.0207078
 10
645.449
 20
550.6929999999999
 42
-0.0588803
 10
651.3069999999999
 20
553.688
 42
-0.0866625
 10
652.3819999999999
 20
553.8569999999999
 42
-0.325703
 10
652.936
 20
553.3869999999999
 42
-0.108112
 10
652.981
 20
551.386
 42
-0.0373377
 10
652.0109999999999
 20
548.1409999999999
 42
0.0100266
 10
647.13
 20
535.615
 42
0.0850758
 10
646.0689999999999
 20
530.1419999999999
 42
0.164384
 10
646.795
 20
527.6619999999999
 42
0.213928
 10
649.134
 20
526.561
 10
651.0359999999999
 20
526.648
 42
0.0591765
 10
656.551
 20
528.3330000000001
 42
-0.118083
 10
696.595
 20
534.639
 10
697.1699999999999
 20
534.579
 42
-0.126924
 10
699.182
 20
533.9159999999999
 42
-0.193625
 10
699.819
 20
532.975
 42
-0.138868
 10
699.6669999999999
 20
531.697
 42
-0.0795568
 10
698.1110000000001
 20
529.1979999999999
 10
684.595
 20
512.5169999999999
 10
684.2639999999999
 20
512.1839999999999
 42
-0.117653
 10
682.298
 20
511.329
 42
-0.0607824
 10
676.8530000000001
 20
511.0899999999999
 42
0.0293462
 10
672.9689999999999
 20
511.1869999999999
 42
0.26649
 10
635.643
 20
484.785
 10
568.715
 20
465.5459999999999
 42
0.221209
 10
486.5009999999999
 20
439.343
 42
0.236726
 10
337.307
 20
361.999
 42
0.245462
 10
283.184
 20
339.671
 42
0.0296028
 10
279.9240000000001
 20
335.283
 42
-0.0694418
 10
271.516
 20
325.666
 42
0.265829
 10
245.219
 20
250.715
 10
248.835
 20
231.664
 42
0.0970065
 10
249.039
 20
231.164
 42
0.207021
 10
307.522
 20
191.367
 10
369.9930000000001
 20
179.497
 10
372.509
 20
178.906
 42
-0.13243
 10
375.565
 20
177.118
 42
-0.243238
 10
376.363
 20
173.424
 42
-0.0773297
 10
374.472
 20
169.317
 10
371.374
 20
164.76
 42
0.252961
 10
371.338
 20
163.632
 42
0.326067
 10
372.147
 20
163.214
 10
373.524
 20
163.549
 42
0.0236715
 10
378.239
 20
165.318
 10
413.7659999999999
 20
178.9559999999999
 42
-0.184881
 10
483.684
 20
179.979
 42
-0.0427478
 10
488.795
 20
177.851
 42
-0.0842921
 10
490.272
 20
176.787
 42
-0.279864
 10
490.392
 20
176.065
 42
-0.199728
 10
489.7
 20
175.357
 42
-0.0508152
 10
488.145
 20
174.923
 42
-0.0301241
 10
478.2919999999999
 20
174.233
 42
0.18833
 10
391.796
 20
136.639
 10
355.142
 20
161.456
 42
0.0170622
 10
352.302
 20
163.25
 42
0.0845366
 10
347.316
 20
165.422
 42
0.112537
 10
346.263
 20
165.428
 42
0.273411
 10
345.875
 20
165.011
 42
0.161834
 10
345.971
 20
164.0959999999999
 42
0.059179
 10
346.805
 20
162.805
 42
0.0529871
 10
352.038
 20
157.948
 42
-0.0148417
 10
406.102
 20
113.174
 42
0.0837864
 10
409.238
 20
111.117
 42
0.171074
 10
412.537
 20
110.756
 42
0.367767
 10
414.839
 20
114.419
 42
0.203715
 10
412.0119999999999
 20
119.138
 10
393.884
 20
133.884
 42
-0.120248
 10
478.961
 20
165.55
 10
449.0069999999999
 20
141.747
 42
0.105898
 10
447.1079999999999
 20
139.193
 42
0.0851526
 10
446.156
 20
135.99
 42
0.124659
 10
446.3569999999999
 20
133.874
 42
0.297842
 10
447.6469999999999
 20
132.91
 42
0.100128
 10
448.7659999999999
 20
133.078
 42
0.0904963
 10
455.341
 20
136.762
 42
-0.00661997
 10
463.824
 20
144.205
 42
-0.0459996
 10
512.326
 20
174.598
 10
568.824
 20
155.615
 10
529.998
 20
183.859
 10
599.8409999999999
 20
171.609
 10
598.733
 20
172.557
 10
571.9859999999999
 20
183.87
 42
-0.241807
 10
630.2759999999999
 20
185.037
 42
0.0742061
 10
634.2889999999999
 20
183.949
 42
0.0981457
 10
637.448
 20
183.997
 42
0.135665
 10
638.143
 20
184.372
 42
0.251213
 10
638.3079999999999
 20
184.996
 42
0.079707
 10
638.1739999999999
 20
185.362
 42
0.0474799
 10
637.8039999999999
 20
185.897
 42
0.0577325
 10
635.495
 20
187.837
 10
620.2
 20
198.362
 42
0.124669
 10
622.229
 20
197.69
 42
0.0907299
 10
628.134
 20
198.508
 42
0.0345312
 10
644.48
 20
205.316
 42
-0.0435339
 10
647.1
 20
206.363
 42
-0.30358
 10
647.5119999999999
 20
206.217
 42
-0.151477
 10
647.785
 20
205.443
 42
-0.0189807
 10
647.6679999999999
 20
201.98
 42
0.070072
 10
648.065
 20
191.177
 42
0.30119
 10
652.9109999999999
 20
186.272
 42
0.388075
 10
656.483
 20
188.144
 42
0.111199
 10
656.949
 20
191.908
 42
-1.29451
 10
681.318
 20
187.205
 42
0.0111442
 10
679.861
 20
184.003
 42
0.0528376
 10
678.8819999999999
 20
181.216
 42
0.232549
 10
679.028
 20
180.673
 42
0.374755
 10
679.4019999999999
 20
180.623
 42
0.0513612
 10
680.263
 20
181.391
 42
0.0351052
 10
686.6
 20
189.877
 42
0.0820083
 10
687.828
 20
192.641
 42
0.0590092
 10
688.3580000000001
 20
198.352
 42
-0.11075
 10
689.338
 20
203.634
 42
-0.516715
 10
718.108
 20
207.999
 42
0.0682209
 10
727.422
 20
201.293
 42
0.0746541
 10
729.8789999999999
 20
200.324
 42
0.286599
 10
730.5549999999999
 20
200.593
 42
0.2676
 10
730.64
 20
201.359
 10
730.2019999999999
 20
202.153
 42
0.0370687
 10
726.947
 20
206.107
 10
706.505
 20
228.098
 42
-0.202869
 10
739.4389999999999
 20
207.601
 42
0.0915881
 10
743.84
 20
202.93
 42
0.100773
 10
745.5219999999999
 20
202.208
 42
0.274454
 10
747.276
 20
202.748
 42
0.128917
 10
747.868
 20
203.984
 42
0.101517
 10
747.784
 20
206.802
 42
0.134241
 10
743.576
 20
214.167
 42
0.102268
 10
711.513
 20
236.432
 10
746.727
 20
254.049
 42
-0.0483292
 10
748.3589999999999
 20
254.679
 42
-0.083153
 10
749.375
 20
254.787
 42
-0.251363
 10
750.8760000000001
 20
253.924
 42
-0.118829
 10
751.483
 20
251.824
 42
-0.0426249
 10
751.45
 20
248.846
 10
750.044
 20
238.269
 42
0.0955981
 10
750.177
 20
234.291
 10
750.557
 20
233.461
 42
0.276914
 10
752.0089999999998
 20
232.815
 42
0.134164
 10
753.169
 20
233.236
 42
0.0876794
 10
754.7360000000001
 20
234.925
 42
0.0385463
 10
757.44
 20
240.212
 42
-0.0523708
 10
759.505
 20
244.094
 42
-0.0880472
 10
760.3419999999999
 20
244.931
 42
-0.324919
 10
761.7719999999999
 20
244.886
 42
-0.129291
 10
762.6519999999999
 20
243.743
 42
-0.0544149
 10
763.2569999999999
 20
241.879
 42
-0.0351264
 10
764.206
 20
231.028
 42
0.0557802
 10
764.909
 20
225.361
 42
0.108408
 10
765.495
 20
224.168
 42
0.252466
 10
765.6950000000001
 20
224.099
 42
0.226194
 10
765.8869999999999
 20
224.232
 42
0.0643295
 10
766.0889999999999
 20
224.811
 42
0.0107852
 10
766.823
 20
229.499
 42
-0.071232
 10
767.7999999999999
 20
233.016
 42
-0.4140890000000001
 10
780.753
 20
236.43
 42
0.0604068
 10
811.1879999999999
 20
222.904
 10
813.587
 20
222.203
 42
0.0618254
 10
817.978
 20
221.321
 42
0.2741989999999999
 10
818.654
 20
221.698
 42
0.317892
 10
818.593
 20
222.38
 42
0.0464088
 10
817.285
 20
223.57
 42
0.0269153
 10
805.783
 20
230.835
 10
770.5989999999999
 20
250.982
 42
-0.0950444
 10
749.063
 20
269.253
 10
821.344
 20
268.038
 42
0.0345135
 10
826.257
 20
268.281
 42
0.0900113
 10
830.7949999999999
 20
269.465
 42
0.10526
 10
831.7289999999999
 20
270.197
 42
0.316218
 10
831.8139999999999
 20
271.554
 42
0.101826
 10
830.8189999999999
 20
272.625
 42
0.0699795
 10
825.7689999999998
 20
275.1409999999999
 42
0.100915
 10
786.932
 20
281.352
 10
785.3660000000001
 20
281.316
 42
-0.0859241
 10
782.4919999999999
 20
281.621
 42
-0.205218
 10
781.937
 20
282.125
 42
-0.2609780000000001
 10
781.9860000000001
 20
282.728
 42
-0.0720344
 10
782.7089999999999
 20
283.458
 42
-0.0357755
 10
786.9489999999999
 20
285.999
 42
0.0412302
 10
788.081
 20
286.6690000000001
 42
-0.14553
 10
881.539
 20
324.489
 42
0.605152
 10
881.5610000000001
 20
324.543
 42
0.140687
 10
881.4049999999999
 20
324.648
 42
0.0205512
 10
878.824
 20
325.233
 42
0.0130142
 10
874.1480000000001
 20
326.049
 42
0.0281589
 10
870.814
 20
326.443
 10
839.6729999999999
 20
326.235
 42
-0.4270920000000001
 10
839.6260000000001
 20
326.283
 42
-0.0607994
 10
839.6889999999999
 20
326.679
 42
-0.0247624
 10
841.3860000000001
 20
330.751
 42
-0.00798141
 10
847.405
 20
343.358
 42
-0.2792699999999999
 10
862.7269999999999
 20
353.107
 10
918.304
 20
362.012
 42
0.0457715
 10
926.9769999999999
 20
364.607
 42
0.0779955
 10
928.9349999999998
 20
365.717
 42
0.233347
 10
929.226
 20
366.414
 42
0.263684
 10
928.8560000000002
 20
366.983
 10
928.2049999999999
 20
367.229
 42
0.0578122
 10
922.3919999999999
 20
367.794
 42
0.0330339
 10
881.468
 20
365.8640000000001
 42
-0.0607239
 10
880.03
 20
365.822
 42
-0.280154
 10
879.776
 20
366.038
 42
-0.283219
 10
879.8510000000002
 20
366.3590000000001
 42
-0.0574672
 10
880.7630000000001
 20
367.009
 42
-0.0393084
 10
888.367
 20
370.33
 42
-0.0470518
 10
892.314
 20
371.486
 10
937.2769999999999
 20
377.325
 42
0.0800211
 10
942.619
 20
378.582
 42
0.10961
 10
943.435
 20
379.174
 10
943.59
 20
379.481
 42
0.227732
 10
943.435
 20
380.101
 10
943.14
 20
380.411
 42
0.0622959
 10
942.1560000000001
 20
381.017
 42
0.0661358
 10
935.3699999999999
 20
382.765
 42
0.0657946
 10
894.331
 20
383.311
 10
892.5310000000001
 20
383.129
 42
-0.0747525
 10
887.6689999999999
 20
383.258
 42
-0.111529
 10
886.4910000000001
 20
383.784
 42
-0.194616
 10
886.0319999999999
 20
384.576
 42
-0.131645
 10
886.208
 20
385.602
 42
-0.0598012
 10
886.931
 20
386.833
 42
-0.0493271
 10
892.5269999999999
 20
392.3030000000001
 42
-0.182234
 10
895.4270000000001
 20
393.424
 42
-0.0844888
 10
898.7999999999999
 20
392.657
 42
0.0683515
 10
902.0660000000001
 20
391.742
 42
0.191972
 10
936.691
 20
402.3799999999999
 42
0.0909881
 10
940.375
 20
406.183
 42
0.098391
 10
940.7810000000001
 20
407.2499999999999
 42
0.2870789999999999
 10
940.3489999999999
 20
408.346
 42
0.111502
 10
939.4160000000001
 20
408.7329999999999
 42
0.0566424
 10
938.006
 20
408.8379999999999
 42
0.0689262
 10
931.2389999999998
 20
407.4089999999999
 10
904.3639999999999
 20
398.616
 42
-0.0186688
 10
940.557
 20
424.472
 42
0.0618425
 10
945.091
 20
427.901
 42
0.363153
 10
945.1239999999998
 20
428.659
 42
0.243566
 10
944.166
 20
429.1109999999999
 42
0.0247522
 10
940.0669999999999
 20
428.553
 42
-0.0153867
 10
930.9139999999999
 20
427.2519999999999
 42
-0.092088
 10
926.3189999999999
 20
427.577
 42
-0.170388
 10
924.497
 20
428.758
 42
-0.269396
 10
924.411
 20
429.666
 42
-0.109369
 10
925.1879999999999
 20
430.653
 42
-0.0384753
 10
926.5939999999998
 20
431.6969999999999
 10
933.106
 20
435.4759999999999
 42
0.0914319
 10
934.9069999999999
 20
436.9869999999999
 10
935.1619999999998
 20
437.455
 42
0.282244
 10
934.978
 20
438.323
 10
934.482
 20
438.717
 42
0.00594829
 10
932.623
 20
439.758
 42
-0.0728839
 10
930.437
 20
441.229
 42
-0.17403
 10
929.176
 20
444.058
 42
-0.0507305
 10
929.218
 20
450.0329999999999
 10
930.93
 20
472.538
 10
931.061
 20
473.489
 42
-0.197979
 10
931.6389999999998
 20
474.3119999999999
 42
-0.27934
 10
932.3780000000001
 20
474.328
 42
-0.0655426
 10
933.4119999999998
 20
473.4569999999999
 42
0.0073718
 10
937.3269999999999
 20
469.026
 42
0.103216
 10
939.3889999999998
 20
467.513
 42
0.173511
 10
940.6719999999999
 20
467.4039999999999
 42
0.175115
 10
941.815
 20
468.339
 42
-0.181471
 10
948.0919999999999
 20
473.31
 42
-0.067746
 10
950.891
 20
473.761
 42
-0.0868423
 10
959.898
 20
472.025
 42
0.0469302
 10
970.738
 20
468.916
 42
-1.06906
 10
967.206
 20
451.829
 42
-0.0634734
 10
961.082
 20
454.85
 42
0.0698135
 10
953.5139999999998
 20
458.5919999999999
 42
0.346599
 10
944.6339999999999
 20
455.2419999999999
 42
0.131861
 10
944.133
 20
453.698
 42
0.196518
 10
944.992
 20
451.7459999999999
 42
0.0998889
 10
948.3349999999999
 20
449.725
 42
0.0375757
 10
959.016
 20
446.8799999999999
 10
1013.2
 20
435.038
 42
-0.8062819999999998
 10
1013.19
 20
427.299
 10
974.4659999999999
 20
418.9559999999999
 10
974.0679999999999
 20
418.8979999999999
 42
-0.0443699
 10
971.611
 20
419.0599999999999
 42
0.0536305
 10
969.237
 20
419.2219999999999
 42
0.0901666
 10
968.5719999999999
 20
419.0599999999999
 42
0.288534
 10
968.1139999999999
 20
418.369
 42
0.102227
 10
968.2780000000001
 20
417.5159999999999
 42
0.0465341
 10
968.904
 20
416.273
 42
-0.0453225
 10
970.8300000000001
 20
412.256
 42
0.0316892
 10
972.2489999999998
 20
408.7189999999999
 42
0.213727
 10
974.418
 20
406.808
 42
0.049749
 10
985.444
 20
405.3169999999999
 42
-0.0668815
 10
998.4099999999999
 20
403.314
 42
-0.179551
 10
1003.64
 20
399.342
 10
1003.96
 20
398.648
 42
-0.261529
 10
1003.79
 20
397.867
 42
-0.178611
 10
1002.79
 20
397.336
 42
-0.0439537
 10
999.934
 20
397.377
 42
0.052391
 10
988.8560000000001
 20
397.7990000000001
 42
0.133052
 10
984.0389999999999
 20
396.005
 42
0.126965
 10
982.141
 20
393.821
 42
0.263418
 10
982.309
 20
391.215
 42
0.116958
 10
984.786
 20
388.984
 42
0.0693044
 10
994.406
 20
385.462
 42
-0.222466
 10
1026.75
 20
359.698
 42
-0.0285256
 10
969.7689999999999
 20
369.533
 42
0.0706893
 10
965.7009999999999
 20
369.953
 42
0.131021
 10
962.964
 20
369.181
 42
0.246989
 10
961.8989999999998
 20
367.382
 42
0.126286
 10
962.401
 20
365.459
 42
0.0962266
 10
966.1430000000001
 20
361.369
 10
990.0739999999998
 20
342.353
 42
-0.031796
 10
995.034
 20
337.3
 42
-0.0723895
 10
995.77
 20
336.221
 42
-0.4204290000000001
 10
995.672
 20
335.991
 42
-0.190245
 10
995.185
 20
335.992
 10
994.6660000000001
 20
336.234
 42
0.246127
 10
953.3839999999999
 20
335.919
 42
-0.0640227
 10
999.723
 20
283.815
 10
1000.23
 20
282.55
 42
-0.143386
 10
1000.33
 20
280.615
 42
-0.235941
 10
998.6260000000001
 20
278.994
 42
-0.0827251
 10
995.382
 20
278.578
 42
-0.0731561
 10
982.681
 20
281.337
 42
0.0695513
 10
928.785
 20
295.479
 42
0.0991598
 10
920.443
 20
295.353
 42
0.10779
 10
918.955
 20
294.62
 42
0.198058
 10
918.4089999999999
 20
293.625
 42
0.158421
 10
918.7280000000001
 20
292.457
 42
0.0970384
 10
920.6619999999999
 20
290.567
 42
0.0948812
 10
928.824
 20
287.364
 10
1000.97
 20
272.034
 42
-0.0799745
 10
917.7419999999999
 20
271.214
 42
-0.174988
 10
942.2
 20
224.089
 10
942.3919999999998
 20
221.497
 42
-0.099849
 10
941.7639999999998
 20
217.69
 42
-0.239086
 10
938.803
 20
214.975
 42
-0.126063
 10
934.233
 20
215.146
 42
-0.11533
 10
922.4619999999999
 20
222.288
 42
-0.0997958
 10
918.5219999999999
 20
227.573
 10
900.6629999999999
 20
272.469
 42
0.0837107
 10
897.846
 20
277.439
 42
0.186101
 10
893.636
 20
280.074
 42
0.234467
 10
888.723
 20
278.198
 42
0.20853
 10
885.213
 20
267.318
 42
0.15423
 10
886.167
 20
264.839
 42
0.091351
 10
889.1849999999999
 20
262.456
 42
-0.0349518
 10
892.8319999999999
 20
260.259
 42
-0.146093
 10
913.03
 20
230.688
 42
-0.0792969
 10
913.8139999999999
 20
227.04
 42
-0.1782
 10
913.436
 20
225.999
 42
-0.244654
 10
912.6699999999999
 20
225.683
 42
-0.075923
 10
911.3649999999999
 20
226.073
 42
-0.0117274
 10
905.6080000000001
 20
229.188
 42
0.0957338
 10
900.056
 20
231.134
 42
-0.0617433
 10
892.164
 20
232.7
 42
-0.212838
 10
881.9450000000001
 20
242.668
 42
0.6981960000000001
 10
867.651
 20
241.339
 42
0.151043
 10
867.928
 20
236.756
 42
0.11572
 10
873.099
 20
229.643
 42
-0.175597
 10
886.1110000000001
 20
204.709
 42
-0.064168
 10
886.1460000000001
 20
202.873
 42
-0.249835
 10
884.4549999999999
 20
200.166
 42
-0.112088
 10
881.8719999999999
 20
199.465
 42
-0.0563012
 10
875.225
 20
200.145
 42
0.190769
 10
844.1789999999999
 20
193.754
 42
0.177312
 10
843.1410000000001
 20
192.36
 42
0.311788
 10
843.468
 20
191.361
 10
844.2760000000001
 20
190.894
 42
0.0423082
 10
846.7639999999999
 20
190.064
 42
0.0108831
 10
858.0139999999998
 20
187.828
 42
-0.069881
 10
866.4419999999999
 20
185.314
 42
-0.11215
 10
868.228
 20
183.903
 42
-0.143751
 10
880.539
 20
148.905
 10
880.6030000000001
 20
146.884
 42
-0.0754947
 10
880.194
 20
142.702
 42
-0.116466
 10
879.4580000000001
 20
141.258
 42
-0.17125
 10
878.3839999999999
 20
140.679
 42
-0.103406
 10
877.002
 20
140.785
 42
-0.0448697
 10
874.4139999999999
 20
141.835
 42
0.0558985
 10
866.472
 20
145.297
 42
0.0770049
 10
852.9860000000001
 20
145.954
 42
-0.103088
 10
840.404
 20
147.0679999999999
 42
-0.318166
 10
828.031
 20
165.408
 10
804.3929999999999
 20
174.309
 42
0.216555
 10
803.3689999999999
 20
174.286
 42
0.155496
 10
802.6199999999999
 20
173.482
 42
0.0789573
 10
802.1799999999998
 20
172.091
 42
0.145988
 10
803.064
 20
166.342
 42
0.352358
 10
810.669
 20
162.262
 42
-0.645345
 10
823.483
 20
141.727
 10
823.1660000000001
 20
141.154
 42
0.0250104
 10
822.4529999999999
 20
139.38
 42
-0.0159325
 10
817.9619999999999
 20
126.089
 42
-0.0917375
 10
816.553
 20
123.708
 42
-0.26911
 10
815.6869999999999
 20
123.469
 42
-0.213301
 10
814.826
 20
124.16
 10
802.335
 20
148.512
 10
802.7469999999999
 20
147.208
 42
-0.0320855
 10
804.2869999999998
 20
139.205
 42
-0.0753205
 10
804.4869999999999
 20
130.054
 42
-0.104925
 10
803.611
 20
127.647
 42
-0.23484
 10
801.941
 20
126.631
 42
-0.0963167
 10
800.885
 20
126.75
 42
-0.0589648
 10
799.3099999999999
 20
127.456
 42
-0.0606722
 10
795.554
 20
130.572
 42
-0.10537
 10
766.705
 20
175.456
 42
0.0340471
 10
762.793
 20
183.7809999999999
 42
0.0610937
 10
761.676
 20
185.418
 42
0.4278750000000001
 10
761.3389999999999
 20
185.415
 42
0.211641
 10
761.1399999999999
 20
184.847
 42
0.0409451
 10
762.3289999999999
 20
179.66
 42
0.0343284
 10
783.498
 20
120.85
 42
-0.0210277
 10
785.883
 20
114.439
 42
-0.0458366
 10
786.9149999999999
 20
110.54
 42
-0.348239
 10
786.7260000000001
 20
110.241
 42
-0.315024
 10
786.358
 20
110.345
 10
785.941
 20
110.922
 42
-0.0207119
 10
783.8630000000001
 20
114.569
 42
0.0333583
 10
756.696
 20
158.75
 42
0.0224015
 10
755.2389999999999
 20
160.651
 42
0.0642457
 10
754.305
 20
161.554
 42
0.343873
 10
753.9189999999999
 20
161.522
 42
0.225474
 10
753.711
 20
161.007
 42
0.0413627
 10
753.903
 20
159.878
 42
0.0413306
 10
756.797
 20
152.084
 42
-0.0264959
 10
769.779
 20
120.585
 10
770.301
 20
118.833
 42
-0.10811
 10
770.453
 20
116.416
 42
-0.227155
 10
769.611
 20
115.212
 42
-0.136377
 10
768.013
 20
114.935
 42
-0.0523747
 10
764.7139999999999
 20
115.629
 42
0.0315146
 10
758.7889999999999
 20
117.363
 42
0.0865093
 10
756.96
 20
117.423
 42
0.352565
 10
755.5349999999999
 20
115.94
 42
-0.244962
 10
751.9169999999999
 20
110.76
 42
-0.10528
 10
744.621
 20
109.041
 42
-0.033568
 10
726.8189999999999
 20
110.233
 42
0.185524
 10
684.021
 20
97.94450000000001
 42
0.189054
 10
681.0489999999999
 20
92.4943
 42
0.0350788
 10
680.71
 20
84.9726
 42
-0.0940996
 10
680.2760000000001
 20
82.24209999999999
 42
-0.175815
 10
679.428
 20
81.21999999999999
 42
-0.167881
 10
677.896
 20
81.04840000000001
 42
-0.0721146
 10
675.481
 20
81.90940000000001
 10
656.813
 20
91.08819999999999
 42
0.8252149999999998
 10
654.4059999999999
 20
87.90739999999999
 10
667.3860000000001
 20
73.4626
 10
668.067
 20
72.5839
 42
-0.144036
 10
668.578
 20
71.12770000000001
 42
-0.263711
 10
667.598
 20
69.6474
 42
-0.0773328
 10
666.0789999999999
 20
69.09159999999999
 42
-0.134476
 10
656.578
 20
70.09959999999999
 42
-0.12658
 10
654.5880000000001
 20
71.4363
 42
0.157163
 10
606.36
 20
102.987
 42
0.188748
 10
606.153
 20
102.966
 42
0.136843
 10
605.946
 20
102.772
 42
0.0946972
 10
605.702
 20
101.957
 42
0.0948959
 10
606.2919999999999
 20
96.57859999999999
 42
0.128284
 10
608.211
 20
93.009
 42
0.248939
 10
610.729
 20
92.1508
 42
-0.236303
 10
620.235
 20
89.291
 42
-0.265525
 10
622.6559999999999
 20
82.5655
 42
-0.209221
 10
618.979
 20
78.05759999999999
 42
0.0550873
 10
612.82
 20
73.1417
 42
-0.0757551
 10
607.5599999999999
 20
68.9846
 42
-0.341385
 10
601.5729999999999
 20
69.9128
 42
-0.144674
 10
600.393
 20
73.0881
 42
-0.0429743
 10
600.508
 20
79.2681
 42
0.0701433
 10
600.3869999999999
 20
84.0132
 42
0.148298
 10
599.4279999999999
 20
85.98930000000001
 42
-0.0495556
 10
598.163
 20
87.71210000000001
 42
-0.0189753
 10
594.24
 20
95.60030000000001
 42
0.0525244
 10
593.4529999999999
 20
96.94670000000002
 42
0.325744
 10
593.139
 20
97.0316
 42
0.278688
 10
592.9119999999999
 20
96.7398
 10
592.869
 20
96.0316
 42
0.0279322
 10
593.1609999999999
 20
91.9175
 42
-0.053437
 10
593.766
 20
80.3439
 42
-0.103792
 10
592.979
 20
77.593
 42
-0.230546
 10
591.242
 20
76.2488
 42
-0.122685
 10
588.677
 20
76.4433
 42
-0.0660364
 10
584.206
 20
78.71970000000001
 10
574.273
 20
86.05490000000001
 42
0.0923395
 10
568.0089999999999
 20
89.18700000000001
 42
0.124377
 10
565.2869999999999
 20
89.168
 42
0.198977
  0
LWPOLYLINE
  5
552
330
22
100
AcDbEntity
  8
0
100
AcDbPolyline
 90
       92
 70
     1
 43
0.0
 10
494.6359999999999
 20
188.234
 42
0.181364
 10
410.343
 20
186.856
 10
304.44
 20
207.51
 10
280.864
 20
221.557
 42
-0.357787
 10
264.985
 20
278.654
 42
-0.0216953
 10
268.143
 20
284.38
 42
0.0405271
 10
273.629
 20
295.278
 42
-0.212579
 10
325.404
 20
345.136
 42
0.0202379
 10
339.761
 20
351.005
 42
0.0816183
 10
342.974
 20
353.163
 42
-0.104236
 10
460.25
 20
424.5159999999999
 10
459.588
 20
424.1369999999999
 42
0.0437189
 10
454.4649999999999
 20
420.0
 42
0.0781065
 10
451.2430000000001
 20
416.138
 42
0.0965344
 10
450.7819999999999
 20
414.7949999999999
 42
0.198483
 10
451.0609999999999
 20
413.719
 42
0.159251
 10
452.2569999999999
 20
413.0119999999999
 42
0.307154
 10
484.332
 20
422.3519999999999
 42
-0.245981
 10
552.584
 20
449.365
 42
-0.0391925
 10
555.922
 20
448.7969999999999
 42
-0.0981884
 10
557.77
 20
447.9739999999999
 42
-0.29493
 10
558.42
 20
446.245
 42
-0.0702201
 10
557.885
 20
444.7519999999999
 42
0.00846198
 10
555.872
 20
440.9159999999999
 42
0.239201
 10
555.717
 20
431.318
 42
-0.0535304
 10
558.259
 20
424.7489999999999
 42
-0.120528
 10
558.368
 20
421.2469999999999
 42
-0.145181
 10
556.0909999999999
 20
417.827
 42
-0.0301888
 10
549.817
 20
413.189
 42
0.114595
 10
475.823
 20
331.412
 42
-0.0370486
 10
469.796
 20
322.24
 42
-0.0585467
 10
464.9399999999999
 20
317.256
 42
0.337401
 10
449.795
 20
254.968
 42
-0.02468
 10
451.921
 20
249.53
 42
-0.0454302
 10
454.1409999999999
 20
236.675
 42
0.480066
 10
521.5819999999999
 20
197.345
 42
0.0343161
 10
525.243
 20
198.947
 42
0.0742214
 10
526.349
 20
199.715
 42
0.294776
 10
526.442
 20
200.226
 42
0.202681
 10
525.9259999999999
 20
200.733
 42
0.0436192
 10
524.65
 20
201.075
 42
-0.00850934
 10
514.0219999999999
 20
202.632
 42
-0.5392630000000001
 10
471.9009999999999
 20
306.87
 42
-0.014406
 10
509.471
 20
356.4430000000001
 42
-0.00981225
 10
511.428
 20
358.937
 42
-0.069509
 10
513.2889999999999
 20
360.857
 10
513.704
 20
361.085
 42
-0.248222
 10
514.351
 20
361.031
 42
-0.0715837
 10
514.5679999999999
 20
360.846
 42
-0.0381776
 10
514.889
 20
360.422
 42
-0.0108591
 10
515.481
 20
359.404
 42
0.192956
 10
521.6689999999999
 20
354.1780000000001
 42
-0.106099
 10
547.102
 20
338.13
 10
548.1359999999999
 20
337.046
 42
-0.0817169
 10
549.249
 20
335.394
 10
549.384
 20
334.789
 42
-0.24992
 10
548.944
 20
333.929
 10
548.4239999999999
 20
333.6359999999999
 42
-0.0528484
 10
546.9209999999999
 20
333.233
 42
0.029824
 10
540.659
 20
332.138
 42
0.6010780000000001
 10
538.0740000000001
 20
321.069
 42
0.0710998
 10
545.059
 20
316.731
 42
0.106615
 10
627.738
 20
296.327
 42
-0.132297
 10
648.9149999999999
 20
291.229
 42
0.0806853
 10
709.74
 20
269.441
 42
0.133069
 10
717.426
 20
270.515
 42
0.122285
 10
720.1939999999999
 20
272.427
 42
0.132309
 10
720.733
 20
273.632
 42
0.204427
 10
720.0219999999999
 20
275.671
 42
0.0888112
 10
716.993
 20
277.907
 10
694.6310000000001
 20
289.688
 10
776.6219999999999
 20
288.877
 10
720.237
 20
260.721
 42
-0.14713
 10
617.957
 20
244.743
 10
616.2859999999999
 20
244.989
 42
0.0822766
 10
610.634
 20
245.14
 42
0.110774
 10
609.579
 20
244.716
 42
0.215358
 10
609.1779999999999
 20
244.028
 42
0.140767
 10
609.4069999999999
 20
243.084
 42
0.0602629
 10
610.2419999999999
 20
241.893
 42
0.0537248
 10
616.1459999999999
 20
236.923
 42
0.187215
 10
658.057
 20
226.109
 42
-0.0733701
 10
661.9149999999999
 20
226.221
 42
-0.20324
 10
662.7019999999999
 20
225.721
 42
-0.304266
 10
662.71
 20
225.067
 42
-0.0714928
 10
661.821
 20
224.151
 42
-0.0522644
 10
654.8029999999999
 20
220.113
 10
654.631
 20
220.051
 10
618.12
 20
215.216
 42
0.0715801
 10
615.1589999999999
 20
214.387
 42
0.074254
 10
609.5629999999999
 20
210.362
 42
-0.1239
 10
599.691
 20
204.384
 42
-0.0570886
  0
LWPOLYLINE
  5
5B0
330
22
100
AcDbEntity
  8
0
100
AcDbPolyline
 90
       15
 70
     1
 43
0.0
 10
593.175
 20
212.646
 42
-0.292684
 10
552.4159999999999
 20
209.844
 42
-0.22547
 10
526.851
 20
234.571
 42
-0.0831057
 10
525.9619999999999
 20
238.239
 42
-0.114437
 10
526.1469999999999
 20
239.232
 42
-0.17785
 10
526.675
 20
239.757
 42
-0.122267
 10
527.4869999999999
 20
239.882
 42
-0.0599475
 10
528.526
 20
239.676
 42
-0.0585259
 10
533.778
 20
236.915
 42
0.126705
 10
589.103
 20
219.043
 42
-0.0369647
 10
595.6529999999999
 20
218.395
 42
-0.103232
 10
597.2269999999999
 20
217.802
 42
-0.175917
 10
597.682
 20
217.218
 42
-0.181673
 10
597.5769999999999
 20
216.443
 42
-0.0808185
 10
596.84
 20
215.445
 42
-0.0540503
  0
LWPOLYLINE
  5
5C1
330
22
100
AcDbEntity
  8
0
100
AcDbPolyline
 90
        9
 70
     1
 43
0.0
 10
680.348
 20
214.348
 10
681.3749999999999
 20
214.072
 42
-0.352723
 10
681.713
 20
213.335
 42
-0.263996
 10
681.0
 20
212.592
 10
678.3669999999999
 20
212.459
 42
-0.0231788
 10
670.325
 20
212.5
 10
669.088
 20
212.589
 42
-0.400697
 10
668.567
 20
213.442
 42
-0.305717
 10
669.4580000000001
 20
214.295
 42
-0.0256015
  0
LWPOLYLINE
  5
5CC
330
22
100
AcDbEntity
  8
0
100
AcDbPolyline
 90
       18
 70
     1
 43
0.0
 10
684.4819999999999
 20
225.344
 42
-0.384552
 10
683.365
 20
223.404
 10
682.302
 20
223.162
 42
0.0197214
 10
679.648
 20
222.464
 42
0.03898
 10
678.1299999999999
 20
221.908
 42
-0.0338705
 10
676.816
 20
221.41
 42
-0.0857749
 10
673.0599999999999
 20
221.095
 42
-0.14577
 10
669.8639999999999
 20
222.151
 42
-0.0389798
 10
668.67
 20
223.195
 42
-0.0222776
 10
666.8219999999999
 20
225.26
 10
666.068
 20
226.313
 42
-0.185582
 10
665.807
 20
228.161
 42
-0.254965
 10
666.8689999999998
 20
229.229
 42
-0.0591323
 10
667.51
 20
229.38
 42
-0.0221429
 10
669.2610000000001
 20
229.503
 42
-0.0181005
 10
677.1039999999999
 20
229.352
 10
679.215
 20
229.323
 42
-0.117708
 10
682.39
 20
228.255
 42
-0.218635
  0
LWPOLYLINE
  5
5E0
330
22
100
AcDbEntity
  8
0
100
AcDbPolyline
 90
       15
 70
     1
 43
0.0
 10
971.033
 20
241.606
 42
0.0265361
 10
961.603
 20
247.224
 42
-0.066527
 10
955.1019999999999
 20
252.854
 42
-0.188288
 10
954.4999999999999
 20
254.312
 42
-0.340187
 10
955.0589999999999
 20
255.069
 10
956.0529999999999
 20
255.262
 42
-0.126754
 10
964.2239999999999
 20
254.122
 42
-0.0058632
 10
968.7610000000001
 20
252.226
 42
-0.0738971
 10
981.217
 20
245.621
 42
-0.0820832
 10
982.864
 20
244.048
 42
-0.25938
 10
983.257
 20
241.722
 42
-0.172497
 10
982.6529999999999
 20
240.925
 42
-0.114305
 10
981.2610000000001
 20
240.411
 42
-0.0441815
 10
974.2749999999999
 20
240.572
 42
-0.0508996
 10
972.493
 20
240.946
 42
-0.0578505
  0
LWPOLYLINE
  5
5F1
330
22
100
AcDbEntity
  8
0
100
AcDbPolyline
 90
       11
 70
     1
 43
0.0
 10
206.291
 20
300.4770000000001
 42
-0.0799942
 10
244.069
 20
293.295
 10
244.897
 20
292.913
 42
-0.3414
 10
245.145
 20
292.243
 42
-0.205061
 10
244.423
 20
291.4
 42
-0.0417257
 10
242.46
 20
290.683
 42
-0.0385041
 10
227.842
 20
288.265
 42
-0.0366525
 10
225.691
 20
288.148
 42
-0.0340018
 10
145.717
 20
300.027
 42
-0.0959965
 10
189.183
 20
301.106
 42
0.0324716
 10
190.235
 20
300.998
  0
LWPOLYLINE
  5
5FE
330
22
100
AcDbEntity
  8
0
100
AcDbPolyline
 90
       62
 70
     1
 43
0.0
 10
841.8129999999999
 20
351.37
 42
-0.119668
 10
785.765
 20
295.305
 42
-0.0849874
 10
782.37
 20
293.83
 42
-0.124919
 10
778.1119999999999
 20
294.168
 42
0.0860021
 10
765.444
 20
295.8
 42
-0.12049
 10
715.692
 20
306.4890000000001
 42
-0.0465558
 10
711.44
 20
308.879
 42
-0.0908433
 10
710.206
 20
310.071
 42
-0.3207
 10
710.196
 20
311.55
 42
-0.0738418
 10
711.091
 20
312.499
 10
713.227
 20
314.161
 42
0.182166
 10
718.0010000000001
 20
321.193
 42
0.147911
 10
715.445
 20
356.326
 42
-0.0221601
 10
714.051
 20
360.326
 42
-0.0966624
 10
713.694
 20
363.043
 42
-0.257619
 10
714.7260000000001
 20
364.593
 42
-0.0964333
 10
716.6239999999999
 20
365.057
 42
-0.0476278
 10
722.3669999999999
 20
364.643
 42
-0.0813023
 10
743.6519999999999
 20
357.902
 42
0.123916
 10
750.758
 20
356.3080000000001
 42
0.0533947
 10
761.186
 20
358.184
 42
-0.378444
 10
799.0299999999999
 20
337.707
 42
1.587439999999999
 10
813.526
 20
340.907
 42
0.278775
 10
724.681
 20
383.4890000000001
 42
0.0461549
 10
721.5919999999999
 20
382.926
 42
0.0906043
 10
720.6310000000001
 20
382.487
 42
0.277709
 10
720.475
 20
382.06
 42
0.185321
 10
720.8219999999999
 20
381.505
 42
0.0508811
 10
721.74
 20
380.983
 42
0.035677
 10
729.062
 20
378.722
 10
749.033
 20
373.605
 42
-0.9400229999999998
 10
748.322
 20
369.8869999999999
 10
670.038
 20
381.136
 42
0.7586970000000001
 10
647.717
 20
328.459
 42
0.175499
 10
690.148
 20
315.3
 42
-0.0810383
 10
691.6939999999999
 20
315.059
 42
-0.211829
 10
695.9839999999999
 20
310.743
 42
-0.161683
 10
696.3839999999999
 20
307.465
 42
-0.329935
 10
694.35
 20
305.715
 10
668.6869999999999
 20
302.457
 42
-0.0541627
 10
662.732
 20
302.35
 42
-0.0395199
 10
654.6969999999999
 20
303.722
 42
-0.100355
 10
519.018
 20
368.961
 42
-0.250887
 10
629.966
 20
426.6399999999999
 42
-0.134634
 10
744.4189999999999
 20
393.78
 42
0.391373
 10
912.1110000000001
 20
469.5969999999999
 10
912.8560000000002
 20
471.3630000000001
 42
-0.0546479
 10
915.163
 20
475.816
 42
-0.0885469
 10
915.793
 20
476.4419999999999
 42
-0.204321
 10
916.2119999999999
 20
476.503
 42
-0.193182
 10
916.5689999999999
 20
476.236
 42
-0.0908494
 10
916.9169999999999
 20
475.0969999999999
 42
-0.0379604
 10
917.088
 20
471.4809999999999
 10
916.773
 20
451.102
 42
-0.115141
 10
915.737
 20
447.426
 42
-0.0269364
 10
912.082
 20
442.0219999999999
 42
0.137408
 10
910.072
 20
437.103
 42
-0.350695
 10
888.2339999999999
 20
413.105
 42
-0.0514457
 10
881.1429999999999
 20
412.7139999999999
 42
0.052746
 10
873.8739999999999
 20
412.294
 42
0.856493
 10
874.0489999999999
 20
392.472
 42
-0.174278
 10
851.7260000000002
 20
362.499
 42
0.116641
  0
LWPOLYLINE
  5
63E
330
22
100
AcDbEntity
  8
0
100
AcDbPolyline
 90
       12
 70
     1
 43
0.0
 10
199.407
 20
352.942
 42
-0.4323990000000001
 10
227.081
 20
301.637
 42
-0.132066
 10
170.49
 20
340.912
 42
-0.128791
 10
206.181
 20
324.037
 10
207.388
 20
323.097
 42
0.0741326
 10
209.237
 20
322.086
 42
0.0747097
 10
209.952
 20
321.97
 42
0.115544
 10
210.412
 20
322.071
 42
0.214148
 10
211.013
 20
322.858
 42
0.0847313
 10
211.137
 20
324.252
 42
0.0592932
 10
210.348
 20
328.079
 42
0.0686791
 10
207.691
 20
334.051
  0
LWPOLYLINE
  5
64C
330
22
100
AcDbEntity
  8
0
100
AcDbPolyline
 90
       47
 70
     1
 43
0.0
 10
657.9789999999999
 20
371.209
 42
-0.425207
 10
694.013
 20
349.947
 42
0.306102
 10
694.279
 20
349.703
 42
0.306535
 10
694.6039999999999
 20
349.859
 42
0.0384946
 10
695.187
 20
351.202
 42
-0.0160351
 10
697.6469999999999
 20
357.886
 42
-0.0886154
 10
699.1649999999999
 20
360.43
 10
699.6979999999999
 20
360.851
 42
-0.306241
 10
700.7919999999999
 20
360.775
 10
701.3489999999999
 20
360.185
 42
-0.0718336
 10
702.47
 20
357.67
 10
709.243
 20
336.539
 42
-0.365043
 10
668.074
 20
331.131
 42
-0.0535868
 10
663.753
 20
334.26
 42
-0.0869442
 10
663.1879999999999
 20
335.02
 42
-0.206807
 10
663.168
 20
335.982
 42
-0.0414748
 10
663.51
 20
336.665
 42
0.170375
 10
664.82
 20
342.14
 42
0.198869
 10
663.812
 20
344.627
 42
0.138379
 10
661.518
 20
345.716
 42
0.0618843
 10
656.243
 20
345.754
 42
-0.0449557
 10
651.226
 20
345.528
 42
-0.0868841
 10
649.828
 20
345.869
 42
-0.182592
 10
649.0059999999999
 20
346.6740000000001
 42
-0.228236
 10
649.004
 20
347.222
 42
-0.126278
 10
649.449
 20
347.703
 42
-0.0491141
 10
650.2349999999999
 20
348.134
 42
-0.0116247
 10
654.129
 20
349.484
 42
0.0751171
 10
655.8819999999999
 20
350.344
 42
0.139218
 10
656.2829999999999
 20
350.852
 42
0.253743
 10
656.176
 20
351.4969999999999
 42
0.101226
 10
655.905
 20
351.733
 42
0.0601415
 10
655.349
 20
351.965
 42
0.0537149
 10
653.159
 20
352.202
 42
-0.0118176
 10
648.065
 20
352.2
 42
-0.0718561
 10
646.956
 20
352.415
 42
-0.299641
 10
646.621
 20
352.903
 42
-0.187191
 10
646.9299999999999
 20
353.749
 42
-0.0509773
 10
648.451
 20
355.0619999999999
 10
660.932
 20
364.257
 42
0.430161
 10
660.9479999999999
 20
364.385
 42
0.0841607
 10
660.5239999999999
 20
364.7530000000001
 42
0.0124157
 10
658.312
 20
365.906
 42
-0.0747873
 10
655.313
 20
367.854
 42
-0.11859
 10
654.738
 20
368.709
 42
-0.226686
 10
654.846
 20
369.571
 42
-0.130569
 10
655.8530000000001
 20
370.412
 42
-0.0541343
  0
LWPOLYLINE
  5
67D
330
22
100
AcDbEntity
  8
0
100
AcDbPolyline
 90
      152
 70
     1
 43
0.0
 10
801.3810000000001
 20
438.6909999999999
 42
0.390913
 10
800.9169999999999
 20
409.1359999999999
 10
801.7719999999998
 20
408.0759999999999
 42
-0.0977301
 10
802.6289999999999
 20
406.3489999999999
 42
-0.289332
 10
802.1269999999999
 20
404.609
 42
-0.10187
 10
800.875
 20
403.9139999999999
 42
-0.0564174
 10
798.0839999999999
 20
403.3959999999999
 42
-0.0151422
 10
789.0319999999999
 20
403.4319999999999
 42
-0.166747
 10
681.97
 20
434.6919999999999
 42
-0.6323439999999999
 10
688.228
 20
473.775
 42
-0.144294
 10
711.87
 20
526.0729999999999
 42
-0.0696192
 10
715.388
 20
529.3989999999999
 42
-0.248559
 10
717.288
 20
529.544
 42
-0.229944
 10
718.616
 20
527.9919999999999
 42
-0.0482164
 10
719.0369999999999
 20
524.678
 42
0.0243393
 10
719.4569999999999
 20
514.478
 42
0.0877752
 10
720.3039999999999
 20
511.495
 42
0.184836
 10
721.5959999999999
 20
510.408
 42
0.171012
 10
723.4119999999998
 20
510.4169999999999
 42
0.0929694
 10
727.2260000000001
 20
512.9959999999999
 10
751.072
 20
534.47
 10
751.7419999999999
 20
534.927
 42
-0.250948
 10
752.909
 20
534.9099999999999
 42
-0.144656
 10
753.828
 20
533.842
 42
-0.062573
 10
754.475
 20
531.95
 42
-0.137544
 10
753.381
 20
519.3819999999999
 42
-0.148637
 10
750.401
 20
515.383
 42
0.6270680000000001
 10
752.179
 20
498.9359999999999
 10
752.7089999999999
 20
498.711
 42
-0.320079
 10
753.188
 20
497.5659999999999
 42
-0.0762111
 10
752.7949999999999
 20
496.4769999999999
 42
-0.0170921
 10
750.5839999999999
 20
492.994
 42
0.098895
 10
748.776
 20
489.0839999999999
 42
0.229522
 10
749.4369999999999
 20
486.2
 42
0.196413
 10
753.687
 20
483.596
 42
0.327226
 10
757.317
 20
485.299
 42
0.186104
 10
757.4149999999999
 20
488.358
 42
-0.21126
 10
758.779
 20
496.34
 42
-0.00888604
 10
763.794
 20
503.6019999999999
 42
0.149194
 10
766.082
 20
510.029
 42
0.230459
 10
765.353
 20
511.469
 42
0.0815816
 10
764.2389999999998
 20
512.062
 42
0.0595401
 10
759.436
 20
512.833
 42
-0.0574614
 10
755.8639999999999
 20
513.356
 42
-0.119649
 10
755.081
 20
513.797
 42
-0.248393
 10
754.8789999999999
 20
514.474
 42
-0.0450281
 10
755.9719999999999
 20
518.1599999999999
 42
0.0420842
 10
760.0489999999999
 20
530.3209999999999
 42
0.241557
 10
756.7819999999999
 20
542.994
 42
0.191025
 10
753.5839999999999
 20
544.763
 42
0.199698
 10
750.403
 20
543.4529999999999
 42
0.0252176
 10
729.831
 20
523.1369999999999
 42
-0.0565935
 10
727.763
 20
521.206
 42
-0.259237
 10
727.097
 20
521.159
 42
-0.302511
 10
726.7929999999999
 20
521.659
 42
-0.0583342
 10
727.22
 20
523.6209999999999
 42
-0.0230087
 10
731.0399999999999
 20
533.1569999999999
 42
0.0272063
 10
733.591
 20
539.437
 42
0.180258
 10
733.5729999999999
 20
539.648
 42
0.0597896
 10
733.2410000000001
 20
540.1729999999999
 42
-0.0819923
 10
732.952
 20
540.753
 42
-0.0974402
 10
732.576
 20
545.769
 42
-0.157566
 10
734.345
 20
550.4809999999999
 42
-0.0259032
 10
735.1289999999998
 20
551.2
 42
0.5210040000000001
 10
735.118
 20
551.2719999999999
 42
0.220983
 10
734.978
 20
551.2749999999999
 42
0.00603445
 10
732.9369999999999
 20
550.2559999999999
 42
-0.0122511
 10
728.807
 20
548.3139999999999
 42
-0.0733472
 10
724.7039999999999
 20
547.099
 42
-0.155986
 10
722.9969999999999
 20
547.3619999999999
 42
-0.132025
 10
722.336
 20
547.9299999999999
 42
-0.17604
 10
722.1089999999999
 20
549.1539999999999
 42
-0.0846306
 10
722.661
 20
550.6889999999999
 42
-0.126063
 10
728.8339999999999
 20
556.5109999999999
 42
-0.172719
 10
828.236
 20
573.0249999999999
 42
-0.8028159999999999
 10
835.5060000000001
 20
411.7269999999999
 42
-0.4768530000000001
 10
815.355
 20
426.2839999999999
 10
815.103
 20
429.993
 42
0.0586967
 10
814.104
 20
436.5759999999999
 42
0.25722
 10
813.2569999999999
 20
437.3719999999999
 42
0.339916
 10
812.4119999999999
 20
437.009
 42
0.0479514
 10
811.508
 20
434.734
 42
0.032615
 10
808.155
 20
417.7139999999999
 42
-0.288359
 10
807.121
 20
416.494
 42
-0.172081
 10
805.1569999999999
 20
416.5399999999999
 42
-0.285956
 10
802.4639999999999
 20
420.2169999999999
 42
-0.128788
 10
803.594
 20
426.105
 42
0.0149847
 10
816.3680000000001
 20
458.474
 42
0.247891
 10
816.347
 20
458.623
 42
0.0846646
 10
816.0479999999999
 20
458.9159999999999
 10
814.9560000000001
 20
459.4909999999999
 42
0.0212892
 10
810.1510000000001
 20
461.345
 42
-0.0488461
 10
803.3179999999999
 20
464.323
 42
-0.088164
 10
802.388
 20
465.123
 42
-0.118473
 10
802.2209999999999
 20
465.531
 42
-0.16072
 10
802.275
 20
465.8549999999999
 42
-0.0253259
 10
803.6229999999999
 20
467.873
 42
0.085365
 10
809.448
 20
478.1359999999999
 42
0.243519
 10
808.4789999999999
 20
485.604
 42
0.219885
 10
803.0549999999999
 20
488.8749999999999
 42
0.130705
 10
799.051
 20
487.736
 42
-0.060062
 10
796.1210000000001
 20
486.433
 42
-0.312669
 10
792.6749999999999
 20
487.6219999999999
 42
-0.241985
 10
792.4
 20
489.7219999999999
 42
-0.0726838
 10
793.211
 20
491.31
 42
-0.0355806
 10
797.0489999999999
 20
495.6409999999999
 42
0.0686039
 10
800.6099999999999
 20
499.989
 42
0.096994
 10
801.154
 20
501.592
 42
0.162618
 10
800.853
 20
503.0569999999999
 42
0.233118
 10
799.86
 20
503.7919999999999
 42
0.136873
 10
798.4630000000001
 20
503.566
 42
0.0518047
 10
796.7760000000001
 20
502.628
 42
0.00818384
 10
790.2360000000001
 20
497.3669999999999
 42
-0.0900766
 10
787.9910000000001
 20
496.046
 10
787.421
 20
495.959
 42
-0.30083
 10
786.6369999999999
 20
496.5049999999999
 10
786.451
 20
497.2
 42
0.0942819
 10
785.3969999999999
 20
500.878
 42
0.154773
 10
783.916
 20
502.4269999999999
 42
0.224318
 10
781.331
 20
502.333
 42
0.0882529
 10
778.7209999999999
 20
500.4199999999999
 42
0.00754025
 10
776.4260000000001
 20
497.8509999999999
 42
-0.0485208
 10
766.45
 20
490.106
 42
0.0738401
 10
762.955
 20
487.084
 42
0.0966783
 10
762.3689999999998
 20
485.9799999999999
 42
0.303704
 10
762.9739999999999
 20
484.135
 42
0.100925
 10
763.7589999999999
 20
483.736
 42
0.0605622
 10
765.202
 20
483.5199999999999
 42
0.0484411
 10
768.5499999999999
 20
483.845
 42
-0.0137004
 10
781.2460000000001
 20
486.465
 42
-0.115574
 10
786.572
 20
486.226
 42
-0.283179
 10
789.388
 20
483.155
 42
-0.108454
 10
789.193
 20
478.868
 42
-0.00878536
 10
787.929
 20
474.645
 42
0.105784
 10
787.6389999999998
 20
471.842
 42
0.220257
 10
788.84
 20
469.823
 42
0.0864215
 10
791.0750000000001
 20
468.919
 42
-0.0329334
 10
793.4969999999999
 20
468.202
 42
-0.177184
 10
795.258
 20
466.745
 42
-0.115032
 10
795.858
 20
464.118
 42
-0.0680198
 10
795.191
 20
459.7909999999999
 42
0.00874601
 10
791.853
 20
449.397
 42
0.102243
 10
791.582
 20
445.8019999999999
 10
791.847
 20
445.208
 42
0.162881
 10
793.056
 20
444.5009999999999
 42
0.0593013
 10
794.9329999999999
 20
444.277
 42
0.00998137
 10
800.664
 20
444.5719999999999
 42
-0.0865633
 10
803.386
 20
444.383
 10
803.958
 20
444.115
 42
-0.286103
 10
804.3879999999999
 20
443.13
 42
-0.0810238
 10
804.221
 20
442.4769999999999
 42
-0.0436579
 10
803.6239999999999
 20
441.385
 42
-0.0419292
  0
LWPOLYLINE
  5
717
330
22
100
AcDbEntity
  8
0
100
AcDbPolyline
 90
       23
 70
     1
 43
0.0
 10
739.2610000000001
 20
426.748
 42
-0.049392
 10
738.8189999999999
 20
428.46
 42
-0.0250469
 10
738.548
 20
431.533
 10
738.713
 20
432.535
 42
-0.242503
 10
739.853
 20
433.661
 10
741.0199999999999
 20
433.7419999999999
 42
-0.0125116
 10
744.6749999999999
 20
433.72
 42
-0.147362
 10
745.929
 20
433.2799999999999
 42
-0.115094
 10
747.031
 20
432.0019999999999
 42
0.0943129
 10
750.53
 20
427.557
 42
0.298967
 10
759.579
 20
426.184
 42
-0.118154
 10
761.2449999999999
 20
426.416
 42
-0.166923
 10
762.343
 20
425.9149999999999
 10
762.8789999999999
 20
425.3849999999999
 42
-0.189167
 10
763.4019999999999
 20
424.128
 42
-0.196604
 10
762.9299999999999
 20
422.902
 42
-0.166187
 10
759.7710000000001
 20
421.0309999999999
 10
758.3789999999999
 20
420.96
 42
-0.0190026
 10
748.388
 20
421.0989999999999
 10
746.2639999999999
 20
421.123
 42
-0.113747
 10
743.029
 20
422.203
 10
741.933
 20
423.2419999999999
 42
-0.0515834
 10
739.908
 20
425.4919999999999
 42
-0.0618758
  0
LWPOLYLINE
  5
730
330
22
100
AcDbEntity
  8
0
100
AcDbPolyline
 90
      221
 70
     1
 43
0.0
 10
288.0829999999999
 20
466.499
 10
311.274
 20
431.843
 42
-0.123692
 10
311.615
 20
430.994
 42
-0.170953
 10
311.45
 20
430.299
 42
-0.117144
 10
310.858
 20
429.7569999999999
 42
-0.0798971
 10
309.344
 20
429.2349999999999
 42
-0.130029
 10
302.084
 20
430.017
 42
-0.19401
 10
299.656
 20
432.0549999999999
 42
-0.0394187
 10
298.435
 20
435.178
 42
0.127035
 10
296.368
 20
438.7929999999999
 42
0.165469
 10
292.318
 20
440.35
 10
247.112
 20
444.1309999999999
 42
0.0267961
 10
242.675
 20
444.3019999999999
 42
0.104229
 10
238.983
 20
443.691
 42
0.229295
 10
237.343
 20
441.883
 42
-0.012633
 10
236.966
 20
440.823
 42
-0.165007
 10
235.748
 20
439.374
 42
-0.0852099
 10
233.875
 20
438.6759999999999
 42
-0.0662313
 10
225.654
 20
438.4619999999999
 42
-0.113728
 10
162.698
 20
454.651
 42
-0.2217989999999999
 10
145.663
 20
475.864
 42
-0.0722707
 10
145.629
 20
479.837
 42
-0.240528
 10
148.658
 20
484.4009999999999
 10
151.17
 20
485.8259999999999
 42
0.194524
 10
154.058
 20
489.285
 42
0.0307274
 10
158.962
 20
516.848
 42
-0.374642
 10
189.28
 20
540.852
 42
0.381783
 10
202.352
 20
468.714
 42
0.0380896
 10
205.248
 20
466.7819999999999
 42
0.0985622
 10
208.418
 20
465.58
 42
0.114833
 10
209.288
 20
465.655
 42
0.296227
 10
209.918
 20
466.539
 42
0.0935486
 10
209.769
 20
467.723
 42
0.0674405
 10
207.749
 20
471.7709999999999
 42
-0.191581
 10
200.993
 20
508.0359999999999
 42
-0.0724392
 10
202.229
 20
511.9559999999999
 10
202.984
 20
512.976
 42
-0.272266
 10
204.742
 20
513.428
 42
-0.0765411
 10
205.574
 20
513.0729999999999
 42
-0.0453756
 10
206.789
 20
512.1559999999999
 42
-0.039961
 10
210.304
 20
508.046
 42
0.0312194
 10
218.369
 20
497.716
 42
0.116425
 10
222.61
 20
494.671
 42
0.11307
 10
224.609
 20
494.367
 42
0.316413
 10
228.95
 20
498.4779999999999
 42
0.232168
 10
226.93
 20
505.998
 42
-0.0413037
 10
208.943
 20
533.5309999999999
 42
-0.21173
 10
208.855
 20
534.64
 42
-0.25126
 10
209.559
 20
535.2829999999999
 10
210.271
 20
535.393
 42
-0.0267211
 10
213.101
 20
535.3530000000001
 42
0.0527965
 10
216.995
 20
535.4009999999999
 42
0.136327
 10
218.272
 20
535.9349999999999
 42
0.250399
 10
218.673
 20
537.087
 42
0.0723846
 10
218.488
 20
537.847
 42
0.0414052
 10
217.876
 20
539.0629999999999
 42
0.0427258
 10
215.561
 20
542.072
 10
196.339
 20
563.7849999999999
 10
194.83
 20
565.606
 42
-0.0721529
 10
193.2209999999999
 20
568.285
 10
193.02
 20
569.211
 42
-0.260539
 10
193.579
 20
570.4059999999999
 10
194.239
 20
570.743
 42
-0.0634931
 10
196.071
 20
571.061
 42
0.00577766
 10
200.394
 20
571.229
 42
0.0811176
 10
202.089
 20
571.618
 42
0.171811
 10
202.801
 20
572.318
 42
0.166191
 10
202.929
 20
573.3419999999999
 42
0.0967107
 10
201.775
 20
575.645
 10
184.294
 20
599.177
 42
-0.28637
 10
181.16
 20
646.3669999999999
 42
-0.0801666
 10
182.01
 20
647.3139999999999
 10
184.183
 20
648.9819999999999
 42
0.150387
 10
186.236
 20
651.6799999999999
 42
0.189407
 10
185.774
 20
655.0319999999999
 42
0.0452669
 10
178.98
 20
665.052
 42
-0.0896333
 10
172.627
 20
675.1849999999999
 42
-0.113172
 10
172.093
 20
688.003
 42
0.0708787
 10
169.624
 20
805.03
 42
-0.117198
 10
236.907
 20
901.815
 42
0.234126
 10
300.194
 20
881.897
 10
354.54
 20
840.9839999999999
 42
0.0560801
 10
411.984
 20
842.7799999999999
 42
-1.30441
 10
421.659
 20
826.2780000000001
 42
-0.0511439
 10
418.35
 20
825.806
 42
-0.0910545
 10
395.785
 20
830.108
 42
0.352446
 10
347.81
 20
816.8789999999999
 42
0.0338514
 10
343.407
 20
809.7989999999999
 42
0.0270155
 10
339.009
 20
800.327
 42
-0.363363
 10
301.589
 20
780.218
 42
0.220579
 10
292.085
 20
826.8839999999999
 42
0.0730049
 10
289.56
 20
829.61
 10
288.555
 20
830.1429999999999
 42
0.288326
 10
286.995
 20
829.7909999999999
 10
286.414
 20
829.0039999999999
 42
0.0704738
 10
285.584
 20
826.4459999999999
 42
0.0376628
 10
284.78
 20
812.2669999999999
 42
-0.040907
 10
271.525
 20
834.401
 10
268.703
 20
836.288
 42
0.0470563
 10
265.14
 20
838.418
 42
0.0936183
 10
264.224
 20
838.6510000000001
 42
0.248006
 10
263.721
 20
838.3880000000001
 42
0.156632
 10
263.472
 20
837.5579999999999
 42
0.0539502
 10
263.711
 20
836.0520000000001
 42
0.033712
 10
265.608
 20
830.6649999999999
 42
-0.148875
 10
271.381
 20
768.097
 42
0.355716
 10
257.671
 20
738.366
 42
0.277499
 10
261.574
 20
734.4899999999999
 42
0.089956
 10
266.743
 20
734.1110000000001
 42
0.130126
 10
285.661
 20
741.805
 42
0.113521
 10
288.402
 20
744.9099999999999
 42
-0.195767
 10
313.636
 20
767.6789999999999
 42
-0.027712
 10
315.975
 20
768.391
 42
-0.223273
 10
324.523
 20
767.154
 42
-0.0473063
 10
330.282
 20
762.1069999999999
 42
-0.71515
 10
295.199
 20
687.806
 42
-0.472286
 10
233.387
 20
702.733
 42
0.0300324
 10
231.13
 20
706.8739999999999
 42
0.0834661
 10
229.486
 20
708.833
 42
0.160248
 10
228.574
 20
709.141
 42
0.186174
 10
227.792
 20
708.846
 42
0.0734136
 10
226.924
 20
707.681
 42
-0.00610909
 10
226.064
 20
706.197
 42
-0.0762474
 10
225.038
 20
704.926
 42
-0.296603
 10
222.811
 20
704.585
 42
-0.100264
 10
220.614
 20
706.176
 42
-0.0434111
 10
217.645
 20
709.8439999999999
 42
-0.0924025
 10
189.314
 20
772.3419999999999
 42
0.067102
 10
187.746
 20
776.6569999999999
 42
0.11899
 10
186.322
 20
778.3669999999999
 42
0.202112
 10
185.26
 20
778.622
 42
0.165658
 10
184.277
 20
777.9860000000001
 42
0.102039
 10
183.208
 20
775.738
 42
0.0912678
 10
182.499
 20
764.475
 42
-0.0263959
 10
184.245
 20
748.8889999999998
 42
0.173386
 10
201.655
 20
699.408
 42
0.487148
 10
352.319
 20
702.547
 42
0.220874
 10
358.9980000000001
 20
731.451
 10
397.132
 20
783.5989999999999
 42
-0.492591
 10
404.612
 20
748.55
 42
0.243487
 10
427.566
 20
685.1649999999999
 42
-0.0372611
 10
430.3939999999999
 20
682.242
 42
-0.0915586
 10
431.707
 20
680.1
 42
-0.295215
 10
431.234
 20
677.61
 42
-0.0555851
 10
429.781
 20
676.373
 42
0.0209737
 10
425.463
 20
673.358
 42
0.142448
 10
424.7569999999999
 20
672.398
 42
0.178458
 10
424.8999999999999
 20
670.7439999999999
 42
0.0730481
 10
426.083
 20
668.978
 42
0.0507559
 10
431.9659999999999
 20
664.1869999999999
 10
432.115
 20
664.065
 42
-0.274455
 10
458.939
 20
557.538
 42
0.0640216
 10
458.2189999999999
 20
553.9099999999999
 42
0.101418
 10
458.36
 20
552.956
 42
0.34152
 10
459.116
 20
552.473
 42
0.0990627
 10
459.9409999999999
 20
552.715
 42
0.0510435
 10
461.586
 20
553.8099999999999
 42
0.0241419
 10
468.121
 20
560.2869999999999
 42
-0.0805866
 10
470.175
 20
561.852
 42
-0.109668
 10
470.9769999999999
 20
562.0409999999999
 42
-0.175082
 10
472.048
 20
561.584
 42
-0.0569477
 10
472.7509999999999
 20
560.788
 42
-0.0320936
 10
475.3809999999999
 20
556.0489999999999
 42
-0.218096
 10
477.191
 20
512.874
 42
-0.7160630000000001
 10
455.5979999999999
 20
514.148
 10
455.3919999999999
 20
514.605
 42
0.0761444
 10
454.543
 20
515.5489999999999
 42
0.138109
 10
446.365
 20
518.7759999999999
 42
0.134631
 10
444.423
 20
518.491
 42
0.181795
 10
443.718
 20
517.7839999999999
 42
0.156614
 10
443.6569999999999
 20
516.588
 42
-0.00514923
 10
444.228
 20
513.7619999999999
 42
-0.0582452
 10
445.204
 20
505.0229999999999
 42
-0.0873043
 10
444.913
 20
503.633
 42
-0.279347
 10
444.259
 20
503.1969999999999
 42
-0.177111
 10
443.129
 20
503.556
 10
442.384
 20
504.237
 42
-0.0501744
 10
437.9509999999999
 20
510.47
 10
408.2399999999999
 20
559.1759999999999
 42
0.7621170000000001
 10
400.665
 20
557.003
 10
401.418
 20
488.361
 10
363.536
 20
521.7999999999999
 42
-0.12159
 10
352.11
 20
536.98
 10
351.5
 20
538.6669999999999
 42
0.100396
 10
350.24
 20
540.682
 10
349.6090000000001
 20
541.084
 42
0.255371
 10
348.391
 20
540.863
 10
347.824
 20
540.3139999999999
 42
0.0706105
 10
346.82
 20
538.524
 42
0.143639
 10
345.93
 20
527.592
 42
0.15343
 10
347.564
 20
524.59
 42
-0.283817
 10
347.754
 20
523.94
 42
-0.354092
 10
347.295
 20
523.611
 42
-0.026434
 10
344.373
 20
524.1019999999999
 10
339.179
 20
525.094
 42
0.0785506
 10
335.901
 20
525.2069999999999
 42
0.217461
 10
334.795
 20
524.46
 42
0.234149
 10
334.685
 20
523.2169999999999
 42
0.0782788
 10
336.246
 20
520.851
 42
-0.0847364
 10
353.833
 20
490.933
 42
-0.015731
 10
354.825
 20
488.091
 42
-0.0784235
 10
355.349
 20
485.554
 42
-0.197457
 10
355.072
 20
484.888
 42
-0.253577
 10
354.5209999999999
 20
484.724
 10
354.085
 20
484.865
 42
-0.0379431
 10
352.985
 20
485.4569999999999
 42
0.0219494
 10
346.501
 20
489.594
 42
0.148737
 10
307.301
 20
496.82
 42
0.139131
 10
302.61
 20
495.174
 42
0.17066
 10
299.91
 20
491.1209999999999
 42
0.00718993
 10
298.855
 20
486.831
 42
-0.0887449
 10
298.12
 20
485.24
 42
-0.176114
 10
296.806
 20
484.3619999999999
 42
-0.120332
 10
294.585
 20
484.454
 42
-0.0586531
 10
288.828
 20
486.974
 42
0.31133
 10
261.199
 20
484.3309999999999
 42
0.283484
 10
260.289
 20
481.8489999999999
 42
0.108748
 10
261.298
 20
479.679
 42
0.117567
 10
266.196
 20
475.813
 42
0.178494
 10
273.717
 20
474.723
 42
-0.197616
 10
280.873
 20
473.8769999999999
 42
-0.118416
  0
LWPOLYLINE
  5
80F
330
22
100
AcDbEntity
  8
0
100
AcDbPolyline
 90
       30
 70
     1
 43
0.0
 10
568.1269999999999
 20
439.613
 42
-0.4336420000000001
 10
607.4519999999999
 20
443.553
 42
-0.171234
 10
607.575
 20
443.334
 42
-0.0853588
 10
607.577
 20
442.842
 42
-0.0511012
 10
607.349
 20
442.0759999999999
 42
-0.129214
 10
603.354
 20
437.004
 42
-0.136771
 10
601.508
 20
436.279
 42
-0.0898983
 10
598.8139999999999
 20
436.652
 42
-0.0761663
 10
594.2169999999999
 20
439.2699999999999
 42
0.0781751
 10
589.684
 20
441.842
 42
0.354089
 10
582.294
 20
439.3889999999999
 42
0.0390824
 10
580.3969999999999
 20
435.2599999999999
 42
-0.0831681
 10
579.094
 20
433.0259999999999
 42
-0.3527909999999999
 10
575.763
 20
432.528
 42
-0.309838
 10
575.1549999999999
 20
433.855
 42
-0.0768992
 10
575.5419999999999
 20
435.1259999999999
 42
-0.0271399
 10
577.8089999999999
 20
438.94
 42
0.0636567
 10
579.298
 20
441.844
 42
0.129587
 10
579.3809999999999
 20
442.978
 42
0.217693
 10
578.7539999999999
 20
443.771
 42
0.286726
 10
574.8039999999999
 20
443.348
 42
0.114024
 10
572.6269999999999
 20
440.3439999999999
 42
0.0158218
 10
570.2819999999999
 20
434.29
 42
-0.0839708
 10
568.533
 20
431.125
 42
-0.115409
 10
567.3969999999999
 20
430.2919999999999
 10
567.095
 20
430.231
 42
-0.260861
 10
566.6649999999999
 20
430.498
 10
566.528
 20
430.7999999999999
 42
-0.0708528
 10
566.3869999999999
 20
432.2219999999999
 42
-0.0686307
 10
567.639
 20
438.5809999999999
 42
-0.0760643
  0
LWPOLYLINE
  5
82F
330
22
100
AcDbEntity
  8
0
100
AcDbPolyline
 90
       22
 70
     1
 43
0.0
 10
709.166
 20
429.8519999999999
 10
708.156
 20
429.647
 42
-0.0815406
 10
703.59
 20
430.1459999999999
 42
-0.0365324
 10
699.2469999999999
 20
432.176
 10
697.786
 20
432.874
 42
-0.392586
 10
696.718
 20
440.1969999999999
 10
697.816
 20
441.267
 42
-0.0532522
 10
702.1729999999999
 20
445.4089999999999
 10
703.446
 20
446.1819999999999
 42
-0.109746
 10
705.8869999999999
 20
446.593
 42
-0.134768
 10
707.8129999999999
 20
445.955
 42
-0.0262893
 10
709.176
 20
444.798
 42
-0.204836
 10
709.6919999999999
 20
443.5619999999999
 42
-0.179856
 10
709.154
 20
442.1499999999999
 42
0.0313302
 10
707.797
 20
440.549
 10
707.1189999999999
 20
439.7499999999999
 42
0.306051
 10
706.908
 20
437.0589999999999
 42
0.0397687
 10
706.9589999999999
 20
436.981
 10
708.3960000000001
 20
435.104
 10
709.7819999999999
 20
433.3319999999999
 42
-0.14431
 10
710.3099999999999
 20
431.718
 10
710.2689999999999
 20
430.909
 42
-0.235562
  0
LWPOLYLINE
  5
847
330
22
100
AcDbEntity
  8
0
100
AcDbPolyline
 90
       22
 70
     1
 43
0.0
 10
674.0349999999999
 20
487.859
 42
0.152708
 10
661.1289999999999
 20
438.1999999999999
 10
619.979
 20
438.117
 42
0.4046560000000001
 10
599.875
 20
460.196
 42
-0.0964838
 10
597.9349999999999
 20
460.582
 42
-0.142608
 10
597.3480000000001
 20
461.0419999999999
 42
-0.245181
 10
597.322
 20
461.9359999999999
 42
-0.0884526
 10
598.0719999999999
 20
462.9559999999999
 42
-0.101933
 10
602.1959999999999
 20
465.4399999999999
 10
621.239
 20
471.631
 10
623.476
 20
446.7619999999999
 42
0.5632060000000001
 10
623.503
 20
446.7480000000001
 42
0.0516795
 10
623.701
 20
446.9039999999999
 42
0.0230965
 10
625.6649999999999
 20
449.2359999999999
 42
0.0358864
 10
630.9059999999999
 20
456.9219999999999
 42
0.0820289
 10
631.5259999999999
 20
458.5149999999999
 42
-0.306246
 10
671.163
 20
501.0419999999999
 10
673.191
 20
501.445
 42
-0.0996676
 10
677.4379999999999
 20
501.54
 42
-0.138627
 10
678.941
 20
500.813
 42
-0.215554
 10
679.608
 20
498.8159999999999
 42
-0.0782842
 10
678.853
 20
496.0609999999999
 42
-0.0350324
  0
LWPOLYLINE
  5
85F
330
22
100
AcDbEntity
  8
0
100
AcDbPolyline
 90
       24
 70
     1
 43
0.0
 10
703.166
 20
456.0
 10
702.0859999999999
 20
455.6189999999999
 42
-0.101306
 10
701.608
 20
455.6589999999999
 42
-0.0340805
 10
700.2810000000001
 20
456.149
 42
-0.0365484
 10
698.1849999999999
 20
457.258
 42
0.0316577
 10
697.217
 20
457.7569999999999
 42
-0.0533658
 10
695.6260000000001
 20
458.666
 42
-0.14198
 10
693.817
 20
461.162
 42
-0.0313747
 10
693.3769999999999
 20
462.683
 42
0.0350593
 10
692.873
 20
464.379
 10
691.88
 20
467.049
 10
691.534
 20
468.142
 42
-0.382576
 10
692.671
 20
470.0759999999999
 10
693.6449999999999
 20
470.253
 42
-0.191365
 10
697.523
 20
469.0609999999999
 10
698.6669999999999
 20
468.09
 10
703.1839999999999
 20
464.1309999999999
 42
0.0487207
 10
705.02
 20
462.8849999999999
 42
0.0535403
 10
706.8869999999999
 20
462.113
 42
0.0275482
 10
707.7719999999999
 20
461.906
 42
-0.0434969
 10
709.1569999999999
 20
461.5359999999999
 42
-0.312842
 10
709.7639999999999
 20
460.679
 42
-0.218254
 10
709.1779999999999
 20
459.368
 10
708.128
 20
458.6109999999999
 42
-0.0263689
  0
LWPOLYLINE
  5
879
330
22
100
AcDbEntity
  8
0
100
AcDbPolyline
 90
       14
 70
     1
 43
0.0
 10
240.563
 20
493.914
 42
-0.0872587
 10
244.851
 20
487.854
 10
245.621
 20
486.566
 42
-0.185002
 10
245.841
 20
484.6369999999999
 42
-0.241924
 10
244.756
 20
483.574
 10
243.761
 20
483.366
 42
-0.121042
 10
237.589
 20
484.531
 42
-0.0679292
 10
234.516
 20
486.485
 42
-0.0983998
 10
232.942
 20
488.461
 42
-0.00691085
 10
231.72
 20
490.911
 42
-0.0432915
 10
231.565
 20
491.3199999999999
 42
-0.258683
 10
232.956
 20
496.944
 42
-0.128843
 10
234.056
 20
497.6849999999999
 42
-0.18904
 10
234.976
 20
497.6519999999999
 42
-0.0625281
  0
LWPOLYLINE
  5
889
330
22
100
AcDbEntity
  8
0
100
AcDbPolyline
 90
       10
 70
     1
 43
0.0
 10
947.971
 20
493.3419999999999
 42
-0.19047
 10
948.2839999999999
 20
493.395
 42
-0.426063
 10
948.5239999999999
 20
493.0109999999999
 42
-0.115256
 10
947.8660000000001
 20
491.734
 42
0.0411644
 10
945.0460000000001
 20
487.844
 42
-0.0781763
 10
943.946
 20
486.178
 42
-0.261533
 10
942.181
 20
485.677
 42
-0.265579
 10
941.568
 20
486.279
 42
-0.227657
 10
941.737
 20
487.248
 42
-0.0486991
 10
946.953
 20
492.586
 42
-0.0460283
  0
LWPOLYLINE
  5
895
330
22
100
AcDbEntity
  8
0
100
AcDbPolyline
 90
       14
 70
     1
 43
0.0
 10
964.245
 20
525.6979999999999
 10
912.3499999999999
 20
495.533
 42
0.342054
 10
825.4659999999999
 20
588.204
 42
0.207493
 10
714.1649999999999
 20
559.7769999999999
 42
-0.4556300000000001
 10
668.445
 20
542.7
 42
0.0958222
 10
678.0089999999999
 20
572.599
 42
0.042777
 10
678.22
 20
576.052
 42
0.082817
 10
678.0249999999999
 20
577.2
 42
0.175683
 10
677.7180000000001
 20
577.5339999999999
 42
0.208641
 10
677.3330000000001
 20
577.561
 42
0.0943549
 10
676.6649999999999
 20
577.108
 42
0.0332446
 10
675.46
 20
575.758
 42
-0.0342324
 10
672.418
 20
572.061
 42
-0.184692
 10
644.129
 20
560.6889999999999
 42
-1.063579999999999
  0
LWPOLYLINE
  5
8A5
330
22
100
AcDbEntity
  8
0
100
AcDbPolyline
 90
       18
 70
     1
 43
0.0
 10
238.718
 20
524.4159999999999
 10
236.929
 20
524.6990000000001
 10
235.47
 20
525.4069999999999
 42
-0.0432046
 10
232.583
 20
526.808
 42
-0.201023
 10
226.824
 20
533.7619999999999
 42
0.0236644
 10
226.589
 20
534.414
 42
0.00482757
 10
225.258
 20
537.5369999999999
 42
-0.32064
 10
225.467
 20
538.5259999999999
 42
-0.187547
 10
226.978
 20
539.114
 42
-0.0578243
 10
229.63
 20
538.6239999999999
 42
-0.0205448
 10
236.754
 20
535.2929999999999
 10
242.062
 20
532.659
 42
-0.109508
 10
243.19
 20
531.71
 42
-0.103242
 10
243.866
 20
530.302
 42
0.0617963
 10
245.318
 20
525.924
 42
-0.207914
 10
245.289
 20
525.063
 42
-0.204014
 10
244.633
 20
524.4819999999999
 42
-0.0688897
 10
242.256
 20
524.2029999999999
 42
-0.00519036
  0
LWPOLYLINE
  5
8B9
330
22
100
AcDbEntity
  8
0
100
AcDbPolyline
 90
       10
 70
     1
 43
0.0
 10
479.248
 20
777.6339999999999
 42
-0.5643470000000001
 10
452.2789999999999
 20
684.722
 42
-0.289351
 10
435.32
 20
712.471
 42
0.223425
 10
473.043
 20
774.582
 42
-0.00507997
 10
473.343
 20
777.291
 42
-0.0685737
 10
473.9969999999999
 20
780.403
 42
-0.0999416
 10
474.4119999999999
 20
781.051
 42
-0.181192
 10
474.9649999999999
 20
781.3039999999999
 42
-0.13199
 10
475.692
 20
781.125
 42
-0.0605308
 10
476.625
 20
780.478
 42
-0.0435223
  0
LWPOLYLINE
  5
8C5
330
22
100
AcDbEntity
  8
0
100
AcDbPolyline
 90
       24
 70
     1
 43
0.0
 10
422.5509999999999
 20
721.653
 42
-0.0237135
 10
420.859
 20
725.8489999999999
 10
420.479
 20
727.615
 42
0.0397675
 10
419.22
 20
732.611
 42
-0.0467425
 10
418.435
 20
735.5319999999998
 42
-0.0411072
 10
418.283
 20
737.106
 42
-0.0804721
 10
418.4009999999999
 20
737.9089999999999
 42
-0.310923
 10
418.986
 20
738.3639999999999
 42
-0.129725
 10
420.5989999999999
 20
738.038
 10
421.97
 20
737.5089999999999
 10
426.7759999999999
 20
736.0169999999999
 10
428.324
 20
735.419
 42
0.0476029
 10
432.073
 20
735.0349999999999
 42
-0.0070799
 10
437.176
 20
734.7949999999999
 42
-0.114283
 10
438.574
 20
734.288
 42
-0.17363
 10
439.177
 20
733.4960000000001
 42
-0.172256
 10
439.189
 20
731.9479999999999
 42
-0.102738
 10
438.1569999999999
 20
730.327
 42
0.0310156
 10
433.479
 20
724.947
 42
-0.066674
 10
431.6449999999999
 20
723.001
 42
-0.0532679
 10
428.842
 20
721.182
 42
-0.0487638
 10
426.485
 20
720.263
 42
-0.0738719
 10
424.823
 20
720.051
 42
-0.213213
 10
423.118
 20
720.7639999999998
  0
LWPOLYLINE
  5
8DF
330
22
100
AcDbEntity
  8
0
100
AcDbPolyline
 90
       25
 70
     1
 43
0.0
 10
451.2709999999999
 20
764.126
 42
-0.7731620000000001
 10
424.0099999999999
 20
751.228
 42
0.264831
 10
403.553
 20
792.6449999999999
 42
-0.199534
 10
403.38
 20
792.9079999999999
 42
-0.5256210000000001
 10
403.483
 20
793.013
 42
-0.0238363
 10
406.81
 20
792.0089999999999
 42
0.037365
 10
416.8159999999999
 20
789.2089999999999
 42
0.0769466
 10
418.3869999999999
 20
789.1869999999999
 42
0.354309
 10
418.819
 20
789.71
 42
0.141992
 10
418.406
 20
791.188
 42
0.0504942
 10
414.109
 20
796.1619999999999
 42
-0.029711
 10
410.287
 20
800.0679999999999
 42
-0.267355
 10
410.1989999999999
 20
800.753
 42
-0.340623
 10
410.69
 20
801.0329999999999
 10
411.5809999999999
 20
800.8369999999999
 42
-0.0290833
 10
419.418
 20
797.801
 42
1.161249999999999
 10
423.674
 20
813.9700000000001
 42
-0.0173724
 10
422.201
 20
814.173
 42
-0.0513688
 10
421.4819999999999
 20
814.356
 42
-0.444574
 10
421.4509999999999
 20
814.45
 42
-0.225419
 10
421.591
 20
814.5469999999999
 42
-0.0420672
 10
422.818
 20
814.572
 42
-0.107024
 10
430.515
 20
812.5089999999998
 42
-0.225247
 10
449.783
 20
785.3589999999999
 42
-0.0538511
 10
450.469
 20
775.0589999999999
 42
0.0572043
  0
LWPOLYLINE
  5
8FA
330
22
100
AcDbEntity
  8
0
100
AcDbPolyline
 90
       14
 70
     1
 43
0.0
 10
818.6489999999999
 20
1318.9
 10
939.6349999999999
 20
754.301
 10
939.9969999999999
 20
752.511
 42
-0.0567502
 10
940.3889999999998
 20
749.353
 42
-0.372262
 10
940.125
 20
749.0709999999999
 42
-0.274253
 10
939.6749999999999
 20
749.278
 42
-0.0360605
 10
938.151
 20
752.322
 42
-0.0413483
 10
935.298
 20
760.7549999999999
 10
813.456
 20
1323.02
 42
-0.0166949
 10
812.697
 20
1327.08
 42
-0.0723811
 10
812.4969999999999
 20
1330.56
 42
-0.229759
 10
812.9339999999999
 20
1331.22
 42
-0.318712
 10
813.5279999999999
 20
1331.17
 42
-0.0671773
 10
814.404
 20
1330.1
 42
-0.0788496
  0
LWPOLYLINE
  5
90A
330
22
100
AcDbEntity
  8
0
100
AcDbPolyline
 90
       18
 70
     1
 43
0.0
 10
380.014
 20
782.9830000000001
 42
-0.113644
 10
351.987
 20
750.7719999999999
 42
-0.57088
 10
372.481
 20
819.5729999999999
 42
0.109827
 10
366.346
 20
816.7339999999999
 42
0.154773
 10
364.209
 20
813.8480000000001
 42
0.289212
 10
364.919
 20
811.2639999999998
 42
0.124024
 10
367.532
 20
809.9960000000001
 42
0.0840052
 10
374.075
 20
809.8259999999999
 10
401.864
 20
812.8939999999998
 10
383.5030000000001
 20
805.2889999999999
 10
375.879
 20
802.0750000000001
 42
0.130213
 10
375.719
 20
801.95
 42
0.482187
 10
379.185
 20
788.436
 42
0.0545392
 10
382.269
 20
787.403
 42
-0.0399023
 10
382.662
 20
787.2939999999999
 42
-0.219273
 10
382.752
 20
787.1929999999999
 42
-0.205467
 10
382.736
 20
787.0499999999999
 10
382.478
 20
786.707
 42
0.0538684
  0
LWPOLYLINE
  5
91E
330
22
100
AcDbEntity
  8
0
100
AcDbPolyline
 90
        8
 70
     1
 43
0.0
 10
443.4549999999999
 20
835.1130000000001
 10
464.1619999999999
 20
799.2869999999999
 42
-0.184509
 10
435.2369999999999
 20
837.0280000000001
 42
-0.05595
 10
434.29
 20
841.44
 42
-0.0976882
 10
434.4079999999999
 20
843.0139999999999
 42
-0.235325
 10
434.973
 20
843.57
 42
-0.181717
 10
435.976
 20
843.5260000000001
 42
-0.062808
 10
437.2219999999999
 20
842.7469999999999
 42
-0.0813737
  0
LWPOLYLINE
  5
928
330
22
100
AcDbEntity
  8
0
100
AcDbPolyline
 90
      117
 70
     1
 43
0.0
 10
210.642
 20
898.324
 42
0.104175
 10
154.352
 20
803.9339999999999
 42
-0.0777142
 10
154.047
 20
803.3889999999999
 42
-0.091907
 10
152.447
 20
802.0459999999999
 42
-0.151545
 10
149.418
 20
801.2019999999999
 42
-0.25409
 10
147.752
 20
802.1989999999998
 42
-0.0564075
 10
147.184
 20
803.6939999999999
 42
-0.005096
 10
145.43
 20
810.636
 42
0.0921091
 10
144.626
 20
812.485
 42
0.170071
 10
143.896
 20
813.0369999999999
 42
0.181253
 10
142.928
 20
812.9039999999999
 42
0.0792016
 10
141.65
 20
811.963
 42
0.0403133
 10
138.999
 20
808.7699999999999
 42
-0.6833580000000001
 10
116.424
 20
814.6139999999999
 42
0.282468
 10
115.673
 20
815.613
 42
0.111978
 10
113.957
 20
815.8419999999999
 42
0.0386572
 10
111.558
 20
815.5129999999999
 42
0.00775102
 10
103.082
 20
813.311
 42
-0.0707877
 10
99.87200000000001
 20
812.8430000000001
 42
-0.241952
 10
98.9001
 20
813.396
 42
-0.247179
 10
98.79700000000001
 20
814.488
 10
99.3359
 20
815.4819999999999
 42
0.0436211
 10
102.124
 20
820.6439999999998
 42
0.128392
 10
103.314
 20
826.4369999999999
 42
0.280373
 10
100.39
 20
830.7339999999999
 42
0.112244
 10
95.71150000000001
 20
831.563
 42
0.140044
 10
78.4571
 20
824.84
 42
-0.15446
 10
75.5149
 20
823.914
 42
-0.196513
 10
69.3022
 20
826.6950000000001
 42
-0.137691
 10
68.10939999999999
 20
828.7679999999999
 42
-0.213327
 10
68.3755
 20
830.156
 42
-0.0344583
 10
70.3097
 20
832.408
 42
0.0623507
 10
74.6357
 20
837.701
 42
0.251793
 10
75.0082
 20
844.43
 42
0.258126
 10
71.68179999999999
 20
846.813
 42
0.0656304
 10
66.8728
 20
846.723
 42
-0.0488844
 10
62.4319
 20
846.387
 42
-0.0918455
 10
61.17329999999999
 20
846.6829999999999
 42
-0.172509
 10
60.38800000000001
 20
847.4389999999999
 42
-0.239637
 10
60.5363
 20
849.727
 42
-0.0984033
 10
62.3947
 20
851.6720000000001
 42
0.0120524
 10
66.48579999999999
 20
854.695
 42
0.257931
 10
69.92119999999999
 20
862.2100000000001
 42
0.312699
 10
66.37579999999999
 20
867.5260000000001
 42
0.0741165
 10
62.75619999999999
 20
868.4279999999999
 42
0.0430403
 10
48.8849
 20
867.914
 42
-0.0660466
 10
40.7727
 20
868.0559999999999
 42
-0.124334
 10
38.1508
 20
869.223
 42
-0.165385
 10
37.1113
 20
870.906
 42
-0.202439
 10
37.6167
 20
872.8539999999998
 42
-0.061311
 10
38.80360000000001
 20
874.113
 42
-0.0274369
 10
43.6501
 20
877.452
 42
0.100259
 10
52.1041
 20
884.819
 42
0.154139
 10
53.8832
 20
889.69
 42
0.25567
 10
51.7341
 20
893.2119999999999
 42
0.072616
 10
48.4728
 20
894.589
 42
0.0388621
 10
39.5994
 20
896.058
 42
-0.0529708
 10
28.7708
 20
897.878
 42
-0.0952197
 10
25.9742
 20
899.3439999999999
 42
-0.266307
 10
24.7442
 20
902.2919999999999
 42
-0.171209
 10
25.8036
 20
904.0549999999999
 42
-0.078581
 10
29.032
 20
905.863
 42
0.0330986
 10
37.9561
 20
909.6429999999999
 42
0.149312
 10
42.57159999999999
 20
914.145
 42
0.187899
 10
42.8553
 20
916.6339999999999
 42
0.149042
 10
41.40699999999999
 20
918.654
 42
0.0647005
 10
38.6522
 20
920.311
 42
0.0302005
 10
26.8035
 20
924.168
 42
-0.0659161
 10
20.1728
 20
926.8780000000001
 42
-0.134817
 10
18.5145
 20
928.594
 42
-0.242456
 10
18.694
 20
931.0269999999999
 42
-0.0908913
 10
20.6366
 20
933.0949999999999
 42
-0.0505314
 10
27.639
 20
937.0180000000001
 42
0.0389922
 10
39.0979
 20
942.829
 42
0.311069
 10
40.90079999999999
 20
947.0139999999998
 42
0.0810586
 10
39.3664
 20
951.0279999999999
 42
0.0119314
 10
33.5278
 20
959.9400000000001
 42
-0.0924113
 10
31.0306
 20
965.525
 42
-0.292579
 10
32.54910000000001
 20
969.8789999999998
 42
-0.0833188
 10
35.0296
 20
971.1769999999999
 42
-0.0541899
 10
41.8472
 20
972.499
 42
0.0296778
 10
50.1056
 20
973.543
 42
0.0847697
 10
52.162
 20
974.3260000000001
 42
0.253234
 10
52.8061
 20
975.5360000000001
 42
0.16421
 10
52.14
 20
977.4650000000001
 42
0.0559825
 10
49.3353
 20
980.1669999999999
 42
-0.182712
 10
33.6017
 20
1007.04
 10
33.5505
 20
1008.26
 42
-0.245875
 10
35.2047
 20
1010.68
 42
-0.0909237
 10
38.7658
 20
1011.7
 42
-0.0257198
 10
47.46879999999999
 20
1011.87
 42
0.0794555
 10
50.5407
 20
1012.2
 42
0.264096
 10
51.2377
 20
1012.98
 42
0.210635
 10
50.9842
 20
1014.23
 10
41.20949999999999
 20
1028.06
 10
41.1946
 20
1028.19
 42
-0.03916
 10
40.2658
 20
1040.36
 42
-0.0950762
 10
40.7145
 20
1042.82
 42
-0.260203
 10
41.4091
 20
1043.33
 42
-0.212458
 10
42.39959999999999
 20
1043.04
 42
0.109418
 10
53.0618
 20
1037.41
 42
0.163978
 10
61.5596
 20
1037.42
 42
0.295919
 10
65.79909999999999
 20
1043.68
 42
0.112016
 10
63.66369999999999
 20
1054.41
 42
-0.105814
 10
56.4315
 20
1099.35
 42
-0.0251292
 10
56.791
 20
1103.26
 42
-0.0813283
 10
57.67459999999999
 20
1106.47
 42
-0.112415
 10
58.2986
 20
1107.24
 42
-0.175561
 10
59.0495
 20
1107.47
 42
-0.122313
 10
59.9313
 20
1107.17
 42
-0.0602441
 10
60.948
 20
1106.34
 42
-0.0505615
 10
64.10630000000001
 20
1102.09
 42
0.128851
 10
172.595
 20
999.7489999999999
 10
187.955
 20
991.411
 42
0.017845
 10
189.088
 20
990.85
 42
-0.401545
 10
219.849
 20
914.6589999999999
 42
-0.0333403
 10
214.688
 20
903.8819999999999
 42
-0.0580832
  0
LWPOLYLINE
  5
99F
330
22
100
AcDbEntity
  8
0
100
AcDbPolyline
 90
       39
 70
     1
 43
0.0
 10
518.9159999999999
 20
820.846
 10
477.878
 20
806.2319999999999
 10
444.4309999999999
 20
854.0869999999999
 42
-0.122697
 10
485.904
 20
926.7289999999999
 42
0.236675
 10
529.942
 20
968.9949999999999
 42
-0.0754718
 10
535.033
 20
978.5
 42
0.0545469
 10
539.006
 20
985.228
 42
-0.135183
 10
597.854
 20
1056.07
 42
-0.0867763
 10
578.1219999999999
 20
988.7830000000001
 42
0.0641175
 10
576.1319999999999
 20
983.66
 42
0.105311
 10
576.118
 20
982.3120000000001
 42
0.172436
 10
576.618
 20
981.525
 42
0.102301
 10
577.528
 20
981.117
 42
0.0291362
 10
578.743
 20
980.9029999999999
 42
-0.051471
 10
581.6669999999999
 20
980.316
 42
-0.383209
 10
586.0479999999999
 20
970.945
 42
-0.211281
 10
577.023
 20
960.0379999999999
 42
0.560661
 10
574.654
 20
942.1269999999999
 42
-0.231226
 10
577.0399999999999
 20
937.7119999999999
 42
-0.138794
 10
575.5169999999999
 20
932.873
 42
-0.0968427
 10
567.433
 20
924.7749999999999
 42
0.498373
 10
566.6119999999999
 20
904.0230000000001
 42
-0.0826645
 10
568.7649999999999
 20
901.6049999999999
 42
-0.325718
 10
568.717
 20
894.918
 42
-0.154016
 10
563.951
 20
891.943
 42
0.437287
 10
554.696
 20
872.4389999999999
 42
-0.06445
 10
555.09
 20
870.9979999999999
 42
-0.288906
 10
553.7749999999999
 20
868.012
 42
-0.0664145
 10
551.2999999999999
 20
866.689
 42
0.0198563
 10
543.3659999999999
 20
863.635
 42
0.0708881
 10
541.1389999999999
 20
862.316
 42
0.105472
 10
540.692
 20
861.7239999999998
 42
0.166106
 10
540.6579999999999
 20
860.7539999999998
 42
0.042382
 10
540.957
 20
859.9639999999999
 42
-0.0555376
 10
543.204
 20
854.376
 42
-0.4196950000000001
 10
531.3509999999999
 20
834.6810000000001
 42
0.160847
 10
527.211
 20
832.089
 42
0.0736055
 10
525.548
 20
829.664
 42
-0.00665154
 10
522.7819999999999
 20
824.413
 42
-0.176572
  0
LWPOLYLINE
  5
9C8
330
22
100
AcDbEntity
  8
0
100
AcDbPolyline
 90
       15
 70
     1
 43
0.0
 10
542.9730000000001
 20
918.791
 42
-0.1986
 10
505.231
 20
831.7710000000001
 10
504.093
 20
830.8639999999998
 42
-0.311764
 10
498.605
 20
831.048
 42
-0.138867
 10
494.6769999999999
 20
836.12
 42
-0.170741
 10
493.97
 20
842.018
 42
-0.303711
 10
496.839
 20
844.603
 42
0.218715
 10
512.081
 20
855.095
 42
-0.00842055
 10
521.0139999999999
 20
869.5019999999999
 42
0.183998
 10
530.4249999999999
 20
906.8710000000001
 10
542.2029999999999
 20
935.3749999999999
 42
-0.0494574
 10
543.2469999999999
 20
937.4739999999999
 42
-0.3846989999999999
 10
543.78
 20
937.597
 42
-0.239283
 10
544.2330000000001
 20
936.926
 42
-0.0401358
 10
544.1849999999999
 20
932.1839999999999
  0
LWPOLYLINE
  5
9D9
330
22
100
AcDbEntity
  8
0
100
AcDbPolyline
 90
       60
 70
     1
 43
0.0
 10
76.51390000000001
 20
918.9899999999999
 42
-0.574438
 10
80.56690000000001
 20
942.1739999999999
 42
0.2251
 10
80.7737
 20
942.3860000000001
 42
0.0900362
 10
80.88039999999999
 20
943.088
 10
80.54289999999999
 20
945.1119999999999
 42
0.0238086
 10
78.108
 20
953.072
 42
-0.0459506
 10
75.6109
 20
962.762
 42
-0.094895
 10
75.7118
 20
964.7339999999999
 42
-0.213881
 10
76.3245
 20
965.421
 42
-0.181026
 10
77.39679999999999
 20
965.4889999999999
 42
-0.110857
 10
79.64699999999999
 20
964.23
 42
-0.135115
 10
82.34700000000001
 20
959.421
 42
-0.0178195
 10
84.6057
 20
948.7610000000001
 42
0.162798
 10
91.8599
 20
934.492
 42
-0.0886259
 10
92.85709999999999
 20
933.3539999999999
 42
-0.183009
 10
92.9232
 20
932.7739999999998
 42
-0.192439
 10
92.5956
 20
932.324
 42
-0.0824945
 10
91.52970000000001
 20
931.947
 42
-0.0128019
 10
87.1456
 20
931.3910000000001
 42
0.101013
 10
82.7059
 20
930.183
 42
0.195338
 10
81.26409999999999
 20
928.5199999999999
 42
0.200435
 10
81.90850000000001
 20
922.794
 42
0.0872467
 10
87.3484
 20
916.2930000000001
 42
-0.0154233
 10
97.5627
 20
907.383
 42
-0.25598
 10
98.14390000000001
 20
905.5980000000001
 42
-0.0953328
 10
97.6011
 20
904.291
 42
-0.0492264
 10
95.8764
 20
902.214
 42
0.0155382
 10
91.5502
 20
897.9319999999999
 42
0.0996135
 10
90.25820000000001
 20
895.8849999999999
 42
0.242116
 10
90.42010000000001
 20
894.006
 42
0.0803743
 10
94.23489999999999
 20
890.0859999999999
 42
-0.0157892
 10
103.432
 20
883.3020000000001
 42
-0.131779
 10
107.44
 20
877.927
 42
-0.263125
 10
107.149
 20
876.2209999999999
 42
-0.0868686
 10
106.1
 20
875.3150000000001
 42
-0.0481664
 10
101.872
 20
873.516
 42
0.0529097
 10
97.7264
 20
871.8049999999999
 42
0.093492
 10
96.75690000000001
 20
870.982
 42
0.301273
 10
96.63440000000001
 20
869.4550000000001
 42
0.0447098
 10
99.1253
 20
865.165
 42
0.0940559
 10
103.678
 20
861.0700000000001
 42
0.179899
 10
116.039
 20
860.255
 42
-0.0989378
 10
120.8
 20
860.674
 42
-0.134843
 10
122.531
 20
859.9839999999998
 42
-0.193143
 10
123.549
 20
857.8689999999999
 42
-0.0678206
 10
123.188
 20
853.817
 42
0.0692797
 10
122.604
 20
848.4489999999999
 42
0.175359
 10
123.587
 20
845.964
 42
0.146161
 10
126.934
 20
844.251
 42
0.108179
 10
138.807
 20
844.8299999999999
 42
0.102442
 10
146.746
 20
848.2669999999998
 42
-0.141093
 10
148.052
 20
848.811
 42
-0.449357
 10
151.415
 20
845.382
 42
-0.19175
 10
149.382
 20
841.3860000000001
 42
-0.5566240000000001
 10
102.465
 20
852.2260000000001
 42
-0.752121
 10
87.19179999999999
 20
869.1679999999999
 42
0.469345
 10
83.2905
 20
882.4439999999999
 42
-0.5525210000000001
 10
80.11830000000001
 20
906.1289999999999
 42
0.129178
 10
82.1502
 20
908.7760000000001
 42
0.225817
 10
81.54259999999998
 20
913.4769999999999
 42
0.082237
  0
LWPOLYLINE
  5
A17
330
22
100
AcDbEntity
  8
0
100
AcDbPolyline
 90
       65
 70
     1
 43
0.0
 10
431.943
 20
864.9680000000001
 42
-0.0818468
 10
374.023
 20
851.6900000000001
 42
-0.0237211
 10
369.352
 20
851.7330000000001
 42
-0.0944263
 10
357.367
 20
855.1770000000001
 42
-0.193749
 10
290.797
 20
922.2519999999999
 42
0.053802
 10
288.511
 20
926.9019999999999
 42
0.285172
 10
287.771
 20
927.218
 42
0.311039
 10
287.226
 20
926.7050000000001
 10
287.095
 20
925.8499999999999
 42
0.0092884
 10
286.856
 20
922.161
 42
-0.070455
 10
285.852
 20
915.2939999999999
 42
-0.109775
 10
284.8
 20
913.475
 42
-0.209372
 10
283.153
 20
912.7919999999999
 42
-0.0741079
 10
279.763
 20
913.3449999999999
 42
-0.445454
 10
273.369
 20
925.469
 42
-0.134023
 10
294.194
 20
958.862
 42
0.0665434
 10
298.639
 20
963.788
 42
0.11162
 10
299.55
 20
965.9760000000002
 42
0.196427
 10
299.173
 20
967.5080000000001
 42
0.117359
 10
297.813
 20
968.5719999999999
 42
0.0416558
 10
295.771
 20
969.3539999999998
 42
-0.0386678
 10
289.682
 20
971.316
 42
-0.19127
 10
286.301
 20
974.441
 42
-0.48514
 10
303.526
 20
1005.1
 42
-0.0683196
 10
305.293
 20
1005.19
 10
305.799
 20
1005.05
 42
-0.291753
 10
306.193
 20
1004.42
 10
306.137
 20
1003.95
 42
-0.0514785
 10
305.654
 20
1002.75
 42
0.0416869
 10
303.222
 20
997.583
 42
0.245491
 10
303.937
 20
991.4429999999999
 10
316.483
 20
973.685
 42
-0.0603978
 10
316.705
 20
973.211
 42
0.00668101
 10
317.515
 20
970.7219999999999
 42
0.0897916
 10
318.34
 20
969.2249999999999
 42
0.123967
 10
318.888
 20
968.842
 42
0.22275
 10
319.925
 20
969.02
 42
0.0753312
 10
320.784
 20
969.794
 42
0.008543
 10
321.7729999999999
 20
971.085
 42
-0.119465
 10
326.69
 20
974.862
 42
0.148116
 10
329.309
 20
977.1169999999999
 42
0.0188483
 10
336.963
 20
991.7460000000001
 42
-0.33762
 10
364.142
 20
1004.87
 42
0.7217660000000001
 10
402.7149999999999
 20
1005.7
 42
-0.0405006
 10
404.398
 20
1010.1
 42
-0.0951918
 10
406.023
 20
1012.41
 42
-0.0941278
 10
406.848
 20
1012.89
 42
-0.12306
 10
407.5779999999999
 20
1012.96
 42
-0.167263
 10
409.049
 20
1012.05
 42
-0.0724302
 10
411.073
 20
1008.67
 42
-0.0374832
 10
415.443
 20
993.956
 42
0.239179
 10
444.6269999999999
 20
959.848
 42
-0.0357459
 10
446.651
 20
958.833
 42
-0.0613153
 10
453.401
 20
952.837
 42
0.14933
 10
461.3909999999999
 20
948.0349999999999
 42
-0.5391640000000001
 10
469.599
 20
925.313
 42
-0.0264135
 10
466.651
 20
921.863
 42
0.133502
 10
462.755
 20
915.3500000000001
 42
-0.527819
 10
436.305
 20
906.8380000000001
 42
0.0633376
 10
432.772
 20
909.016
 42
0.116095
 10
430.079
 20
909.5839999999999
 42
0.248204
 10
427.5119999999999
 20
908.0489999999999
 42
0.0978911
 10
426.713
 20
905.858
 42
0.141588
 10
428.184
 20
896.863
 42
0.160754
 10
433.143
 20
890.905
 42
-0.641603
  0
LWPOLYLINE
  5
A5A
330
22
100
AcDbEntity
  8
0
100
AcDbPolyline
 90
        6
 70
     1
 43
0.0
 10
1055.56
 20
871.2000000000001
 42
-0.340331
 10
1056.58
 20
870.7260000000001
 42
0.0101396
 10
1060.46
 20
865.0619999999999
 10
1060.9
 20
864.1299999999999
 42
-0.6873630000000001
 10
1057.64
 20
862.471
 42
-0.116814
 10
1054.83
 20
870.335
 42
-0.334882
  0
LWPOLYLINE
  5
A62
330
22
100
AcDbEntity
  8
0
100
AcDbPolyline
 90
       23
 70
     1
 43
0.0
 10
360.318
 20
886.1569999999998
 10
360.673
 20
886.7739999999999
 42
-0.310844
 10
361.192
 20
886.9169999999998
 42
-0.0968779
 10
362.5669999999999
 20
886.12
 42
0.0411947
 10
365.885
 20
883.699
 42
-0.0387122
 10
370.841
 20
880.1110000000001
 42
0.0834691
 10
377.411
 20
875.947
 42
0.0385126
 10
379.144
 20
875.312
 42
0.0434853
 10
380.75
 20
875.0069999999999
 42
0.0165578
 10
388.486
 20
874.708
 42
-0.0695446
 10
390.871
 20
874.4069999999998
 42
-0.317134
 10
391.471
 20
873.572
 42
-0.217781
 10
390.89
 20
872.2719999999998
 10
389.837
 20
871.504
 42
0.0113814
 10
387.325
 20
869.946
 42
-0.0489009
 10
379.306
 20
865.1569999999999
 42
-0.121122
 10
374.127
 20
864.08
 42
-0.141269
 10
370.901
 20
865.1380000000001
 10
369.85
 20
866.2269999999999
 42
-0.0521773
 10
363.522
 20
872.822
 42
-0.0686756
 10
363.124
 20
873.5269999999999
 42
-0.0133463
 10
361.7
 20
877.4179999999999
 42
-0.0658744
 10
360.172
 20
883.7430000000001
 42
-0.101948
  0
LWPOLYLINE
  5
A7B
330
22
100
AcDbEntity
  8
0
100
AcDbPolyline
 90
       14
 70
     1
 43
0.0
 10
738.077
 20
1310.29
 10
655.135
 20
888.607
 42
-0.019771
 10
654.239
 20
884.6709999999999
 42
-0.0651395
 10
653.5509999999999
 20
882.765
 42
-0.313805
 10
653.248
 20
882.6239999999998
 42
-0.299232
 10
652.995
 20
882.8610000000001
 42
-0.0459893
 10
652.8859999999999
 20
883.84
 42
-0.0504355
 10
653.715
 20
891.8779999999999
 10
735.378
 20
1322.03
 42
-0.0557422
 10
736.536
 20
1326.54
 42
-0.2807629999999999
 10
737.1299999999999
 20
1326.96
 42
-0.340334
 10
737.646
 20
1326.62
 10
737.848
 20
1325.85
 42
-0.0363071
 10
738.423
 20
1319.35
 42
-0.0454018
  0
LWPOLYLINE
  5
A8B
330
22
100
AcDbEntity
  8
0
100
AcDbPolyline
 90
       18
 70
     1
 43
0.0
 10
394.5730000000001
 20
884.4880000000001
 42
-0.0421239
 10
390.392
 20
886.7499999999999
 42
-0.115026
 10
385.615
 20
892.406
 42
0.0192521
 10
385.232
 20
893.0289999999999
 42
-0.0458304
 10
384.4
 20
894.556
 42
-0.31039
 10
384.616
 20
895.6510000000001
 42
-0.244608
 10
385.927
 20
896.049
 10
387.083
 20
895.583
 42
0.132585
 10
401.3279999999999
 20
894.716
 42
-0.0141385
 10
404.373
 20
895.593
 42
-0.060622
 10
407.119
 20
896.1139999999998
 10
408.1159999999999
 20
895.9479999999999
 42
-0.318704
 10
409.426
 20
893.819
 42
-0.0741618
 10
409.1269999999999
 20
891.8689999999999
 42
-0.0677157
 10
408.216
 20
889.9119999999999
 42
0.0180617
 10
405.1149999999999
 20
885.163
 42
-0.0972463
 10
403.975
 20
883.8980000000001
 42
-0.128474
 10
402.773
 20
883.4069999999998
 42
-0.12304
  0
LWPOLYLINE
  5
A9F
330
22
100
AcDbEntity
  8
0
100
AcDbPolyline
 90
        8
 70
     1
 43
0.0
 10
1042.09
 20
895.7349999999999
 42
-0.423682
 10
1043.39
 20
898.0489999999999
 42
-0.250223
 10
1045.24
 20
897.6260000000001
 42
-0.153035
 10
1047.89
 20
889.7149999999999
 42
-0.155174
 10
1047.32
 20
888.427
 42
-0.362797
 10
1046.67
 20
888.3259999999999
 10
1045.44
 20
889.535
 42
-0.0736912
 10
1042.61
 20
894.8310000000001
  0
LWPOLYLINE
  5
AA9
330
22
100
AcDbEntity
  8
0
100
AcDbPolyline
 90
       15
 70
     1
 43
0.0
 10
262.098
 20
915.451
 42
0.155388
 10
291.365
 20
895.503
 10
290.886
 20
895.603
 42
0.036632
 10
289.6040000000001
 20
895.668
 42
0.0191516
 10
279.545
 20
894.6060000000001
 42
-0.0586896
 10
273.001
 20
894.3760000000001
 42
-0.229037
 10
248.835
 20
910.5599999999999
 42
-0.146868
 10
247.729
 20
914.0969999999999
 42
-0.107937
 10
248.26
 20
916.2139999999999
 42
-0.111902
 10
251.455
 20
919.557
 42
0.0340461
 10
255.958
 20
922.962
 42
-0.191787
 10
256.57
 20
923.2469999999999
 42
-0.148558
 10
257.233
 20
923.0399999999999
 42
-0.077807
 10
258.281
 20
922.02
 42
-0.0416398
 10
260.941
 20
917.4889999999999
 42
0.0399626
  0
LWPOLYLINE
  5
ABA
330
22
100
AcDbEntity
  8
0
100
AcDbPolyline
 90
       10
 70
     1
 43
0.0
 10
367.329
 20
937.184
 10
393.521
 20
920.045
 42
-0.0423174
 10
394.247
 20
919.477
 42
-0.0738175
 10
394.579
 20
919.062
 42
-0.262637
 10
394.645
 20
918.232
 42
-0.0905474
 10
394.419
 20
917.9169999999999
 42
-0.0566036
 10
393.93
 20
917.543
 42
-0.0538736
 10
392.644
 20
916.985
 42
-0.0558188
 10
384.774
 20
915.7769999999999
 10
384.728
 20
915.7860000000001
 42
-0.642737
  0
LWPOLYLINE
  5
AC6
330
22
100
AcDbEntity
  8
0
100
AcDbPolyline
 90
       16
 70
     1
 43
0.0
 10
464.1969999999999
 20
939.0629999999999
 10
465.2709999999999
 20
937.9929999999999
 42
-0.0874389
 10
466.66
 20
936.097
 42
-0.0880978
 10
467.3099999999999
 20
933.8560000000001
 42
-0.0280075
 10
467.548
 20
930.7919999999999
 10
467.383
 20
929.8160000000001
 42
-0.213051
 10
466.772
 20
929.1499999999999
 42
-0.225925
 10
465.9159999999999
 20
929.1809999999999
 42
-0.0453888
 10
460.1359999999999
 20
932.8789999999999
 42
0.0294945
 10
455.343
 20
936.5959999999999
 42
-0.0319876
 10
451.811
 20
938.9700000000001
 42
-0.216929
 10
451.231
 20
940.254
 42
-0.320989
 10
451.818
 20
941.0669999999999
 10
452.8219999999999
 20
941.2699999999999
 42
-0.0450567
 10
459.806
 20
941.1089999999999
 42
-0.0822012
 10
462.193
 20
940.4429999999999
 42
-0.0837525
  0
LWPOLYLINE
  5
AD8
330
22
100
AcDbEntity
  8
0
100
AcDbPolyline
 90
      167
 70
     1
 43
0.0
 10
275.208
 20
972.9460000000001
 42
-0.3719139999999999
 10
263.753
 20
944.313
 10
262.904
 20
973.719
 10
262.795
 20
974.1900000000001
 42
0.0825423
 10
262.069
 20
975.2419999999998
 42
0.0302436
 10
259.292
 20
977.753
 42
-0.0717749
 10
254.797
 20
982.3730000000001
 42
-0.188151
 10
253.904
 20
985.895
 42
-0.147288
 10
255.471
 20
988.708
 42
0.0729875
 10
256.918
 20
990.6829999999999
 42
0.221578
 10
256.891
 20
998.0069999999999
 42
0.0901806
 10
250.402
 20
1006.95
 42
-0.4848340000000001
 10
254.391
 20
1038.27
 42
-0.0683936
 10
256.87
 20
1039.32
 42
0.0392229
 10
258.227
 20
1039.76
 42
0.189586
 10
259.066
 20
1040.62
 42
0.0734205
 10
259.374
 20
1041.98
 42
0.046355
 10
258.82
 20
1051.46
 42
0.053055
 10
256.229
 20
1058.32
 42
-0.381564
 10
265.014
 20
1084.2
 42
0.149318
 10
270.74
 20
1089.76
 42
0.0226799
 10
273.911
 20
1097.36
 42
-0.268849
 10
322.274
 20
1133.94
 42
0.0409097
 10
326.978
 20
1134.78
 42
0.0827311
 10
328.455
 20
1135.41
 42
0.174921
 10
328.807
 20
1135.93
 42
0.201135
 10
328.726
 20
1136.47
 42
0.0884094
 10
327.928
 20
1137.27
 42
0.0150222
 10
324.094
 20
1139.67
 42
-0.0943224
 10
320.357
 20
1142.73
 42
-0.247709
 10
320.111
 20
1144.64
 42
-0.0922878
 10
321.371
 20
1146.83
 42
-0.048468
 10
326.839
 20
1151.89
 42
-0.254382
 10
414.7789999999999
 20
1171.12
 42
-0.0470275
 10
421.33
 20
1168.53
 42
0.0782672
 10
432.4359999999999
 20
1164.91
 42
-0.239232
 10
480.846
 20
1129.76
 42
0.0432464
 10
483.678
 20
1125.0
 42
0.109292
 10
490.955
 20
1119.16
 42
-0.134848
 10
510.599
 20
1099.46
 10
516.475
 20
1089.23
 42
0.0429562
 10
516.9249999999999
 20
1088.6
 42
-0.13127
 10
529.039
 20
1062.72
 10
529.224
 20
1061.43
 42
-0.0841067
 10
529.187
 20
1059.79
 42
-0.18222
 10
528.8369999999999
 20
1059.3
 42
-0.209882
 10
528.3139999999999
 20
1059.2
 42
-0.0876456
 10
527.3469999999999
 20
1059.69
 42
-0.0169424
 10
524.379
 20
1062.2
 42
0.071797
 10
522.768
 20
1063.34
 10
522.341
 20
1063.47
 42
0.335191
 10
521.734
 20
1063.18
 10
521.5819999999999
 20
1062.69
 42
0.0628333
 10
521.46
 20
1057.78
 42
0.125313
 10
529.2119999999999
 20
1040.18
 42
-0.321853
 10
528.5149999999999
 20
995.4119999999999
 10
527.4869999999999
 20
994.0789999999999
 42
-0.0724183
 10
525.153
 20
991.693
 42
-0.131978
 10
524.104
 20
991.2360000000001
 42
-0.210306
 10
523.346
 20
991.491
 42
-0.0992433
 10
522.785
 20
992.289
 42
-0.0274607
 10
522.099
 20
994.1360000000001
 42
0.0838045
 10
520.5689999999999
 20
997.549
 42
0.158444
 10
518.9339999999999
 20
998.836
 42
0.2818469999999999
 10
517.415
 20
998.45
 42
0.0862659
 10
516.628
 20
997.3309999999999
 42
0.0625636
 10
515.279
 20
992.679
 10
514.125
 20
984.322
 42
-0.315521
 10
479.332
 20
950.5189999999998
 42
-0.0139231
 10
472.2859999999999
 20
949.501
 42
-0.0148809
 10
469.563
 20
949.3669999999999
 42
-0.0732912
 10
468.439
 20
949.548
 10
468.097
 20
949.7339999999999
 42
-0.275088
 10
467.8719999999999
 20
950.3150000000001
 10
467.9969999999999
 20
950.721
 42
-0.068584
 10
468.7419999999999
 20
951.7819999999998
 42
-0.0397902
 10
472.32
 20
955.0319999999999
 42
0.5051290000000001
 10
470.7259999999999
 20
990.7530000000001
 42
0.245229
 10
469.293
 20
990.911
 42
0.187345
 10
467.934
 20
989.666
 42
0.0511236
 10
467.039
 20
987.029
 42
0.0119092
 10
465.291
 20
977.443
 42
-0.0777063
 10
462.7329999999999
 20
968.4369999999999
 42
-0.110187
 10
461.059
 20
966.3569999999999
 42
-0.22642
 10
457.698
 20
965.925
 42
-0.183453
 10
456.3889999999999
 20
966.7619999999999
 42
-0.176995
 10
456.1319999999999
 20
968.1499999999999
 42
-0.0635392
 10
456.6539999999999
 20
970.0319999999999
 42
0.0144581
 10
460.1539999999999
 20
978.1060000000001
 42
0.253364
 10
458.6859999999999
 20
993.2169999999999
 42
0.172894
 10
457.413
 20
994.054
 42
0.249298
 10
456.3559999999999
 20
993.7849999999999
 10
455.828
 20
993.1779999999999
 42
0.0372253
 10
454.2059999999999
 20
990.1889999999999
 42
-0.0630616
 10
449.868
 20
982.5319999999999
 42
-0.178099
 10
445.2709999999999
 20
979.62
 42
-0.118733
 10
441.6269999999999
 20
979.612
 42
-0.206379
 10
439.648
 20
981.1060000000001
 42
-0.111018
 10
438.971
 20
983.951
 42
-0.0458153
 10
439.7509999999999
 20
991.2779999999999
 42
0.0235169
 10
441.9299999999999
 20
1005.31
 42
0.0877242
 10
441.703
 20
1007.73
 10
441.3499999999999
 20
1008.37
 42
0.274629
 10
440.254
 20
1008.72
 10
439.5459999999999
 20
1008.48
 42
0.0608112
 10
437.8959999999999
 20
1007.38
 42
0.0379789
 10
430.7599999999999
 20
999.6349999999999
 42
-0.0410767
 10
429.1159999999999
 20
997.8569999999999
 42
-0.2878159999999999
 10
428.595
 20
997.7869999999999
 42
-0.122586
 10
427.6869999999999
 20
998.506
 42
-0.0473572
 10
426.533
 20
1000.46
 42
-0.0585611
 10
420.3969999999999
 20
1021.1
 42
-0.0718325
 10
420.193
 20
1024.18
 42
0.9572029999999999
 10
395.8680000000001
 20
1028.63
 42
0.0960033
 10
396.002
 20
1024.93
 42
-0.02868
 10
396.946
 20
1019.36
 42
-0.165334
 10
396.19
 20
1015.81
 42
-0.0240433
 10
394.142
 20
1013.07
 42
-0.0777207
 10
391.95
 20
1010.96
 42
-0.11334
 10
391.226
 20
1010.68
 42
-0.2433
 10
390.67
 20
1010.88
 10
390.474
 20
1011.2
 42
-0.0875202
 10
390.276
 20
1012.34
 42
-0.0444528
 10
390.571
 20
1015.5
 10
394.79
 20
1040.39
 42
0.0631601
 10
394.741
 20
1043.03
 42
0.0527229
 10
394.13
 20
1045.54
 42
0.113309
 10
393.273
 20
1046.92
 42
0.240414
 10
392.027
 20
1047.36
 42
0.121673
 10
390.961
 20
1046.89
 42
0.0769597
 10
388.977
 20
1044.71
 42
0.111037
 10
378.083
 20
1017.93
 42
-0.13845
 10
376.3680000000001
 20
1014.34
 42
-0.230289
 10
370.815
 20
1011.77
 42
-0.353785
 10
367.79
 20
1014.41
 42
-0.17304
 10
368.439
 20
1017.53
 42
-0.0457522
 10
370.72
 20
1020.8
 42
0.0538429
 10
374.37
 20
1025.96
 42
0.210291
 10
374.838
 20
1030.54
 10
374.516
 20
1031.15
 42
0.227975
 10
373.546
 20
1031.64
 42
0.113112
 10
372.241
 20
1031.33
 42
0.0457734
 10
370.718
 20
1030.44
 42
0.0241272
 10
366.044
 20
1026.58
 42
-0.0587281
 10
364.386
 20
1025.34
 42
-0.358681
 10
363.9369999999999
 20
1025.44
 42
-0.225398
 10
363.786
 20
1026.11
 42
-0.0685936
 10
364.656
 20
1028.34
 42
-0.0396057
 10
368.9
 20
1033.92
 42
0.125754
 10
372.301
 20
1040.62
 42
0.057417
 10
372.525
 20
1047.32
 42
0.120603
 10
371.711
 20
1049.88
 42
0.259611
 10
369.794
 20
1050.85
 42
0.0806378
 10
368.312
 20
1050.58
 42
0.0742074
 10
364.086
 20
1048.18
 42
0.204009
 10
345.287
 20
1016.65
 42
0.329713
 10
322.242
 20
998.7109999999999
 42
-0.0440328
 10
319.384
 20
991.9719999999999
 42
-0.059064
 10
318.762
 20
991.026
 42
-0.391361
 10
318.563
 20
991.0099999999999
 42
-0.241663
 10
318.438
 20
991.28
 10
318.668
 20
992.857
 42
0.0207027
 10
320.042
 20
1001.64
 42
0.152223
 10
318.611
 20
1008.68
 42
0.193109
 10
311.393
 20
1013.54
 42
0.421326
 10
274.181
 20
992.393
 42
0.0465052
 10
273.525
 20
987.8539999999999
 42
0.088576
  0
LWPOLYLINE
  5
B81
330
22
100
AcDbEntity
  8
0
100
AcDbPolyline
 90
       13
 70
     1
 43
0.0
 10
1014.33
 20
957.4049999999999
 42
-0.00885534
 10
1013.68
 20
958.8119999999999
 10
1004.27
 20
977.686
 10
1003.63
 20
978.945
 42
-0.162013
 10
1003.4
 20
980.823
 10
1003.71
 20
981.4010000000001
 42
-0.465987
 10
1004.6
 20
981.4010000000001
 10
1004.97
 20
980.733
 10
1014.77
 20
960.975
 10
1015.42
 20
959.715
 42
-0.164905
 10
1015.66
 20
957.8339999999998
 10
1015.34
 20
957.2510000000001
 42
-0.46519
 10
1014.44
 20
957.2510000000001
 42
-0.0739586
  0
LWPOLYLINE
  5
B90
330
22
100
AcDbEntity
  8
0
100
AcDbPolyline
 90
       15
 70
     1
 43
0.0
 10
403.5479999999999
 20
965.052
 42
-0.00465766
 10
400.0109999999999
 20
965.2829999999999
 42
-0.0527107
 10
398.508
 20
965.5750000000001
 42
-0.0428934
 10
396.765
 20
966.277
 42
-0.114292
 10
387.27
 20
973.318
 42
-0.104074
 10
386.225
 20
974.9500000000001
 42
-0.176552
 10
386.253
 20
976.523
 42
-0.170191
 10
386.918
 20
977.381
 42
-0.125013
 10
388.3
 20
977.847
 42
-0.0814732
 10
392.871
 20
977.3239999999999
 42
-0.100869
 10
404.9959999999999
 20
970.3660000000001
 42
-0.0764348
 10
406.7709999999999
 20
968.283
 42
-0.187028
 10
407.0479999999999
 20
966.4169999999998
 42
-0.25267
 10
405.9549999999999
 20
965.337
 42
-0.0585621
 10
405.112
 20
965.135
 42
-0.0323421
  0
LWPOLYLINE
  5
BA1
330
22
100
AcDbEntity
  8
0
100
AcDbPolyline
 90
       14
 70
     1
 43
0.0
 10
865.1799999999999
 20
1282.13
 10
998.985
 20
994.148
 42
-0.0393522
 10
1000.56
 20
990.281
 42
-0.305248
 10
1000.45
 20
989.9730000000001
 42
-0.364461
 10
1000.16
 20
989.9930000000001
 42
-0.0344921
 10
999.0289999999999
 20
991.3989999999998
 42
-0.041265
 10
994.785
 20
998.5179999999999
 10
857.652
 20
1283.18
 42
-0.0536334
 10
855.7869999999999
 20
1287.86
 42
-0.0795634
 10
855.55
 20
1289.74
 10
855.6829999999999
 20
1290.35
 42
-0.257797
 10
856.3689999999999
 20
1290.94
 42
-0.141764
 10
857.501
 20
1290.79
 42
-0.0622991
 10
858.947
 20
1289.99
 42
-0.121211
  0
LWPOLYLINE
  5
BB1
330
22
100
AcDbEntity
  8
0
100
AcDbPolyline
 90
        9
 70
     1
 43
0.0
 10
691.2269999999999
 20
1267.05
 42
0.0383844
 10
685.7779999999999
 20
1259.72
 10
577.576
 20
1075.58
 42
0.0587867
 10
573.8369999999999
 20
1066.23
 42
0.0457302
 10
573.3839999999999
 20
1063.82
 42
0.241597
 10
573.6709999999999
 20
1063.21
 42
0.3417699999999999
 10
574.177
 20
1063.21
 42
0.0598913
 10
575.359
 20
1064.5
 42
0.0213989
 10
577.1759999999999
 20
1067.15
 42
-0.048685
  0
LWPOLYLINE
  5
BBC
330
22
100
AcDbEntity
  8
0
100
AcDbPolyline
 90
       28
 70
     1
 43
0.0
 10
810.06
 20
1389.54
 42
0.0357474
 10
781.2999999999999
 20
1305.96
 10
780.909
 20
1304.64
 42
-0.0931947
 10
779.6599999999999
 20
1302.07
 42
-0.13904
 10
778.788
 20
1301.38
 42
-0.247904
 10
777.4639999999999
 20
1301.66
 42
-0.0878257
 10
776.173
 20
1303.21
 42
-0.0715104
 10
773.346
 20
1311.08
 10
753.385
 20
1397.28
 42
0.0541476
 10
681.3660000000001
 20
1417.63
 42
-0.059108
 10
674.9319999999999
 20
1419.27
 42
-0.0986064
 10
672.8939999999998
 20
1420.51
 42
-0.227911
 10
672.3530000000001
 20
1421.82
 42
-0.163606
 10
673.0499999999999
 20
1423.15
 42
-0.0742989
 10
675.8439999999999
 20
1425.12
 42
-0.0565603
 10
687.3639999999999
 20
1429.14
 42
0.0630593
 10
760.552
 20
1456.5
 10
783.4169999999999
 20
1559.74
 10
805.1429999999999
 20
1451.31
 10
880.5279999999999
 20
1426.11
 42
-0.0754565
 10
884.4319999999999
 20
1424.33
 42
-0.115231
 10
885.5579999999999
 20
1423.18
 42
-0.196718
 10
885.7080000000001
 20
1422.08
 42
-0.131764
 10
885.058
 20
1421.04
 42
-0.0617682
 10
883.7819999999998
 20
1420.09
 42
-0.0751307
 10
875.013
 20
1417.18
 42
0.0597799
 10
823.676
 20
1401.22
 42
0.0125315
 10
819.078
 20
1399.08
 42
0.202708
  0
LWPOLYLINE
  5
BDA
330
22
100
AcDbEntity
  8
0
100
AcDbPolyline
 90
       11
 70
     1
 43
0.0
 10
537.453
 20
1308.46
 42
-0.15174
 10
537.562
 20
1308.47
 42
-0.4814040000000001
 10
537.8309999999999
 20
1307.93
 42
-0.109808
 10
536.5
 20
1306.2
 42
-0.154996
 10
533.6289999999999
 20
1304.92
 42
0.0944322
 10
529.706
 20
1303.55
 10
529.0019999999999
 20
1303.07
 42
-0.4328020000000001
 10
528.5479999999999
 20
1303.38
 42
-0.195508
 10
528.8039999999999
 20
1304.42
 42
-0.169277
 10
531.8649999999999
 20
1306.62
 42
0.0197079
 10
536.0249999999999
 20
1307.84
 42
-0.010398
  0
LWPOLYLINE
  5
BE7
330
22
100
AcDbEntity
  8
0
100
AcDbPolyline
 90
       21
 70
     1
 43
0.0
 10
801.2809999999999
 20
1406.37
 10
779.0399999999999
 20
1323.43
 10
763.4680000000001
 20
1404.37
 42
0.0532982
 10
704.316
 20
1422.53
 10
702.691
 20
1422.88
 42
-0.0802164
 10
699.6939999999999
 20
1423.92
 42
-0.186408
 10
699.1369999999999
 20
1424.64
 42
-0.2651159999999999
 10
699.286
 20
1425.28
 10
699.682
 20
1425.62
 42
-0.0476557
 10
700.923
 20
1426.28
 42
-0.0201849
 10
709.6919999999999
 20
1429.04
 10
765.7939999999999
 20
1446.38
 10
783.7339999999999
 20
1526.04
 10
796.7669999999999
 20
1447.43
 42
0.0484816
 10
851.425
 20
1427.31
 42
0.0120731
 10
859.166
 20
1425.67
 42
-0.0551414
 10
861.031
 20
1425.15
 42
-0.235093
 10
861.386
 20
1424.71
 42
-0.290554
 10
861.228
 20
1424.28
 42
-0.0603829
 10
860.0889999999999
 20
1423.67
 42
-0.0266026
 10
854.765
 20
1421.91
  0
LWPOLYLINE
  5
BFE
330
22
100
AcDbEntity
  8
0
100
AcDbPolyline
 90
       10
 70
     1
 43
0.0
 10
877.533
 20
1395.6
 10
972.3229999999999
 20
1344.12
 42
-0.9678889999999999
 10
971.1110000000001
 20
1341.71
 10
868.833
 20
1388.89
 10
866.833
 20
1389.9
 42
-0.0989529
 10
863.081
 20
1392.75
 42
-0.130775
 10
862.231
 20
1394.42
 42
-0.18312
 10
862.495
 20
1395.84
 42
-0.127166
 10
863.696
 20
1396.95
 42
-0.0739013
 10
865.6549999999999
 20
1397.68
 42
-0.173036
  0
LWPOLYLINE
  5
C0A
330
22
100
AcDbEntity
  8
0
100
AcDbPolyline
 90
       14
 70
     1
 43
0.0
 10
611.6749999999999
 20
1348.92
 42
0.00906841
 10
621.0189999999999
 20
1354.61
 42
-0.0251051
 10
630.993
 20
1359.52
 42
-0.031622
 10
633.6889999999999
 20
1360.47
 42
-0.060418
 10
635.1709999999999
 20
1360.69
 42
-0.208992
 10
636.655
 20
1360.1
 42
-0.4192790000000001
 10
636.6399999999999
 20
1359.2
 10
635.973
 20
1358.83
 10
607.7989999999999
 20
1344.79
 10
606.962
 20
1344.32
 42
-0.312718
 10
606.109
 20
1344.47
 42
-0.358501
 10
606.033
 20
1345.25
 42
-0.0649078
 10
606.5479999999999
 20
1345.83
 42
-0.0349736
 10
607.6979999999999
 20
1346.71
 42
-0.0130854
  0
LWPOLYLINE
  5
C1A
330
22
100
AcDbEntity
  8
0
100
AcDbPolyline
 90
       12
 70
     1
 43
0.0
 10
824.7799999999999
 20
1388.0
 10
857.258
 20
1347.34
 42
-0.0254288
 10
859.5030000000001
 20
1344.38
 42
-0.319912
 10
859.4930000000001
 20
1344.23
 42
-0.401567
 10
859.3689999999998
 20
1344.22
 42
-0.0185885
 10
857.418
 20
1345.98
 10
853.4500000000001
 20
1349.74
 42
-0.0489421
 10
829.325
 20
1377.15
 42
-0.0393453
 10
823.45
 20
1388.27
 42
-0.0569791
 10
823.1669999999999
 20
1389.25
 42
-0.4405310000000001
 10
823.2979999999999
 20
1389.4
 42
-0.189025
 10
823.6689999999999
 20
1389.25
 42
-0.036203
  0
LWPOLYLINE
  5
C28
330
22
100
AcDbEntity
  8
0
100
AcDbPolyline
 90
       15
 70
     1
 43
0.0
 10
711.587
 20
1356.46
 42
-0.00471345
 10
712.507
 20
1358.1
 42
-0.0658101
 10
714.977
 20
1361.7
 42
-0.00839289
 10
727.4249999999999
 20
1374.32
 42
-0.0399566
 10
728.408
 20
1375.08
 42
-0.125129
 10
728.7889999999999
 20
1375.21
 42
-0.4880130000000001
 10
729.343
 20
1374.65
 42
-0.12463
 10
729.2139999999999
 20
1374.28
 42
-0.0392525
 10
728.455
 20
1373.29
 42
-0.00526812
 10
724.568
 20
1369.32
 42
0.0284103
 10
719.6169999999999
 20
1363.53
 42
-0.0703153
 10
713.09
 20
1355.77
 10
712.312
 20
1355.09
 42
-0.357303
 10
711.5269999999999
 20
1355.17
 42
-0.313102
 10
711.3719999999999
 20
1356.03
 42
-0.0184781
  0
LWPOLYLINE
  5
C39
330
22
100
AcDbEntity
  8
0
100
AcDbPolyline
 90
       16
 70
     1
 43
0.0
 10
700.733
 20
1391.22
 10
646.0499999999999
 20
1364.03
 42
-0.0322578
 10
642.5399999999999
 20
1362.51
 42
-0.0727275
 10
641.0299999999999
 20
1362.15
 42
-0.192465
 10
640.595
 20
1362.3
 42
-0.319431
 10
640.5249999999999
 20
1362.59
 10
640.6709999999999
 20
1362.84
 42
-0.0512088
 10
641.2899999999999
 20
1363.51
 42
-0.050076
 10
645.7939999999999
 20
1366.57
 10
697.5589999999999
 20
1396.28
 42
-0.0475786
 10
702.0089999999998
 20
1398.36
 42
-0.103813
 10
706.208
 20
1399.08
 42
-0.118357
 10
707.432
 20
1398.71
 42
-0.203256
 10
707.993
 20
1397.94
 42
-0.157061
 10
707.8330000000001
 20
1396.82
 42
-0.080746
 10
706.891
 20
1395.44
 42
-0.0847009
  0
LWPOLYLINE
  5
C4B
330
22
100
AcDbEntity
  8
0
100
AcDbPolyline
 90
       13
 70
     1
 43
0.0
 10
741.1119999999999
 20
1389.3
 42
-0.0642213
 10
735.372
 20
1382.23
 42
-0.005427
 10
733.371
 20
1380.27
 10
731.6269999999999
 20
1378.66
 10
731.047
 20
1378.43
 42
-0.4234410000000001
 10
730.4069999999999
 20
1379.07
 10
730.636
 20
1379.66
 42
0.022878
 10
738.965
 20
1391.42
 42
-0.0370073
 10
740.7949999999999
 20
1393.79
 42
-0.0920141
 10
741.756
 20
1394.53
 42
-0.18135
 10
743.593
 20
1394.82
 42
-0.354628
 10
744.093
 20
1394.16
 42
-0.163231
 10
743.5239999999999
 20
1392.63
 42
0.0362687
  0
LWPOLYLINE
  5
C5A
330
22
100
AcDbEntity
  8
0
100
AcDbPolyline
 90
       11
 70
     1
 43
0.0
 10
979.7629999999999
 20
1422.55
 42
0.0327191
 10
918.1589999999999
 20
1416.24
 42
-0.045449
 10
914.5089999999999
 20
1416.46
 42
-0.0643816
 10
908.3489999999999
 20
1418.11
 42
-0.126582
 10
906.7819999999999
 20
1419.29
 42
-0.177895
 10
906.4810000000001
 20
1420.23
 42
-0.158235
 10
906.9550000000001
 20
1421.29
 42
-0.113912
 10
909.5089999999999
 20
1423.06
 42
-0.115886
 10
915.6499999999999
 20
1423.73
 42
0.0185109
 10
922.422
 20
1423.11
 10
971.8839999999998
 20
1423.11
 42
-0.0294529
  0
LWPOLYLINE
  5
C67
330
22
100
AcDbEntity
  8
0
100
AcDbPolyline
 90
        8
 70
     1
 43
0.0
 10
570.1789999999999
 20
1422.79
 42
0.0476913
 10
648.205
 20
1423.1
 10
648.964
 20
1423.03
 42
-0.200391
 10
649.512
 20
1422.71
 42
-0.4166310000000001
 10
649.46
 20
1422.37
 42
-0.0565248
 10
648.467
 20
1421.86
 42
-0.0804456
 10
634.2719999999999
 20
1419.33
 10
578.363
 20
1421.6
 42
-0.0386873
  0
LWPOLYLINE
  5
C71
330
22
100
AcDbEntity
  8
0
100
AcDbPolyline
 90
        8
 70
     1
 43
0.0
 10
663.465
 20
1494.56
 42
-0.100815
 10
726.303
 20
1463.11
 42
-0.065288
 10
726.7330000000001
 20
1462.69
 42
-0.14626
 10
726.8819999999999
 20
1462.35
 42
-0.231263
 10
726.7689999999999
 20
1462.08
 42
-0.12222
 10
726.4119999999999
 20
1461.91
 42
-0.0697995
 10
725.455
 20
1461.85
 42
-0.085557
 10
720.1030000000001
 20
1463.46
 42
-0.0334741
  0
LWPOLYLINE
  5
C7B
330
22
100
AcDbEntity
  8
0
100
AcDbPolyline
 90
        9
 70
     1
 43
0.0
 10
930.5950000000001
 20
1508.84
 10
854.7269999999999
 20
1464.96
 42
-0.0789114
 10
850.919
 20
1463.73
 42
-0.052617
 10
847.535
 20
1463.49
 42
-0.0944761
 10
845.6269999999999
 20
1463.86
 42
-0.16367
 10
844.951
 20
1464.4
 42
-0.229721
 10
844.9339999999999
 20
1465.22
 42
-0.102521
 10
845.7349999999999
 20
1466.32
 42
-0.045071
 10
847.511
 20
1467.74
 42
-0.0700627
  0
LWPOLYLINE
  5
C86
330
22
100
AcDbEntity
  8
0
100
AcDbPolyline
 90
       14
 70
     1
 43
0.0
 10
703.0089999999999
 20
1523.75
 42
-0.0954165
 10
741.678
 20
1478.96
 10
742.2919999999999
 20
1477.79
 42
-0.0878504
 10
742.804
 20
1476.2
 42
-0.275267
 10
742.4889999999999
 20
1475.58
 42
-0.197808
 10
741.5689999999999
 20
1475.42
 42
-0.0541925
 10
740.169
 20
1475.93
 42
-0.0498485
 10
734.911
 20
1479.34
 42
-0.0587828
 10
731.8969999999999
 20
1482.09
 10
707.934
 20
1514.08
 42
-0.0181731
 10
701.543
 20
1522.83
 42
-0.0625319
 10
700.5869999999999
 20
1524.63
 42
-0.410041
 10
700.7539999999998
 20
1524.96
 42
-0.214599
 10
701.3869999999999
 20
1524.9
 42
-0.0348507
  0
LWPOLYLINE
  5
C96
330
22
100
AcDbEntity
  8
0
100
AcDbPolyline
 90
        9
 70
     1
 43
0.0
 10
869.011
 20
1517.54
 42
-0.0735828
 10
833.365
 20
1479.86
 42
-0.0206592
 10
830.471
 20
1477.72
 42
-0.018349
 10
829.226
 20
1477.0
 42
-0.0848709
 10
828.6610000000001
 20
1476.84
 42
-0.272819
 10
828.3849999999999
 20
1476.98
 42
-0.183221
 10
828.297
 20
1477.42
 42
-0.0560447
 10
828.5549999999998
 20
1478.23
 42
-0.0355025
 10
830.0969999999999
 20
1481.08
 42
-0.135952
  0
ENDSEC
  0
SECTION
  2
OBJECTS
  0
DICTIONARY
  5
C
330
0
100
AcDbDictionary
281
     1
  3
ACAD_COLOR
350
1B
  3
ACAD_GROUP
350
D
  3
ACAD_LAYOUT
350
19
  3
ACAD_MATERIAL
350
1A
  3
ACAD_MLINESTYLE
350
16
  3
ACAD_PLOTSETTINGS
350
18
  3
ACAD_PLOTSTYLENAME
350
E
  3
ACAD_TABLESTYLE
350
1C
  3
AcDbVariableDictionary
350
CA5
  0
DICTIONARY
  5
1B
102
{ACAD_REACTORS
330
C
102
}
330
C
100
AcDbDictionary
281
     1
  0
DICTIONARY
  5
D
102
{ACAD_REACTORS
330
C
102
}
330
C
100
AcDbDictionary
281
     1
  0
DICTIONARY
  5
19
102
{ACAD_REACTORS
330
C
102
}
330
C
100
AcDbDictionary
281
     1
  3
Layout1
350
21
  3
Model
350
25
  0
DICTIONARY
  5
1A
102
{ACAD_REACTORS
330
C
102
}
330
C
100
AcDbDictionary
281
     1
  0
DICTIONARY
  5
16
102
{ACAD_REACTORS
330
C
102
}
330
C
100
AcDbDictionary
281
     1
  3
Standard
350
17
  0
DICTIONARY
  5
18
102
{ACAD_REACTORS
330
C
102
}
330
C
100
AcDbDictionary
281
     1
  0
ACDBDICTIONARYWDFLT
  5
E
102
{ACAD_REACTORS
330
C
102
}
330
C
100
AcDbDictionary
281
     1
  3
Normal
350
F
100
AcDbDictionaryWithDefault
340
F
  0
DICTIONARY
  5
1C
102
{ACAD_REACTORS
330
C
102
}
330
C
100
AcDbDictionary
281
     1
  3
Standard
350
1D
  0
DICTIONARY
  5
CA5
102
{ACAD_REACTORS
330
C
102
}
330
C
100
AcDbDictionary
281
     1
  3
CTABLESTYLE
350
CA6
  0
LAYOUT
  5
21
102
{ACAD_REACTORS
330
19
102
}
330
19
100
AcDbPlotSettings
  1

  2
Samsung ML-2010 Series
  4

  6

 40
0.0
 41
0.0
 42
0.0
 43
0.0
 44
0.0
 45
0.0
 46
0.0
 47
0.0
 48
0.0
 49
0.0
140
0.0
141
0.0
142
1.0
143
1.0
 70
   688
 72
     0
 73
     0
 74
     5
  7
Samsung ML-2010 Series
 75
    16
147
1.0
 76
     0
 77
     2
 78
   300
148
0.0
149
0.0
100
AcDbLayout
  1
Layout1
 70
     1
 71
     1
 10
0.0
 20
0.0
 11
12.0
 21
9.0
 12
0.0
 22
0.0
 32
0.0
 14
1.000000000000000E+20
 24
1.000000000000000E+20
 34
1.000000000000000E+20
 15
-1.000000000000000E+20
 25
-1.000000000000000E+20
 35
-1.000000000000000E+20
146
0.0
 13
0.0
 23
0.0
 33
0.0
 16
1.0
 26
0.0
 36
0.0
 17
0.0
 27
1.0
 37
0.0
 76
     0
330
1E
  0
LAYOUT
  5
25
102
{ACAD_REACTORS
330
19
102
}
330
19
100
AcDbPlotSettings
  1

  2
Samsung ML-2010 Series
  4

  6

 40
0.0
 41
0.0
 42
0.0
 43
0.0
 44
0.0
 45
0.0
 46
0.0
 47
0.0
 48
0.0
 49
0.0
140
0.0
141
0.0
142
1.0
143
1.0
 70
  1712
 72
     0
 73
     0
 74
     0
  7
Samsung ML-2010 Series
 75
     0
147
1.0
 76
     0
 77
     2
 78
   300
148
0.0
149
0.0
100
AcDbLayout
  1
Model
 70
     1
 71
     0
 10
0.0
 20
0.0
 11
12.0
 21
9.0
 12
0.0
 22
0.0
 32
0.0
 14
0.0
 24
0.0
 34
0.0
 15
0.0
 25
0.0
 35
0.0
146
0.0
 13
0.0
 23
0.0
 33
0.0
 16
1.0
 26
0.0
 36
0.0
 17
0.0
 27
1.0
 37
0.0
 76
     0
330
22
  0
MLINESTYLE
  5
17
102
{ACAD_REACTORS
330
16
102
}
330
16
100
AcDbMlineStyle
  2
STANDARD
 70
     0
  3

 62
   256
 51
90.0
 52
90.0
 71
     2
 49
0.5
 62
   256
  6
BYLAYER
 49
-0.5
 62
   256
  6
BYLAYER
  0
ACDBPLACEHOLDER
  5
F
102
{ACAD_REACTORS
330
E
102
}
330
E
  0
TABLESTYLE
  5
1D
102
{ACAD_REACTORS
330
1C
102
}
330
1C
100
AcDbTableStyle
  3
Standard
 70
     0
 71
     0
 40
0.06
 41
0.06
280
     0
281
     0
  7
Standard
140
0.18
170
     2
 62
     0
 63
     7
283
     0
274
    -2
284
     1
 64
     0
275
    -2
285
     1
 65
     0
276
    -2
286
     1
 66
     0
277
    -2
287
     1
 67
     0
278
    -2
288
     1
 68
     0
279
    -2
289
     1
 69
     0
  7
Standard
140
0.25
170
     5
 62
     0
 63
     7
283
     0
274
    -2
284
     1
 64
     0
275
    -2
285
     1
 65
     0
276
    -2
286
     1
 66
     0
277
    -2
287
     1
 67
     0
278
    -2
288
     1
 68
     0
279
    -2
289
     1
 69
     0
  7
Standard
140
0.18
170
     5
 62
     0
 63
     7
283
     0
274
    -2
284
     1
 64
     0
275
    -2
285
     1
 65
     0
276
    -2
286
     1
 66
     0
277
    -2
287
     1
 67
     0
278
    -2
288
     1
 68
     0
279
    -2
289
     1
 69
     0
  0
DICTIONARYVAR
  5
CA6
102
{ACAD_REACTORS
330
CA5
102
}
330
CA5
100
DictionaryVariables
280
     0
  1
STANDARD
  0
ENDSEC
  0
EOF
