  0
SECTION
  2
HEADER
  9
$ACADVER
  1
AC1024
  9
$ACADMAINTVER
 70
     6
  9
$DWGCODEPAGE
  3
ANSI_1252
  9
$INSBASE
 10
0.0
 20
0.0
 30
0.0
  9
$EXTMIN
 10
1.000000000000000E+20
 20
1.000000000000000E+20
 30
1.000000000000000E+20
  9
$EXTMAX
 10
-1.000000000000000E+20
 20
-1.000000000000000E+20
 30
-1.000000000000000E+20
  9
$LIMMIN
 10
0.0
 20
0.0
  9
$LIMMAX
 10
12.0
 20
9.0
  9
$ORTHOMODE
 70
     0
  9
$REGENMODE
 70
     1
  9
$FILLMODE
 70
     1
  9
$QTEXTMODE
 70
     0
  9
$MIRRTEXT
 70
     1
  9
$LTSCALE
 40
1.0
  9
$ATTMODE
 70
     1
  9
$TEXTSIZE
 40
0.2
  9
$TRACEWID
 40
0.05
  9
$TEXTSTYLE
  7
Standard
  9
$CLAYER
  8
0
  9
$CELTYPE
  6
ByLayer
  9
$CECOLOR
 62
   256
  9
$CELTSCALE
 40
1.0
  9
$DISPSILH
 70
     0
  9
$DIMSCALE
 40
1.0
  9
$DIMASZ
 40
0.18
  9
$DIMEXO
 40
0.0625
  9
$DIMDLI
 40
0.38
  9
$DIMRND
 40
0.0
  9
$DIMDLE
 40
0.0
  9
$DIMEXE
 40
0.18
  9
$DIMTP
 40
0.0
  9
$DIMTM
 40
0.0
  9
$DIMTXT
 40
0.18
  9
$DIMCEN
 40
0.09
  9
$DIMTSZ
 40
0.0
  9
$DIMTOL
 70
     0
  9
$DIMLIM
 70
     0
  9
$DIMTIH
 70
     1
  9
$DIMTOH
 70
     1
  9
$DIMSE1
 70
     0
  9
$DIMSE2
 70
     0
  9
$DIMTAD
 70
     0
  9
$DIMZIN
 70
     0
  9
$DIMBLK
  1

  9
$DIMASO
 70
     1
  9
$DIMSHO
 70
     1
  9
$DIMPOST
  1

  9
$DIMAPOST
  1

  9
$DIMALT
 70
     0
  9
$DIMALTD
 70
     2
  9
$DIMALTF
 40
25.4
  9
$DIMLFAC
 40
1.0
  9
$DIMTOFL
 70
     0
  9
$DIMTVP
 40
0.0
  9
$DIMTIX
 70
     0
  9
$DIMSOXD
 70
     0
  9
$DIMSAH
 70
     0
  9
$DIMBLK1
  1

  9
$DIMBLK2
  1

  9
$DIMSTYLE
  2
Standard
  9
$DIMCLRD
 70
     0
  9
$DIMCLRE
 70
     0
  9
$DIMCLRT
 70
     0
  9
$DIMTFAC
 40
1.0
  9
$DIMGAP
 40
0.09
  9
$DIMJUST
 70
     0
  9
$DIMSD1
 70
     0
  9
$DIMSD2
 70
     0
  9
$DIMTOLJ
 70
     1
  9
$DIMTZIN
 70
     0
  9
$DIMALTZ
 70
     0
  9
$DIMALTTZ
 70
     0
  9
$DIMUPT
 70
     0
  9
$DIMDEC
 70
     4
  9
$DIMTDEC
 70
     4
  9
$DIMALTU
 70
     2
  9
$DIMALTTD
 70
     2
  9
$DIMTXSTY
  7
Standard
  9
$DIMAUNIT
 70
     0
  9
$DIMADEC
 70
     0
  9
$DIMALTRND
 40
0.0
  9
$DIMAZIN
 70
     0
  9
$DIMDSEP
 70
    46
  9
$DIMATFIT
 70
     3
  9
$DIMFRAC
 70
     0
  9
$DIMLDRBLK
  1

  9
$DIMLUNIT
 70
     2
  9
$DIMLWD
 70
    -2
  9
$DIMLWE
 70
    -2
  9
$DIMTMOVE
 70
     0
  9
$DIMFXL
 40
1.0
  9
$DIMFXLON
 70
     0
  9
$DIMJOGANG
 40
0.7853981633974483
  9
$DIMTFILL
 70
     0
  9
$DIMTFILLCLR
 70
     0
  9
$DIMARCSYM
 70
     0
  9
$DIMLTYPE
  6

  9
$DIMLTEX1
  6

  9
$DIMLTEX2
  6

  9
$DIMTXTDIRECTION
 70
     0
  9
$LUNITS
 70
     2
  9
$LUPREC
 70
     4
  9
$SKETCHINC
 40
0.1
  9
$FILLETRAD
 40
0.5
  9
$AUNITS
 70
     0
  9
$AUPREC
 70
     0
  9
$MENU
  1
.
  9
$ELEVATION
 40
0.0
  9
$PELEVATION
 40
0.0
  9
$THICKNESS
 40
0.0
  9
$LIMCHECK
 70
     0
  9
$CHAMFERA
 40
0.5
  9
$CHAMFERB
 40
0.5
  9
$CHAMFERC
 40
1.0
  9
$CHAMFERD
 40
0.0
  9
$SKPOLY
 70
     0
  9
$TDCREATE
 40
2457979.747843102
  9
$TDUCREATE
 40
2457979.914509769
  9
$TDUPDATE
 40
2457979.747847847
  9
$TDUUPDATE
 40
2457979.914514514
  9
$TDINDWG
 40
0.0000000116
  9
$TDUSRTIMER
 40
0.0000000116
  9
$USRTIMER
 70
     1
  9
$ANGBASE
 50
0.0
  9
$ANGDIR
 70
     0
  9
$PDMODE
 70
     0
  9
$PDSIZE
 40
0.0
  9
$PLINEWID
 40
0.0
  9
$SPLFRAME
 70
     0
  9
$SPLINETYPE
 70
     6
  9
$SPLINESEGS
 70
     8
  9
$HANDSEED
  5
E0
  9
$SURFTAB1
 70
     6
  9
$SURFTAB2
 70
     6
  9
$SURFTYPE
 70
     6
  9
$SURFU
 70
     6
  9
$SURFV
 70
     6
  9
$UCSBASE
  2

  9
$UCSNAME
  2

  9
$UCSORG
 10
0.0
 20
0.0
 30
0.0
  9
$UCSXDIR
 10
1.0
 20
0.0
 30
0.0
  9
$UCSYDIR
 10
0.0
 20
1.0
 30
0.0
  9
$UCSORTHOREF
  2

  9
$UCSORTHOVIEW
 70
     0
  9
$UCSORGTOP
 10
0.0
 20
0.0
 30
0.0
  9
$UCSORGBOTTOM
 10
0.0
 20
0.0
 30
0.0
  9
$UCSORGLEFT
 10
0.0
 20
0.0
 30
0.0
  9
$UCSORGRIGHT
 10
0.0
 20
0.0
 30
0.0
  9
$UCSORGFRONT
 10
0.0
 20
0.0
 30
0.0
  9
$UCSORGBACK
 10
0.0
 20
0.0
 30
0.0
  9
$PUCSBASE
  2

  9
$PUCSNAME
  2

  9
$PUCSORG
 10
0.0
 20
0.0
 30
0.0
  9
$PUCSXDIR
 10
1.0
 20
0.0
 30
0.0
  9
$PUCSYDIR
 10
0.0
 20
1.0
 30
0.0
  9
$PUCSORTHOREF
  2

  9
$PUCSORTHOVIEW
 70
     0
  9
$PUCSORGTOP
 10
0.0
 20
0.0
 30
0.0
  9
$PUCSORGBOTTOM
 10
0.0
 20
0.0
 30
0.0
  9
$PUCSORGLEFT
 10
0.0
 20
0.0
 30
0.0
  9
$PUCSORGRIGHT
 10
0.0
 20
0.0
 30
0.0
  9
$PUCSORGFRONT
 10
0.0
 20
0.0
 30
0.0
  9
$PUCSORGBACK
 10
0.0
 20
0.0
 30
0.0
  9
$USERI1
 70
     0
  9
$USERI2
 70
     0
  9
$USERI3
 70
     0
  9
$USERI4
 70
     0
  9
$USERI5
 70
     0
  9
$USERR1
 40
0.0
  9
$USERR2
 40
0.0
  9
$USERR3
 40
0.0
  9
$USERR4
 40
0.0
  9
$USERR5
 40
0.0
  9
$WORLDVIEW
 70
     1
  9
$SHADEDGE
 70
     3
  9
$SHADEDIF
 70
    70
  9
$TILEMODE
 70
     1
  9
$MAXACTVP
 70
    64
  9
$PINSBASE
 10
0.0
 20
0.0
 30
0.0
  9
$PLIMCHECK
 70
     0
  9
$PEXTMIN
 10
1.000000000000000E+20
 20
1.000000000000000E+20
 30
1.000000000000000E+20
  9
$PEXTMAX
 10
-1.000000000000000E+20
 20
-1.000000000000000E+20
 30
-1.000000000000000E+20
  9
$PLIMMIN
 10
0.0
 20
0.0
  9
$PLIMMAX
 10
12.0
 20
9.0
  9
$UNITMODE
 70
     0
  9
$VISRETAIN
 70
     1
  9
$PLINEGEN
 70
     0
  9
$PSLTSCALE
 70
     1
  9
$TREEDEPTH
 70
  3020
  9
$CMLSTYLE
  2
Standard
  9
$CMLJUST
 70
     0
  9
$CMLSCALE
 40
1.0
  9
$PROXYGRAPHICS
 70
     1
  9
$MEASUREMENT
 70
     0
  9
$CELWEIGHT
370
    -1
  9
$ENDCAPS
280
     0
  9
$JOINSTYLE
280
     0
  9
$LWDISPLAY
290
     1
  9
$INSUNITS
 70
     1
  9
$HYPERLINKBASE
  1

  9
$STYLESHEET
  1

  9
$XEDIT
290
     1
  9
$CEPSNTYPE
380
     0
  9
$PSTYLEMODE
290
     1
  9
$FINGERPRINTGUID
  2
{556DF547-C6D1-4F04-90D0-ED5C5DE6611D}
  9
$VERSIONGUID
  2
{FAEB1C32-E019-11D5-929B-00C0DF256EC4}
  9
$EXTNAMES
290
     1
  9
$PSVPSCALE
 40
0.0
  9
$OLESTARTUP
290
     0
  9
$SORTENTS
280
   127
  9
$INDEXCTL
280
     0
  9
$HIDETEXT
280
     1
  9
$XCLIPFRAME
280
     2
  9
$HALOGAP
280
     0
  9
$OBSCOLOR
 70
   257
  9
$OBSLTYPE
280
     0
  9
$INTERSECTIONDISPLAY
280
     0
  9
$INTERSECTIONCOLOR
 70
   257
  9
$DIMASSOC
280
     2
  9
$PROJECTNAME
  1

  9
$CAMERADISPLAY
290
     0
  9
$LENSLENGTH
 40
50.0
  9
$CAMERAHEIGHT
 40
0.0
  9
$STEPSPERSEC
 40
2.0
  9
$STEPSIZE
 40
6.0
  9
$3DDWFPREC
 40
2.0
  9
$PSOLWIDTH
 40
0.25
  9
$PSOLHEIGHT
 40
4.0
  9
$LOFTANG1
 40
1.570796326794897
  9
$LOFTANG2
 40
1.570796326794897
  9
$LOFTMAG1
 40
0.0
  9
$LOFTMAG2
 40
0.0
  9
$LOFTPARAM
 70
     7
  9
$LOFTNORMALS
280
     1
  9
$LATITUDE
 40
37.795
  9
$LONGITUDE
 40
-122.394
  9
$NORTHDIRECTION
 40
0.0
  9
$TIMEZONE
 70
 -8000
  9
$LIGHTGLYPHDISPLAY
280
     1
  9
$TILEMODELIGHTSYNCH
280
     1
  9
$CMATERIAL
347
3C
  9
$SOLIDHIST
280
     1
  9
$SHOWHIST
280
     1
  9
$DWFFRAME
280
     2
  9
$DGNFRAME
280
     2
  9
$REALWORLDSCALE
290
     1
  9
$INTERFERECOLOR
 62
   256
  9
$CSHADOW
280
     0
  9
$SHADOWPLANELOCATION
 40
0.0
  0
ENDSEC
  0
SECTION
  2
CLASSES
  0
CLASS
  1
ACDBDICTIONARYWDFLT
  2
AcDbDictionaryWithDefault
  3
ObjectDBX Classes
 90
        0
 91
        4
280
     0
281
     0
  0
CLASS
  1
VISUALSTYLE
  2
AcDbVisualStyle
  3
ObjectDBX Classes
 90
     4095
 91
        4
280
     0
281
     0
  0
CLASS
  1
MATERIAL
  2
AcDbMaterial
  3
ObjectDBX Classes
 90
     1153
 91
        4
280
     0
281
     0
  0
CLASS
  1
SUN
  2
AcDbSun
  3
SCENEOE
 90
     1024
 91
        4
280
     0
281
     0
  0
ENDSEC
  0
SECTION
  2
TABLES
  0
TABLE
  2
VPORT
  5
8
330
0
100
AcDbSymbolTable
 70
     1
  0
VPORT
  5
29
330
8
100
AcDbSymbolTableRecord
100
AcDbViewportTableRecord
  2
*Active
 70
     0
 10
0.0
 20
0.0
 11
1.0
 21
1.0
 12
0.0
 22
0.0
 13
0.0
 23
0.0
 14
0.5
 24
0.5
 15
0.5
 25
0.5
 16
0.0
 26
0.0
 36
1.0
 17
4.620478123857146
 27
-3.994150564743828
 37
0.0
 40
7.988301129487657
 41
1.156811204024676
 42
50.0
 43
0.0
 44
0.0
 50
0.0
 51
0.0
 71
     0
 72
   100
 73
     1
 74
     3
 75
     0
 76
     0
 77
     0
 78
     0
281
     0
 65
     1
110
0.0
120
0.0
130
0.0
111
1.0
121
0.0
131
0.0
112
0.0
122
1.0
132
0.0
 79
     0
146
0.0
 60
     3
 61
     5
292
     1
282
     1
141
0.0
142
0.0
 63
   250
361
3F
  0
ENDTAB
  0
TABLE
  2
LTYPE
  5
5
330
0
100
AcDbSymbolTable
 70
     1
  0
LTYPE
  5
14
330
5
100
AcDbSymbolTableRecord
100
AcDbLinetypeTableRecord
  2
ByBlock
 70
     0
  3

 72
    65
 73
     0
 40
0.0
  0
LTYPE
  5
15
330
5
100
AcDbSymbolTableRecord
100
AcDbLinetypeTableRecord
  2
ByLayer
 70
     0
  3

 72
    65
 73
     0
 40
0.0
  0
LTYPE
  5
16
330
5
100
AcDbSymbolTableRecord
100
AcDbLinetypeTableRecord
  2
Continuous
 70
     0
  3
Solid line
 72
    65
 73
     0
 40
0.0
  0
ENDTAB
  0
TABLE
  2
LAYER
  5
2
330
0
100
AcDbSymbolTable
 70
     2
  0
LAYER
  5
10
330
2
100
AcDbSymbolTableRecord
100
AcDbLayerTableRecord
  2
0
 70
     0
 62
     7
  6
Continuous
370
    -3
390
F
347
3E
  0
LAYER
  5
40
330
2
100
AcDbSymbolTableRecord
100
AcDbLayerTableRecord
  2
Layer 1
 70
     0
 62
     7
  6
Continuous
370
    -3
390
F
347
3E
  0
ENDTAB
  0
TABLE
  2
STYLE
  5
3
330
0
100
AcDbSymbolTable
 70
     1
  0
STYLE
  5
11
330
3
100
AcDbSymbolTableRecord
100
AcDbTextStyleTableRecord
  2
Standard
 70
     0
 40
0.0
 41
1.0
 50
0.0
 71
     0
 42
0.2
  3
txt
  4

  0
ENDTAB
  0
TABLE
  2
VIEW
  5
6
330
0
100
AcDbSymbolTable
 70
     0
  0
ENDTAB
  0
TABLE
  2
UCS
  5
7
330
0
100
AcDbSymbolTable
 70
     0
  0
ENDTAB
  0
TABLE
  2
APPID
  5
9
330
0
100
AcDbSymbolTable
 70
     1
  0
APPID
  5
12
330
9
100
AcDbSymbolTableRecord
100
AcDbRegAppTableRecord
  2
ACAD
 70
     0
  0
ENDTAB
  0
TABLE
  2
DIMSTYLE
  5
A
330
0
100
AcDbSymbolTable
 70
     1
100
AcDbDimStyleTable
  0
DIMSTYLE
105
27
330
A
100
AcDbSymbolTableRecord
100
AcDbDimStyleTableRecord
  2
Standard
 70
     0
178
     0
340
11
  0
ENDTAB
  0
TABLE
  2
BLOCK_RECORD
  5
1
330
0
100
AcDbSymbolTable
 70
     1
  0
BLOCK_RECORD
  5
1F
330
1
100
AcDbSymbolTableRecord
100
AcDbBlockTableRecord
  2
*Model_Space
340
22
 70
     0
280
     1
281
     0
  0
BLOCK_RECORD
  5
1B
330
1
100
AcDbSymbolTableRecord
100
AcDbBlockTableRecord
  2
*Paper_Space
340
1E
 70
     0
280
     1
281
     0
  0
BLOCK_RECORD
  5
23
330
1
100
AcDbSymbolTableRecord
100
AcDbBlockTableRecord
  2
*Paper_Space0
340
26
 70
     0
280
     1
281
     0
  0
ENDTAB
  0
ENDSEC
  0
SECTION
  2
BLOCKS
  0
BLOCK
  5
20
330
1F
100
AcDbEntity
  8
0
100
AcDbBlockBegin
  2
*Model_Space
 70
     0
 10
0.0
 20
0.0
 30
0.0
  3
*Model_Space
  1

  0
ENDBLK
  5
21
330
1F
100
AcDbEntity
  8
0
100
AcDbBlockEnd
  0
BLOCK
  5
1C
330
1B
100
AcDbEntity
 67
     1
  8
0
100
AcDbBlockBegin
  2
*Paper_Space
 70
     0
 10
0.0
 20
0.0
 30
0.0
  3
*Paper_Space
  1

  0
ENDBLK
  5
1D
330
1B
100
AcDbEntity
 67
     1
  8
0
100
AcDbBlockEnd
  0
BLOCK
  5
24
330
23
100
AcDbEntity
  8
0
100
AcDbBlockBegin
  2
*Paper_Space0
 70
     0
 10
0.0
 20
0.0
 30
0.0
  3
*Paper_Space0
  1

  0
ENDBLK
  5
25
330
23
100
AcDbEntity
  8
0
100
AcDbBlockEnd
  0
ENDSEC
  0
SECTION
  2
ENTITIES
  0
POLYLINE
  5
41
330
1F
100
AcDbEntity
  8
Layer 1
 62
     1
420
 16711680
370
    35
100
AcDb2dPolyline
 66
     1
 10
0.0
 20
0.0
 30
0.0
  0
VERTEX
  5
42
330
41
100
AcDbEntity
  8
Layer 1
 62
     1
420
 16711680
370
    35
100
AcDbVertex
100
AcDb2dVertex
 10
6.8342187085287
 20
-4.107197430848133
 30
0.0
  0
VERTEX
  5
43
330
41
100
AcDbEntity
  8
Layer 1
 62
     1
420
 16711680
370
    35
100
AcDbVertex
100
AcDb2dVertex
 10
6.353833034158027
 20
-4.107197430848133
 30
0.0
  0
VERTEX
  5
44
330
41
100
AcDbEntity
  8
Layer 1
 62
     1
420
 16711680
370
    35
100
AcDbVertex
100
AcDb2dVertex
 10
6.353833034158027
 20
-4.320345759841189
 30
0.0
  0
VERTEX
  5
45
330
41
100
AcDbEntity
  8
Layer 1
 62
     1
420
 16711680
370
    35
100
AcDbVertex
100
AcDb2dVertex
 10
6.353833034158027
 20
-4.327196956130251
 30
0.0
  0
VERTEX
  5
46
330
41
100
AcDbEntity
  8
Layer 1
 62
     1
420
 16711680
370
    35
100
AcDbVertex
100
AcDb2dVertex
 10
6.353833034158027
 20
-6.813494563552126
 30
0.0
  0
VERTEX
  5
47
330
41
100
AcDbEntity
  8
Layer 1
 62
     1
420
 16711680
370
    35
100
AcDbVertex
100
AcDb2dVertex
 10
6.353833034158027
 20
-6.820345759841189
 30
0.0
  0
VERTEX
  5
48
330
41
100
AcDbEntity
  8
Layer 1
 62
     1
420
 16711680
370
    35
100
AcDbVertex
100
AcDb2dVertex
 10
6.353833034158027
 20
-7.033494088834244
 30
0.0
  0
VERTEX
  5
49
330
41
100
AcDbEntity
  8
Layer 1
 62
     1
420
 16711680
370
    35
100
AcDbVertex
100
AcDb2dVertex
 10
6.8342187085287
 20
-7.033494088834244
 30
0.0
  0
VERTEX
  5
4A
330
41
100
AcDbEntity
  8
Layer 1
 62
     1
420
 16711680
370
    35
100
AcDbVertex
100
AcDb2dVertex
 10
6.8342187085287
 20
-6.820345759841189
 30
0.0
  0
VERTEX
  5
4B
330
41
100
AcDbEntity
  8
Layer 1
 62
     1
420
 16711680
370
    35
100
AcDbVertex
100
AcDb2dVertex
 10
8.124145025531725
 20
-6.820345759841189
 30
0.0
  0
VERTEX
  5
4C
330
41
100
AcDbEntity
  8
Layer 1
 62
     1
420
 16711680
370
    35
100
AcDbVertex
100
AcDb2dVertex
 10
8.124145025531725
 20
-7.033494088834244
 30
0.0
  0
VERTEX
  5
4D
330
41
100
AcDbEntity
  8
Layer 1
 62
     1
420
 16711680
370
    35
100
AcDbVertex
100
AcDb2dVertex
 10
8.604531547612888
 20
-7.033494088834244
 30
0.0
  0
VERTEX
  5
4E
330
41
100
AcDbEntity
  8
Layer 1
 62
     1
420
 16711680
370
    35
100
AcDbVertex
100
AcDb2dVertex
 10
8.604531547612888
 20
-6.820345759841189
 30
0.0
  0
VERTEX
  5
4F
330
41
100
AcDbEntity
  8
Layer 1
 62
     1
420
 16711680
370
    35
100
AcDbVertex
100
AcDb2dVertex
 10
8.604531547612888
 20
-6.813494563552126
 30
0.0
  0
VERTEX
  5
50
330
41
100
AcDbEntity
  8
Layer 1
 62
     1
420
 16711680
370
    35
100
AcDbVertex
100
AcDb2dVertex
 10
8.604531547612888
 20
-4.327196956130251
 30
0.0
  0
VERTEX
  5
51
330
41
100
AcDbEntity
  8
Layer 1
 62
     1
420
 16711680
370
    35
100
AcDbVertex
100
AcDb2dVertex
 10
8.604531547612888
 20
-4.320345759841189
 30
0.0
  0
VERTEX
  5
52
330
41
100
AcDbEntity
  8
Layer 1
 62
     1
420
 16711680
370
    35
100
AcDbVertex
100
AcDb2dVertex
 10
8.604531547612888
 20
-4.107197430848133
 30
0.0
  0
VERTEX
  5
53
330
41
100
AcDbEntity
  8
Layer 1
 62
     1
420
 16711680
370
    35
100
AcDbVertex
100
AcDb2dVertex
 10
8.124145025531725
 20
-4.107197430848133
 30
0.0
  0
VERTEX
  5
54
330
41
100
AcDbEntity
  8
Layer 1
 62
     1
420
 16711680
370
    35
100
AcDbVertex
100
AcDb2dVertex
 10
8.124145025531725
 20
-4.320345759841189
 30
0.0
  0
VERTEX
  5
55
330
41
100
AcDbEntity
  8
Layer 1
 62
     1
420
 16711680
370
    35
100
AcDbVertex
100
AcDb2dVertex
 10
6.8342187085287
 20
-4.320345759841189
 30
0.0
  0
VERTEX
  5
56
330
41
100
AcDbEntity
  8
Layer 1
 62
     1
420
 16711680
370
    35
100
AcDbVertex
100
AcDb2dVertex
 10
6.8342187085287
 20
-4.107197430848133
 30
0.0
  0
SEQEND
  5
57
330
41
100
AcDbEntity
  8
Layer 1
 62
     1
420
 16711680
370
    35
  0
POLYLINE
  5
58
330
1F
100
AcDbEntity
  8
Layer 1
 62
     1
420
 16711680
370
    35
100
AcDb2dPolyline
 66
     1
 10
0.0
 20
0.0
 30
0.0
  0
VERTEX
  5
59
330
58
100
AcDbEntity
  8
Layer 1
 62
     1
420
 16711680
370
    35
100
AcDbVertex
100
AcDb2dVertex
 10
0.9464126423600242
 20
-2.481303150793097
 30
0.0
  0
VERTEX
  5
5A
330
58
100
AcDbEntity
  8
Layer 1
 62
     1
420
 16711680
370
    35
100
AcDbVertex
100
AcDb2dVertex
 10
0.6276862087120207
 20
-2.481303150793097
 30
0.0
  0
VERTEX
  5
5B
330
58
100
AcDbEntity
  8
Layer 1
 62
     1
420
 16711680
370
    35
100
AcDbVertex
100
AcDb2dVertex
 10
0.6276862087120207
 20
-2.694451479786153
 30
0.0
  0
VERTEX
  5
5C
330
58
100
AcDbEntity
  8
Layer 1
 62
     1
420
 16711680
370
    35
100
AcDbVertex
100
AcDb2dVertex
 10
0.4615281683474374
 20
-2.694451479786153
 30
0.0
  0
VERTEX
  5
5D
330
58
100
AcDbEntity
  8
Layer 1
 62
     1
420
 16711680
370
    35
100
AcDbVertex
100
AcDb2dVertex
 10
0.4615281683474374
 20
-5.194451479786153
 30
0.0
  0
VERTEX
  5
5E
330
58
100
AcDbEntity
  8
Layer 1
 62
     1
420
 16711680
370
    35
100
AcDbVertex
100
AcDb2dVertex
 10
0.6276862087120207
 20
-5.194451479786153
 30
0.0
  0
VERTEX
  5
5F
330
58
100
AcDbEntity
  8
Layer 1
 62
     1
420
 16711680
370
    35
100
AcDbVertex
100
AcDb2dVertex
 10
0.6276862087120207
 20
-5.407599808779208
 30
0.0
  0
VERTEX
  5
60
330
58
100
AcDbEntity
  8
Layer 1
 62
     1
420
 16711680
370
    35
100
AcDbVertex
100
AcDb2dVertex
 10
0.9464126423600242
 20
-5.407599808779208
 30
0.0
  0
VERTEX
  5
61
330
58
100
AcDbEntity
  8
Layer 1
 62
     1
420
 16711680
370
    35
100
AcDbVertex
100
AcDb2dVertex
 10
0.9464126423600242
 20
-5.194451479786153
 30
0.0
  0
VERTEX
  5
62
330
58
100
AcDbEntity
  8
Layer 1
 62
     1
420
 16711680
370
    35
100
AcDbVertex
100
AcDb2dVertex
 10
1.791819068683809
 20
-5.194451479786153
 30
0.0
  0
VERTEX
  5
63
330
58
100
AcDbEntity
  8
Layer 1
 62
     1
420
 16711680
370
    35
100
AcDbVertex
100
AcDb2dVertex
 10
1.791819068683809
 20
-5.407599808779208
 30
0.0
  0
VERTEX
  5
64
330
58
100
AcDbEntity
  8
Layer 1
 62
     1
420
 16711680
370
    35
100
AcDbVertex
100
AcDb2dVertex
 10
2.110545502331825
 20
-5.407599808779208
 30
0.0
  0
VERTEX
  5
65
330
58
100
AcDbEntity
  8
Layer 1
 62
     1
420
 16711680
370
    35
100
AcDbVertex
100
AcDb2dVertex
 10
2.110545502331825
 20
-5.194451479786153
 30
0.0
  0
VERTEX
  5
66
330
58
100
AcDbEntity
  8
Layer 1
 62
     1
420
 16711680
370
    35
100
AcDbVertex
100
AcDb2dVertex
 10
2.276703542696408
 20
-5.194451479786153
 30
0.0
  0
VERTEX
  5
67
330
58
100
AcDbEntity
  8
Layer 1
 62
     1
420
 16711680
370
    35
100
AcDbVertex
100
AcDb2dVertex
 10
2.276703542696408
 20
-2.694451479786153
 30
0.0
  0
VERTEX
  5
68
330
58
100
AcDbEntity
  8
Layer 1
 62
     1
420
 16711680
370
    35
100
AcDbVertex
100
AcDb2dVertex
 10
2.110545502331825
 20
-2.694451479786153
 30
0.0
  0
VERTEX
  5
69
330
58
100
AcDbEntity
  8
Layer 1
 62
     1
420
 16711680
370
    35
100
AcDbVertex
100
AcDb2dVertex
 10
2.110545502331825
 20
-2.481303150793097
 30
0.0
  0
VERTEX
  5
6A
330
58
100
AcDbEntity
  8
Layer 1
 62
     1
420
 16711680
370
    35
100
AcDbVertex
100
AcDb2dVertex
 10
1.791819068683809
 20
-2.481303150793097
 30
0.0
  0
VERTEX
  5
6B
330
58
100
AcDbEntity
  8
Layer 1
 62
     1
420
 16711680
370
    35
100
AcDbVertex
100
AcDb2dVertex
 10
1.791819068683809
 20
-2.694451479786153
 30
0.0
  0
VERTEX
  5
6C
330
58
100
AcDbEntity
  8
Layer 1
 62
     1
420
 16711680
370
    35
100
AcDbVertex
100
AcDb2dVertex
 10
0.9464126423600242
 20
-2.694451479786153
 30
0.0
  0
VERTEX
  5
6D
330
58
100
AcDbEntity
  8
Layer 1
 62
     1
420
 16711680
370
    35
100
AcDbVertex
100
AcDb2dVertex
 10
0.9464126423600242
 20
-2.481303150793097
 30
0.0
  0
SEQEND
  5
6E
330
58
100
AcDbEntity
  8
Layer 1
 62
     1
420
 16711680
370
    35
  0
POLYLINE
  5
6F
330
1F
100
AcDbEntity
  8
Layer 1
 62
     1
420
 16711680
370
    35
100
AcDb2dPolyline
 66
     1
 10
0.0
 20
0.0
 30
0.0
  0
VERTEX
  5
70
330
6F
100
AcDbEntity
  8
Layer 1
 62
     1
420
 16711680
370
    35
100
AcDbVertex
100
AcDb2dVertex
 10
8.124145873242242
 20
-3.728582973927473
 30
0.0
  0
VERTEX
  5
71
330
6F
100
AcDbEntity
  8
Layer 1
 62
     1
420
 16711680
370
    35
100
AcDbVertex
100
AcDb2dVertex
 10
8.604531547612888
 20
-3.728582973927473
 30
0.0
  0
VERTEX
  5
72
330
6F
100
AcDbEntity
  8
Layer 1
 62
     1
420
 16711680
370
    35
100
AcDbVertex
100
AcDb2dVertex
 10
8.604531547612888
 20
-3.515434644934417
 30
0.0
  0
VERTEX
  5
73
330
6F
100
AcDbEntity
  8
Layer 1
 62
     1
420
 16711680
370
    35
100
AcDbVertex
100
AcDb2dVertex
 10
8.604531547612888
 20
-3.508583448645355
 30
0.0
  0
VERTEX
  5
74
330
6F
100
AcDbEntity
  8
Layer 1
 62
     1
420
 16711680
370
    35
100
AcDbVertex
100
AcDb2dVertex
 10
8.604531547612888
 20
-1.02228584122348
 30
0.0
  0
VERTEX
  5
75
330
6F
100
AcDbEntity
  8
Layer 1
 62
     1
420
 16711680
370
    35
100
AcDbVertex
100
AcDb2dVertex
 10
8.604531547612888
 20
-1.015434644934418
 30
0.0
  0
VERTEX
  5
76
330
6F
100
AcDbEntity
  8
Layer 1
 62
     1
420
 16711680
370
    35
100
AcDbVertex
100
AcDb2dVertex
 10
8.604531547612888
 20
-0.802286315941362
 30
0.0
  0
VERTEX
  5
77
330
6F
100
AcDbEntity
  8
Layer 1
 62
     1
420
 16711680
370
    35
100
AcDbVertex
100
AcDb2dVertex
 10
8.124145873242242
 20
-0.802286315941362
 30
0.0
  0
VERTEX
  5
78
330
6F
100
AcDbEntity
  8
Layer 1
 62
     1
420
 16711680
370
    35
100
AcDbVertex
100
AcDb2dVertex
 10
8.124145873242242
 20
-1.015434644934418
 30
0.0
  0
VERTEX
  5
79
330
6F
100
AcDbEntity
  8
Layer 1
 62
     1
420
 16711680
370
    35
100
AcDbVertex
100
AcDb2dVertex
 10
6.834219556239191
 20
-1.015434644934418
 30
0.0
  0
VERTEX
  5
7A
330
6F
100
AcDbEntity
  8
Layer 1
 62
     1
420
 16711680
370
    35
100
AcDbVertex
100
AcDb2dVertex
 10
6.834219556239191
 20
-0.802286315941362
 30
0.0
  0
VERTEX
  5
7B
330
6F
100
AcDbEntity
  8
Layer 1
 62
     1
420
 16711680
370
    35
100
AcDbVertex
100
AcDb2dVertex
 10
6.353833034158027
 20
-0.802286315941362
 30
0.0
  0
VERTEX
  5
7C
330
6F
100
AcDbEntity
  8
Layer 1
 62
     1
420
 16711680
370
    35
100
AcDbVertex
100
AcDb2dVertex
 10
6.353833034158027
 20
-1.015434644934418
 30
0.0
  0
VERTEX
  5
7D
330
6F
100
AcDbEntity
  8
Layer 1
 62
     1
420
 16711680
370
    35
100
AcDbVertex
100
AcDb2dVertex
 10
6.353833034158027
 20
-1.02228584122348
 30
0.0
  0
VERTEX
  5
7E
330
6F
100
AcDbEntity
  8
Layer 1
 62
     1
420
 16711680
370
    35
100
AcDbVertex
100
AcDb2dVertex
 10
6.353833034158027
 20
-3.508583448645355
 30
0.0
  0
VERTEX
  5
7F
330
6F
100
AcDbEntity
  8
Layer 1
 62
     1
420
 16711680
370
    35
100
AcDbVertex
100
AcDb2dVertex
 10
6.353833034158027
 20
-3.515434644934417
 30
0.0
  0
VERTEX
  5
80
330
6F
100
AcDbEntity
  8
Layer 1
 62
     1
420
 16711680
370
    35
100
AcDbVertex
100
AcDb2dVertex
 10
6.353833034158027
 20
-3.728582973927473
 30
0.0
  0
VERTEX
  5
81
330
6F
100
AcDbEntity
  8
Layer 1
 62
     1
420
 16711680
370
    35
100
AcDbVertex
100
AcDb2dVertex
 10
6.834219556239191
 20
-3.728582973927473
 30
0.0
  0
VERTEX
  5
82
330
6F
100
AcDbEntity
  8
Layer 1
 62
     1
420
 16711680
370
    35
100
AcDbVertex
100
AcDb2dVertex
 10
6.834219556239191
 20
-3.515434644934417
 30
0.0
  0
VERTEX
  5
83
330
6F
100
AcDbEntity
  8
Layer 1
 62
     1
420
 16711680
370
    35
100
AcDbVertex
100
AcDb2dVertex
 10
8.124145873242242
 20
-3.515434644934417
 30
0.0
  0
VERTEX
  5
84
330
6F
100
AcDbEntity
  8
Layer 1
 62
     1
420
 16711680
370
    35
100
AcDbVertex
100
AcDb2dVertex
 10
8.124145873242242
 20
-3.728582973927473
 30
0.0
  0
SEQEND
  5
85
330
6F
100
AcDbEntity
  8
Layer 1
 62
     1
420
 16711680
370
    35
  0
SPLINE
  5
86
330
1F
100
AcDbEntity
  8
Layer 1
 62
     1
420
 16711680
370
    35
100
AcDbSpline
210
0.0
220
0.0
230
1.0
 70
    11
 71
     3
 72
   149
 73
   145
 74
     0
 42
0.0000000001
 43
0.0000000001
 12
1.0
 22
0.0
 32
0.0
 13
1.0
 23
0.0
 33
0.0
 40
0.0
 40
0.0
 40
0.0
 40
0.0
 40
1.0
 40
1.0
 40
1.0
 40
2.0
 40
2.0
 40
2.0
 40
3.0
 40
3.0
 40
3.0
 40
4.0
 40
4.0
 40
4.0
 40
5.0
 40
5.0
 40
5.0
 40
6.0
 40
6.0
 40
6.0
 40
7.0
 40
7.0
 40
7.0
 40
8.0
 40
8.0
 40
8.0
 40
9.0
 40
9.0
 40
9.0
 40
10.0
 40
10.0
 40
10.0
 40
11.0
 40
11.0
 40
11.0
 40
12.0
 40
12.0
 40
12.0
 40
13.0
 40
13.0
 40
13.0
 40
14.0
 40
14.0
 40
14.0
 40
15.0
 40
15.0
 40
15.0
 40
16.0
 40
16.0
 40
16.0
 40
17.0
 40
17.0
 40
17.0
 40
18.0
 40
18.0
 40
18.0
 40
19.0
 40
19.0
 40
19.0
 40
20.0
 40
20.0
 40
20.0
 40
21.0
 40
21.0
 40
21.0
 40
22.0
 40
22.0
 40
22.0
 40
23.0
 40
23.0
 40
23.0
 40
24.0
 40
24.0
 40
24.0
 40
25.0
 40
25.0
 40
25.0
 40
26.0
 40
26.0
 40
26.0
 40
27.0
 40
27.0
 40
27.0
 40
28.0
 40
28.0
 40
28.0
 40
29.0
 40
29.0
 40
29.0
 40
30.0
 40
30.0
 40
30.0
 40
31.0
 40
31.0
 40
31.0
 40
32.0
 40
32.0
 40
32.0
 40
33.0
 40
33.0
 40
33.0
 40
34.0
 40
34.0
 40
34.0
 40
35.0
 40
35.0
 40
35.0
 40
36.0
 40
36.0
 40
36.0
 40
37.0
 40
37.0
 40
37.0
 40
38.0
 40
38.0
 40
38.0
 40
39.0
 40
39.0
 40
39.0
 40
40.0
 40
40.0
 40
40.0
 40
41.0
 40
41.0
 40
41.0
 40
42.0
 40
42.0
 40
42.0
 40
43.0
 40
43.0
 40
43.0
 40
44.0
 40
44.0
 40
44.0
 40
45.0
 40
45.0
 40
45.0
 40
46.0
 40
46.0
 40
46.0
 40
47.0
 40
47.0
 40
47.0
 40
48.0
 40
48.0
 40
48.0
 40
48.0
 10
6.153067694782079
 20
-1.781574053522036
 30
0.0
 10
6.149326748345414
 20
-1.443953848172492
 30
0.0
 10
6.116576300769288
 20
-1.109456608316413
 30
0.0
 10
6.052144368546768
 20
-0.7777025596481558
 30
0.0
 10
6.033772786519762
 20
-0.6831073922753729
 30
0.0
 10
6.009958903060388
 20
-0.5903687109049416
 30
0.0
 10
5.983183966812349
 20
-0.4983056548056513
 30
0.0
 10
5.950915866502656
 20
-0.3873598472412646
 30
0.0
 10
5.897292243186371
 20
-0.3459441028812256
 30
0.0
 10
5.78177558058908
 20
-0.3378730511724749
 30
0.0
 10
5.638744778180681
 20
-0.3278785443301204
 30
0.0
 10
5.495556301618572
 20
-0.3191013497707394
 30
0.0
 10
5.352086385168718
 20
-0.3236298192738458
 30
0.0
 10
5.28153483080665
 20
-0.3254710464842168
 30
0.0
 10
5.231268141082523
 20
-0.3196735543487092
 30
0.0
 10
5.176678127788755
 20
-0.3568024266878385
 30
0.0
 10
5.169747246711987
 20
-0.36517272019882
 30
0.0
 10
5.061763339642791
 20
-0.4852754966154104
 30
0.0
 10
5.053023444348974
 20
-0.552574385775175
 30
0.0
 10
5.046730041569023
 20
-0.6010371475479006
 30
0.0
 10
5.024419996536001
 20
-0.6597173640182442
 30
0.0
 10
5.022743225158554
 20
-0.6950550240659115
 30
0.0
 10
5.017841763025343
 20
-0.742422543868214
 30
0.0
 10
4.998519049807909
 20
-0.7714608671637835
 30
0.0
 10
4.974791632814382
 20
-0.8010018827877223
 30
0.0
 10
4.958752950087765
 20
-0.8216317655995024
 30
0.0
 10
4.938807169651126
 20
-0.8313728069940048
 30
0.0
 10
4.911927965006978
 20
-0.832598596380813
 30
0.0
 10
4.809548272081416
 20
-0.8372652426978422
 30
0.0
 10
4.707125345920367
 20
-0.8382435006142511
 30
0.0
 10
4.604711744574754
 20
-0.840566227389167
 30
0.0
 10
4.556855095811683
 20
-0.8416521445419549
 30
0.0
 10
4.509691026529721
 20
-0.8480616836565988
 30
0.0
 10
4.462776184136701
 20
-0.8335887222287081
 30
0.0
 10
4.369338141603281
 20
-0.8047614788434378
 30
0.0
 10
4.294905768555319
 20
-0.8288059395605766
 30
0.0
 10
4.283742268939729
 20
-0.7255768407102575
 30
0.0
 10
4.273593478796379
 20
-0.6317471559224764
 30
0.0
 10
4.258464389445091
 20
-0.5384091432264818
 30
0.0
 10
4.250063578359901
 20
-0.4444497587317452
 30
0.0
 10
4.243414984884516
 20
-0.3700682483147754
 30
0.0
 10
4.166233486677823
 20
-0.3045139473673038
 30
0.0
 10
4.091434054982793
 20
-0.3077225316195861
 30
0.0
 10
3.965694851423526
 20
-0.3131173612580369
 30
0.0
 10
3.839508056718829
 20
-0.309557824848298
 30
0.0
 10
3.713543362165966
 20
-0.3075860502115625
 30
0.0
 10
3.653027852454645
 20
-0.3066391575764681
 30
0.0
 10
3.592744615421528
 20
-0.2996557184461608
 30
0.0
 10
3.531977335690347
 20
-0.3057770359890052
 30
0.0
 10
3.498056199893754
 20
-0.3091933093164698
 30
0.0
 10
3.469588385765494
 20
-0.3235331801919301
 30
0.0
 10
3.451249864442742
 20
-0.3491747275001368
 30
0.0
 10
3.412072075811807
 20
-0.4039580187852733
 30
0.0
 10
3.376902262441225
 20
-0.4602358236882083
 30
0.0
 10
3.372057596910672
 20
-0.5320708117522169
 30
0.0
 10
3.366029527516452
 20
-0.6214576457905802
 30
0.0
 10
3.352056715283728
 20
-0.7102968588433339
 30
0.0
 10
3.342041863391728
 20
-0.7994310751514856
 30
0.0
 10
3.335800170952148
 20
-0.8549739150492112
 30
0.0
 10
3.328607347327698
 20
-0.9105099732628584
 30
0.0
 10
3.325228373258356
 20
-0.9662545682605367
 30
0.0
 10
3.318287319650797
 20
-1.080745501148676
 30
0.0
 10
3.260201348239901
 20
-1.135405026699459
 30
0.0
 10
3.145898607082863
 20
-1.143336206164817
 30
0.0
 10
3.046238369452352
 20
-1.150251828447659
 30
0.0
 10
2.983274671809327
 20
-1.097136831428783
 30
0.0
 10
2.922375149242915
 20
-1.029715024242882
 30
0.0
 10
2.702874077747752
 20
-0.7867077881761714
 30
0.0
 10
2.46229129374059
 20
-0.5690869385559961
 30
0.0
 10
2.163424174063847
 20
-0.4261264961055152
 30
0.0
 10
1.998407152040487
 20
-0.3471936279882912
 30
0.0
 10
1.823965284637906
 20
-0.3041384115091053
 30
0.0
 10
1.640017191647555
 20
-0.3018741767460698
 30
0.0
 10
1.507862514998326
 20
-0.3002482679944857
 30
0.0
 10
1.376775105872601
 20
-0.3066459391583041
 30
0.0
 10
1.247508578907248
 20
-0.3371940348556184
 30
0.0
 10
0.8440127903287601
 20
-0.4325495985310807
 30
0.0
 10
0.5362481011877662
 20
-0.7305529011973829
 30
0.0
 10
0.4835874769818878
 20
-1.169100671377312
 30
0.0
 10
0.4633271959413226
 20
-1.337822188303486
 30
0.0
 10
0.4825524224421163
 20
-1.503931061459727
 30
0.0
 10
0.521360609283685
 20
-1.668507274026575
 30
0.0
 10
0.5384021335317407
 20
-1.740775442158855
 30
0.0
 10
0.5773256090070618
 20
-1.78780218234072
 30
0.0
 10
0.6528684828126643
 20
-1.805909278698298
 30
0.0
 10
0.7124048868918937
 20
-1.820180485026905
 30
0.0
 10
0.7701704237293193
 20
-1.835171397572923
 30
0.0
 10
0.8315065172088099
 20
-1.818372318528367
 30
0.0
 10
0.8691168891168293
 20
-1.808070940491853
 30
0.0
 10
0.9051301744354102
 20
-1.817533085133214
 30
0.0
 10
0.94090186226035
 20
-1.830520857758529
 30
0.0
 10
0.9859619140716833
 20
-1.84688082276706
 30
0.0
 10
1.032129075801132
 20
-1.850132640260464
 30
0.0
 10
1.077633327917826
 20
-1.832161177588887
 30
0.0
 10
1.136134677473984
 20
-1.80905767552987
 30
0.0
 10
1.15230305990849
 20
-1.769281403286679
 30
0.0
 10
1.126971774646298
 20
-1.712172842087625
 30
0.0
 10
1.106652153880127
 20
-1.66636087105807
 30
0.0
 10
1.081090291360409
 20
-1.622365543637228
 30
0.0
 10
1.065564473491438
 20
-1.575035323096156
 30
0.0
 10
1.024361504475804
 20
-1.449433448636834
 30
0.0
 10
1.05641937259059
 20
-1.338618188492875
 30
0.0
 10
1.143113030364033
 20
-1.241740984449456
 30
0.0
 10
1.225342644625976
 20
-1.149851709008266
 30
0.0
 10
1.327538384374609
 20
-1.093357737929965
 30
0.0
 10
1.448521084299677
 20
-1.070389021843817
 30
0.0
 10
1.461283365929565
 20
-1.067965417514958
 30
0.0
 10
1.4893773397251
 20
-1.068946218568739
 30
0.0
 10
1.4893773397251
 20
-1.068946218568739
 30
0.0
 10
1.4893773397251
 20
-1.068946218568739
 30
0.0
 10
1.672648112022658
 20
-1.08262487526099
 30
0.0
 10
1.70958455407923
 20
-1.098800887089914
 30
0.0
 10
1.791552225789852
 20
-1.134698036073625
 30
0.0
 10
1.854771084294094
 20
-1.194825294377248
 30
0.0
 10
1.908340454136843
 20
-1.265445513292409
 30
0.0
 10
2.009473164905595
 20
-1.398769182730537
 30
0.0
 10
2.074306911914795
 20
-1.551513052091094
 30
0.0
 10
2.139699300145821
 20
-1.703569428233348
 30
0.0
 10
2.23705715603843
 20
-1.929952213610982
 30
0.0
 10
2.304769727913632
 20
-2.166940705096231
 30
0.0
 10
2.384459601492608
 20
-2.399644867697462
 30
0.0
 10
2.45870547821898
 20
-2.616454458358349
 30
0.0
 10
2.547303941479956
 20
-2.826586633384029
 30
0.0
 10
2.670855204220793
 20
-3.020878489943394
 30
0.0
 10
2.822057935872446
 20
-3.258655352200624
 30
0.0
 10
3.023094177183692
 20
-3.441347138233949
 30
0.0
 10
3.272084553968183
 20
-3.572148021220389
 30
0.0
 10
3.496905856588746
 20
-3.690251896284735
 30
0.0
 10
3.736980014300532
 20
-3.758280664199156
 30
0.0
 10
3.988323635447248
 20
-3.787141816011664
 30
0.0
 10
4.288526746882326
 20
-3.821613963648853
 30
0.0
 10
4.58402082647342
 20
-3.793887896225038
 30
0.0
 10
4.874421861362078
 20
-3.711783743134775
 30
0.0
 10
5.105557759531254
 20
-3.646435435853492
 30
0.0
 10
5.320035298598264
 20
-3.545755402497232
 30
0.0
 10
5.513085259270964
 20
-3.401961660643918
 30
0.0
 10
5.774820963489774
 20
-3.207006046777628
 30
0.0
 10
5.945747375447973
 20
-2.949089278393381
 30
0.0
 10
6.040014478869049
 20
-2.638148218013498
 30
0.0
 10
6.10640547008984
 20
-2.419161706786011
 30
0.0
 10
6.1390728420617
 20
-2.195160987928969
 30
0.0
 10
6.147525363502053
 20
-1.966826772977103
 30
0.0
 10
6.149810791022193
 20
-1.905081235325282
 30
0.0
 10
6.152347988561852
 20
-1.843389951145708
 30
0.0
 10
6.153067694782079
 20
-1.781574053522036
 30
0.0
  0
SPLINE
  5
87
330
1F
100
AcDbEntity
  8
Layer 1
 62
     1
420
 16711680
370
    35
100
AcDbSpline
210
0.0
220
0.0
230
1.0
 70
    11
 71
     3
 72
    17
 73
    13
 74
     0
 42
0.0000000001
 43
0.0000000001
 12
1.0
 22
0.0
 32
0.0
 13
1.0
 23
0.0
 33
0.0
 40
0.0
 40
0.0
 40
0.0
 40
0.0
 40
1.0
 40
1.0
 40
1.0
 40
2.0
 40
2.0
 40
2.0
 40
3.0
 40
3.0
 40
3.0
 40
4.0
 40
4.0
 40
4.0
 40
4.0
 10
3.277784559457245
 20
-2.153010278436341
 30
0.0
 10
3.277784559453481
 20
-2.236699650181132
 30
0.0
 10
3.223417494020749
 20
-2.304542769482092
 30
0.0
 10
3.156354268380558
 20
-2.304542769479086
 30
0.0
 10
3.08928934731936
 20
-2.304542769476067
 30
0.0
 10
3.034923977313724
 20
-2.236699650170244
 30
0.0
 10
3.034923977317488
 20
-2.153010278425452
 30
0.0
 10
3.03492397732124
 20
-2.069321754391164
 30
0.0
 10
3.089289347332952
 20
-2.001478635090217
 30
0.0
 10
3.156354268394163
 20
-2.001478635093235
 30
0.0
 10
3.223417494034341
 20
-2.001478635096242
 30
0.0
 10
3.277784559460997
 20
-2.069321754402065
 30
0.0
 10
3.277784559457245
 20
-2.153010278436341
 30
0.0
  0
POLYLINE
  5
88
330
1F
100
AcDbEntity
  8
Layer 1
 62
     1
420
 16711680
370
    35
100
AcDb2dPolyline
 66
     1
 10
0.0
 20
0.0
 30
0.0
  0
VERTEX
  5
89
330
88
100
AcDbEntity
  8
Layer 1
 62
     1
420
 16711680
370
    35
100
AcDbVertex
100
AcDb2dVertex
 10
3.622116936610748
 20
-1.314917050641485
 30
0.0
  0
VERTEX
  5
8A
330
88
100
AcDbEntity
  8
Layer 1
 62
     1
420
 16711680
370
    35
100
AcDbVertex
100
AcDb2dVertex
 10
3.407116360167606
 20
-1.314917050631834
 30
0.0
  0
VERTEX
  5
8B
330
88
100
AcDbEntity
  8
Layer 1
 62
     1
420
 16711680
370
    35
100
AcDbVertex
100
AcDb2dVertex
 10
3.407116360188941
 20
-0.8399168810897334
 30
0.0
  0
VERTEX
  5
8C
330
88
100
AcDbEntity
  8
Layer 1
 62
     1
420
 16711680
370
    35
100
AcDbVertex
100
AcDb2dVertex
 10
3.622116936632084
 20
-0.8399168810993842
 30
0.0
  0
VERTEX
  5
8D
330
88
100
AcDbEntity
  8
Layer 1
 62
     1
420
 16711680
370
    35
100
AcDbVertex
100
AcDb2dVertex
 10
3.622116936610748
 20
-1.314917050641485
 30
0.0
  0
SEQEND
  5
8E
330
88
100
AcDbEntity
  8
Layer 1
 62
     1
420
 16711680
370
    35
  0
POLYLINE
  5
8F
330
1F
100
AcDbEntity
  8
Layer 1
 62
     1
420
 16711680
370
    35
100
AcDb2dPolyline
 66
     1
 10
0.0
 20
0.0
 30
0.0
  0
VERTEX
  5
90
330
8F
100
AcDbEntity
  8
Layer 1
 62
     1
420
 16711680
370
    35
100
AcDbVertex
100
AcDb2dVertex
 10
3.622116936531029
 20
-3.090615394554245
 30
0.0
  0
VERTEX
  5
91
330
8F
100
AcDbEntity
  8
Layer 1
 62
     1
420
 16711680
370
    35
100
AcDbVertex
100
AcDb2dVertex
 10
3.407116360087886
 20
-3.090615394544594
 30
0.0
  0
VERTEX
  5
92
330
8F
100
AcDbEntity
  8
Layer 1
 62
     1
420
 16711680
370
    35
100
AcDbVertex
100
AcDb2dVertex
 10
3.407116360109209
 20
-2.615615225002494
 30
0.0
  0
VERTEX
  5
93
330
8F
100
AcDbEntity
  8
Layer 1
 62
     1
420
 16711680
370
    35
100
AcDbVertex
100
AcDb2dVertex
 10
3.622116936552351
 20
-2.615615225012144
 30
0.0
  0
VERTEX
  5
94
330
8F
100
AcDbEntity
  8
Layer 1
 62
     1
420
 16711680
370
    35
100
AcDbVertex
100
AcDb2dVertex
 10
3.622116936531029
 20
-3.090615394554245
 30
0.0
  0
SEQEND
  5
95
330
8F
100
AcDbEntity
  8
Layer 1
 62
     1
420
 16711680
370
    35
  0
POLYLINE
  5
96
330
1F
100
AcDbEntity
  8
Layer 1
 62
     1
420
 16711680
370
    35
100
AcDb2dPolyline
 66
     1
 10
0.0
 20
0.0
 30
0.0
  0
VERTEX
  5
97
330
96
100
AcDbEntity
  8
Layer 1
 62
     1
420
 16711680
370
    35
100
AcDbVertex
100
AcDb2dVertex
 10
4.133110894141838
 20
-1.057609786124494
 30
0.0
  0
VERTEX
  5
98
330
96
100
AcDbEntity
  8
Layer 1
 62
     1
420
 16711680
370
    35
100
AcDbVertex
100
AcDb2dVertex
 10
3.814383612783331
 20
-1.057609786110195
 30
0.0
  0
VERTEX
  5
99
330
96
100
AcDbEntity
  8
Layer 1
 62
     1
420
 16711680
370
    35
100
AcDbVertex
100
AcDb2dVertex
 10
3.814383612792982
 20
-0.8426100573775557
 30
0.0
  0
VERTEX
  5
9A
330
96
100
AcDbEntity
  8
Layer 1
 62
     1
420
 16711680
370
    35
100
AcDbVertex
100
AcDb2dVertex
 10
4.133110894151488
 20
-0.8426100573918549
 30
0.0
  0
VERTEX
  5
9B
330
96
100
AcDbEntity
  8
Layer 1
 62
     1
420
 16711680
370
    35
100
AcDbVertex
100
AcDb2dVertex
 10
4.133110894141838
 20
-1.057609786124494
 30
0.0
  0
SEQEND
  5
9C
330
96
100
AcDbEntity
  8
Layer 1
 62
     1
420
 16711680
370
    35
  0
POLYLINE
  5
9D
330
1F
100
AcDbEntity
  8
Layer 1
 62
     1
420
 16711680
370
    35
100
AcDb2dPolyline
 66
     1
 10
0.0
 20
0.0
 30
0.0
  0
VERTEX
  5
9E
330
9D
100
AcDbEntity
  8
Layer 1
 62
     1
420
 16711680
370
    35
100
AcDbVertex
100
AcDb2dVertex
 10
5.297243754113626
 20
-1.057609786176764
 30
0.0
  0
VERTEX
  5
9F
330
9D
100
AcDbEntity
  8
Layer 1
 62
     1
420
 16711680
370
    35
100
AcDbVertex
100
AcDb2dVertex
 10
4.978516472755119
 20
-1.057609786162452
 30
0.0
  0
VERTEX
  5
A0
330
9D
100
AcDbEntity
  8
Layer 1
 62
     1
420
 16711680
370
    35
100
AcDbVertex
100
AcDb2dVertex
 10
4.978516472764769
 20
-0.8426100574298137
 30
0.0
  0
VERTEX
  5
A1
330
9D
100
AcDbEntity
  8
Layer 1
 62
     1
420
 16711680
370
    35
100
AcDbVertex
100
AcDb2dVertex
 10
5.297243754123277
 20
-0.8426100574441255
 30
0.0
  0
VERTEX
  5
A2
330
9D
100
AcDbEntity
  8
Layer 1
 62
     1
420
 16711680
370
    35
100
AcDbVertex
100
AcDb2dVertex
 10
5.297243754113626
 20
-1.057609786176764
 30
0.0
  0
SEQEND
  5
A3
330
9D
100
AcDbEntity
  8
Layer 1
 62
     1
420
 16711680
370
    35
  0
POLYLINE
  5
A4
330
1F
100
AcDbEntity
  8
Layer 1
 62
     1
420
 16711680
370
    35
100
AcDb2dPolyline
 66
     1
 10
0.0
 20
0.0
 30
0.0
  0
VERTEX
  5
A5
330
A4
100
AcDbEntity
  8
Layer 1
 62
     1
420
 16711680
370
    35
100
AcDbVertex
100
AcDb2dVertex
 10
5.704511006706235
 20
-1.314917050734973
 30
0.0
  0
VERTEX
  5
A6
330
A4
100
AcDbEntity
  8
Layer 1
 62
     1
420
 16711680
370
    35
100
AcDbVertex
100
AcDb2dVertex
 10
5.489510430263092
 20
-1.314917050725323
 30
0.0
  0
VERTEX
  5
A7
330
A4
100
AcDbEntity
  8
Layer 1
 62
     1
420
 16711680
370
    35
100
AcDbVertex
100
AcDb2dVertex
 10
5.489510430284427
 20
-0.8399168811832219
 30
0.0
  0
VERTEX
  5
A8
330
A4
100
AcDbEntity
  8
Layer 1
 62
     1
420
 16711680
370
    35
100
AcDbVertex
100
AcDb2dVertex
 10
5.70451100672757
 20
-0.8399168811928727
 30
0.0
  0
VERTEX
  5
A9
330
A4
100
AcDbEntity
  8
Layer 1
 62
     1
420
 16711680
370
    35
100
AcDbVertex
100
AcDb2dVertex
 10
5.704511006706235
 20
-1.314917050734973
 30
0.0
  0
SEQEND
  5
AA
330
A4
100
AcDbEntity
  8
Layer 1
 62
     1
420
 16711680
370
    35
  0
POLYLINE
  5
AB
330
1F
100
AcDbEntity
  8
Layer 1
 62
     1
420
 16711680
370
    35
100
AcDb2dPolyline
 66
     1
 10
0.0
 20
0.0
 30
0.0
  0
VERTEX
  5
AC
330
AB
100
AcDbEntity
  8
Layer 1
 62
     1
420
 16711680
370
    35
100
AcDbVertex
100
AcDb2dVertex
 10
5.704511006626515
 20
-3.090615394647734
 30
0.0
  0
VERTEX
  5
AD
330
AB
100
AcDbEntity
  8
Layer 1
 62
     1
420
 16711680
370
    35
100
AcDbVertex
100
AcDb2dVertex
 10
5.489510430183373
 20
-3.090615394638083
 30
0.0
  0
VERTEX
  5
AE
330
AB
100
AcDbEntity
  8
Layer 1
 62
     1
420
 16711680
370
    35
100
AcDbVertex
100
AcDb2dVertex
 10
5.489510430204695
 20
-2.615615225095982
 30
0.0
  0
VERTEX
  5
AF
330
AB
100
AcDbEntity
  8
Layer 1
 62
     1
420
 16711680
370
    35
100
AcDbVertex
100
AcDb2dVertex
 10
5.704511006647837
 20
-2.615615225105633
 30
0.0
  0
VERTEX
  5
B0
330
AB
100
AcDbEntity
  8
Layer 1
 62
     1
420
 16711680
370
    35
100
AcDbVertex
100
AcDb2dVertex
 10
5.704511006626515
 20
-3.090615394647734
 30
0.0
  0
SEQEND
  5
B1
330
AB
100
AcDbEntity
  8
Layer 1
 62
     1
420
 16711680
370
    35
  0
SPLINE
  5
B2
330
1F
100
AcDbEntity
  8
Layer 1
 62
     1
420
 16711680
370
    35
100
AcDbSpline
210
0.0
220
0.0
230
1.0
 70
    11
 71
     3
 72
   149
 73
   145
 74
     0
 42
0.0000000001
 43
0.0000000001
 12
1.0
 22
0.0
 32
0.0
 13
1.0
 23
0.0
 33
0.0
 40
0.0
 40
0.0
 40
0.0
 40
0.0
 40
1.0
 40
1.0
 40
1.0
 40
2.0
 40
2.0
 40
2.0
 40
3.0
 40
3.0
 40
3.0
 40
4.0
 40
4.0
 40
4.0
 40
5.0
 40
5.0
 40
5.0
 40
6.0
 40
6.0
 40
6.0
 40
7.0
 40
7.0
 40
7.0
 40
8.0
 40
8.0
 40
8.0
 40
9.0
 40
9.0
 40
9.0
 40
10.0
 40
10.0
 40
10.0
 40
11.0
 40
11.0
 40
11.0
 40
12.0
 40
12.0
 40
12.0
 40
13.0
 40
13.0
 40
13.0
 40
14.0
 40
14.0
 40
14.0
 40
15.0
 40
15.0
 40
15.0
 40
16.0
 40
16.0
 40
16.0
 40
17.0
 40
17.0
 40
17.0
 40
18.0
 40
18.0
 40
18.0
 40
19.0
 40
19.0
 40
19.0
 40
20.0
 40
20.0
 40
20.0
 40
21.0
 40
21.0
 40
21.0
 40
22.0
 40
22.0
 40
22.0
 40
23.0
 40
23.0
 40
23.0
 40
24.0
 40
24.0
 40
24.0
 40
25.0
 40
25.0
 40
25.0
 40
26.0
 40
26.0
 40
26.0
 40
27.0
 40
27.0
 40
27.0
 40
28.0
 40
28.0
 40
28.0
 40
29.0
 40
29.0
 40
29.0
 40
30.0
 40
30.0
 40
30.0
 40
31.0
 40
31.0
 40
31.0
 40
32.0
 40
32.0
 40
32.0
 40
33.0
 40
33.0
 40
33.0
 40
34.0
 40
34.0
 40
34.0
 40
35.0
 40
35.0
 40
35.0
 40
36.0
 40
36.0
 40
36.0
 40
37.0
 40
37.0
 40
37.0
 40
38.0
 40
38.0
 40
38.0
 40
39.0
 40
39.0
 40
39.0
 40
40.0
 40
40.0
 40
40.0
 40
41.0
 40
41.0
 40
41.0
 40
42.0
 40
42.0
 40
42.0
 40
43.0
 40
43.0
 40
43.0
 40
44.0
 40
44.0
 40
44.0
 40
45.0
 40
45.0
 40
45.0
 40
46.0
 40
46.0
 40
46.0
 40
47.0
 40
47.0
 40
47.0
 40
48.0
 40
48.0
 40
48.0
 40
48.0
 10
6.147525363521001
 20
-5.904266582187208
 30
0.0
 10
6.139072842090879
 20
-5.675932367234964
 30
0.0
 10
6.106405470129074
 20
-5.451931648376444
 30
0.0
 10
6.040014478918136
 20
-5.232945137145975
 30
0.0
 10
5.945747375511019
 20
-4.92200407676186
 30
0.0
 10
5.774820963564403
 20
-4.664087308369933
 30
0.0
 10
5.513085259354335
 20
-4.469131694491908
 30
0.0
 10
5.320035298688102
 20
-4.325337952629916
 30
0.0
 10
5.105557759625602
 20
-4.224657919264031
 30
0.0
 10
4.874421861459369
 20
-4.159309611972364
 30
0.0
 10
4.584020826574386
 20
-4.077205458869066
 30
0.0
 10
4.288526746984543
 20
-4.049479391432
 30
0.0
 10
3.988323635547911
 20
-4.083951539055698
 30
0.0
 10
3.736980014399907
 20
-4.112812690856913
 30
0.0
 10
3.496905856685064
 20
-4.180841458760558
 30
0.0
 10
3.272084554059195
 20
-4.298945333814824
 30
0.0
 10
3.023094177268831
 20
-4.429746216790073
 30
0.0
 10
2.822057935949386
 20
-4.612438002814378
 30
0.0
 10
2.67085520428706
 20
-4.850214865064824
 30
0.0
 10
2.547303941537494
 20
-5.044506721618644
 30
0.0
 10
2.458705478267095
 20
-5.254638896640333
 30
0.0
 10
2.384459601530984
 20
-5.471448487297885
 30
0.0
 10
2.304769727941574
 20
-5.704152649895541
 30
0.0
 10
2.237057156055724
 20
-5.941141141377746
 30
0.0
 10
2.139699300152945
 20
-6.16752392675101
 30
0.0
 10
2.074306911915099
 20
-6.319580302890333
 30
0.0
 10
2.009473164899039
 20
-6.472324172247972
 30
0.0
 10
1.9083404541243
 20
-6.605647841681566
 30
0.0
 10
1.85477108427838
 20
-6.676268060594339
 30
0.0
 10
1.791552225771435
 20
-6.736395318895107
 30
0.0
 10
1.709584554059196
 20
-6.772292467875141
 30
0.0
 10
1.672648112001904
 20
-6.788468479702399
 30
0.0
 10
1.489377339703727
 20
-6.802147136386426
 30
0.0
 10
1.489377339703727
 20
-6.802147136386426
 30
0.0
 10
1.489377339703727
 20
-6.802147136386426
 30
0.0
 10
1.461283365908154
 20
-6.803127937438944
 30
0.0
 10
1.44852108427838
 20
-6.800704333109516
 30
0.0
 10
1.327538384354334
 20
-6.777735617017949
 30
0.0
 10
1.225342644608241
 20
-6.721241645935038
 30
0.0
 10
1.143113030350428
 20
-6.629352370490172
 30
0.0
 10
1.056419372581331
 20
-6.53247516644285
 30
0.0
 10
1.024361504471522
 20
-6.421659906297464
 30
0.0
 10
1.065564473492789
 20
-6.296058031839985
 30
0.0
 10
1.081090291363883
 20
-6.248727811299621
 30
0.0
 10
1.106652153885584
 20
-6.204732483879916
 30
0.0
 10
1.126971774653814
 20
-6.158920512851283
 30
0.0
 10
1.152303059918571
 20
-6.101811951653366
 30
0.0
 10
1.136134677485845
 20
-6.06203567940943
 30
0.0
 10
1.077633327930724
 20
-6.038932177347811
 30
0.0
 10
1.032129075814838
 20
-6.020960714674199
 30
0.0
 10
0.9859619140852374
 20
-6.024212532165519
 30
0.0
 10
0.9409018622731713
 20
-6.040572497172016
 30
0.0
 10
0.9051301744476505
 20
-6.053560269795727
 30
0.0
 10
0.86911688912864
 20
-6.063022414435472
 30
0.0
 10
0.831506517221088
 20
-6.052721036397277
 30
0.0
 10
0.7701704237423553
 20
-6.035921957349968
 30
0.0
 10
0.7124048869042477
 20
-6.050912869893371
 30
0.0
 10
0.6528684828243866
 20
-6.065184076219339
 30
0.0
 10
0.577325609017963
 20
-6.083291172573505
 30
0.0
 10
0.5384021335405325
 20
-6.130317912753614
 30
0.0
 10
0.5213606092892304
 20
-6.202586080885125
 30
0.0
 10
0.4825524224402721
 20
-6.367162293450241
 30
0.0
 10
0.4633271959320255
 20
-6.53327116660561
 30
0.0
 10
0.4835874769650116
 20
-6.701992683532694
 30
0.0
 10
0.5362481011512096
 20
-7.140540453714985
 30
0.0
 10
0.8440127902788137
 20
-7.438543756395107
 30
0.0
 10
1.247508578853032
 20
-7.533899320088683
 30
0.0
 10
1.376775105817008
 20
-7.564447415791808
 30
0.0
 10
1.507862514942442
 20
-7.570845086961513
 30
0.0
 10
1.640017191591748
 20
-7.569219178215866
 30
0.0
 10
1.823965284582199
 20
-7.566954943461079
 30
0.0
 10
1.998407151986713
 20
-7.523899726989725
 30
0.0
 10
2.163424174013623
 20
-7.444966858879916
 30
0.0
 10
2.462291293696782
 20
-7.30200641644285
 30
0.0
 10
2.702874077713709
 20
-7.084385566833475
 30
0.0
 10
2.922375149219786
 20
-6.84137833077663
 30
0.0
 10
2.98327467178923
 20
-6.773956523593458
 30
0.0
 10
3.04623836943463
 20
-6.720841526577399
 30
0.0
 10
3.145898607064838
 20
-6.727757148864725
 30
0.0
 10
3.260201348221522
 20
-6.735688328335211
 30
0.0
 10
3.318287319629942
 20
-6.790347853888597
 30
0.0
 10
3.325228373232373
 20
-6.904838786777051
 30
0.0
 10
3.328607347299213
 20
-6.960583381774894
 30
0.0
 10
3.335800170921175
 20
-7.016119439988857
 30
0.0
 10
3.34204186335824
 20
-7.07166227988686
 30
0.0
 10
3.352056715246261
 20
-7.160796496195454
 30
0.0
 10
3.366029527474994
 20
-7.249635709248852
 30
0.0
 10
3.372057596865185
 20
-7.339022543287468
 30
0.0
 10
3.376902262392529
 20
-7.410857531351704
 30
0.0
 10
3.412072075760584
 20
-7.467135336256218
 30
0.0
 10
3.451249864389057
 20
-7.52191862754311
 30
0.0
 10
3.469588385710671
 20
-7.547560174852138
 30
0.0
 10
3.498056199838275
 20
-7.561900045728875
 30
0.0
 10
3.531977335634716
 20
-7.56531631905788
 30
0.0
 10
3.592744615365619
 20
-7.571437636603441
 30
0.0
 10
3.653027852399039
 20
-7.564454197475836
 30
0.0
 10
3.713543362110411
 20
-7.563507304843458
 30
0.0
 10
3.839508056663362
 20
-7.561535530212394
 30
0.0
 10
3.965694851368223
 20
-7.557975993808301
 30
0.0
 10
4.091434054927251
 20
-7.563370823452399
 30
0.0
 10
4.166233486622129
 20
-7.566579407708041
 30
0.0
 10
4.243414984831765
 20
-7.501025106764031
 30
0.0
 10
4.250063578310497
 20
-7.426643596347364
 30
0.0
 10
4.258464389399907
 20
-7.332684211853019
 30
0.0
 10
4.273593478755376
 20
-7.239346199157694
 30
0.0
 10
4.283742268902945
 20
-7.14551651437038
 30
0.0
 10
4.294905768523171
 20
-7.042287415520541
 30
0.0
 10
4.369338141570046
 20
-7.066331876241027
 30
0.0
 10
4.462776184104769
 20
-7.037504632859964
 30
0.0
 10
4.509691026498431
 20
-7.023031671434169
 30
0.0
 10
4.556855095780116
 20
-7.029441210550935
 30
0.0
 10
4.604711744543136
 20
-7.030527127705871
 30
0.0
 10
4.707125345888622
 20
-7.032849854485384
 30
0.0
 10
4.809548272049647
 20
-7.033828112406391
 30
0.0
 10
4.911927964974994
 20
-7.038494758728019
 30
0.0
 10
4.938807169619091
 20
-7.039720548116027
 30
0.0
 10
4.958752950055289
 20
-7.049461589511426
 30
0.0
 10
4.974791632780984
 20
-7.070091472323926
 30
0.0
 10
4.998519049773171
 20
-7.099632487948926
 30
0.0
 10
5.017841762989317
 20
-7.12867081124538
 30
0.0
 10
5.022743225120394
 20
-7.176038331047884
 30
0.0
 10
5.024419996496261
 20
-7.211375991095628
 30
0.0
 10
5.046730041526644
 20
-7.270056207566982
 30
0.0
 10
5.053023444304421
 20
-7.318518969339985
 30
0.0
 10
5.06176333959522
 20
-7.385817858500141
 30
0.0
 10
5.169747246659022
 20
-7.505920634921583
 30
0.0
 10
5.176678127735411
 20
-7.51429092843288
 30
0.0
 10
5.231268141027511
 20
-7.551419800774447
 30
0.0
 10
5.281534830751903
 20
-7.545622308641214
 30
0.0
 10
5.352086385113883
 20
-7.547463535854755
 30
0.0
 10
5.495556301563536
 20
-7.551992005364291
 30
0.0
 10
5.638744778126036
 20
-7.543214810811352
 30
0.0
 10
5.78177558053489
 20
-7.533220303975402
 30
0.0
 10
5.897292243132546
 20
-7.525149252271843
 30
0.0
 10
5.950915866450688
 20
-7.483733507914204
 30
0.0
 10
5.983183966765359
 20
-7.372787700351283
 30
0.0
 10
6.009958903017528
 20
-7.28072464425318
 30
0.0
 10
6.03377278648107
 20
-7.187985962883822
 30
0.0
 10
6.05214436851232
 20
-7.09339079551186
 30
0.0
 10
6.116576300749734
 20
-6.761636746846496
 30
0.0
 10
6.149326748340879
 20
-6.427139506991908
 30
0.0
 10
6.153067694792703
 20
-6.089519301642503
 30
0.0
 10
6.152347988575254
 20
-6.027703404018805
 30
0.0
 10
6.149810791038362
 20
-5.96601211983913
 30
0.0
 10
6.147525363521001
 20
-5.904266582187208
 30
0.0
  0
SPLINE
  5
B3
330
1F
100
AcDbEntity
  8
Layer 1
 62
     1
420
 16711680
370
    35
100
AcDbSpline
210
0.0
220
0.0
230
1.0
 70
    11
 71
     3
 72
    17
 73
    13
 74
     0
 42
0.0000000001
 43
0.0000000001
 12
1.0
 22
0.0
 32
0.0
 13
1.0
 23
0.0
 33
0.0
 40
0.0
 40
0.0
 40
0.0
 40
0.0
 40
1.0
 40
1.0
 40
1.0
 40
2.0
 40
2.0
 40
2.0
 40
3.0
 40
3.0
 40
3.0
 40
4.0
 40
4.0
 40
4.0
 40
4.0
 10
3.156354268414664
 20
-5.869614719936774
 30
0.0
 10
3.089289347353466
 20
-5.869614719936774
 30
0.0
 10
3.034923977344786
 20
-5.801771600633388
 30
0.0
 10
3.034923977344786
 20
-5.7180830765991
 30
0.0
 10
3.034923977344786
 20
-5.634393704854308
 30
0.0
 10
3.089289347353466
 20
-5.566550585550936
 30
0.0
 10
3.156354268414664
 20
-5.566550585550936
 30
0.0
 10
3.223417494054855
 20
-5.566550585550936
 30
0.0
 10
3.277784559484543
 20
-5.634393704854308
 30
0.0
 10
3.277784559484543
 20
-5.7180830765991
 30
0.0
 10
3.277784559484543
 20
-5.801771600633388
 30
0.0
 10
3.223417494054855
 20
-5.869614719936774
 30
0.0
 10
3.156354268414664
 20
-5.869614719936774
 30
0.0
  0
POLYLINE
  5
B4
330
1F
100
AcDbEntity
  8
Layer 1
 62
     1
420
 16711680
370
    35
100
AcDb2dPolyline
 66
     1
 10
0.0
 20
0.0
 30
0.0
  0
VERTEX
  5
B5
330
B4
100
AcDbEntity
  8
Layer 1
 62
     1
420
 16711680
370
    35
100
AcDbVertex
100
AcDb2dVertex
 10
3.622116936600428
 20
-7.031176473951531
 30
0.0
  0
VERTEX
  5
B6
330
B4
100
AcDbEntity
  8
Layer 1
 62
     1
420
 16711680
370
    35
100
AcDbVertex
100
AcDb2dVertex
 10
3.407116360157286
 20
-7.031176473951531
 30
0.0
  0
VERTEX
  5
B7
330
B4
100
AcDbEntity
  8
Layer 1
 62
     1
420
 16711680
370
    35
100
AcDbVertex
100
AcDb2dVertex
 10
3.407116360157286
 20
-6.55617630440943
 30
0.0
  0
VERTEX
  5
B8
330
B4
100
AcDbEntity
  8
Layer 1
 62
     1
420
 16711680
370
    35
100
AcDbVertex
100
AcDb2dVertex
 10
3.622116936600428
 20
-6.55617630440943
 30
0.0
  0
VERTEX
  5
B9
330
B4
100
AcDbEntity
  8
Layer 1
 62
     1
420
 16711680
370
    35
100
AcDbVertex
100
AcDb2dVertex
 10
3.622116936600428
 20
-7.031176473951531
 30
0.0
  0
SEQEND
  5
BA
330
B4
100
AcDbEntity
  8
Layer 1
 62
     1
420
 16711680
370
    35
  0
POLYLINE
  5
BB
330
1F
100
AcDbEntity
  8
Layer 1
 62
     1
420
 16711680
370
    35
100
AcDb2dPolyline
 66
     1
 10
0.0
 20
0.0
 30
0.0
  0
VERTEX
  5
BC
330
BB
100
AcDbEntity
  8
Layer 1
 62
     1
420
 16711680
370
    35
100
AcDbVertex
100
AcDb2dVertex
 10
3.622116936600428
 20
-5.255478130038783
 30
0.0
  0
VERTEX
  5
BD
330
BB
100
AcDbEntity
  8
Layer 1
 62
     1
420
 16711680
370
    35
100
AcDbVertex
100
AcDb2dVertex
 10
3.407116360157286
 20
-5.255478130038783
 30
0.0
  0
VERTEX
  5
BE
330
BB
100
AcDbEntity
  8
Layer 1
 62
     1
420
 16711680
370
    35
100
AcDbVertex
100
AcDb2dVertex
 10
3.407116360157286
 20
-4.780477960496669
 30
0.0
  0
VERTEX
  5
BF
330
BB
100
AcDbEntity
  8
Layer 1
 62
     1
420
 16711680
370
    35
100
AcDbVertex
100
AcDb2dVertex
 10
3.622116936600428
 20
-4.780477960496669
 30
0.0
  0
VERTEX
  5
C0
330
BB
100
AcDbEntity
  8
Layer 1
 62
     1
420
 16711680
370
    35
100
AcDbVertex
100
AcDb2dVertex
 10
3.622116936600428
 20
-5.255478130038783
 30
0.0
  0
SEQEND
  5
C1
330
BB
100
AcDbEntity
  8
Layer 1
 62
     1
420
 16711680
370
    35
  0
POLYLINE
  5
C2
330
1F
100
AcDbEntity
  8
Layer 1
 62
     1
420
 16711680
370
    35
100
AcDb2dPolyline
 66
     1
 10
0.0
 20
0.0
 30
0.0
  0
VERTEX
  5
C3
330
C2
100
AcDbEntity
  8
Layer 1
 62
     1
420
 16711680
370
    35
100
AcDbVertex
100
AcDb2dVertex
 10
4.13311089411996
 20
-7.028483297682
 30
0.0
  0
VERTEX
  5
C4
330
C2
100
AcDbEntity
  8
Layer 1
 62
     1
420
 16711680
370
    35
100
AcDbVertex
100
AcDb2dVertex
 10
3.814383612761453
 20
-7.028483297682
 30
0.0
  0
VERTEX
  5
C5
330
C2
100
AcDbEntity
  8
Layer 1
 62
     1
420
 16711680
370
    35
100
AcDbVertex
100
AcDb2dVertex
 10
3.814383612761453
 20
-6.81348356894936
 30
0.0
  0
VERTEX
  5
C6
330
C2
100
AcDbEntity
  8
Layer 1
 62
     1
420
 16711680
370
    35
100
AcDbVertex
100
AcDb2dVertex
 10
4.13311089411996
 20
-6.81348356894936
 30
0.0
  0
VERTEX
  5
C7
330
C2
100
AcDbEntity
  8
Layer 1
 62
     1
420
 16711680
370
    35
100
AcDbVertex
100
AcDb2dVertex
 10
4.13311089411996
 20
-7.028483297682
 30
0.0
  0
SEQEND
  5
C8
330
C2
100
AcDbEntity
  8
Layer 1
 62
     1
420
 16711680
370
    35
  0
POLYLINE
  5
C9
330
1F
100
AcDbEntity
  8
Layer 1
 62
     1
420
 16711680
370
    35
100
AcDb2dPolyline
 66
     1
 10
0.0
 20
0.0
 30
0.0
  0
VERTEX
  5
CA
330
C9
100
AcDbEntity
  8
Layer 1
 62
     1
420
 16711680
370
    35
100
AcDbVertex
100
AcDb2dVertex
 10
5.297243754091747
 20
-7.028483297682
 30
0.0
  0
VERTEX
  5
CB
330
C9
100
AcDbEntity
  8
Layer 1
 62
     1
420
 16711680
370
    35
100
AcDbVertex
100
AcDb2dVertex
 10
4.978516472733241
 20
-7.028483297682
 30
0.0
  0
VERTEX
  5
CC
330
C9
100
AcDbEntity
  8
Layer 1
 62
     1
420
 16711680
370
    35
100
AcDbVertex
100
AcDb2dVertex
 10
4.978516472733241
 20
-6.81348356894936
 30
0.0
  0
VERTEX
  5
CD
330
C9
100
AcDbEntity
  8
Layer 1
 62
     1
420
 16711680
370
    35
100
AcDbVertex
100
AcDb2dVertex
 10
5.297243754091747
 20
-6.81348356894936
 30
0.0
  0
VERTEX
  5
CE
330
C9
100
AcDbEntity
  8
Layer 1
 62
     1
420
 16711680
370
    35
100
AcDbVertex
100
AcDb2dVertex
 10
5.297243754091747
 20
-7.028483297682
 30
0.0
  0
SEQEND
  5
CF
330
C9
100
AcDbEntity
  8
Layer 1
 62
     1
420
 16711680
370
    35
  0
POLYLINE
  5
D0
330
1F
100
AcDbEntity
  8
Layer 1
 62
     1
420
 16711680
370
    35
100
AcDb2dPolyline
 66
     1
 10
0.0
 20
0.0
 30
0.0
  0
VERTEX
  5
D1
330
D0
100
AcDbEntity
  8
Layer 1
 62
     1
420
 16711680
370
    35
100
AcDbVertex
100
AcDb2dVertex
 10
5.704511006695914
 20
-7.031176473951531
 30
0.0
  0
VERTEX
  5
D2
330
D0
100
AcDbEntity
  8
Layer 1
 62
     1
420
 16711680
370
    35
100
AcDbVertex
100
AcDb2dVertex
 10
5.489510430252772
 20
-7.031176473951531
 30
0.0
  0
VERTEX
  5
D3
330
D0
100
AcDbEntity
  8
Layer 1
 62
     1
420
 16711680
370
    35
100
AcDbVertex
100
AcDb2dVertex
 10
5.489510430252772
 20
-6.55617630440943
 30
0.0
  0
VERTEX
  5
D4
330
D0
100
AcDbEntity
  8
Layer 1
 62
     1
420
 16711680
370
    35
100
AcDbVertex
100
AcDb2dVertex
 10
5.704511006695914
 20
-6.55617630440943
 30
0.0
  0
VERTEX
  5
D5
330
D0
100
AcDbEntity
  8
Layer 1
 62
     1
420
 16711680
370
    35
100
AcDbVertex
100
AcDb2dVertex
 10
5.704511006695914
 20
-7.031176473951531
 30
0.0
  0
SEQEND
  5
D6
330
D0
100
AcDbEntity
  8
Layer 1
 62
     1
420
 16711680
370
    35
  0
POLYLINE
  5
D7
330
1F
100
AcDbEntity
  8
Layer 1
 62
     1
420
 16711680
370
    35
100
AcDb2dPolyline
 66
     1
 10
0.0
 20
0.0
 30
0.0
  0
VERTEX
  5
D8
330
D7
100
AcDbEntity
  8
Layer 1
 62
     1
420
 16711680
370
    35
100
AcDbVertex
100
AcDb2dVertex
 10
5.704511006695914
 20
-5.255478130038783
 30
0.0
  0
VERTEX
  5
D9
330
D7
100
AcDbEntity
  8
Layer 1
 62
     1
420
 16711680
370
    35
100
AcDbVertex
100
AcDb2dVertex
 10
5.489510430252772
 20
-5.255478130038783
 30
0.0
  0
VERTEX
  5
DA
330
D7
100
AcDbEntity
  8
Layer 1
 62
     1
420
 16711680
370
    35
100
AcDbVertex
100
AcDb2dVertex
 10
5.489510430252772
 20
-4.780477960496669
 30
0.0
  0
VERTEX
  5
DB
330
D7
100
AcDbEntity
  8
Layer 1
 62
     1
420
 16711680
370
    35
100
AcDbVertex
100
AcDb2dVertex
 10
5.704511006695914
 20
-4.780477960496669
 30
0.0
  0
VERTEX
  5
DC
330
D7
100
AcDbEntity
  8
Layer 1
 62
     1
420
 16711680
370
    35
100
AcDbVertex
100
AcDb2dVertex
 10
5.704511006695914
 20
-5.255478130038783
 30
0.0
  0
SEQEND
  5
DD
330
D7
100
AcDbEntity
  8
Layer 1
 62
     1
420
 16711680
370
    35
  0
ENDSEC
  0
SECTION
  2
OBJECTS
  0
DICTIONARY
  5
C
330
0
100
AcDbDictionary
281
     1
  3
ACAD_GROUP
350
D
  3
ACAD_LAYOUT
350
1A
  3
ACAD_MATERIAL
350
3B
  3
ACAD_MLEADERSTYLE
350
DF
  3
ACAD_MLINESTYLE
350
17
  3
ACAD_PLOTSETTINGS
350
19
  3
ACAD_PLOTSTYLENAME
350
E
  3
ACAD_TABLESTYLE
350
DE
  3
ACAD_VISUALSTYLE
350
2A
  0
SUN
  5
3F
330
29
100
AcDbSun
 90
        1
290
     0
 63
     7
421
 16777215
 40
1.0
291
     1
 91
  2455826
 92
 54000000
292
     0
 70
     2
 71
   256
280
     1
  0
DICTIONARY
  5
D
102
{ACAD_REACTORS
330
C
102
}
330
C
100
AcDbDictionary
281
     1
  0
DICTIONARY
  5
1A
102
{ACAD_REACTORS
330
C
102
}
330
C
100
AcDbDictionary
281
     1
  3
Layout1
350
1E
  3
Layout2
350
26
  3
Model
350
22
  0
DICTIONARY
  5
3B
102
{ACAD_REACTORS
330
C
102
}
330
C
100
AcDbDictionary
281
     1
  3
ByBlock
350
3D
  3
ByLayer
350
3C
  3
Global
350
3E
  0
DICTIONARY
  5
DF
102
{ACAD_REACTORS
330
C
102
}
330
C
100
AcDbDictionary
281
     1
  0
DICTIONARY
  5
17
102
{ACAD_REACTORS
330
C
102
}
330
C
100
AcDbDictionary
281
     1
  3
Standard
350
18
  0
DICTIONARY
  5
19
102
{ACAD_REACTORS
330
C
102
}
330
C
100
AcDbDictionary
281
     1
  0
ACDBDICTIONARYWDFLT
  5
E
102
{ACAD_REACTORS
330
C
102
}
330
C
100
AcDbDictionary
281
     1
  3
Normal
350
F
100
AcDbDictionaryWithDefault
340
F
  0
DICTIONARY
  5
DE
102
{ACAD_REACTORS
330
C
102
}
330
C
100
AcDbDictionary
281
     1
  0
DICTIONARY
  5
2A
102
{ACAD_REACTORS
330
C
102
}
330
C
100
AcDbDictionary
281
     1
  3
2dWireframe
350
2F
  3
3D Hidden
350
31
  3
3dWireframe
350
30
  3
Basic
350
32
  3
Brighten
350
36
  3
ColorChange
350
3A
  3
Conceptual
350
34
  3
Dim
350
35
  3
Facepattern
350
39
  3
Flat
350
2B
  3
FlatWithEdges
350
2C
  3
Gouraud
350
2D
  3
GouraudWithEdges
350
2E
  3
Linepattern
350
38
  3
Realistic
350
33
  3
Thicken
350
37
  0
LAYOUT
  5
1E
102
{ACAD_REACTORS
330
1A
102
}
330
1A
100
AcDbPlotSettings
  1

  2
none_device
  4

  6

 40
0.0
 41
0.0
 42
0.0
 43
0.0
 44
0.0
 45
0.0
 46
0.0
 47
0.0
 48
0.0
 49
0.0
140
0.0
141
0.0
142
1.0
143
1.0
 70
   688
 72
     0
 73
     0
 74
     5
  7

 75
    16
 76
     0
 77
     2
 78
   300
147
1.0
148
0.0
149
0.0
100
AcDbLayout
  1
Layout1
 70
     1
 71
     1
 10
0.0
 20
0.0
 11
12.0
 21
9.0
 12
0.0
 22
0.0
 32
0.0
 14
1.000000000000000E+20
 24
1.000000000000000E+20
 34
1.000000000000000E+20
 15
-1.000000000000000E+20
 25
-1.000000000000000E+20
 35
-1.000000000000000E+20
146
0.0
 13
0.0
 23
0.0
 33
0.0
 16
1.0
 26
0.0
 36
0.0
 17
0.0
 27
1.0
 37
0.0
 76
     0
330
1B
  0
LAYOUT
  5
26
102
{ACAD_REACTORS
330
1A
102
}
330
1A
100
AcDbPlotSettings
  1

  2
none_device
  4

  6

 40
0.0
 41
0.0
 42
0.0
 43
0.0
 44
0.0
 45
0.0
 46
0.0
 47
0.0
 48
0.0
 49
0.0
140
0.0
141
0.0
142
1.0
143
1.0
 70
   688
 72
     0
 73
     0
 74
     5
  7

 75
    16
 76
     0
 77
     2
 78
   300
147
1.0
148
0.0
149
0.0
100
AcDbLayout
  1
Layout2
 70
     1
 71
     2
 10
0.0
 20
0.0
 11
0.0
 21
0.0
 12
0.0
 22
0.0
 32
0.0
 14
0.0
 24
0.0
 34
0.0
 15
0.0
 25
0.0
 35
0.0
146
0.0
 13
0.0
 23
0.0
 33
0.0
 16
1.0
 26
0.0
 36
0.0
 17
0.0
 27
1.0
 37
0.0
 76
     0
330
23
  0
LAYOUT
  5
22
102
{ACAD_REACTORS
330
1A
102
}
330
1A
100
AcDbPlotSettings
  1

  2
none_device
  4

  6

 40
0.0
 41
0.0
 42
0.0
 43
0.0
 44
0.0
 45
0.0
 46
0.0
 47
0.0
 48
0.0
 49
0.0
140
0.0
141
0.0
142
1.0
143
1.0
 70
  1712
 72
     0
 73
     0
 74
     0
  7

 75
     0
 76
     0
 77
     2
 78
   300
147
1.0
148
0.0
149
0.0
100
AcDbLayout
  1
Model
 70
     1
 71
     0
 10
0.0
 20
0.0
 11
12.0
 21
9.0
 12
0.0
 22
0.0
 32
0.0
 14
1.000000000000000E+20
 24
1.000000000000000E+20
 34
1.000000000000000E+20
 15
-1.000000000000000E+20
 25
-1.000000000000000E+20
 35
-1.000000000000000E+20
146
0.0
 13
0.0
 23
0.0
 33
0.0
 16
1.0
 26
0.0
 36
0.0
 17
0.0
 27
1.0
 37
0.0
 76
     0
330
1F
331
29
  0
MATERIAL
  5
3D
102
{ACAD_REACTORS
330
3B
102
}
330
3B
100
AcDbMaterial
  1
ByBlock
 72
     1
 94
      127
  0
MATERIAL
  5
3C
102
{ACAD_REACTORS
330
3B
102
}
330
3B
100
AcDbMaterial
  1
ByLayer
 72
     1
 94
      127
  0
MATERIAL
  5
3E
102
{ACAD_REACTORS
330
3B
102
}
330
3B
100
AcDbMaterial
  1
Global
 72
     1
 94
      127
  0
MLINESTYLE
  5
18
102
{ACAD_REACTORS
330
17
102
}
330
17
100
AcDbMlineStyle
  2
Standard
 70
     0
  3

 62
   256
 51
90.0
 52
90.0
 71
     2
 49
0.5
 62
   256
  6
BYLAYER
 49
-0.5
 62
   256
  6
BYLAYER
  0
ACDBPLACEHOLDER
  5
F
102
{ACAD_REACTORS
330
E
102
}
330
E
  0
VISUALSTYLE
  5
2F
102
{ACAD_REACTORS
330
2A
102
}
330
2A
100
AcDbVisualStyle
  2
2dWireframe
 70
     4
177
     2
291
     0
 71
     0
176
     1
 72
     2
176
     1
 73
     0
176
     1
 90
        0
176
     1
 40
-0.6
176
     1
 41
-30.0
176
     1
 62
     5
 63
     7
421
 16777215
176
     1
 74
     1
176
     1
 91
        4
176
     1
 64
     7
176
     1
 65
   257
176
     1
 75
     1
176
     1
175
     1
176
     1
 42
1.0
176
     1
 92
        0
176
     1
 66
   257
176
     1
 43
1.0
176
     1
 76
     1
176
     1
 77
     6
176
     1
 78
     2
176
     1
 67
     7
176
     1
 79
     5
176
     1
170
     0
176
     1
171
     0
176
     1
290
     0
176
     1
 93
        1
176
     1
 44
0.0
176
     1
173
     0
176
     1
  0
VISUALSTYLE
  5
31
102
{ACAD_REACTORS
330
2A
102
}
330
2A
100
AcDbVisualStyle
  2
3D Hidden
 70
     6
177
     2
291
     0
 71
     1
176
     1
 72
     2
176
     1
 73
     2
176
     1
 90
        0
176
     1
 40
-0.6
176
     1
 41
-30.0
176
     1
 62
     5
 63
     7
421
 16777215
176
     1
 74
     2
176
     1
 91
        2
176
     1
 64
     7
176
     1
 65
   257
176
     1
 75
     2
176
     1
175
     1
176
     1
 42
40.0
176
     1
 92
        0
176
     1
 66
   257
176
     1
 43
1.0
176
     1
 76
     1
176
     1
 77
     6
176
     1
 78
     2
176
     1
 67
     7
176
     1
 79
     3
176
     1
170
     0
176
     1
171
     0
176
     1
290
     0
176
     1
 93
        1
176
     1
 44
0.0
176
     1
173
     0
176
     1
  0
VISUALSTYLE
  5
30
102
{ACAD_REACTORS
330
2A
102
}
330
2A
100
AcDbVisualStyle
  2
3dWireframe
 70
     5
177
     2
291
     0
 71
     0
176
     1
 72
     2
176
     1
 73
     0
176
     1
 90
        0
176
     1
 40
-0.6
176
     1
 41
-30.0
176
     1
 62
     5
 63
     7
421
 16777215
176
     1
 74
     1
176
     1
 91
        4
176
     1
 64
     7
176
     1
 65
   257
176
     1
 75
     1
176
     1
175
     1
176
     1
 42
1.0
176
     1
 92
        0
176
     1
 66
   257
176
     1
 43
1.0
176
     1
 76
     1
176
     1
 77
     6
176
     1
 78
     2
176
     1
 67
     7
176
     1
 79
     5
176
     1
170
     0
176
     1
171
     0
176
     1
290
     0
176
     1
 93
        1
176
     1
 44
0.0
176
     1
173
     0
176
     1
  0
VISUALSTYLE
  5
32
102
{ACAD_REACTORS
330
2A
102
}
330
2A
100
AcDbVisualStyle
  2
Basic
 70
     7
177
     2
291
     1
 71
     1
176
     1
 72
     0
176
     1
 73
     1
176
     1
 90
        0
176
     1
 40
-0.6
176
     1
 41
-30.0
176
     1
 62
     5
 63
     7
421
 16777215
176
     1
 74
     0
176
     1
 91
        4
176
     1
 64
     7
176
     1
 65
   257
176
     1
 75
     1
176
     1
175
     1
176
     1
 42
1.0
176
     1
 92
        8
176
     1
 66
     7
176
     1
 43
1.0
176
     1
 76
     1
176
     1
 77
     6
176
     1
 78
     2
176
     1
 67
     7
176
     1
 79
     5
176
     1
170
     0
176
     1
171
     0
176
     1
290
     0
176
     1
 93
        1
176
     1
 44
0.0
176
     1
173
     0
176
     1
  0
VISUALSTYLE
  5
36
102
{ACAD_REACTORS
330
2A
102
}
330
2A
100
AcDbVisualStyle
  2
Brighten
 70
    12
177
     2
291
     1
 71
     2
176
     1
 72
     2
176
     1
 73
     0
176
     1
 90
        0
176
     1
 40
-0.6
176
     1
 41
-30.0
176
     1
 62
     5
 63
     7
421
 16777215
176
     1
 74
     1
176
     1
 91
        4
176
     1
 64
     7
176
     1
 65
   257
176
     1
 75
     1
176
     1
175
     1
176
     1
 42
1.0
176
     1
 92
        8
176
     1
 66
     7
176
     1
 43
1.0
176
     1
 76
     1
176
     1
 77
     6
176
     1
 78
     2
176
     1
 67
     7
176
     1
 79
     5
176
     1
170
     0
176
     1
171
     0
176
     1
290
     0
176
     1
 93
        1
176
     1
 44
50.0
176
     1
173
     0
176
     1
  0
VISUALSTYLE
  5
3A
102
{ACAD_REACTORS
330
2A
102
}
330
2A
100
AcDbVisualStyle
  2
ColorChange
 70
    16
177
     2
291
     1
 71
     2
176
     1
 72
     2
176
     1
 73
     3
176
     1
 90
        0
176
     1
 40
-0.6
176
     1
 41
-30.0
176
     1
 62
     5
 63
     8
421
  8421504
176
     1
 74
     1
176
     1
 91
        4
176
     1
 64
     7
176
     1
 65
   257
176
     1
 75
     1
176
     1
175
     1
176
     1
 42
1.0
176
     1
 92
        8
176
     1
 66
     8
424
  8421504
176
     1
 43
1.0
176
     1
 76
     1
176
     1
 77
     6
176
     1
 78
     2
176
     1
 67
     7
176
     1
 79
     5
176
     1
170
     0
176
     1
171
     0
176
     1
290
     0
176
     1
 93
        1
176
     1
 44
0.0
176
     1
173
     0
176
     1
  0
VISUALSTYLE
  5
34
102
{ACAD_REACTORS
330
2A
102
}
330
2A
100
AcDbVisualStyle
  2
Conceptual
 70
     9
177
     2
291
     0
 71
     3
176
     1
 72
     2
176
     1
 73
     0
176
     1
 90
        0
176
     1
 40
-0.6
176
     1
 41
-30.0
176
     1
 62
     5
 63
     7
421
 16777215
176
     1
 74
     2
176
     1
 91
        2
176
     1
 64
     7
176
     1
 65
   257
176
     1
 75
     1
176
     1
175
     1
176
     1
 42
40.0
176
     1
 92
        8
176
     1
 66
     7
176
     1
 43
1.0
176
     1
 76
     1
176
     1
 77
     6
176
     1
 78
     2
176
     1
 67
     7
176
     1
 79
     3
176
     1
170
     0
176
     1
171
     0
176
     1
290
     0
176
     1
 93
        1
176
     1
 44
0.0
176
     1
173
     0
176
     1
  0
VISUALSTYLE
  5
35
102
{ACAD_REACTORS
330
2A
102
}
330
2A
100
AcDbVisualStyle
  2
Dim
 70
    11
177
     2
291
     1
 71
     2
176
     1
 72
     2
176
     1
 73
     0
176
     1
 90
        0
176
     1
 40
-0.6
176
     1
 41
-30.0
176
     1
 62
     5
 63
     7
421
 16777215
176
     1
 74
     1
176
     1
 91
        4
176
     1
 64
     7
176
     1
 65
   257
176
     1
 75
     1
176
     1
175
     1
176
     1
 42
1.0
176
     1
 92
        8
176
     1
 66
     7
176
     1
 43
1.0
176
     1
 76
     1
176
     1
 77
     6
176
     1
 78
     2
176
     1
 67
     7
176
     1
 79
     5
176
     1
170
     0
176
     1
171
     0
176
     1
290
     0
176
     1
 93
        1
176
     1
 44
-50.0
176
     1
173
     0
176
     1
  0
VISUALSTYLE
  5
39
102
{ACAD_REACTORS
330
2A
102
}
330
2A
100
AcDbVisualStyle
  2
Facepattern
 70
    15
177
     2
291
     1
 71
     2
176
     1
 72
     2
176
     1
 73
     0
176
     1
 90
        0
176
     1
 40
-0.6
176
     1
 41
-30.0
176
     1
 62
     5
 63
     7
421
 16777215
176
     1
 74
     1
176
     1
 91
        4
176
     1
 64
     7
176
     1
 65
   257
176
     1
 75
     1
176
     1
175
     1
176
     1
 42
1.0
176
     1
 92
        8
176
     1
 66
     7
176
     1
 43
1.0
176
     1
 76
     1
176
     1
 77
     6
176
     1
 78
     2
176
     1
 67
     7
176
     1
 79
     5
176
     1
170
     0
176
     1
171
     0
176
     1
290
     0
176
     1
 93
        1
176
     1
 44
0.0
176
     1
173
     0
176
     1
  0
VISUALSTYLE
  5
2B
102
{ACAD_REACTORS
330
2A
102
}
330
2A
100
AcDbVisualStyle
  2
Flat
 70
     0
177
     2
291
     1
 71
     2
176
     1
 72
     1
176
     1
 73
     1
176
     1
 90
        2
176
     1
 40
-0.6
176
     1
 41
30.0
176
     1
 62
     5
 63
     7
421
 16777215
176
     1
 74
     0
176
     1
 91
        4
176
     1
 64
     7
176
     1
 65
   257
176
     1
 75
     1
176
     1
175
     1
176
     1
 42
1.0
176
     1
 92
        8
176
     1
 66
     7
176
     1
 43
1.0
176
     1
 76
     1
176
     1
 77
     6
176
     1
 78
     2
176
     1
 67
     7
176
     1
 79
     5
176
     1
170
     0
176
     1
171
     0
176
     1
290
     0
176
     1
 93
       13
176
     1
 44
0.0
176
     1
173
     0
176
     1
  0
VISUALSTYLE
  5
2C
102
{ACAD_REACTORS
330
2A
102
}
330
2A
100
AcDbVisualStyle
  2
FlatWithEdges
 70
     1
177
     2
291
     1
 71
     2
176
     1
 72
     1
176
     1
 73
     1
176
     1
 90
        2
176
     1
 40
-0.6
176
     1
 41
30.0
176
     1
 62
     5
 63
     7
421
 16777215
176
     1
 74
     1
176
     1
 91
        4
176
     1
 64
     7
176
     1
 65
   257
176
     1
 75
     1
176
     1
175
     1
176
     1
 42
1.0
176
     1
 92
        0
176
     1
 66
   257
176
     1
 43
1.0
176
     1
 76
     1
176
     1
 77
     6
176
     1
 78
     2
176
     1
 67
     7
176
     1
 79
     5
176
     1
170
     0
176
     1
171
     0
176
     1
290
     0
176
     1
 93
       13
176
     1
 44
0.0
176
     1
173
     0
176
     1
  0
VISUALSTYLE
  5
2D
102
{ACAD_REACTORS
330
2A
102
}
330
2A
100
AcDbVisualStyle
  2
Gouraud
 70
     2
177
     2
291
     1
 71
     2
176
     1
 72
     2
176
     1
 73
     1
176
     1
 90
        2
176
     1
 40
-0.6
176
     1
 41
30.0
176
     1
 62
     5
 63
     7
421
 16777215
176
     1
 74
     0
176
     1
 91
        4
176
     1
 64
     7
176
     1
 65
   257
176
     1
 75
     1
176
     1
175
     1
176
     1
 42
1.0
176
     1
 92
        0
176
     1
 66
     7
176
     1
 43
1.0
176
     1
 76
     1
176
     1
 77
     6
176
     1
 78
     2
176
     1
 67
     7
176
     1
 79
     5
176
     1
170
     0
176
     1
171
     0
176
     1
290
     0
176
     1
 93
       13
176
     1
 44
0.0
176
     1
173
     0
176
     1
  0
VISUALSTYLE
  5
2E
102
{ACAD_REACTORS
330
2A
102
}
330
2A
100
AcDbVisualStyle
  2
GouraudWithEdges
 70
     3
177
     2
291
     1
 71
     2
176
     1
 72
     2
176
     1
 73
     1
176
     1
 90
        2
176
     1
 40
-0.6
176
     1
 41
30.0
176
     1
 62
     5
 63
     7
421
 16777215
176
     1
 74
     1
176
     1
 91
        4
176
     1
 64
     7
176
     1
 65
   257
176
     1
 75
     1
176
     1
175
     1
176
     1
 42
1.0
176
     1
 92
        0
176
     1
 66
   257
176
     1
 43
1.0
176
     1
 76
     1
176
     1
 77
     6
176
     1
 78
     2
176
     1
 67
     7
176
     1
 79
     5
176
     1
170
     0
176
     1
171
     0
176
     1
290
     0
176
     1
 93
       13
176
     1
 44
0.0
176
     1
173
     0
176
     1
  0
VISUALSTYLE
  5
38
102
{ACAD_REACTORS
330
2A
102
}
330
2A
100
AcDbVisualStyle
  2
Linepattern
 70
    14
177
     2
291
     1
 71
     2
176
     1
 72
     2
176
     1
 73
     0
176
     1
 90
        0
176
     1
 40
-0.6
176
     1
 41
-30.0
176
     1
 62
     5
 63
     7
421
 16777215
176
     1
 74
     1
176
     1
 91
        4
176
     1
 64
     7
176
     1
 65
   257
176
     1
 75
     7
176
     1
175
     7
176
     1
 42
1.0
176
     1
 92
        8
176
     1
 66
     7
176
     1
 43
1.0
176
     1
 76
     1
176
     1
 77
     6
176
     1
 78
     2
176
     1
 67
     7
176
     1
 79
     5
176
     1
170
     0
176
     1
171
     0
176
     1
290
     0
176
     1
 93
        1
176
     1
 44
0.0
176
     1
173
     0
176
     1
  0
VISUALSTYLE
  5
33
102
{ACAD_REACTORS
330
2A
102
}
330
2A
100
AcDbVisualStyle
  2
Realistic
 70
     8
177
     2
291
     0
 71
     2
176
     1
 72
     2
176
     1
 73
     0
176
     1
 90
        0
176
     1
 40
-0.6
176
     1
 41
-30.0
176
     1
 62
     5
 63
     7
421
 16777215
176
     1
 74
     1
176
     1
 91
        0
176
     1
 64
     7
176
     1
 65
   257
176
     1
 75
     1
176
     1
175
     1
176
     1
 42
1.0
176
     1
 92
        8
176
     1
 66
     8
424
  7895160
176
     1
 43
1.0
176
     1
 76
     1
176
     1
 77
     6
176
     1
 78
     2
176
     1
 67
     7
176
     1
 79
     5
176
     1
170
     0
176
     1
171
     0
176
     1
290
     0
176
     1
 93
       13
176
     1
 44
0.0
176
     1
173
     0
176
     1
  0
VISUALSTYLE
  5
37
102
{ACAD_REACTORS
330
2A
102
}
330
2A
100
AcDbVisualStyle
  2
Thicken
 70
    13
177
     2
291
     1
 71
     2
176
     1
 72
     2
176
     1
 73
     0
176
     1
 90
        0
176
     1
 40
-0.6
176
     1
 41
-30.0
176
     1
 62
     5
 63
     7
421
 16777215
176
     1
 74
     1
176
     1
 91
        4
176
     1
 64
     7
176
     1
 65
   257
176
     1
 75
     1
176
     1
175
     1
176
     1
 42
1.0
176
     1
 92
       12
176
     1
 66
     7
176
     1
 43
1.0
176
     1
 76
     1
176
     1
 77
     6
176
     1
 78
     2
176
     1
 67
     7
176
     1
 79
     5
176
     1
170
     0
176
     1
171
     0
176
     1
290
     0
176
     1
 93
        1
176
     1
 44
0.0
176
     1
173
     0
176
     1
  0
ENDSEC
  0
EOF
