  0
SECTION
  2
HEADER
  9
$ACADVER
  1
AC1009
  9
$DWGCODEPAGE
  3
ansi_1252
  9
$INSBASE
 10
0.0
 20
0.0
 30
0.0
  9
$EXTMIN
 10
8.427868150684914
 20
0.0
 30
0.0
  9
$EXTMAX
 10
633.2913470559325
 20
584.0
 30
0.0
  9
$LIMMIN
 10
0.0
 20
0.0
  9
$LIMMAX
 10
12.0
 20
9.0
  9
$ORTHOMODE
 70
     0
  9
$REGENMODE
 70
     1
  9
$FILLMODE
 70
     1
  9
$QTEXTMODE
 70
     0
  9
$MIRRTEXT
 70
     1
  9
$DRAGMODE
 70
     2
  9
$LTSCALE
 40
1.0
  9
$OSMODE
 70
    37
  9
$ATTMODE
 70
     1
  9
$TEXTSIZE
 40
0.2
  9
$TRACEWID
 40
0.05
  9
$TEXTSTYLE
  7
STANDARD
  9
$CLAYER
  8
0
  9
$CELTYPE
  6
BYLAYER
  9
$CECOLOR
 62
   256
  9
$DIMSCALE
 40
1.0
  9
$DIMASZ
 40
0.18
  9
$DIMEXO
 40
0.0625
  9
$DIMDLI
 40
0.38
  9
$DIMRND
 40
0.0
  9
$DIMDLE
 40
0.0
  9
$DIMEXE
 40
0.18
  9
$DIMTP
 40
0.0
  9
$DIMTM
 40
0.0
  9
$DIMTXT
 40
0.18
  9
$DIMCEN
 40
0.09
  9
$DIMTSZ
 40
0.0
  9
$DIMTOL
 70
     0
  9
$DIMLIM
 70
     0
  9
$DIMTIH
 70
     1
  9
$DIMTOH
 70
     1
  9
$DIMSE1
 70
     0
  9
$DIMSE2
 70
     0
  9
$DIMTAD
 70
     0
  9
$DIMZIN
 70
     0
  9
$DIMBLK
  1

  9
$DIMASO
 70
     1
  9
$DIMSHO
 70
     1
  9
$DIMPOST
  1

  9
$DIMAPOST
  1

  9
$DIMALT
 70
     0
  9
$DIMALTD
 70
     2
  9
$DIMALTF
 40
25.4
  9
$DIMLFAC
 40
1.0
  9
$DIMTOFL
 70
     0
  9
$DIMTVP
 40
0.0
  9
$DIMTIX
 70
     0
  9
$DIMSOXD
 70
     0
  9
$DIMSAH
 70
     0
  9
$DIMBLK1
  1

  9
$DIMBLK2
  1

  9
$DIMSTYLE
  2
STANDARD
  9
$DIMCLRD
 70
     0
  9
$DIMCLRE
 70
     0
  9
$DIMCLRT
 70
     0
  9
$DIMTFAC
 40
1.0
  9
$DIMGAP
 40
0.09
  9
$LUNITS
 70
     2
  9
$LUPREC
 70
     4
  9
$SKETCHINC
 40
0.1
  9
$FILLETRAD
 40
0.5
  9
$AUNITS
 70
     0
  9
$AUPREC
 70
     0
  9
$MENU
  1
.
  9
$ELEVATION
 40
0.0
  9
$PELEVATION
 40
0.0
  9
$THICKNESS
 40
0.0
  9
$LIMCHECK
 70
     0
  9
$CHAMFERA
 40
0.0
  9
$CHAMFERB
 40
0.0
  9
$SKPOLY
 70
     0
  9
$TDCREATE
 40
2454910.5
  9
$TDUPDATE
 40
2459069.732765555
  9
$TDINDWG
 40
0.0000000116
  9
$TDUSRTIMER
 40
0.0000000116
  9
$USRTIMER
 70
     1
  9
$ANGBASE
 50
0.0
  9
$ANGDIR
 70
     0
  9
$PDMODE
 70
     0
  9
$PDSIZE
 40
0.0
  9
$PLINEWID
 40
0.0
  9
$COORDS
 70
     1
  9
$SPLFRAME
 70
     0
  9
$SPLINETYPE
 70
     6
  9
$SPLINESEGS
 70
     8
  9
$ATTDIA
 70
     0
  9
$ATTREQ
 70
     1
  9
$HANDLING
 70
     1
  9
$HANDSEED
  5
3D4
  9
$SURFTAB1
 70
     6
  9
$SURFTAB2
 70
     6
  9
$SURFTYPE
 70
     6
  9
$SURFU
 70
     6
  9
$SURFV
 70
     6
  9
$UCSNAME
  2

  9
$UCSORG
 10
0.0
 20
0.0
 30
0.0
  9
$UCSXDIR
 10
1.0
 20
0.0
 30
0.0
  9
$UCSYDIR
 10
0.0
 20
1.0
 30
0.0
  9
$PUCSNAME
  2

  9
$PUCSORG
 10
0.0
 20
0.0
 30
0.0
  9
$PUCSXDIR
 10
1.0
 20
0.0
 30
0.0
  9
$PUCSYDIR
 10
0.0
 20
1.0
 30
0.0
  9
$USERI1
 70
     0
  9
$USERI2
 70
     0
  9
$USERI3
 70
     0
  9
$USERI4
 70
     0
  9
$USERI5
 70
     0
  9
$USERR1
 40
0.0
  9
$USERR2
 40
0.0
  9
$USERR3
 40
0.0
  9
$USERR4
 40
0.0
  9
$USERR5
 40
0.0
  9
$WORLDVIEW
 70
     1
  9
$SHADEDGE
 70
     3
  9
$SHADEDIF
 70
    70
  9
$TILEMODE
 70
     1
  9
$MAXACTVP
 70
    64
  9
$PLIMCHECK
 70
     0
  9
$PEXTMIN
 10
1.000000000000000E+20
 20
1.000000000000000E+20
 30
1.000000000000000E+20
  9
$PEXTMAX
 10
-1.000000000000000E+20
 20
-1.000000000000000E+20
 30
-1.000000000000000E+20
  9
$PLIMMIN
 10
0.0
 20
0.0
  9
$PLIMMAX
 10
12.0
 20
9.0
  9
$UNITMODE
 70
     0
  9
$VISRETAIN
 70
     1
  9
$PLINEGEN
 70
     0
  9
$PSLTSCALE
 70
     1
  0
ENDSEC
  0
SECTION
  2
TABLES
  0
TABLE
  2
VPORT
 70
     1
  0
VPORT
  2
*ACTIVE
 70
     0
 10
0.0
 20
0.0
 11
1.0
 21
1.0
 12
10.42990654205607
 22
4.5
 13
0.0
 23
0.0
 14
0.5
 24
0.5
 15
0.5
 25
0.5
 16
0.0
 26
0.0
 36
1.0
 17
0.0
 27
0.0
 37
0.0
 40
9.0
 41
1.972972972850329
 42
50.0
 43
0.0
 44
0.0
 50
0.0
 51
0.0
 71
     0
 72
   100
 73
     1
 74
     3
 75
     0
 76
     0
 77
     0
 78
     0
  0
ENDTAB
  0
TABLE
  2
LTYPE
 70
     2
  0
LTYPE
  2
CONTINUOUS
 70
     0
  3
Solid line
 72
    65
 73
     0
 40
0.0
  0
LTYPE
  2
CONTINUOUS2
 70
     0
  3
Solid Line
 72
    65
 73
     0
 40
0.0
  0
ENDTAB
  0
TABLE
  2
LAYER
 70
     2
  0
LAYER
  2
0
 70
     0
 62
     7
  6
CONTINUOUS
  0
LAYER
  2
_ABF_CUTTING_LINES
 70
     0
 62
    54
  6
CONTINUOUS
  0
ENDTAB
  0
TABLE
  2
STYLE
 70
     1
  0
STYLE
  2
STANDARD
 70
     0
 40
0.0
 41
1.0
 50
0.0
 71
     0
 42
0.2
  3
txt
  4

  0
ENDTAB
  0
TABLE
  2
VIEW
 70
     0
  0
ENDTAB
  0
TABLE
  2
UCS
 70
     0
  0
ENDTAB
  0
TABLE
  2
APPID
 70
     1
  0
APPID
  2
ACAD
 70
     0
  0
ENDTAB
  0
TABLE
  2
DIMSTYLE
 70
     1
  0
DIMSTYLE
  2
STANDARD
 70
     0
  3

  4

  5

  6

  7

 40
1.0
 41
0.18
 42
0.0625
 43
0.38
 44
0.18
 45
0.0
 46
0.0
 47
0.0
 48
0.0
140
0.18
141
0.09
142
0.0
143
25.4
144
1.0
145
0.0
146
1.0
147
0.09
 71
     0
 72
     0
 73
     1
 74
     1
 75
     0
 76
     0
 77
     0
 78
     0
170
     0
171
     2
172
     0
173
     0
174
     0
175
     0
176
     0
177
     0
178
     0
  0
ENDTAB
  0
ENDSEC
  0
SECTION
  2
BLOCKS
  0
BLOCK
  8
0
  2
$MODEL_SPACE
 70
     0
 10
0.0
 20
0.0
 30
0.0
  3
$MODEL_SPACE
  1

  0
ENDBLK
  5
21
  8
0
  0
BLOCK
 67
     1
  8
0
  2
$PAPER_SPACE
 70
     0
 10
0.0
 20
0.0
 30
0.0
  3
$PAPER_SPACE
  1

  0
ENDBLK
  5
1D
 67
     1
  8
0
  0
ENDSEC
  0
SECTION
  2
ENTITIES
  0
POLYLINE
  5
70
  8
_ABF_CUTTING_LINES
 66
     1
 10
0.0
 20
0.0
 30
0.0
 70
     1
  0
VERTEX
  5
AA
  8
_ABF_CUTTING_LINES
 10
8.427868150684914
 20
249.0
 30
0.0
  0
VERTEX
  5
AB
  8
_ABF_CUTTING_LINES
 10
8.427868150684914
 20
2.999999999999995
 30
0.0
  0
VERTEX
  5
AC
  8
_ABF_CUTTING_LINES
 10
35.92786815068516
 20
3.00000000000004
 30
0.0
  0
VERTEX
  5
AD
  8
_ABF_CUTTING_LINES
 10
35.92786815068516
 20
0.0000000000000451
 30
0.0
  0
VERTEX
  5
AE
  8
_ABF_CUTTING_LINES
 10
58.42786815068509
 20
0.0000000000000451
 30
0.0
  0
VERTEX
  5
AF
  8
_ABF_CUTTING_LINES
 10
58.42786815068509
 20
3.00000000000004
 30
0.0
  0
VERTEX
  5
B0
  8
_ABF_CUTTING_LINES
 10
188.927868150685
 20
2.999999999999995
 30
0.0
  0
VERTEX
  5
B1
  8
_ABF_CUTTING_LINES
 10
188.927868150685
 20
0.0
 30
0.0
  0
VERTEX
  5
B2
  8
_ABF_CUTTING_LINES
 10
211.4278681506849
 20
0.0
 30
0.0
  0
VERTEX
  5
B3
  8
_ABF_CUTTING_LINES
 10
211.4278681506849
 20
2.999999999999995
 30
0.0
  0
VERTEX
  5
B4
  8
_ABF_CUTTING_LINES
 10
238.4278681506851
 20
2.999999999999995
 30
0.0
  0
VERTEX
  5
B5
  8
_ABF_CUTTING_LINES
 10
238.4278681506851
 20
249.0
 30
0.0
  0
VERTEX
  5
B6
  8
_ABF_CUTTING_LINES
 10
211.4278681506849
 20
249.0
 30
0.0
  0
VERTEX
  5
B7
  8
_ABF_CUTTING_LINES
 10
211.4278681506849
 20
252.0
 30
0.0
  0
VERTEX
  5
B8
  8
_ABF_CUTTING_LINES
 10
188.927868150685
 20
252.0
 30
0.0
  0
VERTEX
  5
B9
  8
_ABF_CUTTING_LINES
 10
188.927868150685
 20
249.0
 30
0.0
  0
VERTEX
  5
BA
  8
_ABF_CUTTING_LINES
 10
58.35145073151546
 20
249.0
 30
0.0
  0
VERTEX
  5
BB
  8
_ABF_CUTTING_LINES
 10
58.35145073151546
 20
252.0
 30
0.0
  0
VERTEX
  5
BC
  8
_ABF_CUTTING_LINES
 10
35.85145073151552
 20
252.0
 30
0.0
  0
VERTEX
  5
BD
  8
_ABF_CUTTING_LINES
 10
35.85145073151552
 20
249.0
 30
0.0
  0
SEQEND
  5
3A1
  8
_ABF_CUTTING_LINES
  0
POLYLINE
  5
71
  8
_ABF_CUTTING_LINES
 66
     1
 10
0.0
 20
0.0
 30
0.0
 70
     1
  0
VERTEX
  5
BE
  8
_ABF_CUTTING_LINES
 10
58.42786815068509
 20
169.0
 30
0.0
  0
VERTEX
  5
BF
  8
_ABF_CUTTING_LINES
 10
58.42786815068509
 20
166.0
 30
0.0
  0
VERTEX
  5
C0
  8
_ABF_CUTTING_LINES
 10
35.92786815068516
 20
166.0
 30
0.0
  0
VERTEX
  5
C1
  8
_ABF_CUTTING_LINES
 10
35.92786815068516
 20
169.0
 30
0.0
  0
SEQEND
  5
3A2
  8
_ABF_CUTTING_LINES
  0
POLYLINE
  5
72
  8
_ABF_CUTTING_LINES
 66
     1
 10
0.0
 20
0.0
 30
0.0
 70
     1
  0
VERTEX
  5
C2
  8
_ABF_CUTTING_LINES
 10
58.42786815068509
 20
86.00000000000003
 30
0.0
  0
VERTEX
  5
C3
  8
_ABF_CUTTING_LINES
 10
58.42786815068509
 20
83.00000000000003
 30
0.0
  0
VERTEX
  5
C4
  8
_ABF_CUTTING_LINES
 10
35.92786815068516
 20
83.00000000000006
 30
0.0
  0
VERTEX
  5
C5
  8
_ABF_CUTTING_LINES
 10
35.92786815068516
 20
86.00000000000004
 30
0.0
  0
SEQEND
  5
3A3
  8
_ABF_CUTTING_LINES
  0
POLYLINE
  5
73
  8
_ABF_CUTTING_LINES
 66
     1
 10
0.0
 20
0.0
 30
0.0
 70
     1
  0
VERTEX
  5
C6
  8
_ABF_CUTTING_LINES
 10
101.4278681506851
 20
36.71428571428571
 30
0.0
  0
VERTEX
  5
C7
  8
_ABF_CUTTING_LINES
 10
98.42786815068501
 20
36.71428571428571
 30
0.0
  0
VERTEX
  5
C8
  8
_ABF_CUTTING_LINES
 10
98.42786815068501
 20
72.4285714285714
 30
0.0
  0
VERTEX
  5
C9
  8
_ABF_CUTTING_LINES
 10
101.4278681506851
 20
72.4285714285714
 30
0.0
  0
SEQEND
  5
3A4
  8
_ABF_CUTTING_LINES
  0
POLYLINE
  5
74
  8
_ABF_CUTTING_LINES
 66
     1
 10
0.0
 20
0.0
 30
0.0
 70
     1
  0
VERTEX
  5
CA
  8
_ABF_CUTTING_LINES
 10
101.4278681506851
 20
143.8571428571429
 30
0.0
  0
VERTEX
  5
CB
  8
_ABF_CUTTING_LINES
 10
101.4278681506851
 20
108.1428571428571
 30
0.0
  0
VERTEX
  5
CC
  8
_ABF_CUTTING_LINES
 10
98.42786815068501
 20
108.1428571428571
 30
0.0
  0
VERTEX
  5
CD
  8
_ABF_CUTTING_LINES
 10
98.42786815068501
 20
143.8571428571429
 30
0.0
  0
SEQEND
  5
3A5
  8
_ABF_CUTTING_LINES
  0
POLYLINE
  5
75
  8
_ABF_CUTTING_LINES
 66
     1
 10
0.0
 20
0.0
 30
0.0
 70
     1
  0
VERTEX
  5
CE
  8
_ABF_CUTTING_LINES
 10
101.4278681506851
 20
215.2857142857143
 30
0.0
  0
VERTEX
  5
CF
  8
_ABF_CUTTING_LINES
 10
101.4278681506851
 20
179.5714285714286
 30
0.0
  0
VERTEX
  5
D0
  8
_ABF_CUTTING_LINES
 10
98.42786815068501
 20
179.5714285714286
 30
0.0
  0
VERTEX
  5
D1
  8
_ABF_CUTTING_LINES
 10
98.42786815068501
 20
215.2857142857143
 30
0.0
  0
SEQEND
  5
3A6
  8
_ABF_CUTTING_LINES
  0
POLYLINE
  5
76
  8
_ABF_CUTTING_LINES
 66
     1
 10
0.0
 20
0.0
 30
0.0
 70
     1
  0
VERTEX
  5
D2
  8
_ABF_CUTTING_LINES
 10
179.427868150685
 20
215.2857142857143
 30
0.0
  0
VERTEX
  5
D3
  8
_ABF_CUTTING_LINES
 10
182.427868150685
 20
215.2857142857143
 30
0.0
  0
VERTEX
  5
D4
  8
_ABF_CUTTING_LINES
 10
182.427868150685
 20
179.5714285714286
 30
0.0
  0
VERTEX
  5
D5
  8
_ABF_CUTTING_LINES
 10
179.427868150685
 20
179.5714285714286
 30
0.0
  0
SEQEND
  5
3A7
  8
_ABF_CUTTING_LINES
  0
POLYLINE
  5
77
  8
_ABF_CUTTING_LINES
 66
     1
 10
0.0
 20
0.0
 30
0.0
 70
     1
  0
VERTEX
  5
D6
  8
_ABF_CUTTING_LINES
 10
179.427868150685
 20
72.42857142857136
 30
0.0
  0
VERTEX
  5
D7
  8
_ABF_CUTTING_LINES
 10
182.427868150685
 20
72.42857142857136
 30
0.0
  0
VERTEX
  5
D8
  8
_ABF_CUTTING_LINES
 10
182.427868150685
 20
36.71428571428571
 30
0.0
  0
VERTEX
  5
D9
  8
_ABF_CUTTING_LINES
 10
179.427868150685
 20
36.71428571428571
 30
0.0
  0
SEQEND
  5
3A8
  8
_ABF_CUTTING_LINES
  0
POLYLINE
  5
78
  8
_ABF_CUTTING_LINES
 66
     1
 10
0.0
 20
0.0
 30
0.0
 70
     1
  0
VERTEX
  5
DA
  8
_ABF_CUTTING_LINES
 10
179.427868150685
 20
143.8571428571428
 30
0.0
  0
VERTEX
  5
DB
  8
_ABF_CUTTING_LINES
 10
182.427868150685
 20
143.8571428571428
 30
0.0
  0
VERTEX
  5
DC
  8
_ABF_CUTTING_LINES
 10
182.427868150685
 20
108.1428571428572
 30
0.0
  0
VERTEX
  5
DD
  8
_ABF_CUTTING_LINES
 10
179.427868150685
 20
108.1428571428572
 30
0.0
  0
SEQEND
  5
3A9
  8
_ABF_CUTTING_LINES
  0
POLYLINE
  5
79
  8
_ABF_CUTTING_LINES
 66
     1
 10
0.0
 20
0.0
 30
0.0
 70
     1
  0
VERTEX
  5
DE
  8
_ABF_CUTTING_LINES
 10
235.4278681506851
 20
36.71428571428571
 30
0.0
  0
VERTEX
  5
DF
  8
_ABF_CUTTING_LINES
 10
232.427868150685
 20
36.71428571428571
 30
0.0
  0
VERTEX
  5
E0
  8
_ABF_CUTTING_LINES
 10
232.427868150685
 20
72.42857142857136
 30
0.0
  0
VERTEX
  5
E1
  8
_ABF_CUTTING_LINES
 10
235.4278681506851
 20
72.42857142857136
 30
0.0
  0
SEQEND
  5
3AA
  8
_ABF_CUTTING_LINES
  0
POLYLINE
  5
7A
  8
_ABF_CUTTING_LINES
 66
     1
 10
0.0
 20
0.0
 30
0.0
 70
     1
  0
VERTEX
  5
E2
  8
_ABF_CUTTING_LINES
 10
232.427868150685
 20
108.1428571428572
 30
0.0
  0
VERTEX
  5
E3
  8
_ABF_CUTTING_LINES
 10
232.427868150685
 20
143.8571428571428
 30
0.0
  0
VERTEX
  5
E4
  8
_ABF_CUTTING_LINES
 10
235.4278681506851
 20
143.8571428571428
 30
0.0
  0
VERTEX
  5
E5
  8
_ABF_CUTTING_LINES
 10
235.4278681506851
 20
108.1428571428572
 30
0.0
  0
SEQEND
  5
3AB
  8
_ABF_CUTTING_LINES
  0
POLYLINE
  5
7B
  8
_ABF_CUTTING_LINES
 66
     1
 10
0.0
 20
0.0
 30
0.0
 70
     1
  0
VERTEX
  5
E6
  8
_ABF_CUTTING_LINES
 10
232.427868150685
 20
179.5714285714286
 30
0.0
  0
VERTEX
  5
E7
  8
_ABF_CUTTING_LINES
 10
232.427868150685
 20
215.2857142857142
 30
0.0
  0
VERTEX
  5
E8
  8
_ABF_CUTTING_LINES
 10
235.4278681506851
 20
215.2857142857142
 30
0.0
  0
VERTEX
  5
E9
  8
_ABF_CUTTING_LINES
 10
235.4278681506851
 20
179.5714285714286
 30
0.0
  0
SEQEND
  5
3AC
  8
_ABF_CUTTING_LINES
  0
POLYLINE
  5
7C
  8
_ABF_CUTTING_LINES
 66
     1
 10
0.0
 20
0.0
 30
0.0
 70
     1
  0
VERTEX
  5
EA
  8
_ABF_CUTTING_LINES
 10
28.35145075068488
 20
498.0
 30
0.0
  0
VERTEX
  5
EB
  8
_ABF_CUTTING_LINES
 10
28.35145075068488
 20
464.2857142857143
 30
0.0
  0
VERTEX
  5
EC
  8
_ABF_CUTTING_LINES
 10
25.35145075068484
 20
464.2857142857143
 30
0.0
  0
VERTEX
  5
ED
  8
_ABF_CUTTING_LINES
 10
25.35145075068484
 20
428.5714285714286
 30
0.0
  0
VERTEX
  5
EE
  8
_ABF_CUTTING_LINES
 10
28.35145075068488
 20
428.5714285714286
 30
0.0
  0
VERTEX
  5
EF
  8
_ABF_CUTTING_LINES
 10
28.35145075068488
 20
392.8571428571428
 30
0.0
  0
VERTEX
  5
F0
  8
_ABF_CUTTING_LINES
 10
25.35145075068484
 20
392.8571428571428
 30
0.0
  0
VERTEX
  5
F1
  8
_ABF_CUTTING_LINES
 10
25.35145075068484
 20
357.1428571428571
 30
0.0
  0
VERTEX
  5
F2
  8
_ABF_CUTTING_LINES
 10
28.35145075068488
 20
357.1428571428571
 30
0.0
  0
VERTEX
  5
F3
  8
_ABF_CUTTING_LINES
 10
28.35145075068488
 20
321.4285714285714
 30
0.0
  0
VERTEX
  5
F4
  8
_ABF_CUTTING_LINES
 10
25.35145075068484
 20
321.4285714285714
 30
0.0
  0
VERTEX
  5
F5
  8
_ABF_CUTTING_LINES
 10
25.35145075068484
 20
285.7142857142857
 30
0.0
  0
VERTEX
  5
F6
  8
_ABF_CUTTING_LINES
 10
28.35145075068488
 20
285.7142857142857
 30
0.0
  0
VERTEX
  5
F7
  8
_ABF_CUTTING_LINES
 10
28.35145075068488
 20
252.0
 30
0.0
  0
VERTEX
  5
F8
  8
_ABF_CUTTING_LINES
 10
58.35145075068491
 20
252.0
 30
0.0
  0
VERTEX
  5
F9
  8
_ABF_CUTTING_LINES
 10
58.35145075068491
 20
248.9999999999999
 30
0.0
  0
VERTEX
  5
FA
  8
_ABF_CUTTING_LINES
 10
88.35145075068476
 20
248.9999999999999
 30
0.0
  0
VERTEX
  5
FB
  8
_ABF_CUTTING_LINES
 10
88.35145075068476
 20
252.0
 30
0.0
  0
VERTEX
  5
FC
  8
_ABF_CUTTING_LINES
 10
118.3514507506848
 20
252.0
 30
0.0
  0
VERTEX
  5
FD
  8
_ABF_CUTTING_LINES
 10
118.3514507506848
 20
248.9999999999999
 30
0.0
  0
VERTEX
  5
FE
  8
_ABF_CUTTING_LINES
 10
148.3514507506848
 20
248.9999999999999
 30
0.0
  0
VERTEX
  5
FF
  8
_ABF_CUTTING_LINES
 10
148.3514507506848
 20
252.0
 30
0.0
  0
VERTEX
  5
100
  8
_ABF_CUTTING_LINES
 10
171.3514507506848
 20
252.0
 30
0.0
  0
VERTEX
  5
101
  8
_ABF_CUTTING_LINES
 10
171.3514507506848
 20
498.0
 30
0.0
  0
VERTEX
  5
102
  8
_ABF_CUTTING_LINES
 10
148.3514507506848
 20
498.0
 30
0.0
  0
VERTEX
  5
103
  8
_ABF_CUTTING_LINES
 10
148.3514507506848
 20
500.9999999999999
 30
0.0
  0
VERTEX
  5
104
  8
_ABF_CUTTING_LINES
 10
118.351450750685
 20
500.9999999999999
 30
0.0
  0
VERTEX
  5
105
  8
_ABF_CUTTING_LINES
 10
118.351450750685
 20
498.0
 30
0.0
  0
VERTEX
  5
106
  8
_ABF_CUTTING_LINES
 10
88.35145075068495
 20
498.0
 30
0.0
  0
VERTEX
  5
107
  8
_ABF_CUTTING_LINES
 10
88.35145075068495
 20
500.9999999999999
 30
0.0
  0
VERTEX
  5
108
  8
_ABF_CUTTING_LINES
 10
58.35145075068491
 20
500.9999999999999
 30
0.0
  0
VERTEX
  5
109
  8
_ABF_CUTTING_LINES
 10
58.35145075068491
 20
498.0
 30
0.0
  0
SEQEND
  5
3AD
  8
_ABF_CUTTING_LINES
  0
POLYLINE
  5
7D
  8
_ABF_CUTTING_LINES
 66
     1
 10
0.0
 20
0.0
 30
0.0
 70
     1
  0
VERTEX
  5
10A
  8
_ABF_CUTTING_LINES
 10
174.351450750685
 20
501.0000000000001
 30
0.0
  0
VERTEX
  5
10B
  8
_ABF_CUTTING_LINES
 10
174.351450750685
 20
467.2857142857143
 30
0.0
  0
VERTEX
  5
10C
  8
_ABF_CUTTING_LINES
 10
171.3514507506849
 20
467.2857142857143
 30
0.0
  0
VERTEX
  5
10D
  8
_ABF_CUTTING_LINES
 10
171.3514507506849
 20
431.5714285714286
 30
0.0
  0
VERTEX
  5
10E
  8
_ABF_CUTTING_LINES
 10
174.351450750685
 20
431.5714285714286
 30
0.0
  0
VERTEX
  5
10F
  8
_ABF_CUTTING_LINES
 10
174.351450750685
 20
395.8571428571429
 30
0.0
  0
VERTEX
  5
110
  8
_ABF_CUTTING_LINES
 10
171.3514507506849
 20
395.8571428571429
 30
0.0
  0
VERTEX
  5
111
  8
_ABF_CUTTING_LINES
 10
171.3514507506849
 20
360.1428571428572
 30
0.0
  0
VERTEX
  5
112
  8
_ABF_CUTTING_LINES
 10
174.351450750685
 20
360.1428571428572
 30
0.0
  0
VERTEX
  5
113
  8
_ABF_CUTTING_LINES
 10
174.351450750685
 20
324.4285714285714
 30
0.0
  0
VERTEX
  5
114
  8
_ABF_CUTTING_LINES
 10
171.3514507506849
 20
324.4285714285714
 30
0.0
  0
VERTEX
  5
115
  8
_ABF_CUTTING_LINES
 10
171.3514507506849
 20
288.7142857142857
 30
0.0
  0
VERTEX
  5
116
  8
_ABF_CUTTING_LINES
 10
174.351450750685
 20
288.7142857142857
 30
0.0
  0
VERTEX
  5
117
  8
_ABF_CUTTING_LINES
 10
174.351450750685
 20
255.0
 30
0.0
  0
VERTEX
  5
118
  8
_ABF_CUTTING_LINES
 10
204.3514507506849
 20
255.0
 30
0.0
  0
VERTEX
  5
119
  8
_ABF_CUTTING_LINES
 10
204.3514507506849
 20
252.0
 30
0.0
  0
VERTEX
  5
11A
  8
_ABF_CUTTING_LINES
 10
234.3514507506849
 20
252.0
 30
0.0
  0
VERTEX
  5
11B
  8
_ABF_CUTTING_LINES
 10
234.3514507506849
 20
255.0
 30
0.0
  0
VERTEX
  5
11C
  8
_ABF_CUTTING_LINES
 10
264.351450750685
 20
255.0
 30
0.0
  0
VERTEX
  5
11D
  8
_ABF_CUTTING_LINES
 10
264.351450750685
 20
252.0
 30
0.0
  0
VERTEX
  5
11E
  8
_ABF_CUTTING_LINES
 10
294.3514507506849
 20
252.0
 30
0.0
  0
VERTEX
  5
11F
  8
_ABF_CUTTING_LINES
 10
294.3514507506849
 20
255.0
 30
0.0
  0
VERTEX
  5
120
  8
_ABF_CUTTING_LINES
 10
317.3514507506849
 20
255.0
 30
0.0
  0
VERTEX
  5
121
  8
_ABF_CUTTING_LINES
 10
317.351450750685
 20
501.0000000000001
 30
0.0
  0
VERTEX
  5
122
  8
_ABF_CUTTING_LINES
 10
294.3514507506849
 20
501.0000000000001
 30
0.0
  0
VERTEX
  5
123
  8
_ABF_CUTTING_LINES
 10
294.3514507506849
 20
504.0
 30
0.0
  0
VERTEX
  5
124
  8
_ABF_CUTTING_LINES
 10
264.351450750685
 20
504.0
 30
0.0
  0
VERTEX
  5
125
  8
_ABF_CUTTING_LINES
 10
264.351450750685
 20
501.0000000000001
 30
0.0
  0
VERTEX
  5
126
  8
_ABF_CUTTING_LINES
 10
234.3514507506849
 20
501.0000000000001
 30
0.0
  0
VERTEX
  5
127
  8
_ABF_CUTTING_LINES
 10
234.3514507506849
 20
504.0
 30
0.0
  0
VERTEX
  5
128
  8
_ABF_CUTTING_LINES
 10
204.351450750685
 20
504.0
 30
0.0
  0
VERTEX
  5
129
  8
_ABF_CUTTING_LINES
 10
204.351450750685
 20
501.0000000000001
 30
0.0
  0
SEQEND
  5
3AE
  8
_ABF_CUTTING_LINES
  0
POLYLINE
  5
7E
  8
_ABF_CUTTING_LINES
 66
     1
 10
0.0
 20
0.0
 30
0.0
 70
     1
  0
VERTEX
  5
12A
  8
_ABF_CUTTING_LINES
 10
241.4278681506848
 20
249.0
 30
0.0
  0
VERTEX
  5
12B
  8
_ABF_CUTTING_LINES
 10
241.4278681506848
 20
201.4
 30
0.0
  0
VERTEX
  5
12C
  8
_ABF_CUTTING_LINES
 10
238.4278681506848
 20
201.4
 30
0.0
  0
VERTEX
  5
12D
  8
_ABF_CUTTING_LINES
 10
238.4278681506848
 20
153.8
 30
0.0
  0
VERTEX
  5
12E
  8
_ABF_CUTTING_LINES
 10
241.4278681506848
 20
153.8
 30
0.0
  0
VERTEX
  5
12F
  8
_ABF_CUTTING_LINES
 10
241.4278681506848
 20
106.2
 30
0.0
  0
VERTEX
  5
130
  8
_ABF_CUTTING_LINES
 10
238.4278681506848
 20
106.2
 30
0.0
  0
VERTEX
  5
131
  8
_ABF_CUTTING_LINES
 10
238.4278681506848
 20
58.59999999999997
 30
0.0
  0
VERTEX
  5
132
  8
_ABF_CUTTING_LINES
 10
241.4278681506848
 20
58.59999999999996
 30
0.0
  0
VERTEX
  5
133
  8
_ABF_CUTTING_LINES
 10
241.4278681506848
 20
10.99999999999997
 30
0.0
  0
VERTEX
  5
134
  8
_ABF_CUTTING_LINES
 10
287.4278681506848
 20
10.99999999999997
 30
0.0
  0
VERTEX
  5
135
  8
_ABF_CUTTING_LINES
 10
287.4278681506848
 20
7.999999999999972
 30
0.0
  0
VERTEX
  5
136
  8
_ABF_CUTTING_LINES
 10
333.4278681506848
 20
7.999999999999968
 30
0.0
  0
VERTEX
  5
137
  8
_ABF_CUTTING_LINES
 10
333.4278681506848
 20
10.99999999999997
 30
0.0
  0
VERTEX
  5
138
  8
_ABF_CUTTING_LINES
 10
379.4278681506848
 20
10.99999999999997
 30
0.0
  0
VERTEX
  5
139
  8
_ABF_CUTTING_LINES
 10
379.4278681506848
 20
249.0
 30
0.0
  0
VERTEX
  5
13A
  8
_ABF_CUTTING_LINES
 10
333.4278681506848
 20
249.0
 30
0.0
  0
VERTEX
  5
13B
  8
_ABF_CUTTING_LINES
 10
333.4278681506848
 20
252.0
 30
0.0
  0
VERTEX
  5
13C
  8
_ABF_CUTTING_LINES
 10
287.4278681506848
 20
252.0
 30
0.0
  0
VERTEX
  5
13D
  8
_ABF_CUTTING_LINES
 10
287.4278681506848
 20
249.0
 30
0.0
  0
SEQEND
  5
3AF
  8
_ABF_CUTTING_LINES
  0
POLYLINE
  5
7F
  8
_ABF_CUTTING_LINES
 66
     1
 10
0.0
 20
0.0
 30
0.0
 70
     1
  0
VERTEX
  5
13E
  8
_ABF_CUTTING_LINES
 10
399.3514507506849
 20
580.0
 30
0.0
  0
VERTEX
  5
13F
  8
_ABF_CUTTING_LINES
 10
399.3321896573737
 20
580.3920685613182
 30
0.0
  0
VERTEX
  5
140
  8
_ABF_CUTTING_LINES
 10
399.2745918722978
 20
580.7803612880645
 30
0.0
  0
VERTEX
  5
141
  8
_ABF_CUTTING_LINES
 10
399.1792120936137
 20
581.1611387090179
 30
0.0
  0
VERTEX
  5
142
  8
_ABF_CUTTING_LINES
 10
399.04696888073
 20
581.5307337294603
 30
0.0
  0
VERTEX
  5
143
  8
_ABF_CUTTING_LINES
 10
398.8791358080783
 20
581.885586947304
 30
0.0
  0
VERTEX
  5
144
  8
_ABF_CUTTING_LINES
 10
398.677329199895
 20
582.2222809320783
 30
0.0
  0
VERTEX
  5
145
  8
_ABF_CUTTING_LINES
 10
398.4434925641358
 20
582.5375731366546
 30
0.0
  0
VERTEX
  5
146
  8
_ABF_CUTTING_LINES
 10
398.1798778754311
 20
582.8284271247462
 30
0.0
  0
VERTEX
  5
147
  8
_ABF_CUTTING_LINES
 10
397.8890238873394
 20
583.0920418134509
 30
0.0
  0
VERTEX
  5
148
  8
_ABF_CUTTING_LINES
 10
397.5737316827633
 20
583.3258784492102
 30
0.0
  0
VERTEX
  5
149
  8
_ABF_CUTTING_LINES
 10
397.2370376979889
 20
583.5276850573935
 30
0.0
  0
VERTEX
  5
14A
  8
_ABF_CUTTING_LINES
 10
396.8821844801453
 20
583.6955181300451
 30
0.0
  0
VERTEX
  5
14B
  8
_ABF_CUTTING_LINES
 10
396.5125894597027
 20
583.8277613429289
 30
0.0
  0
VERTEX
  5
14C
  8
_ABF_CUTTING_LINES
 10
396.1318120387493
 20
583.923141121613
 30
0.0
  0
VERTEX
  5
14D
  8
_ABF_CUTTING_LINES
 10
395.7435193120031
 20
583.9807389066889
 30
0.0
  0
VERTEX
  5
14E
  8
_ABF_CUTTING_LINES
 10
395.3514507506849
 20
584.0
 30
0.0
  0
VERTEX
  5
14F
  8
_ABF_CUTTING_LINES
 10
253.3514507506848
 20
584.0
 30
0.0
  0
VERTEX
  5
150
  8
_ABF_CUTTING_LINES
 10
252.9593821893666
 20
583.9807389066889
 30
0.0
  0
VERTEX
  5
151
  8
_ABF_CUTTING_LINES
 10
252.5710894626204
 20
583.923141121613
 30
0.0
  0
VERTEX
  5
152
  8
_ABF_CUTTING_LINES
 10
252.190312041667
 20
583.8277613429289
 30
0.0
  0
VERTEX
  5
153
  8
_ABF_CUTTING_LINES
 10
251.8207170212245
 20
583.6955181300452
 30
0.0
  0
VERTEX
  5
154
  8
_ABF_CUTTING_LINES
 10
251.4658638033809
 20
583.5276850573935
 30
0.0
  0
VERTEX
  5
155
  8
_ABF_CUTTING_LINES
 10
251.1291698186064
 20
583.3258784492102
 30
0.0
  0
VERTEX
  5
156
  8
_ABF_CUTTING_LINES
 10
250.8138776140303
 20
583.0920418134509
 30
0.0
  0
VERTEX
  5
157
  8
_ABF_CUTTING_LINES
 10
250.5230236259387
 20
582.8284271247462
 30
0.0
  0
VERTEX
  5
158
  8
_ABF_CUTTING_LINES
 10
250.2594089372339
 20
582.5375731366546
 30
0.0
  0
VERTEX
  5
159
  8
_ABF_CUTTING_LINES
 10
250.0255723014747
 20
582.2222809320784
 30
0.0
  0
VERTEX
  5
15A
  8
_ABF_CUTTING_LINES
 10
249.8237656932914
 20
581.885586947304
 30
0.0
  0
VERTEX
  5
15B
  8
_ABF_CUTTING_LINES
 10
249.6559326206397
 20
581.5307337294603
 30
0.0
  0
VERTEX
  5
15C
  8
_ABF_CUTTING_LINES
 10
249.523689407756
 20
581.1611387090179
 30
0.0
  0
VERTEX
  5
15D
  8
_ABF_CUTTING_LINES
 10
249.428309629072
 20
580.7803612880645
 30
0.0
  0
VERTEX
  5
15E
  8
_ABF_CUTTING_LINES
 10
249.370711843996
 20
580.3920685613182
 30
0.0
  0
VERTEX
  5
15F
  8
_ABF_CUTTING_LINES
 10
249.3514507506849
 20
580.0
 30
0.0
  0
VERTEX
  5
160
  8
_ABF_CUTTING_LINES
 10
249.3514507506849
 20
519.0
 30
0.0
  0
VERTEX
  5
161
  8
_ABF_CUTTING_LINES
 10
249.4236798506019
 20
517.5297428950565
 30
0.0
  0
VERTEX
  5
162
  8
_ABF_CUTTING_LINES
 10
249.6396715446364
 20
516.073645169758
 30
0.0
  0
VERTEX
  5
163
  8
_ABF_CUTTING_LINES
 10
249.9973457147017
 20
514.6457298411831
 30
0.0
  0
VERTEX
  5
164
  8
_ABF_CUTTING_LINES
 10
250.4932577630155
 20
513.2597485145236
 30
0.0
  0
VERTEX
  5
165
  8
_ABF_CUTTING_LINES
 10
251.1226317854595
 20
511.9290489476101
 30
0.0
  0
VERTEX
  5
166
  8
_ABF_CUTTING_LINES
 10
251.8794065661467
 20
510.666446504706
 30
0.0
  0
VERTEX
  5
167
  8
_ABF_CUTTING_LINES
 10
252.7562939502438
 20
509.4841007375453
 30
0.0
  0
VERTEX
  5
168
  8
_ABF_CUTTING_LINES
 10
253.7448490328866
 20
508.3933982822018
 30
0.0
  0
VERTEX
  5
169
  8
_ABF_CUTTING_LINES
 10
254.8355514882302
 20
507.404843199559
 30
0.0
  0
VERTEX
  5
16A
  8
_ABF_CUTTING_LINES
 10
256.0178972553908
 20
506.5279558154618
 30
0.0
  0
VERTEX
  5
16B
  8
_ABF_CUTTING_LINES
 10
257.2804996982949
 20
505.7711810347747
 30
0.0
  0
VERTEX
  5
16C
  8
_ABF_CUTTING_LINES
 10
258.6111992652085
 20
505.1418070123307
 30
0.0
  0
VERTEX
  5
16D
  8
_ABF_CUTTING_LINES
 10
259.997180591868
 20
504.6458949640169
 30
0.0
  0
VERTEX
  5
16E
  8
_ABF_CUTTING_LINES
 10
261.425095920443
 20
504.2882207939516
 30
0.0
  0
VERTEX
  5
16F
  8
_ABF_CUTTING_LINES
 10
262.8811936457415
 20
504.072229099917
 30
0.0
  0
VERTEX
  5
170
  8
_ABF_CUTTING_LINES
 10
264.3514507506849
 20
504.0
 30
0.0
  0
VERTEX
  5
171
  8
_ABF_CUTTING_LINES
 10
317.3514507506848
 20
504.0
 30
0.0
  0
VERTEX
  5
172
  8
_ABF_CUTTING_LINES
 10
317.3514507506848
 20
360.0
 30
0.0
  0
VERTEX
  5
173
  8
_ABF_CUTTING_LINES
 10
317.3803423906517
 20
359.4118971580227
 30
0.0
  0
VERTEX
  5
174
  8
_ABF_CUTTING_LINES
 10
317.4667390682654
 20
358.8294580679033
 30
0.0
  0
VERTEX
  5
175
  8
_ABF_CUTTING_LINES
 10
317.6098087362916
 20
358.2582919364733
 30
0.0
  0
VERTEX
  5
176
  8
_ABF_CUTTING_LINES
 10
317.8081735556171
 20
357.7038994058095
 30
0.0
  0
VERTEX
  5
177
  8
_ABF_CUTTING_LINES
 10
318.0599231645947
 20
357.171619579044
 30
0.0
  0
VERTEX
  5
178
  8
_ABF_CUTTING_LINES
 10
318.3626330768695
 20
356.6665786018824
 30
0.0
  0
VERTEX
  5
179
  8
_ABF_CUTTING_LINES
 10
318.7133880305084
 20
356.1936402950182
 30
0.0
  0
VERTEX
  5
17A
  8
_ABF_CUTTING_LINES
 10
319.1088100635656
 20
355.7573593128807
 30
0.0
  0
VERTEX
  5
17B
  8
_ABF_CUTTING_LINES
 10
319.545091045703
 20
355.3619372798236
 30
0.0
  0
VERTEX
  5
17C
  8
_ABF_CUTTING_LINES
 10
320.0180293525673
 20
355.0111823261848
 30
0.0
  0
VERTEX
  5
17D
  8
_ABF_CUTTING_LINES
 10
320.5230703297289
 20
354.7084724139099
 30
0.0
  0
VERTEX
  5
17E
  8
_ABF_CUTTING_LINES
 10
321.0553501564943
 20
354.4567228049323
 30
0.0
  0
VERTEX
  5
17F
  8
_ABF_CUTTING_LINES
 10
321.6097426871581
 20
354.2583579856068
 30
0.0
  0
VERTEX
  5
180
  8
_ABF_CUTTING_LINES
 10
322.180908818588
 20
354.1152883175806
 30
0.0
  0
VERTEX
  5
181
  8
_ABF_CUTTING_LINES
 10
322.7633479087075
 20
354.0288916399668
 30
0.0
  0
VERTEX
  5
182
  8
_ABF_CUTTING_LINES
 10
323.3514507506848
 20
354.0
 30
0.0
  0
VERTEX
  5
183
  8
_ABF_CUTTING_LINES
 10
393.3514507506849
 20
354.0
 30
0.0
  0
VERTEX
  5
184
  8
_ABF_CUTTING_LINES
 10
393.9395535926622
 20
354.0288916399668
 30
0.0
  0
VERTEX
  5
185
  8
_ABF_CUTTING_LINES
 10
394.5219926827817
 20
354.1152883175806
 30
0.0
  0
VERTEX
  5
186
  8
_ABF_CUTTING_LINES
 10
395.0931588142116
 20
354.2583579856068
 30
0.0
  0
VERTEX
  5
187
  8
_ABF_CUTTING_LINES
 10
395.6475513448754
 20
354.4567228049323
 30
0.0
  0
VERTEX
  5
188
  8
_ABF_CUTTING_LINES
 10
396.1798311716408
 20
354.7084724139099
 30
0.0
  0
VERTEX
  5
189
  8
_ABF_CUTTING_LINES
 10
396.6848721488024
 20
355.0111823261848
 30
0.0
  0
VERTEX
  5
18A
  8
_ABF_CUTTING_LINES
 10
397.1578104556667
 20
355.3619372798236
 30
0.0
  0
VERTEX
  5
18B
  8
_ABF_CUTTING_LINES
 10
397.5940914378041
 20
355.7573593128807
 30
0.0
  0
VERTEX
  5
18C
  8
_ABF_CUTTING_LINES
 10
397.9895134708613
 20
356.1936402950182
 30
0.0
  0
VERTEX
  5
18D
  8
_ABF_CUTTING_LINES
 10
398.3402684245001
 20
356.6665786018824
 30
0.0
  0
VERTEX
  5
18E
  8
_ABF_CUTTING_LINES
 10
398.6429783367749
 20
357.171619579044
 30
0.0
  0
VERTEX
  5
18F
  8
_ABF_CUTTING_LINES
 10
398.8947279457526
 20
357.7038994058095
 30
0.0
  0
VERTEX
  5
190
  8
_ABF_CUTTING_LINES
 10
399.0930927650781
 20
358.2582919364733
 30
0.0
  0
VERTEX
  5
191
  8
_ABF_CUTTING_LINES
 10
399.2361624331043
 20
358.8294580679033
 30
0.0
  0
VERTEX
  5
192
  8
_ABF_CUTTING_LINES
 10
399.322559110718
 20
359.4118971580227
 30
0.0
  0
VERTEX
  5
193
  8
_ABF_CUTTING_LINES
 10
399.3514507506849
 20
360.0
 30
0.0
  0
SEQEND
  5
3B0
  8
_ABF_CUTTING_LINES
  0
POLYLINE
  5
80
  8
_ABF_CUTTING_LINES
 66
     1
 10
0.0
 20
0.0
 30
0.0
 70
     1
  0
VERTEX
  5
194
  8
_ABF_CUTTING_LINES
 10
321.3514507506848
 20
404.0
 30
0.0
  0
VERTEX
  5
195
  8
_ABF_CUTTING_LINES
 10
324.3514507506849
 20
404.0
 30
0.0
  0
VERTEX
  5
196
  8
_ABF_CUTTING_LINES
 10
324.3514507506848
 20
381.5000000000001
 30
0.0
  0
VERTEX
  5
197
  8
_ABF_CUTTING_LINES
 10
321.3514507506848
 20
381.5000000000001
 30
0.0
  0
SEQEND
  5
3B1
  8
_ABF_CUTTING_LINES
  0
POLYLINE
  5
81
  8
_ABF_CUTTING_LINES
 66
     1
 10
0.0
 20
0.0
 30
0.0
 70
     1
  0
VERTEX
  5
198
  8
_ABF_CUTTING_LINES
 10
392.3514507506848
 20
381.4235825808305
 30
0.0
  0
VERTEX
  5
199
  8
_ABF_CUTTING_LINES
 10
392.3514507506848
 20
403.9235825808305
 30
0.0
  0
VERTEX
  5
19A
  8
_ABF_CUTTING_LINES
 10
395.3514507506849
 20
403.9235825808304
 30
0.0
  0
VERTEX
  5
19B
  8
_ABF_CUTTING_LINES
 10
395.3514507506849
 20
381.4235825808304
 30
0.0
  0
SEQEND
  5
3B2
  8
_ABF_CUTTING_LINES
  0
POLYLINE
  5
82
  8
_ABF_CUTTING_LINES
 66
     1
 10
0.0
 20
0.0
 30
0.0
 70
     1
  0
VERTEX
  5
19C
  8
_ABF_CUTTING_LINES
 10
395.3514507506849
 20
534.5
 30
0.0
  0
VERTEX
  5
19D
  8
_ABF_CUTTING_LINES
 10
392.3514507506849
 20
534.5
 30
0.0
  0
VERTEX
  5
19E
  8
_ABF_CUTTING_LINES
 10
392.3514507506849
 20
557.0
 30
0.0
  0
VERTEX
  5
19F
  8
_ABF_CUTTING_LINES
 10
395.3514507506849
 20
557.0
 30
0.0
  0
SEQEND
  5
3B3
  8
_ABF_CUTTING_LINES
  0
POLYLINE
  5
83
  8
_ABF_CUTTING_LINES
 66
     1
 10
0.0
 20
0.0
 30
0.0
 70
     1
  0
VERTEX
  5
1A0
  8
_ABF_CUTTING_LINES
 10
346.0181174173515
 20
444.0
 30
0.0
  0
VERTEX
  5
1A1
  8
_ABF_CUTTING_LINES
 10
346.0181174173515
 20
447.0000000000001
 30
0.0
  0
VERTEX
  5
1A2
  8
_ABF_CUTTING_LINES
 10
370.6847840840182
 20
447.0000000000001
 30
0.0
  0
VERTEX
  5
1A3
  8
_ABF_CUTTING_LINES
 10
370.6847840840182
 20
444.0
 30
0.0
  0
SEQEND
  5
3B4
  8
_ABF_CUTTING_LINES
  0
POLYLINE
  5
84
  8
_ABF_CUTTING_LINES
 66
     1
 10
0.0
 20
0.0
 30
0.0
 70
     1
  0
VERTEX
  5
1A4
  8
_ABF_CUTTING_LINES
 10
302.3514507506848
 20
525.0
 30
0.0
  0
VERTEX
  5
1A5
  8
_ABF_CUTTING_LINES
 10
272.3514507506849
 20
525.0
 30
0.0
  0
VERTEX
  5
1A6
  8
_ABF_CUTTING_LINES
 10
272.3514507506849
 20
528.0
 30
0.0
  0
VERTEX
  5
1A7
  8
_ABF_CUTTING_LINES
 10
302.3514507506848
 20
528.0
 30
0.0
  0
SEQEND
  5
3B5
  8
_ABF_CUTTING_LINES
  0
POLYLINE
  5
85
  8
_ABF_CUTTING_LINES
 66
     1
 10
0.0
 20
0.0
 30
0.0
 70
     1
  0
VERTEX
  5
1A8
  8
_ABF_CUTTING_LINES
 10
332.3514507506849
 20
528.0
 30
0.0
  0
VERTEX
  5
1A9
  8
_ABF_CUTTING_LINES
 10
362.3514507506849
 20
528.0
 30
0.0
  0
VERTEX
  5
1AA
  8
_ABF_CUTTING_LINES
 10
362.3514507506849
 20
525.0
 30
0.0
  0
VERTEX
  5
1AB
  8
_ABF_CUTTING_LINES
 10
332.3514507506849
 20
525.0
 30
0.0
  0
SEQEND
  5
3B6
  8
_ABF_CUTTING_LINES
  0
POLYLINE
  5
86
  8
_ABF_CUTTING_LINES
 66
     1
 10
0.0
 20
0.0
 30
0.0
 70
     1
  0
VERTEX
  5
1AC
  8
_ABF_CUTTING_LINES
 10
272.3514507506849
 20
578.0
 30
0.0
  0
VERTEX
  5
1AD
  8
_ABF_CUTTING_LINES
 10
272.3514507506849
 20
581.0
 30
0.0
  0
VERTEX
  5
1AE
  8
_ABF_CUTTING_LINES
 10
302.3514507506849
 20
581.0
 30
0.0
  0
VERTEX
  5
1AF
  8
_ABF_CUTTING_LINES
 10
302.3514507506849
 20
578.0
 30
0.0
  0
SEQEND
  5
3B7
  8
_ABF_CUTTING_LINES
  0
POLYLINE
  5
87
  8
_ABF_CUTTING_LINES
 66
     1
 10
0.0
 20
0.0
 30
0.0
 70
     1
  0
VERTEX
  5
1B0
  8
_ABF_CUTTING_LINES
 10
332.3514507506849
 20
578.0
 30
0.0
  0
VERTEX
  5
1B1
  8
_ABF_CUTTING_LINES
 10
332.3514507506849
 20
581.0
 30
0.0
  0
VERTEX
  5
1B2
  8
_ABF_CUTTING_LINES
 10
362.3514507506849
 20
581.0
 30
0.0
  0
VERTEX
  5
1B3
  8
_ABF_CUTTING_LINES
 10
362.3514507506849
 20
577.9999999999999
 30
0.0
  0
SEQEND
  5
3B8
  8
_ABF_CUTTING_LINES
  0
POLYLINE
  5
88
  8
_ABF_CUTTING_LINES
 66
     1
 10
0.0
 20
0.0
 30
0.0
 70
     1
  0
VERTEX
  5
1B4
  8
_ABF_CUTTING_LINES
 10
456.2364524293669
 20
254.930668381544
 30
0.0
  0
VERTEX
  5
1B5
  8
_ABF_CUTTING_LINES
 10
434.5697857627002
 20
254.9306683815441
 30
0.0
  0
VERTEX
  5
1B6
  8
_ABF_CUTTING_LINES
 10
434.5697857627002
 20
257.9306683815441
 30
0.0
  0
VERTEX
  5
1B7
  8
_ABF_CUTTING_LINES
 10
409.9031190960335
 20
257.930668381544
 30
0.0
  0
VERTEX
  5
1B8
  8
_ABF_CUTTING_LINES
 10
409.9031190960335
 20
254.930668381544
 30
0.0
  0
VERTEX
  5
1B9
  8
_ABF_CUTTING_LINES
 10
388.2364524293669
 20
254.930668381544
 30
0.0
  0
VERTEX
  5
1BA
  8
_ABF_CUTTING_LINES
 10
388.2364524293669
 20
221.2163826672584
 30
0.0
  0
VERTEX
  5
1BB
  8
_ABF_CUTTING_LINES
 10
385.236452429367
 20
221.2163826672584
 30
0.0
  0
VERTEX
  5
1BC
  8
_ABF_CUTTING_LINES
 10
385.236452429367
 20
185.5020969529726
 30
0.0
  0
VERTEX
  5
1BD
  8
_ABF_CUTTING_LINES
 10
388.2364524293669
 20
185.5020969529726
 30
0.0
  0
VERTEX
  5
1BE
  8
_ABF_CUTTING_LINES
 10
388.2364524293669
 20
149.7878112386869
 30
0.0
  0
VERTEX
  5
1BF
  8
_ABF_CUTTING_LINES
 10
385.236452429367
 20
149.7878112386869
 30
0.0
  0
VERTEX
  5
1C0
  8
_ABF_CUTTING_LINES
 10
385.236452429367
 20
114.0735255244012
 30
0.0
  0
VERTEX
  5
1C1
  8
_ABF_CUTTING_LINES
 10
388.2364524293669
 20
114.0735255244012
 30
0.0
  0
VERTEX
  5
1C2
  8
_ABF_CUTTING_LINES
 10
388.2364524293669
 20
78.35923981011547
 30
0.0
  0
VERTEX
  5
1C3
  8
_ABF_CUTTING_LINES
 10
385.2364524293668
 20
78.35923981011547
 30
0.0
  0
VERTEX
  5
1C4
  8
_ABF_CUTTING_LINES
 10
385.2364524293668
 20
42.64495409582976
 30
0.0
  0
VERTEX
  5
1C5
  8
_ABF_CUTTING_LINES
 10
388.2364524293669
 20
42.64495409582976
 30
0.0
  0
VERTEX
  5
1C6
  8
_ABF_CUTTING_LINES
 10
388.2364524293669
 20
8.930668381544027
 30
0.0
  0
VERTEX
  5
1C7
  8
_ABF_CUTTING_LINES
 10
409.9031190960335
 20
8.930668381544027
 30
0.0
  0
VERTEX
  5
1C8
  8
_ABF_CUTTING_LINES
 10
409.9031190960335
 20
5.930668381544026
 30
0.0
  0
VERTEX
  5
1C9
  8
_ABF_CUTTING_LINES
 10
434.5697857627002
 20
5.930668381544026
 30
0.0
  0
VERTEX
  5
1CA
  8
_ABF_CUTTING_LINES
 10
434.5697857627002
 20
8.930668381544027
 30
0.0
  0
VERTEX
  5
1CB
  8
_ABF_CUTTING_LINES
 10
456.2364524293669
 20
8.930668381544027
 30
0.0
  0
VERTEX
  5
1CC
  8
_ABF_CUTTING_LINES
 10
456.2364524293669
 20
114.0735255244012
 30
0.0
  0
VERTEX
  5
1CD
  8
_ABF_CUTTING_LINES
 10
459.2364524293669
 20
114.0735255244012
 30
0.0
  0
VERTEX
  5
1CE
  8
_ABF_CUTTING_LINES
 10
459.2364524293669
 20
149.7878112386869
 30
0.0
  0
VERTEX
  5
1CF
  8
_ABF_CUTTING_LINES
 10
456.2364524293669
 20
149.7878112386869
 30
0.0
  0
SEQEND
  5
3B9
  8
_ABF_CUTTING_LINES
  0
POLYLINE
  5
89
  8
_ABF_CUTTING_LINES
 66
     1
 10
0.0
 20
0.0
 30
0.0
 70
     1
  0
VERTEX
  5
1D0
  8
_ABF_CUTTING_LINES
 10
98.42786815068484
 20
504.0000000000001
 30
0.0
  0
VERTEX
  5
1D1
  8
_ABF_CUTTING_LINES
 10
98.42786815068484
 20
572.0
 30
0.0
  0
VERTEX
  5
1D2
  8
_ABF_CUTTING_LINES
 10
75.9278681506849
 20
572.0
 30
0.0
  0
VERTEX
  5
1D3
  8
_ABF_CUTTING_LINES
 10
58.42786815068492
 20
572.0
 30
0.0
  0
VERTEX
  5
1D4
  8
_ABF_CUTTING_LINES
 10
58.42786815068492
 20
575.0000000000001
 30
0.0
  0
VERTEX
  5
1D5
  8
_ABF_CUTTING_LINES
 10
35.92786815068479
 20
575.0000000000001
 30
0.0
  0
VERTEX
  5
1D6
  8
_ABF_CUTTING_LINES
 10
35.92786815068479
 20
572.0
 30
0.0
  0
VERTEX
  5
1D7
  8
_ABF_CUTTING_LINES
 10
8.427868150684914
 20
572.0
 30
0.0
  0
VERTEX
  5
1D8
  8
_ABF_CUTTING_LINES
 10
8.427868150684914
 20
504.0000000000001
 30
0.0
  0
VERTEX
  5
1D9
  8
_ABF_CUTTING_LINES
 10
35.92786815068479
 20
504.0000000000001
 30
0.0
  0
VERTEX
  5
1DA
  8
_ABF_CUTTING_LINES
 10
35.92786815068479
 20
501.0000000000001
 30
0.0
  0
VERTEX
  5
1DB
  8
_ABF_CUTTING_LINES
 10
58.42786815068473
 20
501.0000000000001
 30
0.0
  0
VERTEX
  5
1DC
  8
_ABF_CUTTING_LINES
 10
58.42786815068473
 20
504.0000000000001
 30
0.0
  0
VERTEX
  5
1DD
  8
_ABF_CUTTING_LINES
 10
75.92786815068473
 20
504.0000000000001
 30
0.0
  0
SEQEND
  5
3BA
  8
_ABF_CUTTING_LINES
  0
POLYLINE
  5
8A
  8
_ABF_CUTTING_LINES
 66
     1
 10
0.0
 20
0.0
 30
0.0
 70
     1
  0
VERTEX
  5
1DE
  8
_ABF_CUTTING_LINES
 10
98.4278681506852
 20
509.0
 30
0.0
  0
VERTEX
  5
1DF
  8
_ABF_CUTTING_LINES
 10
98.45194451732422
 20
508.5099142983522
 30
0.0
  0
VERTEX
  5
1E0
  8
_ABF_CUTTING_LINES
 10
98.52394174866897
 20
508.0245483899194
 30
0.0
  0
VERTEX
  5
1E1
  8
_ABF_CUTTING_LINES
 10
98.64316647202398
 20
507.5485766137277
 30
0.0
  0
VERTEX
  5
1E2
  8
_ABF_CUTTING_LINES
 10
98.80847048812869
 20
507.0865828381746
 30
0.0
  0
VERTEX
  5
1E3
  8
_ABF_CUTTING_LINES
 10
99.01826182894342
 20
506.6430163158701
 30
0.0
  0
VERTEX
  5
1E4
  8
_ABF_CUTTING_LINES
 10
99.2705200891724
 20
506.222148834902
 30
0.0
  0
VERTEX
  5
1E5
  8
_ABF_CUTTING_LINES
 10
99.56281588387145
 20
505.8280335791819
 30
0.0
  0
VERTEX
  5
1E6
  8
_ABF_CUTTING_LINES
 10
99.89233424475236
 20
505.4644660940673
 30
0.0
  0
VERTEX
  5
1E7
  8
_ABF_CUTTING_LINES
 10
100.255901729867
 20
505.1349477331863
 30
0.0
  0
VERTEX
  5
1E8
  8
_ABF_CUTTING_LINES
 10
100.6500169855872
 20
504.8426519384873
 30
0.0
  0
VERTEX
  5
1E9
  8
_ABF_CUTTING_LINES
 10
101.0708844665551
 20
504.5903936782583
 30
0.0
  0
VERTEX
  5
1EA
  8
_ABF_CUTTING_LINES
 10
101.5144509888596
 20
504.3806023374436
 30
0.0
  0
VERTEX
  5
1EB
  8
_ABF_CUTTING_LINES
 10
101.9764447644128
 20
504.215298321339
 30
0.0
  0
VERTEX
  5
1EC
  8
_ABF_CUTTING_LINES
 10
102.4524165406044
 20
504.0960735979839
 30
0.0
  0
VERTEX
  5
1ED
  8
_ABF_CUTTING_LINES
 10
102.9377824490373
 20
504.0240763666391
 30
0.0
  0
VERTEX
  5
1EE
  8
_ABF_CUTTING_LINES
 10
103.4278681506851
 20
504.0000000000001
 30
0.0
  0
VERTEX
  5
1EF
  8
_ABF_CUTTING_LINES
 10
125.9278681506851
 20
504.0000000000001
 30
0.0
  0
VERTEX
  5
1F0
  8
_ABF_CUTTING_LINES
 10
125.9278681506851
 20
501.0000000000001
 30
0.0
  0
VERTEX
  5
1F1
  8
_ABF_CUTTING_LINES
 10
148.427868150685
 20
501.0000000000001
 30
0.0
  0
VERTEX
  5
1F2
  8
_ABF_CUTTING_LINES
 10
148.427868150685
 20
504.0000000000001
 30
0.0
  0
VERTEX
  5
1F3
  8
_ABF_CUTTING_LINES
 10
165.927868150685
 20
504.0000000000001
 30
0.0
  0
VERTEX
  5
1F4
  8
_ABF_CUTTING_LINES
 10
188.4278681506851
 20
504.0000000000001
 30
0.0
  0
VERTEX
  5
1F5
  8
_ABF_CUTTING_LINES
 10
188.4278681506851
 20
572.0
 30
0.0
  0
VERTEX
  5
1F6
  8
_ABF_CUTTING_LINES
 10
165.9278681506852
 20
572.0
 30
0.0
  0
VERTEX
  5
1F7
  8
_ABF_CUTTING_LINES
 10
148.4278681506852
 20
572.0
 30
0.0
  0
VERTEX
  5
1F8
  8
_ABF_CUTTING_LINES
 10
148.4278681506852
 20
575.0000000000001
 30
0.0
  0
VERTEX
  5
1F9
  8
_ABF_CUTTING_LINES
 10
125.9278681506851
 20
575.0000000000001
 30
0.0
  0
VERTEX
  5
1FA
  8
_ABF_CUTTING_LINES
 10
125.9278681506851
 20
572.0
 30
0.0
  0
VERTEX
  5
1FB
  8
_ABF_CUTTING_LINES
 10
98.4278681506852
 20
572.0
 30
0.0
  0
SEQEND
  5
3BB
  8
_ABF_CUTTING_LINES
  0
POLYLINE
  5
8B
  8
_ABF_CUTTING_LINES
 66
     1
 10
0.0
 20
0.0
 30
0.0
 70
     1
  0
VERTEX
  5
1FC
  8
_ABF_CUTTING_LINES
 10
355.8963050254691
 20
268.4307569654139
 30
0.0
  0
VERTEX
  5
1FD
  8
_ABF_CUTTING_LINES
 10
355.8963050254691
 20
265.4307569654139
 30
0.0
  0
VERTEX
  5
1FE
  8
_ABF_CUTTING_LINES
 10
385.8963050254691
 20
265.4307569654139
 30
0.0
  0
VERTEX
  5
1FF
  8
_ABF_CUTTING_LINES
 10
385.8963050254691
 20
268.4307569654139
 30
0.0
  0
SEQEND
  5
3BC
  8
_ABF_CUTTING_LINES
  0
POLYLINE
  5
8C
  8
_ABF_CUTTING_LINES
 66
     1
 10
0.0
 20
0.0
 30
0.0
 70
     1
  0
VERTEX
  5
200
  8
_ABF_CUTTING_LINES
 10
415.8963050254691
 20
268.4307569654139
 30
0.0
  0
VERTEX
  5
201
  8
_ABF_CUTTING_LINES
 10
415.8963050254691
 20
265.4307569654139
 30
0.0
  0
VERTEX
  5
202
  8
_ABF_CUTTING_LINES
 10
445.8963050254691
 20
265.4307569654139
 30
0.0
  0
VERTEX
  5
203
  8
_ABF_CUTTING_LINES
 10
445.8963050254691
 20
268.4307569654139
 30
0.0
  0
SEQEND
  5
3BD
  8
_ABF_CUTTING_LINES
  0
POLYLINE
  5
8D
  8
_ABF_CUTTING_LINES
 66
     1
 10
0.0
 20
0.0
 30
0.0
 70
     1
  0
VERTEX
  5
204
  8
_ABF_CUTTING_LINES
 10
478.8963050254691
 20
311.9307569654139
 30
0.0
  0
VERTEX
  5
205
  8
_ABF_CUTTING_LINES
 10
475.8963050254691
 20
311.9307569654139
 30
0.0
  0
VERTEX
  5
206
  8
_ABF_CUTTING_LINES
 10
475.8963050254691
 20
289.4307569654139
 30
0.0
  0
VERTEX
  5
207
  8
_ABF_CUTTING_LINES
 10
478.8963050254691
 20
289.4307569654139
 30
0.0
  0
SEQEND
  5
3BE
  8
_ABF_CUTTING_LINES
  0
POLYLINE
  5
8E
  8
_ABF_CUTTING_LINES
 66
     1
 10
0.0
 20
0.0
 30
0.0
 70
     1
  0
VERTEX
  5
208
  8
_ABF_CUTTING_LINES
 10
415.8963050254691
 20
318.4307569654139
 30
0.0
  0
VERTEX
  5
209
  8
_ABF_CUTTING_LINES
 10
445.8963050254691
 20
318.4307569654139
 30
0.0
  0
VERTEX
  5
20A
  8
_ABF_CUTTING_LINES
 10
445.8963050254691
 20
321.4307569654139
 30
0.0
  0
VERTEX
  5
20B
  8
_ABF_CUTTING_LINES
 10
415.8963050254691
 20
321.4307569654139
 30
0.0
  0
SEQEND
  5
3BF
  8
_ABF_CUTTING_LINES
  0
POLYLINE
  5
8F
  8
_ABF_CUTTING_LINES
 66
     1
 10
0.0
 20
0.0
 30
0.0
 70
     1
  0
VERTEX
  5
20C
  8
_ABF_CUTTING_LINES
 10
385.8963050254691
 20
321.4307569654139
 30
0.0
  0
VERTEX
  5
20D
  8
_ABF_CUTTING_LINES
 10
355.8963050254691
 20
321.4307569654139
 30
0.0
  0
VERTEX
  5
20E
  8
_ABF_CUTTING_LINES
 10
355.8963050254691
 20
318.4307569654139
 30
0.0
  0
VERTEX
  5
20F
  8
_ABF_CUTTING_LINES
 10
385.8963050254691
 20
318.4307569654139
 30
0.0
  0
SEQEND
  5
3C0
  8
_ABF_CUTTING_LINES
  0
POLYLINE
  5
90
  8
_ABF_CUTTING_LINES
 66
     1
 10
0.0
 20
0.0
 30
0.0
 70
     1
  0
VERTEX
  5
210
  8
_ABF_CUTTING_LINES
 10
429.5629716921358
 20
402.4307569654139
 30
0.0
  0
VERTEX
  5
211
  8
_ABF_CUTTING_LINES
 10
429.5629716921358
 20
399.4307569654139
 30
0.0
  0
VERTEX
  5
212
  8
_ABF_CUTTING_LINES
 10
454.2296383588024
 20
399.4307569654139
 30
0.0
  0
VERTEX
  5
213
  8
_ABF_CUTTING_LINES
 10
454.2296383588024
 20
402.4307569654139
 30
0.0
  0
SEQEND
  5
3C1
  8
_ABF_CUTTING_LINES
  0
POLYLINE
  5
91
  8
_ABF_CUTTING_LINES
 66
     1
 10
0.0
 20
0.0
 30
0.0
 70
     1
  0
VERTEX
  5
214
  8
_ABF_CUTTING_LINES
 10
475.8963050254691
 20
465.0071743845834
 30
0.0
  0
VERTEX
  5
215
  8
_ABF_CUTTING_LINES
 10
475.8963050254691
 20
442.5071743845834
 30
0.0
  0
VERTEX
  5
216
  8
_ABF_CUTTING_LINES
 10
478.8963050254691
 20
442.5071743845835
 30
0.0
  0
VERTEX
  5
217
  8
_ABF_CUTTING_LINES
 10
478.8963050254691
 20
465.0071743845835
 30
0.0
  0
SEQEND
  5
3C2
  8
_ABF_CUTTING_LINES
  0
POLYLINE
  5
92
  8
_ABF_CUTTING_LINES
 66
     1
 10
0.0
 20
0.0
 30
0.0
 70
     1
  0
VERTEX
  5
218
  8
_ABF_CUTTING_LINES
 10
404.8963050254691
 20
442.4307569654139
 30
0.0
  0
VERTEX
  5
219
  8
_ABF_CUTTING_LINES
 10
407.8963050254691
 20
442.4307569654139
 30
0.0
  0
VERTEX
  5
21A
  8
_ABF_CUTTING_LINES
 10
407.8963050254691
 20
464.9307569654139
 30
0.0
  0
VERTEX
  5
21B
  8
_ABF_CUTTING_LINES
 10
404.8963050254691
 20
464.9307569654139
 30
0.0
  0
SEQEND
  5
3C3
  8
_ABF_CUTTING_LINES
  0
POLYLINE
  5
93
  8
_ABF_CUTTING_LINES
 66
     1
 10
0.0
 20
0.0
 30
0.0
 70
     1
  0
VERTEX
  5
21C
  8
_ABF_CUTTING_LINES
 10
482.8963050254691
 20
266.4307569654139
 30
0.0
  0
VERTEX
  5
21D
  8
_ABF_CUTTING_LINES
 10
482.877043932158
 20
266.0386884040957
 30
0.0
  0
VERTEX
  5
21E
  8
_ABF_CUTTING_LINES
 10
482.819446147082
 20
265.6503956773494
 30
0.0
  0
VERTEX
  5
21F
  8
_ABF_CUTTING_LINES
 10
482.724066368398
 20
265.2696182563961
 30
0.0
  0
VERTEX
  5
220
  8
_ABF_CUTTING_LINES
 10
482.5918231555144
 20
264.9000232359535
 30
0.0
  0
VERTEX
  5
221
  8
_ABF_CUTTING_LINES
 10
482.4239900828626
 20
264.5451700181099
 30
0.0
  0
VERTEX
  5
222
  8
_ABF_CUTTING_LINES
 10
482.2221834746794
 20
264.2084760333356
 30
0.0
  0
VERTEX
  5
223
  8
_ABF_CUTTING_LINES
 10
481.9883468389201
 20
263.8931838287593
 30
0.0
  0
VERTEX
  5
224
  8
_ABF_CUTTING_LINES
 10
481.7247321502153
 20
263.6023298406677
 30
0.0
  0
VERTEX
  5
225
  8
_ABF_CUTTING_LINES
 10
481.4338781621237
 20
263.338715151963
 30
0.0
  0
VERTEX
  5
226
  8
_ABF_CUTTING_LINES
 10
481.1185859575476
 20
263.1048785162037
 30
0.0
  0
VERTEX
  5
227
  8
_ABF_CUTTING_LINES
 10
480.7818919727731
 20
262.9030719080204
 30
0.0
  0
VERTEX
  5
228
  8
_ABF_CUTTING_LINES
 10
480.4270387549295
 20
262.7352388353688
 30
0.0
  0
VERTEX
  5
229
  8
_ABF_CUTTING_LINES
 10
480.057443734487
 20
262.6029956224851
 30
0.0
  0
VERTEX
  5
22A
  8
_ABF_CUTTING_LINES
 10
479.6766663135337
 20
262.507615843801
 30
0.0
  0
VERTEX
  5
22B
  8
_ABF_CUTTING_LINES
 10
479.2883735867874
 20
262.4500180587251
 30
0.0
  0
VERTEX
  5
22C
  8
_ABF_CUTTING_LINES
 10
478.8963050254691
 20
262.4307569654139
 30
0.0
  0
VERTEX
  5
22D
  8
_ABF_CUTTING_LINES
 10
336.8963050254691
 20
262.4307569654139
 30
0.0
  0
VERTEX
  5
22E
  8
_ABF_CUTTING_LINES
 10
336.5042364641509
 20
262.4500180587251
 30
0.0
  0
VERTEX
  5
22F
  8
_ABF_CUTTING_LINES
 10
336.1159437374046
 20
262.507615843801
 30
0.0
  0
VERTEX
  5
230
  8
_ABF_CUTTING_LINES
 10
335.7351663164513
 20
262.6029956224851
 30
0.0
  0
VERTEX
  5
231
  8
_ABF_CUTTING_LINES
 10
335.3655712960089
 20
262.7352388353688
 30
0.0
  0
VERTEX
  5
232
  8
_ABF_CUTTING_LINES
 10
335.0107180781652
 20
262.9030719080204
 30
0.0
  0
VERTEX
  5
233
  8
_ABF_CUTTING_LINES
 10
334.6740240933908
 20
263.1048785162037
 30
0.0
  0
VERTEX
  5
234
  8
_ABF_CUTTING_LINES
 10
334.3587318888145
 20
263.338715151963
 30
0.0
  0
VERTEX
  5
235
  8
_ABF_CUTTING_LINES
 10
334.0678779007229
 20
263.6023298406677
 30
0.0
  0
VERTEX
  5
236
  8
_ABF_CUTTING_LINES
 10
333.8042632120182
 20
263.8931838287593
 30
0.0
  0
VERTEX
  5
237
  8
_ABF_CUTTING_LINES
 10
333.5704265762589
 20
264.2084760333354
 30
0.0
  0
VERTEX
  5
238
  8
_ABF_CUTTING_LINES
 10
333.3686199680757
 20
264.5451700181099
 30
0.0
  0
VERTEX
  5
239
  8
_ABF_CUTTING_LINES
 10
333.200786895424
 20
264.9000232359535
 30
0.0
  0
VERTEX
  5
23A
  8
_ABF_CUTTING_LINES
 10
333.0685436825403
 20
265.2696182563961
 30
0.0
  0
VERTEX
  5
23B
  8
_ABF_CUTTING_LINES
 10
332.9731639038563
 20
265.6503956773494
 30
0.0
  0
VERTEX
  5
23C
  8
_ABF_CUTTING_LINES
 10
332.9155661187804
 20
266.0386884040957
 30
0.0
  0
VERTEX
  5
23D
  8
_ABF_CUTTING_LINES
 10
332.8963050254691
 20
266.4307569654139
 30
0.0
  0
VERTEX
  5
23E
  8
_ABF_CUTTING_LINES
 10
332.8963050254691
 20
327.4307569654139
 30
0.0
  0
VERTEX
  5
23F
  8
_ABF_CUTTING_LINES
 10
332.9685341253862
 20
328.9010140703572
 30
0.0
  0
VERTEX
  5
240
  8
_ABF_CUTTING_LINES
 10
333.1845258194206
 20
330.3571117956558
 30
0.0
  0
VERTEX
  5
241
  8
_ABF_CUTTING_LINES
 10
333.542199989486
 20
331.7850271242308
 30
0.0
  0
VERTEX
  5
242
  8
_ABF_CUTTING_LINES
 10
334.0381120377998
 20
333.1710084508903
 30
0.0
  0
VERTEX
  5
243
  8
_ABF_CUTTING_LINES
 10
334.6674860602438
 20
334.5017080178039
 30
0.0
  0
VERTEX
  5
244
  8
_ABF_CUTTING_LINES
 10
335.424260840931
 20
335.7643104607079
 30
0.0
  0
VERTEX
  5
245
  8
_ABF_CUTTING_LINES
 10
336.3011482250281
 20
336.9466562278686
 30
0.0
  0
VERTEX
  5
246
  8
_ABF_CUTTING_LINES
 10
337.2897033076709
 20
338.0373586832121
 30
0.0
  0
VERTEX
  5
247
  8
_ABF_CUTTING_LINES
 10
338.3804057630144
 20
339.0259137658549
 30
0.0
  0
VERTEX
  5
248
  8
_ABF_CUTTING_LINES
 10
339.5627515301752
 20
339.902801149952
 30
0.0
  0
VERTEX
  5
249
  8
_ABF_CUTTING_LINES
 10
340.8253539730791
 20
340.6595759306392
 30
0.0
  0
VERTEX
  5
24A
  8
_ABF_CUTTING_LINES
 10
342.1560535399927
 20
341.2889499530832
 30
0.0
  0
VERTEX
  5
24B
  8
_ABF_CUTTING_LINES
 10
343.5420348666522
 20
341.784862001397
 30
0.0
  0
VERTEX
  5
24C
  8
_ABF_CUTTING_LINES
 10
344.9699501952272
 20
342.1425361714624
 30
0.0
  0
VERTEX
  5
24D
  8
_ABF_CUTTING_LINES
 10
346.4260479205258
 20
342.3585278654968
 30
0.0
  0
VERTEX
  5
24E
  8
_ABF_CUTTING_LINES
 10
347.8963050254691
 20
342.4307569654139
 30
0.0
  0
VERTEX
  5
24F
  8
_ABF_CUTTING_LINES
 10
400.8963050254691
 20
342.4307569654139
 30
0.0
  0
VERTEX
  5
250
  8
_ABF_CUTTING_LINES
 10
400.8963050254691
 20
486.4307569654139
 30
0.0
  0
VERTEX
  5
251
  8
_ABF_CUTTING_LINES
 10
400.9251966654359
 20
487.0188598073913
 30
0.0
  0
VERTEX
  5
252
  8
_ABF_CUTTING_LINES
 10
401.0115933430496
 20
487.6012988975106
 30
0.0
  0
VERTEX
  5
253
  8
_ABF_CUTTING_LINES
 10
401.1546630110759
 20
488.1724650289406
 30
0.0
  0
VERTEX
  5
254
  8
_ABF_CUTTING_LINES
 10
401.3530278304014
 20
488.7268575596044
 30
0.0
  0
VERTEX
  5
255
  8
_ABF_CUTTING_LINES
 10
401.6047774393789
 20
489.2591373863699
 30
0.0
  0
VERTEX
  5
256
  8
_ABF_CUTTING_LINES
 10
401.9074873516538
 20
489.7641783635315
 30
0.0
  0
VERTEX
  5
257
  8
_ABF_CUTTING_LINES
 10
402.2582423052926
 20
490.2371166703958
 30
0.0
  0
VERTEX
  5
258
  8
_ABF_CUTTING_LINES
 10
402.6536643383498
 20
490.6733976525332
 30
0.0
  0
VERTEX
  5
259
  8
_ABF_CUTTING_LINES
 10
403.0899453204872
 20
491.0688196855903
 30
0.0
  0
VERTEX
  5
25A
  8
_ABF_CUTTING_LINES
 10
403.5628836273514
 20
491.4195746392291
 30
0.0
  0
VERTEX
  5
25B
  8
_ABF_CUTTING_LINES
 10
404.0679246045131
 20
491.7222845515039
 30
0.0
  0
VERTEX
  5
25C
  8
_ABF_CUTTING_LINES
 10
404.6002044312785
 20
491.9740341604816
 30
0.0
  0
VERTEX
  5
25D
  8
_ABF_CUTTING_LINES
 10
405.1545969619423
 20
492.1723989798072
 30
0.0
  0
VERTEX
  5
25E
  8
_ABF_CUTTING_LINES
 10
405.7257630933723
 20
492.3154686478333
 30
0.0
  0
VERTEX
  5
25F
  8
_ABF_CUTTING_LINES
 10
406.3082021834917
 20
492.4018653254471
 30
0.0
  0
VERTEX
  5
260
  8
_ABF_CUTTING_LINES
 10
406.8963050254691
 20
492.4307569654139
 30
0.0
  0
VERTEX
  5
261
  8
_ABF_CUTTING_LINES
 10
476.8963050254691
 20
492.4307569654139
 30
0.0
  0
VERTEX
  5
262
  8
_ABF_CUTTING_LINES
 10
477.4844078674465
 20
492.4018653254471
 30
0.0
  0
VERTEX
  5
263
  8
_ABF_CUTTING_LINES
 10
478.0668469575659
 20
492.3154686478333
 30
0.0
  0
VERTEX
  5
264
  8
_ABF_CUTTING_LINES
 10
478.6380130889958
 20
492.1723989798072
 30
0.0
  0
VERTEX
  5
265
  8
_ABF_CUTTING_LINES
 10
479.1924056196597
 20
491.9740341604816
 30
0.0
  0
VERTEX
  5
266
  8
_ABF_CUTTING_LINES
 10
479.724685446425
 20
491.7222845515041
 30
0.0
  0
VERTEX
  5
267
  8
_ABF_CUTTING_LINES
 10
480.2297264235866
 20
491.4195746392291
 30
0.0
  0
VERTEX
  5
268
  8
_ABF_CUTTING_LINES
 10
480.7026647304509
 20
491.0688196855903
 30
0.0
  0
VERTEX
  5
269
  8
_ABF_CUTTING_LINES
 10
481.1389457125885
 20
490.6733976525332
 30
0.0
  0
VERTEX
  5
26A
  8
_ABF_CUTTING_LINES
 10
481.5343677456455
 20
490.2371166703958
 30
0.0
  0
VERTEX
  5
26B
  8
_ABF_CUTTING_LINES
 10
481.8851226992844
 20
489.7641783635315
 30
0.0
  0
VERTEX
  5
26C
  8
_ABF_CUTTING_LINES
 10
482.1878326115592
 20
489.2591373863699
 30
0.0
  0
VERTEX
  5
26D
  8
_ABF_CUTTING_LINES
 10
482.4395822205369
 20
488.7268575596044
 30
0.0
  0
VERTEX
  5
26E
  8
_ABF_CUTTING_LINES
 10
482.6379470398623
 20
488.1724650289406
 30
0.0
  0
VERTEX
  5
26F
  8
_ABF_CUTTING_LINES
 10
482.7810167078885
 20
487.6012988975106
 30
0.0
  0
VERTEX
  5
270
  8
_ABF_CUTTING_LINES
 10
482.8674133855022
 20
487.0188598073913
 30
0.0
  0
VERTEX
  5
271
  8
_ABF_CUTTING_LINES
 10
482.8963050254691
 20
486.4307569654139
 30
0.0
  0
SEQEND
  5
3C4
  8
_ABF_CUTTING_LINES
  0
POLYLINE
  5
94
  8
_ABF_CUTTING_LINES
 66
     1
 10
0.0
 20
0.0
 30
0.0
 70
     1
  0
VERTEX
  5
272
  8
_ABF_CUTTING_LINES
 10
633.2913470559325
 20
400.2086617069781
 30
0.0
  0
VERTEX
  5
273
  8
_ABF_CUTTING_LINES
 10
616.6246803892659
 20
400.2086617069781
 30
0.0
  0
VERTEX
  5
274
  8
_ABF_CUTTING_LINES
 10
616.6246803892659
 20
403.2086617069782
 30
0.0
  0
VERTEX
  5
275
  8
_ABF_CUTTING_LINES
 10
599.9580137225993
 20
403.2086617069782
 30
0.0
  0
VERTEX
  5
276
  8
_ABF_CUTTING_LINES
 10
599.9580137225993
 20
400.2086617069781
 30
0.0
  0
VERTEX
  5
277
  8
_ABF_CUTTING_LINES
 10
583.2913470559325
 20
400.2086617069781
 30
0.0
  0
VERTEX
  5
278
  8
_ABF_CUTTING_LINES
 10
583.2913470559325
 20
257.2086617069781
 30
0.0
  0
VERTEX
  5
279
  8
_ABF_CUTTING_LINES
 10
633.2913470559325
 20
257.2086617069781
 30
0.0
  0
SEQEND
  5
3C5
  8
_ABF_CUTTING_LINES
  0
POLYLINE
  5
95
  8
_ABF_CUTTING_LINES
 66
     1
 10
0.0
 20
0.0
 30
0.0
 70
     1
  0
VERTEX
  5
27A
  8
_ABF_CUTTING_LINES
 10
627.2913470559325
 20
308.208661706978
 30
0.0
  0
VERTEX
  5
27B
  8
_ABF_CUTTING_LINES
 10
627.2913470559325
 20
354.2086617069781
 30
0.0
  0
VERTEX
  5
27C
  8
_ABF_CUTTING_LINES
 10
630.2913470559325
 20
354.2086617069781
 30
0.0
  0
VERTEX
  5
27D
  8
_ABF_CUTTING_LINES
 10
630.2913470559325
 20
308.208661706978
 30
0.0
  0
SEQEND
  5
3C6
  8
_ABF_CUTTING_LINES
  0
POLYLINE
  5
96
  8
_ABF_CUTTING_LINES
 66
     1
 10
0.0
 20
0.0
 30
0.0
 70
     1
  0
VERTEX
  5
27E
  8
_ABF_CUTTING_LINES
 10
616.6246803892659
 20
259.2086617069781
 30
0.0
  0
VERTEX
  5
27F
  8
_ABF_CUTTING_LINES
 10
599.9580137225993
 20
259.2086617069781
 30
0.0
  0
VERTEX
  5
280
  8
_ABF_CUTTING_LINES
 10
599.9580137225993
 20
262.2086617069781
 30
0.0
  0
VERTEX
  5
281
  8
_ABF_CUTTING_LINES
 10
616.6246803892659
 20
262.2086617069781
 30
0.0
  0
SEQEND
  5
3C7
  8
_ABF_CUTTING_LINES
  0
POLYLINE
  5
97
  8
_ABF_CUTTING_LINES
 66
     1
 10
0.0
 20
0.0
 30
0.0
 70
     1
  0
VERTEX
  5
282
  8
_ABF_CUTTING_LINES
 10
517.8643976348465
 20
253.7213533130509
 30
0.0
  0
VERTEX
  5
283
  8
_ABF_CUTTING_LINES
 10
517.8499518148631
 20
254.0154047340396
 30
0.0
  0
VERTEX
  5
284
  8
_ABF_CUTTING_LINES
 10
517.806753476056
 20
254.3066242790993
 30
0.0
  0
VERTEX
  5
285
  8
_ABF_CUTTING_LINES
 10
517.7352186420428
 20
254.5922073448143
 30
0.0
  0
VERTEX
  5
286
  8
_ABF_CUTTING_LINES
 10
517.6360362323801
 20
254.8694036101462
 30
0.0
  0
VERTEX
  5
287
  8
_ABF_CUTTING_LINES
 10
517.5101614278913
 20
255.1355435235289
 30
0.0
  0
VERTEX
  5
288
  8
_ABF_CUTTING_LINES
 10
517.358806471754
 20
255.3880640121097
 30
0.0
  0
VERTEX
  5
289
  8
_ABF_CUTTING_LINES
 10
517.1834289949345
 20
255.6245331655418
 30
0.0
  0
VERTEX
  5
28A
  8
_ABF_CUTTING_LINES
 10
516.985717978406
 20
255.8426736566105
 30
0.0
  0
VERTEX
  5
28B
  8
_ABF_CUTTING_LINES
 10
516.7675774873373
 20
256.0403846731391
 30
0.0
  0
VERTEX
  5
28C
  8
_ABF_CUTTING_LINES
 10
516.5311083339052
 20
256.2157621499586
 30
0.0
  0
VERTEX
  5
28D
  8
_ABF_CUTTING_LINES
 10
516.2785878453244
 20
256.367117106096
 30
0.0
  0
VERTEX
  5
28E
  8
_ABF_CUTTING_LINES
 10
516.0124479319416
 20
256.4929919105847
 30
0.0
  0
VERTEX
  5
28F
  8
_ABF_CUTTING_LINES
 10
515.7352516666099
 20
256.5921743202475
 30
0.0
  0
VERTEX
  5
290
  8
_ABF_CUTTING_LINES
 10
515.4496686008947
 20
256.6637091542606
 30
0.0
  0
VERTEX
  5
291
  8
_ABF_CUTTING_LINES
 10
515.158449055835
 20
256.7069074930675
 30
0.0
  0
VERTEX
  5
292
  8
_ABF_CUTTING_LINES
 10
514.8643976348465
 20
256.7213533130509
 30
0.0
  0
VERTEX
  5
293
  8
_ABF_CUTTING_LINES
 10
465.8643976348463
 20
256.7213533130509
 30
0.0
  0
VERTEX
  5
294
  8
_ABF_CUTTING_LINES
 10
465.5703462138576
 20
256.7069074930675
 30
0.0
  0
VERTEX
  5
295
  8
_ABF_CUTTING_LINES
 10
465.2791266687979
 20
256.6637091542606
 30
0.0
  0
VERTEX
  5
296
  8
_ABF_CUTTING_LINES
 10
464.993543603083
 20
256.5921743202475
 30
0.0
  0
VERTEX
  5
297
  8
_ABF_CUTTING_LINES
 10
464.7163473377511
 20
256.4929919105847
 30
0.0
  0
VERTEX
  5
298
  8
_ABF_CUTTING_LINES
 10
464.4502074243683
 20
256.367117106096
 30
0.0
  0
VERTEX
  5
299
  8
_ABF_CUTTING_LINES
 10
464.1976869357874
 20
256.2157621499586
 30
0.0
  0
VERTEX
  5
29A
  8
_ABF_CUTTING_LINES
 10
463.9612177823554
 20
256.0403846731391
 30
0.0
  0
VERTEX
  5
29B
  8
_ABF_CUTTING_LINES
 10
463.7430772912866
 20
255.8426736566105
 30
0.0
  0
VERTEX
  5
29C
  8
_ABF_CUTTING_LINES
 10
463.545366274758
 20
255.6245331655418
 30
0.0
  0
VERTEX
  5
29D
  8
_ABF_CUTTING_LINES
 10
463.3699887979387
 20
255.3880640121097
 30
0.0
  0
VERTEX
  5
29E
  8
_ABF_CUTTING_LINES
 10
463.2186338418012
 20
255.1355435235289
 30
0.0
  0
VERTEX
  5
29F
  8
_ABF_CUTTING_LINES
 10
463.0927590373124
 20
254.8694036101462
 30
0.0
  0
VERTEX
  5
2A0
  8
_ABF_CUTTING_LINES
 10
462.9935766276497
 20
254.5922073448143
 30
0.0
  0
VERTEX
  5
2A1
  8
_ABF_CUTTING_LINES
 10
462.9220417936365
 20
254.3066242790993
 30
0.0
  0
VERTEX
  5
2A2
  8
_ABF_CUTTING_LINES
 10
462.8788434548297
 20
254.0154047340396
 30
0.0
  0
VERTEX
  5
2A3
  8
_ABF_CUTTING_LINES
 10
462.8643976348463
 20
253.7213533130509
 30
0.0
  0
VERTEX
  5
2A4
  8
_ABF_CUTTING_LINES
 10
462.8643976348463
 20
9.721353313050876
 30
0.0
  0
VERTEX
  5
2A5
  8
_ABF_CUTTING_LINES
 10
462.8788434548297
 20
9.427301892062196
 30
0.0
  0
VERTEX
  5
2A6
  8
_ABF_CUTTING_LINES
 10
462.9220417936365
 20
9.136082347002493
 30
0.0
  0
VERTEX
  5
2A7
  8
_ABF_CUTTING_LINES
 10
462.9935766276497
 20
8.85049928128749
 30
0.0
  0
VERTEX
  5
2A8
  8
_ABF_CUTTING_LINES
 10
463.0927590373124
 20
8.57330301595561
 30
0.0
  0
VERTEX
  5
2A9
  8
_ABF_CUTTING_LINES
 10
463.2186338418012
 20
8.30716310257288
 30
0.0
  0
VERTEX
  5
2AA
  8
_ABF_CUTTING_LINES
 10
463.3699887979387
 20
8.054642613992065
 30
0.0
  0
VERTEX
  5
2AB
  8
_ABF_CUTTING_LINES
 10
463.545366274758
 20
7.81817346055994
 30
0.0
  0
VERTEX
  5
2AC
  8
_ABF_CUTTING_LINES
 10
463.7430772912866
 20
7.600032969491245
 30
0.0
  0
VERTEX
  5
2AD
  8
_ABF_CUTTING_LINES
 10
463.9612177823554
 20
7.402321952962659
 30
0.0
  0
VERTEX
  5
2AE
  8
_ABF_CUTTING_LINES
 10
464.1976869357874
 20
7.226944476143238
 30
0.0
  0
VERTEX
  5
2AF
  8
_ABF_CUTTING_LINES
 10
464.4502074243683
 20
7.075589520005813
 30
0.0
  0
VERTEX
  5
2B0
  8
_ABF_CUTTING_LINES
 10
464.716347337751
 20
6.949714715517011
 30
0.0
  0
VERTEX
  5
2B1
  8
_ABF_CUTTING_LINES
 10
464.993543603083
 20
6.850532305854252
 30
0.0
  0
VERTEX
  5
2B2
  8
_ABF_CUTTING_LINES
 10
465.2791266687978
 20
6.778997471841187
 30
0.0
  0
VERTEX
  5
2B3
  8
_ABF_CUTTING_LINES
 10
465.5703462138576
 20
6.735799133034284
 30
0.0
  0
VERTEX
  5
2B4
  8
_ABF_CUTTING_LINES
 10
465.8643976348462
 20
6.721353313050876
 30
0.0
  0
VERTEX
  5
2B5
  8
_ABF_CUTTING_LINES
 10
514.8643976348465
 20
6.721353313050876
 30
0.0
  0
VERTEX
  5
2B6
  8
_ABF_CUTTING_LINES
 10
515.158449055835
 20
6.73579913303427
 30
0.0
  0
VERTEX
  5
2B7
  8
_ABF_CUTTING_LINES
 10
515.4496686008947
 20
6.778997471841187
 30
0.0
  0
VERTEX
  5
2B8
  8
_ABF_CUTTING_LINES
 10
515.7352516666099
 20
6.850532305854237
 30
0.0
  0
VERTEX
  5
2B9
  8
_ABF_CUTTING_LINES
 10
516.0124479319416
 20
6.949714715517011
 30
0.0
  0
VERTEX
  5
2BA
  8
_ABF_CUTTING_LINES
 10
516.2785878453244
 20
7.075589520005813
 30
0.0
  0
VERTEX
  5
2BB
  8
_ABF_CUTTING_LINES
 10
516.5311083339052
 20
7.226944476143238
 30
0.0
  0
VERTEX
  5
2BC
  8
_ABF_CUTTING_LINES
 10
516.7675774873373
 20
7.402321952962659
 30
0.0
  0
VERTEX
  5
2BD
  8
_ABF_CUTTING_LINES
 10
516.985717978406
 20
7.600032969491231
 30
0.0
  0
VERTEX
  5
2BE
  8
_ABF_CUTTING_LINES
 10
517.1834289949345
 20
7.818173460559926
 30
0.0
  0
VERTEX
  5
2BF
  8
_ABF_CUTTING_LINES
 10
517.358806471754
 20
8.054642613992065
 30
0.0
  0
VERTEX
  5
2C0
  8
_ABF_CUTTING_LINES
 10
517.5101614278913
 20
8.30716310257288
 30
0.0
  0
VERTEX
  5
2C1
  8
_ABF_CUTTING_LINES
 10
517.6360362323801
 20
8.57330301595561
 30
0.0
  0
VERTEX
  5
2C2
  8
_ABF_CUTTING_LINES
 10
517.7352186420428
 20
8.850499281287476
 30
0.0
  0
VERTEX
  5
2C3
  8
_ABF_CUTTING_LINES
 10
517.806753476056
 20
9.136082347002478
 30
0.0
  0
VERTEX
  5
2C4
  8
_ABF_CUTTING_LINES
 10
517.8499518148631
 20
9.427301892062182
 30
0.0
  0
VERTEX
  5
2C5
  8
_ABF_CUTTING_LINES
 10
517.8643976348465
 20
9.721353313050876
 30
0.0
  0
SEQEND
  5
3C8
  8
_ABF_CUTTING_LINES
  0
POLYLINE
  5
98
  8
_ABF_CUTTING_LINES
 66
     1
 10
0.0
 20
0.0
 30
0.0
 70
     1
  0
VERTEX
  5
2C6
  8
_ABF_CUTTING_LINES
 10
481.5310643015129
 20
253.7213533130509
 30
0.0
  0
VERTEX
  5
2C7
  8
_ABF_CUTTING_LINES
 10
498.1977309681797
 20
253.7213533130509
 30
0.0
  0
VERTEX
  5
2C8
  8
_ABF_CUTTING_LINES
 10
498.1977309681797
 20
250.7213533130509
 30
0.0
  0
VERTEX
  5
2C9
  8
_ABF_CUTTING_LINES
 10
481.5310643015129
 20
250.7213533130509
 30
0.0
  0
SEQEND
  5
3C9
  8
_ABF_CUTTING_LINES
  0
POLYLINE
  5
99
  8
_ABF_CUTTING_LINES
 66
     1
 10
0.0
 20
0.0
 30
0.0
 70
     1
  0
VERTEX
  5
2CA
  8
_ABF_CUTTING_LINES
 10
481.5310643015129
 20
9.721353313050876
 30
0.0
  0
VERTEX
  5
2CB
  8
_ABF_CUTTING_LINES
 10
481.5310643015129
 20
12.72135331305088
 30
0.0
  0
VERTEX
  5
2CC
  8
_ABF_CUTTING_LINES
 10
498.1977309681797
 20
12.72135331305088
 30
0.0
  0
VERTEX
  5
2CD
  8
_ABF_CUTTING_LINES
 10
498.1977309681797
 20
9.721353313050876
 30
0.0
  0
SEQEND
  5
3CA
  8
_ABF_CUTTING_LINES
  0
POLYLINE
  5
9A
  8
_ABF_CUTTING_LINES
 66
     1
 10
0.0
 20
0.0
 30
0.0
 70
     1
  0
VERTEX
  5
2CE
  8
_ABF_CUTTING_LINES
 10
570.0737127033397
 20
250.7213533130509
 30
0.0
  0
VERTEX
  5
2CF
  8
_ABF_CUTTING_LINES
 10
553.4070460366729
 20
250.7213533130509
 30
0.0
  0
VERTEX
  5
2D0
  8
_ABF_CUTTING_LINES
 10
553.4070460366729
 20
253.7213533130511
 30
0.0
  0
VERTEX
  5
2D1
  8
_ABF_CUTTING_LINES
 10
536.7403793700063
 20
253.7213533130511
 30
0.0
  0
VERTEX
  5
2D2
  8
_ABF_CUTTING_LINES
 10
536.7403793700063
 20
250.7213533130509
 30
0.0
  0
VERTEX
  5
2D3
  8
_ABF_CUTTING_LINES
 10
520.0737127033395
 20
250.7213533130509
 30
0.0
  0
VERTEX
  5
2D4
  8
_ABF_CUTTING_LINES
 10
520.0737127033395
 20
12.72135331305094
 30
0.0
  0
VERTEX
  5
2D5
  8
_ABF_CUTTING_LINES
 10
536.7403793700063
 20
12.72135331305088
 30
0.0
  0
VERTEX
  5
2D6
  8
_ABF_CUTTING_LINES
 10
536.7403793700063
 20
9.721353313050884
 30
0.0
  0
VERTEX
  5
2D7
  8
_ABF_CUTTING_LINES
 10
553.4070460366729
 20
9.72135331305094
 30
0.0
  0
VERTEX
  5
2D8
  8
_ABF_CUTTING_LINES
 10
553.4070460366729
 20
12.72135331305094
 30
0.0
  0
VERTEX
  5
2D9
  8
_ABF_CUTTING_LINES
 10
570.0737127033397
 20
12.72135331305094
 30
0.0
  0
SEQEND
  5
3CB
  8
_ABF_CUTTING_LINES
  0
POLYLINE
  5
9B
  8
_ABF_CUTTING_LINES
 66
     1
 10
0.0
 20
0.0
 30
0.0
 70
     1
  0
VERTEX
  5
2DA
  8
_ABF_CUTTING_LINES
 10
564.0737127033394
 20
60.32135331305096
 30
0.0
  0
VERTEX
  5
2DB
  8
_ABF_CUTTING_LINES
 10
564.0737127033394
 20
107.9213533130509
 30
0.0
  0
VERTEX
  5
2DC
  8
_ABF_CUTTING_LINES
 10
567.0737127033394
 20
107.9213533130509
 30
0.0
  0
VERTEX
  5
2DD
  8
_ABF_CUTTING_LINES
 10
567.0737127033394
 20
60.32135331305096
 30
0.0
  0
SEQEND
  5
3CC
  8
_ABF_CUTTING_LINES
  0
POLYLINE
  5
9C
  8
_ABF_CUTTING_LINES
 66
     1
 10
0.0
 20
0.0
 30
0.0
 70
     1
  0
VERTEX
  5
2DE
  8
_ABF_CUTTING_LINES
 10
567.0737127033394
 20
203.121353313051
 30
0.0
  0
VERTEX
  5
2DF
  8
_ABF_CUTTING_LINES
 10
567.0737127033394
 20
155.521353313051
 30
0.0
  0
VERTEX
  5
2E0
  8
_ABF_CUTTING_LINES
 10
564.0737127033394
 20
155.521353313051
 30
0.0
  0
VERTEX
  5
2E1
  8
_ABF_CUTTING_LINES
 10
564.0737127033394
 20
203.121353313051
 30
0.0
  0
SEQEND
  5
3CD
  8
_ABF_CUTTING_LINES
  0
POLYLINE
  5
9D
  8
_ABF_CUTTING_LINES
 66
     1
 10
0.0
 20
0.0
 30
0.0
 70
     1
  0
VERTEX
  5
2E2
  8
_ABF_CUTTING_LINES
 10
558.9923316449735
 20
423.3038230415237
 30
0.0
  0
VERTEX
  5
2E3
  8
_ABF_CUTTING_LINES
 10
558.9923316449735
 20
426.3038230415237
 30
0.0
  0
VERTEX
  5
2E4
  8
_ABF_CUTTING_LINES
 10
536.4923316449735
 20
426.3038230415237
 30
0.0
  0
VERTEX
  5
2E5
  8
_ABF_CUTTING_LINES
 10
536.4923316449735
 20
423.3038230415237
 30
0.0
  0
SEQEND
  5
3CE
  8
_ABF_CUTTING_LINES
  0
POLYLINE
  5
9E
  8
_ABF_CUTTING_LINES
 66
     1
 10
0.0
 20
0.0
 30
0.0
 70
     1
  0
VERTEX
  5
2E6
  8
_ABF_CUTTING_LINES
 10
536.4923316449735
 20
340.3038230415237
 30
0.0
  0
VERTEX
  5
2E7
  8
_ABF_CUTTING_LINES
 10
558.9923316449735
 20
340.3038230415237
 30
0.0
  0
VERTEX
  5
2E8
  8
_ABF_CUTTING_LINES
 10
558.9923316449735
 20
343.3038230415237
 30
0.0
  0
VERTEX
  5
2E9
  8
_ABF_CUTTING_LINES
 10
536.4923316449735
 20
343.3038230415237
 30
0.0
  0
SEQEND
  5
3CF
  8
_ABF_CUTTING_LINES
  0
POLYLINE
  5
9F
  8
_ABF_CUTTING_LINES
 66
     1
 10
0.0
 20
0.0
 30
0.0
 70
     1
  0
VERTEX
  5
2EA
  8
_ABF_CUTTING_LINES
 10
586.4923316449735
 20
506.3038230415237
 30
0.0
  0
VERTEX
  5
2EB
  8
_ABF_CUTTING_LINES
 10
586.4923316449735
 20
424.3038230415237
 30
0.0
  0
VERTEX
  5
2EC
  8
_ABF_CUTTING_LINES
 10
586.4682552783346
 20
423.813737339876
 30
0.0
  0
VERTEX
  5
2ED
  8
_ABF_CUTTING_LINES
 10
586.3962580469897
 20
423.3283714314431
 30
0.0
  0
VERTEX
  5
2EE
  8
_ABF_CUTTING_LINES
 10
586.2770333236347
 20
422.8523996552514
 30
0.0
  0
VERTEX
  5
2EF
  8
_ABF_CUTTING_LINES
 10
586.1117293075299
 20
422.3904058796982
 30
0.0
  0
VERTEX
  5
2F0
  8
_ABF_CUTTING_LINES
 10
585.9019379667154
 20
421.9468393573938
 30
0.0
  0
VERTEX
  5
2F1
  8
_ABF_CUTTING_LINES
 10
585.6496797064863
 20
421.5259718764257
 30
0.0
  0
VERTEX
  5
2F2
  8
_ABF_CUTTING_LINES
 10
585.3573839117873
 20
421.1318566207055
 30
0.0
  0
VERTEX
  5
2F3
  8
_ABF_CUTTING_LINES
 10
585.0278655509062
 20
420.768289135591
 30
0.0
  0
VERTEX
  5
2F4
  8
_ABF_CUTTING_LINES
 10
584.6642980657919
 20
420.4387707747101
 30
0.0
  0
VERTEX
  5
2F5
  8
_ABF_CUTTING_LINES
 10
584.2701828100716
 20
420.146474980011
 30
0.0
  0
VERTEX
  5
2F6
  8
_ABF_CUTTING_LINES
 10
583.8493153291035
 20
419.8942167197819
 30
0.0
  0
VERTEX
  5
2F7
  8
_ABF_CUTTING_LINES
 10
583.405748806799
 20
419.6844253789673
 30
0.0
  0
VERTEX
  5
2F8
  8
_ABF_CUTTING_LINES
 10
582.9437550312458
 20
419.5191213628627
 30
0.0
  0
VERTEX
  5
2F9
  8
_ABF_CUTTING_LINES
 10
582.4677832550542
 20
419.3998966395076
 30
0.0
  0
VERTEX
  5
2FA
  8
_ABF_CUTTING_LINES
 10
581.9824173466213
 20
419.3278994081628
 30
0.0
  0
VERTEX
  5
2FB
  8
_ABF_CUTTING_LINES
 10
581.4923316449735
 20
419.3038230415237
 30
0.0
  0
VERTEX
  5
2FC
  8
_ABF_CUTTING_LINES
 10
571.4923316449735
 20
419.3038230415237
 30
0.0
  0
VERTEX
  5
2FD
  8
_ABF_CUTTING_LINES
 10
571.4923316449735
 20
399.6038230415237
 30
0.0
  0
VERTEX
  5
2FE
  8
_ABF_CUTTING_LINES
 10
571.4634400050068
 20
399.0157201995463
 30
0.0
  0
VERTEX
  5
2FF
  8
_ABF_CUTTING_LINES
 10
571.377043327393
 20
398.4332811094269
 30
0.0
  0
VERTEX
  5
300
  8
_ABF_CUTTING_LINES
 10
571.2339736593668
 20
397.862114977997
 30
0.0
  0
VERTEX
  5
301
  8
_ABF_CUTTING_LINES
 10
571.0356088400413
 20
397.3077224473332
 30
0.0
  0
VERTEX
  5
302
  8
_ABF_CUTTING_LINES
 10
570.7838592310636
 20
396.7754426205678
 30
0.0
  0
VERTEX
  5
303
  8
_ABF_CUTTING_LINES
 10
570.4811493187888
 20
396.2704016434061
 30
0.0
  0
VERTEX
  5
304
  8
_ABF_CUTTING_LINES
 10
570.13039436515
 20
395.7974633365419
 30
0.0
  0
VERTEX
  5
305
  8
_ABF_CUTTING_LINES
 10
569.7349723320929
 20
395.3611823544045
 30
0.0
  0
VERTEX
  5
306
  8
_ABF_CUTTING_LINES
 10
569.2986913499554
 20
394.9657603213474
 30
0.0
  0
VERTEX
  5
307
  8
_ABF_CUTTING_LINES
 10
568.8257530430911
 20
394.6150053677084
 30
0.0
  0
VERTEX
  5
308
  8
_ABF_CUTTING_LINES
 10
568.3207120659296
 20
394.3122954554336
 30
0.0
  0
VERTEX
  5
309
  8
_ABF_CUTTING_LINES
 10
567.7884322391642
 20
394.060545846456
 30
0.0
  0
VERTEX
  5
30A
  8
_ABF_CUTTING_LINES
 10
567.2340397085003
 20
393.8621810271305
 30
0.0
  0
VERTEX
  5
30B
  8
_ABF_CUTTING_LINES
 10
566.6628735770703
 20
393.7191113591043
 30
0.0
  0
VERTEX
  5
30C
  8
_ABF_CUTTING_LINES
 10
566.0804344869509
 20
393.6327146814905
 30
0.0
  0
VERTEX
  5
30D
  8
_ABF_CUTTING_LINES
 10
565.4923316449735
 20
393.6038230415237
 30
0.0
  0
VERTEX
  5
30E
  8
_ABF_CUTTING_LINES
 10
561.4923316449735
 20
393.6038230415237
 30
0.0
  0
VERTEX
  5
30F
  8
_ABF_CUTTING_LINES
 10
560.512160241678
 20
393.5556703082457
 30
0.0
  0
VERTEX
  5
310
  8
_ABF_CUTTING_LINES
 10
559.5414284248122
 20
393.4116758455561
 30
0.0
  0
VERTEX
  5
311
  8
_ABF_CUTTING_LINES
 10
558.5894848724289
 20
393.1732263988458
 30
0.0
  0
VERTEX
  5
312
  8
_ABF_CUTTING_LINES
 10
557.6654973213226
 20
392.8426183666367
 30
0.0
  0
VERTEX
  5
313
  8
_ABF_CUTTING_LINES
 10
556.7783642767135
 20
392.4230356850073
 30
0.0
  0
VERTEX
  5
314
  8
_ABF_CUTTING_LINES
 10
555.9366293147775
 20
391.9185191645492
 30
0.0
  0
VERTEX
  5
315
  8
_ABF_CUTTING_LINES
 10
555.1483988033372
 20
391.3339275751511
 30
0.0
  0
VERTEX
  5
316
  8
_ABF_CUTTING_LINES
 10
554.421263833108
 20
390.6748908533892
 30
0.0
  0
VERTEX
  5
317
  8
_ABF_CUTTING_LINES
 10
553.7622271113462
 20
389.9477558831601
 30
0.0
  0
VERTEX
  5
318
  8
_ABF_CUTTING_LINES
 10
553.1776355219481
 20
389.1595253717197
 30
0.0
  0
VERTEX
  5
319
  8
_ABF_CUTTING_LINES
 10
552.67311900149
 20
388.3177904097836
 30
0.0
  0
VERTEX
  5
31A
  8
_ABF_CUTTING_LINES
 10
552.2535363198607
 20
387.4306573651746
 30
0.0
  0
VERTEX
  5
31B
  8
_ABF_CUTTING_LINES
 10
551.9229282876514
 20
386.5066698140683
 30
0.0
  0
VERTEX
  5
31C
  8
_ABF_CUTTING_LINES
 10
551.6844788409412
 20
385.5547262616849
 30
0.0
  0
VERTEX
  5
31D
  8
_ABF_CUTTING_LINES
 10
551.5404843782516
 20
384.5839944448193
 30
0.0
  0
VERTEX
  5
31E
  8
_ABF_CUTTING_LINES
 10
551.4923316449735
 20
383.6038230415237
 30
0.0
  0
VERTEX
  5
31F
  8
_ABF_CUTTING_LINES
 10
551.4923316449735
 20
383.3038230415237
 30
0.0
  0
VERTEX
  5
320
  8
_ABF_CUTTING_LINES
 10
551.5404843782516
 20
382.3236516382281
 30
0.0
  0
VERTEX
  5
321
  8
_ABF_CUTTING_LINES
 10
551.6844788409412
 20
381.3529198213624
 30
0.0
  0
VERTEX
  5
322
  8
_ABF_CUTTING_LINES
 10
551.9229282876514
 20
380.400976268979
 30
0.0
  0
VERTEX
  5
323
  8
_ABF_CUTTING_LINES
 10
552.2535363198607
 20
379.4769887178728
 30
0.0
  0
VERTEX
  5
324
  8
_ABF_CUTTING_LINES
 10
552.67311900149
 20
378.5898556732637
 30
0.0
  0
VERTEX
  5
325
  8
_ABF_CUTTING_LINES
 10
553.1776355219481
 20
377.7481207113277
 30
0.0
  0
VERTEX
  5
326
  8
_ABF_CUTTING_LINES
 10
553.7622271113462
 20
376.9598901998872
 30
0.0
  0
VERTEX
  5
327
  8
_ABF_CUTTING_LINES
 10
554.421263833108
 20
376.2327552296582
 30
0.0
  0
VERTEX
  5
328
  8
_ABF_CUTTING_LINES
 10
555.1483988033372
 20
375.5737185078964
 30
0.0
  0
VERTEX
  5
329
  8
_ABF_CUTTING_LINES
 10
555.9366293147775
 20
374.9891269184982
 30
0.0
  0
VERTEX
  5
32A
  8
_ABF_CUTTING_LINES
 10
556.7783642767135
 20
374.4846103980402
 30
0.0
  0
VERTEX
  5
32B
  8
_ABF_CUTTING_LINES
 10
557.6654973213226
 20
374.0650277164108
 30
0.0
  0
VERTEX
  5
32C
  8
_ABF_CUTTING_LINES
 10
558.5894848724289
 20
373.7344196842016
 30
0.0
  0
VERTEX
  5
32D
  8
_ABF_CUTTING_LINES
 10
559.5414284248122
 20
373.4959702374914
 30
0.0
  0
VERTEX
  5
32E
  8
_ABF_CUTTING_LINES
 10
560.512160241678
 20
373.3519757748018
 30
0.0
  0
VERTEX
  5
32F
  8
_ABF_CUTTING_LINES
 10
561.4923316449735
 20
373.3038230415237
 30
0.0
  0
VERTEX
  5
330
  8
_ABF_CUTTING_LINES
 10
565.4923316449735
 20
373.3038230415237
 30
0.0
  0
VERTEX
  5
331
  8
_ABF_CUTTING_LINES
 10
566.0804344869509
 20
373.2749314015568
 30
0.0
  0
VERTEX
  5
332
  8
_ABF_CUTTING_LINES
 10
566.6628735770703
 20
373.1885347239431
 30
0.0
  0
VERTEX
  5
333
  8
_ABF_CUTTING_LINES
 10
567.2340397085003
 20
373.0454650559169
 30
0.0
  0
VERTEX
  5
334
  8
_ABF_CUTTING_LINES
 10
567.7884322391642
 20
372.8471002365914
 30
0.0
  0
VERTEX
  5
335
  8
_ABF_CUTTING_LINES
 10
568.3207120659296
 20
372.5953506276138
 30
0.0
  0
VERTEX
  5
336
  8
_ABF_CUTTING_LINES
 10
568.8257530430911
 20
372.292640715339
 30
0.0
  0
VERTEX
  5
337
  8
_ABF_CUTTING_LINES
 10
569.2986913499554
 20
371.9418857617001
 30
0.0
  0
VERTEX
  5
338
  8
_ABF_CUTTING_LINES
 10
569.7349723320929
 20
371.546463728643
 30
0.0
  0
VERTEX
  5
339
  8
_ABF_CUTTING_LINES
 10
570.13039436515
 20
371.1101827465056
 30
0.0
  0
VERTEX
  5
33A
  8
_ABF_CUTTING_LINES
 10
570.4811493187888
 20
370.6372444396413
 30
0.0
  0
VERTEX
  5
33B
  8
_ABF_CUTTING_LINES
 10
570.7838592310636
 20
370.1322034624797
 30
0.0
  0
VERTEX
  5
33C
  8
_ABF_CUTTING_LINES
 10
571.0356088400413
 20
369.5999236357143
 30
0.0
  0
VERTEX
  5
33D
  8
_ABF_CUTTING_LINES
 10
571.2339736593668
 20
369.0455311050505
 30
0.0
  0
VERTEX
  5
33E
  8
_ABF_CUTTING_LINES
 10
571.377043327393
 20
368.4743649736205
 30
0.0
  0
VERTEX
  5
33F
  8
_ABF_CUTTING_LINES
 10
571.4634400050068
 20
367.8919258835011
 30
0.0
  0
VERTEX
  5
340
  8
_ABF_CUTTING_LINES
 10
571.4923316449735
 20
367.3038230415237
 30
0.0
  0
VERTEX
  5
341
  8
_ABF_CUTTING_LINES
 10
571.4923316449735
 20
316.3038230415237
 30
0.0
  0
VERTEX
  5
342
  8
_ABF_CUTTING_LINES
 10
571.4634400050068
 20
315.7157201995464
 30
0.0
  0
VERTEX
  5
343
  8
_ABF_CUTTING_LINES
 10
571.377043327393
 20
315.1332811094269
 30
0.0
  0
VERTEX
  5
344
  8
_ABF_CUTTING_LINES
 10
571.2339736593668
 20
314.5621149779969
 30
0.0
  0
VERTEX
  5
345
  8
_ABF_CUTTING_LINES
 10
571.0356088400413
 20
314.0077224473332
 30
0.0
  0
VERTEX
  5
346
  8
_ABF_CUTTING_LINES
 10
570.7838592310636
 20
313.4754426205678
 30
0.0
  0
VERTEX
  5
347
  8
_ABF_CUTTING_LINES
 10
570.4811493187888
 20
312.9704016434061
 30
0.0
  0
VERTEX
  5
348
  8
_ABF_CUTTING_LINES
 10
570.13039436515
 20
312.4974633365418
 30
0.0
  0
VERTEX
  5
349
  8
_ABF_CUTTING_LINES
 10
569.7349723320929
 20
312.0611823544045
 30
0.0
  0
VERTEX
  5
34A
  8
_ABF_CUTTING_LINES
 10
569.2986913499554
 20
311.6657603213473
 30
0.0
  0
VERTEX
  5
34B
  8
_ABF_CUTTING_LINES
 10
568.8257530430911
 20
311.3150053677084
 30
0.0
  0
VERTEX
  5
34C
  8
_ABF_CUTTING_LINES
 10
568.3207120659296
 20
311.0122954554336
 30
0.0
  0
VERTEX
  5
34D
  8
_ABF_CUTTING_LINES
 10
567.7884322391642
 20
310.760545846456
 30
0.0
  0
VERTEX
  5
34E
  8
_ABF_CUTTING_LINES
 10
567.2340397085003
 20
310.5621810271305
 30
0.0
  0
VERTEX
  5
34F
  8
_ABF_CUTTING_LINES
 10
566.6628735770703
 20
310.4191113591044
 30
0.0
  0
VERTEX
  5
350
  8
_ABF_CUTTING_LINES
 10
566.0804344869509
 20
310.3327146814905
 30
0.0
  0
VERTEX
  5
351
  8
_ABF_CUTTING_LINES
 10
565.4923316449735
 20
310.3038230415237
 30
0.0
  0
VERTEX
  5
352
  8
_ABF_CUTTING_LINES
 10
561.4923316449735
 20
310.3038230415237
 30
0.0
  0
VERTEX
  5
353
  8
_ABF_CUTTING_LINES
 10
560.512160241678
 20
310.2556703082457
 30
0.0
  0
VERTEX
  5
354
  8
_ABF_CUTTING_LINES
 10
559.5414284248122
 20
310.1116758455561
 30
0.0
  0
VERTEX
  5
355
  8
_ABF_CUTTING_LINES
 10
558.5894848724289
 20
309.8732263988458
 30
0.0
  0
VERTEX
  5
356
  8
_ABF_CUTTING_LINES
 10
557.6654973213226
 20
309.5426183666366
 30
0.0
  0
VERTEX
  5
357
  8
_ABF_CUTTING_LINES
 10
556.7783642767135
 20
309.1230356850073
 30
0.0
  0
VERTEX
  5
358
  8
_ABF_CUTTING_LINES
 10
555.9366293147775
 20
308.6185191645492
 30
0.0
  0
VERTEX
  5
359
  8
_ABF_CUTTING_LINES
 10
555.1483988033372
 20
308.0339275751511
 30
0.0
  0
VERTEX
  5
35A
  8
_ABF_CUTTING_LINES
 10
554.421263833108
 20
307.3748908533892
 30
0.0
  0
VERTEX
  5
35B
  8
_ABF_CUTTING_LINES
 10
553.7622271113462
 20
306.6477558831602
 30
0.0
  0
VERTEX
  5
35C
  8
_ABF_CUTTING_LINES
 10
553.1776355219481
 20
305.8595253717198
 30
0.0
  0
VERTEX
  5
35D
  8
_ABF_CUTTING_LINES
 10
552.67311900149
 20
305.0177904097837
 30
0.0
  0
VERTEX
  5
35E
  8
_ABF_CUTTING_LINES
 10
552.2535363198607
 20
304.1306573651746
 30
0.0
  0
VERTEX
  5
35F
  8
_ABF_CUTTING_LINES
 10
551.9229282876514
 20
303.2066698140684
 30
0.0
  0
VERTEX
  5
360
  8
_ABF_CUTTING_LINES
 10
551.6844788409412
 20
302.254726261685
 30
0.0
  0
VERTEX
  5
361
  8
_ABF_CUTTING_LINES
 10
551.5404843782516
 20
301.2839944448194
 30
0.0
  0
VERTEX
  5
362
  8
_ABF_CUTTING_LINES
 10
551.4923316449735
 20
300.3038230415237
 30
0.0
  0
VERTEX
  5
363
  8
_ABF_CUTTING_LINES
 10
551.5404843782516
 20
299.3236516382281
 30
0.0
  0
VERTEX
  5
364
  8
_ABF_CUTTING_LINES
 10
551.6844788409412
 20
298.3529198213624
 30
0.0
  0
VERTEX
  5
365
  8
_ABF_CUTTING_LINES
 10
551.9229282876514
 20
297.4009762689791
 30
0.0
  0
VERTEX
  5
366
  8
_ABF_CUTTING_LINES
 10
552.2535363198607
 20
296.4769887178728
 30
0.0
  0
VERTEX
  5
367
  8
_ABF_CUTTING_LINES
 10
552.67311900149
 20
295.5898556732637
 30
0.0
  0
VERTEX
  5
368
  8
_ABF_CUTTING_LINES
 10
553.1776355219481
 20
294.7481207113277
 30
0.0
  0
VERTEX
  5
369
  8
_ABF_CUTTING_LINES
 10
553.7622271113462
 20
293.9598901998873
 30
0.0
  0
VERTEX
  5
36A
  8
_ABF_CUTTING_LINES
 10
554.421263833108
 20
293.2327552296583
 30
0.0
  0
VERTEX
  5
36B
  8
_ABF_CUTTING_LINES
 10
555.1483988033372
 20
292.5737185078963
 30
0.0
  0
VERTEX
  5
36C
  8
_ABF_CUTTING_LINES
 10
555.9366293147775
 20
291.9891269184983
 30
0.0
  0
VERTEX
  5
36D
  8
_ABF_CUTTING_LINES
 10
556.7783642767135
 20
291.4846103980402
 30
0.0
  0
VERTEX
  5
36E
  8
_ABF_CUTTING_LINES
 10
557.6654973213226
 20
291.0650277164109
 30
0.0
  0
VERTEX
  5
36F
  8
_ABF_CUTTING_LINES
 10
558.5894848724289
 20
290.7344196842016
 30
0.0
  0
VERTEX
  5
370
  8
_ABF_CUTTING_LINES
 10
559.5414284248122
 20
290.4959702374915
 30
0.0
  0
VERTEX
  5
371
  8
_ABF_CUTTING_LINES
 10
560.512160241678
 20
290.3519757748018
 30
0.0
  0
VERTEX
  5
372
  8
_ABF_CUTTING_LINES
 10
561.4923316449735
 20
290.3038230415237
 30
0.0
  0
VERTEX
  5
373
  8
_ABF_CUTTING_LINES
 10
565.4923316449735
 20
290.3038230415237
 30
0.0
  0
VERTEX
  5
374
  8
_ABF_CUTTING_LINES
 10
566.0804344869509
 20
290.2749314015569
 30
0.0
  0
VERTEX
  5
375
  8
_ABF_CUTTING_LINES
 10
566.6628735770703
 20
290.1885347239431
 30
0.0
  0
VERTEX
  5
376
  8
_ABF_CUTTING_LINES
 10
567.2340397085003
 20
290.045465055917
 30
0.0
  0
VERTEX
  5
377
  8
_ABF_CUTTING_LINES
 10
567.7884322391642
 20
289.8471002365915
 30
0.0
  0
VERTEX
  5
378
  8
_ABF_CUTTING_LINES
 10
568.3207120659296
 20
289.5953506276139
 30
0.0
  0
VERTEX
  5
379
  8
_ABF_CUTTING_LINES
 10
568.8257530430911
 20
289.292640715339
 30
0.0
  0
VERTEX
  5
37A
  8
_ABF_CUTTING_LINES
 10
569.2986913499554
 20
288.9418857617002
 30
0.0
  0
VERTEX
  5
37B
  8
_ABF_CUTTING_LINES
 10
569.7349723320929
 20
288.546463728643
 30
0.0
  0
VERTEX
  5
37C
  8
_ABF_CUTTING_LINES
 10
570.13039436515
 20
288.1101827465056
 30
0.0
  0
VERTEX
  5
37D
  8
_ABF_CUTTING_LINES
 10
570.4811493187888
 20
287.6372444396413
 30
0.0
  0
VERTEX
  5
37E
  8
_ABF_CUTTING_LINES
 10
570.7838592310636
 20
287.1322034624798
 30
0.0
  0
VERTEX
  5
37F
  8
_ABF_CUTTING_LINES
 10
571.0356088400413
 20
286.5999236357143
 30
0.0
  0
VERTEX
  5
380
  8
_ABF_CUTTING_LINES
 10
571.2339736593668
 20
286.0455311050505
 30
0.0
  0
VERTEX
  5
381
  8
_ABF_CUTTING_LINES
 10
571.377043327393
 20
285.4743649736205
 30
0.0
  0
VERTEX
  5
382
  8
_ABF_CUTTING_LINES
 10
571.4634400050068
 20
284.8919258835011
 30
0.0
  0
VERTEX
  5
383
  8
_ABF_CUTTING_LINES
 10
571.4923316449735
 20
284.3038230415237
 30
0.0
  0
VERTEX
  5
384
  8
_ABF_CUTTING_LINES
 10
571.4923316449735
 20
260.3038230415237
 30
0.0
  0
VERTEX
  5
385
  8
_ABF_CUTTING_LINES
 10
558.9923316449735
 20
260.3038230415237
 30
0.0
  0
VERTEX
  5
386
  8
_ABF_CUTTING_LINES
 10
558.9923316449735
 20
257.3038230415237
 30
0.0
  0
VERTEX
  5
387
  8
_ABF_CUTTING_LINES
 10
536.4923316449735
 20
257.3038230415237
 30
0.0
  0
VERTEX
  5
388
  8
_ABF_CUTTING_LINES
 10
536.4923316449735
 20
260.3038230415237
 30
0.0
  0
VERTEX
  5
389
  8
_ABF_CUTTING_LINES
 10
490.4923316449735
 20
260.3038230415237
 30
0.0
  0
VERTEX
  5
38A
  8
_ABF_CUTTING_LINES
 10
490.4923316449735
 20
506.3038230415237
 30
0.0
  0
VERTEX
  5
38B
  8
_ABF_CUTTING_LINES
 10
536.4923316449735
 20
506.3038230415237
 30
0.0
  0
VERTEX
  5
38C
  8
_ABF_CUTTING_LINES
 10
536.4923316449735
 20
509.3038230415235
 30
0.0
  0
VERTEX
  5
38D
  8
_ABF_CUTTING_LINES
 10
558.9923316449735
 20
509.3038230415235
 30
0.0
  0
VERTEX
  5
38E
  8
_ABF_CUTTING_LINES
 10
558.9923316449735
 20
506.3038230415237
 30
0.0
  0
SEQEND
  5
3D0
  8
_ABF_CUTTING_LINES
  0
POLYLINE
  5
A0
  8
_ABF_CUTTING_LINES
 66
     1
 10
0.0
 20
0.0
 30
0.0
 70
     1
  0
VERTEX
  5
38F
  8
_ABF_CUTTING_LINES
 10
450.7423316449734
 20
517.5131381100168
 30
0.0
  0
VERTEX
  5
390
  8
_ABF_CUTTING_LINES
 10
450.7423316449734
 20
514.5131381100168
 30
0.0
  0
VERTEX
  5
391
  8
_ABF_CUTTING_LINES
 10
496.7423316449734
 20
514.5131381100168
 30
0.0
  0
VERTEX
  5
392
  8
_ABF_CUTTING_LINES
 10
496.7423316449734
 20
517.5131381100168
 30
0.0
  0
SEQEND
  5
3D1
  8
_ABF_CUTTING_LINES
  0
POLYLINE
  5
A1
  8
_ABF_CUTTING_LINES
 66
     1
 10
0.0
 20
0.0
 30
0.0
 70
     1
  0
VERTEX
  5
393
  8
_ABF_CUTTING_LINES
 10
547.7423316449734
 20
511.5131381100167
 30
0.0
  0
VERTEX
  5
394
  8
_ABF_CUTTING_LINES
 10
404.7423316449734
 20
511.5131381100167
 30
0.0
  0
VERTEX
  5
395
  8
_ABF_CUTTING_LINES
 10
404.7423316449734
 20
528.1798047766833
 30
0.0
  0
VERTEX
  5
396
  8
_ABF_CUTTING_LINES
 10
401.7423316449734
 20
528.1798047766833
 30
0.0
  0
VERTEX
  5
397
  8
_ABF_CUTTING_LINES
 10
401.7423316449734
 20
544.8464714433501
 30
0.0
  0
VERTEX
  5
398
  8
_ABF_CUTTING_LINES
 10
404.7423316449734
 20
544.8464714433501
 30
0.0
  0
VERTEX
  5
399
  8
_ABF_CUTTING_LINES
 10
404.7423316449734
 20
561.5131381100168
 30
0.0
  0
VERTEX
  5
39A
  8
_ABF_CUTTING_LINES
 10
547.7423316449734
 20
561.5131381100168
 30
0.0
  0
SEQEND
  5
3D2
  8
_ABF_CUTTING_LINES
  0
POLYLINE
  5
A2
  8
_ABF_CUTTING_LINES
 66
     1
 10
0.0
 20
0.0
 30
0.0
 70
     1
  0
VERTEX
  5
39B
  8
_ABF_CUTTING_LINES
 10
542.7423316449734
 20
528.1798047766833
 30
0.0
  0
VERTEX
  5
39C
  8
_ABF_CUTTING_LINES
 10
545.7423316449734
 20
528.1798047766833
 30
0.0
  0
VERTEX
  5
39D
  8
_ABF_CUTTING_LINES
 10
545.7423316449734
 20
544.8464714433501
 30
0.0
  0
VERTEX
  5
39E
  8
_ABF_CUTTING_LINES
 10
542.7423316449734
 20
544.8464714433501
 30
0.0
  0
SEQEND
  5
3D3
  8
_ABF_CUTTING_LINES
  0
ENDSEC
  0
EOF
