  0
SECTION
  2
HEADER
  9
$ACADVER
  1
AC1027
  9
$ACADMAINTVER
 70
    55
  9
$DWGCODEPAGE
  3
ANSI_1256
  9
$LASTSAVEDBY
  1
Art
  9
$REQUIREDVERSIONS
160
                 0
  9
$INSBASE
 10
0.0
 20
0.0
 30
0.0
  9
$EXTMIN
 10
61.78808955113206
 20
73.89512876587762
 30
0.0
  9
$EXTMAX
 10
707.1510822376616
 20
428.6855586591452
 30
0.0
  9
$LIMMIN
 10
0.0
 20
0.0
  9
$LIMMAX
 10
12.0
 20
9.0
  9
$ORTHOMODE
 70
     0
  9
$REGENMODE
 70
     1
  9
$FILLMODE
 70
     1
  9
$QTEXTMODE
 70
     0
  9
$MIRRTEXT
 70
     1
  9
$LTSCALE
 40
1.0
  9
$ATTMODE
 70
     1
  9
$TEXTSIZE
 40
0.2
  9
$TRACEWID
 40
0.05
  9
$TEXTSTYLE
  7
STANDARD
  9
$CLAYER
  8
0
  9
$CELTYPE
  6
BYLAYER
  9
$CECOLOR
 62
   256
  9
$CELTSCALE
 40
1.0
  9
$DISPSILH
 70
     0
  9
$DIMSCALE
 40
1.0
  9
$DIMASZ
 40
0.18
  9
$DIMEXO
 40
0.0625
  9
$DIMDLI
 40
0.38
  9
$DIMRND
 40
0.0
  9
$DIMDLE
 40
0.0
  9
$DIMEXE
 40
0.18
  9
$DIMTP
 40
0.0
  9
$DIMTM
 40
0.0
  9
$DIMTXT
 40
0.18
  9
$DIMCEN
 40
0.09
  9
$DIMTSZ
 40
0.0
  9
$DIMTOL
 70
     0
  9
$DIMLIM
 70
     0
  9
$DIMTIH
 70
     1
  9
$DIMTOH
 70
     1
  9
$DIMSE1
 70
     0
  9
$DIMSE2
 70
     0
  9
$DIMTAD
 70
     0
  9
$DIMZIN
 70
     0
  9
$DIMBLK
  1

  9
$DIMASO
 70
     1
  9
$DIMSHO
 70
     1
  9
$DIMPOST
  1

  9
$DIMAPOST
  1

  9
$DIMALT
 70
     0
  9
$DIMALTD
 70
     2
  9
$DIMALTF
 40
25.4
  9
$DIMLFAC
 40
1.0
  9
$DIMTOFL
 70
     0
  9
$DIMTVP
 40
0.0
  9
$DIMTIX
 70
     0
  9
$DIMSOXD
 70
     0
  9
$DIMSAH
 70
     0
  9
$DIMBLK1
  1

  9
$DIMBLK2
  1

  9
$DIMSTYLE
  2
STANDARD
  9
$DIMCLRD
 70
     0
  9
$DIMCLRE
 70
     0
  9
$DIMCLRT
 70
     0
  9
$DIMTFAC
 40
1.0
  9
$DIMGAP
 40
0.09
  9
$DIMJUST
 70
     0
  9
$DIMSD1
 70
     0
  9
$DIMSD2
 70
     0
  9
$DIMTOLJ
 70
     1
  9
$DIMTZIN
 70
     0
  9
$DIMALTZ
 70
     0
  9
$DIMALTTZ
 70
     0
  9
$DIMUPT
 70
     0
  9
$DIMDEC
 70
     4
  9
$DIMTDEC
 70
     4
  9
$DIMALTU
 70
     2
  9
$DIMALTTD
 70
     2
  9
$DIMTXSTY
  7
STANDARD
  9
$DIMAUNIT
 70
     0
  9
$DIMADEC
 70
     0
  9
$DIMALTRND
 40
0.0
  9
$DIMAZIN
 70
     0
  9
$DIMDSEP
 70
    46
  9
$DIMATFIT
 70
     3
  9
$DIMFRAC
 70
     0
  9
$DIMLDRBLK
  1

  9
$DIMLUNIT
 70
     2
  9
$DIMLWD
 70
    -2
  9
$DIMLWE
 70
    -2
  9
$DIMTMOVE
 70
     0
  9
$DIMFXL
 40
1.0
  9
$DIMFXLON
 70
     0
  9
$DIMJOGANG
 40
0.7853981633974483
  9
$DIMTFILL
 70
     0
  9
$DIMTFILLCLR
 70
     0
  9
$DIMARCSYM
 70
     0
  9
$DIMLTYPE
  6

  9
$DIMLTEX1
  6

  9
$DIMLTEX2
  6

  9
$DIMTXTDIRECTION
 70
     0
  9
$LUNITS
 70
     2
  9
$LUPREC
 70
     4
  9
$SKETCHINC
 40
0.1
  9
$FILLETRAD
 40
0.5
  9
$AUNITS
 70
     0
  9
$AUPREC
 70
     0
  9
$MENU
  1
.
  9
$ELEVATION
 40
0.0
  9
$PELEVATION
 40
0.0
  9
$THICKNESS
 40
0.0
  9
$LIMCHECK
 70
     0
  9
$CHAMFERA
 40
0.5
  9
$CHAMFERB
 40
0.5
  9
$CHAMFERC
 40
1.0
  9
$CHAMFERD
 40
0.0
  9
$SKPOLY
 70
     0
  9
$TDCREATE
 40
2456344.614861111
  9
$TDUCREATE
 40
2456344.531527778
  9
$TDUPDATE
 40
2457368.077300972
  9
$TDUUPDATE
 40
2457367.993967639
  9
$TDINDWG
 40
0.1174981481
  9
$TDUSRTIMER
 40
0.1174967824
  9
$USRTIMER
 70
     1
  9
$ANGBASE
 50
0.0
  9
$ANGDIR
 70
     0
  9
$PDMODE
 70
     0
  9
$PDSIZE
 40
0.0
  9
$PLINEWID
 40
0.0
  9
$SPLFRAME
 70
     0
  9
$SPLINETYPE
 70
     6
  9
$SPLINESEGS
 70
     8
  9
$HANDSEED
  5
12A5
  9
$SURFTAB1
 70
     6
  9
$SURFTAB2
 70
     6
  9
$SURFTYPE
 70
     6
  9
$SURFU
 70
     6
  9
$SURFV
 70
     6
  9
$UCSBASE
  2

  9
$UCSNAME
  2

  9
$UCSORG
 10
0.0
 20
0.0
 30
0.0
  9
$UCSXDIR
 10
1.0
 20
0.0
 30
0.0
  9
$UCSYDIR
 10
0.0
 20
1.0
 30
0.0
  9
$UCSORTHOREF
  2

  9
$UCSORTHOVIEW
 70
     0
  9
$UCSORGTOP
 10
0.0
 20
0.0
 30
0.0
  9
$UCSORGBOTTOM
 10
0.0
 20
0.0
 30
0.0
  9
$UCSORGLEFT
 10
0.0
 20
0.0
 30
0.0
  9
$UCSORGRIGHT
 10
0.0
 20
0.0
 30
0.0
  9
$UCSORGFRONT
 10
0.0
 20
0.0
 30
0.0
  9
$UCSORGBACK
 10
0.0
 20
0.0
 30
0.0
  9
$PUCSBASE
  2

  9
$PUCSNAME
  2

  9
$PUCSORG
 10
0.0
 20
0.0
 30
0.0
  9
$PUCSXDIR
 10
1.0
 20
0.0
 30
0.0
  9
$PUCSYDIR
 10
0.0
 20
1.0
 30
0.0
  9
$PUCSORTHOREF
  2

  9
$PUCSORTHOVIEW
 70
     0
  9
$PUCSORGTOP
 10
0.0
 20
0.0
 30
0.0
  9
$PUCSORGBOTTOM
 10
0.0
 20
0.0
 30
0.0
  9
$PUCSORGLEFT
 10
0.0
 20
0.0
 30
0.0
  9
$PUCSORGRIGHT
 10
0.0
 20
0.0
 30
0.0
  9
$PUCSORGFRONT
 10
0.0
 20
0.0
 30
0.0
  9
$PUCSORGBACK
 10
0.0
 20
0.0
 30
0.0
  9
$USERI1
 70
     0
  9
$USERI2
 70
     0
  9
$USERI3
 70
     0
  9
$USERI4
 70
     0
  9
$USERI5
 70
     0
  9
$USERR1
 40
0.0
  9
$USERR2
 40
0.0
  9
$USERR3
 40
0.0
  9
$USERR4
 40
0.0
  9
$USERR5
 40
0.0
  9
$WORLDVIEW
 70
     1
  9
$SHADEDGE
 70
     3
  9
$SHADEDIF
 70
    70
  9
$TILEMODE
 70
     1
  9
$MAXACTVP
 70
    64
  9
$PINSBASE
 10
0.0
 20
0.0
 30
0.0
  9
$PLIMCHECK
 70
     0
  9
$PEXTMIN
 10
1.000000000000000E+20
 20
1.000000000000000E+20
 30
1.000000000000000E+20
  9
$PEXTMAX
 10
-1.000000000000000E+20
 20
-1.000000000000000E+20
 30
-1.000000000000000E+20
  9
$PLIMMIN
 10
0.0
 20
0.0
  9
$PLIMMAX
 10
12.0
 20
9.0
  9
$UNITMODE
 70
     0
  9
$VISRETAIN
 70
     1
  9
$PLINEGEN
 70
     0
  9
$PSLTSCALE
 70
     1
  9
$TREEDEPTH
 70
  3020
  9
$CMLSTYLE
  2
STANDARD
  9
$CMLJUST
 70
     0
  9
$CMLSCALE
 40
1.0
  9
$PROXYGRAPHICS
 70
     1
  9
$MEASUREMENT
 70
     0
  9
$CELWEIGHT
370
    -1
  9
$ENDCAPS
280
     0
  9
$JOINSTYLE
280
     0
  9
$LWDISPLAY
290
     1
  9
$INSUNITS
 70
     1
  9
$HYPERLINKBASE
  1

  9
$STYLESHEET
  1

  9
$XEDIT
290
     1
  9
$CEPSNTYPE
380
     0
  9
$PSTYLEMODE
290
     1
  9
$FINGERPRINTGUID
  2
{5C928F74-1DCD-9DEC-A415-E63BDB60DB9B}
  9
$VERSIONGUID
  2
{EC099DB6-A1E9-4175-816A-F8B6C8C6B96C}
  9
$EXTNAMES
290
     1
  9
$PSVPSCALE
 40
0.0
  9
$OLESTARTUP
290
     0
  9
$SORTENTS
280
   127
  9
$INDEXCTL
280
     0
  9
$HIDETEXT
280
     0
  9
$XCLIPFRAME
280
     2
  9
$HALOGAP
280
     0
  9
$OBSCOLOR
 70
   257
  9
$OBSLTYPE
280
     0
  9
$INTERSECTIONDISPLAY
280
     0
  9
$INTERSECTIONCOLOR
 70
   257
  9
$DIMASSOC
280
     1
  9
$PROJECTNAME
  1

  9
$CAMERADISPLAY
290
     0
  9
$LENSLENGTH
 40
50.0
  9
$CAMERAHEIGHT
 40
0.0
  9
$STEPSPERSEC
 40
2.0
  9
$STEPSIZE
 40
6.0
  9
$3DDWFPREC
 40
2.0
  9
$PSOLWIDTH
 40
0.25
  9
$PSOLHEIGHT
 40
4.0
  9
$LOFTANG1
 40
1.570796326794896
  9
$LOFTANG2
 40
1.570796326794896
  9
$LOFTMAG1
 40
0.0
  9
$LOFTMAG2
 40
0.0
  9
$LOFTPARAM
 70
     7
  9
$LOFTNORMALS
280
     1
  9
$LATITUDE
 40
37.795
  9
$LONGITUDE
 40
-122.394
  9
$NORTHDIRECTION
 40
0.0
  9
$TIMEZONE
 70
 -8000
  9
$LIGHTGLYPHDISPLAY
280
     1
  9
$TILEMODELIGHTSYNCH
280
     1
  9
$CMATERIAL
347
7B1
  9
$SOLIDHIST
280
     0
  9
$SHOWHIST
280
     1
  9
$DWFFRAME
280
     2
  9
$DGNFRAME
280
     0
  9
$REALWORLDSCALE
290
     1
  9
$INTERFERECOLOR
 62
     1
  9
$INTERFEREOBJVS
345
33
  9
$INTERFEREVPVS
346
7C9
  9
$CSHADOW
280
     0
  9
$SHADOWPLANELOCATION
 40
0.0
  0
ENDSEC
  0
SECTION
  2
CLASSES
  0
CLASS
  1
ACDBDICTIONARYWDFLT
  2
AcDbDictionaryWithDefault
  3
ObjectDBX Classes
 90
        0
 91
        1
280
     0
281
     0
  0
CLASS
  1
VISUALSTYLE
  2
AcDbVisualStyle
  3
ObjectDBX Classes
 90
     4095
 91
       26
280
     0
281
     0
  0
CLASS
  1
MATERIAL
  2
AcDbMaterial
  3
ObjectDBX Classes
 90
     1153
 91
        3
280
     0
281
     0
  0
CLASS
  1
TABLESTYLE
  2
AcDbTableStyle
  3
ObjectDBX Classes
 90
     4095
 91
        1
280
     0
281
     0
  0
CLASS
  1
SCALE
  2
AcDbScale
  3
ObjectDBX Classes
 90
     1153
 91
       17
280
     0
281
     0
  0
CLASS
  1
MLEADERSTYLE
  2
AcDbMLeaderStyle
  3
ACDB_MLEADERSTYLE_CLASS
 90
     4095
 91
        1
280
     0
281
     0
  0
CLASS
  1
ACDBSECTIONVIEWSTYLE
  2
AcDbSectionViewStyle
  3
ObjectDBX Classes
 90
     1025
 91
        1
280
     0
281
     0
  0
CLASS
  1
ACDBDETAILVIEWSTYLE
  2
AcDbDetailViewStyle
  3
ObjectDBX Classes
 90
     1025
 91
        1
280
     0
281
     0
  0
CLASS
  1
SORTENTSTABLE
  2
AcDbSortentsTable
  3
ObjectDBX Classes
 90
        0
 91
        1
280
     0
281
     0
  0
CLASS
  1
DICTIONARYVAR
  2
AcDbDictionaryVar
  3
ObjectDBX Classes
 90
        0
 91
        9
280
     0
281
     0
  0
CLASS
  1
CELLSTYLEMAP
  2
AcDbCellStyleMap
  3
ObjectDBX Classes
 90
     1152
 91
        1
280
     0
281
     0
  0
CLASS
  1
ACARRAYJIGENTITY
  2
AcArrayJigEntity
  3
ACAD_ARRAY
 90
      129
 91
        0
280
     0
281
     1
  0
CLASS
  1
ACDBASSOCNETWORK
  2
AcDbAssocNetwork
  3
ObjectDBX Classes
 90
     1025
 91
        0
280
     0
281
     0
  0
CLASS
  1
ACDBASSOCACTION
  2
AcDbAssocAction
  3
ObjectDBX Classes
 90
     1025
 91
        0
280
     0
281
     0
  0
CLASS
  1
ACDBASSOCARRAYACTIONBODY
  2
AcDbAssocArrayActionBody
  3
ObjectDBX Classes
 90
     1025
 91
        0
280
     0
281
     0
  0
CLASS
  1
ACDBASSOCVERTEXACTIONPARAM
  2
AcDbAssocVertexActionParam
  3
ObjectDBX Classes
 90
     1025
 91
        0
280
     0
281
     0
  0
CLASS
  1
ACDBASSOCDEPENDENCY
  2
AcDbAssocDependency
  3
ObjectDBX Classes
 90
     1025
 91
        0
280
     0
281
     0
  0
CLASS
  1
ACDBASSOCARRAYRECTANGULARPARAMETERS
  2
AcDbAssocArrayRectangularParameters
  3
ObjectDBX Classes
 90
     1025
 91
        0
280
     0
281
     0
  0
ENDSEC
  0
SECTION
  2
TABLES
  0
TABLE
  2
VPORT
  5
8
330
0
100
AcDbSymbolTable
 70
     1
  0
VPORT
  5
29
330
8
100
AcDbSymbolTableRecord
100
AcDbViewportTableRecord
  2
*ACTIVE
 70
     0
 10
0.0
 20
0.0
 11
1.0
 21
1.0
 12
221.476578423123
 22
343.1704404787317
 13
0.0
 23
0.0
 14
0.5
 24
0.5
 15
0.5
 25
0.5
 16
0.0
 26
0.0
 36
1.0
 17
209.9997571632119
 27
-130.0003336263541
 37
0.0
 40
313.0447873807534
 41
2.26602564102564
 42
50.0
 43
0.0
 44
0.0
 50
0.0
 51
0.0
 71
     0
 72
   100
 73
     1
 74
     3
 75
     0
 76
     0
 77
     0
 78
     0
281
     0
 65
     1
110
0.0
120
0.0
130
0.0
111
1.0
121
0.0
131
0.0
112
0.0
122
1.0
132
0.0
 79
     0
146
0.0
348
2F
 60
     3
 61
     5
292
     1
282
     1
141
0.0
142
0.0
 63
   250
421
  3355443
1001
ACAD_NAV_VCDISPLAY
1070
     3
  0
ENDTAB
  0
TABLE
  2
LTYPE
  5
5
330
0
100
AcDbSymbolTable
 70
     1
  0
LTYPE
  5
14
330
5
100
AcDbSymbolTableRecord
100
AcDbLinetypeTableRecord
  2
BYBLOCK
 70
     0
  3

 72
    65
 73
     0
 40
0.0
  0
LTYPE
  5
15
330
5
100
AcDbSymbolTableRecord
100
AcDbLinetypeTableRecord
  2
BYLAYER
 70
     0
  3

 72
    65
 73
     0
 40
0.0
  0
LTYPE
  5
16
330
5
100
AcDbSymbolTableRecord
100
AcDbLinetypeTableRecord
  2
CONTINUOUS
 70
     0
  3
Solid line
 72
    65
 73
     0
 40
0.0
  0
ENDTAB
  0
TABLE
  2
LAYER
  5
2
102
{ACAD_XDICTIONARY
360
1292
102
}
330
0
100
AcDbSymbolTable
 70
     2
  0
LAYER
  5
10
102
{ACAD_XDICTIONARY
360
92D
102
}
330
2
100
AcDbSymbolTableRecord
100
AcDbLayerTableRecord
  2
0
 70
     0
 62
     7
  6
CONTINUOUS
370
    -3
390
7AF
347
7C1
348
0
  0
LAYER
  5
3B
102
{ACAD_XDICTIONARY
360
92F
102
}
330
2
100
AcDbSymbolTableRecord
100
AcDbLayerTableRecord
  2
EBENE_1
 70
     0
 62
     7
  6
CONTINUOUS
370
    -3
390
7AF
347
7C1
348
0
  0
ENDTAB
  0
TABLE
  2
STYLE
  5
3
330
0
100
AcDbSymbolTable
 70
     1
  0
STYLE
  5
11
330
3
100
AcDbSymbolTableRecord
100
AcDbTextStyleTableRecord
  2
STANDARD
 70
     0
 40
0.0
 41
1.0
 50
0.0
 71
     0
 42
0.2
  3
txt
  4

  0
ENDTAB
  0
TABLE
  2
VIEW
  5
6
330
0
100
AcDbSymbolTable
 70
     0
  0
ENDTAB
  0
TABLE
  2
UCS
  5
7
330
0
100
AcDbSymbolTable
 70
     0
  0
ENDTAB
  0
TABLE
  2
APPID
  5
9
330
0
100
AcDbSymbolTable
 70
     3
  0
APPID
  5
12
330
9
100
AcDbSymbolTableRecord
100
AcDbRegAppTableRecord
  2
ACAD
 70
     0
  0
APPID
  5
7F2
330
9
100
AcDbSymbolTableRecord
100
AcDbRegAppTableRecord
  2
ACAD_NAV_VCDISPLAY
 70
     0
  0
APPID
  5
7FB
330
9
100
AcDbSymbolTableRecord
100
AcDbRegAppTableRecord
  2
ACAD_EXEMPT_FROM_CAD_STANDARDS
 70
     0
  0
ENDTAB
  0
TABLE
  2
DIMSTYLE
  5
A
330
0
100
AcDbSymbolTable
 70
     1
100
AcDbDimStyleTable
 71
     1
340
27
  0
DIMSTYLE
105
27
330
A
100
AcDbSymbolTableRecord
100
AcDbDimStyleTableRecord
  2
STANDARD
 70
     0
340
11
  0
ENDTAB
  0
TABLE
  2
BLOCK_RECORD
  5
1
330
0
100
AcDbSymbolTable
 70
     0
  0
BLOCK_RECORD
  5
1F
102
{ACAD_XDICTIONARY
360
804
102
}
330
1
100
AcDbSymbolTableRecord
100
AcDbBlockTableRecord
  2
*MODEL_SPACE
340
7ED
 70
     0
280
     1
281
     0
  0
BLOCK_RECORD
  5
1B
330
1
100
AcDbSymbolTableRecord
100
AcDbBlockTableRecord
  2
*PAPER_SPACE
340
7EE
 70
     0
280
     1
281
     0
  0
ENDTAB
  0
ENDSEC
  0
SECTION
  2
BLOCKS
  0
BLOCK
  5
20
330
1F
100
AcDbEntity
  8
0
100
AcDbBlockBegin
  2
*MODEL_SPACE
 70
     0
 10
0.0
 20
0.0
 30
0.0
  3
*MODEL_SPACE
  1

  0
ENDBLK
  5
21
330
1F
100
AcDbEntity
  8
0
100
AcDbBlockEnd
  0
BLOCK
  5
1C
330
1B
100
AcDbEntity
 67
     1
  8
0
100
AcDbBlockBegin
  2
*PAPER_SPACE
 70
     0
 10
0.0
 20
0.0
 30
0.0
  3
*PAPER_SPACE
  1

  0
ENDBLK
  5
1D
330
1B
100
AcDbEntity
 67
     1
  8
0
100
AcDbBlockEnd
  0
ENDSEC
  0
SECTION
  2
ENTITIES
  0
SPLINE
  5
1038
102
{ACAD_REACTORS
330
129F
102
}
330
1F
100
AcDbEntity
  8
EBENE_1
 62
     0
100
AcDbSpline
210
0.0
220
0.0
230
1.0
 70
     9
 71
     3
 72
    41
 73
    37
 74
     0
 42
0.000000001
 43
0.0000000001
 40
0.0
 40
0.0
 40
0.0
 40
0.0
 40
1.0
 40
1.0
 40
1.0
 40
2.0
 40
2.0
 40
2.0
 40
3.0
 40
3.0
 40
3.0
 40
4.0
 40
4.0
 40
4.0
 40
5.0
 40
5.0
 40
5.0
 40
6.0
 40
6.0
 40
6.0
 40
7.0
 40
7.0
 40
7.0
 40
8.0
 40
8.0
 40
8.0
 40
9.0
 40
9.0
 40
9.0
 40
10.0
 40
10.0
 40
10.0
 40
11.0
 40
11.0
 40
11.0
 40
12.0
 40
12.0
 40
12.0
 40
12.0
 10
299.3748072949273
 20
336.1128920921618
 30
0.0
 10
305.0802299280498
 20
336.1128920921618
 30
0.0
 10
310.4625026046554
 20
333.8725464981038
 30
0.0
 10
314.5308158631871
 20
329.8038887300237
 30
0.0
 10
318.5991291217185
 20
325.7359199810409
 30
0.0
 10
320.8394747157765
 20
320.3533027948864
 30
0.0
 10
320.8394747157765
 20
314.6482246713127
 30
0.0
 10
320.8394747157765
 20
314.6482246713127
 30
0.0
 10
320.8394747157765
 20
285.5774754381291
 30
0.0
 10
320.8394747157765
 20
285.5774754381291
 30
0.0
 10
320.8394747157765
 20
279.8720528050068
 30
0.0
 10
318.5991291217185
 20
274.4894356188524
 30
0.0
 10
314.5308158631871
 20
270.4214668698695
 30
0.0
 10
310.4625026046554
 20
266.3531536113378
 30
0.0
 10
305.0802299280498
 20
264.1128080172798
 30
0.0
 10
299.3748072949273
 20
264.1128080172798
 30
0.0
 10
299.3748072949273
 20
264.1128080172798
 30
0.0
 10
270.3044025712923
 20
264.1128080172798
 30
0.0
 10
270.3044025712923
 20
264.1128080172798
 30
0.0
 10
264.59897993817
 20
264.1128080172798
 30
0.0
 10
259.2167072615641
 20
266.3531536113378
 30
0.0
 10
255.1483940030327
 20
270.4214668698695
 30
0.0
 10
251.080080744501
 20
274.4894356188524
 30
0.0
 10
248.8397351504432
 20
279.8720528050068
 30
0.0
 10
248.8397351504432
 20
285.5774754381291
 30
0.0
 10
248.8397351504432
 20
285.5774754381291
 30
0.0
 10
248.8397351504432
 20
314.6482246713127
 30
0.0
 10
248.8397351504432
 20
314.6482246713127
 30
0.0
 10
248.8397351504432
 20
320.3533027948864
 30
0.0
 10
251.080080744501
 20
325.7359199810409
 30
0.0
 10
255.1483940030327
 20
329.8038887300237
 30
0.0
 10
259.2167072615641
 20
333.8725464981038
 30
0.0
 10
264.59897993817
 20
336.1128920921618
 30
0.0
 10
270.3044025712923
 20
336.1128920921618
 30
0.0
 10
270.3044025712923
 20
336.1128920921618
 30
0.0
 10
299.3748072949273
 20
336.1128920921618
 30
0.0
 10
299.3748072949273
 20
336.1128920921618
 30
0.0
  0
LWPOLYLINE
  5
1039
330
1F
100
AcDbEntity
  8
EBENE_1
 62
     0
100
AcDbPolyline
 90
        2
 70
     0
 43
0.0
 10
184.1289528014506
 20
158.8336683734079
 10
184.1289528014506
 20
191.5345147193994
  0
LWPOLYLINE
  5
103A
330
1F
100
AcDbEntity
  8
EBENE_1
 62
     0
100
AcDbPolyline
 90
        2
 70
     0
 43
0.0
 10
184.1289528014506
 20
193.5340481390383
 10
184.1289528014506
 20
203.5334377849761
  0
LWPOLYLINE
  5
103B
330
1F
100
AcDbEntity
  8
EBENE_1
 62
     0
100
AcDbPolyline
 90
        2
 70
     0
 43
0.0
 10
188.129053169374
 20
158.8336683734079
 10
188.129053169374
 20
191.5345147193994
  0
LWPOLYLINE
  5
103C
330
1F
100
AcDbEntity
  8
EBENE_1
 62
     0
100
AcDbPolyline
 90
        2
 70
     0
 43
0.0
 10
188.129053169374
 20
193.5340481390383
 10
188.129053169374
 20
203.5334377849761
  0
LWPOLYLINE
  5
103D
330
1F
100
AcDbEntity
  8
EBENE_1
 62
     0
100
AcDbPolyline
 90
        2
 70
     0
 43
0.0
 10
192.1288090277489
 20
158.8336683734079
 10
192.1288090277489
 20
191.5345147193994
  0
LWPOLYLINE
  5
103E
330
1F
100
AcDbEntity
  8
EBENE_1
 62
     0
100
AcDbPolyline
 90
        2
 70
     0
 43
0.0
 10
192.1288090277489
 20
193.5340481390383
 10
192.1288090277489
 20
203.5334377849761
  0
LWPOLYLINE
  5
103F
330
1F
100
AcDbEntity
  8
EBENE_1
 62
     0
100
AcDbPolyline
 90
        2
 70
     0
 43
0.0
 10
186.128830730638
 20
177.5343356864411
 10
186.128830730638
 20
203.5334377849761
  0
LWPOLYLINE
  5
1040
330
1F
100
AcDbEntity
  8
EBENE_1
 62
     0
100
AcDbPolyline
 90
        2
 70
     0
 43
0.0
 10
186.128830730638
 20
158.8329793543109
 10
186.128830730638
 20
175.5341132477051
  0
LWPOLYLINE
  5
1041
330
1F
100
AcDbEntity
  8
EBENE_1
 62
     0
100
AcDbPolyline
 90
        2
 70
     0
 43
0.0
 10
190.1289310985614
 20
177.5343356864411
 10
190.1289310985614
 20
203.5334377849761
  0
LWPOLYLINE
  5
1042
330
1F
100
AcDbEntity
  8
EBENE_1
 62
     0
100
AcDbPolyline
 90
        2
 70
     0
 43
0.0
 10
190.1289310985614
 20
158.8329793543109
 10
190.1289310985614
 20
175.5341132477051
  0
LWPOLYLINE
  5
1043
330
1F
100
AcDbEntity
  8
EBENE_1
 62
     0
100
AcDbPolyline
 90
        2
 70
     0
 43
0.0
 10
196.1292539052213
 20
158.8336683734079
 10
196.1292539052213
 20
191.5345147193994
  0
LWPOLYLINE
  5
1044
330
1F
100
AcDbEntity
  8
EBENE_1
 62
     0
100
AcDbPolyline
 90
        2
 70
     0
 43
0.0
 10
196.1292539052213
 20
193.5340481390383
 10
196.1292539052213
 20
203.5334377849761
  0
LWPOLYLINE
  5
1045
330
1F
100
AcDbEntity
  8
EBENE_1
 62
     0
100
AcDbPolyline
 90
        2
 70
     0
 43
0.0
 10
200.1290097635962
 20
158.8336683734079
 10
200.1290097635962
 20
191.5345147193994
  0
LWPOLYLINE
  5
1046
330
1F
100
AcDbEntity
  8
EBENE_1
 62
     0
100
AcDbPolyline
 90
        2
 70
     0
 43
0.0
 10
200.1290097635962
 20
193.5340481390383
 10
200.1290097635962
 20
203.5334377849761
  0
LWPOLYLINE
  5
1047
330
1F
100
AcDbEntity
  8
EBENE_1
 62
     0
100
AcDbPolyline
 90
        2
 70
     0
 43
0.0
 10
204.1287656219711
 20
158.8336683734079
 10
204.1287656219711
 20
191.5345147193994
  0
LWPOLYLINE
  5
1048
330
1F
100
AcDbEntity
  8
EBENE_1
 62
     0
100
AcDbPolyline
 90
        2
 70
     0
 43
0.0
 10
204.1287656219711
 20
193.5340481390383
 10
204.1287656219711
 20
203.5334377849761
  0
LWPOLYLINE
  5
1049
330
1F
100
AcDbEntity
  8
EBENE_1
 62
     0
100
AcDbPolyline
 90
        2
 70
     0
 43
0.0
 10
194.1290314664849
 20
177.5343356864411
 10
194.1290314664849
 20
203.5334377849761
  0
LWPOLYLINE
  5
104A
330
1F
100
AcDbEntity
  8
EBENE_1
 62
     0
100
AcDbPolyline
 90
        2
 70
     0
 43
0.0
 10
194.1290314664849
 20
158.8329793543109
 10
194.1290314664849
 20
175.5341132477051
  0
LWPOLYLINE
  5
104B
330
1F
100
AcDbEntity
  8
EBENE_1
 62
     0
100
AcDbPolyline
 90
        2
 70
     0
 43
0.0
 10
198.1287873248601
 20
177.5343356864411
 10
198.1287873248601
 20
203.5334377849761
  0
LWPOLYLINE
  5
104C
330
1F
100
AcDbEntity
  8
EBENE_1
 62
     0
100
AcDbPolyline
 90
        2
 70
     0
 43
0.0
 10
198.1287873248601
 20
158.8329793543109
 10
198.1287873248601
 20
175.5341132477051
  0
LWPOLYLINE
  5
104D
330
1F
100
AcDbEntity
  8
EBENE_1
 62
     0
100
AcDbPolyline
 90
        2
 70
     0
 43
0.0
 10
202.1292322023322
 20
177.5343356864411
 10
202.1292322023322
 20
203.5334377849761
  0
LWPOLYLINE
  5
104E
330
1F
100
AcDbEntity
  8
EBENE_1
 62
     0
100
AcDbPolyline
 90
        2
 70
     0
 43
0.0
 10
202.1292322023322
 20
158.8329793543109
 10
202.1292322023322
 20
175.5341132477051
  0
LWPOLYLINE
  5
104F
330
1F
100
AcDbEntity
  8
EBENE_1
 62
     0
100
AcDbPolyline
 90
        2
 70
     0
 43
0.0
 10
208.1292104994436
 20
158.8336683734079
 10
208.1292104994436
 20
191.5345147193994
  0
LWPOLYLINE
  5
1050
330
1F
100
AcDbEntity
  8
EBENE_1
 62
     0
100
AcDbPolyline
 90
        2
 70
     0
 43
0.0
 10
208.1292104994436
 20
193.5340481390383
 10
208.1292104994436
 20
203.5334377849761
  0
LWPOLYLINE
  5
1051
330
1F
100
AcDbEntity
  8
EBENE_1
 62
     0
100
AcDbPolyline
 90
        2
 70
     0
 43
0.0
 10
212.1289663578185
 20
158.8336683734079
 10
212.1289663578185
 20
191.5345147193994
  0
LWPOLYLINE
  5
1052
330
1F
100
AcDbEntity
  8
EBENE_1
 62
     0
100
AcDbPolyline
 90
        2
 70
     0
 43
0.0
 10
212.1289663578185
 20
193.5340481390383
 10
212.1289663578185
 20
203.5334377849761
  0
LWPOLYLINE
  5
1053
330
1F
100
AcDbEntity
  8
EBENE_1
 62
     0
100
AcDbPolyline
 90
        2
 70
     0
 43
0.0
 10
216.1290667257419
 20
158.8336683734079
 10
216.1290667257419
 20
191.5345147193994
  0
LWPOLYLINE
  5
1054
330
1F
100
AcDbEntity
  8
EBENE_1
 62
     0
100
AcDbPolyline
 90
        2
 70
     0
 43
0.0
 10
216.1290667257419
 20
193.5340481390383
 10
216.1290667257419
 20
203.5334377849761
  0
LWPOLYLINE
  5
1055
330
1F
100
AcDbEntity
  8
EBENE_1
 62
     0
100
AcDbPolyline
 90
        2
 70
     0
 43
0.0
 10
206.1289880607073
 20
177.5343356864411
 10
206.1289880607073
 20
203.5334377849761
  0
LWPOLYLINE
  5
1056
330
1F
100
AcDbEntity
  8
EBENE_1
 62
     0
100
AcDbPolyline
 90
        2
 70
     0
 43
0.0
 10
206.1289880607073
 20
158.8329793543109
 10
206.1289880607073
 20
175.5341132477051
  0
LWPOLYLINE
  5
1057
330
1F
100
AcDbEntity
  8
EBENE_1
 62
     0
100
AcDbPolyline
 90
        2
 70
     0
 43
0.0
 10
210.1290884286311
 20
177.5343356864411
 10
210.1290884286311
 20
203.5334377849761
  0
LWPOLYLINE
  5
1058
330
1F
100
AcDbEntity
  8
EBENE_1
 62
     0
100
AcDbPolyline
 90
        2
 70
     0
 43
0.0
 10
210.1290884286311
 20
158.8329793543109
 10
210.1290884286311
 20
175.5341132477051
  0
LWPOLYLINE
  5
1059
330
1F
100
AcDbEntity
  8
EBENE_1
 62
     0
100
AcDbPolyline
 90
        2
 70
     0
 43
0.0
 10
214.1291887965545
 20
177.5343356864411
 10
214.1291887965545
 20
203.5334377849761
  0
LWPOLYLINE
  5
105A
330
1F
100
AcDbEntity
  8
EBENE_1
 62
     0
100
AcDbPolyline
 90
        2
 70
     0
 43
0.0
 10
214.1291887965545
 20
158.8329793543109
 10
214.1291887965545
 20
175.5341132477051
  0
LWPOLYLINE
  5
105B
330
1F
100
AcDbEntity
  8
EBENE_1
 62
     0
100
AcDbPolyline
 90
        2
 70
     0
 43
0.0
 10
218.1289446549294
 20
177.5343356864411
 10
218.1289446549294
 20
203.5334377849761
  0
LWPOLYLINE
  5
105C
330
1F
100
AcDbEntity
  8
EBENE_1
 62
     0
100
AcDbPolyline
 90
        2
 70
     0
 43
0.0
 10
218.1289446549294
 20
158.8329793543109
 10
218.1289446549294
 20
175.5341132477051
  0
LWPOLYLINE
  5
105D
330
1F
100
AcDbEntity
  8
EBENE_1
 62
     0
100
AcDbPolyline
 90
        2
 70
     0
 43
0.0
 10
220.1288225841171
 20
158.8336683734079
 10
220.1288225841171
 20
191.5345147193994
  0
LWPOLYLINE
  5
105E
330
1F
100
AcDbEntity
  8
EBENE_1
 62
     0
100
AcDbPolyline
 90
        2
 70
     0
 43
0.0
 10
220.1288225841171
 20
193.5340481390383
 10
220.1288225841171
 20
203.5334377849761
  0
SPLINE
  5
105F
102
{ACAD_REACTORS
330
12A0
102
}
330
1F
100
AcDbEntity
  8
EBENE_1
 62
     0
100
AcDbSpline
210
0.0
220
0.0
230
1.0
 70
    11
 71
     3
 72
   137
 73
   133
 74
     0
 42
0.000000001
 43
0.0000000001
 40
0.0
 40
0.0
 40
0.0
 40
0.0
 40
1.0
 40
1.0
 40
1.0
 40
2.0
 40
2.0
 40
2.0
 40
3.0
 40
3.0
 40
3.0
 40
4.0
 40
4.0
 40
4.0
 40
5.0
 40
5.0
 40
5.0
 40
6.0
 40
6.0
 40
6.0
 40
7.0
 40
7.0
 40
7.0
 40
8.0
 40
8.0
 40
8.0
 40
9.0
 40
9.0
 40
9.0
 40
10.0
 40
10.0
 40
10.0
 40
11.0
 40
11.0
 40
11.0
 40
12.0
 40
12.0
 40
12.0
 40
13.0
 40
13.0
 40
13.0
 40
14.0
 40
14.0
 40
14.0
 40
15.0
 40
15.0
 40
15.0
 40
16.0
 40
16.0
 40
16.0
 40
17.0
 40
17.0
 40
17.0
 40
18.0
 40
18.0
 40
18.0
 40
19.0
 40
19.0
 40
19.0
 40
20.0
 40
20.0
 40
20.0
 40
21.0
 40
21.0
 40
21.0
 40
22.0
 40
22.0
 40
22.0
 40
23.0
 40
23.0
 40
23.0
 40
24.0
 40
24.0
 40
24.0
 40
25.0
 40
25.0
 40
25.0
 40
26.0
 40
26.0
 40
26.0
 40
27.0
 40
27.0
 40
27.0
 40
28.0
 40
28.0
 40
28.0
 40
29.0
 40
29.0
 40
29.0
 40
30.0
 40
30.0
 40
30.0
 40
31.0
 40
31.0
 40
31.0
 40
32.0
 40
32.0
 40
32.0
 40
33.0
 40
33.0
 40
33.0
 40
34.0
 40
34.0
 40
34.0
 40
35.0
 40
35.0
 40
35.0
 40
36.0
 40
36.0
 40
36.0
 40
37.0
 40
37.0
 40
37.0
 40
38.0
 40
38.0
 40
38.0
 40
39.0
 40
39.0
 40
39.0
 40
40.0
 40
40.0
 40
40.0
 40
41.0
 40
41.0
 40
41.0
 40
42.0
 40
42.0
 40
42.0
 40
43.0
 40
43.0
 40
43.0
 40
44.0
 40
44.0
 40
44.0
 40
44.0
 10
330.0140613625345
 20
213.1256963599834
 30
0.0
 10
330.0140613625345
 20
213.1256963599834
 30
0.0
 10
330.0140613625345
 20
218.4259757640403
 30
0.0
 10
330.0140613625345
 20
218.4259757640403
 30
0.0
 10
330.0140613625345
 20
218.4259757640403
 30
0.0
 10
326.9644628389912
 20
218.4259757640403
 30
0.0
 10
326.9644628389912
 20
218.4259757640403
 30
0.0
 10
326.9644628389912
 20
218.4259757640403
 30
0.0
 10
326.9644628389912
 20
221.5358634585753
 30
0.0
 10
326.9644628389912
 20
221.5358634585753
 30
0.0
 10
326.9644628389912
 20
221.5358634585753
 30
0.0
 10
326.9644628389912
 20
221.5358634585753
 30
0.0
 10
326.9644628389912
 20
221.5358634585753
 30
0.0
 10
326.9644628389912
 20
235.54155464431
 30
0.0
 10
315.505386235953
 20
247.0006312473481
 30
0.0
 10
301.4996950502186
 20
247.0006312473481
 30
0.0
 10
301.4996950502186
 20
247.0006312473481
 30
0.0
 10
298.3898073556835
 20
247.0006312473481
 30
0.0
 10
298.3898073556835
 20
247.0006312473481
 30
0.0
 10
298.3898073556835
 20
247.0006312473481
 30
0.0
 10
298.3898073556835
 20
250.0498852613427
 30
0.0
 10
298.3898073556835
 20
250.0498852613427
 30
0.0
 10
298.3898073556835
 20
250.0498852613427
 30
0.0
 10
293.0895279516268
 20
250.0498852613427
 30
0.0
 10
293.0895279516268
 20
250.0498852613427
 30
0.0
 10
293.0895279516268
 20
250.0498852613427
 30
0.0
 10
293.0895279516268
 20
247.0006312473481
 30
0.0
 10
293.0895279516268
 20
247.0006312473481
 30
0.0
 10
293.0895279516268
 20
247.0006312473481
 30
0.0
 10
280.8394574251754
 20
247.0006312473481
 30
0.0
 10
280.8394574251754
 20
247.0006312473481
 30
0.0
 10
280.8394574251754
 20
247.0006312473481
 30
0.0
 10
280.8394574251754
 20
250.0498852613427
 30
0.0
 10
280.8394574251754
 20
250.0498852613427
 30
0.0
 10
280.8394574251754
 20
250.0498852613427
 30
0.0
 10
275.5391780211186
 20
250.0498852613427
 30
0.0
 10
275.5391780211186
 20
250.0498852613427
 30
0.0
 10
275.5391780211186
 20
250.0498852613427
 30
0.0
 10
275.5391780211186
 20
247.0006312473481
 30
0.0
 10
275.5391780211186
 20
247.0006312473481
 30
0.0
 10
275.5391780211186
 20
247.0006312473481
 30
0.0
 10
272.4292903265834
 20
247.0006312473481
 30
0.0
 10
272.4292903265834
 20
247.0006312473481
 30
0.0
 10
258.4235991408489
 20
247.0006312473481
 30
0.0
 10
246.9645225378108
 20
235.54155464431
 30
0.0
 10
246.9645225378108
 20
221.5358634585753
 30
0.0
 10
246.9645225378108
 20
221.5358634585753
 30
0.0
 10
246.9645225378108
 20
221.5358634585753
 30
0.0
 10
246.9645225378108
 20
221.5358634585753
 30
0.0
 10
246.9645225378108
 20
221.5358634585753
 30
0.0
 10
246.9645225378108
 20
218.4256312544918
 30
0.0
 10
246.9645225378108
 20
218.4256312544918
 30
0.0
 10
246.9645225378108
 20
218.4256312544918
 30
0.0
 10
243.9149240142676
 20
218.4256312544918
 30
0.0
 10
243.9149240142676
 20
218.4256312544918
 30
0.0
 10
243.9149240142676
 20
218.4256312544918
 30
0.0
 10
243.9149240142676
 20
213.1256963599834
 30
0.0
 10
243.9149240142676
 20
213.1256963599834
 30
0.0
 10
243.9149240142676
 20
213.1256963599834
 30
0.0
 10
246.9645225378108
 20
213.1256963599834
 30
0.0
 10
246.9645225378108
 20
213.1256963599834
 30
0.0
 10
246.9645225378108
 20
213.1256963599834
 30
0.0
 10
246.9645225378108
 20
200.8756258335321
 30
0.0
 10
246.9645225378108
 20
200.8756258335321
 30
0.0
 10
246.9645225378108
 20
200.8756258335321
 30
0.0
 10
243.9149240142676
 20
200.8756258335321
 30
0.0
 10
243.9149240142676
 20
200.8756258335321
 30
0.0
 10
243.9149240142676
 20
200.8756258335321
 30
0.0
 10
243.9149240142676
 20
195.5750019199267
 30
0.0
 10
243.9149240142676
 20
195.5750019199267
 30
0.0
 10
243.9149240142676
 20
195.5750019199267
 30
0.0
 10
246.9645225378108
 20
195.5750019199267
 30
0.0
 10
246.9645225378108
 20
195.5750019199267
 30
0.0
 10
246.9645225378108
 20
195.5750019199267
 30
0.0
 10
246.9645225378108
 20
192.4654587349402
 30
0.0
 10
246.9645225378108
 20
192.4654587349402
 30
0.0
 10
246.9645225378108
 20
192.4654587349402
 30
0.0
 10
246.9645225378108
 20
192.4654587349402
 30
0.0
 10
246.9645225378108
 20
192.4654587349402
 30
0.0
 10
246.9645225378108
 20
178.4597675492054
 30
0.0
 10
258.4235991408489
 20
167.0006909461675
 30
0.0
 10
272.4292903265834
 20
167.0006909461675
 30
0.0
 10
272.4292903265834
 20
167.0006909461675
 30
0.0
 10
275.5391780211186
 20
167.0006909461675
 30
0.0
 10
275.5391780211186
 20
167.0006909461675
 30
0.0
 10
275.5391780211186
 20
167.0006909461675
 30
0.0
 10
275.5391780211186
 20
163.9510924226243
 30
0.0
 10
275.5391780211186
 20
163.9510924226243
 30
0.0
 10
275.5391780211186
 20
163.9510924226243
 30
0.0
 10
280.8394574251754
 20
163.9510924226243
 30
0.0
 10
280.8394574251754
 20
163.9510924226243
 30
0.0
 10
280.8394574251754
 20
163.9510924226243
 30
0.0
 10
280.8394574251754
 20
167.0006909461675
 30
0.0
 10
280.8394574251754
 20
167.0006909461675
 30
0.0
 10
280.8394574251754
 20
167.0006909461675
 30
0.0
 10
293.0895279516268
 20
167.0006909461675
 30
0.0
 10
293.0895279516268
 20
167.0006909461675
 30
0.0
 10
293.0895279516268
 20
167.0006909461675
 30
0.0
 10
293.0895279516268
 20
163.9510924226243
 30
0.0
 10
293.0895279516268
 20
163.9510924226243
 30
0.0
 10
293.0895279516268
 20
163.9510924226243
 30
0.0
 10
298.3898073556835
 20
163.9510924226243
 30
0.0
 10
298.3898073556835
 20
163.9510924226243
 30
0.0
 10
298.3898073556835
 20
163.9510924226243
 30
0.0
 10
298.3898073556835
 20
167.0006909461675
 30
0.0
 10
298.3898073556835
 20
167.0006909461675
 30
0.0
 10
298.3898073556835
 20
167.0006909461675
 30
0.0
 10
301.4996950502186
 20
167.0006909461675
 30
0.0
 10
301.4996950502186
 20
167.0006909461675
 30
0.0
 10
315.505386235953
 20
167.0006909461675
 30
0.0
 10
326.9644628389912
 20
178.4597675492054
 30
0.0
 10
326.9644628389912
 20
192.4654587349402
 30
0.0
 10
326.9644628389912
 20
192.4654587349402
 30
0.0
 10
326.9644628389912
 20
192.4654587349402
 30
0.0
 10
326.9644628389912
 20
192.4654587349402
 30
0.0
 10
326.9644628389912
 20
192.4654587349402
 30
0.0
 10
326.9644628389912
 20
195.5753464294751
 30
0.0
 10
326.9644628389912
 20
195.5753464294751
 30
0.0
 10
326.9644628389912
 20
195.5753464294751
 30
0.0
 10
330.0140613625345
 20
195.5753464294751
 30
0.0
 10
330.0140613625345
 20
195.5753464294751
 30
0.0
 10
330.0140613625345
 20
195.5753464294751
 30
0.0
 10
330.0140613625345
 20
200.8756258335321
 30
0.0
 10
330.0140613625345
 20
200.8756258335321
 30
0.0
 10
330.0140613625345
 20
200.8756258335321
 30
0.0
 10
326.9644628389912
 20
200.8756258335321
 30
0.0
 10
326.9644628389912
 20
200.8756258335321
 30
0.0
 10
326.9644628389912
 20
200.8756258335321
 30
0.0
 10
326.9644628389912
 20
213.1256963599834
 30
0.0
 10
326.9644628389912
 20
213.1256963599834
 30
0.0
 10
326.9644628389912
 20
213.1256963599834
 30
0.0
 10
330.0140613625345
 20
213.1256963599834
 30
0.0
 10
330.0140613625345
 20
213.1256963599834
 30
0.0
  0
SPLINE
  5
1060
102
{ACAD_REACTORS
330
129F
102
}
330
1F
100
AcDbEntity
  8
EBENE_1
 62
     0
100
AcDbSpline
210
0.0
220
0.0
230
1.0
 70
    11
 71
     3
 72
   137
 73
   133
 74
     0
 42
0.000000001
 43
0.0000000001
 40
0.0
 40
0.0
 40
0.0
 40
0.0
 40
1.0
 40
1.0
 40
1.0
 40
2.0
 40
2.0
 40
2.0
 40
3.0
 40
3.0
 40
3.0
 40
4.0
 40
4.0
 40
4.0
 40
5.0
 40
5.0
 40
5.0
 40
6.0
 40
6.0
 40
6.0
 40
7.0
 40
7.0
 40
7.0
 40
8.0
 40
8.0
 40
8.0
 40
9.0
 40
9.0
 40
9.0
 40
10.0
 40
10.0
 40
10.0
 40
11.0
 40
11.0
 40
11.0
 40
12.0
 40
12.0
 40
12.0
 40
13.0
 40
13.0
 40
13.0
 40
14.0
 40
14.0
 40
14.0
 40
15.0
 40
15.0
 40
15.0
 40
16.0
 40
16.0
 40
16.0
 40
17.0
 40
17.0
 40
17.0
 40
18.0
 40
18.0
 40
18.0
 40
19.0
 40
19.0
 40
19.0
 40
20.0
 40
20.0
 40
20.0
 40
21.0
 40
21.0
 40
21.0
 40
22.0
 40
22.0
 40
22.0
 40
23.0
 40
23.0
 40
23.0
 40
24.0
 40
24.0
 40
24.0
 40
25.0
 40
25.0
 40
25.0
 40
26.0
 40
26.0
 40
26.0
 40
27.0
 40
27.0
 40
27.0
 40
28.0
 40
28.0
 40
28.0
 40
29.0
 40
29.0
 40
29.0
 40
30.0
 40
30.0
 40
30.0
 40
31.0
 40
31.0
 40
31.0
 40
32.0
 40
32.0
 40
32.0
 40
33.0
 40
33.0
 40
33.0
 40
34.0
 40
34.0
 40
34.0
 40
35.0
 40
35.0
 40
35.0
 40
36.0
 40
36.0
 40
36.0
 40
37.0
 40
37.0
 40
37.0
 40
38.0
 40
38.0
 40
38.0
 40
39.0
 40
39.0
 40
39.0
 40
40.0
 40
40.0
 40
40.0
 40
41.0
 40
41.0
 40
41.0
 40
42.0
 40
42.0
 40
42.0
 40
43.0
 40
43.0
 40
43.0
 40
44.0
 40
44.0
 40
44.0
 40
44.0
 10
327.8891736072432
 20
306.2380575727208
 30
0.0
 10
327.8891736072432
 20
306.2380575727208
 30
0.0
 10
327.8891736072432
 20
311.5379924672292
 30
0.0
 10
327.8891736072432
 20
311.5379924672292
 30
0.0
 10
327.8891736072432
 20
311.5379924672292
 30
0.0
 10
324.8395750837002
 20
311.5379924672292
 30
0.0
 10
324.8395750837002
 20
311.5379924672292
 30
0.0
 10
324.8395750837002
 20
311.5379924672292
 30
0.0
 10
324.8395750837002
 20
314.6478801617641
 30
0.0
 10
324.8395750837002
 20
314.6478801617641
 30
0.0
 10
324.8395750837002
 20
314.6478801617641
 30
0.0
 10
324.8395750837002
 20
314.6482246713127
 30
0.0
 10
324.8395750837002
 20
314.6482246713127
 30
0.0
 10
324.8395750837002
 20
328.6539158570474
 30
0.0
 10
313.3804984806622
 20
340.1129924600855
 30
0.0
 10
299.3748072949273
 20
340.1129924600855
 30
0.0
 10
299.3748072949273
 20
340.1129924600855
 30
0.0
 10
296.2649196003924
 20
340.1129924600855
 30
0.0
 10
296.2649196003924
 20
340.1129924600855
 30
0.0
 10
296.2649196003924
 20
340.1129924600855
 30
0.0
 10
296.2649196003924
 20
343.1619019645316
 30
0.0
 10
296.2649196003924
 20
343.1619019645316
 30
0.0
 10
296.2649196003924
 20
343.1619019645316
 30
0.0
 10
290.9646401963357
 20
343.1619019645316
 30
0.0
 10
290.9646401963357
 20
343.1619019645316
 30
0.0
 10
290.9646401963357
 20
343.1619019645316
 30
0.0
 10
290.9646401963357
 20
340.1129924600855
 30
0.0
 10
290.9646401963357
 20
340.1129924600855
 30
0.0
 10
290.9646401963357
 20
340.1129924600855
 30
0.0
 10
278.7145696698842
 20
340.1129924600855
 30
0.0
 10
278.7145696698842
 20
340.1129924600855
 30
0.0
 10
278.7145696698842
 20
340.1129924600855
 30
0.0
 10
278.7145696698842
 20
343.1619019645316
 30
0.0
 10
278.7145696698842
 20
343.1619019645316
 30
0.0
 10
278.7145696698842
 20
343.1619019645316
 30
0.0
 10
273.4142902658273
 20
343.1619019645316
 30
0.0
 10
273.4142902658273
 20
343.1619019645316
 30
0.0
 10
273.4142902658273
 20
343.1619019645316
 30
0.0
 10
273.4142902658273
 20
340.1129924600855
 30
0.0
 10
273.4142902658273
 20
340.1129924600855
 30
0.0
 10
273.4142902658273
 20
340.1129924600855
 30
0.0
 10
270.3044025712923
 20
340.1129924600855
 30
0.0
 10
270.3044025712923
 20
340.1129924600855
 30
0.0
 10
256.2987113855576
 20
340.1129924600855
 30
0.0
 10
244.8396347825194
 20
328.6539158570474
 30
0.0
 10
244.8396347825194
 20
314.6482246713127
 30
0.0
 10
244.8396347825194
 20
314.6482246713127
 30
0.0
 10
244.8396347825194
 20
314.6478801617641
 30
0.0
 10
244.8396347825194
 20
314.6478801617641
 30
0.0
 10
244.8396347825194
 20
314.6478801617641
 30
0.0
 10
244.8396347825194
 20
311.5379924672292
 30
0.0
 10
244.8396347825194
 20
311.5379924672292
 30
0.0
 10
244.8396347825194
 20
311.5379924672292
 30
0.0
 10
241.7900362589764
 20
311.5379924672292
 30
0.0
 10
241.7900362589764
 20
311.5379924672292
 30
0.0
 10
241.7900362589764
 20
311.5379924672292
 30
0.0
 10
241.7900362589764
 20
306.2377130631722
 30
0.0
 10
241.7900362589764
 20
306.2377130631722
 30
0.0
 10
241.7900362589764
 20
306.2377130631722
 30
0.0
 10
244.8396347825194
 20
306.2377130631722
 30
0.0
 10
244.8396347825194
 20
306.2377130631722
 30
0.0
 10
244.8396347825194
 20
306.2377130631722
 30
0.0
 10
244.8396347825194
 20
293.9876425367209
 30
0.0
 10
244.8396347825194
 20
293.9876425367209
 30
0.0
 10
244.8396347825194
 20
293.9876425367209
 30
0.0
 10
241.7900362589764
 20
293.9876425367209
 30
0.0
 10
241.7900362589764
 20
293.9876425367209
 30
0.0
 10
241.7900362589764
 20
293.9876425367209
 30
0.0
 10
241.7900362589764
 20
288.687363132664
 30
0.0
 10
241.7900362589764
 20
288.687363132664
 30
0.0
 10
241.7900362589764
 20
288.687363132664
 30
0.0
 10
244.8396347825194
 20
288.687363132664
 30
0.0
 10
244.8396347825194
 20
288.687363132664
 30
0.0
 10
244.8396347825194
 20
288.687363132664
 30
0.0
 10
244.8396347825194
 20
285.5778199476776
 30
0.0
 10
244.8396347825194
 20
285.5778199476776
 30
0.0
 10
244.8396347825194
 20
285.5778199476776
 30
0.0
 10
244.8396347825194
 20
285.5774754381291
 30
0.0
 10
244.8396347825194
 20
285.5774754381291
 30
0.0
 10
244.8396347825194
 20
271.5717842523943
 30
0.0
 10
256.2987113855576
 20
260.1127076493564
 30
0.0
 10
270.3044025712923
 20
260.1127076493564
 30
0.0
 10
270.3044025712923
 20
260.1127076493564
 30
0.0
 10
273.4142902658273
 20
260.1127076493564
 30
0.0
 10
273.4142902658273
 20
260.1127076493564
 30
0.0
 10
273.4142902658273
 20
260.1127076493564
 30
0.0
 10
273.4142902658273
 20
257.0634536353617
 30
0.0
 10
273.4142902658273
 20
257.0634536353617
 30
0.0
 10
273.4142902658273
 20
257.0634536353617
 30
0.0
 10
278.7145696698842
 20
257.0634536353617
 30
0.0
 10
278.7145696698842
 20
257.0634536353617
 30
0.0
 10
278.7145696698842
 20
257.0634536353617
 30
0.0
 10
278.7145696698842
 20
260.1127076493564
 30
0.0
 10
278.7145696698842
 20
260.1127076493564
 30
0.0
 10
278.7145696698842
 20
260.1127076493564
 30
0.0
 10
290.9646401963357
 20
260.1127076493564
 30
0.0
 10
290.9646401963357
 20
260.1127076493564
 30
0.0
 10
290.9646401963357
 20
260.1127076493564
 30
0.0
 10
290.9646401963357
 20
257.0634536353617
 30
0.0
 10
290.9646401963357
 20
257.0634536353617
 30
0.0
 10
290.9646401963357
 20
257.0634536353617
 30
0.0
 10
296.2649196003924
 20
257.0634536353617
 30
0.0
 10
296.2649196003924
 20
257.0634536353617
 30
0.0
 10
296.2649196003924
 20
257.0634536353617
 30
0.0
 10
296.2649196003924
 20
260.1127076493564
 30
0.0
 10
296.2649196003924
 20
260.1127076493564
 30
0.0
 10
296.2649196003924
 20
260.1127076493564
 30
0.0
 10
299.3748072949273
 20
260.1127076493564
 30
0.0
 10
299.3748072949273
 20
260.1127076493564
 30
0.0
 10
313.3804984806622
 20
260.1127076493564
 30
0.0
 10
324.8395750837002
 20
271.5717842523943
 30
0.0
 10
324.8395750837002
 20
285.5774754381291
 30
0.0
 10
324.8395750837002
 20
285.5774754381291
 30
0.0
 10
324.8395750837002
 20
285.5778199476776
 30
0.0
 10
324.8395750837002
 20
285.5778199476776
 30
0.0
 10
324.8395750837002
 20
285.5778199476776
 30
0.0
 10
324.8395750837002
 20
288.687363132664
 30
0.0
 10
324.8395750837002
 20
288.687363132664
 30
0.0
 10
324.8395750837002
 20
288.687363132664
 30
0.0
 10
327.8891736072432
 20
288.687363132664
 30
0.0
 10
327.8891736072432
 20
288.687363132664
 30
0.0
 10
327.8891736072432
 20
288.687363132664
 30
0.0
 10
327.8891736072432
 20
293.9879870462694
 30
0.0
 10
327.8891736072432
 20
293.9879870462694
 30
0.0
 10
327.8891736072432
 20
293.9879870462694
 30
0.0
 10
324.8395750837002
 20
293.9879870462694
 30
0.0
 10
324.8395750837002
 20
293.9879870462694
 30
0.0
 10
324.8395750837002
 20
293.9879870462694
 30
0.0
 10
324.8395750837002
 20
306.2380575727208
 30
0.0
 10
324.8395750837002
 20
306.2380575727208
 30
0.0
 10
324.8395750837002
 20
306.2380575727208
 30
0.0
 10
327.8891736072432
 20
306.2380575727208
 30
0.0
 10
327.8891736072432
 20
306.2380575727208
 30
0.0
  0
LWPOLYLINE
  5
1061
330
1F
100
AcDbEntity
  8
0
100
AcDbPolyline
 90
       52
 70
     1
 43
0.0
 10
174.5539310874489
 20
203.5334377849761
 10
166.5789473804907
 20
203.5334377849761
 10
166.5789473804907
 20
198.5332261976844
 10
169.679188807667
 20
198.5332261976844
 10
169.679188807667
 20
193.8330824271581
 10
166.5789473804907
 20
193.8330824271581
 10
166.5789473804907
 20
188.5331475326497
 10
169.679188807667
 20
188.5331475326497
 10
169.679188807667
 20
183.8333482716718
 10
166.5789473804907
 20
183.8333482716718
 10
166.5789473804907
 20
178.533068867615
 10
169.679188807667
 20
178.533068867615
 10
169.679188807667
 20
173.8329250970887
 10
166.5789473804907
 20
173.8329250970887
 10
166.5789473804907
 20
168.5329902025804
 10
169.679188807667
 20
168.5329902025804
 10
169.679188807667
 20
163.8331909416024
 10
166.5789473804907
 20
163.8331909416024
 10
166.5789473804907
 20
158.8336683734079
 10
174.5543434288442
 20
158.8336683734079
 10
174.5543434288442
 20
161.9332207814871
 10
179.2541426898219
 20
161.9332207814871
 10
179.2541426898219
 20
158.8336683734079
 10
225.0039772052942
 20
158.8329793543109
 10
225.0039772052942
 20
161.9335652910358
 10
229.7037764662721
 20
161.9335652910358
 10
229.7037764662721
 20
158.8329793543109
 10
234.5789310874488
 20
158.8329793543109
 10
234.5789310874488
 20
163.5331231248372
 10
237.6791725146255
 20
163.5331231248372
 10
237.6791725146255
 20
168.8334025288941
 10
234.5789310874488
 20
168.8334025288941
 10
234.5789310874488
 20
173.533201789872
 10
237.6791725146255
 20
173.533201789872
 10
237.6791725146255
 20
178.8331366843802
 10
234.5789310874488
 20
178.8331366843802
 10
234.5789310874488
 20
183.5332804549067
 10
237.6791725146255
 20
183.5332804549067
 10
237.6791725146255
 20
188.8335598589634
 10
234.5789310874488
 20
188.8335598589634
 10
234.5789310874488
 20
193.5333591199412
 10
237.6791725146255
 20
193.5333591199412
 10
237.6791725146255
 20
198.8332940144497
 10
234.5789310874488
 20
198.8332940144497
 10
234.5789310874488
 20
203.5334377849761
 10
229.7037310874489
 20
203.5334377849761
 10
229.7037310874489
 20
200.4330377849761
 10
225.003931087449
 20
200.4330377849761
 10
225.003931087449
 20
203.5334377849761
 10
179.2537310874489
 20
203.5334377849761
 10
179.2537310874489
 20
200.4330377849761
 10
174.5539310874489
 20
200.4330377849761
  0
LWPOLYLINE
  5
1173
330
1F
100
AcDbEntity
  8
EBENE_1
 62
     0
100
AcDbPolyline
 90
        2
 70
     0
 43
0.0
 10
184.1289528014506
 20
206.8439591251826
 10
184.1289528014506
 20
239.5448054711741
  0
LWPOLYLINE
  5
1174
330
1F
100
AcDbEntity
  8
EBENE_1
 62
     0
100
AcDbPolyline
 90
        2
 70
     0
 43
0.0
 10
184.1289528014506
 20
241.544338890813
 10
184.1289528014506
 20
251.5437285367507
  0
LWPOLYLINE
  5
1175
330
1F
100
AcDbEntity
  8
EBENE_1
 62
     0
100
AcDbPolyline
 90
        2
 70
     0
 43
0.0
 10
188.129053169374
 20
206.8439591251826
 10
188.129053169374
 20
239.5448054711741
  0
LWPOLYLINE
  5
1176
330
1F
100
AcDbEntity
  8
EBENE_1
 62
     0
100
AcDbPolyline
 90
        2
 70
     0
 43
0.0
 10
188.129053169374
 20
241.544338890813
 10
188.129053169374
 20
251.5437285367507
  0
LWPOLYLINE
  5
1177
330
1F
100
AcDbEntity
  8
EBENE_1
 62
     0
100
AcDbPolyline
 90
        2
 70
     0
 43
0.0
 10
192.1288090277489
 20
206.8439591251826
 10
192.1288090277489
 20
239.5448054711741
  0
LWPOLYLINE
  5
1178
330
1F
100
AcDbEntity
  8
EBENE_1
 62
     0
100
AcDbPolyline
 90
        2
 70
     0
 43
0.0
 10
192.1288090277489
 20
241.544338890813
 10
192.1288090277489
 20
251.5437285367507
  0
LWPOLYLINE
  5
1179
330
1F
100
AcDbEntity
  8
EBENE_1
 62
     0
100
AcDbPolyline
 90
        2
 70
     0
 43
0.0
 10
186.128830730638
 20
225.5446264382158
 10
186.128830730638
 20
251.5437285367507
  0
LWPOLYLINE
  5
117A
330
1F
100
AcDbEntity
  8
EBENE_1
 62
     0
100
AcDbPolyline
 90
        2
 70
     0
 43
0.0
 10
186.128830730638
 20
206.8432701060855
 10
186.128830730638
 20
223.5444039994797
  0
LWPOLYLINE
  5
117B
330
1F
100
AcDbEntity
  8
EBENE_1
 62
     0
100
AcDbPolyline
 90
        2
 70
     0
 43
0.0
 10
190.1289310985614
 20
225.5446264382158
 10
190.1289310985614
 20
251.5437285367507
  0
LWPOLYLINE
  5
117C
330
1F
100
AcDbEntity
  8
EBENE_1
 62
     0
100
AcDbPolyline
 90
        2
 70
     0
 43
0.0
 10
190.1289310985614
 20
206.8432701060855
 10
190.1289310985614
 20
223.5444039994797
  0
LWPOLYLINE
  5
117D
330
1F
100
AcDbEntity
  8
EBENE_1
 62
     0
100
AcDbPolyline
 90
        2
 70
     0
 43
0.0
 10
196.1292539052213
 20
206.8439591251826
 10
196.1292539052213
 20
239.5448054711741
  0
LWPOLYLINE
  5
117E
330
1F
100
AcDbEntity
  8
EBENE_1
 62
     0
100
AcDbPolyline
 90
        2
 70
     0
 43
0.0
 10
196.1292539052213
 20
241.544338890813
 10
196.1292539052213
 20
251.5437285367507
  0
LWPOLYLINE
  5
117F
330
1F
100
AcDbEntity
  8
EBENE_1
 62
     0
100
AcDbPolyline
 90
        2
 70
     0
 43
0.0
 10
200.1290097635962
 20
206.8439591251826
 10
200.1290097635962
 20
239.5448054711741
  0
LWPOLYLINE
  5
1180
330
1F
100
AcDbEntity
  8
EBENE_1
 62
     0
100
AcDbPolyline
 90
        2
 70
     0
 43
0.0
 10
200.1290097635962
 20
241.544338890813
 10
200.1290097635962
 20
251.5437285367507
  0
LWPOLYLINE
  5
1181
330
1F
100
AcDbEntity
  8
EBENE_1
 62
     0
100
AcDbPolyline
 90
        2
 70
     0
 43
0.0
 10
204.1287656219711
 20
206.8439591251826
 10
204.1287656219711
 20
239.5448054711741
  0
LWPOLYLINE
  5
1182
330
1F
100
AcDbEntity
  8
EBENE_1
 62
     0
100
AcDbPolyline
 90
        2
 70
     0
 43
0.0
 10
204.1287656219711
 20
241.544338890813
 10
204.1287656219711
 20
251.5437285367507
  0
LWPOLYLINE
  5
1183
330
1F
100
AcDbEntity
  8
EBENE_1
 62
     0
100
AcDbPolyline
 90
        2
 70
     0
 43
0.0
 10
194.1290314664849
 20
225.5446264382158
 10
194.1290314664849
 20
251.5437285367507
  0
LWPOLYLINE
  5
1184
330
1F
100
AcDbEntity
  8
EBENE_1
 62
     0
100
AcDbPolyline
 90
        2
 70
     0
 43
0.0
 10
194.1290314664849
 20
206.8432701060855
 10
194.1290314664849
 20
223.5444039994797
  0
LWPOLYLINE
  5
1185
330
1F
100
AcDbEntity
  8
EBENE_1
 62
     0
100
AcDbPolyline
 90
        2
 70
     0
 43
0.0
 10
198.1287873248601
 20
225.5446264382158
 10
198.1287873248601
 20
251.5437285367507
  0
LWPOLYLINE
  5
1186
330
1F
100
AcDbEntity
  8
EBENE_1
 62
     0
100
AcDbPolyline
 90
        2
 70
     0
 43
0.0
 10
198.1287873248601
 20
206.8432701060855
 10
198.1287873248601
 20
223.5444039994797
  0
LWPOLYLINE
  5
1187
330
1F
100
AcDbEntity
  8
EBENE_1
 62
     0
100
AcDbPolyline
 90
        2
 70
     0
 43
0.0
 10
202.1292322023322
 20
225.5446264382158
 10
202.1292322023322
 20
251.5437285367507
  0
LWPOLYLINE
  5
1188
330
1F
100
AcDbEntity
  8
EBENE_1
 62
     0
100
AcDbPolyline
 90
        2
 70
     0
 43
0.0
 10
202.1292322023322
 20
206.8432701060855
 10
202.1292322023322
 20
223.5444039994797
  0
LWPOLYLINE
  5
1189
330
1F
100
AcDbEntity
  8
EBENE_1
 62
     0
100
AcDbPolyline
 90
        2
 70
     0
 43
0.0
 10
208.1292104994436
 20
206.8439591251826
 10
208.1292104994436
 20
239.5448054711741
  0
LWPOLYLINE
  5
118A
330
1F
100
AcDbEntity
  8
EBENE_1
 62
     0
100
AcDbPolyline
 90
        2
 70
     0
 43
0.0
 10
208.1292104994436
 20
241.544338890813
 10
208.1292104994436
 20
251.5437285367507
  0
LWPOLYLINE
  5
118B
330
1F
100
AcDbEntity
  8
EBENE_1
 62
     0
100
AcDbPolyline
 90
        2
 70
     0
 43
0.0
 10
212.1289663578185
 20
206.8439591251826
 10
212.1289663578185
 20
239.5448054711741
  0
LWPOLYLINE
  5
118C
330
1F
100
AcDbEntity
  8
EBENE_1
 62
     0
100
AcDbPolyline
 90
        2
 70
     0
 43
0.0
 10
212.1289663578185
 20
241.544338890813
 10
212.1289663578185
 20
251.5437285367507
  0
LWPOLYLINE
  5
118D
330
1F
100
AcDbEntity
  8
EBENE_1
 62
     0
100
AcDbPolyline
 90
        2
 70
     0
 43
0.0
 10
216.1290667257419
 20
206.8439591251826
 10
216.1290667257419
 20
239.5448054711741
  0
LWPOLYLINE
  5
118E
330
1F
100
AcDbEntity
  8
EBENE_1
 62
     0
100
AcDbPolyline
 90
        2
 70
     0
 43
0.0
 10
216.1290667257419
 20
241.544338890813
 10
216.1290667257419
 20
251.5437285367507
  0
LWPOLYLINE
  5
118F
330
1F
100
AcDbEntity
  8
EBENE_1
 62
     0
100
AcDbPolyline
 90
        2
 70
     0
 43
0.0
 10
206.1289880607073
 20
225.5446264382158
 10
206.1289880607073
 20
251.5437285367507
  0
LWPOLYLINE
  5
1190
330
1F
100
AcDbEntity
  8
EBENE_1
 62
     0
100
AcDbPolyline
 90
        2
 70
     0
 43
0.0
 10
206.1289880607073
 20
206.8432701060855
 10
206.1289880607073
 20
223.5444039994797
  0
LWPOLYLINE
  5
1191
330
1F
100
AcDbEntity
  8
EBENE_1
 62
     0
100
AcDbPolyline
 90
        2
 70
     0
 43
0.0
 10
210.1290884286311
 20
225.5446264382158
 10
210.1290884286311
 20
251.5437285367507
  0
LWPOLYLINE
  5
1192
330
1F
100
AcDbEntity
  8
EBENE_1
 62
     0
100
AcDbPolyline
 90
        2
 70
     0
 43
0.0
 10
210.1290884286311
 20
206.8432701060855
 10
210.1290884286311
 20
223.5444039994797
  0
LWPOLYLINE
  5
1193
330
1F
100
AcDbEntity
  8
EBENE_1
 62
     0
100
AcDbPolyline
 90
        2
 70
     0
 43
0.0
 10
214.1291887965545
 20
225.5446264382158
 10
214.1291887965545
 20
251.5437285367507
  0
LWPOLYLINE
  5
1194
330
1F
100
AcDbEntity
  8
EBENE_1
 62
     0
100
AcDbPolyline
 90
        2
 70
     0
 43
0.0
 10
214.1291887965545
 20
206.8432701060855
 10
214.1291887965545
 20
223.5444039994797
  0
LWPOLYLINE
  5
1195
330
1F
100
AcDbEntity
  8
EBENE_1
 62
     0
100
AcDbPolyline
 90
        2
 70
     0
 43
0.0
 10
218.1289446549294
 20
225.5446264382158
 10
218.1289446549294
 20
251.5437285367507
  0
LWPOLYLINE
  5
1196
330
1F
100
AcDbEntity
  8
EBENE_1
 62
     0
100
AcDbPolyline
 90
        2
 70
     0
 43
0.0
 10
218.1289446549294
 20
206.8432701060855
 10
218.1289446549294
 20
223.5444039994797
  0
LWPOLYLINE
  5
1197
330
1F
100
AcDbEntity
  8
EBENE_1
 62
     0
100
AcDbPolyline
 90
        2
 70
     0
 43
0.0
 10
220.1288225841171
 20
206.8439591251826
 10
220.1288225841171
 20
239.5448054711741
  0
LWPOLYLINE
  5
1198
330
1F
100
AcDbEntity
  8
EBENE_1
 62
     0
100
AcDbPolyline
 90
        2
 70
     0
 43
0.0
 10
220.1288225841171
 20
241.544338890813
 10
220.1288225841171
 20
251.5437285367507
  0
LWPOLYLINE
  5
1199
330
1F
100
AcDbEntity
  8
0
100
AcDbPolyline
 90
       52
 70
     1
 43
0.0
 10
174.5539310874489
 20
251.5437285367507
 10
166.5789473804907
 20
251.5437285367507
 10
166.5789473804907
 20
246.5435169494591
 10
169.679188807667
 20
246.5435169494591
 10
169.679188807667
 20
241.8433731789328
 10
166.5789473804907
 20
241.8433731789328
 10
166.5789473804907
 20
236.5434382844244
 10
169.679188807667
 20
236.5434382844244
 10
169.679188807667
 20
231.8436390234465
 10
166.5789473804907
 20
231.8436390234465
 10
166.5789473804907
 20
226.5433596193897
 10
169.679188807667
 20
226.5433596193897
 10
169.679188807667
 20
221.8432158488633
 10
166.5789473804907
 20
221.8432158488633
 10
166.5789473804907
 20
216.543280954355
 10
169.679188807667
 20
216.543280954355
 10
169.679188807667
 20
211.8434816933771
 10
166.5789473804907
 20
211.8434816933771
 10
166.5789473804907
 20
206.8439591251826
 10
174.5543434288442
 20
206.8439591251826
 10
174.5543434288442
 20
209.9435115332618
 10
179.2541426898219
 20
209.9435115332618
 10
179.2541426898219
 20
206.8439591251826
 10
225.0039772052942
 20
206.8432701060855
 10
225.0039772052942
 20
209.9438560428104
 10
229.7037764662721
 20
209.9438560428104
 10
229.7037764662721
 20
206.8432701060855
 10
234.5789310874488
 20
206.8432701060855
 10
234.5789310874488
 20
211.5434138766119
 10
237.6791725146255
 20
211.5434138766119
 10
237.6791725146255
 20
216.8436932806687
 10
234.5789310874488
 20
216.8436932806687
 10
234.5789310874488
 20
221.5434925416466
 10
237.6791725146255
 20
221.5434925416466
 10
237.6791725146255
 20
226.8434274361549
 10
234.5789310874488
 20
226.8434274361549
 10
234.5789310874488
 20
231.5435712066813
 10
237.6791725146255
 20
231.5435712066813
 10
237.6791725146255
 20
236.8438506107381
 10
234.5789310874488
 20
236.8438506107381
 10
234.5789310874488
 20
241.5436498717159
 10
237.6791725146255
 20
241.5436498717159
 10
237.6791725146255
 20
246.8435847662243
 10
234.5789310874488
 20
246.8435847662243
 10
234.5789310874488
 20
251.5437285367507
 10
229.7037310874489
 20
251.5437285367507
 10
229.7037310874489
 20
248.4433285367507
 10
225.003931087449
 20
248.4433285367507
 10
225.003931087449
 20
251.5437285367507
 10
179.2537310874489
 20
251.5437285367507
 10
179.2537310874489
 20
248.4433285367507
 10
174.5539310874489
 20
248.4433285367507
  0
LWPOLYLINE
  5
119A
330
1F
100
AcDbEntity
  8
EBENE_1
 62
     0
100
AcDbPolyline
 90
        2
 70
     0
 43
0.0
 10
184.1289528014506
 20
253.6736683654019
 10
184.1289528014506
 20
286.3745147113935
  0
LWPOLYLINE
  5
119B
330
1F
100
AcDbEntity
  8
EBENE_1
 62
     0
100
AcDbPolyline
 90
        2
 70
     0
 43
0.0
 10
184.1289528014506
 20
288.3740481310324
 10
184.1289528014506
 20
298.3734377769701
  0
LWPOLYLINE
  5
119C
330
1F
100
AcDbEntity
  8
EBENE_1
 62
     0
100
AcDbPolyline
 90
        2
 70
     0
 43
0.0
 10
188.129053169374
 20
253.6736683654019
 10
188.129053169374
 20
286.3745147113935
  0
LWPOLYLINE
  5
119D
330
1F
100
AcDbEntity
  8
EBENE_1
 62
     0
100
AcDbPolyline
 90
        2
 70
     0
 43
0.0
 10
188.129053169374
 20
288.3740481310324
 10
188.129053169374
 20
298.3734377769701
  0
LWPOLYLINE
  5
119E
330
1F
100
AcDbEntity
  8
EBENE_1
 62
     0
100
AcDbPolyline
 90
        2
 70
     0
 43
0.0
 10
192.1288090277489
 20
253.6736683654019
 10
192.1288090277489
 20
286.3745147113935
  0
LWPOLYLINE
  5
119F
330
1F
100
AcDbEntity
  8
EBENE_1
 62
     0
100
AcDbPolyline
 90
        2
 70
     0
 43
0.0
 10
192.1288090277489
 20
288.3740481310324
 10
192.1288090277489
 20
298.3734377769701
  0
LWPOLYLINE
  5
11A0
330
1F
100
AcDbEntity
  8
EBENE_1
 62
     0
100
AcDbPolyline
 90
        2
 70
     0
 43
0.0
 10
186.128830730638
 20
272.3743356784351
 10
186.128830730638
 20
298.3734377769701
  0
LWPOLYLINE
  5
11A1
330
1F
100
AcDbEntity
  8
EBENE_1
 62
     0
100
AcDbPolyline
 90
        2
 70
     0
 43
0.0
 10
186.128830730638
 20
253.6729793463049
 10
186.128830730638
 20
270.3741132396991
  0
LWPOLYLINE
  5
11A2
330
1F
100
AcDbEntity
  8
EBENE_1
 62
     0
100
AcDbPolyline
 90
        2
 70
     0
 43
0.0
 10
190.1289310985614
 20
272.3743356784351
 10
190.1289310985614
 20
298.3734377769701
  0
LWPOLYLINE
  5
11A3
330
1F
100
AcDbEntity
  8
EBENE_1
 62
     0
100
AcDbPolyline
 90
        2
 70
     0
 43
0.0
 10
190.1289310985614
 20
253.6729793463049
 10
190.1289310985614
 20
270.3741132396991
  0
LWPOLYLINE
  5
11A4
330
1F
100
AcDbEntity
  8
EBENE_1
 62
     0
100
AcDbPolyline
 90
        2
 70
     0
 43
0.0
 10
196.1292539052213
 20
253.6736683654019
 10
196.1292539052213
 20
286.3745147113935
  0
LWPOLYLINE
  5
11A5
330
1F
100
AcDbEntity
  8
EBENE_1
 62
     0
100
AcDbPolyline
 90
        2
 70
     0
 43
0.0
 10
196.1292539052213
 20
288.3740481310324
 10
196.1292539052213
 20
298.3734377769701
  0
LWPOLYLINE
  5
11A6
330
1F
100
AcDbEntity
  8
EBENE_1
 62
     0
100
AcDbPolyline
 90
        2
 70
     0
 43
0.0
 10
200.1290097635962
 20
253.6736683654019
 10
200.1290097635962
 20
286.3745147113935
  0
LWPOLYLINE
  5
11A7
330
1F
100
AcDbEntity
  8
EBENE_1
 62
     0
100
AcDbPolyline
 90
        2
 70
     0
 43
0.0
 10
200.1290097635962
 20
288.3740481310324
 10
200.1290097635962
 20
298.3734377769701
  0
LWPOLYLINE
  5
11A8
330
1F
100
AcDbEntity
  8
EBENE_1
 62
     0
100
AcDbPolyline
 90
        2
 70
     0
 43
0.0
 10
204.1287656219711
 20
253.6736683654019
 10
204.1287656219711
 20
286.3745147113935
  0
LWPOLYLINE
  5
11A9
330
1F
100
AcDbEntity
  8
EBENE_1
 62
     0
100
AcDbPolyline
 90
        2
 70
     0
 43
0.0
 10
204.1287656219711
 20
288.3740481310324
 10
204.1287656219711
 20
298.3734377769701
  0
LWPOLYLINE
  5
11AA
330
1F
100
AcDbEntity
  8
EBENE_1
 62
     0
100
AcDbPolyline
 90
        2
 70
     0
 43
0.0
 10
194.1290314664849
 20
272.3743356784351
 10
194.1290314664849
 20
298.3734377769701
  0
LWPOLYLINE
  5
11AB
330
1F
100
AcDbEntity
  8
EBENE_1
 62
     0
100
AcDbPolyline
 90
        2
 70
     0
 43
0.0
 10
194.1290314664849
 20
253.6729793463049
 10
194.1290314664849
 20
270.3741132396991
  0
LWPOLYLINE
  5
11AC
330
1F
100
AcDbEntity
  8
EBENE_1
 62
     0
100
AcDbPolyline
 90
        2
 70
     0
 43
0.0
 10
198.1287873248601
 20
272.3743356784351
 10
198.1287873248601
 20
298.3734377769701
  0
LWPOLYLINE
  5
11AD
330
1F
100
AcDbEntity
  8
EBENE_1
 62
     0
100
AcDbPolyline
 90
        2
 70
     0
 43
0.0
 10
198.1287873248601
 20
253.6729793463049
 10
198.1287873248601
 20
270.3741132396991
  0
LWPOLYLINE
  5
11AE
330
1F
100
AcDbEntity
  8
EBENE_1
 62
     0
100
AcDbPolyline
 90
        2
 70
     0
 43
0.0
 10
202.1292322023322
 20
272.3743356784351
 10
202.1292322023322
 20
298.3734377769701
  0
LWPOLYLINE
  5
11AF
330
1F
100
AcDbEntity
  8
EBENE_1
 62
     0
100
AcDbPolyline
 90
        2
 70
     0
 43
0.0
 10
202.1292322023322
 20
253.6729793463049
 10
202.1292322023322
 20
270.3741132396991
  0
LWPOLYLINE
  5
11B0
330
1F
100
AcDbEntity
  8
EBENE_1
 62
     0
100
AcDbPolyline
 90
        2
 70
     0
 43
0.0
 10
208.1292104994436
 20
253.6736683654019
 10
208.1292104994436
 20
286.3745147113935
  0
LWPOLYLINE
  5
11B1
330
1F
100
AcDbEntity
  8
EBENE_1
 62
     0
100
AcDbPolyline
 90
        2
 70
     0
 43
0.0
 10
208.1292104994436
 20
288.3740481310324
 10
208.1292104994436
 20
298.3734377769701
  0
LWPOLYLINE
  5
11B2
330
1F
100
AcDbEntity
  8
EBENE_1
 62
     0
100
AcDbPolyline
 90
        2
 70
     0
 43
0.0
 10
212.1289663578185
 20
253.6736683654019
 10
212.1289663578185
 20
286.3745147113935
  0
LWPOLYLINE
  5
11B3
330
1F
100
AcDbEntity
  8
EBENE_1
 62
     0
100
AcDbPolyline
 90
        2
 70
     0
 43
0.0
 10
212.1289663578185
 20
288.3740481310324
 10
212.1289663578185
 20
298.3734377769701
  0
LWPOLYLINE
  5
11B4
330
1F
100
AcDbEntity
  8
EBENE_1
 62
     0
100
AcDbPolyline
 90
        2
 70
     0
 43
0.0
 10
216.1290667257419
 20
253.6736683654019
 10
216.1290667257419
 20
286.3745147113935
  0
LWPOLYLINE
  5
11B5
330
1F
100
AcDbEntity
  8
EBENE_1
 62
     0
100
AcDbPolyline
 90
        2
 70
     0
 43
0.0
 10
216.1290667257419
 20
288.3740481310324
 10
216.1290667257419
 20
298.3734377769701
  0
LWPOLYLINE
  5
11B6
330
1F
100
AcDbEntity
  8
EBENE_1
 62
     0
100
AcDbPolyline
 90
        2
 70
     0
 43
0.0
 10
206.1289880607073
 20
272.3743356784351
 10
206.1289880607073
 20
298.3734377769701
  0
LWPOLYLINE
  5
11B7
330
1F
100
AcDbEntity
  8
EBENE_1
 62
     0
100
AcDbPolyline
 90
        2
 70
     0
 43
0.0
 10
206.1289880607073
 20
253.6729793463049
 10
206.1289880607073
 20
270.3741132396991
  0
LWPOLYLINE
  5
11B8
330
1F
100
AcDbEntity
  8
EBENE_1
 62
     0
100
AcDbPolyline
 90
        2
 70
     0
 43
0.0
 10
210.1290884286311
 20
272.3743356784351
 10
210.1290884286311
 20
298.3734377769701
  0
LWPOLYLINE
  5
11B9
330
1F
100
AcDbEntity
  8
EBENE_1
 62
     0
100
AcDbPolyline
 90
        2
 70
     0
 43
0.0
 10
210.1290884286311
 20
253.6729793463049
 10
210.1290884286311
 20
270.3741132396991
  0
LWPOLYLINE
  5
11BA
330
1F
100
AcDbEntity
  8
EBENE_1
 62
     0
100
AcDbPolyline
 90
        2
 70
     0
 43
0.0
 10
214.1291887965545
 20
272.3743356784351
 10
214.1291887965545
 20
298.3734377769701
  0
LWPOLYLINE
  5
11BB
330
1F
100
AcDbEntity
  8
EBENE_1
 62
     0
100
AcDbPolyline
 90
        2
 70
     0
 43
0.0
 10
214.1291887965545
 20
253.6729793463049
 10
214.1291887965545
 20
270.3741132396991
  0
LWPOLYLINE
  5
11BC
330
1F
100
AcDbEntity
  8
EBENE_1
 62
     0
100
AcDbPolyline
 90
        2
 70
     0
 43
0.0
 10
218.1289446549294
 20
272.3743356784351
 10
218.1289446549294
 20
298.3734377769701
  0
LWPOLYLINE
  5
11BD
330
1F
100
AcDbEntity
  8
EBENE_1
 62
     0
100
AcDbPolyline
 90
        2
 70
     0
 43
0.0
 10
218.1289446549294
 20
253.6729793463049
 10
218.1289446549294
 20
270.3741132396991
  0
LWPOLYLINE
  5
11BE
330
1F
100
AcDbEntity
  8
EBENE_1
 62
     0
100
AcDbPolyline
 90
        2
 70
     0
 43
0.0
 10
220.1288225841171
 20
253.6736683654019
 10
220.1288225841171
 20
286.3745147113935
  0
LWPOLYLINE
  5
11BF
330
1F
100
AcDbEntity
  8
EBENE_1
 62
     0
100
AcDbPolyline
 90
        2
 70
     0
 43
0.0
 10
220.1288225841171
 20
288.3740481310324
 10
220.1288225841171
 20
298.3734377769701
  0
LWPOLYLINE
  5
11C0
330
1F
100
AcDbEntity
  8
0
100
AcDbPolyline
 90
       52
 70
     1
 43
0.0
 10
174.5539310874489
 20
298.3734377769701
 10
166.5789473804907
 20
298.3734377769701
 10
166.5789473804907
 20
293.3732261896785
 10
169.679188807667
 20
293.3732261896785
 10
169.679188807667
 20
288.6730824191521
 10
166.5789473804907
 20
288.6730824191521
 10
166.5789473804907
 20
283.3731475246437
 10
169.679188807667
 20
283.3731475246437
 10
169.679188807667
 20
278.6733482636658
 10
166.5789473804907
 20
278.6733482636658
 10
166.5789473804907
 20
273.373068859609
 10
169.679188807667
 20
273.373068859609
 10
169.679188807667
 20
268.6729250890827
 10
166.5789473804907
 20
268.6729250890827
 10
166.5789473804907
 20
263.3729901945744
 10
169.679188807667
 20
263.3729901945744
 10
169.679188807667
 20
258.6731909335965
 10
166.5789473804907
 20
258.6731909335965
 10
166.5789473804907
 20
253.6736683654019
 10
174.5543434288442
 20
253.6736683654019
 10
174.5543434288442
 20
256.7732207734812
 10
179.2541426898219
 20
256.7732207734812
 10
179.2541426898219
 20
253.6736683654019
 10
225.0039772052942
 20
253.6729793463049
 10
225.0039772052942
 20
256.7735652830298
 10
229.7037764662721
 20
256.7735652830298
 10
229.7037764662721
 20
253.6729793463049
 10
234.5789310874488
 20
253.6729793463049
 10
234.5789310874488
 20
258.3731231168313
 10
237.6791725146255
 20
258.3731231168313
 10
237.6791725146255
 20
263.6734025208881
 10
234.5789310874488
 20
263.6734025208881
 10
234.5789310874488
 20
268.373201781866
 10
237.6791725146255
 20
268.373201781866
 10
237.6791725146255
 20
273.6731366763743
 10
234.5789310874488
 20
273.6731366763743
 10
234.5789310874488
 20
278.3732804469007
 10
237.6791725146255
 20
278.3732804469007
 10
237.6791725146255
 20
283.6735598509575
 10
234.5789310874488
 20
283.6735598509575
 10
234.5789310874488
 20
288.3733591119352
 10
237.6791725146255
 20
288.3733591119352
 10
237.6791725146255
 20
293.6732940064437
 10
234.5789310874488
 20
293.6732940064437
 10
234.5789310874488
 20
298.3734377769701
 10
229.7037310874489
 20
298.3734377769701
 10
229.7037310874489
 20
295.2730377769701
 10
225.003931087449
 20
295.2730377769701
 10
225.003931087449
 20
298.3734377769701
 10
179.2537310874489
 20
298.3734377769701
 10
179.2537310874489
 20
295.2730377769701
 10
174.5539310874489
 20
295.2730377769701
  0
LWPOLYLINE
  5
11C1
330
1F
100
AcDbEntity
  8
EBENE_1
 62
     0
100
AcDbPolyline
 90
        2
 70
     0
 43
0.0
 10
184.1289528014506
 20
299.2178221703621
 10
184.1289528014506
 20
331.9186685163536
  0
LWPOLYLINE
  5
11C2
330
1F
100
AcDbEntity
  8
EBENE_1
 62
     0
100
AcDbPolyline
 90
        2
 70
     0
 43
0.0
 10
184.1289528014506
 20
333.9182019359926
 10
184.1289528014506
 20
343.9175915819303
  0
LWPOLYLINE
  5
11C3
330
1F
100
AcDbEntity
  8
EBENE_1
 62
     0
100
AcDbPolyline
 90
        2
 70
     0
 43
0.0
 10
188.129053169374
 20
299.2178221703621
 10
188.129053169374
 20
331.9186685163536
  0
LWPOLYLINE
  5
11C4
330
1F
100
AcDbEntity
  8
EBENE_1
 62
     0
100
AcDbPolyline
 90
        2
 70
     0
 43
0.0
 10
188.129053169374
 20
333.9182019359926
 10
188.129053169374
 20
343.9175915819303
  0
LWPOLYLINE
  5
11C5
330
1F
100
AcDbEntity
  8
EBENE_1
 62
     0
100
AcDbPolyline
 90
        2
 70
     0
 43
0.0
 10
192.1288090277489
 20
299.2178221703621
 10
192.1288090277489
 20
331.9186685163536
  0
LWPOLYLINE
  5
11C6
330
1F
100
AcDbEntity
  8
EBENE_1
 62
     0
100
AcDbPolyline
 90
        2
 70
     0
 43
0.0
 10
192.1288090277489
 20
333.9182019359926
 10
192.1288090277489
 20
343.9175915819303
  0
LWPOLYLINE
  5
11C7
330
1F
100
AcDbEntity
  8
EBENE_1
 62
     0
100
AcDbPolyline
 90
        2
 70
     0
 43
0.0
 10
186.128830730638
 20
317.9184894833952
 10
186.128830730638
 20
343.9175915819303
  0
LWPOLYLINE
  5
11C8
330
1F
100
AcDbEntity
  8
EBENE_1
 62
     0
100
AcDbPolyline
 90
        2
 70
     0
 43
0.0
 10
186.128830730638
 20
299.2171331512651
 10
186.128830730638
 20
315.9182670446593
  0
LWPOLYLINE
  5
11C9
330
1F
100
AcDbEntity
  8
EBENE_1
 62
     0
100
AcDbPolyline
 90
        2
 70
     0
 43
0.0
 10
190.1289310985614
 20
317.9184894833952
 10
190.1289310985614
 20
343.9175915819303
  0
LWPOLYLINE
  5
11CA
330
1F
100
AcDbEntity
  8
EBENE_1
 62
     0
100
AcDbPolyline
 90
        2
 70
     0
 43
0.0
 10
190.1289310985614
 20
299.2171331512651
 10
190.1289310985614
 20
315.9182670446593
  0
LWPOLYLINE
  5
11CB
330
1F
100
AcDbEntity
  8
EBENE_1
 62
     0
100
AcDbPolyline
 90
        2
 70
     0
 43
0.0
 10
196.1292539052213
 20
299.2178221703621
 10
196.1292539052213
 20
331.9186685163536
  0
LWPOLYLINE
  5
11CC
330
1F
100
AcDbEntity
  8
EBENE_1
 62
     0
100
AcDbPolyline
 90
        2
 70
     0
 43
0.0
 10
196.1292539052213
 20
333.9182019359926
 10
196.1292539052213
 20
343.9175915819303
  0
LWPOLYLINE
  5
11CD
330
1F
100
AcDbEntity
  8
EBENE_1
 62
     0
100
AcDbPolyline
 90
        2
 70
     0
 43
0.0
 10
200.1290097635962
 20
299.2178221703621
 10
200.1290097635962
 20
331.9186685163536
  0
LWPOLYLINE
  5
11CE
330
1F
100
AcDbEntity
  8
EBENE_1
 62
     0
100
AcDbPolyline
 90
        2
 70
     0
 43
0.0
 10
200.1290097635962
 20
333.9182019359926
 10
200.1290097635962
 20
343.9175915819303
  0
LWPOLYLINE
  5
11CF
330
1F
100
AcDbEntity
  8
EBENE_1
 62
     0
100
AcDbPolyline
 90
        2
 70
     0
 43
0.0
 10
204.1287656219711
 20
299.2178221703621
 10
204.1287656219711
 20
331.9186685163536
  0
LWPOLYLINE
  5
11D0
330
1F
100
AcDbEntity
  8
EBENE_1
 62
     0
100
AcDbPolyline
 90
        2
 70
     0
 43
0.0
 10
204.1287656219711
 20
333.9182019359926
 10
204.1287656219711
 20
343.9175915819303
  0
LWPOLYLINE
  5
11D1
330
1F
100
AcDbEntity
  8
EBENE_1
 62
     0
100
AcDbPolyline
 90
        2
 70
     0
 43
0.0
 10
194.1290314664849
 20
317.9184894833952
 10
194.1290314664849
 20
343.9175915819303
  0
LWPOLYLINE
  5
11D2
330
1F
100
AcDbEntity
  8
EBENE_1
 62
     0
100
AcDbPolyline
 90
        2
 70
     0
 43
0.0
 10
194.1290314664849
 20
299.2171331512651
 10
194.1290314664849
 20
315.9182670446593
  0
LWPOLYLINE
  5
11D3
330
1F
100
AcDbEntity
  8
EBENE_1
 62
     0
100
AcDbPolyline
 90
        2
 70
     0
 43
0.0
 10
198.1287873248601
 20
317.9184894833952
 10
198.1287873248601
 20
343.9175915819303
  0
LWPOLYLINE
  5
11D4
330
1F
100
AcDbEntity
  8
EBENE_1
 62
     0
100
AcDbPolyline
 90
        2
 70
     0
 43
0.0
 10
198.1287873248601
 20
299.2171331512651
 10
198.1287873248601
 20
315.9182670446593
  0
LWPOLYLINE
  5
11D5
330
1F
100
AcDbEntity
  8
EBENE_1
 62
     0
100
AcDbPolyline
 90
        2
 70
     0
 43
0.0
 10
202.1292322023322
 20
317.9184894833952
 10
202.1292322023322
 20
343.9175915819303
  0
LWPOLYLINE
  5
11D6
330
1F
100
AcDbEntity
  8
EBENE_1
 62
     0
100
AcDbPolyline
 90
        2
 70
     0
 43
0.0
 10
202.1292322023322
 20
299.2171331512651
 10
202.1292322023322
 20
315.9182670446593
  0
LWPOLYLINE
  5
11D7
330
1F
100
AcDbEntity
  8
EBENE_1
 62
     0
100
AcDbPolyline
 90
        2
 70
     0
 43
0.0
 10
208.1292104994436
 20
299.2178221703621
 10
208.1292104994436
 20
331.9186685163536
  0
LWPOLYLINE
  5
11D8
330
1F
100
AcDbEntity
  8
EBENE_1
 62
     0
100
AcDbPolyline
 90
        2
 70
     0
 43
0.0
 10
208.1292104994436
 20
333.9182019359926
 10
208.1292104994436
 20
343.9175915819303
  0
LWPOLYLINE
  5
11D9
330
1F
100
AcDbEntity
  8
EBENE_1
 62
     0
100
AcDbPolyline
 90
        2
 70
     0
 43
0.0
 10
212.1289663578185
 20
299.2178221703621
 10
212.1289663578185
 20
331.9186685163536
  0
LWPOLYLINE
  5
11DA
330
1F
100
AcDbEntity
  8
EBENE_1
 62
     0
100
AcDbPolyline
 90
        2
 70
     0
 43
0.0
 10
212.1289663578185
 20
333.9182019359926
 10
212.1289663578185
 20
343.9175915819303
  0
LWPOLYLINE
  5
11DB
330
1F
100
AcDbEntity
  8
EBENE_1
 62
     0
100
AcDbPolyline
 90
        2
 70
     0
 43
0.0
 10
216.1290667257419
 20
299.2178221703621
 10
216.1290667257419
 20
331.9186685163536
  0
LWPOLYLINE
  5
11DC
330
1F
100
AcDbEntity
  8
EBENE_1
 62
     0
100
AcDbPolyline
 90
        2
 70
     0
 43
0.0
 10
216.1290667257419
 20
333.9182019359926
 10
216.1290667257419
 20
343.9175915819303
  0
LWPOLYLINE
  5
11DD
330
1F
100
AcDbEntity
  8
EBENE_1
 62
     0
100
AcDbPolyline
 90
        2
 70
     0
 43
0.0
 10
206.1289880607073
 20
317.9184894833952
 10
206.1289880607073
 20
343.9175915819303
  0
LWPOLYLINE
  5
11DE
330
1F
100
AcDbEntity
  8
EBENE_1
 62
     0
100
AcDbPolyline
 90
        2
 70
     0
 43
0.0
 10
206.1289880607073
 20
299.2171331512651
 10
206.1289880607073
 20
315.9182670446593
  0
LWPOLYLINE
  5
11DF
330
1F
100
AcDbEntity
  8
EBENE_1
 62
     0
100
AcDbPolyline
 90
        2
 70
     0
 43
0.0
 10
210.1290884286311
 20
317.9184894833952
 10
210.1290884286311
 20
343.9175915819303
  0
LWPOLYLINE
  5
11E0
330
1F
100
AcDbEntity
  8
EBENE_1
 62
     0
100
AcDbPolyline
 90
        2
 70
     0
 43
0.0
 10
210.1290884286311
 20
299.2171331512651
 10
210.1290884286311
 20
315.9182670446593
  0
LWPOLYLINE
  5
11E1
330
1F
100
AcDbEntity
  8
EBENE_1
 62
     0
100
AcDbPolyline
 90
        2
 70
     0
 43
0.0
 10
214.1291887965545
 20
317.9184894833952
 10
214.1291887965545
 20
343.9175915819303
  0
LWPOLYLINE
  5
11E2
330
1F
100
AcDbEntity
  8
EBENE_1
 62
     0
100
AcDbPolyline
 90
        2
 70
     0
 43
0.0
 10
214.1291887965545
 20
299.2171331512651
 10
214.1291887965545
 20
315.9182670446593
  0
LWPOLYLINE
  5
11E3
330
1F
100
AcDbEntity
  8
EBENE_1
 62
     0
100
AcDbPolyline
 90
        2
 70
     0
 43
0.0
 10
218.1289446549294
 20
317.9184894833952
 10
218.1289446549294
 20
343.9175915819303
  0
LWPOLYLINE
  5
11E4
330
1F
100
AcDbEntity
  8
EBENE_1
 62
     0
100
AcDbPolyline
 90
        2
 70
     0
 43
0.0
 10
218.1289446549294
 20
299.2171331512651
 10
218.1289446549294
 20
315.9182670446593
  0
LWPOLYLINE
  5
11E5
330
1F
100
AcDbEntity
  8
EBENE_1
 62
     0
100
AcDbPolyline
 90
        2
 70
     0
 43
0.0
 10
220.1288225841171
 20
299.2178221703621
 10
220.1288225841171
 20
331.9186685163536
  0
LWPOLYLINE
  5
11E6
330
1F
100
AcDbEntity
  8
EBENE_1
 62
     0
100
AcDbPolyline
 90
        2
 70
     0
 43
0.0
 10
220.1288225841171
 20
333.9182019359926
 10
220.1288225841171
 20
343.9175915819303
  0
LWPOLYLINE
  5
11E7
330
1F
100
AcDbEntity
  8
0
100
AcDbPolyline
 90
       52
 70
     1
 43
0.0
 10
174.5539310874489
 20
343.9175915819303
 10
166.5789473804907
 20
343.9175915819303
 10
166.5789473804907
 20
338.9173799946386
 10
169.679188807667
 20
338.9173799946386
 10
169.679188807667
 20
334.2172362241123
 10
166.5789473804907
 20
334.2172362241123
 10
166.5789473804907
 20
328.9173013296039
 10
169.679188807667
 20
328.9173013296039
 10
169.679188807667
 20
324.217502068626
 10
166.5789473804907
 20
324.217502068626
 10
166.5789473804907
 20
318.9172226645692
 10
169.679188807667
 20
318.9172226645692
 10
169.679188807667
 20
314.2170788940429
 10
166.5789473804907
 20
314.2170788940429
 10
166.5789473804907
 20
308.9171439995346
 10
169.679188807667
 20
308.9171439995346
 10
169.679188807667
 20
304.2173447385566
 10
166.5789473804907
 20
304.2173447385566
 10
166.5789473804907
 20
299.2178221703621
 10
174.5543434288442
 20
299.2178221703621
 10
174.5543434288442
 20
302.3173745784413
 10
179.2541426898219
 20
302.3173745784413
 10
179.2541426898219
 20
299.2178221703621
 10
225.0039772052942
 20
299.2171331512651
 10
225.0039772052942
 20
302.3177190879899
 10
229.7037764662721
 20
302.3177190879899
 10
229.7037764662721
 20
299.2171331512651
 10
234.5789310874488
 20
299.2171331512651
 10
234.5789310874488
 20
303.9172769217914
 10
237.6791725146255
 20
303.9172769217914
 10
237.6791725146255
 20
309.2175563258483
 10
234.5789310874488
 20
309.2175563258483
 10
234.5789310874488
 20
313.9173555868262
 10
237.6791725146255
 20
313.9173555868262
 10
237.6791725146255
 20
319.2172904813344
 10
234.5789310874488
 20
319.2172904813344
 10
234.5789310874488
 20
323.9174342518609
 10
237.6791725146255
 20
323.9174342518609
 10
237.6791725146255
 20
329.2177136559176
 10
234.5789310874488
 20
329.2177136559176
 10
234.5789310874488
 20
333.9175129168954
 10
237.6791725146255
 20
333.9175129168954
 10
237.6791725146255
 20
339.2174478114039
 10
234.5789310874488
 20
339.2174478114039
 10
234.5789310874488
 20
343.9175915819303
 10
229.7037310874489
 20
343.9175915819303
 10
229.7037310874489
 20
340.8171915819303
 10
225.003931087449
 20
340.8171915819303
 10
225.003931087449
 20
343.9175915819303
 10
179.2537310874489
 20
343.9175915819303
 10
179.2537310874489
 20
340.8171915819303
 10
174.5539310874489
 20
340.8171915819303
  0
ENDSEC
  0
SECTION
  2
OBJECTS
  0
DICTIONARY
  5
C
330
0
100
AcDbDictionary
281
     1
  3
ACAD_CIP_PREVIOUS_PRODUCT_INFO
350
7F1
  3
ACAD_COLOR
350
7D3
  3
ACAD_DETAILVIEWSTYLE
350
7EB
  3
ACAD_GROUP
350
D
  3
ACAD_LAYOUT
350
1A
  3
ACAD_MATERIAL
350
7B0
  3
ACAD_MLEADERSTYLE
350
7E7
  3
ACAD_MLINESTYLE
350
17
  3
ACAD_PLOTSETTINGS
350
19
  3
ACAD_PLOTSTYLENAME
350
7AE
  3
ACAD_SCALELIST
350
7D5
  3
ACAD_SECTIONVIEWSTYLE
350
7E9
  3
ACAD_TABLESTYLE
350
7AB
  3
ACAD_VISUALSTYLE
350
2A
  3
ACDB_RECOMPOSE_DATA
350
12A4
  3
AcDbVariableDictionary
350
931
  0
DICTIONARY
  5
1292
330
2
100
AcDbDictionary
280
     1
281
     1
  3
ACAD_LAYERSTATES
360
1293
  0
DICTIONARY
  5
92D
330
10
100
AcDbDictionary
280
     1
281
     1
  3
ADSK_XREC_LAYER_RECONCILED
360
92E
  0
DICTIONARY
  5
92F
330
3B
100
AcDbDictionary
280
     1
281
     1
  3
ADSK_XREC_LAYER_RECONCILED
360
930
  0
DICTIONARY
  5
804
330
1F
100
AcDbDictionary
280
     1
281
     1
  3
ACAD_SORTENTS
360
805
  0
XRECORD
  5
7F1
102
{ACAD_REACTORS
330
C
102
}
330
C
100
AcDbXrecord
280
     1
300
ACD
300
2014
300
ACD_F_S
  0
DICTIONARY
  5
7D3
102
{ACAD_REACTORS
330
C
102
}
330
C
100
AcDbDictionary
281
     1
  0
DICTIONARY
  5
7EB
102
{ACAD_REACTORS
330
C
102
}
330
C
100
AcDbDictionary
281
     1
  3
Imperial24
350
7EC
  0
DICTIONARY
  5
D
102
{ACAD_REACTORS
330
C
102
}
330
C
100
AcDbDictionary
281
     1
  3
*A1
350
129F
  3
*A2
350
12A0
  0
DICTIONARY
  5
1A
102
{ACAD_REACTORS
330
C
102
}
330
C
100
AcDbDictionary
281
     1
  3
Layout1
350
7EE
  3
Model
350
7ED
  0
DICTIONARY
  5
7B0
102
{ACAD_REACTORS
330
C
102
}
330
C
100
AcDbDictionary
281
     1
  3
ByBlock
350
7B9
  3
ByLayer
350
7B1
  3
Global
350
7C1
  0
DICTIONARY
  5
7E7
102
{ACAD_REACTORS
330
C
102
}
330
C
100
AcDbDictionary
281
     1
  3
Standard
350
7E8
  0
DICTIONARY
  5
17
102
{ACAD_REACTORS
330
C
102
}
330
C
100
AcDbDictionary
281
     1
  3
STANDARD
350
18
  0
DICTIONARY
  5
19
102
{ACAD_REACTORS
330
C
102
}
330
C
100
AcDbDictionary
281
     1
  0
ACDBDICTIONARYWDFLT
  5
7AE
102
{ACAD_REACTORS
330
C
102
}
330
C
100
AcDbDictionary
281
     1
  3
Normal
350
7AF
100
AcDbDictionaryWithDefault
340
7AF
  0
DICTIONARY
  5
7D5
102
{ACAD_REACTORS
330
C
102
}
330
C
100
AcDbDictionary
281
     1
  3
A0
350
7D6
  3
A1
350
7D7
  3
A2
350
7D8
  3
A3
350
7D9
  3
A4
350
7DA
  3
A5
350
7DB
  3
A6
350
7DC
  3
A7
350
7DD
  3
A8
350
7DE
  3
A9
350
7DF
  3
B0
350
7E0
  3
B1
350
7E1
  3
B2
350
7E2
  3
B3
350
7E3
  3
B4
350
7E4
  3
B5
350
7E5
  3
B6
350
7E6
  0
DICTIONARY
  5
7E9
102
{ACAD_REACTORS
330
C
102
}
330
C
100
AcDbDictionary
281
     1
  3
Imperial24
350
7EA
  0
DICTIONARY
  5
7AB
102
{ACAD_REACTORS
330
C
102
}
330
C
100
AcDbDictionary
281
     1
  3
Standard
350
7D4
  0
DICTIONARY
  5
2A
102
{ACAD_REACTORS
330
C
102
}
330
C
100
AcDbDictionary
281
     1
  3
2DWIREFRAME
350
2F
  3
3D_HIDDEN
350
31
  3
3DWIREFRAME
350
30
  3
BASIC
350
32
  3
BRIGHTEN
350
36
  3
COLORCHANGE
350
3A
  3
CONCEPTUAL
350
34
  3
DIM
350
35
  3
EdgeColorOff
350
7D2
  3
FACEPATTERN
350
39
  3
FLAT
350
2B
  3
FLATWITHEDGES
350
2C
  3
GOURAUD
350
2D
  3
GOURAUDWITHEDGES
350
2E
  3
Hidden
350
7CA
  3
JitterOff
350
7D0
  3
LINEPATTERN
350
38
  3
OverhangOff
350
7D1
  3
REALISTIC
350
33
  3
Shaded
350
7CF
  3
Shaded with edges
350
7CE
  3
Shades of Gray
350
7CB
  3
Sketchy
350
7CC
  3
THICKEN
350
37
  3
Wireframe
350
7C9
  3
X-Ray
350
7CD
  0
XRECORD
  5
12A4
102
{ACAD_REACTORS
330
C
102
}
330
C
100
AcDbXrecord
280
     1
 90
        1
330
7D4
330
7EA
330
7EC
  0
DICTIONARY
  5
931
102
{ACAD_REACTORS
330
C
102
}
330
C
100
AcDbDictionary
281
     1
  3
CANNOSCALE
350
937
  3
CMLEADERSTYLE
350
933
  3
CTABLESTYLE
350
932
  3
CVIEWDETAILSTYLE
350
934
  3
CVIEWSECTIONSTYLE
350
935
  3
LAYEREVAL
350
939
  3
LAYERNOTIFY
350
93A
  3
LIGHTINGUNITS
350
938
  3
MSLTSCALE
350
936
  0
DICTIONARY
  5
1293
102
{ACAD_REACTORS
330
1292
102
}
330
1292
100
AcDbDictionary
281
     1
  0
XRECORD
  5
92E
102
{ACAD_REACTORS
330
92D
102
}
330
92D
100
AcDbXrecord
280
     1
290
     1
  0
XRECORD
  5
930
102
{ACAD_REACTORS
330
92F
102
}
330
92F
100
AcDbXrecord
280
     1
290
     1
  0
SORTENTSTABLE
  5
805
102
{ACAD_REACTORS
330
804
102
}
330
804
100
AcDbSortentsTable
330
1F
  0
ACDBDETAILVIEWSTYLE
  5
7EC
102
{ACAD_XDICTIONARY
360
93F
102
}
102
{ACAD_REACTORS
330
7EB
102
}
330
7EB
100
AcDbModelDocViewStyle
 70
     0
  3
Imperial24
290
     0
100
AcDbDetailViewStyle
 70
     0
 71
     0
 90
        3
 71
     1
340
11
 62
   256
 40
0.24
340
0
 62
   256
 40
0.24
300

 40
0.36
280
     3
 71
     2
340
16
 90
       25
 62
   256
 71
     3
340
11
 62
   256
 40
0.24
 90
        1
 40
0.75
 90
        1
300
%<\AcVar ViewType \f "%tc1">% %<\AcVar ViewDetailId>%\PSCALE %<\AcVar ViewScale \f "%sn">%
 71
     4
340
16
 90
       25
 62
   256
340
16
 90
       25
 62
   256
280
     0
  0
GROUP
  5
129F
102
{ACAD_REACTORS
330
D
102
}
330
D
100
AcDbGroup
300

 70
     1
 71
     1
340
1060
340
1038
  0
GROUP
  5
12A0
102
{ACAD_REACTORS
330
D
102
}
330
D
100
AcDbGroup
300

 70
     1
 71
     1
340
105F
  0
LAYOUT
  5
7EE
102
{ACAD_REACTORS
330
1A
102
}
330
1A
100
AcDbPlotSettings
  1

  2
Microsoft XPS Document Writer
  4

  6

 40
0.0
 41
0.0
 42
0.0
 43
0.0
 44
0.0
 45
0.0
 46
0.0
 47
0.0
 48
0.0
 49
0.0
140
0.0
141
0.0
142
1.0
143
1.0
 70
   688
 72
     0
 73
     0
 74
     5
  7

 75
    16
147
1.0
 76
     0
 77
     2
 78
   300
148
0.0
149
0.0
100
AcDbLayout
  1
Layout1
 70
     1
 71
     1
 10
0.0
 20
0.0
 11
12.0
 21
9.0
 12
0.0
 22
0.0
 32
0.0
 14
1.000000000000000E+20
 24
1.000000000000000E+20
 34
1.000000000000000E+20
 15
-1.000000000000000E+20
 25
-1.000000000000000E+20
 35
-1.000000000000000E+20
146
0.0
 13
0.0
 23
0.0
 33
0.0
 16
1.0
 26
0.0
 36
0.0
 17
0.0
 27
1.0
 37
0.0
 76
     0
330
1B
  0
LAYOUT
  5
7ED
102
{ACAD_REACTORS
330
1A
102
}
330
1A
100
AcDbPlotSettings
  1

  2
Microsoft XPS Document Writer
  4

  6

 40
0.0
 41
0.0
 42
0.0
 43
0.0
 44
0.0
 45
0.0
 46
0.0
 47
0.0
 48
0.0
 49
0.0
140
0.0
141
0.0
142
1.0
143
1.0
 70
  1712
 72
     0
 73
     0
 74
     0
  7

 75
     0
147
1.0
 76
     0
 77
     2
 78
   300
148
0.0
149
0.0
100
AcDbLayout
  1
Model
 70
     1
 71
     0
 10
0.0
 20
0.0
 11
12.0
 21
9.0
 12
0.0
 22
0.0
 32
0.0
 14
0.0
 24
0.0
 34
0.0
 15
0.0
 25
0.0
 35
0.0
146
0.0
 13
0.0
 23
0.0
 33
0.0
 16
1.0
 26
0.0
 36
0.0
 17
0.0
 27
1.0
 37
0.0
 76
     0
330
1F
331
29
  0
MATERIAL
  5
7B9
102
{ACAD_XDICTIONARY
360
7BA
102
}
102
{ACAD_REACTORS
330
7B0
102
}
330
7B0
100
AcDbMaterial
  1
ByBlock
 72
     0
 43
0.0208333333333333
 43
0.0
 43
0.0
 43
0.0
 43
0.0
 43
0.0208333333333333
 43
0.0
 43
0.0
 43
0.0
 43
0.0
 43
1.0
 43
0.0
 43
0.0
 43
0.0
 43
0.0
 43
1.0
 77
     0
 47
0.0208333333333333
 47
0.0
 47
0.0
 47
0.0
 47
0.0
 47
0.0208333333333333
 47
0.0
 47
0.0
 47
0.0
 47
0.0
 47
1.0
 47
0.0
 47
0.0
 47
0.0
 47
0.0
 47
1.0
171
     0
 49
0.0208333333333333
 49
0.0
 49
0.0
 49
0.0
 49
0.0
 49
0.0208333333333333
 49
0.0
 49
0.0
 49
0.0
 49
0.0
 49
1.0
 49
0.0
 49
0.0
 49
0.0
 49
0.0
 49
1.0
175
     0
142
0.0208333333333333
142
0.0
142
0.0
142
0.0
142
0.0
142
0.0208333333333333
142
0.0
142
0.0
142
0.0
142
0.0
142
1.0
142
0.0
142
0.0
142
0.0
142
0.0
142
1.0
179
     0
144
0.0208333333333333
144
0.0
144
0.0
144
0.0
144
0.0
144
0.0208333333333333
144
0.0
144
0.0
144
0.0
144
0.0
144
1.0
144
0.0
144
0.0
144
0.0
144
0.0
144
1.0
147
0.0208333333333333
147
0.0
147
0.0
147
0.0
147
0.0
147
0.0208333333333333
147
0.0
147
0.0
147
0.0
147
0.0
147
1.0
147
0.0
147
0.0
147
0.0
147
0.0
147
1.0
  0
MATERIAL
  5
7B1
102
{ACAD_XDICTIONARY
360
7B2
102
}
102
{ACAD_REACTORS
330
7B0
102
}
330
7B0
100
AcDbMaterial
  1
ByLayer
 72
     0
 43
0.0208333333333333
 43
0.0
 43
0.0
 43
0.0
 43
0.0
 43
0.0208333333333333
 43
0.0
 43
0.0
 43
0.0
 43
0.0
 43
1.0
 43
0.0
 43
0.0
 43
0.0
 43
0.0
 43
1.0
 77
     0
 47
0.0208333333333333
 47
0.0
 47
0.0
 47
0.0
 47
0.0
 47
0.0208333333333333
 47
0.0
 47
0.0
 47
0.0
 47
0.0
 47
1.0
 47
0.0
 47
0.0
 47
0.0
 47
0.0
 47
1.0
171
     0
 49
0.0208333333333333
 49
0.0
 49
0.0
 49
0.0
 49
0.0
 49
0.0208333333333333
 49
0.0
 49
0.0
 49
0.0
 49
0.0
 49
1.0
 49
0.0
 49
0.0
 49
0.0
 49
0.0
 49
1.0
175
     0
142
0.0208333333333333
142
0.0
142
0.0
142
0.0
142
0.0
142
0.0208333333333333
142
0.0
142
0.0
142
0.0
142
0.0
142
1.0
142
0.0
142
0.0
142
0.0
142
0.0
142
1.0
179
     0
144
0.0208333333333333
144
0.0
144
0.0
144
0.0
144
0.0
144
0.0208333333333333
144
0.0
144
0.0
144
0.0
144
0.0
144
1.0
144
0.0
144
0.0
144
0.0
144
0.0
144
1.0
147
0.0208333333333333
147
0.0
147
0.0
147
0.0
147
0.0
147
0.0208333333333333
147
0.0
147
0.0
147
0.0
147
0.0
147
1.0
147
0.0
147
0.0
147
0.0
147
0.0
147
1.0
  0
MATERIAL
  5
7C1
102
{ACAD_XDICTIONARY
360
7C2
102
}
102
{ACAD_REACTORS
330
7B0
102
}
330
7B0
100
AcDbMaterial
  1
Global
 72
     0
 43
0.0208333333333333
 43
0.0
 43
0.0
 43
0.0
 43
0.0
 43
0.0208333333333333
 43
0.0
 43
0.0
 43
0.0
 43
0.0
 43
1.0
 43
0.0
 43
0.0
 43
0.0
 43
0.0
 43
1.0
 77
     0
 47
0.0208333333333333
 47
0.0
 47
0.0
 47
0.0
 47
0.0
 47
0.0208333333333333
 47
0.0
 47
0.0
 47
0.0
 47
0.0
 47
1.0
 47
0.0
 47
0.0
 47
0.0
 47
0.0
 47
1.0
171
     0
 49
0.0208333333333333
 49
0.0
 49
0.0
 49
0.0
 49
0.0
 49
0.0208333333333333
 49
0.0
 49
0.0
 49
0.0
 49
0.0
 49
1.0
 49
0.0
 49
0.0
 49
0.0
 49
0.0
 49
1.0
175
     0
142
0.0208333333333333
142
0.0
142
0.0
142
0.0
142
0.0
142
0.0208333333333333
142
0.0
142
0.0
142
0.0
142
0.0
142
1.0
142
0.0
142
0.0
142
0.0
142
0.0
142
1.0
179
     0
144
0.0208333333333333
144
0.0
144
0.0
144
0.0
144
0.0
144
0.0208333333333333
144
0.0
144
0.0
144
0.0
144
0.0
144
1.0
144
0.0
144
0.0
144
0.0
144
0.0
144
1.0
147
0.0208333333333333
147
0.0
147
0.0
147
0.0
147
0.0
147
0.0208333333333333
147
0.0
147
0.0
147
0.0
147
0.0
147
1.0
147
0.0
147
0.0
147
0.0
147
0.0
147
1.0
  0
MLEADERSTYLE
  5
7E8
102
{ACAD_REACTORS
330
7E7
102
}
330
7E7
100
AcDbMLeaderStyle
179
     2
170
     2
171
     1
172
     0
 90
        2
 40
0.0
 41
0.0
173
     1
 91
-1056964608
340
14
 92
       -2
290
     1
 42
0.09
291
     1
 43
0.36
  3
Standard
 44
0.18
300

342
11
174
     1
178
     6
175
     1
176
     0
 93
-1056964608
 45
0.18
292
     0
297
     0
 46
0.18
 94
-1056964608
 47
1.0
 49
1.0
140
1.0
293
     1
141
0.0
294
     1
177
     0
142
1.0
295
     0
296
     0
143
0.125
271
     0
272
     9
273
     9
298
     0
  0
MLINESTYLE
  5
18
102
{ACAD_REACTORS
330
17
102
}
330
17
100
AcDbMlineStyle
  2
STANDARD
 70
     0
  3

 62
   256
 51
90.0
 52
90.0
 71
     2
 49
0.5
 62
   256
  6
BYLAYER
 49
-0.5
 62
   256
  6
BYLAYER
  0
ACDBPLACEHOLDER
  5
7AF
102
{ACAD_REACTORS
330
7AE
102
}
330
7AE
  0
SCALE
  5
7D6
102
{ACAD_REACTORS
330
7D5
102
}
330
7D5
100
AcDbScale
 70
     0
300
1:1
140
1.0
141
1.0
290
     1
  0
SCALE
  5
7D7
102
{ACAD_REACTORS
330
7D5
102
}
330
7D5
100
AcDbScale
 70
     0
300
1/128" = 1'-0"
140
0.0078125
141
12.0
290
     0
  0
SCALE
  5
7D8
102
{ACAD_REACTORS
330
7D5
102
}
330
7D5
100
AcDbScale
 70
     0
300
1/64" = 1'-0"
140
0.015625
141
12.0
290
     0
  0
SCALE
  5
7D9
102
{ACAD_REACTORS
330
7D5
102
}
330
7D5
100
AcDbScale
 70
     0
300
1/32" = 1'-0"
140
0.03125
141
12.0
290
     0
  0
SCALE
  5
7DA
102
{ACAD_REACTORS
330
7D5
102
}
330
7D5
100
AcDbScale
 70
     0
300
1/16" = 1'-0"
140
0.0625
141
12.0
290
     0
  0
SCALE
  5
7DB
102
{ACAD_REACTORS
330
7D5
102
}
330
7D5
100
AcDbScale
 70
     0
300
3/32" = 1'-0"
140
0.09375
141
12.0
290
     0
  0
SCALE
  5
7DC
102
{ACAD_REACTORS
330
7D5
102
}
330
7D5
100
AcDbScale
 70
     0
300
1/8" = 1'-0"
140
0.125
141
12.0
290
     0
  0
SCALE
  5
7DD
102
{ACAD_REACTORS
330
7D5
102
}
330
7D5
100
AcDbScale
 70
     0
300
3/16" = 1'-0"
140
0.1875
141
12.0
290
     0
  0
SCALE
  5
7DE
102
{ACAD_REACTORS
330
7D5
102
}
330
7D5
100
AcDbScale
 70
     0
300
1/4" = 1'-0"
140
0.25
141
12.0
290
     0
  0
SCALE
  5
7DF
102
{ACAD_REACTORS
330
7D5
102
}
330
7D5
100
AcDbScale
 70
     0
300
3/8" = 1'-0"
140
0.375
141
12.0
290
     0
  0
SCALE
  5
7E0
102
{ACAD_REACTORS
330
7D5
102
}
330
7D5
100
AcDbScale
 70
     0
300
1/2" = 1'-0"
140
0.5
141
12.0
290
     0
  0
SCALE
  5
7E1
102
{ACAD_REACTORS
330
7D5
102
}
330
7D5
100
AcDbScale
 70
     0
300
3/4" = 1'-0"
140
0.75
141
12.0
290
     0
  0
SCALE
  5
7E2
102
{ACAD_REACTORS
330
7D5
102
}
330
7D5
100
AcDbScale
 70
     0
300
1" = 1'-0"
140
1.0
141
12.0
290
     0
  0
SCALE
  5
7E3
102
{ACAD_REACTORS
330
7D5
102
}
330
7D5
100
AcDbScale
 70
     0
300
1-1/2" = 1'-0"
140
1.5
141
12.0
290
     0
  0
SCALE
  5
7E4
102
{ACAD_REACTORS
330
7D5
102
}
330
7D5
100
AcDbScale
 70
     0
300
3" = 1'-0"
140
3.0
141
12.0
290
     0
  0
SCALE
  5
7E5
102
{ACAD_REACTORS
330
7D5
102
}
330
7D5
100
AcDbScale
 70
     0
300
6" = 1'-0"
140
6.0
141
12.0
290
     0
  0
SCALE
  5
7E6
102
{ACAD_REACTORS
330
7D5
102
}
330
7D5
100
AcDbScale
 70
     0
300
1'-0" = 1'-0"
140
12.0
141
12.0
290
     0
  0
ACDBSECTIONVIEWSTYLE
  5
7EA
102
{ACAD_XDICTIONARY
360
93D
102
}
102
{ACAD_REACTORS
330
7E9
102
}
330
7E9
100
AcDbModelDocViewStyle
 70
     0
  3
Imperial24
290
     0
100
AcDbSectionViewStyle
 70
     0
 71
     0
 90
       78
 71
     1
340
11
 62
   256
 40
0.24
340
0
340
0
 62
   256
 40
0.24
300
I, O, Q, S, X, Z
 40
0.48
 90
        3
 40
0.18
 90
        1
 71
     2
340
16
 90
       25
 62
   256
340
16
 90
       50
 62
   256
 40
0.24
 40
0.0
 40
0.24
 71
     3
340
11
 62
   256
 40
0.24
 90
        1
 40
0.75
 90
        1
300
%<\AcVar ViewType \f "%tc1">% %<\AcVar ViewSectionStartId>%-%<\AcVar ViewSectionEndId>%\PSCALE %<\AcVar ViewScale \f "%sn">%
 71
     4
 62
   256
 62
   257
300
ANSI31
 40
1.0
 90
        0
290
     0
290
     0
 90
        6
 40
0.0
 40
1.570796326794896
 40
0.2617993877991494
 40
1.308996938995747
 40
-0.2617993877991494
 40
1.832595714594044
  0
TABLESTYLE
  5
7D4
102
{ACAD_XDICTIONARY
360
93B
102
}
102
{ACAD_REACTORS
330
7AB
102
}
330
7AB
100
AcDbTableStyle
280
     0
  3
Standard
 70
     0
 71
     0
 40
0.06
 41
0.06
280
     0
281
     0
  7
STANDARD
140
0.18
170
     2
 62
     0
 63
     7
283
     0
 90
      512
 91
        0
  1

274
    -2
284
     1
 64
     0
275
    -2
285
     1
 65
     0
276
    -2
286
     1
 66
     0
277
    -2
287
     1
 67
     0
278
    -2
288
     1
 68
     0
279
    -2
289
     1
 69
     0
  7
STANDARD
140
0.25
170
     5
 62
     0
 63
     7
283
     0
 90
      512
 91
        0
  1

274
    -2
284
     1
 64
     0
275
    -2
285
     1
 65
     0
276
    -2
286
     1
 66
     0
277
    -2
287
     1
 67
     0
278
    -2
288
     1
 68
     0
279
    -2
289
     1
 69
     0
  7
STANDARD
140
0.18
170
     5
 62
     0
 63
     7
283
     0
 90
      512
 91
        0
  1

274
    -2
284
     1
 64
     0
275
    -2
285
     1
 65
     0
276
    -2
286
     1
 66
     0
277
    -2
287
     1
 67
     0
278
    -2
288
     1
 68
     0
279
    -2
289
     1
 69
     0
  0
VISUALSTYLE
  5
2F
102
{ACAD_REACTORS
330
2A
102
}
330
2A
100
AcDbVisualStyle
  2

 70
     4
177
     3
291
     0
 70
    58
 90
        0
176
     1
 90
        2
176
     1
 90
        0
176
     1
 90
        0
176
     1
 40
0.6
176
     1
 40
30.0
176
     1
 62
     7
176
     1
 90
        1
176
     1
 90
        4
176
     1
 62
     7
176
     1
 62
   257
176
     1
 90
        1
176
     1
 90
        1
176
     1
 40
1.0
176
     1
 90
        0
176
     1
 62
   257
176
     1
 40
1.0
176
     1
 90
        1
176
     1
 90
        6
176
     1
 90
        2
176
     1
 62
     7
176
     1
 90
        5
176
     1
 90
        0
176
     1
 90
        0
176
     1
290
     0
176
     1
 90
        1
176
     1
 40
0.0
176
     1
 90
        0
176
     1
290
     1
176
     1
290
     1
176
     1
290
     0
176
     1
290
     0
176
     1
290
     0
176
     1
290
     0
176
     1
290
     0
176
     1
290
     0
176
     1
290
     0
176
     1
 90
       50
176
     1
 40
0.0
176
     1
 40
1.0
176
     1
 90
        0
176
     1
 62
    18
176
     1
 90
       50
176
     1
 90
        3
176
     1
 62
     5
420
      255
176
     1
290
     0
176
     1
 90
       50
176
     1
 90
       50
176
     1
 90
       50
176
     1
290
     0
176
     1
 90
       50
176
     1
 62
   256
176
     0
 40
1.0
176
     0
 90
        2
176
     1
  1
strokes_ogs.tif
176
     1
290
     0
176
     1
 40
1.0
176
     1
 40
1.0
176
     1
  0
VISUALSTYLE
  5
31
102
{ACAD_REACTORS
330
2A
102
}
330
2A
100
AcDbVisualStyle
  2

 70
     6
177
     3
291
     0
 70
    58
 90
        1
176
     1
 90
        2
176
     1
 90
        2
176
     1
 90
        0
176
     1
 40
0.6
176
     1
 40
30.0
176
     1
 62
     7
176
     1
 90
        2
176
     1
 90
        2
176
     1
 62
     7
176
     1
 62
   257
176
     1
 90
        2
176
     1
 90
        1
176
     1
 40
40.0
176
     1
 90
        0
176
     1
 62
   257
176
     1
 40
1.0
176
     1
 90
        1
176
     1
 90
        6
176
     1
 90
        2
176
     1
 62
     7
176
     1
 90
        3
176
     1
 90
        0
176
     1
 90
        0
176
     1
290
     0
176
     1
 90
        1
176
     1
 40
0.0
176
     1
 90
        0
176
     1
290
     0
176
     1
290
     1
176
     1
290
     1
176
     1
290
     0
176
     1
290
     0
176
     1
290
     0
176
     1
290
     0
176
     1
290
     0
176
     1
290
     0
176
     1
 90
       50
176
     1
 40
0.0
176
     1
 40
1.0
176
     1
 90
        0
176
     1
 62
    18
176
     1
 90
       50
176
     1
 90
        3
176
     1
 62
     5
420
      255
176
     1
290
     0
176
     1
 90
       50
176
     1
 90
       50
176
     1
 90
       50
176
     1
290
     0
176
     1
 90
       50
176
     1
 62
   256
176
     0
 40
1.0
176
     0
 90
        2
176
     1
  1
strokes_ogs.tif
176
     1
290
     0
176
     1
 40
1.0
176
     1
 40
1.0
176
     1
  0
VISUALSTYLE
  5
30
102
{ACAD_REACTORS
330
2A
102
}
330
2A
100
AcDbVisualStyle
  2

 70
     5
177
     3
291
     0
 70
    58
 90
        0
176
     1
 90
        2
176
     1
 90
        0
176
     1
 90
        0
176
     1
 40
0.6
176
     1
 40
30.0
176
     1
 62
     7
176
     1
 90
        1
176
     1
 90
        4
176
     1
 62
     7
176
     1
 62
   257
176
     1
 90
        1
176
     1
 90
        1
176
     1
 40
1.0
176
     1
 90
        0
176
     1
 62
   257
176
     1
 40
1.0
176
     1
 90
        1
176
     1
 90
        6
176
     1
 90
        2
176
     1
 62
     7
176
     1
 90
        5
176
     1
 90
        0
176
     1
 90
        0
176
     1
290
     0
176
     1
 90
        1
176
     1
 40
0.0
176
     1
 90
        0
176
     1
290
     0
176
     1
290
     1
176
     1
290
     1
176
     1
290
     0
176
     1
290
     0
176
     1
290
     0
176
     1
290
     0
176
     1
290
     0
176
     1
290
     0
176
     1
 90
       50
176
     1
 40
0.0
176
     1
 40
1.0
176
     1
 90
        0
176
     1
 62
    18
176
     1
 90
       50
176
     1
 90
        3
176
     1
 62
     5
420
      255
176
     1
290
     0
176
     1
 90
       50
176
     1
 90
       50
176
     1
 90
       50
176
     1
290
     0
176
     1
 90
       50
176
     1
 62
   256
176
     0
 40
1.0
176
     0
 90
        2
176
     1
  1
strokes_ogs.tif
176
     1
290
     0
176
     1
 40
1.0
176
     1
 40
1.0
176
     1
  0
VISUALSTYLE
  5
32
102
{ACAD_REACTORS
330
2A
102
}
330
2A
100
AcDbVisualStyle
  2

 70
     7
177
     3
291
     1
 70
    58
 90
        1
176
     1
 90
        0
176
     1
 90
        1
176
     1
 90
        0
176
     1
 40
0.6
176
     1
 40
30.0
176
     1
 62
     7
176
     1
 90
        0
176
     1
 90
        4
176
     1
 62
     7
176
     1
 62
   257
176
     1
 90
        1
176
     1
 90
        1
176
     1
 40
1.0
176
     1
 90
        8
176
     1
 62
     7
176
     1
 40
1.0
176
     1
 90
        1
176
     1
 90
        6
176
     1
 90
        2
176
     1
 62
     7
176
     1
 90
        5
176
     1
 90
        0
176
     1
 90
        0
176
     1
290
     0
176
     1
 90
        1
176
     1
 40
0.0
176
     1
 90
        0
176
     1
290
     0
176
     1
290
     1
176
     1
290
     1
176
     1
290
     0
176
     1
290
     0
176
     1
290
     0
176
     1
290
     0
176
     1
290
     0
176
     1
290
     0
176
     1
 90
       50
176
     1
 40
0.0
176
     1
 40
1.0
176
     1
 90
        0
176
     1
 62
    18
176
     1
 90
       50
176
     1
 90
        3
176
     1
 62
     5
420
      255
176
     1
290
     0
176
     1
 90
       50
176
     1
 90
       50
176
     1
 90
       50
176
     1
290
     0
176
     1
 90
       50
176
     1
 62
   256
176
     0
 40
1.0
176
     0
 90
        2
176
     1
  1
strokes_ogs.tif
176
     1
290
     0
176
     1
 40
1.0
176
     1
 40
1.0
176
     1
  0
VISUALSTYLE
  5
36
102
{ACAD_REACTORS
330
2A
102
}
330
2A
100
AcDbVisualStyle
  2

 70
    12
177
     3
291
     1
 70
    58
 90
        2
176
     1
 90
        2
176
     1
 90
        0
176
     1
 90
        0
176
     1
 40
0.6
176
     1
 40
30.0
176
     1
 62
     7
176
     1
 90
        1
176
     1
 90
        4
176
     1
 62
     7
176
     1
 62
   257
176
     1
 90
        1
176
     1
 90
        1
176
     1
 40
1.0
176
     1
 90
        8
176
     1
 62
     7
176
     1
 40
1.0
176
     1
 90
        1
176
     1
 90
        6
176
     1
 90
        2
176
     1
 62
     7
176
     1
 90
        5
176
     1
 90
        0
176
     1
 90
        0
176
     1
290
     0
176
     1
 90
        1
176
     1
 40
50.0
176
     1
 90
        0
176
     1
290
     0
176
     1
290
     1
176
     1
290
     1
176
     1
290
     0
176
     1
290
     0
176
     1
290
     0
176
     1
290
     0
176
     1
290
     0
176
     1
290
     0
176
     1
 90
       50
176
     1
 40
0.0
176
     1
 40
1.0
176
     1
 90
        0
176
     1
 62
    18
176
     1
 90
       50
176
     1
 90
        3
176
     1
 62
     5
420
      255
176
     1
290
     0
176
     1
 90
       50
176
     1
 90
       50
176
     1
 90
       50
176
     1
290
     0
176
     1
 90
       50
176
     1
 62
   256
176
     0
 40
1.0
176
     0
 90
        2
176
     1
  1
strokes_ogs.tif
176
     1
290
     0
176
     1
 40
1.0
176
     1
 40
1.0
176
     1
  0
VISUALSTYLE
  5
3A
102
{ACAD_REACTORS
330
2A
102
}
330
2A
100
AcDbVisualStyle
  2

 70
    16
177
     3
291
     1
 70
    58
 90
        2
176
     1
 90
        2
176
     1
 90
        3
176
     1
 90
        0
176
     1
 40
0.6
176
     1
 40
30.0
176
     1
 62
     8
176
     1
 90
        1
176
     1
 90
        4
176
     1
 62
     7
176
     1
 62
   257
176
     1
 90
        1
176
     1
 90
        1
176
     1
 40
1.0
176
     1
 90
        8
176
     1
 62
     8
176
     1
 40
1.0
176
     1
 90
        1
176
     1
 90
        6
176
     1
 90
        2
176
     1
 62
     7
176
     1
 90
        5
176
     1
 90
        0
176
     1
 90
        0
176
     1
290
     0
176
     1
 90
        1
176
     1
 40
0.0
176
     1
 90
        0
176
     1
290
     0
176
     1
290
     1
176
     1
290
     1
176
     1
290
     0
176
     1
290
     0
176
     1
290
     0
176
     1
290
     0
176
     1
290
     0
176
     1
290
     0
176
     1
 90
       50
176
     1
 40
0.0
176
     1
 40
1.0
176
     1
 90
        0
176
     1
 62
    18
176
     1
 90
       50
176
     1
 90
        3
176
     1
 62
     5
420
      255
176
     1
290
     0
176
     1
 90
       50
176
     1
 90
       50
176
     1
 90
       50
176
     1
290
     0
176
     1
 90
       50
176
     1
 62
   256
176
     0
 40
1.0
176
     0
 90
        2
176
     1
  1
strokes_ogs.tif
176
     1
290
     0
176
     1
 40
1.0
176
     1
 40
1.0
176
     1
  0
VISUALSTYLE
  5
34
102
{ACAD_REACTORS
330
2A
102
}
330
2A
100
AcDbVisualStyle
  2

 70
     9
177
     3
291
     0
 70
    58
 90
        3
176
     1
 90
        2
176
     1
 90
        0
176
     1
 90
        0
176
     1
 40
0.6
176
     1
 40
30.0
176
     1
 62
     7
176
     1
 90
        2
176
     1
 90
        2
176
     1
 62
     7
176
     1
 62
   257
176
     1
 90
        1
176
     1
 90
        1
176
     1
 40
40.0
176
     1
 90
        8
176
     1
 62
     7
176
     1
 40
1.0
176
     1
 90
        1
176
     1
 90
        6
176
     1
 90
        2
176
     1
 62
     7
176
     1
 90
        3
176
     1
 90
        0
176
     1
 90
        0
176
     1
290
     0
176
     1
 90
        1
176
     1
 40
0.0
176
     1
 90
        0
176
     1
290
     0
176
     1
290
     1
176
     1
290
     1
176
     1
290
     0
176
     1
290
     0
176
     1
290
     0
176
     1
290
     0
176
     1
290
     0
176
     1
290
     0
176
     1
 90
       50
176
     1
 40
0.0
176
     1
 40
1.0
176
     1
 90
        0
176
     1
 62
    18
176
     1
 90
       50
176
     1
 90
        3
176
     1
 62
     5
420
      255
176
     1
290
     0
176
     1
 90
       50
176
     1
 90
       50
176
     1
 90
       50
176
     1
290
     0
176
     1
 90
       50
176
     1
 62
   256
176
     0
 40
1.0
176
     0
 90
        2
176
     1
  1
strokes_ogs.tif
176
     1
290
     0
176
     1
 40
1.0
176
     1
 40
1.0
176
     1
  0
VISUALSTYLE
  5
35
102
{ACAD_REACTORS
330
2A
102
}
330
2A
100
AcDbVisualStyle
  2

 70
    11
177
     3
291
     1
 70
    58
 90
        2
176
     1
 90
        2
176
     1
 90
        0
176
     1
 90
        0
176
     1
 40
0.6
176
     1
 40
30.0
176
     1
 62
     7
176
     1
 90
        1
176
     1
 90
        4
176
     1
 62
     7
176
     1
 62
   257
176
     1
 90
        1
176
     1
 90
        1
176
     1
 40
1.0
176
     1
 90
        8
176
     1
 62
     7
176
     1
 40
1.0
176
     1
 90
        1
176
     1
 90
        6
176
     1
 90
        2
176
     1
 62
     7
176
     1
 90
        5
176
     1
 90
        0
176
     1
 90
        0
176
     1
290
     0
176
     1
 90
        1
176
     1
 40
-50.0
176
     1
 90
        0
176
     1
290
     0
176
     1
290
     1
176
     1
290
     1
176
     1
290
     0
176
     1
290
     0
176
     1
290
     0
176
     1
290
     0
176
     1
290
     0
176
     1
290
     0
176
     1
 90
       50
176
     1
 40
0.0
176
     1
 40
1.0
176
     1
 90
        0
176
     1
 62
    18
176
     1
 90
       50
176
     1
 90
        3
176
     1
 62
     5
420
      255
176
     1
290
     0
176
     1
 90
       50
176
     1
 90
       50
176
     1
 90
       50
176
     1
290
     0
176
     1
 90
       50
176
     1
 62
   256
176
     0
 40
1.0
176
     0
 90
        2
176
     1
  1
strokes_ogs.tif
176
     1
290
     0
176
     1
 40
1.0
176
     1
 40
1.0
176
     1
  0
VISUALSTYLE
  5
7D2
102
{ACAD_REACTORS
330
2A
102
}
330
2A
100
AcDbVisualStyle
  2
EdgeColorOff
 70
    22
177
     3
291
     1
 70
    58
 90
        2
176
     0
 90
        2
176
     0
 90
        0
176
     0
 90
        0
176
     0
 40
0.6
176
     0
 40
30.0
176
     0
 62
     7
420
 16777215
176
     0
 90
        1
176
     0
 90
        4
176
     0
 62
     7
176
     0
 62
   257
176
     0
 90
        1
176
     0
 90
        1
176
     0
 40
1.0
176
     0
 90
        8
176
     2
 62
     7
176
     0
 40
1.0
176
     0
 90
        1
176
     0
 90
        6
176
     0
 90
        2
176
     0
 62
     7
176
     0
 90
        5
176
     0
 90
        0
176
     0
 90
        0
176
     0
290
     0
176
     0
 90
        1
176
     0
 40
0.0
176
     0
 90
        0
176
     0
290
     0
176
     1
290
     1
176
     1
290
     1
176
     1
290
     0
176
     1
290
     0
176
     1
290
     0
176
     1
290
     0
176
     1
290
     0
176
     1
290
     0
176
     1
 90
       50
176
     0
 40
0.0
176
     0
 40
1.0
176
     0
 90
        0
176
     0
 62
    18
176
     0
 90
       50
176
     0
 90
        3
176
     0
 62
     5
420
      255
176
     0
290
     0
176
     1
 90
       50
176
     0
 90
       50
176
     0
 90
       50
176
     0
290
     0
176
     1
 90
       50
176
     0
 62
   256
176
     0
 40
1.0
176
     0
 90
        2
176
     0
  1
strokes_ogs.tif
176
     0
290
     0
176
     1
 40
1.0
176
     0
 40
1.0
176
     0
  0
VISUALSTYLE
  5
39
102
{ACAD_REACTORS
330
2A
102
}
330
2A
100
AcDbVisualStyle
  2

 70
    15
177
     3
291
     1
 70
    58
 90
        2
176
     1
 90
        2
176
     1
 90
        0
176
     1
 90
        0
176
     1
 40
0.6
176
     1
 40
30.0
176
     1
 62
     7
176
     1
 90
        1
176
     1
 90
        4
176
     1
 62
     7
176
     1
 62
   257
176
     1
 90
        1
176
     1
 90
        1
176
     1
 40
1.0
176
     1
 90
        8
176
     1
 62
     7
176
     1
 40
1.0
176
     1
 90
        1
176
     1
 90
        6
176
     1
 90
        2
176
     1
 62
     7
176
     1
 90
        5
176
     1
 90
        0
176
     1
 90
        0
176
     1
290
     0
176
     1
 90
        1
176
     1
 40
0.0
176
     1
 90
        0
176
     1
290
     0
176
     1
290
     1
176
     1
290
     1
176
     1
290
     0
176
     1
290
     0
176
     1
290
     0
176
     1
290
     0
176
     1
290
     0
176
     1
290
     0
176
     1
 90
       50
176
     1
 40
0.0
176
     1
 40
1.0
176
     1
 90
        0
176
     1
 62
    18
176
     1
 90
       50
176
     1
 90
        3
176
     1
 62
     5
420
      255
176
     1
290
     0
176
     1
 90
       50
176
     1
 90
       50
176
     1
 90
       50
176
     1
290
     0
176
     1
 90
       50
176
     1
 62
   256
176
     0
 40
1.0
176
     0
 90
        2
176
     1
  1
strokes_ogs.tif
176
     1
290
     0
176
     1
 40
1.0
176
     1
 40
1.0
176
     1
  0
VISUALSTYLE
  5
2B
102
{ACAD_REACTORS
330
2A
102
}
330
2A
100
AcDbVisualStyle
  2

 70
     0
177
     3
291
     1
 70
    58
 90
        2
176
     1
 90
        1
176
     1
 90
        1
176
     1
 90
        2
176
     1
 40
0.6
176
     1
 40
30.0
176
     1
 62
     7
176
     1
 90
        0
176
     1
 90
        4
176
     1
 62
     7
176
     1
 62
   257
176
     1
 90
        1
176
     1
 90
        1
176
     1
 40
1.0
176
     1
 90
        8
176
     1
 62
     7
176
     1
 40
1.0
176
     1
 90
        1
176
     1
 90
        6
176
     1
 90
        2
176
     1
 62
     7
176
     1
 90
        5
176
     1
 90
        0
176
     1
 90
        0
176
     1
290
     0
176
     1
 90
       13
176
     1
 40
0.0
176
     1
 90
        0
176
     1
290
     0
176
     1
290
     1
176
     1
290
     1
176
     1
290
     0
176
     1
290
     0
176
     1
290
     0
176
     1
290
     0
176
     1
290
     0
176
     1
290
     0
176
     1
 90
       50
176
     1
 40
0.0
176
     1
 40
1.0
176
     1
 90
        0
176
     1
 62
    18
176
     1
 90
       50
176
     1
 90
        3
176
     1
 62
     5
420
      255
176
     1
290
     0
176
     1
 90
       50
176
     1
 90
       50
176
     1
 90
       50
176
     1
290
     0
176
     1
 90
       50
176
     1
 62
   256
176
     0
 40
1.0
176
     0
 90
        2
176
     1
  1
strokes_ogs.tif
176
     1
290
     0
176
     1
 40
1.0
176
     1
 40
1.0
176
     1
  0
VISUALSTYLE
  5
2C
102
{ACAD_REACTORS
330
2A
102
}
330
2A
100
AcDbVisualStyle
  2

 70
     1
177
     3
291
     1
 70
    58
 90
        2
176
     1
 90
        1
176
     1
 90
        1
176
     1
 90
        2
176
     1
 40
0.6
176
     1
 40
30.0
176
     1
 62
     7
176
     1
 90
        1
176
     1
 90
        4
176
     1
 62
     7
176
     1
 62
   257
176
     1
 90
        1
176
     1
 90
        1
176
     1
 40
1.0
176
     1
 90
        0
176
     1
 62
   257
176
     1
 40
1.0
176
     1
 90
        1
176
     1
 90
        6
176
     1
 90
        2
176
     1
 62
     7
176
     1
 90
        5
176
     1
 90
        0
176
     1
 90
        0
176
     1
290
     0
176
     1
 90
       13
176
     1
 40
0.0
176
     1
 90
        0
176
     1
290
     0
176
     1
290
     1
176
     1
290
     1
176
     1
290
     0
176
     1
290
     0
176
     1
290
     0
176
     1
290
     0
176
     1
290
     0
176
     1
290
     0
176
     1
 90
       50
176
     1
 40
0.0
176
     1
 40
1.0
176
     1
 90
        0
176
     1
 62
    18
176
     1
 90
       50
176
     1
 90
        3
176
     1
 62
     5
420
      255
176
     1
290
     0
176
     1
 90
       50
176
     1
 90
       50
176
     1
 90
       50
176
     1
290
     0
176
     1
 90
       50
176
     1
 62
   256
176
     0
 40
1.0
176
     0
 90
        2
176
     1
  1
strokes_ogs.tif
176
     1
290
     0
176
     1
 40
1.0
176
     1
 40
1.0
176
     1
  0
VISUALSTYLE
  5
2D
102
{ACAD_REACTORS
330
2A
102
}
330
2A
100
AcDbVisualStyle
  2

 70
     2
177
     3
291
     1
 70
    58
 90
        2
176
     1
 90
        2
176
     1
 90
        1
176
     1
 90
        2
176
     1
 40
0.6
176
     1
 40
30.0
176
     1
 62
     7
176
     1
 90
        0
176
     1
 90
        4
176
     1
 62
     7
176
     1
 62
   257
176
     1
 90
        1
176
     1
 90
        1
176
     1
 40
1.0
176
     1
 90
        0
176
     1
 62
     7
176
     1
 40
1.0
176
     1
 90
        1
176
     1
 90
        6
176
     1
 90
        2
176
     1
 62
     7
176
     1
 90
        5
176
     1
 90
        0
176
     1
 90
        0
176
     1
290
     0
176
     1
 90
       13
176
     1
 40
0.0
176
     1
 90
        0
176
     1
290
     0
176
     1
290
     1
176
     1
290
     1
176
     1
290
     0
176
     1
290
     0
176
     1
290
     0
176
     1
290
     0
176
     1
290
     0
176
     1
290
     0
176
     1
 90
       50
176
     1
 40
0.0
176
     1
 40
1.0
176
     1
 90
        0
176
     1
 62
    18
176
     1
 90
       50
176
     1
 90
        3
176
     1
 62
     5
420
      255
176
     1
290
     0
176
     1
 90
       50
176
     1
 90
       50
176
     1
 90
       50
176
     1
290
     0
176
     1
 90
       50
176
     1
 62
   256
176
     0
 40
1.0
176
     0
 90
        2
176
     1
  1
strokes_ogs.tif
176
     1
290
     0
176
     1
 40
1.0
176
     1
 40
1.0
176
     1
  0
VISUALSTYLE
  5
2E
102
{ACAD_REACTORS
330
2A
102
}
330
2A
100
AcDbVisualStyle
  2

 70
     3
177
     3
291
     1
 70
    58
 90
        2
176
     1
 90
        2
176
     1
 90
        1
176
     1
 90
        2
176
     1
 40
0.6
176
     1
 40
30.0
176
     1
 62
     7
176
     1
 90
        1
176
     1
 90
        4
176
     1
 62
     7
176
     1
 62
   257
176
     1
 90
        1
176
     1
 90
        1
176
     1
 40
1.0
176
     1
 90
        0
176
     1
 62
   257
176
     1
 40
1.0
176
     1
 90
        1
176
     1
 90
        6
176
     1
 90
        2
176
     1
 62
     7
176
     1
 90
        5
176
     1
 90
        0
176
     1
 90
        0
176
     1
290
     0
176
     1
 90
       13
176
     1
 40
0.0
176
     1
 90
        0
176
     1
290
     0
176
     1
290
     1
176
     1
290
     1
176
     1
290
     0
176
     1
290
     0
176
     1
290
     0
176
     1
290
     0
176
     1
290
     0
176
     1
290
     0
176
     1
 90
       50
176
     1
 40
0.0
176
     1
 40
1.0
176
     1
 90
        0
176
     1
 62
    18
176
     1
 90
       50
176
     1
 90
        3
176
     1
 62
     5
420
      255
176
     1
290
     0
176
     1
 90
       50
176
     1
 90
       50
176
     1
 90
       50
176
     1
290
     0
176
     1
 90
       50
176
     1
 62
   256
176
     0
 40
1.0
176
     0
 90
        2
176
     1
  1
strokes_ogs.tif
176
     1
290
     0
176
     1
 40
1.0
176
     1
 40
1.0
176
     1
  0
VISUALSTYLE
  5
7CA
102
{ACAD_REACTORS
330
2A
102
}
330
2A
100
AcDbVisualStyle
  2
Hidden
 70
     6
177
     3
291
     0
 70
    58
 90
        1
176
     1
 90
        2
176
     1
 90
        2
176
     1
 90
        0
176
     1
 40
0.6
176
     1
 40
30.0
176
     1
 62
     7
420
 16777215
176
     1
 90
        2
176
     1
 90
        2
176
     1
 62
     7
176
     1
 62
   257
176
     1
 90
        2
176
     1
 90
        1
176
     1
 40
40.0
176
     1
 90
        0
176
     1
 62
   257
176
     1
 40
1.0
176
     1
 90
        1
176
     1
 90
        6
176
     1
 90
        2
176
     1
 62
     7
176
     1
 90
        3
176
     1
 90
        0
176
     1
 90
        0
176
     1
290
     0
176
     1
 90
        1
176
     1
 40
0.0
176
     1
 90
        0
176
     1
290
     0
176
     1
290
     1
176
     1
290
     1
176
     1
290
     0
176
     1
290
     0
176
     1
290
     0
176
     1
290
     0
176
     1
290
     0
176
     1
290
     0
176
     1
 90
       50
176
     1
 40
0.0
176
     1
 40
1.0
176
     1
 90
        0
176
     1
 62
    18
176
     1
 90
       50
176
     1
 90
        3
176
     1
 62
     5
420
      255
176
     1
290
     0
176
     1
 90
       50
176
     1
 90
       50
176
     1
 90
       50
176
     1
290
     0
176
     1
 90
       50
176
     1
 62
   256
176
     0
 40
1.0
176
     0
 90
        2
176
     1
  1
strokes_ogs.tif
176
     1
290
     0
176
     1
 40
1.0
176
     1
 40
1.0
176
     1
  0
VISUALSTYLE
  5
7D0
102
{ACAD_REACTORS
330
2A
102
}
330
2A
100
AcDbVisualStyle
  2
JitterOff
 70
    20
177
     3
291
     1
 70
    58
 90
        2
176
     0
 90
        2
176
     0
 90
        0
176
     0
 90
        0
176
     0
 40
0.6
176
     0
 40
30.0
176
     0
 62
     7
420
 16777215
176
     0
 90
        1
176
     0
 90
        4
176
     0
 62
     7
176
     0
 62
   257
176
     0
 90
        1
176
     0
 90
        1
176
     0
 40
1.0
176
     0
 90
       10
176
     2
 62
     7
176
     0
 40
1.0
176
     0
 90
        1
176
     0
 90
        6
176
     0
 90
        2
176
     0
 62
     7
176
     0
 90
        5
176
     0
 90
        0
176
     0
 90
        0
176
     0
290
     0
176
     0
 90
        1
176
     0
 40
0.0
176
     0
 90
        0
176
     0
290
     0
176
     1
290
     1
176
     1
290
     1
176
     1
290
     0
176
     1
290
     0
176
     1
290
     0
176
     1
290
     0
176
     1
290
     0
176
     1
290
     0
176
     1
 90
       50
176
     0
 40
0.0
176
     0
 40
1.0
176
     0
 90
        0
176
     0
 62
    18
176
     0
 90
       50
176
     0
 90
        3
176
     0
 62
     5
420
      255
176
     0
290
     0
176
     1
 90
       50
176
     0
 90
       50
176
     0
 90
       50
176
     0
290
     0
176
     1
 90
       50
176
     0
 62
   256
176
     0
 40
1.0
176
     0
 90
        2
176
     0
  1
strokes_ogs.tif
176
     0
290
     0
176
     1
 40
1.0
176
     0
 40
1.0
176
     0
  0
VISUALSTYLE
  5
38
102
{ACAD_REACTORS
330
2A
102
}
330
2A
100
AcDbVisualStyle
  2

 70
    14
177
     3
291
     1
 70
    58
 90
        2
176
     1
 90
        2
176
     1
 90
        0
176
     1
 90
        0
176
     1
 40
0.6
176
     1
 40
30.0
176
     1
 62
     7
176
     1
 90
        1
176
     1
 90
        4
176
     1
 62
     7
176
     1
 62
   257
176
     1
 90
        7
176
     1
 90
        7
176
     1
 40
1.0
176
     1
 90
        8
176
     1
 62
     7
176
     1
 40
1.0
176
     1
 90
        1
176
     1
 90
        6
176
     1
 90
        2
176
     1
 62
     7
176
     1
 90
        5
176
     1
 90
        0
176
     1
 90
        0
176
     1
290
     0
176
     1
 90
        1
176
     1
 40
0.0
176
     1
 90
        0
176
     1
290
     0
176
     1
290
     1
176
     1
290
     1
176
     1
290
     0
176
     1
290
     0
176
     1
290
     0
176
     1
290
     0
176
     1
290
     0
176
     1
290
     0
176
     1
 90
       50
176
     1
 40
0.0
176
     1
 40
1.0
176
     1
 90
        0
176
     1
 62
    18
176
     1
 90
       50
176
     1
 90
        3
176
     1
 62
     5
420
      255
176
     1
290
     0
176
     1
 90
       50
176
     1
 90
       50
176
     1
 90
       50
176
     1
290
     0
176
     1
 90
       50
176
     1
 62
   256
176
     0
 40
1.0
176
     0
 90
        2
176
     1
  1
strokes_ogs.tif
176
     1
290
     0
176
     1
 40
1.0
176
     1
 40
1.0
176
     1
  0
VISUALSTYLE
  5
7D1
102
{ACAD_REACTORS
330
2A
102
}
330
2A
100
AcDbVisualStyle
  2
OverhangOff
 70
    21
177
     3
291
     1
 70
    58
 90
        2
176
     0
 90
        2
176
     0
 90
        0
176
     0
 90
        0
176
     0
 40
0.6
176
     0
 40
30.0
176
     0
 62
     7
420
 16777215
176
     0
 90
        1
176
     0
 90
        4
176
     0
 62
     7
176
     0
 62
   257
176
     0
 90
        1
176
     0
 90
        1
176
     0
 40
1.0
176
     0
 90
        9
176
     2
 62
     7
176
     0
 40
1.0
176
     0
 90
        1
176
     0
 90
        6
176
     0
 90
        2
176
     0
 62
     7
176
     0
 90
        5
176
     0
 90
        0
176
     0
 90
        0
176
     0
290
     0
176
     0
 90
        1
176
     0
 40
0.0
176
     0
 90
        0
176
     0
290
     0
176
     1
290
     1
176
     1
290
     1
176
     1
290
     0
176
     1
290
     0
176
     1
290
     0
176
     1
290
     0
176
     1
290
     0
176
     1
290
     0
176
     1
 90
       50
176
     0
 40
0.0
176
     0
 40
1.0
176
     0
 90
        0
176
     0
 62
    18
176
     0
 90
       50
176
     0
 90
        3
176
     0
 62
     5
420
      255
176
     0
290
     0
176
     1
 90
       50
176
     0
 90
       50
176
     0
 90
       50
176
     0
290
     0
176
     1
 90
       50
176
     0
 62
   256
176
     0
 40
1.0
176
     0
 90
        2
176
     0
  1
strokes_ogs.tif
176
     0
290
     0
176
     1
 40
1.0
176
     0
 40
1.0
176
     0
  0
VISUALSTYLE
  5
33
102
{ACAD_REACTORS
330
2A
102
}
330
2A
100
AcDbVisualStyle
  2

 70
     8
177
     3
291
     0
 70
    58
 90
        2
176
     1
 90
        2
176
     1
 90
        0
176
     1
 90
        0
176
     1
 40
0.6
176
     1
 40
30.0
176
     1
 62
     7
176
     1
 90
        1
176
     1
 90
        0
176
     1
 62
     7
176
     1
 62
   257
176
     1
 90
        1
176
     1
 90
        1
176
     1
 40
1.0
176
     1
 90
        8
176
     1
 62
     8
176
     1
 40
1.0
176
     1
 90
        1
176
     1
 90
        6
176
     1
 90
        2
176
     1
 62
     7
176
     1
 90
        5
176
     1
 90
        0
176
     1
 90
        0
176
     1
290
     0
176
     1
 90
       13
176
     1
 40
0.0
176
     1
 90
        0
176
     1
290
     0
176
     1
290
     1
176
     1
290
     1
176
     1
290
     0
176
     1
290
     0
176
     1
290
     0
176
     1
290
     0
176
     1
290
     0
176
     1
290
     0
176
     1
 90
       50
176
     1
 40
0.0
176
     1
 40
1.0
176
     1
 90
        0
176
     1
 62
    18
176
     1
 90
       50
176
     1
 90
        3
176
     1
 62
     5
420
      255
176
     1
290
     0
176
     1
 90
       50
176
     1
 90
       50
176
     1
 90
       50
176
     1
290
     0
176
     1
 90
       50
176
     1
 62
   256
176
     0
 40
1.0
176
     0
 90
        2
176
     1
  1
strokes_ogs.tif
176
     1
290
     0
176
     1
 40
1.0
176
     1
 40
1.0
176
     1
  0
VISUALSTYLE
  5
7CF
102
{ACAD_REACTORS
330
2A
102
}
330
2A
100
AcDbVisualStyle
  2
Shaded
 70
    27
177
     3
291
     0
 70
    58
 90
        2
176
     1
 90
        2
176
     1
 90
        1
176
     1
 90
        2
176
     1
 40
0.6
176
     1
 40
30.0
176
     1
 62
     7
420
 16777215
176
     1
 90
        0
176
     1
 90
        4
176
     1
 62
     7
176
     1
 62
   257
176
     1
 90
        1
176
     1
 90
        1
176
     1
 40
1.0
176
     1
 90
        8
176
     1
 62
   257
176
     1
 40
1.0
176
     1
 90
        1
176
     1
 90
        6
176
     1
 90
        2
176
     1
 62
     8
420
  7895160
176
     1
 90
        3
176
     1
 90
        0
176
     1
 90
        0
176
     1
290
     0
176
     1
 90
        5
176
     1
 40
0.0
176
     1
 90
        0
176
     1
290
     0
176
     1
290
     1
176
     1
290
     1
176
     1
290
     0
176
     1
290
     0
176
     1
290
     0
176
     1
290
     0
176
     1
290
     0
176
     1
290
     0
176
     1
 90
       50
176
     1
 40
0.0
176
     1
 40
1.0
176
     1
 90
        0
176
     1
 62
    18
176
     1
 90
       50
176
     1
 90
        3
176
     1
 62
     5
420
      255
176
     1
290
     0
176
     1
 90
       50
176
     1
 90
       50
176
     1
 90
       50
176
     1
290
     0
176
     1
 90
       50
176
     1
 62
   256
176
     0
 40
1.0
176
     0
 90
        2
176
     1
  1
strokes_ogs.tif
176
     1
290
     0
176
     1
 40
1.0
176
     1
 40
1.0
176
     1
  0
VISUALSTYLE
  5
7CE
102
{ACAD_REACTORS
330
2A
102
}
330
2A
100
AcDbVisualStyle
  2
Shaded with edges
 70
    26
177
     3
291
     0
 70
    58
 90
        2
176
     1
 90
        2
176
     1
 90
        1
176
     1
 90
        2
176
     1
 40
0.6
176
     1
 40
30.0
176
     1
 62
     7
420
 16777215
176
     1
 90
        1
176
     1
 90
       10
176
     1
 62
     7
176
     1
 62
   257
176
     1
 90
        2
176
     1
 90
        1
176
     1
 40
1.0
176
     1
 90
        8
176
     1
 62
   257
176
     1
 40
1.0
176
     1
 90
        1
176
     1
 90
        6
176
     1
 90
        2
176
     1
 62
     7
176
     1
 90
        3
176
     1
 90
        0
176
     1
 90
        0
176
     1
290
     0
176
     1
 90
        5
176
     1
 40
0.0
176
     1
 90
        0
176
     1
290
     0
176
     1
290
     1
176
     1
290
     1
176
     1
290
     0
176
     1
290
     0
176
     1
290
     0
176
     1
290
     0
176
     1
290
     0
176
     1
290
     0
176
     1
 90
       50
176
     1
 40
0.0
176
     1
 40
1.0
176
     1
 90
        0
176
     1
 62
    18
176
     1
 90
       50
176
     1
 90
        3
176
     1
 62
     5
420
      255
176
     1
290
     0
176
     1
 90
       50
176
     1
 90
       50
176
     1
 90
       50
176
     1
290
     0
176
     1
 90
       50
176
     1
 62
   256
176
     0
 40
1.0
176
     0
 90
        2
176
     1
  1
strokes_ogs.tif
176
     1
290
     0
176
     1
 40
1.0
176
     1
 40
1.0
176
     1
  0
VISUALSTYLE
  5
7CB
102
{ACAD_REACTORS
330
2A
102
}
330
2A
100
AcDbVisualStyle
  2
Shades of Gray
 70
    23
177
     3
291
     0
 70
    58
 90
        2
176
     1
 90
        2
176
     1
 90
        3
176
     1
 90
        0
176
     1
 40
0.6
176
     1
 40
30.0
176
     1
 62
     7
420
 16777215
176
     1
 90
        2
176
     1
 90
        2
176
     1
 62
     7
176
     1
 62
     7
176
     1
 90
        1
176
     1
 90
        1
176
     1
 40
40.0
176
     1
 90
        8
176
     1
 62
     7
176
     1
 40
1.0
176
     1
 90
        1
176
     1
 90
        6
176
     1
 90
        2
176
     1
 62
     7
176
     1
 90
        3
176
     1
 90
        0
176
     1
 90
        0
176
     1
290
     0
176
     1
 90
        1
176
     1
 40
0.0
176
     1
 90
        0
176
     1
290
     0
176
     1
290
     1
176
     1
290
     1
176
     1
290
     0
176
     1
290
     0
176
     1
290
     0
176
     1
290
     0
176
     1
290
     0
176
     1
290
     0
176
     1
 90
       50
176
     1
 40
0.0
176
     1
 40
1.0
176
     1
 90
        0
176
     1
 62
    18
176
     1
 90
       50
176
     1
 90
        3
176
     1
 62
     5
420
      255
176
     1
290
     0
176
     1
 90
       50
176
     1
 90
       50
176
     1
 90
       50
176
     1
290
     0
176
     1
 90
       50
176
     1
 62
   256
176
     0
 40
1.0
176
     0
 90
        2
176
     1
  1
strokes_ogs.tif
176
     1
290
     0
176
     1
 40
1.0
176
     1
 40
1.0
176
     1
  0
VISUALSTYLE
  5
7CC
102
{ACAD_REACTORS
330
2A
102
}
330
2A
100
AcDbVisualStyle
  2
Sketchy
 70
    24
177
     3
291
     0
 70
    58
 90
        1
176
     1
 90
        2
176
     1
 90
        2
176
     1
 90
        0
176
     1
 40
0.6
176
     1
 40
30.0
176
     1
 62
     7
420
 16777215
176
     1
 90
        2
176
     1
 90
        2
176
     1
 62
     7
176
     1
 62
     7
176
     1
 90
        1
176
     1
 90
        1
176
     1
 40
40.0
176
     1
 90
       11
176
     1
 62
     7
176
     1
 40
1.0
176
     1
 90
        1
176
     1
 90
        6
176
     1
 90
        2
176
     1
 62
     7
176
     1
 90
        6
176
     1
 90
        0
176
     1
 90
        0
176
     1
290
     0
176
     1
 90
        1
176
     1
 40
0.0
176
     1
 90
        0
176
     1
290
     0
176
     1
290
     1
176
     1
290
     1
176
     1
290
     0
176
     1
290
     0
176
     1
290
     0
176
     1
290
     0
176
     1
290
     0
176
     1
290
     0
176
     1
 90
       50
176
     1
 40
0.0
176
     1
 40
1.0
176
     1
 90
        0
176
     1
 62
    18
176
     1
 90
       50
176
     1
 90
        3
176
     1
 62
     5
420
      255
176
     1
290
     0
176
     1
 90
       50
176
     1
 90
       50
176
     1
 90
       50
176
     1
290
     0
176
     1
 90
       50
176
     1
 62
   256
176
     0
 40
1.0
176
     0
 90
        2
176
     1
  1
strokes_ogs.tif
176
     1
290
     0
176
     1
 40
1.0
176
     1
 40
1.0
176
     1
  0
VISUALSTYLE
  5
37
102
{ACAD_REACTORS
330
2A
102
}
330
2A
100
AcDbVisualStyle
  2

 70
    13
177
     3
291
     1
 70
    58
 90
        2
176
     1
 90
        2
176
     1
 90
        0
176
     1
 90
        0
176
     1
 40
0.6
176
     1
 40
30.0
176
     1
 62
     7
176
     1
 90
        1
176
     1
 90
        4
176
     1
 62
     7
176
     1
 62
   257
176
     1
 90
        1
176
     1
 90
        1
176
     1
 40
1.0
176
     1
 90
       12
176
     1
 62
     7
176
     1
 40
1.0
176
     1
 90
        1
176
     1
 90
        6
176
     1
 90
        2
176
     1
 62
     7
176
     1
 90
        5
176
     1
 90
        0
176
     1
 90
        0
176
     1
290
     0
176
     1
 90
        1
176
     1
 40
0.0
176
     1
 90
        0
176
     1
290
     0
176
     1
290
     1
176
     1
290
     1
176
     1
290
     0
176
     1
290
     0
176
     1
290
     0
176
     1
290
     0
176
     1
290
     0
176
     1
290
     0
176
     1
 90
       50
176
     1
 40
0.0
176
     1
 40
1.0
176
     1
 90
        0
176
     1
 62
    18
176
     1
 90
       50
176
     1
 90
        3
176
     1
 62
     5
420
      255
176
     1
290
     0
176
     1
 90
       50
176
     1
 90
       50
176
     1
 90
       50
176
     1
290
     0
176
     1
 90
       50
176
     1
 62
   256
176
     0
 40
1.0
176
     0
 90
        2
176
     1
  1
strokes_ogs.tif
176
     1
290
     0
176
     1
 40
1.0
176
     1
 40
1.0
176
     1
  0
VISUALSTYLE
  5
7C9
102
{ACAD_REACTORS
330
2A
102
}
330
2A
100
AcDbVisualStyle
  2
Wireframe
 70
     5
177
     3
291
     0
 70
    58
 90
        0
176
     1
 90
        2
176
     1
 90
        0
176
     1
 90
        0
176
     1
 40
0.6
176
     1
 40
30.0
176
     1
 62
     7
420
 16777215
176
     1
 90
        1
176
     1
 90
        4
176
     1
 62
     7
176
     1
 62
   257
176
     1
 90
        1
176
     1
 90
        1
176
     1
 40
1.0
176
     1
 90
        0
176
     1
 62
   257
176
     1
 40
1.0
176
     1
 90
        1
176
     1
 90
        6
176
     1
 90
        2
176
     1
 62
     7
176
     1
 90
        3
176
     1
 90
        0
176
     1
 90
        0
176
     1
290
     0
176
     1
 90
        1
176
     1
 40
0.0
176
     1
 90
        0
176
     1
290
     0
176
     1
290
     1
176
     1
290
     1
176
     1
290
     0
176
     1
290
     0
176
     1
290
     0
176
     1
290
     0
176
     1
290
     0
176
     1
290
     0
176
     1
 90
       50
176
     1
 40
0.0
176
     1
 40
1.0
176
     1
 90
        0
176
     1
 62
    18
176
     1
 90
       50
176
     1
 90
        3
176
     1
 62
     5
420
      255
176
     1
290
     0
176
     1
 90
       50
176
     1
 90
       50
176
     1
 90
       50
176
     1
290
     0
176
     1
 90
       50
176
     1
 62
   256
176
     0
 40
1.0
176
     0
 90
        2
176
     1
  1
strokes_ogs.tif
176
     1
290
     0
176
     1
 40
1.0
176
     1
 40
1.0
176
     1
  0
VISUALSTYLE
  5
7CD
102
{ACAD_REACTORS
330
2A
102
}
330
2A
100
AcDbVisualStyle
  2
X-Ray
 70
    25
177
     3
291
     0
 70
    58
 90
        2
176
     1
 90
        2
176
     1
 90
        1
176
     1
 90
        1
176
     1
 40
0.5
176
     1
 40
30.0
176
     1
 62
     7
420
 16777215
176
     1
 90
        1
176
     1
 90
        0
176
     1
 62
     7
176
     1
 62
   257
176
     1
 90
        1
176
     1
 90
        1
176
     1
 40
1.0
176
     1
 90
        8
176
     1
 62
     7
176
     1
 40
1.0
176
     1
 90
        1
176
     1
 90
        6
176
     1
 90
        2
176
     1
 62
     7
176
     1
 90
        3
176
     1
 90
        0
176
     1
 90
        0
176
     1
290
     0
176
     1
 90
       13
176
     1
 40
0.0
176
     1
 90
        0
176
     1
290
     0
176
     1
290
     1
176
     1
290
     1
176
     1
290
     0
176
     1
290
     0
176
     1
290
     0
176
     1
290
     0
176
     1
290
     0
176
     1
290
     0
176
     1
 90
       50
176
     1
 40
0.0
176
     1
 40
1.0
176
     1
 90
        0
176
     1
 62
    18
176
     1
 90
       50
176
     1
 90
        3
176
     1
 62
     5
420
      255
176
     1
290
     0
176
     1
 90
       50
176
     1
 90
       50
176
     1
 90
       50
176
     1
290
     0
176
     1
 90
       50
176
     1
 62
   256
176
     0
 40
1.0
176
     0
 90
        2
176
     1
  1
strokes_ogs.tif
176
     1
290
     0
176
     1
 40
1.0
176
     1
 40
1.0
176
     1
  0
DICTIONARYVAR
  5
937
102
{ACAD_REACTORS
330
931
102
}
330
931
100
DictionaryVariables
280
     0
  1
1:1
  0
DICTIONARYVAR
  5
933
102
{ACAD_REACTORS
330
931
102
}
330
931
100
DictionaryVariables
280
     0
  1
STANDARD
  0
DICTIONARYVAR
  5
932
102
{ACAD_REACTORS
330
931
102
}
330
931
100
DictionaryVariables
280
     0
  1
STANDARD
  0
DICTIONARYVAR
  5
934
102
{ACAD_REACTORS
330
931
102
}
330
931
100
DictionaryVariables
280
     0
  1
Imperial24
  0
DICTIONARYVAR
  5
935
102
{ACAD_REACTORS
330
931
102
}
330
931
100
DictionaryVariables
280
     0
  1
Imperial24
  0
DICTIONARYVAR
  5
939
102
{ACAD_REACTORS
330
931
102
}
330
931
100
DictionaryVariables
280
     0
  1
1
  0
DICTIONARYVAR
  5
93A
102
{ACAD_REACTORS
330
931
102
}
330
931
100
DictionaryVariables
280
     0
  1
15
  0
DICTIONARYVAR
  5
938
102
{ACAD_REACTORS
330
931
102
}
330
931
100
DictionaryVariables
280
     0
  1
0
  0
DICTIONARYVAR
  5
936
102
{ACAD_REACTORS
330
931
102
}
330
931
100
DictionaryVariables
280
     0
  1
0
  0
DICTIONARY
  5
93F
330
7EC
100
AcDbDictionary
280
     1
281
     1
  3
ACAD_XREC_ROUNDTRIP
360
12A3
  0
DICTIONARY
  5
7BA
330
7B9
100
AcDbDictionary
280
     1
281
     1
  3
BUMPTILE
360
7BC
  3
DIFFUSETILE
360
7BB
  3
OPACITYTILE
360
7BF
  3
REFLECTIONTILE
360
7BE
  3
REFRACTIONTILE
360
7C0
  3
SPECULARTILE
360
7BD
  0
DICTIONARY
  5
7B2
330
7B1
100
AcDbDictionary
280
     1
281
     1
  3
BUMPTILE
360
7B4
  3
DIFFUSETILE
360
7B3
  3
OPACITYTILE
360
7B7
  3
REFLECTIONTILE
360
7B6
  3
REFRACTIONTILE
360
7B8
  3
SPECULARTILE
360
7B5
  0
DICTIONARY
  5
7C2
330
7C1
100
AcDbDictionary
280
     1
281
     1
  3
BUMPTILE
360
7C4
  3
DIFFUSETILE
360
7C3
  3
OPACITYTILE
360
7C7
  3
REFLECTIONTILE
360
7C6
  3
REFRACTIONTILE
360
7C8
  3
SPECULARTILE
360
7C5
  0
DICTIONARY
  5
93D
330
7EA
100
AcDbDictionary
280
     1
281
     1
  3
ACAD_XREC_ROUNDTRIP
360
12A2
  0
DICTIONARY
  5
93B
330
7D4
100
AcDbDictionary
280
     1
281
     1
  3
ACAD_ROUNDTRIP_2008_TABLESTYLE_CELLSTYLEMAP
360
12A1
  0
XRECORD
  5
12A3
102
{ACAD_REACTORS
330
93F
102
}
330
93F
100
AcDbXrecord
280
     1
102
DISPLAYNAME
  1
Imperial24
102
FLAGS
 90
        0
  0
XRECORD
  5
7BC
102
{ACAD_REACTORS
330
7BA
102
}
330
7BA
100
AcDbXrecord
280
     1
270
     1
271
     1
  0
XRECORD
  5
7BB
102
{ACAD_REACTORS
330
7BA
102
}
330
7BA
100
AcDbXrecord
280
     1
270
     1
271
     1
  0
XRECORD
  5
7BF
102
{ACAD_REACTORS
330
7BA
102
}
330
7BA
100
AcDbXrecord
280
     1
270
     1
271
     1
  0
XRECORD
  5
7BE
102
{ACAD_REACTORS
330
7BA
102
}
330
7BA
100
AcDbXrecord
280
     1
270
     1
271
     1
  0
XRECORD
  5
7C0
102
{ACAD_REACTORS
330
7BA
102
}
330
7BA
100
AcDbXrecord
280
     1
270
     1
271
     1
  0
XRECORD
  5
7BD
102
{ACAD_REACTORS
330
7BA
102
}
330
7BA
100
AcDbXrecord
280
     1
270
     1
271
     1
  0
XRECORD
  5
7B4
102
{ACAD_REACTORS
330
7B2
102
}
330
7B2
100
AcDbXrecord
280
     1
270
     1
271
     1
  0
XRECORD
  5
7B3
102
{ACAD_REACTORS
330
7B2
102
}
330
7B2
100
AcDbXrecord
280
     1
270
     1
271
     1
  0
XRECORD
  5
7B7
102
{ACAD_REACTORS
330
7B2
102
}
330
7B2
100
AcDbXrecord
280
     1
270
     1
271
     1
  0
XRECORD
  5
7B6
102
{ACAD_REACTORS
330
7B2
102
}
330
7B2
100
AcDbXrecord
280
     1
270
     1
271
     1
  0
XRECORD
  5
7B8
102
{ACAD_REACTORS
330
7B2
102
}
330
7B2
100
AcDbXrecord
280
     1
270
     1
271
     1
  0
XRECORD
  5
7B5
102
{ACAD_REACTORS
330
7B2
102
}
330
7B2
100
AcDbXrecord
280
     1
270
     1
271
     1
  0
XRECORD
  5
7C4
102
{ACAD_REACTORS
330
7C2
102
}
330
7C2
100
AcDbXrecord
280
     1
270
     1
271
     1
  0
XRECORD
  5
7C3
102
{ACAD_REACTORS
330
7C2
102
}
330
7C2
100
AcDbXrecord
280
     1
270
     1
271
     1
  0
XRECORD
  5
7C7
102
{ACAD_REACTORS
330
7C2
102
}
330
7C2
100
AcDbXrecord
280
     1
270
     1
271
     1
  0
XRECORD
  5
7C6
102
{ACAD_REACTORS
330
7C2
102
}
330
7C2
100
AcDbXrecord
280
     1
270
     1
271
     1
  0
XRECORD
  5
7C8
102
{ACAD_REACTORS
330
7C2
102
}
330
7C2
100
AcDbXrecord
280
     1
270
     1
271
     1
  0
XRECORD
  5
7C5
102
{ACAD_REACTORS
330
7C2
102
}
330
7C2
100
AcDbXrecord
280
     1
270
     1
271
     1
  0
XRECORD
  5
12A2
102
{ACAD_REACTORS
330
93D
102
}
330
93D
100
AcDbXrecord
280
     1
102
DISPLAYNAME
  1
Imperial24
102
FLAGS
 90
        0
  0
CELLSTYLEMAP
  5
12A1
102
{ACAD_REACTORS
330
93B
102
}
330
93B
100
AcDbCellStyleMap
 90
        3
300
CELLSTYLE
  1
TABLEFORMAT_BEGIN
 90
        5
170
     1
 91
        0
 92
    32768
 62
   257
 93
        1
300
CONTENTFORMAT
  1
CONTENTFORMAT_BEGIN
 90
        0
 91
        0
 92
      512
 93
        0
300

 40
0.0
140
1.0
 94
        5
 62
     0
340
11
144
0.25
309
CONTENTFORMAT_END
171
     1
301
MARGIN
  1
CELLMARGIN_BEGIN
 40
0.06
 40
0.06
 40
0.06
 40
0.06
 40
0.18
 40
0.18
309
CELLMARGIN_END
 94
        6
 95
        1
302
GRIDFORMAT
  1
GRIDFORMAT_BEGIN
 90
        0
 91
        1
 62
     0
 92
       -2
340
0
 93
        0
 40
0.045
309
GRIDFORMAT_END
 95
        2
302
GRIDFORMAT
  1
GRIDFORMAT_BEGIN
 90
        0
 91
        1
 62
     0
 92
       -2
340
0
 93
        0
 40
0.045
309
GRIDFORMAT_END
 95
        4
302
GRIDFORMAT
  1
GRIDFORMAT_BEGIN
 90
        0
 91
        1
 62
     0
 92
       -2
340
0
 93
        0
 40
0.045
309
GRIDFORMAT_END
 95
        8
302
GRIDFORMAT
  1
GRIDFORMAT_BEGIN
 90
        0
 91
        1
 62
     0
 92
       -2
340
0
 93
        0
 40
0.045
309
GRIDFORMAT_END
 95
       16
302
GRIDFORMAT
  1
GRIDFORMAT_BEGIN
 90
        0
 91
        1
 62
     0
 92
       -2
340
0
 93
        0
 40
0.045
309
GRIDFORMAT_END
 95
       32
302
GRIDFORMAT
  1
GRIDFORMAT_BEGIN
 90
        0
 91
        1
 62
     0
 92
       -2
340
0
 93
        0
 40
0.045
309
GRIDFORMAT_END
309
TABLEFORMAT_END
  1
CELLSTYLE_BEGIN
 90
        1
 91
        1
300
_TITLE
309
CELLSTYLE_END
300
CELLSTYLE
  1
TABLEFORMAT_BEGIN
 90
        5
170
     1
 91
        0
 92
        0
 62
   257
 93
        1
300
CONTENTFORMAT
  1
CONTENTFORMAT_BEGIN
 90
        0
 91
        0
 92
      512
 93
        0
300

 40
0.0
140
1.0
 94
        5
 62
     0
340
11
144
0.18
309
CONTENTFORMAT_END
171
     1
301
MARGIN
  1
CELLMARGIN_BEGIN
 40
0.06
 40
0.06
 40
0.06
 40
0.06
 40
0.18
 40
0.18
309
CELLMARGIN_END
 94
        6
 95
        1
302
GRIDFORMAT
  1
GRIDFORMAT_BEGIN
 90
        0
 91
        1
 62
     0
 92
       -2
340
0
 93
        0
 40
0.045
309
GRIDFORMAT_END
 95
        2
302
GRIDFORMAT
  1
GRIDFORMAT_BEGIN
 90
        0
 91
        1
 62
     0
 92
       -2
340
0
 93
        0
 40
0.045
309
GRIDFORMAT_END
 95
        4
302
GRIDFORMAT
  1
GRIDFORMAT_BEGIN
 90
        0
 91
        1
 62
     0
 92
       -2
340
0
 93
        0
 40
0.045
309
GRIDFORMAT_END
 95
        8
302
GRIDFORMAT
  1
GRIDFORMAT_BEGIN
 90
        0
 91
        1
 62
     0
 92
       -2
340
0
 93
        0
 40
0.045
309
GRIDFORMAT_END
 95
       16
302
GRIDFORMAT
  1
GRIDFORMAT_BEGIN
 90
        0
 91
        1
 62
     0
 92
       -2
340
0
 93
        0
 40
0.045
309
GRIDFORMAT_END
 95
       32
302
GRIDFORMAT
  1
GRIDFORMAT_BEGIN
 90
        0
 91
        1
 62
     0
 92
       -2
340
0
 93
        0
 40
0.045
309
GRIDFORMAT_END
309
TABLEFORMAT_END
  1
CELLSTYLE_BEGIN
 90
        2
 91
        1
300
_HEADER
309
CELLSTYLE_END
300
CELLSTYLE
  1
TABLEFORMAT_BEGIN
 90
        5
170
     1
 91
        0
 92
        0
 62
   257
 93
        1
300
CONTENTFORMAT
  1
CONTENTFORMAT_BEGIN
 90
        0
 91
        0
 92
      512
 93
        0
300

 40
0.0
140
1.0
 94
        2
 62
     0
340
11
144
0.18
309
CONTENTFORMAT_END
171
     1
301
MARGIN
  1
CELLMARGIN_BEGIN
 40
0.06
 40
0.06
 40
0.06
 40
0.06
 40
0.18
 40
0.18
309
CELLMARGIN_END
 94
        6
 95
        1
302
GRIDFORMAT
  1
GRIDFORMAT_BEGIN
 90
        0
 91
        1
 62
     0
 92
       -2
340
0
 93
        0
 40
0.045
309
GRIDFORMAT_END
 95
        2
302
GRIDFORMAT
  1
GRIDFORMAT_BEGIN
 90
        0
 91
        1
 62
     0
 92
       -2
340
0
 93
        0
 40
0.045
309
GRIDFORMAT_END
 95
        4
302
GRIDFORMAT
  1
GRIDFORMAT_BEGIN
 90
        0
 91
        1
 62
     0
 92
       -2
340
0
 93
        0
 40
0.045
309
GRIDFORMAT_END
 95
        8
302
GRIDFORMAT
  1
GRIDFORMAT_BEGIN
 90
        0
 91
        1
 62
     0
 92
       -2
340
0
 93
        0
 40
0.045
309
GRIDFORMAT_END
 95
       16
302
GRIDFORMAT
  1
GRIDFORMAT_BEGIN
 90
        0
 91
        1
 62
     0
 92
       -2
340
0
 93
        0
 40
0.045
309
GRIDFORMAT_END
 95
       32
302
GRIDFORMAT
  1
GRIDFORMAT_BEGIN
 90
        0
 91
        1
 62
     0
 92
       -2
340
0
 93
        0
 40
0.045
309
GRIDFORMAT_END
309
TABLEFORMAT_END
  1
CELLSTYLE_BEGIN
 90
        3
 91
        2
300
_DATA
309
CELLSTYLE_END
  0
ENDSEC
  0
SECTION
  2
ACDSDATA
 70
     2
 71
     6
  0
ACDSSCHEMA
 90
        0
  1
AcDb_Thumbnail_Schema
  2
AcDbDs::ID
280
    10
 91
        8
  2
Thumbnail_Data
280
    15
 91
        0
101
ACDSRECORD
 95
        0
 90
        1
  2
AcDbDs::TreatedAsObjectData
280
     1
291
     1
101
ACDSRECORD
 95
        0
 90
        2
  2
AcDbDs::Legacy
280
     1
291
     1
101
ACDSRECORD
  1
AcDbDs::ID
 90
        3
  2
AcDs:Indexable
280
     1
291
     1
101
ACDSRECORD
  1
AcDbDs::ID
 90
        4
  2
AcDbDs::HandleAttribute
280
     7
282
     1
  0
ACDSSCHEMA
 90
        1
  1
AcDbDs::TreatedAsObjectDataSchema
  2
AcDbDs::TreatedAsObjectData
280
     1
 91
        0
  0
ACDSSCHEMA
 90
        2
  1
AcDbDs::LegacySchema
  2
AcDbDs::Legacy
280
     1
 91
        0
  0
ACDSSCHEMA
 90
        3
  1
AcDbDs::IndexedPropertySchema
  2
AcDs:Indexable
280
     1
 91
        0
  0
ACDSSCHEMA
 90
        4
  1
AcDbDs::HandleAttributeSchema
  2
AcDbDs::HandleAttribute
280
     7
 91
        1
284
     1
  0
ACDSRECORD
 90
        0
  2
AcDbDs::ID
280
    10
320
7ED
  2
Thumbnail_Data
280
    15
 94
     1271
310
89504E470D0A1A0A0000000D49484452000001000000007208030000008B31FF2A00000300504C5445212830000000C8C8C80000000000000000000000000000000000000000000000000000330000660000990000CC0000FF0033000033330033660033990033CC0033FF0066000066330066660066990066CC0066FF0099
310
000099330099660099990099CC0099FF00CC0000CC3300CC6600CC9900CCCC00CCFF00FF0000FF3300FF6600FF9900FFCC00FFFF3300003300333300663300993300CC3300FF3333003333333333663333993333CC3333FF3366003366333366663366993366CC3366FF3399003399333399663399993399CC3399FF33CC00
310
33CC3333CC6633CC9933CCCC33CCFF33FF0033FF3333FF6633FF9933FFCC33FFFF6600006600336600666600996600CC6600FF6633006633336633666633996633CC6633FF6666006666336666666666996666CC6666FF6699006699336699666699996699CC6699FF66CC0066CC3366CC6666CC9966CCCC66CCFF66FF0066
310
FF3366FF6666FF9966FFCC66FFFF9900009900339900669900999900CC9900FF9933009933339933669933999933CC9933FF9966009966339966669966999966CC9966FF9999009999339999669999999999CC9999FF99CC0099CC3399CC6699CC9999CCCC99CCFF99FF0099FF3399FF6699FF9999FFCC99FFFFCC0000CC00
310
33CC0066CC0099CC00CCCC00FFCC3300CC3333CC3366CC3399CC33CCCC33FFCC6600CC6633CC6666CC6699CC66CCCC66FFCC9900CC9933CC9966CC9999CC99CCCC99FFCCCC00CCCC33CCCC66CCCC99CCCCCCCCCCFFCCFF00CCFF33CCFF66CCFF99CCFFCCCCFFFFFF0000FF0033FF0066FF0099FF00CCFF00FFFF3300FF3333
310
FF3366FF3399FF33CCFF33FFFF6600FF6633FF6666FF6699FF66CCFF66FFFF9900FF9933FF9966FF9999FF99CCFF99FFFFCC00FFCC33FFCC66FFCC99FFCCCCFFCCFFFFFF00FFFF33FFFF66FFFF99FFFFCCFFFFFF0000000D0D0D1A1A1A2828283535354343435050505D5D5D6B6B6B787878868686939393A1A1A1AEAEAEBB
310
BBBBC9C9C9D6D6D6E4E4E4F1F1F1FFFFFF000000000000000000000000000000000000000000000000000000000000B21171F6000001B24944415478DAED9BCB92C3200C04F5FFFFABFBE69075100697ECB05B35A8FB92C4E5CB8CF53210330000000000000000000000000000000000000000807FC25F1497EF753DF8E8AE
310
6AC0F0AB42C03E46DE00CB64ECEF3DE7FBE295F6974615B86F40F7FC0B1A1023BE62046C66402C663ECCF050F3BCFB55BD0B881B90F2A093D46BF6F0A19501D91848DEA73809F74D6DA62CA5C8DB82A969808D9C3875BF0B075C2C04DEEA0EF9AD01CDE53B061CC66E6540524E5B315542606D04684E82D655805812EF4580
310
EC287CD5051E1AA093020BBB805C0460C0EA22E88A29F02706146D837293A0CDDAA03D34C0D47605926DF0B6013A6F83D63EB42605C2E5AD53E0D016DBA03D6B838A45307C1FCC7EEF42B06B1BF4D1601C95F8D683904F574730E04B035456C452066CFC3A9CAB015E2502BE36C0E54A80DBA40D3E32E0A35B675978320734
310
EBBB7B8FC28D529BBF17E40CF06367C474486E8D653485BDB19D1C481B25784A6CC1E678D81D163E1F302ADD83877FD545250DC835B9F32AC1F08C94E22478D780CB33521850C080ED52A07C115C7B5458F294D8EA9CAAADBFFAFF254CF06508000000000000000000A4F801D94B9A79C4A3132D0000000049454E44AE4260
310
82
  0
ENDSEC
  0
EOF
