  0
SECTION
  2
HEADER
  9
$ACADVER
  1
AC1015
  9
$ACADMAINTVER
 70
    18
  9
$DWGCODEPAGE
  3
ANSI_1252
  9
$INSBASE
 10
0.0
 20
0.0
 30
0.0
  9
$EXTMIN
 10
470.3647746895618
 20
-157.2705011998797
 30
0.0
  9
$EXTMAX
 10
1393.9552265372
 20
817.9802597115431
 30
0.0
  9
$LIMMIN
 10
0.0
 20
0.0
  9
$LIMMAX
 10
12.0
 20
9.0
  9
$ORTHOMODE
 70
     1
  9
$REGENMODE
 70
     1
  9
$FILLMODE
 70
     1
  9
$QTEXTMODE
 70
     0
  9
$MIRRTEXT
 70
     0
  9
$LTSCALE
 40
1.0
  9
$ATTMODE
 70
     1
  9
$TEXTSIZE
 40
0.2
  9
$TRACEWID
 40
0.05
  9
$TEXTSTYLE
  7
Standard
  9
$CLAYER
  8
0
  9
$CELTYPE
  6
ByLayer
  9
$CECOLOR
 62
   256
  9
$CELTSCALE
 40
1.0
  9
$DISPSILH
 70
     0
  9
$DIMSCALE
 40
1.0
  9
$DIMASZ
 40
0.18
  9
$DIMEXO
 40
0.0625
  9
$DIMDLI
 40
0.38
  9
$DIMRND
 40
0.0
  9
$DIMDLE
 40
0.0
  9
$DIMEXE
 40
0.18
  9
$DIMTP
 40
0.0
  9
$DIMTM
 40
0.0
  9
$DIMTXT
 40
0.18
  9
$DIMCEN
 40
0.09
  9
$DIMTSZ
 40
0.0
  9
$DIMTOL
 70
     0
  9
$DIMLIM
 70
     0
  9
$DIMTIH
 70
     1
  9
$DIMTOH
 70
     1
  9
$DIMSE1
 70
     0
  9
$DIMSE2
 70
     0
  9
$DIMTAD
 70
     0
  9
$DIMZIN
 70
     0
  9
$DIMBLK
  1

  9
$DIMASO
 70
     1
  9
$DIMSHO
 70
     1
  9
$DIMPOST
  1

  9
$DIMAPOST
  1

  9
$DIMALT
 70
     0
  9
$DIMALTD
 70
     2
  9
$DIMALTF
 40
25.4
  9
$DIMLFAC
 40
1.0
  9
$DIMTOFL
 70
     0
  9
$DIMTVP
 40
0.0
  9
$DIMTIX
 70
     0
  9
$DIMSOXD
 70
     0
  9
$DIMSAH
 70
     0
  9
$DIMBLK1
  1

  9
$DIMBLK2
  1

  9
$DIMSTYLE
  2
Standard
  9
$DIMCLRD
 70
     0
  9
$DIMCLRE
 70
     0
  9
$DIMCLRT
 70
     0
  9
$DIMTFAC
 40
1.0
  9
$DIMGAP
 40
0.09
  9
$DIMJUST
 70
     0
  9
$DIMSD1
 70
     0
  9
$DIMSD2
 70
     0
  9
$DIMTOLJ
 70
     1
  9
$DIMTZIN
 70
     0
  9
$DIMALTZ
 70
     0
  9
$DIMALTTZ
 70
     0
  9
$DIMUPT
 70
     0
  9
$DIMDEC
 70
     4
  9
$DIMTDEC
 70
     4
  9
$DIMALTU
 70
     2
  9
$DIMALTTD
 70
     2
  9
$DIMTXSTY
  7
Standard
  9
$DIMAUNIT
 70
     0
  9
$DIMADEC
 70
     0
  9
$DIMALTRND
 40
0.0
  9
$DIMAZIN
 70
     0
  9
$DIMDSEP
 70
    46
  9
$DIMATFIT
 70
     3
  9
$DIMFRAC
 70
     0
  9
$DIMLDRBLK
  1

  9
$DIMLUNIT
 70
     2
  9
$DIMLWD
 70
    -2
  9
$DIMLWE
 70
    -2
  9
$DIMTMOVE
 70
     0
  9
$LUNITS
 70
     2
  9
$LUPREC
 70
     4
  9
$SKETCHINC
 40
0.1
  9
$FILLETRAD
 40
15.0
  9
$AUNITS
 70
     0
  9
$AUPREC
 70
     0
  9
$MENU
  1
.
  9
$ELEVATION
 40
0.0
  9
$PELEVATION
 40
0.0
  9
$THICKNESS
 40
0.0
  9
$LIMCHECK
 70
     0
  9
$CHAMFERA
 40
0.0
  9
$CHAMFERB
 40
0.0
  9
$CHAMFERC
 40
0.0
  9
$CHAMFERD
 40
0.0
  9
$SKPOLY
 70
     0
  9
$TDCREATE
 40
2458942.601562639
  9
$TDUCREATE
 40
2458942.893229306
  9
$TDUPDATE
 40
2458942.601562639
  9
$TDUUPDATE
 40
2458942.893229306
  9
$TDINDWG
 40
0.1631947454
  9
$TDUSRTIMER
 40
0.1631845023
  9
$USRTIMER
 70
     1
  9
$ANGBASE
 50
0.0
  9
$ANGDIR
 70
     0
  9
$PDMODE
 70
     0
  9
$PDSIZE
 40
0.0
  9
$PLINEWID
 40
0.0
  9
$SPLFRAME
 70
     0
  9
$SPLINETYPE
 70
     6
  9
$SPLINESEGS
 70
     8
  9
$HANDSEED
  5
1B9
  9
$SURFTAB1
 70
     6
  9
$SURFTAB2
 70
     6
  9
$SURFTYPE
 70
     6
  9
$SURFU
 70
     6
  9
$SURFV
 70
     6
  9
$UCSBASE
  2

  9
$UCSNAME
  2

  9
$UCSORG
 10
0.0
 20
0.0
 30
0.0
  9
$UCSXDIR
 10
1.0
 20
0.0
 30
0.0
  9
$UCSYDIR
 10
0.0
 20
1.0
 30
0.0
  9
$UCSORTHOREF
  2

  9
$UCSORTHOVIEW
 70
     0
  9
$UCSORGTOP
 10
0.0
 20
0.0
 30
0.0
  9
$UCSORGBOTTOM
 10
0.0
 20
0.0
 30
0.0
  9
$UCSORGLEFT
 10
0.0
 20
0.0
 30
0.0
  9
$UCSORGRIGHT
 10
0.0
 20
0.0
 30
0.0
  9
$UCSORGFRONT
 10
0.0
 20
0.0
 30
0.0
  9
$UCSORGBACK
 10
0.0
 20
0.0
 30
0.0
  9
$PUCSBASE
  2

  9
$PUCSNAME
  2

  9
$PUCSORG
 10
0.0
 20
0.0
 30
0.0
  9
$PUCSXDIR
 10
1.0
 20
0.0
 30
0.0
  9
$PUCSYDIR
 10
0.0
 20
1.0
 30
0.0
  9
$PUCSORTHOREF
  2

  9
$PUCSORTHOVIEW
 70
     0
  9
$PUCSORGTOP
 10
0.0
 20
0.0
 30
0.0
  9
$PUCSORGBOTTOM
 10
0.0
 20
0.0
 30
0.0
  9
$PUCSORGLEFT
 10
0.0
 20
0.0
 30
0.0
  9
$PUCSORGRIGHT
 10
0.0
 20
0.0
 30
0.0
  9
$PUCSORGFRONT
 10
0.0
 20
0.0
 30
0.0
  9
$PUCSORGBACK
 10
0.0
 20
0.0
 30
0.0
  9
$USERI1
 70
     0
  9
$USERI2
 70
     0
  9
$USERI3
 70
     0
  9
$USERI4
 70
     0
  9
$USERI5
 70
     0
  9
$USERR1
 40
0.0
  9
$USERR2
 40
0.0
  9
$USERR3
 40
0.0
  9
$USERR4
 40
0.0
  9
$USERR5
 40
0.0
  9
$WORLDVIEW
 70
     1
  9
$SHADEDGE
 70
     3
  9
$SHADEDIF
 70
    70
  9
$TILEMODE
 70
     1
  9
$MAXACTVP
 70
    64
  9
$PINSBASE
 10
0.0
 20
0.0
 30
0.0
  9
$PLIMCHECK
 70
     0
  9
$PEXTMIN
 10
0.0
 20
0.0
 30
0.0
  9
$PEXTMAX
 10
0.0
 20
0.0
 30
0.0
  9
$PLIMMIN
 10
0.0
 20
0.0
  9
$PLIMMAX
 10
12.0
 20
9.0
  9
$UNITMODE
 70
     0
  9
$VISRETAIN
 70
     1
  9
$PLINEGEN
 70
     0
  9
$PSLTSCALE
 70
     1
  9
$TREEDEPTH
 70
  3020
  9
$CMLSTYLE
  2
Standard
  9
$CMLJUST
 70
     0
  9
$CMLSCALE
 40
1.0
  9
$PROXYGRAPHICS
 70
     1
  9
$MEASUREMENT
 70
     0
  9
$CELWEIGHT
370
    -1
  9
$ENDCAPS
280
     0
  9
$JOINSTYLE
280
     0
  9
$LWDISPLAY
290
     0
  9
$INSUNITS
 70
     1
  9
$HYPERLINKBASE
  1

  9
$STYLESHEET
  1

  9
$XEDIT
290
     1
  9
$CEPSNTYPE
380
     0
  9
$PSTYLEMODE
290
     1
  9
$FINGERPRINTGUID
  2
{5EB6CE0B-949C-40BF-9ACF-F5A1F282E29B}
  9
$VERSIONGUID
  2
{31D0E3D9-7D9F-4C29-9814-AED7B83F984D}
  9
$EXTNAMES
290
     1
  9
$PSVPSCALE
 40
0.0
  9
$OLESTARTUP
290
     0
  0
ENDSEC
  0
SECTION
  2
CLASSES
  0
CLASS
  1
ACDBDICTIONARYWDFLT
  2
AcDbDictionaryWithDefault
  3
ObjectDBX Classes
 90
        0
280
     0
281
     0
  0
CLASS
  1
ACDBPLACEHOLDER
  2
AcDbPlaceHolder
  3
ObjectDBX Classes
 90
        0
280
     0
281
     0
  0
CLASS
  1
LAYOUT
  2
AcDbLayout
  3
ObjectDBX Classes
 90
        0
280
     0
281
     0
  0
CLASS
  1
DICTIONARYVAR
  2
AcDbDictionaryVar
  3
ObjectDBX Classes
 90
        0
280
     0
281
     0
  0
CLASS
  1
TABLESTYLE
  2
AcDbTableStyle
  3
ObjectDBX Classes
 90
     4095
280
     0
281
     0
  0
CLASS
  1
MATERIAL
  2
AcDbMaterial
  3
ObjectDBX Classes
 90
     1153
280
     0
281
     0
  0
CLASS
  1
VISUALSTYLE
  2
AcDbVisualStyle
  3
ObjectDBX Classes
 90
     4095
280
     0
281
     0
  0
CLASS
  1
SCALE
  2
AcDbScale
  3
ObjectDBX Classes
 90
     1153
280
     0
281
     0
  0
CLASS
  1
MLEADERSTYLE
  2
AcDbMLeaderStyle
  3
ACDB_MLEADERSTYLE_CLASS
 90
    36863
280
     0
281
     0
  0
CLASS
  1
CELLSTYLEMAP
  2
AcDbCellStyleMap
  3
ObjectDBX Classes
 90
     1152
280
     0
281
     0
  0
CLASS
  1
EXACXREFPANELOBJECT
  2
ExAcXREFPanelObject
  3
EXAC_ESW
 90
    33793
280
     1
281
     0
  0
CLASS
  1
NPOCOLLECTION
  2
AcDbImpNonPersistentObjectsCollection
  3
ObjectDBX Classes
 90
    33921
280
     0
281
     0
  0
CLASS
  1
LAYER_INDEX
  2
AcDbLayerIndex
  3
ObjectDBX Classes
 90
    32768
280
     0
281
     0
  0
CLASS
  1
SPATIAL_INDEX
  2
AcDbSpatialIndex
  3
ObjectDBX Classes
 90
    32768
280
     0
281
     0
  0
CLASS
  1
IDBUFFER
  2
AcDbIdBuffer
  3
ObjectDBX Classes
 90
    32768
280
     0
281
     0
  0
CLASS
  1
ACDBSECTIONVIEWSTYLE
  2
AcDbSectionViewStyle
  3
ObjectDBX Classes
 90
    33793
280
     0
281
     0
  0
CLASS
  1
ACDBDETAILVIEWSTYLE
  2
AcDbDetailViewStyle
  3
ObjectDBX Classes
 90
    33793
280
     0
281
     0
  0
CLASS
  1
SORTENTSTABLE
  2
AcDbSortentsTable
  3
ObjectDBX Classes
 90
        0
280
     0
281
     0
  0
CLASS
  1
ACARRAYJIGENTITY
  2
AcArrayJigEntity
  3
ACAD_ARRAY
 90
    32897
280
     1
281
     1
  0
CLASS
  1
ACDBASSOCNETWORK
  2
AcDbAssocNetwork
  3
ObjectDBX Classes
 90
    33793
280
     0
281
     0
  0
CLASS
  1
ACDBASSOCACTION
  2
AcDbAssocAction
  3
ObjectDBX Classes
 90
    33793
280
     0
281
     0
  0
CLASS
  1
ACDBASSOCARRAYACTIONBODY
  2
AcDbAssocArrayActionBody
  3
ObjectDBX Classes
 90
    33793
280
     0
281
     0
  0
CLASS
  1
ACDBASSOCVERTEXACTIONPARAM
  2
AcDbAssocVertexActionParam
  3
ObjectDBX Classes
 90
    33793
280
     0
281
     0
  0
CLASS
  1
ACDBASSOCDEPENDENCY
  2
AcDbAssocDependency
  3
ObjectDBX Classes
 90
    33793
280
     0
281
     0
  0
CLASS
  1
ACDBASSOCARRAYPOLARPARAMETERS
  2
AcDbAssocArrayPolarParameters
  3
ObjectDBX Classes
 90
    33793
280
     0
281
     0
  0
CLASS
  1
ARC_DIMENSION
  2
AcDbArcDimension
  3
ObjectDBX Classes
 90
    33793
280
     0
281
     1
  0
CLASS
  1
DIMASSOC
  2
AcDbDimAssoc
  3
"AcDbDimAssoc|Product Desc:     AcDim ARX App For Dimension|Company:          Autodesk, Inc.|WEB Address:      www.autodesk.com"
 90
    32768
280
     0
281
     0
  0
CLASS
  1
ACDBASSOCARRAYRECTANGULARPARAMETERS
  2
AcDbAssocArrayRectangularParameters
  3
ObjectDBX Classes
 90
    33793
280
     0
281
     0
  0
CLASS
  1
SOLID_BACKGROUND
  2
AcDbSolidBackground
  3
SCENEOE
 90
    36863
280
     1
281
     0
  0
ENDSEC
  0
SECTION
  2
TABLES
  0
TABLE
  2
VPORT
  5
28
330
0
100
AcDbSymbolTable
 70
     1
  0
VPORT
  5
29
330
28
100
AcDbSymbolTableRecord
100
AcDbViewportTableRecord
  2
*Active
 70
     0
 10
0.0
 20
0.0
 11
1.0
 21
1.0
 12
2086.005394970955
 22
185.7494576429149
 13
0.0
 23
0.0
 14
0.5
 24
0.5
 15
0.5
 25
0.5
 16
0.0
 26
0.0
 36
1.0
 17
0.0
 27
0.0
 37
0.0
 40
4427.220548363838
 41
2.584761904761904
 42
50.0
 43
0.0
 44
0.0
 50
0.0
 51
0.0
 71
     0
 72
  1000
 73
     1
 74
     3
 75
     0
 76
     1
 77
     0
 78
     0
281
     0
 65
     1
110
0.0
120
0.0
130
0.0
111
1.0
121
0.0
131
0.0
112
0.0
122
1.0
132
0.0
 79
     0
146
0.0
1001
ACAD_NAV_VCDISPLAY
1070
     3
  0
ENDTAB
  0
TABLE
  2
LTYPE
  5
23
330
0
100
AcDbSymbolTable
 70
     1
  0
LTYPE
  5
24
330
23
100
AcDbSymbolTableRecord
100
AcDbLinetypeTableRecord
  2
ByBlock
 70
     0
  3

 72
    65
 73
     0
 40
0.0
  0
LTYPE
  5
25
330
23
100
AcDbSymbolTableRecord
100
AcDbLinetypeTableRecord
  2
ByLayer
 70
     0
  3

 72
    65
 73
     0
 40
0.0
  0
LTYPE
  5
15
330
23
100
AcDbSymbolTableRecord
100
AcDbLinetypeTableRecord
  2
Continuous
 70
     0
  3
Solid line
 72
    65
 73
     0
 40
0.0
  0
ENDTAB
  0
TABLE
  2
LAYER
  5
1D
102
{ACAD_XDICTIONARY
360
1E
102
}
330
0
100
AcDbSymbolTable
 70
     1
  0
LAYER
  5
6
102
{ACAD_XDICTIONARY
360
7
102
}
330
1D
100
AcDbSymbolTableRecord
100
AcDbLayerTableRecord
  2
0
 70
     0
 62
     7
  6
Continuous
370
    -3
390
8
  0
ENDTAB
  0
TABLE
  2
STYLE
  5
20
330
0
100
AcDbSymbolTable
 70
     1
  0
STYLE
  5
21
330
20
100
AcDbSymbolTableRecord
100
AcDbTextStyleTableRecord
  2
Standard
 70
     0
 40
0.0
 41
1.0
 50
0.0
 71
     0
 42
0.2
  3
arial.ttf
  4

1001
ACAD
1000
Arial
1071
       34
  0
ENDTAB
  0
TABLE
  2
VIEW
  5
26
330
0
100
AcDbSymbolTable
 70
     0
  0
ENDTAB
  0
TABLE
  2
UCS
  5
27
330
0
100
AcDbSymbolTable
 70
     0
  0
ENDTAB
  0
TABLE
  2
APPID
  5
2D
330
0
100
AcDbSymbolTable
 70
     5
  0
APPID
  5
14
330
2D
100
AcDbSymbolTableRecord
100
AcDbRegAppTableRecord
  2
ACAD
 70
     0
  0
APPID
  5
31
330
2D
100
AcDbSymbolTableRecord
100
AcDbRegAppTableRecord
  2
AcadAnnotative
 70
     0
  0
APPID
  5
32
330
2D
100
AcDbSymbolTableRecord
100
AcDbRegAppTableRecord
  2
ACAD_DSTYLE_DIMJAG
 70
     0
  0
APPID
  5
33
330
2D
100
AcDbSymbolTableRecord
100
AcDbRegAppTableRecord
  2
ACAD_DSTYLE_DIMTALN
 70
     0
  0
APPID
  5
2C
330
2D
100
AcDbSymbolTableRecord
100
AcDbRegAppTableRecord
  2
ACAD_NAV_VCDISPLAY
 70
     0
  0
ENDTAB
  0
TABLE
  2
DIMSTYLE
  5
2E
330
0
100
AcDbSymbolTable
 70
     2
100
AcDbDimStyleTable
 71
     2
340
2F
340
30
  0
DIMSTYLE
105
2F
330
2E
100
AcDbSymbolTableRecord
100
AcDbDimStyleTableRecord
  2
Standard
 70
     0
340
21
  0
DIMSTYLE
105
30
330
2E
100
AcDbSymbolTableRecord
100
AcDbDimStyleTableRecord
  2
Annotative
 70
     0
 40
0.0
340
21
1001
AcadAnnotative
1000
AnnotativeData
1002
{
1070
     1
1070
     1
1002
}
1001
ACAD_DSTYLE_DIMJAG
1070
   388
1040
1.5
1001
ACAD_DSTYLE_DIMTALN
1070
   392
1070
     0
  0
ENDTAB
  0
TABLE
  2
BLOCK_RECORD
  5
1
330
0
100
AcDbSymbolTable
 70
     0
  0
BLOCK_RECORD
  5
2
102
{ACAD_XDICTIONARY
360
3
102
}
330
1
100
AcDbSymbolTableRecord
100
AcDbBlockTableRecord
  2
*Model_Space
340
17
  0
BLOCK_RECORD
  5
19
330
1
100
AcDbSymbolTableRecord
100
AcDbBlockTableRecord
  2
*Paper_Space
340
1C
  0
ENDTAB
  0
ENDSEC
  0
SECTION
  2
BLOCKS
  0
BLOCK
  5
5
330
2
100
AcDbEntity
  8
0
100
AcDbBlockBegin
  2
*Model_Space
 70
     0
 10
0.0
 20
0.0
 30
0.0
  3
*Model_Space
  1

  0
ENDBLK
  5
16
330
2
100
AcDbEntity
  8
0
100
AcDbBlockEnd
  0
BLOCK
  5
1A
330
19
100
AcDbEntity
 67
     1
  8
0
100
AcDbBlockBegin
  2
*Paper_Space
 70
     0
 10
0.0
 20
0.0
 30
0.0
  3
*Paper_Space
  1

  0
ENDBLK
  5
1B
330
19
100
AcDbEntity
 67
     1
  8
0
100
AcDbBlockEnd
  0
ENDSEC
  0
SECTION
  2
ENTITIES
  0
CIRCLE
  5
6A
330
2
100
AcDbEntity
  8
0
100
AcDbCircle
 10
1200.350707080254
 20
-26.67114325610866
 30
0.0
 40
115.0
  0
CIRCLE
  5
6B
330
2
100
AcDbEntity
  8
0
100
AcDbCircle
 10
1175.281127237033
 20
261.6874799373209
 30
0.0
 40
124.5
  0
LWPOLYLINE
  5
6C
330
2
100
AcDbEntity
  8
0
100
AcDbPolyline
 90
       72
 70
     1
 43
0.0
 10
1127.92022805029
 20
75.20537860977509
 10
1124.063502392171
 20
79.80164526848895
 10
1108.742613529791
 20
66.94589307475816
 10
1112.59933918791
 20
62.34962641604429
 42
0.04725880803962
 10
1097.444497805718
 20
44.28878975362133
 10
1092.248345383011
 20
47.28878975362134
 10
1082.248345383011
 20
29.96828167793257
 10
1087.444497805718
 20
26.96828167793255
 42
0.0472588080396201
 10
1079.380775133554
 20
4.813385719418832
 10
1073.471928615481
 20
5.855274785420427
 10
1069.998965062142
 20
-13.84088027482373
 10
1075.907811580216
 20
-14.88276934082536
 42
0.0472588080396198
 10
1075.907811580216
 20
-38.45951717139195
 10
1069.998965062142
 20
-39.50140623739353
 10
1073.471928615481
 20
-59.19756129763769
 10
1079.380775133554
 20
-58.15567223163611
 42
0.0472588080396202
 10
1087.444497805718
 20
-80.31056819014978
 10
1082.248345383011
 20
-83.31056819014978
 10
1092.248345383011
 20
-100.6310762658385
 10
1097.444497805718
 20
-97.6310762658386
 42
0.0472588080396201
 10
1112.59933918791
 20
-115.6919129282616
 10
1108.742613529791
 20
-120.2881795869754
 10
1124.063502392171
 20
-133.1439317807062
 10
1127.92022805029
 20
-128.5476651219924
 42
0.0472588080396201
 10
1148.33829061018
 20
-140.3360390372757
 10
1146.286169750226
 20
-145.9741947619912
 10
1165.080022165944
 20
-152.8145976285045
 10
1167.132143025898
 20
-147.1764419037891
 42
0.0472588080396201
 10
1190.350707080254
 20
-151.2705011998797
 10
1190.350707080254
 20
-157.2705011998797
 10
1210.350707080254
 20
-157.2705011998797
 10
1210.350707080254
 20
-151.2705011998797
 42
0.0472588080396201
 10
1233.56927113461
 20
-147.1764419037891
 10
1235.621391994564
 20
-152.8145976285046
 10
1254.415244410282
 20
-145.9741947619912
 10
1252.363123550328
 20
-140.3360390372758
 42
0.0472588080396201
 10
1272.781186110218
 20
-128.5476651219924
 10
1276.637911768338
 20
-133.1439317807063
 10
1291.958800630717
 20
-120.2881795869755
 10
1288.102074972598
 20
-115.6919129282616
 42
0.0472588080396197
 10
1303.25691635479
 20
-97.63107626583865
 10
1308.453068777497
 20
-100.6310762658386
 10
1318.453068777497
 20
-83.31056819014989
 10
1313.25691635479
 20
-80.31056819015001
 42
0.0472588080396206
 10
1321.320639026954
 20
-58.15567223163613
 10
1327.229485545027
 20
-59.19756129763775
 10
1330.702449098366
 20
-39.50140623739358
 10
1324.793602580293
 20
-38.45951717139197
 42
0.0472588080396201
 10
1324.793602580293
 20
-14.88276934082532
 10
1330.702449098366
 20
-13.84088027482377
 10
1327.229485545027
 20
5.855274785420378
 10
1321.320639026954
 20
4.813385719418838
 42
0.0472588080396202
 10
1313.25691635479
 20
26.96828167793257
 10
1318.453068777497
 20
29.96828167793254
 10
1308.453068777497
 20
47.28878975362129
 10
1303.25691635479
 20
44.28878975362133
 42
0.04725880803962
 10
1288.102074972598
 20
62.34962641604433
 10
1291.958800630717
 20
66.94589307475815
 10
1276.637911768338
 20
79.80164526848892
 10
1272.781186110218
 20
75.20537860977512
 42
0.0472588080396201
 10
1252.363123550328
 20
86.99375252505845
 10
1254.415244410282
 20
92.63190824977389
 10
1235.621391994564
 20
99.47231111628729
 10
1233.56927113461
 20
93.83415539157184
 42
0.04725880803962
 10
1210.350707080254
 20
97.92821468766248
 10
1210.350707080254
 20
103.9282146876624
 10
1190.350707080254
 20
103.9282146876624
 10
1190.350707080254
 20
97.92821468766248
 42
0.04725880803962
 10
1167.132143025898
 20
93.83415539157182
 10
1165.080022165944
 20
99.47231111628729
 10
1146.286169750226
 20
92.63190824977392
 10
1148.33829061018
 20
86.99375252505845
 42
0.0472588080396201
  0
LWPOLYLINE
  5
6D
330
2
100
AcDbEntity
  8
0
100
AcDbPolyline
 90
       72
 70
     1
 43
0.0
 10
1160.362569266397
 20
53.95731843192359
 42
0.0316064737565553
 10
1150.518479897315
 20
48.27383078475694
 10
1146.661754239196
 20
52.87009744347082
 10
1131.340865376816
 20
40.01434524974004
 10
1135.197591034935
 20
35.41807859102628
 42
0.031606473756556
 10
1127.891040156125
 20
26.7104703317315
 10
1122.694887733418
 20
29.71047033173153
 10
1112.694887733418
 20
12.38996225604276
 10
1117.891040156125
 20
9.389962256042736
 42
0.0316064737565547
 10
1114.003305636778
 20
-1.29150054869791
 10
1108.094459118705
 20
-0.2496114826963094
 10
1104.621495565366
 20
-19.94576654294047
 10
1110.530342083439
 20
-20.98765560894209
 42
0.031606473756555
 10
1110.530342083439
 20
-32.35463090327524
 10
1104.621495565366
 20
-33.3965199692768
 10
1108.094459118705
 20
-53.09267502952095
 10
1114.003305636778
 20
-52.05078596351938
 42
0.0316064737565548
 10
1117.891040156125
 20
-62.73224876826006
 10
1112.694887733418
 20
-65.73224876826003
 10
1122.694887733418
 20
-83.05275684394882
 10
1127.891040156125
 20
-80.05275684394874
 42
0.0316064737565557
 10
1135.197591034935
 20
-88.76036510324352
 10
1131.340865376816
 20
-93.35663176195735
 10
1146.661754239196
 20
-106.2123839556881
 10
1150.518479897315
 20
-101.6161172969743
 42
0.031606473756555
 10
1160.362569266397
 20
-107.2996049441409
 10
1158.310448406444
 20
-112.9377606688563
 10
1177.104300822161
 20
-119.7781635353697
 10
1179.156421682115
 20
-114.1400078106542
 42
0.0316064737565557
 10
1190.350707080273
 20
-116.1138623561002
 10
1190.350707080273
 20
-122.1138623561002
 10
1210.350707080273
 20
-122.1138623561002
 10
1210.350707080273
 20
-116.1138623561002
 42
0.0316064737565557
 10
1221.544992478431
 20
-114.1400078106542
 10
1223.597113338385
 20
-119.7781635353697
 10
1242.390965754103
 20
-112.9377606688563
 10
1240.338844894149
 20
-107.2996049441409
 42
0.0316064737565553
 10
1250.182934263232
 20
-101.6161172969742
 10
1254.039659921351
 20
-106.2123839556881
 10
1269.36054878373
 20
-93.35663176195735
 10
1265.503823125611
 20
-88.76036510324345
 42
0.0316064737565562
 10
1272.810374004422
 20
-80.05275684394877
 10
1278.006526427128
 20
-83.05275684394882
 10
1288.006526427128
 20
-65.73224876826003
 10
1282.810374004421
 20
-62.73224876825985
 42
0.0316064737565546
 10
1286.698108523769
 20
-52.05078596351938
 10
1292.606955041842
 20
-53.09267502952103
 10
1296.07991859518
 20
-33.39651996927685
 10
1290.171072077108
 20
-32.35463090327522
 42
0.0316064737565553
 10
1290.171072077108
 20
-20.98765560894195
 10
1296.07991859518
 20
-19.94576654294042
 10
1292.606955041842
 20
-0.2496114826962668
 10
1286.698108523769
 20
-1.291500548697811
 42
0.0316064737565545
 10
1282.810374004422
 20
9.389962256042792
 10
1288.006526427128
 20
12.38996225604273
 10
1278.006526427128
 20
29.71047033173153
 10
1272.810374004422
 20
26.71047033173159
 42
0.0316064737565558
 10
1265.503823125611
 20
35.41807859102624
 10
1269.36054878373
 20
40.01434524974007
 10
1254.039659921351
 20
52.87009744347084
 10
1250.182934263232
 20
48.27383078475699
 42
0.0316064737565552
 10
1240.338844894149
 20
53.95731843192357
 10
1242.390965754103
 20
59.59547415663901
 10
1223.597113338385
 20
66.43587702315238
 10
1221.544992478431
 20
60.79772129843695
 42
0.0316064737565555
 10
1210.350707080273
 20
62.77157584388291
 10
1210.350707080273
 20
68.7715758438829
 10
1190.350707080273
 20
68.7715758438829
 10
1190.350707080273
 20
62.77157584388291
 42
0.0316064737565556
 10
1179.156421682115
 20
60.79772129843693
 10
1177.104300822161
 20
66.43587702315238
 10
1158.310448406444
 20
59.59547415663903
  0
LINE
  5
6E
330
2
100
AcDbEntity
  8
0
100
AcDbLine
 10
1012.275282171724
 20
143.3096307049145
 30
0.0
 11
1026.184491108571
 21
143.3096307049145
 31
0.0
  0
LINE
  5
6F
330
2
100
AcDbEntity
  8
0
100
AcDbLine
 10
1041.18061591931
 20
127.9686898585375
 30
0.0
 11
1034.981640412411
 21
-144.690369295083
 31
0.0
  0
ARC
  5
70
330
2
100
AcDbEntity
  8
0
100
AcDbCircle
 10
1026.184491108571
 20
128.3096307049145
 30
0.0
 40
15.0
100
AcDbArc
 50
358.6975897365278
 51
90.0
  0
LINE
  5
71
330
2
100
AcDbEntity
  8
0
100
AcDbLine
 10
997.2791573609852
 20
127.9686898585375
 30
0.0
 11
1003.478132867885
 21
-144.6903692950862
 31
0.0
  0
ARC
  5
72
330
2
100
AcDbEntity
  8
0
100
AcDbCircle
 10
1012.275282171724
 20
128.3096307049145
 30
0.0
 40
15.0
100
AcDbArc
 50
90.0
 51
181.3024102634719
  0
LWPOLYLINE
  5
73
330
2
100
AcDbEntity
  8
0
100
AcDbPolyline
 90
        4
 70
     1
 43
0.0
 10
1029.229886640148
 20
123.3096307049145
 10
1029.229886640148
 20
118.8096307049145
 10
1009.229886640148
 20
118.8096307049145
 10
1009.229886640148
 20
123.3096307049145
  0
LWPOLYLINE
  5
74
330
2
100
AcDbEntity
  8
0
100
AcDbPolyline
 90
        4
 70
     1
 43
0.0
 10
1029.229886640147
 20
-144.6903692950855
 10
1029.229886640147
 20
-149.1903692950855
 10
1009.229886640147
 20
-149.1903692950855
 10
1009.229886640147
 20
-144.6903692950855
  0
ARC
  5
75
330
2
100
AcDbEntity
  8
0
100
AcDbCircle
 10
1019.229886640147
 20
-140.3521298408351
 30
0.0
 40
16.33823945425025
100
AcDbArc
 50
195.3982540962334
 51
344.6017459037666
  0
LINE
  5
76
330
2
100
AcDbEntity
  8
0
100
AcDbLine
 10
1012.275282171724
 20
478.2155131975586
 30
0.0
 11
1026.184491108571
 21
478.2155131975586
 31
0.0
  0
LINE
  5
77
330
2
100
AcDbEntity
  8
0
100
AcDbLine
 10
1041.18061591931
 20
462.8745723511817
 30
0.0
 11
1034.981640412411
 21
190.2155131975611
 31
0.0
  0
ARC
  5
78
330
2
100
AcDbEntity
  8
0
100
AcDbCircle
 10
1026.184491108571
 20
463.2155131975586
 30
0.0
 40
15.0
100
AcDbArc
 50
358.6975897365276
 51
90.0
  0
LINE
  5
79
330
2
100
AcDbEntity
  8
0
100
AcDbLine
 10
997.2791573609852
 20
462.8745723511817
 30
0.0
 11
1003.478132867885
 21
190.2155131975579
 31
0.0
  0
ARC
  5
7A
330
2
100
AcDbEntity
  8
0
100
AcDbCircle
 10
1012.275282171724
 20
463.2155131975586
 30
0.0
 40
15.0
100
AcDbArc
 50
90.0
 51
181.3024102634724
  0
LWPOLYLINE
  5
7B
330
2
100
AcDbEntity
  8
0
100
AcDbPolyline
 90
        4
 70
     1
 43
0.0
 10
1029.229886640148
 20
458.2155131975587
 10
1029.229886640148
 20
453.7155131975587
 10
1009.229886640148
 20
453.7155131975587
 10
1009.229886640148
 20
458.2155131975587
  0
LWPOLYLINE
  5
7C
330
2
100
AcDbEntity
  8
0
100
AcDbPolyline
 90
        4
 70
     1
 43
0.0
 10
1029.229886640147
 20
190.2155131975586
 10
1029.229886640147
 20
185.7155131975586
 10
1009.229886640147
 20
185.7155131975586
 10
1009.229886640147
 20
190.2155131975586
  0
ARC
  5
7D
330
2
100
AcDbEntity
  8
0
100
AcDbCircle
 10
1019.229886640147
 20
194.553752651809
 30
0.0
 40
16.33823945425025
100
AcDbArc
 50
195.3982540962322
 51
344.6017459037678
  0
LINE
  5
7E
330
2
100
AcDbEntity
  8
0
100
AcDbLine
 10
946.4114687364544
 20
143.3096307049145
 30
0.0
 11
960.3206776733008
 21
143.3096307049145
 31
0.0
  0
LINE
  5
7F
330
2
100
AcDbEntity
  8
0
100
AcDbLine
 10
975.3168024840404
 20
127.9686898585375
 30
0.0
 11
969.1178269771407
 21
-144.690369295083
 31
0.0
  0
ARC
  5
80
330
2
100
AcDbEntity
  8
0
100
AcDbCircle
 10
960.3206776733008
 20
128.3096307049145
 30
0.0
 40
15.0
100
AcDbArc
 50
358.6975897365278
 51
90.0
  0
LINE
  5
81
330
2
100
AcDbEntity
  8
0
100
AcDbLine
 10
931.415343925715
 20
127.9686898585375
 30
0.0
 11
937.6143194326145
 21
-144.6903692950862
 31
0.0
  0
ARC
  5
82
330
2
100
AcDbEntity
  8
0
100
AcDbCircle
 10
946.4114687364544
 20
128.3096307049145
 30
0.0
 40
15.0
100
AcDbArc
 50
90.0
 51
181.3024102634719
  0
LWPOLYLINE
  5
83
330
2
100
AcDbEntity
  8
0
100
AcDbPolyline
 90
        4
 70
     1
 43
0.0
 10
963.3660732048776
 20
123.3096307049145
 10
963.3660732048776
 20
118.8096307049145
 10
943.3660732048776
 20
118.8096307049145
 10
943.3660732048776
 20
123.3096307049145
  0
LWPOLYLINE
  5
84
330
2
100
AcDbEntity
  8
0
100
AcDbPolyline
 90
        4
 70
     1
 43
0.0
 10
963.3660732048774
 20
-144.6903692950855
 10
963.3660732048774
 20
-149.1903692950855
 10
943.3660732048773
 20
-149.1903692950855
 10
943.3660732048773
 20
-144.6903692950855
  0
ARC
  5
85
330
2
100
AcDbEntity
  8
0
100
AcDbCircle
 10
953.3660732048772
 20
-140.3521298408351
 30
0.0
 40
16.33823945425025
100
AcDbArc
 50
195.3982540962334
 51
344.6017459037666
  0
LINE
  5
86
330
2
100
AcDbEntity
  8
0
100
AcDbLine
 10
946.4114687364544
 20
478.2155131975586
 30
0.0
 11
960.3206776733008
 21
478.2155131975586
 31
0.0
  0
LINE
  5
87
330
2
100
AcDbEntity
  8
0
100
AcDbLine
 10
975.3168024840404
 20
462.8745723511817
 30
0.0
 11
969.1178269771407
 21
190.2155131975611
 31
0.0
  0
ARC
  5
88
330
2
100
AcDbEntity
  8
0
100
AcDbCircle
 10
960.3206776733008
 20
463.2155131975586
 30
0.0
 40
15.0
100
AcDbArc
 50
358.6975897365276
 51
90.0
  0
LINE
  5
89
330
2
100
AcDbEntity
  8
0
100
AcDbLine
 10
931.415343925715
 20
462.8745723511817
 30
0.0
 11
937.6143194326145
 21
190.2155131975579
 31
0.0
  0
ARC
  5
8A
330
2
100
AcDbEntity
  8
0
100
AcDbCircle
 10
946.4114687364544
 20
463.2155131975586
 30
0.0
 40
15.0
100
AcDbArc
 50
90.0
 51
181.3024102634724
  0
LWPOLYLINE
  5
8B
330
2
100
AcDbEntity
  8
0
100
AcDbPolyline
 90
        4
 70
     1
 43
0.0
 10
963.3660732048776
 20
458.2155131975587
 10
963.3660732048776
 20
453.7155131975587
 10
943.3660732048776
 20
453.7155131975587
 10
943.3660732048776
 20
458.2155131975587
  0
LWPOLYLINE
  5
8C
330
2
100
AcDbEntity
  8
0
100
AcDbPolyline
 90
        4
 70
     1
 43
0.0
 10
963.3660732048774
 20
190.2155131975586
 10
963.3660732048774
 20
185.7155131975586
 10
943.3660732048773
 20
185.7155131975586
 10
943.3660732048773
 20
190.2155131975586
  0
ARC
  5
8D
330
2
100
AcDbEntity
  8
0
100
AcDbCircle
 10
953.3660732048772
 20
194.553752651809
 30
0.0
 40
16.33823945425025
100
AcDbArc
 50
195.3982540962322
 51
344.6017459037678
  0
LINE
  5
8E
330
2
100
AcDbEntity
  8
0
100
AcDbLine
 10
880.5476553011839
 20
143.3096307049145
 30
0.0
 11
894.4568642380307
 21
143.3096307049145
 31
0.0
  0
LINE
  5
8F
330
2
100
AcDbEntity
  8
0
100
AcDbLine
 10
909.4529890487699
 20
127.9686898585375
 30
0.0
 11
903.2540135418706
 21
-144.690369295083
 31
0.0
  0
ARC
  5
90
330
2
100
AcDbEntity
  8
0
100
AcDbCircle
 10
894.4568642380307
 20
128.3096307049145
 30
0.0
 40
15.0
100
AcDbArc
 50
358.6975897365278
 51
90.0
  0
LINE
  5
91
330
2
100
AcDbEntity
  8
0
100
AcDbLine
 10
865.5515304904445
 20
127.9686898585375
 30
0.0
 11
871.7505059973438
 21
-144.6903692950862
 31
0.0
  0
ARC
  5
92
330
2
100
AcDbEntity
  8
0
100
AcDbCircle
 10
880.5476553011839
 20
128.3096307049145
 30
0.0
 40
15.0
100
AcDbArc
 50
90.0
 51
181.3024102634719
  0
LWPOLYLINE
  5
93
330
2
100
AcDbEntity
  8
0
100
AcDbPolyline
 90
        4
 70
     1
 43
0.0
 10
897.5022597696073
 20
123.3096307049145
 10
897.5022597696073
 20
118.8096307049145
 10
877.5022597696072
 20
118.8096307049145
 10
877.5022597696072
 20
123.3096307049145
  0
LWPOLYLINE
  5
94
330
2
100
AcDbEntity
  8
0
100
AcDbPolyline
 90
        4
 70
     1
 43
0.0
 10
897.5022597696069
 20
-144.6903692950855
 10
897.5022597696069
 20
-149.1903692950855
 10
877.5022597696068
 20
-149.1903692950855
 10
877.5022597696068
 20
-144.6903692950855
  0
ARC
  5
95
330
2
100
AcDbEntity
  8
0
100
AcDbCircle
 10
887.5022597696068
 20
-140.3521298408351
 30
0.0
 40
16.33823945425025
100
AcDbArc
 50
195.3982540962334
 51
344.6017459037666
  0
LINE
  5
96
330
2
100
AcDbEntity
  8
0
100
AcDbLine
 10
880.5476553011839
 20
478.2155131975586
 30
0.0
 11
894.4568642380307
 21
478.2155131975586
 31
0.0
  0
LINE
  5
97
330
2
100
AcDbEntity
  8
0
100
AcDbLine
 10
909.4529890487699
 20
462.8745723511817
 30
0.0
 11
903.2540135418706
 21
190.2155131975611
 31
0.0
  0
ARC
  5
98
330
2
100
AcDbEntity
  8
0
100
AcDbCircle
 10
894.4568642380307
 20
463.2155131975586
 30
0.0
 40
15.0
100
AcDbArc
 50
358.6975897365276
 51
90.0
  0
LINE
  5
99
330
2
100
AcDbEntity
  8
0
100
AcDbLine
 10
865.5515304904445
 20
462.8745723511817
 30
0.0
 11
871.7505059973438
 21
190.2155131975579
 31
0.0
  0
ARC
  5
9A
330
2
100
AcDbEntity
  8
0
100
AcDbCircle
 10
880.5476553011839
 20
463.2155131975586
 30
0.0
 40
15.0
100
AcDbArc
 50
90.0
 51
181.3024102634724
  0
LWPOLYLINE
  5
9B
330
2
100
AcDbEntity
  8
0
100
AcDbPolyline
 90
        4
 70
     1
 43
0.0
 10
897.5022597696073
 20
458.2155131975587
 10
897.5022597696073
 20
453.7155131975587
 10
877.5022597696072
 20
453.7155131975587
 10
877.5022597696072
 20
458.2155131975587
  0
LWPOLYLINE
  5
9C
330
2
100
AcDbEntity
  8
0
100
AcDbPolyline
 90
        4
 70
     1
 43
0.0
 10
897.5022597696069
 20
190.2155131975586
 10
897.5022597696069
 20
185.7155131975586
 10
877.5022597696068
 20
185.7155131975586
 10
877.5022597696068
 20
190.2155131975586
  0
ARC
  5
9D
330
2
100
AcDbEntity
  8
0
100
AcDbCircle
 10
887.5022597696068
 20
194.553752651809
 30
0.0
 40
16.33823945425025
100
AcDbArc
 50
195.3982540962322
 51
344.6017459037678
  0
LINE
  5
9E
330
2
100
AcDbEntity
  8
0
100
AcDbLine
 10
814.6838418659136
 20
143.3096307049145
 30
0.0
 11
828.5930508027602
 21
143.3096307049145
 31
0.0
  0
LINE
  5
9F
330
2
100
AcDbEntity
  8
0
100
AcDbLine
 10
843.5891756134996
 20
127.9686898585375
 30
0.0
 11
837.3902001066001
 21
-144.690369295083
 31
0.0
  0
ARC
  5
A0
330
2
100
AcDbEntity
  8
0
100
AcDbCircle
 10
828.5930508027602
 20
128.3096307049145
 30
0.0
 40
15.0
100
AcDbArc
 50
358.6975897365278
 51
90.0
  0
LINE
  5
A1
330
2
100
AcDbEntity
  8
0
100
AcDbLine
 10
799.6877170551742
 20
127.9686898585375
 30
0.0
 11
805.8866925620735
 21
-144.6903692950862
 31
0.0
  0
ARC
  5
A2
330
2
100
AcDbEntity
  8
0
100
AcDbCircle
 10
814.6838418659136
 20
128.3096307049145
 30
0.0
 40
15.0
100
AcDbArc
 50
90.0
 51
181.3024102634719
  0
LWPOLYLINE
  5
A3
330
2
100
AcDbEntity
  8
0
100
AcDbPolyline
 90
        4
 70
     1
 43
0.0
 10
831.6384463343366
 20
123.3096307049145
 10
831.6384463343366
 20
118.8096307049145
 10
811.6384463343367
 20
118.8096307049145
 10
811.6384463343367
 20
123.3096307049145
  0
LWPOLYLINE
  5
A4
330
2
100
AcDbEntity
  8
0
100
AcDbPolyline
 90
        4
 70
     1
 43
0.0
 10
831.6384463343366
 20
-144.6903692950855
 10
831.6384463343366
 20
-149.1903692950855
 10
811.6384463343365
 20
-149.1903692950855
 10
811.6384463343365
 20
-144.6903692950855
  0
ARC
  5
A5
330
2
100
AcDbEntity
  8
0
100
AcDbCircle
 10
821.6384463343365
 20
-140.3521298408351
 30
0.0
 40
16.33823945425025
100
AcDbArc
 50
195.3982540962334
 51
344.6017459037666
  0
LINE
  5
A6
330
2
100
AcDbEntity
  8
0
100
AcDbLine
 10
814.6838418659136
 20
478.2155131975586
 30
0.0
 11
828.5930508027602
 21
478.2155131975586
 31
0.0
  0
LINE
  5
A7
330
2
100
AcDbEntity
  8
0
100
AcDbLine
 10
843.5891756134996
 20
462.8745723511817
 30
0.0
 11
837.3902001066001
 21
190.2155131975611
 31
0.0
  0
ARC
  5
A8
330
2
100
AcDbEntity
  8
0
100
AcDbCircle
 10
828.5930508027602
 20
463.2155131975586
 30
0.0
 40
15.0
100
AcDbArc
 50
358.6975897365276
 51
90.0
  0
LINE
  5
A9
330
2
100
AcDbEntity
  8
0
100
AcDbLine
 10
799.6877170551742
 20
462.8745723511817
 30
0.0
 11
805.8866925620735
 21
190.2155131975579
 31
0.0
  0
ARC
  5
AA
330
2
100
AcDbEntity
  8
0
100
AcDbCircle
 10
814.6838418659136
 20
463.2155131975586
 30
0.0
 40
15.0
100
AcDbArc
 50
90.0
 51
181.3024102634724
  0
LWPOLYLINE
  5
AB
330
2
100
AcDbEntity
  8
0
100
AcDbPolyline
 90
        4
 70
     1
 43
0.0
 10
831.6384463343366
 20
458.2155131975587
 10
831.6384463343366
 20
453.7155131975587
 10
811.6384463343367
 20
453.7155131975587
 10
811.6384463343367
 20
458.2155131975587
  0
LWPOLYLINE
  5
AC
330
2
100
AcDbEntity
  8
0
100
AcDbPolyline
 90
        4
 70
     1
 43
0.0
 10
831.6384463343366
 20
190.2155131975586
 10
831.6384463343366
 20
185.7155131975586
 10
811.6384463343365
 20
185.7155131975586
 10
811.6384463343365
 20
190.2155131975586
  0
ARC
  5
AD
330
2
100
AcDbEntity
  8
0
100
AcDbCircle
 10
821.6384463343365
 20
194.553752651809
 30
0.0
 40
16.33823945425025
100
AcDbArc
 50
195.3982540962322
 51
344.6017459037678
  0
LINE
  5
AE
330
2
100
AcDbEntity
  8
0
100
AcDbLine
 10
748.8200284306433
 20
143.3096307049145
 30
0.0
 11
762.7292373674898
 21
143.3096307049145
 31
0.0
  0
LINE
  5
AF
330
2
100
AcDbEntity
  8
0
100
AcDbLine
 10
777.7253621782293
 20
127.9686898585375
 30
0.0
 11
771.5263866713297
 21
-144.690369295083
 31
0.0
  0
ARC
  5
B0
330
2
100
AcDbEntity
  8
0
100
AcDbCircle
 10
762.7292373674898
 20
128.3096307049145
 30
0.0
 40
15.0
100
AcDbArc
 50
358.6975897365278
 51
90.0
  0
LINE
  5
B1
330
2
100
AcDbEntity
  8
0
100
AcDbLine
 10
733.8239036199038
 20
127.9686898585375
 30
0.0
 11
740.0228791268033
 21
-144.6903692950862
 31
0.0
  0
ARC
  5
B2
330
2
100
AcDbEntity
  8
0
100
AcDbCircle
 10
748.8200284306433
 20
128.3096307049145
 30
0.0
 40
15.0
100
AcDbArc
 50
90.0
 51
181.3024102634719
  0
LWPOLYLINE
  5
B3
330
2
100
AcDbEntity
  8
0
100
AcDbPolyline
 90
        4
 70
     1
 43
0.0
 10
765.7746328990664
 20
123.3096307049145
 10
765.7746328990664
 20
118.8096307049145
 10
745.7746328990663
 20
118.8096307049145
 10
745.7746328990663
 20
123.3096307049145
  0
LWPOLYLINE
  5
B4
330
2
100
AcDbEntity
  8
0
100
AcDbPolyline
 90
        4
 70
     1
 43
0.0
 10
765.7746328990663
 20
-144.6903692950855
 10
765.7746328990663
 20
-149.1903692950855
 10
745.7746328990663
 20
-149.1903692950855
 10
745.7746328990663
 20
-144.6903692950855
  0
ARC
  5
B5
330
2
100
AcDbEntity
  8
0
100
AcDbCircle
 10
755.7746328990662
 20
-140.3521298408351
 30
0.0
 40
16.33823945425025
100
AcDbArc
 50
195.3982540962334
 51
344.6017459037666
  0
LINE
  5
B6
330
2
100
AcDbEntity
  8
0
100
AcDbLine
 10
748.8200284306433
 20
478.2155131975586
 30
0.0
 11
762.7292373674898
 21
478.2155131975586
 31
0.0
  0
LINE
  5
B7
330
2
100
AcDbEntity
  8
0
100
AcDbLine
 10
777.7253621782293
 20
462.8745723511817
 30
0.0
 11
771.5263866713297
 21
190.2155131975611
 31
0.0
  0
ARC
  5
B8
330
2
100
AcDbEntity
  8
0
100
AcDbCircle
 10
762.7292373674898
 20
463.2155131975586
 30
0.0
 40
15.0
100
AcDbArc
 50
358.6975897365276
 51
90.0
  0
LINE
  5
B9
330
2
100
AcDbEntity
  8
0
100
AcDbLine
 10
733.8239036199038
 20
462.8745723511817
 30
0.0
 11
740.0228791268033
 21
190.2155131975579
 31
0.0
  0
ARC
  5
BA
330
2
100
AcDbEntity
  8
0
100
AcDbCircle
 10
748.8200284306433
 20
463.2155131975586
 30
0.0
 40
15.0
100
AcDbArc
 50
90.0
 51
181.3024102634724
  0
LWPOLYLINE
  5
BB
330
2
100
AcDbEntity
  8
0
100
AcDbPolyline
 90
        4
 70
     1
 43
0.0
 10
765.7746328990664
 20
458.2155131975587
 10
765.7746328990664
 20
453.7155131975587
 10
745.7746328990663
 20
453.7155131975587
 10
745.7746328990663
 20
458.2155131975587
  0
LWPOLYLINE
  5
BC
330
2
100
AcDbEntity
  8
0
100
AcDbPolyline
 90
        4
 70
     1
 43
0.0
 10
765.7746328990663
 20
190.2155131975586
 10
765.7746328990663
 20
185.7155131975586
 10
745.7746328990663
 20
185.7155131975586
 10
745.7746328990663
 20
190.2155131975586
  0
ARC
  5
BD
330
2
100
AcDbEntity
  8
0
100
AcDbCircle
 10
755.7746328990662
 20
194.553752651809
 30
0.0
 40
16.33823945425025
100
AcDbArc
 50
195.3982540962322
 51
344.6017459037678
  0
LINE
  5
BE
330
2
100
AcDbEntity
  8
0
100
AcDbLine
 10
682.9562149953727
 20
143.3096307049145
 30
0.0
 11
696.8654239322196
 21
143.3096307049145
 31
0.0
  0
LINE
  5
BF
330
2
100
AcDbEntity
  8
0
100
AcDbLine
 10
711.8615487429588
 20
127.9686898585375
 30
0.0
 11
705.6625732360595
 21
-144.690369295083
 31
0.0
  0
ARC
  5
C0
330
2
100
AcDbEntity
  8
0
100
AcDbCircle
 10
696.8654239322196
 20
128.3096307049145
 30
0.0
 40
15.0
100
AcDbArc
 50
358.6975897365278
 51
90.0
  0
LINE
  5
C1
330
2
100
AcDbEntity
  8
0
100
AcDbLine
 10
667.9600901846336
 20
127.9686898585375
 30
0.0
 11
674.1590656915327
 21
-144.6903692950862
 31
0.0
  0
ARC
  5
C2
330
2
100
AcDbEntity
  8
0
100
AcDbCircle
 10
682.9562149953727
 20
128.3096307049145
 30
0.0
 40
15.0
100
AcDbArc
 50
90.0
 51
181.3024102634719
  0
LWPOLYLINE
  5
C3
330
2
100
AcDbEntity
  8
0
100
AcDbPolyline
 90
        4
 70
     1
 43
0.0
 10
699.9108194637962
 20
123.3096307049145
 10
699.9108194637962
 20
118.8096307049145
 10
679.9108194637962
 20
118.8096307049145
 10
679.9108194637962
 20
123.3096307049145
  0
LWPOLYLINE
  5
C4
330
2
100
AcDbEntity
  8
0
100
AcDbPolyline
 90
        4
 70
     1
 43
0.0
 10
699.9108194637959
 20
-144.6903692950855
 10
699.9108194637959
 20
-149.1903692950855
 10
679.9108194637957
 20
-149.1903692950855
 10
679.9108194637957
 20
-144.6903692950855
  0
ARC
  5
C5
330
2
100
AcDbEntity
  8
0
100
AcDbCircle
 10
689.9108194637957
 20
-140.3521298408351
 30
0.0
 40
16.33823945425025
100
AcDbArc
 50
195.3982540962334
 51
344.6017459037666
  0
LINE
  5
C6
330
2
100
AcDbEntity
  8
0
100
AcDbLine
 10
682.9562149953727
 20
478.2155131975586
 30
0.0
 11
696.8654239322196
 21
478.2155131975586
 31
0.0
  0
LINE
  5
C7
330
2
100
AcDbEntity
  8
0
100
AcDbLine
 10
711.8615487429588
 20
462.8745723511817
 30
0.0
 11
705.6625732360595
 21
190.2155131975611
 31
0.0
  0
ARC
  5
C8
330
2
100
AcDbEntity
  8
0
100
AcDbCircle
 10
696.8654239322196
 20
463.2155131975586
 30
0.0
 40
15.0
100
AcDbArc
 50
358.6975897365276
 51
90.0
  0
LINE
  5
C9
330
2
100
AcDbEntity
  8
0
100
AcDbLine
 10
667.9600901846336
 20
462.8745723511817
 30
0.0
 11
674.1590656915327
 21
190.2155131975579
 31
0.0
  0
ARC
  5
CA
330
2
100
AcDbEntity
  8
0
100
AcDbCircle
 10
682.9562149953727
 20
463.2155131975586
 30
0.0
 40
15.0
100
AcDbArc
 50
90.0
 51
181.3024102634724
  0
LWPOLYLINE
  5
CB
330
2
100
AcDbEntity
  8
0
100
AcDbPolyline
 90
        4
 70
     1
 43
0.0
 10
699.9108194637962
 20
458.2155131975587
 10
699.9108194637962
 20
453.7155131975587
 10
679.9108194637962
 20
453.7155131975587
 10
679.9108194637962
 20
458.2155131975587
  0
LWPOLYLINE
  5
CC
330
2
100
AcDbEntity
  8
0
100
AcDbPolyline
 90
        4
 70
     1
 43
0.0
 10
699.9108194637959
 20
190.2155131975586
 10
699.9108194637959
 20
185.7155131975586
 10
679.9108194637957
 20
185.7155131975586
 10
679.9108194637957
 20
190.2155131975586
  0
ARC
  5
CD
330
2
100
AcDbEntity
  8
0
100
AcDbCircle
 10
689.9108194637957
 20
194.553752651809
 30
0.0
 40
16.33823945425025
100
AcDbArc
 50
195.3982540962322
 51
344.6017459037678
  0
LINE
  5
CE
330
2
100
AcDbEntity
  8
0
100
AcDbLine
 10
617.0924015601023
 20
143.3096307049145
 30
0.0
 11
631.0016104969491
 21
143.3096307049145
 31
0.0
  0
LINE
  5
CF
330
2
100
AcDbEntity
  8
0
100
AcDbLine
 10
645.9977353076886
 20
127.9686898585375
 30
0.0
 11
639.798759800789
 21
-144.690369295083
 31
0.0
  0
ARC
  5
D0
330
2
100
AcDbEntity
  8
0
100
AcDbCircle
 10
631.0016104969491
 20
128.3096307049145
 30
0.0
 40
15.0
100
AcDbArc
 50
358.6975897365278
 51
90.0
  0
LINE
  5
D1
330
2
100
AcDbEntity
  8
0
100
AcDbLine
 10
602.0962767493633
 20
127.9686898585375
 30
0.0
 11
608.2952522562625
 21
-144.6903692950862
 31
0.0
  0
ARC
  5
D2
330
2
100
AcDbEntity
  8
0
100
AcDbCircle
 10
617.0924015601023
 20
128.3096307049145
 30
0.0
 40
15.0
100
AcDbArc
 50
90.0
 51
181.3024102634719
  0
LWPOLYLINE
  5
D3
330
2
100
AcDbEntity
  8
0
100
AcDbPolyline
 90
        4
 70
     1
 43
0.0
 10
634.0470060285257
 20
123.3096307049145
 10
634.0470060285257
 20
118.8096307049145
 10
614.0470060285257
 20
118.8096307049145
 10
614.0470060285257
 20
123.3096307049145
  0
LWPOLYLINE
  5
D4
330
2
100
AcDbEntity
  8
0
100
AcDbPolyline
 90
        4
 70
     1
 43
0.0
 10
634.0470060285256
 20
-144.6903692950855
 10
634.0470060285256
 20
-149.1903692950855
 10
614.0470060285255
 20
-149.1903692950855
 10
614.0470060285255
 20
-144.6903692950855
  0
ARC
  5
D5
330
2
100
AcDbEntity
  8
0
100
AcDbCircle
 10
624.0470060285254
 20
-140.3521298408351
 30
0.0
 40
16.33823945425025
100
AcDbArc
 50
195.3982540962334
 51
344.6017459037666
  0
LINE
  5
D6
330
2
100
AcDbEntity
  8
0
100
AcDbLine
 10
617.0924015601023
 20
478.2155131975586
 30
0.0
 11
631.0016104969491
 21
478.2155131975586
 31
0.0
  0
LINE
  5
D7
330
2
100
AcDbEntity
  8
0
100
AcDbLine
 10
645.9977353076886
 20
462.8745723511817
 30
0.0
 11
639.798759800789
 21
190.2155131975611
 31
0.0
  0
ARC
  5
D8
330
2
100
AcDbEntity
  8
0
100
AcDbCircle
 10
631.0016104969491
 20
463.2155131975586
 30
0.0
 40
15.0
100
AcDbArc
 50
358.6975897365276
 51
90.0
  0
LINE
  5
D9
330
2
100
AcDbEntity
  8
0
100
AcDbLine
 10
602.0962767493633
 20
462.8745723511817
 30
0.0
 11
608.2952522562625
 21
190.2155131975579
 31
0.0
  0
ARC
  5
DA
330
2
100
AcDbEntity
  8
0
100
AcDbCircle
 10
617.0924015601023
 20
463.2155131975586
 30
0.0
 40
15.0
100
AcDbArc
 50
90.0
 51
181.3024102634724
  0
LWPOLYLINE
  5
DB
330
2
100
AcDbEntity
  8
0
100
AcDbPolyline
 90
        4
 70
     1
 43
0.0
 10
634.0470060285257
 20
458.2155131975587
 10
634.0470060285257
 20
453.7155131975587
 10
614.0470060285257
 20
453.7155131975587
 10
614.0470060285257
 20
458.2155131975587
  0
LWPOLYLINE
  5
DC
330
2
100
AcDbEntity
  8
0
100
AcDbPolyline
 90
        4
 70
     1
 43
0.0
 10
634.0470060285256
 20
190.2155131975586
 10
634.0470060285256
 20
185.7155131975586
 10
614.0470060285255
 20
185.7155131975586
 10
614.0470060285255
 20
190.2155131975586
  0
ARC
  5
DD
330
2
100
AcDbEntity
  8
0
100
AcDbCircle
 10
624.0470060285254
 20
194.553752651809
 30
0.0
 40
16.33823945425025
100
AcDbArc
 50
195.3982540962322
 51
344.6017459037678
  0
LINE
  5
DE
330
2
100
AcDbEntity
  8
0
100
AcDbLine
 10
551.2285881248321
 20
143.3096307049145
 30
0.0
 11
565.1377970616788
 21
143.3096307049145
 31
0.0
  0
LINE
  5
DF
330
2
100
AcDbEntity
  8
0
100
AcDbLine
 10
580.1339218724182
 20
127.9686898585375
 30
0.0
 11
573.9349463655186
 21
-144.690369295083
 31
0.0
  0
ARC
  5
E0
330
2
100
AcDbEntity
  8
0
100
AcDbCircle
 10
565.1377970616788
 20
128.3096307049145
 30
0.0
 40
15.0
100
AcDbArc
 50
358.6975897365278
 51
90.0
  0
LINE
  5
E1
330
2
100
AcDbEntity
  8
0
100
AcDbLine
 10
536.2324633140929
 20
127.9686898585375
 30
0.0
 11
542.431438820992
 21
-144.6903692950862
 31
0.0
  0
ARC
  5
E2
330
2
100
AcDbEntity
  8
0
100
AcDbCircle
 10
551.2285881248321
 20
128.3096307049145
 30
0.0
 40
15.0
100
AcDbArc
 50
90.0
 51
181.3024102634719
  0
LWPOLYLINE
  5
E3
330
2
100
AcDbEntity
  8
0
100
AcDbPolyline
 90
        4
 70
     1
 43
0.0
 10
568.1831925932555
 20
123.3096307049145
 10
568.1831925932555
 20
118.8096307049145
 10
548.1831925932554
 20
118.8096307049145
 10
548.1831925932554
 20
123.3096307049145
  0
LWPOLYLINE
  5
E4
330
2
100
AcDbEntity
  8
0
100
AcDbPolyline
 90
        4
 70
     1
 43
0.0
 10
568.1831925932552
 20
-144.6903692950855
 10
568.1831925932552
 20
-149.1903692950855
 10
548.1831925932551
 20
-149.1903692950855
 10
548.1831925932551
 20
-144.6903692950855
  0
ARC
  5
E5
330
2
100
AcDbEntity
  8
0
100
AcDbCircle
 10
558.183192593255
 20
-140.3521298408351
 30
0.0
 40
16.33823945425025
100
AcDbArc
 50
195.3982540962334
 51
344.6017459037666
  0
LINE
  5
E6
330
2
100
AcDbEntity
  8
0
100
AcDbLine
 10
551.2285881248321
 20
478.2155131975586
 30
0.0
 11
565.1377970616788
 21
478.2155131975586
 31
0.0
  0
LINE
  5
E7
330
2
100
AcDbEntity
  8
0
100
AcDbLine
 10
580.1339218724182
 20
462.8745723511817
 30
0.0
 11
573.9349463655186
 21
190.2155131975611
 31
0.0
  0
ARC
  5
E8
330
2
100
AcDbEntity
  8
0
100
AcDbCircle
 10
565.1377970616788
 20
463.2155131975586
 30
0.0
 40
15.0
100
AcDbArc
 50
358.6975897365276
 51
90.0
  0
LINE
  5
E9
330
2
100
AcDbEntity
  8
0
100
AcDbLine
 10
536.2324633140929
 20
462.8745723511817
 30
0.0
 11
542.431438820992
 21
190.2155131975579
 31
0.0
  0
ARC
  5
EA
330
2
100
AcDbEntity
  8
0
100
AcDbCircle
 10
551.2285881248321
 20
463.2155131975586
 30
0.0
 40
15.0
100
AcDbArc
 50
90.0
 51
181.3024102634724
  0
LWPOLYLINE
  5
EB
330
2
100
AcDbEntity
  8
0
100
AcDbPolyline
 90
        4
 70
     1
 43
0.0
 10
568.1831925932555
 20
458.2155131975587
 10
568.1831925932555
 20
453.7155131975587
 10
548.1831925932554
 20
453.7155131975587
 10
548.1831925932554
 20
458.2155131975587
  0
LWPOLYLINE
  5
EC
330
2
100
AcDbEntity
  8
0
100
AcDbPolyline
 90
        4
 70
     1
 43
0.0
 10
568.1831925932552
 20
190.2155131975586
 10
568.1831925932552
 20
185.7155131975586
 10
548.1831925932551
 20
185.7155131975586
 10
548.1831925932551
 20
190.2155131975586
  0
ARC
  5
ED
330
2
100
AcDbEntity
  8
0
100
AcDbCircle
 10
558.183192593255
 20
194.553752651809
 30
0.0
 40
16.33823945425025
100
AcDbArc
 50
195.3982540962322
 51
344.6017459037678
  0
LINE
  5
EE
330
2
100
AcDbEntity
  8
0
100
AcDbLine
 10
485.3647746895618
 20
143.3096307049145
 30
0.0
 11
499.2739836264084
 21
143.3096307049145
 31
0.0
  0
LINE
  5
EF
330
2
100
AcDbEntity
  8
0
100
AcDbLine
 10
514.2701084371479
 20
127.9686898585375
 30
0.0
 11
508.0711329302484
 21
-144.690369295083
 31
0.0
  0
ARC
  5
F0
330
2
100
AcDbEntity
  8
0
100
AcDbCircle
 10
499.2739836264084
 20
128.3096307049145
 30
0.0
 40
15.0
100
AcDbArc
 50
358.6975897365277
 51
90.0
  0
LINE
  5
F1
330
2
100
AcDbEntity
  8
0
100
AcDbLine
 10
470.3686498788226
 20
127.9686898585375
 30
0.0
 11
476.5676253857218
 21
-144.6903692950862
 31
0.0
  0
ARC
  5
F2
330
2
100
AcDbEntity
  8
0
100
AcDbCircle
 10
485.3647746895618
 20
128.3096307049145
 30
0.0
 40
15.0
100
AcDbArc
 50
90.0
 51
181.3024102634719
  0
LWPOLYLINE
  5
F3
330
2
100
AcDbEntity
  8
0
100
AcDbPolyline
 90
        4
 70
     1
 43
0.0
 10
502.3193791579851
 20
123.3096307049145
 10
502.3193791579851
 20
118.8096307049145
 10
482.319379157985
 20
118.8096307049145
 10
482.319379157985
 20
123.3096307049145
  0
LWPOLYLINE
  5
F4
330
2
100
AcDbEntity
  8
0
100
AcDbPolyline
 90
        4
 70
     1
 43
0.0
 10
502.3193791579848
 20
-144.6903692950855
 10
502.3193791579848
 20
-149.1903692950855
 10
482.3193791579848
 20
-149.1903692950855
 10
482.3193791579848
 20
-144.6903692950855
  0
ARC
  5
F5
330
2
100
AcDbEntity
  8
0
100
AcDbCircle
 10
492.3193791579847
 20
-140.3521298408351
 30
0.0
 40
16.33823945425025
100
AcDbArc
 50
195.3982540962343
 51
344.6017459037658
  0
LINE
  5
F6
330
2
100
AcDbEntity
  8
0
100
AcDbLine
 10
485.3647746895618
 20
478.2155131975586
 30
0.0
 11
499.2739836264084
 21
478.2155131975586
 31
0.0
  0
LINE
  5
F7
330
2
100
AcDbEntity
  8
0
100
AcDbLine
 10
514.2701084371479
 20
462.8745723511817
 30
0.0
 11
508.0711329302484
 21
190.2155131975611
 31
0.0
  0
ARC
  5
F8
330
2
100
AcDbEntity
  8
0
100
AcDbCircle
 10
499.2739836264084
 20
463.2155131975586
 30
0.0
 40
15.0
100
AcDbArc
 50
358.6975897365276
 51
90.0
  0
LINE
  5
F9
330
2
100
AcDbEntity
  8
0
100
AcDbLine
 10
470.3686498788226
 20
462.8745723511817
 30
0.0
 11
476.5676253857218
 21
190.2155131975579
 31
0.0
  0
ARC
  5
FA
330
2
100
AcDbEntity
  8
0
100
AcDbCircle
 10
485.3647746895618
 20
463.2155131975586
 30
0.0
 40
15.0
100
AcDbArc
 50
90.0
 51
181.3024102634724
  0
LWPOLYLINE
  5
FB
330
2
100
AcDbEntity
  8
0
100
AcDbPolyline
 90
        4
 70
     1
 43
0.0
 10
502.3193791579851
 20
458.2155131975587
 10
502.3193791579851
 20
453.7155131975587
 10
482.319379157985
 20
453.7155131975587
 10
482.319379157985
 20
458.2155131975587
  0
LWPOLYLINE
  5
FC
330
2
100
AcDbEntity
  8
0
100
AcDbPolyline
 90
        4
 70
     1
 43
0.0
 10
502.3193791579848
 20
190.2155131975586
 10
502.3193791579848
 20
185.7155131975586
 10
482.3193791579848
 20
185.7155131975586
 10
482.3193791579848
 20
190.2155131975586
  0
ARC
  5
FD
330
2
100
AcDbEntity
  8
0
100
AcDbCircle
 10
492.3193791579847
 20
194.553752651809
 30
0.0
 40
16.33823945425025
100
AcDbArc
 50
195.398254096233
 51
344.6017459037669
  0
LWPOLYLINE
  5
FE
330
2
100
AcDbEntity
  8
0
100
AcDbPolyline
 90
        4
 70
     1
 43
0.0
 10
1185.281127237034
 20
263.937479937321
 10
1185.281127237034
 20
259.437479937321
 10
1165.281127237033
 20
259.437479937321
 10
1165.281127237033
 20
263.937479937321
  0
LWPOLYLINE
  5
FF
330
2
100
AcDbEntity
  8
0
100
AcDbPolyline
 90
        3
 70
     0
 43
0.0
 10
1388.246601667375
 20
297.3999756172702
 42
0.3486088360841827
 10
1379.644613873832
 20
303.937479937321
 42
0.3486088360841827
 10
1371.042626080291
 20
297.3999756172698
  0
LWPOLYLINE
  5
100
330
2
100
AcDbEntity
  8
0
100
AcDbPolyline
 90
        8
 70
     0
 43
0.0
 10
1388.246601096867
 20
297.3999778510322
 42
0.3233721608686726
 10
1392.380506622481
 20
288.5683222782365
 42
-0.3759439660905266
 10
1389.644613873833
 20
273.937479937321
 10
1389.644613873833
 20
263.937479937321
 10
1369.644613873833
 20
263.937479937321
 10
1369.644613873833
 20
273.9374799373211
 42
-0.3759439660905266
 10
1366.908721125184
 20
288.5683222782365
 42
0.3233721608686726
 10
1371.042626650799
 20
297.3999778510322
  0
LWPOLYLINE
  5
101
330
2
100
AcDbEntity
  8
0
100
AcDbPolyline
 90
        7
 70
     1
 43
0.0
 10
1375.887118322511
 20
296.1626822344913
 42
-0.274534146155758
 10
1370.770691875589
 20
285.1192328154003
 42
0.2929135415555229
 10
1374.644613873833
 20
273.9374799373211
 10
1384.644613873833
 20
273.937479937321
 42
0.2929135415555178
 10
1388.518535872076
 20
285.1192328154003
 42
-0.274534146155758
 10
1383.402109425155
 20
296.1626822344914
 42
0.3566122529967435
 10
1379.644613874203
 20
298.9348813028639
 42
0.3566122530532657
  0
LWPOLYLINE
  5
102
330
2
100
AcDbEntity
  8
0
100
AcDbPolyline
 90
        2
 70
     1
 43
0.0
 10
1234.473134271138
 20
501.6526824830406
 42
-1.0
 10
1230.473134271138
 20
501.6526824830406
 42
-1.0
  0
LWPOLYLINE
  5
103
330
2
100
AcDbEntity
  8
0
100
AcDbPolyline
 90
        4
 70
     1
 43
0.0
 10
1228.148472938695
 20
516.9427970688761
 10
1232.099226301076
 20
516.3170592087151
 10
1230.534881650673
 20
506.4401758027637
 10
1226.584128288293
 20
507.0659136629246
  0
LWPOLYLINE
  5
104
330
2
100
AcDbEntity
  8
0
100
AcDbPolyline
 90
        4
 70
     1
 43
0.0
 10
1226.584128288293
 20
535.9129115691871
 10
1230.534881650673
 20
536.5386494293479
 10
1232.099226301076
 20
526.6617660233967
 10
1228.148472938695
 20
526.0360281632357
  0
LWPOLYLINE
  5
105
330
2
100
AcDbEntity
  8
0
100
AcDbPolyline
 90
        4
 70
     1
 43
0.0
 10
1219.234260348961
 20
553.4711534975391
 10
1222.798286445715
 20
555.2871154964973
 10
1227.33819144311
 20
546.3770502546136
 10
1223.774165346356
 20
544.5610882556555
  0
LWPOLYLINE
  5
106
330
2
100
AcDbEntity
  8
0
100
AcDbPolyline
 90
        4
 70
     1
 43
0.0
 10
1206.818325404144
 20
567.8987997985204
 10
1209.64675252889
 20
570.7272269232666
 10
1216.717820340756
 20
563.6561591114011
 10
1213.889393216009
 20
560.8277319866548
  0
LWPOLYLINE
  5
107
330
2
100
AcDbEntity
  8
0
100
AcDbPolyline
 90
        4
 70
     1
 43
0.0
 10
1190.551681673144
 20
577.7835719288677
 10
1192.367643672103
 20
581.3475980256212
 10
1201.277708913987
 20
576.8076930282258
 10
1199.461746915028
 20
573.2436669314722
  0
LWPOLYLINE
  5
108
330
2
100
AcDbEntity
  8
0
100
AcDbPolyline
 90
        4
 70
     1
 43
0.0
 10
1106.811539128394
 20
516.9427970688761
 10
1108.375883778797
 20
507.0659136629246
 10
1104.425130416416
 20
506.4401758027637
 10
1102.860785766014
 20
516.3170592087151
  0
LWPOLYLINE
  5
109
330
2
100
AcDbEntity
  8
0
100
AcDbPolyline
 90
        4
 70
     1
 43
0.0
 10
1172.026621580724
 20
582.1578795212059
 10
1172.652359440885
 20
586.1086328835865
 10
1182.529242846837
 20
584.5442882331842
 10
1181.903504986676
 20
580.5935348708037
  0
LWPOLYLINE
  5
10A
330
2
100
AcDbEntity
  8
0
100
AcDbPolyline
 90
        4
 70
     1
 43
0.0
 10
1108.375883778797
 20
535.9129115691871
 10
1106.811539128394
 20
526.0360281632357
 10
1102.860785766014
 20
526.6617660233967
 10
1104.425130416416
 20
536.5386494293479
  0
LWPOLYLINE
  5
10B
330
2
100
AcDbEntity
  8
0
100
AcDbPolyline
 90
        4
 70
     1
 43
0.0
 10
1153.056507080413
 20
580.5935348708037
 10
1152.430769220253
 20
584.5442882331842
 10
1162.307652626204
 20
586.1086328835865
 10
1162.933390486365
 20
582.1578795212059
  0
LWPOLYLINE
  5
10C
330
2
100
AcDbEntity
  8
0
100
AcDbPolyline
 90
        4
 70
     1
 43
0.0
 10
1115.725751718128
 20
553.4711534975392
 10
1111.185846720733
 20
544.5610882556557
 10
1107.621820623979
 20
546.3770502546139
 10
1112.161725621375
 20
555.2871154964974
  0
LWPOLYLINE
  5
10D
330
2
100
AcDbEntity
  8
0
100
AcDbPolyline
 90
        4
 70
     1
 43
0.0
 10
1135.498265152062
 20
573.2436669314725
 10
1133.682303153103
 20
576.8076930282258
 10
1142.592368394987
 20
581.3475980256213
 10
1144.408330393945
 20
577.783571928868
  0
LWPOLYLINE
  5
10E
330
2
100
AcDbEntity
  8
0
100
AcDbPolyline
 90
        4
 70
     1
 43
0.0
 10
1121.07061885108
 20
560.8277319866548
 10
1118.242191726334
 20
563.6561591114011
 10
1125.313259538199
 20
570.7272269232666
 10
1128.141686662945
 20
567.8987997985204
  0
LWPOLYLINE
  5
10F
330
2
100
AcDbEntity
  8
0
100
AcDbPolyline
 90
       77
 70
     1
 43
0.0
 10
1233.779850991639
 20
542.6623671582133
 42
0.0069035538952789
 10
1233.167476614854
 20
544.4850068744698
 42
1.018194344150932
 10
1231.333179319346
 20
549.1587201607313
 42
0.0069035538952785
 10
1230.542371656733
 20
550.9113299728028
 42
1.018194344151154
 10
1228.251837829013
 20
555.379181496137
 42
0.0069035538952786
 10
1227.290456282407
 20
557.0443431803177
 42
1.018194344156045
 10
1224.566450276723
 20
561.2619294250173
 42
0.0069035538952809
 10
1223.444049487853
 20
562.8230938563842
 42
1.018194344156204
 10
1220.3136436997
 20
566.7484985555179
 42
0.0069035538952805
 10
1219.041378591868
 20
568.1901501805688
 42
1.018194344164331
 10
1215.535684400364
 20
571.7843608986726
 42
0.0069035538952841
 10
1214.126199315799
 20
573.0921719358683
 42
1.018194344150654
 10
1210.280057884818
 20
576.3194677920592
 42
0.006903553895278
 10
1208.747360919531
 20
577.4804406277515
 42
1.018194344165048
 10
1204.598996930571
 20
580.3087473058844
 42
0.0069035538952841
 10
1202.958320715593
 20
581.3113436704447
 42
1.018194344145531
 10
1198.548962473704
 20
583.7125521880826
 42
0.006903553895277
 10
1196.816612786369
 20
584.5468078284024
 42
1.018194344146824
 10
1192.190082474749
 20
586.4970538965073
 42
0.006903553895277
 10
1190.383276184539
 20
587.1546776052289
 42
1.018194344155938
 10
1185.585554339985
 20
588.6345788021903
 42
0.0069035538952807
 10
1183.722248299553
 20
589.1090348194462
 42
1.018194344146562
 10
1178.801016837221
 20
590.1038832222951
 42
0.0069035538952772
 10
1176.899729419126
 20
590.3904561910271
 42
1.018194344146255
 10
1171.903897748248
 20
590.890364549381
 42
0.0069035538952768
 10
1169.98352480104
 20
590.9862063786777
 42
1.018194344154637
 10
1164.962743741236
 20
590.9862063786777
 42
0.0069035538952803
 10
1163.042370794026
 20
590.8903645493808
 42
1.018194344160729
 10
1158.04653912315
 20
590.3904561910271
 42
0.0069035538952817
 10
1156.145251705053
 20
590.103883222295
 42
1.018194344156304
 10
1151.224020242723
 20
589.1090348194462
 42
0.0069035538952801
 10
1149.360714202291
 20
588.6345788021903
 42
1.018194344156257
 10
1144.562992357736
 20
587.1546776052289
 42
0.0069035538952809
 10
1142.756186067525
 20
586.4970538965073
 42
1.018194344160979
 10
1138.129655755907
 20
584.5468078284024
 42
0.006903553895282
 10
1136.397306068571
 20
583.7125521880823
 42
1.018194344154458
 10
1131.987947826682
 20
581.3113436704444
 42
0.0069035538952796
 10
1130.347271611706
 20
580.3087473058848
 42
1.018194344151664
 10
1126.198907622744
 20
577.4804406277512
 42
0.0069035538952798
 10
1124.666210657457
 20
576.3194677920587
 42
1.018194344156726
 10
1120.820069226477
 20
573.0921719358681
 42
0.0069035538952802
 10
1119.410584141911
 20
571.784360898673
 42
1.018194344159939
 10
1115.904889950408
 20
568.1901501805688
 42
0.0069035538952827
 10
1114.632624842576
 20
566.7484985555176
 42
1.018194344155807
 10
1111.502219054422
 20
562.8230938563839
 42
0.0069035538952802
 10
1110.379818265553
 20
561.2619294250171
 42
1.018194344156033
 10
1107.655812259869
 20
557.0443431803177
 42
0.0069035538952805
 10
1106.694430713262
 20
555.3791814961366
 42
1.018194344155763
 10
1104.403896885543
 20
550.9113299728026
 42
0.0069035538952799
 10
1103.61308922293
 20
549.1587201607309
 42
1.018194344151091
 10
1101.778791927421
 20
544.4850068744692
 42
0.0069035538952792
 10
1101.166417550636
 20
542.6623671582126
 42
1.018194344155396
 10
1099.806586857956
 20
537.8292415714184
 42
0.0069035538952802
 10
1099.378731818678
 20
535.9546861633325
 42
1.018194344161095
 10
1098.506882337178
 20
531.0101820494614
 42
0.0069035538952816
 10
1098.267798851009
 20
529.102341123372
 42
1.018194344160701
 10
1097.892595412532
 20
524.095599185721
 42
0.0069035538952825
 10
1097.84465959857
 20
522.1734337218856
 42
1.018194344151047
 10
1097.969831143457
 20
517.1542132112049
 42
0.006903553895279
 10
1098.113519409356
 20
515.2368265535741
 42
1.018194344161009
 10
1098.737821926557
 20
510.2550107382817
 42
0.0069035538952818
 10
1099.071706233778
 20
508.3614587368802
 42
1.018194344160813
 10
1100.188935124396
 20
503.466559140724
 42
0.0069035538952815
 10
1100.70969718069
 20
501.6156607660571
 42
1.018194344155981
 10
1102.308748922074
 20
496.856325100351
 42
0.0016598886443184
 10
1102.473134271138
 20
496.4242071394953
 42
-0.3570607411326205
 10
1227.244658927593
 20
501.6526824830408
 42
1.66764073479309
 10
1235.381405709345
 20
505.9976694404171
 42
0.0155744913115589
 10
1236.208446615719
 20
510.2550107382813
 42
1.018194344151026
 10
1236.832749132919
 20
515.2368265535746
 42
0.0069035538952794
 10
1236.976437398819
 20
517.1542132112055
 42
1.018194344160599
 10
1237.101608943706
 20
522.1734337218854
 42
0.0069035538952816
 10
1237.053673129743
 20
524.0955991857203
 42
1.01819434415583
 10
1236.678469691267
 20
529.1023411233719
 42
0.0069035538952803
 10
1236.439386205098
 20
531.0101820494611
 42
1.018194344160864
 10
1235.567536723598
 20
535.9546861633323
 42
0.0069035538952823
 10
1235.13968168432
 20
537.8292415714184
 42
1.018194344150594
  0
LWPOLYLINE
  5
110
330
2
100
AcDbEntity
  8
0
100
AcDbPolyline
 90
       12
 70
     0
 43
0.0
 10
1131.418648781832
 20
451.7393224863734
 10
1151.418648781832
 20
451.7393224863734
 10
1151.418648781832
 20
455.7393224863734
 10
1181.418648781832
 20
455.7393224863734
 10
1181.418648781832
 20
451.7393224863734
 10
1201.418648781832
 20
451.7393224863734
 10
1201.418648781832
 20
455.7393224863734
 10
1231.418648781832
 20
455.7393224863734
 10
1231.418648781832
 20
460.7393224863734
 10
1227.418648781832
 20
460.7393224863734
 10
1227.418648781832
 20
470.7393224863735
 10
1231.418648781832
 20
470.7393224863735
  0
LWPOLYLINE
  5
111
330
2
100
AcDbEntity
  8
0
100
AcDbPolyline
 90
       11
 70
     0
 43
0.0
 10
1231.418648781832
 20
470.7393224863735
 10
1231.418648781832
 20
480.7393224863734
 42
-0.4142135623730951
 10
1226.190173438277
 20
485.9677978299268
 42
0.3570607411326192
 10
1101.418648781832
 20
480.7393224863734
 10
1101.418648781832
 20
470.7393224863735
 10
1105.418648781832
 20
470.7393224863735
 10
1105.418648781832
 20
460.7393224863734
 10
1101.418648781832
 20
460.7393224863734
 10
1101.418648781832
 20
455.7393224863734
 10
1131.418648781832
 20
455.7393224863734
 10
1131.418648781832
 20
451.7393224863734
  0
LWPOLYLINE
  5
112
330
2
100
AcDbEntity
  8
0
100
AcDbPolyline
 90
       12
 70
     1
 43
0.0
 10
814.5050405416588
 20
495.9983761872136
 10
814.5050405416588
 20
500.4983761872136
 10
810.5050405416587
 20
500.4983761872136
 10
810.5050405416587
 20
510.4983761872134
 10
814.5050405416588
 20
510.4983761872134
 10
814.5050405416588
 20
514.9983761872134
 10
1046.505040541658
 20
514.9983761872134
 10
1046.505040541658
 20
510.4983761872134
 10
1050.505040541658
 20
510.4983761872134
 10
1050.505040541658
 20
500.4983761872136
 10
1046.505040541658
 20
500.4983761872136
 10
1046.505040541658
 20
495.9983761872136
  0
LWPOLYLINE
  5
113
330
2
100
AcDbEntity
  8
0
100
AcDbPolyline
 90
       12
 70
     1
 43
0.0
 10
814.5050405416588
 20
525.3190371610616
 10
814.5050405416588
 20
529.8190371610616
 10
810.5050405416587
 20
529.8190371610616
 10
810.5050405416587
 20
539.8190371610617
 10
814.5050405416588
 20
539.8190371610617
 10
814.5050405416588
 20
544.3190371610617
 10
1046.505040541658
 20
544.3190371610617
 10
1046.505040541658
 20
539.8190371610617
 10
1050.505040541658
 20
539.8190371610617
 10
1050.505040541658
 20
529.8190371610616
 10
1046.505040541658
 20
529.8190371610616
 10
1046.505040541658
 20
525.3190371610616
  0
LWPOLYLINE
  5
114
330
2
100
AcDbEntity
  8
0
100
AcDbPolyline
 90
       12
 70
     1
 43
0.0
 10
814.5050405416588
 20
550.5954637765934
 10
814.5050405416588
 20
555.0954637765934
 10
810.5050405416587
 20
555.0954637765934
 10
810.5050405416587
 20
565.0954637765933
 10
814.5050405416588
 20
565.0954637765933
 10
814.5050405416588
 20
569.5954637765934
 10
1046.505040541658
 20
569.5954637765934
 10
1046.505040541658
 20
565.0954637765933
 10
1050.505040541658
 20
565.0954637765933
 10
1050.505040541658
 20
555.0954637765934
 10
1046.505040541658
 20
555.0954637765934
 10
1046.505040541658
 20
550.5954637765934
  0
LWPOLYLINE
  5
115
330
2
100
AcDbEntity
  8
0
100
AcDbPolyline
 90
       12
 70
     1
 43
0.0
 10
814.5050405416588
 20
579.9161247504415
 10
814.5050405416588
 20
584.4161247504415
 10
810.5050405416587
 20
584.4161247504415
 10
810.5050405416587
 20
594.4161247504418
 10
814.5050405416588
 20
594.4161247504418
 10
814.5050405416588
 20
598.9161247504418
 10
1046.505040541658
 20
598.9161247504418
 10
1046.505040541658
 20
594.4161247504418
 10
1050.505040541658
 20
594.4161247504418
 10
1050.505040541658
 20
584.4161247504415
 10
1046.505040541658
 20
584.4161247504415
 10
1046.505040541658
 20
579.9161247504415
  0
LWPOLYLINE
  5
116
330
2
100
AcDbEntity
  8
0
100
AcDbPolyline
 90
       12
 70
     1
 43
0.0
 10
814.5050405416588
 20
606.2036049828648
 10
814.5050405416588
 20
610.7036049828648
 10
810.5050405416587
 20
610.7036049828648
 10
810.5050405416587
 20
620.7036049828648
 10
814.5050405416588
 20
620.7036049828648
 10
814.5050405416588
 20
625.2036049828648
 10
1046.505040541658
 20
625.2036049828648
 10
1046.505040541658
 20
620.7036049828648
 10
1050.505040541658
 20
620.7036049828648
 10
1050.505040541658
 20
610.7036049828648
 10
1046.505040541658
 20
610.7036049828648
 10
1046.505040541658
 20
606.2036049828648
  0
LWPOLYLINE
  5
117
330
2
100
AcDbEntity
  8
0
100
AcDbPolyline
 90
       12
 70
     1
 43
0.0
 10
814.5050405416588
 20
635.5242659567128
 10
814.5050405416588
 20
640.0242659567128
 10
810.5050405416587
 20
640.0242659567128
 10
810.5050405416587
 20
650.0242659567128
 10
814.5050405416588
 20
650.0242659567128
 10
814.5050405416588
 20
654.5242659567128
 10
1046.505040541658
 20
654.5242659567128
 10
1046.505040541658
 20
650.0242659567128
 10
1050.505040541658
 20
650.0242659567128
 10
1050.505040541658
 20
640.0242659567128
 10
1046.505040541658
 20
640.0242659567128
 10
1046.505040541658
 20
635.5242659567128
  0
LWPOLYLINE
  5
118
330
2
100
AcDbEntity
  8
0
100
AcDbPolyline
 90
       12
 70
     1
 43
0.0
 10
814.5050405416588
 20
660.8006925722447
 10
814.5050405416588
 20
665.3006925722447
 10
810.5050405416587
 20
665.3006925722447
 10
810.5050405416587
 20
675.3006925722448
 10
814.5050405416588
 20
675.3006925722448
 10
814.5050405416588
 20
679.8006925722448
 10
1046.505040541658
 20
679.8006925722448
 10
1046.505040541658
 20
675.3006925722448
 10
1050.505040541658
 20
675.3006925722448
 10
1050.505040541658
 20
665.3006925722447
 10
1046.505040541658
 20
665.3006925722447
 10
1046.505040541658
 20
660.8006925722447
  0
LWPOLYLINE
  5
119
330
2
100
AcDbEntity
  8
0
100
AcDbPolyline
 90
       12
 70
     1
 43
0.0
 10
814.5050405416588
 20
690.1213535460928
 10
814.5050405416588
 20
694.6213535460928
 10
810.5050405416587
 20
694.6213535460928
 10
810.5050405416587
 20
704.6213535460926
 10
814.5050405416588
 20
704.6213535460926
 10
814.5050405416588
 20
709.1213535460927
 10
1046.505040541658
 20
709.1213535460927
 10
1046.505040541658
 20
704.6213535460926
 10
1050.505040541658
 20
704.6213535460926
 10
1050.505040541658
 20
694.6213535460928
 10
1046.505040541658
 20
694.6213535460928
 10
1046.505040541658
 20
690.1213535460928
  0
LWPOLYLINE
  5
11A
330
2
100
AcDbEntity
  8
0
100
AcDbPolyline
 90
       12
 70
     1
 43
0.0
 10
814.5050405416588
 20
717.8140359311456
 10
814.5050405416588
 20
722.3140359311456
 10
810.5050405416587
 20
722.3140359311456
 10
810.5050405416587
 20
732.3140359311454
 10
814.5050405416588
 20
732.3140359311454
 10
814.5050405416588
 20
736.8140359311454
 10
1046.505040541658
 20
736.8140359311454
 10
1046.505040541658
 20
732.3140359311454
 10
1050.505040541658
 20
732.3140359311454
 10
1050.505040541658
 20
722.3140359311456
 10
1046.505040541658
 20
722.3140359311456
 10
1046.505040541658
 20
717.8140359311456
  0
LWPOLYLINE
  5
11B
330
2
100
AcDbEntity
  8
0
100
AcDbPolyline
 90
       12
 70
     1
 43
0.0
 10
814.5050405416588
 20
747.1346969049935
 10
814.5050405416588
 20
751.6346969049935
 10
810.5050405416587
 20
751.6346969049935
 10
810.5050405416587
 20
761.6346969049937
 10
814.5050405416588
 20
761.6346969049937
 10
814.5050405416588
 20
766.1346969049937
 10
1046.505040541658
 20
766.1346969049937
 10
1046.505040541658
 20
761.6346969049937
 10
1050.505040541658
 20
761.6346969049937
 10
1050.505040541658
 20
751.6346969049935
 10
1046.505040541658
 20
751.6346969049935
 10
1046.505040541658
 20
747.1346969049935
  0
LINE
  5
11C
330
2
100
AcDbEntity
  8
0
100
AcDbLine
 10
1005.505040541659
 20
798.980259711543
 30
0.0
 11
1046.505040541658
 21
798.980259711543
 31
0.0
  0
LINE
  5
11D
330
2
100
AcDbEntity
  8
0
100
AcDbLine
 10
1046.505040541658
 20
798.980259711543
 30
0.0
 11
1046.505040541658
 21
803.4802597115431
 31
0.0
  0
LINE
  5
11E
330
2
100
AcDbEntity
  8
0
100
AcDbLine
 10
1046.505040541658
 20
803.4802597115431
 30
0.0
 11
1050.505040541658
 21
803.4802597115431
 31
0.0
  0
LINE
  5
11F
330
2
100
AcDbEntity
  8
0
100
AcDbLine
 10
1050.505040541658
 20
803.4802597115431
 30
0.0
 11
1050.505040541658
 21
813.4802597115431
 31
0.0
  0
LINE
  5
120
330
2
100
AcDbEntity
  8
0
100
AcDbLine
 10
1050.505040541658
 20
813.4802597115431
 30
0.0
 11
1046.505040541658
 21
813.4802597115431
 31
0.0
  0
LINE
  5
121
330
2
100
AcDbEntity
  8
0
100
AcDbLine
 10
1046.505040541658
 20
813.4802597115431
 30
0.0
 11
1046.505040541658
 21
817.9802597115431
 31
0.0
  0
LINE
  5
122
330
2
100
AcDbEntity
  8
0
100
AcDbLine
 10
1046.505040541658
 20
817.9802597115431
 30
0.0
 11
814.5050405416588
 21
817.9802597115431
 31
0.0
  0
LINE
  5
123
330
2
100
AcDbEntity
  8
0
100
AcDbLine
 10
814.5050405416588
 20
817.9802597115431
 30
0.0
 11
814.5050405416588
 21
813.4802597115431
 31
0.0
  0
LINE
  5
124
330
2
100
AcDbEntity
  8
0
100
AcDbLine
 10
814.5050405416588
 20
813.4802597115431
 30
0.0
 11
810.5050405416587
 21
813.4802597115431
 31
0.0
  0
LINE
  5
125
330
2
100
AcDbEntity
  8
0
100
AcDbLine
 10
810.5050405416587
 20
813.4802597115431
 30
0.0
 11
810.5050405416587
 21
803.4802597115431
 31
0.0
  0
LINE
  5
126
330
2
100
AcDbEntity
  8
0
100
AcDbLine
 10
810.5050405416587
 20
803.4802597115431
 30
0.0
 11
814.5050405416588
 21
803.4802597115431
 31
0.0
  0
LINE
  5
127
330
2
100
AcDbEntity
  8
0
100
AcDbLine
 10
814.5050405416588
 20
803.4802597115431
 30
0.0
 11
814.5050405416588
 21
798.980259711543
 31
0.0
  0
LINE
  5
128
330
2
100
AcDbEntity
  8
0
100
AcDbLine
 10
814.5050405416588
 20
798.980259711543
 30
0.0
 11
855.5050405416588
 21
798.980259711543
 31
0.0
  0
ELLIPSE
  5
129
330
2
100
AcDbEntity
  8
0
100
AcDbEllipse
 10
930.5050405416588
 20
798.980259711543
 30
0.0
 11
75.0
 21
0.0
 31
0.0
210
0.0
220
0.0
230
1.0
 40
0.1733333333333333
 41
0.0
 42
3.141592653589793
  0
LINE
  5
12A
330
2
100
AcDbEntity
  8
0
100
AcDbLine
 10
1005.505040541659
 20
791.9281156280413
 30
0.0
 11
1046.505040541658
 21
791.9281156280413
 31
0.0
  0
ELLIPSE
  5
12B
330
2
100
AcDbEntity
  8
0
100
AcDbEllipse
 10
930.5050405416588
 20
791.9281156280413
 30
0.0
 11
75.0
 21
0.0
 31
0.0
210
0.0
220
0.0
230
1.0
 40
0.1733333333333333
 41
3.141592653589793
 42
6.283185307179586
  0
LINE
  5
12C
330
2
100
AcDbEntity
  8
0
100
AcDbLine
 10
814.5050405416588
 20
791.9281156280413
 30
0.0
 11
855.5050405416588
 21
791.9281156280413
 31
0.0
  0
LINE
  5
12D
330
2
100
AcDbEntity
  8
0
100
AcDbLine
 10
814.5050405416588
 20
787.4281156280412
 30
0.0
 11
814.5050405416588
 21
791.9281156280413
 31
0.0
  0
LINE
  5
12E
330
2
100
AcDbEntity
  8
0
100
AcDbLine
 10
810.5050405416587
 20
787.4281156280412
 30
0.0
 11
814.5050405416588
 21
787.4281156280412
 31
0.0
  0
LINE
  5
12F
330
2
100
AcDbEntity
  8
0
100
AcDbLine
 10
810.5050405416587
 20
777.4281156280412
 30
0.0
 11
810.5050405416587
 21
787.4281156280412
 31
0.0
  0
LINE
  5
130
330
2
100
AcDbEntity
  8
0
100
AcDbLine
 10
814.5050405416588
 20
777.4281156280412
 30
0.0
 11
810.5050405416587
 21
777.4281156280412
 31
0.0
  0
LINE
  5
131
330
2
100
AcDbEntity
  8
0
100
AcDbLine
 10
814.5050405416588
 20
772.9281156280412
 30
0.0
 11
814.5050405416588
 21
777.4281156280412
 31
0.0
  0
LINE
  5
132
330
2
100
AcDbEntity
  8
0
100
AcDbLine
 10
1046.505040541658
 20
772.9281156280412
 30
0.0
 11
814.5050405416588
 21
772.9281156280412
 31
0.0
  0
LINE
  5
133
330
2
100
AcDbEntity
  8
0
100
AcDbLine
 10
1046.505040541658
 20
777.4281156280412
 30
0.0
 11
1046.505040541658
 21
772.9281156280412
 31
0.0
  0
LINE
  5
134
330
2
100
AcDbEntity
  8
0
100
AcDbLine
 10
1050.505040541658
 20
777.4281156280412
 30
0.0
 11
1046.505040541658
 21
777.4281156280412
 31
0.0
  0
LINE
  5
135
330
2
100
AcDbEntity
  8
0
100
AcDbLine
 10
1050.505040541658
 20
787.4281156280412
 30
0.0
 11
1050.505040541658
 21
777.4281156280412
 31
0.0
  0
LINE
  5
136
330
2
100
AcDbEntity
  8
0
100
AcDbLine
 10
1046.505040541658
 20
787.4281156280412
 30
0.0
 11
1050.505040541658
 21
787.4281156280412
 31
0.0
  0
LINE
  5
137
330
2
100
AcDbEntity
  8
0
100
AcDbLine
 10
1046.505040541658
 20
791.9281156280413
 30
0.0
 11
1046.505040541658
 21
787.4281156280412
 31
0.0
  0
LINE
  5
138
330
2
100
AcDbEntity
  8
0
100
AcDbLine
 10
722.4789857561614
 20
766.5382606965684
 30
0.0
 11
702.4789857561613
 21
766.5382606965684
 31
0.0
  0
LINE
  5
139
330
2
100
AcDbEntity
  8
0
100
AcDbLine
 10
652.4789857561613
 20
766.5382606965687
 30
0.0
 11
632.4789857561612
 21
766.5382606965687
 31
0.0
  0
LINE
  5
13A
330
2
100
AcDbEntity
  8
0
100
AcDbLine
 10
582.4789857561612
 20
766.5382606965687
 30
0.0
 11
562.4789857561615
 21
766.5382606965684
 31
0.0
  0
LINE
  5
13B
330
2
100
AcDbEntity
  8
0
100
AcDbLine
 10
652.4789857561613
 20
770.5382606965684
 30
0.0
 11
652.4789857561613
 21
766.5382606965684
 31
0.0
  0
LINE
  5
13C
330
2
100
AcDbEntity
  8
0
100
AcDbLine
 10
702.4789857561613
 20
770.5382606965684
 30
0.0
 11
702.4789857561613
 21
766.5382606965684
 31
0.0
  0
LINE
  5
13D
330
2
100
AcDbEntity
  8
0
100
AcDbLine
 10
722.4789857561614
 20
770.5382606965684
 30
0.0
 11
722.4789857561614
 21
766.5382606965684
 31
0.0
  0
LINE
  5
13E
330
2
100
AcDbEntity
  8
0
100
AcDbLine
 10
632.4789857561613
 20
770.5382606965684
 30
0.0
 11
632.4789857561613
 21
766.5382606965684
 31
0.0
  0
LINE
  5
13F
330
2
100
AcDbEntity
  8
0
100
AcDbLine
 10
582.4789857561613
 20
770.5382606965684
 30
0.0
 11
582.4789857561613
 21
766.5382606965684
 31
0.0
  0
LINE
  5
140
330
2
100
AcDbEntity
  8
0
100
AcDbLine
 10
562.4789857561615
 20
770.5382606965684
 30
0.0
 11
562.4789857561615
 21
766.5382606965684
 31
0.0
  0
LINE
  5
141
330
2
100
AcDbEntity
  8
0
100
AcDbLine
 10
526.4789857561614
 20
770.5382606965684
 30
0.0
 11
562.4789857561615
 21
770.5382606965684
 31
0.0
  0
LINE
  5
142
330
2
100
AcDbEntity
  8
0
100
AcDbLine
 10
582.4789857561613
 20
770.5382606965684
 30
0.0
 11
632.4789857561613
 21
770.5382606965684
 31
0.0
  0
LINE
  5
143
330
2
100
AcDbEntity
  8
0
100
AcDbLine
 10
652.4789857561613
 20
770.5382606965684
 30
0.0
 11
702.4789857561613
 21
770.5382606965684
 31
0.0
  0
LINE
  5
144
330
2
100
AcDbEntity
  8
0
100
AcDbLine
 10
722.4789857561614
 20
770.5382606965684
 30
0.0
 11
758.4789857561611
 21
770.5382606965684
 31
0.0
  0
LWPOLYLINE
  5
145
330
2
100
AcDbEntity
  8
0
100
AcDbPolyline
 90
        6
 70
     0
 43
0.0
 10
526.4789857561614
 20
795.5382606965684
 10
526.4789857561614
 20
785.5382606965686
 10
522.4789857561614
 20
785.5382606965686
 10
522.4789857561614
 20
775.5382606965686
 10
526.4789857561614
 20
775.5382606965686
 10
526.4789857561614
 20
770.5382606965684
  0
LINE
  5
146
330
2
100
AcDbEntity
  8
0
100
AcDbLine
 10
526.4789857561614
 20
795.5382606965684
 30
0.0
 11
526.4789857561614
 21
798.766736040114
 31
0.0
  0
LINE
  5
147
330
2
100
AcDbEntity
  8
0
100
AcDbLine
 10
526.4789857561614
 20
798.766736040114
 30
0.0
 11
520.4789857561613
 21
798.766736040114
 31
0.0
  0
LINE
  5
148
330
2
100
AcDbEntity
  8
0
100
AcDbLine
 10
520.4789857561613
 20
798.766736040114
 30
0.0
 11
520.4789857561613
 21
802.7667360401139
 31
0.0
  0
LWPOLYLINE
  5
149
330
2
100
AcDbEntity
  8
0
100
AcDbPolyline
 90
        6
 70
     0
 43
0.0
 10
758.4789857561615
 20
795.5382606965684
 10
758.4789857561615
 20
785.5382606965686
 10
762.4789857561615
 20
785.5382606965686
 10
762.4789857561615
 20
775.5382606965686
 10
758.4789857561615
 20
775.5382606965686
 10
758.4789857561615
 20
770.5382606965684
  0
LINE
  5
14A
330
2
100
AcDbEntity
  8
0
100
AcDbLine
 10
758.4789857561615
 20
795.5382606965684
 30
0.0
 11
758.4789857561615
 21
798.766736040114
 31
0.0
  0
LINE
  5
14B
330
2
100
AcDbEntity
  8
0
100
AcDbLine
 10
758.4789857561615
 20
798.766736040114
 30
0.0
 11
764.4789857561613
 21
798.766736040114
 31
0.0
  0
LINE
  5
14C
330
2
100
AcDbEntity
  8
0
100
AcDbLine
 10
764.4789857561613
 20
798.766736040114
 30
0.0
 11
764.4789857561613
 21
802.7667360401139
 31
0.0
  0
LINE
  5
14D
330
2
100
AcDbEntity
  8
0
100
AcDbLine
 10
764.4789857561613
 20
802.7667360401139
 30
0.0
 11
520.4789857561613
 21
802.7667360401139
 31
0.0
  0
LINE
  5
14E
330
2
100
AcDbEntity
  8
0
100
AcDbLine
 10
727.5422053430396
 20
702.9112360804511
 30
0.0
 11
707.5422053430399
 21
702.9112360804511
 31
0.0
  0
LINE
  5
14F
330
2
100
AcDbEntity
  8
0
100
AcDbLine
 10
657.5422053430399
 20
702.9112360804512
 30
0.0
 11
637.5422053430396
 21
702.9112360804512
 31
0.0
  0
LINE
  5
150
330
2
100
AcDbEntity
  8
0
100
AcDbLine
 10
587.5422053430396
 20
702.9112360804512
 30
0.0
 11
567.5422053430398
 21
702.9112360804511
 31
0.0
  0
LINE
  5
151
330
2
100
AcDbEntity
  8
0
100
AcDbLine
 10
657.5422053430399
 20
706.9112360804511
 30
0.0
 11
657.5422053430399
 21
702.9112360804511
 31
0.0
  0
LINE
  5
152
330
2
100
AcDbEntity
  8
0
100
AcDbLine
 10
707.5422053430399
 20
706.9112360804511
 30
0.0
 11
707.5422053430399
 21
702.9112360804511
 31
0.0
  0
LINE
  5
153
330
2
100
AcDbEntity
  8
0
100
AcDbLine
 10
727.5422053430396
 20
706.9112360804511
 30
0.0
 11
727.5422053430396
 21
702.9112360804511
 31
0.0
  0
LINE
  5
154
330
2
100
AcDbEntity
  8
0
100
AcDbLine
 10
637.5422053430399
 20
706.9112360804511
 30
0.0
 11
637.5422053430399
 21
702.9112360804511
 31
0.0
  0
LINE
  5
155
330
2
100
AcDbEntity
  8
0
100
AcDbLine
 10
587.5422053430399
 20
706.9112360804511
 30
0.0
 11
587.5422053430399
 21
702.9112360804511
 31
0.0
  0
LINE
  5
156
330
2
100
AcDbEntity
  8
0
100
AcDbLine
 10
567.5422053430398
 20
706.9112360804511
 30
0.0
 11
567.5422053430398
 21
702.9112360804511
 31
0.0
  0
LINE
  5
157
330
2
100
AcDbEntity
  8
0
100
AcDbLine
 10
531.5422053430397
 20
706.9112360804511
 30
0.0
 11
567.5422053430398
 21
706.9112360804511
 31
0.0
  0
LINE
  5
158
330
2
100
AcDbEntity
  8
0
100
AcDbLine
 10
587.5422053430399
 20
706.9112360804511
 30
0.0
 11
637.5422053430399
 21
706.9112360804511
 31
0.0
  0
LINE
  5
159
330
2
100
AcDbEntity
  8
0
100
AcDbLine
 10
657.5422053430399
 20
706.9112360804511
 30
0.0
 11
707.5422053430399
 21
706.9112360804511
 31
0.0
  0
LINE
  5
15A
330
2
100
AcDbEntity
  8
0
100
AcDbLine
 10
727.5422053430396
 20
706.9112360804511
 30
0.0
 11
763.5422053430395
 21
706.9112360804511
 31
0.0
  0
LWPOLYLINE
  5
15B
330
2
100
AcDbEntity
  8
0
100
AcDbPolyline
 90
        6
 70
     0
 43
0.0
 10
531.5422053430397
 20
731.9112360804511
 10
531.5422053430397
 20
721.911236080451
 10
527.5422053430397
 20
721.911236080451
 10
527.5422053430397
 20
711.9112360804511
 10
531.5422053430397
 20
711.9112360804511
 10
531.5422053430397
 20
706.9112360804511
  0
LINE
  5
15C
330
2
100
AcDbEntity
  8
0
100
AcDbLine
 10
531.5422053430397
 20
731.9112360804511
 30
0.0
 11
531.5422053430397
 21
735.1397114239964
 31
0.0
  0
LWPOLYLINE
  5
15D
330
2
100
AcDbEntity
  8
0
100
AcDbPolyline
 90
        6
 70
     0
 43
0.0
 10
763.5422053430396
 20
731.9112360804511
 10
763.5422053430396
 20
721.911236080451
 10
767.5422053430396
 20
721.911236080451
 10
767.5422053430396
 20
711.9112360804511
 10
763.5422053430396
 20
711.9112360804511
 10
763.5422053430396
 20
706.9112360804511
  0
LINE
  5
15E
330
2
100
AcDbEntity
  8
0
100
AcDbLine
 10
763.5422053430396
 20
731.9112360804511
 30
0.0
 11
763.5422053430396
 21
735.1397114239964
 31
0.0
  0
LINE
  5
15F
330
2
100
AcDbEntity
  8
0
100
AcDbLine
 10
531.5422053430397
 20
735.1397114239964
 30
0.0
 11
763.5422053430396
 21
735.1397114239964
 31
0.0
  0
LINE
  5
160
330
2
100
AcDbEntity
  8
0
100
AcDbLine
 10
523.8022535556198
 20
524.4648601947228
 30
0.0
 11
773.8022535556198
 21
524.4648601947228
 31
0.0
  0
LINE
  5
161
330
2
100
AcDbEntity
  8
0
100
AcDbLine
 10
773.8022535556198
 20
524.4648601947228
 30
0.0
 11
773.8022535556198
 21
664.4648601947229
 31
0.0
  0
LINE
  5
162
330
2
100
AcDbEntity
  8
0
100
AcDbLine
 10
773.8022535556198
 20
664.4648601947229
 30
0.0
 11
523.8022535556198
 21
664.4648601947229
 31
0.0
  0
LINE
  5
163
330
2
100
AcDbEntity
  8
0
100
AcDbLine
 10
728.8022535556198
 20
659.4648601947227
 30
0.0
 11
708.8022535556198
 21
659.4648601947227
 31
0.0
  0
LINE
  5
164
330
2
100
AcDbEntity
  8
0
100
AcDbLine
 10
658.8022535556197
 20
659.464860194723
 30
0.0
 11
638.8022535556197
 21
659.464860194723
 31
0.0
  0
LINE
  5
165
330
2
100
AcDbEntity
  8
0
100
AcDbLine
 10
588.8022535556197
 20
659.464860194723
 30
0.0
 11
568.8022535556196
 21
659.4648601947227
 31
0.0
  0
LINE
  5
166
330
2
100
AcDbEntity
  8
0
100
AcDbLine
 10
728.8022535556198
 20
655.4648601947227
 30
0.0
 11
708.8022535556198
 21
655.4648601947227
 31
0.0
  0
LINE
  5
167
330
2
100
AcDbEntity
  8
0
100
AcDbLine
 10
658.8022535556197
 20
655.464860194723
 30
0.0
 11
638.8022535556197
 21
655.464860194723
 31
0.0
  0
LINE
  5
168
330
2
100
AcDbEntity
  8
0
100
AcDbLine
 10
588.8022535556197
 20
655.464860194723
 30
0.0
 11
568.8022535556196
 21
655.4648601947227
 31
0.0
  0
LINE
  5
169
330
2
100
AcDbEntity
  8
0
100
AcDbLine
 10
523.8022535556198
 20
664.4648601947229
 30
0.0
 11
523.8022535556198
 21
524.4648601947228
 31
0.0
  0
LINE
  5
16A
330
2
100
AcDbEntity
  8
0
100
AcDbLine
 10
528.8022535556198
 20
629.4648601947227
 30
0.0
 11
528.8022535556198
 21
609.4648601947227
 31
0.0
  0
LINE
  5
16B
330
2
100
AcDbEntity
  8
0
100
AcDbLine
 10
528.8022535556198
 20
579.4648601947227
 30
0.0
 11
528.8022535556198
 21
559.4648601947228
 31
0.0
  0
LINE
  5
16C
330
2
100
AcDbEntity
  8
0
100
AcDbLine
 10
532.8022535556198
 20
629.4648601947227
 30
0.0
 11
532.8022535556198
 21
609.4648601947227
 31
0.0
  0
LINE
  5
16D
330
2
100
AcDbEntity
  8
0
100
AcDbLine
 10
532.8022535556198
 20
579.4648601947227
 30
0.0
 11
532.8022535556198
 21
559.4648601947228
 31
0.0
  0
LINE
  5
16E
330
2
100
AcDbEntity
  8
0
100
AcDbLine
 10
528.8022535556198
 20
579.4648601947227
 30
0.0
 11
532.8022535556198
 21
579.4648601947227
 31
0.0
  0
LINE
  5
16F
330
2
100
AcDbEntity
  8
0
100
AcDbLine
 10
528.8022535556198
 20
559.4648601947228
 30
0.0
 11
532.8022535556198
 21
559.4648601947228
 31
0.0
  0
LINE
  5
170
330
2
100
AcDbEntity
  8
0
100
AcDbLine
 10
528.8022535556198
 20
609.4648601947227
 30
0.0
 11
532.8022535556198
 21
609.4648601947227
 31
0.0
  0
LINE
  5
171
330
2
100
AcDbEntity
  8
0
100
AcDbLine
 10
528.8022535556198
 20
629.4648601947227
 30
0.0
 11
532.8022535556198
 21
629.4648601947227
 31
0.0
  0
LINE
  5
172
330
2
100
AcDbEntity
  8
0
100
AcDbLine
 10
658.8022535556197
 20
659.4648601947227
 30
0.0
 11
658.8022535556197
 21
655.4648601947227
 31
0.0
  0
LINE
  5
173
330
2
100
AcDbEntity
  8
0
100
AcDbLine
 10
708.8022535556198
 20
659.4648601947227
 30
0.0
 11
708.8022535556198
 21
655.4648601947227
 31
0.0
  0
LINE
  5
174
330
2
100
AcDbEntity
  8
0
100
AcDbLine
 10
728.8022535556198
 20
659.4648601947227
 30
0.0
 11
728.8022535556198
 21
655.4648601947227
 31
0.0
  0
LINE
  5
175
330
2
100
AcDbEntity
  8
0
100
AcDbLine
 10
638.8022535556197
 20
659.4648601947227
 30
0.0
 11
638.8022535556197
 21
655.4648601947227
 31
0.0
  0
LINE
  5
176
330
2
100
AcDbEntity
  8
0
100
AcDbLine
 10
588.8022535556197
 20
659.4648601947227
 30
0.0
 11
588.8022535556197
 21
655.4648601947227
 31
0.0
  0
LINE
  5
177
330
2
100
AcDbEntity
  8
0
100
AcDbLine
 10
568.8022535556196
 20
659.4648601947227
 30
0.0
 11
568.8022535556196
 21
655.4648601947227
 31
0.0
  0
LINE
  5
178
330
2
100
AcDbEntity
  8
0
100
AcDbLine
 10
728.8022535556198
 20
529.4648601947228
 30
0.0
 11
708.8022535556198
 21
529.4648601947228
 31
0.0
  0
LINE
  5
179
330
2
100
AcDbEntity
  8
0
100
AcDbLine
 10
658.8022535556197
 20
529.4648601947226
 30
0.0
 11
638.8022535556197
 21
529.4648601947226
 31
0.0
  0
LINE
  5
17A
330
2
100
AcDbEntity
  8
0
100
AcDbLine
 10
588.8022535556197
 20
529.4648601947226
 30
0.0
 11
568.8022535556196
 21
529.4648601947228
 31
0.0
  0
LINE
  5
17B
330
2
100
AcDbEntity
  8
0
100
AcDbLine
 10
728.8022535556198
 20
533.4648601947228
 30
0.0
 11
708.8022535556198
 21
533.4648601947228
 31
0.0
  0
LINE
  5
17C
330
2
100
AcDbEntity
  8
0
100
AcDbLine
 10
658.8022535556197
 20
533.4648601947226
 30
0.0
 11
638.8022535556197
 21
533.4648601947226
 31
0.0
  0
LINE
  5
17D
330
2
100
AcDbEntity
  8
0
100
AcDbLine
 10
588.8022535556197
 20
533.4648601947226
 30
0.0
 11
568.8022535556196
 21
533.4648601947228
 31
0.0
  0
LINE
  5
17E
330
2
100
AcDbEntity
  8
0
100
AcDbLine
 10
658.8022535556197
 20
529.4648601947228
 30
0.0
 11
658.8022535556197
 21
533.4648601947228
 31
0.0
  0
LINE
  5
17F
330
2
100
AcDbEntity
  8
0
100
AcDbLine
 10
708.8022535556198
 20
529.4648601947228
 30
0.0
 11
708.8022535556198
 21
533.4648601947228
 31
0.0
  0
LINE
  5
180
330
2
100
AcDbEntity
  8
0
100
AcDbLine
 10
728.8022535556198
 20
529.4648601947228
 30
0.0
 11
728.8022535556198
 21
533.4648601947228
 31
0.0
  0
LINE
  5
181
330
2
100
AcDbEntity
  8
0
100
AcDbLine
 10
638.8022535556197
 20
529.4648601947228
 30
0.0
 11
638.8022535556197
 21
533.4648601947228
 31
0.0
  0
LINE
  5
182
330
2
100
AcDbEntity
  8
0
100
AcDbLine
 10
588.8022535556197
 20
529.4648601947228
 30
0.0
 11
588.8022535556197
 21
533.4648601947228
 31
0.0
  0
LINE
  5
183
330
2
100
AcDbEntity
  8
0
100
AcDbLine
 10
568.8022535556196
 20
529.4648601947228
 30
0.0
 11
568.8022535556196
 21
533.4648601947228
 31
0.0
  0
LINE
  5
184
330
2
100
AcDbEntity
  8
0
100
AcDbLine
 10
768.8022535556198
 20
629.4648601947227
 30
0.0
 11
768.8022535556198
 21
609.4648601947227
 31
0.0
  0
LINE
  5
185
330
2
100
AcDbEntity
  8
0
100
AcDbLine
 10
768.8022535556198
 20
579.4648601947227
 30
0.0
 11
768.8022535556198
 21
559.4648601947228
 31
0.0
  0
LINE
  5
186
330
2
100
AcDbEntity
  8
0
100
AcDbLine
 10
764.8022535556198
 20
629.4648601947227
 30
0.0
 11
764.8022535556198
 21
609.4648601947227
 31
0.0
  0
LINE
  5
187
330
2
100
AcDbEntity
  8
0
100
AcDbLine
 10
764.8022535556198
 20
579.4648601947227
 30
0.0
 11
764.8022535556198
 21
559.4648601947228
 31
0.0
  0
LINE
  5
188
330
2
100
AcDbEntity
  8
0
100
AcDbLine
 10
768.8022535556198
 20
579.4648601947227
 30
0.0
 11
764.8022535556198
 21
579.4648601947227
 31
0.0
  0
LINE
  5
189
330
2
100
AcDbEntity
  8
0
100
AcDbLine
 10
768.8022535556198
 20
559.4648601947228
 30
0.0
 11
764.8022535556198
 21
559.4648601947228
 31
0.0
  0
LINE
  5
18A
330
2
100
AcDbEntity
  8
0
100
AcDbLine
 10
768.8022535556198
 20
609.4648601947227
 30
0.0
 11
764.8022535556198
 21
609.4648601947227
 31
0.0
  0
LINE
  5
18B
330
2
100
AcDbEntity
  8
0
100
AcDbLine
 10
768.8022535556198
 20
629.4648601947227
 30
0.0
 11
764.8022535556198
 21
629.4648601947227
 31
0.0
  0
LWPOLYLINE
  5
18C
330
2
100
AcDbEntity
  8
0
100
AcDbPolyline
 90
        2
 70
     1
 43
0.0
 10
1234.473134271138
 20
658.8773578456213
 42
-1.0
 10
1230.473134271138
 20
658.8773578456213
 42
-1.0
  0
LWPOLYLINE
  5
18D
330
2
100
AcDbEntity
  8
0
100
AcDbPolyline
 90
        4
 70
     1
 43
0.0
 10
1228.148472938695
 20
674.1674724314565
 10
1232.099226301076
 20
673.5417345712956
 10
1230.534881650673
 20
663.6648511653442
 10
1226.584128288293
 20
664.2905890255051
  0
LWPOLYLINE
  5
18E
330
2
100
AcDbEntity
  8
0
100
AcDbPolyline
 90
        4
 70
     1
 43
0.0
 10
1226.584128288293
 20
693.1375869317676
 10
1230.534881650673
 20
693.7633247919285
 10
1232.099226301076
 20
683.8864413859771
 10
1228.148472938695
 20
683.2607035258163
  0
LWPOLYLINE
  5
18F
330
2
100
AcDbEntity
  8
0
100
AcDbPolyline
 90
        4
 70
     1
 43
0.0
 10
1219.234260348961
 20
710.6958288601195
 10
1222.798286445715
 20
712.5117908590778
 10
1227.33819144311
 20
703.6017256171939
 10
1223.774165346356
 20
701.7857636182359
  0
LWPOLYLINE
  5
190
330
2
100
AcDbEntity
  8
0
100
AcDbPolyline
 90
        4
 70
     1
 43
0.0
 10
1206.818325404144
 20
725.1234751611009
 10
1209.64675252889
 20
727.9519022858472
 10
1216.717820340756
 20
720.8808344739816
 10
1213.889393216009
 20
718.0524073492354
  0
LWPOLYLINE
  5
191
330
2
100
AcDbEntity
  8
0
100
AcDbPolyline
 90
        4
 70
     1
 43
0.0
 10
1190.551681673144
 20
735.0082472914484
 10
1192.367643672103
 20
738.5722733882017
 10
1201.277708913987
 20
734.0323683908062
 10
1199.461746915028
 20
730.4683422940527
  0
LWPOLYLINE
  5
192
330
2
100
AcDbEntity
  8
0
100
AcDbPolyline
 90
        4
 70
     1
 43
0.0
 10
1106.811539128394
 20
674.1674724314565
 10
1108.375883778797
 20
664.2905890255051
 10
1104.425130416416
 20
663.6648511653442
 10
1102.860785766014
 20
673.5417345712956
  0
LWPOLYLINE
  5
193
330
2
100
AcDbEntity
  8
0
100
AcDbPolyline
 90
        4
 70
     1
 43
0.0
 10
1172.026621580724
 20
739.3825548837865
 10
1172.652359440885
 20
743.333308246167
 10
1182.529242846837
 20
741.7689635957647
 10
1181.903504986676
 20
737.8182102333842
  0
LWPOLYLINE
  5
194
330
2
100
AcDbEntity
  8
0
100
AcDbPolyline
 90
        4
 70
     1
 43
0.0
 10
1108.375883778797
 20
693.1375869317676
 10
1106.811539128394
 20
683.2607035258163
 10
1102.860785766014
 20
683.8864413859771
 10
1104.425130416416
 20
693.7633247919285
  0
LWPOLYLINE
  5
195
330
2
100
AcDbEntity
  8
0
100
AcDbPolyline
 90
        4
 70
     1
 43
0.0
 10
1153.056507080413
 20
737.8182102333842
 10
1152.430769220253
 20
741.7689635957647
 10
1162.307652626204
 20
743.333308246167
 10
1162.933390486365
 20
739.3825548837865
  0
LWPOLYLINE
  5
196
330
2
100
AcDbEntity
  8
0
100
AcDbPolyline
 90
        4
 70
     1
 43
0.0
 10
1115.725751718128
 20
710.6958288601198
 10
1111.185846720733
 20
701.7857636182363
 10
1107.621820623979
 20
703.6017256171942
 10
1112.161725621375
 20
712.511790859078
  0
LWPOLYLINE
  5
197
330
2
100
AcDbEntity
  8
0
100
AcDbPolyline
 90
        4
 70
     1
 43
0.0
 10
1135.498265152062
 20
730.4683422940528
 10
1133.682303153103
 20
734.0323683908065
 10
1142.592368394987
 20
738.5722733882019
 10
1144.408330393945
 20
735.0082472914484
  0
LWPOLYLINE
  5
198
330
2
100
AcDbEntity
  8
0
100
AcDbPolyline
 90
        4
 70
     1
 43
0.0
 10
1121.07061885108
 20
718.0524073492354
 10
1118.242191726334
 20
720.8808344739816
 10
1125.313259538199
 20
727.9519022858472
 10
1128.141686662945
 20
725.1234751611009
  0
LWPOLYLINE
  5
199
330
2
100
AcDbEntity
  8
0
100
AcDbPolyline
 90
       77
 70
     1
 43
0.0
 10
1233.779850991639
 20
699.8870425207938
 42
0.0069035538952789
 10
1233.167476614854
 20
701.7096822370502
 42
1.018194344150932
 10
1231.333179319346
 20
706.3833955233119
 42
0.0069035538952785
 10
1230.542371656733
 20
708.1360053353833
 42
1.018194344151154
 10
1228.251837829013
 20
712.6038568587176
 42
0.0069035538952786
 10
1227.290456282407
 20
714.2690185428981
 42
1.018194344156045
 10
1224.566450276723
 20
718.4866047875978
 42
0.0069035538952809
 10
1223.444049487853
 20
720.0477692189647
 42
1.018194344156204
 10
1220.3136436997
 20
723.9731739180983
 42
0.0069035538952805
 10
1219.041378591868
 20
725.4148255431491
 42
1.018194344164331
 10
1215.535684400364
 20
729.0090362612531
 42
0.0069035538952841
 10
1214.126199315799
 20
730.3168472984489
 42
1.018194344150654
 10
1210.280057884818
 20
733.5441431546398
 42
0.006903553895278
 10
1208.747360919531
 20
734.7051159903319
 42
1.018194344165048
 10
1204.598996930571
 20
737.5334226684648
 42
0.0069035538952841
 10
1202.958320715593
 20
738.536019033025
 42
1.018194344145531
 10
1198.548962473704
 20
740.9372275506631
 42
0.006903553895277
 10
1196.816612786369
 20
741.771483190983
 42
1.018194344146824
 10
1192.190082474749
 20
743.7217292590879
 42
0.006903553895277
 10
1190.383276184539
 20
744.3793529678092
 42
1.018194344155938
 10
1185.585554339985
 20
745.8592541647708
 42
0.0069035538952807
 10
1183.722248299553
 20
746.3337101820268
 42
1.018194344146562
 10
1178.801016837221
 20
747.3285585848756
 42
0.0069035538952772
 10
1176.899729419126
 20
747.6151315536077
 42
1.018194344146255
 10
1171.903897748248
 20
748.1150399119615
 42
0.0069035538952768
 10
1169.98352480104
 20
748.2108817412583
 42
1.018194344154637
 10
1164.962743741236
 20
748.2108817412583
 42
0.0069035538952803
 10
1163.042370794026
 20
748.1150399119614
 42
1.018194344160729
 10
1158.04653912315
 20
747.6151315536077
 42
0.0069035538952817
 10
1156.145251705053
 20
747.3285585848755
 42
1.018194344156304
 10
1151.224020242723
 20
746.3337101820266
 42
0.0069035538952801
 10
1149.360714202291
 20
745.8592541647708
 42
1.018194344156257
 10
1144.562992357736
 20
744.3793529678092
 42
0.0069035538952809
 10
1142.756186067525
 20
743.7217292590876
 42
1.018194344160979
 10
1138.129655755907
 20
741.771483190983
 42
0.006903553895282
 10
1136.397306068571
 20
740.9372275506626
 42
1.018194344154458
 10
1131.987947826682
 20
738.536019033025
 42
0.0069035538952796
 10
1130.347271611706
 20
737.5334226684652
 42
1.018194344151664
 10
1126.198907622744
 20
734.7051159903315
 42
0.0069035538952798
 10
1124.666210657457
 20
733.5441431546392
 42
1.018194344156726
 10
1120.820069226477
 20
730.3168472984484
 42
0.0069035538952802
 10
1119.410584141911
 20
729.0090362612535
 42
1.018194344159939
 10
1115.904889950408
 20
725.4148255431494
 42
0.0069035538952827
 10
1114.632624842576
 20
723.9731739180983
 42
1.018194344155807
 10
1111.502219054422
 20
720.0477692189645
 42
0.0069035538952802
 10
1110.379818265553
 20
718.4866047875978
 42
1.018194344156033
 10
1107.655812259869
 20
714.2690185428981
 42
0.0069035538952805
 10
1106.694430713262
 20
712.6038568587172
 42
1.018194344155763
 10
1104.403896885543
 20
708.1360053353831
 42
0.0069035538952799
 10
1103.61308922293
 20
706.3833955233112
 42
1.018194344151091
 10
1101.778791927421
 20
701.7096822370497
 42
0.0069035538952792
 10
1101.166417550636
 20
699.8870425207933
 42
1.018194344155396
 10
1099.806586857956
 20
695.0539169339987
 42
0.0069035538952802
 10
1099.378731818678
 20
693.1793615259131
 42
1.018194344161095
 10
1098.506882337178
 20
688.234857412042
 42
0.0069035538952816
 10
1098.267798851009
 20
686.3270164859526
 42
1.018194344160701
 10
1097.892595412532
 20
681.3202745483014
 42
0.0069035538952825
 10
1097.84465959857
 20
679.3981090844661
 42
1.018194344151047
 10
1097.969831143457
 20
674.3788885737854
 42
0.006903553895279
 10
1098.113519409356
 20
672.4615019161546
 42
1.018194344161009
 10
1098.737821926557
 20
667.4796861008623
 42
0.0069035538952818
 10
1099.071706233778
 20
665.5861340994606
 42
1.018194344160813
 10
1100.188935124396
 20
660.6912345033046
 42
0.0069035538952815
 10
1100.70969718069
 20
658.8403361286374
 42
1.018194344155981
 10
1102.308748922074
 20
654.0810004629313
 42
0.0016598886443184
 10
1102.473134271138
 20
653.6488825020756
 42
-0.3570607411326205
 10
1227.244658927593
 20
658.8773578456213
 42
1.66764073479309
 10
1235.381405709345
 20
663.2223448029975
 42
0.0155744913115589
 10
1236.208446615719
 20
667.4796861008617
 42
1.018194344151026
 10
1236.832749132919
 20
672.461501916155
 42
0.0069035538952794
 10
1236.976437398819
 20
674.3788885737858
 42
1.018194344160599
 10
1237.101608943706
 20
679.3981090844659
 42
0.0069035538952816
 10
1237.053673129743
 20
681.3202745483009
 42
1.01819434415583
 10
1236.678469691267
 20
686.3270164859525
 42
0.0069035538952803
 10
1236.439386205098
 20
688.2348574120416
 42
1.018194344160864
 10
1235.567536723598
 20
693.1793615259127
 42
0.0069035538952823
 10
1235.13968168432
 20
695.053916933999
 42
1.018194344150594
  0
LWPOLYLINE
  5
19A
330
2
100
AcDbEntity
  8
0
100
AcDbPolyline
 90
       12
 70
     0
 43
0.0
 10
1131.418648781832
 20
608.963997848954
 10
1151.418648781832
 20
608.963997848954
 10
1151.418648781832
 20
612.963997848954
 10
1181.418648781832
 20
612.963997848954
 10
1181.418648781832
 20
608.963997848954
 10
1201.418648781832
 20
608.963997848954
 10
1201.418648781832
 20
612.963997848954
 10
1231.418648781832
 20
612.963997848954
 10
1231.418648781832
 20
617.9639978489539
 10
1227.418648781832
 20
617.9639978489539
 10
1227.418648781832
 20
627.963997848954
 10
1231.418648781832
 20
627.963997848954
  0
LWPOLYLINE
  5
19B
330
2
100
AcDbEntity
  8
0
100
AcDbPolyline
 90
       11
 70
     0
 43
0.0
 10
1231.418648781832
 20
627.963997848954
 10
1231.418648781832
 20
637.963997848954
 42
-0.4142135623730951
 10
1226.190173438277
 20
643.1924731925072
 42
0.3570607411326192
 10
1101.418648781832
 20
637.963997848954
 10
1101.418648781832
 20
627.963997848954
 10
1105.418648781832
 20
627.963997848954
 10
1105.418648781832
 20
617.9639978489539
 10
1101.418648781832
 20
617.9639978489539
 10
1101.418648781832
 20
612.963997848954
 10
1131.418648781832
 20
612.963997848954
 10
1131.418648781832
 20
608.963997848954
  0
ENDSEC
  0
SECTION
  2
OBJECTS
  0
DICTIONARY
  5
A
330
0
100
AcDbDictionary
281
     1
  3
ACAD_COLOR
350
40
  3
ACAD_GROUP
350
35
  3
ACAD_LAYOUT
350
18
  3
ACAD_MATERIAL
350
C
  3
ACAD_MLEADERSTYLE
350
43
  3
ACAD_MLINESTYLE
350
36
  3
ACAD_PLOTSETTINGS
350
37
  3
ACAD_PLOTSTYLENAME
350
9
  3
ACAD_SCALELIST
350
41
  3
ACAD_TABLESTYLE
350
42
  3
ACAD_VISUALSTYLE
350
2B
  3
ACDB_RECOMPOSE_DATA
350
1AD
  3
AcDbVariableDictionary
350
19D
  0
DICTIONARY
  5
1E
330
1D
100
AcDbDictionary
280
     1
281
     1
  3
ACAD_LAYERSTATES
360
1F
  0
DICTIONARY
  5
7
330
6
100
AcDbDictionary
280
     1
281
     1
  0
DICTIONARY
  5
3
330
2
100
AcDbDictionary
280
     1
281
     1
  3
ACAD_SORTENTS
360
19C
  0
DICTIONARY
  5
40
102
{ACAD_REACTORS
330
A
102
}
330
A
100
AcDbDictionary
281
     1
  0
DICTIONARY
  5
35
102
{ACAD_REACTORS
330
A
102
}
330
A
100
AcDbDictionary
281
     1
  0
DICTIONARY
  5
18
102
{ACAD_REACTORS
330
A
102
}
330
A
100
AcDbDictionary
281
     1
  3
Layout1
350
1C
  3
Model
350
17
  0
DICTIONARY
  5
C
102
{ACAD_REACTORS
330
A
102
}
330
A
100
AcDbDictionary
281
     1
  3
ByBlock
350
3C
  3
ByLayer
350
38
  3
Global
350
B
  0
DICTIONARY
  5
43
102
{ACAD_REACTORS
330
A
102
}
330
A
100
AcDbDictionary
281
     1
  0
DICTIONARY
  5
36
102
{ACAD_REACTORS
330
A
102
}
330
A
100
AcDbDictionary
281
     1
  3
Standard
350
44
  0
DICTIONARY
  5
37
102
{ACAD_REACTORS
330
A
102
}
330
A
100
AcDbDictionary
281
     1
  0
ACDBDICTIONARYWDFLT
  5
9
102
{ACAD_REACTORS
330
A
102
}
330
A
100
AcDbDictionary
281
     1
  3
Normal
350
8
100
AcDbDictionaryWithDefault
340
8
  0
DICTIONARY
  5
41
102
{ACAD_REACTORS
330
A
102
}
330
A
100
AcDbDictionary
281
     1
  3
A0
350
49
  3
A1
350
4A
  3
A2
350
4B
  3
A3
350
4C
  3
A4
350
4D
  3
A5
350
4E
  3
A6
350
4F
  3
A7
350
50
  3
A8
350
51
  3
A9
350
52
  3
B0
350
53
  3
B1
350
54
  3
B2
350
55
  3
B3
350
56
  3
B4
350
57
  3
B5
350
58
  3
B6
350
59
  3
B7
350
5A
  3
B8
350
5B
  3
B9
350
5C
  3
C0
350
5D
  3
C1
350
5E
  3
C2
350
5F
  3
C3
350
60
  3
C4
350
61
  3
C5
350
62
  3
C6
350
63
  3
C7
350
64
  3
C8
350
65
  3
C9
350
66
  3
D0
350
67
  3
D1
350
68
  3
D2
350
69
  0
DICTIONARY
  5
42
102
{ACAD_REACTORS
330
A
102
}
330
A
100
AcDbDictionary
281
     1
  3
Standard
350
45
  0
DICTIONARY
  5
2B
102
{ACAD_REACTORS
330
A
102
}
330
A
100
AcDbDictionary
281
     1
  3
2dWireframe
350
2A
  3
Realistic
350
47
  3
Wireframe
350
48
  0
XRECORD
  5
1AD
102
{ACAD_REACTORS
330
A
102
}
330
A
100
AcDbXrecord
280
     1
 90
        1
330
45
  0
DICTIONARY
  5
19D
102
{ACAD_REACTORS
330
A
102
}
330
A
100
AcDbDictionary
281
     1
  3
CANNOSCALE
350
1A3
  3
CMLEADERSTYLE
350
19F
  3
CTABLESTYLE
350
19E
  3
CVIEWDETAILSTYLE
350
1A0
  3
CVIEWSECTIONSTYLE
350
1A1
  3
DIMASSOC
350
1AA
  3
HIDETEXT
350
1A9
  3
INDEXCTL
350
1A8
  3
LAYEREVAL
350
1A5
  3
LAYERNOTIFY
350
1A6
  3
LIGHTINGUNITS
350
1A4
  3
MSLTSCALE
350
1A2
  3
SORTENTS
350
1A7
  3
XCLIPFRAME
350
1AB
  0
DICTIONARY
  5
1F
102
{ACAD_REACTORS
330
1E
102
}
330
1E
100
AcDbDictionary
281
     1
  0
SORTENTSTABLE
  5
19C
102
{ACAD_REACTORS
330
3
102
}
330
3
100
AcDbSortentsTable
330
2
  0
LAYOUT
  5
1C
102
{ACAD_XDICTIONARY
360
1B0
102
}
102
{ACAD_REACTORS
330
18
102
}
330
18
100
AcDbPlotSettings
  1

  2
None
  4

  6

 40
0.0
 41
0.0
 42
0.0
 43
0.0
 44
0.0
 45
0.0
 46
0.0
 47
0.0
 48
0.0
 49
0.0
140
0.0
141
0.0
142
1.0
143
1.0
 70
   688
 72
     0
 73
     0
 74
     5
  7

 75
    16
147
1.0
148
0.0
149
0.0
100
AcDbLayout
  1
Layout1
 70
     1
 71
     1
 10
0.0
 20
0.0
 11
12.0
 21
9.0
 12
0.0
 22
0.0
 32
0.0
 14
0.0
 24
0.0
 34
0.0
 15
0.0
 25
0.0
 35
0.0
146
0.0
 13
0.0
 23
0.0
 33
0.0
 16
1.0
 26
0.0
 36
0.0
 17
0.0
 27
1.0
 37
0.0
 76
     0
330
19
  0
LAYOUT
  5
17
102
{ACAD_XDICTIONARY
360
1AE
102
}
102
{ACAD_REACTORS
330
18
102
}
330
18
100
AcDbPlotSettings
  1

  2
none_device
  4
ANSI_A_(8.50_x_11.00_Inches)
  6

 40
6.349999904632567
 41
19.04999923706055
 42
6.350006103515625
 43
19.04998779296875
 44
215.8999938964844
 45
279.3999938964844
 46
0.0
 47
0.0
 48
0.0
 49
0.0
140
0.0
141
0.0
142
1.0
143
2.584895464708373
 70
 11952
 72
     0
 73
     1
 74
     0
  7

 75
     0
147
0.3868628397755418
148
0.0
149
0.0
100
AcDbLayout
  1
Model
 70
     1
 71
     0
 10
0.0
 20
0.0
 11
12.0
 21
9.0
 12
0.0
 22
0.0
 32
0.0
 14
0.0
 24
0.0
 34
0.0
 15
0.0
 25
0.0
 35
0.0
146
0.0
 13
0.0
 23
0.0
 33
0.0
 16
1.0
 26
0.0
 36
0.0
 17
0.0
 27
1.0
 37
0.0
 76
     0
330
2
331
29
  0
MATERIAL
  5
3C
102
{ACAD_XDICTIONARY
360
3D
102
}
102
{ACAD_REACTORS
330
C
102
}
330
C
100
AcDbMaterial
  1
ByBlock
  0
MATERIAL
  5
38
102
{ACAD_XDICTIONARY
360
39
102
}
102
{ACAD_REACTORS
330
C
102
}
330
C
100
AcDbMaterial
  1
ByLayer
  0
MATERIAL
  5
B
102
{ACAD_XDICTIONARY
360
D
102
}
102
{ACAD_REACTORS
330
C
102
}
330
C
100
AcDbMaterial
  1
Global
 43
0.0208000000566244
 43
0.0
 43
0.0
 43
0.0
 43
0.0
 43
0.0208000000566244
 43
0.0
 43
0.0
 43
0.0
 43
0.0
 43
1.0
 43
0.0
 43
0.0
 43
0.0
 43
0.0
 43
1.0
 49
0.0208000000566244
 49
0.0
 49
0.0
 49
0.0
 49
0.0
 49
0.0208000000566244
 49
0.0
 49
0.0
 49
0.0
 49
0.0
 49
1.0
 49
0.0
 49
0.0
 49
0.0
 49
0.0
 49
1.0
142
0.0208000000566244
142
0.0
142
0.0
142
0.0
142
0.0
142
0.0208000000566244
142
0.0
142
0.0
142
0.0
142
0.0
142
1.0
142
0.0
142
0.0
142
0.0
142
0.0
142
1.0
144
0.0208000000566244
144
0.0
144
0.0
144
0.0
144
0.0
144
0.0208000000566244
144
0.0
144
0.0
144
0.0
144
0.0
144
1.0
144
0.0
144
0.0
144
0.0
144
0.0
144
1.0
1001
ACAD
1070
    -1
1070
     3
1070
     0
1000

1071
        0
1070
     0
  0
MLINESTYLE
  5
44
102
{ACAD_REACTORS
330
36
102
}
330
36
100
AcDbMlineStyle
  2
STANDARD
 70
     0
  3

 62
   256
 51
90.0
 52
90.0
 71
     2
 49
0.5
 62
   256
  6
BYLAYER
 49
-0.5
 62
   256
  6
BYLAYER
  0
ACDBPLACEHOLDER
  5
8
102
{ACAD_REACTORS
330
9
102
}
330
9
  0
SCALE
  5
49
102
{ACAD_REACTORS
330
41
102
}
330
41
100
AcDbScale
 70
     0
300
1:1
140
1.0
141
1.0
290
     1
  0
SCALE
  5
4A
102
{ACAD_REACTORS
330
41
102
}
330
41
100
AcDbScale
 70
     0
300
1:2
140
1.0
141
2.0
290
     0
  0
SCALE
  5
4B
102
{ACAD_REACTORS
330
41
102
}
330
41
100
AcDbScale
 70
     0
300
1:4
140
1.0
141
4.0
290
     0
  0
SCALE
  5
4C
102
{ACAD_REACTORS
330
41
102
}
330
41
100
AcDbScale
 70
     0
300
1:5
140
1.0
141
5.0
290
     0
  0
SCALE
  5
4D
102
{ACAD_REACTORS
330
41
102
}
330
41
100
AcDbScale
 70
     0
300
1:8
140
1.0
141
8.0
290
     0
  0
SCALE
  5
4E
102
{ACAD_REACTORS
330
41
102
}
330
41
100
AcDbScale
 70
     0
300
1:10
140
1.0
141
10.0
290
     0
  0
SCALE
  5
4F
102
{ACAD_REACTORS
330
41
102
}
330
41
100
AcDbScale
 70
     0
300
1:16
140
1.0
141
16.0
290
     0
  0
SCALE
  5
50
102
{ACAD_REACTORS
330
41
102
}
330
41
100
AcDbScale
 70
     0
300
1:20
140
1.0
141
20.0
290
     0
  0
SCALE
  5
51
102
{ACAD_REACTORS
330
41
102
}
330
41
100
AcDbScale
 70
     0
300
1:30
140
1.0
141
30.0
290
     0
  0
SCALE
  5
52
102
{ACAD_REACTORS
330
41
102
}
330
41
100
AcDbScale
 70
     0
300
1:40
140
1.0
141
40.0
290
     0
  0
SCALE
  5
53
102
{ACAD_REACTORS
330
41
102
}
330
41
100
AcDbScale
 70
     0
300
1:50
140
1.0
141
50.0
290
     0
  0
SCALE
  5
54
102
{ACAD_REACTORS
330
41
102
}
330
41
100
AcDbScale
 70
     0
300
1:100
140
1.0
141
100.0
290
     0
  0
SCALE
  5
55
102
{ACAD_REACTORS
330
41
102
}
330
41
100
AcDbScale
 70
     0
300
2:1
140
2.0
141
1.0
290
     0
  0
SCALE
  5
56
102
{ACAD_REACTORS
330
41
102
}
330
41
100
AcDbScale
 70
     0
300
4:1
140
4.0
141
1.0
290
     0
  0
SCALE
  5
57
102
{ACAD_REACTORS
330
41
102
}
330
41
100
AcDbScale
 70
     0
300
8:1
140
8.0
141
1.0
290
     0
  0
SCALE
  5
58
102
{ACAD_REACTORS
330
41
102
}
330
41
100
AcDbScale
 70
     0
300
10:1
140
10.0
141
1.0
290
     0
  0
SCALE
  5
59
102
{ACAD_REACTORS
330
41
102
}
330
41
100
AcDbScale
 70
     0
300
100:1
140
100.0
141
1.0
290
     0
  0
SCALE
  5
5A
102
{ACAD_REACTORS
330
41
102
}
330
41
100
AcDbScale
 70
     0
300
1/128" = 1'-0"
140
0.0078125
141
12.0
290
     0
  0
SCALE
  5
5B
102
{ACAD_REACTORS
330
41
102
}
330
41
100
AcDbScale
 70
     0
300
1/64" = 1'-0"
140
0.015625
141
12.0
290
     0
  0
SCALE
  5
5C
102
{ACAD_REACTORS
330
41
102
}
330
41
100
AcDbScale
 70
     0
300
1/32" = 1'-0"
140
0.03125
141
12.0
290
     0
  0
SCALE
  5
5D
102
{ACAD_REACTORS
330
41
102
}
330
41
100
AcDbScale
 70
     0
300
1/16" = 1'-0"
140
0.0625
141
12.0
290
     0
  0
SCALE
  5
5E
102
{ACAD_REACTORS
330
41
102
}
330
41
100
AcDbScale
 70
     0
300
3/32" = 1'-0"
140
0.09375
141
12.0
290
     0
  0
SCALE
  5
5F
102
{ACAD_REACTORS
330
41
102
}
330
41
100
AcDbScale
 70
     0
300
1/8" = 1'-0"
140
0.125
141
12.0
290
     0
  0
SCALE
  5
60
102
{ACAD_REACTORS
330
41
102
}
330
41
100
AcDbScale
 70
     0
300
3/16" = 1'-0"
140
0.1875
141
12.0
290
     0
  0
SCALE
  5
61
102
{ACAD_REACTORS
330
41
102
}
330
41
100
AcDbScale
 70
     0
300
1/4" = 1'-0"
140
0.25
141
12.0
290
     0
  0
SCALE
  5
62
102
{ACAD_REACTORS
330
41
102
}
330
41
100
AcDbScale
 70
     0
300
3/8" = 1'-0"
140
0.375
141
12.0
290
     0
  0
SCALE
  5
63
102
{ACAD_REACTORS
330
41
102
}
330
41
100
AcDbScale
 70
     0
300
1/2" = 1'-0"
140
0.5
141
12.0
290
     0
  0
SCALE
  5
64
102
{ACAD_REACTORS
330
41
102
}
330
41
100
AcDbScale
 70
     0
300
3/4" = 1'-0"
140
0.75
141
12.0
290
     0
  0
SCALE
  5
65
102
{ACAD_REACTORS
330
41
102
}
330
41
100
AcDbScale
 70
     0
300
1" = 1'-0"
140
1.0
141
12.0
290
     0
  0
SCALE
  5
66
102
{ACAD_REACTORS
330
41
102
}
330
41
100
AcDbScale
 70
     0
300
1-1/2" = 1'-0"
140
1.5
141
12.0
290
     0
  0
SCALE
  5
67
102
{ACAD_REACTORS
330
41
102
}
330
41
100
AcDbScale
 70
     0
300
3" = 1'-0"
140
3.0
141
12.0
290
     0
  0
SCALE
  5
68
102
{ACAD_REACTORS
330
41
102
}
330
41
100
AcDbScale
 70
     0
300
6" = 1'-0"
140
6.0
141
12.0
290
     0
  0
SCALE
  5
69
102
{ACAD_REACTORS
330
41
102
}
330
41
100
AcDbScale
 70
     0
300
1'-0" = 1'-0"
140
12.0
141
12.0
290
     0
  0
TABLESTYLE
  5
45
102
{ACAD_XDICTIONARY
360
46
102
}
102
{ACAD_REACTORS
330
42
102
}
330
42
100
AcDbTableStyle
  3
Standard
 70
     0
 71
     0
 40
0.06
 41
0.06
280
     0
281
     0
  7
Standard
140
0.18
170
     2
 62
     0
 63
     7
283
     0
274
    -2
284
     1
 64
     0
275
    -2
285
     1
 65
     0
276
    -2
286
     1
 66
     0
277
    -2
287
     1
 67
     0
278
    -2
288
     1
 68
     0
279
    -2
289
     1
 69
     0
  7
Standard
140
0.25
170
     5
 62
     0
 63
     7
283
     0
274
    -2
284
     1
 64
     0
275
    -2
285
     1
 65
     0
276
    -2
286
     1
 66
     0
277
    -2
287
     1
 67
     0
278
    -2
288
     1
 68
     0
279
    -2
289
     1
 69
     0
  7
Standard
140
0.18
170
     5
 62
     0
 63
     7
283
     0
274
    -2
284
     1
 64
     0
275
    -2
285
     1
 65
     0
276
    -2
286
     1
 66
     0
277
    -2
287
     1
 67
     0
278
    -2
288
     1
 68
     0
279
    -2
289
     1
 69
     0
  0
VISUALSTYLE
  5
2A
102
{ACAD_XDICTIONARY
360
1B2
102
}
102
{ACAD_REACTORS
330
2B
102
}
330
2B
100
AcDbVisualStyle
  2

 70
     4
 71
     0
 72
     2
 73
     1
 90
        0
 40
-0.6
 41
-30.0
 62
     5
 63
     7
 74
     1
 91
        4
 64
     7
 65
   257
 75
     1
175
     1
 42
1.0
 92
        0
 66
   257
 43
1.0
 76
     1
 77
     6
 78
     2
 67
     7
 79
     5
170
     0
171
     0
290
     0
174
     0
 93
        1
 44
0.0
173
     0
291
     0
 45
0.0
1001
ACAD
1000
AcDbSavedByObjectVersion
1070
     0
  0
VISUALSTYLE
  5
47
102
{ACAD_XDICTIONARY
360
1B5
102
}
102
{ACAD_REACTORS
330
2B
102
}
330
2B
100
AcDbVisualStyle
  2

 70
     8
 71
     2
 72
     3
 73
     0
 90
        2
 40
-0.6
 41
30.0
 62
     5
 63
     7
 74
     0
 91
        0
 64
     7
 65
   257
 75
     1
175
     1
 42
1.0
 92
        8
 66
   257
 43
1.0
 76
     1
 77
     6
 78
     2
 67
     7
 79
     3
170
     0
171
     0
290
     0
174
     0
 93
       13
 44
0.0
173
     0
291
     0
 45
0.0
1001
ACAD
1000
AcDbSavedByObjectVersion
1070
     0
  0
VISUALSTYLE
  5
48
102
{ACAD_XDICTIONARY
360
1B7
102
}
102
{ACAD_REACTORS
330
2B
102
}
330
2B
100
AcDbVisualStyle
  2

 70
     5
 71
     0
 72
     2
 73
     0
 90
        0
 40
-0.6
 41
-30.0
 62
     5
 63
     7
 74
     1
 91
        4
 64
     7
 65
   257
 75
     1
175
     1
 42
1.0
 92
        0
 66
   257
 43
1.0
 76
     1
 77
     6
 78
     2
 67
     7
 79
     3
170
     0
171
     0
290
     0
174
     0
 93
        1
 44
0.0
173
     0
291
     0
 45
0.0
1001
ACAD
1000
AcDbSavedByObjectVersion
1070
     0
  0
DICTIONARYVAR
  5
1A3
102
{ACAD_REACTORS
330
19D
102
}
330
19D
100
DictionaryVariables
280
     0
  1
1:1
  0
DICTIONARYVAR
  5
19F
102
{ACAD_REACTORS
330
19D
102
}
330
19D
100
DictionaryVariables
280
     0
  1
STANDARD
  0
DICTIONARYVAR
  5
19E
102
{ACAD_REACTORS
330
19D
102
}
330
19D
100
DictionaryVariables
280
     0
  1
STANDARD
  0
DICTIONARYVAR
  5
1A0
102
{ACAD_REACTORS
330
19D
102
}
330
19D
100
DictionaryVariables
280
     0
  1

  0
DICTIONARYVAR
  5
1A1
102
{ACAD_REACTORS
330
19D
102
}
330
19D
100
DictionaryVariables
280
     0
  1

  0
DICTIONARYVAR
  5
1AA
102
{ACAD_REACTORS
330
19D
102
}
330
19D
100
DictionaryVariables
280
     0
  1
2
  0
DICTIONARYVAR
  5
1A9
102
{ACAD_REACTORS
330
19D
102
}
330
19D
100
DictionaryVariables
280
     0
  1
1
  0
DICTIONARYVAR
  5
1A8
102
{ACAD_REACTORS
330
19D
102
}
330
19D
100
DictionaryVariables
280
     0
  1
0
  0
DICTIONARYVAR
  5
1A5
102
{ACAD_REACTORS
330
19D
102
}
330
19D
100
DictionaryVariables
280
     0
  1
0
  0
DICTIONARYVAR
  5
1A6
102
{ACAD_REACTORS
330
19D
102
}
330
19D
100
DictionaryVariables
280
     0
  1
0
  0
DICTIONARYVAR
  5
1A4
102
{ACAD_REACTORS
330
19D
102
}
330
19D
100
DictionaryVariables
280
     0
  1
2
  0
DICTIONARYVAR
  5
1A2
102
{ACAD_REACTORS
330
19D
102
}
330
19D
100
DictionaryVariables
280
     0
  1
1
  0
DICTIONARYVAR
  5
1A7
102
{ACAD_REACTORS
330
19D
102
}
330
19D
100
DictionaryVariables
280
     0
  1
127
  0
DICTIONARYVAR
  5
1AB
102
{ACAD_REACTORS
330
19D
102
}
330
19D
100
DictionaryVariables
280
     0
  1
2
  0
DICTIONARY
  5
1B0
330
1C
100
AcDbDictionary
280
     1
281
     1
  3
ACAD_XREC_ROUNDTRIP
360
1B1
  0
DICTIONARY
  5
1AE
330
17
100
AcDbDictionary
280
     1
281
     1
  3
ACAD_XREC_ROUNDTRIP
360
1AF
  0
DICTIONARY
  5
3D
330
3C
100
AcDbDictionary
280
     1
281
     1
  3
ACAD_XREC_ROUNDTRIP
360
3E
  3
FBXASSET
360
3F
  0
DICTIONARY
  5
39
330
38
100
AcDbDictionary
280
     1
281
     1
  3
ACAD_XREC_ROUNDTRIP
360
3A
  3
FBXASSET
360
3B
  0
DICTIONARY
  5
D
330
B
100
AcDbDictionary
280
     1
281
     1
  3
ACAD_XREC_ROUNDTRIP
360
E
  3
BUMPTILE
360
F
  3
DIFFUSETILE
360
10
  3
FBXASSET
360
11
  3
OPACITYTILE
360
12
  3
REFLECTIONTILE
360
13
  0
DICTIONARY
  5
46
330
45
100
AcDbDictionary
280
     1
281
     1
  3
ACAD_ROUNDTRIP_2008_TABLESTYLE_CELLSTYLEMAP
360
1AC
  3
ACAD_XREC_ROUNDTRIP
360
1B4
  0
DICTIONARY
  5
1B2
330
2A
100
AcDbDictionary
280
     1
281
     1
  3
ACAD_XREC_ROUNDTRIP
360
1B3
  0
DICTIONARY
  5
1B5
330
47
100
AcDbDictionary
280
     1
281
     1
  3
ACAD_XREC_ROUNDTRIP
360
1B6
  0
DICTIONARY
  5
1B7
330
48
100
AcDbDictionary
280
     1
281
     1
  3
ACAD_XREC_ROUNDTRIP
360
1B8
  0
XRECORD
  5
1B1
102
{ACAD_REACTORS
330
1B0
102
}
330
1B0
100
AcDbXrecord
280
     1
102
SHADEPLOT
 70
     0
102
SHADEPLOTRESLEVEL
 70
     2
102
SHADEPLOTCUSTOMDPI
 70
   300
  0
XRECORD
  5
1AF
102
{ACAD_REACTORS
330
1AE
102
}
330
1AE
100
AcDbXrecord
280
     1
102
SHADEPLOT
 70
     0
102
SHADEPLOTRESLEVEL
 70
     2
102
SHADEPLOTCUSTOMDPI
 70
   300
  0
XRECORD
  5
3E
102
{ACAD_REACTORS
330
3D
102
}
330
3D
100
AcDbXrecord
280
     1
102
MATERIAL
148
0.0
149
0.0
149
0.0
 93
        0
 94
      127
282
     0
 72
     1
 77
     1
171
     1
175
     1
179
     1
273
     0
  0
XRECORD
  5
3F
102
{ACAD_REACTORS
330
3D
102
}
330
3D
100
AcDbXrecord
280
     1
 70
     1
 90
429727718
  1
508B35C9-AEE7-456F-BE74-D52651303AC6
310
504B03040A0000080000B670623B3DEE336E79000000790000001B0000006175746F6465736B2D64657369676E2D7061636B6167652E786D6C3C3F786D6C2076657273696F6E3D22312E302220656E636F64696E673D227574662D3822203F3E3C666F726D6174733E3C666F726D61743E687474703A2F2F736368656D612E
310
6175746F6465736B2E636F6D2F64657369676E2D7061636B6167652F323030393C2F666F726D61743E3C2F666F726D6174733E504B0304140006080800B670623BD486FD9CA0000000F4000000130000005B436F6E74656E745F54797065735D2E786D6C7D8EC10E82300C865F65E91D8A1E8C310C0EEA1BF002731658846E
310
D98AC1B77784ABF1D8FE5FBFBF75BBCE937A534CCEB38643598122B6FEE978D0B0485F9C41B54DDD7D022595594E1A469170414C76A4D9A4D207E29CF43ECE46F218070CC6BECC4078ACAA135ACF422C856C0E68EA1BF5669944DDD7BCDE7B1F8E415D77AECB980613C2E4AC91FC167A2B244592486606FC29C8FD7F045B9A
310
EF7053A7E60B504B0304140006080800B670623B28ED286BEB0000007C01000008000000636F72652E786D6C8D90416EC3201045AF82665B6183218D6D61A254764FD00B204C5C94182C03558F5F9C3852BBEB6A467FFE9B197D71FA9E6FE8CBACC17AD7012D0820E3B41FAD9B3A48F1826B40272956EFE32F1B20A766D3C1
310
268314D3EAD3B24BDABB685CCCAAF3A3D94515828980F42D371D04FD696655A814B3235C8B45E9AB9A4C419F5D8653B2237A1CB163DE672FD6AC209BF3C08E0D1B30EB19C3FC9D72FCC6EB231EFA33EDE96BDD341517E5064B11EDFCBCAF57A3A2194156843498524CAA0FCA5B7268F9E185D42D21A2DCEC7FA0B48CFF8492
310
759155FBBB0F2C80A4F991FB408A72CB22977B50B96EB9C91F504B0304140006080800B670623B55019EA25F0000007C00000007000000636E782E786D6C4DCB3B0E80201045D1AD90E915ED2CF8AC45050C11660C8261F98AB1B07AC9C97D42D718D865D3E909258CFD00CCE24AC6E326A164D74DC0B4128928FF32603847
310
2BA13128B1252AC747C6BAB984FC68F0B87FE8960A5C09FE86CFB69FBA01504B0304140006080800B670623B7BC41AC871010000D40300000C0000006662782F636F72652E786D6CC553ED6E8320147D15C2DF4501B56B6D90A64BBB27D80B50A5CE54C120983EFEAE1F4DD7A56BBA5FF3879273EEE59E7310BE393735EA95
310
ED2AA333CC428A91D2B9292A5D66D8BB63B0C26823B835C67D2BC348CB46657880B1E0A535BE9DA1DC68A7B403549B42CDA0EC3AE530CA6B5864B8CB3F552343E91D5474A7B095F949962A6421D0502778E72C0840D390E18DC5F170E664C205F7BE2A66B62A605A75AC94C522DDEEE3651AEF837817C741F2CE92E02D592D
310
83FD6ECB76EC7595A651C2C9D02CB8AB9A8BBADC2AE954814544691A3016D0E883256BBA58278B17BA5A53CAC9507ED3E4DBE2C9265F691747B3DCA9ADC382819091F8E1162272A8933DE82182932144F88C09DF060D8140C84E1EEA8B8F1340BDCA9DB1093085F157AA97B557309586747CD0EF0B4EA64E983A6E0EAEEFCE
310
889E9EF17847386AA94B30211D2C0FDE0D3AF9A4610EAD5536E8DD1969631B593F67E381C33F5157F17725E5A636F6BF1491F980C8FC7B90E13E8A2F504B0304140006080800B670623B70102A487D0000009D0000000B0000006662782F636E782E786D6C4DCCD10A83201886E15B91FFDC95A5C30335ACCDFB886521330D
310
A76397BF1A1DECE883878F57749FD5A3B74D2F17830472A901D9F088930B8B849267CC01754AA418F3DF0D5018572BE160506249B16C274D761E8BCFBB7A179E27F65CB39A0F14D396184C9921B81F34C3ACA1B4B99ABB6E6F062A25AA5F69DF23ACBE504B0304140006080800B670623B3610CA3329010000120200003100
310
00006662782F42384135303843342D343331462D343546312D424341352D3532343432364645413344462F636F72652E786D6C8D515B6EC32010BC0AE22B55850D0E446E848992B43E412FE000495162B07854397EA176A4F62F3F2C9A9D991D58BEBB8F37F0AD7D30CE76905418026DA553C65E3A98E219B510EC04F7CEC5
310
3F3408EC30EA0E16180A7EF12E4D0B249D8DDAC68C5AA7F4020E21E80881BCE54B0783FCD2E3500D296646B856D320AFC34557A4CAEDCC133C449F0380794839A138B47B86DB2345744D7A44594FD0E1B867883594369BFE63BF7EEF793D0B054FC9A8456E548E63CE46FB674D8A58F068C6477CE9F510B582A2C1F80D1182
310
70F349E816B32D65AFB8DD62CCEB42FF274A937A52948C8DEB66893BCB021484D7734370E5D2E9F608A3EF93F3119479ABA0E50B14B8C298119A43CCC4FCFCECB8A18B6388CEE7EF5D5D4F994BD86CBBA182D76543B9FCAE2FD7B24DF103504B0304140006080800B670623B1B8617914E0100003303000030000000666278
310
2F42384135303843342D343331462D343546312D424341352D3532343432364645413344462F636E782E786D6CD593C16EC32010447F0571AD6CE3D489D20813A9877E410FBD62D82434182CC055F3F75D1292E692438FBD206B7698593D61BEFD1E2DF982108D773D6D6B460938E5B571FB9ECE6957AD29D90A1EBC4F7736
310
4A9C1CA1A759A682EF839FA72269D8C9D92654AD71C72206887E0E0A22CAF926B15E498B01E0AA19451807D01A34B919F16B070157417138917400F2F6FA41FCF0092A45DEE414C19BDC21783E4BD39D891265658C3D8DEA00A3ACE59CBC8678ACB54CB26EEB6BD7839D7E9348BE70AD9C8321B9BCA7F9A4A26C542347DEE0
310
50F09802D22BA6749A800A394DD62899107273365E3C82CFC6A55557BC06C10774B7ABE7AEC3B0F34CF06446280E154026D0542C187BA9DAB6628BF7B6DBB0E5A65B3EB1F58631DE64BBE083F7B65CC218087E22CABB042E51D1F2268F1FE12B3EA24D40D63E9CFE00120194D60B9D5BC67FE6D39CDF37E20AF817881F504B
310
0304140006080800B670623BBFEF2E3B690500003C100000340000006662782F42384135303843342D343331462D343546312D424341352D3532343432364645413344462F6F626A656374732E786D6CAD575D739B3814FD2B0CFB0C98D84E931D4227B6938EA793B6534F3BFB90198F0099B001899144EAECAFDF231018B0
310
D37A3FFC609090EEE7B94757C1FB7D915B2F54C88CB31BDB7727B64559CC938CA53776A576CE956DBD0F03C1B9EA2DB32D460A7A63EB693B0C52C1ABD24C257447AA5C8D66EF177F5832A68CDA569C13296F6C193FD182B8A4523CA1F2D94D88226EBADBBBBEDB2C1C8A4D05299F46424B222853B014F30C52ACC6287F389C
310
D85E1878FA7B18E87FB36AFAF62AAFF667A83F635211161F291B8999FAB3D5DDC5FCDA99CF6653677679E13B8BFBC5CAF1DF4D27CBCBE5F2FAF6EE1A8AA51290642C117467871F101B91C581D77CEA2C36869F3229E68CD1B8F61F1ED6361B89092D294B90C78C4A68EB793D190E7D1D9BDEE7A91E1B95FDE9F3BCEAEFE809
310
6A6D6F9F7D4B79F4275C90E7A04248AA51D5C4C738DAE06F72885AC4796EBE65D22A88A22223B995679120E2D50EB1542F098381188D4EA111AE3DB043FF20AF6F2B4AE3D7D83D65E5AECA730D4D3BAC91BD05FEA992B565D95F549CD6069B90AB2A63EACA38A45E4B6A87D781574F86817E4C2FCCC72690D62E2729520E37
310
9BAF234797BAF6D62B3BFC781FED37BA1E4F2B2F052FA9501A3E80569BB8F6A9A364D4FA67654E6F803383981F82F21591FF84F23D9882BC896C3FDBCF8C162508933B2E0AE4C69DD43F6BD2BE38DDDBF10BF86CB4FA784D37F3AF16075E67EC9030DECA1FC0A55373F5DFF3378C591FA9BDF485C10B0A8C8BA909E5262639
310
A8E72163488806A595734C81CB77D1DE0ED7604A303B76913CEC0272F412782FF88EFF4636D8AA56DF7B322474C4B767303F625997056C7B032C473C592B36CEBD15F3F9FF5233B7ABCDC74D257624A60F8658567497B14CE1EC3C80B76FD02011038F9EE9EB0F2E12387A9C844D3F09855125116D1D731DF8B43D2CF4E0A0
310
79A020C6BE946BCE0B7EA1E1219331CD73C228AF5A2DDD31A4B1DA918CE91350854D40A71723140BFA92E94E62B0626016CEFA5864A50E5977E8753CEDBEE1CBB7F52780D20E17AF0BA0F5F9B02A3AD07DCC732EB6D1EBB661421BE0C39E21BABF0FE16D22EA6929407C8DE596724C88B749B6DB5512BC7B228ADFD7CB7EA6
310
3A22397E690BA8D5D8D4E40CEC8CDA23C2C0B7D5898640101CEC9C6D331CE328CB93CAFBBAC70A642DF70DF95155945B52F08AA973C23469FD69ADEF84F7BB18F983A8F8C90E37F5D35980B2139A1C523540813E824EF83448CF7C72B598CE97D7CEEDDDDD3B6736BFBC771677EF66CE6A7E7139F7A793E9EDF2B2B3A8B624
310
0CDA13AA5F8388264EC4A0129909F3B7F5A16CEDF08128E97D680ACA4B9BE7B7B58BB638F0B00700EF36AE8B32A705658A68F83EE897FC2B41573190D1CCAF0B92D233A47CFEB019D9809933F67DD1A5467F8CF69AD9A5AE859342D45355448C64F968A371DC2D596ADC6E43D93D1B466F877A64E2893E54F23C4B40388995
310
525E5005DA3983ED45412510D3EFCA13737B3863F74BD30F2A12E5B4B5E489A025CE25500DB855B11ACE5BBFA185D35DD48D8DC3CE7DC69F2944DB42AA6F6CF09BCA622ADD08C7A36E7C6AE18000BAB08E040135C2D21C9D75B3A91B77BB746C403F38018DFE6EC939DD92F16B40BC05294B9CDA035AAD6D330AE27FE4786B
310
8E45145EA34A75BE1C263A676A35A8ACC6297337400BF16C54EF515F3F77CB77EB3583889C754FFA29081AA98E2222ADEF05DA3E63D2EDEA8B8756C05A7FB6CABC4A91CBF325398202CC952E70A008A830324BA200D5E5EF8F5F04C75DB4B0EE3340E071C98B823333B83577596BF3849B69F2085AA0FAFA212F26BEFF5877
310
FDE622B28D88A42E49E43326DA82D31E8CB006401E1DA726059ECEC168F97A6599036306A135688F9AD2E61A6EA178F4CD51974A9F2CCB9F36FE5EBD14601068D9C3BF01504B0304140006080000B670623B000000000000000000000000350000006662782F42384135303843342D343331462D343546312D424341352D35
310
32343432364645413344462F76657274696365732E62696E504B0304140006080800B670623BF270F1330600000004000000360000006662782F42384135303843342D343331462D343546312D424341352D3532343432364645413344462F747269616E676C65732E62696E636660600000504B0304140006080000B67062
310
3B000000000000000000000000370000006662782F42384135303843342D343331462D343546312D424341352D3532343432364645413344462F617474726962757465732E62696E504B0304140006080800B670623B08DA0BD19000000041010000360000006662782F42384135303843342D343331462D343546312D4243
310
41352D3532343432364645413344462F6469726563746F72792E786D6C858F410AC3201045AF22B36F53E9A60B35CBEEBAE80D244E44489C6234F4F835464A48035D0DF398FF9F8AF63D0E6CC63039F212F8F9020C7D47C6792B21C5FE7403D62A1188E2E60C98D7234A5830286103A55745067B9D86B8A3CF9C7F90C11DE6
310
07FB144396D7B6A82D282E9A152AD114D5EF2CB866EEE831B8EEA07A7BB5A8D7D61A2BAAEB7FD5F70921FF497D00504B0304140006080800B670623B3B4606F3FE000000A00100003B0000006662782F42384135303843342D343331462D343546312D424341352D3532343432364645413344462F7265736F75726365732F
310
636F72652E786D6C8D504B6E833010BD0A9A6D65B08134808CA354A427E8052C332156828DFCA97AFC9A40A576D7CDCCE87D344F8F9FBEE647F689CE6B6B7A6039850C8DB2A336530F315C4903D94970676DF82583CCC8197B5861107C72362E3BA4AC096842428D1D7107A5F71820538F74F4E0D50D6799CB1892C2DFF345
310
AABB9C306779A2934E701F5C0A906D4FD609C2A1B7D129F4BCD858C163D4E3AED163FAA9AF1A1D88F67CA98E6D35906AA82A52BFB39ABCD5CD915C86331BD86BD3B665CD8BD52C78D0F34F46E550061C419494B6843142CB0F5677F4D0D58717DA7494F26295FF31C565FCA7296A13AA728FBBD93C0896823C09C18BB5AFB4
310
9E65A6BD762BBE01504B010214000A0000080000B670623B3DEE336E79000000790000001B00000000000000000000000000000000006175746F6465736B2D64657369676E2D7061636B6167652E786D6C504B01021400140006080800B670623BD486FD9CA0000000F40000001300000000000000000000000000B2000000
310
5B436F6E74656E745F54797065735D2E786D6C504B01021400140006080800B670623B28ED286BEB0000007C010000080000000000000000000000000083010000636F72652E786D6C504B01021400140006080800B670623B55019EA25F0000007C000000070000000000000000000000000094020000636E782E786D6C50
310
4B01021400140006080800B670623B7BC41AC871010000D40300000C00000000000000000000000000180300006662782F636F72652E786D6C504B01021400140006080800B670623B70102A487D0000009D0000000B00000000000000000000000000B30400006662782F636E782E786D6C504B01021400140006080800B6
310
70623B3610CA3329010000120200003100000000000000000000000000590500006662782F42384135303843342D343331462D343546312D424341352D3532343432364645413344462F636F72652E786D6C504B01021400140006080800B670623B1B8617914E010000330300003000000000000000000000000000D10600
310
006662782F42384135303843342D343331462D343546312D424341352D3532343432364645413344462F636E782E786D6C504B01021400140006080800B670623BBFEF2E3B690500003C10000034000000000000000000000000006D0800006662782F42384135303843342D343331462D343546312D424341352D35323434
310
32364645413344462F6F626A656374732E786D6C504B01021400140006080000B670623B0000000000000000000000003500000000000000000000000000280E00006662782F42384135303843342D343331462D343546312D424341352D3532343432364645413344462F76657274696365732E62696E504B010214001400
310
06080800B670623BF270F133060000000400000036000000000000000000000000007B0E00006662782F42384135303843342D343331462D343546312D424341352D3532343432364645413344462F747269616E676C65732E62696E504B01021400140006080000B670623B00000000000000000000000037000000000000
310
00000000000000D50E00006662782F42384135303843342D343331462D343546312D424341352D3532343432364645413344462F617474726962757465732E62696E504B01021400140006080800B670623B08DA0BD1900000004101000036000000000000000000000000002A0F00006662782F42384135303843342D3433
310
31462D343546312D424341352D3532343432364645413344462F6469726563746F72792E786D6C504B01021400140006080800B670623B3B4606F3FE000000A00100003B000000000000000000000000000E1000006662782F42384135303843342D343331462D343546312D424341352D3532343432364645413344462F72
310
65736F75726365732F636F72652E786D6C504B0506000000000E000E0080040000651100000000
  0
XRECORD
  5
3A
102
{ACAD_REACTORS
330
39
102
}
330
39
100
AcDbXrecord
280
     1
102
MATERIAL
148
0.0
149
0.0
149
0.0
 93
        0
 94
      127
282
     0
 72
     1
 77
     1
171
     1
175
     1
179
     1
273
     0
  0
XRECORD
  5
3B
102
{ACAD_REACTORS
330
39
102
}
330
39
100
AcDbXrecord
280
     1
 70
     1
 90
429727718
  1
887D55A9-D0DD-414E-B741-A7DCD4DA2B4C
310
504B03040A0000080000B670623B3DEE336E79000000790000001B0000006175746F6465736B2D64657369676E2D7061636B6167652E786D6C3C3F786D6C2076657273696F6E3D22312E302220656E636F64696E673D227574662D3822203F3E3C666F726D6174733E3C666F726D61743E687474703A2F2F736368656D612E
310
6175746F6465736B2E636F6D2F64657369676E2D7061636B6167652F323030393C2F666F726D61743E3C2F666F726D6174733E504B0304140006080800B670623BD486FD9CA0000000F4000000130000005B436F6E74656E745F54797065735D2E786D6C7D8EC10E82300C865F65E91D8A1E8C310C0EEA1BF002731658846E
310
D98AC1B77784ABF1D8FE5FBFBF75BBCE937A534CCEB38643598122B6FEE978D0B0485F9C41B54DDD7D022595594E1A469170414C76A4D9A4D207E29CF43ECE46F218070CC6BECC4078ACAA135ACF422C856C0E68EA1BF5669944DDD7BCDE7B1F8E415D77AECB980613C2E4AC91FC167A2B244592486606FC29C8FD7F045B9A
310
EF7053A7E60B504B0304140006080800B670623BBC1638F5EC0000007C01000008000000636F72652E786D6C8D90416EC3201045AF82665B61836BE2D8C24471DB9CA01740401C94182C03558F5F9C3852BBEB6A467FFE9B197D7EF89E6EE8CB2CC17AD7032D0820E394D7D68D3DA478C67B4007C117EFE32F1B202727D3C3
310
2A83E0E3E2D3BC49CABB685CCCAAF3DA6CA20CC14440EA969B1E82BA98491632C5EC08D76296EA2A4753D06797E194AC468F2356E77DF66CCD02825543D50CACC62D39ED70FDC68EB8FD68F6F8787A6784342D1DDA1D2F5758F068A7E77DB518198D065111D2624A31A93E69DD11D6D5EC85EC3B4278B9DAFF4069D6FF8492
310
75F1B5DADE7D600104CD8FDC0782976B16B9DC83CA75CD4DFC00504B0304140006080800B670623B55019EA25F0000007C00000007000000636E782E786D6C4DCB3B0E80201045D1AD90E915ED2CF8AC45050C11660C8261F98AB1B07AC9C97D42D718D865D3E909258CFD00CCE24AC6E326A164D74DC0B4128928FF326038
310
472BA13128B1252AC747C6BAB984FC68F0B87FE8960A5C09FE86CFB69FBA01504B0304140006080800B670623B3586FFB671010000D40300000C0000006662782F636F72652E786D6CC553ED6E8320147D15C2DF4541A76D6D90A6DDD627D80B50A4CE54C120983EFEAE1F4DD7A55BBA5FF3879273EEE59E7310B6393735EA
310
95ED2AA3731C851423A5A5292A5DE6D8BB63B0C268C39935C67D29C3488B46E578803167A535BE9D2169B453DA01AA4DA16650749D7218C91A1639EEE4876A4428BC838AEE14B6429E44A9C228041AEA38EB9C0501681A32BC313F1ECE8C4C3867DE57C5CC56054CAB8E95B298A7F12E5EEED224C8E87E11242FE936C8DE96
310
AB60BB7F4D295D66D12E5B30323473E6AAE6A24E5A259C2A308F29CD82280A68FC1E256B9AAE93F489AED694323294DF34F9B678B0C957DA3DC7B3DCA9ADC33C022123F1CD2D44E450277AD04338234388F01913BE0D1A0281909D38D4171F27807A259DB1093085F157AA17B557309586747CD0CF0B46A64E983A6E0EAEEF
310
CE881F9EF1FB8E70D44297604238581EBC1B74B249C31C5AAB6CD0BB33D2C636A27ECCC62F0EFF445DC5DF95244D6DEC7F2922F30191F9F720C37DE49F504B0304140006080800B670623B4220A0FF7D0000009D0000000B0000006662782F636E782E786D6C4DCCD10A83201886E15B91FFDCE542CB0335D0EC3E6259C84A
310
C3E9D8E5AF46073BFAE0E1E315DD675BD1DBA5978F41C2FD4600B9F088930F8B849267CC01754AA418F3DF0D50183727E164506249B1EC174D6E1ECB9A0F5D7D785E68DB8151CD286E5A5363CA6B8A39E90D36D40E96B086F55A43A544F52B1D7B86D517504B0304140006080800B670623B2FA3FEDE290100001202000031
310
0000006662782F45374635344235342D363743322D343832342D383044432D4334454645303536354442422F636F72652E786D6C8D515B6EC32010BC0AE22B55850D2E386E848994D7097A0117488A1283C5A3CAF10BB523B57FF961D1ECCCECC0F2ED7DBC816FED8371B687A4C210682B9D32F6D2C314CFA883602BB8772E
310
FEA141608751F7B0C050F08B77695A20E96CD43666D43AA5177008414708E42D5F7A18E4971E876A483133C2B59A06791D2EBA22556E679EE021FA1C00CC43CA09C5717D6274C7286AD7FB06D1AEA1A8C3873DDAD3E3E98859CB0EBB1DAF67A1E02919B5C88DCA71CCD968FFAC49110B1ECDF8882FBD1EA256503418BF2342
310
106E3E08DD60B6A1EC15771B8C795DE8FF4469524F8A92B1F1AD59E2CEB20005E1F5DC105CB9F4797B84D1F7C9F908CABC55D0F2050A5C61CC1AD2F27A26E6E767C7962E8E213A9FBF7775FDCC5CC266DB960A5E970DE5F2BBBE5CCB36C50F504B0304140006080800B670623B1B8617914E01000033030000300000006662
310
782F45374635344235342D363743322D343832342D383044432D4334454645303536354442422F636E782E786D6CD593C16EC32010447F0571AD6CE3D489D20813A9877E410FBD62D82434182CC055F3F75D1292E692438FBD206B7698593D61BEFD1E2DF982108D773D6D6B460938E5B571FB9ECE6957AD29D90A1EBC4F77
310
364A9C1CA1A759A682EF839FA72269D8C9D92654AD71C72206887E0E0A22CAF926B15E498B01E0AA19451807D01A34B919F16B070157417138917400F2F6FA41FCF0092A45DEE414C19BDC21783E4BD39D891265658C3D8DEA00A3ACE59CBC8678ACB54CB26EEB6BD7839D7E9348BE70AD9C8321B9BCA7F9A4A26C542347DE
310
E050F09802D22BA6749A800A394DD62899107273365E3C82CFC6A55557BC06C10774B7ABE7AEC3B0F34CF06446280E154026D0542C187BA9DAB6628BF7B6DBB0E5A65B3EB1F58631DE64BBE083F7B65CC218087E22CABB042E51D1F2268F1FE12B3EA24D40D63E9CFE00120194D60B9D5BC67FE6D39CDF37E20AF817881F50
310
4B0304140006080800B670623B29652116630500003C100000340000006662782F45374635344235342D363743322D343832342D383044432D4334454645303536354442422F6F626A656374732E786D6CAD575D739B3814FD2B0CFB0C989834C90EA1639B24E3E9A6EDD4D3CE3E64C623834CD8006224913AFDF57B040203
310
B65BEF871F0C12D2FD3CF7E8CA7FBFCB33E3957291B2E2D674ED8969D02262715A24B76625B7D6B569BC0F7CCE98EC2D338D82E4F4D654D366E0279C55A59E8AE99654991CCDDECFFF3444440B6A1A514684B83545F44C7362934AB2988A173B2692D8C97667BB76B3702836E1A47C1E092D09A78584A5982F20C5688C7287
310
C389E904BEA3BE07BEFAD7ABA6A75739B53F43FD69212429A20365233153D70BEF2E2E6FAC4BCF9B5ADEBB0BD79ADFCF43CBBD9A4E16EF168B9BD9DD0D140BC921495BC2E9D60C1E101B9E46BED37CEA2CD6861F3329624541A3DA7F7858DBAC25C6B4A4458C3CA654405BCFEBC970E8AAD8F43E4FD558ABEC4F9FE7557F47
310
4F506B7BFBEC5BCA367FC105710E2AB8A00A554D7CB4A30DFE26FBA86D18CBF4B75418399194A72433B274C3097F33032C554B027F2046A1932B842B0FCCC0DDCBEBDB8AD2F835768F59B9ADB24C41D30C6A64AF817F2A456D59FA83F2E3DA60137255A585BCD60EC9B7929AC18DEFD49381AF1ED30BFDB109A4B1CD488294
310
C3CDE6EBC8D185AABD6568061FEE37BB95AAC7E3CA4BCE4ACAA5820FA0D526AE7DAA2869B5EE5999531BE0CC20E6FBA07C41E43FA27CF7A6206F3CDD793B4F6B919C1462CB788EDCD893FA674CDA17AB7B3B7C019F8D561FAEE966FED562DFE98C1D12C6A9FC015C2A35D7FF3D7FC398F591DA4B5FE0BFA2C0189FEA50AE22
310
92817A1ED3020951A03432862970F976B33383259812CC8E5D240BBA801CBCF8CE2BBEE3BF910DB6AAD5F79E05123AE2DB33981FB1ACCB02B69D00CB014FD68AB573A7627EF9BFD4CC2C5C7D58557C4B22FAA88925A4DBB44825CECE3D78FB060D1231F0E885BE7D673C86A3874958F593906B5502D1563157814FDAC3420D
310
F69A070A22EC4B98E23CFF171A1E5311D12C23056555ABA53B8614563B92D17D02AAB009E8F46284624E5F53D5490C560CCCC2591FF1B45421EB0EBD8EA7ED13BE7C5D7E0428CD60FEF60779EB13E6664FF711CB185F6FDED60D139A001FF60CD1FD6D086F1D51474901E26B2CB794A343BC8ED3EDB612E0DD2351FCB65CF4
310
33D511C9E14B5B40ADC6A6263DB0336A8F700DDF56271A024E70B0B3629DE21847591E55DED73D56206AB927E46FAABC5C939C55853C274C93D69FD6FA4E78BF8B11DF898C9ECD60553FAD39283BA6F18984AA23E8884F83F45C5F5F859797B31B2B9C84A1E5B9DE9D35BFF25C6B76152E422F9C5DCC3D847F5801ED09D5AF
310
41441327A25FF15487F9EB725FB666F048A4701E9A827292E6F97569A32DF61DEC01C0BB8DCBBCCC684E0B49147C1FD54BF685A0AB18C868E6973949E819523E3DAC463660E68C7D9F55A9D1EFA3BD7A76A16AE1A810F95CE59B82A4D968A376DC2E8B44BBDD86B27B368CDE0ED548C7137DA860591A83706223A12CA712B4
310
7306DBF39C0A20A6DF95C7FAF670C6EED7A61F946493D1D6926782963813403548A78AE470DEF80D2D9CEAA26E4D1C76F60BFE74219A06527D6B82DF641A51616F703CAAC6A7160E08A00BEB4810A0274592A1B36E3675E36E978A0DE80727A0D6DF2D39A75BD27E0D8837276589537B40ABB56D5A41F48F1C6FCD3188C4EB
310
A6929D2FFB89CE995A4D00AE813BDD032DC48B56BD437DFDDC2DD7AED70C2272D63DE9A72068A45A92F0A4BE17A8A06B9366E16707AD80B1FC649459952097E74BB23805982B55E0401150A165964402AA8BDF9F3E7386BB686EDCA780C0D382E5392BF460A6EFB2C6EA1937D3F809B440D5F5435C4C5CF7A9EEFAF54564BD
310
2182DA24162F98680B4E7930C21A0079709CEAEB99A372305ABE0C0D7D6078105A83F6A0296DAEE1068A47DD1C55A9F4C9B2FC69E3EFD44B81028E963DF81B504B0304140006080000B670623B000000000000000000000000350000006662782F45374635344235342D363743322D343832342D383044432D433445464530
310
3536354442422F76657274696365732E62696E504B0304140006080800B670623BF270F1330600000004000000360000006662782F45374635344235342D363743322D343832342D383044432D4334454645303536354442422F747269616E676C65732E62696E636660600000504B0304140006080000B670623B00000000
310
0000000000000000370000006662782F45374635344235342D363743322D343832342D383044432D4334454645303536354442422F617474726962757465732E62696E504B0304140006080800B670623B08DA0BD19000000041010000360000006662782F45374635344235342D363743322D343832342D383044432D4334
310
454645303536354442422F6469726563746F72792E786D6C858F410AC3201045AF22B36F53E9A60B35CBEEBAE80D244E44489C6234F4F835464A48035D0DF398FF9F8AF63D0E6CC63039F212F8F9020C7D47C6792B21C5FE7403D62A1188E2E60C98D7234A5830286103A55745067B9D86B8A3CF9C7F90C11DE607FB144396
310
D7B6A82D282E9A152AD114D5EF2CB866EEE831B8EEA07A7BB5A8D7D61A2BAAEB7FD5F70921FF497D00504B0304140006080800B670623B6378F24DFF000000A00100003B0000006662782F45374635344235342D363743322D343832342D383044432D4334454645303536354442422F7265736F75726365732F636F72652E
310
786D6C8D504B6E833010BD0A9A6D65B0094E42641C85B639412F6099496225D8C89FAAC7AF09546A77DDCC8CDE47F3F4C4F16B7C149FE88371B603565228D06A37187BED20C50BD9437194C23B177FC9A0B06AC40E6618A4B87A97A615D2CE46B431A3D60DB8822A048C50E8473E3A08FA86A32A558A5911EEE5A4F45D5DB1
310
6465A6B34E8A107D0E502C4FE609D26370C96B0CA25A58295232C3AA3143FE692E063D485EF7F5AEE71BD2D2F39634AFFC44DAF7DD9E9CCE6F9CD25DCBFA762BAAD92C4534E34F46ED51451C40D694B6843142EB0FD61C283F34FC85EE0F948A6A96FF31A569F8A729191B37F51A77B105902C0779125254735F793DCBCC7B
310
EE567E03504B010214000A0000080000B670623B3DEE336E79000000790000001B00000000000000000000000000000000006175746F6465736B2D64657369676E2D7061636B6167652E786D6C504B01021400140006080800B670623BD486FD9CA0000000F40000001300000000000000000000000000B20000005B436F6E
310
74656E745F54797065735D2E786D6C504B01021400140006080800B670623BBC1638F5EC0000007C010000080000000000000000000000000083010000636F72652E786D6C504B01021400140006080800B670623B55019EA25F0000007C000000070000000000000000000000000095020000636E782E786D6C504B010214
310
00140006080800B670623B3586FFB671010000D40300000C00000000000000000000000000190300006662782F636F72652E786D6C504B01021400140006080800B670623B4220A0FF7D0000009D0000000B00000000000000000000000000B40400006662782F636E782E786D6C504B01021400140006080800B670623B2F
310
A3FEDE290100001202000031000000000000000000000000005A0500006662782F45374635344235342D363743322D343832342D383044432D4334454645303536354442422F636F72652E786D6C504B01021400140006080800B670623B1B8617914E010000330300003000000000000000000000000000D2060000666278
310
2F45374635344235342D363743322D343832342D383044432D4334454645303536354442422F636E782E786D6C504B01021400140006080800B670623B29652116630500003C10000034000000000000000000000000006E0800006662782F45374635344235342D363743322D343832342D383044432D4334454645303536
310
354442422F6F626A656374732E786D6C504B01021400140006080000B670623B0000000000000000000000003500000000000000000000000000230E00006662782F45374635344235342D363743322D343832342D383044432D4334454645303536354442422F76657274696365732E62696E504B01021400140006080800
310
B670623BF270F13306000000040000003600000000000000000000000000760E00006662782F45374635344235342D363743322D343832342D383044432D4334454645303536354442422F747269616E676C65732E62696E504B01021400140006080000B670623B0000000000000000000000003700000000000000000000
310
000000D00E00006662782F45374635344235342D363743322D343832342D383044432D4334454645303536354442422F617474726962757465732E62696E504B01021400140006080800B670623B08DA0BD190000000410100003600000000000000000000000000250F00006662782F45374635344235342D363743322D34
310
3832342D383044432D4334454645303536354442422F6469726563746F72792E786D6C504B01021400140006080800B670623B6378F24DFF000000A00100003B00000000000000000000000000091000006662782F45374635344235342D363743322D343832342D383044432D4334454645303536354442422F7265736F75
310
726365732F636F72652E786D6C504B0506000000000E000E0080040000611100000000
  0
XRECORD
  5
E
102
{ACAD_REACTORS
330
D
102
}
330
D
100
AcDbXrecord
280
     1
102
MATERIAL
148
0.0
149
0.0
149
0.0
 93
        0
 94
      127
282
     0
 72
     1
 77
     1
171
     1
175
     1
179
     1
273
     0
  0
XRECORD
  5
F
102
{ACAD_REACTORS
330
D
102
}
330
D
100
AcDbXrecord
280
     1
270
     1
271
     1
  0
XRECORD
  5
10
102
{ACAD_REACTORS
330
D
102
}
330
D
100
AcDbXrecord
280
     1
270
     1
271
     1
  0
XRECORD
  5
11
102
{ACAD_REACTORS
330
D
102
}
330
D
100
AcDbXrecord
280
     1
 70
     0
 90
1778669749
  1
9BF507EE-FAF7-4A99-A33D-4EE51894BC40
310
504B03040A0000080000B670623B3DEE336E79000000790000001B0000006175746F6465736B2D64657369676E2D7061636B6167652E786D6C3C3F786D6C2076657273696F6E3D22312E302220656E636F64696E673D227574662D3822203F3E3C666F726D6174733E3C666F726D61743E687474703A2F2F736368656D612E
310
6175746F6465736B2E636F6D2F64657369676E2D7061636B6167652F323030393C2F666F726D61743E3C2F666F726D6174733E504B0304140006080800B670623BD486FD9CA0000000F4000000130000005B436F6E74656E745F54797065735D2E786D6C7D8EC10E82300C865F65E91D8A1E8C310C0EEA1BF002731658846E
310
D98AC1B77784ABF1D8FE5FBFBF75BBCE937A534CCEB38643598122B6FEE978D0B0485F9C41B54DDD7D022595594E1A469170414C76A4D9A4D207E29CF43ECE46F218070CC6BECC4078ACAA135ACF422C856C0E68EA1BF5669944DDD7BCDE7B1F8E415D77AECB980613C2E4AC91FC167A2B244592486606FC29C8FD7F045B9A
310
EF7053A7E60B504B0304140006080800B670623BCA089DFFEC0000007C01000008000000636F72652E786D6C8D90416E83301045AF62CDB632D8402020E32882F604BD80653BC44AB011B6AB1EBF262152BBEB6A467FFE9B197D76FA9EEFE84BAFDE38DB03CD08206DA553C64E3DC470C1474027CE56E7C22F1B202B66DDC3
310
260367D3EAE2B24BD2D9A06D48AA754AEFA2F05E0740F29E9A1EBCBCEA59642286E4F0B76C11F226269DD15797E0188D42CF2346A57DE662F40ABCAEC77628C6120F654571D50C04B7F5B9C1E3997CD4F550BE3745C3F20DE62C98F9755FAE5A04AD801784B498524C8A4F5A75E4D055873772EC0861F966FF03C545FD138A
310
C686B2D8DF7D621E384D8F3C069CE55B16A93C824A75CB8DFF00504B0304140006080800B670623B55019EA25F0000007C00000007000000636E782E786D6C4DCB3B0E80201045D1AD90E915ED2CF8AC45050C11660C8261F98AB1B07AC9C97D42D718D865D3E909258CFD00CCE24AC6E326A164D74DC0B4128928FF326038
310
472BA13128B1252AC747C6BAB984FC68F0B87FE8960A5C09FE86CFB69FBA01504B0304140006080800B670623B68FC0B7272010000D40300000C0000006662782F636F72652E786D6CC5535B6E833010BC8AE5DF0A6C1E8124328E22D29EA01770C0A128602363A31CBFCB234A53A555FA553EC09AD9F5CE8C31DB5DDA060D
310
D2F4B556190E7C8A9154852E6B5565D8D993B7C668C799D1DA7E29C3488956667884316795D1AE5BA0422B2B950554E9522EA0E87B69312A1A5864B82F3E642B7CE12C54F467BF13C55954D20F7CA0A18EB3DE1A1080E621E31BF3D3F1C2C88C73E65C5D2E6C5DC2B4FA544B8379921C36797888BC3C8A032F4E73EA6D927D
310
EA1DF6F42D49F2E8350D5346C666CE6CDD5ED515460A2B4BCC434A375E1078347C0FE22D5D6DE3D50B5D6F2965642CBF6B725DF96493AB958DC245EEDCD6631E809089F8E61622B2A81703E8219C913144F84C09DF070D8140C8561C9BAB8F3340832CAC363130A576376A108D933095FA747AD0CF0B46E64E983A6D0EAE1F
310
CE089F9EF1FB8E70D44255604258581E9D1D75B259C3125A278D37D80B52DAB4A279CEC62F0EFF44DDC43F9454E8469BFF5244960322CBEF41C6FBC83F01504B0304140006080800B670623B0F71DDB67E0000009D0000000B0000006662782F636E782E786D6C4DCCD10A83201886E15B91FFDCA54DB73F502386BB8F5816
310
32D3703976F9ABD1C18E3E78F87855FB990379BBFCF2296AE02706C4C5471A7C9C349475A408A4352AA7B4FEDD80C47E761A7606A3A69CCA72D0E0C6BE8475D3E0E3F3409428EA6B27A84079A782899AA2EC1A7AE3ECCC2FD858CB2D544655BFD2B67BD87C01504B0304140006080800B670623BE134B4FB28010000120200
310
00310000006662782F38353834323741342D343835462D343034322D383541392D4331303331363839454531452F636F72652E786D6C8D515B6EC32010BC0AE22B55850D0EA424C24451959EA0172086A42831583CAA1CBF503B52FB971F16CDCECC0EACD8DFC71BF836215AEF7A481A0C817183D7D65D7A98D3197108F652
310
04EFD31F1A044E8DA6871586525C82CFD3020DDE25E352419DD76601558C264130DCCAA58771F832A36A544E8511AFCDA486ABBA988634A55D7852C4144A00300FA927949C71DABD1D28A29C7D208A6987383B6CD13BC16BB2E1DBE3911C453B0BA5C8D9EA456E758963CFD684674DAA588A64C747FC2118958C86B2C3788B
310
0841B8FB247487D98EB257CC77188BB6D2FF89F2A49F1465EBD2BA5BE2CEB2082511EDDC9042FB7CBA3DC298FBE4430275DE2A9AE1054ADC60CC08E3A29D89E5F9C5714317C7987C28DFBBBA9E0A97B0D97643A568EB864AF95D5FA9759BF207504B0304140006080800B670623B1B8617914E010000330300003000000066
310
62782F38353834323741342D343835462D343034322D383541392D4331303331363839454531452F636E782E786D6CD593C16EC32010447F0571AD6CE3D489D20813A9877E410FBD62D82434182CC055F3F75D1292E692438FBD206B7698593D61BEFD1E2DF982108D773D6D6B460938E5B571FB9ECE6957AD29D90A1EBC4F
310
77364A9C1CA1A759A682EF839FA72269D8C9D92654AD71C72206887E0E0A22CAF926B15E498B01E0AA19451807D01A34B919F16B070157417138917400F2F6FA41FCF0092A45DEE414C19BDC21783E4BD39D891265658C3D8DEA00A3ACE59CBC8678ACB54CB26EEB6BD7839D7E9348BE70AD9C8321B9BCA7F9A4A26C542347
310
DEE050F09802D22BA6749A800A394DD62899107273365E3C82CFC6A55557BC06C10774B7ABE7AEC3B0F34CF06446280E154026D0542C187BA9DAB6628BF7B6DBB0E5A65B3EB1F58631DE64BBE083F7B65CC218087E22CABB042E51D1F2268F1FE12B3EA24D40D63E9CFE00120194D60B9D5BC67FE6D39CDF37E20AF817881F
310
504B0304140006080800B670623B5933D422630500003B100000340000006662782F38353834323741342D343835462D343034322D383541392D4331303331363839454531452F6F626A656374732E786D6CAD575B6FA33814FE2B887D0642934E9B156594264D158D3A534DD4D13E548A0C38942D60649B4EBABF7E3F8321
310
40924EF6928780CDF1B97EE762EFF32E4B8D37CA45C2F21BD3B547A641F39045491EDF98A5DC5AD7A6F1D9F73863B243661A39C9E88DA9B64DDF8B392B0BBD15D12D295339D85DDEFE618890E6D434C2940871638AF08566C426A5641115AF764424B1E3EDCE76ED9AB0CF36E6A47819302D08A7B984A6D8CFC1C5A89572FB
310
CB91E9F89EA3BEFB9EFAD754E3D3544E654F5F7E920B49F2F040D880CDD89D2CEE2E2EA7D6E56432B6269F2E5CEB7679BBB0DCABF168FE693E9FCEEEA6102C240727AD09A75BD3BF876F78127A4EFDA9D5582B7E4CA590E5390D2BFB6161A5B3E618D182E611E2985001691DAB47FDA5AB7CD3F93C566B2DB2BB7D9E55DD13
310
1D468DEECDB3AB290BFE8409E21C54704115AA6AFF68436BFC8DF65E0B184BF5B74418199194272435D224E084BF9B3E481589EFF5D828747285706581E9BB7B7E5D5D911ABFC6EE312DB7659A2A689A7E85EC0DF04FA5A8344BFEA2FCB834E8845895492EAFB541F2BDA0A63FF59C6AD3F7D4637CA13FD68E34B629891172
310
98597F1D183A57B9B75A98FE9765B05BAB7C3C2EBCE0ACA05C2AF8005A4DE09AA7F29216EB9E15397500C6F47CBE77CA7778FE2BD277AF0AE2C693DD6437D1522427B9D8329E2136F6A8FA19A3E6C56ADF0E5F50CF06D48734EDCEBF22F69C56D97EC138153F804B85E6FABFC7AFEFB32E523BE1F3BD372418E363EDCA7548
310
52949E8724474014288D94610BB57C1BEC4C7F854A89CA8E5324F55B871CBC78CE1BBEE3BFE68D6A5589EF3C730474506FCFA8FCF0659516D0ED04580EEA6425581B77CAE797FF4BCECC16EB2FEB926F49481F746159D06D922712BD730FDEAE42BD40F42C7AA5EF3F198F60E86110D6DD20645A9480B795CF95E3E3A659A8
310
C55E724F408873315335CFFB8584874484344D494E59D94869DB90C26A5B64F49C802CAC1D3ABE18A098D3B7444D123D8A9E5AE8F5214F0AE5B2B6E9B575DA3E61CBD3EA2B4009FA940524DD1305FB6A1FB294F14DF0BEA90BA109ECE1481FDC3FFAE8D60E75141700BE82725371B4873751B2DD960265F788137FACE6DD40
310
B575E4F0A5C99F46629D92131467A41EE11ABD8D4CCC039CA0AFB37C93A08B232B8F0AEFCA1E0A1015DF13FC83322B362463652ECF71D3A8B1A7D1BE65DE1D62C44F22C317D35F574FEB16153BA2D13E543D10A80E74C4A65E78A6B7CBCBD1D5DD9DB59C2DAFACC96C3AB566E3F1C29ADCDD5DBAD7D3C9ED7C822ED74F80A6
310
41755310DE4443F44A9E68373FADF6596BFA0F440AE7BECE2727AE9F4F2B1B53B1E7E00CF0DD1E5C65454A339A4BA2D0FBA05ED2EF0443458F47BDBFCA484CCFE0F2ED7E3DD0013B679C7B5499467F0ECEEADDB9CA85A34CE44B99053949D2C1416DB85DE4B136BB7165FBAC0B7AB3542BED4F8CA182A549847A1319316519
310
95A83A67147B9E5101C47487F2485F1ECE38FD568F839204296D3479219888530154036E6528FBFBC66F98E0D4107563A2D7D9AFF8D389681A08F58D89F22693900A3B407754734FC51C10C010D6D640809EE4718AC1BA3ED4AEDB53CA37283F68805A7E4B72CEB0A4EDEAD5DD8C14059A76AFAA56BA6901E13F32BC51C720
310
12AF41295B5BF61BAD3195181FB506E6B40F4C10AF5AF40EF9F5B159AE5DD1F43C72D635E94310D45C2D49785C5D0B94D3B54AB3C5A38349C0587D338AB48C11CBF339599C02CCA54A70A008A8D03C0B2201D5F9EFCF8F9CE12A9A19CB0410789EB32C63B95ECCF455D658BFE0621A3DA32C5075FB101723D77DAE867E7D0F
310
D90444509B44E2151B4DC2290B065803200FBAA9BE9D392A0603F2D5C2D00D6302A615680F66D2FA166E2079D4C551A54AB758161FCEFD4E450A14704CECFEDF504B0304140006080000B670623B000000000000000000000000350000006662782F38353834323741342D343835462D343034322D383541392D4331303331
310
363839454531452F76657274696365732E62696E504B0304140006080800B670623BF270F1330600000004000000360000006662782F38353834323741342D343835462D343034322D383541392D4331303331363839454531452F747269616E676C65732E62696E636660600000504B0304140006080000B670623B000000
310
000000000000000000370000006662782F38353834323741342D343835462D343034322D383541392D4331303331363839454531452F617474726962757465732E62696E504B0304140006080800B670623B08DA0BD19000000041010000360000006662782F38353834323741342D343835462D343034322D383541392D43
310
31303331363839454531452F6469726563746F72792E786D6C858F410AC3201045AF22B36F53E9A60B35CBEEBAE80D244E44489C6234F4F835464A48035D0DF398FF9F8AF63D0E6CC63039F212F8F9020C7D47C6792B21C5FE7403D62A1188E2E60C98D7234A5830286103A55745067B9D86B8A3CF9C7F90C11DE607FB1443
310
96D7B6A82D282E9A152AD114D5EF2CB866EEE831B8EEA07A7BB5A8D7D61A2BAAEB7FD5F70921FF497D00504B0304140006080800B670623BD9A3B367FE000000A00100003B0000006662782F38353834323741342D343835462D343034322D383541392D4331303331363839454531452F7265736F75726365732F636F7265
310
2E786D6C8D504B6E833010BD0A9A6D65B01D0201194711694FD00B586642AD043BF2A7EAF16B122AB5BB6E6646EFA3797AE2F8B5DC8A4FF4C1383B002B291468B59B8C9D0748F1420E501CA5F0CEC55F3228AC5A708015062966EFD27D83B4B3116DCCA875136EA00A012314FA968F0182FEC045952AC5AC08D7F2AEF455CD
310
58B232D3592745883E07289E4FD609D26370C96B0CA27AB252A464A64D63A6FCD35C0C7A904D73EE467EE664DCD58CD4ED4849D79C5A723ED1B7A61977AF2D6F45B59AA58866F9C9A83DAA8813484E6947182394BFB3BAA7FBBEDEBFD0434FA9A856F91F53BA4FFF342563E38E6F719FB60092E5200F428A6AED2BAF479979
310
AFDDCA6F504B010214000A0000080000B670623B3DEE336E79000000790000001B00000000000000000000000000000000006175746F6465736B2D64657369676E2D7061636B6167652E786D6C504B01021400140006080800B670623BD486FD9CA0000000F40000001300000000000000000000000000B20000005B436F6E
310
74656E745F54797065735D2E786D6C504B01021400140006080800B670623BCA089DFFEC0000007C010000080000000000000000000000000083010000636F72652E786D6C504B01021400140006080800B670623B55019EA25F0000007C000000070000000000000000000000000095020000636E782E786D6C504B010214
310
00140006080800B670623B68FC0B7272010000D40300000C00000000000000000000000000190300006662782F636F72652E786D6C504B01021400140006080800B670623B0F71DDB67E0000009D0000000B00000000000000000000000000B50400006662782F636E782E786D6C504B01021400140006080800B670623BE1
310
34B4FB280100001202000031000000000000000000000000005C0500006662782F38353834323741342D343835462D343034322D383541392D4331303331363839454531452F636F72652E786D6C504B01021400140006080800B670623B1B8617914E010000330300003000000000000000000000000000D3060000666278
310
2F38353834323741342D343835462D343034322D383541392D4331303331363839454531452F636E782E786D6C504B01021400140006080800B670623B5933D422630500003B10000034000000000000000000000000006F0800006662782F38353834323741342D343835462D343034322D383541392D4331303331363839
310
454531452F6F626A656374732E786D6C504B01021400140006080000B670623B0000000000000000000000003500000000000000000000000000240E00006662782F38353834323741342D343835462D343034322D383541392D4331303331363839454531452F76657274696365732E62696E504B01021400140006080800
310
B670623BF270F13306000000040000003600000000000000000000000000770E00006662782F38353834323741342D343835462D343034322D383541392D4331303331363839454531452F747269616E676C65732E62696E504B01021400140006080000B670623B0000000000000000000000003700000000000000000000
310
000000D10E00006662782F38353834323741342D343835462D343034322D383541392D4331303331363839454531452F617474726962757465732E62696E504B01021400140006080800B670623B08DA0BD190000000410100003600000000000000000000000000260F00006662782F38353834323741342D343835462D34
310
3034322D383541392D4331303331363839454531452F6469726563746F72792E786D6C504B01021400140006080800B670623BD9A3B367FE000000A00100003B000000000000000000000000000A1000006662782F38353834323741342D343835462D343034322D383541392D4331303331363839454531452F7265736F75
310
726365732F636F72652E786D6C504B0506000000000E000E0080040000611100000000
  0
XRECORD
  5
12
102
{ACAD_REACTORS
330
D
102
}
330
D
100
AcDbXrecord
280
     1
270
     1
271
     1
  0
XRECORD
  5
13
102
{ACAD_REACTORS
330
D
102
}
330
D
100
AcDbXrecord
280
     1
270
     1
271
     1
  0
CELLSTYLEMAP
  5
1AC
102
{ACAD_REACTORS
330
46
102
}
330
46
100
AcDbCellStyleMap
 90
        3
300
CELLSTYLE
  1
TABLEFORMAT_BEGIN
 90
        5
170
     1
 91
        0
 92
    32768
 62
   257
 93
        1
300
CONTENTFORMAT
  1
CONTENTFORMAT_BEGIN
 90
        0
 91
        0
 92
      512
 93
        0
300

 40
0.0
140
1.0
 94
        5
 62
     0
340
21
144
0.25
309
CONTENTFORMAT_END
171
     1
301
MARGIN
  1
CELLMARGIN_BEGIN
 40
0.06
 40
0.06
 40
0.06
 40
0.06
 40
0.18
 40
0.18
309
CELLMARGIN_END
 94
        6
 95
        1
302
GRIDFORMAT
  1
GRIDFORMAT_BEGIN
 90
        0
 91
        1
 62
     0
 92
       -2
340
0
 93
        0
 40
0.045
309
GRIDFORMAT_END
 95
        2
302
GRIDFORMAT
  1
GRIDFORMAT_BEGIN
 90
        0
 91
        1
 62
     0
 92
       -2
340
0
 93
        0
 40
0.045
309
GRIDFORMAT_END
 95
        4
302
GRIDFORMAT
  1
GRIDFORMAT_BEGIN
 90
        0
 91
        1
 62
     0
 92
       -2
340
0
 93
        0
 40
0.045
309
GRIDFORMAT_END
 95
        8
302
GRIDFORMAT
  1
GRIDFORMAT_BEGIN
 90
        0
 91
        1
 62
     0
 92
       -2
340
0
 93
        0
 40
0.045
309
GRIDFORMAT_END
 95
       16
302
GRIDFORMAT
  1
GRIDFORMAT_BEGIN
 90
        0
 91
        1
 62
     0
 92
       -2
340
0
 93
        0
 40
0.045
309
GRIDFORMAT_END
 95
       32
302
GRIDFORMAT
  1
GRIDFORMAT_BEGIN
 90
        0
 91
        1
 62
     0
 92
       -2
340
0
 93
        0
 40
0.045
309
GRIDFORMAT_END
309
TABLEFORMAT_END
  1
CELLSTYLE_BEGIN
 90
        1
 91
        1
300
_TITLE
309
CELLSTYLE_END
300
CELLSTYLE
  1
TABLEFORMAT_BEGIN
 90
        5
170
     1
 91
        0
 92
        0
 62
   257
 93
        1
300
CONTENTFORMAT
  1
CONTENTFORMAT_BEGIN
 90
        0
 91
        0
 92
      512
 93
        0
300

 40
0.0
140
1.0
 94
        5
 62
     0
340
21
144
0.18
309
CONTENTFORMAT_END
171
     1
301
MARGIN
  1
CELLMARGIN_BEGIN
 40
0.06
 40
0.06
 40
0.06
 40
0.06
 40
0.18
 40
0.18
309
CELLMARGIN_END
 94
        6
 95
        1
302
GRIDFORMAT
  1
GRIDFORMAT_BEGIN
 90
        0
 91
        1
 62
     0
 92
       -2
340
0
 93
        0
 40
0.045
309
GRIDFORMAT_END
 95
        2
302
GRIDFORMAT
  1
GRIDFORMAT_BEGIN
 90
        0
 91
        1
 62
     0
 92
       -2
340
0
 93
        0
 40
0.045
309
GRIDFORMAT_END
 95
        4
302
GRIDFORMAT
  1
GRIDFORMAT_BEGIN
 90
        0
 91
        1
 62
     0
 92
       -2
340
0
 93
        0
 40
0.045
309
GRIDFORMAT_END
 95
        8
302
GRIDFORMAT
  1
GRIDFORMAT_BEGIN
 90
        0
 91
        1
 62
     0
 92
       -2
340
0
 93
        0
 40
0.045
309
GRIDFORMAT_END
 95
       16
302
GRIDFORMAT
  1
GRIDFORMAT_BEGIN
 90
        0
 91
        1
 62
     0
 92
       -2
340
0
 93
        0
 40
0.045
309
GRIDFORMAT_END
 95
       32
302
GRIDFORMAT
  1
GRIDFORMAT_BEGIN
 90
        0
 91
        1
 62
     0
 92
       -2
340
0
 93
        0
 40
0.045
309
GRIDFORMAT_END
309
TABLEFORMAT_END
  1
CELLSTYLE_BEGIN
 90
        2
 91
        1
300
_HEADER
309
CELLSTYLE_END
300
CELLSTYLE
  1
TABLEFORMAT_BEGIN
 90
        5
170
     1
 91
        0
 92
        0
 62
   257
 93
        1
300
CONTENTFORMAT
  1
CONTENTFORMAT_BEGIN
 90
        0
 91
        0
 92
      512
 93
        0
300

 40
0.0
140
1.0
 94
        2
 62
     0
340
21
144
0.18
309
CONTENTFORMAT_END
171
     1
301
MARGIN
  1
CELLMARGIN_BEGIN
 40
0.06
 40
0.06
 40
0.06
 40
0.06
 40
0.18
 40
0.18
309
CELLMARGIN_END
 94
        6
 95
        1
302
GRIDFORMAT
  1
GRIDFORMAT_BEGIN
 90
        0
 91
        1
 62
     0
 92
       -2
340
0
 93
        0
 40
0.045
309
GRIDFORMAT_END
 95
        2
302
GRIDFORMAT
  1
GRIDFORMAT_BEGIN
 90
        0
 91
        1
 62
     0
 92
       -2
340
0
 93
        0
 40
0.045
309
GRIDFORMAT_END
 95
        4
302
GRIDFORMAT
  1
GRIDFORMAT_BEGIN
 90
        0
 91
        1
 62
     0
 92
       -2
340
0
 93
        0
 40
0.045
309
GRIDFORMAT_END
 95
        8
302
GRIDFORMAT
  1
GRIDFORMAT_BEGIN
 90
        0
 91
        1
 62
     0
 92
       -2
340
0
 93
        0
 40
0.045
309
GRIDFORMAT_END
 95
       16
302
GRIDFORMAT
  1
GRIDFORMAT_BEGIN
 90
        0
 91
        1
 62
     0
 92
       -2
340
0
 93
        0
 40
0.045
309
GRIDFORMAT_END
 95
       32
302
GRIDFORMAT
  1
GRIDFORMAT_BEGIN
 90
        0
 91
        1
 62
     0
 92
       -2
340
0
 93
        0
 40
0.045
309
GRIDFORMAT_END
309
TABLEFORMAT_END
  1
CELLSTYLE_BEGIN
 90
        3
 91
        2
300
_DATA
309
CELLSTYLE_END
  0
XRECORD
  5
1B4
102
{ACAD_REACTORS
330
46
102
}
330
46
100
AcDbXrecord
280
     1
102
ACAD_ROUNDTRIP_PRE2007_TABLESTYLE
 90
      512
 91
        0
  1

 92
      512
 93
        0
  2

 94
      512
 95
        0
  3

  0
XRECORD
  5
1B3
102
{ACAD_REACTORS
330
1B2
102
}
330
1B2
100
AcDbXrecord
280
     1
102
RTVSPost2010Prop28
280
     1
102
RTVSPost2010PropOp28
 70
     1
102
RTVSPost2010Prop29
280
     1
102
RTVSPost2010PropOp29
 70
     1
102
RTVSPost2010Prop30
280
     0
102
RTVSPost2010PropOp30
 70
     1
102
RTVSPost2010Prop31
280
     0
102
RTVSPost2010PropOp31
 70
     1
102
RTVSPost2010Prop32
280
     0
102
RTVSPost2010PropOp32
 70
     1
102
RTVSPost2010Prop33
280
     0
102
RTVSPost2010PropOp33
 70
     1
102
RTVSPost2010Prop34
280
     0
102
RTVSPost2010PropOp34
 70
     1
102
RTVSPost2010Prop35
280
     0
102
RTVSPost2010PropOp35
 70
     1
102
RTVSPost2010Prop36
280
     0
102
RTVSPost2010PropOp36
 70
     1
102
RTVSPost2010Prop37
 90
       50
102
RTVSPost2010PropOp37
 70
     1
102
RTVSPost2010Prop38
140
0.0
102
RTVSPost2010PropOp38
 70
     1
102
RTVSPost2010Prop39
140
1.0
102
RTVSPost2010PropOp39
 70
     1
102
RTVSPost2010Prop40
 90
        0
102
RTVSPost2010PropOp40
 70
     1
102
RTVSPost2010Prop41ColorIndex
 90
       18
102
RTVSPost2010Prop41ColorRGB
 90
        0
102
RTVSPost2010PropOp41
 70
     1
102
RTVSPost2010Prop42
 90
       50
102
RTVSPost2010PropOp42
 70
     1
102
RTVSPost2010Prop43
 90
        3
102
RTVSPost2010PropOp43
 70
     1
102
RTVSPost2010Prop44ColorIndex
 90
        5
102
RTVSPost2010Prop44ColorRGB
 90
      255
102
RTVSPost2010PropOp44
 70
     1
102
RTVSPost2010Prop45
280
     0
102
RTVSPost2010PropOp45
 70
     1
102
RTVSPost2010Prop46
 90
       50
102
RTVSPost2010PropOp46
 70
     1
102
RTVSPost2010Prop47
 90
       50
102
RTVSPost2010PropOp47
 70
     1
102
RTVSPost2010Prop48
 90
       50
102
RTVSPost2010PropOp48
 70
     1
102
RTVSPost2010Prop49
280
     0
102
RTVSPost2010PropOp49
 70
     1
102
RTVSPost2010Prop50
 90
       50
102
RTVSPost2010PropOp50
 70
     1
102
RTVSPost2010Prop51ColorIndex
 90
      256
102
RTVSPost2010Prop51ColorRGB
 90
-16777216
102
RTVSPost2010PropOp51
 70
     0
102
RTVSPost2010Prop52
140
1.0
102
RTVSPost2010PropOp52
 70
     0
102
RTVSPost2010Prop53
 90
        2
102
RTVSPost2010PropOp53
 70
     1
102
RTVSPost2010Prop54
  1
strokes_ogs.tif
102
RTVSPost2010PropOp54
 70
     1
102
RTVSPost2010Prop55
280
     0
102
RTVSPost2010PropOp55
 70
     1
102
RTVSPost2010Prop56
140
1.0
102
RTVSPost2010PropOp56
 70
     1
102
RTVSPost2010Prop57
140
1.0
102
RTVSPost2010PropOp57
 70
     1
102
RTVSPropertyOp0
 70
     1
102
RTVSPropertyOp1
 70
     1
102
RTVSPropertyOp2
 70
     1
102
RTVSPropertyOp3
 70
     1
102
RTVSPropertyOp4
 70
     1
102
RTVSPropertyOp5
 70
     1
102
RTVSPropertyOp6
 70
     1
102
RTVSPropertyOp7
 70
     1
102
RTVSPropertyOp8
 70
     1
102
RTVSPropertyOp9
 70
     1
102
RTVSPropertyOp10
 70
     1
102
RTVSPropertyOp11
 70
     1
102
RTVSPropertyOp12
 70
     1
102
RTVSPropertyOp13
 70
     1
102
RTVSPropertyOp14
 70
     1
102
RTVSPropertyOp15
 70
     1
102
RTVSPropertyOp16
 70
     1
102
RTVSPropertyOp17
 70
     1
102
RTVSPropertyOp18
 70
     1
102
RTVSPropertyOp19
 70
     1
102
RTVSPropertyOp20
 70
     1
102
RTVSPropertyOp21
 70
     1
102
RTVSPropertyOp22
 70
     1
102
RTVSPropertyOp23
 70
     1
102
RTVSPropertyOp24
 70
     1
102
RTVSPropertyOp25
 70
     1
102
RTVSPropertyOp26
 70
     1
102
RTVSPropertyOp27
 70
     1
102
RTVSPropertyOp28
 70
     1
102
RTVSPropertyOp29
 70
     1
102
RTVSPropertyOp30
 70
     1
102
RTVSPropertyOp31
 70
     1
102
RTVSPropertyOp32
 70
     1
102
RTVSPropertyOp33
 70
     1
102
RTVSPropertyOp34
 70
     1
102
RTVSPropertyOp35
 70
     1
102
RTVSPropertyOp36
 70
     1
102
RTVSPropertyOp37
 70
     1
102
RTVSPropertyOp38
 70
     1
102
RTVSPropertyOp39
 70
     1
102
RTVSPropertyOp40
 70
     1
102
RTVSPropertyOp41
 70
     1
102
RTVSPropertyOp42
 70
     1
102
RTVSPropertyOp43
 70
     1
102
RTVSPropertyOp44
 70
     1
102
RTVSPropertyOp45
 70
     1
102
RTVSPropertyOp46
 70
     1
102
RTVSPropertyOp47
 70
     1
102
RTVSPropertyOp48
 70
     1
102
RTVSPropertyOp49
 70
     1
102
RTVSPropertyOp50
 70
     1
102
RTVSPropertyOp51
 70
     0
102
RTVSPropertyOp52
 70
     0
102
RTVSPropertyOp53
 70
     1
102
RTVSPropertyOp54
 70
     1
102
RTVSPropertyOp55
 70
     1
102
RTVSPropertyOp56
 70
     1
102
RTVSPropertyOp57
 70
     1
102
RTVSPropertyOp58
 70
     1
102
RTVSPropertyOp59
 70
     1
102
RTVSPropertyOp60
 70
     1
102
RTVSPropertyOp61
 70
     1
102
RTVSPropertyOp62
 70
     1
  0
XRECORD
  5
1B6
102
{ACAD_REACTORS
330
1B5
102
}
330
1B5
100
AcDbXrecord
280
     1
102
RTVSPost2010Prop28
280
     0
102
RTVSPost2010PropOp28
 70
     1
102
RTVSPost2010Prop29
280
     1
102
RTVSPost2010PropOp29
 70
     1
102
RTVSPost2010Prop30
280
     1
102
RTVSPost2010PropOp30
 70
     1
102
RTVSPost2010Prop31
280
     0
102
RTVSPost2010PropOp31
 70
     1
102
RTVSPost2010Prop32
280
     0
102
RTVSPost2010PropOp32
 70
     1
102
RTVSPost2010Prop33
280
     0
102
RTVSPost2010PropOp33
 70
     1
102
RTVSPost2010Prop34
280
     0
102
RTVSPost2010PropOp34
 70
     1
102
RTVSPost2010Prop35
280
     0
102
RTVSPost2010PropOp35
 70
     1
102
RTVSPost2010Prop36
280
     0
102
RTVSPost2010PropOp36
 70
     1
102
RTVSPost2010Prop37
 90
       50
102
RTVSPost2010PropOp37
 70
     1
102
RTVSPost2010Prop38
140
0.0
102
RTVSPost2010PropOp38
 70
     1
102
RTVSPost2010Prop39
140
1.0
102
RTVSPost2010PropOp39
 70
     1
102
RTVSPost2010Prop40
 90
        0
102
RTVSPost2010PropOp40
 70
     1
102
RTVSPost2010Prop41ColorIndex
 90
       18
102
RTVSPost2010Prop41ColorRGB
 90
        0
102
RTVSPost2010PropOp41
 70
     1
102
RTVSPost2010Prop42
 90
       50
102
RTVSPost2010PropOp42
 70
     1
102
RTVSPost2010Prop43
 90
        3
102
RTVSPost2010PropOp43
 70
     1
102
RTVSPost2010Prop44ColorIndex
 90
        5
102
RTVSPost2010Prop44ColorRGB
 90
      255
102
RTVSPost2010PropOp44
 70
     1
102
RTVSPost2010Prop45
280
     0
102
RTVSPost2010PropOp45
 70
     1
102
RTVSPost2010Prop46
 90
       50
102
RTVSPost2010PropOp46
 70
     1
102
RTVSPost2010Prop47
 90
       50
102
RTVSPost2010PropOp47
 70
     1
102
RTVSPost2010Prop48
 90
       50
102
RTVSPost2010PropOp48
 70
     1
102
RTVSPost2010Prop49
280
     0
102
RTVSPost2010PropOp49
 70
     1
102
RTVSPost2010Prop50
 90
       50
102
RTVSPost2010PropOp50
 70
     1
102
RTVSPost2010Prop51ColorIndex
 90
      256
102
RTVSPost2010Prop51ColorRGB
 90
-16777216
102
RTVSPost2010PropOp51
 70
     0
102
RTVSPost2010Prop52
140
1.0
102
RTVSPost2010PropOp52
 70
     0
102
RTVSPost2010Prop53
 90
        2
102
RTVSPost2010PropOp53
 70
     1
102
RTVSPost2010Prop54
  1
strokes_ogs.tif
102
RTVSPost2010PropOp54
 70
     1
102
RTVSPost2010Prop55
280
     0
102
RTVSPost2010PropOp55
 70
     1
102
RTVSPost2010Prop56
140
1.0
102
RTVSPost2010PropOp56
 70
     1
102
RTVSPost2010Prop57
140
1.0
102
RTVSPost2010PropOp57
 70
     1
102
RTVSPropertyOp0
 70
     1
102
RTVSPropertyOp1
 70
     1
102
RTVSPropertyOp2
 70
     1
102
RTVSPropertyOp3
 70
     1
102
RTVSPropertyOp4
 70
     1
102
RTVSPropertyOp5
 70
     1
102
RTVSPropertyOp6
 70
     1
102
RTVSPropertyOp7
 70
     1
102
RTVSPropertyOp8
 70
     1
102
RTVSPropertyOp9
 70
     1
102
RTVSPropertyOp10
 70
     1
102
RTVSPropertyOp11
 70
     1
102
RTVSPropertyOp12
 70
     1
102
RTVSPropertyOp13
 70
     1
102
RTVSPropertyOp14
 70
     1
102
RTVSPropertyOp15
 70
     1
102
RTVSPropertyOp16
 70
     1
102
RTVSPropertyOp17
 70
     1
102
RTVSPropertyOp18
 70
     1
102
RTVSPropertyOp19
 70
     1
102
RTVSPropertyOp20
 70
     1
102
RTVSPropertyOp21
 70
     1
102
RTVSPropertyOp22
 70
     1
102
RTVSPropertyOp23
 70
     1
102
RTVSPropertyOp24
 70
     1
102
RTVSPropertyOp25
 70
     1
102
RTVSPropertyOp26
 70
     1
102
RTVSPropertyOp27
 70
     1
102
RTVSPropertyOp28
 70
     1
102
RTVSPropertyOp29
 70
     1
102
RTVSPropertyOp30
 70
     1
102
RTVSPropertyOp31
 70
     1
102
RTVSPropertyOp32
 70
     1
102
RTVSPropertyOp33
 70
     1
102
RTVSPropertyOp34
 70
     1
102
RTVSPropertyOp35
 70
     1
102
RTVSPropertyOp36
 70
     1
102
RTVSPropertyOp37
 70
     1
102
RTVSPropertyOp38
 70
     1
102
RTVSPropertyOp39
 70
     1
102
RTVSPropertyOp40
 70
     1
102
RTVSPropertyOp41
 70
     1
102
RTVSPropertyOp42
 70
     1
102
RTVSPropertyOp43
 70
     1
102
RTVSPropertyOp44
 70
     1
102
RTVSPropertyOp45
 70
     1
102
RTVSPropertyOp46
 70
     1
102
RTVSPropertyOp47
 70
     1
102
RTVSPropertyOp48
 70
     1
102
RTVSPropertyOp49
 70
     1
102
RTVSPropertyOp50
 70
     1
102
RTVSPropertyOp51
 70
     0
102
RTVSPropertyOp52
 70
     0
102
RTVSPropertyOp53
 70
     1
102
RTVSPropertyOp54
 70
     1
102
RTVSPropertyOp55
 70
     1
102
RTVSPropertyOp56
 70
     1
102
RTVSPropertyOp57
 70
     1
102
RTVSPropertyOp58
 70
     1
102
RTVSPropertyOp59
 70
     1
102
RTVSPropertyOp60
 70
     1
102
RTVSPropertyOp61
 70
     1
102
RTVSPropertyOp62
 70
     1
  0
XRECORD
  5
1B8
102
{ACAD_REACTORS
330
1B7
102
}
330
1B7
100
AcDbXrecord
280
     1
102
RTVSPost2010Prop28
280
     0
102
RTVSPost2010PropOp28
 70
     1
102
RTVSPost2010Prop29
280
     1
102
RTVSPost2010PropOp29
 70
     1
102
RTVSPost2010Prop30
280
     1
102
RTVSPost2010PropOp30
 70
     1
102
RTVSPost2010Prop31
280
     0
102
RTVSPost2010PropOp31
 70
     1
102
RTVSPost2010Prop32
280
     0
102
RTVSPost2010PropOp32
 70
     1
102
RTVSPost2010Prop33
280
     0
102
RTVSPost2010PropOp33
 70
     1
102
RTVSPost2010Prop34
280
     0
102
RTVSPost2010PropOp34
 70
     1
102
RTVSPost2010Prop35
280
     0
102
RTVSPost2010PropOp35
 70
     1
102
RTVSPost2010Prop36
280
     0
102
RTVSPost2010PropOp36
 70
     1
102
RTVSPost2010Prop37
 90
       50
102
RTVSPost2010PropOp37
 70
     1
102
RTVSPost2010Prop38
140
0.0
102
RTVSPost2010PropOp38
 70
     1
102
RTVSPost2010Prop39
140
1.0
102
RTVSPost2010PropOp39
 70
     1
102
RTVSPost2010Prop40
 90
        0
102
RTVSPost2010PropOp40
 70
     1
102
RTVSPost2010Prop41ColorIndex
 90
       18
102
RTVSPost2010Prop41ColorRGB
 90
        0
102
RTVSPost2010PropOp41
 70
     1
102
RTVSPost2010Prop42
 90
       50
102
RTVSPost2010PropOp42
 70
     1
102
RTVSPost2010Prop43
 90
        3
102
RTVSPost2010PropOp43
 70
     1
102
RTVSPost2010Prop44ColorIndex
 90
        5
102
RTVSPost2010Prop44ColorRGB
 90
      255
102
RTVSPost2010PropOp44
 70
     1
102
RTVSPost2010Prop45
280
     0
102
RTVSPost2010PropOp45
 70
     1
102
RTVSPost2010Prop46
 90
       50
102
RTVSPost2010PropOp46
 70
     1
102
RTVSPost2010Prop47
 90
       50
102
RTVSPost2010PropOp47
 70
     1
102
RTVSPost2010Prop48
 90
       50
102
RTVSPost2010PropOp48
 70
     1
102
RTVSPost2010Prop49
280
     0
102
RTVSPost2010PropOp49
 70
     1
102
RTVSPost2010Prop50
 90
       50
102
RTVSPost2010PropOp50
 70
     1
102
RTVSPost2010Prop51ColorIndex
 90
      256
102
RTVSPost2010Prop51ColorRGB
 90
-16777216
102
RTVSPost2010PropOp51
 70
     0
102
RTVSPost2010Prop52
140
1.0
102
RTVSPost2010PropOp52
 70
     0
102
RTVSPost2010Prop53
 90
        2
102
RTVSPost2010PropOp53
 70
     1
102
RTVSPost2010Prop54
  1
strokes_ogs.tif
102
RTVSPost2010PropOp54
 70
     1
102
RTVSPost2010Prop55
280
     0
102
RTVSPost2010PropOp55
 70
     1
102
RTVSPost2010Prop56
140
1.0
102
RTVSPost2010PropOp56
 70
     1
102
RTVSPost2010Prop57
140
1.0
102
RTVSPost2010PropOp57
 70
     1
102
RTVSPropertyOp0
 70
     1
102
RTVSPropertyOp1
 70
     1
102
RTVSPropertyOp2
 70
     1
102
RTVSPropertyOp3
 70
     1
102
RTVSPropertyOp4
 70
     1
102
RTVSPropertyOp5
 70
     1
102
RTVSPropertyOp6
 70
     1
102
RTVSPropertyOp7
 70
     1
102
RTVSPropertyOp8
 70
     1
102
RTVSPropertyOp9
 70
     1
102
RTVSPropertyOp10
 70
     1
102
RTVSPropertyOp11
 70
     1
102
RTVSPropertyOp12
 70
     1
102
RTVSPropertyOp13
 70
     1
102
RTVSPropertyOp14
 70
     1
102
RTVSPropertyOp15
 70
     1
102
RTVSPropertyOp16
 70
     1
102
RTVSPropertyOp17
 70
     1
102
RTVSPropertyOp18
 70
     1
102
RTVSPropertyOp19
 70
     1
102
RTVSPropertyOp20
 70
     1
102
RTVSPropertyOp21
 70
     1
102
RTVSPropertyOp22
 70
     1
102
RTVSPropertyOp23
 70
     1
102
RTVSPropertyOp24
 70
     1
102
RTVSPropertyOp25
 70
     1
102
RTVSPropertyOp26
 70
     1
102
RTVSPropertyOp27
 70
     1
102
RTVSPropertyOp28
 70
     1
102
RTVSPropertyOp29
 70
     1
102
RTVSPropertyOp30
 70
     1
102
RTVSPropertyOp31
 70
     1
102
RTVSPropertyOp32
 70
     1
102
RTVSPropertyOp33
 70
     1
102
RTVSPropertyOp34
 70
     1
102
RTVSPropertyOp35
 70
     1
102
RTVSPropertyOp36
 70
     1
102
RTVSPropertyOp37
 70
     1
102
RTVSPropertyOp38
 70
     1
102
RTVSPropertyOp39
 70
     1
102
RTVSPropertyOp40
 70
     1
102
RTVSPropertyOp41
 70
     1
102
RTVSPropertyOp42
 70
     1
102
RTVSPropertyOp43
 70
     1
102
RTVSPropertyOp44
 70
     1
102
RTVSPropertyOp45
 70
     1
102
RTVSPropertyOp46
 70
     1
102
RTVSPropertyOp47
 70
     1
102
RTVSPropertyOp48
 70
     1
102
RTVSPropertyOp49
 70
     1
102
RTVSPropertyOp50
 70
     1
102
RTVSPropertyOp51
 70
     0
102
RTVSPropertyOp52
 70
     0
102
RTVSPropertyOp53
 70
     1
102
RTVSPropertyOp54
 70
     1
102
RTVSPropertyOp55
 70
     1
102
RTVSPropertyOp56
 70
     1
102
RTVSPropertyOp57
 70
     1
102
RTVSPropertyOp58
 70
     1
102
RTVSPropertyOp59
 70
     1
102
RTVSPropertyOp60
 70
     1
102
RTVSPropertyOp61
 70
     1
102
RTVSPropertyOp62
 70
     1
  0
ENDSEC
  0
EOF
