  0
SECTION
  2
HEADER
  9
$ACADVER
  1
AC1009
  9
$DWGCODEPAGE
  3
ansi_1252
  9
$INSBASE
 10
0.0
 20
0.0
 30
0.0
  9
$EXTMIN
 10
0.0
 20
5.606902862292344
 30
0.0
  9
$EXTMAX
 10
378.5098663331174
 20
296.3428267395168
 30
0.0
  9
$LIMMIN
 10
0.0
 20
0.0
  9
$LIMMAX
 10
12.0
 20
9.0
  9
$ORTHOMODE
 70
     0
  9
$REGENMODE
 70
     1
  9
$FILLMODE
 70
     1
  9
$QTEXTMODE
 70
     0
  9
$MIRRTEXT
 70
     0
  9
$DRAGMODE
 70
     2
  9
$LTSCALE
 40
1.0
  9
$OSMODE
 70
  4791
  9
$ATTMODE
 70
     1
  9
$TEXTSIZE
 40
0.2
  9
$TRACEWID
 40
0.05
  9
$TEXTSTYLE
  7
STANDARD
  9
$CLAYER
  8
0
  9
$CELTYPE
  6
BYLAYER
  9
$CECOLOR
 62
   256
  9
$DIMSCALE
 40
1.0
  9
$DIMASZ
 40
0.18
  9
$DIMEXO
 40
0.0625
  9
$DIMDLI
 40
0.38
  9
$DIMRND
 40
0.0
  9
$DIMDLE
 40
0.0
  9
$DIMEXE
 40
0.18
  9
$DIMTP
 40
0.0
  9
$DIMTM
 40
0.0
  9
$DIMTXT
 40
0.18
  9
$DIMCEN
 40
0.09
  9
$DIMTSZ
 40
0.0
  9
$DIMTOL
 70
     0
  9
$DIMLIM
 70
     0
  9
$DIMTIH
 70
     1
  9
$DIMTOH
 70
     1
  9
$DIMSE1
 70
     0
  9
$DIMSE2
 70
     0
  9
$DIMTAD
 70
     0
  9
$DIMZIN
 70
     0
  9
$DIMBLK
  1

  9
$DIMASO
 70
     1
  9
$DIMSHO
 70
     1
  9
$DIMPOST
  1

  9
$DIMAPOST
  1

  9
$DIMALT
 70
     0
  9
$DIMALTD
 70
     2
  9
$DIMALTF
 40
25.4
  9
$DIMLFAC
 40
1.0
  9
$DIMTOFL
 70
     0
  9
$DIMTVP
 40
0.0
  9
$DIMTIX
 70
     0
  9
$DIMSOXD
 70
     0
  9
$DIMSAH
 70
     0
  9
$DIMBLK1
  1

  9
$DIMBLK2
  1

  9
$DIMSTYLE
  2
STANDARD
  9
$DIMCLRD
 70
     0
  9
$DIMCLRE
 70
     0
  9
$DIMCLRT
 70
     0
  9
$DIMTFAC
 40
1.0
  9
$DIMGAP
 40
0.09
  9
$LUNITS
 70
     2
  9
$LUPREC
 70
     4
  9
$SKETCHINC
 40
0.1
  9
$FILLETRAD
 40
0.0
  9
$AUNITS
 70
     0
  9
$AUPREC
 70
     0
  9
$MENU
  1
.
  9
$ELEVATION
 40
0.0
  9
$PELEVATION
 40
0.0
  9
$THICKNESS
 40
0.0
  9
$LIMCHECK
 70
     0
  9
$CHAMFERA
 40
0.0
  9
$CHAMFERB
 40
0.0
  9
$SKPOLY
 70
     0
  9
$TDCREATE
 40
2452643.146717604
  9
$TDUPDATE
 40
2458300.512999849
  9
$TDINDWG
 40
0.0009911227
  9
$TDUSRTIMER
 40
0.0009916435
  9
$USRTIMER
 70
     1
  9
$ANGBASE
 50
0.0
  9
$ANGDIR
 70
     0
  9
$PDMODE
 70
     0
  9
$PDSIZE
 40
0.0
  9
$PLINEWID
 40
0.0
  9
$COORDS
 70
     1
  9
$SPLFRAME
 70
     0
  9
$SPLINETYPE
 70
     6
  9
$SPLINESEGS
 70
     8
  9
$ATTDIA
 70
     0
  9
$ATTREQ
 70
     1
  9
$HANDLING
 70
     1
  9
$HANDSEED
  5
B66
  9
$SURFTAB1
 70
     6
  9
$SURFTAB2
 70
     6
  9
$SURFTYPE
 70
     6
  9
$SURFU
 70
     6
  9
$SURFV
 70
     6
  9
$UCSNAME
  2

  9
$UCSORG
 10
0.0
 20
0.0
 30
0.0
  9
$UCSXDIR
 10
1.0
 20
0.0
 30
0.0
  9
$UCSYDIR
 10
0.0
 20
1.0
 30
0.0
  9
$PUCSNAME
  2

  9
$PUCSORG
 10
0.0
 20
0.0
 30
0.0
  9
$PUCSXDIR
 10
1.0
 20
0.0
 30
0.0
  9
$PUCSYDIR
 10
0.0
 20
1.0
 30
0.0
  9
$USERI1
 70
     0
  9
$USERI2
 70
     0
  9
$USERI3
 70
     0
  9
$USERI4
 70
     0
  9
$USERI5
 70
     0
  9
$USERR1
 40
0.0
  9
$USERR2
 40
0.0
  9
$USERR3
 40
0.0
  9
$USERR4
 40
0.0
  9
$USERR5
 40
0.0
  9
$WORLDVIEW
 70
     1
  9
$SHADEDGE
 70
     3
  9
$SHADEDIF
 70
    70
  9
$TILEMODE
 70
     1
  9
$MAXACTVP
 70
    64
  9
$PLIMCHECK
 70
     0
  9
$PEXTMIN
 10
0.0
 20
0.0
 30
0.0
  9
$PEXTMAX
 10
0.0
 20
0.0
 30
0.0
  9
$PLIMMIN
 10
0.0
 20
0.0
  9
$PLIMMAX
 10
0.0
 20
0.0
  9
$UNITMODE
 70
     0
  9
$VISRETAIN
 70
     1
  9
$PLINEGEN
 70
     0
  9
$PSLTSCALE
 70
     1
  0
ENDSEC
  0
SECTION
  2
TABLES
  0
TABLE
  2
VPORT
 70
     1
  0
VPORT
  2
*ACTIVE
 70
     0
 10
0.0
 20
0.0
 11
1.0
 21
1.0
 12
178.2335742945671
 22
197.4282912735846
 13
0.0
 23
0.0
 14
0.5
 24
0.5
 15
0.5
 25
0.5
 16
0.0
 26
0.0
 36
1.0
 17
-27.66959356597982
 27
-19.53870295786203
 37
0.0
 40
488.7518960978402
 41
2.185840707964602
 42
50.0
 43
0.0
 44
0.0
 50
0.0
 51
0.0
 71
    16
 72
  1000
 73
     1
 74
     3
 75
     0
 76
     0
 77
     0
 78
     0
  0
ENDTAB
  0
TABLE
  2
LTYPE
 70
     1
  0
LTYPE
  2
CONTINUOUS
 70
     0
  3
Solid line
 72
    65
 73
     0
 40
0.0
  0
ENDTAB
  0
TABLE
  2
LAYER
 70
     2
  0
LAYER
  2
0
 70
     0
 62
     7
  6
CONTINUOUS
  0
LAYER
  2
NO_IMPRES
 70
     0
 62
     5
  6
CONTINUOUS
  0
ENDTAB
  0
TABLE
  2
STYLE
 70
     2
  0
STYLE
  2
STANDARD
 70
     0
 40
0.0
 41
1.0
 50
0.0
 71
     0
 42
0.2
  3
arial.ttf
  4

  0
STYLE
  2
ANNOTATIVE
 70
     0
 40
0.0
 41
1.0
 50
0.0
 71
     0
 42
0.2
  3
arial.ttf
  4

  0
ENDTAB
  0
TABLE
  2
VIEW
 70
     0
  0
ENDTAB
  0
TABLE
  2
UCS
 70
     0
  0
ENDTAB
  0
TABLE
  2
APPID
 70
     4
  0
APPID
  2
ACAD
 70
     0
  0
APPID
  2
ACADANNOTATIVE
 70
     0
  0
APPID
  2
ACAECLAYERSTANDARD
 70
     0
  0
APPID
  2
PLOTTRANSPARENCY
 70
     0
  0
ENDTAB
  0
TABLE
  2
DIMSTYLE
 70
     3
  0
DIMSTYLE
  2
STANDARD
 70
     0
  3

  4

  5

  6

  7

 40
1.0
 41
0.18
 42
0.0625
 43
0.38
 44
0.18
 45
0.0
 46
0.0
 47
0.0
 48
0.0
140
0.18
141
0.09
142
0.0
143
25.4
144
1.0
145
0.0
146
1.0
147
0.09
 71
     0
 72
     0
 73
     1
 74
     1
 75
     0
 76
     0
 77
     0
 78
     0
170
     0
171
     2
172
     0
173
     0
174
     0
175
     0
176
     0
177
     0
178
     0
  0
DIMSTYLE
  2
ANNOTATIVE
 70
     0
  3

  4

  5

  6

  7

 40
0.0
 41
0.18
 42
0.0625
 43
0.38
 44
0.18
 45
0.0
 46
0.0
 47
0.0
 48
0.0
140
0.18
141
0.09
142
0.0
143
25.4
144
1.0
145
0.0
146
1.0
147
0.09
 71
     0
 72
     0
 73
     1
 74
     1
 75
     0
 76
     0
 77
     0
 78
     0
170
     0
171
     2
172
     0
173
     0
174
     0
175
     0
176
     0
177
     0
178
     0
  0
DIMSTYLE
  2
ISO-25
 70
     0
  3

  4

  5

  6

  7

 40
1.0
 41
2.5
 42
0.625
 43
3.75
 44
1.25
 45
0.0
 46
0.0
 47
0.0
 48
0.0
140
2.5
141
2.5
142
0.0
143
0.03937007874016
144
1.0
145
0.0
146
1.0
147
0.625
 71
     0
 72
     0
 73
     0
 74
     0
 75
     0
 76
     0
 77
     1
 78
     8
170
     0
171
     3
172
     1
173
     0
174
     0
175
     0
176
     0
177
     0
178
     0
  0
ENDTAB
  0
ENDSEC
  0
SECTION
  2
BLOCKS
  0
BLOCK
  8
0
  2
$MODEL_SPACE
 70
     0
 10
0.0
 20
0.0
 30
0.0
  3
$MODEL_SPACE
  1

  0
ENDBLK
  5
21
  8
0
  0
BLOCK
 67
     1
  8
0
  2
$PAPER_SPACE
 70
     0
 10
0.0
 20
0.0
 30
0.0
  3
$PAPER_SPACE
  1

  0
ENDBLK
  5
5B
 67
     1
  8
0
  0
ENDSEC
  0
SECTION
  2
ENTITIES
  0
POLYLINE
  5
547
  8
0
 66
     1
 10
0.0
 20
0.0
 30
0.0
  0
VERTEX
  5
548
  8
0
 10
88.72114165525238
 20
196.3426698956882
 30
0.0
  0
VERTEX
  5
549
  8
0
 10
162.7208668090071
 20
196.3426698956882
 30
0.0
  0
VERTEX
  5
54A
  8
0
 10
165.7212435308048
 20
196.3426698956882
 30
0.0
  0
VERTEX
  5
54B
  8
0
 10
165.7212435308048
 20
210.6333512224784
 30
0.0
  0
VERTEX
  5
54C
  8
0
 10
162.7208668090071
 20
210.6333512224784
 30
0.0
  0
VERTEX
  5
54D
  8
0
 10
162.7208668090071
 20
224.9127337126694
 30
0.0
  0
VERTEX
  5
54E
  8
0
 10
165.7212435308048
 20
224.9127337126694
 30
0.0
  0
VERTEX
  5
54F
  8
0
 10
165.7212435308048
 20
239.2034096564981
 30
0.0
  0
VERTEX
  5
550
  8
0
 10
162.7208668090071
 20
239.2034096564981
 30
0.0
  0
VERTEX
  5
551
  8
0
 10
162.7208668090071
 20
253.4835026976329
 30
0.0
  0
VERTEX
  5
552
  8
0
 10
165.7212435308048
 20
253.4835026976329
 30
0.0
  0
VERTEX
  5
553
  8
0
 10
165.7212435308048
 20
267.7731181980075
 30
0.0
  0
VERTEX
  5
554
  8
0
 10
162.7208668090071
 20
267.7731181980075
 30
0.0
  0
VERTEX
  5
555
  8
0
 10
162.7208668090071
 20
282.0532098934019
 30
0.0
  0
VERTEX
  5
556
  8
0
 10
165.7212435308048
 20
282.0532098934019
 30
0.0
  0
VERTEX
  5
557
  8
0
 10
165.7212435308048
 20
296.3428267395167
 30
0.0
  0
VERTEX
  5
558
  8
0
 10
149.7206482724895
 20
296.3428267395167
 30
0.0
  0
VERTEX
  5
559
  8
0
 10
149.7206482724895
 20
293.3424520363298
 30
0.0
  0
VERTEX
  5
55A
  8
0
 10
133.7204190555693
 20
293.3424520363298
 30
0.0
  0
VERTEX
  5
55B
  8
0
 10
133.7204190555693
 20
296.3428267395167
 30
0.0
  0
VERTEX
  5
55C
  8
0
 10
117.7212341332182
 20
296.3428267395167
 30
0.0
  0
VERTEX
  5
55D
  8
0
 10
117.7212341332182
 20
293.3424520363298
 30
0.0
  0
VERTEX
  5
55E
  8
0
 10
101.7210049162982
 20
293.3424520363298
 30
0.0
  0
VERTEX
  5
55F
  8
0
 10
101.7210049162982
 20
296.3428267395167
 30
0.0
  0
VERTEX
  5
560
  8
0
 10
85.72112020892666
 20
296.3428267395167
 30
0.0
  0
VERTEX
  5
561
  8
0
 10
85.72112020892666
 20
282.0532098934019
 30
0.0
  0
VERTEX
  5
562
  8
0
 10
88.72114165525238
 20
282.0532098934019
 30
0.0
  0
VERTEX
  5
563
  8
0
 10
88.72114165525238
 20
267.7731181980075
 30
0.0
  0
VERTEX
  5
564
  8
0
 10
85.72112020892666
 20
267.7731181980075
 30
0.0
  0
VERTEX
  5
565
  8
0
 10
85.72112020892666
 20
253.4835026976329
 30
0.0
  0
VERTEX
  5
566
  8
0
 10
88.72114165525238
 20
253.4835026976329
 30
0.0
  0
VERTEX
  5
567
  8
0
 10
88.72114165525238
 20
239.2034096564981
 30
0.0
  0
VERTEX
  5
568
  8
0
 10
85.72112020892666
 20
239.2034096564981
 30
0.0
  0
VERTEX
  5
569
  8
0
 10
85.72112020892666
 20
224.9127337126694
 30
0.0
  0
VERTEX
  5
56A
  8
0
 10
88.72114165525238
 20
224.9127337126694
 30
0.0
  0
VERTEX
  5
56B
  8
0
 10
88.72114165525238
 20
210.6333512224784
 30
0.0
  0
VERTEX
  5
56C
  8
0
 10
85.72112020892666
 20
210.6333512224784
 30
0.0
  0
VERTEX
  5
56D
  8
0
 10
85.72112020892666
 20
196.3426698956882
 30
0.0
  0
VERTEX
  5
56E
  8
0
 10
88.72114165525238
 20
196.3426698956882
 30
0.0
  0
SEQEND
  5
56F
  8
0
  0
POLYLINE
  5
570
  8
0
 66
     1
 10
0.0
 20
0.0
 30
0.0
  0
VERTEX
  5
571
  8
0
 10
3.000022119195933
 20
296.3428267395167
 30
0.0
  0
VERTEX
  5
572
  8
0
 10
76.99974794582101
 20
296.3428267395167
 30
0.0
  0
VERTEX
  5
573
  8
0
 10
80.00011928465699
 20
296.3428267395167
 30
0.0
  0
VERTEX
  5
574
  8
0
 10
80.00011928465699
 20
282.0532098934019
 30
0.0
  0
VERTEX
  5
575
  8
0
 10
76.99974794582101
 20
282.0532098934019
 30
0.0
  0
VERTEX
  5
576
  8
0
 10
76.99974794582101
 20
267.7731181980075
 30
0.0
  0
VERTEX
  5
577
  8
0
 10
80.00011928465699
 20
267.7731181980075
 30
0.0
  0
VERTEX
  5
578
  8
0
 10
80.00011928465699
 20
253.4835026976329
 30
0.0
  0
VERTEX
  5
579
  8
0
 10
76.99974794582101
 20
253.4835026976329
 30
0.0
  0
VERTEX
  5
57A
  8
0
 10
76.99974794582101
 20
239.2034096564981
 30
0.0
  0
VERTEX
  5
57B
  8
0
 10
80.00011928465699
 20
239.2034096564981
 30
0.0
  0
VERTEX
  5
57C
  8
0
 10
80.00011928465699
 20
224.9137941561236
 30
0.0
  0
VERTEX
  5
57D
  8
0
 10
76.99974794582101
 20
224.9137941561236
 30
0.0
  0
VERTEX
  5
57E
  8
0
 10
76.99974794582101
 20
210.6337011149887
 30
0.0
  0
VERTEX
  5
57F
  8
0
 10
80.00011928465699
 20
210.6337011149887
 30
0.0
  0
VERTEX
  5
580
  8
0
 10
80.00011928465699
 20
196.3426698956882
 30
0.0
  0
VERTEX
  5
581
  8
0
 10
63.99988468477522
 20
196.3426698956882
 30
0.0
  0
VERTEX
  5
582
  8
0
 10
63.99988468477522
 20
199.3430466174859
 30
0.0
  0
VERTEX
  5
583
  8
0
 10
47.99929480942149
 20
199.3430466174859
 30
0.0
  0
VERTEX
  5
584
  8
0
 10
47.99929480942149
 20
196.3426698956882
 30
0.0
  0
VERTEX
  5
585
  8
0
 10
32.00011796151296
 20
196.3426698956882
 30
0.0
  0
VERTEX
  5
586
  8
0
 10
32.00011796151296
 20
199.3430466174859
 30
0.0
  0
VERTEX
  5
587
  8
0
 10
15.99988336163119
 20
199.3430466174859
 30
0.0
  0
VERTEX
  5
588
  8
0
 10
15.99988336163119
 20
196.3426698956882
 30
0.0
  0
VERTEX
  5
589
  8
0
 10
0.0
 20
196.3426698956882
 30
0.0
  0
VERTEX
  5
58A
  8
0
 10
0.0
 20
210.6337011149887
 30
0.0
  0
VERTEX
  5
58B
  8
0
 10
3.000022119195933
 20
210.6337011149887
 30
0.0
  0
VERTEX
  5
58C
  8
0
 10
3.000022119195933
 20
224.9137941561236
 30
0.0
  0
VERTEX
  5
58D
  8
0
 10
0.0
 20
224.9137941561236
 30
0.0
  0
VERTEX
  5
58E
  8
0
 10
0.0
 20
239.2034096564981
 30
0.0
  0
VERTEX
  5
58F
  8
0
 10
3.000022119195933
 20
239.2034096564981
 30
0.0
  0
VERTEX
  5
590
  8
0
 10
3.000022119195933
 20
253.4835026976329
 30
0.0
  0
VERTEX
  5
591
  8
0
 10
0.0
 20
253.4835026976329
 30
0.0
  0
VERTEX
  5
592
  8
0
 10
0.0
 20
267.7731181980075
 30
0.0
  0
VERTEX
  5
593
  8
0
 10
3.000022119195933
 20
267.7731181980075
 30
0.0
  0
VERTEX
  5
594
  8
0
 10
3.000022119195933
 20
282.0532098934019
 30
0.0
  0
VERTEX
  5
595
  8
0
 10
0.0
 20
282.0532098934019
 30
0.0
  0
VERTEX
  5
596
  8
0
 10
0.0
 20
296.3428267395167
 30
0.0
  0
VERTEX
  5
597
  8
0
 10
3.000022119195933
 20
296.3428267395167
 30
0.0
  0
SEQEND
  5
598
  8
0
  0
POLYLINE
  5
599
  8
0
 66
     1
 10
0.0
 20
0.0
 30
0.0
  0
VERTEX
  5
59A
  8
0
 10
0.0
 20
110.3336971558244
 30
0.0
  0
VERTEX
  5
59B
  8
0
 10
0.0
 20
184.3341220945995
 30
0.0
  0
VERTEX
  5
59C
  8
0
 10
14.28996943010611
 20
184.3341220945995
 30
0.0
  0
VERTEX
  5
59D
  8
0
 10
14.28996943010611
 20
187.3344988163972
 30
0.0
  0
VERTEX
  5
59E
  8
0
 10
28.57005977976007
 20
187.3344988163972
 30
0.0
  0
VERTEX
  5
59F
  8
0
 10
28.57005977976007
 20
184.3341220945995
 30
0.0
  0
VERTEX
  5
5A0
  8
0
 10
42.8600305556065
 20
184.3341220945995
 30
0.0
  0
VERTEX
  5
5A1
  8
0
 10
42.8600305556065
 20
187.3344988163972
 30
0.0
  0
VERTEX
  5
5A2
  8
0
 10
57.14012359674132
 20
187.3344988163972
 30
0.0
  0
VERTEX
  5
5A3
  8
0
 10
57.14012359674132
 20
184.3341220945995
 30
0.0
  0
VERTEX
  5
5A4
  8
0
 10
71.43008898962614
 20
184.3341220945995
 30
0.0
  0
VERTEX
  5
5A5
  8
0
 10
71.43008898962614
 20
187.3344988163972
 30
0.0
  0
VERTEX
  5
5A6
  8
0
 10
85.71018203076096
 20
187.3344988163972
 30
0.0
  0
VERTEX
  5
5A7
  8
0
 10
85.71018203076096
 20
184.3341220945995
 30
0.0
  0
VERTEX
  5
5A8
  8
0
 10
100.0001474236457
 20
184.3341220945995
 30
0.0
  0
VERTEX
  5
5A9
  8
0
 10
100.0001474236457
 20
169.533679678188
 30
0.0
  0
VERTEX
  5
5AA
  8
0
 10
97.00012597731995
 20
169.533679678188
 30
0.0
  0
VERTEX
  5
5AB
  8
0
 10
97.00012597731995
 20
154.7346475977405
 30
0.0
  0
VERTEX
  5
5AC
  8
0
 10
100.0001474236457
 20
154.7346475977405
 30
0.0
  0
VERTEX
  5
5AD
  8
0
 10
100.0001474236457
 20
139.9345604568009
 30
0.0
  0
VERTEX
  5
5AE
  8
0
 10
97.00012597731995
 20
139.9345604568009
 30
0.0
  0
VERTEX
  5
5AF
  8
0
 10
97.00012597731995
 20
125.1341288063126
 30
0.0
  0
VERTEX
  5
5B0
  8
0
 10
100.0001474236457
 20
125.1341288063126
 30
0.0
  0
VERTEX
  5
5B1
  8
0
 10
100.0001474236457
 20
110.3336971558244
 30
0.0
  0
VERTEX
  5
5B2
  8
0
 10
85.71018203076096
 20
110.3336971558244
 30
0.0
  0
VERTEX
  5
5B3
  8
0
 10
85.71018203076096
 20
107.3347200040676
 30
0.0
  0
VERTEX
  5
5B4
  8
0
 10
71.43008898962614
 20
107.3347200040676
 30
0.0
  0
VERTEX
  5
5B5
  8
0
 10
71.43008898962614
 20
110.3336971558244
 30
0.0
  0
VERTEX
  5
5B6
  8
0
 10
57.14012359674132
 20
110.3336971558244
 30
0.0
  0
VERTEX
  5
5B7
  8
0
 10
57.14012359674132
 20
107.3347200040676
 30
0.0
  0
VERTEX
  5
5B8
  8
0
 10
42.8600305556065
 20
107.3347200040676
 30
0.0
  0
VERTEX
  5
5B9
  8
0
 10
42.8600305556065
 20
110.3336971558244
 30
0.0
  0
VERTEX
  5
5BA
  8
0
 10
28.57005977976007
 20
110.3336971558244
 30
0.0
  0
VERTEX
  5
5BB
  8
0
 10
28.57005977976007
 20
107.3347200040676
 30
0.0
  0
VERTEX
  5
5BC
  8
0
 10
14.28996943010611
 20
107.3347200040676
 30
0.0
  0
VERTEX
  5
5BD
  8
0
 10
14.28996943010611
 20
110.3336971558244
 30
0.0
  0
VERTEX
  5
5BE
  8
0
 10
0.0
 20
110.3336971558244
 30
0.0
  0
SEQEND
  5
5BF
  8
0
  0
POLYLINE
  5
5C0
  8
0
 66
     1
 10
0.0
 20
0.0
 30
0.0
  0
VERTEX
  5
5C1
  8
0
 10
207.0138781030012
 20
110.3336971558244
 30
0.0
  0
VERTEX
  5
5C2
  8
0
 10
207.0138781030012
 20
184.3341220945995
 30
0.0
  0
VERTEX
  5
5C3
  8
0
 10
192.7246124951369
 20
184.3341220945995
 30
0.0
  0
VERTEX
  5
5C4
  8
0
 10
192.7246124951369
 20
187.3344988163972
 30
0.0
  0
VERTEX
  5
5C5
  8
0
 10
178.4441749444536
 20
187.3344988163972
 30
0.0
  0
VERTEX
  5
5C6
  8
0
 10
178.4441749444536
 20
184.3341220945995
 30
0.0
  0
VERTEX
  5
5C7
  8
0
 10
164.1534990006249
 20
184.3341220945995
 30
0.0
  0
VERTEX
  5
5C8
  8
0
 10
164.1534990006249
 20
187.3344988163972
 30
0.0
  0
VERTEX
  5
5C9
  8
0
 10
149.8744610199825
 20
187.3344988163972
 30
0.0
  0
VERTEX
  5
5CA
  8
0
 10
149.8744610199825
 20
184.3341220945995
 30
0.0
  0
VERTEX
  5
5CB
  8
0
 10
135.5837850761538
 20
184.3341220945995
 30
0.0
  0
VERTEX
  5
5CC
  8
0
 10
135.5837850761538
 20
187.3344988163972
 30
0.0
  0
VERTEX
  5
5CD
  8
0
 10
121.3047578614347
 20
187.3344988163972
 30
0.0
  0
VERTEX
  5
5CE
  8
0
 10
121.3047578614347
 20
184.3341220945995
 30
0.0
  0
VERTEX
  5
5CF
  8
0
 10
107.0140819176062
 20
184.3341220945995
 30
0.0
  0
VERTEX
  5
5D0
  8
0
 10
107.0140819176062
 20
169.533679678188
 30
0.0
  0
VERTEX
  5
5D1
  8
0
 10
110.0144586394039
 20
169.533679678188
 30
0.0
  0
VERTEX
  5
5D2
  8
0
 10
110.0144586394039
 20
154.7346475977405
 30
0.0
  0
VERTEX
  5
5D3
  8
0
 10
107.0140819176062
 20
154.7346475977405
 30
0.0
  0
VERTEX
  5
5D4
  8
0
 10
107.0140819176062
 20
139.9345604568009
 30
0.0
  0
VERTEX
  5
5D5
  8
0
 10
110.0144586394039
 20
139.9345604568009
 30
0.0
  0
VERTEX
  5
5D6
  8
0
 10
110.0144586394039
 20
125.1341288063126
 30
0.0
  0
VERTEX
  5
5D7
  8
0
 10
107.0140819176062
 20
125.1341288063126
 30
0.0
  0
VERTEX
  5
5D8
  8
0
 10
107.0140819176062
 20
110.3336971558244
 30
0.0
  0
VERTEX
  5
5D9
  8
0
 10
121.3047578614347
 20
110.3336971558244
 30
0.0
  0
VERTEX
  5
5DA
  8
0
 10
121.3047578614347
 20
107.3347200040676
 30
0.0
  0
VERTEX
  5
5DB
  8
0
 10
135.5837850761538
 20
107.3347200040676
 30
0.0
  0
VERTEX
  5
5DC
  8
0
 10
135.5837850761538
 20
110.3336971558244
 30
0.0
  0
VERTEX
  5
5DD
  8
0
 10
149.8744610199825
 20
110.3336971558244
 30
0.0
  0
VERTEX
  5
5DE
  8
0
 10
149.8744610199825
 20
107.3347200040676
 30
0.0
  0
VERTEX
  5
5DF
  8
0
 10
164.1534990006249
 20
107.3347200040676
 30
0.0
  0
VERTEX
  5
5E0
  8
0
 10
164.1534990006249
 20
110.3336971558244
 30
0.0
  0
VERTEX
  5
5E1
  8
0
 10
178.4441749444536
 20
110.3336971558244
 30
0.0
  0
VERTEX
  5
5E2
  8
0
 10
178.4441749444536
 20
107.3347200040676
 30
0.0
  0
VERTEX
  5
5E3
  8
0
 10
192.7246124951369
 20
107.3347200040676
 30
0.0
  0
VERTEX
  5
5E4
  8
0
 10
192.7246124951369
 20
110.3336971558244
 30
0.0
  0
VERTEX
  5
5E5
  8
0
 10
207.0138781030012
 20
110.3336971558244
 30
0.0
  0
SEQEND
  5
5E6
  8
0
  0
POLYLINE
  5
5E7
  8
0
 66
     1
 10
0.0
 20
0.0
 30
0.0
  0
VERTEX
  5
5E8
  8
0
 10
71.9439582765539
 20
8.606913542694684
 30
0.0
  0
VERTEX
  5
5E9
  8
0
 10
71.9439582765539
 20
102.6066668354382
 30
0.0
  0
VERTEX
  5
5EA
  8
0
 10
71.9439582765539
 20
105.6070435572359
 30
0.0
  0
VERTEX
  5
5EB
  8
0
 10
61.94341129385171
 20
105.6070435572359
 30
0.0
  0
VERTEX
  5
5EC
  8
0
 10
61.94341129385171
 20
102.6066668354382
 30
0.0
  0
VERTEX
  5
5ED
  8
0
 10
51.94357486209336
 20
102.6066668354382
 30
0.0
  0
VERTEX
  5
5EE
  8
0
 10
51.94357486209336
 20
105.6070435572359
 30
0.0
  0
VERTEX
  5
5EF
  8
0
 10
41.94408832284515
 20
105.6070435572359
 30
0.0
  0
VERTEX
  5
5F0
  8
0
 10
41.94408832284515
 20
85.60667090869865
 30
0.0
  0
VERTEX
  5
5F1
  8
0
 10
44.94340460118875
 20
85.60667090869865
 30
0.0
  0
VERTEX
  5
5F2
  8
0
 10
44.94340460118875
 20
65.60664276970996
 30
0.0
  0
VERTEX
  5
5F3
  8
0
 10
41.94408832284515
 20
65.60664276970996
 30
0.0
  0
VERTEX
  5
5F4
  8
0
 10
41.94408832284515
 20
45.60695914026982
 30
0.0
  0
VERTEX
  5
5F5
  8
0
 10
44.94340460118875
 20
45.60695914026982
 30
0.0
  0
VERTEX
  5
5F6
  8
0
 10
44.94340460118875
 20
25.60693100128103
 30
0.0
  0
VERTEX
  5
5F7
  8
0
 10
41.94408832284515
 20
25.60693100128103
 30
0.0
  0
VERTEX
  5
5F8
  8
0
 10
41.94408832284515
 20
5.606902862292344
 30
0.0
  0
VERTEX
  5
5F9
  8
0
 10
51.94357486209336
 20
5.606902862292344
 30
0.0
  0
VERTEX
  5
5FA
  8
0
 10
51.94357486209336
 20
8.606913542694684
 30
0.0
  0
VERTEX
  5
5FB
  8
0
 10
61.94341129385171
 20
8.606913542694684
 30
0.0
  0
VERTEX
  5
5FC
  8
0
 10
61.94341129385171
 20
5.606902862292344
 30
0.0
  0
VERTEX
  5
5FD
  8
0
 10
71.9439582765539
 20
5.606902862292344
 30
0.0
  0
VERTEX
  5
5FE
  8
0
 10
71.9439582765539
 20
8.606913542694684
 30
0.0
  0
SEQEND
  5
5FF
  8
0
  0
POLYLINE
  5
600
  8
0
 66
     1
 10
0.0
 20
0.0
 30
0.0
  0
VERTEX
  5
601
  8
0
 10
1.332310932027582
 20
8.606913542694684
 30
0.0
  0
VERTEX
  5
602
  8
0
 10
1.332310932027582
 20
102.6066668354382
 30
0.0
  0
VERTEX
  5
603
  8
0
 10
1.332310932027582
 20
105.6070435572359
 30
0.0
  0
VERTEX
  5
604
  8
0
 10
11.33285522324903
 20
105.6070435572359
 30
0.0
  0
VERTEX
  5
605
  8
0
 10
11.33285522324903
 20
102.6066668354382
 30
0.0
  0
VERTEX
  5
606
  8
0
 10
21.33198783276569
 20
102.6066668354382
 30
0.0
  0
VERTEX
  5
607
  8
0
 10
21.33198783276569
 20
105.6070435572359
 30
0.0
  0
VERTEX
  5
608
  8
0
 10
31.33253212398702
 20
105.6070435572359
 30
0.0
  0
VERTEX
  5
609
  8
0
 10
31.33253212398702
 20
85.60667090869865
 30
0.0
  0
VERTEX
  5
60A
  8
0
 10
28.3321580936703
 20
85.60667090869865
 30
0.0
  0
VERTEX
  5
60B
  8
0
 10
28.3321580936703
 20
65.60664276970996
 30
0.0
  0
VERTEX
  5
60C
  8
0
 10
31.33253212398702
 20
65.60664276970996
 30
0.0
  0
VERTEX
  5
60D
  8
0
 10
31.33253212398702
 20
45.60695914026982
 30
0.0
  0
VERTEX
  5
60E
  8
0
 10
28.3321580936703
 20
45.60695914026982
 30
0.0
  0
VERTEX
  5
60F
  8
0
 10
28.3321580936703
 20
25.60693100128103
 30
0.0
  0
VERTEX
  5
610
  8
0
 10
31.33253212398702
 20
25.60693100128103
 30
0.0
  0
VERTEX
  5
611
  8
0
 10
31.33253212398702
 20
5.606902862292344
 30
0.0
  0
VERTEX
  5
612
  8
0
 10
21.33198783276569
 20
5.606902862292344
 30
0.0
  0
VERTEX
  5
613
  8
0
 10
21.33198783276569
 20
8.606913542694684
 30
0.0
  0
VERTEX
  5
614
  8
0
 10
11.33285522324903
 20
8.606913542694684
 30
0.0
  0
VERTEX
  5
615
  8
0
 10
11.33285522324903
 20
5.606902862292344
 30
0.0
  0
VERTEX
  5
616
  8
0
 10
1.332310932027582
 20
5.606902862292344
 30
0.0
  0
VERTEX
  5
617
  8
0
 10
1.332310932027582
 20
8.606913542694684
 30
0.0
  0
SEQEND
  5
618
  8
0
  0
POLYLINE
  5
619
  8
0
 66
     1
 10
0.0
 20
0.0
 30
0.0
  0
VERTEX
  5
61A
  8
0
 10
177.5645623201765
 20
30.35567214999625
 30
0.0
  0
VERTEX
  5
61B
  8
0
 10
83.56445913492271
 20
30.35567214999625
 30
0.0
  0
VERTEX
  5
61C
  8
0
 10
83.56445913492271
 20
40.35551396471632
 30
0.0
  0
VERTEX
  5
61D
  8
0
 10
80.56408241312502
 20
40.35551396471632
 30
0.0
  0
VERTEX
  5
61E
  8
0
 10
80.56408241312502
 20
50.35570028898493
 30
0.0
  0
VERTEX
  5
61F
  8
0
 10
83.56445913492271
 20
50.35570028898493
 30
0.0
  0
VERTEX
  5
620
  8
0
 10
83.56445913492271
 20
60.35554210370501
 30
0.0
  0
VERTEX
  5
621
  8
0
 10
102.3646950904413
 20
60.35554210370501
 30
0.0
  0
VERTEX
  5
622
  8
0
 10
102.3646950904413
 20
57.35550989145585
 30
0.0
  0
VERTEX
  5
623
  8
0
 10
121.1649256629982
 20
57.35550989145585
 30
0.0
  0
VERTEX
  5
624
  8
0
 10
121.1649256629982
 20
60.35554210370501
 30
0.0
  0
VERTEX
  5
625
  8
0
 10
139.965156235555
 20
60.35554210370501
 30
0.0
  0
VERTEX
  5
626
  8
0
 10
139.965156235555
 20
57.35550989145585
 30
0.0
  0
VERTEX
  5
627
  8
0
 10
158.7643317476195
 20
57.35550989145585
 30
0.0
  0
VERTEX
  5
628
  8
0
 10
158.7643317476195
 20
60.35554210370501
 30
0.0
  0
VERTEX
  5
629
  8
0
 10
177.5645623201765
 20
60.35554210370501
 30
0.0
  0
VERTEX
  5
62A
  8
0
 10
177.5645623201765
 20
50.35570028898493
 30
0.0
  0
VERTEX
  5
62B
  8
0
 10
180.564939041974
 20
50.35570028898493
 30
0.0
  0
VERTEX
  5
62C
  8
0
 10
180.564939041974
 20
40.35551396471632
 30
0.0
  0
VERTEX
  5
62D
  8
0
 10
177.5645623201765
 20
40.35551396471632
 30
0.0
  0
VERTEX
  5
62E
  8
0
 10
177.5645623201765
 20
30.35567214999625
 30
0.0
  0
SEQEND
  5
62F
  8
0
  0
POLYLINE
  5
630
  8
0
 66
     1
 10
0.0
 20
0.0
 30
0.0
  0
VERTEX
  5
631
  8
0
 10
177.5638517692327
 20
101.2562324689139
 30
0.0
  0
VERTEX
  5
632
  8
0
 10
83.56445913492271
 20
101.2562324689139
 30
0.0
  0
VERTEX
  5
633
  8
0
 10
83.56445913492271
 20
91.25675669558913
 30
0.0
  0
VERTEX
  5
634
  8
0
 10
80.56408241312502
 20
91.25675669558913
 30
0.0
  0
VERTEX
  5
635
  8
0
 10
80.56408241312502
 20
81.25725939041749
 30
0.0
  0
VERTEX
  5
636
  8
0
 10
83.56445913492271
 20
81.25725939041749
 30
0.0
  0
VERTEX
  5
637
  8
0
 10
83.56445913492271
 20
71.25636251520504
 30
0.0
  0
VERTEX
  5
638
  8
0
 10
102.3646950904413
 20
71.25636251520504
 30
0.0
  0
VERTEX
  5
639
  8
0
 10
102.3646950904413
 20
74.25673923700273
 30
0.0
  0
VERTEX
  5
63A
  8
0
 10
121.1645703875263
 20
74.25673923700273
 30
0.0
  0
VERTEX
  5
63B
  8
0
 10
121.1645703875263
 20
71.25636251520504
 30
0.0
  0
VERTEX
  5
63C
  8
0
 10
139.9648009600832
 20
71.25636251520504
 30
0.0
  0
VERTEX
  5
63D
  8
0
 10
139.9648009600832
 20
74.25673923700273
 30
0.0
  0
VERTEX
  5
63E
  8
0
 10
158.7636319625991
 20
74.25673923700273
 30
0.0
  0
VERTEX
  5
63F
  8
0
 10
158.7636319625991
 20
71.25636251520504
 30
0.0
  0
VERTEX
  5
640
  8
0
 10
177.5638517692327
 20
71.25636251520504
 30
0.0
  0
VERTEX
  5
641
  8
0
 10
177.5638517692327
 20
81.25725939041749
 30
0.0
  0
VERTEX
  5
642
  8
0
 10
180.5642284910303
 20
81.25725939041749
 30
0.0
  0
VERTEX
  5
643
  8
0
 10
180.5642284910303
 20
91.25675669558913
 30
0.0
  0
VERTEX
  5
644
  8
0
 10
177.5638517692327
 20
91.25675669558913
 30
0.0
  0
VERTEX
  5
645
  8
0
 10
177.5638517692327
 20
101.2562324689139
 30
0.0
  0
SEQEND
  5
646
  8
0
  0
POLYLINE
  5
647
  8
0
 66
     1
 10
0.0
 20
0.0
 30
0.0
  0
VERTEX
  5
648
  8
0
 10
266.7287733800674
 20
240.8463365914974
 30
0.0
  0
VERTEX
  5
649
  8
0
 10
282.7258374155103
 20
240.8463365914974
 30
0.0
  0
VERTEX
  5
64A
  8
0
 10
282.7258374155103
 20
237.8473715514044
 30
0.0
  0
VERTEX
  5
64B
  8
0
 10
266.7287733800674
 20
237.8473715514044
 30
0.0
  0
VERTEX
  5
64C
  8
0
 10
266.7287733800674
 20
240.8463365914974
 30
0.0
  0
SEQEND
  5
64D
  8
0
  0
POLYLINE
  5
64E
  8
0
 66
     1
 10
0.0
 20
0.0
 30
0.0
  0
VERTEX
  5
64F
  8
0
 10
266.7287733800674
 20
163.8451810011929
 30
0.0
  0
VERTEX
  5
650
  8
0
 10
282.7258374155103
 20
163.8451810011929
 30
0.0
  0
VERTEX
  5
651
  8
0
 10
282.7258374155103
 20
160.8462146153596
 30
0.0
  0
VERTEX
  5
652
  8
0
 10
266.7287733800674
 20
160.8462146153596
 30
0.0
  0
VERTEX
  5
653
  8
0
 10
266.7287733800674
 20
163.8451810011929
 30
0.0
  0
SEQEND
  5
654
  8
0
  0
POLYLINE
  5
655
  8
0
 66
     1
 10
0.0
 20
0.0
 30
0.0
  0
VERTEX
  5
656
  8
0
 10
298.736315791499
 20
240.8463365914974
 30
0.0
  0
VERTEX
  5
657
  8
0
 10
314.7333798269422
 20
240.8463365914974
 30
0.0
  0
VERTEX
  5
658
  8
0
 10
314.7333798269422
 20
237.8473715514044
 30
0.0
  0
VERTEX
  5
659
  8
0
 10
298.736315791499
 20
237.8473715514044
 30
0.0
  0
VERTEX
  5
65A
  8
0
 10
298.736315791499
 20
240.8463365914974
 30
0.0
  0
SEQEND
  5
65B
  8
0
  0
POLYLINE
  5
65C
  8
0
 66
     1
 10
0.0
 20
0.0
 30
0.0
  0
VERTEX
  5
65D
  8
0
 10
298.736315791499
 20
163.8455255107415
 30
0.0
  0
VERTEX
  5
65E
  8
0
 10
314.7333798269422
 20
163.8455255107415
 30
0.0
  0
VERTEX
  5
65F
  8
0
 10
314.7333798269422
 20
160.8465591249081
 30
0.0
  0
VERTEX
  5
660
  8
0
 10
298.736315791499
 20
160.8465591249081
 30
0.0
  0
VERTEX
  5
661
  8
0
 10
298.736315791499
 20
163.8455255107415
 30
0.0
  0
SEQEND
  5
662
  8
0
  0
POLYLINE
  5
663
  8
0
 66
     1
 10
0.0
 20
0.0
 30
0.0
  0
VERTEX
  5
664
  8
0
 10
234.7332457391404
 20
163.8455255107415
 30
0.0
  0
VERTEX
  5
665
  8
0
 10
250.7303097745835
 20
163.8455255107415
 30
0.0
  0
VERTEX
  5
666
  8
0
 10
250.7303097745835
 20
160.8465591249081
 30
0.0
  0
VERTEX
  5
667
  8
0
 10
234.7332457391404
 20
160.8465591249081
 30
0.0
  0
VERTEX
  5
668
  8
0
 10
234.7332457391404
 20
163.8455255107415
 30
0.0
  0
SEQEND
  5
669
  8
0
  0
POLYLINE
  5
66A
  8
0
 66
     1
 10
0.0
 20
0.0
 30
0.0
  0
VERTEX
  5
66B
  8
0
 10
234.7332457391404
 20
240.8463365914974
 30
0.0
  0
VERTEX
  5
66C
  8
0
 10
250.7303097745835
 20
240.8463365914974
 30
0.0
  0
VERTEX
  5
66D
  8
0
 10
250.7303097745835
 20
237.8473715514044
 30
0.0
  0
VERTEX
  5
66E
  8
0
 10
234.7332457391404
 20
237.8473715514044
 30
0.0
  0
VERTEX
  5
66F
  8
0
 10
234.7332457391404
 20
240.8463365914974
 30
0.0
  0
SEQEND
  5
670
  8
0
  0
POLYLINE
  5
671
  8
0
 66
     1
 10
0.0
 20
0.0
 30
0.0
  0
VERTEX
  5
672
  8
0
 10
234.7332457391404
 20
193.4460550680928
 30
0.0
  0
VERTEX
  5
673
  8
0
 10
234.7332457391404
 20
208.2464867185811
 30
0.0
  0
VERTEX
  5
674
  8
0
 10
237.7445552561421
 20
208.2464867185811
 30
0.0
  0
VERTEX
  5
675
  8
0
 10
237.7445552561421
 20
193.4460550680928
 30
0.0
  0
VERTEX
  5
676
  8
0
 10
234.7332457391404
 20
193.4460550680928
 30
0.0
  0
SEQEND
  5
677
  8
0
  0
POLYLINE
  5
678
  8
0
 66
     1
 10
0.0
 20
0.0
 30
0.0
  0
VERTEX
  5
679
  8
0
 10
234.7336010146123
 20
160.8469251663034
 30
0.0
  0
VERTEX
  5
67A
  8
0
 10
234.7336010146123
 20
178.6459679271532
 30
0.0
  0
VERTEX
  5
67B
  8
0
 10
237.7449159145758
 20
178.6459679271532
 30
0.0
  0
VERTEX
  5
67C
  8
0
 10
237.7449159145758
 20
160.8469251663034
 30
0.0
  0
VERTEX
  5
67D
  8
0
 10
234.7336010146123
 20
160.8469251663034
 30
0.0
  0
SEQEND
  5
67E
  8
0
  0
POLYLINE
  5
67F
  8
0
 66
     1
 10
0.0
 20
0.0
 30
0.0
  0
VERTEX
  5
680
  8
0
 10
234.7332430476597
 20
223.0472844104647
 30
0.0
  0
VERTEX
  5
681
  8
0
 10
234.7332430476597
 20
240.8463271713144
 30
0.0
  0
VERTEX
  5
682
  8
0
 10
237.7445552561421
 20
240.8463271713144
 30
0.0
  0
VERTEX
  5
683
  8
0
 10
237.7445552561421
 20
223.0472844104647
 30
0.0
  0
VERTEX
  5
684
  8
0
 10
234.7332430476597
 20
223.0472844104647
 30
0.0
  0
SEQEND
  5
685
  8
0
  0
POLYLINE
  5
686
  8
0
 66
     1
 10
0.0
 20
0.0
 30
0.0
  0
VERTEX
  5
687
  8
0
 10
311.7107714733413
 20
193.4460550680928
 30
0.0
  0
VERTEX
  5
688
  8
0
 10
311.7107714733413
 20
208.2464867185811
 30
0.0
  0
VERTEX
  5
689
  8
0
 10
314.7100877516848
 20
208.2464867185811
 30
0.0
  0
VERTEX
  5
68A
  8
0
 10
314.7100877516848
 20
193.4460550680928
 30
0.0
  0
VERTEX
  5
68B
  8
0
 10
311.7107714733413
 20
193.4460550680928
 30
0.0
  0
SEQEND
  5
68C
  8
0
  0
POLYLINE
  5
68D
  8
0
 66
     1
 10
0.0
 20
0.0
 30
0.0
  0
VERTEX
  5
68E
  8
0
 10
311.7111267488131
 20
160.8465806567549
 30
0.0
  0
VERTEX
  5
68F
  8
0
 10
311.7111267488131
 20
178.6456234176046
 30
0.0
  0
VERTEX
  5
690
  8
0
 10
314.7104484101183
 20
178.6456234176046
 30
0.0
  0
VERTEX
  5
691
  8
0
 10
314.7104484101183
 20
160.8465806567549
 30
0.0
  0
VERTEX
  5
692
  8
0
 10
311.7111267488131
 20
160.8465806567549
 30
0.0
  0
SEQEND
  5
693
  8
0
  0
POLYLINE
  5
694
  8
0
 66
     1
 10
0.0
 20
0.0
 30
0.0
  0
VERTEX
  5
695
  8
0
 10
311.722062235498
 20
223.0473059423115
 30
0.0
  0
VERTEX
  5
696
  8
0
 10
311.722062235498
 20
240.8463487031612
 30
0.0
  0
VERTEX
  5
697
  8
0
 10
314.7333744439802
 20
240.8463487031612
 30
0.0
  0
VERTEX
  5
698
  8
0
 10
314.7333744439802
 20
223.0473059423115
 30
0.0
  0
VERTEX
  5
699
  8
0
 10
311.722062235498
 20
223.0473059423115
 30
0.0
  0
SEQEND
  5
69A
  8
0
  0
POLYLINE
  5
69B
  8
0
 66
     1
 10
0.0
 20
0.0
 30
0.0
  0
VERTEX
  5
69C
  8
0
 10
258.7253105694326
 20
64.49096341196355
 30
0.0
  0
VERTEX
  5
69D
  8
0
 10
258.7253105694326
 20
84.49275716238844
 30
0.0
  0
VERTEX
  5
69E
  8
0
 10
261.7246322307378
 20
84.49275716238844
 30
0.0
  0
VERTEX
  5
69F
  8
0
 10
261.7246322307378
 20
64.49096341196355
 30
0.0
  0
VERTEX
  5
6A0
  8
0
 10
258.7253105694326
 20
64.49096341196355
 30
0.0
  0
SEQEND
  5
6A1
  8
0
  0
POLYLINE
  5
6A2
  8
0
 66
     1
 10
0.0
 20
0.0
 30
0.0
  0
VERTEX
  5
6A3
  8
0
 10
355.7265064103894
 20
104.4712319227476
 30
0.0
  0
VERTEX
  5
6A4
  8
0
 10
355.7265064103894
 20
124.4730256731725
 30
0.0
  0
VERTEX
  5
6A5
  8
0
 10
358.7258280716949
 20
124.4730256731725
 30
0.0
  0
VERTEX
  5
6A6
  8
0
 10
358.7258280716949
 20
104.4712319227476
 30
0.0
  0
VERTEX
  5
6A7
  8
0
 10
355.7265064103894
 20
104.4712319227476
 30
0.0
  0
SEQEND
  5
6A8
  8
0
  0
POLYLINE
  5
6A9
  8
0
 66
     1
 10
0.0
 20
0.0
 30
0.0
  0
VERTEX
  5
6AA
  8
0
 10
258.7256658449046
 20
104.4715979641429
 30
0.0
  0
VERTEX
  5
6AB
  8
0
 10
258.7256658449046
 20
124.4733917145678
 30
0.0
  0
VERTEX
  5
6AC
  8
0
 10
261.7249875062098
 20
124.4733917145678
 30
0.0
  0
VERTEX
  5
6AD
  8
0
 10
261.7249875062098
 20
104.4715979641429
 30
0.0
  0
VERTEX
  5
6AE
  8
0
 10
258.7256658449046
 20
104.4715979641429
 30
0.0
  0
SEQEND
  5
6AF
  8
0
  0
POLYLINE
  5
6B0
  8
0
 66
     1
 10
0.0
 20
0.0
 30
0.0
  0
VERTEX
  5
6B1
  8
0
 10
355.7261403689943
 20
64.49059737056837
 30
0.0
  0
VERTEX
  5
6B2
  8
0
 10
355.7261403689943
 20
84.49239112099326
 30
0.0
  0
VERTEX
  5
6B3
  8
0
 10
358.7254620302995
 20
84.49239112099326
 30
0.0
  0
VERTEX
  5
6B4
  8
0
 10
358.7254620302995
 20
64.49059737056837
 30
0.0
  0
VERTEX
  5
6B5
  8
0
 10
355.7261403689943
 20
64.49059737056837
 30
0.0
  0
SEQEND
  5
6B6
  8
0
  0
POLYLINE
  5
6B7
  8
0
 66
     1
 10
0.0
 20
0.0
 30
0.0
  0
VERTEX
  5
6B8
  8
0
 10
355.7265171763129
 20
24.47288497822899
 30
0.0
  0
VERTEX
  5
6B9
  8
0
 10
355.7265171763129
 20
44.47467872865388
 30
0.0
  0
VERTEX
  5
6BA
  8
0
 10
358.7258388376183
 20
44.47467872865388
 30
0.0
  0
VERTEX
  5
6BB
  8
0
 10
358.7258388376183
 20
24.47288497822899
 30
0.0
  0
VERTEX
  5
6BC
  8
0
 10
355.7265171763129
 20
24.47288497822899
 30
0.0
  0
SEQEND
  5
6BD
  8
0
  0
POLYLINE
  5
6BE
  8
0
 66
     1
 10
0.0
 20
0.0
 30
0.0
  0
VERTEX
  5
6BF
  8
0
 10
258.725676610828
 20
24.47325101962429
 30
0.0
  0
VERTEX
  5
6C0
  8
0
 10
258.725676610828
 20
44.47504477004918
 30
0.0
  0
VERTEX
  5
6C1
  8
0
 10
261.7249982721332
 20
44.47504477004918
 30
0.0
  0
VERTEX
  5
6C2
  8
0
 10
261.7249982721332
 20
24.47325101962429
 30
0.0
  0
VERTEX
  5
6C3
  8
0
 10
258.725676610828
 20
24.47325101962429
 30
0.0
  0
SEQEND
  5
6C4
  8
0
  0
POLYLINE
  5
6C5
  8
0
 66
     1
 10
0.0
 20
0.0
 30
0.0
  0
VERTEX
  5
6C6
  8
0
 10
318.1122648833348
 20
24.47288497822899
 30
0.0
  0
VERTEX
  5
6C7
  8
0
 10
299.3190967565226
 20
24.47288497822899
 30
0.0
  0
VERTEX
  5
6C8
  8
0
 10
299.3190967565226
 20
27.47360620957511
 30
0.0
  0
VERTEX
  5
6C9
  8
0
 10
318.1122648833348
 20
27.47360620957511
 30
0.0
  0
VERTEX
  5
6CA
  8
0
 10
318.1122648833348
 20
24.47288497822899
 30
0.0
  0
SEQEND
  5
6CB
  8
0
  0
POLYLINE
  5
6CC
  8
0
 66
     1
 10
0.0
 20
0.0
 30
0.0
  0
VERTEX
  5
6CD
  8
0
 10
358.7254620302995
 20
24.47288497822899
 30
0.0
  0
VERTEX
  5
6CE
  8
0
 10
336.9100192935116
 20
24.47288497822899
 30
0.0
  0
VERTEX
  5
6CF
  8
0
 10
336.9100192935116
 20
27.47360620957511
 30
0.0
  0
VERTEX
  5
6D0
  8
0
 10
358.7254620302995
 20
27.47360620957511
 30
0.0
  0
VERTEX
  5
6D1
  8
0
 10
358.7254620302995
 20
24.47288497822899
 30
0.0
  0
SEQEND
  5
6D2
  8
0
  0
POLYLINE
  5
6D3
  8
0
 66
     1
 10
0.0
 20
0.0
 30
0.0
  0
VERTEX
  5
6D4
  8
0
 10
280.53014887168
 20
24.47288497822899
 30
0.0
  0
VERTEX
  5
6D5
  8
0
 10
258.7252998035092
 20
24.47288497822899
 30
0.0
  0
VERTEX
  5
6D6
  8
0
 10
258.7252998035092
 20
27.47360620957511
 30
0.0
  0
VERTEX
  5
6D7
  8
0
 10
280.53014887168
 20
27.47360620957511
 30
0.0
  0
VERTEX
  5
6D8
  8
0
 10
280.53014887168
 20
24.47288497822899
 30
0.0
  0
SEQEND
  5
6D9
  8
0
  0
POLYLINE
  5
6DA
  8
0
 66
     1
 10
0.0
 20
0.0
 30
0.0
  0
VERTEX
  5
6DB
  8
0
 10
318.1122648833348
 20
121.4723367395965
 30
0.0
  0
VERTEX
  5
6DC
  8
0
 10
299.3557654915937
 20
121.4723367395965
 30
0.0
  0
VERTEX
  5
6DD
  8
0
 10
299.3557654915937
 20
124.4730687368661
 30
0.0
  0
VERTEX
  5
6DE
  8
0
 10
318.1122648833348
 20
124.4730687368661
 30
0.0
  0
VERTEX
  5
6DF
  8
0
 10
318.1122648833348
 20
121.4723367395965
 30
0.0
  0
SEQEND
  5
6E0
  8
0
  0
POLYLINE
  5
6E1
  8
0
 66
     1
 10
0.0
 20
0.0
 30
0.0
  0
VERTEX
  5
6E2
  8
0
 10
358.7254620302995
 20
121.4723367395965
 30
0.0
  0
VERTEX
  5
6E3
  8
0
 10
336.9100192935116
 20
121.4723367395965
 30
0.0
  0
VERTEX
  5
6E4
  8
0
 10
336.9100192935116
 20
124.4730687368661
 30
0.0
  0
VERTEX
  5
6E5
  8
0
 10
358.7254620302995
 20
124.4730687368661
 30
0.0
  0
VERTEX
  5
6E6
  8
0
 10
358.7254620302995
 20
121.4723367395965
 30
0.0
  0
SEQEND
  5
6E7
  8
0
  0
POLYLINE
  5
6E8
  8
0
 66
     1
 10
0.0
 20
0.0
 30
0.0
  0
VERTEX
  5
6E9
  8
0
 10
280.53014887168
 20
121.4723367395965
 30
0.0
  0
VERTEX
  5
6EA
  8
0
 10
258.7252998035092
 20
121.4723367395965
 30
0.0
  0
VERTEX
  5
6EB
  8
0
 10
258.7252998035092
 20
124.4730687368661
 30
0.0
  0
VERTEX
  5
6EC
  8
0
 10
280.53014887168
 20
124.4730687368661
 30
0.0
  0
VERTEX
  5
6ED
  8
0
 10
280.53014887168
 20
121.4723367395965
 30
0.0
  0
SEQEND
  5
6EE
  8
0
  0
POLYLINE
  5
6EF
  8
0
 66
     1
 10
0.0
 20
0.0
 30
0.0
 70
     1
  0
VERTEX
  5
93B
  8
0
 10
225.1422721629793
 20
240.598332780253
 30
0.0
  0
VERTEX
  5
93C
  8
0
 10
225.721885222336
 20
241.3682333970751
 30
0.0
  0
VERTEX
  5
93D
  8
0
 10
226.3341654856495
 20
242.1294532974779
 30
0.0
  0
VERTEX
  5
93E
  8
0
 10
226.9762597869673
 20
242.8807237668622
 30
0.0
  0
VERTEX
  5
93F
  8
0
 10
227.6453149603369
 20
243.6207760906285
 30
0.0
  0
VERTEX
  5
940
  8
0
 10
228.3384778398058
 20
244.3483415541774
 30
0.0
  0
VERTEX
  5
941
  8
0
 10
229.0528952594213
 20
245.0621514429097
 30
0.0
  0
VERTEX
  5
942
  8
0
 10
229.7857140532311
 20
245.7609370422259
 30
0.0
  0
VERTEX
  5
943
  8
0
 10
230.5340810552825
 20
246.4434296375267
 30
0.0
  0
VERTEX
  5
944
  8
0
 10
231.2951430996229
 20
247.1083605142127
 30
0.0
  0
VERTEX
  5
945
  8
0
 10
232.0660470203
 20
247.7544609576846
 30
0.0
  0
VERTEX
  5
946
  8
0
 10
232.843939651361
 20
248.380462253343
 30
0.0
  0
VERTEX
  5
947
  8
0
 10
233.6259678268536
 20
248.9850956865885
 30
0.0
  0
VERTEX
  5
948
  8
0
 10
234.4092783808252
 20
249.5670925428218
 30
0.0
  0
VERTEX
  5
949
  8
0
 10
235.1910181473232
 20
250.1251841074436
 30
0.0
  0
VERTEX
  5
94A
  8
0
 10
235.968333960395
 20
250.6581016658544
 30
0.0
  0
VERTEX
  5
94B
  8
0
 10
236.7383726540883
 20
251.1645765034548
 30
0.0
  0
VERTEX
  5
94C
  8
0
 10
237.4982810624503
 20
251.6433399056456
 30
0.0
  0
VERTEX
  5
94D
  8
0
 10
238.2452060195287
 20
252.0931231578274
 30
0.0
  0
VERTEX
  5
94E
  8
0
 10
238.9762943593708
 20
252.5126575454007
 30
0.0
  0
VERTEX
  5
94F
  8
0
 10
239.6886929160241
 20
252.9006743537664
 30
0.0
  0
VERTEX
  5
950
  8
0
 10
240.3795485235361
 20
253.2559048683249
 30
0.0
  0
VERTEX
  5
951
  8
0
 10
241.0460080159544
 20
253.5770803744769
 30
0.0
  0
VERTEX
  5
952
  8
0
 10
241.6852182273261
 20
253.862932157623
 30
0.0
  0
VERTEX
  5
953
  8
0
 10
242.294325991699
 20
254.112191503164
 30
0.0
  0
VERTEX
  5
954
  8
0
 10
243.4638077178205
 20
254.534641987334
 30
0.0
  0
VERTEX
  5
955
  8
0
 10
244.6337005115691
 20
254.8959829070108
 30
0.0
  0
VERTEX
  5
956
  8
0
 10
245.8013801230454
 20
255.1995380903465
 30
0.0
  0
VERTEX
  5
957
  8
0
 10
246.9642223023504
 20
255.4486313654932
 30
0.0
  0
VERTEX
  5
958
  8
0
 10
248.1196027995848
 20
255.6465865606035
 30
0.0
  0
VERTEX
  5
959
  8
0
 10
249.2648973648496
 20
255.7967275038291
 30
0.0
  0
VERTEX
  5
95A
  8
0
 10
250.3974817482455
 20
255.9023780233226
 30
0.0
  0
VERTEX
  5
95B
  8
0
 10
251.5147316998733
 20
255.966861947236
 30
0.0
  0
VERTEX
  5
95C
  8
0
 10
252.6140229698339
 20
255.9935031037215
 30
0.0
  0
VERTEX
  5
95D
  8
0
 10
253.6927313082281
 20
255.9856253209315
 30
0.0
  0
VERTEX
  5
95E
  8
0
 10
254.7482324651568
 20
255.946552427018
 30
0.0
  0
VERTEX
  5
95F
  8
0
 10
255.7779021907207
 20
255.8796082501333
 30
0.0
  0
VERTEX
  5
960
  8
0
 10
256.7791162350207
 20
255.7881166184295
 30
0.0
  0
VERTEX
  5
961
  8
0
 10
257.7492503481577
 20
255.675401360059
 30
0.0
  0
VERTEX
  5
962
  8
0
 10
258.6856802802324
 20
255.5447863031738
 30
0.0
  0
VERTEX
  5
963
  8
0
 10
259.5857817813456
 20
255.3995952759263
 30
0.0
  0
VERTEX
  5
964
  8
0
 10
260.4469306015982
 20
255.2431521064685
 30
0.0
  0
VERTEX
  5
965
  8
0
 10
261.2665024910911
 20
255.0787806229528
 30
0.0
  0
VERTEX
  5
966
  8
0
 10
262.041873199925
 20
254.9098046535312
 30
0.0
  0
VERTEX
  5
967
  8
0
 10
262.7704184782008
 20
254.7395480263561
 30
0.0
  0
VERTEX
  5
968
  8
0
 10
263.4495140760194
 20
254.5713345695797
 30
0.0
  0
VERTEX
  5
969
  8
0
 10
264.0765357434814
 20
254.408488111354
 30
0.0
  0
VERTEX
  5
96A
  8
0
 10
264.6488592306879
 20
254.2543324798314
 30
0.0
  0
VERTEX
  5
96B
  8
0
 10
265.1638602877395
 20
254.112191503164
 30
0.0
  0
VERTEX
  5
96C
  8
0
 10
267.8432425491328
 20
253.3940148471858
 30
0.0
  0
VERTEX
  5
96D
  8
0
 10
270.3674160442516
 20
252.7707162738442
 30
0.0
  0
VERTEX
  5
96E
  8
0
 10
272.7483374150909
 20
252.2354158508111
 30
0.0
  0
VERTEX
  5
96F
  8
0
 10
274.9979633036453
 20
251.7812336457583
 30
0.0
  0
VERTEX
  5
970
  8
0
 10
277.1282503519097
 20
251.4012897263575
 30
0.0
  0
VERTEX
  5
971
  8
0
 10
279.1511552018791
 20
251.0887041602808
 30
0.0
  0
VERTEX
  5
972
  8
0
 10
281.0786344955482
 20
250.8365970151997
 30
0.0
  0
VERTEX
  5
973
  8
0
 10
282.9226448749118
 20
250.6380883587864
 30
0.0
  0
VERTEX
  5
974
  8
0
 10
284.6951429819648
 20
250.4862982587125
 30
0.0
  0
VERTEX
  5
975
  8
0
 10
286.408085458702
 20
250.3743467826498
 30
0.0
  0
VERTEX
  5
976
  8
0
 10
288.0734289471182
 20
250.2953539982703
 30
0.0
  0
VERTEX
  5
977
  8
0
 10
289.7031300892083
 20
250.2424399732458
 30
0.0
  0
VERTEX
  5
978
  8
0
 10
291.3091455269671
 20
250.208724775248
 30
0.0
  0
VERTEX
  5
979
  8
0
 10
292.9034319023893
 20
250.1873284719488
 30
0.0
  0
VERTEX
  5
97A
  8
0
 10
294.4979458574701
 20
250.1713711310201
 30
0.0
  0
VERTEX
  5
97B
  8
0
 10
296.1046440342038
 20
250.1539728201337
 30
0.0
  0
VERTEX
  5
97C
  8
0
 10
297.7354830745858
 20
250.1282536069614
 30
0.0
  0
VERTEX
  5
97D
  8
0
 10
299.4024196206105
 20
250.0873335591751
 30
0.0
  0
VERTEX
  5
97E
  8
0
 10
301.1174103142728
 20
250.0243327444465
 30
0.0
  0
VERTEX
  5
97F
  8
0
 10
302.8924117975678
 20
249.9323712304476
 30
0.0
  0
VERTEX
  5
980
  8
0
 10
304.7393807124899
 20
249.8045690848501
 30
0.0
  0
VERTEX
  5
981
  8
0
 10
306.6702737010344
 20
249.6340463753259
 30
0.0
  0
VERTEX
  5
982
  8
0
 10
308.6970474051958
 20
249.4139231695468
 30
0.0
  0
VERTEX
  5
983
  8
0
 10
310.8316584669691
 20
249.1373195351847
 30
0.0
  0
VERTEX
  5
984
  8
0
 10
313.0864856765286
 20
248.8932412733616
 30
0.0
  0
VERTEX
  5
985
  8
0
 10
315.4580470644783
 20
248.759015620546
 30
0.0
  0
VERTEX
  5
986
  8
0
 10
317.9345000590152
 20
248.7101125784324
 30
0.0
  0
VERTEX
  5
987
  8
0
 10
320.5040020883362
 20
248.7220021487158
 30
0.0
  0
VERTEX
  5
988
  8
0
 10
323.1547105806386
 20
248.7701543330907
 30
0.0
  0
VERTEX
  5
989
  8
0
 10
325.8747829641187
 20
248.8300391332519
 30
0.0
  0
VERTEX
  5
98A
  8
0
 10
328.6523766669739
 20
248.877126550894
 30
0.0
  0
VERTEX
  5
98B
  8
0
 10
331.475649117401
 20
248.8868865877118
 30
0.0
  0
VERTEX
  5
98C
  8
0
 10
334.3327577435969
 20
248.8347892453999
 30
0.0
  0
VERTEX
  5
98D
  8
0
 10
337.2118599737586
 20
248.6963045256532
 30
0.0
  0
VERTEX
  5
98E
  8
0
 10
340.1011132360829
 20
248.4469024301662
 30
0.0
  0
VERTEX
  5
98F
  8
0
 10
342.988674958767
 20
248.0620529606337
 30
0.0
  0
VERTEX
  5
990
  8
0
 10
345.8627025700076
 20
247.5172261187504
 30
0.0
  0
VERTEX
  5
991
  8
0
 10
348.7113534980018
 20
246.7878919062111
 30
0.0
  0
VERTEX
  5
992
  8
0
 10
351.5227851709463
 20
245.8495203247102
 30
0.0
  0
VERTEX
  5
993
  8
0
 10
354.2851550170383
 20
244.6775813759428
 30
0.0
  0
VERTEX
  5
994
  8
0
 10
356.9866204644745
 20
243.2475450616033
 30
0.0
  0
VERTEX
  5
995
  8
0
 10
359.6153389414521
 20
241.5348813833865
 30
0.0
  0
VERTEX
  5
996
  8
0
 10
362.1594678761679
 20
239.5150603429872
 30
0.0
  0
VERTEX
  5
997
  8
0
 10
364.6071646968187
 20
237.1635519421
 30
0.0
  0
VERTEX
  5
998
  8
0
 10
366.9465868316017
 20
234.4558261824196
 30
0.0
  0
VERTEX
  5
999
  8
0
 10
369.1658917087136
 20
231.3673530656408
 30
0.0
  0
VERTEX
  5
99A
  8
0
 10
371.2532367563516
 20
227.8736025934582
 30
0.0
  0
VERTEX
  5
99B
  8
0
 10
373.1967794027123
 20
223.9500447675665
 30
0.0
  0
VERTEX
  5
99C
  8
0
 10
374.8765226282937
 20
219.8268808590372
 30
0.0
  0
VERTEX
  5
99D
  8
0
 10
376.1994385750323
 20
215.742131283799
 30
0.0
  0
VERTEX
  5
99E
  8
0
 10
377.1942676043644
 20
211.6829951393224
 30
0.0
  0
VERTEX
  5
99F
  8
0
 10
377.8897500777258
 20
207.6366715230775
 30
0.0
  0
VERTEX
  5
9A0
  8
0
 10
378.3146263565528
 20
203.5903595325346
 30
0.0
  0
VERTEX
  5
9A1
  8
0
 10
378.4976368022814
 20
199.5312582651639
 30
0.0
  0
VERTEX
  5
9A2
  8
0
 10
378.4675217763477
 20
195.4465668184357
 30
0.0
  0
VERTEX
  5
9A3
  8
0
 10
378.2530216401879
 20
191.3234842898203
 30
0.0
  0
VERTEX
  5
9A4
  8
0
 10
377.8828767552378
 20
187.149209776788
 30
0.0
  0
VERTEX
  5
9A5
  8
0
 10
377.3858274829337
 20
182.9109423768089
 30
0.0
  0
VERTEX
  5
9A6
  8
0
 10
376.7906141847117
 20
178.5958811873534
 30
0.0
  0
VERTEX
  5
9A7
  8
0
 10
376.1259772220078
 20
174.1912253058916
 30
0.0
  0
VERTEX
  5
9A8
  8
0
 10
375.4206569562583
 20
169.684173829894
 30
0.0
  0
VERTEX
  5
9A9
  8
0
 10
374.7033937488989
 20
165.0619258568306
 30
0.0
  0
VERTEX
  5
9AA
  8
0
 10
374.002927961366
 20
160.3116804841718
 30
0.0
  0
VERTEX
  5
9AB
  8
0
 10
373.3479999550955
 20
155.4206368093878
 30
0.0
  0
VERTEX
  5
9AC
  8
0
 10
372.7673500915238
 20
150.3759939299489
 30
0.0
  0
VERTEX
  5
9AD
  8
0
 10
372.2897187320866
 20
145.1649509433254
 30
0.0
  0
VERTEX
  5
9AE
  8
0
 10
371.9438462382202
 20
139.7747069469875
 30
0.0
  0
VERTEX
  5
9AF
  8
0
 10
371.7584729713606
 20
134.1924610384054
 30
0.0
  0
VERTEX
  5
9B0
  8
0
 10
371.762339292944
 20
128.4054123150495
 30
0.0
  0
VERTEX
  5
9B1
  8
0
 10
371.9841855644064
 20
122.4007598743899
 30
0.0
  0
VERTEX
  5
9B2
  8
0
 10
372.4527521471838
 20
116.1657028138969
 30
0.0
  0
VERTEX
  5
9B3
  8
0
 10
373.1967794027126
 20
109.6874402310409
 30
0.0
  0
VERTEX
  5
9B4
  8
0
 10
373.877931319935
 20
104.7317733628119
 30
0.0
  0
VERTEX
  5
9B5
  8
0
 10
374.5732234925169
 20
99.74817206811585
 30
0.0
  0
VERTEX
  5
9B6
  8
0
 10
375.2593356967971
 20
94.75115274143337
 30
0.0
  0
VERTEX
  5
9B7
  8
0
 10
375.9129477091142
 20
89.75523177724504
 30
0.0
  0
VERTEX
  5
9B8
  8
0
 10
376.5107393058071
 20
84.77492557003139
 30
0.0
  0
VERTEX
  5
9B9
  8
0
 10
377.0293902632147
 20
79.82475051427295
 30
0.0
  0
VERTEX
  5
9BA
  8
0
 10
377.4455803576759
 20
74.91922300445034
 30
0.0
  0
VERTEX
  5
9BB
  8
0
 10
377.7359893655293
 20
70.07285943504411
 30
0.0
  0
VERTEX
  5
9BC
  8
0
 10
377.8772970631139
 20
65.3001762005348
 30
0.0
  0
VERTEX
  5
9BD
  8
0
 10
377.8461832267684
 20
60.615689695403
 30
0.0
  0
VERTEX
  5
9BE
  8
0
 10
377.6193276328318
 20
56.03391631412924
 30
0.0
  0
VERTEX
  5
9BF
  8
0
 10
377.1734100576427
 20
51.56937245119408
 30
0.0
  0
VERTEX
  5
9C0
  8
0
 10
376.4851102775402
 20
47.23657450107811
 30
0.0
  0
VERTEX
  5
9C1
  8
0
 10
375.5311080688629
 20
43.05003885826189
 30
0.0
  0
VERTEX
  5
9C2
  8
0
 10
374.2880832079497
 20
39.02428191722597
 30
0.0
  0
VERTEX
  5
9C3
  8
0
 10
372.7327154711394
 20
35.1738200724509
 30
0.0
  0
VERTEX
  5
9C4
  8
0
 10
370.8416846347709
 20
31.51316971841726
 30
0.0
  0
VERTEX
  5
9C5
  8
0
 10
368.591670475183
 20
28.05684724960561
 30
0.0
  0
VERTEX
  5
9C6
  8
0
 10
365.9593527687144
 20
24.81936906049649
 30
0.0
  0
VERTEX
  5
9C7
  8
0
 10
362.9214112917042
 20
21.8152515455705
 30
0.0
  0
VERTEX
  5
9C8
  8
0
 10
359.454525820491
 20
19.05901109930817
 30
0.0
  0
VERTEX
  5
9C9
  8
0
 10
355.5353761314137
 20
16.56516411619008
 30
0.0
  0
VERTEX
  5
9CA
  8
0
 10
351.1406420008111
 20
14.34822699069677
 30
0.0
  0
VERTEX
  5
9CB
  8
0
 10
346.2470032050228
 20
12.4227161173091
 30
0.0
  0
VERTEX
  5
9CC
  8
0
 10
345.1983570722506
 20
12.07427602703477
 30
0.0
  0
VERTEX
  5
9CD
  8
0
 10
344.1494276611193
 20
11.7507334336164
 30
0.0
  0
VERTEX
  5
9CE
  8
0
 10
343.1003616573348
 20
11.45102739829268
 30
0.0
  0
VERTEX
  5
9CF
  8
0
 10
342.0513057466035
 20
11.17409698230233
 30
0.0
  0
VERTEX
  5
9D0
  8
0
 10
341.0024066146316
 20
10.91888124688406
 30
0.0
  0
VERTEX
  5
9D1
  8
0
 10
339.9538109471254
 20
10.68431925327656
 30
0.0
  0
VERTEX
  5
9D2
  8
0
 10
338.9056654297909
 20
10.46935006271855
 30
0.0
  0
VERTEX
  5
9D3
  8
0
 10
337.8581167483345
 20
10.27291273644873
 30
0.0
  0
VERTEX
  5
9D4
  8
0
 10
336.8113115884622
 20
10.09394633570582
 30
0.0
  0
VERTEX
  5
9D5
  8
0
 10
335.7653966358803
 20
9.931389921728512
 30
0.0
  0
VERTEX
  5
9D6
  8
0
 10
334.7205185762951
 20
9.784182555755521
 30
0.0
  0
VERTEX
  5
9D7
  8
0
 10
333.6768240954128
 20
9.651263299025553
 30
0.0
  0
VERTEX
  5
9D8
  8
0
 10
332.6344598789396
 20
9.531571212777314
 30
0.0
  0
VERTEX
  5
9D9
  8
0
 10
331.5935726125816
 20
9.424045358249511
 30
0.0
  0
VERTEX
  5
9DA
  8
0
 10
330.554308982045
 20
9.327624796680853
 30
0.0
  0
VERTEX
  5
9DB
  8
0
 10
329.5168156730361
 20
9.241248589310047
 30
0.0
  0
VERTEX
  5
9DC
  8
0
 10
328.4812393712612
 20
9.1638557973758
 30
0.0
  0
VERTEX
  5
9DD
  8
0
 10
327.4477267624262
 20
9.094385482116818
 30
0.0
  0
VERTEX
  5
9DE
  8
0
 10
326.4164245322376
 20
9.031776704771811
 30
0.0
  0
VERTEX
  5
9DF
  8
0
 10
325.3874793664015
 20
8.974968526579481
 30
0.0
  0
VERTEX
  5
9E0
  8
0
 10
324.3610379506242
 20
8.92290000877854
 30
0.0
  0
VERTEX
  5
9E1
  8
0
 10
323.3372469706117
 20
8.874510212607696
 30
0.0
  0
VERTEX
  5
9E2
  8
0
 10
322.3162531120704
 20
8.82873819930565
 30
0.0
  0
VERTEX
  5
9E3
  8
0
 10
321.2982030607053
 20
8.784523030111067
 30
0.0
  0
VERTEX
  5
9E4
  8
0
 10
317.0956798168323
 20
8.581236226191255
 30
0.0
  0
VERTEX
  5
9E5
  8
0
 10
312.6324819240625
 20
8.338509340396477
 30
0.0
  0
VERTEX
  5
9E6
  8
0
 10
307.9393880172308
 20
8.082115077474642
 30
0.0
  0
VERTEX
  5
9E7
  8
0
 10
303.0471767311722
 20
7.837826142173655
 30
0.0
  0
VERTEX
  5
9E8
  8
0
 10
297.9866267007213
 20
7.631415239241415
 30
0.0
  0
VERTEX
  5
9E9
  8
0
 10
292.7885165607129
 20
7.48865507342583
 30
0.0
  0
VERTEX
  5
9EA
  8
0
 10
287.4836249459821
 20
7.435318349474802
 30
0.0
  0
VERTEX
  5
9EB
  8
0
 10
282.1027304913636
 20
7.497177772136236
 30
0.0
  0
VERTEX
  5
9EC
  8
0
 10
276.6766118316922
 20
7.700006046158038
 30
0.0
  0
VERTEX
  5
9ED
  8
0
 10
271.2360476018028
 20
8.069575876288107
 30
0.0
  0
VERTEX
  5
9EE
  8
0
 10
265.8118164365301
 20
8.631659967274352
 30
0.0
  0
VERTEX
  5
9EF
  8
0
 10
260.4346969707092
 20
9.412031023864674
 30
0.0
  0
VERTEX
  5
9F0
  8
0
 10
255.1354678391747
 20
10.43646175080698
 30
0.0
  0
VERTEX
  5
9F1
  8
0
 10
249.9449076767615
 20
11.73072485284917
 30
0.0
  0
VERTEX
  5
9F2
  8
0
 10
244.8937951183045
 20
13.32059303473915
 30
0.0
  0
VERTEX
  5
9F3
  8
0
 10
240.0129087986384
 20
15.23183900122483
 30
0.0
  0
VERTEX
  5
9F4
  8
0
 10
235.3330273525982
 20
17.4902354570541
 30
0.0
  0
VERTEX
  5
9F5
  8
0
 10
230.8849294150187
 20
20.12155510697488
 30
0.0
  0
VERTEX
  5
9F6
  8
0
 10
226.6993936207347
 20
23.15157065573506
 30
0.0
  0
VERTEX
  5
9F7
  8
0
 10
222.807198604581
 20
26.60605480808255
 30
0.0
  0
VERTEX
  5
9F8
  8
0
 10
219.2391230013925
 20
30.51078026876526
 30
0.0
  0
VERTEX
  5
9F9
  8
0
 10
216.0259454460041
 20
34.89151974253109
 30
0.0
  0
VERTEX
  5
9FA
  8
0
 10
213.1984445732504
 20
39.77404593412793
 30
0.0
  0
VERTEX
  5
9FB
  8
0
 10
210.7873990179666
 20
45.18413154830359
 30
0.0
  0
VERTEX
  5
9FC
  8
0
 10
208.8490740517682
 20
50.73518567818287
 30
0.0
  0
VERTEX
  5
9FD
  8
0
 10
207.3937478372334
 20
56.03560887320201
 30
0.0
  0
VERTEX
  5
9FE
  8
0
 10
206.3833556111646
 20
61.10353183149436
 30
0.0
  0
VERTEX
  5
9FF
  8
0
 10
205.7798326103635
 20
65.95708525119313
 30
0.0
  0
VERTEX
  5
A00
  8
0
 10
205.5451140716323
 20
70.61439983043167
 30
0.0
  0
VERTEX
  5
A01
  8
0
 10
205.6411352317729
 20
75.09360626734318
 30
0.0
  0
VERTEX
  5
A02
  8
0
 10
206.0298313275874
 20
79.412835260061
 30
0.0
  0
VERTEX
  5
A03
  8
0
 10
206.6731375958778
 20
83.59021750671837
 30
0.0
  0
VERTEX
  5
A04
  8
0
 10
207.5329892734461
 20
87.64388370544862
 30
0.0
  0
VERTEX
  5
A05
  8
0
 10
208.5713215970944
 20
91.59196455438496
 30
0.0
  0
VERTEX
  5
A06
  8
0
 10
209.7500698036247
 20
95.45259075166074
 30
0.0
  0
VERTEX
  5
A07
  8
0
 10
211.0311691298389
 20
99.24389299540917
 30
0.0
  0
VERTEX
  5
A08
  8
0
 10
212.3765548125392
 20
102.9840019837636
 30
0.0
  0
VERTEX
  5
A09
  8
0
 10
213.7481620885275
 20
106.6910484148573
 30
0.0
  0
VERTEX
  5
A0A
  8
0
 10
215.1079261946059
 20
110.3831629868235
 30
0.0
  0
VERTEX
  5
A0B
  8
0
 10
216.4177823675764
 20
114.0784763977955
 30
0.0
  0
VERTEX
  5
A0C
  8
0
 10
217.639665844241
 20
117.7951193459066
 30
0.0
  0
VERTEX
  5
A0D
  8
0
 10
218.7355118614017
 20
121.55122252929
 30
0.0
  0
VERTEX
  5
A0E
  8
0
 10
219.6672556558607
 20
125.3649166460791
 30
0.0
  0
VERTEX
  5
A0F
  8
0
 10
220.3968324644197
 20
129.2543323944071
 30
0.0
  0
VERTEX
  5
A10
  8
0
 10
220.886177523881
 20
133.2376004724074
 30
0.0
  0
VERTEX
  5
A11
  8
0
 10
221.0972260710465
 20
137.3328515782131
 30
0.0
  0
VERTEX
  5
A12
  8
0
 10
220.9919133427184
 20
141.5582164099575
 30
0.0
  0
VERTEX
  5
A13
  8
0
 10
220.5321745756984
 20
145.9318256657741
 30
0.0
  0
VERTEX
  5
A14
  8
0
 10
219.9180026904258
 20
150.1606709751517
 30
0.0
  0
VERTEX
  5
A15
  8
0
 10
219.3746982154745
 20
153.9616634778747
 30
0.0
  0
VERTEX
  5
A16
  8
0
 10
218.9021577998489
 20
157.3679463658205
 30
0.0
  0
VERTEX
  5
A17
  8
0
 10
218.5002780925536
 20
160.4126628308666
 30
0.0
  0
VERTEX
  5
A18
  8
0
 10
218.1689557425931
 20
163.1289560648905
 30
0.0
  0
VERTEX
  5
A19
  8
0
 10
217.908087398972
 20
165.5499692597699
 30
0.0
  0
VERTEX
  5
A1A
  8
0
 10
217.7175697106948
 20
167.7088456073821
 30
0.0
  0
VERTEX
  5
A1B
  8
0
 10
217.5972993267659
 20
169.6387282996046
 30
0.0
  0
VERTEX
  5
A1C
  8
0
 10
217.5471728961899
 20
171.3727605283151
 30
0.0
  0
VERTEX
  5
A1D
  8
0
 10
217.5670870679714
 20
172.944085485391
 30
0.0
  0
VERTEX
  5
A1E
  8
0
 10
217.6569384911149
 20
174.3858463627098
 30
0.0
  0
VERTEX
  5
A1F
  8
0
 10
217.8166238146248
 20
175.7311863521491
 30
0.0
  0
VERTEX
  5
A20
  8
0
 10
218.0460396875058
 20
177.0132486455863
 30
0.0
  0
VERTEX
  5
A21
  8
0
 10
218.3450827587623
 20
178.265176434899
 30
0.0
  0
VERTEX
  5
A22
  8
0
 10
218.713649677399
 20
179.5201129119647
 30
0.0
  0
VERTEX
  5
A23
  8
0
 10
219.1516370924202
 20
180.8112012686608
 30
0.0
  0
VERTEX
  5
A24
  8
0
 10
219.6589416528306
 20
182.171584696865
 30
0.0
  0
VERTEX
  5
A25
  8
0
 10
220.2354600076346
 20
183.6344063884547
 30
0.0
  0
VERTEX
  5
A26
  8
0
 10
220.8810888058368
 20
185.2328095353074
 30
0.0
  0
VERTEX
  5
A27
  8
0
 10
221.5957246964417
 20
186.9999373293007
 30
0.0
  0
VERTEX
  5
A28
  8
0
 10
222.3792643284539
 20
188.9689329623121
 30
0.0
  0
VERTEX
  5
A29
  8
0
 10
223.2316043508778
 20
191.1729396262189
 30
0.0
  0
VERTEX
  5
A2A
  8
0
 10
224.152641412718
 20
193.645100512899
 30
0.0
  0
VERTEX
  5
A2B
  8
0
 10
225.1422721629791
 20
196.4185588142296
 30
0.0
  0
VERTEX
  5
A2C
  8
0
 10
225.9879687758131
 20
199.1401611954446
 30
0.0
  0
VERTEX
  5
A2D
  8
0
 10
226.5913055286318
 20
201.7231369111596
 30
0.0
  0
VERTEX
  5
A2E
  8
0
 10
226.9753034701785
 20
204.1759455841488
 30
0.0
  0
VERTEX
  5
A2F
  8
0
 10
227.1629836491963
 20
206.5070468371863
 30
0.0
  0
VERTEX
  5
A30
  8
0
 10
227.1773671144284
 20
208.7249002930463
 30
0.0
  0
VERTEX
  5
A31
  8
0
 10
227.0414749146179
 20
210.8379655745029
 30
0.0
  0
VERTEX
  5
A32
  8
0
 10
226.778328098508
 20
212.8547023043302
 30
0.0
  0
VERTEX
  5
A33
  8
0
 10
226.4109477148421
 20
214.7835701053023
 30
0.0
  0
VERTEX
  5
A34
  8
0
 10
225.962354812363
 20
216.6330286001935
 30
0.0
  0
VERTEX
  5
A35
  8
0
 10
225.4555704398141
 20
218.4115374117777
 30
0.0
  0
VERTEX
  5
A36
  8
0
 10
224.9136156459386
 20
220.1275561628293
 30
0.0
  0
VERTEX
  5
A37
  8
0
 10
224.3595114794797
 20
221.7895444761222
 30
0.0
  0
VERTEX
  5
A38
  8
0
 10
223.8162789891804
 20
223.4059619744307
 30
0.0
  0
VERTEX
  5
A39
  8
0
 10
223.306939223784
 20
224.9852682805289
 30
0.0
  0
VERTEX
  5
A3A
  8
0
 10
222.8545132320338
 20
226.5359230171908
 30
0.0
  0
VERTEX
  5
A3B
  8
0
 10
222.4820220626727
 20
228.0663858071907
 30
0.0
  0
VERTEX
  5
A3C
  8
0
 10
222.2124867644441
 20
229.5851162733027
 30
0.0
  0
VERTEX
  5
A3D
  8
0
 10
222.0689283860911
 20
231.1005740383009
 30
0.0
  0
VERTEX
  5
A3E
  8
0
 10
222.0743679763569
 20
232.6212187249594
 30
0.0
  0
VERTEX
  5
A3F
  8
0
 10
222.2518265839846
 20
234.1555099560525
 30
0.0
  0
VERTEX
  5
A40
  8
0
 10
222.6243252577174
 20
235.7119073543541
 30
0.0
  0
VERTEX
  5
A41
  8
0
 10
223.2148850462986
 20
237.2988705426385
 30
0.0
  0
VERTEX
  5
A42
  8
0
 10
224.0465269984713
 20
238.9248591436798
 30
0.0
  0
SEQEND
  5
B64
  8
0
  0
POLYLINE
  5
6F0
  8
0
 66
     1
 10
0.0
 20
0.0
 30
0.0
  0
VERTEX
  5
A43
  8
0
 10
220.463035815679
 20
145.3938417079813
 30
0.0
  0
VERTEX
  5
A44
  8
0
 10
220.9635001940167
 20
145.612371224606
 30
0.0
  0
VERTEX
  5
A45
  8
0
 10
221.4618806933081
 20
145.8253995786677
 30
0.0
  0
VERTEX
  5
A46
  8
0
 10
221.9581773135529
 20
146.0329267701664
 30
0.0
  0
VERTEX
  5
A47
  8
0
 10
222.4523900547514
 20
146.2349527991022
 30
0.0
  0
VERTEX
  5
A48
  8
0
 10
222.9445189169033
 20
146.4314776654751
 30
0.0
  0
VERTEX
  5
A49
  8
0
 10
223.4345639000089
 20
146.6225013692851
 30
0.0
  0
VERTEX
  5
A4A
  8
0
 10
223.9225250040679
 20
146.8080239105321
 30
0.0
  0
VERTEX
  5
A4B
  8
0
 10
224.4084022290806
 20
146.9880452892161
 30
0.0
  0
VERTEX
  5
A4C
  8
0
 10
224.8921955750468
 20
147.1625655053373
 30
0.0
  0
VERTEX
  5
A4D
  8
0
 10
225.3739050419665
 20
147.3315845588955
 30
0.0
  0
VERTEX
  5
A4E
  8
0
 10
225.8535306298398
 20
147.4951024498907
 30
0.0
  0
VERTEX
  5
A4F
  8
0
 10
226.3310723386667
 20
147.6531191783231
 30
0.0
  0
VERTEX
  5
A50
  8
0
 10
226.8065301684471
 20
147.8056347441925
 30
0.0
  0
VERTEX
  5
A51
  8
0
 10
227.279904119181
 20
147.9526491474989
 30
0.0
  0
VERTEX
  5
A52
  8
0
 10
227.7511941908685
 20
148.0941623882424
 30
0.0
  0
VERTEX
  5
A53
  8
0
 10
228.2204003835096
 20
148.230174466423
 30
0.0
  0
VERTEX
  5
A54
  8
0
 10
228.6875226971042
 20
148.3606853820406
 30
0.0
  0
VERTEX
  5
A55
  8
0
 10
229.1525611316523
 20
148.4856951350953
 30
0.0
  0
VERTEX
  5
A56
  8
0
 10
229.615515687154
 20
148.605203725587
 30
0.0
  0
VERTEX
  5
A57
  8
0
 10
230.0763863636092
 20
148.7192111535159
 30
0.0
  0
VERTEX
  5
A58
  8
0
 10
230.5351731610181
 20
148.8277174188818
 30
0.0
  0
VERTEX
  5
A59
  8
0
 10
230.9918760793804
 20
148.9307225216847
 30
0.0
  0
VERTEX
  5
A5A
  8
0
 10
231.4464951186963
 20
149.0282264619248
 30
0.0
  0
VERTEX
  5
A5B
  8
0
 10
231.8990302789657
 20
149.1202292396018
 30
0.0
  0
VERTEX
  5
A5C
  8
0
 10
232.1192996681834
 20
149.1764006613987
 30
0.0
  0
VERTEX
  5
A5D
  8
0
 10
232.371861098833
 20
149.2617550904315
 30
0.0
  0
VERTEX
  5
A5E
  8
0
 10
232.6540779196437
 20
149.3720719015687
 30
0.0
  0
VERTEX
  5
A5F
  8
0
 10
232.9633134793443
 20
149.5031304696784
 30
0.0
  0
VERTEX
  5
A60
  8
0
 10
233.296931126664
 20
149.6507101696293
 30
0.0
  0
VERTEX
  5
A61
  8
0
 10
233.6522942103317
 20
149.8105903762896
 30
0.0
  0
VERTEX
  5
A62
  8
0
 10
234.0267660790764
 20
149.9785504645276
 30
0.0
  0
VERTEX
  5
A63
  8
0
 10
234.417710081627
 20
150.1503698092117
 30
0.0
  0
VERTEX
  5
A64
  8
0
 10
234.8224895667128
 20
150.3218277852103
 30
0.0
  0
VERTEX
  5
A65
  8
0
 10
235.2384678830625
 20
150.4887037673919
 30
0.0
  0
VERTEX
  5
A66
  8
0
 10
235.6630083794053
 20
150.6467771306246
 30
0.0
  0
VERTEX
  5
A67
  8
0
 10
236.0934744044701
 20
150.7918272497769
 30
0.0
  0
VERTEX
  5
A68
  8
0
 10
236.527229306986
 20
150.9196334997172
 30
0.0
  0
VERTEX
  5
A69
  8
0
 10
236.9616364356819
 20
151.0259752553138
 30
0.0
  0
VERTEX
  5
A6A
  8
0
 10
237.3940591392868
 20
151.1066318914351
 30
0.0
  0
VERTEX
  5
A6B
  8
0
 10
237.8218607665298
 20
151.1573827829494
 30
0.0
  0
VERTEX
  5
A6C
  8
0
 10
238.2424046661399
 20
151.1740073047252
 30
0.0
  0
VERTEX
  5
A6D
  8
0
 10
238.653054186846
 20
151.1522848316307
 30
0.0
  0
VERTEX
  5
A6E
  8
0
 10
239.0511726773772
 20
151.0879947385344
 30
0.0
  0
VERTEX
  5
A6F
  8
0
 10
239.4341234864624
 20
150.9769164003046
 30
0.0
  0
VERTEX
  5
A70
  8
0
 10
239.7992699628307
 20
150.8148291918097
 30
0.0
  0
VERTEX
  5
A71
  8
0
 10
240.1439754552111
 20
150.597512487918
 30
0.0
  0
VERTEX
  5
A72
  8
0
 10
240.4656033123326
 20
150.3207456634979
 30
0.0
  0
VERTEX
  5
A73
  8
0
 10
240.7615168829241
 20
149.9803080934178
 30
0.0
  0
VERTEX
  5
A74
  8
0
 10
240.9901667164323
 20
149.6320443161661
 30
0.0
  0
VERTEX
  5
A75
  8
0
 10
241.1495168244136
 20
149.2889700177154
 30
0.0
  0
VERTEX
  5
A76
  8
0
 10
241.2450087830354
 20
148.950486983738
 30
0.0
  0
VERTEX
  5
A77
  8
0
 10
241.2820841684652
 20
148.6159969999065
 30
0.0
  0
VERTEX
  5
A78
  8
0
 10
241.2661845568705
 20
148.2849018518937
 30
0.0
  0
VERTEX
  5
A79
  8
0
 10
241.2027515244188
 20
147.956603325372
 30
0.0
  0
VERTEX
  5
A7A
  8
0
 10
241.0972266472777
 20
147.6305032060142
 30
0.0
  0
VERTEX
  5
A7B
  8
0
 10
240.9550515016145
 20
147.3060032794926
 30
0.0
  0
VERTEX
  5
A7C
  8
0
 10
240.7816676635969
 20
146.9825053314801
 30
0.0
  0
VERTEX
  5
A7D
  8
0
 10
240.5825167093923
 20
146.6594111476491
 30
0.0
  0
VERTEX
  5
A7E
  8
0
 10
240.3630402151683
 20
146.3361225136723
 30
0.0
  0
VERTEX
  5
A7F
  8
0
 10
240.1286797570922
 20
146.0120412152222
 30
0.0
  0
VERTEX
  5
A80
  8
0
 10
239.8848769113318
 20
145.6865690379715
 30
0.0
  0
VERTEX
  5
A81
  8
0
 10
239.6370732540543
 20
145.3591077675928
 30
0.0
  0
VERTEX
  5
A82
  8
0
 10
239.3907103614273
 20
145.0290591897586
 30
0.0
  0
VERTEX
  5
A83
  8
0
 10
239.1512298096184
 20
144.6958250901415
 30
0.0
  0
VERTEX
  5
A84
  8
0
 10
238.924073174795
 20
144.3588072544142
 30
0.0
  0
VERTEX
  5
A85
  8
0
 10
238.7146820331247
 20
144.0174074682492
 30
0.0
  0
VERTEX
  5
A86
  8
0
 10
238.5284979607748
 20
143.6710275173191
 30
0.0
  0
VERTEX
  5
A87
  8
0
 10
238.370962533913
 20
143.3190691872966
 30
0.0
  0
VERTEX
  5
A88
  8
0
 10
238.2475173287067
 20
142.9609342638542
 30
0.0
  0
VERTEX
  5
A89
  8
0
 10
238.1636039213234
 20
142.5960245326645
 30
0.0
  0
VERTEX
  5
A8A
  8
0
 10
238.1246638879307
 20
142.2237417794001
 30
0.0
  0
VERTEX
  5
A8B
  8
0
 10
238.136138804696
 20
141.8434877897337
 30
0.0
  0
VERTEX
  5
A8C
  8
0
 10
238.3261228009804
 20
140.6726381916771
 30
0.0
  0
VERTEX
  5
A8D
  8
0
 10
238.6463425556929
 20
139.5859734511768
 30
0.0
  0
VERTEX
  5
A8E
  8
0
 10
239.0868011706764
 20
138.5841655880118
 30
0.0
  0
VERTEX
  5
A8F
  8
0
 10
239.6375017477737
 20
137.6678866219607
 30
0.0
  0
VERTEX
  5
A90
  8
0
 10
240.2884473888279
 20
136.8378085728023
 30
0.0
  0
VERTEX
  5
A91
  8
0
 10
241.0296411956818
 20
136.0946034603155
 30
0.0
  0
VERTEX
  5
A92
  8
0
 10
241.8510862701785
 20
135.438943304279
 30
0.0
  0
VERTEX
  5
A93
  8
0
 10
242.7427857141607
 20
134.8715001244715
 30
0.0
  0
VERTEX
  5
A94
  8
0
 10
243.6947426294715
 20
134.3929459406719
 30
0.0
  0
VERTEX
  5
A95
  8
0
 10
244.6969601179538
 20
134.0039527726589
 30
0.0
  0
VERTEX
  5
A96
  8
0
 10
245.7394412814504
 20
133.7051926402114
 30
0.0
  0
VERTEX
  5
A97
  8
0
 10
246.8121892218045
 20
133.497337563108
 30
0.0
  0
VERTEX
  5
A98
  8
0
 10
247.9052070408588
 20
133.3810595611276
 30
0.0
  0
VERTEX
  5
A99
  8
0
 10
249.0084978404563
 20
133.3570306540489
 30
0.0
  0
VERTEX
  5
A9A
  8
0
 10
250.11206472244
 20
133.4259228616508
 30
0.0
  0
VERTEX
  5
A9B
  8
0
 10
251.2059107886527
 20
133.588408203712
 30
0.0
  0
VERTEX
  5
A9C
  8
0
 10
252.2800391409374
 20
133.8451587000112
 30
0.0
  0
VERTEX
  5
A9D
  8
0
 10
253.3244528811371
 20
134.1968463703273
 30
0.0
  0
VERTEX
  5
A9E
  8
0
 10
254.3291551110946
 20
134.6441432344391
 30
0.0
  0
VERTEX
  5
A9F
  8
0
 10
255.2841489326529
 20
135.1877213121252
 30
0.0
  0
VERTEX
  5
AA0
  8
0
 10
256.179437447655
 20
135.8282526231646
 30
0.0
  0
VERTEX
  5
AA1
  8
0
 10
257.0050237579436
 20
136.5664091873359
 30
0.0
  0
VERTEX
  5
AA2
  8
0
 10
257.7509109653619
 20
137.402863024418
 30
0.0
  0
VERTEX
  5
AA3
  8
0
 10
258.4071021717526
 20
138.3382861541896
 30
0.0
  0
VERTEX
  5
AA4
  8
0
 10
258.6414721232175
 20
138.8139865630269
 30
0.0
  0
VERTEX
  5
AA5
  8
0
 10
258.7855244163424
 20
139.3219740321875
 30
0.0
  0
VERTEX
  5
AA6
  8
0
 10
258.8487960051127
 20
139.857957051532
 30
0.0
  0
VERTEX
  5
AA7
  8
0
 10
258.8408238435141
 20
140.4176441109211
 30
0.0
  0
VERTEX
  5
AA8
  8
0
 10
258.771144885532
 20
140.9967437002154
 30
0.0
  0
VERTEX
  5
AA9
  8
0
 10
258.6492960851521
 20
141.5909643092755
 30
0.0
  0
VERTEX
  5
AAA
  8
0
 10
258.4848143963596
 20
142.1960144279621
 30
0.0
  0
VERTEX
  5
AAB
  8
0
 10
258.2872367731403
 20
142.8076025461357
 30
0.0
  0
VERTEX
  5
AAC
  8
0
 10
258.0661001694796
 20
143.421437153657
 30
0.0
  0
VERTEX
  5
AAD
  8
0
 10
257.8309415393631
 20
144.0332267403866
 30
0.0
  0
VERTEX
  5
AAE
  8
0
 10
257.5912978367761
 20
144.6386797961851
 30
0.0
  0
VERTEX
  5
AAF
  8
0
 10
257.3567060157044
 20
145.2335048109131
 30
0.0
  0
VERTEX
  5
AB0
  8
0
 10
257.1367030301333
 20
145.8134102744312
 30
0.0
  0
VERTEX
  5
AB1
  8
0
 10
256.9408258340483
 20
146.3741046766002
 30
0.0
  0
VERTEX
  5
AB2
  8
0
 10
256.7786113814352
 20
146.9112965072805
 30
0.0
  0
VERTEX
  5
AB3
  8
0
 10
256.6595966262792
 20
147.4206942563328
 30
0.0
  0
VERTEX
  5
AB4
  8
0
 10
256.5933185225659
 20
147.8980064136178
 30
0.0
  0
VERTEX
  5
AB5
  8
0
 10
256.5893140242808
 20
148.338941468996
 30
0.0
  0
VERTEX
  5
AB6
  8
0
 10
256.6571200854096
 20
148.739207912328
 30
0.0
  0
VERTEX
  5
AB7
  8
0
 10
256.8062736599376
 20
149.0945142334745
 30
0.0
  0
VERTEX
  5
AB8
  8
0
 10
257.0463117018505
 20
149.4005689222961
 30
0.0
  0
VERTEX
  5
AB9
  8
0
 10
257.3867711651336
 20
149.6530804686535
 30
0.0
  0
VERTEX
  5
ABA
  8
0
 10
257.8371890037725
 20
149.8477573624072
 30
0.0
  0
VERTEX
  5
ABB
  8
0
 10
258.4071021717528
 20
149.9803080934178
 30
0.0
  0
VERTEX
  5
ABC
  8
0
 10
259.6081180865211
 20
150.1488223806144
 30
0.0
  0
VERTEX
  5
ABD
  8
0
 10
260.8816514949697
 20
150.2860656882348
 30
0.0
  0
VERTEX
  5
ABE
  8
0
 10
262.2277024251346
 20
150.3920380069337
 30
0.0
  0
VERTEX
  5
ABF
  8
0
 10
263.6462709050524
 20
150.4667393273655
 30
0.0
  0
VERTEX
  5
AC0
  8
0
 10
265.1373569627592
 20
150.5101696401849
 30
0.0
  0
VERTEX
  5
AC1
  8
0
 10
266.7009606262911
 20
150.5223289360464
 30
0.0
  0
VERTEX
  5
AC2
  8
0
 10
268.3370819236845
 20
150.5032172056047
 30
0.0
  0
VERTEX
  5
AC3
  8
0
 10
270.0457208829757
 20
150.4528344395142
 30
0.0
  0
VERTEX
  5
AC4
  8
0
 10
271.826877532201
 20
150.3711806284296
 30
0.0
  0
VERTEX
  5
AC5
  8
0
 10
273.6805518993964
 20
150.2582557630055
 30
0.0
  0
VERTEX
  5
AC6
  8
0
 10
275.6067440125984
 20
150.1140598338964
 30
0.0
  0
VERTEX
  5
AC7
  8
0
 10
277.6054538998433
 20
149.938592831757
 30
0.0
  0
VERTEX
  5
AC8
  8
0
 10
279.6766815891672
 20
149.7318547472417
 30
0.0
  0
VERTEX
  5
AC9
  8
0
 10
281.8204271086063
 20
149.4938455710052
 30
0.0
  0
VERTEX
  5
ACA
  8
0
 10
284.0366904861971
 20
149.2245652937021
 30
0.0
  0
VERTEX
  5
ACB
  8
0
 10
286.3254717499756
 20
148.924013905987
 30
0.0
  0
VERTEX
  5
ACC
  8
0
 10
288.6867709279783
 20
148.5921913985143
 30
0.0
  0
VERTEX
  5
ACD
  8
0
 10
291.1205880482413
 20
148.2290977619388
 30
0.0
  0
VERTEX
  5
ACE
  8
0
 10
293.6269231388009
 20
147.8347329869149
 30
0.0
  0
VERTEX
  5
ACF
  8
0
 10
296.2057762276933
 20
147.4090970640973
 30
0.0
  0
VERTEX
  5
AD0
  8
0
 10
298.857147342955
 20
146.9521899841406
 30
0.0
  0
VERTEX
  5
AD1
  8
0
 10
301.5810365126219
 20
146.4640117376993
 30
0.0
  0
VERTEX
  5
AD2
  8
0
 10
304.3774437647305
 20
145.9445623154279
 30
0.0
  0
VERTEX
  5
AD3
  8
0
 10
307.2463691273168
 20
145.3938417079813
 30
0.0
  0
VERTEX
  5
AD4
  8
0
 10
308.8105113377871
 20
145.4302868819246
 30
0.0
  0
VERTEX
  5
AD5
  8
0
 10
310.3422835753712
 20
145.4770643144076
 30
0.0
  0
VERTEX
  5
AD6
  8
0
 10
311.8416858587601
 20
145.5341740054303
 30
0.0
  0
VERTEX
  5
AD7
  8
0
 10
313.3087182066444
 20
145.6016159549929
 30
0.0
  0
VERTEX
  5
AD8
  8
0
 10
314.7433806377152
 20
145.6793901630953
 30
0.0
  0
VERTEX
  5
AD9
  8
0
 10
316.1456731706633
 20
145.7674966297375
 30
0.0
  0
VERTEX
  5
ADA
  8
0
 10
317.5155958241793
 20
145.8659353549195
 30
0.0
  0
VERTEX
  5
ADB
  8
0
 10
318.8531486169543
 20
145.9747063386413
 30
0.0
  0
VERTEX
  5
ADC
  8
0
 10
320.158331567679
 20
146.0938095809028
 30
0.0
  0
VERTEX
  5
ADD
  8
0
 10
321.4311446950443
 20
146.2232450817042
 30
0.0
  0
VERTEX
  5
ADE
  8
0
 10
322.671588017741
 20
146.3630128410454
 30
0.0
  0
VERTEX
  5
ADF
  8
0
 10
323.87966155446
 20
146.5131128589263
 30
0.0
  0
VERTEX
  5
AE0
  8
0
 10
325.0553653238921
 20
146.6735451353471
 30
0.0
  0
VERTEX
  5
AE1
  8
0
 10
326.1986993447282
 20
146.8443096703076
 30
0.0
  0
VERTEX
  5
AE2
  8
0
 10
327.309663635659
 20
147.025406463808
 30
0.0
  0
VERTEX
  5
AE3
  8
0
 10
328.3882582153755
 20
147.2168355158481
 30
0.0
  0
VERTEX
  5
AE4
  8
0
 10
329.4344831025683
 20
147.4185968264281
 30
0.0
  0
VERTEX
  5
AE5
  8
0
 10
330.4483383159285
 20
147.6306903955478
 30
0.0
  0
VERTEX
  5
AE6
  8
0
 10
331.4298238741468
 20
147.8531162232073
 30
0.0
  0
VERTEX
  5
AE7
  8
0
 10
332.3789397959142
 20
148.0858743094066
 30
0.0
  0
VERTEX
  5
AE8
  8
0
 10
333.2956860999213
 20
148.3289646541458
 30
0.0
  0
VERTEX
  5
AE9
  8
0
 10
334.1800628048591
 20
148.5823872574247
 30
0.0
  0
VERTEX
  5
AEA
  8
0
 10
335.0320699294184
 20
148.8461421192434
 30
0.0
  0
VERTEX
  5
AEB
  8
0
 10
335.8517074922898
 20
149.1202292396019
 30
0.0
  0
VERTEX
  5
AEC
  8
0
 10
336.1954796498259
 20
149.2977993770249
 30
0.0
  0
VERTEX
  5
AED
  8
0
 10
336.4456326832907
 20
149.5531985427818
 30
0.0
  0
VERTEX
  5
AEE
  8
0
 10
336.6108564871816
 20
149.8808312977165
 30
0.0
  0
VERTEX
  5
AEF
  8
0
 10
336.6998409559962
 20
150.2751022026731
 30
0.0
  0
VERTEX
  5
AF0
  8
0
 10
336.7212759842317
 20
150.7304158184956
 30
0.0
  0
VERTEX
  5
AF1
  8
0
 10
336.6838514663859
 20
151.2411767060281
 30
0.0
  0
VERTEX
  5
AF2
  8
0
 10
336.5962572969559
 20
151.8017894261145
 30
0.0
  0
VERTEX
  5
AF3
  8
0
 10
336.4671833704393
 20
152.4066585395989
 30
0.0
  0
VERTEX
  5
AF4
  8
0
 10
336.3053195813334
 20
153.0501886073254
 30
0.0
  0
VERTEX
  5
AF5
  8
0
 10
336.1193558241357
 20
153.7267841901379
 30
0.0
  0
VERTEX
  5
AF6
  8
0
 10
335.9179819933436
 20
154.4308498488805
 30
0.0
  0
VERTEX
  5
AF7
  8
0
 10
335.7098879834547
 20
155.1567901443973
 30
0.0
  0
VERTEX
  5
AF8
  8
0
 10
335.5037636889662
 20
155.8990096375322
 30
0.0
  0
VERTEX
  5
AF9
  8
0
 10
335.3082990043756
 20
156.6519128891293
 30
0.0
  0
VERTEX
  5
AFA
  8
0
 10
335.1321838241803
 20
157.4099044600326
 30
0.0
  0
VERTEX
  5
AFB
  8
0
 10
334.9841080428779
 20
158.1673889110861
 30
0.0
  0
VERTEX
  5
AFC
  8
0
 10
334.8727615549657
 20
158.918770803134
 30
0.0
  0
VERTEX
  5
AFD
  8
0
 10
334.8068342549411
 20
159.6584546970201
 30
0.0
  0
VERTEX
  5
AFE
  8
0
 10
334.7950160373016
 20
160.3808451535886
 30
0.0
  0
VERTEX
  5
AFF
  8
0
 10
334.8459967965445
 20
161.0803467336834
 30
0.0
  0
VERTEX
  5
B00
  8
0
 10
334.9684664271674
 20
161.7513639981487
 30
0.0
  0
VERTEX
  5
B01
  8
0
 10
335.1711148236677
 20
162.3883015078284
 30
0.0
  0
VERTEX
  5
B02
  8
0
 10
335.4626318805427
 20
162.9855638235665
 30
0.0
  0
VERTEX
  5
B03
  8
0
 10
335.8517074922899
 20
163.5375555062071
 30
0.0
  0
VERTEX
  5
B04
  8
0
 10
336.2355477610321
 20
163.9611108193175
 30
0.0
  0
VERTEX
  5
B05
  8
0
 10
336.6485315993392
 20
164.3478352356357
 30
0.0
  0
VERTEX
  5
B06
  8
0
 10
337.0906589978664
 20
164.6977287551617
 30
0.0
  0
VERTEX
  5
B07
  8
0
 10
337.5619299472678
 20
165.0107913778955
 30
0.0
  0
VERTEX
  5
B08
  8
0
 10
338.0623444381982
 20
165.2870231038371
 30
0.0
  0
VERTEX
  5
B09
  8
0
 10
338.591902461312
 20
165.5264239329864
 30
0.0
  0
VERTEX
  5
B0A
  8
0
 10
339.1506040072639
 20
165.7289938653435
 30
0.0
  0
VERTEX
  5
B0B
  8
0
 10
339.7384490667085
 20
165.8947329009085
 30
0.0
  0
VERTEX
  5
B0C
  8
0
 10
340.3554376303003
 20
166.0236410396812
 30
0.0
  0
VERTEX
  5
B0D
  8
0
 10
341.0015696886941
 20
166.1157182816617
 30
0.0
  0
VERTEX
  5
B0E
  8
0
 10
341.6768452325441
 20
166.17096462685
 30
0.0
  0
VERTEX
  5
B0F
  8
0
 10
342.3812642525052
 20
166.1893800752461
 30
0.0
  0
VERTEX
  5
B10
  8
0
 10
343.1148267392318
 20
166.17096462685
 30
0.0
  0
VERTEX
  5
B11
  8
0
 10
343.8775326833786
 20
166.1157182816617
 30
0.0
  0
VERTEX
  5
B12
  8
0
 10
344.6693820756001
 20
166.0236410396811
 30
0.0
  0
VERTEX
  5
B13
  8
0
 10
345.490374906551
 20
165.8947329009084
 30
0.0
  0
VERTEX
  5
B14
  8
0
 10
346.3405111668857
 20
165.7289938653435
 30
0.0
  0
VERTEX
  5
B15
  8
0
 10
347.2197908472589
 20
165.5264239329863
 30
0.0
  0
VERTEX
  5
B16
  8
0
 10
348.1282139383252
 20
165.2870231038369
 30
0.0
  0
VERTEX
  5
B17
  8
0
 10
349.065780430739
 20
165.0107913778953
 30
0.0
  0
VERTEX
  5
B18
  8
0
 10
350.0324903151551
 20
164.6977287551615
 30
0.0
  0
VERTEX
  5
B19
  8
0
 10
351.028343582228
 20
164.3478352356355
 30
0.0
  0
VERTEX
  5
B1A
  8
0
 10
352.0533402226122
 20
163.9611108193173
 30
0.0
  0
VERTEX
  5
B1B
  8
0
 10
353.1074802269625
 20
163.5375555062068
 30
0.0
  0
VERTEX
  5
B1C
  8
0
 10
354.3593530165338
 20
162.6992208465767
 30
0.0
  0
VERTEX
  5
B1D
  8
0
 10
355.5279307726769
 20
161.8815481293632
 30
0.0
  0
VERTEX
  5
B1E
  8
0
 10
356.6132135140827
 20
161.0845373592389
 30
0.0
  0
VERTEX
  5
B1F
  8
0
 10
357.615201259442
 20
160.3081885408765
 30
0.0
  0
VERTEX
  5
B20
  8
0
 10
358.5338940274456
 20
159.5525016789487
 30
0.0
  0
VERTEX
  5
B21
  8
0
 10
359.3692918367843
 20
158.8174767781282
 30
0.0
  0
VERTEX
  5
B22
  8
0
 10
360.1213947061492
 20
158.1031138430878
 30
0.0
  0
VERTEX
  5
B23
  8
0
 10
360.7902026542308
 20
157.4094128785001
 30
0.0
  0
VERTEX
  5
B24
  8
0
 10
361.3757156997202
 20
156.7363738890379
 30
0.0
  0
VERTEX
  5
B25
  8
0
 10
361.877933861308
 20
156.0839968793738
 30
0.0
  0
VERTEX
  5
B26
  8
0
 10
362.2968571576852
 20
155.4522818541806
 30
0.0
  0
VERTEX
  5
B27
  8
0
 10
362.6324856075427
 20
154.841228818131
 30
0.0
  0
VERTEX
  5
B28
  8
0
 10
362.8848192295712
 20
154.2508377758977
 30
0.0
  0
VERTEX
  5
B29
  8
0
 10
363.0538580424616
 20
153.6811087321534
 30
0.0
  0
VERTEX
  5
B2A
  8
0
 10
363.1396020649048
 20
153.1320416915708
 30
0.0
  0
VERTEX
  5
B2B
  8
0
 10
363.1420513155914
 20
152.6036366588227
 30
0.0
  0
VERTEX
  5
B2C
  8
0
 10
363.0612058132126
 20
152.0958936385816
 30
0.0
  0
VERTEX
  5
B2D
  8
0
 10
362.8970655764589
 20
151.6088126355205
 30
0.0
  0
VERTEX
  5
B2E
  8
0
 10
362.6496306240213
 20
151.1423936543118
 30
0.0
  0
VERTEX
  5
B2F
  8
0
 10
362.3189009745906
 20
150.6966366996285
 30
0.0
  0
VERTEX
  5
B30
  8
0
 10
361.9048766468578
 20
150.2715417761431
 30
0.0
  0
VERTEX
  5
B31
  8
0
 10
361.4075576595135
 20
149.8671088885284
 30
0.0
  0
VERTEX
  5
B32
  8
0
 10
360.8269440312486
 20
149.4833380414571
 30
0.0
  0
VERTEX
  5
B33
  8
0
 10
360.1630357807541
 20
149.1202292396019
 30
0.0
  0
VERTEX
  5
B34
  8
0
 10
359.1236377132414
 20
148.6183832219683
 30
0.0
  0
VERTEX
  5
B35
  8
0
 10
358.1243558687123
 20
148.1670062083998
 30
0.0
  0
VERTEX
  5
B36
  8
0
 10
357.168558784975
 20
147.7598397582915
 30
0.0
  0
VERTEX
  5
B37
  8
0
 10
356.259614999837
 20
147.3906254310386
 30
0.0
  0
VERTEX
  5
B38
  8
0
 10
355.4008930511062
 20
147.0531047860364
 30
0.0
  0
VERTEX
  5
B39
  8
0
 10
354.5957614765904
 20
146.7410193826799
 30
0.0
  0
VERTEX
  5
B3A
  8
0
 10
353.8475888140974
 20
146.4481107803643
 30
0.0
  0
VERTEX
  5
B3B
  8
0
 10
353.159743601435
 20
146.1681205384849
 30
0.0
  0
VERTEX
  5
B3C
  8
0
 10
352.535594376411
 20
145.8947902164367
 30
0.0
  0
VERTEX
  5
B3D
  8
0
 10
351.9785096768332
 20
145.621861373615
 30
0.0
  0
VERTEX
  5
B3E
  8
0
 10
351.4918580405093
 20
145.343075569415
 30
0.0
  0
VERTEX
  5
B3F
  8
0
 10
351.0790080052473
 20
145.0521743632318
 30
0.0
  0
VERTEX
  5
B40
  8
0
 10
350.7433281088548
 20
144.7428993144606
 30
0.0
  0
VERTEX
  5
B41
  8
0
 10
350.4881868891398
 20
144.4089919824966
 30
0.0
  0
VERTEX
  5
B42
  8
0
 10
350.3169528839099
 20
144.0441939267349
 30
0.0
  0
VERTEX
  5
B43
  8
0
 10
350.2329946309731
 20
143.6422467065708
 30
0.0
  0
VERTEX
  5
B44
  8
0
 10
350.239680668137
 20
143.1968918813994
 30
0.0
  0
VERTEX
  5
B45
  8
0
 10
350.3403795332096
 20
142.7018710106158
 30
0.0
  0
VERTEX
  5
B46
  8
0
 10
350.5384597639985
 20
142.1509256536154
 30
0.0
  0
VERTEX
  5
B47
  8
0
 10
350.8372898983116
 20
141.5377973697932
 30
0.0
  0
VERTEX
  5
B48
  8
0
 10
351.2402384739567
 20
140.8562277185444
 30
0.0
  0
VERTEX
  5
B49
  8
0
 10
351.7506740287415
 20
140.0999582592642
 30
0.0
  0
VERTEX
  5
B4A
  8
0
 10
352.371965100474
 20
139.2627305513477
 30
0.0
  0
VERTEX
  5
B4B
  8
0
 10
353.1074802269619
 20
138.3382861541903
 30
0.0
  0
VERTEX
  5
B4C
  8
0
 10
353.6488960502401
 20
137.7050014583009
 30
0.0
  0
VERTEX
  5
B4D
  8
0
 10
354.2148101994664
 20
137.0986649947835
 30
0.0
  0
VERTEX
  5
B4E
  8
0
 10
354.8052226933316
 20
136.5192767683106
 30
0.0
  0
VERTEX
  5
B4F
  8
0
 10
355.4201335505266
 20
135.9668367835549
 30
0.0
  0
VERTEX
  5
B50
  8
0
 10
356.0595427897422
 20
135.441345045189
 30
0.0
  0
VERTEX
  5
B51
  8
0
 10
356.7234504296694
 20
134.9428015578857
 30
0.0
  0
VERTEX
  5
B52
  8
0
 10
357.4118564889989
 20
134.4712063263177
 30
0.0
  0
VERTEX
  5
B53
  8
0
 10
358.1247609864215
 20
134.0265593551578
 30
0.0
  0
VERTEX
  5
B54
  8
0
 10
358.8621639406281
 20
133.6088606490785
 30
0.0
  0
VERTEX
  5
B55
  8
0
 10
359.6240653703096
 20
133.2181102127527
 30
0.0
  0
VERTEX
  5
B56
  8
0
 10
360.4104652941567
 20
132.854308050853
 30
0.0
  0
VERTEX
  5
B57
  8
0
 10
361.2213637308604
 20
132.5174541680522
 30
0.0
  0
VERTEX
  5
B58
  8
0
 10
362.0567606991114
 20
132.2075485690229
 30
0.0
  0
VERTEX
  5
B59
  8
0
 10
362.9166562176006
 20
131.9245912584379
 30
0.0
  0
VERTEX
  5
B5A
  8
0
 10
363.8010503050188
 20
131.6685822409699
 30
0.0
  0
VERTEX
  5
B5B
  8
0
 10
364.709942980057
 20
131.4395215212916
 30
0.0
  0
VERTEX
  5
B5C
  8
0
 10
365.6433342614058
 20
131.2374091040757
 30
0.0
  0
VERTEX
  5
B5D
  8
0
 10
366.6012241677562
 20
131.0622449939948
 30
0.0
  0
VERTEX
  5
B5E
  8
0
 10
367.583612717799
 20
130.9140291957218
 30
0.0
  0
VERTEX
  5
B5F
  8
0
 10
368.5904999302249
 20
130.7927617139293
 30
0.0
  0
VERTEX
  5
B60
  8
0
 10
369.6218858237251
 20
130.6984425532901
 30
0.0
  0
VERTEX
  5
B61
  8
0
 10
370.6777704169899
 20
130.6310717184768
 30
0.0
  0
VERTEX
  5
B62
  8
0
 10
371.7581537287107
 20
130.5906492141621
 30
0.0
  0
VERTEX
  5
B63
  8
0
 10
372.8630357775789
 20
130.5771750450189
 30
0.0
  0
SEQEND
  5
B65
  8
0
  0
POLYLINE
  5
6F2
  8
0
 66
     1
 10
0.0
 20
0.0
 30
0.0
  0
VERTEX
  5
6F3
  8
0
 10
177.1935837514611
 20
120.5201447206877
 30
0.0
  0
VERTEX
  5
6F4
  8
0
 10
177.1635898888926
 20
128.5200870743735
 30
0.0
  0
VERTEX
  5
6F5
  8
0
 10
184.4135349554395
 20
132.5502243685591
 30
0.0
  0
VERTEX
  5
6F6
  8
0
 10
191.6934523527081
 20
128.5807638186074
 30
0.0
  0
VERTEX
  5
6F7
  8
0
 10
191.7234246834298
 20
120.5804661894497
 30
0.0
  0
VERTEX
  5
6F8
  8
0
 10
184.4735011487296
 20
116.5503288952641
 30
0.0
  0
VERTEX
  5
6F9
  8
0
 10
177.1935837514611
 20
120.5201447206877
 30
0.0
  0
SEQEND
  5
6FA
  8
0
  0
POLYLINE
  5
6FB
  8
0
 66
     1
 10
0.0
 20
0.0
 30
0.0
  0
VERTEX
  5
6FC
  8
0
 10
176.9579176884232
 20
148.5190601528698
 30
0.0
  0
VERTEX
  5
6FD
  8
0
 10
176.9279238258548
 20
156.5190025065556
 30
0.0
  0
VERTEX
  5
6FE
  8
0
 10
184.1778688924016
 20
160.5494843102897
 30
0.0
  0
VERTEX
  5
6FF
  8
0
 10
191.4577862896702
 20
156.5796792507896
 30
0.0
  0
VERTEX
  5
700
  8
0
 10
191.4877801522387
 20
148.5797368971038
 30
0.0
  0
VERTEX
  5
701
  8
0
 10
184.2378350856918
 20
144.5492550933696
 30
0.0
  0
VERTEX
  5
702
  8
0
 10
176.9579176884232
 20
148.5190601528698
 30
0.0
  0
SEQEND
  5
703
  8
0
  0
POLYLINE
  5
704
  8
0
 66
     1
 10
0.0
 20
0.0
 30
0.0
  0
VERTEX
  5
705
  8
0
 10
159.7635322489284
 20
148.3744199721063
 30
0.0
  0
VERTEX
  5
706
  8
0
 10
159.7335491522833
 20
156.3743623257921
 30
0.0
  0
VERTEX
  5
707
  8
0
 10
166.9834834529069
 20
160.4044996199777
 30
0.0
  0
VERTEX
  5
708
  8
0
 10
174.2634008501754
 20
156.435039070026
 30
0.0
  0
VERTEX
  5
709
  8
0
 10
174.2933947127439
 20
148.4347414408683
 30
0.0
  0
VERTEX
  5
70A
  8
0
 10
167.043449646197
 20
144.4046149126061
 30
0.0
  0
VERTEX
  5
70B
  8
0
 10
159.7635322489284
 20
148.3744199721063
 30
0.0
  0
SEQEND
  5
70C
  8
0
  0
POLYLINE
  5
70D
  8
0
 66
     1
 10
0.0
 20
0.0
 30
0.0
  0
VERTEX
  5
70E
  8
0
 10
168.7145578068578
 20
134.4643947816276
 30
0.0
  0
VERTEX
  5
70F
  8
0
 10
168.6845747102127
 20
142.4646924107853
 30
0.0
  0
VERTEX
  5
710
  8
0
 10
175.9345090108362
 20
146.4948189390475
 30
0.0
  0
VERTEX
  5
711
  8
0
 10
183.2144264081047
 20
142.5250138795474
 30
0.0
  0
VERTEX
  5
712
  8
0
 10
183.2444202706732
 20
134.5250715258616
 30
0.0
  0
VERTEX
  5
713
  8
0
 10
175.9944752041263
 20
130.494934231676
 30
0.0
  0
VERTEX
  5
714
  8
0
 10
168.7145578068578
 20
134.4643947816276
 30
0.0
  0
SEQEND
  5
715
  8
0
  0
POLYLINE
  5
716
  8
0
 66
     1
 10
0.0
 20
0.0
 30
0.0
  0
VERTEX
  5
717
  8
0
 10
151.6902093614068
 20
134.2904712892395
 30
0.0
  0
VERTEX
  5
718
  8
0
 10
151.6602262647617
 20
142.2904136429252
 30
0.0
  0
VERTEX
  5
719
  8
0
 10
158.9101605653852
 20
146.3209062125827
 30
0.0
  0
VERTEX
  5
71A
  8
0
 10
166.1900779626538
 20
142.3510903871592
 30
0.0
  0
VERTEX
  5
71B
  8
0
 10
166.2200718252223
 20
134.3511480334734
 30
0.0
  0
VERTEX
  5
71C
  8
0
 10
158.9701375245988
 20
130.3206662297393
 30
0.0
  0
VERTEX
  5
71D
  8
0
 10
151.6902093614068
 20
134.2904712892395
 30
0.0
  0
SEQEND
  5
71E
  8
0
  0
POLYLINE
  5
71F
  8
0
 66
     1
 10
0.0
 20
0.0
 30
0.0
  0
VERTEX
  5
720
  8
0
 10
134.495823921912
 20
134.1458311084759
 30
0.0
  0
VERTEX
  5
721
  8
0
 10
134.4658408252669
 20
142.1457734621617
 30
0.0
  0
VERTEX
  5
722
  8
0
 10
141.7157751258904
 20
146.1759107563473
 30
0.0
  0
VERTEX
  5
723
  8
0
 10
148.995692523159
 20
142.2064502063957
 30
0.0
  0
VERTEX
  5
724
  8
0
 10
149.0256756198041
 20
134.2061633431614
 30
0.0
  0
VERTEX
  5
725
  8
0
 10
141.7757413191806
 20
130.1760260489758
 30
0.0
  0
VERTEX
  5
726
  8
0
 10
134.495823921912
 20
134.1458311084759
 30
0.0
  0
SEQEND
  5
727
  8
0
  0
POLYLINE
  5
728
  8
0
 66
     1
 10
0.0
 20
0.0
 30
0.0
  0
VERTEX
  5
729
  8
0
 10
143.4468494798413
 20
120.2358059179973
 30
0.0
  0
VERTEX
  5
72A
  8
0
 10
143.4168663831963
 20
128.236103547155
 30
0.0
  0
VERTEX
  5
72B
  8
0
 10
150.6668006838198
 20
132.2662300754172
 30
0.0
  0
VERTEX
  5
72C
  8
0
 10
157.9467288470117
 20
128.296425015917
 30
0.0
  0
VERTEX
  5
72D
  8
0
 10
157.9767119436568
 20
120.2964826622312
 30
0.0
  0
VERTEX
  5
72E
  8
0
 10
150.7267776430333
 20
116.2663453680456
 30
0.0
  0
VERTEX
  5
72F
  8
0
 10
143.4468494798413
 20
120.2358059179973
 30
0.0
  0
SEQEND
  5
730
  8
0
  0
POLYLINE
  5
731
  8
0
 66
     1
 10
0.0
 20
0.0
 30
0.0
  0
VERTEX
  5
732
  8
0
 10
67.50332070888308
 20
136.5200294280593
 30
0.0
  0
VERTEX
  5
733
  8
0
 10
65.95568692359832
 20
144.3689797061805
 30
0.0
  0
VERTEX
  5
734
  8
0
 10
72.33320462219926
 20
149.7068644806436
 30
0.0
  0
VERTEX
  5
735
  8
0
 10
80.25800083061303
 20
147.1957882110619
 30
0.0
  0
VERTEX
  5
736
  8
0
 10
81.80563999885948
 20
139.3468379329407
 30
0.0
  0
VERTEX
  5
737
  8
0
 10
75.42847219276877
 20
134.0089531584776
 30
0.0
  0
VERTEX
  5
738
  8
0
 10
67.50332070888308
 20
136.5200294280593
 30
0.0
  0
SEQEND
  5
739
  8
0
  0
POLYLINE
  5
73A
  8
0
 66
     1
 10
0.0
 20
0.0
 30
0.0
  0
VERTEX
  5
73B
  8
0
 10
21.36633820529417
 20
132.9664995624112
 30
0.0
  0
VERTEX
  5
73C
  8
0
 10
19.81870172852857
 20
140.8154498405325
 30
0.0
  0
VERTEX
  5
73D
  8
0
 10
26.1962194271295
 20
146.1533346149955
 30
0.0
  0
VERTEX
  5
73E
  8
0
 10
34.12101832702412
 20
143.6422583454139
 30
0.0
  0
VERTEX
  5
73F
  8
0
 10
35.66865480378971
 20
135.7933080672926
 30
0.0
  0
VERTEX
  5
740
  8
0
 10
29.29113979666963
 20
130.4554232928295
 30
0.0
  0
VERTEX
  5
741
  8
0
 10
21.36633820529417
 20
132.9664995624112
 30
0.0
  0
SEQEND
  5
742
  8
0
  0
POLYLINE
  5
743
  8
0
 66
     1
 10
0.0
 20
0.0
 30
0.0
  0
VERTEX
  5
744
  8
0
 10
51.69675968785099
 20
132.8123315394462
 30
0.0
  0
VERTEX
  5
745
  8
0
 10
50.14912590256625
 20
140.6612925834909
 30
0.0
  0
VERTEX
  5
746
  8
0
 10
56.52628832569526
 20
145.9991665920306
 30
0.0
  0
VERTEX
  5
747
  8
0
 10
64.45143980958095
 20
143.4881010883723
 30
0.0
  0
VERTEX
  5
748
  8
0
 10
65.9990789778274
 20
135.6391400443276
 30
0.0
  0
VERTEX
  5
749
  8
0
 10
59.62156127922646
 20
130.301266035788
 30
0.0
  0
VERTEX
  5
74A
  8
0
 10
51.69675968785099
 20
132.8123315394462
 30
0.0
  0
SEQEND
  5
74B
  8
0
  0
POLYLINE
  5
74C
  8
0
 66
     1
 10
0.0
 20
0.0
 30
0.0
  0
VERTEX
  5
74D
  8
0
 10
46.15003753144145
 20
160.547374189305
 30
0.0
  0
VERTEX
  5
74E
  8
0
 10
44.60239836319501
 20
168.3963244674263
 30
0.0
  0
VERTEX
  5
74F
  8
0
 10
50.97991606179594
 20
173.7342092418894
 30
0.0
  0
VERTEX
  5
750
  8
0
 10
58.9047176531714
 20
171.2231329723077
 30
0.0
  0
VERTEX
  5
751
  8
0
 10
60.45235143845615
 20
163.3741826941864
 30
0.0
  0
VERTEX
  5
752
  8
0
 10
54.07483373985522
 20
158.0362979197234
 30
0.0
  0
VERTEX
  5
753
  8
0
 10
46.15003753144145
 20
160.547374189305
 30
0.0
  0
SEQEND
  5
754
  8
0
  0
POLYLINE
  5
755
  8
0
 66
     1
 10
0.0
 20
0.0
 30
0.0
  0
VERTEX
  5
756
  8
0
 10
61.9580088884378
 20
163.965436440919
 30
0.0
  0
VERTEX
  5
757
  8
0
 10
60.41036972019137
 20
171.8143867190403
 30
0.0
  0
VERTEX
  5
758
  8
0
 10
66.7878874187923
 20
177.1522714935034
 30
0.0
  0
VERTEX
  5
759
  8
0
 10
74.71303890267798
 20
174.6411952239217
 30
0.0
  0
VERTEX
  5
75A
  8
0
 10
76.26067807092443
 20
166.7922449458004
 30
0.0
  0
VERTEX
  5
75B
  8
0
 10
69.88316037232349
 20
161.4543601713374
 30
0.0
  0
VERTEX
  5
75C
  8
0
 10
61.9580088884378
 20
163.965436440919
 30
0.0
  0
SEQEND
  5
75D
  8
0
  0
POLYLINE
  5
75E
  8
0
 66
     1
 10
0.0
 20
0.0
 30
0.0
  0
VERTEX
  5
75F
  8
0
 10
56.50441735232562
 20
148.5963164191265
 30
0.0
  0
VERTEX
  5
760
  8
0
 10
54.95677818407918
 20
156.4452666972478
 30
0.0
  0
VERTEX
  5
761
  8
0
 10
61.33429588268011
 20
161.7831514717109
 30
0.0
  0
VERTEX
  5
762
  8
0
 10
69.25909747405557
 20
159.2720752021293
 30
0.0
  0
VERTEX
  5
763
  8
0
 10
70.80673125934032
 20
151.4231249240079
 30
0.0
  0
VERTEX
  5
764
  8
0
 10
64.42921894370109
 20
146.0852509154683
 30
0.0
  0
VERTEX
  5
765
  8
0
 10
56.50441735232562
 20
148.5963164191265
 30
0.0
  0
SEQEND
  5
766
  8
0
  0
POLYLINE
  5
767
  8
0
 66
     1
 10
0.0
 20
0.0
 30
0.0
  0
VERTEX
  5
768
  8
0
 10
10.54029386044954
 20
145.0463177763508
 30
0.0
  0
VERTEX
  5
769
  8
0
 10
8.99265738368394
 20
152.8952680544722
 30
0.0
  0
VERTEX
  5
76A
  8
0
 10
15.37017508228488
 20
158.2331528289352
 30
0.0
  0
VERTEX
  5
76B
  8
0
 10
23.29497532791992
 20
155.7220765593536
 30
0.0
  0
VERTEX
  5
76C
  8
0
 10
24.84261180468551
 20
147.8731262812322
 30
0.0
  0
VERTEX
  5
76D
  8
0
 10
18.46544669007565
 20
142.5352415067692
 30
0.0
  0
VERTEX
  5
76E
  8
0
 10
10.54029386044954
 20
145.0463177763508
 30
0.0
  0
SEQEND
  5
76F
  8
0
  0
POLYLINE
  5
770
  8
0
 66
     1
 10
0.0
 20
0.0
 30
0.0
  0
VERTEX
  5
771
  8
0
 10
5.086349740346289
 20
129.6771977545584
 30
0.0
  0
VERTEX
  5
772
  8
0
 10
3.538713263580689
 20
137.5261480326797
 30
0.0
  0
VERTEX
  5
773
  8
0
 10
9.9162296164412
 20
142.8640328071427
 30
0.0
  0
VERTEX
  5
774
  8
0
 10
17.84138379180773
 20
140.3529565375611
 30
0.0
  0
VERTEX
  5
775
  8
0
 10
19.38902026857333
 20
132.5040062594398
 30
0.0
  0
VERTEX
  5
776
  8
0
 10
13.01150256997239
 20
127.1661322509001
 30
0.0
  0
VERTEX
  5
777
  8
0
 10
5.086349740346289
 20
129.6771977545584
 30
0.0
  0
SEQEND
  5
778
  8
0
  0
POLYLINE
  5
779
  8
0
 66
     1
 10
0.0
 20
0.0
 30
0.0
  0
VERTEX
  5
77A
  8
0
 10
47.23376767779052
 20
224.0710053752741
 30
0.0
  0
VERTEX
  5
77B
  8
0
 10
45.68718895299813
 20
231.9199610363571
 30
0.0
  0
VERTEX
  5
77C
  8
0
 10
52.25238361111975
 20
237.2959410307407
 30
0.0
  0
VERTEX
  5
77D
  8
0
 10
60.36451226950567
 20
234.822615471531
 30
0.0
  0
VERTEX
  5
77E
  8
0
 10
61.91109099429806
 20
226.9733099179378
 30
0.0
  0
VERTEX
  5
77F
  8
0
 10
55.34589633617645
 20
221.5976798160644
 30
0.0
  0
VERTEX
  5
780
  8
0
 10
47.23376767779052
 20
224.0710053752741
 30
0.0
  0
SEQEND
  5
781
  8
0
  0
POLYLINE
  5
782
  8
0
 66
     1
 10
0.0
 20
0.0
 30
0.0
  0
VERTEX
  5
783
  8
0
 10
29.87851242801964
 20
220.5643987867275
 30
0.0
  0
VERTEX
  5
784
  8
0
 10
28.33193639470809
 20
228.4137043403208
 30
0.0
  0
VERTEX
  5
785
  8
0
 10
34.89748363682078
 20
233.7893290592324
 30
0.0
  0
VERTEX
  5
786
  8
0
 10
43.00960691224501
 20
231.3160035000227
 30
0.0
  0
VERTEX
  5
787
  8
0
 10
44.55618563703739
 20
223.4670532219014
 30
0.0
  0
VERTEX
  5
788
  8
0
 10
37.99063839492472
 20
218.0910732275178
 30
0.0
  0
VERTEX
  5
789
  8
0
 10
29.87851242801964
 20
220.5643987867275
 30
0.0
  0
SEQEND
  5
78A
  8
0
  0
POLYLINE
  5
78B
  8
0
 66
     1
 10
0.0
 20
0.0
 30
0.0
  0
VERTEX
  5
78C
  8
0
 10
41.56427631398709
 20
208.6581434067424
 30
0.0
  0
VERTEX
  5
78D
  8
0
 10
40.0176975891947
 20
216.5074543432973
 30
0.0
  0
VERTEX
  5
78E
  8
0
 10
46.58289224731631
 20
221.8834343376809
 30
0.0
  0
VERTEX
  5
78F
  8
0
 10
54.69502090570223
 20
219.4101087784712
 30
0.0
  0
VERTEX
  5
790
  8
0
 10
56.24159424753293
 20
211.5608032248779
 30
0.0
  0
VERTEX
  5
791
  8
0
 10
49.67640497237301
 20
206.1848232304944
 30
0.0
  0
VERTEX
  5
792
  8
0
 10
41.56427631398709
 20
208.6581434067424
 30
0.0
  0
SEQEND
  5
793
  8
0
  0
POLYLINE
  5
794
  8
0
 66
     1
 10
0.0
 20
0.0
 30
0.0
  0
VERTEX
  5
795
  8
0
 10
41.68845585734525
 20
251.516412388134
 30
0.0
  0
VERTEX
  5
796
  8
0
 10
40.14187713255286
 20
259.365365357736
 30
0.0
  0
VERTEX
  5
797
  8
0
 10
46.70742706614639
 20
264.7413453521195
 30
0.0
  0
VERTEX
  5
798
  8
0
 10
54.81919506609871
 20
262.2680224843908
 30
0.0
  0
VERTEX
  5
799
  8
0
 10
56.36612906636302
 20
254.4187169307976
 30
0.0
  0
VERTEX
  5
79A
  8
0
 10
49.80057913276949
 20
249.0430868289243
 30
0.0
  0
VERTEX
  5
79B
  8
0
 10
41.68845585734525
 20
251.516412388134
 30
0.0
  0
SEQEND
  5
79C
  8
0
  0
POLYLINE
  5
79D
  8
0
 66
     1
 10
0.0
 20
0.0
 30
0.0
  0
VERTEX
  5
79E
  8
0
 10
36.01896449354182
 20
236.1035504196022
 30
0.0
  0
VERTEX
  5
79F
  8
0
 10
34.47238576874943
 20
243.9528559731954
 30
0.0
  0
VERTEX
  5
7A0
  8
0
 10
41.03793031938126
 20
249.328835967579
 30
0.0
  0
VERTEX
  5
7A1
  8
0
 10
49.14970370229526
 20
246.8555104083692
 30
0.0
  0
VERTEX
  5
7A2
  8
0
 10
50.69628242708766
 20
239.006204854776
 30
0.0
  0
VERTEX
  5
7A3
  8
0
 10
44.13108776896605
 20
233.6302248603925
 30
0.0
  0
VERTEX
  5
7A4
  8
0
 10
36.01896449354182
 20
236.1035504196022
 30
0.0
  0
SEQEND
  5
7A5
  8
0
  0
POLYLINE
  5
7A6
  8
0
 66
     1
 10
0.0
 20
0.0
 30
0.0
  0
VERTEX
  5
7A7
  8
0
 10
18.84115588458893
 20
232.6015247314586
 30
0.0
  0
VERTEX
  5
7A8
  8
0
 10
17.29457715979654
 20
240.4508302850518
 30
0.0
  0
VERTEX
  5
7A9
  8
0
 10
23.86012440190922
 20
245.8264603869251
 30
0.0
  0
VERTEX
  5
7AA
  8
0
 10
31.97225036881429
 20
243.3531348277154
 30
0.0
  0
VERTEX
  5
7AB
  8
0
 10
33.51882640212584
 20
235.5041845495941
 30
0.0
  0
VERTEX
  5
7AC
  8
0
 10
26.95327916001315
 20
230.1282045552106
 30
0.0
  0
VERTEX
  5
7AD
  8
0
 10
18.84115588458893
 20
232.6015247314586
 30
0.0
  0
SEQEND
  5
7AE
  8
0
  0
POLYLINE
  5
7AF
  8
0
 66
     1
 10
0.0
 20
0.0
 30
0.0
  0
VERTEX
  5
7B0
  8
0
 10
13.17166317504507
 20
217.1890180383987
 30
0.0
  0
VERTEX
  5
7B1
  8
0
 10
11.6250857959931
 20
225.0379736994817
 30
0.0
  0
VERTEX
  5
7B2
  8
0
 10
18.19063303810578
 20
230.4139536938653
 30
0.0
  0
VERTEX
  5
7B3
  8
0
 10
26.30240642101978
 20
227.9406281346556
 30
0.0
  0
VERTEX
  5
7B4
  8
0
 10
27.84933503832239
 20
220.0913225810624
 30
0.0
  0
VERTEX
  5
7B5
  8
0
 10
21.28378779620972
 20
214.7156924791891
 30
0.0
  0
VERTEX
  5
7B6
  8
0
 10
13.17166317504507
 20
217.1890180383987
 30
0.0
  0
SEQEND
  5
7B7
  8
0
  0
POLYLINE
  5
7B8
  8
0
 66
     1
 10
0.0
 20
0.0
 30
0.0
  0
VERTEX
  5
7B9
  8
0
 10
133.4978120576053
 20
242.4895355169504
 30
0.0
  0
VERTEX
  5
7BA
  8
0
 10
125.4978697039195
 20
242.5265756763786
 30
0.0
  0
VERTEX
  5
7BB
  8
0
 10
121.5287644294398
 20
249.745466436903
 30
0.0
  0
VERTEX
  5
7BC
  8
0
 10
125.5596122745692
 20
256.9273197294801
 30
0.0
  0
VERTEX
  5
7BD
  8
0
 10
133.559554628255
 20
256.8902768785711
 30
0.0
  0
VERTEX
  5
7BE
  8
0
 10
137.5286491368113
 20
249.6713861180467
 30
0.0
  0
VERTEX
  5
7BF
  8
0
 10
133.4978120576053
 20
242.4895355169504
 30
0.0
  0
SEQEND
  5
7C0
  8
0
  0
POLYLINE
  5
7C1
  8
0
 66
     1
 10
0.0
 20
0.0
 30
0.0
  0
VERTEX
  5
7C2
  8
0
 10
133.4978120576053
 20
225.4475471060227
 30
0.0
  0
VERTEX
  5
7C3
  8
0
 10
125.4978697039195
 20
225.4845872654508
 30
0.0
  0
VERTEX
  5
7C4
  8
0
 10
121.5287644294398
 20
232.703128133465
 30
0.0
  0
VERTEX
  5
7C5
  8
0
 10
125.5596122745692
 20
239.8849787345612
 30
0.0
  0
VERTEX
  5
7C6
  8
0
 10
133.559554628255
 20
239.8482884676433
 30
0.0
  0
VERTEX
  5
7C7
  8
0
 10
137.5286491368113
 20
232.6293977071189
 30
0.0
  0
VERTEX
  5
7C8
  8
0
 10
133.4978120576053
 20
225.4475471060227
 30
0.0
  0
SEQEND
  5
7C9
  8
0
  0
POLYLINE
  5
7CA
  8
0
 66
     1
 10
0.0
 20
0.0
 30
0.0
  0
VERTEX
  5
7CB
  8
0
 10
147.4822728424121
 20
234.2024336886457
 30
0.0
  0
VERTEX
  5
7CC
  8
0
 10
139.4823304887263
 20
234.2394738480738
 30
0.0
  0
VERTEX
  5
7CD
  8
0
 10
135.51323598017
 20
241.4583646085982
 30
0.0
  0
VERTEX
  5
7CE
  8
0
 10
139.5440730593761
 20
248.6402152096945
 30
0.0
  0
VERTEX
  5
7CF
  8
0
 10
147.5440154130619
 20
248.6031750502663
 30
0.0
  0
VERTEX
  5
7D0
  8
0
 10
151.5134651970901
 20
241.3846341822522
 30
0.0
  0
VERTEX
  5
7D1
  8
0
 10
147.4822728424121
 20
234.2024336886457
 30
0.0
  0
SEQEND
  5
7D2
  8
0
  0
POLYLINE
  5
7D3
  8
0
 66
     1
 10
0.0
 20
0.0
 30
0.0
  0
VERTEX
  5
7D4
  8
0
 10
105.4978415649308
 20
242.4895355169504
 30
0.0
  0
VERTEX
  5
7D5
  8
0
 10
97.49789921124497
 20
242.5265756763786
 30
0.0
  0
VERTEX
  5
7D6
  8
0
 10
93.52879393676527
 20
249.745466436903
 30
0.0
  0
VERTEX
  5
7D7
  8
0
 10
97.55963101597138
 20
256.9273197294801
 30
0.0
  0
VERTEX
  5
7D8
  8
0
 10
105.5595733696571
 20
256.8902768785711
 30
0.0
  0
VERTEX
  5
7D9
  8
0
 10
109.5286786441369
 20
249.6713861180467
 30
0.0
  0
VERTEX
  5
7DA
  8
0
 10
105.4978415649308
 20
242.4895355169504
 30
0.0
  0
SEQEND
  5
7DB
  8
0
  0
POLYLINE
  5
7DC
  8
0
 66
     1
 10
0.0
 20
0.0
 30
0.0
  0
VERTEX
  5
7DD
  8
0
 10
105.4978415649308
 20
225.4475471060227
 30
0.0
  0
VERTEX
  5
7DE
  8
0
 10
97.49789921124497
 20
225.4845872654508
 30
0.0
  0
VERTEX
  5
7DF
  8
0
 10
93.52879393676527
 20
232.703128133465
 30
0.0
  0
VERTEX
  5
7E0
  8
0
 10
97.55963101597138
 20
239.8849787345612
 30
0.0
  0
VERTEX
  5
7E1
  8
0
 10
105.5595733696571
 20
239.8482884676433
 30
0.0
  0
VERTEX
  5
7E2
  8
0
 10
109.5286786441369
 20
232.6293977071189
 30
0.0
  0
VERTEX
  5
7E3
  8
0
 10
105.4978415649308
 20
225.4475471060227
 30
0.0
  0
SEQEND
  5
7E4
  8
0
  0
POLYLINE
  5
7E5
  8
0
 66
     1
 10
0.0
 20
0.0
 30
0.0
  0
VERTEX
  5
7E6
  8
0
 10
119.4823023497377
 20
234.2024336886457
 30
0.0
  0
VERTEX
  5
7E7
  8
0
 10
111.4823599960519
 20
234.2394738480738
 30
0.0
  0
VERTEX
  5
7E8
  8
0
 10
107.5132654874955
 20
241.4583646085982
 30
0.0
  0
VERTEX
  5
7E9
  8
0
 10
111.5441025667016
 20
248.6402152096945
 30
0.0
  0
VERTEX
  5
7EA
  8
0
 10
119.5440449203874
 20
248.6031750502663
 30
0.0
  0
VERTEX
  5
7EB
  8
0
 10
123.5131394289437
 20
241.3846341822522
 30
0.0
  0
VERTEX
  5
7EC
  8
0
 10
119.4823023497377
 20
234.2024336886457
 30
0.0
  0
SEQEND
  5
7ED
  8
0
  0
POLYLINE
  5
7EE
  8
0
 66
     1
 10
0.0
 20
0.0
 30
0.0
  0
VERTEX
  5
7EF
  8
0
 10
119.5133512727985
 20
217.3287166603256
 30
0.0
  0
VERTEX
  5
7F0
  8
0
 10
111.5134089191127
 20
217.3657622027154
 30
0.0
  0
VERTEX
  5
7F1
  8
0
 10
107.5443036446329
 20
224.5846529632398
 30
0.0
  0
VERTEX
  5
7F2
  8
0
 10
111.575140723839
 20
231.7665035643361
 30
0.0
  0
VERTEX
  5
7F3
  8
0
 10
119.5750830775248
 20
231.7294580219462
 30
0.0
  0
VERTEX
  5
7F4
  8
0
 10
123.5441883520045
 20
224.5105672614218
 30
0.0
  0
VERTEX
  5
7F5
  8
0
 10
119.5133512727985
 20
217.3287166603256
 30
0.0
  0
SEQEND
  5
7F6
  8
0
  0
POLYLINE
  5
7F7
  8
0
 66
     1
 10
0.0
 20
0.0
 30
0.0
  0
VERTEX
  5
7F8
  8
0
 10
119.5133512727985
 20
200.2867336323595
 30
0.0
  0
VERTEX
  5
7F9
  8
0
 10
111.5134089191127
 20
200.323768408826
 30
0.0
  0
VERTEX
  5
7FA
  8
0
 10
107.5443036446329
 20
207.5423092768401
 30
0.0
  0
VERTEX
  5
7FB
  8
0
 10
111.575140723839
 20
214.7241598779364
 30
0.0
  0
VERTEX
  5
7FC
  8
0
 10
119.5750830775248
 20
214.6874696110185
 30
0.0
  0
VERTEX
  5
7FD
  8
0
 10
123.5441883520045
 20
207.4685842334558
 30
0.0
  0
VERTEX
  5
7FE
  8
0
 10
119.5133512727985
 20
200.2867336323595
 30
0.0
  0
SEQEND
  5
7FF
  8
0
  0
POLYLINE
  5
800
  8
0
 66
     1
 10
0.0
 20
0.0
 30
0.0
  0
VERTEX
  5
801
  8
0
 10
133.4978120576053
 20
209.0416148320209
 30
0.0
  0
VERTEX
  5
802
  8
0
 10
125.4978697039195
 20
209.0786603744107
 30
0.0
  0
VERTEX
  5
803
  8
0
 10
121.5287644294398
 20
216.2975511349351
 30
0.0
  0
VERTEX
  5
804
  8
0
 10
125.5596122745692
 20
223.4794017360313
 30
0.0
  0
VERTEX
  5
805
  8
0
 10
133.559554628255
 20
223.4423561936415
 30
0.0
  0
VERTEX
  5
806
  8
0
 10
137.5286491368113
 20
216.223820708589
 30
0.0
  0
VERTEX
  5
807
  8
0
 10
133.4978120576053
 20
209.0416148320209
 30
0.0
  0
SEQEND
  5
808
  8
0
  0
POLYLINE
  5
809
  8
0
 66
     1
 10
0.0
 20
0.0
 30
0.0
  0
VERTEX
  5
80A
  8
0
 10
105.0920156972627
 20
78.31157355944822
 30
0.0
  0
VERTEX
  5
80B
  8
0
 10
105.0719049523675
 20
83.0931292426604
 30
0.0
  0
VERTEX
  5
80C
  8
0
 10
109.187416019047
 20
85.49871022892965
 30
0.0
  0
VERTEX
  5
80D
  8
0
 10
113.3230270646983
 20
83.12346761477737
 30
0.0
  0
VERTEX
  5
80E
  8
0
 10
113.3431378095934
 20
78.34225644111373
 30
0.0
  0
VERTEX
  5
80F
  8
0
 10
109.2276267429139
 20
75.93633094529595
 30
0.0
  0
VERTEX
  5
810
  8
0
 10
105.0920156972627
 20
78.31157355944822
 30
0.0
  0
SEQEND
  5
811
  8
0
  0
POLYLINE
  5
812
  8
0
 66
     1
 10
0.0
 20
0.0
 30
0.0
  0
VERTEX
  5
813
  8
0
 10
90.35190551553647
 20
86.97790503921524
 30
0.0
  0
VERTEX
  5
814
  8
0
 10
90.33179477064132
 20
91.75911621287888
 30
0.0
  0
VERTEX
  5
815
  8
0
 10
94.44729507139739
 20
94.16506324054345
 30
0.0
  0
VERTEX
  5
816
  8
0
 10
98.58326139252055
 20
91.78979909454438
 30
0.0
  0
VERTEX
  5
817
  8
0
 10
98.60337213741565
 20
87.00860945272753
 30
0.0
  0
VERTEX
  5
818
  8
0
 10
94.48787183665961
 20
84.60266242506296
 30
0.0
  0
VERTEX
  5
819
  8
0
 10
90.35190551553647
 20
86.97790503921524
 30
0.0
  0
SEQEND
  5
81A
  8
0
  0
POLYLINE
  5
81B
  8
0
 66
     1
 10
0.0
 20
0.0
 30
0.0
  0
VERTEX
  5
81C
  8
0
 10
85.92453794597817
 20
78.31157355944822
 30
0.0
  0
VERTEX
  5
81D
  8
0
 10
85.90443796700642
 20
83.0931292426604
 30
0.0
  0
VERTEX
  5
81E
  8
0
 10
90.01993826776248
 20
85.49871022892965
 30
0.0
  0
VERTEX
  5
81F
  8
0
 10
94.15554931341369
 20
83.12346761477737
 30
0.0
  0
VERTEX
  5
820
  8
0
 10
94.17566005830884
 20
78.34225644111373
 30
0.0
  0
VERTEX
  5
821
  8
0
 10
90.06015975755277
 20
75.93633094529595
 30
0.0
  0
VERTEX
  5
822
  8
0
 10
85.92453794597817
 20
78.31157355944822
 30
0.0
  0
SEQEND
  5
823
  8
0
  0
POLYLINE
  5
824
  8
0
 66
     1
 10
0.0
 20
0.0
 30
0.0
  0
VERTEX
  5
825
  8
0
 10
95.50810456684616
 20
78.31157355944822
 30
0.0
  0
VERTEX
  5
826
  8
0
 10
95.48799382195105
 20
83.0931292426604
 30
0.0
  0
VERTEX
  5
827
  8
0
 10
99.60349412270705
 20
85.49871022892965
 30
0.0
  0
VERTEX
  5
828
  8
0
 10
103.7394712097536
 20
83.12346761477737
 30
0.0
  0
VERTEX
  5
829
  8
0
 10
103.7595711887253
 20
78.34225644111373
 30
0.0
  0
VERTEX
  5
82A
  8
0
 10
99.64407088796925
 20
75.93633094529595
 30
0.0
  0
VERTEX
  5
82B
  8
0
 10
95.50810456684616
 20
78.31157355944822
 30
0.0
  0
SEQEND
  5
82C
  8
0
  0
POLYLINE
  5
82D
  8
0
 66
     1
 10
0.0
 20
0.0
 30
0.0
  0
VERTEX
  5
82E
  8
0
 10
99.64407088796925
 20
86.97790503921524
 30
0.0
  0
VERTEX
  5
82F
  8
0
 10
99.62360486760225
 20
91.75911621287888
 30
0.0
  0
VERTEX
  5
830
  8
0
 10
103.7394712097536
 20
94.16506324054345
 30
0.0
  0
VERTEX
  5
831
  8
0
 10
107.8750822554048
 20
91.78979909454438
 30
0.0
  0
VERTEX
  5
832
  8
0
 10
107.8951930003
 20
87.00860945272753
 30
0.0
  0
VERTEX
  5
833
  8
0
 10
103.7796819336206
 20
84.60266242506296
 30
0.0
  0
VERTEX
  5
834
  8
0
 10
99.64407088796925
 20
86.97790503921524
 30
0.0
  0
SEQEND
  5
835
  8
0
  0
POLYLINE
  5
836
  8
0
 66
     1
 10
0.0
 20
0.0
 30
0.0
  0
VERTEX
  5
837
  8
0
 10
102.7404042849546
 20
45.72902317968154
 30
0.0
  0
VERTEX
  5
838
  8
0
 10
98.87818309790465
 20
42.91033218103725
 30
0.0
  0
VERTEX
  5
839
  8
0
 10
94.51679987281231
 20
44.83471945540425
 30
0.0
  0
VERTEX
  5
83A
  8
0
 10
94.01726102745108
 20
49.57781926026231
 30
0.0
  0
VERTEX
  5
83B
  8
0
 10
97.87947144857755
 20
52.39651025890659
 30
0.0
  0
VERTEX
  5
83C
  8
0
 10
102.2408654395933
 20
50.4721229845396
 30
0.0
  0
VERTEX
  5
83D
  8
0
 10
102.7404042849546
 20
45.72902317968154
 30
0.0
  0
SEQEND
  5
83E
  8
0
  0
POLYLINE
  5
83F
  8
0
 66
     1
 10
0.0
 20
0.0
 30
0.0
  0
VERTEX
  5
840
  8
0
 10
99.15723583220995
 20
36.4192124588102
 30
0.0
  0
VERTEX
  5
841
  8
0
 10
95.29538068655535
 20
33.60052146016592
 30
0.0
  0
VERTEX
  5
842
  8
0
 10
90.9336314200677
 20
35.52493026637969
 30
0.0
  0
VERTEX
  5
843
  8
0
 10
90.43444785017839
 20
40.26800853939098
 30
0.0
  0
VERTEX
  5
844
  8
0
 10
94.29631376175632
 20
43.08672106988204
 30
0.0
  0
VERTEX
  5
845
  8
0
 10
98.65805226232065
 20
41.16231226366826
 30
0.0
  0
VERTEX
  5
846
  8
0
 10
99.15723583220995
 20
36.4192124588102
 30
0.0
  0
SEQEND
  5
847
  8
0
  0
POLYLINE
  5
848
  8
0
 66
     1
 10
0.0
 20
0.0
 30
0.0
  0
VERTEX
  5
849
  8
0
 10
9.318847019610251
 20
84.00435699850897
 30
0.0
  0
VERTEX
  5
84A
  8
0
 10
9.298738966195952
 20
88.78554664032583
 30
0.0
  0
VERTEX
  5
84B
  8
0
 10
13.41424330417329
 20
91.1914936679904
 30
0.0
  0
VERTEX
  5
84C
  8
0
 10
17.54985704130534
 20
88.81622952199133
 30
0.0
  0
VERTEX
  5
84D
  8
0
 10
17.57031767871071
 20
84.03503988017448
 30
0.0
  0
VERTEX
  5
84E
  8
0
 10
13.45481334073337
 20
81.6290928525099
 30
0.0
  0
VERTEX
  5
84F
  8
0
 10
9.318847019610251
 20
84.00435699850897
 30
0.0
  0
SEQEND
  5
850
  8
0
  0
POLYLINE
  5
851
  8
0
 66
     1
 10
0.0
 20
0.0
 30
0.0
  0
VERTEX
  5
852
  8
0
 10
4.891485505883852
 20
75.33800398689517
 30
0.0
  0
VERTEX
  5
853
  8
0
 10
4.871024195608271
 20
80.11921516055881
 30
0.0
  0
VERTEX
  5
854
  8
0
 10
8.986529879326032
 20
82.52516218822339
 30
0.0
  0
VERTEX
  5
855
  8
0
 10
13.12249620044915
 20
80.14989804222432
 30
0.0
  0
VERTEX
  5
856
  8
0
 10
13.14260559960388
 20
75.36870840040747
 30
0.0
  0
VERTEX
  5
857
  8
0
 10
9.027099915886122
 20
72.96276137274289
 30
0.0
  0
VERTEX
  5
858
  8
0
 10
4.891485505883852
 20
75.33800398689517
 30
0.0
  0
SEQEND
  5
859
  8
0
  0
POLYLINE
  5
85A
  8
0
 66
     1
 10
0.0
 20
0.0
 30
0.0
  0
VERTEX
  5
85B
  8
0
 10
14.47504607091994
 20
75.33800398689517
 30
0.0
  0
VERTEX
  5
85C
  8
0
 10
14.45493801750564
 20
80.11921516055881
 30
0.0
  0
VERTEX
  5
85D
  8
0
 10
18.57044504696382
 20
82.52516218822339
 30
0.0
  0
VERTEX
  5
85E
  8
0
 10
22.70605878409588
 20
80.14989804222432
 30
0.0
  0
VERTEX
  5
85F
  8
0
 10
22.72651942150125
 20
75.36870840040747
 30
0.0
  0
VERTEX
  5
860
  8
0
 10
18.61101373778349
 20
72.96276137274289
 30
0.0
  0
VERTEX
  5
861
  8
0
 10
14.47504607091994
 20
75.33800398689517
 30
0.0
  0
SEQEND
  5
862
  8
0
  0
POLYLINE
  5
863
  8
0
 66
     1
 10
0.0
 20
0.0
 30
0.0
  0
VERTEX
  5
864
  8
0
 10
7.943718316306841
 20
45.84579038478472
 30
0.0
  0
VERTEX
  5
865
  8
0
 10
7.923257678901471
 20
50.62698002660158
 30
0.0
  0
VERTEX
  5
866
  8
0
 10
12.0391159466103
 20
53.03292705426616
 30
0.0
  0
VERTEX
  5
867
  8
0
 10
16.17472968374236
 20
50.65768444011387
 30
0.0
  0
VERTEX
  5
868
  8
0
 10
16.19483773715666
 20
45.87647326645023
 30
0.0
  0
VERTEX
  5
869
  8
0
 10
12.07933339917932
 20
43.47052623878566
 30
0.0
  0
VERTEX
  5
86A
  8
0
 10
7.943718316306841
 20
45.84579038478472
 30
0.0
  0
SEQEND
  5
86B
  8
0
  0
POLYLINE
  5
86C
  8
0
 66
     1
 10
0.0
 20
0.0
 30
0.0
  0
VERTEX
  5
86D
  8
0
 10
3.516004891459584
 20
37.17945890501771
 30
0.0
  0
VERTEX
  5
86E
  8
0
 10
3.495896838045287
 20
41.96099305638309
 30
0.0
  0
VERTEX
  5
86F
  8
0
 10
7.611402521763052
 20
44.36694008404766
 30
0.0
  0
VERTEX
  5
870
  8
0
 10
11.7470162588951
 20
41.99133142850008
 30
0.0
  0
VERTEX
  5
871
  8
0
 10
11.76747689630047
 20
37.21014178668322
 30
0.0
  0
VERTEX
  5
872
  8
0
 10
7.651971212582712
 20
34.80419475901864
 30
0.0
  0
VERTEX
  5
873
  8
0
 10
3.516004891459584
 20
37.17945890501771
 30
0.0
  0
SEQEND
  5
874
  8
0
  0
POLYLINE
  5
875
  8
0
 66
     1
 10
0.0
 20
0.0
 30
0.0
  0
VERTEX
  5
876
  8
0
 10
13.09991871335695
 20
37.17945890501771
 30
0.0
  0
VERTEX
  5
877
  8
0
 10
13.07945807595159
 20
41.96099305638309
 30
0.0
  0
VERTEX
  5
878
  8
0
 10
17.19496375966935
 20
44.36694008404766
 30
0.0
  0
VERTEX
  5
879
  8
0
 10
21.33093008079248
 20
41.99133142850008
 30
0.0
  0
VERTEX
  5
87A
  8
0
 10
21.35103813420677
 20
37.21014178668322
 30
0.0
  0
VERTEX
  5
87B
  8
0
 10
17.23553245048901
 20
34.80419475901864
 30
0.0
  0
VERTEX
  5
87C
  8
0
 10
13.09991871335695
 20
37.17945890501771
 30
0.0
  0
SEQEND
  5
87D
  8
0
  0
POLYLINE
  5
87E
  8
0
 66
     1
 10
0.0
 20
0.0
 30
0.0
  0
VERTEX
  5
87F
  8
0
 10
17.23553245048901
 20
45.84579038478472
 30
0.0
  0
VERTEX
  5
880
  8
0
 10
17.21542439707472
 20
50.62698002660158
 30
0.0
  0
VERTEX
  5
881
  8
0
 10
21.33093008079248
 20
53.03292705426616
 30
0.0
  0
VERTEX
  5
882
  8
0
 10
25.46654381792453
 20
50.65768444011387
 30
0.0
  0
VERTEX
  5
883
  8
0
 10
25.48665187133883
 20
45.87647326645023
 30
0.0
  0
VERTEX
  5
884
  8
0
 10
21.37114618762107
 20
43.47052623878566
 30
0.0
  0
VERTEX
  5
885
  8
0
 10
17.23553245048901
 20
45.84579038478472
 30
0.0
  0
SEQEND
  5
886
  8
0
  0
POLYLINE
  5
887
  8
0
 66
     1
 10
0.0
 20
0.0
 30
0.0
  0
VERTEX
  5
888
  8
0
 10
8.416088008249432
 20
28.55967927799514
 30
0.0
  0
VERTEX
  5
889
  8
0
 10
8.39597995483513
 20
33.340868919812
 30
0.0
  0
VERTEX
  5
88A
  8
0
 10
12.51148563855289
 20
35.74681594747657
 30
0.0
  0
VERTEX
  5
88B
  8
0
 10
16.64709937568495
 20
33.37157333332428
 30
0.0
  0
VERTEX
  5
88C
  8
0
 10
16.66720742909924
 20
28.59036215966065
 30
0.0
  0
VERTEX
  5
88D
  8
0
 10
12.55170174538149
 20
26.18441513199607
 30
0.0
  0
VERTEX
  5
88E
  8
0
 10
8.416088008249432
 20
28.55967927799514
 30
0.0
  0
SEQEND
  5
88F
  8
0
  0
POLYLINE
  5
890
  8
0
 66
     1
 10
0.0
 20
0.0
 30
0.0
  0
VERTEX
  5
891
  8
0
 10
149.6831246440414
 20
37.48637384905991
 30
0.0
  0
VERTEX
  5
892
  8
0
 10
149.6626693895977
 20
42.26756349087676
 30
0.0
  0
VERTEX
  5
893
  8
0
 10
153.7785249658257
 20
44.67351051854133
 30
0.0
  0
VERTEX
  5
894
  8
0
 10
157.9141360114768
 20
42.29824637254227
 30
0.0
  0
VERTEX
  5
895
  8
0
 10
157.9342467563721
 20
37.51671222117689
 30
0.0
  0
VERTEX
  5
896
  8
0
 10
153.818746455616
 20
35.11110970306084
 30
0.0
  0
VERTEX
  5
897
  8
0
 10
149.6831246440414
 20
37.48637384905991
 30
0.0
  0
SEQEND
  5
898
  8
0
  0
POLYLINE
  5
899
  8
0
 66
     1
 10
0.0
 20
0.0
 30
0.0
  0
VERTEX
  5
89A
  8
0
 10
144.2401213935846
 20
45.84579038478472
 30
0.0
  0
VERTEX
  5
89B
  8
0
 10
144.2196553732176
 20
50.62698002660158
 30
0.0
  0
VERTEX
  5
89C
  8
0
 10
148.3351664398969
 20
53.03292705426616
 30
0.0
  0
VERTEX
  5
89D
  8
0
 10
152.4711327610202
 20
50.65768444011387
 30
0.0
  0
VERTEX
  5
89E
  8
0
 10
152.4912435059153
 20
45.87647326645023
 30
0.0
  0
VERTEX
  5
89F
  8
0
 10
148.3757324392359
 20
43.47052623878566
 30
0.0
  0
VERTEX
  5
8A0
  8
0
 10
144.2401213935846
 20
45.84579038478472
 30
0.0
  0
SEQEND
  5
8A1
  8
0
  0
POLYLINE
  5
8A2
  8
0
 66
     1
 10
0.0
 20
0.0
 30
0.0
  0
VERTEX
  5
8A3
  8
0
 10
139.8833136859336
 20
37.3787792106862
 30
0.0
  0
VERTEX
  5
8A4
  8
0
 10
139.8632029410385
 20
42.16031336205157
 30
0.0
  0
VERTEX
  5
8A5
  8
0
 10
143.9787140077179
 20
44.56591588016762
 30
0.0
  0
VERTEX
  5
8A6
  8
0
 10
148.114680328841
 20
42.19065173416855
 30
0.0
  0
VERTEX
  5
8A7
  8
0
 10
148.1347803078127
 20
37.4094620923517
 30
0.0
  0
VERTEX
  5
8A8
  8
0
 10
144.0192800070567
 20
35.00351506468713
 30
0.0
  0
VERTEX
  5
8A9
  8
0
 10
139.8833136859336
 20
37.3787792106862
 30
0.0
  0
SEQEND
  5
8AA
  8
0
  0
POLYLINE
  5
8AB
  8
0
 66
     1
 10
0.0
 20
0.0
 30
0.0
  0
VERTEX
  5
8AC
  8
0
 10
134.4402996695534
 20
45.73854025595953
 30
0.0
  0
VERTEX
  5
8AD
  8
0
 10
134.4201996905817
 20
50.51975142962318
 30
0.0
  0
VERTEX
  5
8AE
  8
0
 10
138.5356999913378
 20
52.92567692544097
 30
0.0
  0
VERTEX
  5
8AF
  8
0
 10
142.671311036989
 20
50.55043431128869
 30
0.0
  0
VERTEX
  5
8B0
  8
0
 10
142.6917770573561
 20
45.76887862807651
 30
0.0
  0
VERTEX
  5
8B1
  8
0
 10
138.5762767566
 20
43.36329764180726
 30
0.0
  0
VERTEX
  5
8B2
  8
0
 10
134.4402996695534
 20
45.73854025595953
 30
0.0
  0
SEQEND
  5
8B3
  8
0
  0
POLYLINE
  5
8B4
  8
0
 66
     1
 10
0.0
 20
0.0
 30
0.0
  0
VERTEX
  5
8B5
  8
0
 10
129.9459142268836
 20
37.3787792106862
 30
0.0
  0
VERTEX
  5
8B6
  8
0
 10
129.9258034819885
 20
42.16031336205157
 30
0.0
  0
VERTEX
  5
8B7
  8
0
 10
134.0413145486679
 20
44.56591588016762
 30
0.0
  0
VERTEX
  5
8B8
  8
0
 10
138.1769255943192
 20
42.19065173416855
 30
0.0
  0
VERTEX
  5
8B9
  8
0
 10
138.1970363392143
 20
37.4094620923517
 30
0.0
  0
VERTEX
  5
8BA
  8
0
 10
134.0815252725349
 20
35.00351506468713
 30
0.0
  0
VERTEX
  5
8BB
  8
0
 10
129.9459142268836
 20
37.3787792106862
 30
0.0
  0
SEQEND
  5
8BC
  8
0
  0
POLYLINE
  5
8BD
  8
0
 66
     1
 10
0.0
 20
0.0
 30
0.0
  0
VERTEX
  5
8BE
  8
0
 10
124.502910976427
 20
45.73854025595953
 30
0.0
  0
VERTEX
  5
8BF
  8
0
 10
124.4824449560599
 20
50.51975142962318
 30
0.0
  0
VERTEX
  5
8C0
  8
0
 10
128.5979560227393
 20
52.92567692544097
 30
0.0
  0
VERTEX
  5
8C1
  8
0
 10
132.7339223438624
 20
50.55043431128869
 30
0.0
  0
VERTEX
  5
8C2
  8
0
 10
132.7540223228341
 20
45.76887862807651
 30
0.0
  0
VERTEX
  5
8C3
  8
0
 10
128.6385220220781
 20
43.36329764180726
 30
0.0
  0
VERTEX
  5
8C4
  8
0
 10
124.502910976427
 20
45.73854025595953
 30
0.0
  0
SEQEND
  5
8C5
  8
0
  0
POLYLINE
  5
8C6
  8
0
 66
     1
 10
0.0
 20
0.0
 30
0.0
  0
VERTEX
  5
8C7
  8
0
 10
151.7306525501592
 20
95.42622657030628
 30
0.0
  0
VERTEX
  5
8C8
  8
0
 10
156.5118421919761
 20
95.47422105678517
 30
0.0
  0
VERTEX
  5
8C9
  8
0
 10
158.9414311874081
 20
91.37246884019993
 30
0.0
  0
VERTEX
  5
8CA
  8
0
 10
156.5898090091767
 20
87.22308817853111
 30
0.0
  0
VERTEX
  5
8CB
  8
0
 10
151.8089638769084
 20
87.17545973344754
 30
0.0
  0
VERTEX
  5
8CC
  8
0
 10
149.3793856473997
 20
91.27686744048425
 30
0.0
  0
VERTEX
  5
8CD
  8
0
 10
151.7306525501592
 20
95.42622657030628
 30
0.0
  0
SEQEND
  5
8CE
  8
0
  0
POLYLINE
  5
8CF
  8
0
 66
     1
 10
0.0
 20
0.0
 30
0.0
  0
VERTEX
  5
8D0
  8
0
 10
168.7140797207994
 20
95.71374132039716
 30
0.0
  0
VERTEX
  5
8D1
  8
0
 10
173.4952693626163
 20
95.76136976548074
 30
0.0
  0
VERTEX
  5
8D2
  8
0
 10
175.924847592125
 20
91.6599835902908
 30
0.0
  0
VERTEX
  5
8D3
  8
0
 10
173.5735914552887
 20
87.51060292862199
 30
0.0
  0
VERTEX
  5
8D4
  8
0
 10
168.7923910475486
 20
87.46262997398989
 30
0.0
  0
VERTEX
  5
8D5
  8
0
 10
166.3628128180399
 20
91.56438219057513
 30
0.0
  0
VERTEX
  5
8D6
  8
0
 10
168.7140797207994
 20
95.71374132039716
 30
0.0
  0
SEQEND
  5
8D7
  8
0
  0
POLYLINE
  5
8D8
  8
0
 66
     1
 10
0.0
 20
0.0
 30
0.0
  0
VERTEX
  5
8D9
  8
0
 10
160.0223406618288
 20
100.0910150484153
 30
0.0
  0
VERTEX
  5
8DA
  8
0
 10
164.8035303036455
 20
100.1389880030474
 30
0.0
  0
VERTEX
  5
8DB
  8
0
 10
167.2331192990777
 20
96.03723578646212
 30
0.0
  0
VERTEX
  5
8DC
  8
0
 10
164.881852396318
 20
91.88787665664009
 30
0.0
  0
VERTEX
  5
8DD
  8
0
 10
160.1006519885777
 20
91.84024821155651
 30
0.0
  0
VERTEX
  5
8DE
  8
0
 10
157.6710737590691
 20
95.94163438674644
 30
0.0
  0
VERTEX
  5
8DF
  8
0
 10
160.0223406618288
 20
100.0910150484153
 30
0.0
  0
SEQEND
  5
8E0
  8
0
  0
POLYLINE
  5
8E1
  8
0
 66
     1
 10
0.0
 20
0.0
 30
0.0
  0
VERTEX
  5
8E2
  8
0
 10
160.078075847226
 20
90.50744842754726
 30
0.0
  0
VERTEX
  5
8E3
  8
0
 10
164.8589209794943
 20
90.55544291402614
 30
0.0
  0
VERTEX
  5
8E4
  8
0
 10
167.288499209003
 20
86.4536906974409
 30
0.0
  0
VERTEX
  5
8E5
  8
0
 10
164.9372430721669
 20
82.30431003577209
 30
0.0
  0
VERTEX
  5
8E6
  8
0
 10
160.1560426644266
 20
82.25668159068852
 30
0.0
  0
VERTEX
  5
8E7
  8
0
 10
157.7264644349179
 20
86.35808929772523
 30
0.0
  0
VERTEX
  5
8E8
  8
0
 10
160.078075847226
 20
90.50744842754726
 30
0.0
  0
SEQEND
  5
8E9
  8
0
  0
POLYLINE
  5
8EA
  8
0
 66
     1
 10
0.0
 20
0.0
 30
0.0
  0
VERTEX
  5
8EB
  8
0
 10
151.6114091826761
 20
85.5685595398931
 30
0.0
  0
VERTEX
  5
8EC
  8
0
 10
156.3922543149444
 20
85.61655402637199
 30
0.0
  0
VERTEX
  5
8ED
  8
0
 10
158.8218325444531
 20
81.51480180978675
 30
0.0
  0
VERTEX
  5
8EE
  8
0
 10
156.4705764076168
 20
77.36542114811792
 30
0.0
  0
VERTEX
  5
8EF
  8
0
 10
151.6893759998767
 20
77.31779270303434
 30
0.0
  0
VERTEX
  5
8F0
  8
0
 10
149.2597977703678
 20
81.41920041007106
 30
0.0
  0
VERTEX
  5
8F1
  8
0
 10
151.6114091826761
 20
85.5685595398931
 30
0.0
  0
SEQEND
  5
8F2
  8
0
  0
POLYLINE
  5
8F3
  8
0
 66
     1
 10
0.0
 20
0.0
 30
0.0
  0
VERTEX
  5
8F4
  8
0
 10
168.7680492947605
 20
86.42193122343626
 30
0.0
  0
VERTEX
  5
8F5
  8
0
 10
173.5488944270288
 20
86.46990417806836
 30
0.0
  0
VERTEX
  5
8F6
  8
0
 10
175.978483422461
 20
82.3681734933299
 30
0.0
  0
VERTEX
  5
8F7
  8
0
 10
173.6272165197014
 20
78.21879283166109
 30
0.0
  0
VERTEX
  5
8F8
  8
0
 10
168.8460161119611
 20
78.17081987702899
 30
0.0
  0
VERTEX
  5
8F9
  8
0
 10
166.4164378824524
 20
82.27257209361423
 30
0.0
  0
VERTEX
  5
8FA
  8
0
 10
168.7680492947605
 20
86.42193122343626
 30
0.0
  0
SEQEND
  5
8FB
  8
0
  0
POLYLINE
  5
8FC
  8
0
 66
     1
 10
0.0
 20
0.0
 30
0.0
  0
VERTEX
  5
8FD
  8
0
 10
52.43005464238076
 20
93.68244842675351
 30
0.0
  0
VERTEX
  5
8FE
  8
0
 10
52.40959400497539
 20
98.46365960041715
 30
0.0
  0
VERTEX
  5
8FF
  8
0
 10
56.52509968869315
 20
100.8696066280817
 30
0.0
  0
VERTEX
  5
900
  8
0
 10
60.66106600981628
 20
98.49399797253413
 30
0.0
  0
VERTEX
  5
901
  8
0
 10
60.68117675471143
 20
93.7127867988705
 30
0.0
  0
VERTEX
  5
902
  8
0
 10
56.56567107099366
 20
91.30683977120592
 30
0.0
  0
VERTEX
  5
903
  8
0
 10
52.43005464238076
 20
93.68244842675351
 30
0.0
  0
SEQEND
  5
904
  8
0
  0
POLYLINE
  5
905
  8
0
 66
     1
 10
0.0
 20
0.0
 30
0.0
  0
VERTEX
  5
906
  8
0
 10
48.00234256327393
 20
85.0161169469865
 30
0.0
  0
VERTEX
  5
907
  8
0
 10
47.98223181837878
 20
89.79730658880335
 30
0.0
  0
VERTEX
  5
908
  8
0
 10
52.09773750209654
 20
92.20325361646793
 30
0.0
  0
VERTEX
  5
909
  8
0
 10
56.23335393070945
 20
89.82801100231565
 30
0.0
  0
VERTEX
  5
90A
  8
0
 10
56.25381456811481
 20
85.04679982865201
 30
0.0
  0
VERTEX
  5
90B
  8
0
 10
52.13830888439705
 20
82.64085280098743
 30
0.0
  0
VERTEX
  5
90C
  8
0
 10
48.00234256327393
 20
85.0161169469865
 30
0.0
  0
SEQEND
  5
90D
  8
0
  0
POLYLINE
  5
90E
  8
0
 66
     1
 10
0.0
 20
0.0
 30
0.0
  0
VERTEX
  5
90F
  8
0
 10
57.58625369369045
 20
85.0161169469865
 30
0.0
  0
VERTEX
  5
910
  8
0
 10
57.56579305628509
 20
89.79730658880335
 30
0.0
  0
VERTEX
  5
911
  8
0
 10
61.68129874000284
 20
92.20325361646793
 30
0.0
  0
VERTEX
  5
912
  8
0
 10
65.81726506112597
 20
89.82801100231565
 30
0.0
  0
VERTEX
  5
913
  8
0
 10
65.83737580602111
 20
85.04679982865201
 30
0.0
  0
VERTEX
  5
914
  8
0
 10
61.72187012230336
 20
82.64085280098743
 30
0.0
  0
VERTEX
  5
915
  8
0
 10
57.58625369369045
 20
85.0161169469865
 30
0.0
  0
SEQEND
  5
916
  8
0
  0
POLYLINE
  5
917
  8
0
 66
     1
 10
0.0
 20
0.0
 30
0.0
  0
VERTEX
  5
918
  8
0
 10
53.08622152420185
 20
76.64117594973128
 30
0.0
  0
VERTEX
  5
919
  8
0
 10
53.06576088679649
 20
81.42236559154813
 30
0.0
  0
VERTEX
  5
91A
  8
0
 10
57.18126657051425
 20
83.82831261921271
 30
0.0
  0
VERTEX
  5
91B
  8
0
 10
61.31723289163737
 20
81.45307000506043
 30
0.0
  0
VERTEX
  5
91C
  8
0
 10
61.33734363653252
 20
76.67185883139679
 30
0.0
  0
VERTEX
  5
91D
  8
0
 10
57.22183795281476
 20
74.26591180373221
 30
0.0
  0
VERTEX
  5
91E
  8
0
 10
53.08622152420185
 20
76.64117594973128
 30
0.0
  0
SEQEND
  5
91F
  8
0
  0
POLYLINE
  5
920
  8
0
 66
     1
 10
0.0
 20
0.0
 30
0.0
  0
VERTEX
  5
921
  8
0
 10
48.65850944509502
 20
67.97482293811748
 30
0.0
  0
VERTEX
  5
922
  8
0
 10
48.63839870019988
 20
72.75637862132965
 30
0.0
  0
VERTEX
  5
923
  8
0
 10
52.75390438391763
 20
75.16232564899421
 30
0.0
  0
VERTEX
  5
924
  8
0
 10
56.88952081253054
 20
72.78671699344663
 30
0.0
  0
VERTEX
  5
925
  8
0
 10
56.90962617446399
 20
68.00552735162977
 30
0.0
  0
VERTEX
  5
926
  8
0
 10
52.79412049074623
 20
65.5995803239652
 30
0.0
  0
VERTEX
  5
927
  8
0
 10
48.65850944509502
 20
67.97482293811748
 30
0.0
  0
SEQEND
  5
928
  8
0
  0
POLYLINE
  5
929
  8
0
 66
     1
 10
0.0
 20
0.0
 30
0.0
  0
VERTEX
  5
92A
  8
0
 10
58.24242057551154
 20
67.97482293811748
 30
0.0
  0
VERTEX
  5
92B
  8
0
 10
58.22195993810618
 20
72.75637862132965
 30
0.0
  0
VERTEX
  5
92C
  8
0
 10
62.33746562182394
 20
75.16232564899421
 30
0.0
  0
VERTEX
  5
92D
  8
0
 10
66.47343194294706
 20
72.78671699344663
 30
0.0
  0
VERTEX
  5
92E
  8
0
 10
66.49354268784221
 20
68.00552735162977
 30
0.0
  0
VERTEX
  5
92F
  8
0
 10
62.37803700412445
 20
65.5995803239652
 30
0.0
  0
VERTEX
  5
930
  8
0
 10
58.24242057551154
 20
67.97482293811748
 30
0.0
  0
SEQEND
  5
931
  8
0
  0
POLYLINE
  5
932
  8
0
 66
     1
 10
0.0
 20
0.0
 30
0.0
  0
VERTEX
  5
933
  8
0
 10
62.37803700412445
 20
76.64117594973128
 30
0.0
  0
VERTEX
  5
934
  8
0
 10
62.3579262592293
 20
81.42236559154813
 30
0.0
  0
VERTEX
  5
935
  8
0
 10
66.47343194294706
 20
83.82831261921271
 30
0.0
  0
VERTEX
  5
936
  8
0
 10
70.60904837155996
 20
81.45307000506043
 30
0.0
  0
VERTEX
  5
937
  8
0
 10
70.62915373349342
 20
76.67185883139679
 30
0.0
  0
VERTEX
  5
938
  8
0
 10
66.51364804977567
 20
74.26591180373221
 30
0.0
  0
VERTEX
  5
939
  8
0
 10
62.37803700412445
 20
76.64117594973128
 30
0.0
  0
SEQEND
  5
93A
  8
0
  0
ENDSEC
  0
EOF
