  0
SECTION
  2
HEADER
  9
$ACADVER
  1
AC1009
  9
$DWGCODEPAGE
  3
ansi_1252
  9
$INSBASE
 10
0.0
 20
0.0
 30
0.0
  9
$EXTMIN
 10
0.0
 20
0.0
 30
0.0
  9
$EXTMAX
 10
316.0
 20
316.0
 30
0.0
  9
$LIMMIN
 10
0.0
 20
0.0
  9
$LIMMAX
 10
12.0
 20
9.0
  9
$ORTHOMODE
 70
     0
  9
$REGENMODE
 70
     1
  9
$FILLMODE
 70
     1
  9
$QTEXTMODE
 70
     0
  9
$MIRRTEXT
 70
     1
  9
$DRAGMODE
 70
     2
  9
$LTSCALE
 40
1.0
  9
$OSMODE
 70
  4791
  9
$ATTMODE
 70
     1
  9
$TEXTSIZE
 40
0.2
  9
$TRACEWID
 40
0.05
  9
$TEXTSTYLE
  7
STANDARD
  9
$CLAYER
  8
0
  9
$CELTYPE
  6
BYBLOCK
  9
$CECOLOR
 62
   256
  9
$DIMSCALE
 40
1.0
  9
$DIMASZ
 40
0.18
  9
$DIMEXO
 40
0.0625
  9
$DIMDLI
 40
0.38
  9
$DIMRND
 40
0.0
  9
$DIMDLE
 40
0.0
  9
$DIMEXE
 40
0.18
  9
$DIMTP
 40
0.0
  9
$DIMTM
 40
0.0
  9
$DIMTXT
 40
0.18
  9
$DIMCEN
 40
0.09
  9
$DIMTSZ
 40
0.0
  9
$DIMTOL
 70
     0
  9
$DIMLIM
 70
     0
  9
$DIMTIH
 70
     1
  9
$DIMTOH
 70
     1
  9
$DIMSE1
 70
     0
  9
$DIMSE2
 70
     0
  9
$DIMTAD
 70
     0
  9
$DIMZIN
 70
     0
  9
$DIMBLK
  1

  9
$DIMASO
 70
     1
  9
$DIMSHO
 70
     1
  9
$DIMPOST
  1

  9
$DIMAPOST
  1

  9
$DIMALT
 70
     0
  9
$DIMALTD
 70
     2
  9
$DIMALTF
 40
25.4
  9
$DIMLFAC
 40
1.0
  9
$DIMTOFL
 70
     0
  9
$DIMTVP
 40
0.0
  9
$DIMTIX
 70
     0
  9
$DIMSOXD
 70
     0
  9
$DIMSAH
 70
     0
  9
$DIMBLK1
  1

  9
$DIMBLK2
  1

  9
$DIMSTYLE
  2
STANDARD
  9
$DIMCLRD
 70
     0
  9
$DIMCLRE
 70
     0
  9
$DIMCLRT
 70
     0
  9
$DIMTFAC
 40
1.0
  9
$DIMGAP
 40
0.09
  9
$LUNITS
 70
     2
  9
$LUPREC
 70
     4
  9
$SKETCHINC
 40
0.1
  9
$FILLETRAD
 40
0.5
  9
$AUNITS
 70
     0
  9
$AUPREC
 70
     0
  9
$MENU
  1
.
  9
$ELEVATION
 40
0.0
  9
$PELEVATION
 40
0.0
  9
$THICKNESS
 40
0.0
  9
$LIMCHECK
 70
     0
  9
$CHAMFERA
 40
0.0
  9
$CHAMFERB
 40
0.0
  9
$SKPOLY
 70
     0
  9
$TDCREATE
 40
2458139.522404838
  9
$TDUPDATE
 40
2458296.46650868
  9
$TDINDWG
 40
0.0058926042
  9
$TDUSRTIMER
 40
0.0007723264
  9
$USRTIMER
 70
     1
  9
$ANGBASE
 50
0.0
  9
$ANGDIR
 70
     0
  9
$PDMODE
 70
     0
  9
$PDSIZE
 40
0.0
  9
$PLINEWID
 40
0.0
  9
$COORDS
 70
     1
  9
$SPLFRAME
 70
     0
  9
$SPLINETYPE
 70
     6
  9
$SPLINESEGS
 70
     8
  9
$ATTDIA
 70
     0
  9
$ATTREQ
 70
     1
  9
$HANDLING
 70
     1
  9
$HANDSEED
  5
3F9
  9
$SURFTAB1
 70
     6
  9
$SURFTAB2
 70
     6
  9
$SURFTYPE
 70
     6
  9
$SURFU
 70
     6
  9
$SURFV
 70
     6
  9
$UCSNAME
  2

  9
$UCSORG
 10
0.0
 20
0.0
 30
0.0
  9
$UCSXDIR
 10
1.0
 20
0.0
 30
0.0
  9
$UCSYDIR
 10
0.0
 20
1.0
 30
0.0
  9
$PUCSNAME
  2

  9
$PUCSORG
 10
0.0
 20
0.0
 30
0.0
  9
$PUCSXDIR
 10
1.0
 20
0.0
 30
0.0
  9
$PUCSYDIR
 10
0.0
 20
1.0
 30
0.0
  9
$USERI1
 70
     0
  9
$USERI2
 70
     0
  9
$USERI3
 70
     0
  9
$USERI4
 70
     0
  9
$USERI5
 70
     0
  9
$USERR1
 40
0.0
  9
$USERR2
 40
0.0
  9
$USERR3
 40
0.0
  9
$USERR4
 40
0.0
  9
$USERR5
 40
0.0
  9
$WORLDVIEW
 70
     1
  9
$SHADEDGE
 70
     3
  9
$SHADEDIF
 70
    70
  9
$TILEMODE
 70
     1
  9
$MAXACTVP
 70
    64
  9
$PLIMCHECK
 70
     0
  9
$PEXTMIN
 10
1.000000000000000E+20
 20
1.000000000000000E+20
 30
1.000000000000000E+20
  9
$PEXTMAX
 10
-1.000000000000000E+20
 20
-1.000000000000000E+20
 30
-1.000000000000000E+20
  9
$PLIMMIN
 10
0.0
 20
0.0
  9
$PLIMMAX
 10
0.0
 20
0.0
  9
$UNITMODE
 70
     0
  9
$VISRETAIN
 70
     1
  9
$PLINEGEN
 70
     0
  9
$PSLTSCALE
 70
     1
  0
ENDSEC
  0
SECTION
  2
TABLES
  0
TABLE
  2
VPORT
 70
     1
  0
VPORT
  2
*ACTIVE
 70
     0
 10
0.0
 20
0.0
 11
1.0
 21
1.0
 12
203.1849420075163
 22
173.5520603512981
 13
0.0
 23
0.0
 14
1.0
 24
1.0
 15
0.0
 25
0.0
 16
0.0
 26
0.0
 36
1.0
 17
0.0
 27
0.0
 37
0.0
 40
500.3323484015563
 41
2.192878338278932
 42
50.0
 43
0.0
 44
0.0
 50
0.0
 51
0.0
 71
    16
 72
   100
 73
     1
 74
     1
 75
     0
 76
     0
 77
     0
 78
     0
  0
ENDTAB
  0
TABLE
  2
LTYPE
 70
     1
  0
LTYPE
  2
CONTINUOUS
 70
     0
  3
Solid line
 72
    65
 73
     0
 40
0.0
  0
ENDTAB
  0
TABLE
  2
LAYER
 70
     2
  0
LAYER
  2
0
 70
     0
 62
     7
  6
CONTINUOUS
  0
LAYER
  2
1
 70
     0
 62
     7
  6
CONTINUOUS
  0
ENDTAB
  0
TABLE
  2
STYLE
 70
     1
  0
STYLE
  2
STANDARD
 70
     0
 40
0.0
 41
1.0
 50
0.0
 71
     0
 42
0.2
  3
txt
  4

  0
ENDTAB
  0
TABLE
  2
VIEW
 70
     0
  0
ENDTAB
  0
TABLE
  2
UCS
 70
     0
  0
ENDTAB
  0
TABLE
  2
APPID
 70
     1
  0
APPID
  2
ACAD
 70
     0
  0
ENDTAB
  0
TABLE
  2
DIMSTYLE
 70
     1
  0
DIMSTYLE
  2
STANDARD
 70
     0
  3

  4

  5

  6

  7

 40
1.0
 41
0.18
 42
0.0625
 43
0.38
 44
0.18
 45
0.0
 46
0.0
 47
0.0
 48
0.0
140
0.18
141
0.09
142
0.0
143
25.4
144
1.0
145
0.0
146
1.0
147
0.09
 71
     0
 72
     0
 73
     1
 74
     1
 75
     0
 76
     0
 77
     0
 78
     0
170
     0
171
     2
172
     0
173
     0
174
     0
175
     0
176
     0
177
     0
178
     0
  0
ENDTAB
  0
ENDSEC
  0
SECTION
  2
BLOCKS
  0
BLOCK
  8
0
  2
$MODEL_SPACE
 70
     0
 10
0.0
 20
0.0
 30
0.0
  3
$MODEL_SPACE
  1

  0
ENDBLK
  5
15D
  8
0
  0
BLOCK
 67
     1
  8
0
  2
$PAPER_SPACE
 70
     0
 10
0.0
 20
0.0
 30
0.0
  3
$PAPER_SPACE
  1

  0
ENDBLK
  5
15F
 67
     1
  8
0
  0
ENDSEC
  0
SECTION
  2
ENTITIES
  0
POLYLINE
  5
22
  8
1
 66
     1
 10
0.0
 20
0.0
 30
0.0
  0
VERTEX
  5
27B
  8
1
 10
116.0
 20
116.0
 30
0.0
  0
VERTEX
  5
27C
  8
1
 10
123.0
 20
116.0
 30
0.0
  0
VERTEX
  5
27D
  8
1
 10
123.0
 20
113.0
 30
0.0
  0
VERTEX
  5
27E
  8
1
 10
133.0
 20
113.0
 30
0.0
  0
VERTEX
  5
27F
  8
1
 10
133.0
 20
116.0
 30
0.0
  0
VERTEX
  5
280
  8
1
 10
143.0
 20
116.0
 30
0.0
  0
VERTEX
  5
281
  8
1
 10
143.0
 20
113.0
 30
0.0
  0
VERTEX
  5
282
  8
1
 10
153.0
 20
113.0
 30
0.0
  0
VERTEX
  5
283
  8
1
 10
153.0
 20
116.0
 30
0.0
  0
VERTEX
  5
284
  8
1
 10
163.0
 20
116.0
 30
0.0
  0
VERTEX
  5
285
  8
1
 10
163.0
 20
113.0
 30
0.0
  0
VERTEX
  5
286
  8
1
 10
173.0
 20
113.0
 30
0.0
  0
VERTEX
  5
287
  8
1
 10
173.0
 20
116.0
 30
0.0
  0
VERTEX
  5
288
  8
1
 10
183.0
 20
116.0
 30
0.0
  0
VERTEX
  5
289
  8
1
 10
183.0
 20
113.0
 30
0.0
  0
VERTEX
  5
28A
  8
1
 10
193.0
 20
113.0
 30
0.0
  0
VERTEX
  5
28B
  8
1
 10
193.0
 20
116.0
 30
0.0
  0
VERTEX
  5
28C
  8
1
 10
200.0
 20
116.0
 30
0.0
  0
VERTEX
  5
28D
  8
1
 10
200.0
 20
128.0
 30
0.0
  0
VERTEX
  5
28E
  8
1
 10
203.0
 20
128.0
 30
0.0
  0
VERTEX
  5
28F
  8
1
 10
203.0
 20
140.0
 30
0.0
  0
VERTEX
  5
290
  8
1
 10
200.0
 20
140.0
 30
0.0
  0
VERTEX
  5
291
  8
1
 10
200.0
 20
152.0
 30
0.0
  0
VERTEX
  5
292
  8
1
 10
203.0
 20
152.0
 30
0.0
  0
VERTEX
  5
293
  8
1
 10
203.0
 20
164.0
 30
0.0
  0
VERTEX
  5
294
  8
1
 10
200.0
 20
164.0
 30
0.0
  0
VERTEX
  5
295
  8
1
 10
200.0
 20
176.0
 30
0.0
  0
VERTEX
  5
296
  8
1
 10
203.0
 20
176.0
 30
0.0
  0
VERTEX
  5
297
  8
1
 10
203.0
 20
188.0
 30
0.0
  0
VERTEX
  5
298
  8
1
 10
200.0
 20
188.0
 30
0.0
  0
VERTEX
  5
299
  8
1
 10
200.0
 20
200.0
 30
0.0
  0
VERTEX
  5
29A
  8
1
 10
193.0
 20
200.0
 30
0.0
  0
VERTEX
  5
29B
  8
1
 10
193.0
 20
203.0
 30
0.0
  0
VERTEX
  5
29C
  8
1
 10
183.0
 20
203.0
 30
0.0
  0
VERTEX
  5
29D
  8
1
 10
183.0
 20
200.0
 30
0.0
  0
VERTEX
  5
29E
  8
1
 10
173.0
 20
200.0
 30
0.0
  0
VERTEX
  5
29F
  8
1
 10
173.0
 20
203.0
 30
0.0
  0
VERTEX
  5
2A0
  8
1
 10
163.0
 20
203.0
 30
0.0
  0
VERTEX
  5
2A1
  8
1
 10
163.0
 20
200.0
 30
0.0
  0
VERTEX
  5
2A2
  8
1
 10
153.0
 20
200.0
 30
0.0
  0
VERTEX
  5
2A3
  8
1
 10
153.0
 20
203.0
 30
0.0
  0
VERTEX
  5
2A4
  8
1
 10
143.0
 20
203.0
 30
0.0
  0
VERTEX
  5
2A5
  8
1
 10
143.0
 20
200.0
 30
0.0
  0
VERTEX
  5
2A6
  8
1
 10
133.0
 20
200.0
 30
0.0
  0
VERTEX
  5
2A7
  8
1
 10
133.0
 20
203.0
 30
0.0
  0
VERTEX
  5
2A8
  8
1
 10
123.0
 20
203.0
 30
0.0
  0
VERTEX
  5
2A9
  8
1
 10
123.0
 20
200.0
 30
0.0
  0
VERTEX
  5
2AA
  8
1
 10
116.0
 20
200.0
 30
0.0
  0
VERTEX
  5
2AB
  8
1
 10
116.0
 20
188.0
 30
0.0
  0
VERTEX
  5
2AC
  8
1
 10
113.0
 20
188.0
 30
0.0
  0
VERTEX
  5
2AD
  8
1
 10
113.0
 20
176.0
 30
0.0
  0
VERTEX
  5
2AE
  8
1
 10
116.0
 20
176.0
 30
0.0
  0
VERTEX
  5
2AF
  8
1
 10
116.0
 20
164.0
 30
0.0
  0
VERTEX
  5
2B0
  8
1
 10
113.0
 20
164.0
 30
0.0
  0
VERTEX
  5
2B1
  8
1
 10
113.0
 20
152.0
 30
0.0
  0
VERTEX
  5
2B2
  8
1
 10
116.0
 20
152.0
 30
0.0
  0
VERTEX
  5
2B3
  8
1
 10
116.0
 20
140.0
 30
0.0
  0
VERTEX
  5
2B4
  8
1
 10
113.0
 20
140.0
 30
0.0
  0
VERTEX
  5
2B5
  8
1
 10
113.0
 20
128.0
 30
0.0
  0
VERTEX
  5
2B6
  8
1
 10
116.0
 20
128.0
 30
0.0
  0
VERTEX
  5
2B7
  8
1
 10
116.0
 20
116.0
 30
0.0
  0
SEQEND
  5
3D4
  8
1
  0
POLYLINE
  5
61
  8
1
 66
     1
 10
0.0
 20
0.0
 30
0.0
  0
VERTEX
  5
2B8
  8
1
 10
116.0
 20
0.0
 30
0.0
  0
VERTEX
  5
2B9
  8
1
 10
200.0
 20
0.0
 30
0.0
  0
VERTEX
  5
2BA
  8
1
 10
203.0
 20
0.0
 30
0.0
  0
VERTEX
  5
2BB
  8
1
 10
203.0
 20
12.22
 30
0.0
  0
VERTEX
  5
2BC
  8
1
 10
200.0
 20
12.22
 30
0.0
  0
VERTEX
  5
2BD
  8
1
 10
200.0
 20
24.44
 30
0.0
  0
VERTEX
  5
2BE
  8
1
 10
203.0
 20
24.44
 30
0.0
  0
VERTEX
  5
2BF
  8
1
 10
203.0
 20
36.67
 30
0.0
  0
VERTEX
  5
2C0
  8
1
 10
200.0
 20
36.67
 30
0.0
  0
VERTEX
  5
2C1
  8
1
 10
200.0
 20
48.89
 30
0.0
  0
VERTEX
  5
2C2
  8
1
 10
203.0
 20
48.89
 30
0.0
  0
VERTEX
  5
2C3
  8
1
 10
203.0
 20
61.11
 30
0.0
  0
VERTEX
  5
2C4
  8
1
 10
200.0
 20
61.11
 30
0.0
  0
VERTEX
  5
2C5
  8
1
 10
200.0
 20
73.33
 30
0.0
  0
VERTEX
  5
2C6
  8
1
 10
203.0
 20
73.33
 30
0.0
  0
VERTEX
  5
2C7
  8
1
 10
203.0
 20
85.56
 30
0.0
  0
VERTEX
  5
2C8
  8
1
 10
200.0
 20
85.56
 30
0.0
  0
VERTEX
  5
2C9
  8
1
 10
200.0
 20
97.78
 30
0.0
  0
VERTEX
  5
2CA
  8
1
 10
203.0
 20
97.78
 30
0.0
  0
VERTEX
  5
2CB
  8
1
 10
203.0
 20
110.0
 30
0.0
  0
VERTEX
  5
2CC
  8
1
 10
193.0
 20
110.0
 30
0.0
  0
VERTEX
  5
2CD
  8
1
 10
193.0
 20
107.0
 30
0.0
  0
VERTEX
  5
2CE
  8
1
 10
183.0
 20
107.0
 30
0.0
  0
VERTEX
  5
2CF
  8
1
 10
183.0
 20
110.0
 30
0.0
  0
VERTEX
  5
2D0
  8
1
 10
173.0
 20
110.0
 30
0.0
  0
VERTEX
  5
2D1
  8
1
 10
173.0
 20
107.0
 30
0.0
  0
VERTEX
  5
2D2
  8
1
 10
163.0
 20
107.0
 30
0.0
  0
VERTEX
  5
2D3
  8
1
 10
163.0
 20
110.0
 30
0.0
  0
VERTEX
  5
2D4
  8
1
 10
153.0
 20
110.0
 30
0.0
  0
VERTEX
  5
2D5
  8
1
 10
153.0
 20
107.0
 30
0.0
  0
VERTEX
  5
2D6
  8
1
 10
143.0
 20
107.0
 30
0.0
  0
VERTEX
  5
2D7
  8
1
 10
143.0
 20
110.0
 30
0.0
  0
VERTEX
  5
2D8
  8
1
 10
133.0
 20
110.0
 30
0.0
  0
VERTEX
  5
2D9
  8
1
 10
133.0
 20
107.0
 30
0.0
  0
VERTEX
  5
2DA
  8
1
 10
123.0
 20
107.0
 30
0.0
  0
VERTEX
  5
2DB
  8
1
 10
123.0
 20
110.0
 30
0.0
  0
VERTEX
  5
2DC
  8
1
 10
113.0
 20
110.0
 30
0.0
  0
VERTEX
  5
2DD
  8
1
 10
113.0
 20
97.78
 30
0.0
  0
VERTEX
  5
2DE
  8
1
 10
116.0
 20
97.78
 30
0.0
  0
VERTEX
  5
2DF
  8
1
 10
116.0
 20
85.56
 30
0.0
  0
VERTEX
  5
2E0
  8
1
 10
113.0
 20
85.56
 30
0.0
  0
VERTEX
  5
2E1
  8
1
 10
113.0
 20
73.33
 30
0.0
  0
VERTEX
  5
2E2
  8
1
 10
116.0
 20
73.33
 30
0.0
  0
VERTEX
  5
2E3
  8
1
 10
116.0
 20
61.11
 30
0.0
  0
VERTEX
  5
2E4
  8
1
 10
113.0
 20
61.11
 30
0.0
  0
VERTEX
  5
2E5
  8
1
 10
113.0
 20
48.89
 30
0.0
  0
VERTEX
  5
2E6
  8
1
 10
116.0
 20
48.89
 30
0.0
  0
VERTEX
  5
2E7
  8
1
 10
116.0
 20
36.67
 30
0.0
  0
VERTEX
  5
2E8
  8
1
 10
113.0
 20
36.67
 30
0.0
  0
VERTEX
  5
2E9
  8
1
 10
113.0
 20
24.44
 30
0.0
  0
VERTEX
  5
2EA
  8
1
 10
116.0
 20
24.44
 30
0.0
  0
VERTEX
  5
2EB
  8
1
 10
116.0
 20
12.22
 30
0.0
  0
VERTEX
  5
2EC
  8
1
 10
113.0
 20
12.22
 30
0.0
  0
VERTEX
  5
2ED
  8
1
 10
113.0
 20
0.0
 30
0.0
  0
VERTEX
  5
2EE
  8
1
 10
116.0
 20
0.0
 30
0.0
  0
SEQEND
  5
3D5
  8
1
  0
POLYLINE
  5
9A
  8
1
 66
     1
 10
0.0
 20
0.0
 30
0.0
  0
VERTEX
  5
2EF
  8
1
 10
116.0
 20
316.0
 30
0.0
  0
VERTEX
  5
2F0
  8
1
 10
200.0
 20
316.0
 30
0.0
  0
VERTEX
  5
2F1
  8
1
 10
203.0
 20
316.0
 30
0.0
  0
VERTEX
  5
2F2
  8
1
 10
203.0
 20
303.78
 30
0.0
  0
VERTEX
  5
2F3
  8
1
 10
200.0
 20
303.78
 30
0.0
  0
VERTEX
  5
2F4
  8
1
 10
200.0
 20
291.56
 30
0.0
  0
VERTEX
  5
2F5
  8
1
 10
203.0
 20
291.56
 30
0.0
  0
VERTEX
  5
2F6
  8
1
 10
203.0
 20
279.33
 30
0.0
  0
VERTEX
  5
2F7
  8
1
 10
200.0
 20
279.33
 30
0.0
  0
VERTEX
  5
2F8
  8
1
 10
200.0
 20
267.11
 30
0.0
  0
VERTEX
  5
2F9
  8
1
 10
203.0
 20
267.11
 30
0.0
  0
VERTEX
  5
2FA
  8
1
 10
203.0
 20
254.89
 30
0.0
  0
VERTEX
  5
2FB
  8
1
 10
200.0
 20
254.89
 30
0.0
  0
VERTEX
  5
2FC
  8
1
 10
200.0
 20
242.67
 30
0.0
  0
VERTEX
  5
2FD
  8
1
 10
203.0
 20
242.67
 30
0.0
  0
VERTEX
  5
2FE
  8
1
 10
203.0
 20
230.44
 30
0.0
  0
VERTEX
  5
2FF
  8
1
 10
200.0
 20
230.44
 30
0.0
  0
VERTEX
  5
300
  8
1
 10
200.0
 20
218.22
 30
0.0
  0
VERTEX
  5
301
  8
1
 10
203.0
 20
218.22
 30
0.0
  0
VERTEX
  5
302
  8
1
 10
203.0
 20
206.0
 30
0.0
  0
VERTEX
  5
303
  8
1
 10
193.0
 20
206.0
 30
0.0
  0
VERTEX
  5
304
  8
1
 10
193.0
 20
209.0
 30
0.0
  0
VERTEX
  5
305
  8
1
 10
183.0
 20
209.0
 30
0.0
  0
VERTEX
  5
306
  8
1
 10
183.0
 20
206.0
 30
0.0
  0
VERTEX
  5
307
  8
1
 10
173.0
 20
206.0
 30
0.0
  0
VERTEX
  5
308
  8
1
 10
173.0
 20
209.0
 30
0.0
  0
VERTEX
  5
309
  8
1
 10
163.0
 20
209.0
 30
0.0
  0
VERTEX
  5
30A
  8
1
 10
163.0
 20
206.0
 30
0.0
  0
VERTEX
  5
30B
  8
1
 10
153.0
 20
206.0
 30
0.0
  0
VERTEX
  5
30C
  8
1
 10
153.0
 20
209.0
 30
0.0
  0
VERTEX
  5
30D
  8
1
 10
143.0
 20
209.0
 30
0.0
  0
VERTEX
  5
30E
  8
1
 10
143.0
 20
206.0
 30
0.0
  0
VERTEX
  5
30F
  8
1
 10
133.0
 20
206.0
 30
0.0
  0
VERTEX
  5
310
  8
1
 10
133.0
 20
209.0
 30
0.0
  0
VERTEX
  5
311
  8
1
 10
123.0
 20
209.0
 30
0.0
  0
VERTEX
  5
312
  8
1
 10
123.0
 20
206.0
 30
0.0
  0
VERTEX
  5
313
  8
1
 10
113.0
 20
206.0
 30
0.0
  0
VERTEX
  5
314
  8
1
 10
113.0
 20
218.22
 30
0.0
  0
VERTEX
  5
315
  8
1
 10
116.0
 20
218.22
 30
0.0
  0
VERTEX
  5
316
  8
1
 10
116.0
 20
230.44
 30
0.0
  0
VERTEX
  5
317
  8
1
 10
113.0
 20
230.44
 30
0.0
  0
VERTEX
  5
318
  8
1
 10
113.0
 20
242.67
 30
0.0
  0
VERTEX
  5
319
  8
1
 10
116.0
 20
242.67
 30
0.0
  0
VERTEX
  5
31A
  8
1
 10
116.0
 20
254.89
 30
0.0
  0
VERTEX
  5
31B
  8
1
 10
113.0
 20
254.89
 30
0.0
  0
VERTEX
  5
31C
  8
1
 10
113.0
 20
267.11
 30
0.0
  0
VERTEX
  5
31D
  8
1
 10
116.0
 20
267.11
 30
0.0
  0
VERTEX
  5
31E
  8
1
 10
116.0
 20
279.33
 30
0.0
  0
VERTEX
  5
31F
  8
1
 10
113.0
 20
279.33
 30
0.0
  0
VERTEX
  5
320
  8
1
 10
113.0
 20
291.56
 30
0.0
  0
VERTEX
  5
321
  8
1
 10
116.0
 20
291.56
 30
0.0
  0
VERTEX
  5
322
  8
1
 10
116.0
 20
303.78
 30
0.0
  0
VERTEX
  5
323
  8
1
 10
113.0
 20
303.78
 30
0.0
  0
VERTEX
  5
324
  8
1
 10
113.0
 20
316.0
 30
0.0
  0
VERTEX
  5
325
  8
1
 10
116.0
 20
316.0
 30
0.0
  0
SEQEND
  5
3D6
  8
1
  0
POLYLINE
  5
D3
  8
1
 66
     1
 10
0.0
 20
0.0
 30
0.0
  0
VERTEX
  5
326
  8
1
 10
0.0
 20
116.0
 30
0.0
  0
VERTEX
  5
327
  8
1
 10
0.0
 20
200.0
 30
0.0
  0
VERTEX
  5
328
  8
1
 10
12.22
 20
200.0
 30
0.0
  0
VERTEX
  5
329
  8
1
 10
12.22
 20
203.0
 30
0.0
  0
VERTEX
  5
32A
  8
1
 10
24.44
 20
203.0
 30
0.0
  0
VERTEX
  5
32B
  8
1
 10
24.44
 20
200.0
 30
0.0
  0
VERTEX
  5
32C
  8
1
 10
36.67
 20
200.0
 30
0.0
  0
VERTEX
  5
32D
  8
1
 10
36.67
 20
203.0
 30
0.0
  0
VERTEX
  5
32E
  8
1
 10
48.89
 20
203.0
 30
0.0
  0
VERTEX
  5
32F
  8
1
 10
48.89
 20
200.0
 30
0.0
  0
VERTEX
  5
330
  8
1
 10
61.11
 20
200.0
 30
0.0
  0
VERTEX
  5
331
  8
1
 10
61.11
 20
203.0
 30
0.0
  0
VERTEX
  5
332
  8
1
 10
73.33
 20
203.0
 30
0.0
  0
VERTEX
  5
333
  8
1
 10
73.33
 20
200.0
 30
0.0
  0
VERTEX
  5
334
  8
1
 10
85.56
 20
200.0
 30
0.0
  0
VERTEX
  5
335
  8
1
 10
85.56
 20
203.0
 30
0.0
  0
VERTEX
  5
336
  8
1
 10
97.78
 20
203.0
 30
0.0
  0
VERTEX
  5
337
  8
1
 10
97.78
 20
200.0
 30
0.0
  0
VERTEX
  5
338
  8
1
 10
110.0
 20
200.0
 30
0.0
  0
VERTEX
  5
339
  8
1
 10
110.0
 20
188.0
 30
0.0
  0
VERTEX
  5
33A
  8
1
 10
107.0
 20
188.0
 30
0.0
  0
VERTEX
  5
33B
  8
1
 10
107.0
 20
176.0
 30
0.0
  0
VERTEX
  5
33C
  8
1
 10
110.0
 20
176.0
 30
0.0
  0
VERTEX
  5
33D
  8
1
 10
110.0
 20
164.0
 30
0.0
  0
VERTEX
  5
33E
  8
1
 10
107.0
 20
164.0
 30
0.0
  0
VERTEX
  5
33F
  8
1
 10
107.0
 20
152.0
 30
0.0
  0
VERTEX
  5
340
  8
1
 10
110.0
 20
152.0
 30
0.0
  0
VERTEX
  5
341
  8
1
 10
110.0
 20
140.0
 30
0.0
  0
VERTEX
  5
342
  8
1
 10
107.0
 20
140.0
 30
0.0
  0
VERTEX
  5
343
  8
1
 10
107.0
 20
128.0
 30
0.0
  0
VERTEX
  5
344
  8
1
 10
110.0
 20
128.0
 30
0.0
  0
VERTEX
  5
345
  8
1
 10
110.0
 20
116.0
 30
0.0
  0
VERTEX
  5
346
  8
1
 10
97.78
 20
116.0
 30
0.0
  0
VERTEX
  5
347
  8
1
 10
97.78
 20
113.0
 30
0.0
  0
VERTEX
  5
348
  8
1
 10
85.56
 20
113.0
 30
0.0
  0
VERTEX
  5
349
  8
1
 10
85.56
 20
116.0
 30
0.0
  0
VERTEX
  5
34A
  8
1
 10
73.33
 20
116.0
 30
0.0
  0
VERTEX
  5
34B
  8
1
 10
73.33
 20
113.0
 30
0.0
  0
VERTEX
  5
34C
  8
1
 10
61.11
 20
113.0
 30
0.0
  0
VERTEX
  5
34D
  8
1
 10
61.11
 20
116.0
 30
0.0
  0
VERTEX
  5
34E
  8
1
 10
48.89
 20
116.0
 30
0.0
  0
VERTEX
  5
34F
  8
1
 10
48.89
 20
113.0
 30
0.0
  0
VERTEX
  5
350
  8
1
 10
36.67
 20
113.0
 30
0.0
  0
VERTEX
  5
351
  8
1
 10
36.67
 20
116.0
 30
0.0
  0
VERTEX
  5
352
  8
1
 10
24.44
 20
116.0
 30
0.0
  0
VERTEX
  5
353
  8
1
 10
24.44
 20
113.0
 30
0.0
  0
VERTEX
  5
354
  8
1
 10
12.22
 20
113.0
 30
0.0
  0
VERTEX
  5
355
  8
1
 10
12.22
 20
116.0
 30
0.0
  0
VERTEX
  5
356
  8
1
 10
0.0
 20
116.0
 30
0.0
  0
SEQEND
  5
3D7
  8
1
  0
POLYLINE
  5
106
  8
1
 66
     1
 10
0.0
 20
0.0
 30
0.0
  0
VERTEX
  5
357
  8
1
 10
316.0
 20
116.0
 30
0.0
  0
VERTEX
  5
358
  8
1
 10
316.0
 20
200.0
 30
0.0
  0
VERTEX
  5
359
  8
1
 10
303.78
 20
200.0
 30
0.0
  0
VERTEX
  5
35A
  8
1
 10
303.78
 20
203.0
 30
0.0
  0
VERTEX
  5
35B
  8
1
 10
291.56
 20
203.0
 30
0.0
  0
VERTEX
  5
35C
  8
1
 10
291.56
 20
200.0
 30
0.0
  0
VERTEX
  5
35D
  8
1
 10
279.33
 20
200.0
 30
0.0
  0
VERTEX
  5
35E
  8
1
 10
279.33
 20
203.0
 30
0.0
  0
VERTEX
  5
35F
  8
1
 10
267.11
 20
203.0
 30
0.0
  0
VERTEX
  5
360
  8
1
 10
267.11
 20
200.0
 30
0.0
  0
VERTEX
  5
361
  8
1
 10
254.89
 20
200.0
 30
0.0
  0
VERTEX
  5
362
  8
1
 10
254.89
 20
203.0
 30
0.0
  0
VERTEX
  5
363
  8
1
 10
242.67
 20
203.0
 30
0.0
  0
VERTEX
  5
364
  8
1
 10
242.67
 20
200.0
 30
0.0
  0
VERTEX
  5
365
  8
1
 10
230.44
 20
200.0
 30
0.0
  0
VERTEX
  5
366
  8
1
 10
230.44
 20
203.0
 30
0.0
  0
VERTEX
  5
367
  8
1
 10
218.22
 20
203.0
 30
0.0
  0
VERTEX
  5
368
  8
1
 10
218.22
 20
200.0
 30
0.0
  0
VERTEX
  5
369
  8
1
 10
206.0
 20
200.0
 30
0.0
  0
VERTEX
  5
36A
  8
1
 10
206.0
 20
188.0
 30
0.0
  0
VERTEX
  5
36B
  8
1
 10
209.0
 20
188.0
 30
0.0
  0
VERTEX
  5
36C
  8
1
 10
209.0
 20
176.0
 30
0.0
  0
VERTEX
  5
36D
  8
1
 10
206.0
 20
176.0
 30
0.0
  0
VERTEX
  5
36E
  8
1
 10
206.0
 20
164.0
 30
0.0
  0
VERTEX
  5
36F
  8
1
 10
209.0
 20
164.0
 30
0.0
  0
VERTEX
  5
370
  8
1
 10
209.0
 20
152.0
 30
0.0
  0
VERTEX
  5
371
  8
1
 10
206.0
 20
152.0
 30
0.0
  0
VERTEX
  5
372
  8
1
 10
206.0
 20
140.0
 30
0.0
  0
VERTEX
  5
373
  8
1
 10
209.0
 20
140.0
 30
0.0
  0
VERTEX
  5
374
  8
1
 10
209.0
 20
128.0
 30
0.0
  0
VERTEX
  5
375
  8
1
 10
206.0
 20
128.0
 30
0.0
  0
VERTEX
  5
376
  8
1
 10
206.0
 20
116.0
 30
0.0
  0
VERTEX
  5
377
  8
1
 10
218.22
 20
116.0
 30
0.0
  0
VERTEX
  5
378
  8
1
 10
218.22
 20
113.0
 30
0.0
  0
VERTEX
  5
379
  8
1
 10
230.44
 20
113.0
 30
0.0
  0
VERTEX
  5
37A
  8
1
 10
230.44
 20
116.0
 30
0.0
  0
VERTEX
  5
37B
  8
1
 10
242.67
 20
116.0
 30
0.0
  0
VERTEX
  5
37C
  8
1
 10
242.67
 20
113.0
 30
0.0
  0
VERTEX
  5
37D
  8
1
 10
254.89
 20
113.0
 30
0.0
  0
VERTEX
  5
37E
  8
1
 10
254.89
 20
116.0
 30
0.0
  0
VERTEX
  5
37F
  8
1
 10
267.11
 20
116.0
 30
0.0
  0
VERTEX
  5
380
  8
1
 10
267.11
 20
113.0
 30
0.0
  0
VERTEX
  5
381
  8
1
 10
279.33
 20
113.0
 30
0.0
  0
VERTEX
  5
382
  8
1
 10
279.33
 20
116.0
 30
0.0
  0
VERTEX
  5
383
  8
1
 10
291.56
 20
116.0
 30
0.0
  0
VERTEX
  5
384
  8
1
 10
291.56
 20
113.0
 30
0.0
  0
VERTEX
  5
385
  8
1
 10
303.78
 20
113.0
 30
0.0
  0
VERTEX
  5
386
  8
1
 10
303.78
 20
116.0
 30
0.0
  0
VERTEX
  5
387
  8
1
 10
316.0
 20
116.0
 30
0.0
  0
SEQEND
  5
3D8
  8
1
  0
POLYLINE
  5
185
  8
0
  6
BYBLOCK
 66
     1
 10
0.0
 20
0.0
 30
0.0
  0
VERTEX
  5
388
  8
0
  6
BYBLOCK
 10
125.0
 20
230.4380859375
 30
0.0
  0
VERTEX
  5
389
  8
0
  6
BYBLOCK
 10
125.0
 20
218.0
 30
0.0
  0
VERTEX
  5
38A
  8
0
  6
BYBLOCK
 10
141.3111328125
 20
218.0
 30
0.0
  0
SEQEND
  5
3D9
  8
0
  6
BYBLOCK
  0
LINE
  5
186
  8
0
  6
BYBLOCK
 10
125.0
 20
230.4380859375
 30
0.0
 11
141.3111328125
 21
218.0
 31
0.0
  0
LINE
  5
187
  8
0
  6
BYBLOCK
 10
125.0
 20
245.5289409821287
 30
0.0
 11
161.1010701166798
 21
217.9999999999999
 31
0.0
  0
LINE
  5
188
  8
0
  6
BYBLOCK
 10
125.0
 20
270.68036605651
 30
0.0
 11
191.0
 21
220.3519381470827
 31
0.0
  0
LINE
  5
189
  8
0
  6
BYBLOCK
 10
125.0
 20
280.7409360862625
 30
0.0
 11
191.0
 21
230.4125081768352
 31
0.0
  0
LINE
  5
18A
  8
0
  6
BYBLOCK
 10
125.0
 20
295.8317911308913
 30
0.0
 11
191.0
 21
245.503363221464
 31
0.0
  0
LINE
  5
18B
  8
0
  6
BYBLOCK
 10
125.8324546503306
 20
304.0
 30
0.0
 11
191.0
 21
254.3063619974974
 31
0.0
  0
LINE
  5
18C
  8
0
  6
BYBLOCK
 10
148.9207148385404
 20
304.0
 30
0.0
 11
191.0
 21
271.9123595495643
 31
0.0
  0
LINE
  5
194
  8
0
  6
BYBLOCK
 10
162.1140063746602
 20
304.0
 30
0.0
 11
191.0
 21
281.9729295793168
 31
0.0
  0
POLYLINE
  5
195
  8
0
  6
BYBLOCK
 66
     1
 10
0.0
 20
0.0
 30
0.0
  0
VERTEX
  5
38B
  8
0
  6
BYBLOCK
 10
161.1010701166799
 20
217.9999999999999
 30
0.0
  0
VERTEX
  5
38C
  8
0
  6
BYBLOCK
 10
191.0
 20
217.9999999999999
 30
0.0
  0
VERTEX
  5
38D
  8
0
  6
BYBLOCK
 10
191.0
 20
220.3519381470827
 30
0.0
  0
SEQEND
  5
3DA
  8
0
  6
BYBLOCK
  0
POLYLINE
  5
196
  8
0
  6
BYBLOCK
 66
     1
 10
0.0
 20
0.0
 30
0.0
  0
VERTEX
  5
38E
  8
0
  6
BYBLOCK
 10
125.0
 20
270.68036605651
 30
0.0
  0
VERTEX
  5
38F
  8
0
  6
BYBLOCK
 10
125.0
 20
245.5289409821287
 30
0.0
  0
SEQEND
  5
3DB
  8
0
  6
BYBLOCK
  0
POLYLINE
  5
197
  8
0
  6
BYBLOCK
 66
     1
 10
0.0
 20
0.0
 30
0.0
  0
VERTEX
  5
390
  8
0
  6
BYBLOCK
 10
191.0
 20
230.4125081768352
 30
0.0
  0
VERTEX
  5
391
  8
0
  6
BYBLOCK
 10
191.0
 20
245.503363221464
 30
0.0
  0
SEQEND
  5
3DC
  8
0
  6
BYBLOCK
  0
POLYLINE
  5
198
  8
0
  6
BYBLOCK
 66
     1
 10
0.0
 20
0.0
 30
0.0
  0
VERTEX
  5
392
  8
0
  6
BYBLOCK
 10
191.0
 20
254.3063619974974
 30
0.0
  0
VERTEX
  5
393
  8
0
  6
BYBLOCK
 10
191.0
 20
271.9123595495643
 30
0.0
  0
SEQEND
  5
3DD
  8
0
  6
BYBLOCK
  0
POLYLINE
  5
199
  8
0
  6
BYBLOCK
 66
     1
 10
0.0
 20
0.0
 30
0.0
  0
VERTEX
  5
394
  8
0
  6
BYBLOCK
 10
125.0
 20
295.8317911308913
 30
0.0
  0
VERTEX
  5
395
  8
0
  6
BYBLOCK
 10
125.0
 20
280.7409360862625
 30
0.0
  0
SEQEND
  5
3DE
  8
0
  6
BYBLOCK
  0
POLYLINE
  5
19A
  8
0
  6
BYBLOCK
 66
     1
 10
0.0
 20
0.0
 30
0.0
  0
VERTEX
  5
396
  8
0
  6
BYBLOCK
 10
148.9207148385404
 20
304.0
 30
0.0
  0
VERTEX
  5
397
  8
0
  6
BYBLOCK
 10
125.0
 20
304.0
 30
0.0
  0
SEQEND
  5
3DF
  8
0
  6
BYBLOCK
  0
POLYLINE
  5
19B
  8
0
  6
BYBLOCK
 66
     1
 10
0.0
 20
0.0
 30
0.0
  0
VERTEX
  5
398
  8
0
  6
BYBLOCK
 10
191.0
 20
281.9729295793168
 30
0.0
  0
VERTEX
  5
399
  8
0
  6
BYBLOCK
 10
191.0
 20
304.0
 30
0.0
  0
VERTEX
  5
39A
  8
0
  6
BYBLOCK
 10
162.1140063746602
 20
304.0
 30
0.0
  0
SEQEND
  5
3E0
  8
0
  6
BYBLOCK
  0
LINE
  5
24B
  8
0
  6
BYBLOCK
 10
85.56191406250002
 20
125.0
 30
0.0
 11
98.00000000000003
 21
141.3111328125
 31
0.0
  0
LINE
  5
24C
  8
0
  6
BYBLOCK
 10
70.47105901787126
 20
125.0
 30
0.0
 11
98.00000000000006
 21
161.1010701166798
 31
0.0
  0
LINE
  5
24D
  8
0
  6
BYBLOCK
 10
45.31963394348998
 20
125.0
 30
0.0
 11
95.6480618529173
 21
191.0
 31
0.0
  0
LINE
  5
24E
  8
0
  6
BYBLOCK
 10
35.25906391373746
 20
125.0
 30
0.0
 11
85.58749182316478
 21
191.0
 31
0.0
  0
LINE
  5
24F
  8
0
  6
BYBLOCK
 10
20.1682088691087
 20
125.0
 30
0.0
 11
70.49663677853601
 21
191.0
 31
0.0
  0
LINE
  5
250
  8
0
  6
BYBLOCK
 10
12.0
 20
125.8324546503306
 30
0.0
 11
61.69363800250255
 21
191.0
 31
0.0
  0
LINE
  5
251
  8
0
  6
BYBLOCK
 10
12.0
 20
148.9207148385404
 30
0.0
 11
44.08764045043569
 21
191.0
 31
0.0
  0
LINE
  5
252
  8
0
  6
BYBLOCK
 10
12.0
 20
162.1140063746602
 30
0.0
 11
34.02707042068317
 21
191.0
 31
0.0
  0
POLYLINE
  5
253
  8
0
  6
BYBLOCK
 66
     1
 10
0.0
 20
0.0
 30
0.0
  0
VERTEX
  5
39B
  8
0
  6
BYBLOCK
 10
85.56191406250002
 20
125.0
 30
0.0
  0
VERTEX
  5
39C
  8
0
  6
BYBLOCK
 10
98.00000000000003
 20
125.0
 30
0.0
  0
VERTEX
  5
39D
  8
0
  6
BYBLOCK
 10
98.00000000000003
 20
141.3111328125
 30
0.0
  0
SEQEND
  5
3E1
  8
0
  6
BYBLOCK
  0
POLYLINE
  5
254
  8
0
  6
BYBLOCK
 66
     1
 10
0.0
 20
0.0
 30
0.0
  0
VERTEX
  5
39E
  8
0
  6
BYBLOCK
 10
45.31963394348998
 20
125.0
 30
0.0
  0
VERTEX
  5
39F
  8
0
  6
BYBLOCK
 10
70.47105901787126
 20
125.0
 30
0.0
  0
SEQEND
  5
3E2
  8
0
  6
BYBLOCK
  0
POLYLINE
  5
255
  8
0
  6
BYBLOCK
 66
     1
 10
0.0
 20
0.0
 30
0.0
  0
VERTEX
  5
3A0
  8
0
  6
BYBLOCK
 10
98.00000000000006
 20
161.1010701166799
 30
0.0
  0
VERTEX
  5
3A1
  8
0
  6
BYBLOCK
 10
98.00000000000006
 20
191.0
 30
0.0
  0
VERTEX
  5
3A2
  8
0
  6
BYBLOCK
 10
95.6480618529173
 20
191.0
 30
0.0
  0
SEQEND
  5
3E3
  8
0
  6
BYBLOCK
  0
POLYLINE
  5
256
  8
0
  6
BYBLOCK
 66
     1
 10
0.0
 20
0.0
 30
0.0
  0
VERTEX
  5
3A3
  8
0
  6
BYBLOCK
 10
85.58749182316481
 20
191.0
 30
0.0
  0
VERTEX
  5
3A4
  8
0
  6
BYBLOCK
 10
70.49663677853601
 20
191.0
 30
0.0
  0
SEQEND
  5
3E4
  8
0
  6
BYBLOCK
  0
POLYLINE
  5
257
  8
0
  6
BYBLOCK
 66
     1
 10
0.0
 20
0.0
 30
0.0
  0
VERTEX
  5
3A5
  8
0
  6
BYBLOCK
 10
20.1682088691087
 20
125.0
 30
0.0
  0
VERTEX
  5
3A6
  8
0
  6
BYBLOCK
 10
35.25906391373746
 20
125.0
 30
0.0
  0
SEQEND
  5
3E5
  8
0
  6
BYBLOCK
  0
POLYLINE
  5
258
  8
0
  6
BYBLOCK
 66
     1
 10
0.0
 20
0.0
 30
0.0
  0
VERTEX
  5
3A7
  8
0
  6
BYBLOCK
 10
12.0
 20
148.9207148385404
 30
0.0
  0
VERTEX
  5
3A8
  8
0
  6
BYBLOCK
 10
12.0
 20
125.0
 30
0.0
  0
SEQEND
  5
3E6
  8
0
  6
BYBLOCK
  0
POLYLINE
  5
259
  8
0
  6
BYBLOCK
 66
     1
 10
0.0
 20
0.0
 30
0.0
  0
VERTEX
  5
3A9
  8
0
  6
BYBLOCK
 10
34.02707042068317
 20
191.0
 30
0.0
  0
VERTEX
  5
3AA
  8
0
  6
BYBLOCK
 10
12.0
 20
191.0
 30
0.0
  0
VERTEX
  5
3AB
  8
0
  6
BYBLOCK
 10
12.0
 20
162.1140063746602
 30
0.0
  0
SEQEND
  5
3E7
  8
0
  6
BYBLOCK
  0
POLYLINE
  5
25A
  8
0
  6
BYBLOCK
 66
     1
 10
0.0
 20
0.0
 30
0.0
  0
VERTEX
  5
3AC
  8
0
  6
BYBLOCK
 10
61.69363800250255
 20
191.0
 30
0.0
  0
VERTEX
  5
3AD
  8
0
  6
BYBLOCK
 10
44.08764045043569
 20
191.0
 30
0.0
  0
SEQEND
  5
3E8
  8
0
  6
BYBLOCK
  0
LINE
  5
25B
  8
0
  6
BYBLOCK
 10
191.0
 20
85.56191406250005
 30
0.0
 11
174.6888671875
 21
98.00000000000006
 31
0.0
  0
LINE
  5
25C
  8
0
  6
BYBLOCK
 10
191.0
 20
70.47105901787128
 30
0.0
 11
154.8989298833201
 21
98.00000000000009
 31
0.0
  0
LINE
  5
25D
  8
0
  6
BYBLOCK
 10
190.9999999999999
 20
45.31963394348998
 30
0.0
 11
125.0
 21
95.64806185291732
 31
0.0
  0
LINE
  5
25E
  8
0
  6
BYBLOCK
 10
191.0
 20
35.25906391373746
 30
0.0
 11
125.0
 21
85.58749182316481
 31
0.0
  0
LINE
  5
25F
  8
0
  6
BYBLOCK
 10
191.0
 20
20.1682088691087
 30
0.0
 11
125.0
 21
70.49663677853604
 31
0.0
  0
LINE
  5
260
  8
0
  6
BYBLOCK
 10
190.1675453496694
 20
12.0
 30
0.0
 11
125.0
 21
61.69363800250258
 31
0.0
  0
LINE
  5
261
  8
0
  6
BYBLOCK
 10
167.0792851614596
 20
12.0
 30
0.0
 11
125.0
 21
44.08764045043569
 31
0.0
  0
LINE
  5
262
  8
0
  6
BYBLOCK
 10
153.8859936253398
 20
12.0
 30
0.0
 11
125.0
 21
34.02707042068317
 31
0.0
  0
POLYLINE
  5
263
  8
0
  6
BYBLOCK
 66
     1
 10
0.0
 20
0.0
 30
0.0
  0
VERTEX
  5
3AE
  8
0
  6
BYBLOCK
 10
191.0
 20
85.56191406250005
 30
0.0
  0
VERTEX
  5
3AF
  8
0
  6
BYBLOCK
 10
191.0
 20
98.00000000000006
 30
0.0
  0
VERTEX
  5
3B0
  8
0
  6
BYBLOCK
 10
174.6888671875
 20
98.00000000000006
 30
0.0
  0
SEQEND
  5
3E9
  8
0
  6
BYBLOCK
  0
POLYLINE
  5
264
  8
0
  6
BYBLOCK
 66
     1
 10
0.0
 20
0.0
 30
0.0
  0
VERTEX
  5
3B1
  8
0
  6
BYBLOCK
 10
191.0
 20
45.31963394348998
 30
0.0
  0
VERTEX
  5
3B2
  8
0
  6
BYBLOCK
 10
191.0
 20
70.47105901787128
 30
0.0
  0
SEQEND
  5
3EA
  8
0
  6
BYBLOCK
  0
POLYLINE
  5
265
  8
0
  6
BYBLOCK
 66
     1
 10
0.0
 20
0.0
 30
0.0
  0
VERTEX
  5
3B3
  8
0
  6
BYBLOCK
 10
154.8989298833201
 20
98.00000000000009
 30
0.0
  0
VERTEX
  5
3B4
  8
0
  6
BYBLOCK
 10
125.0
 20
98.00000000000009
 30
0.0
  0
VERTEX
  5
3B5
  8
0
  6
BYBLOCK
 10
125.0
 20
95.64806185291732
 30
0.0
  0
SEQEND
  5
3EB
  8
0
  6
BYBLOCK
  0
POLYLINE
  5
266
  8
0
  6
BYBLOCK
 66
     1
 10
0.0
 20
0.0
 30
0.0
  0
VERTEX
  5
3B6
  8
0
  6
BYBLOCK
 10
125.0
 20
85.58749182316484
 30
0.0
  0
VERTEX
  5
3B7
  8
0
  6
BYBLOCK
 10
125.0
 20
70.49663677853604
 30
0.0
  0
SEQEND
  5
3EC
  8
0
  6
BYBLOCK
  0
POLYLINE
  5
267
  8
0
  6
BYBLOCK
 66
     1
 10
0.0
 20
0.0
 30
0.0
  0
VERTEX
  5
3B8
  8
0
  6
BYBLOCK
 10
190.9999999999999
 20
20.1682088691087
 30
0.0
  0
VERTEX
  5
3B9
  8
0
  6
BYBLOCK
 10
191.0
 20
35.25906391373746
 30
0.0
  0
SEQEND
  5
3ED
  8
0
  6
BYBLOCK
  0
POLYLINE
  5
268
  8
0
  6
BYBLOCK
 66
     1
 10
0.0
 20
0.0
 30
0.0
  0
VERTEX
  5
3BA
  8
0
  6
BYBLOCK
 10
167.0792851614596
 20
12.0
 30
0.0
  0
VERTEX
  5
3BB
  8
0
  6
BYBLOCK
 10
190.9999999999999
 20
12.0
 30
0.0
  0
SEQEND
  5
3EE
  8
0
  6
BYBLOCK
  0
POLYLINE
  5
269
  8
0
  6
BYBLOCK
 66
     1
 10
0.0
 20
0.0
 30
0.0
  0
VERTEX
  5
3BC
  8
0
  6
BYBLOCK
 10
125.0
 20
34.02707042068317
 30
0.0
  0
VERTEX
  5
3BD
  8
0
  6
BYBLOCK
 10
125.0
 20
12.0
 30
0.0
  0
VERTEX
  5
3BE
  8
0
  6
BYBLOCK
 10
153.8859936253398
 20
12.0
 30
0.0
  0
SEQEND
  5
3EF
  8
0
  6
BYBLOCK
  0
POLYLINE
  5
26A
  8
0
  6
BYBLOCK
 66
     1
 10
0.0
 20
0.0
 30
0.0
  0
VERTEX
  5
3BF
  8
0
  6
BYBLOCK
 10
125.0
 20
61.69363800250258
 30
0.0
  0
VERTEX
  5
3C0
  8
0
  6
BYBLOCK
 10
125.0
 20
44.08764045043569
 30
0.0
  0
SEQEND
  5
3F0
  8
0
  6
BYBLOCK
  0
LINE
  5
26B
  8
0
  6
BYBLOCK
 10
230.4380859375
 20
190.9999999999999
 30
0.0
 11
218.0
 21
174.6888671875
 31
0.0
  0
LINE
  5
26C
  8
0
  6
BYBLOCK
 10
245.5289409821287
 20
190.9999999999999
 30
0.0
 11
217.9999999999999
 21
154.8989298833201
 31
0.0
  0
LINE
  5
26D
  8
0
  6
BYBLOCK
 10
270.68036605651
 20
190.9999999999999
 30
0.0
 11
220.3519381470827
 21
125.0
 31
0.0
  0
LINE
  5
26E
  8
0
  6
BYBLOCK
 10
280.7409360862625
 20
190.9999999999999
 30
0.0
 11
230.4125081768352
 21
125.0
 31
0.0
  0
LINE
  5
26F
  8
0
  6
BYBLOCK
 10
295.8317911308914
 20
190.9999999999999
 30
0.0
 11
245.503363221464
 21
124.9999999999999
 31
0.0
  0
LINE
  5
270
  8
0
  6
BYBLOCK
 10
304.0
 20
190.1675453496694
 30
0.0
 11
254.3063619974974
 21
124.9999999999999
 31
0.0
  0
LINE
  5
271
  8
0
  6
BYBLOCK
 10
304.0
 20
167.0792851614596
 30
0.0
 11
271.9123595495643
 21
124.9999999999999
 31
0.0
  0
LINE
  5
272
  8
0
  6
BYBLOCK
 10
304.0
 20
153.8859936253398
 30
0.0
 11
281.9729295793168
 21
124.9999999999999
 31
0.0
  0
POLYLINE
  5
273
  8
0
  6
BYBLOCK
 66
     1
 10
0.0
 20
0.0
 30
0.0
  0
VERTEX
  5
3C1
  8
0
  6
BYBLOCK
 10
230.4380859375
 20
190.9999999999999
 30
0.0
  0
VERTEX
  5
3C2
  8
0
  6
BYBLOCK
 10
218.0
 20
190.9999999999999
 30
0.0
  0
VERTEX
  5
3C3
  8
0
  6
BYBLOCK
 10
218.0
 20
174.6888671875
 30
0.0
  0
SEQEND
  5
3F1
  8
0
  6
BYBLOCK
  0
POLYLINE
  5
274
  8
0
  6
BYBLOCK
 66
     1
 10
0.0
 20
0.0
 30
0.0
  0
VERTEX
  5
3C4
  8
0
  6
BYBLOCK
 10
270.68036605651
 20
190.9999999999999
 30
0.0
  0
VERTEX
  5
3C5
  8
0
  6
BYBLOCK
 10
245.5289409821287
 20
190.9999999999999
 30
0.0
  0
SEQEND
  5
3F2
  8
0
  6
BYBLOCK
  0
POLYLINE
  5
275
  8
0
  6
BYBLOCK
 66
     1
 10
0.0
 20
0.0
 30
0.0
  0
VERTEX
  5
3C6
  8
0
  6
BYBLOCK
 10
217.9999999999999
 20
154.8989298833201
 30
0.0
  0
VERTEX
  5
3C7
  8
0
  6
BYBLOCK
 10
217.9999999999999
 20
125.0
 30
0.0
  0
VERTEX
  5
3C8
  8
0
  6
BYBLOCK
 10
220.3519381470827
 20
125.0
 30
0.0
  0
SEQEND
  5
3F3
  8
0
  6
BYBLOCK
  0
POLYLINE
  5
276
  8
0
  6
BYBLOCK
 66
     1
 10
0.0
 20
0.0
 30
0.0
  0
VERTEX
  5
3C9
  8
0
  6
BYBLOCK
 10
230.4125081768352
 20
125.0
 30
0.0
  0
VERTEX
  5
3CA
  8
0
  6
BYBLOCK
 10
245.503363221464
 20
124.9999999999999
 30
0.0
  0
SEQEND
  5
3F4
  8
0
  6
BYBLOCK
  0
POLYLINE
  5
277
  8
0
  6
BYBLOCK
 66
     1
 10
0.0
 20
0.0
 30
0.0
  0
VERTEX
  5
3CB
  8
0
  6
BYBLOCK
 10
295.8317911308914
 20
190.9999999999999
 30
0.0
  0
VERTEX
  5
3CC
  8
0
  6
BYBLOCK
 10
280.7409360862625
 20
190.9999999999999
 30
0.0
  0
SEQEND
  5
3F5
  8
0
  6
BYBLOCK
  0
POLYLINE
  5
278
  8
0
  6
BYBLOCK
 66
     1
 10
0.0
 20
0.0
 30
0.0
  0
VERTEX
  5
3CD
  8
0
  6
BYBLOCK
 10
304.0
 20
167.0792851614596
 30
0.0
  0
VERTEX
  5
3CE
  8
0
  6
BYBLOCK
 10
304.0
 20
190.9999999999999
 30
0.0
  0
SEQEND
  5
3F6
  8
0
  6
BYBLOCK
  0
POLYLINE
  5
279
  8
0
  6
BYBLOCK
 66
     1
 10
0.0
 20
0.0
 30
0.0
  0
VERTEX
  5
3CF
  8
0
  6
BYBLOCK
 10
281.9729295793168
 20
124.9999999999999
 30
0.0
  0
VERTEX
  5
3D0
  8
0
  6
BYBLOCK
 10
304.0
 20
124.9999999999999
 30
0.0
  0
VERTEX
  5
3D1
  8
0
  6
BYBLOCK
 10
304.0
 20
153.8859936253398
 30
0.0
  0
SEQEND
  5
3F7
  8
0
  6
BYBLOCK
  0
POLYLINE
  5
27A
  8
0
  6
BYBLOCK
 66
     1
 10
0.0
 20
0.0
 30
0.0
  0
VERTEX
  5
3D2
  8
0
  6
BYBLOCK
 10
254.3063619974974
 20
124.9999999999999
 30
0.0
  0
VERTEX
  5
3D3
  8
0
  6
BYBLOCK
 10
271.9123595495643
 20
124.9999999999999
 30
0.0
  0
SEQEND
  5
3F8
  8
0
  6
BYBLOCK
  0
ENDSEC
  0
EOF
