 0
SECTION
 2
ENTITIES
  0
POLYLINE
 8
Layer0
 66
     1
70
    8
 10
0.0
 20
 0.0
 30
0.0
  0
VERTEX
  8
MY3DLAYER
10
92.99999999999997
20
150.0
30
0.0
 70
     32
  0
VERTEX
  8
MY3DLAYER
10
94.99999999999996
20
150.0
30
0.0
 70
     32
  0
VERTEX
  8
MY3DLAYER
10
166.0
20
150.0
30
0.0
 70
     32
  0
VERTEX
  8
MY3DLAYER
10
166.51763809020503
20
149.93185165257813
30
0.0
 70
     32
  0
VERTEX
  8
MY3DLAYER
10
166.76536686473017
20
149.8477590650226
30
0.0
 70
     32
  0
VERTEX
  8
MY3DLAYER
10
167.0
20
149.73205080756887
30
0.0
 70
     32
  0
VERTEX
  8
MY3DLAYER
10
167.21752285801745
20
149.58670668058247
30
0.0
 70
     32
  0
VERTEX
  8
MY3DLAYER
10
167.41421356237308
20
149.4142135623731
30
0.0
 70
     32
  0
VERTEX
  8
MY3DLAYER
10
167.58670668058244
20
149.21752285801745
30
0.0
 70
     32
  0
VERTEX
  8
MY3DLAYER
10
167.73205080756887
20
149.0
30
0.0
 70
     32
  0
VERTEX
  8
MY3DLAYER
10
167.84775906502256
20
148.76536686473017
30
0.0
 70
     32
  0
VERTEX
  8
MY3DLAYER
10
167.93185165257813
20
148.51763809020505
30
0.0
 70
     32
  0
VERTEX
  8
MY3DLAYER
10
167.99999999999997
20
148.0
30
0.0
 70
     32
  0
VERTEX
  8
MY3DLAYER
10
167.99999999999997
20
1.9999999999999996
30
0.0
 70
     32
  0
VERTEX
  8
MY3DLAYER
10
167.93185165257813
20
1.482361909794959
30
0.0
 70
     32
  0
VERTEX
  8
MY3DLAYER
10
167.84775906502256
20
1.2346331352698212
30
0.0
 70
     32
  0
VERTEX
  8
MY3DLAYER
10
167.73205080756887
20
1.0000000000000016
30
0.0
 70
     32
  0
VERTEX
  8
MY3DLAYER
10
167.58670668058244
20
0.7824771419825606
30
0.0
 70
     32
  0
VERTEX
  8
MY3DLAYER
10
167.41421356237308
20
0.5857864376269071
30
0.0
 70
     32
  0
VERTEX
  8
MY3DLAYER
10
167.21752285801745
20
0.4132933194175322
30
0.0
 70
     32
  0
VERTEX
  8
MY3DLAYER
10
167.0
20
0.2679491924311254
30
0.0
 70
     32
  0
VERTEX
  8
MY3DLAYER
10
166.76536686473017
20
0.15224093497742935
30
0.0
 70
     32
  0
VERTEX
  8
MY3DLAYER
10
166.51763809020503
20
0.06814834742186633
30
0.0
 70
     32
  0
VERTEX
  8
MY3DLAYER
10
166.0
20
3.1724622928663847e-15
30
0.0
 70
     32
  0
VERTEX
  8
MY3DLAYER
10
94.99999999999994
20
0.0
30
0.0
 70
     32
  0
VERTEX
  8
MY3DLAYER
10
92.99999999999996
20
0.0
30
0.0
 70
     32
  0
VERTEX
  8
MY3DLAYER
10
90.99999999999996
20
0.0
30
0.0
 70
     32
  0
VERTEX
  8
MY3DLAYER
10
88.99999999999996
20
0.0
30
0.0
 70
     32
  0
VERTEX
  8
MY3DLAYER
10
86.99999999999997
20
0.0
30
0.0
 70
     32
  0
VERTEX
  8
MY3DLAYER
10
84.99999999999997
20
0.0
30
0.0
 70
     32
  0
VERTEX
  8
MY3DLAYER
10
82.99999999999997
20
0.0
30
0.0
 70
     32
  0
VERTEX
  8
MY3DLAYER
10
80.99999999999997
20
0.0
30
0.0
 70
     32
  0
VERTEX
  8
MY3DLAYER
10
78.99999999999999
20
0.0
30
0.0
 70
     32
  0
VERTEX
  8
MY3DLAYER
10
76.99999999999999
20
0.0
30
0.0
 70
     32
  0
VERTEX
  8
MY3DLAYER
10
74.99999999999999
20
0.0
30
0.0
 70
     32
  0
VERTEX
  8
MY3DLAYER
10
72.99999999999999
20
0.0
30
0.0
 70
     32
  0
VERTEX
  8
MY3DLAYER
10
71.0
20
0.0
30
0.0
 70
     32
  0
VERTEX
  8
MY3DLAYER
10
-1.762479051592436e-15
20
0.0
30
0.0
 70
     32
  0
VERTEX
  8
MY3DLAYER
10
-0.517638090205043
20
0.06814834742186315
30
0.0
 70
     32
  0
VERTEX
  8
MY3DLAYER
10
-0.765366864730181
20
0.15224093497742652
30
0.0
 70
     32
  0
VERTEX
  8
MY3DLAYER
10
-1.000000000000001
20
0.2679491924311226
30
0.0
 70
     32
  0
VERTEX
  8
MY3DLAYER
10
-1.2175228580174422
20
0.41329331941752945
30
0.0
 70
     32
  0
VERTEX
  8
MY3DLAYER
10
-1.4142135623730956
20
0.5857864376269044
30
0.0
 70
     32
  0
VERTEX
  8
MY3DLAYER
10
-1.586706680582471
20
0.7824771419825581
30
0.0
 70
     32
  0
VERTEX
  8
MY3DLAYER
10
-1.7320508075688776
20
0.999999999999999
30
0.0
 70
     32
  0
VERTEX
  8
MY3DLAYER
10
-1.8477590650225733
20
1.2346331352698192
30
0.0
 70
     32
  0
VERTEX
  8
MY3DLAYER
10
-1.9318516525781366
20
1.4823619097949567
30
0.0
 70
     32
  0
VERTEX
  8
MY3DLAYER
10
-1.9999999999999998
20
1.9999999999999978
30
0.0
 70
     32
  0
VERTEX
  8
MY3DLAYER
10
-1.999999999999998
20
148.0
30
0.0
 70
     32
  0
VERTEX
  8
MY3DLAYER
10
-1.9318516525781348
20
148.51763809020505
30
0.0
 70
     32
  0
VERTEX
  8
MY3DLAYER
10
-1.847759065022572
20
148.76536686473017
30
0.0
 70
     32
  0
VERTEX
  8
MY3DLAYER
10
-1.7320508075688759
20
149.0
30
0.0
 70
     32
  0
VERTEX
  8
MY3DLAYER
10
-1.586706680582469
20
149.21752285801745
30
0.0
 70
     32
  0
VERTEX
  8
MY3DLAYER
10
-1.4142135623730943
20
149.4142135623731
30
0.0
 70
     32
  0
VERTEX
  8
MY3DLAYER
10
-1.2175228580174406
20
149.58670668058247
30
0.0
 70
     32
  0
VERTEX
  8
MY3DLAYER
10
-0.9999999999999998
20
149.73205080756887
30
0.0
 70
     32
  0
VERTEX
  8
MY3DLAYER
10
-0.76536686473018
20
149.8477590650226
30
0.0
 70
     32
  0
VERTEX
  8
MY3DLAYER
10
-0.5176380902050424
20
149.93185165257813
30
0.0
 70
     32
  0
VERTEX
  8
MY3DLAYER
10
-1.762479051592436e-15
20
150.0
30
0.0
 70
     32
  0
VERTEX
  8
MY3DLAYER
10
71.0
20
150.0
30
0.0
 70
     32
  0
VERTEX
  8
MY3DLAYER
10
73.0
20
150.0
30
0.0
 70
     32
  0
VERTEX
  8
MY3DLAYER
10
75.0
20
150.0
30
0.0
 70
     32
  0
VERTEX
  8
MY3DLAYER
10
77.0
20
150.0
30
0.0
 70
     32
  0
VERTEX
  8
MY3DLAYER
10
78.99999999999999
20
150.0
30
0.0
 70
     32
  0
VERTEX
  8
MY3DLAYER
10
80.99999999999999
20
150.0
30
0.0
 70
     32
  0
VERTEX
  8
MY3DLAYER
10
82.99999999999999
20
150.0
30
0.0
 70
     32
  0
VERTEX
  8
MY3DLAYER
10
84.99999999999999
20
150.0
30
0.0
 70
     32
  0
VERTEX
  8
MY3DLAYER
10
86.99999999999997
20
150.0
30
0.0
 70
     32
  0
VERTEX
  8
MY3DLAYER
10
88.99999999999997
20
150.0
30
0.0
 70
     32
  0
VERTEX
  8
MY3DLAYER
10
90.99999999999997
20
150.0
30
0.0
 70
     32
  0
VERTEX
  8
MY3DLAYER
10
92.99999999999997
20
150.0
30
0.0
 70
     32
  0
SEQEND
  0
POLYLINE
 8
Layer0
 66
     1
70
    8
 10
0.0
 20
 0.0
 30
0.0
  0
VERTEX
  8
MY3DLAYER
10
11.605331531859633
20
76.43349219180817
30
0.0
 70
     32
  0
VERTEX
  8
MY3DLAYER
10
11.281838627266495
20
76.02368036869255
30
0.0
 70
     32
  0
VERTEX
  8
MY3DLAYER
10
11.075435580829225
20
75.54410642016232
30
0.0
 70
     32
  0
VERTEX
  8
MY3DLAYER
10
11.000188419065363
20
75.02745251827642
30
0.0
 70
     32
  0
VERTEX
  8
MY3DLAYER
10
11.0612251116973
20
74.5089277726374
30
0.0
 70
     32
  0
VERTEX
  8
MY3DLAYER
10
11.254386108990076
20
74.02386878775792
30
0.0
 70
     32
  0
VERTEX
  8
MY3DLAYER
10
11.566507808191822
20
73.60533153185963
30
0.0
 70
     32
  0
VERTEX
  8
MY3DLAYER
10
11.976319631307444
20
73.2818386272665
30
0.0
 70
     32
  0
VERTEX
  8
MY3DLAYER
10
12.455893579837667
20
73.07543558082922
30
0.0
 70
     32
  0
VERTEX
  8
MY3DLAYER
10
12.972547481723579
20
73.00018841906537
30
0.0
 70
     32
  0
VERTEX
  8
MY3DLAYER
10
13.491072227362595
20
73.06122511169731
30
0.0
 70
     32
  0
VERTEX
  8
MY3DLAYER
10
13.976131212242079
20
73.25438610899008
30
0.0
 70
     32
  0
VERTEX
  8
MY3DLAYER
10
14.394668468140365
20
73.56650780819182
30
0.0
 70
     32
  0
VERTEX
  8
MY3DLAYER
10
14.718161372733501
20
73.97631963130745
30
0.0
 70
     32
  0
VERTEX
  8
MY3DLAYER
10
14.924564419170771
20
74.45589357983766
30
0.0
 70
     32
  0
VERTEX
  8
MY3DLAYER
10
14.999811580934635
20
74.97254748172358
30
0.0
 70
     32
  0
VERTEX
  8
MY3DLAYER
10
14.938774888302698
20
75.49107222736261
30
0.0
 70
     32
  0
VERTEX
  8
MY3DLAYER
10
14.745613891009922
20
75.97613121224208
30
0.0
 70
     32
  0
VERTEX
  8
MY3DLAYER
10
14.433492191808174
20
76.39466846814037
30
0.0
 70
     32
  0
VERTEX
  8
MY3DLAYER
10
14.023680368692554
20
76.7181613727335
30
0.0
 70
     32
  0
VERTEX
  8
MY3DLAYER
10
13.54410642016233
20
76.92456441917076
30
0.0
 70
     32
  0
VERTEX
  8
MY3DLAYER
10
13.02745251827642
20
76.99981158093463
30
0.0
 70
     32
  0
VERTEX
  8
MY3DLAYER
10
12.508927772637401
20
76.93877488830269
30
0.0
 70
     32
  0
VERTEX
  8
MY3DLAYER
10
12.023868787757918
20
76.74561389100992
30
0.0
 70
     32
  0
VERTEX
  8
MY3DLAYER
10
11.605331531859633
20
76.43349219180817
30
0.0
 70
     32
  0
SEQEND
  0
POLYLINE
 8
Layer0
 66
     1
70
    8
 10
0.0
 20
 0.0
 30
0.0
  0
VERTEX
  8
MY3DLAYER
10
153.0
20
77.0
30
0.0
 70
     32
  0
VERTEX
  8
MY3DLAYER
10
152.48236190979495
20
76.93185165257813
30
0.0
 70
     32
  0
VERTEX
  8
MY3DLAYER
10
152.0
20
76.73205080756888
30
0.0
 70
     32
  0
VERTEX
  8
MY3DLAYER
10
151.5857864376269
20
76.41421356237309
30
0.0
 70
     32
  0
VERTEX
  8
MY3DLAYER
10
151.26794919243113
20
76.0
30
0.0
 70
     32
  0
VERTEX
  8
MY3DLAYER
10
151.06814834742184
20
75.51763809020504
30
0.0
 70
     32
  0
VERTEX
  8
MY3DLAYER
10
151.0
20
75.0
30
0.0
 70
     32
  0
VERTEX
  8
MY3DLAYER
10
151.06814834742184
20
74.48236190979495
30
0.0
 70
     32
  0
VERTEX
  8
MY3DLAYER
10
151.26794919243113
20
74.0
30
0.0
 70
     32
  0
VERTEX
  8
MY3DLAYER
10
151.5857864376269
20
73.5857864376269
30
0.0
 70
     32
  0
VERTEX
  8
MY3DLAYER
10
152.0
20
73.26794919243112
30
0.0
 70
     32
  0
VERTEX
  8
MY3DLAYER
10
152.48236190979495
20
73.06814834742187
30
0.0
 70
     32
  0
VERTEX
  8
MY3DLAYER
10
153.0
20
73.0
30
0.0
 70
     32
  0
VERTEX
  8
MY3DLAYER
10
153.51763809020503
20
73.06814834742187
30
0.0
 70
     32
  0
VERTEX
  8
MY3DLAYER
10
154.0
20
73.26794919243112
30
0.0
 70
     32
  0
VERTEX
  8
MY3DLAYER
10
154.41421356237308
20
73.5857864376269
30
0.0
 70
     32
  0
VERTEX
  8
MY3DLAYER
10
154.73205080756887
20
74.0
30
0.0
 70
     32
  0
VERTEX
  8
MY3DLAYER
10
154.93185165257813
20
74.48236190979495
30
0.0
 70
     32
  0
VERTEX
  8
MY3DLAYER
10
155.0
20
75.0
30
0.0
 70
     32
  0
VERTEX
  8
MY3DLAYER
10
154.93185165257813
20
75.51763809020504
30
0.0
 70
     32
  0
VERTEX
  8
MY3DLAYER
10
154.73205080756887
20
76.0
30
0.0
 70
     32
  0
VERTEX
  8
MY3DLAYER
10
154.41421356237308
20
76.41421356237309
30
0.0
 70
     32
  0
VERTEX
  8
MY3DLAYER
10
154.0
20
76.73205080756888
30
0.0
 70
     32
  0
VERTEX
  8
MY3DLAYER
10
153.51763809020503
20
76.93185165257813
30
0.0
 70
     32
  0
VERTEX
  8
MY3DLAYER
10
153.0
20
77.0
30
0.0
 70
     32
  0
SEQEND
  0
POLYLINE
 8
Layer0
 66
     1
70
    8
 10
0.0
 20
 0.0
 30
0.0
  0
VERTEX
  8
MY3DLAYER
10
19.999999999999993
20
127.0
30
0.0
 70
     32
  0
VERTEX
  8
MY3DLAYER
10
41.00000000000001
20
127.0
30
0.0
 70
     32
  0
VERTEX
  8
MY3DLAYER
10
41.51763809020505
20
127.06814834742184
30
0.0
 70
     32
  0
VERTEX
  8
MY3DLAYER
10
41.76536686473018
20
127.15224093497741
30
0.0
 70
     32
  0
VERTEX
  8
MY3DLAYER
10
42.0
20
127.26794919243112
30
0.0
 70
     32
  0
VERTEX
  8
MY3DLAYER
10
42.21752285801744
20
127.41329331941753
30
0.0
 70
     32
  0
VERTEX
  8
MY3DLAYER
10
42.4142135623731
20
127.5857864376269
30
0.0
 70
     32
  0
VERTEX
  8
MY3DLAYER
10
42.58670668058247
20
127.78247714198254
30
0.0
 70
     32
  0
VERTEX
  8
MY3DLAYER
10
42.732050807568875
20
127.99999999999999
30
0.0
 70
     32
  0
VERTEX
  8
MY3DLAYER
10
42.84775906502257
20
128.23463313526983
30
0.0
 70
     32
  0
VERTEX
  8
MY3DLAYER
10
42.93185165257814
20
128.48236190979495
30
0.0
 70
     32
  0
VERTEX
  8
MY3DLAYER
10
43.0
20
129.0
30
0.0
 70
     32
  0
VERTEX
  8
MY3DLAYER
10
42.99999999999999
20
135.0
30
0.0
 70
     32
  0
VERTEX
  8
MY3DLAYER
10
42.93185165257813
20
135.51763809020505
30
0.0
 70
     32
  0
VERTEX
  8
MY3DLAYER
10
42.847759065022565
20
135.76536686473017
30
0.0
 70
     32
  0
VERTEX
  8
MY3DLAYER
10
42.73205080756887
20
136.0
30
0.0
 70
     32
  0
VERTEX
  8
MY3DLAYER
10
42.586706680582466
20
136.21752285801745
30
0.0
 70
     32
  0
VERTEX
  8
MY3DLAYER
10
42.41421356237309
20
136.4142135623731
30
0.0
 70
     32
  0
VERTEX
  8
MY3DLAYER
10
42.21752285801744
20
136.58670668058247
30
0.0
 70
     32
  0
VERTEX
  8
MY3DLAYER
10
41.99999999999999
20
136.73205080756887
30
0.0
 70
     32
  0
VERTEX
  8
MY3DLAYER
10
41.765366864730176
20
136.8477590650226
30
0.0
 70
     32
  0
VERTEX
  8
MY3DLAYER
10
41.51763809020504
20
136.93185165257813
30
0.0
 70
     32
  0
VERTEX
  8
MY3DLAYER
10
41.0
20
137.0
30
0.0
 70
     32
  0
VERTEX
  8
MY3DLAYER
10
19.999999999999996
20
137.0
30
0.0
 70
     32
  0
VERTEX
  8
MY3DLAYER
10
19.482361909794957
20
136.93185165257813
30
0.0
 70
     32
  0
VERTEX
  8
MY3DLAYER
10
19.234633135269817
20
136.8477590650226
30
0.0
 70
     32
  0
VERTEX
  8
MY3DLAYER
10
19.0
20
136.73205080756887
30
0.0
 70
     32
  0
VERTEX
  8
MY3DLAYER
10
18.782477141982557
20
136.58670668058247
30
0.0
 70
     32
  0
VERTEX
  8
MY3DLAYER
10
18.585786437626904
20
136.4142135623731
30
0.0
 70
     32
  0
VERTEX
  8
MY3DLAYER
10
18.41329331941753
20
136.21752285801745
30
0.0
 70
     32
  0
VERTEX
  8
MY3DLAYER
10
18.267949192431125
20
136.0
30
0.0
 70
     32
  0
VERTEX
  8
MY3DLAYER
10
18.152240934977428
20
135.76536686473017
30
0.0
 70
     32
  0
VERTEX
  8
MY3DLAYER
10
18.068148347421864
20
135.51763809020505
30
0.0
 70
     32
  0
VERTEX
  8
MY3DLAYER
10
18.0
20
135.0
30
0.0
 70
     32
  0
VERTEX
  8
MY3DLAYER
10
17.999999999999996
20
129.0
30
0.0
 70
     32
  0
VERTEX
  8
MY3DLAYER
10
18.06814834742186
20
128.48236190979495
30
0.0
 70
     32
  0
VERTEX
  8
MY3DLAYER
10
18.152240934977424
20
128.23463313526983
30
0.0
 70
     32
  0
VERTEX
  8
MY3DLAYER
10
18.267949192431118
20
127.99999999999999
30
0.0
 70
     32
  0
VERTEX
  8
MY3DLAYER
10
18.413293319417527
20
127.78247714198254
30
0.0
 70
     32
  0
VERTEX
  8
MY3DLAYER
10
18.5857864376269
20
127.5857864376269
30
0.0
 70
     32
  0
VERTEX
  8
MY3DLAYER
10
18.782477141982557
20
127.41329331941753
30
0.0
 70
     32
  0
VERTEX
  8
MY3DLAYER
10
18.999999999999996
20
127.26794919243112
30
0.0
 70
     32
  0
VERTEX
  8
MY3DLAYER
10
19.234633135269814
20
127.15224093497741
30
0.0
 70
     32
  0
VERTEX
  8
MY3DLAYER
10
19.482361909794953
20
127.06814834742184
30
0.0
 70
     32
  0
VERTEX
  8
MY3DLAYER
10
19.999999999999993
20
127.0
30
0.0
 70
     32
  0
SEQEND
  0
LINE
 8
Layer0
10
71.0
20
150.0
30
0.0
11
71.0
21
116.25
31
0.0
  0
LINE
 8
Layer0
10
71.0
20
111.25000000000001
30
0.0
11
71.0
21
77.67168900000001
31
0.0
  0
LINE
 8
Layer0
10
71.0
20
0.0
30
0.0
11
71.0
21
33.75
31
0.0
  0
LINE
 8
Layer0
10
71.0
20
38.75
30
0.0
11
71.0
21
72.5
31
0.0
  0
LINE
 8
Layer0
10
71.99999999999999
20
6.0
30
0.0
11
71.99999999999999
21
48.0
31
0.0
  0
LINE
 8
Layer0
10
71.99999999999999
20
54.0
30
0.0
11
71.99999999999999
21
96.0
31
0.0
  0
LINE
 8
Layer0
10
71.99999999999999
20
144.0
30
0.0
11
71.99999999999999
21
102.0
31
0.0
  0
LINE
 8
Layer0
10
73.99999999999999
20
144.0
30
0.0
11
73.99999999999999
21
102.0
31
0.0
  0
LINE
 8
Layer0
10
73.99999999999999
20
54.0
30
0.0
11
73.99999999999999
21
96.0
31
0.0
  0
LINE
 8
Layer0
10
73.99999999999999
20
6.0
30
0.0
11
73.99999999999999
21
48.0
31
0.0
  0
LINE
 8
Layer0
10
72.99999999999999
20
38.75
30
0.0
11
72.99999999999999
21
72.5
31
0.0
  0
LINE
 8
Layer0
10
72.99999999999999
20
0.0
30
0.0
11
72.99999999999999
21
33.75
31
0.0
  0
LINE
 8
Layer0
10
72.99999999999999
20
111.25000000000001
30
0.0
11
72.99999999999999
21
77.67168900000001
31
0.0
  0
LINE
 8
Layer0
10
73.0
20
150.0
30
0.0
11
72.99999999999999
21
116.25
31
0.0
  0
LINE
 8
Layer0
10
75.99999999999999
20
144.0
30
0.0
11
75.99999999999999
21
102.0
31
0.0
  0
LINE
 8
Layer0
10
75.99999999999999
20
54.0
30
0.0
11
75.99999999999999
21
96.0
31
0.0
  0
LINE
 8
Layer0
10
75.99999999999999
20
6.0
30
0.0
11
75.99999999999999
21
48.0
31
0.0
  0
LINE
 8
Layer0
10
74.99999999999999
20
38.75
30
0.0
11
74.99999999999999
21
72.5
31
0.0
  0
LINE
 8
Layer0
10
74.99999999999999
20
0.0
30
0.0
11
74.99999999999999
21
33.75
31
0.0
  0
LINE
 8
Layer0
10
74.99999999999999
20
111.25000000000001
30
0.0
11
74.99999999999999
21
77.67168900000001
31
0.0
  0
LINE
 8
Layer0
10
75.0
20
150.0
30
0.0
11
74.99999999999999
21
116.25
31
0.0
  0
LINE
 8
Layer0
10
77.99999999999999
20
144.0
30
0.0
11
77.99999999999999
21
102.0
31
0.0
  0
LINE
 8
Layer0
10
77.99999999999999
20
54.0
30
0.0
11
77.99999999999999
21
96.0
31
0.0
  0
LINE
 8
Layer0
10
77.99999999999999
20
6.0
30
0.0
11
77.99999999999999
21
48.0
31
0.0
  0
LINE
 8
Layer0
10
76.99999999999999
20
38.75
30
0.0
11
76.99999999999999
21
72.5
31
0.0
  0
LINE
 8
Layer0
10
76.99999999999999
20
0.0
30
0.0
11
76.99999999999999
21
33.75
31
0.0
  0
LINE
 8
Layer0
10
76.99999999999999
20
111.25000000000001
30
0.0
11
76.99999999999999
21
77.67168900000001
31
0.0
  0
LINE
 8
Layer0
10
77.0
20
150.0
30
0.0
11
76.99999999999999
21
116.25
31
0.0
  0
LINE
 8
Layer0
10
79.99999999999997
20
144.0
30
0.0
11
79.99999999999997
21
102.0
31
0.0
  0
LINE
 8
Layer0
10
79.99999999999997
20
54.0
30
0.0
11
79.99999999999997
21
96.0
31
0.0
  0
LINE
 8
Layer0
10
79.99999999999997
20
6.0
30
0.0
11
79.99999999999997
21
48.0
31
0.0
  0
LINE
 8
Layer0
10
78.99999999999999
20
38.75
30
0.0
11
78.99999999999999
21
72.5
31
0.0
  0
LINE
 8
Layer0
10
78.99999999999999
20
0.0
30
0.0
11
78.99999999999999
21
33.75
31
0.0
  0
LINE
 8
Layer0
10
78.99999999999999
20
111.25000000000001
30
0.0
11
78.99999999999999
21
77.67168900000001
31
0.0
  0
LINE
 8
Layer0
10
78.99999999999999
20
150.0
30
0.0
11
78.99999999999999
21
116.25
31
0.0
  0
LINE
 8
Layer0
10
81.99999999999997
20
144.0
30
0.0
11
81.99999999999997
21
102.0
31
0.0
  0
LINE
 8
Layer0
10
81.99999999999997
20
54.0
30
0.0
11
81.99999999999997
21
96.0
31
0.0
  0
LINE
 8
Layer0
10
81.99999999999997
20
6.0
30
0.0
11
81.99999999999997
21
48.0
31
0.0
  0
LINE
 8
Layer0
10
80.99999999999997
20
38.75
30
0.0
11
80.99999999999997
21
72.5
31
0.0
  0
LINE
 8
Layer0
10
80.99999999999997
20
0.0
30
0.0
11
80.99999999999997
21
33.75
31
0.0
  0
LINE
 8
Layer0
10
80.99999999999997
20
111.25000000000001
30
0.0
11
80.99999999999997
21
77.67168900000001
31
0.0
  0
LINE
 8
Layer0
10
80.99999999999999
20
150.0
30
0.0
11
80.99999999999997
21
116.25
31
0.0
  0
LINE
 8
Layer0
10
83.99999999999997
20
144.0
30
0.0
11
83.99999999999997
21
102.0
31
0.0
  0
LINE
 8
Layer0
10
83.99999999999997
20
54.0
30
0.0
11
83.99999999999997
21
96.0
31
0.0
  0
LINE
 8
Layer0
10
83.99999999999997
20
6.0
30
0.0
11
83.99999999999997
21
48.0
31
0.0
  0
LINE
 8
Layer0
10
82.99999999999997
20
38.75
30
0.0
11
82.99999999999997
21
72.5
31
0.0
  0
LINE
 8
Layer0
10
82.99999999999997
20
0.0
30
0.0
11
82.99999999999997
21
33.75
31
0.0
  0
LINE
 8
Layer0
10
82.99999999999997
20
111.25000000000001
30
0.0
11
82.99999999999997
21
77.67168900000001
31
0.0
  0
LINE
 8
Layer0
10
82.99999999999999
20
150.0
30
0.0
11
82.99999999999997
21
116.25
31
0.0
  0
LINE
 8
Layer0
10
85.99999999999997
20
144.0
30
0.0
11
85.99999999999997
21
102.0
31
0.0
  0
LINE
 8
Layer0
10
85.99999999999997
20
54.0
30
0.0
11
85.99999999999997
21
96.0
31
0.0
  0
LINE
 8
Layer0
10
85.99999999999997
20
6.0
30
0.0
11
85.99999999999997
21
48.0
31
0.0
  0
LINE
 8
Layer0
10
84.99999999999997
20
38.75
30
0.0
11
84.99999999999997
21
72.5
31
0.0
  0
LINE
 8
Layer0
10
84.99999999999997
20
0.0
30
0.0
11
84.99999999999997
21
33.75
31
0.0
  0
LINE
 8
Layer0
10
84.99999999999997
20
111.25000000000001
30
0.0
11
84.99999999999997
21
77.67168900000001
31
0.0
  0
LINE
 8
Layer0
10
84.99999999999999
20
150.0
30
0.0
11
84.99999999999997
21
116.25
31
0.0
  0
LINE
 8
Layer0
10
86.99999999999997
20
111.25000000000001
30
0.0
11
86.99999999999997
21
77.67168900000001
31
0.0
  0
LINE
 8
Layer0
10
86.99999999999997
20
150.0
30
0.0
11
86.99999999999997
21
116.25
31
0.0
  0
LINE
 8
Layer0
10
87.99999999999996
20
144.0
30
0.0
11
87.99999999999996
21
102.0
31
0.0
  0
LINE
 8
Layer0
10
87.99999999999996
20
54.0
30
0.0
11
87.99999999999996
21
96.0
31
0.0
  0
LINE
 8
Layer0
10
87.99999999999996
20
6.0
30
0.0
11
87.99999999999996
21
48.0
31
0.0
  0
LINE
 8
Layer0
10
86.99999999999997
20
38.75
30
0.0
11
86.99999999999997
21
72.5
31
0.0
  0
LINE
 8
Layer0
10
86.99999999999997
20
0.0
30
0.0
11
86.99999999999997
21
33.75
31
0.0
  0
LINE
 8
Layer0
10
89.99999999999996
20
144.0
30
0.0
11
89.99999999999996
21
102.0
31
0.0
  0
LINE
 8
Layer0
10
89.99999999999996
20
54.0
30
0.0
11
89.99999999999996
21
96.0
31
0.0
  0
LINE
 8
Layer0
10
89.99999999999996
20
6.0
30
0.0
11
89.99999999999996
21
48.0
31
0.0
  0
LINE
 8
Layer0
10
88.99999999999996
20
38.75
30
0.0
11
88.99999999999996
21
72.5
31
0.0
  0
LINE
 8
Layer0
10
88.99999999999996
20
0.0
30
0.0
11
88.99999999999996
21
33.75
31
0.0
  0
LINE
 8
Layer0
10
88.99999999999996
20
111.25000000000001
30
0.0
11
88.99999999999996
21
77.67168900000001
31
0.0
  0
LINE
 8
Layer0
10
88.99999999999997
20
150.0
30
0.0
11
88.99999999999996
21
116.25
31
0.0
  0
LINE
 8
Layer0
10
90.99999999999997
20
150.0
30
0.0
11
90.99999999999996
21
116.25
31
0.0
  0
LINE
 8
Layer0
10
90.99999999999996
20
111.25000000000001
30
0.0
11
90.99999999999996
21
77.67168900000001
31
0.0
  0
LINE
 8
Layer0
10
91.99999999999996
20
144.0
30
0.0
11
91.99999999999996
21
102.0
31
0.0
  0
LINE
 8
Layer0
10
91.99999999999996
20
6.0
30
0.0
11
91.99999999999996
21
48.0
31
0.0
  0
LINE
 8
Layer0
10
91.99999999999996
20
54.0
30
0.0
11
91.99999999999996
21
96.0
31
0.0
  0
LINE
 8
Layer0
10
90.99999999999996
20
0.0
30
0.0
11
90.99999999999996
21
33.75
31
0.0
  0
LINE
 8
Layer0
10
90.99999999999996
20
38.75
30
0.0
11
90.99999999999996
21
72.5
31
0.0
  0
LINE
 8
Layer0
10
93.99999999999996
20
144.0
30
0.0
11
93.99999999999996
21
102.0
31
0.0
  0
LINE
 8
Layer0
10
93.99999999999996
20
54.0
30
0.0
11
93.99999999999996
21
96.0
31
0.0
  0
LINE
 8
Layer0
10
92.99999999999996
20
38.75
30
0.0
11
92.99999999999996
21
72.5
31
0.0
  0
LINE
 8
Layer0
10
93.99999999999996
20
6.0
30
0.0
11
93.99999999999996
21
48.0
31
0.0
  0
LINE
 8
Layer0
10
92.99999999999996
20
111.25000000000001
30
0.0
11
92.99999999999996
21
77.67168900000001
31
0.0
  0
LINE
 8
Layer0
10
92.99999999999996
20
0.0
30
0.0
11
92.99999999999996
21
33.75
31
0.0
  0
LINE
 8
Layer0
10
92.99999999999997
20
150.0
30
0.0
11
92.99999999999996
21
116.25
31
0.0
  0
LINE
 8
Layer0
10
94.99999999999996
20
150.0
30
0.0
11
94.99999999999994
21
116.25
31
0.0
  0
LINE
 8
Layer0
10
94.99999999999994
20
111.25000000000001
30
0.0
11
94.99999999999994
21
77.67168900000001
31
0.0
  0
LINE
 8
Layer0
10
94.99999999999994
20
0.0
30
0.0
11
94.99999999999994
21
33.75
31
0.0
  0
LINE
 8
Layer0
10
94.99999999999994
20
38.75
30
0.0
11
94.99999999999994
21
72.5
31
0.0
 0
ENDSEC
 0
EOF
