999
dxflib 3.17.0.0
  0
SECTION
  2
HEADER
  9
$ACADVER
  1
AC1015
  9
$HANDSEED
  5
FFFF
  9
$DIMADEC
 70
0
  9
$DIMASZ
 40
0.18
  9
$DIMAUNIT
 70
0
  9
$DIMAZIN
 70
0
  9
$DIMDEC
 70
4
  9
$DIMDSEP
 70
46
  9
$DIMEXE
 40
0.18
  9
$DIMEXO
 40
0.0625
  9
$DIMGAP
 40
0.09
  9
$DIMLUNIT
 70
2
  9
$DIMSCALE
 40
1.0
  9
$DIMTSZ
 40
0.0
  9
$DIMTXT
 40
0.18
  9
$DIMZIN
 70
0
  9
$DWGCODEPAGE
  3
ANSI_1252
  9
$INSUNITS
 70
4
  9
$LTSCALE
 40
1.0
  9
$MAXACTVP
 70
32
  9
$MEASUREMENT
 70
1
  9
$PDMODE
 70
0
  9
$PDSIZE
 40
0
  0
ENDSEC
  0
SECTION
  2
TABLES
  0
TABLE
  2
VPORT
  5
8
100
AcDbSymbolTable
 70
1
  0
VPORT
  5
30
100
AcDbSymbolTableRecord
100
AcDbViewportTableRecord
  2
*Active
 70
0
 10
0.0
 20
0.0
 11
1.0
 21
1.0
 12
286.30555555555549
 22
148.5
 13
0.0
 23
0.0
 14
10.0
 24
10.0
 15
10.0
 25
10.0
 16
0.0
 26
0.0
 36
1.0
 17
0.0
 27
0.0
 37
0.0
 40
297.0
 41
1.92798353909465
 42
50.0
 43
0.0
 44
0.0
 50
0.0
 51
0.0
 71
0
 72
100
 73
1
 74
3
 75
1
 76
1
 77
0
 78
0
281
0
 65
1
110
0.0
120
0.0
130
0.0
111
1.0
121
0.0
131
0.0
112
0.0
122
1.0
132
0.0
 79
0
146
0.0
  0
ENDTAB
  0
TABLE
  2
LTYPE
  5
5
100
AcDbSymbolTable
 70
50
  0
LTYPE
  5
16
100
AcDbSymbolTableRecord
100
AcDbLinetypeTableRecord
  2
Continuous
 70
0
  3
Solid line
 72
65
 73
0
 40
0.0
  0
LTYPE
  5
31
100
AcDbSymbolTableRecord
100
AcDbLinetypeTableRecord
  2
DRAINAGE
 70
0
  3
Drainage ---->---->---->----
 72
65
 73
2
 40
10.16
 49
5.0800000000000001
 74
0
 49
5.0800000000000001
 74
0
  0
LTYPE
  5
32
100
AcDbSymbolTableRecord
100
AcDbLinetypeTableRecord
  2
ACAD_ISO09W100
 70
0
  3
ISO long-dash double-short-dash ____ __ __ ____
 72
65
 73
6
 40
45.0
 49
24.0
 74
0
 49
-3.0
 74
0
 49
6.0
 74
0
 49
-3.0
 74
0
 49
6.0
 74
0
 49
-3.0
 74
0
  0
LTYPE
  5
33
100
AcDbSymbolTableRecord
100
AcDbLinetypeTableRecord
  2
ACAD_ISO12W100
 70
0
  3
ISO dash double-dot __ . . __ . . __ . . __ . . 
 72
65
 73
6
 40
21.0
 49
12.0
 74
0
 49
-3.0
 74
0
 49
0.0
 74
0
 49
-3.0
 74
0
 49
0.0
 74
0
 49
-3.0
 74
0
  0
LTYPE
  5
34
100
AcDbSymbolTableRecord
100
AcDbLinetypeTableRecord
  2
DRAINAGE2
 70
0
  3
Drainage reversed----<----<----<----
 72
65
 73
2
 40
10.16
 49
5.0800000000000001
 74
0
 49
5.0800000000000001
 74
0
  0
LTYPE
  5
35
100
AcDbSymbolTableRecord
100
AcDbLinetypeTableRecord
  2
CENTERX2
 70
0
  3
Center (2x) ________  __  ________  __  _____
 72
65
 73
4
 40
101.60000000000001
 49
63.5
 74
0
 49
-12.699999999999999
 74
0
 49
12.699999999999999
 74
0
 49
-12.699999999999999
 74
0
  0
LTYPE
  5
36
100
AcDbSymbolTableRecord
100
AcDbLinetypeTableRecord
  2
ACAD_ISO04W100
 70
0
  3
ISO long-dash dot ____ . ____ . ____ . ____ . _
 72
65
 73
4
 40
30.0
 49
24.0
 74
0
 49
-3.0
 74
0
 49
0.0
 74
0
 49
-3.0
 74
0
  0
LTYPE
  5
37
100
AcDbSymbolTableRecord
100
AcDbLinetypeTableRecord
  2
DASHED2
 70
0
  3
Dashed (.5x) _ _ _ _ _ _ _ _ _ _ _ _ _ _ _ _ _ 
 72
65
 73
2
 40
9.5249999999999986
 49
6.3499999999999996
 74
0
 49
-3.1749999999999998
 74
0
  0
LTYPE
  5
38
100
AcDbSymbolTableRecord
100
AcDbLinetypeTableRecord
  2
DIVIDEX2
 70
0
  3
Divide (2x) ________  .  .  ________  .  .  _
 72
65
 73
6
 40
63.5
 49
25.399999999999999
 74
0
 49
-12.699999999999999
 74
0
 49
0.0
 74
0
 49
-12.699999999999999
 74
0
 49
0.0
 74
0
 49
-12.699999999999999
 74
0
  0
LTYPE
  5
39
100
AcDbSymbolTableRecord
100
AcDbLinetypeTableRecord
  2
BATTING
 70
0
  3
Batting SSSSSSSSSSSSSSSSSSSSSSSSSSSSSSSSSSSSSSSSSSSSSSS
 72
65
 73
4
 40
10.16254
 49
0.00254
 74
0
 49
-2.54
 74
0
 49
-5.0800000000000001
 74
0
 49
-2.54
 74
0
  0
LTYPE
  5
3A
100
AcDbSymbolTableRecord
100
AcDbLinetypeTableRecord
  2
ACAD_ISO13W100
 70
0
  3
ISO double-dash double-dot __ __ . . __ __ . . _
 72
65
 73
8
 40
36.0
 49
12.0
 74
0
 49
-3.0
 74
0
 49
12.0
 74
0
 49
-3.0
 74
0
 49
0.0
 74
0
 49
-3.0
 74
0
 49
0.0
 74
0
 49
-3.0
 74
0
  0
LTYPE
  5
3B
100
AcDbSymbolTableRecord
100
AcDbLinetypeTableRecord
  2
FENCELINE1
 70
0
  3
Fenceline circle ----0-----0----0-----0----0-----0--
 72
65
 73
4
 40
36.829999999999998
 49
6.3499999999999996
 74
0
 49
-2.54
 74
0
 49
-2.54
 74
0
 49
25.399999999999999
 74
0
  0
LTYPE
  5
3C
100
AcDbSymbolTableRecord
100
AcDbLinetypeTableRecord
  2
CENTER2
 70
0
  3
Center (.5x) ___ _ ___ _ ___ _ ___ _ ___ _ ___
 72
65
 73
4
 40
28.575000000000003
 49
19.050000000000001
 74
0
 49
-3.1749999999999998
 74
0
 49
3.1749999999999998
 74
0
 49
-3.1749999999999998
 74
0
  0
LTYPE
  5
3D
100
AcDbSymbolTableRecord
100
AcDbLinetypeTableRecord
  2
DIVIDE2
 70
0
  3
Divide (.5x) __..__..__..__..__..__..__..__.._
 72
65
 73
6
 40
15.875
 49
6.3499999999999996
 74
0
 49
-3.1749999999999998
 74
0
 49
0.0
 74
0
 49
-3.1749999999999998
 74
0
 49
0.0
 74
0
 49
-3.1749999999999998
 74
0
  0
LTYPE
  5
3E
100
AcDbSymbolTableRecord
100
AcDbLinetypeTableRecord
  2
DASHDOT2
 70
0
  3
Dash dot (.5x) _._._._._._._._._._._._._._._.
 72
65
 73
4
 40
12.699999999999999
 49
6.3499999999999996
 74
0
 49
-3.1749999999999998
 74
0
 49
0.0
 74
0
 49
-3.1749999999999998
 74
0
  0
LTYPE
  5
3F
100
AcDbSymbolTableRecord
100
AcDbLinetypeTableRecord
  2
DASHDOTX2
 70
0
  3
Dash dot (2x) ____  .  ____  .  ____  .  ___
 72
65
 73
4
 40
50.799999999999997
 49
25.399999999999999
 74
0
 49
-12.699999999999999
 74
0
 49
0.0
 74
0
 49
-12.699999999999999
 74
0
  0
LTYPE
  5
40
100
AcDbSymbolTableRecord
100
AcDbLinetypeTableRecord
  2
BORDERX2
 70
0
  3
Border (2x) ____  ____  .  ____  ____  .  ___
 72
65
 73
6
 40
88.899999999999991
 49
25.399999999999999
 74
0
 49
-12.699999999999999
 74
0
 49
25.399999999999999
 74
0
 49
-12.699999999999999
 74
0
 49
0.0
 74
0
 49
-12.699999999999999
 74
0
  0
LTYPE
  5
41
100
AcDbSymbolTableRecord
100
AcDbLinetypeTableRecord
  2
ACAD_ISO15W100
 70
0
  3
ISO double-dash triple-dot __ __ . . . __ __ . .
 72
65
 73
10
 40
39.0
 49
12.0
 74
0
 49
-3.0
 74
0
 49
12.0
 74
0
 49
-3.0
 74
0
 49
0.0
 74
0
 49
-3.0
 74
0
 49
0.0
 74
0
 49
-3.0
 74
0
 49
0.0
 74
0
 49
-3.0
 74
0
  0
LTYPE
  5
42
100
AcDbSymbolTableRecord
100
AcDbLinetypeTableRecord
  2
HOT_WATER_SUPPLY
 70
0
  3
Hot water supply ---- HW ---- HW ---- HW ----
 72
65
 73
3
 40
22.859999999999999
 49
12.699999999999999
 74
0
 49
-5.0800000000000001
 74
0
 49
-5.0800000000000001
 74
0
  0
LTYPE
  5
43
100
AcDbSymbolTableRecord
100
AcDbLinetypeTableRecord
  2
PHANTOMX2
 70
0
  3
Phantom (2x) ____________    ____    ____   _
 72
65
 73
6
 40
127.00000000000001
 49
63.5
 74
0
 49
-12.699999999999999
 74
0
 49
12.699999999999999
 74
0
 49
-12.699999999999999
 74
0
 49
12.699999999999999
 74
0
 49
-12.699999999999999
 74
0
  0
LTYPE
  5
44
100
AcDbSymbolTableRecord
100
AcDbLinetypeTableRecord
  2
DASHDOT
 70
0
  3
Dash dot __ . __ . __ . __ . __ . __ . __ . __
 72
65
 73
4
 40
25.399999999999999
 49
12.699999999999999
 74
0
 49
-6.3499999999999996
 74
0
 49
0.0
 74
0
 49
-6.3499999999999996
 74
0
  0
LTYPE
  5
45
100
AcDbSymbolTableRecord
100
AcDbLinetypeTableRecord
  2
BORDER
 70
0
  3
Border __ __ . __ __ . __ __ . __ __ . __ __ .
 72
65
 73
6
 40
44.449999999999996
 49
12.699999999999999
 74
0
 49
-6.3499999999999996
 74
0
 49
12.699999999999999
 74
0
 49
-6.3499999999999996
 74
0
 49
0.0
 74
0
 49
-6.3499999999999996
 74
0
  0
LTYPE
  5
15
100
AcDbSymbolTableRecord
100
AcDbLinetypeTableRecord
  2
BYLAYER
 70
0
  3

 72
65
 73
0
 40
0.0
  0
LTYPE
  5
46
100
AcDbSymbolTableRecord
100
AcDbLinetypeTableRecord
  2
PHANTOM2
 70
0
  3
Phantom (.5x) ___ _ _ ___ _ _ ___ _ _ ___ _ _
 72
65
 73
6
 40
31.750000000000004
 49
15.875
 74
0
 49
-3.1749999999999998
 74
0
 49
3.1749999999999998
 74
0
 49
-3.1749999999999998
 74
0
 49
3.1749999999999998
 74
0
 49
-3.1749999999999998
 74
0
  0
LTYPE
  5
47
100
AcDbSymbolTableRecord
100
AcDbLinetypeTableRecord
  2
CENTER
 70
0
  3
Center ____ _ ____ _ ____ _ ____ _ ____ _ ____
 72
65
 73
4
 40
50.800000000000004
 49
31.75
 74
0
 49
-6.3499999999999996
 74
0
 49
6.3499999999999996
 74
0
 49
-6.3499999999999996
 74
0
  0
LTYPE
  5
48
100
AcDbSymbolTableRecord
100
AcDbLinetypeTableRecord
  2
BORDER2
 70
0
  3
Border (.5x) __.__.__.__.__.__.__.__.__.__.__.
 72
65
 73
6
 40
22.224999999999998
 49
6.3499999999999996
 74
0
 49
-3.1749999999999998
 74
0
 49
6.3499999999999996
 74
0
 49
-3.1749999999999998
 74
0
 49
0.0
 74
0
 49
-3.1749999999999998
 74
0
  0
LTYPE
  5
49
100
AcDbSymbolTableRecord
100
AcDbLinetypeTableRecord
  2
PHANTOM
 70
0
  3
Phantom ______  __  __  ______  __  __  ______ 
 72
65
 73
6
 40
63.500000000000007
 49
31.75
 74
0
 49
-6.3499999999999996
 74
0
 49
6.3499999999999996
 74
0
 49
-6.3499999999999996
 74
0
 49
6.3499999999999996
 74
0
 49
-6.3499999999999996
 74
0
  0
LTYPE
  5
4A
100
AcDbSymbolTableRecord
100
AcDbLinetypeTableRecord
  2
HIDDEN2
 70
0
  3
Hidden (.5x) _ _ _ _ _ _ _ _ _ _ _ _ _ _ _ _ _ 
 72
65
 73
2
 40
4.7624999999999993
 49
3.1749999999999998
 74
0
 49
-1.5874999999999999
 74
0
  0
LTYPE
  5
4B
100
AcDbSymbolTableRecord
100
AcDbLinetypeTableRecord
  2
DOTX2
 70
0
  3
Dot (2x) .  .  .  .  .  .  .  .  .  .  .  .  .  .
 72
65
 73
2
 40
12.699999999999999
 49
0.0
 74
0
 49
-12.699999999999999
 74
0
  0
LTYPE
  5
4C
100
AcDbSymbolTableRecord
100
AcDbLinetypeTableRecord
  2
DOT
 70
0
  3
Dot . . . . . . . . . . . . . . . . . . . . . . . .
 72
65
 73
2
 40
6.3499999999999996
 49
0.0
 74
0
 49
-6.3499999999999996
 74
0
  0
LTYPE
  5
4D
100
AcDbSymbolTableRecord
100
AcDbLinetypeTableRecord
  2
ACAD_ISO02W100
 70
0
  3
ISO dash __ __ __ __ __ __ __ __ __ __ __ __ __
 72
65
 73
2
 40
15.0
 49
12.0
 74
0
 49
-3.0
 74
0
  0
LTYPE
  5
4E
100
AcDbSymbolTableRecord
100
AcDbLinetypeTableRecord
  2
DIVIDE
 70
0
  3
Divide ____ . . ____ . . ____ . . ____ . . ____
 72
65
 73
6
 40
31.75
 49
12.699999999999999
 74
0
 49
-6.3499999999999996
 74
0
 49
0.0
 74
0
 49
-6.3499999999999996
 74
0
 49
0.0
 74
0
 49
-6.3499999999999996
 74
0
  0
LTYPE
  5
4F
100
AcDbSymbolTableRecord
100
AcDbLinetypeTableRecord
  2
HIDDEN
 70
0
  3
Hidden __ __ __ __ __ __ __ __ __ __ __ __ __ __
 72
65
 73
2
 40
9.5249999999999986
 49
6.3499999999999996
 74
0
 49
-3.1749999999999998
 74
0
  0
LTYPE
  5
50
100
AcDbSymbolTableRecord
100
AcDbLinetypeTableRecord
  2
GAS_LINE
 70
0
  3
Gas line ----GAS----GAS----GAS----GAS----GAS----GAS--
 72
65
 73
3
 40
24.130000000000003
 49
12.699999999999999
 74
0
 49
-5.0800000000000001
 74
0
 49
-6.3499999999999996
 74
0
  0
LTYPE
  5
51
100
AcDbSymbolTableRecord
100
AcDbLinetypeTableRecord
  2
ACAD_ISO11W100
 70
0
  3
ISO double-dash dot __ __ . __ __ . __ __ . __ _
 72
65
 73
6
 40
33.0
 49
12.0
 74
0
 49
-3.0
 74
0
 49
12.0
 74
0
 49
-3.0
 74
0
 49
0.0
 74
0
 49
-3.0
 74
0
  0
LTYPE
  5
52
100
AcDbSymbolTableRecord
100
AcDbLinetypeTableRecord
  2
DOT2
 70
0
  3
Dot (.5x) ........................................
 72
65
 73
2
 40
3.1749999999999998
 49
0.0
 74
0
 49
-3.1749999999999998
 74
0
  0
LTYPE
  5
53
100
AcDbSymbolTableRecord
100
AcDbLinetypeTableRecord
  2
ACAD_ISO06W100
 70
0
  3
ISO long-dash triple-dot ____ ... ____ ... ____
 72
65
 73
8
 40
36.0
 49
24.0
 74
0
 49
-3.0
 74
0
 49
0.0
 74
0
 49
-3.0
 74
0
 49
0.0
 74
0
 49
-3.0
 74
0
 49
0.0
 74
0
 49
-3.0
 74
0
  0
LTYPE
  5
54
100
AcDbSymbolTableRecord
100
AcDbLinetypeTableRecord
  2
ZIGZAG
 70
0
  3
Zig zag /\/\/\/\/\/\/\/\/\/\/\/\/\/\/\/\/\/\/\/\/\/\/\/
 72
65
 73
4
 40
20.32254
 49
0.00254
 74
0
 49
-5.0800000000000001
 74
0
 49
-10.16
 74
0
 49
-5.0800000000000001
 74
0
  0
LTYPE
  5
55
100
AcDbSymbolTableRecord
100
AcDbLinetypeTableRecord
  2
ACAD_ISO14W100
 70
0
  3
ISO dash triple-dot __ . . . __ . . . __ . . . _
 72
65
 73
8
 40
24.0
 49
12.0
 74
0
 49
-3.0
 74
0
 49
0.0
 74
0
 49
-3.0
 74
0
 49
0.0
 74
0
 49
-3.0
 74
0
 49
0.0
 74
0
 49
-3.0
 74
0
  0
LTYPE
  5
56
100
AcDbSymbolTableRecord
100
AcDbLinetypeTableRecord
  2
ACAD_ISO10W100
 70
0
  3
ISO dash dot __ . __ . __ . __ . __ . __ . __ . 
 72
65
 73
4
 40
18.0
 49
12.0
 74
0
 49
-3.0
 74
0
 49
0.0
 74
0
 49
-3.0
 74
0
  0
LTYPE
  5
57
100
AcDbSymbolTableRecord
100
AcDbLinetypeTableRecord
  2
ACAD_ISO08W100
 70
0
  3
ISO long-dash short-dash ____ __ ____ __ ____ _
 72
65
 73
4
 40
36.0
 49
24.0
 74
0
 49
-3.0
 74
0
 49
6.0
 74
0
 49
-3.0
 74
0
  0
LTYPE
  5
58
100
AcDbSymbolTableRecord
100
AcDbLinetypeTableRecord
  2
ACAD_ISO05W100
 70
0
  3
ISO long-dash double-dot ____ .. ____ .. ____ . 
 72
65
 73
6
 40
33.0
 49
24.0
 74
0
 49
-3.0
 74
0
 49
0.0
 74
0
 49
-3.0
 74
0
 49
0.0
 74
0
 49
-3.0
 74
0
  0
LTYPE
  5
59
100
AcDbSymbolTableRecord
100
AcDbLinetypeTableRecord
  2
DASHEDX2
 70
0
  3
Dashed (2x) ____  ____  ____  ____  ____  ___
 72
65
 73
2
 40
38.099999999999994
 49
25.399999999999999
 74
0
 49
-12.699999999999999
 74
0
  0
LTYPE
  5
5A
100
AcDbSymbolTableRecord
100
AcDbLinetypeTableRecord
  2
DASHED
 70
0
  3
Dashed __ __ __ __ __ __ __ __ __ __ __ __ __ _
 72
65
 73
2
 40
19.049999999999997
 49
12.699999999999999
 74
0
 49
-6.3499999999999996
 74
0
  0
LTYPE
  5
5B
100
AcDbSymbolTableRecord
100
AcDbLinetypeTableRecord
  2
TRACKS
 70
0
  3
Tracks -|-|-|-|-|-|-|-|-|-|-|-|-|-|-|-|-|-|-|-|-|-|-|-|-
 72
65
 73
2
 40
7.6200000000000001
 49
3.8100000000000001
 74
0
 49
3.8100000000000001
 74
0
  0
LTYPE
  5
5C
100
AcDbSymbolTableRecord
100
AcDbLinetypeTableRecord
  2
ACAD_ISO07W100
 70
0
  3
ISO dot . . . . . . . . . . . . . . . . . . . . 
 72
65
 73
2
 40
3.0
 49
0.0
 74
0
 49
-3.0
 74
0
  0
LTYPE
  5
5D
100
AcDbSymbolTableRecord
100
AcDbLinetypeTableRecord
  2
FENCELINE2
 70
0
  3
Fenceline square ----[]-----[]----[]-----[]----[]---
 72
65
 73
4
 40
36.829999999999998
 49
6.3499999999999996
 74
0
 49
-2.54
 74
0
 49
-2.54
 74
0
 49
25.399999999999999
 74
0
  0
LTYPE
  5
5E
100
AcDbSymbolTableRecord
100
AcDbLinetypeTableRecord
  2
HIDDENX2
 70
0
  3
Hidden (2x) ____ ____ ____ ____ ____ ____ ____ 
 72
65
 73
2
 40
19.049999999999997
 49
12.699999999999999
 74
0
 49
-6.3499999999999996
 74
0
  0
LTYPE
  5
5F
100
AcDbSymbolTableRecord
100
AcDbLinetypeTableRecord
  2
ACAD_ISO03W100
 70
0
  3
ISO dash space __    __    __    __    __    __
 72
65
 73
2
 40
30.0
 49
12.0
 74
0
 49
-18.0
 74
0
  0
LTYPE
  5
14
100
AcDbSymbolTableRecord
100
AcDbLinetypeTableRecord
  2
BYBLOCK
 70
0
  3

 72
65
 73
0
 40
0.0
  0
ENDTAB
  0
TABLE
  2
LAYER
  5
2
100
AcDbSymbolTable
 70
1
  0
LAYER
  5
10
100
AcDbSymbolTableRecord
100
AcDbLayerTableRecord
  2
0
 70
0
 62
7
  6
Continuous
370
5
390
F
  0
ENDTAB
  0
TABLE
  2
STYLE
  5
3
100
AcDbSymbolTable
 70
1
  0
STYLE
  5
60
100
AcDbSymbolTableRecord
100
AcDbTextStyleTableRecord
  2
Standard
 70
0
 40
0.0
 41
1.0
 50
0.0
 71
0
 42
2.5
  3

  4

1001
ACAD
1000
txt
1071
0
  0
ENDTAB
  0
TABLE
  2
VIEW
  5
6
100
AcDbSymbolTable
 70
0
  0
ENDTAB
  0
TABLE
  2
UCS
  5
7
100
AcDbSymbolTable
 70
0
  0
ENDTAB
  0
TABLE
  2
APPID
  5
9
100
AcDbSymbolTable
 70
1
  0
APPID
  5
12
100
AcDbSymbolTableRecord
100
AcDbRegAppTableRecord
  2
ACAD
 70
0
  0
APPID
  5
61
100
AcDbSymbolTableRecord
100
AcDbRegAppTableRecord
  2
QCAD
 70
0
  0
ENDTAB
  0
TABLE
  2
DIMSTYLE
  5
A
100
AcDbSymbolTable
 70
1
100
AcDbDimStyleTable
 71
0
  0
DIMSTYLE
105
27
100
AcDbSymbolTableRecord
100
AcDbDimStyleTableRecord
  2
Standard
 41
0.18
 42
0.0625
 43
3.75
 44
0.18
 70
0
 73
0
 74
0
 77
1
 78
8
140
0.18
141
2.5
143
0.03937007874016
147
0.09
171
3
172
1
271
2
272
2
274
3
278
44
283
0
284
8
340
60
  0
ENDTAB
  0
TABLE
  2
BLOCK_RECORD
  5
1
100
AcDbSymbolTable
 70
1
  0
BLOCK_RECORD
  5
1F
100
AcDbSymbolTableRecord
100
AcDbBlockTableRecord
  2
*Model_Space
340
22
  0
BLOCK_RECORD
  5
1B
100
AcDbSymbolTableRecord
100
AcDbBlockTableRecord
  2
*Paper_Space
340
1E
  0
BLOCK_RECORD
  5
23
100
AcDbSymbolTableRecord
100
AcDbBlockTableRecord
  2
*Paper_Space0
340
26
  0
ENDTAB
  0
ENDSEC
  0
SECTION
  2
BLOCKS
  0
BLOCK
  5
20
100
AcDbEntity
  8
0
100
AcDbBlockBegin
  2
*Model_Space
 70
0
 10
0.0
 20
0.0
 30
0.0
  3
*Model_Space
  1

  0
ENDBLK
  5
21
100
AcDbEntity
  8
0
100
AcDbBlockEnd
  0
BLOCK
  5
1C
100
AcDbEntity
 67
1
  8
0
100
AcDbBlockBegin
  2
*Paper_Space
 70
0
 10
0.0
 20
0.0
 30
0.0
  3
*Paper_Space
  1

  0
ENDBLK
  5
1D
100
AcDbEntity
 67
1
  8
0
100
AcDbBlockEnd
  0
BLOCK
  5
24
100
AcDbEntity
  8
0
100
AcDbBlockBegin
  2
*Paper_Space0
 70
0
 10
0.0
 20
0.0
 30
0.0
  3
*Paper_Space0
  1

  0
ENDBLK
  5
25
100
AcDbEntity
  8
0
100
AcDbBlockEnd
  0
ENDSEC
  0
SECTION
  2
ENTITIES
  0
LWPOLYLINE
  5
62
100
AcDbEntity
  8
0
 62
256
370
-1
 48
1.0
  6
BYLAYER
100
AcDbPolyline
 90
6
 70
1
 10
146.00000000000003
 20
0.0
 10
0.0
 20
0.0
 10
0.0
 20
210.0
 10
146.0
 20
210.0
 42
-0.4142135623731054
 10
147.99999999999997
 20
207.99999999999997
 10
148.0
 20
2.0
 42
-0.4142135623730935
  0
CIRCLE
  5
63
100
AcDbEntity
  8
0
 62
256
370
-1
 48
1.0
  6
BYLAYER
100
AcDbCircle
 10
5.5
 20
195.0
 30
0.0
 40
2.4999999999999964
  0
CIRCLE
  5
64
100
AcDbEntity
  8
0
 62
256
370
-1
 48
1.0
  6
BYLAYER
100
AcDbCircle
 10
5.5
 20
185.5263157894737
 30
0.0
 40
2.4999999999999964
  0
CIRCLE
  5
65
100
AcDbEntity
  8
0
 62
256
370
-1
 48
1.0
  6
BYLAYER
100
AcDbCircle
 10
5.5
 20
176.05263157894737
 30
0.0
 40
2.4999999999999964
  0
CIRCLE
  5
66
100
AcDbEntity
  8
0
 62
256
370
-1
 48
1.0
  6
BYLAYER
100
AcDbCircle
 10
5.5
 20
166.57894736842107
 30
0.0
 40
2.4999999999999964
  0
CIRCLE
  5
67
100
AcDbEntity
  8
0
 62
256
370
-1
 48
1.0
  6
BYLAYER
100
AcDbCircle
 10
5.5
 20
157.10526315789474
 30
0.0
 40
2.4999999999999964
  0
CIRCLE
  5
68
100
AcDbEntity
  8
0
 62
256
370
-1
 48
1.0
  6
BYLAYER
100
AcDbCircle
 10
5.5
 20
147.63157894736844
 30
0.0
 40
2.4999999999999964
  0
CIRCLE
  5
69
100
AcDbEntity
  8
0
 62
256
370
-1
 48
1.0
  6
BYLAYER
100
AcDbCircle
 10
5.5
 20
138.15789473684211
 30
0.0
 40
2.4999999999999964
  0
CIRCLE
  5
6A
100
AcDbEntity
  8
0
 62
256
370
-1
 48
1.0
  6
BYLAYER
100
AcDbCircle
 10
5.5
 20
128.68421052631578
 30
0.0
 40
2.4999999999999964
  0
CIRCLE
  5
6B
100
AcDbEntity
  8
0
 62
256
370
-1
 48
1.0
  6
BYLAYER
100
AcDbCircle
 10
5.5
 20
119.21052631578948
 30
0.0
 40
2.4999999999999964
  0
CIRCLE
  5
6C
100
AcDbEntity
  8
0
 62
256
370
-1
 48
1.0
  6
BYLAYER
100
AcDbCircle
 10
5.5
 20
109.73684210526316
 30
0.0
 40
2.4999999999999964
  0
CIRCLE
  5
6D
100
AcDbEntity
  8
0
 62
256
370
-1
 48
1.0
  6
BYLAYER
100
AcDbCircle
 10
5.5
 20
100.26315789473685
 30
0.0
 40
2.4999999999999964
  0
CIRCLE
  5
6E
100
AcDbEntity
  8
0
 62
256
370
-1
 48
1.0
  6
BYLAYER
100
AcDbCircle
 10
5.5
 20
90.789473684210535
 30
0.0
 40
2.4999999999999964
  0
CIRCLE
  5
6F
100
AcDbEntity
  8
0
 62
256
370
-1
 48
1.0
  6
BYLAYER
100
AcDbCircle
 10
5.5
 20
81.31578947368422
 30
0.0
 40
2.4999999999999964
  0
CIRCLE
  5
70
100
AcDbEntity
  8
0
 62
256
370
-1
 48
1.0
  6
BYLAYER
100
AcDbCircle
 10
5.5
 20
71.84210526315789
 30
0.0
 40
2.4999999999999964
  0
CIRCLE
  5
71
100
AcDbEntity
  8
0
 62
256
370
-1
 48
1.0
  6
BYLAYER
100
AcDbCircle
 10
5.5
 20
62.368421052631589
 30
0.0
 40
2.4999999999999964
  0
CIRCLE
  5
72
100
AcDbEntity
  8
0
 62
256
370
-1
 48
1.0
  6
BYLAYER
100
AcDbCircle
 10
5.5
 20
52.894736842105274
 30
0.0
 40
2.4999999999999964
  0
CIRCLE
  5
73
100
AcDbEntity
  8
0
 62
256
370
-1
 48
1.0
  6
BYLAYER
100
AcDbCircle
 10
5.5
 20
43.421052631578959
 30
0.0
 40
2.4999999999999964
  0
CIRCLE
  5
74
100
AcDbEntity
  8
0
 62
256
370
-1
 48
1.0
  6
BYLAYER
100
AcDbCircle
 10
5.5
 20
33.947368421052637
 30
0.0
 40
2.4999999999999964
  0
CIRCLE
  5
75
100
AcDbEntity
  8
0
 62
256
370
-1
 48
1.0
  6
BYLAYER
100
AcDbCircle
 10
5.5
 20
24.473684210526336
 30
0.0
 40
2.4999999999999964
  0
CIRCLE
  5
76
100
AcDbEntity
  8
0
 62
256
370
-1
 48
1.0
  6
BYLAYER
100
AcDbCircle
 10
5.5
 20
15.0
 30
0.0
 40
2.4999999999999964
  0
CIRCLE
  5
77
100
AcDbEntity
  8
0
 62
256
370
-1
 48
1.0
  6
BYLAYER
100
AcDbCircle
 10
314.5
 20
81.31578947368422
 30
0.0
 40
2.4999999999999964
  0
CIRCLE
  5
78
100
AcDbEntity
  8
0
 62
256
370
-1
 48
1.0
  6
BYLAYER
100
AcDbCircle
 10
314.5
 20
119.21052631578948
 30
0.0
 40
2.4999999999999964
  0
CIRCLE
  5
79
100
AcDbEntity
  8
0
 62
256
370
-1
 48
1.0
  6
BYLAYER
100
AcDbCircle
 10
314.5
 20
52.894736842105274
 30
0.0
 40
2.4999999999999964
  0
LWPOLYLINE
  5
7A
100
AcDbEntity
  8
0
 62
256
370
-1
 48
1.0
  6
BYLAYER
100
AcDbPolyline
 90
6
 70
1
 10
172.00000000000003
 20
207.99999999999997
 10
172.0
 20
1.9999999999999998
 42
0.4142135623730961
 10
174.0
 20
0.0
 10
320.0
 20
0.0
 10
320.0
 20
210.0
 10
174.0
 20
210.0
 42
0.4142135623731054
  0
CIRCLE
  5
7B
100
AcDbEntity
  8
0
 62
256
370
-1
 48
1.0
  6
BYLAYER
100
AcDbCircle
 10
314.5
 20
71.84210526315789
 30
0.0
 40
2.4999999999999964
  0
CIRCLE
  5
7C
100
AcDbEntity
  8
0
 62
256
370
-1
 48
1.0
  6
BYLAYER
100
AcDbCircle
 10
314.5
 20
166.57894736842107
 30
0.0
 40
2.4999999999999964
  0
CIRCLE
  5
7D
100
AcDbEntity
  8
0
 62
256
370
-1
 48
1.0
  6
BYLAYER
100
AcDbCircle
 10
314.5
 20
90.789473684210535
 30
0.0
 40
2.4999999999999964
  0
CIRCLE
  5
7E
100
AcDbEntity
  8
0
 62
256
370
-1
 48
1.0
  6
BYLAYER
100
AcDbCircle
 10
314.5
 20
195.0
 30
0.0
 40
2.4999999999999964
  0
CIRCLE
  5
7F
100
AcDbEntity
  8
0
 62
256
370
-1
 48
1.0
  6
BYLAYER
100
AcDbCircle
 10
314.5
 20
15.0
 30
0.0
 40
2.4999999999999964
  0
CIRCLE
  5
80
100
AcDbEntity
  8
0
 62
256
370
-1
 48
1.0
  6
BYLAYER
100
AcDbCircle
 10
314.5
 20
33.947368421052637
 30
0.0
 40
2.4999999999999964
  0
CIRCLE
  5
81
100
AcDbEntity
  8
0
 62
256
370
-1
 48
1.0
  6
BYLAYER
100
AcDbCircle
 10
314.5
 20
24.473684210526336
 30
0.0
 40
2.4999999999999964
  0
CIRCLE
  5
82
100
AcDbEntity
  8
0
 62
256
370
-1
 48
1.0
  6
BYLAYER
100
AcDbCircle
 10
314.5
 20
43.421052631578959
 30
0.0
 40
2.4999999999999964
  0
CIRCLE
  5
83
100
AcDbEntity
  8
0
 62
256
370
-1
 48
1.0
  6
BYLAYER
100
AcDbCircle
 10
314.5
 20
157.10526315789474
 30
0.0
 40
2.4999999999999964
  0
CIRCLE
  5
84
100
AcDbEntity
  8
0
 62
256
370
-1
 48
1.0
  6
BYLAYER
100
AcDbCircle
 10
314.5
 20
176.05263157894737
 30
0.0
 40
2.4999999999999964
  0
CIRCLE
  5
85
100
AcDbEntity
  8
0
 62
256
370
-1
 48
1.0
  6
BYLAYER
100
AcDbCircle
 10
314.5
 20
109.73684210526316
 30
0.0
 40
2.4999999999999964
  0
CIRCLE
  5
86
100
AcDbEntity
  8
0
 62
256
370
-1
 48
1.0
  6
BYLAYER
100
AcDbCircle
 10
314.5
 20
185.5263157894737
 30
0.0
 40
2.4999999999999964
  0
CIRCLE
  5
87
100
AcDbEntity
  8
0
 62
256
370
-1
 48
1.0
  6
BYLAYER
100
AcDbCircle
 10
314.5
 20
128.68421052631578
 30
0.0
 40
2.4999999999999964
  0
CIRCLE
  5
88
100
AcDbEntity
  8
0
 62
256
370
-1
 48
1.0
  6
BYLAYER
100
AcDbCircle
 10
314.5
 20
147.63157894736844
 30
0.0
 40
2.4999999999999964
  0
CIRCLE
  5
89
100
AcDbEntity
  8
0
 62
256
370
-1
 48
1.0
  6
BYLAYER
100
AcDbCircle
 10
314.5
 20
138.15789473684211
 30
0.0
 40
2.4999999999999964
  0
CIRCLE
  5
8A
100
AcDbEntity
  8
0
 62
256
370
-1
 48
1.0
  6
BYLAYER
100
AcDbCircle
 10
314.5
 20
62.368421052631589
 30
0.0
 40
2.4999999999999964
  0
CIRCLE
  5
8B
100
AcDbEntity
  8
0
 62
256
370
-1
 48
1.0
  6
BYLAYER
100
AcDbCircle
 10
314.5
 20
100.26315789473685
 30
0.0
 40
2.4999999999999964
  0
LINE
  5
8C
100
AcDbEntity
  8
0
 62
1
420
16711680
370
-1
 48
1.0
  6
BYLAYER
100
AcDbLine
 10
67.592051324888757
 20
91.001570436032324
 30
0.0
 11
77.287694885934442
 21
89.33513440790847
 31
0.0
  0
SPLINE
  5
8D
100
AcDbEntity
  8
0
 62
1
420
16711680
370
-1
 48
1.0
  6
BYLAYER
100
AcDbSpline
 70
8
 71
3
 72
8
 73
4
 74
0
 40
0.0
 40
0.0
 40
0.0
 40
0.0
 40
1.0
 40
1.0
 40
1.0
 40
1.0
 10
77.287694885934442
 20
89.33513440790847
 30
0.0
 10
77.439186968835685
 20
89.33513440790847
 30
0.0
 10
77.439186968835685
 20
89.33513440790847
 30
0.0
 10
77.590684830789456
 20
89.33513440790847
 30
0.0
  0
SPLINE
  5
8E
100
AcDbEntity
  8
0
 62
1
420
16711680
370
-1
 48
1.0
  6
BYLAYER
100
AcDbSpline
 70
8
 71
3
 72
8
 73
4
 74
0
 40
0.0
 40
0.0
 40
0.0
 40
0.0
 40
1.0
 40
1.0
 40
1.0
 40
1.0
 10
77.590684830789456
 20
89.33513440790847
 30
0.0
 10
77.742176913690713
 20
89.33513440790847
 30
0.0
 10
77.742176913690713
 20
89.33513440790847
 30
0.0
 10
77.893674775644484
 20
89.33513440790847
 30
0.0
  0
LINE
  5
8F
100
AcDbEntity
  8
0
 62
1
420
16711680
370
-1
 48
1.0
  6
BYLAYER
100
AcDbLine
 10
77.893674775644484
 20
89.33513440790847
 30
0.0
 11
87.58931833669017
 21
91.001570436032324
 31
0.0
  0
SPLINE
  5
90
100
AcDbEntity
  8
0
 62
1
420
16711680
370
-1
 48
1.0
  6
BYLAYER
100
AcDbSpline
 70
8
 71
3
 72
8
 73
4
 74
0
 40
0.0
 40
0.0
 40
0.0
 40
0.0
 40
1.0
 40
1.0
 40
1.0
 40
1.0
 10
87.58931833669017
 20
91.001570436032324
 30
0.0
 10
88.04380036444644
 20
91.153062518933581
 30
0.0
 10
88.498282392202725
 20
91.456058242841124
 30
0.0
 10
88.649780254156497
 20
91.91053449154488
 30
0.0
  0
LINE
  5
91
100
AcDbEntity
  8
0
 62
1
420
16711680
370
-1
 48
1.0
  6
BYLAYER
100
AcDbLine
 10
88.649780254156468
 20
91.910534491544894
 30
0.0
 11
91.831160227502949
 21
98.87927432794784
 31
0.0
  0
SPLINE
  5
92
100
AcDbEntity
  8
0
 62
1
420
16711680
370
-1
 48
1.0
  6
BYLAYER
100
AcDbSpline
 70
8
 71
3
 72
8
 73
4
 74
0
 40
0.0
 40
0.0
 40
0.0
 40
0.0
 40
1.0
 40
1.0
 40
1.0
 40
1.0
 10
91.831160227502963
 20
98.87927432794784
 30
0.0
 10
91.982652310404205
 20
99.333762134756654
 30
0.0
 10
91.982652310404205
 20
99.788238383460396
 30
0.0
 10
91.831160227502963
 20
100.09123410736794
 30
0.0
  0
SPLINE
  5
93
100
AcDbEntity
  8
0
 62
1
420
16711680
370
-1
 48
1.0
  6
BYLAYER
100
AcDbSpline
 70
8
 71
3
 72
8
 73
4
 74
0
 40
0.0
 40
0.0
 40
0.0
 40
0.0
 40
1.0
 40
1.0
 40
1.0
 40
1.0
 10
91.831160227502963
 20
100.09123410736794
 30
0.0
 10
91.679668144601706
 20
100.54572191417675
 30
0.0
 10
91.376678199746678
 20
100.84870607997927
 30
0.0
 10
90.922196171990407
 20
100.84870607997927
 30
0.0
  0
LINE
  5
94
100
AcDbEntity
  8
0
 62
1
420
16711680
370
-1
 48
1.0
  6
BYLAYER
100
AcDbLine
 10
90.922196171990407
 20
100.84870607997927
 30
0.0
 11
78.045172637598256
 21
104.78755802593703
 31
0.0
  0
LINE
  5
95
100
AcDbEntity
  8
0
 62
1
420
16711680
370
-1
 48
1.0
  6
BYLAYER
100
AcDbLine
 10
78.045172637598256
 20
104.78755802593703
 30
0.0
 11
77.893680554697013
 21
104.78755802593702
 31
0.0
  0
SPLINE
  5
96
100
AcDbEntity
  8
0
 62
1
420
16711680
370
-1
 48
1.0
  6
BYLAYER
100
AcDbSpline
 70
8
 71
3
 72
8
 73
4
 74
0
 40
0.0
 40
0.0
 40
0.0
 40
0.0
 40
1.0
 40
1.0
 40
1.0
 40
1.0
 10
77.893680554697013
 20
104.78755802593702
 30
0.0
 10
77.742188471795757
 20
104.78755802593702
 30
0.0
 10
77.742188471795757
 20
104.78755802593702
 30
0.0
 10
77.590690609841985
 20
104.78755802593702
 30
0.0
  0
SPLINE
  5
97
100
AcDbEntity
  8
0
 62
1
420
16711680
370
-1
 48
1.0
  6
BYLAYER
100
AcDbSpline
 70
8
 71
3
 72
8
 73
4
 74
0
 40
0.0
 40
0.0
 40
0.0
 40
0.0
 40
1.0
 40
1.0
 40
1.0
 40
1.0
 10
77.590690609841985
 20
104.78755802593702
 30
0.0
 10
77.439198526940743
 20
104.78755802593702
 30
0.0
 10
77.439198526940743
 20
104.78755802593702
 30
0.0
 10
77.287700664986957
 20
104.78755802593702
 30
0.0
  0
LINE
  5
98
100
AcDbEntity
  8
0
 62
1
420
16711680
370
-1
 48
1.0
  6
BYLAYER
100
AcDbLine
 10
77.287700664986957
 20
104.78755802593702
 30
0.0
 11
77.136208582085715
 21
104.78755802593702
 31
0.0
  0
LINE
  5
99
100
AcDbEntity
  8
0
 62
1
420
16711680
370
-1
 48
1.0
  6
BYLAYER
100
AcDbLine
 10
77.136208582085715
 20
104.78755802593702
 30
0.0
 11
64.259185047693563
 21
100.84870607997925
 31
0.0
  0
SPLINE
  5
9A
100
AcDbEntity
  8
0
 62
1
420
16711680
370
-1
 48
1.0
  6
BYLAYER
100
AcDbSpline
 70
8
 71
3
 72
8
 73
4
 74
0
 40
0.0
 40
0.0
 40
0.0
 40
0.0
 40
1.0
 40
1.0
 40
1.0
 40
1.0
 10
64.259185047693578
 20
100.84870607997927
 30
0.0
 10
63.804703019937293
 20
100.69721399707801
 30
0.0
 10
63.501713075082264
 20
100.39421827317045
 30
0.0
 10
63.350220992181015
 20
100.09123410736794
 30
0.0
  0
SPLINE
  5
9B
100
AcDbEntity
  8
0
 62
1
420
16711680
370
-1
 48
1.0
  6
BYLAYER
100
AcDbSpline
 70
8
 71
3
 72
8
 73
4
 74
0
 40
0.0
 40
0.0
 40
0.0
 40
0.0
 40
1.0
 40
1.0
 40
1.0
 40
1.0
 10
63.350220992181015
 20
100.09123410736794
 30
0.0
 10
63.198728909279765
 20
99.636746300559139
 30
0.0
 10
63.198728909279765
 20
99.182270051855411
 30
0.0
 10
63.350220992181015
 20
98.87927432794784
 30
0.0
  0
LINE
  5
9C
100
AcDbEntity
  8
0
 62
1
420
16711680
370
-1
 48
1.0
  6
BYLAYER
100
AcDbLine
 10
63.350220992181015
 20
98.879274327947854
 30
0.0
 11
66.531600965527474
 21
91.91053449154488
 31
0.0
  0
SPLINE
  5
9D
100
AcDbEntity
  8
0
 62
1
420
16711680
370
-1
 48
1.0
  6
BYLAYER
100
AcDbSpline
 70
8
 71
3
 72
8
 73
4
 74
0
 40
0.0
 40
0.0
 40
0.0
 40
0.0
 40
1.0
 40
1.0
 40
1.0
 40
1.0
 10
66.531600965527474
 20
91.91053449154488
 30
0.0
 10
66.683081490323673
 20
91.45604668473608
 30
0.0
 10
67.137563518079958
 20
91.153062518933581
 30
0.0
 10
67.592051324888757
 20
91.001570436032324
 30
0.0
  0
LWPOLYLINE
  5
9E
100
AcDbEntity
  8
0
 62
1
420
16711680
370
-1
 48
1.0
  6
BYLAYER
100
AcDbPolyline
 90
6
 70
1
 10
88.34677875119641
 20
98.424798079244084
 10
77.590679051736927
 20
101.75767013549179
 10
66.834567794172401
 20
98.424798079244113
 10
68.955491629105055
 20
93.72847416067502
 10
77.590673272684413
 20
92.213530215452437
 10
86.225854916263756
 20
93.72847416067502
  0
LINE
  5
9F
100
AcDbEntity
  8
0
 62
1
420
16711680
370
-1
 48
1.0
  6
BYLAYER
100
AcDbLine
 10
71.076421243090238
 20
141.60069473903579
 30
0.0
 11
65.016645462199818
 21
145.53954668499355
 31
0.0
  0
SPLINE
  5
A0
100
AcDbEntity
  8
0
 62
1
420
16711680
370
-1
 48
1.0
  6
BYLAYER
100
AcDbSpline
 70
8
 71
3
 72
8
 73
4
 74
0
 40
0.0
 40
0.0
 40
0.0
 40
0.0
 40
1.0
 40
1.0
 40
1.0
 40
1.0
 10
65.016645462199818
 20
145.53954668499355
 30
0.0
 10
64.25917348958852
 20
145.99402871274984
 30
0.0
 10
63.350209434075964
 20
145.84253662984861
 30
0.0
 10
62.895721627267164
 20
145.0850646572373
 30
0.0
  0
SPLINE
  5
A1
100
AcDbEntity
  8
0
 62
1
420
16711680
370
-1
 48
1.0
  6
BYLAYER
100
AcDbSpline
 70
8
 71
3
 72
8
 73
4
 74
0
 40
0.0
 40
0.0
 40
0.0
 40
0.0
 40
1.0
 40
1.0
 40
1.0
 40
1.0
 10
62.895721627267164
 20
145.0850646572373
 30
0.0
 10
62.441239599510887
 20
144.32759268462598
 30
0.0
 10
62.592731682412143
 20
143.41862862911344
 30
0.0
 10
63.350203655023442
 20
142.96414082230461
 30
0.0
  0
LINE
  5
A2
100
AcDbEntity
  8
0
 62
1
420
16711680
370
-1
 48
1.0
  6
BYLAYER
100
AcDbLine
 10
63.350203655023442
 20
142.96414082230461
 30
0.0
 11
67.592045545836228
 21
140.23724287671445
 31
0.0
  0
SPLINE
  5
A3
100
AcDbEntity
  8
0
 62
1
420
16711680
370
-1
 48
1.0
  6
BYLAYER
100
AcDbSpline
 70
8
 71
3
 72
8
 73
4
 74
0
 40
0.0
 40
0.0
 40
0.0
 40
0.0
 40
1.0
 40
1.0
 40
1.0
 40
1.0
 10
67.592045545836228
 20
140.23724287671445
 30
0.0
 10
66.228593683514873
 20
140.3887349596157
 30
0.0
 10
64.259167710535991
 20
140.69172490447073
 30
0.0
 10
61.229279820090781
 20
140.99471484932576
 30
0.0
  0
SPLINE
  5
A4
100
AcDbEntity
  8
0
 62
1
420
16711680
370
-1
 48
1.0
  6
BYLAYER
100
AcDbSpline
 70
8
 71
3
 72
8
 73
4
 74
0
 40
0.0
 40
0.0
 40
0.0
 40
0.0
 40
1.0
 40
1.0
 40
1.0
 40
1.0
 10
61.229279820090781
 20
140.99471484932576
 30
0.0
 10
60.926289875235753
 20
140.99471484932576
 30
0.0
 10
60.623299930380732
 20
140.99471484932576
 30
0.0
 10
60.320315764578226
 20
140.8432227664245
 30
0.0
  0
LINE
  5
A5
100
AcDbEntity
  8
0
 62
1
420
16711680
370
-1
 48
1.0
  6
BYLAYER
100
AcDbLine
 10
60.320315764578218
 20
140.8432227664245
 30
0.0
 11
54.109047900786564
 21
137.05586290336799
 31
0.0
  0
SPLINE
  5
A6
100
AcDbEntity
  8
0
 62
1
420
16711680
370
-1
 48
1.0
  6
BYLAYER
100
AcDbSpline
 70
8
 71
3
 72
8
 73
4
 74
0
 40
0.0
 40
0.0
 40
0.0
 40
0.0
 40
1.0
 40
1.0
 40
1.0
 40
1.0
 10
54.109047900786564
 20
137.05586290336799
 30
0.0
 10
53.351575928175265
 20
136.60138087561171
 30
0.0
 10
53.200083845274008
 20
135.69241104104663
 30
0.0
 10
53.654565873030286
 20
134.93493906843531
 30
0.0
  0
SPLINE
  5
A7
100
AcDbEntity
  8
0
 62
1
420
16711680
370
-1
 48
1.0
  6
BYLAYER
100
AcDbSpline
 70
8
 71
3
 72
8
 73
4
 74
0
 40
0.0
 40
0.0
 40
0.0
 40
0.0
 40
1.0
 40
1.0
 40
1.0
 40
1.0
 10
53.654565873030286
 20
134.93493906843531
 30
0.0
 10
53.957555817885314
 20
134.48045704067906
 30
0.0
 10
54.412037845641592
 20
134.17746709582403
 30
0.0
 10
55.018017735351641
 20
134.17746709582403
 30
0.0
  0
SPLINE
  5
A8
100
AcDbEntity
  8
0
 62
1
420
16711680
370
-1
 48
1.0
  6
BYLAYER
100
AcDbSpline
 70
8
 71
3
 72
8
 73
4
 74
0
 40
0.0
 40
0.0
 40
0.0
 40
0.0
 40
1.0
 40
1.0
 40
1.0
 40
1.0
 10
55.018017735351641
 20
134.17746709582403
 30
0.0
 10
55.321007680206662
 20
134.17746709582403
 30
0.0
 10
55.623997625061691
 20
134.17746709582403
 30
0.0
 10
55.77548970796294
 20
134.32895917872528
 30
0.0
  0
LINE
  5
A9
100
AcDbEntity
  8
0
 62
1
420
16711680
370
-1
 48
1.0
  6
BYLAYER
100
AcDbLine
 10
55.775489707962947
 20
134.32895917872528
 30
0.0
 11
59.562849571019456
 21
136.6013750965592
 31
0.0
  0
LINE
  5
AA
100
AcDbEntity
  8
0
 62
1
420
16711680
370
-1
 48
1.0
  6
BYLAYER
100
AcDbLine
 10
59.562849571019456
 20
136.6013750965592
 30
0.0
 11
62.744229544365915
 21
132.2080353437926
 31
0.0
  0
SPLINE
  5
AB
100
AcDbEntity
  8
0
 62
1
420
16711680
370
-1
 48
1.0
  6
BYLAYER
100
AcDbSpline
 70
8
 71
3
 72
8
 73
4
 74
0
 40
0.0
 40
0.0
 40
0.0
 40
0.0
 40
1.0
 40
1.0
 40
1.0
 40
1.0
 10
62.744229544365915
 20
132.20803534379263
 30
0.0
 10
63.047219489220936
 20
131.75355331603635
 30
0.0
 10
63.501701516977214
 20
131.60205545408257
 30
0.0
 10
63.956183544733491
 20
131.60205545408257
 30
0.0
  0
SPLINE
  5
AC
100
AcDbEntity
  8
0
 62
1
420
16711680
370
-1
 48
1.0
  6
BYLAYER
100
AcDbSpline
 70
8
 71
3
 72
8
 73
4
 74
0
 40
0.0
 40
0.0
 40
0.0
 40
0.0
 40
1.0
 40
1.0
 40
1.0
 40
1.0
 10
63.956183544733491
 20
131.60205545408257
 30
0.0
 10
64.25917348958852
 20
131.60205545408257
 30
0.0
 10
64.562163434443548
 20
131.75354753698383
 30
0.0
 10
64.865147600246047
 20
131.9050453989376
 30
0.0
  0
LINE
  5
AD
100
AcDbEntity
  8
0
 62
1
420
16711680
370
-1
 48
1.0
  6
BYLAYER
100
AcDbLine
 10
64.865147600246061
 20
131.9050453989376
 30
0.0
 11
68.955497408157584
 21
134.63194334452777
 31
0.0
  0
LINE
  5
AE
100
AcDbEntity
  8
0
 62
1
420
16711680
370
-1
 48
1.0
  6
BYLAYER
100
AcDbLine
 10
68.955497408157584
 20
134.63194334452777
 30
0.0
 11
68.955497408157584
 21
128.87515750849241
 31
0.0
  0
SPLINE
  5
AF
100
AcDbEntity
  8
0
 62
1
420
16711680
370
-1
 48
1.0
  6
BYLAYER
100
AcDbSpline
 70
8
 71
3
 72
8
 73
4
 74
0
 40
0.0
 40
0.0
 40
0.0
 40
0.0
 40
1.0
 40
1.0
 40
1.0
 40
1.0
 10
68.955497408157584
 20
128.87515750849241
 30
0.0
 10
68.955497408157584
 20
127.96619345297984
 30
0.0
 10
69.561477297867626
 20
127.3602135632698
 30
0.0
 10
70.470441353380181
 20
127.3602135632698
 30
0.0
  0
SPLINE
  5
B0
100
AcDbEntity
  8
0
 62
1
420
16711680
370
-1
 48
1.0
  6
BYLAYER
100
AcDbSpline
 70
8
 71
3
 72
8
 73
4
 74
0
 40
0.0
 40
0.0
 40
0.0
 40
0.0
 40
1.0
 40
1.0
 40
1.0
 40
1.0
 10
70.470441353380181
 20
127.3602135632698
 30
0.0
 10
71.379405408892737
 20
127.3602135632698
 30
0.0
 10
71.985385298602793
 20
127.96619345297984
 30
0.0
 10
71.985385298602793
 20
128.87515750849241
 30
0.0
  0
LINE
  5
B1
100
AcDbEntity
  8
0
 62
1
420
16711680
370
-1
 48
1.0
  6
BYLAYER
100
AcDbLine
 10
71.985385298602779
 20
128.87515750849241
 30
0.0
 11
71.985385298602793
 21
140.38874073866825
 31
0.0
  0
SPLINE
  5
B2
100
AcDbEntity
  8
0
 62
1
420
16711680
370
-1
 48
1.0
  6
BYLAYER
100
AcDbSpline
 70
8
 71
3
 72
8
 73
4
 74
0
 40
0.0
 40
0.0
 40
0.0
 40
0.0
 40
1.0
 40
1.0
 40
1.0
 40
1.0
 10
71.985385298602793
 20
140.38874073866822
 30
0.0
 10
71.682395353747765
 20
140.8432227664245
 30
0.0
 10
71.379411187945266
 20
141.29770479418079
 30
0.0
 10
71.076421243090238
 20
141.60069473903579
 30
0.0
  0
LINE
  5
B3
100
AcDbEntity
  8
0
 62
1
420
16711680
370
-1
 48
1.0
  6
BYLAYER
100
AcDbLine
 10
64.107675627634734
 20
135.38942687524414
 30
0.0
 11
62.289741737557108
 21
137.96483273793308
 31
0.0
  0
SPLINE
  5
B4
100
AcDbEntity
  8
0
 62
1
420
16711680
370
-1
 48
1.0
  6
BYLAYER
100
AcDbSpline
 70
8
 71
3
 72
8
 73
4
 74
0
 40
0.0
 40
0.0
 40
0.0
 40
0.0
 40
1.0
 40
1.0
 40
1.0
 40
1.0
 10
62.289741737557108
 20
137.96483273793308
 30
0.0
 10
63.956177765680962
 20
137.81334065503182
 30
0.0
 10
65.774111655758588
 20
137.51035071017679
 30
0.0
 10
66.986065656126186
 20
137.35885284822302
 30
0.0
  0
LINE
  5
B5
100
AcDbEntity
  8
0
 62
1
420
16711680
370
-1
 48
1.0
  6
BYLAYER
100
AcDbLine
 10
66.986065656126186
 20
137.35885284822302
 30
0.0
 11
64.107675627634734
 21
135.38942687524414
 31
0.0
  0
SPLINE
  5
B6
100
AcDbEntity
  8
0
 62
1
420
16711680
370
-1
 48
1.0
  6
BYLAYER
100
AcDbSpline
 70
8
 71
3
 72
8
 73
4
 74
0
 40
0.0
 40
0.0
 40
0.0
 40
0.0
 40
1.0
 40
1.0
 40
1.0
 40
1.0
 10
103.79921392733002
 20
147.20598849216995
 30
0.0
 10
103.64772184442876
 20
147.50897843702495
 30
0.0
 10
103.49622976152752
 20
147.81196838187998
 30
0.0
 10
103.19323403761997
 20
148.11495254768249
 30
0.0
  0
LINE
  5
B7
100
AcDbEntity
  8
0
 62
1
420
16711680
370
-1
 48
1.0
  6
BYLAYER
100
AcDbLine
 10
103.19323403761996
 20
148.11495254768252
 30
0.0
 11
92.588626421061733
 21
155.84116724622302
 31
0.0
  0
SPLINE
  5
B8
100
AcDbEntity
  8
0
 62
1
420
16711680
370
-1
 48
1.0
  6
BYLAYER
100
AcDbSpline
 70
8
 71
3
 72
8
 73
4
 74
0
 40
0.0
 40
0.0
 40
0.0
 40
0.0
 40
1.0
 40
1.0
 40
1.0
 40
1.0
 10
92.588626421061733
 20
155.84116724622302
 30
0.0
 10
92.285636476206719
 20
156.14415719107808
 30
0.0
 10
91.831154448450434
 20
156.14415719107808
 30
0.0
 10
91.528164503595391
 20
156.14415719107808
 30
0.0
  0
LINE
  5
B9
100
AcDbEntity
  8
0
 62
1
420
16711680
370
-1
 48
1.0
  6
BYLAYER
100
AcDbLine
 10
91.528164503595377
 20
156.14415719107808
 30
0.0
 11
79.408612941814567
 21
154.62921324585548
 31
0.0
  0
LINE
  5
BA
100
AcDbEntity
  8
0
 62
1
420
16711680
370
-1
 48
1.0
  6
BYLAYER
100
AcDbLine
 10
79.408612941814567
 20
154.62921324585548
 30
0.0
 11
82.892982860016048
 21
170.99060958797534
 31
0.0
  0
LINE
  5
BB
100
AcDbEntity
  8
0
 62
1
420
16711680
370
-1
 48
1.0
  6
BYLAYER
100
AcDbLine
 10
82.892982860016048
 20
170.99060958797534
 30
0.0
 11
88.952758640906481
 21
175.38394645121565
 31
0.0
  0
SPLINE
  5
BC
100
AcDbEntity
  8
0
 62
1
420
16711680
370
-1
 48
1.0
  6
BYLAYER
100
AcDbSpline
 70
8
 71
3
 72
8
 73
4
 74
0
 40
0.0
 40
0.0
 40
0.0
 40
0.0
 40
1.0
 40
1.0
 40
1.0
 40
1.0
 10
88.952758640906467
 20
175.38394645121565
 30
0.0
 10
89.558738530616523
 20
175.83842847897191
 30
0.0
 10
89.71023061351778
 20
176.89889039643822
 30
0.0
 10
89.255748585761495
 20
177.50486739662205
 30
0.0
  0
SPLINE
  5
BD
100
AcDbEntity
  8
0
 62
1
420
16711680
370
-1
 48
1.0
  6
BYLAYER
100
AcDbSpline
 70
8
 71
3
 72
8
 73
4
 74
0
 40
0.0
 40
0.0
 40
0.0
 40
0.0
 40
1.0
 40
1.0
 40
1.0
 40
1.0
 10
89.255748585761495
 20
177.50486739662205
 30
0.0
 10
88.801266558005224
 20
178.11084439680585
 30
0.0
 10
87.740804640538883
 20
178.26233936923333
 30
0.0
 10
87.134824750828841
 20
177.80785589671393
 30
0.0
  0
LINE
  5
BE
100
AcDbEntity
  8
0
 62
1
420
16711680
370
-1
 48
1.0
  6
BYLAYER
100
AcDbLine
 10
87.134824750828841
 20
177.80785589671393
 30
0.0
 11
80.469069080228365
 21
172.96003556095422
 31
0.0
  0
SPLINE
  5
BF
100
AcDbEntity
  8
0
 62
1
420
16711680
370
-1
 48
1.0
  6
BYLAYER
100
AcDbSpline
 70
8
 71
3
 72
8
 73
4
 74
0
 40
0.0
 40
0.0
 40
0.0
 40
0.0
 40
1.0
 40
1.0
 40
1.0
 40
1.0
 10
80.469069080228365
 20
172.96003556095422
 30
0.0
 10
80.166079135373352
 20
172.80854058852671
 30
0.0
 10
80.014587052472095
 20
172.35405856077045
 30
0.0
 10
79.863089190518309
 20
172.05106861591543
 30
0.0
  0
LINE
  5
C0
100
AcDbEntity
  8
0
 62
1
420
16711680
370
-1
 48
1.0
  6
BYLAYER
100
AcDbLine
 10
79.863089190518309
 20
172.05106861591545
 30
0.0
 11
77.590679051736927
 21
160.0830120265621
 31
0.0
  0
LINE
  5
C1
100
AcDbEntity
  8
0
 62
1
420
16711680
370
-1
 48
1.0
  6
BYLAYER
100
AcDbLine
 10
77.590679051736927
 20
160.0830120265621
 30
0.0
 11
75.015273189048003
 21
172.20256358834294
 31
0.0
  0
SPLINE
  5
C2
100
AcDbEntity
  8
0
 62
1
420
16711680
370
-1
 48
1.0
  6
BYLAYER
100
AcDbSpline
 70
8
 71
3
 72
8
 73
4
 74
0
 40
0.0
 40
0.0
 40
0.0
 40
0.0
 40
1.0
 40
1.0
 40
1.0
 40
1.0
 10
75.015273189048003
 20
172.20256358834291
 30
0.0
 10
74.863781106146746
 20
172.50555353319794
 30
0.0
 10
74.712283244192975
 20
172.96003556095422
 30
0.0
 10
74.409293299337946
 20
173.11153053338174
 30
0.0
  0
LINE
  5
C3
100
AcDbEntity
  8
0
 62
1
420
16711680
370
-1
 48
1.0
  6
BYLAYER
100
AcDbLine
 10
74.409293299337946
 20
173.11153053338174
 30
0.0
 11
67.743537628737471
 21
177.95935086914145
 31
0.0
  0
SPLINE
  5
C4
100
AcDbEntity
  8
0
 62
1
420
16711680
370
-1
 48
1.0
  6
BYLAYER
100
AcDbSpline
 70
8
 71
3
 72
8
 73
4
 74
0
 40
0.0
 40
0.0
 40
0.0
 40
0.0
 40
1.0
 40
1.0
 40
1.0
 40
1.0
 10
67.743537628737471
 20
177.95935086914145
 30
0.0
 10
67.137557739027429
 20
178.41383434166087
 30
0.0
 10
66.077101600613616
 20
178.26233936923333
 30
0.0
 10
65.622613793804817
 20
177.65636236904953
 30
0.0
  0
SPLINE
  5
C5
100
AcDbEntity
  8
0
 62
1
420
16711680
370
-1
 48
1.0
  6
BYLAYER
100
AcDbSpline
 70
8
 71
3
 72
8
 73
4
 74
0
 40
0.0
 40
0.0
 40
0.0
 40
0.0
 40
1.0
 40
1.0
 40
1.0
 40
1.0
 10
65.622613793804817
 20
177.65636236904953
 30
0.0
 10
65.168131766048546
 20
177.05038536886576
 30
0.0
 10
65.319623848949803
 20
175.98992345139945
 30
0.0
 10
65.925603738659845
 20
175.53544142364316
 30
0.0
  0
LINE
  5
C6
100
AcDbEntity
  8
0
 62
1
420
16711680
370
-1
 48
1.0
  6
BYLAYER
100
AcDbLine
 10
65.925603738659845
 20
175.53544142364316
 30
0.0
 11
71.985379519550264
 21
171.14210456040286
 31
0.0
  0
LINE
  5
C7
100
AcDbEntity
  8
0
 62
1
420
16711680
370
-1
 48
1.0
  6
BYLAYER
100
AcDbLine
 10
71.985379519550264
 20
171.14210456040286
 30
0.0
 11
75.469749437751744
 21
154.78070821828297
 31
0.0
  0
LINE
  5
C8
100
AcDbEntity
  8
0
 62
1
420
16711680
370
-1
 48
1.0
  6
BYLAYER
100
AcDbLine
 10
75.469749437751744
 20
154.78070821828297
 30
0.0
 11
63.350197875970913
 21
156.29565216350557
 31
0.0
  0
SPLINE
  5
C9
100
AcDbEntity
  8
0
 62
1
420
16711680
370
-1
 48
1.0
  6
BYLAYER
100
AcDbSpline
 70
8
 71
3
 72
8
 73
4
 74
0
 40
0.0
 40
0.0
 40
0.0
 40
0.0
 40
1.0
 40
1.0
 40
1.0
 40
1.0
 10
63.350197875970913
 20
156.29565216350557
 30
0.0
 10
62.895715848214635
 20
156.29565216350557
 30
0.0
 10
62.592725903359614
 20
156.29565216350557
 30
0.0
 10
62.289735958504586
 20
155.99266221865054
 30
0.0
  0
LINE
  5
CA
100
AcDbEntity
  8
0
 62
1
420
16711680
370
-1
 48
1.0
  6
BYLAYER
100
AcDbLine
 10
62.289735958504579
 20
155.99266221865054
 30
0.0
 11
51.685128341946353
 21
148.26645040963626
 31
0.0
  0
SPLINE
  5
CB
100
AcDbEntity
  8
0
 62
1
420
16711680
370
-1
 48
1.0
  6
BYLAYER
100
AcDbSpline
 70
8
 71
3
 72
8
 73
4
 74
0
 40
0.0
 40
0.0
 40
0.0
 40
0.0
 40
1.0
 40
1.0
 40
1.0
 40
1.0
 10
51.68512834194636
 20
148.26645040963626
 30
0.0
 10
51.382138397091325
 20
148.11495832673504
 30
0.0
 10
51.230646314190082
 20
147.81196838187998
 30
0.0
 10
51.079148452236296
 20
147.35748635412372
 30
0.0
  0
LINE
  5
CC
100
AcDbEntity
  8
0
 62
1
420
16711680
370
-1
 48
1.0
  6
BYLAYER
100
AcDbLine
 10
51.079148452236289
 20
147.35748635412372
 30
0.0
 11
47.443283561607295
 21
132.66252892965394
 31
0.0
  0
SPLINE
  5
CD
100
AcDbEntity
  8
0
 62
1
420
16711680
370
-1
 48
1.0
  6
BYLAYER
100
AcDbSpline
 70
8
 71
3
 72
8
 73
4
 74
0
 40
0.0
 40
0.0
 40
0.0
 40
0.0
 40
1.0
 40
1.0
 40
1.0
 40
1.0
 10
47.443283561607302
 20
132.66252892965394
 30
0.0
 10
47.291788589179788
 20
132.20804690189769
 30
0.0
 10
47.443283561607302
 20
131.7535648741414
 30
0.0
 10
47.74627350646233
 20
131.2990770673326
 30
0.0
  0
LINE
  5
CE
100
AcDbEntity
  8
0
 62
1
420
16711680
370
-1
 48
1.0
  6
BYLAYER
100
AcDbLine
 10
47.746273506462316
 20
131.2990770673326
 30
0.0
 11
55.472488205002861
 21
122.05792131309572
 31
0.0
  0
SPLINE
  5
CF
100
AcDbEntity
  8
0
 62
1
420
16711680
370
-1
 48
1.0
  6
BYLAYER
100
AcDbSpline
 70
8
 71
3
 72
8
 73
4
 74
0
 40
0.0
 40
0.0
 40
0.0
 40
0.0
 40
1.0
 40
1.0
 40
1.0
 40
1.0
 10
55.472488205002861
 20
122.05792131309572
 30
0.0
 10
55.926970232759139
 20
121.45194142338568
 30
0.0
 10
56.835940067324216
 20
121.30044934048442
 30
0.0
 10
57.441914177981744
 20
121.7549313682407
 30
0.0
  0
LINE
  5
D0
100
AcDbEntity
  8
0
 62
1
420
16711680
370
-1
 48
1.0
  6
BYLAYER
100
AcDbLine
 10
57.441914177981758
 20
121.7549313682407
 30
0.0
 11
61.07778195813701
 21
124.02734728607462
 31
0.0
  0
LINE
  5
D1
100
AcDbEntity
  8
0
 62
1
420
16711680
370
-1
 48
1.0
  6
BYLAYER
100
AcDbLine
 10
61.07778195813701
 20
124.02734728607462
 30
0.0
 11
56.229960177614167
 21
113.57423175241762
 31
0.0
  0
SPLINE
  5
D2
100
AcDbEntity
  8
0
 62
1
420
16711680
370
-1
 48
1.0
  6
BYLAYER
100
AcDbSpline
 70
8
 71
3
 72
8
 73
4
 74
0
 40
0.0
 40
0.0
 40
0.0
 40
0.0
 40
1.0
 40
1.0
 40
1.0
 40
1.0
 10
56.229960177614167
 20
113.57423175241762
 30
0.0
 10
56.078468094712917
 20
113.11974972466133
 30
0.0
 10
56.078468094712917
 20
112.51376983495129
 30
0.0
 10
56.381452260515417
 20
112.05928780719502
 30
0.0
  0
LINE
  5
D3
100
AcDbEntity
  8
0
 62
1
420
16711680
370
-1
 48
1.0
  6
BYLAYER
100
AcDbLine
 10
56.381452260515417
 20
112.05928780719502
 30
0.0
 11
61.835248151695779
 21
104.03008605332572
 31
0.0
  0
SPLINE
  5
D4
100
AcDbEntity
  8
0
 62
1
420
16711680
370
-1
 48
1.0
  6
BYLAYER
100
AcDbSpline
 70
8
 71
3
 72
8
 73
4
 74
0
 40
0.0
 40
0.0
 40
0.0
 40
0.0
 40
1.0
 40
1.0
 40
1.0
 40
1.0
 10
61.835248151695779
 20
104.03008605332572
 30
0.0
 10
62.138238096550815
 20
103.5755982465169
 30
0.0
 10
62.592720124307093
 20
103.42410616361565
 30
0.0
 10
63.047202152063363
 20
103.42410616361565
 30
0.0
  0
SPLINE
  5
D5
100
AcDbEntity
  8
0
 62
1
420
16711680
370
-1
 48
1.0
  6
BYLAYER
100
AcDbSpline
 70
8
 71
3
 72
8
 73
4
 74
0
 40
0.0
 40
0.0
 40
0.0
 40
0.0
 40
1.0
 40
1.0
 40
1.0
 40
1.0
 10
63.047202152063363
 20
103.42410616361565
 30
0.0
 10
63.19869423496462
 20
103.42410616361565
 30
0.0
 10
63.350192096918391
 20
103.42410616361565
 30
0.0
 10
63.501684179819634
 20
103.5755982465169
 30
0.0
  0
LINE
  5
D6
100
AcDbEntity
  8
0
 62
1
420
16711680
370
-1
 48
1.0
  6
BYLAYER
100
AcDbLine
 10
63.501684179819634
 20
103.5755982465169
 30
0.0
 11
77.287671769724327
 21
108.574912109941
 31
0.0
  0
LINE
  5
D7
100
AcDbEntity
  8
0
 62
1
420
16711680
370
-1
 48
1.0
  6
BYLAYER
100
AcDbLine
 10
77.287671769724327
 20
108.574912109941
 30
0.0
 11
91.073659359629033
 21
103.5755982465169
 31
0.0
  0
SPLINE
  5
D8
100
AcDbEntity
  8
0
 62
1
420
16711680
370
-1
 48
1.0
  6
BYLAYER
100
AcDbSpline
 70
8
 71
3
 72
8
 73
4
 74
0
 40
0.0
 40
0.0
 40
0.0
 40
0.0
 40
1.0
 40
1.0
 40
1.0
 40
1.0
 10
91.073659359629019
 20
103.5755982465169
 30
0.0
 10
91.225151442530276
 20
103.5755982465169
 30
0.0
 10
91.376649304484062
 20
103.42410616361565
 30
0.0
 10
91.52814138738529
 20
103.42410616361565
 30
0.0
  0
SPLINE
  5
D9
100
AcDbEntity
  8
0
 62
1
420
16711680
370
-1
 48
1.0
  6
BYLAYER
100
AcDbSpline
 70
8
 71
3
 72
8
 73
4
 74
0
 40
0.0
 40
0.0
 40
0.0
 40
0.0
 40
1.0
 40
1.0
 40
1.0
 40
1.0
 10
91.52814138738529
 20
103.42410616361565
 30
0.0
 10
91.982623415141575
 20
103.42410616361565
 30
0.0
 10
92.437105442897845
 20
103.72709032941816
 30
0.0
 10
92.740095387752874
 20
104.03008605332572
 30
0.0
  0
LINE
  5
DA
100
AcDbEntity
  8
0
 62
1
420
16711680
370
-1
 48
1.0
  6
BYLAYER
100
AcDbLine
 10
92.740095387752874
 20
104.03008605332572
 30
0.0
 11
98.193891278933236
 21
112.05928780719502
 31
0.0
  0
SPLINE
  5
DB
100
AcDbEntity
  8
0
 62
1
420
16711680
370
-1
 48
1.0
  6
BYLAYER
100
AcDbSpline
 70
8
 71
3
 72
8
 73
4
 74
0
 40
0.0
 40
0.0
 40
0.0
 40
0.0
 40
1.0
 40
1.0
 40
1.0
 40
1.0
 10
98.193891278933236
 20
112.05928780719502
 30
0.0
 10
98.496881223788279
 20
112.51376983495129
 30
0.0
 10
98.496881223788279
 20
113.11974972466133
 30
0.0
 10
98.345383361834493
 20
113.57423175241762
 30
0.0
  0
LINE
  5
DC
100
AcDbEntity
  8
0
 62
1
420
16711680
370
-1
 48
1.0
  6
BYLAYER
100
AcDbLine
 10
98.345383361834493
 20
113.57423175241762
 30
0.0
 11
93.800551526166686
 21
123.72435734121957
 31
0.0
  0
LINE
  5
DD
100
AcDbEntity
  8
0
 62
1
420
16711680
370
-1
 48
1.0
  6
BYLAYER
100
AcDbLine
 10
93.800551526166686
 20
123.72435734121957
 30
0.0
 11
97.436419306321937
 21
121.45194142338566
 31
0.0
  0
SPLINE
  5
DE
100
AcDbEntity
  8
0
 62
1
420
16711680
370
-1
 48
1.0
  6
BYLAYER
100
AcDbSpline
 70
8
 71
3
 72
8
 73
4
 74
0
 40
0.0
 40
0.0
 40
0.0
 40
0.0
 40
1.0
 40
1.0
 40
1.0
 40
1.0
 10
97.436419306321937
 20
121.45194142338568
 30
0.0
 10
98.042399196031994
 20
120.99745939562939
 30
0.0
 10
98.951363251544549
 20
121.14895147853063
 30
0.0
 10
99.405851058353363
 20
121.7549313682407
 30
0.0
  0
LINE
  5
DF
100
AcDbEntity
  8
0
 62
1
420
16711680
370
-1
 48
1.0
  6
BYLAYER
100
AcDbLine
 10
99.405851058353377
 20
121.7549313682407
 30
0.0
 11
107.13206286736764
 21
130.99608712247758
 31
0.0
  0
SPLINE
  5
E0
100
AcDbEntity
  8
0
 62
1
420
16711680
370
-1
 48
1.0
  6
BYLAYER
100
AcDbSpline
 70
8
 71
3
 72
8
 73
4
 74
0
 40
0.0
 40
0.0
 40
0.0
 40
0.0
 40
1.0
 40
1.0
 40
1.0
 40
1.0
 10
107.13206286736762
 20
130.99608712247758
 30
0.0
 10
107.43504703317012
 20
131.2990770673326
 30
0.0
 10
107.58655067417642
 20
131.90505117799012
 30
0.0
 10
107.43504703317012
 20
132.35953898479892
 30
0.0
  0
LINE
  5
E1
100
AcDbEntity
  8
0
 62
1
420
16711680
370
-1
 48
1.0
  6
BYLAYER
100
AcDbLine
 10
107.43504703317012
 20
132.35953898479895
 30
0.0
 11
103.79921392733002
 21
147.20598849216995
 31
0.0
  0
LWPOLYLINE
  5
E2
100
AcDbEntity
  8
0
 62
1
420
16711680
370
-1
 48
1.0
  6
BYLAYER
100
AcDbPolyline
 90
6
 70
1
 10
81.984018804503492
 20
119.33101758845302
 10
77.590679051736927
 20
119.33101758845302
 10
73.197339298970377
 20
119.33101758845299
 10
71.682395353747765
 20
118.27055567098668
 10
77.590679051736927
 20
114.78618575278519
 10
83.49896274972609
 20
118.11906358808544
  0
LINE
  5
E3
100
AcDbEntity
  8
0
 62
1
420
16711680
370
-1
 48
1.0
  6
BYLAYER
100
AcDbLine
 10
98.042422312242095
 20
124.7848192586859
 30
0.0
 11
91.225174558740378
 21
128.87516906659744
 31
0.0
  0
SPLINE
  5
E4
100
AcDbEntity
  8
0
 62
1
420
16711680
370
-1
 48
1.0
  6
BYLAYER
100
AcDbSpline
 70
8
 71
3
 72
8
 73
4
 74
0
 40
0.0
 40
0.0
 40
0.0
 40
0.0
 40
1.0
 40
1.0
 40
1.0
 40
1.0
 10
91.225174558740378
 20
128.87516906659744
 30
0.0
 10
90.619194669030321
 20
129.17815901145246
 30
0.0
 10
89.861722696419008
 20
129.17815901145246
 30
0.0
 10
89.407240668662737
 20
128.72367698369618
 30
0.0
  0
SPLINE
  5
E5
100
AcDbEntity
  8
0
 62
1
420
16711680
370
-1
 48
1.0
  6
BYLAYER
100
AcDbSpline
 70
8
 71
3
 72
8
 73
4
 74
0
 40
0.0
 40
0.0
 40
0.0
 40
0.0
 40
1.0
 40
1.0
 40
1.0
 40
1.0
 10
89.407240668662737
 20
128.72367698369618
 30
0.0
 10
88.952758640906467
 20
128.26919495593989
 30
0.0
 10
88.801260778952695
 20
127.51172298332861
 30
0.0
 10
89.104250723807723
 20
126.90574309361857
 30
0.0
  0
LINE
  5
E6
100
AcDbEntity
  8
0
 62
1
420
16711680
370
-1
 48
1.0
  6
BYLAYER
100
AcDbLine
 10
89.104250723807738
 20
126.90574309361857
 30
0.0
 11
95.618508532454427
 21
112.6652734759576
 31
0.0
  0
LINE
  5
E7
100
AcDbEntity
  8
0
 62
1
420
16711680
370
-1
 48
1.0
  6
BYLAYER
100
AcDbLine
 10
95.618508532454427
 20
112.6652734759576
 30
0.0
 11
91.376666641641634
 21
106.30250775021213
 31
0.0
  0
LINE
  5
E8
100
AcDbEntity
  8
0
 62
1
420
16711680
370
-1
 48
1.0
  6
BYLAYER
100
AcDbLine
 10
91.376666641641634
 20
106.30250775021213
 30
0.0
 11
79.105622996959539
 21
110.84733958587996
 31
0.0
  0
LINE
  5
E9
100
AcDbEntity
  8
0
 62
1
420
16711680
370
-1
 48
1.0
  6
BYLAYER
100
AcDbLine
 10
79.105622996959539
 20
110.84733958587996
 30
0.0
 11
79.105622996959539
 21
112.05929358624755
 31
0.0
  0
LINE
  5
EA
100
AcDbEntity
  8
0
 62
1
420
16711680
370
-1
 48
1.0
  6
BYLAYER
100
AcDbLine
 10
79.105622996959539
 20
112.05929358624755
 30
0.0
 11
86.983332667927584
 21
116.75561750481661
 31
0.0
  0
SPLINE
  5
EB
100
AcDbEntity
  8
0
 62
1
420
16711680
370
-1
 48
1.0
  6
BYLAYER
100
AcDbSpline
 70
8
 71
3
 72
8
 73
4
 74
0
 40
0.0
 40
0.0
 40
0.0
 40
0.0
 40
1.0
 40
1.0
 40
1.0
 40
1.0
 10
86.983332667927584
 20
116.75561750481661
 30
0.0
 10
87.437814695683869
 20
117.05860744967163
 30
0.0
 10
87.740804640538883
 20
117.51308947742791
 30
0.0
 10
87.740804640538883
 20
117.96757150518418
 30
0.0
  0
SPLINE
  5
EC
100
AcDbEntity
  8
0
 62
1
420
16711680
370
-1
 48
1.0
  6
BYLAYER
100
AcDbSpline
 70
8
 71
3
 72
8
 73
4
 74
0
 40
0.0
 40
0.0
 40
0.0
 40
0.0
 40
1.0
 40
1.0
 40
1.0
 40
1.0
 10
87.740804640538883
 20
117.96757150518418
 30
0.0
 10
87.740804640538883
 20
118.42205353294047
 30
0.0
 10
87.589312557637641
 20
119.02803342265051
 30
0.0
 10
87.134824750828841
 20
119.33102336750554
 30
0.0
  0
LINE
  5
ED
100
AcDbEntity
  8
0
 62
1
420
16711680
370
-1
 48
1.0
  6
BYLAYER
100
AcDbLine
 10
87.134824750828841
 20
119.33102336750554
 30
0.0
 11
83.347464887772333
 21
122.05792131309572
 31
0.0
  0
SPLINE
  5
EE
100
AcDbEntity
  8
0
 62
1
420
16711680
370
-1
 48
1.0
  6
BYLAYER
100
AcDbSpline
 70
8
 71
3
 72
8
 73
4
 74
0
 40
0.0
 40
0.0
 40
0.0
 40
0.0
 40
1.0
 40
1.0
 40
1.0
 40
1.0
 10
83.347464887772333
 20
122.05792131309572
 30
0.0
 10
83.044474942917304
 20
122.20941339599698
 30
0.0
 10
82.741490777114791
 20
122.20941339599698
 30
0.0
 10
82.438500832259777
 20
122.20941339599698
 30
0.0
  0
LINE
  5
EF
100
AcDbEntity
  8
0
 62
1
420
16711680
370
-1
 48
1.0
  6
BYLAYER
100
AcDbLine
 10
82.438500832259777
 20
122.20941339599698
 30
0.0
 11
77.590679051736927
 21
122.20941339599698
 31
0.0
  0
LINE
  5
F0
100
AcDbEntity
  8
0
 62
1
420
16711680
370
-1
 48
1.0
  6
BYLAYER
100
AcDbLine
 10
77.590679051736927
 20
122.20941339599698
 30
0.0
 11
72.742857271214092
 21
122.20941339599698
 31
0.0
  0
SPLINE
  5
F1
100
AcDbEntity
  8
0
 62
1
420
16711680
370
-1
 48
1.0
  6
BYLAYER
100
AcDbSpline
 70
8
 71
3
 72
8
 73
4
 74
0
 40
0.0
 40
0.0
 40
0.0
 40
0.0
 40
1.0
 40
1.0
 40
1.0
 40
1.0
 10
72.742857271214092
 20
122.20941339599698
 30
0.0
 10
72.439867326359064
 20
122.20941339599698
 30
0.0
 10
72.136877381504036
 20
122.05792131309572
 30
0.0
 10
71.833893215701536
 20
121.90642345114196
 30
0.0
  0
LINE
  5
F2
100
AcDbEntity
  8
0
 62
1
420
16711680
370
-1
 48
1.0
  6
BYLAYER
100
AcDbLine
 10
71.833893215701522
 20
121.90642345114196
 30
0.0
 11
68.046533352645028
 21
119.17952550555178
 31
0.0
  0
SPLINE
  5
F3
100
AcDbEntity
  8
0
 62
1
420
16711680
370
-1
 48
1.0
  6
BYLAYER
100
AcDbSpline
 70
8
 71
3
 72
8
 73
4
 74
0
 40
0.0
 40
0.0
 40
0.0
 40
0.0
 40
1.0
 40
1.0
 40
1.0
 40
1.0
 10
68.046533352645028
 20
119.17952550555177
 30
0.0
 10
67.592051324888757
 20
118.87653556069674
 30
0.0
 10
67.440553462934972
 20
118.42205353294047
 30
0.0
 10
67.440553462934972
 20
117.8160736432304
 30
0.0
  0
SPLINE
  5
F4
100
AcDbEntity
  8
0
 62
1
420
16711680
370
-1
 48
1.0
  6
BYLAYER
100
AcDbSpline
 70
8
 71
3
 72
8
 73
4
 74
0
 40
0.0
 40
0.0
 40
0.0
 40
0.0
 40
1.0
 40
1.0
 40
1.0
 40
1.0
 10
67.440553462934972
 20
117.8160736432304
 30
0.0
 10
67.440553462934972
 20
117.36159161547413
 30
0.0
 10
67.74354340779
 20
116.90710958771785
 30
0.0
 10
68.198025435546285
 20
116.60411964286283
 30
0.0
  0
LINE
  5
F5
100
AcDbEntity
  8
0
 62
1
420
16711680
370
-1
 48
1.0
  6
BYLAYER
100
AcDbLine
 10
68.198025435546285
 20
116.60411964286283
 30
0.0
 11
76.07573510651433
 21
111.90779572429376
 31
0.0
  0
LINE
  5
F6
100
AcDbEntity
  8
0
 62
1
420
16711680
370
-1
 48
1.0
  6
BYLAYER
100
AcDbLine
 10
76.07573510651433
 20
111.90779572429376
 30
0.0
 11
76.07573510651433
 21
110.69584172392618
 31
0.0
  0
LINE
  5
F7
100
AcDbEntity
  8
0
 62
1
420
16711680
370
-1
 48
1.0
  6
BYLAYER
100
AcDbLine
 10
76.07573510651433
 20
110.69584172392618
 30
0.0
 11
63.804691461832235
 21
106.30250197115961
 31
0.0
  0
LINE
  5
F8
100
AcDbEntity
  8
0
 62
1
420
16711680
370
-1
 48
1.0
  6
BYLAYER
100
AcDbLine
 10
63.804691461832235
 20
106.30250197115961
 30
0.0
 11
59.562849571019456
 21
112.66526769690508
 31
0.0
  0
LINE
  5
F9
100
AcDbEntity
  8
0
 62
1
420
16711680
370
-1
 48
1.0
  6
BYLAYER
100
AcDbLine
 10
59.562849571019456
 20
112.66526769690508
 30
0.0
 11
66.077107379666145
 21
126.90573731456603
 31
0.0
  0
SPLINE
  5
FA
100
AcDbEntity
  8
0
 62
1
420
16711680
370
-1
 48
1.0
  6
BYLAYER
100
AcDbSpline
 70
8
 71
3
 72
8
 73
4
 74
0
 40
0.0
 40
0.0
 40
0.0
 40
0.0
 40
1.0
 40
1.0
 40
1.0
 40
1.0
 10
66.077107379666145
 20
126.90573731456603
 30
0.0
 10
66.380097324521174
 20
127.51171720427608
 30
0.0
 10
66.228599462567402
 20
128.26918917688738
 30
0.0
 10
65.774117434811117
 20
128.72367120464367
 30
0.0
  0
SPLINE
  5
FB
100
AcDbEntity
  8
0
 62
1
420
16711680
370
-1
 48
1.0
  6
BYLAYER
100
AcDbSpline
 70
8
 71
3
 72
8
 73
4
 74
0
 40
0.0
 40
0.0
 40
0.0
 40
0.0
 40
1.0
 40
1.0
 40
1.0
 40
1.0
 10
65.774117434811117
 20
128.72367120464367
 30
0.0
 10
65.319635407054847
 20
129.17815323239995
 30
0.0
 10
64.562163434443548
 20
129.17815323239995
 30
0.0
 10
63.956183544733491
 20
128.87516328754492
 30
0.0
  0
LINE
  5
FC
100
AcDbEntity
  8
0
 62
1
420
16711680
370
-1
 48
1.0
  6
BYLAYER
100
AcDbLine
 10
63.956183544733491
 20
128.87516328754492
 30
0.0
 11
57.138935791231766
 21
124.78481347963339
 31
0.0
  0
LINE
  5
FD
100
AcDbEntity
  8
0
 62
1
420
16711680
370
-1
 48
1.0
  6
BYLAYER
100
AcDbLine
 10
57.138935791231766
 20
124.78481347963339
 30
0.0
 11
50.776170065486326
 21
132.51102528864766
 31
0.0
  0
LINE
  5
FE
100
AcDbEntity
  8
0
 62
1
420
16711680
370
-1
 48
1.0
  6
BYLAYER
100
AcDbLine
 10
50.776170065486326
 20
132.51102528864766
 30
0.0
 11
54.109047900786564
 21
145.99402871274984
 31
0.0
  0
LINE
  5
FF
100
AcDbEntity
  8
0
 62
1
420
16711680
370
-1
 48
1.0
  6
BYLAYER
100
AcDbLine
 10
54.109047900786564
 20
145.99402871274984
 30
0.0
 11
63.804691461832242
 21
153.1142664111066
 31
0.0
  0
LINE
  5
100
100
AcDbEntity
  8
0
 62
1
420
16711680
370
-1
 48
1.0
  6
BYLAYER
100
AcDbLine
 10
63.804691461832242
 20
153.1142664111066
 30
0.0
 11
77.439186968835685
 21
151.44783038298274
 31
0.0
  0
SPLINE
  5
101
100
AcDbEntity
  8
0
 62
1
420
16711680
370
-1
 48
1.0
  6
BYLAYER
100
AcDbSpline
 70
8
 71
2
 72
6
 73
3
 74
0
 40
0.0
 40
0.0
 40
0.0
 40
1.0
 40
1.0
 40
1.0
 10
77.439186968835685
 20
151.44783038298274
 30
0.0
 10
77.590679051736927
 20
151.44783038298274
 30
0.0
 10
77.742176913690713
 20
151.44783038298274
 30
0.0
  0
LINE
  5
102
100
AcDbEntity
  8
0
 62
1
420
16711680
370
-1
 48
1.0
  6
BYLAYER
100
AcDbLine
 10
77.742176913690713
 20
151.44783038298274
 30
0.0
 11
91.376672420694149
 21
153.11426930063286
 31
0.0
  0
LINE
  5
103
100
AcDbEntity
  8
0
 62
1
420
16711680
370
-1
 48
1.0
  6
BYLAYER
100
AcDbLine
 10
91.376672420694149
 20
153.11426930063286
 30
0.0
 11
101.07231020268731
 21
145.99403449180235
 31
0.0
  0
LINE
  5
104
100
AcDbEntity
  8
0
 62
1
420
16711680
370
-1
 48
1.0
  6
BYLAYER
100
AcDbLine
 10
101.07231020268731
 20
145.99403449180235
 30
0.0
 11
104.40518225893501
 21
132.51103684675269
 31
0.0
  0
LINE
  5
105
100
AcDbEntity
  8
0
 62
1
420
16711680
370
-1
 48
1.0
  6
BYLAYER
100
AcDbLine
 10
104.40518225893501
 20
132.51103684675269
 30
0.0
 11
98.042422312242095
 21
124.7848192586859
 31
0.0
  0
SPLINE
  5
106
100
AcDbEntity
  8
0
 62
1
420
16711680
370
-1
 48
1.0
  6
BYLAYER
100
AcDbSpline
 70
8
 71
3
 72
8
 73
4
 74
0
 40
0.0
 40
0.0
 40
0.0
 40
0.0
 40
1.0
 40
1.0
 40
1.0
 40
1.0
 10
93.952072504330573
 20
140.99472062837827
 30
0.0
 10
90.922184613885349
 20
140.69173068352325
 30
0.0
 10
88.952758640906467
 20
140.38874073866822
 30
0.0
 10
87.589306778585126
 20
140.23724865576696
 30
0.0
  0
LINE
  5
107
100
AcDbEntity
  8
0
 62
1
420
16711680
370
-1
 48
1.0
  6
BYLAYER
100
AcDbLine
 10
87.589306778585097
 20
140.23724865576696
 30
0.0
 11
91.831148669397905
 21
142.96414660135713
 31
0.0
  0
SPLINE
  5
108
100
AcDbEntity
  8
0
 62
1
420
16711680
370
-1
 48
1.0
  6
BYLAYER
100
AcDbSpline
 70
8
 71
3
 72
8
 73
4
 74
0
 40
0.0
 40
0.0
 40
0.0
 40
0.0
 40
1.0
 40
1.0
 40
1.0
 40
1.0
 10
91.831148669397905
 20
142.96414660135716
 30
0.0
 10
92.588620642009204
 20
143.41862862911344
 30
0.0
 10
92.740112724910446
 20
144.3275984636785
 30
0.0
 10
92.28563069715419
 20
145.08507043628981
 30
0.0
  0
SPLINE
  5
109
100
AcDbEntity
  8
0
 62
1
420
16711680
370
-1
 48
1.0
  6
BYLAYER
100
AcDbSpline
 70
8
 71
3
 72
8
 73
4
 74
0
 40
0.0
 40
0.0
 40
0.0
 40
0.0
 40
1.0
 40
1.0
 40
1.0
 40
1.0
 10
92.28563069715419
 20
145.08507043628981
 30
0.0
 10
91.831148669397905
 20
145.84254240890112
 30
0.0
 10
90.922178834832835
 20
145.99403449180238
 30
0.0
 10
90.164706862221522
 20
145.5395524640461
 30
0.0
  0
LINE
  5
10A
100
AcDbEntity
  8
0
 62
1
420
16711680
370
-1
 48
1.0
  6
BYLAYER
100
AcDbLine
 10
90.164706862221522
 20
145.5395524640461
 30
0.0
 11
84.104931081331102
 21
141.60070051808833
 31
0.0
  0
SPLINE
  5
10B
100
AcDbEntity
  8
0
 62
1
420
16711680
370
-1
 48
1.0
  6
BYLAYER
100
AcDbSpline
 70
8
 71
3
 72
8
 73
4
 74
0
 40
0.0
 40
0.0
 40
0.0
 40
0.0
 40
1.0
 40
1.0
 40
1.0
 40
1.0
 10
84.104931081331102
 20
141.60070051808833
 30
0.0
 10
83.650449053574818
 20
141.2977105732333
 30
0.0
 10
83.347459108719804
 20
140.84322854547705
 30
0.0
 10
83.347459108719804
 20
140.38874651772076
 30
0.0
  0
LINE
  5
10C
100
AcDbEntity
  8
0
 62
1
420
16711680
370
-1
 48
1.0
  6
BYLAYER
100
AcDbLine
 10
83.347459108719818
 20
140.38874651772076
 30
0.0
 11
83.347459108719804
 21
129.02666692855124
 31
0.0
  0
SPLINE
  5
10D
100
AcDbEntity
  8
0
 62
1
420
16711680
370
-1
 48
1.0
  6
BYLAYER
100
AcDbSpline
 70
8
 71
3
 72
8
 73
4
 74
0
 40
0.0
 40
0.0
 40
0.0
 40
0.0
 40
1.0
 40
1.0
 40
1.0
 40
1.0
 10
83.347459108719804
 20
129.02666692855121
 30
0.0
 10
83.347459108719804
 20
128.11770287303864
 30
0.0
 10
83.953438998429846
 20
127.51172298332861
 30
0.0
 10
84.862403053942401
 20
127.51172298332861
 30
0.0
  0
SPLINE
  5
10E
100
AcDbEntity
  8
0
 62
1
420
16711680
370
-1
 48
1.0
  6
BYLAYER
100
AcDbSpline
 70
8
 71
3
 72
8
 73
4
 74
0
 40
0.0
 40
0.0
 40
0.0
 40
0.0
 40
1.0
 40
1.0
 40
1.0
 40
1.0
 10
84.862403053942401
 20
127.51172298332861
 30
0.0
 10
85.771367109454957
 20
127.51172298332861
 30
0.0
 10
86.377346999165013
 20
128.11770287303864
 30
0.0
 10
86.377346999165013
 20
129.02666692855121
 30
0.0
  0
LINE
  5
10F
100
AcDbEntity
  8
0
 62
1
420
16711680
370
-1
 48
1.0
  6
BYLAYER
100
AcDbLine
 10
86.377346999165042
 20
129.02666692855121
 30
0.0
 11
86.377346999165013
 21
134.7834527645866
 31
0.0
  0
LINE
  5
110
100
AcDbEntity
  8
0
 62
1
420
16711680
370
-1
 48
1.0
  6
BYLAYER
100
AcDbLine
 10
86.377346999165013
 20
134.7834527645866
 30
0.0
 11
90.46769680707655
 21
132.05655481899643
 31
0.0
  0
SPLINE
  5
111
100
AcDbEntity
  8
0
 62
1
420
16711680
370
-1
 48
1.0
  6
BYLAYER
100
AcDbSpline
 70
8
 71
3
 72
8
 73
4
 74
0
 40
0.0
 40
0.0
 40
0.0
 40
0.0
 40
1.0
 40
1.0
 40
1.0
 40
1.0
 10
90.46769680707655
 20
132.05655481899643
 30
0.0
 10
90.770686751931578
 20
131.90506273609518
 30
0.0
 10
91.073676696786592
 20
131.7535648741414
 30
0.0
 10
91.376660862589105
 20
131.7535648741414
 30
0.0
  0
SPLINE
  5
112
100
AcDbEntity
  8
0
 62
1
420
16711680
370
-1
 48
1.0
  6
BYLAYER
100
AcDbSpline
 70
8
 71
3
 72
8
 73
4
 74
0
 40
0.0
 40
0.0
 40
0.0
 40
0.0
 40
1.0
 40
1.0
 40
1.0
 40
1.0
 10
91.376660862589105
 20
131.7535648741414
 30
0.0
 10
91.831142890345376
 20
131.7535648741414
 30
0.0
 10
92.285624918101661
 20
131.90505695704263
 30
0.0
 10
92.588614862956689
 20
132.35954476385146
 30
0.0
  0
LINE
  5
113
100
AcDbEntity
  8
0
 62
1
420
16711680
370
-1
 48
1.0
  6
BYLAYER
100
AcDbLine
 10
92.588614862956689
 20
132.35954476385146
 30
0.0
 11
95.769994836303141
 21
136.75288451661802
 31
0.0
  0
LINE
  5
114
100
AcDbEntity
  8
0
 62
1
420
16711680
370
-1
 48
1.0
  6
BYLAYER
100
AcDbLine
 10
95.769994836303141
 20
136.75288451661802
 30
0.0
 11
99.557354699359649
 21
134.48046859878411
 31
0.0
  0
SPLINE
  5
115
100
AcDbEntity
  8
0
 62
1
420
16711680
370
-1
 48
1.0
  6
BYLAYER
100
AcDbSpline
 70
8
 71
3
 72
8
 73
4
 74
0
 40
0.0
 40
0.0
 40
0.0
 40
0.0
 40
1.0
 40
1.0
 40
1.0
 40
1.0
 10
99.557354699359649
 20
134.48046859878411
 30
0.0
 10
99.860350423267192
 20
134.3289649577778
 30
0.0
 10
100.01185406427351
 20
134.3289649577778
 30
0.0
 10
100.31483823007599
 20
134.3289649577778
 30
0.0
  0
SPLINE
  5
116
100
AcDbEntity
  8
0
 62
1
420
16711680
370
-1
 48
1.0
  6
BYLAYER
100
AcDbSpline
 70
8
 71
3
 72
8
 73
4
 74
0
 40
0.0
 40
0.0
 40
0.0
 40
0.0
 40
1.0
 40
1.0
 40
1.0
 40
1.0
 10
100.31483823007599
 20
134.3289649577778
 30
0.0
 10
100.76932603688479
 20
134.3289649577778
 30
0.0
 10
101.3752943684898
 20
134.63195490263283
 30
0.0
 10
101.67829009239736
 20
135.08643693038911
 30
0.0
  0
SPLINE
  5
117
100
AcDbEntity
  8
0
 62
1
420
16711680
370
-1
 48
1.0
  6
BYLAYER
100
AcDbSpline
 70
8
 71
3
 72
8
 73
4
 74
0
 40
0.0
 40
0.0
 40
0.0
 40
0.0
 40
1.0
 40
1.0
 40
1.0
 40
1.0
 10
101.67829009239736
 20
135.08643693038911
 30
0.0
 10
102.13277789920616
 20
135.8439089030004
 30
0.0
 10
101.82978217529862
 20
136.75287295851297
 30
0.0
 10
101.22380228558855
 20
137.20736076532177
 30
0.0
  0
LINE
  5
118
100
AcDbEntity
  8
0
 62
1
420
16711680
370
-1
 48
1.0
  6
BYLAYER
100
AcDbLine
 10
101.22380228558855
 20
137.20736076532177
 30
0.0
 11
95.012534421796886
 21
140.99472062837827
 31
0.0
  0
SPLINE
  5
119
100
AcDbEntity
  8
0
 62
1
420
16711680
370
-1
 48
1.0
  6
BYLAYER
100
AcDbSpline
 70
8
 71
3
 72
8
 73
4
 74
0
 40
0.0
 40
0.0
 40
0.0
 40
0.0
 40
1.0
 40
1.0
 40
1.0
 40
1.0
 10
95.012534421796886
 20
140.99472062837827
 30
0.0
 10
94.709544476941858
 20
140.99472062837827
 30
0.0
 10
94.40655453208683
 20
140.99472062837827
 30
0.0
 10
93.952072504330573
 20
140.99472062837827
 30
0.0
  0
LINE
  5
11A
100
AcDbEntity
  8
0
 62
1
420
16711680
370
-1
 48
1.0
  6
BYLAYER
100
AcDbLine
 10
91.073682475839121
 20
135.38942687524414
 30
0.0
 11
88.195286668295154
 21
137.35885284822302
 31
0.0
  0
SPLINE
  5
11B
100
AcDbEntity
  8
0
 62
1
420
16711680
370
-1
 48
1.0
  6
BYLAYER
100
AcDbSpline
 70
8
 71
3
 72
8
 73
4
 74
0
 40
0.0
 40
0.0
 40
0.0
 40
0.0
 40
1.0
 40
1.0
 40
1.0
 40
1.0
 10
88.195286668295154
 20
137.35885284822302
 30
0.0
 10
89.407240668662737
 20
137.51034493112425
 30
0.0
 10
91.225174558740378
 20
137.81333487597931
 30
0.0
 10
92.891610586864232
 20
137.96483273793308
 30
0.0
  0
LINE
  5
11C
100
AcDbEntity
  8
0
 62
1
420
16711680
370
-1
 48
1.0
  6
BYLAYER
100
AcDbLine
 10
92.891610586864232
 20
137.96483273793308
 30
0.0
 11
91.073682475839121
 21
135.38942687524414
 31
0.0
  0
LINE
  5
11D
100
AcDbEntity
  8
0
 62
1
420
16711680
370
-1
 48
1.0
  6
BYLAYER
100
AcDbLine
 10
133.9465891907758
 20
136.44988879271045
 30
0.0
 11
121.82703762899496
 21
159.17404797104953
 31
0.0
  0
LINE
  5
11E
100
AcDbEntity
  8
0
 62
1
420
16711680
370
-1
 48
1.0
  6
BYLAYER
100
AcDbLine
 10
121.82703762899496
 20
159.17404797104953
 30
0.0
 11
128.03830549278663
 21
158.26508102601073
 31
0.0
  0
SPLINE
  5
11F
100
AcDbEntity
  8
0
 62
1
420
16711680
370
-1
 48
1.0
  6
BYLAYER
100
AcDbSpline
 70
8
 71
3
 72
8
 73
4
 74
0
 40
0.0
 40
0.0
 40
0.0
 40
0.0
 40
1.0
 40
1.0
 40
1.0
 40
1.0
 10
128.03830549278663
 20
158.26508102601071
 30
0.0
 10
128.64428538249669
 20
158.11358605358319
 30
0.0
 10
129.25026527220672
 20
158.41657599843825
 30
0.0
 10
129.55324943800923
 20
159.02255299862202
 30
0.0
  0
SPLINE
  5
120
100
AcDbEntity
  8
0
 62
1
420
16711680
370
-1
 48
1.0
  6
BYLAYER
100
AcDbSpline
 70
8
 71
3
 72
8
 73
4
 74
0
 40
0.0
 40
0.0
 40
0.0
 40
0.0
 40
1.0
 40
1.0
 40
1.0
 40
1.0
 10
129.55324943800923
 20
159.02255299862202
 30
0.0
 10
129.85623360381175
 20
159.4770350263783
 30
0.0
 10
129.85623360381175
 20
160.23450699898959
 30
0.0
 10
129.55324943800923
 20
160.68899191627213
 30
0.0
  0
LINE
  5
121
100
AcDbEntity
  8
0
 62
1
420
16711680
370
-1
 48
1.0
  6
BYLAYER
100
AcDbLine
 10
129.55324943800923
 20
160.6889919162721
 30
0.0
 11
121.37254982218619
 21
172.808543478053
 31
0.0
  0
SPLINE
  5
122
100
AcDbEntity
  8
0
 62
1
420
16711680
370
-1
 48
1.0
  6
BYLAYER
100
AcDbSpline
 70
8
 71
3
 72
8
 73
4
 74
0
 40
0.0
 40
0.0
 40
0.0
 40
0.0
 40
1.0
 40
1.0
 40
1.0
 40
1.0
 10
121.37254982218616
 20
172.808543478053
 30
0.0
 10
121.22105773928493
 20
173.111533422908
 30
0.0
 10
120.91806201537736
 20
173.26302550580925
 30
0.0
 10
120.4635857666736
 20
173.41452047823677
 30
0.0
  0
LINE
  5
123
100
AcDbEntity
  8
0
 62
1
420
16711680
370
-1
 48
1.0
  6
BYLAYER
100
AcDbLine
 10
120.46358576667359
 20
173.41452047823677
 30
0.0
 11
100.61782239587849
 21
179.1713077590353
 31
0.0
  0
LINE
  5
124
100
AcDbEntity
  8
0
 62
1
420
16711680
370
-1
 48
1.0
  6
BYLAYER
100
AcDbLine
 10
100.61782239587849
 20
179.1713077590353
 30
0.0
 11
106.82909025967018
 21
180.53475673183041
 31
0.0
  0
SPLINE
  5
125
100
AcDbEntity
  8
0
 62
1
420
16711680
370
-1
 48
1.0
  6
BYLAYER
100
AcDbSpline
 70
8
 71
3
 72
8
 73
4
 74
0
 40
0.0
 40
0.0
 40
0.0
 40
0.0
 40
1.0
 40
1.0
 40
1.0
 40
1.0
 10
106.82909025967018
 20
180.53475673183038
 30
0.0
 10
107.43507014938021
 20
180.6862517042579
 30
0.0
 10
107.88954639808397
 20
181.14073373201418
 30
0.0
 10
108.04105003909028
 20
181.74671217696107
 30
0.0
  0
SPLINE
  5
126
100
AcDbEntity
  8
0
 62
1
420
16711680
370
-1
 48
1.0
  6
BYLAYER
100
AcDbSpline
 70
8
 71
3
 72
8
 73
4
 74
0
 40
0.0
 40
0.0
 40
0.0
 40
0.0
 40
1.0
 40
1.0
 40
1.0
 40
1.0
 10
108.04105003909028
 20
181.74671217696107
 30
0.0
 10
108.19254212199154
 20
182.3526891771449
 30
0.0
 10
107.88955795618902
 20
182.95866762209181
 30
0.0
 10
107.28357806647898
 20
183.26165612218369
 30
0.0
  0
LINE
  5
127
100
AcDbEntity
  8
0
 62
1
420
16711680
370
-1
 48
1.0
  6
BYLAYER
100
AcDbLine
 10
107.28357806647898
 20
183.26165612218369
 30
0.0
 11
95.770006394408185
 21
189.32143190307411
 31
0.0
  0
SPLINE
  5
128
100
AcDbEntity
  8
0
 62
1
420
16711680
370
-1
 48
1.0
  6
BYLAYER
100
AcDbSpline
 70
8
 71
3
 72
8
 73
4
 74
0
 40
0.0
 40
0.0
 40
0.0
 40
0.0
 40
1.0
 40
1.0
 40
1.0
 40
1.0
 10
95.770006394408185
 20
189.32143190307411
 30
0.0
 10
95.467016449553171
 20
189.47292615312006
 30
0.0
 10
95.012534421796886
 20
189.47292615312006
 30
0.0
 10
94.709544476941858
 20
189.47292615312006
 30
0.0
  0
LINE
  5
129
100
AcDbEntity
  8
0
 62
1
420
16711680
370
-1
 48
1.0
  6
BYLAYER
100
AcDbLine
 10
94.709544476941844
 20
189.47292615312006
 30
0.0
 11
77.590679051736942
 21
185.23108209516255
 31
0.0
  0
LINE
  5
12A
100
AcDbEntity
  8
0
 62
1
420
16711680
370
-1
 48
1.0
  6
BYLAYER
100
AcDbLine
 10
77.590679051736942
 20
185.23108209516255
 30
0.0
 11
60.320315764578226
 21
189.62441895840288
 31
0.0
  0
SPLINE
  5
12B
100
AcDbEntity
  8
0
 62
1
420
16711680
370
-1
 48
1.0
  6
BYLAYER
100
AcDbSpline
 70
8
 71
3
 72
8
 73
4
 74
0
 40
0.0
 40
0.0
 40
0.0
 40
0.0
 40
1.0
 40
1.0
 40
1.0
 40
1.0
 10
60.320315764578226
 20
189.62441895840288
 30
0.0
 10
60.017325819723204
 20
189.77591320844883
 30
0.0
 10
59.562843791966927
 20
189.62441895840288
 30
0.0
 10
59.259853847111899
 20
189.47292470835691
 30
0.0
  0
LINE
  5
12C
100
AcDbEntity
  8
0
 62
1
420
16711680
370
-1
 48
1.0
  6
BYLAYER
100
AcDbLine
 10
59.259853847111899
 20
189.47292470835691
 30
0.0
 11
47.746279285514852
 21
183.41314820508495
 31
0.0
  0
SPLINE
  5
12D
100
AcDbEntity
  8
0
 62
1
420
16711680
370
-1
 48
1.0
  6
BYLAYER
100
AcDbSpline
 70
8
 71
3
 72
8
 73
4
 74
0
 40
0.0
 40
0.0
 40
0.0
 40
0.0
 40
1.0
 40
1.0
 40
1.0
 40
1.0
 10
47.746279285514852
 20
183.41314820508495
 30
0.0
 10
47.14030228533106
 20
183.11015970499307
 30
0.0
 10
46.837312340476046
 20
182.5041812600461
 30
0.0
 10
46.988807312903553
 20
181.89820425986233
 30
0.0
  0
SPLINE
  5
12E
100
AcDbEntity
  8
0
 62
1
420
16711680
370
-1
 48
1.0
  6
BYLAYER
100
AcDbSpline
 70
8
 71
3
 72
8
 73
4
 74
0
 40
0.0
 40
0.0
 40
0.0
 40
0.0
 40
1.0
 40
1.0
 40
1.0
 40
1.0
 10
46.988807312903553
 20
181.89820425986233
 30
0.0
 10
47.14030228533106
 20
181.29222725967853
 30
0.0
 10
47.594784313087345
 20
180.68624881473164
 30
0.0
 10
48.20076131327113
 20
180.68624881473164
 30
0.0
  0
LINE
  5
12F
100
AcDbEntity
  8
0
 62
1
420
16711680
370
-1
 48
1.0
  6
BYLAYER
100
AcDbLine
 10
48.20076131327113
 20
180.68624881473158
 30
0.0
 11
54.412032066589056
 21
179.32279984193653
 31
0.0
  0
LINE
  5
130
100
AcDbEntity
  8
0
 62
1
420
16711680
370
-1
 48
1.0
  6
BYLAYER
100
AcDbLine
 10
54.412032066589056
 20
179.32279984193653
 30
0.0
 11
34.566265806267694
 21
173.566012561138
 31
0.0
  0
SPLINE
  5
131
100
AcDbEntity
  8
0
 62
1
420
16711680
370
-1
 48
1.0
  6
BYLAYER
100
AcDbSpline
 70
8
 71
3
 72
8
 73
4
 74
0
 40
0.0
 40
0.0
 40
0.0
 40
0.0
 40
1.0
 40
1.0
 40
1.0
 40
1.0
 10
34.566265806267687
 20
173.56601256113802
 30
0.0
 10
34.263275861412666
 20
173.41451758871048
 30
0.0
 10
33.960288806083902
 20
173.263022616283
 30
0.0
 10
33.657298861228874
 20
172.96003556095422
 30
0.0
  0
LINE
  5
132
100
AcDbEntity
  8
0
 62
1
420
16711680
370
-1
 48
1.0
  6
BYLAYER
100
AcDbLine
 10
33.657298861228881
 20
172.96003556095422
 30
0.0
 11
25.476602134932062
 21
160.84048399917336
 31
0.0
  0
SPLINE
  5
133
100
AcDbEntity
  8
0
 62
1
420
16711680
370
-1
 48
1.0
  6
BYLAYER
100
AcDbSpline
 70
8
 71
3
 72
8
 73
4
 74
0
 40
0.0
 40
0.0
 40
0.0
 40
0.0
 40
1.0
 40
1.0
 40
1.0
 40
1.0
 10
25.476602134932062
 20
160.84048399917339
 30
0.0
 10
25.173613634840169
 20
160.3860019714171
 30
0.0
 10
25.173613634840169
 20
159.62852999880582
 30
0.0
 10
25.476602134932062
 20
159.17404508152327
 30
0.0
  0
SPLINE
  5
134
100
AcDbEntity
  8
0
 62
1
420
16711680
370
-1
 48
1.0
  6
BYLAYER
100
AcDbSpline
 70
8
 71
3
 72
8
 73
4
 74
0
 40
0.0
 40
0.0
 40
0.0
 40
0.0
 40
1.0
 40
1.0
 40
1.0
 40
1.0
 10
25.476602134932062
 20
159.17404508152327
 30
0.0
 10
25.779590635023958
 20
158.71956305376699
 30
0.0
 10
26.385569079970878
 20
158.41657310891196
 30
0.0
 10
26.991546080154663
 20
158.41657310891196
 30
0.0
  0
LINE
  5
135
100
AcDbEntity
  8
0
 62
1
420
16711680
370
-1
 48
1.0
  6
BYLAYER
100
AcDbLine
 10
26.99154608015467
 20
158.41657310891199
 30
0.0
 11
33.202816833472596
 21
159.32554005395079
 31
0.0
  0
LINE
  5
136
100
AcDbEntity
  8
0
 62
1
420
16711680
370
-1
 48
1.0
  6
BYLAYER
100
AcDbLine
 10
33.202816833472596
 20
159.32554005395079
 30
0.0
 11
20.931776078316773
 21
135.84390890300043
 31
0.0
  0
SPLINE
  5
137
100
AcDbEntity
  8
0
 62
1
420
16711680
370
-1
 48
1.0
  6
BYLAYER
100
AcDbSpline
 70
8
 71
3
 72
8
 73
4
 74
0
 40
0.0
 40
0.0
 40
0.0
 40
0.0
 40
1.0
 40
1.0
 40
1.0
 40
1.0
 10
20.931776078316773
 20
135.8439089030004
 30
0.0
 10
20.780281105889262
 20
135.38942687524414
 30
0.0
 10
20.62878757822488
 20
135.08643693038911
 30
0.0
 10
20.780281105889262
 20
134.63195490263283
 30
0.0
  0
LINE
  5
138
100
AcDbEntity
  8
0
 62
1
420
16711680
370
-1
 48
1.0
  6
BYLAYER
100
AcDbLine
 10
20.780281105889262
 20
134.63195490263286
 30
0.0
 11
29.566954832369863
 21
110.84733380682744
 31
0.0
  0
SPLINE
  5
139
100
AcDbEntity
  8
0
 62
1
420
16711680
370
-1
 48
1.0
  6
BYLAYER
100
AcDbSpline
 70
8
 71
3
 72
8
 73
4
 74
0
 40
0.0
 40
0.0
 40
0.0
 40
0.0
 40
1.0
 40
1.0
 40
1.0
 40
1.0
 10
29.566954832369863
 20
110.84733380682744
 30
0.0
 10
29.718449804797373
 20
110.24135391711738
 30
0.0
 10
30.324426804981165
 20
109.78687188936109
 30
0.0
 10
30.930403805164953
 20
109.78687188936109
 30
0.0
  0
SPLINE
  5
13A
100
AcDbEntity
  8
0
 62
1
420
16711680
370
-1
 48
1.0
  6
BYLAYER
100
AcDbSpline
 70
8
 71
3
 72
8
 73
4
 74
0
 40
0.0
 40
0.0
 40
0.0
 40
0.0
 40
1.0
 40
1.0
 40
1.0
 40
1.0
 10
30.930403805164953
 20
109.78687188936109
 30
0.0
 10
31.536380805348742
 20
109.78687188936109
 30
0.0
 10
32.142357805532534
 20
110.24135391711738
 30
0.0
 10
32.293852777960048
 20
110.84733380682744
 30
0.0
  0
LINE
  5
13B
100
AcDbEntity
  8
0
 62
1
420
16711680
370
-1
 48
1.0
  6
BYLAYER
100
AcDbLine
 10
32.293852777960048
 20
110.84733380682744
 30
0.0
 11
34.111786668037681
 21
115.69515558735027
 31
0.0
  0
LINE
  5
13C
100
AcDbEntity
  8
0
 62
1
420
16711680
370
-1
 48
1.0
  6
BYLAYER
100
AcDbLine
 10
34.111786668037681
 20
115.69515558735027
 30
0.0
 11
40.929034421539399
 21
88.42615879429087
 31
0.0
  0
SPLINE
  5
13D
100
AcDbEntity
  8
0
 62
1
420
16711680
370
-1
 48
1.0
  6
BYLAYER
100
AcDbSpline
 70
8
 71
3
 72
8
 73
4
 74
0
 40
0.0
 40
0.0
 40
0.0
 40
0.0
 40
1.0
 40
1.0
 40
1.0
 40
1.0
 10
40.929034421539399
 20
88.274666711389628
 30
0.0
 10
40.929034421539399
 20
88.123174628488371
 30
0.0
 10
41.080529393966913
 20
87.971682545587115
 30
0.0
 10
41.080529393966913
 20
87.820178904580814
 30
0.0
  0
SPLINE
  5
13E
100
AcDbEntity
  8
0
 62
1
420
16711680
370
-1
 48
1.0
  6
BYLAYER
100
AcDbSpline
 70
8
 71
2
 72
6
 73
3
 74
0
 40
0.0
 40
0.0
 40
0.0
 40
1.0
 40
1.0
 40
1.0
 10
41.080529393966913
 20
87.820178904580814
 30
0.0
 10
41.080529393966913
 20
87.668686821679557
 30
0.0
 10
41.23202436639442
 20
87.668686821679557
 30
0.0
  0
LINE
  5
13F
100
AcDbEntity
  8
0
 62
1
420
16711680
370
-1
 48
1.0
  6
BYLAYER
100
AcDbLine
 10
41.23202436639442
 20
87.668686821679557
 30
0.0
 11
41.383519338821927
 21
87.517194738778301
 31
0.0
  0
LINE
  5
140
100
AcDbEntity
  8
0
 62
1
420
16711680
370
-1
 48
1.0
  6
BYLAYER
100
AcDbLine
 10
41.383519338821927
 20
87.517194738778301
 30
0.0
 11
53.200083845274008
 21
77.215571288022574
 31
0.0
  0
SPLINE
  5
141
100
AcDbEntity
  8
0
 62
1
420
16711680
370
-1
 48
1.0
  6
BYLAYER
100
AcDbSpline
 70
8
 71
3
 72
8
 73
4
 74
0
 40
0.0
 40
0.0
 40
0.0
 40
0.0
 40
1.0
 40
1.0
 40
1.0
 40
1.0
 10
53.200083845274008
 20
77.215571288022588
 30
0.0
 10
53.654565873030286
 20
76.912587122220089
 30
0.0
 10
54.109047900786564
 20
76.761083481213774
 30
0.0
 10
54.715027790496613
 20
76.912587122220089
 30
0.0
  0
SPLINE
  5
142
100
AcDbEntity
  8
0
 62
1
420
16711680
370
-1
 48
1.0
  6
BYLAYER
100
AcDbSpline
 70
8
 71
3
 72
8
 73
4
 74
0
 40
0.0
 40
0.0
 40
0.0
 40
0.0
 40
1.0
 40
1.0
 40
1.0
 40
1.0
 10
54.715027790496613
 20
76.912587122220089
 30
0.0
 10
55.169509818252891
 20
77.064079205121331
 30
0.0
 10
55.623991846009169
 20
77.518567011930131
 30
0.0
 10
55.77548970796294
 20
78.124546901640187
 30
0.0
  0
LINE
  5
143
100
AcDbEntity
  8
0
 62
1
420
16711680
370
-1
 48
1.0
  6
BYLAYER
100
AcDbLine
 10
55.77548970796294
 20
78.124546901640187
 30
0.0
 11
56.684453763475496
 21
83.426850709919307
 31
0.0
  0
LINE
  5
144
100
AcDbEntity
  8
0
 62
1
420
16711680
370
-1
 48
1.0
  6
BYLAYER
100
AcDbLine
 10
56.684453763475496
 20
83.426850709919307
 30
0.0
 11
65.016645462199818
 21
67.065451478273147
 31
0.0
  0
SPLINE
  5
145
100
AcDbEntity
  8
0
 62
1
420
16711680
370
-1
 48
1.0
  6
BYLAYER
100
AcDbSpline
 70
8
 71
3
 72
8
 73
4
 74
0
 40
0.0
 40
0.0
 40
0.0
 40
0.0
 40
1.0
 40
1.0
 40
1.0
 40
1.0
 10
65.016645462199818
 20
67.065451478273147
 30
0.0
 10
65.168137545101075
 20
66.762467312470648
 30
0.0
 10
65.471127489956103
 20
66.610963671464347
 30
0.0
 10
65.622625351909875
 20
66.459471588563105
 30
0.0
  0
LINE
  5
146
100
AcDbEntity
  8
0
 62
1
420
16711680
370
-1
 48
1.0
  6
BYLAYER
100
AcDbLine
 10
65.622625351909861
 20
66.459471588563105
 30
0.0
 11
76.681714996224372
 21
60.854183614481492
 31
0.0
  0
LINE
  5
147
100
AcDbEntity
  8
0
 62
1
420
16711680
370
-1
 48
1.0
  6
BYLAYER
100
AcDbLine
 10
76.681714996224372
 20
60.854183614481492
 30
0.0
 11
76.833207079125629
 21
60.854183614481485
 31
0.0
  0
LINE
  5
148
100
AcDbEntity
  8
0
 62
1
420
16711680
370
-1
 48
1.0
  6
BYLAYER
100
AcDbLine
 10
76.833207079125629
 20
60.854183614481485
 30
0.0
 11
76.984699162026885
 21
60.854183614481485
 31
0.0
  0
SPLINE
  5
149
100
AcDbEntity
  8
0
 62
1
420
16711680
370
-1
 48
1.0
  6
BYLAYER
100
AcDbSpline
 70
8
 71
2
 72
6
 73
3
 74
0
 40
0.0
 40
0.0
 40
0.0
 40
1.0
 40
1.0
 40
1.0
 10
76.984699162026885
 20
60.854183614481485
 30
0.0
 10
77.136191244928128
 20
60.854183614481485
 30
0.0
 10
77.287689106881913
 20
60.854183614481485
 30
0.0
  0
SPLINE
  5
14A
100
AcDbEntity
  8
0
 62
1
420
16711680
370
-1
 48
1.0
  6
BYLAYER
100
AcDbSpline
 70
8
 71
2
 72
6
 73
3
 74
0
 40
0.0
 40
0.0
 40
0.0
 40
1.0
 40
1.0
 40
1.0
 10
77.287689106881913
 20
60.854183614481485
 30
0.0
 10
77.439181189783156
 20
60.854183614481485
 30
0.0
 10
77.590679051736927
 20
60.854183614481485
 30
0.0
  0
LINE
  5
14B
100
AcDbEntity
  8
0
 62
1
420
16711680
370
-1
 48
1.0
  6
BYLAYER
100
AcDbLine
 10
77.590679051736927
 20
60.854183614481485
 30
0.0
 11
77.742171134638184
 21
60.854183614481485
 31
0.0
  0
LINE
  5
14C
100
AcDbEntity
  8
0
 62
1
420
16711680
370
-1
 48
1.0
  6
BYLAYER
100
AcDbLine
 10
77.742171134638184
 20
60.854183614481485
 30
0.0
 11
77.893663217539427
 21
60.854183614481485
 31
0.0
  0
LINE
  5
14D
100
AcDbEntity
  8
0
 62
1
420
16711680
370
-1
 48
1.0
  6
BYLAYER
100
AcDbLine
 10
77.893663217539427
 20
60.854183614481485
 30
0.0
 11
88.952752861853952
 21
66.459471588563105
 31
0.0
  0
SPLINE
  5
14E
100
AcDbEntity
  8
0
 62
1
420
16711680
370
-1
 48
1.0
  6
BYLAYER
100
AcDbSpline
 70
8
 71
3
 72
8
 73
4
 74
0
 40
0.0
 40
0.0
 40
0.0
 40
0.0
 40
1.0
 40
1.0
 40
1.0
 40
1.0
 10
88.952752861853938
 20
66.459471588563105
 30
0.0
 10
89.25574280670898
 20
66.610963671464347
 30
0.0
 10
89.407234889610208
 20
66.762455754365604
 30
0.0
 10
89.558732751563994
 20
67.065451478273147
 30
0.0
  0
LINE
  5
14F
100
AcDbEntity
  8
0
 62
1
420
16711680
370
-1
 48
1.0
  6
BYLAYER
100
AcDbLine
 10
89.558732751563994
 20
67.065451478273147
 30
0.0
 11
97.89092445028831
 21
83.426850709919307
 31
0.0
  0
LINE
  5
150
100
AcDbEntity
  8
0
 62
1
420
16711680
370
-1
 48
1.0
  6
BYLAYER
100
AcDbLine
 10
97.89092445028831
 20
83.426850709919307
 30
0.0
 11
98.79988850580088
 21
78.124546901640187
 31
0.0
  0
SPLINE
  5
151
100
AcDbEntity
  8
0
 62
1
420
16711680
370
-1
 48
1.0
  6
BYLAYER
100
AcDbSpline
 70
8
 71
3
 72
8
 73
4
 74
0
 40
0.0
 40
0.0
 40
0.0
 40
0.0
 40
1.0
 40
1.0
 40
1.0
 40
1.0
 10
98.79988850580088
 20
78.124546901640187
 30
0.0
 10
98.951386367754651
 20
77.518567011930131
 30
0.0
 10
99.25437053355715
 20
77.215582846127631
 30
0.0
 10
99.860350423267192
 20
76.912587122220089
 30
0.0
  0
SPLINE
  5
152
100
AcDbEntity
  8
0
 62
1
420
16711680
370
-1
 48
1.0
  6
BYLAYER
100
AcDbSpline
 70
8
 71
3
 72
8
 73
4
 74
0
 40
0.0
 40
0.0
 40
0.0
 40
0.0
 40
1.0
 40
1.0
 40
1.0
 40
1.0
 10
99.860350423267192
 20
76.912587122220089
 30
0.0
 10
100.31483823007599
 20
76.761095039318832
 30
0.0
 10
100.920806561681
 20
76.912587122220089
 30
0.0
 10
101.3752943684898
 20
77.215571288022588
 30
0.0
  0
LINE
  5
153
100
AcDbEntity
  8
0
 62
1
420
16711680
370
-1
 48
1.0
  6
BYLAYER
100
AcDbLine
 10
101.3752943684898
 20
77.215571288022588
 30
0.0
 11
113.19186176446814
 21
87.517194738778301
 31
0.0
  0
LINE
  5
154
100
AcDbEntity
  8
0
 62
1
420
16711680
370
-1
 48
1.0
  6
BYLAYER
100
AcDbLine
 10
113.19186176446814
 20
87.517194738778301
 30
0.0
 11
113.3433538473694
 21
87.668686821679557
 31
0.0
  0
LINE
  5
155
100
AcDbEntity
  8
0
 62
1
420
16711680
370
-1
 48
1.0
  6
BYLAYER
100
AcDbLine
 10
113.3433538473694
 20
87.668686821679557
 30
0.0
 11
113.49484593027064
 21
87.820178904580814
 31
0.0
  0
SPLINE
  5
156
100
AcDbEntity
  8
0
 62
1
420
16711680
370
-1
 48
1.0
  6
BYLAYER
100
AcDbSpline
 70
8
 71
2
 72
6
 73
3
 74
0
 40
0.0
 40
0.0
 40
0.0
 40
1.0
 40
1.0
 40
1.0
 10
113.49484593027064
 20
87.820178904580814
 30
0.0
 10
113.6463380131719
 20
87.971670987482057
 30
0.0
 10
113.6463380131719
 20
88.123163070383313
 30
0.0
  0
LINE
  5
157
100
AcDbEntity
  8
0
 62
1
420
16711680
370
-1
 48
1.0
  6
BYLAYER
100
AcDbLine
 10
113.6463380131719
 20
88.27465515328457
 30
0.0
 11
120.46358576667362
 21
115.54364616729146
 31
0.0
  0
LINE
  5
158
100
AcDbEntity
  8
0
 62
1
420
16711680
370
-1
 48
1.0
  6
BYLAYER
100
AcDbLine
 10
120.46358576667362
 20
115.54364616729146
 30
0.0
 11
122.28151387769871
 21
110.69582438676862
 31
0.0
  0
SPLINE
  5
159
100
AcDbEntity
  8
0
 62
1
420
16711680
370
-1
 48
1.0
  6
BYLAYER
100
AcDbSpline
 70
8
 71
3
 72
8
 73
4
 74
0
 40
0.0
 40
0.0
 40
0.0
 40
0.0
 40
1.0
 40
1.0
 40
1.0
 40
1.0
 10
122.28151387769871
 20
110.69582438676861
 30
0.0
 10
122.43300596059997
 20
110.08984449705856
 30
0.0
 10
123.03898585031001
 20
109.63536246930229
 30
0.0
 10
123.64496574002007
 20
109.63536246930229
 30
0.0
  0
SPLINE
  5
15A
100
AcDbEntity
  8
0
 62
1
420
16711680
370
-1
 48
1.0
  6
BYLAYER
100
AcDbSpline
 70
8
 71
3
 72
8
 73
4
 74
0
 40
0.0
 40
0.0
 40
0.0
 40
0.0
 40
1.0
 40
1.0
 40
1.0
 40
1.0
 10
123.64496574002007
 20
109.63536246930229
 30
0.0
 10
124.25094562973013
 20
109.63536246930229
 30
0.0
 10
124.85692551944018
 20
110.08984449705856
 30
0.0
 10
125.00841760234144
 20
110.69582438676861
 30
0.0
  0
LINE
  5
15B
100
AcDbEntity
  8
0
 62
1
420
16711680
370
-1
 48
1.0
  6
BYLAYER
100
AcDbLine
 10
125.00841760234144
 20
110.69582438676861
 30
0.0
 11
133.79509710787457
 21
134.480445482574
 31
0.0
  0
SPLINE
  5
15C
100
AcDbEntity
  8
0
 62
1
420
16711680
370
-1
 48
1.0
  6
BYLAYER
100
AcDbSpline
 70
8
 71
3
 72
8
 73
4
 74
0
 40
0.0
 40
0.0
 40
0.0
 40
0.0
 40
1.0
 40
1.0
 40
1.0
 40
1.0
 10
133.79509710787457
 20
134.480445482574
 30
0.0
 10
133.9465891907758
 20
135.23792901329034
 30
0.0
 10
134.24958491468337
 20
135.8439089030004
 30
0.0
 10
133.9465891907758
 20
136.44988879271045
 30
0.0
  0
LINE
  5
15D
100
AcDbEntity
  8
0
 62
1
420
16711680
370
-1
 48
1.0
  6
BYLAYER
100
AcDbLine
 10
124.09945354682888
 20
115.84664767025153
 30
0.0
 11
121.97852971189621
 21
121.45194142338568
 31
0.0
  0
SPLINE
  5
15E
100
AcDbEntity
  8
0
 62
1
420
16711680
370
-1
 48
1.0
  6
BYLAYER
100
AcDbSpline
 70
8
 71
3
 72
8
 73
4
 74
0
 40
0.0
 40
0.0
 40
0.0
 40
0.0
 40
1.0
 40
1.0
 40
1.0
 40
1.0
 10
121.97852971189621
 20
121.45194142338568
 30
0.0
 10
121.6755455460937
 20
122.05792131309572
 30
0.0
 10
121.22105773928493
 20
122.51240334085199
 30
0.0
 10
120.4635857666736
 20
122.51240334085199
 30
0.0
  0
SPLINE
  5
15F
100
AcDbEntity
  8
0
 62
1
420
16711680
370
-1
 48
1.0
  6
BYLAYER
100
AcDbSpline
 70
8
 71
3
 72
8
 73
4
 74
0
 40
0.0
 40
0.0
 40
0.0
 40
0.0
 40
1.0
 40
1.0
 40
1.0
 40
1.0
 10
120.4635857666736
 20
122.51240334085199
 30
0.0
 10
119.85760587696356
 20
122.51240334085199
 30
0.0
 10
119.2516259872535
 20
122.05792131309572
 30
0.0
 10
119.10013390435226
 20
121.30044934048442
 30
0.0
  0
LINE
  5
160
100
AcDbEntity
  8
0
 62
1
420
16711680
370
-1
 48
1.0
  6
BYLAYER
100
AcDbLine
 10
119.10013390435226
 20
121.30044934048442
 30
0.0
 11
111.97990198504804
 21
92.970990629958692
 31
0.0
  0
LINE
  5
161
100
AcDbEntity
  8
0
 62
1
420
16711680
370
-1
 48
1.0
  6
BYLAYER
100
AcDbLine
 10
111.97990198504804
 20
92.970990629958692
 30
0.0
 11
105.31414631444758
 21
104.63606016398323
 31
0.0
  0
LINE
  5
162
100
AcDbEntity
  8
0
 62
1
420
16711680
370
-1
 48
1.0
  6
BYLAYER
100
AcDbLine
 10
105.31414631444758
 20
104.63606016398323
 30
0.0
 11
116.22173809680829
 21
128.42068125978864
 31
0.0
  0
SPLINE
  5
163
100
AcDbEntity
  8
0
 62
1
420
16711680
370
-1
 48
1.0
  6
BYLAYER
100
AcDbSpline
 70
8
 71
3
 72
8
 73
4
 74
0
 40
0.0
 40
0.0
 40
0.0
 40
0.0
 40
1.0
 40
1.0
 40
1.0
 40
1.0
 10
116.22173809680829
 20
128.42068125978864
 30
0.0
 10
116.37323017970955
 20
128.72367120464367
 30
0.0
 10
116.37323017970955
 20
129.17815323239995
 30
0.0
 10
116.22173809680829
 20
129.48114317725498
 30
0.0
  0
LINE
  5
164
100
AcDbEntity
  8
0
 62
1
420
16711680
370
-1
 48
1.0
  6
BYLAYER
100
AcDbLine
 10
116.22173809680829
 20
129.48114317725501
 30
0.0
 11
113.79783009607314
 21
137.05586290336799
 31
0.0
  0
SPLINE
  5
165
100
AcDbEntity
  8
0
 62
1
420
16711680
370
-1
 48
1.0
  6
BYLAYER
100
AcDbSpline
 70
8
 71
3
 72
8
 73
4
 74
0
 40
0.0
 40
0.0
 40
0.0
 40
0.0
 40
1.0
 40
1.0
 40
1.0
 40
1.0
 10
113.79783009607314
 20
137.05586290336799
 30
0.0
 10
113.49484593027064
 20
137.81333487597931
 30
0.0
 10
112.73737395765934
 20
138.26781690373559
 30
0.0
 10
111.82839834404174
 20
138.11632482083434
 30
0.0
  0
SPLINE
  5
166
100
AcDbEntity
  8
0
 62
1
420
16711680
370
-1
 48
1.0
  6
BYLAYER
100
AcDbSpline
 70
8
 71
3
 72
8
 73
4
 74
0
 40
0.0
 40
0.0
 40
0.0
 40
0.0
 40
1.0
 40
1.0
 40
1.0
 40
1.0
 10
111.82839834404174
 20
138.11632482083434
 30
0.0
 10
111.07092637143043
 20
137.81333487597931
 30
0.0
 10
110.61643856462163
 20
137.05586290336799
 30
0.0
 10
110.76794220562792
 20
136.14689884785545
 30
0.0
  0
LINE
  5
167
100
AcDbEntity
  8
0
 62
1
420
16711680
370
-1
 48
1.0
  6
BYLAYER
100
AcDbLine
 10
110.76794220562792
 20
136.14689884785543
 30
0.0
 11
113.04035812346184
 21
129.02666114949869
 31
0.0
  0
LINE
  5
168
100
AcDbEntity
  8
0
 62
1
420
16711680
370
-1
 48
1.0
  6
BYLAYER
100
AcDbLine
 10
113.04035812346184
 20
129.02666114949869
 30
0.0
 11
102.1327663411011
 21
105.09054797079204
 31
0.0
  0
SPLINE
  5
169
100
AcDbEntity
  8
0
 62
1
420
16711680
370
-1
 48
1.0
  6
BYLAYER
100
AcDbSpline
 70
8
 71
3
 72
8
 73
4
 74
0
 40
0.0
 40
0.0
 40
0.0
 40
0.0
 40
1.0
 40
1.0
 40
1.0
 40
1.0
 10
102.1327663411011
 20
105.09054797079203
 30
0.0
 10
101.98127425819985
 20
104.63606594303577
 30
0.0
 10
101.98127425819985
 20
104.1815839152795
 30
0.0
 10
102.1327663411011
 20
103.72710188752322
 30
0.0
  0
LINE
  5
16A
100
AcDbEntity
  8
0
 62
1
420
16711680
370
-1
 48
1.0
  6
BYLAYER
100
AcDbLine
 10
102.1327663411011
 20
103.72710188752323
 30
0.0
 11
110.31346595692419
 21
89.183642325007227
 31
0.0
  0
LINE
  5
16B
100
AcDbEntity
  8
0
 62
1
420
16711680
370
-1
 48
1.0
  6
BYLAYER
100
AcDbLine
 10
110.31346595692419
 20
89.183642325007227
 30
0.0
 11
101.82978217529862
 21
81.457418957887882
 31
0.0
  0
LINE
  5
16C
100
AcDbEntity
  8
0
 62
1
420
16711680
370
-1
 48
1.0
  6
BYLAYER
100
AcDbLine
 10
101.82978217529862
 20
81.457418957887882
 30
0.0
 11
100.46633031297725
 21
88.577650877192127
 31
0.0
  0
SPLINE
  5
16D
100
AcDbEntity
  8
0
 62
1
420
16711680
370
-1
 48
1.0
  6
BYLAYER
100
AcDbSpline
 70
8
 71
3
 72
8
 73
4
 74
0
 40
0.0
 40
0.0
 40
0.0
 40
0.0
 40
1.0
 40
1.0
 40
1.0
 40
1.0
 10
100.46633031297725
 20
88.577650877192127
 30
0.0
 10
100.31483823007599
 20
89.183630766902155
 30
0.0
 10
99.860350423267192
 20
89.638107015605911
 30
0.0
 10
99.25437053355715
 20
89.789610656612226
 30
0.0
  0
SPLINE
  5
16E
100
AcDbEntity
  8
0
 62
1
420
16711680
370
-1
 48
1.0
  6
BYLAYER
100
AcDbSpline
 70
8
 71
3
 72
8
 73
4
 74
0
 40
0.0
 40
0.0
 40
0.0
 40
0.0
 40
1.0
 40
1.0
 40
1.0
 40
1.0
 10
99.25437053355715
 20
89.789610656612226
 30
0.0
 10
98.648390643847094
 20
89.941102739513482
 30
0.0
 10
98.042416533189567
 20
89.486626490809726
 30
0.0
 10
97.739426588334553
 20
89.032138684000927
 30
0.0
  0
LINE
  5
16F
100
AcDbEntity
  8
0
 62
1
420
16711680
370
-1
 48
1.0
  6
BYLAYER
100
AcDbLine
 10
97.739426588334538
 20
89.032138684000927
 30
0.0
 11
87.589300999532597
 21
69.034883230304558
 31
0.0
  0
LINE
  5
170
100
AcDbEntity
  8
0
 62
1
420
16711680
370
-1
 48
1.0
  6
BYLAYER
100
AcDbLine
 10
87.589300999532597
 20
69.034883230304558
 30
0.0
 11
77.590679051736942
 21
64.035563587827937
 31
0.0
  0
LINE
  5
171
100
AcDbEntity
  8
0
 62
1
420
16711680
370
-1
 48
1.0
  6
BYLAYER
100
AcDbLine
 10
77.590679051736942
 20
64.035563587827937
 30
0.0
 11
67.592051324888757
 21
69.034883230304558
 31
0.0
  0
LINE
  5
172
100
AcDbEntity
  8
0
 62
1
420
16711680
370
-1
 48
1.0
  6
BYLAYER
100
AcDbLine
 10
67.592051324888757
 20
69.034883230304558
 30
0.0
 11
57.441925736086795
 21
89.032138684000898
 31
0.0
  0
SPLINE
  5
173
100
AcDbEntity
  8
0
 62
1
420
16711680
370
-1
 48
1.0
  6
BYLAYER
100
AcDbSpline
 70
8
 71
3
 72
8
 73
4
 74
0
 40
0.0
 40
0.0
 40
0.0
 40
0.0
 40
1.0
 40
1.0
 40
1.0
 40
1.0
 10
57.441925736086795
 20
89.032138684000927
 30
0.0
 10
57.138935791231773
 20
89.638118573710969
 30
0.0
 10
56.532961680574239
 20
89.941102739513482
 30
0.0
 10
55.92698179086419
 20
89.789610656612226
 30
0.0
  0
SPLINE
  5
174
100
AcDbEntity
  8
0
 62
1
420
16711680
370
-1
 48
1.0
  6
BYLAYER
100
AcDbSpline
 70
8
 71
3
 72
8
 73
4
 74
0
 40
0.0
 40
0.0
 40
0.0
 40
0.0
 40
1.0
 40
1.0
 40
1.0
 40
1.0
 10
55.92698179086419
 20
89.789610656612226
 30
0.0
 10
55.321001901154141
 20
89.638118573710969
 30
0.0
 10
54.715027790496613
 20
89.183630766902155
 30
0.0
 10
54.715027790496613
 20
88.577650877192127
 30
0.0
  0
LINE
  5
175
100
AcDbEntity
  8
0
 62
1
420
16711680
370
-1
 48
1.0
  6
BYLAYER
100
AcDbLine
 10
54.71502779049662
 20
88.577650877192099
 30
0.0
 11
53.351575928175251
 21
81.457418957887896
 31
0.0
  0
LINE
  5
176
100
AcDbEntity
  8
0
 62
1
420
16711680
370
-1
 48
1.0
  6
BYLAYER
100
AcDbLine
 10
53.351575928175251
 20
81.457418957887896
 30
0.0
 11
44.564902201694665
 21
89.183630766902183
 31
0.0
  0
LINE
  5
177
100
AcDbEntity
  8
0
 62
1
420
16711680
370
-1
 48
1.0
  6
BYLAYER
100
AcDbLine
 10
44.564902201694665
 20
89.183630766902183
 30
0.0
 11
52.89709390041898
 21
103.72709032941815
 31
0.0
  0
SPLINE
  5
178
100
AcDbEntity
  8
0
 62
1
420
16711680
370
-1
 48
1.0
  6
BYLAYER
100
AcDbSpline
 70
8
 71
3
 72
8
 73
4
 74
0
 40
0.0
 40
0.0
 40
0.0
 40
0.0
 40
1.0
 40
1.0
 40
1.0
 40
1.0
 10
52.897093900418987
 20
103.72709032941816
 30
0.0
 10
53.200083845274008
 20
104.18157235717445
 30
0.0
 10
53.200083845274008
 20
104.63605438493073
 30
0.0
 10
52.897093900418987
 20
105.0905421917395
 30
0.0
  0
LINE
  5
179
100
AcDbEntity
  8
0
 62
1
420
16711680
370
-1
 48
1.0
  6
BYLAYER
100
AcDbLine
 10
52.897093900418987
 20
105.0905421917395
 30
0.0
 11
41.989496339005726
 21
129.02665537044615
 31
0.0
  0
LINE
  5
17A
100
AcDbEntity
  8
0
 62
1
420
16711680
370
-1
 48
1.0
  6
BYLAYER
100
AcDbLine
 10
41.989496339005726
 20
129.02665537044615
 30
0.0
 11
44.261912256839636
 21
136.14689306880291
 31
0.0
  0
SPLINE
  5
17B
100
AcDbEntity
  8
0
 62
1
420
16711680
370
-1
 48
1.0
  6
BYLAYER
100
AcDbSpline
 70
8
 71
3
 72
8
 73
4
 74
0
 40
0.0
 40
0.0
 40
0.0
 40
0.0
 40
1.0
 40
1.0
 40
1.0
 40
1.0
 10
44.261912256839636
 20
136.14689306880291
 30
0.0
 10
44.56490220169465
 20
136.9043650414142
 30
0.0
 10
44.110417284412122
 20
137.81332909692676
 30
0.0
 10
43.201450339373302
 20
138.11631904178179
 30
0.0
  0
SPLINE
  5
17C
100
AcDbEntity
  8
0
 62
1
420
16711680
370
-1
 48
1.0
  6
BYLAYER
100
AcDbSpline
 70
8
 71
3
 72
8
 73
4
 74
0
 40
0.0
 40
0.0
 40
0.0
 40
0.0
 40
1.0
 40
1.0
 40
1.0
 40
1.0
 10
43.201450339373302
 20
138.11631904178179
 30
0.0
 10
42.443978366762003
 20
138.41930898663682
 30
0.0
 10
41.535011421723183
 20
137.96482695888054
 30
0.0
 10
41.23202436639442
 20
137.05585712431545
 30
0.0
  0
LINE
  5
17D
100
AcDbEntity
  8
0
 62
1
420
16711680
370
-1
 48
1.0
  6
BYLAYER
100
AcDbLine
 10
41.232024366394427
 20
137.05585712431545
 30
0.0
 11
38.808113476133002
 21
129.48113739820243
 31
0.0
  0
SPLINE
  5
17E
100
AcDbEntity
  8
0
 62
1
420
16711680
370
-1
 48
1.0
  6
BYLAYER
100
AcDbSpline
 70
8
 71
3
 72
8
 73
4
 74
0
 40
0.0
 40
0.0
 40
0.0
 40
0.0
 40
1.0
 40
1.0
 40
1.0
 40
1.0
 10
38.808113476133002
 20
129.48113739820243
 30
0.0
 10
38.656618503705488
 20
129.17814745334741
 30
0.0
 10
38.656618503705488
 20
128.72366542559115
 30
0.0
 10
38.808113476133002
 20
128.42067548073612
 30
0.0
  0
LINE
  5
17F
100
AcDbEntity
  8
0
 62
1
420
16711680
370
-1
 48
1.0
  6
BYLAYER
100
AcDbLine
 10
38.808113476133002
 20
128.42067548073609
 30
0.0
 11
49.715708148019999
 21
104.63605438493073
 31
0.0
  0
LINE
  5
180
100
AcDbEntity
  8
0
 62
1
420
16711680
370
-1
 48
1.0
  6
BYLAYER
100
AcDbLine
 10
49.715708148019999
 20
104.63605438493073
 30
0.0
 11
43.049955366945795
 21
92.970990629958692
 31
0.0
  0
LINE
  5
181
100
AcDbEntity
  8
0
 62
1
420
16711680
370
-1
 48
1.0
  6
BYLAYER
100
AcDbLine
 10
43.049955366945795
 20
92.970990629958692
 30
0.0
 11
35.929720558115307
 21
121.30044356143188
 31
0.0
  0
SPLINE
  5
182
100
AcDbEntity
  8
0
 62
1
420
16711680
370
-1
 48
1.0
  6
BYLAYER
100
AcDbSpline
 70
8
 71
3
 72
8
 73
4
 74
0
 40
0.0
 40
0.0
 40
0.0
 40
0.0
 40
1.0
 40
1.0
 40
1.0
 40
1.0
 10
35.929720558115307
 20
121.30044356143189
 30
0.0
 10
35.778225585687792
 20
121.90642345114196
 30
0.0
 10
35.172248585504001
 20
122.36090547889823
 30
0.0
 10
34.566271585320216
 20
122.51239756179947
 30
0.0
  0
SPLINE
  5
183
100
AcDbEntity
  8
0
 62
1
420
16711680
370
-1
 48
1.0
  6
BYLAYER
100
AcDbSpline
 70
8
 71
3
 72
8
 73
4
 74
0
 40
0.0
 40
0.0
 40
0.0
 40
0.0
 40
1.0
 40
1.0
 40
1.0
 40
1.0
 10
34.566271585320216
 20
122.51239756179947
 30
0.0
 10
33.960294585136424
 20
122.51239756179947
 30
0.0
 10
33.354317584952639
 20
122.20940761694443
 30
0.0
 10
33.051327640097611
 20
121.45193564433313
 30
0.0
  0
LINE
  5
184
100
AcDbEntity
  8
0
 62
1
420
16711680
370
-1
 48
1.0
  6
BYLAYER
100
AcDbLine
 10
33.051327640097611
 20
121.45193564433313
 30
0.0
 11
30.930406694691218
 21
115.84664189119898
 31
0.0
  0
LINE
  5
185
100
AcDbEntity
  8
0
 62
1
420
16711680
370
-1
 48
1.0
  6
BYLAYER
100
AcDbLine
 10
30.930406694691218
 20
115.84664189119898
 30
0.0
 11
24.264652468853882
 21
134.3289649577778
 31
0.0
  0
LINE
  5
186
100
AcDbEntity
  8
0
 62
1
420
16711680
370
-1
 48
1.0
  6
BYLAYER
100
AcDbLine
 10
24.264652468853882
 20
134.3289649577778
 30
0.0
 11
41.989496339005719
 21
144.17610060172476
 31
0.0
  0
SPLINE
  5
187
100
AcDbEntity
  8
0
 62
1
420
16711680
370
-1
 48
1.0
  6
BYLAYER
100
AcDbSpline
 70
8
 71
3
 72
8
 73
4
 74
0
 40
0.0
 40
0.0
 40
0.0
 40
0.0
 40
1.0
 40
1.0
 40
1.0
 40
1.0
 10
41.989496339005726
 20
144.17610060172476
 30
0.0
 10
42.292486283860747
 20
144.32759268462598
 30
0.0
 10
42.443978366762003
 20
144.63058262948101
 30
0.0
 10
42.595473339189518
 20
144.93357257433604
 30
0.0
  0
LINE
  5
188
100
AcDbEntity
  8
0
 62
1
420
16711680
370
-1
 48
1.0
  6
BYLAYER
100
AcDbLine
 10
42.595473339189525
 20
144.93357257433607
 30
0.0
 11
50.776170065486326
 21
162.65841788925101
 31
0.0
  0
LINE
  5
189
100
AcDbEntity
  8
0
 62
1
420
16711680
370
-1
 48
1.0
  6
BYLAYER
100
AcDbLine
 10
50.776170065486326
 20
162.65841788925101
 30
0.0
 11
66.986071435178701
 21
161.29496602692967
 31
0.0
  0
SPLINE
  5
18A
100
AcDbEntity
  8
0
 62
1
420
16711680
370
-1
 48
1.0
  6
BYLAYER
100
AcDbSpline
 70
8
 71
3
 72
8
 73
4
 74
0
 40
0.0
 40
0.0
 40
0.0
 40
0.0
 40
1.0
 40
1.0
 40
1.0
 40
1.0
 10
66.986071435178701
 20
161.29496602692967
 30
0.0
 10
67.895035490691257
 20
161.29496602692967
 30
0.0
 10
68.501015380401299
 20
161.90094302711344
 30
0.0
 10
68.652507463302555
 20
162.65841499972476
 30
0.0
  0
SPLINE
  5
18B
100
AcDbEntity
  8
0
 62
1
420
16711680
370
-1
 48
1.0
  6
BYLAYER
100
AcDbSpline
 70
8
 71
3
 72
8
 73
4
 74
0
 40
0.0
 40
0.0
 40
0.0
 40
0.0
 40
1.0
 40
1.0
 40
1.0
 40
1.0
 10
68.652507463302555
 20
162.65841499972476
 30
0.0
 10
68.652507463302555
 20
163.56738194476355
 30
0.0
 10
68.046527573592513
 20
164.17335894494738
 30
0.0
 10
67.2890556009812
 20
164.32485391737487
 30
0.0
  0
LINE
  5
18C
100
AcDbEntity
  8
0
 62
1
420
16711680
370
-1
 48
1.0
  6
BYLAYER
100
AcDbLine
 10
67.289055600981186
 20
164.3248539173749
 30
0.0
 11
50.018695203348756
 21
165.68830289016998
 31
0.0
  0
SPLINE
  5
18D
100
AcDbEntity
  8
0
 62
1
420
16711680
370
-1
 48
1.0
  6
BYLAYER
100
AcDbSpline
 70
8
 71
3
 72
8
 73
4
 74
0
 40
0.0
 40
0.0
 40
0.0
 40
0.0
 40
1.0
 40
1.0
 40
1.0
 40
1.0
 10
50.018695203348756
 20
165.68830289016998
 30
0.0
 10
49.412718203164971
 20
165.68830289016998
 30
0.0
 10
48.806741202981179
 20
165.38531294531495
 30
0.0
 10
48.503751258126158
 20
164.77933594513115
 30
0.0
  0
LINE
  5
18E
100
AcDbEntity
  8
0
 62
1
420
16711680
370
-1
 48
1.0
  6
BYLAYER
100
AcDbLine
 10
48.503751258126151
 20
164.77933594513115
 30
0.0
 11
40.020064586974314
 21
146.60000860245989
 31
0.0
  0
LINE
  5
18F
100
AcDbEntity
  8
0
 62
1
420
16711680
370
-1
 48
1.0
  6
BYLAYER
100
AcDbLine
 10
40.020064586974314
 20
146.60000860245989
 30
0.0
 11
25.779592079787086
 21
138.72229893149185
 31
0.0
  0
LINE
  5
190
100
AcDbEntity
  8
0
 62
1
420
16711680
370
-1
 48
1.0
  6
BYLAYER
100
AcDbLine
 10
25.779592079787086
 20
138.72229893149185
 30
0.0
 11
37.293166641384133
 21
160.38599619236462
 31
0.0
  0
SPLINE
  5
191
100
AcDbEntity
  8
0
 62
1
420
16711680
370
-1
 48
1.0
  6
BYLAYER
100
AcDbSpline
 70
8
 71
3
 72
8
 73
4
 74
0
 40
0.0
 40
0.0
 40
0.0
 40
0.0
 40
1.0
 40
1.0
 40
1.0
 40
1.0
 10
37.293166641384133
 20
160.38599619236459
 30
0.0
 10
37.596156586239161
 20
160.84047822012084
 30
0.0
 10
37.596156586239161
 20
161.44645810983093
 30
0.0
 10
37.141671668956626
 20
161.90094013758716
 30
0.0
  0
SPLINE
  5
192
100
AcDbEntity
  8
0
 62
1
420
16711680
370
-1
 48
1.0
  6
BYLAYER
100
AcDbSpline
 70
8
 71
3
 72
8
 73
4
 74
0
 40
0.0
 40
0.0
 40
0.0
 40
0.0
 40
1.0
 40
1.0
 40
1.0
 40
1.0
 10
37.141671668956626
 20
161.90094013758716
 30
0.0
 10
36.83868172410159
 20
162.3554221653435
 30
0.0
 10
36.232704723917806
 20
162.6584121101985
 30
0.0
 10
35.626727723734021
 20
162.50691713777098
 30
0.0
  0
LINE
  5
193
100
AcDbEntity
  8
0
 62
1
420
16711680
370
-1
 48
1.0
  6
BYLAYER
100
AcDbLine
 10
35.626727723734021
 20
162.50691713777098
 30
0.0
 11
29.718449804797373
 21
161.5979559717847
 31
0.0
  0
LINE
  5
194
100
AcDbEntity
  8
0
 62
1
420
16711680
370
-1
 48
1.0
  6
BYLAYER
100
AcDbLine
 10
29.718449804797373
 20
161.5979559717847
 30
0.0
 11
35.626730613260278
 21
170.38462969826529
 31
0.0
  0
LINE
  5
195
100
AcDbEntity
  8
0
 62
1
420
16711680
370
-1
 48
1.0
  6
BYLAYER
100
AcDbLine
 10
35.626730613260278
 20
170.38462969826529
 30
0.0
 11
60.774803571387032
 21
177.65636092428645
 31
0.0
  0
SPLINE
  5
196
100
AcDbEntity
  8
0
 62
1
420
16711680
370
-1
 48
1.0
  6
BYLAYER
100
AcDbSpline
 70
8
 71
3
 72
8
 73
4
 74
0
 40
0.0
 40
0.0
 40
0.0
 40
0.0
 40
1.0
 40
1.0
 40
1.0
 40
1.0
 10
60.774803571387032
 20
177.65636092428645
 30
0.0
 10
61.380783461097081
 20
177.80785589671393
 30
0.0
 10
61.835265488853359
 20
178.41383289689773
 30
0.0
 10
61.835265488853359
 20
179.17130486950902
 30
0.0
  0
SPLINE
  5
197
100
AcDbEntity
  8
0
 62
1
420
16711680
370
-1
 48
1.0
  6
BYLAYER
100
AcDbSpline
 70
8
 71
3
 72
8
 73
4
 74
0
 40
0.0
 40
0.0
 40
0.0
 40
0.0
 40
1.0
 40
1.0
 40
1.0
 40
1.0
 10
61.835265488853359
 20
179.17130486950902
 30
0.0
 10
61.835265488853359
 20
179.92877684212033
 30
0.0
 10
61.380783461097081
 20
180.38326031463976
 30
0.0
 10
60.623311488485783
 20
180.5347538423041
 30
0.0
  0
LINE
  5
198
100
AcDbEntity
  8
0
 62
1
420
16711680
370
-1
 48
1.0
  6
BYLAYER
100
AcDbLine
 10
60.623311488485783
 20
180.53475384230413
 30
0.0
 11
52.594109734616481
 21
182.20119275995421
 31
0.0
  0
LINE
  5
199
100
AcDbEntity
  8
0
 62
1
420
16711680
370
-1
 48
1.0
  6
BYLAYER
100
AcDbLine
 10
52.594109734616481
 20
182.20119275995421
 30
0.0
 11
59.865839515874477
 21
186.14004615067512
 31
0.0
  0
LINE
  5
19A
100
AcDbEntity
  8
0
 62
1
420
16711680
370
-1
 48
1.0
  6
BYLAYER
100
AcDbLine
 10
59.865839515874477
 20
186.14004615067512
 30
0.0
 11
76.833212858178157
 21
181.89820281509921
 31
0.0
  0
SPLINE
  5
19B
100
AcDbEntity
  8
0
 62
1
420
16711680
370
-1
 48
1.0
  6
BYLAYER
100
AcDbSpline
 70
8
 71
3
 72
8
 73
4
 74
0
 40
0.0
 40
0.0
 40
0.0
 40
0.0
 40
1.0
 40
1.0
 40
1.0
 40
1.0
 10
76.833212858178157
 20
181.89820281509921
 30
0.0
 10
76.9847049410794
 20
181.89820281509921
 30
0.0
 10
76.9847049410794
 20
181.89820281509921
 30
0.0
 10
77.136202803033186
 20
181.89820281509921
 30
0.0
  0
SPLINE
  5
19C
100
AcDbEntity
  8
0
 62
1
420
16711680
370
-1
 48
1.0
  6
BYLAYER
100
AcDbSpline
 70
8
 71
3
 72
8
 73
4
 74
0
 40
0.0
 40
0.0
 40
0.0
 40
0.0
 40
1.0
 40
1.0
 40
1.0
 40
1.0
 10
77.136202803033186
 20
181.89820281509921
 30
0.0
 10
77.287694885934442
 20
181.89820281509921
 30
0.0
 10
77.287694885934442
 20
181.89820281509921
 30
0.0
 10
77.439192747888214
 20
181.89820281509921
 30
0.0
  0
LINE
  5
19D
100
AcDbEntity
  8
0
 62
1
420
16711680
370
-1
 48
1.0
  6
BYLAYER
100
AcDbLine
 10
77.439192747888214
 20
181.89820281509921
 30
0.0
 11
94.406566090191887
 21
186.14004615067512
 31
0.0
  0
LINE
  5
19E
100
AcDbEntity
  8
0
 62
1
420
16711680
370
-1
 48
1.0
  6
BYLAYER
100
AcDbLine
 10
94.406566090191887
 20
186.14004615067512
 30
0.0
 11
101.67830165050241
 21
182.2011913151911
 31
0.0
  0
LINE
  5
19F
100
AcDbEntity
  8
0
 62
1
420
16711680
370
-1
 48
1.0
  6
BYLAYER
100
AcDbLine
 10
101.67830165050241
 20
182.2011913151911
 30
0.0
 11
94.255062449185587
 21
180.83774378715913
 31
0.0
  0
SPLINE
  5
1A0
100
AcDbEntity
  8
0
 62
1
420
16711680
370
-1
 48
1.0
  6
BYLAYER
100
AcDbSpline
 70
8
 71
3
 72
8
 73
4
 74
0
 40
0.0
 40
0.0
 40
0.0
 40
0.0
 40
1.0
 40
1.0
 40
1.0
 40
1.0
 10
94.255062449185587
 20
180.83774378715916
 30
0.0
 10
93.649082559475531
 20
180.68624881473164
 30
0.0
 10
93.043108448818003
 20
180.08027181454787
 30
0.0
 10
93.043108448818003
 20
179.47429481436404
 30
0.0
  0
SPLINE
  5
1A1
100
AcDbEntity
  8
0
 62
1
420
16711680
370
-1
 48
1.0
  6
BYLAYER
100
AcDbSpline
 70
8
 71
3
 72
8
 73
4
 74
0
 40
0.0
 40
0.0
 40
0.0
 40
0.0
 40
1.0
 40
1.0
 40
1.0
 40
1.0
 10
93.043108448818003
 20
179.47429481436404
 30
0.0
 10
93.043108448818003
 20
178.71682284175276
 30
0.0
 10
93.497590476574288
 20
178.11084584156896
 30
0.0
 10
94.10357036628433
 20
177.95935086914145
 30
0.0
  0
LINE
  5
1A2
100
AcDbEntity
  8
0
 62
1
420
16711680
370
-1
 48
1.0
  6
BYLAYER
100
AcDbLine
 10
94.10357036628433
 20
177.95935086914142
 30
0.0
 11
119.25163754535856
 21
170.68761964312031
 31
0.0
  0
LINE
  5
1A3
100
AcDbEntity
  8
0
 62
1
420
16711680
370
-1
 48
1.0
  6
BYLAYER
100
AcDbLine
 10
119.25163754535856
 20
170.68761964312031
 30
0.0
 11
125.15992124334772
 21
161.90094591663973
 31
0.0
  0
LINE
  5
1A4
100
AcDbEntity
  8
0
 62
1
420
16711680
370
-1
 48
1.0
  6
BYLAYER
100
AcDbLine
 10
125.15992124334772
 20
161.90094591663973
 30
0.0
 11
119.25163754535856
 21
162.80991286167853
 31
0.0
  0
SPLINE
  5
1A5
100
AcDbEntity
  8
0
 62
1
420
16711680
370
-1
 48
1.0
  6
BYLAYER
100
AcDbSpline
 70
8
 71
3
 72
8
 73
4
 74
0
 40
0.0
 40
0.0
 40
0.0
 40
0.0
 40
1.0
 40
1.0
 40
1.0
 40
1.0
 10
119.25163754535856
 20
162.80991286167853
 30
0.0
 10
118.64565765564851
 20
162.96140783410604
 30
0.0
 10
118.19118140694476
 20
162.65841788925101
 30
0.0
 10
117.73669360013596
 20
162.20393586149473
 30
0.0
  0
SPLINE
  5
1A6
100
AcDbEntity
  8
0
 62
1
420
16711680
370
-1
 48
1.0
  6
BYLAYER
100
AcDbSpline
 70
8
 71
3
 72
8
 73
4
 74
0
 40
0.0
 40
0.0
 40
0.0
 40
0.0
 40
1.0
 40
1.0
 40
1.0
 40
1.0
 10
117.73669360013596
 20
162.20393586149473
 30
0.0
 10
117.43370943433347
 20
161.74945383373847
 30
0.0
 10
117.43370943433347
 20
161.14347394402841
 30
0.0
 10
117.58520151723471
 20
160.68899191627213
 30
0.0
  0
LINE
  5
1A7
100
AcDbEntity
  8
0
 62
1
420
16711680
370
-1
 48
1.0
  6
BYLAYER
100
AcDbLine
 10
117.58520151723471
 20
160.68899191627213
 30
0.0
 11
129.25026527220672
 21
138.72230471054436
 31
0.0
  0
LINE
  5
1A8
100
AcDbEntity
  8
0
 62
1
420
16711680
370
-1
 48
1.0
  6
BYLAYER
100
AcDbLine
 10
129.25026527220672
 20
138.72230471054436
 30
0.0
 11
115.00978987549324
 21
146.75150646441367
 31
0.0
  0
LINE
  5
1A9
100
AcDbEntity
  8
0
 62
1
420
16711680
370
-1
 48
1.0
  6
BYLAYER
100
AcDbLine
 10
115.00978987549324
 20
146.75150646441367
 30
0.0
 11
106.52610609386767
 21
164.93083380708492
 31
0.0
  0
SPLINE
  5
1AA
100
AcDbEntity
  8
0
 62
1
420
16711680
370
-1
 48
1.0
  6
BYLAYER
100
AcDbSpline
 70
8
 71
3
 72
8
 73
4
 74
0
 40
0.0
 40
0.0
 40
0.0
 40
0.0
 40
1.0
 40
1.0
 40
1.0
 40
1.0
 10
106.52610609386768
 20
164.93083380708492
 30
0.0
 10
106.22312192806517
 20
165.53681080726872
 30
0.0
 10
105.61714203835513
 20
165.83980075212372
 30
0.0
 10
105.01116214864507
 20
165.83980075212372
 30
0.0
  0
LINE
  5
1AB
100
AcDbEntity
  8
0
 62
1
420
16711680
370
-1
 48
1.0
  6
BYLAYER
100
AcDbLine
 10
105.01116214864507
 20
165.83980075212372
 30
0.0
 11
87.740798861486354
 21
164.47635177932864
 31
0.0
  0
SPLINE
  5
1AC
100
AcDbEntity
  8
0
 62
1
420
16711680
370
-1
 48
1.0
  6
BYLAYER
100
AcDbSpline
 70
8
 71
3
 72
8
 73
4
 74
0
 40
0.0
 40
0.0
 40
0.0
 40
0.0
 40
1.0
 40
1.0
 40
1.0
 40
1.0
 10
87.740798861486354
 20
164.47635177932867
 30
0.0
 10
86.831834805973813
 20
164.47635177932867
 30
0.0
 10
86.225854916263756
 20
163.71887980671733
 30
0.0
 10
86.377346999165013
 20
162.80991286167853
 30
0.0
  0
SPLINE
  5
1AD
100
AcDbEntity
  8
0
 62
1
420
16711680
370
-1
 48
1.0
  6
BYLAYER
100
AcDbSpline
 70
8
 71
3
 72
8
 73
4
 74
0
 40
0.0
 40
0.0
 40
0.0
 40
0.0
 40
1.0
 40
1.0
 40
1.0
 40
1.0
 10
86.377346999165013
 20
162.80991286167853
 30
0.0
 10
86.377346999165013
 20
161.90094591663973
 30
0.0
 10
87.134818971776312
 20
161.29496891645596
 30
0.0
 10
88.043783027288868
 20
161.44646388888344
 30
0.0
  0
LINE
  5
1AE
100
AcDbEntity
  8
0
 62
1
420
16711680
370
-1
 48
1.0
  6
BYLAYER
100
AcDbLine
 10
88.043783027288868
 20
161.44646388888339
 30
0.0
 11
104.25367861792871
 21
162.65841788925101
 31
0.0
  0
LINE
  5
1AF
100
AcDbEntity
  8
0
 62
1
420
16711680
370
-1
 48
1.0
  6
BYLAYER
100
AcDbLine
 10
104.25367861792871
 20
162.65841788925101
 30
0.0
 11
112.43438979185683
 21
144.93357257433604
 31
0.0
  0
SPLINE
  5
1B0
100
AcDbEntity
  8
0
 62
1
420
16711680
370
-1
 48
1.0
  6
BYLAYER
100
AcDbSpline
 70
8
 71
3
 72
8
 73
4
 74
0
 40
0.0
 40
0.0
 40
0.0
 40
0.0
 40
1.0
 40
1.0
 40
1.0
 40
1.0
 10
112.43438979185684
 20
144.93357257433604
 30
0.0
 10
112.58588187475809
 20
144.63058262948101
 30
0.0
 10
112.73737395765934
 20
144.47909054657976
 30
0.0
 10
113.04036968156689
 20
144.32759268462598
 30
0.0
  0
LINE
  5
1B1
100
AcDbEntity
  8
0
 62
1
420
16711680
370
-1
 48
1.0
  6
BYLAYER
100
AcDbLine
 10
113.04036968156692
 20
144.32759268462598
 30
0.0
 11
130.76520921742934
 21
134.3289649577778
 31
0.0
  0
LINE
  5
1B2
100
AcDbEntity
  8
0
 62
1
420
16711680
370
-1
 48
1.0
  6
BYLAYER
100
AcDbLine
 10
130.76520921742934
 20
134.3289649577778
 30
0.0
 11
124.09945354682888
 21
115.84664767025153
 31
0.0
  0
SPLINE
  5
1B3
100
AcDbEntity
  8
0
 62
1
420
16711680
370
-1
 48
1.0
  6
BYLAYER
100
AcDbSpline
 70
8
 71
3
 72
8
 73
4
 74
0
 40
0.0
 40
0.0
 40
0.0
 40
0.0
 40
1.0
 40
1.0
 40
1.0
 40
1.0
 10
92.285636476206719
 20
87.668686821679557
 30
0.0
 10
91.831154448450434
 20
88.42615879429087
 30
0.0
 10
90.922184613885349
 20
88.577650877192127
 30
0.0
 10
90.16471264127405
 20
88.123174628488371
 30
0.0
  0
LINE
  5
1B4
100
AcDbEntity
  8
0
 62
1
420
16711680
370
-1
 48
1.0
  6
BYLAYER
100
AcDbLine
 10
90.16471264127405
 20
88.123174628488371
 30
0.0
 11
81.681028859648478
 21
82.517886654406738
 31
0.0
  0
SPLINE
  5
1B5
100
AcDbEntity
  8
0
 62
1
420
16711680
370
-1
 48
1.0
  6
BYLAYER
100
AcDbSpline
 70
8
 71
3
 72
8
 73
4
 74
0
 40
0.0
 40
0.0
 40
0.0
 40
0.0
 40
1.0
 40
1.0
 40
1.0
 40
1.0
 10
81.681028859648478
 20
82.517886654406738
 30
0.0
 10
81.378038914793436
 20
82.366394571505509
 30
0.0
 10
81.226546831892193
 20
82.063398847597938
 30
0.0
 10
81.075048969938422
 20
81.760414681795453
 30
0.0
  0
LINE
  5
1B6
100
AcDbEntity
  8
0
 62
1
420
16711680
370
-1
 48
1.0
  6
BYLAYER
100
AcDbLine
 10
81.075048969938422
 20
81.760414681795424
 30
0.0
 11
77.590679051736927
 21
72.822243093361067
 31
0.0
  0
LINE
  5
1B7
100
AcDbEntity
  8
0
 62
1
420
16711680
370
-1
 48
1.0
  6
BYLAYER
100
AcDbLine
 10
77.590679051736927
 20
72.822243093361067
 30
0.0
 11
74.106309133535447
 21
81.760414681795453
 31
0.0
  0
SPLINE
  5
1B8
100
AcDbEntity
  8
0
 62
1
420
16711680
370
-1
 48
1.0
  6
BYLAYER
100
AcDbSpline
 70
8
 71
3
 72
8
 73
4
 74
0
 40
0.0
 40
0.0
 40
0.0
 40
0.0
 40
1.0
 40
1.0
 40
1.0
 40
1.0
 10
74.106309133535447
 20
81.760414681795453
 30
0.0
 10
73.95481705063419
 20
82.063398847597938
 30
0.0
 10
73.803319188680419
 20
82.366394571505509
 30
0.0
 10
73.500329243825405
 20
82.517886654406738
 30
0.0
  0
LINE
  5
1B9
100
AcDbEntity
  8
0
 62
1
420
16711680
370
-1
 48
1.0
  6
BYLAYER
100
AcDbLine
 10
73.500329243825405
 20
82.517886654406723
 30
0.0
 11
65.016645462199818
 21
88.123174628488371
 31
0.0
  0
SPLINE
  5
1BA
100
AcDbEntity
  8
0
 62
1
420
16711680
370
-1
 48
1.0
  6
BYLAYER
100
AcDbSpline
 70
8
 71
3
 72
8
 73
4
 74
0
 40
0.0
 40
0.0
 40
0.0
 40
0.0
 40
1.0
 40
1.0
 40
1.0
 40
1.0
 10
65.016645462199818
 20
88.123174628488371
 30
0.0
 10
64.25917348958852
 20
88.577662435297171
 30
0.0
 10
63.350209434075964
 20
88.42615879429087
 30
0.0
 10
62.895721627267164
 20
87.668686821679557
 30
0.0
  0
SPLINE
  5
1BB
100
AcDbEntity
  8
0
 62
1
420
16711680
370
-1
 48
1.0
  6
BYLAYER
100
AcDbSpline
 70
8
 71
3
 72
8
 73
4
 74
0
 40
0.0
 40
0.0
 40
0.0
 40
0.0
 40
1.0
 40
1.0
 40
1.0
 40
1.0
 10
62.895721627267164
 20
87.668686821679557
 30
0.0
 10
62.441233820458358
 20
86.911214849068273
 30
0.0
 10
62.592731682412143
 20
86.002250793555703
 30
0.0
 10
63.350203655023442
 20
85.547762986746903
 30
0.0
  0
LINE
  5
1BC
100
AcDbEntity
  8
0
 62
1
420
16711680
370
-1
 48
1.0
  6
BYLAYER
100
AcDbLine
 10
63.350203655023442
 20
85.547762986746903
 30
0.0
 11
71.530903270846522
 21
80.093967095566541
 31
0.0
  0
LINE
  5
1BD
100
AcDbEntity
  8
0
 62
1
420
16711680
370
-1
 48
1.0
  6
BYLAYER
100
AcDbLine
 10
71.530903270846522
 20
80.093967095566541
 30
0.0
 11
75.469755216804273
 21
69.792343644810813
 31
0.0
  0
SPLINE
  5
1BE
100
AcDbEntity
  8
0
 62
1
420
16711680
370
-1
 48
1.0
  6
BYLAYER
100
AcDbSpline
 70
8
 71
3
 72
8
 73
4
 74
0
 40
0.0
 40
0.0
 40
0.0
 40
0.0
 40
1.0
 40
1.0
 40
1.0
 40
1.0
 10
75.469755216804273
 20
69.792343644810813
 30
0.0
 10
75.772745161659302
 20
68.883379589298258
 30
0.0
 10
76.681709217171857
 20
68.428891782489458
 30
0.0
 10
77.590679051736927
 20
68.428891782489458
 30
0.0
  0
SPLINE
  5
1BF
100
AcDbEntity
  8
0
 62
1
420
16711680
370
-1
 48
1.0
  6
BYLAYER
100
AcDbSpline
 70
8
 71
3
 72
8
 73
4
 74
0
 40
0.0
 40
0.0
 40
0.0
 40
0.0
 40
1.0
 40
1.0
 40
1.0
 40
1.0
 10
77.590679051736927
 20
68.428891782489458
 30
0.0
 10
78.499643107249483
 20
68.428891782489458
 30
0.0
 10
79.408612941814567
 20
69.0348716721995
 30
0.0
 10
79.711602886669596
 20
69.792343644810813
 30
0.0
  0
LINE
  5
1C0
100
AcDbEntity
  8
0
 62
1
420
16711680
370
-1
 48
1.0
  6
BYLAYER
100
AcDbLine
 10
79.711602886669581
 20
69.792343644810828
 30
0.0
 11
83.650454832627346
 21
80.093967095566541
 31
0.0
  0
LINE
  5
1C1
100
AcDbEntity
  8
0
 62
1
420
16711680
370
-1
 48
1.0
  6
BYLAYER
100
AcDbLine
 10
83.650454832627346
 20
80.093967095566541
 30
0.0
 11
91.831154448450434
 21
85.547762986746903
 31
0.0
  0
SPLINE
  5
1C2
100
AcDbEntity
  8
0
 62
1
420
16711680
370
-1
 48
1.0
  6
BYLAYER
100
AcDbSpline
 70
8
 71
3
 72
8
 73
4
 74
0
 40
0.0
 40
0.0
 40
0.0
 40
0.0
 40
1.0
 40
1.0
 40
1.0
 40
1.0
 10
91.831154448450434
 20
85.547762986746903
 30
0.0
 10
92.588626421061733
 20
86.002250793555703
 30
0.0
 10
92.740118503962975
 20
86.911214849068273
 30
0.0
 10
92.285636476206719
 20
87.668686821679557
 30
0.0
  0
LWPOLYLINE
  5
1C3
100
AcDbEntity
  8
0
 62
1
420
16711680
370
-1
 48
1.0
  6
BYLAYER
100
AcDbPolyline
 90
6
 70
1
 10
33.330121640071674
 20
39.701837022454896
 10
33.330121640071674
 20
26.922540385873475
 10
42.400433871850765
 20
26.922540385873475
 10
42.400433871850765
 20
29.093438108117738
 10
35.931684229478641
 20
29.093438108117738
 10
35.931684229478641
 20
39.701837022454896
  0
LWPOLYLINE
  5
1C4
100
AcDbEntity
  8
0
 62
1
420
16711680
370
-1
 48
1.0
  6
BYLAYER
100
AcDbPolyline
 90
4
 70
1
 10
44.175824973687924
 20
39.807306249292054
 10
44.175824973687924
 20
26.922540385873475
 10
46.777387712106503
 20
26.922540385873475
 10
46.777387712106503
 20
39.807306249292054
  0
LWPOLYLINE
  5
1C5
100
AcDbEntity
  8
0
 62
1
420
16711680
370
-1
 48
1.0
  6
BYLAYER
100
AcDbPolyline
 90
10
 70
1
 10
63.283246610269345
 20
39.807306249292054
 10
63.283246610269345
 20
26.922540385873475
 10
65.700238797769345
 20
26.922540385873475
 10
65.700238797769345
 20
35.324884374292054
 10
70.894573781595028
 20
26.922540385873475
 10
73.504928205117977
 20
26.922540385873475
 10
73.504928205117977
 20
39.807306249292054
 10
71.087933633432186
 20
39.807306249292054
 10
71.087933633432186
 20
31.202814300210633
 10
65.814496133432186
 20
39.807306249292054
  0
LWPOLYLINE
  5
1C6
100
AcDbEntity
  8
0
 62
1
420
16711680
370
-1
 48
1.0
  6
BYLAYER
100
AcDbPolyline
 90
12
 70
1
 10
81.292036626443661
 20
39.807306249292054
 10
81.292036626443661
 20
26.922540385873475
 10
83.893598172769345
 20
26.922540385873475
 10
83.893598172769345
 20
30.816095788629212
 10
86.002973172769345
 20
32.969416101129212
 10
89.544967267617977
 20
26.922540385873475
 10
92.911175344095028
 20
26.922540385873475
 10
87.795942876443661
 20
34.788751919419923
 10
92.647503469095028
 20
39.807306249292054
 10
89.149459455117977
 20
39.807306249292054
 10
83.893598172769345
 20
34.085626323373475
 10
83.893598172769345
 20
39.807306249292054
  0
LWPOLYLINE
  5
1C7
100
AcDbEntity
  8
0
 62
1
420
16711680
370
-1
 48
1.0
  6
BYLAYER
100
AcDbPolyline
 90
4
 70
1
 10
94.176801297769345
 20
39.807306249292054
 10
94.176801297769345
 20
26.922540385873475
 10
96.778362844095028
 20
26.922540385873475
 10
96.778362844095028
 20
39.807306249292054
  0
LWPOLYLINE
  5
1C8
100
AcDbEntity
  8
0
 62
1
420
16711680
370
-1
 48
1.0
  6
BYLAYER
100
AcDbPolyline
 90
10
 70
1
 10
99.283240888223446
 20
39.807306249292054
 10
99.283240888223446
 20
26.922540385873475
 10
101.70023307572345
 20
26.922540385873475
 10
101.70023307572345
 20
35.324884374292054
 10
106.89456805954913
 20
26.922540385873475
 10
109.50492248307208
 20
26.922540385873475
 10
109.50492248307208
 20
39.807306249292054
 10
107.08793029557208
 20
39.807306249292054
 10
107.08793029557208
 20
31.202814300210633
 10
101.81449279557208
 20
39.807306249292054
  0
LINE
  5
1C9
100
AcDbEntity
  8
0
 62
1
420
16711680
370
-1
 48
1.0
  6
BYLAYER
100
AcDbLine
 10
118.25003967057208
 20
31.659844834954896
 30
0.0
 11
118.25003967057208
 21
33.830743749292054
 31
0.0
  0
LINE
  5
1CA
100
AcDbEntity
  8
0
 62
1
420
16711680
370
-1
 48
1.0
  6
BYLAYER
100
AcDbLine
 10
118.25003967057208
 20
33.830743749292054
 30
0.0
 11
123.85746345292071
 21
33.830743749292054
 31
0.0
  0
LINE
  5
1CB
100
AcDbEntity
  8
0
 62
1
420
16711680
370
-1
 48
1.0
  6
BYLAYER
100
AcDbLine
 10
123.85746345292071
 20
33.830743749292054
 30
0.0
 11
123.85746345292071
 21
28.697931487710633
 31
0.0
  0
LINE
  5
1CC
100
AcDbEntity
  8
0
 62
1
420
16711680
370
-1
 48
1.0
  6
BYLAYER
100
AcDbLine
 10
123.69047508011798
 20
36.238947231919923
 30
0.0
 11
121.10648498307208
 21
35.755548794419923
 31
0.0
  0
LINE
  5
1CD
100
AcDbEntity
  8
0
 62
1
420
16711680
370
-1
 48
1.0
  6
BYLAYER
100
AcDbLine
 10
121.22953758011798
 20
30.025080163629212
 30
0.0
 11
121.22953758011798
 21
31.659844834954896
 31
0.0
  0
LINE
  5
1CE
100
AcDbEntity
  8
0
 62
1
420
16711680
370
-1
 48
1.0
  6
BYLAYER
100
AcDbLine
 10
121.22953758011798
 20
31.659844834954896
 30
0.0
 11
118.25003967057208
 21
31.659844834954896
 31
0.0
  0
SPLINE
  5
1CF
100
AcDbEntity
  8
0
 62
1
420
16711680
370
-1
 48
1.0
  6
BYLAYER
100
AcDbSpline
 70
8
 71
3
 72
9
 73
5
 74
0
 40
0.0
 40
0.0
 40
0.0
 40
0.0
 40
0.1816522362866429
 40
0.3374569896543365
 40
0.3374569896543365
 40
0.3374569896543365
 40
0.3374569896543365
 10
48.728558871850765
 20
33.285821993501344
 30
0.0
 10
48.744642003293905
 20
33.89548627494834
 30
0.0
 10
48.774519780919768
 20
35.028065082248204
 30
0.0
 10
49.145940597327204
 20
36.096986147866289
 30
0.0
 10
49.317426536187924
 20
36.590509731919923
 30
0.0
  0
SPLINE
  5
1D0
100
AcDbEntity
  8
0
 62
1
420
16711680
370
-1
 48
1.0
  6
BYLAYER
100
AcDbSpline
 70
8
 71
3
 72
9
 73
5
 74
0
 40
0.0
 40
0.0
 40
0.0
 40
0.0
 40
0.1068687525457664
 40
0.2143846647990789
 40
0.2143846647990789
 40
0.2143846647990789
 40
0.2143846647990789
 10
49.317426536187924
 20
36.590509731919923
 30
0.0
 10
49.477658184101607
 20
36.910602937221967
 30
0.0
 10
49.79909178662696
 20
37.552727720083574
 30
0.0
 10
50.277304956628683
 20
38.088444144897515
 30
0.0
 10
50.517133329019345
 20
38.357110936792054
 30
0.0
  0
SPLINE
  5
1D1
100
AcDbEntity
  8
0
 62
1
420
16711680
370
-1
 48
1.0
  6
BYLAYER
100
AcDbSpline
 70
8
 71
3
 72
9
 73
5
 74
0
 40
0.0
 40
0.0
 40
0.0
 40
0.0
 40
0.1048043303709312
 40
0.2040333219091285
 40
0.2040333219091285
 40
0.2040333219091285
 40
0.2040333219091285
 10
50.517133329019345
 20
38.357110936792054
 30
0.0
 10
50.772248501842761
 20
38.599163611827407
 30
0.0
 10
51.268907332602481
 20
39.070392340541758
 30
0.0
 10
51.88367619250851
 20
39.371047755361658
 30
0.0
 10
52.182661149606503
 20
39.517267663629212
 30
0.0
  0
SPLINE
  5
1D2
100
AcDbEntity
  8
0
 62
1
420
16711680
370
-1
 48
1.0
  6
BYLAYER
100
AcDbSpline
 70
8
 71
3
 72
9
 73
5
 74
0
 40
0.0
 40
0.0
 40
0.0
 40
0.0
 40
0.1351587976912612
 40
0.2838017317766373
 40
0.2838017317766373
 40
0.2838017317766373
 40
0.2838017317766373
 10
52.182661149606503
 20
39.517267663629212
 30
0.0
 10
52.610803538449474
 20
39.665857617808982
 30
0.0
 10
53.509802001562292
 20
39.977861623772078
 30
0.0
 10
54.461530293591565
 20
40.010131343843121
 30
0.0
 10
54.960003945932186
 20
40.027032811792054
 30
0.0
  0
SPLINE
  5
1D3
100
AcDbEntity
  8
0
 62
1
420
16711680
370
-1
 48
1.0
  6
BYLAYER
100
AcDbSpline
 70
8
 71
3
 72
9
 73
5
 74
0
 40
0.0
 40
0.0
 40
0.0
 40
0.0
 40
0.2600883912748601
 40
0.4994961204343519
 40
0.4994961204343519
 40
0.4994961204343519
 40
0.4994961204343519
 10
54.960003945932186
 20
40.027032811792054
 30
0.0
 10
55.848814148398738
 20
39.966404635512923
 30
0.0
 10
57.555761720177628
 20
39.849969070311424
 30
0.0
 10
58.881641922644654
 20
38.775447541687058
 30
0.0
 10
59.517134282693661
 20
38.260431010873475
 30
0.0
  0
SPLINE
  5
1D4
100
AcDbEntity
  8
0
 62
1
420
16711680
370
-1
 48
1.0
  6
BYLAYER
100
AcDbSpline
 70
8
 71
3
 72
9
 73
5
 74
0
 40
0.0
 40
0.0
 40
0.0
 40
0.0
 40
0.247033009947844
 40
0.5304253167584671
 40
0.5304253167584671
 40
0.5304253167584671
 40
0.5304253167584671
 10
59.517134282693661
 20
38.260431010873475
 30
0.0
 10
60.01510463389836
 20
37.582227952944422
 30
0.0
 10
61.084338584979832
 20
36.126001224765346
 30
0.0
 10
61.177064181998766
 20
34.314945037092947
 30
0.0
 10
61.226605031595028
 20
33.347345311792054
 30
0.0
  0
SPLINE
  5
1D5
100
AcDbEntity
  8
0
 62
1
420
16711680
370
-1
 48
1.0
  6
BYLAYER
100
AcDbSpline
 70
8
 71
3
 72
9
 73
5
 74
0
 40
0.0
 40
0.0
 40
0.0
 40
0.0
 40
0.2812791708816499
 40
0.5269538984410019
 40
0.5269538984410019
 40
0.5269538984410019
 40
0.5269538984410019
 10
61.226605031595028
 20
33.347345311792054
 30
0.0
 10
61.177104357889775
 20
32.387159887904858
 30
0.0
 10
61.084368827908321
 20
30.588329740767954
 30
0.0
 10
60.024462511334079
 20
29.140175374505908
 30
0.0
 10
59.530316445932186
 20
28.465021569879212
 30
0.0
  0
SPLINE
  5
1D6
100
AcDbEntity
  8
0
 62
1
420
16711680
370
-1
 48
1.0
  6
BYLAYER
100
AcDbSpline
 70
8
 71
3
 72
9
 73
5
 74
0
 40
0.0
 40
0.0
 40
0.0
 40
0.0
 40
0.2382190624600686
 40
0.4973142142653556
 40
0.4973142142653556
 40
0.4973142142653556
 40
0.4973142142653556
 10
59.530316445932186
 20
28.465021569879212
 30
0.0
 10
58.89885727701401
 20
27.951292799678317
 30
0.0
 10
57.580601646300835
 20
26.878815152173551
 30
0.0
 10
55.880759779161274
 20
26.763100082440143
 30
0.0
 10
54.995161149606503
 20
26.702813823373475
 30
0.0
  0
SPLINE
  5
1D7
100
AcDbEntity
  8
0
 62
1
420
16711680
370
-1
 48
1.0
  6
BYLAYER
100
AcDbSpline
 70
8
 71
3
 72
9
 73
5
 74
0
 40
0.0
 40
0.0
 40
0.0
 40
0.0
 40
0.2616571502966915
 40
0.5002439702422651
 40
0.5002439702422651
 40
0.5002439702422651
 40
0.5002439702422651
 10
54.995161149606503
 20
26.702813823373475
 30
0.0
 10
54.100742847433523
 20
26.761418422373335
 30
0.0
 10
52.390767171137185
 20
26.873460448532018
 30
0.0
 10
51.059691780423478
 20
27.945115920872968
 30
0.0
 10
50.424847457513607
 20
28.456232268960633
 30
0.0
  0
SPLINE
  5
1D8
100
AcDbEntity
  8
0
 62
1
420
16711680
370
-1
 48
1.0
  6
BYLAYER
100
AcDbSpline
 70
8
 71
3
 72
9
 73
5
 74
0
 40
0.0
 40
0.0
 40
0.0
 40
0.0
 40
0.2441727223361486
 40
0.5219769238265071
 40
0.5219769238265071
 40
0.5219769238265071
 40
0.5219769238265071
 10
50.424847457513607
 20
28.456232268960633
 30
0.0
 10
49.930648208982305
 20
29.125283833251359
 30
0.0
 10
48.874180471563982
 20
30.555539735993051
 30
0.0
 10
48.779140575953939
 20
32.337457674338552
 30
0.0
 10
48.728558871850765
 20
33.285821993501344
 30
0.0
  0
SPLINE
  5
1D9
100
AcDbEntity
  8
0
 62
1
420
16711680
370
-1
 48
1.0
  6
BYLAYER
100
AcDbSpline
 70
8
 71
3
 72
9
 73
5
 74
0
 40
0.0
 40
0.0
 40
0.0
 40
0.0
 40
0.1940231712519769
 40
0.3527161611510248
 40
0.3527161611510248
 40
0.3527161611510248
 40
0.3527161611510248
 10
51.409222934350765
 20
33.373712618501344
 30
0.0
 10
51.431645916395453
 20
32.7123845276531
 30
0.0
 10
51.472408821657325
 20
31.510151289426133
 30
0.0
 10
52.125934165235712
 20
30.507121197957296
 30
0.0
 10
52.419966313943661
 20
30.055840928704896
 30
0.0
  0
SPLINE
  5
1DA
100
AcDbEntity
  8
0
 62
1
420
16711680
370
-1
 48
1.0
  6
BYLAYER
100
AcDbSpline
 70
8
 71
3
 72
9
 73
5
 74
0
 40
0.0
 40
0.0
 40
0.0
 40
0.0
 40
0.1425843863365996
 40
0.2873085474795417
 40
0.2873085474795417
 40
0.2873085474795417
 40
0.2873085474795417
 10
52.419966313943661
 20
30.055840928704896
 30
0.0
 10
52.781490330680128
 20
29.726439650378389
 30
0.0
 10
53.509963782761474
 20
29.062693743512561
 30
0.0
 10
54.491797579009038
 20
28.972087749304862
 30
0.0
 10
54.986370656595028
 20
28.926447351129212
 30
0.0
  0
SPLINE
  5
1DB
100
AcDbEntity
  8
0
 62
1
420
16711680
370
-1
 48
1.0
  6
BYLAYER
100
AcDbSpline
 70
8
 71
3
 72
9
 73
5
 74
0
 40
0.0
 40
0.0
 40
0.0
 40
0.0
 40
0.1443584484109696
 40
0.2857559485735773
 40
0.2857559485735773
 40
0.2857559485735773
 40
0.2857559485735773
 10
54.986370656595028
 20
28.926447351129212
 30
0.0
 10
55.479907872936636
 20
28.971173601926075
 30
0.0
 10
56.45685932236313
 20
29.05970871963676
 30
0.0
 10
57.181185028861918
 20
29.720219481678065
 30
0.0
 10
57.539595220193661
 20
30.047052819879212
 30
0.0
  0
SPLINE
  5
1DC
100
AcDbEntity
  8
0
 62
1
420
16711680
370
-1
 48
1.0
  6
BYLAYER
100
AcDbSpline
 70
8
 71
3
 72
9
 73
5
 74
0
 40
0.0
 40
0.0
 40
0.0
 40
0.0
 40
0.1588040815004848
 40
0.3564893862899687
 40
0.3564893862899687
 40
0.3564893862899687
 40
0.3564893862899687
 10
57.539595220193661
 20
30.047052819879212
 30
0.0
 10
57.829657342993983
 20
30.501008962925216
 30
0.0
 10
58.480799726527323
 20
31.520066819045475
 30
0.0
 10
58.517050559318122
 20
32.735094876585421
 30
0.0
 10
58.537152860269345
 20
33.408868630082765
 30
0.0
  0
SPLINE
  5
1DD
100
AcDbEntity
  8
0
 62
1
420
16711680
370
-1
 48
1.0
  6
BYLAYER
100
AcDbSpline
 70
8
 71
3
 72
9
 73
5
 74
0
 40
0.0
 40
0.0
 40
0.0
 40
0.0
 40
0.1948778623480989
 40
0.350134359137785
 40
0.350134359137785
 40
0.350134359137785
 40
0.350134359137785
 10
58.537152860269345
 20
33.408868630082765
 30
0.0
 10
58.518509076366485
 20
34.073121384960487
 30
0.0
 10
58.485012047765693
 20
35.266575119685768
 30
0.0
 10
57.848293249412428
 20
36.269042922560864
 30
0.0
 10
57.565959546670712
 20
36.713556964547791
 30
0.0
  0
SPLINE
  5
1DE
100
AcDbEntity
  8
0
 62
1
420
16711680
370
-1
 48
1.0
  6
BYLAYER
100
AcDbSpline
 70
8
 71
3
 72
9
 73
5
 74
0
 40
0.0
 40
0.0
 40
0.0
 40
0.0
 40
0.1395034841113332
 40
0.286952519623033
 40
0.286952519623033
 40
0.286952519623033
 40
0.286952519623033
 10
57.565959546670712
 20
36.713556964547791
 30
0.0
 10
57.208617875631127
 20
37.031360086229576
 30
0.0
 10
56.473581804494145
 20
37.685067103596069
 30
0.0
 10
55.491175132472108
 20
37.763234547985959
 30
0.0
 10
54.986370656595028
 20
37.803400476129212
 30
0.0
  0
SPLINE
  5
1DF
100
AcDbEntity
  8
0
 62
1
420
16711680
370
-1
 48
1.0
  6
BYLAYER
100
AcDbSpline
 70
8
 71
3
 72
9
 73
5
 74
0
 40
0.0
 40
0.0
 40
0.0
 40
0.0
 40
0.1478339858771729
 40
0.2887184497791811
 40
0.2887184497791811
 40
0.2887184497791811
 40
0.2887184497791811
 10
54.986370656595028
 20
37.803400476129212
 30
0.0
 10
54.480413027975167
 20
37.762029804101417
 30
0.0
 10
53.49228231281981
 20
37.681233252325356
 30
0.0
 10
52.753901247529562
 20
37.022037425946131
 30
0.0
 10
52.393597219095028
 20
36.700373013169923
 30
0.0
  0
SPLINE
  5
1E0
100
AcDbEntity
  8
0
 62
1
420
16711680
370
-1
 48
1.0
  6
BYLAYER
100
AcDbSpline
 70
8
 71
3
 72
9
 73
5
 74
0
 40
0.0
 40
0.0
 40
0.0
 40
0.0
 40
0.1567878352496751
 40
0.352687873297963
 40
0.352687873297963
 40
0.352687873297963
 40
0.352687873297963
 10
52.393597219095028
 20
36.700373013169923
 30
0.0
 10
52.107396044662053
 20
36.252077884556883
 30
0.0
 10
51.463598116172179
 20
35.243656183545497
 30
0.0
 10
51.428640241891436
 20
34.041467062162589
 30
0.0
 10
51.409222934350765
 20
33.373712618501344
 30
0.0
  0
SPLINE
  5
1E1
100
AcDbEntity
  8
0
 62
1
420
16711680
370
-1
 48
1.0
  6
BYLAYER
100
AcDbSpline
 70
8
 71
3
 72
9
 73
5
 74
0
 40
0.0
 40
0.0
 40
0.0
 40
0.0
 40
0.1246958668494444
 40
0.2761043102425104
 40
0.2761043102425104
 40
0.2761043102425104
 40
0.2761043102425104
 10
123.85746345292071
 20
28.697931487710633
 30
0.0
 10
123.53330210170094
 20
28.434272521683148
 30
0.0
 10
122.81553696202808
 20
27.850473083950654
 30
0.0
 10
121.95868720318049
 20
27.498098129665401
 30
0.0
 10
121.48881301651934
 20
27.304864843042054
 30
0.0
  0
SPLINE
  5
1E2
100
AcDbEntity
  8
0
 62
1
420
16711680
370
-1
 48
1.0
  6
BYLAYER
100
AcDbSpline
 70
8
 71
3
 72
9
 73
5
 74
0
 40
0.0
 40
0.0
 40
0.0
 40
0.0
 40
0.1625143994968555
 40
0.3213227106946809
 40
0.3213227106946809
 40
0.3213227106946809
 40
0.3213227106946809
 10
121.48881301651934
 20
27.304864843042054
 30
0.0
 10
120.97320515375286
 20
27.129273230902285
 30
0.0
 10
119.95374769870543
 20
26.782094316524969
 30
0.0
 10
118.87826318868301
 20
26.729036668085101
 30
0.0
 10
118.34672317276934
 20
26.702813823373475
 30
0.0
  0
SPLINE
  5
1E3
100
AcDbEntity
  8
0
 62
1
420
16711680
370
-1
 48
1.0
  6
BYLAYER
100
AcDbSpline
 70
8
 71
3
 72
9
 73
5
 74
0
 40
0.0
 40
0.0
 40
0.0
 40
0.0
 40
0.1903687252028195
 40
0.3655811005371411
 40
0.3655811005371411
 40
0.3655811005371411
 40
0.3655811005371411
 10
118.34672317276934
 20
26.702813823373475
 30
0.0
 10
117.70586441910291
 20
26.731912686276136
 30
0.0
 10
116.4751693655713
 20
26.78779368412912
 30
0.0
 10
115.35781885616494
 20
27.30369948813216
 30
0.0
 10
114.82230529557208
 20
27.550958116204896
 30
0.0
  0
SPLINE
  5
1E4
100
AcDbEntity
  8
0
 62
1
420
16711680
370
-1
 48
1.0
  6
BYLAYER
100
AcDbSpline
 70
8
 71
3
 72
9
 73
5
 74
0
 40
0.0
 40
0.0
 40
0.0
 40
0.0
 40
0.1671596424416174
 40
0.3355435335505742
 40
0.3355435335505742
 40
0.3355435335505742
 40
0.3355435335505742
 10
114.82230529557208
 20
27.550958116204896
 30
0.0
 10
114.35200389488364
 20
27.865021747084885
 30
0.0
 10
113.4079566863841
 20
28.495449157229658
 30
0.0
 10
112.84568148619967
 20
29.481776565921585
 30
0.0
 10
112.56351814042071
 20
29.976739604623475
 30
0.0
  0
SPLINE
  5
1E5
100
AcDbEntity
  8
0
 62
1
420
16711680
370
-1
 48
1.0
  6
BYLAYER
100
AcDbSpline
 70
8
 71
3
 72
9
 73
5
 74
0
 40
0.0
 40
0.0
 40
0.0
 40
0.0
 40
0.1741690688749192
 40
0.3536941263280999
 40
0.3536941263280999
 40
0.3536941263280999
 40
0.3536941263280999
 10
112.56351814042071
 20
29.976739604623475
 30
0.0
 10
112.34307425270362
 20
30.518700502496785
 30
0.0
 10
111.8954074610389
 20
31.619288497343074
 30
0.0
 10
111.83720276423111
 20
32.806350030003763
 30
0.0
 10
111.80765971909503
 20
33.408868630082765
 30
0.0
  0
SPLINE
  5
1E6
100
AcDbEntity
  8
0
 62
1
420
16711680
370
-1
 48
1.0
  6
BYLAYER
100
AcDbSpline
 70
8
 71
3
 72
9
 73
5
 74
0
 40
0.0
 40
0.0
 40
0.0
 40
0.0
 40
0.1912304842140621
 40
0.3704271621934275
 40
0.3704271621934275
 40
0.3704271621934275
 40
0.3704271621934275
 10
111.80765971909503
 20
33.408868630082765
 30
0.0
 10
111.83801806924144
 20
34.052010499931043
 30
0.0
 10
111.89682437065213
 20
35.297822425340335
 30
0.0
 10
112.40538774720017
 20
36.435606234356065
 30
0.0
 10
112.65140876542071
 20
36.986016948373475
 30
0.0
  0
SPLINE
  5
1E7
100
AcDbEntity
  8
0
 62
1
420
16711680
370
-1
 48
1.0
  6
BYLAYER
100
AcDbSpline
 70
8
 71
3
 72
9
 73
5
 74
0
 40
0.0
 40
0.0
 40
0.0
 40
0.0
 40
0.1729248725248052
 40
0.3484551070252424
 40
0.3484551070252424
 40
0.3484551070252424
 40
0.3484551070252424
 10
112.65140876542071
 20
36.986016948373475
 30
0.0
 10
112.96725003064489
 20
37.478127692972556
 30
0.0
 10
113.60369116412551
 20
38.46976353849238
 30
0.0
 10
114.61280812951856
 20
39.0786913672625
 30
0.0
 10
115.12113914261798
 20
39.385431726129212
 30
0.0
  0
SPLINE
  5
1E8
100
AcDbEntity
  8
0
 62
1
420
16711680
370
-1
 48
1.0
  6
BYLAYER
100
AcDbSpline
 70
8
 71
3
 72
9
 73
5
 74
0
 40
0.0
 40
0.0
 40
0.0
 40
0.0
 40
0.1471756054593953
 40
0.317342063330189
 40
0.317342063330189
 40
0.317342063330189
 40
0.317342063330189
 10
115.12113914261798
 20
39.385431726129212
 30
0.0
 10
115.57901568830897
 20
39.572303701016203
 30
0.0
 10
116.5662953893608
 20
39.975239621708468
 30
0.0
 10
117.63371711748896
 20
40.008954227900553
 30
0.0
 10
118.20609435807208
 20
40.027032811792054
 30
0.0
  0
SPLINE
  5
1E9
100
AcDbEntity
  8
0
 62
1
420
16711680
370
-1
 48
1.0
  6
BYLAYER
100
AcDbSpline
 70
8
 71
3
 72
9
 73
5
 74
0
 40
0.0
 40
0.0
 40
0.0
 40
0.0
 40
0.2151600468652772
 40
0.393127460879219
 40
0.393127460879219
 40
0.393127460879219
 40
0.393127460879219
 10
118.20609435807208
 20
40.027032811792054
 30
0.0
 10
118.93555253760324
 20
40.00345673557716
 30
0.0
 10
120.2683745280921
 20
39.960379951039819
 30
0.0
 10
121.42915432102738
 20
39.313517995155706
 30
0.0
 10
121.95463523636798
 20
39.020685870797791
 30
0.0
  0
SPLINE
  5
1EA
100
AcDbEntity
  8
0
 62
1
420
16711680
370
-1
 48
1.0
  6
BYLAYER
100
AcDbSpline
 70
8
 71
3
 72
9
 73
5
 74
0
 40
0.0
 40
0.0
 40
0.0
 40
0.0
 40
0.1632624891855343
 40
0.3335516247708397
 40
0.3335516247708397
 40
0.3335516247708397
 40
0.3335516247708397
 10
121.95463523636798
 20
39.020685870797791
 30
0.0
 10
122.3655053033127
 20
38.647188905627978
 30
0.0
 10
123.20492885420181
 20
37.884120057413888
 30
0.0
 10
123.52636916887823
 20
36.794986124334606
 30
0.0
 10
123.69047508011798
 20
36.238947231919923
 30
0.0
  0
SPLINE
  5
1EB
100
AcDbEntity
  8
0
 62
1
420
16711680
370
-1
 48
1.0
  6
BYLAYER
100
AcDbSpline
 70
8
 71
3
 72
9
 73
5
 74
0
 40
0.0
 40
0.0
 40
0.0
 40
0.0
 40
0.0935436555767055
 40
0.1841329676566931
 40
0.1841329676566931
 40
0.1841329676566931
 40
0.1841329676566931
 10
121.10648498307208
 20
35.755548794419923
 30
0.0
 10
120.99777235492991
 20
36.05376700378914
 30
0.0
 10
120.78378051637957
 20
36.640784942759801
 30
0.0
 10
120.31378856907253
 20
37.0518494856356
 30
0.0
 10
120.08256301651934
 20
37.254084069879212
 30
0.0
  0
SPLINE
  5
1EC
100
AcDbEntity
  8
0
 62
1
420
16711680
370
-1
 48
1.0
  6
BYLAYER
100
AcDbSpline
 70
8
 71
3
 72
9
 73
5
 74
0
 40
0.0
 40
0.0
 40
0.0
 40
0.0
 40
0.0939949985070604
 40
0.1980668594547818
 40
0.1980668594547818
 40
0.1980668594547818
 40
0.1980668594547818
 10
120.08256301651934
 20
37.254084069879212
 30
0.0
 10
119.8078178364139
 20
37.414188604957033
 30
0.0
 10
119.22887304319984
 20
37.751561900887779
 30
0.0
 10
118.55839108110418
 20
37.785544648226491
 30
0.0
 10
118.20609435807208
 20
37.803400476129212
 30
0.0
  0
SPLINE
  5
1ED
100
AcDbEntity
  8
0
 62
1
420
16711680
370
-1
 48
1.0
  6
BYLAYER
100
AcDbSpline
 70
8
 71
3
 72
9
 73
5
 74
0
 40
0.0
 40
0.0
 40
0.0
 40
0.0
 40
0.1554070656842169
 40
0.2986626053470661
 40
0.2986626053470661
 40
0.2986626053470661
 40
0.2986626053470661
 10
118.20609435807208
 20
37.803400476129212
 30
0.0
 10
117.67435460527857
 20
37.766153434972928
 30
0.0
 10
116.65245267799669
 20
37.694571758141009
 30
0.0
 10
115.86998852478268
 20
37.037509453867223
 30
0.0
 10
115.49467429886798
 20
36.722345073373475
 30
0.0
  0
SPLINE
  5
1EE
100
AcDbEntity
  8
0
 62
1
420
16711680
370
-1
 48
1.0
  6
BYLAYER
100
AcDbSpline
 70
8
 71
3
 72
9
 73
5
 74
0
 40
0.0
 40
0.0
 40
0.0
 40
0.0
 40
0.1540148268294735
 40
0.3422514629623483
 40
0.3422514629623483
 40
0.3422514629623483
 40
0.3422514629623483
 10
115.49467429886798
 20
36.722345073373475
 30
0.0
 10
115.20191567045813
 20
36.288620671895409
 30
0.0
 10
114.55134798856179
 20
35.324799110139573
 30
0.0
 10
114.51069015836531
 20
34.1567555336566
 30
0.0
 10
114.48832854996661
 20
33.514337260873475
 30
0.0
  0
SPLINE
  5
1EF
100
AcDbEntity
  8
0
 62
1
420
16711680
370
-1
 48
1.0
  6
BYLAYER
100
AcDbSpline
 70
8
 71
3
 72
9
 73
5
 74
0
 40
0.0
 40
0.0
 40
0.0
 40
0.0
 40
0.2023319750090067
 40
0.3648196782202611
 40
0.3648196782202611
 40
0.3648196782202611
 40
0.3648196782202611
 10
114.48832854996661
 20
33.514337260873475
 30
0.0
 10
114.5088363106143
 20
32.824756961645235
 30
0.0
 10
114.54581333631759
 20
31.581392125907925
 30
0.0
 10
115.21140499337659
 20
30.538095376461989
 30
0.0
 10
115.50785407792071
 20
30.073419530542054
 30
0.0
  0
SPLINE
  5
1F0
100
AcDbEntity
  8
0
 62
1
420
16711680
370
-1
 48
1.0
  6
BYLAYER
100
AcDbSpline
 70
8
 71
3
 72
9
 73
5
 74
0
 40
0.0
 40
0.0
 40
0.0
 40
0.0
 40
0.1458446751036283
 40
0.2979853152765647
 40
0.2979853152765647
 40
0.2979853152765647
 40
0.2979853152765647
 10
115.50785407792071
 20
30.073419530542054
 30
0.0
 10
115.87966823078368
 20
29.738927469854637
 30
0.0
 10
116.63934737221572
 20
29.055503669221359
 30
0.0
 10
117.65909046356452
 20
28.970067832497133
 30
0.0
 10
118.17973479996661
 20
28.926447351129212
 30
0.0
  0
SPLINE
  5
1F1
100
AcDbEntity
  8
0
 62
1
420
16711680
370
-1
 48
1.0
  6
BYLAYER
100
AcDbSpline
 70
8
 71
3
 72
9
 73
5
 74
0
 40
0.0
 40
0.0
 40
0.0
 40
0.0
 40
0.0822401353288948
 40
0.1677618108163416
 40
0.1677618108163416
 40
0.1677618108163416
 40
0.1677618108163416
 10
118.17973479996661
 20
28.926447351129212
 30
0.0
 10
118.45495557244968
 20
28.940829937702361
 30
0.0
 10
119.01637895753268
 20
28.970169003817521
 30
0.0
 10
119.54792129830062
 20
29.15369165279764
 30
0.0
 10
119.81889114151934
 20
29.247247893960633
 30
0.0
  0
SPLINE
  5
1F2
100
AcDbEntity
  8
0
 62
1
420
16711680
370
-1
 48
1.0
  6
BYLAYER
100
AcDbSpline
 70
8
 71
3
 72
9
 73
5
 74
0
 40
0.0
 40
0.0
 40
0.0
 40
0.0
 40
0.084198156535026
 40
0.1615053843778171
 40
0.1615053843778171
 40
0.1615053843778171
 40
0.1615053843778171
 10
119.81889114151934
 20
29.247247893960633
 30
0.0
 10
120.07851446174143
 20
29.356339733782146
 30
0.0
 10
120.57651306232208
 20
29.565595140882742
 30
0.0
 10
121.01814373992354
 20
29.876337963569036
 30
0.0
 10
121.22953758011798
 20
30.025080163629212
 30
0.0
  0
ENDSEC
  0
SECTION
  2
OBJECTS
  0
DICTIONARY
  5
C
100
AcDbDictionary
280
0
281
1
  3
ACAD_GROUP
350
D
  3
ACAD_LAYOUT
350
1A
  3
ACAD_MLINESTYLE
350
17
  3
ACAD_PLOTSETTINGS
350
19
  3
ACAD_PLOTSTYLENAME
350
E
  3
AcDbVariableDictionary
350
1F3
  3
QCAD_OBJECTS
350
1F4
  0
DICTIONARY
  5
D
100
AcDbDictionary
280
0
281
1
  0
ACDBDICTIONARYWDFLT
  5
E
100
AcDbDictionary
281
1
  3
Normal
350
F
100
AcDbDictionaryWithDefault
340
F
  0
ACDBPLACEHOLDER
  5
F
  0
DICTIONARY
  5
17
100
AcDbDictionary
280
0
281
1
  3
Standard
350
18
  0
MLINESTYLE
  5
18
100
AcDbMlineStyle
  2
STANDARD
 70
0
  3

 62
256
 51
90.0
 52
90.0
 71
2
 49
0.5
 62
256
  6
BYLAYER
 49
-0.5
 62
256
  6
BYLAYER
  0
DICTIONARY
  5
19
100
AcDbDictionary
280
0
281
1
  0
DICTIONARY
  5
1A
100
AcDbDictionary
281
1
  3
Layout1
350
1E
  3
Layout2
350
26
  3
Model
350
22
  0
LAYOUT
  5
1E
100
AcDbPlotSettings
  1

  2
none_device
  4

  6

 40
0.0
 41
0.0
 42
0.0
 43
0.0
 44
0.0
 45
0.0
 46
0.0
 47
0.0
 48
0.0
 49
0.0
140
0.0
141
0.0
142
1.0
143
1.0
 70
688
 72
0
 73
0
 74
5
  7

 75
16
147
1.0
148
0.0
149
0.0
100
AcDbLayout
  1
Layout1
 70
1
 71
1
 10
0.0
 20
0.0
 11
420.0
 21
297.0
 12
0.0
 22
0.0
 32
0.0
 14
100000000000000000000.0
 24
100000000000000000000.0
 34
100000000000000000000.0
 15
-100000000000000000000.0
 25
-100000000000000000000.0
 35
-100000000000000000000.0
146
0.0
 13
0.0
 23
0.0
 33
0.0
 16
1.0
 26
0.0
 36
0.0
 17
0.0
 27
1.0
 37
0.0
 76
0
330
1B
  0
LAYOUT
  5
22
100
AcDbPlotSettings
  1

  2
none_device
  4

  6

 40
0.0
 41
0.0
 42
0.0
 43
0.0
 44
0.0
 45
0.0
 46
0.0
 47
0.0
 48
0.0
 49
0.0
140
0.0
141
0.0
142
1.0
143
1.0
 70
1712
 72
0
 73
0
 74
0
  7

 75
0
147
1.0
148
0.0
149
0.0
100
AcDbLayout
  1
Model
 70
1
 71
0
 10
0.0
 20
0.0
 11
12.0
 21
9.0
 12
0.0
 22
0.0
 32
0.0
 14
0.0
 24
0.0
 34
0.0
 15
0.0
 25
0.0
 35
0.0
146
0.0
 13
0.0
 23
0.0
 33
0.0
 16
1.0
 26
0.0
 36
0.0
 17
0.0
 27
1.0
 37
0.0
 76
0
330
1F
  0
LAYOUT
  5
26
100
AcDbPlotSettings
  1

  2
none_device
  4

  6

 40
0.0
 41
0.0
 42
0.0
 43
0.0
 44
0.0
 45
0.0
 46
0.0
 47
0.0
 48
0.0
 49
0.0
140
0.0
141
0.0
142
1.0
143
1.0
 70
688
 72
0
 73
0
 74
5
  7

 75
16
147
1.0
148
0.0
149
0.0
100
AcDbLayout
  1
Layout2
 70
1
 71
2
 10
0.0
 20
0.0
 11
12.0
 21
9.0
 12
0.0
 22
0.0
 32
0.0
 14
0.0
 24
0.0
 34
0.0
 15
0.0
 25
0.0
 35
0.0
146
0.0
 13
0.0
 23
0.0
 33
0.0
 16
1.0
 26
0.0
 36
0.0
 17
0.0
 27
1.0
 37
0.0
 76
0
330
23
  0
DICTIONARY
  5
1F3
100
AcDbDictionary
281
1
  3
DIMASSOC
350
1F6
  3
HIDETEXT
350
1F5
  0
DICTIONARYVAR
  5
1F5
100
DictionaryVariables
280
0
  1
2
  0
DICTIONARYVAR
  5
1F6
100
DictionaryVariables
280
0
  1
1
  0
DICTIONARY
  5
1F4
100
AcDbDictionary
281
1
  3
ColorSettings/BackgroundColor
350
1F7
  3
ColorSettings/ColorMode
350
1F8
  3
Grid/DisplayGrid00
350
1F9
  3
Grid/DisplayGrid01
350
1FA
  3
Grid/DisplayGrid02
350
1FB
  3
Grid/DisplayGrid03
350
1FC
  3
Grid/GridSpacingX00
350
1FD
  3
Grid/GridSpacingX01
350
1FE
  3
Grid/GridSpacingX02
350
1FF
  3
Grid/GridSpacingX03
350
200
  3
Grid/GridSpacingY00
350
201
  3
Grid/GridSpacingY01
350
202
  3
Grid/GridSpacingY02
350
203
  3
Grid/GridSpacingY03
350
204
  3
Grid/IsometricGrid00
350
205
  3
Grid/IsometricGrid01
350
206
  3
Grid/IsometricGrid02
350
207
  3
Grid/IsometricGrid03
350
208
  3
Grid/IsometricProjection00
350
209
  3
Grid/IsometricProjection01
350
20A
  3
Grid/IsometricProjection02
350
20B
  3
Grid/IsometricProjection03
350
20C
  3
Grid/MetaGridSpacingX00
350
20D
  3
Grid/MetaGridSpacingX01
350
20E
  3
Grid/MetaGridSpacingX02
350
20F
  3
Grid/MetaGridSpacingX03
350
210
  3
Grid/MetaGridSpacingY00
350
211
  3
Grid/MetaGridSpacingY01
350
212
  3
Grid/MetaGridSpacingY02
350
213
  3
Grid/MetaGridSpacingY03
350
214
  3
MultiPageSettings/Columns
350
215
  3
MultiPageSettings/GlueMarginsBottom
350
216
  3
MultiPageSettings/GlueMarginsLeft
350
217
  3
MultiPageSettings/GlueMarginsRight
350
218
  3
MultiPageSettings/GlueMarginsTop
350
219
  3
MultiPageSettings/PrintCropMarks
350
21A
  3
MultiPageSettings/Rows
350
21B
  3
PageSettings/OffsetX
350
21C
  3
PageSettings/OffsetY
350
21D
  3
PageSettings/PageOrientation
350
21E
  3
PageSettings/PaperHeight
350
21F
  3
PageSettings/PaperWidth
350
220
  3
PageSettings/Scale
350
221
  3
PageSettings/ShowPaperBorders
350
222
  3
QCADVersion
350
223
  3
UnitSettings/PaperUnit
350
224
  3
ViewportCenter
350
225
  3
ViewportHeight
350
226
  3
ViewportWidth
350
227
  0
XRECORD
  5
1F7
330
1F4
100
AcDbXrecord
280
1
1000
White
  0
XRECORD
  5
1F8
330
1F4
100
AcDbXrecord
280
1
1000
FullColor
  0
XRECORD
  5
1F9
330
1F4
100
AcDbXrecord
280
1
290
1
  0
XRECORD
  5
1FA
330
1F4
100
AcDbXrecord
280
1
290
1
  0
XRECORD
  5
1FB
330
1F4
100
AcDbXrecord
280
1
290
1
  0
XRECORD
  5
1FC
330
1F4
100
AcDbXrecord
280
1
290
1
  0
XRECORD
  5
1FD
330
1F4
100
AcDbXrecord
280
1
1000
auto
  0
XRECORD
  5
1FE
330
1F4
100
AcDbXrecord
280
1
1000
auto
  0
XRECORD
  5
1FF
330
1F4
100
AcDbXrecord
280
1
1000
auto
  0
XRECORD
  5
200
330
1F4
100
AcDbXrecord
280
1
1000
auto
  0
XRECORD
  5
201
330
1F4
100
AcDbXrecord
280
1
1000
auto
  0
XRECORD
  5
202
330
1F4
100
AcDbXrecord
280
1
1000
auto
  0
XRECORD
  5
203
330
1F4
100
AcDbXrecord
280
1
1000
auto
  0
XRECORD
  5
204
330
1F4
100
AcDbXrecord
280
1
1000
auto
  0
XRECORD
  5
205
330
1F4
100
AcDbXrecord
280
1
290
0
  0
XRECORD
  5
206
330
1F4
100
AcDbXrecord
280
1
290
0
  0
XRECORD
  5
207
330
1F4
100
AcDbXrecord
280
1
290
0
  0
XRECORD
  5
208
330
1F4
100
AcDbXrecord
280
1
290
0
  0
XRECORD
  5
209
330
1F4
100
AcDbXrecord
280
1
 90
65537
  0
XRECORD
  5
20A
330
1F4
100
AcDbXrecord
280
1
 90
65537
  0
XRECORD
  5
20B
330
1F4
100
AcDbXrecord
280
1
 90
65537
  0
XRECORD
  5
20C
330
1F4
100
AcDbXrecord
280
1
 90
65537
  0
XRECORD
  5
20D
330
1F4
100
AcDbXrecord
280
1
1000
auto
  0
XRECORD
  5
20E
330
1F4
100
AcDbXrecord
280
1
1000
auto
  0
XRECORD
  5
20F
330
1F4
100
AcDbXrecord
280
1
1000
auto
  0
XRECORD
  5
210
330
1F4
100
AcDbXrecord
280
1
1000
auto
  0
XRECORD
  5
211
330
1F4
100
AcDbXrecord
280
1
1000
auto
  0
XRECORD
  5
212
330
1F4
100
AcDbXrecord
280
1
1000
auto
  0
XRECORD
  5
213
330
1F4
100
AcDbXrecord
280
1
1000
auto
  0
XRECORD
  5
214
330
1F4
100
AcDbXrecord
280
1
1000
auto
  0
XRECORD
  5
215
330
1F4
100
AcDbXrecord
280
1
 90
1
  0
XRECORD
  5
216
330
1F4
100
AcDbXrecord
280
1
 40
10.0
  0
XRECORD
  5
217
330
1F4
100
AcDbXrecord
280
1
 40
10.0
  0
XRECORD
  5
218
330
1F4
100
AcDbXrecord
280
1
 40
10.0
  0
XRECORD
  5
219
330
1F4
100
AcDbXrecord
280
1
 40
10.0
  0
XRECORD
  5
21A
330
1F4
100
AcDbXrecord
280
1
290
0
  0
XRECORD
  5
21B
330
1F4
100
AcDbXrecord
280
1
 90
1
  0
XRECORD
  5
21C
330
1F4
100
AcDbXrecord
280
1
 40
0.0
  0
XRECORD
  5
21D
330
1F4
100
AcDbXrecord
280
1
 40
0.0
  0
XRECORD
  5
21E
330
1F4
100
AcDbXrecord
280
1
1000
Portrait
  0
XRECORD
  5
21F
330
1F4
100
AcDbXrecord
280
1
 40
297.0
  0
XRECORD
  5
220
330
1F4
100
AcDbXrecord
280
1
 40
210.0
  0
XRECORD
  5
221
330
1F4
100
AcDbXrecord
280
1
1000
1:1
  0
XRECORD
  5
222
330
1F4
100
AcDbXrecord
280
1
290
1
  0
XRECORD
  5
223
330
1F4
100
AcDbXrecord
280
1
1000
3.17.3
  0
XRECORD
  5
224
330
1F4
100
AcDbXrecord
280
1
 90
4
  0
XRECORD
  5
226
330
1F4
100
AcDbXrecord
280
1
 40
225.03216833095576
  0
XRECORD
  5
227
330
1F4
100
AcDbXrecord
280
1
 40
451.26291012838794
  0
ENDSEC
  0
EOF
