  0
SECTION
  2
HEADER
  9
$ACADVER
  1
AC1009
  9
$DWGCODEPAGE
  3
ansi_1254
  9
$INSBASE
 10
0.0
 20
0.0
 30
0.0
  9
$EXTMIN
 10
-200.5479
 20
-364.2732
 30
0.0
  9
$EXTMAX
 10
318.1668
 20
174.8051
 30
0.0
  9
$LIMMIN
 10
0.0
 20
0.0
  9
$LIMMAX
 10
12.0
 20
9.0
  9
$ORTHOMODE
 70
     0
  9
$REGENMODE
 70
     1
  9
$FILLMODE
 70
     1
  9
$QTEXTMODE
 70
     0
  9
$MIRRTEXT
 70
     1
  9
$DRAGMODE
 70
     2
  9
$LTSCALE
 40
1.0
  9
$OSMODE
 70
    37
  9
$ATTMODE
 70
     1
  9
$TEXTSIZE
 40
0.2
  9
$TRACEWID
 40
0.05
  9
$TEXTSTYLE
  7
STANDARD
  9
$CLAYER
  8
0
  9
$CELTYPE
  6
BYLAYER
  9
$CECOLOR
 62
   256
  9
$DIMSCALE
 40
1.0
  9
$DIMASZ
 40
0.18
  9
$DIMEXO
 40
0.0625
  9
$DIMDLI
 40
0.38
  9
$DIMRND
 40
0.0
  9
$DIMDLE
 40
0.0
  9
$DIMEXE
 40
0.18
  9
$DIMTP
 40
0.0
  9
$DIMTM
 40
0.0
  9
$DIMTXT
 40
0.18
  9
$DIMCEN
 40
0.09
  9
$DIMTSZ
 40
0.0
  9
$DIMTOL
 70
     0
  9
$DIMLIM
 70
     0
  9
$DIMTIH
 70
     1
  9
$DIMTOH
 70
     1
  9
$DIMSE1
 70
     0
  9
$DIMSE2
 70
     0
  9
$DIMTAD
 70
     0
  9
$DIMZIN
 70
     0
  9
$DIMBLK
  1

  9
$DIMASO
 70
     1
  9
$DIMSHO
 70
     1
  9
$DIMPOST
  1

  9
$DIMAPOST
  1

  9
$DIMALT
 70
     0
  9
$DIMALTD
 70
     2
  9
$DIMALTF
 40
25.4
  9
$DIMLFAC
 40
1.0
  9
$DIMTOFL
 70
     0
  9
$DIMTVP
 40
0.0
  9
$DIMTIX
 70
     0
  9
$DIMSOXD
 70
     0
  9
$DIMSAH
 70
     0
  9
$DIMBLK1
  1

  9
$DIMBLK2
  1

  9
$DIMSTYLE
  2
STANDARD
  9
$DIMCLRD
 70
     0
  9
$DIMCLRE
 70
     0
  9
$DIMCLRT
 70
     0
  9
$DIMTFAC
 40
1.0
  9
$DIMGAP
 40
0.09
  9
$LUNITS
 70
     2
  9
$LUPREC
 70
     4
  9
$SKETCHINC
 40
0.1
  9
$FILLETRAD
 40
0.5
  9
$AUNITS
 70
     0
  9
$AUPREC
 70
     0
  9
$MENU
  1
.
  9
$ELEVATION
 40
0.0
  9
$PELEVATION
 40
0.0
  9
$THICKNESS
 40
0.0
  9
$LIMCHECK
 70
     0
  9
$CHAMFERA
 40
0.0
  9
$CHAMFERB
 40
0.0
  9
$SKPOLY
 70
     0
  9
$TDCREATE
 40
2458262.020476794
  9
$TDUPDATE
 40
2458262.020477697
  9
$TDINDWG
 40
0.0000000116
  9
$TDUSRTIMER
 40
0.0000000116
  9
$USRTIMER
 70
     1
  9
$ANGBASE
 50
0.0
  9
$ANGDIR
 70
     0
  9
$PDMODE
 70
     0
  9
$PDSIZE
 40
0.0
  9
$PLINEWID
 40
0.0
  9
$COORDS
 70
     1
  9
$SPLFRAME
 70
     0
  9
$SPLINETYPE
 70
     6
  9
$SPLINESEGS
 70
     8
  9
$ATTDIA
 70
     0
  9
$ATTREQ
 70
     1
  9
$HANDLING
 70
     1
  9
$HANDSEED
  5
629
  9
$SURFTAB1
 70
     6
  9
$SURFTAB2
 70
     6
  9
$SURFTYPE
 70
     6
  9
$SURFU
 70
     6
  9
$SURFV
 70
     6
  9
$UCSNAME
  2

  9
$UCSORG
 10
0.0
 20
0.0
 30
0.0
  9
$UCSXDIR
 10
1.0
 20
0.0
 30
0.0
  9
$UCSYDIR
 10
0.0
 20
1.0
 30
0.0
  9
$PUCSNAME
  2

  9
$PUCSORG
 10
0.0
 20
0.0
 30
0.0
  9
$PUCSXDIR
 10
1.0
 20
0.0
 30
0.0
  9
$PUCSYDIR
 10
0.0
 20
1.0
 30
0.0
  9
$USERI1
 70
     0
  9
$USERI2
 70
     0
  9
$USERI3
 70
     0
  9
$USERI4
 70
     0
  9
$USERI5
 70
     0
  9
$USERR1
 40
0.0
  9
$USERR2
 40
0.0
  9
$USERR3
 40
0.0
  9
$USERR4
 40
0.0
  9
$USERR5
 40
0.0
  9
$WORLDVIEW
 70
     1
  9
$SHADEDGE
 70
     3
  9
$SHADEDIF
 70
    70
  9
$TILEMODE
 70
     1
  9
$MAXACTVP
 70
    64
  9
$PLIMCHECK
 70
     0
  9
$PEXTMIN
 10
1.000000000000000E+20
 20
1.000000000000000E+20
 30
1.000000000000000E+20
  9
$PEXTMAX
 10
-1.000000000000000E+20
 20
-1.000000000000000E+20
 30
-1.000000000000000E+20
  9
$PLIMMIN
 10
0.0
 20
0.0
  9
$PLIMMAX
 10
12.0
 20
9.0
  9
$UNITMODE
 70
     0
  9
$VISRETAIN
 70
     1
  9
$PLINEGEN
 70
     0
  9
$PSLTSCALE
 70
     1
  0
ENDSEC
  0
SECTION
  2
TABLES
  0
TABLE
  2
VPORT
 70
     1
  0
VPORT
  2
*ACTIVE
 70
     0
 10
0.0
 20
0.0
 11
1.0
 21
1.0
 12
10.42990654205607
 22
4.5
 13
0.0
 23
0.0
 14
0.5
 24
0.5
 15
0.5
 25
0.5
 16
0.0
 26
0.0
 36
1.0
 17
0.0
 27
0.0
 37
0.0
 40
9.0
 41
1.972972972850329
 42
50.0
 43
0.0
 44
0.0
 50
0.0
 51
0.0
 71
     0
 72
   100
 73
     1
 74
     3
 75
     0
 76
     0
 77
     0
 78
     0
  0
ENDTAB
  0
TABLE
  2
LTYPE
 70
     1
  0
LTYPE
  2
CONTINUOUS
 70
     0
  3
Solid line
 72
    65
 73
     0
 40
0.0
  0
ENDTAB
  0
TABLE
  2
LAYER
 70
     2
  0
LAYER
  2
0
 70
     0
 62
     7
  6
CONTINUOUS
  0
LAYER
  2
EBENE_1
 70
     0
 62
     7
  6
CONTINUOUS
  0
ENDTAB
  0
TABLE
  2
STYLE
 70
     1
  0
STYLE
  2
STANDARD
 70
     0
 40
0.0
 41
1.0
 50
0.0
 71
     0
 42
0.2
  3
txt
  4

  0
ENDTAB
  0
TABLE
  2
VIEW
 70
     0
  0
ENDTAB
  0
TABLE
  2
UCS
 70
     0
  0
ENDTAB
  0
TABLE
  2
APPID
 70
     2
  0
APPID
  2
ACAD
 70
     0
  0
APPID
  2
ODA
 70
     0
  0
ENDTAB
  0
TABLE
  2
DIMSTYLE
 70
     1
  0
DIMSTYLE
  2
STANDARD
 70
     0
  3

  4

  5

  6

  7

 40
1.0
 41
0.18
 42
0.0625
 43
0.38
 44
0.18
 45
0.0
 46
0.0
 47
0.0
 48
0.0
140
0.18
141
0.09
142
0.0
143
25.4
144
1.0
145
0.0
146
1.0
147
0.09
 71
     0
 72
     0
 73
     1
 74
     1
 75
     0
 76
     0
 77
     0
 78
     0
170
     0
171
     2
172
     0
173
     0
174
     0
175
     0
176
     0
177
     0
178
     0
  0
ENDTAB
  0
ENDSEC
  0
SECTION
  2
BLOCKS
  0
BLOCK
  8
0
  2
$MODEL_SPACE
 70
     0
 10
0.0
 20
0.0
 30
0.0
  3
$MODEL_SPACE
  1

  0
ENDBLK
  5
21
  8
0
  0
BLOCK
 67
     1
  8
0
  2
$PAPER_SPACE
 70
     0
 10
0.0
 20
0.0
 30
0.0
  3
$PAPER_SPACE
  1

  0
ENDBLK
  5
1D
 67
     1
  8
0
  0
ENDSEC
  0
SECTION
  2
ENTITIES
  0
POLYLINE
  5
70
  8
EBENE_1
 66
     1
 10
0.0
 20
0.0
 30
0.0
 70
     1
  0
VERTEX
  5
D7
  8
EBENE_1
 10
48.3947
 20
-18.7416
 30
0.0
  0
VERTEX
  5
D8
  8
EBENE_1
 10
48.3947
 20
173.2365
 30
0.0
  0
VERTEX
  5
D9
  8
EBENE_1
 10
107.1175
 20
173.2365
 30
0.0
  0
VERTEX
  5
DA
  8
EBENE_1
 10
107.1175
 20
-18.7416
 30
0.0
  0
VERTEX
  5
DB
  8
EBENE_1
 10
48.3947
 20
-18.7416
 30
0.0
  0
SEQEND
  5
5C9
  8
EBENE_1
  0
POLYLINE
  5
71
  8
EBENE_1
 66
     1
 10
0.0
 20
0.0
 30
0.0
 70
     1
  0
VERTEX
  5
DC
  8
EBENE_1
 10
309.2348
 20
114.3193
 30
0.0
  0
VERTEX
  5
DD
  8
EBENE_1
 10
117.2566
 20
114.3193
 30
0.0
  0
VERTEX
  5
DE
  8
EBENE_1
 10
117.2566
 20
173.042
 30
0.0
  0
VERTEX
  5
DF
  8
EBENE_1
 10
309.2348
 20
173.042
 30
0.0
  0
VERTEX
  5
E0
  8
EBENE_1
 10
309.2348
 20
114.3193
 30
0.0
  0
SEQEND
  5
5CA
  8
EBENE_1
  0
POLYLINE
  5
72
  8
EBENE_1
 66
     1
 10
0.0
 20
0.0
 30
0.0
 70
     1
  0
VERTEX
  5
E1
  8
EBENE_1
 10
-200.5229
 20
-17.9889
 30
0.0
  0
VERTEX
  5
E2
  8
EBENE_1
 10
-200.5229
 20
173.9892
 30
0.0
  0
VERTEX
  5
E3
  8
EBENE_1
 10
-154.8826
 20
173.9892
 30
0.0
  0
VERTEX
  5
E4
  8
EBENE_1
 10
-154.8826
 20
-17.9889
 30
0.0
  0
VERTEX
  5
E5
  8
EBENE_1
 10
-200.5229
 20
-17.9889
 30
0.0
  0
SEQEND
  5
5CB
  8
EBENE_1
  0
POLYLINE
  5
73
  8
EBENE_1
 66
     1
 10
0.0
 20
0.0
 30
0.0
 70
     1
  0
VERTEX
  5
E6
  8
EBENE_1
 10
-187.5548
 20
-253.7301
 30
0.0
  0
VERTEX
  5
E7
  8
EBENE_1
 10
-187.5548
 20
-61.752
 30
0.0
  0
VERTEX
  5
E8
  8
EBENE_1
 10
-141.9145
 20
-61.752
 30
0.0
  0
VERTEX
  5
E9
  8
EBENE_1
 10
-141.9145
 20
-253.7301
 30
0.0
  0
VERTEX
  5
EA
  8
EBENE_1
 10
-187.5548
 20
-253.7301
 30
0.0
  0
SEQEND
  5
5CC
  8
EBENE_1
  0
POLYLINE
  5
74
  8
EBENE_1
 66
     1
 10
0.0
 20
0.0
 30
0.0
 70
     1
  0
VERTEX
  5
EB
  8
EBENE_1
 10
99.1981
 20
-364.2483
 30
0.0
  0
VERTEX
  5
EC
  8
EBENE_1
 10
99.1981
 20
-164.2482
 30
0.0
  0
VERTEX
  5
ED
  8
EBENE_1
 10
-100.8018
 20
-164.2482
 30
0.0
  0
VERTEX
  5
EE
  8
EBENE_1
 10
-100.8018
 20
-364.2483
 30
0.0
  0
VERTEX
  5
EF
  8
EBENE_1
 10
99.1981
 20
-364.2483
 30
0.0
  0
SEQEND
  5
5CD
  8
EBENE_1
  0
POLYLINE
  5
75
  8
EBENE_1
 62
   250
 66
     1
 10
0.0
 20
0.0
 30
0.0
 70
     1
  0
VERTEX
  5
F0
  8
EBENE_1
 62
   250
 10
308.1897
 20
-83.0443
 30
0.0
  0
VERTEX
  5
F1
  8
EBENE_1
 62
   250
 10
313.0442
 20
-79.7158
 30
0.0
  0
VERTEX
  5
F2
  8
EBENE_1
 62
   250
 10
318.1289
 20
-83.0711
 30
0.0
  0
VERTEX
  5
F3
  8
EBENE_1
 62
   250
 10
318.1275
 20
-90.9127
 30
0.0
  0
VERTEX
  5
F4
  8
EBENE_1
 62
   250
 10
313.3178
 20
-90.9125
 30
0.0
  0
VERTEX
  5
F5
  8
EBENE_1
 62
   250
 10
313.3178
 20
-111.0681
 30
0.0
  0
VERTEX
  5
F6
  8
EBENE_1
 62
   250
 10
318.1271
 20
-111.0253
 30
0.0
  0
VERTEX
  5
F7
  8
EBENE_1
 62
   250
 10
318.1271
 20
-119.6921
 30
0.0
  0
VERTEX
  5
F8
  8
EBENE_1
 62
   250
 10
308.3692
 20
-119.6667
 30
0.0
  0
VERTEX
  5
F9
  8
EBENE_1
 62
   250
 10
308.3706
 20
-115.6813
 30
0.0
  0
VERTEX
  5
FA
  8
EBENE_1
 62
   250
 10
298.8333
 20
-115.6734
 30
0.0
  0
VERTEX
  5
FB
  8
EBENE_1
 62
   250
 10
298.8361
 20
-119.6609
 30
0.0
  0
VERTEX
  5
FC
  8
EBENE_1
 62
   250
 10
289.1133
 20
-119.6535
 30
0.0
  0
VERTEX
  5
FD
  8
EBENE_1
 62
   250
 10
289.153
 20
-115.6729
 30
0.0
  0
VERTEX
  5
FE
  8
EBENE_1
 62
   250
 10
279.7735
 20
-115.6729
 30
0.0
  0
VERTEX
  5
FF
  8
EBENE_1
 62
   250
 10
279.815
 20
-119.6537
 30
0.0
  0
VERTEX
  5
100
  8
EBENE_1
 62
   250
 10
270.2126
 20
-119.6537
 30
0.0
  0
VERTEX
  5
101
  8
EBENE_1
 62
   250
 10
270.1711
 20
-115.6729
 30
0.0
  0
VERTEX
  5
102
  8
EBENE_1
 62
   250
 10
260.7916
 20
-115.6729
 30
0.0
  0
VERTEX
  5
103
  8
EBENE_1
 62
   250
 10
260.7916
 20
-119.5323
 30
0.0
  0
VERTEX
  5
104
  8
EBENE_1
 62
   250
 10
251.1893
 20
-119.5323
 30
0.0
  0
VERTEX
  5
105
  8
EBENE_1
 62
   250
 10
251.1893
 20
-115.6729
 30
0.0
  0
VERTEX
  5
106
  8
EBENE_1
 62
   250
 10
241.8098
 20
-115.6729
 30
0.0
  0
VERTEX
  5
107
  8
EBENE_1
 62
   250
 10
241.8098
 20
-119.5323
 30
0.0
  0
VERTEX
  5
108
  8
EBENE_1
 62
   250
 10
232.2074
 20
-119.5323
 30
0.0
  0
VERTEX
  5
109
  8
EBENE_1
 62
   250
 10
232.2074
 20
-115.6729
 30
0.0
  0
VERTEX
  5
10A
  8
EBENE_1
 62
   250
 10
222.8279
 20
-115.6729
 30
0.0
  0
VERTEX
  5
10B
  8
EBENE_1
 62
   250
 10
222.8145
 20
-119.6728
 30
0.0
  0
VERTEX
  5
10C
  8
EBENE_1
 62
   250
 10
213.2122
 20
-119.6728
 30
0.0
  0
VERTEX
  5
10D
  8
EBENE_1
 62
   250
 10
213.2255
 20
-115.6729
 30
0.0
  0
VERTEX
  5
10E
  8
EBENE_1
 62
   250
 10
203.607
 20
-115.6729
 30
0.0
  0
VERTEX
  5
10F
  8
EBENE_1
 62
   250
 10
203.5932
 20
-119.6728
 30
0.0
  0
VERTEX
  5
110
  8
EBENE_1
 62
   250
 10
193.9908
 20
-119.6728
 30
0.0
  0
VERTEX
  5
111
  8
EBENE_1
 62
   250
 10
194.0042
 20
-115.6729
 30
0.0
  0
VERTEX
  5
112
  8
EBENE_1
 62
   250
 10
184.6252
 20
-115.6729
 30
0.0
  0
VERTEX
  5
113
  8
EBENE_1
 62
   250
 10
184.6118
 20
-119.6728
 30
0.0
  0
VERTEX
  5
114
  8
EBENE_1
 62
   250
 10
175.009
 20
-119.6728
 30
0.0
  0
VERTEX
  5
115
  8
EBENE_1
 62
   250
 10
175.0228
 20
-115.6729
 30
0.0
  0
VERTEX
  5
116
  8
EBENE_1
 62
   250
 10
165.6433
 20
-115.6729
 30
0.0
  0
VERTEX
  5
117
  8
EBENE_1
 62
   250
 10
165.63
 20
-119.6728
 30
0.0
  0
VERTEX
  5
118
  8
EBENE_1
 62
   250
 10
156.0271
 20
-119.6728
 30
0.0
  0
VERTEX
  5
119
  8
EBENE_1
 62
   250
 10
156.041
 20
-115.6729
 30
0.0
  0
VERTEX
  5
11A
  8
EBENE_1
 62
   250
 10
146.6615
 20
-115.6729
 30
0.0
  0
VERTEX
  5
11B
  8
EBENE_1
 62
   250
 10
146.6481
 20
-119.6728
 30
0.0
  0
VERTEX
  5
11C
  8
EBENE_1
 62
   250
 10
137.0453
 20
-119.6728
 30
0.0
  0
VERTEX
  5
11D
  8
EBENE_1
 62
   250
 10
137.0591
 20
-115.6729
 30
0.0
  0
VERTEX
  5
11E
  8
EBENE_1
 62
   250
 10
127.7511
 20
-115.6827
 30
0.0
  0
VERTEX
  5
11F
  8
EBENE_1
 62
   250
 10
127.7581
 20
-119.6744
 30
0.0
  0
VERTEX
  5
120
  8
EBENE_1
 62
   250
 10
118.1917
 20
-119.7159
 30
0.0
  0
VERTEX
  5
121
  8
EBENE_1
 62
   250
 10
118.1552
 20
-111.0719
 30
0.0
  0
VERTEX
  5
122
  8
EBENE_1
 62
   250
 10
123.0775
 20
-111.0681
 30
0.0
  0
VERTEX
  5
123
  8
EBENE_1
 62
   250
 10
123.0775
 20
-90.9125
 30
0.0
  0
VERTEX
  5
124
  8
EBENE_1
 62
   250
 10
118.1414
 20
-90.9125
 30
0.0
  0
VERTEX
  5
125
  8
EBENE_1
 62
   250
 10
118.1289
 20
-83.2402
 30
0.0
  0
VERTEX
  5
126
  8
EBENE_1
 62
   250
 10
122.959
 20
-79.9705
 30
0.0
  0
VERTEX
  5
127
  8
EBENE_1
 62
   250
 10
127.759
 20
-83.0021
 30
0.0
  0
VERTEX
  5
128
  8
EBENE_1
 62
   250
 10
127.7581
 20
-85.5216
 30
0.0
  0
VERTEX
  5
129
  8
EBENE_1
 62
   250
 10
137.0591
 20
-85.5216
 30
0.0
  0
VERTEX
  5
12A
  8
EBENE_1
 62
   250
 10
137.0591
 20
-82.9991
 30
0.0
  0
VERTEX
  5
12B
  8
EBENE_1
 62
   250
 10
141.8887
 20
-79.7294
 30
0.0
  0
VERTEX
  5
12C
  8
EBENE_1
 62
   250
 10
146.6615
 20
-82.9639
 30
0.0
  0
VERTEX
  5
12D
  8
EBENE_1
 62
   250
 10
146.6615
 20
-85.5216
 30
0.0
  0
VERTEX
  5
12E
  8
EBENE_1
 62
   250
 10
156.041
 20
-85.5216
 30
0.0
  0
VERTEX
  5
12F
  8
EBENE_1
 62
   250
 10
156.041
 20
-82.9639
 30
0.0
  0
VERTEX
  5
130
  8
EBENE_1
 62
   250
 10
160.8133
 20
-79.7294
 30
0.0
  0
VERTEX
  5
131
  8
EBENE_1
 62
   250
 10
165.6433
 20
-82.9807
 30
0.0
  0
VERTEX
  5
132
  8
EBENE_1
 62
   250
 10
165.6433
 20
-85.5216
 30
0.0
  0
VERTEX
  5
133
  8
EBENE_1
 62
   250
 10
175.0228
 20
-85.5216
 30
0.0
  0
VERTEX
  5
134
  8
EBENE_1
 62
   250
 10
175.0228
 20
-82.9639
 30
0.0
  0
VERTEX
  5
135
  8
EBENE_1
 62
   250
 10
179.7952
 20
-79.7294
 30
0.0
  0
VERTEX
  5
136
  8
EBENE_1
 62
   250
 10
184.6252
 20
-82.9991
 30
0.0
  0
VERTEX
  5
137
  8
EBENE_1
 62
   250
 10
184.6252
 20
-85.5216
 30
0.0
  0
VERTEX
  5
138
  8
EBENE_1
 62
   250
 10
194.0042
 20
-85.5216
 30
0.0
  0
VERTEX
  5
139
  8
EBENE_1
 62
   250
 10
194.0042
 20
-82.9639
 30
0.0
  0
VERTEX
  5
13A
  8
EBENE_1
 62
   250
 10
198.777
 20
-79.7294
 30
0.0
  0
VERTEX
  5
13B
  8
EBENE_1
 62
   250
 10
203.607
 20
-82.9991
 30
0.0
  0
VERTEX
  5
13C
  8
EBENE_1
 62
   250
 10
203.607
 20
-85.5216
 30
0.0
  0
VERTEX
  5
13D
  8
EBENE_1
 62
   250
 10
213.2255
 20
-85.5216
 30
0.0
  0
VERTEX
  5
13E
  8
EBENE_1
 62
   250
 10
213.2255
 20
-82.9991
 30
0.0
  0
VERTEX
  5
13F
  8
EBENE_1
 62
   250
 10
218.0556
 20
-79.7294
 30
0.0
  0
VERTEX
  5
140
  8
EBENE_1
 62
   250
 10
222.8279
 20
-82.9639
 30
0.0
  0
VERTEX
  5
141
  8
EBENE_1
 62
   250
 10
222.8279
 20
-85.5216
 30
0.0
  0
VERTEX
  5
142
  8
EBENE_1
 62
   250
 10
232.2074
 20
-85.5216
 30
0.0
  0
VERTEX
  5
143
  8
EBENE_1
 62
   250
 10
232.2074
 20
-82.9991
 30
0.0
  0
VERTEX
  5
144
  8
EBENE_1
 62
   250
 10
237.0374
 20
-79.7294
 30
0.0
  0
VERTEX
  5
145
  8
EBENE_1
 62
   250
 10
241.8098
 20
-82.9639
 30
0.0
  0
VERTEX
  5
146
  8
EBENE_1
 62
   250
 10
241.8098
 20
-85.5216
 30
0.0
  0
VERTEX
  5
147
  8
EBENE_1
 62
   250
 10
251.1893
 20
-85.5216
 30
0.0
  0
VERTEX
  5
148
  8
EBENE_1
 62
   250
 10
251.1893
 20
-82.9639
 30
0.0
  0
VERTEX
  5
149
  8
EBENE_1
 62
   250
 10
255.9621
 20
-79.7294
 30
0.0
  0
VERTEX
  5
14A
  8
EBENE_1
 62
   250
 10
260.7916
 20
-82.9807
 30
0.0
  0
VERTEX
  5
14B
  8
EBENE_1
 62
   250
 10
260.7916
 20
-85.5216
 30
0.0
  0
VERTEX
  5
14C
  8
EBENE_1
 62
   250
 10
270.1711
 20
-85.5216
 30
0.0
  0
VERTEX
  5
14D
  8
EBENE_1
 62
   250
 10
270.1711
 20
-82.9639
 30
0.0
  0
VERTEX
  5
14E
  8
EBENE_1
 62
   250
 10
274.9434
 20
-79.7294
 30
0.0
  0
VERTEX
  5
14F
  8
EBENE_1
 62
   250
 10
279.7735
 20
-82.9991
 30
0.0
  0
VERTEX
  5
150
  8
EBENE_1
 62
   250
 10
279.7735
 20
-85.5216
 30
0.0
  0
VERTEX
  5
151
  8
EBENE_1
 62
   250
 10
289.153
 20
-85.5216
 30
0.0
  0
VERTEX
  5
152
  8
EBENE_1
 62
   250
 10
289.153
 20
-82.9639
 30
0.0
  0
VERTEX
  5
153
  8
EBENE_1
 62
   250
 10
293.9253
 20
-79.7294
 30
0.0
  0
VERTEX
  5
154
  8
EBENE_1
 62
   250
 10
298.7553
 20
-82.9991
 30
0.0
  0
VERTEX
  5
155
  8
EBENE_1
 62
   250
 10
298.7553
 20
-85.5216
 30
0.0
  0
VERTEX
  5
156
  8
EBENE_1
 62
   250
 10
308.1916
 20
-85.5228
 30
0.0
  0
VERTEX
  5
157
  8
EBENE_1
 62
   250
 10
308.1897
 20
-83.0443
 30
0.0
  0
SEQEND
  5
5CE
  8
EBENE_1
 62
   250
  0
POLYLINE
  5
76
  8
EBENE_1
 62
   250
 66
     1
 10
0.0
 20
0.0
 30
0.0
 70
     1
  0
VERTEX
  5
158
  8
EBENE_1
 62
   250
 10
127.8889
 20
-90.9141
 30
0.0
  0
VERTEX
  5
159
  8
EBENE_1
 62
   250
 10
137.2113
 20
-90.9141
 30
0.0
  0
VERTEX
  5
15A
  8
EBENE_1
 62
   250
 10
137.2113
 20
-111.072
 30
0.0
  0
VERTEX
  5
15B
  8
EBENE_1
 62
   250
 10
127.8889
 20
-111.072
 30
0.0
  0
VERTEX
  5
15C
  8
EBENE_1
 62
   250
 10
127.8889
 20
-90.9141
 30
0.0
  0
SEQEND
  5
5CF
  8
EBENE_1
 62
   250
  0
POLYLINE
  5
77
  8
EBENE_1
 62
   250
 66
     1
 10
0.0
 20
0.0
 30
0.0
 70
     1
  0
VERTEX
  5
15D
  8
EBENE_1
 62
   250
 10
146.9571
 20
-90.9103
 30
0.0
  0
VERTEX
  5
15E
  8
EBENE_1
 62
   250
 10
156.2795
 20
-90.9103
 30
0.0
  0
VERTEX
  5
15F
  8
EBENE_1
 62
   250
 10
156.2795
 20
-111.0682
 30
0.0
  0
VERTEX
  5
160
  8
EBENE_1
 62
   250
 10
146.9571
 20
-111.0682
 30
0.0
  0
VERTEX
  5
161
  8
EBENE_1
 62
   250
 10
146.9571
 20
-90.9103
 30
0.0
  0
SEQEND
  5
5D0
  8
EBENE_1
 62
   250
  0
POLYLINE
  5
78
  8
EBENE_1
 62
   250
 66
     1
 10
0.0
 20
0.0
 30
0.0
 70
     1
  0
VERTEX
  5
162
  8
EBENE_1
 62
   250
 10
165.7744
 20
-90.9103
 30
0.0
  0
VERTEX
  5
163
  8
EBENE_1
 62
   250
 10
175.0968
 20
-90.9103
 30
0.0
  0
VERTEX
  5
164
  8
EBENE_1
 62
   250
 10
175.0968
 20
-111.0682
 30
0.0
  0
VERTEX
  5
165
  8
EBENE_1
 62
   250
 10
165.7744
 20
-111.0682
 30
0.0
  0
VERTEX
  5
166
  8
EBENE_1
 62
   250
 10
165.7744
 20
-90.9103
 30
0.0
  0
SEQEND
  5
5D1
  8
EBENE_1
 62
   250
  0
POLYLINE
  5
79
  8
EBENE_1
 62
   250
 66
     1
 10
0.0
 20
0.0
 30
0.0
 70
     1
  0
VERTEX
  5
167
  8
EBENE_1
 62
   250
 10
184.8818
 20
-90.9103
 30
0.0
  0
VERTEX
  5
168
  8
EBENE_1
 62
   250
 10
194.2042
 20
-90.9103
 30
0.0
  0
VERTEX
  5
169
  8
EBENE_1
 62
   250
 10
194.2042
 20
-111.0682
 30
0.0
  0
VERTEX
  5
16A
  8
EBENE_1
 62
   250
 10
184.8818
 20
-111.0682
 30
0.0
  0
VERTEX
  5
16B
  8
EBENE_1
 62
   250
 10
184.8818
 20
-90.9103
 30
0.0
  0
SEQEND
  5
5D2
  8
EBENE_1
 62
   250
  0
POLYLINE
  5
7A
  8
EBENE_1
 62
   250
 66
     1
 10
0.0
 20
0.0
 30
0.0
 70
     1
  0
VERTEX
  5
16C
  8
EBENE_1
 62
   250
 10
279.9879
 20
-90.9103
 30
0.0
  0
VERTEX
  5
16D
  8
EBENE_1
 62
   250
 10
289.3103
 20
-90.9103
 30
0.0
  0
VERTEX
  5
16E
  8
EBENE_1
 62
   250
 10
289.3103
 20
-111.0682
 30
0.0
  0
VERTEX
  5
16F
  8
EBENE_1
 62
   250
 10
279.9879
 20
-111.0682
 30
0.0
  0
VERTEX
  5
170
  8
EBENE_1
 62
   250
 10
279.9879
 20
-90.9103
 30
0.0
  0
SEQEND
  5
5D3
  8
EBENE_1
 62
   250
  0
POLYLINE
  5
7B
  8
EBENE_1
 62
   250
 66
     1
 10
0.0
 20
0.0
 30
0.0
 70
     1
  0
VERTEX
  5
171
  8
EBENE_1
 62
   250
 10
299.0143
 20
-90.9103
 30
0.0
  0
VERTEX
  5
172
  8
EBENE_1
 62
   250
 10
308.3367
 20
-90.9103
 30
0.0
  0
VERTEX
  5
173
  8
EBENE_1
 62
   250
 10
308.3367
 20
-111.0682
 30
0.0
  0
VERTEX
  5
174
  8
EBENE_1
 62
   250
 10
299.0143
 20
-111.0682
 30
0.0
  0
VERTEX
  5
175
  8
EBENE_1
 62
   250
 10
299.0143
 20
-90.9103
 30
0.0
  0
SEQEND
  5
5D4
  8
EBENE_1
 62
   250
  0
POLYLINE
  5
7C
  8
EBENE_1
 62
   250
 66
     1
 10
0.0
 20
0.0
 30
0.0
 70
     1
  0
VERTEX
  5
176
  8
EBENE_1
 62
   250
 10
203.9691
 20
-90.9035
 30
0.0
  0
VERTEX
  5
177
  8
EBENE_1
 62
   250
 10
213.2915
 20
-90.9035
 30
0.0
  0
VERTEX
  5
178
  8
EBENE_1
 62
   250
 10
213.2915
 20
-111.0614
 30
0.0
  0
VERTEX
  5
179
  8
EBENE_1
 62
   250
 10
203.9691
 20
-111.0614
 30
0.0
  0
VERTEX
  5
17A
  8
EBENE_1
 62
   250
 10
203.9691
 20
-90.9035
 30
0.0
  0
SEQEND
  5
5D5
  8
EBENE_1
 62
   250
  0
POLYLINE
  5
7D
  8
EBENE_1
 62
   250
 66
     1
 10
0.0
 20
0.0
 30
0.0
 70
     1
  0
VERTEX
  5
17B
  8
EBENE_1
 62
   250
 10
223.0373
 20
-90.8998
 30
0.0
  0
VERTEX
  5
17C
  8
EBENE_1
 62
   250
 10
232.3597
 20
-90.8998
 30
0.0
  0
VERTEX
  5
17D
  8
EBENE_1
 62
   250
 10
232.3597
 20
-111.0577
 30
0.0
  0
VERTEX
  5
17E
  8
EBENE_1
 62
   250
 10
223.0373
 20
-111.0577
 30
0.0
  0
VERTEX
  5
17F
  8
EBENE_1
 62
   250
 10
223.0373
 20
-90.8998
 30
0.0
  0
SEQEND
  5
5D6
  8
EBENE_1
 62
   250
  0
POLYLINE
  5
7E
  8
EBENE_1
 62
   250
 66
     1
 10
0.0
 20
0.0
 30
0.0
 70
     1
  0
VERTEX
  5
180
  8
EBENE_1
 62
   250
 10
241.8546
 20
-90.8998
 30
0.0
  0
VERTEX
  5
181
  8
EBENE_1
 62
   250
 10
251.177
 20
-90.8998
 30
0.0
  0
VERTEX
  5
182
  8
EBENE_1
 62
   250
 10
251.177
 20
-111.0577
 30
0.0
  0
VERTEX
  5
183
  8
EBENE_1
 62
   250
 10
241.8546
 20
-111.0577
 30
0.0
  0
VERTEX
  5
184
  8
EBENE_1
 62
   250
 10
241.8546
 20
-90.8998
 30
0.0
  0
SEQEND
  5
5D7
  8
EBENE_1
 62
   250
  0
POLYLINE
  5
7F
  8
EBENE_1
 62
   250
 66
     1
 10
0.0
 20
0.0
 30
0.0
 70
     1
  0
VERTEX
  5
185
  8
EBENE_1
 62
   250
 10
260.962
 20
-90.8998
 30
0.0
  0
VERTEX
  5
186
  8
EBENE_1
 62
   250
 10
270.2844
 20
-90.8998
 30
0.0
  0
VERTEX
  5
187
  8
EBENE_1
 62
   250
 10
270.2844
 20
-111.0577
 30
0.0
  0
VERTEX
  5
188
  8
EBENE_1
 62
   250
 10
260.962
 20
-111.0577
 30
0.0
  0
VERTEX
  5
189
  8
EBENE_1
 62
   250
 10
260.962
 20
-90.8998
 30
0.0
  0
SEQEND
  5
5D8
  8
EBENE_1
 62
   250
  0
POLYLINE
  5
80
  8
EBENE_1
 62
   242
 66
     1
 10
0.0
 20
0.0
 30
0.0
 70
     1
  0
VERTEX
  5
18A
  8
EBENE_1
 62
   242
 10
-27.4861
 20
-9.8791
 30
0.0
  0
VERTEX
  5
18B
  8
EBENE_1
 62
   242
 10
-27.4564
 20
47.5927
 30
0.0
  0
VERTEX
  5
18C
  8
EBENE_1
 62
   242
 10
-24.4598
 20
47.5927
 30
0.0
  0
VERTEX
  5
18D
  8
EBENE_1
 62
   242
 10
-24.4592
 20
14.7341
 30
0.0
  0
VERTEX
  5
18E
  8
EBENE_1
 62
   242
 10
6.5517
 20
30.5216
 30
0.0
  0
VERTEX
  5
18F
  8
EBENE_1
 62
   242
 10
6.5444
 20
64.0973
 30
0.0
  0
VERTEX
  5
190
  8
EBENE_1
 62
   242
 10
11.3222
 20
64.0997
 30
0.0
  0
VERTEX
  5
191
  8
EBENE_1
 62
   242
 10
14.2808
 20
65.0631
 30
0.0
  0
VERTEX
  5
192
  8
EBENE_1
 62
   242
 10
16.3649
 20
66.7631
 30
0.0
  0
VERTEX
  5
193
  8
EBENE_1
 62
   242
 10
17.5867
 20
68.9507
 30
0.0
  0
VERTEX
  5
194
  8
EBENE_1
 62
   242
 10
17.958
 20
71.3769
 30
0.0
  0
VERTEX
  5
195
  8
EBENE_1
 62
   242
 10
17.4909
 20
73.7928
 30
0.0
  0
VERTEX
  5
196
  8
EBENE_1
 62
   242
 10
16.1975
 20
75.9495
 30
0.0
  0
VERTEX
  5
197
  8
EBENE_1
 62
   242
 10
14.0896
 20
77.5981
 30
0.0
  0
VERTEX
  5
198
  8
EBENE_1
 62
   242
 10
11.1793
 20
78.4895
 30
0.0
  0
VERTEX
  5
199
  8
EBENE_1
 62
   242
 10
-3.517
 20
78.4895
 30
0.0
  0
VERTEX
  5
19A
  8
EBENE_1
 62
   242
 10
-3.5182
 20
80.7553
 30
0.0
  0
VERTEX
  5
19B
  8
EBENE_1
 62
   242
 10
-17.9285
 20
80.7515
 30
0.0
  0
VERTEX
  5
19C
  8
EBENE_1
 62
   242
 10
-17.9168
 20
78.4895
 30
0.0
  0
VERTEX
  5
19D
  8
EBENE_1
 62
   242
 10
-40.3789
 20
78.4789
 30
0.0
  0
VERTEX
  5
19E
  8
EBENE_1
 62
   242
 10
-40.3746
 20
61.5068
 30
0.0
  0
VERTEX
  5
19F
  8
EBENE_1
 62
   242
 10
-41.4643
 20
52.861
 30
0.0
  0
VERTEX
  5
1A0
  8
EBENE_1
 62
   242
 10
-44.616
 20
46.763
 30
0.0
  0
VERTEX
  5
1A1
  8
EBENE_1
 62
   242
 10
-49.1559
 20
43.152
 30
0.0
  0
VERTEX
  5
1A2
  8
EBENE_1
 62
   242
 10
-54.41
 20
41.9674
 30
0.0
  0
VERTEX
  5
1A3
  8
EBENE_1
 62
   242
 10
-59.7044
 20
43.1481
 30
0.0
  0
VERTEX
  5
1A4
  8
EBENE_1
 62
   242
 10
-64.3653
 20
46.6336
 30
0.0
  0
VERTEX
  5
1A5
  8
EBENE_1
 62
   242
 10
-67.7187
 20
52.363
 30
0.0
  0
VERTEX
  5
1A6
  8
EBENE_1
 62
   242
 10
-69.0909
 20
60.2756
 30
0.0
  0
VERTEX
  5
1A7
  8
EBENE_1
 62
   242
 10
-69.0119
 20
78.4935
 30
0.0
  0
VERTEX
  5
1A8
  8
EBENE_1
 62
   242
 10
-90.44
 20
78.4921
 30
0.0
  0
VERTEX
  5
1A9
  8
EBENE_1
 62
   242
 10
-90.4259
 20
80.7501
 30
0.0
  0
VERTEX
  5
1AA
  8
EBENE_1
 62
   242
 10
-104.8242
 20
80.7243
 30
0.0
  0
VERTEX
  5
1AB
  8
EBENE_1
 62
   242
 10
-104.8452
 20
78.4824
 30
0.0
  0
VERTEX
  5
1AC
  8
EBENE_1
 62
   242
 10
-119.0951
 20
78.4898
 30
0.0
  0
VERTEX
  5
1AD
  8
EBENE_1
 62
   242
 10
-122.1635
 20
77.7173
 30
0.0
  0
VERTEX
  5
1AE
  8
EBENE_1
 62
   242
 10
-124.3959
 20
76.1066
 30
0.0
  0
VERTEX
  5
1AF
  8
EBENE_1
 62
   242
 10
-125.7815
 20
73.9299
 30
0.0
  0
VERTEX
  5
1B0
  8
EBENE_1
 62
   242
 10
-126.3097
 20
71.4596
 30
0.0
  0
VERTEX
  5
1B1
  8
EBENE_1
 62
   242
 10
-125.9696
 20
68.9678
 30
0.0
  0
VERTEX
  5
1B2
  8
EBENE_1
 62
   242
 10
-124.7504
 20
66.7268
 30
0.0
  0
VERTEX
  5
1B3
  8
EBENE_1
 62
   242
 10
-122.6414
 20
65.0089
 30
0.0
  0
VERTEX
  5
1B4
  8
EBENE_1
 62
   242
 10
-119.6317
 20
64.0865
 30
0.0
  0
VERTEX
  5
1B5
  8
EBENE_1
 62
   242
 10
-114.9012
 20
64.0802
 30
0.0
  0
VERTEX
  5
1B6
  8
EBENE_1
 62
   242
 10
-114.9056
 20
30.5478
 30
0.0
  0
VERTEX
  5
1B7
  8
EBENE_1
 62
   242
 10
-83.9085
 20
14.7265
 30
0.0
  0
VERTEX
  5
1B8
  8
EBENE_1
 62
   242
 10
-83.9157
 20
47.5927
 30
0.0
  0
VERTEX
  5
1B9
  8
EBENE_1
 62
   242
 10
-80.9019
 20
47.5927
 30
0.0
  0
VERTEX
  5
1BA
  8
EBENE_1
 62
   242
 10
-80.9106
 20
-9.8644
 30
0.0
  0
VERTEX
  5
1BB
  8
EBENE_1
 62
   242
 10
-54.1821
 20
-36.6078
 30
0.0
  0
VERTEX
  5
1BC
  8
EBENE_1
 62
   242
 10
-27.4861
 20
-9.8791
 30
0.0
  0
SEQEND
  5
5D9
  8
EBENE_1
 62
   242
  0
POLYLINE
  5
81
  8
EBENE_1
 62
   250
 66
     1
 10
0.0
 20
0.0
 30
0.0
 70
     1
  0
VERTEX
  5
1BD
  8
EBENE_1
 62
   250
 10
-56.1352
 20
-1.5746
 30
0.0
  0
VERTEX
  5
1BE
  8
EBENE_1
 62
   250
 10
-61.9841
 20
-1.5746
 30
0.0
  0
VERTEX
  5
1BF
  8
EBENE_1
 62
   250
 10
-61.9841
 20
12.0
 30
0.0
  0
VERTEX
  5
1C0
  8
EBENE_1
 62
   250
 10
-56.1352
 20
12.0
 30
0.0
  0
VERTEX
  5
1C1
  8
EBENE_1
 62
   250
 10
-56.1352
 20
-1.5746
 30
0.0
  0
SEQEND
  5
5DA
  8
EBENE_1
 62
   250
  0
POLYLINE
  5
82
  8
EBENE_1
 62
   250
 66
     1
 10
0.0
 20
0.0
 30
0.0
 70
     1
  0
VERTEX
  5
1C2
  8
EBENE_1
 62
   250
 10
-46.646
 20
-1.5746
 30
0.0
  0
VERTEX
  5
1C3
  8
EBENE_1
 62
   250
 10
-52.4722
 20
-1.5746
 30
0.0
  0
VERTEX
  5
1C4
  8
EBENE_1
 62
   250
 10
-52.4722
 20
12.1837
 30
0.0
  0
VERTEX
  5
1C5
  8
EBENE_1
 62
   250
 10
-46.646
 20
12.1837
 30
0.0
  0
VERTEX
  5
1C6
  8
EBENE_1
 62
   250
 10
-46.646
 20
-1.5746
 30
0.0
  0
SEQEND
  5
5DB
  8
EBENE_1
 62
   250
  0
POLYLINE
  5
83
  8
EBENE_1
 62
   250
 66
     1
 10
0.0
 20
0.0
 30
0.0
 70
     1
  0
VERTEX
  5
1C7
  8
EBENE_1
 62
   250
 10
-56.135
 20
-11.3496
 30
0.0
  0
VERTEX
  5
1C8
  8
EBENE_1
 62
   250
 10
-59.0476
 20
-11.3496
 30
0.0
  0
VERTEX
  5
1C9
  8
EBENE_1
 62
   250
 10
-59.6327
 20
-11.2927
 30
0.0
  0
VERTEX
  5
1CA
  8
EBENE_1
 62
   250
 10
-60.1786
 20
-11.1295
 30
0.0
  0
VERTEX
  5
1CB
  8
EBENE_1
 62
   250
 10
-60.6732
 20
-10.8715
 30
0.0
  0
VERTEX
  5
1CC
  8
EBENE_1
 62
   250
 10
-61.1047
 20
-10.5301
 30
0.0
  0
VERTEX
  5
1CD
  8
EBENE_1
 62
   250
 10
-61.4611
 20
-10.1168
 30
0.0
  0
VERTEX
  5
1CE
  8
EBENE_1
 62
   250
 10
-61.7305
 20
-9.643
 30
0.0
  0
VERTEX
  5
1CF
  8
EBENE_1
 62
   250
 10
-61.9009
 20
-9.1201
 30
0.0
  0
VERTEX
  5
1D0
  8
EBENE_1
 62
   250
 10
-61.9603
 20
-8.5597
 30
0.0
  0
VERTEX
  5
1D1
  8
EBENE_1
 62
   250
 10
-61.9603
 20
-4.3224
 30
0.0
  0
VERTEX
  5
1D2
  8
EBENE_1
 62
   250
 10
-56.135
 20
-4.3224
 30
0.0
  0
VERTEX
  5
1D3
  8
EBENE_1
 62
   250
 10
-56.135
 20
-11.3496
 30
0.0
  0
SEQEND
  5
5DC
  8
EBENE_1
 62
   250
  0
POLYLINE
  5
84
  8
EBENE_1
 62
   250
 66
     1
 10
0.0
 20
0.0
 30
0.0
 70
     1
  0
VERTEX
  5
1D4
  8
EBENE_1
 62
   250
 10
-52.4673
 20
-11.3795
 30
0.0
  0
VERTEX
  5
1D5
  8
EBENE_1
 62
   250
 10
-49.5547
 20
-11.3795
 30
0.0
  0
VERTEX
  5
1D6
  8
EBENE_1
 62
   250
 10
-48.9696
 20
-11.3226
 30
0.0
  0
VERTEX
  5
1D7
  8
EBENE_1
 62
   250
 10
-48.4237
 20
-11.1594
 30
0.0
  0
VERTEX
  5
1D8
  8
EBENE_1
 62
   250
 10
-47.9291
 20
-10.9014
 30
0.0
  0
VERTEX
  5
1D9
  8
EBENE_1
 62
   250
 10
-47.4976
 20
-10.56
 30
0.0
  0
VERTEX
  5
1DA
  8
EBENE_1
 62
   250
 10
-47.1412
 20
-10.1467
 30
0.0
  0
VERTEX
  5
1DB
  8
EBENE_1
 62
   250
 10
-46.8718
 20
-9.6729
 30
0.0
  0
VERTEX
  5
1DC
  8
EBENE_1
 62
   250
 10
-46.7014
 20
-9.15
 30
0.0
  0
VERTEX
  5
1DD
  8
EBENE_1
 62
   250
 10
-46.642
 20
-8.5896
 30
0.0
  0
VERTEX
  5
1DE
  8
EBENE_1
 62
   250
 10
-46.642
 20
-4.3523
 30
0.0
  0
VERTEX
  5
1DF
  8
EBENE_1
 62
   250
 10
-52.4673
 20
-4.3523
 30
0.0
  0
VERTEX
  5
1E0
  8
EBENE_1
 62
   250
 10
-52.4673
 20
-11.3795
 30
0.0
  0
SEQEND
  5
5DD
  8
EBENE_1
 62
   250
  0
POLYLINE
  5
85
  8
EBENE_1
 62
   250
 66
     1
 10
0.0
 20
0.0
 30
0.0
 70
     1
  0
VERTEX
  5
1E1
  8
EBENE_1
 62
   250
 10
-11.2696
 20
46.0474
 30
0.0
  0
VERTEX
  5
1E2
  8
EBENE_1
 62
   250
 10
-17.1185
 20
46.0474
 30
0.0
  0
VERTEX
  5
1E3
  8
EBENE_1
 62
   250
 10
-17.1185
 20
59.622
 30
0.0
  0
VERTEX
  5
1E4
  8
EBENE_1
 62
   250
 10
-11.2696
 20
59.622
 30
0.0
  0
VERTEX
  5
1E5
  8
EBENE_1
 62
   250
 10
-11.2696
 20
46.0474
 30
0.0
  0
SEQEND
  5
5DE
  8
EBENE_1
 62
   250
  0
POLYLINE
  5
86
  8
EBENE_1
 62
   250
 66
     1
 10
0.0
 20
0.0
 30
0.0
 70
     1
  0
VERTEX
  5
1E6
  8
EBENE_1
 62
   250
 10
-1.7804
 20
46.0474
 30
0.0
  0
VERTEX
  5
1E7
  8
EBENE_1
 62
   250
 10
-7.6066
 20
46.0474
 30
0.0
  0
VERTEX
  5
1E8
  8
EBENE_1
 62
   250
 10
-7.6066
 20
59.8057
 30
0.0
  0
VERTEX
  5
1E9
  8
EBENE_1
 62
   250
 10
-1.7804
 20
59.8057
 30
0.0
  0
VERTEX
  5
1EA
  8
EBENE_1
 62
   250
 10
-1.7804
 20
46.0474
 30
0.0
  0
SEQEND
  5
5DF
  8
EBENE_1
 62
   250
  0
POLYLINE
  5
87
  8
EBENE_1
 62
   250
 66
     1
 10
0.0
 20
0.0
 30
0.0
 70
     1
  0
VERTEX
  5
1EB
  8
EBENE_1
 62
   250
 10
-11.2694
 20
36.2724
 30
0.0
  0
VERTEX
  5
1EC
  8
EBENE_1
 62
   250
 10
-14.182
 20
36.2724
 30
0.0
  0
VERTEX
  5
1ED
  8
EBENE_1
 62
   250
 10
-14.7671
 20
36.3293
 30
0.0
  0
VERTEX
  5
1EE
  8
EBENE_1
 62
   250
 10
-15.313
 20
36.4925
 30
0.0
  0
VERTEX
  5
1EF
  8
EBENE_1
 62
   250
 10
-15.8076
 20
36.7505
 30
0.0
  0
VERTEX
  5
1F0
  8
EBENE_1
 62
   250
 10
-16.2391
 20
37.0919
 30
0.0
  0
VERTEX
  5
1F1
  8
EBENE_1
 62
   250
 10
-16.5955
 20
37.5052
 30
0.0
  0
VERTEX
  5
1F2
  8
EBENE_1
 62
   250
 10
-16.8649
 20
37.979
 30
0.0
  0
VERTEX
  5
1F3
  8
EBENE_1
 62
   250
 10
-17.0353
 20
38.5019
 30
0.0
  0
VERTEX
  5
1F4
  8
EBENE_1
 62
   250
 10
-17.0947
 20
39.0623
 30
0.0
  0
VERTEX
  5
1F5
  8
EBENE_1
 62
   250
 10
-17.0947
 20
43.2996
 30
0.0
  0
VERTEX
  5
1F6
  8
EBENE_1
 62
   250
 10
-11.2694
 20
43.2996
 30
0.0
  0
VERTEX
  5
1F7
  8
EBENE_1
 62
   250
 10
-11.2694
 20
36.2724
 30
0.0
  0
SEQEND
  5
5E0
  8
EBENE_1
 62
   250
  0
POLYLINE
  5
88
  8
EBENE_1
 62
   250
 66
     1
 10
0.0
 20
0.0
 30
0.0
 70
     1
  0
VERTEX
  5
1F8
  8
EBENE_1
 62
   250
 10
-7.6017
 20
36.2425
 30
0.0
  0
VERTEX
  5
1F9
  8
EBENE_1
 62
   250
 10
-4.6891
 20
36.2425
 30
0.0
  0
VERTEX
  5
1FA
  8
EBENE_1
 62
   250
 10
-4.104
 20
36.2994
 30
0.0
  0
VERTEX
  5
1FB
  8
EBENE_1
 62
   250
 10
-3.5581
 20
36.4626
 30
0.0
  0
VERTEX
  5
1FC
  8
EBENE_1
 62
   250
 10
-3.0635
 20
36.7206
 30
0.0
  0
VERTEX
  5
1FD
  8
EBENE_1
 62
   250
 10
-2.632
 20
37.062
 30
0.0
  0
VERTEX
  5
1FE
  8
EBENE_1
 62
   250
 10
-2.2756
 20
37.4753
 30
0.0
  0
VERTEX
  5
1FF
  8
EBENE_1
 62
   250
 10
-2.0062
 20
37.9491
 30
0.0
  0
VERTEX
  5
200
  8
EBENE_1
 62
   250
 10
-1.8358
 20
38.472
 30
0.0
  0
VERTEX
  5
201
  8
EBENE_1
 62
   250
 10
-1.7764
 20
39.0324
 30
0.0
  0
VERTEX
  5
202
  8
EBENE_1
 62
   250
 10
-1.7764
 20
43.2697
 30
0.0
  0
VERTEX
  5
203
  8
EBENE_1
 62
   250
 10
-7.6017
 20
43.2697
 30
0.0
  0
VERTEX
  5
204
  8
EBENE_1
 62
   250
 10
-7.6017
 20
36.2425
 30
0.0
  0
SEQEND
  5
5E1
  8
EBENE_1
 62
   250
  0
POLYLINE
  5
89
  8
EBENE_1
 62
   250
 66
     1
 10
0.0
 20
0.0
 30
0.0
 70
     1
  0
VERTEX
  5
205
  8
EBENE_1
 62
   250
 10
-100.9899
 20
45.8699
 30
0.0
  0
VERTEX
  5
206
  8
EBENE_1
 62
   250
 10
-106.8388
 20
45.8699
 30
0.0
  0
VERTEX
  5
207
  8
EBENE_1
 62
   250
 10
-106.8388
 20
59.4445
 30
0.0
  0
VERTEX
  5
208
  8
EBENE_1
 62
   250
 10
-100.9899
 20
59.4445
 30
0.0
  0
VERTEX
  5
209
  8
EBENE_1
 62
   250
 10
-100.9899
 20
45.8699
 30
0.0
  0
SEQEND
  5
5E2
  8
EBENE_1
 62
   250
  0
POLYLINE
  5
8A
  8
EBENE_1
 62
   250
 66
     1
 10
0.0
 20
0.0
 30
0.0
 70
     1
  0
VERTEX
  5
20A
  8
EBENE_1
 62
   250
 10
-91.5007
 20
45.8699
 30
0.0
  0
VERTEX
  5
20B
  8
EBENE_1
 62
   250
 10
-97.3269
 20
45.8699
 30
0.0
  0
VERTEX
  5
20C
  8
EBENE_1
 62
   250
 10
-97.3269
 20
59.6282
 30
0.0
  0
VERTEX
  5
20D
  8
EBENE_1
 62
   250
 10
-91.5007
 20
59.6282
 30
0.0
  0
VERTEX
  5
20E
  8
EBENE_1
 62
   250
 10
-91.5007
 20
45.8699
 30
0.0
  0
SEQEND
  5
5E3
  8
EBENE_1
 62
   250
  0
POLYLINE
  5
8B
  8
EBENE_1
 62
   250
 66
     1
 10
0.0
 20
0.0
 30
0.0
 70
     1
  0
VERTEX
  5
20F
  8
EBENE_1
 62
   250
 10
-100.9897
 20
36.0949
 30
0.0
  0
VERTEX
  5
210
  8
EBENE_1
 62
   250
 10
-103.9023
 20
36.0949
 30
0.0
  0
VERTEX
  5
211
  8
EBENE_1
 62
   250
 10
-104.4874
 20
36.1518
 30
0.0
  0
VERTEX
  5
212
  8
EBENE_1
 62
   250
 10
-105.0333
 20
36.315
 30
0.0
  0
VERTEX
  5
213
  8
EBENE_1
 62
   250
 10
-105.5279
 20
36.573
 30
0.0
  0
VERTEX
  5
214
  8
EBENE_1
 62
   250
 10
-105.9594
 20
36.9144
 30
0.0
  0
VERTEX
  5
215
  8
EBENE_1
 62
   250
 10
-106.3158
 20
37.3277
 30
0.0
  0
VERTEX
  5
216
  8
EBENE_1
 62
   250
 10
-106.5852
 20
37.8015
 30
0.0
  0
VERTEX
  5
217
  8
EBENE_1
 62
   250
 10
-106.7556
 20
38.3244
 30
0.0
  0
VERTEX
  5
218
  8
EBENE_1
 62
   250
 10
-106.815
 20
38.8848
 30
0.0
  0
VERTEX
  5
219
  8
EBENE_1
 62
   250
 10
-106.815
 20
43.1221
 30
0.0
  0
VERTEX
  5
21A
  8
EBENE_1
 62
   250
 10
-100.9897
 20
43.1221
 30
0.0
  0
VERTEX
  5
21B
  8
EBENE_1
 62
   250
 10
-100.9897
 20
36.0949
 30
0.0
  0
SEQEND
  5
5E4
  8
EBENE_1
 62
   250
  0
POLYLINE
  5
8C
  8
EBENE_1
 62
   250
 66
     1
 10
0.0
 20
0.0
 30
0.0
 70
     1
  0
VERTEX
  5
21C
  8
EBENE_1
 62
   250
 10
-97.322
 20
36.065
 30
0.0
  0
VERTEX
  5
21D
  8
EBENE_1
 62
   250
 10
-94.4094
 20
36.065
 30
0.0
  0
VERTEX
  5
21E
  8
EBENE_1
 62
   250
 10
-93.8243
 20
36.1219
 30
0.0
  0
VERTEX
  5
21F
  8
EBENE_1
 62
   250
 10
-93.2784
 20
36.2851
 30
0.0
  0
VERTEX
  5
220
  8
EBENE_1
 62
   250
 10
-92.7838
 20
36.5431
 30
0.0
  0
VERTEX
  5
221
  8
EBENE_1
 62
   250
 10
-92.3523
 20
36.8845
 30
0.0
  0
VERTEX
  5
222
  8
EBENE_1
 62
   250
 10
-91.9959
 20
37.2978
 30
0.0
  0
VERTEX
  5
223
  8
EBENE_1
 62
   250
 10
-91.7265
 20
37.7716
 30
0.0
  0
VERTEX
  5
224
  8
EBENE_1
 62
   250
 10
-91.5561
 20
38.2945
 30
0.0
  0
VERTEX
  5
225
  8
EBENE_1
 62
   250
 10
-91.4967
 20
38.8549
 30
0.0
  0
VERTEX
  5
226
  8
EBENE_1
 62
   250
 10
-91.4967
 20
43.0922
 30
0.0
  0
VERTEX
  5
227
  8
EBENE_1
 62
   250
 10
-97.322
 20
43.0922
 30
0.0
  0
VERTEX
  5
228
  8
EBENE_1
 62
   250
 10
-97.322
 20
36.065
 30
0.0
  0
SEQEND
  5
5E5
  8
EBENE_1
 62
   250
  0
POLYLINE
  5
8D
  8
EBENE_1
 62
   250
 66
     1
 10
0.0
 20
0.0
 30
0.0
 70
     1
  0
VERTEX
  5
229
  8
EBENE_1
 62
   250
 10
-55.6122
 20
53.0838
 30
0.0
  0
VERTEX
  5
22A
  8
EBENE_1
 62
   250
 10
-61.4611
 20
53.0838
 30
0.0
  0
VERTEX
  5
22B
  8
EBENE_1
 62
   250
 10
-61.4611
 20
60.219
 30
0.0
  0
VERTEX
  5
22C
  8
EBENE_1
 62
   250
 10
-55.6122
 20
60.219
 30
0.0
  0
VERTEX
  5
22D
  8
EBENE_1
 62
   250
 10
-55.6122
 20
53.0838
 30
0.0
  0
SEQEND
  5
5E6
  8
EBENE_1
 62
   250
  0
POLYLINE
  5
8E
  8
EBENE_1
 62
   250
 66
     1
 10
0.0
 20
0.0
 30
0.0
 70
     1
  0
VERTEX
  5
22E
  8
EBENE_1
 62
   250
 10
-47.8359
 20
52.9919
 30
0.0
  0
VERTEX
  5
22F
  8
EBENE_1
 62
   250
 10
-53.6621
 20
52.9919
 30
0.0
  0
VERTEX
  5
230
  8
EBENE_1
 62
   250
 10
-53.6621
 20
60.2237
 30
0.0
  0
VERTEX
  5
231
  8
EBENE_1
 62
   250
 10
-47.8359
 20
60.2237
 30
0.0
  0
VERTEX
  5
232
  8
EBENE_1
 62
   250
 10
-47.8359
 20
52.9919
 30
0.0
  0
SEQEND
  5
5E7
  8
EBENE_1
 62
   250
  0
POLYLINE
  5
8F
  8
EBENE_1
 62
   250
 66
     1
 10
0.0
 20
0.0
 30
0.0
 70
     1
  0
VERTEX
  5
233
  8
EBENE_1
 62
   250
 10
-55.612
 20
47.9457
 30
0.0
  0
VERTEX
  5
234
  8
EBENE_1
 62
   250
 10
-58.5246
 20
47.9457
 30
0.0
  0
VERTEX
  5
235
  8
EBENE_1
 62
   250
 10
-59.1097
 20
47.9756
 30
0.0
  0
VERTEX
  5
236
  8
EBENE_1
 62
   250
 10
-59.6556
 20
48.0614
 30
0.0
  0
VERTEX
  5
237
  8
EBENE_1
 62
   250
 10
-60.1502
 20
48.197
 30
0.0
  0
VERTEX
  5
238
  8
EBENE_1
 62
   250
 10
-60.5817
 20
48.3765
 30
0.0
  0
VERTEX
  5
239
  8
EBENE_1
 62
   250
 10
-60.9381
 20
48.5937
 30
0.0
  0
VERTEX
  5
23A
  8
EBENE_1
 62
   250
 10
-61.2075
 20
48.8428
 30
0.0
  0
VERTEX
  5
23B
  8
EBENE_1
 62
   250
 10
-61.3779
 20
49.1176
 30
0.0
  0
VERTEX
  5
23C
  8
EBENE_1
 62
   250
 10
-61.4373
 20
49.4122
 30
0.0
  0
VERTEX
  5
23D
  8
EBENE_1
 62
   250
 10
-61.4373
 20
51.6394
 30
0.0
  0
VERTEX
  5
23E
  8
EBENE_1
 62
   250
 10
-55.612
 20
51.6394
 30
0.0
  0
VERTEX
  5
23F
  8
EBENE_1
 62
   250
 10
-55.612
 20
47.9457
 30
0.0
  0
SEQEND
  5
5E8
  8
EBENE_1
 62
   250
  0
POLYLINE
  5
90
  8
EBENE_1
 62
   250
 66
     1
 10
0.0
 20
0.0
 30
0.0
 70
     1
  0
VERTEX
  5
240
  8
EBENE_1
 62
   250
 10
-53.6572
 20
47.8381
 30
0.0
  0
VERTEX
  5
241
  8
EBENE_1
 62
   250
 10
-50.7446
 20
47.8381
 30
0.0
  0
VERTEX
  5
242
  8
EBENE_1
 62
   250
 10
-50.1595
 20
47.868
 30
0.0
  0
VERTEX
  5
243
  8
EBENE_1
 62
   250
 10
-49.6136
 20
47.9538
 30
0.0
  0
VERTEX
  5
244
  8
EBENE_1
 62
   250
 10
-49.119
 20
48.0894
 30
0.0
  0
VERTEX
  5
245
  8
EBENE_1
 62
   250
 10
-48.6875
 20
48.2689
 30
0.0
  0
VERTEX
  5
246
  8
EBENE_1
 62
   250
 10
-48.3311
 20
48.4861
 30
0.0
  0
VERTEX
  5
247
  8
EBENE_1
 62
   250
 10
-48.0617
 20
48.7351
 30
0.0
  0
VERTEX
  5
248
  8
EBENE_1
 62
   250
 10
-47.8913
 20
49.0099
 30
0.0
  0
VERTEX
  5
249
  8
EBENE_1
 62
   250
 10
-47.8319
 20
49.3045
 30
0.0
  0
VERTEX
  5
24A
  8
EBENE_1
 62
   250
 10
-47.8319
 20
51.5318
 30
0.0
  0
VERTEX
  5
24B
  8
EBENE_1
 62
   250
 10
-53.6572
 20
51.5318
 30
0.0
  0
VERTEX
  5
24C
  8
EBENE_1
 62
   250
 10
-53.6572
 20
47.8381
 30
0.0
  0
SEQEND
  5
5E9
  8
EBENE_1
 62
   250
  0
POLYLINE
  5
91
  8
EBENE_1
 66
     1
 10
0.0
 20
0.0
 30
0.0
 70
     1
  0
VERTEX
  5
24D
  8
EBENE_1
 10
3.9347
 20
13.8686
 30
0.0
  0
VERTEX
  5
24E
  8
EBENE_1
 10
3.9347
 20
13.8686
 30
0.0
  0
VERTEX
  5
24F
  8
EBENE_1
 10
30.6474
 20
-12.8441
 30
0.0
  0
VERTEX
  5
250
  8
EBENE_1
 10
30.6474
 20
-70.1422
 30
0.0
  0
VERTEX
  5
251
  8
EBENE_1
 10
33.6588
 20
-70.1422
 30
0.0
  0
VERTEX
  5
252
  8
EBENE_1
 10
33.6588
 20
-37.2745
 30
0.0
  0
VERTEX
  5
253
  8
EBENE_1
 10
64.6671
 20
-53.2567
 30
0.0
  0
VERTEX
  5
254
  8
EBENE_1
 10
64.6671
 20
-86.8048
 30
0.0
  0
VERTEX
  5
255
  8
EBENE_1
 10
68.9824
 20
-86.8048
 30
0.0
  0
VERTEX
  5
256
  8
EBENE_1
 10
70.4302
 20
-86.9515
 30
0.0
  0
VERTEX
  5
257
  8
EBENE_1
 10
71.7801
 20
-87.3721
 30
0.0
  0
VERTEX
  5
258
  8
EBENE_1
 10
73.0028
 20
-88.0372
 30
0.0
  0
VERTEX
  5
259
  8
EBENE_1
 10
74.069
 20
-88.9175
 30
0.0
  0
VERTEX
  5
25A
  8
EBENE_1
 10
74.9492
 20
-89.9836
 30
0.0
  0
VERTEX
  5
25B
  8
EBENE_1
 10
75.6143
 20
-91.2063
 30
0.0
  0
VERTEX
  5
25C
  8
EBENE_1
 10
76.0349
 20
-92.5563
 30
0.0
  0
VERTEX
  5
25D
  8
EBENE_1
 10
76.1816
 20
-94.0041
 30
0.0
  0
VERTEX
  5
25E
  8
EBENE_1
 10
76.1816
 20
-94.0041
 30
0.0
  0
VERTEX
  5
25F
  8
EBENE_1
 10
76.0349
 20
-95.4518
 30
0.0
  0
VERTEX
  5
260
  8
EBENE_1
 10
75.6143
 20
-96.8017
 30
0.0
  0
VERTEX
  5
261
  8
EBENE_1
 10
74.9492
 20
-98.0244
 30
0.0
  0
VERTEX
  5
262
  8
EBENE_1
 10
74.069
 20
-99.0905
 30
0.0
  0
VERTEX
  5
263
  8
EBENE_1
 10
73.0028
 20
-99.9708
 30
0.0
  0
VERTEX
  5
264
  8
EBENE_1
 10
71.7801
 20
-100.6359
 30
0.0
  0
VERTEX
  5
265
  8
EBENE_1
 10
70.4302
 20
-101.0565
 30
0.0
  0
VERTEX
  5
266
  8
EBENE_1
 10
68.9824
 20
-101.2032
 30
0.0
  0
VERTEX
  5
267
  8
EBENE_1
 10
54.5841
 20
-101.2032
 30
0.0
  0
VERTEX
  5
268
  8
EBENE_1
 10
54.5841
 20
-103.2811
 30
0.0
  0
VERTEX
  5
269
  8
EBENE_1
 10
40.1857
 20
-103.2811
 30
0.0
  0
VERTEX
  5
26A
  8
EBENE_1
 10
40.1857
 20
-101.2032
 30
0.0
  0
VERTEX
  5
26B
  8
EBENE_1
 10
11.1339
 20
-101.2032
 30
0.0
  0
VERTEX
  5
26C
  8
EBENE_1
 10
11.1339
 20
-103.2811
 30
0.0
  0
VERTEX
  5
26D
  8
EBENE_1
 10
-3.2645
 20
-103.2811
 30
0.0
  0
VERTEX
  5
26E
  8
EBENE_1
 10
-3.2645
 20
-101.2032
 30
0.0
  0
VERTEX
  5
26F
  8
EBENE_1
 10
-32.3161
 20
-101.2032
 30
0.0
  0
VERTEX
  5
270
  8
EBENE_1
 10
-32.3161
 20
-103.2811
 30
0.0
  0
VERTEX
  5
271
  8
EBENE_1
 10
-46.7146
 20
-103.2811
 30
0.0
  0
VERTEX
  5
272
  8
EBENE_1
 10
-46.7146
 20
-101.2032
 30
0.0
  0
VERTEX
  5
273
  8
EBENE_1
 10
-61.113
 20
-101.2032
 30
0.0
  0
VERTEX
  5
274
  8
EBENE_1
 10
-62.5608
 20
-101.0565
 30
0.0
  0
VERTEX
  5
275
  8
EBENE_1
 10
-63.9108
 20
-100.6359
 30
0.0
  0
VERTEX
  5
276
  8
EBENE_1
 10
-65.1335
 20
-99.9708
 30
0.0
  0
VERTEX
  5
277
  8
EBENE_1
 10
-66.1996
 20
-99.0905
 30
0.0
  0
VERTEX
  5
278
  8
EBENE_1
 10
-67.0799
 20
-98.0244
 30
0.0
  0
VERTEX
  5
279
  8
EBENE_1
 10
-67.745
 20
-96.8017
 30
0.0
  0
VERTEX
  5
27A
  8
EBENE_1
 10
-68.1656
 20
-95.4518
 30
0.0
  0
VERTEX
  5
27B
  8
EBENE_1
 10
-68.3123
 20
-94.0041
 30
0.0
  0
VERTEX
  5
27C
  8
EBENE_1
 10
-68.3123
 20
-94.0041
 30
0.0
  0
VERTEX
  5
27D
  8
EBENE_1
 10
-68.1656
 20
-92.5563
 30
0.0
  0
VERTEX
  5
27E
  8
EBENE_1
 10
-67.745
 20
-91.2063
 30
0.0
  0
VERTEX
  5
27F
  8
EBENE_1
 10
-67.0799
 20
-89.9836
 30
0.0
  0
VERTEX
  5
280
  8
EBENE_1
 10
-66.1996
 20
-88.9175
 30
0.0
  0
VERTEX
  5
281
  8
EBENE_1
 10
-65.1335
 20
-88.0372
 30
0.0
  0
VERTEX
  5
282
  8
EBENE_1
 10
-63.9108
 20
-87.3721
 30
0.0
  0
VERTEX
  5
283
  8
EBENE_1
 10
-62.5608
 20
-86.9515
 30
0.0
  0
VERTEX
  5
284
  8
EBENE_1
 10
-61.113
 20
-86.8048
 30
0.0
  0
VERTEX
  5
285
  8
EBENE_1
 10
-56.7978
 20
-86.8048
 30
0.0
  0
VERTEX
  5
286
  8
EBENE_1
 10
-56.7978
 20
-53.2567
 30
0.0
  0
VERTEX
  5
287
  8
EBENE_1
 10
-25.7895
 20
-37.2745
 30
0.0
  0
VERTEX
  5
288
  8
EBENE_1
 10
-25.7895
 20
-70.1422
 30
0.0
  0
VERTEX
  5
289
  8
EBENE_1
 10
-22.778
 20
-70.1422
 30
0.0
  0
VERTEX
  5
28A
  8
EBENE_1
 10
-22.778
 20
-12.8441
 30
0.0
  0
VERTEX
  5
28B
  8
EBENE_1
 10
3.9347
 20
13.8686
 30
0.0
  0
SEQEND
  5
5EA
  8
EBENE_1
  0
POLYLINE
  5
92
  8
EBENE_1
 62
   250
 66
     1
 10
0.0
 20
0.0
 30
0.0
 70
     1
  0
VERTEX
  5
28C
  8
EBENE_1
 62
   250
 10
50.5594
 20
-68.6802
 30
0.0
  0
VERTEX
  5
28D
  8
EBENE_1
 62
   250
 10
56.4083
 20
-68.6802
 30
0.0
  0
VERTEX
  5
28E
  8
EBENE_1
 62
   250
 10
56.4083
 20
-82.2548
 30
0.0
  0
VERTEX
  5
28F
  8
EBENE_1
 62
   250
 10
50.5594
 20
-82.2548
 30
0.0
  0
VERTEX
  5
290
  8
EBENE_1
 62
   250
 10
50.5594
 20
-68.6802
 30
0.0
  0
SEQEND
  5
5EB
  8
EBENE_1
 62
   250
  0
POLYLINE
  5
93
  8
EBENE_1
 62
   250
 66
     1
 10
0.0
 20
0.0
 30
0.0
 70
     1
  0
VERTEX
  5
291
  8
EBENE_1
 62
   250
 10
41.0702
 20
-68.6802
 30
0.0
  0
VERTEX
  5
292
  8
EBENE_1
 62
   250
 10
46.8964
 20
-68.6802
 30
0.0
  0
VERTEX
  5
293
  8
EBENE_1
 62
   250
 10
46.8964
 20
-82.3062
 30
0.0
  0
VERTEX
  5
294
  8
EBENE_1
 62
   250
 10
41.0702
 20
-82.3062
 30
0.0
  0
VERTEX
  5
295
  8
EBENE_1
 62
   250
 10
41.0702
 20
-68.6802
 30
0.0
  0
SEQEND
  5
5EC
  8
EBENE_1
 62
   250
  0
POLYLINE
  5
94
  8
EBENE_1
 62
   250
 66
     1
 10
0.0
 20
0.0
 30
0.0
 70
     1
  0
VERTEX
  5
296
  8
EBENE_1
 62
   250
 10
50.5592
 20
-58.9052
 30
0.0
  0
VERTEX
  5
297
  8
EBENE_1
 62
   250
 10
53.4718
 20
-58.9052
 30
0.0
  0
VERTEX
  5
298
  8
EBENE_1
 62
   250
 10
54.0569
 20
-58.9621
 30
0.0
  0
VERTEX
  5
299
  8
EBENE_1
 62
   250
 10
54.6028
 20
-59.1253
 30
0.0
  0
VERTEX
  5
29A
  8
EBENE_1
 62
   250
 10
55.0974
 20
-59.3833
 30
0.0
  0
VERTEX
  5
29B
  8
EBENE_1
 62
   250
 10
55.5289
 20
-59.7247
 30
0.0
  0
VERTEX
  5
29C
  8
EBENE_1
 62
   250
 10
55.8853
 20
-60.138
 30
0.0
  0
VERTEX
  5
29D
  8
EBENE_1
 62
   250
 10
56.1547
 20
-60.6118
 30
0.0
  0
VERTEX
  5
29E
  8
EBENE_1
 62
   250
 10
56.3251
 20
-61.1347
 30
0.0
  0
VERTEX
  5
29F
  8
EBENE_1
 62
   250
 10
56.3845
 20
-61.6951
 30
0.0
  0
VERTEX
  5
2A0
  8
EBENE_1
 62
   250
 10
56.3845
 20
-65.9324
 30
0.0
  0
VERTEX
  5
2A1
  8
EBENE_1
 62
   250
 10
50.5592
 20
-65.9324
 30
0.0
  0
VERTEX
  5
2A2
  8
EBENE_1
 62
   250
 10
50.5592
 20
-58.9052
 30
0.0
  0
SEQEND
  5
5ED
  8
EBENE_1
 62
   250
  0
POLYLINE
  5
95
  8
EBENE_1
 62
   250
 66
     1
 10
0.0
 20
0.0
 30
0.0
 70
     1
  0
VERTEX
  5
2A3
  8
EBENE_1
 62
   250
 10
46.8915
 20
-58.8753
 30
0.0
  0
VERTEX
  5
2A4
  8
EBENE_1
 62
   250
 10
43.9789
 20
-58.8753
 30
0.0
  0
VERTEX
  5
2A5
  8
EBENE_1
 62
   250
 10
43.3938
 20
-58.9322
 30
0.0
  0
VERTEX
  5
2A6
  8
EBENE_1
 62
   250
 10
42.8479
 20
-59.0954
 30
0.0
  0
VERTEX
  5
2A7
  8
EBENE_1
 62
   250
 10
42.3533
 20
-59.3534
 30
0.0
  0
VERTEX
  5
2A8
  8
EBENE_1
 62
   250
 10
41.9218
 20
-59.6948
 30
0.0
  0
VERTEX
  5
2A9
  8
EBENE_1
 62
   250
 10
41.5654
 20
-60.1081
 30
0.0
  0
VERTEX
  5
2AA
  8
EBENE_1
 62
   250
 10
41.296
 20
-60.5819
 30
0.0
  0
VERTEX
  5
2AB
  8
EBENE_1
 62
   250
 10
41.1256
 20
-61.1048
 30
0.0
  0
VERTEX
  5
2AC
  8
EBENE_1
 62
   250
 10
41.0662
 20
-61.6652
 30
0.0
  0
VERTEX
  5
2AD
  8
EBENE_1
 62
   250
 10
41.0662
 20
-65.9025
 30
0.0
  0
VERTEX
  5
2AE
  8
EBENE_1
 62
   250
 10
46.8915
 20
-65.9025
 30
0.0
  0
VERTEX
  5
2AF
  8
EBENE_1
 62
   250
 10
46.8915
 20
-58.8753
 30
0.0
  0
SEQEND
  5
5EE
  8
EBENE_1
 62
   250
  0
POLYLINE
  5
96
  8
EBENE_1
 62
   250
 66
     1
 10
0.0
 20
0.0
 30
0.0
 70
     1
  0
VERTEX
  5
2B0
  8
EBENE_1
 62
   250
 10
-32.7774
 20
-62.2302
 30
0.0
  0
VERTEX
  5
2B1
  8
EBENE_1
 62
   250
 10
-26.9285
 20
-62.2302
 30
0.0
  0
VERTEX
  5
2B2
  8
EBENE_1
 62
   250
 10
-26.9285
 20
-75.8048
 30
0.0
  0
VERTEX
  5
2B3
  8
EBENE_1
 62
   250
 10
-32.7774
 20
-75.8048
 30
0.0
  0
VERTEX
  5
2B4
  8
EBENE_1
 62
   250
 10
-32.7774
 20
-62.2302
 30
0.0
  0
SEQEND
  5
5EF
  8
EBENE_1
 62
   250
  0
POLYLINE
  5
97
  8
EBENE_1
 62
   250
 66
     1
 10
0.0
 20
0.0
 30
0.0
 70
     1
  0
VERTEX
  5
2B5
  8
EBENE_1
 62
   250
 10
-42.2666
 20
-62.2302
 30
0.0
  0
VERTEX
  5
2B6
  8
EBENE_1
 62
   250
 10
-36.4404
 20
-62.2302
 30
0.0
  0
VERTEX
  5
2B7
  8
EBENE_1
 62
   250
 10
-36.4404
 20
-75.9885
 30
0.0
  0
VERTEX
  5
2B8
  8
EBENE_1
 62
   250
 10
-42.2666
 20
-75.9885
 30
0.0
  0
VERTEX
  5
2B9
  8
EBENE_1
 62
   250
 10
-42.2666
 20
-62.2302
 30
0.0
  0
SEQEND
  5
5F0
  8
EBENE_1
 62
   250
  0
POLYLINE
  5
98
  8
EBENE_1
 62
   250
 66
     1
 10
0.0
 20
0.0
 30
0.0
 70
     1
  0
VERTEX
  5
2BA
  8
EBENE_1
 62
   250
 10
-32.7776
 20
-52.4552
 30
0.0
  0
VERTEX
  5
2BB
  8
EBENE_1
 62
   250
 10
-29.865
 20
-52.4552
 30
0.0
  0
VERTEX
  5
2BC
  8
EBENE_1
 62
   250
 10
-29.2799
 20
-52.5121
 30
0.0
  0
VERTEX
  5
2BD
  8
EBENE_1
 62
   250
 10
-28.734
 20
-52.6753
 30
0.0
  0
VERTEX
  5
2BE
  8
EBENE_1
 62
   250
 10
-28.2394
 20
-52.9333
 30
0.0
  0
VERTEX
  5
2BF
  8
EBENE_1
 62
   250
 10
-27.8079
 20
-53.2747
 30
0.0
  0
VERTEX
  5
2C0
  8
EBENE_1
 62
   250
 10
-27.4515
 20
-53.688
 30
0.0
  0
VERTEX
  5
2C1
  8
EBENE_1
 62
   250
 10
-27.1821
 20
-54.1618
 30
0.0
  0
VERTEX
  5
2C2
  8
EBENE_1
 62
   250
 10
-27.0117
 20
-54.6847
 30
0.0
  0
VERTEX
  5
2C3
  8
EBENE_1
 62
   250
 10
-26.9523
 20
-55.2451
 30
0.0
  0
VERTEX
  5
2C4
  8
EBENE_1
 62
   250
 10
-26.9523
 20
-59.4824
 30
0.0
  0
VERTEX
  5
2C5
  8
EBENE_1
 62
   250
 10
-32.7776
 20
-59.4824
 30
0.0
  0
VERTEX
  5
2C6
  8
EBENE_1
 62
   250
 10
-32.7776
 20
-52.4552
 30
0.0
  0
SEQEND
  5
5F1
  8
EBENE_1
 62
   250
  0
POLYLINE
  5
99
  8
EBENE_1
 62
   250
 66
     1
 10
0.0
 20
0.0
 30
0.0
 70
     1
  0
VERTEX
  5
2C7
  8
EBENE_1
 62
   250
 10
-36.4453
 20
-52.4253
 30
0.0
  0
VERTEX
  5
2C8
  8
EBENE_1
 62
   250
 10
-39.3579
 20
-52.4253
 30
0.0
  0
VERTEX
  5
2C9
  8
EBENE_1
 62
   250
 10
-39.943
 20
-52.4822
 30
0.0
  0
VERTEX
  5
2CA
  8
EBENE_1
 62
   250
 10
-40.4889
 20
-52.6454
 30
0.0
  0
VERTEX
  5
2CB
  8
EBENE_1
 62
   250
 10
-40.9835
 20
-52.9034
 30
0.0
  0
VERTEX
  5
2CC
  8
EBENE_1
 62
   250
 10
-41.415
 20
-53.2448
 30
0.0
  0
VERTEX
  5
2CD
  8
EBENE_1
 62
   250
 10
-41.7714
 20
-53.6581
 30
0.0
  0
VERTEX
  5
2CE
  8
EBENE_1
 62
   250
 10
-42.0408
 20
-54.1319
 30
0.0
  0
VERTEX
  5
2CF
  8
EBENE_1
 62
   250
 10
-42.2112
 20
-54.6548
 30
0.0
  0
VERTEX
  5
2D0
  8
EBENE_1
 62
   250
 10
-42.2706
 20
-55.2152
 30
0.0
  0
VERTEX
  5
2D1
  8
EBENE_1
 62
   250
 10
-42.2706
 20
-59.4525
 30
0.0
  0
VERTEX
  5
2D2
  8
EBENE_1
 62
   250
 10
-36.4453
 20
-59.4525
 30
0.0
  0
VERTEX
  5
2D3
  8
EBENE_1
 62
   250
 10
-36.4453
 20
-52.4253
 30
0.0
  0
SEQEND
  5
5F2
  8
EBENE_1
 62
   250
  0
POLYLINE
  5
9A
  8
EBENE_1
 62
   250
 66
     1
 10
0.0
 20
0.0
 30
0.0
 70
     1
  0
VERTEX
  5
2D4
  8
EBENE_1
 62
   250
 10
73.6919
 20
-43.8735
 30
0.0
  0
VERTEX
  5
2D5
  8
EBENE_1
 62
   250
 10
73.6919
 20
-34.5446
 30
0.0
  0
VERTEX
  5
2D6
  8
EBENE_1
 62
   250
 10
73.7564
 20
-33.9455
 30
0.0
  0
VERTEX
  5
2D7
  8
EBENE_1
 62
   250
 10
73.9412
 20
-33.3867
 30
0.0
  0
VERTEX
  5
2D8
  8
EBENE_1
 62
   250
 10
74.2333
 20
-32.8803
 30
0.0
  0
VERTEX
  5
2D9
  8
EBENE_1
 62
   250
 10
74.6199
 20
-32.4385
 30
0.0
  0
VERTEX
  5
2DA
  8
EBENE_1
 62
   250
 10
75.0879
 20
-32.0736
 30
0.0
  0
VERTEX
  5
2DB
  8
EBENE_1
 62
   250
 10
75.6244
 20
-31.7978
 30
0.0
  0
VERTEX
  5
2DC
  8
EBENE_1
 62
   250
 10
76.2165
 20
-31.6234
 30
0.0
  0
VERTEX
  5
2DD
  8
EBENE_1
 62
   250
 10
76.8511
 20
-31.5625
 30
0.0
  0
VERTEX
  5
2DE
  8
EBENE_1
 62
   250
 10
97.1107
 20
-31.5625
 30
0.0
  0
VERTEX
  5
2DF
  8
EBENE_1
 62
   250
 10
97.1107
 20
-46.8556
 30
0.0
  0
VERTEX
  5
2E0
  8
EBENE_1
 62
   250
 10
76.8511
 20
-46.8556
 30
0.0
  0
VERTEX
  5
2E1
  8
EBENE_1
 62
   250
 10
76.2165
 20
-46.7947
 30
0.0
  0
VERTEX
  5
2E2
  8
EBENE_1
 62
   250
 10
75.6244
 20
-46.6203
 30
0.0
  0
VERTEX
  5
2E3
  8
EBENE_1
 62
   250
 10
75.0879
 20
-46.3445
 30
0.0
  0
VERTEX
  5
2E4
  8
EBENE_1
 62
   250
 10
74.6199
 20
-45.9796
 30
0.0
  0
VERTEX
  5
2E5
  8
EBENE_1
 62
   250
 10
74.2333
 20
-45.5378
 30
0.0
  0
VERTEX
  5
2E6
  8
EBENE_1
 62
   250
 10
73.9412
 20
-45.0314
 30
0.0
  0
VERTEX
  5
2E7
  8
EBENE_1
 62
   250
 10
73.7564
 20
-44.4726
 30
0.0
  0
VERTEX
  5
2E8
  8
EBENE_1
 62
   250
 10
73.6919
 20
-43.8735
 30
0.0
  0
SEQEND
  5
5F3
  8
EBENE_1
 62
   250
  0
POLYLINE
  5
9B
  8
EBENE_1
 62
   250
 66
     1
 10
0.0
 20
0.0
 30
0.0
 70
     1
  0
VERTEX
  5
2E9
  8
EBENE_1
 62
   250
 10
70.0178
 20
-44.9446
 30
0.0
  0
VERTEX
  5
2EA
  8
EBENE_1
 62
   250
 10
70.0178
 20
-33.4736
 30
0.0
  0
VERTEX
  5
2EB
  8
EBENE_1
 62
   250
 10
70.1264
 20
-32.3214
 30
0.0
  0
VERTEX
  5
2EC
  8
EBENE_1
 62
   250
 10
70.4377
 20
-31.2466
 30
0.0
  0
VERTEX
  5
2ED
  8
EBENE_1
 62
   250
 10
70.9298
 20
-30.2725
 30
0.0
  0
VERTEX
  5
2EE
  8
EBENE_1
 62
   250
 10
71.581
 20
-29.4228
 30
0.0
  0
VERTEX
  5
2EF
  8
EBENE_1
 62
   250
 10
72.3693
 20
-28.721
 30
0.0
  0
VERTEX
  5
2F0
  8
EBENE_1
 62
   250
 10
73.273
 20
-28.1906
 30
0.0
  0
VERTEX
  5
2F1
  8
EBENE_1
 62
   250
 10
74.2702
 20
-27.8551
 30
0.0
  0
VERTEX
  5
2F2
  8
EBENE_1
 62
   250
 10
75.3392
 20
-27.738
 30
0.0
  0
VERTEX
  5
2F3
  8
EBENE_1
 62
   250
 10
100.7847
 20
-27.738
 30
0.0
  0
VERTEX
  5
2F4
  8
EBENE_1
 62
   250
 10
100.7847
 20
-50.6803
 30
0.0
  0
VERTEX
  5
2F5
  8
EBENE_1
 62
   250
 10
75.3392
 20
-50.6803
 30
0.0
  0
VERTEX
  5
2F6
  8
EBENE_1
 62
   250
 10
74.2702
 20
-50.5632
 30
0.0
  0
VERTEX
  5
2F7
  8
EBENE_1
 62
   250
 10
73.273
 20
-50.2277
 30
0.0
  0
VERTEX
  5
2F8
  8
EBENE_1
 62
   250
 10
72.3693
 20
-49.6973
 30
0.0
  0
VERTEX
  5
2F9
  8
EBENE_1
 62
   250
 10
71.581
 20
-48.9955
 30
0.0
  0
VERTEX
  5
2FA
  8
EBENE_1
 62
   250
 10
70.9298
 20
-48.1458
 30
0.0
  0
VERTEX
  5
2FB
  8
EBENE_1
 62
   250
 10
70.4377
 20
-47.1717
 30
0.0
  0
VERTEX
  5
2FC
  8
EBENE_1
 62
   250
 10
70.1264
 20
-46.0968
 30
0.0
  0
VERTEX
  5
2FD
  8
EBENE_1
 62
   250
 10
70.0178
 20
-44.9446
 30
0.0
  0
SEQEND
  5
5F4
  8
EBENE_1
 62
   250
  0
POLYLINE
  5
9C
  8
EBENE_1
 62
   250
 66
     1
 10
0.0
 20
0.0
 30
0.0
 70
     1
  0
VERTEX
  5
2FE
  8
EBENE_1
 62
   250
 10
24.7284
 20
58.083
 30
0.0
  0
VERTEX
  5
2FF
  8
EBENE_1
 62
   250
 10
34.0573
 20
58.083
 30
0.0
  0
VERTEX
  5
300
  8
EBENE_1
 62
   250
 10
34.6564
 20
58.0185
 30
0.0
  0
VERTEX
  5
301
  8
EBENE_1
 62
   250
 10
35.2152
 20
57.8337
 30
0.0
  0
VERTEX
  5
302
  8
EBENE_1
 62
   250
 10
35.7216
 20
57.5416
 30
0.0
  0
VERTEX
  5
303
  8
EBENE_1
 62
   250
 10
36.1634
 20
57.155
 30
0.0
  0
VERTEX
  5
304
  8
EBENE_1
 62
   250
 10
36.5283
 20
56.687
 30
0.0
  0
VERTEX
  5
305
  8
EBENE_1
 62
   250
 10
36.8041
 20
56.1505
 30
0.0
  0
VERTEX
  5
306
  8
EBENE_1
 62
   250
 10
36.9785
 20
55.5584
 30
0.0
  0
VERTEX
  5
307
  8
EBENE_1
 62
   250
 10
37.0394
 20
54.9238
 30
0.0
  0
VERTEX
  5
308
  8
EBENE_1
 62
   250
 10
37.0394
 20
34.6642
 30
0.0
  0
VERTEX
  5
309
  8
EBENE_1
 62
   250
 10
21.7463
 20
34.6642
 30
0.0
  0
VERTEX
  5
30A
  8
EBENE_1
 62
   250
 10
21.7463
 20
54.9238
 30
0.0
  0
VERTEX
  5
30B
  8
EBENE_1
 62
   250
 10
21.8072
 20
55.5584
 30
0.0
  0
VERTEX
  5
30C
  8
EBENE_1
 62
   250
 10
21.9816
 20
56.1505
 30
0.0
  0
VERTEX
  5
30D
  8
EBENE_1
 62
   250
 10
22.2574
 20
56.687
 30
0.0
  0
VERTEX
  5
30E
  8
EBENE_1
 62
   250
 10
22.6223
 20
57.155
 30
0.0
  0
VERTEX
  5
30F
  8
EBENE_1
 62
   250
 10
23.0641
 20
57.5416
 30
0.0
  0
VERTEX
  5
310
  8
EBENE_1
 62
   250
 10
23.5705
 20
57.8337
 30
0.0
  0
VERTEX
  5
311
  8
EBENE_1
 62
   250
 10
24.1293
 20
58.0185
 30
0.0
  0
VERTEX
  5
312
  8
EBENE_1
 62
   250
 10
24.7284
 20
58.083
 30
0.0
  0
SEQEND
  5
5F5
  8
EBENE_1
 62
   250
  0
POLYLINE
  5
9D
  8
EBENE_1
 62
   250
 66
     1
 10
0.0
 20
0.0
 30
0.0
 70
     1
  0
VERTEX
  5
313
  8
EBENE_1
 62
   250
 10
23.6573
 20
61.7571
 30
0.0
  0
VERTEX
  5
314
  8
EBENE_1
 62
   250
 10
35.1283
 20
61.7571
 30
0.0
  0
VERTEX
  5
315
  8
EBENE_1
 62
   250
 10
36.2805
 20
61.6485
 30
0.0
  0
VERTEX
  5
316
  8
EBENE_1
 62
   250
 10
37.3553
 20
61.3372
 30
0.0
  0
VERTEX
  5
317
  8
EBENE_1
 62
   250
 10
38.3294
 20
60.8451
 30
0.0
  0
VERTEX
  5
318
  8
EBENE_1
 62
   250
 10
39.1791
 20
60.194
 30
0.0
  0
VERTEX
  5
319
  8
EBENE_1
 62
   250
 10
39.8809
 20
59.4056
 30
0.0
  0
VERTEX
  5
31A
  8
EBENE_1
 62
   250
 10
40.4113
 20
58.5019
 30
0.0
  0
VERTEX
  5
31B
  8
EBENE_1
 62
   250
 10
40.7468
 20
57.5047
 30
0.0
  0
VERTEX
  5
31C
  8
EBENE_1
 62
   250
 10
40.8639
 20
56.4357
 30
0.0
  0
VERTEX
  5
31D
  8
EBENE_1
 62
   250
 10
40.8639
 20
30.9902
 30
0.0
  0
VERTEX
  5
31E
  8
EBENE_1
 62
   250
 10
17.9216
 20
30.9902
 30
0.0
  0
VERTEX
  5
31F
  8
EBENE_1
 62
   250
 10
17.9216
 20
56.4357
 30
0.0
  0
VERTEX
  5
320
  8
EBENE_1
 62
   250
 10
18.0387
 20
57.5047
 30
0.0
  0
VERTEX
  5
321
  8
EBENE_1
 62
   250
 10
18.3742
 20
58.5019
 30
0.0
  0
VERTEX
  5
322
  8
EBENE_1
 62
   250
 10
18.9046
 20
59.4056
 30
0.0
  0
VERTEX
  5
323
  8
EBENE_1
 62
   250
 10
19.6064
 20
60.194
 30
0.0
  0
VERTEX
  5
324
  8
EBENE_1
 62
   250
 10
20.4561
 20
60.8451
 30
0.0
  0
VERTEX
  5
325
  8
EBENE_1
 62
   250
 10
21.4302
 20
61.3372
 30
0.0
  0
VERTEX
  5
326
  8
EBENE_1
 62
   250
 10
22.5051
 20
61.6485
 30
0.0
  0
VERTEX
  5
327
  8
EBENE_1
 62
   250
 10
23.6573
 20
61.7571
 30
0.0
  0
SEQEND
  5
5F6
  8
EBENE_1
 62
   250
  0
POLYLINE
  5
9E
  8
EBENE_1
 62
   250
 66
     1
 10
0.0
 20
0.0
 30
0.0
 70
     1
  0
VERTEX
  5
328
  8
EBENE_1
 62
   250
 10
292.0428
 20
9.8246
 30
0.0
  0
VERTEX
  5
329
  8
EBENE_1
 62
   250
 10
301.3717
 20
9.8246
 30
0.0
  0
VERTEX
  5
32A
  8
EBENE_1
 62
   250
 10
301.9708
 20
9.7601
 30
0.0
  0
VERTEX
  5
32B
  8
EBENE_1
 62
   250
 10
302.5296
 20
9.5753
 30
0.0
  0
VERTEX
  5
32C
  8
EBENE_1
 62
   250
 10
303.036
 20
9.2832
 30
0.0
  0
VERTEX
  5
32D
  8
EBENE_1
 62
   250
 10
303.4778
 20
8.8966
 30
0.0
  0
VERTEX
  5
32E
  8
EBENE_1
 62
   250
 10
303.8427
 20
8.4286
 30
0.0
  0
VERTEX
  5
32F
  8
EBENE_1
 62
   250
 10
304.1185
 20
7.8921
 30
0.0
  0
VERTEX
  5
330
  8
EBENE_1
 62
   250
 10
304.2929
 20
7.3
 30
0.0
  0
VERTEX
  5
331
  8
EBENE_1
 62
   250
 10
304.3538
 20
6.6654
 30
0.0
  0
VERTEX
  5
332
  8
EBENE_1
 62
   250
 10
304.3538
 20
-13.5942
 30
0.0
  0
VERTEX
  5
333
  8
EBENE_1
 62
   250
 10
289.0607
 20
-13.5942
 30
0.0
  0
VERTEX
  5
334
  8
EBENE_1
 62
   250
 10
289.0607
 20
6.6654
 30
0.0
  0
VERTEX
  5
335
  8
EBENE_1
 62
   250
 10
289.1216
 20
7.3
 30
0.0
  0
VERTEX
  5
336
  8
EBENE_1
 62
   250
 10
289.296
 20
7.8921
 30
0.0
  0
VERTEX
  5
337
  8
EBENE_1
 62
   250
 10
289.5718
 20
8.4286
 30
0.0
  0
VERTEX
  5
338
  8
EBENE_1
 62
   250
 10
289.9367
 20
8.8966
 30
0.0
  0
VERTEX
  5
339
  8
EBENE_1
 62
   250
 10
290.3785
 20
9.2832
 30
0.0
  0
VERTEX
  5
33A
  8
EBENE_1
 62
   250
 10
290.8849
 20
9.5753
 30
0.0
  0
VERTEX
  5
33B
  8
EBENE_1
 62
   250
 10
291.4437
 20
9.7601
 30
0.0
  0
VERTEX
  5
33C
  8
EBENE_1
 62
   250
 10
292.0428
 20
9.8246
 30
0.0
  0
SEQEND
  5
5F7
  8
EBENE_1
 62
   250
  0
POLYLINE
  5
9F
  8
EBENE_1
 62
   250
 66
     1
 10
0.0
 20
0.0
 30
0.0
 70
     1
  0
VERTEX
  5
33D
  8
EBENE_1
 62
   250
 10
290.9717
 20
13.4987
 30
0.0
  0
VERTEX
  5
33E
  8
EBENE_1
 62
   250
 10
302.4427
 20
13.4987
 30
0.0
  0
VERTEX
  5
33F
  8
EBENE_1
 62
   250
 10
303.5949
 20
13.3901
 30
0.0
  0
VERTEX
  5
340
  8
EBENE_1
 62
   250
 10
304.6697
 20
13.0788
 30
0.0
  0
VERTEX
  5
341
  8
EBENE_1
 62
   250
 10
305.6438
 20
12.5867
 30
0.0
  0
VERTEX
  5
342
  8
EBENE_1
 62
   250
 10
306.4935
 20
11.9356
 30
0.0
  0
VERTEX
  5
343
  8
EBENE_1
 62
   250
 10
307.1953
 20
11.1472
 30
0.0
  0
VERTEX
  5
344
  8
EBENE_1
 62
   250
 10
307.7257
 20
10.2435
 30
0.0
  0
VERTEX
  5
345
  8
EBENE_1
 62
   250
 10
308.0612
 20
9.2463
 30
0.0
  0
VERTEX
  5
346
  8
EBENE_1
 62
   250
 10
308.1783
 20
8.1773
 30
0.0
  0
VERTEX
  5
347
  8
EBENE_1
 62
   250
 10
308.1783
 20
-17.2682
 30
0.0
  0
VERTEX
  5
348
  8
EBENE_1
 62
   250
 10
285.236
 20
-17.2682
 30
0.0
  0
VERTEX
  5
349
  8
EBENE_1
 62
   250
 10
285.236
 20
8.1773
 30
0.0
  0
VERTEX
  5
34A
  8
EBENE_1
 62
   250
 10
285.3531
 20
9.2463
 30
0.0
  0
VERTEX
  5
34B
  8
EBENE_1
 62
   250
 10
285.6886
 20
10.2435
 30
0.0
  0
VERTEX
  5
34C
  8
EBENE_1
 62
   250
 10
286.219
 20
11.1472
 30
0.0
  0
VERTEX
  5
34D
  8
EBENE_1
 62
   250
 10
286.9208
 20
11.9356
 30
0.0
  0
VERTEX
  5
34E
  8
EBENE_1
 62
   250
 10
287.7705
 20
12.5867
 30
0.0
  0
VERTEX
  5
34F
  8
EBENE_1
 62
   250
 10
288.7446
 20
13.0788
 30
0.0
  0
VERTEX
  5
350
  8
EBENE_1
 62
   250
 10
289.8195
 20
13.3901
 30
0.0
  0
VERTEX
  5
351
  8
EBENE_1
 62
   250
 10
290.9717
 20
13.4987
 30
0.0
  0
SEQEND
  5
5F8
  8
EBENE_1
 62
   250
  0
POLYLINE
  5
A0
  8
EBENE_1
 62
   250
 66
     1
 10
0.0
 20
0.0
 30
0.0
 70
     1
  0
VERTEX
  5
352
  8
EBENE_1
 62
   250
 10
129.1231
 20
-182.8837
 30
0.0
  0
VERTEX
  5
353
  8
EBENE_1
 62
   250
 10
150.219
 20
-182.8837
 30
0.0
  0
VERTEX
  5
354
  8
EBENE_1
 62
   250
 10
151.5737
 20
-182.9636
 30
0.0
  0
VERTEX
  5
355
  8
EBENE_1
 62
   250
 10
152.8375
 20
-183.1925
 30
0.0
  0
VERTEX
  5
356
  8
EBENE_1
 62
   250
 10
153.9827
 20
-183.5544
 30
0.0
  0
VERTEX
  5
357
  8
EBENE_1
 62
   250
 10
154.9817
 20
-184.0333
 30
0.0
  0
VERTEX
  5
358
  8
EBENE_1
 62
   250
 10
155.8069
 20
-184.6131
 30
0.0
  0
VERTEX
  5
359
  8
EBENE_1
 62
   250
 10
156.4305
 20
-185.2777
 30
0.0
  0
VERTEX
  5
35A
  8
EBENE_1
 62
   250
 10
156.825
 20
-186.0111
 30
0.0
  0
VERTEX
  5
35B
  8
EBENE_1
 62
   250
 10
156.9626
 20
-186.7973
 30
0.0
  0
VERTEX
  5
35C
  8
EBENE_1
 62
   250
 10
156.9626
 20
-211.8941
 30
0.0
  0
VERTEX
  5
35D
  8
EBENE_1
 62
   250
 10
122.3796
 20
-211.8941
 30
0.0
  0
VERTEX
  5
35E
  8
EBENE_1
 62
   250
 10
122.3796
 20
-186.7973
 30
0.0
  0
VERTEX
  5
35F
  8
EBENE_1
 62
   250
 10
122.5172
 20
-186.0111
 30
0.0
  0
VERTEX
  5
360
  8
EBENE_1
 62
   250
 10
122.9117
 20
-185.2777
 30
0.0
  0
VERTEX
  5
361
  8
EBENE_1
 62
   250
 10
123.5353
 20
-184.6131
 30
0.0
  0
VERTEX
  5
362
  8
EBENE_1
 62
   250
 10
124.3604
 20
-184.0333
 30
0.0
  0
VERTEX
  5
363
  8
EBENE_1
 62
   250
 10
125.3594
 20
-183.5544
 30
0.0
  0
VERTEX
  5
364
  8
EBENE_1
 62
   250
 10
126.5047
 20
-183.1925
 30
0.0
  0
VERTEX
  5
365
  8
EBENE_1
 62
   250
 10
127.7684
 20
-182.9636
 30
0.0
  0
VERTEX
  5
366
  8
EBENE_1
 62
   250
 10
129.1231
 20
-182.8837
 30
0.0
  0
SEQEND
  5
5F9
  8
EBENE_1
 62
   250
  0
POLYLINE
  5
A1
  8
EBENE_1
 62
   250
 66
     1
 10
0.0
 20
0.0
 30
0.0
 70
     1
  0
VERTEX
  5
367
  8
EBENE_1
 62
   250
 10
127.862
 20
-178.3324
 30
0.0
  0
VERTEX
  5
368
  8
EBENE_1
 62
   250
 10
151.4799
 20
-178.3324
 30
0.0
  0
VERTEX
  5
369
  8
EBENE_1
 62
   250
 10
153.8522
 20
-178.4669
 30
0.0
  0
VERTEX
  5
36A
  8
EBENE_1
 62
   250
 10
156.0653
 20
-178.8525
 30
0.0
  0
VERTEX
  5
36B
  8
EBENE_1
 62
   250
 10
158.0708
 20
-179.4622
 30
0.0
  0
VERTEX
  5
36C
  8
EBENE_1
 62
   250
 10
159.8203
 20
-180.2688
 30
0.0
  0
VERTEX
  5
36D
  8
EBENE_1
 62
   250
 10
161.2653
 20
-181.2453
 30
0.0
  0
VERTEX
  5
36E
  8
EBENE_1
 62
   250
 10
162.3574
 20
-182.3648
 30
0.0
  0
VERTEX
  5
36F
  8
EBENE_1
 62
   250
 10
163.0482
 20
-183.6002
 30
0.0
  0
VERTEX
  5
370
  8
EBENE_1
 62
   250
 10
163.2892
 20
-184.9244
 30
0.0
  0
VERTEX
  5
371
  8
EBENE_1
 62
   250
 10
163.2892
 20
-216.4454
 30
0.0
  0
VERTEX
  5
372
  8
EBENE_1
 62
   250
 10
116.0527
 20
-216.4454
 30
0.0
  0
VERTEX
  5
373
  8
EBENE_1
 62
   250
 10
116.0527
 20
-184.9244
 30
0.0
  0
VERTEX
  5
374
  8
EBENE_1
 62
   250
 10
116.2937
 20
-183.6002
 30
0.0
  0
VERTEX
  5
375
  8
EBENE_1
 62
   250
 10
116.9845
 20
-182.3648
 30
0.0
  0
VERTEX
  5
376
  8
EBENE_1
 62
   250
 10
118.0766
 20
-181.2453
 30
0.0
  0
VERTEX
  5
377
  8
EBENE_1
 62
   250
 10
119.5217
 20
-180.2688
 30
0.0
  0
VERTEX
  5
378
  8
EBENE_1
 62
   250
 10
121.2711
 20
-179.4622
 30
0.0
  0
VERTEX
  5
379
  8
EBENE_1
 62
   250
 10
123.2766
 20
-178.8525
 30
0.0
  0
VERTEX
  5
37A
  8
EBENE_1
 62
   250
 10
125.4897
 20
-178.4669
 30
0.0
  0
VERTEX
  5
37B
  8
EBENE_1
 62
   250
 10
127.862
 20
-178.3324
 30
0.0
  0
SEQEND
  5
5FA
  8
EBENE_1
 62
   250
  0
POLYLINE
  5
A2
  8
EBENE_1
 62
   250
 66
     1
 10
0.0
 20
0.0
 30
0.0
 70
     1
  0
VERTEX
  5
37C
  8
EBENE_1
 62
   250
 10
244.1851
 20
-20.7465
 30
0.0
  0
VERTEX
  5
37D
  8
EBENE_1
 62
   250
 10
265.281
 20
-20.7465
 30
0.0
  0
VERTEX
  5
37E
  8
EBENE_1
 62
   250
 10
266.6357
 20
-20.6666
 30
0.0
  0
VERTEX
  5
37F
  8
EBENE_1
 62
   250
 10
267.8995
 20
-20.4377
 30
0.0
  0
VERTEX
  5
380
  8
EBENE_1
 62
   250
 10
269.0447
 20
-20.0758
 30
0.0
  0
VERTEX
  5
381
  8
EBENE_1
 62
   250
 10
270.0437
 20
-19.5969
 30
0.0
  0
VERTEX
  5
382
  8
EBENE_1
 62
   250
 10
270.8689
 20
-19.0171
 30
0.0
  0
VERTEX
  5
383
  8
EBENE_1
 62
   250
 10
271.4925
 20
-18.3525
 30
0.0
  0
VERTEX
  5
384
  8
EBENE_1
 62
   250
 10
271.887
 20
-17.6191
 30
0.0
  0
VERTEX
  5
385
  8
EBENE_1
 62
   250
 10
272.0246
 20
-16.8329
 30
0.0
  0
VERTEX
  5
386
  8
EBENE_1
 62
   250
 10
272.0246
 20
8.2639
 30
0.0
  0
VERTEX
  5
387
  8
EBENE_1
 62
   250
 10
237.4416
 20
8.2639
 30
0.0
  0
VERTEX
  5
388
  8
EBENE_1
 62
   250
 10
237.4416
 20
-16.8329
 30
0.0
  0
VERTEX
  5
389
  8
EBENE_1
 62
   250
 10
237.5792
 20
-17.6191
 30
0.0
  0
VERTEX
  5
38A
  8
EBENE_1
 62
   250
 10
237.9737
 20
-18.3525
 30
0.0
  0
VERTEX
  5
38B
  8
EBENE_1
 62
   250
 10
238.5973
 20
-19.0171
 30
0.0
  0
VERTEX
  5
38C
  8
EBENE_1
 62
   250
 10
239.4224
 20
-19.5969
 30
0.0
  0
VERTEX
  5
38D
  8
EBENE_1
 62
   250
 10
240.4214
 20
-20.0758
 30
0.0
  0
VERTEX
  5
38E
  8
EBENE_1
 62
   250
 10
241.5667
 20
-20.4377
 30
0.0
  0
VERTEX
  5
38F
  8
EBENE_1
 62
   250
 10
242.8304
 20
-20.6666
 30
0.0
  0
VERTEX
  5
390
  8
EBENE_1
 62
   250
 10
244.1851
 20
-20.7465
 30
0.0
  0
SEQEND
  5
5FB
  8
EBENE_1
 62
   250
  0
POLYLINE
  5
A3
  8
EBENE_1
 62
   250
 66
     1
 10
0.0
 20
0.0
 30
0.0
 70
     1
  0
VERTEX
  5
391
  8
EBENE_1
 62
   250
 10
242.924
 20
-25.2978
 30
0.0
  0
VERTEX
  5
392
  8
EBENE_1
 62
   250
 10
266.5419
 20
-25.2978
 30
0.0
  0
VERTEX
  5
393
  8
EBENE_1
 62
   250
 10
268.9142
 20
-25.1633
 30
0.0
  0
VERTEX
  5
394
  8
EBENE_1
 62
   250
 10
271.1273
 20
-24.7777
 30
0.0
  0
VERTEX
  5
395
  8
EBENE_1
 62
   250
 10
273.1328
 20
-24.168
 30
0.0
  0
VERTEX
  5
396
  8
EBENE_1
 62
   250
 10
274.8823
 20
-23.3614
 30
0.0
  0
VERTEX
  5
397
  8
EBENE_1
 62
   250
 10
276.3273
 20
-22.3849
 30
0.0
  0
VERTEX
  5
398
  8
EBENE_1
 62
   250
 10
277.4194
 20
-21.2654
 30
0.0
  0
VERTEX
  5
399
  8
EBENE_1
 62
   250
 10
278.1102
 20
-20.03
 30
0.0
  0
VERTEX
  5
39A
  8
EBENE_1
 62
   250
 10
278.3512
 20
-18.7058
 30
0.0
  0
VERTEX
  5
39B
  8
EBENE_1
 62
   250
 10
278.3512
 20
12.8152
 30
0.0
  0
VERTEX
  5
39C
  8
EBENE_1
 62
   250
 10
231.1147
 20
12.8152
 30
0.0
  0
VERTEX
  5
39D
  8
EBENE_1
 62
   250
 10
231.1147
 20
-18.7058
 30
0.0
  0
VERTEX
  5
39E
  8
EBENE_1
 62
   250
 10
231.3557
 20
-20.03
 30
0.0
  0
VERTEX
  5
39F
  8
EBENE_1
 62
   250
 10
232.0465
 20
-21.2654
 30
0.0
  0
VERTEX
  5
3A0
  8
EBENE_1
 62
   250
 10
233.1386
 20
-22.3849
 30
0.0
  0
VERTEX
  5
3A1
  8
EBENE_1
 62
   250
 10
234.5837
 20
-23.3614
 30
0.0
  0
VERTEX
  5
3A2
  8
EBENE_1
 62
   250
 10
236.3331
 20
-24.168
 30
0.0
  0
VERTEX
  5
3A3
  8
EBENE_1
 62
   250
 10
238.3386
 20
-24.7777
 30
0.0
  0
VERTEX
  5
3A4
  8
EBENE_1
 62
   250
 10
240.5517
 20
-25.1633
 30
0.0
  0
VERTEX
  5
3A5
  8
EBENE_1
 62
   250
 10
242.924
 20
-25.2978
 30
0.0
  0
SEQEND
  5
5FC
  8
EBENE_1
 62
   250
  0
POLYLINE
  5
A4
  8
EBENE_1
 62
   250
 66
     1
 10
0.0
 20
0.0
 30
0.0
 70
     1
  0
VERTEX
  5
3A6
  8
EBENE_1
 62
   250
 10
187.5903
 20
-20.7836
 30
0.0
  0
VERTEX
  5
3A7
  8
EBENE_1
 62
   250
 10
208.6862
 20
-20.7836
 30
0.0
  0
VERTEX
  5
3A8
  8
EBENE_1
 62
   250
 10
210.0409
 20
-20.7037
 30
0.0
  0
VERTEX
  5
3A9
  8
EBENE_1
 62
   250
 10
211.3047
 20
-20.4748
 30
0.0
  0
VERTEX
  5
3AA
  8
EBENE_1
 62
   250
 10
212.4499
 20
-20.1129
 30
0.0
  0
VERTEX
  5
3AB
  8
EBENE_1
 62
   250
 10
213.4489
 20
-19.634
 30
0.0
  0
VERTEX
  5
3AC
  8
EBENE_1
 62
   250
 10
214.2741
 20
-19.0542
 30
0.0
  0
VERTEX
  5
3AD
  8
EBENE_1
 62
   250
 10
214.8977
 20
-18.3896
 30
0.0
  0
VERTEX
  5
3AE
  8
EBENE_1
 62
   250
 10
215.2922
 20
-17.6562
 30
0.0
  0
VERTEX
  5
3AF
  8
EBENE_1
 62
   250
 10
215.4298
 20
-16.87
 30
0.0
  0
VERTEX
  5
3B0
  8
EBENE_1
 62
   250
 10
215.4298
 20
8.2268
 30
0.0
  0
VERTEX
  5
3B1
  8
EBENE_1
 62
   250
 10
180.8468
 20
8.2268
 30
0.0
  0
VERTEX
  5
3B2
  8
EBENE_1
 62
   250
 10
180.8468
 20
-16.87
 30
0.0
  0
VERTEX
  5
3B3
  8
EBENE_1
 62
   250
 10
180.9844
 20
-17.6562
 30
0.0
  0
VERTEX
  5
3B4
  8
EBENE_1
 62
   250
 10
181.3789
 20
-18.3896
 30
0.0
  0
VERTEX
  5
3B5
  8
EBENE_1
 62
   250
 10
182.0025
 20
-19.0542
 30
0.0
  0
VERTEX
  5
3B6
  8
EBENE_1
 62
   250
 10
182.8276
 20
-19.634
 30
0.0
  0
VERTEX
  5
3B7
  8
EBENE_1
 62
   250
 10
183.8266
 20
-20.1129
 30
0.0
  0
VERTEX
  5
3B8
  8
EBENE_1
 62
   250
 10
184.9719
 20
-20.4748
 30
0.0
  0
VERTEX
  5
3B9
  8
EBENE_1
 62
   250
 10
186.2356
 20
-20.7037
 30
0.0
  0
VERTEX
  5
3BA
  8
EBENE_1
 62
   250
 10
187.5903
 20
-20.7836
 30
0.0
  0
SEQEND
  5
5FD
  8
EBENE_1
 62
   250
  0
POLYLINE
  5
A5
  8
EBENE_1
 62
   250
 66
     1
 10
0.0
 20
0.0
 30
0.0
 70
     1
  0
VERTEX
  5
3BB
  8
EBENE_1
 62
   250
 10
186.3292
 20
-25.3349
 30
0.0
  0
VERTEX
  5
3BC
  8
EBENE_1
 62
   250
 10
209.9471
 20
-25.3349
 30
0.0
  0
VERTEX
  5
3BD
  8
EBENE_1
 62
   250
 10
212.3194
 20
-25.2004
 30
0.0
  0
VERTEX
  5
3BE
  8
EBENE_1
 62
   250
 10
214.5325
 20
-24.8148
 30
0.0
  0
VERTEX
  5
3BF
  8
EBENE_1
 62
   250
 10
216.538
 20
-24.2051
 30
0.0
  0
VERTEX
  5
3C0
  8
EBENE_1
 62
   250
 10
218.2875
 20
-23.3985
 30
0.0
  0
VERTEX
  5
3C1
  8
EBENE_1
 62
   250
 10
219.7325
 20
-22.422
 30
0.0
  0
VERTEX
  5
3C2
  8
EBENE_1
 62
   250
 10
220.8246
 20
-21.3025
 30
0.0
  0
VERTEX
  5
3C3
  8
EBENE_1
 62
   250
 10
221.5154
 20
-20.0671
 30
0.0
  0
VERTEX
  5
3C4
  8
EBENE_1
 62
   250
 10
221.7564
 20
-18.7429
 30
0.0
  0
VERTEX
  5
3C5
  8
EBENE_1
 62
   250
 10
221.7564
 20
12.7781
 30
0.0
  0
VERTEX
  5
3C6
  8
EBENE_1
 62
   250
 10
174.5199
 20
12.7781
 30
0.0
  0
VERTEX
  5
3C7
  8
EBENE_1
 62
   250
 10
174.5199
 20
-18.7429
 30
0.0
  0
VERTEX
  5
3C8
  8
EBENE_1
 62
   250
 10
174.7609
 20
-20.0671
 30
0.0
  0
VERTEX
  5
3C9
  8
EBENE_1
 62
   250
 10
175.4517
 20
-21.3025
 30
0.0
  0
VERTEX
  5
3CA
  8
EBENE_1
 62
   250
 10
176.5438
 20
-22.422
 30
0.0
  0
VERTEX
  5
3CB
  8
EBENE_1
 62
   250
 10
177.9889
 20
-23.3985
 30
0.0
  0
VERTEX
  5
3CC
  8
EBENE_1
 62
   250
 10
179.7383
 20
-24.2051
 30
0.0
  0
VERTEX
  5
3CD
  8
EBENE_1
 62
   250
 10
181.7438
 20
-24.8148
 30
0.0
  0
VERTEX
  5
3CE
  8
EBENE_1
 62
   250
 10
183.9569
 20
-25.2004
 30
0.0
  0
VERTEX
  5
3CF
  8
EBENE_1
 62
   250
 10
186.3292
 20
-25.3349
 30
0.0
  0
SEQEND
  5
5FE
  8
EBENE_1
 62
   250
  0
POLYLINE
  5
A6
  8
EBENE_1
 62
   250
 66
     1
 10
0.0
 20
0.0
 30
0.0
 70
     1
  0
VERTEX
  5
3D0
  8
EBENE_1
 62
   250
 10
130.9955
 20
-20.2691
 30
0.0
  0
VERTEX
  5
3D1
  8
EBENE_1
 62
   250
 10
152.0914
 20
-20.2691
 30
0.0
  0
VERTEX
  5
3D2
  8
EBENE_1
 62
   250
 10
153.4461
 20
-20.1892
 30
0.0
  0
VERTEX
  5
3D3
  8
EBENE_1
 62
   250
 10
154.7099
 20
-19.9603
 30
0.0
  0
VERTEX
  5
3D4
  8
EBENE_1
 62
   250
 10
155.8551
 20
-19.5984
 30
0.0
  0
VERTEX
  5
3D5
  8
EBENE_1
 62
   250
 10
156.8541
 20
-19.1195
 30
0.0
  0
VERTEX
  5
3D6
  8
EBENE_1
 62
   250
 10
157.6793
 20
-18.5397
 30
0.0
  0
VERTEX
  5
3D7
  8
EBENE_1
 62
   250
 10
158.3029
 20
-17.8751
 30
0.0
  0
VERTEX
  5
3D8
  8
EBENE_1
 62
   250
 10
158.6974
 20
-17.1417
 30
0.0
  0
VERTEX
  5
3D9
  8
EBENE_1
 62
   250
 10
158.835
 20
-16.3555
 30
0.0
  0
VERTEX
  5
3DA
  8
EBENE_1
 62
   250
 10
158.835
 20
8.7413
 30
0.0
  0
VERTEX
  5
3DB
  8
EBENE_1
 62
   250
 10
124.252
 20
8.7413
 30
0.0
  0
VERTEX
  5
3DC
  8
EBENE_1
 62
   250
 10
124.252
 20
-16.3555
 30
0.0
  0
VERTEX
  5
3DD
  8
EBENE_1
 62
   250
 10
124.3896
 20
-17.1417
 30
0.0
  0
VERTEX
  5
3DE
  8
EBENE_1
 62
   250
 10
124.7841
 20
-17.8751
 30
0.0
  0
VERTEX
  5
3DF
  8
EBENE_1
 62
   250
 10
125.4077
 20
-18.5397
 30
0.0
  0
VERTEX
  5
3E0
  8
EBENE_1
 62
   250
 10
126.2328
 20
-19.1195
 30
0.0
  0
VERTEX
  5
3E1
  8
EBENE_1
 62
   250
 10
127.2318
 20
-19.5984
 30
0.0
  0
VERTEX
  5
3E2
  8
EBENE_1
 62
   250
 10
128.3771
 20
-19.9603
 30
0.0
  0
VERTEX
  5
3E3
  8
EBENE_1
 62
   250
 10
129.6408
 20
-20.1892
 30
0.0
  0
VERTEX
  5
3E4
  8
EBENE_1
 62
   250
 10
130.9955
 20
-20.2691
 30
0.0
  0
SEQEND
  5
5FF
  8
EBENE_1
 62
   250
  0
POLYLINE
  5
A7
  8
EBENE_1
 62
   250
 66
     1
 10
0.0
 20
0.0
 30
0.0
 70
     1
  0
VERTEX
  5
3E5
  8
EBENE_1
 62
   250
 10
129.7344
 20
-24.8204
 30
0.0
  0
VERTEX
  5
3E6
  8
EBENE_1
 62
   250
 10
153.3523
 20
-24.8204
 30
0.0
  0
VERTEX
  5
3E7
  8
EBENE_1
 62
   250
 10
155.7246
 20
-24.6859
 30
0.0
  0
VERTEX
  5
3E8
  8
EBENE_1
 62
   250
 10
157.9377
 20
-24.3003
 30
0.0
  0
VERTEX
  5
3E9
  8
EBENE_1
 62
   250
 10
159.9432
 20
-23.6906
 30
0.0
  0
VERTEX
  5
3EA
  8
EBENE_1
 62
   250
 10
161.6927
 20
-22.884
 30
0.0
  0
VERTEX
  5
3EB
  8
EBENE_1
 62
   250
 10
163.1377
 20
-21.9075
 30
0.0
  0
VERTEX
  5
3EC
  8
EBENE_1
 62
   250
 10
164.2298
 20
-20.788
 30
0.0
  0
VERTEX
  5
3ED
  8
EBENE_1
 62
   250
 10
164.9206
 20
-19.5526
 30
0.0
  0
VERTEX
  5
3EE
  8
EBENE_1
 62
   250
 10
165.1616
 20
-18.2284
 30
0.0
  0
VERTEX
  5
3EF
  8
EBENE_1
 62
   250
 10
165.1616
 20
13.2926
 30
0.0
  0
VERTEX
  5
3F0
  8
EBENE_1
 62
   250
 10
117.9251
 20
13.2926
 30
0.0
  0
VERTEX
  5
3F1
  8
EBENE_1
 62
   250
 10
117.9251
 20
-18.2284
 30
0.0
  0
VERTEX
  5
3F2
  8
EBENE_1
 62
   250
 10
118.1661
 20
-19.5526
 30
0.0
  0
VERTEX
  5
3F3
  8
EBENE_1
 62
   250
 10
118.8569
 20
-20.788
 30
0.0
  0
VERTEX
  5
3F4
  8
EBENE_1
 62
   250
 10
119.949
 20
-21.9075
 30
0.0
  0
VERTEX
  5
3F5
  8
EBENE_1
 62
   250
 10
121.3941
 20
-22.884
 30
0.0
  0
VERTEX
  5
3F6
  8
EBENE_1
 62
   250
 10
123.1435
 20
-23.6906
 30
0.0
  0
VERTEX
  5
3F7
  8
EBENE_1
 62
   250
 10
125.149
 20
-24.3003
 30
0.0
  0
VERTEX
  5
3F8
  8
EBENE_1
 62
   250
 10
127.3621
 20
-24.6859
 30
0.0
  0
VERTEX
  5
3F9
  8
EBENE_1
 62
   250
 10
129.7344
 20
-24.8204
 30
0.0
  0
SEQEND
  5
600
  8
EBENE_1
 62
   250
  0
POLYLINE
  5
A8
  8
EBENE_1
 62
   250
 66
     1
 10
0.0
 20
0.0
 30
0.0
 70
     1
  0
VERTEX
  5
3FA
  8
EBENE_1
 62
   250
 10
-102.4028
 20
-29.6958
 30
0.0
  0
VERTEX
  5
3FB
  8
EBENE_1
 62
   250
 10
-81.3069
 20
-29.6958
 30
0.0
  0
VERTEX
  5
3FC
  8
EBENE_1
 62
   250
 10
-79.9522
 20
-29.7757
 30
0.0
  0
VERTEX
  5
3FD
  8
EBENE_1
 62
   250
 10
-78.6884
 20
-30.0046
 30
0.0
  0
VERTEX
  5
3FE
  8
EBENE_1
 62
   250
 10
-77.5432
 20
-30.3665
 30
0.0
  0
VERTEX
  5
3FF
  8
EBENE_1
 62
   250
 10
-76.5442
 20
-30.8454
 30
0.0
  0
VERTEX
  5
400
  8
EBENE_1
 62
   250
 10
-75.719
 20
-31.4252
 30
0.0
  0
VERTEX
  5
401
  8
EBENE_1
 62
   250
 10
-75.0954
 20
-32.0898
 30
0.0
  0
VERTEX
  5
402
  8
EBENE_1
 62
   250
 10
-74.7009
 20
-32.8232
 30
0.0
  0
VERTEX
  5
403
  8
EBENE_1
 62
   250
 10
-74.5633
 20
-33.6094
 30
0.0
  0
VERTEX
  5
404
  8
EBENE_1
 62
   250
 10
-74.5633
 20
-58.7062
 30
0.0
  0
VERTEX
  5
405
  8
EBENE_1
 62
   250
 10
-109.1463
 20
-58.7062
 30
0.0
  0
VERTEX
  5
406
  8
EBENE_1
 62
   250
 10
-109.1463
 20
-33.6094
 30
0.0
  0
VERTEX
  5
407
  8
EBENE_1
 62
   250
 10
-109.0087
 20
-32.8232
 30
0.0
  0
VERTEX
  5
408
  8
EBENE_1
 62
   250
 10
-108.6142
 20
-32.0898
 30
0.0
  0
VERTEX
  5
409
  8
EBENE_1
 62
   250
 10
-107.9906
 20
-31.4252
 30
0.0
  0
VERTEX
  5
40A
  8
EBENE_1
 62
   250
 10
-107.1655
 20
-30.8454
 30
0.0
  0
VERTEX
  5
40B
  8
EBENE_1
 62
   250
 10
-106.1665
 20
-30.3665
 30
0.0
  0
VERTEX
  5
40C
  8
EBENE_1
 62
   250
 10
-105.0212
 20
-30.0046
 30
0.0
  0
VERTEX
  5
40D
  8
EBENE_1
 62
   250
 10
-103.7575
 20
-29.7757
 30
0.0
  0
VERTEX
  5
40E
  8
EBENE_1
 62
   250
 10
-102.4028
 20
-29.6958
 30
0.0
  0
SEQEND
  5
601
  8
EBENE_1
 62
   250
  0
POLYLINE
  5
A9
  8
EBENE_1
 62
   250
 66
     1
 10
0.0
 20
0.0
 30
0.0
 70
     1
  0
VERTEX
  5
40F
  8
EBENE_1
 62
   250
 10
-103.6639
 20
-25.1445
 30
0.0
  0
VERTEX
  5
410
  8
EBENE_1
 62
   250
 10
-80.046
 20
-25.1445
 30
0.0
  0
VERTEX
  5
411
  8
EBENE_1
 62
   250
 10
-77.6737
 20
-25.279
 30
0.0
  0
VERTEX
  5
412
  8
EBENE_1
 62
   250
 10
-75.4606
 20
-25.6646
 30
0.0
  0
VERTEX
  5
413
  8
EBENE_1
 62
   250
 10
-73.4551
 20
-26.2743
 30
0.0
  0
VERTEX
  5
414
  8
EBENE_1
 62
   250
 10
-71.7057
 20
-27.0809
 30
0.0
  0
VERTEX
  5
415
  8
EBENE_1
 62
   250
 10
-70.2606
 20
-28.0574
 30
0.0
  0
VERTEX
  5
416
  8
EBENE_1
 62
   250
 10
-69.1685
 20
-29.1769
 30
0.0
  0
VERTEX
  5
417
  8
EBENE_1
 62
   250
 10
-68.4777
 20
-30.4123
 30
0.0
  0
VERTEX
  5
418
  8
EBENE_1
 62
   250
 10
-68.2367
 20
-31.7365
 30
0.0
  0
VERTEX
  5
419
  8
EBENE_1
 62
   250
 10
-68.2367
 20
-63.2575
 30
0.0
  0
VERTEX
  5
41A
  8
EBENE_1
 62
   250
 10
-115.4732
 20
-63.2575
 30
0.0
  0
VERTEX
  5
41B
  8
EBENE_1
 62
   250
 10
-115.4732
 20
-31.7365
 30
0.0
  0
VERTEX
  5
41C
  8
EBENE_1
 62
   250
 10
-115.2322
 20
-30.4123
 30
0.0
  0
VERTEX
  5
41D
  8
EBENE_1
 62
   250
 10
-114.5414
 20
-29.1769
 30
0.0
  0
VERTEX
  5
41E
  8
EBENE_1
 62
   250
 10
-113.4493
 20
-28.0574
 30
0.0
  0
VERTEX
  5
41F
  8
EBENE_1
 62
   250
 10
-112.0043
 20
-27.0809
 30
0.0
  0
VERTEX
  5
420
  8
EBENE_1
 62
   250
 10
-110.2548
 20
-26.2743
 30
0.0
  0
VERTEX
  5
421
  8
EBENE_1
 62
   250
 10
-108.2493
 20
-25.6646
 30
0.0
  0
VERTEX
  5
422
  8
EBENE_1
 62
   250
 10
-106.0362
 20
-25.279
 30
0.0
  0
VERTEX
  5
423
  8
EBENE_1
 62
   250
 10
-103.6639
 20
-25.1445
 30
0.0
  0
SEQEND
  5
602
  8
EBENE_1
 62
   250
  0
POLYLINE
  5
AA
  8
EBENE_1
 62
   250
 66
     1
 10
0.0
 20
0.0
 30
0.0
 70
     1
  0
VERTEX
  5
424
  8
EBENE_1
 62
   250
 10
-105.0562
 20
8.8864
 30
0.0
  0
VERTEX
  5
425
  8
EBENE_1
 62
   250
 10
-95.7273
 20
8.8864
 30
0.0
  0
VERTEX
  5
426
  8
EBENE_1
 62
   250
 10
-95.1282
 20
8.8219
 30
0.0
  0
VERTEX
  5
427
  8
EBENE_1
 62
   250
 10
-94.5694
 20
8.6371
 30
0.0
  0
VERTEX
  5
428
  8
EBENE_1
 62
   250
 10
-94.063
 20
8.345
 30
0.0
  0
VERTEX
  5
429
  8
EBENE_1
 62
   250
 10
-93.6212
 20
7.9584
 30
0.0
  0
VERTEX
  5
42A
  8
EBENE_1
 62
   250
 10
-93.2563
 20
7.4904
 30
0.0
  0
VERTEX
  5
42B
  8
EBENE_1
 62
   250
 10
-92.9805
 20
6.9539
 30
0.0
  0
VERTEX
  5
42C
  8
EBENE_1
 62
   250
 10
-92.8061
 20
6.3618
 30
0.0
  0
VERTEX
  5
42D
  8
EBENE_1
 62
   250
 10
-92.7452
 20
5.7272
 30
0.0
  0
VERTEX
  5
42E
  8
EBENE_1
 62
   250
 10
-92.7452
 20
-14.5324
 30
0.0
  0
VERTEX
  5
42F
  8
EBENE_1
 62
   250
 10
-108.0383
 20
-14.5324
 30
0.0
  0
VERTEX
  5
430
  8
EBENE_1
 62
   250
 10
-108.0383
 20
5.7272
 30
0.0
  0
VERTEX
  5
431
  8
EBENE_1
 62
   250
 10
-107.9774
 20
6.3618
 30
0.0
  0
VERTEX
  5
432
  8
EBENE_1
 62
   250
 10
-107.803
 20
6.9539
 30
0.0
  0
VERTEX
  5
433
  8
EBENE_1
 62
   250
 10
-107.5272
 20
7.4904
 30
0.0
  0
VERTEX
  5
434
  8
EBENE_1
 62
   250
 10
-107.1623
 20
7.9584
 30
0.0
  0
VERTEX
  5
435
  8
EBENE_1
 62
   250
 10
-106.7205
 20
8.345
 30
0.0
  0
VERTEX
  5
436
  8
EBENE_1
 62
   250
 10
-106.2141
 20
8.6371
 30
0.0
  0
VERTEX
  5
437
  8
EBENE_1
 62
   250
 10
-105.6553
 20
8.8219
 30
0.0
  0
VERTEX
  5
438
  8
EBENE_1
 62
   250
 10
-105.0562
 20
8.8864
 30
0.0
  0
SEQEND
  5
603
  8
EBENE_1
 62
   250
  0
POLYLINE
  5
AB
  8
EBENE_1
 62
   250
 66
     1
 10
0.0
 20
0.0
 30
0.0
 70
     1
  0
VERTEX
  5
439
  8
EBENE_1
 62
   250
 10
-106.1273
 20
12.5605
 30
0.0
  0
VERTEX
  5
43A
  8
EBENE_1
 62
   250
 10
-94.6563
 20
12.5605
 30
0.0
  0
VERTEX
  5
43B
  8
EBENE_1
 62
   250
 10
-93.5041
 20
12.4519
 30
0.0
  0
VERTEX
  5
43C
  8
EBENE_1
 62
   250
 10
-92.4293
 20
12.1406
 30
0.0
  0
VERTEX
  5
43D
  8
EBENE_1
 62
   250
 10
-91.4552
 20
11.6485
 30
0.0
  0
VERTEX
  5
43E
  8
EBENE_1
 62
   250
 10
-90.6055
 20
10.9974
 30
0.0
  0
VERTEX
  5
43F
  8
EBENE_1
 62
   250
 10
-89.9037
 20
10.209
 30
0.0
  0
VERTEX
  5
440
  8
EBENE_1
 62
   250
 10
-89.3733
 20
9.3053
 30
0.0
  0
VERTEX
  5
441
  8
EBENE_1
 62
   250
 10
-89.0378
 20
8.3081
 30
0.0
  0
VERTEX
  5
442
  8
EBENE_1
 62
   250
 10
-88.9207
 20
7.2391
 30
0.0
  0
VERTEX
  5
443
  8
EBENE_1
 62
   250
 10
-88.9207
 20
-18.2064
 30
0.0
  0
VERTEX
  5
444
  8
EBENE_1
 62
   250
 10
-111.863
 20
-18.2064
 30
0.0
  0
VERTEX
  5
445
  8
EBENE_1
 62
   250
 10
-111.863
 20
7.2391
 30
0.0
  0
VERTEX
  5
446
  8
EBENE_1
 62
   250
 10
-111.7459
 20
8.3081
 30
0.0
  0
VERTEX
  5
447
  8
EBENE_1
 62
   250
 10
-111.4104
 20
9.3053
 30
0.0
  0
VERTEX
  5
448
  8
EBENE_1
 62
   250
 10
-110.88
 20
10.209
 30
0.0
  0
VERTEX
  5
449
  8
EBENE_1
 62
   250
 10
-110.1782
 20
10.9974
 30
0.0
  0
VERTEX
  5
44A
  8
EBENE_1
 62
   250
 10
-109.3285
 20
11.6485
 30
0.0
  0
VERTEX
  5
44B
  8
EBENE_1
 62
   250
 10
-108.3544
 20
12.1406
 30
0.0
  0
VERTEX
  5
44C
  8
EBENE_1
 62
   250
 10
-107.2795
 20
12.4519
 30
0.0
  0
VERTEX
  5
44D
  8
EBENE_1
 62
   250
 10
-106.1273
 20
12.5605
 30
0.0
  0
SEQEND
  5
604
  8
EBENE_1
 62
   250
  0
POLYLINE
  5
AC
  8
EBENE_1
 62
   250
 66
     1
 10
0.0
 20
0.0
 30
0.0
 70
     1
  0
VERTEX
  5
44E
  8
EBENE_1
 62
   250
 10
90.224
 20
-65.573
 30
0.0
  0
VERTEX
  5
44F
  8
EBENE_1
 62
   250
 10
99.5529
 20
-65.573
 30
0.0
  0
VERTEX
  5
450
  8
EBENE_1
 62
   250
 10
100.152
 20
-65.6375
 30
0.0
  0
VERTEX
  5
451
  8
EBENE_1
 62
   250
 10
100.7108
 20
-65.8223
 30
0.0
  0
VERTEX
  5
452
  8
EBENE_1
 62
   250
 10
101.2172
 20
-66.1144
 30
0.0
  0
VERTEX
  5
453
  8
EBENE_1
 62
   250
 10
101.659
 20
-66.501
 30
0.0
  0
VERTEX
  5
454
  8
EBENE_1
 62
   250
 10
102.0239
 20
-66.969
 30
0.0
  0
VERTEX
  5
455
  8
EBENE_1
 62
   250
 10
102.2997
 20
-67.5055
 30
0.0
  0
VERTEX
  5
456
  8
EBENE_1
 62
   250
 10
102.4741
 20
-68.0976
 30
0.0
  0
VERTEX
  5
457
  8
EBENE_1
 62
   250
 10
102.535
 20
-68.7322
 30
0.0
  0
VERTEX
  5
458
  8
EBENE_1
 62
   250
 10
102.535
 20
-88.9918
 30
0.0
  0
VERTEX
  5
459
  8
EBENE_1
 62
   250
 10
87.2419
 20
-88.9918
 30
0.0
  0
VERTEX
  5
45A
  8
EBENE_1
 62
   250
 10
87.2419
 20
-68.7322
 30
0.0
  0
VERTEX
  5
45B
  8
EBENE_1
 62
   250
 10
87.3028
 20
-68.0976
 30
0.0
  0
VERTEX
  5
45C
  8
EBENE_1
 62
   250
 10
87.4772
 20
-67.5055
 30
0.0
  0
VERTEX
  5
45D
  8
EBENE_1
 62
   250
 10
87.753
 20
-66.969
 30
0.0
  0
VERTEX
  5
45E
  8
EBENE_1
 62
   250
 10
88.1179
 20
-66.501
 30
0.0
  0
VERTEX
  5
45F
  8
EBENE_1
 62
   250
 10
88.5597
 20
-66.1144
 30
0.0
  0
VERTEX
  5
460
  8
EBENE_1
 62
   250
 10
89.0661
 20
-65.8223
 30
0.0
  0
VERTEX
  5
461
  8
EBENE_1
 62
   250
 10
89.6249
 20
-65.6375
 30
0.0
  0
VERTEX
  5
462
  8
EBENE_1
 62
   250
 10
90.224
 20
-65.573
 30
0.0
  0
SEQEND
  5
605
  8
EBENE_1
 62
   250
  0
POLYLINE
  5
AD
  8
EBENE_1
 62
   250
 66
     1
 10
0.0
 20
0.0
 30
0.0
 70
     1
  0
VERTEX
  5
463
  8
EBENE_1
 62
   250
 10
89.1529
 20
-61.8989
 30
0.0
  0
VERTEX
  5
464
  8
EBENE_1
 62
   250
 10
100.6239
 20
-61.8989
 30
0.0
  0
VERTEX
  5
465
  8
EBENE_1
 62
   250
 10
101.7761
 20
-62.0075
 30
0.0
  0
VERTEX
  5
466
  8
EBENE_1
 62
   250
 10
102.8509
 20
-62.3188
 30
0.0
  0
VERTEX
  5
467
  8
EBENE_1
 62
   250
 10
103.825
 20
-62.8109
 30
0.0
  0
VERTEX
  5
468
  8
EBENE_1
 62
   250
 10
104.6747
 20
-63.4621
 30
0.0
  0
VERTEX
  5
469
  8
EBENE_1
 62
   250
 10
105.3765
 20
-64.2504
 30
0.0
  0
VERTEX
  5
46A
  8
EBENE_1
 62
   250
 10
105.9069
 20
-65.1541
 30
0.0
  0
VERTEX
  5
46B
  8
EBENE_1
 62
   250
 10
106.2424
 20
-66.1513
 30
0.0
  0
VERTEX
  5
46C
  8
EBENE_1
 62
   250
 10
106.3595
 20
-67.2203
 30
0.0
  0
VERTEX
  5
46D
  8
EBENE_1
 62
   250
 10
106.3595
 20
-92.6658
 30
0.0
  0
VERTEX
  5
46E
  8
EBENE_1
 62
   250
 10
83.4172
 20
-92.6658
 30
0.0
  0
VERTEX
  5
46F
  8
EBENE_1
 62
   250
 10
83.4172
 20
-67.2203
 30
0.0
  0
VERTEX
  5
470
  8
EBENE_1
 62
   250
 10
83.5343
 20
-66.1513
 30
0.0
  0
VERTEX
  5
471
  8
EBENE_1
 62
   250
 10
83.8698
 20
-65.1541
 30
0.0
  0
VERTEX
  5
472
  8
EBENE_1
 62
   250
 10
84.4002
 20
-64.2504
 30
0.0
  0
VERTEX
  5
473
  8
EBENE_1
 62
   250
 10
85.102
 20
-63.4621
 30
0.0
  0
VERTEX
  5
474
  8
EBENE_1
 62
   250
 10
85.9517
 20
-62.8109
 30
0.0
  0
VERTEX
  5
475
  8
EBENE_1
 62
   250
 10
86.9258
 20
-62.3188
 30
0.0
  0
VERTEX
  5
476
  8
EBENE_1
 62
   250
 10
88.0007
 20
-62.0075
 30
0.0
  0
VERTEX
  5
477
  8
EBENE_1
 62
   250
 10
89.1529
 20
-61.8989
 30
0.0
  0
SEQEND
  5
606
  8
EBENE_1
 62
   250
  0
POLYLINE
  5
AE
  8
EBENE_1
 66
     1
 10
0.0
 20
0.0
 30
0.0
 70
     1
  0
VERTEX
  5
478
  8
EBENE_1
 10
117.8782
 20
107.0646
 30
0.0
  0
VERTEX
  5
479
  8
EBENE_1
 10
298.5635
 20
107.0646
 30
0.0
  0
VERTEX
  5
47A
  8
EBENE_1
 10
298.5635
 20
85.3796
 30
0.0
  0
VERTEX
  5
47B
  8
EBENE_1
 10
298.5635
 20
19.4734
 30
0.0
  0
VERTEX
  5
47C
  8
EBENE_1
 10
291.4374
 20
19.4734
 30
0.0
  0
VERTEX
  5
47D
  8
EBENE_1
 10
291.4348
 20
52.7457
 30
0.0
  0
VERTEX
  5
47E
  8
EBENE_1
 10
288.4232
 20
52.7387
 30
0.0
  0
VERTEX
  5
47F
  8
EBENE_1
 10
288.4266
 20
19.4294
 30
0.0
  0
VERTEX
  5
480
  8
EBENE_1
 10
138.0216
 20
19.4734
 30
0.0
  0
VERTEX
  5
481
  8
EBENE_1
 10
128.016
 20
19.4734
 30
0.0
  0
VERTEX
  5
482
  8
EBENE_1
 10
128.016
 20
52.7932
 30
0.0
  0
VERTEX
  5
483
  8
EBENE_1
 10
125.0046
 20
52.7932
 30
0.0
  0
VERTEX
  5
484
  8
EBENE_1
 10
125.0046
 20
19.4734
 30
0.0
  0
VERTEX
  5
485
  8
EBENE_1
 10
117.8782
 20
19.4734
 30
0.0
  0
VERTEX
  5
486
  8
EBENE_1
 10
117.8782
 20
98.9311
 30
0.0
  0
VERTEX
  5
487
  8
EBENE_1
 10
117.8782
 20
107.0646
 30
0.0
  0
SEQEND
  5
607
  8
EBENE_1
  0
POLYLINE
  5
AF
  8
EBENE_1
 62
   250
 66
     1
 10
0.0
 20
0.0
 30
0.0
 70
     1
  0
VERTEX
  5
488
  8
EBENE_1
 62
   250
 10
260.2162
 20
54.7544
 30
0.0
  0
VERTEX
  5
489
  8
EBENE_1
 62
   250
 10
273.3355
 20
54.7544
 30
0.0
  0
VERTEX
  5
48A
  8
EBENE_1
 62
   250
 10
273.3355
 20
37.7544
 30
0.0
  0
VERTEX
  5
48B
  8
EBENE_1
 62
   250
 10
260.2162
 20
37.7544
 30
0.0
  0
VERTEX
  5
48C
  8
EBENE_1
 62
   250
 10
260.2162
 20
54.7544
 30
0.0
  0
SEQEND
  5
608
  8
EBENE_1
 62
   250
  0
POLYLINE
  5
B0
  8
EBENE_1
 62
   250
 66
     1
 10
0.0
 20
0.0
 30
0.0
 70
     1
  0
VERTEX
  5
48D
  8
EBENE_1
 62
   250
 10
238.9311
 20
54.7544
 30
0.0
  0
VERTEX
  5
48E
  8
EBENE_1
 62
   250
 10
251.9996
 20
54.7544
 30
0.0
  0
VERTEX
  5
48F
  8
EBENE_1
 62
   250
 10
251.9996
 20
37.7532
 30
0.0
  0
VERTEX
  5
490
  8
EBENE_1
 62
   250
 10
238.9311
 20
37.7532
 30
0.0
  0
VERTEX
  5
491
  8
EBENE_1
 62
   250
 10
238.9311
 20
54.7544
 30
0.0
  0
SEQEND
  5
609
  8
EBENE_1
 62
   250
  0
POLYLINE
  5
B1
  8
EBENE_1
 62
   250
 66
     1
 10
0.0
 20
0.0
 30
0.0
 70
     1
  0
VERTEX
  5
492
  8
EBENE_1
 62
   250
 10
260.2156
 20
66.9507
 30
0.0
  0
VERTEX
  5
493
  8
EBENE_1
 62
   250
 10
266.7488
 20
66.9507
 30
0.0
  0
VERTEX
  5
494
  8
EBENE_1
 62
   250
 10
268.0612
 20
66.8797
 30
0.0
  0
VERTEX
  5
495
  8
EBENE_1
 62
   250
 10
269.2856
 20
66.676
 30
0.0
  0
VERTEX
  5
496
  8
EBENE_1
 62
   250
 10
270.3951
 20
66.3541
 30
0.0
  0
VERTEX
  5
497
  8
EBENE_1
 62
   250
 10
271.363
 20
65.9282
 30
0.0
  0
VERTEX
  5
498
  8
EBENE_1
 62
   250
 10
272.1625
 20
65.4125
 30
0.0
  0
VERTEX
  5
499
  8
EBENE_1
 62
   250
 10
272.7667
 20
64.8214
 30
0.0
  0
VERTEX
  5
49A
  8
EBENE_1
 62
   250
 10
273.1489
 20
64.169
 30
0.0
  0
VERTEX
  5
49B
  8
EBENE_1
 62
   250
 10
273.2822
 20
63.4698
 30
0.0
  0
VERTEX
  5
49C
  8
EBENE_1
 62
   250
 10
273.2822
 20
58.1828
 30
0.0
  0
VERTEX
  5
49D
  8
EBENE_1
 62
   250
 10
260.2156
 20
58.1828
 30
0.0
  0
VERTEX
  5
49E
  8
EBENE_1
 62
   250
 10
260.2156
 20
66.9507
 30
0.0
  0
SEQEND
  5
60A
  8
EBENE_1
 62
   250
  0
POLYLINE
  5
B2
  8
EBENE_1
 62
   250
 66
     1
 10
0.0
 20
0.0
 30
0.0
 70
     1
  0
VERTEX
  5
49F
  8
EBENE_1
 62
   250
 10
251.9887
 20
66.988
 30
0.0
  0
VERTEX
  5
4A0
  8
EBENE_1
 62
   250
 10
245.4556
 20
66.988
 30
0.0
  0
VERTEX
  5
4A1
  8
EBENE_1
 62
   250
 10
244.1432
 20
66.917
 30
0.0
  0
VERTEX
  5
4A2
  8
EBENE_1
 62
   250
 10
242.9188
 20
66.7133
 30
0.0
  0
VERTEX
  5
4A3
  8
EBENE_1
 62
   250
 10
241.8093
 20
66.3914
 30
0.0
  0
VERTEX
  5
4A4
  8
EBENE_1
 62
   250
 10
240.8414
 20
65.9655
 30
0.0
  0
VERTEX
  5
4A5
  8
EBENE_1
 62
   250
 10
240.0419
 20
65.4498
 30
0.0
  0
VERTEX
  5
4A6
  8
EBENE_1
 62
   250
 10
239.4377
 20
64.8587
 30
0.0
  0
VERTEX
  5
4A7
  8
EBENE_1
 62
   250
 10
239.0555
 20
64.2063
 30
0.0
  0
VERTEX
  5
4A8
  8
EBENE_1
 62
   250
 10
238.9222
 20
63.5071
 30
0.0
  0
VERTEX
  5
4A9
  8
EBENE_1
 62
   250
 10
238.9222
 20
58.2201
 30
0.0
  0
VERTEX
  5
4AA
  8
EBENE_1
 62
   250
 10
251.9887
 20
58.2201
 30
0.0
  0
VERTEX
  5
4AB
  8
EBENE_1
 62
   250
 10
251.9887
 20
66.988
 30
0.0
  0
SEQEND
  5
60B
  8
EBENE_1
 62
   250
  0
POLYLINE
  5
B3
  8
EBENE_1
 62
   250
 66
     1
 10
0.0
 20
0.0
 30
0.0
 70
     1
  0
VERTEX
  5
4AC
  8
EBENE_1
 62
   250
 10
254.2382
 20
37.7576
 30
0.0
  0
VERTEX
  5
4AD
  8
EBENE_1
 62
   250
 10
258.2382
 20
37.7576
 30
0.0
  0
VERTEX
  5
4AE
  8
EBENE_1
 62
   250
 10
258.2382
 20
66.9828
 30
0.0
  0
VERTEX
  5
4AF
  8
EBENE_1
 62
   250
 10
254.2382
 20
66.9828
 30
0.0
  0
VERTEX
  5
4B0
  8
EBENE_1
 62
   250
 10
254.2382
 20
37.7576
 30
0.0
  0
SEQEND
  5
60C
  8
EBENE_1
 62
   250
  0
POLYLINE
  5
B4
  8
EBENE_1
 62
   250
 66
     1
 10
0.0
 20
0.0
 30
0.0
 70
     1
  0
VERTEX
  5
4B1
  8
EBENE_1
 62
   250
 10
162.0018
 20
54.9276
 30
0.0
  0
VERTEX
  5
4B2
  8
EBENE_1
 62
   250
 10
175.1211
 20
54.9276
 30
0.0
  0
VERTEX
  5
4B3
  8
EBENE_1
 62
   250
 10
175.1211
 20
37.9276
 30
0.0
  0
VERTEX
  5
4B4
  8
EBENE_1
 62
   250
 10
162.0018
 20
37.9276
 30
0.0
  0
VERTEX
  5
4B5
  8
EBENE_1
 62
   250
 10
162.0018
 20
54.9276
 30
0.0
  0
SEQEND
  5
60D
  8
EBENE_1
 62
   250
  0
POLYLINE
  5
B5
  8
EBENE_1
 62
   250
 66
     1
 10
0.0
 20
0.0
 30
0.0
 70
     1
  0
VERTEX
  5
4B6
  8
EBENE_1
 62
   250
 10
140.7167
 20
54.9276
 30
0.0
  0
VERTEX
  5
4B7
  8
EBENE_1
 62
   250
 10
153.7852
 20
54.9276
 30
0.0
  0
VERTEX
  5
4B8
  8
EBENE_1
 62
   250
 10
153.7852
 20
37.9264
 30
0.0
  0
VERTEX
  5
4B9
  8
EBENE_1
 62
   250
 10
140.7167
 20
37.9264
 30
0.0
  0
VERTEX
  5
4BA
  8
EBENE_1
 62
   250
 10
140.7167
 20
54.9276
 30
0.0
  0
SEQEND
  5
60E
  8
EBENE_1
 62
   250
  0
POLYLINE
  5
B6
  8
EBENE_1
 62
   250
 66
     1
 10
0.0
 20
0.0
 30
0.0
 70
     1
  0
VERTEX
  5
4BB
  8
EBENE_1
 62
   250
 10
162.0012
 20
67.1239
 30
0.0
  0
VERTEX
  5
4BC
  8
EBENE_1
 62
   250
 10
168.5344
 20
67.1239
 30
0.0
  0
VERTEX
  5
4BD
  8
EBENE_1
 62
   250
 10
169.8468
 20
67.0529
 30
0.0
  0
VERTEX
  5
4BE
  8
EBENE_1
 62
   250
 10
171.0712
 20
66.8492
 30
0.0
  0
VERTEX
  5
4BF
  8
EBENE_1
 62
   250
 10
172.1807
 20
66.5273
 30
0.0
  0
VERTEX
  5
4C0
  8
EBENE_1
 62
   250
 10
173.1486
 20
66.1014
 30
0.0
  0
VERTEX
  5
4C1
  8
EBENE_1
 62
   250
 10
173.9481
 20
65.5857
 30
0.0
  0
VERTEX
  5
4C2
  8
EBENE_1
 62
   250
 10
174.5523
 20
64.9946
 30
0.0
  0
VERTEX
  5
4C3
  8
EBENE_1
 62
   250
 10
174.9345
 20
64.3422
 30
0.0
  0
VERTEX
  5
4C4
  8
EBENE_1
 62
   250
 10
175.0678
 20
63.643
 30
0.0
  0
VERTEX
  5
4C5
  8
EBENE_1
 62
   250
 10
175.0678
 20
58.356
 30
0.0
  0
VERTEX
  5
4C6
  8
EBENE_1
 62
   250
 10
162.0012
 20
58.356
 30
0.0
  0
VERTEX
  5
4C7
  8
EBENE_1
 62
   250
 10
162.0012
 20
67.1239
 30
0.0
  0
SEQEND
  5
60F
  8
EBENE_1
 62
   250
  0
POLYLINE
  5
B7
  8
EBENE_1
 62
   250
 66
     1
 10
0.0
 20
0.0
 30
0.0
 70
     1
  0
VERTEX
  5
4C8
  8
EBENE_1
 62
   250
 10
153.7743
 20
67.1612
 30
0.0
  0
VERTEX
  5
4C9
  8
EBENE_1
 62
   250
 10
147.2412
 20
67.1612
 30
0.0
  0
VERTEX
  5
4CA
  8
EBENE_1
 62
   250
 10
145.9288
 20
67.0902
 30
0.0
  0
VERTEX
  5
4CB
  8
EBENE_1
 62
   250
 10
144.7044
 20
66.8865
 30
0.0
  0
VERTEX
  5
4CC
  8
EBENE_1
 62
   250
 10
143.5949
 20
66.5646
 30
0.0
  0
VERTEX
  5
4CD
  8
EBENE_1
 62
   250
 10
142.627
 20
66.1387
 30
0.0
  0
VERTEX
  5
4CE
  8
EBENE_1
 62
   250
 10
141.8275
 20
65.623
 30
0.0
  0
VERTEX
  5
4CF
  8
EBENE_1
 62
   250
 10
141.2233
 20
65.0319
 30
0.0
  0
VERTEX
  5
4D0
  8
EBENE_1
 62
   250
 10
140.8411
 20
64.3795
 30
0.0
  0
VERTEX
  5
4D1
  8
EBENE_1
 62
   250
 10
140.7078
 20
63.6803
 30
0.0
  0
VERTEX
  5
4D2
  8
EBENE_1
 62
   250
 10
140.7078
 20
58.3933
 30
0.0
  0
VERTEX
  5
4D3
  8
EBENE_1
 62
   250
 10
153.7743
 20
58.3933
 30
0.0
  0
VERTEX
  5
4D4
  8
EBENE_1
 62
   250
 10
153.7743
 20
67.1612
 30
0.0
  0
SEQEND
  5
610
  8
EBENE_1
 62
   250
  0
POLYLINE
  5
B8
  8
EBENE_1
 62
   250
 66
     1
 10
0.0
 20
0.0
 30
0.0
 70
     1
  0
VERTEX
  5
4D5
  8
EBENE_1
 62
   250
 10
156.0238
 20
37.9308
 30
0.0
  0
VERTEX
  5
4D6
  8
EBENE_1
 62
   250
 10
160.0238
 20
37.9308
 30
0.0
  0
VERTEX
  5
4D7
  8
EBENE_1
 62
   250
 10
160.0238
 20
67.156
 30
0.0
  0
VERTEX
  5
4D8
  8
EBENE_1
 62
   250
 10
156.0238
 20
67.156
 30
0.0
  0
VERTEX
  5
4D9
  8
EBENE_1
 62
   250
 10
156.0238
 20
37.9308
 30
0.0
  0
SEQEND
  5
611
  8
EBENE_1
 62
   250
  0
POLYLINE
  5
B9
  8
EBENE_1
 66
     1
 10
0.0
 20
0.0
 30
0.0
 70
     1
  0
VERTEX
  5
4DA
  8
EBENE_1
 10
-143.2978
 20
174.7801
 30
0.0
  0
VERTEX
  5
4DB
  8
EBENE_1
 10
37.3875
 20
174.7801
 30
0.0
  0
VERTEX
  5
4DC
  8
EBENE_1
 10
37.3875
 20
153.0951
 30
0.0
  0
VERTEX
  5
4DD
  8
EBENE_1
 10
37.3875
 20
87.1889
 30
0.0
  0
VERTEX
  5
4DE
  8
EBENE_1
 10
30.2614
 20
87.1889
 30
0.0
  0
VERTEX
  5
4DF
  8
EBENE_1
 10
30.2588
 20
120.4612
 30
0.0
  0
VERTEX
  5
4E0
  8
EBENE_1
 10
27.2472
 20
120.4542
 30
0.0
  0
VERTEX
  5
4E1
  8
EBENE_1
 10
27.2506
 20
87.1449
 30
0.0
  0
VERTEX
  5
4E2
  8
EBENE_1
 10
-123.1544
 20
87.1889
 30
0.0
  0
VERTEX
  5
4E3
  8
EBENE_1
 10
-133.16
 20
87.1889
 30
0.0
  0
VERTEX
  5
4E4
  8
EBENE_1
 10
-133.16
 20
120.5087
 30
0.0
  0
VERTEX
  5
4E5
  8
EBENE_1
 10
-136.1714
 20
120.5087
 30
0.0
  0
VERTEX
  5
4E6
  8
EBENE_1
 10
-136.1714
 20
87.1889
 30
0.0
  0
VERTEX
  5
4E7
  8
EBENE_1
 10
-143.2978
 20
87.1889
 30
0.0
  0
VERTEX
  5
4E8
  8
EBENE_1
 10
-143.2978
 20
166.6466
 30
0.0
  0
VERTEX
  5
4E9
  8
EBENE_1
 10
-143.2978
 20
174.7801
 30
0.0
  0
SEQEND
  5
612
  8
EBENE_1
  0
POLYLINE
  5
BA
  8
EBENE_1
 62
   250
 66
     1
 10
0.0
 20
0.0
 30
0.0
 70
     1
  0
VERTEX
  5
4EA
  8
EBENE_1
 62
   250
 10
-0.9598
 20
122.4699
 30
0.0
  0
VERTEX
  5
4EB
  8
EBENE_1
 62
   250
 10
12.1595
 20
122.4699
 30
0.0
  0
VERTEX
  5
4EC
  8
EBENE_1
 62
   250
 10
12.1595
 20
105.4699
 30
0.0
  0
VERTEX
  5
4ED
  8
EBENE_1
 62
   250
 10
-0.9598
 20
105.4699
 30
0.0
  0
VERTEX
  5
4EE
  8
EBENE_1
 62
   250
 10
-0.9598
 20
122.4699
 30
0.0
  0
SEQEND
  5
613
  8
EBENE_1
 62
   250
  0
POLYLINE
  5
BB
  8
EBENE_1
 62
   250
 66
     1
 10
0.0
 20
0.0
 30
0.0
 70
     1
  0
VERTEX
  5
4EF
  8
EBENE_1
 62
   250
 10
-22.2449
 20
122.4699
 30
0.0
  0
VERTEX
  5
4F0
  8
EBENE_1
 62
   250
 10
-9.1764
 20
122.4699
 30
0.0
  0
VERTEX
  5
4F1
  8
EBENE_1
 62
   250
 10
-9.1764
 20
105.4687
 30
0.0
  0
VERTEX
  5
4F2
  8
EBENE_1
 62
   250
 10
-22.2449
 20
105.4687
 30
0.0
  0
VERTEX
  5
4F3
  8
EBENE_1
 62
   250
 10
-22.2449
 20
122.4699
 30
0.0
  0
SEQEND
  5
614
  8
EBENE_1
 62
   250
  0
POLYLINE
  5
BC
  8
EBENE_1
 62
   250
 66
     1
 10
0.0
 20
0.0
 30
0.0
 70
     1
  0
VERTEX
  5
4F4
  8
EBENE_1
 62
   250
 10
-0.9604
 20
134.6662
 30
0.0
  0
VERTEX
  5
4F5
  8
EBENE_1
 62
   250
 10
5.5728
 20
134.6662
 30
0.0
  0
VERTEX
  5
4F6
  8
EBENE_1
 62
   250
 10
6.8852
 20
134.5952
 30
0.0
  0
VERTEX
  5
4F7
  8
EBENE_1
 62
   250
 10
8.1096
 20
134.3915
 30
0.0
  0
VERTEX
  5
4F8
  8
EBENE_1
 62
   250
 10
9.2191
 20
134.0696
 30
0.0
  0
VERTEX
  5
4F9
  8
EBENE_1
 62
   250
 10
10.187
 20
133.6437
 30
0.0
  0
VERTEX
  5
4FA
  8
EBENE_1
 62
   250
 10
10.9865
 20
133.128
 30
0.0
  0
VERTEX
  5
4FB
  8
EBENE_1
 62
   250
 10
11.5907
 20
132.5369
 30
0.0
  0
VERTEX
  5
4FC
  8
EBENE_1
 62
   250
 10
11.9729
 20
131.8845
 30
0.0
  0
VERTEX
  5
4FD
  8
EBENE_1
 62
   250
 10
12.1062
 20
131.1853
 30
0.0
  0
VERTEX
  5
4FE
  8
EBENE_1
 62
   250
 10
12.1062
 20
125.8983
 30
0.0
  0
VERTEX
  5
4FF
  8
EBENE_1
 62
   250
 10
-0.9604
 20
125.8983
 30
0.0
  0
VERTEX
  5
500
  8
EBENE_1
 62
   250
 10
-0.9604
 20
134.6662
 30
0.0
  0
SEQEND
  5
615
  8
EBENE_1
 62
   250
  0
POLYLINE
  5
BD
  8
EBENE_1
 62
   250
 66
     1
 10
0.0
 20
0.0
 30
0.0
 70
     1
  0
VERTEX
  5
501
  8
EBENE_1
 62
   250
 10
-9.1873
 20
134.7035
 30
0.0
  0
VERTEX
  5
502
  8
EBENE_1
 62
   250
 10
-15.7204
 20
134.7035
 30
0.0
  0
VERTEX
  5
503
  8
EBENE_1
 62
   250
 10
-17.0328
 20
134.6325
 30
0.0
  0
VERTEX
  5
504
  8
EBENE_1
 62
   250
 10
-18.2572
 20
134.4288
 30
0.0
  0
VERTEX
  5
505
  8
EBENE_1
 62
   250
 10
-19.3667
 20
134.1069
 30
0.0
  0
VERTEX
  5
506
  8
EBENE_1
 62
   250
 10
-20.3346
 20
133.681
 30
0.0
  0
VERTEX
  5
507
  8
EBENE_1
 62
   250
 10
-21.1341
 20
133.1653
 30
0.0
  0
VERTEX
  5
508
  8
EBENE_1
 62
   250
 10
-21.7383
 20
132.5742
 30
0.0
  0
VERTEX
  5
509
  8
EBENE_1
 62
   250
 10
-22.1205
 20
131.9218
 30
0.0
  0
VERTEX
  5
50A
  8
EBENE_1
 62
   250
 10
-22.2538
 20
131.2226
 30
0.0
  0
VERTEX
  5
50B
  8
EBENE_1
 62
   250
 10
-22.2538
 20
125.9356
 30
0.0
  0
VERTEX
  5
50C
  8
EBENE_1
 62
   250
 10
-9.1873
 20
125.9356
 30
0.0
  0
VERTEX
  5
50D
  8
EBENE_1
 62
   250
 10
-9.1873
 20
134.7035
 30
0.0
  0
SEQEND
  5
616
  8
EBENE_1
 62
   250
  0
POLYLINE
  5
BE
  8
EBENE_1
 62
   250
 66
     1
 10
0.0
 20
0.0
 30
0.0
 70
     1
  0
VERTEX
  5
50E
  8
EBENE_1
 62
   250
 10
-6.9378
 20
105.4731
 30
0.0
  0
VERTEX
  5
50F
  8
EBENE_1
 62
   250
 10
-2.9378
 20
105.4731
 30
0.0
  0
VERTEX
  5
510
  8
EBENE_1
 62
   250
 10
-2.9378
 20
134.6983
 30
0.0
  0
VERTEX
  5
511
  8
EBENE_1
 62
   250
 10
-6.9378
 20
134.6983
 30
0.0
  0
VERTEX
  5
512
  8
EBENE_1
 62
   250
 10
-6.9378
 20
105.4731
 30
0.0
  0
SEQEND
  5
617
  8
EBENE_1
 62
   250
  0
POLYLINE
  5
BF
  8
EBENE_1
 62
   250
 66
     1
 10
0.0
 20
0.0
 30
0.0
 70
     1
  0
VERTEX
  5
513
  8
EBENE_1
 62
   250
 10
-99.1742
 20
122.6431
 30
0.0
  0
VERTEX
  5
514
  8
EBENE_1
 62
   250
 10
-86.0549
 20
122.6431
 30
0.0
  0
VERTEX
  5
515
  8
EBENE_1
 62
   250
 10
-86.0549
 20
105.6431
 30
0.0
  0
VERTEX
  5
516
  8
EBENE_1
 62
   250
 10
-99.1742
 20
105.6431
 30
0.0
  0
VERTEX
  5
517
  8
EBENE_1
 62
   250
 10
-99.1742
 20
122.6431
 30
0.0
  0
SEQEND
  5
618
  8
EBENE_1
 62
   250
  0
POLYLINE
  5
C0
  8
EBENE_1
 62
   250
 66
     1
 10
0.0
 20
0.0
 30
0.0
 70
     1
  0
VERTEX
  5
518
  8
EBENE_1
 62
   250
 10
-120.4593
 20
122.6431
 30
0.0
  0
VERTEX
  5
519
  8
EBENE_1
 62
   250
 10
-107.3908
 20
122.6431
 30
0.0
  0
VERTEX
  5
51A
  8
EBENE_1
 62
   250
 10
-107.3908
 20
105.6419
 30
0.0
  0
VERTEX
  5
51B
  8
EBENE_1
 62
   250
 10
-120.4593
 20
105.6419
 30
0.0
  0
VERTEX
  5
51C
  8
EBENE_1
 62
   250
 10
-120.4593
 20
122.6431
 30
0.0
  0
SEQEND
  5
619
  8
EBENE_1
 62
   250
  0
POLYLINE
  5
C1
  8
EBENE_1
 62
   250
 66
     1
 10
0.0
 20
0.0
 30
0.0
 70
     1
  0
VERTEX
  5
51D
  8
EBENE_1
 62
   250
 10
-99.1748
 20
134.8394
 30
0.0
  0
VERTEX
  5
51E
  8
EBENE_1
 62
   250
 10
-92.6416
 20
134.8394
 30
0.0
  0
VERTEX
  5
51F
  8
EBENE_1
 62
   250
 10
-91.3292
 20
134.7684
 30
0.0
  0
VERTEX
  5
520
  8
EBENE_1
 62
   250
 10
-90.1048
 20
134.5647
 30
0.0
  0
VERTEX
  5
521
  8
EBENE_1
 62
   250
 10
-88.9953
 20
134.2428
 30
0.0
  0
VERTEX
  5
522
  8
EBENE_1
 62
   250
 10
-88.0274
 20
133.8169
 30
0.0
  0
VERTEX
  5
523
  8
EBENE_1
 62
   250
 10
-87.2279
 20
133.3012
 30
0.0
  0
VERTEX
  5
524
  8
EBENE_1
 62
   250
 10
-86.6237
 20
132.7101
 30
0.0
  0
VERTEX
  5
525
  8
EBENE_1
 62
   250
 10
-86.2415
 20
132.0577
 30
0.0
  0
VERTEX
  5
526
  8
EBENE_1
 62
   250
 10
-86.1082
 20
131.3585
 30
0.0
  0
VERTEX
  5
527
  8
EBENE_1
 62
   250
 10
-86.1082
 20
126.0715
 30
0.0
  0
VERTEX
  5
528
  8
EBENE_1
 62
   250
 10
-99.1748
 20
126.0715
 30
0.0
  0
VERTEX
  5
529
  8
EBENE_1
 62
   250
 10
-99.1748
 20
134.8394
 30
0.0
  0
SEQEND
  5
61A
  8
EBENE_1
 62
   250
  0
POLYLINE
  5
C2
  8
EBENE_1
 62
   250
 66
     1
 10
0.0
 20
0.0
 30
0.0
 70
     1
  0
VERTEX
  5
52A
  8
EBENE_1
 62
   250
 10
-107.4017
 20
134.8767
 30
0.0
  0
VERTEX
  5
52B
  8
EBENE_1
 62
   250
 10
-113.9348
 20
134.8767
 30
0.0
  0
VERTEX
  5
52C
  8
EBENE_1
 62
   250
 10
-115.2472
 20
134.8057
 30
0.0
  0
VERTEX
  5
52D
  8
EBENE_1
 62
   250
 10
-116.4716
 20
134.602
 30
0.0
  0
VERTEX
  5
52E
  8
EBENE_1
 62
   250
 10
-117.5811
 20
134.2801
 30
0.0
  0
VERTEX
  5
52F
  8
EBENE_1
 62
   250
 10
-118.549
 20
133.8542
 30
0.0
  0
VERTEX
  5
530
  8
EBENE_1
 62
   250
 10
-119.3485
 20
133.3385
 30
0.0
  0
VERTEX
  5
531
  8
EBENE_1
 62
   250
 10
-119.9527
 20
132.7474
 30
0.0
  0
VERTEX
  5
532
  8
EBENE_1
 62
   250
 10
-120.3349
 20
132.095
 30
0.0
  0
VERTEX
  5
533
  8
EBENE_1
 62
   250
 10
-120.4682
 20
131.3958
 30
0.0
  0
VERTEX
  5
534
  8
EBENE_1
 62
   250
 10
-120.4682
 20
126.1088
 30
0.0
  0
VERTEX
  5
535
  8
EBENE_1
 62
   250
 10
-107.4017
 20
126.1088
 30
0.0
  0
VERTEX
  5
536
  8
EBENE_1
 62
   250
 10
-107.4017
 20
134.8767
 30
0.0
  0
SEQEND
  5
61B
  8
EBENE_1
 62
   250
  0
POLYLINE
  5
C3
  8
EBENE_1
 62
   250
 66
     1
 10
0.0
 20
0.0
 30
0.0
 70
     1
  0
VERTEX
  5
537
  8
EBENE_1
 62
   250
 10
-105.1522
 20
105.6463
 30
0.0
  0
VERTEX
  5
538
  8
EBENE_1
 62
   250
 10
-101.1522
 20
105.6463
 30
0.0
  0
VERTEX
  5
539
  8
EBENE_1
 62
   250
 10
-101.1522
 20
134.8715
 30
0.0
  0
VERTEX
  5
53A
  8
EBENE_1
 62
   250
 10
-105.1522
 20
134.8715
 30
0.0
  0
VERTEX
  5
53B
  8
EBENE_1
 62
   250
 10
-105.1522
 20
105.6463
 30
0.0
  0
SEQEND
  5
61C
  8
EBENE_1
 62
   250
  0
POLYLINE
  5
C4
  8
EBENE_1
 62
   250
 66
     1
 10
0.0
 20
0.0
 30
0.0
 70
     1
  0
VERTEX
  5
53C
  8
EBENE_1
 62
   250
 10
307.8307
 20
-36.3076
 30
0.0
  0
VERTEX
  5
53D
  8
EBENE_1
 62
   250
 10
312.6852
 20
-32.9791
 30
0.0
  0
VERTEX
  5
53E
  8
EBENE_1
 62
   250
 10
317.7699
 20
-36.3344
 30
0.0
  0
VERTEX
  5
53F
  8
EBENE_1
 62
   250
 10
317.7685
 20
-44.176
 30
0.0
  0
VERTEX
  5
540
  8
EBENE_1
 62
   250
 10
312.9588
 20
-44.1758
 30
0.0
  0
VERTEX
  5
541
  8
EBENE_1
 62
   250
 10
312.9588
 20
-64.3314
 30
0.0
  0
VERTEX
  5
542
  8
EBENE_1
 62
   250
 10
317.768
 20
-64.2886
 30
0.0
  0
VERTEX
  5
543
  8
EBENE_1
 62
   250
 10
317.768
 20
-72.9554
 30
0.0
  0
VERTEX
  5
544
  8
EBENE_1
 62
   250
 10
308.0102
 20
-72.93
 30
0.0
  0
VERTEX
  5
545
  8
EBENE_1
 62
   250
 10
308.0116
 20
-68.9446
 30
0.0
  0
VERTEX
  5
546
  8
EBENE_1
 62
   250
 10
298.4743
 20
-68.9367
 30
0.0
  0
VERTEX
  5
547
  8
EBENE_1
 62
   250
 10
298.477
 20
-72.9242
 30
0.0
  0
VERTEX
  5
548
  8
EBENE_1
 62
   250
 10
288.7543
 20
-72.9168
 30
0.0
  0
VERTEX
  5
549
  8
EBENE_1
 62
   250
 10
288.7939
 20
-68.9362
 30
0.0
  0
VERTEX
  5
54A
  8
EBENE_1
 62
   250
 10
279.4145
 20
-68.9362
 30
0.0
  0
VERTEX
  5
54B
  8
EBENE_1
 62
   250
 10
279.456
 20
-72.917
 30
0.0
  0
VERTEX
  5
54C
  8
EBENE_1
 62
   250
 10
269.8536
 20
-72.917
 30
0.0
  0
VERTEX
  5
54D
  8
EBENE_1
 62
   250
 10
269.8121
 20
-68.9362
 30
0.0
  0
VERTEX
  5
54E
  8
EBENE_1
 62
   250
 10
222.4689
 20
-68.9362
 30
0.0
  0
VERTEX
  5
54F
  8
EBENE_1
 62
   250
 10
222.4555
 20
-72.9361
 30
0.0
  0
VERTEX
  5
550
  8
EBENE_1
 62
   250
 10
212.8532
 20
-72.9361
 30
0.0
  0
VERTEX
  5
551
  8
EBENE_1
 62
   250
 10
212.8665
 20
-68.9362
 30
0.0
  0
VERTEX
  5
552
  8
EBENE_1
 62
   250
 10
203.248
 20
-68.9362
 30
0.0
  0
VERTEX
  5
553
  8
EBENE_1
 62
   250
 10
203.2342
 20
-72.9361
 30
0.0
  0
VERTEX
  5
554
  8
EBENE_1
 62
   250
 10
193.6318
 20
-72.9361
 30
0.0
  0
VERTEX
  5
555
  8
EBENE_1
 62
   250
 10
193.6452
 20
-68.9362
 30
0.0
  0
VERTEX
  5
556
  8
EBENE_1
 62
   250
 10
184.2662
 20
-68.9362
 30
0.0
  0
VERTEX
  5
557
  8
EBENE_1
 62
   250
 10
184.2528
 20
-72.9361
 30
0.0
  0
VERTEX
  5
558
  8
EBENE_1
 62
   250
 10
174.65
 20
-72.9361
 30
0.0
  0
VERTEX
  5
559
  8
EBENE_1
 62
   250
 10
174.6638
 20
-68.9362
 30
0.0
  0
VERTEX
  5
55A
  8
EBENE_1
 62
   250
 10
165.2843
 20
-68.9362
 30
0.0
  0
VERTEX
  5
55B
  8
EBENE_1
 62
   250
 10
165.2709
 20
-72.9361
 30
0.0
  0
VERTEX
  5
55C
  8
EBENE_1
 62
   250
 10
155.6681
 20
-72.9361
 30
0.0
  0
VERTEX
  5
55D
  8
EBENE_1
 62
   250
 10
155.682
 20
-68.9362
 30
0.0
  0
VERTEX
  5
55E
  8
EBENE_1
 62
   250
 10
146.3025
 20
-68.9362
 30
0.0
  0
VERTEX
  5
55F
  8
EBENE_1
 62
   250
 10
146.2891
 20
-72.9361
 30
0.0
  0
VERTEX
  5
560
  8
EBENE_1
 62
   250
 10
136.6863
 20
-72.9361
 30
0.0
  0
VERTEX
  5
561
  8
EBENE_1
 62
   250
 10
136.7001
 20
-68.9362
 30
0.0
  0
VERTEX
  5
562
  8
EBENE_1
 62
   250
 10
127.3921
 20
-68.946
 30
0.0
  0
VERTEX
  5
563
  8
EBENE_1
 62
   250
 10
127.3991
 20
-72.9377
 30
0.0
  0
VERTEX
  5
564
  8
EBENE_1
 62
   250
 10
117.8327
 20
-72.9792
 30
0.0
  0
VERTEX
  5
565
  8
EBENE_1
 62
   250
 10
117.7962
 20
-64.3352
 30
0.0
  0
VERTEX
  5
566
  8
EBENE_1
 62
   250
 10
122.7185
 20
-64.3314
 30
0.0
  0
VERTEX
  5
567
  8
EBENE_1
 62
   250
 10
122.7185
 20
-44.1758
 30
0.0
  0
VERTEX
  5
568
  8
EBENE_1
 62
   250
 10
117.7824
 20
-44.1758
 30
0.0
  0
VERTEX
  5
569
  8
EBENE_1
 62
   250
 10
117.7699
 20
-36.5035
 30
0.0
  0
VERTEX
  5
56A
  8
EBENE_1
 62
   250
 10
122.6
 20
-33.2338
 30
0.0
  0
VERTEX
  5
56B
  8
EBENE_1
 62
   250
 10
127.4
 20
-36.2654
 30
0.0
  0
VERTEX
  5
56C
  8
EBENE_1
 62
   250
 10
127.3991
 20
-38.7849
 30
0.0
  0
VERTEX
  5
56D
  8
EBENE_1
 62
   250
 10
136.7001
 20
-38.7849
 30
0.0
  0
VERTEX
  5
56E
  8
EBENE_1
 62
   250
 10
136.7001
 20
-36.2624
 30
0.0
  0
VERTEX
  5
56F
  8
EBENE_1
 62
   250
 10
141.5297
 20
-32.9927
 30
0.0
  0
VERTEX
  5
570
  8
EBENE_1
 62
   250
 10
146.3025
 20
-36.2272
 30
0.0
  0
VERTEX
  5
571
  8
EBENE_1
 62
   250
 10
146.3025
 20
-38.7849
 30
0.0
  0
VERTEX
  5
572
  8
EBENE_1
 62
   250
 10
155.682
 20
-38.7849
 30
0.0
  0
VERTEX
  5
573
  8
EBENE_1
 62
   250
 10
155.682
 20
-36.2272
 30
0.0
  0
VERTEX
  5
574
  8
EBENE_1
 62
   250
 10
160.4543
 20
-32.9927
 30
0.0
  0
VERTEX
  5
575
  8
EBENE_1
 62
   250
 10
165.2843
 20
-36.244
 30
0.0
  0
VERTEX
  5
576
  8
EBENE_1
 62
   250
 10
165.2843
 20
-38.7849
 30
0.0
  0
VERTEX
  5
577
  8
EBENE_1
 62
   250
 10
174.6638
 20
-38.7849
 30
0.0
  0
VERTEX
  5
578
  8
EBENE_1
 62
   250
 10
174.6638
 20
-36.2272
 30
0.0
  0
VERTEX
  5
579
  8
EBENE_1
 62
   250
 10
179.4362
 20
-32.9927
 30
0.0
  0
VERTEX
  5
57A
  8
EBENE_1
 62
   250
 10
184.2662
 20
-36.2624
 30
0.0
  0
VERTEX
  5
57B
  8
EBENE_1
 62
   250
 10
184.2662
 20
-38.7849
 30
0.0
  0
VERTEX
  5
57C
  8
EBENE_1
 62
   250
 10
193.6452
 20
-38.7849
 30
0.0
  0
VERTEX
  5
57D
  8
EBENE_1
 62
   250
 10
193.6452
 20
-36.2272
 30
0.0
  0
VERTEX
  5
57E
  8
EBENE_1
 62
   250
 10
198.418
 20
-32.9927
 30
0.0
  0
VERTEX
  5
57F
  8
EBENE_1
 62
   250
 10
203.248
 20
-36.2624
 30
0.0
  0
VERTEX
  5
580
  8
EBENE_1
 62
   250
 10
203.248
 20
-38.7849
 30
0.0
  0
VERTEX
  5
581
  8
EBENE_1
 62
   250
 10
212.8665
 20
-38.7849
 30
0.0
  0
VERTEX
  5
582
  8
EBENE_1
 62
   250
 10
212.8665
 20
-36.2624
 30
0.0
  0
VERTEX
  5
583
  8
EBENE_1
 62
   250
 10
217.6966
 20
-32.9927
 30
0.0
  0
VERTEX
  5
584
  8
EBENE_1
 62
   250
 10
222.4689
 20
-36.2272
 30
0.0
  0
VERTEX
  5
585
  8
EBENE_1
 62
   250
 10
222.4689
 20
-38.7849
 30
0.0
  0
VERTEX
  5
586
  8
EBENE_1
 62
   250
 10
269.8121
 20
-38.7849
 30
0.0
  0
VERTEX
  5
587
  8
EBENE_1
 62
   250
 10
269.8121
 20
-36.2272
 30
0.0
  0
VERTEX
  5
588
  8
EBENE_1
 62
   250
 10
274.5844
 20
-32.9927
 30
0.0
  0
VERTEX
  5
589
  8
EBENE_1
 62
   250
 10
279.4145
 20
-36.2624
 30
0.0
  0
VERTEX
  5
58A
  8
EBENE_1
 62
   250
 10
279.4145
 20
-38.7849
 30
0.0
  0
VERTEX
  5
58B
  8
EBENE_1
 62
   250
 10
288.7939
 20
-38.7849
 30
0.0
  0
VERTEX
  5
58C
  8
EBENE_1
 62
   250
 10
288.7939
 20
-36.2272
 30
0.0
  0
VERTEX
  5
58D
  8
EBENE_1
 62
   250
 10
293.5663
 20
-32.9927
 30
0.0
  0
VERTEX
  5
58E
  8
EBENE_1
 62
   250
 10
298.3963
 20
-36.2624
 30
0.0
  0
VERTEX
  5
58F
  8
EBENE_1
 62
   250
 10
298.3963
 20
-38.7849
 30
0.0
  0
VERTEX
  5
590
  8
EBENE_1
 62
   250
 10
307.8326
 20
-38.7861
 30
0.0
  0
VERTEX
  5
591
  8
EBENE_1
 62
   250
 10
307.8307
 20
-36.3076
 30
0.0
  0
SEQEND
  5
61D
  8
EBENE_1
 62
   250
  0
POLYLINE
  5
C5
  8
EBENE_1
 62
   250
 66
     1
 10
0.0
 20
0.0
 30
0.0
 70
     1
  0
VERTEX
  5
592
  8
EBENE_1
 62
   250
 10
127.5299
 20
-44.1774
 30
0.0
  0
VERTEX
  5
593
  8
EBENE_1
 62
   250
 10
136.8523
 20
-44.1774
 30
0.0
  0
VERTEX
  5
594
  8
EBENE_1
 62
   250
 10
136.8523
 20
-64.3353
 30
0.0
  0
VERTEX
  5
595
  8
EBENE_1
 62
   250
 10
127.5299
 20
-64.3353
 30
0.0
  0
VERTEX
  5
596
  8
EBENE_1
 62
   250
 10
127.5299
 20
-44.1774
 30
0.0
  0
SEQEND
  5
61E
  8
EBENE_1
 62
   250
  0
POLYLINE
  5
C6
  8
EBENE_1
 62
   250
 66
     1
 10
0.0
 20
0.0
 30
0.0
 70
     1
  0
VERTEX
  5
597
  8
EBENE_1
 62
   250
 10
146.5981
 20
-44.1736
 30
0.0
  0
VERTEX
  5
598
  8
EBENE_1
 62
   250
 10
155.9205
 20
-44.1736
 30
0.0
  0
VERTEX
  5
599
  8
EBENE_1
 62
   250
 10
155.9205
 20
-64.3315
 30
0.0
  0
VERTEX
  5
59A
  8
EBENE_1
 62
   250
 10
146.5981
 20
-64.3315
 30
0.0
  0
VERTEX
  5
59B
  8
EBENE_1
 62
   250
 10
146.5981
 20
-44.1736
 30
0.0
  0
SEQEND
  5
61F
  8
EBENE_1
 62
   250
  0
POLYLINE
  5
C7
  8
EBENE_1
 62
   250
 66
     1
 10
0.0
 20
0.0
 30
0.0
 70
     1
  0
VERTEX
  5
59C
  8
EBENE_1
 62
   250
 10
165.4154
 20
-44.1736
 30
0.0
  0
VERTEX
  5
59D
  8
EBENE_1
 62
   250
 10
174.7378
 20
-44.1736
 30
0.0
  0
VERTEX
  5
59E
  8
EBENE_1
 62
   250
 10
174.7378
 20
-64.3315
 30
0.0
  0
VERTEX
  5
59F
  8
EBENE_1
 62
   250
 10
165.4154
 20
-64.3315
 30
0.0
  0
VERTEX
  5
5A0
  8
EBENE_1
 62
   250
 10
165.4154
 20
-44.1736
 30
0.0
  0
SEQEND
  5
620
  8
EBENE_1
 62
   250
  0
POLYLINE
  5
C8
  8
EBENE_1
 62
   250
 66
     1
 10
0.0
 20
0.0
 30
0.0
 70
     1
  0
VERTEX
  5
5A1
  8
EBENE_1
 62
   250
 10
184.5228
 20
-44.1736
 30
0.0
  0
VERTEX
  5
5A2
  8
EBENE_1
 62
   250
 10
193.8452
 20
-44.1736
 30
0.0
  0
VERTEX
  5
5A3
  8
EBENE_1
 62
   250
 10
193.8452
 20
-64.3315
 30
0.0
  0
VERTEX
  5
5A4
  8
EBENE_1
 62
   250
 10
184.5228
 20
-64.3315
 30
0.0
  0
VERTEX
  5
5A5
  8
EBENE_1
 62
   250
 10
184.5228
 20
-44.1736
 30
0.0
  0
SEQEND
  5
621
  8
EBENE_1
 62
   250
  0
POLYLINE
  5
C9
  8
EBENE_1
 62
   250
 66
     1
 10
0.0
 20
0.0
 30
0.0
 70
     1
  0
VERTEX
  5
5A6
  8
EBENE_1
 62
   250
 10
279.6289
 20
-44.1736
 30
0.0
  0
VERTEX
  5
5A7
  8
EBENE_1
 62
   250
 10
288.9513
 20
-44.1736
 30
0.0
  0
VERTEX
  5
5A8
  8
EBENE_1
 62
   250
 10
288.9513
 20
-64.3315
 30
0.0
  0
VERTEX
  5
5A9
  8
EBENE_1
 62
   250
 10
279.6289
 20
-64.3315
 30
0.0
  0
VERTEX
  5
5AA
  8
EBENE_1
 62
   250
 10
279.6289
 20
-44.1736
 30
0.0
  0
SEQEND
  5
622
  8
EBENE_1
 62
   250
  0
POLYLINE
  5
CA
  8
EBENE_1
 62
   250
 66
     1
 10
0.0
 20
0.0
 30
0.0
 70
     1
  0
VERTEX
  5
5AB
  8
EBENE_1
 62
   250
 10
298.6553
 20
-44.1736
 30
0.0
  0
VERTEX
  5
5AC
  8
EBENE_1
 62
   250
 10
307.9777
 20
-44.1736
 30
0.0
  0
VERTEX
  5
5AD
  8
EBENE_1
 62
   250
 10
307.9777
 20
-64.3315
 30
0.0
  0
VERTEX
  5
5AE
  8
EBENE_1
 62
   250
 10
298.6553
 20
-64.3315
 30
0.0
  0
VERTEX
  5
5AF
  8
EBENE_1
 62
   250
 10
298.6553
 20
-44.1736
 30
0.0
  0
SEQEND
  5
623
  8
EBENE_1
 62
   250
  0
POLYLINE
  5
CB
  8
EBENE_1
 62
   250
 66
     1
 10
0.0
 20
0.0
 30
0.0
 70
     1
  0
VERTEX
  5
5B0
  8
EBENE_1
 62
   250
 10
203.6101
 20
-44.1668
 30
0.0
  0
VERTEX
  5
5B1
  8
EBENE_1
 62
   250
 10
212.9325
 20
-44.1668
 30
0.0
  0
VERTEX
  5
5B2
  8
EBENE_1
 62
   250
 10
212.9325
 20
-64.3247
 30
0.0
  0
VERTEX
  5
5B3
  8
EBENE_1
 62
   250
 10
203.6101
 20
-64.3247
 30
0.0
  0
VERTEX
  5
5B4
  8
EBENE_1
 62
   250
 10
203.6101
 20
-44.1668
 30
0.0
  0
SEQEND
  5
624
  8
EBENE_1
 62
   250
  0
POLYLINE
  5
CC
  8
EBENE_1
 62
   250
 66
     1
 10
0.0
 20
0.0
 30
0.0
 70
     1
  0
VERTEX
  5
5B5
  8
EBENE_1
 62
   250
 10
222.4873
 20
-47.064
 30
0.0
  0
VERTEX
  5
5B6
  8
EBENE_1
 62
   250
 10
269.8563
 20
-47.064
 30
0.0
  0
VERTEX
  5
5B7
  8
EBENE_1
 62
   250
 10
269.8563
 20
-44.064
 30
0.0
  0
VERTEX
  5
5B8
  8
EBENE_1
 62
   250
 10
222.4873
 20
-44.064
 30
0.0
  0
VERTEX
  5
5B9
  8
EBENE_1
 62
   250
 10
222.4873
 20
-47.064
 30
0.0
  0
SEQEND
  5
625
  8
EBENE_1
 62
   250
  0
POLYLINE
  5
CD
  8
EBENE_1
 62
   250
 66
     1
 10
0.0
 20
0.0
 30
0.0
 70
     1
  0
VERTEX
  5
5BA
  8
EBENE_1
 62
   250
 10
222.4743
 20
-52.8307
 30
0.0
  0
VERTEX
  5
5BB
  8
EBENE_1
 62
   250
 10
269.8433
 20
-52.8307
 30
0.0
  0
VERTEX
  5
5BC
  8
EBENE_1
 62
   250
 10
269.8433
 20
-49.8307
 30
0.0
  0
VERTEX
  5
5BD
  8
EBENE_1
 62
   250
 10
222.4743
 20
-49.8307
 30
0.0
  0
VERTEX
  5
5BE
  8
EBENE_1
 62
   250
 10
222.4743
 20
-52.8307
 30
0.0
  0
SEQEND
  5
626
  8
EBENE_1
 62
   250
  0
POLYLINE
  5
CE
  8
EBENE_1
 62
   250
 66
     1
 10
0.0
 20
0.0
 30
0.0
 70
     1
  0
VERTEX
  5
5BF
  8
EBENE_1
 62
   250
 10
222.4005
 20
-58.7206
 30
0.0
  0
VERTEX
  5
5C0
  8
EBENE_1
 62
   250
 10
269.7695
 20
-58.7206
 30
0.0
  0
VERTEX
  5
5C1
  8
EBENE_1
 62
   250
 10
269.7695
 20
-55.7206
 30
0.0
  0
VERTEX
  5
5C2
  8
EBENE_1
 62
   250
 10
222.4005
 20
-55.7206
 30
0.0
  0
VERTEX
  5
5C3
  8
EBENE_1
 62
   250
 10
222.4005
 20
-58.7206
 30
0.0
  0
SEQEND
  5
627
  8
EBENE_1
 62
   250
  0
POLYLINE
  5
CF
  8
EBENE_1
 62
   250
 66
     1
 10
0.0
 20
0.0
 30
0.0
 70
     1
  0
VERTEX
  5
5C4
  8
EBENE_1
 62
   250
 10
222.4243
 20
-64.4151
 30
0.0
  0
VERTEX
  5
5C5
  8
EBENE_1
 62
   250
 10
269.7933
 20
-64.4151
 30
0.0
  0
VERTEX
  5
5C6
  8
EBENE_1
 62
   250
 10
269.7933
 20
-61.4151
 30
0.0
  0
VERTEX
  5
5C7
  8
EBENE_1
 62
   250
 10
222.4243
 20
-61.4151
 30
0.0
  0
VERTEX
  5
5C8
  8
EBENE_1
 62
   250
 10
222.4243
 20
-64.4151
 30
0.0
  0
SEQEND
  5
628
  8
EBENE_1
 62
   250
  0
ENDSEC
  0
EOF
