  0
SECTION
  2
HEADER
  9
$EXTMIN
 10
0.000000
 20
0.000000
  9
$EXTMAX
 10
39.370079
 20
27.559055
  9
$LTSCALE
 40
100.000000
  9
$PDMODE
 70
35
  9
$PDSIZE
 40
80.000000
  0
ENDSEC
  0
SECTION
  2
TABLES
  0
TABLE
  2
LAYER
 70
1
  0
LAYER
  2
LAYER_1
 70
0
 62
1
  6
CONTINUOUS
  0
ENDTAB
  0
ENDSEC
  0
SECTION
  2
BLOCKS
  0
ENDSEC
  0
SECTION
  2
ENTITIES
  0
POLYLINE
  8
LAYER_1
 62
0
 70
1
 66
1
  0
VERTEX
  8
LAYER_1
 62
7
 10
38.316362
 20
20.847752
  0
VERTEX
  8
LAYER_1
 62
7
 10
1.053717
 20
20.847752
  0
VERTEX
  8
LAYER_1
 62
7
 10
1.053717
 20
6.711303
  0
VERTEX
  8
LAYER_1
 62
7
 10
38.316362
 20
6.711303
  0
VERTEX
  8
LAYER_1
 62
7
 10
38.316362
 20
20.847752
  0
SEQEND
  0
POLYLINE
  8
LAYER_1
 62
7
 70
1
 66
1
  0
VERTEX
  8
LAYER_1
 62
7
 10
29.413367
 20
19.738225
 42
-0.221766
  0
VERTEX
  8
LAYER_1
 62
7
 10
29.497080
 20
19.703647
 42
-0.123597
  0
VERTEX
  8
LAYER_1
 62
7
 10
29.536498
 20
19.619706
 42
-0.035351
  0
VERTEX
  8
LAYER_1
 62
7
 10
29.551658
 20
19.515826
  0
VERTEX
  8
LAYER_1
 62
7
 10
29.556404
 20
19.465603
  0
VERTEX
  8
LAYER_1
 62
7
 10
29.562599
 20
19.421430
 42
-0.008918
  0
VERTEX
  8
LAYER_1
 62
7
 10
29.576656
 20
17.878083
 42
0.005175
  0
VERTEX
  8
LAYER_1
 62
7
 10
29.579167
 20
16.334560
 42
0.061335
  0
VERTEX
  8
LAYER_1
 62
7
 10
29.662859
 20
16.226896
 42
0.031501
  0
VERTEX
  8
LAYER_1
 62
7
 10
29.766016
 20
16.135712
 42
-0.022631
  0
VERTEX
  8
LAYER_1
 62
7
 10
29.981859
 20
15.961715
 42
0.209037
  0
VERTEX
  8
LAYER_1
 62
7
 10
30.096966
 20
15.924879
 42
0.068644
  0
VERTEX
  8
LAYER_1
 62
7
 10
30.215048
 20
15.957852
  0
VERTEX
  8
LAYER_1
 62
7
 10
30.274193
 20
15.978957
 42
-0.051247
  0
VERTEX
  8
LAYER_1
 62
7
 10
30.332866
 20
15.991641
 42
-0.209538
  0
VERTEX
  8
LAYER_1
 62
7
 10
30.447180
 20
15.957250
 42
-0.131782
  0
VERTEX
  8
LAYER_1
 62
7
 10
30.505728
 20
15.834413
 42
-0.056486
  0
VERTEX
  8
LAYER_1
 62
7
 10
30.515804
 20
15.696858
  0
VERTEX
  8
LAYER_1
 62
7
 10
30.516009
 20
15.128484
 42
-0.007296
  0
VERTEX
  8
LAYER_1
 62
7
 10
30.511456
 20
14.560462
 42
-0.210613
  0
VERTEX
  8
LAYER_1
 62
7
 10
30.448047
 20
14.454017
 42
-0.145121
  0
VERTEX
  8
LAYER_1
 62
7
 10
30.392630
 20
14.435688
 42
-0.160787
  0
VERTEX
  8
LAYER_1
 62
7
 10
30.331673
 20
14.455530
 42
0.015216
  0
VERTEX
  8
LAYER_1
 62
7
 10
30.123453
 20
14.581275
 42
-0.028875
  0
VERTEX
  8
LAYER_1
 62
7
 10
29.919111
 20
14.712397
 42
-0.206856
  0
VERTEX
  8
LAYER_1
 62
7
 10
29.869729
 20
14.802641
 42
-0.012509
  0
VERTEX
  8
LAYER_1
 62
7
 10
29.861822
 20
14.883771
  0
VERTEX
  8
LAYER_1
 62
7
 10
29.858595
 20
14.909453
  0
VERTEX
  8
LAYER_1
 62
7
 10
29.857049
 20
15.114813
 42
0.003084
  0
VERTEX
  8
LAYER_1
 62
7
 10
29.855893
 20
15.730934
 42
0.103433
  0
VERTEX
  8
LAYER_1
 62
7
 10
29.794981
 20
15.845179
 42
0.055090
  0
VERTEX
  8
LAYER_1
 62
7
 10
29.701020
 20
15.934219
  0
VERTEX
  8
LAYER_1
 62
7
 10
29.594281
 20
16.013300
 42
-0.040792
  0
VERTEX
  8
LAYER_1
 62
7
 10
29.495033
 20
16.097669
 42
0.150474
  0
VERTEX
  8
LAYER_1
 62
7
 10
29.432550
 20
16.135279
 42
0.070304
  0
VERTEX
  8
LAYER_1
 62
7
 10
29.360358
 20
16.141263
 42
-0.015787
  0
VERTEX
  8
LAYER_1
 62
7
 10
29.270842
 20
16.140498
 42
-0.078506
  0
VERTEX
  8
LAYER_1
 62
7
 10
29.222385
 20
16.148595
 42
-0.045019
  0
VERTEX
  8
LAYER_1
 62
7
 10
29.177868
 20
16.171265
  0
VERTEX
  8
LAYER_1
 62
7
 10
29.100176
 20
16.214218
 42
-0.060045
  0
VERTEX
  8
LAYER_1
 62
7
 10
29.002193
 20
16.275979
 42
-0.175396
  0
VERTEX
  8
LAYER_1
 62
7
 10
28.945813
 20
16.370869
 42
-0.005536
  0
VERTEX
  8
LAYER_1
 62
7
 10
28.940554
 20
17.338013
 42
0.003440
  0
VERTEX
  8
LAYER_1
 62
7
 10
28.939350
 20
18.305245
  0
VERTEX
  8
LAYER_1
 62
7
 10
28.937025
 20
18.519124
  0
VERTEX
  8
LAYER_1
 62
7
 10
28.981900
 20
18.563229
 42
0.029385
  0
VERTEX
  8
LAYER_1
 62
7
 10
29.234378
 20
18.834450
 42
0.074894
  0
VERTEX
  8
LAYER_1
 62
7
 10
29.424412
 20
19.150110
 42
0.161402
  0
VERTEX
  8
LAYER_1
 62
7
 10
29.435649
 20
19.324077
 42
0.201185
  0
VERTEX
  8
LAYER_1
 62
7
 10
29.332758
 20
19.461029
 42
-0.127900
  0
VERTEX
  8
LAYER_1
 62
7
 10
29.323954
 20
19.532350
 42
-0.071917
  0
VERTEX
  8
LAYER_1
 62
7
 10
29.344553
 20
19.603373
 42
-0.014291
  0
VERTEX
  8
LAYER_1
 62
7
 10
29.397445
 20
19.705903
  0
VERTEX
  8
LAYER_1
 62
7
 10
29.413367
 20
19.738225
  0
SEQEND
  0
POLYLINE
  8
LAYER_1
 62
7
 70
1
 66
1
  0
VERTEX
  8
LAYER_1
 62
7
 10
12.433468
 20
19.703091
 42
-0.155758
  0
VERTEX
  8
LAYER_1
 62
7
 10
12.450616
 20
19.701124
 42
-0.104882
  0
VERTEX
  8
LAYER_1
 62
7
 10
12.464019
 20
19.690797
 42
-0.047716
  0
VERTEX
  8
LAYER_1
 62
7
 10
12.474514
 20
19.676041
  0
VERTEX
  8
LAYER_1
 62
7
 10
12.482938
 20
19.660789
 42
-0.033293
  0
VERTEX
  8
LAYER_1
 62
7
 10
12.513719
 20
19.561610
  0
VERTEX
  8
LAYER_1
 62
7
 10
12.538298
 20
19.460031
 42
0.107780
  0
VERTEX
  8
LAYER_1
 62
7
 10
12.622299
 20
19.271610
 42
0.071488
  0
VERTEX
  8
LAYER_1
 62
7
 10
12.829785
 20
19.106721
 42
-0.019243
  0
VERTEX
  8
LAYER_1
 62
7
 10
13.054367
 20
18.963511
 42
-0.072380
  0
VERTEX
  8
LAYER_1
 62
7
 10
13.375421
 20
18.691765
 42
-0.129369
  0
VERTEX
  8
LAYER_1
 62
7
 10
13.564106
 20
18.320873
 42
-0.056062
  0
VERTEX
  8
LAYER_1
 62
7
 10
13.585007
 20
18.006546
 42
-0.115577
  0
VERTEX
  8
LAYER_1
 62
7
 10
13.500770
 20
17.705967
 42
-0.065333
  0
VERTEX
  8
LAYER_1
 62
7
 10
13.381774
 20
17.535009
  0
VERTEX
  8
LAYER_1
 62
7
 10
13.236824
 20
17.380609
 42
0.047976
  0
VERTEX
  8
LAYER_1
 62
7
 10
13.106635
 20
17.218387
 42
0.104109
  0
VERTEX
  8
LAYER_1
 62
7
 10
13.031923
 20
17.023965
 42
0.001251
  0
VERTEX
  8
LAYER_1
 62
7
 10
13.030998
 20
15.966845
  0
VERTEX
  8
LAYER_1
 62
7
 10
13.029691
 20
15.614486
 42
-0.066992
  0
VERTEX
  8
LAYER_1
 62
7
 10
13.011566
 20
15.468853
 42
-0.155910
  0
VERTEX
  8
LAYER_1
 62
7
 10
12.934394
 20
15.346574
 42
-0.022424
  0
VERTEX
  8
LAYER_1
 62
7
 10
12.614250
 20
15.072933
 42
0.012767
  0
VERTEX
  8
LAYER_1
 62
7
 10
12.288819
 20
14.805461
 42
0.147678
  0
VERTEX
  8
LAYER_1
 62
7
 10
12.150764
 20
14.541206
 42
0.054141
  0
VERTEX
  8
LAYER_1
 62
7
 10
12.125603
 20
14.239672
  0
VERTEX
  8
LAYER_1
 62
7
 10
12.125427
 20
13.641804
 42
0.009382
  0
VERTEX
  8
LAYER_1
 62
7
 10
12.134416
 20
13.044641
 42
-0.167574
  0
VERTEX
  8
LAYER_1
 62
7
 10
12.087899
 20
12.819706
 42
-0.107654
  0
VERTEX
  8
LAYER_1
 62
7
 10
11.929722
 20
12.649587
 42
-0.009970
  0
VERTEX
  8
LAYER_1
 62
7
 10
11.712990
 20
12.443464
  0
VERTEX
  8
LAYER_1
 62
7
 10
11.641128
 20
12.374389
  0
VERTEX
  8
LAYER_1
 62
7
 10
11.572755
 20
12.324097
 42
-0.198785
  0
VERTEX
  8
LAYER_1
 62
7
 10
11.493894
 20
12.302359
 42
0.012190
  0
VERTEX
  8
LAYER_1
 62
7
 10
11.427140
 20
12.386366
  0
VERTEX
  8
LAYER_1
 62
7
 10
11.405324
 20
12.415237
 42
-0.185097
  0
VERTEX
  8
LAYER_1
 62
7
 10
11.362758
 20
12.547593
 42
-0.000964
  0
VERTEX
  8
LAYER_1
 62
7
 10
11.362758
 20
14.192905
 42
-0.112513
  0
VERTEX
  8
LAYER_1
 62
7
 10
11.422965
 20
14.442119
 42
-0.134779
  0
VERTEX
  8
LAYER_1
 62
7
 10
11.592363
 20
14.632728
 42
0.006762
  0
VERTEX
  8
LAYER_1
 62
7
 10
12.217258
 20
15.076781
 42
0.077335
  0
VERTEX
  8
LAYER_1
 62
7
 10
12.334117
 20
15.217391
 42
0.134564
  0
VERTEX
  8
LAYER_1
 62
7
 10
12.383646
 20
15.391226
  0
VERTEX
  8
LAYER_1
 62
7
 10
12.384586
 20
19.445284
 42
-0.011906
  0
VERTEX
  8
LAYER_1
 62
7
 10
12.391886
 20
19.578550
 42
-0.124700
  0
VERTEX
  8
LAYER_1
 62
7
 10
12.433468
 20
19.703091
  0
SEQEND
  0
POLYLINE
  8
LAYER_1
 62
7
 70
1
 66
1
  0
VERTEX
  8
LAYER_1
 62
7
 10
24.618790
 20
19.703091
 42
-0.174345
  0
VERTEX
  8
LAYER_1
 62
7
 10
24.643368
 20
19.695899
 42
-0.105585
  0
VERTEX
  8
LAYER_1
 62
7
 10
24.660137
 20
19.676138
 42
-0.041102
  0
VERTEX
  8
LAYER_1
 62
7
 10
24.671684
 20
19.650494
  0
VERTEX
  8
LAYER_1
 62
7
 10
24.680597
 20
19.625655
 42
0.014572
  0
VERTEX
  8
LAYER_1
 62
7
 10
24.742273
 20
19.403452
 42
0.143199
  0
VERTEX
  8
LAYER_1
 62
7
 10
24.866961
 20
19.214033
 42
0.017703
  0
VERTEX
  8
LAYER_1
 62
7
 10
25.040030
 20
19.094218
  0
VERTEX
  8
LAYER_1
 62
7
 10
25.217230
 20
18.979580
 42
-0.021764
  0
VERTEX
  8
LAYER_1
 62
7
 10
25.388151
 20
18.857143
 42
-0.041429
  0
VERTEX
  8
LAYER_1
 62
7
 10
25.542383
 20
18.713929
 42
-0.143678
  0
VERTEX
  8
LAYER_1
 62
7
 10
25.755244
 20
18.297740
 42
-0.114440
  0
VERTEX
  8
LAYER_1
 62
7
 10
25.740732
 20
17.827350
 42
-0.093231
  0
VERTEX
  8
LAYER_1
 62
7
 10
25.634000
 20
17.618815
 42
-0.029908
  0
VERTEX
  8
LAYER_1
 62
7
 10
25.478489
 20
17.441873
 42
0.032431
  0
VERTEX
  8
LAYER_1
 62
7
 10
25.324256
 20
17.264668
 42
0.096182
  0
VERTEX
  8
LAYER_1
 62
7
 10
25.221358
 20
17.055339
 42
0.008154
  0
VERTEX
  8
LAYER_1
 62
7
 10
25.215512
 20
16.352671
 42
-0.004514
  0
VERTEX
  8
LAYER_1
 62
7
 10
25.214778
 20
15.649738
 42
-0.032589
  0
VERTEX
  8
LAYER_1
 62
7
 10
25.199326
 20
15.485730
 42
-0.184372
  0
VERTEX
  8
LAYER_1
 62
7
 10
25.119716
 20
15.346574
 42
-0.019350
  0
VERTEX
  8
LAYER_1
 62
7
 10
24.837923
 20
15.104865
  0
VERTEX
  8
LAYER_1
 62
7
 10
24.693110
 20
14.988362
  0
VERTEX
  8
LAYER_1
 62
7
 10
24.550049
 20
14.869854
 42
0.151098
  0
VERTEX
  8
LAYER_1
 62
7
 10
24.369090
 20
14.644317
 42
0.092828
  0
VERTEX
  8
LAYER_1
 62
7
 10
24.312218
 20
14.357177
 42
-0.009779
  0
VERTEX
  8
LAYER_1
 62
7
 10
24.317949
 20
13.874455
  0
VERTEX
  8
LAYER_1
 62
7
 10
24.314441
 20
13.036665
 42
-0.028459
  0
VERTEX
  8
LAYER_1
 62
7
 10
24.305598
 20
12.914665
 42
-0.084181
  0
VERTEX
  8
LAYER_1
 62
7
 10
24.280727
 20
12.833287
 42
-0.066040
  0
VERTEX
  8
LAYER_1
 62
7
 10
24.227113
 20
12.760380
  0
VERTEX
  8
LAYER_1
 62
7
 10
24.132039
 20
12.663796
 42
-0.006929
  0
VERTEX
  8
LAYER_1
 62
7
 10
23.872819
 20
12.422976
  0
VERTEX
  8
LAYER_1
 62
7
 10
23.787321
 20
12.342428
 42
-0.092393
  0
VERTEX
  8
LAYER_1
 62
7
 10
23.745215
 20
12.312238
 42
-0.127029
  0
VERTEX
  8
LAYER_1
 62
7
 10
23.706099
 20
12.305276
 42
-0.184650
  0
VERTEX
  8
LAYER_1
 62
7
 10
23.638118
 20
12.343441
 42
-0.101481
  0
VERTEX
  8
LAYER_1
 62
7
 10
23.552192
 20
12.504938
 42
-0.006616
  0
VERTEX
  8
LAYER_1
 62
7
 10
23.546846
 20
13.207709
  0
VERTEX
  8
LAYER_1
 62
7
 10
23.547492
 20
13.910657
 42
-0.004608
  0
VERTEX
  8
LAYER_1
 62
7
 10
23.547536
 20
14.166451
 42
-0.089702
  0
VERTEX
  8
LAYER_1
 62
7
 10
23.594729
 20
14.415813
 42
-0.108260
  0
VERTEX
  8
LAYER_1
 62
7
 10
23.685443
 20
14.550988
 42
-0.027013
  0
VERTEX
  8
LAYER_1
 62
7
 10
23.809999
 20
14.658579
 42
0.006946
  0
VERTEX
  8
LAYER_1
 62
7
 10
24.368150
 20
15.052105
 42
0.117327
  0
VERTEX
  8
LAYER_1
 62
7
 10
24.522244
 20
15.224809
 42
0.147629
  0
VERTEX
  8
LAYER_1
 62
7
 10
24.570142
 20
15.449861
  0
VERTEX
  8
LAYER_1
 62
7
 10
24.569790
 20
19.151402
 42
0.034795
  0
VERTEX
  8
LAYER_1
 62
7
 10
24.572175
 20
19.290283
  0
VERTEX
  8
LAYER_1
 62
7
 10
24.566397
 20
19.432711
 42
-0.045205
  0
VERTEX
  8
LAYER_1
 62
7
 10
24.574565
 20
19.572406
 42
-0.087924
  0
VERTEX
  8
LAYER_1
 62
7
 10
24.618790
 20
19.703091
  0
SEQEND
  0
POLYLINE
  8
LAYER_1
 62
7
 70
1
 66
1
  0
VERTEX
  8
LAYER_1
 62
7
 10
12.046875
 20
19.689695
 42
-0.270684
  0
VERTEX
  8
LAYER_1
 62
7
 10
12.085354
 20
19.678824
 42
-0.121334
  0
VERTEX
  8
LAYER_1
 62
7
 10
12.104776
 20
19.639388
  0
VERTEX
  8
LAYER_1
 62
7
 10
12.114723
 20
19.590236
 42
0.056793
  0
VERTEX
  8
LAYER_1
 62
7
 10
12.124781
 20
19.550216
 42
0.002100
  0
VERTEX
  8
LAYER_1
 62
7
 10
12.129011
 20
17.734286
  0
VERTEX
  8
LAYER_1
 62
7
 10
12.133737
 20
16.827356
  0
VERTEX
  8
LAYER_1
 62
7
 10
12.136061
 20
15.920118
 42
0.023861
  0
VERTEX
  8
LAYER_1
 62
7
 10
12.134007
 20
15.739725
  0
VERTEX
  8
LAYER_1
 62
7
 10
12.135894
 20
15.647593
  0
VERTEX
  8
LAYER_1
 62
7
 10
12.135048
 20
15.555675
 42
-0.055419
  0
VERTEX
  8
LAYER_1
 62
7
 10
12.111126
 20
15.377000
 42
-0.094771
  0
VERTEX
  8
LAYER_1
 62
7
 10
12.034184
 20
15.212735
 42
-0.049533
  0
VERTEX
  8
LAYER_1
 62
7
 10
11.903689
 20
15.088310
 42
-0.024815
  0
VERTEX
  8
LAYER_1
 62
7
 10
11.755358
 20
14.984055
  0
VERTEX
  8
LAYER_1
 62
7
 10
11.600969
 20
14.886828
 42
0.023528
  0
VERTEX
  8
LAYER_1
 62
7
 10
11.452297
 20
14.783487
 42
-0.089551
  0
VERTEX
  8
LAYER_1
 62
7
 10
11.423735
 20
14.776880
 42
-0.127899
  0
VERTEX
  8
LAYER_1
 62
7
 10
11.402289
 20
14.781523
 42
-0.186534
  0
VERTEX
  8
LAYER_1
 62
7
 10
11.376462
 20
14.814832
 42
-0.061518
  0
VERTEX
  8
LAYER_1
 62
7
 10
11.366255
 20
14.863960
  0
VERTEX
  8
LAYER_1
 62
7
 10
11.363110
 20
14.909453
  0
VERTEX
  8
LAYER_1
 62
7
 10
11.362405
 20
16.848412
 42
0.107255
  0
VERTEX
  8
LAYER_1
 62
7
 10
11.344089
 20
17.008205
 42
0.190401
  0
VERTEX
  8
LAYER_1
 62
7
 10
11.243725
 20
17.129132
 42
0.105363
  0
VERTEX
  8
LAYER_1
 62
7
 10
11.092194
 20
17.166639
 42
0.057924
  0
VERTEX
  8
LAYER_1
 62
7
 10
10.938945
 20
17.152634
  0
VERTEX
  8
LAYER_1
 62
7
 10
10.785475
 20
17.118359
 42
-0.042189
  0
VERTEX
  8
LAYER_1
 62
7
 10
10.633283
 20
17.095056
  0
VERTEX
  8
LAYER_1
 62
7
 10
10.635281
 20
17.127840
  0
VERTEX
  8
LAYER_1
 62
7
 10
10.792533
 20
17.222035
 42
0.045394
  0
VERTEX
  8
LAYER_1
 62
7
 10
10.942205
 20
17.326894
 42
0.276663
  0
VERTEX
  8
LAYER_1
 62
7
 10
10.971934
 20
17.402773
 42
0.138265
  0
VERTEX
  8
LAYER_1
 62
7
 10
10.937505
 20
17.481649
 42
-0.059683
  0
VERTEX
  8
LAYER_1
 62
7
 10
10.800773
 20
17.719980
 42
-0.109260
  0
VERTEX
  8
LAYER_1
 62
7
 10
10.750319
 20
17.988098
 42
-0.147271
  0
VERTEX
  8
LAYER_1
 62
7
 10
10.826433
 20
18.285387
 42
-0.075357
  0
VERTEX
  8
LAYER_1
 62
7
 10
11.023989
 20
18.525921
 42
-0.048419
  0
VERTEX
  8
LAYER_1
 62
7
 10
11.219717
 20
18.683404
 42
-0.015119
  0
VERTEX
  8
LAYER_1
 62
7
 10
11.434524
 20
18.815219
 42
0.017895
  0
VERTEX
  8
LAYER_1
 62
7
 10
11.648142
 20
18.947916
 42
0.051470
  0
VERTEX
  8
LAYER_1
 62
7
 10
11.840300
 20
19.108043
 42
0.117418
  0
VERTEX
  8
LAYER_1
 62
7
 10
11.917209
 20
19.244434
 42
0.040449
  0
VERTEX
  8
LAYER_1
 62
7
 10
11.947685
 20
19.399398
 42
-0.034273
  0
VERTEX
  8
LAYER_1
 62
7
 10
11.976113
 20
19.554097
 42
-0.115078
  0
VERTEX
  8
LAYER_1
 62
7
 10
12.046875
 20
19.689695
  0
SEQEND
  0
POLYLINE
  8
LAYER_1
 62
7
 70
1
 66
1
  0
VERTEX
  8
LAYER_1
 62
7
 10
24.232196
 20
19.689578
 42
-0.267937
  0
VERTEX
  8
LAYER_1
 62
7
 10
24.275192
 20
19.673656
 42
-0.117778
  0
VERTEX
  8
LAYER_1
 62
7
 10
24.296002
 20
19.625743
 42
-0.031345
  0
VERTEX
  8
LAYER_1
 62
7
 10
24.304473
 20
19.566241
  0
VERTEX
  8
LAYER_1
 62
7
 10
24.310455
 20
19.515552
 42
-0.012694
  0
VERTEX
  8
LAYER_1
 62
7
 10
24.325275
 20
18.734845
  0
VERTEX
  8
LAYER_1
 62
7
 10
24.316918
 20
17.954139
 42
0.007224
  0
VERTEX
  8
LAYER_1
 62
7
 10
24.321383
 20
15.685107
 42
-0.066323
  0
VERTEX
  8
LAYER_1
 62
7
 10
24.299777
 20
15.394413
 42
-0.154688
  0
VERTEX
  8
LAYER_1
 62
7
 10
24.159813
 20
15.143289
 42
-0.014904
  0
VERTEX
  8
LAYER_1
 62
7
 10
23.904150
 20
14.963256
  0
VERTEX
  8
LAYER_1
 62
7
 10
23.645491
 20
14.787718
 42
-0.086195
  0
VERTEX
  8
LAYER_1
 62
7
 10
23.615700
 20
14.777015
 42
-0.129873
  0
VERTEX
  8
LAYER_1
 62
7
 10
23.592717
 20
14.779077
 42
-0.203271
  0
VERTEX
  8
LAYER_1
 62
7
 10
23.563649
 20
14.810778
 42
-0.091364
  0
VERTEX
  8
LAYER_1
 62
7
 10
23.548432
 20
14.909453
  0
VERTEX
  8
LAYER_1
 62
7
 10
23.547609
 20
16.907282
 42
0.198329
  0
VERTEX
  8
LAYER_1
 62
7
 10
23.489767
 20
17.078370
 42
0.211113
  0
VERTEX
  8
LAYER_1
 62
7
 10
23.328814
 20
17.159214
 42
0.071298
  0
VERTEX
  8
LAYER_1
 62
7
 10
23.202540
 20
17.165311
 42
0.038377
  0
VERTEX
  8
LAYER_1
 62
7
 10
23.078909
 20
17.143659
  0
VERTEX
  8
LAYER_1
 62
7
 10
22.956292
 20
17.111277
 42
-0.029325
  0
VERTEX
  8
LAYER_1
 62
7
 10
22.833058
 20
17.085185
 42
-0.235056
  0
VERTEX
  8
LAYER_1
 62
7
 10
22.819501
 20
17.103854
 42
-0.090684
  0
VERTEX
  8
LAYER_1
 62
7
 10
22.820133
 20
17.127722
  0
VERTEX
  8
LAYER_1
 62
7
 10
22.977619
 20
17.221888
 42
0.044990
  0
VERTEX
  8
LAYER_1
 62
7
 10
23.127527
 20
17.326894
 42
0.276853
  0
VERTEX
  8
LAYER_1
 62
7
 10
23.157124
 20
17.402832
 42
0.136284
  0
VERTEX
  8
LAYER_1
 62
7
 10
23.122827
 20
17.481767
 42
-0.043808
  0
VERTEX
  8
LAYER_1
 62
7
 10
22.998315
 20
17.693174
 42
-0.095648
  0
VERTEX
  8
LAYER_1
 62
7
 10
22.936816
 20
17.929345
 42
-0.108402
  0
VERTEX
  8
LAYER_1
 62
7
 10
22.957992
 20
18.161294
 42
-0.081464
  0
VERTEX
  8
LAYER_1
 62
7
 10
23.063222
 20
18.365261
 42
-0.053015
  0
VERTEX
  8
LAYER_1
 62
7
 10
23.222784
 20
18.539221
 42
-0.034551
  0
VERTEX
  8
LAYER_1
 62
7
 10
23.406955
 20
18.681145
 42
-0.031726
  0
VERTEX
  8
LAYER_1
 62
7
 10
23.563195
 20
18.786177
  0
VERTEX
  8
LAYER_1
 62
7
 10
23.727114
 20
18.880787
 42
0.026459
  0
VERTEX
  8
LAYER_1
 62
7
 10
23.885414
 20
18.982448
 42
0.055596
  0
VERTEX
  8
LAYER_1
 62
7
 10
24.024799
 20
19.108630
 42
0.105826
  0
VERTEX
  8
LAYER_1
 62
7
 10
24.096896
 20
19.246696
 42
0.025901
  0
VERTEX
  8
LAYER_1
 62
7
 10
24.115104
 20
19.322995
  0
VERTEX
  8
LAYER_1
 62
7
 10
24.128233
 20
19.401219
 42
-0.035319
  0
VERTEX
  8
LAYER_1
 62
7
 10
24.159703
 20
19.554685
 42
-0.109523
  0
VERTEX
  8
LAYER_1
 62
7
 10
24.232196
 20
19.689578
  0
SEQEND
  0
POLYLINE
  8
LAYER_1
 62
7
 70
1
 66
1
  0
VERTEX
  8
LAYER_1
 62
7
 10
28.579900
 20
19.630825
 42
-0.218337
  0
VERTEX
  8
LAYER_1
 62
7
 10
28.630437
 20
19.624261
 42
-0.141516
  0
VERTEX
  8
LAYER_1
 62
7
 10
28.661552
 20
19.584924
 42
-0.098216
  0
VERTEX
  8
LAYER_1
 62
7
 10
28.681778
 20
19.480418
  0
VERTEX
  8
LAYER_1
 62
7
 10
28.682683
 20
9.431922
 42
0.031101
  0
VERTEX
  8
LAYER_1
 62
7
 10
28.688057
 20
9.253073
 42
0.061266
  0
VERTEX
  8
LAYER_1
 62
7
 10
28.709454
 20
9.161299
 42
0.126022
  0
VERTEX
  8
LAYER_1
 62
7
 10
28.756403
 20
9.091432
 42
0.280427
  0
VERTEX
  8
LAYER_1
 62
7
 10
28.845705
 20
9.073622
  0
VERTEX
  8
LAYER_1
 62
7
 10
28.846570
 20
9.073948
 42
0.156769
  0
VERTEX
  8
LAYER_1
 62
7
 10
28.875102
 20
9.092519
 42
0.077006
  0
VERTEX
  8
LAYER_1
 62
7
 10
28.897235
 20
9.129433
 42
0.059486
  0
VERTEX
  8
LAYER_1
 62
7
 10
28.925513
 20
9.237029
 42
0.035972
  0
VERTEX
  8
LAYER_1
 62
7
 10
28.940584
 20
9.438458
  0
VERTEX
  8
LAYER_1
 62
7
 10
28.941582
 20
11.560546
 42
-0.068794
  0
VERTEX
  8
LAYER_1
 62
7
 10
28.949631
 20
11.630154
 42
-0.087204
  0
VERTEX
  8
LAYER_1
 62
7
 10
28.957524
 20
11.644447
 42
-0.144610
  0
VERTEX
  8
LAYER_1
 62
7
 10
28.969806
 20
11.652834
 42
-0.134476
  0
VERTEX
  8
LAYER_1
 62
7
 10
28.987497
 20
11.652984
 42
-0.077168
  0
VERTEX
  8
LAYER_1
 62
7
 10
29.011616
 20
11.642565
 42
-0.061121
  0
VERTEX
  8
LAYER_1
 62
7
 10
29.263965
 20
11.579794
 42
-0.108371
  0
VERTEX
  8
LAYER_1
 62
7
 10
29.481639
 20
11.440264
 42
-0.169836
  0
VERTEX
  8
LAYER_1
 62
7
 10
29.571371
 20
11.249637
 42
-0.033593
  0
VERTEX
  8
LAYER_1
 62
7
 10
29.575861
 20
11.145686
  0
VERTEX
  8
LAYER_1
 62
7
 10
29.574668
 20
11.032463
 42
-0.003514
  0
VERTEX
  8
LAYER_1
 62
7
 10
29.575078
 20
10.141142
 42
0.006172
  0
VERTEX
  8
LAYER_1
 62
7
 10
29.580225
 20
9.249918
 42
0.170436
  0
VERTEX
  8
LAYER_1
 62
7
 10
29.595814
 20
9.179431
 42
0.081244
  0
VERTEX
  8
LAYER_1
 62
7
 10
29.643516
 20
9.128608
  0
VERTEX
  8
LAYER_1
 62
7
 10
29.699348
 20
9.081420
 42
-0.120180
  0
VERTEX
  8
LAYER_1
 62
7
 10
29.739327
 20
9.021840
 42
-0.199823
  0
VERTEX
  8
LAYER_1
 62
7
 10
29.757820
 20
8.873489
 42
-0.039484
  0
VERTEX
  8
LAYER_1
 62
7
 10
29.734023
 20
8.799523
  0
VERTEX
  8
LAYER_1
 62
7
 10
29.703958
 20
8.729016
 42
-0.172517
  0
VERTEX
  8
LAYER_1
 62
7
 10
29.340455
 20
8.355099
 42
-0.144188
  0
VERTEX
  8
LAYER_1
 62
7
 10
28.823254
 20
8.258171
 42
-0.077608
  0
VERTEX
  8
LAYER_1
 62
7
 10
28.554049
 20
8.328792
 42
-0.036400
  0
VERTEX
  8
LAYER_1
 62
7
 10
28.306700
 20
8.458636
 42
0.143645
  0
VERTEX
  8
LAYER_1
 62
7
 10
28.235044
 20
8.461425
 42
0.072452
  0
VERTEX
  8
LAYER_1
 62
7
 10
28.168631
 20
8.432829
  0
VERTEX
  8
LAYER_1
 62
7
 10
28.103981
 20
8.393018
 42
-0.063978
  0
VERTEX
  8
LAYER_1
 62
7
 10
28.037612
 20
8.362164
 42
-0.161496
  0
VERTEX
  8
LAYER_1
 62
7
 10
27.445106
 20
8.308831
 42
-0.097713
  0
VERTEX
  8
LAYER_1
 62
7
 10
27.175197
 20
8.430590
 42
-0.118514
  0
VERTEX
  8
LAYER_1
 62
7
 10
26.978888
 20
8.658160
 42
-0.107083
  0
VERTEX
  8
LAYER_1
 62
7
 10
26.882298
 20
8.972957
 42
-0.107464
  0
VERTEX
  8
LAYER_1
 62
7
 10
26.149079
 20
9.182132
 42
-0.068597
  0
VERTEX
  8
LAYER_1
 62
7
 10
25.843074
 20
9.407395
 42
-0.081481
  0
VERTEX
  8
LAYER_1
 62
7
 10
25.615824
 20
9.715710
 42
-0.100278
  0
VERTEX
  8
LAYER_1
 62
7
 10
25.495263
 20
10.288388
 42
-0.122233
  0
VERTEX
  8
LAYER_1
 62
7
 10
25.627457
 20
10.855513
 42
-0.073870
  0
VERTEX
  8
LAYER_1
 62
7
 10
25.865890
 20
11.157635
 42
-0.097794
  0
VERTEX
  8
LAYER_1
 62
7
 10
26.190073
 20
11.362549
 42
-0.011077
  0
VERTEX
  8
LAYER_1
 62
7
 10
26.613739
 20
11.524795
 42
0.044394
  0
VERTEX
  8
LAYER_1
 62
7
 10
27.024715
 20
11.714361
 42
0.082514
  0
VERTEX
  8
LAYER_1
 62
7
 10
27.295036
 20
11.937987
 42
0.067676
  0
VERTEX
  8
LAYER_1
 62
7
 10
27.486042
 20
12.230519
 42
0.101696
  0
VERTEX
  8
LAYER_1
 62
7
 10
27.648787
 20
12.911742
 42
0.043200
  0
VERTEX
  8
LAYER_1
 62
7
 10
27.631543
 20
13.211455
 42
0.059974
  0
VERTEX
  8
LAYER_1
 62
7
 10
27.589927
 20
13.354608
 42
0.090688
  0
VERTEX
  8
LAYER_1
 62
7
 10
27.508720
 20
13.477061
 42
-0.180751
  0
VERTEX
  8
LAYER_1
 62
7
 10
27.424691
 20
13.328922
 42
-0.139678
  0
VERTEX
  8
LAYER_1
 62
7
 10
27.271756
 20
13.263392
 42
-0.120738
  0
VERTEX
  8
LAYER_1
 62
7
 10
27.101084
 20
13.280373
 42
-0.149490
  0
VERTEX
  8
LAYER_1
 62
7
 10
26.963847
 20
13.379767
 42
0.181773
  0
VERTEX
  8
LAYER_1
 62
7
 10
26.857696
 20
13.301824
 42
0.132073
  0
VERTEX
  8
LAYER_1
 62
7
 10
26.815526
 20
13.173074
 42
0.131387
  0
VERTEX
  8
LAYER_1
 62
7
 10
26.841436
 20
13.038509
 42
0.175392
  0
VERTEX
  8
LAYER_1
 62
7
 10
26.939523
 20
12.943116
 42
0.129350
  0
VERTEX
  8
LAYER_1
 62
7
 10
27.010432
 20
12.923425
 42
0.053463
  0
VERTEX
  8
LAYER_1
 62
7
 10
27.084481
 20
12.930910
  0
VERTEX
  8
LAYER_1
 62
7
 10
27.158552
 20
12.943529
 42
-0.099024
  0
VERTEX
  8
LAYER_1
 62
7
 10
27.229527
 20
12.939238
 42
-0.156604
  0
VERTEX
  8
LAYER_1
 62
7
 10
27.227691
 20
12.870204
 42
-0.101356
  0
VERTEX
  8
LAYER_1
 62
7
 10
27.190515
 20
12.809894
 42
-0.092551
  0
VERTEX
  8
LAYER_1
 62
7
 10
27.071835
 20
12.724791
 42
-0.191605
  0
VERTEX
  8
LAYER_1
 62
7
 10
26.733266
 20
12.738216
 42
-0.150548
  0
VERTEX
  8
LAYER_1
 62
7
 10
26.474457
 20
12.960816
 42
-0.112753
  0
VERTEX
  8
LAYER_1
 62
7
 10
26.383181
 20
13.219566
 42
-0.096234
  0
VERTEX
  8
LAYER_1
 62
7
 10
26.404881
 20
13.486709
 42
-0.166886
  0
VERTEX
  8
LAYER_1
 62
7
 10
26.707269
 20
13.927057
 42
-0.116958
  0
VERTEX
  8
LAYER_1
 62
7
 10
26.993042
 20
14.051266
 42
-0.145971
  0
VERTEX
  8
LAYER_1
 62
7
 10
27.300565
 20
14.014087
 42
-0.129890
  0
VERTEX
  8
LAYER_1
 62
7
 10
27.583108
 20
13.783124
 42
-0.106292
  0
VERTEX
  8
LAYER_1
 62
7
 10
27.737850
 20
13.445963
 42
-0.028508
  0
VERTEX
  8
LAYER_1
 62
7
 10
27.743746
 20
13.363165
 42
-0.007682
  0
VERTEX
  8
LAYER_1
 62
7
 10
27.753320
 20
12.718900
  0
VERTEX
  8
LAYER_1
 62
7
 10
27.755375
 20
11.990977
 42
0.001866
  0
VERTEX
  8
LAYER_1
 62
7
 10
27.756590
 20
9.319846
 42
0.092451
  0
VERTEX
  8
LAYER_1
 62
7
 10
27.773237
 20
9.163786
 42
0.095790
  0
VERTEX
  8
LAYER_1
 62
7
 10
27.808007
 20
9.098676
 42
0.151520
  0
VERTEX
  8
LAYER_1
 62
7
 10
27.866383
 20
9.060382
 42
0.290735
  0
VERTEX
  8
LAYER_1
 62
7
 10
27.956670
 20
9.091702
 42
0.172065
  0
VERTEX
  8
LAYER_1
 62
7
 10
28.002439
 20
9.211988
 42
0.063630
  0
VERTEX
  8
LAYER_1
 62
7
 10
28.005651
 20
9.230059
 42
0.001990
  0
VERTEX
  8
LAYER_1
 62
7
 10
28.013538
 20
12.757046
 42
-0.000803
  0
VERTEX
  8
LAYER_1
 62
7
 10
28.013054
 20
16.284385
 42
0.230272
  0
VERTEX
  8
LAYER_1
 62
7
 10
27.935970
 20
16.489080
 42
-0.001398
  0
VERTEX
  8
LAYER_1
 62
7
 10
27.398382
 20
17.221257
 42
-0.166736
  0
VERTEX
  8
LAYER_1
 62
7
 10
27.309343
 20
17.452170
 42
-0.182371
  0
VERTEX
  8
LAYER_1
 62
7
 10
27.385457
 20
17.686696
 42
-0.043366
  0
VERTEX
  8
LAYER_1
 62
7
 10
27.673169
 20
17.986482
 42
0.003833
  0
VERTEX
  8
LAYER_1
 62
7
 10
27.984500
 20
18.263531
 42
-0.026556
  0
VERTEX
  8
LAYER_1
 62
7
 10
28.107899
 20
18.372614
  0
VERTEX
  8
LAYER_1
 62
7
 10
28.237754
 20
18.475320
 42
0.024716
  0
VERTEX
  8
LAYER_1
 62
7
 10
28.361748
 20
18.583291
 42
0.050801
  0
VERTEX
  8
LAYER_1
 62
7
 10
28.467565
 20
18.708172
 42
0.044769
  0
VERTEX
  8
LAYER_1
 62
7
 10
28.505112
 20
18.902818
 42
0.023502
  0
VERTEX
  8
LAYER_1
 62
7
 10
28.515801
 20
19.101418
  0
VERTEX
  8
LAYER_1
 62
7
 10
28.516179
 20
19.301275
 42
-0.018377
  0
VERTEX
  8
LAYER_1
 62
7
 10
28.522793
 20
19.499689
 42
-0.045294
  0
VERTEX
  8
LAYER_1
 62
7
 10
28.537775
 20
19.572087
 42
-0.167260
  0
VERTEX
  8
LAYER_1
 62
7
 10
28.579900
 20
19.630825
  0
SEQEND
  0
POLYLINE
  8
LAYER_1
 62
7
 70
1
 66
1
  0
VERTEX
  8
LAYER_1
 62
7
 10
27.049874
 20
10.575280
 42
0.199589
  0
VERTEX
  8
LAYER_1
 62
7
 10
26.990455
 20
10.718730
 42
0.199589
  0
VERTEX
  8
LAYER_1
 62
7
 10
26.847005
 20
10.778149
 42
0.199589
  0
VERTEX
  8
LAYER_1
 62
7
 10
26.703556
 20
10.718730
 42
0.199589
  0
VERTEX
  8
LAYER_1
 62
7
 10
26.644137
 20
10.575280
 42
0.199589
  0
VERTEX
  8
LAYER_1
 62
7
 10
26.703556
 20
10.431830
 42
0.199589
  0
VERTEX
  8
LAYER_1
 62
7
 10
26.847005
 20
10.372412
 42
0.199589
  0
VERTEX
  8
LAYER_1
 62
7
 10
26.990455
 20
10.431830
 42
0.199589
  0
VERTEX
  8
LAYER_1
 62
7
 10
27.049874
 20
10.575280
  0
SEQEND
  0
POLYLINE
  8
LAYER_1
 62
7
 70
1
 66
1
  0
VERTEX
  8
LAYER_1
 62
7
 10
36.781903
 20
19.629885
 42
-0.111951
  0
VERTEX
  8
LAYER_1
 62
7
 10
36.805286
 20
19.633928
 42
-0.135386
  0
VERTEX
  8
LAYER_1
 62
7
 10
36.823378
 20
19.627487
 42
-0.153397
  0
VERTEX
  8
LAYER_1
 62
7
 10
36.846501
 20
19.592812
 42
-0.067911
  0
VERTEX
  8
LAYER_1
 62
7
 10
36.860161
 20
19.503919
  0
VERTEX
  8
LAYER_1
 62
7
 10
36.860631
 20
16.213530
 42
-0.125364
  0
VERTEX
  8
LAYER_1
 62
7
 10
36.836864
 20
16.066328
 42
-0.083718
  0
VERTEX
  8
LAYER_1
 62
7
 10
36.755714
 20
15.945323
 42
-0.035514
  0
VERTEX
  8
LAYER_1
 62
7
 10
36.643916
 20
15.842032
  0
VERTEX
  8
LAYER_1
 62
7
 10
36.528208
 20
15.747973
 42
-0.005861
  0
VERTEX
  8
LAYER_1
 62
7
 10
36.267111
 20
15.550857
 42
0.033079
  0
VERTEX
  8
LAYER_1
 62
7
 10
36.017647
 20
15.340346
 42
0.002576
  0
VERTEX
  8
LAYER_1
 62
7
 10
36.015119
 20
13.977280
  0
VERTEX
  8
LAYER_1
 62
7
 10
36.014944
 20
13.522888
 42
0.014585
  0
VERTEX
  8
LAYER_1
 62
7
 10
36.015938
 20
13.356095
  0
VERTEX
  8
LAYER_1
 62
7
 10
36.014841
 20
13.299261
 42
-0.076950
  0
VERTEX
  8
LAYER_1
 62
7
 10
35.994140
 20
13.191892
 42
-0.129808
  0
VERTEX
  8
LAYER_1
 62
7
 10
35.930575
 20
13.101984
 42
-0.021707
  0
VERTEX
  8
LAYER_1
 62
7
 10
35.795694
 20
13.001120
 42
-0.082181
  0
VERTEX
  8
LAYER_1
 62
7
 10
35.720635
 20
12.969212
 42
-0.140197
  0
VERTEX
  8
LAYER_1
 62
7
 10
35.641159
 20
12.973315
  0
VERTEX
  8
LAYER_1
 62
7
 10
35.604421
 20
13.030041
 42
-0.014944
  0
VERTEX
  8
LAYER_1
 62
7
 10
35.489871
 20
13.202935
 42
-0.063557
  0
VERTEX
  8
LAYER_1
 62
7
 10
35.436689
 20
13.326950
 42
-0.100550
  0
VERTEX
  8
LAYER_1
 62
7
 10
35.427064
 20
13.464018
  0
VERTEX
  8
LAYER_1
 62
7
 10
35.427652
 20
14.756814
 42
0.112315
  0
VERTEX
  8
LAYER_1
 62
7
 10
35.413542
 20
14.911396
 42
0.066004
  0
VERTEX
  8
LAYER_1
 62
7
 10
35.345882
 20
15.049432
  0
VERTEX
  8
LAYER_1
 62
7
 10
35.301084
 20
15.114648
  0
VERTEX
  8
LAYER_1
 62
7
 10
35.253833
 20
15.178611
 42
-0.028236
  0
VERTEX
  8
LAYER_1
 62
7
 10
35.166554
 20
15.306622
  0
VERTEX
  8
LAYER_1
 62
7
 10
35.025724
 20
15.511875
 42
0.022767
  0
VERTEX
  8
LAYER_1
 62
7
 10
34.878548
 20
15.712016
 42
0.260605
  0
VERTEX
  8
LAYER_1
 62
7
 10
34.798101
 20
15.752893
 42
0.188324
  0
VERTEX
  8
LAYER_1
 62
7
 10
34.713336
 20
15.717186
 42
-0.005931
  0
VERTEX
  8
LAYER_1
 62
7
 10
34.376539
 20
15.331495
  0
VERTEX
  8
LAYER_1
 62
7
 10
34.264700
 20
15.202630
 42
0.158722
  0
VERTEX
  8
LAYER_1
 62
7
 10
34.221781
 20
15.102647
 42
0.027760
  0
VERTEX
  8
LAYER_1
 62
7
 10
34.217837
 20
15.046790
  0
VERTEX
  8
LAYER_1
 62
7
 10
34.216757
 20
14.991825
  0
VERTEX
  8
LAYER_1
 62
7
 10
34.216640
 20
12.982245
 42
-0.102569
  0
VERTEX
  8
LAYER_1
 62
7
 10
34.172711
 20
12.880205
 42
-0.051507
  0
VERTEX
  8
LAYER_1
 62
7
 10
34.099281
 20
12.796396
  0
VERTEX
  8
LAYER_1
 62
7
 10
34.015672
 20
12.718734
 42
0.049152
  0
VERTEX
  8
LAYER_1
 62
7
 10
33.941207
 20
12.635134
 42
0.040068
  0
VERTEX
  8
LAYER_1
 62
7
 10
33.879729
 20
12.576839
  0
VERTEX
  8
LAYER_1
 62
7
 10
33.820676
 20
12.513443
 42
-0.057778
  0
VERTEX
  8
LAYER_1
 62
7
 10
33.755673
 20
12.459631
 42
-0.106604
  0
VERTEX
  8
LAYER_1
 62
7
 10
33.676349
 20
12.430087
 42
-0.275614
  0
VERTEX
  8
LAYER_1
 62
7
 10
33.584871
 20
12.499239
 42
-0.106826
  0
VERTEX
  8
LAYER_1
 62
7
 10
33.559666
 20
12.618096
 42
-0.000768
  0
VERTEX
  8
LAYER_1
 62
7
 10
33.559666
 20
15.026959
 42
-0.150117
  0
VERTEX
  8
LAYER_1
 62
7
 10
33.577278
 20
15.122271
 42
-0.166754
  0
VERTEX
  8
LAYER_1
 62
7
 10
33.609090
 20
15.153154
 42
-0.218745
  0
VERTEX
  8
LAYER_1
 62
7
 10
33.657196
 20
15.149635
 42
-0.057540
  0
VERTEX
  8
LAYER_1
 62
7
 10
33.731785
 20
15.122897
  0
VERTEX
  8
LAYER_1
 62
7
 10
33.809380
 20
15.089251
 42
0.117581
  0
VERTEX
  8
LAYER_1
 62
7
 10
33.884090
 20
15.077837
 42
0.203779
  0
VERTEX
  8
LAYER_1
 62
7
 10
33.950020
 20
15.117791
 42
0.006312
  0
VERTEX
  8
LAYER_1
 62
7
 10
34.427562
 20
15.685695
 42
0.163770
  0
VERTEX
  8
LAYER_1
 62
7
 10
34.470290
 20
15.785574
 42
0.018099
  0
VERTEX
  8
LAYER_1
 62
7
 10
34.475739
 20
15.896382
  0
VERTEX
  8
LAYER_1
 62
7
 10
34.474845
 20
16.161965
  0
VERTEX
  8
LAYER_1
 62
7
 10
34.476165
 20
16.427581
 42
0.011061
  0
VERTEX
  8
LAYER_1
 62
7
 10
34.469277
 20
16.958514
  0
VERTEX
  8
LAYER_1
 62
7
 10
34.464856
 20
17.051120
 42
-0.023798
  0
VERTEX
  8
LAYER_1
 62
7
 10
34.460875
 20
17.147933
 42
-0.075861
  0
VERTEX
  8
LAYER_1
 62
7
 10
34.474961
 20
17.239459
 42
-0.131156
  0
VERTEX
  8
LAYER_1
 62
7
 10
34.524739
 20
17.316201
 42
-0.012916
  0
VERTEX
  8
LAYER_1
 62
7
 10
34.753655
 20
17.426891
 42
0.022746
  0
VERTEX
  8
LAYER_1
 62
7
 10
34.980543
 20
17.542164
 42
-0.150356
  0
VERTEX
  8
LAYER_1
 62
7
 10
35.093980
 20
17.579502
 42
-0.177552
  0
VERTEX
  8
LAYER_1
 62
7
 10
35.143059
 20
17.561597
 42
-0.192531
  0
VERTEX
  8
LAYER_1
 62
7
 10
35.167494
 20
17.505268
 42
-0.008471
  0
VERTEX
  8
LAYER_1
 62
7
 10
35.170843
 20
16.654821
 42
0.006601
  0
VERTEX
  8
LAYER_1
 62
7
 10
35.171020
 20
15.803670
 42
0.090124
  0
VERTEX
  8
LAYER_1
 62
7
 10
35.208474
 20
15.673147
 42
0.052381
  0
VERTEX
  8
LAYER_1
 62
7
 10
35.281181
 20
15.559347
  0
VERTEX
  8
LAYER_1
 62
7
 10
35.369839
 20
15.453787
 42
-0.023792
  0
VERTEX
  8
LAYER_1
 62
7
 10
35.455148
 20
15.347984
 42
-0.048205
  0
VERTEX
  8
LAYER_1
 62
7
 10
35.484846
 20
15.312527
  0
VERTEX
  8
LAYER_1
 62
7
 10
35.514092
 20
15.272575
 42
0.076448
  0
VERTEX
  8
LAYER_1
 62
7
 10
35.547766
 20
15.239982
 42
0.152753
  0
VERTEX
  8
LAYER_1
 62
7
 10
35.590749
 20
15.226601
 42
-0.009477
  0
VERTEX
  8
LAYER_1
 62
7
 10
35.893913
 20
15.451301
 42
0.026008
  0
VERTEX
  8
LAYER_1
 62
7
 10
36.189675
 20
15.686047
 42
0.185163
  0
VERTEX
  8
LAYER_1
 62
7
 10
36.281535
 20
15.822662
 42
0.070103
  0
VERTEX
  8
LAYER_1
 62
7
 10
36.297075
 20
15.990387
  0
VERTEX
  8
LAYER_1
 62
7
 10
36.296017
 20
18.223109
 42
0.155969
  0
VERTEX
  8
LAYER_1
 62
7
 10
36.234562
 20
18.418609
 42
0.034159
  0
VERTEX
  8
LAYER_1
 62
7
 10
36.170632
 20
18.502170
  0
VERTEX
  8
LAYER_1
 62
7
 10
36.100488
 20
18.579033
 42
-0.104173
  0
VERTEX
  8
LAYER_1
 62
7
 10
36.033863
 20
18.680852
 42
-0.241033
  0
VERTEX
  8
LAYER_1
 62
7
 10
36.041265
 20
18.796418
 42
0.025667
  0
VERTEX
  8
LAYER_1
 62
7
 10
36.307489
 20
19.077065
  0
VERTEX
  8
LAYER_1
 62
7
 10
36.432509
 20
19.224908
  0
VERTEX
  8
LAYER_1
 62
7
 10
36.555822
 20
19.374193
 42
0.029359
  0
VERTEX
  8
LAYER_1
 62
7
 10
36.611125
 20
19.439311
  0
VERTEX
  8
LAYER_1
 62
7
 10
36.663090
 20
19.508604
 42
-0.082607
  0
VERTEX
  8
LAYER_1
 62
7
 10
36.781903
 20
19.629885
  0
SEQEND
  0
POLYLINE
  8
LAYER_1
 62
7
 70
1
 66
1
  0
VERTEX
  8
LAYER_1
 62
7
 10
30.507108
 20
19.441288
 42
-0.048065
  0
VERTEX
  8
LAYER_1
 62
7
 10
30.516053
 20
19.354500
  0
VERTEX
  8
LAYER_1
 62
7
 10
30.515392
 20
19.253544
 42
0.056456
  0
VERTEX
  8
LAYER_1
 62
7
 10
30.527554
 20
19.045530
 42
0.091539
  0
VERTEX
  8
LAYER_1
 62
7
 10
30.633159
 20
18.739714
 42
0.072267
  0
VERTEX
  8
LAYER_1
 62
7
 10
30.829426
 20
18.488495
 42
0.051863
  0
VERTEX
  8
LAYER_1
 62
7
 10
31.085709
 20
18.289184
 42
0.037899
  0
VERTEX
  8
LAYER_1
 62
7
 10
31.371361
 20
18.139092
 42
-0.262363
  0
VERTEX
  8
LAYER_1
 62
7
 10
31.405761
 20
18.096203
 42
-0.235739
  0
VERTEX
  8
LAYER_1
 62
7
 10
31.388870
 20
18.043090
 42
-0.010814
  0
VERTEX
  8
LAYER_1
 62
7
 10
31.079037
 20
17.695333
  0
VERTEX
  8
LAYER_1
 62
7
 10
30.921069
 20
17.523933
  0
VERTEX
  8
LAYER_1
 62
7
 10
30.764798
 20
17.351100
 42
-0.033588
  0
VERTEX
  8
LAYER_1
 62
7
 10
30.698679
 20
17.277410
  0
VERTEX
  8
LAYER_1
 62
7
 10
30.627493
 20
17.206980
 42
0.121726
  0
VERTEX
  8
LAYER_1
 62
7
 10
30.520151
 20
17.043823
 42
0.016396
  0
VERTEX
  8
LAYER_1
 62
7
 10
30.515481
 20
16.666161
 42
-0.016163
  0
VERTEX
  8
LAYER_1
 62
7
 10
30.510986
 20
16.288498
 42
-0.259164
  0
VERTEX
  8
LAYER_1
 62
7
 10
30.350390
 20
16.114405
 42
-0.161565
  0
VERTEX
  8
LAYER_1
 62
7
 10
30.177918
 20
16.109367
 42
-0.116761
  0
VERTEX
  8
LAYER_1
 62
7
 10
30.024150
 20
16.199887
 42
-0.182576
  0
VERTEX
  8
LAYER_1
 62
7
 10
29.858316
 20
16.537958
  0
VERTEX
  8
LAYER_1
 62
7
 10
29.858595
 20
16.566281
 42
-0.000316
  0
VERTEX
  8
LAYER_1
 62
7
 10
29.856950
 20
18.799238
 42
-0.287460
  0
VERTEX
  8
LAYER_1
 62
7
 10
29.889264
 20
18.873149
 42
0.004238
  0
VERTEX
  8
LAYER_1
 62
7
 10
30.507108
 20
19.441288
  0
SEQEND
  0
POLYLINE
  8
LAYER_1
 62
7
 70
1
 66
1
  0
VERTEX
  8
LAYER_1
 62
7
 10
20.063593
 20
8.705100
  0
VERTEX
  8
LAYER_1
 62
7
 10
20.151582
 20
8.705867
 42
0.035145
  0
VERTEX
  8
LAYER_1
 62
7
 10
20.260672
 20
8.719939
 42
0.160721
  0
VERTEX
  8
LAYER_1
 62
7
 10
20.354867
 20
8.772258
 42
0.198922
  0
VERTEX
  8
LAYER_1
 62
7
 10
20.362305
 20
8.809560
 42
0.110655
  0
VERTEX
  8
LAYER_1
 62
7
 10
20.345276
 20
8.844098
  0
VERTEX
  8
LAYER_1
 62
7
 10
20.317473
 20
8.875881
 42
-0.036946
  0
VERTEX
  8
LAYER_1
 62
7
 10
20.292589
 20
8.904922
 42
-0.131119
  0
VERTEX
  8
LAYER_1
 62
7
 10
19.986722
 20
9.598322
 42
0.095015
  0
VERTEX
  8
LAYER_1
 62
7
 10
19.961840
 20
9.669119
 42
0.197242
  0
VERTEX
  8
LAYER_1
 62
7
 10
19.905056
 20
9.714887
 42
0.137792
  0
VERTEX
  8
LAYER_1
 62
7
 10
19.847963
 20
9.683437
 42
0.055033
  0
VERTEX
  8
LAYER_1
 62
7
 10
19.806759
 20
9.632058
 42
-0.244572
  0
VERTEX
  8
LAYER_1
 62
7
 10
19.557502
 20
9.504579
 42
-0.125787
  0
VERTEX
  8
LAYER_1
 62
7
 10
19.436036
 20
9.533142
 42
-0.126436
  0
VERTEX
  8
LAYER_1
 62
7
 10
19.358157
 20
9.606997
 42
-0.081208
  0
VERTEX
  8
LAYER_1
 62
7
 10
19.314963
 20
9.710944
 42
-0.046133
  0
VERTEX
  8
LAYER_1
 62
7
 10
19.297550
 20
9.829783
 42
0.042674
  0
VERTEX
  8
LAYER_1
 62
7
 10
19.233868
 20
10.317393
 42
0.099810
  0
VERTEX
  8
LAYER_1
 62
7
 10
19.037983
 20
10.764211
 42
0.064159
  0
VERTEX
  8
LAYER_1
 62
7
 10
18.896449
 20
10.927386
 42
0.043935
  0
VERTEX
  8
LAYER_1
 62
7
 10
18.724522
 20
11.054979
 42
0.022511
  0
VERTEX
  8
LAYER_1
 62
7
 10
18.535300
 20
11.159834
  0
VERTEX
  8
LAYER_1
 62
7
 10
18.341880
 20
11.254797
 42
-0.191230
  0
VERTEX
  8
LAYER_1
 62
7
 10
17.949059
 20
11.685455
 42
-0.094513
  0
VERTEX
  8
LAYER_1
 62
7
 10
17.838340
 20
12.204124
 42
-0.069242
  0
VERTEX
  8
LAYER_1
 62
7
 10
17.899119
 20
12.733016
 42
-0.089569
  0
VERTEX
  8
LAYER_1
 62
7
 10
18.079520
 20
13.093083
 42
-0.122993
  0
VERTEX
  8
LAYER_1
 62
7
 10
18.388765
 20
13.346865
 42
-0.129929
  0
VERTEX
  8
LAYER_1
 62
7
 10
18.654768
 20
13.403870
 42
-0.103540
  0
VERTEX
  8
LAYER_1
 62
7
 10
18.920242
 20
13.336877
 42
-0.080711
  0
VERTEX
  8
LAYER_1
 62
7
 10
19.040862
 20
13.228845
 42
-0.184766
  0
VERTEX
  8
LAYER_1
 62
7
 10
19.091683
 20
13.080010
 42
-0.186671
  0
VERTEX
  8
LAYER_1
 62
7
 10
19.040125
 20
13.042596
 42
-0.114087
  0
VERTEX
  8
LAYER_1
 62
7
 10
18.976219
 20
13.042966
 42
-0.041747
  0
VERTEX
  8
LAYER_1
 62
7
 10
18.908941
 20
13.063915
  0
VERTEX
  8
LAYER_1
 62
7
 10
18.847271
 20
13.088235
 42
0.307344
  0
VERTEX
  8
LAYER_1
 62
7
 10
18.374194
 20
13.032303
 42
0.107038
  0
VERTEX
  8
LAYER_1
 62
7
 10
18.190067
 20
12.782677
 42
0.093472
  0
VERTEX
  8
LAYER_1
 62
7
 10
18.115506
 20
12.478147
 42
0.099087
  0
VERTEX
  8
LAYER_1
 62
7
 10
18.158421
 20
12.170003
 42
0.119664
  0
VERTEX
  8
LAYER_1
 62
7
 10
18.326722
 20
11.909538
 42
0.098311
  0
VERTEX
  8
LAYER_1
 62
7
 10
18.585506
 20
11.736112
 42
0.083039
  0
VERTEX
  8
LAYER_1
 62
7
 10
18.887253
 20
11.666316
 42
0.144047
  0
VERTEX
  8
LAYER_1
 62
7
 10
19.490966
 20
11.803548
 42
0.141188
  0
VERTEX
  8
LAYER_1
 62
7
 10
19.834538
 20
11.684779
 42
0.192224
  0
VERTEX
  8
LAYER_1
 62
7
 10
20.175201
 20
11.796380
 42
0.086509
  0
VERTEX
  8
LAYER_1
 62
7
 10
20.183395
 20
11.822863
 42
0.145035
  0
VERTEX
  8
LAYER_1
 62
7
 10
20.180340
 20
11.841618
 42
0.136078
  0
VERTEX
  8
LAYER_1
 62
7
 10
20.168602
 20
11.854002
 42
0.075791
  0
VERTEX
  8
LAYER_1
 62
7
 10
20.150745
 20
11.861375
 42
0.054253
  0
VERTEX
  8
LAYER_1
 62
7
 10
20.106940
 20
11.866525
  0
VERTEX
  8
LAYER_1
 62
7
 10
20.069446
 20
11.867941
 42
-0.231393
  0
VERTEX
  8
LAYER_1
 62
7
 10
19.833348
 20
11.978998
 42
-0.131340
  0
VERTEX
  8
LAYER_1
 62
7
 10
19.778488
 20
12.096983
 42
-0.163497
  0
VERTEX
  8
LAYER_1
 62
7
 10
19.800476
 20
12.229740
 42
0.075640
  0
VERTEX
  8
LAYER_1
 62
7
 10
19.908449
 20
12.743930
 42
0.105229
  0
VERTEX
  8
LAYER_1
 62
7
 10
19.830205
 20
13.260499
 42
0.092327
  0
VERTEX
  8
LAYER_1
 62
7
 10
19.623439
 20
13.603526
 42
0.072925
  0
VERTEX
  8
LAYER_1
 62
7
 10
19.316471
 20
13.862479
 42
0.099577
  0
VERTEX
  8
LAYER_1
 62
7
 10
18.963154
 20
13.989639
 42
0.085885
  0
VERTEX
  8
LAYER_1
 62
7
 10
18.589523
 20
13.980396
 42
0.162780
  0
VERTEX
  8
LAYER_1
 62
7
 10
17.942949
 20
13.616423
 42
0.029894
  0
VERTEX
  8
LAYER_1
 62
7
 10
17.915959
 20
13.584674
  0
VERTEX
  8
LAYER_1
 62
7
 10
17.890071
 20
13.551295
 42
-0.130107
  0
VERTEX
  8
LAYER_1
 62
7
 10
17.826266
 20
13.499740
 42
-0.134395
  0
VERTEX
  8
LAYER_1
 62
7
 10
17.813006
 20
13.552852
 42
-0.063008
  0
VERTEX
  8
LAYER_1
 62
7
 10
17.821713
 20
13.610107
 42
0.038969
  0
VERTEX
  8
LAYER_1
 62
7
 10
17.850120
 20
13.722060
 42
-0.111413
  0
VERTEX
  8
LAYER_1
 62
7
 10
18.046278
 20
14.022880
 42
-0.094124
  0
VERTEX
  8
LAYER_1
 62
7
 10
18.346419
 20
14.221238
 42
-0.089412
  0
VERTEX
  8
LAYER_1
 62
7
 10
18.699547
 20
14.301085
 42
-0.100542
  0
VERTEX
  8
LAYER_1
 62
7
 10
19.054669
 20
14.246370
  0
VERTEX
  8
LAYER_1
 62
7
 10
19.137671
 20
14.211735
 42
0.105171
  0
VERTEX
  8
LAYER_1
 62
7
 10
19.224464
 20
14.192435
  0
VERTEX
  8
LAYER_1
 62
7
 10
19.220021
 20
14.202905
 42
0.176411
  0
VERTEX
  8
LAYER_1
 62
7
 10
18.926963
 20
14.489989
 42
0.176411
  0
VERTEX
  8
LAYER_1
 62
7
 10
18.517779
 20
14.519461
 42
-0.068358
  0
VERTEX
  8
LAYER_1
 62
7
 10
18.497575
 20
14.523330
 42
-0.187501
  0
VERTEX
  8
LAYER_1
 62
7
 10
18.482833
 20
14.566078
 42
-0.117939
  0
VERTEX
  8
LAYER_1
 62
7
 10
18.496679
 20
14.608683
 42
-0.044316
  0
VERTEX
  8
LAYER_1
 62
7
 10
18.525484
 20
14.648799
  0
VERTEX
  8
LAYER_1
 62
7
 10
18.555623
 20
14.684078
 42
0.115514
  0
VERTEX
  8
LAYER_1
 62
7
 10
18.776195
 20
15.054955
 42
0.101436
  0
VERTEX
  8
LAYER_1
 62
7
 10
18.822713
 20
15.485230
 42
0.047506
  0
VERTEX
  8
LAYER_1
 62
7
 10
18.753495
 20
15.846933
 42
0.034723
  0
VERTEX
  8
LAYER_1
 62
7
 10
18.626155
 20
16.191483
 42
0.021790
  0
VERTEX
  8
LAYER_1
 62
7
 10
18.459907
 20
16.521381
 42
0.009653
  0
VERTEX
  8
LAYER_1
 62
7
 10
18.273962
 20
16.839129
 42
-0.056010
  0
VERTEX
  8
LAYER_1
 62
7
 10
18.044650
 20
17.390377
 42
-0.020827
  0
VERTEX
  8
LAYER_1
 62
7
 10
17.901704
 20
17.971765
 42
-0.044896
  0
VERTEX
  8
LAYER_1
 62
7
 10
17.773153
 20
19.111921
 42
0.075481
  0
VERTEX
  8
LAYER_1
 62
7
 10
17.736859
 20
19.235698
 42
0.110931
  0
VERTEX
  8
LAYER_1
 62
7
 10
17.698183
 20
19.284185
 42
0.174902
  0
VERTEX
  8
LAYER_1
 62
7
 10
17.639667
 20
19.302632
 42
0.180178
  0
VERTEX
  8
LAYER_1
 62
7
 10
17.581047
 20
19.158746
 42
0.018144
  0
VERTEX
  8
LAYER_1
 62
7
 10
17.578669
 20
19.037174
  0
VERTEX
  8
LAYER_1
 62
7
 10
17.577859
 20
18.998645
 42
-0.009480
  0
VERTEX
  8
LAYER_1
 62
7
 10
17.585366
 20
17.846246
 42
0.002457
  0
VERTEX
  8
LAYER_1
 62
7
 10
17.578324
 20
14.214209
  0
VERTEX
  8
LAYER_1
 62
7
 10
17.579387
 20
10.127567
 42
0.057799
  0
VERTEX
  8
LAYER_1
 62
7
 10
17.619177
 20
9.992685
 42
0.240757
  0
VERTEX
  8
LAYER_1
 62
7
 10
17.720393
 20
9.904776
 42
0.066085
  0
VERTEX
  8
LAYER_1
 62
7
 10
17.887782
 20
9.913840
  0
VERTEX
  8
LAYER_1
 62
7
 10
18.059086
 20
9.947624
 42
-0.050786
  0
VERTEX
  8
LAYER_1
 62
7
 10
18.228402
 20
9.966091
 42
-0.114598
  0
VERTEX
  8
LAYER_1
 62
7
 10
18.389829
 20
9.929201
 42
-0.149975
  0
VERTEX
  8
LAYER_1
 62
7
 10
18.473859
 20
9.847531
 42
-0.107299
  0
VERTEX
  8
LAYER_1
 62
7
 10
18.508457
 20
9.731266
 42
-0.094492
  0
VERTEX
  8
LAYER_1
 62
7
 10
18.495976
 20
9.608893
 42
-0.121553
  0
VERTEX
  8
LAYER_1
 62
7
 10
18.438770
 20
9.508898
 42
-0.118982
  0
VERTEX
  8
LAYER_1
 62
7
 10
18.334318
 20
9.447150
 42
-0.062468
  0
VERTEX
  8
LAYER_1
 62
7
 10
18.200700
 20
9.423546
 42
-0.029295
  0
VERTEX
  8
LAYER_1
 62
7
 10
17.662535
 20
9.417871
 42
-0.130201
  0
VERTEX
  8
LAYER_1
 62
7
 10
17.453604
 20
9.496723
 42
-0.186684
  0
VERTEX
  8
LAYER_1
 62
7
 10
17.333095
 20
9.681516
 42
-0.001059
  0
VERTEX
  8
LAYER_1
 62
7
 10
17.331450
 20
11.678052
  0
VERTEX
  8
LAYER_1
 62
7
 10
17.330995
 20
11.914561
 42
0.044783
  0
VERTEX
  8
LAYER_1
 62
7
 10
17.307714
 20
12.148426
 42
0.196518
  0
VERTEX
  8
LAYER_1
 62
7
 10
17.290309
 20
12.186153
 42
0.174765
  0
VERTEX
  8
LAYER_1
 62
7
 10
17.256247
 20
12.197661
 42
0.153494
  0
VERTEX
  8
LAYER_1
 62
7
 10
17.179398
 20
12.170752
 42
-0.022126
  0
VERTEX
  8
LAYER_1
 62
7
 10
16.479300
 20
11.730312
 42
-0.033497
  0
VERTEX
  8
LAYER_1
 62
7
 10
15.735138
 20
11.370422
 42
0.082801
  0
VERTEX
  8
LAYER_1
 62
7
 10
15.671538
 20
11.338946
 42
0.241565
  0
VERTEX
  8
LAYER_1
 62
7
 10
15.639841
 20
11.279356
 42
0.040013
  0
VERTEX
  8
LAYER_1
 62
7
 10
15.679464
 20
11.207424
  0
VERTEX
  8
LAYER_1
 62
7
 10
15.724518
 20
11.138202
 42
-0.136152
  0
VERTEX
  8
LAYER_1
 62
7
 10
15.779320
 20
10.984182
 42
-0.001548
  0
VERTEX
  8
LAYER_1
 62
7
 10
15.779672
 20
9.504200
 42
-0.138054
  0
VERTEX
  8
LAYER_1
 62
7
 10
15.748768
 20
9.380716
 42
-0.213238
  0
VERTEX
  8
LAYER_1
 62
7
 10
15.650181
 20
9.305263
 42
-0.232493
  0
VERTEX
  8
LAYER_1
 62
7
 10
15.543927
 20
9.369553
 42
-0.169615
  0
VERTEX
  8
LAYER_1
 62
7
 10
15.510820
 20
9.492449
 42
-0.003976
  0
VERTEX
  8
LAYER_1
 62
7
 10
15.510790
 20
10.229385
 42
0.008647
  0
VERTEX
  8
LAYER_1
 62
7
 10
15.503887
 20
10.965968
 42
0.166953
  0
VERTEX
  8
LAYER_1
 62
7
 10
15.489324
 20
11.034836
 42
0.156384
  0
VERTEX
  8
LAYER_1
 62
7
 10
15.440875
 20
11.075469
 42
0.272928
  0
VERTEX
  8
LAYER_1
 62
7
 10
15.310003
 20
11.055508
  0
VERTEX
  8
LAYER_1
 62
7
 10
15.060739
 20
10.889432
 42
0.020683
  0
VERTEX
  8
LAYER_1
 62
7
 10
14.819373
 20
10.709101
 42
0.035914
  0
VERTEX
  8
LAYER_1
 62
7
 10
14.601296
 20
10.504095
 42
0.051110
  0
VERTEX
  8
LAYER_1
 62
7
 10
14.421896
 20
10.263990
 42
0.177432
  0
VERTEX
  8
LAYER_1
 62
7
 10
14.407608
 20
10.215923
 42
0.146817
  0
VERTEX
  8
LAYER_1
 62
7
 10
14.425245
 20
10.172836
 42
0.197530
  0
VERTEX
  8
LAYER_1
 62
7
 10
14.511083
 20
10.125569
 42
-0.098540
  0
VERTEX
  8
LAYER_1
 62
7
 10
14.629620
 20
10.022619
 42
-0.068199
  0
VERTEX
  8
LAYER_1
 62
7
 10
14.707023
 20
9.886798
 42
-0.049639
  0
VERTEX
  8
LAYER_1
 62
7
 10
14.788748
 20
9.579638
 42
-0.191103
  0
VERTEX
  8
LAYER_1
 62
7
 10
14.768655
 20
9.443964
 42
-0.136313
  0
VERTEX
  8
LAYER_1
 62
7
 10
14.721429
 20
9.396600
 42
-0.175963
  0
VERTEX
  8
LAYER_1
 62
7
 10
14.652324
 20
9.386812
 42
-0.097574
  0
VERTEX
  8
LAYER_1
 62
7
 10
14.377714
 20
9.463543
 42
-0.117957
  0
VERTEX
  8
LAYER_1
 62
7
 10
14.159506
 20
9.645676
 42
-0.150781
  0
VERTEX
  8
LAYER_1
 62
7
 10
14.046921
 20
9.951103
 42
-0.100991
  0
VERTEX
  8
LAYER_1
 62
7
 10
14.092528
 20
10.276799
 42
-0.076862
  0
VERTEX
  8
LAYER_1
 62
7
 10
14.247856
 20
10.574190
 42
-0.046335
  0
VERTEX
  8
LAYER_1
 62
7
 10
14.471131
 20
10.825667
 42
-0.046415
  0
VERTEX
  8
LAYER_1
 62
7
 10
15.065165
 20
11.284010
 42
-0.021373
  0
VERTEX
  8
LAYER_1
 62
7
 10
15.715426
 20
11.657297
 42
0.003721
  0
VERTEX
  8
LAYER_1
 62
7
 10
16.380537
 20
12.008619
 42
0.028895
  0
VERTEX
  8
LAYER_1
 62
7
 10
17.019121
 20
12.401063
 42
0.087780
  0
VERTEX
  8
LAYER_1
 62
7
 10
17.265970
 20
12.649675
 42
0.107878
  0
VERTEX
  8
LAYER_1
 62
7
 10
17.400191
 20
12.971787
 42
0.276571
  0
VERTEX
  8
LAYER_1
 62
7
 10
17.398742
 20
12.992885
 42
0.181439
  0
VERTEX
  8
LAYER_1
 62
7
 10
17.381199
 20
13.005379
 42
0.268538
  0
VERTEX
  8
LAYER_1
 62
7
 10
17.361607
 20
13.001019
 42
0.132753
  0
VERTEX
  8
LAYER_1
 62
7
 10
17.355432
 20
12.989940
 42
0.085142
  0
VERTEX
  8
LAYER_1
 62
7
 10
17.354011
 20
12.971552
 42
-0.073909
  0
VERTEX
  8
LAYER_1
 62
7
 10
17.264707
 20
12.876858
 42
-0.155053
  0
VERTEX
  8
LAYER_1
 62
7
 10
17.146144
 20
12.830898
 42
-0.175434
  0
VERTEX
  8
LAYER_1
 62
7
 10
17.130598
 20
12.853950
 42
-0.105531
  0
VERTEX
  8
LAYER_1
 62
7
 10
17.130266
 20
12.882498
 42
-0.044408
  0
VERTEX
  8
LAYER_1
 62
7
 10
17.138725
 20
12.912478
  0
VERTEX
  8
LAYER_1
 62
7
 10
17.149552
 20
12.939826
 42
0.077768
  0
VERTEX
  8
LAYER_1
 62
7
 10
17.318760
 20
13.546507
 42
0.088625
  0
VERTEX
  8
LAYER_1
 62
7
 10
17.264707
 20
13.932292
 42
0.124398
  0
VERTEX
  8
LAYER_1
 62
7
 10
17.058367
 20
14.260353
 42
-0.018545
  0
VERTEX
  8
LAYER_1
 62
7
 10
16.742984
 20
14.585270
 42
-0.033951
  0
VERTEX
  8
LAYER_1
 62
7
 10
16.460749
 20
14.944206
 42
-0.052178
  0
VERTEX
  8
LAYER_1
 62
7
 10
16.246483
 20
15.341169
 42
-0.070293
  0
VERTEX
  8
LAYER_1
 62
7
 10
16.135009
 20
15.780169
 42
-0.126058
  0
VERTEX
  8
LAYER_1
 62
7
 10
16.279071
 20
16.597303
 42
-0.032354
  0
VERTEX
  8
LAYER_1
 62
7
 10
16.424122
 20
16.888276
 42
-0.016232
  0
VERTEX
  8
LAYER_1
 62
7
 10
16.596791
 20
17.163826
  0
VERTEX
  8
LAYER_1
 62
7
 10
16.778780
 20
17.434221
 42
0.015984
  0
VERTEX
  8
LAYER_1
 62
7
 10
16.951790
 20
17.709727
 42
-0.011123
  0
VERTEX
  8
LAYER_1
 62
7
 10
17.080094
 20
17.926230
  0
VERTEX
  8
LAYER_1
 62
7
 10
17.123186
 20
17.998805
 42
0.081395
  0
VERTEX
  8
LAYER_1
 62
7
 10
17.249549
 20
18.305950
 42
0.157891
  0
VERTEX
  8
LAYER_1
 62
7
 10
17.188007
 20
18.276620
 42
0.066141
  0
VERTEX
  8
LAYER_1
 62
7
 10
17.142428
 20
18.219628
  0
VERTEX
  8
LAYER_1
 62
7
 10
17.101674
 20
18.154506
 42
-0.080170
  0
VERTEX
  8
LAYER_1
 62
7
 10
17.054607
 20
18.100786
 42
-0.057816
  0
VERTEX
  8
LAYER_1
 62
7
 10
16.344521
 20
17.388702
  0
VERTEX
  8
LAYER_1
 62
7
 10
16.041389
 20
17.169588
 42
0.017266
  0
VERTEX
  8
LAYER_1
 62
7
 10
15.732798
 20
16.928857
 42
0.026132
  0
VERTEX
  8
LAYER_1
 62
7
 10
15.493278
 20
16.706486
 42
0.036811
  0
VERTEX
  8
LAYER_1
 62
7
 10
15.315412
 20
16.494068
 42
0.045981
  0
VERTEX
  8
LAYER_1
 62
7
 10
15.191781
 20
16.283192
 42
0.090211
  0
VERTEX
  8
LAYER_1
 62
7
 10
15.077551
 20
15.832432
 42
0.028115
  0
VERTEX
  8
LAYER_1
 62
7
 10
15.072116
 20
15.575730
 42
0.015918
  0
VERTEX
  8
LAYER_1
 62
7
 10
15.091243
 20
15.286935
 42
-0.066237
  0
VERTEX
  8
LAYER_1
 62
7
 10
15.079388
 20
14.977625
 42
-0.107525
  0
VERTEX
  8
LAYER_1
 62
7
 10
14.969524
 20
14.692013
  0
VERTEX
  8
LAYER_1
 62
7
 10
14.861435
 20
14.542755
 42
0.080073
  0
VERTEX
  8
LAYER_1
 62
7
 10
14.780993
 20
14.380326
 42
0.186190
  0
VERTEX
  8
LAYER_1
 62
7
 10
14.841259
 20
14.395925
  0
VERTEX
  8
LAYER_1
 62
7
 10
14.895091
 20
14.431793
 42
-0.110342
  0
VERTEX
  8
LAYER_1
 62
7
 10
15.459969
 20
14.798220
 42
-0.139518
  0
VERTEX
  8
LAYER_1
 62
7
 10
16.125491
 20
14.856106
 42
-0.151479
  0
VERTEX
  8
LAYER_1
 62
7
 10
16.181541
 20
14.821383
 42
-0.285140
  0
VERTEX
  8
LAYER_1
 62
7
 10
16.192117
 20
14.757401
 42
-0.175879
  0
VERTEX
  8
LAYER_1
 62
7
 10
16.040872
 20
14.698369
  0
VERTEX
  8
LAYER_1
 62
7
 10
15.956961
 20
14.694262
 42
0.034565
  0
VERTEX
  8
LAYER_1
 62
7
 10
15.874382
 20
14.686663
 42
0.115782
  0
VERTEX
  8
LAYER_1
 62
7
 10
15.338131
 20
14.520363
 42
0.135307
  0
VERTEX
  8
LAYER_1
 62
7
 10
14.945971
 20
14.122284
 42
0.095143
  0
VERTEX
  8
LAYER_1
 62
7
 10
14.803569
 20
13.657109
 42
0.081226
  0
VERTEX
  8
LAYER_1
 62
7
 10
14.829053
 20
13.170254
 42
0.175289
  0
VERTEX
  8
LAYER_1
 62
7
 10
15.205687
 20
12.628466
 42
0.086397
  0
VERTEX
  8
LAYER_1
 62
7
 10
15.506017
 20
12.481723
 42
0.098988
  0
VERTEX
  8
LAYER_1
 62
7
 10
15.839130
 20
12.453118
 42
0.163611
  0
VERTEX
  8
LAYER_1
 62
7
 10
16.224299
 20
12.621019
 42
0.134147
  0
VERTEX
  8
LAYER_1
 62
7
 10
16.456739
 20
12.974960
 42
0.065727
  0
VERTEX
  8
LAYER_1
 62
7
 10
16.482649
 20
13.143375
 42
0.120835
  0
VERTEX
  8
LAYER_1
 62
7
 10
16.446516
 20
13.308088
 42
0.169903
  0
VERTEX
  8
LAYER_1
 62
7
 10
16.382314
 20
13.362938
 42
0.062687
  0
VERTEX
  8
LAYER_1
 62
7
 10
16.299517
 20
13.381940
 42
-0.041243
  0
VERTEX
  8
LAYER_1
 62
7
 10
16.215309
 20
13.397683
 42
-0.157163
  0
VERTEX
  8
LAYER_1
 62
7
 10
16.146877
 20
13.442750
 42
-0.300615
  0
VERTEX
  8
LAYER_1
 62
7
 10
16.142662
 20
13.565337
 42
-0.176463
  0
VERTEX
  8
LAYER_1
 62
7
 10
16.238649
 20
13.651792
 42
-0.176585
  0
VERTEX
  8
LAYER_1
 62
7
 10
16.382564
 20
13.672076
 42
-0.096125
  0
VERTEX
  8
LAYER_1
 62
7
 10
16.519957
 20
13.615953
 42
-0.162245
  0
VERTEX
  8
LAYER_1
 62
7
 10
16.738415
 20
13.378357
 42
-0.147511
  0
VERTEX
  8
LAYER_1
 62
7
 10
16.784580
 20
13.057566
 42
-0.120548
  0
VERTEX
  8
LAYER_1
 62
7
 10
16.626109
 20
12.605728
 42
-0.090438
  0
VERTEX
  8
LAYER_1
 62
7
 10
16.296932
 20
12.254181
 42
-0.025507
  0
VERTEX
  8
LAYER_1
 62
7
 10
16.071204
 20
12.117521
 42
-0.007689
  0
VERTEX
  8
LAYER_1
 62
7
 10
15.717271
 20
11.938710
 42
0.022768
  0
VERTEX
  8
LAYER_1
 62
7
 10
15.368991
 20
11.749378
 42
0.013664
  0
VERTEX
  8
LAYER_1
 62
7
 10
14.905301
 20
11.468514
 42
0.028668
  0
VERTEX
  8
LAYER_1
 62
7
 10
14.464360
 20
11.147838
 42
0.045445
  0
VERTEX
  8
LAYER_1
 62
7
 10
14.079094
 20
10.769393
 42
0.061888
  0
VERTEX
  8
LAYER_1
 62
7
 10
13.782431
 20
10.315223
 42
0.092960
  0
VERTEX
  8
LAYER_1
 62
7
 10
13.593468
 20
9.676742
 42
0.069036
  0
VERTEX
  8
LAYER_1
 62
7
 10
13.608547
 20
9.346920
 42
0.086127
  0
VERTEX
  8
LAYER_1
 62
7
 10
13.725206
 20
9.035000
 42
0.093242
  0
VERTEX
  8
LAYER_1
 62
7
 10
13.943318
 20
8.792777
 42
0.075676
  0
VERTEX
  8
LAYER_1
 62
7
 10
14.228805
 20
8.637185
 42
0.116882
  0
VERTEX
  8
LAYER_1
 62
7
 10
14.875350
 20
8.564743
 42
0.142767
  0
VERTEX
  8
LAYER_1
 62
7
 10
14.987487
 20
8.633758
 42
0.089746
  0
VERTEX
  8
LAYER_1
 62
7
 10
15.053841
 20
8.745129
 42
0.031686
  0
VERTEX
  8
LAYER_1
 62
7
 10
15.094461
 20
8.875911
  0
VERTEX
  8
LAYER_1
 62
7
 10
15.111386
 20
8.941410
  0
VERTEX
  8
LAYER_1
 62
7
 10
15.129397
 20
9.003156
 42
-0.307976
  0
VERTEX
  8
LAYER_1
 62
7
 10
15.176781
 20
9.041786
 42
-0.152344
  0
VERTEX
  8
LAYER_1
 62
7
 10
15.206697
 20
9.035808
 42
-0.173721
  0
VERTEX
  8
LAYER_1
 62
7
 10
15.228219
 20
9.010794
 42
0.139672
  0
VERTEX
  8
LAYER_1
 62
7
 10
15.495779
 20
8.679311
 42
0.214625
  0
VERTEX
  8
LAYER_1
 62
7
 10
15.974423
 20
8.606296
 42
0.219840
  0
VERTEX
  8
LAYER_1
 62
7
 10
16.352512
 20
8.908447
 42
0.077614
  0
VERTEX
  8
LAYER_1
 62
7
 10
16.425450
 20
9.112161
 42
0.041262
  0
VERTEX
  8
LAYER_1
 62
7
 10
16.447867
 20
9.327178
  0
VERTEX
  8
LAYER_1
 62
7
 10
16.450633
 20
9.545984
 42
-0.031408
  0
VERTEX
  8
LAYER_1
 62
7
 10
16.464612
 20
9.761067
 42
-0.213194
  0
VERTEX
  8
LAYER_1
 62
7
 10
16.502963
 20
9.834326
 42
-0.163060
  0
VERTEX
  8
LAYER_1
 62
7
 10
16.577799
 20
9.858552
 42
-0.140128
  0
VERTEX
  8
LAYER_1
 62
7
 10
16.656557
 20
9.837062
 42
-0.186274
  0
VERTEX
  8
LAYER_1
 62
7
 10
16.706673
 20
9.773170
 42
-0.036683
  0
VERTEX
  8
LAYER_1
 62
7
 10
16.721303
 20
9.331276
  0
VERTEX
  8
LAYER_1
 62
7
 10
16.718406
 20
9.109706
 42
0.021542
  0
VERTEX
  8
LAYER_1
 62
7
 10
16.727472
 20
8.888941
 42
0.169335
  0
VERTEX
  8
LAYER_1
 62
7
 10
16.805525
 20
8.762167
 42
0.149352
  0
VERTEX
  8
LAYER_1
 62
7
 10
16.943329
 20
8.704927
  0
VERTEX
  8
LAYER_1
 62
7
 10
17.237261
 20
8.704996
  0
VERTEX
  8
LAYER_1
 62
7
 10
20.063593
 20
8.705100
  0
SEQEND
  0
POLYLINE
  8
LAYER_1
 62
7
 70
1
 66
1
  0
VERTEX
  8
LAYER_1
 62
7
 10
16.710611
 20
10.671026
 42
0.199589
  0
VERTEX
  8
LAYER_1
 62
7
 10
16.672454
 20
10.763144
 42
0.199589
  0
VERTEX
  8
LAYER_1
 62
7
 10
16.580337
 20
10.801300
 42
0.199589
  0
VERTEX
  8
LAYER_1
 62
7
 10
16.488219
 20
10.763144
 42
0.199589
  0
VERTEX
  8
LAYER_1
 62
7
 10
16.450062
 20
10.671026
 42
0.199589
  0
VERTEX
  8
LAYER_1
 62
7
 10
16.488219
 20
10.578908
 42
0.199589
  0
VERTEX
  8
LAYER_1
 62
7
 10
16.580337
 20
10.540752
 42
0.199589
  0
VERTEX
  8
LAYER_1
 62
7
 10
16.672454
 20
10.578908
 42
0.199589
  0
VERTEX
  8
LAYER_1
 62
7
 10
16.710611
 20
10.671026
  0
SEQEND
  0
POLYLINE
  8
LAYER_1
 62
7
 70
1
 66
1
  0
VERTEX
  8
LAYER_1
 62
7
 10
10.813302
 20
19.100992
 42
-0.145301
  0
VERTEX
  8
LAYER_1
 62
7
 10
10.834006
 20
19.101409
 42
-0.154909
  0
VERTEX
  8
LAYER_1
 62
7
 10
10.848502
 20
19.091150
 42
-0.150651
  0
VERTEX
  8
LAYER_1
 62
7
 10
10.860833
 20
19.049922
 42
-0.085188
  0
VERTEX
  8
LAYER_1
 62
7
 10
10.854216
 20
18.999947
 42
-0.055972
  0
VERTEX
  8
LAYER_1
 62
7
 10
10.845027
 20
18.978754
 42
-0.093855
  0
VERTEX
  8
LAYER_1
 62
7
 10
10.832573
 20
18.963864
 42
0.023132
  0
VERTEX
  8
LAYER_1
 62
7
 10
10.216095
 20
18.164165
 42
0.040479
  0
VERTEX
  8
LAYER_1
 62
7
 10
9.706517
 20
17.293875
 42
0.032531
  0
VERTEX
  8
LAYER_1
 62
7
 10
9.527641
 20
16.833356
 42
0.042209
  0
VERTEX
  8
LAYER_1
 62
7
 10
9.418188
 20
16.348867
 42
0.055117
  0
VERTEX
  8
LAYER_1
 62
7
 10
9.404224
 20
15.857194
 42
0.068471
  0
VERTEX
  8
LAYER_1
 62
7
 10
9.511811
 20
15.375128
 42
0.050422
  0
VERTEX
  8
LAYER_1
 62
7
 10
9.698160
 20
14.998038
 42
0.040371
  0
VERTEX
  8
LAYER_1
 62
7
 10
9.949636
 20
14.660342
  0
VERTEX
  8
LAYER_1
 62
7
 10
10.126359
 20
14.463514
 42
-0.008866
  0
VERTEX
  8
LAYER_1
 62
7
 10
10.302520
 20
14.265420
 42
-0.024426
  0
VERTEX
  8
LAYER_1
 62
7
 10
10.464514
 20
14.056861
 42
-0.039754
  0
VERTEX
  8
LAYER_1
 62
7
 10
10.598737
 20
13.828638
 42
-0.100746
  0
VERTEX
  8
LAYER_1
 62
7
 10
10.809380
 20
13.094111
 42
-0.114207
  0
VERTEX
  8
LAYER_1
 62
7
 10
10.699674
 20
12.340195
 42
0.203926
  0
VERTEX
  8
LAYER_1
 62
7
 10
10.696766
 20
12.247777
 42
0.139918
  0
VERTEX
  8
LAYER_1
 62
7
 10
10.753962
 20
12.174395
 42
-0.149943
  0
VERTEX
  8
LAYER_1
 62
7
 10
10.944188
 20
11.865855
 42
-0.142855
  0
VERTEX
  8
LAYER_1
 62
7
 10
10.937975
 20
11.502851
 42
-0.032355
  0
VERTEX
  8
LAYER_1
 62
7
 10
10.878238
 20
11.367764
 42
-0.162291
  0
VERTEX
  8
LAYER_1
 62
7
 10
10.778050
 20
11.266782
 42
0.140237
  0
VERTEX
  8
LAYER_1
 62
7
 10
10.680065
 20
11.473989
 42
0.124463
  0
VERTEX
  8
LAYER_1
 62
7
 10
10.491572
 20
11.606373
 42
0.100188
  0
VERTEX
  8
LAYER_1
 62
7
 10
10.145342
 20
11.656152
 42
0.057904
  0
VERTEX
  8
LAYER_1
 62
7
 10
9.798407
 20
11.596385
 42
0.083772
  0
VERTEX
  8
LAYER_1
 62
7
 10
8.875636
 20
11.144342
 42
0.054220
  0
VERTEX
  8
LAYER_1
 62
7
 10
8.584839
 20
10.883186
 42
0.107850
  0
VERTEX
  8
LAYER_1
 62
7
 10
8.392923
 20
10.546239
 42
0.087089
  0
VERTEX
  8
LAYER_1
 62
7
 10
8.360727
 20
10.236773
 42
0.108708
  0
VERTEX
  8
LAYER_1
 62
7
 10
8.448033
 20
9.938853
 42
0.183345
  0
VERTEX
  8
LAYER_1
 62
7
 10
8.719897
 20
9.679195
 42
0.180246
  0
VERTEX
  8
LAYER_1
 62
7
 10
9.095489
 20
9.655194
 42
0.174169
  0
VERTEX
  8
LAYER_1
 62
7
 10
9.268560
 20
9.769057
 42
0.199571
  0
VERTEX
  8
LAYER_1
 62
7
 10
9.323097
 20
9.966819
 42
0.085585
  0
VERTEX
  8
LAYER_1
 62
7
 10
9.256376
 20
10.141107
 42
0.064625
  0
VERTEX
  8
LAYER_1
 62
7
 10
9.141404
 20
10.286742
 42
0.071122
  0
VERTEX
  8
LAYER_1
 62
7
 10
8.835802
 20
10.503467
 42
-0.055738
  0
VERTEX
  8
LAYER_1
 62
7
 10
8.732456
 20
10.569446
 42
-0.155887
  0
VERTEX
  8
LAYER_1
 62
7
 10
8.703938
 20
10.616988
 42
-0.187120
  0
VERTEX
  8
LAYER_1
 62
7
 10
8.717944
 20
10.679842
 42
-0.087087
  0
VERTEX
  8
LAYER_1
 62
7
 10
9.111616
 20
11.037470
 42
-0.054991
  0
VERTEX
  8
LAYER_1
 62
7
 10
9.592185
 20
11.273480
 42
-0.058407
  0
VERTEX
  8
LAYER_1
 62
7
 10
9.619264
 20
11.285671
 42
-0.136986
  0
VERTEX
  8
LAYER_1
 62
7
 10
9.636701
 20
11.286753
 42
-0.207669
  0
VERTEX
  8
LAYER_1
 62
7
 10
9.646355
 20
11.279014
 42
-0.105453
  0
VERTEX
  8
LAYER_1
 62
7
 10
9.650085
 20
11.264741
 42
-0.052729
  0
VERTEX
  8
LAYER_1
 62
7
 10
9.647210
 20
11.225742
  0
VERTEX
  8
LAYER_1
 62
7
 10
9.642947
 20
11.188054
 42
0.183698
  0
VERTEX
  8
LAYER_1
 62
7
 10
9.639873
 20
11.116199
 42
0.140436
  0
VERTEX
  8
LAYER_1
 62
7
 10
9.680490
 20
11.061530
 42
0.155315
  0
VERTEX
  8
LAYER_1
 62
7
 10
9.815328
 20
11.013088
 42
0.009157
  0
VERTEX
  8
LAYER_1
 62
7
 10
10.253462
 20
11.007477
 42
-0.012188
  0
VERTEX
  8
LAYER_1
 62
7
 10
10.691331
 20
10.999222
 42
0.040178
  0
VERTEX
  8
LAYER_1
 62
7
 10
10.819339
 20
11.046254
 42
-0.034120
  0
VERTEX
  8
LAYER_1
 62
7
 10
10.946906
 20
11.094872
 42
-0.183487
  0
VERTEX
  8
LAYER_1
 62
7
 10
11.015193
 20
11.106762
 42
-0.163512
  0
VERTEX
  8
LAYER_1
 62
7
 10
11.066658
 20
11.074103
 42
-0.200145
  0
VERTEX
  8
LAYER_1
 62
7
 10
11.102953
 20
10.949518
  0
VERTEX
  8
LAYER_1
 62
7
 10
11.103585
 20
10.215152
 42
0.001725
  0
VERTEX
  8
LAYER_1
 62
7
 10
11.104481
 20
9.480699
 42
0.137934
  0
VERTEX
  8
LAYER_1
 62
7
 10
11.133798
 20
9.352339
 42
0.145585
  0
VERTEX
  8
LAYER_1
 62
7
 10
11.177782
 20
9.309095
 42
0.188732
  0
VERTEX
  8
LAYER_1
 62
7
 10
11.243842
 20
9.304793
 42
0.181813
  0
VERTEX
  8
LAYER_1
 62
7
 10
11.333146
 20
9.385372
 42
0.131498
  0
VERTEX
  8
LAYER_1
 62
7
 10
11.361465
 20
9.504200
  0
VERTEX
  8
LAYER_1
 62
7
 10
11.362756
 20
10.031899
  0
VERTEX
  8
LAYER_1
 62
7
 10
11.361656
 20
10.559664
 42
-0.004646
  0
VERTEX
  8
LAYER_1
 62
7
 10
11.366870
 20
11.614951
 42
-0.138297
  0
VERTEX
  8
LAYER_1
 62
7
 10
11.439019
 20
11.875285
 42
-0.086119
  0
VERTEX
  8
LAYER_1
 62
7
 10
11.617980
 20
12.080273
 42
-0.016527
  0
VERTEX
  8
LAYER_1
 62
7
 10
11.952488
 20
12.427208
 42
0.011219
  0
VERTEX
  8
LAYER_1
 62
7
 10
12.290699
 20
12.770618
 42
0.109630
  0
VERTEX
  8
LAYER_1
 62
7
 10
12.361428
 20
12.894528
 42
0.064886
  0
VERTEX
  8
LAYER_1
 62
7
 10
12.384424
 20
13.034565
  0
VERTEX
  8
LAYER_1
 62
7
 10
12.385675
 20
13.107533
  0
VERTEX
  8
LAYER_1
 62
7
 10
12.384176
 20
13.180815
 42
-0.023768
  0
VERTEX
  8
LAYER_1
 62
7
 10
12.385173
 20
13.323364
 42
0.026163
  0
VERTEX
  8
LAYER_1
 62
7
 10
12.391880
 20
13.496314
  0
VERTEX
  8
LAYER_1
 62
7
 10
12.386921
 20
13.669682
 42
-0.040616
  0
VERTEX
  8
LAYER_1
 62
7
 10
12.393516
 20
14.016529
  0
VERTEX
  8
LAYER_1
 62
7
 10
12.392446
 20
14.105684
  0
VERTEX
  8
LAYER_1
 62
7
 10
12.388856
 20
14.197333
 42
-0.023076
  0
VERTEX
  8
LAYER_1
 62
7
 10
12.387700
 20
14.382324
 42
-0.063630
  0
VERTEX
  8
LAYER_1
 62
7
 10
12.417212
 20
14.559911
 42
-0.102920
  0
VERTEX
  8
LAYER_1
 62
7
 10
12.504559
 20
14.718507
 42
0.006563
  0
VERTEX
  8
LAYER_1
 62
7
 10
12.683578
 20
14.856752
 42
-0.079093
  0
VERTEX
  8
LAYER_1
 62
7
 10
12.879166
 20
14.967149
 42
-0.186558
  0
VERTEX
  8
LAYER_1
 62
7
 10
12.952565
 20
14.940691
 42
-0.117519
  0
VERTEX
  8
LAYER_1
 62
7
 10
12.996716
 20
14.875171
 42
-0.088075
  0
VERTEX
  8
LAYER_1
 62
7
 10
13.024991
 20
14.714277
 42
-0.008881
  0
VERTEX
  8
LAYER_1
 62
7
 10
13.031439
 20
14.095214
  0
VERTEX
  8
LAYER_1
 62
7
 10
13.030748
 20
13.475886
 42
0.011667
  0
VERTEX
  8
LAYER_1
 62
7
 10
13.032144
 20
13.265537
 42
-0.056662
  0
VERTEX
  8
LAYER_1
 62
7
 10
13.014768
 20
13.056509
 42
-0.105897
  0
VERTEX
  8
LAYER_1
 62
7
 10
12.929356
 20
12.912183
 42
-0.021096
  0
VERTEX
  8
LAYER_1
 62
7
 10
12.809486
 20
12.792357
 42
0.025571
  0
VERTEX
  8
LAYER_1
 62
7
 10
12.619435
 20
12.612279
 42
-0.027363
  0
VERTEX
  8
LAYER_1
 62
7
 10
12.428768
 20
12.432907
 42
-0.008782
  0
VERTEX
  8
LAYER_1
 62
7
 10
12.320509
 20
12.326758
  0
VERTEX
  8
LAYER_1
 62
7
 10
12.284765
 20
12.290858
 42
0.106397
  0
VERTEX
  8
LAYER_1
 62
7
 10
12.173898
 20
12.124220
 42
0.068900
  0
VERTEX
  8
LAYER_1
 62
7
 10
12.128321
 20
11.795425
 42
0.004080
  0
VERTEX
  8
LAYER_1
 62
7
 10
12.130774
 20
11.461959
  0
VERTEX
  8
LAYER_1
 62
7
 10
12.133669
 20
11.188721
 42
-0.007431
  0
VERTEX
  8
LAYER_1
 62
7
 10
12.130554
 20
9.359236
  0
VERTEX
  8
LAYER_1
 62
7
 10
12.133592
 20
9.192496
 42
-0.092363
  0
VERTEX
  8
LAYER_1
 62
7
 10
12.107038
 20
9.029948
 42
-0.115976
  0
VERTEX
  8
LAYER_1
 62
7
 10
12.027854
 20
8.916848
 42
-0.028613
  0
VERTEX
  8
LAYER_1
 62
7
 10
11.918794
 20
8.829836
  0
VERTEX
  8
LAYER_1
 62
7
 10
11.652232
 20
8.621498
 42
0.017278
  0
VERTEX
  8
LAYER_1
 62
7
 10
11.394484
 20
8.402586
 42
0.035982
  0
VERTEX
  8
LAYER_1
 62
7
 10
11.356925
 20
8.365173
  0
VERTEX
  8
LAYER_1
 62
7
 10
11.319090
 20
8.325810
 42
-0.092694
  0
VERTEX
  8
LAYER_1
 62
7
 10
11.275857
 20
8.297574
 42
-0.147068
  0
VERTEX
  8
LAYER_1
 62
7
 10
11.222104
 20
8.293540
 42
0.042208
  0
VERTEX
  8
LAYER_1
 62
7
 10
11.035097
 20
8.469424
 42
0.024567
  0
VERTEX
  8
LAYER_1
 62
7
 10
10.825640
 20
8.619266
  0
VERTEX
  8
LAYER_1
 62
7
 10
10.605783
 20
8.756417
 42
-0.009981
  0
VERTEX
  8
LAYER_1
 62
7
 10
10.387579
 20
8.894229
 42
-0.173559
  0
VERTEX
  8
LAYER_1
 62
7
 10
10.304268
 20
8.989012
 42
-0.213731
  0
VERTEX
  8
LAYER_1
 62
7
 10
10.309086
 20
9.113846
 42
0.072639
  0
VERTEX
  8
LAYER_1
 62
7
 10
10.418836
 20
9.676874
 42
0.020551
  0
VERTEX
  8
LAYER_1
 62
7
 10
10.423669
 20
10.109680
  0
VERTEX
  8
LAYER_1
 62
7
 10
10.419658
 20
10.252945
 42
0.209868
  0
VERTEX
  8
LAYER_1
 62
7
 10
10.303813
 20
10.302224
 42
0.094723
  0
VERTEX
  8
LAYER_1
 62
7
 10
10.175012
 20
10.280206
 42
0.185144
  0
VERTEX
  8
LAYER_1
 62
7
 10
10.144848
 20
10.254305
 42
0.133253
  0
VERTEX
  8
LAYER_1
 62
7
 10
10.137807
 20
10.216827
 42
0.100822
  0
VERTEX
  8
LAYER_1
 62
7
 10
10.161851
 20
10.138025
 42
-0.196347
  0
VERTEX
  8
LAYER_1
 62
7
 10
10.032243
 20
9.165784
 42
-0.160414
  0
VERTEX
  8
LAYER_1
 62
7
 10
9.498342
 20
8.737036
 42
-0.138556
  0
VERTEX
  8
LAYER_1
 62
7
 10
8.813123
 20
8.670146
 42
-0.090374
  0
VERTEX
  8
LAYER_1
 62
7
 10
8.498155
 20
8.789045
 42
-0.077332
  0
VERTEX
  8
LAYER_1
 62
7
 10
8.241385
 20
9.003817
 42
-0.134541
  0
VERTEX
  8
LAYER_1
 62
7
 10
7.949105
 20
9.605490
 42
-0.078537
  0
VERTEX
  8
LAYER_1
 62
7
 10
7.948958
 20
10.138788
 42
-0.085114
  0
VERTEX
  8
LAYER_1
 62
7
 10
8.118548
 20
10.644238
 42
-0.069530
  0
VERTEX
  8
LAYER_1
 62
7
 10
8.387894
 20
11.018446
 42
-0.051317
  0
VERTEX
  8
LAYER_1
 62
7
 10
8.737229
 20
11.314901
 42
-0.032524
  0
VERTEX
  8
LAYER_1
 62
7
 10
9.135762
 20
11.552045
 42
-0.016231
  0
VERTEX
  8
LAYER_1
 62
7
 10
9.552703
 20
11.748320
 42
0.091408
  0
VERTEX
  8
LAYER_1
 62
7
 10
9.898881
 20
12.020327
 42
0.080848
  0
VERTEX
  8
LAYER_1
 62
7
 10
10.136000
 20
12.395687
 42
0.081418
  0
VERTEX
  8
LAYER_1
 62
7
 10
10.242688
 20
12.826261
 42
0.092834
  0
VERTEX
  8
LAYER_1
 62
7
 10
10.197573
 20
13.263906
 42
0.185543
  0
VERTEX
  8
LAYER_1
 62
7
 10
9.875843
 20
13.664336
 42
0.098378
  0
VERTEX
  8
LAYER_1
 62
7
 10
9.632147
 20
13.750577
 42
0.116459
  0
VERTEX
  8
LAYER_1
 62
7
 10
9.372214
 20
13.727230
 42
0.161554
  0
VERTEX
  8
LAYER_1
 62
7
 10
9.106446
 20
13.558610
 42
0.177433
  0
VERTEX
  8
LAYER_1
 62
7
 10
9.000544
 20
13.264141
 42
0.168338
  0
VERTEX
  8
LAYER_1
 62
7
 10
9.090598
 20
13.054203
 42
0.214608
  0
VERTEX
  8
LAYER_1
 62
7
 10
9.294073
 20
12.958744
 42
0.210710
  0
VERTEX
  8
LAYER_1
 62
7
 10
9.456348
 20
13.000694
 42
0.193242
  0
VERTEX
  8
LAYER_1
 62
7
 10
9.543537
 20
13.145226
 42
0.124494
  0
VERTEX
  8
LAYER_1
 62
7
 10
9.549530
 20
13.270648
 42
0.024596
  0
VERTEX
  8
LAYER_1
 62
7
 10
9.518156
 20
13.392810
 42
-0.105706
  0
VERTEX
  8
LAYER_1
 62
7
 10
9.523642
 20
13.413203
 42
-0.129070
  0
VERTEX
  8
LAYER_1
 62
7
 10
9.535273
 20
13.425770
 42
-0.161575
  0
VERTEX
  8
LAYER_1
 62
7
 10
9.570755
 20
13.432380
 42
-0.102911
  0
VERTEX
  8
LAYER_1
 62
7
 10
9.647060
 20
13.406205
 42
-0.188227
  0
VERTEX
  8
LAYER_1
 62
7
 10
9.881659
 20
13.166215
 42
-0.136247
  0
VERTEX
  8
LAYER_1
 62
7
 10
9.930483
 20
12.829371
 42
-0.104649
  0
VERTEX
  8
LAYER_1
 62
7
 10
9.818502
 20
12.464681
 42
-0.090830
  0
VERTEX
  8
LAYER_1
 62
7
 10
9.577159
 20
12.170517
 42
-0.183740
  0
VERTEX
  8
LAYER_1
 62
7
 10
8.871053
 20
11.912475
 42
-0.166884
  0
VERTEX
  8
LAYER_1
 62
7
 10
8.295262
 20
12.100440
 42
-0.161275
  0
VERTEX
  8
LAYER_1
 62
7
 10
7.943230
 20
12.594830
 42
-0.163930
  0
VERTEX
  8
LAYER_1
 62
7
 10
7.977497
 20
13.372187
 42
-0.084797
  0
VERTEX
  8
LAYER_1
 62
7
 10
8.176337
 20
13.711106
 42
-0.098332
  0
VERTEX
  8
LAYER_1
 62
7
 10
8.483520
 20
13.957071
 42
-0.140452
  0
VERTEX
  8
LAYER_1
 62
7
 10
9.423447
 20
14.132859
 42
0.162638
  0
VERTEX
  8
LAYER_1
 62
7
 10
9.505642
 20
14.132492
 42
0.132502
  0
VERTEX
  8
LAYER_1
 62
7
 10
9.538488
 20
14.154126
 42
0.170508
  0
VERTEX
  8
LAYER_1
 62
7
 10
9.552938
 20
14.192670
 42
0.164592
  0
VERTEX
  8
LAYER_1
 62
7
 10
9.532828
 20
14.241209
 42
0.100290
  0
VERTEX
  8
LAYER_1
 62
7
 10
9.490498
 20
14.271736
 42
0.033292
  0
VERTEX
  8
LAYER_1
 62
7
 10
9.438144
 20
14.291931
  0
VERTEX
  8
LAYER_1
 62
7
 10
9.387960
 20
14.309470
 42
0.089408
  0
VERTEX
  8
LAYER_1
 62
7
 10
8.858759
 20
14.314758
 42
0.061927
  0
VERTEX
  8
LAYER_1
 62
7
 10
8.349916
 20
14.162471
 42
-0.007251
  0
VERTEX
  8
LAYER_1
 62
7
 10
8.209850
 20
14.111620
 42
-0.126217
  0
VERTEX
  8
LAYER_1
 62
7
 10
8.062380
 20
14.099723
 42
-0.314816
  0
VERTEX
  8
LAYER_1
 62
7
 10
8.059707
 20
14.169066
 42
-0.083546
  0
VERTEX
  8
LAYER_1
 62
7
 10
8.109383
 20
14.225806
 42
-0.012159
  0
VERTEX
  8
LAYER_1
 62
7
 10
8.371214
 20
14.404371
 42
0.012434
  0
VERTEX
  8
LAYER_1
 62
7
 10
8.632870
 20
14.583023
 42
0.141329
  0
VERTEX
  8
LAYER_1
 62
7
 10
8.654122
 20
14.673164
 42
0.078782
  0
VERTEX
  8
LAYER_1
 62
7
 10
8.633677
 20
14.764011
  0
VERTEX
  8
LAYER_1
 62
7
 10
8.594880
 20
14.853756
 42
-0.037971
  0
VERTEX
  8
LAYER_1
 62
7
 10
8.561074
 20
14.940592
 42
-0.075402
  0
VERTEX
  8
LAYER_1
 62
7
 10
8.497303
 20
15.440251
 42
-0.059573
  0
VERTEX
  8
LAYER_1
 62
7
 10
8.569284
 20
15.935130
 42
-0.043685
  0
VERTEX
  8
LAYER_1
 62
7
 10
8.742857
 20
16.410752
 42
-0.031699
  0
VERTEX
  8
LAYER_1
 62
7
 10
8.983859
 20
16.852642
 42
-0.023892
  0
VERTEX
  8
LAYER_1
 62
7
 10
9.329686
 20
17.353193
 42
-0.014695
  0
VERTEX
  8
LAYER_1
 62
7
 10
9.712848
 20
17.825235
 42
-0.003598
  0
VERTEX
  8
LAYER_1
 62
7
 10
10.318095
 20
18.509048
  0
VERTEX
  8
LAYER_1
 62
7
 10
10.518951
 20
18.737195
 42
0.025873
  0
VERTEX
  8
LAYER_1
 62
7
 10
10.664011
 20
18.923060
 42
-0.044346
  0
VERTEX
  8
LAYER_1
 62
7
 10
10.813302
 20
19.100992
  0
SEQEND
  0
POLYLINE
  8
LAYER_1
 62
7
 70
1
 66
1
  0
VERTEX
  8
LAYER_1
 62
7
 10
22.998506
 20
19.101228
 42
-0.265412
  0
VERTEX
  8
LAYER_1
 62
7
 10
23.033675
 20
19.085845
 42
-0.146873
  0
VERTEX
  8
LAYER_1
 62
7
 10
23.046140
 20
19.045853
 42
-0.091617
  0
VERTEX
  8
LAYER_1
 62
7
 10
23.039635
 20
18.999207
 42
-0.133121
  0
VERTEX
  8
LAYER_1
 62
7
 10
23.017894
 20
18.963864
 42
0.024577
  0
VERTEX
  8
LAYER_1
 62
7
 10
22.373950
 20
18.123464
 42
0.044005
  0
VERTEX
  8
LAYER_1
 62
7
 10
21.851535
 20
17.204454
 42
0.055757
  0
VERTEX
  8
LAYER_1
 62
7
 10
21.620857
 20
16.480252
 42
0.086155
  0
VERTEX
  8
LAYER_1
 62
7
 10
21.600895
 20
15.723884
 42
0.087697
  0
VERTEX
  8
LAYER_1
 62
7
 10
21.824124
 20
15.093844
 42
0.055176
  0
VERTEX
  8
LAYER_1
 62
7
 10
22.113562
 20
14.693730
 42
0.004350
  0
VERTEX
  8
LAYER_1
 62
7
 10
22.361050
 20
14.427543
  0
VERTEX
  8
LAYER_1
 62
7
 10
22.449757
 20
14.330697
 42
-0.046210
  0
VERTEX
  8
LAYER_1
 62
7
 10
22.769190
 20
13.908067
 42
-0.067370
  0
VERTEX
  8
LAYER_1
 62
7
 10
22.967519
 20
13.463321
 42
-0.078666
  0
VERTEX
  8
LAYER_1
 62
7
 10
23.026459
 20
12.980539
 42
-0.070147
  0
VERTEX
  8
LAYER_1
 62
7
 10
22.927724
 20
12.443803
 42
-0.018649
  0
VERTEX
  8
LAYER_1
 62
7
 10
22.882528
 20
12.319749
 42
0.304094
  0
VERTEX
  8
LAYER_1
 62
7
 10
22.901094
 20
12.214670
 42
0.046023
  0
VERTEX
  8
LAYER_1
 62
7
 10
22.942478
 20
12.174568
  0
VERTEX
  8
LAYER_1
 62
7
 10
22.985933
 20
12.138673
 42
-0.114822
  0
VERTEX
  8
LAYER_1
 62
7
 10
23.117471
 20
11.946932
 42
-0.093823
  0
VERTEX
  8
LAYER_1
 62
7
 10
23.159415
 20
11.719663
 42
-0.158039
  0
VERTEX
  8
LAYER_1
 62
7
 10
23.015897
 20
11.279238
 42
0.062620
  0
VERTEX
  8
LAYER_1
 62
7
 10
22.775069
 20
11.471565
 42
0.090410
  0
VERTEX
  8
LAYER_1
 62
7
 10
22.488767
 20
11.582637
 42
0.089479
  0
VERTEX
  8
LAYER_1
 62
7
 10
22.050883
 20
11.584180
 42
0.040616
  0
VERTEX
  8
LAYER_1
 62
7
 10
21.624632
 20
11.473005
 42
0.056627
  0
VERTEX
  8
LAYER_1
 62
7
 10
21.113541
 20
11.229078
 42
0.100280
  0
VERTEX
  8
LAYER_1
 62
7
 10
20.704328
 20
10.843175
 42
0.171590
  0
VERTEX
  8
LAYER_1
 62
7
 10
20.548810
 20
10.266605
 42
0.093039
  0
VERTEX
  8
LAYER_1
 62
7
 10
20.624087
 20
9.975621
 42
0.112490
  0
VERTEX
  8
LAYER_1
 62
7
 10
20.809261
 20
9.738858
 42
0.311187
  0
VERTEX
  8
LAYER_1
 62
7
 10
21.406541
 20
9.718060
 42
0.205042
  0
VERTEX
  8
LAYER_1
 62
7
 10
21.503013
 20
9.892203
 42
0.149230
  0
VERTEX
  8
LAYER_1
 62
7
 10
21.467997
 20
10.091727
 42
0.102425
  0
VERTEX
  8
LAYER_1
 62
7
 10
21.287817
 20
10.323213
 42
0.052671
  0
VERTEX
  8
LAYER_1
 62
7
 10
21.044272
 20
10.490541
  0
VERTEX
  8
LAYER_1
 62
7
 10
20.985820
 20
10.523259
 42
-0.048063
  0
VERTEX
  8
LAYER_1
 62
7
 10
20.927060
 20
10.560956
 42
-0.154638
  0
VERTEX
  8
LAYER_1
 62
7
 10
20.891654
 20
10.610771
 42
-0.196145
  0
VERTEX
  8
LAYER_1
 62
7
 10
20.903265
 20
10.679842
 42
-0.086022
  0
VERTEX
  8
LAYER_1
 62
7
 10
21.296732
 20
11.037999
 42
-0.057122
  0
VERTEX
  8
LAYER_1
 62
7
 10
21.777624
 20
11.273480
 42
-0.093836
  0
VERTEX
  8
LAYER_1
 62
7
 10
21.811262
 20
11.282621
 42
-0.230376
  0
VERTEX
  8
LAYER_1
 62
7
 10
21.829581
 20
11.275797
 42
-0.158400
  0
VERTEX
  8
LAYER_1
 62
7
 10
21.836254
 20
11.256894
 42
-0.053932
  0
VERTEX
  8
LAYER_1
 62
7
 10
21.834952
 20
11.229798
  0
VERTEX
  8
LAYER_1
 62
7
 10
21.823115
 20
11.166569
 42
0.037281
  0
VERTEX
  8
LAYER_1
 62
7
 10
21.819925
 20
11.138208
 42
0.117985
  0
VERTEX
  8
LAYER_1
 62
7
 10
21.823451
 20
11.117198
 42
0.153322
  0
VERTEX
  8
LAYER_1
 62
7
 10
21.888683
 20
11.045709
 42
0.093506
  0
VERTEX
  8
LAYER_1
 62
7
 10
21.979395
 20
11.015894
 42
0.029507
  0
VERTEX
  8
LAYER_1
 62
7
 10
22.080353
 20
11.007824
  0
VERTEX
  8
LAYER_1
 62
7
 10
22.129912
 20
11.005717
  0
VERTEX
  8
LAYER_1
 62
7
 10
22.176320
 20
11.001573
 42
-0.016934
  0
VERTEX
  8
LAYER_1
 62
7
 10
22.543995
 20
11.008696
 42
0.008890
  0
VERTEX
  8
LAYER_1
 62
7
 10
22.912022
 20
11.009915
 42
0.030233
  0
VERTEX
  8
LAYER_1
 62
7
 10
22.982068
 20
11.035967
  0
VERTEX
  8
LAYER_1
 62
7
 10
23.051046
 20
11.066215
 42
-0.098644
  0
VERTEX
  8
LAYER_1
 62
7
 10
23.195445
 20
11.102510
 42
-0.185534
  0
VERTEX
  8
LAYER_1
 62
7
 10
23.240751
 20
11.087693
 42
-0.116424
  0
VERTEX
  8
LAYER_1
 62
7
 10
23.269709
 20
11.048222
 42
-0.108253
  0
VERTEX
  8
LAYER_1
 62
7
 10
23.288275
 20
10.949518
  0
VERTEX
  8
LAYER_1
 62
7
 10
23.289215
 20
9.468831
 42
0.060211
  0
VERTEX
  8
LAYER_1
 62
7
 10
23.308089
 20
9.378616
 42
0.158615
  0
VERTEX
  8
LAYER_1
 62
7
 10
23.362303
 20
9.305850
 42
0.304717
  0
VERTEX
  8
LAYER_1
 62
7
 10
23.492220
 20
9.347873
 42
0.163585
  0
VERTEX
  8
LAYER_1
 62
7
 10
23.546434
 20
9.481286
 42
0.000589
  0
VERTEX
  8
LAYER_1
 62
7
 10
23.547670
 20
11.299575
 42
-0.026374
  0
VERTEX
  8
LAYER_1
 62
7
 10
23.560879
 20
11.652338
 42
-0.094021
  0
VERTEX
  8
LAYER_1
 62
7
 10
23.619744
 20
11.865781
 42
-0.071614
  0
VERTEX
  8
LAYER_1
 62
7
 10
23.756752
 20
12.044619
  0
VERTEX
  8
LAYER_1
 62
7
 10
24.004390
 20
12.293565
  0
VERTEX
  8
LAYER_1
 62
7
 10
24.402697
 20
12.691067
 42
0.054016
  0
VERTEX
  8
LAYER_1
 62
7
 10
24.517779
 20
12.833263
 42
0.146029
  0
VERTEX
  8
LAYER_1
 62
7
 10
24.568967
 20
13.005864
 42
0.000980
  0
VERTEX
  8
LAYER_1
 62
7
 10
24.569546
 20
13.975472
  0
VERTEX
  8
LAYER_1
 62
7
 10
24.570495
 20
14.298660
 42
-0.047196
  0
VERTEX
  8
LAYER_1
 62
7
 10
24.593320
 20
14.529911
 42
-0.157358
  0
VERTEX
  8
LAYER_1
 62
7
 10
24.702688
 20
14.729435
 42
0.014089
  0
VERTEX
  8
LAYER_1
 62
7
 10
24.880283
 20
14.864596
 42
-0.096372
  0
VERTEX
  8
LAYER_1
 62
7
 10
25.075063
 20
14.968206
 42
-0.161586
  0
VERTEX
  8
LAYER_1
 62
7
 10
25.142644
 20
14.937846
 42
-0.110142
  0
VERTEX
  8
LAYER_1
 62
7
 10
25.182728
 20
14.877169
 42
-0.076457
  0
VERTEX
  8
LAYER_1
 62
7
 10
25.211252
 20
14.728847
 42
-0.005771
  0
VERTEX
  8
LAYER_1
 62
7
 10
25.215656
 20
13.744200
  0
VERTEX
  8
LAYER_1
 62
7
 10
25.215711
 20
13.415894
  0
VERTEX
  8
LAYER_1
 62
7
 10
25.218205
 20
13.204907
 42
-0.069030
  0
VERTEX
  8
LAYER_1
 62
7
 10
25.203253
 20
13.069726
 42
-0.093283
  0
VERTEX
  8
LAYER_1
 62
7
 10
25.140938
 20
12.951809
 42
-0.027464
  0
VERTEX
  8
LAYER_1
 62
7
 10
25.001343
 20
12.792617
 42
-0.024704
  0
VERTEX
  8
LAYER_1
 62
7
 10
24.587392
 20
12.395133
 42
0.022717
  0
VERTEX
  8
LAYER_1
 62
7
 10
24.457276
 20
12.274275
 42
0.072649
  0
VERTEX
  8
LAYER_1
 62
7
 10
24.381529
 20
12.171623
 42
0.075393
  0
VERTEX
  8
LAYER_1
 62
7
 10
24.342792
 20
12.050070
 42
0.026705
  0
VERTEX
  8
LAYER_1
 62
7
 10
24.323705
 20
11.872508
 42
0.020794
  0
VERTEX
  8
LAYER_1
 62
7
 10
24.319838
 20
11.398417
 42
-0.003860
  0
VERTEX
  8
LAYER_1
 62
7
 10
24.323462
 20
10.357399
  0
VERTEX
  8
LAYER_1
 62
7
 10
24.322309
 20
9.836788
  0
VERTEX
  8
LAYER_1
 62
7
 10
24.323263
 20
9.316191
 42
-0.025777
  0
VERTEX
  8
LAYER_1
 62
7
 10
24.311939
 20
9.106987
 42
-0.182107
  0
VERTEX
  8
LAYER_1
 62
7
 10
24.221033
 20
8.924663
 42
-0.010293
  0
VERTEX
  8
LAYER_1
 62
7
 10
23.857765
 20
8.637024
 42
0.035360
  0
VERTEX
  8
LAYER_1
 62
7
 10
23.509655
 20
8.331847
 42
-0.146539
  0
VERTEX
  8
LAYER_1
 62
7
 10
23.450271
 20
8.293776
 42
-0.278608
  0
VERTEX
  8
LAYER_1
 62
7
 10
23.384982
 20
8.307876
 42
0.078889
  0
VERTEX
  8
LAYER_1
 62
7
 10
23.092275
 20
8.565595
 42
0.005456
  0
VERTEX
  8
LAYER_1
 62
7
 10
22.842248
 20
8.722670
  0
VERTEX
  8
LAYER_1
 62
7
 10
22.760087
 20
8.775548
 42
0.015434
  0
VERTEX
  8
LAYER_1
 62
7
 10
22.639091
 20
8.848622
 42
-0.066858
  0
VERTEX
  8
LAYER_1
 62
7
 10
22.527179
 20
8.932627
 42
-0.101883
  0
VERTEX
  8
LAYER_1
 62
7
 10
22.478309
 20
9.011852
 42
-0.143114
  0
VERTEX
  8
LAYER_1
 62
7
 10
22.488532
 20
9.102742
 42
0.023288
  0
VERTEX
  8
LAYER_1
 62
7
 10
22.520259
 20
9.189755
 42
0.058816
  0
VERTEX
  8
LAYER_1
 62
7
 10
22.603452
 20
9.711715
 42
0.019838
  0
VERTEX
  8
LAYER_1
 62
7
 10
22.604158
 20
10.241429
 42
0.170859
  0
VERTEX
  8
LAYER_1
 62
7
 10
22.557594
 20
10.287214
 42
0.103744
  0
VERTEX
  8
LAYER_1
 62
7
 10
22.490486
 20
10.302253
 42
0.100577
  0
VERTEX
  8
LAYER_1
 62
7
 10
22.352578
 20
10.276093
 42
0.215232
  0
VERTEX
  8
LAYER_1
 62
7
 10
22.324452
 20
10.218374
 42
0.098003
  0
VERTEX
  8
LAYER_1
 62
7
 10
22.338639
 20
10.154431
  0
VERTEX
  8
LAYER_1
 62
7
 10
22.365054
 20
10.087602
 42
-0.120938
  0
VERTEX
  8
LAYER_1
 62
7
 10
22.373612
 20
10.021224
 42
-0.085865
  0
VERTEX
  8
LAYER_1
 62
7
 10
22.380603
 20
9.644663
 42
-0.059409
  0
VERTEX
  8
LAYER_1
 62
7
 10
22.279725
 20
9.280352
 42
-0.091627
  0
VERTEX
  8
LAYER_1
 62
7
 10
22.077334
 20
8.989594
 42
-0.078292
  0
VERTEX
  8
LAYER_1
 62
7
 10
21.790065
 20
8.783054
 42
-0.141727
  0
VERTEX
  8
LAYER_1
 62
7
 10
21.098324
 20
8.651227
 42
-0.097242
  0
VERTEX
  8
LAYER_1
 62
7
 10
20.743124
 20
8.756024
 42
-0.084320
  0
VERTEX
  8
LAYER_1
 62
7
 10
20.450693
 20
8.978274
 42
-0.155469
  0
VERTEX
  8
LAYER_1
 62
7
 10
20.134074
 20
9.637921
 42
-0.123095
  0
VERTEX
  8
LAYER_1
 62
7
 10
20.212715
 20
10.460856
 42
-0.125906
  0
VERTEX
  8
LAYER_1
 62
7
 10
20.667667
 20
11.150452
 42
-0.054812
  0
VERTEX
  8
LAYER_1
 62
7
 10
21.107123
 20
11.453234
 42
-0.023413
  0
VERTEX
  8
LAYER_1
 62
7
 10
21.589497
 20
11.684632
 42
0.144541
  0
VERTEX
  8
LAYER_1
 62
7
 10
22.174381
 20
12.110457
 42
0.143738
  0
VERTEX
  8
LAYER_1
 62
7
 10
22.442352
 20
12.782604
 42
0.248217
  0
VERTEX
  8
LAYER_1
 62
7
 10
22.156932
 20
13.483641
 42
0.128049
  0
VERTEX
  8
LAYER_1
 62
7
 10
21.734999
 20
13.654494
 42
0.087916
  0
VERTEX
  8
LAYER_1
 62
7
 10
21.509315
 20
13.643398
 42
0.111906
  0
VERTEX
  8
LAYER_1
 62
7
 10
21.305134
 20
13.544392
 42
0.195499
  0
VERTEX
  8
LAYER_1
 62
7
 10
21.198953
 20
13.267255
 42
0.242375
  0
VERTEX
  8
LAYER_1
 62
7
 10
21.326755
 20
13.005982
 42
0.235905
  0
VERTEX
  8
LAYER_1
 62
7
 10
21.564057
 20
12.964722
 42
0.289177
  0
VERTEX
  8
LAYER_1
 62
7
 10
21.727684
 20
13.133828
 42
0.146293
  0
VERTEX
  8
LAYER_1
 62
7
 10
21.734103
 20
13.281605
  0
VERTEX
  8
LAYER_1
 62
7
 10
21.719967
 20
13.355037
 42
-0.054918
  0
VERTEX
  8
LAYER_1
 62
7
 10
21.714523
 20
13.429119
 42
-0.159004
  0
VERTEX
  8
LAYER_1
 62
7
 10
21.892412
 20
13.371600
 42
-0.068450
  0
VERTEX
  8
LAYER_1
 62
7
 10
22.032141
 20
13.241110
 42
-0.121209
  0
VERTEX
  8
LAYER_1
 62
7
 10
22.136249
 20
12.962921
 42
-0.100862
  0
VERTEX
  8
LAYER_1
 62
7
 10
22.111237
 20
12.667140
 42
-0.094661
  0
VERTEX
  8
LAYER_1
 62
7
 10
21.975909
 20
12.399978
 42
-0.107433
  0
VERTEX
  8
LAYER_1
 62
7
 10
21.749070
 20
12.207649
 42
-0.105136
  0
VERTEX
  8
LAYER_1
 62
7
 10
21.465456
 20
12.112396
 42
-0.035816
  0
VERTEX
  8
LAYER_1
 62
7
 10
21.164480
 20
12.099192
 42
-0.174918
  0
VERTEX
  8
LAYER_1
 62
7
 10
20.923373
 20
11.830280
 42
-0.161044
  0
VERTEX
  8
LAYER_1
 62
7
 10
20.566024
 20
11.763713
 42
-0.238216
  0
VERTEX
  8
LAYER_1
 62
7
 10
20.518023
 20
11.804884
 42
-0.185003
  0
VERTEX
  8
LAYER_1
 62
7
 10
20.516088
 20
11.833363
 42
-0.233869
  0
VERTEX
  8
LAYER_1
 62
7
 10
20.539468
 20
11.854075
 42
0.197861
  0
VERTEX
  8
LAYER_1
 62
7
 10
20.704505
 20
11.998078
 42
0.141111
  0
VERTEX
  8
LAYER_1
 62
7
 10
20.750743
 20
12.216462
  0
VERTEX
  8
LAYER_1
 62
7
 10
20.675902
 20
12.256584
 42
-0.147238
  0
VERTEX
  8
LAYER_1
 62
7
 10
20.230172
 20
12.722782
 42
-0.188143
  0
VERTEX
  8
LAYER_1
 62
7
 10
20.171378
 20
13.361143
 42
-0.142688
  0
VERTEX
  8
LAYER_1
 62
7
 10
20.454918
 20
13.803760
 42
-0.116501
  0
VERTEX
  8
LAYER_1
 62
7
 10
20.945380
 20
14.065087
 42
-0.101385
  0
VERTEX
  8
LAYER_1
 62
7
 10
21.655771
 20
14.099840
 42
0.122579
  0
VERTEX
  8
LAYER_1
 62
7
 10
21.733633
 20
14.099370
 42
0.155841
  0
VERTEX
  8
LAYER_1
 62
7
 10
21.765276
 20
14.117885
 42
0.237874
  0
VERTEX
  8
LAYER_1
 62
7
 10
21.772101
 20
14.154950
 42
0.139833
  0
VERTEX
  8
LAYER_1
 62
7
 10
21.576234
 20
14.264054
 42
0.029505
  0
VERTEX
  8
LAYER_1
 62
7
 10
21.463743
 20
14.286781
  0
VERTEX
  8
LAYER_1
 62
7
 10
21.351549
 20
14.301245
 42
0.086529
  0
VERTEX
  8
LAYER_1
 62
7
 10
20.946493
 20
14.285940
 42
0.051498
  0
VERTEX
  8
LAYER_1
 62
7
 10
20.559327
 20
14.160826
 42
-0.031218
  0
VERTEX
  8
LAYER_1
 62
7
 10
20.420641
 20
14.109696
 42
-0.090455
  0
VERTEX
  8
LAYER_1
 62
7
 10
20.276491
 20
14.093025
 42
-0.100998
  0
VERTEX
  8
LAYER_1
 62
7
 10
20.251484
 20
14.100663
 42
-0.146874
  0
VERTEX
  8
LAYER_1
 62
7
 10
20.238044
 20
14.114512
 42
-0.124442
  0
VERTEX
  8
LAYER_1
 62
7
 10
20.234288
 20
14.132743
 42
-0.075883
  0
VERTEX
  8
LAYER_1
 62
7
 10
20.238331
 20
14.153526
 42
-0.153356
  0
VERTEX
  8
LAYER_1
 62
7
 10
20.294822
 20
14.225571
 42
-0.024333
  0
VERTEX
  8
LAYER_1
 62
7
 10
20.553466
 20
14.401565
 42
0.024474
  0
VERTEX
  8
LAYER_1
 62
7
 10
20.812198
 20
14.577735
 42
0.152917
  0
VERTEX
  8
LAYER_1
 62
7
 10
20.839904
 20
14.660498
 42
0.089090
  0
VERTEX
  8
LAYER_1
 62
7
 10
20.824360
 20
14.746047
  0
VERTEX
  8
LAYER_1
 62
7
 10
20.807579
 20
14.788934
 42
-0.019702
  0
VERTEX
  8
LAYER_1
 62
7
 10
20.755796
 20
14.913566
 42
-0.068265
  0
VERTEX
  8
LAYER_1
 62
7
 10
20.682687
 20
15.336138
 42
-0.055554
  0
VERTEX
  8
LAYER_1
 62
7
 10
20.715565
 20
15.761310
 42
-0.043095
  0
VERTEX
  8
LAYER_1
 62
7
 10
20.831923
 20
16.175818
 42
-0.033750
  0
VERTEX
  8
LAYER_1
 62
7
 10
21.009255
 20
16.566399
 42
-0.045095
  0
VERTEX
  8
LAYER_1
 62
7
 10
21.557683
 20
17.408164
 42
-0.016262
  0
VERTEX
  8
LAYER_1
 62
7
 10
22.206049
 20
18.178104
  0
VERTEX
  8
LAYER_1
 62
7
 10
22.589763
 20
18.607220
 42
0.024768
  0
VERTEX
  8
LAYER_1
 62
7
 10
22.949506
 20
19.056340
 42
-0.228454
  0
VERTEX
  8
LAYER_1
 62
7
 10
22.998506
 20
19.101228
  0
SEQEND
  0
POLYLINE
  8
LAYER_1
 62
7
 70
1
 66
1
  0
VERTEX
  8
LAYER_1
 62
7
 10
4.872295
 20
13.882559
 42
0.092277
  0
VERTEX
  8
LAYER_1
 62
7
 10
4.850580
 20
13.883670
 42
0.187448
  0
VERTEX
  8
LAYER_1
 62
7
 10
4.835134
 20
13.875133
 42
0.154732
  0
VERTEX
  8
LAYER_1
 62
7
 10
4.828204
 20
13.854184
 42
0.070364
  0
VERTEX
  8
LAYER_1
 62
7
 10
4.832036
 20
13.818062
 42
-0.117820
  0
VERTEX
  8
LAYER_1
 62
7
 10
4.847400
 20
13.658548
 42
-0.199299
  0
VERTEX
  8
LAYER_1
 62
7
 10
4.769876
 20
13.523006
 42
-0.262443
  0
VERTEX
  8
LAYER_1
 62
7
 10
4.561450
 20
13.492954
 42
-0.218724
  0
VERTEX
  8
LAYER_1
 62
7
 10
4.403964
 20
13.638984
 42
-0.214461
  0
VERTEX
  8
LAYER_1
 62
7
 10
4.409634
 20
13.876837
 42
-0.179654
  0
VERTEX
  8
LAYER_1
 62
7
 10
4.578313
 20
14.043610
 42
-0.122695
  0
VERTEX
  8
LAYER_1
 62
7
 10
4.811153
 20
14.082603
 42
-0.090552
  0
VERTEX
  8
LAYER_1
 62
7
 10
5.047609
 20
14.020404
 42
-0.077239
  0
VERTEX
  8
LAYER_1
 62
7
 10
5.255146
 20
13.882927
 42
-0.088217
  0
VERTEX
  8
LAYER_1
 62
7
 10
5.401227
 20
13.696085
 42
-0.123084
  0
VERTEX
  8
LAYER_1
 62
7
 10
5.463465
 20
13.424778
 42
-0.087591
  0
VERTEX
  8
LAYER_1
 62
7
 10
5.408034
 20
13.147224
 42
-0.118698
  0
VERTEX
  8
LAYER_1
 62
7
 10
5.089651
 20
12.688639
 42
-0.028087
  0
VERTEX
  8
LAYER_1
 62
7
 10
4.891682
 20
12.536458
  0
VERTEX
  8
LAYER_1
 62
7
 10
4.684919
 20
12.398008
 42
-0.012914
  0
VERTEX
  8
LAYER_1
 62
7
 10
3.712796
 20
11.818471
 42
0.017679
  0
VERTEX
  8
LAYER_1
 62
7
 10
3.230377
 20
11.521843
 42
0.049301
  0
VERTEX
  8
LAYER_1
 62
7
 10
2.792728
 20
11.164318
 42
0.070514
  0
VERTEX
  8
LAYER_1
 62
7
 10
2.491488
 20
10.772833
 42
0.080911
  0
VERTEX
  8
LAYER_1
 62
7
 10
2.319886
 20
10.310405
 42
0.115888
  0
VERTEX
  8
LAYER_1
 62
7
 10
2.331886
 20
9.489394
 42
0.077199
  0
VERTEX
  8
LAYER_1
 62
7
 10
2.492944
 20
9.113226
 42
0.095394
  0
VERTEX
  8
LAYER_1
 62
7
 10
2.773692
 20
8.812562
 42
0.099860
  0
VERTEX
  8
LAYER_1
 62
7
 10
3.171243
 20
8.624568
 42
0.089851
  0
VERTEX
  8
LAYER_1
 62
7
 10
3.610566
 20
8.594942
 42
0.107431
  0
VERTEX
  8
LAYER_1
 62
7
 10
3.922970
 20
8.701358
 42
0.140912
  0
VERTEX
  8
LAYER_1
 62
7
 10
4.147332
 20
8.940056
 42
0.117148
  0
VERTEX
  8
LAYER_1
 62
7
 10
4.206362
 20
9.177093
 42
-0.012972
  0
VERTEX
  8
LAYER_1
 62
7
 10
4.220371
 20
9.732284
 42
-0.103049
  0
VERTEX
  8
LAYER_1
 62
7
 10
4.244732
 20
9.803037
 42
-0.149481
  0
VERTEX
  8
LAYER_1
 62
7
 10
4.303379
 20
9.853426
 42
-0.273070
  0
VERTEX
  8
LAYER_1
 62
7
 10
4.426334
 20
9.830821
 42
-0.241671
  0
VERTEX
  8
LAYER_1
 62
7
 10
4.476935
 20
9.715945
 42
0.017305
  0
VERTEX
  8
LAYER_1
 62
7
 10
4.492798
 20
8.885768
 42
0.186080
  0
VERTEX
  8
LAYER_1
 62
7
 10
4.586009
 20
8.748962
 42
0.181074
  0
VERTEX
  8
LAYER_1
 62
7
 10
4.746375
 20
8.705397
  0
VERTEX
  8
LAYER_1
 62
7
 10
7.743118
 20
8.704927
 42
0.025006
  0
VERTEX
  8
LAYER_1
 62
7
 10
7.868144
 20
8.712404
 42
0.148790
  0
VERTEX
  8
LAYER_1
 62
7
 10
7.981537
 20
8.760155
 42
0.220159
  0
VERTEX
  8
LAYER_1
 62
7
 10
8.008049
 20
8.854218
 42
0.082118
  0
VERTEX
  8
LAYER_1
 62
7
 10
7.978246
 20
8.951806
 42
-0.045137
  0
VERTEX
  8
LAYER_1
 62
7
 10
7.815604
 20
9.276224
 42
-0.013625
  0
VERTEX
  8
LAYER_1
 62
7
 10
7.692003
 20
9.617828
 42
0.155461
  0
VERTEX
  8
LAYER_1
 62
7
 10
7.667800
 20
9.642181
 42
0.144181
  0
VERTEX
  8
LAYER_1
 62
7
 10
7.638329
 20
9.646310
 42
0.064886
  0
VERTEX
  8
LAYER_1
 62
7
 10
7.605635
 20
9.637200
  0
VERTEX
  8
LAYER_1
 62
7
 10
7.538766
 20
9.607207
 42
-0.081565
  0
VERTEX
  8
LAYER_1
 62
7
 10
7.508683
 20
9.600295
 42
-0.182060
  0
VERTEX
  8
LAYER_1
 62
7
 10
7.483563
 20
9.608087
 42
-0.146927
  0
VERTEX
  8
LAYER_1
 62
7
 10
7.465452
 20
9.637569
 42
0.040222
  0
VERTEX
  8
LAYER_1
 62
7
 10
7.404629
 20
9.903439
 42
0.089444
  0
VERTEX
  8
LAYER_1
 62
7
 10
7.278501
 20
10.143665
 42
0.107014
  0
VERTEX
  8
LAYER_1
 62
7
 10
7.047280
 20
10.359875
 42
0.052210
  0
VERTEX
  8
LAYER_1
 62
7
 10
6.758069
 20
10.494301
 42
-0.000504
  0
VERTEX
  8
LAYER_1
 62
7
 10
6.755224
 20
18.815738
 42
0.020986
  0
VERTEX
  8
LAYER_1
 62
7
 10
6.751723
 20
18.903587
 42
0.029703
  0
VERTEX
  8
LAYER_1
 62
7
 10
6.744741
 20
18.953450
  0
VERTEX
  8
LAYER_1
 62
7
 10
6.739189
 20
18.973624
 42
0.068409
  0
VERTEX
  8
LAYER_1
 62
7
 10
6.731976
 20
18.988248
 42
0.279371
  0
VERTEX
  8
LAYER_1
 62
7
 10
6.688741
 20
19.007106
 42
0.086458
  0
VERTEX
  8
LAYER_1
 62
7
 10
6.623437
 20
18.955873
  0
VERTEX
  8
LAYER_1
 62
7
 10
6.565008
 20
18.895828
  0
VERTEX
  8
LAYER_1
 62
7
 10
6.509556
 20
18.841195
 42
0.024231
  0
VERTEX
  8
LAYER_1
 62
7
 10
6.454171
 20
18.784932
 42
0.185573
  0
VERTEX
  8
LAYER_1
 62
7
 10
6.393920
 20
18.644954
 42
0.003321
  0
VERTEX
  8
LAYER_1
 62
7
 10
6.399207
 20
15.751968
 42
0.005636
  0
VERTEX
  8
LAYER_1
 62
7
 10
6.391687
 20
14.457659
  0
VERTEX
  8
LAYER_1
 62
7
 10
6.398972
 20
13.163439
 42
0.002497
  0
VERTEX
  8
LAYER_1
 62
7
 10
6.391569
 20
10.162113
  0
VERTEX
  8
LAYER_1
 62
7
 10
6.399947
 20
10.019283
 42
0.040960
  0
VERTEX
  8
LAYER_1
 62
7
 10
6.422899
 20
9.876090
 42
0.079808
  0
VERTEX
  8
LAYER_1
 62
7
 10
6.477248
 20
9.746711
 42
0.112340
  0
VERTEX
  8
LAYER_1
 62
7
 10
6.579813
 20
9.645324
 42
0.122425
  0
VERTEX
  8
LAYER_1
 62
7
 10
6.689389
 20
9.603630
 42
0.046905
  0
VERTEX
  8
LAYER_1
 62
7
 10
6.806907
 20
9.601450
 42
-0.027557
  0
VERTEX
  8
LAYER_1
 62
7
 10
6.925417
 20
9.603699
 42
-0.105630
  0
VERTEX
  8
LAYER_1
 62
7
 10
7.037967
 20
9.575291
 42
-0.176837
  0
VERTEX
  8
LAYER_1
 62
7
 10
7.066763
 20
9.531946
 42
-0.139588
  0
VERTEX
  8
LAYER_1
 62
7
 10
7.063877
 20
9.481462
 42
-0.257818
  0
VERTEX
  8
LAYER_1
 62
7
 10
6.990025
 20
9.411253
 42
-0.179798
  0
VERTEX
  8
LAYER_1
 62
7
 10
6.377469
 20
9.454847
 42
-0.132072
  0
VERTEX
  8
LAYER_1
 62
7
 10
6.194909
 20
9.615874
 42
-0.118505
  0
VERTEX
  8
LAYER_1
 62
7
 10
6.109909
 20
9.844848
  0
VERTEX
  8
LAYER_1
 62
7
 10
6.108969
 20
11.266782
 42
0.085374
  0
VERTEX
  8
LAYER_1
 62
7
 10
6.098834
 20
11.344498
 42
0.141315
  0
VERTEX
  8
LAYER_1
 62
7
 10
6.078465
 20
11.376057
 42
0.246957
  0
VERTEX
  8
LAYER_1
 62
7
 10
6.042343
 20
11.381938
 42
0.123990
  0
VERTEX
  8
LAYER_1
 62
7
 10
6.001824
 20
11.331025
 42
0.063877
  0
VERTEX
  8
LAYER_1
 62
7
 10
5.983282
 20
11.268369
 42
-0.047258
  0
VERTEX
  8
LAYER_1
 62
7
 10
5.956564
 20
11.137526
 42
-0.079186
  0
VERTEX
  8
LAYER_1
 62
7
 10
5.863503
 20
10.918149
 42
-0.058153
  0
VERTEX
  8
LAYER_1
 62
7
 10
5.714855
 20
10.733528
 42
-0.036858
  0
VERTEX
  8
LAYER_1
 62
7
 10
5.531396
 20
10.577703
 42
-0.019434
  0
VERTEX
  8
LAYER_1
 62
7
 10
5.333902
 20
10.444714
 42
0.060023
  0
VERTEX
  8
LAYER_1
 62
7
 10
5.226106
 20
10.367381
 42
0.268186
  0
VERTEX
  8
LAYER_1
 62
7
 10
5.185728
 20
10.248715
 42
0.066614
  0
VERTEX
  8
LAYER_1
 62
7
 10
5.231318
 20
10.154883
  0
VERTEX
  8
LAYER_1
 62
7
 10
5.290469
 20
10.065964
 42
-0.062474
  0
VERTEX
  8
LAYER_1
 62
7
 10
5.337437
 20
9.973388
 42
-0.123759
  0
VERTEX
  8
LAYER_1
 62
7
 10
5.346475
 20
9.868584
 42
0.022574
  0
VERTEX
  8
LAYER_1
 62
7
 10
5.348356
 20
9.615110
 42
-0.082434
  0
VERTEX
  8
LAYER_1
 62
7
 10
5.320624
 20
9.365426
 42
-0.188263
  0
VERTEX
  8
LAYER_1
 62
7
 10
5.255991
 20
9.312804
 42
-0.172834
  0
VERTEX
  8
LAYER_1
 62
7
 10
5.182776
 20
9.317763
 42
-0.303921
  0
VERTEX
  8
LAYER_1
 62
7
 10
5.099126
 20
9.445212
 42
-0.009338
  0
VERTEX
  8
LAYER_1
 62
7
 10
5.086024
 20
10.707912
 42
0.004029
  0
VERTEX
  8
LAYER_1
 62
7
 10
5.086318
 20
11.971228
 42
0.079115
  0
VERTEX
  8
LAYER_1
 62
7
 10
5.064580
 20
12.054760
 42
0.150471
  0
VERTEX
  8
LAYER_1
 62
7
 10
5.038398
 20
12.084667
 42
0.226549
  0
VERTEX
  8
LAYER_1
 62
7
 10
4.997014
 20
12.085678
 42
0.065610
  0
VERTEX
  8
LAYER_1
 62
7
 10
4.827395
 20
11.988340
 42
-0.022781
  0
VERTEX
  8
LAYER_1
 62
7
 10
4.665531
 20
11.876284
 42
-0.019289
  0
VERTEX
  8
LAYER_1
 62
7
 10
4.075462
 20
11.529290
 42
-0.030573
  0
VERTEX
  8
LAYER_1
 62
7
 10
3.454284
 20
11.242929
 42
0.159452
  0
VERTEX
  8
LAYER_1
 62
7
 10
3.420690
 20
11.218949
 42
0.142538
  0
VERTEX
  8
LAYER_1
 62
7
 10
3.408677
 20
11.183280
 42
0.204224
  0
VERTEX
  8
LAYER_1
 62
7
 10
3.437363
 20
11.109443
 42
-0.181024
  0
VERTEX
  8
LAYER_1
 62
7
 10
3.547819
 20
10.820497
  0
VERTEX
  8
LAYER_1
 62
7
 10
3.547349
 20
9.703959
 42
-0.130064
  0
VERTEX
  8
LAYER_1
 62
7
 10
3.501521
 20
9.516846
 42
-0.120261
  0
VERTEX
  8
LAYER_1
 62
7
 10
3.438355
 20
9.448842
 42
-0.158027
  0
VERTEX
  8
LAYER_1
 62
7
 10
3.344652
 20
9.425354
 42
-0.285853
  0
VERTEX
  8
LAYER_1
 62
7
 10
2.797898
 20
9.823110
 42
-0.089280
  0
VERTEX
  8
LAYER_1
 62
7
 10
2.723257
 20
10.183964
 42
-0.075173
  0
VERTEX
  8
LAYER_1
 62
7
 10
2.769110
 20
10.548486
 42
-0.127123
  0
VERTEX
  8
LAYER_1
 62
7
 10
3.139369
 20
11.181943
 42
-0.042962
  0
VERTEX
  8
LAYER_1
 62
7
 10
3.313202
 20
11.340659
 42
-0.025899
  0
VERTEX
  8
LAYER_1
 62
7
 10
3.506677
 20
11.473519
 42
-0.004272
  0
VERTEX
  8
LAYER_1
 62
7
 10
3.811716
 20
11.652309
  0
VERTEX
  8
LAYER_1
 62
7
 10
3.912321
 20
11.712833
  0
VERTEX
  8
LAYER_1
 62
7
 10
4.361720
 20
11.971199
 42
-0.015908
  0
VERTEX
  8
LAYER_1
 62
7
 10
4.817113
 20
12.218460
 42
-0.081969
  0
VERTEX
  8
LAYER_1
 62
7
 10
5.103019
 20
12.300141
 42
-0.111299
  0
VERTEX
  8
LAYER_1
 62
7
 10
5.396768
 20
12.269810
 42
-0.196701
  0
VERTEX
  8
LAYER_1
 62
7
 10
5.624743
 20
12.057962
 42
-0.122819
  0
VERTEX
  8
LAYER_1
 62
7
 10
5.688886
 20
11.746440
 42
0.126730
  0
VERTEX
  8
LAYER_1
 62
7
 10
5.908315
 20
11.932965
 42
0.106602
  0
VERTEX
  8
LAYER_1
 62
7
 10
6.026847
 20
12.203037
 42
0.130093
  0
VERTEX
  8
LAYER_1
 62
7
 10
6.014000
 20
12.486196
 42
0.172440
  0
VERTEX
  8
LAYER_1
 62
7
 10
5.839294
 20
12.711983
 42
-0.311559
  0
VERTEX
  8
LAYER_1
 62
7
 10
5.784007
 20
12.791637
 42
-0.149456
  0
VERTEX
  8
LAYER_1
 62
7
 10
5.814735
 20
12.888829
 42
0.067417
  0
VERTEX
  8
LAYER_1
 62
7
 10
5.972802
 20
13.367315
 42
0.079778
  0
VERTEX
  8
LAYER_1
 62
7
 10
5.982376
 20
13.821136
 42
0.074665
  0
VERTEX
  8
LAYER_1
 62
7
 10
5.864624
 20
14.203198
 42
0.043324
  0
VERTEX
  8
LAYER_1
 62
7
 10
5.657692
 20
14.548819
 42
0.009107
  0
VERTEX
  8
LAYER_1
 62
7
 10
5.399721
 20
14.893319
 42
-0.046259
  0
VERTEX
  8
LAYER_1
 62
7
 10
5.072689
 20
15.404467
 42
-0.074172
  0
VERTEX
  8
LAYER_1
 62
7
 10
4.901312
 20
15.907780
 42
-0.087442
  0
VERTEX
  8
LAYER_1
 62
7
 10
4.903644
 20
16.429931
 42
-0.071416
  0
VERTEX
  8
LAYER_1
 62
7
 10
5.097733
 20
16.997596
 42
-0.043704
  0
VERTEX
  8
LAYER_1
 62
7
 10
5.455129
 20
17.567300
 42
-0.004326
  0
VERTEX
  8
LAYER_1
 62
7
 10
5.762813
 20
17.970108
  0
VERTEX
  8
LAYER_1
 62
7
 10
5.864440
 20
18.103723
 42
-0.004115
  0
VERTEX
  8
LAYER_1
 62
7
 10
6.034778
 20
18.331351
 42
0.024741
  0
VERTEX
  8
LAYER_1
 62
7
 10
6.134765
 20
18.488894
 42
0.029258
  0
VERTEX
  8
LAYER_1
 62
7
 10
6.183733
 20
18.586702
 42
0.033631
  0
VERTEX
  8
LAYER_1
 62
7
 10
6.198354
 20
18.628787
 42
0.076284
  0
VERTEX
  8
LAYER_1
 62
7
 10
6.202740
 20
18.661915
 42
0.152701
  0
VERTEX
  8
LAYER_1
 62
7
 10
6.198524
 20
18.674016
 42
0.140696
  0
VERTEX
  8
LAYER_1
 62
7
 10
6.188849
 20
18.680906
 42
0.298513
  0
VERTEX
  8
LAYER_1
 62
7
 10
6.137656
 20
18.671227
 42
0.050921
  0
VERTEX
  8
LAYER_1
 62
7
 10
6.119297
 20
18.651238
  0
VERTEX
  8
LAYER_1
 62
7
 10
6.103584
 20
18.630265
  0
VERTEX
  8
LAYER_1
 62
7
 10
5.963205
 20
18.441868
 42
-0.031675
  0
VERTEX
  8
LAYER_1
 62
7
 10
5.812855
 20
18.261416
 42
-0.029118
  0
VERTEX
  8
LAYER_1
 62
7
 10
5.332927
 20
17.858578
 42
0.005413
  0
VERTEX
  8
LAYER_1
 62
7
 10
4.833881
 20
17.478469
 42
0.031123
  0
VERTEX
  8
LAYER_1
 62
7
 10
4.469819
 20
17.150827
 42
0.045277
  0
VERTEX
  8
LAYER_1
 62
7
 10
4.149585
 20
16.760812
 42
0.066876
  0
VERTEX
  8
LAYER_1
 62
7
 10
3.926430
 20
16.316735
 42
0.091457
  0
VERTEX
  8
LAYER_1
 62
7
 10
3.853608
 20
15.826907
 42
0.090112
  0
VERTEX
  8
LAYER_1
 62
7
 10
3.950625
 20
15.393865
 42
-0.026502
  0
VERTEX
  8
LAYER_1
 62
7
 10
3.995354
 20
15.279966
 42
-0.122587
  0
VERTEX
  8
LAYER_1
 62
7
 10
4.004327
 20
15.159623
 42
-0.023429
  0
VERTEX
  8
LAYER_1
 62
7
 10
3.782639
 20
14.980441
 42
0.024086
  0
VERTEX
  8
LAYER_1
 62
7
 10
3.561214
 20
14.800996
 42
0.101121
  0
VERTEX
  8
LAYER_1
 62
7
 10
3.559464
 20
14.763710
 42
0.171997
  0
VERTEX
  8
LAYER_1
 62
7
 10
3.571755
 20
14.741476
 42
0.133697
  0
VERTEX
  8
LAYER_1
 62
7
 10
3.594789
 20
14.731375
 42
0.065102
  0
VERTEX
  8
LAYER_1
 62
7
 10
3.625269
 20
14.730492
 42
0.044030
  0
VERTEX
  8
LAYER_1
 62
7
 10
3.695374
 20
14.744714
  0
VERTEX
  8
LAYER_1
 62
7
 10
3.755686
 20
14.760809
 42
-0.078218
  0
VERTEX
  8
LAYER_1
 62
7
 10
4.275310
 20
14.907250
 42
-0.125731
  0
VERTEX
  8
LAYER_1
 62
7
 10
4.805598
 20
14.839185
 42
-0.127234
  0
VERTEX
  8
LAYER_1
 62
7
 10
4.839625
 20
14.823324
 42
-0.090808
  0
VERTEX
  8
LAYER_1
 62
7
 10
4.868331
 20
14.792139
 42
-0.073186
  0
VERTEX
  8
LAYER_1
 62
7
 10
4.875873
 20
14.775017
 42
-0.126176
  0
VERTEX
  8
LAYER_1
 62
7
 10
4.876305
 20
14.759125
 42
-0.167425
  0
VERTEX
  8
LAYER_1
 62
7
 10
4.867701
 20
14.746150
 42
-0.115154
  0
VERTEX
  8
LAYER_1
 62
7
 10
4.848135
 20
14.737778
 42
0.051305
  0
VERTEX
  8
LAYER_1
 62
7
 10
4.367610
 20
14.744946
 42
0.107036
  0
VERTEX
  8
LAYER_1
 62
7
 10
3.911851
 20
14.604762
 42
0.100929
  0
VERTEX
  8
LAYER_1
 62
7
 10
3.641590
 20
14.366051
 42
0.088396
  0
VERTEX
  8
LAYER_1
 62
7
 10
3.478593
 20
14.045568
 42
0.179833
  0
VERTEX
  8
LAYER_1
 62
7
 10
3.514800
 20
13.336642
 42
0.112396
  0
VERTEX
  8
LAYER_1
 62
7
 10
3.713604
 20
13.048004
 42
0.075319
  0
VERTEX
  8
LAYER_1
 62
7
 10
4.005033
 20
12.850757
 42
-0.306377
  0
VERTEX
  8
LAYER_1
 62
7
 10
3.809386
 20
12.544772
 42
0.101650
  0
VERTEX
  8
LAYER_1
 62
7
 10
3.799071
 20
12.535677
 42
0.148067
  0
VERTEX
  8
LAYER_1
 62
7
 10
3.795693
 20
12.526098
 42
0.121366
  0
VERTEX
  8
LAYER_1
 62
7
 10
3.797906
 20
12.516423
 42
0.070669
  0
VERTEX
  8
LAYER_1
 62
7
 10
3.804362
 20
12.507038
 42
0.107966
  0
VERTEX
  8
LAYER_1
 62
7
 10
3.845695
 20
12.480144
  0
VERTEX
  8
LAYER_1
 62
7
 10
3.874522
 20
12.479478
 42
0.049811
  0
VERTEX
  8
LAYER_1
 62
7
 10
4.027529
 20
12.491577
 42
0.082754
  0
VERTEX
  8
LAYER_1
 62
7
 10
4.144640
 20
12.533896
 42
0.081577
  0
VERTEX
  8
LAYER_1
 62
7
 10
4.239484
 20
12.612542
 42
0.047037
  0
VERTEX
  8
LAYER_1
 62
7
 10
4.325695
 20
12.733620
 42
-0.161773
  0
VERTEX
  8
LAYER_1
 62
7
 10
4.362132
 20
12.767563
 42
0.086687
  0
VERTEX
  8
LAYER_1
 62
7
 10
4.664253
 20
12.781473
 42
0.105853
  0
VERTEX
  8
LAYER_1
 62
7
 10
4.939671
 20
12.906337
 42
0.271473
  0
VERTEX
  8
LAYER_1
 62
7
 10
5.190424
 20
13.504005
 42
0.110632
  0
VERTEX
  8
LAYER_1
 62
7
 10
5.106333
 20
13.723670
 42
0.199427
  0
VERTEX
  8
LAYER_1
 62
7
 10
4.872295
 20
13.882559
  0
SEQEND
  0
POLYLINE
  8
LAYER_1
 62
7
 70
1
 66
1
  0
VERTEX
  8
LAYER_1
 62
7
 10
4.476774
 20
10.628748
 42
0.199589
  0
VERTEX
  8
LAYER_1
 62
7
 10
4.438671
 20
10.720737
 42
0.199589
  0
VERTEX
  8
LAYER_1
 62
7
 10
4.346681
 20
10.758841
 42
0.199589
  0
VERTEX
  8
LAYER_1
 62
7
 10
4.254691
 20
10.720737
 42
0.199589
  0
VERTEX
  8
LAYER_1
 62
7
 10
4.216588
 20
10.628748
 42
0.199589
  0
VERTEX
  8
LAYER_1
 62
7
 10
4.254691
 20
10.536758
 42
0.199589
  0
VERTEX
  8
LAYER_1
 62
7
 10
4.346681
 20
10.498655
 42
0.199589
  0
VERTEX
  8
LAYER_1
 62
7
 10
4.438671
 20
10.536758
 42
0.199589
  0
VERTEX
  8
LAYER_1
 62
7
 10
4.476774
 20
10.628748
  0
SEQEND
  0
POLYLINE
  8
LAYER_1
 62
7
 70
1
 66
1
  0
VERTEX
  8
LAYER_1
 62
7
 10
35.935863
 20
18.184802
 42
-0.102952
  0
VERTEX
  8
LAYER_1
 62
7
 10
35.962089
 20
18.188224
 42
-0.134894
  0
VERTEX
  8
LAYER_1
 62
7
 10
35.981402
 20
18.180961
 42
-0.164286
  0
VERTEX
  8
LAYER_1
 62
7
 10
36.003708
 20
18.143939
 42
-0.050965
  0
VERTEX
  8
LAYER_1
 62
7
 10
36.011626
 20
18.092861
  0
VERTEX
  8
LAYER_1
 62
7
 10
36.014004
 20
18.046851
  0
VERTEX
  8
LAYER_1
 62
7
 10
36.014827
 20
16.166762
 42
0.014261
  0
VERTEX
  8
LAYER_1
 62
7
 10
36.016488
 20
15.997539
  0
VERTEX
  8
LAYER_1
 62
7
 10
36.015998
 20
15.938660
 42
-0.066431
  0
VERTEX
  8
LAYER_1
 62
7
 10
35.998696
 20
15.827214
 42
-0.127270
  0
VERTEX
  8
LAYER_1
 62
7
 10
35.943238
 20
15.735315
  0
VERTEX
  8
LAYER_1
 62
7
 10
35.943241
 20
15.735318
 42
-0.074460
  0
VERTEX
  8
LAYER_1
 62
7
 10
35.943241
 20
15.735318
  0
VERTEX
  8
LAYER_1
 62
7
 10
35.943242
 20
15.735321
 42
-0.169908
  0
VERTEX
  8
LAYER_1
 62
7
 10
35.943242
 20
15.735321
  0
VERTEX
  8
LAYER_1
 62
7
 10
35.901511
 20
15.707787
  0
VERTEX
  8
LAYER_1
 62
7
 10
35.675710
 20
15.556582
 42
-0.064664
  0
VERTEX
  8
LAYER_1
 62
7
 10
35.675710
 20
15.556582
 42
-0.120681
  0
VERTEX
  8
LAYER_1
 62
7
 10
35.675686
 20
15.556550
 42
-0.271432
  0
VERTEX
  8
LAYER_1
 62
7
 10
35.675683
 20
15.556540
 42
-0.086084
  0
VERTEX
  8
LAYER_1
 62
7
 10
35.675686
 20
15.556534
 42
-0.050285
  0
VERTEX
  8
LAYER_1
 62
7
 10
35.675690
 20
15.556533
 42
-0.049814
  0
VERTEX
  8
LAYER_1
 62
7
 10
35.675696
 20
15.556532
 42
-0.113377
  0
VERTEX
  8
LAYER_1
 62
7
 10
35.617306
 20
15.556674
  0
VERTEX
  8
LAYER_1
 62
7
 10
35.557519
 20
15.634372
 42
-0.020607
  0
VERTEX
  8
LAYER_1
 62
7
 10
35.497347
 20
15.713294
 42
-0.169354
  0
VERTEX
  8
LAYER_1
 62
7
 10
35.437405
 20
15.896265
 42
-0.009068
  0
VERTEX
  8
LAYER_1
 62
7
 10
35.425537
 20
16.834752
  0
VERTEX
  8
LAYER_1
 62
7
 10
35.430589
 20
17.773415
 42
-0.065371
  0
VERTEX
  8
LAYER_1
 62
7
 10
35.674017
 20
17.988186
  0
VERTEX
  8
LAYER_1
 62
7
 10
35.807920
 20
18.083575
 42
0.023941
  0
VERTEX
  8
LAYER_1
 62
7
 10
35.935863
 20
18.184802
  0
SEQEND
  0
POLYLINE
  8
LAYER_1
 62
7
 70
1
 66
1
  0
VERTEX
  8
LAYER_1
 62
7
 10
33.644740
 20
17.867185
 42
-0.084009
  0
VERTEX
  8
LAYER_1
 62
7
 10
33.661722
 20
17.871090
 42
-0.138538
  0
VERTEX
  8
LAYER_1
 62
7
 10
33.673557
 20
17.868510
 42
-0.145185
  0
VERTEX
  8
LAYER_1
 62
7
 10
33.680807
 20
17.860868
 42
-0.093999
  0
VERTEX
  8
LAYER_1
 62
7
 10
33.684031
 20
17.849588
 42
-0.175123
  0
VERTEX
  8
LAYER_1
 62
7
 10
33.667889
 20
17.796564
 42
0.012240
  0
VERTEX
  8
LAYER_1
 62
7
 10
33.272160
 20
17.179704
 42
0.019511
  0
VERTEX
  8
LAYER_1
 62
7
 10
32.916441
 20
16.539137
 42
0.071170
  0
VERTEX
  8
LAYER_1
 62
7
 10
32.626261
 20
15.806623
 42
0.094819
  0
VERTEX
  8
LAYER_1
 62
7
 10
32.588836
 20
15.022024
 42
0.043510
  0
VERTEX
  8
LAYER_1
 62
7
 10
32.736100
 20
14.435803
 42
0.018255
  0
VERTEX
  8
LAYER_1
 62
7
 10
32.954748
 20
13.871175
  0
VERTEX
  8
LAYER_1
 62
7
 10
33.015773
 20
13.720201
 42
-0.004728
  0
VERTEX
  8
LAYER_1
 62
7
 10
33.204668
 20
13.267299
 42
-0.027017
  0
VERTEX
  8
LAYER_1
 62
7
 10
33.307094
 20
12.958261
 42
-0.044722
  0
VERTEX
  8
LAYER_1
 62
7
 10
33.364255
 20
12.636897
 42
-0.245273
  0
VERTEX
  8
LAYER_1
 62
7
 10
32.980482
 20
11.598501
 42
-0.054121
  0
VERTEX
  8
LAYER_1
 62
7
 10
32.693517
 20
11.357392
 42
-0.021974
  0
VERTEX
  8
LAYER_1
 62
7
 10
32.372875
 20
11.162540
 42
0.010018
  0
VERTEX
  8
LAYER_1
 62
7
 10
32.046880
 20
10.974893
 42
0.042352
  0
VERTEX
  8
LAYER_1
 62
7
 10
31.743854
 20
10.755398
 42
0.146746
  0
VERTEX
  8
LAYER_1
 62
7
 10
31.468964
 20
10.281763
 42
0.115730
  0
VERTEX
  8
LAYER_1
 62
7
 10
31.460666
 20
9.731455
 42
0.054334
  0
VERTEX
  8
LAYER_1
 62
7
 10
31.562969
 20
9.475352
 42
0.039879
  0
VERTEX
  8
LAYER_1
 62
7
 10
31.711187
 20
9.242868
 42
0.297492
  0
VERTEX
  8
LAYER_1
 62
7
 10
31.763418
 20
9.225550
 42
0.304436
  0
VERTEX
  8
LAYER_1
 62
7
 10
31.795556
 20
9.270011
  0
VERTEX
  8
LAYER_1
 62
7
 10
31.806939
 20
9.367901
 42
0.020900
  0
VERTEX
  8
LAYER_1
 62
7
 10
31.815457
 20
9.598211
 42
0.009074
  0
VERTEX
  8
LAYER_1
 62
7
 10
31.801871
 20
10.146458
 42
-0.005412
  0
VERTEX
  8
LAYER_1
 62
7
 10
31.795463
 20
10.376417
 42
-0.097697
  0
VERTEX
  8
LAYER_1
 62
7
 10
31.816369
 20
10.508217
 42
-0.172243
  0
VERTEX
  8
LAYER_1
 62
7
 10
31.902486
 20
10.608634
 42
-0.009250
  0
VERTEX
  8
LAYER_1
 62
7
 10
32.221626
 20
10.775472
  0
VERTEX
  8
LAYER_1
 62
7
 10
32.382802
 20
10.857561
  0
VERTEX
  8
LAYER_1
 62
7
 10
32.542583
 20
10.942100
 42
0.025039
  0
VERTEX
  8
LAYER_1
 62
7
 10
32.850563
 20
11.128535
 42
0.042249
  0
VERTEX
  8
LAYER_1
 62
7
 10
33.130771
 20
11.354794
 42
-0.143806
  0
VERTEX
  8
LAYER_1
 62
7
 10
33.221838
 20
11.405380
 42
-0.173303
  0
VERTEX
  8
LAYER_1
 62
7
 10
33.267427
 20
11.399575
 42
-0.207053
  0
VERTEX
  8
LAYER_1
 62
7
 10
33.297042
 20
11.356909
 42
-0.004251
  0
VERTEX
  8
LAYER_1
 62
7
 10
33.300567
 20
10.413443
  0
VERTEX
  8
LAYER_1
 62
7
 10
33.299884
 20
9.941627
  0
VERTEX
  8
LAYER_1
 62
7
 10
33.302329
 20
9.469888
 42
0.111854
  0
VERTEX
  8
LAYER_1
 62
7
 10
33.339270
 20
9.347242
 42
0.152897
  0
VERTEX
  8
LAYER_1
 62
7
 10
33.383348
 20
9.307653
 42
0.187075
  0
VERTEX
  8
LAYER_1
 62
7
 10
33.449799
 20
9.307966
 42
0.269157
  0
VERTEX
  8
LAYER_1
 62
7
 10
33.542290
 20
9.394406
 42
0.093147
  0
VERTEX
  8
LAYER_1
 62
7
 10
33.559079
 20
9.527466
  0
VERTEX
  8
LAYER_1
 62
7
 10
33.558961
 20
11.584047
 42
0.012143
  0
VERTEX
  8
LAYER_1
 62
7
 10
33.556342
 20
11.793382
  0
VERTEX
  8
LAYER_1
 62
7
 10
33.557023
 20
11.863843
 42
-0.063763
  0
VERTEX
  8
LAYER_1
 62
7
 10
33.578063
 20
11.999582
 42
-0.105686
  0
VERTEX
  8
LAYER_1
 62
7
 10
33.644623
 20
12.121518
 42
0.008916
  0
VERTEX
  8
LAYER_1
 62
7
 10
33.938519
 20
12.414576
  0
VERTEX
  8
LAYER_1
 62
7
 10
34.084084
 20
12.562846
  0
VERTEX
  8
LAYER_1
 62
7
 10
34.231798
 20
12.709045
 42
-0.030796
  0
VERTEX
  8
LAYER_1
 62
7
 10
34.308812
 20
12.791523
  0
VERTEX
  8
LAYER_1
 62
7
 10
34.350165
 20
12.832270
  0
VERTEX
  8
LAYER_1
 62
7
 10
34.389725
 20
12.874199
 42
0.071877
  0
VERTEX
  8
LAYER_1
 62
7
 10
34.452396
 20
12.966129
 42
0.122258
  0
VERTEX
  8
LAYER_1
 62
7
 10
34.474682
 20
13.076367
  0
VERTEX
  8
LAYER_1
 62
7
 10
34.476371
 20
14.091835
 42
0.006492
  0
VERTEX
  8
LAYER_1
 62
7
 10
34.467044
 20
15.106158
 42
-0.034371
  0
VERTEX
  8
LAYER_1
 62
7
 10
34.563031
 20
15.232182
  0
VERTEX
  8
LAYER_1
 62
7
 10
34.614556
 20
15.292749
  0
VERTEX
  8
LAYER_1
 62
7
 10
34.664218
 20
15.354682
 42
-0.171296
  0
VERTEX
  8
LAYER_1
 62
7
 10
34.768431
 20
15.444177
 42
-0.162832
  0
VERTEX
  8
LAYER_1
 62
7
 10
34.830931
 20
15.446573
 42
-0.187485
  0
VERTEX
  8
LAYER_1
 62
7
 10
34.884189
 20
15.400509
  0
VERTEX
  8
LAYER_1
 62
7
 10
35.019129
 20
15.186326
 42
-0.025925
  0
VERTEX
  8
LAYER_1
 62
7
 10
35.140586
 20
14.964211
 42
-0.080443
  0
VERTEX
  8
LAYER_1
 62
7
 10
35.172988
 20
14.703584
 42
0.009529
  0
VERTEX
  8
LAYER_1
 62
7
 10
35.168552
 20
14.439431
  0
VERTEX
  8
LAYER_1
 62
7
 10
35.169785
 20
14.222320
  0
VERTEX
  8
LAYER_1
 62
7
 10
35.168236
 20
14.004965
 42
0.009250
  0
VERTEX
  8
LAYER_1
 62
7
 10
35.170387
 20
13.570723
  0
VERTEX
  8
LAYER_1
 62
7
 10
35.170094
 20
13.470508
 42
0.014178
  0
VERTEX
  8
LAYER_1
 62
7
 10
35.170234
 20
13.372315
 42
0.105244
  0
VERTEX
  8
LAYER_1
 62
7
 10
35.212875
 20
13.180181
 42
0.042752
  0
VERTEX
  8
LAYER_1
 62
7
 10
35.310018
 20
13.024013
 42
-0.018831
  0
VERTEX
  8
LAYER_1
 62
7
 10
35.413316
 20
12.874258
 42
-0.060367
  0
VERTEX
  8
LAYER_1
 62
7
 10
35.451213
 20
12.823692
  0
VERTEX
  8
LAYER_1
 62
7
 10
35.482688
 20
12.767078
 42
0.138564
  0
VERTEX
  8
LAYER_1
 62
7
 10
35.563958
 20
12.672148
 42
0.243839
  0
VERTEX
  8
LAYER_1
 62
7
 10
35.674881
 20
12.681263
 42
0.006517
  0
VERTEX
  8
LAYER_1
 62
7
 10
35.878291
 20
12.830138
  0
VERTEX
  8
LAYER_1
 62
7
 10
36.173366
 20
13.051025
 42
0.031004
  0
VERTEX
  8
LAYER_1
 62
7
 10
36.245708
 20
13.111146
 42
0.098636
  0
VERTEX
  8
LAYER_1
 62
7
 10
36.281946
 20
13.161221
 42
0.085850
  0
VERTEX
  8
LAYER_1
 62
7
 10
36.294645
 20
13.221720
  0
VERTEX
  8
LAYER_1
 62
7
 10
36.296370
 20
13.313109
  0
VERTEX
  8
LAYER_1
 62
7
 10
36.296637
 20
14.304636
 42
-0.002054
  0
VERTEX
  8
LAYER_1
 62
7
 10
36.298602
 20
15.296164
 42
-0.142530
  0
VERTEX
  8
LAYER_1
 62
7
 10
36.385983
 20
15.431912
 42
0.019856
  0
VERTEX
  8
LAYER_1
 62
7
 10
36.505882
 20
15.546333
 42
-0.175770
  0
VERTEX
  8
LAYER_1
 62
7
 10
36.565704
 20
15.565887
 42
-0.117304
  0
VERTEX
  8
LAYER_1
 62
7
 10
36.623564
 20
15.547567
 42
-0.043717
  0
VERTEX
  8
LAYER_1
 62
7
 10
36.677899
 20
15.509154
  0
VERTEX
  8
LAYER_1
 62
7
 10
36.727145
 20
15.468427
 42
0.065010
  0
VERTEX
  8
LAYER_1
 62
7
 10
36.770804
 20
15.431301
  0
VERTEX
  8
LAYER_1
 62
7
 10
36.819607
 20
15.396852
 42
-0.110819
  0
VERTEX
  8
LAYER_1
 62
7
 10
36.855522
 20
15.355418
 42
-0.179578
  0
VERTEX
  8
LAYER_1
 62
7
 10
36.860514
 20
15.297339
  0
VERTEX
  8
LAYER_1
 62
7
 10
36.860514
 20
13.593157
 42
-0.073668
  0
VERTEX
  8
LAYER_1
 62
7
 10
36.824704
 20
13.427841
 42
-0.128261
  0
VERTEX
  8
LAYER_1
 62
7
 10
36.728790
 20
13.290815
 42
-0.005122
  0
VERTEX
  8
LAYER_1
 62
7
 10
36.042440
 20
12.754990
 42
0.150996
  0
VERTEX
  8
LAYER_1
 62
7
 10
36.019927
 20
12.724033
 42
0.080874
  0
VERTEX
  8
LAYER_1
 62
7
 10
36.014092
 20
12.685706
 42
-0.029074
  0
VERTEX
  8
LAYER_1
 62
7
 10
36.014474
 20
12.606463
  0
VERTEX
  8
LAYER_1
 62
7
 10
36.015649
 20
9.492449
 42
0.132689
  0
VERTEX
  8
LAYER_1
 62
7
 10
36.046994
 20
9.357568
 42
0.148103
  0
VERTEX
  8
LAYER_1
 62
7
 10
36.093082
 20
9.312848
 42
0.182845
  0
VERTEX
  8
LAYER_1
 62
7
 10
36.163471
 20
9.308436
 42
0.244696
  0
VERTEX
  8
LAYER_1
 62
7
 10
36.268139
 20
9.411547
 42
0.078568
  0
VERTEX
  8
LAYER_1
 62
7
 10
36.296135
 20
9.562953
  0
VERTEX
  8
LAYER_1
 62
7
 10
36.297075
 20
12.700467
 42
-0.216207
  0
VERTEX
  8
LAYER_1
 62
7
 10
36.317212
 20
12.741594
  0
VERTEX
  8
LAYER_1
 62
7
 10
36.354535
 20
12.771793
 42
0.013445
  0
VERTEX
  8
LAYER_1
 62
7
 10
36.535934
 20
12.902812
 42
-0.027474
  0
VERTEX
  8
LAYER_1
 62
7
 10
36.720682
 20
13.028543
 42
-0.086192
  0
VERTEX
  8
LAYER_1
 62
7
 10
36.759612
 20
13.042180
 42
-0.117481
  0
VERTEX
  8
LAYER_1
 62
7
 10
36.791354
 20
13.039799
 42
-0.190208
  0
VERTEX
  8
LAYER_1
 62
7
 10
36.835368
 20
12.999533
 42
-0.133094
  0
VERTEX
  8
LAYER_1
 62
7
 10
36.860161
 20
12.864857
  0
VERTEX
  8
LAYER_1
 62
7
 10
36.860514
 20
9.339575
 42
0.129953
  0
VERTEX
  8
LAYER_1
 62
7
 10
36.871930
 20
9.241727
 42
0.031596
  0
VERTEX
  8
LAYER_1
 62
7
 10
36.892104
 20
9.196750
  0
VERTEX
  8
LAYER_1
 62
7
 10
36.916241
 20
9.152814
 42
-0.047186
  0
VERTEX
  8
LAYER_1
 62
7
 10
36.959362
 20
9.063306
 42
-0.133482
  0
VERTEX
  8
LAYER_1
 62
7
 10
36.967209
 20
8.963674
 42
-0.228404
  0
VERTEX
  8
LAYER_1
 62
7
 10
36.893709
 20
8.780219
 42
-0.199757
  0
VERTEX
  8
LAYER_1
 62
7
 10
36.708109
 20
8.705867
  0
VERTEX
  8
LAYER_1
 62
7
 10
33.065321
 20
8.704692
 42
-0.098995
  0
VERTEX
  8
LAYER_1
 62
7
 10
32.937019
 20
8.718969
 42
-0.223221
  0
VERTEX
  8
LAYER_1
 62
7
 10
32.845468
 20
8.802339
 42
-0.063607
  0
VERTEX
  8
LAYER_1
 62
7
 10
32.817212
 20
8.960191
 42
-0.025002
  0
VERTEX
  8
LAYER_1
 62
7
 10
32.817267
 20
9.121998
  0
VERTEX
  8
LAYER_1
 62
7
 10
32.820331
 20
9.203335
  0
VERTEX
  8
LAYER_1
 62
7
 10
32.821376
 20
9.284400
 42
0.050820
  0
VERTEX
  8
LAYER_1
 62
7
 10
32.805281
 20
9.444037
 42
0.267248
  0
VERTEX
  8
LAYER_1
 62
7
 10
32.740504
 20
9.531314
 42
0.194147
  0
VERTEX
  8
LAYER_1
 62
7
 10
32.630090
 20
9.535891
 42
0.161843
  0
VERTEX
  8
LAYER_1
 62
7
 10
32.561564
 20
9.482547
 42
0.099726
  0
VERTEX
  8
LAYER_1
 62
7
 10
32.531452
 20
9.405896
 42
0.047943
  0
VERTEX
  8
LAYER_1
 62
7
 10
32.524665
 20
9.330019
  0
VERTEX
  8
LAYER_1
 62
7
 10
32.526117
 20
9.278998
  0
VERTEX
  8
LAYER_1
 62
7
 10
32.528175
 20
8.917677
 42
-0.029289
  0
VERTEX
  8
LAYER_1
 62
7
 10
32.528146
 20
8.917502
 42
0.054051
  0
VERTEX
  8
LAYER_1
 62
7
 10
32.528146
 20
8.917502
 42
0.081550
  0
VERTEX
  8
LAYER_1
 62
7
 10
32.528130
 20
8.917458
 42
0.200684
  0
VERTEX
  8
LAYER_1
 62
7
 10
32.528123
 20
8.917447
 42
0.191532
  0
VERTEX
  8
LAYER_1
 62
7
 10
32.528115
 20
8.917444
 42
0.076926
  0
VERTEX
  8
LAYER_1
 62
7
 10
32.528107
 20
8.917448
 42
0.051967
  0
VERTEX
  8
LAYER_1
 62
7
 10
32.528100
 20
8.917459
 42
-0.073225
  0
VERTEX
  8
LAYER_1
 62
7
 10
32.527386
 20
8.938185
 42
-0.089219
  0
VERTEX
  8
LAYER_1
 62
7
 10
32.512929
 20
8.813335
 42
-0.229948
  0
VERTEX
  8
LAYER_1
 62
7
 10
32.430909
 20
8.728781
 42
-0.049298
  0
VERTEX
  8
LAYER_1
 62
7
 10
32.040188
 20
8.701857
 42
0.005798
  0
VERTEX
  8
LAYER_1
 62
7
 10
31.646912
 20
8.708687
 42
-0.128262
  0
VERTEX
  8
LAYER_1
 62
7
 10
31.232117
 20
9.207498
 42
-0.102123
  0
VERTEX
  8
LAYER_1
 62
7
 10
31.075365
 20
9.841323
 42
-0.125614
  0
VERTEX
  8
LAYER_1
 62
7
 10
31.178961
 20
10.436988
 42
-0.104940
  0
VERTEX
  8
LAYER_1
 62
7
 10
31.534694
 20
10.929189
 42
-0.047316
  0
VERTEX
  8
LAYER_1
 62
7
 10
31.832996
 20
11.171662
 42
-0.024180
  0
VERTEX
  8
LAYER_1
 62
7
 10
32.163466
 20
11.369717
 42
0.072974
  0
VERTEX
  8
LAYER_1
 62
7
 10
32.446977
 20
11.583151
 42
0.095375
  0
VERTEX
  8
LAYER_1
 62
7
 10
32.644299
 20
11.876519
 42
0.085081
  0
VERTEX
  8
LAYER_1
 62
7
 10
32.690889
 20
12.045668
 42
0.131905
  0
VERTEX
  8
LAYER_1
 62
7
 10
32.663804
 20
12.216932
 42
0.174355
  0
VERTEX
  8
LAYER_1
 62
7
 10
32.516056
 20
12.389783
 42
0.162128
  0
VERTEX
  8
LAYER_1
 62
7
 10
32.293310
 20
12.438547
 42
0.135110
  0
VERTEX
  8
LAYER_1
 62
7
 10
32.121854
 20
12.366546
 42
0.104800
  0
VERTEX
  8
LAYER_1
 62
7
 10
32.004951
 20
12.224306
 42
0.157271
  0
VERTEX
  8
LAYER_1
 62
7
 10
31.942203
 20
11.858658
 42
0.066739
  0
VERTEX
  8
LAYER_1
 62
7
 10
31.988236
 20
11.671442
 42
-0.009280
  0
VERTEX
  8
LAYER_1
 62
7
 10
32.055596
 20
11.490043
 42
-0.165204
  0
VERTEX
  8
LAYER_1
 62
7
 10
31.551424
 20
11.705739
 42
-0.146513
  0
VERTEX
  8
LAYER_1
 62
7
 10
31.257616
 20
12.172162
 42
-0.145558
  0
VERTEX
  8
LAYER_1
 62
7
 10
31.259158
 20
12.708986
 42
-0.134889
  0
VERTEX
  8
LAYER_1
 62
7
 10
31.540334
 20
13.167904
 42
-0.087243
  0
VERTEX
  8
LAYER_1
 62
7
 10
31.890354
 20
13.406103
 42
-0.068593
  0
VERTEX
  8
LAYER_1
 62
7
 10
32.297305
 20
13.527001
 42
-0.030830
  0
VERTEX
  8
LAYER_1
 62
7
 10
32.379720
 20
13.537191
  0
VERTEX
  8
LAYER_1
 62
7
 10
32.463105
 20
13.543569
 42
0.131794
  0
VERTEX
  8
LAYER_1
 62
7
 10
32.619387
 20
13.594332
 42
0.280014
  0
VERTEX
  8
LAYER_1
 62
7
 10
32.605771
 20
13.661618
 42
0.187305
  0
VERTEX
  8
LAYER_1
 62
7
 10
32.543949
 20
13.693389
 42
0.100626
  0
VERTEX
  8
LAYER_1
 62
7
 10
32.063102
 20
13.662147
 42
0.083543
  0
VERTEX
  8
LAYER_1
 62
7
 10
31.623411
 20
13.461080
 42
-0.053735
  0
VERTEX
  8
LAYER_1
 62
7
 10
31.580213
 20
13.443925
 42
-0.061984
  0
VERTEX
  8
LAYER_1
 62
7
 10
31.569451
 20
13.442934
 42
-0.114377
  0
VERTEX
  8
LAYER_1
 62
7
 10
31.560470
 20
13.445250
 42
-0.152089
  0
VERTEX
  8
LAYER_1
 62
7
 10
31.554152
 20
13.451869
 42
-0.107190
  0
VERTEX
  8
LAYER_1
 62
7
 10
31.551380
 20
13.463783
  0
VERTEX
  8
LAYER_1
 62
7
 10
31.555164
 20
13.477204
 42
-0.108398
  0
VERTEX
  8
LAYER_1
 62
7
 10
31.568909
 20
13.518313
 42
-0.051543
  0
VERTEX
  8
LAYER_1
 62
7
 10
31.601881
 20
13.564080
 42
-0.046092
  0
VERTEX
  8
LAYER_1
 62
7
 10
31.705902
 20
13.659953
 42
-0.052414
  0
VERTEX
  8
LAYER_1
 62
7
 10
31.929046
 20
13.801614
  0
VERTEX
  8
LAYER_1
 62
7
 10
31.970443
 20
13.821361
 42
0.076007
  0
VERTEX
  8
LAYER_1
 62
7
 10
32.003931
 20
13.845282
 42
0.180043
  0
VERTEX
  8
LAYER_1
 62
7
 10
32.019129
 20
13.877009
 42
0.159333
  0
VERTEX
  8
LAYER_1
 62
7
 10
32.005656
 20
13.920174
 42
-0.174941
  0
VERTEX
  8
LAYER_1
 62
7
 10
31.671235
 20
14.972906
 42
-0.090893
  0
VERTEX
  8
LAYER_1
 62
7
 10
31.832086
 20
15.635711
 42
-0.067848
  0
VERTEX
  8
LAYER_1
 62
7
 10
32.191315
 20
16.218230
 42
-0.026765
  0
VERTEX
  8
LAYER_1
 62
7
 10
32.457773
 20
16.515416
 42
0.011128
  0
VERTEX
  8
LAYER_1
 62
7
 10
32.733485
 20
16.804230
 42
0.020889
  0
VERTEX
  8
LAYER_1
 62
7
 10
33.307617
 20
17.486702
 42
0.029201
  0
VERTEX
  8
LAYER_1
 62
7
 10
33.388186
 20
17.585629
  0
VERTEX
  8
LAYER_1
 62
7
 10
33.464105
 20
17.689942
 42
-0.032744
  0
VERTEX
  8
LAYER_1
 62
7
 10
33.546062
 20
17.787756
 42
-0.064710
  0
VERTEX
  8
LAYER_1
 62
7
 10
33.644740
 20
17.867185
  0
SEQEND
  0
POLYLINE
  8
LAYER_1
 62
7
 70
1
 66
1
  0
VERTEX
  8
LAYER_1
 62
7
 10
34.878313
 20
13.038061
 42
0.028941
  0
VERTEX
  8
LAYER_1
 62
7
 10
34.696738
 20
12.839065
 42
-0.026816
  0
VERTEX
  8
LAYER_1
 62
7
 10
34.514634
 20
12.637954
 42
-0.013099
  0
VERTEX
  8
LAYER_1
 62
7
 10
34.376944
 20
12.482313
 42
0.062597
  0
VERTEX
  8
LAYER_1
 62
7
 10
34.256046
 20
12.315468
 42
0.093425
  0
VERTEX
  8
LAYER_1
 62
7
 10
34.217697
 20
12.183325
  0
VERTEX
  8
LAYER_1
 62
7
 10
34.216640
 20
9.586454
 42
0.006614
  0
VERTEX
  8
LAYER_1
 62
7
 10
34.218961
 20
9.461442
 42
0.170184
  0
VERTEX
  8
LAYER_1
 62
7
 10
34.260587
 20
9.347800
 42
0.301167
  0
VERTEX
  8
LAYER_1
 62
7
 10
34.362802
 20
9.308201
 42
0.272025
  0
VERTEX
  8
LAYER_1
 62
7
 10
34.448713
 20
9.378234
 42
0.057512
  0
VERTEX
  8
LAYER_1
 62
7
 10
34.474194
 20
9.527692
 42
0.026896
  0
VERTEX
  8
LAYER_1
 62
7
 10
34.474094
 20
9.679738
  0
VERTEX
  8
LAYER_1
 62
7
 10
34.466857
 20
9.832732
 42
-0.033731
  0
VERTEX
  8
LAYER_1
 62
7
 10
34.470922
 20
9.985032
 42
0.002496
  0
VERTEX
  8
LAYER_1
 62
7
 10
34.465281
 20
11.069740
 42
-0.007368
  0
VERTEX
  8
LAYER_1
 62
7
 10
34.470217
 20
12.155242
 42
-0.122046
  0
VERTEX
  8
LAYER_1
 62
7
 10
34.509526
 20
12.306148
 42
-0.065678
  0
VERTEX
  8
LAYER_1
 62
7
 10
34.602528
 20
12.431321
  0
VERTEX
  8
LAYER_1
 62
7
 10
34.716593
 20
12.545477
 42
0.045303
  0
VERTEX
  8
LAYER_1
 62
7
 10
34.819091
 20
12.663335
 42
-0.182792
  0
VERTEX
  8
LAYER_1
 62
7
 10
34.858451
 20
12.656963
 42
-0.102816
  0
VERTEX
  8
LAYER_1
 62
7
 10
34.887126
 20
12.629450
 42
0.025512
  0
VERTEX
  8
LAYER_1
 62
7
 10
34.934363
 20
12.560048
 42
0.028448
  0
VERTEX
  8
LAYER_1
 62
7
 10
34.994423
 20
12.472115
  0
VERTEX
  8
LAYER_1
 62
7
 10
35.059771
 20
12.387300
 42
-0.084546
  0
VERTEX
  8
LAYER_1
 62
7
 10
35.164557
 20
12.203184
 42
-0.046994
  0
VERTEX
  8
LAYER_1
 62
7
 10
35.170726
 20
11.993936
 42
0.027465
  0
VERTEX
  8
LAYER_1
 62
7
 10
35.168787
 20
11.783807
 42
-0.005982
  0
VERTEX
  8
LAYER_1
 62
7
 10
35.172782
 20
10.767560
  0
VERTEX
  8
LAYER_1
 62
7
 10
35.169712
 20
10.259514
  0
VERTEX
  8
LAYER_1
 62
7
 10
35.168669
 20
9.750961
 42
-0.003486
  0
VERTEX
  8
LAYER_1
 62
7
 10
35.167715
 20
9.552935
 42
0.087866
  0
VERTEX
  8
LAYER_1
 62
7
 10
35.199456
 20
9.358963
 42
0.196718
  0
VERTEX
  8
LAYER_1
 62
7
 10
35.258133
 20
9.309385
 42
0.160909
  0
VERTEX
  8
LAYER_1
 62
7
 10
35.329843
 20
9.312122
 42
0.288916
  0
VERTEX
  8
LAYER_1
 62
7
 10
35.422599
 20
9.426294
 42
0.003481
  0
VERTEX
  8
LAYER_1
 62
7
 10
35.427696
 20
10.581681
 42
-0.006344
  0
VERTEX
  8
LAYER_1
 62
7
 10
35.439402
 20
11.736805
 42
-0.021035
  0
VERTEX
  8
LAYER_1
 62
7
 10
35.432704
 20
12.028512
 42
0.073274
  0
VERTEX
  8
LAYER_1
 62
7
 10
35.396043
 20
12.316342
 42
0.018712
  0
VERTEX
  8
LAYER_1
 62
7
 10
35.190893
 20
12.639159
 42
-0.011255
  0
VERTEX
  8
LAYER_1
 62
7
 10
34.980896
 20
12.958979
  0
VERTEX
  8
LAYER_1
 62
7
 10
34.960934
 20
12.988141
 42
0.033250
  0
VERTEX
  8
LAYER_1
 62
7
 10
34.939651
 20
13.019186
 42
0.128368
  0
VERTEX
  8
LAYER_1
 62
7
 10
34.913345
 20
13.039898
 42
0.201441
  0
VERTEX
  8
LAYER_1
 62
7
 10
34.878313
 20
13.038061
  0
SEQEND
  0
POLYLINE
  8
LAYER_1
 62
7
 70
1
 66
1
  0
VERTEX
  8
LAYER_1
 62
7
 10
32.599881
 20
10.452234
 42
0.223994
  0
VERTEX
  8
LAYER_1
 62
7
 10
32.526059
 20
10.365442
 42
0.235148
  0
VERTEX
  8
LAYER_1
 62
7
 10
32.545476
 20
10.253180
 42
0.278770
  0
VERTEX
  8
LAYER_1
 62
7
 10
32.666918
 20
10.216092
 42
0.292273
  0
VERTEX
  8
LAYER_1
 62
7
 10
32.758396
 20
10.304412
 42
0.185987
  0
VERTEX
  8
LAYER_1
 62
7
 10
32.763785
 20
10.370704
 42
0.140910
  0
VERTEX
  8
LAYER_1
 62
7
 10
32.727742
 20
10.425737
 42
0.282271
  0
VERTEX
  8
LAYER_1
 62
7
 10
32.599881
 20
10.452234
  0
SEQEND
  0
POLYLINE
  8
LAYER_1
 62
7
 70
1
 66
1
  0
VERTEX
  8
LAYER_1
 62
7
 10
34.129249
 20
17.178522
 42
-0.162956
  0
VERTEX
  8
LAYER_1
 62
7
 10
34.170295
 20
17.181692
 42
-0.154509
  0
VERTEX
  8
LAYER_1
 62
7
 10
34.201192
 20
17.161482
 42
-0.241693
  0
VERTEX
  8
LAYER_1
 62
7
 10
34.216522
 20
17.083423
 42
-0.002231
  0
VERTEX
  8
LAYER_1
 62
7
 10
34.215112
 20
15.779934
 42
-0.154344
  0
VERTEX
  8
LAYER_1
 62
7
 10
34.147370
 20
15.613605
 42
-0.016187
  0
VERTEX
  8
LAYER_1
 62
7
 10
34.026398
 20
15.476182
 42
0.039905
  0
VERTEX
  8
LAYER_1
 62
7
 10
33.979242
 20
15.422870
  0
VERTEX
  8
LAYER_1
 62
7
 10
33.955666
 20
15.393514
  0
VERTEX
  8
LAYER_1
 62
7
 10
33.930984
 20
15.366065
 42
-0.114296
  0
VERTEX
  8
LAYER_1
 62
7
 10
33.874970
 20
15.328010
 42
-0.182937
  0
VERTEX
  8
LAYER_1
 62
7
 10
33.804548
 20
15.330946
 42
0.033543
  0
VERTEX
  8
LAYER_1
 62
7
 10
33.738758
 20
15.356540
  0
VERTEX
  8
LAYER_1
 62
7
 10
33.670489
 20
15.380239
 42
-0.186162
  0
VERTEX
  8
LAYER_1
 62
7
 10
33.562957
 20
15.466194
  0
VERTEX
  8
LAYER_1
 62
7
 10
33.557037
 20
16.234945
 42
-0.012086
  0
VERTEX
  8
LAYER_1
 62
7
 10
33.569889
 20
17.001757
  0
VERTEX
  8
LAYER_1
 62
7
 10
33.569889
 20
17.001757
 42
-0.037474
  0
VERTEX
  8
LAYER_1
 62
7
 10
33.831041
 20
17.098462
 42
-0.024226
  0
VERTEX
  8
LAYER_1
 62
7
 10
34.129249
 20
17.178522
  0
SEQEND
  0
POLYLINE
  8
LAYER_1
 62
7
 70
1
 66
1
  0
VERTEX
  8
LAYER_1
 62
7
 10
19.461943
 20
17.079780
 42
-0.124821
  0
VERTEX
  8
LAYER_1
 62
7
 10
19.685780
 20
17.013204
 42
-0.108523
  0
VERTEX
  8
LAYER_1
 62
7
 10
19.858083
 20
16.853597
 42
-0.121690
  0
VERTEX
  8
LAYER_1
 62
7
 10
19.942301
 20
16.638402
 42
-0.148853
  0
VERTEX
  8
LAYER_1
 62
7
 10
19.901883
 20
16.405064
 42
-0.137054
  0
VERTEX
  8
LAYER_1
 62
7
 10
19.756839
 20
16.218305
 42
-0.104406
  0
VERTEX
  8
LAYER_1
 62
7
 10
19.545886
 20
16.125063
 42
-0.068751
  0
VERTEX
  8
LAYER_1
 62
7
 10
19.305475
 20
16.106752
 42
-0.053401
  0
VERTEX
  8
LAYER_1
 62
7
 10
19.072059
 20
16.144789
 42
-0.200023
  0
VERTEX
  8
LAYER_1
 62
7
 10
18.981154
 20
16.205143
 42
-0.188757
  0
VERTEX
  8
LAYER_1
 62
7
 10
18.968899
 20
16.252180
 42
-0.129641
  0
VERTEX
  8
LAYER_1
 62
7
 10
18.979239
 20
16.274327
 42
-0.100748
  0
VERTEX
  8
LAYER_1
 62
7
 10
19.003671
 20
16.293433
 42
0.008854
  0
VERTEX
  8
LAYER_1
 62
7
 10
19.235906
 20
16.296723
 42
0.112601
  0
VERTEX
  8
LAYER_1
 62
7
 10
19.458535
 20
16.354654
 42
0.280562
  0
VERTEX
  8
LAYER_1
 62
7
 10
19.562895
 20
16.489021
 42
0.253325
  0
VERTEX
  8
LAYER_1
 62
7
 10
19.508357
 20
16.651590
 42
0.125402
  0
VERTEX
  8
LAYER_1
 62
7
 10
19.436899
 20
16.694606
  0
VERTEX
  8
LAYER_1
 62
7
 10
19.395472
 20
16.705754
  0
VERTEX
  8
LAYER_1
 62
7
 10
19.352927
 20
16.714411
 42
-0.057081
  0
VERTEX
  8
LAYER_1
 62
7
 10
19.272524
 20
16.737499
 42
-0.157273
  0
VERTEX
  8
LAYER_1
 62
7
 10
19.211773
 20
16.790364
 42
-0.213595
  0
VERTEX
  8
LAYER_1
 62
7
 10
19.461943
 20
17.079780
  0
SEQEND
  0
POLYLINE
  8
LAYER_1
 62
7
 70
1
 66
1
  0
VERTEX
  8
LAYER_1
 62
7
 10
5.690649
 20
16.868505
 42
-0.167958
  0
VERTEX
  8
LAYER_1
 62
7
 10
5.909797
 20
16.818595
 42
-0.069002
  0
VERTEX
  8
LAYER_1
 62
7
 10
6.088405
 20
16.674386
 42
-0.143594
  0
VERTEX
  8
LAYER_1
 62
7
 10
6.186640
 20
16.413304
 42
-0.164074
  0
VERTEX
  8
LAYER_1
 62
7
 10
6.120954
 20
16.143849
 42
-0.176191
  0
VERTEX
  8
LAYER_1
 62
7
 10
5.893552
 20
15.949421
 42
-0.115397
  0
VERTEX
  8
LAYER_1
 62
7
 10
5.592649
 20
15.907545
 42
-0.027229
  0
VERTEX
  8
LAYER_1
 62
7
 10
5.402276
 20
15.919443
 42
-0.153889
  0
VERTEX
  8
LAYER_1
 62
7
 10
5.231908
 20
15.993912
 42
-0.216605
  0
VERTEX
  8
LAYER_1
 62
7
 10
5.216085
 20
16.036946
 42
-0.176267
  0
VERTEX
  8
LAYER_1
 62
7
 10
5.235491
 20
16.074241
 42
-0.280356
  0
VERTEX
  8
LAYER_1
 62
7
 10
5.322269
 20
16.094731
 42
0.073892
  0
VERTEX
  8
LAYER_1
 62
7
 10
5.572820
 20
16.101341
 42
0.167029
  0
VERTEX
  8
LAYER_1
 62
7
 10
5.788649
 20
16.217407
 42
0.261217
  0
VERTEX
  8
LAYER_1
 62
7
 10
5.796492
 20
16.387306
 42
0.233686
  0
VERTEX
  8
LAYER_1
 62
7
 10
5.662800
 20
16.494720
 42
0.071457
  0
VERTEX
  8
LAYER_1
 62
7
 10
5.602373
 20
16.512093
  0
VERTEX
  8
LAYER_1
 62
7
 10
5.531370
 20
16.526887
 42
-0.146645
  0
VERTEX
  8
LAYER_1
 62
7
 10
5.477200
 20
16.557149
 42
-0.133273
  0
VERTEX
  8
LAYER_1
 62
7
 10
5.464993
 20
16.583718
 42
-0.104381
  0
VERTEX
  8
LAYER_1
 62
7
 10
5.467271
 20
16.620921
 42
-0.158414
  0
VERTEX
  8
LAYER_1
 62
7
 10
5.690649
 20
16.868505
  0
SEQEND
  0
POLYLINE
  8
LAYER_1
 62
7
 70
1
 66
1
  0
VERTEX
  8
LAYER_1
 62
7
 10
10.518481
 20
16.432325
 42
-0.263707
  0
VERTEX
  8
LAYER_1
 62
7
 10
10.607579
 20
16.399981
 42
-0.245717
  0
VERTEX
  8
LAYER_1
 62
7
 10
10.632696
 20
16.307886
 42
0.011708
  0
VERTEX
  8
LAYER_1
 62
7
 10
10.643552
 20
16.026330
  0
VERTEX
  8
LAYER_1
 62
7
 10
10.646797
 20
15.932456
 42
0.292381
  0
VERTEX
  8
LAYER_1
 62
7
 10
10.724262
 20
15.855108
 42
0.142303
  0
VERTEX
  8
LAYER_1
 62
7
 10
10.779519
 20
15.857172
 42
0.171630
  0
VERTEX
  8
LAYER_1
 62
7
 10
10.824817
 20
15.893210
 42
0.066415
  0
VERTEX
  8
LAYER_1
 62
7
 10
10.844977
 20
16.003253
 42
0.016180
  0
VERTEX
  8
LAYER_1
 62
7
 10
10.843159
 20
16.174089
 42
-0.065085
  0
VERTEX
  8
LAYER_1
 62
7
 10
10.857601
 20
16.342198
 42
-0.196195
  0
VERTEX
  8
LAYER_1
 62
7
 10
10.892198
 20
16.395189
 42
-0.142496
  0
VERTEX
  8
LAYER_1
 62
7
 10
10.952561
 20
16.415110
 42
-0.145257
  0
VERTEX
  8
LAYER_1
 62
7
 10
11.014003
 20
16.400661
 42
-0.201513
  0
VERTEX
  8
LAYER_1
 62
7
 10
11.051838
 20
16.350541
 42
-0.039393
  0
VERTEX
  8
LAYER_1
 62
7
 10
11.066938
 20
16.011964
 42
-0.110929
  0
VERTEX
  8
LAYER_1
 62
7
 10
10.984037
 20
15.687222
 42
-0.227401
  0
VERTEX
  8
LAYER_1
 62
7
 10
10.792797
 20
15.590633
 42
-0.197619
  0
VERTEX
  8
LAYER_1
 62
7
 10
10.588514
 20
15.663251
 42
0.216484
  0
VERTEX
  8
LAYER_1
 62
7
 10
10.548687
 20
15.682897
 42
0.136956
  0
VERTEX
  8
LAYER_1
 62
7
 10
10.508639
 20
15.669450
  0
VERTEX
  8
LAYER_1
 62
7
 10
10.469870
 20
15.640712
 42
-0.040242
  0
VERTEX
  8
LAYER_1
 62
7
 10
10.433877
 20
15.614486
 42
-0.183368
  0
VERTEX
  8
LAYER_1
 62
7
 10
10.241300
 20
15.553883
 42
-0.243764
  0
VERTEX
  8
LAYER_1
 62
7
 10
10.069257
 20
15.649268
 42
-0.093875
  0
VERTEX
  8
LAYER_1
 62
7
 10
10.011127
 20
15.785393
 42
-0.053810
  0
VERTEX
  8
LAYER_1
 62
7
 10
9.995508
 20
15.933470
  0
VERTEX
  8
LAYER_1
 62
7
 10
9.996682
 20
16.009529
 42
0.013875
  0
VERTEX
  8
LAYER_1
 62
7
 10
10.002749
 20
16.233975
 42
-0.183414
  0
VERTEX
  8
LAYER_1
 62
7
 10
10.018162
 20
16.303418
 42
-0.130521
  0
VERTEX
  8
LAYER_1
 62
7
 10
10.071945
 20
16.352920
 42
-0.158747
  0
VERTEX
  8
LAYER_1
 62
7
 10
10.139189
 20
16.366334
 42
-0.232937
  0
VERTEX
  8
LAYER_1
 62
7
 10
10.194988
 20
16.327510
 42
-0.091229
  0
VERTEX
  8
LAYER_1
 62
7
 10
10.214161
 20
16.206775
  0
VERTEX
  8
LAYER_1
 62
7
 10
10.211737
 20
16.143833
  0
VERTEX
  8
LAYER_1
 62
7
 10
10.207106
 20
16.080587
 42
0.052896
  0
VERTEX
  8
LAYER_1
 62
7
 10
10.208620
 20
15.957417
 42
0.129335
  0
VERTEX
  8
LAYER_1
 62
7
 10
10.253506
 20
15.845737
 42
0.194714
  0
VERTEX
  8
LAYER_1
 62
7
 10
10.343779
 20
15.840317
 42
0.306922
  0
VERTEX
  8
LAYER_1
 62
7
 10
10.400740
 20
15.906723
 42
0.087292
  0
VERTEX
  8
LAYER_1
 62
7
 10
10.413915
 20
16.045576
  0
VERTEX
  8
LAYER_1
 62
7
 10
10.405323
 20
16.198033
 42
-0.098550
  0
VERTEX
  8
LAYER_1
 62
7
 10
10.423874
 20
16.336237
 42
-0.206321
  0
VERTEX
  8
LAYER_1
 62
7
 10
10.518481
 20
16.432325
  0
SEQEND
  0
POLYLINE
  8
LAYER_1
 62
7
 70
1
 66
1
  0
VERTEX
  8
LAYER_1
 62
7
 10
22.668786
 20
16.423629
 42
-0.118660
  0
VERTEX
  8
LAYER_1
 62
7
 10
22.752670
 20
16.424217
 42
-0.256645
  0
VERTEX
  8
LAYER_1
 62
7
 10
22.811790
 20
16.370869
 42
-0.032477
  0
VERTEX
  8
LAYER_1
 62
7
 10
22.819679
 20
16.253445
  0
VERTEX
  8
LAYER_1
 62
7
 10
22.819119
 20
16.134301
 42
0.078379
  0
VERTEX
  8
LAYER_1
 62
7
 10
22.846101
 20
15.900025
 42
0.194736
  0
VERTEX
  8
LAYER_1
 62
7
 10
22.894694
 20
15.858184
 42
0.150835
  0
VERTEX
  8
LAYER_1
 62
7
 10
22.957232
 20
15.856651
 42
0.165761
  0
VERTEX
  8
LAYER_1
 62
7
 10
23.008270
 20
15.890259
 42
0.209667
  0
VERTEX
  8
LAYER_1
 62
7
 10
23.022360
 20
15.953842
 42
0.064482
  0
VERTEX
  8
LAYER_1
 62
7
 10
23.032566
 20
16.063572
  0
VERTEX
  8
LAYER_1
 62
7
 10
23.027075
 20
16.176266
 42
-0.048593
  0
VERTEX
  8
LAYER_1
 62
7
 10
23.030506
 20
16.286293
 42
-0.108316
  0
VERTEX
  8
LAYER_1
 62
7
 10
23.067482
 20
16.388025
 42
-0.237934
  0
VERTEX
  8
LAYER_1
 62
7
 10
23.163792
 20
16.413862
 42
-0.293814
  0
VERTEX
  8
LAYER_1
 62
7
 10
23.237277
 20
16.350776
 42
-0.032224
  0
VERTEX
  8
LAYER_1
 62
7
 10
23.251510
 20
16.033555
 42
-0.089638
  0
VERTEX
  8
LAYER_1
 62
7
 10
23.190040
 20
15.724354
 42
-0.252557
  0
VERTEX
  8
LAYER_1
 62
7
 10
22.998726
 20
15.593615
 42
-0.226362
  0
VERTEX
  8
LAYER_1
 62
7
 10
22.773835
 20
15.663016
 42
0.186814
  0
VERTEX
  8
LAYER_1
 62
7
 10
22.732529
 20
15.680776
 42
0.128718
  0
VERTEX
  8
LAYER_1
 62
7
 10
22.691905
 20
15.669288
 42
0.044067
  0
VERTEX
  8
LAYER_1
 62
7
 10
22.653440
 20
15.642708
  0
VERTEX
  8
LAYER_1
 62
7
 10
22.618611
 20
15.615191
 42
-0.173532
  0
VERTEX
  8
LAYER_1
 62
7
 10
22.431101
 20
15.556042
 42
-0.240358
  0
VERTEX
  8
LAYER_1
 62
7
 10
22.261041
 20
15.644685
 42
-0.093660
  0
VERTEX
  8
LAYER_1
 62
7
 10
22.198512
 20
15.783970
 42
-0.056157
  0
VERTEX
  8
LAYER_1
 62
7
 10
22.180477
 20
15.935482
 42
-0.010403
  0
VERTEX
  8
LAYER_1
 62
7
 10
22.188824
 20
16.168858
  0
VERTEX
  8
LAYER_1
 62
7
 10
22.190068
 20
16.244433
 42
-0.233668
  0
VERTEX
  8
LAYER_1
 62
7
 10
22.238143
 20
16.342374
 42
-0.237989
  0
VERTEX
  8
LAYER_1
 62
7
 10
22.345880
 20
16.364172
 42
-0.152228
  0
VERTEX
  8
LAYER_1
 62
7
 10
22.396421
 20
16.270033
 42
-0.068956
  0
VERTEX
  8
LAYER_1
 62
7
 10
22.401299
 20
16.158170
  0
VERTEX
  8
LAYER_1
 62
7
 10
22.391041
 20
16.041173
 42
0.071328
  0
VERTEX
  8
LAYER_1
 62
7
 10
22.396173
 20
15.931634
 42
0.159365
  0
VERTEX
  8
LAYER_1
 62
7
 10
22.413191
 20
15.874376
 42
0.146856
  0
VERTEX
  8
LAYER_1
 62
7
 10
22.455998
 20
15.841419
 42
0.270494
  0
VERTEX
  8
LAYER_1
 62
7
 10
22.563148
 20
15.858545
 42
0.129401
  0
VERTEX
  8
LAYER_1
 62
7
 10
22.602788
 20
15.997453
 42
0.028827
  0
VERTEX
  8
LAYER_1
 62
7
 10
22.597900
 20
16.149944
 42
-0.061084
  0
VERTEX
  8
LAYER_1
 62
7
 10
22.602046
 20
16.298007
 42
-0.164739
  0
VERTEX
  8
LAYER_1
 62
7
 10
22.668786
 20
16.423629
  0
SEQEND
  0
POLYLINE
  8
LAYER_1
 62
7
 70
1
 66
1
  0
VERTEX
  8
LAYER_1
 62
7
 10
29.168956
 20
15.984511
 42
-0.144871
  0
VERTEX
  8
LAYER_1
 62
7
 10
29.243404
 20
15.984181
 42
-0.079528
  0
VERTEX
  8
LAYER_1
 62
7
 10
29.309801
 20
15.950582
  0
VERTEX
  8
LAYER_1
 62
7
 10
29.372253
 20
15.903278
 42
0.047533
  0
VERTEX
  8
LAYER_1
 62
7
 10
29.434870
 20
15.861836
 42
0.054343
  0
VERTEX
  8
LAYER_1
 62
7
 10
29.481676
 20
15.829283
  0
VERTEX
  8
LAYER_1
 62
7
 10
29.533208
 20
15.797237
 42
-0.119949
  0
VERTEX
  8
LAYER_1
 62
7
 10
29.570617
 20
15.756246
 42
-0.185965
  0
VERTEX
  8
LAYER_1
 62
7
 10
29.575055
 20
15.696858
  0
VERTEX
  8
LAYER_1
 62
7
 10
29.575392
 20
15.285530
 42
0.003401
  0
VERTEX
  8
LAYER_1
 62
7
 10
29.576347
 20
14.874202
 42
0.058927
  0
VERTEX
  8
LAYER_1
 62
7
 10
29.596066
 20
14.732622
 42
0.140245
  0
VERTEX
  8
LAYER_1
 62
7
 10
29.665481
 20
14.611774
 42
0.005683
  0
VERTEX
  8
LAYER_1
 62
7
 10
30.036828
 20
14.376355
 42
0.121875
  0
VERTEX
  8
LAYER_1
 62
7
 10
30.198186
 20
14.345544
 42
-0.152353
  0
VERTEX
  8
LAYER_1
 62
7
 10
30.329412
 20
14.335511
 42
-0.122777
  0
VERTEX
  8
LAYER_1
 62
7
 10
30.430862
 20
14.260074
 42
-0.180773
  0
VERTEX
  8
LAYER_1
 62
7
 10
30.514864
 20
14.016411
 42
-0.001758
  0
VERTEX
  8
LAYER_1
 62
7
 10
30.513336
 20
11.961240
 42
-0.177678
  0
VERTEX
  8
LAYER_1
 62
7
 10
30.459049
 20
11.817501
 42
-0.146702
  0
VERTEX
  8
LAYER_1
 62
7
 10
30.397931
 20
11.778912
 42
-0.177447
  0
VERTEX
  8
LAYER_1
 62
7
 10
30.320157
 20
11.788154
  0
VERTEX
  8
LAYER_1
 62
7
 10
30.129681
 20
11.891133
  0
VERTEX
  8
LAYER_1
 62
7
 10
29.940614
 20
11.996492
 42
-0.175046
  0
VERTEX
  8
LAYER_1
 62
7
 10
29.871947
 20
12.057080
 42
-0.179769
  0
VERTEX
  8
LAYER_1
 62
7
 10
29.857303
 20
12.147721
  0
VERTEX
  8
LAYER_1
 62
7
 10
29.857303
 20
13.875522
 42
0.152030
  0
VERTEX
  8
LAYER_1
 62
7
 10
29.847987
 20
13.909043
 42
0.095499
  0
VERTEX
  8
LAYER_1
 62
7
 10
29.824019
 20
13.932792
  0
VERTEX
  8
LAYER_1
 62
7
 10
29.763416
 20
13.969174
 42
-0.007709
  0
VERTEX
  8
LAYER_1
 62
7
 10
29.060498
 20
14.417810
 42
-0.266985
  0
VERTEX
  8
LAYER_1
 62
7
 10
28.941700
 20
14.639191
 42
-0.002001
  0
VERTEX
  8
LAYER_1
 62
7
 10
28.942052
 20
15.872176
 42
-0.161795
  0
VERTEX
  8
LAYER_1
 62
7
 10
28.978134
 20
15.925702
 42
-0.091624
  0
VERTEX
  8
LAYER_1
 62
7
 10
29.037085
 20
15.954474
 42
-0.015218
  0
VERTEX
  8
LAYER_1
 62
7
 10
29.138511
 20
15.976788
  0
VERTEX
  8
LAYER_1
 62
7
 10
29.168956
 20
15.984511
  0
SEQEND
  0
POLYLINE
  8
LAYER_1
 62
7
 70
1
 66
1
  0
VERTEX
  8
LAYER_1
 62
7
 10
29.121013
 20
14.072344
 42
-0.180319
  0
VERTEX
  8
LAYER_1
 62
7
 10
29.234994
 20
14.051134
 42
-0.009340
  0
VERTEX
  8
LAYER_1
 62
7
 10
29.336283
 20
13.988328
 42
0.012660
  0
VERTEX
  8
LAYER_1
 62
7
 10
29.443889
 20
13.922466
  0
VERTEX
  8
LAYER_1
 62
7
 10
29.479170
 20
13.899347
 42
-0.212073
  0
VERTEX
  8
LAYER_1
 62
7
 10
29.570942
 20
13.765420
 42
-0.005586
  0
VERTEX
  8
LAYER_1
 62
7
 10
29.575995
 20
12.944967
  0
VERTEX
  8
LAYER_1
 62
7
 10
29.575760
 20
12.124338
 42
0.102326
  0
VERTEX
  8
LAYER_1
 62
7
 10
29.591682
 20
12.013310
 42
0.163757
  0
VERTEX
  8
LAYER_1
 62
7
 10
29.659424
 20
11.925988
 42
0.009484
  0
VERTEX
  8
LAYER_1
 62
7
 10
30.071280
 20
11.656666
 42
0.158023
  0
VERTEX
  8
LAYER_1
 62
7
 10
30.164973
 20
11.631490
 42
0.034569
  0
VERTEX
  8
LAYER_1
 62
7
 10
30.214739
 20
11.636250
  0
VERTEX
  8
LAYER_1
 62
7
 10
30.265164
 20
11.645356
 42
-0.063689
  0
VERTEX
  8
LAYER_1
 62
7
 10
30.364122
 20
11.654947
 42
-0.176297
  0
VERTEX
  8
LAYER_1
 62
7
 10
30.454113
 20
11.616949
 42
-0.103877
  0
VERTEX
  8
LAYER_1
 62
7
 10
30.495446
 20
11.546519
 42
-0.045882
  0
VERTEX
  8
LAYER_1
 62
7
 10
30.514394
 20
11.465954
  0
VERTEX
  8
LAYER_1
 62
7
 10
30.516039
 20
11.052752
  0
VERTEX
  8
LAYER_1
 62
7
 10
30.515216
 20
10.639494
 42
0.004906
  0
VERTEX
  8
LAYER_1
 62
7
 10
30.519211
 20
9.813122
 42
0.091796
  0
VERTEX
  8
LAYER_1
 62
7
 10
30.567121
 20
9.615634
 42
0.057397
  0
VERTEX
  8
LAYER_1
 62
7
 10
30.670265
 20
9.444199
 42
0.019697
  0
VERTEX
  8
LAYER_1
 62
7
 10
30.801081
 20
9.287107
  0
VERTEX
  8
LAYER_1
 62
7
 10
30.868254
 20
9.210280
  0
VERTEX
  8
LAYER_1
 62
7
 10
30.932008
 20
9.132647
  0
VERTEX
  8
LAYER_1
 62
7
 10
30.995228
 20
9.057930
 42
-0.021782
  0
VERTEX
  8
LAYER_1
 62
7
 10
31.058635
 20
8.980581
 42
-0.164743
  0
VERTEX
  8
LAYER_1
 62
7
 10
31.126480
 20
8.799872
 42
-0.210290
  0
VERTEX
  8
LAYER_1
 62
7
 10
31.061470
 20
8.725373
 42
-0.133402
  0
VERTEX
  8
LAYER_1
 62
7
 10
30.962090
 20
8.705867
  0
VERTEX
  8
LAYER_1
 62
7
 10
30.080563
 20
8.705045
 42
-0.165672
  0
VERTEX
  8
LAYER_1
 62
7
 10
29.938617
 20
8.741236
 42
-0.233934
  0
VERTEX
  8
LAYER_1
 62
7
 10
29.862943
 20
8.862385
 42
-0.004664
  0
VERTEX
  8
LAYER_1
 62
7
 10
29.856803
 20
10.005801
  0
VERTEX
  8
LAYER_1
 62
7
 10
29.857538
 20
11.149394
  0
VERTEX
  8
LAYER_1
 62
7
 10
29.852276
 20
11.243278
 42
0.034720
  0
VERTEX
  8
LAYER_1
 62
7
 10
29.838619
 20
11.338108
 42
0.166804
  0
VERTEX
  8
LAYER_1
 62
7
 10
29.749198
 20
11.498973
 42
0.004161
  0
VERTEX
  8
LAYER_1
 62
7
 10
29.141342
 20
11.890032
 42
-0.077602
  0
VERTEX
  8
LAYER_1
 62
7
 10
29.013261
 20
11.980320
 42
-0.176085
  0
VERTEX
  8
LAYER_1
 62
7
 10
28.946518
 20
12.117405
 42
-0.005436
  0
VERTEX
  8
LAYER_1
 62
7
 10
28.940084
 20
13.013355
  0
VERTEX
  8
LAYER_1
 62
7
 10
28.942287
 20
13.909481
 42
-0.070833
  0
VERTEX
  8
LAYER_1
 62
7
 10
29.023631
 20
13.998888
 42
-0.023543
  0
VERTEX
  8
LAYER_1
 62
7
 10
29.121013
 20
14.072344
  0
SEQEND
  0
POLYLINE
  8
LAYER_1
 62
7
 70
1
 66
1
  0
VERTEX
  8
LAYER_1
 62
7
 10
12.928519
 20
12.532434
 42
-0.178846
  0
VERTEX
  8
LAYER_1
 62
7
 10
12.970775
 20
12.532339
 42
-0.137099
  0
VERTEX
  8
LAYER_1
 62
7
 10
13.003149
 20
12.507435
 42
-0.192756
  0
VERTEX
  8
LAYER_1
 62
7
 10
13.026048
 20
12.425857
 42
-0.005894
  0
VERTEX
  8
LAYER_1
 62
7
 10
13.031111
 20
11.521464
 42
-0.004232
  0
VERTEX
  8
LAYER_1
 62
7
 10
13.027244
 20
10.062733
 42
0.061952
  0
VERTEX
  8
LAYER_1
 62
7
 10
13.089135
 20
9.558225
 42
0.125440
  0
VERTEX
  8
LAYER_1
 62
7
 10
13.326980
 20
9.118899
 42
0.069416
  0
VERTEX
  8
LAYER_1
 62
7
 10
13.396705
 20
9.046073
  0
VERTEX
  8
LAYER_1
 62
7
 10
13.437039
 20
9.015617
 42
-0.015590
  0
VERTEX
  8
LAYER_1
 62
7
 10
13.559641
 20
8.927169
 42
-0.076084
  0
VERTEX
  8
LAYER_1
 62
7
 10
13.625796
 20
8.853219
 42
-0.183870
  0
VERTEX
  8
LAYER_1
 62
7
 10
13.632828
 20
8.787513
 42
-0.157475
  0
VERTEX
  8
LAYER_1
 62
7
 10
13.598506
 20
8.739224
 42
-0.187472
  0
VERTEX
  8
LAYER_1
 62
7
 10
13.477269
 20
8.705867
 42
-0.003504
  0
VERTEX
  8
LAYER_1
 62
7
 10
12.597036
 20
8.706807
 42
-0.231441
  0
VERTEX
  8
LAYER_1
 62
7
 10
12.432895
 20
8.828984
 42
-0.130592
  0
VERTEX
  8
LAYER_1
 62
7
 10
12.385526
 20
9.034178
  0
VERTEX
  8
LAYER_1
 62
7
 10
12.384233
 20
11.854545
 42
-0.153329
  0
VERTEX
  8
LAYER_1
 62
7
 10
12.428826
 20
12.046432
 42
-0.086799
  0
VERTEX
  8
LAYER_1
 62
7
 10
12.557671
 20
12.198131
 42
0.023168
  0
VERTEX
  8
LAYER_1
 62
7
 10
12.733841
 20
12.377577
 42
-0.085539
  0
VERTEX
  8
LAYER_1
 62
7
 10
12.928519
 20
12.532434
  0
SEQEND
  0
POLYLINE
  8
LAYER_1
 62
7
 70
1
 66
1
  0
VERTEX
  8
LAYER_1
 62
7
 10
25.113840
 20
12.532434
 42
-0.181011
  0
VERTEX
  8
LAYER_1
 62
7
 10
25.158681
 20
12.531551
 42
-0.143153
  0
VERTEX
  8
LAYER_1
 62
7
 10
25.190645
 20
12.504395
 42
-0.151803
  0
VERTEX
  8
LAYER_1
 62
7
 10
25.215013
 20
12.417749
  0
VERTEX
  8
LAYER_1
 62
7
 10
25.216070
 20
10.244485
 42
0.046051
  0
VERTEX
  8
LAYER_1
 62
7
 10
25.225647
 20
9.895816
 42
0.077391
  0
VERTEX
  8
LAYER_1
 62
7
 10
25.319475
 20
9.561072
 42
0.085036
  0
VERTEX
  8
LAYER_1
 62
7
 10
25.546716
 20
9.228223
 42
0.065120
  0
VERTEX
  8
LAYER_1
 62
7
 10
25.862703
 20
8.976013
 42
-0.034995
  0
VERTEX
  8
LAYER_1
 62
7
 10
25.946146
 20
8.920124
 42
-0.222669
  0
VERTEX
  8
LAYER_1
 62
7
 10
25.990901
 20
8.835241
 42
-0.219243
  0
VERTEX
  8
LAYER_1
 62
7
 10
25.908633
 20
8.737153
 42
-0.113542
  0
VERTEX
  8
LAYER_1
 62
7
 10
25.780097
 20
8.705867
  0
VERTEX
  8
LAYER_1
 62
7
 10
25.282799
 20
8.704369
 42
-0.009800
  0
VERTEX
  8
LAYER_1
 62
7
 10
24.785765
 20
8.710450
 42
-0.237463
  0
VERTEX
  8
LAYER_1
 62
7
 10
24.629306
 20
8.811813
 42
-0.141112
  0
VERTEX
  8
LAYER_1
 62
7
 10
24.578603
 20
8.997516
 42
-0.006029
  0
VERTEX
  8
LAYER_1
 62
7
 10
24.568718
 20
10.414001
 42
0.002200
  0
VERTEX
  8
LAYER_1
 62
7
 10
24.569672
 20
11.830926
 42
-0.247233
  0
VERTEX
  8
LAYER_1
 62
7
 10
24.725250
 20
12.180623
 42
0.023551
  0
VERTEX
  8
LAYER_1
 62
7
 10
24.910291
 20
12.368823
 42
-0.082968
  0
VERTEX
  8
LAYER_1
 62
7
 10
25.113840
 20
12.532434
  0
SEQEND
  0
POLYLINE
  8
LAYER_1
 62
7
 70
1
 66
1
  0
VERTEX
  8
LAYER_1
 62
7
 10
14.851708
 20
12.162236
 42
0.199589
  0
VERTEX
  8
LAYER_1
 62
7
 10
14.754122
 20
12.397829
 42
0.199589
  0
VERTEX
  8
LAYER_1
 62
7
 10
14.518529
 20
12.495415
 42
0.199589
  0
VERTEX
  8
LAYER_1
 62
7
 10
14.282935
 20
12.397829
 42
0.199589
  0
VERTEX
  8
LAYER_1
 62
7
 10
14.185349
 20
12.162236
 42
0.199589
  0
VERTEX
  8
LAYER_1
 62
7
 10
14.282935
 20
11.926642
 42
0.199589
  0
VERTEX
  8
LAYER_1
 62
7
 10
14.518529
 20
11.829056
 42
0.199589
  0
VERTEX
  8
LAYER_1
 62
7
 10
14.754122
 20
11.926642
 42
0.199589
  0
VERTEX
  8
LAYER_1
 62
7
 10
14.851708
 20
12.162236
  0
SEQEND
  0
POLYLINE
  8
LAYER_1
 62
7
 70
1
 66
1
  0
VERTEX
  8
LAYER_1
 62
7
 10
6.291660
 20
8.181041
 42
0.199589
  0
VERTEX
  8
LAYER_1
 62
7
 10
6.194074
 20
8.416635
 42
0.199589
  0
VERTEX
  8
LAYER_1
 62
7
 10
5.958481
 20
8.514221
 42
0.199589
  0
VERTEX
  8
LAYER_1
 62
7
 10
5.722887
 20
8.416635
 42
0.199589
  0
VERTEX
  8
LAYER_1
 62
7
 10
5.625301
 20
8.181041
 42
0.199589
  0
VERTEX
  8
LAYER_1
 62
7
 10
5.722887
 20
7.945448
 42
0.199589
  0
VERTEX
  8
LAYER_1
 62
7
 10
5.958481
 20
7.847862
 42
0.199589
  0
VERTEX
  8
LAYER_1
 62
7
 10
6.194074
 20
7.945448
 42
0.199589
  0
VERTEX
  8
LAYER_1
 62
7
 10
6.291660
 20
8.181041
  0
SEQEND
  0
POLYLINE
  8
LAYER_1
 62
7
 70
1
 66
1
  0
VERTEX
  8
LAYER_1
 62
7
 10
5.566634
 20
8.181041
 42
0.199589
  0
VERTEX
  8
LAYER_1
 62
7
 10
5.469048
 20
8.416635
 42
0.199589
  0
VERTEX
  8
LAYER_1
 62
7
 10
5.233454
 20
8.514221
 42
0.199589
  0
VERTEX
  8
LAYER_1
 62
7
 10
4.997861
 20
8.416635
 42
0.199589
  0
VERTEX
  8
LAYER_1
 62
7
 10
4.900275
 20
8.181041
 42
0.199589
  0
VERTEX
  8
LAYER_1
 62
7
 10
4.997861
 20
7.945448
 42
0.199589
  0
VERTEX
  8
LAYER_1
 62
7
 10
5.233454
 20
7.847862
 42
0.199589
  0
VERTEX
  8
LAYER_1
 62
7
 10
5.469048
 20
7.945448
 42
0.199589
  0
VERTEX
  8
LAYER_1
 62
7
 10
5.566634
 20
8.181041
  0
SEQEND
  0
POLYLINE
  8
LAYER_1
 62
7
 70
1
 66
1
  0
VERTEX
  8
LAYER_1
 62
7
 10
37.090271
 20
8.181041
 42
0.199589
  0
VERTEX
  8
LAYER_1
 62
7
 10
36.992685
 20
8.416635
 42
0.199589
  0
VERTEX
  8
LAYER_1
 62
7
 10
36.757091
 20
8.514221
 42
0.199589
  0
VERTEX
  8
LAYER_1
 62
7
 10
36.521498
 20
8.416635
 42
0.199589
  0
VERTEX
  8
LAYER_1
 62
7
 10
36.423912
 20
8.181041
 42
0.199589
  0
VERTEX
  8
LAYER_1
 62
7
 10
36.521498
 20
7.945448
 42
0.199589
  0
VERTEX
  8
LAYER_1
 62
7
 10
36.757091
 20
7.847862
 42
0.199589
  0
VERTEX
  8
LAYER_1
 62
7
 10
36.992685
 20
7.945448
 42
0.199589
  0
VERTEX
  8
LAYER_1
 62
7
 10
37.090271
 20
8.181041
  0
SEQEND
  0
ENDSEC
  0
EOF
