  0
SECTION
  2
HEADER
  9
$EXTMIN
 10
0.000000
 20
0.000000
  9
$EXTMAX
 10
39.370079
 20
39.370079
  9
$LTSCALE
 40
100.000000
  9
$PDMODE
 70
35
  9
$PDSIZE
 40
80.000000
  0
ENDSEC
  0
SECTION
  2
TABLES
  0
TABLE
  2
LAYER
 70
1
  0
LAYER
  2
LAYER_1
 70
0
 62
1
  6
CONTINUOUS
  0
ENDTAB
  0
ENDSEC
  0
SECTION
  2
BLOCKS
  0
ENDSEC
  0
SECTION
  2
ENTITIES
  0
POLYLINE
  8
LAYER_1
 62
7
 70
1
 66
1
  0
VERTEX
  8
LAYER_1
 62
7
 10
19.685039
 20
35.358809
  0
VERTEX
  8
LAYER_1
 62
7
 10
16.696171
 20
35.357384
 42
0.002512
  0
VERTEX
  8
LAYER_1
 62
7
 10
13.707322
 20
35.338104
 42
-0.001607
  0
VERTEX
  8
LAYER_1
 62
7
 10
11.878332
 20
35.324782
  0
VERTEX
  8
LAYER_1
 62
7
 10
11.877191
 20
19.685039
  0
VERTEX
  8
LAYER_1
 62
7
 10
11.878332
 20
4.045297
 42
-0.001607
  0
VERTEX
  8
LAYER_1
 62
7
 10
13.707322
 20
4.031975
 42
0.002512
  0
VERTEX
  8
LAYER_1
 62
7
 10
16.696171
 20
4.012695
  0
VERTEX
  8
LAYER_1
 62
7
 10
19.685039
 20
4.011270
  0
VERTEX
  8
LAYER_1
 62
7
 10
22.673907
 20
4.012695
 42
0.002512
  0
VERTEX
  8
LAYER_1
 62
7
 10
25.662757
 20
4.031975
 42
-0.001607
  0
VERTEX
  8
LAYER_1
 62
7
 10
27.491747
 20
4.045297
  0
VERTEX
  8
LAYER_1
 62
7
 10
27.492887
 20
19.685039
  0
VERTEX
  8
LAYER_1
 62
7
 10
27.491747
 20
35.324782
 42
-0.001607
  0
VERTEX
  8
LAYER_1
 62
7
 10
25.662757
 20
35.338104
 42
0.002512
  0
VERTEX
  8
LAYER_1
 62
7
 10
22.673907
 20
35.357384
  0
VERTEX
  8
LAYER_1
 62
7
 10
19.685039
 20
35.358809
  0
SEQEND
  0
POLYLINE
  8
LAYER_1
 62
7
 70
1
 66
1
  0
VERTEX
  8
LAYER_1
 62
7
 10
12.525849
 20
19.685039
 42
-0.038725
  0
VERTEX
  8
LAYER_1
 62
7
 10
12.565966
 20
20.231305
 42
-0.066298
  0
VERTEX
  8
LAYER_1
 62
7
 10
12.944851
 20
21.634784
 42
-0.059434
  0
VERTEX
  8
LAYER_1
 62
7
 10
13.659912
 20
22.901912
 42
-0.011207
  0
VERTEX
  8
LAYER_1
 62
7
 10
13.900291
 20
23.215707
 42
-0.036576
  0
VERTEX
  8
LAYER_1
 62
7
 10
14.168879
 20
23.504523
 42
0.063312
  0
VERTEX
  8
LAYER_1
 62
7
 10
14.309296
 20
22.948000
 42
0.095596
  0
VERTEX
  8
LAYER_1
 62
7
 10
14.613981
 20
22.464648
 42
0.152946
  0
VERTEX
  8
LAYER_1
 62
7
 10
14.250818
 20
22.463766
 42
0.163172
  0
VERTEX
  8
LAYER_1
 62
7
 10
13.956124
 20
22.253068
 42
0.143716
  0
VERTEX
  8
LAYER_1
 62
7
 10
13.825013
 20
21.905087
 42
0.082261
  0
VERTEX
  8
LAYER_1
 62
7
 10
13.856995
 20
21.529778
 42
0.136337
  0
VERTEX
  8
LAYER_1
 62
7
 10
13.633275
 20
21.537761
 42
0.112015
  0
VERTEX
  8
LAYER_1
 62
7
 10
13.436627
 20
21.439367
 42
0.203039
  0
VERTEX
  8
LAYER_1
 62
7
 10
13.228133
 20
21.053332
 42
0.137004
  0
VERTEX
  8
LAYER_1
 62
7
 10
13.277338
 20
20.724367
 42
0.052649
  0
VERTEX
  8
LAYER_1
 62
7
 10
13.446062
 20
20.432402
 42
0.192032
  0
VERTEX
  8
LAYER_1
 62
7
 10
12.949286
 20
20.195274
 42
0.190819
  0
VERTEX
  8
LAYER_1
 62
7
 10
12.750534
 20
19.685039
 42
0.190819
  0
VERTEX
  8
LAYER_1
 62
7
 10
12.949286
 20
19.174805
 42
0.192032
  0
VERTEX
  8
LAYER_1
 62
7
 10
13.446062
 20
18.937676
 42
0.052649
  0
VERTEX
  8
LAYER_1
 62
7
 10
13.277338
 20
18.645711
 42
0.137004
  0
VERTEX
  8
LAYER_1
 62
7
 10
13.228133
 20
18.316747
 42
0.203039
  0
VERTEX
  8
LAYER_1
 62
7
 10
13.436627
 20
17.930712
 42
0.112015
  0
VERTEX
  8
LAYER_1
 62
7
 10
13.633275
 20
17.832317
 42
0.136337
  0
VERTEX
  8
LAYER_1
 62
7
 10
13.856995
 20
17.840301
 42
0.082261
  0
VERTEX
  8
LAYER_1
 62
7
 10
13.825013
 20
17.464991
 42
0.143716
  0
VERTEX
  8
LAYER_1
 62
7
 10
13.956124
 20
17.117011
 42
0.163172
  0
VERTEX
  8
LAYER_1
 62
7
 10
14.250818
 20
16.906313
 42
0.152946
  0
VERTEX
  8
LAYER_1
 62
7
 10
14.613981
 20
16.905431
 42
0.095596
  0
VERTEX
  8
LAYER_1
 62
7
 10
14.309296
 20
16.422079
 42
0.063312
  0
VERTEX
  8
LAYER_1
 62
7
 10
14.168879
 20
15.865556
 42
-0.036576
  0
VERTEX
  8
LAYER_1
 62
7
 10
13.900291
 20
16.154372
 42
-0.011207
  0
VERTEX
  8
LAYER_1
 62
7
 10
13.659912
 20
16.468166
 42
-0.059434
  0
VERTEX
  8
LAYER_1
 62
7
 10
12.944851
 20
17.735294
 42
-0.066298
  0
VERTEX
  8
LAYER_1
 62
7
 10
12.565966
 20
19.138774
 42
-0.038725
  0
VERTEX
  8
LAYER_1
 62
7
 10
12.525849
 20
19.685039
  0
SEQEND
  0
POLYLINE
  8
LAYER_1
 62
7
 70
1
 66
1
  0
VERTEX
  8
LAYER_1
 62
7
 10
13.035738
 20
19.685039
 42
-0.085443
  0
VERTEX
  8
LAYER_1
 62
7
 10
13.062003
 20
19.843017
 42
-0.195958
  0
VERTEX
  8
LAYER_1
 62
7
 10
13.295868
 20
20.110969
 42
-0.211409
  0
VERTEX
  8
LAYER_1
 62
7
 10
13.649333
 20
20.136486
 42
0.054748
  0
VERTEX
  8
LAYER_1
 62
7
 10
14.497269
 20
19.924612
 42
0.042607
  0
VERTEX
  8
LAYER_1
 62
7
 10
15.371358
 20
19.880239
 42
0.025756
  0
VERTEX
  8
LAYER_1
 62
7
 10
15.261358
 20
19.685039
 42
0.028063
  0
VERTEX
  8
LAYER_1
 62
7
 10
15.313774
 20
19.586147
  0
VERTEX
  8
LAYER_1
 62
7
 10
15.371358
 20
19.489839
 42
0.042607
  0
VERTEX
  8
LAYER_1
 62
7
 10
14.497269
 20
19.445466
 42
0.054748
  0
VERTEX
  8
LAYER_1
 62
7
 10
13.649333
 20
19.233593
 42
-0.211409
  0
VERTEX
  8
LAYER_1
 62
7
 10
13.295868
 20
19.259110
 42
-0.195958
  0
VERTEX
  8
LAYER_1
 62
7
 10
13.062003
 20
19.527062
 42
-0.085443
  0
VERTEX
  8
LAYER_1
 62
7
 10
13.035738
 20
19.685039
  0
SEQEND
  0
POLYLINE
  8
LAYER_1
 62
7
 70
1
 66
1
  0
VERTEX
  8
LAYER_1
 62
7
 10
15.651409
 20
19.685039
 42
-0.025771
  0
VERTEX
  8
LAYER_1
 62
7
 10
15.984584
 20
20.047140
 42
-0.056289
  0
VERTEX
  8
LAYER_1
 62
7
 10
16.371268
 20
20.349241
 42
-0.076788
  0
VERTEX
  8
LAYER_1
 62
7
 10
16.966484
 20
20.612687
 42
-0.090044
  0
VERTEX
  8
LAYER_1
 62
7
 10
17.613712
 20
20.667786
 42
0.038678
  0
VERTEX
  8
LAYER_1
 62
7
 10
17.728906
 20
20.367265
 42
0.078554
  0
VERTEX
  8
LAYER_1
 62
7
 10
17.362103
 20
20.321943
 42
0.064831
  0
VERTEX
  8
LAYER_1
 62
7
 10
17.027654
 20
20.176046
 42
0.090671
  0
VERTEX
  8
LAYER_1
 62
7
 10
16.480753
 20
19.685039
 42
0.090671
  0
VERTEX
  8
LAYER_1
 62
7
 10
17.027654
 20
19.194033
 42
0.064831
  0
VERTEX
  8
LAYER_1
 62
7
 10
17.362103
 20
19.048135
 42
0.078554
  0
VERTEX
  8
LAYER_1
 62
7
 10
17.728906
 20
19.002814
 42
0.038678
  0
VERTEX
  8
LAYER_1
 62
7
 10
17.613712
 20
18.702292
 42
-0.090044
  0
VERTEX
  8
LAYER_1
 62
7
 10
16.966484
 20
18.757391
 42
-0.076788
  0
VERTEX
  8
LAYER_1
 62
7
 10
16.371268
 20
19.020838
 42
-0.056289
  0
VERTEX
  8
LAYER_1
 62
7
 10
15.984584
 20
19.322938
 42
-0.025771
  0
VERTEX
  8
LAYER_1
 62
7
 10
15.651409
 20
19.685039
  0
SEQEND
  0
POLYLINE
  8
LAYER_1
 62
7
 70
1
 66
1
  0
VERTEX
  8
LAYER_1
 62
7
 10
16.876764
 20
19.685039
 42
-0.084190
  0
VERTEX
  8
LAYER_1
 62
7
 10
16.880627
 20
19.714110
 42
-0.153744
  0
VERTEX
  8
LAYER_1
 62
7
 10
17.415356
 20
20.037504
 42
-0.140377
  0
VERTEX
  8
LAYER_1
 62
7
 10
18.042357
 20
20.020901
 42
-0.081332
  0
VERTEX
  8
LAYER_1
 62
7
 10
18.276466
 20
19.908254
 42
-0.097928
  0
VERTEX
  8
LAYER_1
 62
7
 10
18.456505
 20
19.721554
 42
-0.137309
  0
VERTEX
  8
LAYER_1
 62
7
 10
18.470136
 20
19.685039
 42
-0.137309
  0
VERTEX
  8
LAYER_1
 62
7
 10
18.456505
 20
19.648524
 42
-0.097928
  0
VERTEX
  8
LAYER_1
 62
7
 10
18.276466
 20
19.461825
 42
-0.081332
  0
VERTEX
  8
LAYER_1
 62
7
 10
18.042357
 20
19.349178
 42
-0.140377
  0
VERTEX
  8
LAYER_1
 62
7
 10
17.415356
 20
19.332575
 42
-0.153744
  0
VERTEX
  8
LAYER_1
 62
7
 10
16.880627
 20
19.655969
 42
-0.084190
  0
VERTEX
  8
LAYER_1
 62
7
 10
16.876764
 20
19.685039
  0
SEQEND
  0
POLYLINE
  8
LAYER_1
 62
7
 70
1
 66
1
  0
VERTEX
  8
LAYER_1
 62
7
 10
19.685039
 20
19.879176
 42
-0.031740
  0
VERTEX
  8
LAYER_1
 62
7
 10
19.629102
 20
19.919444
 42
-0.128742
  0
VERTEX
  8
LAYER_1
 62
7
 10
19.458145
 20
20.178014
 42
-0.085911
  0
VERTEX
  8
LAYER_1
 62
7
 10
19.413113
 20
20.480179
 42
-0.046692
  0
VERTEX
  8
LAYER_1
 62
7
 10
19.447391
 20
20.785999
 42
-0.020458
  0
VERTEX
  8
LAYER_1
 62
7
 10
19.514365
 20
21.055537
 42
0.021974
  0
VERTEX
  8
LAYER_1
 62
7
 10
19.561429
 20
21.246181
 42
0.053359
  0
VERTEX
  8
LAYER_1
 62
7
 10
19.580212
 20
21.443729
 42
0.097886
  0
VERTEX
  8
LAYER_1
 62
7
 10
19.541760
 20
21.629831
 42
0.129014
  0
VERTEX
  8
LAYER_1
 62
7
 10
19.417118
 20
21.786136
 42
0.176249
  0
VERTEX
  8
LAYER_1
 62
7
 10
19.140272
 20
21.868860
 42
0.200533
  0
VERTEX
  8
LAYER_1
 62
7
 10
18.878029
 20
21.747551
 42
0.258196
  0
VERTEX
  8
LAYER_1
 62
7
 10
18.807765
 20
21.438366
 42
0.177957
  0
VERTEX
  8
LAYER_1
 62
7
 10
18.940371
 20
21.255946
 42
0.177957
  0
VERTEX
  8
LAYER_1
 62
7
 10
19.159778
 20
21.203776
  0
VERTEX
  8
LAYER_1
 62
7
 10
19.154582
 20
21.191978
 42
0.073119
  0
VERTEX
  8
LAYER_1
 62
7
 10
19.072765
 20
20.875739
 42
0.055918
  0
VERTEX
  8
LAYER_1
 62
7
 10
19.073448
 20
20.537739
 42
0.095575
  0
VERTEX
  8
LAYER_1
 62
7
 10
19.267232
 20
19.909621
  0
VERTEX
  8
LAYER_1
 62
7
 10
19.271087
 20
19.902573
 42
-0.044850
  0
VERTEX
  8
LAYER_1
 62
7
 10
19.111913
 20
19.982258
 42
-0.103815
  0
VERTEX
  8
LAYER_1
 62
7
 10
18.983887
 20
20.103965
 42
-0.068644
  0
VERTEX
  8
LAYER_1
 62
7
 10
18.897517
 20
20.277000
 42
-0.038380
  0
VERTEX
  8
LAYER_1
 62
7
 10
18.850377
 20
20.463847
  0
VERTEX
  8
LAYER_1
 62
7
 10
18.820133
 20
20.656277
 42
0.022742
  0
VERTEX
  8
LAYER_1
 62
7
 10
18.784454
 20
20.846062
 42
0.173755
  0
VERTEX
  8
LAYER_1
 62
7
 10
18.692237
 20
20.994402
 42
0.211531
  0
VERTEX
  8
LAYER_1
 62
7
 10
18.530029
 20
21.044481
 42
0.180278
  0
VERTEX
  8
LAYER_1
 62
7
 10
18.372796
 20
20.961107
 42
0.128372
  0
VERTEX
  8
LAYER_1
 62
7
 10
18.300584
 20
20.806277
 42
0.119790
  0
VERTEX
  8
LAYER_1
 62
7
 10
18.321867
 20
20.460926
 42
0.055221
  0
VERTEX
  8
LAYER_1
 62
7
 10
18.435543
 20
20.212868
 42
0.007970
  0
VERTEX
  8
LAYER_1
 62
7
 10
18.579535
 20
19.980152
 42
-0.122797
  0
VERTEX
  8
LAYER_1
 62
7
 10
18.243107
 20
20.131233
 42
-0.104468
  0
VERTEX
  8
LAYER_1
 62
7
 10
18.004204
 20
20.414772
 42
-0.109644
  0
VERTEX
  8
LAYER_1
 62
7
 10
17.902314
 20
20.768397
 42
-0.133456
  0
VERTEX
  8
LAYER_1
 62
7
 10
17.976924
 20
21.129736
 42
-0.052446
  0
VERTEX
  8
LAYER_1
 62
7
 10
18.201030
 20
21.474159
 42
-0.025961
  0
VERTEX
  8
LAYER_1
 62
7
 10
18.476488
 20
21.779315
  0
VERTEX
  8
LAYER_1
 62
7
 10
18.768696
 20
22.071762
 42
0.026924
  0
VERTEX
  8
LAYER_1
 62
7
 10
19.043051
 20
22.378057
 42
0.062174
  0
VERTEX
  8
LAYER_1
 62
7
 10
19.685039
 20
23.320119
 42
0.062174
  0
VERTEX
  8
LAYER_1
 62
7
 10
20.327027
 20
22.378057
 42
0.026924
  0
VERTEX
  8
LAYER_1
 62
7
 10
20.601383
 20
22.071762
  0
VERTEX
  8
LAYER_1
 62
7
 10
20.893591
 20
21.779315
 42
-0.025961
  0
VERTEX
  8
LAYER_1
 62
7
 10
21.169049
 20
21.474159
 42
-0.052446
  0
VERTEX
  8
LAYER_1
 62
7
 10
21.393155
 20
21.129736
 42
-0.133456
  0
VERTEX
  8
LAYER_1
 62
7
 10
21.467765
 20
20.768397
 42
-0.109644
  0
VERTEX
  8
LAYER_1
 62
7
 10
21.365874
 20
20.414772
 42
-0.104468
  0
VERTEX
  8
LAYER_1
 62
7
 10
21.126972
 20
20.131233
 42
-0.122797
  0
VERTEX
  8
LAYER_1
 62
7
 10
20.790544
 20
19.980152
 42
0.007970
  0
VERTEX
  8
LAYER_1
 62
7
 10
20.934536
 20
20.212868
 42
0.055221
  0
VERTEX
  8
LAYER_1
 62
7
 10
21.048212
 20
20.460926
 42
0.119790
  0
VERTEX
  8
LAYER_1
 62
7
 10
21.069495
 20
20.806277
 42
0.128372
  0
VERTEX
  8
LAYER_1
 62
7
 10
20.997282
 20
20.961107
 42
0.180278
  0
VERTEX
  8
LAYER_1
 62
7
 10
20.840050
 20
21.044481
 42
0.211531
  0
VERTEX
  8
LAYER_1
 62
7
 10
20.677842
 20
20.994402
 42
0.173755
  0
VERTEX
  8
LAYER_1
 62
7
 10
20.585625
 20
20.846062
 42
0.018749
  0
VERTEX
  8
LAYER_1
 62
7
 10
20.535540
 20
20.559878
  0
VERTEX
  8
LAYER_1
 62
7
 10
20.519702
 20
20.463847
 42
-0.038380
  0
VERTEX
  8
LAYER_1
 62
7
 10
20.472562
 20
20.277000
 42
-0.068644
  0
VERTEX
  8
LAYER_1
 62
7
 10
20.386191
 20
20.103965
 42
-0.103815
  0
VERTEX
  8
LAYER_1
 62
7
 10
20.258166
 20
19.982258
 42
-0.044850
  0
VERTEX
  8
LAYER_1
 62
7
 10
20.098991
 20
19.902573
  0
VERTEX
  8
LAYER_1
 62
7
 10
20.102846
 20
19.909621
 42
0.095575
  0
VERTEX
  8
LAYER_1
 62
7
 10
20.296631
 20
20.537739
 42
0.055918
  0
VERTEX
  8
LAYER_1
 62
7
 10
20.297314
 20
20.875739
 42
0.073119
  0
VERTEX
  8
LAYER_1
 62
7
 10
20.215497
 20
21.191978
  0
VERTEX
  8
LAYER_1
 62
7
 10
20.210300
 20
21.203776
 42
0.177957
  0
VERTEX
  8
LAYER_1
 62
7
 10
20.429708
 20
21.255946
 42
0.177957
  0
VERTEX
  8
LAYER_1
 62
7
 10
20.562313
 20
21.438366
 42
0.258196
  0
VERTEX
  8
LAYER_1
 62
7
 10
20.492049
 20
21.747551
 42
0.200533
  0
VERTEX
  8
LAYER_1
 62
7
 10
20.229807
 20
21.868860
 42
0.176249
  0
VERTEX
  8
LAYER_1
 62
7
 10
19.952961
 20
21.786136
 42
0.129014
  0
VERTEX
  8
LAYER_1
 62
7
 10
19.828319
 20
21.629831
 42
0.097886
  0
VERTEX
  8
LAYER_1
 62
7
 10
19.789867
 20
21.443729
 42
0.053359
  0
VERTEX
  8
LAYER_1
 62
7
 10
19.808650
 20
21.246181
 42
0.021974
  0
VERTEX
  8
LAYER_1
 62
7
 10
19.855714
 20
21.055537
 42
-0.020458
  0
VERTEX
  8
LAYER_1
 62
7
 10
19.922688
 20
20.785999
 42
-0.046692
  0
VERTEX
  8
LAYER_1
 62
7
 10
19.956966
 20
20.480179
 42
-0.085911
  0
VERTEX
  8
LAYER_1
 62
7
 10
19.911934
 20
20.178014
 42
-0.128742
  0
VERTEX
  8
LAYER_1
 62
7
 10
19.740977
 20
19.919444
 42
-0.031740
  0
VERTEX
  8
LAYER_1
 62
7
 10
19.685039
 20
19.879176
  0
SEQEND
  0
POLYLINE
  8
LAYER_1
 62
7
 70
1
 66
1
  0
VERTEX
  8
LAYER_1
 62
7
 10
19.684947
 20
24.042476
  0
VERTEX
  8
LAYER_1
 62
7
 10
19.672219
 20
24.149806
 42
0.104904
  0
VERTEX
  8
LAYER_1
 62
7
 10
19.463933
 20
24.782119
 42
0.104240
  0
VERTEX
  8
LAYER_1
 62
7
 10
19.010139
 20
25.272390
 42
-0.108672
  0
VERTEX
  8
LAYER_1
 62
7
 10
19.685039
 20
25.415912
 42
-0.108672
  0
VERTEX
  8
LAYER_1
 62
7
 10
20.359940
 20
25.272390
 42
0.103993
  0
VERTEX
  8
LAYER_1
 62
7
 10
19.906875
 20
24.783354
 42
0.104721
  0
VERTEX
  8
LAYER_1
 62
7
 10
19.698226
 20
24.152869
  0
VERTEX
  8
LAYER_1
 62
7
 10
19.684947
 20
24.042476
  0
SEQEND
  0
POLYLINE
  8
LAYER_1
 62
7
 70
1
 66
1
  0
VERTEX
  8
LAYER_1
 62
7
 10
19.683614
 20
25.801382
  0
VERTEX
  8
LAYER_1
 62
7
 10
19.640884
 20
25.910943
 42
-0.013706
  0
VERTEX
  8
LAYER_1
 62
7
 10
19.419727
 20
26.482536
 42
-0.024834
  0
VERTEX
  8
LAYER_1
 62
7
 10
19.221935
 20
27.136893
 42
-0.044057
  0
VERTEX
  8
LAYER_1
 62
7
 10
19.114863
 20
27.800400
 42
-0.035109
  0
VERTEX
  8
LAYER_1
 62
7
 10
19.116396
 20
28.112580
 42
-0.048517
  0
VERTEX
  8
LAYER_1
 62
7
 10
19.165868
 20
28.399444
 42
-0.018493
  0
VERTEX
  8
LAYER_1
 62
7
 10
19.194684
 20
28.489187
 42
-0.034719
  0
VERTEX
  8
LAYER_1
 62
7
 10
19.311150
 20
28.703999
 42
-0.067612
  0
VERTEX
  8
LAYER_1
 62
7
 10
19.468170
 20
28.890013
 42
-0.047340
  0
VERTEX
  8
LAYER_1
 62
7
 10
19.567100
 20
28.975099
 42
-0.143627
  0
VERTEX
  8
LAYER_1
 62
7
 10
19.685039
 20
29.018411
 42
-0.143627
  0
VERTEX
  8
LAYER_1
 62
7
 10
19.802979
 20
28.975099
 42
-0.047340
  0
VERTEX
  8
LAYER_1
 62
7
 10
19.901909
 20
28.890013
 42
-0.067612
  0
VERTEX
  8
LAYER_1
 62
7
 10
20.058928
 20
28.703999
 42
-0.034719
  0
VERTEX
  8
LAYER_1
 62
7
 10
20.175395
 20
28.489187
 42
-0.018493
  0
VERTEX
  8
LAYER_1
 62
7
 10
20.204210
 20
28.399444
 42
-0.048517
  0
VERTEX
  8
LAYER_1
 62
7
 10
20.253683
 20
28.112580
 42
-0.035109
  0
VERTEX
  8
LAYER_1
 62
7
 10
20.255216
 20
27.800400
 42
-0.044057
  0
VERTEX
  8
LAYER_1
 62
7
 10
20.148144
 20
27.136893
 42
-0.024834
  0
VERTEX
  8
LAYER_1
 62
7
 10
19.950352
 20
26.482536
 42
-0.013706
  0
VERTEX
  8
LAYER_1
 62
7
 10
19.729195
 20
25.910943
  0
VERTEX
  8
LAYER_1
 62
7
 10
19.683614
 20
25.801382
  0
SEQEND
  0
POLYLINE
  8
LAYER_1
 62
7
 70
1
 66
1
  0
VERTEX
  8
LAYER_1
 62
7
 10
19.685039
 20
29.587844
 42
-0.201533
  0
VERTEX
  8
LAYER_1
 62
7
 10
19.439959
 20
29.686964
 42
-0.166962
  0
VERTEX
  8
LAYER_1
 62
7
 10
19.300473
 20
30.069375
 42
-0.047714
  0
VERTEX
  8
LAYER_1
 62
7
 10
19.316048
 20
30.534079
 42
-0.031807
  0
VERTEX
  8
LAYER_1
 62
7
 10
19.405088
 20
30.989453
 42
-0.015705
  0
VERTEX
  8
LAYER_1
 62
7
 10
19.537619
 20
31.437040
  0
VERTEX
  8
LAYER_1
 62
7
 10
19.683668
 20
31.878382
  0
VERTEX
  8
LAYER_1
 62
7
 10
19.685039
 20
31.874678
  0
VERTEX
  8
LAYER_1
 62
7
 10
19.686411
 20
31.878382
  0
VERTEX
  8
LAYER_1
 62
7
 10
19.832460
 20
31.437040
 42
-0.015705
  0
VERTEX
  8
LAYER_1
 62
7
 10
19.964991
 20
30.989453
 42
-0.031807
  0
VERTEX
  8
LAYER_1
 62
7
 10
20.054031
 20
30.534079
 42
-0.047714
  0
VERTEX
  8
LAYER_1
 62
7
 10
20.069605
 20
30.069375
 42
-0.166962
  0
VERTEX
  8
LAYER_1
 62
7
 10
19.930119
 20
29.686964
 42
-0.201533
  0
VERTEX
  8
LAYER_1
 62
7
 10
19.685039
 20
29.587844
  0
SEQEND
  0
POLYLINE
  8
LAYER_1
 62
7
 70
1
 66
1
  0
VERTEX
  8
LAYER_1
 62
7
 10
19.685039
 20
32.781852
 42
-0.053426
  0
VERTEX
  8
LAYER_1
 62
7
 10
19.383724
 20
33.783815
 42
-0.053308
  0
VERTEX
  8
LAYER_1
 62
7
 10
19.309877
 20
34.828353
 42
0.010514
  0
VERTEX
  8
LAYER_1
 62
7
 10
19.685039
 20
34.825676
 42
0.010514
  0
VERTEX
  8
LAYER_1
 62
7
 10
20.060202
 20
34.828353
 42
-0.053308
  0
VERTEX
  8
LAYER_1
 62
7
 10
19.986355
 20
33.783815
 42
-0.053426
  0
VERTEX
  8
LAYER_1
 62
7
 10
19.685039
 20
32.781852
  0
SEQEND
  0
POLYLINE
  8
LAYER_1
 62
7
 70
1
 66
1
  0
VERTEX
  8
LAYER_1
 62
7
 10
12.728597
 20
23.395251
 42
0.027974
  0
VERTEX
  8
LAYER_1
 62
7
 10
12.798312
 20
23.342312
 42
0.030460
  0
VERTEX
  8
LAYER_1
 62
7
 10
12.576007
 20
23.087926
 42
-0.011070
  0
VERTEX
  8
LAYER_1
 62
7
 10
12.363398
 20
22.824725
 42
-0.004421
  0
VERTEX
  8
LAYER_1
 62
7
 10
12.357058
 20
23.345827
  0
VERTEX
  8
LAYER_1
 62
7
 10
12.351808
 20
26.019238
  0
VERTEX
  8
LAYER_1
 62
7
 10
12.363426
 20
26.730173
  0
VERTEX
  8
LAYER_1
 62
7
 10
12.366533
 20
26.897245
 42
-0.024897
  0
VERTEX
  8
LAYER_1
 62
7
 10
12.432303
 20
26.781727
  0
VERTEX
  8
LAYER_1
 62
7
 10
12.490689
 20
26.662205
 42
0.041295
  0
VERTEX
  8
LAYER_1
 62
7
 10
12.619253
 20
26.429810
 42
0.047666
  0
VERTEX
  8
LAYER_1
 62
7
 10
13.036623
 20
25.930718
 42
0.005472
  0
VERTEX
  8
LAYER_1
 62
7
 10
13.387288
 20
25.589450
  0
VERTEX
  8
LAYER_1
 62
7
 10
13.504081
 20
25.475791
 42
-0.025754
  0
VERTEX
  8
LAYER_1
 62
7
 10
13.781063
 20
25.175733
 42
-0.048367
  0
VERTEX
  8
LAYER_1
 62
7
 10
14.023243
 20
24.821875
 42
-0.083096
  0
VERTEX
  8
LAYER_1
 62
7
 10
14.163358
 20
24.428031
 42
-0.119477
  0
VERTEX
  8
LAYER_1
 62
7
 10
14.134144
 20
24.008017
 42
-0.113827
  0
VERTEX
  8
LAYER_1
 62
7
 10
14.001323
 20
23.787749
 42
-0.085701
  0
VERTEX
  8
LAYER_1
 62
7
 10
13.791649
 20
23.634220
 42
-0.125140
  0
VERTEX
  8
LAYER_1
 62
7
 10
13.487900
 20
23.564411
 42
-0.110695
  0
VERTEX
  8
LAYER_1
 62
7
 10
13.185494
 20
23.636934
 42
-0.130837
  0
VERTEX
  8
LAYER_1
 62
7
 10
12.956809
 20
23.832319
 42
-0.162005
  0
VERTEX
  8
LAYER_1
 62
7
 10
12.874223
 20
24.131094
 42
-0.115151
  0
VERTEX
  8
LAYER_1
 62
7
 10
12.928787
 20
24.329684
 42
0.020851
  0
VERTEX
  8
LAYER_1
 62
7
 10
12.969264
 20
24.269116
 42
0.199588
  0
VERTEX
  8
LAYER_1
 62
7
 10
13.189535
 20
24.132760
 42
0.199588
  0
VERTEX
  8
LAYER_1
 62
7
 10
13.441710
 20
24.192095
 42
0.182678
  0
VERTEX
  8
LAYER_1
 62
7
 10
13.573786
 20
24.390601
 42
0.180142
  0
VERTEX
  8
LAYER_1
 62
7
 10
13.543569
 20
24.624480
 42
0.101022
  0
VERTEX
  8
LAYER_1
 62
7
 10
13.444966
 20
24.743744
 42
0.293230
  0
VERTEX
  8
LAYER_1
 62
7
 10
12.755426
 20
24.826923
 42
0.177964
  0
VERTEX
  8
LAYER_1
 62
7
 10
12.440567
 20
24.523451
 42
0.134817
  0
VERTEX
  8
LAYER_1
 62
7
 10
12.377148
 20
24.115604
 42
0.091135
  0
VERTEX
  8
LAYER_1
 62
7
 10
12.496161
 20
23.705499
 42
0.099306
  0
VERTEX
  8
LAYER_1
 62
7
 10
12.728597
 20
23.395251
  0
SEQEND
  0
POLYLINE
  8
LAYER_1
 62
7
 70
1
 66
1
  0
VERTEX
  8
LAYER_1
 62
7
 10
17.803382
 20
34.377811
  0
VERTEX
  8
LAYER_1
 62
7
 10
17.862514
 20
34.337410
 42
0.100955
  0
VERTEX
  8
LAYER_1
 62
7
 10
16.895369
 20
34.249153
 42
0.075066
  0
VERTEX
  8
LAYER_1
 62
7
 10
16.013150
 20
33.833536
 42
-0.005732
  0
VERTEX
  8
LAYER_1
 62
7
 10
15.656241
 20
33.614856
 42
-0.052758
  0
VERTEX
  8
LAYER_1
 62
7
 10
15.456907
 20
33.511937
 42
-0.036709
  0
VERTEX
  8
LAYER_1
 62
7
 10
15.204102
 20
33.432783
 42
-0.064420
  0
VERTEX
  8
LAYER_1
 62
7
 10
14.615788
 20
33.371798
 42
-0.040066
  0
VERTEX
  8
LAYER_1
 62
7
 10
14.319135
 20
33.402980
 42
-0.053251
  0
VERTEX
  8
LAYER_1
 62
7
 10
14.046722
 20
33.483954
 42
-0.073608
  0
VERTEX
  8
LAYER_1
 62
7
 10
13.817976
 20
33.621226
 42
-0.094524
  0
VERTEX
  8
LAYER_1
 62
7
 10
13.652326
 20
33.821303
  0
VERTEX
  8
LAYER_1
 62
7
 10
13.639758
 20
33.845666
 42
-0.176714
  0
VERTEX
  8
LAYER_1
 62
7
 10
13.593288
 20
34.334478
 42
-0.210710
  0
VERTEX
  8
LAYER_1
 62
7
 10
13.889088
 20
34.721385
 42
-0.121447
  0
VERTEX
  8
LAYER_1
 62
7
 10
14.198689
 20
34.799203
 42
-0.133093
  0
VERTEX
  8
LAYER_1
 62
7
 10
14.506817
 20
34.719907
 42
-0.099989
  0
VERTEX
  8
LAYER_1
 62
7
 10
14.637442
 20
34.601707
 42
-0.073929
  0
VERTEX
  8
LAYER_1
 62
7
 10
14.722377
 20
34.443412
 42
0.199588
  0
VERTEX
  8
LAYER_1
 62
7
 10
14.483849
 20
34.568039
 42
0.199588
  0
VERTEX
  8
LAYER_1
 62
7
 10
14.227058
 20
34.487502
 42
0.222774
  0
VERTEX
  8
LAYER_1
 62
7
 10
14.101037
 20
34.217578
 42
0.188818
  0
VERTEX
  8
LAYER_1
 62
7
 10
14.208842
 20
33.963730
 42
0.302244
  0
VERTEX
  8
LAYER_1
 62
7
 10
14.748764
 20
33.898599
 42
0.128461
  0
VERTEX
  8
LAYER_1
 62
7
 10
14.946128
 20
34.068005
 42
0.110283
  0
VERTEX
  8
LAYER_1
 62
7
 10
15.033312
 20
34.293093
 42
0.075913
  0
VERTEX
  8
LAYER_1
 62
7
 10
15.033283
 20
34.542499
 42
0.056661
  0
VERTEX
  8
LAYER_1
 62
7
 10
14.969012
 20
34.784856
  0
VERTEX
  8
LAYER_1
 62
7
 10
14.944280
 20
34.847552
  0
VERTEX
  8
LAYER_1
 62
7
 10
16.292122
 20
34.845201
 42
-0.024090
  0
VERTEX
  8
LAYER_1
 62
7
 10
16.410688
 20
34.840703
 42
-0.037333
  0
VERTEX
  8
LAYER_1
 62
7
 10
16.742510
 20
34.779963
 42
-0.037621
  0
VERTEX
  8
LAYER_1
 62
7
 10
17.523103
 20
34.519256
 42
-0.039888
  0
VERTEX
  8
LAYER_1
 62
7
 10
17.803382
 20
34.377811
  0
SEQEND
  0
POLYLINE
  8
LAYER_1
 62
7
 70
1
 66
1
  0
VERTEX
  8
LAYER_1
 62
7
 10
13.378198
 20
34.847552
  0
VERTEX
  8
LAYER_1
 62
7
 10
13.273926
 20
34.678239
 42
0.064128
  0
VERTEX
  8
LAYER_1
 62
7
 10
13.191694
 20
34.498054
 42
0.092953
  0
VERTEX
  8
LAYER_1
 62
7
 10
13.155549
 20
34.122206
 42
0.068696
  0
VERTEX
  8
LAYER_1
 62
7
 10
13.239887
 20
33.752822
 42
0.080327
  0
VERTEX
  8
LAYER_1
 62
7
 10
13.367080
 20
33.538157
 42
0.002350
  0
VERTEX
  8
LAYER_1
 62
7
 10
13.528655
 20
33.346119
 42
-0.117802
  0
VERTEX
  8
LAYER_1
 62
7
 10
12.803014
 20
33.788086
 42
-0.211769
  0
VERTEX
  8
LAYER_1
 62
7
 10
12.361439
 20
34.849511
  0
VERTEX
  8
LAYER_1
 62
7
 10
12.869818
 20
34.847503
  0
VERTEX
  8
LAYER_1
 62
7
 10
13.378198
 20
34.847552
  0
SEQEND
  0
POLYLINE
  8
LAYER_1
 62
7
 70
1
 66
1
  0
VERTEX
  8
LAYER_1
 62
7
 10
18.802085
 20
34.830312
 42
0.008051
  0
VERTEX
  8
LAYER_1
 62
7
 10
18.804436
 20
34.100362
  0
VERTEX
  8
LAYER_1
 62
7
 10
18.792371
 20
34.111104
 42
0.097373
  0
VERTEX
  8
LAYER_1
 62
7
 10
17.681104
 20
34.831488
 42
-0.006617
  0
VERTEX
  8
LAYER_1
 62
7
 10
18.241742
 20
34.831928
  0
VERTEX
  8
LAYER_1
 62
7
 10
18.521969
 20
34.829780
  0
VERTEX
  8
LAYER_1
 62
7
 10
18.802085
 20
34.830312
  0
SEQEND
  0
POLYLINE
  8
LAYER_1
 62
7
 70
1
 66
1
  0
VERTEX
  8
LAYER_1
 62
7
 10
19.056994
 20
33.096812
 42
-0.038285
  0
VERTEX
  8
LAYER_1
 62
7
 10
19.166865
 20
32.774070
 42
0.041490
  0
VERTEX
  8
LAYER_1
 62
7
 10
18.806004
 20
32.750120
 42
0.007902
  0
VERTEX
  8
LAYER_1
 62
7
 10
18.448669
 20
32.690613
 42
-0.016822
  0
VERTEX
  8
LAYER_1
 62
7
 10
18.409388
 20
32.771337
 42
0.100580
  0
VERTEX
  8
LAYER_1
 62
7
 10
18.076869
 20
33.232772
 42
0.085441
  0
VERTEX
  8
LAYER_1
 62
7
 10
17.606471
 20
33.535510
 42
0.070873
  0
VERTEX
  8
LAYER_1
 62
7
 10
17.055172
 20
33.683046
 42
0.065185
  0
VERTEX
  8
LAYER_1
 62
7
 10
16.479951
 20
33.678877
  0
VERTEX
  8
LAYER_1
 62
7
 10
16.452374
 20
33.674851
 42
-0.052087
  0
VERTEX
  8
LAYER_1
 62
7
 10
16.732747
 20
33.816975
 42
-0.043912
  0
VERTEX
  8
LAYER_1
 62
7
 10
17.152807
 20
33.930087
 42
-0.038125
  0
VERTEX
  8
LAYER_1
 62
7
 10
17.686720
 20
33.989577
 42
-0.061494
  0
VERTEX
  8
LAYER_1
 62
7
 10
18.164484
 20
33.953302
 42
-0.093183
  0
VERTEX
  8
LAYER_1
 62
7
 10
18.534671
 20
33.801547
 42
-0.090136
  0
VERTEX
  8
LAYER_1
 62
7
 10
18.823451
 20
33.520616
 42
-0.056591
  0
VERTEX
  8
LAYER_1
 62
7
 10
19.056994
 20
33.096812
  0
SEQEND
  0
POLYLINE
  8
LAYER_1
 62
7
 70
1
 66
1
  0
VERTEX
  8
LAYER_1
 62
7
 10
13.346069
 20
33.001322
 42
0.076787
  0
VERTEX
  8
LAYER_1
 62
7
 10
13.961512
 20
32.875550
 42
0.053643
  0
VERTEX
  8
LAYER_1
 62
7
 10
14.590472
 20
32.911989
 42
0.019763
  0
VERTEX
  8
LAYER_1
 62
7
 10
15.167288
 20
33.046922
 42
-0.003318
  0
VERTEX
  8
LAYER_1
 62
7
 10
15.739965
 20
33.200893
 42
-0.017631
  0
VERTEX
  8
LAYER_1
 62
7
 10
16.125728
 20
33.284359
 42
-0.034742
  0
VERTEX
  8
LAYER_1
 62
7
 10
16.617089
 20
33.338378
 42
-0.054392
  0
VERTEX
  8
LAYER_1
 62
7
 10
17.104204
 20
33.305995
 42
-0.079969
  0
VERTEX
  8
LAYER_1
 62
7
 10
17.553819
 20
33.149903
 42
-0.098155
  0
VERTEX
  8
LAYER_1
 62
7
 10
17.932681
 20
32.832793
  0
VERTEX
  8
LAYER_1
 62
7
 10
17.954591
 20
32.805415
  0
VERTEX
  8
LAYER_1
 62
7
 10
17.662665
 20
32.844612
 42
0.084489
  0
VERTEX
  8
LAYER_1
 62
7
 10
16.148968
 20
32.806512
 42
0.083830
  0
VERTEX
  8
LAYER_1
 62
7
 10
14.793522
 20
32.294046
  0
VERTEX
  8
LAYER_1
 62
7
 10
14.706057
 20
32.241202
  0
VERTEX
  8
LAYER_1
 62
7
 10
14.612249
 20
32.185331
  0
VERTEX
  8
LAYER_1
 62
7
 10
14.508327
 20
32.193444
 42
-0.020305
  0
VERTEX
  8
LAYER_1
 62
7
 10
14.061092
 20
32.245274
 42
-0.030928
  0
VERTEX
  8
LAYER_1
 62
7
 10
13.619846
 20
32.342703
 42
-0.043084
  0
VERTEX
  8
LAYER_1
 62
7
 10
13.200725
 20
32.502823
 42
-0.055224
  0
VERTEX
  8
LAYER_1
 62
7
 10
12.819862
 20
32.742725
 42
-0.191196
  0
VERTEX
  8
LAYER_1
 62
7
 10
12.263877
 20
33.661138
  0
VERTEX
  8
LAYER_1
 62
7
 10
12.518979
 20
33.471040
 42
0.013502
  0
VERTEX
  8
LAYER_1
 62
7
 10
12.780142
 20
33.288767
 42
0.062047
  0
VERTEX
  8
LAYER_1
 62
7
 10
13.346069
 20
33.001322
  0
SEQEND
  0
POLYLINE
  8
LAYER_1
 62
7
 70
1
 66
1
  0
VERTEX
  8
LAYER_1
 62
7
 10
13.989428
 20
31.966540
 42
0.072673
  0
VERTEX
  8
LAYER_1
 62
7
 10
13.108140
 20
31.674736
 42
0.086361
  0
VERTEX
  8
LAYER_1
 62
7
 10
12.362615
 20
31.124923
 42
-0.005532
  0
VERTEX
  8
LAYER_1
 62
7
 10
12.361439
 20
32.718432
 42
0.074454
  0
VERTEX
  8
LAYER_1
 62
7
 10
13.116013
 20
32.216649
 42
0.074454
  0
VERTEX
  8
LAYER_1
 62
7
 10
13.987201
 20
31.967251
  0
VERTEX
  8
LAYER_1
 62
7
 10
13.989428
 20
31.966540
  0
SEQEND
  0
POLYLINE
  8
LAYER_1
 62
7
 70
1
 66
1
  0
VERTEX
  8
LAYER_1
 62
7
 10
18.027425
 20
32.507331
  0
VERTEX
  8
LAYER_1
 62
7
 10
18.186127
 20
32.475484
  0
VERTEX
  8
LAYER_1
 62
7
 10
18.040127
 20
32.458494
 42
0.052000
  0
VERTEX
  8
LAYER_1
 62
7
 10
17.709147
 20
32.381325
 42
0.023748
  0
VERTEX
  8
LAYER_1
 62
7
 10
17.392729
 20
32.254916
 42
0.116420
  0
VERTEX
  8
LAYER_1
 62
7
 10
16.127952
 20
31.275771
 42
0.044616
  0
VERTEX
  8
LAYER_1
 62
7
 10
15.489245
 20
31.685413
 42
0.054625
  0
VERTEX
  8
LAYER_1
 62
7
 10
14.783244
 20
31.961055
 42
-0.017749
  0
VERTEX
  8
LAYER_1
 62
7
 10
15.000327
 20
32.085562
 42
-0.046568
  0
VERTEX
  8
LAYER_1
 62
7
 10
15.693977
 20
32.369097
 42
-0.039552
  0
VERTEX
  8
LAYER_1
 62
7
 10
16.452013
 20
32.536823
 42
-0.037936
  0
VERTEX
  8
LAYER_1
 62
7
 10
17.227647
 20
32.586905
 42
-0.041609
  0
VERTEX
  8
LAYER_1
 62
7
 10
17.974089
 20
32.517509
  0
VERTEX
  8
LAYER_1
 62
7
 10
18.027425
 20
32.507331
  0
SEQEND
  0
POLYLINE
  8
LAYER_1
 62
7
 70
1
 66
1
  0
VERTEX
  8
LAYER_1
 62
7
 10
19.223286
 20
32.176161
 42
-0.039106
  0
VERTEX
  8
LAYER_1
 62
7
 10
19.068960
 20
32.025214
 42
0.025119
  0
VERTEX
  8
LAYER_1
 62
7
 10
18.910226
 20
31.878382
 42
0.066739
  0
VERTEX
  8
LAYER_1
 62
7
 10
18.388819
 20
31.228166
 42
0.087880
  0
VERTEX
  8
LAYER_1
 62
7
 10
18.088983
 20
30.453353
 42
0.027616
  0
VERTEX
  8
LAYER_1
 62
7
 10
17.969331
 20
30.530604
 42
0.106649
  0
VERTEX
  8
LAYER_1
 62
7
 10
17.542568
 20
30.665258
 42
0.093003
  0
VERTEX
  8
LAYER_1
 62
7
 10
17.108698
 20
30.623473
 42
0.159580
  0
VERTEX
  8
LAYER_1
 62
7
 10
16.386431
 20
30.129473
 42
0.145803
  0
VERTEX
  8
LAYER_1
 62
7
 10
16.100525
 20
29.366459
 42
-0.041538
  0
VERTEX
  8
LAYER_1
 62
7
 10
16.102190
 20
29.599981
  0
VERTEX
  8
LAYER_1
 62
7
 10
16.125601
 20
29.832327
 42
-0.064050
  0
VERTEX
  8
LAYER_1
 62
7
 10
16.239766
 20
30.485873
 42
-0.095479
  0
VERTEX
  8
LAYER_1
 62
7
 10
16.549936
 20
31.068893
 42
-0.102297
  0
VERTEX
  8
LAYER_1
 62
7
 10
17.457721
 20
31.850465
 42
-0.114649
  0
VERTEX
  8
LAYER_1
 62
7
 10
18.605003
 20
32.184781
  0
VERTEX
  8
LAYER_1
 62
7
 10
18.914291
 20
32.183850
 42
-0.017004
  0
VERTEX
  8
LAYER_1
 62
7
 10
19.223286
 20
32.176161
  0
SEQEND
  0
POLYLINE
  8
LAYER_1
 62
7
 70
1
 66
1
  0
VERTEX
  8
LAYER_1
 62
7
 10
19.445837
 20
31.938330
 42
0.031337
  0
VERTEX
  8
LAYER_1
 62
7
 10
19.109513
 20
31.102981
 42
0.049637
  0
VERTEX
  8
LAYER_1
 62
7
 10
18.912185
 20
30.225317
  0
VERTEX
  8
LAYER_1
 62
7
 10
18.822815
 20
30.256735
 42
-0.028861
  0
VERTEX
  8
LAYER_1
 62
7
 10
18.731461
 20
30.291240
 42
-0.084236
  0
VERTEX
  8
LAYER_1
 62
7
 10
18.653771
 20
30.342347
 42
-0.134420
  0
VERTEX
  8
LAYER_1
 62
7
 10
18.605395
 20
30.423575
 42
-0.105527
  0
VERTEX
  8
LAYER_1
 62
7
 10
18.610880
 20
30.793350
 42
-0.058419
  0
VERTEX
  8
LAYER_1
 62
7
 10
18.735085
 20
31.144905
 42
-0.056132
  0
VERTEX
  8
LAYER_1
 62
7
 10
19.024489
 20
31.604210
 42
-0.049533
  0
VERTEX
  8
LAYER_1
 62
7
 10
19.215603
 20
31.795293
 42
-0.064740
  0
VERTEX
  8
LAYER_1
 62
7
 10
19.445837
 20
31.938330
  0
SEQEND
  0
POLYLINE
  8
LAYER_1
 62
7
 70
1
 66
1
  0
VERTEX
  8
LAYER_1
 62
7
 10
15.861518
 20
30.728798
 42
-0.012727
  0
VERTEX
  8
LAYER_1
 62
7
 10
15.795840
 20
30.340608
 42
0.066506
  0
VERTEX
  8
LAYER_1
 62
7
 10
15.772184
 20
29.948304
  0
VERTEX
  8
LAYER_1
 62
7
 10
15.716938
 20
29.995322
 42
0.052332
  0
VERTEX
  8
LAYER_1
 62
7
 10
15.466912
 20
30.371219
 42
0.063466
  0
VERTEX
  8
LAYER_1
 62
7
 10
15.137837
 20
30.679822
 42
0.162696
  0
VERTEX
  8
LAYER_1
 62
7
 10
14.154284
 20
30.983625
 42
0.087167
  0
VERTEX
  8
LAYER_1
 62
7
 10
13.645427
 20
30.885506
 42
0.102581
  0
VERTEX
  8
LAYER_1
 62
7
 10
13.207758
 20
30.605377
 42
0.163613
  0
VERTEX
  8
LAYER_1
 62
7
 10
12.889213
 20
30.022553
 42
0.089485
  0
VERTEX
  8
LAYER_1
 62
7
 10
12.888185
 20
29.688862
 42
0.106127
  0
VERTEX
  8
LAYER_1
 62
7
 10
13.014986
 20
29.378606
 42
0.125136
  0
VERTEX
  8
LAYER_1
 62
7
 10
13.183135
 20
29.224678
 42
0.104981
  0
VERTEX
  8
LAYER_1
 62
7
 10
13.403078
 20
29.159826
 42
0.108553
  0
VERTEX
  8
LAYER_1
 62
7
 10
13.628898
 20
29.189672
 42
0.132930
  0
VERTEX
  8
LAYER_1
 62
7
 10
13.814679
 20
29.319834
 42
0.236116
  0
VERTEX
  8
LAYER_1
 62
7
 10
13.879867
 20
29.617025
 42
0.233928
  0
VERTEX
  8
LAYER_1
 62
7
 10
13.693217
 20
29.856619
 42
0.126567
  0
VERTEX
  8
LAYER_1
 62
7
 10
13.513717
 20
29.884781
 42
0.011107
  0
VERTEX
  8
LAYER_1
 62
7
 10
13.375701
 20
29.870049
  0
VERTEX
  8
LAYER_1
 62
7
 10
13.330396
 20
29.865631
 42
-0.043549
  0
VERTEX
  8
LAYER_1
 62
7
 10
13.346058
 20
29.938992
 42
-0.175647
  0
VERTEX
  8
LAYER_1
 62
7
 10
13.530181
 20
30.186732
 42
-0.172268
  0
VERTEX
  8
LAYER_1
 62
7
 10
13.825264
 20
30.260399
 42
-0.202385
  0
VERTEX
  8
LAYER_1
 62
7
 10
14.223516
 20
30.050424
 42
-0.167632
  0
VERTEX
  8
LAYER_1
 62
7
 10
14.375196
 20
29.621872
 42
-0.085355
  0
VERTEX
  8
LAYER_1
 62
7
 10
14.336576
 20
29.362541
 42
-0.248775
  0
VERTEX
  8
LAYER_1
 62
7
 10
13.623474
 20
28.634550
 42
0.064167
  0
VERTEX
  8
LAYER_1
 62
7
 10
13.786811
 20
28.146692
 42
0.034226
  0
VERTEX
  8
LAYER_1
 62
7
 10
14.042715
 20
27.698505
 42
0.049283
  0
VERTEX
  8
LAYER_1
 62
7
 10
14.504131
 20
27.157166
 42
0.041938
  0
VERTEX
  8
LAYER_1
 62
7
 10
15.054981
 20
26.709570
 42
0.034992
  0
VERTEX
  8
LAYER_1
 62
7
 10
15.670346
 20
26.349971
 42
0.029411
  0
VERTEX
  8
LAYER_1
 62
7
 10
16.325305
 20
26.072624
  0
VERTEX
  8
LAYER_1
 62
7
 10
16.497287
 20
26.011171
  0
VERTEX
  8
LAYER_1
 62
7
 10
16.395363
 20
26.001686
 42
0.109054
  0
VERTEX
  8
LAYER_1
 62
7
 10
16.114826
 20
25.907804
 42
0.060969
  0
VERTEX
  8
LAYER_1
 62
7
 10
15.879150
 20
25.724544
 42
-0.051542
  0
VERTEX
  8
LAYER_1
 62
7
 10
14.762870
 20
26.212696
 42
-0.047060
  0
VERTEX
  8
LAYER_1
 62
7
 10
13.762960
 20
26.909783
 42
-0.078487
  0
VERTEX
  8
LAYER_1
 62
7
 10
12.903417
 20
27.904551
 42
-0.089487
  0
VERTEX
  8
LAYER_1
 62
7
 10
12.417077
 20
29.123534
 42
-0.058523
  0
VERTEX
  8
LAYER_1
 62
7
 10
12.358459
 20
29.742182
 42
-0.070439
  0
VERTEX
  8
LAYER_1
 62
7
 10
12.457670
 20
30.354685
 42
-0.078389
  0
VERTEX
  8
LAYER_1
 62
7
 10
12.699944
 20
30.847098
 42
-0.081343
  0
VERTEX
  8
LAYER_1
 62
7
 10
13.060242
 20
31.210957
 42
-0.073664
  0
VERTEX
  8
LAYER_1
 62
7
 10
13.518839
 20
31.448275
 42
-0.061511
  0
VERTEX
  8
LAYER_1
 62
7
 10
14.056008
 20
31.561069
 42
-0.122651
  0
VERTEX
  8
LAYER_1
 62
7
 10
14.991120
 20
31.418315
 42
-0.119762
  0
VERTEX
  8
LAYER_1
 62
7
 10
15.783901
 20
30.826782
 42
-0.014974
  0
VERTEX
  8
LAYER_1
 62
7
 10
15.861518
 20
30.728798
  0
SEQEND
  0
POLYLINE
  8
LAYER_1
 62
7
 70
1
 66
1
  0
VERTEX
  8
LAYER_1
 62
7
 10
14.411804
 20
30.664149
 42
-0.101771
  0
VERTEX
  8
LAYER_1
 62
7
 10
14.860383
 20
30.396736
 42
-0.057324
  0
VERTEX
  8
LAYER_1
 62
7
 10
15.206404
 20
30.001199
 42
-0.024666
  0
VERTEX
  8
LAYER_1
 62
7
 10
15.442374
 20
29.543994
  0
VERTEX
  8
LAYER_1
 62
7
 10
15.654542
 20
29.073529
 42
0.021051
  0
VERTEX
  8
LAYER_1
 62
7
 10
15.883900
 20
28.612982
 42
0.043785
  0
VERTEX
  8
LAYER_1
 62
7
 10
16.171443
 20
28.185531
 42
0.082382
  0
VERTEX
  8
LAYER_1
 62
7
 10
16.747019
 20
27.612943
 42
0.069918
  0
VERTEX
  8
LAYER_1
 62
7
 10
17.468349
 20
27.236948
  0
VERTEX
  8
LAYER_1
 62
7
 10
17.468741
 20
27.171123
 42
-0.015766
  0
VERTEX
  8
LAYER_1
 62
7
 10
17.232200
 20
27.135220
 42
-0.045953
  0
VERTEX
  8
LAYER_1
 62
7
 10
16.993890
 20
27.128556
 42
-0.068795
  0
VERTEX
  8
LAYER_1
 62
7
 10
16.642522
 20
27.205643
 42
-0.054391
  0
VERTEX
  8
LAYER_1
 62
7
 10
16.310668
 20
27.371166
 42
-0.041486
  0
VERTEX
  8
LAYER_1
 62
7
 10
16.002663
 20
27.606926
 42
-0.032195
  0
VERTEX
  8
LAYER_1
 62
7
 10
15.722840
 20
27.894722
 42
-0.048848
  0
VERTEX
  8
LAYER_1
 62
7
 10
15.265084
 20
28.553621
 42
-0.046407
  0
VERTEX
  8
LAYER_1
 62
7
 10
14.972079
 20
29.202260
  0
VERTEX
  8
LAYER_1
 62
7
 10
14.945847
 20
29.283003
  0
VERTEX
  8
LAYER_1
 62
7
 10
14.851800
 20
29.570883
 42
0.016076
  0
VERTEX
  8
LAYER_1
 62
7
 10
14.749450
 20
29.857550
 42
0.035391
  0
VERTEX
  8
LAYER_1
 62
7
 10
14.619331
 20
30.130038
 42
0.054399
  0
VERTEX
  8
LAYER_1
 62
7
 10
14.441974
 20
30.375382
 42
0.087882
  0
VERTEX
  8
LAYER_1
 62
7
 10
14.217856
 20
30.546556
 42
-0.024728
  0
VERTEX
  8
LAYER_1
 62
7
 10
13.972580
 20
30.689225
 42
-0.007899
  0
VERTEX
  8
LAYER_1
 62
7
 10
14.194396
 20
30.698286
 42
-0.091252
  0
VERTEX
  8
LAYER_1
 62
7
 10
14.411804
 20
30.664149
  0
SEQEND
  0
POLYLINE
  8
LAYER_1
 62
7
 70
1
 66
1
  0
VERTEX
  8
LAYER_1
 62
7
 10
18.192785
 20
29.443300
 42
0.204199
  0
VERTEX
  8
LAYER_1
 62
7
 10
18.342487
 20
29.770812
 42
0.128159
  0
VERTEX
  8
LAYER_1
 62
7
 10
19.028554
 20
29.600764
 42
0.109364
  0
VERTEX
  8
LAYER_1
 62
7
 10
19.272655
 20
29.264588
 42
0.096461
  0
VERTEX
  8
LAYER_1
 62
7
 10
18.871045
 20
28.689943
 42
0.100519
  0
VERTEX
  8
LAYER_1
 62
7
 10
18.717454
 20
28.006863
  0
VERTEX
  8
LAYER_1
 62
7
 10
18.604023
 20
28.175490
 42
0.044454
  0
VERTEX
  8
LAYER_1
 62
7
 10
18.476488
 20
28.333245
 42
0.109800
  0
VERTEX
  8
LAYER_1
 62
7
 10
17.956452
 20
28.677111
 42
0.090789
  0
VERTEX
  8
LAYER_1
 62
7
 10
17.341793
 20
28.794410
 42
0.075696
  0
VERTEX
  8
LAYER_1
 62
7
 10
17.446505
 20
28.304740
 42
0.135358
  0
VERTEX
  8
LAYER_1
 62
7
 10
17.736350
 20
27.903816
 42
0.054229
  0
VERTEX
  8
LAYER_1
 62
7
 10
17.930157
 20
27.793753
 42
0.024134
  0
VERTEX
  8
LAYER_1
 62
7
 10
18.138988
 20
27.715353
  0
VERTEX
  8
LAYER_1
 62
7
 10
18.351419
 20
27.644300
 42
-0.036037
  0
VERTEX
  8
LAYER_1
 62
7
 10
18.556026
 20
27.556277
 42
-0.112829
  0
VERTEX
  8
LAYER_1
 62
7
 10
18.725290
 20
27.401902
 42
-0.037187
  0
VERTEX
  8
LAYER_1
 62
7
 10
18.842834
 20
27.202860
 42
0.081366
  0
VERTEX
  8
LAYER_1
 62
7
 10
18.512730
 20
27.395780
 42
0.127188
  0
VERTEX
  8
LAYER_1
 62
7
 10
18.135609
 20
27.439124
 42
-0.089178
  0
VERTEX
  8
LAYER_1
 62
7
 10
17.660242
 20
27.466084
 42
-0.078332
  0
VERTEX
  8
LAYER_1
 62
7
 10
17.223675
 20
27.646289
 42
-0.144197
  0
VERTEX
  8
LAYER_1
 62
7
 10
16.590408
 20
28.342145
 42
-0.082776
  0
VERTEX
  8
LAYER_1
 62
7
 10
16.444420
 20
28.837969
 42
-0.090974
  0
VERTEX
  8
LAYER_1
 62
7
 10
16.474214
 20
29.330512
 42
-0.144704
  0
VERTEX
  8
LAYER_1
 62
7
 10
16.868947
 20
29.979507
 42
-0.092744
  0
VERTEX
  8
LAYER_1
 62
7
 10
17.194536
 20
30.182297
 42
-0.121405
  0
VERTEX
  8
LAYER_1
 62
7
 10
17.573552
 20
30.230780
 42
-0.173573
  0
VERTEX
  8
LAYER_1
 62
7
 10
17.908458
 20
30.072031
 42
-0.096126
  0
VERTEX
  8
LAYER_1
 62
7
 10
18.025993
 20
29.894892
 42
0.199588
  0
VERTEX
  8
LAYER_1
 62
7
 10
17.800495
 20
29.952613
 42
0.199588
  0
VERTEX
  8
LAYER_1
 62
7
 10
17.600228
 20
29.833979
 42
0.175703
  0
VERTEX
  8
LAYER_1
 62
7
 10
17.539805
 20
29.636518
 42
0.172330
  0
VERTEX
  8
LAYER_1
 62
7
 10
17.617216
 20
29.448344
 42
0.099879
  0
VERTEX
  8
LAYER_1
 62
7
 10
17.720169
 20
29.376192
 42
0.083252
  0
VERTEX
  8
LAYER_1
 62
7
 10
17.866271
 20
29.337159
 42
0.213873
  0
VERTEX
  8
LAYER_1
 62
7
 10
18.192785
 20
29.443300
  0
SEQEND
  0
POLYLINE
  8
LAYER_1
 62
7
 70
1
 66
1
  0
VERTEX
  8
LAYER_1
 62
7
 10
14.726109
 20
29.041413
  0
VERTEX
  8
LAYER_1
 62
7
 10
14.758144
 20
28.933125
  0
VERTEX
  8
LAYER_1
 62
7
 10
14.765203
 20
28.909626
 42
0.059722
  0
VERTEX
  8
LAYER_1
 62
7
 10
15.078693
 20
28.215561
 42
0.058329
  0
VERTEX
  8
LAYER_1
 62
7
 10
15.579740
 20
27.560469
 42
0.077107
  0
VERTEX
  8
LAYER_1
 62
7
 10
16.224765
 20
27.066389
 42
0.051663
  0
VERTEX
  8
LAYER_1
 62
7
 10
16.587651
 20
26.917867
 42
0.061370
  0
VERTEX
  8
LAYER_1
 62
7
 10
16.970190
 20
26.855363
 42
0.008954
  0
VERTEX
  8
LAYER_1
 62
7
 10
17.231328
 20
26.855446
  0
VERTEX
  8
LAYER_1
 62
7
 10
17.318284
 20
26.855320
 42
0.199588
  0
VERTEX
  8
LAYER_1
 62
7
 10
17.329564
 20
26.421946
 42
0.199588
  0
VERTEX
  8
LAYER_1
 62
7
 10
17.643979
 20
26.123477
 42
0.080111
  0
VERTEX
  8
LAYER_1
 62
7
 10
17.823627
 20
26.085456
 42
0.155130
  0
VERTEX
  8
LAYER_1
 62
7
 10
18.182776
 20
26.194721
 42
0.110681
  0
VERTEX
  8
LAYER_1
 62
7
 10
18.314318
 20
26.332339
 42
0.160854
  0
VERTEX
  8
LAYER_1
 62
7
 10
18.353994
 20
26.515667
 42
0.114462
  0
VERTEX
  8
LAYER_1
 62
7
 10
18.306761
 20
26.652693
 42
0.199588
  0
VERTEX
  8
LAYER_1
 62
7
 10
18.106124
 20
26.795828
 42
0.199588
  0
VERTEX
  8
LAYER_1
 62
7
 10
17.863041
 20
26.755170
 42
0.151338
  0
VERTEX
  8
LAYER_1
 62
7
 10
17.742106
 20
26.618780
  0
VERTEX
  8
LAYER_1
 62
7
 10
17.738309
 20
26.613571
 42
-0.187154
  0
VERTEX
  8
LAYER_1
 62
7
 10
17.716026
 20
26.799712
 42
-0.175257
  0
VERTEX
  8
LAYER_1
 62
7
 10
17.866457
 20
27.025750
 42
-0.124150
  0
VERTEX
  8
LAYER_1
 62
7
 10
18.125318
 20
27.130937
 42
-0.109437
  0
VERTEX
  8
LAYER_1
 62
7
 10
18.411364
 20
27.112596
 42
-0.144823
  0
VERTEX
  8
LAYER_1
 62
7
 10
18.643352
 20
26.968050
 42
-0.050474
  0
VERTEX
  8
LAYER_1
 62
7
 10
18.691986
 20
26.897636
 42
-0.098177
  0
VERTEX
  8
LAYER_1
 62
7
 10
18.775809
 20
26.672153
 42
-0.033996
  0
VERTEX
  8
LAYER_1
 62
7
 10
18.797188
 20
26.432014
 42
0.029660
  0
VERTEX
  8
LAYER_1
 62
7
 10
18.816509
 20
26.191654
 42
0.094828
  0
VERTEX
  8
LAYER_1
 62
7
 10
18.894162
 20
25.965510
 42
0.070267
  0
VERTEX
  8
LAYER_1
 62
7
 10
19.013224
 20
25.804964
 42
0.018048
  0
VERTEX
  8
LAYER_1
 62
7
 10
19.159028
 20
25.667339
 42
0.062498
  0
VERTEX
  8
LAYER_1
 62
7
 10
18.515767
 20
25.403795
 42
0.037020
  0
VERTEX
  8
LAYER_1
 62
7
 10
17.935392
 20
25.017711
 42
0.038139
  0
VERTEX
  8
LAYER_1
 62
7
 10
17.933237
 20
25.329742
 42
0.109301
  0
VERTEX
  8
LAYER_1
 62
7
 10
17.841748
 20
25.625023
 42
0.079267
  0
VERTEX
  8
LAYER_1
 62
7
 10
17.687686
 20
25.849006
 42
0.057863
  0
VERTEX
  8
LAYER_1
 62
7
 10
17.480250
 20
26.020756
 42
0.035301
  0
VERTEX
  8
LAYER_1
 62
7
 10
17.241005
 20
26.153422
 42
0.016205
  0
VERTEX
  8
LAYER_1
 62
7
 10
16.991511
 20
26.260154
  0
VERTEX
  8
LAYER_1
 62
7
 10
16.752450
 20
26.349401
  0
VERTEX
  8
LAYER_1
 62
7
 10
16.511673
 20
26.436801
 42
-0.009755
  0
VERTEX
  8
LAYER_1
 62
7
 10
16.032349
 20
26.618958
 42
-0.024285
  0
VERTEX
  8
LAYER_1
 62
7
 10
15.568306
 20
26.832412
 42
-0.038709
  0
VERTEX
  8
LAYER_1
 62
7
 10
15.134310
 20
27.102947
 42
-0.053516
  0
VERTEX
  8
LAYER_1
 62
7
 10
14.565133
 20
27.633124
 42
-0.061088
  0
VERTEX
  8
LAYER_1
 62
7
 10
14.130961
 20
28.277708
  0
VERTEX
  8
LAYER_1
 62
7
 10
14.064627
 20
28.409041
  0
VERTEX
  8
LAYER_1
 62
7
 10
14.171520
 20
28.479306
  0
VERTEX
  8
LAYER_1
 62
7
 10
14.234486
 20
28.518323
 42
0.054678
  0
VERTEX
  8
LAYER_1
 62
7
 10
14.287599
 20
28.558146
 42
0.067118
  0
VERTEX
  8
LAYER_1
 62
7
 10
14.496992
 20
28.738955
 42
0.031113
  0
VERTEX
  8
LAYER_1
 62
7
 10
14.667413
 20
28.957683
  0
VERTEX
  8
LAYER_1
 62
7
 10
14.726109
 20
29.041413
  0
SEQEND
  0
POLYLINE
  8
LAYER_1
 62
7
 70
1
 66
1
  0
VERTEX
  8
LAYER_1
 62
7
 10
12.602797
 20
27.673821
 42
0.026138
  0
VERTEX
  8
LAYER_1
 62
7
 10
13.221227
 20
26.920288
 42
0.031184
  0
VERTEX
  8
LAYER_1
 62
7
 10
13.922526
 20
26.241249
 42
0.037168
  0
VERTEX
  8
LAYER_1
 62
7
 10
14.707134
 20
25.665796
 42
0.043423
  0
VERTEX
  8
LAYER_1
 62
7
 10
15.575493
 20
25.223021
 42
0.095446
  0
VERTEX
  8
LAYER_1
 62
7
 10
14.987135
 20
25.026086
 42
0.102695
  0
VERTEX
  8
LAYER_1
 62
7
 10
14.519553
 20
24.619627
 42
0.011801
  0
VERTEX
  8
LAYER_1
 62
7
 10
14.403870
 20
24.887089
 42
0.032226
  0
VERTEX
  8
LAYER_1
 62
7
 10
14.265266
 20
25.143091
 42
0.044244
  0
VERTEX
  8
LAYER_1
 62
7
 10
13.946794
 20
25.572759
 42
0.016819
  0
VERTEX
  8
LAYER_1
 62
7
 10
13.577925
 20
25.960661
 42
-0.010515
  0
VERTEX
  8
LAYER_1
 62
7
 10
13.203620
 20
26.344523
 42
-0.037952
  0
VERTEX
  8
LAYER_1
 62
7
 10
12.868839
 20
26.762069
 42
-0.047930
  0
VERTEX
  8
LAYER_1
 62
7
 10
12.554261
 20
27.340191
 42
-0.059168
  0
VERTEX
  8
LAYER_1
 62
7
 10
12.369275
 20
27.971208
 42
-0.031034
  0
VERTEX
  8
LAYER_1
 62
7
 10
12.491913
 20
27.827069
  0
VERTEX
  8
LAYER_1
 62
7
 10
12.602797
 20
27.673821
  0
SEQEND
  0
POLYLINE
  8
LAYER_1
 62
7
 70
1
 66
1
  0
VERTEX
  8
LAYER_1
 62
7
 10
17.072616
 20
25.802515
 42
-0.158443
  0
VERTEX
  8
LAYER_1
 62
7
 10
17.420695
 20
25.500671
 42
-0.088482
  0
VERTEX
  8
LAYER_1
 62
7
 10
17.504757
 20
25.284640
 42
-0.106296
  0
VERTEX
  8
LAYER_1
 62
7
 10
17.500478
 20
25.052190
 42
-0.142084
  0
VERTEX
  8
LAYER_1
 62
7
 10
17.399650
 20
24.868814
 42
-0.115174
  0
VERTEX
  8
LAYER_1
 62
7
 10
17.221181
 20
24.756538
 42
-0.122694
  0
VERTEX
  8
LAYER_1
 62
7
 10
17.014415
 20
24.736036
 42
-0.157254
  0
VERTEX
  8
LAYER_1
 62
7
 10
16.828697
 20
24.827977
 42
0.199588
  0
VERTEX
  8
LAYER_1
 62
7
 10
17.026083
 20
24.892090
 42
0.199588
  0
VERTEX
  8
LAYER_1
 62
7
 10
17.120323
 20
25.076997
 42
0.185038
  0
VERTEX
  8
LAYER_1
 62
7
 10
17.066207
 20
25.262824
 42
0.185038
  0
VERTEX
  8
LAYER_1
 62
7
 10
16.901531
 20
25.364520
 42
0.281108
  0
VERTEX
  8
LAYER_1
 62
7
 10
16.473748
 20
25.184459
 42
0.129681
  0
VERTEX
  8
LAYER_1
 62
7
 10
16.399472
 20
24.982613
 42
0.147742
  0
VERTEX
  8
LAYER_1
 62
7
 10
16.462242
 20
24.626635
 42
0.139759
  0
VERTEX
  8
LAYER_1
 62
7
 10
16.689542
 20
24.390920
 42
0.153082
  0
VERTEX
  8
LAYER_1
 62
7
 10
17.137923
 20
24.280711
 42
0.056222
  0
VERTEX
  8
LAYER_1
 62
7
 10
17.361718
 20
24.320154
 42
0.039283
  0
VERTEX
  8
LAYER_1
 62
7
 10
17.581525
 20
24.404072
 42
0.039695
  0
VERTEX
  8
LAYER_1
 62
7
 10
17.998012
 20
24.649655
  0
VERTEX
  8
LAYER_1
 62
7
 10
18.189107
 20
24.783484
 42
-0.006340
  0
VERTEX
  8
LAYER_1
 62
7
 10
18.365048
 20
24.906113
  0
VERTEX
  8
LAYER_1
 62
7
 10
18.581494
 20
25.051015
  0
VERTEX
  8
LAYER_1
 62
7
 10
18.675138
 20
25.054541
 42
-0.044555
  0
VERTEX
  8
LAYER_1
 62
7
 10
18.925150
 20
24.874198
 42
-0.066224
  0
VERTEX
  8
LAYER_1
 62
7
 10
19.176922
 20
24.595783
 42
-0.078287
  0
VERTEX
  8
LAYER_1
 62
7
 10
19.313855
 20
24.303386
 42
-0.060436
  0
VERTEX
  8
LAYER_1
 62
7
 10
19.363227
 20
23.980514
 42
-0.030446
  0
VERTEX
  8
LAYER_1
 62
7
 10
19.352317
 20
23.610673
  0
VERTEX
  8
LAYER_1
 62
7
 10
19.346708
 20
23.528424
  0
VERTEX
  8
LAYER_1
 62
7
 10
19.272263
 20
23.461815
  0
VERTEX
  8
LAYER_1
 62
7
 10
19.273406
 20
23.549178
 42
0.051415
  0
VERTEX
  8
LAYER_1
 62
7
 10
19.235720
 20
23.859068
 42
0.063884
  0
VERTEX
  8
LAYER_1
 62
7
 10
19.127298
 20
24.160541
 42
0.096383
  0
VERTEX
  8
LAYER_1
 62
7
 10
18.940176
 20
24.402136
 42
0.134220
  0
VERTEX
  8
LAYER_1
 62
7
 10
18.666388
 20
24.532390
 42
0.116106
  0
VERTEX
  8
LAYER_1
 62
7
 10
18.361964
 20
24.511533
 42
0.070927
  0
VERTEX
  8
LAYER_1
 62
7
 10
18.220430
 20
24.445980
 42
0.097275
  0
VERTEX
  8
LAYER_1
 62
7
 10
18.112473
 20
24.341984
 42
0.188359
  0
VERTEX
  8
LAYER_1
 62
7
 10
18.059468
 20
24.094045
 42
0.226376
  0
VERTEX
  8
LAYER_1
 62
7
 10
18.196516
 20
23.883537
 42
0.198122
  0
VERTEX
  8
LAYER_1
 62
7
 10
18.401925
 20
23.854530
 42
0.199588
  0
VERTEX
  8
LAYER_1
 62
7
 10
18.569181
 20
23.979654
 42
0.199588
  0
VERTEX
  8
LAYER_1
 62
7
 10
18.598974
 20
24.186396
 42
0.105688
  0
VERTEX
  8
LAYER_1
 62
7
 10
18.551716
 20
24.284234
 42
-0.212418
  0
VERTEX
  8
LAYER_1
 62
7
 10
18.846899
 20
24.136961
 42
-0.131593
  0
VERTEX
  8
LAYER_1
 62
7
 10
18.990156
 20
23.831296
 42
-0.054218
  0
VERTEX
  8
LAYER_1
 62
7
 10
18.994026
 20
23.464803
 42
-0.076389
  0
VERTEX
  8
LAYER_1
 62
7
 10
18.903565
 20
23.110358
 42
0.048326
  0
VERTEX
  8
LAYER_1
 62
7
 10
18.746546
 20
23.382424
 42
0.107413
  0
VERTEX
  8
LAYER_1
 62
7
 10
18.516061
 20
23.591898
 42
0.167062
  0
VERTEX
  8
LAYER_1
 62
7
 10
18.015126
 20
23.725947
 42
0.120875
  0
VERTEX
  8
LAYER_1
 62
7
 10
17.513016
 20
23.571132
 42
0.143998
  0
VERTEX
  8
LAYER_1
 62
7
 10
16.847715
 20
24.120064
 42
0.090209
  0
VERTEX
  8
LAYER_1
 62
7
 10
16.374844
 20
24.234180
 42
0.057617
  0
VERTEX
  8
LAYER_1
 62
7
 10
15.886986
 20
24.206655
 42
0.127334
  0
VERTEX
  8
LAYER_1
 62
7
 10
15.336535
 20
23.956236
 42
0.118140
  0
VERTEX
  8
LAYER_1
 62
7
 10
14.963871
 20
23.478663
 42
0.094593
  0
VERTEX
  8
LAYER_1
 62
7
 10
14.865819
 20
23.063438
 42
0.044273
  0
VERTEX
  8
LAYER_1
 62
7
 10
14.884724
 20
22.634695
 42
-0.128992
  0
VERTEX
  8
LAYER_1
 62
7
 10
14.558931
 20
23.234171
 42
-0.123067
  0
VERTEX
  8
LAYER_1
 62
7
 10
14.557559
 20
23.917104
 42
-0.119730
  0
VERTEX
  8
LAYER_1
 62
7
 10
14.905882
 20
24.518539
 42
-0.110628
  0
VERTEX
  8
LAYER_1
 62
7
 10
15.345645
 20
24.800792
 42
-0.148345
  0
VERTEX
  8
LAYER_1
 62
7
 10
15.862693
 20
24.833558
 42
-0.030102
  0
VERTEX
  8
LAYER_1
 62
7
 10
15.945954
 20
25.184771
 42
-0.084434
  0
VERTEX
  8
LAYER_1
 62
7
 10
16.105618
 20
25.506303
 42
-0.171896
  0
VERTEX
  8
LAYER_1
 62
7
 10
16.540190
 20
25.808392
 42
-0.147946
  0
VERTEX
  8
LAYER_1
 62
7
 10
17.072616
 20
25.802515
  0
SEQEND
  0
POLYLINE
  8
LAYER_1
 62
7
 70
1
 66
1
  0
VERTEX
  8
LAYER_1
 62
7
 10
16.408883
 20
23.919846
 42
-0.237116
  0
VERTEX
  8
LAYER_1
 62
7
 10
17.461688
 20
23.113492
 42
-0.044019
  0
VERTEX
  8
LAYER_1
 62
7
 10
17.660975
 20
23.280846
 42
-0.115877
  0
VERTEX
  8
LAYER_1
 62
7
 10
17.899345
 20
23.376792
 42
-0.092855
  0
VERTEX
  8
LAYER_1
 62
7
 10
18.169795
 20
23.373265
 42
-0.153792
  0
VERTEX
  8
LAYER_1
 62
7
 10
18.404394
 20
23.246317
 42
-0.125469
  0
VERTEX
  8
LAYER_1
 62
7
 10
18.543145
 20
23.012698
 42
-0.079967
  0
VERTEX
  8
LAYER_1
 62
7
 10
18.578751
 20
22.740877
 42
-0.105430
  0
VERTEX
  8
LAYER_1
 62
7
 10
18.481581
 20
22.306746
 42
-0.087189
  0
VERTEX
  8
LAYER_1
 62
7
 10
18.229253
 20
21.938441
 42
0.075753
  0
VERTEX
  8
LAYER_1
 62
7
 10
18.226412
 20
22.485414
 42
0.042473
  0
VERTEX
  8
LAYER_1
 62
7
 10
18.096036
 20
23.018281
 42
0.165346
  0
VERTEX
  8
LAYER_1
 62
7
 10
17.478144
 20
22.486197
  0
VERTEX
  8
LAYER_1
 62
7
 10
17.423527
 20
22.566349
 42
0.011436
  0
VERTEX
  8
LAYER_1
 62
7
 10
17.206084
 20
22.883620
 42
0.043711
  0
VERTEX
  8
LAYER_1
 62
7
 10
16.964328
 20
23.165214
 42
0.078259
  0
VERTEX
  8
LAYER_1
 62
7
 10
16.668236
 20
23.374880
 42
0.093899
  0
VERTEX
  8
LAYER_1
 62
7
 10
16.287786
 20
23.476363
 42
0.098145
  0
VERTEX
  8
LAYER_1
 62
7
 10
16.016240
 20
23.448286
 42
0.121309
  0
VERTEX
  8
LAYER_1
 62
7
 10
15.774660
 20
23.300037
 42
0.121244
  0
VERTEX
  8
LAYER_1
 62
7
 10
15.640979
 20
23.076927
 42
0.136274
  0
VERTEX
  8
LAYER_1
 62
7
 10
15.631433
 20
22.820466
 42
0.196943
  0
VERTEX
  8
LAYER_1
 62
7
 10
15.775011
 20
22.622195
 42
0.224562
  0
VERTEX
  8
LAYER_1
 62
7
 10
16.021040
 20
22.596236
 42
0.311931
  0
VERTEX
  8
LAYER_1
 62
7
 10
16.177366
 20
22.805006
 42
0.196375
  0
VERTEX
  8
LAYER_1
 62
7
 10
16.118424
 20
22.967544
 42
0.196375
  0
VERTEX
  8
LAYER_1
 62
7
 10
15.962643
 20
23.042546
 42
-0.210522
  0
VERTEX
  8
LAYER_1
 62
7
 10
16.119588
 20
23.184673
 42
-0.139656
  0
VERTEX
  8
LAYER_1
 62
7
 10
16.360980
 20
23.196563
 42
-0.101982
  0
VERTEX
  8
LAYER_1
 62
7
 10
16.653013
 20
23.058246
 42
-0.055464
  0
VERTEX
  8
LAYER_1
 62
7
 10
16.917108
 20
22.815085
 42
-0.038100
  0
VERTEX
  8
LAYER_1
 62
7
 10
17.129651
 20
22.533473
 42
-0.041328
  0
VERTEX
  8
LAYER_1
 62
7
 10
17.267027
 20
22.279805
 42
-0.084506
  0
VERTEX
  8
LAYER_1
 62
7
 10
17.319281
 20
22.037645
 42
-0.027231
  0
VERTEX
  8
LAYER_1
 62
7
 10
17.317109
 20
21.787592
 42
-0.092755
  0
VERTEX
  8
LAYER_1
 62
7
 10
17.029627
 20
21.868349
 42
-0.074576
  0
VERTEX
  8
LAYER_1
 62
7
 10
16.789824
 20
22.036639
 42
-0.054584
  0
VERTEX
  8
LAYER_1
 62
7
 10
16.597186
 20
22.264363
 42
-0.041115
  0
VERTEX
  8
LAYER_1
 62
7
 10
16.451199
 20
22.523420
 42
0.067905
  0
VERTEX
  8
LAYER_1
 62
7
 10
16.459329
 20
22.126316
 42
0.114843
  0
VERTEX
  8
LAYER_1
 62
7
 10
16.606749
 20
21.760949
 42
0.069653
  0
VERTEX
  8
LAYER_1
 62
7
 10
16.788698
 20
21.552485
 42
0.048306
  0
VERTEX
  8
LAYER_1
 62
7
 10
17.012669
 20
21.394161
 42
0.025764
  0
VERTEX
  8
LAYER_1
 62
7
 10
17.260442
 20
21.268971
  0
VERTEX
  8
LAYER_1
 62
7
 10
17.513799
 20
21.159905
  0
VERTEX
  8
LAYER_1
 62
7
 10
17.283602
 20
21.168195
 42
-0.024047
  0
VERTEX
  8
LAYER_1
 62
7
 10
17.053369
 20
21.190369
 42
-0.043365
  0
VERTEX
  8
LAYER_1
 62
7
 10
16.830408
 20
21.242664
 42
-0.061855
  0
VERTEX
  8
LAYER_1
 62
7
 10
16.622030
 20
21.341315
 42
-0.131706
  0
VERTEX
  8
LAYER_1
 62
7
 10
16.298489
 20
21.661673
 42
-0.103943
  0
VERTEX
  8
LAYER_1
 62
7
 10
16.151852
 20
22.095166
  0
VERTEX
  8
LAYER_1
 62
7
 10
15.943297
 20
22.138395
 42
-0.027051
  0
VERTEX
  8
LAYER_1
 62
7
 10
15.736137
 20
22.194149
 42
-0.054165
  0
VERTEX
  8
LAYER_1
 62
7
 10
15.543671
 20
22.281125
 42
-0.079120
  0
VERTEX
  8
LAYER_1
 62
7
 10
15.379194
 20
22.418022
 42
-0.105732
  0
VERTEX
  8
LAYER_1
 62
7
 10
15.223270
 20
22.729765
 42
-0.088716
  0
VERTEX
  8
LAYER_1
 62
7
 10
15.197049
 20
23.076809
 42
-0.163621
  0
VERTEX
  8
LAYER_1
 62
7
 10
15.478323
 20
23.708267
 42
-0.123541
  0
VERTEX
  8
LAYER_1
 62
7
 10
15.918331
 20
23.920581
 42
-0.106558
  0
VERTEX
  8
LAYER_1
 62
7
 10
16.408883
 20
23.919846
  0
SEQEND
  0
POLYLINE
  8
LAYER_1
 62
7
 70
1
 66
1
  0
VERTEX
  8
LAYER_1
 62
7
 10
13.462438
 20
23.165212
 42
0.030356
  0
VERTEX
  8
LAYER_1
 62
7
 10
12.914404
 20
22.347589
 42
0.041286
  0
VERTEX
  8
LAYER_1
 62
7
 10
12.488874
 20
21.461176
  0
VERTEX
  8
LAYER_1
 62
7
 10
12.361806
 20
21.124887
  0
VERTEX
  8
LAYER_1
 62
7
 10
12.358617
 20
21.381588
  0
VERTEX
  8
LAYER_1
 62
7
 10
12.358405
 20
21.668223
 42
0.006003
  0
VERTEX
  8
LAYER_1
 62
7
 10
12.357129
 20
21.954897
  0
VERTEX
  8
LAYER_1
 62
7
 10
12.357452
 20
21.983461
  0
VERTEX
  8
LAYER_1
 62
7
 10
12.358238
 20
22.255681
  0
VERTEX
  8
LAYER_1
 62
7
 10
12.487999
 20
22.474462
 42
-0.074863
  0
VERTEX
  8
LAYER_1
 62
7
 10
13.091781
 20
23.216540
 42
0.040427
  0
VERTEX
  8
LAYER_1
 62
7
 10
13.462438
 20
23.165212
  0
SEQEND
  0
POLYLINE
  8
LAYER_1
 62
7
 70
1
 66
1
  0
VERTEX
  8
LAYER_1
 62
7
 10
17.903655
 20
22.560250
 42
-0.035853
  0
VERTEX
  8
LAYER_1
 62
7
 10
17.952368
 20
22.274238
 42
-0.051084
  0
VERTEX
  8
LAYER_1
 62
7
 10
17.951603
 20
21.980365
 42
-0.073971
  0
VERTEX
  8
LAYER_1
 62
7
 10
17.880238
 20
21.701479
 42
-0.096499
  0
VERTEX
  8
LAYER_1
 62
7
 10
17.717151
 20
21.460427
 42
-0.034268
  0
VERTEX
  8
LAYER_1
 62
7
 10
17.666895
 20
21.747707
 42
-0.051562
  0
VERTEX
  8
LAYER_1
 62
7
 10
17.665677
 20
22.041929
 42
-0.076675
  0
VERTEX
  8
LAYER_1
 62
7
 10
17.736822
 20
22.320356
 42
-0.099810
  0
VERTEX
  8
LAYER_1
 62
7
 10
17.903655
 20
22.560250
  0
SEQEND
  0
POLYLINE
  8
LAYER_1
 62
7
 70
1
 66
1
  0
VERTEX
  8
LAYER_1
 62
7
 10
15.856380
 20
21.804894
 42
0.204737
  0
VERTEX
  8
LAYER_1
 62
7
 10
16.634176
 20
20.981630
 42
-0.009024
  0
VERTEX
  8
LAYER_1
 62
7
 10
16.345017
 20
20.970659
 42
-0.099006
  0
VERTEX
  8
LAYER_1
 62
7
 10
16.062910
 20
21.020811
 42
-0.054172
  0
VERTEX
  8
LAYER_1
 62
7
 10
15.855542
 20
21.129671
 42
-0.027013
  0
VERTEX
  8
LAYER_1
 62
7
 10
15.668087
 20
21.270941
 42
0.032076
  0
VERTEX
  8
LAYER_1
 62
7
 10
15.504266
 20
21.401625
 42
0.076523
  0
VERTEX
  8
LAYER_1
 62
7
 10
15.408261
 20
21.445711
 42
0.132460
  0
VERTEX
  8
LAYER_1
 62
7
 10
15.306336
 20
21.446689
 42
0.280192
  0
VERTEX
  8
LAYER_1
 62
7
 10
15.165044
 20
21.285033
 42
0.187462
  0
VERTEX
  8
LAYER_1
 62
7
 10
15.205914
 20
21.094309
 42
0.088735
  0
VERTEX
  8
LAYER_1
 62
7
 10
15.356381
 20
20.934221
 42
0.040026
  0
VERTEX
  8
LAYER_1
 62
7
 10
15.548470
 20
20.810111
 42
0.016885
  0
VERTEX
  8
LAYER_1
 62
7
 10
15.714205
 20
20.727322
  0
VERTEX
  8
LAYER_1
 62
7
 10
15.764740
 20
20.703833
 42
-0.064232
  0
VERTEX
  8
LAYER_1
 62
7
 10
15.103824
 20
20.772852
 42
-0.044653
  0
VERTEX
  8
LAYER_1
 62
7
 10
14.738419
 20
20.897971
 42
-0.063291
  0
VERTEX
  8
LAYER_1
 62
7
 10
14.374740
 20
21.114368
 42
-0.113509
  0
VERTEX
  8
LAYER_1
 62
7
 10
14.117556
 20
21.424431
 42
-0.167207
  0
VERTEX
  8
LAYER_1
 62
7
 10
14.071638
 20
21.830550
 42
-0.213479
  0
VERTEX
  8
LAYER_1
 62
7
 10
14.233884
 20
22.057737
 42
-0.294319
  0
VERTEX
  8
LAYER_1
 62
7
 10
14.617141
 20
22.052209
 42
0.199588
  0
VERTEX
  8
LAYER_1
 62
7
 10
14.426118
 20
21.955564
 42
0.199588
  0
VERTEX
  8
LAYER_1
 62
7
 10
14.359380
 20
21.752154
 42
0.199588
  0
VERTEX
  8
LAYER_1
 62
7
 10
14.456025
 20
21.561131
 42
0.199588
  0
VERTEX
  8
LAYER_1
 62
7
 10
14.659435
 20
21.494393
  0
VERTEX
  8
LAYER_1
 62
7
 10
14.665386
 20
21.494909
 42
0.082211
  0
VERTEX
  8
LAYER_1
 62
7
 10
14.788278
 20
21.514435
 42
0.104695
  0
VERTEX
  8
LAYER_1
 62
7
 10
14.946383
 20
21.603162
 42
0.112950
  0
VERTEX
  8
LAYER_1
 62
7
 10
15.038577
 20
21.733689
 42
0.096124
  0
VERTEX
  8
LAYER_1
 62
7
 10
15.069362
 20
21.892409
 42
0.075483
  0
VERTEX
  8
LAYER_1
 62
7
 10
15.043236
 20
22.065713
  0
VERTEX
  8
LAYER_1
 62
7
 10
15.014023
 20
22.170003
 42
0.124635
  0
VERTEX
  8
LAYER_1
 62
7
 10
15.856380
 20
21.804894
  0
SEQEND
  0
POLYLINE
  8
LAYER_1
 62
7
 70
1
 66
1
  0
VERTEX
  8
LAYER_1
 62
7
 10
13.923801
 20
21.131297
  0
VERTEX
  8
LAYER_1
 62
7
 10
13.943670
 20
21.113146
 42
0.099080
  0
VERTEX
  8
LAYER_1
 62
7
 10
14.728841
 20
20.618320
 42
0.041448
  0
VERTEX
  8
LAYER_1
 62
7
 10
15.164184
 20
20.495443
 42
0.027867
  0
VERTEX
  8
LAYER_1
 62
7
 10
15.645068
 20
20.429738
  0
VERTEX
  8
LAYER_1
 62
7
 10
15.706359
 20
20.424861
  0
VERTEX
  8
LAYER_1
 62
7
 10
15.663652
 20
20.355510
  0
VERTEX
  8
LAYER_1
 62
7
 10
15.614935
 20
20.347328
 42
-0.038055
  0
VERTEX
  8
LAYER_1
 62
7
 10
14.888785
 20
20.275470
 42
-0.068267
  0
VERTEX
  8
LAYER_1
 62
7
 10
14.176224
 20
20.363254
 42
-0.063830
  0
VERTEX
  8
LAYER_1
 62
7
 10
13.832631
 20
20.503983
 42
-0.108240
  0
VERTEX
  8
LAYER_1
 62
7
 10
13.575515
 20
20.732349
 42
-0.108394
  0
VERTEX
  8
LAYER_1
 62
7
 10
13.502518
 20
20.898209
 42
-0.151723
  0
VERTEX
  8
LAYER_1
 62
7
 10
13.524504
 20
21.079409
 42
-0.174751
  0
VERTEX
  8
LAYER_1
 62
7
 10
13.631345
 20
21.193220
 42
-0.179796
  0
VERTEX
  8
LAYER_1
 62
7
 10
13.780626
 20
21.210943
 42
-0.125816
  0
VERTEX
  8
LAYER_1
 62
7
 10
13.923801
 20
21.131297
  0
SEQEND
  0
POLYLINE
  8
LAYER_1
 62
7
 70
1
 66
1
  0
VERTEX
  8
LAYER_1
 62
7
 10
20.899943
 20
19.685039
 42
-0.137309
  0
VERTEX
  8
LAYER_1
 62
7
 10
20.913574
 20
19.721554
 42
-0.097928
  0
VERTEX
  8
LAYER_1
 62
7
 10
21.093612
 20
19.908254
 42
-0.081332
  0
VERTEX
  8
LAYER_1
 62
7
 10
21.327722
 20
20.020901
 42
-0.140377
  0
VERTEX
  8
LAYER_1
 62
7
 10
21.954723
 20
20.037504
 42
-0.153744
  0
VERTEX
  8
LAYER_1
 62
7
 10
22.489451
 20
19.714110
 42
-0.084190
  0
VERTEX
  8
LAYER_1
 62
7
 10
22.493315
 20
19.685039
 42
-0.084190
  0
VERTEX
  8
LAYER_1
 62
7
 10
22.489451
 20
19.655969
 42
-0.153744
  0
VERTEX
  8
LAYER_1
 62
7
 10
21.954723
 20
19.332575
 42
-0.140377
  0
VERTEX
  8
LAYER_1
 62
7
 10
21.327722
 20
19.349178
 42
-0.081332
  0
VERTEX
  8
LAYER_1
 62
7
 10
21.093612
 20
19.461825
 42
-0.097928
  0
VERTEX
  8
LAYER_1
 62
7
 10
20.913574
 20
19.648524
 42
-0.137309
  0
VERTEX
  8
LAYER_1
 62
7
 10
20.899943
 20
19.685039
  0
SEQEND
  0
POLYLINE
  8
LAYER_1
 62
7
 70
1
 66
1
  0
VERTEX
  8
LAYER_1
 62
7
 10
22.889326
 20
19.685039
 42
0.090671
  0
VERTEX
  8
LAYER_1
 62
7
 10
22.342424
 20
20.176046
 42
0.064831
  0
VERTEX
  8
LAYER_1
 62
7
 10
22.007976
 20
20.321943
 42
0.078554
  0
VERTEX
  8
LAYER_1
 62
7
 10
21.641173
 20
20.367265
 42
0.038678
  0
VERTEX
  8
LAYER_1
 62
7
 10
21.756367
 20
20.667786
 42
-0.090044
  0
VERTEX
  8
LAYER_1
 62
7
 10
22.403595
 20
20.612687
 42
-0.076788
  0
VERTEX
  8
LAYER_1
 62
7
 10
22.998810
 20
20.349241
 42
-0.056289
  0
VERTEX
  8
LAYER_1
 62
7
 10
23.385494
 20
20.047140
 42
-0.025771
  0
VERTEX
  8
LAYER_1
 62
7
 10
23.718670
 20
19.685039
 42
-0.025771
  0
VERTEX
  8
LAYER_1
 62
7
 10
23.385494
 20
19.322938
 42
-0.056289
  0
VERTEX
  8
LAYER_1
 62
7
 10
22.998810
 20
19.020838
 42
-0.076788
  0
VERTEX
  8
LAYER_1
 62
7
 10
22.403595
 20
18.757391
 42
-0.090044
  0
VERTEX
  8
LAYER_1
 62
7
 10
21.756367
 20
18.702292
 42
0.038678
  0
VERTEX
  8
LAYER_1
 62
7
 10
21.641173
 20
19.002814
 42
0.078554
  0
VERTEX
  8
LAYER_1
 62
7
 10
22.007976
 20
19.048135
 42
0.064831
  0
VERTEX
  8
LAYER_1
 62
7
 10
22.342424
 20
19.194033
 42
0.090671
  0
VERTEX
  8
LAYER_1
 62
7
 10
22.889326
 20
19.685039
  0
SEQEND
  0
POLYLINE
  8
LAYER_1
 62
7
 70
1
 66
1
  0
VERTEX
  8
LAYER_1
 62
7
 10
24.108721
 20
19.685039
 42
0.028063
  0
VERTEX
  8
LAYER_1
 62
7
 10
24.056305
 20
19.783931
  0
VERTEX
  8
LAYER_1
 62
7
 10
23.998721
 20
19.880239
 42
0.042607
  0
VERTEX
  8
LAYER_1
 62
7
 10
24.872810
 20
19.924612
 42
0.054748
  0
VERTEX
  8
LAYER_1
 62
7
 10
25.720745
 20
20.136486
 42
-0.211409
  0
VERTEX
  8
LAYER_1
 62
7
 10
26.074211
 20
20.110969
 42
-0.195958
  0
VERTEX
  8
LAYER_1
 62
7
 10
26.308075
 20
19.843017
 42
-0.085443
  0
VERTEX
  8
LAYER_1
 62
7
 10
26.334341
 20
19.685039
 42
-0.085443
  0
VERTEX
  8
LAYER_1
 62
7
 10
26.308075
 20
19.527062
 42
-0.195958
  0
VERTEX
  8
LAYER_1
 62
7
 10
26.074211
 20
19.259110
 42
-0.211409
  0
VERTEX
  8
LAYER_1
 62
7
 10
25.720745
 20
19.233593
 42
0.054748
  0
VERTEX
  8
LAYER_1
 62
7
 10
24.872810
 20
19.445466
 42
0.042607
  0
VERTEX
  8
LAYER_1
 62
7
 10
23.998721
 20
19.489839
 42
0.025756
  0
VERTEX
  8
LAYER_1
 62
7
 10
24.108721
 20
19.685039
  0
SEQEND
  0
POLYLINE
  8
LAYER_1
 62
7
 70
1
 66
1
  0
VERTEX
  8
LAYER_1
 62
7
 10
26.619545
 20
19.685039
 42
0.190819
  0
VERTEX
  8
LAYER_1
 62
7
 10
26.420793
 20
20.195274
 42
0.192032
  0
VERTEX
  8
LAYER_1
 62
7
 10
25.924016
 20
20.432402
 42
0.052649
  0
VERTEX
  8
LAYER_1
 62
7
 10
26.092740
 20
20.724367
 42
0.137004
  0
VERTEX
  8
LAYER_1
 62
7
 10
26.141946
 20
21.053332
 42
0.203039
  0
VERTEX
  8
LAYER_1
 62
7
 10
25.933452
 20
21.439367
 42
0.112015
  0
VERTEX
  8
LAYER_1
 62
7
 10
25.736804
 20
21.537761
 42
0.136337
  0
VERTEX
  8
LAYER_1
 62
7
 10
25.513084
 20
21.529778
 42
0.082261
  0
VERTEX
  8
LAYER_1
 62
7
 10
25.545066
 20
21.905087
 42
0.143716
  0
VERTEX
  8
LAYER_1
 62
7
 10
25.413955
 20
22.253068
 42
0.163172
  0
VERTEX
  8
LAYER_1
 62
7
 10
25.119261
 20
22.463766
 42
0.152946
  0
VERTEX
  8
LAYER_1
 62
7
 10
24.756098
 20
22.464648
 42
0.095596
  0
VERTEX
  8
LAYER_1
 62
7
 10
25.060783
 20
22.948000
 42
0.063312
  0
VERTEX
  8
LAYER_1
 62
7
 10
25.201199
 20
23.504523
 42
-0.036576
  0
VERTEX
  8
LAYER_1
 62
7
 10
25.469788
 20
23.215707
 42
-0.011207
  0
VERTEX
  8
LAYER_1
 62
7
 10
25.710166
 20
22.901912
 42
-0.059434
  0
VERTEX
  8
LAYER_1
 62
7
 10
26.425228
 20
21.634784
 42
-0.066298
  0
VERTEX
  8
LAYER_1
 62
7
 10
26.804112
 20
20.231305
 42
-0.038725
  0
VERTEX
  8
LAYER_1
 62
7
 10
26.844230
 20
19.685039
 42
-0.038725
  0
VERTEX
  8
LAYER_1
 62
7
 10
26.804112
 20
19.138774
 42
-0.066298
  0
VERTEX
  8
LAYER_1
 62
7
 10
26.425228
 20
17.735294
 42
-0.059434
  0
VERTEX
  8
LAYER_1
 62
7
 10
25.710166
 20
16.468166
 42
-0.011207
  0
VERTEX
  8
LAYER_1
 62
7
 10
25.469788
 20
16.154372
 42
-0.036576
  0
VERTEX
  8
LAYER_1
 62
7
 10
25.201199
 20
15.865556
 42
0.063312
  0
VERTEX
  8
LAYER_1
 62
7
 10
25.060783
 20
16.422079
 42
0.095596
  0
VERTEX
  8
LAYER_1
 62
7
 10
24.756098
 20
16.905431
 42
0.152946
  0
VERTEX
  8
LAYER_1
 62
7
 10
25.119261
 20
16.906313
 42
0.163172
  0
VERTEX
  8
LAYER_1
 62
7
 10
25.413955
 20
17.117011
 42
0.143716
  0
VERTEX
  8
LAYER_1
 62
7
 10
25.545066
 20
17.464991
 42
0.082261
  0
VERTEX
  8
LAYER_1
 62
7
 10
25.513084
 20
17.840301
 42
0.136337
  0
VERTEX
  8
LAYER_1
 62
7
 10
25.736804
 20
17.832317
 42
0.112015
  0
VERTEX
  8
LAYER_1
 62
7
 10
25.933452
 20
17.930712
 42
0.203039
  0
VERTEX
  8
LAYER_1
 62
7
 10
26.141946
 20
18.316747
 42
0.137004
  0
VERTEX
  8
LAYER_1
 62
7
 10
26.092740
 20
18.645711
 42
0.052649
  0
VERTEX
  8
LAYER_1
 62
7
 10
25.924016
 20
18.937676
 42
0.192032
  0
VERTEX
  8
LAYER_1
 62
7
 10
26.420793
 20
19.174805
 42
0.190819
  0
VERTEX
  8
LAYER_1
 62
7
 10
26.619545
 20
19.685039
  0
SEQEND
  0
POLYLINE
  8
LAYER_1
 62
7
 70
1
 66
1
  0
VERTEX
  8
LAYER_1
 62
7
 10
26.641481
 20
23.395251
 42
0.099306
  0
VERTEX
  8
LAYER_1
 62
7
 10
26.873918
 20
23.705499
 42
0.091135
  0
VERTEX
  8
LAYER_1
 62
7
 10
26.992930
 20
24.115604
 42
0.134817
  0
VERTEX
  8
LAYER_1
 62
7
 10
26.929512
 20
24.523451
 42
0.177964
  0
VERTEX
  8
LAYER_1
 62
7
 10
26.614653
 20
24.826923
 42
0.293230
  0
VERTEX
  8
LAYER_1
 62
7
 10
25.925112
 20
24.743744
 42
0.101022
  0
VERTEX
  8
LAYER_1
 62
7
 10
25.826510
 20
24.624480
 42
0.180142
  0
VERTEX
  8
LAYER_1
 62
7
 10
25.796293
 20
24.390601
 42
0.182678
  0
VERTEX
  8
LAYER_1
 62
7
 10
25.928369
 20
24.192095
 42
0.199588
  0
VERTEX
  8
LAYER_1
 62
7
 10
26.180543
 20
24.132760
 42
0.199588
  0
VERTEX
  8
LAYER_1
 62
7
 10
26.400815
 20
24.269116
 42
0.020851
  0
VERTEX
  8
LAYER_1
 62
7
 10
26.441292
 20
24.329684
 42
-0.115151
  0
VERTEX
  8
LAYER_1
 62
7
 10
26.495856
 20
24.131094
 42
-0.162005
  0
VERTEX
  8
LAYER_1
 62
7
 10
26.413270
 20
23.832319
 42
-0.130837
  0
VERTEX
  8
LAYER_1
 62
7
 10
26.184585
 20
23.636934
 42
-0.110695
  0
VERTEX
  8
LAYER_1
 62
7
 10
25.882179
 20
23.564411
 42
-0.125140
  0
VERTEX
  8
LAYER_1
 62
7
 10
25.578429
 20
23.634220
 42
-0.085701
  0
VERTEX
  8
LAYER_1
 62
7
 10
25.368756
 20
23.787749
 42
-0.113827
  0
VERTEX
  8
LAYER_1
 62
7
 10
25.235935
 20
24.008017
 42
-0.119477
  0
VERTEX
  8
LAYER_1
 62
7
 10
25.206721
 20
24.428031
 42
-0.083096
  0
VERTEX
  8
LAYER_1
 62
7
 10
25.346836
 20
24.821875
 42
-0.048367
  0
VERTEX
  8
LAYER_1
 62
7
 10
25.589016
 20
25.175733
 42
-0.025754
  0
VERTEX
  8
LAYER_1
 62
7
 10
25.865997
 20
25.475791
  0
VERTEX
  8
LAYER_1
 62
7
 10
26.100539
 20
25.702383
 42
0.007294
  0
VERTEX
  8
LAYER_1
 62
7
 10
26.333455
 20
25.930718
 42
0.047666
  0
VERTEX
  8
LAYER_1
 62
7
 10
26.750826
 20
26.429810
 42
0.041295
  0
VERTEX
  8
LAYER_1
 62
7
 10
26.879390
 20
26.662205
  0
VERTEX
  8
LAYER_1
 62
7
 10
26.937776
 20
26.781727
 42
-0.024897
  0
VERTEX
  8
LAYER_1
 62
7
 10
27.003546
 20
26.897245
  0
VERTEX
  8
LAYER_1
 62
7
 10
27.006653
 20
26.730173
  0
VERTEX
  8
LAYER_1
 62
7
 10
27.018271
 20
26.019238
  0
VERTEX
  8
LAYER_1
 62
7
 10
27.013021
 20
23.345827
 42
-0.004421
  0
VERTEX
  8
LAYER_1
 62
7
 10
27.006680
 20
22.824725
 42
-0.011070
  0
VERTEX
  8
LAYER_1
 62
7
 10
26.794072
 20
23.087926
 42
0.030460
  0
VERTEX
  8
LAYER_1
 62
7
 10
26.571766
 20
23.342312
 42
0.027974
  0
VERTEX
  8
LAYER_1
 62
7
 10
26.641481
 20
23.395251
  0
SEQEND
  0
POLYLINE
  8
LAYER_1
 62
7
 70
1
 66
1
  0
VERTEX
  8
LAYER_1
 62
7
 10
21.566696
 20
34.377811
 42
-0.039888
  0
VERTEX
  8
LAYER_1
 62
7
 10
21.846976
 20
34.519256
 42
-0.037621
  0
VERTEX
  8
LAYER_1
 62
7
 10
22.627569
 20
34.779963
 42
-0.037333
  0
VERTEX
  8
LAYER_1
 62
7
 10
22.959390
 20
34.840703
 42
-0.024090
  0
VERTEX
  8
LAYER_1
 62
7
 10
23.077957
 20
34.845201
  0
VERTEX
  8
LAYER_1
 62
7
 10
24.425799
 20
34.847552
  0
VERTEX
  8
LAYER_1
 62
7
 10
24.401067
 20
34.784856
 42
0.056661
  0
VERTEX
  8
LAYER_1
 62
7
 10
24.336795
 20
34.542499
 42
0.075913
  0
VERTEX
  8
LAYER_1
 62
7
 10
24.336767
 20
34.293093
 42
0.110283
  0
VERTEX
  8
LAYER_1
 62
7
 10
24.423950
 20
34.068005
 42
0.128461
  0
VERTEX
  8
LAYER_1
 62
7
 10
24.621315
 20
33.898599
 42
0.302244
  0
VERTEX
  8
LAYER_1
 62
7
 10
25.161236
 20
33.963730
 42
0.188818
  0
VERTEX
  8
LAYER_1
 62
7
 10
25.269042
 20
34.217578
 42
0.222774
  0
VERTEX
  8
LAYER_1
 62
7
 10
25.143021
 20
34.487502
 42
0.199588
  0
VERTEX
  8
LAYER_1
 62
7
 10
24.886230
 20
34.568039
 42
0.199588
  0
VERTEX
  8
LAYER_1
 62
7
 10
24.647701
 20
34.443412
 42
-0.073929
  0
VERTEX
  8
LAYER_1
 62
7
 10
24.732637
 20
34.601707
 42
-0.099989
  0
VERTEX
  8
LAYER_1
 62
7
 10
24.863261
 20
34.719907
 42
-0.133093
  0
VERTEX
  8
LAYER_1
 62
7
 10
25.171390
 20
34.799203
 42
-0.121447
  0
VERTEX
  8
LAYER_1
 62
7
 10
25.480990
 20
34.721385
 42
-0.210710
  0
VERTEX
  8
LAYER_1
 62
7
 10
25.776790
 20
34.334478
 42
-0.176714
  0
VERTEX
  8
LAYER_1
 62
7
 10
25.730321
 20
33.845666
  0
VERTEX
  8
LAYER_1
 62
7
 10
25.717753
 20
33.821303
 42
-0.094524
  0
VERTEX
  8
LAYER_1
 62
7
 10
25.552103
 20
33.621226
 42
-0.073608
  0
VERTEX
  8
LAYER_1
 62
7
 10
25.323357
 20
33.483954
 42
-0.053251
  0
VERTEX
  8
LAYER_1
 62
7
 10
25.050944
 20
33.402980
 42
-0.040066
  0
VERTEX
  8
LAYER_1
 62
7
 10
24.754291
 20
33.371798
 42
-0.064420
  0
VERTEX
  8
LAYER_1
 62
7
 10
24.165977
 20
33.432783
 42
-0.036709
  0
VERTEX
  8
LAYER_1
 62
7
 10
23.913172
 20
33.511937
 42
-0.052758
  0
VERTEX
  8
LAYER_1
 62
7
 10
23.713838
 20
33.614856
 42
-0.005732
  0
VERTEX
  8
LAYER_1
 62
7
 10
23.356929
 20
33.833536
 42
0.075066
  0
VERTEX
  8
LAYER_1
 62
7
 10
22.474709
 20
34.249153
 42
0.100955
  0
VERTEX
  8
LAYER_1
 62
7
 10
21.507564
 20
34.337410
  0
VERTEX
  8
LAYER_1
 62
7
 10
21.566696
 20
34.377811
  0
SEQEND
  0
POLYLINE
  8
LAYER_1
 62
7
 70
1
 66
1
  0
VERTEX
  8
LAYER_1
 62
7
 10
25.991881
 20
34.847552
  0
VERTEX
  8
LAYER_1
 62
7
 10
26.500260
 20
34.847503
  0
VERTEX
  8
LAYER_1
 62
7
 10
27.008640
 20
34.849511
 42
-0.211769
  0
VERTEX
  8
LAYER_1
 62
7
 10
26.567065
 20
33.788086
 42
-0.117802
  0
VERTEX
  8
LAYER_1
 62
7
 10
25.841424
 20
33.346119
 42
0.002350
  0
VERTEX
  8
LAYER_1
 62
7
 10
26.002999
 20
33.538157
 42
0.080327
  0
VERTEX
  8
LAYER_1
 62
7
 10
26.130191
 20
33.752822
 42
0.068696
  0
VERTEX
  8
LAYER_1
 62
7
 10
26.214530
 20
34.122206
 42
0.092953
  0
VERTEX
  8
LAYER_1
 62
7
 10
26.178385
 20
34.498054
 42
0.064128
  0
VERTEX
  8
LAYER_1
 62
7
 10
26.096153
 20
34.678239
  0
VERTEX
  8
LAYER_1
 62
7
 10
25.991881
 20
34.847552
  0
SEQEND
  0
POLYLINE
  8
LAYER_1
 62
7
 70
1
 66
1
  0
VERTEX
  8
LAYER_1
 62
7
 10
20.567993
 20
34.830312
  0
VERTEX
  8
LAYER_1
 62
7
 10
20.848110
 20
34.829780
  0
VERTEX
  8
LAYER_1
 62
7
 10
21.128337
 20
34.831928
 42
-0.006617
  0
VERTEX
  8
LAYER_1
 62
7
 10
21.688974
 20
34.831488
 42
0.097373
  0
VERTEX
  8
LAYER_1
 62
7
 10
20.577708
 20
34.111104
  0
VERTEX
  8
LAYER_1
 62
7
 10
20.565642
 20
34.100362
 42
0.008051
  0
VERTEX
  8
LAYER_1
 62
7
 10
20.567993
 20
34.830312
  0
SEQEND
  0
POLYLINE
  8
LAYER_1
 62
7
 70
1
 66
1
  0
VERTEX
  8
LAYER_1
 62
7
 10
20.313084
 20
33.096812
 42
-0.056591
  0
VERTEX
  8
LAYER_1
 62
7
 10
20.546628
 20
33.520616
 42
-0.090136
  0
VERTEX
  8
LAYER_1
 62
7
 10
20.835408
 20
33.801547
 42
-0.093183
  0
VERTEX
  8
LAYER_1
 62
7
 10
21.205595
 20
33.953302
 42
-0.061494
  0
VERTEX
  8
LAYER_1
 62
7
 10
21.683358
 20
33.989577
 42
-0.038125
  0
VERTEX
  8
LAYER_1
 62
7
 10
22.217271
 20
33.930087
 42
-0.043912
  0
VERTEX
  8
LAYER_1
 62
7
 10
22.637331
 20
33.816975
 42
-0.052087
  0
VERTEX
  8
LAYER_1
 62
7
 10
22.917705
 20
33.674851
  0
VERTEX
  8
LAYER_1
 62
7
 10
22.890127
 20
33.678877
 42
0.065185
  0
VERTEX
  8
LAYER_1
 62
7
 10
22.314907
 20
33.683046
 42
0.070873
  0
VERTEX
  8
LAYER_1
 62
7
 10
21.763608
 20
33.535510
 42
0.085441
  0
VERTEX
  8
LAYER_1
 62
7
 10
21.293210
 20
33.232772
 42
0.100580
  0
VERTEX
  8
LAYER_1
 62
7
 10
20.960691
 20
32.771337
 42
-0.016822
  0
VERTEX
  8
LAYER_1
 62
7
 10
20.921410
 20
32.690613
 42
0.007902
  0
VERTEX
  8
LAYER_1
 62
7
 10
20.564075
 20
32.750120
 42
0.041490
  0
VERTEX
  8
LAYER_1
 62
7
 10
20.203214
 20
32.774070
 42
-0.038285
  0
VERTEX
  8
LAYER_1
 62
7
 10
20.313084
 20
33.096812
  0
SEQEND
  0
POLYLINE
  8
LAYER_1
 62
7
 70
1
 66
1
  0
VERTEX
  8
LAYER_1
 62
7
 10
26.024010
 20
33.001322
 42
0.062047
  0
VERTEX
  8
LAYER_1
 62
7
 10
26.589937
 20
33.288767
 42
0.013502
  0
VERTEX
  8
LAYER_1
 62
7
 10
26.851100
 20
33.471040
  0
VERTEX
  8
LAYER_1
 62
7
 10
27.106201
 20
33.661138
 42
-0.191196
  0
VERTEX
  8
LAYER_1
 62
7
 10
26.550217
 20
32.742725
 42
-0.055224
  0
VERTEX
  8
LAYER_1
 62
7
 10
26.169354
 20
32.502823
 42
-0.043084
  0
VERTEX
  8
LAYER_1
 62
7
 10
25.750233
 20
32.342703
 42
-0.030928
  0
VERTEX
  8
LAYER_1
 62
7
 10
25.308987
 20
32.245274
 42
-0.020305
  0
VERTEX
  8
LAYER_1
 62
7
 10
24.861751
 20
32.193444
  0
VERTEX
  8
LAYER_1
 62
7
 10
24.757830
 20
32.185331
  0
VERTEX
  8
LAYER_1
 62
7
 10
24.664022
 20
32.241202
  0
VERTEX
  8
LAYER_1
 62
7
 10
24.576557
 20
32.294046
 42
0.083830
  0
VERTEX
  8
LAYER_1
 62
7
 10
23.221110
 20
32.806512
 42
0.084489
  0
VERTEX
  8
LAYER_1
 62
7
 10
21.707414
 20
32.844612
  0
VERTEX
  8
LAYER_1
 62
7
 10
21.415488
 20
32.805415
  0
VERTEX
  8
LAYER_1
 62
7
 10
21.437398
 20
32.832793
 42
-0.098155
  0
VERTEX
  8
LAYER_1
 62
7
 10
21.816260
 20
33.149903
 42
-0.079969
  0
VERTEX
  8
LAYER_1
 62
7
 10
22.265875
 20
33.305995
 42
-0.054392
  0
VERTEX
  8
LAYER_1
 62
7
 10
22.752990
 20
33.338378
 42
-0.034742
  0
VERTEX
  8
LAYER_1
 62
7
 10
23.244351
 20
33.284359
 42
-0.017631
  0
VERTEX
  8
LAYER_1
 62
7
 10
23.630114
 20
33.200893
 42
-0.003318
  0
VERTEX
  8
LAYER_1
 62
7
 10
24.202791
 20
33.046922
 42
0.019763
  0
VERTEX
  8
LAYER_1
 62
7
 10
24.779607
 20
32.911989
 42
0.053643
  0
VERTEX
  8
LAYER_1
 62
7
 10
25.408567
 20
32.875550
 42
0.076787
  0
VERTEX
  8
LAYER_1
 62
7
 10
26.024010
 20
33.001322
  0
SEQEND
  0
POLYLINE
  8
LAYER_1
 62
7
 70
1
 66
1
  0
VERTEX
  8
LAYER_1
 62
7
 10
25.380650
 20
31.966540
  0
VERTEX
  8
LAYER_1
 62
7
 10
25.382878
 20
31.967251
 42
0.074454
  0
VERTEX
  8
LAYER_1
 62
7
 10
26.254066
 20
32.216649
 42
0.074454
  0
VERTEX
  8
LAYER_1
 62
7
 10
27.008640
 20
32.718432
 42
-0.005532
  0
VERTEX
  8
LAYER_1
 62
7
 10
27.007464
 20
31.124923
 42
0.086361
  0
VERTEX
  8
LAYER_1
 62
7
 10
26.261939
 20
31.674736
 42
0.072673
  0
VERTEX
  8
LAYER_1
 62
7
 10
25.380650
 20
31.966540
  0
SEQEND
  0
POLYLINE
  8
LAYER_1
 62
7
 70
1
 66
1
  0
VERTEX
  8
LAYER_1
 62
7
 10
21.342654
 20
32.507331
  0
VERTEX
  8
LAYER_1
 62
7
 10
21.395990
 20
32.517509
 42
-0.041609
  0
VERTEX
  8
LAYER_1
 62
7
 10
22.142432
 20
32.586905
 42
-0.037936
  0
VERTEX
  8
LAYER_1
 62
7
 10
22.918065
 20
32.536823
 42
-0.039552
  0
VERTEX
  8
LAYER_1
 62
7
 10
23.676101
 20
32.369097
 42
-0.046568
  0
VERTEX
  8
LAYER_1
 62
7
 10
24.369752
 20
32.085562
 42
-0.017749
  0
VERTEX
  8
LAYER_1
 62
7
 10
24.586834
 20
31.961055
 42
0.054625
  0
VERTEX
  8
LAYER_1
 62
7
 10
23.880834
 20
31.685413
 42
0.044616
  0
VERTEX
  8
LAYER_1
 62
7
 10
23.242127
 20
31.275771
 42
0.116420
  0
VERTEX
  8
LAYER_1
 62
7
 10
21.977350
 20
32.254916
 42
0.023748
  0
VERTEX
  8
LAYER_1
 62
7
 10
21.660931
 20
32.381325
 42
0.052000
  0
VERTEX
  8
LAYER_1
 62
7
 10
21.329952
 20
32.458494
  0
VERTEX
  8
LAYER_1
 62
7
 10
21.183952
 20
32.475484
  0
VERTEX
  8
LAYER_1
 62
7
 10
21.342654
 20
32.507331
  0
SEQEND
  0
POLYLINE
  8
LAYER_1
 62
7
 70
1
 66
1
  0
VERTEX
  8
LAYER_1
 62
7
 10
20.146793
 20
32.176161
 42
-0.017004
  0
VERTEX
  8
LAYER_1
 62
7
 10
20.455787
 20
32.183850
  0
VERTEX
  8
LAYER_1
 62
7
 10
20.765076
 20
32.184781
 42
-0.114649
  0
VERTEX
  8
LAYER_1
 62
7
 10
21.912358
 20
31.850465
 42
-0.102297
  0
VERTEX
  8
LAYER_1
 62
7
 10
22.820143
 20
31.068893
 42
-0.095479
  0
VERTEX
  8
LAYER_1
 62
7
 10
23.130313
 20
30.485873
 42
-0.064050
  0
VERTEX
  8
LAYER_1
 62
7
 10
23.244478
 20
29.832327
  0
VERTEX
  8
LAYER_1
 62
7
 10
23.267889
 20
29.599981
 42
-0.041538
  0
VERTEX
  8
LAYER_1
 62
7
 10
23.269554
 20
29.366459
 42
0.145803
  0
VERTEX
  8
LAYER_1
 62
7
 10
22.983648
 20
30.129473
 42
0.159580
  0
VERTEX
  8
LAYER_1
 62
7
 10
22.261380
 20
30.623473
 42
0.093003
  0
VERTEX
  8
LAYER_1
 62
7
 10
21.827510
 20
30.665258
 42
0.106649
  0
VERTEX
  8
LAYER_1
 62
7
 10
21.400748
 20
30.530604
 42
0.027616
  0
VERTEX
  8
LAYER_1
 62
7
 10
21.281096
 20
30.453353
 42
0.087880
  0
VERTEX
  8
LAYER_1
 62
7
 10
20.981260
 20
31.228166
 42
0.066739
  0
VERTEX
  8
LAYER_1
 62
7
 10
20.459852
 20
31.878382
 42
0.025119
  0
VERTEX
  8
LAYER_1
 62
7
 10
20.301119
 20
32.025214
 42
-0.039106
  0
VERTEX
  8
LAYER_1
 62
7
 10
20.146793
 20
32.176161
  0
SEQEND
  0
POLYLINE
  8
LAYER_1
 62
7
 70
1
 66
1
  0
VERTEX
  8
LAYER_1
 62
7
 10
19.924242
 20
31.938330
 42
-0.064740
  0
VERTEX
  8
LAYER_1
 62
7
 10
20.154476
 20
31.795293
 42
-0.049533
  0
VERTEX
  8
LAYER_1
 62
7
 10
20.345590
 20
31.604210
 42
-0.056132
  0
VERTEX
  8
LAYER_1
 62
7
 10
20.634994
 20
31.144905
 42
-0.058419
  0
VERTEX
  8
LAYER_1
 62
7
 10
20.759199
 20
30.793350
 42
-0.105527
  0
VERTEX
  8
LAYER_1
 62
7
 10
20.764684
 20
30.423575
 42
-0.134420
  0
VERTEX
  8
LAYER_1
 62
7
 10
20.716307
 20
30.342347
 42
-0.084236
  0
VERTEX
  8
LAYER_1
 62
7
 10
20.638618
 20
30.291240
 42
-0.028861
  0
VERTEX
  8
LAYER_1
 62
7
 10
20.547264
 20
30.256735
  0
VERTEX
  8
LAYER_1
 62
7
 10
20.457893
 20
30.225317
 42
0.049637
  0
VERTEX
  8
LAYER_1
 62
7
 10
20.260566
 20
31.102981
 42
0.031337
  0
VERTEX
  8
LAYER_1
 62
7
 10
19.924242
 20
31.938330
  0
SEQEND
  0
POLYLINE
  8
LAYER_1
 62
7
 70
1
 66
1
  0
VERTEX
  8
LAYER_1
 62
7
 10
23.508561
 20
30.728798
 42
-0.014974
  0
VERTEX
  8
LAYER_1
 62
7
 10
23.586178
 20
30.826782
 42
-0.119762
  0
VERTEX
  8
LAYER_1
 62
7
 10
24.378959
 20
31.418315
 42
-0.122651
  0
VERTEX
  8
LAYER_1
 62
7
 10
25.314071
 20
31.561069
 42
-0.061511
  0
VERTEX
  8
LAYER_1
 62
7
 10
25.851240
 20
31.448275
 42
-0.073664
  0
VERTEX
  8
LAYER_1
 62
7
 10
26.309836
 20
31.210957
 42
-0.081343
  0
VERTEX
  8
LAYER_1
 62
7
 10
26.670135
 20
30.847098
 42
-0.078389
  0
VERTEX
  8
LAYER_1
 62
7
 10
26.912409
 20
30.354685
 42
-0.070439
  0
VERTEX
  8
LAYER_1
 62
7
 10
27.011620
 20
29.742182
 42
-0.058523
  0
VERTEX
  8
LAYER_1
 62
7
 10
26.953002
 20
29.123534
 42
-0.089487
  0
VERTEX
  8
LAYER_1
 62
7
 10
26.466662
 20
27.904551
 42
-0.078487
  0
VERTEX
  8
LAYER_1
 62
7
 10
25.607119
 20
26.909783
 42
-0.047060
  0
VERTEX
  8
LAYER_1
 62
7
 10
24.607209
 20
26.212696
 42
-0.051542
  0
VERTEX
  8
LAYER_1
 62
7
 10
23.490929
 20
25.724544
 42
0.060969
  0
VERTEX
  8
LAYER_1
 62
7
 10
23.255253
 20
25.907804
 42
0.109054
  0
VERTEX
  8
LAYER_1
 62
7
 10
22.974715
 20
26.001686
  0
VERTEX
  8
LAYER_1
 62
7
 10
22.872792
 20
26.011171
  0
VERTEX
  8
LAYER_1
 62
7
 10
23.044774
 20
26.072624
 42
0.029411
  0
VERTEX
  8
LAYER_1
 62
7
 10
23.699733
 20
26.349971
 42
0.034992
  0
VERTEX
  8
LAYER_1
 62
7
 10
24.315097
 20
26.709570
 42
0.041938
  0
VERTEX
  8
LAYER_1
 62
7
 10
24.865948
 20
27.157166
 42
0.049283
  0
VERTEX
  8
LAYER_1
 62
7
 10
25.327364
 20
27.698505
 42
0.034226
  0
VERTEX
  8
LAYER_1
 62
7
 10
25.583267
 20
28.146692
 42
0.064167
  0
VERTEX
  8
LAYER_1
 62
7
 10
25.746605
 20
28.634550
 42
-0.248775
  0
VERTEX
  8
LAYER_1
 62
7
 10
25.033503
 20
29.362541
 42
-0.085355
  0
VERTEX
  8
LAYER_1
 62
7
 10
24.994883
 20
29.621872
 42
-0.167632
  0
VERTEX
  8
LAYER_1
 62
7
 10
25.146563
 20
30.050424
 42
-0.202385
  0
VERTEX
  8
LAYER_1
 62
7
 10
25.544815
 20
30.260399
 42
-0.172268
  0
VERTEX
  8
LAYER_1
 62
7
 10
25.839897
 20
30.186732
 42
-0.175647
  0
VERTEX
  8
LAYER_1
 62
7
 10
26.024021
 20
29.938992
 42
-0.043549
  0
VERTEX
  8
LAYER_1
 62
7
 10
26.039682
 20
29.865631
  0
VERTEX
  8
LAYER_1
 62
7
 10
25.948555
 20
29.875628
 42
0.017029
  0
VERTEX
  8
LAYER_1
 62
7
 10
25.856362
 20
29.884781
 42
0.126567
  0
VERTEX
  8
LAYER_1
 62
7
 10
25.676862
 20
29.856619
 42
0.233928
  0
VERTEX
  8
LAYER_1
 62
7
 10
25.490212
 20
29.617025
 42
0.236116
  0
VERTEX
  8
LAYER_1
 62
7
 10
25.555400
 20
29.319834
 42
0.132930
  0
VERTEX
  8
LAYER_1
 62
7
 10
25.741181
 20
29.189672
 42
0.108553
  0
VERTEX
  8
LAYER_1
 62
7
 10
25.967001
 20
29.159826
 42
0.104981
  0
VERTEX
  8
LAYER_1
 62
7
 10
26.186943
 20
29.224678
 42
0.125136
  0
VERTEX
  8
LAYER_1
 62
7
 10
26.355093
 20
29.378606
 42
0.106127
  0
VERTEX
  8
LAYER_1
 62
7
 10
26.481894
 20
29.688862
 42
0.089485
  0
VERTEX
  8
LAYER_1
 62
7
 10
26.480865
 20
30.022553
 42
0.163613
  0
VERTEX
  8
LAYER_1
 62
7
 10
26.162320
 20
30.605377
 42
0.102581
  0
VERTEX
  8
LAYER_1
 62
7
 10
25.724651
 20
30.885506
 42
0.087167
  0
VERTEX
  8
LAYER_1
 62
7
 10
25.215794
 20
30.983625
 42
0.162696
  0
VERTEX
  8
LAYER_1
 62
7
 10
24.232242
 20
30.679822
 42
0.063466
  0
VERTEX
  8
LAYER_1
 62
7
 10
23.903167
 20
30.371219
 42
0.052332
  0
VERTEX
  8
LAYER_1
 62
7
 10
23.653140
 20
29.995322
  0
VERTEX
  8
LAYER_1
 62
7
 10
23.597895
 20
29.948304
 42
0.066506
  0
VERTEX
  8
LAYER_1
 62
7
 10
23.574239
 20
30.340608
 42
-0.012727
  0
VERTEX
  8
LAYER_1
 62
7
 10
23.508561
 20
30.728798
  0
SEQEND
  0
POLYLINE
  8
LAYER_1
 62
7
 70
1
 66
1
  0
VERTEX
  8
LAYER_1
 62
7
 10
24.958274
 20
30.664149
 42
-0.091252
  0
VERTEX
  8
LAYER_1
 62
7
 10
25.175682
 20
30.698286
 42
-0.007899
  0
VERTEX
  8
LAYER_1
 62
7
 10
25.397498
 20
30.689225
 42
-0.024728
  0
VERTEX
  8
LAYER_1
 62
7
 10
25.152223
 20
30.546556
 42
0.087882
  0
VERTEX
  8
LAYER_1
 62
7
 10
24.928105
 20
30.375382
 42
0.054399
  0
VERTEX
  8
LAYER_1
 62
7
 10
24.750747
 20
30.130038
 42
0.035391
  0
VERTEX
  8
LAYER_1
 62
7
 10
24.620628
 20
29.857550
 42
0.014816
  0
VERTEX
  8
LAYER_1
 62
7
 10
24.471434
 20
29.426284
  0
VERTEX
  8
LAYER_1
 62
7
 10
24.424231
 20
29.283003
  0
VERTEX
  8
LAYER_1
 62
7
 10
24.398000
 20
29.202260
 42
-0.046407
  0
VERTEX
  8
LAYER_1
 62
7
 10
24.104995
 20
28.553621
 42
-0.048848
  0
VERTEX
  8
LAYER_1
 62
7
 10
23.647239
 20
27.894722
 42
-0.032195
  0
VERTEX
  8
LAYER_1
 62
7
 10
23.367416
 20
27.606926
 42
-0.041486
  0
VERTEX
  8
LAYER_1
 62
7
 10
23.059410
 20
27.371166
 42
-0.054391
  0
VERTEX
  8
LAYER_1
 62
7
 10
22.727556
 20
27.205643
 42
-0.068795
  0
VERTEX
  8
LAYER_1
 62
7
 10
22.376189
 20
27.128556
 42
-0.045953
  0
VERTEX
  8
LAYER_1
 62
7
 10
22.137879
 20
27.135220
 42
-0.015766
  0
VERTEX
  8
LAYER_1
 62
7
 10
21.901338
 20
27.171123
  0
VERTEX
  8
LAYER_1
 62
7
 10
21.901730
 20
27.236948
 42
0.069918
  0
VERTEX
  8
LAYER_1
 62
7
 10
22.623060
 20
27.612943
 42
0.082382
  0
VERTEX
  8
LAYER_1
 62
7
 10
23.198636
 20
28.185531
 42
0.043785
  0
VERTEX
  8
LAYER_1
 62
7
 10
23.486178
 20
28.612982
 42
0.021051
  0
VERTEX
  8
LAYER_1
 62
7
 10
23.715537
 20
29.073529
  0
VERTEX
  8
LAYER_1
 62
7
 10
23.927704
 20
29.543994
 42
-0.024666
  0
VERTEX
  8
LAYER_1
 62
7
 10
24.163675
 20
30.001199
 42
-0.057324
  0
VERTEX
  8
LAYER_1
 62
7
 10
24.509696
 20
30.396736
 42
-0.101771
  0
VERTEX
  8
LAYER_1
 62
7
 10
24.958274
 20
30.664149
  0
SEQEND
  0
POLYLINE
  8
LAYER_1
 62
7
 70
1
 66
1
  0
VERTEX
  8
LAYER_1
 62
7
 10
21.177294
 20
29.443300
 42
0.213873
  0
VERTEX
  8
LAYER_1
 62
7
 10
21.503808
 20
29.337159
 42
0.083252
  0
VERTEX
  8
LAYER_1
 62
7
 10
21.649910
 20
29.376192
 42
0.099879
  0
VERTEX
  8
LAYER_1
 62
7
 10
21.752863
 20
29.448344
 42
0.172330
  0
VERTEX
  8
LAYER_1
 62
7
 10
21.830274
 20
29.636518
 42
0.175703
  0
VERTEX
  8
LAYER_1
 62
7
 10
21.769851
 20
29.833979
 42
0.199588
  0
VERTEX
  8
LAYER_1
 62
7
 10
21.569584
 20
29.952613
 42
0.199588
  0
VERTEX
  8
LAYER_1
 62
7
 10
21.344085
 20
29.894892
 42
-0.096126
  0
VERTEX
  8
LAYER_1
 62
7
 10
21.461620
 20
30.072031
 42
-0.173573
  0
VERTEX
  8
LAYER_1
 62
7
 10
21.796527
 20
30.230780
 42
-0.121405
  0
VERTEX
  8
LAYER_1
 62
7
 10
22.175543
 20
30.182297
 42
-0.092744
  0
VERTEX
  8
LAYER_1
 62
7
 10
22.501131
 20
29.979507
 42
-0.144704
  0
VERTEX
  8
LAYER_1
 62
7
 10
22.895864
 20
29.330512
 42
-0.090974
  0
VERTEX
  8
LAYER_1
 62
7
 10
22.925659
 20
28.837969
 42
-0.082776
  0
VERTEX
  8
LAYER_1
 62
7
 10
22.779671
 20
28.342145
 42
-0.144197
  0
VERTEX
  8
LAYER_1
 62
7
 10
22.146404
 20
27.646289
 42
-0.078332
  0
VERTEX
  8
LAYER_1
 62
7
 10
21.709836
 20
27.466084
 42
-0.089178
  0
VERTEX
  8
LAYER_1
 62
7
 10
21.234470
 20
27.439124
 42
0.127188
  0
VERTEX
  8
LAYER_1
 62
7
 10
20.857348
 20
27.395780
 42
0.081366
  0
VERTEX
  8
LAYER_1
 62
7
 10
20.527245
 20
27.202860
 42
-0.037187
  0
VERTEX
  8
LAYER_1
 62
7
 10
20.644789
 20
27.401902
 42
-0.112829
  0
VERTEX
  8
LAYER_1
 62
7
 10
20.814053
 20
27.556277
 42
-0.036037
  0
VERTEX
  8
LAYER_1
 62
7
 10
21.018660
 20
27.644300
  0
VERTEX
  8
LAYER_1
 62
7
 10
21.231090
 20
27.715353
 42
0.024134
  0
VERTEX
  8
LAYER_1
 62
7
 10
21.439921
 20
27.793753
 42
0.054229
  0
VERTEX
  8
LAYER_1
 62
7
 10
21.633729
 20
27.903816
 42
0.135358
  0
VERTEX
  8
LAYER_1
 62
7
 10
21.923573
 20
28.304740
 42
0.075696
  0
VERTEX
  8
LAYER_1
 62
7
 10
22.028286
 20
28.794410
 42
0.090789
  0
VERTEX
  8
LAYER_1
 62
7
 10
21.413627
 20
28.677111
 42
0.109800
  0
VERTEX
  8
LAYER_1
 62
7
 10
20.893591
 20
28.333245
 42
0.044454
  0
VERTEX
  8
LAYER_1
 62
7
 10
20.766055
 20
28.175490
  0
VERTEX
  8
LAYER_1
 62
7
 10
20.652625
 20
28.006863
 42
0.100519
  0
VERTEX
  8
LAYER_1
 62
7
 10
20.499034
 20
28.689943
 42
0.096461
  0
VERTEX
  8
LAYER_1
 62
7
 10
20.097424
 20
29.264588
 42
0.109364
  0
VERTEX
  8
LAYER_1
 62
7
 10
20.341525
 20
29.600764
 42
0.128159
  0
VERTEX
  8
LAYER_1
 62
7
 10
21.027592
 20
29.770812
 42
0.204199
  0
VERTEX
  8
LAYER_1
 62
7
 10
21.177294
 20
29.443300
  0
SEQEND
  0
POLYLINE
  8
LAYER_1
 62
7
 70
1
 66
1
  0
VERTEX
  8
LAYER_1
 62
7
 10
24.643969
 20
29.041413
  0
VERTEX
  8
LAYER_1
 62
7
 10
24.702666
 20
28.957683
 42
0.031113
  0
VERTEX
  8
LAYER_1
 62
7
 10
24.873087
 20
28.738955
 42
0.067118
  0
VERTEX
  8
LAYER_1
 62
7
 10
25.082480
 20
28.558146
 42
0.054678
  0
VERTEX
  8
LAYER_1
 62
7
 10
25.135593
 20
28.518323
  0
VERTEX
  8
LAYER_1
 62
7
 10
25.198558
 20
28.479306
  0
VERTEX
  8
LAYER_1
 62
7
 10
25.305451
 20
28.409041
  0
VERTEX
  8
LAYER_1
 62
7
 10
25.239118
 20
28.277708
 42
-0.061088
  0
VERTEX
  8
LAYER_1
 62
7
 10
24.804945
 20
27.633124
 42
-0.053516
  0
VERTEX
  8
LAYER_1
 62
7
 10
24.235769
 20
27.102947
 42
-0.038709
  0
VERTEX
  8
LAYER_1
 62
7
 10
23.801773
 20
26.832412
 42
-0.024285
  0
VERTEX
  8
LAYER_1
 62
7
 10
23.337730
 20
26.618958
 42
-0.009755
  0
VERTEX
  8
LAYER_1
 62
7
 10
22.858406
 20
26.436801
  0
VERTEX
  8
LAYER_1
 62
7
 10
22.617628
 20
26.349401
  0
VERTEX
  8
LAYER_1
 62
7
 10
22.378568
 20
26.260154
 42
0.016205
  0
VERTEX
  8
LAYER_1
 62
7
 10
22.129074
 20
26.153422
 42
0.035301
  0
VERTEX
  8
LAYER_1
 62
7
 10
21.889828
 20
26.020756
 42
0.057863
  0
VERTEX
  8
LAYER_1
 62
7
 10
21.682393
 20
25.849006
 42
0.079267
  0
VERTEX
  8
LAYER_1
 62
7
 10
21.528331
 20
25.625023
 42
0.109301
  0
VERTEX
  8
LAYER_1
 62
7
 10
21.436842
 20
25.329742
 42
0.038139
  0
VERTEX
  8
LAYER_1
 62
7
 10
21.434687
 20
25.017711
 42
0.037020
  0
VERTEX
  8
LAYER_1
 62
7
 10
20.854312
 20
25.403795
 42
0.062498
  0
VERTEX
  8
LAYER_1
 62
7
 10
20.211050
 20
25.667339
 42
0.018048
  0
VERTEX
  8
LAYER_1
 62
7
 10
20.356854
 20
25.804964
 42
0.070267
  0
VERTEX
  8
LAYER_1
 62
7
 10
20.475917
 20
25.965510
 42
0.094828
  0
VERTEX
  8
LAYER_1
 62
7
 10
20.553570
 20
26.191654
 42
0.029660
  0
VERTEX
  8
LAYER_1
 62
7
 10
20.572891
 20
26.432014
 42
-0.033996
  0
VERTEX
  8
LAYER_1
 62
7
 10
20.594269
 20
26.672153
 42
-0.098177
  0
VERTEX
  8
LAYER_1
 62
7
 10
20.678093
 20
26.897636
 42
-0.050474
  0
VERTEX
  8
LAYER_1
 62
7
 10
20.726727
 20
26.968050
 42
-0.144823
  0
VERTEX
  8
LAYER_1
 62
7
 10
20.958715
 20
27.112596
 42
-0.109437
  0
VERTEX
  8
LAYER_1
 62
7
 10
21.244761
 20
27.130937
 42
-0.124150
  0
VERTEX
  8
LAYER_1
 62
7
 10
21.503622
 20
27.025750
 42
-0.175257
  0
VERTEX
  8
LAYER_1
 62
7
 10
21.654053
 20
26.799712
 42
-0.187154
  0
VERTEX
  8
LAYER_1
 62
7
 10
21.631770
 20
26.613571
  0
VERTEX
  8
LAYER_1
 62
7
 10
21.627973
 20
26.618780
 42
0.151338
  0
VERTEX
  8
LAYER_1
 62
7
 10
21.507038
 20
26.755170
 42
0.199588
  0
VERTEX
  8
LAYER_1
 62
7
 10
21.263954
 20
26.795828
 42
0.199588
  0
VERTEX
  8
LAYER_1
 62
7
 10
21.063318
 20
26.652693
 42
0.114462
  0
VERTEX
  8
LAYER_1
 62
7
 10
21.016085
 20
26.515667
 42
0.160854
  0
VERTEX
  8
LAYER_1
 62
7
 10
21.055761
 20
26.332339
 42
0.110681
  0
VERTEX
  8
LAYER_1
 62
7
 10
21.187303
 20
26.194721
 42
0.155130
  0
VERTEX
  8
LAYER_1
 62
7
 10
21.546452
 20
26.085456
 42
0.080111
  0
VERTEX
  8
LAYER_1
 62
7
 10
21.726099
 20
26.123477
 42
0.199588
  0
VERTEX
  8
LAYER_1
 62
7
 10
22.040514
 20
26.421946
 42
0.199588
  0
VERTEX
  8
LAYER_1
 62
7
 10
22.051795
 20
26.855320
  0
VERTEX
  8
LAYER_1
 62
7
 10
22.225827
 20
26.854379
 42
0.012387
  0
VERTEX
  8
LAYER_1
 62
7
 10
22.399889
 20
26.855363
 42
0.061370
  0
VERTEX
  8
LAYER_1
 62
7
 10
22.782428
 20
26.917867
 42
0.051663
  0
VERTEX
  8
LAYER_1
 62
7
 10
23.145314
 20
27.066389
 42
0.077107
  0
VERTEX
  8
LAYER_1
 62
7
 10
23.790339
 20
27.560469
 42
0.058329
  0
VERTEX
  8
LAYER_1
 62
7
 10
24.291386
 20
28.215561
 42
0.059722
  0
VERTEX
  8
LAYER_1
 62
7
 10
24.604876
 20
28.909626
  0
VERTEX
  8
LAYER_1
 62
7
 10
24.611934
 20
28.933125
  0
VERTEX
  8
LAYER_1
 62
7
 10
24.643969
 20
29.041413
  0
SEQEND
  0
POLYLINE
  8
LAYER_1
 62
7
 70
1
 66
1
  0
VERTEX
  8
LAYER_1
 62
7
 10
26.767282
 20
27.673821
  0
VERTEX
  8
LAYER_1
 62
7
 10
26.878165
 20
27.827069
 42
-0.031034
  0
VERTEX
  8
LAYER_1
 62
7
 10
27.000803
 20
27.971208
 42
-0.059168
  0
VERTEX
  8
LAYER_1
 62
7
 10
26.815818
 20
27.340191
 42
-0.047930
  0
VERTEX
  8
LAYER_1
 62
7
 10
26.501240
 20
26.762069
 42
-0.037952
  0
VERTEX
  8
LAYER_1
 62
7
 10
26.166459
 20
26.344523
 42
-0.010515
  0
VERTEX
  8
LAYER_1
 62
7
 10
25.792154
 20
25.960661
 42
0.016819
  0
VERTEX
  8
LAYER_1
 62
7
 10
25.423285
 20
25.572759
 42
0.044244
  0
VERTEX
  8
LAYER_1
 62
7
 10
25.104813
 20
25.143091
 42
0.032226
  0
VERTEX
  8
LAYER_1
 62
7
 10
24.966209
 20
24.887089
 42
0.011801
  0
VERTEX
  8
LAYER_1
 62
7
 10
24.850525
 20
24.619627
 42
0.102695
  0
VERTEX
  8
LAYER_1
 62
7
 10
24.382944
 20
25.026086
 42
0.095446
  0
VERTEX
  8
LAYER_1
 62
7
 10
23.794585
 20
25.223021
 42
0.043423
  0
VERTEX
  8
LAYER_1
 62
7
 10
24.662944
 20
25.665796
 42
0.037168
  0
VERTEX
  8
LAYER_1
 62
7
 10
25.447553
 20
26.241249
 42
0.031184
  0
VERTEX
  8
LAYER_1
 62
7
 10
26.148852
 20
26.920288
 42
0.026138
  0
VERTEX
  8
LAYER_1
 62
7
 10
26.767282
 20
27.673821
  0
SEQEND
  0
POLYLINE
  8
LAYER_1
 62
7
 70
1
 66
1
  0
VERTEX
  8
LAYER_1
 62
7
 10
22.297462
 20
25.802515
 42
-0.147946
  0
VERTEX
  8
LAYER_1
 62
7
 10
22.829889
 20
25.808392
 42
-0.171896
  0
VERTEX
  8
LAYER_1
 62
7
 10
23.264460
 20
25.506303
 42
-0.084434
  0
VERTEX
  8
LAYER_1
 62
7
 10
23.424125
 20
25.184771
 42
-0.030102
  0
VERTEX
  8
LAYER_1
 62
7
 10
23.507385
 20
24.833558
 42
-0.148345
  0
VERTEX
  8
LAYER_1
 62
7
 10
24.024434
 20
24.800792
 42
-0.110628
  0
VERTEX
  8
LAYER_1
 62
7
 10
24.464196
 20
24.518539
 42
-0.119730
  0
VERTEX
  8
LAYER_1
 62
7
 10
24.812519
 20
23.917104
 42
-0.123067
  0
VERTEX
  8
LAYER_1
 62
7
 10
24.811148
 20
23.234171
 42
-0.128992
  0
VERTEX
  8
LAYER_1
 62
7
 10
24.485354
 20
22.634695
 42
0.044273
  0
VERTEX
  8
LAYER_1
 62
7
 10
24.504259
 20
23.063438
 42
0.094593
  0
VERTEX
  8
LAYER_1
 62
7
 10
24.406208
 20
23.478663
 42
0.118140
  0
VERTEX
  8
LAYER_1
 62
7
 10
24.033543
 20
23.956236
 42
0.127334
  0
VERTEX
  8
LAYER_1
 62
7
 10
23.483093
 20
24.206655
 42
0.057617
  0
VERTEX
  8
LAYER_1
 62
7
 10
22.995235
 20
24.234180
 42
0.090209
  0
VERTEX
  8
LAYER_1
 62
7
 10
22.522364
 20
24.120064
 42
0.143998
  0
VERTEX
  8
LAYER_1
 62
7
 10
21.857063
 20
23.571132
 42
0.120875
  0
VERTEX
  8
LAYER_1
 62
7
 10
21.354953
 20
23.725947
 42
0.167062
  0
VERTEX
  8
LAYER_1
 62
7
 10
20.854018
 20
23.591898
 42
0.107413
  0
VERTEX
  8
LAYER_1
 62
7
 10
20.623533
 20
23.382424
 42
0.048326
  0
VERTEX
  8
LAYER_1
 62
7
 10
20.466513
 20
23.110358
 42
-0.076389
  0
VERTEX
  8
LAYER_1
 62
7
 10
20.376053
 20
23.464803
 42
-0.054218
  0
VERTEX
  8
LAYER_1
 62
7
 10
20.379922
 20
23.831296
 42
-0.131593
  0
VERTEX
  8
LAYER_1
 62
7
 10
20.523179
 20
24.136961
 42
-0.212418
  0
VERTEX
  8
LAYER_1
 62
7
 10
20.818363
 20
24.284234
 42
0.105688
  0
VERTEX
  8
LAYER_1
 62
7
 10
20.771104
 20
24.186396
 42
0.199588
  0
VERTEX
  8
LAYER_1
 62
7
 10
20.800898
 20
23.979654
 42
0.199588
  0
VERTEX
  8
LAYER_1
 62
7
 10
20.968153
 20
23.854530
 42
0.198122
  0
VERTEX
  8
LAYER_1
 62
7
 10
21.173563
 20
23.883537
 42
0.226376
  0
VERTEX
  8
LAYER_1
 62
7
 10
21.310610
 20
24.094045
 42
0.188359
  0
VERTEX
  8
LAYER_1
 62
7
 10
21.257605
 20
24.341984
 42
0.097275
  0
VERTEX
  8
LAYER_1
 62
7
 10
21.149649
 20
24.445980
 42
0.070927
  0
VERTEX
  8
LAYER_1
 62
7
 10
21.008115
 20
24.511533
 42
0.116106
  0
VERTEX
  8
LAYER_1
 62
7
 10
20.703691
 20
24.532390
 42
0.134220
  0
VERTEX
  8
LAYER_1
 62
7
 10
20.429903
 20
24.402136
 42
0.096383
  0
VERTEX
  8
LAYER_1
 62
7
 10
20.242780
 20
24.160541
 42
0.063884
  0
VERTEX
  8
LAYER_1
 62
7
 10
20.134358
 20
23.859068
 42
0.051415
  0
VERTEX
  8
LAYER_1
 62
7
 10
20.096672
 20
23.549178
  0
VERTEX
  8
LAYER_1
 62
7
 10
20.097816
 20
23.461815
  0
VERTEX
  8
LAYER_1
 62
7
 10
20.023371
 20
23.528424
  0
VERTEX
  8
LAYER_1
 62
7
 10
20.017762
 20
23.610673
 42
-0.030446
  0
VERTEX
  8
LAYER_1
 62
7
 10
20.006852
 20
23.980514
 42
-0.060436
  0
VERTEX
  8
LAYER_1
 62
7
 10
20.056224
 20
24.303386
 42
-0.078287
  0
VERTEX
  8
LAYER_1
 62
7
 10
20.193157
 20
24.595783
 42
-0.066224
  0
VERTEX
  8
LAYER_1
 62
7
 10
20.444929
 20
24.874198
 42
-0.044555
  0
VERTEX
  8
LAYER_1
 62
7
 10
20.694941
 20
25.054541
  0
VERTEX
  8
LAYER_1
 62
7
 10
20.788585
 20
25.051015
  0
VERTEX
  8
LAYER_1
 62
7
 10
21.005030
 20
24.906113
 42
-0.003524
  0
VERTEX
  8
LAYER_1
 62
7
 10
21.274799
 20
24.717100
  0
VERTEX
  8
LAYER_1
 62
7
 10
21.372067
 20
24.649655
 42
0.039695
  0
VERTEX
  8
LAYER_1
 62
7
 10
21.788554
 20
24.404072
 42
0.039283
  0
VERTEX
  8
LAYER_1
 62
7
 10
22.008361
 20
24.320154
 42
0.056222
  0
VERTEX
  8
LAYER_1
 62
7
 10
22.232155
 20
24.280711
 42
0.153082
  0
VERTEX
  8
LAYER_1
 62
7
 10
22.680537
 20
24.390920
 42
0.139759
  0
VERTEX
  8
LAYER_1
 62
7
 10
22.907836
 20
24.626635
 42
0.147742
  0
VERTEX
  8
LAYER_1
 62
7
 10
22.970606
 20
24.982613
 42
0.129681
  0
VERTEX
  8
LAYER_1
 62
7
 10
22.896331
 20
25.184459
 42
0.281108
  0
VERTEX
  8
LAYER_1
 62
7
 10
22.468548
 20
25.364520
 42
0.185038
  0
VERTEX
  8
LAYER_1
 62
7
 10
22.303872
 20
25.262824
 42
0.185038
  0
VERTEX
  8
LAYER_1
 62
7
 10
22.249756
 20
25.076997
 42
0.199588
  0
VERTEX
  8
LAYER_1
 62
7
 10
22.343996
 20
24.892090
 42
0.199588
  0
VERTEX
  8
LAYER_1
 62
7
 10
22.541382
 20
24.827977
 42
-0.157254
  0
VERTEX
  8
LAYER_1
 62
7
 10
22.355664
 20
24.736036
 42
-0.122694
  0
VERTEX
  8
LAYER_1
 62
7
 10
22.148898
 20
24.756538
 42
-0.115174
  0
VERTEX
  8
LAYER_1
 62
7
 10
21.970429
 20
24.868814
 42
-0.142084
  0
VERTEX
  8
LAYER_1
 62
7
 10
21.869601
 20
25.052190
 42
-0.106296
  0
VERTEX
  8
LAYER_1
 62
7
 10
21.865322
 20
25.284640
 42
-0.088482
  0
VERTEX
  8
LAYER_1
 62
7
 10
21.949384
 20
25.500671
 42
-0.158443
  0
VERTEX
  8
LAYER_1
 62
7
 10
22.297462
 20
25.802515
  0
SEQEND
  0
POLYLINE
  8
LAYER_1
 62
7
 70
1
 66
1
  0
VERTEX
  8
LAYER_1
 62
7
 10
22.961196
 20
23.919846
 42
-0.106558
  0
VERTEX
  8
LAYER_1
 62
7
 10
23.451748
 20
23.920581
 42
-0.123541
  0
VERTEX
  8
LAYER_1
 62
7
 10
23.891755
 20
23.708267
 42
-0.163621
  0
VERTEX
  8
LAYER_1
 62
7
 10
24.173029
 20
23.076809
 42
-0.088716
  0
VERTEX
  8
LAYER_1
 62
7
 10
24.146808
 20
22.729765
 42
-0.105732
  0
VERTEX
  8
LAYER_1
 62
7
 10
23.990884
 20
22.418022
 42
-0.079120
  0
VERTEX
  8
LAYER_1
 62
7
 10
23.826408
 20
22.281125
 42
-0.054165
  0
VERTEX
  8
LAYER_1
 62
7
 10
23.633942
 20
22.194149
 42
-0.027051
  0
VERTEX
  8
LAYER_1
 62
7
 10
23.426782
 20
22.138395
  0
VERTEX
  8
LAYER_1
 62
7
 10
23.218226
 20
22.095166
 42
-0.103943
  0
VERTEX
  8
LAYER_1
 62
7
 10
23.071590
 20
21.661673
 42
-0.131706
  0
VERTEX
  8
LAYER_1
 62
7
 10
22.748049
 20
21.341315
 42
-0.061855
  0
VERTEX
  8
LAYER_1
 62
7
 10
22.539671
 20
21.242664
 42
-0.043365
  0
VERTEX
  8
LAYER_1
 62
7
 10
22.316710
 20
21.190369
 42
-0.024047
  0
VERTEX
  8
LAYER_1
 62
7
 10
22.086476
 20
21.168195
  0
VERTEX
  8
LAYER_1
 62
7
 10
21.856279
 20
21.159905
  0
VERTEX
  8
LAYER_1
 62
7
 10
22.109636
 20
21.268971
 42
0.025764
  0
VERTEX
  8
LAYER_1
 62
7
 10
22.357410
 20
21.394161
 42
0.048306
  0
VERTEX
  8
LAYER_1
 62
7
 10
22.581381
 20
21.552485
 42
0.069653
  0
VERTEX
  8
LAYER_1
 62
7
 10
22.763330
 20
21.760949
 42
0.114843
  0
VERTEX
  8
LAYER_1
 62
7
 10
22.910750
 20
22.126316
 42
0.067905
  0
VERTEX
  8
LAYER_1
 62
7
 10
22.918880
 20
22.523420
 42
-0.041115
  0
VERTEX
  8
LAYER_1
 62
7
 10
22.772892
 20
22.264363
 42
-0.054584
  0
VERTEX
  8
LAYER_1
 62
7
 10
22.580254
 20
22.036639
 42
-0.074576
  0
VERTEX
  8
LAYER_1
 62
7
 10
22.340452
 20
21.868349
 42
-0.092755
  0
VERTEX
  8
LAYER_1
 62
7
 10
22.052970
 20
21.787592
 42
-0.027231
  0
VERTEX
  8
LAYER_1
 62
7
 10
22.050798
 20
22.037645
 42
-0.084506
  0
VERTEX
  8
LAYER_1
 62
7
 10
22.103052
 20
22.279805
 42
-0.041328
  0
VERTEX
  8
LAYER_1
 62
7
 10
22.240428
 20
22.533473
 42
-0.038100
  0
VERTEX
  8
LAYER_1
 62
7
 10
22.452971
 20
22.815085
 42
-0.055464
  0
VERTEX
  8
LAYER_1
 62
7
 10
22.717066
 20
23.058246
 42
-0.101982
  0
VERTEX
  8
LAYER_1
 62
7
 10
23.009099
 20
23.196563
 42
-0.139656
  0
VERTEX
  8
LAYER_1
 62
7
 10
23.250491
 20
23.184673
 42
-0.210522
  0
VERTEX
  8
LAYER_1
 62
7
 10
23.407436
 20
23.042546
 42
0.196375
  0
VERTEX
  8
LAYER_1
 62
7
 10
23.251655
 20
22.967544
 42
0.196375
  0
VERTEX
  8
LAYER_1
 62
7
 10
23.192712
 20
22.805006
 42
0.311931
  0
VERTEX
  8
LAYER_1
 62
7
 10
23.349038
 20
22.596236
 42
0.224562
  0
VERTEX
  8
LAYER_1
 62
7
 10
23.595068
 20
22.622195
 42
0.196943
  0
VERTEX
  8
LAYER_1
 62
7
 10
23.738646
 20
22.820466
 42
0.136274
  0
VERTEX
  8
LAYER_1
 62
7
 10
23.729100
 20
23.076927
 42
0.121244
  0
VERTEX
  8
LAYER_1
 62
7
 10
23.595419
 20
23.300037
 42
0.121309
  0
VERTEX
  8
LAYER_1
 62
7
 10
23.353838
 20
23.448286
 42
0.098145
  0
VERTEX
  8
LAYER_1
 62
7
 10
23.082292
 20
23.476363
 42
0.093899
  0
VERTEX
  8
LAYER_1
 62
7
 10
22.701843
 20
23.374880
 42
0.078259
  0
VERTEX
  8
LAYER_1
 62
7
 10
22.405751
 20
23.165214
 42
0.043711
  0
VERTEX
  8
LAYER_1
 62
7
 10
22.163995
 20
22.883620
 42
0.011436
  0
VERTEX
  8
LAYER_1
 62
7
 10
21.946552
 20
22.566349
  0
VERTEX
  8
LAYER_1
 62
7
 10
21.891934
 20
22.486197
 42
0.165346
  0
VERTEX
  8
LAYER_1
 62
7
 10
21.274043
 20
23.018281
 42
0.042473
  0
VERTEX
  8
LAYER_1
 62
7
 10
21.143667
 20
22.485414
 42
0.075753
  0
VERTEX
  8
LAYER_1
 62
7
 10
21.140826
 20
21.938441
 42
-0.087189
  0
VERTEX
  8
LAYER_1
 62
7
 10
20.888498
 20
22.306746
 42
-0.105430
  0
VERTEX
  8
LAYER_1
 62
7
 10
20.791328
 20
22.740877
 42
-0.079967
  0
VERTEX
  8
LAYER_1
 62
7
 10
20.826934
 20
23.012698
 42
-0.125469
  0
VERTEX
  8
LAYER_1
 62
7
 10
20.965685
 20
23.246317
 42
-0.153792
  0
VERTEX
  8
LAYER_1
 62
7
 10
21.200284
 20
23.373265
 42
-0.092855
  0
VERTEX
  8
LAYER_1
 62
7
 10
21.470734
 20
23.376792
 42
-0.115877
  0
VERTEX
  8
LAYER_1
 62
7
 10
21.709104
 20
23.280846
 42
-0.044019
  0
VERTEX
  8
LAYER_1
 62
7
 10
21.908391
 20
23.113492
 42
-0.237116
  0
VERTEX
  8
LAYER_1
 62
7
 10
22.961196
 20
23.919846
  0
SEQEND
  0
POLYLINE
  8
LAYER_1
 62
7
 70
1
 66
1
  0
VERTEX
  8
LAYER_1
 62
7
 10
25.907641
 20
23.165212
 42
0.040427
  0
VERTEX
  8
LAYER_1
 62
7
 10
26.278297
 20
23.216540
 42
-0.074863
  0
VERTEX
  8
LAYER_1
 62
7
 10
26.882080
 20
22.474462
  0
VERTEX
  8
LAYER_1
 62
7
 10
27.011841
 20
22.255681
  0
VERTEX
  8
LAYER_1
 62
7
 10
27.012626
 20
21.983461
  0
VERTEX
  8
LAYER_1
 62
7
 10
27.012950
 20
21.954897
 42
0.003929
  0
VERTEX
  8
LAYER_1
 62
7
 10
27.012162
 20
21.524878
  0
VERTEX
  8
LAYER_1
 62
7
 10
27.011461
 20
21.381588
  0
VERTEX
  8
LAYER_1
 62
7
 10
27.008272
 20
21.124887
  0
VERTEX
  8
LAYER_1
 62
7
 10
26.881205
 20
21.461176
 42
0.041286
  0
VERTEX
  8
LAYER_1
 62
7
 10
26.455675
 20
22.347589
 42
0.030356
  0
VERTEX
  8
LAYER_1
 62
7
 10
25.907641
 20
23.165212
  0
SEQEND
  0
POLYLINE
  8
LAYER_1
 62
7
 70
1
 66
1
  0
VERTEX
  8
LAYER_1
 62
7
 10
21.466424
 20
22.560250
 42
-0.099810
  0
VERTEX
  8
LAYER_1
 62
7
 10
21.633257
 20
22.320356
 42
-0.076675
  0
VERTEX
  8
LAYER_1
 62
7
 10
21.704402
 20
22.041929
 42
-0.051562
  0
VERTEX
  8
LAYER_1
 62
7
 10
21.703184
 20
21.747707
 42
-0.034268
  0
VERTEX
  8
LAYER_1
 62
7
 10
21.652928
 20
21.460427
 42
-0.096499
  0
VERTEX
  8
LAYER_1
 62
7
 10
21.489841
 20
21.701479
 42
-0.073971
  0
VERTEX
  8
LAYER_1
 62
7
 10
21.418476
 20
21.980365
 42
-0.051084
  0
VERTEX
  8
LAYER_1
 62
7
 10
21.417710
 20
22.274238
 42
-0.035853
  0
VERTEX
  8
LAYER_1
 62
7
 10
21.466424
 20
22.560250
  0
SEQEND
  0
POLYLINE
  8
LAYER_1
 62
7
 70
1
 66
1
  0
VERTEX
  8
LAYER_1
 62
7
 10
23.513699
 20
21.804894
 42
0.124635
  0
VERTEX
  8
LAYER_1
 62
7
 10
24.356056
 20
22.170003
  0
VERTEX
  8
LAYER_1
 62
7
 10
24.326843
 20
22.065713
 42
0.075483
  0
VERTEX
  8
LAYER_1
 62
7
 10
24.300717
 20
21.892409
 42
0.096124
  0
VERTEX
  8
LAYER_1
 62
7
 10
24.331501
 20
21.733689
 42
0.112950
  0
VERTEX
  8
LAYER_1
 62
7
 10
24.423696
 20
21.603162
 42
0.104695
  0
VERTEX
  8
LAYER_1
 62
7
 10
24.581800
 20
21.514435
 42
0.082211
  0
VERTEX
  8
LAYER_1
 62
7
 10
24.704692
 20
21.494909
  0
VERTEX
  8
LAYER_1
 62
7
 10
24.710643
 20
21.494393
 42
0.199588
  0
VERTEX
  8
LAYER_1
 62
7
 10
24.914054
 20
21.561131
 42
0.199588
  0
VERTEX
  8
LAYER_1
 62
7
 10
25.010699
 20
21.752154
 42
0.199588
  0
VERTEX
  8
LAYER_1
 62
7
 10
24.943961
 20
21.955564
 42
0.199588
  0
VERTEX
  8
LAYER_1
 62
7
 10
24.752938
 20
22.052209
 42
-0.294319
  0
VERTEX
  8
LAYER_1
 62
7
 10
25.136194
 20
22.057737
 42
-0.213479
  0
VERTEX
  8
LAYER_1
 62
7
 10
25.298441
 20
21.830550
 42
-0.167207
  0
VERTEX
  8
LAYER_1
 62
7
 10
25.252523
 20
21.424431
 42
-0.113509
  0
VERTEX
  8
LAYER_1
 62
7
 10
24.995339
 20
21.114368
 42
-0.063291
  0
VERTEX
  8
LAYER_1
 62
7
 10
24.631660
 20
20.897971
 42
-0.044653
  0
VERTEX
  8
LAYER_1
 62
7
 10
24.266255
 20
20.772852
 42
-0.064232
  0
VERTEX
  8
LAYER_1
 62
7
 10
23.605339
 20
20.703833
  0
VERTEX
  8
LAYER_1
 62
7
 10
23.655874
 20
20.727322
 42
0.016885
  0
VERTEX
  8
LAYER_1
 62
7
 10
23.821608
 20
20.810111
 42
0.040026
  0
VERTEX
  8
LAYER_1
 62
7
 10
24.013698
 20
20.934221
 42
0.088735
  0
VERTEX
  8
LAYER_1
 62
7
 10
24.164165
 20
21.094309
 42
0.187462
  0
VERTEX
  8
LAYER_1
 62
7
 10
24.205034
 20
21.285033
 42
0.280192
  0
VERTEX
  8
LAYER_1
 62
7
 10
24.063743
 20
21.446689
 42
0.132460
  0
VERTEX
  8
LAYER_1
 62
7
 10
23.961818
 20
21.445711
 42
0.076523
  0
VERTEX
  8
LAYER_1
 62
7
 10
23.865813
 20
21.401625
 42
0.032806
  0
VERTEX
  8
LAYER_1
 62
7
 10
23.778335
 20
21.336134
  0
VERTEX
  8
LAYER_1
 62
7
 10
23.701991
 20
21.270941
 42
-0.027013
  0
VERTEX
  8
LAYER_1
 62
7
 10
23.514536
 20
21.129671
 42
-0.054172
  0
VERTEX
  8
LAYER_1
 62
7
 10
23.307168
 20
21.020811
 42
-0.099006
  0
VERTEX
  8
LAYER_1
 62
7
 10
23.025062
 20
20.970659
 42
-0.009024
  0
VERTEX
  8
LAYER_1
 62
7
 10
22.735903
 20
20.981630
 42
0.204737
  0
VERTEX
  8
LAYER_1
 62
7
 10
23.513699
 20
21.804894
  0
SEQEND
  0
POLYLINE
  8
LAYER_1
 62
7
 70
1
 66
1
  0
VERTEX
  8
LAYER_1
 62
7
 10
25.446277
 20
21.131297
 42
-0.125816
  0
VERTEX
  8
LAYER_1
 62
7
 10
25.589453
 20
21.210943
 42
-0.179796
  0
VERTEX
  8
LAYER_1
 62
7
 10
25.738734
 20
21.193220
 42
-0.174751
  0
VERTEX
  8
LAYER_1
 62
7
 10
25.845575
 20
21.079409
 42
-0.151723
  0
VERTEX
  8
LAYER_1
 62
7
 10
25.867561
 20
20.898209
 42
-0.108394
  0
VERTEX
  8
LAYER_1
 62
7
 10
25.794563
 20
20.732349
 42
-0.108240
  0
VERTEX
  8
LAYER_1
 62
7
 10
25.537448
 20
20.503983
 42
-0.063830
  0
VERTEX
  8
LAYER_1
 62
7
 10
25.193855
 20
20.363254
 42
-0.068267
  0
VERTEX
  8
LAYER_1
 62
7
 10
24.481294
 20
20.275470
 42
-0.038055
  0
VERTEX
  8
LAYER_1
 62
7
 10
23.755144
 20
20.347328
  0
VERTEX
  8
LAYER_1
 62
7
 10
23.706427
 20
20.355510
  0
VERTEX
  8
LAYER_1
 62
7
 10
23.663719
 20
20.424861
  0
VERTEX
  8
LAYER_1
 62
7
 10
23.725011
 20
20.429738
 42
0.027867
  0
VERTEX
  8
LAYER_1
 62
7
 10
24.205895
 20
20.495443
 42
0.041448
  0
VERTEX
  8
LAYER_1
 62
7
 10
24.641238
 20
20.618320
 42
0.099080
  0
VERTEX
  8
LAYER_1
 62
7
 10
25.426409
 20
21.113146
  0
VERTEX
  8
LAYER_1
 62
7
 10
25.446277
 20
21.131297
  0
SEQEND
  0
POLYLINE
  8
LAYER_1
 62
7
 70
1
 66
1
  0
VERTEX
  8
LAYER_1
 62
7
 10
19.685039
 20
4.544403
 42
0.010514
  0
VERTEX
  8
LAYER_1
 62
7
 10
19.309877
 20
4.541726
 42
-0.053308
  0
VERTEX
  8
LAYER_1
 62
7
 10
19.383724
 20
5.586264
 42
-0.053426
  0
VERTEX
  8
LAYER_1
 62
7
 10
19.685039
 20
6.588226
 42
-0.053426
  0
VERTEX
  8
LAYER_1
 62
7
 10
19.986355
 20
5.586264
 42
-0.053308
  0
VERTEX
  8
LAYER_1
 62
7
 10
20.060202
 20
4.541726
 42
0.010514
  0
VERTEX
  8
LAYER_1
 62
7
 10
19.685039
 20
4.544403
  0
SEQEND
  0
POLYLINE
  8
LAYER_1
 62
7
 70
1
 66
1
  0
VERTEX
  8
LAYER_1
 62
7
 10
19.685039
 20
7.495400
  0
VERTEX
  8
LAYER_1
 62
7
 10
19.683668
 20
7.491697
  0
VERTEX
  8
LAYER_1
 62
7
 10
19.537619
 20
7.933039
 42
-0.015705
  0
VERTEX
  8
LAYER_1
 62
7
 10
19.405088
 20
8.380626
 42
-0.031807
  0
VERTEX
  8
LAYER_1
 62
7
 10
19.316048
 20
8.836000
 42
-0.047714
  0
VERTEX
  8
LAYER_1
 62
7
 10
19.300473
 20
9.300704
 42
-0.166962
  0
VERTEX
  8
LAYER_1
 62
7
 10
19.439959
 20
9.683115
 42
-0.201533
  0
VERTEX
  8
LAYER_1
 62
7
 10
19.685039
 20
9.782234
 42
-0.201533
  0
VERTEX
  8
LAYER_1
 62
7
 10
19.930119
 20
9.683115
 42
-0.166962
  0
VERTEX
  8
LAYER_1
 62
7
 10
20.069605
 20
9.300704
 42
-0.047714
  0
VERTEX
  8
LAYER_1
 62
7
 10
20.054031
 20
8.836000
 42
-0.031807
  0
VERTEX
  8
LAYER_1
 62
7
 10
19.964991
 20
8.380626
 42
-0.015705
  0
VERTEX
  8
LAYER_1
 62
7
 10
19.832460
 20
7.933039
  0
VERTEX
  8
LAYER_1
 62
7
 10
19.686411
 20
7.491697
  0
VERTEX
  8
LAYER_1
 62
7
 10
19.685039
 20
7.495400
  0
SEQEND
  0
POLYLINE
  8
LAYER_1
 62
7
 70
1
 66
1
  0
VERTEX
  8
LAYER_1
 62
7
 10
19.685039
 20
10.351668
 42
-0.143627
  0
VERTEX
  8
LAYER_1
 62
7
 10
19.567100
 20
10.394980
 42
-0.047340
  0
VERTEX
  8
LAYER_1
 62
7
 10
19.468170
 20
10.480066
 42
-0.067612
  0
VERTEX
  8
LAYER_1
 62
7
 10
19.311150
 20
10.666080
 42
-0.034719
  0
VERTEX
  8
LAYER_1
 62
7
 10
19.194684
 20
10.880892
 42
-0.018493
  0
VERTEX
  8
LAYER_1
 62
7
 10
19.165868
 20
10.970635
 42
-0.048517
  0
VERTEX
  8
LAYER_1
 62
7
 10
19.116396
 20
11.257498
 42
-0.035109
  0
VERTEX
  8
LAYER_1
 62
7
 10
19.114863
 20
11.569679
 42
-0.044057
  0
VERTEX
  8
LAYER_1
 62
7
 10
19.221935
 20
12.233186
 42
-0.024834
  0
VERTEX
  8
LAYER_1
 62
7
 10
19.419727
 20
12.887542
 42
-0.013706
  0
VERTEX
  8
LAYER_1
 62
7
 10
19.640884
 20
13.459136
  0
VERTEX
  8
LAYER_1
 62
7
 10
19.664447
 20
13.519397
  0
VERTEX
  8
LAYER_1
 62
7
 10
19.685055
 20
13.571937
  0
VERTEX
  8
LAYER_1
 62
7
 10
19.710977
 20
13.505761
  0
VERTEX
  8
LAYER_1
 62
7
 10
19.729195
 20
13.459136
 42
-0.013706
  0
VERTEX
  8
LAYER_1
 62
7
 10
19.950352
 20
12.887542
 42
-0.024834
  0
VERTEX
  8
LAYER_1
 62
7
 10
20.148144
 20
12.233186
 42
-0.044057
  0
VERTEX
  8
LAYER_1
 62
7
 10
20.255216
 20
11.569679
 42
-0.035109
  0
VERTEX
  8
LAYER_1
 62
7
 10
20.253683
 20
11.257498
 42
-0.048517
  0
VERTEX
  8
LAYER_1
 62
7
 10
20.204210
 20
10.970635
 42
-0.018493
  0
VERTEX
  8
LAYER_1
 62
7
 10
20.175395
 20
10.880892
 42
-0.034719
  0
VERTEX
  8
LAYER_1
 62
7
 10
20.058928
 20
10.666080
 42
-0.067612
  0
VERTEX
  8
LAYER_1
 62
7
 10
19.901909
 20
10.480066
 42
-0.047340
  0
VERTEX
  8
LAYER_1
 62
7
 10
19.802979
 20
10.394980
 42
-0.143627
  0
VERTEX
  8
LAYER_1
 62
7
 10
19.685039
 20
10.351668
  0
SEQEND
  0
POLYLINE
  8
LAYER_1
 62
7
 70
1
 66
1
  0
VERTEX
  8
LAYER_1
 62
7
 10
19.685039
 20
13.954167
 42
-0.108672
  0
VERTEX
  8
LAYER_1
 62
7
 10
19.010139
 20
14.097689
 42
0.104758
  0
VERTEX
  8
LAYER_1
 62
7
 10
19.465464
 20
14.590561
 42
0.105288
  0
VERTEX
  8
LAYER_1
 62
7
 10
19.672972
 20
15.226723
  0
VERTEX
  8
LAYER_1
 62
7
 10
19.685005
 20
15.331306
  0
VERTEX
  8
LAYER_1
 62
7
 10
19.697245
 20
15.225526
 42
0.105217
  0
VERTEX
  8
LAYER_1
 62
7
 10
19.904898
 20
14.590078
 42
0.104662
  0
VERTEX
  8
LAYER_1
 62
7
 10
20.359940
 20
14.097689
 42
-0.108672
  0
VERTEX
  8
LAYER_1
 62
7
 10
19.685039
 20
13.954167
  0
SEQEND
  0
POLYLINE
  8
LAYER_1
 62
7
 70
1
 66
1
  0
VERTEX
  8
LAYER_1
 62
7
 10
19.685039
 20
16.049960
 42
0.062174
  0
VERTEX
  8
LAYER_1
 62
7
 10
19.043051
 20
16.992022
 42
0.026924
  0
VERTEX
  8
LAYER_1
 62
7
 10
18.768696
 20
17.298317
  0
VERTEX
  8
LAYER_1
 62
7
 10
18.476488
 20
17.590764
 42
-0.025961
  0
VERTEX
  8
LAYER_1
 62
7
 10
18.201030
 20
17.895920
 42
-0.052446
  0
VERTEX
  8
LAYER_1
 62
7
 10
17.976924
 20
18.240343
 42
-0.133456
  0
VERTEX
  8
LAYER_1
 62
7
 10
17.902314
 20
18.601682
 42
-0.109644
  0
VERTEX
  8
LAYER_1
 62
7
 10
18.004204
 20
18.955307
 42
-0.104468
  0
VERTEX
  8
LAYER_1
 62
7
 10
18.243107
 20
19.238846
 42
-0.122797
  0
VERTEX
  8
LAYER_1
 62
7
 10
18.579535
 20
19.389927
 42
0.007970
  0
VERTEX
  8
LAYER_1
 62
7
 10
18.435543
 20
19.157211
 42
0.055221
  0
VERTEX
  8
LAYER_1
 62
7
 10
18.321867
 20
18.909152
 42
0.119790
  0
VERTEX
  8
LAYER_1
 62
7
 10
18.300584
 20
18.563801
 42
0.128372
  0
VERTEX
  8
LAYER_1
 62
7
 10
18.372796
 20
18.408972
 42
0.180278
  0
VERTEX
  8
LAYER_1
 62
7
 10
18.530029
 20
18.325598
 42
0.211531
  0
VERTEX
  8
LAYER_1
 62
7
 10
18.692237
 20
18.375677
 42
0.173755
  0
VERTEX
  8
LAYER_1
 62
7
 10
18.784454
 20
18.524017
 42
0.018749
  0
VERTEX
  8
LAYER_1
 62
7
 10
18.834539
 20
18.810201
  0
VERTEX
  8
LAYER_1
 62
7
 10
18.850377
 20
18.906232
 42
-0.038380
  0
VERTEX
  8
LAYER_1
 62
7
 10
18.897517
 20
19.093078
 42
-0.068644
  0
VERTEX
  8
LAYER_1
 62
7
 10
18.983887
 20
19.266113
 42
-0.103815
  0
VERTEX
  8
LAYER_1
 62
7
 10
19.111913
 20
19.387821
 42
-0.044850
  0
VERTEX
  8
LAYER_1
 62
7
 10
19.271087
 20
19.467506
  0
VERTEX
  8
LAYER_1
 62
7
 10
19.267232
 20
19.460458
 42
0.095575
  0
VERTEX
  8
LAYER_1
 62
7
 10
19.073448
 20
18.832340
 42
0.055918
  0
VERTEX
  8
LAYER_1
 62
7
 10
19.072765
 20
18.494340
 42
0.073119
  0
VERTEX
  8
LAYER_1
 62
7
 10
19.154582
 20
18.178101
  0
VERTEX
  8
LAYER_1
 62
7
 10
19.159778
 20
18.166303
 42
0.177957
  0
VERTEX
  8
LAYER_1
 62
7
 10
18.940371
 20
18.114133
 42
0.177957
  0
VERTEX
  8
LAYER_1
 62
7
 10
18.807765
 20
17.931713
 42
0.258196
  0
VERTEX
  8
LAYER_1
 62
7
 10
18.878029
 20
17.622528
 42
0.200533
  0
VERTEX
  8
LAYER_1
 62
7
 10
19.140272
 20
17.501219
 42
0.176249
  0
VERTEX
  8
LAYER_1
 62
7
 10
19.417118
 20
17.583942
 42
0.129014
  0
VERTEX
  8
LAYER_1
 62
7
 10
19.541760
 20
17.740248
 42
0.097886
  0
VERTEX
  8
LAYER_1
 62
7
 10
19.580212
 20
17.926349
 42
0.053359
  0
VERTEX
  8
LAYER_1
 62
7
 10
19.561429
 20
18.123897
 42
0.021974
  0
VERTEX
  8
LAYER_1
 62
7
 10
19.514365
 20
18.314542
 42
-0.020458
  0
VERTEX
  8
LAYER_1
 62
7
 10
19.447391
 20
18.584080
 42
-0.046692
  0
VERTEX
  8
LAYER_1
 62
7
 10
19.413113
 20
18.889900
 42
-0.085911
  0
VERTEX
  8
LAYER_1
 62
7
 10
19.458145
 20
19.192065
 42
-0.128742
  0
VERTEX
  8
LAYER_1
 62
7
 10
19.629102
 20
19.450634
 42
-0.031740
  0
VERTEX
  8
LAYER_1
 62
7
 10
19.685039
 20
19.490903
 42
-0.031740
  0
VERTEX
  8
LAYER_1
 62
7
 10
19.740977
 20
19.450634
 42
-0.128742
  0
VERTEX
  8
LAYER_1
 62
7
 10
19.911934
 20
19.192065
 42
-0.085911
  0
VERTEX
  8
LAYER_1
 62
7
 10
19.956966
 20
18.889900
 42
-0.046692
  0
VERTEX
  8
LAYER_1
 62
7
 10
19.922688
 20
18.584080
 42
-0.020458
  0
VERTEX
  8
LAYER_1
 62
7
 10
19.855714
 20
18.314542
 42
0.021974
  0
VERTEX
  8
LAYER_1
 62
7
 10
19.808650
 20
18.123897
 42
0.053359
  0
VERTEX
  8
LAYER_1
 62
7
 10
19.789867
 20
17.926349
 42
0.097886
  0
VERTEX
  8
LAYER_1
 62
7
 10
19.828319
 20
17.740248
 42
0.129014
  0
VERTEX
  8
LAYER_1
 62
7
 10
19.952961
 20
17.583942
 42
0.176249
  0
VERTEX
  8
LAYER_1
 62
7
 10
20.229807
 20
17.501219
 42
0.200533
  0
VERTEX
  8
LAYER_1
 62
7
 10
20.492049
 20
17.622528
 42
0.258196
  0
VERTEX
  8
LAYER_1
 62
7
 10
20.562313
 20
17.931713
 42
0.177957
  0
VERTEX
  8
LAYER_1
 62
7
 10
20.429708
 20
18.114133
 42
0.177957
  0
VERTEX
  8
LAYER_1
 62
7
 10
20.210300
 20
18.166303
  0
VERTEX
  8
LAYER_1
 62
7
 10
20.215497
 20
18.178101
 42
0.073119
  0
VERTEX
  8
LAYER_1
 62
7
 10
20.297314
 20
18.494340
 42
0.055918
  0
VERTEX
  8
LAYER_1
 62
7
 10
20.296631
 20
18.832340
 42
0.095575
  0
VERTEX
  8
LAYER_1
 62
7
 10
20.102846
 20
19.460458
  0
VERTEX
  8
LAYER_1
 62
7
 10
20.098991
 20
19.467506
 42
-0.044850
  0
VERTEX
  8
LAYER_1
 62
7
 10
20.258166
 20
19.387821
 42
-0.103815
  0
VERTEX
  8
LAYER_1
 62
7
 10
20.386191
 20
19.266113
 42
-0.068644
  0
VERTEX
  8
LAYER_1
 62
7
 10
20.472562
 20
19.093078
 42
-0.038380
  0
VERTEX
  8
LAYER_1
 62
7
 10
20.519702
 20
18.906232
  0
VERTEX
  8
LAYER_1
 62
7
 10
20.549945
 20
18.713802
 42
0.022742
  0
VERTEX
  8
LAYER_1
 62
7
 10
20.585625
 20
18.524017
 42
0.173755
  0
VERTEX
  8
LAYER_1
 62
7
 10
20.677842
 20
18.375677
 42
0.211531
  0
VERTEX
  8
LAYER_1
 62
7
 10
20.840050
 20
18.325598
 42
0.180278
  0
VERTEX
  8
LAYER_1
 62
7
 10
20.997282
 20
18.408972
 42
0.128372
  0
VERTEX
  8
LAYER_1
 62
7
 10
21.069495
 20
18.563801
 42
0.119790
  0
VERTEX
  8
LAYER_1
 62
7
 10
21.048212
 20
18.909152
 42
0.055221
  0
VERTEX
  8
LAYER_1
 62
7
 10
20.934536
 20
19.157211
 42
0.007970
  0
VERTEX
  8
LAYER_1
 62
7
 10
20.790544
 20
19.389927
 42
-0.122797
  0
VERTEX
  8
LAYER_1
 62
7
 10
21.126972
 20
19.238846
 42
-0.104468
  0
VERTEX
  8
LAYER_1
 62
7
 10
21.365874
 20
18.955307
 42
-0.109644
  0
VERTEX
  8
LAYER_1
 62
7
 10
21.467765
 20
18.601682
 42
-0.133456
  0
VERTEX
  8
LAYER_1
 62
7
 10
21.393155
 20
18.240343
 42
-0.052446
  0
VERTEX
  8
LAYER_1
 62
7
 10
21.169049
 20
17.895920
 42
-0.025961
  0
VERTEX
  8
LAYER_1
 62
7
 10
20.893591
 20
17.590764
  0
VERTEX
  8
LAYER_1
 62
7
 10
20.601383
 20
17.298317
 42
0.026924
  0
VERTEX
  8
LAYER_1
 62
7
 10
20.327027
 20
16.992022
 42
0.062174
  0
VERTEX
  8
LAYER_1
 62
7
 10
19.685039
 20
16.049960
  0
SEQEND
  0
POLYLINE
  8
LAYER_1
 62
7
 70
1
 66
1
  0
VERTEX
  8
LAYER_1
 62
7
 10
12.728597
 20
15.974828
 42
0.099306
  0
VERTEX
  8
LAYER_1
 62
7
 10
12.496161
 20
15.664579
 42
0.091135
  0
VERTEX
  8
LAYER_1
 62
7
 10
12.377148
 20
15.254474
 42
0.134817
  0
VERTEX
  8
LAYER_1
 62
7
 10
12.440567
 20
14.846628
 42
0.177964
  0
VERTEX
  8
LAYER_1
 62
7
 10
12.755426
 20
14.543155
 42
0.293230
  0
VERTEX
  8
LAYER_1
 62
7
 10
13.444966
 20
14.626335
 42
0.101022
  0
VERTEX
  8
LAYER_1
 62
7
 10
13.543569
 20
14.745599
 42
0.180142
  0
VERTEX
  8
LAYER_1
 62
7
 10
13.573786
 20
14.979477
 42
0.182678
  0
VERTEX
  8
LAYER_1
 62
7
 10
13.441710
 20
15.177984
 42
0.199588
  0
VERTEX
  8
LAYER_1
 62
7
 10
13.189535
 20
15.237319
 42
0.199588
  0
VERTEX
  8
LAYER_1
 62
7
 10
12.969264
 20
15.100963
 42
0.020851
  0
VERTEX
  8
LAYER_1
 62
7
 10
12.928787
 20
15.040394
 42
-0.115151
  0
VERTEX
  8
LAYER_1
 62
7
 10
12.874223
 20
15.238985
 42
-0.162005
  0
VERTEX
  8
LAYER_1
 62
7
 10
12.956809
 20
15.537760
 42
-0.130837
  0
VERTEX
  8
LAYER_1
 62
7
 10
13.185494
 20
15.733144
 42
-0.110695
  0
VERTEX
  8
LAYER_1
 62
7
 10
13.487900
 20
15.805668
 42
-0.125140
  0
VERTEX
  8
LAYER_1
 62
7
 10
13.791649
 20
15.735859
 42
-0.085701
  0
VERTEX
  8
LAYER_1
 62
7
 10
14.001323
 20
15.582330
 42
-0.113827
  0
VERTEX
  8
LAYER_1
 62
7
 10
14.134144
 20
15.362062
 42
-0.119477
  0
VERTEX
  8
LAYER_1
 62
7
 10
14.163358
 20
14.942047
 42
-0.083096
  0
VERTEX
  8
LAYER_1
 62
7
 10
14.023243
 20
14.548204
 42
-0.048367
  0
VERTEX
  8
LAYER_1
 62
7
 10
13.781063
 20
14.194345
 42
-0.025754
  0
VERTEX
  8
LAYER_1
 62
7
 10
13.504081
 20
13.894287
  0
VERTEX
  8
LAYER_1
 62
7
 10
13.269540
 20
13.667696
 42
0.007294
  0
VERTEX
  8
LAYER_1
 62
7
 10
13.036623
 20
13.439360
 42
0.047666
  0
VERTEX
  8
LAYER_1
 62
7
 10
12.619253
 20
12.940269
 42
0.041295
  0
VERTEX
  8
LAYER_1
 62
7
 10
12.490689
 20
12.707874
  0
VERTEX
  8
LAYER_1
 62
7
 10
12.432303
 20
12.588352
 42
-0.024897
  0
VERTEX
  8
LAYER_1
 62
7
 10
12.366533
 20
12.472834
  0
VERTEX
  8
LAYER_1
 62
7
 10
12.363426
 20
12.639906
  0
VERTEX
  8
LAYER_1
 62
7
 10
12.351808
 20
13.350841
  0
VERTEX
  8
LAYER_1
 62
7
 10
12.357058
 20
16.024252
 42
-0.004421
  0
VERTEX
  8
LAYER_1
 62
7
 10
12.363398
 20
16.545354
 42
-0.011070
  0
VERTEX
  8
LAYER_1
 62
7
 10
12.576007
 20
16.282152
 42
0.030460
  0
VERTEX
  8
LAYER_1
 62
7
 10
12.798312
 20
16.027767
 42
0.027974
  0
VERTEX
  8
LAYER_1
 62
7
 10
12.728597
 20
15.974828
  0
SEQEND
  0
POLYLINE
  8
LAYER_1
 62
7
 70
1
 66
1
  0
VERTEX
  8
LAYER_1
 62
7
 10
17.803382
 20
4.992268
 42
-0.039888
  0
VERTEX
  8
LAYER_1
 62
7
 10
17.523103
 20
4.850823
 42
-0.037621
  0
VERTEX
  8
LAYER_1
 62
7
 10
16.742510
 20
4.590116
 42
-0.037333
  0
VERTEX
  8
LAYER_1
 62
7
 10
16.410688
 20
4.529376
 42
-0.024090
  0
VERTEX
  8
LAYER_1
 62
7
 10
16.292122
 20
4.524878
  0
VERTEX
  8
LAYER_1
 62
7
 10
14.944280
 20
4.522527
  0
VERTEX
  8
LAYER_1
 62
7
 10
14.969012
 20
4.585223
 42
0.056661
  0
VERTEX
  8
LAYER_1
 62
7
 10
15.033283
 20
4.827580
 42
0.075913
  0
VERTEX
  8
LAYER_1
 62
7
 10
15.033312
 20
5.076985
 42
0.110283
  0
VERTEX
  8
LAYER_1
 62
7
 10
14.946128
 20
5.302073
 42
0.128461
  0
VERTEX
  8
LAYER_1
 62
7
 10
14.748764
 20
5.471479
 42
0.302244
  0
VERTEX
  8
LAYER_1
 62
7
 10
14.208842
 20
5.406349
 42
0.188818
  0
VERTEX
  8
LAYER_1
 62
7
 10
14.101037
 20
5.152500
 42
0.222774
  0
VERTEX
  8
LAYER_1
 62
7
 10
14.227058
 20
4.882576
 42
0.199588
  0
VERTEX
  8
LAYER_1
 62
7
 10
14.483849
 20
4.802039
 42
0.199588
  0
VERTEX
  8
LAYER_1
 62
7
 10
14.722377
 20
4.926667
 42
-0.073929
  0
VERTEX
  8
LAYER_1
 62
7
 10
14.637442
 20
4.768372
 42
-0.099989
  0
VERTEX
  8
LAYER_1
 62
7
 10
14.506817
 20
4.650171
 42
-0.133093
  0
VERTEX
  8
LAYER_1
 62
7
 10
14.198689
 20
4.570876
 42
-0.121447
  0
VERTEX
  8
LAYER_1
 62
7
 10
13.889088
 20
4.648694
 42
-0.210710
  0
VERTEX
  8
LAYER_1
 62
7
 10
13.593288
 20
5.035601
 42
-0.176714
  0
VERTEX
  8
LAYER_1
 62
7
 10
13.639758
 20
5.524412
  0
VERTEX
  8
LAYER_1
 62
7
 10
13.652326
 20
5.548776
 42
-0.094524
  0
VERTEX
  8
LAYER_1
 62
7
 10
13.817976
 20
5.748853
 42
-0.073608
  0
VERTEX
  8
LAYER_1
 62
7
 10
14.046722
 20
5.886125
 42
-0.053251
  0
VERTEX
  8
LAYER_1
 62
7
 10
14.319135
 20
5.967099
 42
-0.040066
  0
VERTEX
  8
LAYER_1
 62
7
 10
14.615788
 20
5.998281
 42
-0.064420
  0
VERTEX
  8
LAYER_1
 62
7
 10
15.204102
 20
5.937296
 42
-0.036709
  0
VERTEX
  8
LAYER_1
 62
7
 10
15.456907
 20
5.858142
 42
-0.052758
  0
VERTEX
  8
LAYER_1
 62
7
 10
15.656241
 20
5.755223
 42
-0.005732
  0
VERTEX
  8
LAYER_1
 62
7
 10
16.013150
 20
5.536543
 42
0.075066
  0
VERTEX
  8
LAYER_1
 62
7
 10
16.895369
 20
5.120925
 42
0.100955
  0
VERTEX
  8
LAYER_1
 62
7
 10
17.862514
 20
5.032669
  0
VERTEX
  8
LAYER_1
 62
7
 10
17.803382
 20
4.992268
  0
SEQEND
  0
POLYLINE
  8
LAYER_1
 62
7
 70
1
 66
1
  0
VERTEX
  8
LAYER_1
 62
7
 10
13.378198
 20
4.522527
  0
VERTEX
  8
LAYER_1
 62
7
 10
12.869818
 20
4.522576
  0
VERTEX
  8
LAYER_1
 62
7
 10
12.361439
 20
4.520568
 42
-0.211769
  0
VERTEX
  8
LAYER_1
 62
7
 10
12.803014
 20
5.581993
 42
-0.117802
  0
VERTEX
  8
LAYER_1
 62
7
 10
13.528655
 20
6.023960
 42
0.002350
  0
VERTEX
  8
LAYER_1
 62
7
 10
13.367080
 20
5.831922
 42
0.080327
  0
VERTEX
  8
LAYER_1
 62
7
 10
13.239887
 20
5.617256
 42
0.068696
  0
VERTEX
  8
LAYER_1
 62
7
 10
13.155549
 20
5.247873
 42
0.092953
  0
VERTEX
  8
LAYER_1
 62
7
 10
13.191694
 20
4.872025
 42
0.064128
  0
VERTEX
  8
LAYER_1
 62
7
 10
13.273926
 20
4.691840
  0
VERTEX
  8
LAYER_1
 62
7
 10
13.378198
 20
4.522527
  0
SEQEND
  0
POLYLINE
  8
LAYER_1
 62
7
 70
1
 66
1
  0
VERTEX
  8
LAYER_1
 62
7
 10
18.802085
 20
4.539767
  0
VERTEX
  8
LAYER_1
 62
7
 10
18.521969
 20
4.540299
  0
VERTEX
  8
LAYER_1
 62
7
 10
18.241742
 20
4.538150
 42
-0.006617
  0
VERTEX
  8
LAYER_1
 62
7
 10
17.681104
 20
4.538591
 42
0.097373
  0
VERTEX
  8
LAYER_1
 62
7
 10
18.792371
 20
5.258974
  0
VERTEX
  8
LAYER_1
 62
7
 10
18.804436
 20
5.269717
 42
0.008051
  0
VERTEX
  8
LAYER_1
 62
7
 10
18.802085
 20
4.539767
  0
SEQEND
  0
POLYLINE
  8
LAYER_1
 62
7
 70
1
 66
1
  0
VERTEX
  8
LAYER_1
 62
7
 10
19.056994
 20
6.273267
 42
-0.056591
  0
VERTEX
  8
LAYER_1
 62
7
 10
18.823451
 20
5.849463
 42
-0.090136
  0
VERTEX
  8
LAYER_1
 62
7
 10
18.534671
 20
5.568532
 42
-0.093183
  0
VERTEX
  8
LAYER_1
 62
7
 10
18.164484
 20
5.416777
 42
-0.061494
  0
VERTEX
  8
LAYER_1
 62
7
 10
17.686720
 20
5.380502
 42
-0.038125
  0
VERTEX
  8
LAYER_1
 62
7
 10
17.152807
 20
5.439991
 42
-0.043912
  0
VERTEX
  8
LAYER_1
 62
7
 10
16.732747
 20
5.553104
 42
-0.052087
  0
VERTEX
  8
LAYER_1
 62
7
 10
16.452374
 20
5.695227
  0
VERTEX
  8
LAYER_1
 62
7
 10
16.479951
 20
5.691201
 42
0.065185
  0
VERTEX
  8
LAYER_1
 62
7
 10
17.055172
 20
5.687033
 42
0.070873
  0
VERTEX
  8
LAYER_1
 62
7
 10
17.606471
 20
5.834569
 42
0.085441
  0
VERTEX
  8
LAYER_1
 62
7
 10
18.076869
 20
6.137306
 42
0.100580
  0
VERTEX
  8
LAYER_1
 62
7
 10
18.409388
 20
6.598741
 42
-0.016822
  0
VERTEX
  8
LAYER_1
 62
7
 10
18.448669
 20
6.679465
 42
0.007902
  0
VERTEX
  8
LAYER_1
 62
7
 10
18.806004
 20
6.619959
 42
0.041490
  0
VERTEX
  8
LAYER_1
 62
7
 10
19.166865
 20
6.596009
 42
-0.038285
  0
VERTEX
  8
LAYER_1
 62
7
 10
19.056994
 20
6.273267
  0
SEQEND
  0
POLYLINE
  8
LAYER_1
 62
7
 70
1
 66
1
  0
VERTEX
  8
LAYER_1
 62
7
 10
13.346069
 20
6.368756
 42
0.062047
  0
VERTEX
  8
LAYER_1
 62
7
 10
12.780142
 20
6.081312
 42
0.013502
  0
VERTEX
  8
LAYER_1
 62
7
 10
12.518979
 20
5.899038
  0
VERTEX
  8
LAYER_1
 62
7
 10
12.263877
 20
5.708941
 42
-0.191196
  0
VERTEX
  8
LAYER_1
 62
7
 10
12.819862
 20
6.627354
 42
-0.055224
  0
VERTEX
  8
LAYER_1
 62
7
 10
13.200725
 20
6.867256
 42
-0.043084
  0
VERTEX
  8
LAYER_1
 62
7
 10
13.619846
 20
7.027376
 42
-0.030928
  0
VERTEX
  8
LAYER_1
 62
7
 10
14.061092
 20
7.124805
 42
-0.020305
  0
VERTEX
  8
LAYER_1
 62
7
 10
14.508327
 20
7.176635
  0
VERTEX
  8
LAYER_1
 62
7
 10
14.612249
 20
7.184748
  0
VERTEX
  8
LAYER_1
 62
7
 10
14.706057
 20
7.128877
  0
VERTEX
  8
LAYER_1
 62
7
 10
14.793522
 20
7.076032
 42
0.083830
  0
VERTEX
  8
LAYER_1
 62
7
 10
16.148968
 20
6.563567
 42
0.084489
  0
VERTEX
  8
LAYER_1
 62
7
 10
17.662665
 20
6.525467
  0
VERTEX
  8
LAYER_1
 62
7
 10
17.954591
 20
6.564664
  0
VERTEX
  8
LAYER_1
 62
7
 10
17.932681
 20
6.537286
 42
-0.098155
  0
VERTEX
  8
LAYER_1
 62
7
 10
17.553819
 20
6.220176
 42
-0.079969
  0
VERTEX
  8
LAYER_1
 62
7
 10
17.104204
 20
6.064084
 42
-0.054392
  0
VERTEX
  8
LAYER_1
 62
7
 10
16.617089
 20
6.031701
 42
-0.034742
  0
VERTEX
  8
LAYER_1
 62
7
 10
16.125728
 20
6.085719
 42
-0.017631
  0
VERTEX
  8
LAYER_1
 62
7
 10
15.739965
 20
6.169186
 42
-0.003318
  0
VERTEX
  8
LAYER_1
 62
7
 10
15.167288
 20
6.323157
 42
0.019763
  0
VERTEX
  8
LAYER_1
 62
7
 10
14.590472
 20
6.458090
 42
0.053643
  0
VERTEX
  8
LAYER_1
 62
7
 10
13.961512
 20
6.494529
 42
0.076787
  0
VERTEX
  8
LAYER_1
 62
7
 10
13.346069
 20
6.368756
  0
SEQEND
  0
POLYLINE
  8
LAYER_1
 62
7
 70
1
 66
1
  0
VERTEX
  8
LAYER_1
 62
7
 10
13.989428
 20
7.403538
  0
VERTEX
  8
LAYER_1
 62
7
 10
13.987201
 20
7.402828
 42
0.074454
  0
VERTEX
  8
LAYER_1
 62
7
 10
13.116013
 20
7.153430
 42
0.074454
  0
VERTEX
  8
LAYER_1
 62
7
 10
12.361439
 20
6.651647
 42
-0.005532
  0
VERTEX
  8
LAYER_1
 62
7
 10
12.362615
 20
8.245156
 42
0.086361
  0
VERTEX
  8
LAYER_1
 62
7
 10
13.108140
 20
7.695342
 42
0.072673
  0
VERTEX
  8
LAYER_1
 62
7
 10
13.989428
 20
7.403538
  0
SEQEND
  0
POLYLINE
  8
LAYER_1
 62
7
 70
1
 66
1
  0
VERTEX
  8
LAYER_1
 62
7
 10
18.027425
 20
6.862748
  0
VERTEX
  8
LAYER_1
 62
7
 10
17.974089
 20
6.852570
 42
-0.041609
  0
VERTEX
  8
LAYER_1
 62
7
 10
17.227647
 20
6.783174
 42
-0.037936
  0
VERTEX
  8
LAYER_1
 62
7
 10
16.452013
 20
6.833256
 42
-0.039552
  0
VERTEX
  8
LAYER_1
 62
7
 10
15.693977
 20
7.000982
 42
-0.046568
  0
VERTEX
  8
LAYER_1
 62
7
 10
15.000327
 20
7.284517
 42
-0.017749
  0
VERTEX
  8
LAYER_1
 62
7
 10
14.783244
 20
7.409024
 42
0.054625
  0
VERTEX
  8
LAYER_1
 62
7
 10
15.489245
 20
7.684665
 42
0.044616
  0
VERTEX
  8
LAYER_1
 62
7
 10
16.127952
 20
8.094307
 42
0.116420
  0
VERTEX
  8
LAYER_1
 62
7
 10
17.392729
 20
7.115163
 42
0.023748
  0
VERTEX
  8
LAYER_1
 62
7
 10
17.709147
 20
6.988754
 42
0.052000
  0
VERTEX
  8
LAYER_1
 62
7
 10
18.040127
 20
6.911585
  0
VERTEX
  8
LAYER_1
 62
7
 10
18.186127
 20
6.894594
  0
VERTEX
  8
LAYER_1
 62
7
 10
18.027425
 20
6.862748
  0
SEQEND
  0
POLYLINE
  8
LAYER_1
 62
7
 70
1
 66
1
  0
VERTEX
  8
LAYER_1
 62
7
 10
19.223286
 20
7.193918
 42
-0.017004
  0
VERTEX
  8
LAYER_1
 62
7
 10
18.914291
 20
7.186228
  0
VERTEX
  8
LAYER_1
 62
7
 10
18.605003
 20
7.185298
 42
-0.114649
  0
VERTEX
  8
LAYER_1
 62
7
 10
17.457721
 20
7.519614
 42
-0.102297
  0
VERTEX
  8
LAYER_1
 62
7
 10
16.549936
 20
8.301185
 42
-0.095479
  0
VERTEX
  8
LAYER_1
 62
7
 10
16.239766
 20
8.884205
 42
-0.064050
  0
VERTEX
  8
LAYER_1
 62
7
 10
16.125601
 20
9.537752
  0
VERTEX
  8
LAYER_1
 62
7
 10
16.102190
 20
9.770098
 42
-0.041538
  0
VERTEX
  8
LAYER_1
 62
7
 10
16.100525
 20
10.003619
 42
0.145803
  0
VERTEX
  8
LAYER_1
 62
7
 10
16.386431
 20
9.240606
 42
0.159580
  0
VERTEX
  8
LAYER_1
 62
7
 10
17.108698
 20
8.746606
 42
0.093003
  0
VERTEX
  8
LAYER_1
 62
7
 10
17.542568
 20
8.704821
 42
0.106649
  0
VERTEX
  8
LAYER_1
 62
7
 10
17.969331
 20
8.839475
 42
0.027616
  0
VERTEX
  8
LAYER_1
 62
7
 10
18.088983
 20
8.916726
 42
0.087880
  0
VERTEX
  8
LAYER_1
 62
7
 10
18.388819
 20
8.141913
 42
0.066739
  0
VERTEX
  8
LAYER_1
 62
7
 10
18.910226
 20
7.491697
 42
0.025119
  0
VERTEX
  8
LAYER_1
 62
7
 10
19.068960
 20
7.344864
 42
-0.039106
  0
VERTEX
  8
LAYER_1
 62
7
 10
19.223286
 20
7.193918
  0
SEQEND
  0
POLYLINE
  8
LAYER_1
 62
7
 70
1
 66
1
  0
VERTEX
  8
LAYER_1
 62
7
 10
19.445837
 20
7.431749
 42
-0.064740
  0
VERTEX
  8
LAYER_1
 62
7
 10
19.215603
 20
7.574786
 42
-0.049533
  0
VERTEX
  8
LAYER_1
 62
7
 10
19.024489
 20
7.765869
 42
-0.056132
  0
VERTEX
  8
LAYER_1
 62
7
 10
18.735085
 20
8.225173
 42
-0.058419
  0
VERTEX
  8
LAYER_1
 62
7
 10
18.610880
 20
8.576729
 42
-0.105527
  0
VERTEX
  8
LAYER_1
 62
7
 10
18.605395
 20
8.946504
 42
-0.134420
  0
VERTEX
  8
LAYER_1
 62
7
 10
18.653771
 20
9.027732
 42
-0.084236
  0
VERTEX
  8
LAYER_1
 62
7
 10
18.731461
 20
9.078839
 42
-0.028861
  0
VERTEX
  8
LAYER_1
 62
7
 10
18.822815
 20
9.113343
  0
VERTEX
  8
LAYER_1
 62
7
 10
18.912185
 20
9.144762
 42
0.049637
  0
VERTEX
  8
LAYER_1
 62
7
 10
19.109513
 20
8.267098
 42
0.031337
  0
VERTEX
  8
LAYER_1
 62
7
 10
19.445837
 20
7.431749
  0
SEQEND
  0
POLYLINE
  8
LAYER_1
 62
7
 70
1
 66
1
  0
VERTEX
  8
LAYER_1
 62
7
 10
15.861518
 20
8.641280
 42
-0.014974
  0
VERTEX
  8
LAYER_1
 62
7
 10
15.783901
 20
8.543297
 42
-0.119762
  0
VERTEX
  8
LAYER_1
 62
7
 10
14.991120
 20
7.951764
 42
-0.122651
  0
VERTEX
  8
LAYER_1
 62
7
 10
14.056008
 20
7.809010
 42
-0.061511
  0
VERTEX
  8
LAYER_1
 62
7
 10
13.518839
 20
7.921804
 42
-0.073664
  0
VERTEX
  8
LAYER_1
 62
7
 10
13.060242
 20
8.159122
 42
-0.081343
  0
VERTEX
  8
LAYER_1
 62
7
 10
12.699944
 20
8.522980
 42
-0.078389
  0
VERTEX
  8
LAYER_1
 62
7
 10
12.457670
 20
9.015394
 42
-0.070439
  0
VERTEX
  8
LAYER_1
 62
7
 10
12.358459
 20
9.627897
 42
-0.058523
  0
VERTEX
  8
LAYER_1
 62
7
 10
12.417077
 20
10.246544
 42
-0.089487
  0
VERTEX
  8
LAYER_1
 62
7
 10
12.903417
 20
11.465528
 42
-0.078487
  0
VERTEX
  8
LAYER_1
 62
7
 10
13.762960
 20
12.460296
 42
-0.047060
  0
VERTEX
  8
LAYER_1
 62
7
 10
14.762870
 20
13.157383
 42
-0.051542
  0
VERTEX
  8
LAYER_1
 62
7
 10
15.879150
 20
13.645535
 42
0.060969
  0
VERTEX
  8
LAYER_1
 62
7
 10
16.114826
 20
13.462275
 42
0.109054
  0
VERTEX
  8
LAYER_1
 62
7
 10
16.395363
 20
13.368392
  0
VERTEX
  8
LAYER_1
 62
7
 10
16.497287
 20
13.358907
  0
VERTEX
  8
LAYER_1
 62
7
 10
16.325305
 20
13.297455
 42
0.029411
  0
VERTEX
  8
LAYER_1
 62
7
 10
15.670346
 20
13.020108
 42
0.034992
  0
VERTEX
  8
LAYER_1
 62
7
 10
15.054981
 20
12.660509
 42
0.041938
  0
VERTEX
  8
LAYER_1
 62
7
 10
14.504131
 20
12.212913
 42
0.049283
  0
VERTEX
  8
LAYER_1
 62
7
 10
14.042715
 20
11.671574
 42
0.034226
  0
VERTEX
  8
LAYER_1
 62
7
 10
13.786811
 20
11.223387
 42
0.064167
  0
VERTEX
  8
LAYER_1
 62
7
 10
13.623474
 20
10.735529
 42
-0.248775
  0
VERTEX
  8
LAYER_1
 62
7
 10
14.336576
 20
10.007537
 42
-0.085355
  0
VERTEX
  8
LAYER_1
 62
7
 10
14.375196
 20
9.748207
 42
-0.167632
  0
VERTEX
  8
LAYER_1
 62
7
 10
14.223516
 20
9.319655
 42
-0.202385
  0
VERTEX
  8
LAYER_1
 62
7
 10
13.825264
 20
9.109679
 42
-0.172268
  0
VERTEX
  8
LAYER_1
 62
7
 10
13.530181
 20
9.183347
 42
-0.175647
  0
VERTEX
  8
LAYER_1
 62
7
 10
13.346058
 20
9.431087
 42
-0.043549
  0
VERTEX
  8
LAYER_1
 62
7
 10
13.330396
 20
9.504448
  0
VERTEX
  8
LAYER_1
 62
7
 10
13.421524
 20
9.494450
 42
0.017029
  0
VERTEX
  8
LAYER_1
 62
7
 10
13.513717
 20
9.485298
 42
0.126567
  0
VERTEX
  8
LAYER_1
 62
7
 10
13.693217
 20
9.513459
 42
0.233928
  0
VERTEX
  8
LAYER_1
 62
7
 10
13.879867
 20
9.753054
 42
0.236116
  0
VERTEX
  8
LAYER_1
 62
7
 10
13.814679
 20
10.050245
 42
0.132930
  0
VERTEX
  8
LAYER_1
 62
7
 10
13.628898
 20
10.180407
 42
0.108553
  0
VERTEX
  8
LAYER_1
 62
7
 10
13.403078
 20
10.210252
 42
0.104981
  0
VERTEX
  8
LAYER_1
 62
7
 10
13.183135
 20
10.145401
 42
0.125136
  0
VERTEX
  8
LAYER_1
 62
7
 10
13.014986
 20
9.991473
 42
0.106127
  0
VERTEX
  8
LAYER_1
 62
7
 10
12.888185
 20
9.681217
 42
0.089485
  0
VERTEX
  8
LAYER_1
 62
7
 10
12.889213
 20
9.347526
 42
0.163613
  0
VERTEX
  8
LAYER_1
 62
7
 10
13.207758
 20
8.764702
 42
0.102581
  0
VERTEX
  8
LAYER_1
 62
7
 10
13.645427
 20
8.484573
 42
0.087167
  0
VERTEX
  8
LAYER_1
 62
7
 10
14.154284
 20
8.386454
 42
0.162696
  0
VERTEX
  8
LAYER_1
 62
7
 10
15.137837
 20
8.690257
 42
0.063466
  0
VERTEX
  8
LAYER_1
 62
7
 10
15.466912
 20
8.998860
 42
0.052332
  0
VERTEX
  8
LAYER_1
 62
7
 10
15.716938
 20
9.374757
  0
VERTEX
  8
LAYER_1
 62
7
 10
15.772184
 20
9.421775
 42
0.066506
  0
VERTEX
  8
LAYER_1
 62
7
 10
15.795840
 20
9.029471
 42
-0.012727
  0
VERTEX
  8
LAYER_1
 62
7
 10
15.861518
 20
8.641280
  0
SEQEND
  0
POLYLINE
  8
LAYER_1
 62
7
 70
1
 66
1
  0
VERTEX
  8
LAYER_1
 62
7
 10
14.411804
 20
8.705930
 42
-0.091252
  0
VERTEX
  8
LAYER_1
 62
7
 10
14.194396
 20
8.671793
 42
-0.007899
  0
VERTEX
  8
LAYER_1
 62
7
 10
13.972580
 20
8.680854
 42
-0.024728
  0
VERTEX
  8
LAYER_1
 62
7
 10
14.217856
 20
8.823523
 42
0.087882
  0
VERTEX
  8
LAYER_1
 62
7
 10
14.441974
 20
8.994697
 42
0.054399
  0
VERTEX
  8
LAYER_1
 62
7
 10
14.619331
 20
9.240040
 42
0.035391
  0
VERTEX
  8
LAYER_1
 62
7
 10
14.749450
 20
9.512529
 42
0.014816
  0
VERTEX
  8
LAYER_1
 62
7
 10
14.898645
 20
9.943795
  0
VERTEX
  8
LAYER_1
 62
7
 10
14.945847
 20
10.087076
  0
VERTEX
  8
LAYER_1
 62
7
 10
14.972079
 20
10.167819
 42
-0.046407
  0
VERTEX
  8
LAYER_1
 62
7
 10
15.265084
 20
10.816458
 42
-0.048848
  0
VERTEX
  8
LAYER_1
 62
7
 10
15.722840
 20
11.475357
 42
-0.032195
  0
VERTEX
  8
LAYER_1
 62
7
 10
16.002663
 20
11.763152
 42
-0.041486
  0
VERTEX
  8
LAYER_1
 62
7
 10
16.310668
 20
11.998912
 42
-0.054391
  0
VERTEX
  8
LAYER_1
 62
7
 10
16.642522
 20
12.164436
 42
-0.068795
  0
VERTEX
  8
LAYER_1
 62
7
 10
16.993890
 20
12.241522
 42
-0.045953
  0
VERTEX
  8
LAYER_1
 62
7
 10
17.232200
 20
12.234858
 42
-0.015766
  0
VERTEX
  8
LAYER_1
 62
7
 10
17.468741
 20
12.198956
  0
VERTEX
  8
LAYER_1
 62
7
 10
17.468349
 20
12.133131
 42
0.069918
  0
VERTEX
  8
LAYER_1
 62
7
 10
16.747019
 20
11.757136
 42
0.082382
  0
VERTEX
  8
LAYER_1
 62
7
 10
16.171443
 20
11.184548
 42
0.043785
  0
VERTEX
  8
LAYER_1
 62
7
 10
15.883900
 20
10.757097
 42
0.021051
  0
VERTEX
  8
LAYER_1
 62
7
 10
15.654542
 20
10.296550
  0
VERTEX
  8
LAYER_1
 62
7
 10
15.442374
 20
9.826084
 42
-0.024666
  0
VERTEX
  8
LAYER_1
 62
7
 10
15.206404
 20
9.368880
 42
-0.057324
  0
VERTEX
  8
LAYER_1
 62
7
 10
14.860383
 20
8.973343
 42
-0.101771
  0
VERTEX
  8
LAYER_1
 62
7
 10
14.411804
 20
8.705930
  0
SEQEND
  0
POLYLINE
  8
LAYER_1
 62
7
 70
1
 66
1
  0
VERTEX
  8
LAYER_1
 62
7
 10
18.192785
 20
9.926779
 42
0.213873
  0
VERTEX
  8
LAYER_1
 62
7
 10
17.866271
 20
10.032920
 42
0.083252
  0
VERTEX
  8
LAYER_1
 62
7
 10
17.720169
 20
9.993886
 42
0.099879
  0
VERTEX
  8
LAYER_1
 62
7
 10
17.617216
 20
9.921735
 42
0.172330
  0
VERTEX
  8
LAYER_1
 62
7
 10
17.539805
 20
9.733561
 42
0.175703
  0
VERTEX
  8
LAYER_1
 62
7
 10
17.600228
 20
9.536099
 42
0.199588
  0
VERTEX
  8
LAYER_1
 62
7
 10
17.800495
 20
9.417465
 42
0.199588
  0
VERTEX
  8
LAYER_1
 62
7
 10
18.025993
 20
9.475187
 42
-0.096126
  0
VERTEX
  8
LAYER_1
 62
7
 10
17.908458
 20
9.298048
 42
-0.173573
  0
VERTEX
  8
LAYER_1
 62
7
 10
17.573552
 20
9.139299
 42
-0.121405
  0
VERTEX
  8
LAYER_1
 62
7
 10
17.194536
 20
9.187782
 42
-0.092744
  0
VERTEX
  8
LAYER_1
 62
7
 10
16.868947
 20
9.390572
 42
-0.144704
  0
VERTEX
  8
LAYER_1
 62
7
 10
16.474214
 20
10.039567
 42
-0.090974
  0
VERTEX
  8
LAYER_1
 62
7
 10
16.444420
 20
10.532110
 42
-0.082776
  0
VERTEX
  8
LAYER_1
 62
7
 10
16.590408
 20
11.027934
 42
-0.144197
  0
VERTEX
  8
LAYER_1
 62
7
 10
17.223675
 20
11.723790
 42
-0.078332
  0
VERTEX
  8
LAYER_1
 62
7
 10
17.660242
 20
11.903995
 42
-0.089178
  0
VERTEX
  8
LAYER_1
 62
7
 10
18.135609
 20
11.930955
 42
0.127188
  0
VERTEX
  8
LAYER_1
 62
7
 10
18.512730
 20
11.974299
 42
0.081366
  0
VERTEX
  8
LAYER_1
 62
7
 10
18.842834
 20
12.167219
 42
-0.037187
  0
VERTEX
  8
LAYER_1
 62
7
 10
18.725290
 20
11.968177
 42
-0.112829
  0
VERTEX
  8
LAYER_1
 62
7
 10
18.556026
 20
11.813802
 42
-0.036037
  0
VERTEX
  8
LAYER_1
 62
7
 10
18.351419
 20
11.725779
  0
VERTEX
  8
LAYER_1
 62
7
 10
18.138988
 20
11.654725
 42
0.024134
  0
VERTEX
  8
LAYER_1
 62
7
 10
17.930157
 20
11.576326
 42
0.054229
  0
VERTEX
  8
LAYER_1
 62
7
 10
17.736350
 20
11.466263
 42
0.135358
  0
VERTEX
  8
LAYER_1
 62
7
 10
17.446505
 20
11.065339
 42
0.075696
  0
VERTEX
  8
LAYER_1
 62
7
 10
17.341793
 20
10.575668
 42
0.090789
  0
VERTEX
  8
LAYER_1
 62
7
 10
17.956452
 20
10.692968
 42
0.109800
  0
VERTEX
  8
LAYER_1
 62
7
 10
18.476488
 20
11.036834
 42
0.044454
  0
VERTEX
  8
LAYER_1
 62
7
 10
18.604023
 20
11.194588
  0
VERTEX
  8
LAYER_1
 62
7
 10
18.717454
 20
11.363216
 42
0.100519
  0
VERTEX
  8
LAYER_1
 62
7
 10
18.871045
 20
10.680136
 42
0.096461
  0
VERTEX
  8
LAYER_1
 62
7
 10
19.272655
 20
10.105491
 42
0.109364
  0
VERTEX
  8
LAYER_1
 62
7
 10
19.028554
 20
9.769314
 42
0.128159
  0
VERTEX
  8
LAYER_1
 62
7
 10
18.342487
 20
9.599267
 42
0.204199
  0
VERTEX
  8
LAYER_1
 62
7
 10
18.192785
 20
9.926779
  0
SEQEND
  0
POLYLINE
  8
LAYER_1
 62
7
 70
1
 66
1
  0
VERTEX
  8
LAYER_1
 62
7
 10
14.726109
 20
10.328666
  0
VERTEX
  8
LAYER_1
 62
7
 10
14.667413
 20
10.412395
 42
0.031113
  0
VERTEX
  8
LAYER_1
 62
7
 10
14.496992
 20
10.631124
 42
0.067118
  0
VERTEX
  8
LAYER_1
 62
7
 10
14.287599
 20
10.811933
 42
0.054678
  0
VERTEX
  8
LAYER_1
 62
7
 10
14.234486
 20
10.851755
  0
VERTEX
  8
LAYER_1
 62
7
 10
14.171520
 20
10.890772
  0
VERTEX
  8
LAYER_1
 62
7
 10
14.064627
 20
10.961038
  0
VERTEX
  8
LAYER_1
 62
7
 10
14.130961
 20
11.092371
 42
-0.061088
  0
VERTEX
  8
LAYER_1
 62
7
 10
14.565133
 20
11.736955
 42
-0.053516
  0
VERTEX
  8
LAYER_1
 62
7
 10
15.134310
 20
12.267132
 42
-0.038709
  0
VERTEX
  8
LAYER_1
 62
7
 10
15.568306
 20
12.537667
 42
-0.024285
  0
VERTEX
  8
LAYER_1
 62
7
 10
16.032349
 20
12.751120
 42
-0.009755
  0
VERTEX
  8
LAYER_1
 62
7
 10
16.511673
 20
12.933277
  0
VERTEX
  8
LAYER_1
 62
7
 10
16.752450
 20
13.020678
  0
VERTEX
  8
LAYER_1
 62
7
 10
16.991511
 20
13.109924
 42
0.016205
  0
VERTEX
  8
LAYER_1
 62
7
 10
17.241005
 20
13.216657
 42
0.035301
  0
VERTEX
  8
LAYER_1
 62
7
 10
17.480250
 20
13.349323
 42
0.057863
  0
VERTEX
  8
LAYER_1
 62
7
 10
17.687686
 20
13.521072
 42
0.079267
  0
VERTEX
  8
LAYER_1
 62
7
 10
17.841748
 20
13.745056
 42
0.109301
  0
VERTEX
  8
LAYER_1
 62
7
 10
17.933237
 20
14.040337
 42
0.038139
  0
VERTEX
  8
LAYER_1
 62
7
 10
17.935392
 20
14.352368
 42
0.037020
  0
VERTEX
  8
LAYER_1
 62
7
 10
18.515767
 20
13.966284
 42
0.062498
  0
VERTEX
  8
LAYER_1
 62
7
 10
19.159028
 20
13.702740
 42
0.018048
  0
VERTEX
  8
LAYER_1
 62
7
 10
19.013224
 20
13.565115
 42
0.070267
  0
VERTEX
  8
LAYER_1
 62
7
 10
18.894162
 20
13.404569
 42
0.094828
  0
VERTEX
  8
LAYER_1
 62
7
 10
18.816509
 20
13.178425
 42
0.029660
  0
VERTEX
  8
LAYER_1
 62
7
 10
18.797188
 20
12.938065
 42
-0.033996
  0
VERTEX
  8
LAYER_1
 62
7
 10
18.775809
 20
12.697925
 42
-0.098177
  0
VERTEX
  8
LAYER_1
 62
7
 10
18.691986
 20
12.472442
 42
-0.050474
  0
VERTEX
  8
LAYER_1
 62
7
 10
18.643352
 20
12.402029
 42
-0.144823
  0
VERTEX
  8
LAYER_1
 62
7
 10
18.411364
 20
12.257483
 42
-0.109437
  0
VERTEX
  8
LAYER_1
 62
7
 10
18.125318
 20
12.239141
 42
-0.124150
  0
VERTEX
  8
LAYER_1
 62
7
 10
17.866457
 20
12.344328
 42
-0.175257
  0
VERTEX
  8
LAYER_1
 62
7
 10
17.716026
 20
12.570367
 42
-0.187154
  0
VERTEX
  8
LAYER_1
 62
7
 10
17.738309
 20
12.756508
  0
VERTEX
  8
LAYER_1
 62
7
 10
17.742106
 20
12.751299
 42
0.151338
  0
VERTEX
  8
LAYER_1
 62
7
 10
17.863041
 20
12.614908
 42
0.199588
  0
VERTEX
  8
LAYER_1
 62
7
 10
18.106124
 20
12.574251
 42
0.199588
  0
VERTEX
  8
LAYER_1
 62
7
 10
18.306761
 20
12.717386
 42
0.114462
  0
VERTEX
  8
LAYER_1
 62
7
 10
18.353994
 20
12.854412
 42
0.160854
  0
VERTEX
  8
LAYER_1
 62
7
 10
18.314318
 20
13.037739
 42
0.110681
  0
VERTEX
  8
LAYER_1
 62
7
 10
18.182776
 20
13.175358
 42
0.155130
  0
VERTEX
  8
LAYER_1
 62
7
 10
17.823627
 20
13.284623
 42
0.080111
  0
VERTEX
  8
LAYER_1
 62
7
 10
17.643979
 20
13.246602
 42
0.199588
  0
VERTEX
  8
LAYER_1
 62
7
 10
17.329564
 20
12.948133
 42
0.199588
  0
VERTEX
  8
LAYER_1
 62
7
 10
17.318284
 20
12.514758
  0
VERTEX
  8
LAYER_1
 62
7
 10
17.144252
 20
12.515699
 42
0.012387
  0
VERTEX
  8
LAYER_1
 62
7
 10
16.970190
 20
12.514715
 42
0.061370
  0
VERTEX
  8
LAYER_1
 62
7
 10
16.587651
 20
12.452212
 42
0.051663
  0
VERTEX
  8
LAYER_1
 62
7
 10
16.224765
 20
12.303690
 42
0.077107
  0
VERTEX
  8
LAYER_1
 62
7
 10
15.579740
 20
11.809610
 42
0.058329
  0
VERTEX
  8
LAYER_1
 62
7
 10
15.078693
 20
11.154517
 42
0.059722
  0
VERTEX
  8
LAYER_1
 62
7
 10
14.765203
 20
10.460453
  0
VERTEX
  8
LAYER_1
 62
7
 10
14.758144
 20
10.436954
  0
VERTEX
  8
LAYER_1
 62
7
 10
14.726109
 20
10.328666
  0
SEQEND
  0
POLYLINE
  8
LAYER_1
 62
7
 70
1
 66
1
  0
VERTEX
  8
LAYER_1
 62
7
 10
12.602797
 20
11.696258
  0
VERTEX
  8
LAYER_1
 62
7
 10
12.491913
 20
11.543009
 42
-0.031034
  0
VERTEX
  8
LAYER_1
 62
7
 10
12.369275
 20
11.398871
 42
-0.059168
  0
VERTEX
  8
LAYER_1
 62
7
 10
12.554261
 20
12.029888
 42
-0.047930
  0
VERTEX
  8
LAYER_1
 62
7
 10
12.868839
 20
12.608010
 42
-0.037952
  0
VERTEX
  8
LAYER_1
 62
7
 10
13.203620
 20
13.025556
 42
-0.010515
  0
VERTEX
  8
LAYER_1
 62
7
 10
13.577925
 20
13.409418
 42
0.016819
  0
VERTEX
  8
LAYER_1
 62
7
 10
13.946794
 20
13.797320
 42
0.044244
  0
VERTEX
  8
LAYER_1
 62
7
 10
14.265266
 20
14.226987
 42
0.032226
  0
VERTEX
  8
LAYER_1
 62
7
 10
14.403870
 20
14.482989
 42
0.011801
  0
VERTEX
  8
LAYER_1
 62
7
 10
14.519553
 20
14.750452
 42
0.102695
  0
VERTEX
  8
LAYER_1
 62
7
 10
14.987135
 20
14.343993
 42
0.095446
  0
VERTEX
  8
LAYER_1
 62
7
 10
15.575493
 20
14.147057
 42
0.043423
  0
VERTEX
  8
LAYER_1
 62
7
 10
14.707134
 20
13.704282
 42
0.037168
  0
VERTEX
  8
LAYER_1
 62
7
 10
13.922526
 20
13.128829
 42
0.031184
  0
VERTEX
  8
LAYER_1
 62
7
 10
13.221227
 20
12.449791
 42
0.026138
  0
VERTEX
  8
LAYER_1
 62
7
 10
12.602797
 20
11.696258
  0
SEQEND
  0
POLYLINE
  8
LAYER_1
 62
7
 70
1
 66
1
  0
VERTEX
  8
LAYER_1
 62
7
 10
17.072616
 20
13.567564
 42
-0.147946
  0
VERTEX
  8
LAYER_1
 62
7
 10
16.540190
 20
13.561687
 42
-0.171896
  0
VERTEX
  8
LAYER_1
 62
7
 10
16.105618
 20
13.863775
 42
-0.084434
  0
VERTEX
  8
LAYER_1
 62
7
 10
15.945954
 20
14.185308
 42
-0.030102
  0
VERTEX
  8
LAYER_1
 62
7
 10
15.862693
 20
14.536521
 42
-0.148345
  0
VERTEX
  8
LAYER_1
 62
7
 10
15.345645
 20
14.569286
 42
-0.110628
  0
VERTEX
  8
LAYER_1
 62
7
 10
14.905882
 20
14.851540
 42
-0.119730
  0
VERTEX
  8
LAYER_1
 62
7
 10
14.557559
 20
15.452975
 42
-0.123067
  0
VERTEX
  8
LAYER_1
 62
7
 10
14.558931
 20
16.135908
 42
-0.128992
  0
VERTEX
  8
LAYER_1
 62
7
 10
14.884724
 20
16.735384
 42
0.044273
  0
VERTEX
  8
LAYER_1
 62
7
 10
14.865819
 20
16.306641
 42
0.094593
  0
VERTEX
  8
LAYER_1
 62
7
 10
14.963871
 20
15.891415
 42
0.118140
  0
VERTEX
  8
LAYER_1
 62
7
 10
15.336535
 20
15.413842
 42
0.127334
  0
VERTEX
  8
LAYER_1
 62
7
 10
15.886986
 20
15.163424
 42
0.057617
  0
VERTEX
  8
LAYER_1
 62
7
 10
16.374844
 20
15.135899
 42
0.090209
  0
VERTEX
  8
LAYER_1
 62
7
 10
16.847715
 20
15.250015
 42
0.143998
  0
VERTEX
  8
LAYER_1
 62
7
 10
17.513016
 20
15.798947
 42
0.120875
  0
VERTEX
  8
LAYER_1
 62
7
 10
18.015126
 20
15.644131
 42
0.167062
  0
VERTEX
  8
LAYER_1
 62
7
 10
18.516061
 20
15.778181
 42
0.107413
  0
VERTEX
  8
LAYER_1
 62
7
 10
18.746546
 20
15.987655
 42
0.048326
  0
VERTEX
  8
LAYER_1
 62
7
 10
18.903565
 20
16.259721
 42
-0.076389
  0
VERTEX
  8
LAYER_1
 62
7
 10
18.994026
 20
15.905276
 42
-0.054218
  0
VERTEX
  8
LAYER_1
 62
7
 10
18.990156
 20
15.538782
 42
-0.131593
  0
VERTEX
  8
LAYER_1
 62
7
 10
18.846899
 20
15.233118
 42
-0.212418
  0
VERTEX
  8
LAYER_1
 62
7
 10
18.551716
 20
15.085845
 42
0.105688
  0
VERTEX
  8
LAYER_1
 62
7
 10
18.598974
 20
15.183682
 42
0.199588
  0
VERTEX
  8
LAYER_1
 62
7
 10
18.569181
 20
15.390425
 42
0.199588
  0
VERTEX
  8
LAYER_1
 62
7
 10
18.401925
 20
15.515549
 42
0.198122
  0
VERTEX
  8
LAYER_1
 62
7
 10
18.196516
 20
15.486542
 42
0.226376
  0
VERTEX
  8
LAYER_1
 62
7
 10
18.059468
 20
15.276033
 42
0.188359
  0
VERTEX
  8
LAYER_1
 62
7
 10
18.112473
 20
15.028095
 42
0.097275
  0
VERTEX
  8
LAYER_1
 62
7
 10
18.220430
 20
14.924098
 42
0.070927
  0
VERTEX
  8
LAYER_1
 62
7
 10
18.361964
 20
14.858546
 42
0.116106
  0
VERTEX
  8
LAYER_1
 62
7
 10
18.666388
 20
14.837689
 42
0.134220
  0
VERTEX
  8
LAYER_1
 62
7
 10
18.940176
 20
14.967943
 42
0.096383
  0
VERTEX
  8
LAYER_1
 62
7
 10
19.127298
 20
15.209538
 42
0.063884
  0
VERTEX
  8
LAYER_1
 62
7
 10
19.235720
 20
15.511011
 42
0.051415
  0
VERTEX
  8
LAYER_1
 62
7
 10
19.273406
 20
15.820901
  0
VERTEX
  8
LAYER_1
 62
7
 10
19.272263
 20
15.908263
  0
VERTEX
  8
LAYER_1
 62
7
 10
19.346708
 20
15.841655
  0
VERTEX
  8
LAYER_1
 62
7
 10
19.352317
 20
15.759405
 42
-0.030446
  0
VERTEX
  8
LAYER_1
 62
7
 10
19.363227
 20
15.389565
 42
-0.060436
  0
VERTEX
  8
LAYER_1
 62
7
 10
19.313855
 20
15.066693
 42
-0.078287
  0
VERTEX
  8
LAYER_1
 62
7
 10
19.176922
 20
14.774296
 42
-0.066224
  0
VERTEX
  8
LAYER_1
 62
7
 10
18.925150
 20
14.495881
 42
-0.044555
  0
VERTEX
  8
LAYER_1
 62
7
 10
18.675138
 20
14.315538
  0
VERTEX
  8
LAYER_1
 62
7
 10
18.581494
 20
14.319064
  0
VERTEX
  8
LAYER_1
 62
7
 10
18.365048
 20
14.463966
 42
-0.003524
  0
VERTEX
  8
LAYER_1
 62
7
 10
18.095279
 20
14.652979
  0
VERTEX
  8
LAYER_1
 62
7
 10
17.998012
 20
14.720423
 42
0.039695
  0
VERTEX
  8
LAYER_1
 62
7
 10
17.581525
 20
14.966007
 42
0.039283
  0
VERTEX
  8
LAYER_1
 62
7
 10
17.361718
 20
15.049924
 42
0.056222
  0
VERTEX
  8
LAYER_1
 62
7
 10
17.137923
 20
15.089368
 42
0.153082
  0
VERTEX
  8
LAYER_1
 62
7
 10
16.689542
 20
14.979159
 42
0.139759
  0
VERTEX
  8
LAYER_1
 62
7
 10
16.462242
 20
14.743444
 42
0.147742
  0
VERTEX
  8
LAYER_1
 62
7
 10
16.399472
 20
14.387466
 42
0.129681
  0
VERTEX
  8
LAYER_1
 62
7
 10
16.473748
 20
14.185620
 42
0.281108
  0
VERTEX
  8
LAYER_1
 62
7
 10
16.901531
 20
14.005559
 42
0.185038
  0
VERTEX
  8
LAYER_1
 62
7
 10
17.066207
 20
14.107255
 42
0.185038
  0
VERTEX
  8
LAYER_1
 62
7
 10
17.120323
 20
14.293082
 42
0.199588
  0
VERTEX
  8
LAYER_1
 62
7
 10
17.026083
 20
14.477989
 42
0.199588
  0
VERTEX
  8
LAYER_1
 62
7
 10
16.828697
 20
14.542102
 42
-0.157254
  0
VERTEX
  8
LAYER_1
 62
7
 10
17.014415
 20
14.634043
 42
-0.122694
  0
VERTEX
  8
LAYER_1
 62
7
 10
17.221181
 20
14.613540
 42
-0.115174
  0
VERTEX
  8
LAYER_1
 62
7
 10
17.399650
 20
14.501265
 42
-0.142084
  0
VERTEX
  8
LAYER_1
 62
7
 10
17.500478
 20
14.317888
 42
-0.106296
  0
VERTEX
  8
LAYER_1
 62
7
 10
17.504757
 20
14.085438
 42
-0.088482
  0
VERTEX
  8
LAYER_1
 62
7
 10
17.420695
 20
13.869408
 42
-0.158443
  0
VERTEX
  8
LAYER_1
 62
7
 10
17.072616
 20
13.567564
  0
SEQEND
  0
POLYLINE
  8
LAYER_1
 62
7
 70
1
 66
1
  0
VERTEX
  8
LAYER_1
 62
7
 10
16.408883
 20
15.450232
 42
-0.106558
  0
VERTEX
  8
LAYER_1
 62
7
 10
15.918331
 20
15.449498
 42
-0.123541
  0
VERTEX
  8
LAYER_1
 62
7
 10
15.478323
 20
15.661812
 42
-0.163621
  0
VERTEX
  8
LAYER_1
 62
7
 10
15.197049
 20
16.293270
 42
-0.088716
  0
VERTEX
  8
LAYER_1
 62
7
 10
15.223270
 20
16.640314
 42
-0.105732
  0
VERTEX
  8
LAYER_1
 62
7
 10
15.379194
 20
16.952057
 42
-0.079120
  0
VERTEX
  8
LAYER_1
 62
7
 10
15.543671
 20
17.088953
 42
-0.054165
  0
VERTEX
  8
LAYER_1
 62
7
 10
15.736137
 20
17.175930
 42
-0.027051
  0
VERTEX
  8
LAYER_1
 62
7
 10
15.943297
 20
17.231684
  0
VERTEX
  8
LAYER_1
 62
7
 10
16.151852
 20
17.274912
 42
-0.103943
  0
VERTEX
  8
LAYER_1
 62
7
 10
16.298489
 20
17.708406
 42
-0.131706
  0
VERTEX
  8
LAYER_1
 62
7
 10
16.622030
 20
18.028763
 42
-0.061855
  0
VERTEX
  8
LAYER_1
 62
7
 10
16.830408
 20
18.127415
 42
-0.043365
  0
VERTEX
  8
LAYER_1
 62
7
 10
17.053369
 20
18.179710
 42
-0.024047
  0
VERTEX
  8
LAYER_1
 62
7
 10
17.283602
 20
18.201884
  0
VERTEX
  8
LAYER_1
 62
7
 10
17.513799
 20
18.210173
  0
VERTEX
  8
LAYER_1
 62
7
 10
17.260442
 20
18.101108
 42
0.025764
  0
VERTEX
  8
LAYER_1
 62
7
 10
17.012669
 20
17.975917
 42
0.048306
  0
VERTEX
  8
LAYER_1
 62
7
 10
16.788698
 20
17.817594
 42
0.069653
  0
VERTEX
  8
LAYER_1
 62
7
 10
16.606749
 20
17.609130
 42
0.114843
  0
VERTEX
  8
LAYER_1
 62
7
 10
16.459329
 20
17.243763
 42
0.067905
  0
VERTEX
  8
LAYER_1
 62
7
 10
16.451199
 20
16.846659
 42
-0.041115
  0
VERTEX
  8
LAYER_1
 62
7
 10
16.597186
 20
17.105716
 42
-0.054584
  0
VERTEX
  8
LAYER_1
 62
7
 10
16.789824
 20
17.333440
 42
-0.074576
  0
VERTEX
  8
LAYER_1
 62
7
 10
17.029627
 20
17.501730
 42
-0.092755
  0
VERTEX
  8
LAYER_1
 62
7
 10
17.317109
 20
17.582487
 42
-0.027231
  0
VERTEX
  8
LAYER_1
 62
7
 10
17.319281
 20
17.332434
 42
-0.084506
  0
VERTEX
  8
LAYER_1
 62
7
 10
17.267027
 20
17.090273
 42
-0.041328
  0
VERTEX
  8
LAYER_1
 62
7
 10
17.129651
 20
16.836605
 42
-0.038100
  0
VERTEX
  8
LAYER_1
 62
7
 10
16.917108
 20
16.554994
 42
-0.055464
  0
VERTEX
  8
LAYER_1
 62
7
 10
16.653013
 20
16.311833
 42
-0.101982
  0
VERTEX
  8
LAYER_1
 62
7
 10
16.360980
 20
16.173516
 42
-0.139656
  0
VERTEX
  8
LAYER_1
 62
7
 10
16.119588
 20
16.185406
 42
-0.210522
  0
VERTEX
  8
LAYER_1
 62
7
 10
15.962643
 20
16.327532
 42
0.196375
  0
VERTEX
  8
LAYER_1
 62
7
 10
16.118424
 20
16.402534
 42
0.196375
  0
VERTEX
  8
LAYER_1
 62
7
 10
16.177366
 20
16.565073
 42
0.311931
  0
VERTEX
  8
LAYER_1
 62
7
 10
16.021040
 20
16.773843
 42
0.224562
  0
VERTEX
  8
LAYER_1
 62
7
 10
15.775011
 20
16.747884
 42
0.196943
  0
VERTEX
  8
LAYER_1
 62
7
 10
15.631433
 20
16.549613
 42
0.136274
  0
VERTEX
  8
LAYER_1
 62
7
 10
15.640979
 20
16.293152
 42
0.121244
  0
VERTEX
  8
LAYER_1
 62
7
 10
15.774660
 20
16.070042
 42
0.121309
  0
VERTEX
  8
LAYER_1
 62
7
 10
16.016240
 20
15.921792
 42
0.098145
  0
VERTEX
  8
LAYER_1
 62
7
 10
16.287786
 20
15.893716
 42
0.093899
  0
VERTEX
  8
LAYER_1
 62
7
 10
16.668236
 20
15.995199
 42
0.078259
  0
VERTEX
  8
LAYER_1
 62
7
 10
16.964328
 20
16.204864
 42
0.043711
  0
VERTEX
  8
LAYER_1
 62
7
 10
17.206084
 20
16.486459
 42
0.011436
  0
VERTEX
  8
LAYER_1
 62
7
 10
17.423527
 20
16.803729
  0
VERTEX
  8
LAYER_1
 62
7
 10
17.478144
 20
16.883881
 42
0.165346
  0
VERTEX
  8
LAYER_1
 62
7
 10
18.096036
 20
16.351797
 42
0.042473
  0
VERTEX
  8
LAYER_1
 62
7
 10
18.226412
 20
16.884665
 42
0.075753
  0
VERTEX
  8
LAYER_1
 62
7
 10
18.229253
 20
17.431638
 42
-0.087189
  0
VERTEX
  8
LAYER_1
 62
7
 10
18.481581
 20
17.063332
 42
-0.105430
  0
VERTEX
  8
LAYER_1
 62
7
 10
18.578751
 20
16.629202
 42
-0.079967
  0
VERTEX
  8
LAYER_1
 62
7
 10
18.543145
 20
16.357381
 42
-0.125469
  0
VERTEX
  8
LAYER_1
 62
7
 10
18.404394
 20
16.123761
 42
-0.153792
  0
VERTEX
  8
LAYER_1
 62
7
 10
18.169795
 20
15.996813
 42
-0.092855
  0
VERTEX
  8
LAYER_1
 62
7
 10
17.899345
 20
15.993287
 42
-0.115877
  0
VERTEX
  8
LAYER_1
 62
7
 10
17.660975
 20
16.089233
 42
-0.044019
  0
VERTEX
  8
LAYER_1
 62
7
 10
17.461688
 20
16.256586
 42
-0.237116
  0
VERTEX
  8
LAYER_1
 62
7
 10
16.408883
 20
15.450232
  0
SEQEND
  0
POLYLINE
  8
LAYER_1
 62
7
 70
1
 66
1
  0
VERTEX
  8
LAYER_1
 62
7
 10
13.462438
 20
16.204867
 42
0.040427
  0
VERTEX
  8
LAYER_1
 62
7
 10
13.091781
 20
16.153539
 42
-0.074863
  0
VERTEX
  8
LAYER_1
 62
7
 10
12.487999
 20
16.895616
  0
VERTEX
  8
LAYER_1
 62
7
 10
12.358238
 20
17.114397
  0
VERTEX
  8
LAYER_1
 62
7
 10
12.357452
 20
17.386618
  0
VERTEX
  8
LAYER_1
 62
7
 10
12.357129
 20
17.415182
 42
0.003929
  0
VERTEX
  8
LAYER_1
 62
7
 10
12.357917
 20
17.845201
  0
VERTEX
  8
LAYER_1
 62
7
 10
12.358617
 20
17.988491
  0
VERTEX
  8
LAYER_1
 62
7
 10
12.361806
 20
18.245192
  0
VERTEX
  8
LAYER_1
 62
7
 10
12.488874
 20
17.908903
 42
0.041286
  0
VERTEX
  8
LAYER_1
 62
7
 10
12.914404
 20
17.022490
 42
0.030356
  0
VERTEX
  8
LAYER_1
 62
7
 10
13.462438
 20
16.204867
  0
SEQEND
  0
POLYLINE
  8
LAYER_1
 62
7
 70
1
 66
1
  0
VERTEX
  8
LAYER_1
 62
7
 10
17.903655
 20
16.809828
 42
-0.099810
  0
VERTEX
  8
LAYER_1
 62
7
 10
17.736822
 20
17.049723
 42
-0.076675
  0
VERTEX
  8
LAYER_1
 62
7
 10
17.665677
 20
17.328150
 42
-0.051562
  0
VERTEX
  8
LAYER_1
 62
7
 10
17.666895
 20
17.622372
 42
-0.034268
  0
VERTEX
  8
LAYER_1
 62
7
 10
17.717151
 20
17.909652
 42
-0.096499
  0
VERTEX
  8
LAYER_1
 62
7
 10
17.880238
 20
17.668600
 42
-0.073971
  0
VERTEX
  8
LAYER_1
 62
7
 10
17.951603
 20
17.389714
 42
-0.051084
  0
VERTEX
  8
LAYER_1
 62
7
 10
17.952368
 20
17.095841
 42
-0.035853
  0
VERTEX
  8
LAYER_1
 62
7
 10
17.903655
 20
16.809828
  0
SEQEND
  0
POLYLINE
  8
LAYER_1
 62
7
 70
1
 66
1
  0
VERTEX
  8
LAYER_1
 62
7
 10
15.856380
 20
17.565185
 42
0.124635
  0
VERTEX
  8
LAYER_1
 62
7
 10
15.014023
 20
17.200076
  0
VERTEX
  8
LAYER_1
 62
7
 10
15.043236
 20
17.304366
 42
0.075483
  0
VERTEX
  8
LAYER_1
 62
7
 10
15.069362
 20
17.477670
 42
0.096124
  0
VERTEX
  8
LAYER_1
 62
7
 10
15.038577
 20
17.636389
 42
0.112950
  0
VERTEX
  8
LAYER_1
 62
7
 10
14.946383
 20
17.766917
 42
0.104695
  0
VERTEX
  8
LAYER_1
 62
7
 10
14.788278
 20
17.855644
 42
0.082211
  0
VERTEX
  8
LAYER_1
 62
7
 10
14.665386
 20
17.875170
  0
VERTEX
  8
LAYER_1
 62
7
 10
14.659435
 20
17.875685
 42
0.199588
  0
VERTEX
  8
LAYER_1
 62
7
 10
14.456025
 20
17.808948
 42
0.199588
  0
VERTEX
  8
LAYER_1
 62
7
 10
14.359380
 20
17.617925
 42
0.199588
  0
VERTEX
  8
LAYER_1
 62
7
 10
14.426118
 20
17.414514
 42
0.199588
  0
VERTEX
  8
LAYER_1
 62
7
 10
14.617141
 20
17.317870
 42
-0.294319
  0
VERTEX
  8
LAYER_1
 62
7
 10
14.233884
 20
17.312342
 42
-0.213479
  0
VERTEX
  8
LAYER_1
 62
7
 10
14.071638
 20
17.539528
 42
-0.167207
  0
VERTEX
  8
LAYER_1
 62
7
 10
14.117556
 20
17.945647
 42
-0.113509
  0
VERTEX
  8
LAYER_1
 62
7
 10
14.374740
 20
18.255711
 42
-0.063291
  0
VERTEX
  8
LAYER_1
 62
7
 10
14.738419
 20
18.472107
 42
-0.044653
  0
VERTEX
  8
LAYER_1
 62
7
 10
15.103824
 20
18.597227
 42
-0.064232
  0
VERTEX
  8
LAYER_1
 62
7
 10
15.764740
 20
18.666245
  0
VERTEX
  8
LAYER_1
 62
7
 10
15.714205
 20
18.642757
 42
0.016885
  0
VERTEX
  8
LAYER_1
 62
7
 10
15.548470
 20
18.559968
 42
0.040026
  0
VERTEX
  8
LAYER_1
 62
7
 10
15.356381
 20
18.435858
 42
0.088735
  0
VERTEX
  8
LAYER_1
 62
7
 10
15.205914
 20
18.275769
 42
0.187462
  0
VERTEX
  8
LAYER_1
 62
7
 10
15.165044
 20
18.085045
 42
0.280192
  0
VERTEX
  8
LAYER_1
 62
7
 10
15.306336
 20
17.923389
 42
0.132460
  0
VERTEX
  8
LAYER_1
 62
7
 10
15.408261
 20
17.924368
 42
0.076523
  0
VERTEX
  8
LAYER_1
 62
7
 10
15.504266
 20
17.968454
 42
0.032806
  0
VERTEX
  8
LAYER_1
 62
7
 10
15.591743
 20
18.033945
  0
VERTEX
  8
LAYER_1
 62
7
 10
15.668087
 20
18.099138
 42
-0.027013
  0
VERTEX
  8
LAYER_1
 62
7
 10
15.855542
 20
18.240408
 42
-0.054172
  0
VERTEX
  8
LAYER_1
 62
7
 10
16.062910
 20
18.349268
 42
-0.099006
  0
VERTEX
  8
LAYER_1
 62
7
 10
16.345017
 20
18.399420
 42
-0.009024
  0
VERTEX
  8
LAYER_1
 62
7
 10
16.634176
 20
18.388449
 42
0.204737
  0
VERTEX
  8
LAYER_1
 62
7
 10
15.856380
 20
17.565185
  0
SEQEND
  0
POLYLINE
  8
LAYER_1
 62
7
 70
1
 66
1
  0
VERTEX
  8
LAYER_1
 62
7
 10
13.923801
 20
18.238782
 42
-0.125816
  0
VERTEX
  8
LAYER_1
 62
7
 10
13.780626
 20
18.159135
 42
-0.179796
  0
VERTEX
  8
LAYER_1
 62
7
 10
13.631345
 20
18.176858
 42
-0.174751
  0
VERTEX
  8
LAYER_1
 62
7
 10
13.524504
 20
18.290670
 42
-0.151723
  0
VERTEX
  8
LAYER_1
 62
7
 10
13.502518
 20
18.471869
 42
-0.108394
  0
VERTEX
  8
LAYER_1
 62
7
 10
13.575515
 20
18.637730
 42
-0.108240
  0
VERTEX
  8
LAYER_1
 62
7
 10
13.832631
 20
18.866096
 42
-0.063830
  0
VERTEX
  8
LAYER_1
 62
7
 10
14.176224
 20
19.006824
 42
-0.068267
  0
VERTEX
  8
LAYER_1
 62
7
 10
14.888785
 20
19.094609
 42
-0.038055
  0
VERTEX
  8
LAYER_1
 62
7
 10
15.614935
 20
19.022751
  0
VERTEX
  8
LAYER_1
 62
7
 10
15.663652
 20
19.014568
  0
VERTEX
  8
LAYER_1
 62
7
 10
15.706359
 20
18.945217
  0
VERTEX
  8
LAYER_1
 62
7
 10
15.645068
 20
18.940341
 42
0.027867
  0
VERTEX
  8
LAYER_1
 62
7
 10
15.164184
 20
18.874636
 42
0.041448
  0
VERTEX
  8
LAYER_1
 62
7
 10
14.728841
 20
18.751759
 42
0.099080
  0
VERTEX
  8
LAYER_1
 62
7
 10
13.943670
 20
18.256933
  0
VERTEX
  8
LAYER_1
 62
7
 10
13.923801
 20
18.238782
  0
SEQEND
  0
POLYLINE
  8
LAYER_1
 62
7
 70
1
 66
1
  0
VERTEX
  8
LAYER_1
 62
7
 10
26.641481
 20
15.974828
 42
0.027974
  0
VERTEX
  8
LAYER_1
 62
7
 10
26.571766
 20
16.027767
 42
0.030460
  0
VERTEX
  8
LAYER_1
 62
7
 10
26.794072
 20
16.282152
 42
-0.011070
  0
VERTEX
  8
LAYER_1
 62
7
 10
27.006680
 20
16.545354
 42
-0.004421
  0
VERTEX
  8
LAYER_1
 62
7
 10
27.013021
 20
16.024252
  0
VERTEX
  8
LAYER_1
 62
7
 10
27.018271
 20
13.350841
  0
VERTEX
  8
LAYER_1
 62
7
 10
27.006653
 20
12.639906
  0
VERTEX
  8
LAYER_1
 62
7
 10
27.003546
 20
12.472834
 42
-0.024897
  0
VERTEX
  8
LAYER_1
 62
7
 10
26.937776
 20
12.588352
  0
VERTEX
  8
LAYER_1
 62
7
 10
26.879390
 20
12.707874
 42
0.041295
  0
VERTEX
  8
LAYER_1
 62
7
 10
26.750826
 20
12.940269
 42
0.047666
  0
VERTEX
  8
LAYER_1
 62
7
 10
26.333455
 20
13.439360
 42
0.005472
  0
VERTEX
  8
LAYER_1
 62
7
 10
25.982790
 20
13.780629
  0
VERTEX
  8
LAYER_1
 62
7
 10
25.865997
 20
13.894287
 42
-0.025754
  0
VERTEX
  8
LAYER_1
 62
7
 10
25.589016
 20
14.194345
 42
-0.048367
  0
VERTEX
  8
LAYER_1
 62
7
 10
25.346836
 20
14.548204
 42
-0.083096
  0
VERTEX
  8
LAYER_1
 62
7
 10
25.206721
 20
14.942047
 42
-0.119477
  0
VERTEX
  8
LAYER_1
 62
7
 10
25.235935
 20
15.362062
 42
-0.113827
  0
VERTEX
  8
LAYER_1
 62
7
 10
25.368756
 20
15.582330
 42
-0.085701
  0
VERTEX
  8
LAYER_1
 62
7
 10
25.578429
 20
15.735859
 42
-0.125140
  0
VERTEX
  8
LAYER_1
 62
7
 10
25.882179
 20
15.805668
 42
-0.110695
  0
VERTEX
  8
LAYER_1
 62
7
 10
26.184585
 20
15.733144
 42
-0.130837
  0
VERTEX
  8
LAYER_1
 62
7
 10
26.413270
 20
15.537760
 42
-0.162005
  0
VERTEX
  8
LAYER_1
 62
7
 10
26.495856
 20
15.238985
 42
-0.115151
  0
VERTEX
  8
LAYER_1
 62
7
 10
26.441292
 20
15.040394
 42
0.020851
  0
VERTEX
  8
LAYER_1
 62
7
 10
26.400815
 20
15.100963
 42
0.199588
  0
VERTEX
  8
LAYER_1
 62
7
 10
26.180543
 20
15.237319
 42
0.199588
  0
VERTEX
  8
LAYER_1
 62
7
 10
25.928369
 20
15.177984
 42
0.182678
  0
VERTEX
  8
LAYER_1
 62
7
 10
25.796293
 20
14.979477
 42
0.180142
  0
VERTEX
  8
LAYER_1
 62
7
 10
25.826510
 20
14.745599
 42
0.101022
  0
VERTEX
  8
LAYER_1
 62
7
 10
25.925112
 20
14.626335
 42
0.293230
  0
VERTEX
  8
LAYER_1
 62
7
 10
26.614653
 20
14.543155
 42
0.177964
  0
VERTEX
  8
LAYER_1
 62
7
 10
26.929512
 20
14.846628
 42
0.134817
  0
VERTEX
  8
LAYER_1
 62
7
 10
26.992930
 20
15.254474
 42
0.091135
  0
VERTEX
  8
LAYER_1
 62
7
 10
26.873918
 20
15.664579
 42
0.099306
  0
VERTEX
  8
LAYER_1
 62
7
 10
26.641481
 20
15.974828
  0
SEQEND
  0
POLYLINE
  8
LAYER_1
 62
7
 70
1
 66
1
  0
VERTEX
  8
LAYER_1
 62
7
 10
21.566696
 20
4.992268
  0
VERTEX
  8
LAYER_1
 62
7
 10
21.507564
 20
5.032669
 42
0.100955
  0
VERTEX
  8
LAYER_1
 62
7
 10
22.474709
 20
5.120925
 42
0.075066
  0
VERTEX
  8
LAYER_1
 62
7
 10
23.356929
 20
5.536543
 42
-0.005732
  0
VERTEX
  8
LAYER_1
 62
7
 10
23.713838
 20
5.755223
 42
-0.052758
  0
VERTEX
  8
LAYER_1
 62
7
 10
23.913172
 20
5.858142
 42
-0.036709
  0
VERTEX
  8
LAYER_1
 62
7
 10
24.165977
 20
5.937296
 42
-0.064420
  0
VERTEX
  8
LAYER_1
 62
7
 10
24.754291
 20
5.998281
 42
-0.040066
  0
VERTEX
  8
LAYER_1
 62
7
 10
25.050944
 20
5.967099
 42
-0.053251
  0
VERTEX
  8
LAYER_1
 62
7
 10
25.323357
 20
5.886125
 42
-0.073608
  0
VERTEX
  8
LAYER_1
 62
7
 10
25.552103
 20
5.748853
 42
-0.094524
  0
VERTEX
  8
LAYER_1
 62
7
 10
25.717753
 20
5.548776
  0
VERTEX
  8
LAYER_1
 62
7
 10
25.730321
 20
5.524412
 42
-0.176714
  0
VERTEX
  8
LAYER_1
 62
7
 10
25.776790
 20
5.035601
 42
-0.210710
  0
VERTEX
  8
LAYER_1
 62
7
 10
25.480990
 20
4.648694
 42
-0.121447
  0
VERTEX
  8
LAYER_1
 62
7
 10
25.171390
 20
4.570876
 42
-0.133093
  0
VERTEX
  8
LAYER_1
 62
7
 10
24.863261
 20
4.650171
 42
-0.099989
  0
VERTEX
  8
LAYER_1
 62
7
 10
24.732637
 20
4.768372
 42
-0.073929
  0
VERTEX
  8
LAYER_1
 62
7
 10
24.647701
 20
4.926667
 42
0.199588
  0
VERTEX
  8
LAYER_1
 62
7
 10
24.886230
 20
4.802039
 42
0.199588
  0
VERTEX
  8
LAYER_1
 62
7
 10
25.143021
 20
4.882576
 42
0.222774
  0
VERTEX
  8
LAYER_1
 62
7
 10
25.269042
 20
5.152500
 42
0.188818
  0
VERTEX
  8
LAYER_1
 62
7
 10
25.161236
 20
5.406349
 42
0.302244
  0
VERTEX
  8
LAYER_1
 62
7
 10
24.621315
 20
5.471479
 42
0.128461
  0
VERTEX
  8
LAYER_1
 62
7
 10
24.423950
 20
5.302073
 42
0.110283
  0
VERTEX
  8
LAYER_1
 62
7
 10
24.336767
 20
5.076985
 42
0.075913
  0
VERTEX
  8
LAYER_1
 62
7
 10
24.336795
 20
4.827580
 42
0.056661
  0
VERTEX
  8
LAYER_1
 62
7
 10
24.401067
 20
4.585223
  0
VERTEX
  8
LAYER_1
 62
7
 10
24.425799
 20
4.522527
  0
VERTEX
  8
LAYER_1
 62
7
 10
23.077957
 20
4.524878
 42
-0.024090
  0
VERTEX
  8
LAYER_1
 62
7
 10
22.959390
 20
4.529376
 42
-0.037333
  0
VERTEX
  8
LAYER_1
 62
7
 10
22.627569
 20
4.590116
 42
-0.037621
  0
VERTEX
  8
LAYER_1
 62
7
 10
21.846976
 20
4.850823
 42
-0.039888
  0
VERTEX
  8
LAYER_1
 62
7
 10
21.566696
 20
4.992268
  0
SEQEND
  0
POLYLINE
  8
LAYER_1
 62
7
 70
1
 66
1
  0
VERTEX
  8
LAYER_1
 62
7
 10
25.991881
 20
4.522527
  0
VERTEX
  8
LAYER_1
 62
7
 10
26.096153
 20
4.691840
 42
0.064128
  0
VERTEX
  8
LAYER_1
 62
7
 10
26.178385
 20
4.872025
 42
0.092953
  0
VERTEX
  8
LAYER_1
 62
7
 10
26.214530
 20
5.247873
 42
0.068696
  0
VERTEX
  8
LAYER_1
 62
7
 10
26.130191
 20
5.617256
 42
0.080327
  0
VERTEX
  8
LAYER_1
 62
7
 10
26.002999
 20
5.831922
 42
0.002350
  0
VERTEX
  8
LAYER_1
 62
7
 10
25.841424
 20
6.023960
 42
-0.117802
  0
VERTEX
  8
LAYER_1
 62
7
 10
26.567065
 20
5.581993
 42
-0.211769
  0
VERTEX
  8
LAYER_1
 62
7
 10
27.008640
 20
4.520568
  0
VERTEX
  8
LAYER_1
 62
7
 10
26.500260
 20
4.522576
  0
VERTEX
  8
LAYER_1
 62
7
 10
25.991881
 20
4.522527
  0
SEQEND
  0
POLYLINE
  8
LAYER_1
 62
7
 70
1
 66
1
  0
VERTEX
  8
LAYER_1
 62
7
 10
20.567993
 20
4.539767
 42
0.008051
  0
VERTEX
  8
LAYER_1
 62
7
 10
20.565642
 20
5.269717
  0
VERTEX
  8
LAYER_1
 62
7
 10
20.577708
 20
5.258974
 42
0.097373
  0
VERTEX
  8
LAYER_1
 62
7
 10
21.688974
 20
4.538591
 42
-0.006617
  0
VERTEX
  8
LAYER_1
 62
7
 10
21.128337
 20
4.538150
  0
VERTEX
  8
LAYER_1
 62
7
 10
20.848110
 20
4.540299
  0
VERTEX
  8
LAYER_1
 62
7
 10
20.567993
 20
4.539767
  0
SEQEND
  0
POLYLINE
  8
LAYER_1
 62
7
 70
1
 66
1
  0
VERTEX
  8
LAYER_1
 62
7
 10
20.313084
 20
6.273267
 42
-0.038285
  0
VERTEX
  8
LAYER_1
 62
7
 10
20.203214
 20
6.596009
 42
0.041490
  0
VERTEX
  8
LAYER_1
 62
7
 10
20.564075
 20
6.619959
 42
0.007902
  0
VERTEX
  8
LAYER_1
 62
7
 10
20.921410
 20
6.679465
 42
-0.016822
  0
VERTEX
  8
LAYER_1
 62
7
 10
20.960691
 20
6.598741
 42
0.100580
  0
VERTEX
  8
LAYER_1
 62
7
 10
21.293210
 20
6.137306
 42
0.085441
  0
VERTEX
  8
LAYER_1
 62
7
 10
21.763608
 20
5.834569
 42
0.070873
  0
VERTEX
  8
LAYER_1
 62
7
 10
22.314907
 20
5.687033
 42
0.065185
  0
VERTEX
  8
LAYER_1
 62
7
 10
22.890127
 20
5.691201
  0
VERTEX
  8
LAYER_1
 62
7
 10
22.917705
 20
5.695227
 42
-0.052087
  0
VERTEX
  8
LAYER_1
 62
7
 10
22.637331
 20
5.553104
 42
-0.043912
  0
VERTEX
  8
LAYER_1
 62
7
 10
22.217271
 20
5.439991
 42
-0.038125
  0
VERTEX
  8
LAYER_1
 62
7
 10
21.683358
 20
5.380502
 42
-0.061494
  0
VERTEX
  8
LAYER_1
 62
7
 10
21.205595
 20
5.416777
 42
-0.093183
  0
VERTEX
  8
LAYER_1
 62
7
 10
20.835408
 20
5.568532
 42
-0.090136
  0
VERTEX
  8
LAYER_1
 62
7
 10
20.546628
 20
5.849463
 42
-0.056591
  0
VERTEX
  8
LAYER_1
 62
7
 10
20.313084
 20
6.273267
  0
SEQEND
  0
POLYLINE
  8
LAYER_1
 62
7
 70
1
 66
1
  0
VERTEX
  8
LAYER_1
 62
7
 10
26.024010
 20
6.368756
 42
0.076787
  0
VERTEX
  8
LAYER_1
 62
7
 10
25.408567
 20
6.494529
 42
0.053643
  0
VERTEX
  8
LAYER_1
 62
7
 10
24.779607
 20
6.458090
 42
0.019763
  0
VERTEX
  8
LAYER_1
 62
7
 10
24.202791
 20
6.323157
 42
-0.003318
  0
VERTEX
  8
LAYER_1
 62
7
 10
23.630114
 20
6.169186
 42
-0.017631
  0
VERTEX
  8
LAYER_1
 62
7
 10
23.244351
 20
6.085719
 42
-0.034742
  0
VERTEX
  8
LAYER_1
 62
7
 10
22.752990
 20
6.031701
 42
-0.054392
  0
VERTEX
  8
LAYER_1
 62
7
 10
22.265875
 20
6.064084
 42
-0.079969
  0
VERTEX
  8
LAYER_1
 62
7
 10
21.816260
 20
6.220176
 42
-0.098155
  0
VERTEX
  8
LAYER_1
 62
7
 10
21.437398
 20
6.537286
  0
VERTEX
  8
LAYER_1
 62
7
 10
21.415488
 20
6.564664
  0
VERTEX
  8
LAYER_1
 62
7
 10
21.707414
 20
6.525467
 42
0.084489
  0
VERTEX
  8
LAYER_1
 62
7
 10
23.221110
 20
6.563567
 42
0.083830
  0
VERTEX
  8
LAYER_1
 62
7
 10
24.576557
 20
7.076032
  0
VERTEX
  8
LAYER_1
 62
7
 10
24.664022
 20
7.128877
  0
VERTEX
  8
LAYER_1
 62
7
 10
24.757830
 20
7.184748
  0
VERTEX
  8
LAYER_1
 62
7
 10
24.861751
 20
7.176635
 42
-0.020305
  0
VERTEX
  8
LAYER_1
 62
7
 10
25.308987
 20
7.124805
 42
-0.030928
  0
VERTEX
  8
LAYER_1
 62
7
 10
25.750233
 20
7.027376
 42
-0.043084
  0
VERTEX
  8
LAYER_1
 62
7
 10
26.169354
 20
6.867256
 42
-0.055224
  0
VERTEX
  8
LAYER_1
 62
7
 10
26.550217
 20
6.627354
 42
-0.191196
  0
VERTEX
  8
LAYER_1
 62
7
 10
27.106201
 20
5.708941
  0
VERTEX
  8
LAYER_1
 62
7
 10
26.851100
 20
5.899038
 42
0.013502
  0
VERTEX
  8
LAYER_1
 62
7
 10
26.589937
 20
6.081312
 42
0.062047
  0
VERTEX
  8
LAYER_1
 62
7
 10
26.024010
 20
6.368756
  0
SEQEND
  0
POLYLINE
  8
LAYER_1
 62
7
 70
1
 66
1
  0
VERTEX
  8
LAYER_1
 62
7
 10
25.380650
 20
7.403538
 42
0.072673
  0
VERTEX
  8
LAYER_1
 62
7
 10
26.261939
 20
7.695342
 42
0.086361
  0
VERTEX
  8
LAYER_1
 62
7
 10
27.007464
 20
8.245156
 42
-0.005532
  0
VERTEX
  8
LAYER_1
 62
7
 10
27.008640
 20
6.651647
 42
0.074454
  0
VERTEX
  8
LAYER_1
 62
7
 10
26.254066
 20
7.153430
 42
0.074454
  0
VERTEX
  8
LAYER_1
 62
7
 10
25.382878
 20
7.402828
  0
VERTEX
  8
LAYER_1
 62
7
 10
25.380650
 20
7.403538
  0
SEQEND
  0
POLYLINE
  8
LAYER_1
 62
7
 70
1
 66
1
  0
VERTEX
  8
LAYER_1
 62
7
 10
21.342654
 20
6.862748
  0
VERTEX
  8
LAYER_1
 62
7
 10
21.183952
 20
6.894594
  0
VERTEX
  8
LAYER_1
 62
7
 10
21.329952
 20
6.911585
 42
0.052000
  0
VERTEX
  8
LAYER_1
 62
7
 10
21.660931
 20
6.988754
 42
0.023748
  0
VERTEX
  8
LAYER_1
 62
7
 10
21.977350
 20
7.115163
 42
0.116420
  0
VERTEX
  8
LAYER_1
 62
7
 10
23.242127
 20
8.094307
 42
0.044616
  0
VERTEX
  8
LAYER_1
 62
7
 10
23.880834
 20
7.684665
 42
0.054625
  0
VERTEX
  8
LAYER_1
 62
7
 10
24.586834
 20
7.409024
 42
-0.017749
  0
VERTEX
  8
LAYER_1
 62
7
 10
24.369752
 20
7.284517
 42
-0.046568
  0
VERTEX
  8
LAYER_1
 62
7
 10
23.676101
 20
7.000982
 42
-0.039552
  0
VERTEX
  8
LAYER_1
 62
7
 10
22.918065
 20
6.833256
 42
-0.037936
  0
VERTEX
  8
LAYER_1
 62
7
 10
22.142432
 20
6.783174
 42
-0.041609
  0
VERTEX
  8
LAYER_1
 62
7
 10
21.395990
 20
6.852570
  0
VERTEX
  8
LAYER_1
 62
7
 10
21.342654
 20
6.862748
  0
SEQEND
  0
POLYLINE
  8
LAYER_1
 62
7
 70
1
 66
1
  0
VERTEX
  8
LAYER_1
 62
7
 10
20.146793
 20
7.193918
 42
-0.039106
  0
VERTEX
  8
LAYER_1
 62
7
 10
20.301119
 20
7.344864
 42
0.025119
  0
VERTEX
  8
LAYER_1
 62
7
 10
20.459852
 20
7.491697
 42
0.066739
  0
VERTEX
  8
LAYER_1
 62
7
 10
20.981260
 20
8.141913
 42
0.087880
  0
VERTEX
  8
LAYER_1
 62
7
 10
21.281096
 20
8.916726
 42
0.027616
  0
VERTEX
  8
LAYER_1
 62
7
 10
21.400748
 20
8.839475
 42
0.106649
  0
VERTEX
  8
LAYER_1
 62
7
 10
21.827510
 20
8.704821
 42
0.093003
  0
VERTEX
  8
LAYER_1
 62
7
 10
22.261380
 20
8.746606
 42
0.159580
  0
VERTEX
  8
LAYER_1
 62
7
 10
22.983648
 20
9.240606
 42
0.145803
  0
VERTEX
  8
LAYER_1
 62
7
 10
23.269554
 20
10.003619
 42
-0.041538
  0
VERTEX
  8
LAYER_1
 62
7
 10
23.267889
 20
9.770098
  0
VERTEX
  8
LAYER_1
 62
7
 10
23.244478
 20
9.537752
 42
-0.064050
  0
VERTEX
  8
LAYER_1
 62
7
 10
23.130313
 20
8.884205
 42
-0.095479
  0
VERTEX
  8
LAYER_1
 62
7
 10
22.820143
 20
8.301185
 42
-0.102297
  0
VERTEX
  8
LAYER_1
 62
7
 10
21.912358
 20
7.519614
 42
-0.114649
  0
VERTEX
  8
LAYER_1
 62
7
 10
20.765076
 20
7.185298
  0
VERTEX
  8
LAYER_1
 62
7
 10
20.455787
 20
7.186228
 42
-0.017004
  0
VERTEX
  8
LAYER_1
 62
7
 10
20.146793
 20
7.193918
  0
SEQEND
  0
POLYLINE
  8
LAYER_1
 62
7
 70
1
 66
1
  0
VERTEX
  8
LAYER_1
 62
7
 10
19.924242
 20
7.431749
 42
0.031337
  0
VERTEX
  8
LAYER_1
 62
7
 10
20.260566
 20
8.267098
 42
0.049637
  0
VERTEX
  8
LAYER_1
 62
7
 10
20.457893
 20
9.144762
  0
VERTEX
  8
LAYER_1
 62
7
 10
20.547264
 20
9.113343
 42
-0.028861
  0
VERTEX
  8
LAYER_1
 62
7
 10
20.638618
 20
9.078839
 42
-0.084236
  0
VERTEX
  8
LAYER_1
 62
7
 10
20.716307
 20
9.027732
 42
-0.134420
  0
VERTEX
  8
LAYER_1
 62
7
 10
20.764684
 20
8.946504
 42
-0.105527
  0
VERTEX
  8
LAYER_1
 62
7
 10
20.759199
 20
8.576729
 42
-0.058419
  0
VERTEX
  8
LAYER_1
 62
7
 10
20.634994
 20
8.225173
 42
-0.056132
  0
VERTEX
  8
LAYER_1
 62
7
 10
20.345590
 20
7.765869
 42
-0.049533
  0
VERTEX
  8
LAYER_1
 62
7
 10
20.154476
 20
7.574786
 42
-0.064740
  0
VERTEX
  8
LAYER_1
 62
7
 10
19.924242
 20
7.431749
  0
SEQEND
  0
POLYLINE
  8
LAYER_1
 62
7
 70
1
 66
1
  0
VERTEX
  8
LAYER_1
 62
7
 10
23.508561
 20
8.641280
 42
-0.012727
  0
VERTEX
  8
LAYER_1
 62
7
 10
23.574239
 20
9.029471
 42
0.066506
  0
VERTEX
  8
LAYER_1
 62
7
 10
23.597895
 20
9.421775
  0
VERTEX
  8
LAYER_1
 62
7
 10
23.653140
 20
9.374757
 42
0.052332
  0
VERTEX
  8
LAYER_1
 62
7
 10
23.903167
 20
8.998860
 42
0.063466
  0
VERTEX
  8
LAYER_1
 62
7
 10
24.232242
 20
8.690257
 42
0.162696
  0
VERTEX
  8
LAYER_1
 62
7
 10
25.215794
 20
8.386454
 42
0.087167
  0
VERTEX
  8
LAYER_1
 62
7
 10
25.724651
 20
8.484573
 42
0.102581
  0
VERTEX
  8
LAYER_1
 62
7
 10
26.162320
 20
8.764702
 42
0.163613
  0
VERTEX
  8
LAYER_1
 62
7
 10
26.480865
 20
9.347526
 42
0.089485
  0
VERTEX
  8
LAYER_1
 62
7
 10
26.481894
 20
9.681217
 42
0.106127
  0
VERTEX
  8
LAYER_1
 62
7
 10
26.355093
 20
9.991473
 42
0.125136
  0
VERTEX
  8
LAYER_1
 62
7
 10
26.186943
 20
10.145401
 42
0.104981
  0
VERTEX
  8
LAYER_1
 62
7
 10
25.967001
 20
10.210252
 42
0.108553
  0
VERTEX
  8
LAYER_1
 62
7
 10
25.741181
 20
10.180407
 42
0.132930
  0
VERTEX
  8
LAYER_1
 62
7
 10
25.555400
 20
10.050245
 42
0.236116
  0
VERTEX
  8
LAYER_1
 62
7
 10
25.490212
 20
9.753054
 42
0.233928
  0
VERTEX
  8
LAYER_1
 62
7
 10
25.676862
 20
9.513459
 42
0.126567
  0
VERTEX
  8
LAYER_1
 62
7
 10
25.856362
 20
9.485298
 42
0.011107
  0
VERTEX
  8
LAYER_1
 62
7
 10
25.994378
 20
9.500030
  0
VERTEX
  8
LAYER_1
 62
7
 10
26.039682
 20
9.504448
 42
-0.043549
  0
VERTEX
  8
LAYER_1
 62
7
 10
26.024021
 20
9.431087
 42
-0.175647
  0
VERTEX
  8
LAYER_1
 62
7
 10
25.839897
 20
9.183347
 42
-0.172268
  0
VERTEX
  8
LAYER_1
 62
7
 10
25.544815
 20
9.109679
 42
-0.202385
  0
VERTEX
  8
LAYER_1
 62
7
 10
25.146563
 20
9.319655
 42
-0.167632
  0
VERTEX
  8
LAYER_1
 62
7
 10
24.994883
 20
9.748207
 42
-0.085355
  0
VERTEX
  8
LAYER_1
 62
7
 10
25.033503
 20
10.007537
 42
-0.248775
  0
VERTEX
  8
LAYER_1
 62
7
 10
25.746605
 20
10.735529
 42
0.064167
  0
VERTEX
  8
LAYER_1
 62
7
 10
25.583267
 20
11.223387
 42
0.034226
  0
VERTEX
  8
LAYER_1
 62
7
 10
25.327364
 20
11.671574
 42
0.049283
  0
VERTEX
  8
LAYER_1
 62
7
 10
24.865948
 20
12.212913
 42
0.041938
  0
VERTEX
  8
LAYER_1
 62
7
 10
24.315097
 20
12.660509
 42
0.034992
  0
VERTEX
  8
LAYER_1
 62
7
 10
23.699733
 20
13.020108
 42
0.029411
  0
VERTEX
  8
LAYER_1
 62
7
 10
23.044774
 20
13.297455
  0
VERTEX
  8
LAYER_1
 62
7
 10
22.872792
 20
13.358907
  0
VERTEX
  8
LAYER_1
 62
7
 10
22.974715
 20
13.368392
 42
0.109054
  0
VERTEX
  8
LAYER_1
 62
7
 10
23.255253
 20
13.462275
 42
0.060969
  0
VERTEX
  8
LAYER_1
 62
7
 10
23.490929
 20
13.645535
 42
-0.051542
  0
VERTEX
  8
LAYER_1
 62
7
 10
24.607209
 20
13.157383
 42
-0.047060
  0
VERTEX
  8
LAYER_1
 62
7
 10
25.607119
 20
12.460296
 42
-0.078487
  0
VERTEX
  8
LAYER_1
 62
7
 10
26.466662
 20
11.465528
 42
-0.089487
  0
VERTEX
  8
LAYER_1
 62
7
 10
26.953002
 20
10.246544
 42
-0.058523
  0
VERTEX
  8
LAYER_1
 62
7
 10
27.011620
 20
9.627897
 42
-0.070439
  0
VERTEX
  8
LAYER_1
 62
7
 10
26.912409
 20
9.015394
 42
-0.078389
  0
VERTEX
  8
LAYER_1
 62
7
 10
26.670135
 20
8.522980
 42
-0.081343
  0
VERTEX
  8
LAYER_1
 62
7
 10
26.309836
 20
8.159122
 42
-0.073664
  0
VERTEX
  8
LAYER_1
 62
7
 10
25.851240
 20
7.921804
 42
-0.061511
  0
VERTEX
  8
LAYER_1
 62
7
 10
25.314071
 20
7.809010
 42
-0.122651
  0
VERTEX
  8
LAYER_1
 62
7
 10
24.378959
 20
7.951764
 42
-0.119762
  0
VERTEX
  8
LAYER_1
 62
7
 10
23.586178
 20
8.543297
 42
-0.014974
  0
VERTEX
  8
LAYER_1
 62
7
 10
23.508561
 20
8.641280
  0
SEQEND
  0
POLYLINE
  8
LAYER_1
 62
7
 70
1
 66
1
  0
VERTEX
  8
LAYER_1
 62
7
 10
24.958274
 20
8.705930
 42
-0.101771
  0
VERTEX
  8
LAYER_1
 62
7
 10
24.509696
 20
8.973343
 42
-0.057324
  0
VERTEX
  8
LAYER_1
 62
7
 10
24.163675
 20
9.368880
 42
-0.024666
  0
VERTEX
  8
LAYER_1
 62
7
 10
23.927704
 20
9.826084
  0
VERTEX
  8
LAYER_1
 62
7
 10
23.715537
 20
10.296550
 42
0.021051
  0
VERTEX
  8
LAYER_1
 62
7
 10
23.486178
 20
10.757097
 42
0.043785
  0
VERTEX
  8
LAYER_1
 62
7
 10
23.198636
 20
11.184548
 42
0.082382
  0
VERTEX
  8
LAYER_1
 62
7
 10
22.623060
 20
11.757136
 42
0.069918
  0
VERTEX
  8
LAYER_1
 62
7
 10
21.901730
 20
12.133131
  0
VERTEX
  8
LAYER_1
 62
7
 10
21.901338
 20
12.198956
 42
-0.015766
  0
VERTEX
  8
LAYER_1
 62
7
 10
22.137879
 20
12.234858
 42
-0.045953
  0
VERTEX
  8
LAYER_1
 62
7
 10
22.376189
 20
12.241522
 42
-0.068795
  0
VERTEX
  8
LAYER_1
 62
7
 10
22.727556
 20
12.164436
 42
-0.054391
  0
VERTEX
  8
LAYER_1
 62
7
 10
23.059410
 20
11.998912
 42
-0.041486
  0
VERTEX
  8
LAYER_1
 62
7
 10
23.367416
 20
11.763152
 42
-0.032195
  0
VERTEX
  8
LAYER_1
 62
7
 10
23.647239
 20
11.475357
 42
-0.048848
  0
VERTEX
  8
LAYER_1
 62
7
 10
24.104995
 20
10.816458
 42
-0.046407
  0
VERTEX
  8
LAYER_1
 62
7
 10
24.398000
 20
10.167819
  0
VERTEX
  8
LAYER_1
 62
7
 10
24.424231
 20
10.087076
  0
VERTEX
  8
LAYER_1
 62
7
 10
24.518279
 20
9.799196
 42
0.016076
  0
VERTEX
  8
LAYER_1
 62
7
 10
24.620628
 20
9.512529
 42
0.035391
  0
VERTEX
  8
LAYER_1
 62
7
 10
24.750747
 20
9.240040
 42
0.054399
  0
VERTEX
  8
LAYER_1
 62
7
 10
24.928105
 20
8.994697
 42
0.087882
  0
VERTEX
  8
LAYER_1
 62
7
 10
25.152223
 20
8.823523
 42
-0.024728
  0
VERTEX
  8
LAYER_1
 62
7
 10
25.397498
 20
8.680854
 42
-0.007899
  0
VERTEX
  8
LAYER_1
 62
7
 10
25.175682
 20
8.671793
 42
-0.091252
  0
VERTEX
  8
LAYER_1
 62
7
 10
24.958274
 20
8.705930
  0
SEQEND
  0
POLYLINE
  8
LAYER_1
 62
7
 70
1
 66
1
  0
VERTEX
  8
LAYER_1
 62
7
 10
21.177294
 20
9.926779
 42
0.204199
  0
VERTEX
  8
LAYER_1
 62
7
 10
21.027592
 20
9.599267
 42
0.128159
  0
VERTEX
  8
LAYER_1
 62
7
 10
20.341525
 20
9.769314
 42
0.109364
  0
VERTEX
  8
LAYER_1
 62
7
 10
20.097424
 20
10.105491
 42
0.096461
  0
VERTEX
  8
LAYER_1
 62
7
 10
20.499034
 20
10.680136
 42
0.100519
  0
VERTEX
  8
LAYER_1
 62
7
 10
20.652625
 20
11.363216
  0
VERTEX
  8
LAYER_1
 62
7
 10
20.766055
 20
11.194588
 42
0.044454
  0
VERTEX
  8
LAYER_1
 62
7
 10
20.893591
 20
11.036834
 42
0.109800
  0
VERTEX
  8
LAYER_1
 62
7
 10
21.413627
 20
10.692968
 42
0.090789
  0
VERTEX
  8
LAYER_1
 62
7
 10
22.028286
 20
10.575668
 42
0.075696
  0
VERTEX
  8
LAYER_1
 62
7
 10
21.923573
 20
11.065339
 42
0.135358
  0
VERTEX
  8
LAYER_1
 62
7
 10
21.633729
 20
11.466263
 42
0.054229
  0
VERTEX
  8
LAYER_1
 62
7
 10
21.439921
 20
11.576326
 42
0.024134
  0
VERTEX
  8
LAYER_1
 62
7
 10
21.231090
 20
11.654725
  0
VERTEX
  8
LAYER_1
 62
7
 10
21.018660
 20
11.725779
 42
-0.036037
  0
VERTEX
  8
LAYER_1
 62
7
 10
20.814053
 20
11.813802
 42
-0.112829
  0
VERTEX
  8
LAYER_1
 62
7
 10
20.644789
 20
11.968177
 42
-0.037187
  0
VERTEX
  8
LAYER_1
 62
7
 10
20.527245
 20
12.167219
 42
0.081366
  0
VERTEX
  8
LAYER_1
 62
7
 10
20.857348
 20
11.974299
 42
0.127188
  0
VERTEX
  8
LAYER_1
 62
7
 10
21.234470
 20
11.930955
 42
-0.089178
  0
VERTEX
  8
LAYER_1
 62
7
 10
21.709836
 20
11.903995
 42
-0.078332
  0
VERTEX
  8
LAYER_1
 62
7
 10
22.146404
 20
11.723790
 42
-0.144197
  0
VERTEX
  8
LAYER_1
 62
7
 10
22.779671
 20
11.027934
 42
-0.082776
  0
VERTEX
  8
LAYER_1
 62
7
 10
22.925659
 20
10.532110
 42
-0.090974
  0
VERTEX
  8
LAYER_1
 62
7
 10
22.895864
 20
10.039567
 42
-0.144704
  0
VERTEX
  8
LAYER_1
 62
7
 10
22.501131
 20
9.390572
 42
-0.092744
  0
VERTEX
  8
LAYER_1
 62
7
 10
22.175543
 20
9.187782
 42
-0.121405
  0
VERTEX
  8
LAYER_1
 62
7
 10
21.796527
 20
9.139299
 42
-0.173573
  0
VERTEX
  8
LAYER_1
 62
7
 10
21.461620
 20
9.298048
 42
-0.096126
  0
VERTEX
  8
LAYER_1
 62
7
 10
21.344085
 20
9.475187
 42
0.199588
  0
VERTEX
  8
LAYER_1
 62
7
 10
21.569584
 20
9.417465
 42
0.199588
  0
VERTEX
  8
LAYER_1
 62
7
 10
21.769851
 20
9.536099
 42
0.175703
  0
VERTEX
  8
LAYER_1
 62
7
 10
21.830274
 20
9.733561
 42
0.172330
  0
VERTEX
  8
LAYER_1
 62
7
 10
21.752863
 20
9.921735
 42
0.099879
  0
VERTEX
  8
LAYER_1
 62
7
 10
21.649910
 20
9.993886
 42
0.083252
  0
VERTEX
  8
LAYER_1
 62
7
 10
21.503808
 20
10.032920
 42
0.213873
  0
VERTEX
  8
LAYER_1
 62
7
 10
21.177294
 20
9.926779
  0
SEQEND
  0
POLYLINE
  8
LAYER_1
 62
7
 70
1
 66
1
  0
VERTEX
  8
LAYER_1
 62
7
 10
24.643969
 20
10.328666
  0
VERTEX
  8
LAYER_1
 62
7
 10
24.611934
 20
10.436954
  0
VERTEX
  8
LAYER_1
 62
7
 10
24.604876
 20
10.460453
 42
0.059722
  0
VERTEX
  8
LAYER_1
 62
7
 10
24.291386
 20
11.154517
 42
0.058329
  0
VERTEX
  8
LAYER_1
 62
7
 10
23.790339
 20
11.809610
 42
0.077107
  0
VERTEX
  8
LAYER_1
 62
7
 10
23.145314
 20
12.303690
 42
0.051663
  0
VERTEX
  8
LAYER_1
 62
7
 10
22.782428
 20
12.452212
 42
0.061370
  0
VERTEX
  8
LAYER_1
 62
7
 10
22.399889
 20
12.514715
 42
0.008954
  0
VERTEX
  8
LAYER_1
 62
7
 10
22.138751
 20
12.514632
  0
VERTEX
  8
LAYER_1
 62
7
 10
22.051795
 20
12.514758
 42
0.199588
  0
VERTEX
  8
LAYER_1
 62
7
 10
22.040514
 20
12.948133
 42
0.199588
  0
VERTEX
  8
LAYER_1
 62
7
 10
21.726099
 20
13.246602
 42
0.080111
  0
VERTEX
  8
LAYER_1
 62
7
 10
21.546452
 20
13.284623
 42
0.155130
  0
VERTEX
  8
LAYER_1
 62
7
 10
21.187303
 20
13.175358
 42
0.110681
  0
VERTEX
  8
LAYER_1
 62
7
 10
21.055761
 20
13.037739
 42
0.160854
  0
VERTEX
  8
LAYER_1
 62
7
 10
21.016085
 20
12.854412
 42
0.114462
  0
VERTEX
  8
LAYER_1
 62
7
 10
21.063318
 20
12.717386
 42
0.199588
  0
VERTEX
  8
LAYER_1
 62
7
 10
21.263954
 20
12.574251
 42
0.199588
  0
VERTEX
  8
LAYER_1
 62
7
 10
21.507038
 20
12.614908
 42
0.151338
  0
VERTEX
  8
LAYER_1
 62
7
 10
21.627973
 20
12.751299
  0
VERTEX
  8
LAYER_1
 62
7
 10
21.631770
 20
12.756508
 42
-0.187154
  0
VERTEX
  8
LAYER_1
 62
7
 10
21.654053
 20
12.570367
 42
-0.175257
  0
VERTEX
  8
LAYER_1
 62
7
 10
21.503622
 20
12.344328
 42
-0.124150
  0
VERTEX
  8
LAYER_1
 62
7
 10
21.244761
 20
12.239141
 42
-0.109437
  0
VERTEX
  8
LAYER_1
 62
7
 10
20.958715
 20
12.257483
 42
-0.144823
  0
VERTEX
  8
LAYER_1
 62
7
 10
20.726727
 20
12.402029
 42
-0.050474
  0
VERTEX
  8
LAYER_1
 62
7
 10
20.678093
 20
12.472442
 42
-0.098177
  0
VERTEX
  8
LAYER_1
 62
7
 10
20.594269
 20
12.697925
 42
-0.033996
  0
VERTEX
  8
LAYER_1
 62
7
 10
20.572891
 20
12.938065
 42
0.029660
  0
VERTEX
  8
LAYER_1
 62
7
 10
20.553570
 20
13.178425
 42
0.094828
  0
VERTEX
  8
LAYER_1
 62
7
 10
20.475917
 20
13.404569
 42
0.070267
  0
VERTEX
  8
LAYER_1
 62
7
 10
20.356854
 20
13.565115
 42
0.018048
  0
VERTEX
  8
LAYER_1
 62
7
 10
20.211050
 20
13.702740
 42
0.062498
  0
VERTEX
  8
LAYER_1
 62
7
 10
20.854312
 20
13.966284
 42
0.037020
  0
VERTEX
  8
LAYER_1
 62
7
 10
21.434687
 20
14.352368
 42
0.038139
  0
VERTEX
  8
LAYER_1
 62
7
 10
21.436842
 20
14.040337
 42
0.109301
  0
VERTEX
  8
LAYER_1
 62
7
 10
21.528331
 20
13.745056
 42
0.079267
  0
VERTEX
  8
LAYER_1
 62
7
 10
21.682393
 20
13.521072
 42
0.057863
  0
VERTEX
  8
LAYER_1
 62
7
 10
21.889828
 20
13.349323
 42
0.035301
  0
VERTEX
  8
LAYER_1
 62
7
 10
22.129074
 20
13.216657
 42
0.016205
  0
VERTEX
  8
LAYER_1
 62
7
 10
22.378568
 20
13.109924
  0
VERTEX
  8
LAYER_1
 62
7
 10
22.617628
 20
13.020678
  0
VERTEX
  8
LAYER_1
 62
7
 10
22.858406
 20
12.933277
 42
-0.009755
  0
VERTEX
  8
LAYER_1
 62
7
 10
23.337730
 20
12.751120
 42
-0.024285
  0
VERTEX
  8
LAYER_1
 62
7
 10
23.801773
 20
12.537667
 42
-0.038709
  0
VERTEX
  8
LAYER_1
 62
7
 10
24.235769
 20
12.267132
 42
-0.053516
  0
VERTEX
  8
LAYER_1
 62
7
 10
24.804945
 20
11.736955
 42
-0.061088
  0
VERTEX
  8
LAYER_1
 62
7
 10
25.239118
 20
11.092371
  0
VERTEX
  8
LAYER_1
 62
7
 10
25.305451
 20
10.961038
  0
VERTEX
  8
LAYER_1
 62
7
 10
25.198558
 20
10.890772
  0
VERTEX
  8
LAYER_1
 62
7
 10
25.135593
 20
10.851755
 42
0.054678
  0
VERTEX
  8
LAYER_1
 62
7
 10
25.082480
 20
10.811933
 42
0.067118
  0
VERTEX
  8
LAYER_1
 62
7
 10
24.873087
 20
10.631124
 42
0.031113
  0
VERTEX
  8
LAYER_1
 62
7
 10
24.702666
 20
10.412395
  0
VERTEX
  8
LAYER_1
 62
7
 10
24.643969
 20
10.328666
  0
SEQEND
  0
POLYLINE
  8
LAYER_1
 62
7
 70
1
 66
1
  0
VERTEX
  8
LAYER_1
 62
7
 10
26.767282
 20
11.696258
 42
0.026138
  0
VERTEX
  8
LAYER_1
 62
7
 10
26.148852
 20
12.449791
 42
0.031184
  0
VERTEX
  8
LAYER_1
 62
7
 10
25.447553
 20
13.128829
 42
0.037168
  0
VERTEX
  8
LAYER_1
 62
7
 10
24.662944
 20
13.704282
 42
0.043423
  0
VERTEX
  8
LAYER_1
 62
7
 10
23.794585
 20
14.147057
 42
0.095446
  0
VERTEX
  8
LAYER_1
 62
7
 10
24.382944
 20
14.343993
 42
0.102695
  0
VERTEX
  8
LAYER_1
 62
7
 10
24.850525
 20
14.750452
 42
0.011801
  0
VERTEX
  8
LAYER_1
 62
7
 10
24.966209
 20
14.482989
 42
0.032226
  0
VERTEX
  8
LAYER_1
 62
7
 10
25.104813
 20
14.226987
 42
0.044244
  0
VERTEX
  8
LAYER_1
 62
7
 10
25.423285
 20
13.797320
 42
0.016819
  0
VERTEX
  8
LAYER_1
 62
7
 10
25.792154
 20
13.409418
 42
-0.010515
  0
VERTEX
  8
LAYER_1
 62
7
 10
26.166459
 20
13.025556
 42
-0.037952
  0
VERTEX
  8
LAYER_1
 62
7
 10
26.501240
 20
12.608010
 42
-0.047930
  0
VERTEX
  8
LAYER_1
 62
7
 10
26.815818
 20
12.029888
 42
-0.059168
  0
VERTEX
  8
LAYER_1
 62
7
 10
27.000803
 20
11.398871
 42
-0.031034
  0
VERTEX
  8
LAYER_1
 62
7
 10
26.878165
 20
11.543009
  0
VERTEX
  8
LAYER_1
 62
7
 10
26.767282
 20
11.696258
  0
SEQEND
  0
POLYLINE
  8
LAYER_1
 62
7
 70
1
 66
1
  0
VERTEX
  8
LAYER_1
 62
7
 10
22.297462
 20
13.567564
 42
-0.158443
  0
VERTEX
  8
LAYER_1
 62
7
 10
21.949384
 20
13.869408
 42
-0.088482
  0
VERTEX
  8
LAYER_1
 62
7
 10
21.865322
 20
14.085438
 42
-0.106296
  0
VERTEX
  8
LAYER_1
 62
7
 10
21.869601
 20
14.317888
 42
-0.142084
  0
VERTEX
  8
LAYER_1
 62
7
 10
21.970429
 20
14.501265
 42
-0.115174
  0
VERTEX
  8
LAYER_1
 62
7
 10
22.148898
 20
14.613540
 42
-0.122694
  0
VERTEX
  8
LAYER_1
 62
7
 10
22.355664
 20
14.634043
 42
-0.157254
  0
VERTEX
  8
LAYER_1
 62
7
 10
22.541382
 20
14.542102
 42
0.199588
  0
VERTEX
  8
LAYER_1
 62
7
 10
22.343996
 20
14.477989
 42
0.199588
  0
VERTEX
  8
LAYER_1
 62
7
 10
22.249756
 20
14.293082
 42
0.185038
  0
VERTEX
  8
LAYER_1
 62
7
 10
22.303872
 20
14.107255
 42
0.185038
  0
VERTEX
  8
LAYER_1
 62
7
 10
22.468548
 20
14.005559
 42
0.281108
  0
VERTEX
  8
LAYER_1
 62
7
 10
22.896331
 20
14.185620
 42
0.129681
  0
VERTEX
  8
LAYER_1
 62
7
 10
22.970606
 20
14.387466
 42
0.147742
  0
VERTEX
  8
LAYER_1
 62
7
 10
22.907836
 20
14.743444
 42
0.139759
  0
VERTEX
  8
LAYER_1
 62
7
 10
22.680537
 20
14.979159
 42
0.153082
  0
VERTEX
  8
LAYER_1
 62
7
 10
22.232155
 20
15.089368
 42
0.056222
  0
VERTEX
  8
LAYER_1
 62
7
 10
22.008361
 20
15.049924
 42
0.039283
  0
VERTEX
  8
LAYER_1
 62
7
 10
21.788554
 20
14.966007
 42
0.039695
  0
VERTEX
  8
LAYER_1
 62
7
 10
21.372067
 20
14.720423
  0
VERTEX
  8
LAYER_1
 62
7
 10
21.180971
 20
14.586595
 42
-0.006340
  0
VERTEX
  8
LAYER_1
 62
7
 10
21.005030
 20
14.463966
  0
VERTEX
  8
LAYER_1
 62
7
 10
20.788585
 20
14.319064
  0
VERTEX
  8
LAYER_1
 62
7
 10
20.694941
 20
14.315538
 42
-0.044555
  0
VERTEX
  8
LAYER_1
 62
7
 10
20.444929
 20
14.495881
 42
-0.066224
  0
VERTEX
  8
LAYER_1
 62
7
 10
20.193157
 20
14.774296
 42
-0.078287
  0
VERTEX
  8
LAYER_1
 62
7
 10
20.056224
 20
15.066693
 42
-0.060436
  0
VERTEX
  8
LAYER_1
 62
7
 10
20.006852
 20
15.389565
 42
-0.030446
  0
VERTEX
  8
LAYER_1
 62
7
 10
20.017762
 20
15.759405
  0
VERTEX
  8
LAYER_1
 62
7
 10
20.023371
 20
15.841655
  0
VERTEX
  8
LAYER_1
 62
7
 10
20.097816
 20
15.908263
  0
VERTEX
  8
LAYER_1
 62
7
 10
20.096672
 20
15.820901
 42
0.051415
  0
VERTEX
  8
LAYER_1
 62
7
 10
20.134358
 20
15.511011
 42
0.063884
  0
VERTEX
  8
LAYER_1
 62
7
 10
20.242780
 20
15.209538
 42
0.096383
  0
VERTEX
  8
LAYER_1
 62
7
 10
20.429903
 20
14.967943
 42
0.134220
  0
VERTEX
  8
LAYER_1
 62
7
 10
20.703691
 20
14.837689
 42
0.116106
  0
VERTEX
  8
LAYER_1
 62
7
 10
21.008115
 20
14.858546
 42
0.070927
  0
VERTEX
  8
LAYER_1
 62
7
 10
21.149649
 20
14.924098
 42
0.097275
  0
VERTEX
  8
LAYER_1
 62
7
 10
21.257605
 20
15.028095
 42
0.188359
  0
VERTEX
  8
LAYER_1
 62
7
 10
21.310610
 20
15.276033
 42
0.226376
  0
VERTEX
  8
LAYER_1
 62
7
 10
21.173563
 20
15.486542
 42
0.198122
  0
VERTEX
  8
LAYER_1
 62
7
 10
20.968153
 20
15.515549
 42
0.199588
  0
VERTEX
  8
LAYER_1
 62
7
 10
20.800898
 20
15.390425
 42
0.199588
  0
VERTEX
  8
LAYER_1
 62
7
 10
20.771104
 20
15.183682
 42
0.105688
  0
VERTEX
  8
LAYER_1
 62
7
 10
20.818363
 20
15.085845
 42
-0.212418
  0
VERTEX
  8
LAYER_1
 62
7
 10
20.523179
 20
15.233118
 42
-0.131593
  0
VERTEX
  8
LAYER_1
 62
7
 10
20.379922
 20
15.538782
 42
-0.054218
  0
VERTEX
  8
LAYER_1
 62
7
 10
20.376053
 20
15.905276
 42
-0.076389
  0
VERTEX
  8
LAYER_1
 62
7
 10
20.466513
 20
16.259721
 42
0.048326
  0
VERTEX
  8
LAYER_1
 62
7
 10
20.623533
 20
15.987655
 42
0.107413
  0
VERTEX
  8
LAYER_1
 62
7
 10
20.854018
 20
15.778181
 42
0.167062
  0
VERTEX
  8
LAYER_1
 62
7
 10
21.354953
 20
15.644131
 42
0.120875
  0
VERTEX
  8
LAYER_1
 62
7
 10
21.857063
 20
15.798947
 42
0.143998
  0
VERTEX
  8
LAYER_1
 62
7
 10
22.522364
 20
15.250015
 42
0.090209
  0
VERTEX
  8
LAYER_1
 62
7
 10
22.995235
 20
15.135899
 42
0.057617
  0
VERTEX
  8
LAYER_1
 62
7
 10
23.483093
 20
15.163424
 42
0.127334
  0
VERTEX
  8
LAYER_1
 62
7
 10
24.033543
 20
15.413842
 42
0.118140
  0
VERTEX
  8
LAYER_1
 62
7
 10
24.406208
 20
15.891415
 42
0.094593
  0
VERTEX
  8
LAYER_1
 62
7
 10
24.504259
 20
16.306641
 42
0.044273
  0
VERTEX
  8
LAYER_1
 62
7
 10
24.485354
 20
16.735384
 42
-0.128992
  0
VERTEX
  8
LAYER_1
 62
7
 10
24.811148
 20
16.135908
 42
-0.123067
  0
VERTEX
  8
LAYER_1
 62
7
 10
24.812519
 20
15.452975
 42
-0.119730
  0
VERTEX
  8
LAYER_1
 62
7
 10
24.464196
 20
14.851540
 42
-0.110628
  0
VERTEX
  8
LAYER_1
 62
7
 10
24.024434
 20
14.569286
 42
-0.148345
  0
VERTEX
  8
LAYER_1
 62
7
 10
23.507385
 20
14.536521
 42
-0.030102
  0
VERTEX
  8
LAYER_1
 62
7
 10
23.424125
 20
14.185308
 42
-0.084434
  0
VERTEX
  8
LAYER_1
 62
7
 10
23.264460
 20
13.863775
 42
-0.171896
  0
VERTEX
  8
LAYER_1
 62
7
 10
22.829889
 20
13.561687
 42
-0.147946
  0
VERTEX
  8
LAYER_1
 62
7
 10
22.297462
 20
13.567564
  0
SEQEND
  0
POLYLINE
  8
LAYER_1
 62
7
 70
1
 66
1
  0
VERTEX
  8
LAYER_1
 62
7
 10
22.961196
 20
15.450232
 42
-0.237116
  0
VERTEX
  8
LAYER_1
 62
7
 10
21.908391
 20
16.256586
 42
-0.044019
  0
VERTEX
  8
LAYER_1
 62
7
 10
21.709104
 20
16.089233
 42
-0.115877
  0
VERTEX
  8
LAYER_1
 62
7
 10
21.470734
 20
15.993287
 42
-0.092855
  0
VERTEX
  8
LAYER_1
 62
7
 10
21.200284
 20
15.996813
 42
-0.153792
  0
VERTEX
  8
LAYER_1
 62
7
 10
20.965685
 20
16.123761
 42
-0.125469
  0
VERTEX
  8
LAYER_1
 62
7
 10
20.826934
 20
16.357381
 42
-0.079967
  0
VERTEX
  8
LAYER_1
 62
7
 10
20.791328
 20
16.629202
 42
-0.105430
  0
VERTEX
  8
LAYER_1
 62
7
 10
20.888498
 20
17.063332
 42
-0.087189
  0
VERTEX
  8
LAYER_1
 62
7
 10
21.140826
 20
17.431638
 42
0.075753
  0
VERTEX
  8
LAYER_1
 62
7
 10
21.143667
 20
16.884665
 42
0.042473
  0
VERTEX
  8
LAYER_1
 62
7
 10
21.274043
 20
16.351797
 42
0.165346
  0
VERTEX
  8
LAYER_1
 62
7
 10
21.891934
 20
16.883881
  0
VERTEX
  8
LAYER_1
 62
7
 10
21.946552
 20
16.803729
 42
0.011436
  0
VERTEX
  8
LAYER_1
 62
7
 10
22.163995
 20
16.486459
 42
0.043711
  0
VERTEX
  8
LAYER_1
 62
7
 10
22.405751
 20
16.204864
 42
0.078259
  0
VERTEX
  8
LAYER_1
 62
7
 10
22.701843
 20
15.995199
 42
0.093899
  0
VERTEX
  8
LAYER_1
 62
7
 10
23.082292
 20
15.893716
 42
0.098145
  0
VERTEX
  8
LAYER_1
 62
7
 10
23.353838
 20
15.921792
 42
0.121309
  0
VERTEX
  8
LAYER_1
 62
7
 10
23.595419
 20
16.070042
 42
0.121244
  0
VERTEX
  8
LAYER_1
 62
7
 10
23.729100
 20
16.293152
 42
0.136274
  0
VERTEX
  8
LAYER_1
 62
7
 10
23.738646
 20
16.549613
 42
0.196943
  0
VERTEX
  8
LAYER_1
 62
7
 10
23.595068
 20
16.747884
 42
0.224562
  0
VERTEX
  8
LAYER_1
 62
7
 10
23.349038
 20
16.773843
 42
0.311931
  0
VERTEX
  8
LAYER_1
 62
7
 10
23.192712
 20
16.565073
 42
0.196375
  0
VERTEX
  8
LAYER_1
 62
7
 10
23.251655
 20
16.402534
 42
0.196375
  0
VERTEX
  8
LAYER_1
 62
7
 10
23.407436
 20
16.327532
 42
-0.210522
  0
VERTEX
  8
LAYER_1
 62
7
 10
23.250491
 20
16.185406
 42
-0.139656
  0
VERTEX
  8
LAYER_1
 62
7
 10
23.009099
 20
16.173516
 42
-0.101982
  0
VERTEX
  8
LAYER_1
 62
7
 10
22.717066
 20
16.311833
 42
-0.055464
  0
VERTEX
  8
LAYER_1
 62
7
 10
22.452971
 20
16.554994
 42
-0.038100
  0
VERTEX
  8
LAYER_1
 62
7
 10
22.240428
 20
16.836605
 42
-0.041328
  0
VERTEX
  8
LAYER_1
 62
7
 10
22.103052
 20
17.090273
 42
-0.084506
  0
VERTEX
  8
LAYER_1
 62
7
 10
22.050798
 20
17.332434
 42
-0.027231
  0
VERTEX
  8
LAYER_1
 62
7
 10
22.052970
 20
17.582487
 42
-0.092755
  0
VERTEX
  8
LAYER_1
 62
7
 10
22.340452
 20
17.501730
 42
-0.074576
  0
VERTEX
  8
LAYER_1
 62
7
 10
22.580254
 20
17.333440
 42
-0.054584
  0
VERTEX
  8
LAYER_1
 62
7
 10
22.772892
 20
17.105716
 42
-0.041115
  0
VERTEX
  8
LAYER_1
 62
7
 10
22.918880
 20
16.846659
 42
0.067905
  0
VERTEX
  8
LAYER_1
 62
7
 10
22.910750
 20
17.243763
 42
0.114843
  0
VERTEX
  8
LAYER_1
 62
7
 10
22.763330
 20
17.609130
 42
0.069653
  0
VERTEX
  8
LAYER_1
 62
7
 10
22.581381
 20
17.817594
 42
0.048306
  0
VERTEX
  8
LAYER_1
 62
7
 10
22.357410
 20
17.975917
 42
0.025764
  0
VERTEX
  8
LAYER_1
 62
7
 10
22.109636
 20
18.101108
  0
VERTEX
  8
LAYER_1
 62
7
 10
21.856279
 20
18.210173
  0
VERTEX
  8
LAYER_1
 62
7
 10
22.086476
 20
18.201884
 42
-0.024047
  0
VERTEX
  8
LAYER_1
 62
7
 10
22.316710
 20
18.179710
 42
-0.043365
  0
VERTEX
  8
LAYER_1
 62
7
 10
22.539671
 20
18.127415
 42
-0.061855
  0
VERTEX
  8
LAYER_1
 62
7
 10
22.748049
 20
18.028763
 42
-0.131706
  0
VERTEX
  8
LAYER_1
 62
7
 10
23.071590
 20
17.708406
 42
-0.103943
  0
VERTEX
  8
LAYER_1
 62
7
 10
23.218226
 20
17.274912
  0
VERTEX
  8
LAYER_1
 62
7
 10
23.426782
 20
17.231684
 42
-0.027051
  0
VERTEX
  8
LAYER_1
 62
7
 10
23.633942
 20
17.175930
 42
-0.054165
  0
VERTEX
  8
LAYER_1
 62
7
 10
23.826408
 20
17.088953
 42
-0.079120
  0
VERTEX
  8
LAYER_1
 62
7
 10
23.990884
 20
16.952057
 42
-0.105732
  0
VERTEX
  8
LAYER_1
 62
7
 10
24.146808
 20
16.640314
 42
-0.088716
  0
VERTEX
  8
LAYER_1
 62
7
 10
24.173029
 20
16.293270
 42
-0.163621
  0
VERTEX
  8
LAYER_1
 62
7
 10
23.891755
 20
15.661812
 42
-0.123541
  0
VERTEX
  8
LAYER_1
 62
7
 10
23.451748
 20
15.449498
 42
-0.106558
  0
VERTEX
  8
LAYER_1
 62
7
 10
22.961196
 20
15.450232
  0
SEQEND
  0
POLYLINE
  8
LAYER_1
 62
7
 70
1
 66
1
  0
VERTEX
  8
LAYER_1
 62
7
 10
25.907641
 20
16.204867
 42
0.030356
  0
VERTEX
  8
LAYER_1
 62
7
 10
26.455675
 20
17.022490
 42
0.041286
  0
VERTEX
  8
LAYER_1
 62
7
 10
26.881205
 20
17.908903
  0
VERTEX
  8
LAYER_1
 62
7
 10
27.008272
 20
18.245192
  0
VERTEX
  8
LAYER_1
 62
7
 10
27.011461
 20
17.988491
  0
VERTEX
  8
LAYER_1
 62
7
 10
27.011673
 20
17.701855
 42
0.006003
  0
VERTEX
  8
LAYER_1
 62
7
 10
27.012950
 20
17.415182
  0
VERTEX
  8
LAYER_1
 62
7
 10
27.012626
 20
17.386618
  0
VERTEX
  8
LAYER_1
 62
7
 10
27.011841
 20
17.114397
  0
VERTEX
  8
LAYER_1
 62
7
 10
26.882080
 20
16.895616
 42
-0.074863
  0
VERTEX
  8
LAYER_1
 62
7
 10
26.278297
 20
16.153539
 42
0.040427
  0
VERTEX
  8
LAYER_1
 62
7
 10
25.907641
 20
16.204867
  0
SEQEND
  0
POLYLINE
  8
LAYER_1
 62
7
 70
1
 66
1
  0
VERTEX
  8
LAYER_1
 62
7
 10
21.466424
 20
16.809828
 42
-0.035853
  0
VERTEX
  8
LAYER_1
 62
7
 10
21.417710
 20
17.095841
 42
-0.051084
  0
VERTEX
  8
LAYER_1
 62
7
 10
21.418476
 20
17.389714
 42
-0.073971
  0
VERTEX
  8
LAYER_1
 62
7
 10
21.489841
 20
17.668600
 42
-0.096499
  0
VERTEX
  8
LAYER_1
 62
7
 10
21.652928
 20
17.909652
 42
-0.034268
  0
VERTEX
  8
LAYER_1
 62
7
 10
21.703184
 20
17.622372
 42
-0.051562
  0
VERTEX
  8
LAYER_1
 62
7
 10
21.704402
 20
17.328150
 42
-0.076675
  0
VERTEX
  8
LAYER_1
 62
7
 10
21.633257
 20
17.049723
 42
-0.099810
  0
VERTEX
  8
LAYER_1
 62
7
 10
21.466424
 20
16.809828
  0
SEQEND
  0
POLYLINE
  8
LAYER_1
 62
7
 70
1
 66
1
  0
VERTEX
  8
LAYER_1
 62
7
 10
23.513699
 20
17.565185
 42
0.204737
  0
VERTEX
  8
LAYER_1
 62
7
 10
22.735903
 20
18.388449
 42
-0.009024
  0
VERTEX
  8
LAYER_1
 62
7
 10
23.025062
 20
18.399420
 42
-0.099006
  0
VERTEX
  8
LAYER_1
 62
7
 10
23.307168
 20
18.349268
 42
-0.054172
  0
VERTEX
  8
LAYER_1
 62
7
 10
23.514536
 20
18.240408
 42
-0.027013
  0
VERTEX
  8
LAYER_1
 62
7
 10
23.701991
 20
18.099138
 42
0.032076
  0
VERTEX
  8
LAYER_1
 62
7
 10
23.865813
 20
17.968454
 42
0.076523
  0
VERTEX
  8
LAYER_1
 62
7
 10
23.961818
 20
17.924368
 42
0.132460
  0
VERTEX
  8
LAYER_1
 62
7
 10
24.063743
 20
17.923389
 42
0.280192
  0
VERTEX
  8
LAYER_1
 62
7
 10
24.205034
 20
18.085045
 42
0.187462
  0
VERTEX
  8
LAYER_1
 62
7
 10
24.164165
 20
18.275769
 42
0.088735
  0
VERTEX
  8
LAYER_1
 62
7
 10
24.013698
 20
18.435858
 42
0.040026
  0
VERTEX
  8
LAYER_1
 62
7
 10
23.821608
 20
18.559968
 42
0.016885
  0
VERTEX
  8
LAYER_1
 62
7
 10
23.655874
 20
18.642757
  0
VERTEX
  8
LAYER_1
 62
7
 10
23.605339
 20
18.666245
 42
-0.064232
  0
VERTEX
  8
LAYER_1
 62
7
 10
24.266255
 20
18.597227
 42
-0.044653
  0
VERTEX
  8
LAYER_1
 62
7
 10
24.631660
 20
18.472107
 42
-0.063291
  0
VERTEX
  8
LAYER_1
 62
7
 10
24.995339
 20
18.255711
 42
-0.113509
  0
VERTEX
  8
LAYER_1
 62
7
 10
25.252523
 20
17.945647
 42
-0.167207
  0
VERTEX
  8
LAYER_1
 62
7
 10
25.298441
 20
17.539528
 42
-0.213479
  0
VERTEX
  8
LAYER_1
 62
7
 10
25.136194
 20
17.312342
 42
-0.294319
  0
VERTEX
  8
LAYER_1
 62
7
 10
24.752938
 20
17.317870
 42
0.199588
  0
VERTEX
  8
LAYER_1
 62
7
 10
24.943961
 20
17.414514
 42
0.199588
  0
VERTEX
  8
LAYER_1
 62
7
 10
25.010699
 20
17.617925
 42
0.199588
  0
VERTEX
  8
LAYER_1
 62
7
 10
24.914054
 20
17.808948
 42
0.199588
  0
VERTEX
  8
LAYER_1
 62
7
 10
24.710643
 20
17.875685
  0
VERTEX
  8
LAYER_1
 62
7
 10
24.704692
 20
17.875170
 42
0.082211
  0
VERTEX
  8
LAYER_1
 62
7
 10
24.581800
 20
17.855644
 42
0.104695
  0
VERTEX
  8
LAYER_1
 62
7
 10
24.423696
 20
17.766917
 42
0.112950
  0
VERTEX
  8
LAYER_1
 62
7
 10
24.331501
 20
17.636389
 42
0.096124
  0
VERTEX
  8
LAYER_1
 62
7
 10
24.300717
 20
17.477670
 42
0.075483
  0
VERTEX
  8
LAYER_1
 62
7
 10
24.326843
 20
17.304366
  0
VERTEX
  8
LAYER_1
 62
7
 10
24.356056
 20
17.200076
 42
0.124635
  0
VERTEX
  8
LAYER_1
 62
7
 10
23.513699
 20
17.565185
  0
SEQEND
  0
POLYLINE
  8
LAYER_1
 62
7
 70
1
 66
1
  0
VERTEX
  8
LAYER_1
 62
7
 10
25.446277
 20
18.238782
  0
VERTEX
  8
LAYER_1
 62
7
 10
25.426409
 20
18.256933
 42
0.099080
  0
VERTEX
  8
LAYER_1
 62
7
 10
24.641238
 20
18.751759
 42
0.041448
  0
VERTEX
  8
LAYER_1
 62
7
 10
24.205895
 20
18.874636
 42
0.027867
  0
VERTEX
  8
LAYER_1
 62
7
 10
23.725011
 20
18.940341
  0
VERTEX
  8
LAYER_1
 62
7
 10
23.663719
 20
18.945217
  0
VERTEX
  8
LAYER_1
 62
7
 10
23.706427
 20
19.014568
  0
VERTEX
  8
LAYER_1
 62
7
 10
23.755144
 20
19.022751
 42
-0.038055
  0
VERTEX
  8
LAYER_1
 62
7
 10
24.481294
 20
19.094609
 42
-0.068267
  0
VERTEX
  8
LAYER_1
 62
7
 10
25.193855
 20
19.006824
 42
-0.063830
  0
VERTEX
  8
LAYER_1
 62
7
 10
25.537448
 20
18.866096
 42
-0.108240
  0
VERTEX
  8
LAYER_1
 62
7
 10
25.794563
 20
18.637730
 42
-0.108394
  0
VERTEX
  8
LAYER_1
 62
7
 10
25.867561
 20
18.471869
 42
-0.151723
  0
VERTEX
  8
LAYER_1
 62
7
 10
25.845575
 20
18.290670
 42
-0.174751
  0
VERTEX
  8
LAYER_1
 62
7
 10
25.738734
 20
18.176858
 42
-0.179796
  0
VERTEX
  8
LAYER_1
 62
7
 10
25.589453
 20
18.159135
 42
-0.125816
  0
VERTEX
  8
LAYER_1
 62
7
 10
25.446277
 20
18.238782
  0
SEQEND
  0
ENDSEC
  0
EOF
