  0
SECTION
  2
HEADER
  9
$EXTMIN
 10
0.000000
 20
0.000000
  9
$EXTMAX
 10
39.370079
 20
39.370079
  9
$LTSCALE
 40
100.000000
  9
$PDMODE
 70
35
  9
$PDSIZE
 40
80.000000
  0
ENDSEC
  0
SECTION
  2
TABLES
  0
TABLE
  2
LAYER
 70
1
  0
LAYER
  2
LAYER_1
 70
0
 62
1
  6
CONTINUOUS
  0
ENDTAB
  0
ENDSEC
  0
SECTION
  2
BLOCKS
  0
ENDSEC
  0
SECTION
  2
ENTITIES
  0
POLYLINE
  8
LAYER_1
 62
7
 70
1
 66
1
  0
VERTEX
  8
LAYER_1
 62
7
 10
10.737172
 20
19.685039
  0
VERTEX
  8
LAYER_1
 62
7
 10
10.737172
 20
1.810754
  0
VERTEX
  8
LAYER_1
 62
7
 10
19.685039
 20
1.810754
  0
VERTEX
  8
LAYER_1
 62
7
 10
28.632907
 20
1.810754
  0
VERTEX
  8
LAYER_1
 62
7
 10
28.632907
 20
19.685039
  0
VERTEX
  8
LAYER_1
 62
7
 10
28.632907
 20
37.559325
  0
VERTEX
  8
LAYER_1
 62
7
 10
19.685039
 20
37.559325
  0
VERTEX
  8
LAYER_1
 62
7
 10
10.737172
 20
37.559325
  0
VERTEX
  8
LAYER_1
 62
7
 10
10.737172
 20
19.685039
  0
SEQEND
  0
POLYLINE
  8
LAYER_1
 62
7
 70
1
 66
1
  0
VERTEX
  8
LAYER_1
 62
7
 10
16.824473
 20
19.685039
 42
0.156506
  0
VERTEX
  8
LAYER_1
 62
7
 10
16.482919
 20
18.861899
 42
0.108027
  0
VERTEX
  8
LAYER_1
 62
7
 10
16.541888
 20
18.428879
 42
0.134697
  0
VERTEX
  8
LAYER_1
 62
7
 10
16.805427
 20
18.066435
 42
-0.017751
  0
VERTEX
  8
LAYER_1
 62
7
 10
16.231736
 20
18.067890
 42
0.033330
  0
VERTEX
  8
LAYER_1
 62
7
 10
16.230455
 20
18.516894
 42
0.050827
  0
VERTEX
  8
LAYER_1
 62
7
 10
16.155012
 20
18.959182
 42
0.074493
  0
VERTEX
  8
LAYER_1
 62
7
 10
15.976863
 20
19.360111
 42
0.094611
  0
VERTEX
  8
LAYER_1
 62
7
 10
15.667464
 20
19.685039
 42
0.094611
  0
VERTEX
  8
LAYER_1
 62
7
 10
15.976863
 20
20.009968
 42
0.074493
  0
VERTEX
  8
LAYER_1
 62
7
 10
16.155012
 20
20.410897
 42
0.050827
  0
VERTEX
  8
LAYER_1
 62
7
 10
16.230455
 20
20.853185
 42
0.033330
  0
VERTEX
  8
LAYER_1
 62
7
 10
16.231736
 20
21.302189
 42
-0.017751
  0
VERTEX
  8
LAYER_1
 62
7
 10
16.805427
 20
21.303643
 42
0.134697
  0
VERTEX
  8
LAYER_1
 62
7
 10
16.541888
 20
20.941200
 42
0.108027
  0
VERTEX
  8
LAYER_1
 62
7
 10
16.482919
 20
20.508180
 42
0.156506
  0
VERTEX
  8
LAYER_1
 62
7
 10
16.824473
 20
19.685039
  0
SEQEND
  0
POLYLINE
  8
LAYER_1
 62
7
 70
1
 66
1
  0
VERTEX
  8
LAYER_1
 62
7
 10
14.059496
 20
19.685039
 42
0.032219
  0
VERTEX
  8
LAYER_1
 62
7
 10
14.065966
 20
19.605669
 42
0.199588
  0
VERTEX
  8
LAYER_1
 62
7
 10
14.306376
 20
19.202969
 42
0.199588
  0
VERTEX
  8
LAYER_1
 62
7
 10
14.761123
 20
19.088207
 42
0.067762
  0
VERTEX
  8
LAYER_1
 62
7
 10
15.005658
 20
19.173512
  0
VERTEX
  8
LAYER_1
 62
7
 10
15.125665
 20
19.229642
 42
-0.027938
  0
VERTEX
  8
LAYER_1
 62
7
 10
15.244870
 20
19.276862
 42
-0.196768
  0
VERTEX
  8
LAYER_1
 62
7
 10
15.706842
 20
18.780519
 42
-0.181484
  0
VERTEX
  8
LAYER_1
 62
7
 10
15.718178
 20
18.097957
  0
VERTEX
  8
LAYER_1
 62
7
 10
15.689261
 20
18.161463
 42
0.007478
  0
VERTEX
  8
LAYER_1
 62
7
 10
15.603627
 20
18.360246
 42
0.117453
  0
VERTEX
  8
LAYER_1
 62
7
 10
15.436069
 20
18.561295
 42
0.103277
  0
VERTEX
  8
LAYER_1
 62
7
 10
15.195880
 20
18.675274
 42
0.115914
  0
VERTEX
  8
LAYER_1
 62
7
 10
14.932328
 20
18.678740
 42
0.140253
  0
VERTEX
  8
LAYER_1
 62
7
 10
14.694676
 20
18.548250
 42
0.154889
  0
VERTEX
  8
LAYER_1
 62
7
 10
14.564308
 20
18.300384
 42
0.159644
  0
VERTEX
  8
LAYER_1
 62
7
 10
14.603893
 20
18.016856
 42
0.199588
  0
VERTEX
  8
LAYER_1
 62
7
 10
14.868609
 20
17.782640
 42
0.199588
  0
VERTEX
  8
LAYER_1
 62
7
 10
15.221408
 20
17.804203
  0
VERTEX
  8
LAYER_1
 62
7
 10
15.249234
 20
17.813778
 42
-0.119803
  0
VERTEX
  8
LAYER_1
 62
7
 10
15.170711
 20
17.497229
 42
-0.099538
  0
VERTEX
  8
LAYER_1
 62
7
 10
14.970572
 20
17.254150
 42
-0.140346
  0
VERTEX
  8
LAYER_1
 62
7
 10
14.378756
 20
17.007312
 42
0.008756
  0
VERTEX
  8
LAYER_1
 62
7
 10
14.308719
 20
17.544489
 42
0.023090
  0
VERTEX
  8
LAYER_1
 62
7
 10
14.204357
 20
18.078256
 42
0.038448
  0
VERTEX
  8
LAYER_1
 62
7
 10
14.036618
 20
18.591564
 42
0.053444
  0
VERTEX
  8
LAYER_1
 62
7
 10
13.776452
 20
19.067365
 42
0.140362
  0
VERTEX
  8
LAYER_1
 62
7
 10
13.536881
 20
19.261806
 42
0.122596
  0
VERTEX
  8
LAYER_1
 62
7
 10
13.237252
 20
19.314263
 42
0.164590
  0
VERTEX
  8
LAYER_1
 62
7
 10
12.975904
 20
19.209689
 42
0.101622
  0
VERTEX
  8
LAYER_1
 62
7
 10
12.890316
 20
19.093812
 42
0.093805
  0
VERTEX
  8
LAYER_1
 62
7
 10
12.851174
 20
18.933035
 42
-0.033661
  0
VERTEX
  8
LAYER_1
 62
7
 10
12.786818
 20
19.056873
 42
-0.060437
  0
VERTEX
  8
LAYER_1
 62
7
 10
12.710121
 20
19.333793
 42
-0.038197
  0
VERTEX
  8
LAYER_1
 62
7
 10
12.682340
 20
19.665659
 42
-0.037412
  0
VERTEX
  8
LAYER_1
 62
7
 10
12.703070
 20
19.998266
 42
-0.057411
  0
VERTEX
  8
LAYER_1
 62
7
 10
12.771905
 20
20.277404
 42
-0.042647
  0
VERTEX
  8
LAYER_1
 62
7
 10
12.851174
 20
20.437044
 42
0.093805
  0
VERTEX
  8
LAYER_1
 62
7
 10
12.890316
 20
20.276266
 42
0.101622
  0
VERTEX
  8
LAYER_1
 62
7
 10
12.975904
 20
20.160390
 42
0.164590
  0
VERTEX
  8
LAYER_1
 62
7
 10
13.237252
 20
20.055816
 42
0.122596
  0
VERTEX
  8
LAYER_1
 62
7
 10
13.536881
 20
20.108273
 42
0.140362
  0
VERTEX
  8
LAYER_1
 62
7
 10
13.776452
 20
20.302714
 42
0.053444
  0
VERTEX
  8
LAYER_1
 62
7
 10
14.036618
 20
20.778515
 42
0.038448
  0
VERTEX
  8
LAYER_1
 62
7
 10
14.204357
 20
21.291823
 42
0.023090
  0
VERTEX
  8
LAYER_1
 62
7
 10
14.308719
 20
21.825590
 42
0.008756
  0
VERTEX
  8
LAYER_1
 62
7
 10
14.378756
 20
22.362766
 42
-0.140346
  0
VERTEX
  8
LAYER_1
 62
7
 10
14.970572
 20
22.115929
 42
-0.099538
  0
VERTEX
  8
LAYER_1
 62
7
 10
15.170711
 20
21.872849
 42
-0.119803
  0
VERTEX
  8
LAYER_1
 62
7
 10
15.249234
 20
21.556301
  0
VERTEX
  8
LAYER_1
 62
7
 10
15.221408
 20
21.565876
 42
0.199588
  0
VERTEX
  8
LAYER_1
 62
7
 10
14.868609
 20
21.587439
 42
0.199588
  0
VERTEX
  8
LAYER_1
 62
7
 10
14.603893
 20
21.353223
 42
0.159644
  0
VERTEX
  8
LAYER_1
 62
7
 10
14.564308
 20
21.069694
 42
0.154889
  0
VERTEX
  8
LAYER_1
 62
7
 10
14.694676
 20
20.821828
 42
0.140253
  0
VERTEX
  8
LAYER_1
 62
7
 10
14.932328
 20
20.691339
 42
0.115914
  0
VERTEX
  8
LAYER_1
 62
7
 10
15.195880
 20
20.694805
 42
0.103277
  0
VERTEX
  8
LAYER_1
 62
7
 10
15.436069
 20
20.808784
 42
0.117453
  0
VERTEX
  8
LAYER_1
 62
7
 10
15.603627
 20
21.009833
 42
0.007478
  0
VERTEX
  8
LAYER_1
 62
7
 10
15.689261
 20
21.208616
  0
VERTEX
  8
LAYER_1
 62
7
 10
15.718178
 20
21.272122
 42
-0.181484
  0
VERTEX
  8
LAYER_1
 62
7
 10
15.706842
 20
20.589560
 42
-0.196768
  0
VERTEX
  8
LAYER_1
 62
7
 10
15.244870
 20
20.093217
 42
-0.027938
  0
VERTEX
  8
LAYER_1
 62
7
 10
15.125665
 20
20.140436
  0
VERTEX
  8
LAYER_1
 62
7
 10
15.005658
 20
20.196566
 42
0.067762
  0
VERTEX
  8
LAYER_1
 62
7
 10
14.761123
 20
20.281871
 42
0.199588
  0
VERTEX
  8
LAYER_1
 62
7
 10
14.306376
 20
20.167110
 42
0.199588
  0
VERTEX
  8
LAYER_1
 62
7
 10
14.065966
 20
19.764409
 42
0.032219
  0
VERTEX
  8
LAYER_1
 62
7
 10
14.059496
 20
19.685039
  0
SEQEND
  0
POLYLINE
  8
LAYER_1
 62
7
 70
1
 66
1
  0
VERTEX
  8
LAYER_1
 62
7
 10
12.324726
 20
19.685039
 42
0.081760
  0
VERTEX
  8
LAYER_1
 62
7
 10
12.409436
 20
19.047778
 42
0.068302
  0
VERTEX
  8
LAYER_1
 62
7
 10
12.665619
 20
18.509098
 42
0.033462
  0
VERTEX
  8
LAYER_1
 62
7
 10
13.047239
 20
18.006426
 42
0.001609
  0
VERTEX
  8
LAYER_1
 62
7
 10
13.508260
 20
17.477185
 42
-0.049194
  0
VERTEX
  8
LAYER_1
 62
7
 10
13.689730
 20
17.228208
 42
-0.063466
  0
VERTEX
  8
LAYER_1
 62
7
 10
13.740995
 20
17.105663
 42
-0.130483
  0
VERTEX
  8
LAYER_1
 62
7
 10
13.743564
 20
16.996960
  0
VERTEX
  8
LAYER_1
 62
7
 10
13.740628
 20
16.988533
 42
-0.111816
  0
VERTEX
  8
LAYER_1
 62
7
 10
12.944608
 20
17.201407
 42
-0.111816
  0
VERTEX
  8
LAYER_1
 62
7
 10
12.324756
 20
17.744312
 42
-0.035522
  0
VERTEX
  8
LAYER_1
 62
7
 10
12.136828
 20
18.031015
 42
-0.068273
  0
VERTEX
  8
LAYER_1
 62
7
 10
11.846307
 20
18.799211
 42
-0.053850
  0
VERTEX
  8
LAYER_1
 62
7
 10
11.735484
 20
19.685039
 42
-0.053850
  0
VERTEX
  8
LAYER_1
 62
7
 10
11.846307
 20
20.570868
 42
-0.068273
  0
VERTEX
  8
LAYER_1
 62
7
 10
12.136828
 20
21.339064
 42
-0.035522
  0
VERTEX
  8
LAYER_1
 62
7
 10
12.324756
 20
21.625766
 42
-0.111816
  0
VERTEX
  8
LAYER_1
 62
7
 10
12.944608
 20
22.168672
 42
-0.111816
  0
VERTEX
  8
LAYER_1
 62
7
 10
13.740628
 20
22.381545
  0
VERTEX
  8
LAYER_1
 62
7
 10
13.743564
 20
22.373119
 42
-0.130483
  0
VERTEX
  8
LAYER_1
 62
7
 10
13.740995
 20
22.264416
 42
-0.063466
  0
VERTEX
  8
LAYER_1
 62
7
 10
13.689730
 20
22.141871
 42
-0.049194
  0
VERTEX
  8
LAYER_1
 62
7
 10
13.508260
 20
21.892894
 42
0.001609
  0
VERTEX
  8
LAYER_1
 62
7
 10
13.047239
 20
21.363653
 42
0.033462
  0
VERTEX
  8
LAYER_1
 62
7
 10
12.665619
 20
20.860981
 42
0.068302
  0
VERTEX
  8
LAYER_1
 62
7
 10
12.409436
 20
20.322301
 42
0.081760
  0
VERTEX
  8
LAYER_1
 62
7
 10
12.324726
 20
19.685039
  0
SEQEND
  0
POLYLINE
  8
LAYER_1
 62
7
 70
1
 66
1
  0
VERTEX
  8
LAYER_1
 62
7
 10
27.634594
 20
19.685039
 42
-0.053850
  0
VERTEX
  8
LAYER_1
 62
7
 10
27.523772
 20
18.799211
 42
-0.068273
  0
VERTEX
  8
LAYER_1
 62
7
 10
27.233250
 20
18.031015
 42
-0.035522
  0
VERTEX
  8
LAYER_1
 62
7
 10
27.045322
 20
17.744312
 42
-0.111816
  0
VERTEX
  8
LAYER_1
 62
7
 10
26.425470
 20
17.201407
 42
-0.111816
  0
VERTEX
  8
LAYER_1
 62
7
 10
25.629451
 20
16.988533
  0
VERTEX
  8
LAYER_1
 62
7
 10
25.626515
 20
16.996960
 42
-0.130483
  0
VERTEX
  8
LAYER_1
 62
7
 10
25.629084
 20
17.105663
 42
-0.063466
  0
VERTEX
  8
LAYER_1
 62
7
 10
25.680349
 20
17.228208
 42
-0.049194
  0
VERTEX
  8
LAYER_1
 62
7
 10
25.861818
 20
17.477185
 42
0.001609
  0
VERTEX
  8
LAYER_1
 62
7
 10
26.322840
 20
18.006426
 42
0.033462
  0
VERTEX
  8
LAYER_1
 62
7
 10
26.704460
 20
18.509098
 42
0.068302
  0
VERTEX
  8
LAYER_1
 62
7
 10
26.960643
 20
19.047778
 42
0.081760
  0
VERTEX
  8
LAYER_1
 62
7
 10
27.045353
 20
19.685039
 42
0.081760
  0
VERTEX
  8
LAYER_1
 62
7
 10
26.960643
 20
20.322301
 42
0.068302
  0
VERTEX
  8
LAYER_1
 62
7
 10
26.704460
 20
20.860981
 42
0.033462
  0
VERTEX
  8
LAYER_1
 62
7
 10
26.322840
 20
21.363653
 42
0.001609
  0
VERTEX
  8
LAYER_1
 62
7
 10
25.861818
 20
21.892894
 42
-0.049194
  0
VERTEX
  8
LAYER_1
 62
7
 10
25.680349
 20
22.141871
 42
-0.063466
  0
VERTEX
  8
LAYER_1
 62
7
 10
25.629084
 20
22.264416
 42
-0.130483
  0
VERTEX
  8
LAYER_1
 62
7
 10
25.626515
 20
22.373119
  0
VERTEX
  8
LAYER_1
 62
7
 10
25.629451
 20
22.381545
 42
-0.111816
  0
VERTEX
  8
LAYER_1
 62
7
 10
26.425470
 20
22.168672
 42
-0.111816
  0
VERTEX
  8
LAYER_1
 62
7
 10
27.045322
 20
21.625766
 42
-0.035522
  0
VERTEX
  8
LAYER_1
 62
7
 10
27.233250
 20
21.339064
 42
-0.068273
  0
VERTEX
  8
LAYER_1
 62
7
 10
27.523772
 20
20.570868
 42
-0.053850
  0
VERTEX
  8
LAYER_1
 62
7
 10
27.634594
 20
19.685039
  0
SEQEND
  0
POLYLINE
  8
LAYER_1
 62
7
 70
1
 66
1
  0
VERTEX
  8
LAYER_1
 62
7
 10
26.585049
 20
19.060983
 42
-0.034710
  0
VERTEX
  8
LAYER_1
 62
7
 10
26.518904
 20
18.933035
 42
0.093805
  0
VERTEX
  8
LAYER_1
 62
7
 10
26.479763
 20
19.093812
 42
0.101622
  0
VERTEX
  8
LAYER_1
 62
7
 10
26.394175
 20
19.209689
 42
0.164590
  0
VERTEX
  8
LAYER_1
 62
7
 10
26.132826
 20
19.314263
 42
0.122596
  0
VERTEX
  8
LAYER_1
 62
7
 10
25.833198
 20
19.261806
 42
0.140362
  0
VERTEX
  8
LAYER_1
 62
7
 10
25.593627
 20
19.067365
 42
0.053444
  0
VERTEX
  8
LAYER_1
 62
7
 10
25.333460
 20
18.591564
 42
0.038448
  0
VERTEX
  8
LAYER_1
 62
7
 10
25.165722
 20
18.078256
 42
0.023090
  0
VERTEX
  8
LAYER_1
 62
7
 10
25.061360
 20
17.544489
 42
0.008756
  0
VERTEX
  8
LAYER_1
 62
7
 10
24.991323
 20
17.007312
 42
-0.140346
  0
VERTEX
  8
LAYER_1
 62
7
 10
24.399507
 20
17.254150
 42
-0.099538
  0
VERTEX
  8
LAYER_1
 62
7
 10
24.199368
 20
17.497229
 42
-0.119803
  0
VERTEX
  8
LAYER_1
 62
7
 10
24.120844
 20
17.813778
  0
VERTEX
  8
LAYER_1
 62
7
 10
24.148671
 20
17.804203
 42
0.199588
  0
VERTEX
  8
LAYER_1
 62
7
 10
24.501469
 20
17.782640
 42
0.199588
  0
VERTEX
  8
LAYER_1
 62
7
 10
24.766186
 20
18.016856
 42
0.159644
  0
VERTEX
  8
LAYER_1
 62
7
 10
24.805771
 20
18.300384
 42
0.154889
  0
VERTEX
  8
LAYER_1
 62
7
 10
24.675403
 20
18.548250
 42
0.140253
  0
VERTEX
  8
LAYER_1
 62
7
 10
24.437751
 20
18.678740
 42
0.115914
  0
VERTEX
  8
LAYER_1
 62
7
 10
24.174198
 20
18.675274
 42
0.103277
  0
VERTEX
  8
LAYER_1
 62
7
 10
23.934010
 20
18.561295
 42
0.117453
  0
VERTEX
  8
LAYER_1
 62
7
 10
23.766452
 20
18.360246
 42
0.007478
  0
VERTEX
  8
LAYER_1
 62
7
 10
23.680817
 20
18.161463
  0
VERTEX
  8
LAYER_1
 62
7
 10
23.651901
 20
18.097957
 42
-0.181484
  0
VERTEX
  8
LAYER_1
 62
7
 10
23.663237
 20
18.780519
 42
-0.196768
  0
VERTEX
  8
LAYER_1
 62
7
 10
24.125209
 20
19.276862
 42
-0.027938
  0
VERTEX
  8
LAYER_1
 62
7
 10
24.244414
 20
19.229642
  0
VERTEX
  8
LAYER_1
 62
7
 10
24.364421
 20
19.173512
 42
0.067762
  0
VERTEX
  8
LAYER_1
 62
7
 10
24.608956
 20
19.088207
 42
0.199588
  0
VERTEX
  8
LAYER_1
 62
7
 10
25.063703
 20
19.202969
 42
0.199588
  0
VERTEX
  8
LAYER_1
 62
7
 10
25.304113
 20
19.605669
 42
0.032219
  0
VERTEX
  8
LAYER_1
 62
7
 10
25.310582
 20
19.685039
 42
0.032219
  0
VERTEX
  8
LAYER_1
 62
7
 10
25.304113
 20
19.764409
 42
0.199588
  0
VERTEX
  8
LAYER_1
 62
7
 10
25.063703
 20
20.167110
 42
0.199588
  0
VERTEX
  8
LAYER_1
 62
7
 10
24.608956
 20
20.281871
 42
0.067762
  0
VERTEX
  8
LAYER_1
 62
7
 10
24.364421
 20
20.196566
  0
VERTEX
  8
LAYER_1
 62
7
 10
24.244414
 20
20.140436
 42
-0.027938
  0
VERTEX
  8
LAYER_1
 62
7
 10
24.125209
 20
20.093217
 42
-0.196768
  0
VERTEX
  8
LAYER_1
 62
7
 10
23.663237
 20
20.589560
 42
-0.181484
  0
VERTEX
  8
LAYER_1
 62
7
 10
23.651901
 20
21.272122
  0
VERTEX
  8
LAYER_1
 62
7
 10
23.680817
 20
21.208616
 42
0.007478
  0
VERTEX
  8
LAYER_1
 62
7
 10
23.766452
 20
21.009833
 42
0.117453
  0
VERTEX
  8
LAYER_1
 62
7
 10
23.934010
 20
20.808784
 42
0.103277
  0
VERTEX
  8
LAYER_1
 62
7
 10
24.174198
 20
20.694805
 42
0.115914
  0
VERTEX
  8
LAYER_1
 62
7
 10
24.437751
 20
20.691339
 42
0.140253
  0
VERTEX
  8
LAYER_1
 62
7
 10
24.675403
 20
20.821828
 42
0.154889
  0
VERTEX
  8
LAYER_1
 62
7
 10
24.805771
 20
21.069694
 42
0.159644
  0
VERTEX
  8
LAYER_1
 62
7
 10
24.766186
 20
21.353223
 42
0.199588
  0
VERTEX
  8
LAYER_1
 62
7
 10
24.501469
 20
21.587439
 42
0.199588
  0
VERTEX
  8
LAYER_1
 62
7
 10
24.148671
 20
21.565876
  0
VERTEX
  8
LAYER_1
 62
7
 10
24.120844
 20
21.556301
 42
-0.119803
  0
VERTEX
  8
LAYER_1
 62
7
 10
24.199368
 20
21.872849
 42
-0.099538
  0
VERTEX
  8
LAYER_1
 62
7
 10
24.399507
 20
22.115929
 42
-0.140346
  0
VERTEX
  8
LAYER_1
 62
7
 10
24.991323
 20
22.362766
 42
0.008756
  0
VERTEX
  8
LAYER_1
 62
7
 10
25.061360
 20
21.825590
 42
0.023090
  0
VERTEX
  8
LAYER_1
 62
7
 10
25.165722
 20
21.291823
 42
0.038448
  0
VERTEX
  8
LAYER_1
 62
7
 10
25.333460
 20
20.778515
 42
0.053444
  0
VERTEX
  8
LAYER_1
 62
7
 10
25.593627
 20
20.302714
 42
0.140362
  0
VERTEX
  8
LAYER_1
 62
7
 10
25.833198
 20
20.108273
 42
0.122596
  0
VERTEX
  8
LAYER_1
 62
7
 10
26.132826
 20
20.055816
 42
0.164590
  0
VERTEX
  8
LAYER_1
 62
7
 10
26.394175
 20
20.160390
 42
0.101622
  0
VERTEX
  8
LAYER_1
 62
7
 10
26.479763
 20
20.276266
 42
0.093805
  0
VERTEX
  8
LAYER_1
 62
7
 10
26.518904
 20
20.437044
 42
-0.034972
  0
VERTEX
  8
LAYER_1
 62
7
 10
26.585496
 20
20.308063
 42
-0.073900
  0
VERTEX
  8
LAYER_1
 62
7
 10
26.686501
 20
19.950654
 42
-0.050381
  0
VERTEX
  8
LAYER_1
 62
7
 10
26.697520
 20
19.591793
 42
-0.038762
  0
VERTEX
  8
LAYER_1
 62
7
 10
26.652415
 20
19.279297
 42
-0.044327
  0
VERTEX
  8
LAYER_1
 62
7
 10
26.585049
 20
19.060983
  0
SEQEND
  0
POLYLINE
  8
LAYER_1
 62
7
 70
1
 66
1
  0
VERTEX
  8
LAYER_1
 62
7
 10
23.702615
 20
19.685039
 42
0.094611
  0
VERTEX
  8
LAYER_1
 62
7
 10
23.393216
 20
19.360111
 42
0.074493
  0
VERTEX
  8
LAYER_1
 62
7
 10
23.215067
 20
18.959182
 42
0.050827
  0
VERTEX
  8
LAYER_1
 62
7
 10
23.139624
 20
18.516894
 42
0.033330
  0
VERTEX
  8
LAYER_1
 62
7
 10
23.138343
 20
18.067890
 42
-0.017751
  0
VERTEX
  8
LAYER_1
 62
7
 10
22.564651
 20
18.066435
 42
0.134697
  0
VERTEX
  8
LAYER_1
 62
7
 10
22.828191
 20
18.428879
 42
0.108027
  0
VERTEX
  8
LAYER_1
 62
7
 10
22.887160
 20
18.861899
 42
0.156506
  0
VERTEX
  8
LAYER_1
 62
7
 10
22.545605
 20
19.685039
 42
0.156506
  0
VERTEX
  8
LAYER_1
 62
7
 10
22.887160
 20
20.508180
 42
0.108027
  0
VERTEX
  8
LAYER_1
 62
7
 10
22.828191
 20
20.941200
 42
0.134697
  0
VERTEX
  8
LAYER_1
 62
7
 10
22.564651
 20
21.303643
 42
-0.017751
  0
VERTEX
  8
LAYER_1
 62
7
 10
23.138343
 20
21.302189
 42
0.033330
  0
VERTEX
  8
LAYER_1
 62
7
 10
23.139624
 20
20.853185
 42
0.050827
  0
VERTEX
  8
LAYER_1
 62
7
 10
23.215067
 20
20.410897
 42
0.074493
  0
VERTEX
  8
LAYER_1
 62
7
 10
23.393216
 20
20.009968
 42
0.094611
  0
VERTEX
  8
LAYER_1
 62
7
 10
23.702615
 20
19.685039
  0
SEQEND
  0
POLYLINE
  8
LAYER_1
 62
7
 70
1
 66
1
  0
VERTEX
  8
LAYER_1
 62
7
 10
20.217384
 20
19.685039
 42
0.042884
  0
VERTEX
  8
LAYER_1
 62
7
 10
19.912556
 20
19.403812
 42
0.087124
  0
VERTEX
  8
LAYER_1
 62
7
 10
19.691344
 20
19.054271
  0
VERTEX
  8
LAYER_1
 62
7
 10
19.685039
 20
19.061014
  0
VERTEX
  8
LAYER_1
 62
7
 10
19.678735
 20
19.054271
 42
0.087124
  0
VERTEX
  8
LAYER_1
 62
7
 10
19.457523
 20
19.403812
 42
0.042884
  0
VERTEX
  8
LAYER_1
 62
7
 10
19.152695
 20
19.685039
 42
0.042884
  0
VERTEX
  8
LAYER_1
 62
7
 10
19.457523
 20
19.966267
 42
0.087124
  0
VERTEX
  8
LAYER_1
 62
7
 10
19.678735
 20
20.315808
  0
VERTEX
  8
LAYER_1
 62
7
 10
19.685039
 20
20.309065
  0
VERTEX
  8
LAYER_1
 62
7
 10
19.691344
 20
20.315808
 42
0.087124
  0
VERTEX
  8
LAYER_1
 62
7
 10
19.912556
 20
19.966267
 42
0.042884
  0
VERTEX
  8
LAYER_1
 62
7
 10
20.217384
 20
19.685039
  0
SEQEND
  0
POLYLINE
  8
LAYER_1
 62
7
 70
1
 66
1
  0
VERTEX
  8
LAYER_1
 62
7
 10
19.685039
 20
2.591372
 42
-0.001995
  0
VERTEX
  8
LAYER_1
 62
7
 10
15.279301
 20
2.605373
 42
0.062932
  0
VERTEX
  8
LAYER_1
 62
7
 10
15.610799
 20
2.810186
 42
0.051668
  0
VERTEX
  8
LAYER_1
 62
7
 10
15.902147
 20
3.098465
 42
0.096508
  0
VERTEX
  8
LAYER_1
 62
7
 10
16.300538
 20
3.829924
 42
0.058589
  0
VERTEX
  8
LAYER_1
 62
7
 10
16.375654
 20
4.225355
 42
0.073788
  0
VERTEX
  8
LAYER_1
 62
7
 10
16.346767
 20
4.608755
 42
0.190020
  0
VERTEX
  8
LAYER_1
 62
7
 10
15.913126
 20
5.243967
 42
0.101782
  0
VERTEX
  8
LAYER_1
 62
7
 10
16.799063
 20
5.261607
 42
0.085214
  0
VERTEX
  8
LAYER_1
 62
7
 10
17.620622
 20
5.598948
 42
0.065368
  0
VERTEX
  8
LAYER_1
 62
7
 10
17.933520
 20
4.901401
 42
0.048248
  0
VERTEX
  8
LAYER_1
 62
7
 10
18.392538
 20
4.298110
 42
0.030109
  0
VERTEX
  8
LAYER_1
 62
7
 10
18.945906
 20
3.767735
 42
0.013848
  0
VERTEX
  8
LAYER_1
 62
7
 10
19.541852
 20
3.288937
  0
VERTEX
  8
LAYER_1
 62
7
 10
19.685123
 20
3.179063
  0
VERTEX
  8
LAYER_1
 62
7
 10
19.841220
 20
3.298908
 42
0.014067
  0
VERTEX
  8
LAYER_1
 62
7
 10
20.433640
 20
3.775879
 42
0.030177
  0
VERTEX
  8
LAYER_1
 62
7
 10
20.983109
 20
4.304213
 42
0.048137
  0
VERTEX
  8
LAYER_1
 62
7
 10
21.438693
 20
4.904904
 42
0.065052
  0
VERTEX
  8
LAYER_1
 62
7
 10
21.749456
 20
5.598948
 42
0.085214
  0
VERTEX
  8
LAYER_1
 62
7
 10
22.571016
 20
5.261607
 42
0.101782
  0
VERTEX
  8
LAYER_1
 62
7
 10
23.456953
 20
5.243967
 42
0.190020
  0
VERTEX
  8
LAYER_1
 62
7
 10
23.023312
 20
4.608755
 42
0.073788
  0
VERTEX
  8
LAYER_1
 62
7
 10
22.994425
 20
4.225355
 42
0.058589
  0
VERTEX
  8
LAYER_1
 62
7
 10
23.069541
 20
3.829924
 42
0.096508
  0
VERTEX
  8
LAYER_1
 62
7
 10
23.467932
 20
3.098465
 42
0.051668
  0
VERTEX
  8
LAYER_1
 62
7
 10
23.759280
 20
2.810186
 42
0.062932
  0
VERTEX
  8
LAYER_1
 62
7
 10
24.090778
 20
2.605373
 42
-0.001995
  0
VERTEX
  8
LAYER_1
 62
7
 10
19.685039
 20
2.591372
  0
SEQEND
  0
POLYLINE
  8
LAYER_1
 62
7
 70
1
 66
1
  0
VERTEX
  8
LAYER_1
 62
7
 10
19.685043
 20
3.826458
  0
VERTEX
  8
LAYER_1
 62
7
 10
19.574921
 20
3.944966
 42
0.001941
  0
VERTEX
  8
LAYER_1
 62
7
 10
19.105240
 20
4.435619
 42
-0.030551
  0
VERTEX
  8
LAYER_1
 62
7
 10
18.663760
 20
4.952601
 42
-0.027617
  0
VERTEX
  8
LAYER_1
 62
7
 10
18.475235
 20
5.238226
 42
-0.046836
  0
VERTEX
  8
LAYER_1
 62
7
 10
18.326208
 20
5.557228
 42
-0.174723
  0
VERTEX
  8
LAYER_1
 62
7
 10
18.307808
 20
6.245483
 42
-0.168899
  0
VERTEX
  8
LAYER_1
 62
7
 10
18.725297
 20
6.799736
 42
-0.038575
  0
VERTEX
  8
LAYER_1
 62
7
 10
18.826199
 20
6.856414
 42
0.027346
  0
VERTEX
  8
LAYER_1
 62
7
 10
18.945030
 20
6.422735
 42
0.036950
  0
VERTEX
  8
LAYER_1
 62
7
 10
19.122148
 20
5.997031
 42
0.052738
  0
VERTEX
  8
LAYER_1
 62
7
 10
19.366001
 20
5.617673
 42
0.074959
  0
VERTEX
  8
LAYER_1
 62
7
 10
19.685039
 20
5.323030
 42
0.074959
  0
VERTEX
  8
LAYER_1
 62
7
 10
20.004078
 20
5.617673
 42
0.052738
  0
VERTEX
  8
LAYER_1
 62
7
 10
20.247931
 20
5.997031
 42
0.036950
  0
VERTEX
  8
LAYER_1
 62
7
 10
20.425048
 20
6.422735
 42
0.027346
  0
VERTEX
  8
LAYER_1
 62
7
 10
20.543879
 20
6.856414
 42
-0.060578
  0
VERTEX
  8
LAYER_1
 62
7
 10
20.704516
 20
6.756023
 42
-0.062025
  0
VERTEX
  8
LAYER_1
 62
7
 10
20.874151
 20
6.578560
 42
-0.051631
  0
VERTEX
  8
LAYER_1
 62
7
 10
21.009128
 20
6.353593
 42
-0.053848
  0
VERTEX
  8
LAYER_1
 62
7
 10
21.095363
 20
6.104521
 42
-0.068316
  0
VERTEX
  8
LAYER_1
 62
7
 10
21.118774
 20
5.854745
 42
-0.082981
  0
VERTEX
  8
LAYER_1
 62
7
 10
21.034382
 20
5.514561
 42
-0.043445
  0
VERTEX
  8
LAYER_1
 62
7
 10
20.850421
 20
5.165771
 42
-0.041594
  0
VERTEX
  8
LAYER_1
 62
7
 10
20.394950
 20
4.576091
 42
-0.005762
  0
VERTEX
  8
LAYER_1
 62
7
 10
19.943406
 20
4.101492
  0
VERTEX
  8
LAYER_1
 62
7
 10
19.794929
 20
3.944721
  0
VERTEX
  8
LAYER_1
 62
7
 10
19.685043
 20
3.826458
  0
SEQEND
  0
POLYLINE
  8
LAYER_1
 62
7
 70
1
 66
1
  0
VERTEX
  8
LAYER_1
 62
7
 10
19.685039
 20
6.188618
  0
VERTEX
  8
LAYER_1
 62
7
 10
19.680675
 20
6.182823
  0
VERTEX
  8
LAYER_1
 62
7
 10
19.505676
 20
6.512373
 42
-0.034810
  0
VERTEX
  8
LAYER_1
 62
7
 10
19.352239
 20
6.858281
 42
-0.075823
  0
VERTEX
  8
LAYER_1
 62
7
 10
19.279978
 20
7.216103
 42
-0.112203
  0
VERTEX
  8
LAYER_1
 62
7
 10
19.348510
 20
7.581394
 42
0.055446
  0
VERTEX
  8
LAYER_1
 62
7
 10
19.442599
 20
7.902027
 42
0.032777
  0
VERTEX
  8
LAYER_1
 62
7
 10
19.482580
 20
8.255442
 42
0.025088
  0
VERTEX
  8
LAYER_1
 62
7
 10
19.474396
 20
8.946073
  0
VERTEX
  8
LAYER_1
 62
7
 10
19.467298
 20
9.095411
 42
0.147151
  0
VERTEX
  8
LAYER_1
 62
7
 10
19.685039
 20
9.040434
 42
0.147151
  0
VERTEX
  8
LAYER_1
 62
7
 10
19.902780
 20
9.095411
  0
VERTEX
  8
LAYER_1
 62
7
 10
19.899753
 20
9.030745
  0
VERTEX
  8
LAYER_1
 62
7
 10
19.884600
 20
8.676165
 42
0.017713
  0
VERTEX
  8
LAYER_1
 62
7
 10
19.885432
 20
8.296686
 42
0.033411
  0
VERTEX
  8
LAYER_1
 62
7
 10
19.924095
 20
7.921398
 42
0.056968
  0
VERTEX
  8
LAYER_1
 62
7
 10
20.022432
 20
7.579389
 42
-0.111963
  0
VERTEX
  8
LAYER_1
 62
7
 10
20.090051
 20
7.214621
 42
-0.075567
  0
VERTEX
  8
LAYER_1
 62
7
 10
20.017505
 20
6.857319
 42
-0.034688
  0
VERTEX
  8
LAYER_1
 62
7
 10
19.864165
 20
6.511911
  0
VERTEX
  8
LAYER_1
 62
7
 10
19.689404
 20
6.182823
  0
VERTEX
  8
LAYER_1
 62
7
 10
19.685039
 20
6.188618
  0
SEQEND
  0
POLYLINE
  8
LAYER_1
 62
7
 70
1
 66
1
  0
VERTEX
  8
LAYER_1
 62
7
 10
19.685039
 20
9.641206
  0
VERTEX
  8
LAYER_1
 62
7
 10
19.670976
 20
9.634187
 42
-0.138121
  0
VERTEX
  8
LAYER_1
 62
7
 10
19.342811
 20
10.028122
 42
-0.119750
  0
VERTEX
  8
LAYER_1
 62
7
 10
19.262469
 20
10.504848
 42
-0.092854
  0
VERTEX
  8
LAYER_1
 62
7
 10
19.388442
 20
10.990938
 42
-0.085753
  0
VERTEX
  8
LAYER_1
 62
7
 10
19.679220
 20
11.412970
  0
VERTEX
  8
LAYER_1
 62
7
 10
19.685039
 20
11.408394
  0
VERTEX
  8
LAYER_1
 62
7
 10
19.690859
 20
11.412970
 42
-0.085753
  0
VERTEX
  8
LAYER_1
 62
7
 10
19.981637
 20
10.990938
 42
-0.092854
  0
VERTEX
  8
LAYER_1
 62
7
 10
20.107610
 20
10.504848
 42
-0.119750
  0
VERTEX
  8
LAYER_1
 62
7
 10
20.027268
 20
10.028122
 42
-0.138121
  0
VERTEX
  8
LAYER_1
 62
7
 10
19.699103
 20
9.634187
  0
VERTEX
  8
LAYER_1
 62
7
 10
19.685039
 20
9.641206
  0
SEQEND
  0
POLYLINE
  8
LAYER_1
 62
7
 70
1
 66
1
  0
VERTEX
  8
LAYER_1
 62
7
 10
19.685039
 20
13.276842
  0
VERTEX
  8
LAYER_1
 62
7
 10
19.674855
 20
13.257707
 42
0.034357
  0
VERTEX
  8
LAYER_1
 62
7
 10
19.497474
 20
13.729497
 42
0.008153
  0
VERTEX
  8
LAYER_1
 62
7
 10
19.278265
 20
14.190237
 42
-0.010100
  0
VERTEX
  8
LAYER_1
 62
7
 10
19.124550
 20
14.521041
 42
-0.020698
  0
VERTEX
  8
LAYER_1
 62
7
 10
19.004169
 20
14.827412
 42
-0.034134
  0
VERTEX
  8
LAYER_1
 62
7
 10
18.925844
 20
15.115290
 42
-0.048717
  0
VERTEX
  8
LAYER_1
 62
7
 10
18.898296
 20
15.390618
 42
-0.120221
  0
VERTEX
  8
LAYER_1
 62
7
 10
19.030421
 20
15.927381
 42
-0.049009
  0
VERTEX
  8
LAYER_1
 62
7
 10
19.207538
 20
16.200699
 42
-0.036555
  0
VERTEX
  8
LAYER_1
 62
7
 10
19.470319
 20
16.485228
 42
-0.037440
  0
VERTEX
  8
LAYER_1
 62
7
 10
19.685039
 20
16.645560
 42
-0.037440
  0
VERTEX
  8
LAYER_1
 62
7
 10
19.899760
 20
16.485228
 42
-0.036555
  0
VERTEX
  8
LAYER_1
 62
7
 10
20.162541
 20
16.200699
 42
-0.049009
  0
VERTEX
  8
LAYER_1
 62
7
 10
20.339657
 20
15.927381
 42
-0.120221
  0
VERTEX
  8
LAYER_1
 62
7
 10
20.471783
 20
15.390618
 42
-0.048717
  0
VERTEX
  8
LAYER_1
 62
7
 10
20.444235
 20
15.115290
 42
-0.034134
  0
VERTEX
  8
LAYER_1
 62
7
 10
20.365910
 20
14.827412
 42
-0.020698
  0
VERTEX
  8
LAYER_1
 62
7
 10
20.245529
 20
14.521041
 42
-0.010100
  0
VERTEX
  8
LAYER_1
 62
7
 10
20.091814
 20
14.190237
 42
0.008153
  0
VERTEX
  8
LAYER_1
 62
7
 10
19.872605
 20
13.729497
 42
0.034357
  0
VERTEX
  8
LAYER_1
 62
7
 10
19.695223
 20
13.257707
  0
VERTEX
  8
LAYER_1
 62
7
 10
19.685039
 20
13.276842
  0
SEQEND
  0
POLYLINE
  8
LAYER_1
 62
7
 70
1
 66
1
  0
VERTEX
  8
LAYER_1
 62
7
 10
27.852022
 20
2.596159
 42
0.029637
  0
VERTEX
  8
LAYER_1
 62
7
 10
27.360082
 20
2.621815
 42
0.013755
  0
VERTEX
  8
LAYER_1
 62
7
 10
26.856783
 20
2.604626
  0
VERTEX
  8
LAYER_1
 62
7
 10
26.349194
 20
2.574301
 42
-0.015466
  0
VERTEX
  8
LAYER_1
 62
7
 10
25.844385
 20
2.560546
 42
-0.040293
  0
VERTEX
  8
LAYER_1
 62
7
 10
25.252187
 20
2.610940
 42
-0.056766
  0
VERTEX
  8
LAYER_1
 62
7
 10
24.692508
 20
2.770271
 42
-0.075940
  0
VERTEX
  8
LAYER_1
 62
7
 10
24.201589
 20
3.066587
 42
-0.087055
  0
VERTEX
  8
LAYER_1
 62
7
 10
23.815670
 20
3.527939
 42
-0.092847
  0
VERTEX
  8
LAYER_1
 62
7
 10
23.652021
 20
3.969857
 42
-0.142040
  0
VERTEX
  8
LAYER_1
 62
7
 10
23.704353
 20
4.426623
 42
-0.294779
  0
VERTEX
  8
LAYER_1
 62
7
 10
24.156245
 20
4.730894
 42
0.215495
  0
VERTEX
  8
LAYER_1
 62
7
 10
24.124692
 20
4.341664
 42
0.144015
  0
VERTEX
  8
LAYER_1
 62
7
 10
24.278289
 20
4.128121
 42
0.123801
  0
VERTEX
  8
LAYER_1
 62
7
 10
24.512152
 20
4.027009
 42
0.287593
  0
VERTEX
  8
LAYER_1
 62
7
 10
25.083157
 20
4.263038
 42
0.210195
  0
VERTEX
  8
LAYER_1
 62
7
 10
25.179222
 20
4.712087
 42
0.158394
  0
VERTEX
  8
LAYER_1
 62
7
 10
24.947611
 20
5.113138
 42
0.077834
  0
VERTEX
  8
LAYER_1
 62
7
 10
24.650649
 20
5.306561
 42
0.064207
  0
VERTEX
  8
LAYER_1
 62
7
 10
24.322759
 20
5.408654
 42
0.074671
  0
VERTEX
  8
LAYER_1
 62
7
 10
23.964207
 20
5.419033
 42
0.064650
  0
VERTEX
  8
LAYER_1
 62
7
 10
24.390717
 20
5.669629
 42
0.111083
  0
VERTEX
  8
LAYER_1
 62
7
 10
24.702295
 20
6.051888
 42
0.033657
  0
VERTEX
  8
LAYER_1
 62
7
 10
24.743981
 20
5.965475
 42
0.173713
  0
VERTEX
  8
LAYER_1
 62
7
 10
25.160691
 20
5.619149
 42
0.103962
  0
VERTEX
  8
LAYER_1
 62
7
 10
25.431167
 20
5.578282
 42
0.129181
  0
VERTEX
  8
LAYER_1
 62
7
 10
25.695342
 20
5.665762
 42
0.211154
  0
VERTEX
  8
LAYER_1
 62
7
 10
25.921247
 20
6.010356
 42
0.236528
  0
VERTEX
  8
LAYER_1
 62
7
 10
25.797415
 20
6.435789
 42
0.116792
  0
VERTEX
  8
LAYER_1
 62
7
 10
25.630355
 20
6.538419
 42
0.170667
  0
VERTEX
  8
LAYER_1
 62
7
 10
25.347738
 20
6.534967
 42
0.170667
  0
VERTEX
  8
LAYER_1
 62
7
 10
25.130569
 20
6.354073
 42
-0.273168
  0
VERTEX
  8
LAYER_1
 62
7
 10
25.271639
 20
6.864912
 42
-0.110471
  0
VERTEX
  8
LAYER_1
 62
7
 10
25.635793
 20
7.093258
 42
-0.082943
  0
VERTEX
  8
LAYER_1
 62
7
 10
26.083420
 20
7.174760
 42
-0.077574
  0
VERTEX
  8
LAYER_1
 62
7
 10
26.541120
 20
7.113310
 42
-0.094704
  0
VERTEX
  8
LAYER_1
 62
7
 10
26.935493
 20
6.912802
 42
-0.085250
  0
VERTEX
  8
LAYER_1
 62
7
 10
27.364596
 20
6.462734
 42
-0.072084
  0
VERTEX
  8
LAYER_1
 62
7
 10
27.635736
 20
5.909313
 42
-0.038954
  0
VERTEX
  8
LAYER_1
 62
7
 10
27.796306
 20
5.093687
 42
-0.023935
  0
VERTEX
  8
LAYER_1
 62
7
 10
27.853174
 20
4.263466
 42
-0.009012
  0
VERTEX
  8
LAYER_1
 62
7
 10
27.855394
 20
3.427880
 42
0.005681
  0
VERTEX
  8
LAYER_1
 62
7
 10
27.852022
 20
2.596159
  0
SEQEND
  0
POLYLINE
  8
LAYER_1
 62
7
 70
1
 66
1
  0
VERTEX
  8
LAYER_1
 62
7
 10
24.378318
 20
7.337164
 42
-0.050710
  0
VERTEX
  8
LAYER_1
 62
7
 10
24.384657
 20
7.338914
 42
-0.136288
  0
VERTEX
  8
LAYER_1
 62
7
 10
24.495155
 20
6.757546
 42
-0.309353
  0
VERTEX
  8
LAYER_1
 62
7
 10
23.682257
 20
5.732750
 42
-0.087162
  0
VERTEX
  8
LAYER_1
 62
7
 10
23.111610
 20
5.665781
 42
-0.072383
  0
VERTEX
  8
LAYER_1
 62
7
 10
22.526671
 20
5.782505
 42
-0.073556
  0
VERTEX
  8
LAYER_1
 62
7
 10
22.000339
 20
6.058886
 42
-0.090603
  0
VERTEX
  8
LAYER_1
 62
7
 10
21.605509
 20
6.470888
 42
-0.019596
  0
VERTEX
  8
LAYER_1
 62
7
 10
21.547234
 20
6.569325
 42
0.109602
  0
VERTEX
  8
LAYER_1
 62
7
 10
21.729157
 20
6.534584
 42
0.075712
  0
VERTEX
  8
LAYER_1
 62
7
 10
21.902033
 20
6.568537
 42
0.029699
  0
VERTEX
  8
LAYER_1
 62
7
 10
22.068453
 20
6.639499
  0
VERTEX
  8
LAYER_1
 62
7
 10
22.150051
 20
6.678955
  0
VERTEX
  8
LAYER_1
 62
7
 10
22.231008
 20
6.715779
  0
VERTEX
  8
LAYER_1
 62
7
 10
22.347571
 20
6.670721
 42
0.015099
  0
VERTEX
  8
LAYER_1
 62
7
 10
22.579983
 20
6.591111
 42
0.053915
  0
VERTEX
  8
LAYER_1
 62
7
 10
23.114663
 20
6.484689
 42
0.083961
  0
VERTEX
  8
LAYER_1
 62
7
 10
23.633922
 20
6.522234
 42
0.128492
  0
VERTEX
  8
LAYER_1
 62
7
 10
24.070343
 20
6.759203
 42
0.069401
  0
VERTEX
  8
LAYER_1
 62
7
 10
24.236421
 20
6.969802
 42
0.061634
  0
VERTEX
  8
LAYER_1
 62
7
 10
24.356508
 20
7.251055
 42
0.019641
  0
VERTEX
  8
LAYER_1
 62
7
 10
24.378318
 20
7.337164
  0
SEQEND
  0
POLYLINE
  8
LAYER_1
 62
7
 70
1
 66
1
  0
VERTEX
  8
LAYER_1
 62
7
 10
27.850567
 20
6.708020
 42
0.008389
  0
VERTEX
  8
LAYER_1
 62
7
 10
27.714610
 20
6.872915
 42
0.056867
  0
VERTEX
  8
LAYER_1
 62
7
 10
27.216040
 20
7.341859
 42
0.077376
  0
VERTEX
  8
LAYER_1
 62
7
 10
26.636686
 20
7.650686
 42
0.102524
  0
VERTEX
  8
LAYER_1
 62
7
 10
25.999538
 20
7.733030
 42
0.108179
  0
VERTEX
  8
LAYER_1
 62
7
 10
25.327587
 20
7.522527
 42
0.073688
  0
VERTEX
  8
LAYER_1
 62
7
 10
24.912277
 20
7.203150
 42
0.148642
  0
VERTEX
  8
LAYER_1
 62
7
 10
24.606943
 20
7.820730
 42
0.077863
  0
VERTEX
  8
LAYER_1
 62
7
 10
24.333910
 20
8.035546
 42
0.089803
  0
VERTEX
  8
LAYER_1
 62
7
 10
24.005912
 20
8.148796
 42
0.202546
  0
VERTEX
  8
LAYER_1
 62
7
 10
23.528119
 20
8.066961
 42
0.138547
  0
VERTEX
  8
LAYER_1
 62
7
 10
23.368283
 20
7.891153
 42
0.173173
  0
VERTEX
  8
LAYER_1
 62
7
 10
23.344930
 20
7.641057
 42
0.116698
  0
VERTEX
  8
LAYER_1
 62
7
 10
23.435471
 20
7.498210
 42
0.120839
  0
VERTEX
  8
LAYER_1
 62
7
 10
23.562610
 20
7.426832
 42
0.082487
  0
VERTEX
  8
LAYER_1
 62
7
 10
23.713664
 20
7.411647
 42
0.048857
  0
VERTEX
  8
LAYER_1
 62
7
 10
23.875946
 20
7.437380
 42
-0.191599
  0
VERTEX
  8
LAYER_1
 62
7
 10
23.659425
 20
7.097963
 42
-0.075264
  0
VERTEX
  8
LAYER_1
 62
7
 10
23.483404
 20
7.009537
 42
-0.056406
  0
VERTEX
  8
LAYER_1
 62
7
 10
23.280372
 20
6.967588
 42
-0.080277
  0
VERTEX
  8
LAYER_1
 62
7
 10
22.847761
 20
6.999973
 42
-0.078539
  0
VERTEX
  8
LAYER_1
 62
7
 10
22.470572
 20
7.148836
 42
-0.089189
  0
VERTEX
  8
LAYER_1
 62
7
 10
21.912232
 20
7.677572
 42
-0.065881
  0
VERTEX
  8
LAYER_1
 62
7
 10
21.544566
 20
8.350473
 42
-0.043071
  0
VERTEX
  8
LAYER_1
 62
7
 10
21.325295
 20
9.101481
 42
-0.026246
  0
VERTEX
  8
LAYER_1
 62
7
 10
21.212136
 20
9.864536
 42
0.127063
  0
VERTEX
  8
LAYER_1
 62
7
 10
21.856872
 20
9.893694
 42
0.095466
  0
VERTEX
  8
LAYER_1
 62
7
 10
22.137413
 20
10.044777
 42
0.124785
  0
VERTEX
  8
LAYER_1
 62
7
 10
22.327027
 20
10.304383
 42
0.129389
  0
VERTEX
  8
LAYER_1
 62
7
 10
22.428321
 20
10.786662
 42
0.079046
  0
VERTEX
  8
LAYER_1
 62
7
 10
22.327027
 20
11.274761
 42
-0.107828
  0
VERTEX
  8
LAYER_1
 62
7
 10
22.896991
 20
11.188372
 42
-0.097550
  0
VERTEX
  8
LAYER_1
 62
7
 10
23.376209
 20
10.888076
 42
-0.096467
  0
VERTEX
  8
LAYER_1
 62
7
 10
23.708125
 20
10.430022
 42
-0.105686
  0
VERTEX
  8
LAYER_1
 62
7
 10
23.836181
 20
9.870356
 42
0.168527
  0
VERTEX
  8
LAYER_1
 62
7
 10
23.486512
 20
10.052226
 42
0.145278
  0
VERTEX
  8
LAYER_1
 62
7
 10
23.113792
 20
10.002140
 42
0.185803
  0
VERTEX
  8
LAYER_1
 62
7
 10
22.861734
 20
9.756196
 42
0.107308
  0
VERTEX
  8
LAYER_1
 62
7
 10
22.825862
 20
9.571059
 42
0.093121
  0
VERTEX
  8
LAYER_1
 62
7
 10
22.874047
 20
9.350493
 42
0.188517
  0
VERTEX
  8
LAYER_1
 62
7
 10
23.136221
 20
9.057646
 42
0.147861
  0
VERTEX
  8
LAYER_1
 62
7
 10
23.511509
 20
8.997573
 42
0.134432
  0
VERTEX
  8
LAYER_1
 62
7
 10
23.871885
 20
9.144270
 42
0.168715
  0
VERTEX
  8
LAYER_1
 62
7
 10
24.089323
 20
9.471730
 42
0.162283
  0
VERTEX
  8
LAYER_1
 62
7
 10
24.589424
 20
9.193128
 42
0.166704
  0
VERTEX
  8
LAYER_1
 62
7
 10
25.155720
 20
9.272417
 42
0.129301
  0
VERTEX
  8
LAYER_1
 62
7
 10
25.377621
 20
9.587700
 42
0.101272
  0
VERTEX
  8
LAYER_1
 62
7
 10
25.430624
 20
9.957949
 42
0.069043
  0
VERTEX
  8
LAYER_1
 62
7
 10
25.355874
 20
10.339200
 42
0.054078
  0
VERTEX
  8
LAYER_1
 62
7
 10
25.194516
 20
10.687490
 42
0.307922
  0
VERTEX
  8
LAYER_1
 62
7
 10
25.846829
 20
10.788177
 42
0.147595
  0
VERTEX
  8
LAYER_1
 62
7
 10
26.014159
 20
11.072318
 42
0.158520
  0
VERTEX
  8
LAYER_1
 62
7
 10
25.983039
 20
11.431883
 42
-0.102087
  0
VERTEX
  8
LAYER_1
 62
7
 10
26.536506
 20
10.893744
 42
-0.089679
  0
VERTEX
  8
LAYER_1
 62
7
 10
26.858428
 20
10.177933
 42
-0.098500
  0
VERTEX
  8
LAYER_1
 62
7
 10
26.899656
 20
9.405929
 42
-0.123060
  0
VERTEX
  8
LAYER_1
 62
7
 10
26.611044
 20
8.699210
 42
0.199588
  0
VERTEX
  8
LAYER_1
 62
7
 10
26.443328
 20
9.084938
 42
0.199588
  0
VERTEX
  8
LAYER_1
 62
7
 10
26.051985
 20
9.239100
 42
0.286865
  0
VERTEX
  8
LAYER_1
 62
7
 10
25.565378
 20
8.927449
 42
0.155320
  0
VERTEX
  8
LAYER_1
 62
7
 10
25.519055
 20
8.615812
 42
0.129079
  0
VERTEX
  8
LAYER_1
 62
7
 10
25.644412
 20
8.345738
 42
0.104246
  0
VERTEX
  8
LAYER_1
 62
7
 10
25.879442
 20
8.155472
 42
0.085254
  0
VERTEX
  8
LAYER_1
 62
7
 10
26.169789
 20
8.064861
 42
0.154198
  0
VERTEX
  8
LAYER_1
 62
7
 10
26.763232
 20
8.164298
 42
0.084021
  0
VERTEX
  8
LAYER_1
 62
7
 10
27.020499
 20
8.363110
 42
0.066151
  0
VERTEX
  8
LAYER_1
 62
7
 10
27.210375
 20
8.633482
 42
0.094957
  0
VERTEX
  8
LAYER_1
 62
7
 10
27.399677
 20
9.282272
 42
0.065212
  0
VERTEX
  8
LAYER_1
 62
7
 10
27.379473
 20
9.899273
 42
0.058648
  0
VERTEX
  8
LAYER_1
 62
7
 10
27.207227
 20
10.503079
 42
0.059929
  0
VERTEX
  8
LAYER_1
 62
7
 10
26.901773
 20
11.046112
 42
0.069212
  0
VERTEX
  8
LAYER_1
 62
7
 10
26.481941
 20
11.480798
  0
VERTEX
  8
LAYER_1
 62
7
 10
26.403145
 20
11.538913
 42
0.016002
  0
VERTEX
  8
LAYER_1
 62
7
 10
26.296314
 20
11.608889
 42
0.094102
  0
VERTEX
  8
LAYER_1
 62
7
 10
27.169884
 20
11.950352
 42
0.100467
  0
VERTEX
  8
LAYER_1
 62
7
 10
27.849597
 20
12.596240
 42
-0.002718
  0
VERTEX
  8
LAYER_1
 62
7
 10
27.850567
 20
6.708020
  0
SEQEND
  0
POLYLINE
  8
LAYER_1
 62
7
 70
1
 66
1
  0
VERTEX
  8
LAYER_1
 62
7
 10
21.659170
 20
7.027877
 42
-0.126965
  0
VERTEX
  8
LAYER_1
 62
7
 10
21.496213
 20
6.972297
 42
-0.079923
  0
VERTEX
  8
LAYER_1
 62
7
 10
21.310018
 20
6.987949
 42
-0.082444
  0
VERTEX
  8
LAYER_1
 62
7
 10
20.940417
 20
7.151873
 42
-0.128039
  0
VERTEX
  8
LAYER_1
 62
7
 10
20.529709
 20
7.603044
 42
-0.089096
  0
VERTEX
  8
LAYER_1
 62
7
 10
20.339243
 20
8.205781
 42
-0.068283
  0
VERTEX
  8
LAYER_1
 62
7
 10
20.339665
 20
8.850980
 42
-0.072516
  0
VERTEX
  8
LAYER_1
 62
7
 10
20.501623
 20
9.429538
 42
-0.052380
  0
VERTEX
  8
LAYER_1
 62
7
 10
20.710701
 20
9.784035
 42
0.008185
  0
VERTEX
  8
LAYER_1
 62
7
 10
20.760110
 20
9.461283
 42
0.020597
  0
VERTEX
  8
LAYER_1
 62
7
 10
20.890121
 20
8.835297
 42
0.032990
  0
VERTEX
  8
LAYER_1
 62
7
 10
21.068022
 20
8.285601
 42
0.037942
  0
VERTEX
  8
LAYER_1
 62
7
 10
21.322626
 20
7.769758
 42
0.032262
  0
VERTEX
  8
LAYER_1
 62
7
 10
21.682746
 20
7.245332
 42
-0.056170
  0
VERTEX
  8
LAYER_1
 62
7
 10
21.717839
 20
7.189928
 42
-0.110741
  0
VERTEX
  8
LAYER_1
 62
7
 10
21.731197
 20
7.134933
 42
-0.146141
  0
VERTEX
  8
LAYER_1
 62
7
 10
21.714436
 20
7.080773
 42
-0.100918
  0
VERTEX
  8
LAYER_1
 62
7
 10
21.659170
 20
7.027877
  0
SEQEND
  0
POLYLINE
  8
LAYER_1
 62
7
 70
1
 66
1
  0
VERTEX
  8
LAYER_1
 62
7
 10
24.737211
 20
9.640491
 42
-0.152853
  0
VERTEX
  8
LAYER_1
 62
7
 10
24.513247
 20
9.655834
 42
-0.127980
  0
VERTEX
  8
LAYER_1
 62
7
 10
24.350960
 20
9.781808
 42
-0.072202
  0
VERTEX
  8
LAYER_1
 62
7
 10
24.241290
 20
9.974672
 42
-0.041722
  0
VERTEX
  8
LAYER_1
 62
7
 10
24.175179
 20
10.190688
 42
0.091598
  0
VERTEX
  8
LAYER_1
 62
7
 10
23.907167
 20
10.834218
 42
0.023642
  0
VERTEX
  8
LAYER_1
 62
7
 10
23.727010
 20
11.083136
  0
VERTEX
  8
LAYER_1
 62
7
 10
23.535029
 20
11.323740
 42
-0.063007
  0
VERTEX
  8
LAYER_1
 62
7
 10
23.905524
 20
11.244444
 42
-0.061936
  0
VERTEX
  8
LAYER_1
 62
7
 10
24.280644
 20
11.051552
 42
-0.055941
  0
VERTEX
  8
LAYER_1
 62
7
 10
24.649757
 20
10.741264
 42
-0.079965
  0
VERTEX
  8
LAYER_1
 62
7
 10
24.920248
 20
10.354445
 42
-0.059960
  0
VERTEX
  8
LAYER_1
 62
7
 10
24.989568
 20
10.145106
 42
-0.076346
  0
VERTEX
  8
LAYER_1
 62
7
 10
24.999502
 20
9.931959
 42
-0.141649
  0
VERTEX
  8
LAYER_1
 62
7
 10
24.926900
 20
9.737166
 42
-0.209043
  0
VERTEX
  8
LAYER_1
 62
7
 10
24.737211
 20
9.640491
  0
SEQEND
  0
POLYLINE
  8
LAYER_1
 62
7
 70
1
 66
1
  0
VERTEX
  8
LAYER_1
 62
7
 10
21.484676
 20
10.324266
 42
-0.159035
  0
VERTEX
  8
LAYER_1
 62
7
 10
21.089156
 20
10.386460
 42
-0.112881
  0
VERTEX
  8
LAYER_1
 62
7
 10
20.801022
 20
10.642148
 42
-0.053454
  0
VERTEX
  8
LAYER_1
 62
7
 10
20.594178
 20
11.001857
 42
-0.017176
  0
VERTEX
  8
LAYER_1
 62
7
 10
20.442526
 20
11.376114
 42
-0.019166
  0
VERTEX
  8
LAYER_1
 62
7
 10
20.313962
 20
11.840254
 42
-0.030649
  0
VERTEX
  8
LAYER_1
 62
7
 10
20.231635
 20
12.316668
 42
-0.043715
  0
VERTEX
  8
LAYER_1
 62
7
 10
20.220685
 20
12.796356
 42
-0.056670
  0
VERTEX
  8
LAYER_1
 62
7
 10
20.306256
 20
13.270315
 42
0.084491
  0
VERTEX
  8
LAYER_1
 62
7
 10
20.831816
 20
12.261445
 42
0.064673
  0
VERTEX
  8
LAYER_1
 62
7
 10
21.631614
 20
11.447886
 42
-0.165706
  0
VERTEX
  8
LAYER_1
 62
7
 10
21.855114
 20
11.182371
 42
-0.122751
  0
VERTEX
  8
LAYER_1
 62
7
 10
21.904397
 20
10.826973
 42
-0.138476
  0
VERTEX
  8
LAYER_1
 62
7
 10
21.780553
 20
10.501127
 42
-0.193890
  0
VERTEX
  8
LAYER_1
 62
7
 10
21.484676
 20
10.324266
  0
SEQEND
  0
POLYLINE
  8
LAYER_1
 62
7
 70
1
 66
1
  0
VERTEX
  8
LAYER_1
 62
7
 10
24.580720
 20
11.645257
 42
-0.077873
  0
VERTEX
  8
LAYER_1
 62
7
 10
25.172599
 20
11.656285
 42
-0.095090
  0
VERTEX
  8
LAYER_1
 62
7
 10
25.465611
 20
11.559756
 42
-0.200523
  0
VERTEX
  8
LAYER_1
 62
7
 10
25.633510
 20
11.348228
 42
-0.125238
  0
VERTEX
  8
LAYER_1
 62
7
 10
25.634827
 20
11.271883
 42
-0.114014
  0
VERTEX
  8
LAYER_1
 62
7
 10
25.592739
 20
11.190924
 42
-0.140936
  0
VERTEX
  8
LAYER_1
 62
7
 10
25.536231
 20
11.153117
 42
-0.079074
  0
VERTEX
  8
LAYER_1
 62
7
 10
25.460043
 20
11.141241
 42
-0.068695
  0
VERTEX
  8
LAYER_1
 62
7
 10
25.290102
 20
11.166983
 42
-0.043033
  0
VERTEX
  8
LAYER_1
 62
7
 10
25.061647
 20
11.254193
 42
-0.017122
  0
VERTEX
  8
LAYER_1
 62
7
 10
24.732969
 20
11.433586
 42
0.027774
  0
VERTEX
  8
LAYER_1
 62
7
 10
24.402598
 20
11.605009
 42
-0.018502
  0
VERTEX
  8
LAYER_1
 62
7
 10
24.580720
 20
11.645257
  0
SEQEND
  0
POLYLINE
  8
LAYER_1
 62
7
 70
1
 66
1
  0
VERTEX
  8
LAYER_1
 62
7
 10
23.134463
 20
11.925559
 42
-0.115571
  0
VERTEX
  8
LAYER_1
 62
7
 10
22.382614
 20
11.992057
 42
-0.117417
  0
VERTEX
  8
LAYER_1
 62
7
 10
21.737333
 20
12.383348
 42
0.053831
  0
VERTEX
  8
LAYER_1
 62
7
 10
22.063501
 20
12.314485
 42
0.140713
  0
VERTEX
  8
LAYER_1
 62
7
 10
22.910135
 20
12.464062
 42
0.105809
  0
VERTEX
  8
LAYER_1
 62
7
 10
23.287327
 20
12.774957
 42
0.096241
  0
VERTEX
  8
LAYER_1
 62
7
 10
23.526884
 20
13.224335
 42
0.120244
  0
VERTEX
  8
LAYER_1
 62
7
 10
23.560071
 20
13.723394
 42
0.150635
  0
VERTEX
  8
LAYER_1
 62
7
 10
23.318151
 20
14.183330
 42
0.072382
  0
VERTEX
  8
LAYER_1
 62
7
 10
23.193242
 20
14.279147
 42
0.158717
  0
VERTEX
  8
LAYER_1
 62
7
 10
22.731549
 20
14.367605
 42
0.182506
  0
VERTEX
  8
LAYER_1
 62
7
 10
22.313934
 20
14.151948
 42
0.199702
  0
VERTEX
  8
LAYER_1
 62
7
 10
22.215520
 20
13.850948
 42
0.157633
  0
VERTEX
  8
LAYER_1
 62
7
 10
22.335878
 20
13.572679
 42
0.150561
  0
VERTEX
  8
LAYER_1
 62
7
 10
22.595718
 20
13.406434
 42
0.188362
  0
VERTEX
  8
LAYER_1
 62
7
 10
22.915752
 20
13.441501
 42
-0.122704
  0
VERTEX
  8
LAYER_1
 62
7
 10
22.828904
 20
13.172641
 42
-0.100969
  0
VERTEX
  8
LAYER_1
 62
7
 10
22.635586
 20
12.970127
 42
-0.171668
  0
VERTEX
  8
LAYER_1
 62
7
 10
22.089498
 20
12.818666
 42
-0.126890
  0
VERTEX
  8
LAYER_1
 62
7
 10
21.542442
 20
13.000514
 42
-0.110957
  0
VERTEX
  8
LAYER_1
 62
7
 10
21.167636
 20
13.391586
 42
-0.086020
  0
VERTEX
  8
LAYER_1
 62
7
 10
20.964966
 20
13.909006
 42
-0.076469
  0
VERTEX
  8
LAYER_1
 62
7
 10
20.934316
 20
14.469899
 42
-0.067294
  0
VERTEX
  8
LAYER_1
 62
7
 10
21.043970
 20
14.935537
 42
-0.079240
  0
VERTEX
  8
LAYER_1
 62
7
 10
21.276735
 20
15.340561
 42
-0.309565
  0
VERTEX
  8
LAYER_1
 62
7
 10
22.432746
 20
15.732873
 42
0.162120
  0
VERTEX
  8
LAYER_1
 62
7
 10
22.172151
 20
15.554601
 42
0.170322
  0
VERTEX
  8
LAYER_1
 62
7
 10
22.079685
 20
15.276802
 42
0.147266
  0
VERTEX
  8
LAYER_1
 62
7
 10
22.154058
 20
15.050219
 42
0.116719
  0
VERTEX
  8
LAYER_1
 62
7
 10
22.328692
 20
14.897458
 42
0.194067
  0
VERTEX
  8
LAYER_1
 62
7
 10
22.782835
 20
14.843881
 42
0.029515
  0
VERTEX
  8
LAYER_1
 62
7
 10
22.853618
 20
14.870088
 42
0.118947
  0
VERTEX
  8
LAYER_1
 62
7
 10
23.074083
 20
15.040292
 42
0.091656
  0
VERTEX
  8
LAYER_1
 62
7
 10
23.209146
 20
15.290763
 42
0.080277
  0
VERTEX
  8
LAYER_1
 62
7
 10
23.254431
 20
15.575697
 42
0.090754
  0
VERTEX
  8
LAYER_1
 62
7
 10
23.205559
 20
15.849286
 42
0.213088
  0
VERTEX
  8
LAYER_1
 62
7
 10
22.618965
 20
16.414708
 42
0.135168
  0
VERTEX
  8
LAYER_1
 62
7
 10
21.747517
 20
16.464354
 42
0.131689
  0
VERTEX
  8
LAYER_1
 62
7
 10
20.966268
 20
16.072821
 42
-0.126405
  0
VERTEX
  8
LAYER_1
 62
7
 10
21.306981
 20
16.763733
 42
-0.100233
  0
VERTEX
  8
LAYER_1
 62
7
 10
21.909792
 20
17.227599
 42
-0.080572
  0
VERTEX
  8
LAYER_1
 62
7
 10
22.650904
 20
17.457055
 42
-0.081462
  0
VERTEX
  8
LAYER_1
 62
7
 10
23.406518
 20
17.444734
 42
0.097378
  0
VERTEX
  8
LAYER_1
 62
7
 10
23.932746
 20
16.840006
 42
0.110785
  0
VERTEX
  8
LAYER_1
 62
7
 10
24.654285
 20
16.497149
 42
0.073715
  0
VERTEX
  8
LAYER_1
 62
7
 10
24.241626
 20
15.960752
 42
0.068928
  0
VERTEX
  8
LAYER_1
 62
7
 10
23.992818
 20
15.325154
 42
0.072320
  0
VERTEX
  8
LAYER_1
 62
7
 10
23.929503
 20
14.648639
 42
0.082582
  0
VERTEX
  8
LAYER_1
 62
7
 10
24.073320
 20
13.989491
 42
0.079179
  0
VERTEX
  8
LAYER_1
 62
7
 10
24.199027
 20
13.723316
  0
VERTEX
  8
LAYER_1
 62
7
 10
24.283515
 20
13.598355
 42
-0.010107
  0
VERTEX
  8
LAYER_1
 62
7
 10
24.366833
 20
13.474599
 42
-0.086943
  0
VERTEX
  8
LAYER_1
 62
7
 10
24.483175
 20
13.218062
 42
-0.160562
  0
VERTEX
  8
LAYER_1
 62
7
 10
24.454487
 20
12.928428
 42
-0.099646
  0
VERTEX
  8
LAYER_1
 62
7
 10
24.269988
 20
12.528067
 42
-0.082697
  0
VERTEX
  8
LAYER_1
 62
7
 10
23.958327
 20
12.224589
 42
-0.127454
  0
VERTEX
  8
LAYER_1
 62
7
 10
23.134463
 20
11.925559
  0
SEQEND
  0
POLYLINE
  8
LAYER_1
 62
7
 70
1
 66
1
  0
VERTEX
  8
LAYER_1
 62
7
 10
27.299996
 20
12.733955
 42
-0.097578
  0
VERTEX
  8
LAYER_1
 62
7
 10
26.753065
 20
12.297864
 42
-0.067039
  0
VERTEX
  8
LAYER_1
 62
7
 10
26.376347
 20
12.163052
 42
-0.081491
  0
VERTEX
  8
LAYER_1
 62
7
 10
25.947289
 20
12.143727
  0
VERTEX
  8
LAYER_1
 62
7
 10
25.932020
 20
12.146417
 42
-0.074099
  0
VERTEX
  8
LAYER_1
 62
7
 10
25.921789
 20
12.150413
 42
-0.195997
  0
VERTEX
  8
LAYER_1
 62
7
 10
25.917208
 20
12.155847
 42
-0.121514
  0
VERTEX
  8
LAYER_1
 62
7
 10
25.917227
 20
12.159146
 42
-0.084203
  0
VERTEX
  8
LAYER_1
 62
7
 10
25.918889
 20
12.162853
 42
-0.080813
  0
VERTEX
  8
LAYER_1
 62
7
 10
25.927447
 20
12.171563
 42
-0.035370
  0
VERTEX
  8
LAYER_1
 62
7
 10
25.943492
 20
12.182111
 42
-0.029816
  0
VERTEX
  8
LAYER_1
 62
7
 10
26.000497
 20
12.209252
 42
0.087325
  0
VERTEX
  8
LAYER_1
 62
7
 10
26.662187
 20
12.633435
 42
0.082260
  0
VERTEX
  8
LAYER_1
 62
7
 10
27.156935
 20
13.260350
 42
0.085402
  0
VERTEX
  8
LAYER_1
 62
7
 10
27.388032
 20
13.908712
 42
0.090617
  0
VERTEX
  8
LAYER_1
 62
7
 10
27.387427
 20
14.593489
 42
0.119930
  0
VERTEX
  8
LAYER_1
 62
7
 10
27.122184
 20
15.194618
 42
0.144105
  0
VERTEX
  8
LAYER_1
 62
7
 10
26.559371
 20
15.592036
 42
0.127824
  0
VERTEX
  8
LAYER_1
 62
7
 10
25.782756
 20
15.650432
 42
-0.064003
  0
VERTEX
  8
LAYER_1
 62
7
 10
25.661004
 20
15.830446
 42
-0.042606
  0
VERTEX
  8
LAYER_1
 62
7
 10
25.580533
 20
16.031782
 42
-0.020971
  0
VERTEX
  8
LAYER_1
 62
7
 10
25.525522
 20
16.243938
  0
VERTEX
  8
LAYER_1
 62
7
 10
25.480149
 20
16.456413
 42
0.074953
  0
VERTEX
  8
LAYER_1
 62
7
 10
26.206660
 20
16.552236
 42
0.069395
  0
VERTEX
  8
LAYER_1
 62
7
 10
26.878250
 20
16.850553
 42
0.070015
  0
VERTEX
  8
LAYER_1
 62
7
 10
27.442545
 20
17.320724
 42
0.076541
  0
VERTEX
  8
LAYER_1
 62
7
 10
27.847173
 20
17.932105
 42
-0.005281
  0
VERTEX
  8
LAYER_1
 62
7
 10
27.857478
 20
16.227761
 42
0.002507
  0
VERTEX
  8
LAYER_1
 62
7
 10
27.858326
 20
14.523417
 42
-0.084848
  0
VERTEX
  8
LAYER_1
 62
7
 10
27.742802
 20
13.578207
 42
-0.046811
  0
VERTEX
  8
LAYER_1
 62
7
 10
27.562414
 20
13.129916
 42
-0.055185
  0
VERTEX
  8
LAYER_1
 62
7
 10
27.299996
 20
12.733955
  0
SEQEND
  0
POLYLINE
  8
LAYER_1
 62
7
 70
1
 66
1
  0
VERTEX
  8
LAYER_1
 62
7
 10
25.004417
 20
12.961889
 42
0.072904
  0
VERTEX
  8
LAYER_1
 62
7
 10
25.246920
 20
12.827832
 42
0.050916
  0
VERTEX
  8
LAYER_1
 62
7
 10
25.513247
 20
12.758333
 42
0.027868
  0
VERTEX
  8
LAYER_1
 62
7
 10
25.791394
 20
12.730843
  0
VERTEX
  8
LAYER_1
 62
7
 10
25.931149
 20
12.725804
  0
VERTEX
  8
LAYER_1
 62
7
 10
26.069359
 20
12.722811
 42
-0.130044
  0
VERTEX
  8
LAYER_1
 62
7
 10
25.429080
 20
12.290089
 42
-0.130044
  0
VERTEX
  8
LAYER_1
 62
7
 10
24.657924
 20
12.239865
  0
VERTEX
  8
LAYER_1
 62
7
 10
24.656710
 20
12.239804
 42
0.018889
  0
VERTEX
  8
LAYER_1
 62
7
 10
24.851840
 20
12.590845
 42
0.039720
  0
VERTEX
  8
LAYER_1
 62
7
 10
25.004417
 20
12.961889
  0
SEQEND
  0
POLYLINE
  8
LAYER_1
 62
7
 70
1
 66
1
  0
VERTEX
  8
LAYER_1
 62
7
 10
26.322866
 20
15.187464
 42
-0.133096
  0
VERTEX
  8
LAYER_1
 62
7
 10
26.699942
 20
15.018686
 42
-0.114844
  0
VERTEX
  8
LAYER_1
 62
7
 10
26.956849
 20
14.684840
 42
-0.225331
  0
VERTEX
  8
LAYER_1
 62
7
 10
26.939747
 20
13.775062
 42
-0.104381
  0
VERTEX
  8
LAYER_1
 62
7
 10
26.703735
 20
13.467723
 42
-0.107484
  0
VERTEX
  8
LAYER_1
 62
7
 10
26.317884
 20
13.264498
 42
-0.106171
  0
VERTEX
  8
LAYER_1
 62
7
 10
25.841243
 20
13.230628
 42
-0.088062
  0
VERTEX
  8
LAYER_1
 62
7
 10
25.408008
 20
13.374368
 42
-0.141521
  0
VERTEX
  8
LAYER_1
 62
7
 10
24.795015
 20
13.972893
 42
-0.083303
  0
VERTEX
  8
LAYER_1
 62
7
 10
24.603515
 20
14.531601
 42
-0.073382
  0
VERTEX
  8
LAYER_1
 62
7
 10
24.590745
 20
15.133300
 42
-0.077123
  0
VERTEX
  8
LAYER_1
 62
7
 10
24.752343
 20
15.705722
 42
-0.093979
  0
VERTEX
  8
LAYER_1
 62
7
 10
25.083948
 20
16.176599
 42
-0.004335
  0
VERTEX
  8
LAYER_1
 62
7
 10
25.243435
 20
15.826710
 42
0.044601
  0
VERTEX
  8
LAYER_1
 62
7
 10
25.430200
 20
15.491370
 42
0.144177
  0
VERTEX
  8
LAYER_1
 62
7
 10
25.110681
 20
14.927498
 42
0.193251
  0
VERTEX
  8
LAYER_1
 62
7
 10
25.204700
 20
14.295977
 42
0.123538
  0
VERTEX
  8
LAYER_1
 62
7
 10
25.437163
 20
14.099187
 42
0.103149
  0
VERTEX
  8
LAYER_1
 62
7
 10
25.743051
 20
14.015738
 42
0.133476
  0
VERTEX
  8
LAYER_1
 62
7
 10
26.039209
 20
14.072773
 42
0.182820
  0
VERTEX
  8
LAYER_1
 62
7
 10
26.242485
 20
14.297432
 42
0.094218
  0
VERTEX
  8
LAYER_1
 62
7
 10
26.287458
 20
14.453126
 42
0.110081
  0
VERTEX
  8
LAYER_1
 62
7
 10
26.269566
 20
14.586248
 42
0.185780
  0
VERTEX
  8
LAYER_1
 62
7
 10
26.097243
 20
14.771224
 42
0.137543
  0
VERTEX
  8
LAYER_1
 62
7
 10
25.829629
 20
14.825266
 42
0.163059
  0
VERTEX
  8
LAYER_1
 62
7
 10
25.570834
 20
14.721275
 42
-0.157326
  0
VERTEX
  8
LAYER_1
 62
7
 10
25.629437
 20
14.971397
 42
-0.139021
  0
VERTEX
  8
LAYER_1
 62
7
 10
25.805976
 20
15.125586
 42
-0.087831
  0
VERTEX
  8
LAYER_1
 62
7
 10
26.052952
 20
15.194167
 42
-0.064927
  0
VERTEX
  8
LAYER_1
 62
7
 10
26.322866
 20
15.187464
  0
SEQEND
  0
POLYLINE
  8
LAYER_1
 62
7
 70
1
 66
1
  0
VERTEX
  8
LAYER_1
 62
7
 10
20.567157
 20
16.511212
 42
-0.132654
  0
VERTEX
  8
LAYER_1
 62
7
 10
20.016258
 20
17.429701
 42
-0.075369
  0
VERTEX
  8
LAYER_1
 62
7
 10
19.948896
 20
17.962687
 42
-0.086947
  0
VERTEX
  8
LAYER_1
 62
7
 10
20.056023
 20
18.493673
 42
-0.095408
  0
VERTEX
  8
LAYER_1
 62
7
 10
20.265973
 20
18.884880
 42
-0.080804
  0
VERTEX
  8
LAYER_1
 62
7
 10
20.599618
 20
19.181715
 42
-0.151536
  0
VERTEX
  8
LAYER_1
 62
7
 10
21.455394
 20
19.419624
 42
-0.059167
  0
VERTEX
  8
LAYER_1
 62
7
 10
21.757390
 20
19.370304
 42
-0.078579
  0
VERTEX
  8
LAYER_1
 62
7
 10
22.048063
 20
19.238320
 42
-0.131786
  0
VERTEX
  8
LAYER_1
 62
7
 10
22.250508
 20
19.013812
 42
-0.163584
  0
VERTEX
  8
LAYER_1
 62
7
 10
22.287822
 20
18.686923
 42
-0.114069
  0
VERTEX
  8
LAYER_1
 62
7
 10
22.228098
 20
18.548957
 42
0.199588
  0
VERTEX
  8
LAYER_1
 62
7
 10
21.920725
 20
18.758257
 42
0.199588
  0
VERTEX
  8
LAYER_1
 62
7
 10
21.555381
 20
18.688913
 42
0.199588
  0
VERTEX
  8
LAYER_1
 62
7
 10
21.346081
 20
18.381540
 42
0.199588
  0
VERTEX
  8
LAYER_1
 62
7
 10
21.415425
 20
18.016196
 42
0.218341
  0
VERTEX
  8
LAYER_1
 62
7
 10
21.743152
 20
17.803109
 42
0.029699
  0
VERTEX
  8
LAYER_1
 62
7
 10
21.363340
 20
17.563470
 42
0.042028
  0
VERTEX
  8
LAYER_1
 62
7
 10
21.021491
 20
17.272457
 42
0.057114
  0
VERTEX
  8
LAYER_1
 62
7
 10
20.746473
 20
16.923795
 42
0.070993
  0
VERTEX
  8
LAYER_1
 62
7
 10
20.567157
 20
16.511212
  0
SEQEND
  0
POLYLINE
  8
LAYER_1
 62
7
 70
1
 66
1
  0
VERTEX
  8
LAYER_1
 62
7
 10
11.518057
 20
2.596159
 42
0.005681
  0
VERTEX
  8
LAYER_1
 62
7
 10
11.514685
 20
3.427880
 42
-0.009012
  0
VERTEX
  8
LAYER_1
 62
7
 10
11.516905
 20
4.263466
 42
-0.023935
  0
VERTEX
  8
LAYER_1
 62
7
 10
11.573772
 20
5.093687
 42
-0.038954
  0
VERTEX
  8
LAYER_1
 62
7
 10
11.734343
 20
5.909313
 42
-0.072084
  0
VERTEX
  8
LAYER_1
 62
7
 10
12.005483
 20
6.462734
 42
-0.085250
  0
VERTEX
  8
LAYER_1
 62
7
 10
12.434586
 20
6.912802
 42
-0.094704
  0
VERTEX
  8
LAYER_1
 62
7
 10
12.828958
 20
7.113310
 42
-0.077574
  0
VERTEX
  8
LAYER_1
 62
7
 10
13.286658
 20
7.174760
 42
-0.082943
  0
VERTEX
  8
LAYER_1
 62
7
 10
13.734286
 20
7.093258
 42
-0.110471
  0
VERTEX
  8
LAYER_1
 62
7
 10
14.098440
 20
6.864912
 42
-0.273168
  0
VERTEX
  8
LAYER_1
 62
7
 10
14.239510
 20
6.354073
 42
0.170667
  0
VERTEX
  8
LAYER_1
 62
7
 10
14.022341
 20
6.534967
 42
0.170667
  0
VERTEX
  8
LAYER_1
 62
7
 10
13.739724
 20
6.538419
 42
0.116792
  0
VERTEX
  8
LAYER_1
 62
7
 10
13.572664
 20
6.435789
 42
0.236528
  0
VERTEX
  8
LAYER_1
 62
7
 10
13.448831
 20
6.010356
 42
0.211154
  0
VERTEX
  8
LAYER_1
 62
7
 10
13.674737
 20
5.665762
 42
0.129181
  0
VERTEX
  8
LAYER_1
 62
7
 10
13.938911
 20
5.578282
 42
0.103962
  0
VERTEX
  8
LAYER_1
 62
7
 10
14.209388
 20
5.619149
 42
0.173713
  0
VERTEX
  8
LAYER_1
 62
7
 10
14.626098
 20
5.965475
 42
0.033657
  0
VERTEX
  8
LAYER_1
 62
7
 10
14.667784
 20
6.051888
 42
0.111083
  0
VERTEX
  8
LAYER_1
 62
7
 10
14.979362
 20
5.669629
 42
0.064650
  0
VERTEX
  8
LAYER_1
 62
7
 10
15.405872
 20
5.419033
 42
0.074671
  0
VERTEX
  8
LAYER_1
 62
7
 10
15.047320
 20
5.408654
 42
0.064207
  0
VERTEX
  8
LAYER_1
 62
7
 10
14.719430
 20
5.306561
 42
0.077834
  0
VERTEX
  8
LAYER_1
 62
7
 10
14.422467
 20
5.113138
 42
0.158394
  0
VERTEX
  8
LAYER_1
 62
7
 10
14.190856
 20
4.712087
 42
0.210195
  0
VERTEX
  8
LAYER_1
 62
7
 10
14.286921
 20
4.263038
 42
0.287593
  0
VERTEX
  8
LAYER_1
 62
7
 10
14.857926
 20
4.027009
 42
0.123801
  0
VERTEX
  8
LAYER_1
 62
7
 10
15.091790
 20
4.128121
 42
0.144015
  0
VERTEX
  8
LAYER_1
 62
7
 10
15.245387
 20
4.341664
 42
0.215495
  0
VERTEX
  8
LAYER_1
 62
7
 10
15.213833
 20
4.730894
 42
-0.294779
  0
VERTEX
  8
LAYER_1
 62
7
 10
15.665726
 20
4.426623
 42
-0.142040
  0
VERTEX
  8
LAYER_1
 62
7
 10
15.718057
 20
3.969857
 42
-0.092847
  0
VERTEX
  8
LAYER_1
 62
7
 10
15.554409
 20
3.527939
 42
-0.087055
  0
VERTEX
  8
LAYER_1
 62
7
 10
15.168490
 20
3.066587
 42
-0.075940
  0
VERTEX
  8
LAYER_1
 62
7
 10
14.677570
 20
2.770271
 42
-0.056766
  0
VERTEX
  8
LAYER_1
 62
7
 10
14.117891
 20
2.610940
 42
-0.040293
  0
VERTEX
  8
LAYER_1
 62
7
 10
13.525694
 20
2.560546
 42
-0.015466
  0
VERTEX
  8
LAYER_1
 62
7
 10
13.020884
 20
2.574301
  0
VERTEX
  8
LAYER_1
 62
7
 10
12.513295
 20
2.604626
 42
0.013755
  0
VERTEX
  8
LAYER_1
 62
7
 10
12.009996
 20
2.621815
 42
0.029637
  0
VERTEX
  8
LAYER_1
 62
7
 10
11.518057
 20
2.596159
  0
SEQEND
  0
POLYLINE
  8
LAYER_1
 62
7
 70
1
 66
1
  0
VERTEX
  8
LAYER_1
 62
7
 10
14.991761
 20
7.337164
 42
0.019641
  0
VERTEX
  8
LAYER_1
 62
7
 10
15.013571
 20
7.251055
 42
0.061634
  0
VERTEX
  8
LAYER_1
 62
7
 10
15.133658
 20
6.969802
 42
0.069401
  0
VERTEX
  8
LAYER_1
 62
7
 10
15.299735
 20
6.759203
 42
0.128492
  0
VERTEX
  8
LAYER_1
 62
7
 10
15.736156
 20
6.522234
 42
0.083961
  0
VERTEX
  8
LAYER_1
 62
7
 10
16.255416
 20
6.484689
 42
0.053915
  0
VERTEX
  8
LAYER_1
 62
7
 10
16.790096
 20
6.591111
 42
0.015099
  0
VERTEX
  8
LAYER_1
 62
7
 10
17.022508
 20
6.670721
  0
VERTEX
  8
LAYER_1
 62
7
 10
17.139071
 20
6.715779
  0
VERTEX
  8
LAYER_1
 62
7
 10
17.220027
 20
6.678955
  0
VERTEX
  8
LAYER_1
 62
7
 10
17.301626
 20
6.639499
 42
0.029699
  0
VERTEX
  8
LAYER_1
 62
7
 10
17.468046
 20
6.568537
 42
0.075712
  0
VERTEX
  8
LAYER_1
 62
7
 10
17.640922
 20
6.534584
 42
0.109602
  0
VERTEX
  8
LAYER_1
 62
7
 10
17.822845
 20
6.569325
 42
-0.019596
  0
VERTEX
  8
LAYER_1
 62
7
 10
17.764570
 20
6.470888
 42
-0.090603
  0
VERTEX
  8
LAYER_1
 62
7
 10
17.369740
 20
6.058886
 42
-0.073556
  0
VERTEX
  8
LAYER_1
 62
7
 10
16.843407
 20
5.782505
 42
-0.072383
  0
VERTEX
  8
LAYER_1
 62
7
 10
16.258469
 20
5.665781
 42
-0.087162
  0
VERTEX
  8
LAYER_1
 62
7
 10
15.687821
 20
5.732750
 42
-0.309353
  0
VERTEX
  8
LAYER_1
 62
7
 10
14.874924
 20
6.757546
 42
-0.136288
  0
VERTEX
  8
LAYER_1
 62
7
 10
14.985422
 20
7.338914
 42
-0.050710
  0
VERTEX
  8
LAYER_1
 62
7
 10
14.991761
 20
7.337164
  0
SEQEND
  0
POLYLINE
  8
LAYER_1
 62
7
 70
1
 66
1
  0
VERTEX
  8
LAYER_1
 62
7
 10
11.519511
 20
6.708020
 42
-0.002718
  0
VERTEX
  8
LAYER_1
 62
7
 10
11.520481
 20
12.596240
 42
0.100467
  0
VERTEX
  8
LAYER_1
 62
7
 10
12.200194
 20
11.950352
 42
0.094102
  0
VERTEX
  8
LAYER_1
 62
7
 10
13.073765
 20
11.608889
 42
0.016002
  0
VERTEX
  8
LAYER_1
 62
7
 10
12.966934
 20
11.538913
  0
VERTEX
  8
LAYER_1
 62
7
 10
12.888137
 20
11.480798
 42
0.069212
  0
VERTEX
  8
LAYER_1
 62
7
 10
12.468306
 20
11.046112
 42
0.059929
  0
VERTEX
  8
LAYER_1
 62
7
 10
12.162851
 20
10.503079
 42
0.058648
  0
VERTEX
  8
LAYER_1
 62
7
 10
11.990606
 20
9.899273
 42
0.065212
  0
VERTEX
  8
LAYER_1
 62
7
 10
11.970402
 20
9.282272
 42
0.094957
  0
VERTEX
  8
LAYER_1
 62
7
 10
12.159704
 20
8.633482
 42
0.066151
  0
VERTEX
  8
LAYER_1
 62
7
 10
12.349580
 20
8.363110
 42
0.084021
  0
VERTEX
  8
LAYER_1
 62
7
 10
12.606847
 20
8.164298
 42
0.154198
  0
VERTEX
  8
LAYER_1
 62
7
 10
13.200290
 20
8.064861
 42
0.085254
  0
VERTEX
  8
LAYER_1
 62
7
 10
13.490637
 20
8.155472
 42
0.104246
  0
VERTEX
  8
LAYER_1
 62
7
 10
13.725667
 20
8.345738
 42
0.129079
  0
VERTEX
  8
LAYER_1
 62
7
 10
13.851023
 20
8.615812
 42
0.155320
  0
VERTEX
  8
LAYER_1
 62
7
 10
13.804700
 20
8.927449
 42
0.286865
  0
VERTEX
  8
LAYER_1
 62
7
 10
13.318093
 20
9.239100
 42
0.199588
  0
VERTEX
  8
LAYER_1
 62
7
 10
12.926751
 20
9.084938
 42
0.199588
  0
VERTEX
  8
LAYER_1
 62
7
 10
12.759035
 20
8.699210
 42
-0.123060
  0
VERTEX
  8
LAYER_1
 62
7
 10
12.470423
 20
9.405929
 42
-0.098500
  0
VERTEX
  8
LAYER_1
 62
7
 10
12.511651
 20
10.177933
 42
-0.089679
  0
VERTEX
  8
LAYER_1
 62
7
 10
12.833572
 20
10.893744
 42
-0.102087
  0
VERTEX
  8
LAYER_1
 62
7
 10
13.387040
 20
11.431883
 42
0.158520
  0
VERTEX
  8
LAYER_1
 62
7
 10
13.355920
 20
11.072318
 42
0.147595
  0
VERTEX
  8
LAYER_1
 62
7
 10
13.523249
 20
10.788177
 42
0.307922
  0
VERTEX
  8
LAYER_1
 62
7
 10
14.175563
 20
10.687490
 42
0.054078
  0
VERTEX
  8
LAYER_1
 62
7
 10
14.014205
 20
10.339200
 42
0.069043
  0
VERTEX
  8
LAYER_1
 62
7
 10
13.939455
 20
9.957949
 42
0.101272
  0
VERTEX
  8
LAYER_1
 62
7
 10
13.992458
 20
9.587700
 42
0.129301
  0
VERTEX
  8
LAYER_1
 62
7
 10
14.214359
 20
9.272417
 42
0.166704
  0
VERTEX
  8
LAYER_1
 62
7
 10
14.780655
 20
9.193128
 42
0.162283
  0
VERTEX
  8
LAYER_1
 62
7
 10
15.280756
 20
9.471730
 42
0.168715
  0
VERTEX
  8
LAYER_1
 62
7
 10
15.498194
 20
9.144270
 42
0.134432
  0
VERTEX
  8
LAYER_1
 62
7
 10
15.858570
 20
8.997573
 42
0.147861
  0
VERTEX
  8
LAYER_1
 62
7
 10
16.233858
 20
9.057646
 42
0.188517
  0
VERTEX
  8
LAYER_1
 62
7
 10
16.496032
 20
9.350493
 42
0.093121
  0
VERTEX
  8
LAYER_1
 62
7
 10
16.544217
 20
9.571059
 42
0.107308
  0
VERTEX
  8
LAYER_1
 62
7
 10
16.508345
 20
9.756196
 42
0.185803
  0
VERTEX
  8
LAYER_1
 62
7
 10
16.256286
 20
10.002140
 42
0.145278
  0
VERTEX
  8
LAYER_1
 62
7
 10
15.883567
 20
10.052226
 42
0.168527
  0
VERTEX
  8
LAYER_1
 62
7
 10
15.533898
 20
9.870356
 42
-0.105686
  0
VERTEX
  8
LAYER_1
 62
7
 10
15.661954
 20
10.430022
 42
-0.096467
  0
VERTEX
  8
LAYER_1
 62
7
 10
15.993870
 20
10.888076
 42
-0.097550
  0
VERTEX
  8
LAYER_1
 62
7
 10
16.473088
 20
11.188372
 42
-0.107828
  0
VERTEX
  8
LAYER_1
 62
7
 10
17.043051
 20
11.274761
 42
0.079046
  0
VERTEX
  8
LAYER_1
 62
7
 10
16.941758
 20
10.786662
 42
0.129389
  0
VERTEX
  8
LAYER_1
 62
7
 10
17.043051
 20
10.304383
 42
0.124785
  0
VERTEX
  8
LAYER_1
 62
7
 10
17.232665
 20
10.044777
 42
0.095466
  0
VERTEX
  8
LAYER_1
 62
7
 10
17.513207
 20
9.893694
 42
0.127063
  0
VERTEX
  8
LAYER_1
 62
7
 10
18.157943
 20
9.864536
 42
-0.026246
  0
VERTEX
  8
LAYER_1
 62
7
 10
18.044784
 20
9.101481
 42
-0.043071
  0
VERTEX
  8
LAYER_1
 62
7
 10
17.825512
 20
8.350473
 42
-0.065881
  0
VERTEX
  8
LAYER_1
 62
7
 10
17.457847
 20
7.677572
 42
-0.089189
  0
VERTEX
  8
LAYER_1
 62
7
 10
16.899507
 20
7.148836
 42
-0.078539
  0
VERTEX
  8
LAYER_1
 62
7
 10
16.522317
 20
6.999973
 42
-0.080277
  0
VERTEX
  8
LAYER_1
 62
7
 10
16.089707
 20
6.967588
 42
-0.056406
  0
VERTEX
  8
LAYER_1
 62
7
 10
15.886675
 20
7.009537
 42
-0.075264
  0
VERTEX
  8
LAYER_1
 62
7
 10
15.710653
 20
7.097963
 42
-0.191599
  0
VERTEX
  8
LAYER_1
 62
7
 10
15.494132
 20
7.437380
 42
0.048857
  0
VERTEX
  8
LAYER_1
 62
7
 10
15.656415
 20
7.411647
 42
0.082487
  0
VERTEX
  8
LAYER_1
 62
7
 10
15.807468
 20
7.426832
 42
0.120839
  0
VERTEX
  8
LAYER_1
 62
7
 10
15.934608
 20
7.498210
 42
0.116698
  0
VERTEX
  8
LAYER_1
 62
7
 10
16.025149
 20
7.641057
 42
0.173173
  0
VERTEX
  8
LAYER_1
 62
7
 10
16.001795
 20
7.891153
 42
0.138547
  0
VERTEX
  8
LAYER_1
 62
7
 10
15.841960
 20
8.066961
 42
0.202546
  0
VERTEX
  8
LAYER_1
 62
7
 10
15.364167
 20
8.148796
 42
0.089803
  0
VERTEX
  8
LAYER_1
 62
7
 10
15.036169
 20
8.035546
 42
0.077863
  0
VERTEX
  8
LAYER_1
 62
7
 10
14.763136
 20
7.820730
 42
0.148642
  0
VERTEX
  8
LAYER_1
 62
7
 10
14.457802
 20
7.203150
 42
0.073688
  0
VERTEX
  8
LAYER_1
 62
7
 10
14.042491
 20
7.522527
 42
0.108179
  0
VERTEX
  8
LAYER_1
 62
7
 10
13.370540
 20
7.733030
 42
0.102524
  0
VERTEX
  8
LAYER_1
 62
7
 10
12.733393
 20
7.650686
 42
0.077376
  0
VERTEX
  8
LAYER_1
 62
7
 10
12.154039
 20
7.341859
 42
0.056867
  0
VERTEX
  8
LAYER_1
 62
7
 10
11.655468
 20
6.872915
 42
0.008389
  0
VERTEX
  8
LAYER_1
 62
7
 10
11.519511
 20
6.708020
  0
SEQEND
  0
POLYLINE
  8
LAYER_1
 62
7
 70
1
 66
1
  0
VERTEX
  8
LAYER_1
 62
7
 10
17.710908
 20
7.027877
 42
-0.100918
  0
VERTEX
  8
LAYER_1
 62
7
 10
17.655643
 20
7.080773
 42
-0.146141
  0
VERTEX
  8
LAYER_1
 62
7
 10
17.638882
 20
7.134933
 42
-0.110741
  0
VERTEX
  8
LAYER_1
 62
7
 10
17.652240
 20
7.189928
 42
-0.056170
  0
VERTEX
  8
LAYER_1
 62
7
 10
17.687333
 20
7.245332
 42
0.032262
  0
VERTEX
  8
LAYER_1
 62
7
 10
18.047453
 20
7.769758
 42
0.037942
  0
VERTEX
  8
LAYER_1
 62
7
 10
18.302057
 20
8.285601
 42
0.032990
  0
VERTEX
  8
LAYER_1
 62
7
 10
18.479957
 20
8.835297
 42
0.020597
  0
VERTEX
  8
LAYER_1
 62
7
 10
18.609969
 20
9.461283
 42
0.008185
  0
VERTEX
  8
LAYER_1
 62
7
 10
18.659378
 20
9.784035
 42
-0.052380
  0
VERTEX
  8
LAYER_1
 62
7
 10
18.868456
 20
9.429538
 42
-0.072516
  0
VERTEX
  8
LAYER_1
 62
7
 10
19.030414
 20
8.850980
 42
-0.068283
  0
VERTEX
  8
LAYER_1
 62
7
 10
19.030836
 20
8.205781
 42
-0.089096
  0
VERTEX
  8
LAYER_1
 62
7
 10
18.840369
 20
7.603044
 42
-0.128039
  0
VERTEX
  8
LAYER_1
 62
7
 10
18.429662
 20
7.151873
 42
-0.082444
  0
VERTEX
  8
LAYER_1
 62
7
 10
18.060061
 20
6.987949
 42
-0.079923
  0
VERTEX
  8
LAYER_1
 62
7
 10
17.873866
 20
6.972297
 42
-0.126965
  0
VERTEX
  8
LAYER_1
 62
7
 10
17.710908
 20
7.027877
  0
SEQEND
  0
POLYLINE
  8
LAYER_1
 62
7
 70
1
 66
1
  0
VERTEX
  8
LAYER_1
 62
7
 10
14.632868
 20
9.640491
 42
-0.209043
  0
VERTEX
  8
LAYER_1
 62
7
 10
14.443179
 20
9.737166
 42
-0.141649
  0
VERTEX
  8
LAYER_1
 62
7
 10
14.370576
 20
9.931959
 42
-0.076346
  0
VERTEX
  8
LAYER_1
 62
7
 10
14.380511
 20
10.145106
 42
-0.059960
  0
VERTEX
  8
LAYER_1
 62
7
 10
14.449831
 20
10.354445
 42
-0.079965
  0
VERTEX
  8
LAYER_1
 62
7
 10
14.720322
 20
10.741264
 42
-0.055941
  0
VERTEX
  8
LAYER_1
 62
7
 10
15.089435
 20
11.051552
 42
-0.061936
  0
VERTEX
  8
LAYER_1
 62
7
 10
15.464555
 20
11.244444
 42
-0.063007
  0
VERTEX
  8
LAYER_1
 62
7
 10
15.835050
 20
11.323740
  0
VERTEX
  8
LAYER_1
 62
7
 10
15.643068
 20
11.083136
 42
0.023642
  0
VERTEX
  8
LAYER_1
 62
7
 10
15.462912
 20
10.834218
 42
0.091598
  0
VERTEX
  8
LAYER_1
 62
7
 10
15.194900
 20
10.190688
 42
-0.041722
  0
VERTEX
  8
LAYER_1
 62
7
 10
15.128789
 20
9.974672
 42
-0.072202
  0
VERTEX
  8
LAYER_1
 62
7
 10
15.019119
 20
9.781808
 42
-0.127980
  0
VERTEX
  8
LAYER_1
 62
7
 10
14.856831
 20
9.655834
 42
-0.152853
  0
VERTEX
  8
LAYER_1
 62
7
 10
14.632868
 20
9.640491
  0
SEQEND
  0
POLYLINE
  8
LAYER_1
 62
7
 70
1
 66
1
  0
VERTEX
  8
LAYER_1
 62
7
 10
17.885403
 20
10.324266
 42
-0.193890
  0
VERTEX
  8
LAYER_1
 62
7
 10
17.589525
 20
10.501127
 42
-0.138476
  0
VERTEX
  8
LAYER_1
 62
7
 10
17.465682
 20
10.826973
 42
-0.122751
  0
VERTEX
  8
LAYER_1
 62
7
 10
17.514965
 20
11.182371
 42
-0.165706
  0
VERTEX
  8
LAYER_1
 62
7
 10
17.738464
 20
11.447886
 42
0.064673
  0
VERTEX
  8
LAYER_1
 62
7
 10
18.538262
 20
12.261445
 42
0.084491
  0
VERTEX
  8
LAYER_1
 62
7
 10
19.063823
 20
13.270315
 42
-0.056670
  0
VERTEX
  8
LAYER_1
 62
7
 10
19.149393
 20
12.796356
 42
-0.043715
  0
VERTEX
  8
LAYER_1
 62
7
 10
19.138444
 20
12.316668
 42
-0.030649
  0
VERTEX
  8
LAYER_1
 62
7
 10
19.056117
 20
11.840254
 42
-0.019166
  0
VERTEX
  8
LAYER_1
 62
7
 10
18.927553
 20
11.376114
 42
-0.017176
  0
VERTEX
  8
LAYER_1
 62
7
 10
18.775901
 20
11.001857
 42
-0.053454
  0
VERTEX
  8
LAYER_1
 62
7
 10
18.569056
 20
10.642148
 42
-0.112881
  0
VERTEX
  8
LAYER_1
 62
7
 10
18.280922
 20
10.386460
 42
-0.159035
  0
VERTEX
  8
LAYER_1
 62
7
 10
17.885403
 20
10.324266
  0
SEQEND
  0
POLYLINE
  8
LAYER_1
 62
7
 70
1
 66
1
  0
VERTEX
  8
LAYER_1
 62
7
 10
14.789359
 20
11.645257
 42
-0.018502
  0
VERTEX
  8
LAYER_1
 62
7
 10
14.967481
 20
11.605009
 42
0.026338
  0
VERTEX
  8
LAYER_1
 62
7
 10
14.746017
 20
11.495294
  0
VERTEX
  8
LAYER_1
 62
7
 10
14.528390
 20
11.370992
 42
-0.018992
  0
VERTEX
  8
LAYER_1
 62
7
 10
14.308432
 20
11.254193
 42
-0.043033
  0
VERTEX
  8
LAYER_1
 62
7
 10
14.079976
 20
11.166983
 42
-0.068695
  0
VERTEX
  8
LAYER_1
 62
7
 10
13.910036
 20
11.141241
 42
-0.079074
  0
VERTEX
  8
LAYER_1
 62
7
 10
13.833848
 20
11.153117
 42
-0.140936
  0
VERTEX
  8
LAYER_1
 62
7
 10
13.777340
 20
11.190924
 42
-0.114014
  0
VERTEX
  8
LAYER_1
 62
7
 10
13.735252
 20
11.271883
 42
-0.125238
  0
VERTEX
  8
LAYER_1
 62
7
 10
13.736569
 20
11.348228
 42
-0.200523
  0
VERTEX
  8
LAYER_1
 62
7
 10
13.904468
 20
11.559756
 42
-0.095090
  0
VERTEX
  8
LAYER_1
 62
7
 10
14.197480
 20
11.656285
 42
-0.077873
  0
VERTEX
  8
LAYER_1
 62
7
 10
14.789359
 20
11.645257
  0
SEQEND
  0
POLYLINE
  8
LAYER_1
 62
7
 70
1
 66
1
  0
VERTEX
  8
LAYER_1
 62
7
 10
16.235615
 20
11.925559
 42
-0.127454
  0
VERTEX
  8
LAYER_1
 62
7
 10
15.411752
 20
12.224589
 42
-0.082697
  0
VERTEX
  8
LAYER_1
 62
7
 10
15.100091
 20
12.528067
 42
-0.099646
  0
VERTEX
  8
LAYER_1
 62
7
 10
14.915591
 20
12.928428
 42
-0.160562
  0
VERTEX
  8
LAYER_1
 62
7
 10
14.886904
 20
13.218062
 42
-0.086943
  0
VERTEX
  8
LAYER_1
 62
7
 10
15.003245
 20
13.474599
 42
-0.005490
  0
VERTEX
  8
LAYER_1
 62
7
 10
15.129392
 20
13.660487
  0
VERTEX
  8
LAYER_1
 62
7
 10
15.171052
 20
13.723316
 42
0.079179
  0
VERTEX
  8
LAYER_1
 62
7
 10
15.296759
 20
13.989491
 42
0.082582
  0
VERTEX
  8
LAYER_1
 62
7
 10
15.440576
 20
14.648639
 42
0.072320
  0
VERTEX
  8
LAYER_1
 62
7
 10
15.377260
 20
15.325154
 42
0.068928
  0
VERTEX
  8
LAYER_1
 62
7
 10
15.128452
 20
15.960752
 42
0.073715
  0
VERTEX
  8
LAYER_1
 62
7
 10
14.715793
 20
16.497149
 42
0.110785
  0
VERTEX
  8
LAYER_1
 62
7
 10
15.437333
 20
16.840006
 42
0.097378
  0
VERTEX
  8
LAYER_1
 62
7
 10
15.963560
 20
17.444734
 42
-0.081462
  0
VERTEX
  8
LAYER_1
 62
7
 10
16.719175
 20
17.457055
 42
-0.080572
  0
VERTEX
  8
LAYER_1
 62
7
 10
17.460287
 20
17.227599
 42
-0.100233
  0
VERTEX
  8
LAYER_1
 62
7
 10
18.063098
 20
16.763733
 42
-0.126405
  0
VERTEX
  8
LAYER_1
 62
7
 10
18.403811
 20
16.072821
 42
0.131689
  0
VERTEX
  8
LAYER_1
 62
7
 10
17.622562
 20
16.464354
 42
0.135168
  0
VERTEX
  8
LAYER_1
 62
7
 10
16.751113
 20
16.414708
 42
0.213088
  0
VERTEX
  8
LAYER_1
 62
7
 10
16.164519
 20
15.849286
 42
0.090754
  0
VERTEX
  8
LAYER_1
 62
7
 10
16.115648
 20
15.575697
 42
0.080277
  0
VERTEX
  8
LAYER_1
 62
7
 10
16.160932
 20
15.290763
 42
0.091656
  0
VERTEX
  8
LAYER_1
 62
7
 10
16.295996
 20
15.040292
 42
0.118947
  0
VERTEX
  8
LAYER_1
 62
7
 10
16.516461
 20
14.870088
 42
0.029515
  0
VERTEX
  8
LAYER_1
 62
7
 10
16.587244
 20
14.843881
 42
0.194067
  0
VERTEX
  8
LAYER_1
 62
7
 10
17.041386
 20
14.897458
 42
0.116719
  0
VERTEX
  8
LAYER_1
 62
7
 10
17.216021
 20
15.050219
 42
0.147266
  0
VERTEX
  8
LAYER_1
 62
7
 10
17.290394
 20
15.276802
 42
0.170322
  0
VERTEX
  8
LAYER_1
 62
7
 10
17.197928
 20
15.554601
 42
0.162120
  0
VERTEX
  8
LAYER_1
 62
7
 10
16.937333
 20
15.732873
 42
-0.309565
  0
VERTEX
  8
LAYER_1
 62
7
 10
18.093344
 20
15.340561
 42
-0.079240
  0
VERTEX
  8
LAYER_1
 62
7
 10
18.326109
 20
14.935537
 42
-0.067294
  0
VERTEX
  8
LAYER_1
 62
7
 10
18.435763
 20
14.469899
 42
-0.076469
  0
VERTEX
  8
LAYER_1
 62
7
 10
18.405113
 20
13.909006
 42
-0.086020
  0
VERTEX
  8
LAYER_1
 62
7
 10
18.202442
 20
13.391586
 42
-0.110957
  0
VERTEX
  8
LAYER_1
 62
7
 10
17.827637
 20
13.000514
 42
-0.126890
  0
VERTEX
  8
LAYER_1
 62
7
 10
17.280581
 20
12.818666
 42
-0.171668
  0
VERTEX
  8
LAYER_1
 62
7
 10
16.734493
 20
12.970127
 42
-0.100969
  0
VERTEX
  8
LAYER_1
 62
7
 10
16.541175
 20
13.172641
 42
-0.122704
  0
VERTEX
  8
LAYER_1
 62
7
 10
16.454326
 20
13.441501
 42
0.188362
  0
VERTEX
  8
LAYER_1
 62
7
 10
16.774361
 20
13.406434
 42
0.150561
  0
VERTEX
  8
LAYER_1
 62
7
 10
17.034201
 20
13.572679
 42
0.157633
  0
VERTEX
  8
LAYER_1
 62
7
 10
17.154559
 20
13.850948
 42
0.199702
  0
VERTEX
  8
LAYER_1
 62
7
 10
17.056145
 20
14.151948
 42
0.182506
  0
VERTEX
  8
LAYER_1
 62
7
 10
16.638529
 20
14.367605
 42
0.158717
  0
VERTEX
  8
LAYER_1
 62
7
 10
16.176837
 20
14.279147
 42
0.072382
  0
VERTEX
  8
LAYER_1
 62
7
 10
16.051927
 20
14.183330
 42
0.150635
  0
VERTEX
  8
LAYER_1
 62
7
 10
15.810008
 20
13.723394
 42
0.120244
  0
VERTEX
  8
LAYER_1
 62
7
 10
15.843194
 20
13.224335
 42
0.096241
  0
VERTEX
  8
LAYER_1
 62
7
 10
16.082751
 20
12.774957
 42
0.105809
  0
VERTEX
  8
LAYER_1
 62
7
 10
16.459944
 20
12.464062
 42
0.140713
  0
VERTEX
  8
LAYER_1
 62
7
 10
17.306578
 20
12.314485
 42
0.053831
  0
VERTEX
  8
LAYER_1
 62
7
 10
17.632746
 20
12.383348
 42
-0.117417
  0
VERTEX
  8
LAYER_1
 62
7
 10
16.987464
 20
11.992057
 42
-0.115571
  0
VERTEX
  8
LAYER_1
 62
7
 10
16.235615
 20
11.925559
  0
SEQEND
  0
POLYLINE
  8
LAYER_1
 62
7
 70
1
 66
1
  0
VERTEX
  8
LAYER_1
 62
7
 10
12.070083
 20
12.733955
 42
-0.055185
  0
VERTEX
  8
LAYER_1
 62
7
 10
11.807665
 20
13.129916
 42
-0.046811
  0
VERTEX
  8
LAYER_1
 62
7
 10
11.627277
 20
13.578207
 42
-0.084848
  0
VERTEX
  8
LAYER_1
 62
7
 10
11.511752
 20
14.523417
 42
0.002507
  0
VERTEX
  8
LAYER_1
 62
7
 10
11.512601
 20
16.227761
 42
-0.005281
  0
VERTEX
  8
LAYER_1
 62
7
 10
11.522906
 20
17.932105
 42
0.076541
  0
VERTEX
  8
LAYER_1
 62
7
 10
11.927533
 20
17.320724
 42
0.070015
  0
VERTEX
  8
LAYER_1
 62
7
 10
12.491829
 20
16.850553
 42
0.069395
  0
VERTEX
  8
LAYER_1
 62
7
 10
13.163419
 20
16.552236
 42
0.074953
  0
VERTEX
  8
LAYER_1
 62
7
 10
13.889930
 20
16.456413
  0
VERTEX
  8
LAYER_1
 62
7
 10
13.844557
 20
16.243938
 42
-0.020971
  0
VERTEX
  8
LAYER_1
 62
7
 10
13.789546
 20
16.031782
 42
-0.042606
  0
VERTEX
  8
LAYER_1
 62
7
 10
13.709075
 20
15.830446
 42
-0.064003
  0
VERTEX
  8
LAYER_1
 62
7
 10
13.587323
 20
15.650432
 42
0.127824
  0
VERTEX
  8
LAYER_1
 62
7
 10
12.810708
 20
15.592036
 42
0.144105
  0
VERTEX
  8
LAYER_1
 62
7
 10
12.247895
 20
15.194618
 42
0.119930
  0
VERTEX
  8
LAYER_1
 62
7
 10
11.982652
 20
14.593489
 42
0.090617
  0
VERTEX
  8
LAYER_1
 62
7
 10
11.982047
 20
13.908712
 42
0.085402
  0
VERTEX
  8
LAYER_1
 62
7
 10
12.213144
 20
13.260350
 42
0.082260
  0
VERTEX
  8
LAYER_1
 62
7
 10
12.707892
 20
12.633435
 42
0.087325
  0
VERTEX
  8
LAYER_1
 62
7
 10
13.369582
 20
12.209252
 42
-0.029816
  0
VERTEX
  8
LAYER_1
 62
7
 10
13.426587
 20
12.182111
 42
-0.035370
  0
VERTEX
  8
LAYER_1
 62
7
 10
13.442632
 20
12.171563
 42
-0.080813
  0
VERTEX
  8
LAYER_1
 62
7
 10
13.451189
 20
12.162853
 42
-0.084203
  0
VERTEX
  8
LAYER_1
 62
7
 10
13.452851
 20
12.159146
 42
-0.121514
  0
VERTEX
  8
LAYER_1
 62
7
 10
13.452871
 20
12.155847
 42
-0.195997
  0
VERTEX
  8
LAYER_1
 62
7
 10
13.448290
 20
12.150413
 42
-0.074099
  0
VERTEX
  8
LAYER_1
 62
7
 10
13.438059
 20
12.146417
  0
VERTEX
  8
LAYER_1
 62
7
 10
13.422789
 20
12.143727
 42
-0.081491
  0
VERTEX
  8
LAYER_1
 62
7
 10
12.993732
 20
12.163052
 42
-0.067039
  0
VERTEX
  8
LAYER_1
 62
7
 10
12.617014
 20
12.297864
 42
-0.097578
  0
VERTEX
  8
LAYER_1
 62
7
 10
12.070083
 20
12.733955
  0
SEQEND
  0
POLYLINE
  8
LAYER_1
 62
7
 70
1
 66
1
  0
VERTEX
  8
LAYER_1
 62
7
 10
14.365662
 20
12.961889
 42
0.039720
  0
VERTEX
  8
LAYER_1
 62
7
 10
14.518238
 20
12.590845
 42
0.018889
  0
VERTEX
  8
LAYER_1
 62
7
 10
14.713369
 20
12.239804
  0
VERTEX
  8
LAYER_1
 62
7
 10
14.712155
 20
12.239865
 42
-0.130044
  0
VERTEX
  8
LAYER_1
 62
7
 10
13.940998
 20
12.290089
 42
-0.130044
  0
VERTEX
  8
LAYER_1
 62
7
 10
13.300720
 20
12.722811
  0
VERTEX
  8
LAYER_1
 62
7
 10
13.438929
 20
12.725804
 42
0.031247
  0
VERTEX
  8
LAYER_1
 62
7
 10
13.856832
 20
12.758333
 42
0.050916
  0
VERTEX
  8
LAYER_1
 62
7
 10
14.123159
 20
12.827832
 42
0.072904
  0
VERTEX
  8
LAYER_1
 62
7
 10
14.365662
 20
12.961889
  0
SEQEND
  0
POLYLINE
  8
LAYER_1
 62
7
 70
1
 66
1
  0
VERTEX
  8
LAYER_1
 62
7
 10
13.047212
 20
15.187464
 42
-0.064927
  0
VERTEX
  8
LAYER_1
 62
7
 10
13.317127
 20
15.194167
 42
-0.087831
  0
VERTEX
  8
LAYER_1
 62
7
 10
13.564103
 20
15.125586
 42
-0.139021
  0
VERTEX
  8
LAYER_1
 62
7
 10
13.740642
 20
14.971397
 42
-0.157326
  0
VERTEX
  8
LAYER_1
 62
7
 10
13.799245
 20
14.721275
 42
0.163059
  0
VERTEX
  8
LAYER_1
 62
7
 10
13.540450
 20
14.825266
 42
0.137543
  0
VERTEX
  8
LAYER_1
 62
7
 10
13.272835
 20
14.771224
 42
0.185780
  0
VERTEX
  8
LAYER_1
 62
7
 10
13.100513
 20
14.586248
 42
0.110081
  0
VERTEX
  8
LAYER_1
 62
7
 10
13.082621
 20
14.453126
 42
0.094218
  0
VERTEX
  8
LAYER_1
 62
7
 10
13.127594
 20
14.297432
 42
0.182820
  0
VERTEX
  8
LAYER_1
 62
7
 10
13.330870
 20
14.072773
 42
0.133476
  0
VERTEX
  8
LAYER_1
 62
7
 10
13.627028
 20
14.015738
 42
0.103149
  0
VERTEX
  8
LAYER_1
 62
7
 10
13.932916
 20
14.099187
 42
0.123538
  0
VERTEX
  8
LAYER_1
 62
7
 10
14.165379
 20
14.295977
 42
0.193251
  0
VERTEX
  8
LAYER_1
 62
7
 10
14.259398
 20
14.927498
 42
0.144177
  0
VERTEX
  8
LAYER_1
 62
7
 10
13.939879
 20
15.491370
 42
0.044601
  0
VERTEX
  8
LAYER_1
 62
7
 10
14.126644
 20
15.826710
 42
-0.004335
  0
VERTEX
  8
LAYER_1
 62
7
 10
14.286131
 20
16.176599
 42
-0.093979
  0
VERTEX
  8
LAYER_1
 62
7
 10
14.617736
 20
15.705722
 42
-0.077123
  0
VERTEX
  8
LAYER_1
 62
7
 10
14.779334
 20
15.133300
 42
-0.073382
  0
VERTEX
  8
LAYER_1
 62
7
 10
14.766564
 20
14.531601
 42
-0.083303
  0
VERTEX
  8
LAYER_1
 62
7
 10
14.575064
 20
13.972893
 42
-0.141521
  0
VERTEX
  8
LAYER_1
 62
7
 10
13.962070
 20
13.374368
 42
-0.088062
  0
VERTEX
  8
LAYER_1
 62
7
 10
13.528836
 20
13.230628
 42
-0.106171
  0
VERTEX
  8
LAYER_1
 62
7
 10
13.052195
 20
13.264498
 42
-0.107484
  0
VERTEX
  8
LAYER_1
 62
7
 10
12.666343
 20
13.467723
 42
-0.104381
  0
VERTEX
  8
LAYER_1
 62
7
 10
12.430332
 20
13.775062
 42
-0.225331
  0
VERTEX
  8
LAYER_1
 62
7
 10
12.413230
 20
14.684840
 42
-0.114844
  0
VERTEX
  8
LAYER_1
 62
7
 10
12.670137
 20
15.018686
 42
-0.133096
  0
VERTEX
  8
LAYER_1
 62
7
 10
13.047212
 20
15.187464
  0
SEQEND
  0
POLYLINE
  8
LAYER_1
 62
7
 70
1
 66
1
  0
VERTEX
  8
LAYER_1
 62
7
 10
18.802922
 20
16.511212
 42
0.070993
  0
VERTEX
  8
LAYER_1
 62
7
 10
18.623605
 20
16.923795
 42
0.057114
  0
VERTEX
  8
LAYER_1
 62
7
 10
18.348588
 20
17.272457
 42
0.042028
  0
VERTEX
  8
LAYER_1
 62
7
 10
18.006738
 20
17.563470
 42
0.029699
  0
VERTEX
  8
LAYER_1
 62
7
 10
17.626927
 20
17.803109
 42
0.218341
  0
VERTEX
  8
LAYER_1
 62
7
 10
17.954654
 20
18.016196
 42
0.199588
  0
VERTEX
  8
LAYER_1
 62
7
 10
18.023998
 20
18.381540
 42
0.199588
  0
VERTEX
  8
LAYER_1
 62
7
 10
17.814698
 20
18.688913
 42
0.199588
  0
VERTEX
  8
LAYER_1
 62
7
 10
17.449353
 20
18.758257
 42
0.199588
  0
VERTEX
  8
LAYER_1
 62
7
 10
17.141980
 20
18.548957
 42
-0.114069
  0
VERTEX
  8
LAYER_1
 62
7
 10
17.082257
 20
18.686923
 42
-0.163584
  0
VERTEX
  8
LAYER_1
 62
7
 10
17.119571
 20
19.013812
 42
-0.131786
  0
VERTEX
  8
LAYER_1
 62
7
 10
17.322016
 20
19.238320
 42
-0.078579
  0
VERTEX
  8
LAYER_1
 62
7
 10
17.612688
 20
19.370304
 42
-0.059167
  0
VERTEX
  8
LAYER_1
 62
7
 10
17.914685
 20
19.419624
 42
-0.151536
  0
VERTEX
  8
LAYER_1
 62
7
 10
18.770461
 20
19.181715
 42
-0.080804
  0
VERTEX
  8
LAYER_1
 62
7
 10
19.104106
 20
18.884880
 42
-0.095408
  0
VERTEX
  8
LAYER_1
 62
7
 10
19.314055
 20
18.493673
 42
-0.086947
  0
VERTEX
  8
LAYER_1
 62
7
 10
19.421183
 20
17.962687
 42
-0.075369
  0
VERTEX
  8
LAYER_1
 62
7
 10
19.353821
 20
17.429701
 42
-0.132654
  0
VERTEX
  8
LAYER_1
 62
7
 10
18.802922
 20
16.511212
  0
SEQEND
  0
POLYLINE
  8
LAYER_1
 62
7
 70
1
 66
1
  0
VERTEX
  8
LAYER_1
 62
7
 10
19.685039
 20
36.778707
 42
-0.001995
  0
VERTEX
  8
LAYER_1
 62
7
 10
24.090778
 20
36.764705
 42
0.062932
  0
VERTEX
  8
LAYER_1
 62
7
 10
23.759280
 20
36.559892
 42
0.051668
  0
VERTEX
  8
LAYER_1
 62
7
 10
23.467932
 20
36.271613
 42
0.096508
  0
VERTEX
  8
LAYER_1
 62
7
 10
23.069541
 20
35.540155
 42
0.058589
  0
VERTEX
  8
LAYER_1
 62
7
 10
22.994425
 20
35.144724
 42
0.073788
  0
VERTEX
  8
LAYER_1
 62
7
 10
23.023312
 20
34.761324
 42
0.190020
  0
VERTEX
  8
LAYER_1
 62
7
 10
23.456953
 20
34.126112
 42
0.101782
  0
VERTEX
  8
LAYER_1
 62
7
 10
22.571016
 20
34.108472
 42
0.085214
  0
VERTEX
  8
LAYER_1
 62
7
 10
21.749456
 20
33.771131
 42
0.065052
  0
VERTEX
  8
LAYER_1
 62
7
 10
21.438693
 20
34.465175
 42
0.048137
  0
VERTEX
  8
LAYER_1
 62
7
 10
20.983109
 20
35.065866
 42
0.030177
  0
VERTEX
  8
LAYER_1
 62
7
 10
20.433640
 20
35.594200
 42
0.014067
  0
VERTEX
  8
LAYER_1
 62
7
 10
19.841220
 20
36.071171
  0
VERTEX
  8
LAYER_1
 62
7
 10
19.685123
 20
36.191016
  0
VERTEX
  8
LAYER_1
 62
7
 10
19.541852
 20
36.081141
 42
0.013848
  0
VERTEX
  8
LAYER_1
 62
7
 10
18.945906
 20
35.602343
 42
0.030109
  0
VERTEX
  8
LAYER_1
 62
7
 10
18.392538
 20
35.071969
 42
0.048248
  0
VERTEX
  8
LAYER_1
 62
7
 10
17.933520
 20
34.468678
 42
0.065368
  0
VERTEX
  8
LAYER_1
 62
7
 10
17.620622
 20
33.771131
 42
0.085214
  0
VERTEX
  8
LAYER_1
 62
7
 10
16.799063
 20
34.108472
 42
0.101782
  0
VERTEX
  8
LAYER_1
 62
7
 10
15.913126
 20
34.126112
 42
0.190020
  0
VERTEX
  8
LAYER_1
 62
7
 10
16.346767
 20
34.761324
 42
0.073788
  0
VERTEX
  8
LAYER_1
 62
7
 10
16.375654
 20
35.144724
 42
0.058589
  0
VERTEX
  8
LAYER_1
 62
7
 10
16.300538
 20
35.540155
 42
0.096508
  0
VERTEX
  8
LAYER_1
 62
7
 10
15.902147
 20
36.271613
 42
0.051668
  0
VERTEX
  8
LAYER_1
 62
7
 10
15.610799
 20
36.559892
 42
0.062932
  0
VERTEX
  8
LAYER_1
 62
7
 10
15.279301
 20
36.764705
 42
-0.001995
  0
VERTEX
  8
LAYER_1
 62
7
 10
19.685039
 20
36.778707
  0
SEQEND
  0
POLYLINE
  8
LAYER_1
 62
7
 70
1
 66
1
  0
VERTEX
  8
LAYER_1
 62
7
 10
19.685043
 20
35.543621
  0
VERTEX
  8
LAYER_1
 62
7
 10
19.794929
 20
35.425358
  0
VERTEX
  8
LAYER_1
 62
7
 10
19.943406
 20
35.268587
 42
-0.005762
  0
VERTEX
  8
LAYER_1
 62
7
 10
20.394950
 20
34.793988
 42
-0.041594
  0
VERTEX
  8
LAYER_1
 62
7
 10
20.850421
 20
34.204308
 42
-0.043445
  0
VERTEX
  8
LAYER_1
 62
7
 10
21.034382
 20
33.855518
 42
-0.082981
  0
VERTEX
  8
LAYER_1
 62
7
 10
21.118774
 20
33.515333
 42
-0.068316
  0
VERTEX
  8
LAYER_1
 62
7
 10
21.095363
 20
33.265557
 42
-0.053848
  0
VERTEX
  8
LAYER_1
 62
7
 10
21.009128
 20
33.016486
 42
-0.051631
  0
VERTEX
  8
LAYER_1
 62
7
 10
20.874151
 20
32.791519
 42
-0.062025
  0
VERTEX
  8
LAYER_1
 62
7
 10
20.704516
 20
32.614056
 42
-0.060578
  0
VERTEX
  8
LAYER_1
 62
7
 10
20.543879
 20
32.513665
 42
0.027346
  0
VERTEX
  8
LAYER_1
 62
7
 10
20.425048
 20
32.947343
 42
0.036950
  0
VERTEX
  8
LAYER_1
 62
7
 10
20.247931
 20
33.373047
 42
0.052738
  0
VERTEX
  8
LAYER_1
 62
7
 10
20.004078
 20
33.752406
 42
0.074959
  0
VERTEX
  8
LAYER_1
 62
7
 10
19.685039
 20
34.047048
 42
0.074959
  0
VERTEX
  8
LAYER_1
 62
7
 10
19.366001
 20
33.752406
 42
0.052738
  0
VERTEX
  8
LAYER_1
 62
7
 10
19.122148
 20
33.373047
 42
0.036950
  0
VERTEX
  8
LAYER_1
 62
7
 10
18.945030
 20
32.947343
 42
0.027346
  0
VERTEX
  8
LAYER_1
 62
7
 10
18.826199
 20
32.513665
 42
-0.038575
  0
VERTEX
  8
LAYER_1
 62
7
 10
18.725297
 20
32.570343
 42
-0.168899
  0
VERTEX
  8
LAYER_1
 62
7
 10
18.307808
 20
33.124596
 42
-0.174723
  0
VERTEX
  8
LAYER_1
 62
7
 10
18.326208
 20
33.812851
 42
-0.046836
  0
VERTEX
  8
LAYER_1
 62
7
 10
18.475235
 20
34.131852
 42
-0.027617
  0
VERTEX
  8
LAYER_1
 62
7
 10
18.663760
 20
34.417478
 42
-0.030551
  0
VERTEX
  8
LAYER_1
 62
7
 10
19.105240
 20
34.934460
 42
0.001941
  0
VERTEX
  8
LAYER_1
 62
7
 10
19.574921
 20
35.425112
  0
VERTEX
  8
LAYER_1
 62
7
 10
19.685043
 20
35.543621
  0
SEQEND
  0
POLYLINE
  8
LAYER_1
 62
7
 70
1
 66
1
  0
VERTEX
  8
LAYER_1
 62
7
 10
19.685039
 20
33.181461
  0
VERTEX
  8
LAYER_1
 62
7
 10
19.689404
 20
33.187256
  0
VERTEX
  8
LAYER_1
 62
7
 10
19.864165
 20
32.858168
 42
-0.034688
  0
VERTEX
  8
LAYER_1
 62
7
 10
20.017505
 20
32.512759
 42
-0.075567
  0
VERTEX
  8
LAYER_1
 62
7
 10
20.090051
 20
32.155458
 42
-0.111963
  0
VERTEX
  8
LAYER_1
 62
7
 10
20.022432
 20
31.790690
 42
0.056968
  0
VERTEX
  8
LAYER_1
 62
7
 10
19.924095
 20
31.448681
 42
0.033411
  0
VERTEX
  8
LAYER_1
 62
7
 10
19.885432
 20
31.073392
 42
0.020143
  0
VERTEX
  8
LAYER_1
 62
7
 10
19.891543
 20
30.511693
  0
VERTEX
  8
LAYER_1
 62
7
 10
19.899753
 20
30.339333
  0
VERTEX
  8
LAYER_1
 62
7
 10
19.902780
 20
30.274667
 42
0.147151
  0
VERTEX
  8
LAYER_1
 62
7
 10
19.685039
 20
30.329645
 42
0.147151
  0
VERTEX
  8
LAYER_1
 62
7
 10
19.467298
 20
30.274667
  0
VERTEX
  8
LAYER_1
 62
7
 10
19.474396
 20
30.424005
 42
0.025088
  0
VERTEX
  8
LAYER_1
 62
7
 10
19.482580
 20
31.114637
 42
0.032777
  0
VERTEX
  8
LAYER_1
 62
7
 10
19.442599
 20
31.468052
 42
0.055446
  0
VERTEX
  8
LAYER_1
 62
7
 10
19.348510
 20
31.788685
 42
-0.112203
  0
VERTEX
  8
LAYER_1
 62
7
 10
19.279978
 20
32.153976
 42
-0.075823
  0
VERTEX
  8
LAYER_1
 62
7
 10
19.352239
 20
32.511798
 42
-0.034810
  0
VERTEX
  8
LAYER_1
 62
7
 10
19.505676
 20
32.857706
  0
VERTEX
  8
LAYER_1
 62
7
 10
19.680675
 20
33.187256
  0
VERTEX
  8
LAYER_1
 62
7
 10
19.685039
 20
33.181461
  0
SEQEND
  0
POLYLINE
  8
LAYER_1
 62
7
 70
1
 66
1
  0
VERTEX
  8
LAYER_1
 62
7
 10
19.685039
 20
29.728872
  0
VERTEX
  8
LAYER_1
 62
7
 10
19.699103
 20
29.735892
 42
-0.138121
  0
VERTEX
  8
LAYER_1
 62
7
 10
20.027268
 20
29.341956
 42
-0.119750
  0
VERTEX
  8
LAYER_1
 62
7
 10
20.107610
 20
28.865231
 42
-0.092854
  0
VERTEX
  8
LAYER_1
 62
7
 10
19.981637
 20
28.379141
 42
-0.085753
  0
VERTEX
  8
LAYER_1
 62
7
 10
19.690859
 20
27.957108
  0
VERTEX
  8
LAYER_1
 62
7
 10
19.685039
 20
27.961684
  0
VERTEX
  8
LAYER_1
 62
7
 10
19.679220
 20
27.957108
 42
-0.085753
  0
VERTEX
  8
LAYER_1
 62
7
 10
19.388442
 20
28.379141
 42
-0.092854
  0
VERTEX
  8
LAYER_1
 62
7
 10
19.262469
 20
28.865231
 42
-0.119750
  0
VERTEX
  8
LAYER_1
 62
7
 10
19.342811
 20
29.341956
 42
-0.138121
  0
VERTEX
  8
LAYER_1
 62
7
 10
19.670976
 20
29.735892
  0
VERTEX
  8
LAYER_1
 62
7
 10
19.685039
 20
29.728872
  0
SEQEND
  0
POLYLINE
  8
LAYER_1
 62
7
 70
1
 66
1
  0
VERTEX
  8
LAYER_1
 62
7
 10
19.685039
 20
26.093237
  0
VERTEX
  8
LAYER_1
 62
7
 10
19.695223
 20
26.112372
 42
0.034357
  0
VERTEX
  8
LAYER_1
 62
7
 10
19.872605
 20
25.640582
 42
0.008153
  0
VERTEX
  8
LAYER_1
 62
7
 10
20.091814
 20
25.179842
 42
-0.010100
  0
VERTEX
  8
LAYER_1
 62
7
 10
20.245529
 20
24.849038
 42
-0.020698
  0
VERTEX
  8
LAYER_1
 62
7
 10
20.365910
 20
24.542667
 42
-0.034134
  0
VERTEX
  8
LAYER_1
 62
7
 10
20.444235
 20
24.254788
 42
-0.048717
  0
VERTEX
  8
LAYER_1
 62
7
 10
20.471783
 20
23.979461
 42
-0.120221
  0
VERTEX
  8
LAYER_1
 62
7
 10
20.339657
 20
23.442698
 42
-0.049009
  0
VERTEX
  8
LAYER_1
 62
7
 10
20.162541
 20
23.169380
 42
-0.036555
  0
VERTEX
  8
LAYER_1
 62
7
 10
19.899760
 20
22.884850
 42
-0.037440
  0
VERTEX
  8
LAYER_1
 62
7
 10
19.685039
 20
22.724519
 42
-0.037440
  0
VERTEX
  8
LAYER_1
 62
7
 10
19.470319
 20
22.884850
 42
-0.036555
  0
VERTEX
  8
LAYER_1
 62
7
 10
19.207538
 20
23.169380
 42
-0.049009
  0
VERTEX
  8
LAYER_1
 62
7
 10
19.030421
 20
23.442698
 42
-0.120221
  0
VERTEX
  8
LAYER_1
 62
7
 10
18.898296
 20
23.979461
 42
-0.048717
  0
VERTEX
  8
LAYER_1
 62
7
 10
18.925844
 20
24.254788
 42
-0.034134
  0
VERTEX
  8
LAYER_1
 62
7
 10
19.004169
 20
24.542667
 42
-0.020698
  0
VERTEX
  8
LAYER_1
 62
7
 10
19.124550
 20
24.849038
 42
-0.010100
  0
VERTEX
  8
LAYER_1
 62
7
 10
19.278265
 20
25.179842
 42
0.008153
  0
VERTEX
  8
LAYER_1
 62
7
 10
19.497474
 20
25.640582
 42
0.034357
  0
VERTEX
  8
LAYER_1
 62
7
 10
19.674855
 20
26.112372
  0
VERTEX
  8
LAYER_1
 62
7
 10
19.685039
 20
26.093237
  0
SEQEND
  0
POLYLINE
  8
LAYER_1
 62
7
 70
1
 66
1
  0
VERTEX
  8
LAYER_1
 62
7
 10
27.852022
 20
36.773919
 42
0.005681
  0
VERTEX
  8
LAYER_1
 62
7
 10
27.855394
 20
35.942198
 42
-0.009012
  0
VERTEX
  8
LAYER_1
 62
7
 10
27.853174
 20
35.106613
 42
-0.023935
  0
VERTEX
  8
LAYER_1
 62
7
 10
27.796306
 20
34.276392
 42
-0.038954
  0
VERTEX
  8
LAYER_1
 62
7
 10
27.635736
 20
33.460765
 42
-0.072084
  0
VERTEX
  8
LAYER_1
 62
7
 10
27.364596
 20
32.907345
 42
-0.085250
  0
VERTEX
  8
LAYER_1
 62
7
 10
26.935493
 20
32.457277
 42
-0.094704
  0
VERTEX
  8
LAYER_1
 62
7
 10
26.541120
 20
32.256768
 42
-0.077574
  0
VERTEX
  8
LAYER_1
 62
7
 10
26.083420
 20
32.195319
 42
-0.082943
  0
VERTEX
  8
LAYER_1
 62
7
 10
25.635793
 20
32.276821
 42
-0.110471
  0
VERTEX
  8
LAYER_1
 62
7
 10
25.271639
 20
32.505167
 42
-0.273168
  0
VERTEX
  8
LAYER_1
 62
7
 10
25.130569
 20
33.016006
 42
0.170667
  0
VERTEX
  8
LAYER_1
 62
7
 10
25.347738
 20
32.835112
 42
0.170667
  0
VERTEX
  8
LAYER_1
 62
7
 10
25.630355
 20
32.831660
 42
0.116792
  0
VERTEX
  8
LAYER_1
 62
7
 10
25.797415
 20
32.934290
 42
0.236528
  0
VERTEX
  8
LAYER_1
 62
7
 10
25.921247
 20
33.359723
 42
0.211154
  0
VERTEX
  8
LAYER_1
 62
7
 10
25.695342
 20
33.704317
 42
0.129181
  0
VERTEX
  8
LAYER_1
 62
7
 10
25.431167
 20
33.791797
 42
0.103962
  0
VERTEX
  8
LAYER_1
 62
7
 10
25.160691
 20
33.750930
 42
0.173713
  0
VERTEX
  8
LAYER_1
 62
7
 10
24.743981
 20
33.404604
 42
0.033657
  0
VERTEX
  8
LAYER_1
 62
7
 10
24.702295
 20
33.318191
 42
0.111083
  0
VERTEX
  8
LAYER_1
 62
7
 10
24.390717
 20
33.700450
 42
0.064650
  0
VERTEX
  8
LAYER_1
 62
7
 10
23.964207
 20
33.951046
 42
0.074671
  0
VERTEX
  8
LAYER_1
 62
7
 10
24.322759
 20
33.961425
 42
0.064207
  0
VERTEX
  8
LAYER_1
 62
7
 10
24.650649
 20
34.063518
 42
0.077834
  0
VERTEX
  8
LAYER_1
 62
7
 10
24.947611
 20
34.256941
 42
0.158394
  0
VERTEX
  8
LAYER_1
 62
7
 10
25.179222
 20
34.657992
 42
0.210195
  0
VERTEX
  8
LAYER_1
 62
7
 10
25.083157
 20
35.107041
 42
0.287593
  0
VERTEX
  8
LAYER_1
 62
7
 10
24.512152
 20
35.343069
 42
0.123801
  0
VERTEX
  8
LAYER_1
 62
7
 10
24.278289
 20
35.241958
 42
0.144015
  0
VERTEX
  8
LAYER_1
 62
7
 10
24.124692
 20
35.028415
 42
0.215495
  0
VERTEX
  8
LAYER_1
 62
7
 10
24.156245
 20
34.639185
 42
-0.294779
  0
VERTEX
  8
LAYER_1
 62
7
 10
23.704353
 20
34.943456
 42
-0.142040
  0
VERTEX
  8
LAYER_1
 62
7
 10
23.652021
 20
35.400222
 42
-0.092847
  0
VERTEX
  8
LAYER_1
 62
7
 10
23.815670
 20
35.842140
 42
-0.087055
  0
VERTEX
  8
LAYER_1
 62
7
 10
24.201589
 20
36.303491
 42
-0.075940
  0
VERTEX
  8
LAYER_1
 62
7
 10
24.692508
 20
36.599808
 42
-0.056766
  0
VERTEX
  8
LAYER_1
 62
7
 10
25.252187
 20
36.759139
 42
-0.040293
  0
VERTEX
  8
LAYER_1
 62
7
 10
25.844385
 20
36.809533
 42
-0.015466
  0
VERTEX
  8
LAYER_1
 62
7
 10
26.349194
 20
36.795778
  0
VERTEX
  8
LAYER_1
 62
7
 10
26.856783
 20
36.765453
 42
0.013755
  0
VERTEX
  8
LAYER_1
 62
7
 10
27.360082
 20
36.748264
 42
0.029637
  0
VERTEX
  8
LAYER_1
 62
7
 10
27.852022
 20
36.773919
  0
SEQEND
  0
POLYLINE
  8
LAYER_1
 62
7
 70
1
 66
1
  0
VERTEX
  8
LAYER_1
 62
7
 10
24.378318
 20
32.032915
 42
0.019641
  0
VERTEX
  8
LAYER_1
 62
7
 10
24.356508
 20
32.119024
 42
0.061634
  0
VERTEX
  8
LAYER_1
 62
7
 10
24.236421
 20
32.400276
 42
0.069401
  0
VERTEX
  8
LAYER_1
 62
7
 10
24.070343
 20
32.610876
 42
0.128492
  0
VERTEX
  8
LAYER_1
 62
7
 10
23.633922
 20
32.847845
 42
0.083961
  0
VERTEX
  8
LAYER_1
 62
7
 10
23.114663
 20
32.885390
 42
0.053915
  0
VERTEX
  8
LAYER_1
 62
7
 10
22.579983
 20
32.778967
 42
0.015099
  0
VERTEX
  8
LAYER_1
 62
7
 10
22.347571
 20
32.699357
  0
VERTEX
  8
LAYER_1
 62
7
 10
22.231008
 20
32.654299
  0
VERTEX
  8
LAYER_1
 62
7
 10
22.150051
 20
32.691124
  0
VERTEX
  8
LAYER_1
 62
7
 10
22.068453
 20
32.730580
 42
0.029699
  0
VERTEX
  8
LAYER_1
 62
7
 10
21.902033
 20
32.801541
 42
0.075712
  0
VERTEX
  8
LAYER_1
 62
7
 10
21.729157
 20
32.835495
 42
0.109602
  0
VERTEX
  8
LAYER_1
 62
7
 10
21.547234
 20
32.800753
 42
-0.019596
  0
VERTEX
  8
LAYER_1
 62
7
 10
21.605509
 20
32.899191
 42
-0.090603
  0
VERTEX
  8
LAYER_1
 62
7
 10
22.000339
 20
33.311192
 42
-0.073556
  0
VERTEX
  8
LAYER_1
 62
7
 10
22.526671
 20
33.587574
 42
-0.072383
  0
VERTEX
  8
LAYER_1
 62
7
 10
23.111610
 20
33.704298
 42
-0.087162
  0
VERTEX
  8
LAYER_1
 62
7
 10
23.682257
 20
33.637329
 42
-0.309353
  0
VERTEX
  8
LAYER_1
 62
7
 10
24.495155
 20
32.612533
 42
-0.136288
  0
VERTEX
  8
LAYER_1
 62
7
 10
24.384657
 20
32.031165
 42
-0.050710
  0
VERTEX
  8
LAYER_1
 62
7
 10
24.378318
 20
32.032915
  0
SEQEND
  0
POLYLINE
  8
LAYER_1
 62
7
 70
1
 66
1
  0
VERTEX
  8
LAYER_1
 62
7
 10
27.850567
 20
32.662059
 42
-0.002718
  0
VERTEX
  8
LAYER_1
 62
7
 10
27.849597
 20
26.773839
 42
0.100467
  0
VERTEX
  8
LAYER_1
 62
7
 10
27.169884
 20
27.419727
 42
0.094102
  0
VERTEX
  8
LAYER_1
 62
7
 10
26.296314
 20
27.761190
 42
0.016002
  0
VERTEX
  8
LAYER_1
 62
7
 10
26.403145
 20
27.831166
  0
VERTEX
  8
LAYER_1
 62
7
 10
26.481941
 20
27.889281
 42
0.069212
  0
VERTEX
  8
LAYER_1
 62
7
 10
26.901773
 20
28.323966
 42
0.059929
  0
VERTEX
  8
LAYER_1
 62
7
 10
27.207227
 20
28.867000
 42
0.058648
  0
VERTEX
  8
LAYER_1
 62
7
 10
27.379473
 20
29.470806
 42
0.065212
  0
VERTEX
  8
LAYER_1
 62
7
 10
27.399677
 20
30.087807
 42
0.094957
  0
VERTEX
  8
LAYER_1
 62
7
 10
27.210375
 20
30.736597
 42
0.066151
  0
VERTEX
  8
LAYER_1
 62
7
 10
27.020499
 20
31.006968
 42
0.084021
  0
VERTEX
  8
LAYER_1
 62
7
 10
26.763232
 20
31.205781
 42
0.154198
  0
VERTEX
  8
LAYER_1
 62
7
 10
26.169789
 20
31.305218
 42
0.085254
  0
VERTEX
  8
LAYER_1
 62
7
 10
25.879442
 20
31.214607
 42
0.104246
  0
VERTEX
  8
LAYER_1
 62
7
 10
25.644412
 20
31.024341
 42
0.129079
  0
VERTEX
  8
LAYER_1
 62
7
 10
25.519055
 20
30.754267
 42
0.155320
  0
VERTEX
  8
LAYER_1
 62
7
 10
25.565378
 20
30.442629
 42
0.286865
  0
VERTEX
  8
LAYER_1
 62
7
 10
26.051985
 20
30.130978
 42
0.199588
  0
VERTEX
  8
LAYER_1
 62
7
 10
26.443328
 20
30.285140
 42
0.199588
  0
VERTEX
  8
LAYER_1
 62
7
 10
26.611044
 20
30.670869
 42
-0.123060
  0
VERTEX
  8
LAYER_1
 62
7
 10
26.899656
 20
29.964150
 42
-0.098500
  0
VERTEX
  8
LAYER_1
 62
7
 10
26.858428
 20
29.192146
 42
-0.089679
  0
VERTEX
  8
LAYER_1
 62
7
 10
26.536506
 20
28.476334
 42
-0.102087
  0
VERTEX
  8
LAYER_1
 62
7
 10
25.983039
 20
27.938195
 42
0.158520
  0
VERTEX
  8
LAYER_1
 62
7
 10
26.014159
 20
28.297761
 42
0.147595
  0
VERTEX
  8
LAYER_1
 62
7
 10
25.846829
 20
28.581901
 42
0.307922
  0
VERTEX
  8
LAYER_1
 62
7
 10
25.194516
 20
28.682588
 42
0.054078
  0
VERTEX
  8
LAYER_1
 62
7
 10
25.355874
 20
29.030878
 42
0.069043
  0
VERTEX
  8
LAYER_1
 62
7
 10
25.430624
 20
29.412130
 42
0.101272
  0
VERTEX
  8
LAYER_1
 62
7
 10
25.377621
 20
29.782379
 42
0.129301
  0
VERTEX
  8
LAYER_1
 62
7
 10
25.155720
 20
30.097662
 42
0.166704
  0
VERTEX
  8
LAYER_1
 62
7
 10
24.589424
 20
30.176951
 42
0.162283
  0
VERTEX
  8
LAYER_1
 62
7
 10
24.089323
 20
29.898349
 42
0.168715
  0
VERTEX
  8
LAYER_1
 62
7
 10
23.871885
 20
30.225809
 42
0.134432
  0
VERTEX
  8
LAYER_1
 62
7
 10
23.511509
 20
30.372505
 42
0.147861
  0
VERTEX
  8
LAYER_1
 62
7
 10
23.136221
 20
30.312433
 42
0.188517
  0
VERTEX
  8
LAYER_1
 62
7
 10
22.874047
 20
30.019586
 42
0.093121
  0
VERTEX
  8
LAYER_1
 62
7
 10
22.825862
 20
29.799020
 42
0.107308
  0
VERTEX
  8
LAYER_1
 62
7
 10
22.861734
 20
29.613882
 42
0.185803
  0
VERTEX
  8
LAYER_1
 62
7
 10
23.113792
 20
29.367939
 42
0.145278
  0
VERTEX
  8
LAYER_1
 62
7
 10
23.486512
 20
29.317853
 42
0.168527
  0
VERTEX
  8
LAYER_1
 62
7
 10
23.836181
 20
29.499723
 42
-0.105686
  0
VERTEX
  8
LAYER_1
 62
7
 10
23.708125
 20
28.940057
 42
-0.096467
  0
VERTEX
  8
LAYER_1
 62
7
 10
23.376209
 20
28.482002
 42
-0.097550
  0
VERTEX
  8
LAYER_1
 62
7
 10
22.896991
 20
28.181707
 42
-0.107828
  0
VERTEX
  8
LAYER_1
 62
7
 10
22.327027
 20
28.095318
 42
0.079046
  0
VERTEX
  8
LAYER_1
 62
7
 10
22.428321
 20
28.583417
 42
0.129389
  0
VERTEX
  8
LAYER_1
 62
7
 10
22.327027
 20
29.065696
 42
0.124785
  0
VERTEX
  8
LAYER_1
 62
7
 10
22.137413
 20
29.325301
 42
0.095466
  0
VERTEX
  8
LAYER_1
 62
7
 10
21.856872
 20
29.476385
 42
0.127063
  0
VERTEX
  8
LAYER_1
 62
7
 10
21.212136
 20
29.505542
 42
-0.026246
  0
VERTEX
  8
LAYER_1
 62
7
 10
21.325295
 20
30.268598
 42
-0.043071
  0
VERTEX
  8
LAYER_1
 62
7
 10
21.544566
 20
31.019606
 42
-0.065881
  0
VERTEX
  8
LAYER_1
 62
7
 10
21.912232
 20
31.692507
 42
-0.089189
  0
VERTEX
  8
LAYER_1
 62
7
 10
22.470572
 20
32.221242
 42
-0.078539
  0
VERTEX
  8
LAYER_1
 62
7
 10
22.847761
 20
32.370106
 42
-0.080277
  0
VERTEX
  8
LAYER_1
 62
7
 10
23.280372
 20
32.402491
 42
-0.056406
  0
VERTEX
  8
LAYER_1
 62
7
 10
23.483404
 20
32.360541
 42
-0.075264
  0
VERTEX
  8
LAYER_1
 62
7
 10
23.659425
 20
32.272116
 42
-0.191599
  0
VERTEX
  8
LAYER_1
 62
7
 10
23.875946
 20
31.932699
 42
0.048857
  0
VERTEX
  8
LAYER_1
 62
7
 10
23.713664
 20
31.958432
 42
0.082487
  0
VERTEX
  8
LAYER_1
 62
7
 10
23.562610
 20
31.943247
 42
0.120839
  0
VERTEX
  8
LAYER_1
 62
7
 10
23.435471
 20
31.871869
 42
0.116698
  0
VERTEX
  8
LAYER_1
 62
7
 10
23.344930
 20
31.729022
 42
0.173173
  0
VERTEX
  8
LAYER_1
 62
7
 10
23.368283
 20
31.478926
 42
0.138547
  0
VERTEX
  8
LAYER_1
 62
7
 10
23.528119
 20
31.303118
 42
0.202546
  0
VERTEX
  8
LAYER_1
 62
7
 10
24.005912
 20
31.221283
 42
0.089803
  0
VERTEX
  8
LAYER_1
 62
7
 10
24.333910
 20
31.334533
 42
0.077863
  0
VERTEX
  8
LAYER_1
 62
7
 10
24.606943
 20
31.549349
 42
0.148642
  0
VERTEX
  8
LAYER_1
 62
7
 10
24.912277
 20
32.166928
 42
0.073688
  0
VERTEX
  8
LAYER_1
 62
7
 10
25.327587
 20
31.847552
 42
0.108179
  0
VERTEX
  8
LAYER_1
 62
7
 10
25.999538
 20
31.637048
 42
0.102524
  0
VERTEX
  8
LAYER_1
 62
7
 10
26.636686
 20
31.719393
 42
0.077376
  0
VERTEX
  8
LAYER_1
 62
7
 10
27.216040
 20
32.028220
 42
0.056867
  0
VERTEX
  8
LAYER_1
 62
7
 10
27.714610
 20
32.497164
 42
0.008389
  0
VERTEX
  8
LAYER_1
 62
7
 10
27.850567
 20
32.662059
  0
SEQEND
  0
POLYLINE
  8
LAYER_1
 62
7
 70
1
 66
1
  0
VERTEX
  8
LAYER_1
 62
7
 10
21.659170
 20
32.342201
 42
-0.100918
  0
VERTEX
  8
LAYER_1
 62
7
 10
21.714436
 20
32.289306
 42
-0.146141
  0
VERTEX
  8
LAYER_1
 62
7
 10
21.731197
 20
32.235146
 42
-0.110741
  0
VERTEX
  8
LAYER_1
 62
7
 10
21.717839
 20
32.180150
 42
-0.056170
  0
VERTEX
  8
LAYER_1
 62
7
 10
21.682746
 20
32.124747
 42
0.032262
  0
VERTEX
  8
LAYER_1
 62
7
 10
21.322626
 20
31.600321
 42
0.037942
  0
VERTEX
  8
LAYER_1
 62
7
 10
21.068022
 20
31.084478
 42
0.032990
  0
VERTEX
  8
LAYER_1
 62
7
 10
20.890121
 20
30.534782
 42
0.020597
  0
VERTEX
  8
LAYER_1
 62
7
 10
20.760110
 20
29.908795
 42
0.008185
  0
VERTEX
  8
LAYER_1
 62
7
 10
20.710701
 20
29.586043
 42
-0.052380
  0
VERTEX
  8
LAYER_1
 62
7
 10
20.501623
 20
29.940540
 42
-0.072516
  0
VERTEX
  8
LAYER_1
 62
7
 10
20.339665
 20
30.519099
 42
-0.068283
  0
VERTEX
  8
LAYER_1
 62
7
 10
20.339243
 20
31.164298
 42
-0.089096
  0
VERTEX
  8
LAYER_1
 62
7
 10
20.529709
 20
31.767035
 42
-0.128039
  0
VERTEX
  8
LAYER_1
 62
7
 10
20.940417
 20
32.218206
 42
-0.082444
  0
VERTEX
  8
LAYER_1
 62
7
 10
21.310018
 20
32.382130
 42
-0.079923
  0
VERTEX
  8
LAYER_1
 62
7
 10
21.496213
 20
32.397782
 42
-0.126965
  0
VERTEX
  8
LAYER_1
 62
7
 10
21.659170
 20
32.342201
  0
SEQEND
  0
POLYLINE
  8
LAYER_1
 62
7
 70
1
 66
1
  0
VERTEX
  8
LAYER_1
 62
7
 10
24.737211
 20
29.729588
 42
-0.209043
  0
VERTEX
  8
LAYER_1
 62
7
 10
24.926900
 20
29.632913
 42
-0.141649
  0
VERTEX
  8
LAYER_1
 62
7
 10
24.999502
 20
29.438120
 42
-0.076346
  0
VERTEX
  8
LAYER_1
 62
7
 10
24.989568
 20
29.224973
 42
-0.059960
  0
VERTEX
  8
LAYER_1
 62
7
 10
24.920248
 20
29.015634
 42
-0.079965
  0
VERTEX
  8
LAYER_1
 62
7
 10
24.649757
 20
28.628815
 42
-0.055941
  0
VERTEX
  8
LAYER_1
 62
7
 10
24.280644
 20
28.318527
 42
-0.061936
  0
VERTEX
  8
LAYER_1
 62
7
 10
23.905524
 20
28.125634
 42
-0.063007
  0
VERTEX
  8
LAYER_1
 62
7
 10
23.535029
 20
28.046339
  0
VERTEX
  8
LAYER_1
 62
7
 10
23.727010
 20
28.286943
 42
0.023642
  0
VERTEX
  8
LAYER_1
 62
7
 10
23.907167
 20
28.535861
 42
0.091598
  0
VERTEX
  8
LAYER_1
 62
7
 10
24.175179
 20
29.179391
 42
-0.041722
  0
VERTEX
  8
LAYER_1
 62
7
 10
24.241290
 20
29.395407
 42
-0.072202
  0
VERTEX
  8
LAYER_1
 62
7
 10
24.350960
 20
29.588271
 42
-0.127980
  0
VERTEX
  8
LAYER_1
 62
7
 10
24.513247
 20
29.714244
 42
-0.152853
  0
VERTEX
  8
LAYER_1
 62
7
 10
24.737211
 20
29.729588
  0
SEQEND
  0
POLYLINE
  8
LAYER_1
 62
7
 70
1
 66
1
  0
VERTEX
  8
LAYER_1
 62
7
 10
21.484676
 20
29.045813
 42
-0.193890
  0
VERTEX
  8
LAYER_1
 62
7
 10
21.780553
 20
28.868952
 42
-0.138476
  0
VERTEX
  8
LAYER_1
 62
7
 10
21.904397
 20
28.543106
 42
-0.122751
  0
VERTEX
  8
LAYER_1
 62
7
 10
21.855114
 20
28.187708
 42
-0.165706
  0
VERTEX
  8
LAYER_1
 62
7
 10
21.631614
 20
27.922192
 42
0.064673
  0
VERTEX
  8
LAYER_1
 62
7
 10
20.831816
 20
27.108634
 42
0.084491
  0
VERTEX
  8
LAYER_1
 62
7
 10
20.306256
 20
26.099764
 42
-0.056670
  0
VERTEX
  8
LAYER_1
 62
7
 10
20.220685
 20
26.573723
 42
-0.043715
  0
VERTEX
  8
LAYER_1
 62
7
 10
20.231635
 20
27.053411
 42
-0.030649
  0
VERTEX
  8
LAYER_1
 62
7
 10
20.313962
 20
27.529825
 42
-0.019166
  0
VERTEX
  8
LAYER_1
 62
7
 10
20.442526
 20
27.993964
 42
-0.017176
  0
VERTEX
  8
LAYER_1
 62
7
 10
20.594178
 20
28.368222
 42
-0.053454
  0
VERTEX
  8
LAYER_1
 62
7
 10
20.801022
 20
28.727931
 42
-0.112881
  0
VERTEX
  8
LAYER_1
 62
7
 10
21.089156
 20
28.983619
 42
-0.159035
  0
VERTEX
  8
LAYER_1
 62
7
 10
21.484676
 20
29.045813
  0
SEQEND
  0
POLYLINE
  8
LAYER_1
 62
7
 70
1
 66
1
  0
VERTEX
  8
LAYER_1
 62
7
 10
24.580720
 20
27.724821
 42
-0.018502
  0
VERTEX
  8
LAYER_1
 62
7
 10
24.402598
 20
27.765070
 42
0.026338
  0
VERTEX
  8
LAYER_1
 62
7
 10
24.624061
 20
27.874785
  0
VERTEX
  8
LAYER_1
 62
7
 10
24.841689
 20
27.999087
 42
-0.018992
  0
VERTEX
  8
LAYER_1
 62
7
 10
25.061647
 20
28.115886
 42
-0.043033
  0
VERTEX
  8
LAYER_1
 62
7
 10
25.290102
 20
28.203096
 42
-0.068695
  0
VERTEX
  8
LAYER_1
 62
7
 10
25.460043
 20
28.228838
 42
-0.079074
  0
VERTEX
  8
LAYER_1
 62
7
 10
25.536231
 20
28.216962
 42
-0.140936
  0
VERTEX
  8
LAYER_1
 62
7
 10
25.592739
 20
28.179155
 42
-0.114014
  0
VERTEX
  8
LAYER_1
 62
7
 10
25.634827
 20
28.098196
 42
-0.125238
  0
VERTEX
  8
LAYER_1
 62
7
 10
25.633510
 20
28.021851
 42
-0.200523
  0
VERTEX
  8
LAYER_1
 62
7
 10
25.465611
 20
27.810323
 42
-0.095090
  0
VERTEX
  8
LAYER_1
 62
7
 10
25.172599
 20
27.713793
 42
-0.077873
  0
VERTEX
  8
LAYER_1
 62
7
 10
24.580720
 20
27.724821
  0
SEQEND
  0
POLYLINE
  8
LAYER_1
 62
7
 70
1
 66
1
  0
VERTEX
  8
LAYER_1
 62
7
 10
23.134463
 20
27.444520
 42
-0.127454
  0
VERTEX
  8
LAYER_1
 62
7
 10
23.958327
 20
27.145490
 42
-0.082697
  0
VERTEX
  8
LAYER_1
 62
7
 10
24.269988
 20
26.842012
 42
-0.099646
  0
VERTEX
  8
LAYER_1
 62
7
 10
24.454487
 20
26.441651
 42
-0.160562
  0
VERTEX
  8
LAYER_1
 62
7
 10
24.483175
 20
26.152017
 42
-0.086943
  0
VERTEX
  8
LAYER_1
 62
7
 10
24.366833
 20
25.895480
 42
-0.005490
  0
VERTEX
  8
LAYER_1
 62
7
 10
24.240686
 20
25.709592
  0
VERTEX
  8
LAYER_1
 62
7
 10
24.199027
 20
25.646763
 42
0.079179
  0
VERTEX
  8
LAYER_1
 62
7
 10
24.073320
 20
25.380588
 42
0.082582
  0
VERTEX
  8
LAYER_1
 62
7
 10
23.929503
 20
24.721440
 42
0.072320
  0
VERTEX
  8
LAYER_1
 62
7
 10
23.992818
 20
24.044924
 42
0.068928
  0
VERTEX
  8
LAYER_1
 62
7
 10
24.241626
 20
23.409326
 42
0.073715
  0
VERTEX
  8
LAYER_1
 62
7
 10
24.654285
 20
22.872930
 42
0.110785
  0
VERTEX
  8
LAYER_1
 62
7
 10
23.932746
 20
22.530073
 42
0.097378
  0
VERTEX
  8
LAYER_1
 62
7
 10
23.406518
 20
21.925345
 42
-0.081462
  0
VERTEX
  8
LAYER_1
 62
7
 10
22.650904
 20
21.913024
 42
-0.080572
  0
VERTEX
  8
LAYER_1
 62
7
 10
21.909792
 20
22.142480
 42
-0.100233
  0
VERTEX
  8
LAYER_1
 62
7
 10
21.306981
 20
22.606346
 42
-0.126405
  0
VERTEX
  8
LAYER_1
 62
7
 10
20.966268
 20
23.297258
 42
0.131689
  0
VERTEX
  8
LAYER_1
 62
7
 10
21.747517
 20
22.905725
 42
0.135168
  0
VERTEX
  8
LAYER_1
 62
7
 10
22.618965
 20
22.955371
 42
0.213088
  0
VERTEX
  8
LAYER_1
 62
7
 10
23.205559
 20
23.520793
 42
0.090754
  0
VERTEX
  8
LAYER_1
 62
7
 10
23.254431
 20
23.794382
 42
0.080277
  0
VERTEX
  8
LAYER_1
 62
7
 10
23.209146
 20
24.079315
 42
0.091656
  0
VERTEX
  8
LAYER_1
 62
7
 10
23.074083
 20
24.329787
 42
0.118947
  0
VERTEX
  8
LAYER_1
 62
7
 10
22.853618
 20
24.499990
 42
0.029515
  0
VERTEX
  8
LAYER_1
 62
7
 10
22.782835
 20
24.526198
 42
0.194067
  0
VERTEX
  8
LAYER_1
 62
7
 10
22.328692
 20
24.472621
 42
0.116719
  0
VERTEX
  8
LAYER_1
 62
7
 10
22.154058
 20
24.319860
 42
0.147266
  0
VERTEX
  8
LAYER_1
 62
7
 10
22.079685
 20
24.093276
 42
0.170322
  0
VERTEX
  8
LAYER_1
 62
7
 10
22.172151
 20
23.815478
 42
0.162120
  0
VERTEX
  8
LAYER_1
 62
7
 10
22.432746
 20
23.637206
 42
-0.309565
  0
VERTEX
  8
LAYER_1
 62
7
 10
21.276735
 20
24.029518
 42
-0.079240
  0
VERTEX
  8
LAYER_1
 62
7
 10
21.043970
 20
24.434542
 42
-0.067294
  0
VERTEX
  8
LAYER_1
 62
7
 10
20.934316
 20
24.900180
 42
-0.076469
  0
VERTEX
  8
LAYER_1
 62
7
 10
20.964966
 20
25.461073
 42
-0.086020
  0
VERTEX
  8
LAYER_1
 62
7
 10
21.167636
 20
25.978493
 42
-0.110957
  0
VERTEX
  8
LAYER_1
 62
7
 10
21.542442
 20
26.369564
 42
-0.126890
  0
VERTEX
  8
LAYER_1
 62
7
 10
22.089498
 20
26.551413
 42
-0.171668
  0
VERTEX
  8
LAYER_1
 62
7
 10
22.635586
 20
26.399952
 42
-0.100969
  0
VERTEX
  8
LAYER_1
 62
7
 10
22.828904
 20
26.197438
 42
-0.122704
  0
VERTEX
  8
LAYER_1
 62
7
 10
22.915752
 20
25.928578
 42
0.188362
  0
VERTEX
  8
LAYER_1
 62
7
 10
22.595718
 20
25.963645
 42
0.150561
  0
VERTEX
  8
LAYER_1
 62
7
 10
22.335878
 20
25.797399
 42
0.157633
  0
VERTEX
  8
LAYER_1
 62
7
 10
22.215520
 20
25.519131
 42
0.199702
  0
VERTEX
  8
LAYER_1
 62
7
 10
22.313934
 20
25.218131
 42
0.182506
  0
VERTEX
  8
LAYER_1
 62
7
 10
22.731549
 20
25.002474
 42
0.158717
  0
VERTEX
  8
LAYER_1
 62
7
 10
23.193242
 20
25.090932
 42
0.072382
  0
VERTEX
  8
LAYER_1
 62
7
 10
23.318151
 20
25.186749
 42
0.150635
  0
VERTEX
  8
LAYER_1
 62
7
 10
23.560071
 20
25.646685
 42
0.120244
  0
VERTEX
  8
LAYER_1
 62
7
 10
23.526884
 20
26.145743
 42
0.096241
  0
VERTEX
  8
LAYER_1
 62
7
 10
23.287327
 20
26.595122
 42
0.105809
  0
VERTEX
  8
LAYER_1
 62
7
 10
22.910135
 20
26.906017
 42
0.140713
  0
VERTEX
  8
LAYER_1
 62
7
 10
22.063501
 20
27.055594
 42
0.053831
  0
VERTEX
  8
LAYER_1
 62
7
 10
21.737333
 20
26.986731
 42
-0.117417
  0
VERTEX
  8
LAYER_1
 62
7
 10
22.382614
 20
27.378022
 42
-0.115571
  0
VERTEX
  8
LAYER_1
 62
7
 10
23.134463
 20
27.444520
  0
SEQEND
  0
POLYLINE
  8
LAYER_1
 62
7
 70
1
 66
1
  0
VERTEX
  8
LAYER_1
 62
7
 10
27.299996
 20
26.636124
 42
-0.055185
  0
VERTEX
  8
LAYER_1
 62
7
 10
27.562414
 20
26.240162
 42
-0.046811
  0
VERTEX
  8
LAYER_1
 62
7
 10
27.742802
 20
25.791871
 42
-0.084848
  0
VERTEX
  8
LAYER_1
 62
7
 10
27.858326
 20
24.846662
 42
0.002507
  0
VERTEX
  8
LAYER_1
 62
7
 10
27.857478
 20
23.142318
 42
-0.005281
  0
VERTEX
  8
LAYER_1
 62
7
 10
27.847173
 20
21.437974
 42
0.076541
  0
VERTEX
  8
LAYER_1
 62
7
 10
27.442545
 20
22.049355
 42
0.070015
  0
VERTEX
  8
LAYER_1
 62
7
 10
26.878250
 20
22.519525
 42
0.069395
  0
VERTEX
  8
LAYER_1
 62
7
 10
26.206660
 20
22.817843
 42
0.074953
  0
VERTEX
  8
LAYER_1
 62
7
 10
25.480149
 20
22.913666
  0
VERTEX
  8
LAYER_1
 62
7
 10
25.525522
 20
23.126140
 42
-0.020971
  0
VERTEX
  8
LAYER_1
 62
7
 10
25.580533
 20
23.338297
 42
-0.042606
  0
VERTEX
  8
LAYER_1
 62
7
 10
25.661004
 20
23.539633
 42
-0.064003
  0
VERTEX
  8
LAYER_1
 62
7
 10
25.782756
 20
23.719647
 42
0.127824
  0
VERTEX
  8
LAYER_1
 62
7
 10
26.559371
 20
23.778043
 42
0.144105
  0
VERTEX
  8
LAYER_1
 62
7
 10
27.122184
 20
24.175461
 42
0.119930
  0
VERTEX
  8
LAYER_1
 62
7
 10
27.387427
 20
24.776589
 42
0.090617
  0
VERTEX
  8
LAYER_1
 62
7
 10
27.388032
 20
25.461366
 42
0.085402
  0
VERTEX
  8
LAYER_1
 62
7
 10
27.156935
 20
26.109729
 42
0.082260
  0
VERTEX
  8
LAYER_1
 62
7
 10
26.662187
 20
26.736644
 42
0.087325
  0
VERTEX
  8
LAYER_1
 62
7
 10
26.000497
 20
27.160826
 42
-0.029816
  0
VERTEX
  8
LAYER_1
 62
7
 10
25.943492
 20
27.187967
 42
-0.035370
  0
VERTEX
  8
LAYER_1
 62
7
 10
25.927447
 20
27.198515
 42
-0.080813
  0
VERTEX
  8
LAYER_1
 62
7
 10
25.918889
 20
27.207226
 42
-0.084203
  0
VERTEX
  8
LAYER_1
 62
7
 10
25.917227
 20
27.210933
 42
-0.121514
  0
VERTEX
  8
LAYER_1
 62
7
 10
25.917208
 20
27.214231
 42
-0.195997
  0
VERTEX
  8
LAYER_1
 62
7
 10
25.921789
 20
27.219666
 42
-0.074099
  0
VERTEX
  8
LAYER_1
 62
7
 10
25.932020
 20
27.223661
  0
VERTEX
  8
LAYER_1
 62
7
 10
25.947289
 20
27.226352
 42
-0.081491
  0
VERTEX
  8
LAYER_1
 62
7
 10
26.376347
 20
27.207027
 42
-0.067039
  0
VERTEX
  8
LAYER_1
 62
7
 10
26.753065
 20
27.072214
 42
-0.097578
  0
VERTEX
  8
LAYER_1
 62
7
 10
27.299996
 20
26.636124
  0
SEQEND
  0
POLYLINE
  8
LAYER_1
 62
7
 70
1
 66
1
  0
VERTEX
  8
LAYER_1
 62
7
 10
25.004417
 20
26.408190
 42
0.039720
  0
VERTEX
  8
LAYER_1
 62
7
 10
24.851840
 20
26.779234
 42
0.018889
  0
VERTEX
  8
LAYER_1
 62
7
 10
24.656710
 20
27.130275
  0
VERTEX
  8
LAYER_1
 62
7
 10
24.657924
 20
27.130214
 42
-0.130044
  0
VERTEX
  8
LAYER_1
 62
7
 10
25.429080
 20
27.079989
 42
-0.130044
  0
VERTEX
  8
LAYER_1
 62
7
 10
26.069359
 20
26.647268
  0
VERTEX
  8
LAYER_1
 62
7
 10
25.931149
 20
26.644275
 42
0.031247
  0
VERTEX
  8
LAYER_1
 62
7
 10
25.513247
 20
26.611746
 42
0.050916
  0
VERTEX
  8
LAYER_1
 62
7
 10
25.246920
 20
26.542247
 42
0.072904
  0
VERTEX
  8
LAYER_1
 62
7
 10
25.004417
 20
26.408190
  0
SEQEND
  0
POLYLINE
  8
LAYER_1
 62
7
 70
1
 66
1
  0
VERTEX
  8
LAYER_1
 62
7
 10
26.322866
 20
24.182615
 42
-0.064927
  0
VERTEX
  8
LAYER_1
 62
7
 10
26.052952
 20
24.175912
 42
-0.087831
  0
VERTEX
  8
LAYER_1
 62
7
 10
25.805976
 20
24.244493
 42
-0.139021
  0
VERTEX
  8
LAYER_1
 62
7
 10
25.629437
 20
24.398682
 42
-0.157326
  0
VERTEX
  8
LAYER_1
 62
7
 10
25.570834
 20
24.648804
 42
0.163059
  0
VERTEX
  8
LAYER_1
 62
7
 10
25.829629
 20
24.544813
 42
0.137543
  0
VERTEX
  8
LAYER_1
 62
7
 10
26.097243
 20
24.598854
 42
0.185780
  0
VERTEX
  8
LAYER_1
 62
7
 10
26.269566
 20
24.783831
 42
0.110081
  0
VERTEX
  8
LAYER_1
 62
7
 10
26.287458
 20
24.916953
 42
0.094218
  0
VERTEX
  8
LAYER_1
 62
7
 10
26.242485
 20
25.072647
 42
0.182820
  0
VERTEX
  8
LAYER_1
 62
7
 10
26.039209
 20
25.297306
 42
0.133476
  0
VERTEX
  8
LAYER_1
 62
7
 10
25.743051
 20
25.354340
 42
0.103149
  0
VERTEX
  8
LAYER_1
 62
7
 10
25.437163
 20
25.270892
 42
0.123538
  0
VERTEX
  8
LAYER_1
 62
7
 10
25.204700
 20
25.074102
 42
0.193251
  0
VERTEX
  8
LAYER_1
 62
7
 10
25.110681
 20
24.442580
 42
0.144177
  0
VERTEX
  8
LAYER_1
 62
7
 10
25.430200
 20
23.878709
 42
0.044601
  0
VERTEX
  8
LAYER_1
 62
7
 10
25.243435
 20
23.543369
 42
-0.004335
  0
VERTEX
  8
LAYER_1
 62
7
 10
25.083948
 20
23.193480
 42
-0.093979
  0
VERTEX
  8
LAYER_1
 62
7
 10
24.752343
 20
23.664357
 42
-0.077123
  0
VERTEX
  8
LAYER_1
 62
7
 10
24.590745
 20
24.236779
 42
-0.073382
  0
VERTEX
  8
LAYER_1
 62
7
 10
24.603515
 20
24.838478
 42
-0.083303
  0
VERTEX
  8
LAYER_1
 62
7
 10
24.795015
 20
25.397186
 42
-0.141521
  0
VERTEX
  8
LAYER_1
 62
7
 10
25.408008
 20
25.995711
 42
-0.088062
  0
VERTEX
  8
LAYER_1
 62
7
 10
25.841243
 20
26.139451
 42
-0.106171
  0
VERTEX
  8
LAYER_1
 62
7
 10
26.317884
 20
26.105581
 42
-0.107484
  0
VERTEX
  8
LAYER_1
 62
7
 10
26.703735
 20
25.902356
 42
-0.104381
  0
VERTEX
  8
LAYER_1
 62
7
 10
26.939747
 20
25.595017
 42
-0.225331
  0
VERTEX
  8
LAYER_1
 62
7
 10
26.956849
 20
24.685238
 42
-0.114844
  0
VERTEX
  8
LAYER_1
 62
7
 10
26.699942
 20
24.351393
 42
-0.133096
  0
VERTEX
  8
LAYER_1
 62
7
 10
26.322866
 20
24.182615
  0
SEQEND
  0
POLYLINE
  8
LAYER_1
 62
7
 70
1
 66
1
  0
VERTEX
  8
LAYER_1
 62
7
 10
20.567157
 20
22.858867
 42
0.070993
  0
VERTEX
  8
LAYER_1
 62
7
 10
20.746473
 20
22.446283
 42
0.057114
  0
VERTEX
  8
LAYER_1
 62
7
 10
21.021491
 20
22.097622
 42
0.042028
  0
VERTEX
  8
LAYER_1
 62
7
 10
21.363340
 20
21.806609
 42
0.029699
  0
VERTEX
  8
LAYER_1
 62
7
 10
21.743152
 20
21.566969
 42
0.218341
  0
VERTEX
  8
LAYER_1
 62
7
 10
21.415425
 20
21.353883
 42
0.199588
  0
VERTEX
  8
LAYER_1
 62
7
 10
21.346081
 20
20.988539
 42
0.199588
  0
VERTEX
  8
LAYER_1
 62
7
 10
21.555381
 20
20.681165
 42
0.199588
  0
VERTEX
  8
LAYER_1
 62
7
 10
21.920725
 20
20.611821
 42
0.199588
  0
VERTEX
  8
LAYER_1
 62
7
 10
22.228098
 20
20.821122
 42
-0.114069
  0
VERTEX
  8
LAYER_1
 62
7
 10
22.287822
 20
20.683156
 42
-0.163584
  0
VERTEX
  8
LAYER_1
 62
7
 10
22.250508
 20
20.356266
 42
-0.131786
  0
VERTEX
  8
LAYER_1
 62
7
 10
22.048063
 20
20.131759
 42
-0.078579
  0
VERTEX
  8
LAYER_1
 62
7
 10
21.757390
 20
19.999775
 42
-0.059167
  0
VERTEX
  8
LAYER_1
 62
7
 10
21.455394
 20
19.950454
 42
-0.151536
  0
VERTEX
  8
LAYER_1
 62
7
 10
20.599618
 20
20.188364
 42
-0.080804
  0
VERTEX
  8
LAYER_1
 62
7
 10
20.265973
 20
20.485199
 42
-0.095408
  0
VERTEX
  8
LAYER_1
 62
7
 10
20.056023
 20
20.876406
 42
-0.086947
  0
VERTEX
  8
LAYER_1
 62
7
 10
19.948896
 20
21.407392
 42
-0.075369
  0
VERTEX
  8
LAYER_1
 62
7
 10
20.016258
 20
21.940378
 42
-0.132654
  0
VERTEX
  8
LAYER_1
 62
7
 10
20.567157
 20
22.858867
  0
SEQEND
  0
POLYLINE
  8
LAYER_1
 62
7
 70
1
 66
1
  0
VERTEX
  8
LAYER_1
 62
7
 10
11.518057
 20
36.773919
 42
0.029637
  0
VERTEX
  8
LAYER_1
 62
7
 10
12.009996
 20
36.748264
 42
0.013755
  0
VERTEX
  8
LAYER_1
 62
7
 10
12.513295
 20
36.765453
  0
VERTEX
  8
LAYER_1
 62
7
 10
13.020884
 20
36.795778
 42
-0.015466
  0
VERTEX
  8
LAYER_1
 62
7
 10
13.525694
 20
36.809533
 42
-0.040293
  0
VERTEX
  8
LAYER_1
 62
7
 10
14.117891
 20
36.759139
 42
-0.056766
  0
VERTEX
  8
LAYER_1
 62
7
 10
14.677570
 20
36.599808
 42
-0.075940
  0
VERTEX
  8
LAYER_1
 62
7
 10
15.168490
 20
36.303491
 42
-0.087055
  0
VERTEX
  8
LAYER_1
 62
7
 10
15.554409
 20
35.842140
 42
-0.092847
  0
VERTEX
  8
LAYER_1
 62
7
 10
15.718057
 20
35.400222
 42
-0.142040
  0
VERTEX
  8
LAYER_1
 62
7
 10
15.665726
 20
34.943456
 42
-0.294779
  0
VERTEX
  8
LAYER_1
 62
7
 10
15.213833
 20
34.639185
 42
0.215495
  0
VERTEX
  8
LAYER_1
 62
7
 10
15.245387
 20
35.028415
 42
0.144015
  0
VERTEX
  8
LAYER_1
 62
7
 10
15.091790
 20
35.241958
 42
0.123801
  0
VERTEX
  8
LAYER_1
 62
7
 10
14.857926
 20
35.343069
 42
0.287593
  0
VERTEX
  8
LAYER_1
 62
7
 10
14.286921
 20
35.107041
 42
0.210195
  0
VERTEX
  8
LAYER_1
 62
7
 10
14.190856
 20
34.657992
 42
0.158394
  0
VERTEX
  8
LAYER_1
 62
7
 10
14.422467
 20
34.256941
 42
0.077834
  0
VERTEX
  8
LAYER_1
 62
7
 10
14.719430
 20
34.063518
 42
0.064207
  0
VERTEX
  8
LAYER_1
 62
7
 10
15.047320
 20
33.961425
 42
0.074671
  0
VERTEX
  8
LAYER_1
 62
7
 10
15.405872
 20
33.951046
 42
0.064650
  0
VERTEX
  8
LAYER_1
 62
7
 10
14.979362
 20
33.700450
 42
0.111083
  0
VERTEX
  8
LAYER_1
 62
7
 10
14.667784
 20
33.318191
 42
0.033657
  0
VERTEX
  8
LAYER_1
 62
7
 10
14.626098
 20
33.404604
 42
0.173713
  0
VERTEX
  8
LAYER_1
 62
7
 10
14.209388
 20
33.750930
 42
0.103962
  0
VERTEX
  8
LAYER_1
 62
7
 10
13.938911
 20
33.791797
 42
0.129181
  0
VERTEX
  8
LAYER_1
 62
7
 10
13.674737
 20
33.704317
 42
0.211154
  0
VERTEX
  8
LAYER_1
 62
7
 10
13.448831
 20
33.359723
 42
0.236528
  0
VERTEX
  8
LAYER_1
 62
7
 10
13.572664
 20
32.934290
 42
0.116792
  0
VERTEX
  8
LAYER_1
 62
7
 10
13.739724
 20
32.831660
 42
0.170667
  0
VERTEX
  8
LAYER_1
 62
7
 10
14.022341
 20
32.835112
 42
0.170667
  0
VERTEX
  8
LAYER_1
 62
7
 10
14.239510
 20
33.016006
 42
-0.273168
  0
VERTEX
  8
LAYER_1
 62
7
 10
14.098440
 20
32.505167
 42
-0.110471
  0
VERTEX
  8
LAYER_1
 62
7
 10
13.734286
 20
32.276821
 42
-0.082943
  0
VERTEX
  8
LAYER_1
 62
7
 10
13.286658
 20
32.195319
 42
-0.077574
  0
VERTEX
  8
LAYER_1
 62
7
 10
12.828958
 20
32.256768
 42
-0.094704
  0
VERTEX
  8
LAYER_1
 62
7
 10
12.434586
 20
32.457277
 42
-0.085250
  0
VERTEX
  8
LAYER_1
 62
7
 10
12.005483
 20
32.907345
 42
-0.072084
  0
VERTEX
  8
LAYER_1
 62
7
 10
11.734343
 20
33.460765
 42
-0.038954
  0
VERTEX
  8
LAYER_1
 62
7
 10
11.573772
 20
34.276392
 42
-0.023935
  0
VERTEX
  8
LAYER_1
 62
7
 10
11.516905
 20
35.106613
 42
-0.009012
  0
VERTEX
  8
LAYER_1
 62
7
 10
11.514685
 20
35.942198
 42
0.005681
  0
VERTEX
  8
LAYER_1
 62
7
 10
11.518057
 20
36.773919
  0
SEQEND
  0
POLYLINE
  8
LAYER_1
 62
7
 70
1
 66
1
  0
VERTEX
  8
LAYER_1
 62
7
 10
14.991761
 20
32.032915
 42
-0.050710
  0
VERTEX
  8
LAYER_1
 62
7
 10
14.985422
 20
32.031165
 42
-0.136288
  0
VERTEX
  8
LAYER_1
 62
7
 10
14.874924
 20
32.612533
 42
-0.309353
  0
VERTEX
  8
LAYER_1
 62
7
 10
15.687821
 20
33.637329
 42
-0.087162
  0
VERTEX
  8
LAYER_1
 62
7
 10
16.258469
 20
33.704298
 42
-0.072383
  0
VERTEX
  8
LAYER_1
 62
7
 10
16.843407
 20
33.587574
 42
-0.073556
  0
VERTEX
  8
LAYER_1
 62
7
 10
17.369740
 20
33.311192
 42
-0.090603
  0
VERTEX
  8
LAYER_1
 62
7
 10
17.764570
 20
32.899191
 42
-0.019596
  0
VERTEX
  8
LAYER_1
 62
7
 10
17.822845
 20
32.800753
 42
0.109602
  0
VERTEX
  8
LAYER_1
 62
7
 10
17.640922
 20
32.835495
 42
0.075712
  0
VERTEX
  8
LAYER_1
 62
7
 10
17.468046
 20
32.801541
 42
0.029699
  0
VERTEX
  8
LAYER_1
 62
7
 10
17.301626
 20
32.730580
  0
VERTEX
  8
LAYER_1
 62
7
 10
17.220027
 20
32.691124
  0
VERTEX
  8
LAYER_1
 62
7
 10
17.139071
 20
32.654299
  0
VERTEX
  8
LAYER_1
 62
7
 10
17.022508
 20
32.699357
 42
0.015099
  0
VERTEX
  8
LAYER_1
 62
7
 10
16.790096
 20
32.778967
 42
0.053915
  0
VERTEX
  8
LAYER_1
 62
7
 10
16.255416
 20
32.885390
 42
0.083961
  0
VERTEX
  8
LAYER_1
 62
7
 10
15.736156
 20
32.847845
 42
0.128492
  0
VERTEX
  8
LAYER_1
 62
7
 10
15.299735
 20
32.610876
 42
0.069401
  0
VERTEX
  8
LAYER_1
 62
7
 10
15.133658
 20
32.400276
 42
0.061634
  0
VERTEX
  8
LAYER_1
 62
7
 10
15.013571
 20
32.119024
 42
0.019641
  0
VERTEX
  8
LAYER_1
 62
7
 10
14.991761
 20
32.032915
  0
SEQEND
  0
POLYLINE
  8
LAYER_1
 62
7
 70
1
 66
1
  0
VERTEX
  8
LAYER_1
 62
7
 10
11.519511
 20
32.662059
 42
0.008389
  0
VERTEX
  8
LAYER_1
 62
7
 10
11.655468
 20
32.497164
 42
0.056867
  0
VERTEX
  8
LAYER_1
 62
7
 10
12.154039
 20
32.028220
 42
0.077376
  0
VERTEX
  8
LAYER_1
 62
7
 10
12.733393
 20
31.719393
 42
0.102524
  0
VERTEX
  8
LAYER_1
 62
7
 10
13.370540
 20
31.637048
 42
0.108179
  0
VERTEX
  8
LAYER_1
 62
7
 10
14.042491
 20
31.847552
 42
0.073688
  0
VERTEX
  8
LAYER_1
 62
7
 10
14.457802
 20
32.166928
 42
0.148642
  0
VERTEX
  8
LAYER_1
 62
7
 10
14.763136
 20
31.549349
 42
0.077863
  0
VERTEX
  8
LAYER_1
 62
7
 10
15.036169
 20
31.334533
 42
0.089803
  0
VERTEX
  8
LAYER_1
 62
7
 10
15.364167
 20
31.221283
 42
0.202546
  0
VERTEX
  8
LAYER_1
 62
7
 10
15.841960
 20
31.303118
 42
0.138547
  0
VERTEX
  8
LAYER_1
 62
7
 10
16.001795
 20
31.478926
 42
0.173173
  0
VERTEX
  8
LAYER_1
 62
7
 10
16.025149
 20
31.729022
 42
0.116698
  0
VERTEX
  8
LAYER_1
 62
7
 10
15.934608
 20
31.871869
 42
0.120839
  0
VERTEX
  8
LAYER_1
 62
7
 10
15.807468
 20
31.943247
 42
0.082487
  0
VERTEX
  8
LAYER_1
 62
7
 10
15.656415
 20
31.958432
 42
0.048857
  0
VERTEX
  8
LAYER_1
 62
7
 10
15.494132
 20
31.932699
 42
-0.191599
  0
VERTEX
  8
LAYER_1
 62
7
 10
15.710653
 20
32.272116
 42
-0.075264
  0
VERTEX
  8
LAYER_1
 62
7
 10
15.886675
 20
32.360541
 42
-0.056406
  0
VERTEX
  8
LAYER_1
 62
7
 10
16.089707
 20
32.402491
 42
-0.080277
  0
VERTEX
  8
LAYER_1
 62
7
 10
16.522317
 20
32.370106
 42
-0.078539
  0
VERTEX
  8
LAYER_1
 62
7
 10
16.899507
 20
32.221242
 42
-0.089189
  0
VERTEX
  8
LAYER_1
 62
7
 10
17.457847
 20
31.692507
 42
-0.065881
  0
VERTEX
  8
LAYER_1
 62
7
 10
17.825512
 20
31.019606
 42
-0.043071
  0
VERTEX
  8
LAYER_1
 62
7
 10
18.044784
 20
30.268598
 42
-0.026246
  0
VERTEX
  8
LAYER_1
 62
7
 10
18.157943
 20
29.505542
 42
0.127063
  0
VERTEX
  8
LAYER_1
 62
7
 10
17.513207
 20
29.476385
 42
0.095466
  0
VERTEX
  8
LAYER_1
 62
7
 10
17.232665
 20
29.325301
 42
0.124785
  0
VERTEX
  8
LAYER_1
 62
7
 10
17.043051
 20
29.065696
 42
0.129389
  0
VERTEX
  8
LAYER_1
 62
7
 10
16.941758
 20
28.583417
 42
0.079046
  0
VERTEX
  8
LAYER_1
 62
7
 10
17.043051
 20
28.095318
 42
-0.107828
  0
VERTEX
  8
LAYER_1
 62
7
 10
16.473088
 20
28.181707
 42
-0.097550
  0
VERTEX
  8
LAYER_1
 62
7
 10
15.993870
 20
28.482002
 42
-0.096467
  0
VERTEX
  8
LAYER_1
 62
7
 10
15.661954
 20
28.940057
 42
-0.105686
  0
VERTEX
  8
LAYER_1
 62
7
 10
15.533898
 20
29.499723
 42
0.168527
  0
VERTEX
  8
LAYER_1
 62
7
 10
15.883567
 20
29.317853
 42
0.145278
  0
VERTEX
  8
LAYER_1
 62
7
 10
16.256286
 20
29.367939
 42
0.185803
  0
VERTEX
  8
LAYER_1
 62
7
 10
16.508345
 20
29.613882
 42
0.107308
  0
VERTEX
  8
LAYER_1
 62
7
 10
16.544217
 20
29.799020
 42
0.093121
  0
VERTEX
  8
LAYER_1
 62
7
 10
16.496032
 20
30.019586
 42
0.188517
  0
VERTEX
  8
LAYER_1
 62
7
 10
16.233858
 20
30.312433
 42
0.147861
  0
VERTEX
  8
LAYER_1
 62
7
 10
15.858570
 20
30.372505
 42
0.134432
  0
VERTEX
  8
LAYER_1
 62
7
 10
15.498194
 20
30.225809
 42
0.168715
  0
VERTEX
  8
LAYER_1
 62
7
 10
15.280756
 20
29.898349
 42
0.162283
  0
VERTEX
  8
LAYER_1
 62
7
 10
14.780655
 20
30.176951
 42
0.166704
  0
VERTEX
  8
LAYER_1
 62
7
 10
14.214359
 20
30.097662
 42
0.129301
  0
VERTEX
  8
LAYER_1
 62
7
 10
13.992458
 20
29.782379
 42
0.101272
  0
VERTEX
  8
LAYER_1
 62
7
 10
13.939455
 20
29.412130
 42
0.069043
  0
VERTEX
  8
LAYER_1
 62
7
 10
14.014205
 20
29.030878
 42
0.054078
  0
VERTEX
  8
LAYER_1
 62
7
 10
14.175563
 20
28.682588
 42
0.307922
  0
VERTEX
  8
LAYER_1
 62
7
 10
13.523249
 20
28.581901
 42
0.147595
  0
VERTEX
  8
LAYER_1
 62
7
 10
13.355920
 20
28.297761
 42
0.158520
  0
VERTEX
  8
LAYER_1
 62
7
 10
13.387040
 20
27.938195
 42
-0.102087
  0
VERTEX
  8
LAYER_1
 62
7
 10
12.833572
 20
28.476334
 42
-0.089679
  0
VERTEX
  8
LAYER_1
 62
7
 10
12.511651
 20
29.192146
 42
-0.098500
  0
VERTEX
  8
LAYER_1
 62
7
 10
12.470423
 20
29.964150
 42
-0.123060
  0
VERTEX
  8
LAYER_1
 62
7
 10
12.759035
 20
30.670869
 42
0.199588
  0
VERTEX
  8
LAYER_1
 62
7
 10
12.926751
 20
30.285140
 42
0.199588
  0
VERTEX
  8
LAYER_1
 62
7
 10
13.318093
 20
30.130978
 42
0.286865
  0
VERTEX
  8
LAYER_1
 62
7
 10
13.804700
 20
30.442629
 42
0.155320
  0
VERTEX
  8
LAYER_1
 62
7
 10
13.851023
 20
30.754267
 42
0.129079
  0
VERTEX
  8
LAYER_1
 62
7
 10
13.725667
 20
31.024341
 42
0.104246
  0
VERTEX
  8
LAYER_1
 62
7
 10
13.490637
 20
31.214607
 42
0.085254
  0
VERTEX
  8
LAYER_1
 62
7
 10
13.200290
 20
31.305218
 42
0.154198
  0
VERTEX
  8
LAYER_1
 62
7
 10
12.606847
 20
31.205781
 42
0.084021
  0
VERTEX
  8
LAYER_1
 62
7
 10
12.349580
 20
31.006968
 42
0.066151
  0
VERTEX
  8
LAYER_1
 62
7
 10
12.159704
 20
30.736597
 42
0.094957
  0
VERTEX
  8
LAYER_1
 62
7
 10
11.970402
 20
30.087807
 42
0.065212
  0
VERTEX
  8
LAYER_1
 62
7
 10
11.990606
 20
29.470806
 42
0.058648
  0
VERTEX
  8
LAYER_1
 62
7
 10
12.162851
 20
28.867000
 42
0.059929
  0
VERTEX
  8
LAYER_1
 62
7
 10
12.468306
 20
28.323966
 42
0.069212
  0
VERTEX
  8
LAYER_1
 62
7
 10
12.888137
 20
27.889281
  0
VERTEX
  8
LAYER_1
 62
7
 10
12.966934
 20
27.831166
 42
0.016002
  0
VERTEX
  8
LAYER_1
 62
7
 10
13.073765
 20
27.761190
 42
0.094102
  0
VERTEX
  8
LAYER_1
 62
7
 10
12.200194
 20
27.419727
 42
0.100467
  0
VERTEX
  8
LAYER_1
 62
7
 10
11.520481
 20
26.773839
 42
-0.002718
  0
VERTEX
  8
LAYER_1
 62
7
 10
11.519511
 20
32.662059
  0
SEQEND
  0
POLYLINE
  8
LAYER_1
 62
7
 70
1
 66
1
  0
VERTEX
  8
LAYER_1
 62
7
 10
17.710908
 20
32.342201
 42
-0.126965
  0
VERTEX
  8
LAYER_1
 62
7
 10
17.873866
 20
32.397782
 42
-0.079923
  0
VERTEX
  8
LAYER_1
 62
7
 10
18.060061
 20
32.382130
 42
-0.082444
  0
VERTEX
  8
LAYER_1
 62
7
 10
18.429662
 20
32.218206
 42
-0.128039
  0
VERTEX
  8
LAYER_1
 62
7
 10
18.840369
 20
31.767035
 42
-0.089096
  0
VERTEX
  8
LAYER_1
 62
7
 10
19.030836
 20
31.164298
 42
-0.068283
  0
VERTEX
  8
LAYER_1
 62
7
 10
19.030414
 20
30.519099
 42
-0.072516
  0
VERTEX
  8
LAYER_1
 62
7
 10
18.868456
 20
29.940540
 42
-0.052380
  0
VERTEX
  8
LAYER_1
 62
7
 10
18.659378
 20
29.586043
 42
0.008185
  0
VERTEX
  8
LAYER_1
 62
7
 10
18.609969
 20
29.908795
 42
0.020597
  0
VERTEX
  8
LAYER_1
 62
7
 10
18.479957
 20
30.534782
 42
0.032990
  0
VERTEX
  8
LAYER_1
 62
7
 10
18.302057
 20
31.084478
 42
0.037942
  0
VERTEX
  8
LAYER_1
 62
7
 10
18.047453
 20
31.600321
 42
0.032262
  0
VERTEX
  8
LAYER_1
 62
7
 10
17.687333
 20
32.124747
 42
-0.056170
  0
VERTEX
  8
LAYER_1
 62
7
 10
17.652240
 20
32.180150
 42
-0.110741
  0
VERTEX
  8
LAYER_1
 62
7
 10
17.638882
 20
32.235146
 42
-0.146141
  0
VERTEX
  8
LAYER_1
 62
7
 10
17.655643
 20
32.289306
 42
-0.100918
  0
VERTEX
  8
LAYER_1
 62
7
 10
17.710908
 20
32.342201
  0
SEQEND
  0
POLYLINE
  8
LAYER_1
 62
7
 70
1
 66
1
  0
VERTEX
  8
LAYER_1
 62
7
 10
14.632868
 20
29.729588
 42
-0.152853
  0
VERTEX
  8
LAYER_1
 62
7
 10
14.856831
 20
29.714244
 42
-0.127980
  0
VERTEX
  8
LAYER_1
 62
7
 10
15.019119
 20
29.588271
 42
-0.072202
  0
VERTEX
  8
LAYER_1
 62
7
 10
15.128789
 20
29.395407
 42
-0.041722
  0
VERTEX
  8
LAYER_1
 62
7
 10
15.194900
 20
29.179391
 42
0.091598
  0
VERTEX
  8
LAYER_1
 62
7
 10
15.462912
 20
28.535861
 42
0.023642
  0
VERTEX
  8
LAYER_1
 62
7
 10
15.643068
 20
28.286943
  0
VERTEX
  8
LAYER_1
 62
7
 10
15.835050
 20
28.046339
 42
-0.063007
  0
VERTEX
  8
LAYER_1
 62
7
 10
15.464555
 20
28.125634
 42
-0.061936
  0
VERTEX
  8
LAYER_1
 62
7
 10
15.089435
 20
28.318527
 42
-0.055941
  0
VERTEX
  8
LAYER_1
 62
7
 10
14.720322
 20
28.628815
 42
-0.079965
  0
VERTEX
  8
LAYER_1
 62
7
 10
14.449831
 20
29.015634
 42
-0.059960
  0
VERTEX
  8
LAYER_1
 62
7
 10
14.380511
 20
29.224973
 42
-0.076346
  0
VERTEX
  8
LAYER_1
 62
7
 10
14.370576
 20
29.438120
 42
-0.141649
  0
VERTEX
  8
LAYER_1
 62
7
 10
14.443179
 20
29.632913
 42
-0.209043
  0
VERTEX
  8
LAYER_1
 62
7
 10
14.632868
 20
29.729588
  0
SEQEND
  0
POLYLINE
  8
LAYER_1
 62
7
 70
1
 66
1
  0
VERTEX
  8
LAYER_1
 62
7
 10
17.885403
 20
29.045813
 42
-0.159035
  0
VERTEX
  8
LAYER_1
 62
7
 10
18.280922
 20
28.983619
 42
-0.112881
  0
VERTEX
  8
LAYER_1
 62
7
 10
18.569056
 20
28.727931
 42
-0.053454
  0
VERTEX
  8
LAYER_1
 62
7
 10
18.775901
 20
28.368222
 42
-0.017176
  0
VERTEX
  8
LAYER_1
 62
7
 10
18.927553
 20
27.993964
 42
-0.019166
  0
VERTEX
  8
LAYER_1
 62
7
 10
19.056117
 20
27.529825
 42
-0.030649
  0
VERTEX
  8
LAYER_1
 62
7
 10
19.138444
 20
27.053411
 42
-0.043715
  0
VERTEX
  8
LAYER_1
 62
7
 10
19.149393
 20
26.573723
 42
-0.056670
  0
VERTEX
  8
LAYER_1
 62
7
 10
19.063823
 20
26.099764
 42
0.084491
  0
VERTEX
  8
LAYER_1
 62
7
 10
18.538262
 20
27.108634
 42
0.064673
  0
VERTEX
  8
LAYER_1
 62
7
 10
17.738464
 20
27.922192
 42
-0.165706
  0
VERTEX
  8
LAYER_1
 62
7
 10
17.514965
 20
28.187708
 42
-0.122751
  0
VERTEX
  8
LAYER_1
 62
7
 10
17.465682
 20
28.543106
 42
-0.138476
  0
VERTEX
  8
LAYER_1
 62
7
 10
17.589525
 20
28.868952
 42
-0.193890
  0
VERTEX
  8
LAYER_1
 62
7
 10
17.885403
 20
29.045813
  0
SEQEND
  0
POLYLINE
  8
LAYER_1
 62
7
 70
1
 66
1
  0
VERTEX
  8
LAYER_1
 62
7
 10
14.789359
 20
27.724821
 42
-0.077873
  0
VERTEX
  8
LAYER_1
 62
7
 10
14.197480
 20
27.713793
 42
-0.095090
  0
VERTEX
  8
LAYER_1
 62
7
 10
13.904468
 20
27.810323
 42
-0.200523
  0
VERTEX
  8
LAYER_1
 62
7
 10
13.736569
 20
28.021851
 42
-0.125238
  0
VERTEX
  8
LAYER_1
 62
7
 10
13.735252
 20
28.098196
 42
-0.114014
  0
VERTEX
  8
LAYER_1
 62
7
 10
13.777340
 20
28.179155
 42
-0.140936
  0
VERTEX
  8
LAYER_1
 62
7
 10
13.833848
 20
28.216962
 42
-0.079074
  0
VERTEX
  8
LAYER_1
 62
7
 10
13.910036
 20
28.228838
 42
-0.068695
  0
VERTEX
  8
LAYER_1
 62
7
 10
14.079976
 20
28.203096
 42
-0.043033
  0
VERTEX
  8
LAYER_1
 62
7
 10
14.308432
 20
28.115886
 42
-0.017122
  0
VERTEX
  8
LAYER_1
 62
7
 10
14.637110
 20
27.936493
 42
0.027774
  0
VERTEX
  8
LAYER_1
 62
7
 10
14.967481
 20
27.765070
 42
-0.018502
  0
VERTEX
  8
LAYER_1
 62
7
 10
14.789359
 20
27.724821
  0
SEQEND
  0
POLYLINE
  8
LAYER_1
 62
7
 70
1
 66
1
  0
VERTEX
  8
LAYER_1
 62
7
 10
16.235615
 20
27.444520
 42
-0.115571
  0
VERTEX
  8
LAYER_1
 62
7
 10
16.987464
 20
27.378022
 42
-0.117417
  0
VERTEX
  8
LAYER_1
 62
7
 10
17.632746
 20
26.986731
 42
0.053831
  0
VERTEX
  8
LAYER_1
 62
7
 10
17.306578
 20
27.055594
 42
0.140713
  0
VERTEX
  8
LAYER_1
 62
7
 10
16.459944
 20
26.906017
 42
0.105809
  0
VERTEX
  8
LAYER_1
 62
7
 10
16.082751
 20
26.595122
 42
0.096241
  0
VERTEX
  8
LAYER_1
 62
7
 10
15.843194
 20
26.145743
 42
0.120244
  0
VERTEX
  8
LAYER_1
 62
7
 10
15.810008
 20
25.646685
 42
0.150635
  0
VERTEX
  8
LAYER_1
 62
7
 10
16.051927
 20
25.186749
 42
0.072382
  0
VERTEX
  8
LAYER_1
 62
7
 10
16.176837
 20
25.090932
 42
0.158717
  0
VERTEX
  8
LAYER_1
 62
7
 10
16.638529
 20
25.002474
 42
0.182506
  0
VERTEX
  8
LAYER_1
 62
7
 10
17.056145
 20
25.218131
 42
0.199702
  0
VERTEX
  8
LAYER_1
 62
7
 10
17.154559
 20
25.519131
 42
0.157633
  0
VERTEX
  8
LAYER_1
 62
7
 10
17.034201
 20
25.797399
 42
0.150561
  0
VERTEX
  8
LAYER_1
 62
7
 10
16.774361
 20
25.963645
 42
0.188362
  0
VERTEX
  8
LAYER_1
 62
7
 10
16.454326
 20
25.928578
 42
-0.122704
  0
VERTEX
  8
LAYER_1
 62
7
 10
16.541175
 20
26.197438
 42
-0.100969
  0
VERTEX
  8
LAYER_1
 62
7
 10
16.734493
 20
26.399952
 42
-0.171668
  0
VERTEX
  8
LAYER_1
 62
7
 10
17.280581
 20
26.551413
 42
-0.126890
  0
VERTEX
  8
LAYER_1
 62
7
 10
17.827637
 20
26.369564
 42
-0.110957
  0
VERTEX
  8
LAYER_1
 62
7
 10
18.202442
 20
25.978493
 42
-0.086020
  0
VERTEX
  8
LAYER_1
 62
7
 10
18.405113
 20
25.461073
 42
-0.076469
  0
VERTEX
  8
LAYER_1
 62
7
 10
18.435763
 20
24.900180
 42
-0.067294
  0
VERTEX
  8
LAYER_1
 62
7
 10
18.326109
 20
24.434542
 42
-0.079240
  0
VERTEX
  8
LAYER_1
 62
7
 10
18.093344
 20
24.029518
 42
-0.309565
  0
VERTEX
  8
LAYER_1
 62
7
 10
16.937333
 20
23.637206
 42
0.162120
  0
VERTEX
  8
LAYER_1
 62
7
 10
17.197928
 20
23.815478
 42
0.170322
  0
VERTEX
  8
LAYER_1
 62
7
 10
17.290394
 20
24.093276
 42
0.147266
  0
VERTEX
  8
LAYER_1
 62
7
 10
17.216021
 20
24.319860
 42
0.116719
  0
VERTEX
  8
LAYER_1
 62
7
 10
17.041386
 20
24.472621
 42
0.194067
  0
VERTEX
  8
LAYER_1
 62
7
 10
16.587244
 20
24.526198
 42
0.029515
  0
VERTEX
  8
LAYER_1
 62
7
 10
16.516461
 20
24.499990
 42
0.118947
  0
VERTEX
  8
LAYER_1
 62
7
 10
16.295996
 20
24.329787
 42
0.091656
  0
VERTEX
  8
LAYER_1
 62
7
 10
16.160932
 20
24.079315
 42
0.080277
  0
VERTEX
  8
LAYER_1
 62
7
 10
16.115648
 20
23.794382
 42
0.090754
  0
VERTEX
  8
LAYER_1
 62
7
 10
16.164519
 20
23.520793
 42
0.213088
  0
VERTEX
  8
LAYER_1
 62
7
 10
16.751113
 20
22.955371
 42
0.135168
  0
VERTEX
  8
LAYER_1
 62
7
 10
17.622562
 20
22.905725
 42
0.131689
  0
VERTEX
  8
LAYER_1
 62
7
 10
18.403811
 20
23.297258
 42
-0.126405
  0
VERTEX
  8
LAYER_1
 62
7
 10
18.063098
 20
22.606346
 42
-0.100233
  0
VERTEX
  8
LAYER_1
 62
7
 10
17.460287
 20
22.142480
 42
-0.080572
  0
VERTEX
  8
LAYER_1
 62
7
 10
16.719175
 20
21.913024
 42
-0.081462
  0
VERTEX
  8
LAYER_1
 62
7
 10
15.963560
 20
21.925345
 42
0.097378
  0
VERTEX
  8
LAYER_1
 62
7
 10
15.437333
 20
22.530073
 42
0.110785
  0
VERTEX
  8
LAYER_1
 62
7
 10
14.715793
 20
22.872930
 42
0.073715
  0
VERTEX
  8
LAYER_1
 62
7
 10
15.128452
 20
23.409326
 42
0.068928
  0
VERTEX
  8
LAYER_1
 62
7
 10
15.377260
 20
24.044924
 42
0.072320
  0
VERTEX
  8
LAYER_1
 62
7
 10
15.440576
 20
24.721440
 42
0.082582
  0
VERTEX
  8
LAYER_1
 62
7
 10
15.296759
 20
25.380588
 42
0.079179
  0
VERTEX
  8
LAYER_1
 62
7
 10
15.171052
 20
25.646763
  0
VERTEX
  8
LAYER_1
 62
7
 10
15.086563
 20
25.771724
 42
-0.010107
  0
VERTEX
  8
LAYER_1
 62
7
 10
15.003245
 20
25.895480
 42
-0.086943
  0
VERTEX
  8
LAYER_1
 62
7
 10
14.886904
 20
26.152017
 42
-0.160562
  0
VERTEX
  8
LAYER_1
 62
7
 10
14.915591
 20
26.441651
 42
-0.099646
  0
VERTEX
  8
LAYER_1
 62
7
 10
15.100091
 20
26.842012
 42
-0.082697
  0
VERTEX
  8
LAYER_1
 62
7
 10
15.411752
 20
27.145490
 42
-0.127454
  0
VERTEX
  8
LAYER_1
 62
7
 10
16.235615
 20
27.444520
  0
SEQEND
  0
POLYLINE
  8
LAYER_1
 62
7
 70
1
 66
1
  0
VERTEX
  8
LAYER_1
 62
7
 10
12.070083
 20
26.636124
 42
-0.097578
  0
VERTEX
  8
LAYER_1
 62
7
 10
12.617014
 20
27.072214
 42
-0.067039
  0
VERTEX
  8
LAYER_1
 62
7
 10
12.993732
 20
27.207027
 42
-0.081491
  0
VERTEX
  8
LAYER_1
 62
7
 10
13.422789
 20
27.226352
  0
VERTEX
  8
LAYER_1
 62
7
 10
13.438059
 20
27.223661
 42
-0.074099
  0
VERTEX
  8
LAYER_1
 62
7
 10
13.448290
 20
27.219666
 42
-0.195997
  0
VERTEX
  8
LAYER_1
 62
7
 10
13.452871
 20
27.214231
 42
-0.121514
  0
VERTEX
  8
LAYER_1
 62
7
 10
13.452851
 20
27.210933
 42
-0.084203
  0
VERTEX
  8
LAYER_1
 62
7
 10
13.451189
 20
27.207226
 42
-0.080813
  0
VERTEX
  8
LAYER_1
 62
7
 10
13.442632
 20
27.198515
 42
-0.035370
  0
VERTEX
  8
LAYER_1
 62
7
 10
13.426587
 20
27.187967
 42
-0.029816
  0
VERTEX
  8
LAYER_1
 62
7
 10
13.369582
 20
27.160826
 42
0.087325
  0
VERTEX
  8
LAYER_1
 62
7
 10
12.707892
 20
26.736644
 42
0.082260
  0
VERTEX
  8
LAYER_1
 62
7
 10
12.213144
 20
26.109729
 42
0.085402
  0
VERTEX
  8
LAYER_1
 62
7
 10
11.982047
 20
25.461366
 42
0.090617
  0
VERTEX
  8
LAYER_1
 62
7
 10
11.982652
 20
24.776589
 42
0.119930
  0
VERTEX
  8
LAYER_1
 62
7
 10
12.247895
 20
24.175461
 42
0.144105
  0
VERTEX
  8
LAYER_1
 62
7
 10
12.810708
 20
23.778043
 42
0.127824
  0
VERTEX
  8
LAYER_1
 62
7
 10
13.587323
 20
23.719647
 42
-0.064003
  0
VERTEX
  8
LAYER_1
 62
7
 10
13.709075
 20
23.539633
 42
-0.042606
  0
VERTEX
  8
LAYER_1
 62
7
 10
13.789546
 20
23.338297
 42
-0.020971
  0
VERTEX
  8
LAYER_1
 62
7
 10
13.844557
 20
23.126140
  0
VERTEX
  8
LAYER_1
 62
7
 10
13.889930
 20
22.913666
 42
0.074953
  0
VERTEX
  8
LAYER_1
 62
7
 10
13.163419
 20
22.817843
 42
0.069395
  0
VERTEX
  8
LAYER_1
 62
7
 10
12.491829
 20
22.519525
 42
0.070015
  0
VERTEX
  8
LAYER_1
 62
7
 10
11.927533
 20
22.049355
 42
0.076541
  0
VERTEX
  8
LAYER_1
 62
7
 10
11.522906
 20
21.437974
 42
-0.005281
  0
VERTEX
  8
LAYER_1
 62
7
 10
11.512601
 20
23.142318
 42
0.002507
  0
VERTEX
  8
LAYER_1
 62
7
 10
11.511752
 20
24.846662
 42
-0.084848
  0
VERTEX
  8
LAYER_1
 62
7
 10
11.627277
 20
25.791871
 42
-0.046811
  0
VERTEX
  8
LAYER_1
 62
7
 10
11.807665
 20
26.240162
 42
-0.055185
  0
VERTEX
  8
LAYER_1
 62
7
 10
12.070083
 20
26.636124
  0
SEQEND
  0
POLYLINE
  8
LAYER_1
 62
7
 70
1
 66
1
  0
VERTEX
  8
LAYER_1
 62
7
 10
14.365662
 20
26.408190
 42
0.072904
  0
VERTEX
  8
LAYER_1
 62
7
 10
14.123159
 20
26.542247
 42
0.050916
  0
VERTEX
  8
LAYER_1
 62
7
 10
13.856832
 20
26.611746
 42
0.027868
  0
VERTEX
  8
LAYER_1
 62
7
 10
13.578685
 20
26.639236
  0
VERTEX
  8
LAYER_1
 62
7
 10
13.438929
 20
26.644275
  0
VERTEX
  8
LAYER_1
 62
7
 10
13.300720
 20
26.647268
 42
-0.130044
  0
VERTEX
  8
LAYER_1
 62
7
 10
13.940998
 20
27.079989
 42
-0.130044
  0
VERTEX
  8
LAYER_1
 62
7
 10
14.712155
 20
27.130214
  0
VERTEX
  8
LAYER_1
 62
7
 10
14.713369
 20
27.130275
 42
0.018889
  0
VERTEX
  8
LAYER_1
 62
7
 10
14.518238
 20
26.779234
 42
0.039720
  0
VERTEX
  8
LAYER_1
 62
7
 10
14.365662
 20
26.408190
  0
SEQEND
  0
POLYLINE
  8
LAYER_1
 62
7
 70
1
 66
1
  0
VERTEX
  8
LAYER_1
 62
7
 10
13.047212
 20
24.182615
 42
-0.133096
  0
VERTEX
  8
LAYER_1
 62
7
 10
12.670137
 20
24.351393
 42
-0.114844
  0
VERTEX
  8
LAYER_1
 62
7
 10
12.413230
 20
24.685238
 42
-0.225331
  0
VERTEX
  8
LAYER_1
 62
7
 10
12.430332
 20
25.595017
 42
-0.104381
  0
VERTEX
  8
LAYER_1
 62
7
 10
12.666343
 20
25.902356
 42
-0.107484
  0
VERTEX
  8
LAYER_1
 62
7
 10
13.052195
 20
26.105581
 42
-0.106171
  0
VERTEX
  8
LAYER_1
 62
7
 10
13.528836
 20
26.139451
 42
-0.088062
  0
VERTEX
  8
LAYER_1
 62
7
 10
13.962070
 20
25.995711
 42
-0.141521
  0
VERTEX
  8
LAYER_1
 62
7
 10
14.575064
 20
25.397186
 42
-0.083303
  0
VERTEX
  8
LAYER_1
 62
7
 10
14.766564
 20
24.838478
 42
-0.073382
  0
VERTEX
  8
LAYER_1
 62
7
 10
14.779334
 20
24.236779
 42
-0.077123
  0
VERTEX
  8
LAYER_1
 62
7
 10
14.617736
 20
23.664357
 42
-0.093979
  0
VERTEX
  8
LAYER_1
 62
7
 10
14.286131
 20
23.193480
 42
-0.004335
  0
VERTEX
  8
LAYER_1
 62
7
 10
14.126644
 20
23.543369
 42
0.044601
  0
VERTEX
  8
LAYER_1
 62
7
 10
13.939879
 20
23.878709
 42
0.144177
  0
VERTEX
  8
LAYER_1
 62
7
 10
14.259398
 20
24.442580
 42
0.193251
  0
VERTEX
  8
LAYER_1
 62
7
 10
14.165379
 20
25.074102
 42
0.123538
  0
VERTEX
  8
LAYER_1
 62
7
 10
13.932916
 20
25.270892
 42
0.103149
  0
VERTEX
  8
LAYER_1
 62
7
 10
13.627028
 20
25.354340
 42
0.133476
  0
VERTEX
  8
LAYER_1
 62
7
 10
13.330870
 20
25.297306
 42
0.182820
  0
VERTEX
  8
LAYER_1
 62
7
 10
13.127594
 20
25.072647
 42
0.094218
  0
VERTEX
  8
LAYER_1
 62
7
 10
13.082621
 20
24.916953
 42
0.110081
  0
VERTEX
  8
LAYER_1
 62
7
 10
13.100513
 20
24.783831
 42
0.185780
  0
VERTEX
  8
LAYER_1
 62
7
 10
13.272835
 20
24.598854
 42
0.137543
  0
VERTEX
  8
LAYER_1
 62
7
 10
13.540450
 20
24.544813
 42
0.163059
  0
VERTEX
  8
LAYER_1
 62
7
 10
13.799245
 20
24.648804
 42
-0.157326
  0
VERTEX
  8
LAYER_1
 62
7
 10
13.740642
 20
24.398682
 42
-0.139021
  0
VERTEX
  8
LAYER_1
 62
7
 10
13.564103
 20
24.244493
 42
-0.087831
  0
VERTEX
  8
LAYER_1
 62
7
 10
13.317127
 20
24.175912
 42
-0.064927
  0
VERTEX
  8
LAYER_1
 62
7
 10
13.047212
 20
24.182615
  0
SEQEND
  0
POLYLINE
  8
LAYER_1
 62
7
 70
1
 66
1
  0
VERTEX
  8
LAYER_1
 62
7
 10
18.802922
 20
22.858867
 42
-0.132654
  0
VERTEX
  8
LAYER_1
 62
7
 10
19.353821
 20
21.940378
 42
-0.075369
  0
VERTEX
  8
LAYER_1
 62
7
 10
19.421183
 20
21.407392
 42
-0.086947
  0
VERTEX
  8
LAYER_1
 62
7
 10
19.314055
 20
20.876406
 42
-0.095408
  0
VERTEX
  8
LAYER_1
 62
7
 10
19.104106
 20
20.485199
 42
-0.080804
  0
VERTEX
  8
LAYER_1
 62
7
 10
18.770461
 20
20.188364
 42
-0.151536
  0
VERTEX
  8
LAYER_1
 62
7
 10
17.914685
 20
19.950454
 42
-0.059167
  0
VERTEX
  8
LAYER_1
 62
7
 10
17.612688
 20
19.999775
 42
-0.078579
  0
VERTEX
  8
LAYER_1
 62
7
 10
17.322016
 20
20.131759
 42
-0.131786
  0
VERTEX
  8
LAYER_1
 62
7
 10
17.119571
 20
20.356266
 42
-0.163584
  0
VERTEX
  8
LAYER_1
 62
7
 10
17.082257
 20
20.683156
 42
-0.114069
  0
VERTEX
  8
LAYER_1
 62
7
 10
17.141980
 20
20.821122
 42
0.199588
  0
VERTEX
  8
LAYER_1
 62
7
 10
17.449353
 20
20.611821
 42
0.199588
  0
VERTEX
  8
LAYER_1
 62
7
 10
17.814698
 20
20.681165
 42
0.199588
  0
VERTEX
  8
LAYER_1
 62
7
 10
18.023998
 20
20.988539
 42
0.199588
  0
VERTEX
  8
LAYER_1
 62
7
 10
17.954654
 20
21.353883
 42
0.218341
  0
VERTEX
  8
LAYER_1
 62
7
 10
17.626927
 20
21.566969
 42
0.029699
  0
VERTEX
  8
LAYER_1
 62
7
 10
18.006738
 20
21.806609
 42
0.042028
  0
VERTEX
  8
LAYER_1
 62
7
 10
18.348588
 20
22.097622
 42
0.057114
  0
VERTEX
  8
LAYER_1
 62
7
 10
18.623605
 20
22.446283
 42
0.070993
  0
VERTEX
  8
LAYER_1
 62
7
 10
18.802922
 20
22.858867
  0
SEQEND
  0
ENDSEC
  0
EOF
