  0
SECTION
  2
HEADER
  9
$EXTMIN
 10
0.000000
 20
0.000000
  9
$EXTMAX
 10
39.370079
 20
27.559055
  9
$LTSCALE
 40
100.000000
  9
$PDMODE
 70
35
  9
$PDSIZE
 40
80.000000
  0
ENDSEC
  0
SECTION
  2
TABLES
  0
TABLE
  2
LAYER
 70
1
  0
LAYER
  2
LAYER_1
 70
0
 62
1
  6
CONTINUOUS
  0
ENDTAB
  0
ENDSEC
  0
SECTION
  2
BLOCKS
  0
ENDSEC
  0
SECTION
  2
ENTITIES
  0
POLYLINE
  8
LAYER_1
 62
0
 70
1
 66
1
  0
VERTEX
  8
LAYER_1
 62
7
 10
32.823659
 20
26.918147
  0
VERTEX
  8
LAYER_1
 62
7
 10
6.546420
 20
26.918147
  0
VERTEX
  8
LAYER_1
 62
7
 10
6.546420
 20
0.640908
  0
VERTEX
  8
LAYER_1
 62
7
 10
32.823659
 20
0.640908
  0
VERTEX
  8
LAYER_1
 62
7
 10
32.823659
 20
26.918147
  0
SEQEND
  0
POLYLINE
  8
LAYER_1
 62
7
 70
1
 66
1
  0
VERTEX
  8
LAYER_1
 62
7
 10
6.546420
 20
26.918147
  0
VERTEX
  8
LAYER_1
 62
7
 10
7.010476
 20
26.918147
  0
VERTEX
  8
LAYER_1
 62
7
 10
7.167154
 20
26.769155
 42
-0.038985
  0
VERTEX
  8
LAYER_1
 62
7
 10
7.309248
 20
26.606762
 42
-0.019305
  0
VERTEX
  8
LAYER_1
 62
7
 10
7.312467
 20
26.417960
  0
VERTEX
  8
LAYER_1
 62
7
 10
7.306621
 20
26.229158
  0
VERTEX
  8
LAYER_1
 62
7
 10
7.109968
 20
26.217694
 42
-0.072792
  0
VERTEX
  8
LAYER_1
 62
7
 10
6.915090
 20
26.235201
 42
-0.055699
  0
VERTEX
  8
LAYER_1
 62
7
 10
6.722773
 20
26.378478
  0
VERTEX
  8
LAYER_1
 62
7
 10
6.546420
 20
26.542645
  0
VERTEX
  8
LAYER_1
 62
7
 10
6.546420
 20
26.918147
  0
SEQEND
  0
POLYLINE
  8
LAYER_1
 62
7
 70
1
 66
1
  0
VERTEX
  8
LAYER_1
 62
7
 10
7.457452
 20
26.918147
  0
VERTEX
  8
LAYER_1
 62
7
 10
9.613237
 20
26.918147
 42
0.014573
  0
VERTEX
  8
LAYER_1
 62
7
 10
9.246800
 20
26.602196
 42
0.041278
  0
VERTEX
  8
LAYER_1
 62
7
 10
8.918204
 20
26.247815
 42
0.048236
  0
VERTEX
  8
LAYER_1
 62
7
 10
8.260484
 20
26.286475
 42
0.007313
  0
VERTEX
  8
LAYER_1
 62
7
 10
7.601188
 20
26.252019
  0
VERTEX
  8
LAYER_1
 62
7
 10
7.607552
 20
26.427198
 42
0.035161
  0
VERTEX
  8
LAYER_1
 62
7
 10
7.599086
 20
26.604791
 42
0.068518
  0
VERTEX
  8
LAYER_1
 62
7
 10
7.555737
 20
26.772530
 42
0.099151
  0
VERTEX
  8
LAYER_1
 62
7
 10
7.457452
 20
26.918147
  0
SEQEND
  0
POLYLINE
  8
LAYER_1
 62
7
 70
1
 66
1
  0
VERTEX
  8
LAYER_1
 62
7
 10
10.033410
 20
26.918147
  0
VERTEX
  8
LAYER_1
 62
7
 10
12.187618
 20
26.918147
 42
0.020342
  0
VERTEX
  8
LAYER_1
 62
7
 10
12.105928
 20
26.805713
 42
0.097035
  0
VERTEX
  8
LAYER_1
 62
7
 10
12.052815
 20
26.678498
 42
0.065214
  0
VERTEX
  8
LAYER_1
 62
7
 10
12.034159
 20
26.258325
  0
VERTEX
  8
LAYER_1
 62
7
 10
11.707524
 20
26.274166
 42
0.006525
  0
VERTEX
  8
LAYER_1
 62
7
 10
11.380447
 20
26.287887
 42
0.042642
  0
VERTEX
  8
LAYER_1
 62
7
 10
10.727917
 20
26.257537
 42
0.040343
  0
VERTEX
  8
LAYER_1
 62
7
 10
10.400667
 20
26.608535
 42
0.019730
  0
VERTEX
  8
LAYER_1
 62
7
 10
10.033410
 20
26.918147
  0
SEQEND
  0
POLYLINE
  8
LAYER_1
 62
7
 70
1
 66
1
  0
VERTEX
  8
LAYER_1
 62
7
 10
12.626710
 20
26.918147
  0
VERTEX
  8
LAYER_1
 62
7
 10
13.588983
 20
26.918147
 42
-0.021676
  0
VERTEX
  8
LAYER_1
 62
7
 10
13.754595
 20
26.772998
 42
-0.067183
  0
VERTEX
  8
LAYER_1
 62
7
 10
13.891434
 20
26.602032
 42
-0.073316
  0
VERTEX
  8
LAYER_1
 62
7
 10
13.903718
 20
26.415562
  0
VERTEX
  8
LAYER_1
 62
7
 10
13.886441
 20
26.228107
  0
VERTEX
  8
LAYER_1
 62
7
 10
13.825865
 20
26.225799
 42
-0.015666
  0
VERTEX
  8
LAYER_1
 62
7
 10
13.637399
 20
26.216380
 42
-0.068524
  0
VERTEX
  8
LAYER_1
 62
7
 10
13.516548
 20
26.233612
 42
-0.111616
  0
VERTEX
  8
LAYER_1
 62
7
 10
13.409246
 20
26.293537
 42
-0.008549
  0
VERTEX
  8
LAYER_1
 62
7
 10
13.190341
 20
26.486502
  0
VERTEX
  8
LAYER_1
 62
7
 10
13.116781
 20
26.550266
  0
VERTEX
  8
LAYER_1
 62
7
 10
12.939245
 20
26.410175
 42
-0.023285
  0
VERTEX
  8
LAYER_1
 62
7
 10
12.755206
 20
26.279347
 42
-0.096997
  0
VERTEX
  8
LAYER_1
 62
7
 10
12.657175
 20
26.234081
 42
-0.059238
  0
VERTEX
  8
LAYER_1
 62
7
 10
12.550375
 20
26.221701
 42
-0.013021
  0
VERTEX
  8
LAYER_1
 62
7
 10
12.385586
 20
26.230039
  0
VERTEX
  8
LAYER_1
 62
7
 10
12.332142
 20
26.232048
  0
VERTEX
  8
LAYER_1
 62
7
 10
12.325080
 20
26.412113
 42
-0.052047
  0
VERTEX
  8
LAYER_1
 62
7
 10
12.335559
 20
26.590995
 42
-0.066231
  0
VERTEX
  8
LAYER_1
 62
7
 10
12.470098
 20
26.763538
  0
VERTEX
  8
LAYER_1
 62
7
 10
12.626710
 20
26.918147
  0
SEQEND
  0
POLYLINE
  8
LAYER_1
 62
7
 70
1
 66
1
  0
VERTEX
  8
LAYER_1
 62
7
 10
14.044105
 20
26.918147
  0
VERTEX
  8
LAYER_1
 62
7
 10
16.160473
 20
26.918147
  0
VERTEX
  8
LAYER_1
 62
7
 10
16.190167
 20
26.911578
 42
0.062837
  0
VERTEX
  8
LAYER_1
 62
7
 10
15.488039
 20
26.246238
 42
0.051434
  0
VERTEX
  8
LAYER_1
 62
7
 10
14.836659
 20
26.287000
 42
0.006812
  0
VERTEX
  8
LAYER_1
 62
7
 10
14.346195
 20
26.262487
  0
VERTEX
  8
LAYER_1
 62
7
 10
14.183111
 20
26.253858
 42
0.013863
  0
VERTEX
  8
LAYER_1
 62
7
 10
14.193392
 20
26.428343
 42
0.038383
  0
VERTEX
  8
LAYER_1
 62
7
 10
14.185542
 20
26.605218
 42
0.068497
  0
VERTEX
  8
LAYER_1
 62
7
 10
14.141725
 20
26.772485
 42
0.096221
  0
VERTEX
  8
LAYER_1
 62
7
 10
14.044105
 20
26.918147
  0
SEQEND
  0
POLYLINE
  8
LAYER_1
 62
7
 70
1
 66
1
  0
VERTEX
  8
LAYER_1
 62
7
 10
19.203115
 20
26.918147
  0
VERTEX
  8
LAYER_1
 62
7
 10
20.170380
 20
26.918147
  0
VERTEX
  8
LAYER_1
 62
7
 10
20.324693
 20
26.775691
 42
-0.050125
  0
VERTEX
  8
LAYER_1
 62
7
 10
20.461269
 20
26.617272
 42
-0.088556
  0
VERTEX
  8
LAYER_1
 62
7
 10
20.480419
 20
26.423379
 42
-0.012131
  0
VERTEX
  8
LAYER_1
 62
7
 10
20.460743
 20
26.227318
  0
VERTEX
  8
LAYER_1
 62
7
 10
20.269806
 20
26.217300
 42
-0.077487
  0
VERTEX
  8
LAYER_1
 62
7
 10
20.081037
 20
26.235464
 42
-0.059500
  0
VERTEX
  8
LAYER_1
 62
7
 10
19.972874
 20
26.302011
 42
-0.018629
  0
VERTEX
  8
LAYER_1
 62
7
 10
19.830644
 20
26.429793
 42
0.051710
  0
VERTEX
  8
LAYER_1
 62
7
 10
19.681098
 20
26.547375
 42
-0.032526
  0
VERTEX
  8
LAYER_1
 62
7
 10
19.342910
 20
26.285391
 42
-0.096199
  0
VERTEX
  8
LAYER_1
 62
7
 10
19.244961
 20
26.237907
 42
-0.058101
  0
VERTEX
  8
LAYER_1
 62
7
 10
19.137750
 20
26.223015
 42
-0.009987
  0
VERTEX
  8
LAYER_1
 62
7
 10
18.971853
 20
26.226383
  0
VERTEX
  8
LAYER_1
 62
7
 10
18.918007
 20
26.226267
  0
VERTEX
  8
LAYER_1
 62
7
 10
18.907364
 20
26.323329
 42
-0.015300
  0
VERTEX
  8
LAYER_1
 62
7
 10
18.897313
 20
26.421573
 42
-0.117148
  0
VERTEX
  8
LAYER_1
 62
7
 10
18.922737
 20
26.613331
 42
-0.040620
  0
VERTEX
  8
LAYER_1
 62
7
 10
19.055634
 20
26.772045
  0
VERTEX
  8
LAYER_1
 62
7
 10
19.203115
 20
26.918147
  0
SEQEND
  0
POLYLINE
  8
LAYER_1
 62
7
 70
1
 66
1
  0
VERTEX
  8
LAYER_1
 62
7
 10
9.218290
 20
26.112224
 42
-0.061578
  0
VERTEX
  8
LAYER_1
 62
7
 10
9.829498
 20
26.675608
 42
-0.022615
  0
VERTEX
  8
LAYER_1
 62
7
 10
10.141836
 20
26.418321
 42
-0.036807
  0
VERTEX
  8
LAYER_1
 62
7
 10
10.421262
 20
26.126151
 42
-0.080977
  0
VERTEX
  8
LAYER_1
 62
7
 10
10.327912
 20
26.048206
 42
0.024846
  0
VERTEX
  8
LAYER_1
 62
7
 10
10.225496
 20
25.980312
 42
0.028785
  0
VERTEX
  8
LAYER_1
 62
7
 10
10.018235
 20
25.821860
  0
VERTEX
  8
LAYER_1
 62
7
 10
9.818462
 20
25.653949
 42
0.039787
  0
VERTEX
  8
LAYER_1
 62
7
 10
9.300275
 20
26.042852
 42
0.060015
  0
VERTEX
  8
LAYER_1
 62
7
 10
9.277007
 20
26.057719
  0
VERTEX
  8
LAYER_1
 62
7
 10
9.251498
 20
26.070739
 42
-0.082966
  0
VERTEX
  8
LAYER_1
 62
7
 10
9.229880
 20
26.087158
 42
-0.150678
  0
VERTEX
  8
LAYER_1
 62
7
 10
9.218290
 20
26.112224
  0
SEQEND
  0
POLYLINE
  8
LAYER_1
 62
7
 70
1
 66
1
  0
VERTEX
  8
LAYER_1
 62
7
 10
15.875365
 20
26.208136
 42
-0.048816
  0
VERTEX
  8
LAYER_1
 62
7
 10
16.403801
 20
26.677447
 42
-0.047738
  0
VERTEX
  8
LAYER_1
 62
7
 10
17.006600
 20
26.119844
 42
0.045176
  0
VERTEX
  8
LAYER_1
 62
7
 10
16.399333
 20
25.654212
  0
VERTEX
  8
LAYER_1
 62
7
 10
16.302695
 20
25.729455
  0
VERTEX
  8
LAYER_1
 62
7
 10
16.207411
 20
25.806423
 42
0.024156
  0
VERTEX
  8
LAYER_1
 62
7
 10
16.010956
 20
25.952721
  0
VERTEX
  8
LAYER_1
 62
7
 10
15.955827
 20
25.989673
  0
VERTEX
  8
LAYER_1
 62
7
 10
15.899442
 20
26.024852
 42
-0.038222
  0
VERTEX
  8
LAYER_1
 62
7
 10
15.791278
 20
26.101713
 42
-0.079083
  0
VERTEX
  8
LAYER_1
 62
7
 10
15.828986
 20
26.157979
  0
VERTEX
  8
LAYER_1
 62
7
 10
15.875365
 20
26.208136
  0
SEQEND
  0
POLYLINE
  8
LAYER_1
 62
7
 70
1
 66
1
  0
VERTEX
  8
LAYER_1
 62
7
 10
22.373726
 20
26.097509
 42
-0.071930
  0
VERTEX
  8
LAYER_1
 62
7
 10
22.993869
 20
26.674820
 42
-0.016236
  0
VERTEX
  8
LAYER_1
 62
7
 10
23.303612
 20
26.417730
 42
-0.037385
  0
VERTEX
  8
LAYER_1
 62
7
 10
23.583793
 20
26.129304
 42
-0.176990
  0
VERTEX
  8
LAYER_1
 62
7
 10
23.552195
 20
26.089888
  0
VERTEX
  8
LAYER_1
 62
7
 10
23.508378
 20
26.061509
 42
0.039643
  0
VERTEX
  8
LAYER_1
 62
7
 10
23.006745
 20
25.673131
 42
-0.243929
  0
VERTEX
  8
LAYER_1
 62
7
 10
22.978657
 20
25.663117
 42
-0.130431
  0
VERTEX
  8
LAYER_1
 62
7
 10
22.952121
 20
25.677171
 42
0.042089
  0
VERTEX
  8
LAYER_1
 62
7
 10
22.902424
 20
25.720430
 42
0.041947
  0
VERTEX
  8
LAYER_1
 62
7
 10
22.373726
 20
26.097509
  0
SEQEND
  0
POLYLINE
  8
LAYER_1
 62
7
 70
1
 66
1
  0
VERTEX
  8
LAYER_1
 62
7
 10
6.546420
 20
26.102764
 42
0.025679
  0
VERTEX
  8
LAYER_1
 62
7
 10
6.715974
 20
25.975057
 42
0.116105
  0
VERTEX
  8
LAYER_1
 62
7
 10
6.911936
 20
25.900167
 42
0.029301
  0
VERTEX
  8
LAYER_1
 62
7
 10
7.097749
 20
25.892776
  0
VERTEX
  8
LAYER_1
 62
7
 10
7.283759
 20
25.896225
  0
VERTEX
  8
LAYER_1
 62
7
 10
7.260615
 20
25.575134
 42
0.010709
  0
VERTEX
  8
LAYER_1
 62
7
 10
7.245625
 20
25.253155
 42
0.047894
  0
VERTEX
  8
LAYER_1
 62
7
 10
7.285336
 20
24.611268
 42
0.046239
  0
VERTEX
  8
LAYER_1
 62
7
 10
6.881586
 20
24.230872
 42
0.037778
  0
VERTEX
  8
LAYER_1
 62
7
 10
6.546420
 20
23.788002
  0
VERTEX
  8
LAYER_1
 62
7
 10
6.546420
 20
26.102764
  0
SEQEND
  0
POLYLINE
  8
LAYER_1
 62
7
 70
1
 66
1
  0
VERTEX
  8
LAYER_1
 62
7
 10
12.790680
 20
25.931174
 42
0.051146
  0
VERTEX
  8
LAYER_1
 62
7
 10
12.943384
 20
26.015524
  0
VERTEX
  8
LAYER_1
 62
7
 10
13.086825
 20
26.115640
  0
VERTEX
  8
LAYER_1
 62
7
 10
13.115204
 20
26.113801
 42
-0.011494
  0
VERTEX
  8
LAYER_1
 62
7
 10
13.255065
 20
26.006852
 42
0.080969
  0
VERTEX
  8
LAYER_1
 62
7
 10
13.407933
 20
25.920400
 42
0.086160
  0
VERTEX
  8
LAYER_1
 62
7
 10
13.635165
 20
25.892908
  0
VERTEX
  8
LAYER_1
 62
7
 10
13.750629
 20
25.894423
 42
-0.034386
  0
VERTEX
  8
LAYER_1
 62
7
 10
13.865157
 20
25.887291
  0
VERTEX
  8
LAYER_1
 62
7
 10
13.837988
 20
25.607393
 42
0.011526
  0
VERTEX
  8
LAYER_1
 62
7
 10
13.819270
 20
25.326436
 42
0.047228
  0
VERTEX
  8
LAYER_1
 62
7
 10
13.843346
 20
24.764990
  0
VERTEX
  8
LAYER_1
 62
7
 10
13.853069
 20
24.687374
 42
-0.095367
  0
VERTEX
  8
LAYER_1
 62
7
 10
13.851755
 20
24.610743
 42
0.043881
  0
VERTEX
  8
LAYER_1
 62
7
 10
13.451619
 20
24.224007
 42
0.024892
  0
VERTEX
  8
LAYER_1
 62
7
 10
13.107847
 20
23.785637
 42
0.054032
  0
VERTEX
  8
LAYER_1
 62
7
 10
12.643002
 20
24.367941
  0
VERTEX
  8
LAYER_1
 62
7
 10
12.507904
 20
24.499327
 42
0.044794
  0
VERTEX
  8
LAYER_1
 62
7
 10
12.360785
 20
24.616524
 42
0.046063
  0
VERTEX
  8
LAYER_1
 62
7
 10
12.403091
 20
25.236929
  0
VERTEX
  8
LAYER_1
 62
7
 10
12.400036
 20
25.365031
 42
-0.086916
  0
VERTEX
  8
LAYER_1
 62
7
 10
12.418069
 20
25.490767
 42
-0.111375
  0
VERTEX
  8
LAYER_1
 62
7
 10
12.376452
 20
25.692281
 42
0.026845
  0
VERTEX
  8
LAYER_1
 62
7
 10
12.368142
 20
25.902269
 42
0.030524
  0
VERTEX
  8
LAYER_1
 62
7
 10
12.581579
 20
25.893860
 42
0.078055
  0
VERTEX
  8
LAYER_1
 62
7
 10
12.790680
 20
25.931174
  0
SEQEND
  0
POLYLINE
  8
LAYER_1
 62
7
 70
1
 66
1
  0
VERTEX
  8
LAYER_1
 62
7
 10
19.365508
 20
25.929860
 42
0.049805
  0
VERTEX
  8
LAYER_1
 62
7
 10
19.529347
 20
26.023637
 42
-0.019384
  0
VERTEX
  8
LAYER_1
 62
7
 10
19.687667
 20
26.127465
  0
VERTEX
  8
LAYER_1
 62
7
 10
19.750359
 20
26.072311
  0
VERTEX
  8
LAYER_1
 62
7
 10
19.815145
 20
26.019104
 42
0.053605
  0
VERTEX
  8
LAYER_1
 62
7
 10
19.956220
 20
25.929860
 42
0.085669
  0
VERTEX
  8
LAYER_1
 62
7
 10
20.198924
 20
25.892218
  0
VERTEX
  8
LAYER_1
 62
7
 10
20.323121
 20
25.893942
 42
-0.011739
  0
VERTEX
  8
LAYER_1
 62
7
 10
20.446554
 20
25.895174
 42
0.012373
  0
VERTEX
  8
LAYER_1
 62
7
 10
20.405528
 20
25.253976
 42
0.053330
  0
VERTEX
  8
LAYER_1
 62
7
 10
20.448656
 20
24.614159
 42
0.046665
  0
VERTEX
  8
LAYER_1
 62
7
 10
20.038501
 20
24.223350
 42
0.030300
  0
VERTEX
  8
LAYER_1
 62
7
 10
19.692397
 20
23.773812
 42
0.057275
  0
VERTEX
  8
LAYER_1
 62
7
 10
19.147407
 20
24.433371
 42
0.055810
  0
VERTEX
  8
LAYER_1
 62
7
 10
18.932722
 20
24.617837
 42
0.061297
  0
VERTEX
  8
LAYER_1
 62
7
 10
18.969510
 20
25.366739
 42
0.031379
  0
VERTEX
  8
LAYER_1
 62
7
 10
18.955846
 20
25.632237
 42
-0.028411
  0
VERTEX
  8
LAYER_1
 62
7
 10
18.940605
 20
25.897539
 42
0.012208
  0
VERTEX
  8
LAYER_1
 62
7
 10
19.155027
 20
25.894583
 42
0.078183
  0
VERTEX
  8
LAYER_1
 62
7
 10
19.365508
 20
25.929860
  0
SEQEND
  0
POLYLINE
  8
LAYER_1
 62
7
 70
1
 66
1
  0
VERTEX
  8
LAYER_1
 62
7
 10
10.930777
 20
25.953509
 42
-0.023589
  0
VERTEX
  8
LAYER_1
 62
7
 10
11.500993
 20
25.956203
 42
-0.009271
  0
VERTEX
  8
LAYER_1
 62
7
 10
12.070421
 20
25.921451
 42
-0.045601
  0
VERTEX
  8
LAYER_1
 62
7
 10
12.092231
 20
24.819384
 42
0.064294
  0
VERTEX
  8
LAYER_1
 62
7
 10
11.640755
 20
25.023000
 42
0.089823
  0
VERTEX
  8
LAYER_1
 62
7
 10
11.150455
 20
25.080580
 42
0.109206
  0
VERTEX
  8
LAYER_1
 62
7
 10
11.063215
 20
25.651584
 42
0.037346
  0
VERTEX
  8
LAYER_1
 62
7
 10
10.997489
 20
25.802744
 42
-0.034121
  0
VERTEX
  8
LAYER_1
 62
7
 10
10.930777
 20
25.953509
  0
SEQEND
  0
POLYLINE
  8
LAYER_1
 62
7
 70
1
 66
1
  0
VERTEX
  8
LAYER_1
 62
7
 10
21.023339
 20
25.941422
  0
VERTEX
  8
LAYER_1
 62
7
 10
21.236308
 20
25.949900
  0
VERTEX
  8
LAYER_1
 62
7
 10
21.449425
 20
25.956039
 42
-0.024795
  0
VERTEX
  8
LAYER_1
 62
7
 10
21.875510
 20
25.944838
 42
0.035865
  0
VERTEX
  8
LAYER_1
 62
7
 10
21.710653
 20
25.524698
 42
0.105143
  0
VERTEX
  8
LAYER_1
 62
7
 10
21.668971
 20
25.078740
 42
0.093767
  0
VERTEX
  8
LAYER_1
 62
7
 10
21.173776
 20
25.022704
 42
0.065218
  0
VERTEX
  8
LAYER_1
 62
7
 10
20.718786
 20
24.814917
 42
-0.032730
  0
VERTEX
  8
LAYER_1
 62
7
 10
20.702724
 20
25.184210
  0
VERTEX
  8
LAYER_1
 62
7
 10
20.709326
 20
25.554095
 42
-0.019706
  0
VERTEX
  8
LAYER_1
 62
7
 10
20.727425
 20
25.729397
 42
0.069769
  0
VERTEX
  8
LAYER_1
 62
7
 10
20.727983
 20
25.904897
 42
-0.071669
  0
VERTEX
  8
LAYER_1
 62
7
 10
20.873986
 20
25.932028
  0
VERTEX
  8
LAYER_1
 62
7
 10
21.023339
 20
25.941422
  0
SEQEND
  0
POLYLINE
  8
LAYER_1
 62
7
 70
1
 66
1
  0
VERTEX
  8
LAYER_1
 62
7
 10
24.094623
 20
25.952196
 42
-0.025549
  0
VERTEX
  8
LAYER_1
 62
7
 10
24.663525
 20
25.956794
 42
-0.009821
  0
VERTEX
  8
LAYER_1
 62
7
 10
25.231639
 20
25.921188
 42
-0.035027
  0
VERTEX
  8
LAYER_1
 62
7
 10
25.258967
 20
25.549366
 42
-0.053552
  0
VERTEX
  8
LAYER_1
 62
7
 10
25.251610
 20
24.817019
 42
0.066871
  0
VERTEX
  8
LAYER_1
 62
7
 10
24.802860
 20
25.022408
 42
0.091140
  0
VERTEX
  8
LAYER_1
 62
7
 10
24.314300
 20
25.079003
 42
0.042210
  0
VERTEX
  8
LAYER_1
 62
7
 10
24.300078
 20
25.360826
 42
0.057609
  0
VERTEX
  8
LAYER_1
 62
7
 10
24.230476
 20
25.633978
 42
0.036866
  0
VERTEX
  8
LAYER_1
 62
7
 10
24.162944
 20
25.793284
 42
-0.034334
  0
VERTEX
  8
LAYER_1
 62
7
 10
24.094623
 20
25.952196
  0
SEQEND
  0
POLYLINE
  8
LAYER_1
 62
7
 70
1
 66
1
  0
VERTEX
  8
LAYER_1
 62
7
 10
7.574911
 20
25.914882
 42
-0.024070
  0
VERTEX
  8
LAYER_1
 62
7
 10
7.968019
 20
25.946415
  0
VERTEX
  8
LAYER_1
 62
7
 10
8.346050
 20
25.957287
 42
-0.033613
  0
VERTEX
  8
LAYER_1
 62
7
 10
8.723489
 20
25.940371
 42
0.022485
  0
VERTEX
  8
LAYER_1
 62
7
 10
8.611515
 20
25.703876
 42
0.045033
  0
VERTEX
  8
LAYER_1
 62
7
 10
8.532454
 20
25.454767
  0
VERTEX
  8
LAYER_1
 62
7
 10
8.499082
 20
25.459760
  0
VERTEX
  8
LAYER_1
 62
7
 10
8.529300
 20
25.452928
 42
0.063628
  0
VERTEX
  8
LAYER_1
 62
7
 10
8.505651
 20
25.081368
 42
0.092250
  0
VERTEX
  8
LAYER_1
 62
7
 10
8.010686
 20
25.021850
 42
0.059989
  0
VERTEX
  8
LAYER_1
 62
7
 10
7.554152
 20
24.816493
 42
-0.034069
  0
VERTEX
  8
LAYER_1
 62
7
 10
7.537532
 20
25.365885
 42
-0.015081
  0
VERTEX
  8
LAYER_1
 62
7
 10
7.574911
 20
25.914882
  0
SEQEND
  0
POLYLINE
  8
LAYER_1
 62
7
 70
1
 66
1
  0
VERTEX
  8
LAYER_1
 62
7
 10
14.144484
 20
25.914356
 42
-0.044644
  0
VERTEX
  8
LAYER_1
 62
7
 10
15.292273
 20
25.943787
 42
0.006085
  0
VERTEX
  8
LAYER_1
 62
7
 10
15.175044
 20
25.675529
 42
0.060630
  0
VERTEX
  8
LAYER_1
 62
7
 10
15.094669
 20
25.394855
 42
0.053104
  0
VERTEX
  8
LAYER_1
 62
7
 10
15.078902
 20
25.079266
 42
0.093833
  0
VERTEX
  8
LAYER_1
 62
7
 10
14.583116
 20
25.021850
 42
0.061631
  0
VERTEX
  8
LAYER_1
 62
7
 10
14.126352
 20
24.815442
  0
VERTEX
  8
LAYER_1
 62
7
 10
14.112294
 20
25.065142
 42
-0.026789
  0
VERTEX
  8
LAYER_1
 62
7
 10
14.114002
 20
25.315235
 42
-0.032573
  0
VERTEX
  8
LAYER_1
 62
7
 10
14.125892
 20
25.614796
 42
0.021391
  0
VERTEX
  8
LAYER_1
 62
7
 10
14.144484
 20
25.914356
  0
SEQEND
  0
POLYLINE
  8
LAYER_1
 62
7
 70
1
 66
1
  0
VERTEX
  8
LAYER_1
 62
7
 10
17.504817
 20
25.953509
 42
-0.021821
  0
VERTEX
  8
LAYER_1
 62
7
 10
18.072668
 20
25.956104
 42
-0.010306
  0
VERTEX
  8
LAYER_1
 62
7
 10
18.639731
 20
25.922240
 42
-0.055303
  0
VERTEX
  8
LAYER_1
 62
7
 10
18.662592
 20
25.711759
 42
0.017689
  0
VERTEX
  8
LAYER_1
 62
7
 10
18.674220
 20
25.461173
 42
-0.020050
  0
VERTEX
  8
LAYER_1
 62
7
 10
18.684665
 20
25.210389
  0
VERTEX
  8
LAYER_1
 62
7
 10
18.682653
 20
25.112716
  0
VERTEX
  8
LAYER_1
 62
7
 10
18.677044
 20
25.015116
 42
0.018407
  0
VERTEX
  8
LAYER_1
 62
7
 10
18.669424
 20
24.819647
 42
0.056158
  0
VERTEX
  8
LAYER_1
 62
7
 10
18.217390
 20
25.022014
 42
0.098428
  0
VERTEX
  8
LAYER_1
 62
7
 10
17.727911
 20
25.077952
 42
0.033793
  0
VERTEX
  8
LAYER_1
 62
7
 10
17.715462
 20
25.345421
 42
0.058527
  0
VERTEX
  8
LAYER_1
 62
7
 10
17.654334
 20
25.605599
 42
0.038752
  0
VERTEX
  8
LAYER_1
 62
7
 10
17.582532
 20
25.780835
 42
-0.021741
  0
VERTEX
  8
LAYER_1
 62
7
 10
17.504817
 20
25.953509
  0
SEQEND
  0
POLYLINE
  8
LAYER_1
 62
7
 70
1
 66
1
  0
VERTEX
  8
LAYER_1
 62
7
 10
27.289147
 20
24.816231
 42
-0.046105
  0
VERTEX
  8
LAYER_1
 62
7
 10
27.307486
 20
25.918988
 42
-0.039646
  0
VERTEX
  8
LAYER_1
 62
7
 10
28.450863
 20
25.946152
  0
VERTEX
  8
LAYER_1
 62
7
 10
28.450863
 20
25.946152
 42
0.037064
  0
VERTEX
  8
LAYER_1
 62
7
 10
28.284627
 20
25.526833
 42
0.102861
  0
VERTEX
  8
LAYER_1
 62
7
 10
28.240383
 20
25.081105
 42
0.092307
  0
VERTEX
  8
LAYER_1
 62
7
 10
27.745352
 20
25.021981
 42
0.060917
  0
VERTEX
  8
LAYER_1
 62
7
 10
27.289147
 20
24.816231
  0
VERTEX
  8
LAYER_1
 62
7
 10
27.289147
 20
24.816231
  0
SEQEND
  0
POLYLINE
  8
LAYER_1
 62
7
 70
1
 66
1
  0
VERTEX
  8
LAYER_1
 62
7
 10
10.447539
 20
25.746970
  0
VERTEX
  8
LAYER_1
 62
7
 10
10.531462
 20
25.807704
 42
-0.069937
  0
VERTEX
  8
LAYER_1
 62
7
 10
10.623071
 20
25.855233
 42
-0.076572
  0
VERTEX
  8
LAYER_1
 62
7
 10
10.807340
 20
25.473720
 42
-0.088141
  0
VERTEX
  8
LAYER_1
 62
7
 10
10.859566
 20
25.053777
 42
0.058102
  0
VERTEX
  8
LAYER_1
 62
7
 10
10.312868
 20
24.904982
 42
0.077911
  0
VERTEX
  8
LAYER_1
 62
7
 10
9.826871
 20
24.616261
 42
0.073064
  0
VERTEX
  8
LAYER_1
 62
7
 10
9.343993
 20
24.903077
 42
0.064234
  0
VERTEX
  8
LAYER_1
 62
7
 10
8.801007
 20
25.049572
 42
-0.090736
  0
VERTEX
  8
LAYER_1
 62
7
 10
8.813587
 20
25.358297
 42
-0.056713
  0
VERTEX
  8
LAYER_1
 62
7
 10
8.915050
 20
25.651847
  0
VERTEX
  8
LAYER_1
 62
7
 10
8.967145
 20
25.754985
 42
-0.076444
  0
VERTEX
  8
LAYER_1
 62
7
 10
9.036977
 20
25.846298
  0
VERTEX
  8
LAYER_1
 62
7
 10
9.223451
 20
25.710966
  0
VERTEX
  8
LAYER_1
 62
7
 10
9.408373
 20
25.573442
 42
-0.022203
  0
VERTEX
  8
LAYER_1
 62
7
 10
9.763805
 20
25.280287
 42
-0.045620
  0
VERTEX
  8
LAYER_1
 62
7
 10
9.782503
 20
25.264204
  0
VERTEX
  8
LAYER_1
 62
7
 10
9.802827
 20
25.246028
 42
0.142107
  0
VERTEX
  8
LAYER_1
 62
7
 10
9.824333
 20
25.236572
 42
0.233067
  0
VERTEX
  8
LAYER_1
 62
7
 10
9.846578
 20
25.246652
 42
-0.023234
  0
VERTEX
  8
LAYER_1
 62
7
 10
10.447539
 20
25.746970
  0
SEQEND
  0
POLYLINE
  8
LAYER_1
 62
7
 70
1
 66
1
  0
VERTEX
  8
LAYER_1
 62
7
 10
16.401436
 20
25.235090
  0
VERTEX
  8
LAYER_1
 62
7
 10
16.784722
 20
25.562471
 42
-0.032217
  0
VERTEX
  8
LAYER_1
 62
7
 10
17.188702
 20
25.863641
 42
-0.078097
  0
VERTEX
  8
LAYER_1
 62
7
 10
17.378128
 20
25.477793
 42
-0.093548
  0
VERTEX
  8
LAYER_1
 62
7
 10
17.427825
 20
25.051937
 42
0.058904
  0
VERTEX
  8
LAYER_1
 62
7
 10
16.884805
 20
24.904719
 42
0.078233
  0
VERTEX
  8
LAYER_1
 62
7
 10
16.402487
 20
24.617575
 42
0.071463
  0
VERTEX
  8
LAYER_1
 62
7
 10
15.916916
 20
24.903077
 42
0.059835
  0
VERTEX
  8
LAYER_1
 62
7
 10
15.373207
 20
25.053777
 42
-0.108645
  0
VERTEX
  8
LAYER_1
 62
7
 10
15.417616
 20
25.466461
 42
-0.055080
  0
VERTEX
  8
LAYER_1
 62
7
 10
15.592885
 20
25.846036
 42
-0.032517
  0
VERTEX
  8
LAYER_1
 62
7
 10
16.007310
 20
25.553570
  0
VERTEX
  8
LAYER_1
 62
7
 10
16.401436
 20
25.235090
  0
SEQEND
  0
POLYLINE
  8
LAYER_1
 62
7
 70
1
 66
1
  0
VERTEX
  8
LAYER_1
 62
7
 10
7.675027
 20
24.499853
 42
-0.086408
  0
VERTEX
  8
LAYER_1
 62
7
 10
8.085215
 20
24.704684
 42
-0.103103
  0
VERTEX
  8
LAYER_1
 62
7
 10
8.541125
 20
24.745545
 42
0.126323
  0
VERTEX
  8
LAYER_1
 62
7
 10
8.957619
 20
23.736762
 42
0.076015
  0
VERTEX
  8
LAYER_1
 62
7
 10
8.676683
 20
23.262556
 42
0.061736
  0
VERTEX
  8
LAYER_1
 62
7
 10
8.534293
 20
22.729029
 42
-0.164544
  0
VERTEX
  8
LAYER_1
 62
7
 10
7.699991
 20
22.955277
 42
-0.065504
  0
VERTEX
  8
LAYER_1
 62
7
 10
7.822114
 20
23.117341
 42
0.015325
  0
VERTEX
  8
LAYER_1
 62
7
 10
7.960398
 20
23.267187
 42
-0.027597
  0
VERTEX
  8
LAYER_1
 62
7
 10
8.166839
 20
23.480197
 42
0.019164
  0
VERTEX
  8
LAYER_1
 62
7
 10
8.376630
 20
23.689463
 42
-0.028438
  0
VERTEX
  8
LAYER_1
 62
7
 10
7.684750
 20
24.460437
  0
VERTEX
  8
LAYER_1
 62
7
 10
7.675027
 20
24.499853
  0
SEQEND
  0
POLYLINE
  8
LAYER_1
 62
7
 70
1
 66
1
  0
VERTEX
  8
LAYER_1
 62
7
 10
11.120236
 20
24.751326
 42
-0.096626
  0
VERTEX
  8
LAYER_1
 62
7
 10
11.562285
 20
24.703797
 42
-0.064614
  0
VERTEX
  8
LAYER_1
 62
7
 10
11.968465
 20
24.518509
 42
-0.109525
  0
VERTEX
  8
LAYER_1
 62
7
 10
11.907437
 20
24.400886
 42
0.007895
  0
VERTEX
  8
LAYER_1
 62
7
 10
11.823152
 20
24.296467
  0
VERTEX
  8
LAYER_1
 62
7
 10
11.557916
 20
23.983932
 42
-0.018634
  0
VERTEX
  8
LAYER_1
 62
7
 10
11.280265
 20
23.682630
 42
-0.005807
  0
VERTEX
  8
LAYER_1
 62
7
 10
11.642923
 20
23.339680
 42
-0.032236
  0
VERTEX
  8
LAYER_1
 62
7
 10
11.978188
 20
22.970517
 42
-0.162918
  0
VERTEX
  8
LAYER_1
 62
7
 10
11.122601
 20
22.726139
 42
0.088944
  0
VERTEX
  8
LAYER_1
 62
7
 10
10.868500
 20
23.487128
 42
0.029474
  0
VERTEX
  8
LAYER_1
 62
7
 10
10.782738
 20
23.613029
  0
VERTEX
  8
LAYER_1
 62
7
 10
10.737282
 20
23.674144
  0
VERTEX
  8
LAYER_1
 62
7
 10
10.694019
 20
23.736762
 42
0.069064
  0
VERTEX
  8
LAYER_1
 62
7
 10
10.968518
 20
24.217635
 42
0.052163
  0
VERTEX
  8
LAYER_1
 62
7
 10
11.120236
 20
24.751326
  0
SEQEND
  0
POLYLINE
  8
LAYER_1
 62
7
 70
1
 66
1
  0
VERTEX
  8
LAYER_1
 62
7
 10
14.430117
 20
24.610743
 42
-0.151263
  0
VERTEX
  8
LAYER_1
 62
7
 10
15.114114
 20
24.747647
 42
0.057841
  0
VERTEX
  8
LAYER_1
 62
7
 10
15.261759
 20
24.210836
 42
0.067332
  0
VERTEX
  8
LAYER_1
 62
7
 10
15.536914
 20
23.727827
 42
0.096881
  0
VERTEX
  8
LAYER_1
 62
7
 10
15.248160
 20
23.260388
 42
0.047007
  0
VERTEX
  8
LAYER_1
 62
7
 10
15.101501
 20
22.726927
 42
-0.078858
  0
VERTEX
  8
LAYER_1
 62
7
 10
14.699492
 20
22.767033
 42
-0.065070
  0
VERTEX
  8
LAYER_1
 62
7
 10
14.324483
 20
22.919277
 42
-0.078830
  0
VERTEX
  8
LAYER_1
 62
7
 10
14.269038
 20
22.971306
 42
-0.019007
  0
VERTEX
  8
LAYER_1
 62
7
 10
14.600492
 20
23.336986
 42
-0.010662
  0
VERTEX
  8
LAYER_1
 62
7
 10
14.953034
 20
23.682368
 42
-0.026257
  0
VERTEX
  8
LAYER_1
 62
7
 10
14.239870
 20
24.485400
 42
-0.104293
  0
VERTEX
  8
LAYER_1
 62
7
 10
14.328293
 20
24.557038
  0
VERTEX
  8
LAYER_1
 62
7
 10
14.430117
 20
24.610743
  0
SEQEND
  0
POLYLINE
  8
LAYER_1
 62
7
 70
1
 66
1
  0
VERTEX
  8
LAYER_1
 62
7
 10
17.685604
 20
24.745808
 42
-0.104132
  0
VERTEX
  8
LAYER_1
 62
7
 10
18.138722
 20
24.704552
 42
-0.078313
  0
VERTEX
  8
LAYER_1
 62
7
 10
18.549863
 20
24.504845
 42
-0.026088
  0
VERTEX
  8
LAYER_1
 62
7
 10
18.217751
 20
24.081716
 42
-0.009986
  0
VERTEX
  8
LAYER_1
 62
7
 10
17.855881
 20
23.683419
  0
VERTEX
  8
LAYER_1
 62
7
 10
18.035161
 20
23.512970
 42
-0.004843
  0
VERTEX
  8
LAYER_1
 62
7
 10
18.214664
 20
23.342275
 42
-0.038738
  0
VERTEX
  8
LAYER_1
 62
7
 10
18.545658
 20
22.974722
 42
-0.102490
  0
VERTEX
  8
LAYER_1
 62
7
 10
18.490378
 20
22.926470
  0
VERTEX
  8
LAYER_1
 62
7
 10
18.425046
 20
22.891423
 42
-0.059865
  0
VERTEX
  8
LAYER_1
 62
7
 10
18.068102
 20
22.758164
 42
-0.089493
  0
VERTEX
  8
LAYER_1
 62
7
 10
17.689283
 20
22.735073
 42
0.068499
  0
VERTEX
  8
LAYER_1
 62
7
 10
17.552839
 20
23.261538
 42
0.080548
  0
VERTEX
  8
LAYER_1
 62
7
 10
17.269373
 20
23.724937
 42
-0.160883
  0
VERTEX
  8
LAYER_1
 62
7
 10
17.285041
 20
23.764714
 42
0.025492
  0
VERTEX
  8
LAYER_1
 62
7
 10
17.311154
 20
23.800352
 42
0.069546
  0
VERTEX
  8
LAYER_1
 62
7
 10
17.556419
 20
24.249529
 42
0.053696
  0
VERTEX
  8
LAYER_1
 62
7
 10
17.685604
 20
24.745808
  0
SEQEND
  0
POLYLINE
  8
LAYER_1
 62
7
 70
1
 66
1
  0
VERTEX
  8
LAYER_1
 62
7
 10
20.851223
 20
24.513254
 42
-0.169783
  0
VERTEX
  8
LAYER_1
 62
7
 10
21.694985
 20
24.753953
 42
0.048598
  0
VERTEX
  8
LAYER_1
 62
7
 10
21.845948
 20
24.217602
 42
0.076473
  0
VERTEX
  8
LAYER_1
 62
7
 10
22.123830
 20
23.736236
 42
0.078170
  0
VERTEX
  8
LAYER_1
 62
7
 10
21.837835
 20
23.263213
 42
0.059365
  0
VERTEX
  8
LAYER_1
 62
7
 10
21.689993
 20
22.729292
 42
-0.089223
  0
VERTEX
  8
LAYER_1
 62
7
 10
21.254809
 20
22.775934
 42
-0.068790
  0
VERTEX
  8
LAYER_1
 62
7
 10
20.854114
 20
22.955014
 42
-0.031305
  0
VERTEX
  8
LAYER_1
 62
7
 10
21.181922
 20
23.333932
 42
-0.016057
  0
VERTEX
  8
LAYER_1
 62
7
 10
21.544417
 20
23.680528
  0
VERTEX
  8
LAYER_1
 62
7
 10
21.370581
 20
23.863052
  0
VERTEX
  8
LAYER_1
 62
7
 10
21.198444
 20
24.047326
 42
-0.020948
  0
VERTEX
  8
LAYER_1
 62
7
 10
20.871982
 20
24.431269
 42
-0.010771
  0
VERTEX
  8
LAYER_1
 62
7
 10
20.843866
 20
24.472656
 42
-0.143487
  0
VERTEX
  8
LAYER_1
 62
7
 10
20.837912
 20
24.494753
 42
-0.130847
  0
VERTEX
  8
LAYER_1
 62
7
 10
20.841510
 20
24.504666
 42
-0.109262
  0
VERTEX
  8
LAYER_1
 62
7
 10
20.851223
 20
24.513254
  0
SEQEND
  0
POLYLINE
  8
LAYER_1
 62
7
 70
1
 66
1
  0
VERTEX
  8
LAYER_1
 62
7
 10
24.250972
 20
24.631239
 42
0.034236
  0
VERTEX
  8
LAYER_1
 62
7
 10
24.256938
 20
24.661113
  0
VERTEX
  8
LAYER_1
 62
7
 10
24.261253
 20
24.691874
 42
-0.130730
  0
VERTEX
  8
LAYER_1
 62
7
 10
24.282768
 20
24.748172
 42
-0.105083
  0
VERTEX
  8
LAYER_1
 62
7
 10
24.725244
 20
24.704585
 42
-0.063444
  0
VERTEX
  8
LAYER_1
 62
7
 10
25.131260
 20
24.516933
 42
-0.125013
  0
VERTEX
  8
LAYER_1
 62
7
 10
25.085800
 20
24.423452
  0
VERTEX
  8
LAYER_1
 62
7
 10
25.019056
 20
24.342189
 42
-0.016550
  0
VERTEX
  8
LAYER_1
 62
7
 10
24.736510
 20
24.003081
  0
VERTEX
  8
LAYER_1
 62
7
 10
24.444898
 20
23.671857
 42
-0.038857
  0
VERTEX
  8
LAYER_1
 62
7
 10
25.071085
 20
23.055393
  0
VERTEX
  8
LAYER_1
 62
7
 10
25.108103
 20
23.009440
 42
-0.092323
  0
VERTEX
  8
LAYER_1
 62
7
 10
25.133888
 20
22.956590
 42
-0.058835
  0
VERTEX
  8
LAYER_1
 62
7
 10
24.722616
 20
22.775704
 42
-0.100817
  0
VERTEX
  8
LAYER_1
 62
7
 10
24.278038
 20
22.732183
 42
0.063217
  0
VERTEX
  8
LAYER_1
 62
7
 10
24.147374
 20
23.244950
 42
0.077700
  0
VERTEX
  8
LAYER_1
 62
7
 10
23.880726
 20
23.700762
 42
-0.080873
  0
VERTEX
  8
LAYER_1
 62
7
 10
23.866680
 20
23.718893
 42
-0.120557
  0
VERTEX
  8
LAYER_1
 62
7
 10
23.861971
 20
23.737024
 42
-0.120575
  0
VERTEX
  8
LAYER_1
 62
7
 10
23.866573
 20
23.755156
 42
-0.080897
  0
VERTEX
  8
LAYER_1
 62
7
 10
23.880463
 20
23.773287
 42
0.065972
  0
VERTEX
  8
LAYER_1
 62
7
 10
24.115382
 20
24.180387
 42
0.050249
  0
VERTEX
  8
LAYER_1
 62
7
 10
24.250972
 20
24.631239
  0
SEQEND
  0
POLYLINE
  8
LAYER_1
 62
7
 70
1
 66
1
  0
VERTEX
  8
LAYER_1
 62
7
 10
27.389911
 20
24.496593
  0
VERTEX
  8
LAYER_1
 62
7
 10
27.484081
 20
24.552668
 42
-0.069494
  0
VERTEX
  8
LAYER_1
 62
7
 10
27.865027
 20
24.716912
 42
-0.105347
  0
VERTEX
  8
LAYER_1
 62
7
 10
28.276383
 20
24.741866
 42
0.062474
  0
VERTEX
  8
LAYER_1
 62
7
 10
28.419035
 20
24.213135
 42
0.071595
  0
VERTEX
  8
LAYER_1
 62
7
 10
28.695504
 20
23.740966
 42
0.123919
  0
VERTEX
  8
LAYER_1
 62
7
 10
28.285937
 20
22.844126
  0
VERTEX
  8
LAYER_1
 62
7
 10
28.263890
 20
22.728968
  0
VERTEX
  8
LAYER_1
 62
7
 10
28.189598
 20
22.727139
 42
-0.081967
  0
VERTEX
  8
LAYER_1
 62
7
 10
27.793504
 20
22.785570
 42
-0.062542
  0
VERTEX
  8
LAYER_1
 62
7
 10
27.428942
 20
22.953963
 42
-0.037550
  0
VERTEX
  8
LAYER_1
 62
7
 10
27.755141
 20
23.332946
 42
-0.002825
  0
VERTEX
  8
LAYER_1
 62
7
 10
28.111099
 20
23.684733
  0
VERTEX
  8
LAYER_1
 62
7
 10
27.783566
 20
24.032865
 42
-0.018643
  0
VERTEX
  8
LAYER_1
 62
7
 10
27.470975
 20
24.394333
  0
VERTEX
  8
LAYER_1
 62
7
 10
27.389911
 20
24.496593
  0
SEQEND
  0
POLYLINE
  8
LAYER_1
 62
7
 70
1
 66
1
  0
VERTEX
  8
LAYER_1
 62
7
 10
10.532677
 20
24.639910
  0
VERTEX
  8
LAYER_1
 62
7
 10
10.672538
 20
24.683530
 42
-0.097531
  0
VERTEX
  8
LAYER_1
 62
7
 10
10.816734
 20
24.697983
 42
-0.024511
  0
VERTEX
  8
LAYER_1
 62
7
 10
10.711100
 20
24.383444
 42
-0.055024
  0
VERTEX
  8
LAYER_1
 62
7
 10
10.557378
 20
24.090190
 42
-0.046741
  0
VERTEX
  8
LAYER_1
 62
7
 10
10.414397
 20
23.906020
  0
VERTEX
  8
LAYER_1
 62
7
 10
10.253087
 20
23.737024
  0
VERTEX
  8
LAYER_1
 62
7
 10
10.384901
 20
23.607510
 42
-0.028198
  0
VERTEX
  8
LAYER_1
 62
7
 10
10.508239
 20
23.470310
 42
-0.060216
  0
VERTEX
  8
LAYER_1
 62
7
 10
10.699735
 20
23.132516
 42
-0.049481
  0
VERTEX
  8
LAYER_1
 62
7
 10
10.813581
 20
22.760825
 42
-0.045450
  0
VERTEX
  8
LAYER_1
 62
7
 10
10.389729
 20
22.896875
 42
-0.078239
  0
VERTEX
  8
LAYER_1
 62
7
 10
10.013176
 20
23.131071
 42
-0.028827
  0
VERTEX
  8
LAYER_1
 62
7
 10
9.921403
 20
23.220480
  0
VERTEX
  8
LAYER_1
 62
7
 10
9.876896
 20
23.266613
  0
VERTEX
  8
LAYER_1
 62
7
 10
9.830024
 20
23.310282
 42
0.047116
  0
VERTEX
  8
LAYER_1
 62
7
 10
9.763050
 20
23.250797
  0
VERTEX
  8
LAYER_1
 62
7
 10
9.701003
 20
23.185991
 42
-0.065731
  0
VERTEX
  8
LAYER_1
 62
7
 10
9.407420
 20
22.968021
 42
-0.054605
  0
VERTEX
  8
LAYER_1
 62
7
 10
9.070086
 20
22.825730
 42
0.013295
  0
VERTEX
  8
LAYER_1
 62
7
 10
8.957160
 20
22.787299
 42
-0.107413
  0
VERTEX
  8
LAYER_1
 62
7
 10
8.840686
 20
22.770548
 42
-0.077355
  0
VERTEX
  8
LAYER_1
 62
7
 10
9.037929
 20
23.303581
 42
-0.096450
  0
VERTEX
  8
LAYER_1
 62
7
 10
9.402493
 20
23.737287
  0
VERTEX
  8
LAYER_1
 62
7
 10
9.342458
 20
23.800537
  0
VERTEX
  8
LAYER_1
 62
7
 10
9.280895
 20
23.862334
 42
-0.031728
  0
VERTEX
  8
LAYER_1
 62
7
 10
9.164421
 20
23.991914
 42
-0.114150
  0
VERTEX
  8
LAYER_1
 62
7
 10
8.840949
 20
24.707180
 42
-0.181778
  0
VERTEX
  8
LAYER_1
 62
7
 10
9.825031
 20
24.167708
 42
-0.135890
  0
VERTEX
  8
LAYER_1
 62
7
 10
10.532677
 20
24.639910
  0
SEQEND
  0
POLYLINE
  8
LAYER_1
 62
7
 70
1
 66
1
  0
VERTEX
  8
LAYER_1
 62
7
 10
15.422083
 20
24.713487
 42
-0.107205
  0
VERTEX
  8
LAYER_1
 62
7
 10
16.133671
 20
24.416028
 42
-0.049268
  0
VERTEX
  8
LAYER_1
 62
7
 10
16.273695
 20
24.298142
  0
VERTEX
  8
LAYER_1
 62
7
 10
16.338571
 20
24.233151
  0
VERTEX
  8
LAYER_1
 62
7
 10
16.404852
 20
24.169810
 42
-0.098000
  0
VERTEX
  8
LAYER_1
 62
7
 10
16.839839
 20
24.522845
 42
-0.069088
  0
VERTEX
  8
LAYER_1
 62
7
 10
17.368438
 20
24.715851
  0
VERTEX
  8
LAYER_1
 62
7
 10
17.370540
 20
24.643589
 42
-0.154002
  0
VERTEX
  8
LAYER_1
 62
7
 10
16.827390
 20
23.740178
  0
VERTEX
  8
LAYER_1
 62
7
 10
16.985611
 20
23.582777
 42
-0.051677
  0
VERTEX
  8
LAYER_1
 62
7
 10
17.125899
 20
23.409610
 42
-0.100630
  0
VERTEX
  8
LAYER_1
 62
7
 10
17.382102
 20
22.760037
 42
-0.054756
  0
VERTEX
  8
LAYER_1
 62
7
 10
16.861813
 20
22.944503
 42
-0.064261
  0
VERTEX
  8
LAYER_1
 62
7
 10
16.615989
 20
23.108046
 42
-0.028888
  0
VERTEX
  8
LAYER_1
 62
7
 10
16.404063
 20
23.314749
  0
VERTEX
  8
LAYER_1
 62
7
 10
16.251655
 20
23.163491
 42
-0.053298
  0
VERTEX
  8
LAYER_1
 62
7
 10
16.082693
 20
23.031743
 42
-0.055439
  0
VERTEX
  8
LAYER_1
 62
7
 10
15.763884
 20
22.866886
 42
-0.034508
  0
VERTEX
  8
LAYER_1
 62
7
 10
15.420244
 20
22.761350
 42
-0.112796
  0
VERTEX
  8
LAYER_1
 62
7
 10
15.698520
 20
23.441143
 42
-0.044888
  0
VERTEX
  8
LAYER_1
 62
7
 10
15.829150
 20
23.597459
  0
VERTEX
  8
LAYER_1
 62
7
 10
15.974168
 20
23.740966
  0
VERTEX
  8
LAYER_1
 62
7
 10
15.812891
 20
23.906184
 42
-0.050639
  0
VERTEX
  8
LAYER_1
 62
7
 10
15.670928
 20
24.087563
 42
-0.039856
  0
VERTEX
  8
LAYER_1
 62
7
 10
15.512904
 20
24.387714
 42
-0.067089
  0
VERTEX
  8
LAYER_1
 62
7
 10
15.422083
 20
24.713487
  0
SEQEND
  0
POLYLINE
  8
LAYER_1
 62
7
 70
1
 66
1
  0
VERTEX
  8
LAYER_1
 62
7
 10
22.986249
 20
24.169285
 42
-0.172124
  0
VERTEX
  8
LAYER_1
 62
7
 10
23.971908
 20
24.711384
 42
-0.084816
  0
VERTEX
  8
LAYER_1
 62
7
 10
23.773186
 20
24.178942
 42
-0.078384
  0
VERTEX
  8
LAYER_1
 62
7
 10
23.414831
 20
23.736762
 42
-0.176212
  0
VERTEX
  8
LAYER_1
 62
7
 10
23.972434
 20
22.758986
 42
-0.056891
  0
VERTEX
  8
LAYER_1
 62
7
 10
23.475695
 20
22.932580
 42
-0.099334
  0
VERTEX
  8
LAYER_1
 62
7
 10
23.057986
 20
23.247479
 42
-0.064160
  0
VERTEX
  8
LAYER_1
 62
7
 10
23.040417
 20
23.264252
 42
0.071221
  0
VERTEX
  8
LAYER_1
 62
7
 10
23.005476
 20
23.300654
 42
0.165006
  0
VERTEX
  8
LAYER_1
 62
7
 10
22.983621
 20
23.306340
  0
VERTEX
  8
LAYER_1
 62
7
 10
22.936363
 20
23.261640
  0
VERTEX
  8
LAYER_1
 62
7
 10
22.891322
 20
23.214600
 42
-0.036053
  0
VERTEX
  8
LAYER_1
 62
7
 10
22.797053
 20
23.125027
 42
-0.076555
  0
VERTEX
  8
LAYER_1
 62
7
 10
22.425887
 20
22.897959
 42
-0.038552
  0
VERTEX
  8
LAYER_1
 62
7
 10
22.011363
 20
22.760562
 42
-0.084443
  0
VERTEX
  8
LAYER_1
 62
7
 10
22.176647
 20
23.264100
 42
-0.092013
  0
VERTEX
  8
LAYER_1
 62
7
 10
22.503536
 20
23.680528
 42
0.023082
  0
VERTEX
  8
LAYER_1
 62
7
 10
22.557142
 20
23.737550
 42
0.049110
  0
VERTEX
  8
LAYER_1
 62
7
 10
22.443065
 20
23.863089
 42
-0.046075
  0
VERTEX
  8
LAYER_1
 62
7
 10
22.328004
 20
23.988235
 42
-0.049770
  0
VERTEX
  8
LAYER_1
 62
7
 10
22.126655
 20
24.331908
 42
-0.064988
  0
VERTEX
  8
LAYER_1
 62
7
 10
22.008473
 20
24.711647
 42
-0.080862
  0
VERTEX
  8
LAYER_1
 62
7
 10
22.545251
 20
24.525604
 42
-0.093489
  0
VERTEX
  8
LAYER_1
 62
7
 10
22.986249
 20
24.169285
  0
SEQEND
  0
POLYLINE
  8
LAYER_1
 62
7
 70
1
 66
1
  0
VERTEX
  8
LAYER_1
 62
7
 10
28.575680
 20
24.701662
 42
-0.099050
  0
VERTEX
  8
LAYER_1
 62
7
 10
29.115480
 20
24.527871
 42
-0.089019
  0
VERTEX
  8
LAYER_1
 62
7
 10
29.557135
 20
24.169022
 42
-0.082477
  0
VERTEX
  8
LAYER_1
 62
7
 10
30.004407
 20
24.525769
 42
-0.098240
  0
VERTEX
  8
LAYER_1
 62
7
 10
30.545685
 20
24.702976
 42
-0.113342
  0
VERTEX
  8
LAYER_1
 62
7
 10
30.216168
 20
23.982717
 42
-0.026095
  0
VERTEX
  8
LAYER_1
 62
7
 10
30.160596
 20
23.917824
  0
VERTEX
  8
LAYER_1
 62
7
 10
30.100713
 20
23.856750
 42
0.040303
  0
VERTEX
  8
LAYER_1
 62
7
 10
29.987031
 20
23.729404
 42
-0.096991
  0
VERTEX
  8
LAYER_1
 62
7
 10
30.353500
 20
23.296881
 42
-0.085209
  0
VERTEX
  8
LAYER_1
 62
7
 10
30.544371
 20
22.761876
 42
-0.045913
  0
VERTEX
  8
LAYER_1
 62
7
 10
30.146665
 20
22.887580
 42
-0.065535
  0
VERTEX
  8
LAYER_1
 62
7
 10
29.786798
 20
23.097436
 42
-0.026966
  0
VERTEX
  8
LAYER_1
 62
7
 10
29.673083
 20
23.202939
  0
VERTEX
  8
LAYER_1
 62
7
 10
29.566069
 20
23.315537
  0
VERTEX
  8
LAYER_1
 62
7
 10
29.502224
 20
23.254254
  0
VERTEX
  8
LAYER_1
 62
7
 10
29.439807
 20
23.191443
 42
-0.042694
  0
VERTEX
  8
LAYER_1
 62
7
 10
29.306450
 20
23.075626
 42
-0.065169
  0
VERTEX
  8
LAYER_1
 62
7
 10
28.959262
 20
22.880452
 42
-0.038828
  0
VERTEX
  8
LAYER_1
 62
7
 10
28.578571
 20
22.760562
 42
-0.179276
  0
VERTEX
  8
LAYER_1
 62
7
 10
29.134334
 20
23.737024
 42
0.024429
  0
VERTEX
  8
LAYER_1
 62
7
 10
29.079641
 20
23.798566
  0
VERTEX
  8
LAYER_1
 62
7
 10
29.021178
 20
23.856487
 42
-0.036921
  0
VERTEX
  8
LAYER_1
 62
7
 10
28.909401
 20
23.976936
 42
-0.110963
  0
VERTEX
  8
LAYER_1
 62
7
 10
28.575680
 20
24.701662
  0
SEQEND
  0
POLYLINE
  8
LAYER_1
 62
7
 70
1
 66
1
  0
VERTEX
  8
LAYER_1
 62
7
 10
6.891703
 20
23.739389
 42
-0.020152
  0
VERTEX
  8
LAYER_1
 62
7
 10
7.139826
 20
24.042234
 42
-0.047581
  0
VERTEX
  8
LAYER_1
 62
7
 10
7.425394
 20
24.308029
 42
0.031708
  0
VERTEX
  8
LAYER_1
 62
7
 10
7.658111
 20
23.997760
  0
VERTEX
  8
LAYER_1
 62
7
 10
7.912311
 20
23.704441
 42
-0.113981
  0
VERTEX
  8
LAYER_1
 62
7
 10
7.919535
 20
23.693257
 42
-0.133891
  0
VERTEX
  8
LAYER_1
 62
7
 10
7.920141
 20
23.682376
 42
-0.133572
  0
VERTEX
  8
LAYER_1
 62
7
 10
7.907548
 20
23.661543
 42
0.032039
  0
VERTEX
  8
LAYER_1
 62
7
 10
7.869479
 20
23.623769
 42
0.039319
  0
VERTEX
  8
LAYER_1
 62
7
 10
7.442474
 20
23.153932
 42
-0.054644
  0
VERTEX
  8
LAYER_1
 62
7
 10
6.891703
 20
23.739389
  0
SEQEND
  0
POLYLINE
  8
LAYER_1
 62
7
 70
1
 66
1
  0
VERTEX
  8
LAYER_1
 62
7
 10
12.213895
 20
24.312496
 42
-0.064610
  0
VERTEX
  8
LAYER_1
 62
7
 10
12.506656
 20
24.047950
 42
-0.005056
  0
VERTEX
  8
LAYER_1
 62
7
 10
12.699099
 20
23.820720
  0
VERTEX
  8
LAYER_1
 62
7
 10
12.763352
 20
23.745959
 42
-0.034486
  0
VERTEX
  8
LAYER_1
 62
7
 10
12.509711
 20
23.441077
 42
-0.018435
  0
VERTEX
  8
LAYER_1
 62
7
 10
12.224931
 20
23.164181
 42
0.054480
  0
VERTEX
  8
LAYER_1
 62
7
 10
11.796612
 20
23.625609
 42
-0.031534
  0
VERTEX
  8
LAYER_1
 62
7
 10
11.750102
 20
23.671725
 42
-0.172044
  0
VERTEX
  8
LAYER_1
 62
7
 10
11.740297
 20
23.697962
 42
-0.126214
  0
VERTEX
  8
LAYER_1
 62
7
 10
11.744577
 20
23.711421
 42
-0.091356
  0
VERTEX
  8
LAYER_1
 62
7
 10
11.757196
 20
23.724937
  0
VERTEX
  8
LAYER_1
 62
7
 10
11.877037
 20
23.867257
  0
VERTEX
  8
LAYER_1
 62
7
 10
11.995400
 20
24.011129
 42
0.027734
  0
VERTEX
  8
LAYER_1
 62
7
 10
12.213895
 20
24.312496
  0
SEQEND
  0
POLYLINE
  8
LAYER_1
 62
7
 70
1
 66
1
  0
VERTEX
  8
LAYER_1
 62
7
 10
13.979988
 20
24.306715
 42
-0.101180
  0
VERTEX
  8
LAYER_1
 62
7
 10
14.056980
 20
24.226208
 42
0.026146
  0
VERTEX
  8
LAYER_1
 62
7
 10
14.122148
 20
24.134073
 42
0.027573
  0
VERTEX
  8
LAYER_1
 62
7
 10
14.509737
 20
23.692353
  0
VERTEX
  8
LAYER_1
 62
7
 10
14.297220
 20
23.478621
 42
0.028581
  0
VERTEX
  8
LAYER_1
 62
7
 10
14.096922
 20
23.254049
  0
VERTEX
  8
LAYER_1
 62
7
 10
14.056126
 20
23.202939
 42
-0.060845
  0
VERTEX
  8
LAYER_1
 62
7
 10
14.009419
 20
23.157348
 42
-0.015262
  0
VERTEX
  8
LAYER_1
 62
7
 10
13.723391
 20
23.435132
 42
-0.035503
  0
VERTEX
  8
LAYER_1
 62
7
 10
13.467319
 20
23.739915
 42
-0.045829
  0
VERTEX
  8
LAYER_1
 62
7
 10
13.979988
 20
24.306715
  0
SEQEND
  0
POLYLINE
  8
LAYER_1
 62
7
 70
1
 66
1
  0
VERTEX
  8
LAYER_1
 62
7
 10
18.332550
 20
23.727302
 42
0.019956
  0
VERTEX
  8
LAYER_1
 62
7
 10
18.805277
 20
24.320905
 42
-0.006468
  0
VERTEX
  8
LAYER_1
 62
7
 10
19.083258
 20
24.042859
 42
-0.051865
  0
VERTEX
  8
LAYER_1
 62
7
 10
19.326355
 20
23.735448
 42
-0.065984
  0
VERTEX
  8
LAYER_1
 62
7
 10
19.225943
 20
23.599200
 42
0.010239
  0
VERTEX
  8
LAYER_1
 62
7
 10
19.110356
 20
23.473989
 42
-0.024498
  0
VERTEX
  8
LAYER_1
 62
7
 10
18.960149
 20
23.316556
  0
VERTEX
  8
LAYER_1
 62
7
 10
18.882101
 20
23.240635
  0
VERTEX
  8
LAYER_1
 62
7
 10
18.805803
 20
23.162867
 42
0.014248
  0
VERTEX
  8
LAYER_1
 62
7
 10
18.596965
 20
23.405241
 42
0.029141
  0
VERTEX
  8
LAYER_1
 62
7
 10
18.368024
 20
23.628499
 42
-0.048797
  0
VERTEX
  8
LAYER_1
 62
7
 10
18.322105
 20
23.674058
 42
-0.181982
  0
VERTEX
  8
LAYER_1
 62
7
 10
18.314074
 20
23.700150
 42
-0.118679
  0
VERTEX
  8
LAYER_1
 62
7
 10
18.319222
 20
23.713647
 42
-0.083590
  0
VERTEX
  8
LAYER_1
 62
7
 10
18.332550
 20
23.727302
  0
SEQEND
  0
POLYLINE
  8
LAYER_1
 62
7
 70
1
 66
1
  0
VERTEX
  8
LAYER_1
 62
7
 10
26.626960
 20
23.736499
 42
-0.062400
  0
VERTEX
  8
LAYER_1
 62
7
 10
27.155396
 20
24.310394
 42
0.028176
  0
VERTEX
  8
LAYER_1
 62
7
 10
27.397902
 20
23.991092
 42
0.009281
  0
VERTEX
  8
LAYER_1
 62
7
 10
27.663860
 20
23.690514
 42
-0.030985
  0
VERTEX
  8
LAYER_1
 62
7
 10
27.575864
 20
23.596507
  0
VERTEX
  8
LAYER_1
 62
7
 10
27.482547
 20
23.507624
 42
0.021203
  0
VERTEX
  8
LAYER_1
 62
7
 10
27.250523
 20
23.244560
  0
VERTEX
  8
LAYER_1
 62
7
 10
27.176680
 20
23.153932
 42
-0.051348
  0
VERTEX
  8
LAYER_1
 62
7
 10
26.626960
 20
23.736499
  0
SEQEND
  0
POLYLINE
  8
LAYER_1
 62
7
 70
1
 66
1
  0
VERTEX
  8
LAYER_1
 62
7
 10
20.558232
 20
24.288321
 42
-0.111232
  0
VERTEX
  8
LAYER_1
 62
7
 10
20.569606
 20
24.296557
 42
-0.154541
  0
VERTEX
  8
LAYER_1
 62
7
 10
20.580149
 20
24.297350
 42
-0.107044
  0
VERTEX
  8
LAYER_1
 62
7
 10
20.589965
 20
24.292372
 42
-0.052743
  0
VERTEX
  8
LAYER_1
 62
7
 10
20.599159
 20
24.283295
  0
VERTEX
  8
LAYER_1
 62
7
 10
20.616099
 20
24.259535
 42
0.056682
  0
VERTEX
  8
LAYER_1
 62
7
 10
20.631808
 20
24.239445
 42
0.020822
  0
VERTEX
  8
LAYER_1
 62
7
 10
20.854475
 20
23.959724
  0
VERTEX
  8
LAYER_1
 62
7
 10
21.089558
 20
23.690251
 42
-0.009889
  0
VERTEX
  8
LAYER_1
 62
7
 10
20.839957
 20
23.429876
 42
0.041596
  0
VERTEX
  8
LAYER_1
 62
7
 10
20.607108
 20
23.153932
 42
-0.037539
  0
VERTEX
  8
LAYER_1
 62
7
 10
20.317697
 20
23.428759
 42
-0.007197
  0
VERTEX
  8
LAYER_1
 62
7
 10
20.053709
 20
23.728616
 42
-0.040901
  0
VERTEX
  8
LAYER_1
 62
7
 10
20.287938
 20
24.024432
 42
-0.023116
  0
VERTEX
  8
LAYER_1
 62
7
 10
20.558232
 20
24.288321
  0
SEQEND
  0
POLYLINE
  8
LAYER_1
 62
7
 70
1
 66
1
  0
VERTEX
  8
LAYER_1
 62
7
 10
24.887670
 20
23.690514
 42
0.024966
  0
VERTEX
  8
LAYER_1
 62
7
 10
25.389040
 20
24.318802
 42
-0.051289
  0
VERTEX
  8
LAYER_1
 62
7
 10
25.909329
 20
23.755681
 42
-0.171806
  0
VERTEX
  8
LAYER_1
 62
7
 10
25.914572
 20
23.732089
 42
-0.110353
  0
VERTEX
  8
LAYER_1
 62
7
 10
25.905946
 20
23.710616
 42
-0.031975
  0
VERTEX
  8
LAYER_1
 62
7
 10
25.890668
 20
23.690719
  0
VERTEX
  8
LAYER_1
 62
7
 10
25.875957
 20
23.671857
 42
-0.023709
  0
VERTEX
  8
LAYER_1
 62
7
 10
25.642549
 20
23.413092
  0
VERTEX
  8
LAYER_1
 62
7
 10
25.397711
 20
23.164969
 42
0.042063
  0
VERTEX
  8
LAYER_1
 62
7
 10
24.887670
 20
23.690514
  0
SEQEND
  0
POLYLINE
  8
LAYER_1
 62
7
 70
1
 66
1
  0
VERTEX
  8
LAYER_1
 62
7
 10
12.448025
 20
22.934517
 42
0.038351
  0
VERTEX
  8
LAYER_1
 62
7
 10
12.806874
 20
23.299016
 42
0.022925
  0
VERTEX
  8
LAYER_1
 62
7
 10
13.118620
 20
23.704703
 42
0.035843
  0
VERTEX
  8
LAYER_1
 62
7
 10
13.368747
 20
23.357581
 42
0.023073
  0
VERTEX
  8
LAYER_1
 62
7
 10
13.658092
 20
23.041991
 42
0.026407
  0
VERTEX
  8
LAYER_1
 62
7
 10
13.710006
 20
22.992771
  0
VERTEX
  8
LAYER_1
 62
7
 10
13.765172
 20
22.946802
 42
-0.050720
  0
VERTEX
  8
LAYER_1
 62
7
 10
13.868310
 20
22.848065
 42
0.036760
  0
VERTEX
  8
LAYER_1
 62
7
 10
13.820670
 20
22.505287
 42
0.024426
  0
VERTEX
  8
LAYER_1
 62
7
 10
13.815328
 20
22.159799
 42
0.011974
  0
VERTEX
  8
LAYER_1
 62
7
 10
13.835164
 20
21.813621
  0
VERTEX
  8
LAYER_1
 62
7
 10
13.863054
 20
21.468773
 42
0.082063
  0
VERTEX
  8
LAYER_1
 62
7
 10
13.416341
 20
21.460364
 42
0.088674
  0
VERTEX
  8
LAYER_1
 62
7
 10
13.255820
 20
21.378839
 42
0.012285
  0
VERTEX
  8
LAYER_1
 62
7
 10
13.113628
 20
21.266176
  0
VERTEX
  8
LAYER_1
 62
7
 10
12.958493
 20
21.378084
 42
0.081952
  0
VERTEX
  8
LAYER_1
 62
7
 10
12.787790
 20
21.461415
 42
0.087629
  0
VERTEX
  8
LAYER_1
 62
7
 10
12.364989
 20
21.465094
 42
0.011500
  0
VERTEX
  8
LAYER_1
 62
7
 10
12.411861
 20
22.143441
 42
0.050330
  0
VERTEX
  8
LAYER_1
 62
7
 10
12.374974
 20
22.821000
 42
-0.154801
  0
VERTEX
  8
LAYER_1
 62
7
 10
12.375155
 20
22.857583
 42
-0.107592
  0
VERTEX
  8
LAYER_1
 62
7
 10
12.393368
 20
22.886430
 42
-0.010549
  0
VERTEX
  8
LAYER_1
 62
7
 10
12.448025
 20
22.934517
  0
SEQEND
  0
POLYLINE
  8
LAYER_1
 62
7
 70
1
 66
1
  0
VERTEX
  8
LAYER_1
 62
7
 10
19.682937
 20
23.712849
 42
-0.057029
  0
VERTEX
  8
LAYER_1
 62
7
 10
19.782988
 20
23.588656
 42
0.029343
  0
VERTEX
  8
LAYER_1
 62
7
 10
19.876338
 20
23.458748
 42
0.034813
  0
VERTEX
  8
LAYER_1
 62
7
 10
20.152282
 20
23.138330
 42
0.015660
  0
VERTEX
  8
LAYER_1
 62
7
 10
20.459167
 20
22.847277
 42
0.040488
  0
VERTEX
  8
LAYER_1
 62
7
 10
20.407680
 20
22.504770
 42
0.025761
  0
VERTEX
  8
LAYER_1
 62
7
 10
20.402014
 20
22.158813
 42
0.009153
  0
VERTEX
  8
LAYER_1
 62
7
 10
20.434809
 20
21.638801
  0
VERTEX
  8
LAYER_1
 62
7
 10
20.446554
 20
21.466408
  0
VERTEX
  8
LAYER_1
 62
7
 10
20.284251
 20
21.480483
 42
0.034423
  0
VERTEX
  8
LAYER_1
 62
7
 10
20.118548
 20
21.480072
 42
0.063147
  0
VERTEX
  8
LAYER_1
 62
7
 10
19.959448
 20
21.448523
 42
0.091281
  0
VERTEX
  8
LAYER_1
 62
7
 10
19.816951
 20
21.369182
  0
VERTEX
  8
LAYER_1
 62
7
 10
19.685565
 20
21.267227
 42
0.012473
  0
VERTEX
  8
LAYER_1
 62
7
 10
19.523664
 20
21.385474
 42
0.097588
  0
VERTEX
  8
LAYER_1
 62
7
 10
19.341859
 20
21.465094
 42
0.078614
  0
VERTEX
  8
LAYER_1
 62
7
 10
18.938240
 20
21.464832
  0
VERTEX
  8
LAYER_1
 62
7
 10
18.945557
 20
21.573574
  0
VERTEX
  8
LAYER_1
 62
7
 10
18.955583
 20
21.682046
 42
0.021552
  0
VERTEX
  8
LAYER_1
 62
7
 10
18.968985
 20
21.899457
 42
0.041220
  0
VERTEX
  8
LAYER_1
 62
7
 10
18.987937
 20
22.383878
 42
0.025382
  0
VERTEX
  8
LAYER_1
 62
7
 10
18.942445
 20
22.866722
 42
0.036962
  0
VERTEX
  8
LAYER_1
 62
7
 10
19.291308
 20
23.196403
 42
0.028248
  0
VERTEX
  8
LAYER_1
 62
7
 10
19.594646
 20
23.568850
 42
0.037834
  0
VERTEX
  8
LAYER_1
 62
7
 10
19.682937
 20
23.712849
  0
SEQEND
  0
POLYLINE
  8
LAYER_1
 62
7
 70
1
 66
1
  0
VERTEX
  8
LAYER_1
 62
7
 10
26.266699
 20
23.701287
 42
0.019053
  0
VERTEX
  8
LAYER_1
 62
7
 10
26.615300
 20
23.256414
 42
0.051977
  0
VERTEX
  8
LAYER_1
 62
7
 10
27.022433
 20
22.865934
 42
0.052437
  0
VERTEX
  8
LAYER_1
 62
7
 10
26.974345
 20
22.165744
 42
0.011302
  0
VERTEX
  8
LAYER_1
 62
7
 10
26.991541
 20
21.814233
  0
VERTEX
  8
LAYER_1
 62
7
 10
27.017703
 20
21.463780
 42
0.051847
  0
VERTEX
  8
LAYER_1
 62
7
 10
26.709963
 20
21.481518
 42
0.147149
  0
VERTEX
  8
LAYER_1
 62
7
 10
26.424100
 20
21.383372
 42
0.047267
  0
VERTEX
  8
LAYER_1
 62
7
 10
26.275634
 20
21.265650
 42
-0.008484
  0
VERTEX
  8
LAYER_1
 62
7
 10
26.115704
 20
21.380941
 42
0.103196
  0
VERTEX
  8
LAYER_1
 62
7
 10
25.939022
 20
21.463518
 42
0.080340
  0
VERTEX
  8
LAYER_1
 62
7
 10
25.522002
 20
21.466145
 42
0.017237
  0
VERTEX
  8
LAYER_1
 62
7
 10
25.550710
 20
21.800326
 42
-0.010747
  0
VERTEX
  8
LAYER_1
 62
7
 10
25.575082
 20
22.134901
 42
0.040016
  0
VERTEX
  8
LAYER_1
 62
7
 10
25.570550
 20
22.499432
 42
0.006069
  0
VERTEX
  8
LAYER_1
 62
7
 10
25.532513
 20
22.861992
 42
0.027345
  0
VERTEX
  8
LAYER_1
 62
7
 10
25.930449
 20
23.255133
 42
0.045622
  0
VERTEX
  8
LAYER_1
 62
7
 10
26.266699
 20
23.701287
  0
SEQEND
  0
POLYLINE
  8
LAYER_1
 62
7
 70
1
 66
1
  0
VERTEX
  8
LAYER_1
 62
7
 10
6.546420
 20
23.657142
  0
VERTEX
  8
LAYER_1
 62
7
 10
6.556405
 20
23.683156
 42
0.033397
  0
VERTEX
  8
LAYER_1
 62
7
 10
6.888780
 20
23.245837
 42
0.048464
  0
VERTEX
  8
LAYER_1
 62
7
 10
7.287175
 20
22.868824
 42
0.047163
  0
VERTEX
  8
LAYER_1
 62
7
 10
7.241256
 20
22.168602
 42
0.017234
  0
VERTEX
  8
LAYER_1
 62
7
 10
7.285599
 20
21.467196
 42
0.071293
  0
VERTEX
  8
LAYER_1
 62
7
 10
6.865426
 20
21.467985
 42
0.100912
  0
VERTEX
  8
LAYER_1
 62
7
 10
6.696463
 20
21.396642
 42
0.013296
  0
VERTEX
  8
LAYER_1
 62
7
 10
6.546420
 20
21.288248
  0
VERTEX
  8
LAYER_1
 62
7
 10
6.546420
 20
23.657142
  0
SEQEND
  0
POLYLINE
  8
LAYER_1
 62
7
 70
1
 66
1
  0
VERTEX
  8
LAYER_1
 62
7
 10
28.527856
 20
22.422111
 42
0.059106
  0
VERTEX
  8
LAYER_1
 62
7
 10
29.075835
 20
22.576096
 42
0.072674
  0
VERTEX
  8
LAYER_1
 62
7
 10
29.564493
 20
22.866459
 42
0.077336
  0
VERTEX
  8
LAYER_1
 62
7
 10
30.047370
 20
22.575373
 42
0.058770
  0
VERTEX
  8
LAYER_1
 62
7
 10
30.591933
 20
22.423425
 42
-0.110064
  0
VERTEX
  8
LAYER_1
 62
7
 10
30.525320
 20
21.971654
 42
-0.059754
  0
VERTEX
  8
LAYER_1
 62
7
 10
30.312080
 20
21.563634
 42
-0.031467
  0
VERTEX
  8
LAYER_1
 62
7
 10
29.566332
 20
22.208215
 42
-0.021150
  0
VERTEX
  8
LAYER_1
 62
7
 10
28.775387
 20
21.610407
 42
-0.055244
  0
VERTEX
  8
LAYER_1
 62
7
 10
28.589542
 20
21.998621
 42
-0.096937
  0
VERTEX
  8
LAYER_1
 62
7
 10
28.527856
 20
22.422111
  0
SEQEND
  0
POLYLINE
  8
LAYER_1
 62
7
 70
1
 66
1
  0
VERTEX
  8
LAYER_1
 62
7
 10
8.793912
 20
22.421849
 42
0.058573
  0
VERTEX
  8
LAYER_1
 62
7
 10
9.339855
 20
22.575932
 42
0.071134
  0
VERTEX
  8
LAYER_1
 62
7
 10
9.827659
 20
22.863832
 42
0.072955
  0
VERTEX
  8
LAYER_1
 62
7
 10
10.313755
 20
22.575045
 42
0.058112
  0
VERTEX
  8
LAYER_1
 62
7
 10
10.858778
 20
22.421060
 42
-0.101401
  0
VERTEX
  8
LAYER_1
 62
7
 10
10.788289
 20
21.969749
 42
-0.065976
  0
VERTEX
  8
LAYER_1
 62
7
 10
10.573932
 20
21.563371
 42
-0.028277
  0
VERTEX
  8
LAYER_1
 62
7
 10
9.831338
 20
22.208215
 42
-0.028298
  0
VERTEX
  8
LAYER_1
 62
7
 10
9.038816
 20
21.614349
 42
-0.058128
  0
VERTEX
  8
LAYER_1
 62
7
 10
8.851328
 20
21.999770
 42
-0.102077
  0
VERTEX
  8
LAYER_1
 62
7
 10
8.793912
 20
22.421849
  0
SEQEND
  0
POLYLINE
  8
LAYER_1
 62
7
 70
1
 66
1
  0
VERTEX
  8
LAYER_1
 62
7
 10
15.372156
 20
22.422374
 42
0.058082
  0
VERTEX
  8
LAYER_1
 62
7
 10
15.916588
 20
22.577344
 42
0.069257
  0
VERTEX
  8
LAYER_1
 62
7
 10
16.404063
 20
22.863569
 42
0.074750
  0
VERTEX
  8
LAYER_1
 62
7
 10
16.885364
 20
22.575538
 42
0.060468
  0
VERTEX
  8
LAYER_1
 62
7
 10
17.426773
 20
22.425265
 42
-0.106002
  0
VERTEX
  8
LAYER_1
 62
7
 10
17.362690
 20
21.972179
 42
-0.069086
  0
VERTEX
  8
LAYER_1
 62
7
 10
17.147446
 20
21.565211
 42
-0.033916
  0
VERTEX
  8
LAYER_1
 62
7
 10
16.411947
 20
22.206375
  0
VERTEX
  8
LAYER_1
 62
7
 10
16.020054
 20
21.903596
 42
-0.018615
  0
VERTEX
  8
LAYER_1
 62
7
 10
15.617323
 20
21.615400
 42
-0.068481
  0
VERTEX
  8
LAYER_1
 62
7
 10
15.425860
 20
21.999179
 42
-0.101856
  0
VERTEX
  8
LAYER_1
 62
7
 10
15.372156
 20
22.422374
  0
SEQEND
  0
POLYLINE
  8
LAYER_1
 62
7
 70
1
 66
1
  0
VERTEX
  8
LAYER_1
 62
7
 10
21.958546
 20
22.421849
 42
0.059230
  0
VERTEX
  8
LAYER_1
 62
7
 10
22.503240
 20
22.576917
 42
0.066839
  0
VERTEX
  8
LAYER_1
 62
7
 10
22.991767
 20
22.862255
 42
0.074344
  0
VERTEX
  8
LAYER_1
 62
7
 10
23.477108
 20
22.575275
 42
0.054030
  0
VERTEX
  8
LAYER_1
 62
7
 10
24.020784
 20
22.419746
 42
-0.105045
  0
VERTEX
  8
LAYER_1
 62
7
 10
23.952167
 20
21.969880
 42
-0.062949
  0
VERTEX
  8
LAYER_1
 62
7
 10
23.739092
 20
21.564159
 42
-0.024576
  0
VERTEX
  8
LAYER_1
 62
7
 10
23.357776
 20
21.872917
  0
VERTEX
  8
LAYER_1
 62
7
 10
23.175827
 20
22.037667
  0
VERTEX
  8
LAYER_1
 62
7
 10
22.995971
 20
22.204536
  0
VERTEX
  8
LAYER_1
 62
7
 10
22.604966
 20
21.901067
 42
-0.018157
  0
VERTEX
  8
LAYER_1
 62
7
 10
22.201348
 20
21.614349
 42
-0.056575
  0
VERTEX
  8
LAYER_1
 62
7
 10
22.016684
 20
22.000362
 42
-0.099215
  0
VERTEX
  8
LAYER_1
 62
7
 10
21.958546
 20
22.421849
  0
SEQEND
  0
POLYLINE
  8
LAYER_1
 62
7
 70
1
 66
1
  0
VERTEX
  8
LAYER_1
 62
7
 10
7.536809
 20
22.557176
 42
0.012513
  0
VERTEX
  8
LAYER_1
 62
7
 10
7.542919
 20
22.613672
 42
-0.211440
  0
VERTEX
  8
LAYER_1
 62
7
 10
7.568342
 20
22.661497
 42
0.071245
  0
VERTEX
  8
LAYER_1
 62
7
 10
8.020442
 20
22.453348
 42
0.087903
  0
VERTEX
  8
LAYER_1
 62
7
 10
8.513534
 20
22.396360
 42
0.095125
  0
VERTEX
  8
LAYER_1
 62
7
 10
8.567074
 20
21.907833
 42
0.058684
  0
VERTEX
  8
LAYER_1
 62
7
 10
8.766058
 20
21.456160
 42
-0.062214
  0
VERTEX
  8
LAYER_1
 62
7
 10
8.518790
 20
21.429357
 42
-0.030537
  0
VERTEX
  8
LAYER_1
 62
7
 10
7.583057
 20
21.456948
 42
-0.028414
  0
VERTEX
  8
LAYER_1
 62
7
 10
7.555203
 20
21.845851
 42
-0.015357
  0
VERTEX
  8
LAYER_1
 62
7
 10
7.530733
 20
22.201120
 42
-0.027605
  0
VERTEX
  8
LAYER_1
 62
7
 10
7.536809
 20
22.557176
  0
SEQEND
  0
POLYLINE
  8
LAYER_1
 62
7
 70
1
 66
1
  0
VERTEX
  8
LAYER_1
 62
7
 10
11.142572
 20
22.401352
 42
0.096310
  0
VERTEX
  8
LAYER_1
 62
7
 10
11.636551
 20
22.454531
 42
0.068344
  0
VERTEX
  8
LAYER_1
 62
7
 10
12.089341
 20
22.664387
  0
VERTEX
  8
LAYER_1
 62
7
 10
12.106158
 20
22.649935
 42
-0.056684
  0
VERTEX
  8
LAYER_1
 62
7
 10
12.121727
 20
22.275484
 42
0.008736
  0
VERTEX
  8
LAYER_1
 62
7
 10
12.101428
 20
21.900245
 42
-0.015106
  0
VERTEX
  8
LAYER_1
 62
7
 10
12.084808
 20
21.681487
 42
0.024997
  0
VERTEX
  8
LAYER_1
 62
7
 10
12.072523
 20
21.462729
 42
-0.025952
  0
VERTEX
  8
LAYER_1
 62
7
 10
11.531147
 20
21.419109
 42
-0.012603
  0
VERTEX
  8
LAYER_1
 62
7
 10
10.987799
 20
21.417270
 42
-0.090973
  0
VERTEX
  8
LAYER_1
 62
7
 10
10.868238
 20
21.438817
 42
0.069287
  0
VERTEX
  8
LAYER_1
 62
7
 10
11.081346
 20
21.886844
 42
0.087706
  0
VERTEX
  8
LAYER_1
 62
7
 10
11.142572
 20
22.401352
  0
SEQEND
  0
POLYLINE
  8
LAYER_1
 62
7
 70
1
 66
1
  0
VERTEX
  8
LAYER_1
 62
7
 10
14.118995
 20
22.665701
 42
0.027659
  0
VERTEX
  8
LAYER_1
 62
7
 10
14.483821
 20
22.491910
 42
0.078131
  0
VERTEX
  8
LAYER_1
 62
7
 10
14.875254
 20
22.398725
  0
VERTEX
  8
LAYER_1
 62
7
 10
15.085997
 20
22.399776
 42
0.076070
  0
VERTEX
  8
LAYER_1
 62
7
 10
15.128435
 20
21.960946
 42
0.065649
  0
VERTEX
  8
LAYER_1
 62
7
 10
15.291485
 20
21.550495
 42
-0.043902
  0
VERTEX
  8
LAYER_1
 62
7
 10
15.334843
 20
21.453532
 42
-0.042023
  0
VERTEX
  8
LAYER_1
 62
7
 10
14.745148
 20
21.423806
 42
-0.014044
  0
VERTEX
  8
LAYER_1
 62
7
 10
14.154469
 20
21.460102
 42
-0.007533
  0
VERTEX
  8
LAYER_1
 62
7
 10
14.112294
 20
22.062507
 42
-0.032995
  0
VERTEX
  8
LAYER_1
 62
7
 10
14.118995
 20
22.665701
  0
SEQEND
  0
POLYLINE
  8
LAYER_1
 62
7
 70
1
 66
1
  0
VERTEX
  8
LAYER_1
 62
7
 10
18.591643
 20
22.622081
 42
0.032443
  0
VERTEX
  8
LAYER_1
 62
7
 10
18.613281
 20
22.634308
  0
VERTEX
  8
LAYER_1
 62
7
 10
18.635067
 20
22.647570
 42
-0.187567
  0
VERTEX
  8
LAYER_1
 62
7
 10
18.682825
 20
22.657293
 42
-0.027108
  0
VERTEX
  8
LAYER_1
 62
7
 10
18.683220
 20
22.057515
 42
-0.006420
  0
VERTEX
  8
LAYER_1
 62
7
 10
18.643410
 20
21.458525
 42
-0.042468
  0
VERTEX
  8
LAYER_1
 62
7
 10
17.441489
 20
21.426204
 42
0.067145
  0
VERTEX
  8
LAYER_1
 62
7
 10
17.653349
 20
21.891278
 42
0.085823
  0
VERTEX
  8
LAYER_1
 62
7
 10
17.715823
 20
22.397148
 42
0.081514
  0
VERTEX
  8
LAYER_1
 62
7
 10
18.170288
 20
22.443297
 42
0.069352
  0
VERTEX
  8
LAYER_1
 62
7
 10
18.591643
 20
22.622081
  0
SEQEND
  0
POLYLINE
  8
LAYER_1
 62
7
 70
1
 66
1
  0
VERTEX
  8
LAYER_1
 62
7
 10
20.712479
 20
22.665439
 42
0.023802
  0
VERTEX
  8
LAYER_1
 62
7
 10
21.011186
 20
22.515560
 42
0.059121
  0
VERTEX
  8
LAYER_1
 62
7
 10
21.329995
 20
22.417119
 42
0.068500
  0
VERTEX
  8
LAYER_1
 62
7
 10
21.501618
 20
22.398987
 42
-0.022457
  0
VERTEX
  8
LAYER_1
 62
7
 10
21.675015
 20
22.396622
 42
0.089189
  0
VERTEX
  8
LAYER_1
 62
7
 10
21.730394
 20
21.907537
 42
0.060227
  0
VERTEX
  8
LAYER_1
 62
7
 10
21.927276
 20
21.454321
 42
-0.042902
  0
VERTEX
  8
LAYER_1
 62
7
 10
21.337286
 20
21.424003
 42
-0.011429
  0
VERTEX
  8
LAYER_1
 62
7
 10
20.746114
 20
21.457737
 42
-0.008239
  0
VERTEX
  8
LAYER_1
 62
7
 10
20.701607
 20
22.061193
 42
-0.037626
  0
VERTEX
  8
LAYER_1
 62
7
 10
20.712479
 20
22.665439
  0
SEQEND
  0
POLYLINE
  8
LAYER_1
 62
7
 70
1
 66
1
  0
VERTEX
  8
LAYER_1
 62
7
 10
24.824079
 20
22.459162
 42
0.048576
  0
VERTEX
  8
LAYER_1
 62
7
 10
25.263172
 20
22.668592
 42
-0.049223
  0
VERTEX
  8
LAYER_1
 62
7
 10
25.281828
 20
22.555600
 42
-0.029757
  0
VERTEX
  8
LAYER_1
 62
7
 10
25.228223
 20
21.455897
 42
-0.015043
  0
VERTEX
  8
LAYER_1
 62
7
 10
24.631959
 20
21.417533
 42
-0.022603
  0
VERTEX
  8
LAYER_1
 62
7
 10
24.034711
 20
21.424102
 42
0.051172
  0
VERTEX
  8
LAYER_1
 62
7
 10
24.240626
 20
21.892855
 42
0.094957
  0
VERTEX
  8
LAYER_1
 62
7
 10
24.303264
 20
22.398462
 42
0.088535
  0
VERTEX
  8
LAYER_1
 62
7
 10
24.824079
 20
22.459162
  0
SEQEND
  0
POLYLINE
  8
LAYER_1
 62
7
 70
1
 66
1
  0
VERTEX
  8
LAYER_1
 62
7
 10
27.284154
 20
22.664650
 42
0.050265
  0
VERTEX
  8
LAYER_1
 62
7
 10
27.741312
 20
22.458177
 42
0.109650
  0
VERTEX
  8
LAYER_1
 62
7
 10
28.235916
 20
22.405031
 42
-0.020148
  0
VERTEX
  8
LAYER_1
 62
7
 10
28.247905
 20
22.212518
 42
0.053597
  0
VERTEX
  8
LAYER_1
 62
7
 10
28.272704
 20
22.021383
 42
0.062513
  0
VERTEX
  8
LAYER_1
 62
7
 10
28.364904
 20
21.730396
 42
0.004833
  0
VERTEX
  8
LAYER_1
 62
7
 10
28.495535
 20
21.453795
 42
-0.044882
  0
VERTEX
  8
LAYER_1
 62
7
 10
27.909060
 20
21.424627
 42
-0.005592
  0
VERTEX
  8
LAYER_1
 62
7
 10
27.321205
 20
21.454583
 42
-0.020623
  0
VERTEX
  8
LAYER_1
 62
7
 10
27.294862
 20
21.755294
  0
VERTEX
  8
LAYER_1
 62
7
 10
27.286470
 20
21.906030
  0
VERTEX
  8
LAYER_1
 62
7
 10
27.275220
 20
22.056595
 42
-0.012145
  0
VERTEX
  8
LAYER_1
 62
7
 10
27.267074
 20
22.360918
 42
-0.029346
  0
VERTEX
  8
LAYER_1
 62
7
 10
27.284154
 20
22.664650
  0
SEQEND
  0
POLYLINE
  8
LAYER_1
 62
7
 70
1
 66
1
  0
VERTEX
  8
LAYER_1
 62
7
 10
31.721645
 20
22.605431
  0
VERTEX
  8
LAYER_1
 62
7
 10
31.845333
 20
22.675013
 42
-0.047075
  0
VERTEX
  8
LAYER_1
 62
7
 10
31.804702
 20
21.461752
 42
-0.024283
  0
VERTEX
  8
LAYER_1
 62
7
 10
31.208329
 20
21.417478
 42
-0.017035
  0
VERTEX
  8
LAYER_1
 62
7
 10
30.609801
 20
21.422525
 42
-0.073006
  0
VERTEX
  8
LAYER_1
 62
7
 10
30.642615
 20
21.507039
  0
VERTEX
  8
LAYER_1
 62
7
 10
30.687845
 20
21.586232
 42
0.138549
  0
VERTEX
  8
LAYER_1
 62
7
 10
30.879143
 20
22.403980
 42
0.091851
  0
VERTEX
  8
LAYER_1
 62
7
 10
31.315128
 20
22.438357
 42
0.064817
  0
VERTEX
  8
LAYER_1
 62
7
 10
31.721645
 20
22.605431
  0
SEQEND
  0
POLYLINE
  8
LAYER_1
 62
7
 70
1
 66
1
  0
VERTEX
  8
LAYER_1
 62
7
 10
9.233005
 20
21.353416
 42
0.011232
  0
VERTEX
  8
LAYER_1
 62
7
 10
9.529051
 20
21.561827
  0
VERTEX
  8
LAYER_1
 62
7
 10
9.820564
 20
21.776742
 42
0.014972
  0
VERTEX
  8
LAYER_1
 62
7
 10
10.384474
 20
21.300336
 42
-0.037860
  0
VERTEX
  8
LAYER_1
 62
7
 10
9.828447
 20
20.804747
 42
-0.018120
  0
VERTEX
  8
LAYER_1
 62
7
 10
9.512398
 20
21.059965
 42
-0.047503
  0
VERTEX
  8
LAYER_1
 62
7
 10
9.233005
 20
21.353416
  0
SEQEND
  0
POLYLINE
  8
LAYER_1
 62
7
 70
1
 66
1
  0
VERTEX
  8
LAYER_1
 62
7
 10
15.800475
 20
21.348423
 42
0.009536
  0
VERTEX
  8
LAYER_1
 62
7
 10
16.246638
 20
21.669059
  0
VERTEX
  8
LAYER_1
 62
7
 10
16.394604
 20
21.776742
  0
VERTEX
  8
LAYER_1
 62
7
 10
16.669299
 20
21.534762
 42
0.030241
  0
VERTEX
  8
LAYER_1
 62
7
 10
16.958776
 20
21.311110
 42
-0.043249
  0
VERTEX
  8
LAYER_1
 62
7
 10
16.694952
 20
21.044626
 42
-0.005729
  0
VERTEX
  8
LAYER_1
 62
7
 10
16.405903
 20
20.804747
 42
-0.056581
  0
VERTEX
  8
LAYER_1
 62
7
 10
15.800475
 20
21.348423
  0
SEQEND
  0
POLYLINE
  8
LAYER_1
 62
7
 70
1
 66
1
  0
VERTEX
  8
LAYER_1
 62
7
 10
22.904789
 20
21.725765
 42
0.040468
  0
VERTEX
  8
LAYER_1
 62
7
 10
22.924904
 20
21.740853
  0
VERTEX
  8
LAYER_1
 62
7
 10
22.945486
 20
21.757396
 42
-0.092389
  0
VERTEX
  8
LAYER_1
 62
7
 10
22.967793
 20
21.768371
 42
-0.156563
  0
VERTEX
  8
LAYER_1
 62
7
 10
22.993081
 20
21.766757
  0
VERTEX
  8
LAYER_1
 62
7
 10
23.264656
 20
21.529539
 42
0.024715
  0
VERTEX
  8
LAYER_1
 62
7
 10
23.548845
 20
21.307694
 42
-0.036081
  0
VERTEX
  8
LAYER_1
 62
7
 10
23.282328
 20
21.043016
 42
-0.013033
  0
VERTEX
  8
LAYER_1
 62
7
 10
22.990979
 20
20.805536
 42
-0.020924
  0
VERTEX
  8
LAYER_1
 62
7
 10
22.674239
 20
21.061213
 42
-0.034210
  0
VERTEX
  8
LAYER_1
 62
7
 10
22.387653
 20
21.350000
  0
VERTEX
  8
LAYER_1
 62
7
 10
22.650163
 20
21.532364
 42
0.017288
  0
VERTEX
  8
LAYER_1
 62
7
 10
22.904789
 20
21.725765
  0
SEQEND
  0
POLYLINE
  8
LAYER_1
 62
7
 70
1
 66
1
  0
VERTEX
  8
LAYER_1
 62
7
 10
28.967211
 20
21.352628
 42
0.009402
  0
VERTEX
  8
LAYER_1
 62
7
 10
29.408496
 20
21.669716
  0
VERTEX
  8
LAYER_1
 62
7
 10
29.555033
 20
21.776217
  0
VERTEX
  8
LAYER_1
 62
7
 10
29.691880
 20
21.655247
 42
0.020621
  0
VERTEX
  8
LAYER_1
 62
7
 10
30.116315
 20
21.308745
 42
-0.039737
  0
VERTEX
  8
LAYER_1
 62
7
 10
29.853871
 20
21.043575
 42
-0.013651
  0
VERTEX
  8
LAYER_1
 62
7
 10
29.564230
 20
20.807375
 42
-0.022030
  0
VERTEX
  8
LAYER_1
 62
7
 10
29.246702
 20
21.059998
 42
-0.046444
  0
VERTEX
  8
LAYER_1
 62
7
 10
28.967211
 20
21.352628
  0
SEQEND
  0
POLYLINE
  8
LAYER_1
 62
7
 70
1
 66
1
  0
VERTEX
  8
LAYER_1
 62
7
 10
28.581404
 20
21.146564
  0
VERTEX
  8
LAYER_1
 62
7
 10
28.700575
 20
21.178234
  0
VERTEX
  8
LAYER_1
 62
7
 10
28.737769
 20
21.135772
  0
VERTEX
  8
LAYER_1
 62
7
 10
28.806773
 20
21.053739
 42
0.033792
  0
VERTEX
  8
LAYER_1
 62
7
 10
28.880496
 20
20.976075
 42
0.052117
  0
VERTEX
  8
LAYER_1
 62
7
 10
29.524289
 20
20.432662
 42
0.083870
  0
VERTEX
  8
LAYER_1
 62
7
 10
28.649519
 20
19.643819
 42
0.045227
  0
VERTEX
  8
LAYER_1
 62
7
 10
28.385532
 20
19.677421
  0
VERTEX
  8
LAYER_1
 62
7
 10
28.118982
 20
19.684811
  0
VERTEX
  8
LAYER_1
 62
7
 10
27.733922
 20
19.675910
 42
0.021741
  0
VERTEX
  8
LAYER_1
 62
7
 10
27.349847
 20
19.649074
  0
VERTEX
  8
LAYER_1
 62
7
 10
27.351259
 20
19.855318
 42
0.024507
  0
VERTEX
  8
LAYER_1
 62
7
 10
27.345380
 20
20.061364
 42
0.143795
  0
VERTEX
  8
LAYER_1
 62
7
 10
27.269406
 20
20.237192
 42
0.018710
  0
VERTEX
  8
LAYER_1
 62
7
 10
27.139629
 20
20.383260
 42
-0.035184
  0
VERTEX
  8
LAYER_1
 62
7
 10
27.178819
 20
20.447533
  0
VERTEX
  8
LAYER_1
 62
7
 10
27.223552
 20
20.508406
 42
0.065511
  0
VERTEX
  8
LAYER_1
 62
7
 10
27.301760
 20
20.637099
 42
0.097184
  0
VERTEX
  8
LAYER_1
 62
7
 10
27.344230
 20
20.873955
 42
0.007270
  0
VERTEX
  8
LAYER_1
 62
7
 10
27.340226
 20
21.056587
  0
VERTEX
  8
LAYER_1
 62
7
 10
27.339599
 20
21.116921
  0
VERTEX
  8
LAYER_1
 62
7
 10
27.494775
 20
21.110887
 42
0.004701
  0
VERTEX
  8
LAYER_1
 62
7
 10
27.963651
 20
21.087695
 42
0.026483
  0
VERTEX
  8
LAYER_1
 62
7
 10
28.274947
 20
21.095224
 42
0.044269
  0
VERTEX
  8
LAYER_1
 62
7
 10
28.581404
 20
21.146564
  0
SEQEND
  0
POLYLINE
  8
LAYER_1
 62
7
 70
1
 66
1
  0
VERTEX
  8
LAYER_1
 62
7
 10
15.377937
 20
21.132687
 42
0.040680
  0
VERTEX
  8
LAYER_1
 62
7
 10
15.452565
 20
21.158932
  0
VERTEX
  8
LAYER_1
 62
7
 10
15.525615
 20
21.189709
 42
0.030579
  0
VERTEX
  8
LAYER_1
 62
7
 10
15.914847
 20
20.785828
 42
0.043113
  0
VERTEX
  8
LAYER_1
 62
7
 10
16.358867
 20
20.443435
 42
-0.059735
  0
VERTEX
  8
LAYER_1
 62
7
 10
16.277834
 20
20.374655
  0
VERTEX
  8
LAYER_1
 62
7
 10
16.189904
 20
20.314151
 42
0.043989
  0
VERTEX
  8
LAYER_1
 62
7
 10
15.818245
 20
20.006018
 42
0.029867
  0
VERTEX
  8
LAYER_1
 62
7
 10
15.495659
 20
19.646447
 42
0.040167
  0
VERTEX
  8
LAYER_1
 62
7
 10
14.840995
 20
19.684122
 42
0.014797
  0
VERTEX
  8
LAYER_1
 62
7
 10
14.184951
 20
19.649863
 42
0.026003
  0
VERTEX
  8
LAYER_1
 62
7
 10
14.196578
 20
19.895128
 42
0.063941
  0
VERTEX
  8
LAYER_1
 62
7
 10
14.164454
 20
20.137831
 42
0.110916
  0
VERTEX
  8
LAYER_1
 62
7
 10
14.077575
 20
20.272896
  0
VERTEX
  8
LAYER_1
 62
7
 10
14.024442
 20
20.333531
 42
-0.062357
  0
VERTEX
  8
LAYER_1
 62
7
 10
13.982616
 20
20.398501
  0
VERTEX
  8
LAYER_1
 62
7
 10
14.084933
 20
20.537738
 42
0.086265
  0
VERTEX
  8
LAYER_1
 62
7
 10
14.162615
 20
20.690967
 42
0.054080
  0
VERTEX
  8
LAYER_1
 62
7
 10
14.184721
 20
20.902761
  0
VERTEX
  8
LAYER_1
 62
7
 10
14.183197
 20
21.009644
  0
VERTEX
  8
LAYER_1
 62
7
 10
14.179432
 20
21.116133
 42
-0.004525
  0
VERTEX
  8
LAYER_1
 62
7
 10
14.629849
 20
21.095134
 42
0.025670
  0
VERTEX
  8
LAYER_1
 62
7
 10
15.080072
 20
21.093148
 42
0.037254
  0
VERTEX
  8
LAYER_1
 62
7
 10
15.377937
 20
21.132687
  0
SEQEND
  0
POLYLINE
  8
LAYER_1
 62
7
 70
1
 66
1
  0
VERTEX
  8
LAYER_1
 62
7
 10
8.254178
 20
21.087490
 42
0.031160
  0
VERTEX
  8
LAYER_1
 62
7
 10
8.613716
 20
21.103257
 42
0.060182
  0
VERTEX
  8
LAYER_1
 62
7
 10
8.961824
 20
21.182877
 42
0.075930
  0
VERTEX
  8
LAYER_1
 62
7
 10
9.787455
 20
20.440545
 42
-0.019511
  0
VERTEX
  8
LAYER_1
 62
7
 10
9.585284
 20
20.290666
 42
0.028510
  0
VERTEX
  8
LAYER_1
 62
7
 10
9.385676
 20
20.137043
 42
0.011029
  0
VERTEX
  8
LAYER_1
 62
7
 10
9.142184
 20
19.902354
 42
0.036089
  0
VERTEX
  8
LAYER_1
 62
7
 10
8.922145
 20
19.646184
 42
0.043528
  0
VERTEX
  8
LAYER_1
 62
7
 10
8.390425
 20
19.684023
 42
0.004624
  0
VERTEX
  8
LAYER_1
 62
7
 10
7.856340
 20
19.670622
 42
-0.003098
  0
VERTEX
  8
LAYER_1
 62
7
 10
7.603816
 20
19.648286
  0
VERTEX
  8
LAYER_1
 62
7
 10
7.609072
 20
19.898839
 42
0.071254
  0
VERTEX
  8
LAYER_1
 62
7
 10
7.578853
 20
20.146240
 42
0.081384
  0
VERTEX
  8
LAYER_1
 62
7
 10
7.491021
 20
20.275557
 42
-0.011771
  0
VERTEX
  8
LAYER_1
 62
7
 10
7.385452
 20
20.392457
 42
0.066607
  0
VERTEX
  8
LAYER_1
 62
7
 10
7.555466
 20
20.637099
 42
0.079858
  0
VERTEX
  8
LAYER_1
 62
7
 10
7.596491
 20
20.872444
 42
0.013046
  0
VERTEX
  8
LAYER_1
 62
7
 10
7.593568
 20
21.112717
 42
-0.033348
  0
VERTEX
  8
LAYER_1
 62
7
 10
7.923873
 20
21.102764
  0
VERTEX
  8
LAYER_1
 62
7
 10
8.088804
 20
21.090952
 42
0.019955
  0
VERTEX
  8
LAYER_1
 62
7
 10
8.254178
 20
21.087490
  0
SEQEND
  0
POLYLINE
  8
LAYER_1
 62
7
 70
1
 66
1
  0
VERTEX
  8
LAYER_1
 62
7
 10
20.755574
 20
21.115870
 42
-0.013011
  0
VERTEX
  8
LAYER_1
 62
7
 10
21.100360
 20
21.101992
 42
0.011212
  0
VERTEX
  8
LAYER_1
 62
7
 10
21.447487
 20
21.086833
 42
0.036065
  0
VERTEX
  8
LAYER_1
 62
7
 10
21.791312
 20
21.104193
 42
0.060541
  0
VERTEX
  8
LAYER_1
 62
7
 10
22.126195
 20
21.187869
 42
0.080884
  0
VERTEX
  8
LAYER_1
 62
7
 10
22.948672
 20
20.441333
 42
-0.021694
  0
VERTEX
  8
LAYER_1
 62
7
 10
22.740425
 20
20.286790
 42
0.033889
  0
VERTEX
  8
LAYER_1
 62
7
 10
22.536120
 20
20.127320
 42
0.010530
  0
VERTEX
  8
LAYER_1
 62
7
 10
22.298803
 20
19.896507
 42
0.037238
  0
VERTEX
  8
LAYER_1
 62
7
 10
22.084940
 20
19.644607
 42
0.045421
  0
VERTEX
  8
LAYER_1
 62
7
 10
21.424855
 20
19.684384
 42
0.009697
  0
VERTEX
  8
LAYER_1
 62
7
 10
20.763194
 20
19.651439
  0
VERTEX
  8
LAYER_1
 62
7
 10
20.768676
 20
19.760342
  0
VERTEX
  8
LAYER_1
 62
7
 10
20.771570
 20
19.869540
 42
0.041177
  0
VERTEX
  8
LAYER_1
 62
7
 10
20.756888
 20
20.086853
 42
0.127723
  0
VERTEX
  8
LAYER_1
 62
7
 10
20.675264
 20
20.248392
 42
0.009337
  0
VERTEX
  8
LAYER_1
 62
7
 10
20.551663
 20
20.384311
 42
-0.028016
  0
VERTEX
  8
LAYER_1
 62
7
 10
20.593041
 20
20.446872
  0
VERTEX
  8
LAYER_1
 62
7
 10
20.638509
 20
20.506993
 42
0.065660
  0
VERTEX
  8
LAYER_1
 62
7
 10
20.716684
 20
20.634996
 42
0.106609
  0
VERTEX
  8
LAYER_1
 62
7
 10
20.761059
 20
20.872083
  0
VERTEX
  8
LAYER_1
 62
7
 10
20.758107
 20
20.994469
 42
-0.014023
  0
VERTEX
  8
LAYER_1
 62
7
 10
20.755574
 20
21.115870
  0
SEQEND
  0
POLYLINE
  8
LAYER_1
 62
7
 70
1
 66
1
  0
VERTEX
  8
LAYER_1
 62
7
 10
6.894856
 20
21.133213
 42
-0.055650
  0
VERTEX
  8
LAYER_1
 62
7
 10
7.101165
 20
21.145694
  0
VERTEX
  8
LAYER_1
 62
7
 10
7.308460
 20
21.136103
 42
0.039962
  0
VERTEX
  8
LAYER_1
 62
7
 10
7.307257
 20
21.030641
  0
VERTEX
  8
LAYER_1
 62
7
 10
7.311843
 20
20.922666
 42
-0.067005
  0
VERTEX
  8
LAYER_1
 62
7
 10
7.300220
 20
20.819126
 42
-0.120220
  0
VERTEX
  8
LAYER_1
 62
7
 10
7.250387
 20
20.726967
 42
-0.025713
  0
VERTEX
  8
LAYER_1
 62
7
 10
6.942681
 20
20.375377
 42
0.004511
  0
VERTEX
  8
LAYER_1
 62
7
 10
7.134538
 20
20.197710
 42
-0.051584
  0
VERTEX
  8
LAYER_1
 62
7
 10
7.308460
 20
20.003292
 42
-0.036573
  0
VERTEX
  8
LAYER_1
 62
7
 10
7.302942
 20
19.620695
 42
0.035083
  0
VERTEX
  8
LAYER_1
 62
7
 10
7.181048
 20
19.620173
  0
VERTEX
  8
LAYER_1
 62
7
 10
7.055804
 20
19.614553
 42
-0.065709
  0
VERTEX
  8
LAYER_1
 62
7
 10
6.935487
 20
19.627901
 42
-0.117383
  0
VERTEX
  8
LAYER_1
 62
7
 10
6.828375
 20
19.684286
 42
-0.032118
  0
VERTEX
  8
LAYER_1
 62
7
 10
6.546420
 20
19.942328
  0
VERTEX
  8
LAYER_1
 62
7
 10
6.546420
 20
20.851521
 42
-0.016357
  0
VERTEX
  8
LAYER_1
 62
7
 10
6.711277
 20
21.004487
 42
-0.052251
  0
VERTEX
  8
LAYER_1
 62
7
 10
6.894856
 20
21.133213
  0
SEQEND
  0
POLYLINE
  8
LAYER_1
 62
7
 70
1
 66
1
  0
VERTEX
  8
LAYER_1
 62
7
 10
10.649874
 20
21.140833
 42
0.060219
  0
VERTEX
  8
LAYER_1
 62
7
 10
11.117904
 20
21.085355
 42
0.003768
  0
VERTEX
  8
LAYER_1
 62
7
 10
11.472818
 20
21.087041
  0
VERTEX
  8
LAYER_1
 62
7
 10
11.590862
 20
21.086439
 42
0.014716
  0
VERTEX
  8
LAYER_1
 62
7
 10
11.819966
 20
21.104472
 42
-0.040036
  0
VERTEX
  8
LAYER_1
 62
7
 10
12.049662
 20
21.110877
  0
VERTEX
  8
LAYER_1
 62
7
 10
12.044386
 20
21.011475
 42
0.050907
  0
VERTEX
  8
LAYER_1
 62
7
 10
12.057283
 20
20.713565
 42
0.105532
  0
VERTEX
  8
LAYER_1
 62
7
 10
12.132961
 20
20.539019
 42
0.025057
  0
VERTEX
  8
LAYER_1
 62
7
 10
12.191346
 20
20.462363
  0
VERTEX
  8
LAYER_1
 62
7
 10
12.254362
 20
20.390092
 42
-0.026050
  0
VERTEX
  8
LAYER_1
 62
7
 10
12.152176
 20
20.267345
 42
0.071859
  0
VERTEX
  8
LAYER_1
 62
7
 10
12.062012
 20
20.136517
 42
0.065048
  0
VERTEX
  8
LAYER_1
 62
7
 10
12.028706
 20
19.895259
 42
0.012305
  0
VERTEX
  8
LAYER_1
 62
7
 10
12.032845
 20
19.650651
 42
0.013325
  0
VERTEX
  8
LAYER_1
 62
7
 10
11.456848
 20
19.684976
 42
0.025499
  0
VERTEX
  8
LAYER_1
 62
7
 10
10.880062
 20
19.674563
 42
0.032094
  0
VERTEX
  8
LAYER_1
 62
7
 10
10.807274
 20
19.665793
  0
VERTEX
  8
LAYER_1
 62
7
 10
10.735275
 20
19.650914
 42
0.026253
  0
VERTEX
  8
LAYER_1
 62
7
 10
10.407696
 20
20.007956
 42
0.043490
  0
VERTEX
  8
LAYER_1
 62
7
 10
10.034198
 20
20.315728
  0
VERTEX
  8
LAYER_1
 62
7
 10
9.948107
 20
20.374885
 42
-0.048504
  0
VERTEX
  8
LAYER_1
 62
7
 10
9.868126
 20
20.441333
 42
0.077418
  0
VERTEX
  8
LAYER_1
 62
7
 10
10.649874
 20
21.140833
  0
SEQEND
  0
POLYLINE
  8
LAYER_1
 62
7
 70
1
 66
1
  0
VERTEX
  8
LAYER_1
 62
7
 10
12.329252
 20
21.138731
  0
VERTEX
  8
LAYER_1
 62
7
 10
12.427315
 20
21.139306
  0
VERTEX
  8
LAYER_1
 62
7
 10
12.525477
 20
21.142147
 42
-0.037746
  0
VERTEX
  8
LAYER_1
 62
7
 10
12.721308
 20
21.135315
 42
-0.063722
  0
VERTEX
  8
LAYER_1
 62
7
 10
12.923512
 20
21.001367
 42
0.011436
  0
VERTEX
  8
LAYER_1
 62
7
 10
13.111525
 20
20.846528
 42
0.026489
  0
VERTEX
  8
LAYER_1
 62
7
 10
13.201213
 20
20.916610
  0
VERTEX
  8
LAYER_1
 62
7
 10
13.286860
 20
20.992531
 42
-0.056265
  0
VERTEX
  8
LAYER_1
 62
7
 10
13.468896
 20
21.129271
 42
-0.066877
  0
VERTEX
  8
LAYER_1
 62
7
 10
13.681216
 20
21.145826
 42
0.005426
  0
VERTEX
  8
LAYER_1
 62
7
 10
13.895113
 20
21.136366
  0
VERTEX
  8
LAYER_1
 62
7
 10
13.902503
 20
20.965236
 42
-0.070676
  0
VERTEX
  8
LAYER_1
 62
7
 10
13.882500
 20
20.796076
 42
-0.047129
  0
VERTEX
  8
LAYER_1
 62
7
 10
13.715639
 20
20.578632
 42
0.005016
  0
VERTEX
  8
LAYER_1
 62
7
 10
13.530647
 20
20.375377
 42
0.015930
  0
VERTEX
  8
LAYER_1
 62
7
 10
13.729238
 20
20.190057
 42
-0.081837
  0
VERTEX
  8
LAYER_1
 62
7
 10
13.900631
 20
19.982270
 42
-0.033443
  0
VERTEX
  8
LAYER_1
 62
7
 10
13.902569
 20
19.801778
  0
VERTEX
  8
LAYER_1
 62
7
 10
13.890908
 20
19.621483
  0
VERTEX
  8
LAYER_1
 62
7
 10
13.693993
 20
19.618264
 42
-0.024296
  0
VERTEX
  8
LAYER_1
 62
7
 10
13.497275
 20
19.624899
 42
-0.044018
  0
VERTEX
  8
LAYER_1
 62
7
 10
13.123876
 20
19.949686
  0
VERTEX
  8
LAYER_1
 62
7
 10
12.946439
 20
19.810154
 42
-0.019032
  0
VERTEX
  8
LAYER_1
 62
7
 10
12.763089
 20
19.678505
 42
-0.104376
  0
VERTEX
  8
LAYER_1
 62
7
 10
12.665038
 20
19.630758
 42
-0.060939
  0
VERTEX
  8
LAYER_1
 62
7
 10
12.557306
 20
19.618166
  0
VERTEX
  8
LAYER_1
 62
7
 10
12.445779
 20
19.622079
 42
0.026009
  0
VERTEX
  8
LAYER_1
 62
7
 10
12.336347
 20
19.623848
 42
-0.027370
  0
VERTEX
  8
LAYER_1
 62
7
 10
12.326821
 20
19.800234
  0
VERTEX
  8
LAYER_1
 62
7
 10
12.326361
 20
19.977014
 42
-0.055118
  0
VERTEX
  8
LAYER_1
 62
7
 10
12.499463
 20
20.185984
 42
0.003576
  0
VERTEX
  8
LAYER_1
 62
7
 10
12.693454
 20
20.376428
 42
0.033416
  0
VERTEX
  8
LAYER_1
 62
7
 10
12.605147
 20
20.482050
 42
-0.018790
  0
VERTEX
  8
LAYER_1
 62
7
 10
12.413651
 20
20.686496
 42
-0.051964
  0
VERTEX
  8
LAYER_1
 62
7
 10
12.336872
 20
20.802908
 42
-0.052383
  0
VERTEX
  8
LAYER_1
 62
7
 10
12.325278
 20
20.970228
  0
VERTEX
  8
LAYER_1
 62
7
 10
12.329252
 20
21.138731
  0
SEQEND
  0
POLYLINE
  8
LAYER_1
 62
7
 70
1
 66
1
  0
VERTEX
  8
LAYER_1
 62
7
 10
17.223388
 20
21.140570
 42
0.055840
  0
VERTEX
  8
LAYER_1
 62
7
 10
17.676539
 20
21.086045
 42
0.006198
  0
VERTEX
  8
LAYER_1
 62
7
 10
18.020066
 20
21.085999
  0
VERTEX
  8
LAYER_1
 62
7
 10
18.134420
 20
21.085914
 42
0.024358
  0
VERTEX
  8
LAYER_1
 62
7
 10
18.377024
 20
21.102009
 42
-0.033282
  0
VERTEX
  8
LAYER_1
 62
7
 10
18.620023
 20
21.113768
 42
0.018940
  0
VERTEX
  8
LAYER_1
 62
7
 10
18.612435
 20
20.872148
 42
0.080922
  0
VERTEX
  8
LAYER_1
 62
7
 10
18.652344
 20
20.635259
 42
0.050610
  0
VERTEX
  8
LAYER_1
 62
7
 10
18.734362
 20
20.504169
  0
VERTEX
  8
LAYER_1
 62
7
 10
18.829978
 20
20.381947
  0
VERTEX
  8
LAYER_1
 62
7
 10
18.761760
 20
20.304511
 42
0.020917
  0
VERTEX
  8
LAYER_1
 62
7
 10
18.694158
 20
20.224809
 42
0.148777
  0
VERTEX
  8
LAYER_1
 62
7
 10
18.614505
 20
20.037715
 42
0.029420
  0
VERTEX
  8
LAYER_1
 62
7
 10
18.615819
 20
19.655906
  0
VERTEX
  8
LAYER_1
 62
7
 10
18.289492
 20
19.672042
 42
0.006860
  0
VERTEX
  8
LAYER_1
 62
7
 10
17.962008
 20
19.687242
 42
0.019201
  0
VERTEX
  8
LAYER_1
 62
7
 10
17.635066
 20
19.685394
 42
0.031622
  0
VERTEX
  8
LAYER_1
 62
7
 10
17.310365
 20
19.650388
 42
0.020931
  0
VERTEX
  8
LAYER_1
 62
7
 10
17.004104
 20
19.985226
 42
0.042215
  0
VERTEX
  8
LAYER_1
 62
7
 10
16.658427
 20
20.278677
 42
0.023987
  0
VERTEX
  8
LAYER_1
 62
7
 10
16.546979
 20
20.357607
 42
-0.057965
  0
VERTEX
  8
LAYER_1
 62
7
 10
16.441640
 20
20.443435
 42
0.078346
  0
VERTEX
  8
LAYER_1
 62
7
 10
17.223388
 20
21.140570
  0
SEQEND
  0
POLYLINE
  8
LAYER_1
 62
7
 70
1
 66
1
  0
VERTEX
  8
LAYER_1
 62
7
 10
18.920372
 20
20.787930
 42
-0.074097
  0
VERTEX
  8
LAYER_1
 62
7
 10
18.900368
 20
20.961294
 42
-0.018550
  0
VERTEX
  8
LAYER_1
 62
7
 10
18.912489
 20
21.136629
  0
VERTEX
  8
LAYER_1
 62
7
 10
19.114002
 20
21.143658
 42
-0.052605
  0
VERTEX
  8
LAYER_1
 62
7
 10
19.314530
 20
21.130585
 42
-0.047464
  0
VERTEX
  8
LAYER_1
 62
7
 10
19.505303
 20
20.996801
  0
VERTEX
  8
LAYER_1
 62
7
 10
19.685039
 20
20.847054
 42
0.028441
  0
VERTEX
  8
LAYER_1
 62
7
 10
19.777798
 20
20.917698
  0
VERTEX
  8
LAYER_1
 62
7
 10
19.866418
 20
20.995192
 42
-0.056683
  0
VERTEX
  8
LAYER_1
 62
7
 10
20.054497
 20
21.135052
 42
-0.050622
  0
VERTEX
  8
LAYER_1
 62
7
 10
20.260380
 20
21.145136
  0
VERTEX
  8
LAYER_1
 62
7
 10
20.467050
 20
21.136103
 42
-0.006088
  0
VERTEX
  8
LAYER_1
 62
7
 10
20.476970
 20
20.960309
 42
-0.097655
  0
VERTEX
  8
LAYER_1
 62
7
 10
20.451021
 20
20.787667
 42
-0.051580
  0
VERTEX
  8
LAYER_1
 62
7
 10
20.283372
 20
20.573081
  0
VERTEX
  8
LAYER_1
 62
7
 10
20.192576
 20
20.471170
 42
0.030547
  0
VERTEX
  8
LAYER_1
 62
7
 10
20.110205
 20
20.363027
 42
-0.009234
  0
VERTEX
  8
LAYER_1
 62
7
 10
20.297365
 20
20.198926
 42
-0.055627
  0
VERTEX
  8
LAYER_1
 62
7
 10
20.461269
 20
20.012751
 42
-0.082392
  0
VERTEX
  8
LAYER_1
 62
7
 10
20.479893
 20
19.817741
 42
-0.013486
  0
VERTEX
  8
LAYER_1
 62
7
 10
20.461269
 20
19.620958
  0
VERTEX
  8
LAYER_1
 62
7
 10
20.270496
 20
19.617772
 42
-0.040861
  0
VERTEX
  8
LAYER_1
 62
7
 10
20.080512
 20
19.628578
 42
-0.063799
  0
VERTEX
  8
LAYER_1
 62
7
 10
19.877454
 20
19.780526
 42
0.018057
  0
VERTEX
  8
LAYER_1
 62
7
 10
19.688193
 20
19.951000
 42
-0.044749
  0
VERTEX
  8
LAYER_1
 62
7
 10
19.333450
 20
19.676665
 42
-0.098979
  0
VERTEX
  8
LAYER_1
 62
7
 10
19.236278
 20
19.631210
 42
-0.057650
  0
VERTEX
  8
LAYER_1
 62
7
 10
19.130163
 20
19.618494
  0
VERTEX
  8
LAYER_1
 62
7
 10
19.020648
 20
19.621200
 42
0.024494
  0
VERTEX
  8
LAYER_1
 62
7
 10
18.913277
 20
19.622009
 42
0.030380
  0
VERTEX
  8
LAYER_1
 62
7
 10
18.907241
 20
19.718853
  0
VERTEX
  8
LAYER_1
 62
7
 10
18.896722
 20
19.816756
 42
-0.133370
  0
VERTEX
  8
LAYER_1
 62
7
 10
18.921948
 20
20.006970
 42
-0.060435
  0
VERTEX
  8
LAYER_1
 62
7
 10
19.089302
 20
20.199550
 42
0.027439
  0
VERTEX
  8
LAYER_1
 62
7
 10
19.269071
 20
20.380895
 42
0.025969
  0
VERTEX
  8
LAYER_1
 62
7
 10
19.087134
 20
20.578205
 42
-0.062735
  0
VERTEX
  8
LAYER_1
 62
7
 10
18.920372
 20
20.787930
  0
SEQEND
  0
POLYLINE
  8
LAYER_1
 62
7
 70
1
 66
1
  0
VERTEX
  8
LAYER_1
 62
7
 10
23.817135
 20
21.142935
 42
0.016470
  0
VERTEX
  8
LAYER_1
 62
7
 10
24.022656
 20
21.100826
 42
0.049092
  0
VERTEX
  8
LAYER_1
 62
7
 10
24.231527
 20
21.085914
  0
VERTEX
  8
LAYER_1
 62
7
 10
24.547347
 20
21.085323
 42
0.014831
  0
VERTEX
  8
LAYER_1
 62
7
 10
24.862969
 20
21.092220
 42
-0.039053
  0
VERTEX
  8
LAYER_1
 62
7
 10
25.206676
 20
21.113768
 42
-0.006376
  0
VERTEX
  8
LAYER_1
 62
7
 10
25.202140
 20
20.928299
  0
VERTEX
  8
LAYER_1
 62
7
 10
25.201551
 20
20.866203
 42
0.098459
  0
VERTEX
  8
LAYER_1
 62
7
 10
25.243726
 20
20.624748
 42
0.071071
  0
VERTEX
  8
LAYER_1
 62
7
 10
25.417419
 20
20.390355
 42
-0.022912
  0
VERTEX
  8
LAYER_1
 62
7
 10
25.301241
 20
20.251414
 42
0.112656
  0
VERTEX
  8
LAYER_1
 62
7
 10
25.212457
 20
20.096313
 42
0.046918
  0
VERTEX
  8
LAYER_1
 62
7
 10
25.193537
 20
19.872595
  0
VERTEX
  8
LAYER_1
 62
7
 10
25.195902
 20
19.647498
 42
0.019035
  0
VERTEX
  8
LAYER_1
 62
7
 10
24.543799
 20
19.687538
 42
0.034329
  0
VERTEX
  8
LAYER_1
 62
7
 10
23.891500
 20
19.658009
 42
0.032526
  0
VERTEX
  8
LAYER_1
 62
7
 10
23.519086
 20
20.055386
 42
0.047180
  0
VERTEX
  8
LAYER_1
 62
7
 10
23.088730
 20
20.388516
  0
VERTEX
  8
LAYER_1
 62
7
 10
23.066772
 20
20.403178
 42
-0.073382
  0
VERTEX
  8
LAYER_1
 62
7
 10
23.047081
 20
20.422840
 42
-0.086771
  0
VERTEX
  8
LAYER_1
 62
7
 10
23.041996
 20
20.433308
 42
-0.147816
  0
VERTEX
  8
LAYER_1
 62
7
 10
23.042170
 20
20.443538
 42
-0.142960
  0
VERTEX
  8
LAYER_1
 62
7
 10
23.049168
 20
20.453035
 42
-0.081649
  0
VERTEX
  8
LAYER_1
 62
7
 10
23.064555
 20
20.461304
 42
0.030364
  0
VERTEX
  8
LAYER_1
 62
7
 10
23.464298
 20
20.776401
 42
0.038178
  0
VERTEX
  8
LAYER_1
 62
7
 10
23.817135
 20
21.142935
  0
SEQEND
  0
POLYLINE
  8
LAYER_1
 62
7
 70
1
 66
1
  0
VERTEX
  8
LAYER_1
 62
7
 10
25.493623
 20
21.137417
  0
VERTEX
  8
LAYER_1
 62
7
 10
25.690177
 20
21.142114
 42
-0.033945
  0
VERTEX
  8
LAYER_1
 62
7
 10
25.886730
 20
21.135578
 42
-0.061459
  0
VERTEX
  8
LAYER_1
 62
7
 10
26.089427
 20
20.998739
 42
0.016162
  0
VERTEX
  8
LAYER_1
 62
7
 10
26.280101
 20
20.843375
  0
VERTEX
  8
LAYER_1
 62
7
 10
26.448866
 20
20.994502
 42
-0.045146
  0
VERTEX
  8
LAYER_1
 62
7
 10
26.631427
 20
21.127695
 42
-0.072878
  0
VERTEX
  8
LAYER_1
 62
7
 10
26.838886
 20
21.146154
 42
0.005017
  0
VERTEX
  8
LAYER_1
 62
7
 10
27.048710
 20
21.136629
 42
-0.009014
  0
VERTEX
  8
LAYER_1
 62
7
 10
27.058761
 20
20.958272
 42
-0.086415
  0
VERTEX
  8
LAYER_1
 62
7
 10
27.035309
 20
20.782674
 42
-0.031004
  0
VERTEX
  8
LAYER_1
 62
7
 10
26.869631
 20
20.574165
  0
VERTEX
  8
LAYER_1
 62
7
 10
26.692128
 20
20.375114
  0
VERTEX
  8
LAYER_1
 62
7
 10
26.872324
 20
20.207367
 42
-0.046423
  0
VERTEX
  8
LAYER_1
 62
7
 10
27.037936
 20
20.025627
 42
-0.115300
  0
VERTEX
  8
LAYER_1
 62
7
 10
27.066973
 20
19.824573
 42
-0.018217
  0
VERTEX
  8
LAYER_1
 62
7
 10
27.042403
 20
19.620169
 42
0.014444
  0
VERTEX
  8
LAYER_1
 62
7
 10
26.851631
 20
19.617345
 42
-0.055311
  0
VERTEX
  8
LAYER_1
 62
7
 10
26.662435
 20
19.629892
 42
-0.048148
  0
VERTEX
  8
LAYER_1
 62
7
 10
26.464173
 20
19.778950
  0
VERTEX
  8
LAYER_1
 62
7
 10
26.282466
 20
19.948898
  0
VERTEX
  8
LAYER_1
 62
7
 10
26.068076
 20
19.780493
 42
-0.041464
  0
VERTEX
  8
LAYER_1
 62
7
 10
25.840483
 20
19.631994
 42
-0.053701
  0
VERTEX
  8
LAYER_1
 62
7
 10
25.671586
 20
19.620859
 42
0.022461
  0
VERTEX
  8
LAYER_1
 62
7
 10
25.501506
 20
19.620169
  0
VERTEX
  8
LAYER_1
 62
7
 10
25.487895
 20
19.738261
 42
-0.030775
  0
VERTEX
  8
LAYER_1
 62
7
 10
25.478743
 20
19.860540
 42
-0.080959
  0
VERTEX
  8
LAYER_1
 62
7
 10
25.495557
 20
19.976612
 42
-0.128305
  0
VERTEX
  8
LAYER_1
 62
7
 10
25.559842
 20
20.076079
 42
-0.042536
  0
VERTEX
  8
LAYER_1
 62
7
 10
25.863606
 20
20.374589
 42
0.008213
  0
VERTEX
  8
LAYER_1
 62
7
 10
25.678516
 20
20.571865
 42
-0.039110
  0
VERTEX
  8
LAYER_1
 62
7
 10
25.506236
 20
20.779784
 42
-0.093849
  0
VERTEX
  8
LAYER_1
 62
7
 10
25.483473
 20
20.956925
  0
VERTEX
  8
LAYER_1
 62
7
 10
25.493623
 20
21.137417
  0
SEQEND
  0
POLYLINE
  8
LAYER_1
 62
7
 70
1
 66
1
  0
VERTEX
  8
LAYER_1
 62
7
 10
30.386970
 20
21.141359
 42
0.062382
  0
VERTEX
  8
LAYER_1
 62
7
 10
30.826950
 20
21.085520
 42
0.005155
  0
VERTEX
  8
LAYER_1
 62
7
 10
31.161041
 20
21.086730
  0
VERTEX
  8
LAYER_1
 62
7
 10
31.272251
 20
21.086439
 42
0.029104
  0
VERTEX
  8
LAYER_1
 62
7
 10
31.399514
 20
21.089010
  0
VERTEX
  8
LAYER_1
 62
7
 10
31.526286
 20
21.101089
 42
-0.045929
  0
VERTEX
  8
LAYER_1
 62
7
 10
31.780715
 20
21.111403
 42
0.013755
  0
VERTEX
  8
LAYER_1
 62
7
 10
31.776642
 20
20.885353
 42
0.061930
  0
VERTEX
  8
LAYER_1
 62
7
 10
31.806467
 20
20.662062
 42
0.096800
  0
VERTEX
  8
LAYER_1
 62
7
 10
31.888255
 20
20.515106
  0
VERTEX
  8
LAYER_1
 62
7
 10
31.939421
 20
20.447664
 42
-0.045205
  0
VERTEX
  8
LAYER_1
 62
7
 10
31.982261
 20
20.377217
 42
-0.015529
  0
VERTEX
  8
LAYER_1
 62
7
 10
31.885331
 20
20.262221
 42
0.067766
  0
VERTEX
  8
LAYER_1
 62
7
 10
31.801211
 20
20.138357
 42
0.071997
  0
VERTEX
  8
LAYER_1
 62
7
 10
31.766197
 20
19.895194
 42
0.003204
  0
VERTEX
  8
LAYER_1
 62
7
 10
31.767839
 20
19.648286
 42
0.016818
  0
VERTEX
  8
LAYER_1
 62
7
 10
31.181463
 20
19.685140
 42
0.023834
  0
VERTEX
  8
LAYER_1
 62
7
 10
30.594298
 20
19.674300
 42
0.027030
  0
VERTEX
  8
LAYER_1
 62
7
 10
30.527488
 20
19.665465
  0
VERTEX
  8
LAYER_1
 62
7
 10
30.461860
 20
19.652490
 42
0.088442
  0
VERTEX
  8
LAYER_1
 62
7
 10
29.622828
 20
20.413742
  0
VERTEX
  8
LAYER_1
 62
7
 10
29.612580
 20
20.446063
 42
0.029488
  0
VERTEX
  8
LAYER_1
 62
7
 10
30.025790
 20
20.765331
 42
0.044585
  0
VERTEX
  8
LAYER_1
 62
7
 10
30.386970
 20
21.141359
  0
SEQEND
  0
POLYLINE
  8
LAYER_1
 62
7
 70
1
 66
1
  0
VERTEX
  8
LAYER_1
 62
7
 10
32.063195
 20
21.135052
  0
VERTEX
  8
LAYER_1
 62
7
 10
32.259191
 20
21.142935
 42
-0.040503
  0
VERTEX
  8
LAYER_1
 62
7
 10
32.454989
 20
21.135052
 42
-0.064417
  0
VERTEX
  8
LAYER_1
 62
7
 10
32.646911
 20
21.012699
  0
VERTEX
  8
LAYER_1
 62
7
 10
32.823659
 20
20.867287
  0
VERTEX
  8
LAYER_1
 62
7
 10
32.823659
 20
19.925511
 42
-0.023718
  0
VERTEX
  8
LAYER_1
 62
7
 10
32.497295
 20
19.676665
 42
-0.104686
  0
VERTEX
  8
LAYER_1
 62
7
 10
32.399343
 20
19.630081
 42
-0.059825
  0
VERTEX
  8
LAYER_1
 62
7
 10
32.291906
 20
19.618330
  0
VERTEX
  8
LAYER_1
 62
7
 10
32.180872
 20
19.622345
 42
0.029431
  0
VERTEX
  8
LAYER_1
 62
7
 10
32.072130
 20
19.623060
 42
-0.024693
  0
VERTEX
  8
LAYER_1
 62
7
 10
32.061684
 20
19.800497
  0
VERTEX
  8
LAYER_1
 62
7
 10
32.061093
 20
19.978328
 42
-0.048632
  0
VERTEX
  8
LAYER_1
 62
7
 10
32.236855
 20
20.188907
 42
-0.011436
  0
VERTEX
  8
LAYER_1
 62
7
 10
32.436858
 20
20.377217
 42
0.011370
  0
VERTEX
  8
LAYER_1
 62
7
 10
32.242538
 20
20.580635
 42
-0.066932
  0
VERTEX
  8
LAYER_1
 62
7
 10
32.072655
 20
20.803171
 42
-0.057448
  0
VERTEX
  8
LAYER_1
 62
7
 10
32.060239
 20
20.968422
  0
VERTEX
  8
LAYER_1
 62
7
 10
32.063195
 20
21.135052
  0
SEQEND
  0
POLYLINE
  8
LAYER_1
 62
7
 70
1
 66
1
  0
VERTEX
  8
LAYER_1
 62
7
 10
22.372938
 20
19.512433
  0
VERTEX
  8
LAYER_1
 62
7
 10
22.520070
 20
19.661827
 42
-0.008178
  0
VERTEX
  8
LAYER_1
 62
7
 10
22.668656
 20
19.811074
 42
-0.058391
  0
VERTEX
  8
LAYER_1
 62
7
 10
22.996497
 20
20.070298
 42
-0.014641
  0
VERTEX
  8
LAYER_1
 62
7
 10
23.310937
 20
19.812026
 42
-0.056816
  0
VERTEX
  8
LAYER_1
 62
7
 10
23.584582
 20
19.512958
 42
0.042982
  0
VERTEX
  8
LAYER_1
 62
7
 10
22.991504
 20
19.056523
 42
-0.027023
  0
VERTEX
  8
LAYER_1
 62
7
 10
22.810684
 20
19.193755
 42
0.027987
  0
VERTEX
  8
LAYER_1
 62
7
 10
22.629667
 20
19.330594
 42
0.017559
  0
VERTEX
  8
LAYER_1
 62
7
 10
22.498445
 20
19.417867
 42
-0.047060
  0
VERTEX
  8
LAYER_1
 62
7
 10
22.372938
 20
19.512433
  0
SEQEND
  0
POLYLINE
  8
LAYER_1
 62
7
 70
1
 66
1
  0
VERTEX
  8
LAYER_1
 62
7
 10
15.790227
 20
19.506126
 42
-0.037780
  0
VERTEX
  8
LAYER_1
 62
7
 10
16.078488
 20
19.810285
 42
-0.023603
  0
VERTEX
  8
LAYER_1
 62
7
 10
16.402224
 20
20.077393
 42
-0.015103
  0
VERTEX
  8
LAYER_1
 62
7
 10
16.718602
 20
19.814358
 42
-0.044674
  0
VERTEX
  8
LAYER_1
 62
7
 10
17.001082
 20
19.515849
 42
0.039153
  0
VERTEX
  8
LAYER_1
 62
7
 10
16.398020
 20
19.056523
 42
-0.011067
  0
VERTEX
  8
LAYER_1
 62
7
 10
16.183696
 20
19.222660
 42
0.024388
  0
VERTEX
  8
LAYER_1
 62
7
 10
15.965233
 20
19.382886
  0
VERTEX
  8
LAYER_1
 62
7
 10
15.875168
 20
19.441254
 42
-0.056058
  0
VERTEX
  8
LAYER_1
 62
7
 10
15.790227
 20
19.506126
  0
SEQEND
  0
POLYLINE
  8
LAYER_1
 62
7
 70
1
 66
1
  0
VERTEX
  8
LAYER_1
 62
7
 10
28.989810
 20
19.556841
 42
-0.052598
  0
VERTEX
  8
LAYER_1
 62
7
 10
29.562916
 20
20.074503
 42
-0.052060
  0
VERTEX
  8
LAYER_1
 62
7
 10
30.162563
 20
19.526885
 42
-0.028591
  0
VERTEX
  8
LAYER_1
 62
7
 10
29.985684
 20
19.396550
 42
0.030835
  0
VERTEX
  8
LAYER_1
 62
7
 10
29.809397
 20
19.265427
  0
VERTEX
  8
LAYER_1
 62
7
 10
29.683890
 20
19.160482
 42
0.013030
  0
VERTEX
  8
LAYER_1
 62
7
 10
29.559763
 20
19.054158
  0
VERTEX
  8
LAYER_1
 62
7
 10
29.420670
 20
19.164226
  0
VERTEX
  8
LAYER_1
 62
7
 10
29.280272
 20
19.272522
 42
0.026642
  0
VERTEX
  8
LAYER_1
 62
7
 10
28.987182
 20
19.471966
 42
-0.188539
  0
VERTEX
  8
LAYER_1
 62
7
 10
28.962613
 20
19.488553
 42
-0.188955
  0
VERTEX
  8
LAYER_1
 62
7
 10
28.958934
 20
19.512433
 42
-0.187816
  0
VERTEX
  8
LAYER_1
 62
7
 10
28.989810
 20
19.556841
  0
SEQEND
  0
POLYLINE
  8
LAYER_1
 62
7
 70
1
 66
1
  0
VERTEX
  8
LAYER_1
 62
7
 10
12.847965
 20
19.353455
 42
0.036166
  0
VERTEX
  8
LAYER_1
 62
7
 10
12.981256
 20
19.435802
  0
VERTEX
  8
LAYER_1
 62
7
 10
13.045512
 20
19.480904
  0
VERTEX
  8
LAYER_1
 62
7
 10
13.111000
 20
19.524257
 42
0.025250
  0
VERTEX
  8
LAYER_1
 62
7
 10
13.260320
 20
19.398521
 42
0.074386
  0
VERTEX
  8
LAYER_1
 62
7
 10
13.430531
 20
19.305105
 42
0.039352
  0
VERTEX
  8
LAYER_1
 62
7
 10
13.645774
 20
19.286974
  0
VERTEX
  8
LAYER_1
 62
7
 10
13.753975
 20
19.287664
  0
VERTEX
  8
LAYER_1
 62
7
 10
13.862003
 20
19.290916
  0
VERTEX
  8
LAYER_1
 62
7
 10
13.830602
 20
18.913147
 42
0.028631
  0
VERTEX
  8
LAYER_1
 62
7
 10
13.817332
 20
18.534394
 42
0.039461
  0
VERTEX
  8
LAYER_1
 62
7
 10
13.829617
 20
18.271950
  0
VERTEX
  8
LAYER_1
 62
7
 10
13.860427
 20
18.010689
 42
0.029647
  0
VERTEX
  8
LAYER_1
 62
7
 10
13.723522
 20
17.902689
 42
0.021189
  0
VERTEX
  8
LAYER_1
 62
7
 10
13.424684
 20
17.593636
 42
0.036035
  0
VERTEX
  8
LAYER_1
 62
7
 10
13.163292
 20
17.252853
 42
0.057339
  0
VERTEX
  8
LAYER_1
 62
7
 10
13.151011
 20
17.235633
  0
VERTEX
  8
LAYER_1
 62
7
 10
13.138755
 20
17.215802
 42
-0.107143
  0
VERTEX
  8
LAYER_1
 62
7
 10
13.123789
 20
17.200898
 42
-0.206569
  0
VERTEX
  8
LAYER_1
 62
7
 10
13.103379
 20
17.198459
 42
0.030331
  0
VERTEX
  8
LAYER_1
 62
7
 10
12.764140
 20
17.637585
 42
0.049346
  0
VERTEX
  8
LAYER_1
 62
7
 10
12.360259
 20
18.016995
 42
0.032616
  0
VERTEX
  8
LAYER_1
 62
7
 10
12.401120
 20
18.447219
 42
0.021322
  0
VERTEX
  8
LAYER_1
 62
7
 10
12.395471
 20
18.879414
 42
-0.019684
  0
VERTEX
  8
LAYER_1
 62
7
 10
12.369982
 20
19.299587
  0
VERTEX
  8
LAYER_1
 62
7
 10
12.491707
 20
19.295773
 42
0.017940
  0
VERTEX
  8
LAYER_1
 62
7
 10
12.615181
 20
19.292919
 42
0.051979
  0
VERTEX
  8
LAYER_1
 62
7
 10
12.735551
 20
19.306867
 42
0.085163
  0
VERTEX
  8
LAYER_1
 62
7
 10
12.847965
 20
19.353455
  0
SEQEND
  0
POLYLINE
  8
LAYER_1
 62
7
 70
1
 66
1
  0
VERTEX
  8
LAYER_1
 62
7
 10
19.311114
 20
19.304317
 42
0.066677
  0
VERTEX
  8
LAYER_1
 62
7
 10
19.504449
 20
19.400163
 42
0.014103
  0
VERTEX
  8
LAYER_1
 62
7
 10
19.680835
 20
19.526360
  0
VERTEX
  8
LAYER_1
 62
7
 10
19.748368
 20
19.467642
  0
VERTEX
  8
LAYER_1
 62
7
 10
19.818068
 20
19.411167
 42
0.058576
  0
VERTEX
  8
LAYER_1
 62
7
 10
19.970673
 20
19.318244
 42
0.065419
  0
VERTEX
  8
LAYER_1
 62
7
 10
20.089754
 20
19.292217
 42
0.028492
  0
VERTEX
  8
LAYER_1
 62
7
 10
20.211865
 20
19.288978
  0
VERTEX
  8
LAYER_1
 62
7
 10
20.334321
 20
19.290714
 42
-0.045568
  0
VERTEX
  8
LAYER_1
 62
7
 10
20.454437
 20
19.279616
 42
0.025645
  0
VERTEX
  8
LAYER_1
 62
7
 10
20.404050
 20
18.646204
 42
0.051904
  0
VERTEX
  8
LAYER_1
 62
7
 10
20.451809
 20
18.013579
 42
0.047450
  0
VERTEX
  8
LAYER_1
 62
7
 10
20.038008
 20
17.623231
 42
0.036071
  0
VERTEX
  8
LAYER_1
 62
7
 10
19.693974
 20
17.169029
 42
0.078430
  0
VERTEX
  8
LAYER_1
 62
7
 10
18.937715
 20
18.020674
 42
-0.014148
  0
VERTEX
  8
LAYER_1
 62
7
 10
18.959164
 20
18.212531
 42
0.038245
  0
VERTEX
  8
LAYER_1
 62
7
 10
18.971350
 20
18.405373
 42
0.049279
  0
VERTEX
  8
LAYER_1
 62
7
 10
18.969937
 20
18.852808
  0
VERTEX
  8
LAYER_1
 62
7
 10
18.951950
 20
19.076280
 42
-0.019470
  0
VERTEX
  8
LAYER_1
 62
7
 10
18.943496
 20
19.299850
 42
0.045039
  0
VERTEX
  8
LAYER_1
 62
7
 10
19.311114
 20
19.304317
  0
SEQEND
  0
POLYLINE
  8
LAYER_1
 62
7
 70
1
 66
1
  0
VERTEX
  8
LAYER_1
 62
7
 10
25.906176
 20
19.307207
 42
0.059186
  0
VERTEX
  8
LAYER_1
 62
7
 10
26.088408
 20
19.399802
  0
VERTEX
  8
LAYER_1
 62
7
 10
26.258028
 20
19.515060
 42
-0.047456
  0
VERTEX
  8
LAYER_1
 62
7
 10
26.342287
 20
19.462559
  0
VERTEX
  8
LAYER_1
 62
7
 10
26.422458
 20
19.399933
 42
0.033142
  0
VERTEX
  8
LAYER_1
 62
7
 10
26.505683
 20
19.341791
 42
0.073245
  0
VERTEX
  8
LAYER_1
 62
7
 10
26.599106
 20
19.302740
 42
0.033694
  0
VERTEX
  8
LAYER_1
 62
7
 10
26.810244
 20
19.287335
 42
0.012438
  0
VERTEX
  8
LAYER_1
 62
7
 10
27.022170
 20
19.291441
 42
0.018926
  0
VERTEX
  8
LAYER_1
 62
7
 10
26.977269
 20
18.649817
 42
0.050798
  0
VERTEX
  8
LAYER_1
 62
7
 10
27.021644
 20
18.009375
 42
0.049900
  0
VERTEX
  8
LAYER_1
 62
7
 10
26.645289
 20
17.661595
 42
0.028489
  0
VERTEX
  8
LAYER_1
 62
7
 10
26.326874
 20
17.258634
 42
0.074692
  0
VERTEX
  8
LAYER_1
 62
7
 10
26.319571
 20
17.251101
  0
VERTEX
  8
LAYER_1
 62
7
 10
26.298790
 20
17.216426
 42
-0.042083
  0
VERTEX
  8
LAYER_1
 62
7
 10
26.291284
 20
17.206375
 42
-0.094549
  0
VERTEX
  8
LAYER_1
 62
7
 10
26.283012
 20
17.199843
 42
-0.162343
  0
VERTEX
  8
LAYER_1
 62
7
 10
26.273686
 20
17.198490
 42
-0.129295
  0
VERTEX
  8
LAYER_1
 62
7
 10
26.263021
 20
17.203977
 42
0.027442
  0
VERTEX
  8
LAYER_1
 62
7
 10
25.922303
 20
17.641887
 42
0.053601
  0
VERTEX
  8
LAYER_1
 62
7
 10
25.516747
 20
18.018309
 42
0.053787
  0
VERTEX
  8
LAYER_1
 62
7
 10
25.563389
 20
18.654579
 42
0.012250
  0
VERTEX
  8
LAYER_1
 62
7
 10
25.547713
 20
18.974378
  0
VERTEX
  8
LAYER_1
 62
7
 10
25.522528
 20
19.293018
 42
-0.012301
  0
VERTEX
  8
LAYER_1
 62
7
 10
25.714844
 20
19.293609
 42
0.046383
  0
VERTEX
  8
LAYER_1
 62
7
 10
25.906176
 20
19.307207
  0
SEQEND
  0
POLYLINE
  8
LAYER_1
 62
7
 70
1
 66
1
  0
VERTEX
  8
LAYER_1
 62
7
 10
32.474697
 20
19.305894
 42
0.064359
  0
VERTEX
  8
LAYER_1
 62
7
 10
32.657455
 20
19.395138
 42
0.018919
  0
VERTEX
  8
LAYER_1
 62
7
 10
32.823659
 20
19.513747
  0
VERTEX
  8
LAYER_1
 62
7
 10
32.823659
 20
17.228415
 42
0.021469
  0
VERTEX
  8
LAYER_1
 62
7
 10
32.485898
 20
17.651971
 42
0.052908
  0
VERTEX
  8
LAYER_1
 62
7
 10
32.089998
 20
18.020148
 42
0.051016
  0
VERTEX
  8
LAYER_1
 62
7
 10
32.136640
 20
18.655565
 42
0.019089
  0
VERTEX
  8
LAYER_1
 62
7
 10
32.094203
 20
19.292755
 42
-0.017582
  0
VERTEX
  8
LAYER_1
 62
7
 10
32.284844
 20
19.294397
 42
0.043627
  0
VERTEX
  8
LAYER_1
 62
7
 10
32.474697
 20
19.305894
  0
SEQEND
  0
POLYLINE
  8
LAYER_1
 62
7
 70
1
 66
1
  0
VERTEX
  8
LAYER_1
 62
7
 10
10.928412
 20
19.350039
 42
-0.013052
  0
VERTEX
  8
LAYER_1
 62
7
 10
11.313341
 20
19.354572
  0
VERTEX
  8
LAYER_1
 62
7
 10
11.698073
 20
19.348463
  0
VERTEX
  8
LAYER_1
 62
7
 10
11.885791
 20
19.329773
 42
0.020550
  0
VERTEX
  8
LAYER_1
 62
7
 10
12.074100
 20
19.321134
 42
-0.035466
  0
VERTEX
  8
LAYER_1
 62
7
 10
12.097487
 20
18.220906
 42
0.056473
  0
VERTEX
  8
LAYER_1
 62
7
 10
11.642168
 20
18.419694
 42
0.082655
  0
VERTEX
  8
LAYER_1
 62
7
 10
11.150981
 20
18.486044
 42
0.045623
  0
VERTEX
  8
LAYER_1
 62
7
 10
11.136430
 20
18.780382
 42
0.064576
  0
VERTEX
  8
LAYER_1
 62
7
 10
11.058222
 20
19.063880
 42
0.038440
  0
VERTEX
  8
LAYER_1
 62
7
 10
10.995978
 20
19.208142
 42
-0.019914
  0
VERTEX
  8
LAYER_1
 62
7
 10
10.928412
 20
19.350039
  0
SEQEND
  0
POLYLINE
  8
LAYER_1
 62
7
 70
1
 66
1
  0
VERTEX
  8
LAYER_1
 62
7
 10
14.156834
 20
19.325339
 42
0.042033
  0
VERTEX
  8
LAYER_1
 62
7
 10
14.358545
 20
19.329675
  0
VERTEX
  8
LAYER_1
 62
7
 10
14.559664
 20
19.348988
 42
-0.002665
  0
VERTEX
  8
LAYER_1
 62
7
 10
15.100425
 20
19.350392
  0
VERTEX
  8
LAYER_1
 62
7
 10
15.280711
 20
19.351353
 42
-0.175654
  0
VERTEX
  8
LAYER_1
 62
7
 10
15.270857
 20
19.285365
  0
VERTEX
  8
LAYER_1
 62
7
 10
15.239719
 20
19.223909
 42
0.061808
  0
VERTEX
  8
LAYER_1
 62
7
 10
15.109450
 20
18.866407
 42
0.073321
  0
VERTEX
  8
LAYER_1
 62
7
 10
15.078902
 20
18.487620
 42
0.024040
  0
VERTEX
  8
LAYER_1
 62
7
 10
14.813633
 20
18.469259
 42
0.050935
  0
VERTEX
  8
LAYER_1
 62
7
 10
14.554671
 20
18.411679
 42
0.048381
  0
VERTEX
  8
LAYER_1
 62
7
 10
14.334895
 20
18.324931
  0
VERTEX
  8
LAYER_1
 62
7
 10
14.124776
 20
18.215914
 42
-0.049232
  0
VERTEX
  8
LAYER_1
 62
7
 10
14.156834
 20
19.325339
  0
SEQEND
  0
POLYLINE
  8
LAYER_1
 62
7
 70
1
 66
1
  0
VERTEX
  8
LAYER_1
 62
7
 10
17.499561
 20
19.350039
 42
-0.014578
  0
VERTEX
  8
LAYER_1
 62
7
 10
18.134945
 20
19.350302
 42
-0.030313
  0
VERTEX
  8
LAYER_1
 62
7
 10
18.260866
 20
19.348713
  0
VERTEX
  8
LAYER_1
 62
7
 10
18.386320
 20
19.336999
 42
0.041430
  0
VERTEX
  8
LAYER_1
 62
7
 10
18.637891
 20
19.324288
 42
-0.057420
  0
VERTEX
  8
LAYER_1
 62
7
 10
18.662493
 20
19.102639
 42
0.027532
  0
VERTEX
  8
LAYER_1
 62
7
 10
18.673891
 20
18.879414
 42
-0.035183
  0
VERTEX
  8
LAYER_1
 62
7
 10
18.683252
 20
18.551211
  0
VERTEX
  8
LAYER_1
 62
7
 10
18.666796
 20
18.223009
 42
0.057189
  0
VERTEX
  8
LAYER_1
 62
7
 10
18.213087
 20
18.420975
 42
0.083471
  0
VERTEX
  8
LAYER_1
 62
7
 10
17.723706
 20
18.485518
 42
0.098395
  0
VERTEX
  8
LAYER_1
 62
7
 10
17.676867
 20
18.933250
 42
0.051454
  0
VERTEX
  8
LAYER_1
 62
7
 10
17.499561
 20
19.350039
  0
SEQEND
  0
POLYLINE
  8
LAYER_1
 62
7
 70
1
 66
1
  0
VERTEX
  8
LAYER_1
 62
7
 10
20.738494
 20
19.320083
 42
0.025534
  0
VERTEX
  8
LAYER_1
 62
7
 10
21.010726
 20
19.336769
 42
-0.031323
  0
VERTEX
  8
LAYER_1
 62
7
 10
21.282958
 20
19.350302
  0
VERTEX
  8
LAYER_1
 62
7
 10
21.878663
 20
19.349777
 42
-0.009177
  0
VERTEX
  8
LAYER_1
 62
7
 10
21.775656
 20
19.109767
 42
0.049697
  0
VERTEX
  8
LAYER_1
 62
7
 10
21.692358
 20
18.862071
 42
0.054267
  0
VERTEX
  8
LAYER_1
 62
7
 10
21.665818
 20
18.671692
  0
VERTEX
  8
LAYER_1
 62
7
 10
21.664422
 20
18.575247
  0
VERTEX
  8
LAYER_1
 62
7
 10
21.666080
 20
18.478949
 42
0.094049
  0
VERTEX
  8
LAYER_1
 62
7
 10
21.171280
 20
18.421270
 42
0.061911
  0
VERTEX
  8
LAYER_1
 62
7
 10
20.715107
 20
18.214600
 42
-0.028102
  0
VERTEX
  8
LAYER_1
 62
7
 10
20.704629
 20
18.767637
 42
-0.011997
  0
VERTEX
  8
LAYER_1
 62
7
 10
20.738494
 20
19.320083
  0
SEQEND
  0
POLYLINE
  8
LAYER_1
 62
7
 70
1
 66
1
  0
VERTEX
  8
LAYER_1
 62
7
 10
24.090681
 20
19.350039
 42
-0.013072
  0
VERTEX
  8
LAYER_1
 62
7
 10
24.476957
 20
19.354474
  0
VERTEX
  8
LAYER_1
 62
7
 10
24.863232
 20
19.348463
  0
VERTEX
  8
LAYER_1
 62
7
 10
25.046122
 20
19.329510
 42
0.028866
  0
VERTEX
  8
LAYER_1
 62
7
 10
25.229799
 20
19.322974
 42
-0.040137
  0
VERTEX
  8
LAYER_1
 62
7
 10
25.255223
 20
19.062008
 42
0.019755
  0
VERTEX
  8
LAYER_1
 62
7
 10
25.270004
 20
18.800057
 42
-0.047439
  0
VERTEX
  8
LAYER_1
 62
7
 10
25.250559
 20
18.218541
 42
0.065086
  0
VERTEX
  8
LAYER_1
 62
7
 10
24.802039
 20
18.421402
 42
0.086942
  0
VERTEX
  8
LAYER_1
 62
7
 10
24.315089
 20
18.481577
 42
0.084679
  0
VERTEX
  8
LAYER_1
 62
7
 10
24.261812
 20
18.930195
 42
0.050249
  0
VERTEX
  8
LAYER_1
 62
7
 10
24.090681
 20
19.350039
  0
SEQEND
  0
POLYLINE
  8
LAYER_1
 62
7
 70
1
 66
1
  0
VERTEX
  8
LAYER_1
 62
7
 10
27.307623
 20
19.312042
 42
-0.040807
  0
VERTEX
  8
LAYER_1
 62
7
 10
28.455068
 20
19.349777
  0
VERTEX
  8
LAYER_1
 62
7
 10
28.455068
 20
19.349777
  0
VERTEX
  8
LAYER_1
 62
7
 10
28.342470
 20
19.094230
 42
0.054189
  0
VERTEX
  8
LAYER_1
 62
7
 10
28.259040
 20
18.828436
 42
0.046354
  0
VERTEX
  8
LAYER_1
 62
7
 10
28.237000
 20
18.656156
 42
0.015711
  0
VERTEX
  8
LAYER_1
 62
7
 10
28.236441
 20
18.482102
 42
0.084367
  0
VERTEX
  8
LAYER_1
 62
7
 10
27.744400
 20
18.419628
 42
0.061077
  0
VERTEX
  8
LAYER_1
 62
7
 10
27.289409
 20
18.218804
 42
-0.032717
  0
VERTEX
  8
LAYER_1
 62
7
 10
27.272968
 20
18.721878
 42
-0.011738
  0
VERTEX
  8
LAYER_1
 62
7
 10
27.301280
 20
19.224998
  0
VERTEX
  8
LAYER_1
 62
7
 10
27.307623
 20
19.312042
  0
SEQEND
  0
POLYLINE
  8
LAYER_1
 62
7
 70
1
 66
1
  0
VERTEX
  8
LAYER_1
 62
7
 10
30.663407
 20
19.350039
 42
-0.034010
  0
VERTEX
  8
LAYER_1
 62
7
 10
31.810934
 20
19.315616
 42
-0.014377
  0
VERTEX
  8
LAYER_1
 62
7
 10
31.842335
 20
18.771349
 42
-0.023967
  0
VERTEX
  8
LAYER_1
 62
7
 10
31.831956
 20
18.226687
 42
-0.058793
  0
VERTEX
  8
LAYER_1
 62
7
 10
31.720245
 20
18.275859
 42
0.022237
  0
VERTEX
  8
LAYER_1
 62
7
 10
31.612278
 20
18.333110
 42
0.043519
  0
VERTEX
  8
LAYER_1
 62
7
 10
31.306805
 20
18.440124
 42
0.060100
  0
VERTEX
  8
LAYER_1
 62
7
 10
30.986354
 20
18.482102
  0
VERTEX
  8
LAYER_1
 62
7
 10
30.951976
 20
18.483223
 42
-0.041142
  0
VERTEX
  8
LAYER_1
 62
7
 10
30.915110
 20
18.484960
 42
-0.065742
  0
VERTEX
  8
LAYER_1
 62
7
 10
30.899647
 20
18.489362
 42
-0.118176
  0
VERTEX
  8
LAYER_1
 62
7
 10
30.888246
 20
18.497881
 42
-0.136898
  0
VERTEX
  8
LAYER_1
 62
7
 10
30.882467
 20
18.511838
 42
-0.090449
  0
VERTEX
  8
LAYER_1
 62
7
 10
30.883873
 20
18.532554
 42
0.123729
  0
VERTEX
  8
LAYER_1
 62
7
 10
30.753801
 20
19.148756
 42
0.007049
  0
VERTEX
  8
LAYER_1
 62
7
 10
30.685587
 20
19.299558
  0
VERTEX
  8
LAYER_1
 62
7
 10
30.663407
 20
19.350039
  0
SEQEND
  0
POLYLINE
  8
LAYER_1
 62
7
 70
1
 66
1
  0
VERTEX
  8
LAYER_1
 62
7
 10
8.997824
 20
19.218653
 42
-0.025902
  0
VERTEX
  8
LAYER_1
 62
7
 10
9.031853
 20
19.226865
 42
-0.237937
  0
VERTEX
  8
LAYER_1
 62
7
 10
9.064305
 20
19.217339
 42
-0.024763
  0
VERTEX
  8
LAYER_1
 62
7
 10
9.454424
 20
18.936600
 42
-0.010081
  0
VERTEX
  8
LAYER_1
 62
7
 10
9.824243
 20
18.629255
  0
VERTEX
  8
LAYER_1
 62
7
 10
10.139931
 20
18.903326
 42
-0.025051
  0
VERTEX
  8
LAYER_1
 62
7
 10
10.468823
 20
19.160843
  0
VERTEX
  8
LAYER_1
 62
7
 10
10.547392
 20
19.217142
 42
-0.142596
  0
VERTEX
  8
LAYER_1
 62
7
 10
10.636209
 20
19.249398
 42
-0.052431
  0
VERTEX
  8
LAYER_1
 62
7
 10
10.808555
 20
18.865257
 42
-0.096635
  0
VERTEX
  8
LAYER_1
 62
7
 10
10.860880
 20
18.449781
 42
0.062187
  0
VERTEX
  8
LAYER_1
 62
7
 10
10.314313
 20
18.305749
 42
0.080303
  0
VERTEX
  8
LAYER_1
 62
7
 10
9.830812
 20
18.015681
 42
0.129491
  0
VERTEX
  8
LAYER_1
 62
7
 10
8.885357
 20
18.433489
 42
0.045155
  0
VERTEX
  8
LAYER_1
 62
7
 10
8.856288
 20
18.437390
  0
VERTEX
  8
LAYER_1
 62
7
 10
8.824065
 20
18.441438
 42
-0.161133
  0
VERTEX
  8
LAYER_1
 62
7
 10
8.799628
 20
18.454257
 42
-0.126696
  0
VERTEX
  8
LAYER_1
 62
7
 10
8.793746
 20
18.466649
 42
-0.094326
  0
VERTEX
  8
LAYER_1
 62
7
 10
8.793912
 20
18.484467
 42
-0.102107
  0
VERTEX
  8
LAYER_1
 62
7
 10
8.843149
 20
18.864764
 42
-0.040424
  0
VERTEX
  8
LAYER_1
 62
7
 10
8.997824
 20
19.218653
  0
SEQEND
  0
POLYLINE
  8
LAYER_1
 62
7
 70
1
 66
1
  0
VERTEX
  8
LAYER_1
 62
7
 10
17.133257
 20
19.223909
 42
-0.111977
  0
VERTEX
  8
LAYER_1
 62
7
 10
17.182658
 20
19.248872
 42
-0.187909
  0
VERTEX
  8
LAYER_1
 62
7
 10
17.206644
 20
19.245415
 42
-0.115476
  0
VERTEX
  8
LAYER_1
 62
7
 10
17.215721
 20
19.236059
 42
-0.084000
  0
VERTEX
  8
LAYER_1
 62
7
 10
17.221811
 20
19.220230
 42
-0.062694
  0
VERTEX
  8
LAYER_1
 62
7
 10
17.387390
 20
18.846009
 42
-0.103820
  0
VERTEX
  8
LAYER_1
 62
7
 10
17.422306
 20
18.440847
 42
0.059442
  0
VERTEX
  8
LAYER_1
 62
7
 10
17.135983
 20
18.390526
 42
0.022994
  0
VERTEX
  8
LAYER_1
 62
7
 10
16.860499
 20
18.293694
 42
0.029301
  0
VERTEX
  8
LAYER_1
 62
7
 10
16.621113
 20
18.172294
 42
0.051027
  0
VERTEX
  8
LAYER_1
 62
7
 10
16.404589
 20
18.014630
 42
0.144816
  0
VERTEX
  8
LAYER_1
 62
7
 10
15.379251
 20
18.441635
 42
-0.113968
  0
VERTEX
  8
LAYER_1
 62
7
 10
15.415152
 20
18.860232
 42
-0.069960
  0
VERTEX
  8
LAYER_1
 62
7
 10
15.598666
 20
19.241777
 42
-0.039133
  0
VERTEX
  8
LAYER_1
 62
7
 10
16.361757
 20
18.659474
 42
0.077198
  0
VERTEX
  8
LAYER_1
 62
7
 10
16.380529
 20
18.644110
 42
0.122650
  0
VERTEX
  8
LAYER_1
 62
7
 10
16.399005
 20
18.638649
 42
0.130350
  0
VERTEX
  8
LAYER_1
 62
7
 10
16.417186
 20
18.643141
 42
0.086994
  0
VERTEX
  8
LAYER_1
 62
7
 10
16.435070
 20
18.657634
 42
-0.011750
  0
VERTEX
  8
LAYER_1
 62
7
 10
16.774211
 20
18.953187
 42
-0.023656
  0
VERTEX
  8
LAYER_1
 62
7
 10
17.133257
 20
19.223909
  0
SEQEND
  0
POLYLINE
  8
LAYER_1
 62
7
 70
1
 66
1
  0
VERTEX
  8
LAYER_1
 62
7
 10
22.990453
 20
18.629255
 42
-0.007214
  0
VERTEX
  8
LAYER_1
 62
7
 10
23.373510
 20
18.962023
 42
-0.035390
  0
VERTEX
  8
LAYER_1
 62
7
 10
23.782975
 20
19.260697
 42
-0.062392
  0
VERTEX
  8
LAYER_1
 62
7
 10
23.968820
 20
18.872286
 42
-0.104755
  0
VERTEX
  8
LAYER_1
 62
7
 10
24.017893
 20
18.447416
 42
0.139755
  0
VERTEX
  8
LAYER_1
 62
7
 10
22.986774
 20
18.015156
 42
0.079246
  0
VERTEX
  8
LAYER_1
 62
7
 10
22.504094
 20
18.304008
 42
0.056808
  0
VERTEX
  8
LAYER_1
 62
7
 10
21.962488
 20
18.453723
 42
-0.102932
  0
VERTEX
  8
LAYER_1
 62
7
 10
22.005385
 20
18.862170
 42
-0.058229
  0
VERTEX
  8
LAYER_1
 62
7
 10
22.175596
 20
19.238887
 42
-0.074162
  0
VERTEX
  8
LAYER_1
 62
7
 10
22.341143
 20
19.140084
 42
-0.024331
  0
VERTEX
  8
LAYER_1
 62
7
 10
22.990453
 20
18.629255
  0
SEQEND
  0
POLYLINE
  8
LAYER_1
 62
7
 70
1
 66
1
  0
VERTEX
  8
LAYER_1
 62
7
 10
29.555296
 20
18.623474
 42
-0.007176
  0
VERTEX
  8
LAYER_1
 62
7
 10
29.941243
 20
18.959067
 42
-0.034744
  0
VERTEX
  8
LAYER_1
 62
7
 10
30.353598
 20
19.260960
 42
-0.065941
  0
VERTEX
  8
LAYER_1
 62
7
 10
30.544108
 20
18.870972
 42
-0.117490
  0
VERTEX
  8
LAYER_1
 62
7
 10
30.584050
 20
18.442949
 42
0.147687
  0
VERTEX
  8
LAYER_1
 62
7
 10
29.564756
 20
18.015418
 42
0.138536
  0
VERTEX
  8
LAYER_1
 62
7
 10
28.532323
 20
18.448205
 42
-0.090015
  0
VERTEX
  8
LAYER_1
 62
7
 10
28.572001
 20
18.845089
 42
-0.073176
  0
VERTEX
  8
LAYER_1
 62
7
 10
28.736234
 20
19.209456
  0
VERTEX
  8
LAYER_1
 62
7
 10
28.773811
 20
19.238887
 42
-0.014237
  0
VERTEX
  8
LAYER_1
 62
7
 10
29.176969
 20
18.946848
 42
-0.025958
  0
VERTEX
  8
LAYER_1
 62
7
 10
29.555296
 20
18.623474
  0
SEQEND
  0
POLYLINE
  8
LAYER_1
 62
7
 70
1
 66
1
  0
VERTEX
  8
LAYER_1
 62
7
 10
11.118660
 20
18.151272
 42
-0.094535
  0
VERTEX
  8
LAYER_1
 62
7
 10
11.570234
 20
18.100557
 42
-0.075465
  0
VERTEX
  8
LAYER_1
 62
7
 10
11.980816
 20
17.902426
 42
-0.019720
  0
VERTEX
  8
LAYER_1
 62
7
 10
11.763404
 20
17.623888
  0
VERTEX
  8
LAYER_1
 62
7
 10
11.535154
 20
17.354020
 42
-0.015086
  0
VERTEX
  8
LAYER_1
 62
7
 10
11.404293
 20
17.213568
 42
0.041479
  0
VERTEX
  8
LAYER_1
 62
7
 10
11.281316
 20
17.066810
 42
-0.027590
  0
VERTEX
  8
LAYER_1
 62
7
 10
11.646963
 20
16.734961
 42
-0.018044
  0
VERTEX
  8
LAYER_1
 62
7
 10
11.981079
 20
16.370989
 42
-0.076532
  0
VERTEX
  8
LAYER_1
 62
7
 10
11.573551
 20
16.177851
 42
-0.085799
  0
VERTEX
  8
LAYER_1
 62
7
 10
11.126017
 20
16.123457
 42
0.051493
  0
VERTEX
  8
LAYER_1
 62
7
 10
10.984219
 20
16.642564
 42
0.081234
  0
VERTEX
  8
LAYER_1
 62
7
 10
10.712939
 20
17.104912
 42
-0.191364
  0
VERTEX
  8
LAYER_1
 62
7
 10
10.698675
 20
17.126000
 42
-0.150461
  0
VERTEX
  8
LAYER_1
 62
7
 10
10.702297
 20
17.148072
 42
-0.050793
  0
VERTEX
  8
LAYER_1
 62
7
 10
10.715378
 20
17.169653
  0
VERTEX
  8
LAYER_1
 62
7
 10
10.729494
 20
17.189262
 42
0.070715
  0
VERTEX
  8
LAYER_1
 62
7
 10
10.981033
 20
17.646420
 42
0.048277
  0
VERTEX
  8
LAYER_1
 62
7
 10
11.118660
 20
18.151272
  0
SEQEND
  0
POLYLINE
  8
LAYER_1
 62
7
 70
1
 66
1
  0
VERTEX
  8
LAYER_1
 62
7
 10
17.686655
 20
18.146542
 42
-0.105127
  0
VERTEX
  8
LAYER_1
 62
7
 10
18.137836
 20
18.102725
 42
-0.071503
  0
VERTEX
  8
LAYER_1
 62
7
 10
18.548812
 20
17.905580
 42
-0.034764
  0
VERTEX
  8
LAYER_1
 62
7
 10
18.420086
 20
17.722296
  0
VERTEX
  8
LAYER_1
 62
7
 10
18.276579
 20
17.550049
  0
VERTEX
  8
LAYER_1
 62
7
 10
18.070796
 20
17.313225
 42
-0.015288
  0
VERTEX
  8
LAYER_1
 62
7
 10
17.856932
 20
17.083890
 42
0.041677
  0
VERTEX
  8
LAYER_1
 62
7
 10
17.935271
 20
17.000362
  0
VERTEX
  8
LAYER_1
 62
7
 10
18.021690
 20
16.924913
 42
-0.031097
  0
VERTEX
  8
LAYER_1
 62
7
 10
18.547760
 20
16.379923
 42
-0.089670
  0
VERTEX
  8
LAYER_1
 62
7
 10
18.462622
 20
16.311077
 42
-0.057900
  0
VERTEX
  8
LAYER_1
 62
7
 10
18.092507
 20
16.163333
 42
-0.085170
  0
VERTEX
  8
LAYER_1
 62
7
 10
17.697166
 20
16.125559
 42
0.052119
  0
VERTEX
  8
LAYER_1
 62
7
 10
17.565682
 20
16.627028
 42
0.081482
  0
VERTEX
  8
LAYER_1
 62
7
 10
17.308263
 20
17.074693
 42
0.045938
  0
VERTEX
  8
LAYER_1
 62
7
 10
17.293236
 20
17.094060
  0
VERTEX
  8
LAYER_1
 62
7
 10
17.276730
 20
17.114536
 42
-0.148878
  0
VERTEX
  8
LAYER_1
 62
7
 10
17.269094
 20
17.135849
 42
-0.218623
  0
VERTEX
  8
LAYER_1
 62
7
 10
17.280672
 20
17.157729
 42
0.074230
  0
VERTEX
  8
LAYER_1
 62
7
 10
17.547025
 20
17.625333
 42
0.054521
  0
VERTEX
  8
LAYER_1
 62
7
 10
17.686655
 20
18.146542
  0
SEQEND
  0
POLYLINE
  8
LAYER_1
 62
7
 70
1
 66
1
  0
VERTEX
  8
LAYER_1
 62
7
 10
21.058551
 20
18.031973
 42
-0.123627
  0
VERTEX
  8
LAYER_1
 62
7
 10
21.693934
 20
18.153111
 42
-0.019642
  0
VERTEX
  8
LAYER_1
 62
7
 10
21.735715
 20
17.976430
 42
0.023968
  0
VERTEX
  8
LAYER_1
 62
7
 10
21.779073
 20
17.799945
 42
0.041287
  0
VERTEX
  8
LAYER_1
 62
7
 10
21.919097
 20
17.452494
 42
0.056729
  0
VERTEX
  8
LAYER_1
 62
7
 10
22.123567
 20
17.139335
  0
VERTEX
  8
LAYER_1
 62
7
 10
21.987714
 20
16.948004
 42
0.050325
  0
VERTEX
  8
LAYER_1
 62
7
 10
21.873145
 20
16.743863
 42
0.044305
  0
VERTEX
  8
LAYER_1
 62
7
 10
21.761237
 20
16.438883
 42
0.013282
  0
VERTEX
  8
LAYER_1
 62
7
 10
21.685000
 20
16.122669
 42
-0.083526
  0
VERTEX
  8
LAYER_1
 62
7
 10
21.251228
 20
16.175158
 42
-0.072223
  0
VERTEX
  8
LAYER_1
 62
7
 10
20.853325
 20
16.357325
 42
-0.028643
  0
VERTEX
  8
LAYER_1
 62
7
 10
21.182382
 20
16.730691
 42
-0.007664
  0
VERTEX
  8
LAYER_1
 62
7
 10
21.537847
 20
17.079423
 42
0.117288
  0
VERTEX
  8
LAYER_1
 62
7
 10
21.512096
 20
17.117985
  0
VERTEX
  8
LAYER_1
 62
7
 10
21.479249
 20
17.151423
 42
-0.019597
  0
VERTEX
  8
LAYER_1
 62
7
 10
21.053891
 20
17.610408
  0
VERTEX
  8
LAYER_1
 62
7
 10
20.917705
 20
17.768412
 42
0.031776
  0
VERTEX
  8
LAYER_1
 62
7
 10
20.893842
 20
17.799645
  0
VERTEX
  8
LAYER_1
 62
7
 10
20.868106
 20
17.830657
 42
-0.160586
  0
VERTEX
  8
LAYER_1
 62
7
 10
20.837822
 20
17.901375
 42
-0.041671
  0
VERTEX
  8
LAYER_1
 62
7
 10
20.945723
 20
17.970320
  0
VERTEX
  8
LAYER_1
 62
7
 10
21.058551
 20
18.031973
  0
SEQEND
  0
POLYLINE
  8
LAYER_1
 62
7
 70
1
 66
1
  0
VERTEX
  8
LAYER_1
 62
7
 10
23.859441
 20
17.157204
 42
0.089795
  0
VERTEX
  8
LAYER_1
 62
7
 10
24.134433
 20
17.624282
 42
0.046989
  0
VERTEX
  8
LAYER_1
 62
7
 10
24.275410
 20
18.151272
 42
-0.044959
  0
VERTEX
  8
LAYER_1
 62
7
 10
24.550467
 20
18.141155
 42
-0.064291
  0
VERTEX
  8
LAYER_1
 62
7
 10
24.816459
 20
18.071914
 42
-0.039051
  0
VERTEX
  8
LAYER_1
 62
7
 10
24.974122
 20
18.000013
  0
VERTEX
  8
LAYER_1
 62
7
 10
25.050737
 20
17.959173
  0
VERTEX
  8
LAYER_1
 62
7
 10
25.128632
 20
17.920820
 42
-0.132810
  0
VERTEX
  8
LAYER_1
 62
7
 10
25.078935
 20
17.813215
 42
0.011633
  0
VERTEX
  8
LAYER_1
 62
7
 10
25.003815
 20
17.718223
  0
VERTEX
  8
LAYER_1
 62
7
 10
24.763050
 20
17.430618
 42
-0.021775
  0
VERTEX
  8
LAYER_1
 62
7
 10
24.510854
 20
17.153262
 42
0.059135
  0
VERTEX
  8
LAYER_1
 62
7
 10
24.447263
 20
17.066810
 42
-0.024478
  0
VERTEX
  8
LAYER_1
 62
7
 10
24.807820
 20
16.734896
 42
-0.015367
  0
VERTEX
  8
LAYER_1
 62
7
 10
25.140982
 20
16.375193
 42
-0.067686
  0
VERTEX
  8
LAYER_1
 62
7
 10
25.008611
 20
16.288577
  0
VERTEX
  8
LAYER_1
 62
7
 10
24.936266
 20
16.255431
  0
VERTEX
  8
LAYER_1
 62
7
 10
24.863232
 20
16.224625
 42
-0.048501
  0
VERTEX
  8
LAYER_1
 62
7
 10
24.575036
 20
16.139059
 42
-0.086647
  0
VERTEX
  8
LAYER_1
 62
7
 10
24.276198
 20
16.132917
 42
0.114344
  0
VERTEX
  8
LAYER_1
 62
7
 10
23.988463
 20
16.952767
 42
0.037703
  0
VERTEX
  8
LAYER_1
 62
7
 10
23.954003
 20
17.002965
  0
VERTEX
  8
LAYER_1
 62
7
 10
23.915576
 20
17.050847
 42
-0.115812
  0
VERTEX
  8
LAYER_1
 62
7
 10
23.859441
 20
17.157204
  0
SEQEND
  0
POLYLINE
  8
LAYER_1
 62
7
 70
1
 66
1
  0
VERTEX
  8
LAYER_1
 62
7
 10
27.395569
 20
17.899273
 42
-0.063859
  0
VERTEX
  8
LAYER_1
 62
7
 10
27.816498
 20
18.100031
 42
-0.108164
  0
VERTEX
  8
LAYER_1
 62
7
 10
28.277434
 20
18.147856
 42
0.045478
  0
VERTEX
  8
LAYER_1
 62
7
 10
28.320463
 20
17.911426
  0
VERTEX
  8
LAYER_1
 62
7
 10
28.354147
 20
17.795700
  0
VERTEX
  8
LAYER_1
 62
7
 10
28.390689
 20
17.680909
 42
0.023280
  0
VERTEX
  8
LAYER_1
 62
7
 10
28.509429
 20
17.421750
 42
0.046236
  0
VERTEX
  8
LAYER_1
 62
7
 10
28.662658
 20
17.181904
 42
0.000617
  0
VERTEX
  8
LAYER_1
 62
7
 10
28.684994
 20
17.149058
 42
-0.143699
  0
VERTEX
  8
LAYER_1
 62
7
 10
28.689781
 20
17.131501
 42
-0.216162
  0
VERTEX
  8
LAYER_1
 62
7
 10
28.679738
 20
17.114635
 42
0.078695
  0
VERTEX
  8
LAYER_1
 62
7
 10
28.405371
 20
16.649232
 42
0.057231
  0
VERTEX
  8
LAYER_1
 62
7
 10
28.264821
 20
16.126085
 42
-0.086849
  0
VERTEX
  8
LAYER_1
 62
7
 10
27.831213
 20
16.172826
 42
-0.077929
  0
VERTEX
  8
LAYER_1
 62
7
 10
27.435248
 20
16.355748
  0
VERTEX
  8
LAYER_1
 62
7
 10
27.438927
 20
16.375193
 42
-0.021084
  0
VERTEX
  8
LAYER_1
 62
7
 10
27.765520
 20
16.740611
 42
-0.011651
  0
VERTEX
  8
LAYER_1
 62
7
 10
28.115566
 20
17.084153
 42
-0.007091
  0
VERTEX
  8
LAYER_1
 62
7
 10
27.740097
 20
17.478410
 42
-0.030466
  0
VERTEX
  8
LAYER_1
 62
7
 10
27.395569
 20
17.899273
  0
SEQEND
  0
POLYLINE
  8
LAYER_1
 62
7
 70
1
 66
1
  0
VERTEX
  8
LAYER_1
 62
7
 10
30.849187
 20
18.149695
 42
-0.099763
  0
VERTEX
  8
LAYER_1
 62
7
 10
31.303816
 20
18.100885
 42
-0.077206
  0
VERTEX
  8
LAYER_1
 62
7
 10
31.715285
 20
17.897959
 42
-0.018457
  0
VERTEX
  8
LAYER_1
 62
7
 10
31.337558
 20
17.435131
  0
VERTEX
  8
LAYER_1
 62
7
 10
31.206295
 20
17.285174
  0
VERTEX
  8
LAYER_1
 62
7
 10
31.108346
 20
17.180393
 42
0.051527
  0
VERTEX
  8
LAYER_1
 62
7
 10
31.020252
 20
17.067336
 42
-0.045351
  0
VERTEX
  8
LAYER_1
 62
7
 10
31.713183
 20
16.369675
 42
-0.077989
  0
VERTEX
  8
LAYER_1
 62
7
 10
31.305064
 20
16.177063
 42
-0.086101
  0
VERTEX
  8
LAYER_1
 62
7
 10
30.857333
 20
16.124771
 42
0.052942
  0
VERTEX
  8
LAYER_1
 62
7
 10
30.709786
 20
16.661714
 42
0.085923
  0
VERTEX
  8
LAYER_1
 62
7
 10
30.422707
 20
17.136182
 42
0.078130
  0
VERTEX
  8
LAYER_1
 62
7
 10
30.702067
 20
17.614264
 42
0.053026
  0
VERTEX
  8
LAYER_1
 62
7
 10
30.849187
 20
18.149695
  0
SEQEND
  0
POLYLINE
  8
LAYER_1
 62
7
 70
1
 66
1
  0
VERTEX
  8
LAYER_1
 62
7
 10
16.480530
 20
17.648851
 42
-0.098233
  0
VERTEX
  8
LAYER_1
 62
7
 10
16.891276
 20
17.947787
 42
-0.051594
  0
VERTEX
  8
LAYER_1
 62
7
 10
17.374745
 20
18.114484
 42
-0.074593
  0
VERTEX
  8
LAYER_1
 62
7
 10
17.339763
 20
17.935536
  0
VERTEX
  8
LAYER_1
 62
7
 10
17.276993
 20
17.762894
 42
-0.037086
  0
VERTEX
  8
LAYER_1
 62
7
 10
17.134833
 20
17.493782
 42
-0.062233
  0
VERTEX
  8
LAYER_1
 62
7
 10
16.943010
 20
17.258371
 42
0.016986
  0
VERTEX
  8
LAYER_1
 62
7
 10
16.827915
 20
17.141437
 42
0.029069
  0
VERTEX
  8
LAYER_1
 62
7
 10
16.935028
 20
17.029923
 42
-0.028169
  0
VERTEX
  8
LAYER_1
 62
7
 10
17.042337
 20
16.918606
 42
-0.069867
  0
VERTEX
  8
LAYER_1
 62
7
 10
17.258468
 20
16.563765
 42
-0.052246
  0
VERTEX
  8
LAYER_1
 62
7
 10
17.383153
 20
16.166552
 42
-0.066515
  0
VERTEX
  8
LAYER_1
 62
7
 10
17.288949
 20
16.182023
  0
VERTEX
  8
LAYER_1
 62
7
 10
17.197899
 20
16.211486
 42
-0.034631
  0
VERTEX
  8
LAYER_1
 62
7
 10
16.904513
 20
16.323953
 42
-0.057297
  0
VERTEX
  8
LAYER_1
 62
7
 10
16.637142
 20
16.487660
 42
-0.036181
  0
VERTEX
  8
LAYER_1
 62
7
 10
16.403275
 20
16.716797
 42
-0.018299
  0
VERTEX
  8
LAYER_1
 62
7
 10
16.216969
 20
16.534302
 42
-0.056083
  0
VERTEX
  8
LAYER_1
 62
7
 10
16.006226
 20
16.381762
 42
-0.035947
  0
VERTEX
  8
LAYER_1
 62
7
 10
15.720133
 20
16.248964
 42
-0.048550
  0
VERTEX
  8
LAYER_1
 62
7
 10
15.416302
 20
16.166026
 42
-0.028094
  0
VERTEX
  8
LAYER_1
 62
7
 10
15.486199
 20
16.425645
 42
-0.026630
  0
VERTEX
  8
LAYER_1
 62
7
 10
15.592819
 20
16.667100
 42
-0.051376
  0
VERTEX
  8
LAYER_1
 62
7
 10
15.735308
 20
16.888650
 42
-0.042931
  0
VERTEX
  8
LAYER_1
 62
7
 10
15.850435
 20
17.017080
  0
VERTEX
  8
LAYER_1
 62
7
 10
15.973642
 20
17.138021
  0
VERTEX
  8
LAYER_1
 62
7
 10
15.864230
 20
17.251145
 42
-0.018952
  0
VERTEX
  8
LAYER_1
 62
7
 10
15.756592
 20
17.365845
 42
-0.052647
  0
VERTEX
  8
LAYER_1
 62
7
 10
15.543155
 20
17.717073
 42
-0.066559
  0
VERTEX
  8
LAYER_1
 62
7
 10
15.418404
 20
18.107914
 42
-0.077670
  0
VERTEX
  8
LAYER_1
 62
7
 10
15.935442
 20
17.935503
 42
-0.092947
  0
VERTEX
  8
LAYER_1
 62
7
 10
16.365173
 20
17.602077
 42
0.094672
  0
VERTEX
  8
LAYER_1
 62
7
 10
16.379916
 20
17.584256
 42
0.151779
  0
VERTEX
  8
LAYER_1
 62
7
 10
16.395022
 20
17.578198
 42
0.125877
  0
VERTEX
  8
LAYER_1
 62
7
 10
16.410264
 20
17.581403
 42
0.065147
  0
VERTEX
  8
LAYER_1
 62
7
 10
16.425414
 20
17.591369
 42
0.038549
  0
VERTEX
  8
LAYER_1
 62
7
 10
16.454524
 20
17.621588
 42
-0.040329
  0
VERTEX
  8
LAYER_1
 62
7
 10
16.480530
 20
17.648851
  0
SEQEND
  0
POLYLINE
  8
LAYER_1
 62
7
 70
1
 66
1
  0
VERTEX
  8
LAYER_1
 62
7
 10
29.735295
 20
17.738982
 42
-0.073145
  0
VERTEX
  8
LAYER_1
 62
7
 10
30.117530
 20
17.979419
 42
-0.062523
  0
VERTEX
  8
LAYER_1
 62
7
 10
30.550415
 20
18.109491
 42
-0.110955
  0
VERTEX
  8
LAYER_1
 62
7
 10
30.205920
 20
17.367947
 42
-0.038157
  0
VERTEX
  8
LAYER_1
 62
7
 10
30.098315
 20
17.250948
  0
VERTEX
  8
LAYER_1
 62
7
 10
30.041113
 20
17.195601
  0
VERTEX
  8
LAYER_1
 62
7
 10
29.985980
 20
17.138284
  0
VERTEX
  8
LAYER_1
 62
7
 10
30.143545
 20
16.982329
 42
-0.045915
  0
VERTEX
  8
LAYER_1
 62
7
 10
30.283175
 20
16.810607
 42
-0.097335
  0
VERTEX
  8
LAYER_1
 62
7
 10
30.547787
 20
16.164450
 42
-0.088769
  0
VERTEX
  8
LAYER_1
 62
7
 10
29.921600
 20
16.400945
 42
-0.054400
  0
VERTEX
  8
LAYER_1
 62
7
 10
29.731977
 20
16.545010
 42
-0.011752
  0
VERTEX
  8
LAYER_1
 62
7
 10
29.562653
 20
16.713118
 42
-0.053247
  0
VERTEX
  8
LAYER_1
 62
7
 10
29.267987
 20
16.448474
 42
-0.070261
  0
VERTEX
  8
LAYER_1
 62
7
 10
28.918335
 20
16.264040
  0
VERTEX
  8
LAYER_1
 62
7
 10
28.749603
 20
16.204982
 42
-0.066339
  0
VERTEX
  8
LAYER_1
 62
7
 10
28.575943
 20
16.167603
 42
-0.056017
  0
VERTEX
  8
LAYER_1
 62
7
 10
28.709070
 20
16.581568
 42
-0.075344
  0
VERTEX
  8
LAYER_1
 62
7
 10
28.944087
 20
16.946460
  0
VERTEX
  8
LAYER_1
 62
7
 10
28.990315
 20
16.995903
  0
VERTEX
  8
LAYER_1
 62
7
 10
29.038981
 20
17.043029
 42
0.028401
  0
VERTEX
  8
LAYER_1
 62
7
 10
29.133283
 20
17.140386
 42
0.021764
  0
VERTEX
  8
LAYER_1
 62
7
 10
28.998875
 20
17.276535
 42
-0.051501
  0
VERTEX
  8
LAYER_1
 62
7
 10
28.873139
 20
17.419976
 42
-0.044714
  0
VERTEX
  8
LAYER_1
 62
7
 10
28.688377
 20
17.749493
 42
-0.062087
  0
VERTEX
  8
LAYER_1
 62
7
 10
28.577520
 20
18.109754
 42
-0.077664
  0
VERTEX
  8
LAYER_1
 62
7
 10
29.115415
 20
17.924072
 42
-0.097016
  0
VERTEX
  8
LAYER_1
 62
7
 10
29.557135
 20
17.567917
  0
VERTEX
  8
LAYER_1
 62
7
 10
29.602377
 20
17.609907
 42
-0.013541
  0
VERTEX
  8
LAYER_1
 62
7
 10
29.735295
 20
17.738982
  0
SEQEND
  0
POLYLINE
  8
LAYER_1
 62
7
 70
1
 66
1
  0
VERTEX
  8
LAYER_1
 62
7
 10
22.007159
 20
18.109228
 42
-0.081009
  0
VERTEX
  8
LAYER_1
 62
7
 10
22.545185
 20
17.922857
 42
-0.090452
  0
VERTEX
  8
LAYER_1
 62
7
 10
22.989402
 20
17.568180
 42
-0.178011
  0
VERTEX
  8
LAYER_1
 62
7
 10
23.973222
 20
18.106075
 42
-0.108802
  0
VERTEX
  8
LAYER_1
 62
7
 10
23.648172
 20
17.386341
 42
-0.040772
  0
VERTEX
  8
LAYER_1
 62
7
 10
23.533045
 20
17.258601
 42
0.030995
  0
VERTEX
  8
LAYER_1
 62
7
 10
23.415356
 20
17.133029
 42
-0.096156
  0
VERTEX
  8
LAYER_1
 62
7
 10
23.779000
 20
16.698108
 42
-0.079423
  0
VERTEX
  8
LAYER_1
 62
7
 10
23.972959
 20
16.163661
 42
-0.071396
  0
VERTEX
  8
LAYER_1
 62
7
 10
23.434407
 20
16.354270
 42
-0.103157
  0
VERTEX
  8
LAYER_1
 62
7
 10
22.994395
 20
16.714170
  0
VERTEX
  8
LAYER_1
 62
7
 10
22.934031
 20
16.658298
  0
VERTEX
  8
LAYER_1
 62
7
 10
22.875687
 20
16.600258
 42
-0.030767
  0
VERTEX
  8
LAYER_1
 62
7
 10
22.754221
 20
16.489499
 42
-0.062545
  0
VERTEX
  8
LAYER_1
 62
7
 10
22.397376
 20
16.283781
 42
-0.053365
  0
VERTEX
  8
LAYER_1
 62
7
 10
22.002692
 20
16.164975
 42
-0.050380
  0
VERTEX
  8
LAYER_1
 62
7
 10
22.140976
 20
16.588203
 42
-0.080037
  0
VERTEX
  8
LAYER_1
 62
7
 10
22.382135
 20
16.960387
  0
VERTEX
  8
LAYER_1
 62
7
 10
22.426802
 20
17.006377
  0
VERTEX
  8
LAYER_1
 62
7
 10
22.473810
 20
17.050026
 42
0.035595
  0
VERTEX
  8
LAYER_1
 62
7
 10
22.563711
 20
17.141437
 42
-0.169780
  0
VERTEX
  8
LAYER_1
 62
7
 10
22.007159
 20
18.109228
  0
SEQEND
  0
POLYLINE
  8
LAYER_1
 62
7
 70
1
 66
1
  0
VERTEX
  8
LAYER_1
 62
7
 10
26.625909
 20
17.139073
 42
-0.021038
  0
VERTEX
  8
LAYER_1
 62
7
 10
26.875444
 20
17.439914
 42
-0.031459
  0
VERTEX
  8
LAYER_1
 62
7
 10
27.155133
 20
17.712967
 42
0.034407
  0
VERTEX
  8
LAYER_1
 62
7
 10
27.398821
 20
17.390940
  0
VERTEX
  8
LAYER_1
 62
7
 10
27.664386
 20
17.086255
  0
VERTEX
  8
LAYER_1
 62
7
 10
27.410383
 20
16.827983
 42
0.035293
  0
VERTEX
  8
LAYER_1
 62
7
 10
27.177468
 20
16.550988
 42
-0.051369
  0
VERTEX
  8
LAYER_1
 62
7
 10
26.625909
 20
17.139073
  0
SEQEND
  0
POLYLINE
  8
LAYER_1
 62
7
 70
1
 66
1
  0
VERTEX
  8
LAYER_1
 62
7
 10
31.950203
 20
17.716383
 42
-0.050028
  0
VERTEX
  8
LAYER_1
 62
7
 10
32.240862
 20
17.446188
 42
-0.012773
  0
VERTEX
  8
LAYER_1
 62
7
 10
32.496244
 20
17.140912
 42
-0.053447
  0
VERTEX
  8
LAYER_1
 62
7
 10
31.957298
 20
16.562287
 42
0.045437
  0
VERTEX
  8
LAYER_1
 62
7
 10
31.723923
 20
16.839085
 42
0.003569
  0
VERTEX
  8
LAYER_1
 62
7
 10
31.464337
 20
17.092036
  0
VERTEX
  8
LAYER_1
 62
7
 10
31.592652
 20
17.242765
  0
VERTEX
  8
LAYER_1
 62
7
 10
31.719095
 20
17.395243
 42
0.031073
  0
VERTEX
  8
LAYER_1
 62
7
 10
31.950203
 20
17.716383
  0
SEQEND
  0
POLYLINE
  8
LAYER_1
 62
7
 70
1
 66
1
  0
VERTEX
  8
LAYER_1
 62
7
 10
13.466794
 20
17.141437
 42
-0.046261
  0
VERTEX
  8
LAYER_1
 62
7
 10
13.988660
 20
17.710340
 42
0.023420
  0
VERTEX
  8
LAYER_1
 62
7
 10
14.239640
 20
17.389298
  0
VERTEX
  8
LAYER_1
 62
7
 10
14.505796
 20
17.080474
 42
0.027727
  0
VERTEX
  8
LAYER_1
 62
7
 10
14.247950
 20
16.826636
 42
0.011961
  0
VERTEX
  8
LAYER_1
 62
7
 10
14.010995
 20
16.553090
 42
-0.028684
  0
VERTEX
  8
LAYER_1
 62
7
 10
13.792106
 20
16.762684
  0
VERTEX
  8
LAYER_1
 62
7
 10
13.585830
 20
16.985088
 42
-0.046536
  0
VERTEX
  8
LAYER_1
 62
7
 10
13.466794
 20
17.141437
  0
SEQEND
  0
POLYLINE
  8
LAYER_1
 62
7
 70
1
 66
1
  0
VERTEX
  8
LAYER_1
 62
7
 10
18.320725
 20
17.111219
  0
VERTEX
  8
LAYER_1
 62
7
 10
18.565498
 20
17.407100
 42
0.024791
  0
VERTEX
  8
LAYER_1
 62
7
 10
18.794504
 20
17.714807
 42
-0.041189
  0
VERTEX
  8
LAYER_1
 62
7
 10
19.083619
 20
17.443527
 42
-0.025266
  0
VERTEX
  8
LAYER_1
 62
7
 10
19.334501
 20
17.136182
 42
-0.045717
  0
VERTEX
  8
LAYER_1
 62
7
 10
18.803438
 20
16.563601
 42
0.016872
  0
VERTEX
  8
LAYER_1
 62
7
 10
18.594928
 20
16.807060
 42
0.031006
  0
VERTEX
  8
LAYER_1
 62
7
 10
18.364345
 20
17.029234
 42
0.051368
  0
VERTEX
  8
LAYER_1
 62
7
 10
18.345927
 20
17.047180
  0
VERTEX
  8
LAYER_1
 62
7
 10
18.324207
 20
17.066974
 42
-0.142054
  0
VERTEX
  8
LAYER_1
 62
7
 10
18.311651
 20
17.088394
 42
-0.135633
  0
VERTEX
  8
LAYER_1
 62
7
 10
18.312705
 20
17.099645
 42
-0.110642
  0
VERTEX
  8
LAYER_1
 62
7
 10
18.320725
 20
17.111219
  0
SEQEND
  0
POLYLINE
  8
LAYER_1
 62
7
 70
1
 66
1
  0
VERTEX
  8
LAYER_1
 62
7
 10
20.058964
 20
17.140386
 42
-0.058509
  0
VERTEX
  8
LAYER_1
 62
7
 10
20.580042
 20
17.710865
 42
0.038316
  0
VERTEX
  8
LAYER_1
 62
7
 10
21.096127
 20
17.089934
 42
0.029085
  0
VERTEX
  8
LAYER_1
 62
7
 10
20.599225
 20
16.549937
 42
-0.033518
  0
VERTEX
  8
LAYER_1
 62
7
 10
20.169066
 20
16.996124
  0
VERTEX
  8
LAYER_1
 62
7
 10
20.107315
 20
17.064609
 42
-0.102722
  0
VERTEX
  8
LAYER_1
 62
7
 10
20.058964
 20
17.140386
  0
SEQEND
  0
POLYLINE
  8
LAYER_1
 62
7
 70
1
 66
1
  0
VERTEX
  8
LAYER_1
 62
7
 10
24.889509
 20
17.081525
 42
-0.005740
  0
VERTEX
  8
LAYER_1
 62
7
 10
25.143676
 20
17.394586
 42
0.023970
  0
VERTEX
  8
LAYER_1
 62
7
 10
25.386412
 20
17.716909
 42
-0.050927
  0
VERTEX
  8
LAYER_1
 62
7
 10
25.880687
 20
17.193466
 42
-0.083125
  0
VERTEX
  8
LAYER_1
 62
7
 10
25.910380
 20
17.148828
 42
-0.132873
  0
VERTEX
  8
LAYER_1
 62
7
 10
25.913722
 20
17.123737
 42
-0.180510
  0
VERTEX
  8
LAYER_1
 62
7
 10
25.899869
 20
17.100445
 42
-0.037732
  0
VERTEX
  8
LAYER_1
 62
7
 10
25.390353
 20
16.565440
 42
0.020710
  0
VERTEX
  8
LAYER_1
 62
7
 10
25.154121
 20
16.837377
 42
0.034510
  0
VERTEX
  8
LAYER_1
 62
7
 10
24.889509
 20
17.081525
  0
SEQEND
  0
POLYLINE
  8
LAYER_1
 62
7
 70
1
 66
1
  0
VERTEX
  8
LAYER_1
 62
7
 10
19.687142
 20
17.116737
 42
0.067285
  0
VERTEX
  8
LAYER_1
 62
7
 10
20.457590
 20
16.249851
 42
0.059919
  0
VERTEX
  8
LAYER_1
 62
7
 10
20.401226
 20
15.560237
 42
0.016343
  0
VERTEX
  8
LAYER_1
 62
7
 10
20.436099
 20
15.040452
  0
VERTEX
  8
LAYER_1
 62
7
 10
20.452860
 20
14.868456
 42
0.012284
  0
VERTEX
  8
LAYER_1
 62
7
 10
20.203227
 20
14.877194
 42
0.072931
  0
VERTEX
  8
LAYER_1
 62
7
 10
19.956746
 20
14.843756
 42
0.060638
  0
VERTEX
  8
LAYER_1
 62
7
 10
19.815539
 20
14.761574
  0
VERTEX
  8
LAYER_1
 62
7
 10
19.684777
 20
14.662443
  0
VERTEX
  8
LAYER_1
 62
7
 10
19.616185
 20
14.714328
  0
VERTEX
  8
LAYER_1
 62
7
 10
19.546164
 20
14.764563
 42
0.053968
  0
VERTEX
  8
LAYER_1
 62
7
 10
19.395727
 20
14.847172
 42
0.058446
  0
VERTEX
  8
LAYER_1
 62
7
 10
19.167936
 20
14.876438
 42
0.031634
  0
VERTEX
  8
LAYER_1
 62
7
 10
18.937977
 20
14.864515
 42
0.007853
  0
VERTEX
  8
LAYER_1
 62
7
 10
18.985211
 20
15.515763
 42
0.052398
  0
VERTEX
  8
LAYER_1
 62
7
 10
18.954007
 20
16.166815
 42
0.039865
  0
VERTEX
  8
LAYER_1
 62
7
 10
18.949954
 20
16.197777
  0
VERTEX
  8
LAYER_1
 62
7
 10
18.944842
 20
16.230241
 42
-0.102493
  0
VERTEX
  8
LAYER_1
 62
7
 10
18.947466
 20
16.260489
 42
-0.172270
  0
VERTEX
  8
LAYER_1
 62
7
 10
18.966620
 20
16.284799
 42
0.082546
  0
VERTEX
  8
LAYER_1
 62
7
 10
19.687142
 20
17.116737
  0
SEQEND
  0
POLYLINE
  8
LAYER_1
 62
7
 70
1
 66
1
  0
VERTEX
  8
LAYER_1
 62
7
 10
26.268802
 20
17.097029
 42
0.018339
  0
VERTEX
  8
LAYER_1
 62
7
 10
26.616022
 20
16.656425
 42
0.050661
  0
VERTEX
  8
LAYER_1
 62
7
 10
27.019805
 20
16.268245
 42
-0.035381
  0
VERTEX
  8
LAYER_1
 62
7
 10
27.011068
 20
16.166322
  0
VERTEX
  8
LAYER_1
 62
7
 10
26.994842
 20
16.065385
 42
0.041199
  0
VERTEX
  8
LAYER_1
 62
7
 10
26.977367
 20
15.463997
 42
0.006049
  0
VERTEX
  8
LAYER_1
 62
7
 10
27.016652
 20
14.863201
 42
0.080536
  0
VERTEX
  8
LAYER_1
 62
7
 10
26.625121
 20
14.863464
 42
0.115425
  0
VERTEX
  8
LAYER_1
 62
7
 10
26.436056
 20
14.787391
 42
0.022526
  0
VERTEX
  8
LAYER_1
 62
7
 10
26.272218
 20
14.661654
  0
VERTEX
  8
LAYER_1
 62
7
 10
26.133736
 20
14.763512
 42
0.062532
  0
VERTEX
  8
LAYER_1
 62
7
 10
25.983431
 20
14.845070
 42
0.067891
  0
VERTEX
  8
LAYER_1
 62
7
 10
25.753965
 20
14.875781
 42
0.021606
  0
VERTEX
  8
LAYER_1
 62
7
 10
25.521740
 20
14.865303
  0
VERTEX
  8
LAYER_1
 62
7
 10
25.551794
 20
15.211682
 42
0.011931
  0
VERTEX
  8
LAYER_1
 62
7
 10
25.574951
 20
15.559515
 42
0.026066
  0
VERTEX
  8
LAYER_1
 62
7
 10
25.571699
 20
15.906510
 42
0.040102
  0
VERTEX
  8
LAYER_1
 62
7
 10
25.522528
 20
16.250376
 42
-0.022530
  0
VERTEX
  8
LAYER_1
 62
7
 10
25.657659
 20
16.375522
 42
0.021015
  0
VERTEX
  8
LAYER_1
 62
7
 10
25.793183
 20
16.500273
 42
0.015808
  0
VERTEX
  8
LAYER_1
 62
7
 10
26.045182
 20
16.787417
 42
0.031601
  0
VERTEX
  8
LAYER_1
 62
7
 10
26.268802
 20
17.097029
  0
SEQEND
  0
POLYLINE
  8
LAYER_1
 62
7
 70
1
 66
1
  0
VERTEX
  8
LAYER_1
 62
7
 10
32.100246
 20
16.259573
 42
0.041146
  0
VERTEX
  8
LAYER_1
 62
7
 10
32.487277
 20
16.635732
 42
0.022627
  0
VERTEX
  8
LAYER_1
 62
7
 10
32.823659
 20
17.058401
  0
VERTEX
  8
LAYER_1
 62
7
 10
32.823659
 20
14.683202
  0
VERTEX
  8
LAYER_1
 62
7
 10
32.690564
 20
14.774942
 42
0.053951
  0
VERTEX
  8
LAYER_1
 62
7
 10
32.548010
 20
14.849537
 42
0.060346
  0
VERTEX
  8
LAYER_1
 62
7
 10
32.323800
 20
14.875880
 42
0.021175
  0
VERTEX
  8
LAYER_1
 62
7
 10
32.097619
 20
14.865566
  0
VERTEX
  8
LAYER_1
 62
7
 10
32.126002
 20
15.213821
 42
0.011443
  0
VERTEX
  8
LAYER_1
 62
7
 10
32.145739
 20
15.563358
 42
0.054770
  0
VERTEX
  8
LAYER_1
 62
7
 10
32.100246
 20
16.259573
  0
SEQEND
  0
POLYLINE
  8
LAYER_1
 62
7
 70
1
 66
1
  0
VERTEX
  8
LAYER_1
 62
7
 10
15.370317
 20
15.823371
 42
0.062193
  0
VERTEX
  8
LAYER_1
 62
7
 10
15.915340
 20
15.973546
 42
0.074538
  0
VERTEX
  8
LAYER_1
 62
7
 10
16.399071
 20
16.264040
 42
0.074436
  0
VERTEX
  8
LAYER_1
 62
7
 10
16.883163
 20
15.974071
 42
0.062936
  0
VERTEX
  8
LAYER_1
 62
7
 10
17.428350
 20
15.825211
 42
-0.109145
  0
VERTEX
  8
LAYER_1
 62
7
 10
17.363018
 20
15.374195
 42
-0.053330
  0
VERTEX
  8
LAYER_1
 62
7
 10
17.156381
 20
14.963580
 42
-0.040896
  0
VERTEX
  8
LAYER_1
 62
7
 10
16.415888
 20
15.601591
 42
0.051269
  0
VERTEX
  8
LAYER_1
 62
7
 10
16.292451
 20
15.516420
  0
VERTEX
  8
LAYER_1
 62
7
 10
16.176502
 20
15.420804
 42
-0.006218
  0
VERTEX
  8
LAYER_1
 62
7
 10
15.898719
 20
15.211440
 42
-0.018003
  0
VERTEX
  8
LAYER_1
 62
7
 10
15.611279
 20
15.015872
 42
-0.057343
  0
VERTEX
  8
LAYER_1
 62
7
 10
15.425466
 20
15.401589
 42
-0.103436
  0
VERTEX
  8
LAYER_1
 62
7
 10
15.370317
 20
15.823371
  0
SEQEND
  0
POLYLINE
  8
LAYER_1
 62
7
 70
1
 66
1
  0
VERTEX
  8
LAYER_1
 62
7
 10
21.964064
 20
15.828889
 42
0.139581
  0
VERTEX
  8
LAYER_1
 62
7
 10
22.991767
 20
16.265617
 42
0.079568
  0
VERTEX
  8
LAYER_1
 62
7
 10
23.473856
 20
15.973119
 42
0.060538
  0
VERTEX
  8
LAYER_1
 62
7
 10
24.019207
 20
15.823897
 42
-0.111654
  0
VERTEX
  8
LAYER_1
 62
7
 10
23.952791
 20
15.372355
 42
-0.052113
  0
VERTEX
  8
LAYER_1
 62
7
 10
23.744084
 20
14.962003
 42
-0.024524
  0
VERTEX
  8
LAYER_1
 62
7
 10
23.357710
 20
15.271615
 42
-0.011501
  0
VERTEX
  8
LAYER_1
 62
7
 10
22.994395
 20
15.608423
 42
-0.025284
  0
VERTEX
  8
LAYER_1
 62
7
 10
22.253377
 20
15.047930
 42
-0.017923
  0
VERTEX
  8
LAYER_1
 62
7
 10
22.218822
 20
15.026941
 42
-0.058170
  0
VERTEX
  8
LAYER_1
 62
7
 10
22.209614
 20
15.023903
 42
-0.107207
  0
VERTEX
  8
LAYER_1
 62
7
 10
22.201126
 20
15.023948
 42
-0.142868
  0
VERTEX
  8
LAYER_1
 62
7
 10
22.193833
 20
15.028174
 42
-0.105188
  0
VERTEX
  8
LAYER_1
 62
7
 10
22.188209
 20
15.037682
 42
-0.058125
  0
VERTEX
  8
LAYER_1
 62
7
 10
22.010411
 20
15.416534
 42
-0.107331
  0
VERTEX
  8
LAYER_1
 62
7
 10
21.964064
 20
15.828889
  0
SEQEND
  0
POLYLINE
  8
LAYER_1
 62
7
 70
1
 66
1
  0
VERTEX
  8
LAYER_1
 62
7
 10
28.530746
 20
15.825473
 42
0.064334
  0
VERTEX
  8
LAYER_1
 62
7
 10
29.077805
 20
15.974531
 42
0.071678
  0
VERTEX
  8
LAYER_1
 62
7
 10
29.564756
 20
16.264303
 42
0.129274
  0
VERTEX
  8
LAYER_1
 62
7
 10
30.481831
 20
15.843867
 42
0.036154
  0
VERTEX
  8
LAYER_1
 62
7
 10
30.511660
 20
15.839269
  0
VERTEX
  8
LAYER_1
 62
7
 10
30.542696
 20
15.835459
 42
-0.079995
  0
VERTEX
  8
LAYER_1
 62
7
 10
30.571219
 20
15.826130
 42
-0.133879
  0
VERTEX
  8
LAYER_1
 62
7
 10
30.593509
 20
15.804977
 42
-0.106765
  0
VERTEX
  8
LAYER_1
 62
7
 10
30.522857
 20
15.363027
 42
-0.056909
  0
VERTEX
  8
LAYER_1
 62
7
 10
30.313657
 20
14.963054
 42
-0.021957
  0
VERTEX
  8
LAYER_1
 62
7
 10
29.928794
 20
15.272403
 42
-0.013302
  0
VERTEX
  8
LAYER_1
 62
7
 10
29.566595
 20
15.608161
 42
-0.011489
  0
VERTEX
  8
LAYER_1
 62
7
 10
29.177955
 20
15.297925
 42
-0.025377
  0
VERTEX
  8
LAYER_1
 62
7
 10
28.768030
 20
15.017448
 42
-0.050863
  0
VERTEX
  8
LAYER_1
 62
7
 10
28.587111
 20
15.404709
 42
-0.102167
  0
VERTEX
  8
LAYER_1
 62
7
 10
28.530746
 20
15.825473
  0
SEQEND
  0
POLYLINE
  8
LAYER_1
 62
7
 70
1
 66
1
  0
VERTEX
  8
LAYER_1
 62
7
 10
14.122936
 20
16.062231
  0
VERTEX
  8
LAYER_1
 62
7
 10
14.349939
 20
15.946414
 42
0.044325
  0
VERTEX
  8
LAYER_1
 62
7
 10
14.586992
 20
15.853853
 42
0.050859
  0
VERTEX
  8
LAYER_1
 62
7
 10
14.830254
 20
15.804977
 42
0.026185
  0
VERTEX
  8
LAYER_1
 62
7
 10
15.078639
 20
15.793941
 42
-0.064585
  0
VERTEX
  8
LAYER_1
 62
7
 10
15.087048
 20
15.679175
 42
0.039972
  0
VERTEX
  8
LAYER_1
 62
7
 10
15.089939
 20
15.563227
 42
0.112114
  0
VERTEX
  8
LAYER_1
 62
7
 10
15.341675
 20
14.866617
 42
-0.129369
  0
VERTEX
  8
LAYER_1
 62
7
 10
15.164139
 20
14.828876
 42
0.033310
  0
VERTEX
  8
LAYER_1
 62
7
 10
14.979311
 20
14.824836
  0
VERTEX
  8
LAYER_1
 62
7
 10
14.772083
 20
14.825062
  0
VERTEX
  8
LAYER_1
 62
7
 10
14.564657
 20
14.828416
 42
-0.027038
  0
VERTEX
  8
LAYER_1
 62
7
 10
14.151578
 20
14.860573
  0
VERTEX
  8
LAYER_1
 62
7
 10
14.131953
 20
15.160889
 42
-0.005230
  0
VERTEX
  8
LAYER_1
 62
7
 10
14.112622
 20
15.461402
 42
-0.040503
  0
VERTEX
  8
LAYER_1
 62
7
 10
14.122936
 20
16.062231
  0
SEQEND
  0
POLYLINE
  8
LAYER_1
 62
7
 70
1
 66
1
  0
VERTEX
  8
LAYER_1
 62
7
 10
18.279207
 20
15.875926
 42
0.041086
  0
VERTEX
  8
LAYER_1
 62
7
 10
18.482166
 20
15.961491
  0
VERTEX
  8
LAYER_1
 62
7
 10
18.677833
 20
16.063020
 42
-0.035345
  0
VERTEX
  8
LAYER_1
 62
7
 10
18.690906
 20
15.669846
  0
VERTEX
  8
LAYER_1
 62
7
 10
18.672840
 20
15.276279
  0
VERTEX
  8
LAYER_1
 62
7
 10
18.658946
 20
15.065601
 42
-0.031470
  0
VERTEX
  8
LAYER_1
 62
7
 10
18.635001
 20
14.856106
 42
-0.026153
  0
VERTEX
  8
LAYER_1
 62
7
 10
18.346838
 20
14.829894
  0
VERTEX
  8
LAYER_1
 62
7
 10
18.202178
 20
14.823218
  0
VERTEX
  8
LAYER_1
 62
7
 10
18.057690
 20
14.814325
  0
VERTEX
  8
LAYER_1
 62
7
 10
17.746765
 20
14.808741
 42
-0.040568
  0
VERTEX
  8
LAYER_1
 62
7
 10
17.437022
 20
14.831143
 42
0.162611
  0
VERTEX
  8
LAYER_1
 62
7
 10
17.714772
 20
15.791313
 42
0.029419
  0
VERTEX
  8
LAYER_1
 62
7
 10
18.001030
 20
15.809181
 42
0.057343
  0
VERTEX
  8
LAYER_1
 62
7
 10
18.279207
 20
15.875926
  0
SEQEND
  0
POLYLINE
  8
LAYER_1
 62
7
 70
1
 66
1
  0
VERTEX
  8
LAYER_1
 62
7
 10
20.712217
 20
16.063282
 42
0.064537
  0
VERTEX
  8
LAYER_1
 62
7
 10
21.173514
 20
15.856185
 42
0.086792
  0
VERTEX
  8
LAYER_1
 62
7
 10
21.674226
 20
15.795517
 42
0.085554
  0
VERTEX
  8
LAYER_1
 62
7
 10
21.729080
 20
15.307845
 42
0.070265
  0
VERTEX
  8
LAYER_1
 62
7
 10
21.930167
 20
14.858997
 42
-0.053828
  0
VERTEX
  8
LAYER_1
 62
7
 10
21.788532
 20
14.831143
 42
-0.010440
  0
VERTEX
  8
LAYER_1
 62
7
 10
21.257436
 20
14.824869
 42
-0.032929
  0
VERTEX
  8
LAYER_1
 62
7
 10
20.728509
 20
14.864515
 42
0.102727
  0
VERTEX
  8
LAYER_1
 62
7
 10
20.737771
 20
14.967554
  0
VERTEX
  8
LAYER_1
 62
7
 10
20.727720
 20
15.071579
 42
-0.007874
  0
VERTEX
  8
LAYER_1
 62
7
 10
20.697501
 20
15.567332
 42
-0.037439
  0
VERTEX
  8
LAYER_1
 62
7
 10
20.712217
 20
16.063282
  0
SEQEND
  0
POLYLINE
  8
LAYER_1
 62
7
 70
1
 66
1
  0
VERTEX
  8
LAYER_1
 62
7
 10
24.944429
 20
15.904042
 42
0.040062
  0
VERTEX
  8
LAYER_1
 62
7
 10
25.108267
 20
15.980870
 42
-0.023960
  0
VERTEX
  8
LAYER_1
 62
7
 10
25.269741
 20
16.063020
 42
-0.032637
  0
VERTEX
  8
LAYER_1
 62
7
 10
25.275358
 20
15.458315
 42
-0.011952
  0
VERTEX
  8
LAYER_1
 62
7
 10
25.227172
 20
14.854792
 42
-0.030642
  0
VERTEX
  8
LAYER_1
 62
7
 10
24.178710
 20
14.811960
 42
-0.074968
  0
VERTEX
  8
LAYER_1
 62
7
 10
24.028404
 20
14.838238
 42
0.075853
  0
VERTEX
  8
LAYER_1
 62
7
 10
24.242367
 20
15.293786
 42
0.083920
  0
VERTEX
  8
LAYER_1
 62
7
 10
24.303790
 20
15.792890
 42
0.042283
  0
VERTEX
  8
LAYER_1
 62
7
 10
24.630219
 20
15.814962
 42
0.062294
  0
VERTEX
  8
LAYER_1
 62
7
 10
24.944429
 20
15.904042
  0
SEQEND
  0
POLYLINE
  8
LAYER_1
 62
7
 70
1
 66
1
  0
VERTEX
  8
LAYER_1
 62
7
 10
27.287307
 20
16.061969
 42
0.061092
  0
VERTEX
  8
LAYER_1
 62
7
 10
27.746239
 20
15.856316
 42
0.090298
  0
VERTEX
  8
LAYER_1
 62
7
 10
28.243799
 20
15.796306
 42
0.083355
  0
VERTEX
  8
LAYER_1
 62
7
 10
28.300853
 20
15.308304
 42
0.069219
  0
VERTEX
  8
LAYER_1
 62
7
 10
28.501578
 20
14.858734
  0
VERTEX
  8
LAYER_1
 62
7
 10
28.442947
 20
14.841489
 42
-0.064720
  0
VERTEX
  8
LAYER_1
 62
7
 10
28.383331
 20
14.831143
 42
-0.011510
  0
VERTEX
  8
LAYER_1
 62
7
 10
27.854600
 20
14.825329
 42
-0.024156
  0
VERTEX
  8
LAYER_1
 62
7
 10
27.327249
 20
14.857157
 42
-0.042537
  0
VERTEX
  8
LAYER_1
 62
7
 10
27.292793
 20
15.172024
 42
0.017518
  0
VERTEX
  8
LAYER_1
 62
7
 10
27.273906
 20
15.489650
  0
VERTEX
  8
LAYER_1
 62
7
 10
27.269127
 20
15.632878
  0
VERTEX
  8
LAYER_1
 62
7
 10
27.266614
 20
15.776401
 42
-0.041072
  0
VERTEX
  8
LAYER_1
 62
7
 10
27.287307
 20
16.061969
  0
SEQEND
  0
POLYLINE
  8
LAYER_1
 62
7
 70
1
 66
1
  0
VERTEX
  8
LAYER_1
 62
7
 10
30.958500
 20
15.796568
 42
0.090500
  0
VERTEX
  8
LAYER_1
 62
7
 10
31.418418
 20
15.869521
 42
0.045127
  0
VERTEX
  8
LAYER_1
 62
7
 10
31.844043
 20
16.063282
 42
-0.039776
  0
VERTEX
  8
LAYER_1
 62
7
 10
31.848018
 20
15.463176
  0
VERTEX
  8
LAYER_1
 62
7
 10
31.827082
 20
15.163271
 42
0.006920
  0
VERTEX
  8
LAYER_1
 62
7
 10
31.808043
 20
14.863464
 42
-0.046550
  0
VERTEX
  8
LAYER_1
 62
7
 10
31.541921
 20
14.831110
 42
0.011366
  0
VERTEX
  8
LAYER_1
 62
7
 10
31.273827
 20
14.817478
 42
-0.003033
  0
VERTEX
  8
LAYER_1
 62
7
 10
30.936789
 20
14.808183
 42
-0.047971
  0
VERTEX
  8
LAYER_1
 62
7
 10
30.601918
 20
14.832982
 42
0.065158
  0
VERTEX
  8
LAYER_1
 62
7
 10
30.810362
 20
15.274177
 42
0.086049
  0
VERTEX
  8
LAYER_1
 62
7
 10
30.878880
 20
15.755576
 42
-0.089403
  0
VERTEX
  8
LAYER_1
 62
7
 10
30.877376
 20
15.772200
 42
-0.130225
  0
VERTEX
  8
LAYER_1
 62
7
 10
30.881676
 20
15.783820
 42
-0.186612
  0
VERTEX
  8
LAYER_1
 62
7
 10
30.902628
 20
15.795484
 42
-0.055583
  0
VERTEX
  8
LAYER_1
 62
7
 10
30.931611
 20
15.797443
  0
VERTEX
  8
LAYER_1
 62
7
 10
30.958500
 20
15.796568
  0
SEQEND
  0
POLYLINE
  8
LAYER_1
 62
7
 70
1
 66
1
  0
VERTEX
  8
LAYER_1
 62
7
 10
16.332589
 20
15.134119
 42
-0.013476
  0
VERTEX
  8
LAYER_1
 62
7
 10
16.372432
 20
15.164404
 42
-0.149598
  0
VERTEX
  8
LAYER_1
 62
7
 10
16.394263
 20
15.170924
 42
-0.229013
  0
VERTEX
  8
LAYER_1
 62
7
 10
16.414837
 20
15.158031
 42
0.026933
  0
VERTEX
  8
LAYER_1
 62
7
 10
16.940119
 20
14.717099
 42
-0.111056
  0
VERTEX
  8
LAYER_1
 62
7
 10
16.950226
 20
14.707625
 42
-0.157613
  0
VERTEX
  8
LAYER_1
 62
7
 10
16.952884
 20
14.697671
 42
-0.109701
  0
VERTEX
  8
LAYER_1
 62
7
 10
16.949759
 20
14.687445
 42
-0.053930
  0
VERTEX
  8
LAYER_1
 62
7
 10
16.942517
 20
14.677158
  0
VERTEX
  8
LAYER_1
 62
7
 10
16.922345
 20
14.657237
 42
0.054906
  0
VERTEX
  8
LAYER_1
 62
7
 10
16.905696
 20
14.639582
 42
-0.030393
  0
VERTEX
  8
LAYER_1
 62
7
 10
16.401436
 20
14.203379
 42
-0.016682
  0
VERTEX
  8
LAYER_1
 62
7
 10
16.087620
 20
14.459615
 42
-0.035604
  0
VERTEX
  8
LAYER_1
 62
7
 10
15.802577
 20
14.746793
 42
0.011169
  0
VERTEX
  8
LAYER_1
 62
7
 10
16.332589
 20
15.134119
  0
SEQEND
  0
POLYLINE
  8
LAYER_1
 62
7
 70
1
 66
1
  0
VERTEX
  8
LAYER_1
 62
7
 10
22.386602
 20
14.742326
  0
VERTEX
  8
LAYER_1
 62
7
 10
22.534477
 20
14.849783
  0
VERTEX
  8
LAYER_1
 62
7
 10
22.683732
 20
14.955565
 42
0.024791
  0
VERTEX
  8
LAYER_1
 62
7
 10
22.972585
 20
15.179842
  0
VERTEX
  8
LAYER_1
 62
7
 10
23.257167
 20
14.935857
 42
0.017447
  0
VERTEX
  8
LAYER_1
 62
7
 10
23.549633
 20
14.701333
 42
-0.026601
  0
VERTEX
  8
LAYER_1
 62
7
 10
23.281375
 20
14.442634
 42
-0.010665
  0
VERTEX
  8
LAYER_1
 62
7
 10
22.994395
 20
14.204431
 42
-0.031743
  0
VERTEX
  8
LAYER_1
 62
7
 10
22.677294
 20
14.458400
 42
-0.017485
  0
VERTEX
  8
LAYER_1
 62
7
 10
22.386602
 20
14.742326
  0
SEQEND
  0
POLYLINE
  8
LAYER_1
 62
7
 70
1
 66
1
  0
VERTEX
  8
LAYER_1
 62
7
 10
28.960642
 20
14.746793
 42
0.012902
  0
VERTEX
  8
LAYER_1
 62
7
 10
29.261483
 20
14.959474
  0
VERTEX
  8
LAYER_1
 62
7
 10
29.556610
 20
15.179842
 42
0.033093
  0
VERTEX
  8
LAYER_1
 62
7
 10
30.118154
 20
14.706589
 42
-0.041403
  0
VERTEX
  8
LAYER_1
 62
7
 10
29.853115
 20
14.442075
  0
VERTEX
  8
LAYER_1
 62
7
 10
29.565018
 20
14.201803
 42
-0.020085
  0
VERTEX
  8
LAYER_1
 62
7
 10
29.248739
 20
14.458926
 42
-0.031180
  0
VERTEX
  8
LAYER_1
 62
7
 10
28.960642
 20
14.746793
  0
SEQEND
  0
POLYLINE
  8
LAYER_1
 62
7
 70
1
 66
1
  0
VERTEX
  8
LAYER_1
 62
7
 10
21.818488
 20
14.508721
 42
0.096457
  0
VERTEX
  8
LAYER_1
 62
7
 10
22.110954
 20
14.589392
 42
0.022744
  0
VERTEX
  8
LAYER_1
 62
7
 10
22.507576
 20
14.180847
 42
0.052852
  0
VERTEX
  8
LAYER_1
 62
7
 10
22.959972
 20
13.837337
 42
0.003399
  0
VERTEX
  8
LAYER_1
 62
7
 10
22.666061
 20
13.623572
 42
0.044469
  0
VERTEX
  8
LAYER_1
 62
7
 10
22.394223
 20
13.383004
 42
0.030530
  0
VERTEX
  8
LAYER_1
 62
7
 10
22.231435
 20
13.216538
  0
VERTEX
  8
LAYER_1
 62
7
 10
22.077319
 20
13.042977
 42
0.040033
  0
VERTEX
  8
LAYER_1
 62
7
 10
21.422622
 20
13.078254
 42
0.013871
  0
VERTEX
  8
LAYER_1
 62
7
 10
20.767136
 20
13.042977
  0
VERTEX
  8
LAYER_1
 62
7
 10
20.771997
 20
13.283840
 42
0.058184
  0
VERTEX
  8
LAYER_1
 62
7
 10
20.746903
 20
13.522536
 42
0.095838
  0
VERTEX
  8
LAYER_1
 62
7
 10
20.658053
 20
13.663711
 42
-0.018803
  0
VERTEX
  8
LAYER_1
 62
7
 10
20.547721
 20
13.791090
 42
0.077935
  0
VERTEX
  8
LAYER_1
 62
7
 10
20.727720
 20
14.052023
 42
0.083069
  0
VERTEX
  8
LAYER_1
 62
7
 10
20.760632
 20
14.284609
 42
-0.005789
  0
VERTEX
  8
LAYER_1
 62
7
 10
20.757676
 20
14.521334
 42
0.006894
  0
VERTEX
  8
LAYER_1
 62
7
 10
21.288082
 20
14.494728
 42
0.031395
  0
VERTEX
  8
LAYER_1
 62
7
 10
21.818488
 20
14.508721
  0
SEQEND
  0
POLYLINE
  8
LAYER_1
 62
7
 70
1
 66
1
  0
VERTEX
  8
LAYER_1
 62
7
 10
25.488630
 20
14.523699
 42
-0.104078
  0
VERTEX
  8
LAYER_1
 62
7
 10
25.878847
 20
14.532896
 42
-0.057622
  0
VERTEX
  8
LAYER_1
 62
7
 10
26.084237
 20
14.397174
  0
VERTEX
  8
LAYER_1
 62
7
 10
26.274057
 20
14.238591
 42
0.006519
  0
VERTEX
  8
LAYER_1
 62
7
 10
26.452282
 20
14.396747
 42
-0.066283
  0
VERTEX
  8
LAYER_1
 62
7
 10
26.646668
 20
14.531845
 42
-0.076885
  0
VERTEX
  8
LAYER_1
 62
7
 10
27.036360
 20
14.534473
 42
-0.131323
  0
VERTEX
  8
LAYER_1
 62
7
 10
27.035046
 20
14.181832
 42
-0.041639
  0
VERTEX
  8
LAYER_1
 62
7
 10
26.870255
 20
13.969611
  0
VERTEX
  8
LAYER_1
 62
7
 10
26.687923
 20
13.771382
 42
0.009496
  0
VERTEX
  8
LAYER_1
 62
7
 10
26.860434
 20
13.613390
 42
-0.040009
  0
VERTEX
  8
LAYER_1
 62
7
 10
27.022695
 20
13.445544
 42
-0.141451
  0
VERTEX
  8
LAYER_1
 62
7
 10
27.065265
 20
13.235457
 42
-0.012496
  0
VERTEX
  8
LAYER_1
 62
7
 10
27.043192
 20
13.017488
 42
0.015794
  0
VERTEX
  8
LAYER_1
 62
7
 10
26.848674
 20
13.014367
 42
-0.059702
  0
VERTEX
  8
LAYER_1
 62
7
 10
26.656128
 20
13.027999
 42
-0.047758
  0
VERTEX
  8
LAYER_1
 62
7
 10
26.459180
 20
13.178042
  0
VERTEX
  8
LAYER_1
 62
7
 10
26.368786
 20
13.263311
  0
VERTEX
  8
LAYER_1
 62
7
 10
26.280363
 20
13.350157
 42
-0.036010
  0
VERTEX
  8
LAYER_1
 62
7
 10
25.914847
 20
13.069517
 42
-0.097920
  0
VERTEX
  8
LAYER_1
 62
7
 10
25.817683
 20
13.025991
 42
-0.056968
  0
VERTEX
  8
LAYER_1
 62
7
 10
25.712414
 20
13.014761
  0
VERTEX
  8
LAYER_1
 62
7
 10
25.604041
 20
13.018559
 42
0.025384
  0
VERTEX
  8
LAYER_1
 62
7
 10
25.497565
 20
13.020115
 42
-0.012750
  0
VERTEX
  8
LAYER_1
 62
7
 10
25.479597
 20
13.211249
 42
-0.097649
  0
VERTEX
  8
LAYER_1
 62
7
 10
25.502820
 20
13.399033
 42
-0.039244
  0
VERTEX
  8
LAYER_1
 62
7
 10
25.669878
 20
13.595193
 42
-0.023165
  0
VERTEX
  8
LAYER_1
 62
7
 10
25.860190
 20
13.769279
 42
0.014980
  0
VERTEX
  8
LAYER_1
 62
7
 10
25.690012
 20
13.953089
 42
-0.037093
  0
VERTEX
  8
LAYER_1
 62
7
 10
25.528309
 20
14.143993
 42
-0.103213
  0
VERTEX
  8
LAYER_1
 62
7
 10
25.489332
 20
14.232219
 42
-0.058580
  0
VERTEX
  8
LAYER_1
 62
7
 10
25.480977
 20
14.328131
  0
VERTEX
  8
LAYER_1
 62
7
 10
25.486368
 20
14.426900
 42
0.029595
  0
VERTEX
  8
LAYER_1
 62
7
 10
25.488630
 20
14.523699
  0
SEQEND
  0
POLYLINE
  8
LAYER_1
 62
7
 70
1
 66
1
  0
VERTEX
  8
LAYER_1
 62
7
 10
28.487126
 20
14.522911
 42
0.080100
  0
VERTEX
  8
LAYER_1
 62
7
 10
28.592760
 20
14.551126
  0
VERTEX
  8
LAYER_1
 62
7
 10
28.644321
 20
14.569434
 42
-0.060672
  0
VERTEX
  8
LAYER_1
 62
7
 10
28.697607
 20
14.579144
 42
0.069737
  0
VERTEX
  8
LAYER_1
 62
7
 10
29.519821
 20
13.836024
  0
VERTEX
  8
LAYER_1
 62
7
 10
29.509573
 20
13.815002
 42
0.046410
  0
VERTEX
  8
LAYER_1
 62
7
 10
29.047160
 20
13.461080
 42
0.034426
  0
VERTEX
  8
LAYER_1
 62
7
 10
28.647417
 20
13.037196
 42
0.043905
  0
VERTEX
  8
LAYER_1
 62
7
 10
28.385105
 20
13.071882
  0
VERTEX
  8
LAYER_1
 62
7
 10
28.252544
 20
13.076365
  0
VERTEX
  8
LAYER_1
 62
7
 10
28.120033
 20
13.078188
 42
0.022746
  0
VERTEX
  8
LAYER_1
 62
7
 10
27.348533
 20
13.042714
  0
VERTEX
  8
LAYER_1
 62
7
 10
27.350504
 20
13.269388
 42
0.032921
  0
VERTEX
  8
LAYER_1
 62
7
 10
27.339862
 20
13.495471
 42
0.113676
  0
VERTEX
  8
LAYER_1
 62
7
 10
27.262508
 20
13.640915
 42
0.014804
  0
VERTEX
  8
LAYER_1
 62
7
 10
27.149877
 20
13.763498
 42
-0.131567
  0
VERTEX
  8
LAYER_1
 62
7
 10
27.162458
 20
13.821169
 42
-0.058540
  0
VERTEX
  8
LAYER_1
 62
7
 10
27.197111
 20
13.871892
  0
VERTEX
  8
LAYER_1
 62
7
 10
27.238563
 20
13.920842
 42
0.067989
  0
VERTEX
  8
LAYER_1
 62
7
 10
27.271541
 20
13.973191
 42
0.079912
  0
VERTEX
  8
LAYER_1
 62
7
 10
27.324432
 20
14.102504
 42
0.048861
  0
VERTEX
  8
LAYER_1
 62
7
 10
27.342095
 20
14.240069
 42
0.009406
  0
VERTEX
  8
LAYER_1
 62
7
 10
27.340368
 20
14.451275
  0
VERTEX
  8
LAYER_1
 62
7
 10
27.340913
 20
14.520546
 42
0.007333
  0
VERTEX
  8
LAYER_1
 62
7
 10
27.914709
 20
14.492955
 42
0.042952
  0
VERTEX
  8
LAYER_1
 62
7
 10
28.487126
 20
14.522911
  0
SEQEND
  0
POLYLINE
  8
LAYER_1
 62
7
 70
1
 66
1
  0
VERTEX
  8
LAYER_1
 62
7
 10
18.910386
 20
14.533422
 42
-0.021616
  0
VERTEX
  8
LAYER_1
 62
7
 10
19.102900
 20
14.546692
 42
-0.050390
  0
VERTEX
  8
LAYER_1
 62
7
 10
19.294822
 20
14.532370
 42
-0.065993
  0
VERTEX
  8
LAYER_1
 62
7
 10
19.500080
 20
14.398225
 42
0.008042
  0
VERTEX
  8
LAYER_1
 62
7
 10
19.689769
 20
14.240430
  0
VERTEX
  8
LAYER_1
 62
7
 10
19.861392
 20
14.389915
 42
-0.046675
  0
VERTEX
  8
LAYER_1
 62
7
 10
20.044249
 20
14.524225
 42
-0.090384
  0
VERTEX
  8
LAYER_1
 62
7
 10
20.190252
 20
14.547217
  0
VERTEX
  8
LAYER_1
 62
7
 10
20.339605
 20
14.545772
 42
0.040128
  0
VERTEX
  8
LAYER_1
 62
7
 10
20.373975
 20
14.544183
  0
VERTEX
  8
LAYER_1
 62
7
 10
20.410193
 20
14.543900
 42
-0.084534
  0
VERTEX
  8
LAYER_1
 62
7
 10
20.443700
 20
14.536866
 42
-0.150900
  0
VERTEX
  8
LAYER_1
 62
7
 10
20.469940
 20
14.515027
 42
-0.021702
  0
VERTEX
  8
LAYER_1
 62
7
 10
20.478612
 20
14.342452
 42
-0.097817
  0
VERTEX
  8
LAYER_1
 62
7
 10
20.447079
 20
14.174212
 42
-0.028128
  0
VERTEX
  8
LAYER_1
 62
7
 10
20.283996
 20
13.967804
  0
VERTEX
  8
LAYER_1
 62
7
 10
20.106526
 20
13.773221
  0
VERTEX
  8
LAYER_1
 62
7
 10
20.189041
 20
13.693256
  0
VERTEX
  8
LAYER_1
 62
7
 10
20.273157
 20
13.614769
 42
-0.030967
  0
VERTEX
  8
LAYER_1
 62
7
 10
20.432890
 20
13.449223
 42
-0.038591
  0
VERTEX
  8
LAYER_1
 62
7
 10
20.461203
 20
13.409380
 42
-0.113159
  0
VERTEX
  8
LAYER_1
 62
7
 10
20.476510
 20
13.363033
 42
-0.062146
  0
VERTEX
  8
LAYER_1
 62
7
 10
20.458379
 20
13.017488
  0
VERTEX
  8
LAYER_1
 62
7
 10
20.368629
 20
13.017607
  0
VERTEX
  8
LAYER_1
 62
7
 10
20.278806
 20
13.015681
 42
-0.029532
  0
VERTEX
  8
LAYER_1
 62
7
 10
20.099431
 20
13.020378
 42
-0.084388
  0
VERTEX
  8
LAYER_1
 62
7
 10
19.884582
 20
13.169074
 42
0.012039
  0
VERTEX
  8
LAYER_1
 62
7
 10
19.691609
 20
13.348318
 42
-0.015632
  0
VERTEX
  8
LAYER_1
 62
7
 10
19.482869
 20
13.174921
 42
-0.047232
  0
VERTEX
  8
LAYER_1
 62
7
 10
19.254618
 20
13.029312
 42
-0.061577
  0
VERTEX
  8
LAYER_1
 62
7
 10
19.086444
 20
13.016404
 42
0.021909
  0
VERTEX
  8
LAYER_1
 62
7
 10
18.916693
 20
13.016699
 42
0.011483
  0
VERTEX
  8
LAYER_1
 62
7
 10
18.900868
 20
13.165192
  0
VERTEX
  8
LAYER_1
 62
7
 10
18.896197
 20
13.215158
 42
-0.133822
  0
VERTEX
  8
LAYER_1
 62
7
 10
18.925364
 20
13.408493
 42
-0.044525
  0
VERTEX
  8
LAYER_1
 62
7
 10
19.092093
 20
13.601499
  0
VERTEX
  8
LAYER_1
 62
7
 10
19.184696
 20
13.689774
  0
VERTEX
  8
LAYER_1
 62
7
 10
19.278530
 20
13.776374
  0
VERTEX
  8
LAYER_1
 62
7
 10
19.184224
 20
13.871773
  0
VERTEX
  8
LAYER_1
 62
7
 10
19.091469
 20
13.969019
 42
-0.037650
  0
VERTEX
  8
LAYER_1
 62
7
 10
18.923525
 20
14.177628
 42
-0.077173
  0
VERTEX
  8
LAYER_1
 62
7
 10
18.901091
 20
14.354539
 42
-0.012395
  0
VERTEX
  8
LAYER_1
 62
7
 10
18.910386
 20
14.533422
  0
SEQEND
  0
POLYLINE
  8
LAYER_1
 62
7
 70
1
 66
1
  0
VERTEX
  8
LAYER_1
 62
7
 10
32.060305
 20
14.523173
 42
-0.101037
  0
VERTEX
  8
LAYER_1
 62
7
 10
32.452361
 20
14.533159
 42
-0.071729
  0
VERTEX
  8
LAYER_1
 62
7
 10
32.644809
 20
14.410641
 42
0.015399
  0
VERTEX
  8
LAYER_1
 62
7
 10
32.823659
 20
14.266445
  0
VERTEX
  8
LAYER_1
 62
7
 10
32.823659
 20
13.321778
 42
-0.031987
  0
VERTEX
  8
LAYER_1
 62
7
 10
32.486522
 20
13.066889
 42
-0.099901
  0
VERTEX
  8
LAYER_1
 62
7
 10
32.390109
 20
13.024952
 42
-0.055269
  0
VERTEX
  8
LAYER_1
 62
7
 10
32.285567
 20
13.014991
  0
VERTEX
  8
LAYER_1
 62
7
 10
32.177969
 20
13.018629
 42
0.033192
  0
VERTEX
  8
LAYER_1
 62
7
 10
32.072392
 20
13.017488
 42
-0.016497
  0
VERTEX
  8
LAYER_1
 62
7
 10
32.060174
 20
13.197881
 42
-0.042935
  0
VERTEX
  8
LAYER_1
 62
7
 10
32.069239
 20
13.377486
 42
-0.080585
  0
VERTEX
  8
LAYER_1
 62
7
 10
32.240074
 20
13.586521
  0
VERTEX
  8
LAYER_1
 62
7
 10
32.339176
 20
13.680126
 42
0.029588
  0
VERTEX
  8
LAYER_1
 62
7
 10
32.431602
 20
13.779002
  0
VERTEX
  8
LAYER_1
 62
7
 10
32.252983
 20
13.968658
 42
-0.039226
  0
VERTEX
  8
LAYER_1
 62
7
 10
32.087370
 20
14.168956
 42
-0.111315
  0
VERTEX
  8
LAYER_1
 62
7
 10
32.059746
 20
14.343601
 42
0.029200
  0
VERTEX
  8
LAYER_1
 62
7
 10
32.060305
 20
14.523173
  0
SEQEND
  0
POLYLINE
  8
LAYER_1
 62
7
 70
1
 66
1
  0
VERTEX
  8
LAYER_1
 62
7
 10
23.026190
 20
13.831294
 42
0.064549
  0
VERTEX
  8
LAYER_1
 62
7
 10
23.829748
 20
14.548137
 42
0.065273
  0
VERTEX
  8
LAYER_1
 62
7
 10
24.027649
 20
14.501363
 42
0.013707
  0
VERTEX
  8
LAYER_1
 62
7
 10
24.231264
 20
14.486123
 42
0.019554
  0
VERTEX
  8
LAYER_1
 62
7
 10
24.717558
 20
14.489407
 42
0.007204
  0
VERTEX
  8
LAYER_1
 62
7
 10
25.203259
 20
14.518706
  0
VERTEX
  8
LAYER_1
 62
7
 10
25.202734
 20
14.332007
 42
0.021111
  0
VERTEX
  8
LAYER_1
 62
7
 10
25.207727
 20
14.145307
 42
0.117563
  0
VERTEX
  8
LAYER_1
 62
7
 10
25.284817
 20
13.946684
 42
0.027327
  0
VERTEX
  8
LAYER_1
 62
7
 10
25.349217
 20
13.859850
  0
VERTEX
  8
LAYER_1
 62
7
 10
25.419258
 20
13.778214
 42
0.008464
  0
VERTEX
  8
LAYER_1
 62
7
 10
25.298383
 20
13.646269
 42
0.107031
  0
VERTEX
  8
LAYER_1
 62
7
 10
25.211405
 20
13.492055
 42
0.048148
  0
VERTEX
  8
LAYER_1
 62
7
 10
25.192124
 20
13.269519
  0
VERTEX
  8
LAYER_1
 62
7
 10
25.197478
 20
13.045604
 42
0.009809
  0
VERTEX
  8
LAYER_1
 62
7
 10
24.543339
 20
13.081703
 42
0.045975
  0
VERTEX
  8
LAYER_1
 62
7
 10
23.890974
 20
13.045079
 42
0.047662
  0
VERTEX
  8
LAYER_1
 62
7
 10
23.373313
 20
13.577718
 42
0.017299
  0
VERTEX
  8
LAYER_1
 62
7
 10
23.200047
 20
13.705097
  0
VERTEX
  8
LAYER_1
 62
7
 10
23.112170
 20
13.766988
  0
VERTEX
  8
LAYER_1
 62
7
 10
23.026190
 20
13.831294
  0
SEQEND
  0
POLYLINE
  8
LAYER_1
 62
7
 70
1
 66
1
  0
VERTEX
  8
LAYER_1
 62
7
 10
29.598916
 20
13.833133
 42
0.036670
  0
VERTEX
  8
LAYER_1
 62
7
 10
30.022078
 20
14.163898
 42
0.025652
  0
VERTEX
  8
LAYER_1
 62
7
 10
30.400897
 20
14.544721
 42
0.062100
  0
VERTEX
  8
LAYER_1
 62
7
 10
30.857431
 20
14.483298
 42
0.014195
  0
VERTEX
  8
LAYER_1
 62
7
 10
31.320075
 20
14.491641
 42
0.011540
  0
VERTEX
  8
LAYER_1
 62
7
 10
31.779401
 20
14.520283
  0
VERTEX
  8
LAYER_1
 62
7
 10
31.776708
 20
14.321627
 42
0.048713
  0
VERTEX
  8
LAYER_1
 62
7
 10
31.791752
 20
14.123759
 42
0.107848
  0
VERTEX
  8
LAYER_1
 62
7
 10
31.845259
 20
13.974143
 42
0.037006
  0
VERTEX
  8
LAYER_1
 62
7
 10
31.939955
 20
13.844432
 42
0.057285
  0
VERTEX
  8
LAYER_1
 62
7
 10
31.953960
 20
13.826457
  0
VERTEX
  8
LAYER_1
 62
7
 10
31.970404
 20
13.808235
 42
-0.098358
  0
VERTEX
  8
LAYER_1
 62
7
 10
31.981674
 20
13.788339
 42
-0.177322
  0
VERTEX
  8
LAYER_1
 62
7
 10
31.980159
 20
13.765338
  0
VERTEX
  8
LAYER_1
 62
7
 10
31.877021
 20
13.648306
 42
0.075478
  0
VERTEX
  8
LAYER_1
 62
7
 10
31.795168
 20
13.516492
 42
0.048454
  0
VERTEX
  8
LAYER_1
 62
7
 10
31.766952
 20
13.281738
 42
0.015493
  0
VERTEX
  8
LAYER_1
 62
7
 10
31.768890
 20
13.044816
 42
0.011426
  0
VERTEX
  8
LAYER_1
 62
7
 10
31.116525
 20
13.081768
 42
0.044783
  0
VERTEX
  8
LAYER_1
 62
7
 10
30.465539
 20
13.045604
 42
0.059976
  0
VERTEX
  8
LAYER_1
 62
7
 10
29.853017
 20
13.648930
  0
VERTEX
  8
LAYER_1
 62
7
 10
29.789405
 20
13.694857
  0
VERTEX
  8
LAYER_1
 62
7
 10
29.724291
 20
13.738864
 42
-0.033012
  0
VERTEX
  8
LAYER_1
 62
7
 10
29.598916
 20
13.833133
  0
SEQEND
  0
POLYLINE
  8
LAYER_1
 62
7
 70
1
 66
1
  0
VERTEX
  8
LAYER_1
 62
7
 10
9.820470
 20
13.465094
  0
VERTEX
  8
LAYER_1
 62
7
 10
9.827244
 20
13.470499
 42
-0.066559
  0
VERTEX
  8
LAYER_1
 62
7
 10
10.425678
 20
12.903656
 42
0.052680
  0
VERTEX
  8
LAYER_1
 62
7
 10
9.825557
 20
12.446746
  0
VERTEX
  8
LAYER_1
 62
7
 10
9.825557
 20
12.446746
  0
VERTEX
  8
LAYER_1
 62
7
 10
9.825557
 20
12.446746
 42
0.019658
  0
VERTEX
  8
LAYER_1
 62
7
 10
9.217868
 20
12.898812
 42
-0.064195
  0
VERTEX
  8
LAYER_1
 62
7
 10
9.820470
 20
13.465094
  0
SEQEND
  0
POLYLINE
  8
LAYER_1
 62
7
 70
1
 66
1
  0
VERTEX
  8
LAYER_1
 62
7
 10
28.951970
 20
12.890306
 42
-0.050812
  0
VERTEX
  8
LAYER_1
 62
7
 10
29.236717
 20
13.201625
 42
-0.023256
  0
VERTEX
  8
LAYER_1
 62
7
 10
29.565018
 20
13.468405
 42
-0.013407
  0
VERTEX
  8
LAYER_1
 62
7
 10
29.877947
 20
13.207768
 42
-0.047057
  0
VERTEX
  8
LAYER_1
 62
7
 10
30.156782
 20
12.911853
  0
VERTEX
  8
LAYER_1
 62
7
 10
30.003273
 20
12.801710
  0
VERTEX
  8
LAYER_1
 62
7
 10
29.851046
 20
12.689154
 42
0.025597
  0
VERTEX
  8
LAYER_1
 62
7
 10
29.560288
 20
12.446746
 42
0.028696
  0
VERTEX
  8
LAYER_1
 62
7
 10
28.951970
 20
12.890306
  0
SEQEND
  0
POLYLINE
  8
LAYER_1
 62
7
 70
1
 66
1
  0
VERTEX
  8
LAYER_1
 62
7
 10
32.518843
 20
12.716350
 42
0.051138
  0
VERTEX
  8
LAYER_1
 62
7
 10
32.677065
 20
12.802113
  0
VERTEX
  8
LAYER_1
 62
7
 10
32.751088
 20
12.853924
  0
VERTEX
  8
LAYER_1
 62
7
 10
32.823659
 20
12.907386
  0
VERTEX
  8
LAYER_1
 62
7
 10
32.823659
 20
10.610493
 42
0.075852
  0
VERTEX
  8
LAYER_1
 62
7
 10
32.093151
 20
11.412737
 42
0.045937
  0
VERTEX
  8
LAYER_1
 62
7
 10
32.136082
 20
12.047890
 42
0.019988
  0
VERTEX
  8
LAYER_1
 62
7
 10
32.095254
 20
12.684029
 42
0.005443
  0
VERTEX
  8
LAYER_1
 62
7
 10
32.308920
 20
12.682354
 42
0.079325
  0
VERTEX
  8
LAYER_1
 62
7
 10
32.518843
 20
12.716350
  0
SEQEND
  0
POLYLINE
  8
LAYER_1
 62
7
 70
1
 66
1
  0
VERTEX
  8
LAYER_1
 62
7
 10
24.090418
 20
12.732380
 42
-0.046978
  0
VERTEX
  8
LAYER_1
 62
7
 10
24.475084
 20
12.753073
 42
-0.007845
  0
VERTEX
  8
LAYER_1
 62
7
 10
24.860342
 20
12.731591
 42
-0.037425
  0
VERTEX
  8
LAYER_1
 62
7
 10
25.046713
 20
12.724858
  0
VERTEX
  8
LAYER_1
 62
7
 10
25.232690
 20
12.706102
 42
-0.015383
  0
VERTEX
  8
LAYER_1
 62
7
 10
25.271285
 20
12.158780
 42
-0.035920
  0
VERTEX
  8
LAYER_1
 62
7
 10
25.253712
 20
11.610867
 42
0.060538
  0
VERTEX
  8
LAYER_1
 62
7
 10
24.804010
 20
11.814483
 42
0.093437
  0
VERTEX
  8
LAYER_1
 62
7
 10
24.315877
 20
11.872851
 42
0.080866
  0
VERTEX
  8
LAYER_1
 62
7
 10
24.263158
 20
12.317692
 42
0.057990
  0
VERTEX
  8
LAYER_1
 62
7
 10
24.090418
 20
12.732380
  0
SEQEND
  0
POLYLINE
  8
LAYER_1
 62
7
 70
1
 66
1
  0
VERTEX
  8
LAYER_1
 62
7
 10
27.305964
 20
12.701372
 42
-0.031188
  0
VERTEX
  8
LAYER_1
 62
7
 10
27.647667
 20
12.731033
 42
0.008975
  0
VERTEX
  8
LAYER_1
 62
7
 10
27.990749
 20
12.745518
 42
-0.028376
  0
VERTEX
  8
LAYER_1
 62
7
 10
28.224288
 20
12.745288
  0
VERTEX
  8
LAYER_1
 62
7
 10
28.457433
 20
12.730277
 42
0.057667
  0
VERTEX
  8
LAYER_1
 62
7
 10
28.282788
 20
12.316739
 42
0.092837
  0
VERTEX
  8
LAYER_1
 62
7
 10
28.238018
 20
11.872063
 42
0.090238
  0
VERTEX
  8
LAYER_1
 62
7
 10
27.746141
 20
11.815764
 42
0.071966
  0
VERTEX
  8
LAYER_1
 62
7
 10
27.296242
 20
11.606137
 42
-0.050618
  0
VERTEX
  8
LAYER_1
 62
7
 10
27.272822
 20
12.153361
 42
-0.003884
  0
VERTEX
  8
LAYER_1
 62
7
 10
27.298314
 20
12.564576
  0
VERTEX
  8
LAYER_1
 62
7
 10
27.305964
 20
12.701372
  0
SEQEND
  0
POLYLINE
  8
LAYER_1
 62
7
 70
1
 66
1
  0
VERTEX
  8
LAYER_1
 62
7
 10
22.990716
 20
12.016850
 42
-0.013816
  0
VERTEX
  8
LAYER_1
 62
7
 10
23.370521
 20
12.352444
 42
-0.030801
  0
VERTEX
  8
LAYER_1
 62
7
 10
23.778508
 20
12.652760
 42
-0.068506
  0
VERTEX
  8
LAYER_1
 62
7
 10
23.969707
 20
12.266780
 42
-0.115944
  0
VERTEX
  8
LAYER_1
 62
7
 10
24.011324
 20
11.843158
 42
0.062235
  0
VERTEX
  8
LAYER_1
 62
7
 10
23.472509
 20
11.695808
 42
0.074111
  0
VERTEX
  8
LAYER_1
 62
7
 10
22.993606
 20
11.410109
 42
0.060707
  0
VERTEX
  8
LAYER_1
 62
7
 10
22.506821
 20
11.695414
 42
0.077532
  0
VERTEX
  8
LAYER_1
 62
7
 10
21.962488
 20
11.837640
 42
-0.098955
  0
VERTEX
  8
LAYER_1
 62
7
 10
22.005615
 20
12.252886
 42
-0.070336
  0
VERTEX
  8
LAYER_1
 62
7
 10
22.183742
 20
12.632263
 42
-0.035729
  0
VERTEX
  8
LAYER_1
 62
7
 10
22.600630
 20
12.342688
 42
-0.008751
  0
VERTEX
  8
LAYER_1
 62
7
 10
22.990716
 20
12.016850
  0
SEQEND
  0
POLYLINE
  8
LAYER_1
 62
7
 70
1
 66
1
  0
VERTEX
  8
LAYER_1
 62
7
 10
30.151526
 20
12.514804
  0
VERTEX
  8
LAYER_1
 62
7
 10
30.252759
 20
12.590253
 42
-0.086614
  0
VERTEX
  8
LAYER_1
 62
7
 10
30.364635
 20
12.646979
 42
-0.049575
  0
VERTEX
  8
LAYER_1
 62
7
 10
30.543944
 20
12.262050
 42
-0.051110
  0
VERTEX
  8
LAYER_1
 62
7
 10
30.589933
 20
12.056221
 42
-0.069644
  0
VERTEX
  8
LAYER_1
 62
7
 10
30.585101
 20
11.844997
 42
0.061810
  0
VERTEX
  8
LAYER_1
 62
7
 10
30.045301
 20
11.695053
 42
0.071426
  0
VERTEX
  8
LAYER_1
 62
7
 10
29.564230
 20
11.409321
 42
0.137702
  0
VERTEX
  8
LAYER_1
 62
7
 10
28.533374
 20
11.839742
 42
-0.095707
  0
VERTEX
  8
LAYER_1
 62
7
 10
28.572231
 20
12.240700
 42
-0.071628
  0
VERTEX
  8
LAYER_1
 62
7
 10
28.740176
 20
12.608351
 42
-0.102702
  0
VERTEX
  8
LAYER_1
 62
7
 10
28.748591
 20
12.620110
 42
-0.133285
  0
VERTEX
  8
LAYER_1
 62
7
 10
28.758718
 20
12.625168
 42
-0.157728
  0
VERTEX
  8
LAYER_1
 62
7
 10
28.782088
 20
12.620701
 42
-0.041370
  0
VERTEX
  8
LAYER_1
 62
7
 10
28.806247
 20
12.605986
  0
VERTEX
  8
LAYER_1
 62
7
 10
28.827153
 20
12.592059
 42
-0.022582
  0
VERTEX
  8
LAYER_1
 62
7
 10
29.205414
 20
12.315393
 42
-0.007870
  0
VERTEX
  8
LAYER_1
 62
7
 10
29.566332
 20
12.016062
 42
-0.034529
  0
VERTEX
  8
LAYER_1
 62
7
 10
30.151526
 20
12.514804
  0
SEQEND
  0
POLYLINE
  8
LAYER_1
 62
7
 70
1
 66
1
  0
VERTEX
  8
LAYER_1
 62
7
 10
30.852866
 20
11.544648
 42
-0.092947
  0
VERTEX
  8
LAYER_1
 62
7
 10
31.302108
 20
11.491864
 42
-0.071218
  0
VERTEX
  8
LAYER_1
 62
7
 10
31.712131
 20
11.297380
 42
-0.027841
  0
VERTEX
  8
LAYER_1
 62
7
 10
31.377655
 20
10.872411
  0
VERTEX
  8
LAYER_1
 62
7
 10
31.018938
 20
10.466756
 42
-0.031876
  0
VERTEX
  8
LAYER_1
 62
7
 10
31.712920
 20
9.769621
 42
-0.071450
  0
VERTEX
  8
LAYER_1
 62
7
 10
31.583701
 20
9.681789
  0
VERTEX
  8
LAYER_1
 62
7
 10
31.512564
 20
9.648343
  0
VERTEX
  8
LAYER_1
 62
7
 10
31.440688
 20
9.617213
 42
-0.058006
  0
VERTEX
  8
LAYER_1
 62
7
 10
31.155317
 20
9.531910
 42
-0.072719
  0
VERTEX
  8
LAYER_1
 62
7
 10
30.858121
 20
9.522878
 42
0.051473
  0
VERTEX
  8
LAYER_1
 62
7
 10
30.709326
 20
10.055944
 42
0.084659
  0
VERTEX
  8
LAYER_1
 62
7
 10
30.424547
 20
10.527719
 42
0.075585
  0
VERTEX
  8
LAYER_1
 62
7
 10
30.702067
 20
11.008691
 42
0.049530
  0
VERTEX
  8
LAYER_1
 62
7
 10
30.852866
 20
11.544648
  0
SEQEND
  0
POLYLINE
  8
LAYER_1
 62
7
 70
1
 66
1
  0
VERTEX
  8
LAYER_1
 62
7
 10
28.576994
 20
11.498400
 42
-0.077212
  0
VERTEX
  8
LAYER_1
 62
7
 10
29.100667
 20
11.325398
 42
-0.096347
  0
VERTEX
  8
LAYER_1
 62
7
 10
29.534274
 20
10.987045
 42
0.088983
  0
VERTEX
  8
LAYER_1
 62
7
 10
29.545491
 20
10.973376
 42
0.141072
  0
VERTEX
  8
LAYER_1
 62
7
 10
29.556950
 20
10.968249
 42
0.125652
  0
VERTEX
  8
LAYER_1
 62
7
 10
29.568478
 20
10.969909
 42
0.069656
  0
VERTEX
  8
LAYER_1
 62
7
 10
29.579898
 20
10.976600
 42
0.045985
  0
VERTEX
  8
LAYER_1
 62
7
 10
29.601712
 20
10.998057
  0
VERTEX
  8
LAYER_1
 62
7
 10
29.620989
 20
11.018578
 42
-0.097335
  0
VERTEX
  8
LAYER_1
 62
7
 10
30.042082
 20
11.335843
 42
-0.068770
  0
VERTEX
  8
LAYER_1
 62
7
 10
30.545159
 20
11.500765
 42
-0.107299
  0
VERTEX
  8
LAYER_1
 62
7
 10
30.256635
 20
10.826491
 42
-0.043119
  0
VERTEX
  8
LAYER_1
 62
7
 10
30.124986
 20
10.671160
 42
0.014648
  0
VERTEX
  8
LAYER_1
 62
7
 10
29.984666
 20
10.523515
 42
-0.088539
  0
VERTEX
  8
LAYER_1
 62
7
 10
30.318912
 20
10.145615
 42
-0.072388
  0
VERTEX
  8
LAYER_1
 62
7
 10
30.518357
 20
9.680804
  0
VERTEX
  8
LAYER_1
 62
7
 10
30.535634
 20
9.617049
 42
-0.109162
  0
VERTEX
  8
LAYER_1
 62
7
 10
30.537539
 20
9.551520
 42
-0.060545
  0
VERTEX
  8
LAYER_1
 62
7
 10
30.039060
 20
9.728858
 42
-0.095326
  0
VERTEX
  8
LAYER_1
 62
7
 10
29.620201
 20
10.047897
 42
0.031582
  0
VERTEX
  8
LAYER_1
 62
7
 10
29.580883
 20
10.086196
 42
0.172730
  0
VERTEX
  8
LAYER_1
 62
7
 10
29.558601
 20
10.094161
 42
0.130943
  0
VERTEX
  8
LAYER_1
 62
7
 10
29.547483
 20
10.090261
 42
0.094201
  0
VERTEX
  8
LAYER_1
 62
7
 10
29.536639
 20
10.079167
 42
-0.125133
  0
VERTEX
  8
LAYER_1
 62
7
 10
28.907825
 20
9.651373
  0
VERTEX
  8
LAYER_1
 62
7
 10
28.830594
 20
9.624000
  0
VERTEX
  8
LAYER_1
 62
7
 10
28.752526
 20
9.599115
 42
0.020825
  0
VERTEX
  8
LAYER_1
 62
7
 10
28.598016
 20
9.545476
 42
-0.205581
  0
VERTEX
  8
LAYER_1
 62
7
 10
28.588031
 20
9.626344
  0
VERTEX
  8
LAYER_1
 62
7
 10
28.611155
 20
9.707607
 42
-0.070506
  0
VERTEX
  8
LAYER_1
 62
7
 10
28.809548
 20
10.158294
 42
-0.089776
  0
VERTEX
  8
LAYER_1
 62
7
 10
29.138013
 20
10.523252
 42
0.030396
  0
VERTEX
  8
LAYER_1
 62
7
 10
29.031360
 20
10.634602
 42
-0.037301
  0
VERTEX
  8
LAYER_1
 62
7
 10
28.926481
 20
10.747134
 42
-0.119078
  0
VERTEX
  8
LAYER_1
 62
7
 10
28.576994
 20
11.498400
  0
SEQEND
  0
POLYLINE
  8
LAYER_1
 62
7
 70
1
 66
1
  0
VERTEX
  8
LAYER_1
 62
7
 10
31.464074
 20
10.488829
 42
0.034270
  0
VERTEX
  8
LAYER_1
 62
7
 10
31.954933
 20
11.109497
 42
-0.054359
  0
VERTEX
  8
LAYER_1
 62
7
 10
32.498346
 20
10.529033
 42
-0.040612
  0
VERTEX
  8
LAYER_1
 62
7
 10
31.995137
 20
9.983780
 42
-0.087817
  0
VERTEX
  8
LAYER_1
 62
7
 10
31.982129
 20
9.972937
 42
-0.119496
  0
VERTEX
  8
LAYER_1
 62
7
 10
31.969558
 20
9.969410
 42
-0.172847
  0
VERTEX
  8
LAYER_1
 62
7
 10
31.945999
 20
9.978591
 42
-0.054472
  0
VERTEX
  8
LAYER_1
 62
7
 10
31.925002
 20
9.999892
  0
VERTEX
  8
LAYER_1
 62
7
 10
31.907109
 20
10.021882
 42
0.041543
  0
VERTEX
  8
LAYER_1
 62
7
 10
31.693573
 20
10.262648
 42
-0.007945
  0
VERTEX
  8
LAYER_1
 62
7
 10
31.464074
 20
10.488829
  0
SEQEND
  0
POLYLINE
  8
LAYER_1
 62
7
 70
1
 66
1
  0
VERTEX
  8
LAYER_1
 62
7
 10
32.067663
 20
7.938097
  0
VERTEX
  8
LAYER_1
 62
7
 10
32.260143
 20
7.947229
 42
-0.051982
  0
VERTEX
  8
LAYER_1
 62
7
 10
32.451836
 20
7.934681
 42
-0.057636
  0
VERTEX
  8
LAYER_1
 62
7
 10
32.647108
 20
7.808156
 42
-0.012926
  0
VERTEX
  8
LAYER_1
 62
7
 10
32.823659
 20
7.654829
  0
VERTEX
  8
LAYER_1
 62
7
 10
32.823659
 20
6.721461
  0
VERTEX
  8
LAYER_1
 62
7
 10
32.629273
 20
6.564159
 42
-0.054313
  0
VERTEX
  8
LAYER_1
 62
7
 10
32.419515
 20
6.429521
 42
-0.070041
  0
VERTEX
  8
LAYER_1
 62
7
 10
32.244377
 20
6.414379
  0
VERTEX
  8
LAYER_1
 62
7
 10
32.067663
 20
6.423477
  0
VERTEX
  8
LAYER_1
 62
7
 10
32.059976
 20
6.602787
 42
-0.054657
  0
VERTEX
  8
LAYER_1
 62
7
 10
32.070816
 20
6.780322
 42
-0.055070
  0
VERTEX
  8
LAYER_1
 62
7
 10
32.239187
 20
6.987157
 42
-0.017741
  0
VERTEX
  8
LAYER_1
 62
7
 10
32.436332
 20
7.168174
 42
0.021069
  0
VERTEX
  8
LAYER_1
 62
7
 10
32.247990
 20
7.371297
 42
-0.060297
  0
VERTEX
  8
LAYER_1
 62
7
 10
32.076597
 20
7.587822
 42
-0.065964
  0
VERTEX
  8
LAYER_1
 62
7
 10
32.059714
 20
7.762171
  0
VERTEX
  8
LAYER_1
 62
7
 10
32.067663
 20
7.938097
  0
SEQEND
  0
POLYLINE
  8
LAYER_1
 62
7
 70
1
 66
1
  0
VERTEX
  8
LAYER_1
 62
7
 10
20.029622
 20
10.500132
  0
VERTEX
  8
LAYER_1
 62
7
 10
20.024217
 20
10.506906
 42
-0.066559
  0
VERTEX
  8
LAYER_1
 62
7
 10
20.591061
 20
11.105340
 42
0.052680
  0
VERTEX
  8
LAYER_1
 62
7
 10
21.047970
 20
10.505219
  0
VERTEX
  8
LAYER_1
 62
7
 10
21.047970
 20
10.505219
  0
VERTEX
  8
LAYER_1
 62
7
 10
21.047970
 20
10.505219
 42
0.019658
  0
VERTEX
  8
LAYER_1
 62
7
 10
20.595904
 20
9.897530
 42
-0.064195
  0
VERTEX
  8
LAYER_1
 62
7
 10
20.029622
 20
10.500132
  0
SEQEND
  0
POLYLINE
  8
LAYER_1
 62
7
 70
1
 66
1
  0
VERTEX
  8
LAYER_1
 62
7
 10
32.477462
 20
3.934321
  0
VERTEX
  8
LAYER_1
 62
7
 10
32.482866
 20
3.927546
 42
-0.066559
  0
VERTEX
  8
LAYER_1
 62
7
 10
31.916023
 20
3.329113
 42
0.052680
  0
VERTEX
  8
LAYER_1
 62
7
 10
31.459114
 20
3.929234
  0
VERTEX
  8
LAYER_1
 62
7
 10
31.459114
 20
3.929234
  0
VERTEX
  8
LAYER_1
 62
7
 10
31.459114
 20
3.929234
 42
0.019658
  0
VERTEX
  8
LAYER_1
 62
7
 10
31.911180
 20
4.536923
 42
-0.064195
  0
VERTEX
  8
LAYER_1
 62
7
 10
32.477462
 20
3.934321
  0
SEQEND
  0
POLYLINE
  8
LAYER_1
 62
7
 70
1
 66
1
  0
VERTEX
  8
LAYER_1
 62
7
 10
25.907645
 20
10.525041
  0
VERTEX
  8
LAYER_1
 62
7
 10
25.913049
 20
10.518266
 42
-0.066559
  0
VERTEX
  8
LAYER_1
 62
7
 10
25.346206
 20
9.919833
 42
0.052680
  0
VERTEX
  8
LAYER_1
 62
7
 10
24.889296
 20
10.519954
  0
VERTEX
  8
LAYER_1
 62
7
 10
24.889296
 20
10.519954
  0
VERTEX
  8
LAYER_1
 62
7
 10
24.889296
 20
10.519954
 42
0.019658
  0
VERTEX
  8
LAYER_1
 62
7
 10
25.341363
 20
11.127643
 42
-0.064195
  0
VERTEX
  8
LAYER_1
 62
7
 10
25.907645
 20
10.525041
  0
SEQEND
  0
POLYLINE
  8
LAYER_1
 62
7
 70
1
 66
1
  0
VERTEX
  8
LAYER_1
 62
7
 10
26.627115
 20
10.525041
  0
VERTEX
  8
LAYER_1
 62
7
 10
26.621710
 20
10.518266
 42
0.066559
  0
VERTEX
  8
LAYER_1
 62
7
 10
27.188554
 20
9.919833
 42
-0.052680
  0
VERTEX
  8
LAYER_1
 62
7
 10
27.645463
 20
10.519954
  0
VERTEX
  8
LAYER_1
 62
7
 10
27.645463
 20
10.519954
  0
VERTEX
  8
LAYER_1
 62
7
 10
27.645463
 20
10.519954
 42
-0.019658
  0
VERTEX
  8
LAYER_1
 62
7
 10
27.193397
 20
11.127643
 42
0.064195
  0
VERTEX
  8
LAYER_1
 62
7
 10
26.627115
 20
10.525041
  0
SEQEND
  0
POLYLINE
  8
LAYER_1
 62
7
 70
1
 66
1
  0
VERTEX
  8
LAYER_1
 62
7
 10
29.561909
 20
26.682051
  0
VERTEX
  8
LAYER_1
 62
7
 10
29.568683
 20
26.687455
 42
-0.066559
  0
VERTEX
  8
LAYER_1
 62
7
 10
30.167117
 20
26.120612
 42
0.052680
  0
VERTEX
  8
LAYER_1
 62
7
 10
29.566996
 20
25.663703
  0
VERTEX
  8
LAYER_1
 62
7
 10
29.566996
 20
25.663703
  0
VERTEX
  8
LAYER_1
 62
7
 10
29.566996
 20
25.663703
 42
0.019658
  0
VERTEX
  8
LAYER_1
 62
7
 10
28.959307
 20
26.115769
 42
-0.064195
  0
VERTEX
  8
LAYER_1
 62
7
 10
29.561909
 20
26.682051
  0
SEQEND
  0
ENDSEC
  0
EOF
