999
DXF data, created by "POTRACE" "VERSION", written by Peter Selinger 2001-2013
  0
SECTION
  2
HEADER
  9
$ACADVER
  1
AC1006
  9
$EXTMIN
 10
0.000000
 20
0.000000
 30
0.000000
  9
$EXTMAX
 10
640.000000
 20
480.000000
 30
0.000000
  0
ENDSEC
  0
SECTION
  2
ENTITIES
  0
POLYLINE
  8
0
 66
1
 70
1
  0
VERTEX
  8
0
 10
0.000000
 20
240.000000
 42
0.000000
  0
VERTEX
  8
0
 10
0.000000
 20
0.000000
 42
0.000000
  0
VERTEX
  8
0
 10
320.000000
 20
0.000000
 42
0.000000
  0
VERTEX
  8
0
 10
640.000000
 20
0.000000
 42
0.000000
  0
VERTEX
  8
0
 10
640.000000
 20
240.000000
 42
0.000000
  0
VERTEX
  8
0
 10
640.000000
 20
480.000000
 42
0.000000
  0
VERTEX
  8
0
 10
320.000000
 20
480.000000
 42
0.000000
  0
VERTEX
  8
0
 10
0.000000
 20
480.000000
 42
0.000000
  0
SEQEND
  0
POLYLINE
  8
0
 66
1
 70
1
  0
VERTEX
  8
0
 10
333.371165
 20
449.500366
 42
-0.085025
  0
VERTEX
  8
0
 10
370.535423
 20
437.215811
 42
-0.110217
  0
VERTEX
  8
0
 10
397.714030
 20
413.929152
 42
-0.107881
  0
VERTEX
  8
0
 10
412.790326
 20
380.872189
 42
-0.078749
  0
VERTEX
  8
0
 10
415.048089
 20
340.443187
 42
0.000000
  0
VERTEX
  8
0
 10
413.731314
 20
327.500000
 42
0.000000
  0
VERTEX
  8
0
 10
420.145473
 20
319.000000
 42
-0.014761
  0
VERTEX
  8
0
 10
422.989392
 20
314.990382
 42
-0.008038
  0
VERTEX
  8
0
 10
426.253680
 20
309.912500
 42
-0.008002
  0
VERTEX
  8
0
 10
429.409619
 20
304.638621
 42
-0.012575
  0
VERTEX
  8
0
 10
431.932251
 20
300.000000
 42
0.012002
  0
VERTEX
  8
0
 10
437.003180
 20
290.650035
 42
0.182893
  0
VERTEX
  8
0
 10
439.798094
 20
288.352408
 42
0.208507
  0
VERTEX
  8
0
 10
443.236639
 20
288.644886
 42
0.016163
  0
VERTEX
  8
0
 10
451.403851
 20
293.411570
 42
-0.066971
  0
VERTEX
  8
0
 10
477.831626
 20
305.432275
 42
-0.066726
  0
VERTEX
  8
0
 10
506.530194
 20
310.060220
 42
-0.064022
  0
VERTEX
  8
0
 10
536.472107
 20
307.018504
 42
-0.054057
  0
VERTEX
  8
0
 10
566.543459
 20
296.478510
 42
-0.120634
  0
VERTEX
  8
0
 10
607.212511
 20
263.237259
 42
-0.149505
  0
VERTEX
  8
0
 10
623.839770
 20
217.493548
 42
-0.139161
  0
VERTEX
  8
0
 10
612.467967
 20
167.743829
 42
-0.099486
  0
VERTEX
  8
0
 10
575.500000
 20
123.817039
 42
-0.032166
  0
VERTEX
  8
0
 10
552.683501
 20
107.918334
 42
-0.025126
  0
VERTEX
  8
0
 10
526.087106
 20
93.594188
 42
-0.018346
  0
VERTEX
  8
0
 10
491.009277
 20
78.469020
 42
-0.006758
  0
VERTEX
  8
0
 10
440.500000
 20
59.635813
 42
0.000655
  0
VERTEX
  8
0
 10
416.699442
 20
51.090755
 42
0.004880
  0
VERTEX
  8
0
 10
405.431268
 20
46.903783
 42
0.008710
  0
VERTEX
  8
0
 10
397.044899
 20
43.525506
 42
0.005188
  0
VERTEX
  8
0
 10
387.176136
 20
39.227569
 42
-0.013208
  0
VERTEX
  8
0
 10
379.170769
 20
35.892866
 42
-0.162236
  0
VERTEX
  8
0
 10
375.908983
 20
35.740712
 42
-0.162436
  0
VERTEX
  8
0
 10
373.209822
 20
37.575902
 42
-0.013249
  0
VERTEX
  8
0
 10
368.141127
 20
44.599435
 42
0.007860
  0
VERTEX
  8
0
 10
361.024852
 20
54.687575
 42
0.006454
  0
VERTEX
  8
0
 10
353.119283
 20
65.239854
 42
0.003671
  0
VERTEX
  8
0
 10
341.598738
 20
79.985390
 42
0.000708
  0
VERTEX
  8
0
 10
320.506592
 20
106.500000
 42
-0.000508
  0
VERTEX
  8
0
 10
308.005873
 20
122.201574
 42
-0.000594
  0
VERTEX
  8
0
 10
296.175829
 20
137.128125
 42
-0.000523
  0
VERTEX
  8
0
 10
286.201620
 20
149.771023
 42
-0.003637
  0
VERTEX
  8
0
 10
281.371008
 20
156.000000
 42
0.007565
  0
VERTEX
  8
0
 10
278.182669
 20
160.045264
 42
0.011011
  0
VERTEX
  8
0
 10
275.240647
 20
163.505476
 42
0.006770
  0
VERTEX
  8
0
 10
272.693058
 20
166.294455
 42
0.157878
  0
VERTEX
  8
0
 10
271.765504
 20
166.805876
 42
0.213285
  0
VERTEX
  8
0
 10
269.869908
 20
166.362930
 42
0.009617
  0
VERTEX
  8
0
 10
264.493122
 20
162.111389
 42
0.011952
  0
VERTEX
  8
0
 10
257.294378
 20
155.896347
 42
0.004213
  0
VERTEX
  8
0
 10
247.264581
 20
146.654701
 42
-0.010832
  0
VERTEX
  8
0
 10
240.341706
 20
140.443249
 42
-0.107272
  0
VERTEX
  8
0
 10
236.925272
 20
138.595009
 42
-0.182691
  0
VERTEX
  8
0
 10
233.837539
 20
138.840159
 42
-0.044698
  0
VERTEX
  8
0
 10
229.359191
 20
141.463865
 42
0.007483
  0
VERTEX
  8
0
 10
218.635817
 20
148.868496
 42
0.004950
  0
VERTEX
  8
0
 10
206.109702
 20
157.065643
 42
0.004010
  0
VERTEX
  8
0
 10
190.827285
 20
166.679921
 42
0.002050
  0
VERTEX
  8
0
 10
171.500000
 20
178.514405
 42
-0.008348
  0
VERTEX
  8
0
 10
116.160884
 20
213.365548
 42
-0.024666
  0
VERTEX
  8
0
 10
79.816725
 20
239.755789
 42
-0.035127
  0
VERTEX
  8
0
 10
54.341360
 20
263.374154
 42
-0.045455
  0
VERTEX
  8
0
 10
34.755040
 20
288.500000
 42
-0.091859
  0
VERTEX
  8
0
 10
17.744100
 20
330.110359
 42
-0.111458
  0
VERTEX
  8
0
 10
18.464000
 20
372.151427
 42
-0.120780
  0
VERTEX
  8
0
 10
36.771511
 20
407.358359
 42
-0.121294
  0
VERTEX
  8
0
 10
69.260647
 20
430.040271
 42
-0.066857
  0
VERTEX
  8
0
 10
104.863831
 20
438.547600
 42
-0.070443
  0
VERTEX
  8
0
 10
140.799073
 20
437.123092
 42
-0.071982
  0
VERTEX
  8
0
 10
174.263977
 20
425.884736
 42
-0.074891
  0
VERTEX
  8
0
 10
202.667680
 20
405.726388
 42
0.018329
  0
VERTEX
  8
0
 10
208.450131
 20
400.550917
 42
0.194779
  0
VERTEX
  8
0
 10
211.401366
 20
399.609888
 42
0.189391
  0
VERTEX
  8
0
 10
214.220497
 20
400.973150
 42
0.017189
  0
VERTEX
  8
0
 10
219.420949
 20
407.003332
 42
-0.065997
  0
VERTEX
  8
0
 10
242.218744
 20
428.746123
 42
-0.068343
  0
VERTEX
  8
0
 10
269.638464
 20
443.492850
 42
-0.067038
  0
VERTEX
  8
0
 10
300.495093
 20
450.493243
 42
-0.059775
  0
SEQEND
  0
POLYLINE
  8
0
 66
1
 70
1
  0
VERTEX
  8
0
 10
292.536763
 20
416.971374
 42
0.066198
  0
VERTEX
  8
0
 10
272.261650
 20
409.803983
 42
0.058043
  0
VERTEX
  8
0
 10
253.555338
 20
397.334441
 42
0.052450
  0
VERTEX
  8
0
 10
236.630557
 20
379.601466
 42
0.038166
  0
VERTEX
  8
0
 10
221.655737
 20
356.793965
 42
-0.015559
  0
VERTEX
  8
0
 10
217.954322
 20
350.559889
 42
-0.250423
  0
VERTEX
  8
0
 10
215.891982
 20
349.397828
 42
-0.221624
  0
VERTEX
  8
0
 10
213.618727
 20
350.396216
 42
-0.012287
  0
VERTEX
  8
0
 10
208.517107
 20
356.500000
 42
0.041174
  0
VERTEX
  8
0
 10
187.558955
 20
378.820517
 42
0.057696
  0
VERTEX
  8
0
 10
165.309954
 20
394.680785
 42
0.062929
  0
VERTEX
  8
0
 10
141.647805
 20
404.086305
 42
0.063790
  0
VERTEX
  8
0
 10
116.500000
 20
407.252430
 42
0.064765
  0
VERTEX
  8
0
 10
90.911074
 20
403.867563
 42
0.117863
  0
VERTEX
  8
0
 10
72.461162
 20
393.895676
 42
0.127526
  0
VERTEX
  8
0
 10
61.424888
 20
377.303878
 42
0.083129
  0
VERTEX
  8
0
 10
57.571372
 20
354.500000
 42
0.105150
  0
VERTEX
  8
0
 10
65.529218
 20
316.794866
 42
0.080988
  0
VERTEX
  8
0
 10
88.602169
 20
281.513060
 42
0.054900
  0
VERTEX
  8
0
 10
130.356619
 20
244.867420
 42
0.019724
  0
VERTEX
  8
0
 10
197.000000
 20
202.038759
 42
-0.001531
  0
VERTEX
  8
0
 10
206.114610
 20
196.639242
 42
-0.001693
  0
VERTEX
  8
0
 10
214.895387
 20
191.360702
 42
-0.001570
  0
VERTEX
  8
0
 10
222.362537
 20
186.805243
 42
-0.008709
  0
VERTEX
  8
0
 10
226.324721
 20
184.274841
 42
0.026358
  0
VERTEX
  8
0
 10
231.644422
 20
181.136027
 42
0.178688
  0
VERTEX
  8
0
 10
234.624133
 20
180.756422
 42
0.117825
  0
VERTEX
  8
0
 10
237.757670
 20
182.314781
 42
0.008839
  0
VERTEX
  8
0
 10
245.000000
 20
188.587086
 42
0.010682
  0
VERTEX
  8
0
 10
250.899415
 20
194.113734
 42
0.102788
  0
VERTEX
  8
0
 10
252.807559
 20
196.952579
 42
0.167116
  0
VERTEX
  8
0
 10
252.962992
 20
199.736954
 42
0.040416
  0
VERTEX
  8
0
 10
251.330840
 20
204.123700
 42
-0.045603
  0
VERTEX
  8
0
 10
239.858968
 20
235.961619
 42
-0.053834
  0
VERTEX
  8
0
 10
235.167082
 20
267.620039
 42
-0.057738
  0
VERTEX
  8
0
 10
237.440476
 20
297.562751
 42
-0.068843
  0
VERTEX
  8
0
 10
246.571499
 20
324.343269
 42
-0.105603
  0
VERTEX
  8
0
 10
265.348827
 20
347.730868
 42
-0.097456
  0
VERTEX
  8
0
 10
292.562145
 20
362.231464
 42
-0.087631
  0
VERTEX
  8
0
 10
325.789654
 20
366.253739
 42
-0.067230
  0
VERTEX
  8
0
 10
361.774771
 20
359.385059
 42
0.011493
  0
VERTEX
  8
0
 10
370.255298
 20
356.762835
 42
0.165255
  0
VERTEX
  8
0
 10
373.362055
 20
356.920337
 42
0.297687
  0
VERTEX
  8
0
 10
374.753687
 20
358.894898
 42
0.036188
  0
VERTEX
  8
0
 10
374.547214
 20
364.459932
 42
0.098214
  0
VERTEX
  8
0
 10
366.173911
 20
391.035411
 42
0.125716
  0
VERTEX
  8
0
 10
348.725018
 20
409.722390
 42
0.117078
  0
VERTEX
  8
0
 10
323.394092
 20
418.581338
 42
0.077890
  0
SEQEND
  0
POLYLINE
  8
0
 66
1
 70
1
  0
VERTEX
  8
0
 10
315.510164
 20
333.892520
 42
0.103354
  0
VERTEX
  8
0
 10
299.262006
 20
326.879266
 42
0.088084
  0
VERTEX
  8
0
 10
286.090566
 20
313.608173
 42
0.078430
  0
VERTEX
  8
0
 10
277.172561
 20
295.117009
 42
0.060270
  0
VERTEX
  8
0
 10
273.320414
 20
273.000000
 42
0.043809
  0
VERTEX
  8
0
 10
273.852234
 20
258.031715
 42
0.028590
  0
VERTEX
  8
0
 10
276.952568
 20
241.017431
 42
0.021183
  0
VERTEX
  8
0
 10
281.270260
 20
225.988974
 42
0.322719
  0
VERTEX
  8
0
 10
285.418882
 20
223.000000
 42
0.191972
  0
VERTEX
  8
0
 10
290.166224
 20
224.892462
 42
0.002970
  0
VERTEX
  8
0
 10
311.778358
 20
245.623808
 42
0.008194
  0
VERTEX
  8
0
 10
331.856236
 20
265.763179
 42
0.029470
  0
VERTEX
  8
0
 10
343.657667
 20
279.533373
 42
0.017395
  0
VERTEX
  8
0
 10
353.251383
 20
293.119044
 42
0.020665
  0
VERTEX
  8
0
 10
361.306994
 20
306.596311
 42
0.015153
  0
VERTEX
  8
0
 10
367.247750
 20
318.375609
 42
0.236309
  0
VERTEX
  8
0
 10
367.128033
 20
322.760767
 42
0.193708
  0
VERTEX
  8
0
 10
361.276657
 20
327.656622
 42
0.025416
  0
VERTEX
  8
0
 10
345.309930
 20
331.959300
 42
0.030047
  0
VERTEX
  8
0
 10
328.198033
 20
334.586270
 42
0.073570
  0
SEQEND
  0
POLYLINE
  8
0
 66
1
 70
1
  0
VERTEX
  8
0
 10
397.256272
 20
290.112357
 42
0.000908
  0
VERTEX
  8
0
 10
395.781939
 20
288.024830
 42
0.000236
  0
VERTEX
  8
0
 10
393.418847
 20
284.662604
 42
0.000240
  0
VERTEX
  8
0
 10
390.729706
 20
280.828713
 42
0.000245
  0
VERTEX
  8
0
 10
388.063208
 20
277.019247
 42
-0.024223
  0
VERTEX
  8
0
 10
377.218961
 20
263.007547
 42
-0.016913
  0
VERTEX
  8
0
 10
363.729049
 20
248.260537
 42
-0.014144
  0
VERTEX
  8
0
 10
346.833643
 20
231.950250
 42
-0.007998
  0
VERTEX
  8
0
 10
325.499836
 20
213.106658
 42
0.000606
  0
VERTEX
  8
0
 10
308.219017
 20
198.291921
 42
0.015326
  0
VERTEX
  8
0
 10
303.627130
 20
194.094284
 42
0.063343
  0
VERTEX
  8
0
 10
301.651497
 20
191.616198
 42
0.137492
  0
VERTEX
  8
0
 10
301.000000
 20
189.291760
 42
0.151341
  0
VERTEX
  8
0
 10
302.923343
 20
183.082966
 42
0.004237
  0
VERTEX
  8
0
 10
319.154986
 20
159.823304
 42
0.009257
  0
VERTEX
  8
0
 10
337.334232
 20
135.215310
 42
0.010728
  0
VERTEX
  8
0
 10
355.562134
 20
112.500000
 42
-0.001547
  0
VERTEX
  8
0
 10
360.741100
 20
106.283440
 42
-0.001044
  0
VERTEX
  8
0
 10
366.612546
 20
99.160937
 42
-0.001052
  0
VERTEX
  8
0
 10
372.261089
 20
92.250022
 42
-0.002094
  0
VERTEX
  8
0
 10
376.699036
 20
86.750000
 42
0.008906
  0
VERTEX
  8
0
 10
383.930620
 20
78.033469
 42
0.133565
  0
VERTEX
  8
0
 10
387.171335
 20
75.840686
 42
0.163133
  0
VERTEX
  8
0
 10
390.836526
 20
75.819073
 42
0.015023
  0
VERTEX
  8
0
 10
399.500000
 20
78.957584
 42
-0.006137
  0
VERTEX
  8
0
 10
404.864266
 20
81.009437
 42
-0.001633
  0
VERTEX
  8
0
 10
413.465625
 20
84.147177
 42
-0.001655
  0
VERTEX
  8
0
 10
423.269534
 20
87.650725
 42
-0.001705
  0
VERTEX
  8
0
 10
433.000000
 20
91.054448
 42
0.006856
  0
VERTEX
  8
0
 10
465.420977
 20
102.771534
 42
0.014012
  0
VERTEX
  8
0
 10
490.450486
 20
113.017122
 42
0.017493
  0
VERTEX
  8
0
 10
510.621785
 20
122.799256
 42
0.024505
  0
VERTEX
  8
0
 10
527.841601
 20
133.016779
 42
0.085720
  0
VERTEX
  8
0
 10
566.582666
 20
169.511186
 42
0.131149
  0
VERTEX
  8
0
 10
583.748633
 20
212.066326
 42
0.172345
  0
VERTEX
  8
0
 10
575.419204
 20
249.538083
 42
0.166718
  0
VERTEX
  8
0
 10
545.212242
 20
273.981887
 42
0.065818
  0
VERTEX
  8
0
 10
517.967625
 20
280.031117
 42
0.078577
  0
VERTEX
  8
0
 10
491.753247
 20
278.198682
 42
0.072247
  0
VERTEX
  8
0
 10
465.702671
 20
268.068729
 42
0.045852
  0
VERTEX
  8
0
 10
438.906188
 20
249.469651
 42
-0.008595
  0
VERTEX
  8
0
 10
434.988802
 20
246.294051
 42
-0.013222
  0
VERTEX
  8
0
 10
431.482161
 20
243.696446
 42
-0.007586
  0
VERTEX
  8
0
 10
428.499364
 20
241.673483
 42
-0.241324
  0
VERTEX
  8
0
 10
427.647396
 20
241.581812
 42
-0.194304
  0
VERTEX
  8
0
 10
427.002343
 20
242.183022
 42
-0.007480
  0
VERTEX
  8
0
 10
425.638541
 20
245.222413
 42
-0.012412
  0
VERTEX
  8
0
 10
424.139569
 20
248.953695
 42
-0.008330
  0
VERTEX
  8
0
 10
422.604467
 20
253.286262
 42
0.019054
  0
VERTEX
  8
0
 10
417.028411
 20
268.012749
 42
0.023158
  0
VERTEX
  8
0
 10
410.659661
 20
281.320183
 42
0.018156
  0
VERTEX
  8
0
 10
404.484249
 20
291.884484
 42
0.251329
  0
VERTEX
  8
0
 10
400.756272
 20
293.984687
 42
0.203692
  0
VERTEX
  8
0
 10
400.340337
 20
293.817930
 42
0.013169
  0
VERTEX
  8
0
 10
399.421360
 20
292.853507
 42
0.017509
  0
VERTEX
  8
0
 10
398.366317
 20
291.600718
 42
0.012045
  0
SEQEND
  0
ENDSEC
  0
EOF
