  0
SECTION
  2
HEADER
  9
$EXTMIN
 10
0.000000
 20
0.000000
  9
$EXTMAX
 10
39.370079
 20
39.370079
  9
$LTSCALE
 40
100.000000
  9
$PDMODE
 70
35
  9
$PDSIZE
 40
80.000000
  0
ENDSEC
  0
SECTION
  2
TABLES
  0
TABLE
  2
LAYER
 70
1
  0
LAYER
  2
LAYER_1
 70
0
 62
1
  6
CONTINUOUS
  0
ENDTAB
  0
ENDSEC
  0
SECTION
  2
BLOCKS
  0
ENDSEC
  0
SECTION
  2
ENTITIES
  0
POLYLINE
  8
LAYER_1
 62
2
 70
1
 66
1
  0
VERTEX
  8
LAYER_1
 62
7
 10
37.889764
 20
19.685039
 42
0.100596
  0
VERTEX
  8
LAYER_1
 62
7
 10
36.459146
 20
26.771140
 42
0.096579
  0
VERTEX
  8
LAYER_1
 62
7
 10
32.557723
 20
32.557723
 42
0.096579
  0
VERTEX
  8
LAYER_1
 62
7
 10
26.771140
 20
36.459146
 42
0.100596
  0
VERTEX
  8
LAYER_1
 62
7
 10
19.685039
 20
37.889764
 42
0.100596
  0
VERTEX
  8
LAYER_1
 62
7
 10
12.598939
 20
36.459146
 42
0.096579
  0
VERTEX
  8
LAYER_1
 62
7
 10
6.812355
 20
32.557723
 42
0.096579
  0
VERTEX
  8
LAYER_1
 62
7
 10
2.910932
 20
26.771140
 42
0.100596
  0
VERTEX
  8
LAYER_1
 62
7
 10
1.480315
 20
19.685039
 42
0.100596
  0
VERTEX
  8
LAYER_1
 62
7
 10
2.910932
 20
12.598939
 42
0.096579
  0
VERTEX
  8
LAYER_1
 62
7
 10
6.812355
 20
6.812355
 42
0.096579
  0
VERTEX
  8
LAYER_1
 62
7
 10
12.598939
 20
2.910932
 42
0.100596
  0
VERTEX
  8
LAYER_1
 62
7
 10
19.685039
 20
1.480315
 42
0.100596
  0
VERTEX
  8
LAYER_1
 62
7
 10
26.771140
 20
2.910932
 42
0.096579
  0
VERTEX
  8
LAYER_1
 62
7
 10
32.557723
 20
6.812355
 42
0.096579
  0
VERTEX
  8
LAYER_1
 62
7
 10
36.459146
 20
12.598939
 42
0.100596
  0
VERTEX
  8
LAYER_1
 62
7
 10
37.889764
 20
19.685039
  0
SEQEND
  0
POLYLINE
  8
LAYER_1
 62
7
 70
1
 66
1
  0
VERTEX
  8
LAYER_1
 62
7
 10
37.200880
 20
19.685039
 42
0.100596
  0
VERTEX
  8
LAYER_1
 62
7
 10
35.824398
 20
26.502995
 42
0.096579
  0
VERTEX
  8
LAYER_1
 62
7
 10
32.070609
 20
32.070609
 42
0.096579
  0
VERTEX
  8
LAYER_1
 62
7
 10
26.502995
 20
35.824398
 42
0.100596
  0
VERTEX
  8
LAYER_1
 62
7
 10
19.685039
 20
37.200880
 42
0.100596
  0
VERTEX
  8
LAYER_1
 62
7
 10
12.867084
 20
35.824398
 42
0.096579
  0
VERTEX
  8
LAYER_1
 62
7
 10
7.299470
 20
32.070609
 42
0.096579
  0
VERTEX
  8
LAYER_1
 62
7
 10
3.545681
 20
26.502995
 42
0.100596
  0
VERTEX
  8
LAYER_1
 62
7
 10
2.169199
 20
19.685039
 42
0.100596
  0
VERTEX
  8
LAYER_1
 62
7
 10
3.545681
 20
12.867084
 42
0.096579
  0
VERTEX
  8
LAYER_1
 62
7
 10
7.299470
 20
7.299470
 42
0.096579
  0
VERTEX
  8
LAYER_1
 62
7
 10
12.867084
 20
3.545681
 42
0.100596
  0
VERTEX
  8
LAYER_1
 62
7
 10
19.685039
 20
2.169199
 42
0.100596
  0
VERTEX
  8
LAYER_1
 62
7
 10
26.502995
 20
3.545681
 42
0.096579
  0
VERTEX
  8
LAYER_1
 62
7
 10
32.070609
 20
7.299470
 42
0.096579
  0
VERTEX
  8
LAYER_1
 62
7
 10
35.824398
 20
12.867084
 42
0.100596
  0
VERTEX
  8
LAYER_1
 62
7
 10
37.200880
 20
19.685039
  0
SEQEND
  0
POLYLINE
  8
LAYER_1
 62
2
 70
1
 66
1
  0
VERTEX
  8
LAYER_1
 62
7
 10
17.577095
 20
35.086446
 42
-0.030450
  0
VERTEX
  8
LAYER_1
 62
7
 10
17.680787
 20
35.200304
 42
-0.158088
  0
VERTEX
  8
LAYER_1
 62
7
 10
17.658452
 20
34.967880
 42
-0.023580
  0
VERTEX
  8
LAYER_1
 62
7
 10
17.552644
 20
34.752818
 42
0.011605
  0
VERTEX
  8
LAYER_1
 62
7
 10
17.353323
 20
34.335313
 42
0.030398
  0
VERTEX
  8
LAYER_1
 62
7
 10
17.176956
 20
33.869926
 42
0.056026
  0
VERTEX
  8
LAYER_1
 62
7
 10
17.082896
 20
33.388655
 42
0.092885
  0
VERTEX
  8
LAYER_1
 62
7
 10
17.130497
 20
32.923497
 42
0.070413
  0
VERTEX
  8
LAYER_1
 62
7
 10
17.188307
 20
32.796060
 42
0.119260
  0
VERTEX
  8
LAYER_1
 62
7
 10
17.277515
 20
32.709528
 42
0.141595
  0
VERTEX
  8
LAYER_1
 62
7
 10
17.403964
 20
32.680643
 42
0.097705
  0
VERTEX
  8
LAYER_1
 62
7
 10
17.573498
 20
32.726144
 42
0.151890
  0
VERTEX
  8
LAYER_1
 62
7
 10
17.675883
 20
32.824736
 42
-0.240260
  0
VERTEX
  8
LAYER_1
 62
7
 10
17.748485
 20
32.881673
 42
-0.045992
  0
VERTEX
  8
LAYER_1
 62
7
 10
17.795871
 20
32.887871
  0
VERTEX
  8
LAYER_1
 62
7
 10
17.844788
 20
32.889574
 42
-0.025360
  0
VERTEX
  8
LAYER_1
 62
7
 10
17.749595
 20
32.576341
 42
-0.038668
  0
VERTEX
  8
LAYER_1
 62
7
 10
17.615378
 20
32.277802
 42
-0.031165
  0
VERTEX
  8
LAYER_1
 62
7
 10
17.507818
 20
32.107934
 42
-0.060562
  0
VERTEX
  8
LAYER_1
 62
7
 10
17.354729
 20
31.940008
 42
-0.131732
  0
VERTEX
  8
LAYER_1
 62
7
 10
17.166903
 20
31.845510
 42
-0.197798
  0
VERTEX
  8
LAYER_1
 62
7
 10
16.955134
 20
31.895925
 42
-0.103710
  0
VERTEX
  8
LAYER_1
 62
7
 10
16.856957
 20
31.998714
 42
-0.065837
  0
VERTEX
  8
LAYER_1
 62
7
 10
16.791407
 20
32.143200
 42
-0.065686
  0
VERTEX
  8
LAYER_1
 62
7
 10
16.736814
 20
32.503763
 42
-0.050145
  0
VERTEX
  8
LAYER_1
 62
7
 10
16.784031
 20
33.136738
 42
-0.028017
  0
VERTEX
  8
LAYER_1
 62
7
 10
16.916357
 20
33.670362
 42
-0.022371
  0
VERTEX
  8
LAYER_1
 62
7
 10
17.110930
 20
34.219688
 42
-0.025915
  0
VERTEX
  8
LAYER_1
 62
7
 10
17.340320
 20
34.714965
 42
-0.045647
  0
VERTEX
  8
LAYER_1
 62
7
 10
17.577095
 20
35.086446
  0
SEQEND
  0
POLYLINE
  8
LAYER_1
 62
2
 70
1
 66
1
  0
VERTEX
  8
LAYER_1
 62
7
 10
13.173093
 20
20.260803
 42
0.199589
  0
VERTEX
  8
LAYER_1
 62
7
 10
12.912583
 20
20.889730
 42
0.199589
  0
VERTEX
  8
LAYER_1
 62
7
 10
12.283656
 20
21.150241
 42
0.199589
  0
VERTEX
  8
LAYER_1
 62
7
 10
11.654728
 20
20.889730
 42
0.199589
  0
VERTEX
  8
LAYER_1
 62
7
 10
11.394218
 20
20.260803
 42
0.199589
  0
VERTEX
  8
LAYER_1
 62
7
 10
11.654728
 20
19.631876
 42
0.199589
  0
VERTEX
  8
LAYER_1
 62
7
 10
12.283656
 20
19.371366
 42
0.199589
  0
VERTEX
  8
LAYER_1
 62
7
 10
12.912583
 20
19.631876
 42
0.199589
  0
VERTEX
  8
LAYER_1
 62
7
 10
13.173093
 20
20.260803
  0
SEQEND
  0
POLYLINE
  8
LAYER_1
 62
2
 70
1
 66
1
  0
VERTEX
  8
LAYER_1
 62
7
 10
14.592125
 20
14.318798
 42
-0.114187
  0
VERTEX
  8
LAYER_1
 62
7
 10
15.834024
 20
14.955961
 42
-0.028350
  0
VERTEX
  8
LAYER_1
 62
7
 10
15.278663
 20
13.973770
 42
-0.018358
  0
VERTEX
  8
LAYER_1
 62
7
 10
14.491179
 20
12.846572
 42
-0.028442
  0
VERTEX
  8
LAYER_1
 62
7
 10
13.886417
 20
12.150760
 42
0.016732
  0
VERTEX
  8
LAYER_1
 62
7
 10
13.669624
 20
11.958162
  0
VERTEX
  8
LAYER_1
 62
7
 10
13.459626
 20
11.756769
 42
-0.011926
  0
VERTEX
  8
LAYER_1
 62
7
 10
13.246227
 20
11.559784
 42
-0.026430
  0
VERTEX
  8
LAYER_1
 62
7
 10
13.019231
 20
11.380408
  0
VERTEX
  8
LAYER_1
 62
7
 10
12.831760
 20
11.249071
  0
VERTEX
  8
LAYER_1
 62
7
 10
12.870504
 20
11.361805
 42
-0.014176
  0
VERTEX
  8
LAYER_1
 62
7
 10
13.161952
 20
12.145040
 42
-0.025239
  0
VERTEX
  8
LAYER_1
 62
7
 10
13.531507
 20
12.941303
 42
-0.039035
  0
VERTEX
  8
LAYER_1
 62
7
 10
14.000966
 20
13.687065
 42
-0.056762
  0
VERTEX
  8
LAYER_1
 62
7
 10
14.592125
 20
14.318798
  0
SEQEND
  0
POLYLINE
  8
LAYER_1
 62
2
 70
1
 66
1
  0
VERTEX
  8
LAYER_1
 62
7
 10
12.372639
 20
10.961528
  0
VERTEX
  8
LAYER_1
 62
7
 10
12.065837
 20
10.826247
 42
-0.123932
  0
VERTEX
  8
LAYER_1
 62
7
 10
10.120749
 20
10.510527
 42
-0.076742
  0
VERTEX
  8
LAYER_1
 62
7
 10
9.156884
 20
10.742404
 42
-0.099336
  0
VERTEX
  8
LAYER_1
 62
7
 10
8.347144
 20
11.281245
  0
VERTEX
  8
LAYER_1
 62
7
 10
8.316365
 20
11.312773
  0
VERTEX
  8
LAYER_1
 62
7
 10
8.204704
 20
11.459663
 42
-0.012181
  0
VERTEX
  8
LAYER_1
 62
7
 10
8.094473
 20
11.608493
 42
-0.080146
  0
VERTEX
  8
LAYER_1
 62
7
 10
7.927339
 20
11.936087
 42
-0.070117
  0
VERTEX
  8
LAYER_1
 62
7
 10
7.783974
 20
12.447502
 42
-0.025432
  0
VERTEX
  8
LAYER_1
 62
7
 10
7.739909
 20
12.978940
 42
0.048922
  0
VERTEX
  8
LAYER_1
 62
7
 10
8.259772
 20
13.013082
 42
0.063911
  0
VERTEX
  8
LAYER_1
 62
7
 10
9.672514
 20
13.422178
 42
0.062911
  0
VERTEX
  8
LAYER_1
 62
7
 10
10.865383
 20
14.135080
 42
0.053760
  0
VERTEX
  8
LAYER_1
 62
7
 10
11.864764
 20
15.111898
 42
0.041544
  0
VERTEX
  8
LAYER_1
 62
7
 10
12.697040
 20
16.312738
 42
0.018759
  0
VERTEX
  8
LAYER_1
 62
7
 10
12.890422
 20
16.674146
  0
VERTEX
  8
LAYER_1
 62
7
 10
13.174156
 20
17.295553
 42
0.015555
  0
VERTEX
  8
LAYER_1
 62
7
 10
13.439091
 20
17.925133
 42
-0.052406
  0
VERTEX
  8
LAYER_1
 62
7
 10
13.701553
 20
17.755417
 42
-0.068148
  0
VERTEX
  8
LAYER_1
 62
7
 10
14.166253
 20
17.274727
 42
-0.064083
  0
VERTEX
  8
LAYER_1
 62
7
 10
14.451881
 20
16.746491
 42
-0.039569
  0
VERTEX
  8
LAYER_1
 62
7
 10
14.622670
 20
16.162166
 42
-0.009093
  0
VERTEX
  8
LAYER_1
 62
7
 10
14.685072
 20
15.846299
  0
VERTEX
  8
LAYER_1
 62
7
 10
14.742852
 20
15.513206
 42
0.007005
  0
VERTEX
  8
LAYER_1
 62
7
 10
14.800139
 20
15.197589
 42
-0.015629
  0
VERTEX
  8
LAYER_1
 62
7
 10
14.643184
 20
15.044779
 42
0.042136
  0
VERTEX
  8
LAYER_1
 62
7
 10
13.823766
 20
14.157562
 42
0.043273
  0
VERTEX
  8
LAYER_1
 62
7
 10
13.229577
 20
13.232573
 42
0.032616
  0
VERTEX
  8
LAYER_1
 62
7
 10
12.783291
 20
12.222121
 42
0.016488
  0
VERTEX
  8
LAYER_1
 62
7
 10
12.407579
 20
11.078513
  0
VERTEX
  8
LAYER_1
 62
7
 10
12.372639
 20
10.961528
  0
SEQEND
  0
POLYLINE
  8
LAYER_1
 62
2
 70
1
 66
1
  0
VERTEX
  8
LAYER_1
 62
7
 10
28.430156
 20
10.066486
 42
-0.009980
  0
VERTEX
  8
LAYER_1
 62
7
 10
28.344914
 20
9.894158
  0
VERTEX
  8
LAYER_1
 62
7
 10
28.258132
 20
9.919172
 42
-0.102642
  0
VERTEX
  8
LAYER_1
 62
7
 10
27.564977
 20
10.277211
 42
-0.109222
  0
VERTEX
  8
LAYER_1
 62
7
 10
27.107515
 20
10.859792
 42
-0.101231
  0
VERTEX
  8
LAYER_1
 62
7
 10
26.920857
 20
11.620794
 42
-0.085080
  0
VERTEX
  8
LAYER_1
 62
7
 10
27.040112
 20
12.514094
  0
VERTEX
  8
LAYER_1
 62
7
 10
27.044664
 20
12.526165
  0
VERTEX
  8
LAYER_1
 62
7
 10
27.092713
 20
12.507658
 42
0.107903
  0
VERTEX
  8
LAYER_1
 62
7
 10
27.834901
 20
12.390556
 42
0.107903
  0
VERTEX
  8
LAYER_1
 62
7
 10
28.555740
 20
12.602560
  0
VERTEX
  8
LAYER_1
 62
7
 10
28.567616
 20
12.566675
 42
-0.028847
  0
VERTEX
  8
LAYER_1
 62
7
 10
28.679780
 20
12.296962
 42
-0.070132
  0
VERTEX
  8
LAYER_1
 62
7
 10
28.790474
 20
11.717270
 42
-0.051758
  0
VERTEX
  8
LAYER_1
 62
7
 10
28.758677
 20
11.126703
 42
-0.070369
  0
VERTEX
  8
LAYER_1
 62
7
 10
28.430156
 20
10.066486
  0
SEQEND
  0
POLYLINE
  8
LAYER_1
 62
2
 70
1
 66
1
  0
VERTEX
  8
LAYER_1
 62
7
 10
25.972934
 20
32.450421
  0
VERTEX
  8
LAYER_1
 62
7
 10
26.027965
 20
32.400294
 42
-0.031666
  0
VERTEX
  8
LAYER_1
 62
7
 10
26.528984
 20
32.038476
 42
-0.021391
  0
VERTEX
  8
LAYER_1
 62
7
 10
26.988067
 20
31.626192
 42
-0.011007
  0
VERTEX
  8
LAYER_1
 62
7
 10
27.420691
 20
31.183871
  0
VERTEX
  8
LAYER_1
 62
7
 10
27.842332
 20
30.731948
 42
-0.013359
  0
VERTEX
  8
LAYER_1
 62
7
 10
28.323371
 20
30.192951
 42
-0.029154
  0
VERTEX
  8
LAYER_1
 62
7
 10
28.756598
 20
29.615541
 42
-0.011514
  0
VERTEX
  8
LAYER_1
 62
7
 10
29.047483
 20
29.138903
 42
-0.024286
  0
VERTEX
  8
LAYER_1
 62
7
 10
29.304859
 20
28.640455
 42
-0.038141
  0
VERTEX
  8
LAYER_1
 62
7
 10
29.497056
 20
28.117385
 42
-0.051885
  0
VERTEX
  8
LAYER_1
 62
7
 10
29.592406
 20
27.566886
 42
-0.056536
  0
VERTEX
  8
LAYER_1
 62
7
 10
29.502300
 20
26.427390
 42
-0.074971
  0
VERTEX
  8
LAYER_1
 62
7
 10
29.121651
 20
25.352051
 42
-0.069372
  0
VERTEX
  8
LAYER_1
 62
7
 10
28.168155
 20
24.008438
 42
-0.073054
  0
VERTEX
  8
LAYER_1
 62
7
 10
27.084949
 20
23.158509
 42
-0.052669
  0
VERTEX
  8
LAYER_1
 62
7
 10
25.820969
 20
22.601909
  0
VERTEX
  8
LAYER_1
 62
7
 10
25.617371
 20
22.535476
  0
VERTEX
  8
LAYER_1
 62
7
 10
25.605185
 20
22.924083
  0
VERTEX
  8
LAYER_1
 62
7
 10
25.590020
 20
23.201374
 42
-0.029047
  0
VERTEX
  8
LAYER_1
 62
7
 10
25.587722
 20
23.478839
 42
-0.003007
  0
VERTEX
  8
LAYER_1
 62
7
 10
25.568039
 20
24.378667
 42
-0.007663
  0
VERTEX
  8
LAYER_1
 62
7
 10
25.567562
 20
25.278495
 42
0.219277
  0
VERTEX
  8
LAYER_1
 62
7
 10
25.546177
 20
25.366966
 42
0.038199
  0
VERTEX
  8
LAYER_1
 62
7
 10
25.515767
 20
25.402237
  0
VERTEX
  8
LAYER_1
 62
7
 10
25.483110
 20
25.435413
  0
VERTEX
  8
LAYER_1
 62
7
 10
25.238129
 20
24.589594
 42
-0.016913
  0
VERTEX
  8
LAYER_1
 62
7
 10
24.964953
 20
23.752357
 42
0.066074
  0
VERTEX
  8
LAYER_1
 62
7
 10
24.837912
 20
23.251485
 42
0.036087
  0
VERTEX
  8
LAYER_1
 62
7
 10
24.815188
 20
22.733327
  0
VERTEX
  8
LAYER_1
 62
7
 10
24.822463
 20
22.340260
  0
VERTEX
  8
LAYER_1
 62
7
 10
24.679578
 20
22.316656
 42
-0.012675
  0
VERTEX
  8
LAYER_1
 62
7
 10
24.433235
 20
22.282362
 42
-0.045056
  0
VERTEX
  8
LAYER_1
 62
7
 10
23.433390
 20
22.263599
 42
-0.043634
  0
VERTEX
  8
LAYER_1
 62
7
 10
22.390117
 20
22.426965
 42
-0.051334
  0
VERTEX
  8
LAYER_1
 62
7
 10
21.399740
 20
22.779811
 42
-0.068637
  0
VERTEX
  8
LAYER_1
 62
7
 10
20.558585
 20
23.329488
 42
-0.021480
  0
VERTEX
  8
LAYER_1
 62
7
 10
20.378909
 20
23.502813
 42
-0.002642
  0
VERTEX
  8
LAYER_1
 62
7
 10
21.434974
 20
24.171282
 42
-0.022571
  0
VERTEX
  8
LAYER_1
 62
7
 10
22.522913
 20
24.785402
 42
0.012965
  0
VERTEX
  8
LAYER_1
 62
7
 10
22.670364
 20
24.538855
 42
0.108504
  0
VERTEX
  8
LAYER_1
 62
7
 10
22.870530
 20
24.336441
 42
0.126492
  0
VERTEX
  8
LAYER_1
 62
7
 10
23.390254
 20
24.151258
 42
0.119119
  0
VERTEX
  8
LAYER_1
 62
7
 10
23.937356
 20
24.228015
 42
0.089992
  0
VERTEX
  8
LAYER_1
 62
7
 10
24.486843
 20
24.597767
 42
0.069310
  0
VERTEX
  8
LAYER_1
 62
7
 10
24.895756
 20
25.121577
 42
0.068097
  0
VERTEX
  8
LAYER_1
 62
7
 10
25.504748
 20
26.577456
 42
0.030679
  0
VERTEX
  8
LAYER_1
 62
7
 10
25.760393
 20
27.891929
 42
0.019751
  0
VERTEX
  8
LAYER_1
 62
7
 10
25.883389
 20
29.234486
 42
0.009350
  0
VERTEX
  8
LAYER_1
 62
7
 10
25.928414
 20
30.584967
  0
VERTEX
  8
LAYER_1
 62
7
 10
25.950142
 20
31.923213
 42
-0.012082
  0
VERTEX
  8
LAYER_1
 62
7
 10
25.972934
 20
32.450421
  0
SEQEND
  0
POLYLINE
  8
LAYER_1
 62
2
 70
1
 66
1
  0
VERTEX
  8
LAYER_1
 62
7
 10
26.459490
 20
19.616363
 42
-0.076999
  0
VERTEX
  8
LAYER_1
 62
7
 10
26.715717
 20
19.700271
 42
-0.125903
  0
VERTEX
  8
LAYER_1
 62
7
 10
27.201487
 20
19.659762
 42
-0.113057
  0
VERTEX
  8
LAYER_1
 62
7
 10
27.606968
 20
19.406519
 42
-0.115776
  0
VERTEX
  8
LAYER_1
 62
7
 10
27.862358
 20
19.000102
 42
-0.129070
  0
VERTEX
  8
LAYER_1
 62
7
 10
27.897855
 20
18.500072
 42
-0.069403
  0
VERTEX
  8
LAYER_1
 62
7
 10
27.830345
 20
18.296724
 42
-0.140059
  0
VERTEX
  8
LAYER_1
 62
7
 10
27.356091
 20
17.675555
 42
-0.110756
  0
VERTEX
  8
LAYER_1
 62
7
 10
26.943783
 20
17.494774
 42
-0.112853
  0
VERTEX
  8
LAYER_1
 62
7
 10
26.530328
 20
17.510760
 42
-0.105429
  0
VERTEX
  8
LAYER_1
 62
7
 10
26.159461
 20
17.702186
 42
-0.097627
  0
VERTEX
  8
LAYER_1
 62
7
 10
25.874917
 20
18.047723
 42
-0.102198
  0
VERTEX
  8
LAYER_1
 62
7
 10
25.721407
 20
18.553978
 42
-0.060875
  0
VERTEX
  8
LAYER_1
 62
7
 10
25.729481
 20
18.814745
 42
-0.075811
  0
VERTEX
  8
LAYER_1
 62
7
 10
25.804797
 20
19.055916
 42
-0.109013
  0
VERTEX
  8
LAYER_1
 62
7
 10
26.083923
 20
19.388645
 42
-0.059228
  0
VERTEX
  8
LAYER_1
 62
7
 10
26.459490
 20
19.616363
  0
SEQEND
  0
POLYLINE
  8
LAYER_1
 62
2
 70
1
 66
1
  0
VERTEX
  8
LAYER_1
 62
7
 10
12.672600
 20
18.279790
  0
VERTEX
  8
LAYER_1
 62
7
 10
12.859072
 20
18.231144
  0
VERTEX
  8
LAYER_1
 62
7
 10
12.725702
 20
18.018480
 42
-0.022438
  0
VERTEX
  8
LAYER_1
 62
7
 10
12.190531
 20
17.233668
 42
-0.042554
  0
VERTEX
  8
LAYER_1
 62
7
 10
11.559342
 20
16.525945
 42
-0.011782
  0
VERTEX
  8
LAYER_1
 62
7
 10
11.044544
 20
16.097990
 42
-0.024337
  0
VERTEX
  8
LAYER_1
 62
7
 10
10.500751
 20
15.708586
 42
-0.069447
  0
VERTEX
  8
LAYER_1
 62
7
 10
9.347785
 20
15.155271
 42
-0.069447
  0
VERTEX
  8
LAYER_1
 62
7
 10
8.085224
 20
14.951727
  0
VERTEX
  8
LAYER_1
 62
7
 10
8.082259
 20
14.951339
  0
VERTEX
  8
LAYER_1
 62
7
 10
8.082259
 20
14.951339
 42
-0.092579
  0
VERTEX
  8
LAYER_1
 62
7
 10
9.172053
 20
16.884406
 42
-0.056248
  0
VERTEX
  8
LAYER_1
 62
7
 10
9.949149
 20
17.630351
 42
-0.070753
  0
VERTEX
  8
LAYER_1
 62
7
 10
10.885549
 20
18.155900
 42
-0.072419
  0
VERTEX
  8
LAYER_1
 62
7
 10
11.771756
 20
18.356724
 42
-0.082872
  0
VERTEX
  8
LAYER_1
 62
7
 10
12.672600
 20
18.279790
  0
SEQEND
  0
POLYLINE
  8
LAYER_1
 62
2
 70
1
 66
1
  0
VERTEX
  8
LAYER_1
 62
7
 10
24.008732
 20
13.362518
 42
-0.031326
  0
VERTEX
  8
LAYER_1
 62
7
 10
24.439032
 20
13.739625
 42
-0.046680
  0
VERTEX
  8
LAYER_1
 62
7
 10
24.922454
 20
14.045221
 42
0.014383
  0
VERTEX
  8
LAYER_1
 62
7
 10
24.910865
 20
13.434519
 42
-0.006568
  0
VERTEX
  8
LAYER_1
 62
7
 10
24.908816
 20
12.823588
 42
-0.018357
  0
VERTEX
  8
LAYER_1
 62
7
 10
24.884314
 20
12.417194
 42
-0.045788
  0
VERTEX
  8
LAYER_1
 62
7
 10
24.615701
 20
9.829133
 42
-0.017252
  0
VERTEX
  8
LAYER_1
 62
7
 10
24.571930
 20
9.617505
 42
-0.059715
  0
VERTEX
  8
LAYER_1
 62
7
 10
24.040218
 20
8.408260
 42
-0.059715
  0
VERTEX
  8
LAYER_1
 62
7
 10
23.228215
 20
7.366317
  0
VERTEX
  8
LAYER_1
 62
7
 10
23.213789
 20
7.352768
  0
VERTEX
  8
LAYER_1
 62
7
 10
23.134362
 20
7.403426
 42
-0.093247
  0
VERTEX
  8
LAYER_1
 62
7
 10
22.643019
 20
7.880349
 42
-0.091235
  0
VERTEX
  8
LAYER_1
 62
7
 10
22.356254
 20
8.527348
 42
-0.062270
  0
VERTEX
  8
LAYER_1
 62
7
 10
22.273869
 20
9.264453
 42
-0.029568
  0
VERTEX
  8
LAYER_1
 62
7
 10
22.357604
 20
10.121478
 42
-0.032917
  0
VERTEX
  8
LAYER_1
 62
7
 10
22.540630
 20
10.927441
 42
-0.032917
  0
VERTEX
  8
LAYER_1
 62
7
 10
22.828824
 20
11.702050
 42
-0.029568
  0
VERTEX
  8
LAYER_1
 62
7
 10
23.228061
 20
12.465013
  0
VERTEX
  8
LAYER_1
 62
7
 10
23.236850
 20
12.482046
 42
-0.039875
  0
VERTEX
  8
LAYER_1
 62
7
 10
23.505201
 20
11.620553
 42
-0.043774
  0
VERTEX
  8
LAYER_1
 62
7
 10
23.620564
 20
10.762114
 42
-0.043774
  0
VERTEX
  8
LAYER_1
 62
7
 10
23.583392
 20
9.896756
 42
-0.039875
  0
VERTEX
  8
LAYER_1
 62
7
 10
23.394137
 20
9.014506
 42
0.079568
  0
VERTEX
  8
LAYER_1
 62
7
 10
23.349458
 20
8.765032
 42
0.070699
  0
VERTEX
  8
LAYER_1
 62
7
 10
23.484102
 20
8.941902
 42
0.045220
  0
VERTEX
  8
LAYER_1
 62
7
 10
23.574240
 20
9.145126
 42
0.033794
  0
VERTEX
  8
LAYER_1
 62
7
 10
23.812965
 20
10.115180
 42
0.037422
  0
VERTEX
  8
LAYER_1
 62
7
 10
23.906645
 20
11.069461
 42
0.037422
  0
VERTEX
  8
LAYER_1
 62
7
 10
23.855705
 20
12.026975
 42
0.033794
  0
VERTEX
  8
LAYER_1
 62
7
 10
23.660570
 20
13.006727
 42
0.055566
  0
VERTEX
  8
LAYER_1
 62
7
 10
23.842415
 20
13.176654
 42
-0.010853
  0
VERTEX
  8
LAYER_1
 62
7
 10
24.008732
 20
13.362518
  0
SEQEND
  0
POLYLINE
  8
LAYER_1
 62
2
 70
1
 66
1
  0
VERTEX
  8
LAYER_1
 62
7
 10
19.833721
 20
13.195045
 42
-0.063286
  0
VERTEX
  8
LAYER_1
 62
7
 10
20.387365
 20
13.479365
 42
-0.066528
  0
VERTEX
  8
LAYER_1
 62
7
 10
20.971753
 20
13.606288
 42
-0.066528
  0
VERTEX
  8
LAYER_1
 62
7
 10
21.568912
 20
13.574369
 42
-0.063286
  0
VERTEX
  8
LAYER_1
 62
7
 10
22.160873
 20
13.382164
 42
-0.051006
  0
VERTEX
  8
LAYER_1
 62
7
 10
22.605340
 20
13.141576
 42
-0.062605
  0
VERTEX
  8
LAYER_1
 62
7
 10
22.966271
 20
12.824396
  0
VERTEX
  8
LAYER_1
 62
7
 10
22.996046
 20
12.789962
  0
VERTEX
  8
LAYER_1
 62
7
 10
22.964258
 20
12.738690
 42
0.009354
  0
VERTEX
  8
LAYER_1
 62
7
 10
22.753213
 20
12.381149
 42
0.037649
  0
VERTEX
  8
LAYER_1
 62
7
 10
22.153353
 20
11.099715
 42
0.041827
  0
VERTEX
  8
LAYER_1
 62
7
 10
21.744563
 20
9.684558
 42
0.053004
  0
VERTEX
  8
LAYER_1
 62
7
 10
21.607415
 20
8.228889
 42
0.070989
  0
VERTEX
  8
LAYER_1
 62
7
 10
21.822482
 20
6.825917
 42
0.013732
  0
VERTEX
  8
LAYER_1
 62
7
 10
21.911259
 20
6.565750
  0
VERTEX
  8
LAYER_1
 62
7
 10
21.928534
 20
6.519312
  0
VERTEX
  8
LAYER_1
 62
7
 10
21.844088
 20
6.482998
 42
-0.237620
  0
VERTEX
  8
LAYER_1
 62
7
 10
18.465382
 20
6.691973
  0
VERTEX
  8
LAYER_1
 62
7
 10
18.412186
 20
6.723793
  0
VERTEX
  8
LAYER_1
 62
7
 10
18.327743
 20
6.775347
  0
VERTEX
  8
LAYER_1
 62
7
 10
18.518160
 20
6.969216
  0
VERTEX
  8
LAYER_1
 62
7
 10
18.583943
 20
7.038510
 42
0.036413
  0
VERTEX
  8
LAYER_1
 62
7
 10
18.912272
 20
7.461269
 42
0.023323
  0
VERTEX
  8
LAYER_1
 62
7
 10
19.235492
 20
7.995120
 42
0.031175
  0
VERTEX
  8
LAYER_1
 62
7
 10
19.824072
 20
9.268070
 42
0.028446
  0
VERTEX
  8
LAYER_1
 62
7
 10
20.264619
 20
10.601309
 42
0.019088
  0
VERTEX
  8
LAYER_1
 62
7
 10
20.402797
 20
11.210520
 42
0.028688
  0
VERTEX
  8
LAYER_1
 62
7
 10
20.472068
 20
11.738785
 42
0.036430
  0
VERTEX
  8
LAYER_1
 62
7
 10
20.471316
 20
12.172243
 42
0.055047
  0
VERTEX
  8
LAYER_1
 62
7
 10
20.401102
 20
12.554410
 42
0.081681
  0
VERTEX
  8
LAYER_1
 62
7
 10
20.248606
 20
12.867654
 42
0.103441
  0
VERTEX
  8
LAYER_1
 62
7
 10
20.001009
 20
13.094342
  0
VERTEX
  8
LAYER_1
 62
7
 10
19.973747
 20
13.110640
  0
VERTEX
  8
LAYER_1
 62
7
 10
19.833721
 20
13.195045
  0
SEQEND
  0
POLYLINE
  8
LAYER_1
 62
2
 70
1
 66
1
  0
VERTEX
  8
LAYER_1
 62
7
 10
18.184233
 20
11.152041
  0
VERTEX
  8
LAYER_1
 62
7
 10
18.651038
 20
11.029789
 42
-0.021265
  0
VERTEX
  8
LAYER_1
 62
7
 10
19.112121
 20
10.888331
 42
-0.111402
  0
VERTEX
  8
LAYER_1
 62
7
 10
19.467435
 20
10.669708
 42
-0.158178
  0
VERTEX
  8
LAYER_1
 62
7
 10
19.662969
 20
10.306426
 42
-0.079720
  0
VERTEX
  8
LAYER_1
 62
7
 10
19.669712
 20
9.846977
 42
-0.088802
  0
VERTEX
  8
LAYER_1
 62
7
 10
19.525666
 20
9.411230
 42
-0.072295
  0
VERTEX
  8
LAYER_1
 62
7
 10
19.047419
 20
8.667571
 42
-0.038063
  0
VERTEX
  8
LAYER_1
 62
7
 10
18.416341
 20
8.043644
 42
-0.036479
  0
VERTEX
  8
LAYER_1
 62
7
 10
18.105638
 20
7.792057
 42
-0.069318
  0
VERTEX
  8
LAYER_1
 62
7
 10
17.749984
 20
7.611574
 42
-0.090015
  0
VERTEX
  8
LAYER_1
 62
7
 10
17.662875
 20
9.417768
 42
-0.081856
  0
VERTEX
  8
LAYER_1
 62
7
 10
18.184233
 20
11.152041
  0
SEQEND
  0
POLYLINE
  8
LAYER_1
 62
2
 70
1
 66
1
  0
VERTEX
  8
LAYER_1
 62
7
 10
11.448865
 20
33.014541
  0
VERTEX
  8
LAYER_1
 62
7
 10
11.856409
 20
33.211755
 42
-0.019476
  0
VERTEX
  8
LAYER_1
 62
7
 10
12.834527
 20
33.632664
 42
-0.003281
  0
VERTEX
  8
LAYER_1
 62
7
 10
13.831776
 20
34.009029
 42
0.037296
  0
VERTEX
  8
LAYER_1
 62
7
 10
15.503040
 20
34.737741
  0
VERTEX
  8
LAYER_1
 62
7
 10
15.505181
 20
34.738267
  0
VERTEX
  8
LAYER_1
 62
7
 10
15.329466
 20
34.467985
 42
-0.024321
  0
VERTEX
  8
LAYER_1
 62
7
 10
15.137404
 20
34.205671
 42
-0.046940
  0
VERTEX
  8
LAYER_1
 62
7
 10
14.913060
 20
33.976049
 42
-0.069016
  0
VERTEX
  8
LAYER_1
 62
7
 10
14.640497
 20
33.803840
  0
VERTEX
  8
LAYER_1
 62
7
 10
14.528862
 20
33.758163
 42
0.038649
  0
VERTEX
  8
LAYER_1
 62
7
 10
11.067883
 20
32.253185
  0
VERTEX
  8
LAYER_1
 62
7
 10
11.448865
 20
33.014541
  0
SEQEND
  0
POLYLINE
  8
LAYER_1
 62
2
 70
1
 66
1
  0
VERTEX
  8
LAYER_1
 62
7
 10
9.614210
 20
31.670733
 42
-0.006105
  0
VERTEX
  8
LAYER_1
 62
7
 10
9.757711
 20
31.823838
 42
-0.099748
  0
VERTEX
  8
LAYER_1
 62
7
 10
9.928591
 20
31.942616
 42
-0.142146
  0
VERTEX
  8
LAYER_1
 62
7
 10
9.853401
 20
31.763359
 42
0.007570
  0
VERTEX
  8
LAYER_1
 62
7
 10
9.538952
 20
31.350359
 42
0.061110
  0
VERTEX
  8
LAYER_1
 62
7
 10
9.284572
 20
30.899764
 42
0.101535
  0
VERTEX
  8
LAYER_1
 62
7
 10
9.284300
 20
30.655192
 42
0.093302
  0
VERTEX
  8
LAYER_1
 62
7
 10
9.331311
 20
30.544476
 42
0.124982
  0
VERTEX
  8
LAYER_1
 62
7
 10
9.422966
 20
30.463335
 42
0.134662
  0
VERTEX
  8
LAYER_1
 62
7
 10
9.733227
 20
30.369590
 42
0.088122
  0
VERTEX
  8
LAYER_1
 62
7
 10
10.058797
 20
30.418330
 42
0.049638
  0
VERTEX
  8
LAYER_1
 62
7
 10
10.198487
 20
30.475807
 42
0.157185
  0
VERTEX
  8
LAYER_1
 62
7
 10
10.271465
 20
30.545660
 42
0.223680
  0
VERTEX
  8
LAYER_1
 62
7
 10
10.266032
 20
30.638374
 42
0.085707
  0
VERTEX
  8
LAYER_1
 62
7
 10
10.170492
 20
30.764433
 42
0.035959
  0
VERTEX
  8
LAYER_1
 62
7
 10
10.039286
 20
30.877080
  0
VERTEX
  8
LAYER_1
 62
7
 10
9.898624
 20
30.978223
 42
-0.061020
  0
VERTEX
  8
LAYER_1
 62
7
 10
9.903315
 20
31.143757
 42
-0.037666
  0
VERTEX
  8
LAYER_1
 62
7
 10
9.941055
 20
31.308269
 42
-0.014055
  0
VERTEX
  8
LAYER_1
 62
7
 10
10.056632
 20
31.627690
 42
-0.054424
  0
VERTEX
  8
LAYER_1
 62
7
 10
10.292622
 20
31.478127
 42
-0.120416
  0
VERTEX
  8
LAYER_1
 62
7
 10
10.462004
 20
31.259913
 42
-0.071649
  0
VERTEX
  8
LAYER_1
 62
7
 10
10.492023
 20
30.953511
 42
-0.033449
  0
VERTEX
  8
LAYER_1
 62
7
 10
10.457204
 20
30.646175
 42
-0.097121
  0
VERTEX
  8
LAYER_1
 62
7
 10
10.289394
 20
30.215232
 42
-0.056247
  0
VERTEX
  8
LAYER_1
 62
7
 10
10.142326
 20
30.030271
 42
-0.073967
  0
VERTEX
  8
LAYER_1
 62
7
 10
9.960671
 20
29.894505
 42
-0.095172
  0
VERTEX
  8
LAYER_1
 62
7
 10
9.630748
 20
29.792648
 42
-0.118304
  0
VERTEX
  8
LAYER_1
 62
7
 10
9.293346
 20
29.834112
 42
-0.219389
  0
VERTEX
  8
LAYER_1
 62
7
 10
9.089449
 20
30.044198
 42
-0.063997
  0
VERTEX
  8
LAYER_1
 62
7
 10
9.052318
 20
30.200256
 42
-0.041433
  0
VERTEX
  8
LAYER_1
 62
7
 10
9.047699
 20
30.373995
 42
-0.078806
  0
VERTEX
  8
LAYER_1
 62
7
 10
9.193855
 20
31.000831
 42
-0.078401
  0
VERTEX
  8
LAYER_1
 62
7
 10
9.614210
 20
31.670733
  0
SEQEND
  0
POLYLINE
  8
LAYER_1
 62
2
 70
1
 66
1
  0
VERTEX
  8
LAYER_1
 62
7
 10
23.969503
 20
30.889956
 42
-0.133383
  0
VERTEX
  8
LAYER_1
 62
7
 10
24.237571
 20
30.980402
 42
0.013905
  0
VERTEX
  8
LAYER_1
 62
7
 10
24.014011
 20
30.691195
 42
-0.012303
  0
VERTEX
  8
LAYER_1
 62
7
 10
23.789837
 20
30.399382
 42
-0.039348
  0
VERTEX
  8
LAYER_1
 62
7
 10
23.539714
 20
30.135051
 42
-0.065702
  0
VERTEX
  8
LAYER_1
 62
7
 10
23.238307
 20
29.928287
 42
-0.023625
  0
VERTEX
  8
LAYER_1
 62
7
 10
22.659808
 20
29.599535
 42
-0.011522
  0
VERTEX
  8
LAYER_1
 62
7
 10
22.059241
 20
29.312056
 42
0.021499
  0
VERTEX
  8
LAYER_1
 62
7
 10
21.368706
 20
28.994202
 42
0.001954
  0
VERTEX
  8
LAYER_1
 62
7
 10
20.693290
 20
28.644064
 42
0.021674
  0
VERTEX
  8
LAYER_1
 62
7
 10
20.339066
 20
28.410526
 42
0.011620
  0
VERTEX
  8
LAYER_1
 62
7
 10
20.000779
 20
28.153695
 42
0.035956
  0
VERTEX
  8
LAYER_1
 62
7
 10
19.942071
 20
28.103696
  0
VERTEX
  8
LAYER_1
 62
7
 10
19.912934
 20
28.076624
  0
VERTEX
  8
LAYER_1
 62
7
 10
19.882955
 20
28.051603
 42
-0.101466
  0
VERTEX
  8
LAYER_1
 62
7
 10
19.817504
 20
28.018000
 42
-0.155151
  0
VERTEX
  8
LAYER_1
 62
7
 10
19.739794
 20
28.023474
 42
-0.010767
  0
VERTEX
  8
LAYER_1
 62
7
 10
19.926747
 20
28.429528
 42
-0.066735
  0
VERTEX
  8
LAYER_1
 62
7
 10
20.172954
 20
28.800438
 42
-0.060779
  0
VERTEX
  8
LAYER_1
 62
7
 10
20.444564
 20
29.051275
 42
-0.024758
  0
VERTEX
  8
LAYER_1
 62
7
 10
20.755404
 20
29.252667
 42
-0.016563
  0
VERTEX
  8
LAYER_1
 62
7
 10
21.533388
 20
29.654838
 42
0.006443
  0
VERTEX
  8
LAYER_1
 62
7
 10
22.319137
 20
30.041072
 42
-0.010595
  0
VERTEX
  8
LAYER_1
 62
7
 10
22.731626
 20
30.253779
  0
VERTEX
  8
LAYER_1
 62
7
 10
23.149224
 20
30.456320
 42
0.007275
  0
VERTEX
  8
LAYER_1
 62
7
 10
23.564369
 20
30.663458
 42
0.016197
  0
VERTEX
  8
LAYER_1
 62
7
 10
23.969503
 20
30.889956
  0
SEQEND
  0
POLYLINE
  8
LAYER_1
 62
2
 70
1
 66
1
  0
VERTEX
  8
LAYER_1
 62
7
 10
26.800569
 20
29.917390
 42
0.010887
  0
VERTEX
  8
LAYER_1
 62
7
 10
26.933114
 20
30.198901
  0
VERTEX
  8
LAYER_1
 62
7
 10
26.998048
 20
30.341110
  0
VERTEX
  8
LAYER_1
 62
7
 10
27.065709
 20
30.481792
 42
-0.031229
  0
VERTEX
  8
LAYER_1
 62
7
 10
27.220065
 20
30.751095
 42
-0.052032
  0
VERTEX
  8
LAYER_1
 62
7
 10
27.417890
 20
30.991844
 42
-0.128948
  0
VERTEX
  8
LAYER_1
 62
7
 10
27.412416
 20
30.845721
 42
-0.070445
  0
VERTEX
  8
LAYER_1
 62
7
 10
27.349170
 20
30.713696
  0
VERTEX
  8
LAYER_1
 62
7
 10
27.262121
 20
30.588209
 42
0.043403
  0
VERTEX
  8
LAYER_1
 62
7
 10
27.185237
 20
30.461700
  0
VERTEX
  8
LAYER_1
 62
7
 10
27.094808
 20
30.267570
 42
0.030762
  0
VERTEX
  8
LAYER_1
 62
7
 10
27.015923
 20
30.065114
 42
0.064355
  0
VERTEX
  8
LAYER_1
 62
7
 10
26.977289
 20
29.856630
 42
0.095784
  0
VERTEX
  8
LAYER_1
 62
7
 10
27.007614
 20
29.644418
 42
0.101433
  0
VERTEX
  8
LAYER_1
 62
7
 10
27.131909
 20
29.522370
 42
0.233424
  0
VERTEX
  8
LAYER_1
 62
7
 10
27.299111
 20
29.503300
 42
0.052753
  0
VERTEX
  8
LAYER_1
 62
7
 10
27.380976
 20
29.595790
  0
VERTEX
  8
LAYER_1
 62
7
 10
27.452216
 20
29.697269
  0
VERTEX
  8
LAYER_1
 62
7
 10
27.547020
 20
29.728326
 42
-0.096252
  0
VERTEX
  8
LAYER_1
 62
7
 10
27.405154
 20
29.266425
 42
-0.065164
  0
VERTEX
  8
LAYER_1
 62
7
 10
27.263755
 20
29.070618
 42
-0.081510
  0
VERTEX
  8
LAYER_1
 62
7
 10
27.072452
 20
28.924664
 42
-0.248776
  0
VERTEX
  8
LAYER_1
 62
7
 10
26.838505
 20
28.916900
 42
-0.238402
  0
VERTEX
  8
LAYER_1
 62
7
 10
26.688329
 20
29.097928
 42
-0.089958
  0
VERTEX
  8
LAYER_1
 62
7
 10
26.677228
 20
29.516241
 42
-0.073654
  0
VERTEX
  8
LAYER_1
 62
7
 10
26.800569
 20
29.917390
  0
SEQEND
  0
POLYLINE
  8
LAYER_1
 62
2
 70
1
 66
1
  0
VERTEX
  8
LAYER_1
 62
7
 10
30.449127
 20
30.124304
  0
VERTEX
  8
LAYER_1
 62
7
 10
30.461129
 20
30.436484
  0
VERTEX
  8
LAYER_1
 62
7
 10
30.601656
 20
30.325310
 42
-0.032491
  0
VERTEX
  8
LAYER_1
 62
7
 10
30.999568
 20
29.969076
 42
-0.041240
  0
VERTEX
  8
LAYER_1
 62
7
 10
31.302818
 20
29.604195
 42
-0.103629
  0
VERTEX
  8
LAYER_1
 62
7
 10
31.638656
 20
28.833967
 42
-0.051064
  0
VERTEX
  8
LAYER_1
 62
7
 10
31.677906
 20
28.421359
 42
-0.043928
  0
VERTEX
  8
LAYER_1
 62
7
 10
31.635819
 20
27.985579
 42
-0.034912
  0
VERTEX
  8
LAYER_1
 62
7
 10
31.515724
 20
27.522997
 42
-0.026455
  0
VERTEX
  8
LAYER_1
 62
7
 10
31.320954
 20
27.029981
 42
-0.007687
  0
VERTEX
  8
LAYER_1
 62
7
 10
31.238957
 20
26.855850
 42
-0.030651
  0
VERTEX
  8
LAYER_1
 62
7
 10
31.286301
 20
27.158078
 42
0.050704
  0
VERTEX
  8
LAYER_1
 62
7
 10
31.351595
 20
27.768191
 42
0.062575
  0
VERTEX
  8
LAYER_1
 62
7
 10
31.282078
 20
28.339568
 42
0.067549
  0
VERTEX
  8
LAYER_1
 62
7
 10
31.066592
 20
28.871931
 42
0.062172
  0
VERTEX
  8
LAYER_1
 62
7
 10
30.693977
 20
29.364999
 42
0.048924
  0
VERTEX
  8
LAYER_1
 62
7
 10
30.420585
 20
29.601919
 42
-0.020442
  0
VERTEX
  8
LAYER_1
 62
7
 10
30.431847
 20
29.863158
  0
VERTEX
  8
LAYER_1
 62
7
 10
30.441653
 20
29.993649
  0
VERTEX
  8
LAYER_1
 62
7
 10
30.449127
 20
30.124304
  0
SEQEND
  0
POLYLINE
  8
LAYER_1
 62
2
 70
1
 66
1
  0
VERTEX
  8
LAYER_1
 62
7
 10
24.201066
 20
30.231771
 42
-0.101604
  0
VERTEX
  8
LAYER_1
 62
7
 10
24.270808
 20
30.296882
  0
VERTEX
  8
LAYER_1
 62
7
 10
24.353626
 20
30.345646
 42
-0.121233
  0
VERTEX
  8
LAYER_1
 62
7
 10
24.224495
 20
30.093378
  0
VERTEX
  8
LAYER_1
 62
7
 10
24.155207
 20
29.997368
 42
0.023271
  0
VERTEX
  8
LAYER_1
 62
7
 10
24.001009
 20
29.752612
 42
0.039857
  0
VERTEX
  8
LAYER_1
 62
7
 10
23.825681
 20
29.384638
 42
0.037595
  0
VERTEX
  8
LAYER_1
 62
7
 10
23.768571
 20
29.190136
 42
0.063797
  0
VERTEX
  8
LAYER_1
 62
7
 10
23.752355
 20
29.007660
 42
0.109051
  0
VERTEX
  8
LAYER_1
 62
7
 10
23.792423
 20
28.851488
 42
0.140454
  0
VERTEX
  8
LAYER_1
 62
7
 10
23.904168
 20
28.735895
 42
0.172252
  0
VERTEX
  8
LAYER_1
 62
7
 10
24.020574
 20
28.712706
 42
0.129662
  0
VERTEX
  8
LAYER_1
 62
7
 10
24.170053
 20
28.781567
 42
-0.088670
  0
VERTEX
  8
LAYER_1
 62
7
 10
24.337825
 20
28.928478
 42
-0.070912
  0
VERTEX
  8
LAYER_1
 62
7
 10
24.252549
 20
28.619575
 42
-0.041280
  0
VERTEX
  8
LAYER_1
 62
7
 10
24.145591
 20
28.423286
 42
-0.065125
  0
VERTEX
  8
LAYER_1
 62
7
 10
23.981561
 20
28.226916
 42
-0.063116
  0
VERTEX
  8
LAYER_1
 62
7
 10
23.885617
 20
28.159970
 42
-0.102184
  0
VERTEX
  8
LAYER_1
 62
7
 10
23.784372
 20
28.130527
 42
-0.130400
  0
VERTEX
  8
LAYER_1
 62
7
 10
23.680816
 20
28.151095
 42
-0.104364
  0
VERTEX
  8
LAYER_1
 62
7
 10
23.577939
 20
28.234182
 42
-0.118117
  0
VERTEX
  8
LAYER_1
 62
7
 10
23.497063
 20
28.400257
 42
-0.098873
  0
VERTEX
  8
LAYER_1
 62
7
 10
23.491390
 20
28.784225
 42
-0.051561
  0
VERTEX
  8
LAYER_1
 62
7
 10
23.608481
 20
29.201371
 42
-0.052502
  0
VERTEX
  8
LAYER_1
 62
7
 10
23.986640
 20
29.925209
 42
-0.010437
  0
VERTEX
  8
LAYER_1
 62
7
 10
24.201066
 20
30.231771
  0
SEQEND
  0
POLYLINE
  8
LAYER_1
 62
2
 70
1
 66
1
  0
VERTEX
  8
LAYER_1
 62
7
 10
26.197136
 20
27.513093
  0
VERTEX
  8
LAYER_1
 62
7
 10
26.277287
 20
27.649032
  0
VERTEX
  8
LAYER_1
 62
7
 10
28.358750
 20
28.903539
  0
VERTEX
  8
LAYER_1
 62
7
 10
28.803377
 20
29.171517
  0
VERTEX
  8
LAYER_1
 62
7
 10
28.597383
 20
28.854397
 42
-0.023617
  0
VERTEX
  8
LAYER_1
 62
7
 10
28.407310
 20
28.579220
 42
-0.083523
  0
VERTEX
  8
LAYER_1
 62
7
 10
28.168270
 20
28.355005
 42
0.030799
  0
VERTEX
  8
LAYER_1
 62
7
 10
25.897998
 20
27.005742
  0
VERTEX
  8
LAYER_1
 62
7
 10
26.197136
 20
27.513093
  0
SEQEND
  0
POLYLINE
  8
LAYER_1
 62
2
 70
1
 66
1
  0
VERTEX
  8
LAYER_1
 62
7
 10
17.190962
 20
28.793354
 42
-0.072303
  0
VERTEX
  8
LAYER_1
 62
7
 10
17.271260
 20
28.862755
  0
VERTEX
  8
LAYER_1
 62
7
 10
17.362592
 20
28.918671
  0
VERTEX
  8
LAYER_1
 62
7
 10
17.197296
 20
28.592238
 42
0.017065
  0
VERTEX
  8
LAYER_1
 62
7
 10
17.044510
 20
28.260240
 42
0.050042
  0
VERTEX
  8
LAYER_1
 62
7
 10
16.950538
 20
27.952294
 42
0.057027
  0
VERTEX
  8
LAYER_1
 62
7
 10
16.935747
 20
27.770277
 42
0.112312
  0
VERTEX
  8
LAYER_1
 62
7
 10
16.975780
 20
27.609856
 42
0.064507
  0
VERTEX
  8
LAYER_1
 62
7
 10
17.043691
 20
27.512525
 42
0.102767
  0
VERTEX
  8
LAYER_1
 62
7
 10
17.111464
 20
27.462841
 42
0.240632
  0
VERTEX
  8
LAYER_1
 62
7
 10
17.238936
 20
27.472205
 42
0.106380
  0
VERTEX
  8
LAYER_1
 62
7
 10
17.342878
 20
27.569532
 42
0.062872
  0
VERTEX
  8
LAYER_1
 62
7
 10
17.407971
 20
27.686403
  0
VERTEX
  8
LAYER_1
 62
7
 10
17.431244
 20
27.749412
  0
VERTEX
  8
LAYER_1
 62
7
 10
17.568547
 20
27.748323
 42
-0.069159
  0
VERTEX
  8
LAYER_1
 62
7
 10
17.502569
 20
27.438247
 42
-0.031643
  0
VERTEX
  8
LAYER_1
 62
7
 10
17.375476
 20
27.147661
 42
-0.136901
  0
VERTEX
  8
LAYER_1
 62
7
 10
17.158114
 20
26.912322
 42
-0.099142
  0
VERTEX
  8
LAYER_1
 62
7
 10
17.021180
 20
26.860502
 42
-0.158396
  0
VERTEX
  8
LAYER_1
 62
7
 10
16.891358
 20
26.879979
 42
-0.153127
  0
VERTEX
  8
LAYER_1
 62
7
 10
16.751160
 20
27.019136
 42
-0.098849
  0
VERTEX
  8
LAYER_1
 62
7
 10
16.692104
 20
27.228091
 42
-0.053845
  0
VERTEX
  8
LAYER_1
 62
7
 10
16.697194
 20
27.483463
 42
-0.031690
  0
VERTEX
  8
LAYER_1
 62
7
 10
16.749434
 20
27.761869
 42
-0.035671
  0
VERTEX
  8
LAYER_1
 62
7
 10
16.927382
 20
28.294256
 42
-0.030808
  0
VERTEX
  8
LAYER_1
 62
7
 10
17.089979
 20
28.638197
 42
-0.024427
  0
VERTEX
  8
LAYER_1
 62
7
 10
17.190962
 20
28.793354
  0
SEQEND
  0
POLYLINE
  8
LAYER_1
 62
2
 70
1
 66
1
  0
VERTEX
  8
LAYER_1
 62
7
 10
28.640544
 20
27.546726
  0
VERTEX
  8
LAYER_1
 62
7
 10
28.780572
 20
27.519484
  0
VERTEX
  8
LAYER_1
 62
7
 10
28.766751
 20
27.334393
  0
VERTEX
  8
LAYER_1
 62
7
 10
28.750330
 20
27.146946
 42
-0.030378
  0
VERTEX
  8
LAYER_1
 62
7
 10
28.692564
 20
26.774990
 42
-0.101823
  0
VERTEX
  8
LAYER_1
 62
7
 10
28.375851
 20
26.128402
 42
-0.045185
  0
VERTEX
  8
LAYER_1
 62
7
 10
28.241378
 20
25.986131
 42
-0.065749
  0
VERTEX
  8
LAYER_1
 62
7
 10
28.088708
 20
25.882893
 42
-0.201750
  0
VERTEX
  8
LAYER_1
 62
7
 10
27.736617
 20
25.856081
 42
-0.082404
  0
VERTEX
  8
LAYER_1
 62
7
 10
27.641896
 20
25.909443
  0
VERTEX
  8
LAYER_1
 62
7
 10
27.555193
 20
25.976454
  0
VERTEX
  8
LAYER_1
 62
7
 10
27.438927
 20
25.810458
 42
-0.021090
  0
VERTEX
  8
LAYER_1
 62
7
 10
27.315348
 20
25.649272
 42
-0.050974
  0
VERTEX
  8
LAYER_1
 62
7
 10
27.178143
 20
25.520928
 42
-0.038909
  0
VERTEX
  8
LAYER_1
 62
7
 10
26.997758
 20
25.402943
 42
-0.042046
  0
VERTEX
  8
LAYER_1
 62
7
 10
26.795802
 20
25.312387
 42
-0.059553
  0
VERTEX
  8
LAYER_1
 62
7
 10
26.593885
 20
25.266334
 42
-0.100491
  0
VERTEX
  8
LAYER_1
 62
7
 10
26.413616
 20
25.281854
 42
-0.154095
  0
VERTEX
  8
LAYER_1
 62
7
 10
26.276603
 20
25.376020
 42
-0.133623
  0
VERTEX
  8
LAYER_1
 62
7
 10
26.204455
 20
25.565904
 42
-0.076254
  0
VERTEX
  8
LAYER_1
 62
7
 10
26.218782
 20
25.868578
 42
-0.055218
  0
VERTEX
  8
LAYER_1
 62
7
 10
26.336372
 20
26.263088
 42
-0.045522
  0
VERTEX
  8
LAYER_1
 62
7
 10
26.530321
 20
26.626466
 42
-0.163068
  0
VERTEX
  8
LAYER_1
 62
7
 10
26.618451
 20
26.708399
 42
-0.032955
  0
VERTEX
  8
LAYER_1
 62
7
 10
26.675286
 20
26.731666
  0
VERTEX
  8
LAYER_1
 62
7
 10
26.733552
 20
26.750693
  0
VERTEX
  8
LAYER_1
 62
7
 10
26.724481
 20
26.684768
  0
VERTEX
  8
LAYER_1
 62
7
 10
26.706855
 20
26.532018
 42
0.040513
  0
VERTEX
  8
LAYER_1
 62
7
 10
26.704112
 20
26.359283
 42
0.099860
  0
VERTEX
  8
LAYER_1
 62
7
 10
26.742494
 20
26.207100
 42
0.204538
  0
VERTEX
  8
LAYER_1
 62
7
 10
26.848245
 20
26.116005
 42
0.132961
  0
VERTEX
  8
LAYER_1
 62
7
 10
27.122680
 20
26.108338
 42
0.105689
  0
VERTEX
  8
LAYER_1
 62
7
 10
27.375936
 20
26.226543
 42
0.062042
  0
VERTEX
  8
LAYER_1
 62
7
 10
27.564592
 20
26.467505
 42
-0.016207
  0
VERTEX
  8
LAYER_1
 62
7
 10
27.731181
 20
26.725630
 42
-0.174614
  0
VERTEX
  8
LAYER_1
 62
7
 10
27.788715
 20
26.731121
 42
-0.124797
  0
VERTEX
  8
LAYER_1
 62
7
 10
27.833478
 20
26.703359
 42
-0.035974
  0
VERTEX
  8
LAYER_1
 62
7
 10
27.871090
 20
26.659353
  0
VERTEX
  8
LAYER_1
 62
7
 10
27.907169
 20
26.616114
 42
0.302677
  0
VERTEX
  8
LAYER_1
 62
7
 10
28.309272
 20
26.716912
 42
0.085019
  0
VERTEX
  8
LAYER_1
 62
7
 10
28.442251
 20
26.898749
 42
0.047816
  0
VERTEX
  8
LAYER_1
 62
7
 10
28.521902
 20
27.108731
  0
VERTEX
  8
LAYER_1
 62
7
 10
28.551052
 20
27.219089
  0
VERTEX
  8
LAYER_1
 62
7
 10
28.578056
 20
27.330257
 42
-0.026765
  0
VERTEX
  8
LAYER_1
 62
7
 10
28.640544
 20
27.546726
  0
SEQEND
  0
POLYLINE
  8
LAYER_1
 62
2
 70
1
 66
1
  0
VERTEX
  8
LAYER_1
 62
7
 10
30.484145
 20
25.843688
 42
-0.004607
  0
VERTEX
  8
LAYER_1
 62
7
 10
32.819632
 20
27.540470
 42
-0.087165
  0
VERTEX
  8
LAYER_1
 62
7
 10
32.620585
 20
27.061148
 42
-0.071822
  0
VERTEX
  8
LAYER_1
 62
7
 10
32.281504
 20
26.666887
 42
0.021812
  0
VERTEX
  8
LAYER_1
 62
7
 10
30.065424
 20
25.054158
 42
-0.032295
  0
VERTEX
  8
LAYER_1
 62
7
 10
30.223649
 20
25.480791
 42
-0.042214
  0
VERTEX
  8
LAYER_1
 62
7
 10
30.335302
 20
25.675842
 42
-0.060139
  0
VERTEX
  8
LAYER_1
 62
7
 10
30.484145
 20
25.843688
  0
SEQEND
  0
POLYLINE
  8
LAYER_1
 62
2
 70
1
 66
1
  0
VERTEX
  8
LAYER_1
 62
7
 10
12.075319
 20
26.106675
 42
0.067041
  0
VERTEX
  8
LAYER_1
 62
7
 10
12.093700
 20
26.186096
  0
VERTEX
  8
LAYER_1
 62
7
 10
12.099541
 20
26.229985
  0
VERTEX
  8
LAYER_1
 62
7
 10
12.107534
 20
26.272106
 42
-0.158775
  0
VERTEX
  8
LAYER_1
 62
7
 10
12.143128
 20
26.337378
 42
-0.120819
  0
VERTEX
  8
LAYER_1
 62
7
 10
12.177306
 20
26.353697
 42
-0.088726
  0
VERTEX
  8
LAYER_1
 62
7
 10
12.226789
 20
26.354584
 42
0.022601
  0
VERTEX
  8
LAYER_1
 62
7
 10
12.215116
 20
26.200809
 42
-0.024885
  0
VERTEX
  8
LAYER_1
 62
7
 10
12.193160
 20
25.993534
 42
-0.047830
  0
VERTEX
  8
LAYER_1
 62
7
 10
12.112365
 20
25.663690
 42
-0.046346
  0
VERTEX
  8
LAYER_1
 62
7
 10
12.039009
 20
25.505197
 42
-0.077437
  0
VERTEX
  8
LAYER_1
 62
7
 10
11.937871
 20
25.378934
 42
-0.259517
  0
VERTEX
  8
LAYER_1
 62
7
 10
11.634820
 20
25.306927
 42
-0.095780
  0
VERTEX
  8
LAYER_1
 62
7
 10
11.436205
 20
25.406536
 42
-0.110011
  0
VERTEX
  8
LAYER_1
 62
7
 10
11.211903
 20
25.050797
 42
-0.071899
  0
VERTEX
  8
LAYER_1
 62
7
 10
11.043683
 20
24.922831
 42
-0.102195
  0
VERTEX
  8
LAYER_1
 62
7
 10
10.852305
 20
24.862408
 42
-0.147533
  0
VERTEX
  8
LAYER_1
 62
7
 10
10.663446
 20
24.894208
 42
-0.148330
  0
VERTEX
  8
LAYER_1
 62
7
 10
10.549329
 20
25.010302
 42
-0.089815
  0
VERTEX
  8
LAYER_1
 62
7
 10
10.496788
 20
25.178986
 42
-0.055277
  0
VERTEX
  8
LAYER_1
 62
7
 10
10.492654
 20
25.368557
 42
-0.063421
  0
VERTEX
  8
LAYER_1
 62
7
 10
10.559020
 20
25.663756
 42
-0.038519
  0
VERTEX
  8
LAYER_1
 62
7
 10
10.681581
 20
25.937770
 42
-0.029186
  0
VERTEX
  8
LAYER_1
 62
7
 10
10.719448
 20
25.804927
 42
0.030535
  0
VERTEX
  8
LAYER_1
 62
7
 10
10.759359
 20
25.667385
 42
0.105231
  0
VERTEX
  8
LAYER_1
 62
7
 10
10.828078
 20
25.553749
 42
0.163683
  0
VERTEX
  8
LAYER_1
 62
7
 10
10.952373
 20
25.492623
 42
0.140836
  0
VERTEX
  8
LAYER_1
 62
7
 10
11.154132
 20
25.503946
 42
0.106362
  0
VERTEX
  8
LAYER_1
 62
7
 10
11.322943
 20
25.609767
 42
0.135194
  0
VERTEX
  8
LAYER_1
 62
7
 10
11.527195
 20
25.962288
  0
VERTEX
  8
LAYER_1
 62
7
 10
11.619276
 20
25.957929
  0
VERTEX
  8
LAYER_1
 62
7
 10
11.689562
 20
25.844055
 42
0.233937
  0
VERTEX
  8
LAYER_1
 62
7
 10
11.943737
 20
25.884033
 42
0.214069
  0
VERTEX
  8
LAYER_1
 62
7
 10
12.075319
 20
26.106675
  0
SEQEND
  0
POLYLINE
  8
LAYER_1
 62
2
 70
1
 66
1
  0
VERTEX
  8
LAYER_1
 62
7
 10
13.226053
 20
23.651014
  0
VERTEX
  8
LAYER_1
 62
7
 10
13.320696
 20
23.827019
 42
-0.015244
  0
VERTEX
  8
LAYER_1
 62
7
 10
13.419681
 20
24.001900
 42
-0.035643
  0
VERTEX
  8
LAYER_1
 62
7
 10
13.534909
 20
24.164522
 42
-0.055707
  0
VERTEX
  8
LAYER_1
 62
7
 10
13.678283
 20
24.303750
 42
-0.113675
  0
VERTEX
  8
LAYER_1
 62
7
 10
13.605845
 20
24.098116
 42
-0.011533
  0
VERTEX
  8
LAYER_1
 62
7
 10
13.482696
 20
23.913476
 42
0.058697
  0
VERTEX
  8
LAYER_1
 62
7
 10
13.170435
 20
23.295601
 42
0.066859
  0
VERTEX
  8
LAYER_1
 62
7
 10
13.093255
 20
22.941163
 42
0.129232
  0
VERTEX
  8
LAYER_1
 62
7
 10
13.146830
 20
22.621257
 42
0.055282
  0
VERTEX
  8
LAYER_1
 62
7
 10
13.209902
 20
22.519347
 42
0.093754
  0
VERTEX
  8
LAYER_1
 62
7
 10
13.291213
 20
22.446461
 42
0.163827
  0
VERTEX
  8
LAYER_1
 62
7
 10
13.386820
 20
22.425250
 42
0.154997
  0
VERTEX
  8
LAYER_1
 62
7
 10
13.492780
 20
22.478365
 42
-0.056604
  0
VERTEX
  8
LAYER_1
 62
7
 10
13.699532
 20
22.635404
 42
-0.024317
  0
VERTEX
  8
LAYER_1
 62
7
 10
13.686509
 20
22.478906
 42
-0.068209
  0
VERTEX
  8
LAYER_1
 62
7
 10
13.539659
 20
21.934863
 42
-0.080844
  0
VERTEX
  8
LAYER_1
 62
7
 10
13.383565
 20
21.686561
 42
-0.160346
  0
VERTEX
  8
LAYER_1
 62
7
 10
13.159339
 20
21.552709
  0
VERTEX
  8
LAYER_1
 62
7
 10
13.128524
 20
21.547873
 42
-0.147084
  0
VERTEX
  8
LAYER_1
 62
7
 10
13.038842
 20
21.573764
 42
-0.123607
  0
VERTEX
  8
LAYER_1
 62
7
 10
12.921097
 20
21.699876
 42
-0.076952
  0
VERTEX
  8
LAYER_1
 62
7
 10
12.854191
 20
21.882616
 42
-0.045165
  0
VERTEX
  8
LAYER_1
 62
7
 10
12.828966
 20
22.104004
 42
-0.028479
  0
VERTEX
  8
LAYER_1
 62
7
 10
12.836266
 20
22.346061
 42
-0.057925
  0
VERTEX
  8
LAYER_1
 62
7
 10
13.007583
 20
23.161359
 42
-0.036209
  0
VERTEX
  8
LAYER_1
 62
7
 10
13.226053
 20
23.651014
  0
SEQEND
  0
POLYLINE
  8
LAYER_1
 62
2
 70
1
 66
1
  0
VERTEX
  8
LAYER_1
 62
7
 10
10.779071
 20
22.430006
 42
0.199589
  0
VERTEX
  8
LAYER_1
 62
7
 10
10.517712
 20
23.060983
 42
0.199589
  0
VERTEX
  8
LAYER_1
 62
7
 10
9.886734
 20
23.322342
 42
0.199589
  0
VERTEX
  8
LAYER_1
 62
7
 10
9.255757
 20
23.060983
 42
0.199589
  0
VERTEX
  8
LAYER_1
 62
7
 10
8.994398
 20
22.430006
 42
0.199589
  0
VERTEX
  8
LAYER_1
 62
7
 10
9.255757
 20
21.799028
 42
0.199589
  0
VERTEX
  8
LAYER_1
 62
7
 10
9.886734
 20
21.537669
 42
0.199589
  0
VERTEX
  8
LAYER_1
 62
7
 10
10.517712
 20
21.799028
 42
0.199589
  0
VERTEX
  8
LAYER_1
 62
7
 10
10.779071
 20
22.430006
  0
SEQEND
  0
POLYLINE
  8
LAYER_1
 62
2
 70
1
 66
1
  0
VERTEX
  8
LAYER_1
 62
7
 10
31.547345
 20
22.700787
 42
0.031580
  0
VERTEX
  8
LAYER_1
 62
7
 10
31.682827
 20
22.790347
  0
VERTEX
  8
LAYER_1
 62
7
 10
31.811872
 20
22.889715
 42
-0.022497
  0
VERTEX
  8
LAYER_1
 62
7
 10
31.943778
 20
22.983975
 42
-0.049558
  0
VERTEX
  8
LAYER_1
 62
7
 10
32.087841
 20
23.058211
 42
-0.087200
  0
VERTEX
  8
LAYER_1
 62
7
 10
31.944442
 20
22.684015
 42
-0.065067
  0
VERTEX
  8
LAYER_1
 62
7
 10
31.698270
 20
22.375917
 42
-0.040518
  0
VERTEX
  8
LAYER_1
 62
7
 10
31.387533
 20
22.121146
 42
-0.020489
  0
VERTEX
  8
LAYER_1
 62
7
 10
31.050438
 20
21.906933
  0
VERTEX
  8
LAYER_1
 62
7
 10
30.469673
 20
21.570757
 42
0.006310
  0
VERTEX
  8
LAYER_1
 62
7
 10
29.892893
 20
21.226818
 42
0.012478
  0
VERTEX
  8
LAYER_1
 62
7
 10
29.330007
 20
20.861833
 42
0.018646
  0
VERTEX
  8
LAYER_1
 62
7
 10
28.790924
 20
20.462522
 42
-0.051108
  0
VERTEX
  8
LAYER_1
 62
7
 10
28.665608
 20
20.434735
 42
0.018014
  0
VERTEX
  8
LAYER_1
 62
7
 10
28.828952
 20
20.732414
 42
-0.031094
  0
VERTEX
  8
LAYER_1
 62
7
 10
28.999595
 20
21.025094
 42
-0.053499
  0
VERTEX
  8
LAYER_1
 62
7
 10
29.147804
 20
21.195897
 42
-0.040884
  0
VERTEX
  8
LAYER_1
 62
7
 10
29.465429
 20
21.478592
 42
-0.024843
  0
VERTEX
  8
LAYER_1
 62
7
 10
29.816818
 20
21.716642
 42
-0.008630
  0
VERTEX
  8
LAYER_1
 62
7
 10
30.184859
 20
21.931605
  0
VERTEX
  8
LAYER_1
 62
7
 10
30.369777
 20
22.037164
  0
VERTEX
  8
LAYER_1
 62
7
 10
30.552440
 20
22.145034
 42
-0.016225
  0
VERTEX
  8
LAYER_1
 62
7
 10
31.047850
 20
22.426384
 42
0.009149
  0
VERTEX
  8
LAYER_1
 62
7
 10
31.547345
 20
22.700787
  0
SEQEND
  0
POLYLINE
  8
LAYER_1
 62
2
 70
1
 66
1
  0
VERTEX
  8
LAYER_1
 62
7
 10
33.897242
 20
21.476344
  0
VERTEX
  8
LAYER_1
 62
7
 10
34.067456
 20
21.977574
  0
VERTEX
  8
LAYER_1
 62
7
 10
34.131048
 20
22.164835
  0
VERTEX
  8
LAYER_1
 62
7
 10
34.265653
 20
22.108337
 42
-0.106921
  0
VERTEX
  8
LAYER_1
 62
7
 10
34.605492
 20
21.863615
 42
-0.117557
  0
VERTEX
  8
LAYER_1
 62
7
 10
34.815521
 20
21.493971
 42
-0.092092
  0
VERTEX
  8
LAYER_1
 62
7
 10
34.851475
 20
21.086100
 42
-0.059400
  0
VERTEX
  8
LAYER_1
 62
7
 10
34.762525
 20
20.672919
 42
-0.038371
  0
VERTEX
  8
LAYER_1
 62
7
 10
34.597842
 20
20.287341
 42
-0.025823
  0
VERTEX
  8
LAYER_1
 62
7
 10
34.048164
 20
19.343588
 42
-0.040265
  0
VERTEX
  8
LAYER_1
 62
7
 10
33.898557
 20
19.146916
 42
-0.053931
  0
VERTEX
  8
LAYER_1
 62
7
 10
33.841729
 20
19.099840
  0
VERTEX
  8
LAYER_1
 62
7
 10
33.894307
 20
19.180102
 42
0.030134
  0
VERTEX
  8
LAYER_1
 62
7
 10
34.134631
 20
19.617286
 42
0.035676
  0
VERTEX
  8
LAYER_1
 62
7
 10
34.352226
 20
20.149460
 42
0.062094
  0
VERTEX
  8
LAYER_1
 62
7
 10
34.404937
 20
20.431793
 42
0.071487
  0
VERTEX
  8
LAYER_1
 62
7
 10
34.382391
 20
20.687449
 42
0.061441
  0
VERTEX
  8
LAYER_1
 62
7
 10
34.291346
 20
20.929361
 42
0.040565
  0
VERTEX
  8
LAYER_1
 62
7
 10
34.138562
 20
21.170463
  0
VERTEX
  8
LAYER_1
 62
7
 10
34.060931
 20
21.271619
  0
VERTEX
  8
LAYER_1
 62
7
 10
33.981846
 20
21.370716
  0
VERTEX
  8
LAYER_1
 62
7
 10
33.897242
 20
21.476344
  0
SEQEND
  0
POLYLINE
  8
LAYER_1
 62
2
 70
1
 66
1
  0
VERTEX
  8
LAYER_1
 62
7
 10
9.049186
 20
21.080494
 42
0.199589
  0
VERTEX
  8
LAYER_1
 62
7
 10
8.789606
 20
21.707175
 42
0.199589
  0
VERTEX
  8
LAYER_1
 62
7
 10
8.162925
 20
21.966755
 42
0.199589
  0
VERTEX
  8
LAYER_1
 62
7
 10
7.536243
 20
21.707175
 42
0.199589
  0
VERTEX
  8
LAYER_1
 62
7
 10
7.276663
 20
21.080494
 42
0.199589
  0
VERTEX
  8
LAYER_1
 62
7
 10
7.536243
 20
20.453812
 42
0.199589
  0
VERTEX
  8
LAYER_1
 62
7
 10
8.162925
 20
20.194232
 42
0.199589
  0
VERTEX
  8
LAYER_1
 62
7
 10
8.789606
 20
20.453812
 42
0.199589
  0
VERTEX
  8
LAYER_1
 62
7
 10
9.049186
 20
21.080494
  0
SEQEND
  0
POLYLINE
  8
LAYER_1
 62
2
 70
1
 66
1
  0
VERTEX
  8
LAYER_1
 62
7
 10
16.950362
 20
20.494486
 42
0.199589
  0
VERTEX
  8
LAYER_1
 62
7
 10
16.692368
 20
21.117340
 42
0.199589
  0
VERTEX
  8
LAYER_1
 62
7
 10
16.069514
 20
21.375334
 42
0.199589
  0
VERTEX
  8
LAYER_1
 62
7
 10
15.446661
 20
21.117340
 42
0.199589
  0
VERTEX
  8
LAYER_1
 62
7
 10
15.188666
 20
20.494486
 42
0.199589
  0
VERTEX
  8
LAYER_1
 62
7
 10
15.446661
 20
19.871633
 42
0.199589
  0
VERTEX
  8
LAYER_1
 62
7
 10
16.069514
 20
19.613638
 42
0.199589
  0
VERTEX
  8
LAYER_1
 62
7
 10
16.692368
 20
19.871633
 42
0.199589
  0
VERTEX
  8
LAYER_1
 62
7
 10
16.950362
 20
20.494486
  0
SEQEND
  0
POLYLINE
  8
LAYER_1
 62
2
 70
1
 66
1
  0
VERTEX
  8
LAYER_1
 62
7
 10
20.561980
 20
20.086573
 42
-0.020456
  0
VERTEX
  8
LAYER_1
 62
7
 10
20.994450
 20
20.323048
 42
-0.007264
  0
VERTEX
  8
LAYER_1
 62
7
 10
21.664369
 20
20.636051
 42
0.016147
  0
VERTEX
  8
LAYER_1
 62
7
 10
22.328945
 20
20.961065
 42
-0.133758
  0
VERTEX
  8
LAYER_1
 62
7
 10
22.255185
 20
20.787460
 42
-0.018965
  0
VERTEX
  8
LAYER_1
 62
7
 10
22.131162
 20
20.641235
 42
-0.052972
  0
VERTEX
  8
LAYER_1
 62
7
 10
21.877771
 20
20.418968
 42
-0.036459
  0
VERTEX
  8
LAYER_1
 62
7
 10
21.589440
 20
20.245943
 42
-0.021632
  0
VERTEX
  8
LAYER_1
 62
7
 10
21.124509
 20
20.041635
  0
VERTEX
  8
LAYER_1
 62
7
 10
20.968442
 20
19.979781
 42
0.021251
  0
VERTEX
  8
LAYER_1
 62
7
 10
20.531604
 20
19.796505
 42
-0.015886
  0
VERTEX
  8
LAYER_1
 62
7
 10
20.097219
 20
19.608735
 42
-0.096212
  0
VERTEX
  8
LAYER_1
 62
7
 10
20.157655
 20
19.771050
 42
-0.072372
  0
VERTEX
  8
LAYER_1
 62
7
 10
20.267690
 20
19.902412
 42
-0.076937
  0
VERTEX
  8
LAYER_1
 62
7
 10
20.561980
 20
20.086573
  0
SEQEND
  0
POLYLINE
  8
LAYER_1
 62
2
 70
1
 66
1
  0
VERTEX
  8
LAYER_1
 62
7
 10
32.718319
 20
19.744045
 42
0.199589
  0
VERTEX
  8
LAYER_1
 62
7
 10
32.460792
 20
20.365771
 42
0.199589
  0
VERTEX
  8
LAYER_1
 62
7
 10
31.839066
 20
20.623298
 42
0.199589
  0
VERTEX
  8
LAYER_1
 62
7
 10
31.217340
 20
20.365771
 42
0.199589
  0
VERTEX
  8
LAYER_1
 62
7
 10
30.959812
 20
19.744045
 42
0.199589
  0
VERTEX
  8
LAYER_1
 62
7
 10
31.217340
 20
19.122319
 42
0.199589
  0
VERTEX
  8
LAYER_1
 62
7
 10
31.839066
 20
18.864792
 42
0.199589
  0
VERTEX
  8
LAYER_1
 62
7
 10
32.460792
 20
19.122319
 42
0.199589
  0
VERTEX
  8
LAYER_1
 62
7
 10
32.718319
 20
19.744045
  0
SEQEND
  0
POLYLINE
  8
LAYER_1
 62
2
 70
1
 66
1
  0
VERTEX
  8
LAYER_1
 62
7
 10
30.624598
 20
19.397593
 42
0.199589
  0
VERTEX
  8
LAYER_1
 62
7
 10
30.364893
 20
20.024576
 42
0.199589
  0
VERTEX
  8
LAYER_1
 62
7
 10
29.737911
 20
20.284280
 42
0.199589
  0
VERTEX
  8
LAYER_1
 62
7
 10
29.110928
 20
20.024576
 42
0.199589
  0
VERTEX
  8
LAYER_1
 62
7
 10
28.851224
 20
19.397593
 42
0.199589
  0
VERTEX
  8
LAYER_1
 62
7
 10
29.110928
 20
18.770611
 42
0.199589
  0
VERTEX
  8
LAYER_1
 62
7
 10
29.737911
 20
18.510907
 42
0.199589
  0
VERTEX
  8
LAYER_1
 62
7
 10
30.364893
 20
18.770611
 42
0.199589
  0
VERTEX
  8
LAYER_1
 62
7
 10
30.624598
 20
19.397593
  0
SEQEND
  0
POLYLINE
  8
LAYER_1
 62
2
 70
1
 66
1
  0
VERTEX
  8
LAYER_1
 62
7
 10
31.989765
 20
17.526610
  0
VERTEX
  8
LAYER_1
 62
7
 10
32.321776
 20
18.097875
  0
VERTEX
  8
LAYER_1
 62
7
 10
32.370739
 20
18.182120
 42
-0.002194
  0
VERTEX
  8
LAYER_1
 62
7
 10
35.165935
 20
19.711314
  0
VERTEX
  8
LAYER_1
 62
7
 10
35.031209
 20
19.473247
  0
VERTEX
  8
LAYER_1
 62
7
 10
34.851001
 20
19.154813
 42
0.036166
  0
VERTEX
  8
LAYER_1
 62
7
 10
32.156940
 20
17.632640
  0
VERTEX
  8
LAYER_1
 62
7
 10
31.989765
 20
17.526610
  0
SEQEND
  0
POLYLINE
  8
LAYER_1
 62
2
 70
1
 66
1
  0
VERTEX
  8
LAYER_1
 62
7
 10
16.319278
 20
18.254468
 42
0.199589
  0
VERTEX
  8
LAYER_1
 62
7
 10
16.061589
 20
18.876584
 42
0.199589
  0
VERTEX
  8
LAYER_1
 62
7
 10
15.439473
 20
19.134273
 42
0.199589
  0
VERTEX
  8
LAYER_1
 62
7
 10
14.817357
 20
18.876584
 42
0.199589
  0
VERTEX
  8
LAYER_1
 62
7
 10
14.559668
 20
18.254468
 42
0.199589
  0
VERTEX
  8
LAYER_1
 62
7
 10
14.817357
 20
17.632352
 42
0.199589
  0
VERTEX
  8
LAYER_1
 62
7
 10
15.439473
 20
17.374663
 42
0.199589
  0
VERTEX
  8
LAYER_1
 62
7
 10
16.061589
 20
17.632352
 42
0.199589
  0
VERTEX
  8
LAYER_1
 62
7
 10
16.319278
 20
18.254468
  0
SEQEND
  0
POLYLINE
  8
LAYER_1
 62
2
 70
1
 66
1
  0
VERTEX
  8
LAYER_1
 62
7
 10
34.433390
 20
18.628440
  0
VERTEX
  8
LAYER_1
 62
7
 10
34.467223
 20
18.691744
  0
VERTEX
  8
LAYER_1
 62
7
 10
34.450332
 20
18.511942
  0
VERTEX
  8
LAYER_1
 62
7
 10
34.438391
 20
18.490688
 42
0.053078
  0
VERTEX
  8
LAYER_1
 62
7
 10
34.346058
 20
18.248464
 42
0.038348
  0
VERTEX
  8
LAYER_1
 62
7
 10
34.280927
 20
17.922964
 42
0.057049
  0
VERTEX
  8
LAYER_1
 62
7
 10
34.275192
 20
17.594831
 42
0.051544
  0
VERTEX
  8
LAYER_1
 62
7
 10
34.304660
 20
17.454979
 42
0.083928
  0
VERTEX
  8
LAYER_1
 62
7
 10
34.361050
 20
17.344711
 42
0.100049
  0
VERTEX
  8
LAYER_1
 62
7
 10
34.439357
 20
17.275693
 42
0.186004
  0
VERTEX
  8
LAYER_1
 62
7
 10
34.569610
 20
17.251539
 42
0.131013
  0
VERTEX
  8
LAYER_1
 62
7
 10
34.678707
 20
17.310651
 42
0.053413
  0
VERTEX
  8
LAYER_1
 62
7
 10
34.767955
 20
17.412111
  0
VERTEX
  8
LAYER_1
 62
7
 10
34.838663
 20
17.514999
  0
VERTEX
  8
LAYER_1
 62
7
 10
34.862243
 20
17.549728
  0
VERTEX
  8
LAYER_1
 62
7
 10
34.919184
 20
17.555760
 42
-0.056526
  0
VERTEX
  8
LAYER_1
 62
7
 10
34.654851
 20
16.886063
 42
-0.054014
  0
VERTEX
  8
LAYER_1
 62
7
 10
34.512847
 20
16.678574
 42
-0.058782
  0
VERTEX
  8
LAYER_1
 62
7
 10
34.432565
 20
16.605881
 42
-0.106401
  0
VERTEX
  8
LAYER_1
 62
7
 10
34.348571
 20
16.568929
 42
-0.306203
  0
VERTEX
  8
LAYER_1
 62
7
 10
34.150937
 20
16.645778
 42
-0.096880
  0
VERTEX
  8
LAYER_1
 62
7
 10
34.063394
 20
16.833659
 42
-0.058042
  0
VERTEX
  8
LAYER_1
 62
7
 10
34.031887
 20
17.070990
 42
-0.035571
  0
VERTEX
  8
LAYER_1
 62
7
 10
34.045490
 20
17.340664
 42
-0.023556
  0
VERTEX
  8
LAYER_1
 62
7
 10
34.093275
 20
17.625576
 42
-0.051586
  0
VERTEX
  8
LAYER_1
 62
7
 10
34.407710
 20
18.575496
  0
VERTEX
  8
LAYER_1
 62
7
 10
34.433390
 20
18.628440
  0
SEQEND
  0
POLYLINE
  8
LAYER_1
 62
2
 70
1
 66
1
  0
VERTEX
  8
LAYER_1
 62
7
 10
23.972147
 20
16.398929
 42
-0.048394
  0
VERTEX
  8
LAYER_1
 62
7
 10
24.223405
 20
16.668697
 42
-0.133305
  0
VERTEX
  8
LAYER_1
 62
7
 10
24.140042
 20
16.440948
  0
VERTEX
  8
LAYER_1
 62
7
 10
23.980033
 20
16.196753
 42
0.019191
  0
VERTEX
  8
LAYER_1
 62
7
 10
23.831264
 20
15.944365
 42
0.026002
  0
VERTEX
  8
LAYER_1
 62
7
 10
23.729551
 20
15.727493
 42
0.052309
  0
VERTEX
  8
LAYER_1
 62
7
 10
23.645333
 20
15.445160
 42
0.048412
  0
VERTEX
  8
LAYER_1
 62
7
 10
23.633747
 20
15.302571
 42
0.075262
  0
VERTEX
  8
LAYER_1
 62
7
 10
23.655291
 20
15.171368
 42
0.223020
  0
VERTEX
  8
LAYER_1
 62
7
 10
23.836105
 20
14.980115
 42
0.191203
  0
VERTEX
  8
LAYER_1
 62
7
 10
23.939784
 20
14.975901
 42
0.137839
  0
VERTEX
  8
LAYER_1
 62
7
 10
24.055214
 20
15.064398
 42
-0.023957
  0
VERTEX
  8
LAYER_1
 62
7
 10
24.151848
 20
15.175897
 42
-0.106433
  0
VERTEX
  8
LAYER_1
 62
7
 10
24.272442
 20
15.257523
 42
-0.039021
  0
VERTEX
  8
LAYER_1
 62
7
 10
24.186755
 20
14.910840
 42
-0.060354
  0
VERTEX
  8
LAYER_1
 62
7
 10
24.035644
 20
14.589160
 42
-0.106372
  0
VERTEX
  8
LAYER_1
 62
7
 10
23.805911
 20
14.362261
 42
-0.102923
  0
VERTEX
  8
LAYER_1
 62
7
 10
23.636643
 20
14.295663
 42
-0.152402
  0
VERTEX
  8
LAYER_1
 62
7
 10
23.505371
 20
14.314806
 42
-0.125882
  0
VERTEX
  8
LAYER_1
 62
7
 10
23.409038
 20
14.400666
 42
-0.074154
  0
VERTEX
  8
LAYER_1
 62
7
 10
23.344586
 20
14.534222
 42
-0.079599
  0
VERTEX
  8
LAYER_1
 62
7
 10
23.299092
 20
14.868330
 42
-0.079584
  0
VERTEX
  8
LAYER_1
 62
7
 10
23.344427
 20
15.164947
 42
-0.043034
  0
VERTEX
  8
LAYER_1
 62
7
 10
23.460011
 20
15.518753
 42
-0.026640
  0
VERTEX
  8
LAYER_1
 62
7
 10
23.627728
 20
15.865186
 42
-0.036745
  0
VERTEX
  8
LAYER_1
 62
7
 10
23.972147
 20
16.398929
  0
SEQEND
  0
POLYLINE
  8
LAYER_1
 62
2
 70
1
 66
1
  0
VERTEX
  8
LAYER_1
 62
7
 10
31.300881
 20
13.666504
  0
VERTEX
  8
LAYER_1
 62
7
 10
31.313923
 20
13.668285
  0
VERTEX
  8
LAYER_1
 62
7
 10
31.371843
 20
13.676194
  0
VERTEX
  8
LAYER_1
 62
7
 10
31.342203
 20
13.635992
  0
VERTEX
  8
LAYER_1
 62
7
 10
31.188424
 20
13.434106
 42
0.020384
  0
VERTEX
  8
LAYER_1
 62
7
 10
31.041125
 20
13.226810
 42
0.021226
  0
VERTEX
  8
LAYER_1
 62
7
 10
30.951465
 20
13.035533
 42
0.034050
  0
VERTEX
  8
LAYER_1
 62
7
 10
30.815065
 20
12.654270
 42
0.039143
  0
VERTEX
  8
LAYER_1
 62
7
 10
30.776540
 20
12.459276
 42
0.086909
  0
VERTEX
  8
LAYER_1
 62
7
 10
30.782975
 20
12.297044
 42
0.204448
  0
VERTEX
  8
LAYER_1
 62
7
 10
30.853250
 20
12.194328
 42
0.105761
  0
VERTEX
  8
LAYER_1
 62
7
 10
30.918228
 20
12.173649
 42
0.072407
  0
VERTEX
  8
LAYER_1
 62
7
 10
31.006247
 20
12.177881
 42
0.112494
  0
VERTEX
  8
LAYER_1
 62
7
 10
31.169400
 20
12.258770
 42
-0.005163
  0
VERTEX
  8
LAYER_1
 62
7
 10
31.321231
 20
12.375785
 42
-0.059817
  0
VERTEX
  8
LAYER_1
 62
7
 10
31.294032
 20
12.217619
 42
-0.076427
  0
VERTEX
  8
LAYER_1
 62
7
 10
31.050209
 20
11.733677
 42
-0.044374
  0
VERTEX
  8
LAYER_1
 62
7
 10
30.949426
 20
11.618670
 42
-0.075743
  0
VERTEX
  8
LAYER_1
 62
7
 10
30.837869
 20
11.539400
 42
-0.279711
  0
VERTEX
  8
LAYER_1
 62
7
 10
30.592747
 20
11.554754
 42
-0.162399
  0
VERTEX
  8
LAYER_1
 62
7
 10
30.463464
 20
11.721872
 42
-0.094556
  0
VERTEX
  8
LAYER_1
 62
7
 10
30.438409
 20
11.911164
 42
-0.046829
  0
VERTEX
  8
LAYER_1
 62
7
 10
30.471482
 20
12.154615
 42
-0.047667
  0
VERTEX
  8
LAYER_1
 62
7
 10
30.665381
 20
12.722775
 42
-0.037309
  0
VERTEX
  8
LAYER_1
 62
7
 10
30.951898
 20
13.263909
 42
-0.027691
  0
VERTEX
  8
LAYER_1
 62
7
 10
31.100744
 20
13.473578
 42
-0.052771
  0
VERTEX
  8
LAYER_1
 62
7
 10
31.237771
 20
13.615574
 42
-0.025489
  0
VERTEX
  8
LAYER_1
 62
7
 10
31.286955
 20
13.656170
  0
VERTEX
  8
LAYER_1
 62
7
 10
31.300881
 20
13.666504
  0
SEQEND
  0
POLYLINE
  8
LAYER_1
 62
2
 70
1
 66
1
  0
VERTEX
  8
LAYER_1
 62
7
 10
16.312989
 20
11.527743
 42
-0.032653
  0
VERTEX
  8
LAYER_1
 62
7
 10
16.401787
 20
11.652200
 42
-0.185620
  0
VERTEX
  8
LAYER_1
 62
7
 10
16.531143
 20
11.725229
 42
-0.017158
  0
VERTEX
  8
LAYER_1
 62
7
 10
16.306249
 20
11.333519
  0
VERTEX
  8
LAYER_1
 62
7
 10
16.068188
 20
10.942675
 42
0.025205
  0
VERTEX
  8
LAYER_1
 62
7
 10
15.854675
 20
10.541477
 42
0.047627
  0
VERTEX
  8
LAYER_1
 62
7
 10
15.703428
 20
10.118702
 42
0.051060
  0
VERTEX
  8
LAYER_1
 62
7
 10
15.650908
 20
9.765138
 42
0.054531
  0
VERTEX
  8
LAYER_1
 62
7
 10
15.663844
 20
9.575715
 42
0.097485
  0
VERTEX
  8
LAYER_1
 62
7
 10
15.726066
 20
9.412441
 42
0.240468
  0
VERTEX
  8
LAYER_1
 62
7
 10
15.979202
 20
9.269511
 42
0.275876
  0
VERTEX
  8
LAYER_1
 62
7
 10
16.229674
 20
9.397732
 42
0.041246
  0
VERTEX
  8
LAYER_1
 62
7
 10
16.289126
 20
9.519807
  0
VERTEX
  8
LAYER_1
 62
7
 10
16.341534
 20
9.644428
  0
VERTEX
  8
LAYER_1
 62
7
 10
16.436338
 20
9.683112
 42
-0.038592
  0
VERTEX
  8
LAYER_1
 62
7
 10
16.445260
 20
9.598074
 42
-0.068454
  0
VERTEX
  8
LAYER_1
 62
7
 10
16.388757
 20
9.232890
 42
-0.053890
  0
VERTEX
  8
LAYER_1
 62
7
 10
16.234984
 20
8.853204
 42
-0.075195
  0
VERTEX
  8
LAYER_1
 62
7
 10
16.011713
 20
8.546712
 42
-0.064184
  0
VERTEX
  8
LAYER_1
 62
7
 10
15.882694
 20
8.448318
 42
-0.096003
  0
VERTEX
  8
LAYER_1
 62
7
 10
15.746716
 20
8.401108
 42
-0.229398
  0
VERTEX
  8
LAYER_1
 62
7
 10
15.525344
 20
8.476969
 42
-0.133579
  0
VERTEX
  8
LAYER_1
 62
7
 10
15.330690
 20
8.785967
 42
-0.089462
  0
VERTEX
  8
LAYER_1
 62
7
 10
15.287418
 20
9.178254
 42
-0.051818
  0
VERTEX
  8
LAYER_1
 62
7
 10
15.361708
 20
9.622522
 42
-0.031400
  0
VERTEX
  8
LAYER_1
 62
7
 10
15.519743
 20
10.087460
 42
-0.034248
  0
VERTEX
  8
LAYER_1
 62
7
 10
15.951781
 20
10.954113
 42
-0.018413
  0
VERTEX
  8
LAYER_1
 62
7
 10
16.312989
 20
11.527743
  0
SEQEND
  0
POLYLINE
  8
LAYER_1
 62
2
 70
1
 66
1
  0
VERTEX
  8
LAYER_1
 62
7
 10
11.346451
 20
8.219588
  0
VERTEX
  8
LAYER_1
 62
7
 10
11.371912
 20
8.242516
 42
-0.023352
  0
VERTEX
  8
LAYER_1
 62
7
 10
11.267666
 20
8.070638
  0
VERTEX
  8
LAYER_1
 62
7
 10
11.153576
 20
7.904360
 42
0.040450
  0
VERTEX
  8
LAYER_1
 62
7
 10
10.954993
 20
7.567992
 42
0.048815
  0
VERTEX
  8
LAYER_1
 62
7
 10
10.876041
 20
7.352696
 42
0.094796
  0
VERTEX
  8
LAYER_1
 62
7
 10
10.860121
 20
7.142243
 42
0.207897
  0
VERTEX
  8
LAYER_1
 62
7
 10
10.984138
 20
6.928361
 42
0.226310
  0
VERTEX
  8
LAYER_1
 62
7
 10
11.226795
 20
6.889408
 42
0.139894
  0
VERTEX
  8
LAYER_1
 62
7
 10
11.365515
 20
6.973684
 42
0.016421
  0
VERTEX
  8
LAYER_1
 62
7
 10
11.430993
 20
7.050997
  0
VERTEX
  8
LAYER_1
 62
7
 10
11.449778
 20
7.072328
  0
VERTEX
  8
LAYER_1
 62
7
 10
11.474344
 20
7.089058
 42
-0.074318
  0
VERTEX
  8
LAYER_1
 62
7
 10
11.431110
 20
6.853535
 42
-0.038148
  0
VERTEX
  8
LAYER_1
 62
7
 10
11.360752
 20
6.687777
 42
-0.057948
  0
VERTEX
  8
LAYER_1
 62
7
 10
11.251679
 20
6.521809
 42
-0.136509
  0
VERTEX
  8
LAYER_1
 62
7
 10
11.113815
 20
6.420952
 42
-0.248263
  0
VERTEX
  8
LAYER_1
 62
7
 10
10.957079
 20
6.450530
 42
-0.106957
  0
VERTEX
  8
LAYER_1
 62
7
 10
10.840868
 20
6.580417
 42
-0.073606
  0
VERTEX
  8
LAYER_1
 62
7
 10
10.777044
 20
6.746031
 42
-0.079879
  0
VERTEX
  8
LAYER_1
 62
7
 10
10.758835
 20
7.097413
 42
-0.056028
  0
VERTEX
  8
LAYER_1
 62
7
 10
10.828007
 20
7.416802
 42
-0.044844
  0
VERTEX
  8
LAYER_1
 62
7
 10
10.961348
 20
7.721127
 42
-0.080332
  0
VERTEX
  8
LAYER_1
 62
7
 10
11.346451
 20
8.219588
  0
SEQEND
  0
POLYLINE
  8
LAYER_1
 62
2
 70
1
 66
1
  0
VERTEX
  8
LAYER_1
 62
7
 10
30.288247
 20
17.509688
  0
VERTEX
  8
LAYER_1
 62
7
 10
30.521867
 20
17.993615
 42
0.001693
  0
VERTEX
  8
LAYER_1
 62
7
 10
28.377593
 20
16.817729
  0
VERTEX
  8
LAYER_1
 62
7
 10
28.328630
 20
16.733484
  0
VERTEX
  8
LAYER_1
 62
7
 10
27.996619
 20
16.162219
  0
VERTEX
  8
LAYER_1
 62
7
 10
28.163794
 20
16.268249
 42
-0.028939
  0
VERTEX
  8
LAYER_1
 62
7
 10
30.288247
 20
17.509688
  0
SEQEND
  0
POLYLINE
  8
LAYER_1
 62
2
 70
1
 66
1
  0
VERTEX
  8
LAYER_1
 62
7
 10
18.700002
 20
26.184245
 42
0.032602
  0
VERTEX
  8
LAYER_1
 62
7
 10
19.039236
 20
27.294595
 42
0.038583
  0
VERTEX
  8
LAYER_1
 62
7
 10
19.217823
 20
28.441378
 42
0.019825
  0
VERTEX
  8
LAYER_1
 62
7
 10
19.293013
 20
29.147851
 42
0.027477
  0
VERTEX
  8
LAYER_1
 62
7
 10
19.301186
 20
29.858001
 42
0.070875
  0
VERTEX
  8
LAYER_1
 62
7
 10
22.774091
 20
32.187256
 42
0.007635
  0
VERTEX
  8
LAYER_1
 62
7
 10
23.203845
 20
32.550129
  0
VERTEX
  8
LAYER_1
 62
7
 10
23.417088
 20
32.734056
  0
VERTEX
  8
LAYER_1
 62
7
 10
23.631965
 20
32.915863
 42
-0.017192
  0
VERTEX
  8
LAYER_1
 62
7
 10
24.074796
 20
33.261778
 42
-0.029543
  0
VERTEX
  8
LAYER_1
 62
7
 10
24.548684
 20
33.565194
  0
VERTEX
  8
LAYER_1
 62
7
 10
24.670416
 20
33.634263
 42
0.037776
  0
VERTEX
  8
LAYER_1
 62
7
 10
24.789441
 20
33.714825
 42
0.083118
  0
VERTEX
  8
LAYER_1
 62
7
 10
24.882211
 20
33.816738
 42
0.124661
  0
VERTEX
  8
LAYER_1
 62
7
 10
24.925178
 20
33.949862
  0
VERTEX
  8
LAYER_1
 62
7
 10
24.506662
 20
33.981463
 42
-0.025042
  0
VERTEX
  8
LAYER_1
 62
7
 10
24.091005
 20
34.035949
 42
-0.036873
  0
VERTEX
  8
LAYER_1
 62
7
 10
23.623929
 20
34.220246
 42
-0.002905
  0
VERTEX
  8
LAYER_1
 62
7
 10
23.172380
 20
34.441321
  0
VERTEX
  8
LAYER_1
 62
7
 10
22.980541
 20
34.541495
 42
0.007275
  0
VERTEX
  8
LAYER_1
 62
7
 10
22.787282
 20
34.641537
 42
0.053886
  0
VERTEX
  8
LAYER_1
 62
7
 10
22.384472
 20
34.797337
 42
0.033513
  0
VERTEX
  8
LAYER_1
 62
7
 10
22.217911
 20
34.829697
 42
0.077262
  0
VERTEX
  8
LAYER_1
 62
7
 10
22.087528
 20
34.825963
 42
0.081996
  0
VERTEX
  8
LAYER_1
 62
7
 10
21.967141
 20
34.779132
 42
0.040225
  0
VERTEX
  8
LAYER_1
 62
7
 10
21.830570
 20
34.682202
 42
0.011584
  0
VERTEX
  8
LAYER_1
 62
7
 10
21.623087
 20
34.505946
 42
0.040263
  0
VERTEX
  8
LAYER_1
 62
7
 10
20.891528
 20
33.720206
 42
0.020355
  0
VERTEX
  8
LAYER_1
 62
7
 10
20.705064
 20
33.461686
 42
0.032472
  0
VERTEX
  8
LAYER_1
 62
7
 10
20.558629
 20
33.207136
 42
0.057985
  0
VERTEX
  8
LAYER_1
 62
7
 10
20.472952
 20
32.970959
 42
0.112128
  0
VERTEX
  8
LAYER_1
 62
7
 10
20.468761
 20
32.767557
 42
0.155774
  0
VERTEX
  8
LAYER_1
 62
7
 10
20.590595
 20
32.557896
 42
0.220157
  0
VERTEX
  8
LAYER_1
 62
7
 10
20.829721
 20
32.488942
 42
0.158618
  0
VERTEX
  8
LAYER_1
 62
7
 10
21.035761
 20
32.595147
 42
0.107586
  0
VERTEX
  8
LAYER_1
 62
7
 10
21.168810
 20
32.794169
 42
0.073423
  0
VERTEX
  8
LAYER_1
 62
7
 10
21.203772
 20
32.943287
 42
0.105217
  0
VERTEX
  8
LAYER_1
 62
7
 10
21.187359
 20
33.083681
 42
0.155335
  0
VERTEX
  8
LAYER_1
 62
7
 10
21.107525
 20
33.190726
 42
0.141613
  0
VERTEX
  8
LAYER_1
 62
7
 10
20.952229
 20
33.239794
 42
0.082208
  0
VERTEX
  8
LAYER_1
 62
7
 10
20.710725
 20
33.205590
 42
-0.056051
  0
VERTEX
  8
LAYER_1
 62
7
 10
20.984651
 20
33.616547
 42
-0.092802
  0
VERTEX
  8
LAYER_1
 62
7
 10
21.364006
 20
33.928612
 42
-0.089437
  0
VERTEX
  8
LAYER_1
 62
7
 10
21.566641
 20
33.995417
 42
-0.068018
  0
VERTEX
  8
LAYER_1
 62
7
 10
21.777960
 20
33.995561
 42
-0.075017
  0
VERTEX
  8
LAYER_1
 62
7
 10
22.186193
 20
33.869223
 42
-0.007502
  0
VERTEX
  8
LAYER_1
 62
7
 10
22.781038
 20
33.562061
 42
0.038997
  0
VERTEX
  8
LAYER_1
 62
7
 10
23.393046
 20
33.293311
 42
-0.020631
  0
VERTEX
  8
LAYER_1
 62
7
 10
22.730086
 20
32.849016
 42
-0.015364
  0
VERTEX
  8
LAYER_1
 62
7
 10
22.036834
 20
32.453554
 42
-0.010110
  0
VERTEX
  8
LAYER_1
 62
7
 10
21.323457
 20
32.093439
 42
-0.004935
  0
VERTEX
  8
LAYER_1
 62
7
 10
20.600120
 20
31.755186
  0
VERTEX
  8
LAYER_1
 62
7
 10
20.453493
 20
31.692766
 42
-0.022737
  0
VERTEX
  8
LAYER_1
 62
7
 10
19.312873
 20
31.253660
  0
VERTEX
  8
LAYER_1
 62
7
 10
19.335483
 20
32.155272
  0
VERTEX
  8
LAYER_1
 62
7
 10
19.395477
 20
34.569658
  0
VERTEX
  8
LAYER_1
 62
7
 10
19.407171
 20
35.053627
  0
VERTEX
  8
LAYER_1
 62
7
 10
19.220373
 20
34.572676
 42
-0.002380
  0
VERTEX
  8
LAYER_1
 62
7
 10
18.891768
 20
33.751455
  0
VERTEX
  8
LAYER_1
 62
7
 10
18.782468
 20
33.477620
  0
VERTEX
  8
LAYER_1
 62
7
 10
18.454824
 20
32.647576
  0
VERTEX
  8
LAYER_1
 62
7
 10
18.437209
 20
31.297102
  0
VERTEX
  8
LAYER_1
 62
7
 10
18.433424
 20
31.006873
 42
-0.031430
  0
VERTEX
  8
LAYER_1
 62
7
 10
17.296458
 20
30.819941
 42
-0.027712
  0
VERTEX
  8
LAYER_1
 62
7
 10
16.061788
 20
30.767003
  0
VERTEX
  8
LAYER_1
 62
7
 10
15.923630
 20
30.768454
  0
VERTEX
  8
LAYER_1
 62
7
 10
15.907352
 20
30.911819
 42
-0.023755
  0
VERTEX
  8
LAYER_1
 62
7
 10
15.899656
 20
31.055592
 42
0.001376
  0
VERTEX
  8
LAYER_1
 62
7
 10
15.919204
 20
32.116830
  0
VERTEX
  8
LAYER_1
 62
7
 10
15.926150
 20
32.470512
 42
-0.014066
  0
VERTEX
  8
LAYER_1
 62
7
 10
15.990647
 20
33.883389
  0
VERTEX
  8
LAYER_1
 62
7
 10
16.003451
 20
34.075587
 42
0.009749
  0
VERTEX
  8
LAYER_1
 62
7
 10
16.016255
 20
34.268602
 42
0.079099
  0
VERTEX
  8
LAYER_1
 62
7
 10
15.981385
 20
34.650545
 42
0.036387
  0
VERTEX
  8
LAYER_1
 62
7
 10
15.901768
 20
34.446837
  0
VERTEX
  8
LAYER_1
 62
7
 10
15.839722
 20
34.237000
 42
-0.017187
  0
VERTEX
  8
LAYER_1
 62
7
 10
15.653229
 20
33.717353
  0
VERTEX
  8
LAYER_1
 62
7
 10
15.549964
 20
33.461058
  0
VERTEX
  8
LAYER_1
 62
7
 10
15.444566
 20
33.205522
 42
0.008973
  0
VERTEX
  8
LAYER_1
 62
7
 10
15.241012
 20
32.691953
 42
0.022070
  0
VERTEX
  8
LAYER_1
 62
7
 10
15.069842
 20
32.167096
 42
0.030847
  0
VERTEX
  8
LAYER_1
 62
7
 10
15.024892
 20
31.527573
 42
0.001111
  0
VERTEX
  8
LAYER_1
 62
7
 10
15.020805
 20
30.885597
 42
-0.150524
  0
VERTEX
  8
LAYER_1
 62
7
 10
14.455246
 20
31.182543
 42
-0.059851
  0
VERTEX
  8
LAYER_1
 62
7
 10
14.343790
 20
31.304527
 42
-0.027417
  0
VERTEX
  8
LAYER_1
 62
7
 10
14.254052
 20
31.445807
  0
VERTEX
  8
LAYER_1
 62
7
 10
14.170708
 20
31.591997
 42
0.034978
  0
VERTEX
  8
LAYER_1
 62
7
 10
14.078437
 20
31.728712
 42
0.128361
  0
VERTEX
  8
LAYER_1
 62
7
 10
13.854420
 20
31.893304
 42
0.087752
  0
VERTEX
  8
LAYER_1
 62
7
 10
13.570331
 20
31.950913
 42
0.107139
  0
VERTEX
  8
LAYER_1
 62
7
 10
12.981464
 20
31.835863
 42
0.041098
  0
VERTEX
  8
LAYER_1
 62
7
 10
12.667289
 20
31.666284
 42
0.026873
  0
VERTEX
  8
LAYER_1
 62
7
 10
12.338285
 20
31.427564
 42
0.034122
  0
VERTEX
  8
LAYER_1
 62
7
 10
11.680035
 20
30.810275
 42
0.025932
  0
VERTEX
  8
LAYER_1
 62
7
 10
11.095204
 20
30.119137
 42
0.032902
  0
VERTEX
  8
LAYER_1
 62
7
 10
10.672280
 20
29.489290
 42
0.010021
  0
VERTEX
  8
LAYER_1
 62
7
 10
10.581327
 20
29.320229
 42
0.053998
  0
VERTEX
  8
LAYER_1
 62
7
 10
9.929056
 20
29.382427
 42
0.105219
  0
VERTEX
  8
LAYER_1
 62
7
 10
8.346799
 20
29.027286
 42
0.043611
  0
VERTEX
  8
LAYER_1
 62
7
 10
7.649844
 20
28.632775
 42
0.036748
  0
VERTEX
  8
LAYER_1
 62
7
 10
7.018049
 20
28.126392
 42
0.030769
  0
VERTEX
  8
LAYER_1
 62
7
 10
6.453197
 20
27.532706
 42
0.026117
  0
VERTEX
  8
LAYER_1
 62
7
 10
5.957071
 20
26.876284
 42
0.043514
  0
VERTEX
  8
LAYER_1
 62
7
 10
5.178129
 20
25.473500
 42
0.012873
  0
VERTEX
  8
LAYER_1
 62
7
 10
4.977463
 20
24.992352
 42
0.030355
  0
VERTEX
  8
LAYER_1
 62
7
 10
4.526469
 20
23.577534
 42
0.036239
  0
VERTEX
  8
LAYER_1
 62
7
 10
4.250328
 20
22.038122
 42
0.048847
  0
VERTEX
  8
LAYER_1
 62
7
 10
4.235104
 20
20.484632
 42
0.031660
  0
VERTEX
  8
LAYER_1
 62
7
 10
4.352230
 20
19.737143
 42
0.037588
  0
VERTEX
  8
LAYER_1
 62
7
 10
4.566859
 20
19.027577
  0
VERTEX
  8
LAYER_1
 62
7
 10
4.584006
 20
18.984250
  0
VERTEX
  8
LAYER_1
 62
7
 10
4.645170
 20
18.832257
  0
VERTEX
  8
LAYER_1
 62
7
 10
4.607980
 20
18.625162
 42
0.035466
  0
VERTEX
  8
LAYER_1
 62
7
 10
4.476812
 20
17.482648
 42
0.059372
  0
VERTEX
  8
LAYER_1
 62
7
 10
4.562860
 20
16.337971
 42
0.040562
  0
VERTEX
  8
LAYER_1
 62
7
 10
4.813561
 20
15.309080
 42
0.060335
  0
VERTEX
  8
LAYER_1
 62
7
 10
5.264088
 20
14.352519
 42
0.017535
  0
VERTEX
  8
LAYER_1
 62
7
 10
5.341764
 20
14.238899
 42
0.072376
  0
VERTEX
  8
LAYER_1
 62
7
 10
6.415347
 20
13.259372
 42
-0.014262
  0
VERTEX
  8
LAYER_1
 62
7
 10
6.419908
 20
12.719114
 42
0.016415
  0
VERTEX
  8
LAYER_1
 62
7
 10
6.426808
 20
12.178548
 42
-0.008604
  0
VERTEX
  8
LAYER_1
 62
7
 10
6.439077
 20
11.736248
  0
VERTEX
  8
LAYER_1
 62
7
 10
6.442405
 20
11.588674
 42
0.046498
  0
VERTEX
  8
LAYER_1
 62
7
 10
6.504178
 20
11.003296
 42
0.129593
  0
VERTEX
  8
LAYER_1
 62
7
 10
6.546268
 20
10.946767
  0
VERTEX
  8
LAYER_1
 62
7
 10
6.600617
 20
10.899229
 42
0.052136
  0
VERTEX
  8
LAYER_1
 62
7
 10
6.659257
 20
11.109398
 42
0.033118
  0
VERTEX
  8
LAYER_1
 62
7
 10
6.681119
 20
11.325646
 42
0.011040
  0
VERTEX
  8
LAYER_1
 62
7
 10
6.681158
 20
11.653705
  0
VERTEX
  8
LAYER_1
 62
7
 10
6.680711
 20
11.762279
 42
-0.017956
  0
VERTEX
  8
LAYER_1
 62
7
 10
6.681945
 20
12.111148
 42
-0.003294
  0
VERTEX
  8
LAYER_1
 62
7
 10
6.710151
 20
12.633382
 42
0.020393
  0
VERTEX
  8
LAYER_1
 62
7
 10
6.720485
 20
13.156018
 42
0.098974
  0
VERTEX
  8
LAYER_1
 62
7
 10
7.044981
 20
13.079994
  0
VERTEX
  8
LAYER_1
 62
7
 10
7.138269
 20
13.078205
  0
VERTEX
  8
LAYER_1
 62
7
 10
7.128269
 20
12.926516
 42
0.039622
  0
VERTEX
  8
LAYER_1
 62
7
 10
7.140890
 20
11.734842
 42
0.048855
  0
VERTEX
  8
LAYER_1
 62
7
 10
7.362324
 20
10.565777
 42
0.060264
  0
VERTEX
  8
LAYER_1
 62
7
 10
7.568824
 20
9.964053
 42
0.041400
  0
VERTEX
  8
LAYER_1
 62
7
 10
7.893013
 20
9.415044
 42
0.057032
  0
VERTEX
  8
LAYER_1
 62
7
 10
8.155429
 20
9.131515
 42
0.003623
  0
VERTEX
  8
LAYER_1
 62
7
 10
8.450944
 20
8.881086
 42
0.092576
  0
VERTEX
  8
LAYER_1
 62
7
 10
9.355063
 20
8.471695
 42
0.067735
  0
VERTEX
  8
LAYER_1
 62
7
 10
10.345405
 20
8.365108
 42
0.058448
  0
VERTEX
  8
LAYER_1
 62
7
 10
11.150498
 20
8.470058
 42
0.035595
  0
VERTEX
  8
LAYER_1
 62
7
 10
11.923743
 20
8.724055
  0
VERTEX
  8
LAYER_1
 62
7
 10
12.068731
 20
8.782192
  0
VERTEX
  8
LAYER_1
 62
7
 10
12.074872
 20
8.598648
 42
0.023251
  0
VERTEX
  8
LAYER_1
 62
7
 10
12.110477
 20
8.137154
 42
0.032039
  0
VERTEX
  8
LAYER_1
 62
7
 10
12.196822
 20
7.682405
 42
0.061484
  0
VERTEX
  8
LAYER_1
 62
7
 10
12.511203
 20
6.647044
 42
0.077066
  0
VERTEX
  8
LAYER_1
 62
7
 10
13.093653
 20
5.738363
 42
0.099089
  0
VERTEX
  8
LAYER_1
 62
7
 10
13.896770
 20
5.236006
 42
0.072740
  0
VERTEX
  8
LAYER_1
 62
7
 10
14.422555
 20
5.060563
 42
0.028687
  0
VERTEX
  8
LAYER_1
 62
7
 10
14.976127
 20
4.993001
 42
0.071098
  0
VERTEX
  8
LAYER_1
 62
7
 10
16.163298
 20
5.192827
 42
0.044545
  0
VERTEX
  8
LAYER_1
 62
7
 10
16.717322
 20
5.428510
 42
0.051922
  0
VERTEX
  8
LAYER_1
 62
7
 10
17.216026
 20
5.766150
 42
0.022309
  0
VERTEX
  8
LAYER_1
 62
7
 10
17.313497
 20
5.558736
 42
0.156002
  0
VERTEX
  8
LAYER_1
 62
7
 10
18.372327
 20
4.502888
 42
0.064216
  0
VERTEX
  8
LAYER_1
 62
7
 10
19.064417
 20
4.253143
 42
0.053928
  0
VERTEX
  8
LAYER_1
 62
7
 10
19.812654
 20
4.169851
 42
0.091141
  0
VERTEX
  8
LAYER_1
 62
7
 10
21.320663
 20
4.445638
 42
0.046324
  0
VERTEX
  8
LAYER_1
 62
7
 10
22.001982
 20
4.776220
 42
0.052949
  0
VERTEX
  8
LAYER_1
 62
7
 10
22.582540
 20
5.216263
 42
0.043186
  0
VERTEX
  8
LAYER_1
 62
7
 10
22.819859
 20
5.481736
  0
VERTEX
  8
LAYER_1
 62
7
 10
22.931328
 20
5.437103
  0
VERTEX
  8
LAYER_1
 62
7
 10
23.042663
 20
5.390094
 42
0.058894
  0
VERTEX
  8
LAYER_1
 62
7
 10
23.508375
 20
5.260544
 42
0.043041
  0
VERTEX
  8
LAYER_1
 62
7
 10
24.024123
 20
5.224351
 42
0.041319
  0
VERTEX
  8
LAYER_1
 62
7
 10
24.622741
 20
5.282480
 42
0.036060
  0
VERTEX
  8
LAYER_1
 62
7
 10
25.225858
 20
5.437035
 42
0.064078
  0
VERTEX
  8
LAYER_1
 62
7
 10
26.380322
 20
5.998116
 42
0.065708
  0
VERTEX
  8
LAYER_1
 62
7
 10
27.356981
 20
6.832974
 42
0.037985
  0
VERTEX
  8
LAYER_1
 62
7
 10
27.737841
 20
7.329751
 42
0.043673
  0
VERTEX
  8
LAYER_1
 62
7
 10
28.025300
 20
7.866989
 42
0.036779
  0
VERTEX
  8
LAYER_1
 62
7
 10
28.085882
 20
8.043644
  0
VERTEX
  8
LAYER_1
 62
7
 10
28.573511
 20
8.049643
 42
0.030154
  0
VERTEX
  8
LAYER_1
 62
7
 10
29.059532
 20
8.084060
 42
0.056701
  0
VERTEX
  8
LAYER_1
 62
7
 10
29.698006
 20
8.252298
 42
0.046508
  0
VERTEX
  8
LAYER_1
 62
7
 10
30.297495
 20
8.552653
 42
0.036614
  0
VERTEX
  8
LAYER_1
 62
7
 10
30.855153
 20
8.959427
 42
0.028601
  0
VERTEX
  8
LAYER_1
 62
7
 10
31.368132
 20
9.446921
 42
0.040631
  0
VERTEX
  8
LAYER_1
 62
7
 10
32.248660
 20
10.561274
 42
0.028267
  0
VERTEX
  8
LAYER_1
 62
7
 10
32.916301
 20
11.690125
 42
0.037205
  0
VERTEX
  8
LAYER_1
 62
7
 10
33.451234
 20
12.927601
 42
0.025357
  0
VERTEX
  8
LAYER_1
 62
7
 10
33.638822
 20
13.580332
 42
0.031605
  0
VERTEX
  8
LAYER_1
 62
7
 10
33.749677
 20
14.240313
 42
0.079353
  0
VERTEX
  8
LAYER_1
 62
7
 10
33.670660
 20
15.536111
 42
0.066791
  0
VERTEX
  8
LAYER_1
 62
7
 10
33.438809
 20
16.167069
 42
0.048235
  0
VERTEX
  8
LAYER_1
 62
7
 10
33.260525
 20
16.432980
 42
0.060082
  0
VERTEX
  8
LAYER_1
 62
7
 10
33.035232
 20
16.648576
 42
0.132375
  0
VERTEX
  8
LAYER_1
 62
7
 10
32.546872
 20
16.842590
 42
0.089454
  0
VERTEX
  8
LAYER_1
 62
7
 10
32.287687
 20
16.824810
 42
0.111041
  0
VERTEX
  8
LAYER_1
 62
7
 10
32.053784
 20
16.705190
 42
0.040087
  0
VERTEX
  8
LAYER_1
 62
7
 10
31.872469
 20
16.524780
 42
0.027825
  0
VERTEX
  8
LAYER_1
 62
7
 10
31.695667
 20
16.294655
 42
0.040935
  0
VERTEX
  8
LAYER_1
 62
7
 10
31.380623
 20
15.738690
 42
0.041571
  0
VERTEX
  8
LAYER_1
 62
7
 10
31.158694
 20
15.144161
 42
0.028982
  0
VERTEX
  8
LAYER_1
 62
7
 10
31.098285
 20
14.865830
 42
0.042618
  0
VERTEX
  8
LAYER_1
 62
7
 10
31.079919
 20
14.617933
 42
0.049213
  0
VERTEX
  8
LAYER_1
 62
7
 10
31.096089
 20
14.476959
 42
0.153235
  0
VERTEX
  8
LAYER_1
 62
7
 10
31.282405
 20
14.160392
 42
0.093296
  0
VERTEX
  8
LAYER_1
 62
7
 10
31.614547
 20
13.957658
 42
0.061361
  0
VERTEX
  8
LAYER_1
 62
7
 10
32.001573
 20
13.858724
 42
0.062568
  0
VERTEX
  8
LAYER_1
 62
7
 10
32.352543
 20
13.853559
 42
0.079626
  0
VERTEX
  8
LAYER_1
 62
7
 10
32.658528
 20
13.940260
 42
0.107166
  0
VERTEX
  8
LAYER_1
 62
7
 10
32.908938
 20
14.130763
 42
0.034879
  0
VERTEX
  8
LAYER_1
 62
7
 10
32.952240
 20
14.011558
 42
-0.076729
  0
VERTEX
  8
LAYER_1
 62
7
 10
33.094932
 20
13.481618
 42
-0.068171
  0
VERTEX
  8
LAYER_1
 62
7
 10
33.079184
 20
12.952994
 42
-0.054784
  0
VERTEX
  8
LAYER_1
 62
7
 10
32.933823
 20
12.439660
 42
-0.043007
  0
VERTEX
  8
LAYER_1
 62
7
 10
32.687678
 20
11.955591
 42
-0.062761
  0
VERTEX
  8
LAYER_1
 62
7
 10
32.056726
 20
11.190659
 42
-0.051175
  0
VERTEX
  8
LAYER_1
 62
7
 10
31.199515
 20
10.526278
 42
-0.054582
  0
VERTEX
  8
LAYER_1
 62
7
 10
30.211451
 20
10.046239
 42
-0.032979
  0
VERTEX
  8
LAYER_1
 62
7
 10
29.698162
 20
9.901531
 42
-0.039282
  0
VERTEX
  8
LAYER_1
 62
7
 10
29.187938
 20
9.834331
 42
-0.019220
  0
VERTEX
  8
LAYER_1
 62
7
 10
28.952556
 20
9.825408
 42
0.039780
  0
VERTEX
  8
LAYER_1
 62
7
 10
29.325081
 20
11.465727
 42
0.013417
  0
VERTEX
  8
LAYER_1
 62
7
 10
29.439897
 20
12.375715
 42
0.022277
  0
VERTEX
  8
LAYER_1
 62
7
 10
29.484009
 20
13.090212
 42
-0.081393
  0
VERTEX
  8
LAYER_1
 62
7
 10
29.523209
 20
13.385402
 42
0.012382
  0
VERTEX
  8
LAYER_1
 62
7
 10
29.723547
 20
13.738918
 42
0.025996
  0
VERTEX
  8
LAYER_1
 62
7
 10
30.060609
 20
14.465521
 42
-0.002794
  0
VERTEX
  8
LAYER_1
 62
7
 10
30.361440
 20
15.208346
 42
-0.017640
  0
VERTEX
  8
LAYER_1
 62
7
 10
30.510367
 20
15.534784
 42
-0.039057
  0
VERTEX
  8
LAYER_1
 62
7
 10
30.693258
 20
15.839723
 42
-0.063743
  0
VERTEX
  8
LAYER_1
 62
7
 10
30.929484
 20
16.095715
 42
-0.083503
  0
VERTEX
  8
LAYER_1
 62
7
 10
31.238413
 20
16.275312
  0
VERTEX
  8
LAYER_1
 62
7
 10
31.241435
 20
16.284120
 42
0.016074
  0
VERTEX
  8
LAYER_1
 62
7
 10
31.525868
 20
18.072383
  0
VERTEX
  8
LAYER_1
 62
7
 10
31.526641
 20
18.078237
 42
0.102987
  0
VERTEX
  8
LAYER_1
 62
7
 10
31.404449
 20
18.038999
 42
0.066341
  0
VERTEX
  8
LAYER_1
 62
7
 10
31.304681
 20
17.962115
 42
0.019663
  0
VERTEX
  8
LAYER_1
 62
7
 10
31.176849
 20
17.816316
  0
VERTEX
  8
LAYER_1
 62
7
 10
31.135435
 20
17.768760
 42
0.030827
  0
VERTEX
  8
LAYER_1
 62
7
 10
30.798544
 20
17.270592
 42
0.019186
  0
VERTEX
  8
LAYER_1
 62
7
 10
30.513347
 20
16.741572
 42
0.007505
  0
VERTEX
  8
LAYER_1
 62
7
 10
30.256141
 20
16.196819
  0
VERTEX
  8
LAYER_1
 62
7
 10
30.130629
 20
15.923268
  0
VERTEX
  8
LAYER_1
 62
7
 10
30.003226
 20
15.651453
  0
VERTEX
  8
LAYER_1
 62
7
 10
29.885667
 20
15.386639
 42
-0.010795
  0
VERTEX
  8
LAYER_1
 62
7
 10
29.760325
 20
15.124522
 42
-0.044650
  0
VERTEX
  8
LAYER_1
 62
7
 10
29.458455
 20
14.631029
  0
VERTEX
  8
LAYER_1
 62
7
 10
29.323985
 20
14.453612
  0
VERTEX
  8
LAYER_1
 62
7
 10
29.301771
 20
14.529786
 42
0.112551
  0
VERTEX
  8
LAYER_1
 62
7
 10
29.027485
 20
15.005976
 42
0.094962
  0
VERTEX
  8
LAYER_1
 62
7
 10
28.430805
 20
15.452483
 42
0.086632
  0
VERTEX
  8
LAYER_1
 62
7
 10
28.064225
 20
15.559157
 42
0.145529
  0
VERTEX
  8
LAYER_1
 62
7
 10
27.712395
 20
15.495741
 42
0.072495
  0
VERTEX
  8
LAYER_1
 62
7
 10
27.494267
 20
15.333094
 42
0.045084
  0
VERTEX
  8
LAYER_1
 62
7
 10
27.294095
 20
15.095570
 42
0.051434
  0
VERTEX
  8
LAYER_1
 62
7
 10
26.960389
 20
14.485698
 42
0.035572
  0
VERTEX
  8
LAYER_1
 62
7
 10
26.736814
 20
13.845730
 42
0.021196
  0
VERTEX
  8
LAYER_1
 62
7
 10
26.674308
 20
13.570586
 42
0.034990
  0
VERTEX
  8
LAYER_1
 62
7
 10
26.648913
 20
13.355271
 42
0.024769
  0
VERTEX
  8
LAYER_1
 62
7
 10
26.651824
 20
13.179446
 42
0.133500
  0
VERTEX
  8
LAYER_1
 62
7
 10
26.721838
 20
12.872080
 42
0.114724
  0
VERTEX
  8
LAYER_1
 62
7
 10
26.929155
 20
12.632957
 42
0.032281
  0
VERTEX
  8
LAYER_1
 62
7
 10
26.869661
 20
12.534937
  0
VERTEX
  8
LAYER_1
 62
7
 10
26.848209
 20
12.486059
 42
0.058314
  0
VERTEX
  8
LAYER_1
 62
7
 10
26.521151
 20
11.477333
 42
0.058323
  0
VERTEX
  8
LAYER_1
 62
7
 10
26.415552
 20
10.310099
 42
0.038103
  0
VERTEX
  8
LAYER_1
 62
7
 10
26.476131
 20
9.734761
 42
0.049203
  0
VERTEX
  8
LAYER_1
 62
7
 10
26.628475
 20
9.201060
 42
0.064053
  0
VERTEX
  8
LAYER_1
 62
7
 10
26.884716
 20
8.736083
 42
0.078024
  0
VERTEX
  8
LAYER_1
 62
7
 10
27.256986
 20
8.366917
 42
0.016203
  0
VERTEX
  8
LAYER_1
 62
7
 10
27.364295
 20
8.294987
 42
-0.058452
  0
VERTEX
  8
LAYER_1
 62
7
 10
26.642229
 20
7.670515
 42
-0.062068
  0
VERTEX
  8
LAYER_1
 62
7
 10
25.825084
 20
7.254408
 42
-0.062068
  0
VERTEX
  8
LAYER_1
 62
7
 10
24.930482
 20
7.053022
 42
-0.058452
  0
VERTEX
  8
LAYER_1
 62
7
 10
23.976041
 20
7.072712
 42
0.031523
  0
VERTEX
  8
LAYER_1
 62
7
 10
24.471450
 20
8.033360
 42
0.035122
  0
VERTEX
  8
LAYER_1
 62
7
 10
24.835277
 20
9.051625
 42
0.033483
  0
VERTEX
  8
LAYER_1
 62
7
 10
25.260605
 20
11.016236
 42
0.021666
  0
VERTEX
  8
LAYER_1
 62
7
 10
25.467309
 20
13.015990
 42
-0.024807
  0
VERTEX
  8
LAYER_1
 62
7
 10
25.472077
 20
13.318921
 42
-0.005475
  0
VERTEX
  8
LAYER_1
 62
7
 10
25.511536
 20
13.771354
 42
0.026287
  0
VERTEX
  8
LAYER_1
 62
7
 10
25.532147
 20
14.225568
  0
VERTEX
  8
LAYER_1
 62
7
 10
25.541049
 20
14.227085
 42
-0.182583
  0
VERTEX
  8
LAYER_1
 62
7
 10
26.731375
 20
14.164837
  0
VERTEX
  8
LAYER_1
 62
7
 10
26.740090
 20
14.163999
  0
VERTEX
  8
LAYER_1
 62
7
 10
26.726900
 20
14.256512
 42
0.088590
  0
VERTEX
  8
LAYER_1
 62
7
 10
26.293646
 20
14.507871
 42
0.047416
  0
VERTEX
  8
LAYER_1
 62
7
 10
26.000663
 20
14.585380
 42
0.056026
  0
VERTEX
  8
LAYER_1
 62
7
 10
25.554486
 20
14.610236
 42
0.039490
  0
VERTEX
  8
LAYER_1
 62
7
 10
25.625930
 20
15.452173
 42
0.006829
  0
VERTEX
  8
LAYER_1
 62
7
 10
25.619324
 20
16.298196
 42
-0.029085
  0
VERTEX
  8
LAYER_1
 62
7
 10
25.825976
 20
16.195306
 42
0.232531
  0
VERTEX
  8
LAYER_1
 62
7
 10
27.013622
 20
16.131644
 42
0.098708
  0
VERTEX
  8
LAYER_1
 62
7
 10
27.509157
 20
16.470570
 42
0.093106
  0
VERTEX
  8
LAYER_1
 62
7
 10
27.860201
 20
16.994921
 42
0.044016
  0
VERTEX
  8
LAYER_1
 62
7
 10
28.160994
 20
17.927911
 42
0.010550
  0
VERTEX
  8
LAYER_1
 62
7
 10
28.319831
 20
18.632017
 42
0.017546
  0
VERTEX
  8
LAYER_1
 62
7
 10
28.385182
 20
19.041187
 42
0.027728
  0
VERTEX
  8
LAYER_1
 62
7
 10
28.413997
 20
19.458516
 42
0.042514
  0
VERTEX
  8
LAYER_1
 62
7
 10
28.385911
 20
19.861567
 42
0.063824
  0
VERTEX
  8
LAYER_1
 62
7
 10
28.280555
 20
20.227902
 42
0.189347
  0
VERTEX
  8
LAYER_1
 62
7
 10
27.756569
 20
20.760672
 42
0.130671
  0
VERTEX
  8
LAYER_1
 62
7
 10
27.137289
 20
20.862446
 42
-0.050341
  0
VERTEX
  8
LAYER_1
 62
7
 10
27.420273
 20
21.174784
 42
0.006052
  0
VERTEX
  8
LAYER_1
 62
7
 10
27.730636
 20
21.461786
 42
-0.024219
  0
VERTEX
  8
LAYER_1
 62
7
 10
28.439152
 20
22.064532
 42
-0.013446
  0
VERTEX
  8
LAYER_1
 62
7
 10
29.191393
 20
22.612520
 42
-0.018854
  0
VERTEX
  8
LAYER_1
 62
7
 10
29.939940
 20
23.100024
 42
-0.020469
  0
VERTEX
  8
LAYER_1
 62
7
 10
30.515468
 20
23.413510
 42
-0.038194
  0
VERTEX
  8
LAYER_1
 62
7
 10
31.161755
 20
23.674202
 42
-0.065162
  0
VERTEX
  8
LAYER_1
 62
7
 10
31.833829
 20
23.797027
 42
-0.101709
  0
VERTEX
  8
LAYER_1
 62
7
 10
32.486715
 20
23.696915
 42
-0.100248
  0
VERTEX
  8
LAYER_1
 62
7
 10
32.819227
 20
23.492820
 42
-0.108423
  0
VERTEX
  8
LAYER_1
 62
7
 10
33.023391
 20
23.188409
 42
-0.084255
  0
VERTEX
  8
LAYER_1
 62
7
 10
33.103962
 20
22.789216
 42
-0.055929
  0
VERTEX
  8
LAYER_1
 62
7
 10
33.065695
 20
22.300777
  0
VERTEX
  8
LAYER_1
 62
7
 10
33.041338
 20
22.182085
 42
-0.047691
  0
VERTEX
  8
LAYER_1
 62
7
 10
32.824826
 20
21.506464
 42
-0.011076
  0
VERTEX
  8
LAYER_1
 62
7
 10
32.680226
 20
21.181884
  0
VERTEX
  8
LAYER_1
 62
7
 10
32.526994
 20
20.861901
 42
0.176596
  0
VERTEX
  8
LAYER_1
 62
7
 10
32.704388
 20
20.946291
 42
0.038085
  0
VERTEX
  8
LAYER_1
 62
7
 10
32.771159
 20
21.029440
 42
0.009957
  0
VERTEX
  8
LAYER_1
 62
7
 10
32.872706
 20
21.177731
 42
0.010019
  0
VERTEX
  8
LAYER_1
 62
7
 10
33.531570
 20
22.242012
 42
0.014299
  0
VERTEX
  8
LAYER_1
 62
7
 10
33.750791
 20
22.629065
 42
0.027900
  0
VERTEX
  8
LAYER_1
 62
7
 10
33.936534
 20
23.033148
 42
0.063725
  0
VERTEX
  8
LAYER_1
 62
7
 10
34.231401
 20
23.889952
 42
0.120892
  0
VERTEX
  8
LAYER_1
 62
7
 10
34.208912
 20
24.599633
 42
0.131254
  0
VERTEX
  8
LAYER_1
 62
7
 10
33.884013
 20
25.140850
 42
0.121145
  0
VERTEX
  8
LAYER_1
 62
7
 10
33.349795
 20
25.453019
 42
0.091998
  0
VERTEX
  8
LAYER_1
 62
7
 10
32.720180
 20
25.511843
 42
0.057696
  0
VERTEX
  8
LAYER_1
 62
7
 10
32.033561
 20
25.371037
 42
0.036297
  0
VERTEX
  8
LAYER_1
 62
7
 10
31.328327
 20
25.084318
 42
0.024271
  0
VERTEX
  8
LAYER_1
 62
7
 10
30.642869
 20
24.705402
 42
0.041906
  0
VERTEX
  8
LAYER_1
 62
7
 10
29.089066
 20
23.552636
 42
0.016937
  0
VERTEX
  8
LAYER_1
 62
7
 10
28.212069
 20
22.711825
 42
0.028441
  0
VERTEX
  8
LAYER_1
 62
7
 10
26.527166
 20
20.785451
 42
0.023031
  0
VERTEX
  8
LAYER_1
 62
7
 10
25.895209
 20
19.893198
 42
0.012145
  0
VERTEX
  8
LAYER_1
 62
7
 10
25.640573
 20
19.467617
 42
0.010371
  0
VERTEX
  8
LAYER_1
 62
7
 10
25.642207
 20
20.393666
 42
-0.006836
  0
VERTEX
  8
LAYER_1
 62
7
 10
25.637304
 20
21.320124
 42
0.006185
  0
VERTEX
  8
LAYER_1
 62
7
 10
25.090812
 20
21.203139
  0
VERTEX
  8
LAYER_1
 62
7
 10
24.855646
 20
21.153758
  0
VERTEX
  8
LAYER_1
 62
7
 10
24.861815
 20
21.056041
 42
-0.018211
  0
VERTEX
  8
LAYER_1
 62
7
 10
24.927476
 20
15.941371
 42
0.001340
  0
VERTEX
  8
LAYER_1
 62
7
 10
24.926268
 20
14.421716
 42
0.062732
  0
VERTEX
  8
LAYER_1
 62
7
 10
24.117939
 20
13.981008
 42
0.062732
  0
VERTEX
  8
LAYER_1
 62
7
 10
23.450153
 20
13.347226
  0
VERTEX
  8
LAYER_1
 62
7
 10
23.431360
 20
13.397461
 42
0.073135
  0
VERTEX
  8
LAYER_1
 62
7
 10
23.067995
 20
13.882892
 42
0.068835
  0
VERTEX
  8
LAYER_1
 62
7
 10
22.567585
 20
14.254718
  0
VERTEX
  8
LAYER_1
 62
7
 10
22.492401
 20
14.295309
 42
0.090276
  0
VERTEX
  8
LAYER_1
 62
7
 10
21.892720
 20
14.441399
 42
0.059821
  0
VERTEX
  8
LAYER_1
 62
7
 10
21.274650
 20
14.404825
 42
0.077589
  0
VERTEX
  8
LAYER_1
 62
7
 10
20.279677
 20
14.005787
 42
0.086418
  0
VERTEX
  8
LAYER_1
 62
7
 10
19.465732
 20
13.311301
 42
-0.092983
  0
VERTEX
  8
LAYER_1
 62
7
 10
18.938312
 20
13.461341
 42
-0.122471
  0
VERTEX
  8
LAYER_1
 62
7
 10
18.523678
 20
13.813658
 42
-0.136497
  0
VERTEX
  8
LAYER_1
 62
7
 10
18.489420
 20
13.959270
 42
-0.027535
  0
VERTEX
  8
LAYER_1
 62
7
 10
18.502973
 20
14.110604
 42
-0.038495
  0
VERTEX
  8
LAYER_1
 62
7
 10
18.939402
 20
15.575174
 42
0.029180
  0
VERTEX
  8
LAYER_1
 62
7
 10
19.033527
 20
15.855783
  0
VERTEX
  8
LAYER_1
 62
7
 10
19.124185
 20
16.183988
  0
VERTEX
  8
LAYER_1
 62
7
 10
19.205992
 20
15.974660
 42
0.021931
  0
VERTEX
  8
LAYER_1
 62
7
 10
19.255693
 20
15.862310
 42
0.114096
  0
VERTEX
  8
LAYER_1
 62
7
 10
19.647919
 20
15.392705
 42
0.086224
  0
VERTEX
  8
LAYER_1
 62
7
 10
20.206120
 20
15.104201
 42
0.073900
  0
VERTEX
  8
LAYER_1
 62
7
 10
20.833779
 20
15.000781
 42
0.082360
  0
VERTEX
  8
LAYER_1
 62
7
 10
21.434375
 20
15.086434
 42
0.055215
  0
VERTEX
  8
LAYER_1
 62
7
 10
21.918973
 20
15.309754
 42
0.042049
  0
VERTEX
  8
LAYER_1
 62
7
 10
22.370943
 20
15.636217
 42
0.031903
  0
VERTEX
  8
LAYER_1
 62
7
 10
22.786295
 20
16.040853
 42
0.024827
  0
VERTEX
  8
LAYER_1
 62
7
 10
23.161040
 20
16.498690
 42
0.037269
  0
VERTEX
  8
LAYER_1
 62
7
 10
23.772752
 20
17.474086
 42
0.033309
  0
VERTEX
  8
LAYER_1
 62
7
 10
24.174166
 20
18.362637
  0
VERTEX
  8
LAYER_1
 62
7
 10
24.195073
 20
18.420406
 42
0.061616
  0
VERTEX
  8
LAYER_1
 62
7
 10
24.284974
 20
18.824144
  0
VERTEX
  8
LAYER_1
 62
7
 10
24.174913
 20
18.875905
 42
0.050565
  0
VERTEX
  8
LAYER_1
 62
7
 10
23.943030
 20
18.504937
 42
-0.017759
  0
VERTEX
  8
LAYER_1
 62
7
 10
23.735269
 20
18.118594
 42
-0.148585
  0
VERTEX
  8
LAYER_1
 62
7
 10
23.175176
 20
17.614665
 42
-0.187709
  0
VERTEX
  8
LAYER_1
 62
7
 10
22.426214
 20
17.568061
 42
-0.253101
  0
VERTEX
  8
LAYER_1
 62
7
 10
21.875307
 20
18.122301
 42
-0.134263
  0
VERTEX
  8
LAYER_1
 62
7
 10
21.862943
 20
18.378417
 42
-0.083631
  0
VERTEX
  8
LAYER_1
 62
7
 10
22.023461
 20
18.736007
 42
-0.056666
  0
VERTEX
  8
LAYER_1
 62
7
 10
22.313678
 20
19.090593
 42
-0.065581
  0
VERTEX
  8
LAYER_1
 62
7
 10
22.674962
 20
19.365617
 42
-0.048201
  0
VERTEX
  8
LAYER_1
 62
7
 10
22.863934
 20
19.449367
 42
-0.067795
  0
VERTEX
  8
LAYER_1
 62
7
 10
23.048686
 20
19.484518
 42
-0.085518
  0
VERTEX
  8
LAYER_1
 62
7
 10
23.271737
 20
19.457002
 42
-0.102368
  0
VERTEX
  8
LAYER_1
 62
7
 10
23.457390
 20
19.356674
 42
-0.119699
  0
VERTEX
  8
LAYER_1
 62
7
 10
23.580721
 20
19.186635
 42
-0.113477
  0
VERTEX
  8
LAYER_1
 62
7
 10
23.616808
 20
18.949982
 42
-0.108370
  0
VERTEX
  8
LAYER_1
 62
7
 10
23.540679
 20
18.676109
 42
-0.135270
  0
VERTEX
  8
LAYER_1
 62
7
 10
23.348889
 20
18.470959
 42
0.199588
  0
VERTEX
  8
LAYER_1
 62
7
 10
23.393462
 20
18.661528
 42
0.199588
  0
VERTEX
  8
LAYER_1
 62
7
 10
23.290228
 20
18.827800
 42
0.182064
  0
VERTEX
  8
LAYER_1
 62
7
 10
23.116741
 20
18.875070
 42
0.199588
  0
VERTEX
  8
LAYER_1
 62
7
 10
22.895076
 20
18.758762
 42
0.199588
  0
VERTEX
  8
LAYER_1
 62
7
 10
22.820574
 20
18.519780
 42
0.045420
  0
VERTEX
  8
LAYER_1
 62
7
 10
22.831874
 20
18.457494
 42
0.123049
  0
VERTEX
  8
LAYER_1
 62
7
 10
22.903809
 20
18.322762
 42
0.136684
  0
VERTEX
  8
LAYER_1
 62
7
 10
23.013785
 20
18.256743
 42
0.099233
  0
VERTEX
  8
LAYER_1
 62
7
 10
23.147564
 20
18.248455
 42
0.066083
  0
VERTEX
  8
LAYER_1
 62
7
 10
23.290907
 20
18.286912
 42
0.097665
  0
VERTEX
  8
LAYER_1
 62
7
 10
23.503198
 20
18.428412
 42
0.061699
  0
VERTEX
  8
LAYER_1
 62
7
 10
23.657155
 20
18.639094
 42
0.032158
  0
VERTEX
  8
LAYER_1
 62
7
 10
23.812607
 20
18.952176
 42
0.029684
  0
VERTEX
  8
LAYER_1
 62
7
 10
23.941580
 20
19.314349
 42
0.041548
  0
VERTEX
  8
LAYER_1
 62
7
 10
24.016103
 20
19.672308
 42
0.032056
  0
VERTEX
  8
LAYER_1
 62
7
 10
24.023194
 20
19.811075
 42
0.074987
  0
VERTEX
  8
LAYER_1
 62
7
 10
23.989966
 20
20.019183
 42
0.084401
  0
VERTEX
  8
LAYER_1
 62
7
 10
23.904172
 20
20.184462
 42
0.169563
  0
VERTEX
  8
LAYER_1
 62
7
 10
23.612858
 20
20.375055
 42
0.123249
  0
VERTEX
  8
LAYER_1
 62
7
 10
23.273994
 20
20.374180
 42
0.077993
  0
VERTEX
  8
LAYER_1
 62
7
 10
22.925596
 20
20.224816
 42
0.046033
  0
VERTEX
  8
LAYER_1
 62
7
 10
22.580224
 20
19.964144
 42
0.029026
  0
VERTEX
  8
LAYER_1
 62
7
 10
22.250437
 20
19.629341
 42
0.034695
  0
VERTEX
  8
LAYER_1
 62
7
 10
21.687859
 20
18.886059
 42
0.027973
  0
VERTEX
  8
LAYER_1
 62
7
 10
21.338342
 20
18.292401
 42
0.033949
  0
VERTEX
  8
LAYER_1
 62
7
 10
21.089367
 20
17.701373
 42
0.048598
  0
VERTEX
  8
LAYER_1
 62
7
 10
20.954230
 20
17.143458
 42
0.024129
  0
VERTEX
  8
LAYER_1
 62
7
 10
20.939564
 20
16.966733
 42
-0.113824
  0
VERTEX
  8
LAYER_1
 62
7
 10
20.646364
 20
16.975246
 42
-0.043874
  0
VERTEX
  8
LAYER_1
 62
7
 10
20.367467
 20
17.074070
 42
-0.075128
  0
VERTEX
  8
LAYER_1
 62
7
 10
19.911628
 20
17.379256
 42
-0.099011
  0
VERTEX
  8
LAYER_1
 62
7
 10
19.587779
 20
17.818886
 42
-0.022635
  0
VERTEX
  8
LAYER_1
 62
7
 10
19.505847
 20
18.084094
 42
-0.056624
  0
VERTEX
  8
LAYER_1
 62
7
 10
19.466822
 20
18.358293
 42
-0.020083
  0
VERTEX
  8
LAYER_1
 62
7
 10
19.464991
 20
19.464919
 42
-0.013751
  0
VERTEX
  8
LAYER_1
 62
7
 10
19.537993
 20
20.568429
 42
-0.007393
  0
VERTEX
  8
LAYER_1
 62
7
 10
19.657683
 20
21.668976
  0
VERTEX
  8
LAYER_1
 62
7
 10
19.795914
 20
22.766714
 42
0.054459
  0
VERTEX
  8
LAYER_1
 62
7
 10
19.721378
 20
22.676667
 42
0.030581
  0
VERTEX
  8
LAYER_1
 62
7
 10
18.999167
 20
20.821890
 42
0.041349
  0
VERTEX
  8
LAYER_1
 62
7
 10
18.912159
 20
20.430376
 42
0.019017
  0
VERTEX
  8
LAYER_1
 62
7
 10
18.852370
 20
19.845636
 42
0.008222
  0
VERTEX
  8
LAYER_1
 62
7
 10
18.824506
 20
19.258189
  0
VERTEX
  8
LAYER_1
 62
7
 10
18.803282
 20
18.670026
 42
-0.013332
  0
VERTEX
  8
LAYER_1
 62
7
 10
18.763414
 20
18.083141
 42
-0.014219
  0
VERTEX
  8
LAYER_1
 62
7
 10
18.491940
 20
16.173833
 42
-0.022630
  0
VERTEX
  8
LAYER_1
 62
7
 10
18.080711
 20
14.289861
 42
0.017692
  0
VERTEX
  8
LAYER_1
 62
7
 10
17.966155
 20
13.844987
 42
-0.012929
  0
VERTEX
  8
LAYER_1
 62
7
 10
17.855686
 20
13.398478
 42
-0.009447
  0
VERTEX
  8
LAYER_1
 62
7
 10
17.758676
 20
13.026742
 42
0.015419
  0
VERTEX
  8
LAYER_1
 62
7
 10
17.665599
 20
12.651686
 42
0.041318
  0
VERTEX
  8
LAYER_1
 62
7
 10
17.615941
 20
12.272850
 42
0.066241
  0
VERTEX
  8
LAYER_1
 62
7
 10
17.649185
 20
11.889775
 42
0.079789
  0
VERTEX
  8
LAYER_1
 62
7
 10
17.735310
 20
11.678477
 42
0.027616
  0
VERTEX
  8
LAYER_1
 62
7
 10
17.865313
 20
11.489214
  0
VERTEX
  8
LAYER_1
 62
7
 10
17.924772
 20
11.409390
  0
VERTEX
  8
LAYER_1
 62
7
 10
17.750117
 20
11.012410
 42
0.017597
  0
VERTEX
  8
LAYER_1
 62
7
 10
17.384549
 20
10.101991
 42
0.025897
  0
VERTEX
  8
LAYER_1
 62
7
 10
17.098715
 20
9.161755
 42
0.034977
  0
VERTEX
  8
LAYER_1
 62
7
 10
16.929732
 20
8.198019
 42
0.044016
  0
VERTEX
  8
LAYER_1
 62
7
 10
16.914721
 20
7.217099
 42
-0.123570
  0
VERTEX
  8
LAYER_1
 62
7
 10
14.818119
 20
7.091237
 42
-0.026585
  0
VERTEX
  8
LAYER_1
 62
7
 10
14.363761
 20
7.234057
 42
-0.036314
  0
VERTEX
  8
LAYER_1
 62
7
 10
13.928916
 20
7.433270
 42
-0.048155
  0
VERTEX
  8
LAYER_1
 62
7
 10
13.536569
 20
7.700521
 42
-0.060141
  0
VERTEX
  8
LAYER_1
 62
7
 10
13.209707
 20
8.047458
 42
-0.065403
  0
VERTEX
  8
LAYER_1
 62
7
 10
12.948330
 20
8.444913
 42
-0.041580
  0
VERTEX
  8
LAYER_1
 62
7
 10
12.776564
 20
8.890510
  0
VERTEX
  8
LAYER_1
 62
7
 10
12.716623
 20
9.089658
  0
VERTEX
  8
LAYER_1
 62
7
 10
12.952335
 20
9.246628
 42
0.031573
  0
VERTEX
  8
LAYER_1
 62
7
 10
13.513076
 20
9.676254
 42
0.022126
  0
VERTEX
  8
LAYER_1
 62
7
 10
14.024810
 20
10.163674
 42
0.030799
  0
VERTEX
  8
LAYER_1
 62
7
 10
14.492763
 20
10.750947
 42
0.021167
  0
VERTEX
  8
LAYER_1
 62
7
 10
14.896752
 20
11.382995
 42
0.022219
  0
VERTEX
  8
LAYER_1
 62
7
 10
15.753281
 20
13.021396
 42
0.020274
  0
VERTEX
  8
LAYER_1
 62
7
 10
16.516584
 20
14.830559
  0
VERTEX
  8
LAYER_1
 62
7
 10
16.554941
 20
14.933145
  0
VERTEX
  8
LAYER_1
 62
7
 10
16.556937
 20
14.932739
  0
VERTEX
  8
LAYER_1
 62
7
 10
16.618190
 20
14.927806
 42
-0.068504
  0
VERTEX
  8
LAYER_1
 62
7
 10
17.326841
 20
14.750776
 42
-0.046459
  0
VERTEX
  8
LAYER_1
 62
7
 10
17.672074
 20
14.577262
 42
-0.079574
  0
VERTEX
  8
LAYER_1
 62
7
 10
17.934514
 20
14.352639
  0
VERTEX
  8
LAYER_1
 62
7
 10
17.950490
 20
14.332359
 42
0.061927
  0
VERTEX
  8
LAYER_1
 62
7
 10
17.983406
 20
14.444509
 42
0.094086
  0
VERTEX
  8
LAYER_1
 62
7
 10
17.973647
 20
14.715321
 42
0.066151
  0
VERTEX
  8
LAYER_1
 62
7
 10
17.876352
 20
14.978513
 42
0.091663
  0
VERTEX
  8
LAYER_1
 62
7
 10
17.535695
 20
15.409159
 42
0.136215
  0
VERTEX
  8
LAYER_1
 62
7
 10
16.833581
 20
15.740851
  0
VERTEX
  8
LAYER_1
 62
7
 10
16.858295
 20
15.819113
 42
0.017678
  0
VERTEX
  8
LAYER_1
 62
7
 10
17.142566
 20
16.835868
  0
VERTEX
  8
LAYER_1
 62
7
 10
17.175162
 20
16.970547
  0
VERTEX
  8
LAYER_1
 62
7
 10
17.435687
 20
17.866067
 42
-0.002052
  0
VERTEX
  8
LAYER_1
 62
7
 10
17.696724
 20
18.761485
 42
-0.015593
  0
VERTEX
  8
LAYER_1
 62
7
 10
18.274679
 20
20.534443
 42
-0.027773
  0
VERTEX
  8
LAYER_1
 62
7
 10
18.513734
 20
21.211289
 42
-0.038928
  0
VERTEX
  8
LAYER_1
 62
7
 10
18.840238
 20
21.849723
 42
-0.030733
  0
VERTEX
  8
LAYER_1
 62
7
 10
19.147400
 20
22.269125
 42
-0.004025
  0
VERTEX
  8
LAYER_1
 62
7
 10
19.483167
 20
22.666461
 42
-0.042237
  0
VERTEX
  8
LAYER_1
 62
7
 10
19.815052
 20
22.992488
 42
0.014256
  0
VERTEX
  8
LAYER_1
 62
7
 10
20.165326
 20
23.300127
 42
0.015155
  0
VERTEX
  8
LAYER_1
 62
7
 10
20.294059
 20
23.124458
 42
0.053175
  0
VERTEX
  8
LAYER_1
 62
7
 10
21.151350
 20
22.227389
 42
0.062751
  0
VERTEX
  8
LAYER_1
 62
7
 10
22.121499
 20
21.599530
 42
0.064003
  0
VERTEX
  8
LAYER_1
 62
7
 10
23.216042
 20
21.239858
 42
0.056059
  0
VERTEX
  8
LAYER_1
 62
7
 10
24.446518
 20
21.147352
 42
0.055997
  0
VERTEX
  8
LAYER_1
 62
7
 10
25.423525
 20
21.290306
 42
0.048931
  0
VERTEX
  8
LAYER_1
 62
7
 10
26.348919
 20
21.633299
 42
0.040881
  0
VERTEX
  8
LAYER_1
 62
7
 10
27.128088
 20
22.094859
 42
0.035672
  0
VERTEX
  8
LAYER_1
 62
7
 10
27.849881
 20
22.687324
 42
0.062553
  0
VERTEX
  8
LAYER_1
 62
7
 10
29.065574
 20
24.174188
 42
0.062172
  0
VERTEX
  8
LAYER_1
 62
7
 10
29.884465
 20
25.912325
 42
0.035204
  0
VERTEX
  8
LAYER_1
 62
7
 10
30.110256
 20
26.818882
 42
0.040264
  0
VERTEX
  8
LAYER_1
 62
7
 10
30.195023
 20
27.720172
 42
0.088763
  0
VERTEX
  8
LAYER_1
 62
7
 10
29.937310
 20
29.302793
 42
0.039374
  0
VERTEX
  8
LAYER_1
 62
7
 10
29.626833
 20
29.998196
 42
0.032522
  0
VERTEX
  8
LAYER_1
 62
7
 10
29.218092
 20
30.644032
 42
0.024829
  0
VERTEX
  8
LAYER_1
 62
7
 10
28.728201
 20
31.251080
 42
0.017387
  0
VERTEX
  8
LAYER_1
 62
7
 10
28.174272
 20
31.830117
 42
0.010594
  0
VERTEX
  8
LAYER_1
 62
7
 10
27.573418
 20
32.391921
 42
0.004417
  0
VERTEX
  8
LAYER_1
 62
7
 10
26.942753
 20
32.947273
 42
0.013672
  0
VERTEX
  8
LAYER_1
 62
7
 10
26.481801
 20
33.329089
 42
0.039210
  0
VERTEX
  8
LAYER_1
 62
7
 10
26.138076
 20
33.564449
 42
0.011684
  0
VERTEX
  8
LAYER_1
 62
7
 10
25.978928
 20
33.643653
 42
0.046148
  0
VERTEX
  8
LAYER_1
 62
7
 10
25.798649
 20
33.344051
 42
0.010639
  0
VERTEX
  8
LAYER_1
 62
7
 10
25.653105
 20
33.025243
  0
VERTEX
  8
LAYER_1
 62
7
 10
25.481314
 20
32.641707
 42
0.007423
  0
VERTEX
  8
LAYER_1
 62
7
 10
25.311821
 20
32.256384
 42
0.019020
  0
VERTEX
  8
LAYER_1
 62
7
 10
25.163271
 20
31.863604
 42
0.030560
  0
VERTEX
  8
LAYER_1
 62
7
 10
25.054309
 20
31.457695
 42
0.028382
  0
VERTEX
  8
LAYER_1
 62
7
 10
24.988872
 20
31.046100
 42
0.018685
  0
VERTEX
  8
LAYER_1
 62
7
 10
24.962565
 20
30.631295
 42
0.005943
  0
VERTEX
  8
LAYER_1
 62
7
 10
24.940424
 20
28.929573
 42
-0.004264
  0
VERTEX
  8
LAYER_1
 62
7
 10
24.924666
 20
27.265038
 42
-0.009097
  0
VERTEX
  8
LAYER_1
 62
7
 10
24.878982
 20
26.121395
  0
VERTEX
  8
LAYER_1
 62
7
 10
24.866334
 20
25.922514
 42
-0.098493
  0
VERTEX
  8
LAYER_1
 62
7
 10
24.764446
 20
25.667862
 42
-0.131231
  0
VERTEX
  8
LAYER_1
 62
7
 10
24.562850
 20
25.483906
 42
-0.100929
  0
VERTEX
  8
LAYER_1
 62
7
 10
23.934836
 20
25.318610
 42
-0.074861
  0
VERTEX
  8
LAYER_1
 62
7
 10
23.285165
 20
25.377659
 42
0.024831
  0
VERTEX
  8
LAYER_1
 62
7
 10
23.693998
 20
25.749183
 42
0.039307
  0
VERTEX
  8
LAYER_1
 62
7
 10
24.051961
 20
26.169596
 42
0.033968
  0
VERTEX
  8
LAYER_1
 62
7
 10
24.178309
 20
26.371167
 42
0.049147
  0
VERTEX
  8
LAYER_1
 62
7
 10
24.254555
 20
26.553794
 42
0.147786
  0
VERTEX
  8
LAYER_1
 62
7
 10
24.262128
 20
26.872879
 42
0.072286
  0
VERTEX
  8
LAYER_1
 62
7
 10
24.196151
 20
27.014668
 42
0.055325
  0
VERTEX
  8
LAYER_1
 62
7
 10
24.085462
 20
27.148174
 42
0.062849
  0
VERTEX
  8
LAYER_1
 62
7
 10
23.735336
 20
27.401004
  0
VERTEX
  8
LAYER_1
 62
7
 10
23.658111
 20
27.443717
  0
VERTEX
  8
LAYER_1
 62
7
 10
23.624309
 20
27.461499
 42
0.076160
  0
VERTEX
  8
LAYER_1
 62
7
 10
22.799799
 20
27.748968
 42
0.087295
  0
VERTEX
  8
LAYER_1
 62
7
 10
21.999678
 20
27.753325
 42
0.085230
  0
VERTEX
  8
LAYER_1
 62
7
 10
21.242688
 20
27.481703
 42
0.071943
  0
VERTEX
  8
LAYER_1
 62
7
 10
20.547569
 20
26.941235
 42
0.050763
  0
VERTEX
  8
LAYER_1
 62
7
 10
20.380895
 20
26.736057
 42
0.081775
  0
VERTEX
  8
LAYER_1
 62
7
 10
20.286271
 20
26.525554
 42
0.026360
  0
VERTEX
  8
LAYER_1
 62
7
 10
20.272765
 20
26.451815
  0
VERTEX
  8
LAYER_1
 62
7
 10
20.263399
 20
26.377468
  0
VERTEX
  8
LAYER_1
 62
7
 10
20.366463
 20
26.385040
 42
-0.060209
  0
VERTEX
  8
LAYER_1
 62
7
 10
20.761029
 20
26.374872
 42
-0.078056
  0
VERTEX
  8
LAYER_1
 62
7
 10
21.109325
 20
26.266011
 42
-0.086882
  0
VERTEX
  8
LAYER_1
 62
7
 10
21.401997
 20
26.048987
 42
-0.078198
  0
VERTEX
  8
LAYER_1
 62
7
 10
21.629690
 20
25.714330
  0
VERTEX
  8
LAYER_1
 62
7
 10
21.645152
 20
25.681143
 42
-0.015322
  0
VERTEX
  8
LAYER_1
 62
7
 10
21.353961
 20
25.482995
  0
VERTEX
  8
LAYER_1
 62
7
 10
21.056436
 20
25.294092
 42
0.014161
  0
VERTEX
  8
LAYER_1
 62
7
 10
20.764632
 20
25.097527
 42
0.028859
  0
VERTEX
  8
LAYER_1
 62
7
 10
20.490604
 20
24.876392
 42
0.025225
  0
VERTEX
  8
LAYER_1
 62
7
 10
20.079920
 20
24.538174
 42
-0.014304
  0
VERTEX
  8
LAYER_1
 62
7
 10
19.676591
 20
24.190965
 42
0.039003
  0
VERTEX
  8
LAYER_1
 62
7
 10
19.676591
 20
24.190965
  0
VERTEX
  8
LAYER_1
 62
7
 10
19.665751
 20
24.209707
  0
VERTEX
  8
LAYER_1
 62
7
 10
19.549374
 20
24.415465
  0
VERTEX
  8
LAYER_1
 62
7
 10
19.378018
 20
24.721330
 42
0.171348
  0
VERTEX
  8
LAYER_1
 62
7
 10
19.575849
 20
25.284424
 42
0.196347
  0
VERTEX
  8
LAYER_1
 62
7
 10
19.320140
 20
25.912885
 42
0.195813
  0
VERTEX
  8
LAYER_1
 62
7
 10
18.700002
 20
26.184245
  0
SEQEND
  0
POLYLINE
  8
LAYER_1
 62
2
 70
1
 66
1
  0
VERTEX
  8
LAYER_1
 62
7
 10
19.303086
 20
24.638937
 42
-0.039759
  0
VERTEX
  8
LAYER_1
 62
7
 10
19.595423
 20
24.062798
 42
-0.002834
  0
VERTEX
  8
LAYER_1
 62
7
 10
19.258469
 20
23.654438
 42
0.028761
  0
VERTEX
  8
LAYER_1
 62
7
 10
18.943216
 20
23.229296
 42
0.007079
  0
VERTEX
  8
LAYER_1
 62
7
 10
18.483427
 20
22.519486
 42
0.043223
  0
VERTEX
  8
LAYER_1
 62
7
 10
18.097601
 20
21.767995
 42
0.029521
  0
VERTEX
  8
LAYER_1
 62
7
 10
17.812710
 20
21.076029
 42
0.010503
  0
VERTEX
  8
LAYER_1
 62
7
 10
17.583803
 20
20.362814
 42
-0.011666
  0
VERTEX
  8
LAYER_1
 62
7
 10
17.330105
 20
19.465165
  0
VERTEX
  8
LAYER_1
 62
7
 10
17.058018
 20
18.572421
 42
-0.012701
  0
VERTEX
  8
LAYER_1
 62
7
 10
16.677849
 20
17.219903
 42
-0.005282
  0
VERTEX
  8
LAYER_1
 62
7
 10
16.443245
 20
16.486822
 42
-0.009969
  0
VERTEX
  8
LAYER_1
 62
7
 10
16.216213
 20
15.845048
 42
0.108663
  0
VERTEX
  8
LAYER_1
 62
7
 10
15.404883
 20
15.574613
 42
0.024839
  0
VERTEX
  8
LAYER_1
 62
7
 10
14.848631
 20
15.236819
 42
0.037398
  0
VERTEX
  8
LAYER_1
 62
7
 10
14.859775
 20
15.473999
 42
0.033624
  0
VERTEX
  8
LAYER_1
 62
7
 10
14.779979
 20
16.222246
 42
0.034283
  0
VERTEX
  8
LAYER_1
 62
7
 10
14.573656
 20
17.086153
 42
0.024329
  0
VERTEX
  8
LAYER_1
 62
7
 10
14.421635
 20
17.498555
 42
0.034600
  0
VERTEX
  8
LAYER_1
 62
7
 10
14.236288
 20
17.864365
 42
0.053093
  0
VERTEX
  8
LAYER_1
 62
7
 10
14.017050
 20
18.158411
 42
0.083961
  0
VERTEX
  8
LAYER_1
 62
7
 10
13.763356
 20
18.355526
  0
VERTEX
  8
LAYER_1
 62
7
 10
13.647741
 20
18.415340
  0
VERTEX
  8
LAYER_1
 62
7
 10
13.786410
 20
18.727242
 42
0.024148
  0
VERTEX
  8
LAYER_1
 62
7
 10
14.045944
 20
19.406435
 42
0.008948
  0
VERTEX
  8
LAYER_1
 62
7
 10
14.260188
 20
20.101828
 42
0.017550
  0
VERTEX
  8
LAYER_1
 62
7
 10
14.400566
 20
20.579805
 42
-0.007049
  0
VERTEX
  8
LAYER_1
 62
7
 10
14.530887
 20
21.060654
 42
-0.021070
  0
VERTEX
  8
LAYER_1
 62
7
 10
14.638317
 20
21.375154
 42
-0.007716
  0
VERTEX
  8
LAYER_1
 62
7
 10
14.853875
 20
21.618296
 42
-0.020325
  0
VERTEX
  8
LAYER_1
 62
7
 10
15.082919
 20
21.849178
 42
-0.059500
  0
VERTEX
  8
LAYER_1
 62
7
 10
15.394959
 20
22.063093
 42
-0.013957
  0
VERTEX
  8
LAYER_1
 62
7
 10
15.737494
 20
22.230372
 42
0.030979
  0
VERTEX
  8
LAYER_1
 62
7
 10
16.072162
 20
22.407970
 42
0.076204
  0
VERTEX
  8
LAYER_1
 62
7
 10
16.360604
 20
22.652839
 42
0.074213
  0
VERTEX
  8
LAYER_1
 62
7
 10
16.803911
 20
23.459633
 42
0.048300
  0
VERTEX
  8
LAYER_1
 62
7
 10
17.040038
 20
24.352242
  0
VERTEX
  8
LAYER_1
 62
7
 10
17.103258
 20
24.793625
 42
0.009143
  0
VERTEX
  8
LAYER_1
 62
7
 10
17.161268
 20
25.236133
 42
0.021619
  0
VERTEX
  8
LAYER_1
 62
7
 10
17.191899
 20
25.680070
 42
0.033906
  0
VERTEX
  8
LAYER_1
 62
7
 10
17.172982
 20
26.125745
 42
0.008647
  0
VERTEX
  8
LAYER_1
 62
7
 10
16.981738
 20
26.113758
 42
-0.025435
  0
VERTEX
  8
LAYER_1
 62
7
 10
16.915811
 20
25.610857
 42
-0.013782
  0
VERTEX
  8
LAYER_1
 62
7
 10
16.810654
 20
25.114494
 42
-0.067460
  0
VERTEX
  8
LAYER_1
 62
7
 10
16.720140
 20
24.875847
 42
-0.087219
  0
VERTEX
  8
LAYER_1
 62
7
 10
16.562200
 20
24.676431
 42
-0.045908
  0
VERTEX
  8
LAYER_1
 62
7
 10
16.260912
 20
24.450503
 42
-0.019673
  0
VERTEX
  8
LAYER_1
 62
7
 10
15.932756
 20
24.266155
  0
VERTEX
  8
LAYER_1
 62
7
 10
15.765275
 20
24.179133
  0
VERTEX
  8
LAYER_1
 62
7
 10
15.599084
 20
24.089979
 42
0.032963
  0
VERTEX
  8
LAYER_1
 62
7
 10
15.281246
 20
23.888570
  0
VERTEX
  8
LAYER_1
 62
7
 10
15.148191
 20
23.792718
 42
0.012868
  0
VERTEX
  8
LAYER_1
 62
7
 10
15.015289
 20
23.695079
 42
0.091653
  0
VERTEX
  8
LAYER_1
 62
7
 10
14.793056
 20
23.457045
 42
0.044655
  0
VERTEX
  8
LAYER_1
 62
7
 10
14.160479
 20
21.791968
 42
-0.019155
  0
VERTEX
  8
LAYER_1
 62
7
 10
13.710702
 20
20.274684
 42
-0.024080
  0
VERTEX
  8
LAYER_1
 62
7
 10
13.131793
 20
18.802349
 42
0.055614
  0
VERTEX
  8
LAYER_1
 62
7
 10
12.818565
 20
18.962162
 42
0.061377
  0
VERTEX
  8
LAYER_1
 62
7
 10
12.355120
 20
19.075220
 42
0.061207
  0
VERTEX
  8
LAYER_1
 62
7
 10
11.741372
 20
19.069804
 42
0.048631
  0
VERTEX
  8
LAYER_1
 62
7
 10
11.118632
 20
18.925364
 42
0.038846
  0
VERTEX
  8
LAYER_1
 62
7
 10
10.505011
 20
18.664703
 42
0.032471
  0
VERTEX
  8
LAYER_1
 62
7
 10
9.918620
 20
18.310621
 42
0.057338
  0
VERTEX
  8
LAYER_1
 62
7
 10
8.899967
 20
17.413398
 42
0.031216
  0
VERTEX
  8
LAYER_1
 62
7
 10
8.503927
 20
16.915861
 42
0.038252
  0
VERTEX
  8
LAYER_1
 62
7
 10
8.207560
 20
16.416108
 42
0.053410
  0
VERTEX
  8
LAYER_1
 62
7
 10
7.560425
 20
15.014362
  0
VERTEX
  8
LAYER_1
 62
7
 10
7.547440
 20
14.976417
  0
VERTEX
  8
LAYER_1
 62
7
 10
7.368601
 20
15.004020
 42
-0.011537
  0
VERTEX
  8
LAYER_1
 62
7
 10
7.104734
 20
15.049631
 42
-0.027015
  0
VERTEX
  8
LAYER_1
 62
7
 10
6.846214
 20
15.115112
  0
VERTEX
  8
LAYER_1
 62
7
 10
6.846214
 20
15.200728
  0
VERTEX
  8
LAYER_1
 62
7
 10
6.846214
 20
17.452110
  0
VERTEX
  8
LAYER_1
 62
7
 10
7.129234
 20
17.470882
  0
VERTEX
  8
LAYER_1
 62
7
 10
7.235431
 20
17.480158
 42
0.074569
  0
VERTEX
  8
LAYER_1
 62
7
 10
8.205384
 20
17.741200
 42
0.057437
  0
VERTEX
  8
LAYER_1
 62
7
 10
9.090115
 20
18.254427
 42
0.046074
  0
VERTEX
  8
LAYER_1
 62
7
 10
9.856233
 20
18.940549
 42
0.041803
  0
VERTEX
  8
LAYER_1
 62
7
 10
10.470345
 20
19.720281
 42
0.011844
  0
VERTEX
  8
LAYER_1
 62
7
 10
10.822857
 20
20.289657
  0
VERTEX
  8
LAYER_1
 62
7
 10
11.162687
 20
20.865715
  0
VERTEX
  8
LAYER_1
 62
7
 10
11.441994
 20
21.487735
 42
0.014852
  0
VERTEX
  8
LAYER_1
 62
7
 10
11.703728
 20
22.116702
  0
VERTEX
  8
LAYER_1
 62
7
 10
11.761551
 20
22.056836
 42
-0.086199
  0
VERTEX
  8
LAYER_1
 62
7
 10
11.805071
 20
21.985937
 42
-0.029936
  0
VERTEX
  8
LAYER_1
 62
7
 10
12.127363
 20
21.137491
  0
VERTEX
  8
LAYER_1
 62
7
 10
12.295834
 20
21.155153
 42
0.018678
  0
VERTEX
  8
LAYER_1
 62
7
 10
12.028462
 20
22.216955
 42
0.014335
  0
VERTEX
  8
LAYER_1
 62
7
 10
11.930541
 20
22.544124
  0
VERTEX
  8
LAYER_1
 62
7
 10
11.897152
 20
22.652839
 42
0.043068
  0
VERTEX
  8
LAYER_1
 62
7
 10
12.037835
 20
22.913799
 42
0.013063
  0
VERTEX
  8
LAYER_1
 62
7
 10
12.148534
 20
23.189317
 42
-0.016829
  0
VERTEX
  8
LAYER_1
 62
7
 10
12.261175
 20
23.463711
 42
-0.046820
  0
VERTEX
  8
LAYER_1
 62
7
 10
12.407681
 20
23.721300
 42
-0.080666
  0
VERTEX
  8
LAYER_1
 62
7
 10
12.682247
 20
24.029340
 42
-0.052021
  0
VERTEX
  8
LAYER_1
 62
7
 10
13.029419
 20
24.255890
 42
-0.017412
  0
VERTEX
  8
LAYER_1
 62
7
 10
13.636910
 20
24.505279
  0
VERTEX
  8
LAYER_1
 62
7
 10
13.809344
 20
24.569810
 42
0.014474
  0
VERTEX
  8
LAYER_1
 62
7
 10
14.117566
 20
24.693367
 42
0.036637
  0
VERTEX
  8
LAYER_1
 62
7
 10
14.386313
 20
24.834460
 42
0.051539
  0
VERTEX
  8
LAYER_1
 62
7
 10
14.626847
 20
25.022946
 42
0.049055
  0
VERTEX
  8
LAYER_1
 62
7
 10
14.850433
 20
25.288679
 42
0.035806
  0
VERTEX
  8
LAYER_1
 62
7
 10
15.068333
 20
25.661512
 42
0.022872
  0
VERTEX
  8
LAYER_1
 62
7
 10
15.291811
 20
26.171301
 42
0.024515
  0
VERTEX
  8
LAYER_1
 62
7
 10
15.604212
 20
27.096553
 42
0.030259
  0
VERTEX
  8
LAYER_1
 62
7
 10
15.813569
 20
28.050172
 42
0.024776
  0
VERTEX
  8
LAYER_1
 62
7
 10
15.830783
 20
28.246329
  0
VERTEX
  8
LAYER_1
 62
7
 10
15.836044
 20
28.443353
 42
-0.046107
  0
VERTEX
  8
LAYER_1
 62
7
 10
15.870779
 20
28.835308
 42
0.024409
  0
VERTEX
  8
LAYER_1
 62
7
 10
16.201330
 20
28.868393
 42
0.017404
  0
VERTEX
  8
LAYER_1
 62
7
 10
16.702689
 20
28.963217
 42
0.010357
  0
VERTEX
  8
LAYER_1
 62
7
 10
17.257993
 20
29.098823
 42
0.020810
  0
VERTEX
  8
LAYER_1
 62
7
 10
18.203995
 20
29.386795
 42
-0.006533
  0
VERTEX
  8
LAYER_1
 62
7
 10
18.437591
 20
29.469519
 42
0.007199
  0
VERTEX
  8
LAYER_1
 62
7
 10
18.451357
 20
28.816102
  0
VERTEX
  8
LAYER_1
 62
7
 10
18.474981
 20
28.162685
 42
-0.006514
  0
VERTEX
  8
LAYER_1
 62
7
 10
18.490535
 20
27.509268
 42
-0.013374
  0
VERTEX
  8
LAYER_1
 62
7
 10
18.480089
 20
26.855850
 42
-0.011885
  0
VERTEX
  8
LAYER_1
 62
7
 10
18.469992
 20
26.508541
 42
0.030217
  0
VERTEX
  8
LAYER_1
 62
7
 10
18.472602
 20
26.161559
 42
0.167999
  0
VERTEX
  8
LAYER_1
 62
7
 10
17.974338
 20
25.848692
 42
0.171778
  0
VERTEX
  8
LAYER_1
 62
7
 10
17.775563
 20
25.284424
 42
0.199589
  0
VERTEX
  8
LAYER_1
 62
7
 10
18.039208
 20
24.647926
 42
0.199589
  0
VERTEX
  8
LAYER_1
 62
7
 10
18.675706
 20
24.384280
 42
0.195914
  0
VERTEX
  8
LAYER_1
 62
7
 10
19.303086
 20
24.638937
  0
SEQEND
  0
POLYLINE
  8
LAYER_1
 62
2
 70
1
 66
1
  0
VERTEX
  8
LAYER_1
 62
7
 10
4.982891
 20
18.244549
  0
VERTEX
  8
LAYER_1
 62
7
 10
5.072623
 20
18.134931
 42
0.066681
  0
VERTEX
  8
LAYER_1
 62
7
 10
5.482036
 20
17.746733
 42
0.086141
  0
VERTEX
  8
LAYER_1
 62
7
 10
5.987654
 20
17.501425
 42
0.093622
  0
VERTEX
  8
LAYER_1
 62
7
 10
6.417001
 20
17.460372
 42
0.011637
  0
VERTEX
  8
LAYER_1
 62
7
 10
6.404366
 20
16.430005
 42
-0.002433
  0
VERTEX
  8
LAYER_1
 62
7
 10
6.410693
 20
15.399221
  0
VERTEX
  8
LAYER_1
 62
7
 10
6.405657
 20
15.399221
  0
VERTEX
  8
LAYER_1
 62
7
 10
6.405657
 20
15.326113
 42
-0.067122
  0
VERTEX
  8
LAYER_1
 62
7
 10
5.891856
 20
15.763868
 42
-0.042008
  0
VERTEX
  8
LAYER_1
 62
7
 10
5.482575
 20
16.303645
 42
-0.061347
  0
VERTEX
  8
LAYER_1
 62
7
 10
5.157437
 20
17.155809
 42
-0.036199
  0
VERTEX
  8
LAYER_1
 62
7
 10
5.002656
 20
18.057703
  0
VERTEX
  8
LAYER_1
 62
7
 10
4.982891
 20
18.244549
  0
SEQEND
  0
POLYLINE
  8
LAYER_1
 62
2
 70
1
 66
1
  0
VERTEX
  8
LAYER_1
 62
7
 10
7.080338
 20
23.813935
 42
-0.092032
  0
VERTEX
  8
LAYER_1
 62
7
 10
7.975918
 20
24.453764
 42
-0.092032
  0
VERTEX
  8
LAYER_1
 62
7
 10
9.044716
 20
24.716658
 42
-0.080954
  0
VERTEX
  8
LAYER_1
 62
7
 10
9.775387
 20
24.631824
 42
-0.062836
  0
VERTEX
  8
LAYER_1
 62
7
 10
10.456011
 20
24.343524
 42
-0.043234
  0
VERTEX
  8
LAYER_1
 62
7
 10
11.069120
 20
23.856927
 42
-0.062054
  0
VERTEX
  8
LAYER_1
 62
7
 10
11.566288
 20
23.254914
  0
VERTEX
  8
LAYER_1
 62
7
 10
11.667875
 20
23.092858
  0
VERTEX
  8
LAYER_1
 62
7
 10
11.723883
 20
23.263164
  0
VERTEX
  8
LAYER_1
 62
7
 10
11.848256
 20
23.660689
 42
-0.014040
  0
VERTEX
  8
LAYER_1
 62
7
 10
12.052313
 20
24.266966
 42
-0.023335
  0
VERTEX
  8
LAYER_1
 62
7
 10
12.266397
 20
24.775298
 42
-0.033755
  0
VERTEX
  8
LAYER_1
 62
7
 10
12.505796
 20
25.200529
 42
-0.041610
  0
VERTEX
  8
LAYER_1
 62
7
 10
12.785798
 20
25.557508
 42
-0.042365
  0
VERTEX
  8
LAYER_1
 62
7
 10
13.121692
 20
25.861078
 42
-0.035587
  0
VERTEX
  8
LAYER_1
 62
7
 10
13.528764
 20
26.126088
 42
-0.025503
  0
VERTEX
  8
LAYER_1
 62
7
 10
14.022304
 20
26.367383
 42
-0.016117
  0
VERTEX
  8
LAYER_1
 62
7
 10
14.617598
 20
26.599810
  0
VERTEX
  8
LAYER_1
 62
7
 10
14.738570
 20
26.641722
  0
VERTEX
  8
LAYER_1
 62
7
 10
14.787960
 20
26.663480
  0
VERTEX
  8
LAYER_1
 62
7
 10
14.842118
 20
26.684408
 42
0.035740
  0
VERTEX
  8
LAYER_1
 62
7
 10
14.949906
 20
26.732304
 42
0.114606
  0
VERTEX
  8
LAYER_1
 62
7
 10
15.032256
 20
26.802472
 42
0.176741
  0
VERTEX
  8
LAYER_1
 62
7
 10
15.059490
 20
26.911970
 42
0.007213
  0
VERTEX
  8
LAYER_1
 62
7
 10
15.048865
 20
27.874525
 42
-0.010609
  0
VERTEX
  8
LAYER_1
 62
7
 10
15.044779
 20
28.837488
 42
-0.124596
  0
VERTEX
  8
LAYER_1
 62
7
 10
14.163544
 20
29.022262
 42
-0.128037
  0
VERTEX
  8
LAYER_1
 62
7
 10
13.475597
 20
29.601374
 42
-0.044248
  0
VERTEX
  8
LAYER_1
 62
7
 10
13.392055
 20
29.813016
  0
VERTEX
  8
LAYER_1
 62
7
 10
13.360944
 20
29.922949
  0
VERTEX
  8
LAYER_1
 62
7
 10
13.332368
 20
30.033853
 42
0.020235
  0
VERTEX
  8
LAYER_1
 62
7
 10
13.269105
 20
30.253259
 42
0.052573
  0
VERTEX
  8
LAYER_1
 62
7
 10
13.174837
 20
30.460611
 42
0.116950
  0
VERTEX
  8
LAYER_1
 62
7
 10
13.066768
 20
30.565180
 42
0.085284
  0
VERTEX
  8
LAYER_1
 62
7
 10
12.926928
 20
30.617597
 42
0.088764
  0
VERTEX
  8
LAYER_1
 62
7
 10
12.623444
 20
30.616439
 42
0.091705
  0
VERTEX
  8
LAYER_1
 62
7
 10
11.999517
 20
30.357633
 42
0.071404
  0
VERTEX
  8
LAYER_1
 62
7
 10
11.487966
 20
29.912487
 42
0.151459
  0
VERTEX
  8
LAYER_1
 62
7
 10
11.404603
 20
29.739767
  0
VERTEX
  8
LAYER_1
 62
7
 10
11.606763
 20
29.729495
  0
VERTEX
  8
LAYER_1
 62
7
 10
11.810082
 20
29.721224
 42
-0.013585
  0
VERTEX
  8
LAYER_1
 62
7
 10
12.216515
 20
29.695682
 42
-0.037674
  0
VERTEX
  8
LAYER_1
 62
7
 10
12.600430
 20
29.634178
 42
-0.088398
  0
VERTEX
  8
LAYER_1
 62
7
 10
12.924923
 20
29.496206
 42
-0.147839
  0
VERTEX
  8
LAYER_1
 62
7
 10
13.137355
 20
29.236869
 42
-0.069260
  0
VERTEX
  8
LAYER_1
 62
7
 10
13.185096
 20
29.047660
 42
-0.054134
  0
VERTEX
  8
LAYER_1
 62
7
 10
13.185082
 20
28.811274
  0
VERTEX
  8
LAYER_1
 62
7
 10
13.180285
 20
28.773740
 42
-0.035470
  0
VERTEX
  8
LAYER_1
 62
7
 10
13.022160
 20
28.130411
 42
-0.051883
  0
VERTEX
  8
LAYER_1
 62
7
 10
12.795924
 20
27.631699
 42
-0.054364
  0
VERTEX
  8
LAYER_1
 62
7
 10
12.501298
 20
27.236515
 42
-0.049213
  0
VERTEX
  8
LAYER_1
 62
7
 10
12.148782
 20
26.926957
 42
-0.038568
  0
VERTEX
  8
LAYER_1
 62
7
 10
11.748875
 20
26.685121
 42
-0.026276
  0
VERTEX
  8
LAYER_1
 62
7
 10
11.312076
 20
26.493106
 42
-0.016420
  0
VERTEX
  8
LAYER_1
 62
7
 10
10.610671
 20
26.259336
 42
0.004089
  0
VERTEX
  8
LAYER_1
 62
7
 10
9.885317
 20
26.036962
 42
0.005209
  0
VERTEX
  8
LAYER_1
 62
7
 10
9.298739
 20
25.839696
 42
0.007344
  0
VERTEX
  8
LAYER_1
 62
7
 10
8.870607
 20
25.653966
 42
0.019575
  0
VERTEX
  8
LAYER_1
 62
7
 10
8.354673
 20
25.398684
 42
0.040528
  0
VERTEX
  8
LAYER_1
 62
7
 10
7.890326
 20
25.095306
 42
0.062247
  0
VERTEX
  8
LAYER_1
 62
7
 10
7.506068
 20
24.711255
 42
0.074894
  0
VERTEX
  8
LAYER_1
 62
7
 10
7.230402
 20
24.213957
  0
VERTEX
  8
LAYER_1
 62
7
 10
7.080338
 20
23.813935
  0
SEQEND
  0
POLYLINE
  8
LAYER_1
 62
2
 70
1
 66
1
  0
VERTEX
  8
LAYER_1
 62
7
 10
6.661255
 20
23.373665
  0
VERTEX
  8
LAYER_1
 62
7
 10
6.699645
 20
23.627697
 42
-0.048507
  0
VERTEX
  8
LAYER_1
 62
7
 10
6.959845
 20
24.614664
 42
-0.036834
  0
VERTEX
  8
LAYER_1
 62
7
 10
7.420761
 20
25.638745
 42
-0.038157
  0
VERTEX
  8
LAYER_1
 62
7
 10
8.024052
 20
26.581815
 42
-0.023731
  0
VERTEX
  8
LAYER_1
 62
7
 10
8.360857
 20
26.986057
 42
-0.030061
  0
VERTEX
  8
LAYER_1
 62
7
 10
8.711380
 20
27.325750
 42
-0.018855
  0
VERTEX
  8
LAYER_1
 62
7
 10
9.115820
 20
27.639837
 42
0.004516
  0
VERTEX
  8
LAYER_1
 62
7
 10
9.529212
 20
27.942291
 42
-0.024943
  0
VERTEX
  8
LAYER_1
 62
7
 10
9.678792
 20
28.038858
  0
VERTEX
  8
LAYER_1
 62
7
 10
9.834195
 20
28.125975
 42
0.043867
  0
VERTEX
  8
LAYER_1
 62
7
 10
10.133456
 20
28.316606
 42
0.016153
  0
VERTEX
  8
LAYER_1
 62
7
 10
10.232875
 20
28.547514
  0
VERTEX
  8
LAYER_1
 62
7
 10
10.325654
 20
28.782253
 42
-0.018127
  0
VERTEX
  8
LAYER_1
 62
7
 10
10.427218
 20
29.013008
 42
-0.035154
  0
VERTEX
  8
LAYER_1
 62
7
 10
10.552995
 20
29.231963
 42
0.048679
  0
VERTEX
  8
LAYER_1
 62
7
 10
10.007451
 20
29.158891
 42
0.047303
  0
VERTEX
  8
LAYER_1
 62
7
 10
8.897212
 20
28.795418
 42
0.048964
  0
VERTEX
  8
LAYER_1
 62
7
 10
7.923064
 20
28.249810
 42
0.045608
  0
VERTEX
  8
LAYER_1
 62
7
 10
7.068772
 20
27.528411
 42
0.038673
  0
VERTEX
  8
LAYER_1
 62
7
 10
6.318101
 20
26.637568
 42
0.045135
  0
VERTEX
  8
LAYER_1
 62
7
 10
5.662093
 20
25.523861
 42
0.033965
  0
VERTEX
  8
LAYER_1
 62
7
 10
5.187995
 20
24.317447
 42
0.032895
  0
VERTEX
  8
LAYER_1
 62
7
 10
4.951629
 20
23.395784
 42
0.041212
  0
VERTEX
  8
LAYER_1
 62
7
 10
4.870451
 20
22.577009
 42
0.033007
  0
VERTEX
  8
LAYER_1
 62
7
 10
4.916125
 20
21.751494
 42
0.015114
  0
VERTEX
  8
LAYER_1
 62
7
 10
5.060316
 20
20.809613
  0
VERTEX
  8
LAYER_1
 62
7
 10
5.081017
 20
20.692451
 42
-0.074650
  0
VERTEX
  8
LAYER_1
 62
7
 10
6.185817
 20
22.796056
 42
-0.016103
  0
VERTEX
  8
LAYER_1
 62
7
 10
6.404801
 20
23.071659
  0
VERTEX
  8
LAYER_1
 62
7
 10
6.661255
 20
23.373665
  0
SEQEND
  0
POLYLINE
  8
LAYER_1
 62
2
 70
1
 66
1
  0
VERTEX
  8
LAYER_1
 62
7
 10
6.949934
 20
22.748032
  0
VERTEX
  8
LAYER_1
 62
7
 10
7.175941
 20
22.941944
 42
-0.049898
  0
VERTEX
  8
LAYER_1
 62
7
 10
7.754907
 20
23.341824
 42
-0.034953
  0
VERTEX
  8
LAYER_1
 62
7
 10
8.394279
 20
23.639027
 42
-0.068653
  0
VERTEX
  8
LAYER_1
 62
7
 10
9.363508
 20
23.791859
 42
-0.045554
  0
VERTEX
  8
LAYER_1
 62
7
 10
9.851979
 20
23.753804
 42
-0.054121
  0
VERTEX
  8
LAYER_1
 62
7
 10
10.324156
 20
23.619412
 42
-0.058024
  0
VERTEX
  8
LAYER_1
 62
7
 10
10.914506
 20
23.192859
 42
-0.040105
  0
VERTEX
  8
LAYER_1
 62
7
 10
11.411686
 20
22.658833
  0
VERTEX
  8
LAYER_1
 62
7
 10
11.414410
 20
22.562938
 42
0.007750
  0
VERTEX
  8
LAYER_1
 62
7
 10
11.057258
 20
21.944119
 42
-0.021408
  0
VERTEX
  8
LAYER_1
 62
7
 10
10.683760
 20
21.335925
 42
-0.018399
  0
VERTEX
  8
LAYER_1
 62
7
 10
10.322317
 20
20.890574
 42
-0.039174
  0
VERTEX
  8
LAYER_1
 62
7
 10
9.912245
 20
20.489765
 42
-0.027225
  0
VERTEX
  8
LAYER_1
 62
7
 10
9.231909
 20
20.064668
 42
-0.035661
  0
VERTEX
  8
LAYER_1
 62
7
 10
8.501616
 20
19.726764
 42
-0.045834
  0
VERTEX
  8
LAYER_1
 62
7
 10
7.730868
 20
19.512781
 42
-0.056118
  0
VERTEX
  8
LAYER_1
 62
7
 10
6.929165
 20
19.459444
  0
VERTEX
  8
LAYER_1
 62
7
 10
6.917178
 20
20.828052
 42
-0.009184
  0
VERTEX
  8
LAYER_1
 62
7
 10
6.931344
 20
22.196251
  0
VERTEX
  8
LAYER_1
 62
7
 10
6.949934
 20
22.748032
  0
SEQEND
  0
POLYLINE
  8
LAYER_1
 62
2
 70
1
 66
1
  0
VERTEX
  8
LAYER_1
 62
7
 10
5.355623
 20
20.253843
 42
-0.042760
  0
VERTEX
  8
LAYER_1
 62
7
 10
5.854163
 20
21.322507
 42
-0.042760
  0
VERTEX
  8
LAYER_1
 62
7
 10
6.533884
 20
22.286128
  0
VERTEX
  8
LAYER_1
 62
7
 10
6.481451
 20
21.846066
 42
0.024659
  0
VERTEX
  8
LAYER_1
 62
7
 10
6.409269
 20
20.682360
 42
0.002661
  0
VERTEX
  8
LAYER_1
 62
7
 10
6.400655
 20
19.515020
 42
-0.079186
  0
VERTEX
  8
LAYER_1
 62
7
 10
5.828081
 20
19.811898
 42
-0.058426
  0
VERTEX
  8
LAYER_1
 62
7
 10
5.355623
 20
20.253843
  0
SEQEND
  0
POLYLINE
  8
LAYER_1
 62
2
 70
1
 66
1
  0
VERTEX
  8
LAYER_1
 62
7
 10
20.721865
 20
9.120953
  0
VERTEX
  8
LAYER_1
 62
7
 10
20.752004
 20
9.148092
 42
-0.023352
  0
VERTEX
  8
LAYER_1
 62
7
 10
20.628607
 20
8.944638
  0
VERTEX
  8
LAYER_1
 62
7
 10
20.493557
 20
8.747814
 42
0.040450
  0
VERTEX
  8
LAYER_1
 62
7
 10
20.258493
 20
8.349652
 42
0.048815
  0
VERTEX
  8
LAYER_1
 62
7
 10
20.165036
 20
8.094803
 42
0.094796
  0
VERTEX
  8
LAYER_1
 62
7
 10
20.146192
 20
7.845689
 42
0.207897
  0
VERTEX
  8
LAYER_1
 62
7
 10
20.292992
 20
7.592515
 42
0.226310
  0
VERTEX
  8
LAYER_1
 62
7
 10
20.580228
 20
7.546406
 42
0.139894
  0
VERTEX
  8
LAYER_1
 62
7
 10
20.744432
 20
7.646164
 42
0.016421
  0
VERTEX
  8
LAYER_1
 62
7
 10
20.821939
 20
7.737680
  0
VERTEX
  8
LAYER_1
 62
7
 10
20.844175
 20
7.762930
  0
VERTEX
  8
LAYER_1
 62
7
 10
20.873254
 20
7.782733
 42
-0.074318
  0
VERTEX
  8
LAYER_1
 62
7
 10
20.822078
 20
7.503942
 42
-0.038148
  0
VERTEX
  8
LAYER_1
 62
7
 10
20.738794
 20
7.307733
 42
-0.057948
  0
VERTEX
  8
LAYER_1
 62
7
 10
20.609684
 20
7.111275
 42
-0.053055
  0
VERTEX
  8
LAYER_1
 62
7
 10
20.531614
 20
7.037116
 42
-0.085088
  0
VERTEX
  8
LAYER_1
 62
7
 10
20.446492
 20
6.991890
 42
-0.248263
  0
VERTEX
  8
LAYER_1
 62
7
 10
20.260963
 20
7.026902
 42
-0.106957
  0
VERTEX
  8
LAYER_1
 62
7
 10
20.123403
 20
7.180650
 42
-0.073606
  0
VERTEX
  8
LAYER_1
 62
7
 10
20.047853
 20
7.376689
 42
-0.079879
  0
VERTEX
  8
LAYER_1
 62
7
 10
20.026300
 20
7.792623
 42
-0.056028
  0
VERTEX
  8
LAYER_1
 62
7
 10
20.108179
 20
8.170686
 42
-0.044844
  0
VERTEX
  8
LAYER_1
 62
7
 10
20.266015
 20
8.530919
 42
-0.080332
  0
VERTEX
  8
LAYER_1
 62
7
 10
20.721865
 20
9.120953
  0
SEQEND
  0
ENDSEC
  0
EOF
