  0
SECTION
  2
HEADER
  9
$EXTMIN
 10
0.000000
 20
0.000000
  9
$EXTMAX
 10
34.645669
 20
27.559055
  9
$LTSCALE
 40
100.000000
  9
$PDMODE
 70
35
  9
$PDSIZE
 40
80.000000
  0
ENDSEC
  0
SECTION
  2
TABLES
  0
TABLE
  2
LAYER
 70
1
  0
LAYER
  2
LAYER_1
 70
0
 62
1
  6
CONTINUOUS
  0
ENDTAB
  0
ENDSEC
  0
SECTION
  2
BLOCKS
  0
ENDSEC
  0
SECTION
  2
ENTITIES
  0
POLYLINE
  8
LAYER_1
 62
7
 70
1
 66
1
  0
VERTEX
  8
LAYER_1
 62
7
 10
12.767895
 20
25.723130
  0
VERTEX
  8
LAYER_1
 62
7
 10
2.397943
 20
25.723130
  0
VERTEX
  8
LAYER_1
 62
7
 10
2.397943
 20
2.078025
  0
VERTEX
  8
LAYER_1
 62
7
 10
12.767895
 20
2.078025
  0
VERTEX
  8
LAYER_1
 62
7
 10
12.767895
 20
25.723130
  0
SEQEND
  0
POLYLINE
  8
LAYER_1
 62
7
 70
1
 66
1
  0
VERTEX
  8
LAYER_1
 62
7
 10
14.323013
 20
27.278248
  0
VERTEX
  8
LAYER_1
 62
7
 10
0.842825
 20
27.278248
  0
VERTEX
  8
LAYER_1
 62
7
 10
0.842825
 20
0.522907
  0
VERTEX
  8
LAYER_1
 62
7
 10
14.323013
 20
0.522907
  0
VERTEX
  8
LAYER_1
 62
7
 10
14.323013
 20
27.278248
  0
SEQEND
  0
POLYLINE
  8
LAYER_1
 62
1
 70
1
 66
1
  0
VERTEX
  8
LAYER_1
 62
7
 10
2.391717
 20
16.332126
  0
VERTEX
  8
LAYER_1
 62
7
 10
2.391717
 20
15.122722
 42
0.061626
  0
VERTEX
  8
LAYER_1
 62
7
 10
3.303774
 20
14.818028
 42
0.079863
  0
VERTEX
  8
LAYER_1
 62
7
 10
4.271051
 20
14.780972
 42
0.005331
  0
VERTEX
  8
LAYER_1
 62
7
 10
4.312038
 20
13.078883
  0
VERTEX
  8
LAYER_1
 62
7
 10
4.369224
 20
11.377257
 42
0.081899
  0
VERTEX
  8
LAYER_1
 62
7
 10
3.714226
 20
10.723268
 42
0.029427
  0
VERTEX
  8
LAYER_1
 62
7
 10
3.469433
 20
10.340124
 42
0.020512
  0
VERTEX
  8
LAYER_1
 62
7
 10
3.262650
 20
9.931667
 42
0.013503
  0
VERTEX
  8
LAYER_1
 62
7
 10
2.995644
 20
9.291402
  0
VERTEX
  8
LAYER_1
 62
7
 10
2.911731
 20
9.075171
 42
-0.018049
  0
VERTEX
  8
LAYER_1
 62
7
 10
2.558700
 20
8.226496
 42
-0.102667
  0
VERTEX
  8
LAYER_1
 62
7
 10
2.391717
 20
7.973373
  0
VERTEX
  8
LAYER_1
 62
7
 10
2.391717
 20
6.912816
 42
0.048207
  0
VERTEX
  8
LAYER_1
 62
7
 10
2.683591
 20
7.324006
 42
0.031115
  0
VERTEX
  8
LAYER_1
 62
7
 10
2.907766
 20
7.778534
 42
0.014182
  0
VERTEX
  8
LAYER_1
 62
7
 10
3.092458
 20
8.257607
  0
VERTEX
  8
LAYER_1
 62
7
 10
3.265883
 20
8.742431
 42
-0.018278
  0
VERTEX
  8
LAYER_1
 62
7
 10
3.456254
 20
9.214214
 42
-0.035927
  0
VERTEX
  8
LAYER_1
 62
7
 10
3.691786
 20
9.654161
 42
-0.053242
  0
VERTEX
  8
LAYER_1
 62
7
 10
4.000695
 20
10.043479
 42
-0.064055
  0
VERTEX
  8
LAYER_1
 62
7
 10
4.411195
 20
10.363375
 42
0.009120
  0
VERTEX
  8
LAYER_1
 62
7
 10
4.386400
 20
8.739593
 42
0.004405
  0
VERTEX
  8
LAYER_1
 62
7
 10
4.405540
 20
7.115389
  0
VERTEX
  8
LAYER_1
 62
7
 10
4.438001
 20
5.491070
 42
-0.005018
  0
VERTEX
  8
LAYER_1
 62
7
 10
4.453167
 20
3.866944
 42
-0.097680
  0
VERTEX
  8
LAYER_1
 62
7
 10
3.400706
 20
3.610055
 42
-0.067911
  0
VERTEX
  8
LAYER_1
 62
7
 10
2.864450
 20
3.659503
 42
-0.094314
  0
VERTEX
  8
LAYER_1
 62
7
 10
2.391717
 20
3.867332
  0
VERTEX
  8
LAYER_1
 62
7
 10
2.391717
 20
2.682229
 42
0.161262
  0
VERTEX
  8
LAYER_1
 62
7
 10
3.478193
 20
2.548823
 42
0.038840
  0
VERTEX
  8
LAYER_1
 62
7
 10
3.298785
 20
2.078025
  0
VERTEX
  8
LAYER_1
 62
7
 10
3.498569
 20
2.078025
 42
-0.058775
  0
VERTEX
  8
LAYER_1
 62
7
 10
3.659431
 20
2.379315
 42
-0.073225
  0
VERTEX
  8
LAYER_1
 62
7
 10
3.886947
 20
2.621396
 42
-0.082881
  0
VERTEX
  8
LAYER_1
 62
7
 10
4.185131
 20
2.784631
 42
-0.079269
  0
VERTEX
  8
LAYER_1
 62
7
 10
4.557996
 20
2.849383
 42
0.032023
  0
VERTEX
  8
LAYER_1
 62
7
 10
4.694796
 20
2.078025
  0
VERTEX
  8
LAYER_1
 62
7
 10
5.577390
 20
2.078025
 42
-0.088112
  0
VERTEX
  8
LAYER_1
 62
7
 10
5.293527
 20
3.188126
 42
0.020621
  0
VERTEX
  8
LAYER_1
 62
7
 10
6.760112
 20
4.010661
 42
0.009994
  0
VERTEX
  8
LAYER_1
 62
7
 10
8.172397
 20
4.920729
 42
-0.000667
  0
VERTEX
  8
LAYER_1
 62
7
 10
9.568204
 20
5.857463
 42
-0.011329
  0
VERTEX
  8
LAYER_1
 62
7
 10
10.985356
 20
6.760000
  0
VERTEX
  8
LAYER_1
 62
7
 10
11.704110
 20
7.191698
  0
VERTEX
  8
LAYER_1
 62
7
 10
11.849656
 20
7.028892
 42
-0.013964
  0
VERTEX
  8
LAYER_1
 62
7
 10
12.331573
 20
6.464499
 42
-0.029800
  0
VERTEX
  8
LAYER_1
 62
7
 10
12.761669
 20
5.861213
  0
VERTEX
  8
LAYER_1
 62
7
 10
12.761669
 20
7.229458
 42
-0.030045
  0
VERTEX
  8
LAYER_1
 62
7
 10
12.652634
 20
7.388327
 42
-0.056489
  0
VERTEX
  8
LAYER_1
 62
7
 10
12.572480
 20
7.564360
 42
-0.012969
  0
VERTEX
  8
LAYER_1
 62
7
 10
12.761669
 20
7.452248
  0
VERTEX
  8
LAYER_1
 62
7
 10
12.761669
 20
8.647652
  0
VERTEX
  8
LAYER_1
 62
7
 10
12.745284
 20
8.641195
 42
0.012054
  0
VERTEX
  8
LAYER_1
 62
7
 10
11.886882
 20
9.277138
 42
0.007727
  0
VERTEX
  8
LAYER_1
 62
7
 10
11.003001
 20
9.879317
 42
0.003001
  0
VERTEX
  8
LAYER_1
 62
7
 10
9.654784
 20
10.750646
  0
VERTEX
  8
LAYER_1
 62
7
 10
9.205208
 20
11.039741
 42
-0.090871
  0
VERTEX
  8
LAYER_1
 62
7
 10
10.146254
 20
11.552103
  0
VERTEX
  8
LAYER_1
 62
7
 10
10.164587
 20
11.531707
 42
-0.010859
  0
VERTEX
  8
LAYER_1
 62
7
 10
10.450249
 20
11.194498
 42
0.024934
  0
VERTEX
  8
LAYER_1
 62
7
 10
10.704750
 20
10.908143
 42
0.059662
  0
VERTEX
  8
LAYER_1
 62
7
 10
11.000855
 20
10.674157
 42
0.061946
  0
VERTEX
  8
LAYER_1
 62
7
 10
11.411328
 20
10.494053
 42
0.081295
  0
VERTEX
  8
LAYER_1
 62
7
 10
12.077840
 20
10.405249
 42
0.065195
  0
VERTEX
  8
LAYER_1
 62
7
 10
12.761669
 20
10.514813
  0
VERTEX
  8
LAYER_1
 62
7
 10
12.761669
 20
11.551670
 42
-0.047346
  0
VERTEX
  8
LAYER_1
 62
7
 10
12.291691
 20
11.475270
 42
-0.059826
  0
VERTEX
  8
LAYER_1
 62
7
 10
11.828719
 20
11.499651
 42
-0.149313
  0
VERTEX
  8
LAYER_1
 62
7
 10
10.985431
 20
11.927083
 42
-0.034099
  0
VERTEX
  8
LAYER_1
 62
7
 10
11.760235
 20
12.406039
 42
-0.007380
  0
VERTEX
  8
LAYER_1
 62
7
 10
12.175550
 20
12.621584
  0
VERTEX
  8
LAYER_1
 62
7
 10
12.589166
 20
12.826714
 42
0.018280
  0
VERTEX
  8
LAYER_1
 62
7
 10
12.761669
 20
13.471158
  0
VERTEX
  8
LAYER_1
 62
7
 10
12.761669
 20
13.944508
 42
0.022776
  0
VERTEX
  8
LAYER_1
 62
7
 10
11.540996
 20
14.180725
 42
0.033455
  0
VERTEX
  8
LAYER_1
 62
7
 10
10.295661
 20
14.279751
 42
0.046062
  0
VERTEX
  8
LAYER_1
 62
7
 10
9.060065
 20
14.181745
 42
0.058795
  0
VERTEX
  8
LAYER_1
 62
7
 10
7.868604
 20
13.826866
  0
VERTEX
  8
LAYER_1
 62
7
 10
7.665409
 20
13.738553
  0
VERTEX
  8
LAYER_1
 62
7
 10
7.489471
 20
13.197435
  0
VERTEX
  8
LAYER_1
 62
7
 10
7.403198
 20
12.919222
 42
0.024794
  0
VERTEX
  8
LAYER_1
 62
7
 10
7.367751
 20
12.786838
 42
0.038016
  0
VERTEX
  8
LAYER_1
 62
7
 10
7.360253
 20
12.729058
 42
0.086035
  0
VERTEX
  8
LAYER_1
 62
7
 10
7.364957
 20
12.683547
 42
0.188229
  0
VERTEX
  8
LAYER_1
 62
7
 10
7.385901
 20
12.655305
 42
0.168322
  0
VERTEX
  8
LAYER_1
 62
7
 10
7.427122
 20
12.649329
 42
0.074321
  0
VERTEX
  8
LAYER_1
 62
7
 10
7.492660
 20
12.670615
 42
0.035394
  0
VERTEX
  8
LAYER_1
 62
7
 10
7.586552
 20
12.724161
  0
VERTEX
  8
LAYER_1
 62
7
 10
7.646002
 20
12.763356
  0
VERTEX
  8
LAYER_1
 62
7
 10
7.705085
 20
12.799906
 42
-0.108793
  0
VERTEX
  8
LAYER_1
 62
7
 10
7.814301
 20
12.840331
 42
-0.091543
  0
VERTEX
  8
LAYER_1
 62
7
 10
8.253719
 20
12.795969
 42
-0.059312
  0
VERTEX
  8
LAYER_1
 62
7
 10
8.658231
 20
12.622092
 42
-0.026549
  0
VERTEX
  8
LAYER_1
 62
7
 10
9.036005
 20
12.376831
  0
VERTEX
  8
LAYER_1
 62
7
 10
9.395208
 20
12.118316
 42
-0.019325
  0
VERTEX
  8
LAYER_1
 62
7
 10
8.359219
 20
11.656831
 42
-0.013566
  0
VERTEX
  8
LAYER_1
 62
7
 10
7.140228
 20
12.552265
 42
-0.026339
  0
VERTEX
  8
LAYER_1
 62
7
 10
5.997631
 20
13.540751
 42
-0.022587
  0
VERTEX
  8
LAYER_1
 62
7
 10
6.997459
 20
14.134580
 42
-0.011806
  0
VERTEX
  8
LAYER_1
 62
7
 10
8.040743
 20
14.661304
 42
-0.003874
  0
VERTEX
  8
LAYER_1
 62
7
 10
12.761669
 20
16.748680
  0
VERTEX
  8
LAYER_1
 62
7
 10
12.761669
 20
17.791080
 42
0.010122
  0
VERTEX
  8
LAYER_1
 62
7
 10
9.418135
 20
16.326252
 42
0.018180
  0
VERTEX
  8
LAYER_1
 62
7
 10
6.162448
 20
14.674302
 42
0.147562
  0
VERTEX
  8
LAYER_1
 62
7
 10
5.727582
 20
14.368716
 42
0.059904
  0
VERTEX
  8
LAYER_1
 62
7
 10
5.595098
 20
14.148546
 42
0.046064
  0
VERTEX
  8
LAYER_1
 62
7
 10
5.509479
 20
13.898614
 42
0.059953
  0
VERTEX
  8
LAYER_1
 62
7
 10
5.449538
 20
13.354920
 42
0.035443
  0
VERTEX
  8
LAYER_1
 62
7
 10
5.489160
 20
12.828561
 42
0.029807
  0
VERTEX
  8
LAYER_1
 62
7
 10
5.887894
 20
12.355438
 42
0.018858
  0
VERTEX
  8
LAYER_1
 62
7
 10
6.332167
 20
11.921903
 42
0.008118
  0
VERTEX
  8
LAYER_1
 62
7
 10
6.800606
 20
11.511611
  0
VERTEX
  8
LAYER_1
 62
7
 10
7.271839
 20
11.108222
 42
0.066265
  0
VERTEX
  8
LAYER_1
 62
7
 10
7.050924
 20
10.788924
 42
0.043716
  0
VERTEX
  8
LAYER_1
 62
7
 10
6.907181
 20
10.432449
 42
0.019637
  0
VERTEX
  8
LAYER_1
 62
7
 10
6.808334
 20
10.056434
  0
VERTEX
  8
LAYER_1
 62
7
 10
6.722108
 20
9.678518
 42
-0.069629
  0
VERTEX
  8
LAYER_1
 62
7
 10
6.463876
 20
9.874529
 42
-0.050429
  0
VERTEX
  8
LAYER_1
 62
7
 10
6.262832
 20
10.123814
 42
-0.028359
  0
VERTEX
  8
LAYER_1
 62
7
 10
6.099758
 20
10.407639
  0
VERTEX
  8
LAYER_1
 62
7
 10
6.026453
 20
10.556650
  0
VERTEX
  8
LAYER_1
 62
7
 10
5.955434
 20
10.707270
 42
0.010942
  0
VERTEX
  8
LAYER_1
 62
7
 10
5.810642
 20
11.003970
 42
0.032042
  0
VERTEX
  8
LAYER_1
 62
7
 10
5.646162
 20
11.279007
 42
0.055760
  0
VERTEX
  8
LAYER_1
 62
7
 10
5.442776
 20
11.513645
 42
0.075127
  0
VERTEX
  8
LAYER_1
 62
7
 10
5.181265
 20
11.689150
  0
VERTEX
  8
LAYER_1
 62
7
 10
5.006452
 20
11.771378
  0
VERTEX
  8
LAYER_1
 62
7
 10
4.997076
 20
14.459289
  0
VERTEX
  8
LAYER_1
 62
7
 10
4.995553
 20
14.895864
  0
VERTEX
  8
LAYER_1
 62
7
 10
5.214746
 20
14.946664
 42
0.035852
  0
VERTEX
  8
LAYER_1
 62
7
 10
6.382256
 20
15.310259
 42
0.028027
  0
VERTEX
  8
LAYER_1
 62
7
 10
7.496674
 20
15.820912
 42
0.020542
  0
VERTEX
  8
LAYER_1
 62
7
 10
8.559979
 20
16.439089
 42
0.013663
  0
VERTEX
  8
LAYER_1
 62
7
 10
9.574153
 20
17.125257
 42
0.134058
  0
VERTEX
  8
LAYER_1
 62
7
 10
10.111335
 20
17.719523
 42
0.050716
  0
VERTEX
  8
LAYER_1
 62
7
 10
10.252412
 20
18.085455
 42
0.036469
  0
VERTEX
  8
LAYER_1
 62
7
 10
10.330081
 20
18.480963
 42
0.024053
  0
VERTEX
  8
LAYER_1
 62
7
 10
10.360541
 20
18.893827
 42
0.015852
  0
VERTEX
  8
LAYER_1
 62
7
 10
10.353152
 20
19.518938
 42
-0.003060
  0
VERTEX
  8
LAYER_1
 62
7
 10
10.330670
 20
20.114373
 42
0.096986
  0
VERTEX
  8
LAYER_1
 62
7
 10
11.019514
 20
20.184682
 42
0.082378
  0
VERTEX
  8
LAYER_1
 62
7
 10
11.613729
 20
20.483445
 42
0.061460
  0
VERTEX
  8
LAYER_1
 62
7
 10
12.108210
 20
20.946628
 42
0.046420
  0
VERTEX
  8
LAYER_1
 62
7
 10
12.497851
 20
21.510198
 42
0.077124
  0
VERTEX
  8
LAYER_1
 62
7
 10
12.761669
 20
20.797066
  0
VERTEX
  8
LAYER_1
 62
7
 10
12.761669
 20
22.530184
 42
-0.026480
  0
VERTEX
  8
LAYER_1
 62
7
 10
12.624385
 20
22.639343
 42
0.025139
  0
VERTEX
  8
LAYER_1
 62
7
 10
12.350610
 20
22.273897
  0
VERTEX
  8
LAYER_1
 62
7
 10
12.216812
 20
22.083520
 42
-0.015073
  0
VERTEX
  8
LAYER_1
 62
7
 10
12.076855
 20
21.899650
 42
-0.066759
  0
VERTEX
  8
LAYER_1
 62
7
 10
11.753809
 20
21.586269
 42
-0.109275
  0
VERTEX
  8
LAYER_1
 62
7
 10
11.332159
 20
21.403422
 42
-0.090381
  0
VERTEX
  8
LAYER_1
 62
7
 10
10.707343
 20
21.300004
 42
-0.093913
  0
VERTEX
  8
LAYER_1
 62
7
 10
10.115551
 20
21.422016
 42
-0.208541
  0
VERTEX
  8
LAYER_1
 62
7
 10
9.279838
 20
22.287082
 42
0.048670
  0
VERTEX
  8
LAYER_1
 62
7
 10
9.161804
 20
22.005390
 42
0.028889
  0
VERTEX
  8
LAYER_1
 62
7
 10
9.086765
 20
21.701998
 42
0.009291
  0
VERTEX
  8
LAYER_1
 62
7
 10
9.013677
 20
21.237270
  0
VERTEX
  8
LAYER_1
 62
7
 10
8.990434
 20
21.086887
 42
-0.096358
  0
VERTEX
  8
LAYER_1
 62
7
 10
10.001745
 20
18.906460
  0
VERTEX
  8
LAYER_1
 62
7
 10
10.080654
 20
18.583657
  0
VERTEX
  8
LAYER_1
 62
7
 10
9.807812
 20
18.362088
  0
VERTEX
  8
LAYER_1
 62
7
 10
9.667583
 20
18.253293
 42
0.031555
  0
VERTEX
  8
LAYER_1
 62
7
 10
9.542109
 20
18.145895
  0
VERTEX
  8
LAYER_1
 62
7
 10
9.415145
 20
18.053380
 42
-0.018691
  0
VERTEX
  8
LAYER_1
 62
7
 10
8.435503
 20
17.397952
 42
-0.024220
  0
VERTEX
  8
LAYER_1
 62
7
 10
7.403023
 20
16.828529
 42
-0.030178
  0
VERTEX
  8
LAYER_1
 62
7
 10
6.317268
 20
16.375484
 42
-0.036101
  0
VERTEX
  8
LAYER_1
 62
7
 10
5.177805
 20
16.069189
  0
VERTEX
  8
LAYER_1
 62
7
 10
4.993297
 20
16.033948
  0
VERTEX
  8
LAYER_1
 62
7
 10
4.899064
 20
17.746690
 42
0.004042
  0
VERTEX
  8
LAYER_1
 62
7
 10
4.819091
 20
19.044517
 42
0.008626
  0
VERTEX
  8
LAYER_1
 62
7
 10
4.706120
 20
20.342190
 42
0.013412
  0
VERTEX
  8
LAYER_1
 62
7
 10
4.537021
 20
21.627393
 42
0.018506
  0
VERTEX
  8
LAYER_1
 62
7
 10
4.288663
 20
22.887808
  0
VERTEX
  8
LAYER_1
 62
7
 10
4.176945
 20
23.357776
  0
VERTEX
  8
LAYER_1
 62
7
 10
3.907104
 20
22.597132
  0
VERTEX
  8
LAYER_1
 62
7
 10
3.808959
 20
22.320474
  0
VERTEX
  8
LAYER_1
 62
7
 10
3.905025
 20
21.322044
 42
-0.003994
  0
VERTEX
  8
LAYER_1
 62
7
 10
4.081861
 20
19.370623
 42
-0.011340
  0
VERTEX
  8
LAYER_1
 62
7
 10
4.198822
 20
17.414675
  0
VERTEX
  8
LAYER_1
 62
7
 10
4.250943
 20
15.907887
  0
VERTEX
  8
LAYER_1
 62
7
 10
3.925675
 20
15.921699
 42
-0.111258
  0
VERTEX
  8
LAYER_1
 62
7
 10
2.391717
 20
16.332126
  0
SEQEND
  0
POLYLINE
  8
LAYER_1
 62
1
 70
1
 66
1
  0
VERTEX
  8
LAYER_1
 62
7
 10
10.383592
 20
12.576820
  0
VERTEX
  8
LAYER_1
 62
7
 10
10.143890
 20
12.759759
 42
-0.050706
  0
VERTEX
  8
LAYER_1
 62
7
 10
9.676239
 20
13.197559
 42
-0.176417
  0
VERTEX
  8
LAYER_1
 62
7
 10
11.016941
 20
13.154450
 42
-0.034972
  0
VERTEX
  8
LAYER_1
 62
7
 10
11.241726
 20
13.050408
 42
0.048896
  0
VERTEX
  8
LAYER_1
 62
7
 10
10.576227
 20
12.701509
  0
VERTEX
  8
LAYER_1
 62
7
 10
10.383592
 20
12.576820
  0
SEQEND
  0
POLYLINE
  8
LAYER_1
 62
1
 70
1
 66
1
  0
VERTEX
  8
LAYER_1
 62
7
 10
5.075174
 20
10.558391
 42
-0.094803
  0
VERTEX
  8
LAYER_1
 62
7
 10
5.365713
 20
10.270724
 42
-0.041283
  0
VERTEX
  8
LAYER_1
 62
7
 10
5.570184
 20
9.910167
 42
0.009646
  0
VERTEX
  8
LAYER_1
 62
7
 10
5.755462
 20
9.530627
 42
0.061217
  0
VERTEX
  8
LAYER_1
 62
7
 10
5.988419
 20
9.186011
 42
0.087893
  0
VERTEX
  8
LAYER_1
 62
7
 10
6.618446
 20
8.554745
 42
0.062876
  0
VERTEX
  8
LAYER_1
 62
7
 10
7.404638
 20
8.143456
 42
0.037501
  0
VERTEX
  8
LAYER_1
 62
7
 10
8.273789
 20
7.890773
 42
0.017046
  0
VERTEX
  8
LAYER_1
 62
7
 10
9.152691
 20
7.735322
 42
0.041698
  0
VERTEX
  8
LAYER_1
 62
7
 10
9.192296
 20
8.258088
 42
0.003864
  0
VERTEX
  8
LAYER_1
 62
7
 10
9.184222
 20
8.783088
 42
-0.007586
  0
VERTEX
  8
LAYER_1
 62
7
 10
8.595610
 20
8.979158
 42
-0.024975
  0
VERTEX
  8
LAYER_1
 62
7
 10
8.018553
 20
9.213897
 42
-0.043762
  0
VERTEX
  8
LAYER_1
 62
7
 10
7.484071
 20
9.522324
 42
-0.061685
  0
VERTEX
  8
LAYER_1
 62
7
 10
7.023180
 20
9.939460
  0
VERTEX
  8
LAYER_1
 62
7
 10
7.256645
 20
10.104812
 42
-0.019714
  0
VERTEX
  8
LAYER_1
 62
7
 10
7.501904
 20
10.263387
 42
-0.040338
  0
VERTEX
  8
LAYER_1
 62
7
 10
7.759429
 20
10.389446
 42
-0.064731
  0
VERTEX
  8
LAYER_1
 62
7
 10
8.029689
 20
10.457249
  0
VERTEX
  8
LAYER_1
 62
7
 10
8.805700
 20
9.809463
 42
-0.003312
  0
VERTEX
  8
LAYER_1
 62
7
 10
9.580281
 20
9.158309
 42
-0.008223
  0
VERTEX
  8
LAYER_1
 62
7
 10
10.339027
 20
8.490013
 42
-0.013171
  0
VERTEX
  8
LAYER_1
 62
7
 10
11.067533
 20
7.790805
 42
0.017084
  0
VERTEX
  8
LAYER_1
 62
7
 10
9.607791
 20
6.878813
 42
0.001241
  0
VERTEX
  8
LAYER_1
 62
7
 10
8.533618
 20
6.154029
  0
VERTEX
  8
LAYER_1
 62
7
 10
8.175131
 20
5.913318
 42
-0.016547
  0
VERTEX
  8
LAYER_1
 62
7
 10
6.717251
 20
4.998170
 42
-0.033660
  0
VERTEX
  8
LAYER_1
 62
7
 10
5.181844
 20
4.237217
 42
0.000500
  0
VERTEX
  8
LAYER_1
 62
7
 10
5.114879
 20
7.397305
 42
-0.004813
  0
VERTEX
  8
LAYER_1
 62
7
 10
5.075174
 20
10.558391
  0
SEQEND
  0
POLYLINE
  8
LAYER_1
 62
1
 70
1
 66
1
  0
VERTEX
  8
LAYER_1
 62
7
 10
7.504300
 20
2.078025
  0
VERTEX
  8
LAYER_1
 62
7
 10
8.846272
 20
2.078025
 42
-0.038654
  0
VERTEX
  8
LAYER_1
 62
7
 10
9.823661
 20
2.598242
 42
-0.050769
  0
VERTEX
  8
LAYER_1
 62
7
 10
10.879889
 20
2.936395
 42
-0.196430
  0
VERTEX
  8
LAYER_1
 62
7
 10
12.761669
 20
2.598798
  0
VERTEX
  8
LAYER_1
 62
7
 10
12.761669
 20
3.921809
 42
0.034781
  0
VERTEX
  8
LAYER_1
 62
7
 10
12.336823
 20
4.229745
 42
0.080886
  0
VERTEX
  8
LAYER_1
 62
7
 10
12.761669
 20
4.534412
  0
VERTEX
  8
LAYER_1
 62
7
 10
12.761669
 20
5.448784
 42
-0.053168
  0
VERTEX
  8
LAYER_1
 62
7
 10
12.264161
 20
5.243626
 42
-0.035059
  0
VERTEX
  8
LAYER_1
 62
7
 10
11.733418
 20
5.128016
 42
-0.017896
  0
VERTEX
  8
LAYER_1
 62
7
 10
11.187101
 20
5.068147
  0
VERTEX
  8
LAYER_1
 62
7
 10
10.642872
 20
5.030212
  0
VERTEX
  8
LAYER_1
 62
7
 10
10.398530
 20
5.012823
  0
VERTEX
  8
LAYER_1
 62
7
 10
10.168125
 20
4.186041
 42
0.035968
  0
VERTEX
  8
LAYER_1
 62
7
 10
10.126441
 20
3.984774
  0
VERTEX
  8
LAYER_1
 62
7
 10
10.479412
 20
3.926215
 42
0.023394
  0
VERTEX
  8
LAYER_1
 62
7
 10
9.690538
 20
3.540211
 42
0.017776
  0
VERTEX
  8
LAYER_1
 62
7
 10
8.938077
 20
3.091713
 42
0.012015
  0
VERTEX
  8
LAYER_1
 62
7
 10
8.212506
 20
2.598418
 42
0.006306
  0
VERTEX
  8
LAYER_1
 62
7
 10
7.504300
 20
2.078025
  0
SEQEND
  0
POLYLINE
  8
LAYER_1
 62
1
 70
1
 66
1
  0
VERTEX
  8
LAYER_1
 62
7
 10
12.761669
 20
14.010171
  0
VERTEX
  8
LAYER_1
 62
7
 10
12.761669
 20
15.533739
  0
VERTEX
  8
LAYER_1
 62
7
 10
12.563900
 20
15.679063
 42
-0.014904
  0
VERTEX
  8
LAYER_1
 62
7
 10
12.374107
 20
15.830279
  0
VERTEX
  8
LAYER_1
 62
7
 10
12.091489
 20
16.071339
  0
VERTEX
  8
LAYER_1
 62
7
 10
12.045597
 20
15.536965
 42
0.010156
  0
VERTEX
  8
LAYER_1
 62
7
 10
12.026375
 20
15.118710
  0
VERTEX
  8
LAYER_1
 62
7
 10
12.020192
 20
14.980289
 42
-0.058462
  0
VERTEX
  8
LAYER_1
 62
7
 10
12.439334
 20
14.532945
 42
-0.042195
  0
VERTEX
  8
LAYER_1
 62
7
 10
12.761669
 20
14.010171
  0
SEQEND
  0
POLYLINE
  8
LAYER_1
 62
1
 70
1
 66
1
  0
VERTEX
  8
LAYER_1
 62
7
 10
5.513569
 20
20.863888
  0
VERTEX
  8
LAYER_1
 62
7
 10
5.438247
 20
20.807081
  0
VERTEX
  8
LAYER_1
 62
7
 10
5.319618
 20
20.717612
  0
VERTEX
  8
LAYER_1
 62
7
 10
5.320307
 20
20.716341
 42
-0.079158
  0
VERTEX
  8
LAYER_1
 62
7
 10
5.694514
 20
20.076547
 42
-0.079158
  0
VERTEX
  8
LAYER_1
 62
7
 10
5.843280
 20
19.350436
 42
-0.054200
  0
VERTEX
  8
LAYER_1
 62
7
 10
5.790359
 20
18.853511
 42
-0.014922
  0
VERTEX
  8
LAYER_1
 62
7
 10
5.706524
 20
18.507326
  0
VERTEX
  8
LAYER_1
 62
7
 10
5.613103
 20
18.161143
 42
0.018754
  0
VERTEX
  8
LAYER_1
 62
7
 10
5.534726
 20
17.815174
 42
0.037102
  0
VERTEX
  8
LAYER_1
 62
7
 10
5.496018
 20
17.469630
 42
0.092058
  0
VERTEX
  8
LAYER_1
 62
7
 10
5.525731
 20
17.315016
 42
0.111808
  0
VERTEX
  8
LAYER_1
 62
7
 10
5.598730
 20
17.209140
 42
0.186356
  0
VERTEX
  8
LAYER_1
 62
7
 10
5.828433
 20
17.128090
 42
0.186302
  0
VERTEX
  8
LAYER_1
 62
7
 10
6.223143
 20
17.287884
 42
0.085547
  0
VERTEX
  8
LAYER_1
 62
7
 10
6.319180
 20
17.414660
 42
0.142758
  0
VERTEX
  8
LAYER_1
 62
7
 10
6.416963
 20
17.739954
 42
0.133161
  0
VERTEX
  8
LAYER_1
 62
7
 10
6.332820
 20
18.035677
 42
0.101977
  0
VERTEX
  8
LAYER_1
 62
7
 10
6.115506
 20
18.271571
 42
0.090164
  0
VERTEX
  8
LAYER_1
 62
7
 10
5.813775
 20
18.417380
 42
0.112345
  0
VERTEX
  8
LAYER_1
 62
7
 10
5.968710
 20
19.682512
 42
0.063796
  0
VERTEX
  8
LAYER_1
 62
7
 10
5.822503
 20
20.302112
 42
0.071679
  0
VERTEX
  8
LAYER_1
 62
7
 10
5.513569
 20
20.863888
  0
SEQEND
  0
POLYLINE
  8
LAYER_1
 62
1
 70
1
 66
1
  0
VERTEX
  8
LAYER_1
 62
7
 10
5.938541
 20
17.531833
 42
-0.083882
  0
VERTEX
  8
LAYER_1
 62
7
 10
5.830154
 20
17.516988
 42
-0.265014
  0
VERTEX
  8
LAYER_1
 62
7
 10
5.678908
 20
17.618392
 42
-0.139354
  0
VERTEX
  8
LAYER_1
 62
7
 10
5.625813
 20
17.838023
 42
-0.111152
  0
VERTEX
  8
LAYER_1
 62
7
 10
5.686632
 20
18.065633
 42
-0.078757
  0
VERTEX
  8
LAYER_1
 62
7
 10
5.952711
 20
17.950361
 42
-0.112433
  0
VERTEX
  8
LAYER_1
 62
7
 10
6.117789
 20
17.791700
 42
-0.110249
  0
VERTEX
  8
LAYER_1
 62
7
 10
6.146328
 20
17.710756
 42
-0.160662
  0
VERTEX
  8
LAYER_1
 62
7
 10
6.130266
 20
17.636555
 42
-0.132991
  0
VERTEX
  8
LAYER_1
 62
7
 10
6.063154
 20
17.574960
 42
-0.076691
  0
VERTEX
  8
LAYER_1
 62
7
 10
5.938541
 20
17.531833
  0
SEQEND
  0
POLYLINE
  8
LAYER_1
 62
1
 70
1
 66
1
  0
VERTEX
  8
LAYER_1
 62
7
 10
2.391717
 20
14.261166
  0
VERTEX
  8
LAYER_1
 62
7
 10
2.391717
 20
12.904288
  0
VERTEX
  8
LAYER_1
 62
7
 10
2.476095
 20
12.849946
 42
-0.016391
  0
VERTEX
  8
LAYER_1
 62
7
 10
2.754340
 20
12.661351
  0
VERTEX
  8
LAYER_1
 62
7
 10
2.820701
 20
12.612151
  0
VERTEX
  8
LAYER_1
 62
7
 10
2.707461
 20
12.422813
  0
VERTEX
  8
LAYER_1
 62
7
 10
2.391717
 20
11.894883
  0
VERTEX
  8
LAYER_1
 62
7
 10
2.391717
 20
11.584410
  0
VERTEX
  8
LAYER_1
 62
7
 10
2.453336
 20
11.540890
  0
VERTEX
  8
LAYER_1
 62
7
 10
3.274870
 20
10.960661
  0
VERTEX
  8
LAYER_1
 62
7
 10
3.332071
 20
10.920261
  0
VERTEX
  8
LAYER_1
 62
7
 10
3.701234
 20
11.562096
  0
VERTEX
  8
LAYER_1
 62
7
 10
3.859255
 20
11.836834
  0
VERTEX
  8
LAYER_1
 62
7
 10
2.997282
 20
12.455550
  0
VERTEX
  8
LAYER_1
 62
7
 10
2.883933
 20
12.538539
 42
-0.036202
  0
VERTEX
  8
LAYER_1
 62
7
 10
2.998321
 20
12.788850
  0
VERTEX
  8
LAYER_1
 62
7
 10
3.400798
 20
13.546283
  0
VERTEX
  8
LAYER_1
 62
7
 10
2.391717
 20
14.261166
  0
SEQEND
  0
POLYLINE
  8
LAYER_1
 62
1
 70
1
 66
1
  0
VERTEX
  8
LAYER_1
 62
7
 10
2.572228
 20
6.826889
  0
VERTEX
  8
LAYER_1
 62
7
 10
2.536180
 20
6.664644
  0
VERTEX
  8
LAYER_1
 62
7
 10
2.512736
 20
6.559130
  0
VERTEX
  8
LAYER_1
 62
7
 10
2.520996
 20
6.563253
 42
0.003135
  0
VERTEX
  8
LAYER_1
 62
7
 10
4.123394
 20
7.361518
 42
0.018058
  0
VERTEX
  8
LAYER_1
 62
7
 10
4.207065
 20
7.657731
 42
0.013863
  0
VERTEX
  8
LAYER_1
 62
7
 10
2.578270
 20
6.829996
  0
VERTEX
  8
LAYER_1
 62
7
 10
2.572228
 20
6.826889
  0
SEQEND
  0
POLYLINE
  8
LAYER_1
 62
1
 70
1
 66
1
  0
VERTEX
  8
LAYER_1
 62
7
 10
2.391717
 20
18.215569
  0
VERTEX
  8
LAYER_1
 62
7
 10
2.391717
 20
17.597616
 42
-0.046266
  0
VERTEX
  8
LAYER_1
 62
7
 10
2.775272
 20
16.904442
 42
0.112868
  0
VERTEX
  8
LAYER_1
 62
7
 10
2.800078
 20
16.866515
 42
0.138217
  0
VERTEX
  8
LAYER_1
 62
7
 10
2.818568
 20
16.857892
 42
0.133497
  0
VERTEX
  8
LAYER_1
 62
7
 10
2.842703
 20
16.861279
 42
0.075835
  0
VERTEX
  8
LAYER_1
 62
7
 10
2.883949
 20
16.940408
 42
0.038585
  0
VERTEX
  8
LAYER_1
 62
7
 10
2.912977
 20
17.048111
 42
0.036605
  0
VERTEX
  8
LAYER_1
 62
7
 10
2.941453
 20
17.312411
 42
0.033458
  0
VERTEX
  8
LAYER_1
 62
7
 10
2.929613
 20
17.778846
 42
-0.015032
  0
VERTEX
  8
LAYER_1
 62
7
 10
2.893264
 20
18.197637
 42
-0.048296
  0
VERTEX
  8
LAYER_1
 62
7
 10
2.910284
 20
18.617190
 42
-0.042981
  0
VERTEX
  8
LAYER_1
 62
7
 10
2.934359
 20
18.723913
 42
-0.074250
  0
VERTEX
  8
LAYER_1
 62
7
 10
2.969720
 20
18.797213
 42
-0.249898
  0
VERTEX
  8
LAYER_1
 62
7
 10
3.073965
 20
18.854751
 42
-0.080586
  0
VERTEX
  8
LAYER_1
 62
7
 10
3.145352
 20
18.842992
 42
-0.038485
  0
VERTEX
  8
LAYER_1
 62
7
 10
3.223568
 20
18.811117
 42
-0.037458
  0
VERTEX
  8
LAYER_1
 62
7
 10
3.358583
 20
18.730489
 42
-0.056245
  0
VERTEX
  8
LAYER_1
 62
7
 10
3.539509
 20
18.568900
 42
0.107827
  0
VERTEX
  8
LAYER_1
 62
7
 10
3.532968
 20
19.070914
  0
VERTEX
  8
LAYER_1
 62
7
 10
3.529603
 20
19.081856
  0
VERTEX
  8
LAYER_1
 62
7
 10
3.508971
 20
19.101742
 42
0.062278
  0
VERTEX
  8
LAYER_1
 62
7
 10
3.358365
 20
19.217164
 42
0.040968
  0
VERTEX
  8
LAYER_1
 62
7
 10
3.197472
 20
19.303452
  0
VERTEX
  8
LAYER_1
 62
7
 10
3.178255
 20
19.310235
 42
0.157654
  0
VERTEX
  8
LAYER_1
 62
7
 10
3.021570
 20
19.312344
 42
0.151532
  0
VERTEX
  8
LAYER_1
 62
7
 10
2.893518
 20
19.220852
  0
VERTEX
  8
LAYER_1
 62
7
 10
2.867951
 20
19.183607
 42
0.083666
  0
VERTEX
  8
LAYER_1
 62
7
 10
2.779263
 20
18.925262
 42
0.034110
  0
VERTEX
  8
LAYER_1
 62
7
 10
2.747039
 20
18.652864
 42
0.031516
  0
VERTEX
  8
LAYER_1
 62
7
 10
2.761087
 20
18.067386
 42
0.011271
  0
VERTEX
  8
LAYER_1
 62
7
 10
2.814972
 20
17.550888
 42
-0.016089
  0
VERTEX
  8
LAYER_1
 62
7
 10
2.823244
 20
17.467657
  0
VERTEX
  8
LAYER_1
 62
7
 10
2.819446
 20
17.466987
  0
VERTEX
  8
LAYER_1
 62
7
 10
2.811501
 20
17.488228
 42
0.076182
  0
VERTEX
  8
LAYER_1
 62
7
 10
2.391717
 20
18.215569
  0
SEQEND
  0
POLYLINE
  8
LAYER_1
 62
1
 70
1
 66
1
  0
VERTEX
  8
LAYER_1
 62
7
 10
7.716338
 20
6.862051
 42
0.081776
  0
VERTEX
  8
LAYER_1
 62
7
 10
7.692309
 20
6.483315
 42
0.081208
  0
VERTEX
  8
LAYER_1
 62
7
 10
7.741440
 20
6.312092
 42
0.112654
  0
VERTEX
  8
LAYER_1
 62
7
 10
7.850538
 20
6.174987
 42
0.139792
  0
VERTEX
  8
LAYER_1
 62
7
 10
7.940776
 20
6.134256
 42
0.178830
  0
VERTEX
  8
LAYER_1
 62
7
 10
8.045211
 20
6.161323
 42
0.108088
  0
VERTEX
  8
LAYER_1
 62
7
 10
8.139427
 20
6.264508
 42
0.049968
  0
VERTEX
  8
LAYER_1
 62
7
 10
8.210698
 20
6.413833
 42
0.060868
  0
VERTEX
  8
LAYER_1
 62
7
 10
8.280021
 20
6.701924
  0
VERTEX
  8
LAYER_1
 62
7
 10
8.281204
 20
6.728556
 42
0.042763
  0
VERTEX
  8
LAYER_1
 62
7
 10
8.279574
 20
6.745714
 42
0.045822
  0
VERTEX
  8
LAYER_1
 62
7
 10
8.277622
 20
6.752695
 42
0.116534
  0
VERTEX
  8
LAYER_1
 62
7
 10
8.274819
 20
6.757120
 42
0.285188
  0
VERTEX
  8
LAYER_1
 62
7
 10
8.271091
 20
6.757873
 42
0.092010
  0
VERTEX
  8
LAYER_1
 62
7
 10
8.268859
 20
6.756523
 42
0.052499
  0
VERTEX
  8
LAYER_1
 62
7
 10
8.266369
 20
6.753836
 42
0.069925
  0
VERTEX
  8
LAYER_1
 62
7
 10
8.253654
 20
6.726920
  0
VERTEX
  8
LAYER_1
 62
7
 10
8.245206
 20
6.705485
 42
-0.090795
  0
VERTEX
  8
LAYER_1
 62
7
 10
8.149619
 20
6.560476
 42
-0.243805
  0
VERTEX
  8
LAYER_1
 62
7
 10
8.015228
 20
6.510222
 42
-0.230175
  0
VERTEX
  8
LAYER_1
 62
7
 10
7.900721
 20
6.599513
 42
-0.066684
  0
VERTEX
  8
LAYER_1
 62
7
 10
7.867121
 20
6.687311
 42
-0.068700
  0
VERTEX
  8
LAYER_1
 62
7
 10
7.848024
 20
6.875768
 42
-0.047175
  0
VERTEX
  8
LAYER_1
 62
7
 10
7.873197
 20
7.067690
 42
-0.043112
  0
VERTEX
  8
LAYER_1
 62
7
 10
7.997281
 20
7.437189
  0
VERTEX
  8
LAYER_1
 62
7
 10
8.062648
 20
7.597041
 42
0.031895
  0
VERTEX
  8
LAYER_1
 62
7
 10
8.119680
 20
7.759800
 42
0.063434
  0
VERTEX
  8
LAYER_1
 62
7
 10
8.123328
 20
7.799968
 42
0.176073
  0
VERTEX
  8
LAYER_1
 62
7
 10
8.113475
 20
7.827440
 42
0.211657
  0
VERTEX
  8
LAYER_1
 62
7
 10
8.092032
 20
7.836844
  0
VERTEX
  8
LAYER_1
 62
7
 10
8.061227
 20
7.764641
 42
0.019199
  0
VERTEX
  8
LAYER_1
 62
7
 10
7.862141
 20
7.322048
 42
0.042506
  0
VERTEX
  8
LAYER_1
 62
7
 10
7.716338
 20
6.862051
  0
SEQEND
  0
POLYLINE
  8
LAYER_1
 62
1
 70
1
 66
1
  0
VERTEX
  8
LAYER_1
 62
7
 10
11.039016
 20
6.041899
 42
0.081776
  0
VERTEX
  8
LAYER_1
 62
7
 10
11.014987
 20
5.663163
 42
0.081208
  0
VERTEX
  8
LAYER_1
 62
7
 10
11.064119
 20
5.491940
 42
0.112654
  0
VERTEX
  8
LAYER_1
 62
7
 10
11.173216
 20
5.354835
 42
0.139792
  0
VERTEX
  8
LAYER_1
 62
7
 10
11.263454
 20
5.314104
 42
0.178830
  0
VERTEX
  8
LAYER_1
 62
7
 10
11.367889
 20
5.341171
 42
0.108088
  0
VERTEX
  8
LAYER_1
 62
7
 10
11.462105
 20
5.444356
 42
0.049968
  0
VERTEX
  8
LAYER_1
 62
7
 10
11.533376
 20
5.593680
 42
0.060868
  0
VERTEX
  8
LAYER_1
 62
7
 10
11.602700
 20
5.881772
  0
VERTEX
  8
LAYER_1
 62
7
 10
11.603882
 20
5.908404
 42
0.042763
  0
VERTEX
  8
LAYER_1
 62
7
 10
11.602252
 20
5.925562
 42
0.045822
  0
VERTEX
  8
LAYER_1
 62
7
 10
11.600301
 20
5.932543
 42
0.116534
  0
VERTEX
  8
LAYER_1
 62
7
 10
11.597497
 20
5.936968
 42
0.285188
  0
VERTEX
  8
LAYER_1
 62
7
 10
11.593769
 20
5.937721
 42
0.092010
  0
VERTEX
  8
LAYER_1
 62
7
 10
11.591537
 20
5.936371
 42
0.052499
  0
VERTEX
  8
LAYER_1
 62
7
 10
11.589047
 20
5.933684
 42
0.069925
  0
VERTEX
  8
LAYER_1
 62
7
 10
11.576332
 20
5.906768
  0
VERTEX
  8
LAYER_1
 62
7
 10
11.567884
 20
5.885333
 42
-0.090795
  0
VERTEX
  8
LAYER_1
 62
7
 10
11.472297
 20
5.740324
 42
-0.243805
  0
VERTEX
  8
LAYER_1
 62
7
 10
11.337906
 20
5.690070
 42
-0.230175
  0
VERTEX
  8
LAYER_1
 62
7
 10
11.223399
 20
5.779361
 42
-0.066684
  0
VERTEX
  8
LAYER_1
 62
7
 10
11.189800
 20
5.867159
 42
-0.068700
  0
VERTEX
  8
LAYER_1
 62
7
 10
11.170702
 20
6.055616
 42
-0.047175
  0
VERTEX
  8
LAYER_1
 62
7
 10
11.195875
 20
6.247538
 42
-0.043112
  0
VERTEX
  8
LAYER_1
 62
7
 10
11.319959
 20
6.617037
  0
VERTEX
  8
LAYER_1
 62
7
 10
11.385326
 20
6.776889
 42
0.031895
  0
VERTEX
  8
LAYER_1
 62
7
 10
11.442358
 20
6.939648
 42
0.063434
  0
VERTEX
  8
LAYER_1
 62
7
 10
11.446007
 20
6.979816
 42
0.176073
  0
VERTEX
  8
LAYER_1
 62
7
 10
11.436153
 20
7.007288
 42
0.211657
  0
VERTEX
  8
LAYER_1
 62
7
 10
11.414711
 20
7.016692
  0
VERTEX
  8
LAYER_1
 62
7
 10
11.383906
 20
6.944489
 42
0.019199
  0
VERTEX
  8
LAYER_1
 62
7
 10
11.184819
 20
6.501896
 42
0.042506
  0
VERTEX
  8
LAYER_1
 62
7
 10
11.039016
 20
6.041899
  0
SEQEND
  0
POLYLINE
  8
LAYER_1
 62
1
 70
1
 66
1
  0
VERTEX
  8
LAYER_1
 62
7
 10
4.079769
 20
2.078025
  0
VERTEX
  8
LAYER_1
 62
7
 10
4.164918
 20
2.078025
  0
VERTEX
  8
LAYER_1
 62
7
 10
4.216936
 20
2.209669
 42
0.032433
  0
VERTEX
  8
LAYER_1
 62
7
 10
4.249485
 20
2.309122
 42
0.063434
  0
VERTEX
  8
LAYER_1
 62
7
 10
4.253134
 20
2.349290
 42
0.176073
  0
VERTEX
  8
LAYER_1
 62
7
 10
4.243281
 20
2.376762
 42
0.211657
  0
VERTEX
  8
LAYER_1
 62
7
 10
4.221838
 20
2.386166
  0
VERTEX
  8
LAYER_1
 62
7
 10
4.191033
 20
2.313963
 42
0.008920
  0
VERTEX
  8
LAYER_1
 62
7
 10
4.079769
 20
2.078025
  0
SEQEND
  0
POLYLINE
  8
LAYER_1
 62
1
 70
1
 66
1
  0
VERTEX
  8
LAYER_1
 62
7
 10
10.581454
 20
15.412766
 42
0.081776
  0
VERTEX
  8
LAYER_1
 62
7
 10
10.557425
 20
15.034030
 42
0.081208
  0
VERTEX
  8
LAYER_1
 62
7
 10
10.606557
 20
14.862807
 42
0.112654
  0
VERTEX
  8
LAYER_1
 62
7
 10
10.715654
 20
14.725702
 42
0.139792
  0
VERTEX
  8
LAYER_1
 62
7
 10
10.805892
 20
14.684971
 42
0.178830
  0
VERTEX
  8
LAYER_1
 62
7
 10
10.910328
 20
14.712038
 42
0.108088
  0
VERTEX
  8
LAYER_1
 62
7
 10
11.004543
 20
14.815223
 42
0.049968
  0
VERTEX
  8
LAYER_1
 62
7
 10
11.075814
 20
14.964548
 42
0.060868
  0
VERTEX
  8
LAYER_1
 62
7
 10
11.145138
 20
15.252639
  0
VERTEX
  8
LAYER_1
 62
7
 10
11.146321
 20
15.279271
 42
0.042763
  0
VERTEX
  8
LAYER_1
 62
7
 10
11.144690
 20
15.296429
 42
0.045822
  0
VERTEX
  8
LAYER_1
 62
7
 10
11.142739
 20
15.303410
 42
0.116534
  0
VERTEX
  8
LAYER_1
 62
7
 10
11.139935
 20
15.307836
 42
0.285188
  0
VERTEX
  8
LAYER_1
 62
7
 10
11.136208
 20
15.308589
 42
0.092010
  0
VERTEX
  8
LAYER_1
 62
7
 10
11.133975
 20
15.307238
 42
0.052499
  0
VERTEX
  8
LAYER_1
 62
7
 10
11.131485
 20
15.304551
 42
0.069925
  0
VERTEX
  8
LAYER_1
 62
7
 10
11.118770
 20
15.277635
  0
VERTEX
  8
LAYER_1
 62
7
 10
11.110322
 20
15.256200
 42
-0.090795
  0
VERTEX
  8
LAYER_1
 62
7
 10
11.014735
 20
15.111191
 42
-0.243805
  0
VERTEX
  8
LAYER_1
 62
7
 10
10.880344
 20
15.060937
 42
-0.230175
  0
VERTEX
  8
LAYER_1
 62
7
 10
10.765837
 20
15.150228
 42
-0.066684
  0
VERTEX
  8
LAYER_1
 62
7
 10
10.732238
 20
15.238026
 42
-0.068700
  0
VERTEX
  8
LAYER_1
 62
7
 10
10.713140
 20
15.426483
 42
-0.047175
  0
VERTEX
  8
LAYER_1
 62
7
 10
10.738313
 20
15.618405
 42
-0.043112
  0
VERTEX
  8
LAYER_1
 62
7
 10
10.862397
 20
15.987904
  0
VERTEX
  8
LAYER_1
 62
7
 10
10.927764
 20
16.147756
 42
0.031895
  0
VERTEX
  8
LAYER_1
 62
7
 10
10.984796
 20
16.310515
 42
0.063434
  0
VERTEX
  8
LAYER_1
 62
7
 10
10.988445
 20
16.350683
 42
0.176073
  0
VERTEX
  8
LAYER_1
 62
7
 10
10.978592
 20
16.378155
 42
0.211657
  0
VERTEX
  8
LAYER_1
 62
7
 10
10.957149
 20
16.387559
  0
VERTEX
  8
LAYER_1
 62
7
 10
10.926344
 20
16.315356
 42
0.019199
  0
VERTEX
  8
LAYER_1
 62
7
 10
10.727257
 20
15.872763
 42
0.042506
  0
VERTEX
  8
LAYER_1
 62
7
 10
10.581454
 20
15.412766
  0
SEQEND
  0
POLYLINE
  8
LAYER_1
 62
1
 70
1
 66
1
  0
VERTEX
  8
LAYER_1
 62
7
 10
7.872688
 20
21.214651
 42
0.081776
  0
VERTEX
  8
LAYER_1
 62
7
 10
7.848659
 20
20.835915
 42
0.081208
  0
VERTEX
  8
LAYER_1
 62
7
 10
7.897790
 20
20.664692
 42
0.112654
  0
VERTEX
  8
LAYER_1
 62
7
 10
8.006888
 20
20.527586
 42
0.139792
  0
VERTEX
  8
LAYER_1
 62
7
 10
8.097126
 20
20.486855
 42
0.178830
  0
VERTEX
  8
LAYER_1
 62
7
 10
8.201561
 20
20.513923
 42
0.108088
  0
VERTEX
  8
LAYER_1
 62
7
 10
8.295777
 20
20.617108
 42
0.049968
  0
VERTEX
  8
LAYER_1
 62
7
 10
8.367048
 20
20.766432
 42
0.060868
  0
VERTEX
  8
LAYER_1
 62
7
 10
8.436372
 20
21.054524
  0
VERTEX
  8
LAYER_1
 62
7
 10
8.437554
 20
21.081155
 42
0.042763
  0
VERTEX
  8
LAYER_1
 62
7
 10
8.435924
 20
21.098313
 42
0.045822
  0
VERTEX
  8
LAYER_1
 62
7
 10
8.433972
 20
21.105294
 42
0.116534
  0
VERTEX
  8
LAYER_1
 62
7
 10
8.431169
 20
21.109720
 42
0.285188
  0
VERTEX
  8
LAYER_1
 62
7
 10
8.427441
 20
21.110473
 42
0.092010
  0
VERTEX
  8
LAYER_1
 62
7
 10
8.425209
 20
21.109123
 42
0.052499
  0
VERTEX
  8
LAYER_1
 62
7
 10
8.422719
 20
21.106436
 42
0.069925
  0
VERTEX
  8
LAYER_1
 62
7
 10
8.410004
 20
21.079520
  0
VERTEX
  8
LAYER_1
 62
7
 10
8.401556
 20
21.058084
 42
-0.090795
  0
VERTEX
  8
LAYER_1
 62
7
 10
8.305969
 20
20.913075
 42
-0.243805
  0
VERTEX
  8
LAYER_1
 62
7
 10
8.171578
 20
20.862821
 42
-0.230175
  0
VERTEX
  8
LAYER_1
 62
7
 10
8.057071
 20
20.952112
 42
-0.066684
  0
VERTEX
  8
LAYER_1
 62
7
 10
8.023471
 20
21.039911
 42
-0.068700
  0
VERTEX
  8
LAYER_1
 62
7
 10
8.004374
 20
21.228367
 42
-0.047175
  0
VERTEX
  8
LAYER_1
 62
7
 10
8.029547
 20
21.420290
 42
-0.043112
  0
VERTEX
  8
LAYER_1
 62
7
 10
8.153631
 20
21.789788
  0
VERTEX
  8
LAYER_1
 62
7
 10
8.218998
 20
21.949640
 42
0.031895
  0
VERTEX
  8
LAYER_1
 62
7
 10
8.276030
 20
22.112400
 42
0.063434
  0
VERTEX
  8
LAYER_1
 62
7
 10
8.279678
 20
22.152568
 42
0.176073
  0
VERTEX
  8
LAYER_1
 62
7
 10
8.269825
 20
22.180039
 42
0.211657
  0
VERTEX
  8
LAYER_1
 62
7
 10
8.248383
 20
22.189444
  0
VERTEX
  8
LAYER_1
 62
7
 10
8.217578
 20
22.117240
 42
0.019199
  0
VERTEX
  8
LAYER_1
 62
7
 10
8.018491
 20
21.674648
 42
0.042506
  0
VERTEX
  8
LAYER_1
 62
7
 10
7.872688
 20
21.214651
  0
SEQEND
  0
POLYLINE
  8
LAYER_1
 62
1
 70
1
 66
1
  0
VERTEX
  8
LAYER_1
 62
7
 10
2.763392
 20
25.723130
  0
VERTEX
  8
LAYER_1
 62
7
 10
2.664786
 20
25.723130
 42
0.020379
  0
VERTEX
  8
LAYER_1
 62
7
 10
2.391717
 20
25.101587
  0
VERTEX
  8
LAYER_1
 62
7
 10
2.391717
 20
23.554266
  0
VERTEX
  8
LAYER_1
 62
7
 10
2.401322
 20
23.546443
 42
0.139792
  0
VERTEX
  8
LAYER_1
 62
7
 10
2.528877
 20
23.488868
 42
0.178830
  0
VERTEX
  8
LAYER_1
 62
7
 10
2.676500
 20
23.527129
 42
0.108088
  0
VERTEX
  8
LAYER_1
 62
7
 10
2.809676
 20
23.672984
 42
0.049968
  0
VERTEX
  8
LAYER_1
 62
7
 10
2.910420
 20
23.884059
 42
0.060868
  0
VERTEX
  8
LAYER_1
 62
7
 10
3.008412
 20
24.291286
  0
VERTEX
  8
LAYER_1
 62
7
 10
3.010083
 20
24.328930
 42
0.042763
  0
VERTEX
  8
LAYER_1
 62
7
 10
3.007778
 20
24.353184
 42
0.045822
  0
VERTEX
  8
LAYER_1
 62
7
 10
3.005020
 20
24.363052
 42
0.116534
  0
VERTEX
  8
LAYER_1
 62
7
 10
3.001057
 20
24.369308
 42
0.285188
  0
VERTEX
  8
LAYER_1
 62
7
 10
2.995788
 20
24.370372
 42
0.092010
  0
VERTEX
  8
LAYER_1
 62
7
 10
2.992633
 20
24.368464
 42
0.052499
  0
VERTEX
  8
LAYER_1
 62
7
 10
2.989113
 20
24.364665
 42
0.069925
  0
VERTEX
  8
LAYER_1
 62
7
 10
2.971140
 20
24.326619
  0
VERTEX
  8
LAYER_1
 62
7
 10
2.959198
 20
24.296319
 42
-0.090795
  0
VERTEX
  8
LAYER_1
 62
7
 10
2.824083
 20
24.091344
 42
-0.107078
  0
VERTEX
  8
LAYER_1
 62
7
 10
2.730162
 20
24.029985
 42
-0.129532
  0
VERTEX
  8
LAYER_1
 62
7
 10
2.634117
 20
24.020309
 42
-0.124974
  0
VERTEX
  8
LAYER_1
 62
7
 10
2.545098
 20
24.059944
 42
-0.100409
  0
VERTEX
  8
LAYER_1
 62
7
 10
2.472257
 20
24.146524
 42
-0.066684
  0
VERTEX
  8
LAYER_1
 62
7
 10
2.424763
 20
24.270630
 42
-0.068700
  0
VERTEX
  8
LAYER_1
 62
7
 10
2.397768
 20
24.537020
 42
-0.047175
  0
VERTEX
  8
LAYER_1
 62
7
 10
2.433351
 20
24.808308
 42
-0.029021
  0
VERTEX
  8
LAYER_1
 62
7
 10
2.510636
 20
25.075752
 42
-0.014456
  0
VERTEX
  8
LAYER_1
 62
7
 10
2.608748
 20
25.330607
 42
0.013715
  0
VERTEX
  8
LAYER_1
 62
7
 10
2.763392
 20
25.723130
  0
SEQEND
  0
POLYLINE
  8
LAYER_1
 62
1
 70
1
 66
1
  0
VERTEX
  8
LAYER_1
 62
7
 10
9.610838
 20
25.723130
  0
VERTEX
  8
LAYER_1
 62
7
 10
9.406709
 20
25.723130
 42
0.033594
  0
VERTEX
  8
LAYER_1
 62
7
 10
9.380210
 20
25.474335
 42
0.051571
  0
VERTEX
  8
LAYER_1
 62
7
 10
9.395119
 20
25.231597
 42
0.078571
  0
VERTEX
  8
LAYER_1
 62
7
 10
9.467269
 20
25.013075
 42
0.104298
  0
VERTEX
  8
LAYER_1
 62
7
 10
9.612497
 20
24.836929
 42
0.139792
  0
VERTEX
  8
LAYER_1
 62
7
 10
9.740052
 20
24.779354
 42
0.178830
  0
VERTEX
  8
LAYER_1
 62
7
 10
9.887675
 20
24.817615
 42
0.108088
  0
VERTEX
  8
LAYER_1
 62
7
 10
10.020851
 20
24.963470
 42
0.049968
  0
VERTEX
  8
LAYER_1
 62
7
 10
10.121595
 20
25.174545
 42
0.060868
  0
VERTEX
  8
LAYER_1
 62
7
 10
10.219587
 20
25.581772
  0
VERTEX
  8
LAYER_1
 62
7
 10
10.221258
 20
25.619417
 42
0.042763
  0
VERTEX
  8
LAYER_1
 62
7
 10
10.218953
 20
25.643670
 42
0.045822
  0
VERTEX
  8
LAYER_1
 62
7
 10
10.216195
 20
25.653538
 42
0.116534
  0
VERTEX
  8
LAYER_1
 62
7
 10
10.212232
 20
25.659794
 42
0.285188
  0
VERTEX
  8
LAYER_1
 62
7
 10
10.206963
 20
25.660858
 42
0.092010
  0
VERTEX
  8
LAYER_1
 62
7
 10
10.203808
 20
25.658950
 42
0.052499
  0
VERTEX
  8
LAYER_1
 62
7
 10
10.200288
 20
25.655152
 42
0.069925
  0
VERTEX
  8
LAYER_1
 62
7
 10
10.182315
 20
25.617105
  0
VERTEX
  8
LAYER_1
 62
7
 10
10.170373
 20
25.586805
 42
-0.090795
  0
VERTEX
  8
LAYER_1
 62
7
 10
10.035258
 20
25.381830
 42
-0.107078
  0
VERTEX
  8
LAYER_1
 62
7
 10
9.941337
 20
25.320472
 42
-0.129532
  0
VERTEX
  8
LAYER_1
 62
7
 10
9.845292
 20
25.310795
 42
-0.124974
  0
VERTEX
  8
LAYER_1
 62
7
 10
9.756273
 20
25.350431
 42
-0.100409
  0
VERTEX
  8
LAYER_1
 62
7
 10
9.683433
 20
25.437010
 42
-0.066684
  0
VERTEX
  8
LAYER_1
 62
7
 10
9.635939
 20
25.561116
 42
-0.044479
  0
VERTEX
  8
LAYER_1
 62
7
 10
9.610838
 20
25.723130
  0
SEQEND
  0
POLYLINE
  8
LAYER_1
 62
1
 70
1
 66
1
  0
VERTEX
  8
LAYER_1
 62
7
 10
2.391717
 20
5.296981
  0
VERTEX
  8
LAYER_1
 62
7
 10
2.391717
 20
5.034566
  0
VERTEX
  8
LAYER_1
 62
7
 10
2.392933
 20
5.033638
  0
VERTEX
  8
LAYER_1
 62
7
 10
2.403657
 20
5.029337
 42
-0.042129
  0
VERTEX
  8
LAYER_1
 62
7
 10
2.720932
 20
4.911713
 42
-0.134805
  0
VERTEX
  8
LAYER_1
 62
7
 10
2.824323
 20
4.814444
  0
VERTEX
  8
LAYER_1
 62
7
 10
2.827068
 20
4.814426
 42
0.076775
  0
VERTEX
  8
LAYER_1
 62
7
 10
2.868344
 20
4.934516
  0
VERTEX
  8
LAYER_1
 62
7
 10
2.873101
 20
4.970030
  0
VERTEX
  8
LAYER_1
 62
7
 10
2.905456
 20
4.938321
 42
-0.056981
  0
VERTEX
  8
LAYER_1
 62
7
 10
3.190228
 20
4.570518
 42
-0.036619
  0
VERTEX
  8
LAYER_1
 62
7
 10
3.405190
 20
4.163796
 42
0.112868
  0
VERTEX
  8
LAYER_1
 62
7
 10
3.423287
 20
4.136127
 42
0.138217
  0
VERTEX
  8
LAYER_1
 62
7
 10
3.436776
 20
4.129837
 42
0.133497
  0
VERTEX
  8
LAYER_1
 62
7
 10
3.454382
 20
4.132307
 42
0.075835
  0
VERTEX
  8
LAYER_1
 62
7
 10
3.484472
 20
4.190034
 42
0.038585
  0
VERTEX
  8
LAYER_1
 62
7
 10
3.505648
 20
4.268604
 42
0.036605
  0
VERTEX
  8
LAYER_1
 62
7
 10
3.526422
 20
4.461416
 42
0.033458
  0
VERTEX
  8
LAYER_1
 62
7
 10
3.517784
 20
4.801688
 42
-0.015032
  0
VERTEX
  8
LAYER_1
 62
7
 10
3.491268
 20
5.107203
 42
-0.048296
  0
VERTEX
  8
LAYER_1
 62
7
 10
3.503684
 20
5.413274
 42
-0.114295
  0
VERTEX
  8
LAYER_1
 62
7
 10
3.547043
 20
5.544603
 42
-0.249898
  0
VERTEX
  8
LAYER_1
 62
7
 10
3.623092
 20
5.586578
 42
-0.080586
  0
VERTEX
  8
LAYER_1
 62
7
 10
3.675170
 20
5.578000
 42
-0.038485
  0
VERTEX
  8
LAYER_1
 62
7
 10
3.732230
 20
5.554747
 42
-0.037458
  0
VERTEX
  8
LAYER_1
 62
7
 10
3.830726
 20
5.495927
 42
-0.056245
  0
VERTEX
  8
LAYER_1
 62
7
 10
3.962714
 20
5.378046
 42
0.107827
  0
VERTEX
  8
LAYER_1
 62
7
 10
3.957942
 20
5.744273
  0
VERTEX
  8
LAYER_1
 62
7
 10
3.955487
 20
5.752255
  0
VERTEX
  8
LAYER_1
 62
7
 10
3.940436
 20
5.766762
 42
0.062278
  0
VERTEX
  8
LAYER_1
 62
7
 10
3.830567
 20
5.850965
 42
0.040968
  0
VERTEX
  8
LAYER_1
 62
7
 10
3.713193
 20
5.913913
  0
VERTEX
  8
LAYER_1
 62
7
 10
3.699173
 20
5.918861
 42
0.157654
  0
VERTEX
  8
LAYER_1
 62
7
 10
3.584869
 20
5.920400
 42
0.151532
  0
VERTEX
  8
LAYER_1
 62
7
 10
3.491453
 20
5.853655
  0
VERTEX
  8
LAYER_1
 62
7
 10
3.472801
 20
5.826484
 42
0.083666
  0
VERTEX
  8
LAYER_1
 62
7
 10
3.408102
 20
5.638017
 42
0.034110
  0
VERTEX
  8
LAYER_1
 62
7
 10
3.384594
 20
5.439298
 42
0.031516
  0
VERTEX
  8
LAYER_1
 62
7
 10
3.394842
 20
5.012182
 42
0.011271
  0
VERTEX
  8
LAYER_1
 62
7
 10
3.434152
 20
4.635389
  0
VERTEX
  8
LAYER_1
 62
7
 10
3.440187
 20
4.574670
  0
VERTEX
  8
LAYER_1
 62
7
 10
3.437416
 20
4.574181
  0
VERTEX
  8
LAYER_1
 62
7
 10
3.431620
 20
4.589677
 42
0.069104
  0
VERTEX
  8
LAYER_1
 62
7
 10
3.159942
 20
5.076089
 42
0.044867
  0
VERTEX
  8
LAYER_1
 62
7
 10
2.967262
 20
5.289916
 42
0.065590
  0
VERTEX
  8
LAYER_1
 62
7
 10
2.747955
 20
5.446822
 42
0.090666
  0
VERTEX
  8
LAYER_1
 62
7
 10
2.589936
 20
5.500463
 42
0.143163
  0
VERTEX
  8
LAYER_1
 62
7
 10
2.486461
 20
5.486119
 42
0.175182
  0
VERTEX
  8
LAYER_1
 62
7
 10
2.424448
 20
5.413072
 42
0.060647
  0
VERTEX
  8
LAYER_1
 62
7
 10
2.391717
 20
5.296981
  0
SEQEND
  0
POLYLINE
  8
LAYER_1
 62
1
 70
1
 66
1
  0
VERTEX
  8
LAYER_1
 62
7
 10
2.391717
 20
6.060306
  0
VERTEX
  8
LAYER_1
 62
7
 10
2.391717
 20
6.031902
  0
VERTEX
  8
LAYER_1
 62
7
 10
2.392879
 20
6.032482
 42
0.003135
  0
VERTEX
  8
LAYER_1
 62
7
 10
3.995277
 20
6.830746
 42
0.018058
  0
VERTEX
  8
LAYER_1
 62
7
 10
4.078948
 20
7.126959
 42
0.013863
  0
VERTEX
  8
LAYER_1
 62
7
 10
2.450153
 20
6.299225
  0
VERTEX
  8
LAYER_1
 62
7
 10
2.444110
 20
6.296117
  0
VERTEX
  8
LAYER_1
 62
7
 10
2.408062
 20
6.133872
  0
VERTEX
  8
LAYER_1
 62
7
 10
2.391717
 20
6.060306
  0
SEQEND
  0
POLYLINE
  8
LAYER_1
 62
1
 70
1
 66
1
  0
VERTEX
  8
LAYER_1
 62
7
 10
2.391717
 20
10.252988
  0
VERTEX
  8
LAYER_1
 62
7
 10
2.391717
 20
9.902903
 42
-0.048611
  0
VERTEX
  8
LAYER_1
 62
7
 10
2.512948
 20
9.833614
 42
-0.056245
  0
VERTEX
  8
LAYER_1
 62
7
 10
2.644936
 20
9.715732
 42
0.107827
  0
VERTEX
  8
LAYER_1
 62
7
 10
2.640164
 20
10.081959
  0
VERTEX
  8
LAYER_1
 62
7
 10
2.637709
 20
10.089942
  0
VERTEX
  8
LAYER_1
 62
7
 10
2.622657
 20
10.104448
 42
0.062278
  0
VERTEX
  8
LAYER_1
 62
7
 10
2.512788
 20
10.188651
 42
0.040968
  0
VERTEX
  8
LAYER_1
 62
7
 10
2.395414
 20
10.251600
  0
VERTEX
  8
LAYER_1
 62
7
 10
2.391717
 20
10.252988
  0
SEQEND
  0
POLYLINE
  8
LAYER_1
 62
1
 70
1
 66
1
  0
VERTEX
  8
LAYER_1
 62
7
 10
11.053492
 20
2.078025
  0
VERTEX
  8
LAYER_1
 62
7
 10
11.628400
 20
2.078025
 42
0.036399
  0
VERTEX
  8
LAYER_1
 62
7
 10
11.608376
 20
2.211895
  0
VERTEX
  8
LAYER_1
 62
7
 10
11.605922
 20
2.219878
  0
VERTEX
  8
LAYER_1
 62
7
 10
11.590870
 20
2.234384
 42
0.062278
  0
VERTEX
  8
LAYER_1
 62
7
 10
11.481001
 20
2.318587
 42
0.040968
  0
VERTEX
  8
LAYER_1
 62
7
 10
11.363627
 20
2.381536
  0
VERTEX
  8
LAYER_1
 62
7
 10
11.349608
 20
2.386484
 42
0.157654
  0
VERTEX
  8
LAYER_1
 62
7
 10
11.235303
 20
2.388022
 42
0.151532
  0
VERTEX
  8
LAYER_1
 62
7
 10
11.141887
 20
2.321278
  0
VERTEX
  8
LAYER_1
 62
7
 10
11.123236
 20
2.294106
 42
0.088649
  0
VERTEX
  8
LAYER_1
 62
7
 10
11.053492
 20
2.078025
  0
SEQEND
  0
POLYLINE
  8
LAYER_1
 62
1
 70
1
 66
1
  0
VERTEX
  8
LAYER_1
 62
7
 10
12.761669
 20
9.503821
  0
VERTEX
  8
LAYER_1
 62
7
 10
12.761669
 20
9.749696
  0
VERTEX
  8
LAYER_1
 62
7
 10
12.608026
 20
9.666880
  0
VERTEX
  8
LAYER_1
 62
7
 10
12.601984
 20
9.663773
  0
VERTEX
  8
LAYER_1
 62
7
 10
12.565936
 20
9.501528
  0
VERTEX
  8
LAYER_1
 62
7
 10
12.542493
 20
9.396014
  0
VERTEX
  8
LAYER_1
 62
7
 10
12.550752
 20
9.400137
  0
VERTEX
  8
LAYER_1
 62
7
 10
12.761669
 20
9.503821
  0
SEQEND
  0
POLYLINE
  8
LAYER_1
 62
1
 70
1
 66
1
  0
VERTEX
  8
LAYER_1
 62
7
 10
11.708676
 20
25.723130
  0
VERTEX
  8
LAYER_1
 62
7
 10
10.901586
 20
25.723130
 42
0.001195
  0
VERTEX
  8
LAYER_1
 62
7
 10
11.615036
 20
23.778387
 42
-0.128507
  0
VERTEX
  8
LAYER_1
 62
7
 10
11.353436
 20
23.485254
 42
-0.088404
  0
VERTEX
  8
LAYER_1
 62
7
 10
10.984241
 20
23.326956
 42
-0.057691
  0
VERTEX
  8
LAYER_1
 62
7
 10
10.569402
 20
23.277168
 42
-0.045440
  0
VERTEX
  8
LAYER_1
 62
7
 10
10.170869
 20
23.309567
 42
-0.113313
  0
VERTEX
  8
LAYER_1
 62
7
 10
9.626082
 20
23.615969
 42
-0.085367
  0
VERTEX
  8
LAYER_1
 62
7
 10
9.250149
 20
24.105019
 42
-0.056773
  0
VERTEX
  8
LAYER_1
 62
7
 10
9.017560
 20
24.696473
 42
-0.040052
  0
VERTEX
  8
LAYER_1
 62
7
 10
8.902807
 20
25.310087
  0
VERTEX
  8
LAYER_1
 62
7
 10
8.850224
 20
25.723130
  0
VERTEX
  8
LAYER_1
 62
7
 10
8.107541
 20
25.723130
 42
-0.035553
  0
VERTEX
  8
LAYER_1
 62
7
 10
8.182252
 20
24.910978
 42
-0.058494
  0
VERTEX
  8
LAYER_1
 62
7
 10
8.108591
 20
24.130371
 42
-0.084948
  0
VERTEX
  8
LAYER_1
 62
7
 10
7.824712
 20
23.423182
 42
-0.096811
  0
VERTEX
  8
LAYER_1
 62
7
 10
7.268766
 20
22.831285
 42
-0.003795
  0
VERTEX
  8
LAYER_1
 62
7
 10
7.037201
 20
25.723130
  0
VERTEX
  8
LAYER_1
 62
7
 10
6.317305
 20
25.723130
 42
0.003346
  0
VERTEX
  8
LAYER_1
 62
7
 10
6.591895
 20
22.505438
 42
-0.127385
  0
VERTEX
  8
LAYER_1
 62
7
 10
5.876799
 20
22.699433
 42
-0.118790
  0
VERTEX
  8
LAYER_1
 62
7
 10
5.333080
 20
23.202368
 42
-0.050013
  0
VERTEX
  8
LAYER_1
 62
7
 10
5.192569
 20
23.472931
 42
-0.038585
  0
VERTEX
  8
LAYER_1
 62
7
 10
5.098311
 20
23.775272
 42
-0.050472
  0
VERTEX
  8
LAYER_1
 62
7
 10
5.020793
 20
24.436884
 42
-0.027774
  0
VERTEX
  8
LAYER_1
 62
7
 10
5.044999
 20
25.110391
 42
-0.012340
  0
VERTEX
  8
LAYER_1
 62
7
 10
5.115406
 20
25.718980
  0
VERTEX
  8
LAYER_1
 62
7
 10
5.115971
 20
25.723130
  0
VERTEX
  8
LAYER_1
 62
7
 10
4.665428
 20
25.723130
  0
VERTEX
  8
LAYER_1
 62
7
 10
4.576226
 20
25.018442
 42
0.021149
  0
VERTEX
  8
LAYER_1
 62
7
 10
4.517850
 20
24.313136
 42
0.044920
  0
VERTEX
  8
LAYER_1
 62
7
 10
4.562299
 20
23.503544
 42
0.059402
  0
VERTEX
  8
LAYER_1
 62
7
 10
4.773258
 20
22.710041
 42
0.084123
  0
VERTEX
  8
LAYER_1
 62
7
 10
5.188758
 20
22.023369
 42
0.107073
  0
VERTEX
  8
LAYER_1
 62
7
 10
5.846830
 20
21.534270
 42
0.108974
  0
VERTEX
  8
LAYER_1
 62
7
 10
6.573365
 20
21.376294
 42
-0.006286
  0
VERTEX
  8
LAYER_1
 62
7
 10
6.745155
 20
19.160943
 42
-0.013516
  0
VERTEX
  8
LAYER_1
 62
7
 10
6.829496
 20
16.934542
 42
0.082535
  0
VERTEX
  8
LAYER_1
 62
7
 10
6.855483
 20
16.854967
 42
0.084889
  0
VERTEX
  8
LAYER_1
 62
7
 10
6.872055
 20
16.834342
 42
0.121788
  0
VERTEX
  8
LAYER_1
 62
7
 10
6.890436
 20
16.824842
 42
0.198560
  0
VERTEX
  8
LAYER_1
 62
7
 10
6.930887
 20
16.834260
 42
0.078284
  0
VERTEX
  8
LAYER_1
 62
7
 10
6.973364
 20
16.873313
 42
0.107351
  0
VERTEX
  8
LAYER_1
 62
7
 10
7.094122
 20
17.127712
 42
0.047724
  0
VERTEX
  8
LAYER_1
 62
7
 10
7.314583
 20
18.245529
 42
0.028089
  0
VERTEX
  8
LAYER_1
 62
7
 10
7.363089
 20
19.383729
 42
0.006631
  0
VERTEX
  8
LAYER_1
 62
7
 10
7.350628
 20
19.956419
  0
VERTEX
  8
LAYER_1
 62
7
 10
7.328502
 20
20.529339
 42
-0.010934
  0
VERTEX
  8
LAYER_1
 62
7
 10
7.299683
 20
21.669384
 42
0.073137
  0
VERTEX
  8
LAYER_1
 62
7
 10
7.803420
 20
22.216530
 42
0.057574
  0
VERTEX
  8
LAYER_1
 62
7
 10
8.144521
 20
22.869869
 42
0.041490
  0
VERTEX
  8
LAYER_1
 62
7
 10
8.353372
 20
23.585687
 42
0.028735
  0
VERTEX
  8
LAYER_1
 62
7
 10
8.460360
 20
24.320270
 42
0.074318
  0
VERTEX
  8
LAYER_1
 62
7
 10
8.746459
 20
23.404482
 42
0.039152
  0
VERTEX
  8
LAYER_1
 62
7
 10
8.994599
 20
22.976639
 42
0.045937
  0
VERTEX
  8
LAYER_1
 62
7
 10
9.305262
 20
22.603514
 42
0.056962
  0
VERTEX
  8
LAYER_1
 62
7
 10
9.672794
 20
22.311121
 42
0.070454
  0
VERTEX
  8
LAYER_1
 62
7
 10
10.091540
 20
22.125473
 42
0.080083
  0
VERTEX
  8
LAYER_1
 62
7
 10
10.555846
 20
22.072583
 42
0.077970
  0
VERTEX
  8
LAYER_1
 62
7
 10
11.060058
 20
22.178465
 42
0.119429
  0
VERTEX
  8
LAYER_1
 62
7
 10
11.714669
 20
22.859087
 42
0.096516
  0
VERTEX
  8
LAYER_1
 62
7
 10
12.015169
 20
23.740784
 42
0.073306
  0
VERTEX
  8
LAYER_1
 62
7
 10
12.008134
 20
24.709442
 42
0.064267
  0
VERTEX
  8
LAYER_1
 62
7
 10
11.740141
 20
25.650949
  0
VERTEX
  8
LAYER_1
 62
7
 10
11.708676
 20
25.723130
  0
SEQEND
  0
POLYLINE
  8
LAYER_1
 62
1
 70
1
 66
1
  0
VERTEX
  8
LAYER_1
 62
7
 10
4.353065
 20
25.723130
  0
VERTEX
  8
LAYER_1
 62
7
 10
3.815683
 20
25.723130
 42
0.018470
  0
VERTEX
  8
LAYER_1
 62
7
 10
3.655402
 20
24.932960
  0
VERTEX
  8
LAYER_1
 62
7
 10
3.570410
 20
24.386768
 42
-0.010036
  0
VERTEX
  8
LAYER_1
 62
7
 10
3.443631
 20
23.656504
 42
-0.026068
  0
VERTEX
  8
LAYER_1
 62
7
 10
3.268937
 20
22.941216
 42
-0.029116
  0
VERTEX
  8
LAYER_1
 62
7
 10
3.161708
 20
22.651393
 42
-0.059745
  0
VERTEX
  8
LAYER_1
 62
7
 10
3.040202
 20
22.439957
 42
-0.048493
  0
VERTEX
  8
LAYER_1
 62
7
 10
2.900460
 20
22.292649
 42
-0.065187
  0
VERTEX
  8
LAYER_1
 62
7
 10
2.741533
 20
22.186738
 42
-0.090830
  0
VERTEX
  8
LAYER_1
 62
7
 10
2.569820
 20
22.137771
 42
-0.110192
  0
VERTEX
  8
LAYER_1
 62
7
 10
2.391717
 20
22.161294
  0
VERTEX
  8
LAYER_1
 62
7
 10
2.391717
 20
21.373847
 42
0.047880
  0
VERTEX
  8
LAYER_1
 62
7
 10
2.603854
 20
21.305536
 42
0.152239
  0
VERTEX
  8
LAYER_1
 62
7
 10
2.905918
 20
21.327348
 42
0.072020
  0
VERTEX
  8
LAYER_1
 62
7
 10
3.055243
 20
21.414105
 42
0.057207
  0
VERTEX
  8
LAYER_1
 62
7
 10
3.201255
 20
21.560132
 42
0.047552
  0
VERTEX
  8
LAYER_1
 62
7
 10
3.406070
 20
21.877023
 42
0.028690
  0
VERTEX
  8
LAYER_1
 62
7
 10
3.567917
 20
22.233933
 42
0.033140
  0
VERTEX
  8
LAYER_1
 62
7
 10
3.765328
 20
22.866587
 42
0.019824
  0
VERTEX
  8
LAYER_1
 62
7
 10
3.902815
 20
23.585302
  0
VERTEX
  8
LAYER_1
 62
7
 10
4.011190
 20
24.312882
 42
-0.018126
  0
VERTEX
  8
LAYER_1
 62
7
 10
4.143568
 20
25.031450
 42
-0.037917
  0
VERTEX
  8
LAYER_1
 62
7
 10
4.353065
 20
25.723130
  0
SEQEND
  0
POLYLINE
  8
LAYER_1
 62
1
 70
1
 66
1
  0
VERTEX
  8
LAYER_1
 62
7
 10
8.945687
 20
4.786966
 42
-0.017631
  0
VERTEX
  8
LAYER_1
 62
7
 10
8.839645
 20
4.789228
 42
-0.007368
  0
VERTEX
  8
LAYER_1
 62
7
 10
8.764568
 20
4.539885
 42
-0.082068
  0
VERTEX
  8
LAYER_1
 62
7
 10
8.647270
 20
4.309231
 42
-0.045281
  0
VERTEX
  8
LAYER_1
 62
7
 10
8.332221
 20
3.965329
 42
-0.013385
  0
VERTEX
  8
LAYER_1
 62
7
 10
7.978301
 20
3.659808
 42
-0.039012
  0
VERTEX
  8
LAYER_1
 62
7
 10
5.998714
 20
2.317956
  0
VERTEX
  8
LAYER_1
 62
7
 10
5.833548
 20
2.227953
 42
0.076433
  0
VERTEX
  8
LAYER_1
 62
7
 10
5.686436
 20
2.112372
  0
VERTEX
  8
LAYER_1
 62
7
 10
6.304446
 20
2.337989
 42
0.013988
  0
VERTEX
  8
LAYER_1
 62
7
 10
6.915441
 20
2.582391
 42
0.037561
  0
VERTEX
  8
LAYER_1
 62
7
 10
7.449149
 20
2.908019
 42
0.014546
  0
VERTEX
  8
LAYER_1
 62
7
 10
7.946784
 20
3.287790
 42
0.008679
  0
VERTEX
  8
LAYER_1
 62
7
 10
8.305483
 20
3.604076
 42
0.038236
  0
VERTEX
  8
LAYER_1
 62
7
 10
8.632744
 20
3.952229
 42
0.093393
  0
VERTEX
  8
LAYER_1
 62
7
 10
8.753042
 20
4.191800
  0
VERTEX
  8
LAYER_1
 62
7
 10
8.791332
 20
4.321816
 42
-0.015490
  0
VERTEX
  8
LAYER_1
 62
7
 10
8.831067
 20
4.450652
 42
0.095572
  0
VERTEX
  8
LAYER_1
 62
7
 10
8.985693
 20
4.308013
 42
0.074870
  0
VERTEX
  8
LAYER_1
 62
7
 10
9.177923
 20
4.226336
 42
0.098006
  0
VERTEX
  8
LAYER_1
 62
7
 10
9.598497
 20
4.206628
 42
0.162458
  0
VERTEX
  8
LAYER_1
 62
7
 10
9.634163
 20
4.217533
 42
0.111403
  0
VERTEX
  8
LAYER_1
 62
7
 10
9.656837
 20
4.244759
 42
0.041570
  0
VERTEX
  8
LAYER_1
 62
7
 10
9.671651
 20
4.279952
  0
VERTEX
  8
LAYER_1
 62
7
 10
9.683739
 20
4.314757
 42
0.138229
  0
VERTEX
  8
LAYER_1
 62
7
 10
9.696828
 20
4.621099
 42
0.074100
  0
VERTEX
  8
LAYER_1
 62
7
 10
9.583084
 20
4.910376
 42
0.091524
  0
VERTEX
  8
LAYER_1
 62
7
 10
9.460656
 20
5.055595
 42
0.204197
  0
VERTEX
  8
LAYER_1
 62
7
 10
9.284705
 20
5.109885
 42
0.121188
  0
VERTEX
  8
LAYER_1
 62
7
 10
9.168954
 20
5.073465
 42
0.081184
  0
VERTEX
  8
LAYER_1
 62
7
 10
9.078355
 20
4.994295
 42
0.039612
  0
VERTEX
  8
LAYER_1
 62
7
 10
9.006177
 20
4.892189
  0
VERTEX
  8
LAYER_1
 62
7
 10
8.945687
 20
4.786966
  0
SEQEND
  0
POLYLINE
  8
LAYER_1
 62
1
 70
1
 66
1
  0
VERTEX
  8
LAYER_1
 62
7
 10
9.021163
 20
4.661065
 42
-0.098587
  0
VERTEX
  8
LAYER_1
 62
7
 10
9.112441
 20
4.751369
 42
-0.187997
  0
VERTEX
  8
LAYER_1
 62
7
 10
9.236204
 20
4.777367
 42
-0.177356
  0
VERTEX
  8
LAYER_1
 62
7
 10
9.362863
 20
4.677033
 42
-0.079139
  0
VERTEX
  8
LAYER_1
 62
7
 10
9.426631
 20
4.524642
 42
-0.137163
  0
VERTEX
  8
LAYER_1
 62
7
 10
9.021163
 20
4.661065
  0
SEQEND
  0
POLYLINE
  8
LAYER_1
 62
1
 70
1
 66
1
  0
VERTEX
  8
LAYER_1
 62
7
 10
6.220213
 20
7.445447
  0
VERTEX
  8
LAYER_1
 62
7
 10
5.881227
 20
6.878655
  0
VERTEX
  8
LAYER_1
 62
7
 10
5.673177
 20
6.530792
  0
VERTEX
  8
LAYER_1
 62
7
 10
5.865340
 20
6.395072
  0
VERTEX
  8
LAYER_1
 62
7
 10
6.686875
 20
5.814844
  0
VERTEX
  8
LAYER_1
 62
7
 10
6.744076
 20
5.774444
  0
VERTEX
  8
LAYER_1
 62
7
 10
7.113239
 20
6.416278
  0
VERTEX
  8
LAYER_1
 62
7
 10
7.271259
 20
6.691016
  0
VERTEX
  8
LAYER_1
 62
7
 10
6.890829
 20
6.964085
  0
VERTEX
  8
LAYER_1
 62
7
 10
6.220213
 20
7.445447
  0
SEQEND
  0
POLYLINE
  8
LAYER_1
 62
1
 70
1
 66
1
  0
VERTEX
  8
LAYER_1
 62
7
 10
11.624184
 20
19.803532
  0
VERTEX
  8
LAYER_1
 62
7
 10
11.285197
 20
19.236740
  0
VERTEX
  8
LAYER_1
 62
7
 10
11.077148
 20
18.888877
  0
VERTEX
  8
LAYER_1
 62
7
 10
11.269311
 20
18.753157
  0
VERTEX
  8
LAYER_1
 62
7
 10
12.090845
 20
18.172928
  0
VERTEX
  8
LAYER_1
 62
7
 10
12.148046
 20
18.132528
  0
VERTEX
  8
LAYER_1
 62
7
 10
12.517209
 20
18.774363
  0
VERTEX
  8
LAYER_1
 62
7
 10
12.675230
 20
19.049101
  0
VERTEX
  8
LAYER_1
 62
7
 10
12.294800
 20
19.322170
  0
VERTEX
  8
LAYER_1
 62
7
 10
11.624184
 20
19.803532
  0
SEQEND
  0
POLYLINE
  8
LAYER_1
 62
1
 70
1
 66
1
  0
VERTEX
  8
LAYER_1
 62
7
 10
8.351660
 20
19.825062
  0
VERTEX
  8
LAYER_1
 62
7
 10
8.012673
 20
19.258270
  0
VERTEX
  8
LAYER_1
 62
7
 10
7.804624
 20
18.910407
  0
VERTEX
  8
LAYER_1
 62
7
 10
7.996787
 20
18.774687
  0
VERTEX
  8
LAYER_1
 62
7
 10
8.818321
 20
18.194458
  0
VERTEX
  8
LAYER_1
 62
7
 10
8.875522
 20
18.154058
  0
VERTEX
  8
LAYER_1
 62
7
 10
9.244685
 20
18.795893
  0
VERTEX
  8
LAYER_1
 62
7
 10
9.402706
 20
19.070631
  0
VERTEX
  8
LAYER_1
 62
7
 10
9.022276
 20
19.343700
  0
VERTEX
  8
LAYER_1
 62
7
 10
8.351660
 20
19.825062
  0
SEQEND
  0
POLYLINE
  8
LAYER_1
 62
1
 70
1
 66
1
  0
VERTEX
  8
LAYER_1
 62
7
 10
2.391717
 20
20.200438
  0
VERTEX
  8
LAYER_1
 62
7
 10
2.391717
 20
19.855915
 42
-0.011015
  0
VERTEX
  8
LAYER_1
 62
7
 10
3.491390
 20
20.328015
  0
VERTEX
  8
LAYER_1
 62
7
 10
3.657049
 20
20.713353
 42
0.015723
  0
VERTEX
  8
LAYER_1
 62
7
 10
2.391717
 20
20.200438
  0
SEQEND
  0
POLYLINE
  8
LAYER_1
 62
2
 70
1
 66
1
  0
VERTEX
  8
LAYER_1
 62
7
 10
2.763392
 20
25.723130
 42
0.028881
  0
VERTEX
  8
LAYER_1
 62
7
 10
2.781763
 20
25.786629
 42
0.063434
  0
VERTEX
  8
LAYER_1
 62
7
 10
2.786921
 20
25.843408
 42
0.176073
  0
VERTEX
  8
LAYER_1
 62
7
 10
2.772993
 20
25.882240
 42
0.211657
  0
VERTEX
  8
LAYER_1
 62
7
 10
2.742683
 20
25.895533
  0
VERTEX
  8
LAYER_1
 62
7
 10
2.699139
 20
25.793471
  0
VERTEX
  8
LAYER_1
 62
7
 10
2.664786
 20
25.723130
  0
VERTEX
  8
LAYER_1
 62
7
 10
2.763392
 20
25.723130
  0
SEQEND
  0
POLYLINE
  8
LAYER_1
 62
2
 70
1
 66
1
  0
VERTEX
  8
LAYER_1
 62
7
 10
2.391717
 20
10.252988
  0
VERTEX
  8
LAYER_1
 62
7
 10
2.381395
 20
10.256548
 42
0.157654
  0
VERTEX
  8
LAYER_1
 62
7
 10
2.267091
 20
10.258086
 42
0.151532
  0
VERTEX
  8
LAYER_1
 62
7
 10
2.173675
 20
10.191342
  0
VERTEX
  8
LAYER_1
 62
7
 10
2.155023
 20
10.164171
 42
0.083666
  0
VERTEX
  8
LAYER_1
 62
7
 10
2.090324
 20
9.975704
 42
0.034110
  0
VERTEX
  8
LAYER_1
 62
7
 10
2.066816
 20
9.776985
 42
0.031516
  0
VERTEX
  8
LAYER_1
 62
7
 10
2.077064
 20
9.349869
 42
0.011271
  0
VERTEX
  8
LAYER_1
 62
7
 10
2.116374
 20
8.973075
  0
VERTEX
  8
LAYER_1
 62
7
 10
2.122408
 20
8.912356
  0
VERTEX
  8
LAYER_1
 62
7
 10
2.119638
 20
8.911868
  0
VERTEX
  8
LAYER_1
 62
7
 10
2.113842
 20
8.927364
 42
0.069104
  0
VERTEX
  8
LAYER_1
 62
7
 10
1.842164
 20
9.413776
 42
0.044867
  0
VERTEX
  8
LAYER_1
 62
7
 10
1.649484
 20
9.627603
 42
0.065590
  0
VERTEX
  8
LAYER_1
 62
7
 10
1.430177
 20
9.784509
 42
0.090666
  0
VERTEX
  8
LAYER_1
 62
7
 10
1.272158
 20
9.838149
 42
0.143163
  0
VERTEX
  8
LAYER_1
 62
7
 10
1.168683
 20
9.823806
 42
0.170358
  0
VERTEX
  8
LAYER_1
 62
7
 10
1.108974
 20
9.755739
 42
0.062052
  0
VERTEX
  8
LAYER_1
 62
7
 10
1.076211
 20
9.647092
 42
0.022551
  0
VERTEX
  8
LAYER_1
 62
7
 10
1.052650
 20
9.439231
 42
0.092429
  0
VERTEX
  8
LAYER_1
 62
7
 10
1.054368
 20
9.402115
 42
0.174259
  0
VERTEX
  8
LAYER_1
 62
7
 10
1.075155
 20
9.371324
  0
VERTEX
  8
LAYER_1
 62
7
 10
1.085878
 20
9.367023
 42
-0.042129
  0
VERTEX
  8
LAYER_1
 62
7
 10
1.403154
 20
9.249399
 42
-0.134805
  0
VERTEX
  8
LAYER_1
 62
7
 10
1.506545
 20
9.152130
  0
VERTEX
  8
LAYER_1
 62
7
 10
1.509290
 20
9.152113
 42
0.076775
  0
VERTEX
  8
LAYER_1
 62
7
 10
1.550566
 20
9.272202
  0
VERTEX
  8
LAYER_1
 62
7
 10
1.555323
 20
9.307717
  0
VERTEX
  8
LAYER_1
 62
7
 10
1.587678
 20
9.276007
 42
-0.056981
  0
VERTEX
  8
LAYER_1
 62
7
 10
1.872450
 20
8.908204
 42
-0.036619
  0
VERTEX
  8
LAYER_1
 62
7
 10
2.087412
 20
8.501482
 42
0.112868
  0
VERTEX
  8
LAYER_1
 62
7
 10
2.105508
 20
8.473813
 42
0.138217
  0
VERTEX
  8
LAYER_1
 62
7
 10
2.118998
 20
8.467523
 42
0.133497
  0
VERTEX
  8
LAYER_1
 62
7
 10
2.136604
 20
8.469994
 42
0.075835
  0
VERTEX
  8
LAYER_1
 62
7
 10
2.166694
 20
8.527720
 42
0.038585
  0
VERTEX
  8
LAYER_1
 62
7
 10
2.187870
 20
8.606291
 42
0.036605
  0
VERTEX
  8
LAYER_1
 62
7
 10
2.208644
 20
8.799102
 42
0.033458
  0
VERTEX
  8
LAYER_1
 62
7
 10
2.200006
 20
9.139374
 42
-0.015032
  0
VERTEX
  8
LAYER_1
 62
7
 10
2.173490
 20
9.444890
 42
-0.048296
  0
VERTEX
  8
LAYER_1
 62
7
 10
2.185906
 20
9.750960
 42
-0.114295
  0
VERTEX
  8
LAYER_1
 62
7
 10
2.229265
 20
9.882290
 42
-0.249898
  0
VERTEX
  8
LAYER_1
 62
7
 10
2.305313
 20
9.924265
 42
-0.103200
  0
VERTEX
  8
LAYER_1
 62
7
 10
2.391717
 20
9.902903
  0
VERTEX
  8
LAYER_1
 62
7
 10
2.391717
 20
10.252988
  0
SEQEND
  0
POLYLINE
  8
LAYER_1
 62
2
 70
1
 66
1
  0
VERTEX
  8
LAYER_1
 62
7
 10
14.316787
 20
0.896870
 42
-0.018483
  0
VERTEX
  8
LAYER_1
 62
7
 10
13.019897
 20
0.522907
  0
VERTEX
  8
LAYER_1
 62
7
 10
14.316787
 20
0.522907
  0
VERTEX
  8
LAYER_1
 62
7
 10
14.316787
 20
0.896870
  0
SEQEND
  0
POLYLINE
  8
LAYER_1
 62
2
 70
1
 66
1
  0
VERTEX
  8
LAYER_1
 62
7
 10
14.316787
 20
2.315931
 42
0.002514
  0
VERTEX
  8
LAYER_1
 62
7
 10
11.879214
 20
1.215995
  0
VERTEX
  8
LAYER_1
 62
7
 10
11.859542
 20
1.091743
  0
VERTEX
  8
LAYER_1
 62
7
 10
11.816868
 20
0.822211
  0
VERTEX
  8
LAYER_1
 62
7
 10
14.316787
 20
1.979350
  0
VERTEX
  8
LAYER_1
 62
7
 10
14.316787
 20
2.315931
  0
SEQEND
  0
POLYLINE
  8
LAYER_1
 62
2
 70
1
 66
1
  0
VERTEX
  8
LAYER_1
 62
7
 10
12.761669
 20
4.534412
 42
0.084618
  0
VERTEX
  8
LAYER_1
 62
7
 10
13.116547
 20
5.034588
 42
0.078378
  0
VERTEX
  8
LAYER_1
 62
7
 10
13.295184
 20
5.624281
 42
0.081994
  0
VERTEX
  8
LAYER_1
 62
7
 10
13.280871
 20
6.238318
 42
0.093348
  0
VERTEX
  8
LAYER_1
 62
7
 10
13.056896
 20
6.811525
 42
0.048295
  0
VERTEX
  8
LAYER_1
 62
7
 10
12.919923
 20
7.027502
  0
VERTEX
  8
LAYER_1
 62
7
 10
12.761669
 20
7.229458
  0
VERTEX
  8
LAYER_1
 62
7
 10
12.761669
 20
5.861213
 42
-0.019601
  0
VERTEX
  8
LAYER_1
 62
7
 10
12.935384
 20
5.555243
 42
-0.023775
  0
VERTEX
  8
LAYER_1
 62
7
 10
12.761669
 20
5.448784
  0
VERTEX
  8
LAYER_1
 62
7
 10
12.761669
 20
4.534412
  0
SEQEND
  0
POLYLINE
  8
LAYER_1
 62
2
 70
1
 66
1
  0
VERTEX
  8
LAYER_1
 62
7
 10
12.761669
 20
7.452248
 42
-0.025008
  0
VERTEX
  8
LAYER_1
 62
7
 10
13.179623
 20
7.158267
 42
-0.017101
  0
VERTEX
  8
LAYER_1
 62
7
 10
13.571690
 20
6.829844
 42
-0.009164
  0
VERTEX
  8
LAYER_1
 62
7
 10
13.947526
 20
6.479870
  0
VERTEX
  8
LAYER_1
 62
7
 10
14.316787
 20
6.121237
  0
VERTEX
  8
LAYER_1
 62
7
 10
14.316787
 20
7.331012
 42
0.007999
  0
VERTEX
  8
LAYER_1
 62
7
 10
13.978600
 20
7.667702
 42
0.021502
  0
VERTEX
  8
LAYER_1
 62
7
 10
13.624646
 20
7.980906
 42
-0.011453
  0
VERTEX
  8
LAYER_1
 62
7
 10
14.316787
 20
8.215592
  0
VERTEX
  8
LAYER_1
 62
7
 10
14.316787
 20
9.190043
 42
0.005345
  0
VERTEX
  8
LAYER_1
 62
7
 10
13.535184
 20
8.931445
 42
0.010709
  0
VERTEX
  8
LAYER_1
 62
7
 10
12.761669
 20
8.647652
  0
VERTEX
  8
LAYER_1
 62
7
 10
12.761669
 20
7.452248
  0
SEQEND
  0
POLYLINE
  8
LAYER_1
 62
2
 70
1
 66
1
  0
VERTEX
  8
LAYER_1
 62
7
 10
14.316787
 20
26.319043
 42
0.144118
  0
VERTEX
  8
LAYER_1
 62
7
 10
13.824678
 20
26.276741
 42
0.108871
  0
VERTEX
  8
LAYER_1
 62
7
 10
13.410397
 20
25.992690
 42
0.075901
  0
VERTEX
  8
LAYER_1
 62
7
 10
13.098052
 20
25.543406
 42
0.064551
  0
VERTEX
  8
LAYER_1
 62
7
 10
12.911751
 20
25.005403
 42
0.072630
  0
VERTEX
  8
LAYER_1
 62
7
 10
12.875602
 20
24.455196
 42
0.102630
  0
VERTEX
  8
LAYER_1
 62
7
 10
13.013711
 20
23.969299
 42
0.143010
  0
VERTEX
  8
LAYER_1
 62
7
 10
13.350186
 20
23.624227
 42
0.070653
  0
VERTEX
  8
LAYER_1
 62
7
 10
13.600344
 20
23.528411
 42
0.060105
  0
VERTEX
  8
LAYER_1
 62
7
 10
13.909134
 20
23.496494
  0
VERTEX
  8
LAYER_1
 62
7
 10
14.316787
 20
23.527118
  0
VERTEX
  8
LAYER_1
 62
7
 10
14.316787
 20
24.711014
 42
-0.072911
  0
VERTEX
  8
LAYER_1
 62
7
 10
13.861935
 20
24.712716
 42
-0.123805
  0
VERTEX
  8
LAYER_1
 62
7
 10
13.458601
 20
24.878697
 42
-0.114909
  0
VERTEX
  8
LAYER_1
 62
7
 10
13.630836
 20
25.075126
 42
-0.116717
  0
VERTEX
  8
LAYER_1
 62
7
 10
13.844017
 20
25.158362
 42
-0.085520
  0
VERTEX
  8
LAYER_1
 62
7
 10
14.079037
 20
25.149921
 42
-0.058457
  0
VERTEX
  8
LAYER_1
 62
7
 10
14.316787
 20
25.071319
  0
VERTEX
  8
LAYER_1
 62
7
 10
14.316787
 20
26.319043
  0
SEQEND
  0
POLYLINE
  8
LAYER_1
 62
2
 70
1
 66
1
  0
VERTEX
  8
LAYER_1
 62
7
 10
11.993549
 20
27.278248
  0
VERTEX
  8
LAYER_1
 62
7
 10
11.974150
 20
27.245812
  0
VERTEX
  8
LAYER_1
 62
7
 10
11.766100
 20
26.897949
  0
VERTEX
  8
LAYER_1
 62
7
 10
11.958264
 20
26.762229
  0
VERTEX
  8
LAYER_1
 62
7
 10
12.779798
 20
26.182000
  0
VERTEX
  8
LAYER_1
 62
7
 10
12.836999
 20
26.141601
  0
VERTEX
  8
LAYER_1
 62
7
 10
13.206162
 20
26.783435
  0
VERTEX
  8
LAYER_1
 62
7
 10
13.364183
 20
27.058173
  0
VERTEX
  8
LAYER_1
 62
7
 10
13.057582
 20
27.278248
  0
VERTEX
  8
LAYER_1
 62
7
 10
11.993549
 20
27.278248
  0
SEQEND
  0
POLYLINE
  8
LAYER_1
 62
2
 70
1
 66
1
  0
VERTEX
  8
LAYER_1
 62
7
 10
2.391717
 20
14.261166
  0
VERTEX
  8
LAYER_1
 62
7
 10
2.376594
 20
14.271880
  0
VERTEX
  8
LAYER_1
 62
7
 10
2.277816
 20
14.341859
  0
VERTEX
  8
LAYER_1
 62
7
 10
1.845149
 20
13.551393
  0
VERTEX
  8
LAYER_1
 62
7
 10
1.725722
 20
13.333205
  0
VERTEX
  8
LAYER_1
 62
7
 10
2.391717
 20
12.904288
  0
VERTEX
  8
LAYER_1
 62
7
 10
2.391717
 20
14.261166
  0
SEQEND
  0
POLYLINE
  8
LAYER_1
 62
2
 70
1
 66
1
  0
VERTEX
  8
LAYER_1
 62
7
 10
2.391717
 20
18.215569
 42
0.042498
  0
VERTEX
  8
LAYER_1
 62
7
 10
2.147492
 20
18.472757
 42
0.060456
  0
VERTEX
  8
LAYER_1
 62
7
 10
1.874353
 20
18.663178
 42
0.090666
  0
VERTEX
  8
LAYER_1
 62
7
 10
1.657745
 20
18.736706
 42
0.143163
  0
VERTEX
  8
LAYER_1
 62
7
 10
1.515905
 20
18.717045
 42
0.170358
  0
VERTEX
  8
LAYER_1
 62
7
 10
1.434058
 20
18.623740
 42
0.062052
  0
VERTEX
  8
LAYER_1
 62
7
 10
1.389147
 20
18.474811
 42
0.022551
  0
VERTEX
  8
LAYER_1
 62
7
 10
1.356850
 20
18.189881
 42
0.092429
  0
VERTEX
  8
LAYER_1
 62
7
 10
1.359206
 20
18.139004
 42
0.174259
  0
VERTEX
  8
LAYER_1
 62
7
 10
1.387700
 20
18.096796
  0
VERTEX
  8
LAYER_1
 62
7
 10
1.402399
 20
18.090901
 42
-0.042129
  0
VERTEX
  8
LAYER_1
 62
7
 10
1.837311
 20
17.929665
 42
-0.134805
  0
VERTEX
  8
LAYER_1
 62
7
 10
1.979036
 20
17.796331
  0
VERTEX
  8
LAYER_1
 62
7
 10
1.982799
 20
17.796308
 42
0.076775
  0
VERTEX
  8
LAYER_1
 62
7
 10
2.039379
 20
17.960923
  0
VERTEX
  8
LAYER_1
 62
7
 10
2.045900
 20
18.009605
  0
VERTEX
  8
LAYER_1
 62
7
 10
2.090251
 20
17.966139
 42
-0.047401
  0
VERTEX
  8
LAYER_1
 62
7
 10
2.391717
 20
17.597616
  0
VERTEX
  8
LAYER_1
 62
7
 10
2.391717
 20
18.215569
  0
SEQEND
  0
POLYLINE
  8
LAYER_1
 62
2
 70
1
 66
1
  0
VERTEX
  8
LAYER_1
 62
7
 10
3.252023
 20
27.278248
 42
-0.012159
  0
VERTEX
  8
LAYER_1
 62
7
 10
2.420809
 20
26.576030
 42
-0.014135
  0
VERTEX
  8
LAYER_1
 62
7
 10
1.681951
 20
26.012143
  0
VERTEX
  8
LAYER_1
 62
7
 10
1.480431
 20
25.867939
  0
VERTEX
  8
LAYER_1
 62
7
 10
1.216925
 20
25.676893
  0
VERTEX
  8
LAYER_1
 62
7
 10
1.215410
 20
25.653823
 42
0.018621
  0
VERTEX
  8
LAYER_1
 62
7
 10
1.186112
 20
24.656119
 42
0.032441
  0
VERTEX
  8
LAYER_1
 62
7
 10
1.269230
 20
23.461492
 42
0.026164
  0
VERTEX
  8
LAYER_1
 62
7
 10
1.382994
 20
22.870594
 42
0.037729
  0
VERTEX
  8
LAYER_1
 62
7
 10
1.560921
 20
22.326779
 42
0.055641
  0
VERTEX
  8
LAYER_1
 62
7
 10
1.815033
 20
21.862153
 42
0.079428
  0
VERTEX
  8
LAYER_1
 62
7
 10
2.157347
 20
21.508819
 42
0.056784
  0
VERTEX
  8
LAYER_1
 62
7
 10
2.391717
 20
21.373847
  0
VERTEX
  8
LAYER_1
 62
7
 10
2.391717
 20
22.161294
 42
-0.035096
  0
VERTEX
  8
LAYER_1
 62
7
 10
2.332511
 20
22.187678
 42
-0.072208
  0
VERTEX
  8
LAYER_1
 62
7
 10
2.118824
 20
22.347010
 42
-0.051213
  0
VERTEX
  8
LAYER_1
 62
7
 10
1.937515
 20
22.569100
 42
-0.061091
  0
VERTEX
  8
LAYER_1
 62
7
 10
1.664202
 20
23.134481
 42
-0.060887
  0
VERTEX
  8
LAYER_1
 62
7
 10
1.420005
 20
24.280558
 42
-0.019201
  0
VERTEX
  8
LAYER_1
 62
7
 10
1.394723
 20
24.899005
 42
-0.008635
  0
VERTEX
  8
LAYER_1
 62
7
 10
1.403630
 20
25.510262
  0
VERTEX
  8
LAYER_1
 62
7
 10
1.410916
 20
25.766159
  0
VERTEX
  8
LAYER_1
 62
7
 10
1.655454
 20
25.902759
  0
VERTEX
  8
LAYER_1
 62
7
 10
1.826320
 20
25.997787
 42
0.013282
  0
VERTEX
  8
LAYER_1
 62
7
 10
2.299157
 20
26.275522
 42
0.029890
  0
VERTEX
  8
LAYER_1
 62
7
 10
2.917011
 20
26.724502
 42
0.021083
  0
VERTEX
  8
LAYER_1
 62
7
 10
3.540166
 20
27.278248
  0
VERTEX
  8
LAYER_1
 62
7
 10
3.252023
 20
27.278248
  0
SEQEND
  0
POLYLINE
  8
LAYER_1
 62
2
 70
1
 66
1
  0
VERTEX
  8
LAYER_1
 62
7
 10
2.391717
 20
25.101587
 42
0.039902
  0
VERTEX
  8
LAYER_1
 62
7
 10
2.211626
 20
24.517631
 42
0.031764
  0
VERTEX
  8
LAYER_1
 62
7
 10
2.172865
 20
24.252431
 42
0.049974
  0
VERTEX
  8
LAYER_1
 62
7
 10
2.176869
 20
23.988459
 42
0.079193
  0
VERTEX
  8
LAYER_1
 62
7
 10
2.243275
 20
23.748231
 42
0.110455
  0
VERTEX
  8
LAYER_1
 62
7
 10
2.391717
 20
23.554266
  0
VERTEX
  8
LAYER_1
 62
7
 10
2.391717
 20
25.101587
  0
SEQEND
  0
POLYLINE
  8
LAYER_1
 62
2
 70
1
 66
1
  0
VERTEX
  8
LAYER_1
 62
7
 10
2.391717
 20
5.296981
 42
0.018858
  0
VERTEX
  8
LAYER_1
 62
7
 10
2.370428
 20
5.101545
 42
0.089949
  0
VERTEX
  8
LAYER_1
 62
7
 10
2.371978
 20
5.065070
 42
0.170022
  0
VERTEX
  8
LAYER_1
 62
7
 10
2.391717
 20
5.034566
  0
VERTEX
  8
LAYER_1
 62
7
 10
2.391717
 20
5.296981
  0
SEQEND
  0
POLYLINE
  8
LAYER_1
 62
2
 70
1
 66
1
  0
VERTEX
  8
LAYER_1
 62
7
 10
0.836599
 20
8.078815
 42
0.084038
  0
VERTEX
  8
LAYER_1
 62
7
 10
1.296368
 20
7.326888
 42
0.104409
  0
VERTEX
  8
LAYER_1
 62
7
 10
2.020027
 20
6.789312
 42
0.030847
  0
VERTEX
  8
LAYER_1
 62
7
 10
1.682376
 20
6.005046
 42
0.043573
  0
VERTEX
  8
LAYER_1
 62
7
 10
1.459010
 20
5.163311
 42
0.061425
  0
VERTEX
  8
LAYER_1
 62
7
 10
1.415112
 20
4.302459
 42
0.080501
  0
VERTEX
  8
LAYER_1
 62
7
 10
1.615867
 20
3.460841
 42
0.093483
  0
VERTEX
  8
LAYER_1
 62
7
 10
1.936703
 20
2.998883
 42
0.084546
  0
VERTEX
  8
LAYER_1
 62
7
 10
2.391717
 20
2.682229
  0
VERTEX
  8
LAYER_1
 62
7
 10
2.391717
 20
3.867332
 42
-0.147184
  0
VERTEX
  8
LAYER_1
 62
7
 10
1.960139
 20
4.419849
 42
-0.089702
  0
VERTEX
  8
LAYER_1
 62
7
 10
1.811136
 20
5.037306
 42
-0.067790
  0
VERTEX
  8
LAYER_1
 62
7
 10
1.862119
 20
5.664199
 42
-0.045187
  0
VERTEX
  8
LAYER_1
 62
7
 10
2.054834
 20
6.275489
 42
-0.028428
  0
VERTEX
  8
LAYER_1
 62
7
 10
2.331027
 20
6.846133
  0
VERTEX
  8
LAYER_1
 62
7
 10
2.391717
 20
6.912816
  0
VERTEX
  8
LAYER_1
 62
7
 10
2.391717
 20
7.973373
 42
-0.171456
  0
VERTEX
  8
LAYER_1
 62
7
 10
1.964909
 20
7.764537
 42
-0.219058
  0
VERTEX
  8
LAYER_1
 62
7
 10
1.509096
 20
7.919175
 42
-0.097880
  0
VERTEX
  8
LAYER_1
 62
7
 10
1.057841
 20
8.563195
 42
-0.064567
  0
VERTEX
  8
LAYER_1
 62
7
 10
0.836599
 20
9.321076
  0
VERTEX
  8
LAYER_1
 62
7
 10
0.836599
 20
8.078815
  0
SEQEND
  0
POLYLINE
  8
LAYER_1
 62
2
 70
1
 66
1
  0
VERTEX
  8
LAYER_1
 62
7
 10
2.391717
 20
6.060306
  0
VERTEX
  8
LAYER_1
 62
7
 10
2.384619
 20
6.028359
  0
VERTEX
  8
LAYER_1
 62
7
 10
2.391717
 20
6.031902
  0
VERTEX
  8
LAYER_1
 62
7
 10
2.391717
 20
6.060306
  0
SEQEND
  0
POLYLINE
  8
LAYER_1
 62
2
 70
1
 66
1
  0
VERTEX
  8
LAYER_1
 62
7
 10
11.708676
 20
25.723130
 42
-0.005681
  0
VERTEX
  8
LAYER_1
 62
7
 10
11.051424
 20
27.278248
  0
VERTEX
  8
LAYER_1
 62
7
 10
10.338093
 20
27.278248
  0
VERTEX
  8
LAYER_1
 62
7
 10
10.624205
 20
26.487457
  0
VERTEX
  8
LAYER_1
 62
7
 10
10.901586
 20
25.723130
  0
VERTEX
  8
LAYER_1
 62
7
 10
11.708676
 20
25.723130
  0
SEQEND
  0
POLYLINE
  8
LAYER_1
 62
2
 70
1
 66
1
  0
VERTEX
  8
LAYER_1
 62
7
 10
2.391717
 20
16.332126
 42
-0.061380
  0
VERTEX
  8
LAYER_1
 62
7
 10
1.774229
 20
16.762941
 42
-0.069478
  0
VERTEX
  8
LAYER_1
 62
7
 10
1.286338
 20
17.342486
 42
-0.073602
  0
VERTEX
  8
LAYER_1
 62
7
 10
0.976408
 20
18.160881
 42
-0.060373
  0
VERTEX
  8
LAYER_1
 62
7
 10
0.894565
 20
19.031830
 42
-0.048954
  0
VERTEX
  8
LAYER_1
 62
7
 10
1.003516
 20
19.908575
 42
-0.042219
  0
VERTEX
  8
LAYER_1
 62
7
 10
1.265966
 20
20.744360
 42
0.067770
  0
VERTEX
  8
LAYER_1
 62
7
 10
1.563646
 20
21.174395
 42
0.108639
  0
VERTEX
  8
LAYER_1
 62
7
 10
1.694181
 20
21.677981
 42
0.113034
  0
VERTEX
  8
LAYER_1
 62
7
 10
1.634941
 20
21.647563
 42
0.060929
  0
VERTEX
  8
LAYER_1
 62
7
 10
1.586450
 20
21.595355
 42
0.009116
  0
VERTEX
  8
LAYER_1
 62
7
 10
1.502914
 20
21.468199
 42
-0.051332
  0
VERTEX
  8
LAYER_1
 62
7
 10
1.458466
 20
21.414565
 42
-0.111944
  0
VERTEX
  8
LAYER_1
 62
7
 10
1.405962
 20
21.381772
 42
-0.142590
  0
VERTEX
  8
LAYER_1
 62
7
 10
1.340700
 20
21.380475
 42
-0.092605
  0
VERTEX
  8
LAYER_1
 62
7
 10
1.257981
 20
21.421335
 42
-0.154305
  0
VERTEX
  8
LAYER_1
 62
7
 10
1.129918
 20
21.716231
 42
-0.082213
  0
VERTEX
  8
LAYER_1
 62
7
 10
1.155430
 20
22.042778
 42
-0.015324
  0
VERTEX
  8
LAYER_1
 62
7
 10
1.246550
 20
22.378691
 42
0.045369
  0
VERTEX
  8
LAYER_1
 62
7
 10
1.315308
 20
22.701687
 42
0.037372
  0
VERTEX
  8
LAYER_1
 62
7
 10
1.116029
 20
22.272874
 42
0.048279
  0
VERTEX
  8
LAYER_1
 62
7
 10
0.989450
 20
21.808246
 42
0.065826
  0
VERTEX
  8
LAYER_1
 62
7
 10
0.970570
 20
21.334023
 42
0.085651
  0
VERTEX
  8
LAYER_1
 62
7
 10
1.094392
 20
20.876423
 42
0.022749
  0
VERTEX
  8
LAYER_1
 62
7
 10
0.836599
 20
20.221028
  0
VERTEX
  8
LAYER_1
 62
7
 10
0.836599
 20
16.608156
 42
0.055608
  0
VERTEX
  8
LAYER_1
 62
7
 10
1.218029
 20
15.991009
 42
0.006164
  0
VERTEX
  8
LAYER_1
 62
7
 10
0.978119
 20
15.233601
 42
0.002939
  0
VERTEX
  8
LAYER_1
 62
7
 10
0.836599
 20
14.757644
  0
VERTEX
  8
LAYER_1
 62
7
 10
0.836599
 20
13.717627
 42
-0.021656
  0
VERTEX
  8
LAYER_1
 62
7
 10
1.054158
 20
14.613698
  0
VERTEX
  8
LAYER_1
 62
7
 10
1.178225
 20
15.057957
 42
0.008451
  0
VERTEX
  8
LAYER_1
 62
7
 10
1.293334
 20
15.501113
 42
0.008804
  0
VERTEX
  8
LAYER_1
 62
7
 10
1.352365
 20
15.767716
 42
0.054323
  0
VERTEX
  8
LAYER_1
 62
7
 10
2.391717
 20
15.122722
  0
VERTEX
  8
LAYER_1
 62
7
 10
2.391717
 20
16.332126
  0
SEQEND
  0
POLYLINE
  8
LAYER_1
 62
2
 70
1
 66
1
  0
VERTEX
  8
LAYER_1
 62
7
 10
2.391717
 20
20.200438
 42
0.013769
  0
VERTEX
  8
LAYER_1
 62
7
 10
1.191325
 20
19.627054
  0
VERTEX
  8
LAYER_1
 62
7
 10
1.163591
 20
19.527287
  0
VERTEX
  8
LAYER_1
 62
7
 10
1.079157
 20
19.223559
  0
VERTEX
  8
LAYER_1
 62
7
 10
1.218236
 20
19.288994
 42
-0.010707
  0
VERTEX
  8
LAYER_1
 62
7
 10
2.391717
 20
19.855915
  0
VERTEX
  8
LAYER_1
 62
7
 10
2.391717
 20
20.200438
  0
SEQEND
  0
POLYLINE
  8
LAYER_1
 62
2
 70
1
 66
1
  0
VERTEX
  8
LAYER_1
 62
7
 10
14.316787
 20
22.246707
 42
-0.090491
  0
VERTEX
  8
LAYER_1
 62
7
 10
13.503351
 20
22.229336
 42
-0.113995
  0
VERTEX
  8
LAYER_1
 62
7
 10
12.761669
 20
22.530184
  0
VERTEX
  8
LAYER_1
 62
7
 10
12.761669
 20
20.797066
 42
0.181226
  0
VERTEX
  8
LAYER_1
 62
7
 10
14.157791
 20
19.622485
 42
0.054966
  0
VERTEX
  8
LAYER_1
 62
7
 10
14.316787
 20
20.408488
  0
VERTEX
  8
LAYER_1
 62
7
 10
14.316787
 20
21.006305
  0
VERTEX
  8
LAYER_1
 62
7
 10
14.303362
 20
21.145448
  0
VERTEX
  8
LAYER_1
 62
7
 10
14.316787
 20
21.149415
  0
VERTEX
  8
LAYER_1
 62
7
 10
14.316787
 20
22.246707
  0
SEQEND
  0
POLYLINE
  8
LAYER_1
 62
2
 70
1
 66
1
  0
VERTEX
  8
LAYER_1
 62
7
 10
3.298785
 20
2.078025
 42
0.060391
  0
VERTEX
  8
LAYER_1
 62
7
 10
3.166918
 20
1.299770
 42
0.071938
  0
VERTEX
  8
LAYER_1
 62
7
 10
3.239420
 20
0.522907
  0
VERTEX
  8
LAYER_1
 62
7
 10
3.518681
 20
0.522907
 42
-0.040589
  0
VERTEX
  8
LAYER_1
 62
7
 10
3.446048
 20
0.656912
 42
-0.075305
  0
VERTEX
  8
LAYER_1
 62
7
 10
3.360474
 20
1.367042
 42
-0.086766
  0
VERTEX
  8
LAYER_1
 62
7
 10
3.498569
 20
2.078025
  0
VERTEX
  8
LAYER_1
 62
7
 10
3.298785
 20
2.078025
  0
SEQEND
  0
POLYLINE
  8
LAYER_1
 62
2
 70
1
 66
1
  0
VERTEX
  8
LAYER_1
 62
7
 10
7.318392
 20
0.522907
 42
-0.016155
  0
VERTEX
  8
LAYER_1
 62
7
 10
7.026867
 20
0.653841
 42
-0.015728
  0
VERTEX
  8
LAYER_1
 62
7
 10
7.903493
 20
1.403129
 42
-0.027450
  0
VERTEX
  8
LAYER_1
 62
7
 10
8.846272
 20
2.078025
  0
VERTEX
  8
LAYER_1
 62
7
 10
7.504300
 20
2.078025
 42
-0.002697
  0
VERTEX
  8
LAYER_1
 62
7
 10
6.264821
 20
1.145629
 42
-0.106998
  0
VERTEX
  8
LAYER_1
 62
7
 10
5.577390
 20
2.078025
  0
VERTEX
  8
LAYER_1
 62
7
 10
4.694796
 20
2.078025
 42
0.049093
  0
VERTEX
  8
LAYER_1
 62
7
 10
4.972653
 20
1.282380
 42
0.066400
  0
VERTEX
  8
LAYER_1
 62
7
 10
5.424357
 20
0.572968
  0
VERTEX
  8
LAYER_1
 62
7
 10
5.360005
 20
0.522907
  0
VERTEX
  8
LAYER_1
 62
7
 10
7.318392
 20
0.522907
  0
SEQEND
  0
POLYLINE
  8
LAYER_1
 62
2
 70
1
 66
1
  0
VERTEX
  8
LAYER_1
 62
7
 10
12.761669
 20
2.598798
 42
-0.013615
  0
VERTEX
  8
LAYER_1
 62
7
 10
12.870936
 20
2.524590
  0
VERTEX
  8
LAYER_1
 62
7
 10
12.994984
 20
2.435308
  0
VERTEX
  8
LAYER_1
 62
7
 10
13.211024
 20
3.047313
  0
VERTEX
  8
LAYER_1
 62
7
 10
13.312801
 20
3.335631
 42
0.056571
  0
VERTEX
  8
LAYER_1
 62
7
 10
12.761669
 20
3.921809
  0
VERTEX
  8
LAYER_1
 62
7
 10
12.761669
 20
2.598798
  0
SEQEND
  0
POLYLINE
  8
LAYER_1
 62
2
 70
1
 66
1
  0
VERTEX
  8
LAYER_1
 62
7
 10
12.761669
 20
10.514813
 42
0.070844
  0
VERTEX
  8
LAYER_1
 62
7
 10
13.580505
 20
10.889287
 42
0.073461
  0
VERTEX
  8
LAYER_1
 62
7
 10
14.246036
 20
11.463042
 42
0.019071
  0
VERTEX
  8
LAYER_1
 62
7
 10
14.316787
 20
11.596497
  0
VERTEX
  8
LAYER_1
 62
7
 10
14.316787
 20
13.410753
 42
0.089417
  0
VERTEX
  8
LAYER_1
 62
7
 10
13.977003
 20
13.841210
 42
0.033172
  0
VERTEX
  8
LAYER_1
 62
7
 10
13.753827
 20
14.068070
  0
VERTEX
  8
LAYER_1
 62
7
 10
13.513163
 20
14.285074
 42
-0.038910
  0
VERTEX
  8
LAYER_1
 62
7
 10
13.295534
 20
14.516186
 42
-0.078674
  0
VERTEX
  8
LAYER_1
 62
7
 10
13.141458
 20
14.785369
 42
-0.010397
  0
VERTEX
  8
LAYER_1
 62
7
 10
13.486411
 20
14.672539
  0
VERTEX
  8
LAYER_1
 62
7
 10
13.601819
 20
14.635398
 42
0.065003
  0
VERTEX
  8
LAYER_1
 62
7
 10
13.457720
 20
14.906505
 42
0.046829
  0
VERTEX
  8
LAYER_1
 62
7
 10
13.257250
 20
15.137743
 42
0.026800
  0
VERTEX
  8
LAYER_1
 62
7
 10
13.019027
 20
15.342394
 42
0.008741
  0
VERTEX
  8
LAYER_1
 62
7
 10
12.761669
 20
15.533739
  0
VERTEX
  8
LAYER_1
 62
7
 10
12.761669
 20
14.010171
  0
VERTEX
  8
LAYER_1
 62
7
 10
12.798924
 20
13.935597
  0
VERTEX
  8
LAYER_1
 62
7
 10
12.761669
 20
13.944508
  0
VERTEX
  8
LAYER_1
 62
7
 10
12.761669
 20
13.471158
 42
0.007948
  0
VERTEX
  8
LAYER_1
 62
7
 10
12.853283
 20
13.899873
 42
0.023529
  0
VERTEX
  8
LAYER_1
 62
7
 10
13.200958
 20
13.509367
  0
VERTEX
  8
LAYER_1
 62
7
 10
13.384715
 20
13.323032
  0
VERTEX
  8
LAYER_1
 62
7
 10
13.569967
 20
13.138142
 42
-0.015587
  0
VERTEX
  8
LAYER_1
 62
7
 10
13.929589
 20
12.759183
 42
-0.035102
  0
VERTEX
  8
LAYER_1
 62
7
 10
14.249105
 20
12.345475
 42
-0.049947
  0
VERTEX
  8
LAYER_1
 62
7
 10
13.560766
 20
11.873818
 42
-0.061762
  0
VERTEX
  8
LAYER_1
 62
7
 10
12.761669
 20
11.551670
  0
VERTEX
  8
LAYER_1
 62
7
 10
12.761669
 20
10.514813
  0
SEQEND
  0
POLYLINE
  8
LAYER_1
 62
2
 70
1
 66
1
  0
VERTEX
  8
LAYER_1
 62
7
 10
12.761669
 20
16.748680
 42
-0.002398
  0
VERTEX
  8
LAYER_1
 62
7
 10
14.316787
 20
17.410246
  0
VERTEX
  8
LAYER_1
 62
7
 10
14.316787
 20
18.431963
 42
0.001949
  0
VERTEX
  8
LAYER_1
 62
7
 10
12.761669
 20
17.791080
  0
VERTEX
  8
LAYER_1
 62
7
 10
12.761669
 20
16.748680
  0
SEQEND
  0
POLYLINE
  8
LAYER_1
 62
2
 70
1
 66
1
  0
VERTEX
  8
LAYER_1
 62
7
 10
0.836599
 20
10.422158
 42
0.123497
  0
VERTEX
  8
LAYER_1
 62
7
 10
1.151221
 20
10.347541
 42
0.136297
  0
VERTEX
  8
LAYER_1
 62
7
 10
1.412529
 20
10.430928
 42
0.095080
  0
VERTEX
  8
LAYER_1
 62
7
 10
1.620832
 20
10.636306
 42
0.059357
  0
VERTEX
  8
LAYER_1
 62
7
 10
1.776437
 20
10.927661
 42
0.075499
  0
VERTEX
  8
LAYER_1
 62
7
 10
1.930786
 20
11.624243
 42
0.038824
  0
VERTEX
  8
LAYER_1
 62
7
 10
1.930145
 20
11.957443
 42
0.057850
  0
VERTEX
  8
LAYER_1
 62
7
 10
1.878038
 20
12.232562
 42
0.050818
  0
VERTEX
  8
LAYER_1
 62
7
 10
1.801647
 20
11.983780
 42
-0.021489
  0
VERTEX
  8
LAYER_1
 62
7
 10
1.734413
 20
11.715843
 42
-0.107207
  0
VERTEX
  8
LAYER_1
 62
7
 10
1.615430
 20
11.492440
 42
-0.183494
  0
VERTEX
  8
LAYER_1
 62
7
 10
1.383795
 20
11.377257
 42
-0.112656
  0
VERTEX
  8
LAYER_1
 62
7
 10
1.163018
 20
11.477629
 42
-0.089930
  0
VERTEX
  8
LAYER_1
 62
7
 10
1.006920
 20
11.652525
 42
-0.056647
  0
VERTEX
  8
LAYER_1
 62
7
 10
0.902460
 20
11.875841
 42
-0.032817
  0
VERTEX
  8
LAYER_1
 62
7
 10
0.836599
 20
12.121471
  0
VERTEX
  8
LAYER_1
 62
7
 10
0.836599
 20
10.422158
  0
SEQEND
  0
POLYLINE
  8
LAYER_1
 62
2
 70
1
 66
1
  0
VERTEX
  8
LAYER_1
 62
7
 10
2.391717
 20
11.894883
  0
VERTEX
  8
LAYER_1
 62
7
 10
2.261173
 20
11.676610
  0
VERTEX
  8
LAYER_1
 62
7
 10
2.391717
 20
11.584410
  0
VERTEX
  8
LAYER_1
 62
7
 10
2.391717
 20
11.894883
  0
SEQEND
  0
POLYLINE
  8
LAYER_1
 62
2
 70
1
 66
1
  0
VERTEX
  8
LAYER_1
 62
7
 10
14.316787
 20
19.289165
  0
VERTEX
  8
LAYER_1
 62
7
 10
14.159792
 20
19.183575
 42
0.012636
  0
VERTEX
  8
LAYER_1
 62
7
 10
13.662542
 20
18.828280
 42
0.021577
  0
VERTEX
  8
LAYER_1
 62
7
 10
13.196327
 20
18.444508
  0
VERTEX
  8
LAYER_1
 62
7
 10
13.754094
 20
18.737368
 42
0.004070
  0
VERTEX
  8
LAYER_1
 62
7
 10
14.316787
 20
19.035124
  0
VERTEX
  8
LAYER_1
 62
7
 10
14.316787
 20
19.289165
  0
SEQEND
  0
POLYLINE
  8
LAYER_1
 62
2
 70
1
 66
1
  0
VERTEX
  8
LAYER_1
 62
7
 10
4.079769
 20
2.078025
 42
0.018886
  0
VERTEX
  8
LAYER_1
 62
7
 10
3.942678
 20
1.741753
 42
0.034636
  0
VERTEX
  8
LAYER_1
 62
7
 10
3.846144
 20
1.411373
 42
0.081776
  0
VERTEX
  8
LAYER_1
 62
7
 10
3.822115
 20
1.032637
 42
0.081208
  0
VERTEX
  8
LAYER_1
 62
7
 10
3.871246
 20
0.861414
 42
0.112654
  0
VERTEX
  8
LAYER_1
 62
7
 10
3.980343
 20
0.724309
 42
0.139792
  0
VERTEX
  8
LAYER_1
 62
7
 10
4.070582
 20
0.683577
 42
0.178830
  0
VERTEX
  8
LAYER_1
 62
7
 10
4.175017
 20
0.710645
 42
0.108088
  0
VERTEX
  8
LAYER_1
 62
7
 10
4.269232
 20
0.813830
 42
0.049968
  0
VERTEX
  8
LAYER_1
 62
7
 10
4.340503
 20
0.963154
 42
0.060868
  0
VERTEX
  8
LAYER_1
 62
7
 10
4.409827
 20
1.251246
  0
VERTEX
  8
LAYER_1
 62
7
 10
4.411010
 20
1.277877
 42
0.042763
  0
VERTEX
  8
LAYER_1
 62
7
 10
4.409379
 20
1.295035
 42
0.045822
  0
VERTEX
  8
LAYER_1
 62
7
 10
4.407428
 20
1.302016
 42
0.116534
  0
VERTEX
  8
LAYER_1
 62
7
 10
4.404624
 20
1.306442
 42
0.285188
  0
VERTEX
  8
LAYER_1
 62
7
 10
4.400897
 20
1.307195
 42
0.092010
  0
VERTEX
  8
LAYER_1
 62
7
 10
4.398664
 20
1.305845
 42
0.052499
  0
VERTEX
  8
LAYER_1
 62
7
 10
4.396174
 20
1.303158
 42
0.069925
  0
VERTEX
  8
LAYER_1
 62
7
 10
4.383459
 20
1.276242
  0
VERTEX
  8
LAYER_1
 62
7
 10
4.375011
 20
1.254806
 42
-0.090795
  0
VERTEX
  8
LAYER_1
 62
7
 10
4.279424
 20
1.109798
 42
-0.243805
  0
VERTEX
  8
LAYER_1
 62
7
 10
4.145033
 20
1.059544
 42
-0.230175
  0
VERTEX
  8
LAYER_1
 62
7
 10
4.030526
 20
1.148835
 42
-0.066684
  0
VERTEX
  8
LAYER_1
 62
7
 10
3.996927
 20
1.236633
 42
-0.068700
  0
VERTEX
  8
LAYER_1
 62
7
 10
3.977829
 20
1.425090
 42
-0.047175
  0
VERTEX
  8
LAYER_1
 62
7
 10
4.003002
 20
1.617012
 42
-0.043112
  0
VERTEX
  8
LAYER_1
 62
7
 10
4.127086
 20
1.986511
  0
VERTEX
  8
LAYER_1
 62
7
 10
4.164918
 20
2.078025
  0
VERTEX
  8
LAYER_1
 62
7
 10
4.079769
 20
2.078025
  0
SEQEND
  0
POLYLINE
  8
LAYER_1
 62
2
 70
1
 66
1
  0
VERTEX
  8
LAYER_1
 62
7
 10
9.610838
 20
25.723130
 42
-0.081658
  0
VERTEX
  8
LAYER_1
 62
7
 10
9.664718
 20
26.181467
 42
-0.032719
  0
VERTEX
  8
LAYER_1
 62
7
 10
9.819923
 20
26.621093
  0
VERTEX
  8
LAYER_1
 62
7
 10
9.912322
 20
26.847049
 42
0.031895
  0
VERTEX
  8
LAYER_1
 62
7
 10
9.992938
 20
27.077115
 42
0.063434
  0
VERTEX
  8
LAYER_1
 62
7
 10
9.998096
 20
27.133894
 42
0.176073
  0
VERTEX
  8
LAYER_1
 62
7
 10
9.984168
 20
27.172726
 42
0.211657
  0
VERTEX
  8
LAYER_1
 62
7
 10
9.953858
 20
27.186019
  0
VERTEX
  8
LAYER_1
 62
7
 10
9.910314
 20
27.083957
 42
0.019199
  0
VERTEX
  8
LAYER_1
 62
7
 10
9.628899
 20
26.458338
 42
0.042506
  0
VERTEX
  8
LAYER_1
 62
7
 10
9.422801
 20
25.808117
  0
VERTEX
  8
LAYER_1
 62
7
 10
9.406709
 20
25.723130
  0
VERTEX
  8
LAYER_1
 62
7
 10
9.610838
 20
25.723130
  0
SEQEND
  0
POLYLINE
  8
LAYER_1
 62
2
 70
1
 66
1
  0
VERTEX
  8
LAYER_1
 62
7
 10
11.053492
 20
2.078025
 42
0.028280
  0
VERTEX
  8
LAYER_1
 62
7
 10
11.035028
 20
1.906921
 42
0.031516
  0
VERTEX
  8
LAYER_1
 62
7
 10
11.045276
 20
1.479805
 42
0.011271
  0
VERTEX
  8
LAYER_1
 62
7
 10
11.084586
 20
1.103011
  0
VERTEX
  8
LAYER_1
 62
7
 10
11.090621
 20
1.042292
  0
VERTEX
  8
LAYER_1
 62
7
 10
11.087850
 20
1.041804
  0
VERTEX
  8
LAYER_1
 62
7
 10
11.082055
 20
1.057300
 42
0.069104
  0
VERTEX
  8
LAYER_1
 62
7
 10
10.810377
 20
1.543712
 42
0.044867
  0
VERTEX
  8
LAYER_1
 62
7
 10
10.617697
 20
1.757539
 42
0.065590
  0
VERTEX
  8
LAYER_1
 62
7
 10
10.398389
 20
1.914445
 42
0.090666
  0
VERTEX
  8
LAYER_1
 62
7
 10
10.240371
 20
1.968085
 42
0.143163
  0
VERTEX
  8
LAYER_1
 62
7
 10
10.136896
 20
1.953742
 42
0.170358
  0
VERTEX
  8
LAYER_1
 62
7
 10
10.077187
 20
1.885675
 42
0.062052
  0
VERTEX
  8
LAYER_1
 62
7
 10
10.044423
 20
1.777028
 42
0.022551
  0
VERTEX
  8
LAYER_1
 62
7
 10
10.020862
 20
1.569167
 42
0.092429
  0
VERTEX
  8
LAYER_1
 62
7
 10
10.022581
 20
1.532051
 42
0.174259
  0
VERTEX
  8
LAYER_1
 62
7
 10
10.043368
 20
1.501260
  0
VERTEX
  8
LAYER_1
 62
7
 10
10.054091
 20
1.496959
 42
-0.042129
  0
VERTEX
  8
LAYER_1
 62
7
 10
10.371367
 20
1.379335
 42
-0.134805
  0
VERTEX
  8
LAYER_1
 62
7
 10
10.474757
 20
1.282066
  0
VERTEX
  8
LAYER_1
 62
7
 10
10.477502
 20
1.282049
 42
0.076775
  0
VERTEX
  8
LAYER_1
 62
7
 10
10.518778
 20
1.402138
  0
VERTEX
  8
LAYER_1
 62
7
 10
10.523536
 20
1.437653
  0
VERTEX
  8
LAYER_1
 62
7
 10
10.555891
 20
1.405943
 42
-0.056981
  0
VERTEX
  8
LAYER_1
 62
7
 10
10.840663
 20
1.038140
 42
-0.036619
  0
VERTEX
  8
LAYER_1
 62
7
 10
11.055625
 20
0.631418
 42
0.112868
  0
VERTEX
  8
LAYER_1
 62
7
 10
11.073721
 20
0.603749
 42
0.138217
  0
VERTEX
  8
LAYER_1
 62
7
 10
11.087210
 20
0.597459
 42
0.133497
  0
VERTEX
  8
LAYER_1
 62
7
 10
11.104817
 20
0.599929
 42
0.075835
  0
VERTEX
  8
LAYER_1
 62
7
 10
11.134906
 20
0.657656
 42
0.038585
  0
VERTEX
  8
LAYER_1
 62
7
 10
11.156083
 20
0.736227
 42
0.036605
  0
VERTEX
  8
LAYER_1
 62
7
 10
11.176857
 20
0.929038
 42
0.033458
  0
VERTEX
  8
LAYER_1
 62
7
 10
11.168219
 20
1.269310
 42
-0.015032
  0
VERTEX
  8
LAYER_1
 62
7
 10
11.141702
 20
1.574825
 42
-0.048296
  0
VERTEX
  8
LAYER_1
 62
7
 10
11.154118
 20
1.880896
 42
-0.114295
  0
VERTEX
  8
LAYER_1
 62
7
 10
11.197478
 20
2.012226
 42
-0.249898
  0
VERTEX
  8
LAYER_1
 62
7
 10
11.273526
 20
2.054201
 42
-0.080586
  0
VERTEX
  8
LAYER_1
 62
7
 10
11.325604
 20
2.045623
 42
-0.038485
  0
VERTEX
  8
LAYER_1
 62
7
 10
11.382664
 20
2.022369
 42
-0.037458
  0
VERTEX
  8
LAYER_1
 62
7
 10
11.481160
 20
1.963550
 42
-0.056245
  0
VERTEX
  8
LAYER_1
 62
7
 10
11.613149
 20
1.845668
 42
0.067397
  0
VERTEX
  8
LAYER_1
 62
7
 10
11.628400
 20
2.078025
  0
VERTEX
  8
LAYER_1
 62
7
 10
11.053492
 20
2.078025
  0
SEQEND
  0
POLYLINE
  8
LAYER_1
 62
2
 70
1
 66
1
  0
VERTEX
  8
LAYER_1
 62
7
 10
12.761669
 20
9.503821
 42
0.002745
  0
VERTEX
  8
LAYER_1
 62
7
 10
14.153150
 20
10.198401
 42
0.018058
  0
VERTEX
  8
LAYER_1
 62
7
 10
14.236821
 20
10.494614
 42
0.012625
  0
VERTEX
  8
LAYER_1
 62
7
 10
12.761669
 20
9.749696
  0
VERTEX
  8
LAYER_1
 62
7
 10
12.761669
 20
9.503821
  0
SEQEND
  0
POLYLINE
  8
LAYER_1
 62
2
 70
1
 66
1
  0
VERTEX
  8
LAYER_1
 62
7
 10
4.353065
 20
25.723130
 42
-0.061055
  0
VERTEX
  8
LAYER_1
 62
7
 10
4.726496
 20
26.418351
 42
-0.019945
  0
VERTEX
  8
LAYER_1
 62
7
 10
4.665428
 20
25.723130
  0
VERTEX
  8
LAYER_1
 62
7
 10
5.115971
 20
25.723130
 42
0.018352
  0
VERTEX
  8
LAYER_1
 62
7
 10
5.203273
 20
26.508114
 42
0.056623
  0
VERTEX
  8
LAYER_1
 62
7
 10
5.173926
 20
27.278248
  0
VERTEX
  8
LAYER_1
 62
7
 10
4.520799
 20
27.278248
 42
0.066035
  0
VERTEX
  8
LAYER_1
 62
7
 10
4.087178
 20
26.546512
 42
0.041915
  0
VERTEX
  8
LAYER_1
 62
7
 10
3.815683
 20
25.723130
  0
VERTEX
  8
LAYER_1
 62
7
 10
4.353065
 20
25.723130
  0
SEQEND
  0
POLYLINE
  8
LAYER_1
 62
2
 70
1
 66
1
  0
VERTEX
  8
LAYER_1
 62
7
 10
8.850224
 20
25.723130
 42
0.004961
  0
VERTEX
  8
LAYER_1
 62
7
 10
8.748583
 20
26.500953
 42
0.016202
  0
VERTEX
  8
LAYER_1
 62
7
 10
8.613502
 20
27.278248
  0
VERTEX
  8
LAYER_1
 62
7
 10
7.759359
 20
27.278248
  0
VERTEX
  8
LAYER_1
 62
7
 10
7.791161
 20
27.152308
 42
-0.005210
  0
VERTEX
  8
LAYER_1
 62
7
 10
7.961881
 20
26.458068
 42
-0.017551
  0
VERTEX
  8
LAYER_1
 62
7
 10
8.107541
 20
25.723130
  0
VERTEX
  8
LAYER_1
 62
7
 10
8.850224
 20
25.723130
  0
SEQEND
  0
POLYLINE
  8
LAYER_1
 62
2
 70
1
 66
1
  0
VERTEX
  8
LAYER_1
 62
7
 10
7.037201
 20
25.723130
  0
VERTEX
  8
LAYER_1
 62
7
 10
6.925553
 20
27.278248
  0
VERTEX
  8
LAYER_1
 62
7
 10
6.197315
 20
27.278248
 42
0.000954
  0
VERTEX
  8
LAYER_1
 62
7
 10
6.317305
 20
25.723130
  0
VERTEX
  8
LAYER_1
 62
7
 10
7.037201
 20
25.723130
  0
SEQEND
  0
POLYLINE
  8
LAYER_1
 62
2
 70
1
 66
1
  0
VERTEX
  8
LAYER_1
 62
7
 10
14.316787
 20
4.497144
  0
VERTEX
  8
LAYER_1
 62
7
 10
14.170186
 20
4.252024
  0
VERTEX
  8
LAYER_1
 62
7
 10
13.962136
 20
3.904161
  0
VERTEX
  8
LAYER_1
 62
7
 10
14.154300
 20
3.768441
  0
VERTEX
  8
LAYER_1
 62
7
 10
14.316787
 20
3.653680
  0
VERTEX
  8
LAYER_1
 62
7
 10
14.316787
 20
4.497144
  0
SEQEND
  0
POLYLINE
  8
LAYER_1
 62
2
 70
1
 66
1
  0
VERTEX
  8
LAYER_1
 62
7
 10
14.316787
 20
21.006305
  0
VERTEX
  8
LAYER_1
 62
7
 10
14.316787
 20
20.408488
 42
0.041667
  0
VERTEX
  8
LAYER_1
 62
7
 10
14.316787
 20
21.006305
  0
SEQEND
  0
POLYLINE
  8
LAYER_1
 62
2
 70
1
 66
1
  0
VERTEX
  8
LAYER_1
 62
7
 10
12.761669
 20
13.944508
  0
VERTEX
  8
LAYER_1
 62
7
 10
12.798924
 20
13.935597
  0
VERTEX
  8
LAYER_1
 62
7
 10
12.761669
 20
14.010171
  0
VERTEX
  8
LAYER_1
 62
7
 10
12.761669
 20
13.944508
  0
SEQEND
  0
POLYLINE
  8
LAYER_1
 62
2
 70
1
 66
1
  0
VERTEX
  8
LAYER_1
 62
7
 10
14.316787
 20
21.149415
  0
VERTEX
  8
LAYER_1
 62
7
 10
14.303362
 20
21.145448
  0
VERTEX
  8
LAYER_1
 62
7
 10
14.316787
 20
21.006305
  0
VERTEX
  8
LAYER_1
 62
7
 10
14.316787
 20
21.149415
  0
SEQEND
  0
POLYLINE
  8
LAYER_1
 62
7
 70
1
 66
1
  0
VERTEX
  8
LAYER_1
 62
7
 10
24.534068
 20
17.766418
 42
-0.065378
  0
VERTEX
  8
LAYER_1
 62
7
 10
24.329440
 20
17.789490
 42
-0.077131
  0
VERTEX
  8
LAYER_1
 62
7
 10
24.166880
 20
17.858052
 42
-0.150652
  0
VERTEX
  8
LAYER_1
 62
7
 10
23.958593
 20
18.101911
 42
-0.102487
  0
VERTEX
  8
LAYER_1
 62
7
 10
23.890469
 20
18.438528
 42
-0.073867
  0
VERTEX
  8
LAYER_1
 62
7
 10
23.943774
 20
18.808437
 42
-0.071590
  0
VERTEX
  8
LAYER_1
 62
7
 10
24.099771
 20
19.152170
 42
-0.094537
  0
VERTEX
  8
LAYER_1
 62
7
 10
24.339723
 20
19.410260
 42
-0.140870
  0
VERTEX
  8
LAYER_1
 62
7
 10
24.644895
 20
19.523242
 42
-0.150185
  0
VERTEX
  8
LAYER_1
 62
7
 10
24.996549
 20
19.431647
 42
-0.104741
  0
VERTEX
  8
LAYER_1
 62
7
 10
25.513880
 20
18.936029
 42
-0.089706
  0
VERTEX
  8
LAYER_1
 62
7
 10
25.803765
 20
18.284706
 42
-0.083007
  0
VERTEX
  8
LAYER_1
 62
7
 10
25.859331
 20
17.568349
 42
-0.089016
  0
VERTEX
  8
LAYER_1
 62
7
 10
25.673705
 20
16.877629
 42
-0.074092
  0
VERTEX
  8
LAYER_1
 62
7
 10
25.501455
 20
16.670480
 42
-0.054501
  0
VERTEX
  8
LAYER_1
 62
7
 10
25.281492
 20
16.513787
 42
-0.036072
  0
VERTEX
  8
LAYER_1
 62
7
 10
25.033729
 20
16.397416
 42
-0.021448
  0
VERTEX
  8
LAYER_1
 62
7
 10
24.778077
 20
16.311232
  0
VERTEX
  8
LAYER_1
 62
7
 10
24.778077
 20
16.311232
 42
-0.109346
  0
VERTEX
  8
LAYER_1
 62
7
 10
24.687975
 20
15.368590
  0
VERTEX
  8
LAYER_1
 62
7
 10
24.687975
 20
15.368590
 42
-0.125665
  0
VERTEX
  8
LAYER_1
 62
7
 10
24.020435
 20
15.818590
 42
-0.132331
  0
VERTEX
  8
LAYER_1
 62
7
 10
23.660551
 20
16.536995
 42
-0.046420
  0
VERTEX
  8
LAYER_1
 62
7
 10
23.419381
 20
16.188172
 42
-0.061460
  0
VERTEX
  8
LAYER_1
 62
7
 10
23.113321
 20
15.901483
 42
-0.082378
  0
VERTEX
  8
LAYER_1
 62
7
 10
22.745530
 20
15.716563
 42
-0.096986
  0
VERTEX
  8
LAYER_1
 62
7
 10
22.319168
 20
15.673045
 42
0.003060
  0
VERTEX
  8
LAYER_1
 62
7
 10
22.333083
 20
15.304499
  0
VERTEX
  8
LAYER_1
 62
7
 10
22.337317
 20
15.176308
 42
-0.037496
  0
VERTEX
  8
LAYER_1
 62
7
 10
22.318803
 20
14.662041
 42
-0.087250
  0
VERTEX
  8
LAYER_1
 62
7
 10
22.183410
 20
14.190746
 42
-0.134058
  0
VERTEX
  8
LAYER_1
 62
7
 10
21.850920
 20
13.822924
 42
-0.013663
  0
VERTEX
  8
LAYER_1
 62
7
 10
21.223194
 20
13.398218
 42
-0.020542
  0
VERTEX
  8
LAYER_1
 62
7
 10
20.565058
 20
13.015595
 42
-0.028027
  0
VERTEX
  8
LAYER_1
 62
7
 10
19.875286
 20
12.699526
 42
-0.035852
  0
VERTEX
  8
LAYER_1
 62
7
 10
19.152653
 20
12.474478
  0
VERTEX
  8
LAYER_1
 62
7
 10
19.016983
 20
12.443035
  0
VERTEX
  8
LAYER_1
 62
7
 10
19.017925
 20
12.172815
  0
VERTEX
  8
LAYER_1
 62
7
 10
19.023729
 20
10.509126
  0
VERTEX
  8
LAYER_1
 62
7
 10
19.131929
 20
10.458230
 42
-0.133560
  0
VERTEX
  8
LAYER_1
 62
7
 10
19.419679
 20
10.204371
 42
-0.032042
  0
VERTEX
  8
LAYER_1
 62
7
 10
19.521484
 20
10.034137
 42
-0.006704
  0
VERTEX
  8
LAYER_1
 62
7
 10
19.655061
 20
9.757266
 42
0.032172
  0
VERTEX
  8
LAYER_1
 62
7
 10
19.801368
 20
9.489362
 42
0.122025
  0
VERTEX
  8
LAYER_1
 62
7
 10
20.085639
 20
9.213744
  0
VERTEX
  8
LAYER_1
 62
7
 10
20.139008
 20
9.447656
 42
-0.019637
  0
VERTEX
  8
LAYER_1
 62
7
 10
20.200190
 20
9.680392
 42
-0.043716
  0
VERTEX
  8
LAYER_1
 62
7
 10
20.289160
 20
9.901033
 42
-0.066265
  0
VERTEX
  8
LAYER_1
 62
7
 10
20.425896
 20
10.098663
  0
VERTEX
  8
LAYER_1
 62
7
 10
20.134225
 20
10.348342
 42
-0.008118
  0
VERTEX
  8
LAYER_1
 62
7
 10
19.844283
 20
10.602293
 42
-0.018858
  0
VERTEX
  8
LAYER_1
 62
7
 10
19.569299
 20
10.870631
 42
-0.029807
  0
VERTEX
  8
LAYER_1
 62
7
 10
19.322502
 20
11.163472
 42
-0.035443
  0
VERTEX
  8
LAYER_1
 62
7
 10
19.297978
 20
11.489263
 42
-0.059953
  0
VERTEX
  8
LAYER_1
 62
7
 10
19.335078
 20
11.825784
 42
-0.106226
  0
VERTEX
  8
LAYER_1
 62
7
 10
19.470074
 20
12.116755
 42
-0.147562
  0
VERTEX
  8
LAYER_1
 62
7
 10
19.739236
 20
12.305898
 42
-0.015825
  0
VERTEX
  8
LAYER_1
 62
7
 10
21.429890
 20
13.175431
 42
-0.010134
  0
VERTEX
  8
LAYER_1
 62
7
 10
23.162554
 20
13.955621
 42
-0.004422
  0
VERTEX
  8
LAYER_1
 62
7
 10
24.918504
 20
14.685604
 42
0.001273
  0
VERTEX
  8
LAYER_1
 62
7
 10
26.679015
 20
15.404516
 42
0.003599
  0
VERTEX
  8
LAYER_1
 62
7
 10
27.899347
 20
15.826364
  0
VERTEX
  8
LAYER_1
 62
7
 10
28.508473
 20
16.040561
  0
VERTEX
  8
LAYER_1
 62
7
 10
29.118409
 20
16.252471
 42
-0.007356
  0
VERTEX
  8
LAYER_1
 62
7
 10
30.345216
 20
16.656018
 42
-0.012803
  0
VERTEX
  8
LAYER_1
 62
7
 10
31.588785
 20
17.010184
  0
VERTEX
  8
LAYER_1
 62
7
 10
32.124334
 20
17.167702
 42
-0.015678
  0
VERTEX
  8
LAYER_1
 62
7
 10
32.668245
 20
17.313089
 42
-0.035533
  0
VERTEX
  8
LAYER_1
 62
7
 10
33.218881
 20
17.401545
 42
-0.055766
  0
VERTEX
  8
LAYER_1
 62
7
 10
33.774601
 20
17.388267
 42
-0.093363
  0
VERTEX
  8
LAYER_1
 62
7
 10
33.896125
 20
17.350033
 42
-0.107388
  0
VERTEX
  8
LAYER_1
 62
7
 10
33.977277
 20
17.279581
 42
-0.157511
  0
VERTEX
  8
LAYER_1
 62
7
 10
34.038444
 20
17.074021
 42
-0.083010
  0
VERTEX
  8
LAYER_1
 62
7
 10
33.998057
 20
16.835576
 42
-0.070662
  0
VERTEX
  8
LAYER_1
 62
7
 10
33.896070
 20
16.628235
 42
-0.056217
  0
VERTEX
  8
LAYER_1
 62
7
 10
33.753937
 20
16.322330
 42
-0.036284
  0
VERTEX
  8
LAYER_1
 62
7
 10
33.559472
 20
16.050700
 42
-0.015112
  0
VERTEX
  8
LAYER_1
 62
7
 10
33.336517
 20
15.798483
  0
VERTEX
  8
LAYER_1
 62
7
 10
33.108917
 20
15.550817
 42
0.004026
  0
VERTEX
  8
LAYER_1
 62
7
 10
32.622740
 20
15.032771
 42
0.010968
  0
VERTEX
  8
LAYER_1
 62
7
 10
32.152080
 20
14.500151
 42
0.018061
  0
VERTEX
  8
LAYER_1
 62
7
 10
31.714304
 20
13.942688
 42
0.025195
  0
VERTEX
  8
LAYER_1
 62
7
 10
31.326782
 20
13.350114
 42
-0.063784
  0
VERTEX
  8
LAYER_1
 62
7
 10
31.642686
 20
14.125848
 42
-0.041517
  0
VERTEX
  8
LAYER_1
 62
7
 10
32.114379
 20
14.817581
 42
-0.019198
  0
VERTEX
  8
LAYER_1
 62
7
 10
32.672371
 20
15.454747
 42
0.001769
  0
VERTEX
  8
LAYER_1
 62
7
 10
33.247174
 20
16.066779
 42
-0.020316
  0
VERTEX
  8
LAYER_1
 62
7
 10
33.383415
 20
16.208400
  0
VERTEX
  8
LAYER_1
 62
7
 10
33.454285
 20
16.277921
  0
VERTEX
  8
LAYER_1
 62
7
 10
33.523386
 20
16.348821
 42
0.043811
  0
VERTEX
  8
LAYER_1
 62
7
 10
33.645466
 20
16.501479
 42
0.075417
  0
VERTEX
  8
LAYER_1
 62
7
 10
33.728032
 20
16.679809
 42
0.099746
  0
VERTEX
  8
LAYER_1
 62
7
 10
33.376580
 20
16.778862
 42
0.059704
  0
VERTEX
  8
LAYER_1
 62
7
 10
33.012090
 20
16.761011
 42
0.019349
  0
VERTEX
  8
LAYER_1
 62
7
 10
32.645022
 20
16.684801
 42
-0.017782
  0
VERTEX
  8
LAYER_1
 62
7
 10
32.285837
 20
16.608782
 42
0.017888
  0
VERTEX
  8
LAYER_1
 62
7
 10
29.364348
 20
15.742957
 42
0.013105
  0
VERTEX
  8
LAYER_1
 62
7
 10
26.503010
 20
14.698077
 42
0.008319
  0
VERTEX
  8
LAYER_1
 62
7
 10
23.687079
 20
13.530818
 42
0.003578
  0
VERTEX
  8
LAYER_1
 62
7
 10
20.901812
 20
12.297853
 42
0.011806
  0
VERTEX
  8
LAYER_1
 62
7
 10
20.256068
 20
11.971836
 42
0.022587
  0
VERTEX
  8
LAYER_1
 62
7
 10
19.637221
 20
11.604284
 42
0.026339
  0
VERTEX
  8
LAYER_1
 62
7
 10
20.344435
 20
10.992458
 42
0.013566
  0
VERTEX
  8
LAYER_1
 62
7
 10
21.098933
 20
10.438226
 42
0.019325
  0
VERTEX
  8
LAYER_1
 62
7
 10
21.740161
 20
10.723864
  0
VERTEX
  8
LAYER_1
 62
7
 10
21.517831
 20
10.883873
 42
0.026549
  0
VERTEX
  8
LAYER_1
 62
7
 10
21.284007
 20
11.035677
 42
0.059312
  0
VERTEX
  8
LAYER_1
 62
7
 10
21.033633
 20
11.143299
 42
0.091543
  0
VERTEX
  8
LAYER_1
 62
7
 10
20.761654
 20
11.170757
 42
0.108793
  0
VERTEX
  8
LAYER_1
 62
7
 10
20.694055
 20
11.145736
  0
VERTEX
  8
LAYER_1
 62
7
 10
20.620688
 20
11.098853
 42
-0.035394
  0
VERTEX
  8
LAYER_1
 62
7
 10
20.562574
 20
11.065711
 42
-0.074321
  0
VERTEX
  8
LAYER_1
 62
7
 10
20.522009
 20
11.052536
 42
-0.168322
  0
VERTEX
  8
LAYER_1
 62
7
 10
20.496495
 20
11.056235
 42
-0.188229
  0
VERTEX
  8
LAYER_1
 62
7
 10
20.483532
 20
11.073715
 42
-0.086035
  0
VERTEX
  8
LAYER_1
 62
7
 10
20.480620
 20
11.101884
 42
-0.038016
  0
VERTEX
  8
LAYER_1
 62
7
 10
20.485261
 20
11.137647
 42
-0.024794
  0
VERTEX
  8
LAYER_1
 62
7
 10
20.507201
 20
11.219587
  0
VERTEX
  8
LAYER_1
 62
7
 10
20.560600
 20
11.391787
  0
VERTEX
  8
LAYER_1
 62
7
 10
20.669497
 20
11.726714
  0
VERTEX
  8
LAYER_1
 62
7
 10
20.795266
 20
11.781376
 42
-0.059209
  0
VERTEX
  8
LAYER_1
 62
7
 10
21.538601
 20
12.002067
 42
-0.046266
  0
VERTEX
  8
LAYER_1
 62
7
 10
22.309514
 20
12.061574
 42
-0.033487
  0
VERTEX
  8
LAYER_1
 62
7
 10
23.086211
 20
11.997806
 42
-0.022687
  0
VERTEX
  8
LAYER_1
 62
7
 10
23.846900
 20
11.848675
 42
0.043515
  0
VERTEX
  8
LAYER_1
 62
7
 10
23.639737
 20
12.197501
 42
0.061829
  0
VERTEX
  8
LAYER_1
 62
7
 10
23.364902
 20
12.495290
  0
VERTEX
  8
LAYER_1
 62
7
 10
23.371524
 20
12.667242
 42
-0.013216
  0
VERTEX
  8
LAYER_1
 62
7
 10
23.380627
 20
12.839846
  0
VERTEX
  8
LAYER_1
 62
7
 10
23.409032
 20
13.170598
  0
VERTEX
  8
LAYER_1
 62
7
 10
23.583959
 20
13.021393
 42
0.019409
  0
VERTEX
  8
LAYER_1
 62
7
 10
23.800462
 20
12.854814
 42
-0.013191
  0
VERTEX
  8
LAYER_1
 62
7
 10
24.019539
 20
12.690479
 42
-0.048670
  0
VERTEX
  8
LAYER_1
 62
7
 10
24.210801
 20
12.506707
 42
-0.085759
  0
VERTEX
  8
LAYER_1
 62
7
 10
24.343855
 20
12.281819
  0
VERTEX
  8
LAYER_1
 62
7
 10
24.201525
 20
12.329089
 42
0.015066
  0
VERTEX
  8
LAYER_1
 62
7
 10
24.058913
 20
12.374643
 42
0.078674
  0
VERTEX
  8
LAYER_1
 62
7
 10
24.154278
 20
12.208032
 42
0.038910
  0
VERTEX
  8
LAYER_1
 62
7
 10
24.288981
 20
12.064984
  0
VERTEX
  8
LAYER_1
 62
7
 10
24.437940
 20
11.930669
 42
-0.033172
  0
VERTEX
  8
LAYER_1
 62
7
 10
24.576076
 20
11.790254
 42
-0.104262
  0
VERTEX
  8
LAYER_1
 62
7
 10
24.812959
 20
11.470629
 42
-0.087092
  0
VERTEX
  8
LAYER_1
 62
7
 10
24.912556
 20
11.087937
 42
-0.151675
  0
VERTEX
  8
LAYER_1
 62
7
 10
24.742594
 20
10.318280
 42
-0.127007
  0
VERTEX
  8
LAYER_1
 62
7
 10
23.937805
 20
9.768710
 42
-0.071326
  0
VERTEX
  8
LAYER_1
 62
7
 10
23.458691
 20
9.666055
 42
-0.091136
  0
VERTEX
  8
LAYER_1
 62
7
 10
22.988044
 20
9.718522
 42
-0.061946
  0
VERTEX
  8
LAYER_1
 62
7
 10
22.733981
 20
9.829998
 42
-0.059662
  0
VERTEX
  8
LAYER_1
 62
7
 10
22.550706
 20
9.974824
 42
-0.024934
  0
VERTEX
  8
LAYER_1
 62
7
 10
22.393182
 20
10.152064
  0
VERTEX
  8
LAYER_1
 62
7
 10
22.310002
 20
10.252546
  0
VERTEX
  8
LAYER_1
 62
7
 10
22.216371
 20
10.360781
  0
VERTEX
  8
LAYER_1
 62
7
 10
22.205023
 20
10.373405
  0
VERTEX
  8
LAYER_1
 62
7
 10
22.205023
 20
10.373405
 42
0.090871
  0
VERTEX
  8
LAYER_1
 62
7
 10
21.622560
 20
10.056277
 42
-0.002574
  0
VERTEX
  8
LAYER_1
 62
7
 10
22.735309
 20
9.338029
 42
-0.019781
  0
VERTEX
  8
LAYER_1
 62
7
 10
23.813700
 20
8.571691
 42
-0.014146
  0
VERTEX
  8
LAYER_1
 62
7
 10
24.526471
 20
8.826851
  0
VERTEX
  8
LAYER_1
 62
7
 10
25.246705
 20
9.058252
 42
-0.164547
  0
VERTEX
  8
LAYER_1
 62
7
 10
25.048704
 20
9.457239
 42
-0.141188
  0
VERTEX
  8
LAYER_1
 62
7
 10
25.111061
 20
9.889375
 42
-0.093194
  0
VERTEX
  8
LAYER_1
 62
7
 10
25.270927
 20
10.125799
 42
-0.112203
  0
VERTEX
  8
LAYER_1
 62
7
 10
25.481355
 20
10.257657
 42
-0.105148
  0
VERTEX
  8
LAYER_1
 62
7
 10
25.729707
 20
10.286559
 42
-0.081675
  0
VERTEX
  8
LAYER_1
 62
7
 10
26.003346
 20
10.214114
 42
-0.047706
  0
VERTEX
  8
LAYER_1
 62
7
 10
26.242265
 20
10.067665
 42
-0.028522
  0
VERTEX
  8
LAYER_1
 62
7
 10
26.543551
 20
9.822778
 42
-0.044897
  0
VERTEX
  8
LAYER_1
 62
7
 10
26.802990
 20
9.545601
 42
-0.048657
  0
VERTEX
  8
LAYER_1
 62
7
 10
26.884452
 20
9.415574
 42
-0.103149
  0
VERTEX
  8
LAYER_1
 62
7
 10
26.916372
 20
9.302279
 42
-0.132485
  0
VERTEX
  8
LAYER_1
 62
7
 10
26.818098
 20
8.878457
 42
-0.114866
  0
VERTEX
  8
LAYER_1
 62
7
 10
26.679739
 20
8.724319
 42
-0.149094
  0
VERTEX
  8
LAYER_1
 62
7
 10
26.475812
 20
8.662174
 42
0.008632
  0
VERTEX
  8
LAYER_1
 62
7
 10
26.117774
 20
8.599714
 42
-0.025718
  0
VERTEX
  8
LAYER_1
 62
7
 10
25.757788
 20
8.549513
 42
-0.097597
  0
VERTEX
  8
LAYER_1
 62
7
 10
25.734711
 20
8.419148
 42
-0.075868
  0
VERTEX
  8
LAYER_1
 62
7
 10
25.710257
 20
8.377838
 42
-0.123972
  0
VERTEX
  8
LAYER_1
 62
7
 10
25.680905
 20
8.355554
 42
-0.178985
  0
VERTEX
  8
LAYER_1
 62
7
 10
25.649442
 20
8.354628
 42
-0.139516
  0
VERTEX
  8
LAYER_1
 62
7
 10
25.618652
 20
8.377393
 42
-0.079044
  0
VERTEX
  8
LAYER_1
 62
7
 10
25.591321
 20
8.426180
 42
-0.047687
  0
VERTEX
  8
LAYER_1
 62
7
 10
25.570234
 20
8.503322
 42
0.026047
  0
VERTEX
  8
LAYER_1
 62
7
 10
24.956933
 20
8.359395
 42
0.017182
  0
VERTEX
  8
LAYER_1
 62
7
 10
24.357984
 20
8.163003
 42
-0.027366
  0
VERTEX
  8
LAYER_1
 62
7
 10
24.689137
 20
7.859198
 42
0.003756
  0
VERTEX
  8
LAYER_1
 62
7
 10
25.008494
 20
7.537482
 42
0.035187
  0
VERTEX
  8
LAYER_1
 62
7
 10
25.348047
 20
7.244552
 42
0.066683
  0
VERTEX
  8
LAYER_1
 62
7
 10
25.739792
 20
7.027105
 42
0.111772
  0
VERTEX
  8
LAYER_1
 62
7
 10
26.226296
 20
7.029384
 42
0.081720
  0
VERTEX
  8
LAYER_1
 62
7
 10
26.667166
 20
7.215045
 42
0.048912
  0
VERTEX
  8
LAYER_1
 62
7
 10
27.058187
 20
7.516434
 42
0.025925
  0
VERTEX
  8
LAYER_1
 62
7
 10
27.395140
 20
7.865898
 42
-0.082939
  0
VERTEX
  8
LAYER_1
 62
7
 10
27.359633
 20
7.493046
 42
-0.068452
  0
VERTEX
  8
LAYER_1
 62
7
 10
27.211767
 20
7.140314
 42
-0.115129
  0
VERTEX
  8
LAYER_1
 62
7
 10
26.671023
 20
6.576525
 42
-0.062069
  0
VERTEX
  8
LAYER_1
 62
7
 10
26.324182
 20
6.406124
 42
-0.074492
  0
VERTEX
  8
LAYER_1
 62
7
 10
25.957051
 20
6.337156
 42
-0.191440
  0
VERTEX
  8
LAYER_1
 62
7
 10
25.253992
 20
6.584835
 42
-0.019060
  0
VERTEX
  8
LAYER_1
 62
7
 10
24.875549
 20
6.925810
  0
VERTEX
  8
LAYER_1
 62
7
 10
24.508025
 20
7.281552
 42
0.021316
  0
VERTEX
  8
LAYER_1
 62
7
 10
24.126672
 20
7.619023
 42
0.041693
  0
VERTEX
  8
LAYER_1
 62
7
 10
23.706743
 20
7.905180
 42
0.063284
  0
VERTEX
  8
LAYER_1
 62
7
 10
23.766262
 20
7.779909
 42
0.027234
  0
VERTEX
  8
LAYER_1
 62
7
 10
23.847486
 20
7.667492
  0
VERTEX
  8
LAYER_1
 62
7
 10
23.933296
 20
7.557427
 42
-0.044918
  0
VERTEX
  8
LAYER_1
 62
7
 10
24.006573
 20
7.439211
 42
-0.111634
  0
VERTEX
  8
LAYER_1
 62
7
 10
24.157537
 20
7.004893
 42
-0.096847
  0
VERTEX
  8
LAYER_1
 62
7
 10
24.121323
 20
6.546000
 42
-0.097744
  0
VERTEX
  8
LAYER_1
 62
7
 10
23.916312
 20
6.134212
 42
-0.113515
  0
VERTEX
  8
LAYER_1
 62
7
 10
23.560882
 20
5.841211
  0
VERTEX
  8
LAYER_1
 62
7
 10
23.560882
 20
5.841211
 42
-0.095020
  0
VERTEX
  8
LAYER_1
 62
7
 10
24.164966
 20
5.287797
  0
VERTEX
  8
LAYER_1
 62
7
 10
24.101971
 20
5.109342
  0
VERTEX
  8
LAYER_1
 62
7
 10
23.968252
 20
4.730539
  0
VERTEX
  8
LAYER_1
 62
7
 10
23.891472
 20
4.785801
 42
0.210435
  0
VERTEX
  8
LAYER_1
 62
7
 10
22.659108
 20
5.040689
 42
0.051685
  0
VERTEX
  8
LAYER_1
 62
7
 10
21.992587
 20
4.825848
 42
0.039054
  0
VERTEX
  8
LAYER_1
 62
7
 10
21.376753
 20
4.494418
 42
0.026557
  0
VERTEX
  8
LAYER_1
 62
7
 10
20.805888
 20
4.082925
 42
0.015313
  0
VERTEX
  8
LAYER_1
 62
7
 10
20.274270
 20
3.627896
 42
0.054474
  0
VERTEX
  8
LAYER_1
 62
7
 10
20.936071
 20
3.391618
 42
0.043036
  0
VERTEX
  8
LAYER_1
 62
7
 10
21.628927
 20
3.288747
 42
0.031651
  0
VERTEX
  8
LAYER_1
 62
7
 10
22.333950
 20
3.289854
 42
0.021794
  0
VERTEX
  8
LAYER_1
 62
7
 10
23.032249
 20
3.365511
 42
0.042213
  0
VERTEX
  8
LAYER_1
 62
7
 10
24.578817
 20
3.712413
 42
0.023477
  0
VERTEX
  8
LAYER_1
 62
7
 10
26.068643
 20
4.259241
  0
VERTEX
  8
LAYER_1
 62
7
 10
26.169069
 20
4.307805
  0
VERTEX
  8
LAYER_1
 62
7
 10
26.334533
 20
4.388534
  0
VERTEX
  8
LAYER_1
 62
7
 10
26.318038
 20
4.522765
 42
-0.081540
  0
VERTEX
  8
LAYER_1
 62
7
 10
26.345055
 20
5.345986
 42
-0.053771
  0
VERTEX
  8
LAYER_1
 62
7
 10
26.470130
 20
5.737637
 42
-0.064335
  0
VERTEX
  8
LAYER_1
 62
7
 10
26.683958
 20
6.089846
 42
-0.190933
  0
VERTEX
  8
LAYER_1
 62
7
 10
26.894155
 20
6.201348
 42
-0.239164
  0
VERTEX
  8
LAYER_1
 62
7
 10
27.112098
 20
6.115445
 42
-0.104559
  0
VERTEX
  8
LAYER_1
 62
7
 10
27.408391
 20
5.746230
 42
-0.089823
  0
VERTEX
  8
LAYER_1
 62
7
 10
27.545497
 20
5.289141
 42
-0.090301
  0
VERTEX
  8
LAYER_1
 62
7
 10
27.515470
 20
4.814291
 42
-0.106063
  0
VERTEX
  8
LAYER_1
 62
7
 10
27.310360
 20
4.391793
 42
-0.064213
  0
VERTEX
  8
LAYER_1
 62
7
 10
27.220549
 20
4.301306
 42
-0.036246
  0
VERTEX
  8
LAYER_1
 62
7
 10
27.108479
 20
4.226264
 42
-0.009190
  0
VERTEX
  8
LAYER_1
 62
7
 10
26.859890
 20
4.096297
  0
VERTEX
  8
LAYER_1
 62
7
 10
26.529058
 20
3.920291
  0
VERTEX
  8
LAYER_1
 62
7
 10
26.565688
 20
3.677579
  0
VERTEX
  8
LAYER_1
 62
7
 10
26.575861
 20
3.628276
  0
VERTEX
  8
LAYER_1
 62
7
 10
26.505973
 20
3.638223
  0
VERTEX
  8
LAYER_1
 62
7
 10
26.416250
 20
3.842947
 42
-0.040814
  0
VERTEX
  8
LAYER_1
 62
7
 10
24.365744
 20
3.043915
 42
-0.025540
  0
VERTEX
  8
LAYER_1
 62
7
 10
23.295845
 20
2.786893
 42
-0.029196
  0
VERTEX
  8
LAYER_1
 62
7
 10
22.203847
 20
2.648248
 42
-0.020155
  0
VERTEX
  8
LAYER_1
 62
7
 10
21.557635
 20
2.651979
 42
-0.032318
  0
VERTEX
  8
LAYER_1
 62
7
 10
20.911601
 20
2.723380
 42
-0.046466
  0
VERTEX
  8
LAYER_1
 62
7
 10
20.289993
 20
2.893461
 42
-0.060637
  0
VERTEX
  8
LAYER_1
 62
7
 10
19.717059
 20
3.193229
 42
-0.015622
  0
VERTEX
  8
LAYER_1
 62
7
 10
19.410112
 20
2.986312
 42
-0.049405
  0
VERTEX
  8
LAYER_1
 62
7
 10
19.073589
 20
2.817045
 42
-0.097050
  0
VERTEX
  8
LAYER_1
 62
7
 10
18.720303
 20
2.753468
 42
-0.133451
  0
VERTEX
  8
LAYER_1
 62
7
 10
18.363067
 20
2.863619
 42
-0.114159
  0
VERTEX
  8
LAYER_1
 62
7
 10
18.031368
 20
3.269164
 42
-0.090856
  0
VERTEX
  8
LAYER_1
 62
7
 10
17.891871
 20
3.769053
 42
-0.070555
  0
VERTEX
  8
LAYER_1
 62
7
 10
17.916658
 20
4.300520
 42
-0.064550
  0
VERTEX
  8
LAYER_1
 62
7
 10
18.077808
 20
4.800800
 42
-0.162157
  0
VERTEX
  8
LAYER_1
 62
7
 10
17.401904
 20
4.885000
 42
-0.178875
  0
VERTEX
  8
LAYER_1
 62
7
 10
16.925117
 20
5.365296
 42
-0.080501
  0
VERTEX
  8
LAYER_1
 62
7
 10
16.800859
 20
5.886218
 42
-0.061425
  0
VERTEX
  8
LAYER_1
 62
7
 10
16.828030
 20
6.419045
 42
-0.043573
  0
VERTEX
  8
LAYER_1
 62
7
 10
16.966283
 20
6.940039
 42
-0.030847
  0
VERTEX
  8
LAYER_1
 62
7
 10
17.175273
 20
7.425462
 42
-0.128177
  0
VERTEX
  8
LAYER_1
 62
7
 10
16.644449
 20
7.860767
 42
-0.092334
  0
VERTEX
  8
LAYER_1
 62
7
 10
16.355535
 20
8.481343
 42
-0.058584
  0
VERTEX
  8
LAYER_1
 62
7
 10
16.256400
 20
9.187281
 42
-0.041535
  0
VERTEX
  8
LAYER_1
 62
7
 10
16.294913
 20
9.878673
 42
-0.075110
  0
VERTEX
  8
LAYER_1
 62
7
 10
16.138969
 20
10.450049
 42
-0.053975
  0
VERTEX
  8
LAYER_1
 62
7
 10
16.143304
 20
10.975639
 42
-0.026906
  0
VERTEX
  8
LAYER_1
 62
7
 10
16.239526
 20
11.564937
 42
-0.014510
  0
VERTEX
  8
LAYER_1
 62
7
 10
16.383322
 20
12.147299
 42
-0.006410
  0
VERTEX
  8
LAYER_1
 62
7
 10
16.530381
 20
12.652078
 42
-0.006164
  0
VERTEX
  8
LAYER_1
 62
7
 10
16.678874
 20
13.120877
 42
-0.097181
  0
VERTEX
  8
LAYER_1
 62
7
 10
16.320631
 20
13.827218
 42
-0.076367
  0
VERTEX
  8
LAYER_1
 62
7
 10
16.227525
 20
14.604858
 42
-0.055502
  0
VERTEX
  8
LAYER_1
 62
7
 10
16.340963
 20
15.396468
 42
-0.042827
  0
VERTEX
  8
LAYER_1
 62
7
 10
16.602348
 20
16.144718
 42
-0.085651
  0
VERTEX
  8
LAYER_1
 62
7
 10
16.525709
 20
16.427951
 42
-0.065826
  0
VERTEX
  8
LAYER_1
 62
7
 10
16.537394
 20
16.721473
 42
-0.084728
  0
VERTEX
  8
LAYER_1
 62
7
 10
16.739085
 20
17.274470
 42
-0.045369
  0
VERTEX
  8
LAYER_1
 62
7
 10
16.696527
 20
17.074551
 42
0.015324
  0
VERTEX
  8
LAYER_1
 62
7
 10
16.640128
 20
16.866637
 42
0.082213
  0
VERTEX
  8
LAYER_1
 62
7
 10
16.624337
 20
16.664519
 42
0.154305
  0
VERTEX
  8
LAYER_1
 62
7
 10
16.703602
 20
16.481993
 42
0.092605
  0
VERTEX
  8
LAYER_1
 62
7
 10
16.754802
 20
16.456703
 42
0.142590
  0
VERTEX
  8
LAYER_1
 62
7
 10
16.795195
 20
16.457505
 42
0.111944
  0
VERTEX
  8
LAYER_1
 62
7
 10
16.827693
 20
16.477803
 42
0.051332
  0
VERTEX
  8
LAYER_1
 62
7
 10
16.855205
 20
16.510999
  0
VERTEX
  8
LAYER_1
 62
7
 10
16.906909
 20
16.589703
 42
-0.175748
  0
VERTEX
  8
LAYER_1
 62
7
 10
16.973589
 20
16.640844
 42
-0.108639
  0
VERTEX
  8
LAYER_1
 62
7
 10
16.892794
 20
16.329149
 42
-0.067770
  0
VERTEX
  8
LAYER_1
 62
7
 10
16.708544
 20
16.062978
 42
0.090562
  0
VERTEX
  8
LAYER_1
 62
7
 10
16.478665
 20
15.003002
 42
0.060373
  0
VERTEX
  8
LAYER_1
 62
7
 10
16.529322
 20
14.463926
 42
0.073602
  0
VERTEX
  8
LAYER_1
 62
7
 10
16.721154
 20
13.957378
 42
0.071247
  0
VERTEX
  8
LAYER_1
 62
7
 10
17.032469
 20
13.590297
 42
0.062707
  0
VERTEX
  8
LAYER_1
 62
7
 10
17.427616
 20
13.320324
 42
0.108203
  0
VERTEX
  8
LAYER_1
 62
7
 10
18.354779
 20
13.077978
  0
VERTEX
  8
LAYER_1
 62
7
 10
18.556104
 20
13.069429
  0
VERTEX
  8
LAYER_1
 62
7
 10
18.523844
 20
14.002060
 42
0.011340
  0
VERTEX
  8
LAYER_1
 62
7
 10
18.451450
 20
15.212699
 42
0.003994
  0
VERTEX
  8
LAYER_1
 62
7
 10
18.341997
 20
16.420537
  0
VERTEX
  8
LAYER_1
 62
7
 10
18.282537
 20
17.038518
  0
VERTEX
  8
LAYER_1
 62
7
 10
18.343284
 20
17.209755
  0
VERTEX
  8
LAYER_1
 62
7
 10
18.510303
 20
17.680559
  0
VERTEX
  8
LAYER_1
 62
7
 10
18.579451
 20
17.389670
 42
-0.018506
  0
VERTEX
  8
LAYER_1
 62
7
 10
18.733173
 20
16.609533
 42
-0.013412
  0
VERTEX
  8
LAYER_1
 62
7
 10
18.837837
 20
15.814053
 42
-0.012648
  0
VERTEX
  8
LAYER_1
 62
7
 10
18.957260
 20
14.207561
  0
VERTEX
  8
LAYER_1
 62
7
 10
19.015586
 20
13.147455
  0
VERTEX
  8
LAYER_1
 62
7
 10
19.129788
 20
13.169268
 42
0.036101
  0
VERTEX
  8
LAYER_1
 62
7
 10
19.835062
 20
13.358850
 42
0.030178
  0
VERTEX
  8
LAYER_1
 62
7
 10
20.507093
 20
13.639263
 42
0.024220
  0
VERTEX
  8
LAYER_1
 62
7
 10
21.146149
 20
13.991709
 42
0.018691
  0
VERTEX
  8
LAYER_1
 62
7
 10
21.752502
 20
14.397388
  0
VERTEX
  8
LAYER_1
 62
7
 10
21.831086
 20
14.454650
 42
-0.031555
  0
VERTEX
  8
LAYER_1
 62
7
 10
21.908749
 20
14.521125
  0
VERTEX
  8
LAYER_1
 62
7
 10
21.995543
 20
14.588464
  0
VERTEX
  8
LAYER_1
 62
7
 10
22.164420
 20
14.725604
  0
VERTEX
  8
LAYER_1
 62
7
 10
22.115579
 20
14.925404
 42
0.096358
  0
VERTEX
  8
LAYER_1
 62
7
 10
21.489625
 20
16.274985
 42
-0.006869
  0
VERTEX
  8
LAYER_1
 62
7
 10
21.549250
 20
16.655710
 42
-0.077317
  0
VERTEX
  8
LAYER_1
 62
7
 10
21.668752
 20
17.017850
 42
0.208541
  0
VERTEX
  8
LAYER_1
 62
7
 10
22.186019
 20
16.482414
 42
0.185772
  0
VERTEX
  8
LAYER_1
 62
7
 10
22.939042
 20
16.470906
 42
0.109275
  0
VERTEX
  8
LAYER_1
 62
7
 10
23.200024
 20
16.584079
 42
0.066759
  0
VERTEX
  8
LAYER_1
 62
7
 10
23.399974
 20
16.778047
 42
0.019007
  0
VERTEX
  8
LAYER_1
 62
7
 10
23.569415
 20
17.009689
 42
-0.025139
  0
VERTEX
  8
LAYER_1
 62
7
 10
23.738869
 20
17.235882
 42
0.124394
  0
VERTEX
  8
LAYER_1
 62
7
 10
24.204060
 20
16.998051
 42
0.097918
  0
VERTEX
  8
LAYER_1
 62
7
 10
24.730887
 20
16.982907
 42
0.085425
  0
VERTEX
  8
LAYER_1
 62
7
 10
25.237304
 20
17.156901
 42
0.095082
  0
VERTEX
  8
LAYER_1
 62
7
 10
25.641265
 20
17.486481
 42
0.136599
  0
VERTEX
  8
LAYER_1
 62
7
 10
25.423891
 20
17.696666
 42
0.094022
  0
VERTEX
  8
LAYER_1
 62
7
 10
25.142649
 20
17.780991
 42
0.043049
  0
VERTEX
  8
LAYER_1
 62
7
 10
24.833915
 20
17.788044
  0
VERTEX
  8
LAYER_1
 62
7
 10
24.534068
 20
17.766418
  0
VERTEX
  8
LAYER_1
 62
7
 10
24.534068
 20
17.766418
  0
SEQEND
  0
POLYLINE
  8
LAYER_1
 62
7
 70
1
 66
1
  0
VERTEX
  8
LAYER_1
 62
7
 10
24.255209
 20
18.621937
  0
VERTEX
  8
LAYER_1
 62
7
 10
24.255209
 20
18.621937
 42
0.095696
  0
VERTEX
  8
LAYER_1
 62
7
 10
24.432406
 20
18.535240
 42
0.066138
  0
VERTEX
  8
LAYER_1
 62
7
 10
24.633720
 20
18.508455
 42
0.077577
  0
VERTEX
  8
LAYER_1
 62
7
 10
25.031718
 20
18.573466
 42
0.062922
  0
VERTEX
  8
LAYER_1
 62
7
 10
24.850011
 20
18.708645
 42
0.081397
  0
VERTEX
  8
LAYER_1
 62
7
 10
24.634291
 20
18.790759
 42
0.141351
  0
VERTEX
  8
LAYER_1
 62
7
 10
24.423157
 20
18.776344
 42
0.177638
  0
VERTEX
  8
LAYER_1
 62
7
 10
24.255209
 20
18.621937
  0
VERTEX
  8
LAYER_1
 62
7
 10
24.255209
 20
18.621937
  0
SEQEND
  0
POLYLINE
  8
LAYER_1
 62
7
 70
1
 66
1
  0
VERTEX
  8
LAYER_1
 62
7
 10
16.762022
 20
12.982670
  0
VERTEX
  8
LAYER_1
 62
7
 10
16.762022
 20
12.982670
 42
-0.008804
  0
VERTEX
  8
LAYER_1
 62
7
 10
16.725484
 20
12.817656
 42
-0.009754
  0
VERTEX
  8
LAYER_1
 62
7
 10
16.605879
 20
12.370025
 42
0.010678
  0
VERTEX
  8
LAYER_1
 62
7
 10
16.486441
 20
11.919477
 42
0.031489
  0
VERTEX
  8
LAYER_1
 62
7
 10
16.405727
 20
11.463162
 42
0.051959
  0
VERTEX
  8
LAYER_1
 62
7
 10
16.402294
 20
10.998230
  0
VERTEX
  8
LAYER_1
 62
7
 10
16.412134
 20
10.918318
 42
0.018860
  0
VERTEX
  8
LAYER_1
 62
7
 10
16.443443
 20
10.722637
 42
0.048529
  0
VERTEX
  8
LAYER_1
 62
7
 10
16.502878
 20
10.523414
 42
0.096933
  0
VERTEX
  8
LAYER_1
 62
7
 10
16.609277
 20
10.358360
 42
0.147725
  0
VERTEX
  8
LAYER_1
 62
7
 10
16.781475
 20
10.265184
 42
0.183494
  0
VERTEX
  8
LAYER_1
 62
7
 10
16.924846
 20
10.336476
 42
0.107207
  0
VERTEX
  8
LAYER_1
 62
7
 10
16.998491
 20
10.474752
 42
0.021489
  0
VERTEX
  8
LAYER_1
 62
7
 10
17.040106
 20
10.640592
 42
-0.050818
  0
VERTEX
  8
LAYER_1
 62
7
 10
17.087388
 20
10.794577
 42
-0.058997
  0
VERTEX
  8
LAYER_1
 62
7
 10
17.120073
 20
10.619065
 42
-0.039516
  0
VERTEX
  8
LAYER_1
 62
7
 10
17.119143
 20
10.406264
 42
-0.078722
  0
VERTEX
  8
LAYER_1
 62
7
 10
17.015614
 20
9.965421
 42
-0.064366
  0
VERTEX
  8
LAYER_1
 62
7
 10
16.912603
 20
9.785694
 42
-0.104730
  0
VERTEX
  8
LAYER_1
 62
7
 10
16.775151
 20
9.665304
 42
-0.143136
  0
VERTEX
  8
LAYER_1
 62
7
 10
16.603053
 20
9.628408
 42
-0.117351
  0
VERTEX
  8
LAYER_1
 62
7
 10
16.396103
 20
9.699163
 42
0.018588
  0
VERTEX
  8
LAYER_1
 62
7
 10
16.409083
 20
9.279034
 42
0.037777
  0
VERTEX
  8
LAYER_1
 62
7
 10
16.469580
 20
8.856973
 42
0.061764
  0
VERTEX
  8
LAYER_1
 62
7
 10
16.609070
 20
8.462416
 42
0.085749
  0
VERTEX
  8
LAYER_1
 62
7
 10
16.859031
 20
8.124794
 42
0.281637
  0
VERTEX
  8
LAYER_1
 62
7
 10
17.228411
 20
8.047922
 42
0.218262
  0
VERTEX
  8
LAYER_1
 62
7
 10
17.508686
 20
8.315011
 42
0.018049
  0
VERTEX
  8
LAYER_1
 62
7
 10
17.727195
 20
8.840301
  0
VERTEX
  8
LAYER_1
 62
7
 10
17.831984
 20
9.107574
 42
-0.011812
  0
VERTEX
  8
LAYER_1
 62
7
 10
17.944398
 20
9.370431
 42
-0.049991
  0
VERTEX
  8
LAYER_1
 62
7
 10
18.223902
 20
9.860395
 42
-0.081899
  0
VERTEX
  8
LAYER_1
 62
7
 10
18.629314
 20
10.265184
  0
VERTEX
  8
LAYER_1
 62
7
 10
18.593919
 20
11.318409
 42
-0.005331
  0
VERTEX
  8
LAYER_1
 62
7
 10
18.568550
 20
12.371922
 42
-0.066320
  0
VERTEX
  8
LAYER_1
 62
7
 10
18.077412
 20
12.376795
 42
-0.054593
  0
VERTEX
  8
LAYER_1
 62
7
 10
17.607285
 20
12.498258
 42
-0.042324
  0
VERTEX
  8
LAYER_1
 62
7
 10
17.166158
 20
12.709239
 42
-0.032524
  0
VERTEX
  8
LAYER_1
 62
7
 10
16.762022
 20
12.982670
  0
VERTEX
  8
LAYER_1
 62
7
 10
16.762022
 20
12.982670
  0
SEQEND
  0
POLYLINE
  8
LAYER_1
 62
7
 70
1
 66
1
  0
VERTEX
  8
LAYER_1
 62
7
 10
23.880546
 20
11.826563
  0
VERTEX
  8
LAYER_1
 62
7
 10
23.880546
 20
11.826563
 42
-0.026222
  0
VERTEX
  8
LAYER_1
 62
7
 10
23.717070
 20
11.162329
 42
0.009164
  0
VERTEX
  8
LAYER_1
 62
7
 10
23.204001
 20
10.901951
 42
0.034099
  0
VERTEX
  8
LAYER_1
 62
7
 10
22.724434
 20
10.605500
 42
0.140868
  0
VERTEX
  8
LAYER_1
 62
7
 10
23.213339
 20
10.347378
 42
0.105135
  0
VERTEX
  8
LAYER_1
 62
7
 10
23.755374
 20
10.356994
 42
0.068264
  0
VERTEX
  8
LAYER_1
 62
7
 10
24.286953
 20
10.555604
 42
0.053446
  0
VERTEX
  8
LAYER_1
 62
7
 10
24.744494
 20
10.864465
 42
0.035102
  0
VERTEX
  8
LAYER_1
 62
7
 10
24.546729
 20
11.120530
 42
0.015587
  0
VERTEX
  8
LAYER_1
 62
7
 10
24.324139
 20
11.355088
  0
VERTEX
  8
LAYER_1
 62
7
 10
24.095740
 20
11.584858
 42
-0.023529
  0
VERTEX
  8
LAYER_1
 62
7
 10
23.880546
 20
11.826563
  0
VERTEX
  8
LAYER_1
 62
7
 10
23.880546
 20
11.826563
  0
SEQEND
  0
POLYLINE
  8
LAYER_1
 62
7
 70
1
 66
1
  0
VERTEX
  8
LAYER_1
 62
7
 10
22.351924
 20
11.007656
  0
VERTEX
  8
LAYER_1
 62
7
 10
22.471156
 20
11.084833
 42
-0.048896
  0
VERTEX
  8
LAYER_1
 62
7
 10
22.883069
 20
11.300785
  0
VERTEX
  8
LAYER_1
 62
7
 10
22.883069
 20
11.300785
 42
0.034972
  0
VERTEX
  8
LAYER_1
 62
7
 10
22.743937
 20
11.365182
 42
0.176417
  0
VERTEX
  8
LAYER_1
 62
7
 10
21.914106
 20
11.391864
 42
0.050706
  0
VERTEX
  8
LAYER_1
 62
7
 10
22.203560
 20
11.120887
  0
VERTEX
  8
LAYER_1
 62
7
 10
22.351924
 20
11.007656
  0
SEQEND
  0
POLYLINE
  8
LAYER_1
 62
7
 70
1
 66
1
  0
VERTEX
  8
LAYER_1
 62
7
 10
19.066264
 20
9.758344
  0
VERTEX
  8
LAYER_1
 62
7
 10
19.066264
 20
9.758344
 42
0.004813
  0
VERTEX
  8
LAYER_1
 62
7
 10
19.090840
 20
7.801781
  0
VERTEX
  8
LAYER_1
 62
7
 10
19.132288
 20
5.845836
 42
0.033660
  0
VERTEX
  8
LAYER_1
 62
7
 10
20.082632
 20
6.316830
 42
0.016547
  0
VERTEX
  8
LAYER_1
 62
7
 10
20.984991
 20
6.883263
 42
-0.000265
  0
VERTEX
  8
LAYER_1
 62
7
 10
21.871740
 20
7.480859
 42
-0.017084
  0
VERTEX
  8
LAYER_1
 62
7
 10
22.775251
 20
8.045339
 42
0.021394
  0
VERTEX
  8
LAYER_1
 62
7
 10
21.854712
 20
8.891759
 42
0.002522
  0
VERTEX
  8
LAYER_1
 62
7
 10
21.134680
 20
9.494995
  0
VERTEX
  8
LAYER_1
 62
7
 10
20.894969
 20
9.695742
 42
0.064731
  0
VERTEX
  8
LAYER_1
 62
7
 10
20.727691
 20
9.653775
 42
0.040338
  0
VERTEX
  8
LAYER_1
 62
7
 10
20.568296
 20
9.575751
 42
0.021148
  0
VERTEX
  8
LAYER_1
 62
7
 10
20.271988
 20
9.375255
 42
0.061685
  0
VERTEX
  8
LAYER_1
 62
7
 10
20.557257
 20
9.117068
 42
0.043762
  0
VERTEX
  8
LAYER_1
 62
7
 10
20.888077
 20
8.926166
 42
0.024975
  0
VERTEX
  8
LAYER_1
 62
7
 10
21.245248
 20
8.780873
  0
VERTEX
  8
LAYER_1
 62
7
 10
21.427715
 20
8.718557
  0
VERTEX
  8
LAYER_1
 62
7
 10
21.609571
 20
8.659515
  0
VERTEX
  8
LAYER_1
 62
7
 10
21.614568
 20
8.334565
 42
-0.041698
  0
VERTEX
  8
LAYER_1
 62
7
 10
21.590055
 20
8.010998
 42
-0.017046
  0
VERTEX
  8
LAYER_1
 62
7
 10
21.046056
 20
8.107215
 42
-0.037501
  0
VERTEX
  8
LAYER_1
 62
7
 10
20.508093
 20
8.263614
 42
-0.062876
  0
VERTEX
  8
LAYER_1
 62
7
 10
20.021477
 20
8.518182
 42
-0.087893
  0
VERTEX
  8
LAYER_1
 62
7
 10
19.631520
 20
8.908906
 42
-0.061217
  0
VERTEX
  8
LAYER_1
 62
7
 10
19.487330
 20
9.122207
 42
-0.009646
  0
VERTEX
  8
LAYER_1
 62
7
 10
19.372652
 20
9.357124
 42
0.041283
  0
VERTEX
  8
LAYER_1
 62
7
 10
19.246094
 20
9.580292
 42
0.094803
  0
VERTEX
  8
LAYER_1
 62
7
 10
19.066264
 20
9.758344
  0
VERTEX
  8
LAYER_1
 62
7
 10
19.066264
 20
9.758344
  0
SEQEND
  0
POLYLINE
  8
LAYER_1
 62
7
 70
1
 66
1
  0
VERTEX
  8
LAYER_1
 62
7
 10
25.333450
 20
9.606719
  0
VERTEX
  8
LAYER_1
 62
7
 10
25.333450
 20
9.606719
 42
0.082884
  0
VERTEX
  8
LAYER_1
 62
7
 10
25.450931
 20
9.362710
 42
-0.010843
  0
VERTEX
  8
LAYER_1
 62
7
 10
25.603057
 20
9.136188
 42
0.006524
  0
VERTEX
  8
LAYER_1
 62
7
 10
26.063015
 20
9.214049
  0
VERTEX
  8
LAYER_1
 62
7
 10
26.194519
 20
9.239603
  0
VERTEX
  8
LAYER_1
 62
7
 10
26.109466
 20
9.305764
  0
VERTEX
  8
LAYER_1
 62
7
 10
25.937024
 20
9.438541
 42
0.039953
  0
VERTEX
  8
LAYER_1
 62
7
 10
25.750770
 20
9.555927
 42
0.080655
  0
VERTEX
  8
LAYER_1
 62
7
 10
25.549860
 20
9.623471
 42
0.115250
  0
VERTEX
  8
LAYER_1
 62
7
 10
25.333450
 20
9.606719
  0
VERTEX
  8
LAYER_1
 62
7
 10
25.333450
 20
9.606719
  0
SEQEND
  0
POLYLINE
  8
LAYER_1
 62
7
 70
1
 66
1
  0
VERTEX
  8
LAYER_1
 62
7
 10
17.367767
 20
7.460632
  0
VERTEX
  8
LAYER_1
 62
7
 10
17.367767
 20
7.460632
 42
0.028428
  0
VERTEX
  8
LAYER_1
 62
7
 10
17.196817
 20
7.107430
 42
0.045187
  0
VERTEX
  8
LAYER_1
 62
7
 10
17.077535
 20
6.729071
 42
0.067790
  0
VERTEX
  8
LAYER_1
 62
7
 10
17.045979
 20
6.341053
 42
0.089702
  0
VERTEX
  8
LAYER_1
 62
7
 10
17.138205
 20
5.958877
 42
0.150588
  0
VERTEX
  8
LAYER_1
 62
7
 10
17.413133
 20
5.611496
 42
0.117967
  0
VERTEX
  8
LAYER_1
 62
7
 10
17.812319
 20
5.467207
 42
0.077204
  0
VERTEX
  8
LAYER_1
 62
7
 10
18.260214
 20
5.483197
 42
0.062900
  0
VERTEX
  8
LAYER_1
 62
7
 10
18.681271
 20
5.616655
 42
0.005018
  0
VERTEX
  8
LAYER_1
 62
7
 10
18.671884
 20
6.621912
  0
VERTEX
  8
LAYER_1
 62
7
 10
18.651793
 20
7.627288
 42
-0.004405
  0
VERTEX
  8
LAYER_1
 62
7
 10
18.639946
 20
8.632594
 42
-0.009120
  0
VERTEX
  8
LAYER_1
 62
7
 10
18.655293
 20
9.637638
 42
0.121723
  0
VERTEX
  8
LAYER_1
 62
7
 10
18.202748
 20
9.187224
 42
0.035700
  0
VERTEX
  8
LAYER_1
 62
7
 10
18.055755
 20
8.907509
 42
0.017347
  0
VERTEX
  8
LAYER_1
 62
7
 10
17.936755
 20
8.608014
  0
VERTEX
  8
LAYER_1
 62
7
 10
17.827102
 20
8.301160
 42
-0.016536
  0
VERTEX
  8
LAYER_1
 62
7
 10
17.708150
 20
7.999365
 42
-0.034360
  0
VERTEX
  8
LAYER_1
 62
7
 10
17.561253
 20
7.715049
 42
-0.051906
  0
VERTEX
  8
LAYER_1
 62
7
 10
17.367767
 20
7.460632
  0
VERTEX
  8
LAYER_1
 62
7
 10
17.367767
 20
7.460632
  0
SEQEND
  0
POLYLINE
  8
LAYER_1
 62
7
 70
1
 66
1
  0
VERTEX
  8
LAYER_1
 62
7
 10
23.169262
 20
7.674520
  0
VERTEX
  8
LAYER_1
 62
7
 10
22.724387
 20
7.407320
 42
0.011329
  0
VERTEX
  8
LAYER_1
 62
7
 10
21.847238
 20
6.848692
  0
VERTEX
  8
LAYER_1
 62
7
 10
20.983299
 20
6.268897
 42
-0.009994
  0
VERTEX
  8
LAYER_1
 62
7
 10
20.109161
 20
5.705609
 42
-0.020621
  0
VERTEX
  8
LAYER_1
 62
7
 10
19.201414
 20
5.196499
 42
0.088794
  0
VERTEX
  8
LAYER_1
 62
7
 10
19.379282
 20
4.504682
 42
0.106307
  0
VERTEX
  8
LAYER_1
 62
7
 10
19.802600
 20
3.932289
  0
VERTEX
  8
LAYER_1
 62
7
 10
20.115614
 20
4.165873
  0
VERTEX
  8
LAYER_1
 62
7
 10
20.427940
 20
4.402399
 42
-0.008233
  0
VERTEX
  8
LAYER_1
 62
7
 10
21.059370
 20
4.867852
 42
-0.020127
  0
VERTEX
  8
LAYER_1
 62
7
 10
21.714573
 20
5.295787
 42
-0.031990
  0
VERTEX
  8
LAYER_1
 62
7
 10
22.411232
 20
5.653341
  0
VERTEX
  8
LAYER_1
 62
7
 10
22.192760
 20
5.689586
 42
-0.035968
  0
VERTEX
  8
LAYER_1
 62
7
 10
22.218560
 20
5.814160
  0
VERTEX
  8
LAYER_1
 62
7
 10
22.361170
 20
6.325899
  0
VERTEX
  8
LAYER_1
 62
7
 10
22.512406
 20
6.336662
  0
VERTEX
  8
LAYER_1
 62
7
 10
22.880948
 20
6.362705
 42
0.022088
  0
VERTEX
  8
LAYER_1
 62
7
 10
23.249813
 20
6.407314
 42
0.042976
  0
VERTEX
  8
LAYER_1
 62
7
 10
23.604715
 20
6.497839
 42
0.064029
  0
VERTEX
  8
LAYER_1
 62
7
 10
23.931363
 20
6.661632
 42
0.043857
  0
VERTEX
  8
LAYER_1
 62
7
 10
23.624551
 20
7.138667
 42
0.019567
  0
VERTEX
  8
LAYER_1
 62
7
 10
23.259349
 20
7.573751
  0
VERTEX
  8
LAYER_1
 62
7
 10
23.169262
 20
7.674520
  0
SEQEND
  0
POLYLINE
  8
LAYER_1
 62
7
 70
1
 66
1
  0
VERTEX
  8
LAYER_1
 62
7
 10
26.473529
 20
4.446794
  0
VERTEX
  8
LAYER_1
 62
7
 10
26.473529
 20
4.446794
 42
0.004969
  0
VERTEX
  8
LAYER_1
 62
7
 10
26.926398
 20
4.683293
 42
0.040817
  0
VERTEX
  8
LAYER_1
 62
7
 10
27.354649
 20
4.959333
 42
0.075521
  0
VERTEX
  8
LAYER_1
 62
7
 10
27.171334
 20
5.305134
 42
0.134480
  0
VERTEX
  8
LAYER_1
 62
7
 10
26.868025
 20
5.545243
 42
0.116804
  0
VERTEX
  8
LAYER_1
 62
7
 10
26.645580
 20
5.340179
 42
0.082373
  0
VERTEX
  8
LAYER_1
 62
7
 10
26.520394
 20
5.062454
 42
0.051984
  0
VERTEX
  8
LAYER_1
 62
7
 10
26.470400
 20
4.751511
 42
0.034762
  0
VERTEX
  8
LAYER_1
 62
7
 10
26.473529
 20
4.446794
  0
VERTEX
  8
LAYER_1
 62
7
 10
26.473529
 20
4.446794
  0
SEQEND
  0
POLYLINE
  8
LAYER_1
 62
7
 70
1
 66
1
  0
VERTEX
  8
LAYER_1
 62
7
 10
18.057912
 20
3.629796
  0
VERTEX
  8
LAYER_1
 62
7
 10
18.057912
 20
3.629796
 42
0.178963
  0
VERTEX
  8
LAYER_1
 62
7
 10
18.294466
 20
3.375628
 42
0.131149
  0
VERTEX
  8
LAYER_1
 62
7
 10
18.626908
 20
3.316643
 42
0.081159
  0
VERTEX
  8
LAYER_1
 62
7
 10
18.980971
 20
3.401246
 42
0.073420
  0
VERTEX
  8
LAYER_1
 62
7
 10
19.282392
 20
3.577839
 42
-0.091581
  0
VERTEX
  8
LAYER_1
 62
7
 10
18.911033
 20
4.240944
 42
-0.056070
  0
VERTEX
  8
LAYER_1
 62
7
 10
18.746155
 20
4.986832
 42
0.167075
  0
VERTEX
  8
LAYER_1
 62
7
 10
18.328733
 20
4.844082
 42
0.133059
  0
VERTEX
  8
LAYER_1
 62
7
 10
18.088389
 20
4.504247
 42
0.085925
  0
VERTEX
  8
LAYER_1
 62
7
 10
18.004868
 20
4.066446
 42
0.074843
  0
VERTEX
  8
LAYER_1
 62
7
 10
18.057912
 20
3.629796
  0
VERTEX
  8
LAYER_1
 62
7
 10
18.057912
 20
3.629796
  0
SEQEND
  0
POLYLINE
  8
LAYER_1
 62
7
 70
1
 66
1
  0
VERTEX
  8
LAYER_1
 62
7
 10
19.337610
 20
16.136959
  0
VERTEX
  8
LAYER_1
 62
7
 10
19.290990
 20
16.101799
  0
VERTEX
  8
LAYER_1
 62
7
 10
19.217563
 20
16.046421
  0
VERTEX
  8
LAYER_1
 62
7
 10
19.217990
 20
16.045635
 42
-0.165050
  0
VERTEX
  8
LAYER_1
 62
7
 10
19.541685
 20
15.200204
 42
-0.054200
  0
VERTEX
  8
LAYER_1
 62
7
 10
19.508930
 20
14.892631
 42
-0.012994
  0
VERTEX
  8
LAYER_1
 62
7
 10
19.399217
 20
14.464088
 42
0.018754
  0
VERTEX
  8
LAYER_1
 62
7
 10
19.350705
 20
14.249950
 42
0.037102
  0
VERTEX
  8
LAYER_1
 62
7
 10
19.326747
 20
14.036074
 42
0.092058
  0
VERTEX
  8
LAYER_1
 62
7
 10
19.345138
 20
13.940376
 42
0.111808
  0
VERTEX
  8
LAYER_1
 62
7
 10
19.390321
 20
13.874844
 42
0.186356
  0
VERTEX
  8
LAYER_1
 62
7
 10
19.532496
 20
13.824677
 42
0.186302
  0
VERTEX
  8
LAYER_1
 62
7
 10
19.776803
 20
13.923582
 42
0.085547
  0
VERTEX
  8
LAYER_1
 62
7
 10
19.836245
 20
14.002050
 42
0.292547
  0
VERTEX
  8
LAYER_1
 62
7
 10
19.844688
 20
14.386430
 42
0.190363
  0
VERTEX
  8
LAYER_1
 62
7
 10
19.523423
 20
14.622687
 42
0.112345
  0
VERTEX
  8
LAYER_1
 62
7
 10
19.619321
 20
15.405743
 42
0.136364
  0
VERTEX
  8
LAYER_1
 62
7
 10
19.337610
 20
16.136959
  0
SEQEND
  0
POLYLINE
  8
LAYER_1
 62
7
 70
1
 66
1
  0
VERTEX
  8
LAYER_1
 62
7
 10
19.600648
 20
14.074575
 42
-0.083882
  0
VERTEX
  8
LAYER_1
 62
7
 10
19.533561
 20
14.065386
 42
-0.265014
  0
VERTEX
  8
LAYER_1
 62
7
 10
19.439947
 20
14.128151
 42
-0.139354
  0
VERTEX
  8
LAYER_1
 62
7
 10
19.407084
 20
14.264092
 42
-0.111152
  0
VERTEX
  8
LAYER_1
 62
7
 10
19.444728
 20
14.404972
 42
-0.078757
  0
VERTEX
  8
LAYER_1
 62
7
 10
19.609418
 20
14.333624
 42
-0.112433
  0
VERTEX
  8
LAYER_1
 62
7
 10
19.711594
 20
14.235420
 42
-0.110249
  0
VERTEX
  8
LAYER_1
 62
7
 10
19.729258
 20
14.185320
 42
-0.160662
  0
VERTEX
  8
LAYER_1
 62
7
 10
19.719316
 20
14.139393
 42
-0.132991
  0
VERTEX
  8
LAYER_1
 62
7
 10
19.677777
 20
14.101268
 42
-0.076691
  0
VERTEX
  8
LAYER_1
 62
7
 10
19.600648
 20
14.074575
  0
SEQEND
  0
POLYLINE
  8
LAYER_1
 62
7
 70
1
 66
1
  0
VERTEX
  8
LAYER_1
 62
7
 10
17.334832
 20
12.100132
  0
VERTEX
  8
LAYER_1
 62
7
 10
17.395971
 20
12.056818
  0
VERTEX
  8
LAYER_1
 62
7
 10
18.029905
 20
11.607708
  0
VERTEX
  8
LAYER_1
 62
7
 10
17.780791
 20
11.138892
 42
0.036202
  0
VERTEX
  8
LAYER_1
 62
7
 10
17.709989
 20
10.983962
  0
VERTEX
  8
LAYER_1
 62
7
 10
17.780148
 20
10.932596
  0
VERTEX
  8
LAYER_1
 62
7
 10
18.313668
 20
10.549640
  0
VERTEX
  8
LAYER_1
 62
7
 10
18.215861
 20
10.379590
  0
VERTEX
  8
LAYER_1
 62
7
 10
17.987366
 20
9.982325
  0
VERTEX
  8
LAYER_1
 62
7
 10
17.951961
 20
10.007330
  0
VERTEX
  8
LAYER_1
 62
7
 10
17.443471
 20
10.366464
  0
VERTEX
  8
LAYER_1
 62
7
 10
17.324531
 20
10.450469
  0
VERTEX
  8
LAYER_1
 62
7
 10
17.600762
 20
10.912333
  0
VERTEX
  8
LAYER_1
 62
7
 10
17.670852
 20
11.029525
  0
VERTEX
  8
LAYER_1
 62
7
 10
17.629777
 20
11.059977
 42
0.016391
  0
VERTEX
  8
LAYER_1
 62
7
 10
17.457557
 20
11.176708
  0
VERTEX
  8
LAYER_1
 62
7
 10
16.993112
 20
11.475823
  0
VERTEX
  8
LAYER_1
 62
7
 10
17.067031
 20
11.610871
  0
VERTEX
  8
LAYER_1
 62
7
 10
17.334832
 20
12.100132
  0
SEQEND
  0
POLYLINE
  8
LAYER_1
 62
7
 70
1
 66
1
  0
VERTEX
  8
LAYER_1
 62
7
 10
25.434067
 20
7.472690
  0
VERTEX
  8
LAYER_1
 62
7
 10
25.486327
 20
7.660683
  0
VERTEX
  8
LAYER_1
 62
7
 10
25.503493
 20
7.722434
 42
-0.037429
  0
VERTEX
  8
LAYER_1
 62
7
 10
27.413750
 20
8.531386
  0
VERTEX
  8
LAYER_1
 62
7
 10
27.429100
 20
8.535768
 42
0.011481
  0
VERTEX
  8
LAYER_1
 62
7
 10
27.400517
 20
8.416224
  0
VERTEX
  8
LAYER_1
 62
7
 10
27.377379
 20
8.331722
 42
0.029053
  0
VERTEX
  8
LAYER_1
 62
7
 10
25.520150
 20
7.513191
  0
VERTEX
  8
LAYER_1
 62
7
 10
25.434067
 20
7.472690
  0
SEQEND
  0
POLYLINE
  8
LAYER_1
 62
7
 70
1
 66
1
  0
VERTEX
  8
LAYER_1
 62
7
 10
27.940118
 20
5.522688
 42
-0.134907
  0
VERTEX
  8
LAYER_1
 62
7
 10
27.704316
 20
5.698131
 42
-0.116664
  0
VERTEX
  8
LAYER_1
 62
7
 10
27.592062
 20
5.953771
 42
-0.084064
  0
VERTEX
  8
LAYER_1
 62
7
 10
27.587375
 20
6.250962
 42
-0.067908
  0
VERTEX
  8
LAYER_1
 62
7
 10
27.674274
 20
6.551062
 42
-0.069640
  0
VERTEX
  8
LAYER_1
 62
7
 10
27.836778
 20
6.815424
 42
-0.089641
  0
VERTEX
  8
LAYER_1
 62
7
 10
28.058904
 20
7.005406
 42
-0.123824
  0
VERTEX
  8
LAYER_1
 62
7
 10
28.324671
 20
7.082364
 42
-0.133142
  0
VERTEX
  8
LAYER_1
 62
7
 10
28.618099
 20
7.007652
 42
-0.112546
  0
VERTEX
  8
LAYER_1
 62
7
 10
29.093972
 20
6.538738
 42
-0.095557
  0
VERTEX
  8
LAYER_1
 62
7
 10
29.341111
 20
5.917794
 42
-0.091575
  0
VERTEX
  8
LAYER_1
 62
7
 10
29.347910
 20
5.245871
 42
-0.103483
  0
VERTEX
  8
LAYER_1
 62
7
 10
29.102759
 20
4.624018
 42
-0.038513
  0
VERTEX
  8
LAYER_1
 62
7
 10
28.896583
 20
4.397952
 42
-0.024265
  0
VERTEX
  8
LAYER_1
 62
7
 10
28.663545
 20
4.199426
 42
-0.008142
  0
VERTEX
  8
LAYER_1
 62
7
 10
28.291664
 20
3.927334
  0
VERTEX
  8
LAYER_1
 62
7
 10
28.168160
 20
3.837562
 42
-0.007900
  0
VERTEX
  8
LAYER_1
 62
7
 10
27.297643
 20
3.303506
 42
-0.025137
  0
VERTEX
  8
LAYER_1
 62
7
 10
26.387421
 20
2.824348
 42
-0.044061
  0
VERTEX
  8
LAYER_1
 62
7
 10
25.430295
 20
2.478466
 42
-0.062803
  0
VERTEX
  8
LAYER_1
 62
7
 10
24.419065
 20
2.344235
 42
0.019617
  0
VERTEX
  8
LAYER_1
 62
7
 10
24.005000
 20
2.304919
  0
VERTEX
  8
LAYER_1
 62
7
 10
23.591186
 20
2.246553
 42
-0.013144
  0
VERTEX
  8
LAYER_1
 62
7
 10
23.178440
 20
2.196634
 42
-0.030155
  0
VERTEX
  8
LAYER_1
 62
7
 10
22.767585
 20
2.182660
 42
-0.063916
  0
VERTEX
  8
LAYER_1
 62
7
 10
23.097196
 20
2.308307
 42
0.013754
  0
VERTEX
  8
LAYER_1
 62
7
 10
24.521972
 20
2.721564
 42
0.019292
  0
VERTEX
  8
LAYER_1
 62
7
 10
25.917564
 20
3.228291
 42
0.025117
  0
VERTEX
  8
LAYER_1
 62
7
 10
27.260086
 20
3.855474
 42
0.030946
  0
VERTEX
  8
LAYER_1
 62
7
 10
28.525652
 20
4.630099
 42
-0.006561
  0
VERTEX
  8
LAYER_1
 62
7
 10
28.794943
 20
4.827934
 42
0.041779
  0
VERTEX
  8
LAYER_1
 62
7
 10
29.049278
 20
5.043665
 42
0.061407
  0
VERTEX
  8
LAYER_1
 62
7
 10
29.181835
 20
5.220575
 42
0.152017
  0
VERTEX
  8
LAYER_1
 62
7
 10
28.929285
 20
5.441114
 42
0.091228
  0
VERTEX
  8
LAYER_1
 62
7
 10
28.612847
 20
5.507283
 42
0.017905
  0
VERTEX
  8
LAYER_1
 62
7
 10
28.270474
 20
5.505627
 42
-0.048015
  0
VERTEX
  8
LAYER_1
 62
7
 10
27.940118
 20
5.522688
  0
VERTEX
  8
LAYER_1
 62
7
 10
27.940118
 20
5.522688
  0
SEQEND
  0
POLYLINE
  8
LAYER_1
 62
7
 70
1
 66
1
  0
VERTEX
  8
LAYER_1
 62
7
 10
27.908817
 20
6.210551
  0
VERTEX
  8
LAYER_1
 62
7
 10
27.908817
 20
6.210551
 42
0.076798
  0
VERTEX
  8
LAYER_1
 62
7
 10
28.095634
 20
6.156643
 42
0.043863
  0
VERTEX
  8
LAYER_1
 62
7
 10
28.290101
 20
6.149342
  0
VERTEX
  8
LAYER_1
 62
7
 10
28.388660
 20
6.155272
  0
VERTEX
  8
LAYER_1
 62
7
 10
28.487277
 20
6.163378
 42
-0.020878
  0
VERTEX
  8
LAYER_1
 62
7
 10
28.682220
 20
6.173482
 42
0.105031
  0
VERTEX
  8
LAYER_1
 62
7
 10
28.508965
 20
6.331393
 42
0.098203
  0
VERTEX
  8
LAYER_1
 62
7
 10
28.281214
 20
6.415180
 42
0.150795
  0
VERTEX
  8
LAYER_1
 62
7
 10
28.060616
 20
6.387386
 42
0.199172
  0
VERTEX
  8
LAYER_1
 62
7
 10
27.908817
 20
6.210551
  0
VERTEX
  8
LAYER_1
 62
7
 10
27.908817
 20
6.210551
  0
SEQEND
  0
POLYLINE
  8
LAYER_1
 62
7
 70
1
 66
1
  0
VERTEX
  8
LAYER_1
 62
7
 10
23.239054
 20
3.732109
  0
VERTEX
  8
LAYER_1
 62
7
 10
23.265467
 20
3.898936
  0
VERTEX
  8
LAYER_1
 62
7
 10
23.277643
 20
3.975843
 42
-0.004699
  0
VERTEX
  8
LAYER_1
 62
7
 10
26.024733
 20
5.201503
  0
VERTEX
  8
LAYER_1
 62
7
 10
26.024733
 20
5.201503
  0
VERTEX
  8
LAYER_1
 62
7
 10
25.981965
 20
5.001721
  0
VERTEX
  8
LAYER_1
 62
7
 10
23.239054
 20
3.732109
  0
SEQEND
  0
POLYLINE
  8
LAYER_1
 62
7
 70
1
 66
1
  0
VERTEX
  8
LAYER_1
 62
7
 10
20.605488
 20
23.759250
  0
VERTEX
  8
LAYER_1
 62
7
 10
20.611320
 20
23.754381
 42
-0.303494
  0
VERTEX
  8
LAYER_1
 62
7
 10
20.969851
 20
22.763320
 42
0.052735
  0
VERTEX
  8
LAYER_1
 62
7
 10
20.969778
 20
22.566815
 42
0.043359
  0
VERTEX
  8
LAYER_1
 62
7
 10
20.995236
 20
22.616182
 42
0.061402
  0
VERTEX
  8
LAYER_1
 62
7
 10
21.076143
 20
23.001623
 42
0.073647
  0
VERTEX
  8
LAYER_1
 62
7
 10
21.052145
 20
23.391208
 42
0.181611
  0
VERTEX
  8
LAYER_1
 62
7
 10
20.647200
 20
24.035403
  0
VERTEX
  8
LAYER_1
 62
7
 10
20.619841
 20
24.056131
  0
VERTEX
  8
LAYER_1
 62
7
 10
20.615580
 20
24.060302
 42
0.035184
  0
VERTEX
  8
LAYER_1
 62
7
 10
20.605488
 20
23.759250
  0
SEQEND
  0
POLYLINE
  8
LAYER_1
 62
7
 70
1
 66
1
  0
VERTEX
  8
LAYER_1
 62
7
 10
17.517059
 20
7.448721
  0
VERTEX
  8
LAYER_1
 62
7
 10
17.494747
 20
7.348299
  0
VERTEX
  8
LAYER_1
 62
7
 10
17.480237
 20
7.282991
  0
VERTEX
  8
LAYER_1
 62
7
 10
17.485349
 20
7.285543
 42
0.003135
  0
VERTEX
  8
LAYER_1
 62
7
 10
18.477158
 20
7.779631
 42
0.018058
  0
VERTEX
  8
LAYER_1
 62
7
 10
18.528946
 20
7.962972
 42
0.013863
  0
VERTEX
  8
LAYER_1
 62
7
 10
17.520799
 20
7.450644
  0
VERTEX
  8
LAYER_1
 62
7
 10
17.517059
 20
7.448721
  0
SEQEND
  0
POLYLINE
  8
LAYER_1
 62
7
 70
1
 66
1
  0
VERTEX
  8
LAYER_1
 62
7
 10
17.667306
 20
14.086369
  0
VERTEX
  8
LAYER_1
 62
7
 10
17.672426
 20
14.034853
  0
VERTEX
  8
LAYER_1
 62
7
 10
17.670075
 20
14.034438
  0
VERTEX
  8
LAYER_1
 62
7
 10
17.665158
 20
14.047586
 42
0.069104
  0
VERTEX
  8
LAYER_1
 62
7
 10
17.434655
 20
14.460278
 42
0.044867
  0
VERTEX
  8
LAYER_1
 62
7
 10
17.271177
 20
14.641698
 42
0.065590
  0
VERTEX
  8
LAYER_1
 62
7
 10
17.085107
 20
14.774824
 42
0.090666
  0
VERTEX
  8
LAYER_1
 62
7
 10
16.951038
 20
14.820335
 42
0.143163
  0
VERTEX
  8
LAYER_1
 62
7
 10
16.863245
 20
14.808165
 42
0.170358
  0
VERTEX
  8
LAYER_1
 62
7
 10
16.812586
 20
14.750414
 42
0.062052
  0
VERTEX
  8
LAYER_1
 62
7
 10
16.784788
 20
14.658234
 42
0.022551
  0
VERTEX
  8
LAYER_1
 62
7
 10
16.764797
 20
14.481876
 42
0.092429
  0
VERTEX
  8
LAYER_1
 62
7
 10
16.766256
 20
14.450385
 42
0.174259
  0
VERTEX
  8
LAYER_1
 62
7
 10
16.783892
 20
14.424261
  0
VERTEX
  8
LAYER_1
 62
7
 10
16.792990
 20
14.420611
 42
-0.042129
  0
VERTEX
  8
LAYER_1
 62
7
 10
17.062180
 20
14.320814
 42
-0.134805
  0
VERTEX
  8
LAYER_1
 62
7
 10
17.149901
 20
14.238287
  0
VERTEX
  8
LAYER_1
 62
7
 10
17.152230
 20
14.238272
 42
0.076775
  0
VERTEX
  8
LAYER_1
 62
7
 10
17.187250
 20
14.340161
  0
VERTEX
  8
LAYER_1
 62
7
 10
17.191287
 20
14.370293
  0
VERTEX
  8
LAYER_1
 62
7
 10
17.218738
 20
14.343390
 42
-0.056981
  0
VERTEX
  8
LAYER_1
 62
7
 10
17.460351
 20
14.031330
 42
-0.036619
  0
VERTEX
  8
LAYER_1
 62
7
 10
17.642734
 20
13.686250
 42
0.112868
  0
VERTEX
  8
LAYER_1
 62
7
 10
17.658087
 20
13.662774
 42
0.138217
  0
VERTEX
  8
LAYER_1
 62
7
 10
17.669532
 20
13.657437
 42
0.133497
  0
VERTEX
  8
LAYER_1
 62
7
 10
17.684470
 20
13.659534
 42
0.075835
  0
VERTEX
  8
LAYER_1
 62
7
 10
17.709999
 20
13.708511
 42
0.038585
  0
VERTEX
  8
LAYER_1
 62
7
 10
17.727966
 20
13.775174
 42
0.036605
  0
VERTEX
  8
LAYER_1
 62
7
 10
17.745592
 20
13.938763
 42
0.033458
  0
VERTEX
  8
LAYER_1
 62
7
 10
17.738263
 20
14.227464
 42
-0.015032
  0
VERTEX
  8
LAYER_1
 62
7
 10
17.715765
 20
14.486676
 42
-0.048296
  0
VERTEX
  8
LAYER_1
 62
7
 10
17.726300
 20
14.746360
 42
-0.114295
  0
VERTEX
  8
LAYER_1
 62
7
 10
17.763088
 20
14.857785
 42
-0.249898
  0
VERTEX
  8
LAYER_1
 62
7
 10
17.827610
 20
14.893399
 42
-0.080586
  0
VERTEX
  8
LAYER_1
 62
7
 10
17.871796
 20
14.886121
 42
-0.038485
  0
VERTEX
  8
LAYER_1
 62
7
 10
17.920208
 20
14.866391
 42
-0.037458
  0
VERTEX
  8
LAYER_1
 62
7
 10
18.003776
 20
14.816487
 42
-0.056245
  0
VERTEX
  8
LAYER_1
 62
7
 10
18.115761
 20
14.716471
 42
0.107827
  0
VERTEX
  8
LAYER_1
 62
7
 10
18.111712
 20
15.027193
  0
VERTEX
  8
LAYER_1
 62
7
 10
18.109629
 20
15.033966
  0
VERTEX
  8
LAYER_1
 62
7
 10
18.096858
 20
15.046274
 42
0.062278
  0
VERTEX
  8
LAYER_1
 62
7
 10
18.003641
 20
15.117715
 42
0.040968
  0
VERTEX
  8
LAYER_1
 62
7
 10
17.904056
 20
15.171124
  0
VERTEX
  8
LAYER_1
 62
7
 10
17.892161
 20
15.175322
 42
0.157654
  0
VERTEX
  8
LAYER_1
 62
7
 10
17.795181
 20
15.176627
 42
0.151532
  0
VERTEX
  8
LAYER_1
 62
7
 10
17.715922
 20
15.119998
  0
VERTEX
  8
LAYER_1
 62
7
 10
17.700098
 20
15.096945
 42
0.083666
  0
VERTEX
  8
LAYER_1
 62
7
 10
17.645204
 20
14.937042
 42
0.034110
  0
VERTEX
  8
LAYER_1
 62
7
 10
17.625259
 20
14.768440
 42
0.031516
  0
VERTEX
  8
LAYER_1
 62
7
 10
17.633954
 20
14.406057
 42
0.011271
  0
VERTEX
  8
LAYER_1
 62
7
 10
17.667306
 20
14.086369
  0
SEQEND
  0
POLYLINE
  8
LAYER_1
 62
7
 70
1
 66
1
  0
VERTEX
  8
LAYER_1
 62
7
 10
26.380463
 20
16.340185
  0
VERTEX
  8
LAYER_1
 62
7
 10
26.404432
 20
16.325431
 42
-0.080322
  0
VERTEX
  8
LAYER_1
 62
7
 10
26.662141
 20
16.105565
  0
VERTEX
  8
LAYER_1
 62
7
 10
26.664179
 20
16.103515
  0
VERTEX
  8
LAYER_1
 62
7
 10
26.688273
 20
16.148280
 42
0.176699
  0
VERTEX
  8
LAYER_1
 62
7
 10
26.717763
 20
16.368142
 42
0.119410
  0
VERTEX
  8
LAYER_1
 62
7
 10
26.686344
 20
16.429282
 42
0.055189
  0
VERTEX
  8
LAYER_1
 62
7
 10
26.631069
 20
16.481395
  0
VERTEX
  8
LAYER_1
 62
7
 10
26.567651
 20
16.526624
 42
-0.022100
  0
VERTEX
  8
LAYER_1
 62
7
 10
26.511803
 20
16.567111
  0
VERTEX
  8
LAYER_1
 62
7
 10
26.504875
 20
16.572937
  0
VERTEX
  8
LAYER_1
 62
7
 10
26.503934
 20
16.575309
 42
0.080288
  0
VERTEX
  8
LAYER_1
 62
7
 10
26.592259
 20
16.876089
  0
VERTEX
  8
LAYER_1
 62
7
 10
26.600053
 20
16.961883
 42
0.055924
  0
VERTEX
  8
LAYER_1
 62
7
 10
26.592493
 20
17.092553
 42
0.134976
  0
VERTEX
  8
LAYER_1
 62
7
 10
26.539738
 20
17.212344
 42
0.221536
  0
VERTEX
  8
LAYER_1
 62
7
 10
26.411946
 20
17.265500
 42
0.153145
  0
VERTEX
  8
LAYER_1
 62
7
 10
26.264607
 20
17.213878
 42
0.050966
  0
VERTEX
  8
LAYER_1
 62
7
 10
26.148463
 20
17.110965
 42
0.078092
  0
VERTEX
  8
LAYER_1
 62
7
 10
25.973227
 20
16.864188
 42
0.116983
  0
VERTEX
  8
LAYER_1
 62
7
 10
25.940273
 20
16.725394
 42
0.235804
  0
VERTEX
  8
LAYER_1
 62
7
 10
25.999866
 20
16.613494
  0
VERTEX
  8
LAYER_1
 62
7
 10
26.293037
 20
16.398718
  0
VERTEX
  8
LAYER_1
 62
7
 10
26.287898
 20
16.389475
  0
VERTEX
  8
LAYER_1
 62
7
 10
26.283036
 20
16.381976
 42
-0.059996
  0
VERTEX
  8
LAYER_1
 62
7
 10
25.965957
 20
16.017093
 42
-0.029463
  0
VERTEX
  8
LAYER_1
 62
7
 10
25.549446
 20
15.677939
 42
-0.012016
  0
VERTEX
  8
LAYER_1
 62
7
 10
25.101275
 20
15.369541
  0
VERTEX
  8
LAYER_1
 62
7
 10
24.689213
 20
15.096925
 42
0.034165
  0
VERTEX
  8
LAYER_1
 62
7
 10
24.092874
 20
14.639477
  0
VERTEX
  8
LAYER_1
 62
7
 10
24.698098
 20
14.957544
 42
0.019959
  0
VERTEX
  8
LAYER_1
 62
7
 10
25.294289
 20
15.301724
 42
0.108018
  0
VERTEX
  8
LAYER_1
 62
7
 10
26.364853
 20
16.310105
  0
VERTEX
  8
LAYER_1
 62
7
 10
26.380463
 20
16.340185
  0
SEQEND
  0
POLYLINE
  8
LAYER_1
 62
7
 70
1
 66
1
  0
VERTEX
  8
LAYER_1
 62
7
 10
26.198984
 20
16.998618
 42
-0.175839
  0
VERTEX
  8
LAYER_1
 62
7
 10
26.325629
 20
17.022361
 42
-0.274093
  0
VERTEX
  8
LAYER_1
 62
7
 10
26.421241
 20
16.942085
 42
-0.212227
  0
VERTEX
  8
LAYER_1
 62
7
 10
26.404258
 20
16.628369
  0
VERTEX
  8
LAYER_1
 62
7
 10
26.403856
 20
16.627344
  0
VERTEX
  8
LAYER_1
 62
7
 10
26.333251
 20
16.673006
  0
VERTEX
  8
LAYER_1
 62
7
 10
26.214364
 20
16.754309
 42
-0.022145
  0
VERTEX
  8
LAYER_1
 62
7
 10
26.149776
 20
16.805509
 42
-0.070951
  0
VERTEX
  8
LAYER_1
 62
7
 10
26.108513
 20
16.850520
 42
-0.140289
  0
VERTEX
  8
LAYER_1
 62
7
 10
26.103672
 20
16.869804
 42
-0.085592
  0
VERTEX
  8
LAYER_1
 62
7
 10
26.108277
 20
16.891747
 42
-0.075519
  0
VERTEX
  8
LAYER_1
 62
7
 10
26.136162
 20
16.937852
 42
-0.036289
  0
VERTEX
  8
LAYER_1
 62
7
 10
26.172840
 20
16.977315
 42
-0.045233
  0
VERTEX
  8
LAYER_1
 62
7
 10
26.198984
 20
16.998618
  0
SEQEND
  0
POLYLINE
  8
LAYER_1
 62
7
 70
1
 66
1
  0
VERTEX
  8
LAYER_1
 62
7
 10
20.998633
 20
22.494237
  0
VERTEX
  8
LAYER_1
 62
7
 10
20.960903
 20
22.239048
  0
VERTEX
  8
LAYER_1
 62
7
 10
20.960660
 20
22.237698
 42
0.040729
  0
VERTEX
  8
LAYER_1
 62
7
 10
20.966999
 20
22.218069
 42
0.011504
  0
VERTEX
  8
LAYER_1
 62
7
 10
21.035753
 20
22.072398
  0
VERTEX
  8
LAYER_1
 62
7
 10
21.056462
 20
22.026497
 42
-0.110014
  0
VERTEX
  8
LAYER_1
 62
7
 10
21.098540
 20
21.803374
 42
-0.096119
  0
VERTEX
  8
LAYER_1
 62
7
 10
21.074558
 20
21.680238
 42
-0.191461
  0
VERTEX
  8
LAYER_1
 62
7
 10
20.993480
 20
21.593826
 42
-0.101641
  0
VERTEX
  8
LAYER_1
 62
7
 10
20.929308
 20
21.577804
 42
-0.136391
  0
VERTEX
  8
LAYER_1
 62
7
 10
20.878327
 20
21.590587
 42
-0.104902
  0
VERTEX
  8
LAYER_1
 62
7
 10
20.838360
 20
21.627583
 42
-0.058680
  0
VERTEX
  8
LAYER_1
 62
7
 10
20.807228
 20
21.684199
 42
-0.061742
  0
VERTEX
  8
LAYER_1
 62
7
 10
20.776449
 20
21.800797
  0
VERTEX
  8
LAYER_1
 62
7
 10
20.768152
 20
21.881669
 42
0.061305
  0
VERTEX
  8
LAYER_1
 62
7
 10
20.728961
 20
22.091304
 42
0.067321
  0
VERTEX
  8
LAYER_1
 62
7
 10
20.619920
 20
22.333477
 42
-0.052425
  0
VERTEX
  8
LAYER_1
 62
7
 10
20.566140
 20
22.098879
  0
VERTEX
  8
LAYER_1
 62
7
 10
20.595229
 20
22.052866
  0
VERTEX
  8
LAYER_1
 62
7
 10
20.600350
 20
22.044138
 42
-0.085225
  0
VERTEX
  8
LAYER_1
 62
7
 10
20.661529
 20
21.851710
 42
-0.006132
  0
VERTEX
  8
LAYER_1
 62
7
 10
20.686779
 20
21.650719
 42
0.018626
  0
VERTEX
  8
LAYER_1
 62
7
 10
20.707070
 20
21.531516
 42
0.072190
  0
VERTEX
  8
LAYER_1
 62
7
 10
20.743107
 20
21.431359
 42
0.107426
  0
VERTEX
  8
LAYER_1
 62
7
 10
20.800802
 20
21.362694
 42
0.139766
  0
VERTEX
  8
LAYER_1
 62
7
 10
20.878293
 20
21.332848
 42
0.119903
  0
VERTEX
  8
LAYER_1
 62
7
 10
20.973713
 20
21.349145
 42
0.141824
  0
VERTEX
  8
LAYER_1
 62
7
 10
21.065776
 20
21.423096
 42
0.079961
  0
VERTEX
  8
LAYER_1
 62
7
 10
21.118051
 20
21.530457
 42
0.059650
  0
VERTEX
  8
LAYER_1
 62
7
 10
21.150149
 20
21.718707
  0
VERTEX
  8
LAYER_1
 62
7
 10
21.152468
 20
21.752130
 42
-0.079620
  0
VERTEX
  8
LAYER_1
 62
7
 10
21.161286
 20
21.740865
 42
0.111769
  0
VERTEX
  8
LAYER_1
 62
7
 10
21.268571
 20
21.589092
 42
0.155257
  0
VERTEX
  8
LAYER_1
 62
7
 10
21.438612
 20
21.509657
 42
0.061002
  0
VERTEX
  8
LAYER_1
 62
7
 10
21.511079
 20
21.511060
 42
0.097364
  0
VERTEX
  8
LAYER_1
 62
7
 10
21.581797
 20
21.533595
 42
0.184237
  0
VERTEX
  8
LAYER_1
 62
7
 10
21.645244
 20
21.619016
 42
0.037725
  0
VERTEX
  8
LAYER_1
 62
7
 10
21.658022
 20
21.672445
  0
VERTEX
  8
LAYER_1
 62
7
 10
21.665740
 20
21.725762
 42
0.055945
  0
VERTEX
  8
LAYER_1
 62
7
 10
21.671614
 20
21.883067
 42
0.088415
  0
VERTEX
  8
LAYER_1
 62
7
 10
21.632034
 20
22.034831
 42
0.016410
  0
VERTEX
  8
LAYER_1
 62
7
 10
21.504277
 20
22.261848
 42
-0.028880
  0
VERTEX
  8
LAYER_1
 62
7
 10
21.443599
 20
22.383182
 42
-0.066713
  0
VERTEX
  8
LAYER_1
 62
7
 10
21.409610
 20
22.501507
 42
0.211445
  0
VERTEX
  8
LAYER_1
 62
7
 10
21.403157
 20
22.513544
 42
0.219848
  0
VERTEX
  8
LAYER_1
 62
7
 10
21.387336
 20
22.515525
  0
VERTEX
  8
LAYER_1
 62
7
 10
21.386460
 20
22.511556
 42
0.024303
  0
VERTEX
  8
LAYER_1
 62
7
 10
21.356296
 20
22.332346
  0
VERTEX
  8
LAYER_1
 62
7
 10
21.355964
 20
22.329426
 42
0.086394
  0
VERTEX
  8
LAYER_1
 62
7
 10
21.364565
 20
22.233803
 42
0.046030
  0
VERTEX
  8
LAYER_1
 62
7
 10
21.401609
 20
22.130800
 42
0.039201
  0
VERTEX
  8
LAYER_1
 62
7
 10
21.514192
 20
21.935370
 42
-0.031247
  0
VERTEX
  8
LAYER_1
 62
7
 10
21.588507
 20
21.818938
  0
VERTEX
  8
LAYER_1
 62
7
 10
21.594619
 20
21.804762
  0
VERTEX
  8
LAYER_1
 62
7
 10
21.585767
 20
21.800034
 42
-0.159368
  0
VERTEX
  8
LAYER_1
 62
7
 10
21.440437
 20
21.773771
 42
-0.158805
  0
VERTEX
  8
LAYER_1
 62
7
 10
21.309429
 20
21.837913
 42
-0.109737
  0
VERTEX
  8
LAYER_1
 62
7
 10
21.222294
 20
21.970224
 42
-0.028232
  0
VERTEX
  8
LAYER_1
 62
7
 10
21.176200
 20
22.124004
 42
0.092420
  0
VERTEX
  8
LAYER_1
 62
7
 10
20.999107
 20
22.495245
  0
VERTEX
  8
LAYER_1
 62
7
 10
20.998633
 20
22.494237
  0
SEQEND
  0
POLYLINE
  8
LAYER_1
 62
7
 70
1
 66
1
  0
VERTEX
  8
LAYER_1
 62
7
 10
20.701020
 20
7.470484
 42
0.081776
  0
VERTEX
  8
LAYER_1
 62
7
 10
20.686147
 20
7.236065
 42
0.198906
  0
VERTEX
  8
LAYER_1
 62
7
 10
20.784083
 20
7.045224
 42
0.139792
  0
VERTEX
  8
LAYER_1
 62
7
 10
20.839936
 20
7.020013
 42
0.178830
  0
VERTEX
  8
LAYER_1
 62
7
 10
20.904577
 20
7.036767
 42
0.108088
  0
VERTEX
  8
LAYER_1
 62
7
 10
20.962892
 20
7.100633
 42
0.049968
  0
VERTEX
  8
LAYER_1
 62
7
 10
21.007005
 20
7.193058
 42
0.060868
  0
VERTEX
  8
LAYER_1
 62
7
 10
21.049913
 20
7.371373
  0
VERTEX
  8
LAYER_1
 62
7
 10
21.050645
 20
7.387857
 42
0.042763
  0
VERTEX
  8
LAYER_1
 62
7
 10
21.049636
 20
7.398477
 42
0.045822
  0
VERTEX
  8
LAYER_1
 62
7
 10
21.048428
 20
7.402798
 42
0.116534
  0
VERTEX
  8
LAYER_1
 62
7
 10
21.046693
 20
7.405537
 42
0.285188
  0
VERTEX
  8
LAYER_1
 62
7
 10
21.044386
 20
7.406003
 42
0.092010
  0
VERTEX
  8
LAYER_1
 62
7
 10
21.043004
 20
7.405168
 42
0.052499
  0
VERTEX
  8
LAYER_1
 62
7
 10
21.041463
 20
7.403504
 42
0.069925
  0
VERTEX
  8
LAYER_1
 62
7
 10
21.033593
 20
7.386845
  0
VERTEX
  8
LAYER_1
 62
7
 10
21.028364
 20
7.373577
 42
-0.090795
  0
VERTEX
  8
LAYER_1
 62
7
 10
20.969200
 20
7.283823
 42
-0.243805
  0
VERTEX
  8
LAYER_1
 62
7
 10
20.886019
 20
7.252719
 42
-0.230175
  0
VERTEX
  8
LAYER_1
 62
7
 10
20.815144
 20
7.307985
 42
-0.066684
  0
VERTEX
  8
LAYER_1
 62
7
 10
20.794348
 20
7.362329
 42
-0.116224
  0
VERTEX
  8
LAYER_1
 62
7
 10
20.798108
 20
7.597765
 42
-0.043112
  0
VERTEX
  8
LAYER_1
 62
7
 10
20.874910
 20
7.826467
  0
VERTEX
  8
LAYER_1
 62
7
 10
20.915369
 20
7.925408
 42
0.031895
  0
VERTEX
  8
LAYER_1
 62
7
 10
20.950669
 20
8.026148
 42
0.063434
  0
VERTEX
  8
LAYER_1
 62
7
 10
20.952928
 20
8.051011
 42
0.176073
  0
VERTEX
  8
LAYER_1
 62
7
 10
20.946829
 20
8.068014
 42
0.211657
  0
VERTEX
  8
LAYER_1
 62
7
 10
20.933557
 20
8.073835
  0
VERTEX
  8
LAYER_1
 62
7
 10
20.914490
 20
8.029145
 42
0.019199
  0
VERTEX
  8
LAYER_1
 62
7
 10
20.791265
 20
7.755201
 42
0.042506
  0
VERTEX
  8
LAYER_1
 62
7
 10
20.701020
 20
7.470484
  0
SEQEND
  0
POLYLINE
  8
LAYER_1
 62
7
 70
1
 66
1
  0
VERTEX
  8
LAYER_1
 62
7
 10
22.757601
 20
6.962849
 42
0.081776
  0
VERTEX
  8
LAYER_1
 62
7
 10
22.742728
 20
6.728429
 42
0.198906
  0
VERTEX
  8
LAYER_1
 62
7
 10
22.840664
 20
6.537589
 42
0.139792
  0
VERTEX
  8
LAYER_1
 62
7
 10
22.896517
 20
6.512378
 42
0.178830
  0
VERTEX
  8
LAYER_1
 62
7
 10
22.961158
 20
6.529132
 42
0.108088
  0
VERTEX
  8
LAYER_1
 62
7
 10
23.019473
 20
6.592998
 42
0.049968
  0
VERTEX
  8
LAYER_1
 62
7
 10
23.063586
 20
6.685423
 42
0.060868
  0
VERTEX
  8
LAYER_1
 62
7
 10
23.106494
 20
6.863738
  0
VERTEX
  8
LAYER_1
 62
7
 10
23.107226
 20
6.880222
 42
0.042763
  0
VERTEX
  8
LAYER_1
 62
7
 10
23.106217
 20
6.890842
 42
0.045822
  0
VERTEX
  8
LAYER_1
 62
7
 10
23.105009
 20
6.895162
 42
0.116534
  0
VERTEX
  8
LAYER_1
 62
7
 10
23.103274
 20
6.897902
 42
0.285188
  0
VERTEX
  8
LAYER_1
 62
7
 10
23.100967
 20
6.898368
 42
0.092010
  0
VERTEX
  8
LAYER_1
 62
7
 10
23.099585
 20
6.897532
 42
0.052499
  0
VERTEX
  8
LAYER_1
 62
7
 10
23.098044
 20
6.895869
 42
0.069925
  0
VERTEX
  8
LAYER_1
 62
7
 10
23.090174
 20
6.879209
  0
VERTEX
  8
LAYER_1
 62
7
 10
23.084945
 20
6.865942
 42
-0.090795
  0
VERTEX
  8
LAYER_1
 62
7
 10
23.025781
 20
6.776188
 42
-0.243805
  0
VERTEX
  8
LAYER_1
 62
7
 10
22.942599
 20
6.745083
 42
-0.230175
  0
VERTEX
  8
LAYER_1
 62
7
 10
22.871725
 20
6.800350
 42
-0.066684
  0
VERTEX
  8
LAYER_1
 62
7
 10
22.850928
 20
6.854693
 42
-0.116224
  0
VERTEX
  8
LAYER_1
 62
7
 10
22.854689
 20
7.090130
 42
-0.043112
  0
VERTEX
  8
LAYER_1
 62
7
 10
22.931491
 20
7.318832
  0
VERTEX
  8
LAYER_1
 62
7
 10
22.971950
 20
7.417773
 42
0.031895
  0
VERTEX
  8
LAYER_1
 62
7
 10
23.007250
 20
7.518513
 42
0.063434
  0
VERTEX
  8
LAYER_1
 62
7
 10
23.009509
 20
7.543375
 42
0.176073
  0
VERTEX
  8
LAYER_1
 62
7
 10
23.003410
 20
7.560379
 42
0.211657
  0
VERTEX
  8
LAYER_1
 62
7
 10
22.990138
 20
7.566200
  0
VERTEX
  8
LAYER_1
 62
7
 10
22.971071
 20
7.521509
 42
0.019199
  0
VERTEX
  8
LAYER_1
 62
7
 10
22.847846
 20
7.247565
 42
0.042506
  0
VERTEX
  8
LAYER_1
 62
7
 10
22.757601
 20
6.962849
  0
SEQEND
  0
POLYLINE
  8
LAYER_1
 62
7
 70
1
 66
1
  0
VERTEX
  8
LAYER_1
 62
7
 10
18.305553
 20
4.096772
 42
0.081776
  0
VERTEX
  8
LAYER_1
 62
7
 10
18.290680
 20
3.862353
 42
0.198906
  0
VERTEX
  8
LAYER_1
 62
7
 10
18.388616
 20
3.671512
 42
0.139792
  0
VERTEX
  8
LAYER_1
 62
7
 10
18.444469
 20
3.646301
 42
0.178830
  0
VERTEX
  8
LAYER_1
 62
7
 10
18.509110
 20
3.663055
 42
0.108088
  0
VERTEX
  8
LAYER_1
 62
7
 10
18.567425
 20
3.726921
 42
0.049968
  0
VERTEX
  8
LAYER_1
 62
7
 10
18.611538
 20
3.819346
 42
0.060868
  0
VERTEX
  8
LAYER_1
 62
7
 10
18.654446
 20
3.997661
  0
VERTEX
  8
LAYER_1
 62
7
 10
18.655178
 20
4.014145
 42
0.042763
  0
VERTEX
  8
LAYER_1
 62
7
 10
18.654169
 20
4.024765
 42
0.045822
  0
VERTEX
  8
LAYER_1
 62
7
 10
18.652961
 20
4.029086
 42
0.116534
  0
VERTEX
  8
LAYER_1
 62
7
 10
18.651226
 20
4.031825
 42
0.285188
  0
VERTEX
  8
LAYER_1
 62
7
 10
18.648919
 20
4.032291
 42
0.092010
  0
VERTEX
  8
LAYER_1
 62
7
 10
18.647537
 20
4.031456
 42
0.052499
  0
VERTEX
  8
LAYER_1
 62
7
 10
18.645996
 20
4.029792
 42
0.069925
  0
VERTEX
  8
LAYER_1
 62
7
 10
18.638126
 20
4.013133
  0
VERTEX
  8
LAYER_1
 62
7
 10
18.632897
 20
3.999865
 42
-0.090795
  0
VERTEX
  8
LAYER_1
 62
7
 10
18.573733
 20
3.910111
 42
-0.243805
  0
VERTEX
  8
LAYER_1
 62
7
 10
18.490551
 20
3.879007
 42
-0.230175
  0
VERTEX
  8
LAYER_1
 62
7
 10
18.419677
 20
3.934273
 42
-0.066684
  0
VERTEX
  8
LAYER_1
 62
7
 10
18.398880
 20
3.988616
 42
-0.116224
  0
VERTEX
  8
LAYER_1
 62
7
 10
18.402641
 20
4.224053
 42
-0.043112
  0
VERTEX
  8
LAYER_1
 62
7
 10
18.479443
 20
4.452755
  0
VERTEX
  8
LAYER_1
 62
7
 10
18.519902
 20
4.551696
 42
0.031895
  0
VERTEX
  8
LAYER_1
 62
7
 10
18.555202
 20
4.652436
 42
0.063434
  0
VERTEX
  8
LAYER_1
 62
7
 10
18.557460
 20
4.677298
 42
0.176073
  0
VERTEX
  8
LAYER_1
 62
7
 10
18.551362
 20
4.694302
 42
0.211657
  0
VERTEX
  8
LAYER_1
 62
7
 10
18.538090
 20
4.700123
  0
VERTEX
  8
LAYER_1
 62
7
 10
18.519023
 20
4.655432
 42
0.019199
  0
VERTEX
  8
LAYER_1
 62
7
 10
18.395798
 20
4.381489
 42
0.042506
  0
VERTEX
  8
LAYER_1
 62
7
 10
18.305553
 20
4.096772
  0
SEQEND
  0
POLYLINE
  8
LAYER_1
 62
7
 70
1
 66
1
  0
VERTEX
  8
LAYER_1
 62
7
 10
22.474392
 20
12.762973
 42
0.081776
  0
VERTEX
  8
LAYER_1
 62
7
 10
22.459519
 20
12.528553
 42
0.198906
  0
VERTEX
  8
LAYER_1
 62
7
 10
22.557455
 20
12.337712
 42
0.139792
  0
VERTEX
  8
LAYER_1
 62
7
 10
22.613308
 20
12.312502
 42
0.178830
  0
VERTEX
  8
LAYER_1
 62
7
 10
22.677949
 20
12.329255
 42
0.108088
  0
VERTEX
  8
LAYER_1
 62
7
 10
22.736264
 20
12.393122
 42
0.049968
  0
VERTEX
  8
LAYER_1
 62
7
 10
22.780377
 20
12.485547
 42
0.060868
  0
VERTEX
  8
LAYER_1
 62
7
 10
22.823285
 20
12.663862
  0
VERTEX
  8
LAYER_1
 62
7
 10
22.824017
 20
12.680345
 42
0.042763
  0
VERTEX
  8
LAYER_1
 62
7
 10
22.823008
 20
12.690965
 42
0.045822
  0
VERTEX
  8
LAYER_1
 62
7
 10
22.821800
 20
12.695286
 42
0.116534
  0
VERTEX
  8
LAYER_1
 62
7
 10
22.820065
 20
12.698026
 42
0.285188
  0
VERTEX
  8
LAYER_1
 62
7
 10
22.817758
 20
12.698492
 42
0.092010
  0
VERTEX
  8
LAYER_1
 62
7
 10
22.816376
 20
12.697656
 42
0.052499
  0
VERTEX
  8
LAYER_1
 62
7
 10
22.814835
 20
12.695993
 42
0.069925
  0
VERTEX
  8
LAYER_1
 62
7
 10
22.806965
 20
12.679333
  0
VERTEX
  8
LAYER_1
 62
7
 10
22.801736
 20
12.666065
 42
-0.090795
  0
VERTEX
  8
LAYER_1
 62
7
 10
22.742572
 20
12.576312
 42
-0.243805
  0
VERTEX
  8
LAYER_1
 62
7
 10
22.659390
 20
12.545207
 42
-0.230175
  0
VERTEX
  8
LAYER_1
 62
7
 10
22.588516
 20
12.600474
 42
-0.066684
  0
VERTEX
  8
LAYER_1
 62
7
 10
22.567719
 20
12.654817
 42
-0.116224
  0
VERTEX
  8
LAYER_1
 62
7
 10
22.571480
 20
12.890254
 42
-0.043112
  0
VERTEX
  8
LAYER_1
 62
7
 10
22.648282
 20
13.118956
  0
VERTEX
  8
LAYER_1
 62
7
 10
22.688741
 20
13.217897
 42
0.031895
  0
VERTEX
  8
LAYER_1
 62
7
 10
22.724041
 20
13.318637
 42
0.063434
  0
VERTEX
  8
LAYER_1
 62
7
 10
22.726299
 20
13.343499
 42
0.176073
  0
VERTEX
  8
LAYER_1
 62
7
 10
22.720201
 20
13.360503
 42
0.211657
  0
VERTEX
  8
LAYER_1
 62
7
 10
22.706929
 20
13.366324
  0
VERTEX
  8
LAYER_1
 62
7
 10
22.687862
 20
13.321633
 42
0.019199
  0
VERTEX
  8
LAYER_1
 62
7
 10
22.564637
 20
13.047689
 42
0.042506
  0
VERTEX
  8
LAYER_1
 62
7
 10
22.474392
 20
12.762973
  0
SEQEND
  0
POLYLINE
  8
LAYER_1
 62
7
 70
1
 66
1
  0
VERTEX
  8
LAYER_1
 62
7
 10
20.797793
 20
16.354065
 42
0.081776
  0
VERTEX
  8
LAYER_1
 62
7
 10
20.782920
 20
16.119645
 42
0.198906
  0
VERTEX
  8
LAYER_1
 62
7
 10
20.880857
 20
15.928805
 42
0.139792
  0
VERTEX
  8
LAYER_1
 62
7
 10
20.936710
 20
15.903594
 42
0.178830
  0
VERTEX
  8
LAYER_1
 62
7
 10
21.001350
 20
15.920348
 42
0.108088
  0
VERTEX
  8
LAYER_1
 62
7
 10
21.059665
 20
15.984214
 42
0.049968
  0
VERTEX
  8
LAYER_1
 62
7
 10
21.103779
 20
16.076639
 42
0.060868
  0
VERTEX
  8
LAYER_1
 62
7
 10
21.146687
 20
16.254954
  0
VERTEX
  8
LAYER_1
 62
7
 10
21.147419
 20
16.271438
 42
0.042763
  0
VERTEX
  8
LAYER_1
 62
7
 10
21.146409
 20
16.282058
 42
0.045822
  0
VERTEX
  8
LAYER_1
 62
7
 10
21.145202
 20
16.286379
 42
0.116534
  0
VERTEX
  8
LAYER_1
 62
7
 10
21.143466
 20
16.289118
 42
0.285188
  0
VERTEX
  8
LAYER_1
 62
7
 10
21.141159
 20
16.289584
 42
0.092010
  0
VERTEX
  8
LAYER_1
 62
7
 10
21.139778
 20
16.288748
 42
0.052499
  0
VERTEX
  8
LAYER_1
 62
7
 10
21.138236
 20
16.287085
 42
0.069925
  0
VERTEX
  8
LAYER_1
 62
7
 10
21.130366
 20
16.270426
  0
VERTEX
  8
LAYER_1
 62
7
 10
21.125137
 20
16.257158
 42
-0.090795
  0
VERTEX
  8
LAYER_1
 62
7
 10
21.065974
 20
16.167404
 42
-0.243805
  0
VERTEX
  8
LAYER_1
 62
7
 10
20.982792
 20
16.136299
 42
-0.230175
  0
VERTEX
  8
LAYER_1
 62
7
 10
20.911918
 20
16.191566
 42
-0.066684
  0
VERTEX
  8
LAYER_1
 62
7
 10
20.891121
 20
16.245909
 42
-0.116224
  0
VERTEX
  8
LAYER_1
 62
7
 10
20.894881
 20
16.481346
 42
-0.043112
  0
VERTEX
  8
LAYER_1
 62
7
 10
20.971684
 20
16.710048
  0
VERTEX
  8
LAYER_1
 62
7
 10
21.012143
 20
16.808989
 42
0.031895
  0
VERTEX
  8
LAYER_1
 62
7
 10
21.047443
 20
16.909729
 42
0.063434
  0
VERTEX
  8
LAYER_1
 62
7
 10
21.049701
 20
16.934591
 42
0.176073
  0
VERTEX
  8
LAYER_1
 62
7
 10
21.043602
 20
16.951595
 42
0.211657
  0
VERTEX
  8
LAYER_1
 62
7
 10
21.030330
 20
16.957416
  0
VERTEX
  8
LAYER_1
 62
7
 10
21.011264
 20
16.912725
 42
0.019199
  0
VERTEX
  8
LAYER_1
 62
7
 10
20.888038
 20
16.638781
 42
0.042506
  0
VERTEX
  8
LAYER_1
 62
7
 10
20.797793
 20
16.354065
  0
SEQEND
  0
POLYLINE
  8
LAYER_1
 62
7
 70
1
 66
1
  0
VERTEX
  8
LAYER_1
 62
7
 10
17.293863
 20
18.398454
 42
0.081776
  0
VERTEX
  8
LAYER_1
 62
7
 10
17.272840
 20
18.067094
 42
0.081208
  0
VERTEX
  8
LAYER_1
 62
7
 10
17.315826
 20
17.917289
 42
0.112654
  0
VERTEX
  8
LAYER_1
 62
7
 10
17.411276
 20
17.797334
 42
0.139792
  0
VERTEX
  8
LAYER_1
 62
7
 10
17.490227
 20
17.761698
 42
0.178830
  0
VERTEX
  8
LAYER_1
 62
7
 10
17.581598
 20
17.785380
 42
0.108088
  0
VERTEX
  8
LAYER_1
 62
7
 10
17.664028
 20
17.875657
 42
0.049968
  0
VERTEX
  8
LAYER_1
 62
7
 10
17.726384
 20
18.006303
 42
0.060868
  0
VERTEX
  8
LAYER_1
 62
7
 10
17.787036
 20
18.258357
  0
VERTEX
  8
LAYER_1
 62
7
 10
17.788071
 20
18.281657
 42
0.042763
  0
VERTEX
  8
LAYER_1
 62
7
 10
17.786644
 20
18.296669
 42
0.045822
  0
VERTEX
  8
LAYER_1
 62
7
 10
17.784937
 20
18.302777
 42
0.116534
  0
VERTEX
  8
LAYER_1
 62
7
 10
17.782484
 20
18.306649
 42
0.285188
  0
VERTEX
  8
LAYER_1
 62
7
 10
17.779223
 20
18.307308
 42
0.092010
  0
VERTEX
  8
LAYER_1
 62
7
 10
17.777270
 20
18.306126
 42
0.052499
  0
VERTEX
  8
LAYER_1
 62
7
 10
17.775091
 20
18.303775
 42
0.069925
  0
VERTEX
  8
LAYER_1
 62
7
 10
17.763967
 20
18.280226
  0
VERTEX
  8
LAYER_1
 62
7
 10
17.756575
 20
18.261472
 42
-0.090795
  0
VERTEX
  8
LAYER_1
 62
7
 10
17.672945
 20
18.134602
 42
-0.243805
  0
VERTEX
  8
LAYER_1
 62
7
 10
17.555365
 20
18.090635
 42
-0.230175
  0
VERTEX
  8
LAYER_1
 62
7
 10
17.455182
 20
18.168756
 42
-0.066684
  0
VERTEX
  8
LAYER_1
 62
7
 10
17.425785
 20
18.245572
 42
-0.116224
  0
VERTEX
  8
LAYER_1
 62
7
 10
17.431101
 20
18.578369
 42
-0.043112
  0
VERTEX
  8
LAYER_1
 62
7
 10
17.539663
 20
18.901648
  0
VERTEX
  8
LAYER_1
 62
7
 10
17.596854
 20
19.041504
 42
0.031895
  0
VERTEX
  8
LAYER_1
 62
7
 10
17.646751
 20
19.183903
 42
0.063434
  0
VERTEX
  8
LAYER_1
 62
7
 10
17.649944
 20
19.219047
 42
0.176073
  0
VERTEX
  8
LAYER_1
 62
7
 10
17.641323
 20
19.243082
 42
0.211657
  0
VERTEX
  8
LAYER_1
 62
7
 10
17.622563
 20
19.251310
  0
VERTEX
  8
LAYER_1
 62
7
 10
17.595611
 20
19.188138
 42
0.019199
  0
VERTEX
  8
LAYER_1
 62
7
 10
17.421428
 20
18.800910
 42
0.042506
  0
VERTEX
  8
LAYER_1
 62
7
 10
17.293863
 20
18.398454
  0
SEQEND
  0
POLYLINE
  8
LAYER_1
 62
7
 70
1
 66
1
  0
VERTEX
  8
LAYER_1
 62
7
 10
21.757240
 20
19.197204
 42
0.081776
  0
VERTEX
  8
LAYER_1
 62
7
 10
21.736217
 20
18.865844
 42
0.081208
  0
VERTEX
  8
LAYER_1
 62
7
 10
21.779202
 20
18.716039
 42
0.112654
  0
VERTEX
  8
LAYER_1
 62
7
 10
21.874653
 20
18.596084
 42
0.139792
  0
VERTEX
  8
LAYER_1
 62
7
 10
21.953603
 20
18.560448
 42
0.178830
  0
VERTEX
  8
LAYER_1
 62
7
 10
22.044975
 20
18.584130
 42
0.108088
  0
VERTEX
  8
LAYER_1
 62
7
 10
22.127405
 20
18.674407
 42
0.049968
  0
VERTEX
  8
LAYER_1
 62
7
 10
22.189761
 20
18.805053
 42
0.060868
  0
VERTEX
  8
LAYER_1
 62
7
 10
22.250413
 20
19.057107
  0
VERTEX
  8
LAYER_1
 62
7
 10
22.251447
 20
19.080407
 42
0.042763
  0
VERTEX
  8
LAYER_1
 62
7
 10
22.250021
 20
19.095419
 42
0.045822
  0
VERTEX
  8
LAYER_1
 62
7
 10
22.248313
 20
19.101526
 42
0.116534
  0
VERTEX
  8
LAYER_1
 62
7
 10
22.245861
 20
19.105399
 42
0.285188
  0
VERTEX
  8
LAYER_1
 62
7
 10
22.242599
 20
19.106057
 42
0.092010
  0
VERTEX
  8
LAYER_1
 62
7
 10
22.240646
 20
19.104876
 42
0.052499
  0
VERTEX
  8
LAYER_1
 62
7
 10
22.238468
 20
19.102525
 42
0.069925
  0
VERTEX
  8
LAYER_1
 62
7
 10
22.227343
 20
19.078976
  0
VERTEX
  8
LAYER_1
 62
7
 10
22.219952
 20
19.060222
 42
-0.090795
  0
VERTEX
  8
LAYER_1
 62
7
 10
22.136322
 20
18.933352
 42
-0.243805
  0
VERTEX
  8
LAYER_1
 62
7
 10
22.018742
 20
18.889385
 42
-0.230175
  0
VERTEX
  8
LAYER_1
 62
7
 10
21.918559
 20
18.967506
 42
-0.066684
  0
VERTEX
  8
LAYER_1
 62
7
 10
21.889162
 20
19.044322
 42
-0.116224
  0
VERTEX
  8
LAYER_1
 62
7
 10
21.894477
 20
19.377119
 42
-0.043112
  0
VERTEX
  8
LAYER_1
 62
7
 10
22.003040
 20
19.700398
  0
VERTEX
  8
LAYER_1
 62
7
 10
22.060230
 20
19.840254
 42
0.031895
  0
VERTEX
  8
LAYER_1
 62
7
 10
22.110128
 20
19.982653
 42
0.063434
  0
VERTEX
  8
LAYER_1
 62
7
 10
22.113320
 20
20.017797
 42
0.176073
  0
VERTEX
  8
LAYER_1
 62
7
 10
22.104699
 20
20.041832
 42
0.211657
  0
VERTEX
  8
LAYER_1
 62
7
 10
22.085939
 20
20.050060
  0
VERTEX
  8
LAYER_1
 62
7
 10
22.058988
 20
19.986888
 42
0.019199
  0
VERTEX
  8
LAYER_1
 62
7
 10
21.884805
 20
19.599660
 42
0.042506
  0
VERTEX
  8
LAYER_1
 62
7
 10
21.757240
 20
19.197204
  0
SEQEND
  0
POLYLINE
  8
LAYER_1
 62
7
 70
1
 66
1
  0
VERTEX
  8
LAYER_1
 62
7
 10
18.596626
 20
22.856266
 42
0.081776
  0
VERTEX
  8
LAYER_1
 62
7
 10
18.575603
 20
22.524906
 42
0.081208
  0
VERTEX
  8
LAYER_1
 62
7
 10
18.618588
 20
22.375102
 42
0.112654
  0
VERTEX
  8
LAYER_1
 62
7
 10
18.714039
 20
22.255146
 42
0.139792
  0
VERTEX
  8
LAYER_1
 62
7
 10
18.792989
 20
22.219510
 42
0.178830
  0
VERTEX
  8
LAYER_1
 62
7
 10
18.884360
 20
22.243192
 42
0.108088
  0
VERTEX
  8
LAYER_1
 62
7
 10
18.966790
 20
22.333469
 42
0.049968
  0
VERTEX
  8
LAYER_1
 62
7
 10
19.029146
 20
22.464115
 42
0.060868
  0
VERTEX
  8
LAYER_1
 62
7
 10
19.089798
 20
22.716169
  0
VERTEX
  8
LAYER_1
 62
7
 10
19.090833
 20
22.739469
 42
0.042763
  0
VERTEX
  8
LAYER_1
 62
7
 10
19.089406
 20
22.754481
 42
0.045822
  0
VERTEX
  8
LAYER_1
 62
7
 10
19.087699
 20
22.760589
 42
0.116534
  0
VERTEX
  8
LAYER_1
 62
7
 10
19.085246
 20
22.764461
 42
0.285188
  0
VERTEX
  8
LAYER_1
 62
7
 10
19.081985
 20
22.765120
 42
0.092010
  0
VERTEX
  8
LAYER_1
 62
7
 10
19.080032
 20
22.763939
 42
0.052499
  0
VERTEX
  8
LAYER_1
 62
7
 10
19.077853
 20
22.761588
 42
0.069925
  0
VERTEX
  8
LAYER_1
 62
7
 10
19.066729
 20
22.738039
  0
VERTEX
  8
LAYER_1
 62
7
 10
19.059338
 20
22.719284
 42
-0.090795
  0
VERTEX
  8
LAYER_1
 62
7
 10
18.975708
 20
22.592415
 42
-0.243805
  0
VERTEX
  8
LAYER_1
 62
7
 10
18.858127
 20
22.548447
 42
-0.230175
  0
VERTEX
  8
LAYER_1
 62
7
 10
18.757944
 20
22.626569
 42
-0.066684
  0
VERTEX
  8
LAYER_1
 62
7
 10
18.728548
 20
22.703384
 42
-0.116224
  0
VERTEX
  8
LAYER_1
 62
7
 10
18.733863
 20
23.036182
 42
-0.043112
  0
VERTEX
  8
LAYER_1
 62
7
 10
18.842426
 20
23.359460
  0
VERTEX
  8
LAYER_1
 62
7
 10
18.899616
 20
23.499316
 42
0.031895
  0
VERTEX
  8
LAYER_1
 62
7
 10
18.949513
 20
23.641716
 42
0.063434
  0
VERTEX
  8
LAYER_1
 62
7
 10
18.952706
 20
23.676859
 42
0.176073
  0
VERTEX
  8
LAYER_1
 62
7
 10
18.944085
 20
23.700894
 42
0.211657
  0
VERTEX
  8
LAYER_1
 62
7
 10
18.925325
 20
23.709123
  0
VERTEX
  8
LAYER_1
 62
7
 10
18.898373
 20
23.645951
 42
0.019199
  0
VERTEX
  8
LAYER_1
 62
7
 10
18.724190
 20
23.258722
 42
0.042506
  0
VERTEX
  8
LAYER_1
 62
7
 10
18.596626
 20
22.856266
  0
SEQEND
  0
POLYLINE
  8
LAYER_1
 62
7
 70
1
 66
1
  0
VERTEX
  8
LAYER_1
 62
7
 10
18.050549
 20
6.092286
  0
VERTEX
  8
LAYER_1
 62
7
 10
18.054284
 20
6.054703
  0
VERTEX
  8
LAYER_1
 62
7
 10
18.052569
 20
6.054401
  0
VERTEX
  8
LAYER_1
 62
7
 10
18.048982
 20
6.063992
 42
0.069104
  0
VERTEX
  8
LAYER_1
 62
7
 10
17.880826
 20
6.365058
 42
0.044867
  0
VERTEX
  8
LAYER_1
 62
7
 10
17.761567
 20
6.497407
 42
0.065590
  0
VERTEX
  8
LAYER_1
 62
7
 10
17.625826
 20
6.594525
 42
0.090666
  0
VERTEX
  8
LAYER_1
 62
7
 10
17.528020
 20
6.627726
 42
0.143163
  0
VERTEX
  8
LAYER_1
 62
7
 10
17.463973
 20
6.618847
 42
0.170358
  0
VERTEX
  8
LAYER_1
 62
7
 10
17.427017
 20
6.576717
 42
0.062052
  0
VERTEX
  8
LAYER_1
 62
7
 10
17.406737
 20
6.509470
 42
0.022551
  0
VERTEX
  8
LAYER_1
 62
7
 10
17.392154
 20
6.380814
 42
0.092429
  0
VERTEX
  8
LAYER_1
 62
7
 10
17.393218
 20
6.357841
 42
0.174259
  0
VERTEX
  8
LAYER_1
 62
7
 10
17.406084
 20
6.338783
  0
VERTEX
  8
LAYER_1
 62
7
 10
17.412721
 20
6.336121
 42
-0.042129
  0
VERTEX
  8
LAYER_1
 62
7
 10
17.609100
 20
6.263317
 42
-0.134805
  0
VERTEX
  8
LAYER_1
 62
7
 10
17.673094
 20
6.203112
  0
VERTEX
  8
LAYER_1
 62
7
 10
17.674793
 20
6.203101
 42
0.076775
  0
VERTEX
  8
LAYER_1
 62
7
 10
17.700341
 20
6.277431
  0
VERTEX
  8
LAYER_1
 62
7
 10
17.703285
 20
6.299413
  0
VERTEX
  8
LAYER_1
 62
7
 10
17.723312
 20
6.279786
 42
-0.056981
  0
VERTEX
  8
LAYER_1
 62
7
 10
17.899572
 20
6.052133
 42
-0.036619
  0
VERTEX
  8
LAYER_1
 62
7
 10
18.032623
 20
5.800392
 42
0.112868
  0
VERTEX
  8
LAYER_1
 62
7
 10
18.043824
 20
5.783266
 42
0.138217
  0
VERTEX
  8
LAYER_1
 62
7
 10
18.052173
 20
5.779373
 42
0.133497
  0
VERTEX
  8
LAYER_1
 62
7
 10
18.063071
 20
5.780902
 42
0.075835
  0
VERTEX
  8
LAYER_1
 62
7
 10
18.081695
 20
5.816632
 42
0.038585
  0
VERTEX
  8
LAYER_1
 62
7
 10
18.094802
 20
5.865263
 42
0.036605
  0
VERTEX
  8
LAYER_1
 62
7
 10
18.107660
 20
5.984605
 42
0.033458
  0
VERTEX
  8
LAYER_1
 62
7
 10
18.102314
 20
6.195217
  0
VERTEX
  8
LAYER_1
 62
7
 10
18.092671
 20
6.289819
  0
VERTEX
  8
LAYER_1
 62
7
 10
18.085901
 20
6.384316
 42
-0.048296
  0
VERTEX
  8
LAYER_1
 62
7
 10
18.093586
 20
6.573759
 42
-0.114295
  0
VERTEX
  8
LAYER_1
 62
7
 10
18.120424
 20
6.655046
 42
-0.249898
  0
VERTEX
  8
LAYER_1
 62
7
 10
18.167494
 20
6.681027
 42
-0.080586
  0
VERTEX
  8
LAYER_1
 62
7
 10
18.199728
 20
6.675717
 42
-0.038485
  0
VERTEX
  8
LAYER_1
 62
7
 10
18.235045
 20
6.661325
 42
-0.037458
  0
VERTEX
  8
LAYER_1
 62
7
 10
18.296010
 20
6.624918
 42
-0.056245
  0
VERTEX
  8
LAYER_1
 62
7
 10
18.377704
 20
6.551955
 42
0.107827
  0
VERTEX
  8
LAYER_1
 62
7
 10
18.374750
 20
6.778632
  0
VERTEX
  8
LAYER_1
 62
7
 10
18.373231
 20
6.783573
  0
VERTEX
  8
LAYER_1
 62
7
 10
18.363915
 20
6.792552
 42
0.062278
  0
VERTEX
  8
LAYER_1
 62
7
 10
18.295911
 20
6.844670
 42
0.040968
  0
VERTEX
  8
LAYER_1
 62
7
 10
18.223262
 20
6.883632
  0
VERTEX
  8
LAYER_1
 62
7
 10
18.214585
 20
6.886694
 42
0.157654
  0
VERTEX
  8
LAYER_1
 62
7
 10
18.143836
 20
6.887647
 42
0.151532
  0
VERTEX
  8
LAYER_1
 62
7
 10
18.086016
 20
6.846335
  0
VERTEX
  8
LAYER_1
 62
7
 10
18.074471
 20
6.829517
 42
0.083666
  0
VERTEX
  8
LAYER_1
 62
7
 10
18.034426
 20
6.712865
 42
0.034110
  0
VERTEX
  8
LAYER_1
 62
7
 10
18.019875
 20
6.589868
 42
0.031516
  0
VERTEX
  8
LAYER_1
 62
7
 10
18.026218
 20
6.325503
 42
0.011271
  0
VERTEX
  8
LAYER_1
 62
7
 10
18.050549
 20
6.092286
  0
SEQEND
  0
POLYLINE
  8
LAYER_1
 62
7
 70
1
 66
1
  0
VERTEX
  8
LAYER_1
 62
7
 10
17.437760
 20
7.120198
  0
VERTEX
  8
LAYER_1
 62
7
 10
17.415448
 20
7.019776
  0
VERTEX
  8
LAYER_1
 62
7
 10
17.400938
 20
6.954468
  0
VERTEX
  8
LAYER_1
 62
7
 10
17.406050
 20
6.957020
 42
0.003135
  0
VERTEX
  8
LAYER_1
 62
7
 10
18.397859
 20
7.451108
 42
0.018058
  0
VERTEX
  8
LAYER_1
 62
7
 10
18.449647
 20
7.634450
 42
0.013863
  0
VERTEX
  8
LAYER_1
 62
7
 10
17.441500
 20
7.122121
  0
VERTEX
  8
LAYER_1
 62
7
 10
17.437760
 20
7.120198
  0
SEQEND
  0
POLYLINE
  8
LAYER_1
 62
7
 70
1
 66
1
  0
VERTEX
  8
LAYER_1
 62
7
 10
17.234907
 20
8.777109
  0
VERTEX
  8
LAYER_1
 62
7
 10
17.238642
 20
8.739526
  0
VERTEX
  8
LAYER_1
 62
7
 10
17.236927
 20
8.739224
  0
VERTEX
  8
LAYER_1
 62
7
 10
17.233340
 20
8.748815
 42
0.069104
  0
VERTEX
  8
LAYER_1
 62
7
 10
17.065184
 20
9.049881
 42
0.044867
  0
VERTEX
  8
LAYER_1
 62
7
 10
16.945924
 20
9.182230
 42
0.065590
  0
VERTEX
  8
LAYER_1
 62
7
 10
16.810183
 20
9.279348
 42
0.090666
  0
VERTEX
  8
LAYER_1
 62
7
 10
16.712377
 20
9.312548
 42
0.143163
  0
VERTEX
  8
LAYER_1
 62
7
 10
16.648331
 20
9.303670
 42
0.170358
  0
VERTEX
  8
LAYER_1
 62
7
 10
16.611374
 20
9.261540
 42
0.062052
  0
VERTEX
  8
LAYER_1
 62
7
 10
16.591095
 20
9.194293
 42
0.022551
  0
VERTEX
  8
LAYER_1
 62
7
 10
16.576512
 20
9.065637
 42
0.092429
  0
VERTEX
  8
LAYER_1
 62
7
 10
16.577576
 20
9.042664
 42
0.174259
  0
VERTEX
  8
LAYER_1
 62
7
 10
16.590442
 20
9.023606
  0
VERTEX
  8
LAYER_1
 62
7
 10
16.597079
 20
9.020944
 42
-0.042129
  0
VERTEX
  8
LAYER_1
 62
7
 10
16.793458
 20
8.948140
 42
-0.134805
  0
VERTEX
  8
LAYER_1
 62
7
 10
16.857451
 20
8.887935
  0
VERTEX
  8
LAYER_1
 62
7
 10
16.859151
 20
8.887924
 42
0.076775
  0
VERTEX
  8
LAYER_1
 62
7
 10
16.884698
 20
8.962254
  0
VERTEX
  8
LAYER_1
 62
7
 10
16.887643
 20
8.984236
  0
VERTEX
  8
LAYER_1
 62
7
 10
16.907669
 20
8.964609
 42
-0.056981
  0
VERTEX
  8
LAYER_1
 62
7
 10
17.083929
 20
8.736956
 42
-0.036619
  0
VERTEX
  8
LAYER_1
 62
7
 10
17.216981
 20
8.485215
 42
0.112868
  0
VERTEX
  8
LAYER_1
 62
7
 10
17.228182
 20
8.468089
 42
0.138217
  0
VERTEX
  8
LAYER_1
 62
7
 10
17.236531
 20
8.464196
 42
0.133497
  0
VERTEX
  8
LAYER_1
 62
7
 10
17.247428
 20
8.465725
 42
0.075835
  0
VERTEX
  8
LAYER_1
 62
7
 10
17.266052
 20
8.501455
 42
0.038585
  0
VERTEX
  8
LAYER_1
 62
7
 10
17.279160
 20
8.550086
 42
0.036605
  0
VERTEX
  8
LAYER_1
 62
7
 10
17.292018
 20
8.669428
 42
0.033458
  0
VERTEX
  8
LAYER_1
 62
7
 10
17.286671
 20
8.880040
  0
VERTEX
  8
LAYER_1
 62
7
 10
17.277029
 20
8.974642
  0
VERTEX
  8
LAYER_1
 62
7
 10
17.270259
 20
9.069139
 42
-0.048296
  0
VERTEX
  8
LAYER_1
 62
7
 10
17.277944
 20
9.258582
 42
-0.114295
  0
VERTEX
  8
LAYER_1
 62
7
 10
17.304781
 20
9.339869
 42
-0.249898
  0
VERTEX
  8
LAYER_1
 62
7
 10
17.351851
 20
9.365850
 42
-0.080586
  0
VERTEX
  8
LAYER_1
 62
7
 10
17.384085
 20
9.360540
 42
-0.038485
  0
VERTEX
  8
LAYER_1
 62
7
 10
17.419403
 20
9.346148
 42
-0.037458
  0
VERTEX
  8
LAYER_1
 62
7
 10
17.480367
 20
9.309741
 42
-0.056245
  0
VERTEX
  8
LAYER_1
 62
7
 10
17.562062
 20
9.236778
 42
0.107827
  0
VERTEX
  8
LAYER_1
 62
7
 10
17.559108
 20
9.463455
  0
VERTEX
  8
LAYER_1
 62
7
 10
17.557589
 20
9.468396
  0
VERTEX
  8
LAYER_1
 62
7
 10
17.548272
 20
9.477375
 42
0.062278
  0
VERTEX
  8
LAYER_1
 62
7
 10
17.480269
 20
9.529493
 42
0.040968
  0
VERTEX
  8
LAYER_1
 62
7
 10
17.407620
 20
9.568455
  0
VERTEX
  8
LAYER_1
 62
7
 10
17.398942
 20
9.571517
 42
0.157654
  0
VERTEX
  8
LAYER_1
 62
7
 10
17.328194
 20
9.572470
 42
0.151532
  0
VERTEX
  8
LAYER_1
 62
7
 10
17.270373
 20
9.531158
  0
VERTEX
  8
LAYER_1
 62
7
 10
17.258829
 20
9.514340
 42
0.083666
  0
VERTEX
  8
LAYER_1
 62
7
 10
17.218783
 20
9.397688
 42
0.034110
  0
VERTEX
  8
LAYER_1
 62
7
 10
17.204233
 20
9.274690
 42
0.031516
  0
VERTEX
  8
LAYER_1
 62
7
 10
17.210576
 20
9.010326
 42
0.011271
  0
VERTEX
  8
LAYER_1
 62
7
 10
17.234907
 20
8.777109
  0
SEQEND
  0
POLYLINE
  8
LAYER_1
 62
7
 70
1
 66
1
  0
VERTEX
  8
LAYER_1
 62
7
 10
22.785807
 20
3.905911
  0
VERTEX
  8
LAYER_1
 62
7
 10
22.789542
 20
3.868329
  0
VERTEX
  8
LAYER_1
 62
7
 10
22.787827
 20
3.868026
  0
VERTEX
  8
LAYER_1
 62
7
 10
22.784240
 20
3.877617
 42
0.069104
  0
VERTEX
  8
LAYER_1
 62
7
 10
22.616084
 20
4.178684
 42
0.044867
  0
VERTEX
  8
LAYER_1
 62
7
 10
22.496824
 20
4.311032
 42
0.065590
  0
VERTEX
  8
LAYER_1
 62
7
 10
22.361083
 20
4.408150
 42
0.090666
  0
VERTEX
  8
LAYER_1
 62
7
 10
22.263277
 20
4.441351
 42
0.143163
  0
VERTEX
  8
LAYER_1
 62
7
 10
22.199231
 20
4.432473
 42
0.170358
  0
VERTEX
  8
LAYER_1
 62
7
 10
22.162274
 20
4.390342
 42
0.062052
  0
VERTEX
  8
LAYER_1
 62
7
 10
22.141995
 20
4.323095
 42
0.022551
  0
VERTEX
  8
LAYER_1
 62
7
 10
22.127412
 20
4.194439
 42
0.092429
  0
VERTEX
  8
LAYER_1
 62
7
 10
22.128475
 20
4.171466
 42
0.174259
  0
VERTEX
  8
LAYER_1
 62
7
 10
22.141342
 20
4.152408
  0
VERTEX
  8
LAYER_1
 62
7
 10
22.147979
 20
4.149746
 42
-0.042129
  0
VERTEX
  8
LAYER_1
 62
7
 10
22.344357
 20
4.076942
 42
-0.134805
  0
VERTEX
  8
LAYER_1
 62
7
 10
22.408351
 20
4.016737
  0
VERTEX
  8
LAYER_1
 62
7
 10
22.410050
 20
4.016727
 42
0.076775
  0
VERTEX
  8
LAYER_1
 62
7
 10
22.435598
 20
4.091056
  0
VERTEX
  8
LAYER_1
 62
7
 10
22.438543
 20
4.113038
  0
VERTEX
  8
LAYER_1
 62
7
 10
22.458569
 20
4.093411
 42
-0.056981
  0
VERTEX
  8
LAYER_1
 62
7
 10
22.634829
 20
3.865759
 42
-0.036619
  0
VERTEX
  8
LAYER_1
 62
7
 10
22.767881
 20
3.614017
 42
0.112868
  0
VERTEX
  8
LAYER_1
 62
7
 10
22.779081
 20
3.596891
 42
0.138217
  0
VERTEX
  8
LAYER_1
 62
7
 10
22.787431
 20
3.592998
 42
0.133497
  0
VERTEX
  8
LAYER_1
 62
7
 10
22.798328
 20
3.594527
 42
0.075835
  0
VERTEX
  8
LAYER_1
 62
7
 10
22.816952
 20
3.630257
 42
0.038585
  0
VERTEX
  8
LAYER_1
 62
7
 10
22.830059
 20
3.678888
 42
0.036605
  0
VERTEX
  8
LAYER_1
 62
7
 10
22.842918
 20
3.798230
 42
0.033458
  0
VERTEX
  8
LAYER_1
 62
7
 10
22.837571
 20
4.008842
  0
VERTEX
  8
LAYER_1
 62
7
 10
22.827928
 20
4.103444
  0
VERTEX
  8
LAYER_1
 62
7
 10
22.821159
 20
4.197941
 42
-0.048296
  0
VERTEX
  8
LAYER_1
 62
7
 10
22.828843
 20
4.387385
 42
-0.114295
  0
VERTEX
  8
LAYER_1
 62
7
 10
22.855681
 20
4.468672
 42
-0.249898
  0
VERTEX
  8
LAYER_1
 62
7
 10
22.902751
 20
4.494652
 42
-0.080586
  0
VERTEX
  8
LAYER_1
 62
7
 10
22.934985
 20
4.489343
 42
-0.038485
  0
VERTEX
  8
LAYER_1
 62
7
 10
22.970303
 20
4.474950
 42
-0.037458
  0
VERTEX
  8
LAYER_1
 62
7
 10
23.031267
 20
4.438543
 42
-0.056245
  0
VERTEX
  8
LAYER_1
 62
7
 10
23.112962
 20
4.365580
 42
0.107827
  0
VERTEX
  8
LAYER_1
 62
7
 10
23.110008
 20
4.592258
  0
VERTEX
  8
LAYER_1
 62
7
 10
23.108489
 20
4.597198
  0
VERTEX
  8
LAYER_1
 62
7
 10
23.099172
 20
4.606177
 42
0.062278
  0
VERTEX
  8
LAYER_1
 62
7
 10
23.031169
 20
4.658295
 42
0.040968
  0
VERTEX
  8
LAYER_1
 62
7
 10
22.958520
 20
4.697257
  0
VERTEX
  8
LAYER_1
 62
7
 10
22.949842
 20
4.700320
 42
0.157654
  0
VERTEX
  8
LAYER_1
 62
7
 10
22.879093
 20
4.701272
 42
0.151532
  0
VERTEX
  8
LAYER_1
 62
7
 10
22.821273
 20
4.659960
  0
VERTEX
  8
LAYER_1
 62
7
 10
22.809729
 20
4.643142
 42
0.083666
  0
VERTEX
  8
LAYER_1
 62
7
 10
22.769683
 20
4.526490
 42
0.034110
  0
VERTEX
  8
LAYER_1
 62
7
 10
22.755132
 20
4.403493
 42
0.031516
  0
VERTEX
  8
LAYER_1
 62
7
 10
22.761476
 20
4.139128
 42
0.011271
  0
VERTEX
  8
LAYER_1
 62
7
 10
22.785807
 20
3.905911
  0
SEQEND
  0
POLYLINE
  8
LAYER_1
 62
7
 70
1
 66
1
  0
VERTEX
  8
LAYER_1
 62
7
 10
27.757902
 20
4.729913
  0
VERTEX
  8
LAYER_1
 62
7
 10
27.735590
 20
4.629491
  0
VERTEX
  8
LAYER_1
 62
7
 10
27.721080
 20
4.564183
  0
VERTEX
  8
LAYER_1
 62
7
 10
27.726192
 20
4.566735
 42
0.003135
  0
VERTEX
  8
LAYER_1
 62
7
 10
28.718001
 20
5.060823
 42
0.018058
  0
VERTEX
  8
LAYER_1
 62
7
 10
28.769789
 20
5.244164
 42
0.013863
  0
VERTEX
  8
LAYER_1
 62
7
 10
27.761642
 20
4.731836
  0
VERTEX
  8
LAYER_1
 62
7
 10
27.757902
 20
4.729913
  0
SEQEND
  0
POLYLINE
  8
LAYER_1
 62
7
 70
1
 66
1
  0
VERTEX
  8
LAYER_1
 62
7
 10
23.725004
 20
9.204617
  0
VERTEX
  8
LAYER_1
 62
7
 10
23.702692
 20
9.104196
  0
VERTEX
  8
LAYER_1
 62
7
 10
23.688182
 20
9.038888
  0
VERTEX
  8
LAYER_1
 62
7
 10
23.693294
 20
9.041440
 42
0.003135
  0
VERTEX
  8
LAYER_1
 62
7
 10
24.685103
 20
9.535527
 42
0.018058
  0
VERTEX
  8
LAYER_1
 62
7
 10
24.736891
 20
9.718869
 42
0.013863
  0
VERTEX
  8
LAYER_1
 62
7
 10
23.728744
 20
9.206541
  0
VERTEX
  8
LAYER_1
 62
7
 10
23.725004
 20
9.204617
  0
SEQEND
  0
POLYLINE
  8
LAYER_1
 62
7
 70
1
 66
1
  0
VERTEX
  8
LAYER_1
 62
7
 10
16.798262
 20
19.171233
  0
VERTEX
  8
LAYER_1
 62
7
 10
16.949620
 20
19.255782
  0
VERTEX
  8
LAYER_1
 62
7
 10
17.055377
 20
19.314600
 42
0.013282
  0
VERTEX
  8
LAYER_1
 62
7
 10
17.348041
 20
19.486505
 42
0.027913
  0
VERTEX
  8
LAYER_1
 62
7
 10
17.696945
 20
19.737392
 42
0.019766
  0
VERTEX
  8
LAYER_1
 62
7
 10
18.051764
 20
20.045841
 42
0.041367
  0
VERTEX
  8
LAYER_1
 62
7
 10
18.643745
 20
20.692358
  0
VERTEX
  8
LAYER_1
 62
7
 10
18.773510
 20
20.874127
  0
VERTEX
  8
LAYER_1
 62
7
 10
18.840886
 20
20.867968
  0
VERTEX
  8
LAYER_1
 62
7
 10
18.908123
 20
20.859463
 42
0.045721
  0
VERTEX
  8
LAYER_1
 62
7
 10
19.043129
 20
20.852450
  0
VERTEX
  8
LAYER_1
 62
7
 10
19.093473
 20
20.859579
 42
0.118089
  0
VERTEX
  8
LAYER_1
 62
7
 10
19.138905
 20
20.881017
 42
0.116057
  0
VERTEX
  8
LAYER_1
 62
7
 10
19.166267
 20
20.920615
 42
0.049381
  0
VERTEX
  8
LAYER_1
 62
7
 10
19.179577
 20
20.967356
 42
0.197686
  0
VERTEX
  8
LAYER_1
 62
7
 10
19.102102
 20
21.360686
 42
0.076286
  0
VERTEX
  8
LAYER_1
 62
7
 10
18.899170
 20
21.556364
 42
0.076273
  0
VERTEX
  8
LAYER_1
 62
7
 10
18.667073
 20
21.689180
 42
0.105760
  0
VERTEX
  8
LAYER_1
 62
7
 10
18.502318
 20
21.718932
 42
0.123142
  0
VERTEX
  8
LAYER_1
 62
7
 10
18.466926
 20
21.707865
 42
0.216049
  0
VERTEX
  8
LAYER_1
 62
7
 10
18.446230
 20
21.678315
 42
0.078505
  0
VERTEX
  8
LAYER_1
 62
7
 10
18.447431
 20
21.594498
 42
-0.049666
  0
VERTEX
  8
LAYER_1
 62
7
 10
18.453421
 20
21.510458
 42
-0.068909
  0
VERTEX
  8
LAYER_1
 62
7
 10
18.440236
 20
21.467754
  0
VERTEX
  8
LAYER_1
 62
7
 10
18.420997
 20
21.427095
 42
0.096594
  0
VERTEX
  8
LAYER_1
 62
7
 10
18.365483
 20
21.195185
 42
0.085213
  0
VERTEX
  8
LAYER_1
 62
7
 10
18.383925
 20
21.062171
 42
0.142227
  0
VERTEX
  8
LAYER_1
 62
7
 10
18.456888
 20
20.951411
 42
0.105567
  0
VERTEX
  8
LAYER_1
 62
7
 10
18.569814
 20
20.906359
  0
VERTEX
  8
LAYER_1
 62
7
 10
18.690707
 20
20.883490
 42
-0.031183
  0
VERTEX
  8
LAYER_1
 62
7
 10
18.601042
 20
20.766222
 42
-0.025621
  0
VERTEX
  8
LAYER_1
 62
7
 10
18.256154
 20
20.401696
 42
-0.033521
  0
VERTEX
  8
LAYER_1
 62
7
 10
16.966020
 20
19.323486
  0
VERTEX
  8
LAYER_1
 62
7
 10
16.841288
 20
19.234230
  0
VERTEX
  8
LAYER_1
 62
7
 10
16.678191
 20
19.115982
  0
VERTEX
  8
LAYER_1
 62
7
 10
16.677253
 20
19.101703
 42
0.018621
  0
VERTEX
  8
LAYER_1
 62
7
 10
16.659119
 20
18.484171
 42
0.032441
  0
VERTEX
  8
LAYER_1
 62
7
 10
16.710565
 20
17.744753
 42
0.026164
  0
VERTEX
  8
LAYER_1
 62
7
 10
16.780979
 20
17.379015
 42
0.037729
  0
VERTEX
  8
LAYER_1
 62
7
 10
16.891108
 20
17.042420
 42
0.055641
  0
VERTEX
  8
LAYER_1
 62
7
 10
17.048391
 20
16.754838
 42
0.079428
  0
VERTEX
  8
LAYER_1
 62
7
 10
17.260268
 20
16.536142
 42
0.105778
  0
VERTEX
  8
LAYER_1
 62
7
 10
17.536634
 20
16.410319
 42
0.152239
  0
VERTEX
  8
LAYER_1
 62
7
 10
17.723597
 20
16.423819
 42
0.130291
  0
VERTEX
  8
LAYER_1
 62
7
 10
17.906397
 20
16.567902
 42
0.047552
  0
VERTEX
  8
LAYER_1
 62
7
 10
18.033168
 20
16.764042
 42
0.028690
  0
VERTEX
  8
LAYER_1
 62
7
 10
18.133343
 20
16.984953
 42
0.033140
  0
VERTEX
  8
LAYER_1
 62
7
 10
18.255532
 20
17.376536
 42
0.021879
  0
VERTEX
  8
LAYER_1
 62
7
 10
18.359118
 20
17.942719
 42
-0.008568
  0
VERTEX
  8
LAYER_1
 62
7
 10
18.447947
 20
18.512938
 42
-0.039906
  0
VERTEX
  8
LAYER_1
 62
7
 10
18.589298
 20
19.064550
 42
-0.070017
  0
VERTEX
  8
LAYER_1
 62
7
 10
18.850449
 20
19.574910
 42
-0.019473
  0
VERTEX
  8
LAYER_1
 62
7
 10
18.805764
 20
19.088717
  0
VERTEX
  8
LAYER_1
 62
7
 10
18.784780
 20
18.925565
 42
0.023945
  0
VERTEX
  8
LAYER_1
 62
7
 10
18.721307
 20
18.271881
 42
0.044920
  0
VERTEX
  8
LAYER_1
 62
7
 10
18.748819
 20
17.770782
 42
0.059402
  0
VERTEX
  8
LAYER_1
 62
7
 10
18.879393
 20
17.279641
 42
0.084123
  0
VERTEX
  8
LAYER_1
 62
7
 10
19.136568
 20
16.854623
 42
0.107073
  0
VERTEX
  8
LAYER_1
 62
7
 10
19.543883
 20
16.551894
 42
0.108974
  0
VERTEX
  8
LAYER_1
 62
7
 10
19.993574
 20
16.454115
 42
-0.006286
  0
VERTEX
  8
LAYER_1
 62
7
 10
20.099903
 20
15.082917
 42
-0.013516
  0
VERTEX
  8
LAYER_1
 62
7
 10
20.152107
 20
13.704880
 42
0.082535
  0
VERTEX
  8
LAYER_1
 62
7
 10
20.168191
 20
13.655627
 42
0.084889
  0
VERTEX
  8
LAYER_1
 62
7
 10
20.178449
 20
13.642861
 42
0.121788
  0
VERTEX
  8
LAYER_1
 62
7
 10
20.189826
 20
13.636981
 42
0.198560
  0
VERTEX
  8
LAYER_1
 62
7
 10
20.214863
 20
13.642810
 42
0.078284
  0
VERTEX
  8
LAYER_1
 62
7
 10
20.241154
 20
13.666982
 42
0.107351
  0
VERTEX
  8
LAYER_1
 62
7
 10
20.315898
 20
13.824443
 42
0.047724
  0
VERTEX
  8
LAYER_1
 62
7
 10
20.452352
 20
14.516319
 42
0.028089
  0
VERTEX
  8
LAYER_1
 62
7
 10
20.482375
 20
15.220811
 42
0.008423
  0
VERTEX
  8
LAYER_1
 62
7
 10
20.460968
 20
15.929889
 42
-0.010934
  0
VERTEX
  8
LAYER_1
 62
7
 10
20.443130
 20
16.635524
 42
0.073137
  0
VERTEX
  8
LAYER_1
 62
7
 10
20.754920
 20
16.974181
 42
0.057574
  0
VERTEX
  8
LAYER_1
 62
7
 10
20.966045
 20
17.378567
 42
0.041490
  0
VERTEX
  8
LAYER_1
 62
7
 10
21.095314
 20
17.821625
 42
0.028735
  0
VERTEX
  8
LAYER_1
 62
7
 10
21.161534
 20
18.276296
 42
0.074318
  0
VERTEX
  8
LAYER_1
 62
7
 10
21.338616
 20
17.709467
 42
0.084568
  0
VERTEX
  8
LAYER_1
 62
7
 10
21.684489
 20
17.213706
 42
0.056962
  0
VERTEX
  8
LAYER_1
 62
7
 10
21.911974
 20
17.032729
 42
0.070454
  0
VERTEX
  8
LAYER_1
 62
7
 10
22.171157
 20
16.917821
 42
0.161589
  0
VERTEX
  8
LAYER_1
 62
7
 10
22.770625
 20
16.950621
 42
0.119429
  0
VERTEX
  8
LAYER_1
 62
7
 10
23.175798
 20
17.371894
 42
0.096516
  0
VERTEX
  8
LAYER_1
 62
7
 10
23.361793
 20
17.917622
 42
0.073306
  0
VERTEX
  8
LAYER_1
 62
7
 10
23.357439
 20
18.517176
 42
0.064267
  0
VERTEX
  8
LAYER_1
 62
7
 10
23.191564
 20
19.099924
 42
-0.006432
  0
VERTEX
  8
LAYER_1
 62
7
 10
22.726085
 20
20.203051
  0
VERTEX
  8
LAYER_1
 62
7
 10
22.724131
 20
20.211049
  0
VERTEX
  8
LAYER_1
 62
7
 10
22.922890
 20
20.122237
 42
-0.021322
  0
VERTEX
  8
LAYER_1
 62
7
 10
23.005131
 20
20.080541
 42
0.048685
  0
VERTEX
  8
LAYER_1
 62
7
 10
22.874022
 20
20.409556
 42
0.027190
  0
VERTEX
  8
LAYER_1
 62
7
 10
22.692666
 20
20.718499
  0
VERTEX
  8
LAYER_1
 62
7
 10
22.592020
 20
20.868267
  0
VERTEX
  8
LAYER_1
 62
7
 10
22.489462
 20
21.016404
 42
-0.013141
  0
VERTEX
  8
LAYER_1
 62
7
 10
22.292809
 20
21.312305
  0
VERTEX
  8
LAYER_1
 62
7
 10
22.231237
 20
21.109649
  0
VERTEX
  8
LAYER_1
 62
7
 10
22.083617
 20
20.628116
  0
VERTEX
  8
LAYER_1
 62
7
 10
22.187999
 20
20.434429
  0
VERTEX
  8
LAYER_1
 62
7
 10
22.240792
 20
20.336468
  0
VERTEX
  8
LAYER_1
 62
7
 10
22.500852
 20
19.617683
 42
0.001723
  0
VERTEX
  8
LAYER_1
 62
7
 10
23.114130
 20
17.940897
 42
-0.128507
  0
VERTEX
  8
LAYER_1
 62
7
 10
22.952212
 20
17.759461
 42
-0.088404
  0
VERTEX
  8
LAYER_1
 62
7
 10
22.723698
 20
17.661482
 42
-0.100618
  0
VERTEX
  8
LAYER_1
 62
7
 10
22.220259
 20
17.650719
 42
-0.113313
  0
VERTEX
  8
LAYER_1
 62
7
 10
21.883061
 20
17.840368
 42
-0.085367
  0
VERTEX
  8
LAYER_1
 62
7
 10
21.650376
 20
18.143066
 42
-0.056773
  0
VERTEX
  8
LAYER_1
 62
7
 10
21.506415
 20
18.509148
 42
-0.040052
  0
VERTEX
  8
LAYER_1
 62
7
 10
21.435388
 20
18.888947
  0
VERTEX
  8
LAYER_1
 62
7
 10
21.361536
 20
19.469914
 42
0.016776
  0
VERTEX
  8
LAYER_1
 62
7
 10
21.266478
 20
20.058047
 42
0.035107
  0
VERTEX
  8
LAYER_1
 62
7
 10
21.113990
 20
20.624414
 42
0.056411
  0
VERTEX
  8
LAYER_1
 62
7
 10
20.867849
 20
21.140087
  0
VERTEX
  8
LAYER_1
 62
7
 10
20.785102
 20
20.904544
 42
0.021723
  0
VERTEX
  8
LAYER_1
 62
7
 10
20.709907
 20
20.664412
  0
VERTEX
  8
LAYER_1
 62
7
 10
20.647978
 20
20.422654
  0
VERTEX
  8
LAYER_1
 62
7
 10
20.747332
 20
20.029195
  0
VERTEX
  8
LAYER_1
 62
7
 10
20.831809
 20
19.689589
 42
-0.010943
  0
VERTEX
  8
LAYER_1
 62
7
 10
20.910226
 20
19.331438
 42
-0.047974
  0
VERTEX
  8
LAYER_1
 62
7
 10
20.989633
 20
18.599616
 42
-0.041614
  0
VERTEX
  8
LAYER_1
 62
7
 10
20.960998
 20
18.246002
 42
-0.055934
  0
VERTEX
  8
LAYER_1
 62
7
 10
20.867054
 20
17.913956
 42
-0.140705
  0
VERTEX
  8
LAYER_1
 62
7
 10
20.423994
 20
17.354685
 42
-0.004065
  0
VERTEX
  8
LAYER_1
 62
7
 10
20.226086
 20
19.902052
 42
0.001741
  0
VERTEX
  8
LAYER_1
 62
7
 10
20.039986
 20
22.450721
 42
0.005032
  0
VERTEX
  8
LAYER_1
 62
7
 10
19.889660
 20
24.147400
 42
-0.050988
  0
VERTEX
  8
LAYER_1
 62
7
 10
20.051257
 20
23.946581
  0
VERTEX
  8
LAYER_1
 62
7
 10
20.126345
 20
23.841552
 42
0.034413
  0
VERTEX
  8
LAYER_1
 62
7
 10
20.210526
 20
23.743718
 42
0.075452
  0
VERTEX
  8
LAYER_1
 62
7
 10
20.161421
 20
24.262822
 42
0.037513
  0
VERTEX
  8
LAYER_1
 62
7
 10
19.993090
 20
24.770508
 42
0.003315
  0
VERTEX
  8
LAYER_1
 62
7
 10
19.780503
 20
25.272681
 42
-0.030534
  0
VERTEX
  8
LAYER_1
 62
7
 10
19.598634
 20
25.775245
 42
-0.037491
  0
VERTEX
  8
LAYER_1
 62
7
 10
19.521133
 20
25.545259
 42
0.011117
  0
VERTEX
  8
LAYER_1
 62
7
 10
19.429987
 20
25.314292
 42
0.062493
  0
VERTEX
  8
LAYER_1
 62
7
 10
19.374851
 20
25.080818
 42
0.113818
  0
VERTEX
  8
LAYER_1
 62
7
 10
19.405380
 20
24.843310
 42
-0.002065
  0
VERTEX
  8
LAYER_1
 62
7
 10
19.694756
 20
20.996755
 42
0.004798
  0
VERTEX
  8
LAYER_1
 62
7
 10
20.005043
 20
17.153002
 42
-0.127385
  0
VERTEX
  8
LAYER_1
 62
7
 10
19.562432
 20
17.273075
 42
-0.118790
  0
VERTEX
  8
LAYER_1
 62
7
 10
19.225896
 20
17.584368
 42
-0.088621
  0
VERTEX
  8
LAYER_1
 62
7
 10
19.080585
 20
17.938969
 42
-0.050472
  0
VERTEX
  8
LAYER_1
 62
7
 10
19.032605
 20
18.348475
 42
-0.027774
  0
VERTEX
  8
LAYER_1
 62
7
 10
19.047588
 20
18.765344
 42
-0.012340
  0
VERTEX
  8
LAYER_1
 62
7
 10
19.091166
 20
19.142032
 42
0.008086
  0
VERTEX
  8
LAYER_1
 62
7
 10
19.131806
 20
19.466724
 42
0.024556
  0
VERTEX
  8
LAYER_1
 62
7
 10
19.151010
 20
19.788330
 42
0.041950
  0
VERTEX
  8
LAYER_1
 62
7
 10
19.127761
 20
20.104879
 42
0.057088
  0
VERTEX
  8
LAYER_1
 62
7
 10
19.041045
 20
20.414400
 42
0.074099
  0
VERTEX
  8
LAYER_1
 62
7
 10
18.684306
 20
20.056650
 42
0.059548
  0
VERTEX
  8
LAYER_1
 62
7
 10
18.444607
 20
19.630636
 42
0.038624
  0
VERTEX
  8
LAYER_1
 62
7
 10
18.289738
 20
19.156786
 42
0.019166
  0
VERTEX
  8
LAYER_1
 62
7
 10
18.187493
 20
18.655523
  0
VERTEX
  8
LAYER_1
 62
7
 10
18.134886
 20
18.317456
 42
-0.010036
  0
VERTEX
  8
LAYER_1
 62
7
 10
18.056416
 20
17.865457
 42
-0.026068
  0
VERTEX
  8
LAYER_1
 62
7
 10
17.948289
 20
17.422728
 42
-0.029116
  0
VERTEX
  8
LAYER_1
 62
7
 10
17.881919
 20
17.243340
 42
-0.059745
  0
VERTEX
  8
LAYER_1
 62
7
 10
17.806713
 20
17.112472
 42
-0.125161
  0
VERTEX
  8
LAYER_1
 62
7
 10
17.604719
 20
16.948040
 42
-0.233985
  0
VERTEX
  8
LAYER_1
 62
7
 10
17.368686
 20
16.956323
 42
-0.072208
  0
VERTEX
  8
LAYER_1
 62
7
 10
17.236423
 20
17.054942
 42
-0.051213
  0
VERTEX
  8
LAYER_1
 62
7
 10
17.124201
 20
17.192405
 42
-0.061091
  0
VERTEX
  8
LAYER_1
 62
7
 10
16.955034
 20
17.542349
 42
-0.060887
  0
VERTEX
  8
LAYER_1
 62
7
 10
16.803887
 20
18.251717
 42
-0.019201
  0
VERTEX
  8
LAYER_1
 62
7
 10
16.788239
 20
18.634506
 42
-0.008635
  0
VERTEX
  8
LAYER_1
 62
7
 10
16.793752
 20
19.012846
  0
VERTEX
  8
LAYER_1
 62
7
 10
16.798262
 20
19.171233
  0
SEQEND
  0
POLYLINE
  8
LAYER_1
 62
7
 70
1
 66
1
  0
VERTEX
  8
LAYER_1
 62
7
 10
18.512863
 20
21.309895
 42
-0.050853
  0
VERTEX
  8
LAYER_1
 62
7
 10
18.566929
 20
21.348342
 42
-0.120774
  0
VERTEX
  8
LAYER_1
 62
7
 10
18.629947
 20
21.366473
 42
-0.272489
  0
VERTEX
  8
LAYER_1
 62
7
 10
18.768227
 20
21.276027
 42
-0.039219
  0
VERTEX
  8
LAYER_1
 62
7
 10
18.799581
 20
21.196817
 42
-0.141682
  0
VERTEX
  8
LAYER_1
 62
7
 10
18.801290
 20
21.113143
 42
-0.034255
  0
VERTEX
  8
LAYER_1
 62
7
 10
18.570414
 20
21.143105
 42
-0.115682
  0
VERTEX
  8
LAYER_1
 62
7
 10
18.459848
 20
21.189723
 42
-0.087581
  0
VERTEX
  8
LAYER_1
 62
7
 10
18.446627
 20
21.204942
 42
-0.230134
  0
VERTEX
  8
LAYER_1
 62
7
 10
18.444517
 20
21.224108
 42
-0.090999
  0
VERTEX
  8
LAYER_1
 62
7
 10
18.473362
 20
21.270944
 42
-0.030398
  0
VERTEX
  8
LAYER_1
 62
7
 10
18.512863
 20
21.309895
  0
SEQEND
  0
POLYLINE
  8
LAYER_1
 62
7
 70
1
 66
1
  0
VERTEX
  8
LAYER_1
 62
7
 10
18.861018
 20
21.101772
 42
-0.018992
  0
VERTEX
  8
LAYER_1
 62
7
 10
18.875387
 20
21.342739
 42
-0.087060
  0
VERTEX
  8
LAYER_1
 62
7
 10
19.108579
 20
21.122517
  0
VERTEX
  8
LAYER_1
 62
7
 10
19.080693
 20
21.100256
 42
-0.125820
  0
VERTEX
  8
LAYER_1
 62
7
 10
19.048106
 20
21.086827
 42
-0.069767
  0
VERTEX
  8
LAYER_1
 62
7
 10
18.954076
 20
21.086134
  0
VERTEX
  8
LAYER_1
 62
7
 10
18.861018
 20
21.101772
  0
SEQEND
  0
POLYLINE
  8
LAYER_1
 62
7
 70
1
 66
1
  0
VERTEX
  8
LAYER_1
 62
7
 10
21.461929
 20
6.186105
 42
-0.046835
  0
VERTEX
  8
LAYER_1
 62
7
 10
21.544044
 20
6.314431
 42
-0.209670
  0
VERTEX
  8
LAYER_1
 62
7
 10
21.671765
 20
6.385977
 42
-0.204197
  0
VERTEX
  8
LAYER_1
 62
7
 10
21.780670
 20
6.352374
 42
-0.091524
  0
VERTEX
  8
LAYER_1
 62
7
 10
21.856448
 20
6.262489
 42
-0.074100
  0
VERTEX
  8
LAYER_1
 62
7
 10
21.926850
 20
6.083441
 42
-0.138229
  0
VERTEX
  8
LAYER_1
 62
7
 10
21.918748
 20
5.893830
 42
-0.032094
  0
VERTEX
  8
LAYER_1
 62
7
 10
21.902097
 20
5.850504
 42
-0.111403
  0
VERTEX
  8
LAYER_1
 62
7
 10
21.888063
 20
5.833652
 42
-0.162458
  0
VERTEX
  8
LAYER_1
 62
7
 10
21.865987
 20
5.826903
 42
-0.098006
  0
VERTEX
  8
LAYER_1
 62
7
 10
21.605672
 20
5.839101
 42
-0.173363
  0
VERTEX
  8
LAYER_1
 62
7
 10
21.390984
 20
5.977942
 42
0.006380
  0
VERTEX
  8
LAYER_1
 62
7
 10
21.342691
 20
5.817725
 42
-0.093393
  0
VERTEX
  8
LAYER_1
 62
7
 10
21.268232
 20
5.669442
 42
-0.038236
  0
VERTEX
  8
LAYER_1
 62
7
 10
21.065673
 20
5.453951
  0
VERTEX
  8
LAYER_1
 62
7
 10
20.955425
 20
5.355027
  0
VERTEX
  8
LAYER_1
 62
7
 10
20.843655
 20
5.258186
 42
-0.014546
  0
VERTEX
  8
LAYER_1
 62
7
 10
20.535643
 20
5.023126
 42
-0.037561
  0
VERTEX
  8
LAYER_1
 62
7
 10
20.205303
 20
4.821577
 42
-0.013988
  0
VERTEX
  8
LAYER_1
 62
7
 10
19.827126
 20
4.670304
  0
VERTEX
  8
LAYER_1
 62
7
 10
19.444606
 20
4.530657
 42
-0.076433
  0
VERTEX
  8
LAYER_1
 62
7
 10
19.535662
 20
4.602197
  0
VERTEX
  8
LAYER_1
 62
7
 10
19.637892
 20
4.657904
 42
0.039012
  0
VERTEX
  8
LAYER_1
 62
7
 10
20.863162
 20
5.488447
 42
0.013385
  0
VERTEX
  8
LAYER_1
 62
7
 10
21.082222
 20
5.677550
 42
0.045281
  0
VERTEX
  8
LAYER_1
 62
7
 10
21.277223
 20
5.890409
 42
0.082068
  0
VERTEX
  8
LAYER_1
 62
7
 10
21.349825
 20
6.033173
  0
VERTEX
  8
LAYER_1
 62
7
 10
21.396294
 20
6.187505
  0
VERTEX
  8
LAYER_1
 62
7
 10
21.461929
 20
6.186105
  0
SEQEND
  0
POLYLINE
  8
LAYER_1
 62
7
 70
1
 66
1
  0
VERTEX
  8
LAYER_1
 62
7
 10
21.508645
 20
6.108178
 42
0.137163
  0
VERTEX
  8
LAYER_1
 62
7
 10
21.759610
 20
6.023739
 42
0.079139
  0
VERTEX
  8
LAYER_1
 62
7
 10
21.720141
 20
6.118062
 42
0.177356
  0
VERTEX
  8
LAYER_1
 62
7
 10
21.641745
 20
6.180163
 42
0.187997
  0
VERTEX
  8
LAYER_1
 62
7
 10
21.565142
 20
6.164072
 42
0.098587
  0
VERTEX
  8
LAYER_1
 62
7
 10
21.508645
 20
6.108178
  0
SEQEND
  0
POLYLINE
  8
LAYER_1
 62
7
 70
1
 66
1
  0
VERTEX
  8
LAYER_1
 62
7
 10
24.905463
 20
6.205818
  0
VERTEX
  8
LAYER_1
 62
7
 10
24.695647
 20
5.855001
  0
VERTEX
  8
LAYER_1
 62
7
 10
24.566874
 20
5.639690
  0
VERTEX
  8
LAYER_1
 62
7
 10
24.685814
 20
5.555686
  0
VERTEX
  8
LAYER_1
 62
7
 10
25.194305
 20
5.196552
  0
VERTEX
  8
LAYER_1
 62
7
 10
25.229710
 20
5.171546
  0
VERTEX
  8
LAYER_1
 62
7
 10
25.458204
 20
5.568811
  0
VERTEX
  8
LAYER_1
 62
7
 10
25.556011
 20
5.738861
  0
VERTEX
  8
LAYER_1
 62
7
 10
25.320543
 20
5.907878
  0
VERTEX
  8
LAYER_1
 62
7
 10
24.905463
 20
6.205818
  0
SEQEND
  0
POLYLINE
  8
LAYER_1
 62
7
 70
1
 66
1
  0
VERTEX
  8
LAYER_1
 62
7
 10
19.774989
 20
7.831579
  0
VERTEX
  8
LAYER_1
 62
7
 10
19.565173
 20
7.480762
  0
VERTEX
  8
LAYER_1
 62
7
 10
19.436400
 20
7.265451
  0
VERTEX
  8
LAYER_1
 62
7
 10
19.555340
 20
7.181447
  0
VERTEX
  8
LAYER_1
 62
7
 10
20.063831
 20
6.822312
  0
VERTEX
  8
LAYER_1
 62
7
 10
20.099236
 20
6.797307
  0
VERTEX
  8
LAYER_1
 62
7
 10
20.327730
 20
7.194572
  0
VERTEX
  8
LAYER_1
 62
7
 10
20.425537
 20
7.364622
  0
VERTEX
  8
LAYER_1
 62
7
 10
20.190069
 20
7.533639
  0
VERTEX
  8
LAYER_1
 62
7
 10
19.774989
 20
7.831579
  0
SEQEND
  0
POLYLINE
  8
LAYER_1
 62
7
 70
1
 66
1
  0
VERTEX
  8
LAYER_1
 62
7
 10
23.119792
 20
15.480649
  0
VERTEX
  8
LAYER_1
 62
7
 10
22.909975
 20
15.129832
  0
VERTEX
  8
LAYER_1
 62
7
 10
22.781202
 20
14.914521
  0
VERTEX
  8
LAYER_1
 62
7
 10
22.900142
 20
14.830517
  0
VERTEX
  8
LAYER_1
 62
7
 10
23.408633
 20
14.471383
  0
VERTEX
  8
LAYER_1
 62
7
 10
23.444038
 20
14.446377
  0
VERTEX
  8
LAYER_1
 62
7
 10
23.672533
 20
14.843642
  0
VERTEX
  8
LAYER_1
 62
7
 10
23.770340
 20
15.013692
  0
VERTEX
  8
LAYER_1
 62
7
 10
23.534872
 20
15.182709
  0
VERTEX
  8
LAYER_1
 62
7
 10
23.119792
 20
15.480649
  0
SEQEND
  0
POLYLINE
  8
LAYER_1
 62
7
 70
1
 66
1
  0
VERTEX
  8
LAYER_1
 62
7
 10
21.094254
 20
15.493975
  0
VERTEX
  8
LAYER_1
 62
7
 10
20.884438
 20
15.143158
  0
VERTEX
  8
LAYER_1
 62
7
 10
20.755665
 20
14.927847
  0
VERTEX
  8
LAYER_1
 62
7
 10
20.874605
 20
14.843843
  0
VERTEX
  8
LAYER_1
 62
7
 10
21.383096
 20
14.484708
  0
VERTEX
  8
LAYER_1
 62
7
 10
21.418500
 20
14.459703
  0
VERTEX
  8
LAYER_1
 62
7
 10
21.646995
 20
14.856968
  0
VERTEX
  8
LAYER_1
 62
7
 10
21.744802
 20
15.027018
  0
VERTEX
  8
LAYER_1
 62
7
 10
21.509334
 20
15.196035
  0
VERTEX
  8
LAYER_1
 62
7
 10
21.094254
 20
15.493975
  0
SEQEND
  0
POLYLINE
  8
LAYER_1
 62
7
 70
1
 66
1
  0
VERTEX
  8
LAYER_1
 62
7
 10
23.546221
 20
20.437886
  0
VERTEX
  8
LAYER_1
 62
7
 10
23.336404
 20
20.087069
  0
VERTEX
  8
LAYER_1
 62
7
 10
23.207631
 20
19.871758
  0
VERTEX
  8
LAYER_1
 62
7
 10
23.326571
 20
19.787754
  0
VERTEX
  8
LAYER_1
 62
7
 10
23.835062
 20
19.428620
  0
VERTEX
  8
LAYER_1
 62
7
 10
23.870467
 20
19.403614
  0
VERTEX
  8
LAYER_1
 62
7
 10
24.098962
 20
19.800879
  0
VERTEX
  8
LAYER_1
 62
7
 10
24.196769
 20
19.970929
  0
VERTEX
  8
LAYER_1
 62
7
 10
23.961301
 20
20.139946
  0
VERTEX
  8
LAYER_1
 62
7
 10
23.546221
 20
20.437886
  0
SEQEND
  0
POLYLINE
  8
LAYER_1
 62
7
 70
1
 66
1
  0
VERTEX
  8
LAYER_1
 62
7
 10
18.085977
 20
15.805279
  0
VERTEX
  8
LAYER_1
 62
7
 10
18.188512
 20
16.043785
 42
0.030288
  0
VERTEX
  8
LAYER_1
 62
7
 10
16.662345
 20
15.371417
  0
VERTEX
  8
LAYER_1
 62
7
 10
16.645179
 20
15.309667
  0
VERTEX
  8
LAYER_1
 62
7
 10
16.592919
 20
15.121673
  0
VERTEX
  8
LAYER_1
 62
7
 10
16.679002
 20
15.162174
 42
-0.022245
  0
VERTEX
  8
LAYER_1
 62
7
 10
18.085977
 20
15.805279
  0
SEQEND
  0
ENDSEC
  0
EOF
