  0
SECTION
  2
HEADER
  9
$ACADVER
  1
AC1009
  9
$DWGCODEPAGE
  3
ansi_1252
  9
$INSBASE
 10
0.0
 20
0.0
 30
0.0
  9
$EXTMIN
 10
-145.0116388113535
 20
-41.5
 30
0.0
  9
$EXTMAX
 10
145.0116388113535
 20
41.5
 30
0.0
  9
$LIMMIN
 10
0.0
 20
0.0
  9
$LIMMAX
 10
12.0
 20
9.0
  9
$ORTHOMODE
 70
     0
  9
$REGENMODE
 70
     1
  9
$FILLMODE
 70
     1
  9
$QTEXTMODE
 70
     0
  9
$MIRRTEXT
 70
     1
  9
$DRAGMODE
 70
     2
  9
$LTSCALE
 40
1.0
  9
$OSMODE
 70
    37
  9
$ATTMODE
 70
     1
  9
$TEXTSIZE
 40
0.2
  9
$TRACEWID
 40
0.05
  9
$TEXTSTYLE
  7
STANDARD
  9
$CLAYER
  8
0
  9
$CELTYPE
  6
BYLAYER
  9
$CECOLOR
 62
   256
  9
$DIMSCALE
 40
1.0
  9
$DIMASZ
 40
0.18
  9
$DIMEXO
 40
0.0625
  9
$DIMDLI
 40
0.38
  9
$DIMRND
 40
0.0
  9
$DIMDLE
 40
0.0
  9
$DIMEXE
 40
0.18
  9
$DIMTP
 40
0.0
  9
$DIMTM
 40
0.0
  9
$DIMTXT
 40
0.18
  9
$DIMCEN
 40
0.09
  9
$DIMTSZ
 40
0.0
  9
$DIMTOL
 70
     0
  9
$DIMLIM
 70
     0
  9
$DIMTIH
 70
     1
  9
$DIMTOH
 70
     1
  9
$DIMSE1
 70
     0
  9
$DIMSE2
 70
     0
  9
$DIMTAD
 70
     0
  9
$DIMZIN
 70
     0
  9
$DIMBLK
  1

  9
$DIMASO
 70
     1
  9
$DIMSHO
 70
     1
  9
$DIMPOST
  1

  9
$DIMAPOST
  1

  9
$DIMALT
 70
     0
  9
$DIMALTD
 70
     2
  9
$DIMALTF
 40
25.4
  9
$DIMLFAC
 40
1.0
  9
$DIMTOFL
 70
     0
  9
$DIMTVP
 40
0.0
  9
$DIMTIX
 70
     0
  9
$DIMSOXD
 70
     0
  9
$DIMSAH
 70
     0
  9
$DIMBLK1
  1

  9
$DIMBLK2
  1

  9
$DIMSTYLE
  2
STANDARD
  9
$DIMCLRD
 70
     0
  9
$DIMCLRE
 70
     0
  9
$DIMCLRT
 70
     0
  9
$DIMTFAC
 40
1.0
  9
$DIMGAP
 40
0.09
  9
$LUNITS
 70
     2
  9
$LUPREC
 70
     4
  9
$SKETCHINC
 40
0.1
  9
$FILLETRAD
 40
0.5
  9
$AUNITS
 70
     0
  9
$AUPREC
 70
     0
  9
$MENU
  1
.
  9
$ELEVATION
 40
0.0
  9
$PELEVATION
 40
0.0
  9
$THICKNESS
 40
0.0
  9
$LIMCHECK
 70
     0
  9
$CHAMFERA
 40
0.5
  9
$CHAMFERB
 40
0.5
  9
$SKPOLY
 70
     0
  9
$TDCREATE
 40
2454910.5
  9
$TDUPDATE
 40
2458698.99810272
  9
$TDINDWG
 40
0.0000000116
  9
$TDUSRTIMER
 40
0.0000000116
  9
$USRTIMER
 70
     1
  9
$ANGBASE
 50
0.0
  9
$ANGDIR
 70
     0
  9
$PDMODE
 70
     0
  9
$PDSIZE
 40
0.0
  9
$PLINEWID
 40
0.0
  9
$COORDS
 70
     1
  9
$SPLFRAME
 70
     0
  9
$SPLINETYPE
 70
     6
  9
$SPLINESEGS
 70
     8
  9
$ATTDIA
 70
     0
  9
$ATTREQ
 70
     1
  9
$HANDLING
 70
     1
  9
$HANDSEED
  5
533
  9
$SURFTAB1
 70
     6
  9
$SURFTAB2
 70
     6
  9
$SURFTYPE
 70
     6
  9
$SURFU
 70
     6
  9
$SURFV
 70
     6
  9
$UCSNAME
  2

  9
$UCSORG
 10
0.0
 20
0.0
 30
0.0
  9
$UCSXDIR
 10
1.0
 20
0.0
 30
0.0
  9
$UCSYDIR
 10
0.0
 20
1.0
 30
0.0
  9
$PUCSNAME
  2

  9
$PUCSORG
 10
0.0
 20
0.0
 30
0.0
  9
$PUCSXDIR
 10
1.0
 20
0.0
 30
0.0
  9
$PUCSYDIR
 10
0.0
 20
1.0
 30
0.0
  9
$USERI1
 70
     0
  9
$USERI2
 70
     0
  9
$USERI3
 70
     0
  9
$USERI4
 70
     0
  9
$USERI5
 70
     0
  9
$USERR1
 40
0.0
  9
$USERR2
 40
0.0
  9
$USERR3
 40
0.0
  9
$USERR4
 40
0.0
  9
$USERR5
 40
0.0
  9
$WORLDVIEW
 70
     1
  9
$SHADEDGE
 70
     3
  9
$SHADEDIF
 70
    70
  9
$TILEMODE
 70
     1
  9
$MAXACTVP
 70
    64
  9
$PLIMCHECK
 70
     0
  9
$PEXTMIN
 10
1.000000000000000E+20
 20
1.000000000000000E+20
 30
1.000000000000000E+20
  9
$PEXTMAX
 10
-1.000000000000000E+20
 20
-1.000000000000000E+20
 30
-1.000000000000000E+20
  9
$PLIMMIN
 10
0.0
 20
0.0
  9
$PLIMMAX
 10
12.0
 20
9.0
  9
$UNITMODE
 70
     0
  9
$VISRETAIN
 70
     1
  9
$PLINEGEN
 70
     0
  9
$PSLTSCALE
 70
     1
  0
ENDSEC
  0
SECTION
  2
TABLES
  0
TABLE
  2
VPORT
 70
     1
  0
VPORT
  2
*ACTIVE
 70
     0
 10
0.0
 20
0.0
 11
1.0
 21
1.0
 12
10.42990654205607
 22
4.5
 13
0.0
 23
0.0
 14
0.5
 24
0.5
 15
0.5
 25
0.5
 16
0.0
 26
0.0
 36
1.0
 17
0.0
 27
0.0
 37
0.0
 40
9.0
 41
1.972972972850329
 42
50.0
 43
0.0
 44
0.0
 50
0.0
 51
0.0
 71
     0
 72
   100
 73
     1
 74
     3
 75
     0
 76
     0
 77
     0
 78
     0
  0
ENDTAB
  0
TABLE
  2
LTYPE
 70
     2
  0
LTYPE
  2
CONTINUOUS
 70
     0
  3
Solid line
 72
    65
 73
     0
 40
0.0
  0
LTYPE
  2
CONTINUOUS2
 70
     0
  3
Solid Line
 72
    65
 73
     0
 40
0.0
  0
ENDTAB
  0
TABLE
  2
LAYER
 70
     3
  0
LAYER
  2
0
 70
     0
 62
     7
  6
CONTINUOUS
  0
LAYER
  2
PLAN_1
 70
     0
 62
    18
  6
CONTINUOUS
  0
LAYER
  2
G
 70
     0
 62
     1
  6
CONTINUOUS
  0
ENDTAB
  0
TABLE
  2
STYLE
 70
     1
  0
STYLE
  2
STANDARD
 70
     0
 40
0.0
 41
1.0
 50
0.0
 71
     0
 42
0.2
  3
txt
  4

  0
ENDTAB
  0
TABLE
  2
VIEW
 70
     0
  0
ENDTAB
  0
TABLE
  2
UCS
 70
     0
  0
ENDTAB
  0
TABLE
  2
APPID
 70
     1
  0
APPID
  2
ACAD
 70
     0
  0
ENDTAB
  0
TABLE
  2
DIMSTYLE
 70
     1
  0
DIMSTYLE
  2
STANDARD
 70
     0
  3

  4

  5

  6

  7

 40
1.0
 41
0.18
 42
0.0625
 43
0.38
 44
0.18
 45
0.0
 46
0.0
 47
0.0
 48
0.0
140
0.18
141
0.09
142
0.0
143
25.4
144
1.0
145
0.0
146
1.0
147
0.09
 71
     0
 72
     0
 73
     1
 74
     1
 75
     0
 76
     0
 77
     0
 78
     0
170
     0
171
     2
172
     0
173
     0
174
     0
175
     0
176
     0
177
     0
178
     0
  0
ENDTAB
  0
ENDSEC
  0
SECTION
  2
BLOCKS
  0
BLOCK
  8
0
  2
$MODEL_SPACE
 70
     0
 10
0.0
 20
0.0
 30
0.0
  3
$MODEL_SPACE
  1

  0
ENDBLK
  5
21
  8
0
  0
BLOCK
 67
     1
  8
0
  2
$PAPER_SPACE
 70
     0
 10
0.0
 20
0.0
 30
0.0
  3
$PAPER_SPACE
  1

  0
ENDBLK
  5
1D
 67
     1
  8
0
  0
ENDSEC
  0
SECTION
  2
ENTITIES
  0
POLYLINE
  5
41
  8
PLAN_1
 66
     1
 10
0.0
 20
0.0
 30
0.0
 70
     1
  0
VERTEX
  5
B5
  8
PLAN_1
 10
-134.0849223787565
 20
-0.0000000000000124
 30
0.0
 42
-0.0752519771137664
  0
VERTEX
  5
B6
  8
PLAN_1
 10
-129.3332914742397
 20
-4.606088491349771
 30
0.0
  0
VERTEX
  5
B7
  8
PLAN_1
 10
-123.7059757298179
 20
-4.606088491349778
 30
0.0
  0
VERTEX
  5
B8
  8
PLAN_1
 10
-123.7059757298179
 20
-1.115527232549416
 30
0.0
  0
VERTEX
  5
B9
  8
PLAN_1
 10
-121.9461681640997
 20
-0.0000918568752137
 30
0.0
  0
VERTEX
  5
BA
  8
PLAN_1
 10
-123.7059757298179
 20
1.115343518798889
 30
0.0
  0
VERTEX
  5
BB
  8
PLAN_1
 10
-123.7059757298179
 20
4.605904777599244
 30
0.0
  0
VERTEX
  5
BC
  8
PLAN_1
 10
-129.3337326647863
 20
4.605904777599273
 30
0.0
 42
-0.0752115290869143
  0
SEQEND
  5
BD
  8
PLAN_1
  0
POLYLINE
  5
42
  8
PLAN_1
 66
     1
 10
0.0
 20
0.0
 30
0.0
 70
     1
  0
VERTEX
  5
BE
  8
PLAN_1
 10
-124.0313543605543
 20
-8.116316978609374
 30
0.0
  0
VERTEX
  5
BF
  8
PLAN_1
 10
-122.9068113797488
 20
-8.449239249548183
 30
0.0
  0
VERTEX
  5
C0
  8
PLAN_1
 10
-121.798240581235
 20
-8.851191687931658
 30
0.0
  0
VERTEX
  5
C1
  8
PLAN_1
 10
-120.7119471945408
 20
-9.320915022380921
 30
0.0
  0
VERTEX
  5
C2
  8
PLAN_1
 10
-119.6540840133176
 20
-9.85638672809594
 30
0.0
  0
VERTEX
  5
C3
  8
PLAN_1
 10
-118.630536707805
 20
-10.45484756322779
 30
0.0
  0
VERTEX
  5
C4
  8
PLAN_1
 10
-117.646815193897
 20
-11.112848563209
 30
0.0
  0
VERTEX
  5
C5
  8
PLAN_1
 10
-116.7079552416444
 20
-11.82631683026523
 30
0.0
  0
VERTEX
  5
C6
  8
PLAN_1
 10
-116.6921621199103
 20
-11.83988706191714
 30
0.0
  0
VERTEX
  5
C7
  8
PLAN_1
 10
-116.6921621199103
 20
-3.702813759659177
 30
0.0
  0
VERTEX
  5
C8
  8
PLAN_1
 10
-118.6211527207294
 20
-1.383607824726125
 30
0.0
  0
VERTEX
  5
C9
  8
PLAN_1
 10
-120.9402766209542
 20
-2.853317828431534
 30
0.0
  0
VERTEX
  5
CA
  8
PLAN_1
 10
-120.9402766209542
 20
-7.997302841400694
 30
0.0
  0
VERTEX
  5
CB
  8
PLAN_1
 10
-124.5438142063423
 20
-7.997302841400701
 30
0.0
  0
SEQEND
  5
CC
  8
PLAN_1
  0
POLYLINE
  5
43
  8
PLAN_1
 66
     1
 10
0.0
 20
0.0
 30
0.0
 70
     1
  0
VERTEX
  5
CD
  8
PLAN_1
 10
-120.9402766209542
 20
7.997119127650182
 30
0.0
  0
VERTEX
  5
CE
  8
PLAN_1
 10
-120.9402766209542
 20
2.853134114681078
 30
0.0
  0
VERTEX
  5
CF
  8
PLAN_1
 10
-118.6211527207294
 20
1.383424110975612
 30
0.0
  0
VERTEX
  5
D0
  8
PLAN_1
 10
-116.6921621199103
 20
3.702630045908721
 30
0.0
  0
VERTEX
  5
D1
  8
PLAN_1
 10
-116.6921621199103
 20
11.83997877301011
 30
0.0
  0
VERTEX
  5
D2
  8
PLAN_1
 10
-116.7079991359187
 20
11.82637112042539
 30
0.0
  0
VERTEX
  5
D3
  8
PLAN_1
 10
-117.6468610206447
 20
11.11291279049127
 30
0.0
  0
VERTEX
  5
D4
  8
PLAN_1
 10
-118.6305814880425
 20
10.45491909364323
 30
0.0
  0
VERTEX
  5
D5
  8
PLAN_1
 10
-119.6541252651216
 20
9.856462448594785
 30
0.0
  0
VERTEX
  5
D6
  8
PLAN_1
 10
-120.7119830124617
 20
9.320991435380764
 30
0.0
  0
VERTEX
  5
D7
  8
PLAN_1
 10
-121.7982696955112
 20
8.851265020008663
 30
0.0
  0
VERTEX
  5
D8
  8
PLAN_1
 10
-122.906833192667
 20
8.449305569420057
 30
0.0
  0
VERTEX
  5
D9
  8
PLAN_1
 10
-124.0313689586083
 20
8.11637231904969
 30
0.0
  0
VERTEX
  5
DA
  8
PLAN_1
 10
-124.5448262471424
 20
7.997119127650189
 30
0.0
  0
SEQEND
  5
DB
  8
PLAN_1
  0
POLYLINE
  5
44
  8
PLAN_1
 66
     1
 10
0.0
 20
0.0
 30
0.0
 70
     1
  0
VERTEX
  5
DC
  8
PLAN_1
 10
-113.5462736711006
 20
-1.337566045675876
 30
0.0
  0
VERTEX
  5
DD
  8
PLAN_1
 10
-113.5462736711005
 20
-8.13497481281358
 30
0.0
  0
VERTEX
  5
DE
  8
PLAN_1
 10
-109.0406673418792
 20
-4.493827666772161
 30
0.0
  0
VERTEX
  5
DF
  8
PLAN_1
 10
-104.5350610126579
 20
-8.13497481281358
 30
0.0
  0
VERTEX
  5
E0
  8
PLAN_1
 10
-104.5350610126579
 20
-1.337566045675869
 30
0.0
  0
VERTEX
  5
E1
  8
PLAN_1
 10
-102.4248880571683
 20
-0.0000918568752776
 30
0.0
  0
VERTEX
  5
E2
  8
PLAN_1
 10
-104.5350610126579
 20
1.337382331925378
 30
0.0
  0
VERTEX
  5
E3
  8
PLAN_1
 10
-104.5350610126578
 20
8.134791099063088
 30
0.0
  0
VERTEX
  5
E4
  8
PLAN_1
 10
-109.0406673418792
 20
4.493643953021591
 30
0.0
  0
VERTEX
  5
E5
  8
PLAN_1
 10
-113.5462736711006
 20
8.134791099063031
 30
0.0
  0
VERTEX
  5
E6
  8
PLAN_1
 10
-113.5462736711005
 20
1.337382331925356
 30
0.0
  0
VERTEX
  5
E7
  8
PLAN_1
 10
-115.6564466265903
 20
-0.0000918568752208
 30
0.0
  0
SEQEND
  5
E8
  8
PLAN_1
  0
POLYLINE
  5
45
  8
PLAN_1
 66
     1
 10
0.0
 20
0.0
 30
0.0
 70
     1
  0
VERTEX
  5
E9
  8
PLAN_1
 10
-109.0406673418792
 20
9.78786208899375
 30
0.0
  0
VERTEX
  5
EA
  8
PLAN_1
 10
-104.5851192206325
 20
13.19692100645278
 30
0.0
  0
VERTEX
  5
EB
  8
PLAN_1
 10
-104.5851192206325
 20
22.01518102868549
 30
0.0
  0
VERTEX
  5
EC
  8
PLAN_1
 10
-107.4748205168109
 20
25.18653526992993
 30
0.0
 42
0.036340256297907
  0
VERTEX
  5
ED
  8
PLAN_1
 10
-109.2467840372499
 20
21.96808087274347
 30
0.0
  0
VERTEX
  5
EE
  8
PLAN_1
 10
-109.2488317797817
 20
21.96361112406776
 30
0.0
 42
-0.0624492818859547
  0
VERTEX
  5
EF
  8
PLAN_1
 10
-113.4810060283869
 20
15.13648397842647
 30
0.0
  0
VERTEX
  5
F0
  8
PLAN_1
 10
-113.4962154631258
 20
15.11781402100263
 30
0.0
  0
VERTEX
  5
F1
  8
PLAN_1
 10
-113.4962154631259
 20
13.19692100645276
 30
0.0
  0
SEQEND
  5
F2
  8
PLAN_1
  0
POLYLINE
  5
46
  8
PLAN_1
 66
     1
 10
0.0
 20
0.0
 30
0.0
 70
     1
  0
VERTEX
  5
F3
  8
PLAN_1
 10
-113.4810060283871
 20
-15.13648397842623
 30
0.0
 42
-0.0624352690844428
  0
VERTEX
  5
F4
  8
PLAN_1
 10
-109.2488317797819
 20
-21.96361112406739
 30
0.0
  0
VERTEX
  5
F5
  8
PLAN_1
 10
-109.2467840372498
 20
-21.96808087274369
 30
0.0
 42
0.0363415284287929
  0
VERTEX
  5
F6
  8
PLAN_1
 10
-107.4747523115842
 20
-25.18664413063764
 30
0.0
  0
VERTEX
  5
F7
  8
PLAN_1
 10
-104.5851192206325
 20
-22.01536474243595
 30
0.0
  0
VERTEX
  5
F8
  8
PLAN_1
 10
-104.5851192206324
 20
-13.19710472020329
 30
0.0
  0
VERTEX
  5
F9
  8
PLAN_1
 10
-109.0406673418792
 20
-9.788045802744135
 30
0.0
  0
VERTEX
  5
FA
  8
PLAN_1
 10
-113.4962154631258
 20
-13.19710472020324
 30
0.0
  0
VERTEX
  5
FB
  8
PLAN_1
 10
-113.4962154631258
 20
-15.11781328176096
 30
0.0
  0
SEQEND
  5
FC
  8
PLAN_1
  0
POLYLINE
  5
47
  8
PLAN_1
 66
     1
 10
0.0
 20
0.0
 30
0.0
 70
     1
  0
VERTEX
  5
FD
  8
PLAN_1
 10
-99.46018196302894
 20
1.38342411097562
 30
0.0
  0
VERTEX
  5
FE
  8
PLAN_1
 10
-97.14105806280422
 20
2.853134114681078
 30
0.0
  0
VERTEX
  5
FF
  8
PLAN_1
 10
-97.14105806280428
 20
7.997119127650182
 30
0.0
  0
VERTEX
  5
100
  8
PLAN_1
 10
-91.11579742644932
 20
7.997119127650182
 30
0.0
  0
VERTEX
  5
101
  8
PLAN_1
 10
-95.21450149681048
 20
12.11632294074917
 30
0.0
  0
VERTEX
  5
102
  8
PLAN_1
 10
-92.28685573226677
 20
14.97931566191015
 30
0.0
  0
VERTEX
  5
103
  8
PLAN_1
 10
-92.15378092478743
 20
17.9883794402732
 30
0.0
  0
VERTEX
  5
104
  8
PLAN_1
 10
-94.70881722838926
 20
19.15694789788992
 30
0.0
  0
VERTEX
  5
105
  8
PLAN_1
 10
-101.3891725638482
 20
12.88831756906775
 30
0.0
  0
VERTEX
  5
106
  8
PLAN_1
 10
-101.3891725638482
 20
3.702630045908679
 30
0.0
  0
SEQEND
  5
107
  8
PLAN_1
  0
POLYLINE
  5
48
  8
PLAN_1
 66
     1
 10
0.0
 20
0.0
 30
0.0
 70
     1
  0
VERTEX
  5
108
  8
PLAN_1
 10
-101.0672105429153
 20
23.08668613799644
 30
0.0
  0
VERTEX
  5
109
  8
PLAN_1
 10
-100.9309419400564
 20
17.3466778741831
 30
0.0
  0
VERTEX
  5
10A
  8
PLAN_1
 10
-96.16068180662931
 20
22.06931467976456
 30
0.0
  0
VERTEX
  5
10B
  8
PLAN_1
 10
-94.0590314409594
 20
21.45118265269249
 30
0.0
  0
VERTEX
  5
10C
  8
PLAN_1
 10
-94.62216695921332
 20
23.75808278351098
 30
0.0
  0
VERTEX
  5
10D
  8
PLAN_1
 10
-89.65158052909992
 20
29.21410281099971
 30
0.0
  0
VERTEX
  5
10E
  8
PLAN_1
 10
-95.84420951646472
 20
29.21410281099971
 30
0.0
  0
VERTEX
  5
10F
  8
PLAN_1
 10
-99.41678631098051
 20
33.13558185872935
 30
0.0
 42
0.0159838871084114
  0
VERTEX
  5
110
  8
PLAN_1
 10
-100.7329311126506
 20
32.18859911595146
 30
0.0
  0
VERTEX
  5
111
  8
PLAN_1
 10
-100.8686475026405
 20
32.08800130037253
 30
0.0
  0
VERTEX
  5
112
  8
PLAN_1
 10
-101.2539205522579
 20
31.79947686011608
 30
0.0
  0
VERTEX
  5
113
  8
PLAN_1
 10
-101.3257166946288
 20
29.01553506456073
 30
0.0
  0
VERTEX
  5
114
  8
PLAN_1
 10
-104.4311775110401
 20
29.01553506456073
 30
0.0
  0
VERTEX
  5
115
  8
PLAN_1
 10
-104.8467656794098
 20
28.58752516045917
 30
0.0
  0
VERTEX
  5
116
  8
PLAN_1
 10
-105.4007736670699
 20
27.95320100360922
 30
0.0
  0
SEQEND
  5
117
  8
PLAN_1
  0
POLYLINE
  5
49
  8
PLAN_1
 66
     1
 10
0.0
 20
0.0
 30
0.0
 70
     1
  0
VERTEX
  5
118
  8
PLAN_1
 10
-94.70881722838932
 20
-19.15713161164045
 30
0.0
  0
VERTEX
  5
119
  8
PLAN_1
 10
-92.15378092478743
 20
-17.9885631540237
 30
0.0
  0
VERTEX
  5
11A
  8
PLAN_1
 10
-92.2868557322668
 20
-14.97949937566066
 30
0.0
  0
VERTEX
  5
11B
  8
PLAN_1
 10
-95.21450149681043
 20
-12.11650665449972
 30
0.0
  0
VERTEX
  5
11C
  8
PLAN_1
 10
-91.11579742644932
 20
-7.997302841400694
 30
0.0
  0
VERTEX
  5
11D
  8
PLAN_1
 10
-97.14105806280422
 20
-7.997302841400701
 30
0.0
  0
VERTEX
  5
11E
  8
PLAN_1
 10
-97.14105806280422
 20
-2.853317828431534
 30
0.0
  0
VERTEX
  5
11F
  8
PLAN_1
 10
-99.46018196302896
 20
-1.383607824726132
 30
0.0
  0
VERTEX
  5
120
  8
PLAN_1
 10
-101.3891725638482
 20
-3.702813759659177
 30
0.0
  0
VERTEX
  5
121
  8
PLAN_1
 10
-101.3891725638482
 20
-12.88850128281829
 30
0.0
  0
SEQEND
  5
122
  8
PLAN_1
  0
POLYLINE
  5
4A
  8
PLAN_1
 66
     1
 10
0.0
 20
0.0
 30
0.0
 70
     1
  0
VERTEX
  5
123
  8
PLAN_1
 10
-104.8467656794097
 20
-28.58752516045926
 30
0.0
  0
VERTEX
  5
124
  8
PLAN_1
 10
-104.4309991290439
 20
-29.01571877831123
 30
0.0
  0
VERTEX
  5
125
  8
PLAN_1
 10
-101.3257166946288
 20
-29.01571877831125
 30
0.0
  0
VERTEX
  5
126
  8
PLAN_1
 10
-101.2539253834277
 20
-31.79947324213507
 30
0.0
  0
VERTEX
  5
127
  8
PLAN_1
 10
-100.8686475026404
 20
-32.08800130037258
 30
0.0
  0
VERTEX
  5
128
  8
PLAN_1
 10
-100.7329311126507
 20
-32.18859911595143
 30
0.0
 42
0.015985125694582
  0
VERTEX
  5
129
  8
PLAN_1
 10
-99.41668122558484
 20
-33.1356502243149
 30
0.0
  0
VERTEX
  5
12A
  8
PLAN_1
 10
-95.84420951646472
 20
-29.21428652475013
 30
0.0
  0
VERTEX
  5
12B
  8
PLAN_1
 10
-89.6515805291
 20
-29.21428652475013
 30
0.0
  0
VERTEX
  5
12C
  8
PLAN_1
 10
-94.62216695921337
 20
-23.75826649726148
 30
0.0
  0
VERTEX
  5
12D
  8
PLAN_1
 10
-94.05903144095939
 20
-21.45136636644301
 30
0.0
  0
VERTEX
  5
12E
  8
PLAN_1
 10
-96.16068180662923
 20
-22.06949839351504
 30
0.0
  0
VERTEX
  5
12F
  8
PLAN_1
 10
-100.9309419400564
 20
-17.34686158793356
 30
0.0
  0
VERTEX
  5
130
  8
PLAN_1
 10
-101.0672105429153
 20
-23.08686985174687
 30
0.0
  0
VERTEX
  5
131
  8
PLAN_1
 10
-105.4006926629374
 20
-27.95329375114926
 30
0.0
  0
SEQEND
  5
132
  8
PLAN_1
  0
POLYLINE
  5
4B
  8
PLAN_1
 66
     1
 10
0.0
 20
0.0
 30
0.0
 70
     1
  0
VERTEX
  5
133
  8
PLAN_1
 10
-86.40820938431243
 20
8.402055486537579
 30
0.0
  0
VERTEX
  5
134
  8
PLAN_1
 10
-80.71768544997734
 20
8.402055486537572
 30
0.0
  0
VERTEX
  5
135
  8
PLAN_1
 10
-80.90931317274739
 20
14.54872557360158
 30
0.0
  0
VERTEX
  5
136
  8
PLAN_1
 10
-85.46579458083724
 20
18.8724288667835
 30
0.0
  0
VERTEX
  5
137
  8
PLAN_1
 10
-87.53111559291544
 20
16.79237701222577
 30
0.0
  0
VERTEX
  5
138
  8
PLAN_1
 10
-89.10672131346983
 20
16.90923385798746
 30
0.0
  0
VERTEX
  5
139
  8
PLAN_1
 10
-88.94721860234482
 20
15.1444901608358
 30
0.0
  0
VERTEX
  5
13A
  8
PLAN_1
 10
-90.95912263358109
 20
12.93610110209046
 30
0.0
  0
SEQEND
  5
13B
  8
PLAN_1
  0
POLYLINE
  5
4C
  8
PLAN_1
 66
     1
 10
0.0
 20
0.0
 30
0.0
 70
     1
  0
VERTEX
  5
13C
  8
PLAN_1
 10
-94.37535895394039
 20
-1.115527232549416
 30
0.0
  0
VERTEX
  5
13D
  8
PLAN_1
 10
-94.37535895394039
 20
-4.606088491349778
 30
0.0
  0
VERTEX
  5
13E
  8
PLAN_1
 10
-87.84799326455602
 20
-4.606088491349771
 30
0.0
  0
VERTEX
  5
13F
  8
PLAN_1
 10
-83.83462074216662
 20
-0.0000918568752421
 30
0.0
  0
VERTEX
  5
140
  8
PLAN_1
 10
-87.84799326455602
 20
4.605904777599244
 30
0.0
  0
VERTEX
  5
141
  8
PLAN_1
 10
-94.37535895394039
 20
4.605904777599244
 30
0.0
  0
VERTEX
  5
142
  8
PLAN_1
 10
-94.37535895394039
 20
1.115343518798889
 30
0.0
  0
VERTEX
  5
143
  8
PLAN_1
 10
-96.13516651965872
 20
-0.0000918568752137
 30
0.0
  0
SEQEND
  5
144
  8
PLAN_1
  0
POLYLINE
  5
4D
  8
PLAN_1
 66
     1
 10
0.0
 20
0.0
 30
0.0
 70
     1
  0
VERTEX
  5
145
  8
PLAN_1
 10
-95.96144073817048
 20
-35.10452432985028
 30
0.0
  0
VERTEX
  5
146
  8
PLAN_1
 10
-94.66198973032212
 20
-35.6695930473747
 30
0.0
  0
VERTEX
  5
147
  8
PLAN_1
 10
-93.33091520546758
 20
-36.16193926271309
 30
0.0
  0
VERTEX
  5
148
  8
PLAN_1
 10
-91.97439137755718
 20
-36.57908107407488
 30
0.0
  0
VERTEX
  5
149
  8
PLAN_1
 10
-90.59883083344242
 20
-36.91924098764119
 30
0.0
  0
VERTEX
  5
14A
  8
PLAN_1
 10
-89.21078388869005
 20
-37.1813708196496
 30
0.0
  0
VERTEX
  5
14B
  8
PLAN_1
 10
-87.81683568215122
 20
-37.36515944802237
 30
0.0
  0
VERTEX
  5
14C
  8
PLAN_1
 10
-86.42350436489822
 20
-37.47102344010293
 30
0.0
  0
VERTEX
  5
14D
  8
PLAN_1
 10
-85.04102306544766
 20
-37.49999999999999
 30
0.0
  0
VERTEX
  5
14E
  8
PLAN_1
 10
-81.78352439559988
 20
-37.49999999999999
 30
0.0
  0
VERTEX
  5
14F
  8
PLAN_1
 10
-86.08410030298879
 20
-32.77960826247237
 30
0.0
  0
VERTEX
  5
150
  8
PLAN_1
 10
-94.11778115146198
 20
-32.77960826247235
 30
0.0
  0
VERTEX
  5
151
  8
PLAN_1
 10
-96.14968110878758
 20
-35.00985927456669
 30
0.0
  0
SEQEND
  5
152
  8
PLAN_1
  0
POLYLINE
  5
4E
  8
PLAN_1
 66
     1
 10
0.0
 20
0.0
 30
0.0
 70
     1
  0
VERTEX
  5
153
  8
PLAN_1
 10
-94.11778115146195
 20
32.77942454872188
 30
0.0
  0
VERTEX
  5
154
  8
PLAN_1
 10
-86.0841003029888
 20
32.77942454872188
 30
0.0
  0
VERTEX
  5
155
  8
PLAN_1
 10
-81.78352439559988
 20
37.49999999999996
 30
0.0
  0
VERTEX
  5
156
  8
PLAN_1
 10
-85.04102306544802
 20
37.49999999999996
 30
0.0
  0
VERTEX
  5
157
  8
PLAN_1
 10
-86.42350436489791
 20
37.47102344010293
 30
0.0
  0
VERTEX
  5
158
  8
PLAN_1
 10
-87.81683568215094
 20
37.36515944802238
 30
0.0
  0
VERTEX
  5
159
  8
PLAN_1
 10
-89.21078388868976
 20
37.18137081964962
 30
0.0
  0
VERTEX
  5
15A
  8
PLAN_1
 10
-90.59883083344216
 20
36.91924098764122
 30
0.0
  0
VERTEX
  5
15B
  8
PLAN_1
 10
-91.97439137755698
 20
36.57908107407491
 30
0.0
  0
VERTEX
  5
15C
  8
PLAN_1
 10
-93.33091520546736
 20
36.16193926271315
 30
0.0
  0
VERTEX
  5
15D
  8
PLAN_1
 10
-94.66198973032196
 20
35.66959304737475
 30
0.0
  0
VERTEX
  5
15E
  8
PLAN_1
 10
-95.9614407381703
 20
35.10452432985034
 30
0.0
  0
VERTEX
  5
15F
  8
PLAN_1
 10
-96.14974165914342
 20
35.00982882412309
 30
0.0
  0
SEQEND
  5
160
  8
PLAN_1
  0
POLYLINE
  5
4F
  8
PLAN_1
 66
     1
 10
0.0
 20
0.0
 30
0.0
 70
     1
  0
VERTEX
  5
161
  8
PLAN_1
 10
-88.9472186023448
 20
-15.14467387458641
 30
0.0
  0
VERTEX
  5
162
  8
PLAN_1
 10
-89.10672131346982
 20
-16.90941757173793
 30
0.0
  0
VERTEX
  5
163
  8
PLAN_1
 10
-87.53111559291544
 20
-16.79256072597625
 30
0.0
  0
VERTEX
  5
164
  8
PLAN_1
 10
-85.46579458083727
 20
-18.87261258053398
 30
0.0
  0
VERTEX
  5
165
  8
PLAN_1
 10
-80.90931317274737
 20
-14.54890928735209
 30
0.0
  0
VERTEX
  5
166
  8
PLAN_1
 10
-80.71768544997732
 20
-8.402239200288113
 30
0.0
  0
VERTEX
  5
167
  8
PLAN_1
 10
-86.4082093843125
 20
-8.40223920028812
 30
0.0
  0
VERTEX
  5
168
  8
PLAN_1
 10
-90.95912263358112
 20
-12.93628481584094
 30
0.0
  0
SEQEND
  5
169
  8
PLAN_1
  0
POLYLINE
  5
50
  8
PLAN_1
 66
     1
 10
0.0
 20
0.0
 30
0.0
 70
     1
  0
VERTEX
  5
16A
  8
PLAN_1
 10
-90.30281951567905
 20
20.11926174037713
 30
0.0
  0
VERTEX
  5
16B
  8
PLAN_1
 10
-87.66793832758965
 20
19.82711962597287
 30
0.0
  0
VERTEX
  5
16C
  8
PLAN_1
 10
-84.42091302509581
 20
22.80696919289553
 30
0.0
  0
VERTEX
  5
16D
  8
PLAN_1
 10
-80.74804833866826
 20
19.18440697428366
 30
0.0
  0
VERTEX
  5
16E
  8
PLAN_1
 10
-80.50649492356847
 20
24.38453661067815
 30
0.0
  0
VERTEX
  5
16F
  8
PLAN_1
 10
-76.48965449933192
 20
24.38453661067816
 30
0.0
  0
VERTEX
  5
170
  8
PLAN_1
 10
-75.2919812320185
 20
27.10145827463705
 30
0.0
  0
VERTEX
  5
171
  8
PLAN_1
 10
-76.8816586476174
 20
29.29252413266832
 30
0.0
  0
VERTEX
  5
172
  8
PLAN_1
 10
-84.58060279407088
 20
29.29252413266834
 30
0.0
  0
VERTEX
  5
173
  8
PLAN_1
 10
-91.18111324504217
 20
22.74854077001466
 30
0.0
  0
SEQEND
  5
174
  8
PLAN_1
  0
POLYLINE
  5
51
  8
PLAN_1
 66
     1
 10
0.0
 20
0.0
 30
0.0
 70
     1
  0
VERTEX
  5
175
  8
PLAN_1
 10
-84.58060279407088
 20
-29.29270784641878
 30
0.0
  0
VERTEX
  5
176
  8
PLAN_1
 10
-76.88165864761739
 20
-29.29270784641878
 30
0.0
  0
VERTEX
  5
177
  8
PLAN_1
 10
-75.29198123201843
 20
-27.10164198838752
 30
0.0
  0
VERTEX
  5
178
  8
PLAN_1
 10
-76.4896544993319
 20
-24.38472032442858
 30
0.0
  0
VERTEX
  5
179
  8
PLAN_1
 10
-80.50649492356847
 20
-24.38472032442858
 30
0.0
  0
VERTEX
  5
17A
  8
PLAN_1
 10
-80.74804833866814
 20
-19.18459068803416
 30
0.0
  0
VERTEX
  5
17B
  8
PLAN_1
 10
-84.42091302509583
 20
-22.80715290664612
 30
0.0
  0
VERTEX
  5
17C
  8
PLAN_1
 10
-87.66793832758965
 20
-19.82730333972334
 30
0.0
  0
VERTEX
  5
17D
  8
PLAN_1
 10
-90.30281951567913
 20
-20.11944545412767
 30
0.0
  0
VERTEX
  5
17E
  8
PLAN_1
 10
-91.18111324504217
 20
-22.74872448376514
 30
0.0
  0
SEQEND
  5
17F
  8
PLAN_1
  0
POLYLINE
  5
52
  8
PLAN_1
 66
     1
 10
0.0
 20
0.0
 30
0.0
 70
     1
  0
VERTEX
  5
180
  8
PLAN_1
 10
-73.91299457662268
 20
-22.34280197374401
 30
0.0
  0
VERTEX
  5
181
  8
PLAN_1
 10
-73.09679594101256
 20
-23.85910544250604
 30
0.0
  0
VERTEX
  5
182
  8
PLAN_1
 10
-72.28059730540254
 20
-22.34280197374401
 30
0.0
  0
VERTEX
  5
183
  8
PLAN_1
 10
-69.02691984416767
 20
-22.34280197374407
 30
0.0
  0
VERTEX
  5
184
  8
PLAN_1
 10
-69.02691984416767
 20
-15.91282070753275
 30
0.0
  0
VERTEX
  5
185
  8
PLAN_1
 10
-73.09679594101264
 20
-11.54682123286941
 30
0.0
  0
VERTEX
  5
186
  8
PLAN_1
 10
-77.16667203785745
 20
-15.91282070753275
 30
0.0
  0
VERTEX
  5
187
  8
PLAN_1
 10
-77.16667203785747
 20
-22.34280197374402
 30
0.0
  0
SEQEND
  5
188
  8
PLAN_1
  0
POLYLINE
  5
53
  8
PLAN_1
 66
     1
 10
0.0
 20
0.0
 30
0.0
 70
     1
  0
VERTEX
  5
189
  8
PLAN_1
 10
-73.09679594101256
 20
11.54663751911893
 30
0.0
  0
VERTEX
  5
18A
  8
PLAN_1
 10
-69.02691984416768
 20
15.91263699378225
 30
0.0
  0
VERTEX
  5
18B
  8
PLAN_1
 10
-69.02691984416768
 20
22.34261825999354
 30
0.0
  0
VERTEX
  5
18C
  8
PLAN_1
 10
-72.28059730540264
 20
22.34261825999362
 30
0.0
  0
VERTEX
  5
18D
  8
PLAN_1
 10
-73.09679594101266
 20
23.85892172875557
 30
0.0
  0
VERTEX
  5
18E
  8
PLAN_1
 10
-73.9129945766227
 20
22.34261825999359
 30
0.0
  0
VERTEX
  5
18F
  8
PLAN_1
 10
-77.1666720378573
 20
22.34261825999359
 30
0.0
  0
VERTEX
  5
190
  8
PLAN_1
 10
-77.16667203785728
 20
15.91263699378227
 30
0.0
  0
SEQEND
  5
191
  8
PLAN_1
  0
POLYLINE
  5
54
  8
PLAN_1
 66
     1
 10
0.0
 20
0.0
 30
0.0
 70
     1
  0
VERTEX
  5
192
  8
PLAN_1
 10
-74.52692672775385
 20
32.68576989878984
 30
0.0
  0
VERTEX
  5
193
  8
PLAN_1
 10
-73.09679594101257
 20
30.02868676698548
 30
0.0
  0
VERTEX
  5
194
  8
PLAN_1
 10
-71.66666515427126
 20
32.68576989878979
 30
0.0
  0
VERTEX
  5
195
  8
PLAN_1
 10
-65.15931023180174
 20
32.68576989878984
 30
0.0
  0
VERTEX
  5
196
  8
PLAN_1
 10
-69.64682694104542
 20
37.4999999999999
 30
0.0
  0
VERTEX
  5
197
  8
PLAN_1
 10
-76.54676494097974
 20
37.4999999999999
 30
0.0
  0
VERTEX
  5
198
  8
PLAN_1
 10
-81.03428165022339
 20
32.6857698987898
 30
0.0
  0
SEQEND
  5
199
  8
PLAN_1
  0
POLYLINE
  5
55
  8
PLAN_1
 66
     1
 10
0.0
 20
0.0
 30
0.0
 70
     1
  0
VERTEX
  5
19A
  8
PLAN_1
 10
-76.54693618716193
 20
-37.49999999999993
 30
0.0
  0
VERTEX
  5
19B
  8
PLAN_1
 10
-69.64665569486313
 20
-37.49999999999991
 30
0.0
  0
VERTEX
  5
19C
  8
PLAN_1
 10
-65.15931023180168
 20
-32.68595361254033
 30
0.0
  0
VERTEX
  5
19D
  8
PLAN_1
 10
-71.66666515427127
 20
-32.68595361254027
 30
0.0
  0
VERTEX
  5
19E
  8
PLAN_1
 10
-73.09679594101264
 20
-30.02887048073595
 30
0.0
  0
VERTEX
  5
19F
  8
PLAN_1
 10
-74.52692672775383
 20
-32.68595361254039
 30
0.0
  0
VERTEX
  5
1A0
  8
PLAN_1
 10
-81.03428165022338
 20
-32.68595361254026
 30
0.0
  0
SEQEND
  5
1A1
  8
PLAN_1
  0
POLYLINE
  5
56
  8
PLAN_1
 66
     1
 10
0.0
 20
0.0
 30
0.0
 70
     1
  0
VERTEX
  5
1A2
  8
PLAN_1
 10
-65.33392909456889
 20
-14.54890928735208
 30
0.0
  0
VERTEX
  5
1A3
  8
PLAN_1
 10
-60.67187655860783
 20
-18.87261258053397
 30
0.0
  0
VERTEX
  5
1A4
  8
PLAN_1
 10
-58.55870321286858
 20
-16.79256072597625
 30
0.0
  0
VERTEX
  5
1A5
  8
PLAN_1
 10
-56.94659158828388
 20
-16.90941757173787
 30
0.0
  0
VERTEX
  5
1A6
  8
PLAN_1
 10
-57.10978988808883
 20
-15.14467387458635
 30
0.0
  0
VERTEX
  5
1A7
  8
PLAN_1
 10
-55.0512711647858
 20
-12.93628481584094
 30
0.0
  0
VERTEX
  5
1A8
  8
PLAN_1
 10
-59.70762653079751
 20
-8.40223920028806
 30
0.0
  0
VERTEX
  5
1A9
  8
PLAN_1
 10
-65.52999672458606
 20
-8.402239200288056
 30
0.0
  0
SEQEND
  5
1AA
  8
PLAN_1
  0
POLYLINE
  5
57
  8
PLAN_1
 66
     1
 10
0.0
 20
0.0
 30
0.0
 70
     1
  0
VERTEX
  5
1AB
  8
PLAN_1
 10
-59.70762653079751
 20
8.402055486537579
 30
0.0
  0
VERTEX
  5
1AC
  8
PLAN_1
 10
-55.0512711647858
 20
12.9361011020905
 30
0.0
  0
VERTEX
  5
1AD
  8
PLAN_1
 10
-57.10978988808884
 20
15.1444901608358
 30
0.0
  0
VERTEX
  5
1AE
  8
PLAN_1
 10
-56.94659158828391
 20
16.90923385798746
 30
0.0
  0
VERTEX
  5
1AF
  8
PLAN_1
 10
-58.55870321286857
 20
16.79237701222578
 30
0.0
  0
VERTEX
  5
1B0
  8
PLAN_1
 10
-60.67187655860782
 20
18.87242886678351
 30
0.0
  0
VERTEX
  5
1B1
  8
PLAN_1
 10
-65.333929094569
 20
14.54872557360155
 30
0.0
  0
VERTEX
  5
1B2
  8
PLAN_1
 10
-65.52999672458607
 20
8.40205548653753
 30
0.0
  0
SEQEND
  5
1B3
  8
PLAN_1
  0
POLYLINE
  5
58
  8
PLAN_1
 66
     1
 10
0.0
 20
0.0
 30
0.0
 70
     1
  0
VERTEX
  5
1B4
  8
PLAN_1
 10
-69.4549021242228
 20
-29.2927078464189
 30
0.0
  0
VERTEX
  5
1B5
  8
PLAN_1
 10
-61.57757774439108
 20
-29.2927078464189
 30
0.0
  0
VERTEX
  5
1B6
  8
PLAN_1
 10
-54.82413715491484
 20
-22.74872448376513
 30
0.0
  0
VERTEX
  5
1B7
  8
PLAN_1
 10
-55.72278045915986
 20
-20.11944545412754
 30
0.0
  0
VERTEX
  5
1B8
  8
PLAN_1
 10
-58.41871037189412
 20
-19.82730333972339
 30
0.0
  0
VERTEX
  5
1B9
  8
PLAN_1
 10
-61.74096743607215
 20
-22.80715290664605
 30
0.0
  0
VERTEX
  5
1BA
  8
PLAN_1
 10
-65.49893034473222
 20
-19.18459068803415
 30
0.0
  0
VERTEX
  5
1BB
  8
PLAN_1
 10
-65.7460804174696
 20
-24.38472032442857
 30
0.0
  0
VERTEX
  5
1BC
  8
PLAN_1
 10
-69.85598878955581
 20
-24.38472032442858
 30
0.0
  0
VERTEX
  5
1BD
  8
PLAN_1
 10
-71.08141147716223
 20
-27.10164198838757
 30
0.0
  0
SEQEND
  5
1BE
  8
PLAN_1
  0
POLYLINE
  5
59
  8
PLAN_1
 66
     1
 10
0.0
 20
0.0
 30
0.0
 70
     1
  0
VERTEX
  5
1BF
  8
PLAN_1
 10
-69.85598878955581
 20
24.38453661067811
 30
0.0
  0
VERTEX
  5
1C0
  8
PLAN_1
 10
-65.74608041746964
 20
24.38453661067813
 30
0.0
  0
VERTEX
  5
1C1
  8
PLAN_1
 10
-65.4989303447323
 20
19.18440697428366
 30
0.0
  0
VERTEX
  5
1C2
  8
PLAN_1
 10
-61.74096743607215
 20
22.80696919289558
 30
0.0
  0
VERTEX
  5
1C3
  8
PLAN_1
 10
-58.41871037189419
 20
19.82711962597287
 30
0.0
  0
VERTEX
  5
1C4
  8
PLAN_1
 10
-55.72278045915984
 20
20.11926174037708
 30
0.0
  0
VERTEX
  5
1C5
  8
PLAN_1
 10
-54.82413715491482
 20
22.74854077001472
 30
0.0
  0
VERTEX
  5
1C6
  8
PLAN_1
 10
-61.57757774439109
 20
29.29252413266832
 30
0.0
  0
VERTEX
  5
1C7
  8
PLAN_1
 10
-69.45490212422281
 20
29.29252413266832
 30
0.0
  0
VERTEX
  5
1C8
  8
PLAN_1
 10
-71.08141147716235
 20
27.10145827463705
 30
0.0
  0
SEQEND
  5
1C9
  8
PLAN_1
  0
POLYLINE
  5
5A
  8
PLAN_1
 66
     1
 10
0.0
 20
0.0
 30
0.0
 70
     1
  0
VERTEX
  5
1CA
  8
PLAN_1
 10
-50.05299954881855
 20
-29.21428652475013
 30
0.0
  0
VERTEX
  5
1CB
  8
PLAN_1
 10
-44.60397939889832
 20
-35.06002226848804
 30
0.0
  0
VERTEX
  5
1CC
  8
PLAN_1
 10
-44.44448891263415
 20
-29.0157187783112
 30
0.0
  0
VERTEX
  5
1CD
  8
PLAN_1
 10
-39.30710344752656
 20
-29.0157187783112
 30
0.0
  0
VERTEX
  5
1CE
  8
PLAN_1
 10
-44.70898450741869
 20
-23.08686985174686
 30
0.0
  0
VERTEX
  5
1CF
  8
PLAN_1
 10
-44.84841037765302
 20
-17.3468615879336
 30
0.0
  0
VERTEX
  5
1D0
  8
PLAN_1
 10
-49.72919477254882
 20
-22.06949839351509
 30
0.0
  0
VERTEX
  5
1D1
  8
PLAN_1
 10
-51.87953920270038
 20
-21.45136636644301
 30
0.0
  0
VERTEX
  5
1D2
  8
PLAN_1
 10
-51.30335614919252
 20
-23.75826649726147
 30
0.0
  0
VERTEX
  5
1D3
  8
PLAN_1
 10
-56.38910828911813
 20
-29.21428652475013
 30
0.0
  0
SEQEND
  5
1D4
  8
PLAN_1
  0
POLYLINE
  5
5B
  8
PLAN_1
 66
     1
 10
0.0
 20
0.0
 30
0.0
 70
     1
  0
VERTEX
  5
1D5
  8
PLAN_1
 10
-48.72610374639422
 20
7.997119127650246
 30
0.0
  0
VERTEX
  5
1D6
  8
PLAN_1
 10
-48.72610374639422
 20
2.85313411468112
 30
0.0
  0
VERTEX
  5
1D7
  8
PLAN_1
 10
-46.35324704142553
 20
1.38342411097562
 30
0.0
  0
VERTEX
  5
1D8
  8
PLAN_1
 10
-44.37956280638675
 20
3.702630045908725
 30
0.0
  0
VERTEX
  5
1D9
  8
PLAN_1
 10
-44.37956280638666
 20
12.8883175690677
 30
0.0
  0
VERTEX
  5
1DA
  8
PLAN_1
 10
-51.21469824170353
 20
19.15694789788998
 30
0.0
  0
VERTEX
  5
1DB
  8
PLAN_1
 10
-53.8289333085975
 20
17.9883794402732
 30
0.0
  0
VERTEX
  5
1DC
  8
PLAN_1
 10
-53.69277523219678
 20
14.97931566191015
 30
0.0
  0
VERTEX
  5
1DD
  8
PLAN_1
 10
-50.69729755138073
 20
12.11632294074917
 30
0.0
  0
VERTEX
  5
1DE
  8
PLAN_1
 10
-54.89096630452338
 20
7.997119127650189
 30
0.0
  0
SEQEND
  5
1DF
  8
PLAN_1
  0
POLYLINE
  5
5C
  8
PLAN_1
 66
     1
 10
0.0
 20
0.0
 30
0.0
 70
     1
  0
VERTEX
  5
1E0
  8
PLAN_1
 10
-58.23448366266061
 20
-4.606088491349775
 30
0.0
  0
VERTEX
  5
1E1
  8
PLAN_1
 10
-51.55588255802061
 20
-4.606088491349775
 30
0.0
  0
VERTEX
  5
1E2
  8
PLAN_1
 10
-51.55588255802061
 20
-1.115527232549399
 30
0.0
  0
VERTEX
  5
1E3
  8
PLAN_1
 10
-49.75530123445969
 20
-0.0000918568752385
 30
0.0
  0
VERTEX
  5
1E4
  8
PLAN_1
 10
-51.55588255802061
 20
1.115343518798843
 30
0.0
  0
VERTEX
  5
1E5
  8
PLAN_1
 10
-51.55588255802062
 20
4.605904777599244
 30
0.0
  0
VERTEX
  5
1E6
  8
PLAN_1
 10
-58.23448366266058
 20
4.605904777599273
 30
0.0
  0
VERTEX
  5
1E7
  8
PLAN_1
 10
-62.34084378355166
 20
-0.0000918568752385
 30
0.0
  0
SEQEND
  5
1E8
  8
PLAN_1
  0
POLYLINE
  5
5D
  8
PLAN_1
 66
     1
 10
0.0
 20
0.0
 30
0.0
 70
     1
  0
VERTEX
  5
1E9
  8
PLAN_1
 10
-60.03924503840945
 20
32.77942454872183
 30
0.0
  0
VERTEX
  5
1EA
  8
PLAN_1
 10
-51.81942829423735
 20
32.77942454872183
 30
0.0
  0
VERTEX
  5
1EB
  8
PLAN_1
 10
-47.41921044641771
 20
37.49999999999991
 30
0.0
  0
VERTEX
  5
1EC
  8
PLAN_1
 10
-64.43946288622928
 20
37.49999999999991
 30
0.0
  0
SEQEND
  5
1ED
  8
PLAN_1
  0
POLYLINE
  5
5E
  8
PLAN_1
 66
     1
 10
0.0
 20
0.0
 30
0.0
 70
     1
  0
VERTEX
  5
1EE
  8
PLAN_1
 10
-47.41921044641757
 20
-37.49999999999997
 30
0.0
  0
VERTEX
  5
1EF
  8
PLAN_1
 10
-51.81942829423737
 20
-32.77960826247235
 30
0.0
  0
VERTEX
  5
1F0
  8
PLAN_1
 10
-60.03924503840946
 20
-32.77960826247235
 30
0.0
  0
VERTEX
  5
1F1
  8
PLAN_1
 10
-64.43946288622925
 20
-37.49999999999999
 30
0.0
  0
SEQEND
  5
1F2
  8
PLAN_1
  0
POLYLINE
  5
5F
  8
PLAN_1
 66
     1
 10
0.0
 20
0.0
 30
0.0
 70
     1
  0
VERTEX
  5
1F3
  8
PLAN_1
 10
-50.69729755138078
 20
-12.11650665449972
 30
0.0
  0
VERTEX
  5
1F4
  8
PLAN_1
 10
-53.69277523219678
 20
-14.9794993756606
 30
0.0
  0
VERTEX
  5
1F5
  8
PLAN_1
 10
-53.8289333085975
 20
-17.98856315402369
 30
0.0
  0
VERTEX
  5
1F6
  8
PLAN_1
 10
-51.21469824170345
 20
-19.15713161164038
 30
0.0
  0
VERTEX
  5
1F7
  8
PLAN_1
 10
-44.37956280638675
 20
-12.88850128281823
 30
0.0
  0
VERTEX
  5
1F8
  8
PLAN_1
 10
-44.37956280638666
 20
-3.702813759659167
 30
0.0
  0
VERTEX
  5
1F9
  8
PLAN_1
 10
-46.35324704142554
 20
-1.383607824726118
 30
0.0
  0
VERTEX
  5
1FA
  8
PLAN_1
 10
-48.72610374639422
 20
-2.853317828431477
 30
0.0
  0
VERTEX
  5
1FB
  8
PLAN_1
 10
-48.72610374639422
 20
-7.997302841400687
 30
0.0
  0
VERTEX
  5
1FC
  8
PLAN_1
 10
-54.89096630452337
 20
-7.997302841400691
 30
0.0
  0
SEQEND
  5
1FD
  8
PLAN_1
  0
POLYLINE
  5
60
  8
PLAN_1
 66
     1
 10
0.0
 20
0.0
 30
0.0
 70
     1
  0
VERTEX
  5
1FE
  8
PLAN_1
 10
-51.30335614919261
 20
23.75808278351099
 30
0.0
  0
VERTEX
  5
1FF
  8
PLAN_1
 10
-51.87953920270039
 20
21.45118265269249
 30
0.0
  0
VERTEX
  5
200
  8
PLAN_1
 10
-49.72919477254889
 20
22.06931467976463
 30
0.0
  0
VERTEX
  5
201
  8
PLAN_1
 10
-44.84841037765305
 20
17.34667787418305
 30
0.0
  0
VERTEX
  5
202
  8
PLAN_1
 10
-44.70898450741866
 20
23.08668613799651
 30
0.0
  0
VERTEX
  5
203
  8
PLAN_1
 10
-39.30710344752657
 20
29.01553506456073
 30
0.0
  0
VERTEX
  5
204
  8
PLAN_1
 10
-44.44448891263416
 20
29.01553506456073
 30
0.0
  0
VERTEX
  5
205
  8
PLAN_1
 10
-44.6039793988983
 20
35.05983855473747
 30
0.0
  0
VERTEX
  5
206
  8
PLAN_1
 10
-50.05299954881869
 20
29.21410281099964
 30
0.0
  0
VERTEX
  5
207
  8
PLAN_1
 10
-56.38910828911814
 20
29.21410281099969
 30
0.0
  0
SEQEND
  5
208
  8
PLAN_1
  0
POLYLINE
  5
61
  8
PLAN_1
 66
     1
 10
0.0
 20
0.0
 30
0.0
 70
     1
  0
VERTEX
  5
209
  8
PLAN_1
 10
-36.5507871703272
 20
9.78786208899376
 30
0.0
  0
VERTEX
  5
20A
  8
PLAN_1
 10
-31.99200648905972
 20
13.19692100645278
 30
0.0
  0
VERTEX
  5
20B
  8
PLAN_1
 10
-31.99200648905972
 20
22.0151810286855
 30
0.0
  0
VERTEX
  5
20C
  8
PLAN_1
 10
-36.55078717032708
 20
26.90500180361167
 30
0.0
  0
VERTEX
  5
20D
  8
PLAN_1
 10
-41.10956785159462
 20
22.0151810286855
 30
0.0
  0
VERTEX
  5
20E
  8
PLAN_1
 10
-41.10956785159465
 20
13.19692100645278
 30
0.0
  0
SEQEND
  5
20F
  8
PLAN_1
  0
POLYLINE
  5
62
  8
PLAN_1
 66
     1
 10
0.0
 20
0.0
 30
0.0
 70
     1
  0
VERTEX
  5
210
  8
PLAN_1
 10
-36.55078717032719
 20
-26.90518551736224
 30
0.0
  0
VERTEX
  5
211
  8
PLAN_1
 10
-31.99200648905969
 20
-22.01536474243599
 30
0.0
  0
VERTEX
  5
212
  8
PLAN_1
 10
-31.99200648905972
 20
-13.19710472020333
 30
0.0
  0
VERTEX
  5
213
  8
PLAN_1
 10
-36.55078717032719
 20
-9.788045802744108
 30
0.0
  0
VERTEX
  5
214
  8
PLAN_1
 10
-41.10956785159464
 20
-13.19710472020322
 30
0.0
  0
VERTEX
  5
215
  8
PLAN_1
 10
-41.10956785159465
 20
-22.01536474243599
 30
0.0
  0
SEQEND
  5
216
  8
PLAN_1
  0
POLYLINE
  5
63
  8
PLAN_1
 66
     1
 10
0.0
 20
0.0
 30
0.0
 70
     1
  0
VERTEX
  5
217
  8
PLAN_1
 10
-41.14553896783245
 20
-37.49999999999997
 30
0.0
  0
VERTEX
  5
218
  8
PLAN_1
 10
-36.55078717032719
 20
-37.49981628624946
 30
0.0
  0
VERTEX
  5
219
  8
PLAN_1
 10
-31.9560353728219
 20
-37.49999999999991
 30
0.0
  0
VERTEX
  5
21A
  8
PLAN_1
 10
-31.95603537282189
 20
-32.66958319781131
 30
0.0
  0
VERTEX
  5
21B
  8
PLAN_1
 10
-34.69597428754601
 20
-32.66958319781131
 30
0.0
  0
VERTEX
  5
21C
  8
PLAN_1
 10
-36.5507871703272
 20
-30.68059243904096
 30
0.0
  0
VERTEX
  5
21D
  8
PLAN_1
 10
-38.40560005310832
 20
-32.66958319781119
 30
0.0
  0
VERTEX
  5
21E
  8
PLAN_1
 10
-41.14553896783254
 20
-32.66958319781131
 30
0.0
  0
SEQEND
  5
21F
  8
PLAN_1
  0
POLYLINE
  5
64
  8
PLAN_1
 66
     1
 10
0.0
 20
0.0
 30
0.0
 70
     1
  0
VERTEX
  5
220
  8
PLAN_1
 10
-41.14553896783251
 20
32.66939948406076
 30
0.0
  0
VERTEX
  5
221
  8
PLAN_1
 10
-38.40560005310834
 20
32.66939948406078
 30
0.0
  0
VERTEX
  5
222
  8
PLAN_1
 10
-36.5507871703272
 20
30.68040872529044
 30
0.0
  0
VERTEX
  5
223
  8
PLAN_1
 10
-34.69597428754602
 20
32.66939948406076
 30
0.0
  0
VERTEX
  5
224
  8
PLAN_1
 10
-31.95603537282188
 20
32.66939948406079
 30
0.0
  0
VERTEX
  5
225
  8
PLAN_1
 10
-31.95603537282185
 20
37.49999999999986
 30
0.0
  0
VERTEX
  5
226
  8
PLAN_1
 10
-36.5507871703272
 20
37.49999999999989
 30
0.0
  0
VERTEX
  5
227
  8
PLAN_1
 10
-41.14553896783254
 20
37.49999999999991
 30
0.0
  0
SEQEND
  5
228
  8
PLAN_1
  0
POLYLINE
  5
65
  8
PLAN_1
 66
     1
 10
0.0
 20
0.0
 30
0.0
 70
     1
  0
VERTEX
  5
229
  8
PLAN_1
 10
-41.16078588027358
 20
-1.337566045675858
 30
0.0
  0
VERTEX
  5
22A
  8
PLAN_1
 10
-41.16078588027357
 20
-8.134974812813565
 30
0.0
  0
VERTEX
  5
22B
  8
PLAN_1
 10
-36.55078717032719
 20
-4.493827666772154
 30
0.0
  0
VERTEX
  5
22C
  8
PLAN_1
 10
-31.94078846038087
 20
-8.134974812813567
 30
0.0
  0
VERTEX
  5
22D
  8
PLAN_1
 10
-31.94078846038087
 20
-1.337566045675858
 30
0.0
  0
VERTEX
  5
22E
  8
PLAN_1
 10
-29.78172397676632
 20
-0.0000918568752297
 30
0.0
  0
VERTEX
  5
22F
  8
PLAN_1
 10
-31.94078846038087
 20
1.337382331925424
 30
0.0
  0
VERTEX
  5
230
  8
PLAN_1
 10
-31.94078846038078
 20
8.134791099063136
 30
0.0
  0
VERTEX
  5
231
  8
PLAN_1
 10
-36.5507871703272
 20
4.493643953021602
 30
0.0
  0
VERTEX
  5
232
  8
PLAN_1
 10
-41.16078588027349
 20
8.134791099063134
 30
0.0
  0
VERTEX
  5
233
  8
PLAN_1
 10
-41.16078588027358
 20
1.337382331925395
 30
0.0
  0
VERTEX
  5
234
  8
PLAN_1
 10
-43.31985036388804
 20
-0.0000918568752314
 30
0.0
  0
SEQEND
  5
235
  8
PLAN_1
  0
POLYLINE
  5
66
  8
PLAN_1
 66
     1
 10
0.0
 20
0.0
 30
0.0
 70
     1
  0
VERTEX
  5
236
  8
PLAN_1
 10
-28.39258983323577
 20
23.0866861379964
 30
0.0
  0
VERTEX
  5
237
  8
PLAN_1
 10
-28.2531639630013
 20
17.34667787418306
 30
0.0
  0
VERTEX
  5
238
  8
PLAN_1
 10
-23.37237956810547
 20
22.06931467976461
 30
0.0
  0
VERTEX
  5
239
  8
PLAN_1
 10
-21.222035137954
 20
21.45118265269249
 30
0.0
  0
VERTEX
  5
23A
  8
PLAN_1
 10
-21.79821819146185
 20
23.75808278351099
 30
0.0
  0
VERTEX
  5
23B
  8
PLAN_1
 10
-16.71246605153627
 20
29.21410281099969
 30
0.0
  0
VERTEX
  5
23C
  8
PLAN_1
 10
-23.04857479183562
 20
29.21410281099972
 30
0.0
  0
VERTEX
  5
23D
  8
PLAN_1
 10
-28.49759494175588
 20
35.05983855473747
 30
0.0
  0
VERTEX
  5
23E
  8
PLAN_1
 10
-28.65708542802015
 20
29.01553506456074
 30
0.0
  0
VERTEX
  5
23F
  8
PLAN_1
 10
-33.79447089312769
 20
29.01553506456074
 30
0.0
  0
SEQEND
  5
240
  8
PLAN_1
  0
POLYLINE
  5
67
  8
PLAN_1
 66
     1
 10
0.0
 20
0.0
 30
0.0
 70
     1
  0
VERTEX
  5
241
  8
PLAN_1
 10
-21.88687609895073
 20
-19.15713161164038
 30
0.0
  0
VERTEX
  5
242
  8
PLAN_1
 10
-19.27264103205678
 20
-17.98856315402364
 30
0.0
  0
VERTEX
  5
243
  8
PLAN_1
 10
-19.40879910845739
 20
-14.97949937566065
 30
0.0
  0
VERTEX
  5
244
  8
PLAN_1
 10
-22.40427678927357
 20
-12.11650665449971
 30
0.0
  0
VERTEX
  5
245
  8
PLAN_1
 10
-18.21060803613109
 20
-7.997302841400679
 30
0.0
  0
VERTEX
  5
246
  8
PLAN_1
 10
-24.37547059426022
 20
-7.997302841400682
 30
0.0
  0
VERTEX
  5
247
  8
PLAN_1
 10
-24.37547059426023
 20
-2.853317828431472
 30
0.0
  0
VERTEX
  5
248
  8
PLAN_1
 10
-26.74832729922866
 20
-1.383607824726113
 30
0.0
  0
VERTEX
  5
249
  8
PLAN_1
 10
-28.72201153426751
 20
-3.702813759659163
 30
0.0
  0
VERTEX
  5
24A
  8
PLAN_1
 10
-28.72201153426756
 20
-12.88850128281828
 30
0.0
  0
SEQEND
  5
24B
  8
PLAN_1
  0
POLYLINE
  5
68
  8
PLAN_1
 66
     1
 10
0.0
 20
0.0
 30
0.0
 70
     1
  0
VERTEX
  5
24C
  8
PLAN_1
 10
-28.72201153426751
 20
3.702630045908734
 30
0.0
  0
VERTEX
  5
24D
  8
PLAN_1
 10
-26.74832729922866
 20
1.383424110975625
 30
0.0
  0
VERTEX
  5
24E
  8
PLAN_1
 10
-24.37547059426014
 20
2.853134114681039
 30
0.0
  0
VERTEX
  5
24F
  8
PLAN_1
 10
-24.37547059426014
 20
7.997119127650162
 30
0.0
  0
VERTEX
  5
250
  8
PLAN_1
 10
-18.21060803613109
 20
7.997119127650192
 30
0.0
  0
VERTEX
  5
251
  8
PLAN_1
 10
-22.40427678927363
 20
12.1163229407492
 30
0.0
  0
VERTEX
  5
252
  8
PLAN_1
 10
-19.40879910845742
 20
14.97931566191016
 30
0.0
  0
VERTEX
  5
253
  8
PLAN_1
 10
-19.27264103205678
 20
17.98837944027326
 30
0.0
  0
VERTEX
  5
254
  8
PLAN_1
 10
-21.88687609895071
 20
19.15694789788986
 30
0.0
  0
VERTEX
  5
255
  8
PLAN_1
 10
-28.72201153426757
 20
12.8883175690677
 30
0.0
  0
SEQEND
  5
256
  8
PLAN_1
  0
POLYLINE
  5
69
  8
PLAN_1
 66
     1
 10
0.0
 20
0.0
 30
0.0
 70
     1
  0
VERTEX
  5
257
  8
PLAN_1
 10
-28.65708542802013
 20
-29.0157187783113
 30
0.0
  0
VERTEX
  5
258
  8
PLAN_1
 10
-28.49759494175589
 20
-35.06002226848804
 30
0.0
  0
VERTEX
  5
259
  8
PLAN_1
 10
-23.04857479183562
 20
-29.21428652475012
 30
0.0
  0
VERTEX
  5
25A
  8
PLAN_1
 10
-16.71246605153629
 20
-29.21428652475012
 30
0.0
  0
VERTEX
  5
25B
  8
PLAN_1
 10
-21.79821819146185
 20
-23.75826649726147
 30
0.0
  0
VERTEX
  5
25C
  8
PLAN_1
 10
-21.22203513795388
 20
-21.45136636644301
 30
0.0
  0
VERTEX
  5
25D
  8
PLAN_1
 10
-23.37237956810535
 20
-22.06949839351503
 30
0.0
  0
VERTEX
  5
25E
  8
PLAN_1
 10
-28.25316396300131
 20
-17.3468615879336
 30
0.0
  0
VERTEX
  5
25F
  8
PLAN_1
 10
-28.39258983323579
 20
-23.08686985174697
 30
0.0
  0
VERTEX
  5
260
  8
PLAN_1
 10
-33.7944708931276
 20
-29.01571877831119
 30
0.0
  0
SEQEND
  5
261
  8
PLAN_1
  0
POLYLINE
  5
6A
  8
PLAN_1
 66
     1
 10
0.0
 20
0.0
 30
0.0
 70
     1
  0
VERTEX
  5
262
  8
PLAN_1
 10
-13.39394780985693
 20
8.402055486537508
 30
0.0
  0
VERTEX
  5
263
  8
PLAN_1
 10
-7.571577616068248
 20
8.402055486537593
 30
0.0
  0
VERTEX
  5
264
  8
PLAN_1
 10
-7.767645246085287
 20
14.54872557360162
 30
0.0
  0
VERTEX
  5
265
  8
PLAN_1
 10
-12.42969778204624
 20
18.87242886678351
 30
0.0
  0
VERTEX
  5
266
  8
PLAN_1
 10
-14.54287112778569
 20
16.79237701222573
 30
0.0
  0
VERTEX
  5
267
  8
PLAN_1
 10
-16.1549827523704
 20
16.9092338579874
 30
0.0
  0
VERTEX
  5
268
  8
PLAN_1
 10
-15.99178445256543
 20
15.14449016083586
 30
0.0
  0
VERTEX
  5
269
  8
PLAN_1
 10
-18.05030317586853
 20
12.9361011020905
 30
0.0
  0
SEQEND
  5
26A
  8
PLAN_1
  0
POLYLINE
  5
6B
  8
PLAN_1
 66
     1
 10
0.0
 20
0.0
 30
0.0
 70
     1
  0
VERTEX
  5
26B
  8
PLAN_1
 10
-21.54569178263354
 20
-1.115527232549395
 30
0.0
  0
VERTEX
  5
26C
  8
PLAN_1
 10
-21.54569178263354
 20
-4.606088491349764
 30
0.0
  0
VERTEX
  5
26D
  8
PLAN_1
 10
-14.86709067799362
 20
-4.606088491349764
 30
0.0
  0
VERTEX
  5
26E
  8
PLAN_1
 10
-10.76073055710266
 20
-0.0000918568752279
 30
0.0
  0
VERTEX
  5
26F
  8
PLAN_1
 10
-14.86709067799363
 20
4.605904777599251
 30
0.0
  0
VERTEX
  5
270
  8
PLAN_1
 10
-21.54569178263354
 20
4.605904777599248
 30
0.0
  0
VERTEX
  5
271
  8
PLAN_1
 10
-21.54569178263353
 20
1.115343518798909
 30
0.0
  0
VERTEX
  5
272
  8
PLAN_1
 10
-23.34627310619458
 20
-0.0000918568751995
 30
0.0
  0
SEQEND
  5
273
  8
PLAN_1
  0
POLYLINE
  5
6C
  8
PLAN_1
 66
     1
 10
0.0
 20
0.0
 30
0.0
 70
     1
  0
VERTEX
  5
274
  8
PLAN_1
 10
-8.662111454425032
 20
-37.49999999999997
 30
0.0
  0
VERTEX
  5
275
  8
PLAN_1
 10
-13.06232930224484
 20
-32.77960826247229
 30
0.0
  0
VERTEX
  5
276
  8
PLAN_1
 10
-21.28214604641689
 20
-32.77960826247235
 30
0.0
  0
VERTEX
  5
277
  8
PLAN_1
 10
-25.68236389423659
 20
-37.49999999999997
 30
0.0
  0
SEQEND
  5
278
  8
PLAN_1
  0
POLYLINE
  5
6D
  8
PLAN_1
 66
     1
 10
0.0
 20
0.0
 30
0.0
 70
     1
  0
VERTEX
  5
279
  8
PLAN_1
 10
-21.2821460464169
 20
32.77942454872186
 30
0.0
  0
VERTEX
  5
27A
  8
PLAN_1
 10
-13.06232930224485
 20
32.77942454872189
 30
0.0
  0
VERTEX
  5
27B
  8
PLAN_1
 10
-8.66211145442505
 20
37.49999999999997
 30
0.0
  0
VERTEX
  5
27C
  8
PLAN_1
 10
-25.68236389423664
 20
37.49999999999986
 30
0.0
  0
SEQEND
  5
27D
  8
PLAN_1
  0
POLYLINE
  5
6E
  8
PLAN_1
 66
     1
 10
0.0
 20
0.0
 30
0.0
 70
     1
  0
VERTEX
  5
27E
  8
PLAN_1
 10
-15.99178445256535
 20
-15.14467387458634
 30
0.0
  0
VERTEX
  5
27F
  8
PLAN_1
 10
-16.15498275237028
 20
-16.90941757173786
 30
0.0
  0
VERTEX
  5
280
  8
PLAN_1
 10
-14.54287112778576
 20
-16.79256072597624
 30
0.0
  0
VERTEX
  5
281
  8
PLAN_1
 10
-12.42969778204626
 20
-18.87261258053396
 30
0.0
  0
VERTEX
  5
282
  8
PLAN_1
 10
-7.767645246085284
 20
-14.54890928735207
 30
0.0
  0
VERTEX
  5
283
  8
PLAN_1
 10
-7.571577616068216
 20
-8.402239200287992
 30
0.0
  0
VERTEX
  5
284
  8
PLAN_1
 10
-13.39394780985686
 20
-8.402239200288106
 30
0.0
  0
VERTEX
  5
285
  8
PLAN_1
 10
-18.05030317586853
 20
-12.93628481584093
 30
0.0
  0
SEQEND
  5
286
  8
PLAN_1
  0
POLYLINE
  5
6F
  8
PLAN_1
 66
     1
 10
0.0
 20
0.0
 30
0.0
 70
     1
  0
VERTEX
  5
287
  8
PLAN_1
 10
-11.52399659626318
 20
-29.29270784641889
 30
0.0
  0
VERTEX
  5
288
  8
PLAN_1
 10
-3.646672216431352
 20
-29.29270784641888
 30
0.0
  0
VERTEX
  5
289
  8
PLAN_1
 10
-2.02016286349202
 20
-27.10164198838751
 30
0.0
  0
VERTEX
  5
28A
  8
PLAN_1
 10
-3.245585551098651
 20
-24.38472032442862
 30
0.0
  0
VERTEX
  5
28B
  8
PLAN_1
 10
-7.355493923184627
 20
-24.38472032442857
 30
0.0
  0
VERTEX
  5
28C
  8
PLAN_1
 10
-7.602643995922018
 20
-19.18459068803415
 30
0.0
  0
VERTEX
  5
28D
  8
PLAN_1
 10
-11.36060690458211
 20
-22.80715290664599
 30
0.0
  0
VERTEX
  5
28E
  8
PLAN_1
 10
-14.68286396876016
 20
-19.82730333972338
 30
0.0
  0
VERTEX
  5
28F
  8
PLAN_1
 10
-17.37879388149458
 20
-20.11944545412754
 30
0.0
  0
VERTEX
  5
290
  8
PLAN_1
 10
-18.27743718573943
 20
-22.74872448376518
 30
0.0
  0
SEQEND
  5
291
  8
PLAN_1
  0
POLYLINE
  5
70
  8
PLAN_1
 66
     1
 10
0.0
 20
0.0
 30
0.0
 70
     1
  0
VERTEX
  5
292
  8
PLAN_1
 10
-17.37879388149459
 20
20.11926174037708
 30
0.0
  0
VERTEX
  5
293
  8
PLAN_1
 10
-14.68286396876016
 20
19.82711962597282
 30
0.0
  0
VERTEX
  5
294
  8
PLAN_1
 10
-11.36060690458212
 20
22.80696919289559
 30
0.0
  0
VERTEX
  5
295
  8
PLAN_1
 10
-7.602643995921943
 20
19.18440697428366
 30
0.0
  0
VERTEX
  5
296
  8
PLAN_1
 10
-7.35549392318468
 20
24.38453661067814
 30
0.0
  0
VERTEX
  5
297
  8
PLAN_1
 10
-3.245585551098658
 20
24.38453661067814
 30
0.0
  0
VERTEX
  5
298
  8
PLAN_1
 10
-2.020162863491979
 20
27.10145827463706
 30
0.0
  0
VERTEX
  5
299
  8
PLAN_1
 10
-3.646672216431362
 20
29.29252413266838
 30
0.0
  0
VERTEX
  5
29A
  8
PLAN_1
 10
-11.52399659626313
 20
29.29252413266832
 30
0.0
  0
VERTEX
  5
29B
  8
PLAN_1
 10
-18.27743718573944
 20
22.74854077001476
 30
0.0
  0
SEQEND
  5
29C
  8
PLAN_1
  0
POLYLINE
  5
71
  8
PLAN_1
 66
     1
 10
0.0
 20
0.0
 30
0.0
 70
     1
  0
VERTEX
  5
29D
  8
PLAN_1
 10
-77.57236080072342
 20
-4.386487931092104
 30
0.0
  0
VERTEX
  5
29E
  8
PLAN_1
 10
-77.57236080072337
 20
-11.00018294776667
 30
0.0
  0
VERTEX
  5
29F
  8
PLAN_1
 10
-73.09679594101264
 20
-7.062520751450661
 30
0.0
  0
VERTEX
  5
2A0
  8
PLAN_1
 10
-68.62123108130167
 20
-11.00018294776672
 30
0.0
  0
VERTEX
  5
2A1
  8
PLAN_1
 10
-68.62123108130167
 20
-4.386487931092153
 30
0.0
  0
VERTEX
  5
2A2
  8
PLAN_1
 10
-63.14135325185359
 20
-4.38648793109215
 30
0.0
  0
VERTEX
  5
2A3
  8
PLAN_1
 10
-66.75290222485093
 20
-0.0000918568752421
 30
0.0
  0
VERTEX
  5
2A4
  8
PLAN_1
 10
-63.14135325185359
 20
4.38630421734168
 30
0.0
  0
VERTEX
  5
2A5
  8
PLAN_1
 10
-68.62123108130176
 20
4.386304217341655
 30
0.0
  0
VERTEX
  5
2A6
  8
PLAN_1
 10
-68.6212310813017
 20
10.99999923401625
 30
0.0
  0
VERTEX
  5
2A7
  8
PLAN_1
 10
-73.09679594101264
 20
7.062337037700184
 30
0.0
  0
VERTEX
  5
2A8
  8
PLAN_1
 10
-77.57236080072342
 20
10.99999923401628
 30
0.0
  0
VERTEX
  5
2A9
  8
PLAN_1
 10
-77.5723608007235
 20
4.386304217341712
 30
0.0
  0
VERTEX
  5
2AA
  8
PLAN_1
 10
-83.0522386301716
 20
4.386304217341712
 30
0.0
  0
VERTEX
  5
2AB
  8
PLAN_1
 10
-79.4406896571743
 20
-0.0000918568752918
 30
0.0
  0
VERTEX
  5
2AC
  8
PLAN_1
 10
-83.0522386301716
 20
-4.386487931092111
 30
0.0
  0
SEQEND
  5
2AD
  8
PLAN_1
  0
POLYLINE
  5
72
  8
PLAN_1
 66
     1
 10
0.0
 20
0.0
 30
0.0
  0
VERTEX
  5
2AE
  8
PLAN_1
 10
-0.0009999999999869
 20
-30.03589048341415
 30
0.0
  0
VERTEX
  5
2AF
  8
PLAN_1
 10
-0.0047783996416921
 20
-30.02887048073588
 30
0.0
  0
VERTEX
  5
2B0
  8
PLAN_1
 10
-1.434909186382955
 20
-32.68595361254037
 30
0.0
  0
VERTEX
  5
2B1
  8
PLAN_1
 10
-7.942264108852513
 20
-32.68595361254032
 30
0.0
  0
VERTEX
  5
2B2
  8
PLAN_1
 10
-3.454918645791031
 20
-37.49999999999991
 30
0.0
  0
VERTEX
  5
2B3
  8
PLAN_1
 10
-0.0116388113534977
 20
-37.49999999999994
 30
0.0
  0
SEQEND
  5
2B4
  8
PLAN_1
  0
POLYLINE
  5
73
  8
PLAN_1
 66
     1
 10
0.0
 20
0.0
 30
0.0
  0
VERTEX
  5
2B5
  8
PLAN_1
 10
-0.0047783996417835
 20
-11.5468212328694
 30
0.0
  0
VERTEX
  5
2B6
  8
PLAN_1
 10
-4.074654496486545
 20
-15.91282070753274
 30
0.0
  0
VERTEX
  5
2B7
  8
PLAN_1
 10
-4.074654496486543
 20
-22.34280197374405
 30
0.0
  0
VERTEX
  5
2B8
  8
PLAN_1
 10
-0.8209770352516904
 20
-22.34280197374411
 30
0.0
  0
VERTEX
  5
2B9
  8
PLAN_1
 10
-0.0047783996416938
 20
-23.85910544250609
 30
0.0
  0
VERTEX
  5
2BA
  8
PLAN_1
 10
-0.0010004305662825
 20
-23.85208687206993
 30
0.0
  0
SEQEND
  5
2BB
  8
PLAN_1
  0
POLYLINE
  5
74
  8
PLAN_1
 66
     1
 10
0.0
 20
0.0
 30
0.0
  0
VERTEX
  5
2BC
  8
PLAN_1
 10
-0.0047783996417871
 20
7.062337037700193
 30
0.0
  0
VERTEX
  5
2BD
  8
PLAN_1
 10
-4.480343259352505
 20
10.99999923401626
 30
0.0
  0
VERTEX
  5
2BE
  8
PLAN_1
 10
-4.480343259352644
 20
4.386304217341663
 30
0.0
  0
VERTEX
  5
2BF
  8
PLAN_1
 10
-9.960221088800692
 20
4.386304217341662
 30
0.0
  0
VERTEX
  5
2C0
  8
PLAN_1
 10
-6.34867211580343
 20
-0.000091856875227
 30
0.0
  0
VERTEX
  5
2C1
  8
PLAN_1
 10
-9.96022108880069
 20
-4.386487931092202
 30
0.0
  0
VERTEX
  5
2C2
  8
PLAN_1
 10
-4.480343259352642
 20
-4.386487931092202
 30
0.0
  0
VERTEX
  5
2C3
  8
PLAN_1
 10
-4.4803432593525
 20
-11.00018294776671
 30
0.0
  0
VERTEX
  5
2C4
  8
PLAN_1
 10
-0.0047783996417849
 20
-7.062520751450645
 30
0.0
  0
SEQEND
  5
2C5
  8
PLAN_1
  0
POLYLINE
  5
75
  8
PLAN_1
 66
     1
 10
0.0
 20
0.0
 30
0.0
  0
VERTEX
  5
2C6
  8
PLAN_1
 10
-0.0010004305664192
 20
23.85190315831951
 30
0.0
  0
VERTEX
  5
2C7
  8
PLAN_1
 10
-0.0047783996417844
 20
23.85892172875558
 30
0.0
  0
VERTEX
  5
2C8
  8
PLAN_1
 10
-0.8209770352516975
 20
22.34261825999355
 30
0.0
  0
VERTEX
  5
2C9
  8
PLAN_1
 10
-4.07465449648655
 20
22.34261825999355
 30
0.0
  0
VERTEX
  5
2CA
  8
PLAN_1
 10
-4.074654496486549
 20
15.91263699378221
 30
0.0
  0
VERTEX
  5
2CB
  8
PLAN_1
 10
-0.0047783996417045
 20
11.54663751911892
 30
0.0
  0
SEQEND
  5
2CC
  8
PLAN_1
  0
POLYLINE
  5
76
  8
PLAN_1
 66
     1
 10
0.0
 20
0.0
 30
0.0
  0
VERTEX
  5
2CD
  8
PLAN_1
 10
-0.0116388113535083
 20
37.49999999999991
 30
0.0
  0
VERTEX
  5
2CE
  8
PLAN_1
 10
-3.45474739960885
 20
37.49999999999991
 30
0.0
  0
VERTEX
  5
2CF
  8
PLAN_1
 10
-7.942264108852584
 20
32.68576989878986
 30
0.0
  0
VERTEX
  5
2D0
  8
PLAN_1
 10
-1.434909186382963
 20
32.68576989878986
 30
0.0
  0
VERTEX
  5
2D1
  8
PLAN_1
 10
-0.0047783996417027
 20
30.02868676698543
 30
0.0
  0
VERTEX
  5
2D2
  8
PLAN_1
 10
-0.0009999999999976
 20
30.03570676966371
 30
0.0
  0
SEQEND
  5
2D3
  8
PLAN_1
  0
POLYLINE
  5
77
  8
PLAN_1
 66
     1
 10
0.0
 20
0.0
 30
0.0
 70
     1
  0
VERTEX
  5
2D4
  8
PLAN_1
 10
134.0849223787565
 20
0.0000000000000161
 30
0.0
 42
0.0752519771137664
  0
VERTEX
  5
2D5
  8
PLAN_1
 10
129.3332914742397
 20
-4.606088491349736
 30
0.0
  0
VERTEX
  5
2D6
  8
PLAN_1
 10
123.705975729818
 20
-4.606088491349736
 30
0.0
  0
VERTEX
  5
2D7
  8
PLAN_1
 10
123.705975729818
 20
-1.115527232549381
 30
0.0
  0
VERTEX
  5
2D8
  8
PLAN_1
 10
121.9461681640997
 20
-0.0000918568751781
 30
0.0
  0
VERTEX
  5
2D9
  8
PLAN_1
 10
123.705975729818
 20
1.115343518798925
 30
0.0
  0
VERTEX
  5
2DA
  8
PLAN_1
 10
123.7059757298179
 20
4.60590477759928
 30
0.0
  0
VERTEX
  5
2DB
  8
PLAN_1
 10
129.3337326647863
 20
4.605904777599322
 30
0.0
 42
0.0752115290869143
  0
SEQEND
  5
2DC
  8
PLAN_1
  0
POLYLINE
  5
78
  8
PLAN_1
 66
     1
 10
0.0
 20
0.0
 30
0.0
 70
     1
  0
VERTEX
  5
2DD
  8
PLAN_1
 10
124.0313543605543
 20
-8.116316978609339
 30
0.0
  0
VERTEX
  5
2DE
  8
PLAN_1
 10
122.9068113797488
 20
-8.44923924954814
 30
0.0
  0
VERTEX
  5
2DF
  8
PLAN_1
 10
121.798240581235
 20
-8.851191687931623
 30
0.0
  0
VERTEX
  5
2E0
  8
PLAN_1
 10
120.7119471945408
 20
-9.320915022380879
 30
0.0
  0
VERTEX
  5
2E1
  8
PLAN_1
 10
119.6540840133177
 20
-9.856386728095897
 30
0.0
  0
VERTEX
  5
2E2
  8
PLAN_1
 10
118.630536707805
 20
-10.45484756322778
 30
0.0
  0
VERTEX
  5
2E3
  8
PLAN_1
 10
117.646815193897
 20
-11.11284856320898
 30
0.0
  0
VERTEX
  5
2E4
  8
PLAN_1
 10
116.7079552416445
 20
-11.8263168302652
 30
0.0
  0
VERTEX
  5
2E5
  8
PLAN_1
 10
116.6921621199103
 20
-11.8398870619171
 30
0.0
  0
VERTEX
  5
2E6
  8
PLAN_1
 10
116.6921621199103
 20
-3.702813759659142
 30
0.0
  0
VERTEX
  5
2E7
  8
PLAN_1
 10
118.6211527207295
 20
-1.38360782472609
 30
0.0
  0
VERTEX
  5
2E8
  8
PLAN_1
 10
120.9402766209542
 20
-2.853317828431498
 30
0.0
  0
VERTEX
  5
2E9
  8
PLAN_1
 10
120.9402766209542
 20
-7.997302841400666
 30
0.0
  0
VERTEX
  5
2EA
  8
PLAN_1
 10
124.5438142063424
 20
-7.997302841400659
 30
0.0
  0
SEQEND
  5
2EB
  8
PLAN_1
  0
POLYLINE
  5
79
  8
PLAN_1
 66
     1
 10
0.0
 20
0.0
 30
0.0
 70
     1
  0
VERTEX
  5
2EC
  8
PLAN_1
 10
120.9402766209542
 20
7.997119127650217
 30
0.0
  0
VERTEX
  5
2ED
  8
PLAN_1
 10
120.9402766209542
 20
2.853134114681128
 30
0.0
  0
VERTEX
  5
2EE
  8
PLAN_1
 10
118.6211527207295
 20
1.383424110975655
 30
0.0
  0
VERTEX
  5
2EF
  8
PLAN_1
 10
116.6921621199103
 20
3.702630045908757
 30
0.0
  0
VERTEX
  5
2F0
  8
PLAN_1
 10
116.6921621199103
 20
11.83997877301016
 30
0.0
  0
VERTEX
  5
2F1
  8
PLAN_1
 10
116.7079991359187
 20
11.82637112042544
 30
0.0
  0
VERTEX
  5
2F2
  8
PLAN_1
 10
117.6468610206447
 20
11.11291279049131
 30
0.0
  0
VERTEX
  5
2F3
  8
PLAN_1
 10
118.6305814880425
 20
10.45491909364326
 30
0.0
  0
VERTEX
  5
2F4
  8
PLAN_1
 10
119.6541252651216
 20
9.85646244859482
 30
0.0
  0
VERTEX
  5
2F5
  8
PLAN_1
 10
120.7119830124617
 20
9.320991435380813
 30
0.0
  0
VERTEX
  5
2F6
  8
PLAN_1
 10
121.7982696955113
 20
8.851265020008698
 30
0.0
  0
VERTEX
  5
2F7
  8
PLAN_1
 10
122.906833192667
 20
8.44930556942012
 30
0.0
  0
VERTEX
  5
2F8
  8
PLAN_1
 10
124.0313689586083
 20
8.116372319049725
 30
0.0
  0
VERTEX
  5
2F9
  8
PLAN_1
 10
124.5448262471424
 20
7.997119127650224
 30
0.0
  0
SEQEND
  5
2FA
  8
PLAN_1
  0
POLYLINE
  5
7A
  8
PLAN_1
 66
     1
 10
0.0
 20
0.0
 30
0.0
 70
     1
  0
VERTEX
  5
2FB
  8
PLAN_1
 10
113.5462736711006
 20
-1.337566045675834
 30
0.0
  0
VERTEX
  5
2FC
  8
PLAN_1
 10
113.5462736711005
 20
-8.134974812813544
 30
0.0
  0
VERTEX
  5
2FD
  8
PLAN_1
 10
109.0406673418792
 20
-4.493827666772125
 30
0.0
  0
VERTEX
  5
2FE
  8
PLAN_1
 10
104.535061012658
 20
-8.134974812813544
 30
0.0
  0
VERTEX
  5
2FF
  8
PLAN_1
 10
104.535061012658
 20
-1.337566045675841
 30
0.0
  0
VERTEX
  5
300
  8
PLAN_1
 10
102.4248880571683
 20
-0.0000918568752421
 30
0.0
  0
VERTEX
  5
301
  8
PLAN_1
 10
104.535061012658
 20
1.337382331925413
 30
0.0
  0
VERTEX
  5
302
  8
PLAN_1
 10
104.5350610126578
 20
8.134791099063124
 30
0.0
  0
VERTEX
  5
303
  8
PLAN_1
 10
109.0406673418792
 20
4.493643953021627
 30
0.0
  0
VERTEX
  5
304
  8
PLAN_1
 10
113.5462736711006
 20
8.134791099063074
 30
0.0
  0
VERTEX
  5
305
  8
PLAN_1
 10
113.5462736711005
 20
1.337382331925392
 30
0.0
  0
VERTEX
  5
306
  8
PLAN_1
 10
115.6564466265903
 20
-0.0000918568751853
 30
0.0
  0
SEQEND
  5
307
  8
PLAN_1
  0
POLYLINE
  5
7B
  8
PLAN_1
 66
     1
 10
0.0
 20
0.0
 30
0.0
 70
     1
  0
VERTEX
  5
308
  8
PLAN_1
 10
109.0406673418792
 20
9.787862088993792
 30
0.0
  0
VERTEX
  5
309
  8
PLAN_1
 10
104.5851192206325
 20
13.1969210064528
 30
0.0
  0
VERTEX
  5
30A
  8
PLAN_1
 10
104.5851192206325
 20
22.01518102868552
 30
0.0
  0
VERTEX
  5
30B
  8
PLAN_1
 10
107.4748205168109
 20
25.18653526992997
 30
0.0
 42
-0.036340256297907
  0
VERTEX
  5
30C
  8
PLAN_1
 10
109.2467840372499
 20
21.96808087274352
 30
0.0
  0
VERTEX
  5
30D
  8
PLAN_1
 10
109.2488317797817
 20
21.96361112406781
 30
0.0
 42
0.0624492818859547
  0
VERTEX
  5
30E
  8
PLAN_1
 10
113.4810060283869
 20
15.13648397842652
 30
0.0
  0
VERTEX
  5
30F
  8
PLAN_1
 10
113.4962154631259
 20
15.11781402100266
 30
0.0
  0
VERTEX
  5
310
  8
PLAN_1
 10
113.4962154631259
 20
13.1969210064528
 30
0.0
  0
SEQEND
  5
311
  8
PLAN_1
  0
POLYLINE
  5
7C
  8
PLAN_1
 66
     1
 10
0.0
 20
0.0
 30
0.0
 70
     1
  0
VERTEX
  5
312
  8
PLAN_1
 10
113.4810060283871
 20
-15.13648397842621
 30
0.0
 42
0.0624352690844428
  0
VERTEX
  5
313
  8
PLAN_1
 10
109.2488317797819
 20
-21.96361112406734
 30
0.0
  0
VERTEX
  5
314
  8
PLAN_1
 10
109.2467840372499
 20
-21.96808087274367
 30
0.0
 42
-0.0363415284287929
  0
VERTEX
  5
315
  8
PLAN_1
 10
107.4747523115843
 20
-25.18664413063759
 30
0.0
  0
VERTEX
  5
316
  8
PLAN_1
 10
104.5851192206325
 20
-22.01536474243592
 30
0.0
  0
VERTEX
  5
317
  8
PLAN_1
 10
104.5851192206325
 20
-13.19710472020324
 30
0.0
  0
VERTEX
  5
318
  8
PLAN_1
 10
109.0406673418792
 20
-9.788045802744092
 30
0.0
  0
VERTEX
  5
319
  8
PLAN_1
 10
113.4962154631259
 20
-13.19710472020319
 30
0.0
  0
VERTEX
  5
31A
  8
PLAN_1
 10
113.4962154631259
 20
-15.11781328176093
 30
0.0
  0
SEQEND
  5
31B
  8
PLAN_1
  0
POLYLINE
  5
7D
  8
PLAN_1
 66
     1
 10
0.0
 20
0.0
 30
0.0
 70
     1
  0
VERTEX
  5
31C
  8
PLAN_1
 10
99.46018196302897
 20
1.383424110975648
 30
0.0
  0
VERTEX
  5
31D
  8
PLAN_1
 10
97.14105806280423
 20
2.85313411468112
 30
0.0
  0
VERTEX
  5
31E
  8
PLAN_1
 10
97.1410580628043
 20
7.997119127650217
 30
0.0
  0
VERTEX
  5
31F
  8
PLAN_1
 10
91.11579742644933
 20
7.997119127650217
 30
0.0
  0
VERTEX
  5
320
  8
PLAN_1
 10
95.21450149681051
 20
12.11632294074919
 30
0.0
  0
VERTEX
  5
321
  8
PLAN_1
 10
92.28685573226677
 20
14.97931566191017
 30
0.0
  0
VERTEX
  5
322
  8
PLAN_1
 10
92.15378092478745
 20
17.98837944027322
 30
0.0
  0
VERTEX
  5
323
  8
PLAN_1
 10
94.70881722838928
 20
19.15694789788995
 30
0.0
  0
VERTEX
  5
324
  8
PLAN_1
 10
101.3891725638482
 20
12.88831756906779
 30
0.0
  0
VERTEX
  5
325
  8
PLAN_1
 10
101.3891725638482
 20
3.702630045908721
 30
0.0
  0
SEQEND
  5
326
  8
PLAN_1
  0
POLYLINE
  5
7E
  8
PLAN_1
 66
     1
 10
0.0
 20
0.0
 30
0.0
 70
     1
  0
VERTEX
  5
327
  8
PLAN_1
 10
101.0672105429153
 20
23.08668613799648
 30
0.0
  0
VERTEX
  5
328
  8
PLAN_1
 10
100.9309419400564
 20
17.34667787418313
 30
0.0
  0
VERTEX
  5
329
  8
PLAN_1
 10
96.16068180662931
 20
22.0693146797646
 30
0.0
  0
VERTEX
  5
32A
  8
PLAN_1
 10
94.05903144095942
 20
21.45118265269251
 30
0.0
  0
VERTEX
  5
32B
  8
PLAN_1
 10
94.62216695921335
 20
23.758082783511
 30
0.0
  0
VERTEX
  5
32C
  8
PLAN_1
 10
89.65158052909993
 20
29.21410281099974
 30
0.0
  0
VERTEX
  5
32D
  8
PLAN_1
 10
95.84420951646472
 20
29.21410281099974
 30
0.0
  0
VERTEX
  5
32E
  8
PLAN_1
 10
99.41678631098053
 20
33.13558185872935
 30
0.0
 42
-0.0159838871084114
  0
VERTEX
  5
32F
  8
PLAN_1
 10
100.7329311126507
 20
32.1885991159515
 30
0.0
  0
VERTEX
  5
330
  8
PLAN_1
 10
100.8686475026405
 20
32.08800130037258
 30
0.0
  0
VERTEX
  5
331
  8
PLAN_1
 10
101.2539205522579
 20
31.7994768601161
 30
0.0
  0
VERTEX
  5
332
  8
PLAN_1
 10
101.3257166946288
 20
29.01553506456074
 30
0.0
  0
VERTEX
  5
333
  8
PLAN_1
 10
104.4311775110401
 20
29.01553506456075
 30
0.0
  0
VERTEX
  5
334
  8
PLAN_1
 10
104.8467656794098
 20
28.5875251604592
 30
0.0
  0
VERTEX
  5
335
  8
PLAN_1
 10
105.4007736670699
 20
27.95320100360924
 30
0.0
  0
SEQEND
  5
336
  8
PLAN_1
  0
POLYLINE
  5
7F
  8
PLAN_1
 66
     1
 10
0.0
 20
0.0
 30
0.0
 70
     1
  0
VERTEX
  5
337
  8
PLAN_1
 10
94.70881722838935
 20
-19.15713161164041
 30
0.0
  0
VERTEX
  5
338
  8
PLAN_1
 10
92.15378092478745
 20
-17.98856315402368
 30
0.0
  0
VERTEX
  5
339
  8
PLAN_1
 10
92.28685573226683
 20
-14.97949937566064
 30
0.0
  0
VERTEX
  5
33A
  8
PLAN_1
 10
95.21450149681046
 20
-12.1165066544997
 30
0.0
  0
VERTEX
  5
33B
  8
PLAN_1
 10
91.11579742644933
 20
-7.997302841400659
 30
0.0
  0
VERTEX
  5
33C
  8
PLAN_1
 10
97.14105806280423
 20
-7.997302841400666
 30
0.0
  0
VERTEX
  5
33D
  8
PLAN_1
 10
97.14105806280423
 20
-2.853317828431498
 30
0.0
  0
VERTEX
  5
33E
  8
PLAN_1
 10
99.46018196302897
 20
-1.38360782472609
 30
0.0
  0
VERTEX
  5
33F
  8
PLAN_1
 10
101.3891725638482
 20
-3.702813759659142
 30
0.0
  0
VERTEX
  5
340
  8
PLAN_1
 10
101.3891725638482
 20
-12.88850128281826
 30
0.0
  0
SEQEND
  5
341
  8
PLAN_1
  0
POLYLINE
  5
80
  8
PLAN_1
 66
     1
 10
0.0
 20
0.0
 30
0.0
 70
     1
  0
VERTEX
  5
342
  8
PLAN_1
 10
104.8467656794097
 20
-28.58752516045922
 30
0.0
  0
VERTEX
  5
343
  8
PLAN_1
 10
104.4309991290439
 20
-29.0157187783112
 30
0.0
  0
VERTEX
  5
344
  8
PLAN_1
 10
101.3257166946288
 20
-29.01571877831124
 30
0.0
  0
VERTEX
  5
345
  8
PLAN_1
 10
101.2539253834278
 20
-31.79947324213503
 30
0.0
  0
VERTEX
  5
346
  8
PLAN_1
 10
100.8686475026404
 20
-32.08800130037255
 30
0.0
  0
VERTEX
  5
347
  8
PLAN_1
 10
100.7329311126507
 20
-32.1885991159514
 30
0.0
 42
-0.015985125694582
  0
VERTEX
  5
348
  8
PLAN_1
 10
99.41668122558487
 20
-33.13565022431489
 30
0.0
  0
VERTEX
  5
349
  8
PLAN_1
 10
95.84420951646474
 20
-29.21428652475009
 30
0.0
  0
VERTEX
  5
34A
  8
PLAN_1
 10
89.65158052910004
 20
-29.21428652475011
 30
0.0
  0
VERTEX
  5
34B
  8
PLAN_1
 10
94.6221669592134
 20
-23.75826649726145
 30
0.0
  0
VERTEX
  5
34C
  8
PLAN_1
 10
94.05903144095942
 20
-21.45136636644299
 30
0.0
  0
VERTEX
  5
34D
  8
PLAN_1
 10
96.16068180662927
 20
-22.06949839351502
 30
0.0
  0
VERTEX
  5
34E
  8
PLAN_1
 10
100.9309419400564
 20
-17.34686158793353
 30
0.0
  0
VERTEX
  5
34F
  8
PLAN_1
 10
101.0672105429154
 20
-23.08686985174684
 30
0.0
  0
VERTEX
  5
350
  8
PLAN_1
 10
105.4006926629374
 20
-27.95329375114925
 30
0.0
  0
SEQEND
  5
351
  8
PLAN_1
  0
POLYLINE
  5
81
  8
PLAN_1
 66
     1
 10
0.0
 20
0.0
 30
0.0
 70
     1
  0
VERTEX
  5
352
  8
PLAN_1
 10
86.40820938431244
 20
8.402055486537622
 30
0.0
  0
VERTEX
  5
353
  8
PLAN_1
 10
80.71768544997735
 20
8.4020554865376
 30
0.0
  0
VERTEX
  5
354
  8
PLAN_1
 10
80.9093131727474
 20
14.5487255736016
 30
0.0
  0
VERTEX
  5
355
  8
PLAN_1
 10
85.46579458083725
 20
18.87242886678353
 30
0.0
  0
VERTEX
  5
356
  8
PLAN_1
 10
87.53111559291546
 20
16.79237701222581
 30
0.0
  0
VERTEX
  5
357
  8
PLAN_1
 10
89.10672131346983
 20
16.90923385798747
 30
0.0
  0
VERTEX
  5
358
  8
PLAN_1
 10
88.94721860234482
 20
15.14449016083582
 30
0.0
  0
VERTEX
  5
359
  8
PLAN_1
 10
90.9591226335811
 20
12.93610110209049
 30
0.0
  0
SEQEND
  5
35A
  8
PLAN_1
  0
POLYLINE
  5
82
  8
PLAN_1
 66
     1
 10
0.0
 20
0.0
 30
0.0
 70
     1
  0
VERTEX
  5
35B
  8
PLAN_1
 10
94.37535895394042
 20
-1.115527232549381
 30
0.0
  0
VERTEX
  5
35C
  8
PLAN_1
 10
94.37535895394042
 20
-4.606088491349743
 30
0.0
  0
VERTEX
  5
35D
  8
PLAN_1
 10
87.84799326455602
 20
-4.606088491349743
 30
0.0
  0
VERTEX
  5
35E
  8
PLAN_1
 10
83.83462074216665
 20
-0.0000918568752208
 30
0.0
  0
VERTEX
  5
35F
  8
PLAN_1
 10
87.84799326455604
 20
4.60590477759928
 30
0.0
  0
VERTEX
  5
360
  8
PLAN_1
 10
94.37535895394042
 20
4.605904777599273
 30
0.0
  0
VERTEX
  5
361
  8
PLAN_1
 10
94.37535895394042
 20
1.115343518798918
 30
0.0
  0
VERTEX
  5
362
  8
PLAN_1
 10
96.13516651965874
 20
-0.0000918568751781
 30
0.0
  0
SEQEND
  5
363
  8
PLAN_1
  0
POLYLINE
  5
83
  8
PLAN_1
 66
     1
 10
0.0
 20
0.0
 30
0.0
 70
     1
  0
VERTEX
  5
364
  8
PLAN_1
 10
95.96144073817051
 20
-35.10452432985025
 30
0.0
  0
VERTEX
  5
365
  8
PLAN_1
 10
94.66198973032215
 20
-35.66959304737466
 30
0.0
  0
VERTEX
  5
366
  8
PLAN_1
 10
93.3309152054676
 20
-36.16193926271308
 30
0.0
  0
VERTEX
  5
367
  8
PLAN_1
 10
91.97439137755723
 20
-36.57908107407485
 30
0.0
  0
VERTEX
  5
368
  8
PLAN_1
 10
90.59883083344245
 20
-36.91924098764116
 30
0.0
  0
VERTEX
  5
369
  8
PLAN_1
 10
89.21078388869006
 20
-37.18137081964957
 30
0.0
  0
VERTEX
  5
36A
  8
PLAN_1
 10
87.81683568215126
 20
-37.36515944802234
 30
0.0
  0
VERTEX
  5
36B
  8
PLAN_1
 10
86.42350436489826
 20
-37.4710234401029
 30
0.0
  0
VERTEX
  5
36C
  8
PLAN_1
 10
85.0410230654477
 20
-37.49999999999994
 30
0.0
  0
VERTEX
  5
36D
  8
PLAN_1
 10
81.7835243955999
 20
-37.49999999999996
 30
0.0
  0
VERTEX
  5
36E
  8
PLAN_1
 10
86.08410030298883
 20
-32.77960826247234
 30
0.0
  0
VERTEX
  5
36F
  8
PLAN_1
 10
94.117781151462
 20
-32.77960826247232
 30
0.0
  0
VERTEX
  5
370
  8
PLAN_1
 10
96.1496811087876
 20
-35.00985927456665
 30
0.0
  0
SEQEND
  5
371
  8
PLAN_1
  0
POLYLINE
  5
84
  8
PLAN_1
 66
     1
 10
0.0
 20
0.0
 30
0.0
 70
     1
  0
VERTEX
  5
372
  8
PLAN_1
 10
94.11778115146197
 20
32.77942454872191
 30
0.0
  0
VERTEX
  5
373
  8
PLAN_1
 10
86.08410030298882
 20
32.77942454872191
 30
0.0
  0
VERTEX
  5
374
  8
PLAN_1
 10
81.78352439559988
 20
37.49999999999999
 30
0.0
  0
VERTEX
  5
375
  8
PLAN_1
 10
85.04102306544803
 20
37.49999999999999
 30
0.0
  0
VERTEX
  5
376
  8
PLAN_1
 10
86.42350436489791
 20
37.47102344010294
 30
0.0
  0
VERTEX
  5
377
  8
PLAN_1
 10
87.81683568215094
 20
37.36515944802241
 30
0.0
  0
VERTEX
  5
378
  8
PLAN_1
 10
89.21078388868976
 20
37.18137081964966
 30
0.0
  0
VERTEX
  5
379
  8
PLAN_1
 10
90.59883083344218
 20
36.91924098764126
 30
0.0
  0
VERTEX
  5
37A
  8
PLAN_1
 10
91.97439137755698
 20
36.57908107407495
 30
0.0
  0
VERTEX
  5
37B
  8
PLAN_1
 10
93.33091520546736
 20
36.16193926271319
 30
0.0
  0
VERTEX
  5
37C
  8
PLAN_1
 10
94.66198973032196
 20
35.66959304737478
 30
0.0
  0
VERTEX
  5
37D
  8
PLAN_1
 10
95.96144073817031
 20
35.10452432985036
 30
0.0
  0
VERTEX
  5
37E
  8
PLAN_1
 10
96.14974165914342
 20
35.00982882412312
 30
0.0
  0
SEQEND
  5
37F
  8
PLAN_1
  0
POLYLINE
  5
85
  8
PLAN_1
 66
     1
 10
0.0
 20
0.0
 30
0.0
 70
     1
  0
VERTEX
  5
380
  8
PLAN_1
 10
88.94721860234485
 20
-15.14467387458639
 30
0.0
  0
VERTEX
  5
381
  8
PLAN_1
 10
89.10672131346983
 20
-16.90941757173789
 30
0.0
  0
VERTEX
  5
382
  8
PLAN_1
 10
87.53111559291546
 20
-16.79256072597623
 30
0.0
  0
VERTEX
  5
383
  8
PLAN_1
 10
85.46579458083728
 20
-18.87261258053395
 30
0.0
  0
VERTEX
  5
384
  8
PLAN_1
 10
80.90931317274742
 20
-14.54890928735207
 30
0.0
  0
VERTEX
  5
385
  8
PLAN_1
 10
80.71768544997737
 20
-8.402239200288092
 30
0.0
  0
VERTEX
  5
386
  8
PLAN_1
 10
86.40820938431251
 20
-8.402239200288092
 30
0.0
  0
VERTEX
  5
387
  8
PLAN_1
 10
90.95912263358115
 20
-12.93628481584093
 30
0.0
  0
SEQEND
  5
388
  8
PLAN_1
  0
POLYLINE
  5
86
  8
PLAN_1
 66
     1
 10
0.0
 20
0.0
 30
0.0
 70
     1
  0
VERTEX
  5
389
  8
PLAN_1
 10
90.30281951567908
 20
20.11926174037717
 30
0.0
  0
VERTEX
  5
38A
  8
PLAN_1
 10
87.66793832758967
 20
19.82711962597289
 30
0.0
  0
VERTEX
  5
38B
  8
PLAN_1
 10
84.42091302509581
 20
22.80696919289555
 30
0.0
  0
VERTEX
  5
38C
  8
PLAN_1
 10
80.74804833866827
 20
19.18440697428368
 30
0.0
  0
VERTEX
  5
38D
  8
PLAN_1
 10
80.5064949235685
 20
24.38453661067818
 30
0.0
  0
VERTEX
  5
38E
  8
PLAN_1
 10
76.48965449933193
 20
24.38453661067819
 30
0.0
  0
VERTEX
  5
38F
  8
PLAN_1
 10
75.29198123201853
 20
27.10145827463707
 30
0.0
  0
VERTEX
  5
390
  8
PLAN_1
 10
76.88165864761741
 20
29.29252413266834
 30
0.0
  0
VERTEX
  5
391
  8
PLAN_1
 10
84.58060279407091
 20
29.29252413266836
 30
0.0
  0
VERTEX
  5
392
  8
PLAN_1
 10
91.1811132450422
 20
22.7485407700147
 30
0.0
  0
SEQEND
  5
393
  8
PLAN_1
  0
POLYLINE
  5
87
  8
PLAN_1
 66
     1
 10
0.0
 20
0.0
 30
0.0
 70
     1
  0
VERTEX
  5
394
  8
PLAN_1
 10
84.58060279407093
 20
-29.29270784641876
 30
0.0
  0
VERTEX
  5
395
  8
PLAN_1
 10
76.88165864761743
 20
-29.29270784641876
 30
0.0
  0
VERTEX
  5
396
  8
PLAN_1
 10
75.29198123201847
 20
-27.10164198838749
 30
0.0
  0
VERTEX
  5
397
  8
PLAN_1
 10
76.48965449933195
 20
-24.38472032442856
 30
0.0
  0
VERTEX
  5
398
  8
PLAN_1
 10
80.5064949235685
 20
-24.38472032442855
 30
0.0
  0
VERTEX
  5
399
  8
PLAN_1
 10
80.74804833866818
 20
-19.18459068803413
 30
0.0
  0
VERTEX
  5
39A
  8
PLAN_1
 10
84.42091302509584
 20
-22.8071529066461
 30
0.0
  0
VERTEX
  5
39B
  8
PLAN_1
 10
87.66793832758968
 20
-19.8273033397233
 30
0.0
  0
VERTEX
  5
39C
  8
PLAN_1
 10
90.30281951567916
 20
-20.11944545412763
 30
0.0
  0
VERTEX
  5
39D
  8
PLAN_1
 10
91.18111324504221
 20
-22.74872448376511
 30
0.0
  0
SEQEND
  5
39E
  8
PLAN_1
  0
POLYLINE
  5
88
  8
PLAN_1
 66
     1
 10
0.0
 20
0.0
 30
0.0
 70
     1
  0
VERTEX
  5
39F
  8
PLAN_1
 10
73.91299457662272
 20
-22.34280197374399
 30
0.0
  0
VERTEX
  5
3A0
  8
PLAN_1
 10
73.0967959410126
 20
-23.85910544250602
 30
0.0
  0
VERTEX
  5
3A1
  8
PLAN_1
 10
72.28059730540258
 20
-22.34280197374399
 30
0.0
  0
VERTEX
  5
3A2
  8
PLAN_1
 10
69.0269198441677
 20
-22.34280197374405
 30
0.0
  0
VERTEX
  5
3A3
  8
PLAN_1
 10
69.0269198441677
 20
-15.91282070753273
 30
0.0
  0
VERTEX
  5
3A4
  8
PLAN_1
 10
73.09679594101267
 20
-11.54682123286939
 30
0.0
  0
VERTEX
  5
3A5
  8
PLAN_1
 10
77.1666720378575
 20
-15.91282070753273
 30
0.0
  0
VERTEX
  5
3A6
  8
PLAN_1
 10
77.16667203785748
 20
-22.34280197374398
 30
0.0
  0
SEQEND
  5
3A7
  8
PLAN_1
  0
POLYLINE
  5
89
  8
PLAN_1
 66
     1
 10
0.0
 20
0.0
 30
0.0
 70
     1
  0
VERTEX
  5
3A8
  8
PLAN_1
 10
73.09679594101257
 20
11.54663751911896
 30
0.0
  0
VERTEX
  5
3A9
  8
PLAN_1
 10
69.0269198441677
 20
15.91263699378227
 30
0.0
  0
VERTEX
  5
3AA
  8
PLAN_1
 10
69.0269198441677
 20
22.34261825999356
 30
0.0
  0
VERTEX
  5
3AB
  8
PLAN_1
 10
72.28059730540265
 20
22.34261825999364
 30
0.0
  0
VERTEX
  5
3AC
  8
PLAN_1
 10
73.09679594101267
 20
23.85892172875558
 30
0.0
  0
VERTEX
  5
3AD
  8
PLAN_1
 10
73.91299457662271
 20
22.34261825999362
 30
0.0
  0
VERTEX
  5
3AE
  8
PLAN_1
 10
77.16667203785731
 20
22.34261825999363
 30
0.0
  0
VERTEX
  5
3AF
  8
PLAN_1
 10
77.16667203785731
 20
15.91263699378231
 30
0.0
  0
SEQEND
  5
3B0
  8
PLAN_1
  0
POLYLINE
  5
8A
  8
PLAN_1
 66
     1
 10
0.0
 20
0.0
 30
0.0
 70
     1
  0
VERTEX
  5
3B1
  8
PLAN_1
 10
74.52692672775386
 20
32.68576989878987
 30
0.0
  0
VERTEX
  5
3B2
  8
PLAN_1
 10
73.09679594101259
 20
30.0286867669855
 30
0.0
  0
VERTEX
  5
3B3
  8
PLAN_1
 10
71.66666515427129
 20
32.68576989878981
 30
0.0
  0
VERTEX
  5
3B4
  8
PLAN_1
 10
65.15931023180175
 20
32.68576989878987
 30
0.0
  0
VERTEX
  5
3B5
  8
PLAN_1
 10
69.64682694104543
 20
37.49999999999993
 30
0.0
  0
VERTEX
  5
3B6
  8
PLAN_1
 10
76.54676494097974
 20
37.49999999999993
 30
0.0
  0
VERTEX
  5
3B7
  8
PLAN_1
 10
81.0342816502234
 20
32.68576989878981
 30
0.0
  0
SEQEND
  5
3B8
  8
PLAN_1
  0
POLYLINE
  5
8B
  8
PLAN_1
 66
     1
 10
0.0
 20
0.0
 30
0.0
 70
     1
  0
VERTEX
  5
3B9
  8
PLAN_1
 10
76.54693618716196
 20
-37.49999999999989
 30
0.0
  0
VERTEX
  5
3BA
  8
PLAN_1
 10
69.64665569486316
 20
-37.4999999999999
 30
0.0
  0
VERTEX
  5
3BB
  8
PLAN_1
 10
65.1593102318017
 20
-32.6859536125403
 30
0.0
  0
VERTEX
  5
3BC
  8
PLAN_1
 10
71.66666515427129
 20
-32.68595361254025
 30
0.0
  0
VERTEX
  5
3BD
  8
PLAN_1
 10
73.09679594101267
 20
-30.02887048073593
 30
0.0
  0
VERTEX
  5
3BE
  8
PLAN_1
 10
74.52692672775387
 20
-32.68595361254036
 30
0.0
  0
VERTEX
  5
3BF
  8
PLAN_1
 10
81.0342816502234
 20
-32.68595361254025
 30
0.0
  0
SEQEND
  5
3C0
  8
PLAN_1
  0
POLYLINE
  5
8C
  8
PLAN_1
 66
     1
 10
0.0
 20
0.0
 30
0.0
 70
     1
  0
VERTEX
  5
3C1
  8
PLAN_1
 10
65.33392909456892
 20
-14.54890928735206
 30
0.0
  0
VERTEX
  5
3C2
  8
PLAN_1
 10
60.67187655860786
 20
-18.87261258053395
 30
0.0
  0
VERTEX
  5
3C3
  8
PLAN_1
 10
58.55870321286861
 20
-16.79256072597623
 30
0.0
  0
VERTEX
  5
3C4
  8
PLAN_1
 10
56.94659158828391
 20
-16.90941757173785
 30
0.0
  0
VERTEX
  5
3C5
  8
PLAN_1
 10
57.10978988808886
 20
-15.14467387458633
 30
0.0
  0
VERTEX
  5
3C6
  8
PLAN_1
 10
55.05127116478582
 20
-12.93628481584093
 30
0.0
  0
VERTEX
  5
3C7
  8
PLAN_1
 10
59.70762653079753
 20
-8.402239200288038
 30
0.0
  0
VERTEX
  5
3C8
  8
PLAN_1
 10
65.52999672458608
 20
-8.402239200288035
 30
0.0
  0
SEQEND
  5
3C9
  8
PLAN_1
  0
POLYLINE
  5
8D
  8
PLAN_1
 66
     1
 10
0.0
 20
0.0
 30
0.0
 70
     1
  0
VERTEX
  5
3CA
  8
PLAN_1
 10
59.70762653079753
 20
8.4020554865376
 30
0.0
  0
VERTEX
  5
3CB
  8
PLAN_1
 10
55.05127116478582
 20
12.93610110209052
 30
0.0
  0
VERTEX
  5
3CC
  8
PLAN_1
 10
57.10978988808886
 20
15.14449016083581
 30
0.0
  0
VERTEX
  5
3CD
  8
PLAN_1
 10
56.94659158828394
 20
16.90923385798747
 30
0.0
  0
VERTEX
  5
3CE
  8
PLAN_1
 10
58.55870321286858
 20
16.7923770122258
 30
0.0
  0
VERTEX
  5
3CF
  8
PLAN_1
 10
60.67187655860783
 20
18.87242886678353
 30
0.0
  0
VERTEX
  5
3D0
  8
PLAN_1
 10
65.33392909456902
 20
14.54872557360157
 30
0.0
  0
VERTEX
  5
3D1
  8
PLAN_1
 10
65.52999672458608
 20
8.402055486537547
 30
0.0
  0
SEQEND
  5
3D2
  8
PLAN_1
  0
POLYLINE
  5
8E
  8
PLAN_1
 66
     1
 10
0.0
 20
0.0
 30
0.0
 70
     1
  0
VERTEX
  5
3D3
  8
PLAN_1
 10
69.45490212422284
 20
-29.29270784641888
 30
0.0
  0
VERTEX
  5
3D4
  8
PLAN_1
 10
61.57757774439112
 20
-29.29270784641888
 30
0.0
  0
VERTEX
  5
3D5
  8
PLAN_1
 10
54.82413715491488
 20
-22.74872448376512
 30
0.0
  0
VERTEX
  5
3D6
  8
PLAN_1
 10
55.72278045915989
 20
-20.11944545412753
 30
0.0
  0
VERTEX
  5
3D7
  8
PLAN_1
 10
58.41871037189415
 20
-19.82730333972337
 30
0.0
  0
VERTEX
  5
3D8
  8
PLAN_1
 10
61.74096743607218
 20
-22.80715290664604
 30
0.0
  0
VERTEX
  5
3D9
  8
PLAN_1
 10
65.49893034473224
 20
-19.18459068803413
 30
0.0
  0
VERTEX
  5
3DA
  8
PLAN_1
 10
65.74608041746963
 20
-24.38472032442855
 30
0.0
  0
VERTEX
  5
3DB
  8
PLAN_1
 10
69.85598878955585
 20
-24.38472032442856
 30
0.0
  0
VERTEX
  5
3DC
  8
PLAN_1
 10
71.08141147716226
 20
-27.10164198838755
 30
0.0
  0
SEQEND
  5
3DD
  8
PLAN_1
  0
POLYLINE
  5
8F
  8
PLAN_1
 66
     1
 10
0.0
 20
0.0
 30
0.0
 70
     1
  0
VERTEX
  5
3DE
  8
PLAN_1
 10
69.85598878955582
 20
24.38453661067814
 30
0.0
  0
VERTEX
  5
3DF
  8
PLAN_1
 10
65.74608041746964
 20
24.38453661067815
 30
0.0
  0
VERTEX
  5
3E0
  8
PLAN_1
 10
65.49893034473232
 20
19.18440697428368
 30
0.0
  0
VERTEX
  5
3E1
  8
PLAN_1
 10
61.74096743607218
 20
22.80696919289561
 30
0.0
  0
VERTEX
  5
3E2
  8
PLAN_1
 10
58.41871037189421
 20
19.82711962597288
 30
0.0
  0
VERTEX
  5
3E3
  8
PLAN_1
 10
55.72278045915985
 20
20.1192617403771
 30
0.0
  0
VERTEX
  5
3E4
  8
PLAN_1
 10
54.82413715491484
 20
22.74854077001474
 30
0.0
  0
VERTEX
  5
3E5
  8
PLAN_1
 10
61.57757774439111
 20
29.29252413266834
 30
0.0
  0
VERTEX
  5
3E6
  8
PLAN_1
 10
69.45490212422283
 20
29.29252413266834
 30
0.0
  0
VERTEX
  5
3E7
  8
PLAN_1
 10
71.08141147716236
 20
27.10145827463707
 30
0.0
  0
SEQEND
  5
3E8
  8
PLAN_1
  0
POLYLINE
  5
90
  8
PLAN_1
 66
     1
 10
0.0
 20
0.0
 30
0.0
 70
     1
  0
VERTEX
  5
3E9
  8
PLAN_1
 10
50.05299954881858
 20
-29.21428652475011
 30
0.0
  0
VERTEX
  5
3EA
  8
PLAN_1
 10
44.60397939889835
 20
-35.06002226848803
 30
0.0
  0
VERTEX
  5
3EB
  8
PLAN_1
 10
44.44448891263418
 20
-29.01571877831119
 30
0.0
  0
VERTEX
  5
3EC
  8
PLAN_1
 10
39.30710344752659
 20
-29.01571877831119
 30
0.0
  0
VERTEX
  5
3ED
  8
PLAN_1
 10
44.70898450741873
 20
-23.08686985174684
 30
0.0
  0
VERTEX
  5
3EE
  8
PLAN_1
 10
44.84841037765305
 20
-17.34686158793359
 30
0.0
  0
VERTEX
  5
3EF
  8
PLAN_1
 10
49.72919477254885
 20
-22.06949839351507
 30
0.0
  0
VERTEX
  5
3F0
  8
PLAN_1
 10
51.8795392027004
 20
-21.451366366443
 30
0.0
  0
VERTEX
  5
3F1
  8
PLAN_1
 10
51.30335614919255
 20
-23.75826649726146
 30
0.0
  0
VERTEX
  5
3F2
  8
PLAN_1
 10
56.38910828911816
 20
-29.2142865247501
 30
0.0
  0
SEQEND
  5
3F3
  8
PLAN_1
  0
POLYLINE
  5
91
  8
PLAN_1
 66
     1
 10
0.0
 20
0.0
 30
0.0
 70
     1
  0
VERTEX
  5
3F4
  8
PLAN_1
 10
48.72610374639424
 20
7.997119127650263
 30
0.0
  0
VERTEX
  5
3F5
  8
PLAN_1
 10
48.72610374639424
 20
2.853134114681142
 30
0.0
  0
VERTEX
  5
3F6
  8
PLAN_1
 10
46.35324704142556
 20
1.383424110975637
 30
0.0
  0
VERTEX
  5
3F7
  8
PLAN_1
 10
44.37956280638677
 20
3.702630045908743
 30
0.0
  0
VERTEX
  5
3F8
  8
PLAN_1
 10
44.37956280638669
 20
12.88831756906772
 30
0.0
  0
VERTEX
  5
3F9
  8
PLAN_1
 10
51.21469824170354
 20
19.15694789788999
 30
0.0
  0
VERTEX
  5
3FA
  8
PLAN_1
 10
53.82893330859753
 20
17.98837944027322
 30
0.0
  0
VERTEX
  5
3FB
  8
PLAN_1
 10
53.69277523219679
 20
14.97931566191017
 30
0.0
  0
VERTEX
  5
3FC
  8
PLAN_1
 10
50.69729755138076
 20
12.11632294074918
 30
0.0
  0
VERTEX
  5
3FD
  8
PLAN_1
 10
54.89096630452339
 20
7.99711912765021
 30
0.0
  0
SEQEND
  5
3FE
  8
PLAN_1
  0
POLYLINE
  5
92
  8
PLAN_1
 66
     1
 10
0.0
 20
0.0
 30
0.0
 70
     1
  0
VERTEX
  5
3FF
  8
PLAN_1
 10
58.23448366266063
 20
-4.606088491349757
 30
0.0
  0
VERTEX
  5
400
  8
PLAN_1
 10
51.55588255802064
 20
-4.606088491349754
 30
0.0
  0
VERTEX
  5
401
  8
PLAN_1
 10
51.55588255802064
 20
-1.115527232549384
 30
0.0
  0
VERTEX
  5
402
  8
PLAN_1
 10
49.75530123445971
 20
-0.0000918568752208
 30
0.0
  0
VERTEX
  5
403
  8
PLAN_1
 10
51.55588255802064
 20
1.115343518798865
 30
0.0
  0
VERTEX
  5
404
  8
PLAN_1
 10
51.55588255802063
 20
4.605904777599259
 30
0.0
  0
VERTEX
  5
405
  8
PLAN_1
 10
58.2344836626606
 20
4.605904777599287
 30
0.0
  0
VERTEX
  5
406
  8
PLAN_1
 10
62.34084378355168
 20
-0.0000918568752243
 30
0.0
  0
SEQEND
  5
407
  8
PLAN_1
  0
POLYLINE
  5
93
  8
PLAN_1
 66
     1
 10
0.0
 20
0.0
 30
0.0
 70
     1
  0
VERTEX
  5
408
  8
PLAN_1
 10
60.03924503840945
 20
32.77942454872185
 30
0.0
  0
VERTEX
  5
409
  8
PLAN_1
 10
51.81942829423737
 20
32.77942454872185
 30
0.0
  0
VERTEX
  5
40A
  8
PLAN_1
 10
47.41921044641771
 20
37.49999999999993
 30
0.0
  0
VERTEX
  5
40B
  8
PLAN_1
 10
64.4394628862293
 20
37.49999999999993
 30
0.0
  0
SEQEND
  5
40C
  8
PLAN_1
  0
POLYLINE
  5
94
  8
PLAN_1
 66
     1
 10
0.0
 20
0.0
 30
0.0
 70
     1
  0
VERTEX
  5
40D
  8
PLAN_1
 10
47.41921044641761
 20
-37.49999999999996
 30
0.0
  0
VERTEX
  5
40E
  8
PLAN_1
 10
51.8194282942374
 20
-32.77960826247234
 30
0.0
  0
VERTEX
  5
40F
  8
PLAN_1
 10
60.0392450384095
 20
-32.77960826247234
 30
0.0
  0
VERTEX
  5
410
  8
PLAN_1
 10
64.43946288622926
 20
-37.49999999999996
 30
0.0
  0
SEQEND
  5
411
  8
PLAN_1
  0
POLYLINE
  5
95
  8
PLAN_1
 66
     1
 10
0.0
 20
0.0
 30
0.0
 70
     1
  0
VERTEX
  5
412
  8
PLAN_1
 10
50.6972975513808
 20
-12.1165066544997
 30
0.0
  0
VERTEX
  5
413
  8
PLAN_1
 10
53.69277523219681
 20
-14.97949937566059
 30
0.0
  0
VERTEX
  5
414
  8
PLAN_1
 10
53.82893330859752
 20
-17.98856315402368
 30
0.0
  0
VERTEX
  5
415
  8
PLAN_1
 10
51.21469824170348
 20
-19.15713161164036
 30
0.0
  0
VERTEX
  5
416
  8
PLAN_1
 10
44.37956280638678
 20
-12.88850128281821
 30
0.0
  0
VERTEX
  5
417
  8
PLAN_1
 10
44.37956280638669
 20
-3.702813759659152
 30
0.0
  0
VERTEX
  5
418
  8
PLAN_1
 10
46.35324704142556
 20
-1.3836078247261
 30
0.0
  0
VERTEX
  5
419
  8
PLAN_1
 10
48.72610374639424
 20
-2.853317828431459
 30
0.0
  0
VERTEX
  5
41A
  8
PLAN_1
 10
48.72610374639424
 20
-7.997302841400669
 30
0.0
  0
VERTEX
  5
41B
  8
PLAN_1
 10
54.8909663045234
 20
-7.997302841400669
 30
0.0
  0
SEQEND
  5
41C
  8
PLAN_1
  0
POLYLINE
  5
96
  8
PLAN_1
 66
     1
 10
0.0
 20
0.0
 30
0.0
 70
     1
  0
VERTEX
  5
41D
  8
PLAN_1
 10
51.30335614919262
 20
23.758082783511
 30
0.0
  0
VERTEX
  5
41E
  8
PLAN_1
 10
51.8795392027004
 20
21.45118265269251
 30
0.0
  0
VERTEX
  5
41F
  8
PLAN_1
 10
49.72919477254891
 20
22.06931467976464
 30
0.0
  0
VERTEX
  5
420
  8
PLAN_1
 10
44.84841037765307
 20
17.34667787418307
 30
0.0
  0
VERTEX
  5
421
  8
PLAN_1
 10
44.70898450741867
 20
23.08668613799653
 30
0.0
  0
VERTEX
  5
422
  8
PLAN_1
 10
39.30710344752659
 20
29.01553506456075
 30
0.0
  0
VERTEX
  5
423
  8
PLAN_1
 10
44.44448891263417
 20
29.01553506456075
 30
0.0
  0
VERTEX
  5
424
  8
PLAN_1
 10
44.6039793988983
 20
35.05983855473748
 30
0.0
  0
VERTEX
  5
425
  8
PLAN_1
 10
50.0529995488187
 20
29.21410281099965
 30
0.0
  0
VERTEX
  5
426
  8
PLAN_1
 10
56.38910828911816
 20
29.21410281099971
 30
0.0
  0
SEQEND
  5
427
  8
PLAN_1
  0
POLYLINE
  5
97
  8
PLAN_1
 66
     1
 10
0.0
 20
0.0
 30
0.0
 70
     1
  0
VERTEX
  5
428
  8
PLAN_1
 10
36.55078717032721
 20
9.78786208899377
 30
0.0
  0
VERTEX
  5
429
  8
PLAN_1
 10
31.99200648905973
 20
13.19692100645279
 30
0.0
  0
VERTEX
  5
42A
  8
PLAN_1
 10
31.99200648905973
 20
22.01518102868552
 30
0.0
  0
VERTEX
  5
42B
  8
PLAN_1
 10
36.5507871703271
 20
26.90500180361168
 30
0.0
  0
VERTEX
  5
42C
  8
PLAN_1
 10
41.10956785159463
 20
22.01518102868551
 30
0.0
  0
VERTEX
  5
42D
  8
PLAN_1
 10
41.10956785159466
 20
13.19692100645279
 30
0.0
  0
SEQEND
  5
42E
  8
PLAN_1
  0
POLYLINE
  5
98
  8
PLAN_1
 66
     1
 10
0.0
 20
0.0
 30
0.0
 70
     1
  0
VERTEX
  5
42F
  8
PLAN_1
 10
36.55078717032722
 20
-26.90518551736223
 30
0.0
  0
VERTEX
  5
430
  8
PLAN_1
 10
31.99200648905971
 20
-22.01536474243598
 30
0.0
  0
VERTEX
  5
431
  8
PLAN_1
 10
31.99200648905973
 20
-13.19710472020332
 30
0.0
  0
VERTEX
  5
432
  8
PLAN_1
 10
36.55078717032722
 20
-9.788045802744099
 30
0.0
  0
VERTEX
  5
433
  8
PLAN_1
 10
41.10956785159467
 20
-13.1971047202032
 30
0.0
  0
VERTEX
  5
434
  8
PLAN_1
 10
41.10956785159466
 20
-22.01536474243597
 30
0.0
  0
SEQEND
  5
435
  8
PLAN_1
  0
POLYLINE
  5
99
  8
PLAN_1
 66
     1
 10
0.0
 20
0.0
 30
0.0
 70
     1
  0
VERTEX
  5
436
  8
PLAN_1
 10
41.14553896783248
 20
-37.49999999999997
 30
0.0
  0
VERTEX
  5
437
  8
PLAN_1
 10
36.55078717032723
 20
-37.49981628624944
 30
0.0
  0
VERTEX
  5
438
  8
PLAN_1
 10
31.95603537282193
 20
-37.49999999999991
 30
0.0
  0
VERTEX
  5
439
  8
PLAN_1
 10
31.95603537282193
 20
-32.66958319781129
 30
0.0
  0
VERTEX
  5
43A
  8
PLAN_1
 10
34.69597428754604
 20
-32.66958319781129
 30
0.0
  0
VERTEX
  5
43B
  8
PLAN_1
 10
36.55078717032721
 20
-30.68059243904096
 30
0.0
  0
VERTEX
  5
43C
  8
PLAN_1
 10
38.40560005310836
 20
-32.66958319781118
 30
0.0
  0
VERTEX
  5
43D
  8
PLAN_1
 10
41.14553896783256
 20
-32.66958319781129
 30
0.0
  0
SEQEND
  5
43E
  8
PLAN_1
  0
POLYLINE
  5
9A
  8
PLAN_1
 66
     1
 10
0.0
 20
0.0
 30
0.0
 70
     1
  0
VERTEX
  5
43F
  8
PLAN_1
 10
41.14553896783252
 20
32.66939948406078
 30
0.0
  0
VERTEX
  5
440
  8
PLAN_1
 10
38.40560005310834
 20
32.6693994840608
 30
0.0
  0
VERTEX
  5
441
  8
PLAN_1
 10
36.55078717032721
 20
30.68040872529046
 30
0.0
  0
VERTEX
  5
442
  8
PLAN_1
 10
34.69597428754604
 20
32.66939948406078
 30
0.0
  0
VERTEX
  5
443
  8
PLAN_1
 10
31.95603537282189
 20
32.6693994840608
 30
0.0
  0
VERTEX
  5
444
  8
PLAN_1
 10
31.95603537282186
 20
37.49999999999987
 30
0.0
  0
VERTEX
  5
445
  8
PLAN_1
 10
36.55078717032721
 20
37.4999999999999
 30
0.0
  0
VERTEX
  5
446
  8
PLAN_1
 10
41.14553896783255
 20
37.49999999999993
 30
0.0
  0
SEQEND
  5
447
  8
PLAN_1
  0
POLYLINE
  5
9B
  8
PLAN_1
 66
     1
 10
0.0
 20
0.0
 30
0.0
 70
     1
  0
VERTEX
  5
448
  8
PLAN_1
 10
41.16078588027359
 20
-1.337566045675844
 30
0.0
  0
VERTEX
  5
449
  8
PLAN_1
 10
41.1607858802736
 20
-8.134974812813558
 30
0.0
  0
VERTEX
  5
44A
  8
PLAN_1
 10
36.55078717032722
 20
-4.493827666772139
 30
0.0
  0
VERTEX
  5
44B
  8
PLAN_1
 10
31.94078846038089
 20
-8.134974812813558
 30
0.0
  0
VERTEX
  5
44C
  8
PLAN_1
 10
31.94078846038089
 20
-1.337566045675848
 30
0.0
  0
VERTEX
  5
44D
  8
PLAN_1
 10
29.78172397676634
 20
-0.000091856875219
 30
0.0
  0
VERTEX
  5
44E
  8
PLAN_1
 10
31.94078846038089
 20
1.337382331925435
 30
0.0
  0
VERTEX
  5
44F
  8
PLAN_1
 10
31.9407884603808
 20
8.134791099063147
 30
0.0
  0
VERTEX
  5
450
  8
PLAN_1
 10
36.55078717032721
 20
4.493643953021612
 30
0.0
  0
VERTEX
  5
451
  8
PLAN_1
 10
41.16078588027351
 20
8.134791099063145
 30
0.0
  0
VERTEX
  5
452
  8
PLAN_1
 10
41.16078588027359
 20
1.33738233192541
 30
0.0
  0
VERTEX
  5
453
  8
PLAN_1
 10
43.31985036388805
 20
-0.0000918568752172
 30
0.0
  0
SEQEND
  5
454
  8
PLAN_1
  0
POLYLINE
  5
9C
  8
PLAN_1
 66
     1
 10
0.0
 20
0.0
 30
0.0
 70
     1
  0
VERTEX
  5
455
  8
PLAN_1
 10
28.39258983323578
 20
23.08668613799641
 30
0.0
  0
VERTEX
  5
456
  8
PLAN_1
 10
28.25316396300131
 20
17.34667787418307
 30
0.0
  0
VERTEX
  5
457
  8
PLAN_1
 10
23.37237956810548
 20
22.06931467976461
 30
0.0
  0
VERTEX
  5
458
  8
PLAN_1
 10
21.22203513795402
 20
21.4511826526925
 30
0.0
  0
VERTEX
  5
459
  8
PLAN_1
 10
21.79821819146187
 20
23.758082783511
 30
0.0
  0
VERTEX
  5
45A
  8
PLAN_1
 10
16.71246605153628
 20
29.2141028109997
 30
0.0
  0
VERTEX
  5
45B
  8
PLAN_1
 10
23.04857479183563
 20
29.21410281099973
 30
0.0
  0
VERTEX
  5
45C
  8
PLAN_1
 10
28.49759494175589
 20
35.05983855473748
 30
0.0
  0
VERTEX
  5
45D
  8
PLAN_1
 10
28.65708542802016
 20
29.01553506456075
 30
0.0
  0
VERTEX
  5
45E
  8
PLAN_1
 10
33.7944708931277
 20
29.01553506456075
 30
0.0
  0
SEQEND
  5
45F
  8
PLAN_1
  0
POLYLINE
  5
9D
  8
PLAN_1
 66
     1
 10
0.0
 20
0.0
 30
0.0
 70
     1
  0
VERTEX
  5
460
  8
PLAN_1
 10
21.88687609895076
 20
-19.15713161164037
 30
0.0
  0
VERTEX
  5
461
  8
PLAN_1
 10
19.2726410320568
 20
-17.98856315402363
 30
0.0
  0
VERTEX
  5
462
  8
PLAN_1
 10
19.40879910845742
 20
-14.97949937566065
 30
0.0
  0
VERTEX
  5
463
  8
PLAN_1
 10
22.4042767892736
 20
-12.11650665449971
 30
0.0
  0
VERTEX
  5
464
  8
PLAN_1
 10
18.21060803613111
 20
-7.997302841400676
 30
0.0
  0
VERTEX
  5
465
  8
PLAN_1
 10
24.37547059426025
 20
-7.997302841400677
 30
0.0
  0
VERTEX
  5
466
  8
PLAN_1
 10
24.37547059426024
 20
-2.853317828431468
 30
0.0
  0
VERTEX
  5
467
  8
PLAN_1
 10
26.74832729922869
 20
-1.383607824726104
 30
0.0
  0
VERTEX
  5
468
  8
PLAN_1
 10
28.72201153426753
 20
-3.702813759659158
 30
0.0
  0
VERTEX
  5
469
  8
PLAN_1
 10
28.72201153426759
 20
-12.88850128281827
 30
0.0
  0
SEQEND
  5
46A
  8
PLAN_1
  0
POLYLINE
  5
9E
  8
PLAN_1
 66
     1
 10
0.0
 20
0.0
 30
0.0
 70
     1
  0
VERTEX
  5
46B
  8
PLAN_1
 10
28.72201153426753
 20
3.702630045908743
 30
0.0
  0
VERTEX
  5
46C
  8
PLAN_1
 10
26.74832729922869
 20
1.383424110975634
 30
0.0
  0
VERTEX
  5
46D
  8
PLAN_1
 10
24.37547059426016
 20
2.853134114681051
 30
0.0
  0
VERTEX
  5
46E
  8
PLAN_1
 10
24.37547059426016
 20
7.997119127650175
 30
0.0
  0
VERTEX
  5
46F
  8
PLAN_1
 10
18.21060803613111
 20
7.997119127650201
 30
0.0
  0
VERTEX
  5
470
  8
PLAN_1
 10
22.40427678927365
 20
12.11632294074921
 30
0.0
  0
VERTEX
  5
471
  8
PLAN_1
 10
19.40879910845744
 20
14.97931566191017
 30
0.0
  0
VERTEX
  5
472
  8
PLAN_1
 10
19.2726410320568
 20
17.98837944027327
 30
0.0
  0
VERTEX
  5
473
  8
PLAN_1
 10
21.88687609895073
 20
19.15694789788988
 30
0.0
  0
VERTEX
  5
474
  8
PLAN_1
 10
28.72201153426758
 20
12.88831756906772
 30
0.0
  0
SEQEND
  5
475
  8
PLAN_1
  0
POLYLINE
  5
9F
  8
PLAN_1
 66
     1
 10
0.0
 20
0.0
 30
0.0
 70
     1
  0
VERTEX
  5
476
  8
PLAN_1
 10
28.65708542802016
 20
-29.0157187783113
 30
0.0
  0
VERTEX
  5
477
  8
PLAN_1
 10
28.49759494175593
 20
-35.06002226848804
 30
0.0
  0
VERTEX
  5
478
  8
PLAN_1
 10
23.04857479183564
 20
-29.21428652475011
 30
0.0
  0
VERTEX
  5
479
  8
PLAN_1
 10
16.71246605153632
 20
-29.21428652475011
 30
0.0
  0
VERTEX
  5
47A
  8
PLAN_1
 10
21.79821819146187
 20
-23.75826649726146
 30
0.0
  0
VERTEX
  5
47B
  8
PLAN_1
 10
21.22203513795391
 20
-21.451366366443
 30
0.0
  0
VERTEX
  5
47C
  8
PLAN_1
 10
23.37237956810538
 20
-22.06949839351502
 30
0.0
  0
VERTEX
  5
47D
  8
PLAN_1
 10
28.25316396300134
 20
-17.34686158793359
 30
0.0
  0
VERTEX
  5
47E
  8
PLAN_1
 10
28.39258983323582
 20
-23.08686985174696
 30
0.0
  0
VERTEX
  5
47F
  8
PLAN_1
 10
33.79447089312762
 20
-29.01571877831119
 30
0.0
  0
SEQEND
  5
480
  8
PLAN_1
  0
POLYLINE
  5
A0
  8
PLAN_1
 66
     1
 10
0.0
 20
0.0
 30
0.0
 70
     1
  0
VERTEX
  5
481
  8
PLAN_1
 10
13.39394780985693
 20
8.40205548653751
 30
0.0
  0
VERTEX
  5
482
  8
PLAN_1
 10
7.571577616068259
 20
8.402055486537597
 30
0.0
  0
VERTEX
  5
483
  8
PLAN_1
 10
7.767645246085295
 20
14.54872557360162
 30
0.0
  0
VERTEX
  5
484
  8
PLAN_1
 10
12.42969778204625
 20
18.87242886678352
 30
0.0
  0
VERTEX
  5
485
  8
PLAN_1
 10
14.5428711277857
 20
16.79237701222574
 30
0.0
  0
VERTEX
  5
486
  8
PLAN_1
 10
16.15498275237042
 20
16.90923385798741
 30
0.0
  0
VERTEX
  5
487
  8
PLAN_1
 10
15.99178445256545
 20
15.14449016083586
 30
0.0
  0
VERTEX
  5
488
  8
PLAN_1
 10
18.05030317586855
 20
12.93610110209051
 30
0.0
  0
SEQEND
  5
489
  8
PLAN_1
  0
POLYLINE
  5
A1
  8
PLAN_1
 66
     1
 10
0.0
 20
0.0
 30
0.0
 70
     1
  0
VERTEX
  5
48A
  8
PLAN_1
 10
21.54569178263355
 20
-1.11552723254939
 30
0.0
  0
VERTEX
  5
48B
  8
PLAN_1
 10
21.54569178263355
 20
-4.606088491349761
 30
0.0
  0
VERTEX
  5
48C
  8
PLAN_1
 10
14.86709067799364
 20
-4.606088491349761
 30
0.0
  0
VERTEX
  5
48D
  8
PLAN_1
 10
10.76073055710267
 20
-0.0000918568752243
 30
0.0
  0
VERTEX
  5
48E
  8
PLAN_1
 10
14.86709067799364
 20
4.605904777599255
 30
0.0
  0
VERTEX
  5
48F
  8
PLAN_1
 10
21.54569178263355
 20
4.605904777599257
 30
0.0
  0
VERTEX
  5
490
  8
PLAN_1
 10
21.54569178263355
 20
1.115343518798916
 30
0.0
  0
VERTEX
  5
491
  8
PLAN_1
 10
23.3462731061946
 20
-0.0000918568751941
 30
0.0
  0
SEQEND
  5
492
  8
PLAN_1
  0
POLYLINE
  5
A2
  8
PLAN_1
 66
     1
 10
0.0
 20
0.0
 30
0.0
 70
     1
  0
VERTEX
  5
493
  8
PLAN_1
 10
8.662111454425062
 20
-37.49999999999996
 30
0.0
  0
VERTEX
  5
494
  8
PLAN_1
 10
13.06232930224487
 20
-32.77960826247229
 30
0.0
  0
VERTEX
  5
495
  8
PLAN_1
 10
21.28214604641692
 20
-32.77960826247234
 30
0.0
  0
VERTEX
  5
496
  8
PLAN_1
 10
25.68236389423664
 20
-37.49999999999996
 30
0.0
  0
SEQEND
  5
497
  8
PLAN_1
  0
POLYLINE
  5
A3
  8
PLAN_1
 66
     1
 10
0.0
 20
0.0
 30
0.0
 70
     1
  0
VERTEX
  5
498
  8
PLAN_1
 10
21.2821460464169
 20
32.77942454872188
 30
0.0
  0
VERTEX
  5
499
  8
PLAN_1
 10
13.06232930224485
 20
32.77942454872189
 30
0.0
  0
VERTEX
  5
49A
  8
PLAN_1
 10
8.662111454425053
 20
37.49999999999999
 30
0.0
  0
VERTEX
  5
49B
  8
PLAN_1
 10
25.68236389423664
 20
37.49999999999987
 30
0.0
  0
SEQEND
  5
49C
  8
PLAN_1
  0
POLYLINE
  5
A4
  8
PLAN_1
 66
     1
 10
0.0
 20
0.0
 30
0.0
 70
     1
  0
VERTEX
  5
49D
  8
PLAN_1
 10
15.99178445256537
 20
-15.14467387458634
 30
0.0
  0
VERTEX
  5
49E
  8
PLAN_1
 10
16.15498275237031
 20
-16.90941757173785
 30
0.0
  0
VERTEX
  5
49F
  8
PLAN_1
 10
14.54287112778578
 20
-16.79256072597624
 30
0.0
  0
VERTEX
  5
4A0
  8
PLAN_1
 10
12.42969778204628
 20
-18.87261258053396
 30
0.0
  0
VERTEX
  5
4A1
  8
PLAN_1
 10
7.767645246085301
 20
-14.54890928735207
 30
0.0
  0
VERTEX
  5
4A2
  8
PLAN_1
 10
7.571577616068231
 20
-8.40223920028799
 30
0.0
  0
VERTEX
  5
4A3
  8
PLAN_1
 10
13.39394780985688
 20
-8.4022392002881
 30
0.0
  0
VERTEX
  5
4A4
  8
PLAN_1
 10
18.05030317586855
 20
-12.93628481584093
 30
0.0
  0
SEQEND
  5
4A5
  8
PLAN_1
  0
POLYLINE
  5
A5
  8
PLAN_1
 66
     1
 10
0.0
 20
0.0
 30
0.0
 70
     1
  0
VERTEX
  5
4A6
  8
PLAN_1
 10
11.5239965962632
 20
-29.29270784641888
 30
0.0
  0
VERTEX
  5
4A7
  8
PLAN_1
 10
3.64667221643138
 20
-29.29270784641889
 30
0.0
  0
VERTEX
  5
4A8
  8
PLAN_1
 10
2.020162863492045
 20
-27.10164198838751
 30
0.0
  0
VERTEX
  5
4A9
  8
PLAN_1
 10
3.245585551098674
 20
-24.38472032442862
 30
0.0
  0
VERTEX
  5
4AA
  8
PLAN_1
 10
7.355493923184653
 20
-24.38472032442857
 30
0.0
  0
VERTEX
  5
4AB
  8
PLAN_1
 10
7.602643995922041
 20
-19.18459068803415
 30
0.0
  0
VERTEX
  5
4AC
  8
PLAN_1
 10
11.36060690458214
 20
-22.80715290664599
 30
0.0
  0
VERTEX
  5
4AD
  8
PLAN_1
 10
14.68286396876017
 20
-19.82730333972338
 30
0.0
  0
VERTEX
  5
4AE
  8
PLAN_1
 10
17.37879388149461
 20
-20.11944545412754
 30
0.0
  0
VERTEX
  5
4AF
  8
PLAN_1
 10
18.27743718573946
 20
-22.74872448376518
 30
0.0
  0
SEQEND
  5
4B0
  8
PLAN_1
  0
POLYLINE
  5
A6
  8
PLAN_1
 66
     1
 10
0.0
 20
0.0
 30
0.0
 70
     1
  0
VERTEX
  5
4B1
  8
PLAN_1
 10
17.3787938814946
 20
20.11926174037709
 30
0.0
  0
VERTEX
  5
4B2
  8
PLAN_1
 10
14.68286396876016
 20
19.82711962597282
 30
0.0
  0
VERTEX
  5
4B3
  8
PLAN_1
 10
11.36060690458213
 20
22.8069691928956
 30
0.0
  0
VERTEX
  5
4B4
  8
PLAN_1
 10
7.602643995921951
 20
19.18440697428367
 30
0.0
  0
VERTEX
  5
4B5
  8
PLAN_1
 10
7.355493923184692
 20
24.38453661067814
 30
0.0
  0
VERTEX
  5
4B6
  8
PLAN_1
 10
3.245585551098667
 20
24.38453661067814
 30
0.0
  0
VERTEX
  5
4B7
  8
PLAN_1
 10
2.02016286349199
 20
27.10145827463706
 30
0.0
  0
VERTEX
  5
4B8
  8
PLAN_1
 10
3.646672216431373
 20
29.29252413266838
 30
0.0
  0
VERTEX
  5
4B9
  8
PLAN_1
 10
11.52399659626314
 20
29.29252413266833
 30
0.0
  0
VERTEX
  5
4BA
  8
PLAN_1
 10
18.27743718573945
 20
22.74854077001477
 30
0.0
  0
SEQEND
  5
4BB
  8
PLAN_1
  0
POLYLINE
  5
A7
  8
PLAN_1
 66
     1
 10
0.0
 20
0.0
 30
0.0
 70
     1
  0
VERTEX
  5
4BC
  8
PLAN_1
 10
77.57236080072343
 20
-4.386487931092082
 30
0.0
  0
VERTEX
  5
4BD
  8
PLAN_1
 10
77.5723608007234
 20
-11.00018294776664
 30
0.0
  0
VERTEX
  5
4BE
  8
PLAN_1
 10
73.09679594101267
 20
-7.062520751450633
 30
0.0
  0
VERTEX
  5
4BF
  8
PLAN_1
 10
68.62123108130169
 20
-11.0001829477667
 30
0.0
  0
VERTEX
  5
4C0
  8
PLAN_1
 10
68.62123108130169
 20
-4.386487931092132
 30
0.0
  0
VERTEX
  5
4C1
  8
PLAN_1
 10
63.14135325185361
 20
-4.386487931092129
 30
0.0
  0
VERTEX
  5
4C2
  8
PLAN_1
 10
66.75290222485094
 20
-0.0000918568752208
 30
0.0
  0
VERTEX
  5
4C3
  8
PLAN_1
 10
63.14135325185361
 20
4.386304217341701
 30
0.0
  0
VERTEX
  5
4C4
  8
PLAN_1
 10
68.62123108130179
 20
4.386304217341676
 30
0.0
  0
VERTEX
  5
4C5
  8
PLAN_1
 10
68.62123108130172
 20
10.99999923401627
 30
0.0
  0
VERTEX
  5
4C6
  8
PLAN_1
 10
73.09679594101267
 20
7.062337037700205
 30
0.0
  0
VERTEX
  5
4C7
  8
PLAN_1
 10
77.57236080072343
 20
10.9999992340163
 30
0.0
  0
VERTEX
  5
4C8
  8
PLAN_1
 10
77.57236080072353
 20
4.38630421734174
 30
0.0
  0
VERTEX
  5
4C9
  8
PLAN_1
 10
83.05223863017162
 20
4.386304217341733
 30
0.0
  0
VERTEX
  5
4CA
  8
PLAN_1
 10
79.44068965717433
 20
-0.0000918568752634
 30
0.0
  0
VERTEX
  5
4CB
  8
PLAN_1
 10
83.05223863017162
 20
-4.386487931092075
 30
0.0
  0
SEQEND
  5
4CC
  8
PLAN_1
  0
POLYLINE
  5
A8
  8
PLAN_1
 66
     1
 10
0.0
 20
0.0
 30
0.0
  0
VERTEX
  5
4CD
  8
PLAN_1
 10
0.0010000000000191
 20
-30.03589048341415
 30
0.0
  0
VERTEX
  5
4CE
  8
PLAN_1
 10
0.0047783996417224
 20
-30.02887048073588
 30
0.0
  0
VERTEX
  5
4CF
  8
PLAN_1
 10
1.434909186382983
 20
-32.68595361254037
 30
0.0
  0
VERTEX
  5
4D0
  8
PLAN_1
 10
7.942264108852543
 20
-32.6859536125403
 30
0.0
  0
VERTEX
  5
4D1
  8
PLAN_1
 10
3.454918645791063
 20
-37.49999999999991
 30
0.0
  0
VERTEX
  5
4D2
  8
PLAN_1
 10
0.0116388113535298
 20
-37.49999999999994
 30
0.0
  0
SEQEND
  5
4D3
  8
PLAN_1
  0
POLYLINE
  5
A9
  8
PLAN_1
 66
     1
 10
0.0
 20
0.0
 30
0.0
  0
VERTEX
  5
4D4
  8
PLAN_1
 10
0.0047783996418006
 20
-11.5468212328694
 30
0.0
  0
VERTEX
  5
4D5
  8
PLAN_1
 10
4.074654496486564
 20
-15.91282070753274
 30
0.0
  0
VERTEX
  5
4D6
  8
PLAN_1
 10
4.074654496486566
 20
-22.34280197374405
 30
0.0
  0
VERTEX
  5
4D7
  8
PLAN_1
 10
0.8209770352517137
 20
-22.34280197374411
 30
0.0
  0
VERTEX
  5
4D8
  8
PLAN_1
 10
0.0047783996417224
 20
-23.85910544250609
 30
0.0
  0
VERTEX
  5
4D9
  8
PLAN_1
 10
0.0010004305663075
 20
-23.85208687206993
 30
0.0
  0
SEQEND
  5
4DA
  8
PLAN_1
  0
POLYLINE
  5
AA
  8
PLAN_1
 66
     1
 10
0.0
 20
0.0
 30
0.0
  0
VERTEX
  5
4DB
  8
PLAN_1
 10
0.0047783996417988
 20
7.062337037700193
 30
0.0
  0
VERTEX
  5
4DC
  8
PLAN_1
 10
4.480343259352512
 20
10.99999923401626
 30
0.0
  0
VERTEX
  5
4DD
  8
PLAN_1
 10
4.480343259352655
 20
4.386304217341664
 30
0.0
  0
VERTEX
  5
4DE
  8
PLAN_1
 10
9.960221088800703
 20
4.386304217341665
 30
0.0
  0
VERTEX
  5
4DF
  8
PLAN_1
 10
6.348672115803442
 20
-0.0000918568752252
 30
0.0
  0
VERTEX
  5
4E0
  8
PLAN_1
 10
9.960221088800704
 20
-4.3864879310922
 30
0.0
  0
VERTEX
  5
4E1
  8
PLAN_1
 10
4.480343259352656
 20
-4.3864879310922
 30
0.0
  0
VERTEX
  5
4E2
  8
PLAN_1
 10
4.480343259352515
 20
-11.00018294776671
 30
0.0
  0
VERTEX
  5
4E3
  8
PLAN_1
 10
0.004778399641801
 20
-7.062520751450645
 30
0.0
  0
SEQEND
  5
4E4
  8
PLAN_1
  0
POLYLINE
  5
AB
  8
PLAN_1
 66
     1
 10
0.0
 20
0.0
 30
0.0
  0
VERTEX
  5
4E5
  8
PLAN_1
 10
0.0010004305664318
 20
23.85190315831951
 30
0.0
  0
VERTEX
  5
4E6
  8
PLAN_1
 10
0.0047783996418006
 20
23.85892172875558
 30
0.0
  0
VERTEX
  5
4E7
  8
PLAN_1
 10
0.8209770352517066
 20
22.34261825999355
 30
0.0
  0
VERTEX
  5
4E8
  8
PLAN_1
 10
4.074654496486559
 20
22.34261825999355
 30
0.0
  0
VERTEX
  5
4E9
  8
PLAN_1
 10
4.074654496486558
 20
15.91263699378221
 30
0.0
  0
VERTEX
  5
4EA
  8
PLAN_1
 10
0.0047783996417135
 20
11.54663751911892
 30
0.0
  0
SEQEND
  5
4EB
  8
PLAN_1
  0
POLYLINE
  5
AC
  8
PLAN_1
 66
     1
 10
0.0
 20
0.0
 30
0.0
  0
VERTEX
  5
4EC
  8
PLAN_1
 10
0.0116388113535191
 20
37.49999999999991
 30
0.0
  0
VERTEX
  5
4ED
  8
PLAN_1
 10
3.454747399608861
 20
37.49999999999991
 30
0.0
  0
VERTEX
  5
4EE
  8
PLAN_1
 10
7.942264108852589
 20
32.68576989878986
 30
0.0
  0
VERTEX
  5
4EF
  8
PLAN_1
 10
1.434909186382971
 20
32.68576989878986
 30
0.0
  0
VERTEX
  5
4F0
  8
PLAN_1
 10
0.0047783996417135
 20
30.02868676698543
 30
0.0
  0
VERTEX
  5
4F1
  8
PLAN_1
 10
0.0010000000000031
 20
30.03570676966371
 30
0.0
  0
SEQEND
  5
4F2
  8
PLAN_1
  0
POLYLINE
  5
AE
  8
G
 66
     1
 10
0.0
 20
0.0
 30
0.0
 70
     1
  0
VERTEX
  5
4F3
  8
G
 10
0.0000000000000161
 20
-37.5
 30
0.0
  0
VERTEX
  5
4F4
  8
G
 10
-85.01163881135349
 20
-37.5
 30
0.0
  0
VERTEX
  5
4F5
  8
G
 10
-85.03714361069939
 20
-37.50008131267519
 30
0.0
 42
-0.1678920599856477
  0
VERTEX
  5
4F6
  8
G
 10
-100.7329311126507
 20
-32.18859911595143
 30
0.0
  0
VERTEX
  5
4F7
  8
G
 10
-100.8686475026404
 20
-32.08800130037258
 30
0.0
 42
-0.1320251037618884
  0
VERTEX
  5
4F8
  8
G
 10
-109.2467840372498
 20
-21.96808087274369
 30
0.0
  0
VERTEX
  5
4F9
  8
G
 10
-109.2488317797819
 20
-21.96361112406739
 30
0.0
 42
0.0624352690844428
  0
VERTEX
  5
4FA
  8
G
 10
-113.4810060283871
 20
-15.13648397842623
 30
0.0
 42
0.2118389951083022
  0
VERTEX
  5
4FB
  8
G
 10
-127.437896906154
 20
-7.532903216147984
 30
0.0
 42
0.1150832079352634
  0
VERTEX
  5
4FC
  8
G
 10
-134.0849223787565
 20
-0.0000000000000124
 30
0.0
 42
0.1150283621875588
  0
VERTEX
  5
4FD
  8
G
 10
-127.437896906154
 20
7.532903216147959
 30
0.0
 42
0.2118281444826951
  0
VERTEX
  5
4FE
  8
G
 10
-113.4810060283869
 20
15.13648397842647
 30
0.0
 42
0.0624492818859547
  0
VERTEX
  5
4FF
  8
G
 10
-109.2488317797817
 20
21.96361112406776
 30
0.0
  0
VERTEX
  5
500
  8
G
 10
-109.2467840372499
 20
21.96808087274347
 30
0.0
 42
-0.1320251037618934
  0
VERTEX
  5
501
  8
G
 10
-100.8686475026405
 20
32.08800130037253
 30
0.0
  0
VERTEX
  5
502
  8
G
 10
-100.7329311126506
 20
32.18859911595146
 30
0.0
 42
-0.1678920599856494
  0
VERTEX
  5
503
  8
G
 10
-85.03714361069906
 20
37.50008131267516
 30
0.0
  0
VERTEX
  5
504
  8
G
 10
-85.01163881135349
 20
37.49999999999999
 30
0.0
  0
VERTEX
  5
505
  8
G
 10
0.0000000000000054
 20
37.5
 30
0.0
  0
VERTEX
  5
506
  8
G
 10
85.01163881135352
 20
37.50000000000001
 30
0.0
  0
VERTEX
  5
507
  8
G
 10
85.03714361069906
 20
37.50008131267519
 30
0.0
 42
-0.1678920599856494
  0
VERTEX
  5
508
  8
G
 10
100.7329311126507
 20
32.1885991159515
 30
0.0
  0
VERTEX
  5
509
  8
G
 10
100.8686475026405
 20
32.08800130037258
 30
0.0
 42
-0.1320251037618934
  0
VERTEX
  5
50A
  8
G
 10
109.2467840372499
 20
21.96808087274352
 30
0.0
  0
VERTEX
  5
50B
  8
G
 10
109.2488317797817
 20
21.96361112406781
 30
0.0
 42
0.0624492818859547
  0
VERTEX
  5
50C
  8
G
 10
113.4810060283869
 20
15.13648397842652
 30
0.0
 42
0.2118281444826951
  0
VERTEX
  5
50D
  8
G
 10
127.437896906154
 20
7.532903216147995
 30
0.0
 42
0.1150283621875588
  0
VERTEX
  5
50E
  8
G
 10
134.0849223787565
 20
0.0000000000000161
 30
0.0
 42
0.1150832079352634
  0
VERTEX
  5
50F
  8
G
 10
127.437896906154
 20
-7.532903216147956
 30
0.0
 42
0.2118389951083022
  0
VERTEX
  5
510
  8
G
 10
113.4810060283871
 20
-15.13648397842621
 30
0.0
 42
0.0624352690844428
  0
VERTEX
  5
511
  8
G
 10
109.2488317797819
 20
-21.96361112406734
 30
0.0
  0
VERTEX
  5
512
  8
G
 10
109.2467840372499
 20
-21.96808087274367
 30
0.0
 42
-0.1320251037618884
  0
VERTEX
  5
513
  8
G
 10
100.8686475026404
 20
-32.08800130037255
 30
0.0
  0
VERTEX
  5
514
  8
G
 10
100.7329311126507
 20
-32.1885991159514
 30
0.0
 42
-0.1678920599856477
  0
VERTEX
  5
515
  8
G
 10
85.03714361069943
 20
-37.50008131267516
 30
0.0
  0
VERTEX
  5
516
  8
G
 10
85.01163881135354
 20
-37.49999999999999
 30
0.0
  0
SEQEND
  5
517
  8
G
  0
POLYLINE
  5
AF
  8
G
 66
     1
 10
0.0
 20
0.0
 30
0.0
 70
     1
  0
VERTEX
  5
518
  8
G
 10
-0.0116388113535119
 20
41.5
 30
0.0
  0
VERTEX
  5
519
  8
G
 10
-85.01163881135349
 20
41.49999999999999
 30
0.0
 42
0.1678920599856476
  0
VERTEX
  5
51A
  8
G
 10
-103.182194997302
 20
35.35105171217208
 30
0.0
 42
0.1320251037618961
  0
VERTEX
  5
51B
  8
G
 10
-112.8843414278949
 20
23.6318645815721
 30
0.0
 42
-0.0629109047812425
  0
VERTEX
  5
51C
  8
G
 10
-116.6254358526479
 20
17.60957819725433
 30
0.0
 42
-0.2505971866449063
  0
VERTEX
  5
51D
  8
G
 10
-130.00862074158
 20
11.49880577057619
 30
0.0
 42
-0.2814977781424229
  0
VERTEX
  5
51E
  8
G
 10
-145.0116388113535
 20
-0.0000000000000266
 30
0.0
 42
-0.2814977781424229
  0
VERTEX
  5
51F
  8
G
 10
-130.00862074158
 20
-11.49880577057623
 30
0.0
 42
-0.2505971866449063
  0
VERTEX
  5
520
  8
G
 10
-116.6254358526479
 20
-17.60957819725433
 30
0.0
 42
-0.0629109047812425
  0
VERTEX
  5
521
  8
G
 10
-112.8843414278949
 20
-23.63186458157213
 30
0.0
 42
0.1320251037618961
  0
VERTEX
  5
522
  8
G
 10
-103.182194997302
 20
-35.35105171217209
 30
0.0
 42
0.1678920599856476
  0
VERTEX
  5
523
  8
G
 10
-85.01163881135349
 20
-41.5
 30
0.0
  0
VERTEX
  5
524
  8
G
 10
-0.0116388113534977
 20
-41.5
 30
0.0
  0
VERTEX
  5
525
  8
G
 10
0.0116388113535298
 20
-41.5
 30
0.0
  0
VERTEX
  5
526
  8
G
 10
85.01163881135354
 20
-41.49999999999999
 30
0.0
 42
0.1678920599856476
  0
VERTEX
  5
527
  8
G
 10
103.182194997302
 20
-35.35105171217208
 30
0.0
 42
0.1320251037618961
  0
VERTEX
  5
528
  8
G
 10
112.884341427895
 20
-23.63186458157209
 30
0.0
 42
-0.0629109047812425
  0
VERTEX
  5
529
  8
G
 10
116.6254358526479
 20
-17.60957819725431
 30
0.0
 42
-0.2505971866449063
  0
VERTEX
  5
52A
  8
G
 10
130.0086207415799
 20
-11.49880577057618
 30
0.0
 42
-0.2814977781424229
  0
VERTEX
  5
52B
  8
G
 10
145.0116388113535
 20
0.0000000000000303
 30
0.0
 42
-0.2814977781424229
  0
VERTEX
  5
52C
  8
G
 10
130.0086207415799
 20
11.49880577057623
 30
0.0
 42
-0.2505971866449063
  0
VERTEX
  5
52D
  8
G
 10
116.6254358526479
 20
17.60957819725435
 30
0.0
 42
-0.0629109047812425
  0
VERTEX
  5
52E
  8
G
 10
112.884341427895
 20
23.63186458157215
 30
0.0
 42
0.1320251037618961
  0
VERTEX
  5
52F
  8
G
 10
103.182194997302
 20
35.35105171217211
 30
0.0
 42
0.1678920599856476
  0
VERTEX
  5
530
  8
G
 10
85.0116388113535
 20
41.50000000000003
 30
0.0
  0
VERTEX
  5
531
  8
G
 10
0.0116388113535191
 20
41.5
 30
0.0
  0
SEQEND
  5
532
  8
G
  0
ENDSEC
  0
EOF
