  0
SECTION
  2
HEADER
  9
$EXTMIN
 10
0.000000
 20
0.000000
  9
$EXTMAX
 10
33.110236
 20
23.385827
  9
$LTSCALE
 40
100.000000
  9
$PDMODE
 70
35
  9
$PDSIZE
 40
80.000000
  0
ENDSEC
  0
SECTION
  2
TABLES
  0
TABLE
  2
LAYER
 70
1
  0
LAYER
  2
LAYER_1
 70
0
 62
1
  6
CONTINUOUS
  0
ENDTAB
  0
ENDSEC
  0
SECTION
  2
BLOCKS
  0
ENDSEC
  0
SECTION
  2
ENTITIES
  0
POLYLINE
  8
LAYER_1
 62
7
 66
1
  0
VERTEX
  8
LAYER_1
 62
7
 10
-28.296183
 20
13.049550
  0
VERTEX
  8
LAYER_1
 62
7
 10
-28.390671
 20
13.049550
  0
SEQEND
  0
POLYLINE
  8
LAYER_1
 62
7
 66
1
  0
VERTEX
  8
LAYER_1
 62
7
 10
-28.296183
 20
15.805455
  0
VERTEX
  8
LAYER_1
 62
7
 10
-28.296183
 20
16.396006
  0
SEQEND
  0
POLYLINE
  8
LAYER_1
 62
7
 66
1
  0
VERTEX
  8
LAYER_1
 62
7
 10
-28.296183
 20
16.396006
  0
VERTEX
  8
LAYER_1
 62
7
 10
-28.390671
 20
16.396006
  0
SEQEND
  0
POLYLINE
  8
LAYER_1
 62
7
 66
1
  0
VERTEX
  8
LAYER_1
 62
7
 10
-28.296183
 20
18.561361
  0
VERTEX
  8
LAYER_1
 62
7
 10
-28.390671
 20
18.561361
  0
SEQEND
  0
POLYLINE
  8
LAYER_1
 62
7
 66
1
  0
VERTEX
  8
LAYER_1
 62
7
 10
-28.296183
 20
18.561361
  0
VERTEX
  8
LAYER_1
 62
7
 10
-28.296183
 20
19.151912
  0
SEQEND
  0
POLYLINE
  8
LAYER_1
 62
7
 66
1
  0
VERTEX
  8
LAYER_1
 62
7
 10
-28.296183
 20
19.151912
  0
VERTEX
  8
LAYER_1
 62
7
 10
-28.390671
 20
19.151912
  0
SEQEND
  0
POLYLINE
  8
LAYER_1
 62
7
 66
1
  0
VERTEX
  8
LAYER_1
 62
7
 10
-28.390671
 20
21.317266
  0
VERTEX
  8
LAYER_1
 62
7
 10
-28.390671
 20
19.151912
  0
SEQEND
  0
POLYLINE
  8
LAYER_1
 62
7
 66
1
  0
VERTEX
  8
LAYER_1
 62
7
 10
-28.296183
 20
21.317266
  0
VERTEX
  8
LAYER_1
 62
7
 10
-28.390671
 20
21.317266
  0
SEQEND
  0
POLYLINE
  8
LAYER_1
 62
7
 66
1
  0
VERTEX
  8
LAYER_1
 62
7
 10
-28.296183
 20
21.317266
  0
VERTEX
  8
LAYER_1
 62
7
 10
-28.296183
 20
21.907817
  0
SEQEND
  0
POLYLINE
  8
LAYER_1
 62
7
 66
1
  0
VERTEX
  8
LAYER_1
 62
7
 10
-28.296183
 20
21.907817
  0
VERTEX
  8
LAYER_1
 62
7
 10
-28.390671
 20
21.907817
  0
SEQEND
  0
POLYLINE
  8
LAYER_1
 62
7
 66
1
  0
VERTEX
  8
LAYER_1
 62
7
 10
-28.390671
 20
22.301518
  0
VERTEX
  8
LAYER_1
 62
7
 10
-28.390671
 20
21.907817
  0
SEQEND
  0
POLYLINE
  8
LAYER_1
 62
7
 66
1
  0
VERTEX
  8
LAYER_1
 62
7
 10
-31.343427
 20
22.301518
  0
VERTEX
  8
LAYER_1
 62
7
 10
-28.390671
 20
22.301518
  0
SEQEND
  0
POLYLINE
  8
LAYER_1
 62
7
 66
1
  0
VERTEX
  8
LAYER_1
 62
7
 10
-31.343427
 20
21.907817
  0
VERTEX
  8
LAYER_1
 62
7
 10
-31.343427
 20
22.301518
  0
SEQEND
  0
POLYLINE
  8
LAYER_1
 62
7
 66
1
  0
VERTEX
  8
LAYER_1
 62
7
 10
-31.437915
 20
21.907817
  0
VERTEX
  8
LAYER_1
 62
7
 10
-31.343427
 20
21.907817
  0
SEQEND
  0
POLYLINE
  8
LAYER_1
 62
7
 66
1
  0
VERTEX
  8
LAYER_1
 62
7
 10
-31.437915
 20
21.907817
  0
VERTEX
  8
LAYER_1
 62
7
 10
-31.437915
 20
21.317266
  0
SEQEND
  0
POLYLINE
  8
LAYER_1
 62
7
 66
1
  0
VERTEX
  8
LAYER_1
 62
7
 10
-31.437915
 20
21.317266
  0
VERTEX
  8
LAYER_1
 62
7
 10
-31.343427
 20
21.317266
  0
SEQEND
  0
POLYLINE
  8
LAYER_1
 62
7
 66
1
  0
VERTEX
  8
LAYER_1
 62
7
 10
-31.343427
 20
19.151912
  0
VERTEX
  8
LAYER_1
 62
7
 10
-31.343427
 20
21.317266
  0
SEQEND
  0
POLYLINE
  8
LAYER_1
 62
7
 66
1
  0
VERTEX
  8
LAYER_1
 62
7
 10
-31.437915
 20
19.151912
  0
VERTEX
  8
LAYER_1
 62
7
 10
-31.343427
 20
19.151912
  0
SEQEND
  0
POLYLINE
  8
LAYER_1
 62
7
 66
1
  0
VERTEX
  8
LAYER_1
 62
7
 10
-31.437915
 20
19.151912
  0
VERTEX
  8
LAYER_1
 62
7
 10
-31.437915
 20
18.561361
  0
SEQEND
  0
POLYLINE
  8
LAYER_1
 62
7
 66
1
  0
VERTEX
  8
LAYER_1
 62
7
 10
-31.437915
 20
18.561361
  0
VERTEX
  8
LAYER_1
 62
7
 10
-31.343427
 20
18.561361
  0
SEQEND
  0
POLYLINE
  8
LAYER_1
 62
7
 66
1
  0
VERTEX
  8
LAYER_1
 62
7
 10
-31.437915
 20
16.396006
  0
VERTEX
  8
LAYER_1
 62
7
 10
-31.343427
 20
16.396006
  0
SEQEND
  0
POLYLINE
  8
LAYER_1
 62
7
 66
1
  0
VERTEX
  8
LAYER_1
 62
7
 10
-31.437915
 20
16.396006
  0
VERTEX
  8
LAYER_1
 62
7
 10
-31.437915
 20
15.805455
  0
SEQEND
  0
POLYLINE
  8
LAYER_1
 62
7
 66
1
  0
VERTEX
  8
LAYER_1
 62
7
 10
-31.437915
 20
15.805455
  0
VERTEX
  8
LAYER_1
 62
7
 10
-31.343427
 20
15.805455
  0
SEQEND
  0
POLYLINE
  8
LAYER_1
 62
7
 66
1
  0
VERTEX
  8
LAYER_1
 62
7
 10
-31.437915
 20
13.640101
  0
VERTEX
  8
LAYER_1
 62
7
 10
-31.343427
 20
13.640101
  0
SEQEND
  0
POLYLINE
  8
LAYER_1
 62
7
 66
1
  0
VERTEX
  8
LAYER_1
 62
7
 10
-30.953663
 20
12.754274
  0
VERTEX
  8
LAYER_1
 62
7
 10
-30.953663
 20
12.655849
  0
SEQEND
  0
POLYLINE
  8
LAYER_1
 62
7
 66
1
  0
VERTEX
  8
LAYER_1
 62
7
 10
-30.355238
 20
12.754274
  0
VERTEX
  8
LAYER_1
 62
7
 10
-30.953663
 20
12.754274
  0
SEQEND
  0
POLYLINE
  8
LAYER_1
 62
7
 66
1
  0
VERTEX
  8
LAYER_1
 62
7
 10
-30.355238
 20
12.754274
  0
VERTEX
  8
LAYER_1
 62
7
 10
-30.355238
 20
12.655849
  0
SEQEND
  0
POLYLINE
  8
LAYER_1
 62
7
 66
1
  0
VERTEX
  8
LAYER_1
 62
7
 10
-28.780435
 20
12.754274
  0
VERTEX
  8
LAYER_1
 62
7
 10
-29.378860
 20
12.754274
  0
SEQEND
  0
POLYLINE
  8
LAYER_1
 62
7
 66
1
  0
VERTEX
  8
LAYER_1
 62
7
 10
-28.780435
 20
12.754274
  0
VERTEX
  8
LAYER_1
 62
7
 10
-28.780435
 20
12.655849
  0
SEQEND
  0
POLYLINE
  8
LAYER_1
 62
7
 66
1
  0
VERTEX
  8
LAYER_1
 62
7
 10
-28.296183
 20
15.805455
  0
VERTEX
  8
LAYER_1
 62
7
 10
-28.390671
 20
15.805455
  0
SEQEND
  0
POLYLINE
  8
LAYER_1
 62
7
 66
1
  0
VERTEX
  8
LAYER_1
 62
7
 10
-31.437915
 20
13.049550
  0
VERTEX
  8
LAYER_1
 62
7
 10
-31.343427
 20
13.049550
  0
SEQEND
  0
POLYLINE
  8
LAYER_1
 62
7
 66
1
  0
VERTEX
  8
LAYER_1
 62
7
 10
-29.378860
 20
12.754274
  0
VERTEX
  8
LAYER_1
 62
7
 10
-29.378860
 20
12.655849
  0
SEQEND
  0
POLYLINE
  8
LAYER_1
 62
7
 66
1
  0
VERTEX
  8
LAYER_1
 62
7
 10
-30.953663
 20
12.655849
  0
VERTEX
  8
LAYER_1
 62
7
 10
-31.343427
 20
12.655849
  0
SEQEND
  0
POLYLINE
  8
LAYER_1
 62
7
 66
1
  0
VERTEX
  8
LAYER_1
 62
7
 10
-28.390671
 20
13.049550
  0
VERTEX
  8
LAYER_1
 62
7
 10
-28.390671
 20
12.655849
  0
SEQEND
  0
POLYLINE
  8
LAYER_1
 62
7
 66
1
  0
VERTEX
  8
LAYER_1
 62
7
 10
-28.390671
 20
15.805455
  0
VERTEX
  8
LAYER_1
 62
7
 10
-28.390671
 20
13.640101
  0
SEQEND
  0
POLYLINE
  8
LAYER_1
 62
7
 66
1
  0
VERTEX
  8
LAYER_1
 62
7
 10
-28.296183
 20
13.049550
  0
VERTEX
  8
LAYER_1
 62
7
 10
-28.296183
 20
13.640101
  0
SEQEND
  0
POLYLINE
  8
LAYER_1
 62
7
 66
1
  0
VERTEX
  8
LAYER_1
 62
7
 10
-28.296183
 20
13.640101
  0
VERTEX
  8
LAYER_1
 62
7
 10
-28.390671
 20
13.640101
  0
SEQEND
  0
POLYLINE
  8
LAYER_1
 62
7
 66
1
  0
VERTEX
  8
LAYER_1
 62
7
 10
-31.343427
 20
12.655849
  0
VERTEX
  8
LAYER_1
 62
7
 10
-31.343427
 20
13.049550
  0
SEQEND
  0
POLYLINE
  8
LAYER_1
 62
7
 66
1
  0
VERTEX
  8
LAYER_1
 62
7
 10
-31.343427
 20
13.640101
  0
VERTEX
  8
LAYER_1
 62
7
 10
-31.343427
 20
15.805455
  0
SEQEND
  0
POLYLINE
  8
LAYER_1
 62
7
 66
1
  0
VERTEX
  8
LAYER_1
 62
7
 10
-31.343427
 20
16.396006
  0
VERTEX
  8
LAYER_1
 62
7
 10
-31.343427
 20
18.561361
  0
SEQEND
  0
POLYLINE
  8
LAYER_1
 62
7
 66
1
  0
VERTEX
  8
LAYER_1
 62
7
 10
-28.390671
 20
18.561361
  0
VERTEX
  8
LAYER_1
 62
7
 10
-28.390671
 20
16.396006
  0
SEQEND
  0
POLYLINE
  8
LAYER_1
 62
7
 66
1
  0
VERTEX
  8
LAYER_1
 62
7
 10
-31.437915
 20
13.640101
  0
VERTEX
  8
LAYER_1
 62
7
 10
-31.437915
 20
13.049550
  0
SEQEND
  0
POLYLINE
  8
LAYER_1
 62
7
 66
1
  0
VERTEX
  8
LAYER_1
 62
7
 10
-29.378860
 20
12.655849
  0
VERTEX
  8
LAYER_1
 62
7
 10
-30.355238
 20
12.655849
  0
SEQEND
  0
POLYLINE
  8
LAYER_1
 62
7
 66
1
  0
VERTEX
  8
LAYER_1
 62
7
 10
-28.390671
 20
12.655849
  0
VERTEX
  8
LAYER_1
 62
7
 10
-28.780435
 20
12.655849
  0
SEQEND
  0
POLYLINE
  8
LAYER_1
 62
7
 66
1
  0
VERTEX
  8
LAYER_1
 62
7
 10
-31.477285
 20
13.049550
  0
VERTEX
  8
LAYER_1
 62
7
 10
-31.571774
 20
13.049550
  0
SEQEND
  0
POLYLINE
  8
LAYER_1
 62
7
 66
1
  0
VERTEX
  8
LAYER_1
 62
7
 10
-31.477285
 20
15.805455
  0
VERTEX
  8
LAYER_1
 62
7
 10
-31.477285
 20
16.396006
  0
SEQEND
  0
POLYLINE
  8
LAYER_1
 62
7
 66
1
  0
VERTEX
  8
LAYER_1
 62
7
 10
-31.477285
 20
16.396006
  0
VERTEX
  8
LAYER_1
 62
7
 10
-31.571774
 20
16.396006
  0
SEQEND
  0
POLYLINE
  8
LAYER_1
 62
7
 66
1
  0
VERTEX
  8
LAYER_1
 62
7
 10
-31.477285
 20
18.561361
  0
VERTEX
  8
LAYER_1
 62
7
 10
-31.571774
 20
18.561361
  0
SEQEND
  0
POLYLINE
  8
LAYER_1
 62
7
 66
1
  0
VERTEX
  8
LAYER_1
 62
7
 10
-31.477285
 20
18.561361
  0
VERTEX
  8
LAYER_1
 62
7
 10
-31.477285
 20
19.151912
  0
SEQEND
  0
POLYLINE
  8
LAYER_1
 62
7
 66
1
  0
VERTEX
  8
LAYER_1
 62
7
 10
-31.477285
 20
19.151912
  0
VERTEX
  8
LAYER_1
 62
7
 10
-31.571774
 20
19.151912
  0
SEQEND
  0
POLYLINE
  8
LAYER_1
 62
7
 66
1
  0
VERTEX
  8
LAYER_1
 62
7
 10
-31.571774
 20
21.317266
  0
VERTEX
  8
LAYER_1
 62
7
 10
-31.571774
 20
19.151912
  0
SEQEND
  0
POLYLINE
  8
LAYER_1
 62
7
 66
1
  0
VERTEX
  8
LAYER_1
 62
7
 10
-31.477285
 20
21.317266
  0
VERTEX
  8
LAYER_1
 62
7
 10
-31.571774
 20
21.317266
  0
SEQEND
  0
POLYLINE
  8
LAYER_1
 62
7
 66
1
  0
VERTEX
  8
LAYER_1
 62
7
 10
-31.477285
 20
21.317266
  0
VERTEX
  8
LAYER_1
 62
7
 10
-31.477285
 20
21.907817
  0
SEQEND
  0
POLYLINE
  8
LAYER_1
 62
7
 66
1
  0
VERTEX
  8
LAYER_1
 62
7
 10
-31.477285
 20
21.907817
  0
VERTEX
  8
LAYER_1
 62
7
 10
-31.571774
 20
21.907817
  0
SEQEND
  0
POLYLINE
  8
LAYER_1
 62
7
 66
1
  0
VERTEX
  8
LAYER_1
 62
7
 10
-31.571774
 20
22.301518
  0
VERTEX
  8
LAYER_1
 62
7
 10
-31.571774
 20
21.907817
  0
SEQEND
  0
POLYLINE
  8
LAYER_1
 62
7
 66
1
  0
VERTEX
  8
LAYER_1
 62
7
 10
-34.524529
 20
22.301518
  0
VERTEX
  8
LAYER_1
 62
7
 10
-31.571774
 20
22.301518
  0
SEQEND
  0
POLYLINE
  8
LAYER_1
 62
7
 66
1
  0
VERTEX
  8
LAYER_1
 62
7
 10
-34.524529
 20
21.907817
  0
VERTEX
  8
LAYER_1
 62
7
 10
-34.524529
 20
22.301518
  0
SEQEND
  0
POLYLINE
  8
LAYER_1
 62
7
 66
1
  0
VERTEX
  8
LAYER_1
 62
7
 10
-34.619018
 20
21.907817
  0
VERTEX
  8
LAYER_1
 62
7
 10
-34.524529
 20
21.907817
  0
SEQEND
  0
POLYLINE
  8
LAYER_1
 62
7
 66
1
  0
VERTEX
  8
LAYER_1
 62
7
 10
-34.619018
 20
21.907817
  0
VERTEX
  8
LAYER_1
 62
7
 10
-34.619018
 20
21.317266
  0
SEQEND
  0
POLYLINE
  8
LAYER_1
 62
7
 66
1
  0
VERTEX
  8
LAYER_1
 62
7
 10
-34.619018
 20
21.317266
  0
VERTEX
  8
LAYER_1
 62
7
 10
-34.524529
 20
21.317266
  0
SEQEND
  0
POLYLINE
  8
LAYER_1
 62
7
 66
1
  0
VERTEX
  8
LAYER_1
 62
7
 10
-34.524529
 20
19.151912
  0
VERTEX
  8
LAYER_1
 62
7
 10
-34.524529
 20
21.317266
  0
SEQEND
  0
POLYLINE
  8
LAYER_1
 62
7
 66
1
  0
VERTEX
  8
LAYER_1
 62
7
 10
-34.619018
 20
19.151912
  0
VERTEX
  8
LAYER_1
 62
7
 10
-34.524529
 20
19.151912
  0
SEQEND
  0
POLYLINE
  8
LAYER_1
 62
7
 66
1
  0
VERTEX
  8
LAYER_1
 62
7
 10
-34.619018
 20
19.151912
  0
VERTEX
  8
LAYER_1
 62
7
 10
-34.619018
 20
18.561361
  0
SEQEND
  0
POLYLINE
  8
LAYER_1
 62
7
 66
1
  0
VERTEX
  8
LAYER_1
 62
7
 10
-34.619018
 20
18.561361
  0
VERTEX
  8
LAYER_1
 62
7
 10
-34.524529
 20
18.561361
  0
SEQEND
  0
POLYLINE
  8
LAYER_1
 62
7
 66
1
  0
VERTEX
  8
LAYER_1
 62
7
 10
-34.619018
 20
16.396006
  0
VERTEX
  8
LAYER_1
 62
7
 10
-34.524529
 20
16.396006
  0
SEQEND
  0
POLYLINE
  8
LAYER_1
 62
7
 66
1
  0
VERTEX
  8
LAYER_1
 62
7
 10
-34.619018
 20
16.396006
  0
VERTEX
  8
LAYER_1
 62
7
 10
-34.619018
 20
15.805455
  0
SEQEND
  0
POLYLINE
  8
LAYER_1
 62
7
 66
1
  0
VERTEX
  8
LAYER_1
 62
7
 10
-34.619018
 20
15.805455
  0
VERTEX
  8
LAYER_1
 62
7
 10
-34.524529
 20
15.805455
  0
SEQEND
  0
POLYLINE
  8
LAYER_1
 62
7
 66
1
  0
VERTEX
  8
LAYER_1
 62
7
 10
-34.619018
 20
13.640101
  0
VERTEX
  8
LAYER_1
 62
7
 10
-34.524529
 20
13.640101
  0
SEQEND
  0
POLYLINE
  8
LAYER_1
 62
7
 66
1
  0
VERTEX
  8
LAYER_1
 62
7
 10
-34.134766
 20
12.754274
  0
VERTEX
  8
LAYER_1
 62
7
 10
-34.134766
 20
12.655849
  0
SEQEND
  0
POLYLINE
  8
LAYER_1
 62
7
 66
1
  0
VERTEX
  8
LAYER_1
 62
7
 10
-33.536340
 20
12.754274
  0
VERTEX
  8
LAYER_1
 62
7
 10
-34.134766
 20
12.754274
  0
SEQEND
  0
POLYLINE
  8
LAYER_1
 62
7
 66
1
  0
VERTEX
  8
LAYER_1
 62
7
 10
-33.536340
 20
12.754274
  0
VERTEX
  8
LAYER_1
 62
7
 10
-33.536340
 20
12.655849
  0
SEQEND
  0
POLYLINE
  8
LAYER_1
 62
7
 66
1
  0
VERTEX
  8
LAYER_1
 62
7
 10
-31.961537
 20
12.754274
  0
VERTEX
  8
LAYER_1
 62
7
 10
-32.559963
 20
12.754274
  0
SEQEND
  0
POLYLINE
  8
LAYER_1
 62
7
 66
1
  0
VERTEX
  8
LAYER_1
 62
7
 10
-31.961537
 20
12.754274
  0
VERTEX
  8
LAYER_1
 62
7
 10
-31.961537
 20
12.655849
  0
SEQEND
  0
POLYLINE
  8
LAYER_1
 62
7
 66
1
  0
VERTEX
  8
LAYER_1
 62
7
 10
-31.477285
 20
15.805455
  0
VERTEX
  8
LAYER_1
 62
7
 10
-31.571774
 20
15.805455
  0
SEQEND
  0
POLYLINE
  8
LAYER_1
 62
7
 66
1
  0
VERTEX
  8
LAYER_1
 62
7
 10
-34.619018
 20
13.049550
  0
VERTEX
  8
LAYER_1
 62
7
 10
-34.524529
 20
13.049550
  0
SEQEND
  0
POLYLINE
  8
LAYER_1
 62
7
 66
1
  0
VERTEX
  8
LAYER_1
 62
7
 10
-32.559963
 20
12.754274
  0
VERTEX
  8
LAYER_1
 62
7
 10
-32.559963
 20
12.655849
  0
SEQEND
  0
POLYLINE
  8
LAYER_1
 62
7
 66
1
  0
VERTEX
  8
LAYER_1
 62
7
 10
-34.134766
 20
12.655849
  0
VERTEX
  8
LAYER_1
 62
7
 10
-34.524529
 20
12.655849
  0
SEQEND
  0
POLYLINE
  8
LAYER_1
 62
7
 66
1
  0
VERTEX
  8
LAYER_1
 62
7
 10
-31.571774
 20
13.049550
  0
VERTEX
  8
LAYER_1
 62
7
 10
-31.571774
 20
12.655849
  0
SEQEND
  0
POLYLINE
  8
LAYER_1
 62
7
 66
1
  0
VERTEX
  8
LAYER_1
 62
7
 10
-31.571774
 20
15.805455
  0
VERTEX
  8
LAYER_1
 62
7
 10
-31.571774
 20
13.640101
  0
SEQEND
  0
POLYLINE
  8
LAYER_1
 62
7
 66
1
  0
VERTEX
  8
LAYER_1
 62
7
 10
-31.477285
 20
13.049550
  0
VERTEX
  8
LAYER_1
 62
7
 10
-31.477285
 20
13.640101
  0
SEQEND
  0
POLYLINE
  8
LAYER_1
 62
7
 66
1
  0
VERTEX
  8
LAYER_1
 62
7
 10
-31.477285
 20
13.640101
  0
VERTEX
  8
LAYER_1
 62
7
 10
-31.571774
 20
13.640101
  0
SEQEND
  0
POLYLINE
  8
LAYER_1
 62
7
 66
1
  0
VERTEX
  8
LAYER_1
 62
7
 10
-34.524529
 20
12.655849
  0
VERTEX
  8
LAYER_1
 62
7
 10
-34.524529
 20
13.049550
  0
SEQEND
  0
POLYLINE
  8
LAYER_1
 62
7
 66
1
  0
VERTEX
  8
LAYER_1
 62
7
 10
-34.524529
 20
13.640101
  0
VERTEX
  8
LAYER_1
 62
7
 10
-34.524529
 20
15.805455
  0
SEQEND
  0
POLYLINE
  8
LAYER_1
 62
7
 66
1
  0
VERTEX
  8
LAYER_1
 62
7
 10
-34.524529
 20
16.396006
  0
VERTEX
  8
LAYER_1
 62
7
 10
-34.524529
 20
18.561361
  0
SEQEND
  0
POLYLINE
  8
LAYER_1
 62
7
 66
1
  0
VERTEX
  8
LAYER_1
 62
7
 10
-31.571774
 20
18.561361
  0
VERTEX
  8
LAYER_1
 62
7
 10
-31.571774
 20
16.396006
  0
SEQEND
  0
POLYLINE
  8
LAYER_1
 62
7
 66
1
  0
VERTEX
  8
LAYER_1
 62
7
 10
-34.619018
 20
13.640101
  0
VERTEX
  8
LAYER_1
 62
7
 10
-34.619018
 20
13.049550
  0
SEQEND
  0
POLYLINE
  8
LAYER_1
 62
7
 66
1
  0
VERTEX
  8
LAYER_1
 62
7
 10
-32.559963
 20
12.655849
  0
VERTEX
  8
LAYER_1
 62
7
 10
-33.536340
 20
12.655849
  0
SEQEND
  0
POLYLINE
  8
LAYER_1
 62
7
 66
1
  0
VERTEX
  8
LAYER_1
 62
7
 10
-31.571774
 20
12.655849
  0
VERTEX
  8
LAYER_1
 62
7
 10
-31.961537
 20
12.655849
  0
SEQEND
  0
POLYLINE
  8
LAYER_1
 62
7
 70
1
 66
1
  0
VERTEX
  8
LAYER_1
 62
7
 10
-46.783654
 20
23.113899
 42
0.093893
  0
VERTEX
  8
LAYER_1
 62
7
 10
-46.906941
 20
23.336793
 42
0.100847
  0
VERTEX
  8
LAYER_1
 62
7
 10
-47.108439
 20
23.499123
 42
0.119898
  0
VERTEX
  8
LAYER_1
 62
7
 10
-47.390285
 20
23.567493
 42
0.068763
  0
VERTEX
  8
LAYER_1
 62
7
 10
-47.443666
 20
23.560108
 42
-0.030099
  0
VERTEX
  8
LAYER_1
 62
7
 10
-48.571453
 20
23.311846
 42
-0.035081
  0
VERTEX
  8
LAYER_1
 62
7
 10
-49.719989
 20
23.213099
 42
-0.055318
  0
VERTEX
  8
LAYER_1
 62
7
 10
-51.553231
 20
23.393753
 42
-0.017318
  0
VERTEX
  8
LAYER_1
 62
7
 10
-52.231386
 20
23.560088
 42
0.068769
  0
VERTEX
  8
LAYER_1
 62
7
 10
-52.284769
 20
23.567493
 42
0.098222
  0
VERTEX
  8
LAYER_1
 62
7
 10
-52.518995
 20
23.521158
 42
0.103468
  0
VERTEX
  8
LAYER_1
 62
7
 10
-52.734524
 20
23.374279
 42
0.194471
  0
VERTEX
  8
LAYER_1
 62
7
 10
-52.927004
 20
22.891290
  0
VERTEX
  8
LAYER_1
 62
7
 10
-52.925436
 20
22.866903
 42
-0.013821
  0
VERTEX
  8
LAYER_1
 62
7
 10
-52.698594
 20
20.598725
 42
-0.016147
  0
VERTEX
  8
LAYER_1
 62
7
 10
-52.608748
 20
18.323981
 42
-0.017143
  0
VERTEX
  8
LAYER_1
 62
7
 10
-52.675453
 20
15.931054
 42
-0.008168
  0
VERTEX
  8
LAYER_1
 62
7
 10
-52.773463
 20
14.682860
 42
-0.007931
  0
VERTEX
  8
LAYER_1
 62
7
 10
-52.925431
 20
13.315218
  0
VERTEX
  8
LAYER_1
 62
7
 10
-52.927005
 20
13.290673
 42
0.080114
  0
VERTEX
  8
LAYER_1
 62
7
 10
-52.891468
 20
13.068186
 42
0.093893
  0
VERTEX
  8
LAYER_1
 62
7
 10
-52.768181
 20
12.845293
 42
0.100847
  0
VERTEX
  8
LAYER_1
 62
7
 10
-52.566682
 20
12.682963
 42
0.119898
  0
VERTEX
  8
LAYER_1
 62
7
 10
-52.284837
 20
12.614592
 42
0.067580
  0
VERTEX
  8
LAYER_1
 62
7
 10
-52.232349
 20
12.621728
 42
-0.029578
  0
VERTEX
  8
LAYER_1
 62
7
 10
-51.103737
 20
12.865802
 42
-0.034484
  0
VERTEX
  8
LAYER_1
 62
7
 10
-49.955132
 20
12.962872
 42
-0.054375
  0
VERTEX
  8
LAYER_1
 62
7
 10
-48.121598
 20
12.785277
 42
-0.017015
  0
VERTEX
  8
LAYER_1
 62
7
 10
-47.442842
 20
12.621748
 42
0.067585
  0
VERTEX
  8
LAYER_1
 62
7
 10
-47.390353
 20
12.614592
 42
0.098222
  0
VERTEX
  8
LAYER_1
 62
7
 10
-47.156127
 20
12.660927
 42
0.103468
  0
VERTEX
  8
LAYER_1
 62
7
 10
-46.940597
 20
12.807807
 42
0.194471
  0
VERTEX
  8
LAYER_1
 62
7
 10
-46.748117
 20
13.290796
  0
VERTEX
  8
LAYER_1
 62
7
 10
-46.749746
 20
13.315653
 42
-0.014086
  0
VERTEX
  8
LAYER_1
 62
7
 10
-46.980879
 20
15.583412
 42
-0.016452
  0
VERTEX
  8
LAYER_1
 62
7
 10
-47.072422
 20
17.858100
 42
-0.017467
  0
VERTEX
  8
LAYER_1
 62
7
 10
-47.004459
 20
20.250975
 42
-0.008323
  0
VERTEX
  8
LAYER_1
 62
7
 10
-46.904597
 20
21.499039
 42
-0.008084
  0
VERTEX
  8
LAYER_1
 62
7
 10
-46.749751
 20
22.866398
  0
VERTEX
  8
LAYER_1
 62
7
 10
-46.748117
 20
22.891413
 42
0.080114
  0
VERTEX
  8
LAYER_1
 62
7
 10
-46.783654
 20
23.113899
  0
SEQEND
  0
POLYLINE
  8
LAYER_1
 62
7
 70
1
 66
1
  0
VERTEX
  8
LAYER_1
 62
7
 10
-47.722144
 20
22.874507
 42
0.199589
  0
VERTEX
  8
LAYER_1
 62
7
 10
-47.686969
 20
22.789586
 42
0.199589
  0
VERTEX
  8
LAYER_1
 62
7
 10
-47.602048
 20
22.754411
 42
0.199589
  0
VERTEX
  8
LAYER_1
 62
7
 10
-47.517127
 20
22.789586
 42
0.199589
  0
VERTEX
  8
LAYER_1
 62
7
 10
-47.481952
 20
22.874507
 42
0.199589
  0
VERTEX
  8
LAYER_1
 62
7
 10
-47.517127
 20
22.959428
 42
0.199589
  0
VERTEX
  8
LAYER_1
 62
7
 10
-47.602048
 20
22.994604
 42
0.199589
  0
VERTEX
  8
LAYER_1
 62
7
 10
-47.686969
 20
22.959428
 42
0.199589
  0
VERTEX
  8
LAYER_1
 62
7
 10
-47.722144
 20
22.874507
  0
SEQEND
  0
POLYLINE
  8
LAYER_1
 62
7
 66
1
  0
VERTEX
  8
LAYER_1
 62
7
 10
-51.813939
 20
13.366633
  0
VERTEX
  8
LAYER_1
 62
7
 10
-51.215514
 20
13.366633
  0
SEQEND
  0
POLYLINE
  8
LAYER_1
 62
7
 66
1
  0
VERTEX
  8
LAYER_1
 62
7
 10
-51.813939
 20
13.264271
  0
VERTEX
  8
LAYER_1
 62
7
 10
-51.813939
 20
13.366633
  0
SEQEND
  0
POLYLINE
  8
LAYER_1
 62
7
 66
1
  0
VERTEX
  8
LAYER_1
 62
7
 10
-51.215514
 20
13.264271
  0
VERTEX
  8
LAYER_1
 62
7
 10
-51.813939
 20
13.264271
  0
SEQEND
  0
POLYLINE
  8
LAYER_1
 62
7
 66
1
  0
VERTEX
  8
LAYER_1
 62
7
 10
-51.215514
 20
13.366633
  0
VERTEX
  8
LAYER_1
 62
7
 10
-51.215514
 20
13.264271
  0
SEQEND
  0
POLYLINE
  8
LAYER_1
 62
7
 66
1
  0
VERTEX
  8
LAYER_1
 62
7
 10
-48.459608
 20
13.366633
  0
VERTEX
  8
LAYER_1
 62
7
 10
-47.861183
 20
13.366633
  0
SEQEND
  0
POLYLINE
  8
LAYER_1
 62
7
 66
1
  0
VERTEX
  8
LAYER_1
 62
7
 10
-48.459608
 20
13.264271
  0
VERTEX
  8
LAYER_1
 62
7
 10
-48.459608
 20
13.366633
  0
SEQEND
  0
POLYLINE
  8
LAYER_1
 62
7
 66
1
  0
VERTEX
  8
LAYER_1
 62
7
 10
-47.861183
 20
13.264271
  0
VERTEX
  8
LAYER_1
 62
7
 10
-48.459608
 20
13.264271
  0
SEQEND
  0
POLYLINE
  8
LAYER_1
 62
7
 66
1
  0
VERTEX
  8
LAYER_1
 62
7
 10
-47.861183
 20
13.366633
  0
VERTEX
  8
LAYER_1
 62
7
 10
-47.861183
 20
13.264271
  0
SEQEND
  0
POLYLINE
  8
LAYER_1
 62
7
 66
1
  0
VERTEX
  8
LAYER_1
 62
7
 10
-52.199766
 20
19.768208
  0
VERTEX
  8
LAYER_1
 62
7
 10
-52.199766
 20
19.169783
  0
SEQEND
  0
POLYLINE
  8
LAYER_1
 62
7
 66
1
  0
VERTEX
  8
LAYER_1
 62
7
 10
-52.302128
 20
19.768208
  0
VERTEX
  8
LAYER_1
 62
7
 10
-52.199766
 20
19.768208
  0
SEQEND
  0
POLYLINE
  8
LAYER_1
 62
7
 66
1
  0
VERTEX
  8
LAYER_1
 62
7
 10
-52.302128
 20
19.169783
  0
VERTEX
  8
LAYER_1
 62
7
 10
-52.302128
 20
19.768208
  0
SEQEND
  0
POLYLINE
  8
LAYER_1
 62
7
 66
1
  0
VERTEX
  8
LAYER_1
 62
7
 10
-52.199766
 20
19.169783
  0
VERTEX
  8
LAYER_1
 62
7
 10
-52.302128
 20
19.169783
  0
SEQEND
  0
POLYLINE
  8
LAYER_1
 62
7
 66
1
  0
VERTEX
  8
LAYER_1
 62
7
 10
-52.199766
 20
14.256397
  0
VERTEX
  8
LAYER_1
 62
7
 10
-52.199766
 20
13.657972
  0
SEQEND
  0
POLYLINE
  8
LAYER_1
 62
7
 66
1
  0
VERTEX
  8
LAYER_1
 62
7
 10
-52.302128
 20
14.256397
  0
VERTEX
  8
LAYER_1
 62
7
 10
-52.199766
 20
14.256397
  0
SEQEND
  0
POLYLINE
  8
LAYER_1
 62
7
 66
1
  0
VERTEX
  8
LAYER_1
 62
7
 10
-52.302128
 20
13.657972
  0
VERTEX
  8
LAYER_1
 62
7
 10
-52.302128
 20
14.256397
  0
SEQEND
  0
POLYLINE
  8
LAYER_1
 62
7
 66
1
  0
VERTEX
  8
LAYER_1
 62
7
 10
-52.199766
 20
13.657972
  0
VERTEX
  8
LAYER_1
 62
7
 10
-52.302128
 20
13.657972
  0
SEQEND
  0
POLYLINE
  8
LAYER_1
 62
7
 66
1
  0
VERTEX
  8
LAYER_1
 62
7
 10
-47.475356
 20
22.524114
  0
VERTEX
  8
LAYER_1
 62
7
 10
-47.475356
 20
21.925688
  0
SEQEND
  0
POLYLINE
  8
LAYER_1
 62
7
 66
1
  0
VERTEX
  8
LAYER_1
 62
7
 10
-47.475356
 20
21.925688
  0
VERTEX
  8
LAYER_1
 62
7
 10
-47.372994
 20
21.925688
  0
SEQEND
  0
POLYLINE
  8
LAYER_1
 62
7
 66
1
  0
VERTEX
  8
LAYER_1
 62
7
 10
-47.372994
 20
21.925688
  0
VERTEX
  8
LAYER_1
 62
7
 10
-47.372994
 20
22.524114
  0
SEQEND
  0
POLYLINE
  8
LAYER_1
 62
7
 66
1
  0
VERTEX
  8
LAYER_1
 62
7
 10
-47.372994
 20
22.524114
  0
VERTEX
  8
LAYER_1
 62
7
 10
-47.475356
 20
22.524114
  0
SEQEND
  0
POLYLINE
  8
LAYER_1
 62
7
 66
1
  0
VERTEX
  8
LAYER_1
 62
7
 10
-47.475356
 20
19.768208
  0
VERTEX
  8
LAYER_1
 62
7
 10
-47.475356
 20
19.169783
  0
SEQEND
  0
POLYLINE
  8
LAYER_1
 62
7
 66
1
  0
VERTEX
  8
LAYER_1
 62
7
 10
-47.475356
 20
19.169783
  0
VERTEX
  8
LAYER_1
 62
7
 10
-47.372994
 20
19.169783
  0
SEQEND
  0
POLYLINE
  8
LAYER_1
 62
7
 66
1
  0
VERTEX
  8
LAYER_1
 62
7
 10
-47.372994
 20
19.169783
  0
VERTEX
  8
LAYER_1
 62
7
 10
-47.372994
 20
19.768208
  0
SEQEND
  0
POLYLINE
  8
LAYER_1
 62
7
 66
1
  0
VERTEX
  8
LAYER_1
 62
7
 10
-47.372994
 20
19.768208
  0
VERTEX
  8
LAYER_1
 62
7
 10
-47.475356
 20
19.768208
  0
SEQEND
  0
POLYLINE
  8
LAYER_1
 62
7
 66
1
  0
VERTEX
  8
LAYER_1
 62
7
 10
-47.475356
 20
17.012303
  0
VERTEX
  8
LAYER_1
 62
7
 10
-47.475356
 20
16.413877
  0
SEQEND
  0
POLYLINE
  8
LAYER_1
 62
7
 66
1
  0
VERTEX
  8
LAYER_1
 62
7
 10
-47.475356
 20
16.413877
  0
VERTEX
  8
LAYER_1
 62
7
 10
-47.372994
 20
16.413877
  0
SEQEND
  0
POLYLINE
  8
LAYER_1
 62
7
 66
1
  0
VERTEX
  8
LAYER_1
 62
7
 10
-47.372994
 20
16.413877
  0
VERTEX
  8
LAYER_1
 62
7
 10
-47.372994
 20
17.012303
  0
SEQEND
  0
POLYLINE
  8
LAYER_1
 62
7
 66
1
  0
VERTEX
  8
LAYER_1
 62
7
 10
-47.372994
 20
17.012303
  0
VERTEX
  8
LAYER_1
 62
7
 10
-47.475356
 20
17.012303
  0
SEQEND
  0
POLYLINE
  8
LAYER_1
 62
7
 66
1
  0
VERTEX
  8
LAYER_1
 62
7
 10
-47.475356
 20
14.256397
  0
VERTEX
  8
LAYER_1
 62
7
 10
-47.475356
 20
13.657972
  0
SEQEND
  0
POLYLINE
  8
LAYER_1
 62
7
 66
1
  0
VERTEX
  8
LAYER_1
 62
7
 10
-47.475356
 20
13.657972
  0
VERTEX
  8
LAYER_1
 62
7
 10
-47.372994
 20
13.657972
  0
SEQEND
  0
POLYLINE
  8
LAYER_1
 62
7
 66
1
  0
VERTEX
  8
LAYER_1
 62
7
 10
-47.372994
 20
13.657972
  0
VERTEX
  8
LAYER_1
 62
7
 10
-47.372994
 20
14.256397
  0
SEQEND
  0
POLYLINE
  8
LAYER_1
 62
7
 66
1
  0
VERTEX
  8
LAYER_1
 62
7
 10
-47.372994
 20
14.256397
  0
VERTEX
  8
LAYER_1
 62
7
 10
-47.475356
 20
14.256397
  0
SEQEND
  0
POLYLINE
  8
LAYER_1
 62
7
 66
1
  0
VERTEX
  8
LAYER_1
 62
7
 10
-52.199766
 20
17.012303
  0
VERTEX
  8
LAYER_1
 62
7
 10
-52.199766
 20
16.413877
  0
SEQEND
  0
POLYLINE
  8
LAYER_1
 62
7
 66
1
  0
VERTEX
  8
LAYER_1
 62
7
 10
-52.302128
 20
17.012303
  0
VERTEX
  8
LAYER_1
 62
7
 10
-52.199766
 20
17.012303
  0
SEQEND
  0
POLYLINE
  8
LAYER_1
 62
7
 66
1
  0
VERTEX
  8
LAYER_1
 62
7
 10
-52.302128
 20
16.413877
  0
VERTEX
  8
LAYER_1
 62
7
 10
-52.302128
 20
17.012303
  0
SEQEND
  0
POLYLINE
  8
LAYER_1
 62
7
 66
1
  0
VERTEX
  8
LAYER_1
 62
7
 10
-52.199766
 20
16.413877
  0
VERTEX
  8
LAYER_1
 62
7
 10
-52.302128
 20
16.413877
  0
SEQEND
  0
POLYLINE
  8
LAYER_1
 62
7
 66
1
  0
VERTEX
  8
LAYER_1
 62
7
 10
-52.199766
 20
22.524114
  0
VERTEX
  8
LAYER_1
 62
7
 10
-52.199766
 20
21.925688
  0
SEQEND
  0
POLYLINE
  8
LAYER_1
 62
7
 66
1
  0
VERTEX
  8
LAYER_1
 62
7
 10
-52.302128
 20
22.524114
  0
VERTEX
  8
LAYER_1
 62
7
 10
-52.199766
 20
22.524114
  0
SEQEND
  0
POLYLINE
  8
LAYER_1
 62
7
 66
1
  0
VERTEX
  8
LAYER_1
 62
7
 10
-52.302128
 20
21.925688
  0
VERTEX
  8
LAYER_1
 62
7
 10
-52.302128
 20
22.524114
  0
SEQEND
  0
POLYLINE
  8
LAYER_1
 62
7
 66
1
  0
VERTEX
  8
LAYER_1
 62
7
 10
-52.199766
 20
21.925688
  0
VERTEX
  8
LAYER_1
 62
7
 10
-52.302128
 20
21.925688
  0
SEQEND
  0
POLYLINE
  8
LAYER_1
 62
7
 66
1
  0
VERTEX
  8
LAYER_1
 62
7
 10
-50.136773
 20
13.366633
  0
VERTEX
  8
LAYER_1
 62
7
 10
-49.538348
 20
13.366633
  0
SEQEND
  0
POLYLINE
  8
LAYER_1
 62
7
 66
1
  0
VERTEX
  8
LAYER_1
 62
7
 10
-50.136773
 20
13.264271
  0
VERTEX
  8
LAYER_1
 62
7
 10
-50.136773
 20
13.366633
  0
SEQEND
  0
POLYLINE
  8
LAYER_1
 62
7
 66
1
  0
VERTEX
  8
LAYER_1
 62
7
 10
-49.538348
 20
13.264271
  0
VERTEX
  8
LAYER_1
 62
7
 10
-50.136773
 20
13.264271
  0
SEQEND
  0
POLYLINE
  8
LAYER_1
 62
7
 66
1
  0
VERTEX
  8
LAYER_1
 62
7
 10
-49.538348
 20
13.366633
  0
VERTEX
  8
LAYER_1
 62
7
 10
-49.538348
 20
13.264271
  0
SEQEND
  0
POLYLINE
  8
LAYER_1
 62
7
 70
1
 66
1
  0
VERTEX
  8
LAYER_1
 62
7
 10
-49.172807
 20
16.727612
 42
0.028865
  0
VERTEX
  8
LAYER_1
 62
7
 10
-49.197157
 20
17.070330
 42
0.017916
  0
VERTEX
  8
LAYER_1
 62
7
 10
-49.259392
 20
17.468250
 42
0.003294
  0
VERTEX
  8
LAYER_1
 62
7
 10
-49.466906
 20
18.375588
 42
-0.014751
  0
VERTEX
  8
LAYER_1
 62
7
 10
-49.559808
 20
18.824551
 42
-0.027257
  0
VERTEX
  8
LAYER_1
 62
7
 10
-49.614684
 20
19.278376
 42
-0.040492
  0
VERTEX
  8
LAYER_1
 62
7
 10
-49.607831
 20
19.732732
 42
-0.052464
  0
VERTEX
  8
LAYER_1
 62
7
 10
-49.515540
 20
20.183285
 42
-0.020248
  0
VERTEX
  8
LAYER_1
 62
7
 10
-49.466458
 20
20.310528
 42
0.199589
  0
VERTEX
  8
LAYER_1
 62
7
 10
-49.467083
 20
20.340654
 42
0.199589
  0
VERTEX
  8
LAYER_1
 62
7
 10
-49.488828
 20
20.361514
 42
0.093252
  0
VERTEX
  8
LAYER_1
 62
7
 10
-49.503136
 20
20.364206
  0
VERTEX
  8
LAYER_1
 62
7
 10
-50.281930
 20
20.364206
 42
0.290324
  0
VERTEX
  8
LAYER_1
 62
7
 10
-50.317540
 20
20.341625
 42
0.078719
  0
VERTEX
  8
LAYER_1
 62
7
 10
-50.484427
 20
19.768721
 42
0.034821
  0
VERTEX
  8
LAYER_1
 62
7
 10
-50.502315
 20
19.454466
 42
0.028865
  0
VERTEX
  8
LAYER_1
 62
7
 10
-50.477964
 20
19.111756
 42
0.014015
  0
VERTEX
  8
LAYER_1
 62
7
 10
-50.416826
 20
18.719396
  0
VERTEX
  8
LAYER_1
 62
7
 10
-50.208035
 20
17.805730
 42
-0.015428
  0
VERTEX
  8
LAYER_1
 62
7
 10
-50.109856
 20
17.321047
 42
-0.031060
  0
VERTEX
  8
LAYER_1
 62
7
 10
-50.057794
 20
16.837318
 42
-0.046710
  0
VERTEX
  8
LAYER_1
 62
7
 10
-50.081386
 20
16.354347
 42
-0.058103
  0
VERTEX
  8
LAYER_1
 62
7
 10
-50.210167
 20
15.871939
 42
0.199589
  0
VERTEX
  8
LAYER_1
 62
7
 10
-50.209757
 20
15.841744
 42
0.199589
  0
VERTEX
  8
LAYER_1
 62
7
 10
-50.188116
 20
15.820682
 42
0.094264
  0
VERTEX
  8
LAYER_1
 62
7
 10
-50.173639
 20
15.817880
  0
VERTEX
  8
LAYER_1
 62
7
 10
-49.393192
 20
15.817880
 42
0.290324
  0
VERTEX
  8
LAYER_1
 62
7
 10
-49.357582
 20
15.840461
 42
0.078719
  0
VERTEX
  8
LAYER_1
 62
7
 10
-49.190695
 20
16.413364
 42
0.034820
  0
VERTEX
  8
LAYER_1
 62
7
 10
-49.172807
 20
16.727612
  0
SEQEND
  0
POLYLINE
  8
LAYER_1
 62
7
 70
1
 66
1
  0
VERTEX
  8
LAYER_1
 62
7
 10
-40.583046
 20
23.113899
 42
0.093893
  0
VERTEX
  8
LAYER_1
 62
7
 10
-40.706334
 20
23.336793
 42
0.100847
  0
VERTEX
  8
LAYER_1
 62
7
 10
-40.907832
 20
23.499123
 42
0.119898
  0
VERTEX
  8
LAYER_1
 62
7
 10
-41.189678
 20
23.567493
 42
0.068763
  0
VERTEX
  8
LAYER_1
 62
7
 10
-41.243058
 20
23.560108
 42
-0.030099
  0
VERTEX
  8
LAYER_1
 62
7
 10
-42.370846
 20
23.311846
 42
-0.035081
  0
VERTEX
  8
LAYER_1
 62
7
 10
-43.519382
 20
23.213099
 42
-0.055318
  0
VERTEX
  8
LAYER_1
 62
7
 10
-45.352623
 20
23.393753
 42
-0.017318
  0
VERTEX
  8
LAYER_1
 62
7
 10
-46.030779
 20
23.560088
 42
0.068769
  0
VERTEX
  8
LAYER_1
 62
7
 10
-46.084162
 20
23.567493
 42
0.098222
  0
VERTEX
  8
LAYER_1
 62
7
 10
-46.318388
 20
23.521158
 42
0.103468
  0
VERTEX
  8
LAYER_1
 62
7
 10
-46.533917
 20
23.374279
 42
0.194471
  0
VERTEX
  8
LAYER_1
 62
7
 10
-46.726397
 20
22.891290
  0
VERTEX
  8
LAYER_1
 62
7
 10
-46.724829
 20
22.866903
 42
-0.013821
  0
VERTEX
  8
LAYER_1
 62
7
 10
-46.497987
 20
20.598725
 42
-0.016147
  0
VERTEX
  8
LAYER_1
 62
7
 10
-46.408140
 20
18.323981
 42
-0.017143
  0
VERTEX
  8
LAYER_1
 62
7
 10
-46.474846
 20
15.931054
 42
-0.008168
  0
VERTEX
  8
LAYER_1
 62
7
 10
-46.572856
 20
14.682860
 42
-0.007931
  0
VERTEX
  8
LAYER_1
 62
7
 10
-46.724824
 20
13.315218
  0
VERTEX
  8
LAYER_1
 62
7
 10
-46.726397
 20
13.290673
 42
0.080114
  0
VERTEX
  8
LAYER_1
 62
7
 10
-46.690861
 20
13.068186
 42
0.093893
  0
VERTEX
  8
LAYER_1
 62
7
 10
-46.567573
 20
12.845293
 42
0.100847
  0
VERTEX
  8
LAYER_1
 62
7
 10
-46.366075
 20
12.682963
 42
0.119898
  0
VERTEX
  8
LAYER_1
 62
7
 10
-46.084229
 20
12.614592
 42
0.067580
  0
VERTEX
  8
LAYER_1
 62
7
 10
-46.031742
 20
12.621728
 42
-0.029578
  0
VERTEX
  8
LAYER_1
 62
7
 10
-44.903130
 20
12.865802
 42
-0.034484
  0
VERTEX
  8
LAYER_1
 62
7
 10
-43.754525
 20
12.962872
 42
-0.054375
  0
VERTEX
  8
LAYER_1
 62
7
 10
-41.920990
 20
12.785277
 42
-0.017015
  0
VERTEX
  8
LAYER_1
 62
7
 10
-41.242235
 20
12.621748
 42
0.067585
  0
VERTEX
  8
LAYER_1
 62
7
 10
-41.189745
 20
12.614592
 42
0.098222
  0
VERTEX
  8
LAYER_1
 62
7
 10
-40.955519
 20
12.660927
 42
0.103468
  0
VERTEX
  8
LAYER_1
 62
7
 10
-40.739990
 20
12.807807
 42
0.194471
  0
VERTEX
  8
LAYER_1
 62
7
 10
-40.547510
 20
13.290796
  0
VERTEX
  8
LAYER_1
 62
7
 10
-40.549139
 20
13.315653
 42
-0.014086
  0
VERTEX
  8
LAYER_1
 62
7
 10
-40.780272
 20
15.583412
 42
-0.016452
  0
VERTEX
  8
LAYER_1
 62
7
 10
-40.871815
 20
17.858100
 42
-0.017467
  0
VERTEX
  8
LAYER_1
 62
7
 10
-40.803851
 20
20.250975
 42
-0.008323
  0
VERTEX
  8
LAYER_1
 62
7
 10
-40.703990
 20
21.499039
 42
-0.008084
  0
VERTEX
  8
LAYER_1
 62
7
 10
-40.549143
 20
22.866398
  0
VERTEX
  8
LAYER_1
 62
7
 10
-40.547510
 20
22.891413
 42
0.080114
  0
VERTEX
  8
LAYER_1
 62
7
 10
-40.583046
 20
23.113899
  0
SEQEND
  0
POLYLINE
  8
LAYER_1
 62
7
 70
1
 66
1
  0
VERTEX
  8
LAYER_1
 62
7
 10
-41.521537
 20
22.874507
 42
0.199589
  0
VERTEX
  8
LAYER_1
 62
7
 10
-41.486362
 20
22.789586
 42
0.199589
  0
VERTEX
  8
LAYER_1
 62
7
 10
-41.401441
 20
22.754411
 42
0.199589
  0
VERTEX
  8
LAYER_1
 62
7
 10
-41.316520
 20
22.789586
 42
0.199589
  0
VERTEX
  8
LAYER_1
 62
7
 10
-41.281344
 20
22.874507
 42
0.199589
  0
VERTEX
  8
LAYER_1
 62
7
 10
-41.316520
 20
22.959428
 42
0.199589
  0
VERTEX
  8
LAYER_1
 62
7
 10
-41.401441
 20
22.994604
 42
0.199589
  0
VERTEX
  8
LAYER_1
 62
7
 10
-41.486362
 20
22.959428
 42
0.199589
  0
VERTEX
  8
LAYER_1
 62
7
 10
-41.521537
 20
22.874507
  0
SEQEND
  0
POLYLINE
  8
LAYER_1
 62
7
 66
1
  0
VERTEX
  8
LAYER_1
 62
7
 10
-45.613331
 20
13.366633
  0
VERTEX
  8
LAYER_1
 62
7
 10
-45.014906
 20
13.366633
  0
SEQEND
  0
POLYLINE
  8
LAYER_1
 62
7
 66
1
  0
VERTEX
  8
LAYER_1
 62
7
 10
-45.613331
 20
13.264271
  0
VERTEX
  8
LAYER_1
 62
7
 10
-45.613331
 20
13.366633
  0
SEQEND
  0
POLYLINE
  8
LAYER_1
 62
7
 66
1
  0
VERTEX
  8
LAYER_1
 62
7
 10
-45.014906
 20
13.264271
  0
VERTEX
  8
LAYER_1
 62
7
 10
-45.613331
 20
13.264271
  0
SEQEND
  0
POLYLINE
  8
LAYER_1
 62
7
 66
1
  0
VERTEX
  8
LAYER_1
 62
7
 10
-45.014906
 20
13.366633
  0
VERTEX
  8
LAYER_1
 62
7
 10
-45.014906
 20
13.264271
  0
SEQEND
  0
POLYLINE
  8
LAYER_1
 62
7
 66
1
  0
VERTEX
  8
LAYER_1
 62
7
 10
-42.259001
 20
13.366633
  0
VERTEX
  8
LAYER_1
 62
7
 10
-41.660576
 20
13.366633
  0
SEQEND
  0
POLYLINE
  8
LAYER_1
 62
7
 66
1
  0
VERTEX
  8
LAYER_1
 62
7
 10
-42.259001
 20
13.264271
  0
VERTEX
  8
LAYER_1
 62
7
 10
-42.259001
 20
13.366633
  0
SEQEND
  0
POLYLINE
  8
LAYER_1
 62
7
 66
1
  0
VERTEX
  8
LAYER_1
 62
7
 10
-41.660576
 20
13.264271
  0
VERTEX
  8
LAYER_1
 62
7
 10
-42.259001
 20
13.264271
  0
SEQEND
  0
POLYLINE
  8
LAYER_1
 62
7
 66
1
  0
VERTEX
  8
LAYER_1
 62
7
 10
-41.660576
 20
13.366633
  0
VERTEX
  8
LAYER_1
 62
7
 10
-41.660576
 20
13.264271
  0
SEQEND
  0
POLYLINE
  8
LAYER_1
 62
7
 66
1
  0
VERTEX
  8
LAYER_1
 62
7
 10
-45.999158
 20
19.768208
  0
VERTEX
  8
LAYER_1
 62
7
 10
-45.999158
 20
19.169783
  0
SEQEND
  0
POLYLINE
  8
LAYER_1
 62
7
 66
1
  0
VERTEX
  8
LAYER_1
 62
7
 10
-46.101520
 20
19.768208
  0
VERTEX
  8
LAYER_1
 62
7
 10
-45.999158
 20
19.768208
  0
SEQEND
  0
POLYLINE
  8
LAYER_1
 62
7
 66
1
  0
VERTEX
  8
LAYER_1
 62
7
 10
-46.101520
 20
19.169783
  0
VERTEX
  8
LAYER_1
 62
7
 10
-46.101520
 20
19.768208
  0
SEQEND
  0
POLYLINE
  8
LAYER_1
 62
7
 66
1
  0
VERTEX
  8
LAYER_1
 62
7
 10
-45.999158
 20
19.169783
  0
VERTEX
  8
LAYER_1
 62
7
 10
-46.101520
 20
19.169783
  0
SEQEND
  0
POLYLINE
  8
LAYER_1
 62
7
 66
1
  0
VERTEX
  8
LAYER_1
 62
7
 10
-45.999158
 20
14.256397
  0
VERTEX
  8
LAYER_1
 62
7
 10
-45.999158
 20
13.657972
  0
SEQEND
  0
POLYLINE
  8
LAYER_1
 62
7
 66
1
  0
VERTEX
  8
LAYER_1
 62
7
 10
-46.101520
 20
14.256397
  0
VERTEX
  8
LAYER_1
 62
7
 10
-45.999158
 20
14.256397
  0
SEQEND
  0
POLYLINE
  8
LAYER_1
 62
7
 66
1
  0
VERTEX
  8
LAYER_1
 62
7
 10
-46.101520
 20
13.657972
  0
VERTEX
  8
LAYER_1
 62
7
 10
-46.101520
 20
14.256397
  0
SEQEND
  0
POLYLINE
  8
LAYER_1
 62
7
 66
1
  0
VERTEX
  8
LAYER_1
 62
7
 10
-45.999158
 20
13.657972
  0
VERTEX
  8
LAYER_1
 62
7
 10
-46.101520
 20
13.657972
  0
SEQEND
  0
POLYLINE
  8
LAYER_1
 62
7
 66
1
  0
VERTEX
  8
LAYER_1
 62
7
 10
-41.274749
 20
22.524114
  0
VERTEX
  8
LAYER_1
 62
7
 10
-41.274749
 20
21.925688
  0
SEQEND
  0
POLYLINE
  8
LAYER_1
 62
7
 66
1
  0
VERTEX
  8
LAYER_1
 62
7
 10
-41.274749
 20
21.925688
  0
VERTEX
  8
LAYER_1
 62
7
 10
-41.172387
 20
21.925688
  0
SEQEND
  0
POLYLINE
  8
LAYER_1
 62
7
 66
1
  0
VERTEX
  8
LAYER_1
 62
7
 10
-41.172387
 20
21.925688
  0
VERTEX
  8
LAYER_1
 62
7
 10
-41.172387
 20
22.524114
  0
SEQEND
  0
POLYLINE
  8
LAYER_1
 62
7
 66
1
  0
VERTEX
  8
LAYER_1
 62
7
 10
-41.172387
 20
22.524114
  0
VERTEX
  8
LAYER_1
 62
7
 10
-41.274749
 20
22.524114
  0
SEQEND
  0
POLYLINE
  8
LAYER_1
 62
7
 66
1
  0
VERTEX
  8
LAYER_1
 62
7
 10
-41.274749
 20
19.768208
  0
VERTEX
  8
LAYER_1
 62
7
 10
-41.274749
 20
19.169783
  0
SEQEND
  0
POLYLINE
  8
LAYER_1
 62
7
 66
1
  0
VERTEX
  8
LAYER_1
 62
7
 10
-41.274749
 20
19.169783
  0
VERTEX
  8
LAYER_1
 62
7
 10
-41.172387
 20
19.169783
  0
SEQEND
  0
POLYLINE
  8
LAYER_1
 62
7
 66
1
  0
VERTEX
  8
LAYER_1
 62
7
 10
-41.172387
 20
19.169783
  0
VERTEX
  8
LAYER_1
 62
7
 10
-41.172387
 20
19.768208
  0
SEQEND
  0
POLYLINE
  8
LAYER_1
 62
7
 66
1
  0
VERTEX
  8
LAYER_1
 62
7
 10
-41.172387
 20
19.768208
  0
VERTEX
  8
LAYER_1
 62
7
 10
-41.274749
 20
19.768208
  0
SEQEND
  0
POLYLINE
  8
LAYER_1
 62
7
 66
1
  0
VERTEX
  8
LAYER_1
 62
7
 10
-41.274749
 20
17.012303
  0
VERTEX
  8
LAYER_1
 62
7
 10
-41.274749
 20
16.413877
  0
SEQEND
  0
POLYLINE
  8
LAYER_1
 62
7
 66
1
  0
VERTEX
  8
LAYER_1
 62
7
 10
-41.274749
 20
16.413877
  0
VERTEX
  8
LAYER_1
 62
7
 10
-41.172387
 20
16.413877
  0
SEQEND
  0
POLYLINE
  8
LAYER_1
 62
7
 66
1
  0
VERTEX
  8
LAYER_1
 62
7
 10
-41.172387
 20
16.413877
  0
VERTEX
  8
LAYER_1
 62
7
 10
-41.172387
 20
17.012303
  0
SEQEND
  0
POLYLINE
  8
LAYER_1
 62
7
 66
1
  0
VERTEX
  8
LAYER_1
 62
7
 10
-41.172387
 20
17.012303
  0
VERTEX
  8
LAYER_1
 62
7
 10
-41.274749
 20
17.012303
  0
SEQEND
  0
POLYLINE
  8
LAYER_1
 62
7
 66
1
  0
VERTEX
  8
LAYER_1
 62
7
 10
-41.274749
 20
14.256397
  0
VERTEX
  8
LAYER_1
 62
7
 10
-41.274749
 20
13.657972
  0
SEQEND
  0
POLYLINE
  8
LAYER_1
 62
7
 66
1
  0
VERTEX
  8
LAYER_1
 62
7
 10
-41.274749
 20
13.657972
  0
VERTEX
  8
LAYER_1
 62
7
 10
-41.172387
 20
13.657972
  0
SEQEND
  0
POLYLINE
  8
LAYER_1
 62
7
 66
1
  0
VERTEX
  8
LAYER_1
 62
7
 10
-41.172387
 20
13.657972
  0
VERTEX
  8
LAYER_1
 62
7
 10
-41.172387
 20
14.256397
  0
SEQEND
  0
POLYLINE
  8
LAYER_1
 62
7
 66
1
  0
VERTEX
  8
LAYER_1
 62
7
 10
-41.172387
 20
14.256397
  0
VERTEX
  8
LAYER_1
 62
7
 10
-41.274749
 20
14.256397
  0
SEQEND
  0
POLYLINE
  8
LAYER_1
 62
7
 66
1
  0
VERTEX
  8
LAYER_1
 62
7
 10
-45.999158
 20
17.012303
  0
VERTEX
  8
LAYER_1
 62
7
 10
-45.999158
 20
16.413877
  0
SEQEND
  0
POLYLINE
  8
LAYER_1
 62
7
 66
1
  0
VERTEX
  8
LAYER_1
 62
7
 10
-46.101520
 20
17.012303
  0
VERTEX
  8
LAYER_1
 62
7
 10
-45.999158
 20
17.012303
  0
SEQEND
  0
POLYLINE
  8
LAYER_1
 62
7
 66
1
  0
VERTEX
  8
LAYER_1
 62
7
 10
-46.101520
 20
16.413877
  0
VERTEX
  8
LAYER_1
 62
7
 10
-46.101520
 20
17.012303
  0
SEQEND
  0
POLYLINE
  8
LAYER_1
 62
7
 66
1
  0
VERTEX
  8
LAYER_1
 62
7
 10
-45.999158
 20
16.413877
  0
VERTEX
  8
LAYER_1
 62
7
 10
-46.101520
 20
16.413877
  0
SEQEND
  0
POLYLINE
  8
LAYER_1
 62
7
 66
1
  0
VERTEX
  8
LAYER_1
 62
7
 10
-45.999158
 20
22.524114
  0
VERTEX
  8
LAYER_1
 62
7
 10
-45.999158
 20
21.925688
  0
SEQEND
  0
POLYLINE
  8
LAYER_1
 62
7
 66
1
  0
VERTEX
  8
LAYER_1
 62
7
 10
-46.101520
 20
22.524114
  0
VERTEX
  8
LAYER_1
 62
7
 10
-45.999158
 20
22.524114
  0
SEQEND
  0
POLYLINE
  8
LAYER_1
 62
7
 66
1
  0
VERTEX
  8
LAYER_1
 62
7
 10
-46.101520
 20
21.925688
  0
VERTEX
  8
LAYER_1
 62
7
 10
-46.101520
 20
22.524114
  0
SEQEND
  0
POLYLINE
  8
LAYER_1
 62
7
 66
1
  0
VERTEX
  8
LAYER_1
 62
7
 10
-45.999158
 20
21.925688
  0
VERTEX
  8
LAYER_1
 62
7
 10
-46.101520
 20
21.925688
  0
SEQEND
  0
POLYLINE
  8
LAYER_1
 62
7
 66
1
  0
VERTEX
  8
LAYER_1
 62
7
 10
-43.936166
 20
13.366633
  0
VERTEX
  8
LAYER_1
 62
7
 10
-43.337741
 20
13.366633
  0
SEQEND
  0
POLYLINE
  8
LAYER_1
 62
7
 66
1
  0
VERTEX
  8
LAYER_1
 62
7
 10
-43.936166
 20
13.264271
  0
VERTEX
  8
LAYER_1
 62
7
 10
-43.936166
 20
13.366633
  0
SEQEND
  0
POLYLINE
  8
LAYER_1
 62
7
 66
1
  0
VERTEX
  8
LAYER_1
 62
7
 10
-43.337741
 20
13.264271
  0
VERTEX
  8
LAYER_1
 62
7
 10
-43.936166
 20
13.264271
  0
SEQEND
  0
POLYLINE
  8
LAYER_1
 62
7
 66
1
  0
VERTEX
  8
LAYER_1
 62
7
 10
-43.337741
 20
13.366633
  0
VERTEX
  8
LAYER_1
 62
7
 10
-43.337741
 20
13.264271
  0
SEQEND
  0
POLYLINE
  8
LAYER_1
 62
7
 66
1
  0
VERTEX
  8
LAYER_1
 62
7
 10
-30.965984
 20
23.439147
  0
VERTEX
  8
LAYER_1
 62
7
 10
-30.572283
 20
23.439147
  0
SEQEND
  0
POLYLINE
  8
LAYER_1
 62
7
 66
1
  0
VERTEX
  8
LAYER_1
 62
7
 10
-30.965984
 20
23.344658
  0
VERTEX
  8
LAYER_1
 62
7
 10
-30.965984
 20
23.439147
  0
SEQEND
  0
POLYLINE
  8
LAYER_1
 62
7
 66
1
  0
VERTEX
  8
LAYER_1
 62
7
 10
-30.965984
 20
23.344658
  0
VERTEX
  8
LAYER_1
 62
7
 10
-31.556535
 20
23.344658
  0
SEQEND
  0
POLYLINE
  8
LAYER_1
 62
7
 66
1
  0
VERTEX
  8
LAYER_1
 62
7
 10
-31.556535
 20
23.344658
  0
VERTEX
  8
LAYER_1
 62
7
 10
-31.556535
 20
23.439147
  0
SEQEND
  0
POLYLINE
  8
LAYER_1
 62
7
 66
1
  0
VERTEX
  8
LAYER_1
 62
7
 10
-32.643149
 20
23.439147
  0
VERTEX
  8
LAYER_1
 62
7
 10
-31.556535
 20
23.439147
  0
SEQEND
  0
POLYLINE
  8
LAYER_1
 62
7
 66
1
  0
VERTEX
  8
LAYER_1
 62
7
 10
-32.643149
 20
23.344658
  0
VERTEX
  8
LAYER_1
 62
7
 10
-32.643149
 20
23.439147
  0
SEQEND
  0
POLYLINE
  8
LAYER_1
 62
7
 66
1
  0
VERTEX
  8
LAYER_1
 62
7
 10
-32.643149
 20
23.344658
  0
VERTEX
  8
LAYER_1
 62
7
 10
-33.233700
 20
23.344658
  0
SEQEND
  0
POLYLINE
  8
LAYER_1
 62
7
 66
1
  0
VERTEX
  8
LAYER_1
 62
7
 10
-33.233700
 20
23.344658
  0
VERTEX
  8
LAYER_1
 62
7
 10
-33.233700
 20
23.439147
  0
SEQEND
  0
POLYLINE
  8
LAYER_1
 62
7
 66
1
  0
VERTEX
  8
LAYER_1
 62
7
 10
-34.320314
 20
23.439147
  0
VERTEX
  8
LAYER_1
 62
7
 10
-33.233700
 20
23.439147
  0
SEQEND
  0
POLYLINE
  8
LAYER_1
 62
7
 66
1
  0
VERTEX
  8
LAYER_1
 62
7
 10
-34.320314
 20
23.344658
  0
VERTEX
  8
LAYER_1
 62
7
 10
-34.320314
 20
23.439147
  0
SEQEND
  0
POLYLINE
  8
LAYER_1
 62
7
 66
1
  0
VERTEX
  8
LAYER_1
 62
7
 10
-34.320314
 20
23.344658
  0
VERTEX
  8
LAYER_1
 62
7
 10
-34.910865
 20
23.344658
  0
SEQEND
  0
POLYLINE
  8
LAYER_1
 62
7
 66
1
  0
VERTEX
  8
LAYER_1
 62
7
 10
-34.910865
 20
23.344658
  0
VERTEX
  8
LAYER_1
 62
7
 10
-34.910865
 20
23.439147
  0
SEQEND
  0
POLYLINE
  8
LAYER_1
 62
7
 66
1
  0
VERTEX
  8
LAYER_1
 62
7
 10
-35.304566
 20
23.439147
  0
VERTEX
  8
LAYER_1
 62
7
 10
-34.910865
 20
23.439147
  0
SEQEND
  0
POLYLINE
  8
LAYER_1
 62
7
 66
1
  0
VERTEX
  8
LAYER_1
 62
7
 10
-35.304566
 20
23.832847
  0
VERTEX
  8
LAYER_1
 62
7
 10
-35.304566
 20
23.439147
  0
SEQEND
  0
POLYLINE
  8
LAYER_1
 62
7
 66
1
  0
VERTEX
  8
LAYER_1
 62
7
 10
-35.399054
 20
23.832847
  0
VERTEX
  8
LAYER_1
 62
7
 10
-35.304566
 20
23.832847
  0
SEQEND
  0
POLYLINE
  8
LAYER_1
 62
7
 66
1
  0
VERTEX
  8
LAYER_1
 62
7
 10
-35.399054
 20
24.423399
  0
VERTEX
  8
LAYER_1
 62
7
 10
-35.399054
 20
23.832847
  0
SEQEND
  0
POLYLINE
  8
LAYER_1
 62
7
 66
1
  0
VERTEX
  8
LAYER_1
 62
7
 10
-35.399054
 20
24.423399
  0
VERTEX
  8
LAYER_1
 62
7
 10
-35.304566
 20
24.423399
  0
SEQEND
  0
POLYLINE
  8
LAYER_1
 62
7
 66
1
  0
VERTEX
  8
LAYER_1
 62
7
 10
-35.304566
 20
25.407651
  0
VERTEX
  8
LAYER_1
 62
7
 10
-35.304566
 20
24.423399
  0
SEQEND
  0
POLYLINE
  8
LAYER_1
 62
7
 66
1
  0
VERTEX
  8
LAYER_1
 62
7
 10
-35.399054
 20
25.407651
  0
VERTEX
  8
LAYER_1
 62
7
 10
-35.304566
 20
25.407651
  0
SEQEND
  0
POLYLINE
  8
LAYER_1
 62
7
 66
1
  0
VERTEX
  8
LAYER_1
 62
7
 10
-35.399054
 20
25.998202
  0
VERTEX
  8
LAYER_1
 62
7
 10
-35.399054
 20
25.407651
  0
SEQEND
  0
POLYLINE
  8
LAYER_1
 62
7
 66
1
  0
VERTEX
  8
LAYER_1
 62
7
 10
-35.399054
 20
25.998202
  0
VERTEX
  8
LAYER_1
 62
7
 10
-35.304566
 20
25.998202
  0
SEQEND
  0
POLYLINE
  8
LAYER_1
 62
7
 66
1
  0
VERTEX
  8
LAYER_1
 62
7
 10
-35.304566
 20
26.391903
  0
VERTEX
  8
LAYER_1
 62
7
 10
-35.304566
 20
25.998202
  0
SEQEND
  0
POLYLINE
  8
LAYER_1
 62
7
 66
1
  0
VERTEX
  8
LAYER_1
 62
7
 10
-34.910865
 20
26.391903
  0
VERTEX
  8
LAYER_1
 62
7
 10
-35.304566
 20
26.391903
  0
SEQEND
  0
POLYLINE
  8
LAYER_1
 62
7
 66
1
  0
VERTEX
  8
LAYER_1
 62
7
 10
-34.910865
 20
26.486391
  0
VERTEX
  8
LAYER_1
 62
7
 10
-34.910865
 20
26.391903
  0
SEQEND
  0
POLYLINE
  8
LAYER_1
 62
7
 66
1
  0
VERTEX
  8
LAYER_1
 62
7
 10
-34.910865
 20
26.486391
  0
VERTEX
  8
LAYER_1
 62
7
 10
-34.320314
 20
26.486391
  0
SEQEND
  0
POLYLINE
  8
LAYER_1
 62
7
 66
1
  0
VERTEX
  8
LAYER_1
 62
7
 10
-34.320314
 20
26.486391
  0
VERTEX
  8
LAYER_1
 62
7
 10
-34.320314
 20
26.391903
  0
SEQEND
  0
POLYLINE
  8
LAYER_1
 62
7
 66
1
  0
VERTEX
  8
LAYER_1
 62
7
 10
-33.233700
 20
26.391903
  0
VERTEX
  8
LAYER_1
 62
7
 10
-34.320314
 20
26.391903
  0
SEQEND
  0
POLYLINE
  8
LAYER_1
 62
7
 66
1
  0
VERTEX
  8
LAYER_1
 62
7
 10
-33.233700
 20
26.486391
  0
VERTEX
  8
LAYER_1
 62
7
 10
-33.233700
 20
26.391903
  0
SEQEND
  0
POLYLINE
  8
LAYER_1
 62
7
 66
1
  0
VERTEX
  8
LAYER_1
 62
7
 10
-33.233700
 20
26.486391
  0
VERTEX
  8
LAYER_1
 62
7
 10
-32.643149
 20
26.486391
  0
SEQEND
  0
POLYLINE
  8
LAYER_1
 62
7
 66
1
  0
VERTEX
  8
LAYER_1
 62
7
 10
-32.643149
 20
26.486391
  0
VERTEX
  8
LAYER_1
 62
7
 10
-32.643149
 20
26.391903
  0
SEQEND
  0
POLYLINE
  8
LAYER_1
 62
7
 66
1
  0
VERTEX
  8
LAYER_1
 62
7
 10
-31.556535
 20
26.391903
  0
VERTEX
  8
LAYER_1
 62
7
 10
-32.643149
 20
26.391903
  0
SEQEND
  0
POLYLINE
  8
LAYER_1
 62
7
 66
1
  0
VERTEX
  8
LAYER_1
 62
7
 10
-31.556535
 20
26.486391
  0
VERTEX
  8
LAYER_1
 62
7
 10
-31.556535
 20
26.391903
  0
SEQEND
  0
POLYLINE
  8
LAYER_1
 62
7
 66
1
  0
VERTEX
  8
LAYER_1
 62
7
 10
-31.556535
 20
26.486391
  0
VERTEX
  8
LAYER_1
 62
7
 10
-30.965984
 20
26.486391
  0
SEQEND
  0
POLYLINE
  8
LAYER_1
 62
7
 66
1
  0
VERTEX
  8
LAYER_1
 62
7
 10
-30.965984
 20
26.486391
  0
VERTEX
  8
LAYER_1
 62
7
 10
-30.965984
 20
26.391903
  0
SEQEND
  0
POLYLINE
  8
LAYER_1
 62
7
 66
1
  0
VERTEX
  8
LAYER_1
 62
7
 10
-30.477795
 20
25.998202
  0
VERTEX
  8
LAYER_1
 62
7
 10
-30.572283
 20
25.998202
  0
SEQEND
  0
POLYLINE
  8
LAYER_1
 62
7
 66
1
  0
VERTEX
  8
LAYER_1
 62
7
 10
-30.477795
 20
25.998202
  0
VERTEX
  8
LAYER_1
 62
7
 10
-30.477795
 20
25.407651
  0
SEQEND
  0
POLYLINE
  8
LAYER_1
 62
7
 66
1
  0
VERTEX
  8
LAYER_1
 62
7
 10
-30.477795
 20
24.423399
  0
VERTEX
  8
LAYER_1
 62
7
 10
-30.572283
 20
24.423399
  0
SEQEND
  0
POLYLINE
  8
LAYER_1
 62
7
 66
1
  0
VERTEX
  8
LAYER_1
 62
7
 10
-30.477795
 20
24.423399
  0
VERTEX
  8
LAYER_1
 62
7
 10
-30.477795
 20
23.832847
  0
SEQEND
  0
POLYLINE
  8
LAYER_1
 62
7
 66
1
  0
VERTEX
  8
LAYER_1
 62
7
 10
-30.477795
 20
23.832847
  0
VERTEX
  8
LAYER_1
 62
7
 10
-30.572283
 20
23.832847
  0
SEQEND
  0
POLYLINE
  8
LAYER_1
 62
7
 66
1
  0
VERTEX
  8
LAYER_1
 62
7
 10
-30.572283
 20
23.439147
  0
VERTEX
  8
LAYER_1
 62
7
 10
-30.572283
 20
23.832847
  0
SEQEND
  0
POLYLINE
  8
LAYER_1
 62
7
 66
1
  0
VERTEX
  8
LAYER_1
 62
7
 10
-30.572283
 20
26.391903
  0
VERTEX
  8
LAYER_1
 62
7
 10
-30.965984
 20
26.391903
  0
SEQEND
  0
POLYLINE
  8
LAYER_1
 62
7
 66
1
  0
VERTEX
  8
LAYER_1
 62
7
 10
-30.477795
 20
25.407651
  0
VERTEX
  8
LAYER_1
 62
7
 10
-30.572283
 20
25.407651
  0
SEQEND
  0
POLYLINE
  8
LAYER_1
 62
7
 66
1
  0
VERTEX
  8
LAYER_1
 62
7
 10
-30.572283
 20
25.998202
  0
VERTEX
  8
LAYER_1
 62
7
 10
-30.572283
 20
26.391903
  0
SEQEND
  0
POLYLINE
  8
LAYER_1
 62
7
 66
1
  0
VERTEX
  8
LAYER_1
 62
7
 10
-30.572283
 20
24.423399
  0
VERTEX
  8
LAYER_1
 62
7
 10
-30.572283
 20
25.407651
  0
SEQEND
  0
POLYLINE
  8
LAYER_1
 62
7
 70
1
 66
1
  0
VERTEX
  8
LAYER_1
 62
7
 10
-45.403726
 20
25.871631
  0
VERTEX
  8
LAYER_1
 62
7
 10
-51.872084
 20
25.871631
 42
0.209229
  0
VERTEX
  8
LAYER_1
 62
7
 10
-52.573747
 20
25.560285
 42
0.189969
  0
VERTEX
  8
LAYER_1
 62
7
 10
-52.864389
 20
24.808639
  0
VERTEX
  8
LAYER_1
 62
7
 10
-52.864389
 20
24.808639
 42
0.189969
  0
VERTEX
  8
LAYER_1
 62
7
 10
-52.573747
 20
24.056994
 42
0.209229
  0
VERTEX
  8
LAYER_1
 62
7
 10
-51.872084
 20
23.745647
  0
VERTEX
  8
LAYER_1
 62
7
 10
-45.403726
 20
23.745647
 42
0.209229
  0
VERTEX
  8
LAYER_1
 62
7
 10
-44.702063
 20
24.056994
 42
0.189969
  0
VERTEX
  8
LAYER_1
 62
7
 10
-44.411421
 20
24.808639
  0
VERTEX
  8
LAYER_1
 62
7
 10
-44.411421
 20
24.808639
 42
0.189969
  0
VERTEX
  8
LAYER_1
 62
7
 10
-44.702063
 20
25.560285
 42
0.209229
  0
VERTEX
  8
LAYER_1
 62
7
 10
-45.403726
 20
25.871631
  0
SEQEND
  0
POLYLINE
  8
LAYER_1
 62
7
 70
1
 66
1
  0
VERTEX
  8
LAYER_1
 62
7
 10
-49.782852
 20
25.085503
 42
0.135086
  0
VERTEX
  8
LAYER_1
 62
7
 10
-49.759213
 20
25.045236
 42
0.204782
  0
VERTEX
  8
LAYER_1
 62
7
 10
-49.690019
 20
25.018431
 42
0.206752
  0
VERTEX
  8
LAYER_1
 62
7
 10
-49.620825
 20
25.045593
 42
0.207013
  0
VERTEX
  8
LAYER_1
 62
7
 10
-49.593654
 20
25.114213
 42
0.212628
  0
VERTEX
  8
LAYER_1
 62
7
 10
-49.622274
 20
25.180331
 42
0.201263
  0
VERTEX
  8
LAYER_1
 62
7
 10
-49.690743
 20
25.207851
 42
0.205130
  0
VERTEX
  8
LAYER_1
 62
7
 10
-49.758488
 20
25.180331
 42
0.131085
  0
VERTEX
  8
LAYER_1
 62
7
 10
-49.782768
 20
25.140284
 42
0.132253
  0
VERTEX
  8
LAYER_1
 62
7
 10
-49.807758
 20
25.180331
 42
0.201263
  0
VERTEX
  8
LAYER_1
 62
7
 10
-49.876227
 20
25.207851
 42
0.205130
  0
VERTEX
  8
LAYER_1
 62
7
 10
-49.943972
 20
25.180331
 42
0.209149
  0
VERTEX
  8
LAYER_1
 62
7
 10
-49.971867
 20
25.113498
 42
0.208850
  0
VERTEX
  8
LAYER_1
 62
7
 10
-49.944697
 20
25.045236
 42
0.204782
  0
VERTEX
  8
LAYER_1
 62
7
 10
-49.875503
 20
25.018431
 42
0.206752
  0
VERTEX
  8
LAYER_1
 62
7
 10
-49.806308
 20
25.045593
 42
0.131699
  0
VERTEX
  8
LAYER_1
 62
7
 10
-49.782852
 20
25.085503
  0
SEQEND
  0
POLYLINE
  8
LAYER_1
 62
7
 70
1
 66
1
  0
VERTEX
  8
LAYER_1
 62
7
 10
-48.037494
 20
24.512422
  0
VERTEX
  8
LAYER_1
 62
7
 10
-48.135039
 20
24.388284
 42
-0.109947
  0
VERTEX
  8
LAYER_1
 62
7
 10
-48.127899
 20
24.355103
 42
-0.191503
  0
VERTEX
  8
LAYER_1
 62
7
 10
-48.154345
 20
24.281480
 42
-0.221486
  0
VERTEX
  8
LAYER_1
 62
7
 10
-48.224988
 20
24.252173
 42
-0.041163
  0
VERTEX
  8
LAYER_1
 62
7
 10
-48.240977
 20
24.253463
  0
VERTEX
  8
LAYER_1
 62
7
 10
-48.335625
 20
24.133011
 42
0.118166
  0
VERTEX
  8
LAYER_1
 62
7
 10
-48.224263
 20
24.107071
 42
0.207283
  0
VERTEX
  8
LAYER_1
 62
7
 10
-48.048923
 20
24.178907
 42
0.206865
  0
VERTEX
  8
LAYER_1
 62
7
 10
-47.977193
 20
24.352959
 42
0.200836
  0
VERTEX
  8
LAYER_1
 62
7
 10
-48.037494
 20
24.512422
  0
SEQEND
  0
POLYLINE
  8
LAYER_1
 62
7
 70
1
 66
1
  0
VERTEX
  8
LAYER_1
 62
7
 10
-48.404809
 20
24.182498
  0
VERTEX
  8
LAYER_1
 62
7
 10
-48.309922
 20
24.303254
 42
-0.126478
  0
VERTEX
  8
LAYER_1
 62
7
 10
-48.319904
 20
24.343667
 42
-0.199269
  0
VERTEX
  8
LAYER_1
 62
7
 10
-48.293095
 20
24.415503
 42
-0.213954
  0
VERTEX
  8
LAYER_1
 62
7
 10
-48.222090
 20
24.443738
 42
-0.056549
  0
VERTEX
  8
LAYER_1
 62
7
 10
-48.201345
 20
24.441432
  0
VERTEX
  8
LAYER_1
 62
7
 10
-48.106242
 20
24.562463
 42
0.115084
  0
VERTEX
  8
LAYER_1
 62
7
 10
-48.237305
 20
24.590270
  0
VERTEX
  8
LAYER_1
 62
7
 10
-48.272808
 20
24.589555
  0
VERTEX
  8
LAYER_1
 62
7
 10
-48.272808
 20
25.489479
 42
0.062357
  0
VERTEX
  8
LAYER_1
 62
7
 10
-48.273805
 20
25.498542
 42
0.101631
  0
VERTEX
  8
LAYER_1
 62
7
 10
-48.276796
 20
25.505020
 42
0.244152
  0
VERTEX
  8
LAYER_1
 62
7
 10
-48.288748
 20
25.510208
 42
0.202079
  0
VERTEX
  8
LAYER_1
 62
7
 10
-48.305413
 20
25.502345
  0
VERTEX
  8
LAYER_1
 62
7
 10
-48.458292
 20
25.352239
 42
0.208402
  0
VERTEX
  8
LAYER_1
 62
7
 10
-48.464088
 20
25.339373
  0
VERTEX
  8
LAYER_1
 62
7
 10
-48.464088
 20
24.586696
  0
VERTEX
  8
LAYER_1
 62
7
 10
-48.497923
 20
24.586696
  0
VERTEX
  8
LAYER_1
 62
7
 10
-48.577909
 20
24.586696
  0
VERTEX
  8
LAYER_1
 62
7
 10
-48.577909
 20
24.873328
 42
0.063033
  0
VERTEX
  8
LAYER_1
 62
7
 10
-48.578953
 20
24.882710
 42
0.102393
  0
VERTEX
  8
LAYER_1
 62
7
 10
-48.582081
 20
24.889411
 42
0.242312
  0
VERTEX
  8
LAYER_1
 62
7
 10
-48.594574
 20
24.894772
 42
0.124925
  0
VERTEX
  8
LAYER_1
 62
7
 10
-48.602187
 20
24.892627
 42
0.070433
  0
VERTEX
  8
LAYER_1
 62
7
 10
-48.610514
 20
24.886194
  0
VERTEX
  8
LAYER_1
 62
7
 10
-48.764842
 20
24.733944
 42
0.208953
  0
VERTEX
  8
LAYER_1
 62
7
 10
-48.770639
 20
24.720362
  0
VERTEX
  8
LAYER_1
 62
7
 10
-48.770639
 20
24.586696
  0
VERTEX
  8
LAYER_1
 62
7
 10
-48.854271
 20
24.586696
  0
VERTEX
  8
LAYER_1
 62
7
 10
-48.854271
 20
24.873328
 42
0.060312
  0
VERTEX
  8
LAYER_1
 62
7
 10
-48.855269
 20
24.882710
 42
0.099499
  0
VERTEX
  8
LAYER_1
 62
7
 10
-48.858259
 20
24.889411
 42
0.249549
  0
VERTEX
  8
LAYER_1
 62
7
 10
-48.870211
 20
24.894772
 42
0.124925
  0
VERTEX
  8
LAYER_1
 62
7
 10
-48.877825
 20
24.892627
 42
0.070433
  0
VERTEX
  8
LAYER_1
 62
7
 10
-48.886152
 20
24.886194
  0
VERTEX
  8
LAYER_1
 62
7
 10
-49.040480
 20
24.733944
 42
0.208953
  0
VERTEX
  8
LAYER_1
 62
7
 10
-49.046276
 20
24.720362
  0
VERTEX
  8
LAYER_1
 62
7
 10
-49.046276
 20
24.586696
  0
VERTEX
  8
LAYER_1
 62
7
 10
-49.159374
 20
24.586696
  0
VERTEX
  8
LAYER_1
 62
7
 10
-49.159374
 20
24.873328
 42
0.060312
  0
VERTEX
  8
LAYER_1
 62
7
 10
-49.160371
 20
24.882710
 42
0.099499
  0
VERTEX
  8
LAYER_1
 62
7
 10
-49.163362
 20
24.889411
 42
0.249549
  0
VERTEX
  8
LAYER_1
 62
7
 10
-49.175314
 20
24.894772
 42
0.124925
  0
VERTEX
  8
LAYER_1
 62
7
 10
-49.182927
 20
24.892627
 42
0.070433
  0
VERTEX
  8
LAYER_1
 62
7
 10
-49.191254
 20
24.886194
  0
VERTEX
  8
LAYER_1
 62
7
 10
-49.345582
 20
24.733944
 42
0.208953
  0
VERTEX
  8
LAYER_1
 62
7
 10
-49.351379
 20
24.720362
  0
VERTEX
  8
LAYER_1
 62
7
 10
-49.351379
 20
24.586696
  0
VERTEX
  8
LAYER_1
 62
7
 10
-49.363630
 20
24.586696
  0
VERTEX
  8
LAYER_1
 62
7
 10
-49.423109
 20
24.586696
  0
VERTEX
  8
LAYER_1
 62
7
 10
-49.746533
 20
24.586696
  0
VERTEX
  8
LAYER_1
 62
7
 10
-49.746533
 20
24.867610
 42
0.060312
  0
VERTEX
  8
LAYER_1
 62
7
 10
-49.747531
 20
24.876991
 42
0.099499
  0
VERTEX
  8
LAYER_1
 62
7
 10
-49.750521
 20
24.883693
 42
0.249549
  0
VERTEX
  8
LAYER_1
 62
7
 10
-49.762473
 20
24.889053
 42
0.124925
  0
VERTEX
  8
LAYER_1
 62
7
 10
-49.770087
 20
24.886909
 42
0.070433
  0
VERTEX
  8
LAYER_1
 62
7
 10
-49.778413
 20
24.880476
  0
VERTEX
  8
LAYER_1
 62
7
 10
-49.947957
 20
24.717503
  0
VERTEX
  8
LAYER_1
 62
7
 10
-49.947957
 20
24.586696
  0
VERTEX
  8
LAYER_1
 62
7
 10
-50.189368
 20
24.586696
  0
VERTEX
  8
LAYER_1
 62
7
 10
-50.593228
 20
24.586696
 42
-0.082361
  0
VERTEX
  8
LAYER_1
 62
7
 10
-50.615060
 20
24.602243
 42
-0.037776
  0
VERTEX
  8
LAYER_1
 62
7
 10
-50.641410
 20
24.631728
 42
-0.047995
  0
VERTEX
  8
LAYER_1
 62
7
 10
-50.662877
 20
24.664067
 42
-0.114721
  0
VERTEX
  8
LAYER_1
 62
7
 10
-50.670029
 20
24.688197
 42
-0.213324
  0
VERTEX
  8
LAYER_1
 62
7
 10
-50.618587
 20
24.808997
 42
-0.201017
  0
VERTEX
  8
LAYER_1
 62
7
 10
-50.494689
 20
24.858317
 42
-0.157416
  0
VERTEX
  8
LAYER_1
 62
7
 10
-50.327319
 20
24.813285
 42
-0.140003
  0
VERTEX
  8
LAYER_1
 62
7
 10
-50.228056
 20
24.673186
 42
0.111388
  0
VERTEX
  8
LAYER_1
 62
7
 10
-50.220448
 20
24.661928
 42
0.185838
  0
VERTEX
  8
LAYER_1
 62
7
 10
-50.210667
 20
24.658176
  0
VERTEX
  8
LAYER_1
 62
7
 10
-50.196176
 20
24.664609
 42
0.119167
  0
VERTEX
  8
LAYER_1
 62
7
 10
-50.191829
 20
24.681764
 42
0.056563
  0
VERTEX
  8
LAYER_1
 62
7
 10
-50.195817
 20
24.704816
  0
VERTEX
  8
LAYER_1
 62
7
 10
-50.207769
 20
24.743951
 42
0.107369
  0
VERTEX
  8
LAYER_1
 62
7
 10
-50.285482
 20
24.878678
 42
0.120794
  0
VERTEX
  8
LAYER_1
 62
7
 10
-50.408468
 20
24.958388
 42
0.078037
  0
VERTEX
  8
LAYER_1
 62
7
 10
-50.537437
 20
24.988410
 42
0.150146
  0
VERTEX
  8
LAYER_1
 62
7
 10
-50.722568
 20
24.938017
 42
0.150548
  0
VERTEX
  8
LAYER_1
 62
7
 10
-50.840298
 20
24.786838
 42
0.091576
  0
VERTEX
  8
LAYER_1
 62
7
 10
-50.858411
 20
24.651028
  0
VERTEX
  8
LAYER_1
 62
7
 10
-50.833052
 20
24.586696
  0
VERTEX
  8
LAYER_1
 62
7
 10
-50.884414
 20
24.586696
  0
VERTEX
  8
LAYER_1
 62
7
 10
-51.073175
 20
24.586696
  0
VERTEX
  8
LAYER_1
 62
7
 10
-51.073175
 20
25.474469
 42
0.060312
  0
VERTEX
  8
LAYER_1
 62
7
 10
-51.074172
 20
25.483850
 42
0.099499
  0
VERTEX
  8
LAYER_1
 62
7
 10
-51.077163
 20
25.490551
 42
0.249549
  0
VERTEX
  8
LAYER_1
 62
7
 10
-51.089115
 20
25.495912
 42
0.124925
  0
VERTEX
  8
LAYER_1
 62
7
 10
-51.096728
 20
25.493768
 42
0.070433
  0
VERTEX
  8
LAYER_1
 62
7
 10
-51.105055
 20
25.487335
  0
VERTEX
  8
LAYER_1
 62
7
 10
-51.226781
 20
25.365457
  0
VERTEX
  8
LAYER_1
 62
7
 10
-51.266719
 20
25.321563
 42
0.034819
  0
VERTEX
  8
LAYER_1
 62
7
 10
-51.267195
 20
25.320669
 42
0.095219
  0
VERTEX
  8
LAYER_1
 62
7
 10
-51.267353
 20
25.320073
  0
VERTEX
  8
LAYER_1
 62
7
 10
-51.267353
 20
24.415861
 42
0.204063
  0
VERTEX
  8
LAYER_1
 62
7
 10
-51.262647
 20
24.401920
 42
0.199813
  0
VERTEX
  8
LAYER_1
 62
7
 10
-51.248515
 20
24.397276
  0
VERTEX
  8
LAYER_1
 62
7
 10
-51.082675
 20
24.397276
  0
VERTEX
  8
LAYER_1
 62
7
 10
-50.884414
 20
24.397276
  0
VERTEX
  8
LAYER_1
 62
7
 10
-50.189368
 20
24.397276
  0
VERTEX
  8
LAYER_1
 62
7
 10
-49.937376
 20
24.397276
  0
VERTEX
  8
LAYER_1
 62
7
 10
-49.423109
 20
24.397276
  0
VERTEX
  8
LAYER_1
 62
7
 10
-49.363630
 20
24.397276
  0
VERTEX
  8
LAYER_1
 62
7
 10
-48.595517
 20
24.397276
  0
VERTEX
  8
LAYER_1
 62
7
 10
-48.497923
 20
24.397276
  0
VERTEX
  8
LAYER_1
 62
7
 10
-48.469885
 20
24.397276
 42
0.043161
  0
VERTEX
  8
LAYER_1
 62
7
 10
-48.474956
 20
24.339378
 42
0.212316
  0
VERTEX
  8
LAYER_1
 62
7
 10
-48.404809
 20
24.182498
  0
SEQEND
  0
POLYLINE
  8
LAYER_1
 62
7
 70
1
 66
1
  0
VERTEX
  8
LAYER_1
 62
7
 10
-46.543476
 20
24.867352
  0
VERTEX
  8
LAYER_1
 62
7
 10
-46.744304
 20
24.611772
 42
-0.142509
  0
VERTEX
  8
LAYER_1
 62
7
 10
-46.726510
 20
24.545587
 42
-0.214000
  0
VERTEX
  8
LAYER_1
 62
7
 10
-46.764930
 20
24.458709
 42
-0.200089
  0
VERTEX
  8
LAYER_1
 62
7
 10
-46.854288
 20
24.422084
 42
-0.068183
  0
VERTEX
  8
LAYER_1
 62
7
 10
-46.889713
 20
24.426721
  0
VERTEX
  8
LAYER_1
 62
7
 10
-47.022226
 20
24.258080
 42
0.116524
  0
VERTEX
  8
LAYER_1
 62
7
 10
-46.932855
 20
24.238107
  0
VERTEX
  8
LAYER_1
 62
7
 10
-45.756040
 20
24.238107
 42
0.199689
  0
VERTEX
  8
LAYER_1
 62
7
 10
-45.739211
 20
24.243640
 42
0.204210
  0
VERTEX
  8
LAYER_1
 62
7
 10
-45.733593
 20
24.260252
  0
VERTEX
  8
LAYER_1
 62
7
 10
-45.733593
 20
25.224428
 42
0.060312
  0
VERTEX
  8
LAYER_1
 62
7
 10
-45.734781
 20
25.235607
 42
0.099499
  0
VERTEX
  8
LAYER_1
 62
7
 10
-45.738345
 20
25.243592
 42
0.249549
  0
VERTEX
  8
LAYER_1
 62
7
 10
-45.752587
 20
25.249980
 42
0.039080
  0
VERTEX
  8
LAYER_1
 62
7
 10
-45.764249
 20
25.245505
 42
0.078691
  0
VERTEX
  8
LAYER_1
 62
7
 10
-45.771581
 20
25.240611
  0
VERTEX
  8
LAYER_1
 62
7
 10
-45.908216
 20
25.100279
  0
VERTEX
  8
LAYER_1
 62
7
 10
-45.950906
 20
25.052330
  0
VERTEX
  8
LAYER_1
 62
7
 10
-45.953040
 20
25.049115
 42
0.035277
  0
VERTEX
  8
LAYER_1
 62
7
 10
-45.953574
 20
25.048019
 42
0.087959
  0
VERTEX
  8
LAYER_1
 62
7
 10
-45.953752
 20
25.047265
  0
VERTEX
  8
LAYER_1
 62
7
 10
-45.953752
 20
24.463820
  0
VERTEX
  8
LAYER_1
 62
7
 10
-46.138441
 20
24.463820
  0
VERTEX
  8
LAYER_1
 62
7
 10
-46.138441
 20
25.224428
 42
0.060312
  0
VERTEX
  8
LAYER_1
 62
7
 10
-46.139629
 20
25.235607
 42
0.099499
  0
VERTEX
  8
LAYER_1
 62
7
 10
-46.143193
 20
25.243592
 42
0.249549
  0
VERTEX
  8
LAYER_1
 62
7
 10
-46.157435
 20
25.249980
 42
0.053092
  0
VERTEX
  8
LAYER_1
 62
7
 10
-46.169097
 20
25.245924
 42
0.098732
  0
VERTEX
  8
LAYER_1
 62
7
 10
-46.176429
 20
25.240611
  0
VERTEX
  8
LAYER_1
 62
7
 10
-46.319536
 20
25.095382
  0
VERTEX
  8
LAYER_1
 62
7
 10
-46.366488
 20
25.043078
 42
0.034552
  0
VERTEX
  8
LAYER_1
 62
7
 10
-46.367047
 20
25.042012
 42
0.094092
  0
VERTEX
  8
LAYER_1
 62
7
 10
-46.367233
 20
25.041303
  0
VERTEX
  8
LAYER_1
 62
7
 10
-46.367233
 20
24.463820
  0
VERTEX
  8
LAYER_1
 62
7
 10
-46.543476
 20
24.463820
  0
VERTEX
  8
LAYER_1
 62
7
 10
-46.543476
 20
24.867352
  0
SEQEND
  0
POLYLINE
  8
LAYER_1
 62
7
 70
1
 66
1
  0
VERTEX
  8
LAYER_1
 62
7
 10
-47.088818
 20
24.310864
  0
VERTEX
  8
LAYER_1
 62
7
 10
-46.958350
 20
24.476902
 42
-0.155237
  0
VERTEX
  8
LAYER_1
 62
7
 10
-46.979477
 20
24.547291
 42
-0.212371
  0
VERTEX
  8
LAYER_1
 62
7
 10
-46.941920
 20
24.633743
 42
-0.201611
  0
VERTEX
  8
LAYER_1
 62
7
 10
-46.853425
 20
24.669942
 42
-0.076206
  0
VERTEX
  8
LAYER_1
 62
7
 10
-46.811441
 20
24.663863
  0
VERTEX
  8
LAYER_1
 62
7
 10
-46.543476
 20
25.004883
  0
VERTEX
  8
LAYER_1
 62
7
 10
-46.543476
 20
25.149474
 42
0.060312
  0
VERTEX
  8
LAYER_1
 62
7
 10
-46.544664
 20
25.160653
 42
0.099499
  0
VERTEX
  8
LAYER_1
 62
7
 10
-46.548228
 20
25.168639
 42
0.249549
  0
VERTEX
  8
LAYER_1
 62
7
 10
-46.562470
 20
25.175027
 42
0.124925
  0
VERTEX
  8
LAYER_1
 62
7
 10
-46.571542
 20
25.172471
 42
0.070433
  0
VERTEX
  8
LAYER_1
 62
7
 10
-46.581464
 20
25.164806
  0
VERTEX
  8
LAYER_1
 62
7
 10
-46.770542
 20
24.980829
 42
0.083087
  0
VERTEX
  8
LAYER_1
 62
7
 10
-46.771379
 20
24.979566
 42
0.038406
  0
VERTEX
  8
LAYER_1
 62
7
 10
-46.772163
 20
24.977485
 42
0.033413
  0
VERTEX
  8
LAYER_1
 62
7
 10
-46.773567
 20
24.970868
  0
VERTEX
  8
LAYER_1
 62
7
 10
-46.775725
 20
24.947814
  0
VERTEX
  8
LAYER_1
 62
7
 10
-46.777449
 20
24.862436
  0
VERTEX
  8
LAYER_1
 62
7
 10
-46.819754
 20
24.864991
 42
0.190622
  0
VERTEX
  8
LAYER_1
 62
7
 10
-47.063223
 20
24.775558
 42
0.223211
  0
VERTEX
  8
LAYER_1
 62
7
 10
-47.167691
 20
24.539625
 42
0.150965
  0
VERTEX
  8
LAYER_1
 62
7
 10
-47.109845
 20
24.338613
  0
VERTEX
  8
LAYER_1
 62
7
 10
-47.088818
 20
24.310864
  0
SEQEND
  0
POLYLINE
  8
LAYER_1
 62
7
 70
1
 66
1
  0
VERTEX
  8
LAYER_1
 62
7
 10
-45.165630
 20
24.595274
 42
0.054977
  0
VERTEX
  8
LAYER_1
 62
7
 10
-45.166809
 20
24.607470
 42
0.093207
  0
VERTEX
  8
LAYER_1
 62
7
 10
-45.170345
 20
24.616181
 42
0.264700
  0
VERTEX
  8
LAYER_1
 62
7
 10
-45.184468
 20
24.623151
  0
VERTEX
  8
LAYER_1
 62
7
 10
-45.198234
 20
24.617432
 42
0.208815
  0
VERTEX
  8
LAYER_1
 62
7
 10
-45.203306
 20
24.604566
 42
-0.112753
  0
VERTEX
  8
LAYER_1
 62
7
 10
-45.210914
 20
24.578110
 42
-0.048672
  0
VERTEX
  8
LAYER_1
 62
7
 10
-45.233737
 20
24.543094
 42
-0.069561
  0
VERTEX
  8
LAYER_1
 62
7
 10
-45.315251
 20
24.458922
 42
-0.159326
  0
VERTEX
  8
LAYER_1
 62
7
 10
-45.387341
 20
24.430872
 42
-0.221926
  0
VERTEX
  8
LAYER_1
 62
7
 10
-45.410348
 20
24.441948
 42
-0.105530
  0
VERTEX
  8
LAYER_1
 62
7
 10
-45.427191
 20
24.475189
 42
-0.078775
  0
VERTEX
  8
LAYER_1
 62
7
 10
-45.437335
 20
24.539520
  0
VERTEX
  8
LAYER_1
 62
7
 10
-45.437335
 20
25.480187
 42
0.062357
  0
VERTEX
  8
LAYER_1
 62
7
 10
-45.438332
 20
25.489250
 42
0.101631
  0
VERTEX
  8
LAYER_1
 62
7
 10
-45.441322
 20
25.495728
 42
0.244152
  0
VERTEX
  8
LAYER_1
 62
7
 10
-45.453275
 20
25.500916
 42
0.077785
  0
VERTEX
  8
LAYER_1
 62
7
 10
-45.454909
 20
25.500602
 42
0.037881
  0
VERTEX
  8
LAYER_1
 62
7
 10
-45.457095
 20
25.499659
 42
0.034201
  0
VERTEX
  8
LAYER_1
 62
7
 10
-45.463124
 20
25.495890
  0
VERTEX
  8
LAYER_1
 62
7
 10
-45.481804
 20
25.480812
  0
VERTEX
  8
LAYER_1
 62
7
 10
-45.545654
 20
25.420502
  0
VERTEX
  8
LAYER_1
 62
7
 10
-45.606788
 20
25.357511
  0
VERTEX
  8
LAYER_1
 62
7
 10
-45.622071
 20
25.339082
 42
0.034605
  0
VERTEX
  8
LAYER_1
 62
7
 10
-45.625892
 20
25.333135
 42
0.038589
  0
VERTEX
  8
LAYER_1
 62
7
 10
-45.626847
 20
25.330978
 42
0.079776
  0
VERTEX
  8
LAYER_1
 62
7
 10
-45.627166
 20
25.329366
  0
VERTEX
  8
LAYER_1
 62
7
 10
-45.627166
 20
24.505925
 42
0.135479
  0
VERTEX
  8
LAYER_1
 62
7
 10
-45.578621
 20
24.346526
 42
0.102236
  0
VERTEX
  8
LAYER_1
 62
7
 10
-45.518133
 20
24.275762
 42
0.161717
  0
VERTEX
  8
LAYER_1
 62
7
 10
-45.448203
 20
24.252173
 42
0.196829
  0
VERTEX
  8
LAYER_1
 62
7
 10
-45.320872
 20
24.309535
 42
0.090071
  0
VERTEX
  8
LAYER_1
 62
7
 10
-45.205480
 20
24.481622
 42
0.025926
  0
VERTEX
  8
LAYER_1
 62
7
 10
-45.175595
 20
24.551850
 42
0.077618
  0
VERTEX
  8
LAYER_1
 62
7
 10
-45.165630
 20
24.595274
  0
SEQEND
  0
POLYLINE
  8
LAYER_1
 62
7
 70
1
 66
1
  0
VERTEX
  8
LAYER_1
 62
7
 10
-46.195215
 20
25.409939
 42
0.204083
  0
VERTEX
  8
LAYER_1
 62
7
 10
-46.199930
 20
25.423872
 42
0.199837
  0
VERTEX
  8
LAYER_1
 62
7
 10
-46.214053
 20
25.428524
  0
VERTEX
  8
LAYER_1
 62
7
 10
-46.233616
 20
25.428524
 42
0.171233
  0
VERTEX
  8
LAYER_1
 62
7
 10
-46.239322
 20
25.426132
 42
0.072538
  0
VERTEX
  8
LAYER_1
 62
7
 10
-46.245571
 20
25.418960
 42
0.051819
  0
VERTEX
  8
LAYER_1
 62
7
 10
-46.259700
 20
25.390282
 42
-0.123801
  0
VERTEX
  8
LAYER_1
 62
7
 10
-46.278719
 20
25.361596
 42
-0.181712
  0
VERTEX
  8
LAYER_1
 62
7
 10
-46.305346
 20
25.352041
 42
-0.168763
  0
VERTEX
  8
LAYER_1
 62
7
 10
-46.335607
 20
25.361596
 42
-0.140890
  0
VERTEX
  8
LAYER_1
 62
7
 10
-46.355340
 20
25.390282
 42
0.052512
  0
VERTEX
  8
LAYER_1
 62
7
 10
-46.368928
 20
25.418960
 42
0.073900
  0
VERTEX
  8
LAYER_1
 62
7
 10
-46.375039
 20
25.426132
 42
0.173543
  0
VERTEX
  8
LAYER_1
 62
7
 10
-46.380699
 20
25.428524
  0
VERTEX
  8
LAYER_1
 62
7
 10
-46.397363
 20
25.428524
 42
0.166167
  0
VERTEX
  8
LAYER_1
 62
7
 10
-46.403393
 20
25.426132
 42
0.075011
  0
VERTEX
  8
LAYER_1
 62
7
 10
-46.409868
 20
25.418960
 42
0.054911
  0
VERTEX
  8
LAYER_1
 62
7
 10
-46.424172
 20
25.390282
 42
-0.110119
  0
VERTEX
  8
LAYER_1
 62
7
 10
-46.442104
 20
25.361596
 42
-0.195674
  0
VERTEX
  8
LAYER_1
 62
7
 10
-46.465471
 20
25.352041
 42
-0.186230
  0
VERTEX
  8
LAYER_1
 62
7
 10
-46.487125
 20
25.361154
 42
-0.090106
  0
VERTEX
  8
LAYER_1
 62
7
 10
-46.507132
 20
25.388495
  0
VERTEX
  8
LAYER_1
 62
7
 10
-46.522809
 20
25.415836
 42
0.039891
  0
VERTEX
  8
LAYER_1
 62
7
 10
-46.527991
 20
25.422671
 42
0.054891
  0
VERTEX
  8
LAYER_1
 62
7
 10
-46.529919
 20
25.424380
 42
0.144627
  0
VERTEX
  8
LAYER_1
 62
7
 10
-46.531405
 20
25.424950
 42
0.079498
  0
VERTEX
  8
LAYER_1
 62
7
 10
-46.543360
 20
25.422269
  0
VERTEX
  8
LAYER_1
 62
7
 10
-46.561835
 20
25.414228
  0
VERTEX
  8
LAYER_1
 62
7
 10
-46.568900
 20
25.405999
 42
0.057400
  0
VERTEX
  8
LAYER_1
 62
7
 10
-46.572704
 20
25.399932
 42
0.133038
  0
VERTEX
  8
LAYER_1
 62
7
 10
-46.563019
 20
25.369461
 42
0.064486
  0
VERTEX
  8
LAYER_1
 62
7
 10
-46.533940
 20
25.333814
 42
0.066499
  0
VERTEX
  8
LAYER_1
 62
7
 10
-46.497447
 20
25.305127
 42
0.128190
  0
VERTEX
  8
LAYER_1
 62
7
 10
-46.465471
 20
25.295572
 42
0.233870
  0
VERTEX
  8
LAYER_1
 62
7
 10
-46.387944
 20
25.332027
 42
0.223589
  0
VERTEX
  8
LAYER_1
 62
7
 10
-46.305346
 20
25.295572
 42
0.217744
  0
VERTEX
  8
LAYER_1
 62
7
 10
-46.227457
 20
25.330240
 42
0.196458
  0
VERTEX
  8
LAYER_1
 62
7
 10
-46.195215
 20
25.409939
  0
SEQEND
  0
POLYLINE
  8
LAYER_1
 62
7
 70
1
 66
1
  0
VERTEX
  8
LAYER_1
 62
7
 10
-47.418312
 20
24.595274
 42
0.054977
  0
VERTEX
  8
LAYER_1
 62
7
 10
-47.419491
 20
24.607470
 42
0.093207
  0
VERTEX
  8
LAYER_1
 62
7
 10
-47.423027
 20
24.616181
 42
0.264700
  0
VERTEX
  8
LAYER_1
 62
7
 10
-47.437150
 20
24.623151
  0
VERTEX
  8
LAYER_1
 62
7
 10
-47.450917
 20
24.617432
 42
0.208815
  0
VERTEX
  8
LAYER_1
 62
7
 10
-47.455988
 20
24.604566
 42
-0.112753
  0
VERTEX
  8
LAYER_1
 62
7
 10
-47.463596
 20
24.578110
 42
-0.048672
  0
VERTEX
  8
LAYER_1
 62
7
 10
-47.486419
 20
24.543094
 42
-0.069561
  0
VERTEX
  8
LAYER_1
 62
7
 10
-47.567934
 20
24.458922
 42
-0.159326
  0
VERTEX
  8
LAYER_1
 62
7
 10
-47.640023
 20
24.430872
 42
-0.221926
  0
VERTEX
  8
LAYER_1
 62
7
 10
-47.663030
 20
24.441948
 42
-0.105530
  0
VERTEX
  8
LAYER_1
 62
7
 10
-47.679873
 20
24.475189
 42
-0.078775
  0
VERTEX
  8
LAYER_1
 62
7
 10
-47.690017
 20
24.539520
  0
VERTEX
  8
LAYER_1
 62
7
 10
-47.690017
 20
25.480187
 42
0.062357
  0
VERTEX
  8
LAYER_1
 62
7
 10
-47.691014
 20
25.489250
 42
0.101631
  0
VERTEX
  8
LAYER_1
 62
7
 10
-47.694005
 20
25.495728
 42
0.244152
  0
VERTEX
  8
LAYER_1
 62
7
 10
-47.705957
 20
25.500916
 42
0.077785
  0
VERTEX
  8
LAYER_1
 62
7
 10
-47.707591
 20
25.500602
 42
0.037881
  0
VERTEX
  8
LAYER_1
 62
7
 10
-47.709778
 20
25.499659
 42
0.034201
  0
VERTEX
  8
LAYER_1
 62
7
 10
-47.715806
 20
25.495890
  0
VERTEX
  8
LAYER_1
 62
7
 10
-47.734486
 20
25.480812
  0
VERTEX
  8
LAYER_1
 62
7
 10
-47.798337
 20
25.420502
  0
VERTEX
  8
LAYER_1
 62
7
 10
-47.859470
 20
25.357511
  0
VERTEX
  8
LAYER_1
 62
7
 10
-47.874754
 20
25.339082
 42
0.034605
  0
VERTEX
  8
LAYER_1
 62
7
 10
-47.878574
 20
25.333135
 42
0.038589
  0
VERTEX
  8
LAYER_1
 62
7
 10
-47.879530
 20
25.330978
 42
0.079776
  0
VERTEX
  8
LAYER_1
 62
7
 10
-47.879848
 20
25.329366
  0
VERTEX
  8
LAYER_1
 62
7
 10
-47.879848
 20
24.505925
 42
0.135479
  0
VERTEX
  8
LAYER_1
 62
7
 10
-47.831303
 20
24.346526
 42
0.102236
  0
VERTEX
  8
LAYER_1
 62
7
 10
-47.770815
 20
24.275762
 42
0.161717
  0
VERTEX
  8
LAYER_1
 62
7
 10
-47.700885
 20
24.252173
 42
0.196829
  0
VERTEX
  8
LAYER_1
 62
7
 10
-47.573555
 20
24.309535
 42
0.090071
  0
VERTEX
  8
LAYER_1
 62
7
 10
-47.458162
 20
24.481622
 42
0.025926
  0
VERTEX
  8
LAYER_1
 62
7
 10
-47.428277
 20
24.551850
 42
0.077618
  0
VERTEX
  8
LAYER_1
 62
7
 10
-47.418312
 20
24.595274
  0
SEQEND
  0
POLYLINE
  8
LAYER_1
 62
7
 70
1
 66
1
  0
VERTEX
  8
LAYER_1
 62
7
 10
-51.702261
 20
25.121361
 42
0.210886
  0
VERTEX
  8
LAYER_1
 62
7
 10
-51.730518
 20
25.189624
 42
0.203084
  0
VERTEX
  8
LAYER_1
 62
7
 10
-51.800074
 20
25.217143
 42
0.206337
  0
VERTEX
  8
LAYER_1
 62
7
 10
-51.867820
 20
25.187122
 42
0.206669
  0
VERTEX
  8
LAYER_1
 62
7
 10
-51.897888
 20
25.119931
 42
0.209064
  0
VERTEX
  8
LAYER_1
 62
7
 10
-51.869631
 20
25.051311
 42
0.205057
  0
VERTEX
  8
LAYER_1
 62
7
 10
-51.800074
 20
25.023434
 42
0.208509
  0
VERTEX
  8
LAYER_1
 62
7
 10
-51.729793
 20
25.051311
 42
0.204945
  0
VERTEX
  8
LAYER_1
 62
7
 10
-51.702261
 20
25.121361
  0
SEQEND
  0
POLYLINE
  8
LAYER_1
 62
7
 70
1
 66
1
  0
VERTEX
  8
LAYER_1
 62
7
 10
-51.378388
 20
25.116766
 42
0.062357
  0
VERTEX
  8
LAYER_1
 62
7
 10
-51.379386
 20
25.125828
 42
0.101631
  0
VERTEX
  8
LAYER_1
 62
7
 10
-51.382376
 20
25.132307
 42
0.244152
  0
VERTEX
  8
LAYER_1
 62
7
 10
-51.394329
 20
25.137495
 42
0.127343
  0
VERTEX
  8
LAYER_1
 62
7
 10
-51.410269
 20
25.129632
  0
VERTEX
  8
LAYER_1
 62
7
 10
-51.571842
 20
24.969518
 42
0.033231
  0
VERTEX
  8
LAYER_1
 62
7
 10
-51.577639
 20
24.911620
  0
VERTEX
  8
LAYER_1
 62
7
 10
-51.577639
 20
24.502044
 42
-0.114079
  0
VERTEX
  8
LAYER_1
 62
7
 10
-51.584703
 20
24.477571
 42
-0.050122
  0
VERTEX
  8
LAYER_1
 62
7
 10
-51.605896
 20
24.445575
 42
-0.078730
  0
VERTEX
  8
LAYER_1
 62
7
 10
-51.652267
 20
24.399829
 42
-0.152844
  0
VERTEX
  8
LAYER_1
 62
7
 10
-51.787757
 20
24.356226
 42
-0.183320
  0
VERTEX
  8
LAYER_1
 62
7
 10
-51.931217
 20
24.408406
 42
-0.228787
  0
VERTEX
  8
LAYER_1
 62
7
 10
-51.994977
 20
24.542787
 42
-0.177803
  0
VERTEX
  8
LAYER_1
 62
7
 10
-51.956576
 20
24.650721
  0
VERTEX
  8
LAYER_1
 62
7
 10
-51.910296
 20
24.707719
 42
0.041508
  0
VERTEX
  8
LAYER_1
 62
7
 10
-51.910206
 20
24.707904
 42
0.081433
  0
VERTEX
  8
LAYER_1
 62
7
 10
-51.917451
 20
24.722200
  0
VERTEX
  8
LAYER_1
 62
7
 10
-51.926870
 20
24.724344
 42
0.170123
  0
VERTEX
  8
LAYER_1
 62
7
 10
-51.997884
 20
24.698612
 42
0.099302
  0
VERTEX
  8
LAYER_1
 62
7
 10
-52.060187
 20
24.621414
 42
0.128863
  0
VERTEX
  8
LAYER_1
 62
7
 10
-52.110180
 20
24.452009
 42
0.260160
  0
VERTEX
  8
LAYER_1
 62
7
 10
-52.002947
 20
24.237571
 42
0.086857
  0
VERTEX
  8
LAYER_1
 62
7
 10
-51.895896
 20
24.188789
 42
0.065868
  0
VERTEX
  8
LAYER_1
 62
7
 10
-51.761674
 20
24.172525
 42
0.085243
  0
VERTEX
  8
LAYER_1
 62
7
 10
-51.624734
 20
24.202546
 42
0.132732
  0
VERTEX
  8
LAYER_1
 62
7
 10
-51.439978
 20
24.322637
 42
0.179367
  0
VERTEX
  8
LAYER_1
 62
7
 10
-51.378388
 20
24.501329
  0
VERTEX
  8
LAYER_1
 62
7
 10
-51.378388
 20
25.116766
  0
SEQEND
  0
POLYLINE
  8
LAYER_1
 62
7
 66
1
  0
VERTEX
  8
LAYER_1
 62
7
 10
-56.348675
 20
25.749174
  0
VERTEX
  8
LAYER_1
 62
7
 10
-56.348675
 20
25.553764
  0
SEQEND
  0
POLYLINE
  8
LAYER_1
 62
7
 66
1
  0
VERTEX
  8
LAYER_1
 62
7
 10
-56.262157
 20
25.749174
  0
VERTEX
  8
LAYER_1
 62
7
 10
-56.348675
 20
25.749174
  0
SEQEND
  0
POLYLINE
  8
LAYER_1
 62
7
 66
1
  0
VERTEX
  8
LAYER_1
 62
7
 10
-56.348675
 20
25.553764
  0
VERTEX
  8
LAYER_1
 62
7
 10
-56.262157
 20
25.553764
  0
SEQEND
  0
POLYLINE
  8
LAYER_1
 62
7
 66
1
  0
VERTEX
  8
LAYER_1
 62
7
 10
-53.309401
 20
21.051388
  0
VERTEX
  8
LAYER_1
 62
7
 10
-53.309401
 20
25.553849
  0
VERTEX
  8
LAYER_1
 62
7
 10
-53.309090
 20
25.553785
  0
SEQEND
  0
POLYLINE
  8
LAYER_1
 62
7
 66
1
  0
VERTEX
  8
LAYER_1
 62
7
 10
-53.309401
 20
25.749115
  0
VERTEX
  8
LAYER_1
 62
7
 10
-53.309401
 20
25.783671
  0
SEQEND
  0
POLYLINE
  8
LAYER_1
 62
7
 66
1
  0
VERTEX
  8
LAYER_1
 62
7
 10
-53.309401
 20
25.783671
  0
VERTEX
  8
LAYER_1
 62
7
 10
-56.262157
 20
25.783671
  0
SEQEND
  0
POLYLINE
  8
LAYER_1
 62
7
 66
1
  0
VERTEX
  8
LAYER_1
 62
7
 10
-56.262157
 20
25.553764
  0
VERTEX
  8
LAYER_1
 62
7
 10
-56.262157
 20
21.051388
  0
SEQEND
  0
POLYLINE
  8
LAYER_1
 62
7
 66
1
  0
VERTEX
  8
LAYER_1
 62
7
 10
-56.262157
 20
21.051388
  0
VERTEX
  8
LAYER_1
 62
7
 10
-55.547353
 20
21.051388
  0
VERTEX
  8
LAYER_1
 62
7
 10
-55.158484
 20
21.051388
  0
VERTEX
  8
LAYER_1
 62
7
 10
-55.036705
 20
21.187396
 42
-0.021444
  0
VERTEX
  8
LAYER_1
 62
7
 10
-54.941162
 20
21.284459
 42
-0.059639
  0
VERTEX
  8
LAYER_1
 62
7
 10
-54.863434
 20
21.342619
 42
-0.127006
  0
VERTEX
  8
LAYER_1
 62
7
 10
-54.795102
 20
21.361919
 42
-0.129943
  0
VERTEX
  8
LAYER_1
 62
7
 10
-54.727745
 20
21.342404
 42
-0.062167
  0
VERTEX
  8
LAYER_1
 62
7
 10
-54.652943
 20
21.284114
 42
-0.022285
  0
VERTEX
  8
LAYER_1
 62
7
 10
-54.562277
 20
21.187095
  0
VERTEX
  8
LAYER_1
 62
7
 10
-54.447327
 20
21.051388
  0
VERTEX
  8
LAYER_1
 62
7
 10
-54.013722
 20
21.051388
  0
VERTEX
  8
LAYER_1
 62
7
 10
-53.309401
 20
21.051388
  0
SEQEND
  0
POLYLINE
  8
LAYER_1
 62
7
 66
1
  0
VERTEX
  8
LAYER_1
 62
7
 10
-56.262157
 20
25.783671
  0
VERTEX
  8
LAYER_1
 62
7
 10
-56.262157
 20
25.749174
  0
SEQEND
  0
POLYLINE
  8
LAYER_1
 62
7
 66
1
  0
VERTEX
  8
LAYER_1
 62
7
 10
-53.222746
 20
25.749174
  0
VERTEX
  8
LAYER_1
 62
7
 10
-53.222746
 20
25.553764
  0
SEQEND
  0
POLYLINE
  8
LAYER_1
 62
7
 66
1
  0
VERTEX
  8
LAYER_1
 62
7
 10
-53.309264
 20
25.749174
  0
VERTEX
  8
LAYER_1
 62
7
 10
-53.222746
 20
25.749174
  0
SEQEND
  0
POLYLINE
  8
LAYER_1
 62
7
 66
1
  0
VERTEX
  8
LAYER_1
 62
7
 10
-53.222746
 20
25.553764
  0
VERTEX
  8
LAYER_1
 62
7
 10
-53.309264
 20
25.553764
  0
SEQEND
  0
POLYLINE
  8
LAYER_1
 62
7
 70
1
 66
1
  0
VERTEX
  8
LAYER_1
 62
7
 10
-34.337449
 20
23.036515
  0
VERTEX
  8
LAYER_1
 62
7
 10
-34.337449
 20
22.641022
  0
VERTEX
  8
LAYER_1
 62
7
 10
-31.447793
 20
22.641022
  0
VERTEX
  8
LAYER_1
 62
7
 10
-31.447793
 20
23.036515
  0
VERTEX
  8
LAYER_1
 62
7
 10
-34.337449
 20
23.036515
  0
SEQEND
  0
POLYLINE
  8
LAYER_1
 62
7
 70
1
 66
1
  0
VERTEX
  8
LAYER_1
 62
7
 10
-30.248045
 20
26.054979
  0
VERTEX
  8
LAYER_1
 62
7
 10
-30.248045
 20
24.097765
 42
0.121016
  0
VERTEX
  8
LAYER_1
 62
7
 10
-30.164508
 20
23.760562
 42
0.102358
  0
VERTEX
  8
LAYER_1
 62
7
 10
-29.936698
 20
23.485196
 42
0.087972
  0
VERTEX
  8
LAYER_1
 62
7
 10
-29.598813
 20
23.299537
 42
0.083097
  0
VERTEX
  8
LAYER_1
 62
7
 10
-29.185053
 20
23.231457
  0
VERTEX
  8
LAYER_1
 62
7
 10
-29.185053
 20
23.231457
 42
0.083097
  0
VERTEX
  8
LAYER_1
 62
7
 10
-28.771292
 20
23.299537
 42
0.087972
  0
VERTEX
  8
LAYER_1
 62
7
 10
-28.433407
 20
23.485196
 42
0.102358
  0
VERTEX
  8
LAYER_1
 62
7
 10
-28.205597
 20
23.760562
 42
0.121016
  0
VERTEX
  8
LAYER_1
 62
7
 10
-28.122060
 20
24.097765
  0
VERTEX
  8
LAYER_1
 62
7
 10
-28.122060
 20
26.054979
 42
0.121016
  0
VERTEX
  8
LAYER_1
 62
7
 10
-28.205597
 20
26.392182
 42
0.102358
  0
VERTEX
  8
LAYER_1
 62
7
 10
-28.433407
 20
26.667548
 42
0.087972
  0
VERTEX
  8
LAYER_1
 62
7
 10
-28.771292
 20
26.853207
 42
0.083097
  0
VERTEX
  8
LAYER_1
 62
7
 10
-29.185053
 20
26.921286
  0
VERTEX
  8
LAYER_1
 62
7
 10
-29.185053
 20
26.921286
 42
0.083097
  0
VERTEX
  8
LAYER_1
 62
7
 10
-29.598813
 20
26.853207
 42
0.087972
  0
VERTEX
  8
LAYER_1
 62
7
 10
-29.936698
 20
26.667548
 42
0.102358
  0
VERTEX
  8
LAYER_1
 62
7
 10
-30.164508
 20
26.392182
 42
0.121016
  0
VERTEX
  8
LAYER_1
 62
7
 10
-30.248045
 20
26.054979
  0
SEQEND
  0
POLYLINE
  8
LAYER_1
 62
7
 70
1
 66
1
  0
VERTEX
  8
LAYER_1
 62
7
 10
-28.462777
 20
25.066876
  0
VERTEX
  8
LAYER_1
 62
7
 10
-28.992045
 20
24.203330
 42
-0.135803
  0
VERTEX
  8
LAYER_1
 62
7
 10
-29.077586
 20
24.480193
 42
-0.141939
  0
VERTEX
  8
LAYER_1
 62
7
 10
-28.981908
 20
24.830499
  0
VERTEX
  8
LAYER_1
 62
7
 10
-28.712234
 20
25.267236
  0
VERTEX
  8
LAYER_1
 62
7
 10
-28.795186
 20
25.375866
  0
VERTEX
  8
LAYER_1
 62
7
 10
-29.507650
 20
24.223255
 42
0.024183
  0
VERTEX
  8
LAYER_1
 62
7
 10
-29.696384
 20
24.679798
 42
0.012069
  0
VERTEX
  8
LAYER_1
 62
7
 10
-29.810065
 20
24.911478
 42
0.027662
  0
VERTEX
  8
LAYER_1
 62
7
 10
-29.907328
 20
25.078889
  0
VERTEX
  8
LAYER_1
 62
7
 10
-29.392717
 20
25.949413
 42
-0.085292
  0
VERTEX
  8
LAYER_1
 62
7
 10
-29.337562
 20
25.853010
 42
-0.054389
  0
VERTEX
  8
LAYER_1
 62
7
 10
-29.308698
 20
25.737523
 42
-0.064129
  0
VERTEX
  8
LAYER_1
 62
7
 10
-29.307685
 20
25.500553
  0
VERTEX
  8
LAYER_1
 62
7
 10
-29.316660
 20
25.444343
 42
-0.057416
  0
VERTEX
  8
LAYER_1
 62
7
 10
-29.330396
 20
25.394032
  0
VERTEX
  8
LAYER_1
 62
7
 10
-29.637806
 20
24.893601
  0
VERTEX
  8
LAYER_1
 62
7
 10
-29.564903
 20
24.761916
  0
VERTEX
  8
LAYER_1
 62
7
 10
-28.870007
 20
25.888035
 42
0.017730
  0
VERTEX
  8
LAYER_1
 62
7
 10
-28.830950
 20
25.787380
 42
0.025931
  0
VERTEX
  8
LAYER_1
 62
7
 10
-28.563899
 20
25.234594
 42
0.025175
  0
VERTEX
  8
LAYER_1
 62
7
 10
-28.462777
 20
25.066876
  0
SEQEND
  0
POLYLINE
  8
LAYER_1
 62
7
 70
1
 66
1
  0
VERTEX
  8
LAYER_1
 62
7
 10
-55.665918
 20
15.108717
  0
VERTEX
  8
LAYER_1
 62
7
 10
-55.665918
 20
13.151503
 42
0.121016
  0
VERTEX
  8
LAYER_1
 62
7
 10
-55.582382
 20
12.814300
 42
0.102358
  0
VERTEX
  8
LAYER_1
 62
7
 10
-55.354571
 20
12.538934
 42
0.087972
  0
VERTEX
  8
LAYER_1
 62
7
 10
-55.016687
 20
12.353275
 42
0.083097
  0
VERTEX
  8
LAYER_1
 62
7
 10
-54.602926
 20
12.285196
  0
VERTEX
  8
LAYER_1
 62
7
 10
-54.602926
 20
12.285196
 42
0.083097
  0
VERTEX
  8
LAYER_1
 62
7
 10
-54.189165
 20
12.353275
 42
0.087972
  0
VERTEX
  8
LAYER_1
 62
7
 10
-53.851280
 20
12.538934
 42
0.102358
  0
VERTEX
  8
LAYER_1
 62
7
 10
-53.623470
 20
12.814300
 42
0.121016
  0
VERTEX
  8
LAYER_1
 62
7
 10
-53.539934
 20
13.151503
  0
VERTEX
  8
LAYER_1
 62
7
 10
-53.539934
 20
15.108717
 42
0.121016
  0
VERTEX
  8
LAYER_1
 62
7
 10
-53.623470
 20
15.445920
 42
0.102358
  0
VERTEX
  8
LAYER_1
 62
7
 10
-53.851280
 20
15.721286
 42
0.087972
  0
VERTEX
  8
LAYER_1
 62
7
 10
-54.189165
 20
15.906945
 42
0.083097
  0
VERTEX
  8
LAYER_1
 62
7
 10
-54.602926
 20
15.975025
  0
VERTEX
  8
LAYER_1
 62
7
 10
-54.602926
 20
15.975025
 42
0.083097
  0
VERTEX
  8
LAYER_1
 62
7
 10
-55.016687
 20
15.906945
 42
0.087972
  0
VERTEX
  8
LAYER_1
 62
7
 10
-55.354571
 20
15.721286
 42
0.102358
  0
VERTEX
  8
LAYER_1
 62
7
 10
-55.582382
 20
15.445920
 42
0.121016
  0
VERTEX
  8
LAYER_1
 62
7
 10
-55.665918
 20
15.108717
  0
SEQEND
  0
POLYLINE
  8
LAYER_1
 62
7
 70
1
 66
1
  0
VERTEX
  8
LAYER_1
 62
7
 10
-53.880651
 20
14.120614
  0
VERTEX
  8
LAYER_1
 62
7
 10
-54.409919
 20
13.257069
 42
-0.135803
  0
VERTEX
  8
LAYER_1
 62
7
 10
-54.495460
 20
13.533931
 42
-0.141939
  0
VERTEX
  8
LAYER_1
 62
7
 10
-54.399781
 20
13.884237
  0
VERTEX
  8
LAYER_1
 62
7
 10
-54.130108
 20
14.320974
  0
VERTEX
  8
LAYER_1
 62
7
 10
-54.213060
 20
14.429605
  0
VERTEX
  8
LAYER_1
 62
7
 10
-54.925523
 20
13.276993
 42
0.024183
  0
VERTEX
  8
LAYER_1
 62
7
 10
-55.114258
 20
13.733536
 42
0.012069
  0
VERTEX
  8
LAYER_1
 62
7
 10
-55.227938
 20
13.965216
 42
0.027662
  0
VERTEX
  8
LAYER_1
 62
7
 10
-55.325201
 20
14.132627
  0
VERTEX
  8
LAYER_1
 62
7
 10
-54.810590
 20
15.003152
 42
-0.085292
  0
VERTEX
  8
LAYER_1
 62
7
 10
-54.755435
 20
14.906748
 42
-0.054389
  0
VERTEX
  8
LAYER_1
 62
7
 10
-54.726571
 20
14.791262
 42
-0.064129
  0
VERTEX
  8
LAYER_1
 62
7
 10
-54.725559
 20
14.554291
  0
VERTEX
  8
LAYER_1
 62
7
 10
-54.734533
 20
14.498081
 42
-0.057416
  0
VERTEX
  8
LAYER_1
 62
7
 10
-54.748270
 20
14.447770
  0
VERTEX
  8
LAYER_1
 62
7
 10
-55.055679
 20
13.947340
  0
VERTEX
  8
LAYER_1
 62
7
 10
-54.982777
 20
13.815654
  0
VERTEX
  8
LAYER_1
 62
7
 10
-54.287881
 20
14.941773
 42
0.017730
  0
VERTEX
  8
LAYER_1
 62
7
 10
-54.248823
 20
14.841119
 42
0.025931
  0
VERTEX
  8
LAYER_1
 62
7
 10
-53.981772
 20
14.288333
 42
0.025175
  0
VERTEX
  8
LAYER_1
 62
7
 10
-53.880651
 20
14.120614
  0
SEQEND
  0
POLYLINE
  8
LAYER_1
 62
7
 70
1
 66
1
  0
VERTEX
  8
LAYER_1
 62
7
 10
-40.520392
 20
13.093527
 42
0.015159
  0
VERTEX
  8
LAYER_1
 62
7
 10
-40.276556
 20
15.537115
 42
0.034483
  0
VERTEX
  8
LAYER_1
 62
7
 10
-40.276556
 20
20.251270
 42
0.015159
  0
VERTEX
  8
LAYER_1
 62
7
 10
-40.520392
 20
22.694857
 42
-0.189407
  0
VERTEX
  8
LAYER_1
 62
7
 10
-40.389970
 20
23.033514
 42
-0.209794
  0
VERTEX
  8
LAYER_1
 62
7
 10
-40.075108
 20
23.173792
 42
0.031913
  0
VERTEX
  8
LAYER_1
 62
7
 10
-38.836568
 20
22.911943
 42
0.035697
  0
VERTEX
  8
LAYER_1
 62
7
 10
-37.627798
 20
22.824660
 42
0.035697
  0
VERTEX
  8
LAYER_1
 62
7
 10
-36.419028
 20
22.911943
 42
0.031913
  0
VERTEX
  8
LAYER_1
 62
7
 10
-35.180489
 20
23.173792
 42
-0.209794
  0
VERTEX
  8
LAYER_1
 62
7
 10
-34.865627
 20
23.033514
 42
-0.189407
  0
VERTEX
  8
LAYER_1
 62
7
 10
-34.735205
 20
22.694857
 42
0.014873
  0
VERTEX
  8
LAYER_1
 62
7
 10
-34.974492
 20
20.251046
 42
0.033843
  0
VERTEX
  8
LAYER_1
 62
7
 10
-34.974492
 20
15.537339
 42
0.014873
  0
VERTEX
  8
LAYER_1
 62
7
 10
-34.735205
 20
13.093527
 42
-0.189407
  0
VERTEX
  8
LAYER_1
 62
7
 10
-34.865627
 20
12.754871
 42
-0.209794
  0
VERTEX
  8
LAYER_1
 62
7
 10
-35.180489
 20
12.614592
 42
0.032477
  0
VERTEX
  8
LAYER_1
 62
7
 10
-36.418663
 20
12.881038
 42
0.036312
  0
VERTEX
  8
LAYER_1
 62
7
 10
-37.627798
 20
12.969854
 42
0.036312
  0
VERTEX
  8
LAYER_1
 62
7
 10
-38.836933
 20
12.881038
 42
0.032477
  0
VERTEX
  8
LAYER_1
 62
7
 10
-40.075108
 20
12.614592
 42
-0.209794
  0
VERTEX
  8
LAYER_1
 62
7
 10
-40.389970
 20
12.754871
 42
-0.189407
  0
VERTEX
  8
LAYER_1
 62
7
 10
-40.520392
 20
13.093527
  0
SEQEND
  0
POLYLINE
  8
LAYER_1
 62
7
 70
1
 66
1
  0
VERTEX
  8
LAYER_1
 62
7
 10
-38.430890
 20
19.591714
 42
0.034885
  0
VERTEX
  8
LAYER_1
 62
7
 10
-38.450019
 20
19.255567
 42
0.028868
  0
VERTEX
  8
LAYER_1
 62
7
 10
-38.424381
 20
18.894702
 42
0.015154
  0
VERTEX
  8
LAYER_1
 62
7
 10
-38.361274
 20
18.490431
  0
VERTEX
  8
LAYER_1
 62
7
 10
-38.360127
 20
18.484768
 42
0.005155
  0
VERTEX
  8
LAYER_1
 62
7
 10
-38.151868
 20
17.574097
 42
-0.014699
  0
VERTEX
  8
LAYER_1
 62
7
 10
-38.054964
 20
17.091873
 42
-0.029571
  0
VERTEX
  8
LAYER_1
 62
7
 10
-38.005368
 20
16.651329
 42
-0.086710
  0
VERTEX
  8
LAYER_1
 62
7
 10
-38.100681
 20
15.847126
  0
VERTEX
  8
LAYER_1
 62
7
 10
-38.145614
 20
15.731939
 42
0.199589
  0
VERTEX
  8
LAYER_1
 62
7
 10
-38.142486
 20
15.581308
 42
0.199589
  0
VERTEX
  8
LAYER_1
 62
7
 10
-38.033762
 20
15.477009
 42
0.093252
  0
VERTEX
  8
LAYER_1
 62
7
 10
-37.962223
 20
15.463549
  0
VERTEX
  8
LAYER_1
 62
7
 10
-37.183430
 20
15.463549
 42
0.290324
  0
VERTEX
  8
LAYER_1
 62
7
 10
-37.005377
 20
15.576452
 42
0.078719
  0
VERTEX
  8
LAYER_1
 62
7
 10
-36.824707
 20
16.196670
 42
0.034885
  0
VERTEX
  8
LAYER_1
 62
7
 10
-36.805577
 20
16.532817
 42
0.028868
  0
VERTEX
  8
LAYER_1
 62
7
 10
-36.831216
 20
16.893683
 42
0.015145
  0
VERTEX
  8
LAYER_1
 62
7
 10
-36.894278
 20
17.297720
  0
VERTEX
  8
LAYER_1
 62
7
 10
-36.895606
 20
17.304207
 42
0.003032
  0
VERTEX
  8
LAYER_1
 62
7
 10
-37.103836
 20
18.214742
 42
-0.017774
  0
VERTEX
  8
LAYER_1
 62
7
 10
-37.213477
 20
18.781574
 42
-0.039603
  0
VERTEX
  8
LAYER_1
 62
7
 10
-37.253068
 20
19.299998
 42
-0.093844
  0
VERTEX
  8
LAYER_1
 62
7
 10
-37.108710
 20
20.055477
 42
0.199589
  0
VERTEX
  8
LAYER_1
 62
7
 10
-37.111041
 20
20.206122
 42
0.199589
  0
VERTEX
  8
LAYER_1
 62
7
 10
-37.219212
 20
20.310995
 42
0.094587
  0
VERTEX
  8
LAYER_1
 62
7
 10
-37.291720
 20
20.324835
  0
VERTEX
  8
LAYER_1
 62
7
 10
-38.072167
 20
20.324835
 42
0.290324
  0
VERTEX
  8
LAYER_1
 62
7
 10
-38.250220
 20
20.211933
 42
0.078719
  0
VERTEX
  8
LAYER_1
 62
7
 10
-38.430890
 20
19.591714
  0
SEQEND
  0
POLYLINE
  8
LAYER_1
 62
7
 70
1
 66
1
  0
VERTEX
  8
LAYER_1
 62
7
 10
-39.557885
 20
17.892566
  0
VERTEX
  8
LAYER_1
 62
7
 10
-39.557885
 20
18.022656
  0
VERTEX
  8
LAYER_1
 62
7
 10
-39.669329
 20
18.022656
 42
-0.056676
  0
VERTEX
  8
LAYER_1
 62
7
 10
-39.698462
 20
18.025561
 42
-0.095383
  0
VERTEX
  8
LAYER_1
 62
7
 10
-39.719267
 20
18.034277
 42
-0.259646
  0
VERTEX
  8
LAYER_1
 62
7
 10
-39.735906
 20
18.069130
 42
-0.263760
  0
VERTEX
  8
LAYER_1
 62
7
 10
-39.719267
 20
18.103109
 42
-0.093693
  0
VERTEX
  8
LAYER_1
 62
7
 10
-39.698462
 20
18.111600
 42
-0.055231
  0
VERTEX
  8
LAYER_1
 62
7
 10
-39.669329
 20
18.114429
  0
VERTEX
  8
LAYER_1
 62
7
 10
-39.557885
 20
18.114429
  0
VERTEX
  8
LAYER_1
 62
7
 10
-39.557885
 20
18.244519
  0
VERTEX
  8
LAYER_1
 62
7
 10
-39.584475
 20
18.244519
 42
-0.069507
  0
VERTEX
  8
LAYER_1
 62
7
 10
-39.614997
 20
18.248152
 42
-0.128837
  0
VERTEX
  8
LAYER_1
 62
7
 10
-39.634739
 20
18.259054
 42
-0.188405
  0
VERTEX
  8
LAYER_1
 62
7
 10
-39.648450
 20
18.302385
  0
VERTEX
  8
LAYER_1
 62
7
 10
-39.648451
 20
18.302607
  0
VERTEX
  8
LAYER_1
 62
7
 10
-39.648451
 20
18.306486
  0
VERTEX
  8
LAYER_1
 62
7
 10
-39.648450
 20
18.306708
 42
-0.188602
  0
VERTEX
  8
LAYER_1
 62
7
 10
-39.634739
 20
18.350039
 42
-0.129707
  0
VERTEX
  8
LAYER_1
 62
7
 10
-39.614841
 20
18.360932
 42
-0.068502
  0
VERTEX
  8
LAYER_1
 62
7
 10
-39.583835
 20
18.364557
  0
VERTEX
  8
LAYER_1
 62
7
 10
-38.869815
 20
18.364557
  0
VERTEX
  8
LAYER_1
 62
7
 10
-38.869815
 20
18.494664
  0
VERTEX
  8
LAYER_1
 62
7
 10
-39.595585
 20
18.494664
 42
0.186097
  0
VERTEX
  8
LAYER_1
 62
7
 10
-39.703278
 20
18.455172
 42
0.219420
  0
VERTEX
  8
LAYER_1
 62
7
 10
-39.749598
 20
18.359926
  0
VERTEX
  8
LAYER_1
 62
7
 10
-39.749598
 20
18.311300
  0
VERTEX
  8
LAYER_1
 62
7
 10
-39.749598
 20
18.294872
  0
VERTEX
  8
LAYER_1
 62
7
 10
-39.749598
 20
18.289247
 42
0.114819
  0
VERTEX
  8
LAYER_1
 62
7
 10
-39.737208
 20
18.234650
 42
0.050032
  0
VERTEX
  8
LAYER_1
 62
7
 10
-39.764912
 20
18.222466
 42
0.053834
  0
VERTEX
  8
LAYER_1
 62
7
 10
-39.790714
 20
18.203869
 42
0.228344
  0
VERTEX
  8
LAYER_1
 62
7
 10
-39.836394
 20
18.108622
  0
VERTEX
  8
LAYER_1
 62
7
 10
-39.836394
 20
18.028463
 42
0.223744
  0
VERTEX
  8
LAYER_1
 62
7
 10
-39.790714
 20
17.932646
 42
0.192089
  0
VERTEX
  8
LAYER_1
 62
7
 10
-39.681079
 20
17.892566
  0
VERTEX
  8
LAYER_1
 62
7
 10
-39.557885
 20
17.892566
  0
SEQEND
  0
POLYLINE
  8
LAYER_1
 62
7
 70
1
 66
1
  0
VERTEX
  8
LAYER_1
 62
7
 10
-39.498741
 20
18.244519
  0
VERTEX
  8
LAYER_1
 62
7
 10
-39.498741
 20
18.114429
  0
VERTEX
  8
LAYER_1
 62
7
 10
-39.390647
 20
18.114429
 42
-0.055780
  0
VERTEX
  8
LAYER_1
 62
7
 10
-39.361811
 20
18.111600
 42
-0.094319
  0
VERTEX
  8
LAYER_1
 62
7
 10
-39.341212
 20
18.103109
 42
-0.262212
  0
VERTEX
  8
LAYER_1
 62
7
 10
-39.324730
 20
18.069130
 42
-0.258087
  0
VERTEX
  8
LAYER_1
 62
7
 10
-39.341212
 20
18.034277
 42
-0.096008
  0
VERTEX
  8
LAYER_1
 62
7
 10
-39.361811
 20
18.025561
 42
-0.057239
  0
VERTEX
  8
LAYER_1
 62
7
 10
-39.390647
 20
18.022656
  0
VERTEX
  8
LAYER_1
 62
7
 10
-39.498741
 20
18.022656
  0
VERTEX
  8
LAYER_1
 62
7
 10
-39.498741
 20
17.892566
  0
VERTEX
  8
LAYER_1
 62
7
 10
-39.377596
 20
17.892566
 42
0.192151
  0
VERTEX
  8
LAYER_1
 62
7
 10
-39.269242
 20
17.932646
 42
0.223744
  0
VERTEX
  8
LAYER_1
 62
7
 10
-39.223562
 20
18.028463
  0
VERTEX
  8
LAYER_1
 62
7
 10
-39.223562
 20
18.109192
 42
0.228364
  0
VERTEX
  8
LAYER_1
 62
7
 10
-39.269242
 20
18.204457
 42
0.190142
  0
VERTEX
  8
LAYER_1
 62
7
 10
-39.377596
 20
18.244519
  0
VERTEX
  8
LAYER_1
 62
7
 10
-39.498741
 20
18.244519
  0
SEQEND
  0
POLYLINE
  8
LAYER_1
 62
7
 70
1
 66
1
  0
VERTEX
  8
LAYER_1
 62
7
 10
-39.557885
 20
15.733873
  0
VERTEX
  8
LAYER_1
 62
7
 10
-39.557885
 20
15.863980
  0
VERTEX
  8
LAYER_1
 62
7
 10
-39.671951
 20
15.863980
 42
-0.059672
  0
VERTEX
  8
LAYER_1
 62
7
 10
-39.699931
 20
15.866922
 42
-0.098814
  0
VERTEX
  8
LAYER_1
 62
7
 10
-39.719918
 20
15.875746
 42
-0.251268
  0
VERTEX
  8
LAYER_1
 62
7
 10
-39.735906
 20
15.911025
 42
-0.259481
  0
VERTEX
  8
LAYER_1
 62
7
 10
-39.719918
 20
15.944562
 42
-0.095465
  0
VERTEX
  8
LAYER_1
 62
7
 10
-39.699931
 20
15.952943
 42
-0.056722
  0
VERTEX
  8
LAYER_1
 62
7
 10
-39.671951
 20
15.955736
  0
VERTEX
  8
LAYER_1
 62
7
 10
-39.557885
 20
15.955736
  0
VERTEX
  8
LAYER_1
 62
7
 10
-39.557885
 20
16.085843
  0
VERTEX
  8
LAYER_1
 62
7
 10
-39.804406
 20
16.085843
 42
-0.145572
  0
VERTEX
  8
LAYER_1
 62
7
 10
-39.848144
 20
16.096869
 42
-0.120647
  0
VERTEX
  8
LAYER_1
 62
7
 10
-39.864295
 20
16.111256
 42
-0.148211
  0
VERTEX
  8
LAYER_1
 62
7
 10
-39.869682
 20
16.129984
  0
VERTEX
  8
LAYER_1
 62
7
 10
-39.869682
 20
16.173537
  0
VERTEX
  8
LAYER_1
 62
7
 10
-39.970850
 20
16.173537
  0
VERTEX
  8
LAYER_1
 62
7
 10
-39.970850
 20
16.093396
 42
0.219592
  0
VERTEX
  8
LAYER_1
 62
7
 10
-39.925811
 20
15.996973
 42
0.148591
  0
VERTEX
  8
LAYER_1
 62
7
 10
-39.836394
 20
15.959227
  0
VERTEX
  8
LAYER_1
 62
7
 10
-39.836394
 20
15.869787
 42
0.225874
  0
VERTEX
  8
LAYER_1
 62
7
 10
-39.790053
 20
15.773365
 42
0.115489
  0
VERTEX
  8
LAYER_1
 62
7
 10
-39.735906
 20
15.742584
 42
0.114438
  0
VERTEX
  8
LAYER_1
 62
7
 10
-39.749598
 20
15.689144
  0
VERTEX
  8
LAYER_1
 62
7
 10
-39.749598
 20
15.677055
  0
VERTEX
  8
LAYER_1
 62
7
 10
-39.749598
 20
15.658363
  0
VERTEX
  8
LAYER_1
 62
7
 10
-39.749598
 20
15.627124
 42
0.211295
  0
VERTEX
  8
LAYER_1
 62
7
 10
-39.708483
 20
15.536509
 42
0.222084
  0
VERTEX
  8
LAYER_1
 62
7
 10
-39.749598
 20
15.446499
  0
VERTEX
  8
LAYER_1
 62
7
 10
-39.749598
 20
15.407577
 42
0.220415
  0
VERTEX
  8
LAYER_1
 62
7
 10
-39.703278
 20
15.311742
 42
0.060928
  0
VERTEX
  8
LAYER_1
 62
7
 10
-39.681739
 20
15.296655
 42
0.065378
  0
VERTEX
  8
LAYER_1
 62
7
 10
-39.703278
 20
15.281549
 42
0.220468
  0
VERTEX
  8
LAYER_1
 62
7
 10
-39.749598
 20
15.185714
  0
VERTEX
  8
LAYER_1
 62
7
 10
-39.749598
 20
15.147968
 42
0.212519
  0
VERTEX
  8
LAYER_1
 62
7
 10
-39.709143
 20
15.057353
 42
0.211243
  0
VERTEX
  8
LAYER_1
 62
7
 10
-39.749598
 20
14.967913
  0
VERTEX
  8
LAYER_1
 62
7
 10
-39.749598
 20
14.958398
  0
VERTEX
  8
LAYER_1
 62
7
 10
-39.749598
 20
14.939448
  0
VERTEX
  8
LAYER_1
 62
7
 10
-39.749598
 20
14.866073
 42
0.219366
  0
VERTEX
  8
LAYER_1
 62
7
 10
-39.703278
 20
14.770826
 42
0.186097
  0
VERTEX
  8
LAYER_1
 62
7
 10
-39.595585
 20
14.731334
  0
VERTEX
  8
LAYER_1
 62
7
 10
-39.223562
 20
14.731334
  0
VERTEX
  8
LAYER_1
 62
7
 10
-39.223562
 20
14.861424
  0
VERTEX
  8
LAYER_1
 62
7
 10
-39.583835
 20
14.861424
 42
-0.068571
  0
VERTEX
  8
LAYER_1
 62
7
 10
-39.614841
 20
14.865055
 42
-0.129387
  0
VERTEX
  8
LAYER_1
 62
7
 10
-39.634739
 20
14.875941
 42
-0.116791
  0
VERTEX
  8
LAYER_1
 62
7
 10
-39.645025
 20
14.895701
 42
-0.067849
  0
VERTEX
  8
LAYER_1
 62
7
 10
-39.648451
 20
14.924732
  0
VERTEX
  8
LAYER_1
 62
7
 10
-39.648451
 20
14.939448
  0
VERTEX
  8
LAYER_1
 62
7
 10
-39.648451
 20
14.951080
 42
-0.068730
  0
VERTEX
  8
LAYER_1
 62
7
 10
-39.645188
 20
14.977211
 42
-0.115181
  0
VERTEX
  8
LAYER_1
 62
7
 10
-39.634739
 20
14.996948
 42
-0.138672
  0
VERTEX
  8
LAYER_1
 62
7
 10
-39.615495
 20
15.007409
 42
-0.065609
  0
VERTEX
  8
LAYER_1
 62
7
 10
-39.583835
 20
15.010896
  0
VERTEX
  8
LAYER_1
 62
7
 10
-39.223562
 20
15.010896
  0
VERTEX
  8
LAYER_1
 62
7
 10
-39.223562
 20
15.140986
  0
VERTEX
  8
LAYER_1
 62
7
 10
-39.582533
 20
15.140986
 42
-0.054402
  0
VERTEX
  8
LAYER_1
 62
7
 10
-39.611378
 20
15.143744
 42
-0.092637
  0
VERTEX
  8
LAYER_1
 62
7
 10
-39.631976
 20
15.152021
 42
-0.266228
  0
VERTEX
  8
LAYER_1
 62
7
 10
-39.648451
 20
15.185127
 42
-0.264147
  0
VERTEX
  8
LAYER_1
 62
7
 10
-39.631976
 20
15.218673
 42
-0.093512
  0
VERTEX
  8
LAYER_1
 62
7
 10
-39.611378
 20
15.227060
 42
-0.055113
  0
VERTEX
  8
LAYER_1
 62
7
 10
-39.582533
 20
15.229855
  0
VERTEX
  8
LAYER_1
 62
7
 10
-39.223562
 20
15.229855
  0
VERTEX
  8
LAYER_1
 62
7
 10
-39.223562
 20
15.359945
  0
VERTEX
  8
LAYER_1
 62
7
 10
-39.584475
 20
15.359945
 42
-0.056022
  0
VERTEX
  8
LAYER_1
 62
7
 10
-39.612467
 20
15.362704
 42
-0.094604
  0
VERTEX
  8
LAYER_1
 62
7
 10
-39.632459
 20
15.370980
 42
-0.261521
  0
VERTEX
  8
LAYER_1
 62
7
 10
-39.648451
 20
15.404086
 42
-0.264147
  0
VERTEX
  8
LAYER_1
 62
7
 10
-39.631976
 20
15.437632
 42
-0.093512
  0
VERTEX
  8
LAYER_1
 62
7
 10
-39.611378
 20
15.446019
 42
-0.055113
  0
VERTEX
  8
LAYER_1
 62
7
 10
-39.582533
 20
15.448815
  0
VERTEX
  8
LAYER_1
 62
7
 10
-39.223562
 20
15.448815
  0
VERTEX
  8
LAYER_1
 62
7
 10
-39.223562
 20
15.578922
  0
VERTEX
  8
LAYER_1
 62
7
 10
-39.583835
 20
15.578922
 42
-0.068397
  0
VERTEX
  8
LAYER_1
 62
7
 10
-39.615164
 20
15.582554
 42
-0.135267
  0
VERTEX
  8
LAYER_1
 62
7
 10
-39.634739
 20
15.593440
 42
-0.184595
  0
VERTEX
  8
LAYER_1
 62
7
 10
-39.648451
 20
15.636993
  0
VERTEX
  8
LAYER_1
 62
7
 10
-39.648451
 20
15.658363
  0
VERTEX
  8
LAYER_1
 62
7
 10
-39.648451
 20
15.671723
 42
-0.069395
  0
VERTEX
  8
LAYER_1
 62
7
 10
-39.645025
 20
15.700195
 42
-0.120550
  0
VERTEX
  8
LAYER_1
 62
7
 10
-39.634739
 20
15.719355
 42
-0.135590
  0
VERTEX
  8
LAYER_1
 62
7
 10
-39.615164
 20
15.730248
 42
-0.068328
  0
VERTEX
  8
LAYER_1
 62
7
 10
-39.583835
 20
15.733873
  0
VERTEX
  8
LAYER_1
 62
7
 10
-39.557885
 20
15.733873
  0
SEQEND
  0
POLYLINE
  8
LAYER_1
 62
7
 70
1
 66
1
  0
VERTEX
  8
LAYER_1
 62
7
 10
-39.498741
 20
16.085843
  0
VERTEX
  8
LAYER_1
 62
7
 10
-39.498741
 20
15.955736
  0
VERTEX
  8
LAYER_1
 62
7
 10
-39.390647
 20
15.955736
 42
-0.055071
  0
VERTEX
  8
LAYER_1
 62
7
 10
-39.361811
 20
15.952943
 42
-0.093455
  0
VERTEX
  8
LAYER_1
 62
7
 10
-39.341212
 20
15.944562
 42
-0.264275
  0
VERTEX
  8
LAYER_1
 62
7
 10
-39.324730
 20
15.911025
 42
-0.256123
  0
VERTEX
  8
LAYER_1
 62
7
 10
-39.341212
 20
15.875746
 42
-0.096811
  0
VERTEX
  8
LAYER_1
 62
7
 10
-39.361811
 20
15.866922
 42
-0.057939
  0
VERTEX
  8
LAYER_1
 62
7
 10
-39.390647
 20
15.863980
  0
VERTEX
  8
LAYER_1
 62
7
 10
-39.498741
 20
15.863980
  0
VERTEX
  8
LAYER_1
 62
7
 10
-39.498741
 20
15.733873
  0
VERTEX
  8
LAYER_1
 62
7
 10
-39.377596
 20
15.733873
 42
0.083695
  0
VERTEX
  8
LAYER_1
 62
7
 10
-39.318524
 20
15.743456
 42
0.099681
  0
VERTEX
  8
LAYER_1
 62
7
 10
-39.267941
 20
15.773365
 42
0.221961
  0
VERTEX
  8
LAYER_1
 62
7
 10
-39.223562
 20
15.869787
  0
VERTEX
  8
LAYER_1
 62
7
 10
-39.223562
 20
15.950517
 42
0.224196
  0
VERTEX
  8
LAYER_1
 62
7
 10
-39.267941
 20
16.046351
 42
0.184036
  0
VERTEX
  8
LAYER_1
 62
7
 10
-39.377596
 20
16.085843
  0
VERTEX
  8
LAYER_1
 62
7
 10
-39.498741
 20
16.085843
  0
SEQEND
  0
POLYLINE
  8
LAYER_1
 62
7
 70
1
 66
1
  0
VERTEX
  8
LAYER_1
 62
7
 10
-39.499680
 20
17.231697
  0
VERTEX
  8
LAYER_1
 62
7
 10
-39.499680
 20
17.361786
  0
VERTEX
  8
LAYER_1
 62
7
 10
-39.584475
 20
17.361786
 42
-0.058924
  0
VERTEX
  8
LAYER_1
 62
7
 10
-39.612467
 20
17.364692
 42
-0.097977
  0
VERTEX
  8
LAYER_1
 62
7
 10
-39.632459
 20
17.373405
 42
-0.253328
  0
VERTEX
  8
LAYER_1
 62
7
 10
-39.648451
 20
17.408243
 42
-0.247996
  0
VERTEX
  8
LAYER_1
 62
7
 10
-39.632790
 20
17.443529
 42
-0.100183
  0
VERTEX
  8
LAYER_1
 62
7
 10
-39.613210
 20
17.452348
 42
-0.060836
  0
VERTEX
  8
LAYER_1
 62
7
 10
-39.585796
 20
17.455288
  0
VERTEX
  8
LAYER_1
 62
7
 10
-39.499680
 20
17.455288
  0
VERTEX
  8
LAYER_1
 62
7
 10
-39.499680
 20
17.585395
  0
VERTEX
  8
LAYER_1
 62
7
 10
-39.595585
 20
17.585395
 42
0.182095
  0
VERTEX
  8
LAYER_1
 62
7
 10
-39.705220
 20
17.546473
 42
0.224315
  0
VERTEX
  8
LAYER_1
 62
7
 10
-39.749598
 20
17.449481
  0
VERTEX
  8
LAYER_1
 62
7
 10
-39.749598
 20
17.369339
 42
0.205506
  0
VERTEX
  8
LAYER_1
 62
7
 10
-39.710444
 20
17.278741
 42
0.202598
  0
VERTEX
  8
LAYER_1
 62
7
 10
-39.749598
 20
17.189284
  0
VERTEX
  8
LAYER_1
 62
7
 10
-39.749598
 20
17.113792
 42
0.209906
  0
VERTEX
  8
LAYER_1
 62
7
 10
-39.708483
 20
17.023764
 42
0.209962
  0
VERTEX
  8
LAYER_1
 62
7
 10
-39.749598
 20
16.933736
  0
VERTEX
  8
LAYER_1
 62
7
 10
-39.749598
 20
16.857656
 42
0.219366
  0
VERTEX
  8
LAYER_1
 62
7
 10
-39.703278
 20
16.762409
 42
0.186097
  0
VERTEX
  8
LAYER_1
 62
7
 10
-39.595585
 20
16.722918
  0
VERTEX
  8
LAYER_1
 62
7
 10
-38.869815
 20
16.722918
  0
VERTEX
  8
LAYER_1
 62
7
 10
-38.869815
 20
16.853007
  0
VERTEX
  8
LAYER_1
 62
7
 10
-39.583835
 20
16.853007
 42
-0.068571
  0
VERTEX
  8
LAYER_1
 62
7
 10
-39.614841
 20
16.856639
 42
-0.129387
  0
VERTEX
  8
LAYER_1
 62
7
 10
-39.634739
 20
16.867525
 42
-0.116791
  0
VERTEX
  8
LAYER_1
 62
7
 10
-39.645025
 20
16.887284
 42
-0.067849
  0
VERTEX
  8
LAYER_1
 62
7
 10
-39.648451
 20
16.916315
 42
-0.069395
  0
VERTEX
  8
LAYER_1
 62
7
 10
-39.645025
 20
16.944787
 42
-0.120550
  0
VERTEX
  8
LAYER_1
 62
7
 10
-39.634739
 20
16.963947
 42
-0.135590
  0
VERTEX
  8
LAYER_1
 62
7
 10
-39.615164
 20
16.974840
 42
-0.068328
  0
VERTEX
  8
LAYER_1
 62
7
 10
-39.583835
 20
16.978465
  0
VERTEX
  8
LAYER_1
 62
7
 10
-39.057778
 20
16.978465
  0
VERTEX
  8
LAYER_1
 62
7
 10
-39.057778
 20
17.108555
  0
VERTEX
  8
LAYER_1
 62
7
 10
-39.583835
 20
17.108555
 42
-0.068397
  0
VERTEX
  8
LAYER_1
 62
7
 10
-39.615164
 20
17.112186
 42
-0.135267
  0
VERTEX
  8
LAYER_1
 62
7
 10
-39.634739
 20
17.123072
 42
-0.115346
  0
VERTEX
  8
LAYER_1
 62
7
 10
-39.645025
 20
17.142540
 42
-0.069534
  0
VERTEX
  8
LAYER_1
 62
7
 10
-39.648451
 20
17.170705
 42
-0.071180
  0
VERTEX
  8
LAYER_1
 62
7
 10
-39.645025
 20
17.198295
 42
-0.119010
  0
VERTEX
  8
LAYER_1
 62
7
 10
-39.634739
 20
17.217161
 42
-0.138604
  0
VERTEX
  8
LAYER_1
 62
7
 10
-39.619726
 20
17.227048
 42
-0.062524
  0
VERTEX
  8
LAYER_1
 62
7
 10
-39.596886
 20
17.231697
  0
VERTEX
  8
LAYER_1
 62
7
 10
-39.499680
 20
17.231697
  0
SEQEND
  0
POLYLINE
  8
LAYER_1
 62
7
 70
1
 66
1
  0
VERTEX
  8
LAYER_1
 62
7
 10
-39.440536
 20
17.585395
  0
VERTEX
  8
LAYER_1
 62
7
 10
-39.440536
 20
17.455288
  0
VERTEX
  8
LAYER_1
 62
7
 10
-39.388685
 20
17.455288
 42
-0.058173
  0
VERTEX
  8
LAYER_1
 62
7
 10
-39.360705
 20
17.452422
 42
-0.097152
  0
VERTEX
  8
LAYER_1
 62
7
 10
-39.340719
 20
17.443823
 42
-0.255382
  0
VERTEX
  8
LAYER_1
 62
7
 10
-39.324730
 20
17.409419
  0
VERTEX
  8
LAYER_1
 62
7
 10
-39.324730
 20
17.361786
  0
VERTEX
  8
LAYER_1
 62
7
 10
-39.440536
 20
17.361786
  0
VERTEX
  8
LAYER_1
 62
7
 10
-39.440536
 20
17.231697
  0
VERTEX
  8
LAYER_1
 62
7
 10
-39.223562
 20
17.231697
  0
VERTEX
  8
LAYER_1
 62
7
 10
-39.223562
 20
17.448323
 42
0.223864
  0
VERTEX
  8
LAYER_1
 62
7
 10
-39.269242
 20
17.544745
 42
0.186245
  0
VERTEX
  8
LAYER_1
 62
7
 10
-39.377596
 20
17.585395
  0
VERTEX
  8
LAYER_1
 62
7
 10
-39.440536
 20
17.585395
  0
SEQEND
  0
POLYLINE
  8
LAYER_1
 62
7
 70
1
 66
1
  0
VERTEX
  8
LAYER_1
 62
7
 10
-38.972284
 20
17.043519
  0
VERTEX
  8
LAYER_1
 62
7
 10
-38.973585
 20
17.042343
 42
0.217286
  0
VERTEX
  8
LAYER_1
 62
7
 10
-38.986637
 20
17.013308
  0
VERTEX
  8
LAYER_1
 62
7
 10
-38.986637
 20
16.980211
 42
0.224273
  0
VERTEX
  8
LAYER_1
 62
7
 10
-38.973585
 20
16.951745
 42
0.197057
  0
VERTEX
  8
LAYER_1
 62
7
 10
-38.941617
 20
16.939543
  0
VERTEX
  8
LAYER_1
 62
7
 10
-38.869815
 20
16.939543
  0
VERTEX
  8
LAYER_1
 62
7
 10
-38.869815
 20
16.977877
  0
VERTEX
  8
LAYER_1
 62
7
 10
-38.921380
 20
16.977877
 42
-0.063577
  0
VERTEX
  8
LAYER_1
 62
7
 10
-38.931086
 20
16.978966
 42
-0.103142
  0
VERTEX
  8
LAYER_1
 62
7
 10
-38.938017
 20
16.982233
 42
-0.240666
  0
VERTEX
  8
LAYER_1
 62
7
 10
-38.943559
 20
16.995299
  0
VERTEX
  8
LAYER_1
 62
7
 10
-38.943559
 20
17.010404
 42
-0.225616
  0
VERTEX
  8
LAYER_1
 62
7
 10
-38.938510
 20
17.023470
 42
-0.179285
  0
VERTEX
  8
LAYER_1
 62
7
 10
-38.923342
 20
17.027825
  0
VERTEX
  8
LAYER_1
 62
7
 10
-38.877642
 20
17.027825
  0
VERTEX
  8
LAYER_1
 62
7
 10
-38.877642
 20
17.059194
  0
VERTEX
  8
LAYER_1
 62
7
 10
-38.923342
 20
17.059194
 42
-0.174246
  0
VERTEX
  8
LAYER_1
 62
7
 10
-38.938510
 20
17.063403
 42
-0.231174
  0
VERTEX
  8
LAYER_1
 62
7
 10
-38.943559
 20
17.076028
  0
VERTEX
  8
LAYER_1
 62
7
 10
-38.943559
 20
17.091721
 42
-0.246222
  0
VERTEX
  8
LAYER_1
 62
7
 10
-38.938017
 20
17.104346
 42
-0.100907
  0
VERTEX
  8
LAYER_1
 62
7
 10
-38.931086
 20
17.107503
 42
-0.061486
  0
VERTEX
  8
LAYER_1
 62
7
 10
-38.921380
 20
17.108555
  0
VERTEX
  8
LAYER_1
 62
7
 10
-38.869815
 20
17.108555
  0
VERTEX
  8
LAYER_1
 62
7
 10
-38.869815
 20
17.146889
  0
VERTEX
  8
LAYER_1
 62
7
 10
-38.941617
 20
17.146889
 42
0.197086
  0
VERTEX
  8
LAYER_1
 62
7
 10
-38.973585
 20
17.134704
 42
0.224273
  0
VERTEX
  8
LAYER_1
 62
7
 10
-38.986637
 20
17.106239
  0
VERTEX
  8
LAYER_1
 62
7
 10
-38.986637
 20
17.073124
 42
0.224386
  0
VERTEX
  8
LAYER_1
 62
7
 10
-38.973585
 20
17.044677
  0
VERTEX
  8
LAYER_1
 62
7
 10
-38.972284
 20
17.043519
  0
SEQEND
  0
POLYLINE
  8
LAYER_1
 62
7
 70
1
 66
1
  0
VERTEX
  8
LAYER_1
 62
7
 10
-39.139369
 20
18.804484
 42
0.234435
  0
VERTEX
  8
LAYER_1
 62
7
 10
-39.119792
 20
18.763834
 42
0.179917
  0
VERTEX
  8
LAYER_1
 62
7
 10
-39.071490
 20
18.747571
 42
0.085190
  0
VERTEX
  8
LAYER_1
 62
7
 10
-39.045387
 20
18.751935
 42
0.093696
  0
VERTEX
  8
LAYER_1
 62
7
 10
-39.023849
 20
18.764119
 42
0.097391
  0
VERTEX
  8
LAYER_1
 62
7
 10
-39.009496
 20
18.782128
 42
0.120765
  0
VERTEX
  8
LAYER_1
 62
7
 10
-39.004272
 20
18.804484
 42
0.121039
  0
VERTEX
  8
LAYER_1
 62
7
 10
-39.009496
 20
18.826269
 42
0.098111
  0
VERTEX
  8
LAYER_1
 62
7
 10
-39.023849
 20
18.844278
 42
0.094146
  0
VERTEX
  8
LAYER_1
 62
7
 10
-39.045387
 20
18.856480
 42
0.085192
  0
VERTEX
  8
LAYER_1
 62
7
 10
-39.071490
 20
18.860827
 42
0.085089
  0
VERTEX
  8
LAYER_1
 62
7
 10
-39.098253
 20
18.856480
 42
0.094146
  0
VERTEX
  8
LAYER_1
 62
7
 10
-39.119792
 20
18.844278
 42
0.098111
  0
VERTEX
  8
LAYER_1
 62
7
 10
-39.134144
 20
18.826269
 42
0.121039
  0
VERTEX
  8
LAYER_1
 62
7
 10
-39.139369
 20
18.804484
  0
SEQEND
  0
POLYLINE
  8
LAYER_1
 62
7
 70
1
 66
1
  0
VERTEX
  8
LAYER_1
 62
7
 10
-39.749598
 20
19.273136
  0
VERTEX
  8
LAYER_1
 62
7
 10
-39.749598
 20
19.257295
  0
VERTEX
  8
LAYER_1
 62
7
 10
-39.749598
 20
19.223205
 42
0.206739
  0
VERTEX
  8
LAYER_1
 62
7
 10
-39.708483
 20
19.132020
 42
0.222084
  0
VERTEX
  8
LAYER_1
 62
7
 10
-39.749598
 20
19.042010
  0
VERTEX
  8
LAYER_1
 62
7
 10
-39.749598
 20
19.003088
 42
0.225004
  0
VERTEX
  8
LAYER_1
 62
7
 10
-39.703278
 20
18.907841
  0
VERTEX
  8
LAYER_1
 62
7
 10
-39.692829
 20
18.899718
  0
VERTEX
  8
LAYER_1
 62
7
 10
-39.681739
 20
18.892166
  0
VERTEX
  8
LAYER_1
 62
7
 10
-39.692829
 20
18.885201
  0
VERTEX
  8
LAYER_1
 62
7
 10
-39.703278
 20
18.877060
 42
0.219420
  0
VERTEX
  8
LAYER_1
 62
7
 10
-39.749598
 20
18.781813
  0
VERTEX
  8
LAYER_1
 62
7
 10
-39.749598
 20
18.742891
 42
0.223840
  0
VERTEX
  8
LAYER_1
 62
7
 10
-39.703919
 20
18.647057
 42
0.192089
  0
VERTEX
  8
LAYER_1
 62
7
 10
-39.594284
 20
18.606977
  0
VERTEX
  8
LAYER_1
 62
7
 10
-39.223562
 20
18.606977
  0
VERTEX
  8
LAYER_1
 62
7
 10
-39.223562
 20
18.737084
  0
VERTEX
  8
LAYER_1
 62
7
 10
-39.582533
 20
18.737084
 42
-0.054402
  0
VERTEX
  8
LAYER_1
 62
7
 10
-39.611378
 20
18.739843
 42
-0.092637
  0
VERTEX
  8
LAYER_1
 62
7
 10
-39.631976
 20
18.748120
 42
-0.266228
  0
VERTEX
  8
LAYER_1
 62
7
 10
-39.648451
 20
18.781225
 42
-0.264147
  0
VERTEX
  8
LAYER_1
 62
7
 10
-39.631976
 20
18.814772
 42
-0.093512
  0
VERTEX
  8
LAYER_1
 62
7
 10
-39.611378
 20
18.823159
 42
-0.055113
  0
VERTEX
  8
LAYER_1
 62
7
 10
-39.582533
 20
18.825954
  0
VERTEX
  8
LAYER_1
 62
7
 10
-39.223562
 20
18.825954
  0
VERTEX
  8
LAYER_1
 62
7
 10
-39.223562
 20
18.956044
  0
VERTEX
  8
LAYER_1
 62
7
 10
-39.584475
 20
18.956044
 42
-0.056022
  0
VERTEX
  8
LAYER_1
 62
7
 10
-39.612467
 20
18.958802
 42
-0.094604
  0
VERTEX
  8
LAYER_1
 62
7
 10
-39.632459
 20
18.967079
 42
-0.261521
  0
VERTEX
  8
LAYER_1
 62
7
 10
-39.648451
 20
19.000185
 42
-0.264147
  0
VERTEX
  8
LAYER_1
 62
7
 10
-39.631976
 20
19.033731
 42
-0.093512
  0
VERTEX
  8
LAYER_1
 62
7
 10
-39.611378
 20
19.042118
 42
-0.055113
  0
VERTEX
  8
LAYER_1
 62
7
 10
-39.582533
 20
19.044913
  0
VERTEX
  8
LAYER_1
 62
7
 10
-39.223562
 20
19.044913
  0
VERTEX
  8
LAYER_1
 62
7
 10
-39.223562
 20
19.175003
  0
VERTEX
  8
LAYER_1
 62
7
 10
-39.583835
 20
19.175003
 42
-0.068571
  0
VERTEX
  8
LAYER_1
 62
7
 10
-39.614841
 20
19.178635
 42
-0.129387
  0
VERTEX
  8
LAYER_1
 62
7
 10
-39.634739
 20
19.189521
 42
-0.188141
  0
VERTEX
  8
LAYER_1
 62
7
 10
-39.648451
 20
19.233662
  0
VERTEX
  8
LAYER_1
 62
7
 10
-39.648451
 20
19.257295
  0
VERTEX
  8
LAYER_1
 62
7
 10
-39.648451
 20
19.268909
 42
-0.189080
  0
VERTEX
  8
LAYER_1
 62
7
 10
-39.634739
 20
19.312463
 42
-0.129707
  0
VERTEX
  8
LAYER_1
 62
7
 10
-39.614841
 20
19.323355
 42
-0.068502
  0
VERTEX
  8
LAYER_1
 62
7
 10
-39.583835
 20
19.326980
  0
VERTEX
  8
LAYER_1
 62
7
 10
-38.869815
 20
19.326980
  0
VERTEX
  8
LAYER_1
 62
7
 10
-38.869815
 20
19.457088
  0
VERTEX
  8
LAYER_1
 62
7
 10
-39.595585
 20
19.457088
 42
0.186097
  0
VERTEX
  8
LAYER_1
 62
7
 10
-39.703278
 20
19.417596
 42
0.219420
  0
VERTEX
  8
LAYER_1
 62
7
 10
-39.749598
 20
19.322349
  0
VERTEX
  8
LAYER_1
 62
7
 10
-39.749598
 20
19.273136
  0
SEQEND
  0
POLYLINE
  8
LAYER_1
 62
7
 70
1
 66
1
  0
VERTEX
  8
LAYER_1
 62
7
 10
-38.936393
 20
18.833489
 42
0.085190
  0
VERTEX
  8
LAYER_1
 62
7
 10
-38.910290
 20
18.837853
 42
0.094146
  0
VERTEX
  8
LAYER_1
 62
7
 10
-38.888752
 20
18.850055
 42
0.100386
  0
VERTEX
  8
LAYER_1
 62
7
 10
-38.874379
 20
18.868349
 42
0.117779
  0
VERTEX
  8
LAYER_1
 62
7
 10
-38.869155
 20
18.890420
 42
0.118050
  0
VERTEX
  8
LAYER_1
 62
7
 10
-38.874379
 20
18.912490
 42
0.105991
  0
VERTEX
  8
LAYER_1
 62
7
 10
-38.888752
 20
18.930500
 42
0.088775
  0
VERTEX
  8
LAYER_1
 62
7
 10
-38.910290
 20
18.942399
 42
0.085192
  0
VERTEX
  8
LAYER_1
 62
7
 10
-38.936393
 20
18.946745
 42
0.180068
  0
VERTEX
  8
LAYER_1
 62
7
 10
-38.984695
 20
18.930482
 42
0.234554
  0
VERTEX
  8
LAYER_1
 62
7
 10
-39.004272
 20
18.890420
 42
0.231652
  0
VERTEX
  8
LAYER_1
 62
7
 10
-38.984695
 20
18.850055
 42
0.182614
  0
VERTEX
  8
LAYER_1
 62
7
 10
-38.936393
 20
18.833489
  0
SEQEND
  0
POLYLINE
  8
LAYER_1
 62
7
 70
1
 66
1
  0
VERTEX
  8
LAYER_1
 62
7
 10
-39.071490
 20
19.032681
 42
0.085089
  0
VERTEX
  8
LAYER_1
 62
7
 10
-39.098253
 20
19.028335
 42
0.089234
  0
VERTEX
  8
LAYER_1
 62
7
 10
-39.119792
 20
19.016418
 42
0.102700
  0
VERTEX
  8
LAYER_1
 62
7
 10
-39.134144
 20
18.998712
 42
0.121039
  0
VERTEX
  8
LAYER_1
 62
7
 10
-39.139369
 20
18.976926
 42
0.120760
  0
VERTEX
  8
LAYER_1
 62
7
 10
-39.134144
 20
18.955141
 42
0.097391
  0
VERTEX
  8
LAYER_1
 62
7
 10
-39.119792
 20
18.937132
 42
0.093696
  0
VERTEX
  8
LAYER_1
 62
7
 10
-39.098253
 20
18.924947
 42
0.085095
  0
VERTEX
  8
LAYER_1
 62
7
 10
-39.071490
 20
18.920583
 42
0.085190
  0
VERTEX
  8
LAYER_1
 62
7
 10
-39.045387
 20
18.924947
 42
0.093696
  0
VERTEX
  8
LAYER_1
 62
7
 10
-39.023849
 20
18.937132
 42
0.097391
  0
VERTEX
  8
LAYER_1
 62
7
 10
-39.009496
 20
18.955141
 42
0.120760
  0
VERTEX
  8
LAYER_1
 62
7
 10
-39.004272
 20
18.976926
 42
0.121039
  0
VERTEX
  8
LAYER_1
 62
7
 10
-39.009496
 20
18.998712
 42
0.102700
  0
VERTEX
  8
LAYER_1
 62
7
 10
-39.023849
 20
19.016418
 42
0.089234
  0
VERTEX
  8
LAYER_1
 62
7
 10
-39.045387
 20
19.028335
 42
0.085192
  0
VERTEX
  8
LAYER_1
 62
7
 10
-39.071490
 20
19.032681
  0
SEQEND
  0
POLYLINE
  8
LAYER_1
 62
7
 70
1
 66
1
  0
VERTEX
  8
LAYER_1
 62
7
 10
-39.499680
 20
20.961227
  0
VERTEX
  8
LAYER_1
 62
7
 10
-39.499680
 20
21.091316
  0
VERTEX
  8
LAYER_1
 62
7
 10
-39.584475
 20
21.091316
 42
-0.058924
  0
VERTEX
  8
LAYER_1
 62
7
 10
-39.612467
 20
21.094221
 42
-0.097977
  0
VERTEX
  8
LAYER_1
 62
7
 10
-39.632459
 20
21.102935
 42
-0.253328
  0
VERTEX
  8
LAYER_1
 62
7
 10
-39.648451
 20
21.137773
 42
-0.247996
  0
VERTEX
  8
LAYER_1
 62
7
 10
-39.632790
 20
21.173059
 42
-0.100183
  0
VERTEX
  8
LAYER_1
 62
7
 10
-39.613210
 20
21.181878
 42
-0.060836
  0
VERTEX
  8
LAYER_1
 62
7
 10
-39.585796
 20
21.184817
  0
VERTEX
  8
LAYER_1
 62
7
 10
-39.499680
 20
21.184817
  0
VERTEX
  8
LAYER_1
 62
7
 10
-39.499680
 20
21.314925
  0
VERTEX
  8
LAYER_1
 62
7
 10
-39.595585
 20
21.314925
 42
0.182095
  0
VERTEX
  8
LAYER_1
 62
7
 10
-39.705220
 20
21.276003
 42
0.224315
  0
VERTEX
  8
LAYER_1
 62
7
 10
-39.749598
 20
21.179010
  0
VERTEX
  8
LAYER_1
 62
7
 10
-39.749598
 20
21.098869
 42
0.205506
  0
VERTEX
  8
LAYER_1
 62
7
 10
-39.710444
 20
21.008271
 42
0.202598
  0
VERTEX
  8
LAYER_1
 62
7
 10
-39.749598
 20
20.918814
  0
VERTEX
  8
LAYER_1
 62
7
 10
-39.749598
 20
20.843322
 42
0.209906
  0
VERTEX
  8
LAYER_1
 62
7
 10
-39.708483
 20
20.753294
 42
0.209962
  0
VERTEX
  8
LAYER_1
 62
7
 10
-39.749598
 20
20.663266
  0
VERTEX
  8
LAYER_1
 62
7
 10
-39.749598
 20
20.587186
 42
0.219366
  0
VERTEX
  8
LAYER_1
 62
7
 10
-39.703278
 20
20.491939
 42
0.186097
  0
VERTEX
  8
LAYER_1
 62
7
 10
-39.595585
 20
20.452448
  0
VERTEX
  8
LAYER_1
 62
7
 10
-38.869815
 20
20.452448
  0
VERTEX
  8
LAYER_1
 62
7
 10
-38.869815
 20
20.582537
  0
VERTEX
  8
LAYER_1
 62
7
 10
-39.583835
 20
20.582537
 42
-0.068571
  0
VERTEX
  8
LAYER_1
 62
7
 10
-39.614841
 20
20.586169
 42
-0.129387
  0
VERTEX
  8
LAYER_1
 62
7
 10
-39.634739
 20
20.597055
 42
-0.116791
  0
VERTEX
  8
LAYER_1
 62
7
 10
-39.645025
 20
20.616814
 42
-0.067849
  0
VERTEX
  8
LAYER_1
 62
7
 10
-39.648451
 20
20.645845
 42
-0.069395
  0
VERTEX
  8
LAYER_1
 62
7
 10
-39.645025
 20
20.674317
 42
-0.120550
  0
VERTEX
  8
LAYER_1
 62
7
 10
-39.634739
 20
20.693477
 42
-0.135590
  0
VERTEX
  8
LAYER_1
 62
7
 10
-39.615164
 20
20.704370
 42
-0.068328
  0
VERTEX
  8
LAYER_1
 62
7
 10
-39.583835
 20
20.707995
  0
VERTEX
  8
LAYER_1
 62
7
 10
-39.057778
 20
20.707995
  0
VERTEX
  8
LAYER_1
 62
7
 10
-39.057778
 20
20.838084
  0
VERTEX
  8
LAYER_1
 62
7
 10
-39.583835
 20
20.838084
 42
-0.068397
  0
VERTEX
  8
LAYER_1
 62
7
 10
-39.615164
 20
20.841716
 42
-0.135267
  0
VERTEX
  8
LAYER_1
 62
7
 10
-39.634739
 20
20.852602
 42
-0.115346
  0
VERTEX
  8
LAYER_1
 62
7
 10
-39.645025
 20
20.872070
 42
-0.069534
  0
VERTEX
  8
LAYER_1
 62
7
 10
-39.648451
 20
20.900235
 42
-0.071180
  0
VERTEX
  8
LAYER_1
 62
7
 10
-39.645025
 20
20.927825
 42
-0.119010
  0
VERTEX
  8
LAYER_1
 62
7
 10
-39.634739
 20
20.946691
 42
-0.138604
  0
VERTEX
  8
LAYER_1
 62
7
 10
-39.619726
 20
20.956578
 42
-0.062524
  0
VERTEX
  8
LAYER_1
 62
7
 10
-39.596886
 20
20.961227
  0
VERTEX
  8
LAYER_1
 62
7
 10
-39.499680
 20
20.961227
  0
SEQEND
  0
POLYLINE
  8
LAYER_1
 62
7
 70
1
 66
1
  0
VERTEX
  8
LAYER_1
 62
7
 10
-39.440536
 20
21.314925
  0
VERTEX
  8
LAYER_1
 62
7
 10
-39.440536
 20
21.184817
  0
VERTEX
  8
LAYER_1
 62
7
 10
-39.388685
 20
21.184817
 42
-0.058173
  0
VERTEX
  8
LAYER_1
 62
7
 10
-39.360705
 20
21.181951
 42
-0.097152
  0
VERTEX
  8
LAYER_1
 62
7
 10
-39.340719
 20
21.173352
 42
-0.255382
  0
VERTEX
  8
LAYER_1
 62
7
 10
-39.324730
 20
21.138949
  0
VERTEX
  8
LAYER_1
 62
7
 10
-39.324730
 20
21.091316
  0
VERTEX
  8
LAYER_1
 62
7
 10
-39.440536
 20
21.091316
  0
VERTEX
  8
LAYER_1
 62
7
 10
-39.440536
 20
20.961227
  0
VERTEX
  8
LAYER_1
 62
7
 10
-39.223562
 20
20.961227
  0
VERTEX
  8
LAYER_1
 62
7
 10
-39.223562
 20
21.177852
 42
0.223864
  0
VERTEX
  8
LAYER_1
 62
7
 10
-39.269242
 20
21.274275
 42
0.186245
  0
VERTEX
  8
LAYER_1
 62
7
 10
-39.377596
 20
21.314925
  0
VERTEX
  8
LAYER_1
 62
7
 10
-39.440536
 20
21.314925
  0
SEQEND
  0
POLYLINE
  8
LAYER_1
 62
7
 70
1
 66
1
  0
VERTEX
  8
LAYER_1
 62
7
 10
-38.972284
 20
20.773049
  0
VERTEX
  8
LAYER_1
 62
7
 10
-38.973585
 20
20.771873
 42
0.217286
  0
VERTEX
  8
LAYER_1
 62
7
 10
-38.986637
 20
20.742838
  0
VERTEX
  8
LAYER_1
 62
7
 10
-38.986637
 20
20.709741
 42
0.224273
  0
VERTEX
  8
LAYER_1
 62
7
 10
-38.973585
 20
20.681275
 42
0.197057
  0
VERTEX
  8
LAYER_1
 62
7
 10
-38.941617
 20
20.669073
  0
VERTEX
  8
LAYER_1
 62
7
 10
-38.869815
 20
20.669073
  0
VERTEX
  8
LAYER_1
 62
7
 10
-38.869815
 20
20.707407
  0
VERTEX
  8
LAYER_1
 62
7
 10
-38.921380
 20
20.707407
 42
-0.063577
  0
VERTEX
  8
LAYER_1
 62
7
 10
-38.931086
 20
20.708496
 42
-0.103142
  0
VERTEX
  8
LAYER_1
 62
7
 10
-38.938017
 20
20.711762
 42
-0.240666
  0
VERTEX
  8
LAYER_1
 62
7
 10
-38.943559
 20
20.724828
  0
VERTEX
  8
LAYER_1
 62
7
 10
-38.943559
 20
20.739934
 42
-0.225616
  0
VERTEX
  8
LAYER_1
 62
7
 10
-38.938510
 20
20.753000
 42
-0.179285
  0
VERTEX
  8
LAYER_1
 62
7
 10
-38.923342
 20
20.757355
  0
VERTEX
  8
LAYER_1
 62
7
 10
-38.877642
 20
20.757355
  0
VERTEX
  8
LAYER_1
 62
7
 10
-38.877642
 20
20.788724
  0
VERTEX
  8
LAYER_1
 62
7
 10
-38.923342
 20
20.788724
 42
-0.174246
  0
VERTEX
  8
LAYER_1
 62
7
 10
-38.938510
 20
20.792933
 42
-0.231174
  0
VERTEX
  8
LAYER_1
 62
7
 10
-38.943559
 20
20.805558
  0
VERTEX
  8
LAYER_1
 62
7
 10
-38.943559
 20
20.821251
 42
-0.246222
  0
VERTEX
  8
LAYER_1
 62
7
 10
-38.938017
 20
20.833876
 42
-0.100907
  0
VERTEX
  8
LAYER_1
 62
7
 10
-38.931086
 20
20.837032
 42
-0.061486
  0
VERTEX
  8
LAYER_1
 62
7
 10
-38.921380
 20
20.838084
  0
VERTEX
  8
LAYER_1
 62
7
 10
-38.869815
 20
20.838084
  0
VERTEX
  8
LAYER_1
 62
7
 10
-38.869815
 20
20.876418
  0
VERTEX
  8
LAYER_1
 62
7
 10
-38.941617
 20
20.876418
 42
0.197086
  0
VERTEX
  8
LAYER_1
 62
7
 10
-38.973585
 20
20.864234
 42
0.224273
  0
VERTEX
  8
LAYER_1
 62
7
 10
-38.986637
 20
20.835769
  0
VERTEX
  8
LAYER_1
 62
7
 10
-38.986637
 20
20.802654
 42
0.224386
  0
VERTEX
  8
LAYER_1
 62
7
 10
-38.973585
 20
20.774206
  0
VERTEX
  8
LAYER_1
 62
7
 10
-38.972284
 20
20.773049
  0
SEQEND
  0
POLYLINE
  8
LAYER_1
 62
7
 70
1
 66
1
  0
VERTEX
  8
LAYER_1
 62
7
 10
-39.904913
 20
14.914275
 42
0.085192
  0
VERTEX
  8
LAYER_1
 62
7
 10
-39.931016
 20
14.909929
 42
0.094146
  0
VERTEX
  8
LAYER_1
 62
7
 10
-39.952554
 20
14.897727
 42
0.101095
  0
VERTEX
  8
LAYER_1
 62
7
 10
-39.966927
 20
14.879433
 42
0.118050
  0
VERTEX
  8
LAYER_1
 62
7
 10
-39.972151
 20
14.857362
 42
0.117779
  0
VERTEX
  8
LAYER_1
 62
7
 10
-39.966927
 20
14.835292
 42
0.105269
  0
VERTEX
  8
LAYER_1
 62
7
 10
-39.952554
 20
14.817283
 42
0.088775
  0
VERTEX
  8
LAYER_1
 62
7
 10
-39.931016
 20
14.805383
 42
0.085190
  0
VERTEX
  8
LAYER_1
 62
7
 10
-39.904913
 20
14.801019
 42
0.179672
  0
VERTEX
  8
LAYER_1
 62
7
 10
-39.855971
 20
14.817283
 42
0.234344
  0
VERTEX
  8
LAYER_1
 62
7
 10
-39.836394
 20
14.857362
 42
0.231907
  0
VERTEX
  8
LAYER_1
 62
7
 10
-39.855971
 20
14.897727
 42
0.182482
  0
VERTEX
  8
LAYER_1
 62
7
 10
-39.904913
 20
14.914275
  0
SEQEND
  0
POLYLINE
  8
LAYER_1
 62
7
 70
1
 66
1
  0
VERTEX
  8
LAYER_1
 62
7
 10
-38.869815
 20
16.611986
  0
VERTEX
  8
LAYER_1
 62
7
 10
-39.749598
 20
16.611986
  0
VERTEX
  8
LAYER_1
 62
7
 10
-39.749598
 20
16.481879
  0
VERTEX
  8
LAYER_1
 62
7
 10
-38.869815
 20
16.481879
  0
VERTEX
  8
LAYER_1
 62
7
 10
-38.869815
 20
16.611986
  0
SEQEND
  0
POLYLINE
  8
LAYER_1
 62
7
 70
1
 66
1
  0
VERTEX
  8
LAYER_1
 62
7
 10
-39.376935
 20
19.570852
  0
VERTEX
  8
LAYER_1
 62
7
 10
-39.265979
 20
19.570852
  0
VERTEX
  8
LAYER_1
 62
7
 10
-39.265979
 20
19.693976
 42
0.075900
  0
VERTEX
  8
LAYER_1
 62
7
 10
-39.275770
 20
19.766651
 42
0.114432
  0
VERTEX
  8
LAYER_1
 62
7
 10
-39.305143
 20
19.818559
 42
0.120832
  0
VERTEX
  8
LAYER_1
 62
7
 10
-39.354092
 20
19.849703
 42
0.084914
  0
VERTEX
  8
LAYER_1
 62
7
 10
-39.422615
 20
19.860084
 42
0.117028
  0
VERTEX
  8
LAYER_1
 62
7
 10
-39.542719
 20
19.827557
  0
VERTEX
  8
LAYER_1
 62
7
 10
-39.542719
 20
19.903067
  0
VERTEX
  8
LAYER_1
 62
7
 10
-39.648451
 20
19.903067
  0
VERTEX
  8
LAYER_1
 62
7
 10
-39.648451
 20
19.570852
  0
VERTEX
  8
LAYER_1
 62
7
 10
-39.542719
 20
19.570852
  0
VERTEX
  8
LAYER_1
 62
7
 10
-39.542719
 20
19.715477
 42
-0.075032
  0
VERTEX
  8
LAYER_1
 62
7
 10
-39.479079
 20
19.753808
 42
-0.126833
  0
VERTEX
  8
LAYER_1
 62
7
 10
-39.422615
 20
19.761933
 42
-0.265615
  0
VERTEX
  8
LAYER_1
 62
7
 10
-39.388357
 20
19.744949
 42
-0.092882
  0
VERTEX
  8
LAYER_1
 62
7
 10
-39.379791
 20
19.723712
 42
-0.054620
  0
VERTEX
  8
LAYER_1
 62
7
 10
-39.376935
 20
19.693976
  0
VERTEX
  8
LAYER_1
 62
7
 10
-39.376935
 20
19.570852
  0
SEQEND
  0
POLYLINE
  8
LAYER_1
 62
7
 70
1
 66
1
  0
VERTEX
  8
LAYER_1
 62
7
 10
-38.869815
 20
20.341516
  0
VERTEX
  8
LAYER_1
 62
7
 10
-39.749598
 20
20.341516
  0
VERTEX
  8
LAYER_1
 62
7
 10
-39.749598
 20
20.211409
  0
VERTEX
  8
LAYER_1
 62
7
 10
-38.869815
 20
20.211409
  0
VERTEX
  8
LAYER_1
 62
7
 10
-38.869815
 20
20.341516
  0
SEQEND
  0
POLYLINE
  8
LAYER_1
 62
7
 70
1
 66
1
  0
VERTEX
  8
LAYER_1
 62
7
 10
-36.945238
 20
14.636948
  0
VERTEX
  8
LAYER_1
 62
7
 10
-36.339233
 20
15.440862
 42
-0.159827
  0
VERTEX
  8
LAYER_1
 62
7
 10
-36.241290
 20
15.183118
 42
-0.168522
  0
VERTEX
  8
LAYER_1
 62
7
 10
-36.350841
 20
14.857003
  0
VERTEX
  8
LAYER_1
 62
7
 10
-36.659613
 20
14.450424
  0
VERTEX
  8
LAYER_1
 62
7
 10
-36.564634
 20
14.349295
  0
VERTEX
  8
LAYER_1
 62
7
 10
-35.748874
 20
15.422314
 42
0.027692
  0
VERTEX
  8
LAYER_1
 62
7
 10
-35.532775
 20
14.997297
 42
0.013499
  0
VERTEX
  8
LAYER_1
 62
7
 10
-35.402613
 20
14.781616
 42
0.030086
  0
VERTEX
  8
LAYER_1
 62
7
 10
-35.291248
 20
14.625765
  0
VERTEX
  8
LAYER_1
 62
7
 10
-35.880471
 20
13.815355
 42
-0.158788
  0
VERTEX
  8
LAYER_1
 62
7
 10
-35.976671
 20
14.012613
 42
-0.078873
  0
VERTEX
  8
LAYER_1
 62
7
 10
-35.977830
 20
14.233219
  0
VERTEX
  8
LAYER_1
 62
7
 10
-35.967555
 20
14.285547
 42
-0.068022
  0
VERTEX
  8
LAYER_1
 62
7
 10
-35.951826
 20
14.332384
  0
VERTEX
  8
LAYER_1
 62
7
 10
-35.599847
 20
14.798258
  0
VERTEX
  8
LAYER_1
 62
7
 10
-35.683319
 20
14.920850
  0
VERTEX
  8
LAYER_1
 62
7
 10
-36.478965
 20
13.872494
 42
0.020435
  0
VERTEX
  8
LAYER_1
 62
7
 10
-36.523686
 20
13.966198
 42
0.029073
  0
VERTEX
  8
LAYER_1
 62
7
 10
-36.829456
 20
14.480812
 42
0.027240
  0
VERTEX
  8
LAYER_1
 62
7
 10
-36.945238
 20
14.636948
  0
SEQEND
  0
POLYLINE
  8
LAYER_1
 62
7
 70
1
 66
1
  0
VERTEX
  8
LAYER_1
 62
7
 10
-36.383736
 20
16.913786
  0
VERTEX
  8
LAYER_1
 62
7
 10
-35.640599
 20
16.913786
  0
VERTEX
  8
LAYER_1
 62
7
 10
-35.640599
 20
17.152633
  0
VERTEX
  8
LAYER_1
 62
7
 10
-36.383736
 20
17.152633
  0
VERTEX
  8
LAYER_1
 62
7
 10
-36.383736
 20
16.913786
  0
SEQEND
  0
POLYLINE
  8
LAYER_1
 62
7
 70
1
 66
1
  0
VERTEX
  8
LAYER_1
 62
7
 10
-35.640599
 20
20.092805
  0
VERTEX
  8
LAYER_1
 62
7
 10
-35.640599
 20
19.343344
  0
VERTEX
  8
LAYER_1
 62
7
 10
-35.802387
 20
19.343344
  0
VERTEX
  8
LAYER_1
 62
7
 10
-36.189034
 20
19.694309
  0
VERTEX
  8
LAYER_1
 62
7
 10
-36.189034
 20
19.343344
  0
VERTEX
  8
LAYER_1
 62
7
 10
-36.383736
 20
19.343344
  0
VERTEX
  8
LAYER_1
 62
7
 10
-36.383736
 20
20.092805
  0
VERTEX
  8
LAYER_1
 62
7
 10
-36.221940
 20
20.092805
  0
VERTEX
  8
LAYER_1
 62
7
 10
-35.835293
 20
19.743054
  0
VERTEX
  8
LAYER_1
 62
7
 10
-35.835293
 20
20.092805
  0
VERTEX
  8
LAYER_1
 62
7
 10
-35.640599
 20
20.092805
  0
SEQEND
  0
POLYLINE
  8
LAYER_1
 62
7
 70
1
 66
1
  0
VERTEX
  8
LAYER_1
 62
7
 10
-35.640599
 20
18.171858
  0
VERTEX
  8
LAYER_1
 62
7
 10
-35.640599
 20
17.934231
  0
VERTEX
  8
LAYER_1
 62
7
 10
-35.890137
 20
17.934231
  0
VERTEX
  8
LAYER_1
 62
7
 10
-35.640599
 20
17.694156
  0
VERTEX
  8
LAYER_1
 62
7
 10
-35.640599
 20
17.373664
  0
VERTEX
  8
LAYER_1
 62
7
 10
-35.994340
 20
17.711216
  0
VERTEX
  8
LAYER_1
 62
7
 10
-36.383736
 20
17.373664
  0
VERTEX
  8
LAYER_1
 62
7
 10
-36.383736
 20
17.694156
  0
VERTEX
  8
LAYER_1
 62
7
 10
-36.139674
 20
17.933003
  0
VERTEX
  8
LAYER_1
 62
7
 10
-36.383736
 20
17.933003
  0
VERTEX
  8
LAYER_1
 62
7
 10
-36.383736
 20
18.171858
  0
VERTEX
  8
LAYER_1
 62
7
 10
-35.640599
 20
18.171858
  0
SEQEND
  0
POLYLINE
  8
LAYER_1
 62
7
 70
1
 66
1
  0
VERTEX
  8
LAYER_1
 62
7
 10
-36.160256
 20
22.026988
  0
VERTEX
  8
LAYER_1
 62
7
 10
-36.160256
 20
21.738802
 42
0.124743
  0
VERTEX
  8
LAYER_1
 62
7
 10
-36.191167
 20
21.723221
 42
0.157077
  0
VERTEX
  8
LAYER_1
 62
7
 10
-36.232287
 20
21.644766
 42
0.073427
  0
VERTEX
  8
LAYER_1
 62
7
 10
-36.234976
 20
21.599216
 42
0.111850
  0
VERTEX
  8
LAYER_1
 62
7
 10
-36.223089
 20
21.560481
  0
VERTEX
  8
LAYER_1
 62
7
 10
-36.218620
 20
21.554374
 42
0.187670
  0
VERTEX
  8
LAYER_1
 62
7
 10
-36.176448
 20
21.532032
 42
0.179618
  0
VERTEX
  8
LAYER_1
 62
7
 10
-36.128853
 20
21.542738
 42
0.107509
  0
VERTEX
  8
LAYER_1
 62
7
 10
-36.113129
 20
21.561492
 42
0.058253
  0
VERTEX
  8
LAYER_1
 62
7
 10
-36.103511
 20
21.585954
 42
0.045775
  0
VERTEX
  8
LAYER_1
 62
7
 10
-36.095993
 20
21.632781
  0
VERTEX
  8
LAYER_1
 62
7
 10
-36.084823
 20
21.755096
  0
VERTEX
  8
LAYER_1
 62
7
 10
-36.078450
 20
21.829138
 42
-0.052781
  0
VERTEX
  8
LAYER_1
 62
7
 10
-36.060011
 20
21.909783
 42
-0.106388
  0
VERTEX
  8
LAYER_1
 62
7
 10
-36.018852
 20
21.979252
 42
-0.152787
  0
VERTEX
  8
LAYER_1
 62
7
 10
-35.944319
 20
22.019764
 42
-0.080218
  0
VERTEX
  8
LAYER_1
 62
7
 10
-35.830460
 20
22.027715
 42
-0.175972
  0
VERTEX
  8
LAYER_1
 62
7
 10
-35.731132
 20
21.982070
 42
-0.118481
  0
VERTEX
  8
LAYER_1
 62
7
 10
-35.654464
 20
21.848367
 42
-0.076358
  0
VERTEX
  8
LAYER_1
 62
7
 10
-35.633758
 20
21.699357
  0
VERTEX
  8
LAYER_1
 62
7
 10
-35.633740
 20
21.604762
 42
-0.129303
  0
VERTEX
  8
LAYER_1
 62
7
 10
-35.677795
 20
21.404477
 42
-0.271908
  0
VERTEX
  8
LAYER_1
 62
7
 10
-35.854478
 20
21.292568
  0
VERTEX
  8
LAYER_1
 62
7
 10
-35.854478
 20
21.534452
 42
0.122560
  0
VERTEX
  8
LAYER_1
 62
7
 10
-35.819103
 20
21.564007
  0
VERTEX
  8
LAYER_1
 62
7
 10
-35.797216
 20
21.597936
 42
0.239849
  0
VERTEX
  8
LAYER_1
 62
7
 10
-35.786096
 20
21.727069
  0
VERTEX
  8
LAYER_1
 62
7
 10
-35.786020
 20
21.726894
 42
0.289184
  0
VERTEX
  8
LAYER_1
 62
7
 10
-35.839792
 20
21.760208
 42
0.223324
  0
VERTEX
  8
LAYER_1
 62
7
 10
-35.879519
 20
21.740359
 42
0.117014
  0
VERTEX
  8
LAYER_1
 62
7
 10
-35.897803
 20
21.701463
 42
0.014457
  0
VERTEX
  8
LAYER_1
 62
7
 10
-35.924654
 20
21.514055
 42
-0.122567
  0
VERTEX
  8
LAYER_1
 62
7
 10
-35.990738
 20
21.336544
 42
-0.205509
  0
VERTEX
  8
LAYER_1
 62
7
 10
-36.115618
 20
21.269955
 42
-0.125679
  0
VERTEX
  8
LAYER_1
 62
7
 10
-36.263216
 20
21.289563
 42
-0.159143
  0
VERTEX
  8
LAYER_1
 62
7
 10
-36.347352
 20
21.362167
 42
-0.111586
  0
VERTEX
  8
LAYER_1
 62
7
 10
-36.381739
 20
21.463095
 42
-0.024722
  0
VERTEX
  8
LAYER_1
 62
7
 10
-36.389210
 20
21.701761
 42
-0.073318
  0
VERTEX
  8
LAYER_1
 62
7
 10
-36.366525
 20
21.874310
 42
-0.091020
  0
VERTEX
  8
LAYER_1
 62
7
 10
-36.325118
 20
21.954515
 42
-0.134004
  0
VERTEX
  8
LAYER_1
 62
7
 10
-36.251029
 20
22.009134
 42
-0.081266
  0
VERTEX
  8
LAYER_1
 62
7
 10
-36.160256
 20
22.026988
  0
SEQEND
  0
POLYLINE
  8
LAYER_1
 62
7
 70
1
 66
1
  0
VERTEX
  8
LAYER_1
 62
7
 10
-36.405728
 20
20.618632
 42
0.080460
  0
VERTEX
  8
LAYER_1
 62
7
 10
-36.381520
 20
20.443307
 42
0.121632
  0
VERTEX
  8
LAYER_1
 62
7
 10
-36.319006
 20
20.339268
 42
0.200597
  0
VERTEX
  8
LAYER_1
 62
7
 10
-36.139730
 20
20.277416
  0
VERTEX
  8
LAYER_1
 62
7
 10
-35.640654
 20
20.277416
  0
VERTEX
  8
LAYER_1
 62
7
 10
-35.640654
 20
20.516270
  0
VERTEX
  8
LAYER_1
 62
7
 10
-36.101339
 20
20.516270
  0
VERTEX
  8
LAYER_1
 62
7
 10
-36.127031
 20
20.516574
 42
-0.120974
  0
VERTEX
  8
LAYER_1
 62
7
 10
-36.160815
 20
20.527846
 42
-0.155385
  0
VERTEX
  8
LAYER_1
 62
7
 10
-36.190226
 20
20.565623
 42
-0.096392
  0
VERTEX
  8
LAYER_1
 62
7
 10
-36.202800
 20
20.645443
 42
-0.091392
  0
VERTEX
  8
LAYER_1
 62
7
 10
-36.190011
 20
20.730259
 42
-0.145386
  0
VERTEX
  8
LAYER_1
 62
7
 10
-36.160126
 20
20.771881
 42
-0.122585
  0
VERTEX
  8
LAYER_1
 62
7
 10
-36.125873
 20
20.785625
  0
VERTEX
  8
LAYER_1
 62
7
 10
-36.099979
 20
20.786803
  0
VERTEX
  8
LAYER_1
 62
7
 10
-35.640654
 20
20.786803
  0
VERTEX
  8
LAYER_1
 62
7
 10
-35.640654
 20
21.025651
  0
VERTEX
  8
LAYER_1
 62
7
 10
-36.139730
 20
21.025651
 42
0.056605
  0
VERTEX
  8
LAYER_1
 62
7
 10
-36.230463
 20
21.017102
 42
0.121165
  0
VERTEX
  8
LAYER_1
 62
7
 10
-36.316436
 20
20.975536
 42
0.135141
  0
VERTEX
  8
LAYER_1
 62
7
 10
-36.380556
 20
20.877079
 42
0.083934
  0
VERTEX
  8
LAYER_1
 62
7
 10
-36.405728
 20
20.697853
  0
VERTEX
  8
LAYER_1
 62
7
 10
-36.405728
 20
20.618632
  0
SEQEND
  0
POLYLINE
  8
LAYER_1
 62
7
 70
1
 66
1
  0
VERTEX
  8
LAYER_1
 62
7
 10
-36.405728
 20
18.769254
 42
0.080461
  0
VERTEX
  8
LAYER_1
 62
7
 10
-36.381520
 20
18.593932
 42
0.121632
  0
VERTEX
  8
LAYER_1
 62
7
 10
-36.319006
 20
18.489896
 42
0.200592
  0
VERTEX
  8
LAYER_1
 62
7
 10
-36.139730
 20
18.428043
  0
VERTEX
  8
LAYER_1
 62
7
 10
-35.640654
 20
18.428043
  0
VERTEX
  8
LAYER_1
 62
7
 10
-35.640654
 20
18.666891
  0
VERTEX
  8
LAYER_1
 62
7
 10
-36.101339
 20
18.666891
  0
VERTEX
  8
LAYER_1
 62
7
 10
-36.127031
 20
18.667196
 42
-0.120972
  0
VERTEX
  8
LAYER_1
 62
7
 10
-36.160815
 20
18.678468
 42
-0.155384
  0
VERTEX
  8
LAYER_1
 62
7
 10
-36.190226
 20
18.716245
 42
-0.096393
  0
VERTEX
  8
LAYER_1
 62
7
 10
-36.202800
 20
18.796063
 42
-0.091390
  0
VERTEX
  8
LAYER_1
 62
7
 10
-36.190011
 20
18.880883
 42
-0.145395
  0
VERTEX
  8
LAYER_1
 62
7
 10
-36.160126
 20
18.922505
 42
-0.122593
  0
VERTEX
  8
LAYER_1
 62
7
 10
-36.125873
 20
18.936246
  0
VERTEX
  8
LAYER_1
 62
7
 10
-36.099979
 20
18.937423
  0
VERTEX
  8
LAYER_1
 62
7
 10
-35.640654
 20
18.937423
  0
VERTEX
  8
LAYER_1
 62
7
 10
-35.640654
 20
19.176278
  0
VERTEX
  8
LAYER_1
 62
7
 10
-36.139730
 20
19.176278
 42
0.056605
  0
VERTEX
  8
LAYER_1
 62
7
 10
-36.230463
 20
19.167729
 42
0.121166
  0
VERTEX
  8
LAYER_1
 62
7
 10
-36.316436
 20
19.126163
 42
0.135141
  0
VERTEX
  8
LAYER_1
 62
7
 10
-36.380556
 20
19.027704
 42
0.083933
  0
VERTEX
  8
LAYER_1
 62
7
 10
-36.405728
 20
18.848475
  0
VERTEX
  8
LAYER_1
 62
7
 10
-36.405728
 20
18.769254
  0
SEQEND
  0
POLYLINE
  8
LAYER_1
 62
7
 70
1
 66
1
  0
VERTEX
  8
LAYER_1
 62
7
 10
-36.875842
 20
25.871631
  0
VERTEX
  8
LAYER_1
 62
7
 10
-43.344200
 20
25.871631
 42
0.209229
  0
VERTEX
  8
LAYER_1
 62
7
 10
-44.045863
 20
25.560285
 42
0.189969
  0
VERTEX
  8
LAYER_1
 62
7
 10
-44.336505
 20
24.808639
  0
VERTEX
  8
LAYER_1
 62
7
 10
-44.336505
 20
24.808639
 42
0.189969
  0
VERTEX
  8
LAYER_1
 62
7
 10
-44.045863
 20
24.056994
 42
0.209229
  0
VERTEX
  8
LAYER_1
 62
7
 10
-43.344200
 20
23.745647
  0
VERTEX
  8
LAYER_1
 62
7
 10
-36.875842
 20
23.745647
 42
0.209229
  0
VERTEX
  8
LAYER_1
 62
7
 10
-36.174179
 20
24.056994
 42
0.189969
  0
VERTEX
  8
LAYER_1
 62
7
 10
-35.883537
 20
24.808639
  0
VERTEX
  8
LAYER_1
 62
7
 10
-35.883537
 20
24.808639
 42
0.189969
  0
VERTEX
  8
LAYER_1
 62
7
 10
-36.174179
 20
25.560285
 42
0.209229
  0
VERTEX
  8
LAYER_1
 62
7
 10
-36.875842
 20
25.871631
  0
SEQEND
  0
POLYLINE
  8
LAYER_1
 62
7
 70
1
 66
1
  0
VERTEX
  8
LAYER_1
 62
7
 10
-39.324747
 20
24.755977
  0
VERTEX
  8
LAYER_1
 62
7
 10
-39.452387
 20
24.596003
  0
VERTEX
  8
LAYER_1
 62
7
 10
-38.857952
 20
24.596003
 42
-0.075711
  0
VERTEX
  8
LAYER_1
 62
7
 10
-38.850849
 20
24.594736
 42
-0.041627
  0
VERTEX
  8
LAYER_1
 62
7
 10
-38.841903
 20
24.590934
 42
-0.040528
  0
VERTEX
  8
LAYER_1
 62
7
 10
-38.818466
 20
24.575725
 42
-0.041613
  0
VERTEX
  8
LAYER_1
 62
7
 10
-38.797098
 20
24.557318
 42
-0.107027
  0
VERTEX
  8
LAYER_1
 62
7
 10
-38.787222
 20
24.542679
 42
-0.077670
  0
VERTEX
  8
LAYER_1
 62
7
 10
-38.772114
 20
24.472080
 42
-0.097700
  0
VERTEX
  8
LAYER_1
 62
7
 10
-38.778128
 20
24.430954
 42
-0.127687
  0
VERTEX
  8
LAYER_1
 62
7
 10
-38.785640
 20
24.420678
 42
-0.168342
  0
VERTEX
  8
LAYER_1
 62
7
 10
-38.796149
 20
24.417254
  0
VERTEX
  8
LAYER_1
 62
7
 10
-39.595008
 20
24.417254
  0
VERTEX
  8
LAYER_1
 62
7
 10
-39.722648
 20
24.257280
  0
VERTEX
  8
LAYER_1
 62
7
 10
-38.656478
 20
24.257280
  0
VERTEX
  8
LAYER_1
 62
7
 10
-38.186241
 20
24.257280
  0
VERTEX
  8
LAYER_1
 62
7
 10
-37.570416
 20
24.257280
  0
VERTEX
  8
LAYER_1
 62
7
 10
-37.384395
 20
24.257280
  0
VERTEX
  8
LAYER_1
 62
7
 10
-37.212448
 20
24.257280
 42
0.216010
  0
VERTEX
  8
LAYER_1
 62
7
 10
-37.199063
 20
24.262159
 42
0.188250
  0
VERTEX
  8
LAYER_1
 62
7
 10
-37.194594
 20
24.276808
  0
VERTEX
  8
LAYER_1
 62
7
 10
-37.194594
 20
25.389111
 42
0.054524
  0
VERTEX
  8
LAYER_1
 62
7
 10
-37.195539
 20
25.398968
 42
0.092694
  0
VERTEX
  8
LAYER_1
 62
7
 10
-37.198373
 20
25.406009
 42
0.265976
  0
VERTEX
  8
LAYER_1
 62
7
 10
-37.209701
 20
25.411642
 42
0.136323
  0
VERTEX
  8
LAYER_1
 62
7
 10
-37.216917
 20
25.409389
 42
0.072008
  0
VERTEX
  8
LAYER_1
 62
7
 10
-37.224808
 20
25.402629
  0
VERTEX
  8
LAYER_1
 62
7
 10
-37.361291
 20
25.246314
  0
VERTEX
  8
LAYER_1
 62
7
 10
-37.370246
 20
25.233512
 42
0.084032
  0
VERTEX
  8
LAYER_1
 62
7
 10
-37.370388
 20
25.232892
  0
VERTEX
  8
LAYER_1
 62
7
 10
-37.370388
 20
24.456308
  0
VERTEX
  8
LAYER_1
 62
7
 10
-37.384395
 20
24.456308
  0
VERTEX
  8
LAYER_1
 62
7
 10
-37.570416
 20
24.456308
  0
VERTEX
  8
LAYER_1
 62
7
 10
-37.953179
 20
24.456308
 42
-0.084933
  0
VERTEX
  8
LAYER_1
 62
7
 10
-37.973871
 20
24.472643
 42
-0.037173
  0
VERTEX
  8
LAYER_1
 62
7
 10
-37.998845
 20
24.503624
 42
-0.045872
  0
VERTEX
  8
LAYER_1
 62
7
 10
-38.019191
 20
24.537603
 42
-0.104922
  0
VERTEX
  8
LAYER_1
 62
7
 10
-38.025969
 20
24.562957
 42
-0.198134
  0
VERTEX
  8
LAYER_1
 62
7
 10
-37.977214
 20
24.689884
 42
-0.216101
  0
VERTEX
  8
LAYER_1
 62
7
 10
-37.859788
 20
24.741707
 42
-0.171626
  0
VERTEX
  8
LAYER_1
 62
7
 10
-37.701161
 20
24.694391
 42
-0.135012
  0
VERTEX
  8
LAYER_1
 62
7
 10
-37.607083
 20
24.547185
 42
0.106918
  0
VERTEX
  8
LAYER_1
 62
7
 10
-37.599873
 20
24.535356
 42
0.200265
  0
VERTEX
  8
LAYER_1
 62
7
 10
-37.590603
 20
24.531413
  0
VERTEX
  8
LAYER_1
 62
7
 10
-37.576869
 20
24.538172
 42
0.108681
  0
VERTEX
  8
LAYER_1
 62
7
 10
-37.572748
 20
24.556198
 42
0.051266
  0
VERTEX
  8
LAYER_1
 62
7
 10
-37.576528
 20
24.580419
  0
VERTEX
  8
LAYER_1
 62
7
 10
-37.587856
 20
24.621539
 42
0.101656
  0
VERTEX
  8
LAYER_1
 62
7
 10
-37.661510
 20
24.763100
 42
0.125395
  0
VERTEX
  8
LAYER_1
 62
7
 10
-37.778071
 20
24.846853
 42
0.029877
  0
VERTEX
  8
LAYER_1
 62
7
 10
-37.848804
 20
24.870512
 42
0.061481
  0
VERTEX
  8
LAYER_1
 62
7
 10
-37.900303
 20
24.878398
 42
0.163740
  0
VERTEX
  8
LAYER_1
 62
7
 10
-38.075763
 20
24.825449
 42
0.146312
  0
VERTEX
  8
LAYER_1
 62
7
 10
-38.187343
 20
24.666602
 42
0.082938
  0
VERTEX
  8
LAYER_1
 62
7
 10
-38.204511
 20
24.523903
  0
VERTEX
  8
LAYER_1
 62
7
 10
-38.180476
 20
24.456308
  0
VERTEX
  8
LAYER_1
 62
7
 10
-38.186241
 20
24.456308
  0
VERTEX
  8
LAYER_1
 62
7
 10
-38.620354
 20
24.456308
 42
0.046806
  0
VERTEX
  8
LAYER_1
 62
7
 10
-38.643015
 20
24.625294
 42
0.208751
  0
VERTEX
  8
LAYER_1
 62
7
 10
-38.713058
 20
24.721428
 42
0.142638
  0
VERTEX
  8
LAYER_1
 62
7
 10
-38.814003
 20
24.755977
  0
VERTEX
  8
LAYER_1
 62
7
 10
-39.324747
 20
24.755977
  0
SEQEND
  0
POLYLINE
  8
LAYER_1
 62
7
 70
1
 66
1
  0
VERTEX
  8
LAYER_1
 62
7
 10
-39.830716
 20
24.257280
  0
VERTEX
  8
LAYER_1
 62
7
 10
-39.703077
 20
24.417254
  0
VERTEX
  8
LAYER_1
 62
7
 10
-40.199759
 20
24.417254
 42
-0.216146
  0
VERTEX
  8
LAYER_1
 62
7
 10
-40.213153
 20
24.422132
 42
-0.188102
  0
VERTEX
  8
LAYER_1
 62
7
 10
-40.217614
 20
24.436781
  0
VERTEX
  8
LAYER_1
 62
7
 10
-40.217614
 20
24.576476
 42
-0.187986
  0
VERTEX
  8
LAYER_1
 62
7
 10
-40.213153
 20
24.591116
 42
-0.216291
  0
VERTEX
  8
LAYER_1
 62
7
 10
-40.199759
 20
24.596003
  0
VERTEX
  8
LAYER_1
 62
7
 10
-39.560455
 20
24.596003
  0
VERTEX
  8
LAYER_1
 62
7
 10
-39.432816
 20
24.755977
  0
VERTEX
  8
LAYER_1
 62
7
 10
-40.181905
 20
24.755977
  0
VERTEX
  8
LAYER_1
 62
7
 10
-40.181905
 20
25.395119
 42
0.056382
  0
VERTEX
  8
LAYER_1
 62
7
 10
-40.182850
 20
25.404641
 42
0.094855
  0
VERTEX
  8
LAYER_1
 62
7
 10
-40.185685
 20
25.411448
 42
0.260693
  0
VERTEX
  8
LAYER_1
 62
7
 10
-40.197013
 20
25.416899
 42
0.097150
  0
VERTEX
  8
LAYER_1
 62
7
 10
-40.212120
 20
25.408638
  0
VERTEX
  8
LAYER_1
 62
7
 10
-40.325943
 20
25.283398
  0
VERTEX
  8
LAYER_1
 62
7
 10
-40.363287
 20
25.238198
 42
0.033077
  0
VERTEX
  8
LAYER_1
 62
7
 10
-40.363732
 20
25.237270
 42
0.086705
  0
VERTEX
  8
LAYER_1
 62
7
 10
-40.363880
 20
25.236648
  0
VERTEX
  8
LAYER_1
 62
7
 10
-40.363880
 20
24.456308
  0
VERTEX
  8
LAYER_1
 62
7
 10
-40.732090
 20
24.456308
  0
VERTEX
  8
LAYER_1
 62
7
 10
-40.732552
 20
24.456308
 42
0.063018
  0
VERTEX
  8
LAYER_1
 62
7
 10
-40.768062
 20
24.522258
  0
VERTEX
  8
LAYER_1
 62
7
 10
-40.874027
 20
24.389450
 42
-0.079197
  0
VERTEX
  8
LAYER_1
 62
7
 10
-40.868518
 20
24.352663
 42
-0.184493
  0
VERTEX
  8
LAYER_1
 62
7
 10
-40.893582
 20
24.282816
 42
-0.230110
  0
VERTEX
  8
LAYER_1
 62
7
 10
-40.955729
 20
24.253525
 42
-0.064096
  0
VERTEX
  8
LAYER_1
 62
7
 10
-40.980103
 20
24.256503
  0
VERTEX
  8
LAYER_1
 62
7
 10
-41.079532
 20
24.131887
 42
0.125930
  0
VERTEX
  8
LAYER_1
 62
7
 10
-40.973583
 20
24.107071
 42
0.147332
  0
VERTEX
  8
LAYER_1
 62
7
 10
-40.832466
 20
24.144629
 42
0.151489
  0
VERTEX
  8
LAYER_1
 62
7
 10
-40.742852
 20
24.257280
  0
VERTEX
  8
LAYER_1
 62
7
 10
-40.732090
 20
24.257280
  0
VERTEX
  8
LAYER_1
 62
7
 10
-40.360908
 20
24.257280
  0
VERTEX
  8
LAYER_1
 62
7
 10
-39.830716
 20
24.257280
  0
SEQEND
  0
POLYLINE
  8
LAYER_1
 62
7
 70
1
 66
1
  0
VERTEX
  8
LAYER_1
 62
7
 10
-40.354116
 20
24.416838
  0
VERTEX
  8
LAYER_1
 62
7
 10
-40.345852
 20
24.416516
 42
-0.028954
  0
VERTEX
  8
LAYER_1
 62
7
 10
-40.345151
 20
24.416421
  0
VERTEX
  8
LAYER_1
 62
7
 10
-40.345061
 20
24.416396
 42
0.059487
  0
VERTEX
  8
LAYER_1
 62
7
 10
-40.345061
 20
24.416396
 42
0.071201
  0
VERTEX
  8
LAYER_1
 62
7
 10
-40.345005
 20
24.416371
 42
0.134401
  0
VERTEX
  8
LAYER_1
 62
7
 10
-40.344990
 20
24.416359
 42
0.162602
  0
VERTEX
  8
LAYER_1
 62
7
 10
-40.344984
 20
24.416346
 42
0.098850
  0
VERTEX
  8
LAYER_1
 62
7
 10
-40.344986
 20
24.416333
 42
0.077684
  0
VERTEX
  8
LAYER_1
 62
7
 10
-40.344996
 20
24.416320
  0
VERTEX
  8
LAYER_1
 62
7
 10
-40.345124
 20
24.416268
  0
VERTEX
  8
LAYER_1
 62
7
 10
-40.346326
 20
24.416102
  0
VERTEX
  8
LAYER_1
 62
7
 10
-40.373494
 20
24.415000
 42
0.035230
  0
VERTEX
  8
LAYER_1
 62
7
 10
-40.354116
 20
24.416838
  0
SEQEND
  0
POLYLINE
  8
LAYER_1
 62
7
 70
1
 66
1
  0
VERTEX
  8
LAYER_1
 62
7
 10
-41.143647
 20
24.186975
  0
VERTEX
  8
LAYER_1
 62
7
 10
-41.041022
 20
24.315597
 42
-0.093098
  0
VERTEX
  8
LAYER_1
 62
7
 10
-41.050493
 20
24.370689
 42
-0.229443
  0
VERTEX
  8
LAYER_1
 62
7
 10
-41.021652
 20
24.431524
 42
-0.186819
  0
VERTEX
  8
LAYER_1
 62
7
 10
-40.961222
 20
24.454806
 42
-0.076936
  0
VERTEX
  8
LAYER_1
 62
7
 10
-40.933237
 20
24.450686
  0
VERTEX
  8
LAYER_1
 62
7
 10
-40.829729
 20
24.580415
 42
0.142144
  0
VERTEX
  8
LAYER_1
 62
7
 10
-40.969463
 20
24.616282
 42
0.171145
  0
VERTEX
  8
LAYER_1
 62
7
 10
-41.096158
 20
24.572345
 42
0.135689
  0
VERTEX
  8
LAYER_1
 62
7
 10
-41.181652
 20
24.456308
  0
VERTEX
  8
LAYER_1
 62
7
 10
-41.187016
 20
24.456308
  0
VERTEX
  8
LAYER_1
 62
7
 10
-41.446984
 20
24.456308
  0
VERTEX
  8
LAYER_1
 62
7
 10
-41.446984
 20
24.765221
  0
VERTEX
  8
LAYER_1
 62
7
 10
-41.600297
 20
24.573072
 42
-0.092293
  0
VERTEX
  8
LAYER_1
 62
7
 10
-41.592564
 20
24.528409
 42
-0.199052
  0
VERTEX
  8
LAYER_1
 62
7
 10
-41.623123
 20
24.451802
 42
-0.214879
  0
VERTEX
  8
LAYER_1
 62
7
 10
-41.694196
 20
24.419507
 42
-0.068416
  0
VERTEX
  8
LAYER_1
 62
7
 10
-41.720095
 20
24.422927
  0
VERTEX
  8
LAYER_1
 62
7
 10
-41.834888
 20
24.279054
 42
0.142924
  0
VERTEX
  8
LAYER_1
 62
7
 10
-41.756685
 20
24.257280
  0
VERTEX
  8
LAYER_1
 62
7
 10
-41.460162
 20
24.257280
  0
VERTEX
  8
LAYER_1
 62
7
 10
-41.187016
 20
24.257280
  0
VERTEX
  8
LAYER_1
 62
7
 10
-41.183712
 20
24.257280
 42
0.067266
  0
VERTEX
  8
LAYER_1
 62
7
 10
-41.143647
 20
24.186975
  0
SEQEND
  0
POLYLINE
  8
LAYER_1
 62
7
 70
1
 66
1
  0
VERTEX
  8
LAYER_1
 62
7
 10
-41.894030
 20
24.340375
  0
VERTEX
  8
LAYER_1
 62
7
 10
-41.783167
 20
24.479323
 42
-0.110332
  0
VERTEX
  8
LAYER_1
 62
7
 10
-41.793767
 20
24.529911
 42
-0.197381
  0
VERTEX
  8
LAYER_1
 62
7
 10
-41.763896
 20
24.606142
 42
-0.216502
  0
VERTEX
  8
LAYER_1
 62
7
 10
-41.693509
 20
24.638062
 42
-0.082514
  0
VERTEX
  8
LAYER_1
 62
7
 10
-41.660643
 20
24.632883
  0
VERTEX
  8
LAYER_1
 62
7
 10
-41.446984
 20
24.900666
  0
VERTEX
  8
LAYER_1
 62
7
 10
-41.446984
 20
25.060902
 42
0.054524
  0
VERTEX
  8
LAYER_1
 62
7
 10
-41.447930
 20
25.070760
 42
0.092694
  0
VERTEX
  8
LAYER_1
 62
7
 10
-41.450764
 20
25.077801
 42
0.265976
  0
VERTEX
  8
LAYER_1
 62
7
 10
-41.462092
 20
25.083434
 42
0.136323
  0
VERTEX
  8
LAYER_1
 62
7
 10
-41.469308
 20
25.081181
 42
0.072008
  0
VERTEX
  8
LAYER_1
 62
7
 10
-41.477199
 20
25.074421
  0
VERTEX
  8
LAYER_1
 62
7
 10
-41.627586
 20
24.912195
 42
0.079608
  0
VERTEX
  8
LAYER_1
 62
7
 10
-41.628252
 20
24.911081
 42
0.035478
  0
VERTEX
  8
LAYER_1
 62
7
 10
-41.628876
 20
24.909246
  0
VERTEX
  8
LAYER_1
 62
7
 10
-41.629993
 20
24.903411
  0
VERTEX
  8
LAYER_1
 62
7
 10
-41.631709
 20
24.883083
  0
VERTEX
  8
LAYER_1
 62
7
 10
-41.633080
 20
24.807799
  0
VERTEX
  8
LAYER_1
 62
7
 10
-41.666728
 20
24.810052
 42
0.205663
  0
VERTEX
  8
LAYER_1
 62
7
 10
-41.860377
 20
24.731192
 42
0.207759
  0
VERTEX
  8
LAYER_1
 62
7
 10
-41.943467
 20
24.523151
 42
0.138200
  0
VERTEX
  8
LAYER_1
 62
7
 10
-41.897458
 20
24.345904
  0
VERTEX
  8
LAYER_1
 62
7
 10
-41.894030
 20
24.340375
  0
SEQEND
  0
POLYLINE
  8
LAYER_1
 62
7
 70
1
 66
1
  0
VERTEX
  8
LAYER_1
 62
7
 10
-39.363361
 20
25.001569
 42
0.197469
  0
VERTEX
  8
LAYER_1
 62
7
 10
-39.391173
 20
25.074797
 42
0.216427
  0
VERTEX
  8
LAYER_1
 62
7
 10
-39.458812
 20
25.104463
 42
0.220255
  0
VERTEX
  8
LAYER_1
 62
7
 10
-39.520958
 20
25.077801
 42
0.193219
  0
VERTEX
  8
LAYER_1
 62
7
 10
-39.545336
 20
25.009080
 42
0.190032
  0
VERTEX
  8
LAYER_1
 62
7
 10
-39.518555
 20
24.933975
 42
0.224220
  0
VERTEX
  8
LAYER_1
 62
7
 10
-39.450572
 20
24.903933
 42
0.226387
  0
VERTEX
  8
LAYER_1
 62
7
 10
-39.387396
 20
24.931346
 42
0.187066
  0
VERTEX
  8
LAYER_1
 62
7
 10
-39.363361
 20
25.001569
  0
SEQEND
  0
POLYLINE
  8
LAYER_1
 62
7
 70
1
 66
1
  0
VERTEX
  8
LAYER_1
 62
7
 10
-36.637746
 20
24.545740
 42
0.049682
  0
VERTEX
  8
LAYER_1
 62
7
 10
-36.638864
 20
24.558555
 42
0.086420
  0
VERTEX
  8
LAYER_1
 62
7
 10
-36.642215
 20
24.567709
 42
0.280564
  0
VERTEX
  8
LAYER_1
 62
7
 10
-36.655600
 20
24.575031
  0
VERTEX
  8
LAYER_1
 62
7
 10
-36.668647
 20
24.569023
 42
0.193369
  0
VERTEX
  8
LAYER_1
 62
7
 10
-36.673454
 20
24.555504
 42
-0.103049
  0
VERTEX
  8
LAYER_1
 62
7
 10
-36.680664
 20
24.527706
 42
-0.046449
  0
VERTEX
  8
LAYER_1
 62
7
 10
-36.702295
 20
24.490914
 42
-0.069067
  0
VERTEX
  8
LAYER_1
 62
7
 10
-36.779552
 20
24.402472
 42
-0.171864
  0
VERTEX
  8
LAYER_1
 62
7
 10
-36.847875
 20
24.372999
 42
-0.236286
  0
VERTEX
  8
LAYER_1
 62
7
 10
-36.869681
 20
24.384638
 42
-0.099150
  0
VERTEX
  8
LAYER_1
 62
7
 10
-36.885644
 20
24.419564
 42
-0.071379
  0
VERTEX
  8
LAYER_1
 62
7
 10
-36.895258
 20
24.487159
  0
VERTEX
  8
LAYER_1
 62
7
 10
-36.895258
 20
25.475539
 42
0.056382
  0
VERTEX
  8
LAYER_1
 62
7
 10
-36.896203
 20
25.485061
 42
0.094855
  0
VERTEX
  8
LAYER_1
 62
7
 10
-36.899037
 20
25.491868
 42
0.260693
  0
VERTEX
  8
LAYER_1
 62
7
 10
-36.910365
 20
25.497319
 42
0.085592
  0
VERTEX
  8
LAYER_1
 62
7
 10
-36.911914
 20
25.496989
 42
0.040561
  0
VERTEX
  8
LAYER_1
 62
7
 10
-36.913986
 20
25.495999
 42
0.035649
  0
VERTEX
  8
LAYER_1
 62
7
 10
-36.919700
 20
25.492038
  0
VERTEX
  8
LAYER_1
 62
7
 10
-36.937404
 20
25.476196
  0
VERTEX
  8
LAYER_1
 62
7
 10
-36.997919
 20
25.412826
  0
VERTEX
  8
LAYER_1
 62
7
 10
-37.055859
 20
25.346640
  0
VERTEX
  8
LAYER_1
 62
7
 10
-37.070344
 20
25.327277
 42
0.032989
  0
VERTEX
  8
LAYER_1
 62
7
 10
-37.073965
 20
25.321028
 42
0.035890
  0
VERTEX
  8
LAYER_1
 62
7
 10
-37.074871
 20
25.318762
 42
0.072426
  0
VERTEX
  8
LAYER_1
 62
7
 10
-37.075172
 20
25.317067
  0
VERTEX
  8
LAYER_1
 62
7
 10
-37.075172
 20
24.451859
 42
0.124076
  0
VERTEX
  8
LAYER_1
 62
7
 10
-37.029164
 20
24.284375
 42
0.100267
  0
VERTEX
  8
LAYER_1
 62
7
 10
-36.971835
 20
24.210022
 42
0.175283
  0
VERTEX
  8
LAYER_1
 62
7
 10
-36.905558
 20
24.185237
 42
0.210566
  0
VERTEX
  8
LAYER_1
 62
7
 10
-36.784879
 20
24.245509
 42
0.086388
  0
VERTEX
  8
LAYER_1
 62
7
 10
-36.675514
 20
24.426324
 42
0.024064
  0
VERTEX
  8
LAYER_1
 62
7
 10
-36.647191
 20
24.500114
 42
0.070598
  0
VERTEX
  8
LAYER_1
 62
7
 10
-36.637746
 20
24.545740
  0
SEQEND
  0
POLYLINE
  8
LAYER_1
 62
7
 70
1
 66
1
  0
VERTEX
  8
LAYER_1
 62
7
 10
-42.990689
 20
24.883685
  0
VERTEX
  8
LAYER_1
 62
7
 10
-43.178814
 20
24.647904
 42
-0.120168
  0
VERTEX
  8
LAYER_1
 62
7
 10
-43.164162
 20
24.582487
 42
-0.199052
  0
VERTEX
  8
LAYER_1
 62
7
 10
-43.200575
 20
24.491202
 42
-0.214879
  0
VERTEX
  8
LAYER_1
 62
7
 10
-43.285265
 20
24.452719
 42
-0.099578
  0
VERTEX
  8
LAYER_1
 62
7
 10
-43.328018
 20
24.460903
  0
VERTEX
  8
LAYER_1
 62
7
 10
-43.462800
 20
24.291979
 42
0.160945
  0
VERTEX
  8
LAYER_1
 62
7
 10
-43.359728
 20
24.259411
  0
VERTEX
  8
LAYER_1
 62
7
 10
-42.244387
 20
24.259411
 42
0.216010
  0
VERTEX
  8
LAYER_1
 62
7
 10
-42.228437
 20
24.265224
 42
0.188250
  0
VERTEX
  8
LAYER_1
 62
7
 10
-42.223112
 20
24.282679
  0
VERTEX
  8
LAYER_1
 62
7
 10
-42.223112
 20
25.295760
 42
0.054524
  0
VERTEX
  8
LAYER_1
 62
7
 10
-42.224238
 20
25.307506
 42
0.092694
  0
VERTEX
  8
LAYER_1
 62
7
 10
-42.227616
 20
25.315896
 42
0.265976
  0
VERTEX
  8
LAYER_1
 62
7
 10
-42.241114
 20
25.322609
 42
0.042069
  0
VERTEX
  8
LAYER_1
 62
7
 10
-42.252167
 20
25.317907
 42
0.081371
  0
VERTEX
  8
LAYER_1
 62
7
 10
-42.259116
 20
25.312764
  0
VERTEX
  8
LAYER_1
 62
7
 10
-42.388613
 20
25.165314
  0
VERTEX
  8
LAYER_1
 62
7
 10
-42.429073
 20
25.114933
  0
VERTEX
  8
LAYER_1
 62
7
 10
-42.431602
 20
25.110404
 42
0.080051
  0
VERTEX
  8
LAYER_1
 62
7
 10
-42.431770
 20
25.109611
  0
VERTEX
  8
LAYER_1
 62
7
 10
-42.431770
 20
24.496572
  0
VERTEX
  8
LAYER_1
 62
7
 10
-42.606812
 20
24.496572
  0
VERTEX
  8
LAYER_1
 62
7
 10
-42.606812
 20
25.295760
 42
0.054524
  0
VERTEX
  8
LAYER_1
 62
7
 10
-42.607938
 20
25.307506
 42
0.092694
  0
VERTEX
  8
LAYER_1
 62
7
 10
-42.611315
 20
25.315896
 42
0.265976
  0
VERTEX
  8
LAYER_1
 62
7
 10
-42.624814
 20
25.322609
 42
0.057409
  0
VERTEX
  8
LAYER_1
 62
7
 10
-42.635867
 20
25.318347
 42
0.101314
  0
VERTEX
  8
LAYER_1
 62
7
 10
-42.642816
 20
25.312764
  0
VERTEX
  8
LAYER_1
 62
7
 10
-42.778447
 20
25.160169
  0
VERTEX
  8
LAYER_1
 62
7
 10
-42.822946
 20
25.105212
  0
VERTEX
  8
LAYER_1
 62
7
 10
-42.823476
 20
25.104092
 42
0.085798
  0
VERTEX
  8
LAYER_1
 62
7
 10
-42.823653
 20
25.103346
  0
VERTEX
  8
LAYER_1
 62
7
 10
-42.823653
 20
24.496572
  0
VERTEX
  8
LAYER_1
 62
7
 10
-42.990689
 20
24.496572
  0
VERTEX
  8
LAYER_1
 62
7
 10
-42.990689
 20
24.883685
  0
SEQEND
  0
POLYLINE
  8
LAYER_1
 62
7
 70
1
 66
1
  0
VERTEX
  8
LAYER_1
 62
7
 10
-43.520910
 20
24.354594
  0
VERTEX
  8
LAYER_1
 62
7
 10
-43.389183
 20
24.519690
 42
-0.120117
  0
VERTEX
  8
LAYER_1
 62
7
 10
-43.403914
 20
24.584277
 42
-0.197381
  0
VERTEX
  8
LAYER_1
 62
7
 10
-43.368319
 20
24.675114
 42
-0.216502
  0
VERTEX
  8
LAYER_1
 62
7
 10
-43.284447
 20
24.713149
 42
-0.093363
  0
VERTEX
  8
LAYER_1
 62
7
 10
-43.240993
 20
24.705418
  0
VERTEX
  8
LAYER_1
 62
7
 10
-42.990689
 20
25.019129
  0
VERTEX
  8
LAYER_1
 62
7
 10
-42.990689
 20
25.217005
 42
0.054524
  0
VERTEX
  8
LAYER_1
 62
7
 10
-42.991815
 20
25.228751
 42
0.092694
  0
VERTEX
  8
LAYER_1
 62
7
 10
-42.995193
 20
25.237141
 42
0.265976
  0
VERTEX
  8
LAYER_1
 62
7
 10
-43.008691
 20
25.243853
 42
0.136323
  0
VERTEX
  8
LAYER_1
 62
7
 10
-43.017289
 20
25.241168
 42
0.072008
  0
VERTEX
  8
LAYER_1
 62
7
 10
-43.026693
 20
25.233114
  0
VERTEX
  8
LAYER_1
 62
7
 10
-43.205893
 20
25.039805
 42
0.079608
  0
VERTEX
  8
LAYER_1
 62
7
 10
-43.206687
 20
25.038478
 42
0.035478
  0
VERTEX
  8
LAYER_1
 62
7
 10
-43.207430
 20
25.036292
  0
VERTEX
  8
LAYER_1
 62
7
 10
-43.208761
 20
25.029339
  0
VERTEX
  8
LAYER_1
 62
7
 10
-43.210806
 20
25.005115
  0
VERTEX
  8
LAYER_1
 62
7
 10
-43.212439
 20
24.915407
  0
VERTEX
  8
LAYER_1
 62
7
 10
-43.252535
 20
24.918092
 42
0.205663
  0
VERTEX
  8
LAYER_1
 62
7
 10
-43.483286
 20
24.824123
 42
0.207759
  0
VERTEX
  8
LAYER_1
 62
7
 10
-43.582296
 20
24.576222
 42
0.138200
  0
VERTEX
  8
LAYER_1
 62
7
 10
-43.527472
 20
24.365014
  0
VERTEX
  8
LAYER_1
 62
7
 10
-43.520910
 20
24.354594
  0
SEQEND
  0
POLYLINE
  8
LAYER_1
 62
7
 70
1
 66
1
  0
VERTEX
  8
LAYER_1
 62
7
 10
-42.660620
 20
25.490681
 42
0.188134
  0
VERTEX
  8
LAYER_1
 62
7
 10
-42.665089
 20
25.505320
 42
0.216155
  0
VERTEX
  8
LAYER_1
 62
7
 10
-42.678474
 20
25.510208
  0
VERTEX
  8
LAYER_1
 62
7
 10
-42.697015
 20
25.510208
 42
0.184037
  0
VERTEX
  8
LAYER_1
 62
7
 10
-42.702423
 20
25.507696
 42
0.071264
  0
VERTEX
  8
LAYER_1
 62
7
 10
-42.708346
 20
25.500160
 42
0.048563
  0
VERTEX
  8
LAYER_1
 62
7
 10
-42.721736
 20
25.470027
 42
-0.118649
  0
VERTEX
  8
LAYER_1
 62
7
 10
-42.739762
 20
25.439885
 42
-0.196323
  0
VERTEX
  8
LAYER_1
 62
7
 10
-42.764998
 20
25.429846
 42
-0.183180
  0
VERTEX
  8
LAYER_1
 62
7
 10
-42.793679
 20
25.439885
 42
-0.135444
  0
VERTEX
  8
LAYER_1
 62
7
 10
-42.812380
 20
25.470027
 42
0.049098
  0
VERTEX
  8
LAYER_1
 62
7
 10
-42.825259
 20
25.500160
 42
0.072445
  0
VERTEX
  8
LAYER_1
 62
7
 10
-42.831051
 20
25.507696
 42
0.186431
  0
VERTEX
  8
LAYER_1
 62
7
 10
-42.836415
 20
25.510208
  0
VERTEX
  8
LAYER_1
 62
7
 10
-42.852209
 20
25.510208
 42
0.179047
  0
VERTEX
  8
LAYER_1
 62
7
 10
-42.857923
 20
25.507696
 42
0.073956
  0
VERTEX
  8
LAYER_1
 62
7
 10
-42.864060
 20
25.500160
 42
0.051503
  0
VERTEX
  8
LAYER_1
 62
7
 10
-42.877617
 20
25.470027
 42
-0.105028
  0
VERTEX
  8
LAYER_1
 62
7
 10
-42.894613
 20
25.439885
 42
-0.210218
  0
VERTEX
  8
LAYER_1
 62
7
 10
-42.916759
 20
25.429846
 42
-0.199954
  0
VERTEX
  8
LAYER_1
 62
7
 10
-42.937282
 20
25.439422
 42
-0.087084
  0
VERTEX
  8
LAYER_1
 62
7
 10
-42.956244
 20
25.468149
  0
VERTEX
  8
LAYER_1
 62
7
 10
-42.971102
 20
25.496877
 42
0.038649
  0
VERTEX
  8
LAYER_1
 62
7
 10
-42.976013
 20
25.504059
 42
0.055350
  0
VERTEX
  8
LAYER_1
 62
7
 10
-42.977840
 20
25.505854
 42
0.058239
  0
VERTEX
  8
LAYER_1
 62
7
 10
-42.978596
 20
25.506303
 42
0.100674
  0
VERTEX
  8
LAYER_1
 62
7
 10
-42.979248
 20
25.506453
 42
0.087279
  0
VERTEX
  8
LAYER_1
 62
7
 10
-42.990579
 20
25.503636
  0
VERTEX
  8
LAYER_1
 62
7
 10
-43.008089
 20
25.495187
  0
VERTEX
  8
LAYER_1
 62
7
 10
-43.014785
 20
25.486541
 42
0.054582
  0
VERTEX
  8
LAYER_1
 62
7
 10
-43.018390
 20
25.480166
 42
0.121950
  0
VERTEX
  8
LAYER_1
 62
7
 10
-43.009211
 20
25.448150
 42
0.062779
  0
VERTEX
  8
LAYER_1
 62
7
 10
-42.981652
 20
25.410694
 42
0.067871
  0
VERTEX
  8
LAYER_1
 62
7
 10
-42.947065
 20
25.380553
 42
0.139662
  0
VERTEX
  8
LAYER_1
 62
7
 10
-42.916759
 20
25.370513
 42
0.249067
  0
VERTEX
  8
LAYER_1
 62
7
 10
-42.843282
 20
25.408817
 42
0.238976
  0
VERTEX
  8
LAYER_1
 62
7
 10
-42.764998
 20
25.370513
 42
0.232746
  0
VERTEX
  8
LAYER_1
 62
7
 10
-42.691178
 20
25.406939
 42
0.181941
  0
VERTEX
  8
LAYER_1
 62
7
 10
-42.660620
 20
25.490681
  0
SEQEND
  0
POLYLINE
  8
LAYER_1
 62
7
 66
1
  0
VERTEX
  8
LAYER_1
 62
7
 10
-53.202715
 20
20.436729
  0
VERTEX
  8
LAYER_1
 62
7
 10
-53.202715
 20
20.830429
  0
SEQEND
  0
POLYLINE
  8
LAYER_1
 62
7
 66
1
  0
VERTEX
  8
LAYER_1
 62
7
 10
-53.108227
 20
20.436729
  0
VERTEX
  8
LAYER_1
 62
7
 10
-53.202715
 20
20.436729
  0
SEQEND
  0
POLYLINE
  8
LAYER_1
 62
7
 66
1
  0
VERTEX
  8
LAYER_1
 62
7
 10
-53.108227
 20
20.436729
  0
VERTEX
  8
LAYER_1
 62
7
 10
-53.108227
 20
19.846177
  0
SEQEND
  0
POLYLINE
  8
LAYER_1
 62
7
 66
1
  0
VERTEX
  8
LAYER_1
 62
7
 10
-53.108227
 20
19.846177
  0
VERTEX
  8
LAYER_1
 62
7
 10
-53.202715
 20
19.846177
  0
SEQEND
  0
POLYLINE
  8
LAYER_1
 62
7
 66
1
  0
VERTEX
  8
LAYER_1
 62
7
 10
-53.202715
 20
18.759563
  0
VERTEX
  8
LAYER_1
 62
7
 10
-53.202715
 20
19.846177
  0
SEQEND
  0
POLYLINE
  8
LAYER_1
 62
7
 66
1
  0
VERTEX
  8
LAYER_1
 62
7
 10
-53.108227
 20
18.759563
  0
VERTEX
  8
LAYER_1
 62
7
 10
-53.202715
 20
18.759563
  0
SEQEND
  0
POLYLINE
  8
LAYER_1
 62
7
 66
1
  0
VERTEX
  8
LAYER_1
 62
7
 10
-53.108227
 20
18.759563
  0
VERTEX
  8
LAYER_1
 62
7
 10
-53.108227
 20
18.169012
  0
SEQEND
  0
POLYLINE
  8
LAYER_1
 62
7
 66
1
  0
VERTEX
  8
LAYER_1
 62
7
 10
-53.108227
 20
18.169012
  0
VERTEX
  8
LAYER_1
 62
7
 10
-53.202715
 20
18.169012
  0
SEQEND
  0
POLYLINE
  8
LAYER_1
 62
7
 66
1
  0
VERTEX
  8
LAYER_1
 62
7
 10
-53.202715
 20
17.082398
  0
VERTEX
  8
LAYER_1
 62
7
 10
-53.202715
 20
18.169012
  0
SEQEND
  0
POLYLINE
  8
LAYER_1
 62
7
 66
1
  0
VERTEX
  8
LAYER_1
 62
7
 10
-53.108227
 20
17.082398
  0
VERTEX
  8
LAYER_1
 62
7
 10
-53.202715
 20
17.082398
  0
SEQEND
  0
POLYLINE
  8
LAYER_1
 62
7
 66
1
  0
VERTEX
  8
LAYER_1
 62
7
 10
-53.108227
 20
17.082398
  0
VERTEX
  8
LAYER_1
 62
7
 10
-53.108227
 20
16.491847
  0
SEQEND
  0
POLYLINE
  8
LAYER_1
 62
7
 66
1
  0
VERTEX
  8
LAYER_1
 62
7
 10
-53.108227
 20
16.491847
  0
VERTEX
  8
LAYER_1
 62
7
 10
-53.202715
 20
16.491847
  0
SEQEND
  0
POLYLINE
  8
LAYER_1
 62
7
 66
1
  0
VERTEX
  8
LAYER_1
 62
7
 10
-53.202715
 20
16.098146
  0
VERTEX
  8
LAYER_1
 62
7
 10
-53.202715
 20
16.491847
  0
SEQEND
  0
POLYLINE
  8
LAYER_1
 62
7
 66
1
  0
VERTEX
  8
LAYER_1
 62
7
 10
-53.596416
 20
16.098146
  0
VERTEX
  8
LAYER_1
 62
7
 10
-53.202715
 20
16.098146
  0
SEQEND
  0
POLYLINE
  8
LAYER_1
 62
7
 66
1
  0
VERTEX
  8
LAYER_1
 62
7
 10
-53.596416
 20
16.003658
  0
VERTEX
  8
LAYER_1
 62
7
 10
-53.596416
 20
16.098146
  0
SEQEND
  0
POLYLINE
  8
LAYER_1
 62
7
 66
1
  0
VERTEX
  8
LAYER_1
 62
7
 10
-54.186967
 20
16.003658
  0
VERTEX
  8
LAYER_1
 62
7
 10
-53.596416
 20
16.003658
  0
SEQEND
  0
POLYLINE
  8
LAYER_1
 62
7
 66
1
  0
VERTEX
  8
LAYER_1
 62
7
 10
-54.186967
 20
16.003658
  0
VERTEX
  8
LAYER_1
 62
7
 10
-54.186967
 20
16.098146
  0
SEQEND
  0
POLYLINE
  8
LAYER_1
 62
7
 66
1
  0
VERTEX
  8
LAYER_1
 62
7
 10
-55.171219
 20
16.098146
  0
VERTEX
  8
LAYER_1
 62
7
 10
-54.186967
 20
16.098146
  0
SEQEND
  0
POLYLINE
  8
LAYER_1
 62
7
 66
1
  0
VERTEX
  8
LAYER_1
 62
7
 10
-55.171219
 20
16.003658
  0
VERTEX
  8
LAYER_1
 62
7
 10
-55.171219
 20
16.098146
  0
SEQEND
  0
POLYLINE
  8
LAYER_1
 62
7
 66
1
  0
VERTEX
  8
LAYER_1
 62
7
 10
-55.761770
 20
16.003658
  0
VERTEX
  8
LAYER_1
 62
7
 10
-55.171219
 20
16.003658
  0
SEQEND
  0
POLYLINE
  8
LAYER_1
 62
7
 66
1
  0
VERTEX
  8
LAYER_1
 62
7
 10
-55.761770
 20
16.003658
  0
VERTEX
  8
LAYER_1
 62
7
 10
-55.761770
 20
16.098146
  0
SEQEND
  0
POLYLINE
  8
LAYER_1
 62
7
 66
1
  0
VERTEX
  8
LAYER_1
 62
7
 10
-56.155471
 20
16.098146
  0
VERTEX
  8
LAYER_1
 62
7
 10
-55.761770
 20
16.098146
  0
SEQEND
  0
POLYLINE
  8
LAYER_1
 62
7
 66
1
  0
VERTEX
  8
LAYER_1
 62
7
 10
-56.155471
 20
16.491847
  0
VERTEX
  8
LAYER_1
 62
7
 10
-56.155471
 20
16.098146
  0
SEQEND
  0
POLYLINE
  8
LAYER_1
 62
7
 66
1
  0
VERTEX
  8
LAYER_1
 62
7
 10
-56.249959
 20
16.491847
  0
VERTEX
  8
LAYER_1
 62
7
 10
-56.155471
 20
16.491847
  0
SEQEND
  0
POLYLINE
  8
LAYER_1
 62
7
 66
1
  0
VERTEX
  8
LAYER_1
 62
7
 10
-56.249959
 20
16.491847
  0
VERTEX
  8
LAYER_1
 62
7
 10
-56.249959
 20
17.082398
  0
SEQEND
  0
POLYLINE
  8
LAYER_1
 62
7
 66
1
  0
VERTEX
  8
LAYER_1
 62
7
 10
-56.249959
 20
17.082398
  0
VERTEX
  8
LAYER_1
 62
7
 10
-56.155471
 20
17.082398
  0
SEQEND
  0
POLYLINE
  8
LAYER_1
 62
7
 66
1
  0
VERTEX
  8
LAYER_1
 62
7
 10
-56.155471
 20
18.169012
  0
VERTEX
  8
LAYER_1
 62
7
 10
-56.155471
 20
17.082398
  0
SEQEND
  0
POLYLINE
  8
LAYER_1
 62
7
 66
1
  0
VERTEX
  8
LAYER_1
 62
7
 10
-56.249959
 20
18.169012
  0
VERTEX
  8
LAYER_1
 62
7
 10
-56.155471
 20
18.169012
  0
SEQEND
  0
POLYLINE
  8
LAYER_1
 62
7
 66
1
  0
VERTEX
  8
LAYER_1
 62
7
 10
-56.249959
 20
18.169012
  0
VERTEX
  8
LAYER_1
 62
7
 10
-56.249959
 20
18.759563
  0
SEQEND
  0
POLYLINE
  8
LAYER_1
 62
7
 66
1
  0
VERTEX
  8
LAYER_1
 62
7
 10
-56.249959
 20
18.759563
  0
VERTEX
  8
LAYER_1
 62
7
 10
-56.155471
 20
18.759563
  0
SEQEND
  0
POLYLINE
  8
LAYER_1
 62
7
 66
1
  0
VERTEX
  8
LAYER_1
 62
7
 10
-56.155471
 20
19.846177
  0
VERTEX
  8
LAYER_1
 62
7
 10
-56.155471
 20
18.759563
  0
SEQEND
  0
POLYLINE
  8
LAYER_1
 62
7
 66
1
  0
VERTEX
  8
LAYER_1
 62
7
 10
-56.249959
 20
19.846177
  0
VERTEX
  8
LAYER_1
 62
7
 10
-56.155471
 20
19.846177
  0
SEQEND
  0
POLYLINE
  8
LAYER_1
 62
7
 66
1
  0
VERTEX
  8
LAYER_1
 62
7
 10
-56.249959
 20
19.846177
  0
VERTEX
  8
LAYER_1
 62
7
 10
-56.249959
 20
20.436729
  0
SEQEND
  0
POLYLINE
  8
LAYER_1
 62
7
 66
1
  0
VERTEX
  8
LAYER_1
 62
7
 10
-56.249959
 20
20.436729
  0
VERTEX
  8
LAYER_1
 62
7
 10
-56.155471
 20
20.436729
  0
SEQEND
  0
POLYLINE
  8
LAYER_1
 62
7
 66
1
  0
VERTEX
  8
LAYER_1
 62
7
 10
-55.761770
 20
20.924918
  0
VERTEX
  8
LAYER_1
 62
7
 10
-55.761770
 20
20.830429
  0
SEQEND
  0
POLYLINE
  8
LAYER_1
 62
7
 66
1
  0
VERTEX
  8
LAYER_1
 62
7
 10
-55.761770
 20
20.924918
  0
VERTEX
  8
LAYER_1
 62
7
 10
-55.171219
 20
20.924918
  0
SEQEND
  0
POLYLINE
  8
LAYER_1
 62
7
 66
1
  0
VERTEX
  8
LAYER_1
 62
7
 10
-54.186967
 20
20.924918
  0
VERTEX
  8
LAYER_1
 62
7
 10
-54.186967
 20
20.830429
  0
SEQEND
  0
POLYLINE
  8
LAYER_1
 62
7
 66
1
  0
VERTEX
  8
LAYER_1
 62
7
 10
-54.186967
 20
20.924918
  0
VERTEX
  8
LAYER_1
 62
7
 10
-53.596416
 20
20.924918
  0
SEQEND
  0
POLYLINE
  8
LAYER_1
 62
7
 66
1
  0
VERTEX
  8
LAYER_1
 62
7
 10
-53.596416
 20
20.924918
  0
VERTEX
  8
LAYER_1
 62
7
 10
-53.596416
 20
20.830429
  0
SEQEND
  0
POLYLINE
  8
LAYER_1
 62
7
 66
1
  0
VERTEX
  8
LAYER_1
 62
7
 10
-53.202715
 20
20.830429
  0
VERTEX
  8
LAYER_1
 62
7
 10
-53.596416
 20
20.830429
  0
SEQEND
  0
POLYLINE
  8
LAYER_1
 62
7
 66
1
  0
VERTEX
  8
LAYER_1
 62
7
 10
-56.155471
 20
20.830429
  0
VERTEX
  8
LAYER_1
 62
7
 10
-56.155471
 20
20.436729
  0
SEQEND
  0
POLYLINE
  8
LAYER_1
 62
7
 66
1
  0
VERTEX
  8
LAYER_1
 62
7
 10
-55.171219
 20
20.924918
  0
VERTEX
  8
LAYER_1
 62
7
 10
-55.171219
 20
20.830429
  0
SEQEND
  0
POLYLINE
  8
LAYER_1
 62
7
 66
1
  0
VERTEX
  8
LAYER_1
 62
7
 10
-55.761770
 20
20.830429
  0
VERTEX
  8
LAYER_1
 62
7
 10
-56.155471
 20
20.830429
  0
SEQEND
  0
POLYLINE
  8
LAYER_1
 62
7
 66
1
  0
VERTEX
  8
LAYER_1
 62
7
 10
-54.186967
 20
20.830429
  0
VERTEX
  8
LAYER_1
 62
7
 10
-55.171219
 20
20.830429
  0
SEQEND
  0
ENDSEC
  0
EOF
