<?xml version="1.0" encoding="UTF-8" standalone="no"?>
<!-- Created with Inkscape (http://www.inkscape.org/) -->

<svg
   xmlns:dc="http://purl.org/dc/elements/1.1/"
   xmlns:cc="http://creativecommons.org/ns#"
   xmlns:rdf="http://www.w3.org/1999/02/22-rdf-syntax-ns#"
   xmlns:svg="http://www.w3.org/2000/svg"
   xmlns="http://www.w3.org/2000/svg"
   xmlns:sodipodi="http://sodipodi.sourceforge.net/DTD/sodipodi-0.dtd"
   xmlns:inkscape="http://www.inkscape.org/namespaces/inkscape"
   width="323.59375"
   height="1305.0938"
   id="svg2"
   version="1.1"
   inkscape:version="0.48.4 r9939"
   sodipodi:docname="phone_stand.svg">
  <defs
     id="defs4">
    <clipPath
       id="clipPath18"
       clipPathUnits="userSpaceOnUse">
      <path
         inkscape:connector-curvature="0"
         id="path20"
         d="M 0,5789.77 0,0 l 5449.61,0 0,5789.77 -5449.61,0 z" />
    </clipPath>
  </defs>
  <sodipodi:namedview
     id="base"
     pagecolor="#ffffff"
     bordercolor="#666666"
     borderopacity="1.0"
     inkscape:pageopacity="0.0"
     inkscape:pageshadow="2"
     inkscape:zoom="0.49497475"
     inkscape:cx="-429.62633"
     inkscape:cy="545.79133"
     inkscape:document-units="px"
     inkscape:current-layer="layer1"
     showgrid="false"
     inkscape:object-paths="true"
     inkscape:object-nodes="true"
     inkscape:snap-intersection-paths="true"
     inkscape:snap-global="true"
     inkscape:window-width="1920"
     inkscape:window-height="1145"
     inkscape:window-x="0"
     inkscape:window-y="276"
     inkscape:window-maximized="1"
     fit-margin-top="20"
     fit-margin-left="20"
     fit-margin-right="20"
     fit-margin-bottom="20" />
  <metadata
     id="metadata7">
    <rdf:RDF>
      <cc:Work
         rdf:about="">
        <dc:format>image/svg+xml</dc:format>
        <dc:type
           rdf:resource="http://purl.org/dc/dcmitype/StillImage" />
        <dc:title />
      </cc:Work>
    </rdf:RDF>
  </metadata>
  <g
     inkscape:label="Layer 1"
     inkscape:groupmode="layer"
     id="layer1"
     transform="translate(-409.34375,247.5)">
    <path
       id="path5914"
       style="fill:none;stroke:#000000;stroke-width:0.1;stroke-linecap:round;stroke-linejoin:round;stroke-miterlimit:4;stroke-opacity:1;stroke-dasharray:none"
       d="m 464.84375,-227.4375 -6,262.1875 -29.4375,0 0,35.4375 0,131.125 0,258.65625 0,223.21875 0,354.3437 283.46875,0 0,-354.3437 0,-223.21875 0,-258.65625 0,-131.125 0,-35.4375 -29.4375,0 -6,-262.1875 z M 540.25,-207.5 l 61.78125,0 c 2.51831,0 4.53125,2.01294 4.53125,4.53125 l 0,26.34375 c 0,2.51831 -2.01294,4.5625 -4.53125,4.5625 l -61.78125,0 c -2.51831,0 -4.5625,-2.04419 -4.5625,-4.5625 l 0,-26.34375 c 0,-2.51831 2.04419,-4.53125 4.5625,-4.53125 z m -77.1875,1160.67292 216.125,0 0,10.8587 -216.125,0 0,-10.8587 z m 28.06908,-455.8323 -52.76267,0 m 61.55638,0 61.55637,0 m 8.79278,0 61.55668,0 m 8.7938,0 61.55669,0 m 10.50384,5.40928 -36.88527,-0.0943 m -8.79382,0 -61.55564,0 m -8.79381,0 -61.55669,0 m -8.79382,0 -52.76224,0 m -8.79371,0 -35.17567,0 m 61.5568,5.315 -52.76267,0 m 61.55638,0 61.55637,0 m 8.79278,0 61.55668,0 m 8.7938,0 61.55669,0 m 10.50384,5.40928 -36.88527,-0.0943 m -8.79382,0 -61.55564,0 m -8.79381,0 -61.55669,0 m -8.79382,0 -52.76224,0 m -8.79371,0 -35.17567,0 m 61.5568,-26.57375 -52.76267,0 m 61.55638,0 61.55637,0 m 8.79278,0 61.55668,0 m 8.7938,0 61.55669,0 m 10.50384,5.40803 -36.88527,-0.0943 m -8.79382,0 -61.55564,0 m -8.79381,0 -61.55669,0 m -8.79382,0 -52.76224,0 m -8.79371,0 -35.17567,0 m 61.5568,37.205 -52.76267,0 m 61.55638,0 61.55637,0 m 8.79278,0 61.55668,0 m 8.7938,0 61.55669,0 m 10.50384,5.40928 -36.88527,-0.0943 m -8.79382,0 -61.55564,0 m -8.79381,0 -61.55669,0 m -8.79382,0 -52.76224,0 m -8.79371,0 -35.17567,0 m 61.5568,5.315 -52.76267,0 m 61.55638,0 61.55637,0 m 8.79278,0 61.55668,0 m 8.7938,0 61.55669,0 m 10.50384,5.40928 -36.88527,-0.0943 m -8.79382,0 -61.55564,0 m -8.79381,0 -61.55669,0 m -8.79382,0 -52.76224,0 m -8.79371,0 -35.17567,0 m 61.5568,-26.575 -52.76267,0 m 61.55638,0 61.55637,0 m 8.79278,0 61.55668,0 m 8.7938,0 61.55669,0 m 10.50384,5.40928 -36.88527,-0.0943 m -8.79382,0 -61.55564,0 m -8.79381,0 -61.55669,0 m -8.79382,0 -52.76224,0 m -8.79371,0 -35.17567,0 m 61.5568,37.20501 -52.76267,0 m 61.55638,0 61.55637,0 m 8.79278,0 61.55668,0 m 8.7938,0 61.55669,0 m 10.50384,-90.25948 -36.88527,-0.0943 m -8.79382,0 -61.55564,0 m -8.79381,0 -61.55669,0 m -8.79382,0 -52.76224,0 m -8.79371,0 -35.17567,0 m 61.5568,5.315 -52.76267,0 m 61.55638,0 61.55637,0 m 8.79278,0 61.55668,0 m 8.7938,0 61.55669,0 m 10.50384,5.40928 -36.88527,-0.0943 m -8.79382,0 -61.55564,0 m -8.79381,0 -61.55669,0 m -8.79382,0 -52.76224,0 m -8.79371,0 -35.17567,0 m 61.5568,69.09375 -52.76267,0 m 61.55638,0 61.55637,0 m 8.79278,0 61.55668,0 m 8.7938,0 61.55669,0 m 10.50384,5.40928 -36.88527,-0.0943 m -8.79382,0 -61.55564,0 m -8.79381,0 -61.55669,0 m -8.79382,0 -52.76224,0 m -8.79371,0 -35.17567,0 m 283.11067,-95.57447 -36.88527,-0.0943 m -8.79382,0 -61.55564,0 m -8.79381,0 -61.55669,0 m -8.79382,0 -52.76224,0 m -8.79371,0 -35.17567,0 m 61.5568,5.315 -52.76267,0 m 61.55638,0 61.55637,0 m 8.79278,0 61.55668,0 m 8.7938,0 61.55669,0 m 10.50384,101.07804 -36.88527,-0.0943 m -8.79382,0 -61.55564,0 m -8.79381,0 -61.55669,0 m -8.79382,0 -52.76224,0 m -8.79371,0 -35.17567,0 m 61.5568,5.315 -52.76267,0 m 61.55638,0 61.55637,0 m 8.79278,0 61.55668,0 m 8.7938,0 61.55669,0 m -211.05003,10.59206 -52.76267,0 m 61.55638,0 61.55637,0 m 8.79278,0 61.55668,0 m 8.7938,0 61.55669,0 m 10.50384,-5.22072 -36.88527,-0.0943 m -8.79382,0 -61.55564,0 m -8.79381,0 -61.55669,0 m -8.79382,0 -52.76224,0 m -8.79371,0 -35.17567,0 m 283.11067,10.72428 -36.88527,-0.0943 m -8.79382,0 -61.55564,0 m -8.79381,0 -61.55669,0 m -8.79382,0 -52.76224,0 m -8.79371,0 -35.17567,0 m 61.5568,-480.08075 -52.76267,0 m 61.55638,0 61.55637,0 m 8.79278,0 61.55668,0 m 8.7938,0 61.55669,0 m 10.50384,5.40928 -36.88527,-0.0943 m -8.79382,0 -61.55564,0 m -8.79381,0 -61.55669,0 m -8.79382,0 -52.76224,0 m -8.79371,0 -35.17567,0 m 61.5568,5.315 -52.76267,0 m 61.55638,0 61.55637,0 m 8.79278,0 61.55668,0 m 8.7938,0 61.55669,0 m 10.50384,5.40928 -36.88527,-0.0943 m -8.79382,0 -61.55564,0 m -8.79381,0 -61.55669,0 m -8.79382,0 -52.76224,0 m -8.79371,0 -35.17567,0 m 61.5568,-26.57375 -52.76267,0 m 61.55638,0 61.55637,0 m 8.79278,0 61.55668,0 m 8.7938,0 61.55669,0 m 10.50384,5.40803 -36.88527,-0.0943 m -8.79382,0 -61.55564,0 m -8.79381,0 -61.55669,0 m -8.79382,0 -52.76224,0 m -8.79371,0 -35.17567,0 m 61.5568,37.205 -52.76267,0 m 61.55638,0 61.55637,0 m 8.79278,0 61.55668,0 m 8.7938,0 61.55669,0 m 10.50384,5.40928 -36.88527,-0.0943 m -8.79382,0 -61.55564,0 m -8.79381,0 -61.55669,0 m -8.79382,0 -52.76224,0 m -8.79371,0 -35.17567,0 m 61.5568,5.315 -52.76267,0 m 61.55638,0 61.55637,0 m 8.79278,0 61.55668,0 m 8.7938,0 61.55669,0 m 10.50384,5.40928 -36.88527,-0.0943 m -8.79382,0 -61.55564,0 m -8.79381,0 -61.55669,0 m -8.79382,0 -52.76224,0 m -8.79371,0 -35.17567,0 m 61.5568,-26.575 -52.76267,0 m 61.55638,0 61.55637,0 m 8.79278,0 61.55668,0 m 8.7938,0 61.55669,0 m 10.50384,5.40928 -36.88527,-0.0943 m -8.79382,0 -61.55564,0 m -8.79381,0 -61.55669,0 m -8.79382,0 -52.76224,0 m -8.79371,0 -35.17567,0 m 61.5568,37.20501 -52.76267,0 m 61.55638,0 61.55637,0 m 8.79278,0 61.55668,0 m 8.7938,0 61.55669,0 m 10.50384,-90.25948 -36.88527,-0.0943 m -8.79382,2e-5 -61.55564,0 m -8.79381,0 -61.55669,0 m -8.79382,0 -52.76224,0 m -8.79371,0 -35.17567,0 m 61.5568,5.315 -52.76267,0 m 61.55638,0 61.55637,0 m 8.79278,0 61.55668,0 m 8.7938,0 61.55669,0 m 10.50384,5.40928 -36.88527,-0.0943 m -8.79382,2e-5 -61.55564,0 m -8.79381,0 -61.55669,0 m -8.79382,0 -52.76224,0 m -8.79371,0 -35.17567,0 m 61.5568,69.09375 -52.76267,0 m 61.55638,0 61.55637,0 m 8.79278,0 61.55668,0 m 8.7938,0 61.55669,0 m 10.50384,5.40928 -36.88527,-0.0943 m -8.79382,0 -61.55564,0 m -8.79381,0 -61.55669,0 m -8.79382,0 -52.76224,0 m -8.79371,0 -35.17567,0 m 283.11067,-95.57447 -36.88527,-0.0943 m -8.79382,2e-5 -61.55564,0 m -8.79381,0 -61.55669,0 m -8.79382,0 -52.76224,0 m -8.79371,0 -35.17567,0 m 61.5568,5.315 -52.76267,0 m 61.55638,0 61.55637,0 m 8.79278,0 61.55668,0 m 8.7938,0 61.55669,0 m 10.50384,101.07804 -36.88527,-0.0943 m -8.79382,0 -61.55564,0 m -8.79381,0 -61.55669,0 m -8.79382,0 -52.76224,0 m -8.79371,0 -35.17567,0 m 61.5568,5.315 -52.76267,0 m 61.55638,0 61.55637,0 m 8.79278,0 61.55668,0 m 8.7938,0 61.55669,0 m -211.05003,10.59206 -52.76267,0 m 61.55638,0 61.55637,0 m 8.79278,0 61.55668,0 m 8.7938,0 61.55669,0 m 10.50384,-5.22072 -36.88527,-0.0943 m -8.79382,0 -61.55564,0 m -8.79381,0 -61.55669,0 m -8.79382,0 -52.76224,0 m -8.79371,0 -35.17567,0 m 283.11067,10.72428 -36.88527,-0.0943 m -8.79382,0 -61.55564,0 m -8.79381,0 -61.55669,0 m -8.79382,0 -52.76224,0 m -8.79371,0 -35.17567,0 m 61.5568,416.16089 -52.76267,0 m 61.55638,0 61.55637,0 m 8.79278,0 61.55668,0 m 8.7938,0 61.55669,0 m 10.50384,5.40928 -36.88527,-0.0943 m -8.79382,0 -61.55564,0 m -8.79381,0 -61.55669,0 m -8.79382,0 -52.76224,0 m -8.79371,0 -35.17567,0 m 61.5568,5.315 -52.76267,0 m 61.55638,0 61.55637,0 m 8.79278,0 61.55668,0 m 8.7938,0 61.55669,0 m 10.50384,5.40928 -36.88527,-0.0943 m -8.79382,0 -61.55564,0 m -8.79381,0 -61.55669,0 m -8.79382,0 -52.76224,0 m -8.79371,0 -35.17567,0 m 61.5568,-26.57375 -52.76267,0 m 61.55638,0 61.55637,0 m 8.79278,0 61.55668,0 m 8.7938,0 61.55669,0 m 10.50384,5.40803 -36.88527,-0.0943 m -8.79382,0 -61.55564,0 m -8.79381,0 -61.55669,0 m -8.79382,0 -52.76224,0 m -8.79371,0 -35.17567,0 m 61.5568,37.205 -52.76267,0 m 61.55638,0 61.55637,0 m 8.79278,0 61.55668,0 m 8.7938,0 61.55669,0 m 10.50384,5.40928 -36.88527,-0.0943 m -8.79382,0 -61.55564,0 m -8.79381,0 -61.55669,0 m -8.79382,0 -52.76224,0 m -8.79371,0 -35.17567,0 m 61.5568,5.315 -52.76267,0 m 61.55638,0 61.55637,0 m 8.79278,0 61.55668,0 m 8.7938,0 61.55669,0 m 10.50384,5.40928 -36.88527,-0.0943 m -8.79382,0 -61.55564,0 m -8.79381,0 -61.55669,0 m -8.79382,0 -52.76224,0 m -8.79371,0 -35.17567,0 m 61.5568,-26.575 -52.76267,0 m 61.55638,0 61.55637,0 m 8.79278,0 61.55668,0 m 8.7938,0 61.55669,0 m 10.50384,5.40928 -36.88527,-0.0943 m -8.79382,0 -61.55564,0 m -8.79381,0 -61.55669,0 m -8.79382,0 -52.76224,0 m -8.79371,0 -35.17567,0 m 61.5568,37.20501 -52.76267,0 m 61.55638,0 61.55637,0 m 8.79278,0 61.55668,0 m 8.7938,0 61.55669,0 m -211.05003,-85.03876 -52.76267,0 m 61.55638,0 61.55637,0 m 8.79278,0 61.55668,0 m 8.7938,0 61.55669,0 m 10.50384,5.40928 -36.88527,-0.0943 m -8.79382,0 -61.55564,0 m -8.79381,0 -61.55669,0 m -8.79382,0 -52.76224,0 m -8.79371,0 -35.17567,0 m 61.5568,69.09375 -52.76267,0 m 61.55638,0 61.55637,0 m 8.79278,0 61.55668,0 m 8.7938,0 61.55669,0 m 10.50384,5.40928 -36.88527,-0.0943 m -8.79382,0 -61.55564,0 m -8.79381,0 -61.55669,0 m -8.79382,0 -52.76224,0 m -8.79371,0 -35.17567,0 m 283.11067,10.72429 -36.88527,-0.0943 m -8.79382,0 -61.55564,0 m -8.79381,0 -61.55669,0 m -8.79382,0 -52.76224,0 m -8.79371,0 -35.17567,0"
       inkscape:connector-curvature="0" />
  </g>
</svg>
